<svg id="copy_copy_2" data-name="copy copy 2" xmlns="http://www.w3.org/2000/svg" width="720" height="150"><defs><style>.cls-2{fill-rule:evenodd}</style></defs><path id="Rectangle_106_copy_5" data-name="Rectangle 106 copy 5" d="M0 0h719.813l.171 150H.172z" fill-rule="evenodd" fill="#fff"/><g id="CTA_underline"><path d="M30 97h90v3H30z"/><path id="SHOP_now" data-name="SHOP now" class="cls-2" d="M33.395 92.2a3.12 3.12 0 0 0 3.422-3.065 3.05 3.05 0 0 0-2.277-2.967l-.674-.252c-1.011-.378-1.482-.616-1.482-1.148a.984.984 0 0 1 1.159-.756 2.1 2.1 0 0 1 1.657.826l1.4-1.54a3.921 3.921 0 0 0-3.085-1.372 3 3 0 0 0-3.3 3.074c0 1.358.862 2.324 2.412 2.869l.673.231c.957.336 1.334.686 1.334 1.19a.977.977 0 0 1-1.159.826 2.48 2.48 0 0 1-1.975-1.131l-1.644 1.442a4.143 4.143 0 0 0 3.539 1.773zm7.332-.168h2.142V88.1h3.853v3.933h2.142V82.1h-2.141v3.89h-3.854V82.1h-2.142v9.938zm16.993.168a5.141 5.141 0 1 0-4.945-5.137A5.056 5.056 0 0 0 57.72 92.2zm0-2.156a2.989 2.989 0 1 1 2.78-2.976 2.9 2.9 0 0 1-2.78 2.981zM73.191 85.5a3.32 3.32 0 0 0-3.368-3.4h-3.248v9.938h2.142v-3.151h1.1a3.308 3.308 0 0 0 3.374-3.387zm-2.075 0a1.282 1.282 0 0 1-1.32 1.3h-1.079v-2.6H69.8a1.274 1.274 0 0 1 1.316 1.3zm19.54 6.537V82.1H88.5v6.131L83.851 82.1h-1.845v9.938h2.142v-6.146l4.662 6.145h1.846zm8.855.163a5.141 5.141 0 1 0-4.945-5.137 5.056 5.056 0 0 0 4.945 5.137zm0-2.156a2.989 2.989 0 1 1 2.775-2.981 2.9 2.9 0 0 1-2.775 2.986zm16.265 1.987h2.035l2.223-9.938h-2.29l-1.307 6.3-2.695-6.466-2.681 6.473-1.307-6.3h-2.291l2.21 9.938h2.034l2.035-4.871z"/></g><path id="Slim-Fit_Chambray_Shirt" data-name="Slim-Fit Chambray Shirt" class="cls-2" d="M37.946 52.231c4.5 0 7.59-2.7 7.62-6.57.03-3.21-1.98-5.25-5.07-6.36l-1.5-.54c-2.25-.81-3.3-1.32-3.3-2.46 0-1.11 1.29-1.62 2.58-1.62a4.738 4.738 0 0 1 3.69 1.77l3.12-3.3a8.887 8.887 0 0 0-6.87-2.94c-4.26 0-7.35 2.43-7.35 6.57 0 2.91 1.92 4.98 5.37 6.15l1.5.51c2.13.72 2.97 1.47 2.97 2.55 0 1.02-.99 1.77-2.58 1.77a5.573 5.573 0 0 1-4.41-2.43l-3.66 3.09a9.34 9.34 0 0 0 7.89 3.81zm12.42-.36h13.59v-4.56h-8.82V30.572h-4.77v21.3zm18.06 0H73.2v-21.3h-4.77v21.3zm21.774-4.53l6.21-8.61v13.14h4.8v-21.3h-4.345l-6.66 9.18-6.66-9.18H79.2v21.3h4.77V38.732zm16.5-3.96h8.82v-4.32h-8.82v4.32zm14.31 8.49h4.769v-8.34h6.51v-4.56h-6.51v-3.84h8.34v-4.56h-13.104v21.3zm17.85 0h4.769v-21.3h-4.769v21.3zm14.609 0h4.8V35.132h5.49v-4.56h-15.72v4.56h5.43v16.739zm31.74.36a11.01 11.01 0 0 0 9.959-5.82l-4.2-2.28a6.39 6.39 0 1 1 0-5.82l4.2-2.28a11.1 11.1 0 1 0-9.954 16.2zm14.25-.36h4.77v-8.43h8.579v8.43h4.77v-21.3h-4.77v8.34h-8.579v-8.34h-4.77v21.3zm21.84 0h4.98l1.89-4.5h8.819l1.89 4.5h4.98l-9.12-21.3h-4.319zm8.61-8.64l2.669-6.42 2.67 6.42h-5.339zm28.679 4.11l6.21-8.61v13.14h4.8v-21.3h-4.35l-6.66 9.18-6.659-9.18h-4.35v21.3h4.77V38.732zm17.01 4.53h9.36a6.3 6.3 0 0 0 6.48-6.27 5.566 5.566 0 0 0-3.03-5.04 5.013 5.013 0 0 0 1.53-3.66 6.331 6.331 0 0 0-6.33-6.33H275.6v21.3zm4.77-12.689v-4.26h2.7a2.165 2.165 0 0 1 2.22 2.16 2.135 2.135 0 0 1-2.22 2.1h-2.7zm0 8.31v-4.26h4.17a2.167 2.167 0 0 1 2.25 2.13 2.141 2.141 0 0 1-2.22 2.13h-4.2zm15.78 4.38h4.77v-8.79h.78l7.08 8.79h5.73l-7.53-9.39c2.7-.96 4.17-2.73 4.17-5.49a6.288 6.288 0 0 0-6.6-6.42h-8.4v21.3zm4.77-12.84v-4.08h3.06c1.41 0 2.43.75 2.43 2.04a2.156 2.156 0 0 1-2.43 2.04h-3.06zm14.31 12.84h4.98l1.89-4.5h8.819l1.89 4.5h4.98l-9.12-21.3h-4.319zm8.61-8.64l2.67-6.42 2.669 6.42h-5.339zm20.67 8.64h4.8v-8.94l7.769-12.359h-5.549l-4.65 7.68-4.59-7.68h-5.55l7.77 12.33v8.97zm30.3.36c4.5 0 7.59-2.7 7.62-6.57.03-3.21-1.98-5.25-5.07-6.36l-1.5-.54c-2.25-.81-3.3-1.32-3.3-2.46 0-1.11 1.29-1.62 2.58-1.62a4.738 4.738 0 0 1 3.69 1.77l3.12-3.3a8.888 8.888 0 0 0-6.87-2.94c-4.259 0-7.349 2.43-7.349 6.57 0 2.91 1.92 4.98 5.369 6.15l1.5.51c2.13.72 2.97 1.47 2.97 2.55 0 1.02-.99 1.77-2.58 1.77a5.569 5.569 0 0 1-4.409-2.43l-3.66 3.09a9.338 9.338 0 0 0 7.893 3.809zm12.42-.36H392v-8.43h8.58v8.43h4.77v-21.3h-4.77v8.34H392v-8.34h-4.77v21.3zm24.12 0h4.77v-21.3h-4.77v21.3zm10.77 0h4.77v-8.79h.78l7.079 8.79h5.73l-7.53-9.39c2.7-.96 4.17-2.73 4.17-5.49a6.288 6.288 0 0 0-6.6-6.42h-8.4v21.3zm4.77-12.84v-4.08h3.06c1.41 0 2.429.75 2.429 2.04a2.155 2.155 0 0 1-2.429 2.04h-3.06zm19.77 12.84h4.8v-16.74h5.489v-4.56h-15.715v4.56h5.43v16.739z"/></svg>