<svg id="copy_copy_2" data-name="copy copy 2" xmlns="http://www.w3.org/2000/svg" width="720" height="178" viewBox="0 0 720 178">
  <defs>
    <style>
      .cls-1 {
        fill: #fff;
      }

      .cls-2 {
        fill-rule: evenodd;
      }
    </style>
  </defs>
  <rect id="Rectangle_106_copy_12" data-name="Rectangle 106 copy 12" class="cls-1" width="720" height="178"/>
  <g id="CTA_underline">
    <rect x="30" y="125" width="90" height="3"/>
    <path id="SHOP_now" data-name="SHOP now" class="cls-2" d="M33.395,120.2a3.12,3.12,0,0,0,3.422-3.065,3.049,3.049,0,0,0-2.277-2.967l-0.674-.252c-1.011-.378-1.482-0.616-1.482-1.148a0.984,0.984,0,0,1,1.159-.756,2.1,2.1,0,0,1,1.657.826l1.4-1.54a3.923,3.923,0,0,0-3.085-1.371,3,3,0,0,0-3.3,3.065c0,1.358.862,2.323,2.412,2.869L33.3,116.1c0.957,0.336,1.334.686,1.334,1.19a0.977,0.977,0,0,1-1.159.826,2.48,2.48,0,0,1-1.981-1.134l-1.644,1.442A4.141,4.141,0,0,0,33.395,120.2Zm7.332-.168h2.142V116.1h3.853v3.933h2.142V110.1H46.723v3.891H42.869V110.1H40.727v9.937ZM57.72,120.2a5.14,5.14,0,1,0-4.945-5.136A5.055,5.055,0,0,0,57.72,120.2Zm0-2.155a2.989,2.989,0,1,1,2.776-2.981A2.9,2.9,0,0,1,57.72,118.049ZM73.191,113.5a3.319,3.319,0,0,0-3.368-3.4H66.575v9.937h2.142v-3.149h1.1A3.308,3.308,0,0,0,73.191,113.5Zm-2.075,0a1.282,1.282,0,0,1-1.32,1.3H68.717v-2.6H69.8A1.274,1.274,0,0,1,71.116,113.5Zm19.54,6.536V110.1H88.5v6.13l-4.648-6.13H82.006v9.937h2.142v-6.144l4.662,6.144h1.846Zm8.855,0.168a5.14,5.14,0,1,0-4.945-5.136A5.056,5.056,0,0,0,99.511,120.2Zm0-2.155a2.989,2.989,0,1,1,2.775-2.981A2.9,2.9,0,0,1,99.511,118.049Zm16.265,1.987h2.035l2.223-9.937h-2.29l-1.307,6.3-2.695-6.466-2.681,6.466-1.307-6.3h-2.291l2.21,9.937h2.034l2.035-4.87Z"/>
  </g>
  <path id="Extra-fine_Italian_Merino_Wool_Sweater_" data-name="Extra-fine Italian Merino  Wool Sweater " class="cls-2" d="M31.586,51.871h13.5v-4.56h-8.73V43.5h6.93v-4.56h-6.93v-3.81h8.73v-4.56h-13.5v21.3Zm32.219,0h5.55L61.406,41.1l7.47-10.53h-5.52l-4.83,6.84-4.83-6.84h-5.52l7.5,10.53L47.7,51.871h5.58l5.28-7.05Zm12.87,0h4.8V35.132h5.49v-4.56H71.246v4.56h5.43V51.871Zm14.7,0h4.77v-8.79h0.78l7.08,8.79h5.729l-7.529-9.39c2.7-.96,4.169-2.73,4.169-5.49a6.288,6.288,0,0,0-6.6-6.42h-8.4v21.3Zm4.77-12.84v-4.08h3.06c1.41,0,2.43.75,2.43,2.04a2.156,2.156,0,0,1-2.43,2.04h-3.06Zm14.31,12.84h4.98l1.889-4.5h8.82l1.89,4.5h4.98l-9.12-21.3h-4.32Zm8.609-8.64,2.67-6.42,2.67,6.42h-5.34ZM135,43.381h8.82v-4.32H135v4.32Zm14.31,8.49h4.77v-8.34h6.509v-4.56h-6.509v-3.84h8.339v-4.56H149.306v21.3Zm17.85,0h4.769v-21.3h-4.769v21.3Zm30.029,0v-21.3h-4.8V43.711l-10.35-13.139h-4.11v21.3h4.77V38.7l10.38,13.17h4.11Zm6,0h13.5v-4.56h-8.73V43.5h6.93v-4.56h-6.93v-3.81h8.73v-4.56h-13.5v21.3Zm26.73,0h4.77v-21.3h-4.77v21.3Zm14.609,0h4.8V35.132h5.49v-4.56H239.1v4.56h5.429V51.871Zm10.261,0h4.979l1.89-4.5h8.82l1.89,4.5h4.98l-9.12-21.3H263.9Zm8.609-8.64,2.67-6.42,2.67,6.42h-5.34Zm17.671,8.64h13.589v-4.56h-8.82V30.572h-4.769v21.3Zm18.059,0h4.77v-21.3h-4.77v21.3Zm8.49,0h4.98l1.89-4.5H323.3l1.89,4.5h4.98l-9.12-21.3h-4.319Zm8.61-8.64,2.669-6.42,2.67,6.42h-5.339Zm36.929,8.64v-21.3h-4.8V43.711L338,30.572h-4.11v21.3h4.77V38.7l10.379,13.17h4.11Zm25.11-4.53,6.209-8.61V51.871h4.8v-21.3h-4.35l-6.659,9.18-6.66-9.18h-4.35v21.3h4.77V38.732Zm17.01,4.53h13.5v-4.56h-8.729V43.5h6.929v-4.56h-6.929v-3.81h8.729v-4.56h-13.5v21.3Zm18.63,0h4.77v-8.79h0.78l7.079,8.79h5.73l-7.53-9.39c2.7-.96,4.17-2.73,4.17-5.49a6.288,6.288,0,0,0-6.6-6.42h-8.4v21.3Zm4.77-12.84v-4.08h3.059c1.41,0,2.43.75,2.43,2.04a2.156,2.156,0,0,1-2.43,2.04h-3.059Zm16.589,12.84h4.77v-21.3h-4.77v21.3Zm30.029,0v-21.3h-4.8V43.711l-10.35-13.139h-4.11v21.3h4.77V38.7l10.379,13.17h4.11Zm15.81,0.36a11.01,11.01,0,1,0-11.009-11.01A11.036,11.036,0,0,0,481.1,52.231Zm0-4.62a6.393,6.393,0,1,1,6.18-6.39A6.319,6.319,0,0,1,481.1,47.611ZM48.356,79.871h4.53l4.95-21.3h-5.1l-2.91,13.5-6-13.859-5.97,13.859-2.91-13.5h-5.1l4.92,21.3H39.3l4.53-10.44Zm23.25,0.36A11.01,11.01,0,1,0,60.6,69.222,11.036,11.036,0,0,0,71.606,80.231Zm0-4.62a6.393,6.393,0,1,1,6.18-6.39A6.32,6.32,0,0,1,71.606,75.611Zm25.62,4.62a11.01,11.01,0,1,0-11.01-11.01A11.036,11.036,0,0,0,97.226,80.231Zm0-4.62a6.393,6.393,0,1,1,6.179-6.39A6.319,6.319,0,0,1,97.226,75.611Zm15.81,4.26h13.589v-4.56h-8.82V58.572h-4.769v21.3Zm31.709,0.36c4.5,0,7.589-2.7,7.619-6.57,0.03-3.21-1.98-5.25-5.069-6.36l-1.5-.54c-2.25-.81-3.3-1.32-3.3-2.46,0-1.11,1.29-1.62,2.58-1.62a4.738,4.738,0,0,1,3.69,1.77l3.119-3.3a8.884,8.884,0,0,0-6.869-2.94c-4.26,0-7.35,2.43-7.35,6.57,0,2.91,1.92,4.98,5.37,6.15l1.5,0.51c2.13,0.72,2.97,1.47,2.97,2.55,0,1.02-.99,1.77-2.58,1.77a5.573,5.573,0,0,1-4.41-2.43l-3.66,3.09A9.34,9.34,0,0,0,144.745,80.231Zm28.859-.36h4.53l4.95-21.3h-5.1l-2.91,13.5-6-13.859L163.1,72.071l-2.91-13.5h-5.1l4.92,21.3h4.53l4.53-10.44Zm13.681,0h13.5v-4.56h-8.729V71.5h6.929v-4.56h-6.929v-3.81h8.729v-4.56h-13.5v21.3Zm16.35,0h4.98l1.89-4.5h8.819l1.89,4.5h4.98l-9.12-21.3h-4.319Zm8.61-8.64,2.67-6.42,2.669,6.42h-5.339Zm19.38,8.64h4.8V63.132h5.489v-4.56H226.2v4.56h5.43V79.871Zm14.7,0h13.5v-4.56H251.1V71.5h6.929v-4.56H251.1v-3.81h8.729v-4.56h-13.5v21.3Zm18.63,0h4.77v-8.79H270.5l7.08,8.79h5.73l-7.53-9.39c2.7-.96,4.17-2.73,4.17-5.49a6.288,6.288,0,0,0-6.6-6.42h-8.4v21.3Zm4.77-12.84v-4.08h3.059c1.41,0,2.43.75,2.43,2.04a2.156,2.156,0,0,1-2.43,2.04h-3.059Z"/>
</svg>
