<svg id="copy_copy_3" data-name="copy copy 3" xmlns="http://www.w3.org/2000/svg" width="720" height="150" viewBox="0 0 720 150">
  <defs>
    <style>
      .cls-1 {
        fill: #fff;
      }

      .cls-2 {
        fill-rule: evenodd;
      }
    </style>
  </defs>
  <rect id="Rectangle_106_copy_12" data-name="Rectangle 106 copy 12" class="cls-1" width="720" height="150"/>
  <g id="CTA_underline">
    <rect x="30" y="97" width="90" height="3"/>
    <path id="SHOP_now" data-name="SHOP now" class="cls-2" d="M33.395,92.2a3.12,3.12,0,0,0,3.422-3.065,3.05,3.05,0,0,0-2.277-2.967l-0.674-.252c-1.011-.378-1.482-0.616-1.482-1.148a0.984,0.984,0,0,1,1.159-.756,2.1,2.1,0,0,1,1.657.826l1.4-1.54a3.921,3.921,0,0,0-3.085-1.372A3,3,0,0,0,30.215,85c0,1.358.862,2.324,2.412,2.869L33.3,88.1c0.957,0.336,1.334.686,1.334,1.19a0.977,0.977,0,0,1-1.159.826A2.48,2.48,0,0,1,31.5,88.985l-1.644,1.442A4.143,4.143,0,0,0,33.395,92.2Zm7.332-.168h2.142V88.1h3.853v3.933h2.142V82.1H46.723V85.99H42.869V82.1H40.727v9.938ZM57.72,92.2a5.141,5.141,0,1,0-4.945-5.137A5.056,5.056,0,0,0,57.72,92.2Zm0-2.156A2.989,2.989,0,1,1,60.5,87.068,2.9,2.9,0,0,1,57.72,90.049ZM73.191,85.5a3.32,3.32,0,0,0-3.368-3.4H66.575v9.938h2.142V88.887h1.1A3.308,3.308,0,0,0,73.191,85.5Zm-2.075,0a1.282,1.282,0,0,1-1.32,1.3H68.717V84.2H69.8A1.274,1.274,0,0,1,71.116,85.5Zm19.54,6.537V82.1H88.5v6.131L83.851,82.1H82.006v9.938h2.142V85.892l4.662,6.145h1.846ZM99.511,92.2a5.141,5.141,0,1,0-4.945-5.137A5.056,5.056,0,0,0,99.511,92.2Zm0-2.156a2.989,2.989,0,1,1,2.775-2.981A2.9,2.9,0,0,1,99.511,90.049Zm16.265,1.987h2.035l2.223-9.938h-2.29l-1.307,6.3-2.695-6.466L111.061,88.4l-1.307-6.3h-2.291l2.21,9.938h2.034l2.035-4.871Z"/>
  </g>
  <path id="Water-Repellent_Four-Pocket_Jacket" data-name="Water-Repellent Four-Pocket Jacket" class="cls-2" d="M48.356,51.871h4.53l4.95-21.3h-5.1l-2.91,13.5-6-13.859-5.97,13.859-2.91-13.5h-5.1l4.92,21.3H39.3l4.53-10.44Zm9.841,0h4.98l1.89-4.5h8.82l1.89,4.5h4.98l-9.12-21.3h-4.32Zm8.61-8.64,2.67-6.42,2.67,6.42h-5.34Zm19.08,8.64h4.8V35.132h5.49v-4.56H80.457v4.56h5.43V51.871Zm14.4,0h13.5v-4.56h-8.73V43.5h6.93v-4.56h-6.93v-3.81h8.73v-4.56h-13.5v21.3Zm18.33,0h4.77v-8.79h0.78l7.08,8.79h5.73l-7.53-9.39c2.7-.96,4.17-2.73,4.17-5.49a6.288,6.288,0,0,0-6.6-6.42h-8.4v21.3Zm4.77-12.84v-4.08h3.06c1.41,0,2.43.75,2.43,2.04a2.156,2.156,0,0,1-2.43,2.04h-3.06Zm14.82,4.35h8.82v-4.32h-8.82v4.32Zm14.01,8.49h4.769v-8.79h0.78l7.08,8.79h5.73l-7.53-9.39c2.7-.96,4.17-2.73,4.17-5.49a6.288,6.288,0,0,0-6.6-6.42h-8.4v21.3Zm4.769-12.84v-4.08h3.06c1.41,0,2.43.75,2.43,2.04a2.156,2.156,0,0,1-2.43,2.04h-3.06Zm16.29,12.84h13.5v-4.56h-8.73V43.5h6.93v-4.56h-6.93v-3.81h8.73v-4.56h-13.5v21.3Zm33.06-14.009a7.254,7.254,0,0,0-7.5-7.29h-7.23v21.3h4.77v-6.75h2.46A7.23,7.23,0,0,0,206.335,37.862Zm-4.62,0a2.8,2.8,0,0,1-2.94,2.79h-2.4v-5.58h2.4A2.785,2.785,0,0,1,201.715,37.862Zm8.88,14.009h13.5v-4.56h-8.729V43.5h6.929v-4.56h-6.929v-3.81h8.729v-4.56H210.6v21.3Zm18.33,0h13.589v-4.56H233.7V30.572h-4.77v21.3Zm17.759,0h13.59v-4.56h-8.82V30.572h-4.77v21.3Zm17.76,0h13.5v-4.56h-8.73V43.5h6.93v-4.56h-6.93v-3.81h8.73v-4.56h-13.5v21.3Zm37.589,0v-21.3h-4.8V43.711L286.884,30.572h-4.11v21.3h4.77V38.7l10.379,13.17h4.11Zm9.541,0h4.8V35.132h5.49v-4.56H306.144v4.56h5.43V51.871Zm21.329,0h4.77v-8.34h6.51v-4.56h-6.51v-3.84h8.34v-4.56H332.9v21.3Zm26.94,0.36a11.01,11.01,0,1,0-11.009-11.01A11.036,11.036,0,0,0,359.843,52.231Zm0-4.62a6.393,6.393,0,1,1,6.18-6.39A6.32,6.32,0,0,1,359.843,47.611Zm24.03,4.62a8.353,8.353,0,0,0,8.759-8.79V30.572h-4.769V43.5a3.992,3.992,0,1,1-7.98,0V30.572h-4.77V43.441A8.338,8.338,0,0,0,383.873,52.231Zm14.22-.36h4.77v-8.79h0.78l7.079,8.79h5.73l-7.53-9.39c2.7-.96,4.17-2.73,4.17-5.49a6.288,6.288,0,0,0-6.6-6.42h-8.4v21.3Zm4.77-12.84v-4.08h3.059c1.41,0,2.43.75,2.43,2.04a2.156,2.156,0,0,1-2.43,2.04h-3.059Zm14.82,4.35H426.5v-4.32h-8.819v4.32Zm28.739-5.52a7.254,7.254,0,0,0-7.5-7.29h-7.23v21.3h4.77v-6.75h2.46A7.23,7.23,0,0,0,446.422,37.862Zm-4.62,0a2.8,2.8,0,0,1-2.94,2.79h-2.4v-5.58h2.4A2.785,2.785,0,0,1,441.8,37.862Zm18.689,14.369a11.01,11.01,0,1,0-11.009-11.01A11.036,11.036,0,0,0,460.491,52.231Zm0-4.62a6.393,6.393,0,1,1,6.18-6.39A6.319,6.319,0,0,1,460.491,47.611Zm25.32,4.62a11.007,11.007,0,0,0,9.959-5.82l-4.2-2.28a6.39,6.39,0,1,1,0-5.82l4.2-2.28A11.1,11.1,0,1,0,485.811,52.231Zm13.95-.36h4.74v-9.54l8.67,9.54h6.119L509.181,40.8l8.4-10.229h-5.85l-7.23,8.91v-8.91h-4.74v21.3Zm22.2,0h13.5v-4.56h-8.73V43.5h6.93v-4.56h-6.93v-3.81h8.73v-4.56h-13.5v21.3Zm22.17,0h4.8V35.132h5.49v-4.56H538.7v4.56h5.43V51.871Zm25.8,0.36c3.66,0,6.96-1.83,6.96-6.18V30.572h-4.77V45.751a2.193,2.193,0,0,1-4.38-.12h-4.71C563.031,50.251,566.361,52.231,569.931,52.231Zm9.75-.36h4.98l1.89-4.5h8.82l1.89,4.5h4.979l-9.119-21.3H588.8Zm8.61-8.64,2.67-6.42,2.67,6.42h-5.34Zm26.22,9a11.009,11.009,0,0,0,9.959-5.82l-4.2-2.28a6.39,6.39,0,1,1,0-5.82l4.2-2.28A11.1,11.1,0,1,0,614.511,52.231Zm13.95-.36h4.74v-9.54l8.67,9.54h6.119L637.881,40.8l8.4-10.229h-5.849l-7.23,8.91v-8.91h-4.74v21.3Zm22.2,0h13.5v-4.56h-8.729V43.5h6.93v-4.56h-6.93v-3.81h8.729v-4.56h-13.5v21.3Zm22.17,0h4.8V35.132h5.489v-4.56H667.4v4.56h5.43V51.871Z"/>
</svg>
