<svg id="copy_copy_3" data-name="copy copy 3" xmlns="http://www.w3.org/2000/svg" width="720" height="150"><defs><style>.cls-2{fill-rule:evenodd}</style></defs><path id="Rectangle_106_copy_12" data-name="Rectangle 106 copy 12" fill="#fff" d="M0 0h720v150H0z"/><g id="CTA_underline"><path d="M30 97h90v3H30z"/><path id="SHOP_now" data-name="SHOP now" class="cls-2" d="M33.395 92.2a3.12 3.12 0 0 0 3.422-3.065 3.05 3.05 0 0 0-2.277-2.967l-.674-.252c-1.011-.378-1.482-.616-1.482-1.148a.984.984 0 0 1 1.159-.756 2.1 2.1 0 0 1 1.657.826l1.4-1.54a3.921 3.921 0 0 0-3.085-1.372 3 3 0 0 0-3.3 3.074c0 1.358.862 2.324 2.412 2.869l.673.231c.957.336 1.334.686 1.334 1.19a.977.977 0 0 1-1.159.826 2.48 2.48 0 0 1-1.975-1.131l-1.644 1.442a4.143 4.143 0 0 0 3.539 1.773zm7.332-.168h2.142V88.1h3.853v3.933h2.142V82.1h-2.141v3.89h-3.854V82.1h-2.142v9.938zm16.993.168a5.141 5.141 0 1 0-4.945-5.137A5.056 5.056 0 0 0 57.72 92.2zm0-2.156a2.989 2.989 0 1 1 2.78-2.976 2.9 2.9 0 0 1-2.78 2.981zM73.191 85.5a3.32 3.32 0 0 0-3.368-3.4h-3.248v9.938h2.142v-3.151h1.1a3.308 3.308 0 0 0 3.374-3.387zm-2.075 0a1.282 1.282 0 0 1-1.32 1.3h-1.079v-2.6H69.8a1.274 1.274 0 0 1 1.316 1.3zm19.54 6.537V82.1H88.5v6.131L83.851 82.1h-1.845v9.938h2.142v-6.146l4.662 6.145h1.846zm8.855.163a5.141 5.141 0 1 0-4.945-5.137 5.056 5.056 0 0 0 4.945 5.137zm0-2.156a2.989 2.989 0 1 1 2.775-2.981 2.9 2.9 0 0 1-2.775 2.986zm16.265 1.987h2.035l2.223-9.938h-2.29l-1.307 6.3-2.695-6.466-2.681 6.473-1.307-6.3h-2.291l2.21 9.938h2.034l2.035-4.871z"/></g><path id="Water-Repellent_Four-Pocket_Jacket" data-name="Water-Repellent Four-Pocket Jacket" class="cls-2" d="M48.356 51.871h4.53l4.95-21.3h-5.1l-2.91 13.5-6-13.859-5.97 13.859-2.91-13.5h-5.1l4.92 21.3H39.3l4.53-10.44zm9.841 0h4.98l1.89-4.5h8.82l1.89 4.5h4.98l-9.12-21.3h-4.32zm8.61-8.64l2.67-6.42 2.67 6.42h-5.34zm19.08 8.64h4.8V35.132h5.49v-4.56h-15.72v4.56h5.43v16.739zm14.4 0h13.5v-4.56h-8.73V43.5h6.93v-4.56h-6.93v-3.81h8.73v-4.56h-13.5v21.3zm18.33 0h4.77v-8.79h.78l7.08 8.79h5.73l-7.53-9.39c2.7-.96 4.17-2.73 4.17-5.49a6.288 6.288 0 0 0-6.6-6.42h-8.4v21.3zm4.77-12.84v-4.08h3.06c1.41 0 2.43.75 2.43 2.04a2.156 2.156 0 0 1-2.43 2.04h-3.06zm14.82 4.35h8.82v-4.32h-8.82v4.32zm14.01 8.49h4.769v-8.79h.78l7.08 8.79h5.73l-7.53-9.39c2.7-.96 4.17-2.73 4.17-5.49a6.288 6.288 0 0 0-6.6-6.42h-8.4v21.3zm4.769-12.84v-4.08h3.06c1.41 0 2.43.75 2.43 2.04a2.156 2.156 0 0 1-2.43 2.04h-3.06zm16.29 12.84h13.5v-4.56h-8.73V43.5h6.93v-4.56h-6.93v-3.81h8.73v-4.56h-13.5v21.3zm33.06-14.009a7.254 7.254 0 0 0-7.5-7.29h-7.23v21.3h4.77v-6.75h2.46a7.23 7.23 0 0 0 7.499-7.26zm-4.62 0a2.8 2.8 0 0 1-2.94 2.79h-2.4v-5.58h2.4a2.785 2.785 0 0 1 2.939 2.79zm8.88 14.009h13.5v-4.56h-8.729V43.5h6.929v-4.56h-6.929v-3.81h8.729v-4.56H210.6v21.3zm18.33 0h13.589v-4.56H233.7V30.572h-4.77v21.3zm17.759 0h13.59v-4.56h-8.82V30.572h-4.77v21.3zm17.76 0h13.5v-4.56h-8.73V43.5h6.93v-4.56h-6.93v-3.81h8.73v-4.56h-13.5v21.3zm37.589 0v-21.3h-4.8v13.14l-10.35-13.139h-4.11v21.3h4.77V38.7l10.379 13.17h4.11zm9.541 0h4.8V35.132h5.49v-4.56h-15.721v4.56h5.43v16.739zm21.329 0h4.77v-8.34h6.51v-4.56h-6.51v-3.84h8.34v-4.56H332.9v21.3zm26.94.36a11.01 11.01 0 1 0-11.009-11.01 11.036 11.036 0 0 0 11.008 11.01zm0-4.62a6.393 6.393 0 1 1 6.18-6.39 6.32 6.32 0 0 1-6.181 6.39zm24.03 4.62a8.353 8.353 0 0 0 8.759-8.79V30.572h-4.769V43.5a3.992 3.992 0 1 1-7.98 0V30.572h-4.77v12.869a8.338 8.338 0 0 0 8.759 8.79zm14.22-.36h4.77v-8.79h.78l7.079 8.79h5.73l-7.53-9.39c2.7-.96 4.17-2.73 4.17-5.49a6.288 6.288 0 0 0-6.6-6.42h-8.4v21.3zm4.77-12.84v-4.08h3.059c1.41 0 2.43.75 2.43 2.04a2.156 2.156 0 0 1-2.43 2.04h-3.059zm14.82 4.35h8.816v-4.32h-8.819v4.32zm28.739-5.52a7.254 7.254 0 0 0-7.5-7.29h-7.23v21.3h4.77v-6.75h2.46a7.23 7.23 0 0 0 7.499-7.259zm-4.62 0a2.8 2.8 0 0 1-2.94 2.79h-2.4v-5.58h2.4a2.785 2.785 0 0 1 2.937 2.791zm18.689 14.369a11.01 11.01 0 1 0-11.009-11.01 11.036 11.036 0 0 0 11.008 11.011zm0-4.62a6.393 6.393 0 1 1 6.18-6.39 6.319 6.319 0 0 1-6.181 6.391zm25.32 4.62a11.007 11.007 0 0 0 9.959-5.82l-4.2-2.28a6.39 6.39 0 1 1 0-5.82l4.2-2.28a11.1 11.1 0 1 0-9.96 16.201zm13.95-.36h4.74v-9.54l8.67 9.54h6.119l-10.11-11.07 8.4-10.229h-5.85l-7.23 8.91v-8.91h-4.74v21.3zm22.2 0h13.5v-4.56h-8.73V43.5h6.93v-4.56h-6.93v-3.81h8.73v-4.56h-13.5v21.3zm22.17 0h4.8V35.132h5.49v-4.56H538.7v4.56h5.43v16.739zm25.8.36c3.66 0 6.96-1.83 6.96-6.18V30.572h-4.77v15.179a2.193 2.193 0 0 1-4.38-.12h-4.71c-.001 4.62 3.329 6.6 6.899 6.6zm9.75-.36h4.98l1.89-4.5h8.82l1.89 4.5h4.979l-9.119-21.3H588.8zm8.61-8.64l2.67-6.42 2.67 6.42h-5.34zm26.22 9a11.009 11.009 0 0 0 9.959-5.82l-4.2-2.28a6.39 6.39 0 1 1 0-5.82l4.2-2.28a11.1 11.1 0 1 0-9.96 16.201zm13.95-.36h4.74v-9.54l8.67 9.54h6.119l-10.11-11.07 8.4-10.229h-5.849l-7.23 8.91v-8.91h-4.74v21.3zm22.2 0h13.5v-4.56h-8.729V43.5h6.93v-4.56h-6.93v-3.81h8.729v-4.56h-13.5v21.3zm22.17 0h4.8V35.132h5.489v-4.56H667.4v4.56h5.43v16.739z"/></svg>