<svg id="copy_copy_2" data-name="copy copy 2" xmlns="http://www.w3.org/2000/svg" width="720" height="251"><defs><style>.cls-2{fill-rule:evenodd}</style></defs><path id="Rectangle_106_copy_5" data-name="Rectangle 106 copy 5" d="M0 0h719.813l.171 251H.172z" fill-rule="evenodd" fill="#fff"/><g id="CTA_underline"><path d="M30 198h90v3H30z"/><path id="SHOP_now" data-name="SHOP now" class="cls-2" d="M33.395 193.2a3.12 3.12 0 0 0 3.422-3.065 3.049 3.049 0 0 0-2.277-2.967l-.674-.252c-1.011-.378-1.482-.616-1.482-1.148a.984.984 0 0 1 1.159-.756 2.1 2.1 0 0 1 1.657.826l1.4-1.54a3.923 3.923 0 0 0-3.085-1.371 3 3 0 0 0-3.3 3.065c0 1.358.862 2.323 2.412 2.869l.673.239c.957.336 1.334.686 1.334 1.19a.977.977 0 0 1-1.159.826 2.48 2.48 0 0 1-1.981-1.134l-1.644 1.442a4.141 4.141 0 0 0 3.545 1.776zm7.332-.168h2.142V189.1h3.853v3.933h2.142V183.1h-2.141v3.891h-3.854V183.1h-2.142v9.937zm16.993.168a5.14 5.14 0 1 0-4.945-5.136 5.055 5.055 0 0 0 4.945 5.136zm0-2.155a2.989 2.989 0 1 1 2.776-2.981 2.9 2.9 0 0 1-2.776 2.985zm15.471-4.545a3.319 3.319 0 0 0-3.368-3.4h-3.248v9.937h2.142v-3.149h1.1a3.308 3.308 0 0 0 3.374-3.388zm-2.075 0a1.282 1.282 0 0 1-1.32 1.3h-1.079v-2.6H69.8a1.274 1.274 0 0 1 1.316 1.3zm19.54 6.536V183.1H88.5v6.13l-4.648-6.13h-1.846v9.937h2.142v-6.144l4.662 6.144h1.846zm8.855.168a5.14 5.14 0 1 0-4.945-5.136 5.056 5.056 0 0 0 4.945 5.132zm0-2.155a2.989 2.989 0 1 1 2.775-2.981 2.9 2.9 0 0 1-2.775 2.981zm16.265 1.987h2.035l2.223-9.937h-2.29l-1.307 6.3-2.695-6.466-2.681 6.466-1.307-6.3h-2.291l2.21 9.937h2.034l2.035-4.87z"/></g><path id="Rapid_Movement_Cargo_Chino_Cotton_twill_b._1981_The_first_Ban" data-name="Rapid Movement Cargo Chino Cotton twill, b. 1981 The first Ban" class="cls-2" d="M31.586 50.871h4.77v-8.79h.78l7.08 8.79h5.73l-7.53-9.39c2.7-.96 4.17-2.73 4.17-5.49a6.288 6.288 0 0 0-6.6-6.42h-8.4v21.3zm4.77-12.84v-4.08h3.06c1.41 0 2.43.75 2.43 2.04a2.156 2.156 0 0 1-2.43 2.04h-3.06zm14.31 12.84h4.98l1.89-4.5h8.82l1.89 4.5h4.98l-9.12-21.3h-4.32zm8.61-8.64l2.67-6.42 2.67 6.42h-5.34zm32.4-5.37a7.254 7.254 0 0 0-7.5-7.29h-7.23v21.3h4.77v-6.75h2.46a7.229 7.229 0 0 0 7.499-7.259zm-4.62 0a2.8 2.8 0 0 1-2.94 2.79h-2.4v-5.58h2.4a2.785 2.785 0 0 1 2.94 2.791zm9.18 14.009h4.769v-21.3h-4.769v21.3zm10.769 0h7.26a10.652 10.652 0 1 0 0-21.3h-7.26v21.3zm4.77-4.38V33.952h2.49a6.011 6.011 0 0 1 6.03 6.27 6.011 6.011 0 0 1-6.03 6.27h-2.49zm37.289-.15l6.21-8.61v13.141h4.8v-21.3h-4.35l-6.66 9.18-6.659-9.18h-4.35v21.3h4.77V37.732zm26.82 4.89a11.01 11.01 0 1 0-11.009-11.01 11.036 11.036 0 0 0 11.009 11.011zm0-4.62a6.393 6.393 0 1 1 6.18-6.39 6.32 6.32 0 0 1-6.18 6.391zm21.39 4.26h4.29l8.73-21.3h-5.25L199.4 43.761l-5.67-14.189h-5.19zm16.8 0h13.5v-4.56h-8.729V42.5h6.93v-4.56h-6.93v-3.81h8.729v-4.56h-13.5v21.3zm29.64-4.53l6.209-8.61v13.141h4.8v-21.3h-4.35l-6.659 9.18-6.66-9.18H232.7v21.3h4.77V37.732zm17.01 4.53h13.5v-4.56h-8.73V42.5h6.93v-4.56h-6.93v-3.81h8.73v-4.56h-13.5v21.3zm37.889 0v-21.3h-4.8v13.141l-10.35-13.139h-4.109v21.3h4.769V37.7l10.38 13.17h4.11zm9.84 0h4.8V34.132h5.49v-4.56h-15.72v4.56h5.43v16.739zm31.74.36a11.01 11.01 0 0 0 9.959-5.82l-4.2-2.28a6.39 6.39 0 1 1 0-5.82l4.2-2.28a11.1 11.1 0 1 0-9.959 16.201zm11.46-.36h4.98l1.89-4.5h8.819l1.89 4.5h4.98l-9.119-21.3h-4.32zm8.61-8.64l2.67-6.42 2.67 6.42h-5.34zm17.67 8.64h4.77v-8.79h.78l7.079 8.79h5.73l-7.529-9.39c2.7-.96 4.169-2.73 4.169-5.49a6.288 6.288 0 0 0-6.6-6.42h-8.4v21.3zm4.77-12.84v-4.08h3.06c1.41 0 2.43.75 2.43 2.04a2.156 2.156 0 0 1-2.43 2.04H382.7zm26.22 13.2c3.449 0 6.839-1.02 8.729-3.15V37.972h-8.819v4.47H413v3.15a6.936 6.936 0 0 1-4.139 1.02c-4.17 0-6.72-2.76-6.72-6.39a6.252 6.252 0 0 1 6.42-6.39 7.071 7.071 0 0 1 5.369 2.28l3.36-3.27a11.333 11.333 0 0 0-8.729-3.63 10.88 10.88 0 0 0-11.22 11.01c.002 6.239 4.952 11.009 11.582 11.009zm23.789 0A11.01 11.01 0 1 0 421.7 40.222a11.036 11.036 0 0 0 11.012 11.009zm0-4.62a6.393 6.393 0 1 1 6.18-6.39 6.32 6.32 0 0 1-6.18 6.391zm33.719 4.62a11.01 11.01 0 0 0 9.96-5.82l-4.2-2.28a6.39 6.39 0 1 1 0-5.82l4.2-2.28a11.1 11.1 0 1 0-9.96 16.201zm14.251-.36h4.769v-8.43h8.58v8.43h4.77v-21.3h-4.77v8.34h-8.58v-8.34h-4.769v21.3zm24.12 0h4.769v-21.3H504.8v21.3zm30.029 0v-21.3h-4.8v13.141l-10.35-13.139h-4.11v21.3h4.77V37.7l10.38 13.17h4.11zm15.81.36a11.01 11.01 0 1 0-11.01-11.01 11.036 11.036 0 0 0 11.01 11.011zm0-4.62a6.393 6.393 0 1 1 6.179-6.39 6.32 6.32 0 0 1-6.179 6.391zM30.147 72.479a6.644 6.644 0 0 0 12.261 3.511L41 75.144a5.024 5.024 0 1 1 0-5.33l1.4-.846a6.644 6.644 0 0 0-12.253 3.511zm23.834 1.891a4.709 4.709 0 1 0-4.7 4.681 4.62 4.62 0 0 0 4.7-4.681zm-7.832 0a3.126 3.126 0 1 1 3.133 3.241 3.094 3.094 0 0 1-3.133-3.241zm21.963 4.375v-1.386a3.421 3.421 0 0 1-1.1.18 1.3 1.3 0 0 1-1.495-1.531v-4.717h2.593v-1.423h-2.591v-2.5h-1.548v2.5h-1.549v1.422h1.548v4.915a2.534 2.534 0 0 0 2.755 2.755 4.31 4.31 0 0 0 1.387-.215zm-6.3 0v-1.386a3.421 3.421 0 0 1-1.1.18 1.3 1.3 0 0 1-1.495-1.531v-4.717h2.2v-1.423h-2.2v-2.5h-1.548v2.5H55.76v1.422h1.909v4.915a2.534 2.534 0 0 0 2.755 2.755 4.309 4.309 0 0 0 1.386-.215zm17.747-4.375a4.708 4.708 0 1 0-4.7 4.681 4.62 4.62 0 0 0 4.7-4.681zm-7.832 0a3.126 3.126 0 1 1 3.133 3.241 3.094 3.094 0 0 1-3.133-3.241zm10.944 4.5h1.548v-4.464c0-2.107 1.152-3.3 2.611-3.3a2.161 2.161 0 0 1 2.125 2.449v5.312h1.53v-5.542a3.318 3.318 0 0 0-3.4-3.637 3.183 3.183 0 0 0-2.863 1.566v-1.386h-1.551v9zm21.367-.126v-1.385a3.425 3.425 0 0 1-1.1.18 1.3 1.3 0 0 1-1.494-1.531v-4.717h2.593v-1.423h-2.593v-2.5H99.9v2.5h-1.912v1.422H99.9v4.915a2.534 2.534 0 0 0 2.755 2.755 4.318 4.318 0 0 0 1.383-.215zm10.512.126h1.369l3.061-9h-1.639l-2.178 6.572-2.251-6.572h-1.188l-2.251 6.572-2.179-6.572h-1.62l3.061 9h1.365l2.233-6.482zm8.872-12.514a1.087 1.087 0 0 0-1.08-1.1 1.118 1.118 0 0 0-1.116 1.1 1.106 1.106 0 0 0 1.116 1.1 1.076 1.076 0 0 0 1.08-1.099zm-1.872 12.515h1.55v-9h-1.55v9zm5.382 0h1.548v-13.5h-1.548v13.5zm5.382 0h1.548v-13.5h-1.548v13.5zm7.308-.4a1.54 1.54 0 0 0 .252-.81 1.333 1.333 0 1 0-2.665 0 1.339 1.339 0 0 0 .739 1.206l-1.207 2.575h1.026zm10.422-.99a3.947 3.947 0 0 0 3.169 1.566 4.69 4.69 0 0 0 0-9.363 3.947 3.947 0 0 0-3.169 1.566v-5.883H148.5v13.5h1.549v-1.382zm5.995-3.115a3.067 3.067 0 1 1-3.061-3.259 3.074 3.074 0 0 1 3.061 3.263zm6.659 3.295a1.333 1.333 0 1 0-1.333 1.35 1.357 1.357 0 0 0 1.335-1.346zm9.7 1.206h1.549v-12.78h-2.755l-1.261 1.53h2.469v11.254zm5.472 0h1.98l4.682-5.528a4.911 4.911 0 0 0 1.44-3.259 4.331 4.331 0 0 0-8.66.054 4.13 4.13 0 0 0 4 4.105 2.294 2.294 0 0 0 .5-.036zm1.026-8.751a2.746 2.746 0 1 1 2.737 2.755 2.717 2.717 0 0 1-2.733-2.75zm18.02 4.915a3.572 3.572 0 0 0-2-3.349 2.994 2.994 0 0 0 1.3-2.521 3.318 3.318 0 0 0-3.583-3.3 3.364 3.364 0 0 0-3.6 3.3 2.981 2.981 0 0 0 1.332 2.521 3.572 3.572 0 0 0-2.034 3.349 4.3 4.3 0 0 0 8.586.005zm-6.355-5.831a1.9 1.9 0 0 1 2.071-1.873 1.867 1.867 0 0 1 2.052 1.873 1.91 1.91 0 0 1-2.052 1.891 1.948 1.948 0 0 1-2.071-1.891zm-.661 5.836a2.538 2.538 0 0 1 2.737-2.557 2.553 2.553 0 1 1 0 5.1 2.544 2.544 0 0 1-2.737-2.543zm11.34 3.835h1.549V66.087h-2.755l-1.261 1.53h2.467v11.254zm-168.089 40H34.6v-9.956h3.54v-1.408h-8.531v1.408h3.537v9.956zm7.247 0h1.372V114.9c0-1.872 1.024-2.929 2.321-2.929a1.921 1.921 0 0 1 1.889 2.177v4.722h1.36v-4.93a2.949 2.949 0 0 0-3.025-3.233 2.83 2.83 0 0 0-2.545 1.393v-5.234h-1.377v12zm9.6-4a4.219 4.219 0 0 0 7.747 2.257l-1.088-.752a2.833 2.833 0 0 1-5.266-1.232h6.563a3.922 3.922 0 0 0 .016-.417 3.729 3.729 0 0 0-3.809-4.017 4.056 4.056 0 0 0-4.168 4.159zm4.114-2.945a2.4 2.4 0 0 1 2.449 2.1h-5.08a2.617 2.617 0 0 1 2.625-2.102zm11.775 6.947h1.377v-6.739h2.321v-1.264h-2.327v-1.47a1.152 1.152 0 0 1 1.329-1.36 3.224 3.224 0 0 1 .992.16v-1.217a3.639 3.639 0 0 0-1.249-.208 2.286 2.286 0 0 0-2.449 2.481v1.617h-1.7v1.264h1.7v6.739zm6.867-11.124a.967.967 0 0 0-.96-.977.994.994 0 0 0-.992.977.984.984 0 0 0 .992.976.957.957 0 0 0 .954-.978zm-1.665 11.124h1.371v-8h-1.377v8zm4.766 0h1.377V114.9c0-1.872 1.1-2.753 2.113-2.753a2.013 2.013 0 0 1 .752.128v-1.424a2.853 2.853 0 0 0-.624-.064 2.381 2.381 0 0 0-2.241 1.632v-1.552h-1.383v8zm11.7-2.225c0-1.2-.752-1.969-2.113-2.417l-.864-.288c-.944-.3-1.233-.608-1.233-1.12a1.133 1.133 0 0 1 1.345-.929 2.161 2.161 0 0 1 1.7.833l.9-.865a3.1 3.1 0 0 0-2.561-1.152c-1.585 0-2.705.88-2.705 2.177a2.416 2.416 0 0 0 1.985 2.321l.784.256c1.041.336 1.425.72 1.425 1.28a1.218 1.218 0 0 1-1.408 1.089 2.149 2.149 0 0 1-2.049-1.265l-1.12.608a3.178 3.178 0 0 0 3.137 1.857c1.6-.002 2.769-.818 2.769-2.387zm7.008 2.113v-1.232a3.043 3.043 0 0 1-.976.16 1.153 1.153 0 0 1-1.329-1.361v-4.194h2.3v-1.264h-2.3v-2.225h-1.385v2.225h-1.7v1.264h1.7v4.37a2.253 2.253 0 0 0 2.449 2.449 3.831 3.831 0 0 0 1.232-.194zm7.471.112h4.065c2.3 0 3.81-1.424 3.81-3.313a2.708 2.708 0 0 0-1.969-2.721 2.578 2.578 0 0 0 1.216-2.321 3.111 3.111 0 0 0-3.393-3.009h-3.729v11.364zm1.488-6.483v-3.537h2.241a1.786 1.786 0 0 1 1.937 1.777 1.749 1.749 0 0 1-1.937 1.76h-2.241zm0 5.139v-3.858h2.657c1.5 0 2.273.832 2.273 1.937 0 1.12-.768 1.921-2.289 1.921h-2.641zm8.543-2.658a4.005 4.005 0 0 0 3.922 4.162 3.51 3.51 0 0 0 2.817-1.392v1.232h1.376v-8h-1.38v1.227a3.51 3.51 0 0 0-2.817-1.392 4.005 4.005 0 0 0-3.927 4.161zm6.851 0a2.734 2.734 0 1 1-2.721-2.9 2.733 2.733 0 0 1 2.712 2.898zm4.653 4h1.377V114.9c0-1.872 1.024-2.929 2.321-2.929a1.921 1.921 0 0 1 1.888 2.177v4.722h1.361v-4.93a2.949 2.949 0 0 0-3.025-3.233 2.829 2.829 0 0 0-2.545 1.392v-1.232h-1.386v8zm9.6-4a4 4 0 0 0 3.921 4.162 3.512 3.512 0 0 0 2.818-1.392v1.232h1.376v-8H139.9v1.227a3.512 3.512 0 0 0-2.818-1.392 4 4 0 0 0-3.922 4.161zm6.851 0a2.734 2.734 0 1 1-2.722-2.9 2.734 2.734 0 0 1 2.713 2.898zm4.653 4h1.376V114.9c0-1.872 1.025-2.929 2.321-2.929a1.921 1.921 0 0 1 1.889 2.177v4.722h1.361v-4.93a2.95 2.95 0 0 0-3.026-3.233 2.832 2.832 0 0 0-2.545 1.392v-1.232h-1.376v8zm9.6-4a4.005 4.005 0 0 0 3.922 4.162 3.509 3.509 0 0 0 2.805-1.394v1.232h1.377v-8H161v1.229a3.509 3.509 0 0 0-2.817-1.392 4.005 4.005 0 0 0-3.92 4.161zm6.851 0a2.734 2.734 0 1 1-2.721-2.9 2.733 2.733 0 0 1 2.711 2.898zm9.565 4h1.489V113.7h1.1l4.37 5.17h1.873l-4.37-5.186a2.965 2.965 0 0 0 2.8-3.041 3.065 3.065 0 0 0-3.393-3.137h-3.874v11.364zm1.489-6.5v-3.489h2.209c1.3 0 2.081.608 2.081 1.761 0 1.136-.785 1.728-2.081 1.728h-2.209zm8.4 2.5a4.219 4.219 0 0 0 7.747 2.257l-1.088-.752a2.833 2.833 0 0 1-5.266-1.232h6.562a3.922 3.922 0 0 0 .016-.417 3.728 3.728 0 0 0-3.809-4.017 4.056 4.056 0 0 0-4.173 4.159zm4.114-2.945a2.4 2.4 0 0 1 2.449 2.1h-5.074a2.616 2.616 0 0 1 2.614-2.102zm6.606 10.292h1.377v-4.577a3.509 3.509 0 0 0 2.817 1.392 4.169 4.169 0 0 0 0-8.323 3.509 3.509 0 0 0-2.817 1.392v-1.232h-1.377v11.348zm6.707-7.347a2.726 2.726 0 1 1-2.721-2.9 2.733 2.733 0 0 1 2.71 2.898zm4.077.913c0 1.985 1.185 3.249 2.945 3.249a2.753 2.753 0 0 0 2.465-1.392v1.232h1.377v-8h-1.377v3.969c0 1.841-.976 2.93-2.225 2.93-1.1 0-1.808-.849-1.808-2.193v-4.706h-1.377v4.914zm11.553 1.857a3.509 3.509 0 0 0 2.817 1.392 4.169 4.169 0 0 0 0-8.323 3.509 3.509 0 0 0-2.817 1.392v-5.234h-1.377v12h1.377v-1.232zm5.33-2.77a2.726 2.726 0 1 1-2.721-2.9 2.733 2.733 0 0 1 2.71 2.898zm4.173 4h1.362v-12h-1.376v12zm6.448-11.124a.966.966 0 0 0-.96-.977.994.994 0 0 0-.992.977.983.983 0 0 0 .992.976.956.956 0 0 0 .949-.976zm-1.664 11.124h1.376v-8h-1.376v8zm12.051-1.985l-1.2-.672a2.713 2.713 0 0 1-2.5 1.537 2.883 2.883 0 0 1 0-5.763 2.713 2.713 0 0 1 2.5 1.537l1.2-.672a4.145 4.145 0 0 0-3.7-2.145 4.162 4.162 0 1 0 0 8.323 4.145 4.145 0 0 0 3.689-2.145zm14.543 0l-1.2-.672a2.714 2.714 0 0 1-2.5 1.537 2.883 2.883 0 0 1 0-5.763 2.714 2.714 0 0 1 2.5 1.537l1.2-.672a4.143 4.143 0 0 0-3.7-2.145 4.162 4.162 0 1 0 0 8.323 4.143 4.143 0 0 0 3.689-2.145zm2.573 1.985h1.377V114.9c0-1.872 1.024-2.929 2.321-2.929a1.921 1.921 0 0 1 1.888 2.177v4.722h1.361v-4.93a2.949 2.949 0 0 0-3.036-3.232 2.829 2.829 0 0 0-2.545 1.392v-5.234h-1.377v12zm11.889-11.124a.967.967 0 0 0-.961-.977.994.994 0 0 0-.992.977.983.983 0 0 0 .992.976.957.957 0 0 0 .95-.976zm-1.678 11.124h1.376v-8H267.3v8zm4.784 0h1.376V114.9c0-1.872 1.025-2.929 2.321-2.929a1.921 1.921 0 0 1 1.889 2.177v4.722h1.361v-4.93a2.95 2.95 0 0 0-3.026-3.233 2.832 2.832 0 0 0-2.545 1.392v-1.232h-1.376v8zm17.955-4a4.186 4.186 0 1 0-4.178 4.162 4.107 4.107 0 0 0 4.18-4.164zm-6.963 0a2.779 2.779 0 1 1 2.785 2.882 2.751 2.751 0 0 1-2.783-2.884zm14.431 7.347h1.377v-4.577a3.509 3.509 0 0 0 2.817 1.392 4.169 4.169 0 0 0 0-8.323 3.509 3.509 0 0 0-2.817 1.392v-1.232h-1.377v11.348zm6.707-7.347a2.726 2.726 0 1 1-2.721-2.9 2.733 2.733 0 0 1 2.723 2.898zm3.565 0a4.005 4.005 0 0 0 3.921 4.162 3.512 3.512 0 0 0 2.818-1.392v1.232h1.382v-8h-1.38v1.227a3.512 3.512 0 0 0-2.818-1.392 4 4 0 0 0-3.921 4.161zm6.851 0a2.734 2.734 0 1 1-2.721-2.9 2.733 2.733 0 0 1 2.723 2.898zm4.653 4h1.377V114.9c0-1.872 1.024-2.929 2.32-2.929a1.921 1.921 0 0 1 1.889 2.177v4.722h1.361v-4.93a2.949 2.949 0 0 0-3.025-3.233 2.829 2.829 0 0 0-2.545 1.392v-1.232h-1.377v8zm14.466-.112v-1.232a3.052 3.052 0 0 1-.977.16 1.153 1.153 0 0 1-1.328-1.361v-4.194h2.3v-1.264h-2.3v-2.225h-1.377v2.225h-1.7v1.264h1.7v4.37a2.253 2.253 0 0 0 2.449 2.449 3.84 3.84 0 0 0 1.235-.192zm13.76.112h1.217l2.721-8h-1.456l-1.937 5.842-2-5.842H345l-2 5.842-1.937-5.842h-1.443l2.721 8h1.217l1.985-5.762zm5.565-4a4.005 4.005 0 0 0 3.926 4.16 3.51 3.51 0 0 0 2.817-1.392v1.232h1.377v-8h-1.377v1.229a3.51 3.51 0 0 0-2.817-1.392 4.005 4.005 0 0 0-3.924 4.161zm6.851 0a2.734 2.734 0 1 1-2.721-2.9 2.733 2.733 0 0 1 2.723 2.898zm9.84 1.777c0-1.2-.753-1.969-2.113-2.417l-.865-.288c-.944-.3-1.232-.608-1.232-1.12a1.132 1.132 0 0 1 1.344-.929 2.16 2.16 0 0 1 1.7.833l.9-.865a3.1 3.1 0 0 0-2.561-1.152c-1.584 0-2.7.88-2.7 2.177a2.417 2.417 0 0 0 1.985 2.321l.777.254c1.041.336 1.425.72 1.425 1.28a1.218 1.218 0 0 1-1.409 1.089 2.148 2.148 0 0 1-2.048-1.265l-1.121.608a3.178 3.178 0 0 0 3.137 1.857c1.616 0 2.783-.816 2.783-2.385zm7.469 2.225h1.377V114.9c0-1.808.912-2.929 2.208-2.929 1.041 0 1.569.9 1.569 2.193v4.706h1.377v-3.97c0-1.808.9-2.929 2.193-2.929 1.04 0 1.584.9 1.584 2.193v4.706h1.377v-4.914c0-1.953-1.057-3.249-2.8-3.249a2.769 2.769 0 0 0-2.625 1.712 2.517 2.517 0 0 0-2.465-1.712 2.689 2.689 0 0 0-2.417 1.392v-1.232h-1.377v8zm22.691-4a4.186 4.186 0 1 0-4.178 4.162 4.107 4.107 0 0 0 4.18-4.166zm-6.963 0a2.779 2.779 0 1 1 2.785 2.882 2.751 2.751 0 0 1-2.783-2.886zm9.1 0a4.005 4.005 0 0 0 3.922 4.162 3.509 3.509 0 0 0 2.817-1.392v1.232h1.377v-12h-1.377v5.225a3.509 3.509 0 0 0-2.817-1.392 4.005 4.005 0 0 0-3.917 4.161zm6.851 0a2.734 2.734 0 1 1-2.721-2.9 2.733 2.733 0 0 1 2.726 2.896zm4.029 0a4.219 4.219 0 0 0 7.747 2.257l-1.088-.752a2.833 2.833 0 0 1-5.266-1.232h6.565a3.922 3.922 0 0 0 .016-.417 3.729 3.729 0 0 0-3.81-4.017 4.056 4.056 0 0 0-4.159 4.157zm4.114-2.945a2.4 2.4 0 0 1 2.449 2.1h-5.074a2.617 2.617 0 0 1 2.63-2.104zm6.607 6.947h1.376v-12h-1.376v12zm4.159-4a4.219 4.219 0 0 0 7.747 2.257l-1.088-.752a2.833 2.833 0 0 1-5.266-1.232h6.562a3.922 3.922 0 0 0 .016-.417 3.728 3.728 0 0 0-3.809-4.017 4.056 4.056 0 0 0-4.157 4.155zm4.114-2.945a2.4 2.4 0 0 1 2.449 2.1h-5.074a2.616 2.616 0 0 1 2.63-2.106zm5.982 2.945a4.005 4.005 0 0 0 3.922 4.162 3.51 3.51 0 0 0 2.817-1.392v1.232h1.376v-12h-1.376v5.223a3.51 3.51 0 0 0-2.817-1.392 4.005 4.005 0 0 0-3.917 4.161zm6.851 0a2.734 2.734 0 1 1-2.721-2.9 2.733 2.733 0 0 1 2.726 2.894zm8.733 0a4 4 0 0 0 3.921 4.162 3.509 3.509 0 0 0 2.817-1.392v1.232h1.377v-8h-1.377v1.223a3.509 3.509 0 0 0-2.817-1.392 4 4 0 0 0-3.916 4.161zm6.85 0a2.734 2.734 0 1 1-2.721-2.9 2.733 2.733 0 0 1 2.726 2.894zm5.326 4h1.377v-6.739h2.112v-1.264h-2.107V109.4a1.152 1.152 0 0 1 1.328-1.36 3.233 3.233 0 0 1 .993.16v-1.217a3.646 3.646 0 0 0-1.249-.208 2.253 2.253 0 0 0-2.449 2.449v1.649h-1.7v1.264h1.7v6.739zm9.588-.112v-1.232a3.145 3.145 0 0 1-.993.16 1.153 1.153 0 0 1-1.328-1.361v-4.194h2.321v-1.264h-2.316v-2.225h-1.377v2.225h-1.5v1.264h1.5v4.37a2.265 2.265 0 0 0 2.465 2.449 3.984 3.984 0 0 0 1.233-.196zm1.82-3.89a4.219 4.219 0 0 0 7.747 2.257l-1.089-.752a2.833 2.833 0 0 1-5.266-1.232h6.563a3.922 3.922 0 0 0 .016-.417 3.729 3.729 0 0 0-3.81-4.017 4.055 4.055 0 0 0-4.156 4.157zm4.113-2.945a2.4 2.4 0 0 1 2.449 2.1h-5.074a2.617 2.617 0 0 1 2.626-2.104zm6.607 6.947h1.376V114.9c0-1.872 1.1-2.753 2.113-2.753a2.011 2.011 0 0 1 .752.128v-1.424a2.851 2.851 0 0 0-.624-.064 2.381 2.381 0 0 0-2.241 1.632v-1.552h-1.376v8zm15.025-.112v-1.232a3.041 3.041 0 0 1-.976.16 1.153 1.153 0 0 1-1.329-1.361v-4.194h2.305v-1.264h-2.305v-2.225h-1.376v2.225h-1.7v1.264h1.7v4.37a2.252 2.252 0 0 0 2.449 2.449 3.828 3.828 0 0 0 1.237-.196zm2.559.112h1.376V114.9c0-1.872 1.024-2.929 2.321-2.929a1.922 1.922 0 0 1 1.889 2.177v4.722h1.36v-4.93a2.949 2.949 0 0 0-3.025-3.233 2.831 2.831 0 0 0-2.545 1.392v-5.234H505.4v12zm9.6-4a4.219 4.219 0 0 0 7.747 2.257l-1.088-.752a2.833 2.833 0 0 1-5.266-1.232h6.562a3.922 3.922 0 0 0 .016-.417 3.728 3.728 0 0 0-3.809-4.017 4.056 4.056 0 0 0-4.158 4.155zm4.114-2.945a2.4 2.4 0 0 1 2.449 2.1h-5.074a2.616 2.616 0 0 1 2.629-2.106zm20.274 2.529v-6.946h-1.489v6.978a2.968 2.968 0 1 1-5.922 0v-6.978h-1.489v6.946a4.453 4.453 0 1 0 8.904-.006zm4.941 3.346a1.185 1.185 0 1 0-1.184 1.2 1.206 1.206 0 0 0 1.188-1.205zm2.207-.785a4.388 4.388 0 0 0 3.986 2.049c2.112 0 3.617-1.216 3.617-3.153 0-1.681-.96-2.641-2.641-3.281l-1.377-.529c-1.152-.432-1.712-.864-1.712-1.824a1.809 1.809 0 0 1 2.048-1.569 2.812 2.812 0 0 1 2.257 1.12l1.089-.96a4.146 4.146 0 0 0-3.313-1.553c-2.033 0-3.554 1.169-3.554 3.026 0 1.552.8 2.481 2.577 3.137l1.5.576a2.066 2.066 0 0 1 1.632 1.921 1.845 1.845 0 0 1-2.1 1.7 3.178 3.178 0 0 1-2.818-1.553zm12.289.785a1.185 1.185 0 1 0-1.185 1.2 1.206 1.206 0 0 0 1.189-1.205zm5.9 1.072h1.536l1.457-3.313h5.3l1.456 3.313h1.553l-5.042-11.364h-1.232zm3.569-4.658l2.065-4.69 2.065 4.69h-4.13zm9.919 4.658h1.376V114.9c0-1.872 1.105-2.753 2.113-2.753a2.011 2.011 0 0 1 .752.128v-1.424a2.851 2.851 0 0 0-.624-.064 2.381 2.381 0 0 0-2.241 1.632v-1.552h-1.369v8zm6.656 0h1.376V114.9c0-1.808.913-2.929 2.209-2.929 1.041 0 1.569.9 1.569 2.193v4.706h1.387v-3.97c0-1.808.9-2.929 2.193-2.929 1.041 0 1.585.9 1.585 2.193v4.706h1.376v-4.914c0-1.953-1.056-3.249-2.8-3.249a2.77 2.77 0 0 0-2.625 1.712 2.515 2.515 0 0 0-2.465-1.712 2.691 2.691 0 0 0-2.417 1.392v-1.232h-1.376v8zm16.929 3.345l5.25-11.348h-1.537l-2.737 6.066-2.753-6.066H598.5l3.5 7.581-1.745 3.761h1.537zm11.663-6.434c0 1.985 1.184 3.249 2.945 3.249a2.754 2.754 0 0 0 2.465-1.392v1.232h1.376v-8h-1.376v3.969c0 1.841-.977 2.93-2.225 2.93-1.105 0-1.809-.849-1.809-2.193v-4.706h-1.376v4.914zm10.176 3.089h1.376V114.9c0-1.872 1.025-2.929 2.321-2.929a1.922 1.922 0 0 1 1.889 2.177v4.722h1.36v-4.93a2.949 2.949 0 0 0-3.025-3.233 2.831 2.831 0 0 0-2.545 1.392v-1.232h-1.376v8zm11.888-11.124a.966.966 0 0 0-.96-.977.994.994 0 0 0-.993.977.984.984 0 0 0 .993.976.956.956 0 0 0 .967-.982zm-1.665 11.124h1.377v-8h-1.377v8zm5.457 0h1.376v-6.739h2.321v-1.264h-2.314V109.4a1.152 1.152 0 0 1 1.329-1.36 3.222 3.222 0 0 1 .992.16v-1.217a3.636 3.636 0 0 0-1.248-.208 2.286 2.286 0 0 0-2.449 2.481v1.617h-1.7v1.264h1.7v6.739zm13.523-4a4.186 4.186 0 1 0-4.178 4.162 4.107 4.107 0 0 0 4.185-4.17zm-6.963 0a2.779 2.779 0 1 1 2.785 2.882 2.751 2.751 0 0 1-2.778-2.89zm9.727 4h1.377V114.9c0-1.872 1.1-2.753 2.113-2.753a2.011 2.011 0 0 1 .752.128v-1.424a2.851 2.851 0 0 0-.624-.064 2.38 2.38 0 0 0-2.241 1.632v-1.552H655.6v8zm6.656 0h1.377V114.9c0-1.808.912-2.929 2.209-2.929 1.04 0 1.568.9 1.568 2.193v4.706h1.377v-3.97c0-1.808.9-2.929 2.193-2.929 1.04 0 1.584.9 1.584 2.193v4.706h1.377v-4.914c0-1.953-1.057-3.249-2.8-3.249a2.769 2.769 0 0 0-2.625 1.712 2.516 2.516 0 0 0-2.465-1.712 2.689 2.689 0 0 0-2.417 1.392v-1.232h-1.377v8zm16.865-1.072a1.185 1.185 0 1 0-1.185 1.2 1.206 1.206 0 0 0 1.192-1.205zM33.146 138.871H34.6v-9.956h3.54v-1.408h-8.531v1.408h3.537v9.956zm13.7-4a4.186 4.186 0 1 0-4.178 4.162 4.107 4.107 0 0 0 4.176-4.164zm-6.963 0a2.779 2.779 0 1 1 2.785 2.882 2.751 2.751 0 0 1-2.787-2.884zm9.1 0a4.005 4.005 0 0 0 3.922 4.162 3.51 3.51 0 0 0 2.817-1.392v1.232H57.1v-12.007h-1.377v5.234a3.51 3.51 0 0 0-2.817-1.392 4 4 0 0 0-3.921 4.161zm6.851 0a2.734 2.734 0 1 1-2.721-2.9 2.733 2.733 0 0 1 2.722 2.898zm4.029 0a4.005 4.005 0 0 0 3.922 4.162 3.51 3.51 0 0 0 2.817-1.392v1.232h1.378v-8H66.6v1.227a3.51 3.51 0 0 0-2.817-1.392 4 4 0 0 0-3.919 4.161zm6.851 0a2.734 2.734 0 1 1-2.721-2.9 2.733 2.733 0 0 1 2.722 2.898zm6.782 7.347l5.25-11.348h-1.535l-2.737 6.066-2.753-6.066H70.2l3.505 7.587-1.745 3.761h1.54zm8.352-3.7a1.367 1.367 0 0 0 .224-.72 1.185 1.185 0 1 0-2.369 0 1.191 1.191 0 0 0 .656 1.072l-1.072 2.289h.913zm15.618-3.65a4.186 4.186 0 1 0-4.178 4.162 4.107 4.107 0 0 0 4.179-4.161zm-6.963 0a2.779 2.779 0 1 1 2.785 2.882 2.751 2.751 0 0 1-2.788-2.881zm9.616.913c0 1.985 1.184 3.249 2.945 3.249a2.753 2.753 0 0 0 2.465-1.392v1.232h1.377v-8h-1.376v3.969c0 1.841-.976 2.93-2.225 2.93-1.1 0-1.808-.849-1.808-2.193v-4.706h-1.377v4.914zm10.176 3.089h1.376v-3.97c0-1.872 1.105-2.753 2.113-2.753a2.016 2.016 0 0 1 .753.128v-1.424a2.86 2.86 0 0 0-.625-.064 2.382 2.382 0 0 0-2.241 1.632v-1.552H110.3v8zm10.96 0h1.376v-3.97c0-1.872 1.025-2.929 2.321-2.929a1.921 1.921 0 0 1 1.889 2.177v4.722h1.359v-4.93a2.95 2.95 0 0 0-3.026-3.233 2.832 2.832 0 0 0-2.545 1.392v-1.232h-1.376v8zm9.6-4a4.22 4.22 0 0 0 7.748 2.257l-1.089-.752a2.833 2.833 0 0 1-5.266-1.232h6.563a3.922 3.922 0 0 0 .016-.417 3.729 3.729 0 0 0-3.81-4.017 4.056 4.056 0 0 0-4.162 4.16zm4.114-2.945a2.4 2.4 0 0 1 2.449 2.1h-5.074a2.617 2.617 0 0 1 2.625-2.101zm13.377 6.947h1.217l2.721-8h-1.457l-1.936 5.842-2-5.842h-1.057l-2 5.842-1.937-5.842h-1.441l2.721 8h1.217l1.985-5.762zm10.845 0h1.489V133.7h1.1l4.369 5.17h1.873l-4.37-5.186a2.965 2.965 0 0 0 2.8-3.041 3.065 3.065 0 0 0-3.393-3.137h-3.874v11.364zm1.489-6.5v-3.489h2.209c1.3 0 2.081.608 2.081 1.761 0 1.136-.785 1.728-2.081 1.728h-2.209zm8.431 2.5a4.005 4.005 0 0 0 3.922 4.162 3.51 3.51 0 0 0 2.817-1.392v1.232h1.377v-8h-1.377v1.226a3.51 3.51 0 0 0-2.817-1.392 4.005 4.005 0 0 0-3.922 4.161zm6.851 0a2.734 2.734 0 1 1-2.721-2.9 2.733 2.733 0 0 1 2.721 2.897zm4.653 7.347h1.377v-4.577a3.51 3.51 0 0 0 2.817 1.392 4.169 4.169 0 0 0 0-8.323 3.51 3.51 0 0 0-2.817 1.392v-1.232h-1.377v11.348zm6.707-7.347a2.726 2.726 0 1 1-2.721-2.9 2.733 2.733 0 0 1 2.721 2.897zm5.854-7.122a.966.966 0 0 0-.96-.977.994.994 0 0 0-.993.977.984.984 0 0 0 .993.976.956.956 0 0 0 .96-.979zm-1.665 11.124h1.377v-8h-1.377v8zm4.16-4a4.005 4.005 0 0 0 3.922 4.162 3.512 3.512 0 0 0 2.817-1.392v1.232h1.376v-12.01h-1.376v5.234a3.512 3.512 0 0 0-2.817-1.392 4.005 4.005 0 0 0-3.922 4.161zm6.851 0a2.734 2.734 0 1 1-2.721-2.9 2.733 2.733 0 0 1 2.721 2.895zm15.151.673l4.1-5.506v8.835h1.472v-11.369H221.9l-4.226 5.666-4.226-5.666h-1.36v11.364h1.489v-8.835zm16.769-.673a4.186 4.186 0 1 0-4.178 4.162 4.107 4.107 0 0 0 4.178-4.167zm-6.963 0a2.779 2.779 0 1 1 2.785 2.882 2.751 2.751 0 0 1-2.785-2.887zm12.049 4h1.152l3.7-8h-1.537l-2.737 6.05-2.737-6.05h-1.539zm6.239-4a4.219 4.219 0 0 0 7.747 2.257l-1.089-.752a2.833 2.833 0 0 1-5.266-1.232h6.563a3.922 3.922 0 0 0 .016-.417 3.729 3.729 0 0 0-3.81-4.017 4.055 4.055 0 0 0-4.161 4.156zm4.113-2.945a2.4 2.4 0 0 1 2.449 2.1h-5.074a2.617 2.617 0 0 1 2.625-2.105zm6.607 6.947h1.376V134.9c0-1.808.913-2.929 2.209-2.929 1.041 0 1.569.9 1.569 2.193v4.706h1.376v-3.97c0-1.808.9-2.929 2.193-2.929 1.041 0 1.585.9 1.585 2.193v4.706h1.377v-4.914c0-1.953-1.057-3.249-2.8-3.249a2.77 2.77 0 0 0-2.625 1.712 2.515 2.515 0 0 0-2.465-1.712 2.692 2.692 0 0 0-2.417 1.392v-1.232h-1.376v8zm14.335-4a4.22 4.22 0 0 0 7.748 2.257l-1.089-.752a2.833 2.833 0 0 1-5.266-1.232h6.563a3.922 3.922 0 0 0 .016-.417 3.729 3.729 0 0 0-3.81-4.017 4.056 4.056 0 0 0-4.162 4.154zm4.114-2.945a2.4 2.4 0 0 1 2.449 2.1h-5.074a2.617 2.617 0 0 1 2.625-2.107zm6.607 6.947h1.376V134.9c0-1.872 1.025-2.929 2.321-2.929a1.921 1.921 0 0 1 1.889 2.177v4.722h1.36v-4.93a2.949 2.949 0 0 0-3.025-3.233 2.831 2.831 0 0 0-2.545 1.392v-1.232h-1.376v8zm14.465-.112v-1.232a3.041 3.041 0 0 1-.976.16 1.153 1.153 0 0 1-1.329-1.361v-4.194h2.305v-1.264H293.7v-2.225h-1.376v2.225h-1.7v1.264h1.7v4.37a2.252 2.252 0 0 0 2.449 2.449 3.828 3.828 0 0 0 1.235-.199zm6.686-5.57a5.906 5.906 0 0 0 10.9 3.121l-1.248-.752a4.466 4.466 0 1 1 0-4.738l1.248-.752a5.906 5.906 0 0 0-10.9 3.114zm12.832 1.68a4.005 4.005 0 0 0 3.921 4.162 3.512 3.512 0 0 0 2.818-1.392v1.232h1.376v-8h-1.376v1.222a3.512 3.512 0 0 0-2.818-1.392 4 4 0 0 0-3.921 4.161zm6.851 0a2.734 2.734 0 1 1-2.722-2.9 2.734 2.734 0 0 1 2.722 2.893zm4.653 4h1.376V134.9c0-1.872 1.105-2.753 2.113-2.753a2.016 2.016 0 0 1 .753.128v-1.424a2.86 2.86 0 0 0-.625-.064 2.382 2.382 0 0 0-2.241 1.632v-1.552h-1.376v8zm13.875-.464v-7.539h-1.377v1.227a3.4 3.4 0 0 0-2.785-1.392 4.077 4.077 0 0 0 0 8.147 3.417 3.417 0 0 0 2.785-1.408v.912a2.558 2.558 0 0 1-2.673 2.769 3.422 3.422 0 0 1-2.8-1.345l-.96.961a4.752 4.752 0 0 0 3.777 1.633 3.705 3.705 0 0 0 4.033-3.97zm-6.675-3.634a2.707 2.707 0 1 1 2.7 2.8 2.667 2.667 0 0 1-2.7-2.805zm17.795.1a4.186 4.186 0 1 0-4.178 4.162 4.107 4.107 0 0 0 4.178-4.171zm-6.963 0a2.779 2.779 0 1 1 2.785 2.882 2.751 2.751 0 0 1-2.785-2.891zm16.1-7.122a.966.966 0 0 0-.96-.977.994.994 0 0 0-.993.977.984.984 0 0 0 .993.976.956.956 0 0 0 .956-.985zm-1.665 11.124h1.377v-8h-1.377v8zm9.97-2.225c0-1.2-.752-1.969-2.113-2.417l-.864-.288c-.944-.3-1.232-.608-1.232-1.12a1.132 1.132 0 0 1 1.344-.929 2.161 2.161 0 0 1 1.7.833l.9-.865a3.1 3.1 0 0 0-2.561-1.152c-1.585 0-2.7.88-2.7 2.177a2.416 2.416 0 0 0 1.985 2.321l.784.256c1.041.336 1.425.72 1.425 1.28a1.219 1.219 0 0 1-1.409 1.089 2.149 2.149 0 0 1-2.049-1.265l-1.12.608a3.178 3.178 0 0 0 3.137 1.857c1.606-.009 2.769-.825 2.769-2.394zm6.846-1.777a4 4 0 0 0 3.921 4.162 3.509 3.509 0 0 0 2.817-1.392v1.232h1.377v-8h-1.377v1.22a3.509 3.509 0 0 0-2.817-1.392 4 4 0 0 0-3.925 4.161zm6.85 0a2.734 2.734 0 1 1-2.721-2.9 2.733 2.733 0 0 1 2.717 2.891zm4.654 4h1.376V134.9c0-1.872 1.1-2.753 2.113-2.753a2.011 2.011 0 0 1 .752.128v-1.424a2.851 2.851 0 0 0-.624-.064 2.381 2.381 0 0 0-2.241 1.632v-1.552h-1.376v8zm6.656 0h1.376V134.9c0-1.808.913-2.929 2.209-2.929 1.041 0 1.569.9 1.569 2.193v4.706H401v-3.97c0-1.808.9-2.929 2.193-2.929 1.041 0 1.585.9 1.585 2.193v4.706h1.376v-4.914c0-1.953-1.056-3.249-2.8-3.249a2.77 2.77 0 0 0-2.625 1.712 2.515 2.515 0 0 0-2.465-1.712 2.691 2.691 0 0 0-2.417 1.392v-1.232h-1.376v8zm14.335-4a4.219 4.219 0 0 0 7.747 2.257l-1.088-.752a2.833 2.833 0 0 1-5.266-1.232h6.563a3.922 3.922 0 0 0 .016-.417 3.729 3.729 0 0 0-3.81-4.017 4.056 4.056 0 0 0-4.17 4.152zm4.114-2.945a2.4 2.4 0 0 1 2.449 2.1h-5.074a2.616 2.616 0 0 1 2.621-2.109zm5.982 2.945a4.005 4.005 0 0 0 3.922 4.162 3.51 3.51 0 0 0 2.817-1.392v1.232h1.377v-12.014h-1.377v5.234a3.51 3.51 0 0 0-2.817-1.392 4.005 4.005 0 0 0-3.926 4.161zm6.851 0a2.734 2.734 0 1 1-2.721-2.9 2.733 2.733 0 0 1 2.717 2.891zm15.856 4h1.217l2.721-8h-1.457l-1.937 5.842-2-5.842h-1.056l-2 5.842-1.937-5.842h-1.44l2.721 8h1.216l1.985-5.762zm7.886-11.124a.967.967 0 0 0-.961-.977.994.994 0 0 0-.992.977.983.983 0 0 0 .992.976.957.957 0 0 0 .957-.983zm-1.665 11.124h1.377v-8h-1.377v8zm9.122-.112v-1.232a3.048 3.048 0 0 1-.977.16 1.153 1.153 0 0 1-1.328-1.361v-4.194h2.305v-1.264h-2.305v-2.225h-1.377v2.225h-1.7v1.264h1.7v4.37a2.253 2.253 0 0 0 2.449 2.449 3.835 3.835 0 0 0 1.229-.199zm2.558.112h1.376V134.9c0-1.872 1.025-2.929 2.321-2.929a1.921 1.921 0 0 1 1.889 2.177v4.722h1.361v-4.93a2.95 2.95 0 0 0-3.026-3.233 2.832 2.832 0 0 0-2.545 1.392v-5.234h-1.376v12.005zm14.3-4a4.005 4.005 0 0 0 3.922 4.162 3.51 3.51 0 0 0 2.817-1.392v1.232h1.377v-8h-1.378v1.22a3.51 3.51 0 0 0-2.817-1.392 4.005 4.005 0 0 0-3.922 4.161zm6.851 0a2.734 2.734 0 1 1-2.721-2.9 2.733 2.733 0 0 1 2.72 2.891zm4.029 0a4.005 4.005 0 0 0 3.922 4.162 3.51 3.51 0 0 0 2.817-1.392v1.232h1.376v-12.014h-1.377v5.234a3.51 3.51 0 0 0-2.817-1.392 4.005 4.005 0 0 0-3.922 4.161zm6.851 0a2.734 2.734 0 1 1-2.721-2.9 2.733 2.733 0 0 1 2.72 2.891zm7.15 4h1.153l3.7-8h-1.536l-2.738 6.05-2.737-6.05H495zm6.255-4a4.005 4.005 0 0 0 3.921 4.162 3.512 3.512 0 0 0 2.818-1.392v1.232h1.376v-8h-1.376v1.22a3.512 3.512 0 0 0-2.818-1.392 4 4 0 0 0-3.922 4.161zm6.851 0a2.734 2.734 0 1 1-2.722-2.9 2.734 2.734 0 0 1 2.723 2.891zm4.653 4h1.376V134.9c0-1.872 1.025-2.929 2.321-2.929a1.921 1.921 0 0 1 1.889 2.177v4.722h1.362v-4.93a2.949 2.949 0 0 0-3.025-3.233 2.832 2.832 0 0 0-2.546 1.392v-1.232h-1.376v8zm17.491-1.985l-1.2-.672a2.713 2.713 0 0 1-2.5 1.537 2.883 2.883 0 0 1 0-5.763 2.713 2.713 0 0 1 2.5 1.537l1.2-.672a4.145 4.145 0 0 0-3.7-2.145 4.162 4.162 0 1 0 0 8.323 4.145 4.145 0 0 0 3.699-2.152zm1.948-2.017a4.219 4.219 0 0 0 7.747 2.257l-1.088-.752a2.833 2.833 0 0 1-5.266-1.232h6.563a3.922 3.922 0 0 0 .016-.417 3.729 3.729 0 0 0-3.81-4.017 4.056 4.056 0 0 0-4.163 4.154zm4.109-2.952a2.4 2.4 0 0 1 2.449 2.1h-5.074a2.616 2.616 0 0 1 2.625-2.1zm5.982 2.945a4.005 4.005 0 0 0 3.922 4.162 3.51 3.51 0 0 0 2.817-1.392v1.232h1.379v-12.005h-1.376v5.234a3.51 3.51 0 0 0-2.817-1.392 4.005 4.005 0 0 0-3.921 4.161zm6.851 0a2.734 2.734 0 1 1-2.721-2.9 2.733 2.733 0 0 1 2.725 2.9zm14.543 1.777c0-1.2-.752-1.969-2.113-2.417l-.864-.288c-.944-.3-1.233-.608-1.233-1.12a1.133 1.133 0 0 1 1.345-.929 2.161 2.161 0 0 1 1.7.833l.9-.865a3.1 3.1 0 0 0-2.561-1.152c-1.585 0-2.705.88-2.705 2.177a2.416 2.416 0 0 0 1.985 2.321l.784.256c1.04.336 1.425.72 1.425 1.28a1.219 1.219 0 0 1-1.409 1.089 2.149 2.149 0 0 1-2.049-1.265l-1.12.608a3.177 3.177 0 0 0 3.137 1.857c1.614 0 2.782-.816 2.782-2.385zm7.008 2.113v-1.232a3.043 3.043 0 0 1-.977.16 1.153 1.153 0 0 1-1.328-1.361v-4.194h2.305v-1.264h-2.305v-2.225h-1.377v2.225h-1.7v1.264h1.7v4.37a2.253 2.253 0 0 0 2.449 2.449 3.835 3.835 0 0 0 1.237-.192zm2.558.112h1.377V134.9c0-1.872 1.1-2.753 2.112-2.753a2.016 2.016 0 0 1 .753.128v-1.424a2.854 2.854 0 0 0-.625-.064 2.38 2.38 0 0 0-2.24 1.632v-1.552h-1.377v8zm5.744-4a4.219 4.219 0 0 0 7.747 2.257l-1.089-.752a2.833 2.833 0 0 1-5.266-1.232h6.563a3.922 3.922 0 0 0 .016-.417 3.729 3.729 0 0 0-3.809-4.017 4.056 4.056 0 0 0-4.158 4.159zm4.113-2.945a2.4 2.4 0 0 1 2.449 2.1h-5.074a2.618 2.618 0 0 1 2.626-2.102zm10.833 6.835v-1.232a3.041 3.041 0 0 1-.976.16 1.153 1.153 0 0 1-1.329-1.361v-4.194h2.3v-1.264h-2.3v-2.225h-1.377v2.225h-1.7v1.264h1.7v4.37a2.253 2.253 0 0 0 2.449 2.449 3.83 3.83 0 0 0 1.237-.194zm9.713-1.873l-1.2-.672a2.714 2.714 0 0 1-2.5 1.537 2.883 2.883 0 0 1 0-5.763 2.714 2.714 0 0 1 2.5 1.537l1.2-.672a4.143 4.143 0 0 0-3.7-2.145 4.162 4.162 0 1 0 0 8.323 4.143 4.143 0 0 0 3.704-2.147zm2.573 1.985h1.382V134.9c0-1.872 1.024-2.929 2.321-2.929a1.921 1.921 0 0 1 1.888 2.177v4.722h1.361v-4.93a2.949 2.949 0 0 0-3.025-3.233 2.829 2.829 0 0 0-2.545 1.393v-5.234h-1.377v12.005zm20.114-2.225c0-1.2-.752-1.969-2.113-2.417l-.864-.288c-.945-.3-1.233-.608-1.233-1.12a1.133 1.133 0 0 1 1.345-.929 2.159 2.159 0 0 1 1.7.833l.9-.865a3.106 3.106 0 0 0-2.561-1.152c-1.585 0-2.7.88-2.7 2.177a2.416 2.416 0 0 0 1.984 2.321l.785.256c1.04.336 1.424.72 1.424 1.28a1.218 1.218 0 0 1-1.408 1.089 2.148 2.148 0 0 1-2.049-1.265l-1.121.608a3.18 3.18 0 0 0 3.138 1.857c1.608-.002 2.777-.818 2.777-2.387zm10.5-1.777a4.186 4.186 0 1 0-4.178 4.162 4.107 4.107 0 0 0 4.179-4.164zm-6.963 0a2.779 2.779 0 1 1 2.785 2.882 2.751 2.751 0 0 1-2.784-2.884zm16.192 7.347l5.25-11.348h-1.536l-2.738 6.066-2.753-6.066h-1.52l3.5 7.587-1.745 3.761h1.537zm14.979-7.347a4.186 4.186 0 1 0-4.178 4.162 4.107 4.107 0 0 0 4.179-4.164zm-6.963 0a2.779 2.779 0 1 1 2.785 2.882 2.751 2.751 0 0 1-2.784-2.884zm9.615.913c0 1.985 1.185 3.249 2.945 3.249a2.753 2.753 0 0 0 2.465-1.392v1.232h1.377v-8H672.8v3.969c0 1.841-.976 2.93-2.225 2.93-1.1 0-1.808-.849-1.808-2.193v-4.706h-1.377v4.914zM37.9 156.886l-1.2-.672a2.714 2.714 0 0 1-2.5 1.537 2.883 2.883 0 0 1 0-5.763 2.714 2.714 0 0 1 2.5 1.537l1.2-.672a4.144 4.144 0 0 0-3.7-2.145 4.162 4.162 0 1 0 0 8.323 4.144 4.144 0 0 0 3.7-2.145zm1.949-2.017a4.005 4.005 0 0 0 3.922 4.162 3.51 3.51 0 0 0 2.817-1.392v1.232h1.377v-8h-1.378v1.229a3.51 3.51 0 0 0-2.817-1.392 4 4 0 0 0-3.921 4.161zm6.851 0a2.734 2.734 0 1 1-2.721-2.9 2.733 2.733 0 0 1 2.721 2.9zm4.653 4h1.377V154.9c0-1.872 1.024-2.929 2.321-2.929a1.921 1.921 0 0 1 1.889 2.177v4.722h1.36v-4.93a2.949 2.949 0 0 0-3.025-3.233 2.83 2.83 0 0 0-2.545 1.392v-1.232h-1.377v8zm14.928 0h1.377V154.9c0-1.808.912-2.929 2.209-2.929 1.04 0 1.569.9 1.569 2.193v4.706h1.377v-3.97c0-1.808.9-2.929 2.193-2.929 1.04 0 1.585.9 1.585 2.193v4.706h1.377v-4.914c0-1.953-1.056-3.249-2.8-3.249a2.77 2.77 0 0 0-2.625 1.712 2.516 2.516 0 0 0-2.465-1.712 2.69 2.69 0 0 0-2.417 1.392v-1.232H66.28v8zm14.336-4a4 4 0 0 0 3.921 4.162 3.51 3.51 0 0 0 2.817-1.392v1.232h1.377v-8h-1.377v1.229a3.51 3.51 0 0 0-2.817-1.392 4 4 0 0 0-3.922 4.161zm6.851 0a2.734 2.734 0 1 1-2.721-2.9 2.733 2.733 0 0 1 2.72 2.9zm4.653 4H93.5V154.9c0-1.872 1.1-2.753 2.113-2.753a2.013 2.013 0 0 1 .752.128v-1.424a2.854 2.854 0 0 0-.624-.064 2.381 2.381 0 0 0-2.241 1.633v-1.552h-1.38v8zm13.635-1.985l-1.2-.672a2.715 2.715 0 0 1-2.5 1.537 2.883 2.883 0 0 1 0-5.763 2.715 2.715 0 0 1 2.5 1.537l1.2-.672a4.143 4.143 0 0 0-3.7-2.145 4.162 4.162 0 1 0 0 8.323 4.143 4.143 0 0 0 3.699-2.143zm2.573 1.985h1.377V154.9c0-1.872 1.024-2.929 2.32-2.929a1.921 1.921 0 0 1 1.889 2.177v4.722h1.361v-4.93a2.949 2.949 0 0 0-3.025-3.233 2.829 2.829 0 0 0-2.545 1.392v-5.234h-1.377v12zm18.993-.112v-1.232a3.041 3.041 0 0 1-.976.16 1.153 1.153 0 0 1-1.329-1.361v-4.194h2.3v-1.264h-2.3v-2.225h-1.377v2.225h-1.7v1.264h1.7v4.37a2.252 2.252 0 0 0 2.449 2.449 3.828 3.828 0 0 0 1.232-.19zm10.178-3.89a4.186 4.186 0 1 0-4.178 4.162 4.107 4.107 0 0 0 4.178-4.16zm-6.963 0a2.779 2.779 0 1 1 2.785 2.882 2.751 2.751 0 0 1-2.786-2.88zm18.5 3.89v-1.232a3.041 3.041 0 0 1-.976.16 1.153 1.153 0 0 1-1.329-1.361v-4.194h2.3v-1.264h-2.3v-2.225h-1.376v2.225h-1.7v1.264h1.7v4.37a2.252 2.252 0 0 0 2.449 2.449 3.828 3.828 0 0 0 1.228-.19zm2.558.112h1.377V154.9c0-1.872 1.024-2.929 2.321-2.929a1.922 1.922 0 0 1 1.889 2.177v4.722h1.36v-4.93a2.949 2.949 0 0 0-3.025-3.233 2.831 2.831 0 0 0-2.545 1.392v-5.234h-1.377v12zm9.6-4a4.219 4.219 0 0 0 7.747 2.257l-1.088-.752a2.834 2.834 0 0 1-5.267-1.232h6.563a3.922 3.922 0 0 0 .016-.417 3.729 3.729 0 0 0-3.809-4.017 4.056 4.056 0 0 0-4.166 4.161zm4.114-2.945a2.4 2.4 0 0 1 2.449 2.1h-5.078a2.616 2.616 0 0 1 2.625-2.1zm12.686 5.715a3.512 3.512 0 0 0 2.818 1.392 4.169 4.169 0 0 0 0-8.323 3.512 3.512 0 0 0-2.818 1.392v-5.234h-1.376v12h1.376v-1.232zm5.331-2.77a2.727 2.727 0 1 1-2.722-2.9 2.734 2.734 0 0 1 2.718 2.9zm3.548 0a4.22 4.22 0 0 0 7.748 2.257l-1.089-.752a2.833 2.833 0 0 1-5.266-1.232h6.563a3.922 3.922 0 0 0 .016-.417 3.729 3.729 0 0 0-3.81-4.017 4.056 4.056 0 0 0-4.166 4.161zm4.114-2.945a2.4 2.4 0 0 1 2.449 2.1h-5.074a2.617 2.617 0 0 1 2.621-2.1zm5.982 2.945a4.005 4.005 0 0 0 3.922 4.162 3.51 3.51 0 0 0 2.817-1.392v1.232h1.377v-8h-1.377v1.229a3.51 3.51 0 0 0-2.817-1.392 4.005 4.005 0 0 0-3.926 4.161zm6.851 0a2.734 2.734 0 1 1-2.721-2.9 2.733 2.733 0 0 1 2.717 2.9zm8.991 3.89v-1.232a3.041 3.041 0 0 1-.976.16 1.153 1.153 0 0 1-1.329-1.361v-4.194h2.305v-1.264H210.5v-2.225h-1.376v2.225h-1.7v1.264h1.7v4.37a2.252 2.252 0 0 0 2.449 2.449 3.828 3.828 0 0 0 1.235-.192zm14.993-3.89a4.186 4.186 0 1 0-4.177 4.162 4.107 4.107 0 0 0 4.172-4.162zm-6.962 0a2.779 2.779 0 1 1 2.785 2.882 2.751 2.751 0 0 1-2.789-2.882zm10.271 4h1.377v-6.739h2.321v-1.264h-2.321V149.4a1.152 1.152 0 0 1 1.328-1.36 3.223 3.223 0 0 1 .993.16v-1.217a3.638 3.638 0 0 0-1.249-.208 2.286 2.286 0 0 0-2.449 2.481v1.617h-1.7v1.264h1.7v6.739zm12.049 3.345l5.25-11.348h-1.537l-2.737 6.066-2.753-6.066h-1.52l3.5 7.587-1.745 3.761h1.537zm14.978-7.347a4.186 4.186 0 1 0-4.177 4.162 4.107 4.107 0 0 0 4.173-4.16zm-6.963 0a2.779 2.779 0 1 1 2.786 2.882 2.752 2.752 0 0 1-2.79-2.88zm9.616.913c0 1.985 1.184 3.249 2.945 3.249a2.753 2.753 0 0 0 2.465-1.392v1.232h1.377v-8H266.2v3.969c0 1.841-.976 2.93-2.225 2.93-1.1 0-1.809-.849-1.809-2.193v-4.706h-1.376v4.914zm10.176 3.089h1.376V154.9c0-1.872 1.105-2.753 2.113-2.753a2.02 2.02 0 0 1 .753.128v-1.424a2.86 2.86 0 0 0-.625-.064 2.382 2.382 0 0 0-2.241 1.632v-1.552h-1.376v8zm18.691-4a4.186 4.186 0 1 0-4.178 4.162 4.107 4.107 0 0 0 4.174-4.162zm-6.963 0a2.779 2.779 0 1 1 2.785 2.882 2.751 2.751 0 0 1-2.789-2.882zm16.482 4h1.217l2.721-8h-1.457l-1.936 5.842-2-5.842h-1.057l-2 5.842-1.936-5.842h-1.441l2.721 8h1.217l1.985-5.762zm6.221 0h1.377V154.9c0-1.872 1.024-2.929 2.321-2.929a1.922 1.922 0 0 1 1.889 2.177v4.722h1.36v-4.93a2.949 2.949 0 0 0-3.025-3.233 2.831 2.831 0 0 0-2.545 1.392v-1.232H305.4v8zm14.3-4a4 4 0 0 0 3.921 4.162 3.509 3.509 0 0 0 2.817-1.392v1.232h1.377v-12h-1.377v5.229a3.509 3.509 0 0 0-2.817-1.392 4 4 0 0 0-3.922 4.161zm6.85 0a2.734 2.734 0 1 1-2.721-2.9 2.733 2.733 0 0 1 2.721 2.9zm4.654 4h1.376V154.9c0-1.872 1.1-2.753 2.113-2.753a2.02 2.02 0 0 1 .753.128v-1.424a2.866 2.866 0 0 0-.625-.064 2.382 2.382 0 0 0-2.241 1.632v-1.552h-1.376v8zm6.544-3.089c0 1.985 1.184 3.249 2.945 3.249a2.754 2.754 0 0 0 2.465-1.392v1.232h1.376v-8h-1.376v3.969c0 1.841-.976 2.93-2.225 2.93-1.1 0-1.809-.849-1.809-2.193v-4.706h-1.376v4.914zm10.176 3.089h1.375V154.9c0-1.808.913-2.929 2.209-2.929 1.041 0 1.569.9 1.569 2.193v4.706h1.376v-3.97c0-1.808.9-2.929 2.193-2.929 1.041 0 1.585.9 1.585 2.193v4.706h1.376v-4.914c0-1.953-1.056-3.249-2.8-3.249a2.77 2.77 0 0 0-2.625 1.712 2.515 2.515 0 0 0-2.465-1.712 2.691 2.691 0 0 0-2.418 1.393v-1.232h-1.376v8zm16.864-1.072a1.185 1.185 0 1 0-1.184 1.2 1.206 1.206 0 0 0 1.184-1.197z"/></svg>