<svg id="copy_copy_2" data-name="copy copy 2" xmlns="http://www.w3.org/2000/svg" width="720" height="150"><defs><style>.cls-2{fill-rule:evenodd}</style></defs><path id="Rectangle_106_copy_12" data-name="Rectangle 106 copy 12" fill="#fff" d="M0 0h720v150H0z"/><g id="CTA_underline"><path d="M30 97h90v3H30z"/><path id="SHOP_now" data-name="SHOP now" class="cls-2" d="M33.395 92.2a3.12 3.12 0 0 0 3.422-3.065 3.05 3.05 0 0 0-2.277-2.967l-.674-.252c-1.011-.378-1.482-.616-1.482-1.148a.984.984 0 0 1 1.159-.756 2.1 2.1 0 0 1 1.657.826l1.4-1.54a3.921 3.921 0 0 0-3.085-1.372 3 3 0 0 0-3.3 3.074c0 1.358.862 2.324 2.412 2.869l.673.231c.957.336 1.334.686 1.334 1.19a.977.977 0 0 1-1.159.826 2.48 2.48 0 0 1-1.975-1.131l-1.644 1.442a4.143 4.143 0 0 0 3.539 1.773zm7.332-.168h2.142V88.1h3.853v3.933h2.142V82.1h-2.141v3.89h-3.854V82.1h-2.142v9.938zm16.993.168a5.141 5.141 0 1 0-4.945-5.137A5.056 5.056 0 0 0 57.72 92.2zm0-2.156a2.989 2.989 0 1 1 2.78-2.976 2.9 2.9 0 0 1-2.78 2.981zM73.191 85.5a3.32 3.32 0 0 0-3.368-3.4h-3.248v9.938h2.142v-3.151h1.1a3.308 3.308 0 0 0 3.374-3.387zm-2.075 0a1.282 1.282 0 0 1-1.32 1.3h-1.079v-2.6H69.8a1.274 1.274 0 0 1 1.316 1.3zm19.54 6.537V82.1H88.5v6.131L83.851 82.1h-1.845v9.938h2.142v-6.146l4.662 6.145h1.846zm8.855.163a5.141 5.141 0 1 0-4.945-5.137 5.056 5.056 0 0 0 4.945 5.137zm0-2.156a2.989 2.989 0 1 1 2.775-2.981 2.9 2.9 0 0 1-2.775 2.986zm16.265 1.987h2.035l2.223-9.938h-2.29l-1.307 6.3-2.695-6.466-2.681 6.473-1.307-6.3h-2.291l2.21 9.938h2.034l2.035-4.871z"/></g><path id="Leather_Duffle_Bag_" data-name="Leather Duffle Bag" class="cls-2" d="M31.586 51.871h13.59v-4.56h-8.82V30.572h-4.77v21.3zm18.06 0h13.5v-4.56h-8.73V43.5h6.93v-4.56h-6.93v-3.81h8.73v-4.56h-13.5v21.3zm16.35 0h4.98l1.89-4.5h8.82l1.89 4.5h4.98l-9.12-21.3h-4.32zm8.61-8.64l2.67-6.42 2.67 6.42h-5.34zm19.38 8.64h4.8V35.132h5.489v-4.56H88.556v4.56h5.43v16.739zm14.7 0h4.77v-8.43h8.579v8.43h4.77v-21.3h-4.77v8.34h-8.579v-8.34h-4.77v21.3zm24.12 0h13.5v-4.56h-8.729V43.5h6.929v-4.56h-6.929v-3.81h8.729v-4.56h-13.5v21.3zm18.63 0h4.77v-8.79h.779l7.08 8.79h5.73l-7.53-9.39c2.7-.96 4.17-2.73 4.17-5.49a6.288 6.288 0 0 0-6.6-6.42h-8.4v21.3zm4.77-12.84v-4.08h3.059c1.41 0 2.43.75 2.43 2.04a2.156 2.156 0 0 1-2.43 2.04h-3.059zm24.094 12.84h7.26a10.652 10.652 0 1 0 0-21.3h-7.26v21.3zm4.77-4.38V34.952h2.49a6.011 6.011 0 0 1 6.03 6.27 6.011 6.011 0 0 1-6.03 6.27h-2.49zm26.7 4.74a8.353 8.353 0 0 0 8.759-8.79V30.572h-4.769V43.5a3.992 3.992 0 1 1-7.98 0V30.572h-4.77v12.869a8.338 8.338 0 0 0 8.755 8.79zm14.52-.36h4.77v-8.34h6.509v-4.56h-6.509v-3.84h8.339v-4.56h-13.114v21.3zm17.85 0h4.77v-8.34h6.509v-4.56h-6.509v-3.84h8.339v-4.56h-13.114v21.3zm17.85 0h13.589v-4.56h-8.82V30.572h-4.769v21.3zm18.059 0h13.5v-4.56h-8.73V43.5h6.93v-4.56h-6.93v-3.81h8.73v-4.56h-13.5v21.3zm26.73 0h9.359a6.3 6.3 0 0 0 6.48-6.27 5.566 5.566 0 0 0-3.03-5.04 5.013 5.013 0 0 0 1.53-3.66 6.331 6.331 0 0 0-6.33-6.33h-8.009v21.3zm4.77-12.689v-4.26h2.7a2.165 2.165 0 0 1 2.22 2.16 2.135 2.135 0 0 1-2.22 2.1h-2.7zm0 8.31v-4.26h4.169a2.167 2.167 0 0 1 2.25 2.13 2.141 2.141 0 0 1-2.22 2.13h-4.2zm12.9 4.38h4.98l1.89-4.5h8.819l1.89 4.5H347l-9.119-21.3h-4.32zm8.61-8.64l2.67-6.42 2.669 6.42h-5.339zm27.12 9c3.449 0 6.839-1.02 8.729-3.15v-10.11h-8.819v4.47h4.169v3.15a6.936 6.936 0 0 1-4.139 1.02c-4.17 0-6.72-2.76-6.72-6.39a6.252 6.252 0 0 1 6.42-6.39 7.071 7.071 0 0 1 5.369 2.28l3.36-3.27a11.333 11.333 0 0 0-8.729-3.63 10.88 10.88 0 0 0-11.22 11.01c-.005 6.239 4.945 11.009 11.575 11.009z"/></svg>