<svg id="copy_copy_2" data-name="copy copy 2" xmlns="http://www.w3.org/2000/svg" width="720" height="268"><defs><style>.cls-2{fill-rule:evenodd}</style></defs><path id="Rectangle_106_copy_5" data-name="Rectangle 106 copy 5" fill="#fff" d="M0 0h720v268H0z"/><g id="CTA_underline"><path d="M30 234h90v3H30z"/><path id="SHOP_now" data-name="SHOP now" class="cls-2" d="M33.395 229.2a3.12 3.12 0 0 0 3.422-3.065 3.049 3.049 0 0 0-2.277-2.967l-.674-.252c-1.011-.378-1.482-.616-1.482-1.148a.984.984 0 0 1 1.159-.756 2.1 2.1 0 0 1 1.657.826l1.4-1.54a3.923 3.923 0 0 0-3.085-1.371 3 3 0 0 0-3.3 3.065c0 1.358.862 2.323 2.412 2.869l.673.239c.957.336 1.334.686 1.334 1.19a.977.977 0 0 1-1.159.826 2.48 2.48 0 0 1-1.981-1.134l-1.644 1.442a4.141 4.141 0 0 0 3.545 1.776zm7.332-.168h2.142V225.1h3.853v3.933h2.142V219.1h-2.141v3.891h-3.854V219.1h-2.142v9.937zm16.993.168a5.14 5.14 0 1 0-4.945-5.136 5.055 5.055 0 0 0 4.945 5.136zm0-2.155a2.989 2.989 0 1 1 2.776-2.981 2.9 2.9 0 0 1-2.776 2.985zm15.471-4.545a3.319 3.319 0 0 0-3.368-3.4h-3.248v9.937h2.142v-3.149h1.1a3.308 3.308 0 0 0 3.374-3.388zm-2.075 0a1.282 1.282 0 0 1-1.32 1.3h-1.079v-2.6H69.8a1.274 1.274 0 0 1 1.316 1.3zm19.54 6.536V219.1H88.5v6.13l-4.648-6.13h-1.846v9.937h2.142v-6.144l4.662 6.144h1.846zm8.855.168a5.14 5.14 0 1 0-4.945-5.136 5.056 5.056 0 0 0 4.945 5.132zm0-2.155a2.989 2.989 0 1 1 2.775-2.981 2.9 2.9 0 0 1-2.775 2.981zm16.265 1.987h2.035l2.223-9.937h-2.29l-1.307 6.3-2.695-6.466-2.681 6.466-1.307-6.3h-2.291l2.21 9.937h2.034l2.035-4.87z"/></g><path id="Slim_Herringbone_Italian_Wool_Flannel_Suit_Italian_wool_b._20" data-name="Slim Herringbone Italian Wool Flannel Suit Italian wool, b. 20" class="cls-2" d="M37.946 51.231c4.5 0 7.59-2.7 7.62-6.57.03-3.21-1.98-5.25-5.07-6.36l-1.5-.54c-2.25-.81-3.3-1.32-3.3-2.46 0-1.11 1.29-1.62 2.58-1.62a4.738 4.738 0 0 1 3.69 1.77l3.12-3.3a8.887 8.887 0 0 0-6.87-2.94c-4.26 0-7.35 2.43-7.35 6.57 0 2.91 1.92 4.98 5.37 6.15l1.5.51c2.13.72 2.97 1.47 2.97 2.55 0 1.02-.99 1.77-2.58 1.77a5.573 5.573 0 0 1-4.41-2.43l-3.66 3.09a9.34 9.34 0 0 0 7.89 3.81zm12.42-.36h13.59v-4.56h-8.82V29.572h-4.77v21.3zm18.06 0H73.2v-21.3h-4.77v21.3zm21.774-4.53l6.21-8.61v13.14h4.8v-21.3h-4.345l-6.66 9.18-6.66-9.18H79.2v21.3h4.77V37.732zm25.11 4.53h4.769v-8.43h8.58v8.43h4.77v-21.3h-4.77v8.34h-8.58v-8.34h-4.769v21.3zm24.12 0h13.5v-4.56h-8.73V42.5h6.93v-4.56h-6.93v-3.81h8.73v-4.56h-13.5v21.3zm18.63 0h4.769v-8.79h.78l7.08 8.79h5.73l-7.53-9.39c2.7-.96 4.17-2.73 4.17-5.49a6.288 6.288 0 0 0-6.6-6.42h-8.4v21.3zm4.769-12.84v-4.08h3.06c1.41 0 2.43.75 2.43 2.04a2.156 2.156 0 0 1-2.43 2.04h-3.06zm16.59 12.84h4.77v-8.79h.78l7.08 8.79h5.729l-7.529-9.39c2.7-.96 4.17-2.73 4.17-5.49a6.288 6.288 0 0 0-6.6-6.42h-8.4v21.3zm4.77-12.84v-4.08h3.06c1.41 0 2.43.75 2.43 2.04a2.156 2.156 0 0 1-2.43 2.04h-3.06zm16.59 12.84h4.77v-21.3h-4.77v21.3zm30.029 0v-21.3h-4.8v13.14l-10.35-13.139h-4.11v21.3h4.77V37.7l10.38 13.17h4.11zm16.41.36c3.45 0 6.84-1.02 8.729-3.15V37.972h-8.819v4.47h4.17v3.15a6.939 6.939 0 0 1-4.14 1.02c-4.17 0-6.72-2.76-6.72-6.39a6.252 6.252 0 0 1 6.42-6.39 7.073 7.073 0 0 1 5.37 2.28l3.359-3.27a11.329 11.329 0 0 0-8.729-3.63 10.88 10.88 0 0 0-11.22 11.01c.005 6.239 4.955 11.009 11.585 11.009zm13.98-.36h9.359a6.3 6.3 0 0 0 6.48-6.27 5.566 5.566 0 0 0-3.03-5.04 5.013 5.013 0 0 0 1.53-3.66 6.331 6.331 0 0 0-6.33-6.33H261.2v21.3zm4.77-12.689v-4.26h2.7a2.165 2.165 0 0 1 2.22 2.16 2.135 2.135 0 0 1-2.22 2.1h-2.7zm0 8.31v-4.26h4.169a2.167 2.167 0 0 1 2.25 2.13 2.141 2.141 0 0 1-2.22 2.13h-4.2zm25.589 4.74a11.01 11.01 0 1 0-11.009-11.01 11.036 11.036 0 0 0 11.014 11.009zm0-4.62a6.393 6.393 0 1 1 6.18-6.39 6.32 6.32 0 0 1-6.175 6.389zm35.069 4.26v-21.3h-4.8v13.139l-10.35-13.139h-4.11v21.3h4.77V37.7l10.38 13.17h4.109zm6 0h13.5v-4.56H337.4V42.5h6.929v-4.56H337.4v-3.81h8.729v-4.56h-13.5v21.3zm26.73 0h4.769v-21.3h-4.769v21.3zm14.609 0h4.8v-16.74h5.49v-4.56h-15.72v4.56h5.43v16.739zm10.26 0h4.98l1.89-4.5h8.82l1.89 4.5h4.979l-9.119-21.3h-4.32zm8.61-8.64l2.67-6.42 2.67 6.42h-5.34zm17.67 8.64H424.1v-4.56h-8.82v-16.74h-4.77v21.3zm18.06 0h4.77v-21.3h-4.77v21.3zm8.49 0h4.979l1.89-4.5h8.82l1.89 4.5h4.98l-9.12-21.3h-4.32zm8.609-8.64l2.67-6.42 2.67 6.42h-5.34zm36.93 8.64v-21.3h-4.8v13.139L467.45 29.572h-4.109v21.3h4.769V37.7l10.38 13.17h4.11zm30.33 0h4.529l4.95-21.3h-5.1l-2.91 13.5-6-13.859-5.97 13.859-2.91-13.5h-5.1l4.92 21.3h4.53l4.53-10.44zm23.25.36a11.01 11.01 0 1 0-11.01-11.01 11.035 11.035 0 0 0 11.016 11.009zm0-4.62a6.393 6.393 0 1 1 6.18-6.39 6.32 6.32 0 0 1-6.174 6.389zm25.619 4.62a11.01 11.01 0 1 0-11.009-11.01A11.036 11.036 0 0 0 561.8 51.231zm0-4.62a6.393 6.393 0 1 1 6.18-6.39 6.319 6.319 0 0 1-6.173 6.389zm15.81 4.26H591.2v-4.56h-8.82v-16.74h-4.77v21.3zm-546.023 28h4.77v-8.34h6.51v-4.56h-6.51v-3.84h8.35v-4.56H31.586v21.3zm17.85 0h13.596v-4.56h-8.82v-16.74h-4.77v21.3zm15.78 0h4.99l1.89-4.5h8.82l1.89 4.5h4.98l-9.12-21.3h-4.32zm8.61-8.64l2.67-6.42 2.67 6.42h-5.34zm36.929 8.64v-21.3h-4.8v13.139L95.606 57.572H91.5v21.3h4.77V65.7l10.379 13.17h4.11zm25.26 0v-21.3h-4.8v13.139l-10.343-13.139h-4.11v21.3h4.77V65.7l10.379 13.17h4.11zm6 0h13.5v-4.56h-8.73V70.5h6.93v-4.56h-6.93v-3.81h8.73v-4.56h-13.5v21.3zm18.63 0h13.59v-4.56h-8.82v-16.74h-4.77v21.3zm31.71.36c4.5 0 7.589-2.7 7.619-6.57.03-3.21-1.98-5.25-5.069-6.36l-1.5-.54c-2.25-.81-3.3-1.32-3.3-2.46 0-1.11 1.29-1.62 2.58-1.62a4.736 4.736 0 0 1 3.689 1.77l3.12-3.3a8.887 8.887 0 0 0-6.869-2.94c-4.26 0-7.35 2.43-7.35 6.57 0 2.91 1.92 4.98 5.37 6.15l1.5.51c2.13.72 2.969 1.47 2.969 2.55 0 1.02-.989 1.77-2.579 1.77a5.573 5.573 0 0 1-4.41-2.43l-3.66 3.09a9.34 9.34 0 0 0 7.896 3.809zm20.939 0a8.354 8.354 0 0 0 8.76-8.79v-12.87h-4.77V70.5a3.992 3.992 0 1 1-7.98 0V57.572h-4.769v12.869c.006 5.31 3.635 8.79 8.765 8.79zm14.52-.36h4.77v-21.3h-4.77v21.3zm14.61 0h4.8v-16.74h5.489v-4.56h-15.713v4.56h5.43v16.739zm-211.395 28H32.7V94.087h-1.671v12.784zm10.585-.126v-1.386a3.424 3.424 0 0 1-1.1.18 1.3 1.3 0 0 1-1.494-1.531v-4.718h2.593v-1.423h-2.585v-2.5h-1.549v2.5h-1.908v1.422h1.909v4.915a2.534 2.534 0 0 0 2.755 2.755 4.31 4.31 0 0 0 1.385-.215zm2.05-4.375a4.5 4.5 0 0 0 4.411 4.681 3.948 3.948 0 0 0 3.169-1.566v1.386h1.548v-9h-1.541v1.386a3.948 3.948 0 0 0-3.169-1.566 4.5 4.5 0 0 0-4.411 4.678zm7.706 0a3.075 3.075 0 1 1-3.061-3.259 3.074 3.074 0 0 1 3.068 3.258zm5.236 4.5h1.548v-13.5h-1.541v13.5zm7.254-12.514a1.087 1.087 0 0 0-1.08-1.1 1.118 1.118 0 0 0-1.116 1.1 1.107 1.107 0 0 0 1.116 1.1 1.076 1.076 0 0 0 1.087-1.1zm-1.873 12.514h1.548v-9h-1.54v9zm4.68-4.5a4.5 4.5 0 0 0 4.411 4.681 3.948 3.948 0 0 0 3.169-1.566v1.386H75.8v-9h-1.551v1.386a3.948 3.948 0 0 0-3.169-1.566 4.505 4.505 0 0 0-4.412 4.678zm7.706 0a3.075 3.075 0 1 1-3.061-3.259 3.074 3.074 0 0 1 3.069 3.258zm5.236 4.5h1.549v-4.465c0-2.107 1.152-3.3 2.611-3.3a2.161 2.161 0 0 1 2.125 2.449v5.311h1.531v-5.546a3.318 3.318 0 0 0-3.4-3.637 3.184 3.184 0 0 0-2.863 1.566v-1.381H79.61v9zm24.1 0h1.369l3.061-9h-1.639l-2.178 6.572-2.251-6.572h-1.188l-2.251 6.572-2.179-6.572h-1.62l3.061 9h1.368l2.233-6.482zm15.661-4.5a4.709 4.709 0 1 0-4.7 4.681 4.62 4.62 0 0 0 4.711-4.682zm-7.833 0a3.126 3.126 0 1 1 3.133 3.241 3.095 3.095 0 0 1-3.122-3.242zm19.64 0a4.708 4.708 0 1 0-4.7 4.681 4.62 4.62 0 0 0 4.711-4.682zm-7.832 0a3.126 3.126 0 1 1 3.133 3.241 3.094 3.094 0 0 1-3.122-3.242zm10.944 4.5h1.548v-13.5h-1.548v13.5zm7.308-.4a1.539 1.539 0 0 0 .252-.81 1.333 1.333 0 1 0-2.665 0 1.34 1.34 0 0 0 .738 1.206l-1.206 2.575h1.026zm10.422-.99a3.947 3.947 0 0 0 3.169 1.566 4.69 4.69 0 0 0 0-9.363 3.947 3.947 0 0 0-3.169 1.566v-5.883h-1.549v13.5h1.549v-1.386zm6-3.115a3.067 3.067 0 1 1-3.061-3.259 3.074 3.074 0 0 1 3.067 3.263zm6.659 3.3a1.333 1.333 0 1 0-1.333 1.35 1.358 1.358 0 0 0 1.339-1.351zm16.291-.288H174.6c.306-1.477 1.8-2.215 3.277-3.3 2.089-1.513 2.953-2.593 2.953-4.466a3.631 3.631 0 0 0-3.943-3.745 3.972 3.972 0 0 0-4.213 4.033h1.584a2.469 2.469 0 0 1 2.647-2.521 2.162 2.162 0 0 1 2.341 2.215c0 1.495-.793 2.161-2.269 3.259-1.891 1.405-4.285 2.665-4.285 5.4v.612h8.282v-1.494zm11.916-3.133v-3.566a4.536 4.536 0 1 0-9.056 0v3.565a4.536 4.536 0 1 0 9.062 0zm-7.508 0v-3.566c0-2.071 1.242-3.295 2.971-3.295 1.747 0 2.989 1.224 2.989 3.295v3.565c0 2.07-1.242 3.3-2.989 3.3-1.723-.005-2.965-1.23-2.965-3.3zm12.06 4.627h1.548V94.087h-2.749l-1.26 1.53h2.467v11.253zm14.276-4.627v-3.566a4.537 4.537 0 1 0-9.057 0v3.565a4.537 4.537 0 1 0 9.063 0zm-7.508 0v-3.566c0-2.071 1.242-3.295 2.971-3.295 1.746 0 2.989 1.224 2.989 3.295v3.565c0 2.07-1.243 3.3-2.989 3.3-1.723-.005-2.965-1.23-2.965-3.3zM30.841 154.871h4.066c2.3 0 3.81-1.424 3.81-3.313a2.707 2.707 0 0 0-1.969-2.721 2.577 2.577 0 0 0 1.216-2.321 3.112 3.112 0 0 0-3.393-3.009h-3.73v11.364zm1.489-6.483v-3.537h2.241a1.787 1.787 0 0 1 1.937 1.777 1.749 1.749 0 0 1-1.937 1.76H32.33zm0 5.139v-3.858h2.657c1.5 0 2.273.832 2.273 1.937 0 1.12-.768 1.921-2.289 1.921H32.33zm8.543-2.658a4.005 4.005 0 0 0 3.922 4.162 3.51 3.51 0 0 0 2.817-1.392v1.232h1.377v-8h-1.377v1.229a3.51 3.51 0 0 0-2.817-1.392 4 4 0 0 0-3.922 4.161zm6.851 0a2.734 2.734 0 1 1-2.721-2.9 2.733 2.733 0 0 1 2.721 2.9zm4.653 4h1.377V150.9c0-1.872 1.024-2.929 2.321-2.929a1.921 1.921 0 0 1 1.889 2.177v4.722h1.361v-4.93a2.949 2.949 0 0 0-3.025-3.233 2.83 2.83 0 0 0-2.545 1.392v-1.232h-1.378v8zm9.6-4a4.005 4.005 0 0 0 3.922 4.162 3.51 3.51 0 0 0 2.817-1.392v1.232h1.377v-8h-1.378v1.229a3.51 3.51 0 0 0-2.817-1.392 4 4 0 0 0-3.922 4.161zm6.851 0a2.734 2.734 0 1 1-2.721-2.9 2.733 2.733 0 0 1 2.72 2.9zm4.653 4h1.377V150.9c0-1.872 1.024-2.929 2.321-2.929a1.921 1.921 0 0 1 1.889 2.177v4.722h1.361v-4.93a2.949 2.949 0 0 0-3.025-3.233 2.83 2.83 0 0 0-2.545 1.392v-1.232h-1.378v8zm9.6-4A4.005 4.005 0 0 0 87 155.031a3.51 3.51 0 0 0 2.817-1.392v1.232H91.2v-8h-1.381v1.229A3.51 3.51 0 0 0 87 146.708a4 4 0 0 0-3.92 4.161zm6.851 0a2.734 2.734 0 1 1-2.721-2.9 2.733 2.733 0 0 1 2.72 2.9zm9.565 4h1.489V149.7h1.1l4.37 5.17h1.873l-4.37-5.186a2.965 2.965 0 0 0 2.8-3.041 3.065 3.065 0 0 0-3.393-3.137H99.5v11.364zm1.489-6.5v-3.489h2.209c1.3 0 2.08.608 2.08 1.761 0 1.136-.784 1.728-2.08 1.728h-2.209zm8.4 2.5a4.219 4.219 0 0 0 7.747 2.257l-1.089-.752a2.833 2.833 0 0 1-5.266-1.232h6.563a3.922 3.922 0 0 0 .016-.417 3.729 3.729 0 0 0-3.81-4.017 4.055 4.055 0 0 0-4.163 4.161zm4.113-2.945a2.4 2.4 0 0 1 2.449 2.1h-5.074a2.617 2.617 0 0 1 2.626-2.1zm6.607 10.292h1.376v-4.577a3.512 3.512 0 0 0 2.817 1.392 4.169 4.169 0 0 0 0-8.323 3.512 3.512 0 0 0-2.817 1.392v-1.232H120.1v11.348zm6.707-7.347a2.727 2.727 0 1 1-2.722-2.9 2.734 2.734 0 0 1 2.72 2.9zm4.077.913c0 1.985 1.184 3.249 2.945 3.249a2.754 2.754 0 0 0 2.465-1.392v1.232h1.376v-8H136.3v3.969c0 1.841-.977 2.93-2.225 2.93-1.1 0-1.809-.849-1.809-2.193v-4.706h-1.376v4.914zm11.552 1.857a3.51 3.51 0 0 0 2.817 1.392 4.169 4.169 0 0 0 0-8.323 3.51 3.51 0 0 0-2.817 1.392v-5.234h-1.376v12h1.376v-1.232zm5.33-2.77a2.726 2.726 0 1 1-2.721-2.9 2.733 2.733 0 0 1 2.719 2.9zm4.173 4h1.377v-12h-1.377v12zm6.449-11.124a.966.966 0 0 0-.96-.977.994.994 0 0 0-.993.977.984.984 0 0 0 .993.976.956.956 0 0 0 .958-.974zm-1.665 11.124h1.371v-8h-1.377v8zm12.051-1.985l-1.2-.672a2.714 2.714 0 0 1-2.5 1.537 2.883 2.883 0 0 1 0-5.763 2.714 2.714 0 0 1 2.5 1.537l1.2-.672a4.143 4.143 0 0 0-3.7-2.145 4.162 4.162 0 1 0 0 8.323 4.143 4.143 0 0 0 3.698-2.143zm7.277 1.985h1.376V150.9c0-1.872 1.025-2.929 2.321-2.929a1.921 1.921 0 0 1 1.889 2.177v4.722H183v-4.93a2.95 2.95 0 0 0-3.026-3.233 2.832 2.832 0 0 0-2.545 1.392v-5.234h-1.376v12zm9.6-4a4.005 4.005 0 0 0 3.922 4.162 3.509 3.509 0 0 0 2.817-1.392v1.232h1.377v-8h-1.377v1.229a3.509 3.509 0 0 0-2.817-1.392 4.005 4.005 0 0 0-3.925 4.161zm6.851 0a2.734 2.734 0 1 1-2.721-2.9 2.733 2.733 0 0 1 2.718 2.9zm9.84 1.777c0-1.2-.753-1.969-2.113-2.417l-.865-.288c-.944-.3-1.232-.608-1.232-1.12a1.132 1.132 0 0 1 1.344-.929 2.16 2.16 0 0 1 1.7.833l.9-.865a3.106 3.106 0 0 0-2.562-1.152c-1.584 0-2.7.88-2.7 2.177a2.417 2.417 0 0 0 1.985 2.321l.785.256c1.04.336 1.424.72 1.424 1.28a1.218 1.218 0 0 1-1.408 1.089 2.148 2.148 0 0 1-2.049-1.265l-1.121.608a3.179 3.179 0 0 0 3.138 1.857c1.602 0 2.771-.816 2.771-2.385zm6.845-1.777a4.005 4.005 0 0 0 3.922 4.162 3.512 3.512 0 0 0 2.817-1.392v1.232h1.376v-8h-1.376v1.229a3.512 3.512 0 0 0-2.817-1.392 4.005 4.005 0 0 0-3.925 4.161zm6.851 0a2.734 2.734 0 1 1-2.721-2.9 2.733 2.733 0 0 1 2.718 2.9zm4.653 4h1.377V150.9c0-1.872 1.024-2.929 2.321-2.929a1.921 1.921 0 0 1 1.888 2.177v4.722h1.361v-4.93a2.949 2.949 0 0 0-3.025-3.233 2.829 2.829 0 0 0-2.545 1.392v-1.232h-1.377v8zm14.816-3.089c0 1.985 1.184 3.249 2.945 3.249a2.754 2.754 0 0 0 2.465-1.392v1.232h1.377v-8h-1.38v3.969c0 1.841-.977 2.93-2.225 2.93-1.1 0-1.809-.849-1.809-2.193v-4.706h-1.376v4.914zm10.176 3.089h1.376V150.9c0-1.872 1.025-2.929 2.321-2.929a1.921 1.921 0 0 1 1.889 2.177v4.722h1.36v-4.93a2.949 2.949 0 0 0-3.025-3.233 2.831 2.831 0 0 0-2.545 1.392v-1.232h-1.376v8zm16.994 0h1.217l2.721-8h-1.457l-1.937 5.842-2-5.842h-1.057l-2 5.842-1.936-5.842h-1.441l2.721 8h1.217l1.984-5.762zm5.565-4a4.005 4.005 0 0 0 3.922 4.162 3.51 3.51 0 0 0 2.817-1.392v1.232h1.376v-8h-1.376v1.229a3.51 3.51 0 0 0-2.817-1.392 4.005 4.005 0 0 0-3.925 4.161zm6.851 0a2.734 2.734 0 1 1-2.721-2.9 2.733 2.733 0 0 1 2.722 2.9zm7.15 4h1.151l3.7-8h-1.54l-2.738 6.05-2.737-6.05h-1.536zm6.239-4a4.219 4.219 0 0 0 7.747 2.257l-1.088-.752a2.833 2.833 0 0 1-5.266-1.232h6.562a3.922 3.922 0 0 0 .016-.417 3.729 3.729 0 0 0-3.809-4.017 4.056 4.056 0 0 0-4.165 4.161zm4.114-2.945a2.4 2.4 0 0 1 2.449 2.1h-5.074a2.616 2.616 0 0 1 2.623-2.1zm6.606 6.947h1.377V150.9c0-1.872 1.1-2.753 2.113-2.753a2.011 2.011 0 0 1 .752.128v-1.424a2.851 2.851 0 0 0-.624-.064 2.38 2.38 0 0 0-2.241 1.632v-1.552h-1.377v8zm8.321-11.124a.967.967 0 0 0-.961-.977.994.994 0 0 0-.992.977.983.983 0 0 0 .992.976.957.957 0 0 0 .958-.976zm-1.665 11.124h1.377v-8h-1.377v8zm4.784 0h1.377V150.9c0-1.872 1.024-2.929 2.32-2.929a1.921 1.921 0 0 1 1.889 2.177v4.722h1.361v-4.93a2.949 2.949 0 0 0-3.025-3.233 2.829 2.829 0 0 0-2.545 1.392v-1.232h-1.377v8zm17.683-.464v-7.539h-1.377v1.232a3.4 3.4 0 0 0-2.785-1.392 4.077 4.077 0 0 0 0 8.147 3.417 3.417 0 0 0 2.785-1.408v.912a2.558 2.558 0 0 1-2.673 2.769 3.422 3.422 0 0 1-2.8-1.345l-.96.961a4.751 4.751 0 0 0 3.777 1.633 3.705 3.705 0 0 0 4.03-3.97zm-6.675-3.634a2.707 2.707 0 1 1 2.7 2.8 2.667 2.667 0 0 1-2.703-2.8zm22.034 2.113l-1.2-.672a2.714 2.714 0 0 1-2.5 1.537 2.883 2.883 0 0 1 0-5.763 2.714 2.714 0 0 1 2.5 1.537l1.2-.672a4.162 4.162 0 1 0-.003 4.033zm10.3-2.017a4.186 4.186 0 1 0-4.177 4.162 4.107 4.107 0 0 0 4.178-4.162zm-6.962 0a2.779 2.779 0 1 1 2.785 2.882 2.751 2.751 0 0 1-2.784-2.882zm9.727 4h1.377V150.9c0-1.808.912-2.929 2.208-2.929 1.041 0 1.569.9 1.569 2.193v4.706h1.377v-3.97c0-1.808.9-2.929 2.193-2.929 1.04 0 1.584.9 1.584 2.193v4.706h1.377v-4.914c0-1.953-1.057-3.249-2.8-3.249a2.769 2.769 0 0 0-2.625 1.712 2.517 2.517 0 0 0-2.465-1.712 2.689 2.689 0 0 0-2.417 1.392v-1.232h-1.377v8zm14.96 0h1.376V150.9c0-1.808.913-2.929 2.209-2.929 1.041 0 1.569.9 1.569 2.193v4.706h1.377v-3.97c0-1.808.9-2.929 2.192-2.929 1.041 0 1.585.9 1.585 2.193v4.706h1.377v-4.914c0-1.953-1.057-3.249-2.8-3.249a2.771 2.771 0 0 0-2.626 1.712 2.515 2.515 0 0 0-2.465-1.712 2.692 2.692 0 0 0-2.417 1.392v-1.232h-1.376v8zm16.625-11.124a.967.967 0 0 0-.961-.977.994.994 0 0 0-.992.977.983.983 0 0 0 .992.976.957.957 0 0 0 .962-.974zm-1.665 11.124h1.376v-8h-1.376v8zm9.121-.112v-1.232a3.041 3.041 0 0 1-.976.16 1.153 1.153 0 0 1-1.328-1.361v-4.194h2.3v-1.264h-2.3v-2.225h-1.377v2.225h-1.7v1.264h1.7v4.37a2.252 2.252 0 0 0 2.449 2.449 3.828 3.828 0 0 0 1.236-.19zm2.559.112h1.376V150.9c0-1.808.913-2.929 2.209-2.929 1.041 0 1.569.9 1.569 2.193v4.706h1.376v-3.97c0-1.808.9-2.929 2.193-2.929 1.041 0 1.585.9 1.585 2.193v4.706h1.376v-4.914c0-1.953-1.056-3.249-2.8-3.249a2.77 2.77 0 0 0-2.625 1.712 2.515 2.515 0 0 0-2.465-1.712 2.691 2.691 0 0 0-2.417 1.392v-1.232h-1.376v8zm14.335-4a4.219 4.219 0 0 0 7.747 2.257l-1.088-.752a2.833 2.833 0 0 1-5.266-1.232h6.563a3.922 3.922 0 0 0 .016-.417 3.729 3.729 0 0 0-3.81-4.017 4.056 4.056 0 0 0-4.161 4.161zm4.114-2.945a2.4 2.4 0 0 1 2.449 2.1h-5.073a2.617 2.617 0 0 1 2.625-2.1zm6.606 6.947h1.377V150.9c0-1.872 1.024-2.929 2.321-2.929a1.922 1.922 0 0 1 1.892 2.178v4.722h1.36v-4.93a2.949 2.949 0 0 0-3.025-3.233 2.831 2.831 0 0 0-2.545 1.392v-1.232h-1.377v8zm14.466-.112v-1.232a3.041 3.041 0 0 1-.976.16 1.153 1.153 0 0 1-1.329-1.361v-4.194h2.305v-1.264h-2.305v-2.225H434.2v2.225h-1.7v1.264h1.7v4.37a2.252 2.252 0 0 0 2.449 2.449 3.828 3.828 0 0 0 1.228-.192zm11.328 0v-1.232a3.041 3.041 0 0 1-.976.16 1.153 1.153 0 0 1-1.329-1.361v-4.194h2.305v-1.264H446.9v-2.225h-1.377v2.225h-1.7v1.264h1.7v4.37a2.253 2.253 0 0 0 2.449 2.449 3.83 3.83 0 0 0 1.233-.192zm10.177-3.89a4.186 4.186 0 1 0-4.177 4.162 4.107 4.107 0 0 0 4.178-4.162zm-6.962 0a2.779 2.779 0 1 1 2.785 2.882 2.751 2.751 0 0 1-2.784-2.882zm20.545 7.347h1.377v-11.348h-1.377v1.232a3.509 3.509 0 0 0-2.817-1.392 4.169 4.169 0 0 0 0 8.323 3.509 3.509 0 0 0 2.817-1.392v4.577zm.112-7.347a2.734 2.734 0 1 1-2.721-2.9 2.733 2.733 0 0 1 2.722 2.9zm4.542.913c0 1.985 1.184 3.249 2.945 3.249a2.754 2.754 0 0 0 2.465-1.392v1.232h1.376v-8h-1.376v3.969c0 1.841-.977 2.93-2.225 2.93-1.1 0-1.809-.849-1.809-2.193v-4.706h-1.376v4.914zm9.551-.913a4.005 4.005 0 0 0 3.922 4.162 3.51 3.51 0 0 0 2.817-1.392v1.232h1.377v-8h-1.377v1.229a3.51 3.51 0 0 0-2.817-1.392 4.005 4.005 0 0 0-3.921 4.161zm6.851 0a2.734 2.734 0 1 1-2.721-2.9 2.733 2.733 0 0 1 2.722 2.9zm4.653 4h1.377v-12h-1.377v12zm6.449-11.124a.966.966 0 0 0-.96-.977.994.994 0 0 0-.993.977.984.984 0 0 0 .993.976.956.956 0 0 0 .961-.974zm-1.665 11.124h1.377v-8h-1.377v8zm9.122-.112v-1.232a3.041 3.041 0 0 1-.976.16 1.153 1.153 0 0 1-1.329-1.361v-4.194h2.305v-1.264h-2.305v-2.225H508.9v2.225h-1.7v1.264h1.7v4.37a2.253 2.253 0 0 0 2.449 2.449 3.83 3.83 0 0 0 1.231-.19zm4.687 3.457l5.25-11.348h-1.536l-2.738 6.066-2.753-6.066h-1.52l3.5 7.587-1.745 3.761h1.537zm11.151-7.347a4.005 4.005 0 0 0 3.921 4.162 3.512 3.512 0 0 0 2.818-1.392v1.232h1.376v-8h-1.376v1.231a3.512 3.512 0 0 0-2.818-1.392 4 4 0 0 0-3.92 4.161zm6.851 0a2.734 2.734 0 1 1-2.721-2.9 2.733 2.733 0 0 1 2.722 2.902zm4.653 4h1.379V150.9c0-1.872 1.024-2.929 2.32-2.929a1.921 1.921 0 0 1 1.889 2.177v4.722h1.361v-4.93a2.949 2.949 0 0 0-3.025-3.233 2.829 2.829 0 0 0-2.545 1.393v-1.232h-1.377v8zm9.6-4a4 4 0 0 0 3.921 4.162 3.509 3.509 0 0 0 2.817-1.392v1.232h1.377v-12h-1.376v5.231a3.509 3.509 0 0 0-2.817-1.392 4 4 0 0 0-3.921 4.161zm6.85 0a2.734 2.734 0 1 1-2.721-2.9 2.733 2.733 0 0 1 2.722 2.902zM573 152.886l-1.2-.672a2.714 2.714 0 0 1-2.5 1.537 2.883 2.883 0 0 1 0-5.763 2.714 2.714 0 0 1 2.5 1.537l1.2-.672a4.162 4.162 0 1 0 0 4.033zm2.573 1.985h1.377V150.9c0-1.872 1.1-2.753 2.113-2.753a2.011 2.011 0 0 1 .752.128v-1.424a2.851 2.851 0 0 0-.624-.064 2.38 2.38 0 0 0-2.241 1.632v-1.552h-1.377v8zm5.76-4a4.005 4.005 0 0 0 3.922 4.162 3.51 3.51 0 0 0 2.817-1.392v1.232h1.376v-8h-1.376v1.227a3.51 3.51 0 0 0-2.817-1.392 4.005 4.005 0 0 0-3.926 4.161zm6.851 0a2.734 2.734 0 1 1-2.721-2.9 2.733 2.733 0 0 1 2.717 2.898zm5.325 4h1.377v-6.739H597v-1.264h-2.113V145.4a1.152 1.152 0 0 1 1.328-1.36 3.223 3.223 0 0 1 .993.16v-1.217a3.638 3.638 0 0 0-1.249-.208 2.253 2.253 0 0 0-2.449 2.449v1.649h-1.7v1.264h1.7v6.739zm9.588-.112v-1.232a3.144 3.144 0 0 1-.992.16 1.153 1.153 0 0 1-1.329-1.361v-4.194h2.321v-1.264h-2.321v-2.225H599.4v2.225h-1.5v1.264h1.5v4.37a2.264 2.264 0 0 0 2.465 2.449 3.982 3.982 0 0 0 1.228-.192zm7.742-2.113c0-1.2-.752-1.969-2.113-2.417l-.864-.288c-.945-.3-1.233-.608-1.233-1.12a1.133 1.133 0 0 1 1.345-.929 2.163 2.163 0 0 1 1.7.833l.9-.865a3.1 3.1 0 0 0-2.574-1.152c-1.585 0-2.7.88-2.7 2.177a2.416 2.416 0 0 0 1.985 2.321l.784.256c1.04.336 1.424.72 1.424 1.28a1.218 1.218 0 0 1-1.408 1.089 2.148 2.148 0 0 1-2.049-1.265l-1.12.608a3.177 3.177 0 0 0 3.137 1.857c1.614 0 2.782-.816 2.782-2.385zm2.766 2.225h1.376V150.9c0-1.808.913-2.929 2.209-2.929 1.041 0 1.569.9 1.569 2.193v4.706h1.376v-3.97c0-1.808.9-2.929 2.193-2.929 1.041 0 1.585.9 1.585 2.193v4.706h1.377v-4.914c0-1.953-1.057-3.249-2.8-3.249a2.771 2.771 0 0 0-2.625 1.712 2.515 2.515 0 0 0-2.465-1.712 2.692 2.692 0 0 0-2.417 1.392v-1.232H613.6v8zm14.335-4a4.005 4.005 0 0 0 3.922 4.162 3.509 3.509 0 0 0 2.817-1.392v1.232h1.377v-8h-1.377v1.227a3.509 3.509 0 0 0-2.817-1.392 4.005 4.005 0 0 0-3.926 4.161zm6.851 0a2.734 2.734 0 1 1-2.721-2.9 2.733 2.733 0 0 1 2.717 2.898zm4.654 4h1.376V150.9c0-1.872 1.025-2.929 2.321-2.929a1.921 1.921 0 0 1 1.889 2.177v4.722h1.36v-4.93a2.949 2.949 0 0 0-3.025-3.233 2.831 2.831 0 0 0-2.545 1.392v-1.232h-1.376v8zm15.409-2.225c0-1.2-.752-1.969-2.112-2.417l-.865-.288c-.944-.3-1.232-.608-1.232-1.12a1.132 1.132 0 0 1 1.344-.929 2.16 2.16 0 0 1 1.7.833l.9-.865a3.1 3.1 0 0 0-2.561-1.152c-1.584 0-2.705.88-2.705 2.177a2.416 2.416 0 0 0 1.985 2.321l.784.256c1.041.336 1.425.72 1.425 1.28a1.218 1.218 0 0 1-1.409 1.089 2.15 2.15 0 0 1-2.049-1.265l-1.12.608a3.178 3.178 0 0 0 3.137 1.857c1.606 0 2.774-.816 2.774-2.385zm2.766 2.225h1.377V150.9c0-1.872 1.024-2.929 2.321-2.929a1.921 1.921 0 0 1 1.888 2.177v4.722h1.361v-4.93a2.949 2.949 0 0 0-3.025-3.233 2.829 2.829 0 0 0-2.545 1.392v-5.234h-1.377v12zm11.889-11.124a.967.967 0 0 0-.961-.977.994.994 0 0 0-.992.977.983.983 0 0 0 .992.976.957.957 0 0 0 .957-.976zm-1.665 11.124h1.377v-8h-1.381v8zm4.784 3.345H674v-4.577a3.509 3.509 0 0 0 2.817 1.392 4.169 4.169 0 0 0 0-8.323A3.509 3.509 0 0 0 674 148.1v-1.232h-1.377v11.348zm6.707-7.347a2.727 2.727 0 1 1-2.721-2.9 2.733 2.733 0 0 1 2.717 2.9zm5.934 2.93a1.185 1.185 0 1 0-1.185 1.2 1.206 1.206 0 0 0 1.181-1.199zM30.841 174.871h1.489v-11.364h-1.489v11.364zm5.056 0h1.377V170.9c0-1.872 1.024-2.929 2.321-2.929a1.921 1.921 0 0 1 1.889 2.177v4.722h1.361v-4.93a2.949 2.949 0 0 0-3.025-3.233 2.83 2.83 0 0 0-2.545 1.392v-1.232H35.9v8zm15.41-2.225c0-1.2-.752-1.969-2.113-2.417l-.864-.288c-.944-.3-1.233-.608-1.233-1.12a1.133 1.133 0 0 1 1.345-.929 2.161 2.161 0 0 1 1.7.833l.9-.865a3.1 3.1 0 0 0-2.561-1.152c-1.585 0-2.705.88-2.705 2.177a2.416 2.416 0 0 0 1.985 2.321l.784.256c1.04.336 1.425.72 1.425 1.28a1.218 1.218 0 0 1-1.409 1.089 2.149 2.149 0 0 1-2.049-1.265l-1.12.608a3.178 3.178 0 0 0 3.137 1.857c1.609 0 2.778-.816 2.778-2.385zm2.766 5.57h1.377v-4.577a3.51 3.51 0 0 0 2.817 1.392 4.169 4.169 0 0 0 0-8.323 3.51 3.51 0 0 0-2.817 1.392v-1.232h-1.377v11.348zm6.707-7.347a2.726 2.726 0 1 1-2.721-2.9 2.733 2.733 0 0 1 2.72 2.9zm5.854-7.122a.967.967 0 0 0-.96-.977.994.994 0 0 0-.992.977.984.984 0 0 0 .992.976.957.957 0 0 0 .959-.976zm-1.665 11.124h1.377v-8h-1.377v8zm4.784 0h1.377V170.9c0-1.872 1.1-2.753 2.113-2.753a2.013 2.013 0 0 1 .752.128v-1.424a2.853 2.853 0 0 0-.624-.064 2.381 2.381 0 0 0-2.241 1.632v-1.552h-1.378v8zm5.744-4a4.219 4.219 0 0 0 7.747 2.257l-1.088-.752a2.833 2.833 0 0 1-5.266-1.232h6.563a3.922 3.922 0 0 0 .016-.417 3.729 3.729 0 0 0-3.809-4.017 4.056 4.056 0 0 0-4.16 4.159zm4.114-2.945a2.4 2.4 0 0 1 2.449 2.1h-5.075a2.617 2.617 0 0 1 2.625-2.102zm5.982 2.945a4.005 4.005 0 0 0 3.922 4.162 3.51 3.51 0 0 0 2.817-1.392v1.232h1.377v-12h-1.378v5.227a3.51 3.51 0 0 0-2.817-1.392 4 4 0 0 0-3.922 4.161zm6.851 0a2.734 2.734 0 1 1-2.721-2.9 2.733 2.733 0 0 1 2.72 2.898zm10.734 2.77a3.509 3.509 0 0 0 2.817 1.392 4.169 4.169 0 0 0 0-8.323 3.509 3.509 0 0 0-2.817 1.392v-5.234H101.8v12h1.377v-1.232zm5.33-2.77a2.726 2.726 0 1 1-2.721-2.9 2.733 2.733 0 0 1 2.72 2.898zm6.142 7.347l5.25-11.348h-1.537l-2.737 6.066-2.753-6.066h-1.52l3.5 7.587-1.745 3.761h1.537zm15.841-3.457v-1.232a3.048 3.048 0 0 1-.977.16 1.153 1.153 0 0 1-1.328-1.361v-4.194h2.305v-1.264h-2.305v-2.225h-1.377v2.225h-1.7v1.264h1.7v4.37a2.253 2.253 0 0 0 2.449 2.449 3.835 3.835 0 0 0 1.232-.194zm2.558.112h1.376V170.9c0-1.872 1.025-2.929 2.321-2.929a1.921 1.921 0 0 1 1.889 2.177v4.722H140v-4.93a2.949 2.949 0 0 0-3.025-3.233 2.832 2.832 0 0 0-2.546 1.392v-5.234h-1.376v12zm9.6-4a4.219 4.219 0 0 0 7.747 2.257l-1.089-.752a2.833 2.833 0 0 1-5.266-1.232h6.559a3.922 3.922 0 0 0 .016-.417 3.729 3.729 0 0 0-3.81-4.017 4.055 4.055 0 0 0-4.158 4.157zm4.113-2.945a2.4 2.4 0 0 1 2.449 2.1h-5.074a2.617 2.617 0 0 1 2.624-2.104zm15.376 6.835v-1.232a3.041 3.041 0 0 1-.976.16 1.153 1.153 0 0 1-1.329-1.361v-4.194h2.305v-1.264h-2.305v-2.225h-1.376v2.225h-1.7v1.264h1.7v4.37a2.252 2.252 0 0 0 2.449 2.449 3.828 3.828 0 0 0 1.231-.196zm2.558.112h1.377V170.9c0-1.872 1.1-2.753 2.113-2.753a2.011 2.011 0 0 1 .752.128v-1.424a2.851 2.851 0 0 0-.624-.064 2.381 2.381 0 0 0-2.241 1.632v-1.552H164.7v8zm5.76-4a4.005 4.005 0 0 0 3.922 4.162 3.51 3.51 0 0 0 2.817-1.392v1.232h1.376v-8h-1.376v1.223a3.51 3.51 0 0 0-2.817-1.392 4.005 4.005 0 0 0-3.923 4.161zm6.851 0a2.734 2.734 0 1 1-2.721-2.9 2.733 2.733 0 0 1 2.72 2.894zm4.029 0a4.005 4.005 0 0 0 3.922 4.162 3.51 3.51 0 0 0 2.817-1.392v1.232h1.376v-12h-1.376v5.223a3.51 3.51 0 0 0-2.817-1.392 4.005 4.005 0 0 0-3.923 4.161zm6.851 0a2.734 2.734 0 1 1-2.721-2.9 2.733 2.733 0 0 1 2.72 2.894zm6.318-7.122a.967.967 0 0 0-.961-.977.994.994 0 0 0-.992.977.983.983 0 0 0 .992.976.957.957 0 0 0 .956-.982zm-1.665 11.124h1.377v-8h-1.377v8zm9.122-.112v-1.232a3.048 3.048 0 0 1-.977.16 1.153 1.153 0 0 1-1.328-1.361v-4.194h2.305v-1.264h-2.305v-2.225h-1.377v2.225h-1.7v1.264h1.7v4.37a2.253 2.253 0 0 0 2.449 2.449 3.835 3.835 0 0 0 1.232-.198zm4.223-11.012a.967.967 0 0 0-.961-.977.994.994 0 0 0-.992.977.983.983 0 0 0 .992.976.957.957 0 0 0 .96-.982zm-1.665 11.124h1.38v-8h-1.376v8zm12.515-4a4.186 4.186 0 1 0-4.178 4.162 4.107 4.107 0 0 0 4.177-4.17zm-6.963 0a2.779 2.779 0 1 1 2.785 2.882 2.751 2.751 0 0 1-2.786-2.89zm9.728 4h1.376V170.9c0-1.872 1.025-2.929 2.321-2.929a1.921 1.921 0 0 1 1.889 2.177v4.722h1.36v-4.93a2.949 2.949 0 0 0-3.025-3.233 2.831 2.831 0 0 0-2.545 1.392v-1.232H219.8v8zm15.41-2.225c0-1.2-.753-1.969-2.113-2.417l-.865-.288c-.944-.3-1.232-.608-1.232-1.12a1.132 1.132 0 0 1 1.344-.929 2.16 2.16 0 0 1 1.7.833l.9-.865a3.1 3.1 0 0 0-2.561-1.152c-1.584 0-2.705.88-2.705 2.177a2.417 2.417 0 0 0 1.985 2.321l.784.256c1.041.336 1.425.72 1.425 1.28a1.218 1.218 0 0 1-1.409 1.089 2.148 2.148 0 0 1-2.048-1.265l-1.121.608a3.178 3.178 0 0 0 3.137 1.857c1.609-.006 2.778-.822 2.778-2.391zm15.2-1.777a4.186 4.186 0 1 0-4.177 4.162 4.107 4.107 0 0 0 4.176-4.168zm-6.963 0a2.779 2.779 0 1 1 2.786 2.882 2.752 2.752 0 0 1-2.787-2.888zm10.272 4h1.381v-6.739h2.321v-1.264H255.1V165.4a1.152 1.152 0 0 1 1.328-1.36 3.228 3.228 0 0 1 .993.16v-1.217a3.642 3.642 0 0 0-1.249-.208 2.286 2.286 0 0 0-2.449 2.481v1.617h-1.7v1.264h1.7v6.739zm9.568-1.857a4.386 4.386 0 0 0 3.985 2.049c2.113 0 3.618-1.216 3.618-3.153 0-1.681-.961-2.641-2.641-3.281l-1.377-.529c-1.152-.432-1.713-.864-1.713-1.824a1.81 1.81 0 0 1 2.049-1.569 2.812 2.812 0 0 1 2.257 1.12l1.088-.96a4.145 4.145 0 0 0-3.313-1.553c-2.033 0-3.553 1.169-3.553 3.026 0 1.552.8 2.481 2.577 3.137l1.5.576a2.066 2.066 0 0 1 1.633 1.921 1.846 1.846 0 0 1-2.1 1.7 3.177 3.177 0 0 1-2.817-1.553zm9.759-2.145a4.005 4.005 0 0 0 3.922 4.162 3.51 3.51 0 0 0 2.817-1.392v1.232h1.377v-8h-1.377v1.225a3.51 3.51 0 0 0-2.817-1.392 4.005 4.005 0 0 0-3.923 4.161zm6.851 0a2.734 2.734 0 1 1-2.721-2.9 2.733 2.733 0 0 1 2.724 2.896zm7.15 4h1.153l3.7-8h-1.54l-2.737 6.05-2.737-6.05h-1.537zm8.7-11.124a.966.966 0 0 0-.96-.977.994.994 0 0 0-.993.977.984.984 0 0 0 .993.976.956.956 0 0 0 .963-.978zm-1.665 11.124h1.377v-8h-1.377v8zm4.784 0h1.377v-12h-1.377v12zm4.16-4a4.219 4.219 0 0 0 7.747 2.257l-1.089-.752a2.833 2.833 0 0 1-5.266-1.232h6.563a3.922 3.922 0 0 0 .016-.417 3.729 3.729 0 0 0-3.81-4.017 4.055 4.055 0 0 0-4.158 4.157zm4.113-2.945a2.4 2.4 0 0 1 2.449 2.1h-5.074a2.618 2.618 0 0 1 2.628-2.104zm11.519 6.947h1.488V169.7h1.105l4.37 5.17h1.879l-4.369-5.186a2.966 2.966 0 0 0 2.8-3.041 3.066 3.066 0 0 0-3.394-3.137h-3.873v11.364zm1.488-6.5v-3.489h2.209c1.3 0 2.081.608 2.081 1.761 0 1.136-.784 1.728-2.081 1.728h-2.209zm16.755 2.5a4.186 4.186 0 1 0-4.178 4.162 4.107 4.107 0 0 0 4.177-4.168zm-6.963 0a2.779 2.779 0 1 1 2.785 2.882 2.751 2.751 0 0 1-2.782-2.888zm16.482 4h1.217l2.721-8H348.9l-1.937 5.842-2-5.842h-1.053l-2 5.842-1.936-5.842h-1.441l2.721 8h1.217l1.984-5.762zm7.326-.352a1.368 1.368 0 0 0 .224-.72 1.185 1.185 0 1 0-2.369 0 1.191 1.191 0 0 0 .656 1.072l-1.072 2.289h.915zm7.263-3.65a4.219 4.219 0 0 0 7.747 2.257l-1.088-.752a2.834 2.834 0 0 1-5.267-1.232h6.563a3.922 3.922 0 0 0 .016-.417 3.729 3.729 0 0 0-3.809-4.017 4.056 4.056 0 0 0-4.159 4.157zm4.114-2.945a2.394 2.394 0 0 1 2.448 2.1H362.5a2.618 2.618 0 0 1 2.626-2.104zm5.982 2.945a4 4 0 0 0 3.921 4.162 3.509 3.509 0 0 0 2.817-1.392v1.232h1.377v-8h-1.377v1.225a3.509 3.509 0 0 0-2.817-1.392 4 4 0 0 0-3.918 4.161zm6.851 0a2.734 2.734 0 1 1-2.722-2.9 2.734 2.734 0 0 1 2.725 2.896zm11.92 2.017l-1.2-.672a2.713 2.713 0 0 1-2.5 1.537 2.883 2.883 0 0 1 0-5.763 2.713 2.713 0 0 1 2.5 1.537l1.2-.672a4.145 4.145 0 0 0-3.7-2.145 4.162 4.162 0 1 0 0 8.323 4.145 4.145 0 0 0 3.703-2.149zm2.573 1.985h1.376V170.9c0-1.872 1.025-2.929 2.321-2.929a1.921 1.921 0 0 1 1.889 2.177v4.722h1.36v-4.93a2.949 2.949 0 0 0-3.025-3.233 2.831 2.831 0 0 0-2.545 1.392v-5.234h-1.376v12zm20.113-2.225c0-1.2-.752-1.969-2.113-2.417l-.864-.288c-.944-.3-1.232-.608-1.232-1.12a1.132 1.132 0 0 1 1.344-.929 2.161 2.161 0 0 1 1.7.833l.9-.865a3.1 3.1 0 0 0-2.561-1.152c-1.584 0-2.705.88-2.705 2.177a2.416 2.416 0 0 0 1.985 2.321l.784.256c1.041.336 1.425.72 1.425 1.28a1.218 1.218 0 0 1-1.409 1.089 2.15 2.15 0 0 1-2.049-1.265l-1.12.608a3.178 3.178 0 0 0 3.137 1.857c1.616-.004 2.781-.82 2.781-2.389zm2.654-.864c0 1.985 1.185 3.249 2.945 3.249a2.753 2.753 0 0 0 2.465-1.392v1.232h1.377v-8h-1.377v3.969c0 1.841-.976 2.93-2.225 2.93-1.1 0-1.808-.849-1.808-2.193v-4.706h-1.377v4.914zm11.841-8.035a.967.967 0 0 0-.961-.977.994.994 0 0 0-.992.977.983.983 0 0 0 .992.976.957.957 0 0 0 .964-.98zm-1.657 11.12h1.377v-8H425.4v8zm9.122-.112v-1.232a3.048 3.048 0 0 1-.977.16 1.153 1.153 0 0 1-1.328-1.361v-4.194h2.305v-1.264h-2.305v-2.225h-1.377v2.225h-1.7v1.264h1.7v4.37a2.253 2.253 0 0 0 2.449 2.449 3.835 3.835 0 0 0 1.228-.192zm8.926-11.012a.966.966 0 0 0-.96-.977.994.994 0 0 0-.992.977.983.983 0 0 0 .992.976.956.956 0 0 0 .955-.976zm-1.664 11.124h1.376v-8h-1.376v8zm9.97-2.225c0-1.2-.753-1.969-2.113-2.417l-.865-.288c-.944-.3-1.232-.608-1.232-1.12a1.132 1.132 0 0 1 1.344-.929 2.16 2.16 0 0 1 1.7.833l.9-.865a3.106 3.106 0 0 0-2.562-1.152c-1.584 0-2.705.88-2.705 2.177a2.417 2.417 0 0 0 1.985 2.321l.785.256c1.04.336 1.424.72 1.424 1.28a1.218 1.218 0 0 1-1.415 1.089 2.148 2.148 0 0 1-2.049-1.265l-1.121.608a3.179 3.179 0 0 0 3.138 1.857c1.612 0 2.781-.816 2.781-2.385zm6.845-1.777a4.005 4.005 0 0 0 3.922 4.162 3.512 3.512 0 0 0 2.817-1.392v1.232h1.376v-12h-1.376v5.229a3.512 3.512 0 0 0-2.817-1.392 4.005 4.005 0 0 0-3.927 4.161zm6.851 0a2.734 2.734 0 1 1-2.721-2.9 2.733 2.733 0 0 1 2.716 2.9zm4.029 0a4.219 4.219 0 0 0 7.747 2.257l-1.089-.752a2.833 2.833 0 0 1-5.266-1.232h6.563a3.922 3.922 0 0 0 .016-.417 3.729 3.729 0 0 0-3.81-4.017 4.056 4.056 0 0 0-4.166 4.161zm4.113-2.945a2.4 2.4 0 0 1 2.449 2.1h-5.074a2.618 2.618 0 0 1 2.62-2.1zm11.793 4.722c0-1.2-.752-1.969-2.113-2.417l-.864-.288c-.945-.3-1.233-.608-1.233-1.12a1.133 1.133 0 0 1 1.345-.929 2.163 2.163 0 0 1 1.7.833l.9-.865a3.1 3.1 0 0 0-2.561-1.152c-1.585 0-2.705.88-2.705 2.177a2.416 2.416 0 0 0 1.985 2.321l.784.256c1.04.336 1.424.72 1.424 1.28a1.218 1.218 0 0 1-1.408 1.089 2.149 2.149 0 0 1-2.049-1.265l-1.12.608a3.177 3.177 0 0 0 3.137 1.857c1.605 0 2.773-.816 2.773-2.385zm4.43-8.9a.966.966 0 0 0-.96-.977.994.994 0 0 0-.992.977.983.983 0 0 0 .992.976.956.956 0 0 0 .955-.975zm-1.664 11.124h1.376v-8h-1.376v8zm12.243-.464v-7.539h-1.377v1.233a3.4 3.4 0 0 0-2.785-1.392 4.077 4.077 0 0 0 0 8.147 3.417 3.417 0 0 0 2.785-1.408v.912a2.558 2.558 0 0 1-2.673 2.769 3.422 3.422 0 0 1-2.8-1.345l-.96.961a4.751 4.751 0 0 0 3.777 1.633 3.705 3.705 0 0 0 4.028-3.97zm-6.675-3.634a2.707 2.707 0 1 1 2.7 2.8 2.667 2.667 0 0 1-2.705-2.799zm10.064 4.1h1.376V170.9c0-1.872 1.024-2.929 2.321-2.929a1.922 1.922 0 0 1 1.889 2.177v4.722h1.36v-4.93a2.949 2.949 0 0 0-3.025-3.233 2.831 2.831 0 0 0-2.545 1.392v-1.232h-1.376v8zm9.6-4a4.219 4.219 0 0 0 7.747 2.257l-1.088-.752a2.833 2.833 0 0 1-5.266-1.232h6.562a3.922 3.922 0 0 0 .016-.417 3.728 3.728 0 0 0-3.809-4.017 4.056 4.056 0 0 0-4.168 4.158zm4.114-2.945a2.4 2.4 0 0 1 2.449 2.1h-5.074a2.616 2.616 0 0 1 2.619-2.103zm5.982 2.945a4.005 4.005 0 0 0 3.922 4.162 3.51 3.51 0 0 0 2.817-1.392v1.232h1.376v-12h-1.376v5.226a3.51 3.51 0 0 0-2.817-1.392 4.005 4.005 0 0 0-3.928 4.161zm6.851 0a2.734 2.734 0 1 1-2.721-2.9 2.733 2.733 0 0 1 2.715 2.897zm9.821 4h1.377v-6.739h2.321v-1.264h-2.321V165.4a1.152 1.152 0 0 1 1.329-1.36 3.222 3.222 0 0 1 .992.16v-1.217a3.638 3.638 0 0 0-1.249-.208 2.286 2.286 0 0 0-2.449 2.481v1.617h-1.7v1.264h1.7v6.739zm6 0h1.377V170.9c0-1.872 1.1-2.753 2.112-2.753a2.013 2.013 0 0 1 .753.128v-1.424a2.854 2.854 0 0 0-.625-.064 2.38 2.38 0 0 0-2.24 1.632v-1.552h-1.377v8zm14.1-4a4.186 4.186 0 1 0-4.177 4.162 4.107 4.107 0 0 0 4.17-4.165zm-6.963 0a2.779 2.779 0 1 1 2.786 2.882 2.752 2.752 0 0 1-2.793-2.885zm9.728 4h1.376V170.9c0-1.808.913-2.929 2.209-2.929 1.041 0 1.569.9 1.569 2.193v4.706h1.377v-3.97c0-1.808.9-2.929 2.192-2.929 1.041 0 1.585.9 1.585 2.193v4.706h1.377v-4.914c0-1.953-1.057-3.249-2.8-3.249a2.771 2.771 0 0 0-2.625 1.712 2.515 2.515 0 0 0-2.465-1.712 2.692 2.692 0 0 0-2.417 1.392v-1.232h-1.376v8zm23.729-.112v-1.232a3.041 3.041 0 0 1-.976.16 1.153 1.153 0 0 1-1.329-1.361v-4.194h2.305v-1.264h-2.305v-2.225h-1.376v2.225h-1.7v1.264h1.7v4.37a2.252 2.252 0 0 0 2.449 2.449 3.828 3.828 0 0 0 1.225-.193zm2.559.112h1.376V170.9c0-1.872 1.025-2.929 2.321-2.929a1.922 1.922 0 0 1 1.889 2.177v4.722h1.36v-4.93a2.949 2.949 0 0 0-3.025-3.233 2.831 2.831 0 0 0-2.545 1.392v-5.234h-1.38v12zm9.6-4a4.219 4.219 0 0 0 7.747 2.257l-1.088-.752a2.833 2.833 0 0 1-5.266-1.232h6.562a3.922 3.922 0 0 0 .016-.417 3.728 3.728 0 0 0-3.809-4.017 4.056 4.056 0 0 0-4.166 4.158zm4.114-2.945a2.4 2.4 0 0 1 2.449 2.1h-5.074a2.616 2.616 0 0 1 2.617-2.103zm12.975-4.177a.967.967 0 0 0-.961-.977.994.994 0 0 0-.992.977.983.983 0 0 0 .992.976.957.957 0 0 0 .953-.979zm-1.665 11.124h1.372v-8h-1.38v8zm4.784 0h1.377V170.9c0-1.872 1.024-2.929 2.32-2.929a1.921 1.921 0 0 1 1.889 2.177v4.722h1.361v-4.93a2.949 2.949 0 0 0-3.025-3.233 2.829 2.829 0 0 0-2.545 1.392v-1.232H619.1v8zm15.41-2.225c0-1.2-.752-1.969-2.113-2.417l-.864-.288c-.945-.3-1.233-.608-1.233-1.12a1.133 1.133 0 0 1 1.345-.929 2.159 2.159 0 0 1 1.7.833l.9-.865a3.1 3.1 0 0 0-2.561-1.152c-1.585 0-2.705.88-2.705 2.177a2.416 2.416 0 0 0 1.984 2.321l.785.256c1.04.336 1.424.72 1.424 1.28a1.218 1.218 0 0 1-1.408 1.089 2.148 2.148 0 0 1-2.049-1.265l-1.12.608a3.177 3.177 0 0 0 3.137 1.857c1.601-.003 2.77-.819 2.77-2.388zm4.43-8.9a.966.966 0 0 0-.96-.977.994.994 0 0 0-.992.977.983.983 0 0 0 .992.976.956.956 0 0 0 .952-.978zm-1.664 11.124h1.376v-8h-1.384v8zm4.159-4a4.005 4.005 0 0 0 3.922 4.162 3.51 3.51 0 0 0 2.817-1.392v1.232h1.377v-12h-1.377v5.225a3.51 3.51 0 0 0-2.817-1.392 4.005 4.005 0 0 0-3.93 4.161zm6.851 0a2.734 2.734 0 1 1-2.721-2.9 2.733 2.733 0 0 1 2.713 2.896zm4.029 0a4.219 4.219 0 0 0 7.747 2.257l-1.088-.752a2.833 2.833 0 0 1-5.266-1.232h6.562a3.922 3.922 0 0 0 .016-.417 3.728 3.728 0 0 0-3.809-4.017 4.056 4.056 0 0 0-4.17 4.157zm4.114-2.945a2.4 2.4 0 0 1 2.449 2.1h-5.074a2.616 2.616 0 0 1 2.617-2.104zM38.364 190.869a4.186 4.186 0 1 0-4.178 4.162 4.107 4.107 0 0 0 4.178-4.162zm-6.963 0a2.779 2.779 0 1 1 2.785 2.882 2.751 2.751 0 0 1-2.786-2.882zm9.616.913c0 1.985 1.185 3.249 2.945 3.249a2.754 2.754 0 0 0 2.465-1.392v1.232H47.8v-8h-1.373v3.969c0 1.841-.976 2.93-2.225 2.93-1.1 0-1.809-.849-1.809-2.193v-4.706h-1.376v4.914zm14.514 2.977v-1.232a3.044 3.044 0 0 1-.976.16 1.153 1.153 0 0 1-1.328-1.361v-4.194h2.3v-1.264h-2.3v-2.225h-1.378v2.225h-1.7v1.264h1.7v4.37a2.253 2.253 0 0 0 2.449 2.449 3.831 3.831 0 0 0 1.233-.192zm4.271-.24a1.368 1.368 0 0 0 .224-.72 1.185 1.185 0 1 0-2.369 0 1.191 1.191 0 0 0 .656 1.072l-1.073 2.289h.912zm7.775-2.737c0 1.985 1.185 3.249 2.945 3.249a2.754 2.754 0 0 0 2.465-1.392v1.232h1.377v-8h-1.377v3.969c0 1.841-.976 2.93-2.225 2.93-1.1 0-1.809-.849-1.809-2.193v-4.706h-1.377v4.914zm15.362.864c0-1.2-.752-1.969-2.113-2.417l-.864-.288c-.944-.3-1.232-.608-1.232-1.12a1.133 1.133 0 0 1 1.344-.929 2.161 2.161 0 0 1 1.7.833l.9-.865a3.1 3.1 0 0 0-2.561-1.152c-1.585 0-2.705.88-2.705 2.177a2.416 2.416 0 0 0 1.985 2.321l.784.256c1.04.336 1.425.72 1.425 1.28a1.218 1.218 0 0 1-1.409 1.089 2.149 2.149 0 0 1-2.049-1.265l-1.12.608a3.178 3.178 0 0 0 3.137 1.857c1.609 0 2.778-.816 2.778-2.385zm4.43-8.9a.967.967 0 0 0-.96-.977.994.994 0 0 0-.992.977.984.984 0 0 0 .992.976.957.957 0 0 0 .96-.975zM85.7 194.871h1.377v-8H85.7v8zm4.784 0h1.377V190.9c0-1.872 1.024-2.929 2.321-2.929a1.921 1.921 0 0 1 1.889 2.177v4.722h1.361v-4.93a2.949 2.949 0 0 0-3.025-3.233 2.83 2.83 0 0 0-2.545 1.392v-1.232h-1.374v8zm17.683-.464v-7.539h-1.377v1.232a3.4 3.4 0 0 0-2.785-1.392 4.077 4.077 0 0 0 0 8.147 3.417 3.417 0 0 0 2.785-1.408v.912a2.558 2.558 0 0 1-2.673 2.769 3.422 3.422 0 0 1-2.8-1.345l-.96.961a4.752 4.752 0 0 0 3.777 1.633 3.705 3.705 0 0 0 4.037-3.97zm-6.675-3.634a2.707 2.707 0 1 1 2.7 2.8 2.667 2.667 0 0 1-2.692-2.8zm18.833 3.986v-1.232a3.041 3.041 0 0 1-.976.16 1.153 1.153 0 0 1-1.329-1.361v-4.194h2.3v-1.264h-2.3v-2.225h-1.376v2.225h-1.7v1.264h1.7v4.37a2.252 2.252 0 0 0 2.449 2.449 3.828 3.828 0 0 0 1.236-.192zm2.559.112h1.376V190.9c0-1.872 1.025-2.929 2.321-2.929a1.921 1.921 0 0 1 1.889 2.177v4.722h1.36v-4.93a2.949 2.949 0 0 0-3.025-3.233 2.831 2.831 0 0 0-2.545 1.392v-5.234h-1.376v12zm9.6-4a4.219 4.219 0 0 0 7.747 2.257l-1.088-.752a2.833 2.833 0 0 1-5.266-1.232h6.562a3.922 3.922 0 0 0 .016-.417 3.728 3.728 0 0 0-3.809-4.017 4.056 4.056 0 0 0-4.159 4.159zm4.114-2.945a2.4 2.4 0 0 1 2.449 2.1h-5.074a2.616 2.616 0 0 1 2.627-2.102zm11.775 6.947h1.376v-6.739h2.321v-1.264h-2.321v-1.47a1.152 1.152 0 0 1 1.329-1.36 3.222 3.222 0 0 1 .992.16v-1.217a3.636 3.636 0 0 0-1.248-.208 2.286 2.286 0 0 0-2.449 2.481v1.617h-1.7v1.264h1.7v6.739zm6.866-11.124a.966.966 0 0 0-.96-.977.994.994 0 0 0-.992.977.983.983 0 0 0 .992.976.956.956 0 0 0 .963-.978zm-1.664 11.124h1.376v-8h-1.376v8zm4.765 0h1.377V190.9c0-1.872 1.024-2.929 2.321-2.929a1.921 1.921 0 0 1 1.888 2.177v4.722h1.361v-4.93a2.949 2.949 0 0 0-3.025-3.233 2.829 2.829 0 0 0-2.545 1.392v-1.232h-1.377v8zm9.6-4a4.219 4.219 0 0 0 7.747 2.257l-1.089-.752a2.833 2.833 0 0 1-5.266-1.232h6.568a3.922 3.922 0 0 0 .016-.417 3.729 3.729 0 0 0-3.81-4.017 4.055 4.055 0 0 0-4.163 4.157zm4.113-2.945a2.4 2.4 0 0 1 2.449 2.1h-5.074a2.617 2.617 0 0 1 2.628-2.104zm11.793 4.722c0-1.2-.752-1.969-2.113-2.417l-.864-.288c-.945-.3-1.233-.608-1.233-1.12a1.133 1.133 0 0 1 1.345-.929 2.163 2.163 0 0 1 1.7.833l.9-.865a3.1 3.1 0 0 0-2.561-1.152c-1.585 0-2.7.88-2.7 2.177a2.416 2.416 0 0 0 1.985 2.321l.784.256c1.04.336 1.424.72 1.424 1.28a1.218 1.218 0 0 1-1.408 1.089 2.149 2.149 0 0 1-2.049-1.265l-1.12.608a3.177 3.177 0 0 0 3.137 1.857c1.608-.004 2.776-.82 2.776-2.389zm7.008 2.113v-1.232a3.052 3.052 0 0 1-.977.16 1.153 1.153 0 0 1-1.328-1.361v-4.194h2.305v-1.264h-2.305v-2.225h-1.377v2.225h-1.7v1.264h1.7v4.37a2.253 2.253 0 0 0 2.449 2.449 3.84 3.84 0 0 0 1.236-.196zm7.726.112h1.377v-6.739h2.321v-1.264h-2.318V185.4a1.152 1.152 0 0 1 1.328-1.36 3.233 3.233 0 0 1 .993.16v-1.217a3.646 3.646 0 0 0-1.249-.208 2.286 2.286 0 0 0-2.449 2.481v1.617h-1.7v1.264h1.7v6.739zm5.168-4a4 4 0 0 0 3.921 4.162 3.509 3.509 0 0 0 2.817-1.392v1.232h1.377v-8h-1.377v1.223a3.509 3.509 0 0 0-2.817-1.392 4 4 0 0 0-3.918 4.161zm6.85 0a2.734 2.734 0 1 1-2.721-2.9 2.733 2.733 0 0 1 2.723 2.894zm6.03 2.77a3.51 3.51 0 0 0 2.817 1.392 4.169 4.169 0 0 0 0-8.323 3.51 3.51 0 0 0-2.817 1.392v-5.234h-1.376v12h1.376v-1.232zm5.33-2.77a2.726 2.726 0 1 1-2.721-2.9 2.733 2.733 0 0 1 2.724 2.894zm4.174 4h1.376V190.9c0-1.872 1.105-2.753 2.113-2.753a2.011 2.011 0 0 1 .752.128v-1.424a2.851 2.851 0 0 0-.624-.064 2.381 2.381 0 0 0-2.241 1.632v-1.552h-1.376v8zm8.32-11.124a.966.966 0 0 0-.96-.977 1 1 0 0 0-.993.977.984.984 0 0 0 .993.976.956.956 0 0 0 .963-.98zm-1.664 11.124h1.376v-8h-1.376v8zm12.05-1.985l-1.2-.672a2.714 2.714 0 0 1-2.5 1.537 2.883 2.883 0 0 1 0-5.763 2.714 2.714 0 0 1 2.5 1.537l1.2-.672a4.162 4.162 0 1 0 .003 4.029zm7.759-.24c0-1.2-.752-1.969-2.113-2.417l-.864-.288c-.944-.3-1.232-.608-1.232-1.12a1.132 1.132 0 0 1 1.344-.929 2.161 2.161 0 0 1 1.7.833l.9-.865a3.1 3.1 0 0 0-2.561-1.152c-1.584 0-2.7.88-2.7 2.177a2.416 2.416 0 0 0 1.985 2.321l.784.256c1.041.336 1.425.72 1.425 1.28a1.219 1.219 0 0 1-1.409 1.089 2.149 2.149 0 0 1-2.049-1.265l-1.12.608a3.178 3.178 0 0 0 3.137 1.857c1.608-.004 2.776-.82 2.776-2.389zm4.479 1.873a1.368 1.368 0 0 0 .224-.72 1.185 1.185 0 1 0-2.369 0 1.191 1.191 0 0 0 .656 1.072l-1.072 2.289h.912zm9.263-.88a3.512 3.512 0 0 0 2.817 1.392 4.169 4.169 0 0 0 0-8.323 3.512 3.512 0 0 0-2.817 1.392v-5.234h-1.376v12h1.376v-1.232zm5.331-2.77a2.727 2.727 0 1 1-2.722-2.9 2.734 2.734 0 0 1 2.725 2.896zm3.548 0a4.219 4.219 0 0 0 7.747 2.257l-1.088-.752a2.833 2.833 0 0 1-5.266-1.232h6.563a3.922 3.922 0 0 0 .016-.417 3.729 3.729 0 0 0-3.81-4.017 4.056 4.056 0 0 0-4.159 4.157zm4.114-2.945a2.4 2.4 0 0 1 2.449 2.1h-5.071a2.617 2.617 0 0 1 2.625-2.104zm11.793 4.722c0-1.2-.753-1.969-2.113-2.417l-.865-.288c-.944-.3-1.232-.608-1.232-1.12a1.132 1.132 0 0 1 1.344-.929 2.16 2.16 0 0 1 1.7.833l.9-.865a3.1 3.1 0 0 0-2.561-1.152c-1.584 0-2.7.88-2.7 2.177a2.417 2.417 0 0 0 1.985 2.321l.784.256c1.041.336 1.425.72 1.425 1.28a1.218 1.218 0 0 1-1.408 1.089 2.148 2.148 0 0 1-2.049-1.265l-1.121.608a3.178 3.178 0 0 0 3.137 1.857c1.608-.004 2.777-.82 2.777-2.389zm7.007 2.113v-1.232a3.041 3.041 0 0 1-.976.16 1.153 1.153 0 0 1-1.329-1.361v-4.194h2.305v-1.264h-2.302v-2.225h-1.376v2.225h-1.7v1.264h1.7v4.37a2.252 2.252 0 0 0 2.449 2.449 3.828 3.828 0 0 0 1.232-.196zm7.727.112h1.376v-6.739h2.321v-1.264h-2.321V185.4a1.152 1.152 0 0 1 1.329-1.36 3.222 3.222 0 0 1 .992.16v-1.217a3.636 3.636 0 0 0-1.248-.208 2.286 2.286 0 0 0-2.449 2.481v1.617h-1.7v1.264h1.7v6.739zm6.866-11.124a.966.966 0 0 0-.96-.977.994.994 0 0 0-.992.977.983.983 0 0 0 .992.976.956.956 0 0 0 .963-.98zm-1.664 11.124h1.376v-8h-1.376v8zm9.1-.112v-1.232a3.041 3.041 0 0 1-.976.16 1.153 1.153 0 0 1-1.329-1.361v-4.194h2.3v-1.264h-2.3v-2.225h-1.376v2.225h-1.7v1.264h1.7v4.37a2.252 2.252 0 0 0 2.449 2.449 3.828 3.828 0 0 0 1.238-.196zm7.744-2.113c0-1.2-.752-1.969-2.113-2.417l-.864-.288c-.944-.3-1.232-.608-1.232-1.12a1.132 1.132 0 0 1 1.344-.929 2.161 2.161 0 0 1 1.7.833l.9-.865a3.1 3.1 0 0 0-2.561-1.152c-1.585 0-2.7.88-2.7 2.177a2.416 2.416 0 0 0 1.985 2.321l.784.256c1.041.336 1.425.72 1.425 1.28a1.219 1.219 0 0 1-1.409 1.089 2.149 2.149 0 0 1-2.049-1.265l-1.12.608a3.178 3.178 0 0 0 3.137 1.857c1.611-.004 2.779-.82 2.779-2.389zm6.846-1.777a4 4 0 0 0 3.921 4.162 3.509 3.509 0 0 0 2.817-1.392v1.232h1.377v-8H341.5v1.225a3.509 3.509 0 0 0-2.817-1.392 4 4 0 0 0-3.926 4.161zm6.85 0a2.734 2.734 0 1 1-2.721-2.9 2.733 2.733 0 0 1 2.727 2.896zm4.654 4h1.376V190.9c0-1.872 1.025-2.929 2.321-2.929a1.921 1.921 0 0 1 1.889 2.177v4.722h1.361v-4.93a2.95 2.95 0 0 0-3.026-3.233 2.831 2.831 0 0 0-2.545 1.392v-1.232h-1.376v8zm9.6-4a4.005 4.005 0 0 0 3.922 4.162 3.51 3.51 0 0 0 2.817-1.392v1.232h1.377v-12H362.6v5.225a3.51 3.51 0 0 0-2.817-1.392 4.005 4.005 0 0 0-3.923 4.161zm6.851 0a2.734 2.734 0 1 1-2.721-2.9 2.733 2.733 0 0 1 2.726 2.896zm10.734 2.77a3.509 3.509 0 0 0 2.817 1.392 4.169 4.169 0 0 0 0-8.323 3.509 3.509 0 0 0-2.817 1.392v-5.234h-1.377v12h1.377v-1.232zm5.33-2.77a2.726 2.726 0 1 1-2.721-2.9 2.733 2.733 0 0 1 2.726 2.896zm3.549 0a4.219 4.219 0 0 0 7.747 2.257l-1.089-.752a2.833 2.833 0 0 1-5.266-1.232h6.563a3.922 3.922 0 0 0 .016-.417 3.729 3.729 0 0 0-3.81-4.017 4.055 4.055 0 0 0-4.156 4.157zm4.113-2.945a2.4 2.4 0 0 1 2.449 2.1h-5.074a2.617 2.617 0 0 1 2.63-2.104zm11.793 4.722c0-1.2-.752-1.969-2.113-2.417l-.864-.288c-.945-.3-1.233-.608-1.233-1.12a1.133 1.133 0 0 1 1.345-.929 2.163 2.163 0 0 1 1.7.833l.9-.865a3.1 3.1 0 0 0-2.561-1.152c-1.585 0-2.7.88-2.7 2.177a2.416 2.416 0 0 0 1.985 2.321l.784.256c1.04.336 1.424.72 1.424 1.28a1.218 1.218 0 0 1-1.408 1.089 2.149 2.149 0 0 1-2.049-1.265l-1.12.608a3.177 3.177 0 0 0 3.137 1.857c1.61-.004 2.778-.82 2.778-2.389zm2.766 5.57h1.376v-4.577a3.512 3.512 0 0 0 2.817 1.392 4.169 4.169 0 0 0 0-8.323 3.512 3.512 0 0 0-2.817 1.392v-1.232H401v11.348zm6.706-7.347a2.726 2.726 0 1 1-2.721-2.9 2.733 2.733 0 0 1 2.724 2.896zm11.921 0a4.186 4.186 0 1 0-4.178 4.162 4.107 4.107 0 0 0 4.183-4.166zm-6.963 0a2.779 2.779 0 1 1 2.785 2.882 2.751 2.751 0 0 1-2.78-2.886zm9.728 4h1.376v-4l4.338 4h1.857l-4.818-4.466 3.937-3.537h-1.824l-3.49 3.121v-7.123h-1.376v12zm8.287-4a4.219 4.219 0 0 0 7.747 2.257l-1.088-.752a2.833 2.833 0 0 1-5.266-1.232h6.562a3.922 3.922 0 0 0 .016-.417 3.728 3.728 0 0 0-3.809-4.017 4.056 4.056 0 0 0-4.157 4.157zm4.114-2.945a2.4 2.4 0 0 1 2.449 2.1h-5.074a2.616 2.616 0 0 1 2.63-2.104zm6.35 3.154h4.082V189.7h-4.082v1.377zm7.232 3.793h1.377v-12h-1.377v12zm6.449-11.124a.967.967 0 0 0-.961-.977.994.994 0 0 0-.992.977.983.983 0 0 0 .992.976.957.957 0 0 0 .966-.98zm-1.665 11.124h1.376v-8h-1.376v8zm4.784 0h1.376v-4l4.338 4h1.857l-4.818-4.466 3.937-3.537H462.8l-3.49 3.121v-7.123h-1.376v12zm8.287-4a4.219 4.219 0 0 0 7.747 2.257l-1.088-.752a2.833 2.833 0 0 1-5.266-1.232h6.563a3.922 3.922 0 0 0 .016-.417 3.729 3.729 0 0 0-3.81-4.017 4.056 4.056 0 0 0-4.157 4.155zm4.114-2.945a2.4 2.4 0 0 1 2.449 2.1h-5.074a2.617 2.617 0 0 1 2.63-2.106zm10.686 2.945a4.005 4.005 0 0 0 3.922 4.162 3.51 3.51 0 0 0 2.817-1.392v1.232h1.376v-12h-1.376v5.223a3.51 3.51 0 0 0-2.817-1.392 4.005 4.005 0 0 0-3.917 4.161zm6.851 0a2.734 2.734 0 1 1-2.721-2.9 2.733 2.733 0 0 1 2.726 2.894zm4.029 0a4.219 4.219 0 0 0 7.747 2.257l-1.088-.752a2.834 2.834 0 0 1-5.267-1.232h6.563a3.922 3.922 0 0 0 .016-.417 3.729 3.729 0 0 0-3.809-4.017 4.056 4.056 0 0 0-4.157 4.155zm4.114-2.945a2.4 2.4 0 0 1 2.449 2.1h-5.075a2.618 2.618 0 0 1 2.631-2.106zm10.832 6.835v-1.232a3.041 3.041 0 0 1-.976.16 1.153 1.153 0 0 1-1.329-1.361v-4.194h2.3v-1.264h-2.3v-2.225h-1.372v2.225h-1.7v1.264h1.7v4.37a2.253 2.253 0 0 0 2.449 2.449 3.83 3.83 0 0 0 1.233-.198zm1.822-3.89a4.005 4.005 0 0 0 3.922 4.162 3.51 3.51 0 0 0 2.817-1.392v1.232h1.376v-8h-1.376v1.223a3.51 3.51 0 0 0-2.817-1.392 4.005 4.005 0 0 0-3.917 4.161zm6.851 0a2.734 2.734 0 1 1-2.721-2.9 2.733 2.733 0 0 1 2.726 2.894zm6.318-7.122a.967.967 0 0 0-.961-.977.994.994 0 0 0-.992.977.983.983 0 0 0 .992.976.957.957 0 0 0 .966-.982zm-1.665 11.124h1.377v-8h-1.377v8zm4.784 0h1.377v-12h-1.377v12zm9.97-2.225c0-1.2-.752-1.969-2.113-2.417l-.864-.288c-.945-.3-1.233-.608-1.233-1.12a1.133 1.133 0 0 1 1.345-.929 2.163 2.163 0 0 1 1.7.833l.9-.865a3.1 3.1 0 0 0-2.561-1.152c-1.585 0-2.705.88-2.705 2.177a2.416 2.416 0 0 0 1.985 2.321l.784.256c1.04.336 1.424.72 1.424 1.28a1.218 1.218 0 0 1-1.408 1.089 2.149 2.149 0 0 1-2.049-1.265l-1.12.608a3.177 3.177 0 0 0 3.137 1.857c1.615-.006 2.783-.822 2.783-2.391zm4.673 1.148a1.185 1.185 0 1 0-1.185 1.2 1.207 1.207 0 0 0 1.185-1.2z"/></svg>