<svg id="copy_copy_2" data-name="copy copy 2" xmlns="http://www.w3.org/2000/svg" width="720" height="261"><defs><style>.cls-2{fill-rule:evenodd}</style></defs><path id="Rectangle_106_copy_5" data-name="Rectangle 106 copy 5" d="M0 0h719.813l.171 261H.172z" fill-rule="evenodd" fill="#fff"/><g id="CTA_underline"><path d="M30 208h90v3H30z"/><path id="SHOP_now" data-name="SHOP now" class="cls-2" d="M33.395 203.2a3.12 3.12 0 0 0 3.422-3.065 3.049 3.049 0 0 0-2.277-2.967l-.674-.252c-1.011-.378-1.482-.616-1.482-1.148a.984.984 0 0 1 1.159-.756 2.1 2.1 0 0 1 1.657.826l1.4-1.54a3.923 3.923 0 0 0-3.085-1.371 3 3 0 0 0-3.3 3.065c0 1.358.862 2.323 2.412 2.869l.673.239c.957.336 1.334.686 1.334 1.19a.977.977 0 0 1-1.159.826 2.48 2.48 0 0 1-1.981-1.134l-1.644 1.442a4.141 4.141 0 0 0 3.545 1.776zm7.332-.168h2.142V199.1h3.853v3.933h2.142V193.1h-2.141v3.891h-3.854V193.1h-2.142v9.937zm16.993.168a5.14 5.14 0 1 0-4.945-5.136 5.055 5.055 0 0 0 4.945 5.136zm0-2.155a2.989 2.989 0 1 1 2.776-2.981 2.9 2.9 0 0 1-2.776 2.985zm15.471-4.545a3.319 3.319 0 0 0-3.368-3.4h-3.248v9.937h2.142v-3.149h1.1a3.308 3.308 0 0 0 3.374-3.388zm-2.075 0a1.282 1.282 0 0 1-1.32 1.3h-1.079v-2.6H69.8a1.274 1.274 0 0 1 1.316 1.3zm19.54 6.536V193.1H88.5v6.13l-4.648-6.13h-1.846v9.937h2.142v-6.144l4.662 6.144h1.846zm8.855.168a5.14 5.14 0 1 0-4.945-5.136 5.056 5.056 0 0 0 4.945 5.132zm0-2.155a2.989 2.989 0 1 1 2.775-2.981 2.9 2.9 0 0 1-2.775 2.981zm16.265 1.987h2.035l2.223-9.937h-2.29l-1.307 6.3-2.695-6.466-2.681 6.466-1.307-6.3h-2.291l2.21 9.937h2.034l2.035-4.87z"/></g><path id="Italian_Moleskin_Trucker_Jacket_Italian_moleskin_b._2018_Thi" data-name="Italian Moleskin Trucker Jacket Italian moleskin, b. 2018 Thi" class="cls-2" d="M31.586 50.871h4.77v-21.3h-4.77v21.3zm14.61 0H51V34.132h5.49v-4.56H40.766v4.56H46.2v16.739zm10.26 0h4.98l1.89-4.5h8.82l1.89 4.5h4.98l-9.12-21.3h-4.32zm8.61-8.64l2.67-6.42 2.67 6.42h-5.34zm17.67 8.64h13.59v-4.56h-8.82V29.572h-4.77v21.3zm18.06 0h4.77v-21.3H100.8v21.3zm8.49 0h4.979l1.89-4.5h8.82l1.89 4.5h4.98l-9.12-21.3h-4.32zm8.609-8.64l2.67-6.42 2.67 6.42H117.9zm36.93 8.64v-21.3h-4.8v13.14l-10.35-13.139h-4.109v21.3h4.769V37.7l10.38 13.17h4.11zm25.109-4.53l6.21-8.61v13.14h4.8v-21.3h-4.35l-6.66 9.18-6.659-9.18h-4.35v21.3h4.77V37.732zm26.82 4.89a11.01 11.01 0 1 0-11.009-11.01 11.036 11.036 0 0 0 11.009 11.01zm0-4.62a6.393 6.393 0 1 1 6.18-6.39 6.32 6.32 0 0 1-6.18 6.39zm15.81 4.26h13.589v-4.56h-8.819V29.572h-4.77v21.3zm18.06 0h13.5v-4.56h-8.73V42.5h6.93v-4.56h-6.93v-3.81h8.73v-4.56h-13.5v21.3zm24.989.36c4.5 0 7.59-2.7 7.62-6.57.03-3.21-1.98-5.25-5.07-6.36l-1.5-.54c-2.25-.81-3.3-1.32-3.3-2.46 0-1.11 1.29-1.62 2.58-1.62a4.738 4.738 0 0 1 3.69 1.77l3.12-3.3a8.888 8.888 0 0 0-6.87-2.94c-4.259 0-7.349 2.43-7.349 6.57 0 2.91 1.92 4.98 5.369 6.15l1.5.51c2.13.72 2.97 1.47 2.97 2.55 0 1.02-.99 1.77-2.58 1.77a5.569 5.569 0 0 1-4.409-2.43l-3.66 3.09a9.34 9.34 0 0 0 7.889 3.81zm12.42-.36h4.74v-9.54l8.67 9.54h6.119L287.453 39.8l8.4-10.229H290l-7.23 8.91v-8.91h-4.74v21.3zm22.5 0h4.77v-21.3h-4.77v21.3zm30.029 0v-21.3h-4.8v13.14l-10.349-13.139H311.3v21.3h4.77V37.7l10.379 13.17h4.11zm17.07 0h4.8V34.132h5.49v-4.56H342.2v4.56h5.429v16.739zm14.7 0h4.77v-8.79h.78l7.08 8.79h5.73l-7.53-9.39c2.7-.96 4.17-2.73 4.17-5.49a6.288 6.288 0 0 0-6.6-6.42h-8.4v21.3zm4.77-12.84v-4.08h3.06c1.41 0 2.43.75 2.43 2.04a2.156 2.156 0 0 1-2.43 2.04H367.1zm24.72 13.2a8.354 8.354 0 0 0 8.76-8.79V29.572h-4.77V42.5a3.992 3.992 0 1 1-7.98 0V29.572h-4.77v12.869a8.338 8.338 0 0 0 8.76 8.79zm24.33 0a11.01 11.01 0 0 0 9.959-5.82l-4.2-2.28a6.39 6.39 0 1 1 0-5.82l4.2-2.28a11.1 11.1 0 1 0-9.959 16.2zm14.25-.36h4.74v-9.54l8.669 9.54h6.12L439.822 39.8l8.4-10.229h-5.85l-7.229 8.91v-8.91H430.4v21.3zm22.5 0h13.5v-4.56h-8.729V42.5h6.927v-4.56h-6.929v-3.81h8.729v-4.56h-13.5v21.3zm18.63 0h4.77v-8.79h.78l7.079 8.79h5.73l-7.53-9.39c2.7-.96 4.17-2.73 4.17-5.49a6.288 6.288 0 0 0-6.6-6.42h-8.4v21.3zm4.77-12.84v-4.08h3.06c1.409 0 2.429.75 2.429 2.04a2.156 2.156 0 0 1-2.429 2.04H476.3zm28.56 13.2c3.659 0 6.959-1.83 6.959-6.18V29.572h-4.77v15.179a2.192 2.192 0 0 1-4.379-.12h-4.71c0 4.62 3.33 6.6 6.9 6.6zm10.05-.36h4.98l1.889-4.5h8.82l1.89 4.5h4.98l-9.12-21.3h-4.32zm8.609-8.64l2.67-6.42 2.67 6.42h-5.34zm26.52 9a11.01 11.01 0 0 0 9.96-5.82l-4.2-2.28a6.39 6.39 0 1 1 0-5.82l4.2-2.28a11.1 11.1 0 1 0-9.96 16.2zm14.251-.36h4.739v-9.54l8.67 9.54h6.12L573.711 39.8l8.4-10.229h-5.85l-7.23 8.91v-8.91h-4.739v21.3zm22.5 0h13.5v-4.56h-8.73V42.5h6.93v-4.56h-6.93v-3.81h8.73v-4.56h-13.5v21.3zm22.469 0h4.8V34.132h5.49v-4.56h-15.719v4.56h5.429v16.739zm-578.232 28H32.7V66.087h-1.671v12.784zm10.585-.126v-1.386a3.421 3.421 0 0 1-1.1.18 1.3 1.3 0 0 1-1.494-1.531v-4.717h2.593v-1.423h-2.591v-2.5h-1.549v2.5h-1.908v1.422h1.909v4.915a2.534 2.534 0 0 0 2.755 2.755 4.31 4.31 0 0 0 1.385-.215zm2.05-4.375a4.5 4.5 0 0 0 4.411 4.681 3.948 3.948 0 0 0 3.169-1.566v1.386h1.548v-9h-1.547v1.386a3.948 3.948 0 0 0-3.169-1.566 4.5 4.5 0 0 0-4.411 4.679zm7.706 0a3.075 3.075 0 1 1-3.061-3.259 3.074 3.074 0 0 1 3.062 3.259zm5.236 4.5h1.548v-13.5h-1.547v13.5zm7.254-12.514a1.087 1.087 0 0 0-1.08-1.1 1.118 1.118 0 0 0-1.116 1.1 1.107 1.107 0 0 0 1.116 1.1 1.076 1.076 0 0 0 1.081-1.099zm-1.871 12.515h1.548v-9h-1.548v9zm4.68-4.5a4.5 4.5 0 0 0 4.411 4.681 3.948 3.948 0 0 0 3.169-1.566v1.386H75.8v-9h-1.551v1.386a3.948 3.948 0 0 0-3.169-1.566 4.5 4.5 0 0 0-4.412 4.678zm7.706 0a3.075 3.075 0 1 1-3.061-3.259 3.074 3.074 0 0 1 3.061 3.258zm5.236 4.5h1.549v-4.465c0-2.107 1.152-3.3 2.611-3.3a2.161 2.161 0 0 1 2.125 2.449v5.312h1.531v-5.542a3.318 3.318 0 0 0-3.4-3.637 3.184 3.184 0 0 0-2.863 1.566v-1.386H79.61v9zm16.794 0h1.549v-4.465c0-2.035 1.026-3.3 2.484-3.3 1.171 0 1.765 1.008 1.765 2.467v5.294h1.548v-4.461c0-2.035 1.009-3.3 2.467-3.3 1.17 0 1.782 1.008 1.782 2.467v5.294h1.549v-5.524c0-2.2-1.188-3.655-3.151-3.655a3.116 3.116 0 0 0-2.953 1.927 2.83 2.83 0 0 0-2.773-1.927 3.026 3.026 0 0 0-2.719 1.566v-1.386H96.4v9zm25.527-4.5a4.709 4.709 0 1 0-4.7 4.681 4.62 4.62 0 0 0 4.699-4.682zm-7.833 0a3.126 3.126 0 1 1 3.133 3.241 3.095 3.095 0 0 1-3.132-3.242zm10.944 4.5h1.548v-13.5h-1.548v13.5zm4.679-4.5a4.746 4.746 0 0 0 8.715 2.539l-1.224-.846a3.188 3.188 0 0 1-5.924-1.386h7.382a4.393 4.393 0 0 0 .018-.468 4.2 4.2 0 0 0-4.285-4.519 4.562 4.562 0 0 0-4.683 4.679zm4.628-3.313a2.694 2.694 0 0 1 2.755 2.359H131.4a2.943 2.943 0 0 1 2.949-2.36zm13.266 5.312c0-1.35-.846-2.215-2.377-2.719l-.972-.324c-1.062-.342-1.386-.684-1.386-1.26a1.274 1.274 0 0 1 1.512-1.044 2.433 2.433 0 0 1 1.909.936l1.008-.972a3.491 3.491 0 0 0-2.881-1.3c-1.782 0-3.043.99-3.043 2.449a2.718 2.718 0 0 0 2.233 2.611l.882.288c1.171.378 1.6.81 1.6 1.441a1.371 1.371 0 0 1-1.585 1.224 2.415 2.415 0 0 1-2.3-1.422l-1.261.684a3.576 3.576 0 0 0 3.529 2.089c1.816 0 3.131-.918 3.131-2.683zm3.112 2.5h1.549v-4.5l4.879 4.5h2.089l-5.42-5.023 4.43-3.979H156.2l-3.925 3.511v-8.012h-1.549v13.5zM163.2 66.357a1.088 1.088 0 0 0-1.081-1.1 1.118 1.118 0 0 0-1.116 1.1 1.106 1.106 0 0 0 1.116 1.1 1.077 1.077 0 0 0 1.081-1.1zm-1.873 12.514h1.549v-9h-1.549v9zm5.382 0h1.548v-4.465c0-2.107 1.153-3.3 2.611-3.3A2.161 2.161 0 0 1 173 73.56v5.312h1.53v-5.547a3.318 3.318 0 0 0-3.4-3.637 3.185 3.185 0 0 0-2.863 1.566v-1.386h-1.548v9zm13.428-.4a1.54 1.54 0 0 0 .252-.81 1.332 1.332 0 1 0-2.664 0 1.34 1.34 0 0 0 .738 1.206l-1.207 2.575h1.027zm10.422-.99a3.947 3.947 0 0 0 3.169 1.566 4.69 4.69 0 0 0 0-9.363 3.947 3.947 0 0 0-3.169 1.566v-5.883h-1.549v13.5h1.549v-1.382zm6-3.115a3.067 3.067 0 1 1-3.061-3.259 3.074 3.074 0 0 1 3.059 3.263zm6.658 3.295a1.333 1.333 0 1 0-1.332 1.35 1.356 1.356 0 0 0 1.33-1.346zm16.291-.288h-6.373c.306-1.476 1.8-2.215 3.277-3.295 2.088-1.513 2.952-2.593 2.952-4.465a3.63 3.63 0 0 0-3.943-3.745 3.973 3.973 0 0 0-4.213 4.033h1.584a2.469 2.469 0 0 1 2.647-2.521 2.162 2.162 0 0 1 2.341 2.215c0 1.495-.792 2.161-2.269 3.259-1.89 1.4-4.285 2.665-4.285 5.4v.612h8.282v-1.489zm11.917-3.133v-3.561a4.537 4.537 0 1 0-9.057 0v3.565a4.537 4.537 0 1 0 9.055 0zm-7.509 0v-3.561c0-2.071 1.243-3.295 2.971-3.295 1.747 0 2.989 1.224 2.989 3.295v3.565c0 2.071-1.242 3.3-2.989 3.3-1.73-.005-2.973-1.23-2.973-3.3zm12.06 4.627h1.549v-12.78h-2.755l-1.261 1.53h2.467v11.254zm13.574-3.835a3.572 3.572 0 0 0-2-3.349 2.994 2.994 0 0 0 1.3-2.521 3.318 3.318 0 0 0-3.583-3.3 3.364 3.364 0 0 0-3.6 3.3 2.981 2.981 0 0 0 1.332 2.521 3.572 3.572 0 0 0-2.034 3.349 4.3 4.3 0 0 0 8.583.004zm-6.358-5.832a1.9 1.9 0 0 1 2.071-1.873 1.868 1.868 0 0 1 2.053 1.873 1.911 1.911 0 0 1-2.053 1.891 1.949 1.949 0 0 1-2.071-1.891zm-.666 5.834a2.538 2.538 0 0 1 2.737-2.557 2.553 2.553 0 1 1 0 5.1 2.544 2.544 0 0 1-2.737-2.541zm-209.38 43.837H34.6v-9.956h3.54v-1.408h-8.531v1.408h3.537v9.956zm7.247 0h1.377V114.9c0-1.872 1.024-2.929 2.321-2.929a1.921 1.921 0 0 1 1.889 2.177v4.722h1.36v-4.93a2.949 2.949 0 0 0-3.025-3.233 2.83 2.83 0 0 0-2.545 1.393v-5.234h-1.377v12zm11.889-11.124a.967.967 0 0 0-.96-.977.994.994 0 0 0-.992.977.984.984 0 0 0 .992.976.957.957 0 0 0 .96-.976zm-1.665 11.124h1.377v-8h-1.377v8zm9.97-2.225c0-1.2-.752-1.969-2.113-2.417l-.864-.288c-.944-.3-1.233-.608-1.233-1.12a1.133 1.133 0 0 1 1.345-.929 2.16 2.16 0 0 1 1.7.833l.9-.865a3.1 3.1 0 0 0-2.561-1.152c-1.585 0-2.705.88-2.705 2.177a2.416 2.416 0 0 0 1.985 2.321l.784.256c1.04.336 1.425.72 1.425 1.28a1.218 1.218 0 0 1-1.409 1.089 2.149 2.149 0 0 1-2.049-1.265l-1.12.608a3.178 3.178 0 0 0 3.137 1.857c1.609 0 2.778-.816 2.778-2.385zm9.134-8.9a.967.967 0 0 0-.96-.977.994.994 0 0 0-.992.977.984.984 0 0 0 .992.976.956.956 0 0 0 .96-.975zm-1.665 11.124h1.377v-8h-1.377v8zm12.051-1.985l-1.2-.672a2.714 2.714 0 0 1-2.5 1.537 2.883 2.883 0 0 1 0-5.763 2.714 2.714 0 0 1 2.5 1.537l1.2-.672a4.144 4.144 0 0 0-3.7-2.145 4.162 4.162 0 1 0 0 8.323 4.144 4.144 0 0 0 3.7-2.144zm10.3-2.017a4.186 4.186 0 1 0-4.178 4.162 4.107 4.107 0 0 0 4.182-4.161zm-6.963 0a2.779 2.779 0 1 1 2.785 2.882 2.751 2.751 0 0 1-2.781-2.881zm9.727 4h1.377V114.9c0-1.872 1.024-2.929 2.321-2.929a1.921 1.921 0 0 1 1.889 2.177v4.722h1.361v-4.93a2.949 2.949 0 0 0-3.026-3.233 2.83 2.83 0 0 0-2.545 1.392v-1.232h-1.372v8zm11.888-11.124a.966.966 0 0 0-.96-.977.994.994 0 0 0-.992.977.983.983 0 0 0 .992.976.956.956 0 0 0 .965-.973zm-1.659 11.127h1.376v-8H103.4v8zm12.051-1.985l-1.2-.672a2.714 2.714 0 0 1-2.5 1.537 2.883 2.883 0 0 1 0-5.763 2.714 2.714 0 0 1 2.5 1.537l1.2-.672a4.145 4.145 0 0 0-3.7-2.145 4.162 4.162 0 1 0 0 8.323 4.145 4.145 0 0 0 3.7-2.145zm9.069-9.139a.966.966 0 0 0-.96-.977.994.994 0 0 0-.993.977.984.984 0 0 0 .993.976.956.956 0 0 0 .96-.976zm-.288 3.121h-1.377v8.9a1.13 1.13 0 0 1-1.232 1.361 3.508 3.508 0 0 1-.464-.032v1.232a3.95 3.95 0 0 0 .656.049 2.245 2.245 0 0 0 2.417-2.449v-9.06zm2.783 4a4 4 0 0 0 3.921 4.162 3.509 3.509 0 0 0 2.817-1.392v1.232h1.377v-8h-1.377v1.23a3.509 3.509 0 0 0-2.817-1.392 4 4 0 0 0-3.921 4.161zm6.851 0a2.734 2.734 0 1 1-2.722-2.9 2.734 2.734 0 0 1 2.722 2.901zm11.92 2.017l-1.2-.672a2.713 2.713 0 0 1-2.5 1.537 2.883 2.883 0 0 1 0-5.763 2.713 2.713 0 0 1 2.5 1.537l1.2-.672a4.145 4.145 0 0 0-3.7-2.145 4.162 4.162 0 1 0 0 8.323 4.145 4.145 0 0 0 3.7-2.144zm2.573 1.985h1.376v-4l4.338 4h1.857l-4.818-4.466 3.937-3.537h-1.824l-3.49 3.121v-7.123h-1.376v12zm8.287-4a4.219 4.219 0 0 0 7.747 2.257l-1.088-.752a2.833 2.833 0 0 1-5.266-1.232h6.561a3.922 3.922 0 0 0 .016-.417 3.728 3.728 0 0 0-3.809-4.017 4.056 4.056 0 0 0-4.161 4.16zm4.114-2.945a2.4 2.4 0 0 1 2.449 2.1h-5.074a2.616 2.616 0 0 1 2.625-2.101zm10.832 6.835v-1.232a3.041 3.041 0 0 1-.976.16 1.153 1.153 0 0 1-1.329-1.361v-4.194h2.305v-1.264h-2.305v-2.225h-1.376v2.225h-1.7v1.264h1.7v4.37a2.252 2.252 0 0 0 2.449 2.449 3.828 3.828 0 0 0 1.232-.193zm8.927-11.012a.966.966 0 0 0-.96-.977.994.994 0 0 0-.993.977.984.984 0 0 0 .993.976.956.956 0 0 0 .96-.977zm-1.665 11.124h1.377v-8h-1.377v8zm9.97-2.225c0-1.2-.752-1.969-2.113-2.417l-.864-.288c-.944-.3-1.232-.608-1.232-1.12a1.132 1.132 0 0 1 1.344-.929 2.161 2.161 0 0 1 1.7.833l.9-.865a3.1 3.1 0 0 0-2.561-1.152c-1.585 0-2.705.88-2.705 2.177a2.416 2.416 0 0 0 1.985 2.321l.784.256c1.041.336 1.425.72 1.425 1.28a1.219 1.219 0 0 1-1.409 1.089 2.149 2.149 0 0 1-2.049-1.265l-1.12.608a3.178 3.178 0 0 0 3.137 1.857c1.61-.001 2.778-.817 2.778-2.386zm9.135-8.9a.967.967 0 0 0-.959-.977.994.994 0 0 0-.992.977.983.983 0 0 0 .992.976.957.957 0 0 0 .959-.976zm-1.665 11.124h1.376v-8h-1.376v8zm4.784 0h1.376V114.9c0-1.872 1.025-2.929 2.321-2.929a1.921 1.921 0 0 1 1.889 2.177v4.722h1.361v-4.93a2.95 2.95 0 0 0-3.025-3.232 2.831 2.831 0 0 0-2.545 1.392v-1.232h-1.376v8zm15.41-2.225c0-1.2-.753-1.969-2.113-2.417l-.865-.288c-.944-.3-1.232-.608-1.232-1.12a1.132 1.132 0 0 1 1.344-.929 2.16 2.16 0 0 1 1.7.833l.9-.865a3.106 3.106 0 0 0-2.562-1.152c-1.584 0-2.7.88-2.7 2.177a2.417 2.417 0 0 0 1.985 2.321l.785.256c1.04.336 1.424.72 1.424 1.28a1.218 1.218 0 0 1-1.408 1.089 2.148 2.148 0 0 1-2.049-1.265l-1.121.608a3.179 3.179 0 0 0 3.138 1.857c1.605 0 2.774-.816 2.774-2.385zm2.765 5.57h1.377v-4.577a3.51 3.51 0 0 0 2.817 1.392 4.169 4.169 0 0 0 0-8.323 3.51 3.51 0 0 0-2.817 1.392v-1.232h-1.377v11.348zm6.707-7.347a2.726 2.726 0 1 1-2.721-2.9 2.733 2.733 0 0 1 2.721 2.9zm5.854-7.122a.966.966 0 0 0-.96-.977.994.994 0 0 0-.993.977.984.984 0 0 0 .993.976.956.956 0 0 0 .96-.976zm-1.665 11.124h1.377v-8h-1.377v8zm4.784 0h1.377V114.9c0-1.872 1.1-2.753 2.113-2.753a2.011 2.011 0 0 1 .752.128v-1.424a2.851 2.851 0 0 0-.624-.064 2.38 2.38 0 0 0-2.241 1.632v-1.552h-1.377v8zm5.744-4a4.219 4.219 0 0 0 7.747 2.257l-1.088-.752a2.833 2.833 0 0 1-5.266-1.232h6.562a3.922 3.922 0 0 0 .016-.417 3.728 3.728 0 0 0-3.809-4.017 4.056 4.056 0 0 0-4.162 4.159zm4.114-2.945a2.4 2.4 0 0 1 2.449 2.1h-5.074a2.616 2.616 0 0 1 2.625-2.102zm5.982 2.945a4.005 4.005 0 0 0 3.922 4.162 3.512 3.512 0 0 0 2.817-1.392v1.232h1.376v-12h-1.376v5.227a3.512 3.512 0 0 0-2.817-1.392 4.005 4.005 0 0 0-3.922 4.161zm6.851 0a2.734 2.734 0 1 1-2.721-2.9 2.733 2.733 0 0 1 2.721 2.898zm10.733 2.77a3.512 3.512 0 0 0 2.818 1.392 4.169 4.169 0 0 0 0-8.323 3.512 3.512 0 0 0-2.818 1.392v-5.234h-1.376v12h1.376v-1.232zm5.331-2.77a2.727 2.727 0 1 1-2.722-2.9 2.734 2.734 0 0 1 2.722 2.898zm6.142 7.347l5.25-11.348h-1.537l-2.737 6.066-2.753-6.066h-1.521l3.506 7.587-1.745 3.761h1.537zm11.983-3.345h4.065c2.305 0 3.81-1.424 3.81-3.313a2.707 2.707 0 0 0-1.969-2.721 2.576 2.576 0 0 0 1.217-2.321 3.112 3.112 0 0 0-3.394-3.009h-3.729v11.364zm1.488-6.483v-3.537h2.241a1.786 1.786 0 0 1 1.937 1.777 1.749 1.749 0 0 1-1.937 1.76H293.3zm0 5.139v-3.858h2.658c1.5 0 2.272.832 2.272 1.937 0 1.12-.768 1.921-2.289 1.921H293.3zm8.543-2.658a4.005 4.005 0 0 0 3.922 4.162 3.509 3.509 0 0 0 2.817-1.392v1.232h1.377v-8h-1.377v1.227a3.509 3.509 0 0 0-2.817-1.392 4.005 4.005 0 0 0-3.922 4.161zm6.851 0a2.734 2.734 0 1 1-2.721-2.9 2.733 2.733 0 0 1 2.726 2.898zm4.654 4h1.376V114.9c0-1.872 1.025-2.929 2.321-2.929a1.922 1.922 0 0 1 1.889 2.177v4.722h1.36v-4.93a2.949 2.949 0 0 0-3.025-3.233 2.831 2.831 0 0 0-2.545 1.392v-1.232h-1.376v8zm9.6-4a4.005 4.005 0 0 0 3.922 4.162 3.51 3.51 0 0 0 2.817-1.392v1.232h1.376v-8h-1.376v1.227a3.51 3.51 0 0 0-2.817-1.392 4.005 4.005 0 0 0-3.923 4.161zm6.851 0a2.734 2.734 0 1 1-2.721-2.9 2.733 2.733 0 0 1 2.721 2.898zm4.653 4h1.377V114.9c0-1.872 1.024-2.929 2.321-2.929a1.921 1.921 0 0 1 1.888 2.177v4.722h1.361v-4.93a2.949 2.949 0 0 0-3.025-3.233 2.829 2.829 0 0 0-2.545 1.392v-1.232h-1.377v8zm9.6-4a4 4 0 0 0 3.921 4.162 3.509 3.509 0 0 0 2.817-1.392v1.232h1.377v-8h-1.378v1.227a3.509 3.509 0 0 0-2.817-1.392 4 4 0 0 0-3.921 4.161zm6.851 0a2.734 2.734 0 1 1-2.722-2.9 2.734 2.734 0 0 1 2.718 2.898zm9.565 4h1.488V113.7h1.1l4.37 5.17h1.873l-4.369-5.186a2.966 2.966 0 0 0 2.8-3.041 3.066 3.066 0 0 0-3.394-3.137h-3.873v11.364zm1.488-6.5v-3.489h2.209c1.3 0 2.081.608 2.081 1.761 0 1.136-.784 1.728-2.081 1.728h-2.209zm8.4 2.5a4.219 4.219 0 0 0 7.747 2.257l-1.088-.752a2.833 2.833 0 0 1-5.266-1.232h6.563a3.922 3.922 0 0 0 .016-.417 3.729 3.729 0 0 0-3.81-4.017 4.056 4.056 0 0 0-4.164 4.159zm4.114-2.945a2.4 2.4 0 0 1 2.449 2.1h-5.074a2.617 2.617 0 0 1 2.623-2.102zm6.607 10.292h1.376v-4.577a3.51 3.51 0 0 0 2.817 1.392 4.169 4.169 0 0 0 0-8.323 3.51 3.51 0 0 0-2.817 1.392v-1.232h-1.376v11.348zm6.706-7.347a2.726 2.726 0 1 1-2.721-2.9 2.733 2.733 0 0 1 2.719 2.898zm4.077.913c0 1.985 1.185 3.249 2.946 3.249a2.755 2.755 0 0 0 2.465-1.392v1.232h1.376v-8h-1.378v3.969c0 1.841-.977 2.93-2.225 2.93-1.105 0-1.809-.849-1.809-2.193v-4.706h-1.377v4.914zm11.553 1.857a3.51 3.51 0 0 0 2.817 1.392 4.169 4.169 0 0 0 0-8.323 3.51 3.51 0 0 0-2.817 1.392v-5.234h-1.377v12h1.377v-1.232zm5.33-2.77a2.726 2.726 0 1 1-2.721-2.9 2.733 2.733 0 0 1 2.719 2.898zm4.173 4h1.377v-12h-1.377v12zm6.449-11.124a.967.967 0 0 0-.961-.977.994.994 0 0 0-.992.977.983.983 0 0 0 .992.976.957.957 0 0 0 .959-.976zm-1.666 11.124h1.377v-8H417.7v8zm12.051-1.985l-1.2-.672a2.713 2.713 0 0 1-2.5 1.537 2.883 2.883 0 0 1 0-5.763 2.713 2.713 0 0 1 2.5 1.537l1.2-.672a4.144 4.144 0 0 0-3.7-2.145 4.162 4.162 0 1 0 0 8.323 4.144 4.144 0 0 0 3.699-2.145zm4.414-7.651a1.414 1.414 0 0 0 .224-.72 1.193 1.193 0 1 0-2.385 0 1.24 1.24 0 0 0 .656 1.072l-1.072 2.289h.928zm7.473 7.411c0-1.2-.752-1.969-2.113-2.417l-.864-.288c-.944-.3-1.232-.608-1.232-1.12a1.132 1.132 0 0 1 1.344-.929 2.161 2.161 0 0 1 1.7.833l.9-.865a3.1 3.1 0 0 0-2.561-1.152c-1.585 0-2.7.88-2.7 2.177a2.416 2.416 0 0 0 1.985 2.321l.784.256c1.041.336 1.425.72 1.425 1.28a1.219 1.219 0 0 1-1.409 1.089 2.149 2.149 0 0 1-2.049-1.265l-1.12.608a3.178 3.178 0 0 0 3.137 1.857c1.604 0 2.772-.816 2.772-2.385zm6.846-1.777a4.219 4.219 0 0 0 7.747 2.257l-1.089-.752a2.833 2.833 0 0 1-5.266-1.232h6.563a3.922 3.922 0 0 0 .016-.417 3.729 3.729 0 0 0-3.81-4.017 4.055 4.055 0 0 0-4.162 4.161zm4.113-2.945a2.4 2.4 0 0 1 2.449 2.1h-5.074a2.617 2.617 0 0 1 2.628-2.1zm5.118 6.947h1.713l2.433-3.025 2.433 3.025h1.7l-3.266-4.05 3.01-3.953h-1.681l-2.193 2.881-2.209-2.881h-1.665l3.01 3.953zm10.481 3.345h1.376v-4.577a3.512 3.512 0 0 0 2.818 1.392 4.169 4.169 0 0 0 0-8.323 3.512 3.512 0 0 0-2.818 1.392v-1.232H468.2v11.348zm6.707-7.347a2.727 2.727 0 1 1-2.722-2.9 2.734 2.734 0 0 1 2.719 2.9zm4.189 4h1.376v-12h-1.376v12zm12.515-4a4.186 4.186 0 1 0-4.178 4.162 4.107 4.107 0 0 0 4.177-4.162zm-6.963 0a2.779 2.779 0 1 1 2.785 2.882 2.751 2.751 0 0 1-2.786-2.882zm9.727 4h1.377V114.9c0-1.872 1.1-2.753 2.113-2.753a2.011 2.011 0 0 1 .752.128v-1.424a2.851 2.851 0 0 0-.624-.064 2.381 2.381 0 0 0-2.241 1.632v-1.552h-1.378v8zm5.744-4a4.219 4.219 0 0 0 7.747 2.257l-1.088-.752a2.833 2.833 0 0 1-5.266-1.232h6.563a3.922 3.922 0 0 0 .016-.417 3.729 3.729 0 0 0-3.81-4.017 4.056 4.056 0 0 0-4.163 4.161zm4.114-2.945a2.4 2.4 0 0 1 2.449 2.1H501.6a2.616 2.616 0 0 1 2.628-2.1zm6.606 6.947h1.377V114.9c0-1.872 1.1-2.753 2.113-2.753a2.011 2.011 0 0 1 .752.128v-1.424a2.851 2.851 0 0 0-.624-.064 2.381 2.381 0 0 0-2.241 1.632v-1.552h-1.377v8zm16.146-2.225c0-1.2-.752-1.969-2.112-2.417l-.869-.288c-.944-.3-1.232-.608-1.232-1.12a1.132 1.132 0 0 1 1.344-.929 2.16 2.16 0 0 1 1.7.833l.9-.865a3.1 3.1 0 0 0-2.561-1.152c-1.584 0-2.705.88-2.705 2.177a2.416 2.416 0 0 0 1.985 2.321l.784.256c1.041.336 1.425.72 1.425 1.28a1.218 1.218 0 0 1-1.409 1.089 2.15 2.15 0 0 1-2.049-1.265l-1.12.608a3.178 3.178 0 0 0 3.137 1.857c1.613 0 2.781-.816 2.781-2.385zm2.766 5.57h1.377v-4.577a3.509 3.509 0 0 0 2.817 1.392 4.169 4.169 0 0 0 0-8.323 3.509 3.509 0 0 0-2.817 1.392v-1.232h-1.377v11.348zm6.707-7.347a2.726 2.726 0 1 1-2.721-2.9 2.733 2.733 0 0 1 2.72 2.9zm5.854-7.122a.967.967 0 0 0-.961-.977.994.994 0 0 0-.992.977.983.983 0 0 0 .992.976.957.957 0 0 0 .96-.976zm-1.665 11.124h1.377v-8h-1.377v8zm4.784 0h1.373V114.9c0-1.872 1.1-2.753 2.112-2.753a2.013 2.013 0 0 1 .753.128v-1.424a2.854 2.854 0 0 0-.625-.064 2.38 2.38 0 0 0-2.24 1.632v-1.552h-1.377v8zm8.321-11.124a.967.967 0 0 0-.961-.977.994.994 0 0 0-.992.977.983.983 0 0 0 .992.976.957.957 0 0 0 .96-.976zm-1.665 11.124h1.377v-8h-1.377v8zm9.122-.112v-1.232a3.048 3.048 0 0 1-.977.16 1.153 1.153 0 0 1-1.328-1.361v-4.194h2.3v-1.264h-2.3v-2.225h-1.377v2.225h-1.7v1.264h1.7v4.37a2.253 2.253 0 0 0 2.449 2.449 3.835 3.835 0 0 0 1.228-.192zm6.637-3.89a4.005 4.005 0 0 0 3.922 4.162 3.51 3.51 0 0 0 2.817-1.392v1.232h1.377v-8h-1.378v1.229a3.51 3.51 0 0 0-2.817-1.392 4.005 4.005 0 0 0-3.922 4.161zm6.851 0a2.734 2.734 0 1 1-2.721-2.9 2.733 2.733 0 0 1 2.72 2.9zm4.653 4h1.377V114.9c0-1.872 1.024-2.929 2.321-2.929a1.922 1.922 0 0 1 1.889 2.177v4.722h1.36v-4.93a2.949 2.949 0 0 0-3.025-3.233 2.831 2.831 0 0 0-2.545 1.392v-1.232h-1.377v8zm9.6-4a4.005 4.005 0 0 0 3.922 4.162 3.512 3.512 0 0 0 2.817-1.392v1.232h1.376v-12h-1.376v5.229a3.512 3.512 0 0 0-2.817-1.392 4.005 4.005 0 0 0-3.923 4.161zm6.851 0a2.734 2.734 0 1 1-2.721-2.9 2.733 2.733 0 0 1 2.724 2.9zM30.521 135.782c0 1.985 1.185 3.249 2.945 3.249a2.754 2.754 0 0 0 2.465-1.392v1.232h1.377v-8h-1.377v3.969c0 1.841-.976 2.93-2.225 2.93-1.1 0-1.809-.849-1.809-2.193v-4.706h-1.376v4.914zm14.514 2.977v-1.232a3.044 3.044 0 0 1-.976.16 1.153 1.153 0 0 1-1.329-1.361v-4.194h2.3v-1.264h-2.3v-2.225h-1.377v2.225h-1.7v1.264h1.7v4.37a2.253 2.253 0 0 0 2.449 2.449 3.831 3.831 0 0 0 1.233-.192zm4.223-11.012a.967.967 0 0 0-.96-.977.994.994 0 0 0-.992.977.984.984 0 0 0 .992.976.957.957 0 0 0 .96-.976zm-1.665 11.124h1.377v-8h-1.377v8zm4.784 0h1.377v-12.005h-1.377v12.005zm6.448-11.124a.967.967 0 0 0-.96-.977.994.994 0 0 0-.992.977.984.984 0 0 0 .992.976.956.956 0 0 0 .96-.976zm-1.665 11.124h1.377v-8h-1.376v8zm9.122-.112v-1.232a3.043 3.043 0 0 1-.976.16 1.153 1.153 0 0 1-1.328-1.361v-4.194h2.3v-1.264h-2.3v-2.225H62.6v2.225h-1.7v1.264h1.7v4.37a2.253 2.253 0 0 0 2.449 2.449 3.831 3.831 0 0 0 1.233-.192zm1.822-3.89a4.005 4.005 0 0 0 3.922 4.162 3.51 3.51 0 0 0 2.817-1.392v1.232h1.377v-8h-1.377v1.229a3.51 3.51 0 0 0-2.817-1.392 4 4 0 0 0-3.926 4.161zm6.851 0a2.734 2.734 0 1 1-2.721-2.9 2.733 2.733 0 0 1 2.721 2.9zm4.653 4h1.377V134.9c0-1.872 1.1-2.753 2.113-2.753a2.013 2.013 0 0 1 .752.128v-1.424a2.853 2.853 0 0 0-.624-.064 2.381 2.381 0 0 0-2.241 1.632v-1.552h-1.376v8zm8.321-11.124a.967.967 0 0 0-.96-.977.994.994 0 0 0-.992.977.984.984 0 0 0 .992.976.957.957 0 0 0 .96-.974zm-1.665 11.124h1.377v-8h-1.376v8zm4.16-4a4.005 4.005 0 0 0 3.922 4.162 3.51 3.51 0 0 0 2.817-1.392v1.232h1.377v-8h-1.377v1.229a3.51 3.51 0 0 0-2.817-1.392 4 4 0 0 0-3.922 4.161zm6.851 0a2.734 2.734 0 1 1-2.721-2.9 2.733 2.733 0 0 1 2.721 2.9zm4.653 4h1.377V134.9c0-1.872 1.024-2.929 2.321-2.929a1.921 1.921 0 0 1 1.888 2.177v4.722h1.361v-4.93a2.949 2.949 0 0 0-3.025-3.233 2.829 2.829 0 0 0-2.545 1.392v-1.232h-1.377v8zm14.928 0h1.376V134.9c0-1.872 1.025-2.929 2.321-2.929a1.921 1.921 0 0 1 1.889 2.177v4.722h1.358v-4.93a2.95 2.95 0 0 0-3.026-3.233 2.832 2.832 0 0 0-2.545 1.392v-5.234h-1.376v12.005zm11.888-11.124a.966.966 0 0 0-.96-.977.994.994 0 0 0-.992.977.983.983 0 0 0 .992.976.956.956 0 0 0 .96-.974zm-1.664 11.124h1.376v-8h-1.376v8zm9.97-2.225c0-1.2-.753-1.969-2.113-2.417l-.865-.288c-.944-.3-1.232-.608-1.232-1.12a1.132 1.132 0 0 1 1.344-.929 2.16 2.16 0 0 1 1.7.833l.9-.865a3.106 3.106 0 0 0-2.561-1.152c-1.585 0-2.706.88-2.706 2.177a2.417 2.417 0 0 0 1.985 2.321l.785.256c1.04.336 1.424.72 1.424 1.28a1.218 1.218 0 0 1-1.408 1.089 2.148 2.148 0 0 1-2.049-1.265l-1.121.608a3.179 3.179 0 0 0 3.138 1.857c1.61.002 2.779-.814 2.779-2.383zm7.007 2.113v-1.232a3.041 3.041 0 0 1-.976.16 1.153 1.153 0 0 1-1.329-1.361v-4.194h2.3v-1.264h-2.3v-2.225h-1.376v2.225h-1.7v1.264h1.7v4.37a2.252 2.252 0 0 0 2.449 2.449 3.828 3.828 0 0 0 1.232-.19zm10.178-3.89a4.186 4.186 0 1 0-4.178 4.162 4.107 4.107 0 0 0 4.178-4.16zm-6.963 0a2.779 2.779 0 1 1 2.785 2.882 2.751 2.751 0 0 1-2.785-2.88zm9.727 4h1.377V134.9c0-1.872 1.1-2.753 2.113-2.753a2.011 2.011 0 0 1 .752.128v-1.424a2.851 2.851 0 0 0-.624-.064 2.38 2.38 0 0 0-2.241 1.632v-1.552H157v8zm8.785 3.345l5.25-11.348H169.5l-2.737 6.066-2.754-6.066h-1.52l3.5 7.587-1.744 3.761h1.536zm8.544-4.417a1.185 1.185 0 1 0-1.184 1.2 1.206 1.206 0 0 0 1.184-1.195zm7.839 1.072h1.489v-11.36h-1.489v11.364zm9.41-.112v-1.232a3.041 3.041 0 0 1-.976.16 1.153 1.153 0 0 1-1.329-1.361v-4.194h2.305v-1.264h-2.305v-2.225H187.9v2.225h-1.7v1.264h1.7v4.37a2.253 2.253 0 0 0 2.449 2.449 3.83 3.83 0 0 0 1.228-.188zm8.927-11.012a.967.967 0 0 0-.961-.977.994.994 0 0 0-.992.977.983.983 0 0 0 .992.976.957.957 0 0 0 .957-.972zm-1.665 11.124h1.376v-8h-1.376v8zm9.97-2.225c0-1.2-.752-1.969-2.113-2.417l-.864-.288c-.945-.3-1.233-.608-1.233-1.12a1.133 1.133 0 0 1 1.345-.929 2.159 2.159 0 0 1 1.7.833l.9-.865a3.1 3.1 0 0 0-2.561-1.152c-1.585 0-2.705.88-2.705 2.177a2.416 2.416 0 0 0 1.984 2.321l.785.256c1.04.336 1.424.72 1.424 1.28a1.218 1.218 0 0 1-1.408 1.089 2.148 2.148 0 0 1-2.049-1.265l-1.121.608a3.18 3.18 0 0 0 3.138 1.857c1.609.004 2.778-.812 2.778-2.381zm14.736.24l-1.2-.672a2.714 2.714 0 0 1-2.5 1.537 2.883 2.883 0 0 1 0-5.763 2.714 2.714 0 0 1 2.5 1.537l1.2-.672a4.162 4.162 0 1 0 0 4.037zm2.573 1.985h1.382V134.9c0-1.872 1.1-2.753 2.113-2.753a2.011 2.011 0 0 1 .752.128v-1.424a2.851 2.851 0 0 0-.624-.064 2.38 2.38 0 0 0-2.241 1.632v-1.552h-1.377v8zm5.76-4a4.005 4.005 0 0 0 3.922 4.162 3.512 3.512 0 0 0 2.817-1.392v1.232h1.376v-8h-1.376v1.231a3.512 3.512 0 0 0-2.817-1.392 4.005 4.005 0 0 0-3.922 4.161zm6.851 0a2.734 2.734 0 1 1-2.721-2.9 2.733 2.733 0 0 1 2.721 2.902zm5.325 4h1.377v-6.739h2.113v-1.264h-2.113V129.4a1.152 1.152 0 0 1 1.328-1.36 3.223 3.223 0 0 1 .993.16v-1.217a3.638 3.638 0 0 0-1.249-.208 2.253 2.253 0 0 0-2.449 2.449v1.649h-1.7v1.264h1.7v6.739zm9.588-.112v-1.232a3.144 3.144 0 0 1-.992.16 1.153 1.153 0 0 1-1.329-1.361v-4.194h2.321v-1.264h-2.321v-2.225h-1.376v2.225h-1.5v1.264h1.5v4.37a2.264 2.264 0 0 0 2.465 2.449 3.982 3.982 0 0 0 1.232-.188zm1.82-3.89a4.219 4.219 0 0 0 7.747 2.257l-1.088-.752a2.834 2.834 0 0 1-5.267-1.232h6.563a3.922 3.922 0 0 0 .016-.417 3.729 3.729 0 0 0-3.809-4.017 4.056 4.056 0 0 0-4.162 4.165zm4.114-2.945a2.394 2.394 0 0 1 2.448 2.1h-5.074a2.618 2.618 0 0 1 2.626-2.096zm5.982 2.945a4 4 0 0 0 3.921 4.162 3.509 3.509 0 0 0 2.817-1.392v1.232h1.377v-12.001H272.3v5.234a3.509 3.509 0 0 0-2.817-1.392 4 4 0 0 0-3.925 4.161zm6.851 0a2.734 2.734 0 1 1-2.722-2.9 2.734 2.734 0 0 1 2.722 2.904zm9.821 4h1.377v-6.739h2.321v-1.264h-2.321V129.4a1.152 1.152 0 0 1 1.328-1.36 3.228 3.228 0 0 1 .993.16v-1.217a3.642 3.642 0 0 0-1.249-.208 2.286 2.286 0 0 0-2.449 2.481v1.617h-1.7v1.264h1.7v6.739zm6 0h1.376V134.9c0-1.872 1.105-2.753 2.113-2.753a2.011 2.011 0 0 1 .752.128v-1.424a2.851 2.851 0 0 0-.624-.064 2.381 2.381 0 0 0-2.241 1.632v-1.552h-1.376v8zm14.1-4a4.186 4.186 0 1 0-4.178 4.162 4.107 4.107 0 0 0 4.177-4.158zm-6.963 0a2.779 2.779 0 1 1 2.785 2.882 2.751 2.751 0 0 1-2.786-2.878zm9.728 4h1.376V134.9c0-1.808.913-2.929 2.209-2.929 1.04 0 1.569.9 1.569 2.193v4.706h1.376v-3.97c0-1.808.9-2.929 2.193-2.929 1.041 0 1.585.9 1.585 2.193v4.706h1.376v-4.914c0-1.953-1.056-3.249-2.8-3.249a2.77 2.77 0 0 0-2.625 1.712 2.515 2.515 0 0 0-2.465-1.712 2.691 2.691 0 0 0-2.417 1.392v-1.232h-1.376v8zm19.663 0h1.377V134.9c0-1.808.912-2.929 2.209-2.929 1.04 0 1.568.9 1.568 2.193v4.706h1.377v-3.97c0-1.808.9-2.929 2.193-2.929 1.04 0 1.585.9 1.585 2.193v4.706h1.376v-4.914c0-1.953-1.056-3.249-2.8-3.249a2.769 2.769 0 0 0-2.625 1.712 2.516 2.516 0 0 0-2.465-1.712 2.689 2.689 0 0 0-2.417 1.392v-1.232h-1.377v8zm22.691-4a4.186 4.186 0 1 0-4.177 4.162 4.107 4.107 0 0 0 4.176-4.158zm-6.962 0a2.779 2.779 0 1 1 2.785 2.882 2.751 2.751 0 0 1-2.786-2.878zm9.727 4h1.377v-11.999h-1.377v12.005zm4.16-4a4.219 4.219 0 0 0 7.747 2.257l-1.089-.752a2.833 2.833 0 0 1-5.266-1.232h6.563a3.922 3.922 0 0 0 .016-.417 3.729 3.729 0 0 0-3.81-4.017 4.055 4.055 0 0 0-4.162 4.165zm4.113-2.945a2.4 2.4 0 0 1 2.449 2.1h-5.074a2.617 2.617 0 0 1 2.624-2.096zm11.793 4.722c0-1.2-.752-1.969-2.113-2.417l-.864-.288c-.945-.3-1.233-.608-1.233-1.12a1.133 1.133 0 0 1 1.345-.929 2.159 2.159 0 0 1 1.7.833l.9-.865a3.1 3.1 0 0 0-2.561-1.152c-1.585 0-2.705.88-2.705 2.177a2.416 2.416 0 0 0 1.984 2.321l.785.256c1.04.336 1.424.72 1.424 1.28a1.218 1.218 0 0 1-1.408 1.089 2.148 2.148 0 0 1-2.049-1.265l-1.12.608a3.177 3.177 0 0 0 3.137 1.857c1.608.004 2.777-.812 2.777-2.381zm2.766 2.225h1.376v-4l4.338 4h1.857l-4.818-4.466 3.937-3.537h-1.824l-3.49 3.121v-7.123h-1.376v12.005zm11.088-11.124a.966.966 0 0 0-.96-.977 1 1 0 0 0-.993.977.984.984 0 0 0 .993.976.956.956 0 0 0 .959-.972zm-1.665 11.124h1.377v-8h-1.377v8zm4.784 0h1.377V134.9c0-1.872 1.024-2.929 2.321-2.929a1.922 1.922 0 0 1 1.889 2.177v4.722h1.36v-4.93a2.949 2.949 0 0 0-3.025-3.233 2.831 2.831 0 0 0-2.545 1.392v-1.232h-1.377v8zm11.937-.352a1.368 1.368 0 0 0 .224-.72 1.185 1.185 0 1 0-2.369 0 1.191 1.191 0 0 0 .656 1.072l-1.072 2.289h.912zm7.263-3.65a4 4 0 0 0 3.921 4.162 3.509 3.509 0 0 0 2.817-1.392v1.232h1.377v-8h-1.378v1.233a3.509 3.509 0 0 0-2.817-1.392 4 4 0 0 0-3.921 4.161zm6.85 0a2.734 2.734 0 1 1-2.721-2.9 2.733 2.733 0 0 1 2.718 2.904zm14.544 1.777c0-1.2-.753-1.969-2.113-2.417l-.865-.288c-.944-.3-1.232-.608-1.232-1.12a1.133 1.133 0 0 1 1.345-.929 2.159 2.159 0 0 1 1.7.833l.9-.865a3.106 3.106 0 0 0-2.561-1.152c-1.585 0-2.706.88-2.706 2.177a2.417 2.417 0 0 0 1.985 2.321l.785.256c1.04.336 1.424.72 1.424 1.28a1.218 1.218 0 0 1-1.408 1.089 2.148 2.148 0 0 1-2.049-1.265l-1.121.608a3.179 3.179 0 0 0 3.138 1.857c1.608.004 2.777-.812 2.777-2.381zm2.765 2.225h1.377V134.9c0-1.808.912-2.929 2.209-2.929 1.04 0 1.569.9 1.569 2.193v4.706h1.376v-3.97c0-1.808.9-2.929 2.193-2.929 1.04 0 1.585.9 1.585 2.193v4.706h1.379v-4.914c0-1.953-1.056-3.249-2.8-3.249a2.77 2.77 0 0 0-2.625 1.712 2.516 2.516 0 0 0-2.465-1.712 2.691 2.691 0 0 0-2.417 1.392v-1.232h-1.377v8zm22.691-4a4.186 4.186 0 1 0-4.177 4.162 4.107 4.107 0 0 0 4.174-4.16zm-6.962 0a2.779 2.779 0 1 1 2.785 2.882 2.751 2.751 0 0 1-2.786-2.88zm17.458 0a4.186 4.186 0 1 0-4.177 4.162 4.107 4.107 0 0 0 4.178-4.16zm-6.963 0a2.779 2.779 0 1 1 2.786 2.882 2.752 2.752 0 0 1-2.787-2.88zm13.922 3.89v-1.232a3.043 3.043 0 0 1-.977.16 1.153 1.153 0 0 1-1.328-1.361v-4.194h2.305v-1.264h-2.305v-2.225h-1.377v2.225h-1.7v1.264h1.7v4.37a2.253 2.253 0 0 0 2.449 2.449 3.83 3.83 0 0 0 1.232-.19zm2.558.112h1.377V134.9c0-1.872 1.024-2.929 2.321-2.929a1.921 1.921 0 0 1 1.888 2.177v4.722h1.361v-4.93a2.949 2.949 0 0 0-3.025-3.233 2.829 2.829 0 0 0-2.545 1.392v-5.234h-1.377v12.005zm22.195-1.985l-1.2-.672a2.713 2.713 0 0 1-2.5 1.537 2.883 2.883 0 0 1 0-5.763 2.713 2.713 0 0 1 2.5 1.537l1.2-.672a4.145 4.145 0 0 0-3.7-2.145 4.162 4.162 0 1 0 0 8.323 4.145 4.145 0 0 0 3.699-2.143zm10.3-2.017a4.186 4.186 0 1 0-4.178 4.162 4.107 4.107 0 0 0 4.181-4.16zm-6.963 0a2.779 2.779 0 1 1 2.785 2.882 2.751 2.751 0 0 1-2.782-2.88zm19.524 3.89v-1.232a3.052 3.052 0 0 1-.977.16 1.153 1.153 0 0 1-1.328-1.361v-4.194h2.3v-1.264h-2.3v-2.225h-1.377v2.225h-1.377v1.264h1.377v4.37a2.252 2.252 0 0 0 2.449 2.449 3.84 3.84 0 0 0 1.236-.19zm-5.6 0v-1.232a3.041 3.041 0 0 1-.976.16 1.153 1.153 0 0 1-1.329-1.361v-4.194h1.953v-1.264h-1.953v-2.225h-1.376v2.225h-1.7v1.264h1.7v4.37a2.252 2.252 0 0 0 2.449 2.449 3.828 3.828 0 0 0 1.232-.19zm15.778-3.89a4.186 4.186 0 1 0-4.178 4.162 4.107 4.107 0 0 0 4.178-4.16zm-6.963 0a2.779 2.779 0 1 1 2.785 2.882 2.751 2.751 0 0 1-2.785-2.88zm9.727 4h1.377V134.9c0-1.872 1.024-2.929 2.321-2.929a1.922 1.922 0 0 1 1.889 2.177v4.722h1.36v-4.93a2.949 2.949 0 0 0-3.025-3.233 2.829 2.829 0 0 0-2.545 1.392v-1.232h-1.377v8zm15.392 0h1.377v-6.739h2.317v-1.264h-2.321V129.4a1.152 1.152 0 0 1 1.329-1.36 3.222 3.222 0 0 1 .992.16v-1.217a3.638 3.638 0 0 0-1.249-.208 2.286 2.286 0 0 0-2.449 2.481v1.617h-1.7v1.264h1.7v6.739zm5.168-4a4.005 4.005 0 0 0 3.922 4.162 3.51 3.51 0 0 0 2.817-1.392v1.232h1.376v-8h-1.376v1.231a3.51 3.51 0 0 0-2.817-1.392 4.005 4.005 0 0 0-3.922 4.161zm6.851 0a2.734 2.734 0 1 1-2.721-2.9 2.733 2.733 0 0 1 2.721 2.902zm6.03 2.77a3.509 3.509 0 0 0 2.817 1.392 4.169 4.169 0 0 0 0-8.323 3.509 3.509 0 0 0-2.817 1.392v-5.234h-1.377v12.005h1.377v-1.232zm5.33-2.77a2.726 2.726 0 1 1-2.721-2.9 2.733 2.733 0 0 1 2.721 2.902zm4.173 4h1.376V134.9c0-1.872 1.105-2.753 2.113-2.753a2.02 2.02 0 0 1 .753.128v-1.424a2.86 2.86 0 0 0-.625-.064 2.382 2.382 0 0 0-2.241 1.632v-1.552h-1.376v8zm8.321-11.124a.967.967 0 0 0-.961-.977.994.994 0 0 0-.992.977.983.983 0 0 0 .992.976.957.957 0 0 0 .961-.972zm-1.665 11.124h1.376v-8h-1.376v8zm12.051-1.985l-1.2-.672a2.713 2.713 0 0 1-2.5 1.537 2.883 2.883 0 0 1 0-5.763 2.713 2.713 0 0 1 2.5 1.537l1.2-.672a4.145 4.145 0 0 0-3.7-2.145 4.162 4.162 0 1 0 0 8.323 4.145 4.145 0 0 0 3.7-2.141zm-555.065 20l-1.2-.672a2.714 2.714 0 0 1-2.5 1.537 2.883 2.883 0 0 1 0-5.763 2.714 2.714 0 0 1 2.5 1.537l1.2-.672a4.144 4.144 0 0 0-3.7-2.145 4.162 4.162 0 1 0 0 8.323 4.144 4.144 0 0 0 3.7-2.141zm10.3-2.017a4.186 4.186 0 1 0-4.178 4.162 4.107 4.107 0 0 0 4.178-4.158zm-6.963 0a2.779 2.779 0 1 1 2.785 2.882 2.751 2.751 0 0 1-2.781-2.878zm9.728 4h1.377V154.9c0-1.808.912-2.929 2.209-2.929 1.04 0 1.569.9 1.569 2.193v4.706h1.38v-3.97c0-1.808.9-2.929 2.193-2.929 1.04 0 1.585.9 1.585 2.193v4.706h1.377v-4.914c0-1.953-1.056-3.249-2.8-3.249a2.77 2.77 0 0 0-2.625 1.712 2.516 2.516 0 0 0-2.465-1.712 2.69 2.69 0 0 0-2.417 1.392v-1.232h-1.379v8zm14.96 0h1.377V154.9c0-1.808.912-2.929 2.209-2.929 1.04 0 1.569.9 1.569 2.193v4.706h1.377v-3.97c0-1.808.9-2.929 2.193-2.929 1.04 0 1.585.9 1.585 2.193v4.706h1.377v-4.914c0-1.953-1.056-3.249-2.8-3.249a2.77 2.77 0 0 0-2.625 1.712 2.516 2.516 0 0 0-2.465-1.712 2.69 2.69 0 0 0-2.417 1.392v-1.232h-1.376v8zm22.691-4a4.186 4.186 0 1 0-4.178 4.162 4.107 4.107 0 0 0 4.182-4.158zm-6.963 0a2.779 2.779 0 1 1 2.785 2.882 2.751 2.751 0 0 1-2.781-2.878zm9.727 4h1.377V154.9c0-1.872 1.024-2.929 2.321-2.929a1.921 1.921 0 0 1 1.889 2.177v4.722h1.361v-4.93a2.949 2.949 0 0 0-3.025-3.233 2.83 2.83 0 0 0-2.545 1.392v-1.232h-1.374v8zm10.224 0h1.377v-12h-1.377v12zm6.913 3.345l5.25-11.348h-1.537l-2.737 6.066-2.753-6.066h-1.521l3.506 7.587-1.745 3.761h1.537zm11.663-6.434c0 1.985 1.184 3.249 2.945 3.249a2.754 2.754 0 0 0 2.465-1.392v1.232h1.377v-8h-1.377v3.969c0 1.841-.976 2.93-2.225 2.93-1.1 0-1.809-.849-1.809-2.193v-4.706h-1.376v4.914zm15.362.864c0-1.2-.752-1.969-2.113-2.417l-.864-.288c-.945-.3-1.233-.608-1.233-1.12a1.133 1.133 0 0 1 1.345-.929 2.159 2.159 0 0 1 1.7.833l.9-.865a3.1 3.1 0 0 0-2.561-1.152c-1.585 0-2.7.88-2.7 2.177A2.416 2.416 0 0 0 132 155.2l.785.256c1.04.336 1.424.72 1.424 1.28a1.218 1.218 0 0 1-1.408 1.089 2.148 2.148 0 0 1-2.049-1.265l-1.12.608a3.177 3.177 0 0 0 3.137 1.857c1.608.006 2.777-.81 2.777-2.379zm2.141-1.777a4.22 4.22 0 0 0 7.748 2.257l-1.089-.752a2.833 2.833 0 0 1-5.266-1.232h6.563a3.922 3.922 0 0 0 .016-.417 3.729 3.729 0 0 0-3.81-4.017 4.056 4.056 0 0 0-4.158 4.167zm4.114-2.945a2.4 2.4 0 0 1 2.449 2.1h-5.074a2.617 2.617 0 0 1 2.628-2.094zm5.982 2.945a4.005 4.005 0 0 0 3.922 4.162 3.51 3.51 0 0 0 2.817-1.392v1.232h1.382v-12h-1.377v5.235a3.51 3.51 0 0 0-2.817-1.392 4.005 4.005 0 0 0-3.923 4.161zm6.851 0a2.734 2.734 0 1 1-2.721-2.9 2.733 2.733 0 0 1 2.725 2.906zm11.022-7.122a.966.966 0 0 0-.96-.977.994.994 0 0 0-.993.977.984.984 0 0 0 .993.976.956.956 0 0 0 .964-.97zm-1.665 11.124h1.377v-8h-1.377v8zm4.784 0h1.377V154.9c0-1.872 1.024-2.929 2.321-2.929a1.921 1.921 0 0 1 1.888 2.177v4.722h1.361v-4.93a2.949 2.949 0 0 0-3.025-3.233 2.829 2.829 0 0 0-2.545 1.392v-1.232h-1.377v8zm15.92 0h1.377v-11.358h-2.449l-1.121 1.36h2.202v10zm4.864 0h1.76l4.162-4.914a4.367 4.367 0 0 0 1.281-2.9 3.851 3.851 0 0 0-7.7.048 3.671 3.671 0 0 0 3.554 3.649 2.039 2.039 0 0 0 .448-.032zm.912-7.779a2.441 2.441 0 1 1 2.433 2.449 2.415 2.415 0 0 1-2.429-2.443zm15.587 4.162a3.676 3.676 0 0 0-3.554-3.666c-.144 0-.288.016-.448.032l3.473-4.113h-1.744l-4.146 4.881a4.369 4.369 0 0 0-1.28 2.9 3.851 3.851 0 0 0 7.703-.028zm-6.291 0a2.441 2.441 0 1 1 2.449 2.449 2.429 2.429 0 0 1-2.445-2.443zm16.771-.5v-3.169a4.033 4.033 0 1 0-8.051 0v3.169a4.033 4.033 0 1 0 8.055.009zm-6.675 0v-3.169a2.662 2.662 0 1 1 5.3 0v3.169a2.662 2.662 0 1 1-5.296.009zm14.914 1.889c0-1.2-.753-1.969-2.113-2.417l-.865-.288c-.944-.3-1.232-.608-1.232-1.12a1.132 1.132 0 0 1 1.344-.929 2.16 2.16 0 0 1 1.7.833l.9-.865a3.1 3.1 0 0 0-2.561-1.152c-1.584 0-2.705.88-2.705 2.177a2.417 2.417 0 0 0 1.985 2.321l.784.256c1.041.336 1.425.72 1.425 1.28a1.218 1.218 0 0 1-1.409 1.089 2.148 2.148 0 0 1-2.048-1.265l-1.121.608a3.178 3.178 0 0 0 3.137 1.857c1.614.009 2.783-.807 2.783-2.376zm6.845-1.777a4.005 4.005 0 0 0 3.921 4.162 3.512 3.512 0 0 0 2.818-1.392v1.232h1.376v-8h-1.376v1.238a3.512 3.512 0 0 0-2.818-1.392 4 4 0 0 0-3.917 4.161zm6.851 0a2.734 2.734 0 1 1-2.721-2.9 2.733 2.733 0 0 1 2.725 2.909zm4.653 4h1.378v-3.96c0-1.872 1.1-2.753 2.112-2.753a2.013 2.013 0 0 1 .753.128v-1.424a2.854 2.854 0 0 0-.625-.064 2.38 2.38 0 0 0-2.24 1.632v-1.552h-1.377v8zm6.656 0h1.377v-3.96c0-1.808.912-2.929 2.208-2.929 1.041 0 1.569.9 1.569 2.193v4.706h1.377v-3.97c0-1.808.9-2.929 2.192-2.929 1.041 0 1.585.9 1.585 2.193v4.706h1.377v-4.914c0-1.953-1.057-3.249-2.8-3.249a2.771 2.771 0 0 0-2.626 1.712 2.515 2.515 0 0 0-2.465-1.712 2.689 2.689 0 0 0-2.416 1.392v-1.232h-1.377v8zm16.929 3.345l5.25-11.348h-1.537l-2.737 6.066-2.753-6.066h-1.521l3.506 7.587-1.745 3.761h1.537zm11.663-6.434c0 1.985 1.184 3.249 2.945 3.249a2.754 2.754 0 0 0 2.465-1.392v1.232h1.377v-8h-1.377v3.969c0 1.841-.976 2.93-2.225 2.93-1.1 0-1.809-.849-1.809-2.193v-4.706h-1.376v4.914zm10.176 3.089h1.376v-3.96c0-1.872 1.025-2.929 2.321-2.929a1.921 1.921 0 0 1 1.889 2.177v4.722h1.368v-4.93a2.95 2.95 0 0 0-3.026-3.233 2.832 2.832 0 0 0-2.545 1.392v-1.232h-1.379v8zm11.888-11.124a.966.966 0 0 0-.96-.977.994.994 0 0 0-.992.977.983.983 0 0 0 .992.976.956.956 0 0 0 .964-.965zm-1.664 11.124h1.376v-8h-1.376v8zm5.456 0h1.376v-6.739h2.321v-1.264h-2.321V149.4a1.153 1.153 0 0 1 1.329-1.36 3.222 3.222 0 0 1 .992.16v-1.217a3.636 3.636 0 0 0-1.248-.208 2.286 2.286 0 0 0-2.449 2.481v1.617h-1.7v1.264h1.7v6.739zm13.523-4a4.186 4.186 0 1 0-4.178 4.162 4.107 4.107 0 0 0 4.182-4.153zm-6.963 0a2.779 2.779 0 1 1 2.785 2.882 2.751 2.751 0 0 1-2.781-2.873zm9.727 4h1.377v-3.96c0-1.872 1.1-2.753 2.113-2.753a2.011 2.011 0 0 1 .752.128v-1.424a2.851 2.851 0 0 0-.624-.064 2.381 2.381 0 0 0-2.241 1.632v-1.552h-1.377v8zm6.656 0h1.377v-3.96c0-1.808.912-2.929 2.209-2.929 1.04 0 1.568.9 1.568 2.193v4.706h1.377v-3.97c0-1.808.9-2.929 2.193-2.929 1.04 0 1.585.9 1.585 2.193v4.706h1.376v-4.914c0-1.953-1.056-3.249-2.8-3.249a2.769 2.769 0 0 0-2.625 1.712 2.516 2.516 0 0 0-2.465-1.712 2.689 2.689 0 0 0-2.417 1.392v-1.232h-1.377v8zm20.146-2.225c0-1.2-.752-1.969-2.112-2.417l-.865-.288c-.944-.3-1.232-.608-1.232-1.12a1.132 1.132 0 0 1 1.344-.929 2.16 2.16 0 0 1 1.7.833l.9-.865a3.1 3.1 0 0 0-2.561-1.152c-1.584 0-2.7.88-2.7 2.177a2.416 2.416 0 0 0 1.985 2.321l.784.256c1.041.336 1.425.72 1.425 1.28a1.218 1.218 0 0 1-1.409 1.089 2.15 2.15 0 0 1-2.049-1.265l-1.12.608a3.178 3.178 0 0 0 3.137 1.857c1.609.011 2.777-.805 2.777-2.374zm6.846-1.777a4 4 0 0 0 3.921 4.162 3.509 3.509 0 0 0 2.817-1.392v1.232h1.377v-12H360.9v5.24a3.509 3.509 0 0 0-2.817-1.392 4 4 0 0 0-3.918 4.161zm6.85 0a2.734 2.734 0 1 1-2.721-2.9 2.733 2.733 0 0 1 2.725 2.911zm4.542.913c0 1.985 1.184 3.249 2.945 3.249a2.754 2.754 0 0 0 2.465-1.392v1.232h1.376v-8h-1.376v3.969c0 1.841-.976 2.93-2.225 2.93-1.1 0-1.809-.849-1.809-2.193v-4.706h-1.376v4.914zm9.551-.913a4.22 4.22 0 0 0 7.748 2.257l-1.089-.752a2.833 2.833 0 0 1-5.266-1.232h6.563a3.922 3.922 0 0 0 .016-.417 3.729 3.729 0 0 0-3.81-4.017 4.056 4.056 0 0 0-4.158 4.172zm4.114-2.945a2.4 2.4 0 0 1 2.449 2.1H376.6a2.617 2.617 0 0 1 2.622-2.089zm15.376 6.835v-1.232a3.041 3.041 0 0 1-.976.16 1.153 1.153 0 0 1-1.329-1.361v-4.194h2.311v-1.264h-2.305v-2.225h-1.376v2.225h-1.7v1.264h1.7v4.37a2.252 2.252 0 0 0 2.449 2.449 3.828 3.828 0 0 0 1.232-.181zm10.178-3.89a4.186 4.186 0 1 0-4.178 4.162 4.107 4.107 0 0 0 4.182-4.151zm-6.963 0a2.779 2.779 0 1 1 2.785 2.882 2.751 2.751 0 0 1-2.781-2.871zm16.1-7.122a.967.967 0 0 0-.961-.977.994.994 0 0 0-.992.977.983.983 0 0 0 .992.976.957.957 0 0 0 .961-.965zm-1.665 11.124h1.377v-8h-1.377v8zm9.122-.112v-1.232a3.043 3.043 0 0 1-.977.16 1.153 1.153 0 0 1-1.328-1.361v-4.194h2.305v-1.264h-2.305v-2.225h-1.377v2.225h-1.7v1.264h1.7v4.37a2.253 2.253 0 0 0 2.449 2.449 3.83 3.83 0 0 0 1.233-.181zm7.744-2.113c0-1.2-.752-1.969-2.113-2.417l-.864-.288c-.945-.3-1.233-.608-1.233-1.12a1.133 1.133 0 0 1 1.345-.929 2.163 2.163 0 0 1 1.7.833l.9-.865a3.1 3.1 0 0 0-2.561-1.152c-1.585 0-2.7.88-2.7 2.177a2.416 2.416 0 0 0 1.985 2.321l.784.256c1.04.336 1.425.72 1.425 1.28a1.219 1.219 0 0 1-1.409 1.089 2.149 2.149 0 0 1-2.049-1.265l-1.12.608a3.177 3.177 0 0 0 3.137 1.857c1.605.011 2.773-.805 2.773-2.374zm6.845-1.777a4.005 4.005 0 0 0 3.922 4.162 3.51 3.51 0 0 0 2.817-1.392v1.232h1.377v-12h-1.377v5.24a3.51 3.51 0 0 0-2.817-1.392 4.005 4.005 0 0 0-3.922 4.161zm6.851 0a2.734 2.734 0 1 1-2.721-2.9 2.733 2.733 0 0 1 2.721 2.911zm4.541.913c0 1.985 1.185 3.249 2.946 3.249a2.755 2.755 0 0 0 2.465-1.392v1.232h1.376v-8h-1.376v3.969c0 1.841-.977 2.93-2.225 2.93-1.105 0-1.809-.849-1.809-2.193v-4.706h-1.377v4.914zm10.176 3.089h1.377v-3.96c0-1.872 1.1-2.753 2.113-2.753a2.011 2.011 0 0 1 .752.128v-1.424a2.851 2.851 0 0 0-.624-.064 2.38 2.38 0 0 0-2.241 1.632v-1.552h-1.377v8zm5.76-4a4.005 4.005 0 0 0 3.922 4.162 3.51 3.51 0 0 0 2.817-1.392v1.232h1.378v-8h-1.376v1.238a3.51 3.51 0 0 0-2.817-1.392 4.005 4.005 0 0 0-3.924 4.161zm6.851 0a2.734 2.734 0 1 1-2.721-2.9 2.733 2.733 0 0 1 2.721 2.909zm6.03 2.77a3.509 3.509 0 0 0 2.817 1.392 4.169 4.169 0 0 0 0-8.323 3.509 3.509 0 0 0-2.817 1.392v-5.234h-1.377v12h1.377v-1.232zm5.33-2.77a2.726 2.726 0 1 1-2.721-2.9 2.733 2.733 0 0 1 2.721 2.909zm4.173 4h1.377v-12h-1.377v12zm4.16-4a4.219 4.219 0 0 0 7.747 2.257l-1.089-.752a2.833 2.833 0 0 1-5.266-1.232h6.563a3.922 3.922 0 0 0 .016-.417 3.729 3.729 0 0 0-3.81-4.017 4.055 4.055 0 0 0-4.161 4.17zm4.113-2.945a2.4 2.4 0 0 1 2.449 2.1h-5.074a2.617 2.617 0 0 1 2.625-2.091zm13.072 10.292l5.25-11.348h-1.537l-2.737 6.066-2.753-6.066h-1.521l3.506 7.587-1.745 3.761h1.537zm6.623-7.347a4.219 4.219 0 0 0 7.747 2.257l-1.089-.752a2.833 2.833 0 0 1-5.266-1.232h6.563a3.922 3.922 0 0 0 .016-.417 3.729 3.729 0 0 0-3.81-4.017 4.055 4.055 0 0 0-4.161 4.17zm4.113-2.945a2.4 2.4 0 0 1 2.449 2.1h-5.074a2.617 2.617 0 0 1 2.625-2.091zm10.833 6.835v-1.232a3.048 3.048 0 0 1-.977.16 1.153 1.153 0 0 1-1.328-1.361v-4.194h2.305v-1.264h-2.305v-2.225H524.9v2.225h-1.7v1.264h1.7v4.37a2.253 2.253 0 0 0 2.449 2.449 3.835 3.835 0 0 0 1.232-.183zm12.448-2.113c0-1.2-.752-1.969-2.113-2.417l-.864-.288c-.945-.3-1.233-.608-1.233-1.12a1.133 1.133 0 0 1 1.345-.929 2.159 2.159 0 0 1 1.7.833l.9-.865a3.106 3.106 0 0 0-2.561-1.152c-1.585 0-2.705.88-2.705 2.177a2.416 2.416 0 0 0 1.984 2.321l.785.256c1.04.336 1.424.72 1.424 1.28a1.218 1.218 0 0 1-1.408 1.089 2.148 2.148 0 0 1-2.049-1.265l-1.121.608a3.18 3.18 0 0 0 3.138 1.857c1.609.009 2.778-.807 2.778-2.376zm10.5-1.777a4.186 4.186 0 1 0-4.178 4.162 4.107 4.107 0 0 0 4.175-4.153zm-6.963 0a2.779 2.779 0 1 1 2.785 2.882 2.751 2.751 0 0 1-2.788-2.873zm10.272 4h1.376v-6.739h2.113v-1.264h-2.113V149.4a1.152 1.152 0 0 1 1.329-1.36 3.222 3.222 0 0 1 .992.16v-1.217a3.636 3.636 0 0 0-1.248-.208 2.253 2.253 0 0 0-2.449 2.449v1.649h-1.7v1.264h1.7v6.739zm9.588-.112v-1.232a3.155 3.155 0 0 1-.993.16 1.153 1.153 0 0 1-1.328-1.361v-4.194h2.321v-1.264H562.1v-2.225h-1.377v2.225h-1.5v1.264h1.5v4.37a2.265 2.265 0 0 0 2.465 2.449 3.994 3.994 0 0 0 1.235-.181zm11.325 0v-1.232a3.041 3.041 0 0 1-.976.16 1.153 1.153 0 0 1-1.329-1.361v-4.194h2.305v-1.264h-2.305v-2.225h-1.377v2.225h-1.7v1.264h1.7v4.37a2.253 2.253 0 0 0 2.449 2.449 3.83 3.83 0 0 0 1.23-.181zm1.822-3.89a4.219 4.219 0 0 0 7.747 2.257l-1.088-.752a2.833 2.833 0 0 1-5.266-1.232h6.562a3.922 3.922 0 0 0 .016-.417 3.728 3.728 0 0 0-3.809-4.017 4.056 4.056 0 0 0-4.165 4.172zm4.114-2.945a2.4 2.4 0 0 1 2.449 2.1h-5.074a2.616 2.616 0 0 1 2.622-2.089zm5.118 6.947h1.713l2.433-3.025 2.433 3.025h1.7l-3.265-4.05 3.009-3.953h-1.688l-2.192 2.881-2.209-2.881h-1.665l3.009 3.953zm14.818-.112v-1.232a3.041 3.041 0 0 1-.976.16 1.153 1.153 0 0 1-1.329-1.361v-4.194h2.3v-1.264h-2.3v-2.225h-1.376v2.225h-1.7v1.264h1.7v4.37a2.252 2.252 0 0 0 2.449 2.449 3.828 3.828 0 0 0 1.229-.181zm2.446-2.977c0 1.985 1.185 3.249 2.945 3.249a2.753 2.753 0 0 0 2.465-1.392v1.232h1.377v-8h-1.377v3.969c0 1.841-.976 2.93-2.225 2.93-1.1 0-1.808-.849-1.808-2.193v-4.706h-1.377v4.914zm10.176 3.089h1.377v-3.96c0-1.872 1.1-2.753 2.113-2.753a2.011 2.011 0 0 1 .752.128v-1.424a2.851 2.851 0 0 0-.624-.064 2.38 2.38 0 0 0-2.241 1.632v-1.552h-1.377v8zm5.744-4a4.219 4.219 0 0 0 7.747 2.257l-1.088-.752a2.833 2.833 0 0 1-5.266-1.232h6.562a3.922 3.922 0 0 0 .016-.417 3.728 3.728 0 0 0-3.809-4.017 4.056 4.056 0 0 0-4.165 4.17zm4.114-2.945a2.4 2.4 0 0 1 2.449 2.1h-5.074a2.616 2.616 0 0 1 2.622-2.091zm8.511 5.875a1.185 1.185 0 1 0-1.185 1.2 1.206 1.206 0 0 0 1.182-1.19z"/></svg>