<svg id="copy_copy_2" data-name="copy copy 2" xmlns="http://www.w3.org/2000/svg" width="720" height="302"><defs><style>.cls-2{fill-rule:evenodd}</style></defs><path id="Rectangle_106_copy_12" data-name="Rectangle 106 copy 12" fill="#fff" d="M0 0h720v302H0z"/><g id="CTA_underline"><path class="cls-2" d="M30 248.928h90v3H30v-3z"/><path id="SHOP_now" data-name="SHOP now" class="cls-2" d="M33.395 244.126a3.123 3.123 0 0 0 3.422-3.07 3.053 3.053 0 0 0-2.277-2.971l-.674-.252c-1.011-.379-1.482-.617-1.482-1.15a.984.984 0 0 1 1.159-.757 2.1 2.1 0 0 1 1.657.827l1.4-1.541a3.917 3.917 0 0 0-3.085-1.374 3 3 0 0 0-3.3 3.07c0 1.359.862 2.326 2.412 2.873l.674.238c.957.336 1.334.687 1.334 1.191a.977.977 0 0 1-1.159.827A2.479 2.479 0 0 1 31.5 240.9l-1.644 1.444a4.141 4.141 0 0 0 3.539 1.782zm7.332-.168h2.142v-3.939h3.853v3.939h2.142v-9.952h-2.141v3.9h-3.854v-3.9h-2.142v9.952zm16.993.168a5.148 5.148 0 1 0-4.945-5.144 5.06 5.06 0 0 0 4.945 5.144zm0-2.159a2.993 2.993 0 1 1 2.776-2.985 2.9 2.9 0 0 1-2.776 2.985zm15.471-4.555a3.322 3.322 0 0 0-3.368-3.406h-3.248v9.952h2.142V240.8h1.1a3.31 3.31 0 0 0 3.374-3.388zm-2.075 0a1.283 1.283 0 0 1-1.32 1.3h-1.079v-2.607H69.8a1.274 1.274 0 0 1 1.316 1.307zm19.54 6.546v-9.952H88.5v6.139l-4.648-6.139h-1.846v9.952h2.142v-6.153l4.662 6.153h1.846zm8.855.168a5.148 5.148 0 1 0-4.945-5.144 5.06 5.06 0 0 0 4.945 5.144zm0-2.159a2.993 2.993 0 1 1 2.775-2.985 2.9 2.9 0 0 1-2.775 2.985zm16.265 1.991h2.035l2.223-9.952h-2.29l-1.307 6.307-2.695-6.475-2.681 6.475-1.307-6.307h-2.291l2.21 9.952h2.034l2.035-4.878z"/></g><path id="Chukka_Boot_Suede_b._1981_Available_in_leather_and_suede._" data-name="Chukka Boot Suede, b. 1981 | Available in leather and suede." class="cls-2" d="M41.4 51.891a11.007 11.007 0 0 0 9.96-5.828l-4.2-2.283a6.4 6.4 0 1 1 0-5.828l4.2-2.283a11.108 11.108 0 1 0-9.96 16.222zm14.25-.361h4.77v-8.44H69v8.441h4.77V30.2H69v8.351h-8.58V30.2h-4.77v21.331zm32.64.361a8.359 8.359 0 0 0 8.76-8.8V30.2h-4.77v12.95a3.992 3.992 0 1 1-7.98 0V30.2h-4.77v12.89c-.004 5.317 3.626 8.801 8.756 8.801zm14.52-.361h4.74v-9.552l8.669 9.553h6.12l-10.113-11.085 8.4-10.243h-5.85l-7.229 8.922V30.2h-4.74v21.331zm22.5 0h4.74v-9.552l8.669 9.553h6.12l-10.11-11.085 8.4-10.243h-5.85l-7.229 8.922V30.2h-4.74v21.331zm20.22 0h4.98l1.89-4.506h8.819l1.89 4.506h4.98l-9.124-21.33h-4.32zm8.609-8.651l2.67-6.428 2.67 6.429h-5.34zm24.87 8.651h9.36a6.3 6.3 0 0 0 6.48-6.278 5.574 5.574 0 0 0-3.03-5.047 5.023 5.023 0 0 0 1.53-3.665 6.335 6.335 0 0 0-6.33-6.338h-8.01v21.329zm4.77-12.707v-4.265h2.7a2.166 2.166 0 0 1 2.22 2.163 2.136 2.136 0 0 1-2.22 2.1h-2.7zm0 8.321v-4.265h4.17a2.168 2.168 0 0 1 2.25 2.133 2.142 2.142 0 0 1-2.22 2.133h-4.2zm25.59 4.746a11.025 11.025 0 1 0-11.01-11.025 11.043 11.043 0 0 0 11.006 11.026zm0-4.626a6.4 6.4 0 1 1 6.18-6.4 6.324 6.324 0 0 1-6.184 6.401zm25.619 4.626a11.025 11.025 0 1 0-11.009-11.025 11.044 11.044 0 0 0 11.005 11.026zm0-4.626a6.4 6.4 0 1 1 6.18-6.4 6.324 6.324 0 0 1-6.184 6.401zm18.84 4.266h4.8V34.769h5.49V30.2H248.4v4.566h5.429v16.765zM29.985 77.477a4.935 4.935 0 0 0 4.483 2.308c2.377 0 4.069-1.37 4.069-3.552 0-1.893-1.08-2.975-2.971-3.7l-1.549-.595c-1.3-.487-1.927-.974-1.927-2.055 0-1.064 1.044-1.767 2.3-1.767a3.162 3.162 0 0 1 2.539 1.262l1.23-1.078a4.66 4.66 0 0 0-3.727-1.749c-2.287 0-4 1.316-4 3.408 0 1.749.9 2.795 2.9 3.534l1.693.649a2.326 2.326 0 0 1 1.837 2.164c0 1.19-1.044 1.911-2.359 1.911a3.571 3.571 0 0 1-3.169-1.749zM41.5 76.089c0 2.236 1.332 3.66 3.313 3.66a3.1 3.1 0 0 0 2.773-1.569v1.388h1.548v-9.014h-1.543v4.471c0 2.073-1.1 3.3-2.5 3.3-1.242 0-2.035-.956-2.035-2.47v-5.3H41.5v5.535zm10.75-1.028a4.745 4.745 0 0 0 8.715 2.539l-1.224-.847a3.186 3.186 0 0 1-5.924-1.388H61.2a4.407 4.407 0 0 0 .018-.469 4.2 4.2 0 0 0-4.285-4.525 4.565 4.565 0 0 0-4.683 4.69zm4.627-3.318a2.7 2.7 0 0 1 2.755 2.362h-5.707a2.944 2.944 0 0 1 2.953-2.361zm6.73 3.318a4.508 4.508 0 0 0 4.411 4.688 3.946 3.946 0 0 0 3.169-1.569v1.388h1.548V66.046h-1.546v5.9a3.946 3.946 0 0 0-3.169-1.569 4.508 4.508 0 0 0-4.412 4.684zm7.706 0a3.076 3.076 0 1 1-3.059-3.261 3.076 3.076 0 0 1 3.061 3.261zm4.534 0a4.745 4.745 0 0 0 8.716 2.539l-1.224-.847a3.186 3.186 0 0 1-5.924-1.388H84.8a4.407 4.407 0 0 0 .018-.469 4.2 4.2 0 0 0-4.285-4.525 4.565 4.565 0 0 0-4.685 4.69zm4.627-3.318a2.7 2.7 0 0 1 2.755 2.362h-5.706a2.944 2.944 0 0 1 2.953-2.361zm9.359 7.428a1.543 1.543 0 0 0 .252-.811 1.333 1.333 0 1 0-2.665 0 1.342 1.342 0 0 0 .738 1.208l-1.206 2.578h1.028zm10.421-.992a3.948 3.948 0 0 0 3.169 1.569 4.7 4.7 0 0 0 0-9.375 3.948 3.948 0 0 0-3.169 1.569v-5.9h-1.546v13.527h1.548V78.18zm6-3.119a3.067 3.067 0 1 1-3.061-3.263 3.076 3.076 0 0 1 3.059 3.264zm6.658 3.3a1.332 1.332 0 1 0-1.332 1.352 1.357 1.357 0 0 0 1.33-1.351zm9.7 1.208h1.548v-12.8h-2.754l-1.261 1.532h2.467v11.269zm5.472 0h1.98l4.682-5.535a4.921 4.921 0 0 0 1.44-3.263 4.331 4.331 0 0 0-8.661.054 4.134 4.134 0 0 0 4 4.111 2.288 2.288 0 0 0 .5-.036zm1.026-8.763a2.746 2.746 0 1 1 2.737 2.759 2.719 2.719 0 0 1-2.737-2.758zm18.02 4.922a3.577 3.577 0 0 0-2-3.354 3 3 0 0 0 1.3-2.524 3.32 3.32 0 0 0-3.583-3.3 3.366 3.366 0 0 0-3.6 3.3 2.986 2.986 0 0 0 1.332 2.524 3.579 3.579 0 0 0-2.035 3.354 4.3 4.3 0 0 0 8.586.001zm-6.356-5.842a1.9 1.9 0 0 1 2.071-1.875 1.868 1.868 0 0 1 2.052 1.875 1.911 1.911 0 0 1-2.052 1.893 1.949 1.949 0 0 1-2.071-1.891zm-.666 5.842a2.539 2.539 0 0 1 2.737-2.56 2.556 2.556 0 1 1 0 5.1 2.546 2.546 0 0 1-2.737-2.539zm11.34 3.84H153v-12.8h-2.755l-1.26 1.533h2.467v11.269zm11.087 1.983h1.423V66.768h-1.423v14.784zm8.766-1.983h1.728l1.639-3.732h5.959l1.639 3.732h1.747l-5.672-12.8h-1.387zm4.015-5.247l2.323-5.283 2.322 5.283h-4.645zm13.374 5.247h1.3l4.16-9.015h-1.729l-3.079 6.815-3.079-6.815h-1.728zm7.037-4.507a4.508 4.508 0 0 0 4.411 4.688 3.945 3.945 0 0 0 3.169-1.569v1.388h1.549v-9.013h-1.549v1.388a3.945 3.945 0 0 0-3.169-1.569 4.508 4.508 0 0 0-4.411 4.688zm7.706 0a3.076 3.076 0 1 1-3.061-3.263 3.076 3.076 0 0 1 3.061 3.264zm7.108-8.023a1.088 1.088 0 0 0-1.08-1.1 1.119 1.119 0 0 0-1.116 1.1 1.107 1.107 0 0 0 1.116 1.1 1.077 1.077 0 0 0 1.08-1.099zm-1.872 12.531h1.548v-9.014h-1.548v9.015zm5.382 0h1.549V66.046h-1.548v13.523zm4.679-4.507a4.509 4.509 0 0 0 4.412 4.688 3.948 3.948 0 0 0 3.169-1.569v1.388h1.548v-9.014h-1.548v1.388a3.948 3.948 0 0 0-3.169-1.569 4.509 4.509 0 0 0-4.412 4.688zm7.707 0a3.076 3.076 0 1 1-3.061-3.263 3.077 3.077 0 0 1 3.061 3.263zm6.784 3.119a3.945 3.945 0 0 0 3.169 1.569 4.7 4.7 0 0 0 0-9.375 3.945 3.945 0 0 0-3.169 1.569v-5.9h-1.549v13.526h1.549V78.18zm6-3.119a3.067 3.067 0 1 1-3.061-3.263 3.077 3.077 0 0 1 3.057 3.263zm4.695 4.507h1.549V66.046h-1.549v13.523zm4.68-4.507a4.745 4.745 0 0 0 8.714 2.542l-1.224-.847a3.187 3.187 0 0 1-5.924-1.388h7.383a4.407 4.407 0 0 0 .018-.469 4.2 4.2 0 0 0-4.286-4.525 4.565 4.565 0 0 0-4.685 4.687zm4.627-3.318a2.694 2.694 0 0 1 2.755 2.362h-5.708a2.944 2.944 0 0 1 2.949-2.361zm14.6-4.706a1.088 1.088 0 0 0-1.08-1.1 1.119 1.119 0 0 0-1.116 1.1 1.107 1.107 0 0 0 1.116 1.1 1.077 1.077 0 0 0 1.073-1.099zm-1.872 12.531h1.548v-9.014h-1.548v9.015zm5.382 0h1.548V75.1c0-2.11 1.152-3.3 2.611-3.3a2.162 2.162 0 0 1 2.124 2.452v5.319h1.531v-5.555a3.32 3.32 0 0 0-3.4-3.642 3.183 3.183 0 0 0-2.863 1.569v-1.389h-1.548v9.015zm16.793 0h1.549V66.046h-1.549v13.523zm4.68-4.507a4.745 4.745 0 0 0 8.714 2.542l-1.224-.847a3.187 3.187 0 0 1-5.924-1.388h7.383a4.407 4.407 0 0 0 .018-.469 4.2 4.2 0 0 0-4.286-4.525 4.565 4.565 0 0 0-4.687 4.687zm4.627-3.318a2.694 2.694 0 0 1 2.755 2.362h-5.708a2.944 2.944 0 0 1 2.946-2.361zm6.731 3.318a4.508 4.508 0 0 0 4.411 4.688 3.946 3.946 0 0 0 3.169-1.569v1.388h1.548v-9.014h-1.548v1.388a3.947 3.947 0 0 0-3.169-1.569 4.508 4.508 0 0 0-4.418 4.688zm7.706 0a3.076 3.076 0 1 1-3.07-3.261 3.076 3.076 0 0 1 3.063 3.261zm10.115 4.381v-1.388a3.416 3.416 0 0 1-1.1.18 1.3 1.3 0 0 1-1.5-1.532v-4.724h2.593v-1.424h-2.593v-2.506h-1.548v2.506h-1.909v1.424h1.909V76.9a2.536 2.536 0 0 0 2.755 2.759 4.3 4.3 0 0 0 1.386-.216zm2.879.126h1.536V75.1c0-2.11 1.152-3.3 2.611-3.3a2.163 2.163 0 0 1 2.125 2.452v5.319h1.53v-5.555a3.32 3.32 0 0 0-3.4-3.642 3.183 3.183 0 0 0-2.863 1.569v-5.9h-1.548v13.526zm10.8-4.507a4.745 4.745 0 0 0 8.715 2.542l-1.224-.847a3.187 3.187 0 0 1-5.924-1.388h7.382a4.407 4.407 0 0 0 .018-.469 4.2 4.2 0 0 0-4.285-4.525 4.566 4.566 0 0 0-4.69 4.687zm4.628-3.318a2.7 2.7 0 0 1 2.755 2.362h-5.708a2.944 2.944 0 0 1 2.945-2.361zm7.432 7.825h1.549V75.1c0-2.11 1.242-3.1 2.377-3.1a2.259 2.259 0 0 1 .846.144v-1.6a3.2 3.2 0 0 0-.7-.072 2.678 2.678 0 0 0-2.521 1.839v-1.757h-1.549v9.015zm11.628-4.507a4.509 4.509 0 0 0 4.411 4.688 3.945 3.945 0 0 0 3.169-1.569v1.388h1.549v-9.014h-1.549v1.388a3.945 3.945 0 0 0-3.169-1.569 4.509 4.509 0 0 0-4.419 4.688zm7.706 0a3.076 3.076 0 1 1-3.061-3.263 3.076 3.076 0 0 1 3.053 3.263zm5.236 4.507h1.548V75.1c0-2.11 1.153-3.3 2.611-3.3a2.163 2.163 0 0 1 2.125 2.452v5.319h1.53v-5.555a3.32 3.32 0 0 0-3.4-3.642 3.184 3.184 0 0 0-2.863 1.569v-1.389h-1.548v9.015zm10.8-4.507a4.508 4.508 0 0 0 4.411 4.688 3.946 3.946 0 0 0 3.169-1.569v1.388h1.548V66.046h-1.548v5.9a3.947 3.947 0 0 0-3.169-1.569 4.508 4.508 0 0 0-4.419 4.684zm7.706 0a3.076 3.076 0 1 1-3.061-3.263 3.076 3.076 0 0 1 3.053 3.263zm16.361 2c0-1.352-.846-2.218-2.377-2.722l-.972-.325c-1.062-.343-1.386-.685-1.386-1.262a1.274 1.274 0 0 1 1.512-1.046 2.432 2.432 0 0 1 1.909.938l1.008-.974a3.488 3.488 0 0 0-2.881-1.3c-1.782 0-3.043.992-3.043 2.452a2.72 2.72 0 0 0 2.233 2.614l.882.288c1.171.379 1.6.811 1.6 1.442a1.371 1.371 0 0 1-1.585 1.226 2.415 2.415 0 0 1-2.3-1.424l-1.261.685a3.575 3.575 0 0 0 3.529 2.091c1.81.005 3.124-.914 3.124-2.681zm2.986-.974c0 2.236 1.333 3.66 3.313 3.66a3.1 3.1 0 0 0 2.773-1.569v1.388h1.549v-9.012h-1.549v4.471c0 2.073-1.1 3.3-2.5 3.3-1.242 0-2.034-.956-2.034-2.47v-5.3h-1.549v5.535zm10.746-1.028A4.745 4.745 0 0 0 429.6 77.6l-1.225-.847a3.187 3.187 0 0 1-5.924-1.388h7.383a4.407 4.407 0 0 0 .018-.469 4.2 4.2 0 0 0-4.286-4.525 4.565 4.565 0 0 0-4.681 4.69zm4.627-3.318a2.694 2.694 0 0 1 2.755 2.362h-5.715a2.943 2.943 0 0 1 2.952-2.359zm6.731 3.318a4.508 4.508 0 0 0 4.411 4.688 3.945 3.945 0 0 0 3.169-1.569v1.388h1.549v-13.52h-1.549v5.9a3.945 3.945 0 0 0-3.169-1.569 4.508 4.508 0 0 0-4.419 4.684zm7.706 0a3.076 3.076 0 1 1-3.061-3.263 3.076 3.076 0 0 1 3.053 3.265zm4.534 0A4.745 4.745 0 0 0 453.2 77.6l-1.224-.847a3.187 3.187 0 0 1-5.924-1.388h7.382a4.407 4.407 0 0 0 .018-.469 4.2 4.2 0 0 0-4.285-4.525 4.565 4.565 0 0 0-4.684 4.69zm4.627-3.318a2.7 2.7 0 0 1 2.755 2.362h-5.708a2.944 2.944 0 0 1 2.945-2.359zm9.575 6.617a1.332 1.332 0 1 0-1.332 1.352 1.357 1.357 0 0 0 1.324-1.349zm-418.061 39.83V113.1h-4.649v1.392h3.211v3.039a5.014 5.014 0 0 1-3.02.848 4.465 4.465 0 1 1-.192-8.927 4.652 4.652 0 0 1 3.275 1.248l.991-1.072a5.987 5.987 0 0 0-4.266-1.583 5.873 5.873 0 1 0 .192 11.742 6.228 6.228 0 0 0 4.458-1.599zm10.737-2.588a4.178 4.178 0 1 0-4.17 4.159 4.1 4.1 0 0 0 4.17-4.159zm-6.949 0a2.774 2.774 0 1 1 2.78 2.879 2.748 2.748 0 0 1-2.78-2.879zm11.38-7.122a.965.965 0 0 0-.959-.976.993.993 0 0 0-.99.976.982.982 0 0 0 .99.975.955.955 0 0 0 .959-.975zM54.134 119.6h1.374v-8h-1.374v8zm4.777 0h1.374v-3.967c0-1.872 1.022-2.928 2.317-2.928a1.919 1.919 0 0 1 1.885 2.176v4.719h1.358v-4.927a2.946 2.946 0 0 0-3.019-3.232 2.824 2.824 0 0 0-2.54 1.392V111.6h-1.374v8zm17.655-.464V111.6h-1.373v1.232a3.4 3.4 0 0 0-2.78-1.392 4.075 4.075 0 0 0 0 8.143 3.41 3.41 0 0 0 2.78-1.408v.912a2.555 2.555 0 0 1-2.668 2.768 3.416 3.416 0 0 1-2.8-1.344l-.959.96a4.739 4.739 0 0 0 3.77 1.631 3.7 3.7 0 0 0 4.03-3.97zM69.9 115.5a2.7 2.7 0 1 1 2.7 2.8 2.664 2.664 0 0 1-2.7-2.8zm14.748 7.438h1.374v-4.575a3.5 3.5 0 0 0 2.812 1.392 4.167 4.167 0 0 0 0-8.319 3.5 3.5 0 0 0-2.812 1.392V111.6h-1.37v11.342zm6.694-7.342a2.722 2.722 0 1 1-2.716-2.9 2.729 2.729 0 0 1 2.72 2.904zm4.187 4h1.374v-12h-1.37v12zm4.154-4a4 4 0 0 0 3.914 4.159 3.5 3.5 0 0 0 2.811-1.392v1.237h1.374v-8h-1.374v1.232a3.5 3.5 0 0 0-2.811-1.392 4 4 0 0 0-3.909 4.16zm6.837 0a2.729 2.729 0 1 1-2.716-2.9 2.729 2.729 0 0 1 2.721 2.904zm11.9 2.015l-1.2-.672a2.708 2.708 0 0 1-2.493 1.536 2.881 2.881 0 0 1 0-5.759 2.708 2.708 0 0 1 2.493 1.536l1.2-.672a4.16 4.16 0 1 0 .009 4.032zm1.95-2.015a4.21 4.21 0 0 0 7.732 2.255l-1.086-.752a2.827 2.827 0 0 1-5.256-1.232h6.55a3.876 3.876 0 0 0 .016-.415 3.725 3.725 0 0 0-3.8-4.016 4.051 4.051 0 0 0-4.147 4.164zm4.106-2.944a2.391 2.391 0 0 1 2.444 2.1h-5.064a2.612 2.612 0 0 1 2.629-2.099zm11.776 4.719c0-1.2-.751-1.967-2.109-2.415l-.863-.288c-.943-.3-1.23-.608-1.23-1.12a1.131 1.131 0 0 1 1.342-.928 2.156 2.156 0 0 1 1.693.832l.9-.864a3.1 3.1 0 0 0-2.556-1.152c-1.582 0-2.7.88-2.7 2.176a2.412 2.412 0 0 0 1.981 2.319l.783.256c1.038.336 1.422.72 1.422 1.28a1.217 1.217 0 0 1-1.406 1.088 2.143 2.143 0 0 1-2.045-1.264l-1.119.608a3.174 3.174 0 0 0 3.132 1.856c1.617.001 2.784-.815 2.784-2.383zm4.506-1.551h1.374v-.128c0-.608.671-1.04 1.262-1.5a3.584 3.584 0 0 0 1.677-2.88 3.211 3.211 0 0 0-3.291-3.263 3.449 3.449 0 0 0-3.53 3.471h1.373a2.057 2.057 0 0 1 2.157-2.128 1.873 1.873 0 0 1 1.917 1.952c0 .96-.607 1.424-1.485 2.08a3.072 3.072 0 0 0-1.454 2.08v.32zm1.853 2.7a1.182 1.182 0 1 0-1.182 1.2 1.2 1.2 0 0 0 1.191-1.196zm11.968 1.072h1.454v-9.951h3.53v-1.407h-8.515v1.407h3.531v9.959zm7.238 0h1.383v-3.967c0-1.872 1.023-2.928 2.317-2.928a1.919 1.919 0 0 1 1.885 2.176v4.727h1.358v-4.927a2.946 2.946 0 0 0-3.02-3.232 2.824 2.824 0 0 0-2.54 1.392V107.6h-1.374v12zm11.883-11.114a.966.966 0 0 0-.959-.976.993.993 0 0 0-.99.976.982.982 0 0 0 .99.975.956.956 0 0 0 .959-.975zm-1.664 11.122h1.374v-8h-1.374v8zm9.954-2.224c0-1.2-.751-1.967-2.109-2.415l-.863-.288c-.942-.3-1.23-.608-1.23-1.12a1.131 1.131 0 0 1 1.342-.928 2.156 2.156 0 0 1 1.693.832l.895-.864a3.1 3.1 0 0 0-2.556-1.152c-1.582 0-2.7.88-2.7 2.176a2.412 2.412 0 0 0 1.981 2.319l.783.256c1.038.336 1.422.72 1.422 1.28a1.216 1.216 0 0 1-1.406 1.088 2.143 2.143 0 0 1-2.045-1.264l-1.118.608a3.171 3.171 0 0 0 3.131 1.856c1.613-.004 2.78-.82 2.78-2.388zm7.462 2.224h1.374v-3.967c0-1.808.911-2.928 2.205-2.928 1.038 0 1.565.9 1.565 2.192v4.7h1.374v-3.967c0-1.808.9-2.928 2.189-2.928 1.038 0 1.581.9 1.581 2.192v4.7h1.374v-4.911c0-1.952-1.054-3.248-2.8-3.248a2.763 2.763 0 0 0-2.62 1.712 2.513 2.513 0 0 0-2.461-1.712 2.684 2.684 0 0 0-2.412 1.392V111.6h-1.374v8zm16.6-11.118a.965.965 0 0 0-.959-.976.993.993 0 0 0-.99.976.982.982 0 0 0 .99.975.955.955 0 0 0 .96-.979zm-1.66 11.118h1.373v-8h-1.373v8zm4.777 0h1.374v-12h-1.374v12zm6.439-11.118a.966.966 0 0 0-.959-.976.993.993 0 0 0-.99.976.982.982 0 0 0 .99.975.956.956 0 0 0 .959-.979zm-1.662 11.118h1.374v-8h-1.374v8zm9.107-.112v-1.232a3.029 3.029 0 0 1-.974.16 1.151 1.151 0 0 1-1.326-1.36v-4.191h2.3V111.6h-2.3v-2.224h-1.374v2.224h-1.694v1.264h1.694v4.367a2.25 2.25 0 0 0 2.444 2.448 3.815 3.815 0 0 0 1.23-.195zm1.823-3.887a4 4 0 0 0 3.914 4.159 3.5 3.5 0 0 0 2.811-1.392v1.232h1.374v-8H231.6v1.232a3.5 3.5 0 0 0-2.811-1.392 4 4 0 0 0-3.913 4.16zm6.837 0A2.729 2.729 0 1 1 229 112.7a2.729 2.729 0 0 1 2.713 2.9zm4.651 4h1.374v-3.967c0-1.872 1.1-2.752 2.108-2.752a2 2 0 0 1 .751.128v-1.424a2.836 2.836 0 0 0-.623-.064 2.376 2.376 0 0 0-2.236 1.632V111.6h-1.374v8zm8.771 3.343l5.24-11.342h-1.533l-2.732 6.063-2.748-6.063h-1.518l3.5 7.583-1.741 3.759h1.533zm6.983-7.134h4.074v-1.376h-4.074v1.376zm8.882-7.332a.966.966 0 0 0-.959-.976.993.993 0 0 0-.99.976.982.982 0 0 0 .99.975.956.956 0 0 0 .959-.975zm-1.66 11.122h1.374v-8h-1.374v8zm4.778 0h1.374v-3.967c0-1.872 1.022-2.928 2.316-2.928a1.919 1.919 0 0 1 1.885 2.176v4.719h1.358v-4.927a2.946 2.946 0 0 0-3.019-3.232 2.823 2.823 0 0 0-2.54 1.392V111.6h-1.374v8zm15.386-2.224c0-1.2-.751-1.967-2.109-2.415l-.863-.288c-.942-.3-1.23-.608-1.23-1.12a1.131 1.131 0 0 1 1.342-.928 2.159 2.159 0 0 1 1.694.832l.894-.864a3.1 3.1 0 0 0-2.556-1.152c-1.582 0-2.7.88-2.7 2.176a2.412 2.412 0 0 0 1.981 2.319l.783.256c1.038.336 1.422.72 1.422 1.28a1.216 1.216 0 0 1-1.406 1.088 2.144 2.144 0 0 1-2.045-1.264l-1.118.608a3.171 3.171 0 0 0 3.131 1.856c1.614-.004 2.776-.82 2.776-2.388zm2.765 5.567h1.374v-4.575a3.5 3.5 0 0 0 2.811 1.392 4.167 4.167 0 0 0 0-8.319 3.5 3.5 0 0 0-2.811 1.392V111.6h-1.374v11.342zm6.694-7.342a2.722 2.722 0 1 1-2.716-2.9 2.73 2.73 0 0 1 2.716 2.899zm5.848-7.119a.965.965 0 0 0-.958-.976.993.993 0 0 0-.991.976.982.982 0 0 0 .991.975.955.955 0 0 0 .958-.979zM293.15 119.6h1.374v-8h-1.374v8zm4.777 0h1.373v-3.967c0-1.872 1.1-2.752 2.109-2.752a2.009 2.009 0 0 1 .751.128v-1.424a2.848 2.848 0 0 0-.623-.064 2.377 2.377 0 0 0-2.237 1.632V111.6h-1.374v8zm5.737-4a4.21 4.21 0 0 0 7.732 2.255l-1.086-.752a2.828 2.828 0 0 1-5.257-1.232h6.547a3.876 3.876 0 0 0 .016-.415 3.726 3.726 0 0 0-3.8-4.016 4.05 4.05 0 0 0-4.152 4.16zm4.105-2.944a2.392 2.392 0 0 1 2.445 2.1h-5.065a2.613 2.613 0 0 1 2.62-2.103zm5.977 2.944a4 4 0 0 0 3.914 4.159 3.5 3.5 0 0 0 2.812-1.392v1.233h1.373v-12h-1.373v5.231a3.5 3.5 0 0 0-2.812-1.392 4 4 0 0 0-3.914 4.161zm6.837 0a2.729 2.729 0 1 1-2.716-2.9 2.729 2.729 0 0 1 2.716 2.9zm10.722 2.767a3.5 3.5 0 0 0 2.812 1.392 4.167 4.167 0 0 0 0-8.319 3.5 3.5 0 0 0-2.812 1.392V107.6h-1.374v12h1.374v-1.232zm5.32-2.767a2.722 2.722 0 1 1-2.716-2.9 2.729 2.729 0 0 1 2.716 2.9zm11.888 0a4.178 4.178 0 1 0-4.17 4.159 4.1 4.1 0 0 0 4.17-4.159zm-6.95 0a2.774 2.774 0 1 1 2.78 2.879 2.748 2.748 0 0 1-2.78-2.879zm17.431 0a4.178 4.178 0 1 0-4.17 4.159 4.1 4.1 0 0 0 4.17-4.159zm-6.949 0a2.774 2.774 0 1 1 2.779 2.879 2.747 2.747 0 0 1-2.779-2.879zm13.9 3.887v-1.232a3.029 3.029 0 0 1-.974.16 1.151 1.151 0 0 1-1.326-1.36v-4.191h2.3V111.6h-2.3v-2.224h-1.374v2.224h-1.694v1.264h1.694v4.367a2.25 2.25 0 0 0 2.444 2.448 3.815 3.815 0 0 0 1.23-.195zm13.741.112h1.214l2.716-8h-1.454l-1.933 5.839-2-5.839h-1.054l-2 5.839-1.933-5.839h-1.432l2.716 8h1.214l1.981-5.759zm7.878-11.118a.966.966 0 0 0-.959-.976.993.993 0 0 0-.99.976.982.982 0 0 0 .99.975.956.956 0 0 0 .959-.978zM385.9 119.6h1.374v-8H385.9v8zm4.778 0h1.374v-12h-1.372v12zm4.777 0h1.374v-12h-1.374v12zm9.475 0h1.374v-3.967c0-1.872 1.022-2.928 2.316-2.928a1.919 1.919 0 0 1 1.885 2.176v4.719h1.358v-4.927a2.946 2.946 0 0 0-3.019-3.232 2.823 2.823 0 0 0-2.54 1.392V107.6h-1.374v12zm9.587-4a4.21 4.21 0 0 0 7.732 2.255l-1.086-.752a2.827 2.827 0 0 1-5.256-1.232h6.55a3.876 3.876 0 0 0 .016-.415 3.726 3.726 0 0 0-3.8-4.016 4.05 4.05 0 0 0-4.154 4.16zm4.105-2.944a2.391 2.391 0 0 1 2.445 2.1H416a2.613 2.613 0 0 1 2.624-2.103zm6.6 6.943h1.378v-12h-1.374v12zm4.778 3.34h1.374v-4.575a3.5 3.5 0 0 0 2.812 1.392 4.167 4.167 0 0 0 0-8.319 3.5 3.5 0 0 0-2.812 1.392V111.6H430v11.342zm6.7-7.339a2.722 2.722 0 1 1-2.716-2.9 2.729 2.729 0 0 1 2.716 2.9zm10.642 7.342l5.24-11.342h-1.533l-2.732 6.063-2.748-6.063h-1.518l3.5 7.583-1.741 3.759h1.533zm14.955-7.342a4.178 4.178 0 1 0-4.169 4.159 4.1 4.1 0 0 0 4.164-4.159zm-6.949 0a2.774 2.774 0 1 1 2.78 2.879 2.748 2.748 0 0 1-2.785-2.879zm9.6.911c0 1.984 1.182 3.248 2.939 3.248a2.746 2.746 0 0 0 2.46-1.392v1.233h1.374v-8h-1.374v3.968c0 1.839-.974 2.927-2.22 2.927-1.1 0-1.806-.848-1.806-2.192v-4.7h-1.373v4.911zm14.859 3.088h1.374v-3.967c0-1.872 1.022-2.928 2.316-2.928a1.919 1.919 0 0 1 1.886 2.176v4.72h1.358v-4.927a2.947 2.947 0 0 0-3.02-3.232 2.824 2.824 0 0 0-2.54 1.392V111.6h-1.374v8zm9.587-4a4 4 0 0 0 3.914 4.159 3.5 3.5 0 0 0 2.812-1.392v1.234h1.374v-8h-1.374v1.232a3.5 3.5 0 0 0-2.812-1.392 4 4 0 0 0-3.916 4.16zm6.838 0a2.729 2.729 0 1 1-2.716-2.9 2.73 2.73 0 0 1 2.714 2.901zm7.142 4h1.15l3.691-8h-1.534l-2.732 6.047-2.732-6.047h-1.533zm8.692-11.118a.965.965 0 0 0-.958-.976.994.994 0 0 0-.991.976.983.983 0 0 0 .991.975.955.955 0 0 0 .956-.978zM510.4 119.6h1.374v-8H510.4v8zm12.222-.464V111.6h-1.374v1.232a3.4 3.4 0 0 0-2.78-1.392 4.075 4.075 0 0 0 0 8.143 3.41 3.41 0 0 0 2.78-1.408v.912a2.555 2.555 0 0 1-2.668 2.768 3.416 3.416 0 0 1-2.8-1.344l-.958.96a4.739 4.739 0 0 0 3.77 1.631 3.7 3.7 0 0 0 4.033-3.97zm-6.662-3.631a2.7 2.7 0 1 1 2.7 2.8 2.664 2.664 0 0 1-2.697-2.805zm9.427.1a4 4 0 0 0 3.914 4.159 3.5 3.5 0 0 0 2.812-1.392v1.228h1.374v-8h-1.374v1.232a3.5 3.5 0 0 0-2.812-1.392 4 4 0 0 0-3.911 4.16zm6.838 0a2.729 2.729 0 1 1-2.716-2.9 2.729 2.729 0 0 1 2.719 2.895zm8.98 3.887v-1.232a3.035 3.035 0 0 1-.975.16 1.151 1.151 0 0 1-1.326-1.36v-4.191h2.3V111.6h-2.3v-2.224h-1.374v2.224h-1.69v1.264h1.693v4.367a2.251 2.251 0 0 0 2.445 2.448 3.82 3.82 0 0 0 1.23-.195zm1.822-3.887a4.21 4.21 0 0 0 7.733 2.255l-1.087-.752a2.827 2.827 0 0 1-5.256-1.232h6.55a3.876 3.876 0 0 0 .016-.415 3.725 3.725 0 0 0-3.8-4.016 4.051 4.051 0 0 0-4.153 4.155zm4.106-2.944a2.39 2.39 0 0 1 2.444 2.1h-5.064a2.613 2.613 0 0 1 2.623-2.108zm15.355 6.831v-1.232a3.035 3.035 0 0 1-.975.16 1.151 1.151 0 0 1-1.326-1.36v-4.191h2.3V111.6h-2.3v-2.224h-1.374v2.224h-1.693v1.264h1.693v4.367a2.251 2.251 0 0 0 2.445 2.448 3.82 3.82 0 0 0 1.233-.195zm2.557.112h1.374v-3.967c0-1.872 1.022-2.928 2.316-2.928a1.919 1.919 0 0 1 1.885 2.176v4.715h1.358v-4.927a2.946 2.946 0 0 0-3.019-3.232 2.823 2.823 0 0 0-2.54 1.392V107.6h-1.374v12zm9.587-4a4.21 4.21 0 0 0 7.732 2.255l-1.086-.752a2.827 2.827 0 0 1-5.256-1.232h6.55a3.876 3.876 0 0 0 .016-.415 3.726 3.726 0 0 0-3.8-4.016 4.05 4.05 0 0 0-4.153 4.156zm4.105-2.944a2.391 2.391 0 0 1 2.445 2.1h-5.062a2.613 2.613 0 0 1 2.62-2.107zM30.519 136.508c0 1.984 1.182 3.248 2.94 3.248a2.747 2.747 0 0 0 2.46-1.392v1.236h1.374v-8h-1.374v3.968c0 1.839-.974 2.927-2.221 2.927-1.1 0-1.805-.848-1.805-2.192v-4.7h-1.374v4.911zm10.162 3.092h1.374v-3.967c0-1.872 1.1-2.752 2.109-2.752a2.006 2.006 0 0 1 .751.128v-1.424a2.843 2.843 0 0 0-.623-.064 2.377 2.377 0 0 0-2.237 1.632V131.6h-1.374v8zm8.021-1.232a3.5 3.5 0 0 0 2.812 1.392 4.167 4.167 0 0 0 0-8.319 3.5 3.5 0 0 0-2.812 1.392V127.6h-1.374v12H48.7v-1.232zm5.32-2.767a2.722 2.722 0 1 1-2.716-2.9 2.729 2.729 0 0 1 2.716 2.899zm3.548 0a4 4 0 0 0 3.914 4.159 3.5 3.5 0 0 0 2.812-1.392v1.232h1.374v-8H64.3v1.232a3.5 3.5 0 0 0-2.812-1.392 4 4 0 0 0-3.918 4.16zm6.838 0a2.729 2.729 0 1 1-2.716-2.9 2.729 2.729 0 0 1 2.715 2.899zm4.65 4h1.374v-3.967c0-1.872 1.022-2.928 2.316-2.928a1.919 1.919 0 0 1 1.885 2.176v4.718h1.358v-4.927a2.946 2.946 0 0 0-3.019-3.232 2.824 2.824 0 0 0-2.54 1.392V131.6h-1.374v8zm16.7-11.118a.966.966 0 0 0-.958-.983.993.993 0 0 0-.99.976.982.982 0 0 0 .99.975.955.955 0 0 0 .954-.973zm-.291 3.117h-1.374v8.895a1.129 1.129 0 0 1-1.23 1.36 3.5 3.5 0 0 1-.463-.032v1.231a4.055 4.055 0 0 0 .655.048 2.241 2.241 0 0 0 2.412-2.447V131.6zm3.292 4.911c0 1.984 1.182 3.248 2.94 3.248a2.747 2.747 0 0 0 2.46-1.392v1.233h1.374v-8h-1.375v3.968c0 1.839-.975 2.927-2.221 2.927-1.1 0-1.805-.848-1.805-2.192v-4.7h-1.374v4.911zm10.162 3.089h1.373v-3.967c0-1.872 1.023-2.928 2.317-2.928a1.919 1.919 0 0 1 1.885 2.176v4.719h1.358v-4.927a2.946 2.946 0 0 0-3.019-3.232 2.825 2.825 0 0 0-2.541 1.392V131.6h-1.373v8zm17.655-.464V131.6H115.2v1.232a3.4 3.4 0 0 0-2.78-1.392 4.075 4.075 0 0 0 0 8.143 3.408 3.408 0 0 0 2.78-1.408v.912a2.555 2.555 0 0 1-2.668 2.768 3.417 3.417 0 0 1-2.8-1.344l-.958.96a4.739 4.739 0 0 0 3.77 1.631 3.7 3.7 0 0 0 4.031-3.97zm-6.662-3.631a2.7 2.7 0 1 1 2.7 2.8 2.664 2.664 0 0 1-2.701-2.805zm10.05 4.095h1.374v-12h-1.374v12zm4.155-4a4.21 4.21 0 0 0 7.732 2.255l-1.086-.752a2.827 2.827 0 0 1-5.256-1.232h6.55a3.876 3.876 0 0 0 .016-.415 3.725 3.725 0 0 0-3.8-4.016 4.051 4.051 0 0 0-4.157 4.16zm4.106-2.944a2.391 2.391 0 0 1 2.444 2.1H125.6a2.611 2.611 0 0 1 2.624-2.103zm12.958-4.175a.965.965 0 0 0-.959-.976.993.993 0 0 0-.99.976.982.982 0 0 0 .99.975.955.955 0 0 0 .958-.978zM139.52 139.6h1.374v-8h-1.374v8zm4.778 0h1.374v-3.967c0-1.872 1.022-2.928 2.316-2.928a1.919 1.919 0 0 1 1.885 2.176v4.719h1.358v-4.927a2.946 2.946 0 0 0-3.019-3.232 2.824 2.824 0 0 0-2.54 1.392V131.6H144.3v8zm20.083-2.224c0-1.2-.75-1.967-2.108-2.415l-.863-.288c-.943-.3-1.23-.608-1.23-1.12a1.131 1.131 0 0 1 1.342-.928 2.156 2.156 0 0 1 1.693.832l.9-.864a3.1 3.1 0 0 0-2.556-1.152c-1.582 0-2.7.88-2.7 2.176a2.412 2.412 0 0 0 1.981 2.319l.783.256c1.038.336 1.421.72 1.421 1.28a1.216 1.216 0 0 1-1.405 1.088 2.143 2.143 0 0 1-2.045-1.264l-1.119.608a3.174 3.174 0 0 0 3.132 1.856c1.608-.004 2.774-.82 2.774-2.388zm7 2.112v-1.232a3.035 3.035 0 0 1-.975.16 1.151 1.151 0 0 1-1.326-1.36v-4.191h2.3V131.6h-2.3v-2.224h-1.374v2.224h-1.693v1.264h1.693v4.367a2.251 2.251 0 0 0 2.445 2.448 3.82 3.82 0 0 0 1.229-.195zm4.682 3.455L181.3 131.6h-1.534l-2.732 6.063-2.748-6.063h-1.517l3.5 7.583-1.741 3.759h1.534zm7.414-3.343h1.374v-12h-1.374v12zm4.154-4a4.21 4.21 0 0 0 7.733 2.255l-1.087-.752a2.827 2.827 0 0 1-5.256-1.232h6.55a3.876 3.876 0 0 0 .016-.415 3.725 3.725 0 0 0-3.8-4.016 4.051 4.051 0 0 0-4.157 4.16zm4.106-2.944a2.39 2.39 0 0 1 2.444 2.1h-5.064a2.613 2.613 0 0 1 2.619-2.103zm8.5 5.871a1.183 1.183 0 1 0-1.183 1.2 1.205 1.205 0 0 0 1.183-1.203zm18.773-4.607a5.864 5.864 0 1 0-5.864 5.871 5.811 5.811 0 0 0 5.864-5.874zm-10.225 0a4.37 4.37 0 1 1 4.361 4.463 4.352 4.352 0 0 1-4.361-4.466zm12.927 2.591c0 1.984 1.182 3.248 2.939 3.248a2.746 2.746 0 0 0 2.46-1.392v1.233h1.374v-8h-1.374v3.968c0 1.839-.974 2.927-2.22 2.927-1.1 0-1.8-.848-1.8-2.192v-4.7h-1.374v4.911zm10.162 3.088h1.374v-3.967c0-1.872 1.1-2.752 2.108-2.752a2 2 0 0 1 .751.128v-1.424a2.836 2.836 0 0 0-.623-.064 2.376 2.376 0 0 0-2.236 1.632V131.6h-1.374v8zm11.408 0h1.374v-6.735h2.317V131.6h-2.317v-1.472a1.15 1.15 0 0 1 1.326-1.359 3.246 3.246 0 0 1 .991.159v-1.218a3.63 3.63 0 0 0-1.247-.208 2.283 2.283 0 0 0-2.444 2.479v1.619h-1.693v1.264h1.693v6.736zm6.854-11.118a.966.966 0 0 0-.959-.976.993.993 0 0 0-.99.976.982.982 0 0 0 .99.975.956.956 0 0 0 .959-.978zm-1.662 11.119h1.374v-8h-1.374v8zm4.762 0h1.374v-3.967c0-1.872 1.1-2.752 2.109-2.752a2.006 2.006 0 0 1 .751.128v-1.424a2.842 2.842 0 0 0-.623-.064 2.377 2.377 0 0 0-2.237 1.632V131.6h-1.374v8zm11.68-2.224c0-1.2-.751-1.967-2.109-2.415l-.863-.288c-.942-.3-1.23-.608-1.23-1.12a1.131 1.131 0 0 1 1.342-.928 2.159 2.159 0 0 1 1.694.832l.894-.864a3.1 3.1 0 0 0-2.556-1.152c-1.581 0-2.7.88-2.7 2.176a2.412 2.412 0 0 0 1.981 2.319l.783.256c1.039.336 1.422.72 1.422 1.28a1.216 1.216 0 0 1-1.406 1.088 2.144 2.144 0 0 1-2.045-1.264l-1.118.608a3.171 3.171 0 0 0 3.131 1.856c1.614-.004 2.78-.82 2.78-2.388zm7 2.112v-1.232a3.04 3.04 0 0 1-.975.16 1.151 1.151 0 0 1-1.326-1.36v-4.191h2.3V131.6h-2.3v-2.224h-1.375v2.224h-1.693v1.264h1.693v4.367a2.25 2.25 0 0 0 2.444 2.448 3.822 3.822 0 0 0 1.231-.195zm9.395.112h1.15l3.691-8h-1.534l-2.732 6.047-2.732-6.047h-1.534zm6.232-4a4.21 4.21 0 0 0 7.732 2.255l-1.086-.752a2.827 2.827 0 0 1-5.256-1.232h6.55a3.876 3.876 0 0 0 .016-.415 3.725 3.725 0 0 0-3.8-4.016 4.051 4.051 0 0 0-4.157 4.16zm4.106-2.944a2.391 2.391 0 0 1 2.444 2.1h-5.064a2.612 2.612 0 0 1 2.619-2.103zm6.6 6.943h1.374v-3.967c0-1.872 1.1-2.752 2.109-2.752a2.006 2.006 0 0 1 .751.128v-1.424a2.848 2.848 0 0 0-.623-.064 2.377 2.377 0 0 0-2.237 1.632V131.6h-1.374v8zm11.68-2.224c0-1.2-.751-1.967-2.109-2.415l-.863-.288c-.942-.3-1.23-.608-1.23-1.12a1.131 1.131 0 0 1 1.342-.928 2.156 2.156 0 0 1 1.693.832l.895-.864a3.1 3.1 0 0 0-2.556-1.152c-1.582 0-2.7.88-2.7 2.176a2.412 2.412 0 0 0 1.981 2.319l.783.256c1.038.336 1.422.72 1.422 1.28a1.216 1.216 0 0 1-1.406 1.088 2.143 2.143 0 0 1-2.045-1.264l-1.118.608a3.171 3.171 0 0 0 3.131 1.856c1.611-.003 2.778-.819 2.778-2.387zm4.426-8.894a.965.965 0 0 0-.959-.976.993.993 0 0 0-.99.976.982.982 0 0 0 .99.975.955.955 0 0 0 .957-.978zm-1.663 11.119h1.374v-8h-1.374v8zm12.493-4a4.178 4.178 0 1 0-4.169 4.159 4.1 4.1 0 0 0 4.169-4.159zm-6.949 0a2.774 2.774 0 1 1 2.78 2.879 2.748 2.748 0 0 1-2.78-2.879zm9.714 4h1.374v-3.967c0-1.872 1.023-2.928 2.317-2.928a1.919 1.919 0 0 1 1.885 2.176v4.719h1.358v-4.927a2.946 2.946 0 0 0-3.019-3.232 2.825 2.825 0 0 0-2.541 1.392V131.6h-1.374v8zm14.285-4a4 4 0 0 0 3.914 4.159 3.5 3.5 0 0 0 2.812-1.392v1.233h1.374v-8h-1.374v1.232a3.5 3.5 0 0 0-2.812-1.392 4 4 0 0 0-3.914 4.16zm6.837 0a2.729 2.729 0 1 1-2.715-2.9 2.729 2.729 0 0 1 2.715 2.9zm4.651 7.342h1.377v-4.575a3.5 3.5 0 0 0 2.812 1.392 4.167 4.167 0 0 0 0-8.319 3.5 3.5 0 0 0-2.812 1.392V131.6h-1.374v11.342zm6.694-7.342a2.722 2.722 0 1 1-2.716-2.9 2.73 2.73 0 0 1 2.716 2.9zm4.187 7.342h1.374v-4.575a3.5 3.5 0 0 0 2.812 1.392 4.167 4.167 0 0 0 0-8.319 3.5 3.5 0 0 0-2.812 1.392V131.6H364.6v11.342zm6.696-7.342a2.722 2.722 0 1 1-2.716-2.9 2.729 2.729 0 0 1 2.716 2.9zm3.564 0a4.21 4.21 0 0 0 7.732 2.255l-1.086-.752a2.827 2.827 0 0 1-5.256-1.232h6.55a3.876 3.876 0 0 0 .016-.415 3.725 3.725 0 0 0-3.8-4.016 4.051 4.051 0 0 0-4.158 4.16zm4.106-2.944a2.391 2.391 0 0 1 2.444 2.1h-5.064a2.612 2.612 0 0 1 2.618-2.103zm5.976 2.944a4 4 0 0 0 3.914 4.159 3.5 3.5 0 0 0 2.812-1.392v1.233h1.374v-8h-1.376v1.232a3.5 3.5 0 0 0-2.812-1.392 4 4 0 0 0-3.914 4.16zm6.838 0a2.729 2.729 0 1 1-2.716-2.9 2.729 2.729 0 0 1 2.714 2.9zm4.65 4h1.374v-3.967c0-1.872 1.1-2.752 2.109-2.752a2.006 2.006 0 0 1 .751.128v-1.424a2.842 2.842 0 0 0-.623-.064 2.377 2.377 0 0 0-2.237 1.632V131.6h-1.374v8zm5.737-4a4.21 4.21 0 0 0 7.732 2.255l-1.086-.752a2.827 2.827 0 0 1-5.256-1.232h6.55a3.876 3.876 0 0 0 .016-.415 3.726 3.726 0 0 0-3.8-4.016 4.05 4.05 0 0 0-4.158 4.16zm4.105-2.944a2.391 2.391 0 0 1 2.445 2.1h-5.065a2.613 2.613 0 0 1 2.618-2.103zm5.977 2.944a4 4 0 0 0 3.914 4.159 3.5 3.5 0 0 0 2.812-1.392v1.233h1.374v-12h-1.374v5.231a3.5 3.5 0 0 0-2.812-1.392 4 4 0 0 0-3.916 4.161zm6.838 0a2.729 2.729 0 1 1-2.716-2.9 2.73 2.73 0 0 1 2.714 2.9zm11.009-7.119a.965.965 0 0 0-.959-.976.993.993 0 0 0-.99.976.982.982 0 0 0 .99.975.955.955 0 0 0 .959-.978zm-1.664 11.119h1.374v-8h-1.374v8zm4.778 0h1.374v-3.967c0-1.872 1.022-2.928 2.316-2.928a1.919 1.919 0 0 1 1.885 2.176v4.719h1.358v-4.927a2.946 2.946 0 0 0-3.019-3.232 2.823 2.823 0 0 0-2.54 1.392V131.6h-1.374v8zm18.965-.112v-1.232a3.035 3.035 0 0 1-.975.16 1.151 1.151 0 0 1-1.326-1.36v-4.191h2.3V131.6h-2.3v-2.224h-1.373v2.224h-1.694v1.264h1.694v4.367a2.25 2.25 0 0 0 2.444 2.448 3.815 3.815 0 0 0 1.23-.195zm2.557.112h1.374v-3.967c0-1.872 1.022-2.928 2.317-2.928a1.919 1.919 0 0 1 1.885 2.176v4.719h1.358v-4.927a2.946 2.946 0 0 0-3.02-3.232 2.824 2.824 0 0 0-2.54 1.392V127.6h-1.374v12zm9.587-4a4.21 4.21 0 0 0 7.732 2.255l-1.086-.752a2.827 2.827 0 0 1-5.256-1.232h6.55a3.876 3.876 0 0 0 .016-.415 3.725 3.725 0 0 0-3.8-4.016 4.051 4.051 0 0 0-4.156 4.16zm4.106-2.944a2.391 2.391 0 0 1 2.444 2.1h-5.064a2.612 2.612 0 0 1 2.62-2.103zm12.287 6.943h1.374v-11.361h-2.444l-1.119 1.359h2.189v10zm4.858 0h1.757l4.154-4.911a4.366 4.366 0 0 0 1.278-2.9 3.843 3.843 0 0 0-7.685.048 3.668 3.668 0 0 0 3.547 3.648 2.026 2.026 0 0 0 .447-.032zm.91-7.775a2.437 2.437 0 1 1 2.429 2.448 2.413 2.413 0 0 1-2.429-2.451zm15.994 4.367a3.174 3.174 0 0 0-1.774-2.975 2.661 2.661 0 0 0 1.151-2.24 2.946 2.946 0 0 0-3.18-2.927 2.986 2.986 0 0 0-3.195 2.927 2.649 2.649 0 0 0 1.182 2.24 3.175 3.175 0 0 0-1.8 2.975 3.819 3.819 0 0 0 7.616-.003zm-5.64-5.183a1.69 1.69 0 0 1 1.837-1.664 1.658 1.658 0 0 1 1.822 1.664 1.7 1.7 0 0 1-1.822 1.68 1.73 1.73 0 0 1-1.837-1.683zm-.591 5.183a2.253 2.253 0 0 1 2.428-2.271 2.268 2.268 0 1 1 0 4.527 2.259 2.259 0 0 1-2.428-2.259zm10.066 3.408h1.374v-11.361h-2.444l-1.119 1.359h2.189v10zm16.92-1.984l-1.2-.672a2.708 2.708 0 0 1-2.492 1.536 2.881 2.881 0 0 1 0-5.759 2.708 2.708 0 0 1 2.492 1.536l1.2-.672a4.16 4.16 0 1 0 0 4.028zm1.95-2.015a4 4 0 0 0 3.914 4.159 3.5 3.5 0 0 0 2.812-1.392v1.233h1.374v-8h-1.374v1.232a3.5 3.5 0 0 0-2.812-1.392 4 4 0 0 0-3.914 4.16zm6.838 0a2.729 2.729 0 1 1-2.716-2.9 2.729 2.729 0 0 1 2.716 2.9zm8.98 3.887v-1.232a3.035 3.035 0 0 1-.975.16 1.151 1.151 0 0 1-1.326-1.36v-4.191h2.3V131.6h-2.3v-2.224h-1.374v2.224h-1.693v1.264h1.693v4.367a2.251 2.251 0 0 0 2.445 2.448 3.82 3.82 0 0 0 1.229-.195zm1.822-3.887a4 4 0 0 0 3.914 4.159 3.5 3.5 0 0 0 2.812-1.392v1.233h1.374v-8h-1.374v1.232a3.5 3.5 0 0 0-2.812-1.392 4 4 0 0 0-3.914 4.16zm6.838 0a2.729 2.729 0 1 1-2.716-2.9 2.729 2.729 0 0 1 2.716 2.9zm4.65 4h1.374v-12h-1.374v12zm12.494-4a4.178 4.178 0 1 0-4.17 4.159 4.1 4.1 0 0 0 4.165-4.159zm-6.949 0a2.774 2.774 0 1 1 2.779 2.879 2.747 2.747 0 0 1-2.779-2.879zm17.159 3.535V131.6h-1.374v1.232a3.4 3.4 0 0 0-2.78-1.392 4.075 4.075 0 0 0 0 8.143 3.408 3.408 0 0 0 2.78-1.408v.912a2.555 2.555 0 0 1-2.668 2.768 3.416 3.416 0 0 1-2.8-1.344l-.958.96a4.739 4.739 0 0 0 3.77 1.631 3.7 3.7 0 0 0 4.03-3.97zm-6.662-3.631a2.7 2.7 0 1 1 2.7 2.8 2.664 2.664 0 0 1-2.7-2.804zm14.125.1a4 4 0 0 0 3.914 4.159 3.5 3.5 0 0 0 2.812-1.392v1.229h1.373v-8H591.2v1.232a3.5 3.5 0 0 0-2.812-1.392 4 4 0 0 0-3.91 4.16zm6.837 0a2.729 2.729 0 1 1-2.716-2.9 2.729 2.729 0 0 1 2.716 2.896zm9.827 1.775c0-1.2-.751-1.967-2.109-2.415l-.863-.288c-.942-.3-1.23-.608-1.23-1.12a1.131 1.131 0 0 1 1.342-.928 2.159 2.159 0 0 1 1.694.832l.894-.864a3.1 3.1 0 0 0-2.556-1.152c-1.581 0-2.7.88-2.7 2.176a2.412 2.412 0 0 0 1.981 2.319l.783.256c1.039.336 1.422.72 1.422 1.28a1.216 1.216 0 0 1-1.406 1.088 2.144 2.144 0 0 1-2.045-1.264l-1.118.608a3.171 3.171 0 0 0 3.131 1.856c1.614-.007 2.78-.823 2.78-2.391zm6.839-1.775a4 4 0 0 0 3.914 4.159 3.5 3.5 0 0 0 2.812-1.392v1.229h1.374v-8h-1.374v1.232a3.5 3.5 0 0 0-2.812-1.392 4 4 0 0 0-3.914 4.16zm6.838 0a2.729 2.729 0 1 1-2.716-2.9 2.729 2.729 0 0 1 2.716 2.896zm-583.981 24h1.486v-5.1h4.042v-1.408h-4.042v-3.44h5.112v-1.407h-6.6V159.6zm8.58 0h1.374v-3.967c0-1.872 1.1-2.752 2.109-2.752a2.005 2.005 0 0 1 .751.128v-1.424a2.841 2.841 0 0 0-.623-.064 2.377 2.377 0 0 0-2.237 1.632V151.6h-1.373v8zm5.736-4a4.21 4.21 0 0 0 7.732 2.255L51.8 157.1a2.827 2.827 0 0 1-5.256-1.232H53.1a3.9 3.9 0 0 0 .016-.415 3.725 3.725 0 0 0-3.8-4.016 4.051 4.051 0 0 0-4.161 4.163zm4.106-2.944a2.391 2.391 0 0 1 2.444 2.1h-5.063a2.612 2.612 0 0 1 2.62-2.107zm6.6 6.943h1.374v-3.967c0-1.872 1.022-2.928 2.316-2.928a1.919 1.919 0 0 1 1.885 2.176v4.716h1.358v-4.927a2.946 2.946 0 0 0-3.019-3.232 2.824 2.824 0 0 0-2.54 1.392V151.6H55.86v8zm17.463-1.984l-1.2-.672a2.708 2.708 0 0 1-2.492 1.536 2.881 2.881 0 0 1 0-5.759 2.708 2.708 0 0 1 2.492 1.536l1.2-.672a4.16 4.16 0 1 0 0 4.024zM75.9 159.6h1.374v-3.967c0-1.872 1.023-2.928 2.317-2.928a1.919 1.919 0 0 1 1.885 2.176v4.719h1.354v-4.927a2.946 2.946 0 0 0-3.019-3.232 2.824 2.824 0 0 0-2.54 1.392V147.6H75.9v12zm15.115 0H92.5v-5.1h4.042v-1.408H92.5v-3.44h5.11v-1.407h-6.6V159.6zm16.184-4a4.178 4.178 0 1 0-4.169 4.159 4.1 4.1 0 0 0 4.17-4.159zm-6.949 0a2.774 2.774 0 1 1 2.78 2.879 2.748 2.748 0 0 1-2.783-2.879zm9.715 4h1.374v-3.967c0-1.872 1.1-2.752 2.108-2.752a2 2 0 0 1 .751.128v-1.424a2.836 2.836 0 0 0-.623-.064 2.376 2.376 0 0 0-2.236 1.632V151.6h-1.374v8zm5.736-4a4.21 4.21 0 0 0 7.732 2.255l-1.086-.752a2.827 2.827 0 0 1-5.256-1.232h6.55a3.876 3.876 0 0 0 .016-.415 3.725 3.725 0 0 0-3.8-4.016 4.051 4.051 0 0 0-4.157 4.16zm4.106-2.944a2.391 2.391 0 0 1 2.444 2.1h-5.064a2.612 2.612 0 0 1 2.613-2.103zm8.261-4.175a.966.966 0 0 0-.959-.976.993.993 0 0 0-.99.976.982.982 0 0 0 .99.975.956.956 0 0 0 .956-.978zM126.4 159.6h1.374v-8H126.4v8zm12.222-.464V151.6h-1.374v1.232a3.4 3.4 0 0 0-2.779-1.392 4.075 4.075 0 0 0 0 8.143 3.408 3.408 0 0 0 2.779-1.408v.912a2.555 2.555 0 0 1-2.668 2.768 3.414 3.414 0 0 1-2.795-1.344l-.959.96a4.739 4.739 0 0 0 3.77 1.631 3.7 3.7 0 0 0 4.029-3.97zm-6.662-3.631a2.7 2.7 0 1 1 2.7 2.8 2.664 2.664 0 0 1-2.697-2.805zm10.051 4.095h1.374v-3.967c0-1.872 1.022-2.928 2.316-2.928a1.919 1.919 0 0 1 1.885 2.176v4.719h1.358v-4.927a2.946 2.946 0 0 0-3.019-3.232 2.823 2.823 0 0 0-2.54 1.392V151.6h-1.374v8zm15.115 0h6.965v-1.408h-5.48v-9.95h-1.485V159.6zm8.468-4a4.21 4.21 0 0 0 7.733 2.255l-1.087-.752a2.827 2.827 0 0 1-5.256-1.232h6.55a3.876 3.876 0 0 0 .016-.415 3.725 3.725 0 0 0-3.8-4.016 4.051 4.051 0 0 0-4.15 4.16zm4.106-2.944a2.39 2.39 0 0 1 2.444 2.1h-5.064a2.613 2.613 0 0 1 2.62-2.103zm14.044 6.479V151.6h-1.374v1.232a3.4 3.4 0 0 0-2.779-1.392 4.075 4.075 0 0 0 0 8.143 3.408 3.408 0 0 0 2.779-1.408v.912a2.555 2.555 0 0 1-2.668 2.768 3.414 3.414 0 0 1-2.8-1.344l-.959.96a4.739 4.739 0 0 0 3.77 1.631 3.7 3.7 0 0 0 4.034-3.97zm-6.662-3.631a2.7 2.7 0 1 1 2.7 2.8 2.664 2.664 0 0 1-2.697-2.804zm11.712-7.023a.965.965 0 0 0-.958-.976.993.993 0 0 0-.991.976.982.982 0 0 0 .991.975.955.955 0 0 0 .964-.978zm-1.658 11.119h1.374v-8h-1.374v8zm12.493-4a4.178 4.178 0 1 0-4.169 4.159 4.1 4.1 0 0 0 4.169-4.159zm-6.949 0a2.774 2.774 0 1 1 2.78 2.879 2.748 2.748 0 0 1-2.78-2.879zm9.715 4h1.373v-3.967c0-1.872 1.023-2.928 2.317-2.928a1.919 1.919 0 0 1 1.885 2.176v4.719h1.358v-4.927a2.946 2.946 0 0 0-3.019-3.232 2.825 2.825 0 0 0-2.541 1.392V151.6H202.4v8zm15.115 0h4.057c2.3 0 3.8-1.424 3.8-3.312a2.706 2.706 0 0 0-1.965-2.719 2.575 2.575 0 0 0 1.214-2.32 3.107 3.107 0 0 0-3.387-3.007h-3.719V159.6zm1.49-6.483v-3.536h2.237a1.785 1.785 0 0 1 1.933 1.776 1.747 1.747 0 0 1-1.933 1.76H219zm0 5.135V154.4h2.652c1.5 0 2.269.832 2.269 1.935 0 1.12-.767 1.92-2.285 1.92H219zm16.872-2.655a4.178 4.178 0 1 0-4.169 4.159 4.1 4.1 0 0 0 4.164-4.156zm-6.949 0a2.774 2.774 0 1 1 2.78 2.879 2.748 2.748 0 0 1-2.785-2.876zm17.431 0a4.178 4.178 0 1 0-4.17 4.159 4.1 4.1 0 0 0 4.165-4.156zm-6.95 0a2.774 2.774 0 1 1 2.78 2.879 2.748 2.748 0 0 1-2.784-2.876zm13.9 3.887v-1.232a3.035 3.035 0 0 1-.975.16 1.151 1.151 0 0 1-1.326-1.36v-4.191h2.3V151.6H251v-2.224h-1.373v2.224h-1.694v1.264h1.694v4.367a2.25 2.25 0 0 0 2.444 2.448 3.815 3.815 0 0 0 1.229-.195zm2.11-3.68h8.068v-1.375h-8.072v1.371zm16.377 1.568c0-1.2-.751-1.967-2.109-2.415l-.863-.288c-.942-.3-1.23-.608-1.23-1.12a1.131 1.131 0 0 1 1.342-.928 2.156 2.156 0 0 1 1.693.832l.895-.864a3.1 3.1 0 0 0-2.556-1.152c-1.582 0-2.7.88-2.7 2.176a2.412 2.412 0 0 0 1.981 2.319l.783.256c1.038.336 1.422.72 1.422 1.28a1.216 1.216 0 0 1-1.406 1.088 2.143 2.143 0 0 1-2.045-1.264l-1.118.608a3.171 3.171 0 0 0 3.131 1.856c1.609 0 2.776-.816 2.776-2.384zm4.426-8.894a.965.965 0 0 0-.959-.976.993.993 0 0 0-.99.976.982.982 0 0 0 .99.975.955.955 0 0 0 .955-.975zm-1.665 11.122h1.373v-8h-1.373v8zm4.777 0h1.371v-3.967c0-1.872 1.022-2.928 2.316-2.928a1.919 1.919 0 0 1 1.886 2.176v4.719h1.357v-4.927a2.946 2.946 0 0 0-3.019-3.232 2.824 2.824 0 0 0-2.54 1.392V151.6h-1.374v8zm17.463-1.984l-1.2-.672a2.708 2.708 0 0 1-2.493 1.536 2.881 2.881 0 0 1 0-5.759 2.708 2.708 0 0 1 2.493 1.536l1.2-.672a4.16 4.16 0 1 0 0 4.027zm1.95-2.015a4.21 4.21 0 0 0 7.733 2.255l-1.087-.752a2.827 2.827 0 0 1-5.256-1.232h6.55a3.876 3.876 0 0 0 .016-.415 3.725 3.725 0 0 0-3.8-4.016 4.051 4.051 0 0 0-4.156 4.159zm4.106-2.944a2.39 2.39 0 0 1 2.444 2.1h-5.064a2.613 2.613 0 0 1 2.62-2.104zm11.3 10.286h1.374v-4.575a3.5 3.5 0 0 0 2.812 1.392 4.167 4.167 0 0 0 0-8.319 3.5 3.5 0 0 0-2.812 1.392V151.6h-1.374v11.342zm6.694-7.342a2.722 2.722 0 1 1-2.716-2.9 2.73 2.73 0 0 1 2.713 2.899zm3.564 0a4 4 0 0 0 3.914 4.159 3.5 3.5 0 0 0 2.812-1.392v1.232h1.368v-8h-1.374v1.232a3.5 3.5 0 0 0-2.812-1.392 4 4 0 0 0-3.914 4.16zm6.838 0a2.729 2.729 0 1 1-2.716-2.9 2.73 2.73 0 0 1 2.713 2.899zm7.142 4h1.151l3.69-8h-1.537l-2.732 6.047-2.732-6.047h-1.533zm8.692-11.118a.965.965 0 0 0-.958-.976.994.994 0 0 0-.991.976.983.983 0 0 0 .991.975.955.955 0 0 0 .955-.98zm-1.664 11.117h1.374v-8h-1.374v8zm4.777 0h1.374v-3.967c0-1.872 1.023-2.928 2.317-2.928a1.919 1.919 0 0 1 1.885 2.176v4.719h1.358v-4.927a2.946 2.946 0 0 0-3.02-3.232 2.824 2.824 0 0 0-2.54 1.392V151.6h-1.374v8zm17.655-.464V151.6h-1.374v1.232a3.4 3.4 0 0 0-2.78-1.392 4.075 4.075 0 0 0 0 8.143 3.41 3.41 0 0 0 2.78-1.408v.912a2.555 2.555 0 0 1-2.668 2.768 3.416 3.416 0 0 1-2.8-1.344l-.958.96a4.739 4.739 0 0 0 3.77 1.631 3.7 3.7 0 0 0 4.03-3.97zm-6.662-3.631a2.7 2.7 0 1 1 2.7 2.8 2.664 2.664 0 0 1-2.7-2.805zm16.409-7.023a.965.965 0 0 0-.958-.976.993.993 0 0 0-.991.976.982.982 0 0 0 .991.975.955.955 0 0 0 .958-.979zm-1.661 11.118h1.374v-8h-1.374v8zm9.107-.112v-1.232a3.04 3.04 0 0 1-.975.16 1.151 1.151 0 0 1-1.326-1.36v-4.191h2.3V151.6h-2.3v-2.224h-1.374v2.224h-1.693v1.264h1.693v4.367a2.25 2.25 0 0 0 2.444 2.448 3.822 3.822 0 0 0 1.231-.195zm7.733-2.112c0-1.2-.751-1.967-2.109-2.415l-.863-.288c-.942-.3-1.23-.608-1.23-1.12a1.131 1.131 0 0 1 1.342-.928 2.159 2.159 0 0 1 1.694.832l.894-.864a3.1 3.1 0 0 0-2.556-1.152c-1.582 0-2.7.88-2.7 2.176a2.412 2.412 0 0 0 1.981 2.319l.783.256c1.038.336 1.422.72 1.422 1.28a1.216 1.216 0 0 1-1.406 1.088 2.144 2.144 0 0 1-2.045-1.264l-1.118.608a3.171 3.171 0 0 0 3.131 1.856c1.614-.004 2.78-.82 2.78-2.388zm13.948 2.224h1.215l2.716-8H409.2l-1.933 5.839-2-5.839h-1.055l-2 5.839-1.933-5.839h-1.438l2.716 8h1.214l1.981-5.759zm5.562-4a4 4 0 0 0 3.914 4.159 3.5 3.5 0 0 0 2.812-1.392v1.233h1.374v-8h-1.374v1.232a3.5 3.5 0 0 0-2.812-1.392 4 4 0 0 0-3.914 4.16zm6.837 0a2.729 2.729 0 1 1-2.715-2.9 2.729 2.729 0 0 1 2.715 2.9zm6.776 7.342l5.24-11.342H429.6l-2.732 6.063-2.748-6.063h-1.52l3.5 7.583-1.741 3.759h1.541zm15.818-3.455v-1.232a3.035 3.035 0 0 1-.975.16 1.151 1.151 0 0 1-1.326-1.36v-4.191h2.3V151.6h-2.3v-2.224h-1.374v2.224h-1.693v1.264h1.693v4.367a2.251 2.251 0 0 0 2.445 2.448 3.82 3.82 0 0 0 1.23-.195zm10.162-3.887a4.178 4.178 0 1 0-4.17 4.159 4.1 4.1 0 0 0 4.17-4.159zm-6.95 0a2.774 2.774 0 1 1 2.78 2.879 2.748 2.748 0 0 1-2.78-2.879zm14.412 4h1.374v-3.967c0-1.872 1.023-2.928 2.317-2.928a1.919 1.919 0 0 1 1.885 2.176v4.719h1.358v-4.927a2.946 2.946 0 0 0-3.02-3.232 2.824 2.824 0 0 0-2.54 1.392V151.6h-1.374v8zm10.1-3.088c0 1.984 1.182 3.248 2.94 3.248a2.747 2.747 0 0 0 2.46-1.392v1.232h1.374v-8h-1.374v3.968c0 1.839-.974 2.927-2.221 2.927-1.1 0-1.8-.848-1.8-2.192v-4.7h-1.374v4.911zM479.6 159.6h1.374v-3.967c0-1.808.911-2.928 2.2-2.928 1.038 0 1.566.9 1.566 2.192v4.7h1.374v-3.967c0-1.808.894-2.928 2.188-2.928 1.039 0 1.582.9 1.582 2.192v4.7h1.374v-4.911c0-1.952-1.055-3.248-2.8-3.248a2.764 2.764 0 0 0-2.62 1.712 2.512 2.512 0 0 0-2.46-1.712 2.685 2.685 0 0 0-2.413 1.392V151.6H479.6v8zm14.317-4a4.21 4.21 0 0 0 7.732 2.255l-1.086-.752a2.827 2.827 0 0 1-5.256-1.232h6.55a3.876 3.876 0 0 0 .016-.415 3.725 3.725 0 0 0-3.8-4.016 4.051 4.051 0 0 0-4.159 4.16zm4.106-2.944a2.391 2.391 0 0 1 2.444 2.1H495.4a2.611 2.611 0 0 1 2.62-2.103zm6.6 6.943h1.374v-3.967c0-1.872 1.1-2.752 2.109-2.752a2.009 2.009 0 0 1 .751.128v-1.424a2.848 2.848 0 0 0-.623-.064 2.376 2.376 0 0 0-2.237 1.632V151.6h-1.374v8zm14.076-4a4.178 4.178 0 1 0-4.17 4.159 4.1 4.1 0 0 0 4.171-4.158zm-6.95 0a2.774 2.774 0 1 1 2.78 2.879 2.748 2.748 0 0 1-2.784-2.878zm9.6.911c0 1.984 1.182 3.248 2.94 3.248a2.747 2.747 0 0 0 2.46-1.392v1.234h1.374v-8h-1.374v3.968c0 1.839-.974 2.927-2.221 2.927-1.1 0-1.805-.848-1.805-2.192v-4.7h-1.374v4.911zm15.338.864c0-1.2-.75-1.967-2.108-2.415l-.863-.288c-.943-.3-1.23-.608-1.23-1.12a1.131 1.131 0 0 1 1.342-.928 2.156 2.156 0 0 1 1.693.832l.895-.864a3.1 3.1 0 0 0-2.556-1.152c-1.582 0-2.7.88-2.7 2.176a2.412 2.412 0 0 0 1.981 2.319l.783.256c1.038.336 1.422.72 1.422 1.28a1.217 1.217 0 0 1-1.406 1.088 2.143 2.143 0 0 1-2.045-1.264l-1.119.608a3.174 3.174 0 0 0 3.132 1.856c1.612-.002 2.778-.818 2.778-2.386zm7.463 2.224h1.374v-3.967c0-1.872 1.1-2.752 2.108-2.752a2 2 0 0 1 .751.128v-1.424a2.836 2.836 0 0 0-.623-.064 2.376 2.376 0 0 0-2.236 1.632V151.6h-1.374v8zm5.736-4a4.21 4.21 0 0 0 7.733 2.255l-1.087-.752a2.827 2.827 0 0 1-5.256-1.232h6.55a3.876 3.876 0 0 0 .016-.415 3.725 3.725 0 0 0-3.8-4.016 4.051 4.051 0 0 0-4.157 4.162zm4.106-2.944a2.39 2.39 0 0 1 2.444 2.1h-5.064a2.612 2.612 0 0 1 2.619-2.101zm6.6 6.943h1.374v-3.967c0-1.872 1.023-2.928 2.317-2.928a1.919 1.919 0 0 1 1.885 2.176v4.722h1.358v-4.927a2.946 2.946 0 0 0-3.02-3.232 2.824 2.824 0 0 0-2.54 1.392V151.6h-1.376v8zm9.587-4a4 4 0 0 0 3.914 4.159 3.5 3.5 0 0 0 2.812-1.392v1.236h1.374v-12H576.9v5.231a3.5 3.5 0 0 0-2.812-1.392 4 4 0 0 0-3.911 4.161zm6.838 0a2.729 2.729 0 1 1-2.716-2.9 2.729 2.729 0 0 1 2.714 2.903zm6.312-7.119a.966.966 0 0 0-.959-.976.993.993 0 0 0-.99.976.982.982 0 0 0 .99.975.956.956 0 0 0 .957-.975zm-1.664 11.122h1.374v-8h-1.374v8zm9.107-.112v-1.232a3.029 3.029 0 0 1-.974.16 1.151 1.151 0 0 1-1.326-1.36v-4.191h2.3V151.6h-2.3v-2.224H587.1v2.224h-1.7v1.264h1.7v4.367a2.25 2.25 0 0 0 2.444 2.448 3.815 3.815 0 0 0 1.228-.195zm4.219-11.006a.966.966 0 0 0-.959-.976.993.993 0 0 0-.99.976.982.982 0 0 0 .99.975.956.956 0 0 0 .959-.979zm-1.662 11.118h1.371v-8h-1.374v8zm12.494-4a4.178 4.178 0 1 0-4.17 4.159 4.1 4.1 0 0 0 4.17-4.159zm-6.95 0a2.774 2.774 0 1 1 2.78 2.879 2.748 2.748 0 0 1-2.78-2.879zm9.715 4h1.374v-3.967c0-1.872 1.023-2.928 2.317-2.928a1.919 1.919 0 0 1 1.885 2.176v4.719h1.358v-4.927a2.946 2.946 0 0 0-3.02-3.232 2.824 2.824 0 0 0-2.54 1.392V151.6h-1.374v8zm15.386-2.224c0-1.2-.751-1.967-2.108-2.415l-.866-.292c-.943-.3-1.23-.608-1.23-1.12a1.131 1.131 0 0 1 1.342-.928 2.156 2.156 0 0 1 1.693.832l.895-.864a3.1 3.1 0 0 0-2.556-1.152c-1.582 0-2.7.88-2.7 2.176a2.412 2.412 0 0 0 1.981 2.319l.782.256c1.039.336 1.422.72 1.422 1.28a1.216 1.216 0 0 1-1.406 1.088 2.142 2.142 0 0 1-2.044-1.264l-1.119.608a3.172 3.172 0 0 0 3.131 1.856c1.617 0 2.783-.816 2.783-2.384zm4.666 1.152a1.182 1.182 0 1 0-1.182 1.2 1.2 1.2 0 0 0 1.182-1.204zM33.139 179.6h1.454v-9.951h3.531v-1.407h-8.516v1.407h3.531v9.951zm13.677-4a4.178 4.178 0 1 0-4.17 4.159 4.1 4.1 0 0 0 4.169-4.159zm-6.95 0a2.774 2.774 0 1 1 2.78 2.879 2.748 2.748 0 0 1-2.78-2.879zm9.092 0a4 4 0 0 0 3.914 4.159 3.5 3.5 0 0 0 2.812-1.392v1.233h1.374v-12h-1.375v5.231a3.5 3.5 0 0 0-2.812-1.392 4 4 0 0 0-3.914 4.161zm6.838 0a2.729 2.729 0 1 1-2.716-2.9 2.729 2.729 0 0 1 2.72 2.9zm4.027 0a4 4 0 0 0 3.914 4.159 3.5 3.5 0 0 0 2.812-1.392v1.233h1.374v-8h-1.375v1.232a3.5 3.5 0 0 0-2.812-1.392 4 4 0 0 0-3.913 4.16zm6.838 0a2.729 2.729 0 1 1-2.716-2.9 2.729 2.729 0 0 1 2.715 2.9zm6.775 7.342l5.24-11.342h-1.534l-2.732 6.06-2.748-6.06h-1.518l3.5 7.583-1.744 3.756h1.534zm9.459-12.974a1.416 1.416 0 0 0 .224-.72 1.19 1.19 0 1 0-2.38 0 1.24 1.24 0 0 0 .655 1.072l-1.07 2.288h.927zm7.462 7.407c0-1.2-.751-1.967-2.109-2.415l-.863-.288c-.943-.3-1.23-.608-1.23-1.12a1.131 1.131 0 0 1 1.342-.928 2.157 2.157 0 0 1 1.694.832l.895-.864a3.1 3.1 0 0 0-2.556-1.152c-1.582 0-2.7.88-2.7 2.176a2.412 2.412 0 0 0 1.981 2.319l.783.256c1.038.336 1.422.72 1.422 1.28a1.216 1.216 0 0 1-1.406 1.088 2.144 2.144 0 0 1-2.045-1.264l-1.118.608a3.172 3.172 0 0 0 3.131 1.856c1.612-.003 2.778-.819 2.778-2.387zm6.887-3.455a5.893 5.893 0 0 0 10.88 3.119l-1.246-.752a4.464 4.464 0 1 1 0-4.735l1.246-.752a5.894 5.894 0 0 0-10.881 3.117zm13.438 5.679h1.374v-3.967c0-1.872 1.022-2.928 2.316-2.928a1.919 1.919 0 0 1 1.885 2.176v4.72h1.358v-4.927a2.946 2.946 0 0 0-3.019-3.232 2.823 2.823 0 0 0-2.54 1.392V167.6h-1.374v12zm10.1-3.088c0 1.984 1.182 3.248 2.939 3.248a2.749 2.749 0 0 0 2.461-1.392v1.233h1.373v-8h-1.373v3.968c0 1.839-.975 2.927-2.221 2.927-1.1 0-1.8-.848-1.8-2.192v-4.7h-1.374v4.911zm10.162 3.088h1.374v-4l4.329 4h1.853l-4.808-4.463 3.93-3.536H135.8l-3.482 3.12v-7.12h-1.374v12zm9.411 0h1.374v-4l4.329 4h1.853l-4.808-4.463 3.93-3.536h-1.822l-3.482 3.12v-7.12h-1.374v12zm8.276-4a4 4 0 0 0 3.914 4.159 3.5 3.5 0 0 0 2.812-1.392v1.234h1.374v-8h-1.374v1.232a3.5 3.5 0 0 0-2.812-1.392 4 4 0 0 0-3.917 4.16zm6.838 0a2.729 2.729 0 1 1-2.716-2.9 2.729 2.729 0 0 1 2.713 2.901zm9.556 4h4.057c2.3 0 3.8-1.424 3.8-3.312a2.706 2.706 0 0 0-1.965-2.719 2.575 2.575 0 0 0 1.214-2.32 3.107 3.107 0 0 0-3.387-3.007h-3.722V179.6zm1.485-6.479v-3.536h2.237a1.785 1.785 0 0 1 1.933 1.776 1.747 1.747 0 0 1-1.933 1.76h-2.237zm0 5.135V174.4h2.652c1.5 0 2.269.832 2.269 1.935 0 1.12-.767 1.92-2.285 1.92h-2.636zm16.872-2.655a4.178 4.178 0 1 0-4.169 4.159 4.1 4.1 0 0 0 4.166-4.159zm-6.949 0a2.774 2.774 0 1 1 2.78 2.879 2.748 2.748 0 0 1-2.783-2.879zm17.431 0a4.178 4.178 0 1 0-4.17 4.159 4.1 4.1 0 0 0 4.167-4.159zm-6.95 0a2.774 2.774 0 1 1 2.78 2.879 2.748 2.748 0 0 1-2.783-2.879zm13.9 3.887v-1.232a3.035 3.035 0 0 1-.975.16 1.151 1.151 0 0 1-1.326-1.36v-4.191h2.3V171.6h-2.3v-2.224h-1.373v2.224h-1.694v1.264h1.694v4.367a2.25 2.25 0 0 0 2.444 2.448 3.82 3.82 0 0 0 1.228-.195zm8.916-11.006a.965.965 0 0 0-.959-.976.993.993 0 0 0-.99.976.982.982 0 0 0 .99.975.955.955 0 0 0 .957-.978zm-1.664 11.119h1.374v-8h-1.374v8zm9.954-2.224c0-1.2-.751-1.967-2.109-2.415l-.862-.288c-.943-.3-1.231-.608-1.231-1.12a1.131 1.131 0 0 1 1.342-.928 2.157 2.157 0 0 1 1.694.832l.894-.864a3.1 3.1 0 0 0-2.556-1.152c-1.581 0-2.7.88-2.7 2.176a2.412 2.412 0 0 0 1.981 2.319l.783.256c1.039.336 1.422.72 1.422 1.28a1.216 1.216 0 0 1-1.406 1.088 2.145 2.145 0 0 1-2.045-1.264l-1.118.608a3.171 3.171 0 0 0 3.131 1.856c1.614-.004 2.78-.82 2.78-2.388zm6.839-1.775a4 4 0 0 0 3.914 4.159 3.5 3.5 0 0 0 2.812-1.392v1.232h1.374v-8h-1.374v1.232a3.5 3.5 0 0 0-2.812-1.392 4 4 0 0 0-3.914 4.16zm6.838 0a2.729 2.729 0 1 1-2.716-2.9 2.729 2.729 0 0 1 2.719 2.899zm9.348 4h1.374v-3.967c0-1.872 1.022-2.928 2.316-2.928a1.919 1.919 0 0 1 1.885 2.176v4.718h1.358v-4.927a2.946 2.946 0 0 0-3.019-3.232 2.823 2.823 0 0 0-2.54 1.392V171.6h-1.374v8zm17.926-4a4.178 4.178 0 1 0-4.17 4.159 4.1 4.1 0 0 0 4.17-4.16zm-6.949 0a2.774 2.774 0 1 1 2.779 2.879 2.747 2.747 0 0 1-2.779-2.88zm9.091 0a4 4 0 0 0 3.914 4.159 3.5 3.5 0 0 0 2.812-1.392v1.232h1.374v-12h-1.374v5.231a3.5 3.5 0 0 0-2.812-1.392 4 4 0 0 0-3.914 4.161zm6.838 0a2.729 2.729 0 1 1-2.716-2.9 2.729 2.729 0 0 1 2.716 2.899zm13.406 3.887v-1.232a3.035 3.035 0 0 1-.975.16 1.151 1.151 0 0 1-1.326-1.36v-4.191h2.3V171.6h-2.3v-2.224h-1.374v2.224h-1.693v1.264h1.693v4.367a2.25 2.25 0 0 0 2.444 2.448 3.822 3.822 0 0 0 1.231-.195zm10.161-3.887a4.178 4.178 0 1 0-4.169 4.159 4.1 4.1 0 0 0 4.169-4.16zm-6.949 0a2.774 2.774 0 1 1 2.78 2.879 2.748 2.748 0 0 1-2.78-2.88zm18.47 3.887v-1.232a3.035 3.035 0 0 1-.975.16 1.151 1.151 0 0 1-1.326-1.36v-4.191h2.3V171.6h-2.3v-2.224h-1.374v2.224h-1.693v1.264h1.693v4.367a2.251 2.251 0 0 0 2.445 2.448 3.82 3.82 0 0 0 1.23-.195zm2.561.112h1.374v-3.967c0-1.872 1.022-2.928 2.316-2.928a1.919 1.919 0 0 1 1.886 2.176v4.719h1.358v-4.927a2.947 2.947 0 0 0-3.02-3.232 2.824 2.824 0 0 0-2.54 1.392V167.6H305.6v12zm9.587-4a4.21 4.21 0 0 0 7.732 2.255l-1.086-.752a2.827 2.827 0 0 1-5.256-1.232h6.55a3.876 3.876 0 0 0 .016-.415 3.725 3.725 0 0 0-3.8-4.016 4.051 4.051 0 0 0-4.16 4.16zm4.106-2.944a2.391 2.391 0 0 1 2.444 2.1h-5.064a2.611 2.611 0 0 1 2.616-2.103zm11.5 6.943h4.058c2.3 0 3.8-1.424 3.8-3.312a2.705 2.705 0 0 0-1.965-2.719 2.575 2.575 0 0 0 1.214-2.32 3.107 3.107 0 0 0-3.386-3.007h-3.723V179.6zm1.486-6.479v-3.536h2.237a1.785 1.785 0 0 1 1.933 1.776 1.747 1.747 0 0 1-1.933 1.76h-2.237zm0 5.135V174.4h2.652c1.5 0 2.268.832 2.268 1.935 0 1.12-.766 1.92-2.284 1.92h-2.636zm9.14 1.344h1.374v-3.967c0-1.872 1.1-2.752 2.109-2.752a2 2 0 0 1 .75.128v-1.424a2.836 2.836 0 0 0-.623-.064 2.376 2.376 0 0 0-2.236 1.632V171.6h-1.374v8zm8.308-11.118a.965.965 0 0 0-.958-.976.993.993 0 0 0-.991.976.982.982 0 0 0 .991.975.955.955 0 0 0 .958-.978zm-1.661 11.119h1.374v-8h-1.374v8zm9.107-.112v-1.232a3.035 3.035 0 0 1-.975.16 1.151 1.151 0 0 1-1.326-1.36v-4.191h2.3V171.6h-2.3v-2.224H353.5v2.224h-1.693v1.264h1.693v4.367a2.25 2.25 0 0 0 2.444 2.448 3.822 3.822 0 0 0 1.229-.195zm4.218-11.006a.965.965 0 0 0-.958-.976.993.993 0 0 0-.991.976.982.982 0 0 0 .991.975.955.955 0 0 0 .958-.979zM359.73 179.6h1.37v-8h-1.37v8zm9.953-2.224c0-1.2-.751-1.967-2.109-2.415l-.862-.288c-.943-.3-1.23-.608-1.23-1.12a1.131 1.131 0 0 1 1.342-.928 2.157 2.157 0 0 1 1.693.832l.895-.864a3.1 3.1 0 0 0-2.557-1.152c-1.581 0-2.7.88-2.7 2.176a2.411 2.411 0 0 0 1.981 2.319l.782.256c1.039.336 1.422.72 1.422 1.28a1.216 1.216 0 0 1-1.406 1.088 2.145 2.145 0 0 1-2.045-1.264l-1.118.608a3.171 3.171 0 0 0 3.131 1.856c1.615-.004 2.781-.82 2.781-2.388zm2.765 2.224h1.374v-3.967c0-1.872 1.022-2.928 2.317-2.928a1.919 1.919 0 0 1 1.885 2.176v4.719h1.358v-4.927a2.947 2.947 0 0 0-3.02-3.232 2.824 2.824 0 0 0-2.54 1.392V167.6h-1.374v12zm20.084-2.224c0-1.2-.751-1.967-2.109-2.415l-.863-.288c-.943-.3-1.23-.608-1.23-1.12a1.131 1.131 0 0 1 1.342-.928 2.156 2.156 0 0 1 1.693.832l.895-.864a3.1 3.1 0 0 0-2.556-1.152c-1.582 0-2.7.88-2.7 2.176a2.412 2.412 0 0 0 1.981 2.319l.783.256c1.038.336 1.422.72 1.422 1.28a1.216 1.216 0 0 1-1.406 1.088 2.143 2.143 0 0 1-2.045-1.264l-1.118.608a3.171 3.171 0 0 0 3.131 1.856c1.613-.004 2.78-.82 2.78-2.388zm10.481-1.775a4.178 4.178 0 1 0-4.17 4.159 4.1 4.1 0 0 0 4.17-4.16zm-6.95 0a2.774 2.774 0 1 1 2.78 2.879 2.748 2.748 0 0 1-2.78-2.88zm9.715 4h1.374v-12h-1.374v12zm4.154-4a4 4 0 0 0 3.914 4.159 3.5 3.5 0 0 0 2.812-1.392v1.232h1.374v-12h-1.374v5.231a3.5 3.5 0 0 0-2.812-1.392 4 4 0 0 0-3.914 4.161zm6.838 0a2.729 2.729 0 1 1-2.716-2.9 2.729 2.729 0 0 1 2.716 2.899zm6.312-7.119a.965.965 0 0 0-.959-.976.993.993 0 0 0-.99.976.982.982 0 0 0 .99.975.955.955 0 0 0 .959-.979zM421.42 179.6h1.374v-8h-1.374v8zm4.155-4a4.21 4.21 0 0 0 7.732 2.255l-1.086-.752a2.827 2.827 0 0 1-5.256-1.232h6.55a3.876 3.876 0 0 0 .016-.415 3.726 3.726 0 0 0-3.8-4.016 4.05 4.05 0 0 0-4.156 4.16zm4.106-2.944a2.391 2.391 0 0 1 2.444 2.1h-5.064a2.611 2.611 0 0 1 2.62-2.103zm6.6 6.943h1.374v-3.967c0-1.872 1.1-2.752 2.109-2.752a2.009 2.009 0 0 1 .751.128v-1.424a2.848 2.848 0 0 0-.623-.064 2.376 2.376 0 0 0-2.237 1.632V171.6h-1.375v8zm11.679-2.224c0-1.2-.75-1.967-2.108-2.415l-.863-.288c-.943-.3-1.23-.608-1.23-1.12a1.131 1.131 0 0 1 1.342-.928 2.156 2.156 0 0 1 1.693.832l.895-.864a3.1 3.1 0 0 0-2.556-1.152c-1.582 0-2.7.88-2.7 2.176a2.412 2.412 0 0 0 1.981 2.319l.783.256c1.038.336 1.422.72 1.422 1.28a1.217 1.217 0 0 1-1.406 1.088 2.143 2.143 0 0 1-2.045-1.264l-1.119.608a3.174 3.174 0 0 0 3.132 1.856c1.612-.003 2.778-.819 2.778-2.387zm4.81-7.407a1.414 1.414 0 0 0 .224-.72 1.191 1.191 0 1 0-2.381 0 1.241 1.241 0 0 0 .655 1.072l-1.07 2.288h.927zm7.4 6.543c0 1.984 1.182 3.248 2.94 3.248a2.747 2.747 0 0 0 2.46-1.392v1.233h1.374v-8h-1.374v3.968c0 1.839-.974 2.927-2.221 2.927-1.1 0-1.805-.848-1.805-2.192v-4.7h-1.374v4.911zm10.162 3.088h1.368v-3.967c0-1.872 1.023-2.928 2.317-2.928a1.919 1.919 0 0 1 1.885 2.176v4.72h1.358v-4.927a2.946 2.946 0 0 0-3.02-3.232 2.824 2.824 0 0 0-2.54 1.392V171.6h-1.374v8zm11.868-11.121a.966.966 0 0 0-.959-.976.993.993 0 0 0-.99.976.982.982 0 0 0 .99.975.956.956 0 0 0 .959-.975zm-1.661 11.122h1.374v-8h-1.374v8zm5.449 0h1.374v-6.735h2.316V171.6h-2.316v-1.472a1.15 1.15 0 0 1 1.326-1.359 3.214 3.214 0 0 1 .99.159v-1.218a3.624 3.624 0 0 0-1.246-.208 2.282 2.282 0 0 0-2.444 2.479v1.619h-1.694v1.264h1.694v6.736zm13.5-4a4.178 4.178 0 1 0-4.169 4.159 4.1 4.1 0 0 0 4.169-4.159zm-6.949 0a2.774 2.774 0 1 1 2.78 2.879 2.748 2.748 0 0 1-2.78-2.879zm9.714 4h1.374v-3.967c0-1.872 1.1-2.752 2.109-2.752a2.006 2.006 0 0 1 .751.128v-1.424a2.842 2.842 0 0 0-.623-.064 2.377 2.377 0 0 0-2.237 1.632V171.6h-1.374v8zm6.647 0h1.374v-3.967c0-1.808.911-2.928 2.205-2.928 1.038 0 1.566.9 1.566 2.192v4.7h1.373v-3.967c0-1.808.895-2.928 2.189-2.928 1.039 0 1.582.9 1.582 2.192v4.7h1.374v-4.911c0-1.952-1.055-3.248-2.8-3.248a2.764 2.764 0 0 0-2.62 1.712 2.511 2.511 0 0 0-2.46-1.712 2.685 2.685 0 0 0-2.413 1.392V171.6h-1.37v8zm20.116-2.224c0-1.2-.751-1.967-2.109-2.415l-.862-.288c-.943-.3-1.231-.608-1.231-1.12a1.131 1.131 0 0 1 1.342-.928 2.159 2.159 0 0 1 1.694.832l.894-.864a3.1 3.1 0 0 0-2.556-1.152c-1.581 0-2.7.88-2.7 2.176a2.412 2.412 0 0 0 1.981 2.319l.783.256c1.039.336 1.422.72 1.422 1.28a1.216 1.216 0 0 1-1.406 1.088 2.145 2.145 0 0 1-2.045-1.264l-1.118.608a3.171 3.171 0 0 0 3.131 1.856c1.614-.004 2.78-.82 2.78-2.388zm6.839-1.775a4 4 0 0 0 3.914 4.159 3.5 3.5 0 0 0 2.812-1.392v1.232h1.374v-12h-1.374v5.231a3.5 3.5 0 0 0-2.812-1.392 4 4 0 0 0-3.914 4.161zm6.838 0a2.729 2.729 0 1 1-2.716-2.9 2.729 2.729 0 0 1 2.716 2.899zm4.539.911c0 1.984 1.182 3.248 2.939 3.248a2.746 2.746 0 0 0 2.46-1.392v1.232h1.374v-8h-1.374v3.968c0 1.839-.974 2.927-2.22 2.927-1.1 0-1.806-.848-1.806-2.192v-4.7h-1.373v4.911zm10.162 3.088h1.373v-3.967c0-1.872 1.1-2.752 2.109-2.752a2 2 0 0 1 .751.128v-1.424a2.836 2.836 0 0 0-.623-.064 2.378 2.378 0 0 0-2.237 1.632V171.6h-1.373v8zm8.308-11.118a.965.965 0 0 0-.959-.976.993.993 0 0 0-.99.976.982.982 0 0 0 .99.975.955.955 0 0 0 .957-.979zm-1.661 11.118h1.373v-8h-1.373v8zm4.777 0h1.374v-3.967c0-1.872 1.022-2.928 2.316-2.928a1.919 1.919 0 0 1 1.886 2.176v4.719h1.357v-4.927a2.946 2.946 0 0 0-3.019-3.232 2.824 2.824 0 0 0-2.54 1.392V171.6h-1.374v8zm17.655-.464V171.6H585.1v1.232a3.4 3.4 0 0 0-2.78-1.392 4.075 4.075 0 0 0 0 8.143 3.41 3.41 0 0 0 2.78-1.408v.912a2.555 2.555 0 0 1-2.668 2.768 3.416 3.416 0 0 1-2.8-1.344l-.959.96a4.739 4.739 0 0 0 3.771 1.631 3.7 3.7 0 0 0 4.029-3.97zm-6.662-3.631a2.7 2.7 0 1 1 2.7 2.8 2.664 2.664 0 0 1-2.7-2.805zm18.8 3.983v-1.232a3.029 3.029 0 0 1-.974.16 1.151 1.151 0 0 1-1.326-1.36v-4.191h2.3V171.6h-2.3v-2.224h-1.374v2.224h-1.694v1.264h1.694v4.367a2.25 2.25 0 0 0 2.444 2.448 3.815 3.815 0 0 0 1.235-.195zm2.557.112h1.374v-3.967c0-1.872 1.023-2.928 2.317-2.928a1.919 1.919 0 0 1 1.885 2.176v4.719h1.358v-4.927a2.946 2.946 0 0 0-3.02-3.232 2.824 2.824 0 0 0-2.54 1.392V167.6h-1.374v12zm9.587-4a4.21 4.21 0 0 0 7.733 2.255l-1.087-.752a2.827 2.827 0 0 1-5.256-1.232h6.55a3.876 3.876 0 0 0 .016-.415 3.725 3.725 0 0 0-3.8-4.016 4.051 4.051 0 0 0-4.151 4.16zm4.106-2.944a2.39 2.39 0 0 1 2.444 2.1h-5.064a2.612 2.612 0 0 1 2.625-2.103zM39.673 199.6H41l3.1-11.358h-1.55l-2.38 8.862-3.275-9.054-3.261 9.05-2.38-8.862H29.7l3.1 11.362h1.326l2.78-7.711zm5.785-4a4.21 4.21 0 0 0 7.732 2.255l-1.09-.755a2.827 2.827 0 0 1-5.256-1.232H53.4a3.886 3.886 0 0 0 .016-.415 3.725 3.725 0 0 0-3.8-4.016 4.051 4.051 0 0 0-4.158 4.163zm4.106-2.944a2.391 2.391 0 0 1 2.444 2.1h-5.064a2.612 2.612 0 0 1 2.62-2.103zm11.776 4.719c0-1.2-.751-1.967-2.109-2.415l-.863-.288c-.943-.3-1.23-.608-1.23-1.12a1.131 1.131 0 0 1 1.342-.928 2.157 2.157 0 0 1 1.693.832l.895-.864a3.1 3.1 0 0 0-2.556-1.152c-1.582 0-2.7.88-2.7 2.176a2.412 2.412 0 0 0 1.981 2.319l.783.256c1.038.336 1.422.72 1.422 1.28a1.216 1.216 0 0 1-1.406 1.088 2.143 2.143 0 0 1-2.045-1.264l-1.118.608a3.172 3.172 0 0 0 3.131 1.856c1.614-.003 2.78-.819 2.78-2.387zm7 2.112v-1.232a3.032 3.032 0 0 1-.975.16 1.151 1.151 0 0 1-1.326-1.36v-4.191h2.3V191.6h-2.3v-2.224h-1.375v2.224H62.97v1.264h1.693v4.367a2.25 2.25 0 0 0 2.444 2.448 3.817 3.817 0 0 0 1.231-.195zm1.822-3.887a4.21 4.21 0 0 0 7.732 2.255l-1.086-.752a2.827 2.827 0 0 1-5.256-1.232H78.1a3.886 3.886 0 0 0 .016-.415 3.725 3.725 0 0 0-3.8-4.016 4.051 4.051 0 0 0-4.155 4.16zm4.106-2.944a2.391 2.391 0 0 1 2.444 2.1h-5.066a2.612 2.612 0 0 1 2.621-2.103zm6.6 6.943h1.372v-3.967c0-1.872 1.1-2.752 2.109-2.752a2.005 2.005 0 0 1 .751.128v-1.424a2.841 2.841 0 0 0-.623-.064 2.377 2.377 0 0 0-2.237 1.632V191.6h-1.374v8zm6.647 0h1.374v-3.967c0-1.872 1.022-2.928 2.317-2.928a1.919 1.919 0 0 1 1.885 2.176v4.72h1.358v-4.927a2.946 2.946 0 0 0-3.019-3.232 2.824 2.824 0 0 0-2.54 1.392V191.6h-1.377v8zm15.115 0h3.259a5.69 5.69 0 1 0 0-11.358h-3.259V199.6zm1.486-1.392v-8.575h1.773a4.294 4.294 0 1 1 0 8.575h-1.773zm10-2.607a4.21 4.21 0 0 0 7.733 2.255l-1.087-.752a2.827 2.827 0 0 1-5.256-1.232h6.55a3.886 3.886 0 0 0 .016-.415 3.725 3.725 0 0 0-3.8-4.016 4.051 4.051 0 0 0-4.156 4.16zm4.106-2.944a2.39 2.39 0 0 1 2.444 2.1H115.6a2.613 2.613 0 0 1 2.622-2.103zM130 197.372c0-1.2-.751-1.967-2.109-2.415l-.863-.288c-.942-.3-1.23-.608-1.23-1.12a1.131 1.131 0 0 1 1.342-.928 2.156 2.156 0 0 1 1.693.832l.9-.864a3.1 3.1 0 0 0-2.556-1.152c-1.582 0-2.7.88-2.7 2.176a2.412 2.412 0 0 0 1.981 2.319l.783.256c1.038.336 1.422.72 1.422 1.28a1.216 1.216 0 0 1-1.406 1.088 2.143 2.143 0 0 1-2.045-1.264l-1.118.608a3.171 3.171 0 0 0 3.131 1.856c1.606 0 2.775-.816 2.775-2.384zm2.141-1.775a4.21 4.21 0 0 0 7.733 2.255l-1.087-.752a2.827 2.827 0 0 1-5.256-1.232h6.55a3.886 3.886 0 0 0 .016-.415 3.725 3.725 0 0 0-3.8-4.016 4.051 4.051 0 0 0-4.158 4.163zm4.106-2.944a2.392 2.392 0 0 1 2.445 2.1h-5.065a2.613 2.613 0 0 1 2.618-2.1zm6.6 6.943h1.374v-3.967c0-1.872 1.1-2.752 2.108-2.752a2 2 0 0 1 .751.128v-1.424a2.836 2.836 0 0 0-.623-.064 2.376 2.376 0 0 0-2.236 1.632V191.6h-1.374v8zm10.976-.112v-1.232a3.033 3.033 0 0 1-.974.16 1.151 1.151 0 0 1-1.326-1.36v-4.191h2.3V191.6h-2.3v-2.224h-1.374v2.224h-1.694v1.264h1.694v4.367a2.25 2.25 0 0 0 2.444 2.448 3.815 3.815 0 0 0 1.228-.195zm6.679-5.567a5.894 5.894 0 0 0 10.88 3.119l-1.246-.752a4.464 4.464 0 1 1 0-4.735l1.246-.752a5.894 5.894 0 0 0-10.882 3.12zm12.815 1.68a4 4 0 0 0 3.914 4.159 3.5 3.5 0 0 0 2.812-1.392v1.236h1.374v-8h-1.374v1.232a3.5 3.5 0 0 0-2.812-1.392 4 4 0 0 0-3.916 4.16zm6.838 0a2.729 2.729 0 1 1-2.716-2.9 2.73 2.73 0 0 1 2.714 2.903zm4.65 4h1.374v-3.967c0-1.808.91-2.928 2.205-2.928 1.038 0 1.565.9 1.565 2.192v4.7h1.374v-3.967c0-1.808.9-2.928 2.189-2.928 1.038 0 1.581.9 1.581 2.192v4.7h1.374v-4.911c0-1.952-1.054-3.248-2.8-3.248a2.763 2.763 0 0 0-2.62 1.712 2.513 2.513 0 0 0-2.461-1.712 2.684 2.684 0 0 0-2.412 1.392V191.6H184.8v8zm14.939 3.343h1.374v-4.575a3.5 3.5 0 0 0 2.812 1.392 4.167 4.167 0 0 0 0-8.319 3.5 3.5 0 0 0-2.812 1.392v-1.23h-1.374v11.342zm6.694-7.342a2.721 2.721 0 1 1-2.716-2.9 2.729 2.729 0 0 1 2.714 2.902zm3.565 0a4 4 0 0 0 3.914 4.159 3.5 3.5 0 0 0 2.811-1.392v1.235h1.372v-8h-1.374v1.232a3.5 3.5 0 0 0-2.811-1.392A4 4 0 0 0 210 195.6zm6.837 0a2.729 2.729 0 1 1-2.716-2.9 2.729 2.729 0 0 1 2.714 2.902zm6.312-7.119a.965.965 0 0 0-.958-.976.993.993 0 0 0-.991.976.982.982 0 0 0 .991.975.955.955 0 0 0 .956-.976zm-1.663 11.121h1.374v-8h-1.374v8zm12.222-.464V191.6h-1.374v1.232a3.4 3.4 0 0 0-2.78-1.392 4.075 4.075 0 0 0 0 8.143 3.41 3.41 0 0 0 2.78-1.408v.912a2.555 2.555 0 0 1-2.668 2.768 3.416 3.416 0 0 1-2.8-1.344l-.958.96a4.737 4.737 0 0 0 3.77 1.631 3.7 3.7 0 0 0 4.03-3.97zm-6.662-3.631a2.7 2.7 0 1 1 2.7 2.8 2.664 2.664 0 0 1-2.7-2.805zM237.1 199.6h1.374v-3.967c0-1.872 1.023-2.928 2.317-2.928a1.919 1.919 0 0 1 1.885 2.176v4.719h1.358v-4.927a2.946 2.946 0 0 0-3.02-3.232 2.824 2.824 0 0 0-2.54 1.392V191.6H237.1v8zm22.624-4a4.178 4.178 0 1 0-4.17 4.159 4.1 4.1 0 0 0 4.169-4.159zm-6.95 0a2.774 2.774 0 1 1 2.78 2.879 2.748 2.748 0 0 1-2.781-2.879zm10.258 4h1.368v-6.735h2.317V191.6H264.4v-1.472a1.152 1.152 0 0 1 1.326-1.36 3.215 3.215 0 0 1 .991.16v-1.218a3.628 3.628 0 0 0-1.246-.208 2.283 2.283 0 0 0-2.445 2.479v1.619h-1.693v1.264h1.693v6.736zm18.949 0h1.326l3.1-11.358h-1.55l-2.381 8.862-3.275-9.054-3.259 9.054-2.38-8.862h-1.55l3.1 11.358h1.326l2.779-7.711zm15.93 0h1.326l3.1-11.358h-1.55l-2.38 8.862-3.275-9.054-3.26 9.054-2.38-8.862h-1.55l3.1 11.358h1.326l2.78-7.711zm7.1 0h1.486v-11.362h-1.486V199.6zm5.288 0h1.486v-11.362h-1.486V199.6zm6.983-1.072a1.183 1.183 0 1 0-1.183 1.2 1.205 1.205 0 0 0 1.178-1.204z"/></svg>