<svg id="copy_copy_2" data-name="copy copy 2" xmlns="http://www.w3.org/2000/svg" width="720" height="302" viewBox="0 0 720 302">
  <defs>
    <style>
      .cls-1 {
        fill: #fff;
      }

      .cls-2 {
        fill-rule: evenodd;
      }
    </style>
  </defs>
  <rect id="Rectangle_106_copy_12" data-name="Rectangle 106 copy 12" class="cls-1" width="720" height="302"/>
  <g id="CTA_underline">
    <path class="cls-2" d="M30,248.928H120v3H30v-3Z"/>
    <path id="SHOP_now" data-name="SHOP now" class="cls-2" d="M33.395,244.126a3.123,3.123,0,0,0,3.422-3.07,3.053,3.053,0,0,0-2.277-2.971l-0.674-.252c-1.011-.379-1.482-0.617-1.482-1.15a0.984,0.984,0,0,1,1.159-.757,2.1,2.1,0,0,1,1.657.827l1.4-1.541a3.917,3.917,0,0,0-3.085-1.374,3,3,0,0,0-3.3,3.07c0,1.359.862,2.326,2.412,2.873l0.674,0.238c0.957,0.336,1.334.687,1.334,1.191a0.977,0.977,0,0,1-1.159.827A2.479,2.479,0,0,1,31.5,240.9l-1.644,1.444A4.141,4.141,0,0,0,33.395,244.126Zm7.332-.168h2.142v-3.939h3.853v3.939h2.142v-9.952H46.723v3.9H42.869v-3.9H40.727v9.952Zm16.993,0.168a5.148,5.148,0,1,0-4.945-5.144A5.06,5.06,0,0,0,57.72,244.126Zm0-2.159a2.993,2.993,0,1,1,2.776-2.985A2.9,2.9,0,0,1,57.72,241.967Zm15.471-4.555a3.322,3.322,0,0,0-3.368-3.406H66.575v9.952h2.142V240.8h1.1A3.31,3.31,0,0,0,73.191,237.412Zm-2.075,0a1.283,1.283,0,0,1-1.32,1.3H68.717v-2.607H69.8A1.274,1.274,0,0,1,71.116,237.412Zm19.54,6.546v-9.952H88.5v6.139l-4.648-6.139H82.006v9.952h2.142v-6.153l4.662,6.153h1.846Zm8.855,0.168a5.148,5.148,0,1,0-4.945-5.144A5.06,5.06,0,0,0,99.511,244.126Zm0-2.159a2.993,2.993,0,1,1,2.775-2.985A2.9,2.9,0,0,1,99.511,241.967Zm16.265,1.991h2.035l2.223-9.952h-2.29l-1.307,6.307-2.695-6.475-2.681,6.475-1.307-6.307h-2.291l2.21,9.952h2.034l2.035-4.878Z"/>
  </g>
  <path id="Chukka_Boot_Suede_b._1981_Available_in_leather_and_suede._" data-name="Chukka Boot  Suede, b. 1981 | Available in leather and suede.  " class="cls-2" d="M41.4,51.891a11.007,11.007,0,0,0,9.96-5.828l-4.2-2.283a6.4,6.4,0,1,1,0-5.828l4.2-2.283A11.108,11.108,0,1,0,41.4,51.891Zm14.25-.361h4.77V43.09H69v8.441h4.77V30.2H69v8.351h-8.58V30.2h-4.77V51.531Zm32.64,0.361a8.359,8.359,0,0,0,8.76-8.8V30.2h-4.77V43.15a3.992,3.992,0,1,1-7.98,0V30.2h-4.77V43.09C79.526,48.407,83.156,51.891,88.286,51.891Zm14.52-.361h4.74V41.978l8.669,9.553h6.12L112.226,40.446l8.4-10.243h-5.85l-7.229,8.922V30.2h-4.74V51.531Zm22.5,0h4.74V41.978l8.669,9.553h6.12l-10.11-11.085,8.4-10.243h-5.85l-7.229,8.922V30.2h-4.74V51.531Zm20.22,0h4.98l1.89-4.506h8.819l1.89,4.506h4.98L158.965,30.2h-4.32Zm8.609-8.651,2.67-6.428,2.67,6.429h-5.34Zm24.87,8.651h9.36a6.3,6.3,0,0,0,6.48-6.278,5.574,5.574,0,0,0-3.03-5.047,5.023,5.023,0,0,0,1.53-3.665,6.335,6.335,0,0,0-6.33-6.338h-8.01V51.531Zm4.77-12.707V34.558h2.7a2.166,2.166,0,0,1,2.22,2.163,2.136,2.136,0,0,1-2.22,2.1h-2.7Zm0,8.321V42.879h4.17a2.168,2.168,0,0,1,2.25,2.133,2.142,2.142,0,0,1-2.22,2.133h-4.2Zm25.59,4.746a11.025,11.025,0,1,0-11.01-11.025A11.043,11.043,0,0,0,209.365,51.891Zm0-4.626a6.4,6.4,0,1,1,6.18-6.4A6.324,6.324,0,0,1,209.365,47.265Zm25.619,4.626a11.025,11.025,0,1,0-11.009-11.025A11.044,11.044,0,0,0,234.984,51.891Zm0-4.626a6.4,6.4,0,1,1,6.18-6.4A6.324,6.324,0,0,1,234.984,47.265Zm18.84,4.266h4.8V34.769h5.49V30.2H248.4v4.566h5.429V51.531ZM29.985,77.477a4.935,4.935,0,0,0,4.483,2.308c2.377,0,4.069-1.37,4.069-3.552,0-1.893-1.08-2.975-2.971-3.7l-1.549-.595c-1.3-.487-1.927-0.974-1.927-2.055,0-1.064,1.044-1.767,2.3-1.767a3.162,3.162,0,0,1,2.539,1.262L38.159,68.3a4.66,4.66,0,0,0-3.727-1.749c-2.287,0-4,1.316-4,3.408,0,1.749.9,2.795,2.9,3.534l1.693,0.649a2.326,2.326,0,0,1,1.837,2.164c0,1.19-1.044,1.911-2.359,1.911a3.571,3.571,0,0,1-3.169-1.749ZM41.5,76.089c0,2.236,1.332,3.66,3.313,3.66a3.1,3.1,0,0,0,2.773-1.569v1.388h1.548V70.554H47.591v4.471c0,2.073-1.1,3.3-2.5,3.3-1.242,0-2.035-.956-2.035-2.47v-5.3H41.5v5.535ZM52.25,75.061A4.745,4.745,0,0,0,60.965,77.6l-1.224-.847a3.186,3.186,0,0,1-5.924-1.388H61.2a4.407,4.407,0,0,0,.018-0.469,4.2,4.2,0,0,0-4.285-4.525A4.565,4.565,0,0,0,52.25,75.061Zm4.627-3.318a2.7,2.7,0,0,1,2.755,2.362H53.925A2.944,2.944,0,0,1,56.878,71.744Zm6.73,3.318a4.508,4.508,0,0,0,4.411,4.688,3.946,3.946,0,0,0,3.169-1.569v1.388h1.548V66.046H71.189v5.9a3.946,3.946,0,0,0-3.169-1.569A4.508,4.508,0,0,0,63.608,75.061Zm7.706,0A3.076,3.076,0,1,1,68.254,71.8,3.076,3.076,0,0,1,71.315,75.061Zm4.534,0A4.745,4.745,0,0,0,84.563,77.6l-1.224-.847a3.186,3.186,0,0,1-5.924-1.388H84.8a4.407,4.407,0,0,0,.018-0.469,4.2,4.2,0,0,0-4.285-4.525A4.565,4.565,0,0,0,75.848,75.061Zm4.627-3.318a2.7,2.7,0,0,1,2.755,2.362H77.523A2.944,2.944,0,0,1,80.476,71.744Zm9.359,7.428a1.543,1.543,0,0,0,.252-0.811,1.333,1.333,0,1,0-2.665,0,1.342,1.342,0,0,0,.738,1.208l-1.206,2.578H87.98Zm10.421-.992a3.948,3.948,0,0,0,3.169,1.569,4.7,4.7,0,0,0,0-9.375,3.948,3.948,0,0,0-3.169,1.569v-5.9H98.708V79.569h1.548V78.18Zm6-3.119a3.067,3.067,0,1,1-3.061-3.263A3.076,3.076,0,0,1,106.252,75.061Zm6.658,3.3a1.332,1.332,0,1,0-1.332,1.352A1.357,1.357,0,0,0,112.91,78.361Zm9.7,1.208h1.548v-12.8h-2.754L120.145,68.3h2.467V79.569Zm5.472,0h1.98l4.682-5.535a4.921,4.921,0,0,0,1.44-3.263,4.331,4.331,0,0,0-8.661.054,4.134,4.134,0,0,0,4,4.111,2.288,2.288,0,0,0,.5-0.036Zm1.026-8.763a2.746,2.746,0,1,1,2.737,2.759A2.719,2.719,0,0,1,129.11,70.806Zm18.02,4.922a3.577,3.577,0,0,0-2-3.354,3,3,0,0,0,1.3-2.524,3.32,3.32,0,0,0-3.583-3.3,3.366,3.366,0,0,0-3.6,3.3,2.986,2.986,0,0,0,1.332,2.524,3.579,3.579,0,0,0-2.035,3.354A4.3,4.3,0,0,0,147.13,75.728Zm-6.356-5.842a1.9,1.9,0,0,1,2.071-1.875,1.868,1.868,0,0,1,2.052,1.875,1.911,1.911,0,0,1-2.052,1.893A1.949,1.949,0,0,1,140.774,69.887Zm-0.666,5.842a2.539,2.539,0,0,1,2.737-2.56,2.556,2.556,0,1,1,0,5.1A2.546,2.546,0,0,1,140.108,75.728Zm11.34,3.84H153v-12.8h-2.755l-1.26,1.533h2.467V79.569Zm11.087,1.983h1.423V66.768h-1.423V81.552Zm8.766-1.983h1.728l1.639-3.732h5.959l1.639,3.732h1.747l-5.672-12.8h-1.387Zm4.015-5.247,2.323-5.283,2.322,5.283h-4.645Zm13.374,5.247h1.3l4.16-9.015h-1.729l-3.079,6.815-3.079-6.815h-1.728Zm7.037-4.507a4.508,4.508,0,0,0,4.411,4.688,3.945,3.945,0,0,0,3.169-1.569v1.388h1.549V70.554h-1.549v1.388a3.945,3.945,0,0,0-3.169-1.569A4.508,4.508,0,0,0,195.727,75.061Zm7.706,0a3.076,3.076,0,1,1-3.061-3.263A3.076,3.076,0,0,1,203.433,75.061Zm7.108-8.023a1.088,1.088,0,0,0-1.08-1.1,1.119,1.119,0,0,0-1.116,1.1,1.107,1.107,0,0,0,1.116,1.1A1.077,1.077,0,0,0,210.541,67.038Zm-1.872,12.531h1.548V70.554h-1.548v9.015Zm5.382,0H215.6V66.046h-1.548V79.569Zm4.679-4.507a4.509,4.509,0,0,0,4.412,4.688,3.948,3.948,0,0,0,3.169-1.569v1.388h1.548V70.554h-1.548v1.388a3.948,3.948,0,0,0-3.169-1.569A4.509,4.509,0,0,0,218.73,75.061Zm7.707,0a3.076,3.076,0,1,1-3.061-3.263A3.077,3.077,0,0,1,226.437,75.061Zm6.784,3.119a3.945,3.945,0,0,0,3.169,1.569,4.7,4.7,0,0,0,0-9.375,3.945,3.945,0,0,0-3.169,1.569v-5.9h-1.549V79.569h1.549V78.18Zm6-3.119a3.067,3.067,0,1,1-3.061-3.263A3.077,3.077,0,0,1,239.217,75.061Zm4.695,4.507h1.549V66.046h-1.549V79.569Zm4.68-4.507a4.745,4.745,0,0,0,8.714,2.542l-1.224-.847a3.187,3.187,0,0,1-5.924-1.388h7.383a4.407,4.407,0,0,0,.018-0.469,4.2,4.2,0,0,0-4.286-4.525A4.565,4.565,0,0,0,248.592,75.061Zm4.627-3.318a2.694,2.694,0,0,1,2.755,2.362h-5.708A2.944,2.944,0,0,1,253.219,71.744Zm14.6-4.706a1.088,1.088,0,0,0-1.08-1.1,1.119,1.119,0,0,0-1.116,1.1,1.107,1.107,0,0,0,1.116,1.1A1.077,1.077,0,0,0,267.816,67.038Zm-1.872,12.531h1.548V70.554h-1.548v9.015Zm5.382,0h1.548V75.1c0-2.11,1.152-3.3,2.611-3.3a2.162,2.162,0,0,1,2.124,2.452v5.319h1.531V74.016a3.32,3.32,0,0,0-3.4-3.642,3.183,3.183,0,0,0-2.863,1.569V70.554h-1.548v9.015Zm16.793,0h1.549V66.046h-1.549V79.569Zm4.68-4.507a4.745,4.745,0,0,0,8.714,2.542l-1.224-.847a3.187,3.187,0,0,1-5.924-1.388h7.383a4.407,4.407,0,0,0,.018-0.469,4.2,4.2,0,0,0-4.286-4.525A4.565,4.565,0,0,0,292.8,75.061Zm4.627-3.318a2.694,2.694,0,0,1,2.755,2.362h-5.708A2.944,2.944,0,0,1,297.426,71.744Zm6.731,3.318a4.508,4.508,0,0,0,4.411,4.688,3.946,3.946,0,0,0,3.169-1.569v1.388h1.548V70.554h-1.548v1.388a3.947,3.947,0,0,0-3.169-1.569A4.508,4.508,0,0,0,304.157,75.061Zm7.706,0A3.076,3.076,0,1,1,308.8,71.8,3.076,3.076,0,0,1,311.863,75.061Zm10.115,4.381V78.054a3.416,3.416,0,0,1-1.1.18,1.3,1.3,0,0,1-1.5-1.532V71.978h2.593V70.554h-2.593V68.048h-1.548v2.506h-1.909v1.424h1.909V76.9a2.536,2.536,0,0,0,2.755,2.759A4.3,4.3,0,0,0,321.978,79.443Zm2.879,0.126H326.4V75.1c0-2.11,1.152-3.3,2.611-3.3a2.163,2.163,0,0,1,2.125,2.452v5.319h1.53V74.016a3.32,3.32,0,0,0-3.4-3.642,3.183,3.183,0,0,0-2.863,1.569v-5.9h-1.548V79.569Zm10.8-4.507a4.745,4.745,0,0,0,8.715,2.542l-1.224-.847a3.187,3.187,0,0,1-5.924-1.388h7.382a4.407,4.407,0,0,0,.018-0.469,4.2,4.2,0,0,0-4.285-4.525A4.566,4.566,0,0,0,335.656,75.061Zm4.628-3.318a2.7,2.7,0,0,1,2.755,2.362h-5.708A2.944,2.944,0,0,1,340.284,71.744Zm7.432,7.825h1.549V75.1c0-2.11,1.242-3.1,2.377-3.1a2.259,2.259,0,0,1,.846.144v-1.6a3.2,3.2,0,0,0-.7-0.072,2.678,2.678,0,0,0-2.521,1.839V70.554h-1.549v9.015Zm11.628-4.507a4.509,4.509,0,0,0,4.411,4.688,3.945,3.945,0,0,0,3.169-1.569v1.388h1.549V70.554h-1.549v1.388a3.945,3.945,0,0,0-3.169-1.569A4.509,4.509,0,0,0,359.344,75.061Zm7.706,0a3.076,3.076,0,1,1-3.061-3.263A3.076,3.076,0,0,1,367.05,75.061Zm5.236,4.507h1.548V75.1c0-2.11,1.153-3.3,2.611-3.3a2.163,2.163,0,0,1,2.125,2.452v5.319h1.53V74.016a3.32,3.32,0,0,0-3.4-3.642,3.184,3.184,0,0,0-2.863,1.569V70.554h-1.548v9.015Zm10.8-4.507a4.508,4.508,0,0,0,4.411,4.688,3.946,3.946,0,0,0,3.169-1.569v1.388h1.548V66.046h-1.548v5.9a3.947,3.947,0,0,0-3.169-1.569A4.508,4.508,0,0,0,383.086,75.061Zm7.706,0a3.076,3.076,0,1,1-3.061-3.263A3.076,3.076,0,0,1,390.792,75.061Zm16.361,2c0-1.352-.846-2.218-2.377-2.722l-0.972-.325c-1.062-.343-1.386-0.685-1.386-1.262a1.274,1.274,0,0,1,1.512-1.046,2.432,2.432,0,0,1,1.909.938l1.008-.974a3.488,3.488,0,0,0-2.881-1.3c-1.782,0-3.043.992-3.043,2.452a2.72,2.72,0,0,0,2.233,2.614l0.882,0.288c1.171,0.379,1.6.811,1.6,1.442a1.371,1.371,0,0,1-1.585,1.226,2.415,2.415,0,0,1-2.3-1.424l-1.261.685a3.575,3.575,0,0,0,3.529,2.091C405.839,79.749,407.153,78.83,407.153,77.063Zm2.986-.974c0,2.236,1.333,3.66,3.313,3.66a3.1,3.1,0,0,0,2.773-1.569v1.388h1.549V70.554h-1.549v4.471c0,2.073-1.1,3.3-2.5,3.3-1.242,0-2.034-.956-2.034-2.47v-5.3h-1.549v5.535Zm10.746-1.028A4.745,4.745,0,0,0,429.6,77.6l-1.225-.847a3.187,3.187,0,0,1-5.924-1.388h7.383a4.407,4.407,0,0,0,.018-0.469,4.2,4.2,0,0,0-4.286-4.525A4.565,4.565,0,0,0,420.885,75.061Zm4.627-3.318a2.694,2.694,0,0,1,2.755,2.362H422.56A2.943,2.943,0,0,1,425.512,71.744Zm6.731,3.318a4.508,4.508,0,0,0,4.411,4.688,3.945,3.945,0,0,0,3.169-1.569v1.388h1.549V66.046h-1.549v5.9a3.945,3.945,0,0,0-3.169-1.569A4.508,4.508,0,0,0,432.243,75.061Zm7.706,0a3.076,3.076,0,1,1-3.061-3.263A3.076,3.076,0,0,1,439.949,75.061Zm4.534,0A4.745,4.745,0,0,0,453.2,77.6l-1.224-.847a3.187,3.187,0,0,1-5.924-1.388h7.382a4.407,4.407,0,0,0,.018-0.469,4.2,4.2,0,0,0-4.285-4.525A4.565,4.565,0,0,0,444.483,75.061Zm4.627-3.318a2.7,2.7,0,0,1,2.755,2.362h-5.708A2.944,2.944,0,0,1,449.11,71.744Zm9.575,6.617a1.332,1.332,0,1,0-1.332,1.352A1.357,1.357,0,0,0,458.685,78.361ZM40.632,118.188V113.1H35.983v1.392h3.211v3.039a5.014,5.014,0,0,1-3.02.848,4.465,4.465,0,1,1-.192-8.927,4.652,4.652,0,0,1,3.275,1.248l0.991-1.072a5.987,5.987,0,0,0-4.266-1.583,5.873,5.873,0,1,0,.192,11.742A6.228,6.228,0,0,0,40.632,118.188ZM51.369,115.6a4.178,4.178,0,1,0-4.17,4.159A4.1,4.1,0,0,0,51.369,115.6Zm-6.949,0a2.774,2.774,0,1,1,2.78,2.879A2.748,2.748,0,0,1,44.42,115.6ZM55.8,108.478a0.965,0.965,0,0,0-.959-0.976,0.993,0.993,0,0,0-.99.976,0.982,0.982,0,0,0,.99.975A0.955,0.955,0,0,0,55.8,108.478ZM54.134,119.6h1.374v-8H54.134v8Zm4.777,0h1.374v-3.967c0-1.872,1.022-2.928,2.317-2.928a1.919,1.919,0,0,1,1.885,2.176V119.6h1.358v-4.927a2.946,2.946,0,0,0-3.019-3.232,2.824,2.824,0,0,0-2.54,1.392V111.6H58.912v8Zm17.655-.464V111.6H75.193v1.232a3.4,3.4,0,0,0-2.78-1.392,4.075,4.075,0,0,0,0,8.143,3.41,3.41,0,0,0,2.78-1.408v0.912a2.555,2.555,0,0,1-2.668,2.768,3.416,3.416,0,0,1-2.8-1.344l-0.959.96a4.739,4.739,0,0,0,3.77,1.631A3.7,3.7,0,0,0,76.566,119.132ZM69.9,115.5a2.7,2.7,0,1,1,2.7,2.8A2.664,2.664,0,0,1,69.9,115.5Zm14.748,7.438h1.374v-4.575a3.5,3.5,0,0,0,2.812,1.392,4.167,4.167,0,0,0,0-8.319,3.5,3.5,0,0,0-2.812,1.392V111.6H84.652v11.342Zm6.694-7.342a2.722,2.722,0,1,1-2.716-2.9A2.729,2.729,0,0,1,91.346,115.6Zm4.187,4h1.374v-12H95.533v12Zm4.154-4a4,4,0,0,0,3.914,4.159,3.5,3.5,0,0,0,2.811-1.392V119.6h1.374v-8h-1.374v1.232a3.5,3.5,0,0,0-2.811-1.392A4,4,0,0,0,99.688,115.6Zm6.837,0a2.729,2.729,0,1,1-2.716-2.9A2.729,2.729,0,0,1,106.525,115.6Zm11.9,2.015-1.2-.672a2.708,2.708,0,0,1-2.493,1.536,2.881,2.881,0,0,1,0-5.759,2.708,2.708,0,0,1,2.493,1.536l1.2-.672A4.16,4.16,0,1,0,118.429,117.612Zm1.95-2.015a4.21,4.21,0,0,0,7.732,2.255l-1.086-.752a2.827,2.827,0,0,1-5.256-1.232h6.55a3.876,3.876,0,0,0,.016-0.415,3.725,3.725,0,0,0-3.8-4.016A4.051,4.051,0,0,0,120.379,115.6Zm4.106-2.944a2.391,2.391,0,0,1,2.444,2.1h-5.064A2.612,2.612,0,0,1,124.485,112.653Zm11.776,4.719c0-1.2-.751-1.967-2.109-2.415l-0.863-.288c-0.943-.3-1.23-0.608-1.23-1.12a1.131,1.131,0,0,1,1.342-.928,2.156,2.156,0,0,1,1.693.832l0.9-.864a3.1,3.1,0,0,0-2.556-1.152c-1.582,0-2.7.88-2.7,2.176a2.412,2.412,0,0,0,1.981,2.319l0.783,0.256c1.038,0.336,1.422.72,1.422,1.28a1.217,1.217,0,0,1-1.406,1.088,2.143,2.143,0,0,1-2.045-1.264l-1.119.608a3.174,3.174,0,0,0,3.132,1.856C135.094,119.756,136.261,118.94,136.261,117.372Zm4.506-1.551h1.374v-0.128c0-.608.671-1.04,1.262-1.5a3.584,3.584,0,0,0,1.677-2.88,3.211,3.211,0,0,0-3.291-3.263,3.449,3.449,0,0,0-3.53,3.471h1.373a2.057,2.057,0,0,1,2.157-2.128,1.873,1.873,0,0,1,1.917,1.952c0,0.96-.607,1.424-1.485,2.08a3.072,3.072,0,0,0-1.454,2.08v0.32Zm1.853,2.7a1.182,1.182,0,1,0-1.182,1.2A1.2,1.2,0,0,0,142.62,118.524Zm11.968,1.072h1.454v-9.951h3.53v-1.407h-8.515v1.407h3.531V119.6Zm7.238,0H163.2v-3.967c0-1.872,1.023-2.928,2.317-2.928a1.919,1.919,0,0,1,1.885,2.176V119.6h1.358v-4.927a2.946,2.946,0,0,0-3.02-3.232,2.824,2.824,0,0,0-2.54,1.392V107.6h-1.374v12ZM173.7,108.478a0.966,0.966,0,0,0-.959-0.976,0.993,0.993,0,0,0-.99.976,0.982,0.982,0,0,0,.99.975A0.956,0.956,0,0,0,173.7,108.478ZM172.036,119.6h1.374v-8h-1.374v8Zm9.954-2.224c0-1.2-.751-1.967-2.109-2.415l-0.863-.288c-0.942-.3-1.23-0.608-1.23-1.12a1.131,1.131,0,0,1,1.342-.928,2.156,2.156,0,0,1,1.693.832l0.895-.864a3.1,3.1,0,0,0-2.556-1.152c-1.582,0-2.7.88-2.7,2.176a2.412,2.412,0,0,0,1.981,2.319l0.783,0.256c1.038,0.336,1.422.72,1.422,1.28a1.216,1.216,0,0,1-1.406,1.088,2.143,2.143,0,0,1-2.045-1.264l-1.118.608a3.171,3.171,0,0,0,3.131,1.856C180.823,119.756,181.99,118.94,181.99,117.372Zm7.462,2.224h1.374v-3.967c0-1.808.911-2.928,2.205-2.928,1.038,0,1.565.9,1.565,2.192v4.7h1.374v-3.967c0-1.808.9-2.928,2.189-2.928,1.038,0,1.581.9,1.581,2.192v4.7h1.374v-4.911c0-1.952-1.054-3.248-2.8-3.248a2.763,2.763,0,0,0-2.62,1.712,2.513,2.513,0,0,0-2.461-1.712,2.684,2.684,0,0,0-2.412,1.392V111.6h-1.374v8Zm16.6-11.118a0.965,0.965,0,0,0-.959-0.976,0.993,0.993,0,0,0-.99.976,0.982,0.982,0,0,0,.99.975A0.955,0.955,0,0,0,206.053,108.478ZM204.392,119.6h1.373v-8h-1.373v8Zm4.777,0h1.374v-12h-1.374v12Zm6.439-11.118a0.966,0.966,0,0,0-.959-0.976,0.993,0.993,0,0,0-.99.976,0.982,0.982,0,0,0,.99.975A0.956,0.956,0,0,0,215.608,108.478ZM213.946,119.6h1.374v-8h-1.374v8Zm9.107-.112v-1.232a3.029,3.029,0,0,1-.974.16,1.151,1.151,0,0,1-1.326-1.36v-4.191h2.3V111.6h-2.3v-2.224h-1.374V111.6h-1.694v1.264h1.694v4.367a2.25,2.25,0,0,0,2.444,2.448A3.815,3.815,0,0,0,223.053,119.484Zm1.823-3.887a4,4,0,0,0,3.914,4.159,3.5,3.5,0,0,0,2.811-1.392V119.6h1.374v-8H231.6v1.232a3.5,3.5,0,0,0-2.811-1.392A4,4,0,0,0,224.876,115.6Zm6.837,0A2.729,2.729,0,1,1,229,112.7,2.729,2.729,0,0,1,231.713,115.6Zm4.651,4h1.374v-3.967c0-1.872,1.1-2.752,2.108-2.752a2,2,0,0,1,.751.128v-1.424a2.836,2.836,0,0,0-.623-0.064,2.376,2.376,0,0,0-2.236,1.632V111.6h-1.374v8Zm8.771,3.343,5.24-11.342h-1.533l-2.732,6.063-2.748-6.063h-1.518l3.5,7.583-1.741,3.759h1.533Zm6.983-7.134h4.074v-1.376h-4.074v1.376ZM261,108.478a0.966,0.966,0,0,0-.959-0.976,0.993,0.993,0,0,0-.99.976,0.982,0.982,0,0,0,.99.975A0.956,0.956,0,0,0,261,108.478ZM259.34,119.6h1.374v-8H259.34v8Zm4.778,0h1.374v-3.967c0-1.872,1.022-2.928,2.316-2.928a1.919,1.919,0,0,1,1.885,2.176V119.6h1.358v-4.927a2.946,2.946,0,0,0-3.019-3.232,2.823,2.823,0,0,0-2.54,1.392V111.6h-1.374v8Zm15.386-2.224c0-1.2-.751-1.967-2.109-2.415l-0.863-.288c-0.942-.3-1.23-0.608-1.23-1.12a1.131,1.131,0,0,1,1.342-.928,2.159,2.159,0,0,1,1.694.832l0.894-.864a3.1,3.1,0,0,0-2.556-1.152c-1.582,0-2.7.88-2.7,2.176a2.412,2.412,0,0,0,1.981,2.319l0.783,0.256c1.038,0.336,1.422.72,1.422,1.28a1.216,1.216,0,0,1-1.406,1.088,2.144,2.144,0,0,1-2.045-1.264l-1.118.608a3.171,3.171,0,0,0,3.131,1.856C278.338,119.756,279.5,118.94,279.5,117.372Zm2.765,5.567h1.374v-4.575a3.5,3.5,0,0,0,2.811,1.392,4.167,4.167,0,0,0,0-8.319,3.5,3.5,0,0,0-2.811,1.392V111.6h-1.374v11.342Zm6.694-7.342a2.722,2.722,0,1,1-2.716-2.9A2.73,2.73,0,0,1,288.963,115.6Zm5.848-7.119a0.965,0.965,0,0,0-.958-0.976,0.993,0.993,0,0,0-.991.976,0.982,0.982,0,0,0,.991.975A0.955,0.955,0,0,0,294.811,108.478ZM293.15,119.6h1.374v-8H293.15v8Zm4.777,0H299.3v-3.967c0-1.872,1.1-2.752,2.109-2.752a2.009,2.009,0,0,1,.751.128v-1.424a2.848,2.848,0,0,0-.623-0.064,2.377,2.377,0,0,0-2.237,1.632V111.6h-1.374v8Zm5.737-4a4.21,4.21,0,0,0,7.732,2.255l-1.086-.752a2.828,2.828,0,0,1-5.257-1.232H311.6a3.876,3.876,0,0,0,.016-0.415,3.726,3.726,0,0,0-3.8-4.016A4.05,4.05,0,0,0,303.664,115.6Zm4.105-2.944a2.392,2.392,0,0,1,2.445,2.1h-5.065A2.613,2.613,0,0,1,307.769,112.653Zm5.977,2.944a4,4,0,0,0,3.914,4.159,3.5,3.5,0,0,0,2.812-1.392V119.6h1.373v-12h-1.373v5.231a3.5,3.5,0,0,0-2.812-1.392A4,4,0,0,0,313.746,115.6Zm6.837,0a2.729,2.729,0,1,1-2.716-2.9A2.729,2.729,0,0,1,320.583,115.6Zm10.722,2.767a3.5,3.5,0,0,0,2.812,1.392,4.167,4.167,0,0,0,0-8.319,3.5,3.5,0,0,0-2.812,1.392V107.6h-1.374v12h1.374v-1.232Zm5.32-2.767a2.722,2.722,0,1,1-2.716-2.9A2.729,2.729,0,0,1,336.625,115.6Zm11.888,0a4.178,4.178,0,1,0-4.17,4.159A4.1,4.1,0,0,0,348.513,115.6Zm-6.95,0a2.774,2.774,0,1,1,2.78,2.879A2.748,2.748,0,0,1,341.563,115.6Zm17.431,0a4.178,4.178,0,1,0-4.17,4.159A4.1,4.1,0,0,0,358.994,115.6Zm-6.949,0a2.774,2.774,0,1,1,2.779,2.879A2.747,2.747,0,0,1,352.045,115.6Zm13.9,3.887v-1.232a3.029,3.029,0,0,1-.974.16,1.151,1.151,0,0,1-1.326-1.36v-4.191h2.3V111.6h-2.3v-2.224h-1.374V111.6h-1.694v1.264h1.694v4.367a2.25,2.25,0,0,0,2.444,2.448A3.815,3.815,0,0,0,365.945,119.484Zm13.741,0.112H380.9l2.716-8h-1.454l-1.933,5.839-2-5.839h-1.054l-2,5.839-1.933-5.839H371.81l2.716,8h1.214l1.981-5.759Zm7.878-11.118a0.966,0.966,0,0,0-.959-0.976,0.993,0.993,0,0,0-.99.976,0.982,0.982,0,0,0,.99.975A0.956,0.956,0,0,0,387.564,108.478ZM385.9,119.6h1.374v-8H385.9v8Zm4.778,0h1.374v-12H390.68v12Zm4.777,0h1.374v-12h-1.374v12Zm9.475,0h1.374v-3.967c0-1.872,1.022-2.928,2.316-2.928a1.919,1.919,0,0,1,1.885,2.176V119.6h1.358v-4.927a2.946,2.946,0,0,0-3.019-3.232,2.823,2.823,0,0,0-2.54,1.392V107.6h-1.374v12Zm9.587-4a4.21,4.21,0,0,0,7.732,2.255l-1.086-.752a2.827,2.827,0,0,1-5.256-1.232h6.55a3.876,3.876,0,0,0,.016-0.415,3.726,3.726,0,0,0-3.8-4.016A4.05,4.05,0,0,0,414.519,115.6Zm4.105-2.944a2.391,2.391,0,0,1,2.445,2.1H416A2.613,2.613,0,0,1,418.624,112.653Zm6.6,6.943H426.6v-12h-1.374v12ZM430,122.939h1.374v-4.575a3.5,3.5,0,0,0,2.812,1.392,4.167,4.167,0,0,0,0-8.319,3.5,3.5,0,0,0-2.812,1.392V111.6H430v11.342ZM436.7,115.6a2.722,2.722,0,1,1-2.716-2.9A2.729,2.729,0,0,1,436.7,115.6Zm10.642,7.342,5.24-11.342h-1.533l-2.732,6.063-2.748-6.063h-1.518l3.5,7.583-1.741,3.759h1.533Zm14.955-7.342a4.178,4.178,0,1,0-4.169,4.159A4.1,4.1,0,0,0,462.292,115.6Zm-6.949,0a2.774,2.774,0,1,1,2.78,2.879A2.748,2.748,0,0,1,455.343,115.6Zm9.6,0.911c0,1.984,1.182,3.248,2.939,3.248a2.746,2.746,0,0,0,2.46-1.392V119.6h1.374v-8h-1.374v3.968c0,1.839-.974,2.927-2.22,2.927-1.1,0-1.806-.848-1.806-2.192v-4.7h-1.373v4.911Zm14.859,3.088h1.374v-3.967c0-1.872,1.022-2.928,2.316-2.928a1.919,1.919,0,0,1,1.886,2.176V119.6h1.358v-4.927a2.947,2.947,0,0,0-3.02-3.232,2.824,2.824,0,0,0-2.54,1.392V111.6h-1.374v8Zm9.587-4a4,4,0,0,0,3.914,4.159,3.5,3.5,0,0,0,2.812-1.392V119.6h1.374v-8h-1.374v1.232a3.5,3.5,0,0,0-2.812-1.392A4,4,0,0,0,489.392,115.6Zm6.838,0a2.729,2.729,0,1,1-2.716-2.9A2.73,2.73,0,0,1,496.23,115.6Zm7.142,4h1.15l3.691-8h-1.534l-2.732,6.047-2.732-6.047h-1.533Zm8.692-11.118a0.965,0.965,0,0,0-.958-0.976,0.994,0.994,0,0,0-.991.976,0.983,0.983,0,0,0,.991.975A0.955,0.955,0,0,0,512.064,108.478ZM510.4,119.6h1.374v-8H510.4v8Zm12.222-.464V111.6h-1.374v1.232a3.4,3.4,0,0,0-2.78-1.392,4.075,4.075,0,0,0,0,8.143,3.41,3.41,0,0,0,2.78-1.408v0.912a2.555,2.555,0,0,1-2.668,2.768,3.416,3.416,0,0,1-2.8-1.344l-0.958.96a4.739,4.739,0,0,0,3.77,1.631A3.7,3.7,0,0,0,522.625,119.132Zm-6.662-3.631a2.7,2.7,0,1,1,2.7,2.8A2.664,2.664,0,0,1,515.963,115.5Zm9.427,0.1a4,4,0,0,0,3.914,4.159,3.5,3.5,0,0,0,2.812-1.392V119.6h1.374v-8h-1.374v1.232a3.5,3.5,0,0,0-2.812-1.392A4,4,0,0,0,525.39,115.6Zm6.838,0a2.729,2.729,0,1,1-2.716-2.9A2.729,2.729,0,0,1,532.228,115.6Zm8.98,3.887v-1.232a3.035,3.035,0,0,1-.975.16,1.151,1.151,0,0,1-1.326-1.36v-4.191h2.3V111.6h-2.3v-2.224h-1.374V111.6H535.84v1.264h1.693v4.367a2.251,2.251,0,0,0,2.445,2.448A3.82,3.82,0,0,0,541.208,119.484Zm1.822-3.887a4.21,4.21,0,0,0,7.733,2.255l-1.087-.752a2.827,2.827,0,0,1-5.256-1.232h6.55a3.876,3.876,0,0,0,.016-0.415,3.725,3.725,0,0,0-3.8-4.016A4.051,4.051,0,0,0,543.03,115.6Zm4.106-2.944a2.39,2.39,0,0,1,2.444,2.1h-5.064A2.613,2.613,0,0,1,547.136,112.653Zm15.355,6.831v-1.232a3.035,3.035,0,0,1-.975.16,1.151,1.151,0,0,1-1.326-1.36v-4.191h2.3V111.6h-2.3v-2.224h-1.374V111.6h-1.693v1.264h1.693v4.367a2.251,2.251,0,0,0,2.445,2.448A3.82,3.82,0,0,0,562.491,119.484Zm2.557,0.112h1.374v-3.967c0-1.872,1.022-2.928,2.316-2.928a1.919,1.919,0,0,1,1.885,2.176V119.6h1.358v-4.927a2.946,2.946,0,0,0-3.019-3.232,2.823,2.823,0,0,0-2.54,1.392V107.6h-1.374v12Zm9.587-4a4.21,4.21,0,0,0,7.732,2.255l-1.086-.752a2.827,2.827,0,0,1-5.256-1.232h6.55a3.876,3.876,0,0,0,.016-0.415,3.726,3.726,0,0,0-3.8-4.016A4.05,4.05,0,0,0,574.635,115.6Zm4.105-2.944a2.391,2.391,0,0,1,2.445,2.1H576.12A2.613,2.613,0,0,1,578.74,112.653ZM30.519,136.508c0,1.984,1.182,3.248,2.94,3.248a2.747,2.747,0,0,0,2.46-1.392V139.6h1.374v-8H35.919v3.968c0,1.839-.974,2.927-2.221,2.927-1.1,0-1.805-.848-1.805-2.192v-4.7H30.519v4.911ZM40.681,139.6h1.374v-3.967c0-1.872,1.1-2.752,2.109-2.752a2.006,2.006,0,0,1,.751.128v-1.424a2.843,2.843,0,0,0-.623-0.064,2.377,2.377,0,0,0-2.237,1.632V131.6H40.681v8Zm8.021-1.232a3.5,3.5,0,0,0,2.812,1.392,4.167,4.167,0,0,0,0-8.319,3.5,3.5,0,0,0-2.812,1.392V127.6H47.328v12H48.7v-1.232Zm5.32-2.767a2.722,2.722,0,1,1-2.716-2.9A2.729,2.729,0,0,1,54.022,135.6Zm3.548,0a4,4,0,0,0,3.914,4.159,3.5,3.5,0,0,0,2.812-1.392V139.6H65.67v-8H64.3v1.232a3.5,3.5,0,0,0-2.812-1.392A4,4,0,0,0,57.57,135.6Zm6.838,0a2.729,2.729,0,1,1-2.716-2.9A2.729,2.729,0,0,1,64.407,135.6Zm4.65,4h1.374v-3.967c0-1.872,1.022-2.928,2.316-2.928a1.919,1.919,0,0,1,1.885,2.176V139.6h1.358v-4.927a2.946,2.946,0,0,0-3.019-3.232,2.824,2.824,0,0,0-2.54,1.392V131.6H69.058v8Zm16.7-11.118A0.966,0.966,0,0,0,84.8,127.5a0.993,0.993,0,0,0-.99.976,0.982,0.982,0,0,0,.99.975A0.955,0.955,0,0,0,85.754,128.478ZM85.467,131.6H84.093v8.895a1.129,1.129,0,0,1-1.23,1.36,3.5,3.5,0,0,1-.463-0.032v1.231a4.055,4.055,0,0,0,.655.048,2.241,2.241,0,0,0,2.412-2.447V131.6Zm3.292,4.911c0,1.984,1.182,3.248,2.94,3.248a2.747,2.747,0,0,0,2.46-1.392V139.6h1.374v-8H94.158v3.968c0,1.839-.975,2.927-2.221,2.927-1.1,0-1.805-.848-1.805-2.192v-4.7H88.758v4.911ZM98.921,139.6h1.373v-3.967c0-1.872,1.023-2.928,2.317-2.928a1.919,1.919,0,0,1,1.885,2.176V139.6h1.358v-4.927a2.946,2.946,0,0,0-3.019-3.232,2.825,2.825,0,0,0-2.541,1.392V131.6H98.921v8Zm17.655-.464V131.6H115.2v1.232a3.4,3.4,0,0,0-2.78-1.392,4.075,4.075,0,0,0,0,8.143,3.408,3.408,0,0,0,2.78-1.408v0.912a2.555,2.555,0,0,1-2.668,2.768,3.417,3.417,0,0,1-2.8-1.344l-0.958.96a4.739,4.739,0,0,0,3.77,1.631A3.7,3.7,0,0,0,116.575,139.132Zm-6.662-3.631a2.7,2.7,0,1,1,2.7,2.8A2.664,2.664,0,0,1,109.913,135.5Zm10.05,4.095h1.374v-12h-1.374v12Zm4.155-4a4.21,4.21,0,0,0,7.732,2.255l-1.086-.752a2.827,2.827,0,0,1-5.256-1.232h6.55a3.876,3.876,0,0,0,.016-0.415,3.725,3.725,0,0,0-3.8-4.016A4.051,4.051,0,0,0,124.118,135.6Zm4.106-2.944a2.391,2.391,0,0,1,2.444,2.1H125.6A2.611,2.611,0,0,1,128.224,132.653Zm12.958-4.175a0.965,0.965,0,0,0-.959-0.976,0.993,0.993,0,0,0-.99.976,0.982,0.982,0,0,0,.99.975A0.955,0.955,0,0,0,141.182,128.478ZM139.52,139.6h1.374v-8H139.52v8Zm4.778,0h1.374v-3.967c0-1.872,1.022-2.928,2.316-2.928a1.919,1.919,0,0,1,1.885,2.176V139.6h1.358v-4.927a2.946,2.946,0,0,0-3.019-3.232,2.824,2.824,0,0,0-2.54,1.392V131.6H144.3v8Zm20.083-2.224c0-1.2-.75-1.967-2.108-2.415l-0.863-.288c-0.943-.3-1.23-0.608-1.23-1.12a1.131,1.131,0,0,1,1.342-.928,2.156,2.156,0,0,1,1.693.832l0.9-.864a3.1,3.1,0,0,0-2.556-1.152c-1.582,0-2.7.88-2.7,2.176a2.412,2.412,0,0,0,1.981,2.319l0.783,0.256c1.038,0.336,1.421.72,1.421,1.28a1.216,1.216,0,0,1-1.405,1.088,2.143,2.143,0,0,1-2.045-1.264l-1.119.608a3.174,3.174,0,0,0,3.132,1.856C163.215,139.756,164.381,138.94,164.381,137.372Zm7,2.112v-1.232a3.035,3.035,0,0,1-.975.16,1.151,1.151,0,0,1-1.326-1.36v-4.191h2.3V131.6h-2.3v-2.224h-1.374V131.6h-1.693v1.264h1.693v4.367a2.251,2.251,0,0,0,2.445,2.448A3.82,3.82,0,0,0,171.38,139.484Zm4.682,3.455L181.3,131.6h-1.534l-2.732,6.063-2.748-6.063h-1.517l3.5,7.583-1.741,3.759h1.534Zm7.414-3.343h1.374v-12h-1.374v12Zm4.154-4a4.21,4.21,0,0,0,7.733,2.255l-1.087-.752a2.827,2.827,0,0,1-5.256-1.232h6.55a3.876,3.876,0,0,0,.016-0.415,3.725,3.725,0,0,0-3.8-4.016A4.051,4.051,0,0,0,187.63,135.6Zm4.106-2.944a2.39,2.39,0,0,1,2.444,2.1h-5.064A2.613,2.613,0,0,1,191.736,132.653Zm8.5,5.871a1.183,1.183,0,1,0-1.183,1.2A1.205,1.205,0,0,0,200.237,138.524Zm18.773-4.607a5.864,5.864,0,1,0-5.864,5.871A5.811,5.811,0,0,0,219.01,133.917Zm-10.225,0a4.37,4.37,0,1,1,4.361,4.463A4.352,4.352,0,0,1,208.785,133.917Zm12.927,2.591c0,1.984,1.182,3.248,2.939,3.248a2.746,2.746,0,0,0,2.46-1.392V139.6h1.374v-8h-1.374v3.968c0,1.839-.974,2.927-2.22,2.927-1.1,0-1.8-.848-1.8-2.192v-4.7h-1.374v4.911Zm10.162,3.088h1.374v-3.967c0-1.872,1.1-2.752,2.108-2.752a2,2,0,0,1,.751.128v-1.424a2.836,2.836,0,0,0-.623-0.064,2.376,2.376,0,0,0-2.236,1.632V131.6h-1.374v8Zm11.408,0h1.374v-6.735h2.317V131.6h-2.317v-1.472a1.15,1.15,0,0,1,1.326-1.359,3.246,3.246,0,0,1,.991.159V127.71a3.63,3.63,0,0,0-1.247-.208,2.283,2.283,0,0,0-2.444,2.479V131.6h-1.693v1.264h1.693V139.6Zm6.854-11.118a0.966,0.966,0,0,0-.959-0.976,0.993,0.993,0,0,0-.99.976,0.982,0.982,0,0,0,.99.975A0.956,0.956,0,0,0,250.136,128.478ZM248.474,139.6h1.374v-8h-1.374v8Zm4.762,0h1.374v-3.967c0-1.872,1.1-2.752,2.109-2.752a2.006,2.006,0,0,1,.751.128v-1.424a2.842,2.842,0,0,0-.623-0.064,2.377,2.377,0,0,0-2.237,1.632V131.6h-1.374v8Zm11.68-2.224c0-1.2-.751-1.967-2.109-2.415l-0.863-.288c-0.942-.3-1.23-0.608-1.23-1.12a1.131,1.131,0,0,1,1.342-.928,2.159,2.159,0,0,1,1.694.832l0.894-.864a3.1,3.1,0,0,0-2.556-1.152c-1.581,0-2.7.88-2.7,2.176a2.412,2.412,0,0,0,1.981,2.319l0.783,0.256c1.039,0.336,1.422.72,1.422,1.28a1.216,1.216,0,0,1-1.406,1.088,2.144,2.144,0,0,1-2.045-1.264l-1.118.608a3.171,3.171,0,0,0,3.131,1.856C263.75,139.756,264.916,138.94,264.916,137.372Zm7,2.112v-1.232a3.04,3.04,0,0,1-.975.16,1.151,1.151,0,0,1-1.326-1.36v-4.191h2.3V131.6h-2.3v-2.224H268.24V131.6h-1.693v1.264h1.693v4.367a2.25,2.25,0,0,0,2.444,2.448A3.822,3.822,0,0,0,271.915,139.484Zm9.395,0.112h1.15l3.691-8h-1.534l-2.732,6.047-2.732-6.047h-1.534Zm6.232-4a4.21,4.21,0,0,0,7.732,2.255l-1.086-.752a2.827,2.827,0,0,1-5.256-1.232h6.55a3.876,3.876,0,0,0,.016-0.415,3.725,3.725,0,0,0-3.8-4.016A4.051,4.051,0,0,0,287.542,135.6Zm4.106-2.944a2.391,2.391,0,0,1,2.444,2.1h-5.064A2.612,2.612,0,0,1,291.648,132.653Zm6.6,6.943h1.374v-3.967c0-1.872,1.1-2.752,2.109-2.752a2.006,2.006,0,0,1,.751.128v-1.424a2.848,2.848,0,0,0-.623-0.064,2.377,2.377,0,0,0-2.237,1.632V131.6h-1.374v8Zm11.68-2.224c0-1.2-.751-1.967-2.109-2.415l-0.863-.288c-0.942-.3-1.23-0.608-1.23-1.12a1.131,1.131,0,0,1,1.342-.928,2.156,2.156,0,0,1,1.693.832l0.895-.864a3.1,3.1,0,0,0-2.556-1.152c-1.582,0-2.7.88-2.7,2.176a2.412,2.412,0,0,0,1.981,2.319l0.783,0.256c1.038,0.336,1.422.72,1.422,1.28a1.216,1.216,0,0,1-1.406,1.088,2.143,2.143,0,0,1-2.045-1.264l-1.118.608a3.171,3.171,0,0,0,3.131,1.856C308.76,139.756,309.927,138.94,309.927,137.372Zm4.426-8.894a0.965,0.965,0,0,0-.959-0.976,0.993,0.993,0,0,0-.99.976,0.982,0.982,0,0,0,.99.975A0.955,0.955,0,0,0,314.353,128.478ZM312.692,139.6h1.374v-8h-1.374v8Zm12.493-4a4.178,4.178,0,1,0-4.169,4.159A4.1,4.1,0,0,0,325.185,135.6Zm-6.949,0a2.774,2.774,0,1,1,2.78,2.879A2.748,2.748,0,0,1,318.236,135.6Zm9.714,4h1.374v-3.967c0-1.872,1.023-2.928,2.317-2.928a1.919,1.919,0,0,1,1.885,2.176V139.6h1.358v-4.927a2.946,2.946,0,0,0-3.019-3.232,2.825,2.825,0,0,0-2.541,1.392V131.6H327.95v8Zm14.285-4a4,4,0,0,0,3.914,4.159,3.5,3.5,0,0,0,2.812-1.392V139.6h1.374v-8h-1.374v1.232a3.5,3.5,0,0,0-2.812-1.392A4,4,0,0,0,342.235,135.6Zm6.837,0a2.729,2.729,0,1,1-2.715-2.9A2.729,2.729,0,0,1,349.072,135.6Zm4.651,7.342H355.1v-4.575a3.5,3.5,0,0,0,2.812,1.392,4.167,4.167,0,0,0,0-8.319,3.5,3.5,0,0,0-2.812,1.392V131.6h-1.374v11.342Zm6.694-7.342a2.722,2.722,0,1,1-2.716-2.9A2.73,2.73,0,0,1,360.417,135.6Zm4.187,7.342h1.374v-4.575a3.5,3.5,0,0,0,2.812,1.392,4.167,4.167,0,0,0,0-8.319,3.5,3.5,0,0,0-2.812,1.392V131.6H364.6v11.342ZM371.3,135.6a2.722,2.722,0,1,1-2.716-2.9A2.729,2.729,0,0,1,371.3,135.6Zm3.564,0a4.21,4.21,0,0,0,7.732,2.255l-1.086-.752a2.827,2.827,0,0,1-5.256-1.232h6.55a3.876,3.876,0,0,0,.016-0.415,3.725,3.725,0,0,0-3.8-4.016A4.051,4.051,0,0,0,374.862,135.6Zm4.106-2.944a2.391,2.391,0,0,1,2.444,2.1h-5.064A2.612,2.612,0,0,1,378.968,132.653Zm5.976,2.944a4,4,0,0,0,3.914,4.159,3.5,3.5,0,0,0,2.812-1.392V139.6h1.374v-8H391.67v1.232a3.5,3.5,0,0,0-2.812-1.392A4,4,0,0,0,384.944,135.6Zm6.838,0a2.729,2.729,0,1,1-2.716-2.9A2.729,2.729,0,0,1,391.782,135.6Zm4.65,4h1.374v-3.967c0-1.872,1.1-2.752,2.109-2.752a2.006,2.006,0,0,1,.751.128v-1.424a2.842,2.842,0,0,0-.623-0.064,2.377,2.377,0,0,0-2.237,1.632V131.6h-1.374v8Zm5.737-4a4.21,4.21,0,0,0,7.732,2.255l-1.086-.752a2.827,2.827,0,0,1-5.256-1.232h6.55a3.876,3.876,0,0,0,.016-0.415,3.726,3.726,0,0,0-3.8-4.016A4.05,4.05,0,0,0,402.169,135.6Zm4.105-2.944a2.391,2.391,0,0,1,2.445,2.1h-5.065A2.613,2.613,0,0,1,406.274,132.653Zm5.977,2.944a4,4,0,0,0,3.914,4.159,3.5,3.5,0,0,0,2.812-1.392V139.6h1.374v-12h-1.374v5.231a3.5,3.5,0,0,0-2.812-1.392A4,4,0,0,0,412.251,135.6Zm6.838,0a2.729,2.729,0,1,1-2.716-2.9A2.73,2.73,0,0,1,419.089,135.6Zm11.009-7.119a0.965,0.965,0,0,0-.959-0.976,0.993,0.993,0,0,0-.99.976,0.982,0.982,0,0,0,.99.975A0.955,0.955,0,0,0,430.1,128.478ZM428.436,139.6h1.374v-8h-1.374v8Zm4.778,0h1.374v-3.967c0-1.872,1.022-2.928,2.316-2.928a1.919,1.919,0,0,1,1.885,2.176V139.6h1.358v-4.927a2.946,2.946,0,0,0-3.019-3.232,2.823,2.823,0,0,0-2.54,1.392V131.6h-1.374v8Zm18.965-.112v-1.232a3.035,3.035,0,0,1-.975.16,1.151,1.151,0,0,1-1.326-1.36v-4.191h2.3V131.6h-2.3v-2.224h-1.373V131.6h-1.694v1.264h1.694v4.367a2.25,2.25,0,0,0,2.444,2.448A3.815,3.815,0,0,0,452.179,139.484Zm2.557,0.112h1.374v-3.967c0-1.872,1.022-2.928,2.317-2.928a1.919,1.919,0,0,1,1.885,2.176V139.6h1.358v-4.927a2.946,2.946,0,0,0-3.02-3.232,2.824,2.824,0,0,0-2.54,1.392V127.6h-1.374v12Zm9.587-4a4.21,4.21,0,0,0,7.732,2.255l-1.086-.752a2.827,2.827,0,0,1-5.256-1.232h6.55a3.876,3.876,0,0,0,.016-0.415,3.725,3.725,0,0,0-3.8-4.016A4.051,4.051,0,0,0,464.323,135.6Zm4.106-2.944a2.391,2.391,0,0,1,2.444,2.1h-5.064A2.612,2.612,0,0,1,468.429,132.653Zm12.287,6.943h1.374V128.238h-2.444l-1.119,1.359h2.189v10Zm4.858,0h1.757l4.154-4.911a4.366,4.366,0,0,0,1.278-2.9,3.843,3.843,0,0,0-7.685.048,3.668,3.668,0,0,0,3.547,3.648,2.026,2.026,0,0,0,.447-0.032Zm0.91-7.775a2.437,2.437,0,1,1,2.429,2.448A2.413,2.413,0,0,1,486.484,131.821Zm15.994,4.367a3.174,3.174,0,0,0-1.774-2.975,2.661,2.661,0,0,0,1.151-2.24,2.946,2.946,0,0,0-3.18-2.927,2.986,2.986,0,0,0-3.195,2.927,2.649,2.649,0,0,0,1.182,2.24,3.175,3.175,0,0,0-1.8,2.975A3.819,3.819,0,0,0,502.478,136.188Zm-5.64-5.183a1.69,1.69,0,0,1,1.837-1.664,1.658,1.658,0,0,1,1.822,1.664,1.7,1.7,0,0,1-1.822,1.68A1.73,1.73,0,0,1,496.838,131.005Zm-0.591,5.183a2.253,2.253,0,0,1,2.428-2.271,2.268,2.268,0,1,1,0,4.527A2.259,2.259,0,0,1,496.247,136.188Zm10.066,3.408h1.374V128.238h-2.444l-1.119,1.359h2.189v10Zm16.92-1.984-1.2-.672a2.708,2.708,0,0,1-2.492,1.536,2.881,2.881,0,0,1,0-5.759,2.708,2.708,0,0,1,2.492,1.536l1.2-.672A4.16,4.16,0,1,0,523.233,137.612Zm1.95-2.015a4,4,0,0,0,3.914,4.159,3.5,3.5,0,0,0,2.812-1.392V139.6h1.374v-8h-1.374v1.232a3.5,3.5,0,0,0-2.812-1.392A4,4,0,0,0,525.183,135.6Zm6.838,0a2.729,2.729,0,1,1-2.716-2.9A2.729,2.729,0,0,1,532.021,135.6Zm8.98,3.887v-1.232a3.035,3.035,0,0,1-.975.16,1.151,1.151,0,0,1-1.326-1.36v-4.191H541V131.6h-2.3v-2.224h-1.374V131.6h-1.693v1.264h1.693v4.367a2.251,2.251,0,0,0,2.445,2.448A3.82,3.82,0,0,0,541,139.484Zm1.822-3.887a4,4,0,0,0,3.914,4.159,3.5,3.5,0,0,0,2.812-1.392V139.6h1.374v-8h-1.374v1.232a3.5,3.5,0,0,0-2.812-1.392A4,4,0,0,0,542.823,135.6Zm6.838,0a2.729,2.729,0,1,1-2.716-2.9A2.729,2.729,0,0,1,549.661,135.6Zm4.65,4h1.374v-12h-1.374v12Zm12.494-4a4.178,4.178,0,1,0-4.17,4.159A4.1,4.1,0,0,0,566.8,135.6Zm-6.949,0a2.774,2.774,0,1,1,2.779,2.879A2.747,2.747,0,0,1,559.856,135.6Zm17.159,3.535V131.6h-1.374v1.232a3.4,3.4,0,0,0-2.78-1.392,4.075,4.075,0,0,0,0,8.143,3.408,3.408,0,0,0,2.78-1.408v0.912a2.555,2.555,0,0,1-2.668,2.768,3.416,3.416,0,0,1-2.8-1.344l-0.958.96a4.739,4.739,0,0,0,3.77,1.631A3.7,3.7,0,0,0,577.015,139.132Zm-6.662-3.631a2.7,2.7,0,1,1,2.7,2.8A2.664,2.664,0,0,1,570.353,135.5Zm14.125,0.1a4,4,0,0,0,3.914,4.159,3.5,3.5,0,0,0,2.812-1.392V139.6h1.373v-8H591.2v1.232a3.5,3.5,0,0,0-2.812-1.392A4,4,0,0,0,584.478,135.6Zm6.837,0a2.729,2.729,0,1,1-2.716-2.9A2.729,2.729,0,0,1,591.315,135.6Zm9.827,1.775c0-1.2-.751-1.967-2.109-2.415l-0.863-.288c-0.942-.3-1.23-0.608-1.23-1.12a1.131,1.131,0,0,1,1.342-.928,2.159,2.159,0,0,1,1.694.832l0.894-.864a3.1,3.1,0,0,0-2.556-1.152c-1.581,0-2.7.88-2.7,2.176a2.412,2.412,0,0,0,1.981,2.319l0.783,0.256c1.039,0.336,1.422.72,1.422,1.28a1.216,1.216,0,0,1-1.406,1.088,2.144,2.144,0,0,1-2.045-1.264l-1.118.608a3.171,3.171,0,0,0,3.131,1.856C599.976,139.756,601.142,138.94,601.142,137.372Zm6.839-1.775a4,4,0,0,0,3.914,4.159,3.5,3.5,0,0,0,2.812-1.392V139.6h1.374v-8h-1.374v1.232a3.5,3.5,0,0,0-2.812-1.392A4,4,0,0,0,607.981,135.6Zm6.838,0a2.729,2.729,0,1,1-2.716-2.9A2.729,2.729,0,0,1,614.819,135.6Zm-583.981,24h1.486v-5.1h4.042v-1.408H32.324v-3.44h5.112v-1.407h-6.6V159.6Zm8.58,0h1.374v-3.967c0-1.872,1.1-2.752,2.109-2.752a2.005,2.005,0,0,1,.751.128v-1.424a2.841,2.841,0,0,0-.623-0.064,2.377,2.377,0,0,0-2.237,1.632V151.6H39.419v8Zm5.736-4a4.21,4.21,0,0,0,7.732,2.255L51.8,157.1a2.827,2.827,0,0,1-5.256-1.232H53.1a3.9,3.9,0,0,0,.016-0.415,3.725,3.725,0,0,0-3.8-4.016A4.051,4.051,0,0,0,45.155,155.6Zm4.106-2.944a2.391,2.391,0,0,1,2.444,2.1H46.641A2.612,2.612,0,0,1,49.261,152.653Zm6.6,6.943h1.374v-3.967c0-1.872,1.022-2.928,2.316-2.928a1.919,1.919,0,0,1,1.885,2.176V159.6h1.358v-4.927a2.946,2.946,0,0,0-3.019-3.232,2.824,2.824,0,0,0-2.54,1.392V151.6H55.86v8Zm17.463-1.984-1.2-.672a2.708,2.708,0,0,1-2.492,1.536,2.881,2.881,0,0,1,0-5.759,2.708,2.708,0,0,1,2.492,1.536l1.2-.672A4.16,4.16,0,1,0,73.323,157.612ZM75.9,159.6h1.374v-3.967c0-1.872,1.023-2.928,2.317-2.928a1.919,1.919,0,0,1,1.885,2.176V159.6H82.83v-4.927a2.946,2.946,0,0,0-3.019-3.232,2.824,2.824,0,0,0-2.54,1.392V147.6H75.9v12Zm15.115,0H92.5v-5.1h4.042v-1.408H92.5v-3.44H97.61v-1.407h-6.6V159.6Zm16.184-4a4.178,4.178,0,1,0-4.169,4.159A4.1,4.1,0,0,0,107.2,155.6Zm-6.949,0a2.774,2.774,0,1,1,2.78,2.879A2.748,2.748,0,0,1,100.247,155.6Zm9.715,4h1.374v-3.967c0-1.872,1.1-2.752,2.108-2.752a2,2,0,0,1,.751.128v-1.424a2.836,2.836,0,0,0-.623-0.064,2.376,2.376,0,0,0-2.236,1.632V151.6h-1.374v8Zm5.736-4a4.21,4.21,0,0,0,7.732,2.255l-1.086-.752a2.827,2.827,0,0,1-5.256-1.232h6.55a3.876,3.876,0,0,0,.016-0.415,3.725,3.725,0,0,0-3.8-4.016A4.051,4.051,0,0,0,115.7,155.6Zm4.106-2.944a2.391,2.391,0,0,1,2.444,2.1h-5.064A2.612,2.612,0,0,1,119.8,152.653Zm8.261-4.175a0.966,0.966,0,0,0-.959-0.976,0.993,0.993,0,0,0-.99.976,0.982,0.982,0,0,0,.99.975A0.956,0.956,0,0,0,128.065,148.478ZM126.4,159.6h1.374v-8H126.4v8Zm12.222-.464V151.6h-1.374v1.232a3.4,3.4,0,0,0-2.779-1.392,4.075,4.075,0,0,0,0,8.143,3.408,3.408,0,0,0,2.779-1.408v0.912a2.555,2.555,0,0,1-2.668,2.768,3.414,3.414,0,0,1-2.795-1.344l-0.959.96a4.739,4.739,0,0,0,3.77,1.631A3.7,3.7,0,0,0,138.625,159.132Zm-6.662-3.631a2.7,2.7,0,1,1,2.7,2.8A2.664,2.664,0,0,1,131.963,155.5Zm10.051,4.095h1.374v-3.967c0-1.872,1.022-2.928,2.316-2.928a1.919,1.919,0,0,1,1.885,2.176V159.6h1.358v-4.927a2.946,2.946,0,0,0-3.019-3.232,2.823,2.823,0,0,0-2.54,1.392V151.6h-1.374v8Zm15.115,0h6.965v-1.408h-5.48v-9.95h-1.485V159.6Zm8.468-4a4.21,4.21,0,0,0,7.733,2.255l-1.087-.752a2.827,2.827,0,0,1-5.256-1.232h6.55a3.876,3.876,0,0,0,.016-0.415,3.725,3.725,0,0,0-3.8-4.016A4.051,4.051,0,0,0,165.6,155.6Zm4.106-2.944a2.39,2.39,0,0,1,2.444,2.1h-5.064A2.613,2.613,0,0,1,169.7,152.653Zm14.044,6.479V151.6h-1.374v1.232a3.4,3.4,0,0,0-2.779-1.392,4.075,4.075,0,0,0,0,8.143,3.408,3.408,0,0,0,2.779-1.408v0.912a2.555,2.555,0,0,1-2.668,2.768,3.414,3.414,0,0,1-2.8-1.344l-0.959.96a4.739,4.739,0,0,0,3.77,1.631A3.7,3.7,0,0,0,183.747,159.132Zm-6.662-3.631a2.7,2.7,0,1,1,2.7,2.8A2.664,2.664,0,0,1,177.085,155.5Zm11.712-7.023a0.965,0.965,0,0,0-.958-0.976,0.993,0.993,0,0,0-.991.976,0.982,0.982,0,0,0,.991.975A0.955,0.955,0,0,0,188.8,148.478ZM187.136,159.6h1.374v-8h-1.374v8Zm12.493-4a4.178,4.178,0,1,0-4.169,4.159A4.1,4.1,0,0,0,199.629,155.6Zm-6.949,0a2.774,2.774,0,1,1,2.78,2.879A2.748,2.748,0,0,1,192.68,155.6Zm9.715,4h1.373v-3.967c0-1.872,1.023-2.928,2.317-2.928a1.919,1.919,0,0,1,1.885,2.176V159.6h1.358v-4.927a2.946,2.946,0,0,0-3.019-3.232,2.825,2.825,0,0,0-2.541,1.392V151.6H202.4v8Zm15.115,0h4.057c2.3,0,3.8-1.424,3.8-3.312a2.706,2.706,0,0,0-1.965-2.719,2.575,2.575,0,0,0,1.214-2.32,3.107,3.107,0,0,0-3.387-3.007H217.51V159.6ZM219,153.117v-3.536h2.237a1.785,1.785,0,0,1,1.933,1.776,1.747,1.747,0,0,1-1.933,1.76H219Zm0,5.135V154.4h2.652c1.5,0,2.269.832,2.269,1.935,0,1.12-.767,1.92-2.285,1.92H219Zm16.872-2.655a4.178,4.178,0,1,0-4.169,4.159A4.1,4.1,0,0,0,235.867,155.6Zm-6.949,0a2.774,2.774,0,1,1,2.78,2.879A2.748,2.748,0,0,1,228.918,155.6Zm17.431,0a4.178,4.178,0,1,0-4.17,4.159A4.1,4.1,0,0,0,246.349,155.6Zm-6.95,0a2.774,2.774,0,1,1,2.78,2.879A2.748,2.748,0,0,1,239.4,155.6Zm13.9,3.887v-1.232a3.035,3.035,0,0,1-.975.16,1.151,1.151,0,0,1-1.326-1.36v-4.191h2.3V151.6H251v-2.224h-1.373V151.6h-1.694v1.264h1.694v4.367a2.25,2.25,0,0,0,2.444,2.448A3.815,3.815,0,0,0,253.3,159.484Zm2.11-3.68h8.068v-1.375H255.41V155.8Zm16.377,1.568c0-1.2-.751-1.967-2.109-2.415l-0.863-.288c-0.942-.3-1.23-0.608-1.23-1.12a1.131,1.131,0,0,1,1.342-.928,2.156,2.156,0,0,1,1.693.832l0.895-.864a3.1,3.1,0,0,0-2.556-1.152c-1.582,0-2.7.88-2.7,2.176a2.412,2.412,0,0,0,1.981,2.319l0.783,0.256c1.038,0.336,1.422.72,1.422,1.28a1.216,1.216,0,0,1-1.406,1.088,2.143,2.143,0,0,1-2.045-1.264l-1.118.608a3.171,3.171,0,0,0,3.131,1.856C270.62,159.756,271.787,158.94,271.787,157.372Zm4.426-8.894a0.965,0.965,0,0,0-.959-0.976,0.993,0.993,0,0,0-.99.976,0.982,0.982,0,0,0,.99.975A0.955,0.955,0,0,0,276.213,148.478ZM274.552,159.6h1.373v-8h-1.373v8Zm4.777,0H280.7v-3.967c0-1.872,1.022-2.928,2.316-2.928a1.919,1.919,0,0,1,1.886,2.176V159.6h1.357v-4.927a2.946,2.946,0,0,0-3.019-3.232,2.824,2.824,0,0,0-2.54,1.392V151.6h-1.374v8Zm17.463-1.984-1.2-.672a2.708,2.708,0,0,1-2.493,1.536,2.881,2.881,0,0,1,0-5.759,2.708,2.708,0,0,1,2.493,1.536l1.2-.672A4.16,4.16,0,1,0,296.792,157.612Zm1.95-2.015a4.21,4.21,0,0,0,7.733,2.255l-1.087-.752a2.827,2.827,0,0,1-5.256-1.232h6.55a3.876,3.876,0,0,0,.016-0.415,3.725,3.725,0,0,0-3.8-4.016A4.051,4.051,0,0,0,298.742,155.6Zm4.106-2.944a2.39,2.39,0,0,1,2.444,2.1h-5.064A2.613,2.613,0,0,1,302.848,152.653Zm11.3,10.286h1.374v-4.575a3.5,3.5,0,0,0,2.812,1.392,4.167,4.167,0,0,0,0-8.319,3.5,3.5,0,0,0-2.812,1.392V151.6h-1.374v11.342Zm6.694-7.342a2.722,2.722,0,1,1-2.716-2.9A2.73,2.73,0,0,1,320.839,155.6Zm3.564,0a4,4,0,0,0,3.914,4.159,3.5,3.5,0,0,0,2.812-1.392V159.6H332.5v-8h-1.374v1.232a3.5,3.5,0,0,0-2.812-1.392A4,4,0,0,0,324.4,155.6Zm6.838,0a2.729,2.729,0,1,1-2.716-2.9A2.73,2.73,0,0,1,331.241,155.6Zm7.142,4h1.151l3.69-8H341.69l-2.732,6.047-2.732-6.047h-1.533Zm8.692-11.118a0.965,0.965,0,0,0-.958-0.976,0.994,0.994,0,0,0-.991.976,0.983,0.983,0,0,0,.991.975A0.955,0.955,0,0,0,347.075,148.478ZM345.414,159.6h1.374v-8h-1.374v8Zm4.777,0h1.374v-3.967c0-1.872,1.023-2.928,2.317-2.928a1.919,1.919,0,0,1,1.885,2.176V159.6h1.358v-4.927a2.946,2.946,0,0,0-3.02-3.232,2.824,2.824,0,0,0-2.54,1.392V151.6h-1.374v8Zm17.655-.464V151.6h-1.374v1.232a3.4,3.4,0,0,0-2.78-1.392,4.075,4.075,0,0,0,0,8.143,3.41,3.41,0,0,0,2.78-1.408v0.912a2.555,2.555,0,0,1-2.668,2.768,3.416,3.416,0,0,1-2.8-1.344l-0.958.96a4.739,4.739,0,0,0,3.77,1.631A3.7,3.7,0,0,0,367.846,159.132Zm-6.662-3.631a2.7,2.7,0,1,1,2.7,2.8A2.664,2.664,0,0,1,361.184,155.5Zm16.409-7.023a0.965,0.965,0,0,0-.958-0.976,0.993,0.993,0,0,0-.991.976,0.982,0.982,0,0,0,.991.975A0.955,0.955,0,0,0,377.593,148.478ZM375.932,159.6h1.374v-8h-1.374v8Zm9.107-.112v-1.232a3.04,3.04,0,0,1-.975.16,1.151,1.151,0,0,1-1.326-1.36v-4.191h2.3V151.6h-2.3v-2.224h-1.374V151.6h-1.693v1.264h1.693v4.367a2.25,2.25,0,0,0,2.444,2.448A3.822,3.822,0,0,0,385.039,159.484Zm7.733-2.112c0-1.2-.751-1.967-2.109-2.415l-0.863-.288c-0.942-.3-1.23-0.608-1.23-1.12a1.131,1.131,0,0,1,1.342-.928,2.159,2.159,0,0,1,1.694.832l0.894-.864a3.1,3.1,0,0,0-2.556-1.152c-1.582,0-2.7.88-2.7,2.176a2.412,2.412,0,0,0,1.981,2.319l0.783,0.256c1.038,0.336,1.422.72,1.422,1.28a1.216,1.216,0,0,1-1.406,1.088,2.144,2.144,0,0,1-2.045-1.264l-1.118.608a3.171,3.171,0,0,0,3.131,1.856C391.606,159.756,392.772,158.94,392.772,157.372ZM406.72,159.6h1.215l2.716-8H409.2l-1.933,5.839-2-5.839h-1.055l-2,5.839-1.933-5.839h-1.438l2.716,8h1.214l1.981-5.759Zm5.562-4a4,4,0,0,0,3.914,4.159,3.5,3.5,0,0,0,2.812-1.392V159.6h1.374v-8h-1.374v1.232a3.5,3.5,0,0,0-2.812-1.392A4,4,0,0,0,412.282,155.6Zm6.837,0a2.729,2.729,0,1,1-2.715-2.9A2.729,2.729,0,0,1,419.119,155.6Zm6.776,7.342,5.24-11.342H429.6l-2.732,6.063-2.748-6.063H422.6l3.5,7.583-1.741,3.759H425.9Zm15.818-3.455v-1.232a3.035,3.035,0,0,1-.975.16,1.151,1.151,0,0,1-1.326-1.36v-4.191h2.3V151.6h-2.3v-2.224h-1.374V151.6h-1.693v1.264h1.693v4.367a2.251,2.251,0,0,0,2.445,2.448A3.82,3.82,0,0,0,441.713,159.484Zm10.162-3.887a4.178,4.178,0,1,0-4.17,4.159A4.1,4.1,0,0,0,451.875,155.6Zm-6.95,0a2.774,2.774,0,1,1,2.78,2.879A2.748,2.748,0,0,1,444.925,155.6Zm14.412,4h1.374v-3.967c0-1.872,1.023-2.928,2.317-2.928a1.919,1.919,0,0,1,1.885,2.176V159.6h1.358v-4.927a2.946,2.946,0,0,0-3.02-3.232,2.824,2.824,0,0,0-2.54,1.392V151.6h-1.374v8Zm10.1-3.088c0,1.984,1.182,3.248,2.94,3.248a2.747,2.747,0,0,0,2.46-1.392V159.6h1.374v-8h-1.374v3.968c0,1.839-.974,2.927-2.221,2.927-1.1,0-1.8-.848-1.8-2.192v-4.7h-1.374v4.911ZM479.6,159.6h1.374v-3.967c0-1.808.911-2.928,2.2-2.928,1.038,0,1.566.9,1.566,2.192v4.7h1.374v-3.967c0-1.808.894-2.928,2.188-2.928,1.039,0,1.582.9,1.582,2.192v4.7h1.374v-4.911c0-1.952-1.055-3.248-2.8-3.248a2.764,2.764,0,0,0-2.62,1.712,2.512,2.512,0,0,0-2.46-1.712,2.685,2.685,0,0,0-2.413,1.392V151.6H479.6v8Zm14.317-4a4.21,4.21,0,0,0,7.732,2.255l-1.086-.752a2.827,2.827,0,0,1-5.256-1.232h6.55a3.876,3.876,0,0,0,.016-0.415,3.725,3.725,0,0,0-3.8-4.016A4.051,4.051,0,0,0,493.914,155.6Zm4.106-2.944a2.391,2.391,0,0,1,2.444,2.1H495.4A2.611,2.611,0,0,1,498.02,152.653Zm6.6,6.943h1.374v-3.967c0-1.872,1.1-2.752,2.109-2.752a2.009,2.009,0,0,1,.751.128v-1.424a2.848,2.848,0,0,0-.623-0.064,2.376,2.376,0,0,0-2.237,1.632V151.6h-1.374v8Zm14.076-4a4.178,4.178,0,1,0-4.17,4.159A4.1,4.1,0,0,0,518.7,155.6Zm-6.95,0a2.774,2.774,0,1,1,2.78,2.879A2.748,2.748,0,0,1,511.745,155.6Zm9.6,0.911c0,1.984,1.182,3.248,2.94,3.248a2.747,2.747,0,0,0,2.46-1.392V159.6h1.374v-8h-1.374v3.968c0,1.839-.974,2.927-2.221,2.927-1.1,0-1.805-.848-1.805-2.192v-4.7h-1.374v4.911Zm15.338,0.864c0-1.2-.75-1.967-2.108-2.415l-0.863-.288c-0.943-.3-1.23-0.608-1.23-1.12a1.131,1.131,0,0,1,1.342-.928,2.156,2.156,0,0,1,1.693.832l0.895-.864a3.1,3.1,0,0,0-2.556-1.152c-1.582,0-2.7.88-2.7,2.176a2.412,2.412,0,0,0,1.981,2.319l0.783,0.256c1.038,0.336,1.422.72,1.422,1.28a1.217,1.217,0,0,1-1.406,1.088,2.143,2.143,0,0,1-2.045-1.264l-1.119.608a3.174,3.174,0,0,0,3.132,1.856C535.52,159.756,536.686,158.94,536.686,157.372Zm7.463,2.224h1.374v-3.967c0-1.872,1.1-2.752,2.108-2.752a2,2,0,0,1,.751.128v-1.424a2.836,2.836,0,0,0-.623-0.064,2.376,2.376,0,0,0-2.236,1.632V151.6h-1.374v8Zm5.736-4a4.21,4.21,0,0,0,7.733,2.255l-1.087-.752a2.827,2.827,0,0,1-5.256-1.232h6.55a3.876,3.876,0,0,0,.016-0.415,3.725,3.725,0,0,0-3.8-4.016A4.051,4.051,0,0,0,549.885,155.6Zm4.106-2.944a2.39,2.39,0,0,1,2.444,2.1h-5.064A2.612,2.612,0,0,1,553.991,152.653Zm6.6,6.943h1.374v-3.967c0-1.872,1.023-2.928,2.317-2.928a1.919,1.919,0,0,1,1.885,2.176V159.6h1.358v-4.927a2.946,2.946,0,0,0-3.02-3.232,2.824,2.824,0,0,0-2.54,1.392V151.6H560.59v8Zm9.587-4a4,4,0,0,0,3.914,4.159,3.5,3.5,0,0,0,2.812-1.392V159.6h1.374v-12H576.9v5.231a3.5,3.5,0,0,0-2.812-1.392A4,4,0,0,0,570.177,155.6Zm6.838,0a2.729,2.729,0,1,1-2.716-2.9A2.729,2.729,0,0,1,577.015,155.6Zm6.312-7.119a0.966,0.966,0,0,0-.959-0.976,0.993,0.993,0,0,0-.99.976,0.982,0.982,0,0,0,.99.975A0.956,0.956,0,0,0,583.327,148.478ZM581.665,159.6h1.374v-8h-1.374v8Zm9.107-.112v-1.232a3.029,3.029,0,0,1-.974.16,1.151,1.151,0,0,1-1.326-1.36v-4.191h2.3V151.6h-2.3v-2.224H587.1V151.6H585.4v1.264H587.1v4.367a2.25,2.25,0,0,0,2.444,2.448A3.815,3.815,0,0,0,590.772,159.484Zm4.219-11.006a0.966,0.966,0,0,0-.959-0.976,0.993,0.993,0,0,0-.99.976,0.982,0.982,0,0,0,.99.975A0.956,0.956,0,0,0,594.991,148.478ZM593.329,159.6H594.7v-8h-1.374v8Zm12.494-4a4.178,4.178,0,1,0-4.17,4.159A4.1,4.1,0,0,0,605.823,155.6Zm-6.95,0a2.774,2.774,0,1,1,2.78,2.879A2.748,2.748,0,0,1,598.873,155.6Zm9.715,4h1.374v-3.967c0-1.872,1.023-2.928,2.317-2.928a1.919,1.919,0,0,1,1.885,2.176V159.6h1.358v-4.927a2.946,2.946,0,0,0-3.02-3.232,2.824,2.824,0,0,0-2.54,1.392V151.6h-1.374v8Zm15.386-2.224c0-1.2-.751-1.967-2.108-2.415L621,154.669c-0.943-.3-1.23-0.608-1.23-1.12a1.131,1.131,0,0,1,1.342-.928,2.156,2.156,0,0,1,1.693.832l0.895-.864a3.1,3.1,0,0,0-2.556-1.152c-1.582,0-2.7.88-2.7,2.176a2.412,2.412,0,0,0,1.981,2.319l0.782,0.256c1.039,0.336,1.422.72,1.422,1.28a1.216,1.216,0,0,1-1.406,1.088,2.142,2.142,0,0,1-2.044-1.264l-1.119.608a3.172,3.172,0,0,0,3.131,1.856C622.808,159.756,623.974,158.94,623.974,157.372Zm4.666,1.152a1.182,1.182,0,1,0-1.182,1.2A1.2,1.2,0,0,0,628.64,158.524ZM33.139,179.6h1.454v-9.951h3.531v-1.407H29.608v1.407h3.531V179.6Zm13.677-4a4.178,4.178,0,1,0-4.17,4.159A4.1,4.1,0,0,0,46.815,175.6Zm-6.95,0a2.774,2.774,0,1,1,2.78,2.879A2.748,2.748,0,0,1,39.866,175.6Zm9.092,0a4,4,0,0,0,3.914,4.159,3.5,3.5,0,0,0,2.812-1.392V179.6h1.374v-12H55.683v5.231a3.5,3.5,0,0,0-2.812-1.392A4,4,0,0,0,48.957,175.6Zm6.838,0a2.729,2.729,0,1,1-2.716-2.9A2.729,2.729,0,0,1,55.8,175.6Zm4.027,0a4,4,0,0,0,3.914,4.159,3.5,3.5,0,0,0,2.812-1.392V179.6h1.374v-8H66.548v1.232a3.5,3.5,0,0,0-2.812-1.392A4,4,0,0,0,59.823,175.6Zm6.838,0a2.729,2.729,0,1,1-2.716-2.9A2.729,2.729,0,0,1,66.66,175.6Zm6.775,7.342,5.24-11.342H77.142L74.41,177.66,71.662,171.6H70.144l3.5,7.583L71.9,182.939h1.534Zm9.459-12.974a1.416,1.416,0,0,0,.224-0.72,1.19,1.19,0,1,0-2.38,0,1.24,1.24,0,0,0,.655,1.072l-1.07,2.288h0.927Zm7.462,7.407c0-1.2-.751-1.967-2.109-2.415l-0.863-.288c-0.943-.3-1.23-0.608-1.23-1.12a1.131,1.131,0,0,1,1.342-.928,2.157,2.157,0,0,1,1.694.832l0.895-.864a3.1,3.1,0,0,0-2.556-1.152c-1.582,0-2.7.88-2.7,2.176a2.412,2.412,0,0,0,1.981,2.319l0.783,0.256c1.038,0.336,1.422.72,1.422,1.28a1.216,1.216,0,0,1-1.406,1.088,2.144,2.144,0,0,1-2.045-1.264l-1.118.608a3.172,3.172,0,0,0,3.131,1.856C89.19,179.756,90.356,178.94,90.356,177.372Zm6.887-3.455a5.893,5.893,0,0,0,10.88,3.119l-1.246-.752a4.464,4.464,0,1,1,0-4.735l1.246-.752A5.894,5.894,0,0,0,97.243,173.917Zm13.438,5.679h1.374v-3.967c0-1.872,1.022-2.928,2.316-2.928a1.919,1.919,0,0,1,1.885,2.176V179.6h1.358v-4.927a2.946,2.946,0,0,0-3.019-3.232,2.823,2.823,0,0,0-2.54,1.392V167.6h-1.374v12Zm10.1-3.088c0,1.984,1.182,3.248,2.939,3.248a2.749,2.749,0,0,0,2.461-1.392V179.6h1.373v-8h-1.373v3.968c0,1.839-.975,2.927-2.221,2.927-1.1,0-1.8-.848-1.8-2.192v-4.7h-1.374v4.911Zm10.162,3.088h1.374v-4l4.329,4H138.5l-4.808-4.463,3.93-3.536H135.8l-3.482,3.12V167.6h-1.374v12Zm9.411,0h1.374v-4l4.329,4h1.853l-4.808-4.463,3.93-3.536h-1.822l-3.482,3.12V167.6h-1.374v12Zm8.276-4a4,4,0,0,0,3.914,4.159,3.5,3.5,0,0,0,2.812-1.392V179.6h1.374v-8h-1.374v1.232a3.5,3.5,0,0,0-2.812-1.392A4,4,0,0,0,148.628,175.6Zm6.838,0a2.729,2.729,0,1,1-2.716-2.9A2.729,2.729,0,0,1,155.466,175.6Zm9.556,4h4.057c2.3,0,3.8-1.424,3.8-3.312a2.706,2.706,0,0,0-1.965-2.719,2.575,2.575,0,0,0,1.214-2.32,3.107,3.107,0,0,0-3.387-3.007h-3.722V179.6Zm1.485-6.479v-3.536h2.237a1.785,1.785,0,0,1,1.933,1.776,1.747,1.747,0,0,1-1.933,1.76h-2.237Zm0,5.135V174.4h2.652c1.5,0,2.269.832,2.269,1.935,0,1.12-.767,1.92-2.285,1.92h-2.636Zm16.872-2.655a4.178,4.178,0,1,0-4.169,4.159A4.1,4.1,0,0,0,183.379,175.6Zm-6.949,0a2.774,2.774,0,1,1,2.78,2.879A2.748,2.748,0,0,1,176.43,175.6Zm17.431,0a4.178,4.178,0,1,0-4.17,4.159A4.1,4.1,0,0,0,193.861,175.6Zm-6.95,0a2.774,2.774,0,1,1,2.78,2.879A2.748,2.748,0,0,1,186.911,175.6Zm13.9,3.887v-1.232a3.035,3.035,0,0,1-.975.16,1.151,1.151,0,0,1-1.326-1.36v-4.191h2.3V171.6h-2.3v-2.224h-1.373V171.6h-1.694v1.264h1.694v4.367a2.25,2.25,0,0,0,2.444,2.448A3.82,3.82,0,0,0,200.812,179.484Zm8.916-11.006a0.965,0.965,0,0,0-.959-0.976,0.993,0.993,0,0,0-.99.976,0.982,0.982,0,0,0,.99.975A0.955,0.955,0,0,0,209.728,168.478ZM208.066,179.6h1.374v-8h-1.374v8Zm9.954-2.224c0-1.2-.751-1.967-2.109-2.415l-0.862-.288c-0.943-.3-1.231-0.608-1.231-1.12a1.131,1.131,0,0,1,1.342-.928,2.157,2.157,0,0,1,1.694.832l0.894-.864a3.1,3.1,0,0,0-2.556-1.152c-1.581,0-2.7.88-2.7,2.176a2.412,2.412,0,0,0,1.981,2.319l0.783,0.256c1.039,0.336,1.422.72,1.422,1.28a1.216,1.216,0,0,1-1.406,1.088,2.145,2.145,0,0,1-2.045-1.264l-1.118.608a3.171,3.171,0,0,0,3.131,1.856C216.854,179.756,218.02,178.94,218.02,177.372Zm6.839-1.775a4,4,0,0,0,3.914,4.159,3.5,3.5,0,0,0,2.812-1.392V179.6h1.374v-8h-1.374v1.232a3.5,3.5,0,0,0-2.812-1.392A4,4,0,0,0,224.859,175.6Zm6.838,0a2.729,2.729,0,1,1-2.716-2.9A2.729,2.729,0,0,1,231.7,175.6Zm9.348,4h1.374v-3.967c0-1.872,1.022-2.928,2.316-2.928a1.919,1.919,0,0,1,1.885,2.176V179.6h1.358v-4.927a2.946,2.946,0,0,0-3.019-3.232,2.823,2.823,0,0,0-2.54,1.392V171.6h-1.374v8Zm17.926-4a4.178,4.178,0,1,0-4.17,4.159A4.1,4.1,0,0,0,258.971,175.6Zm-6.949,0a2.774,2.774,0,1,1,2.779,2.879A2.747,2.747,0,0,1,252.022,175.6Zm9.091,0a4,4,0,0,0,3.914,4.159,3.5,3.5,0,0,0,2.812-1.392V179.6h1.374v-12h-1.374v5.231a3.5,3.5,0,0,0-2.812-1.392A4,4,0,0,0,261.113,175.6Zm6.838,0a2.729,2.729,0,1,1-2.716-2.9A2.729,2.729,0,0,1,267.951,175.6Zm13.406,3.887v-1.232a3.035,3.035,0,0,1-.975.16,1.151,1.151,0,0,1-1.326-1.36v-4.191h2.3V171.6h-2.3v-2.224h-1.374V171.6h-1.693v1.264h1.693v4.367a2.25,2.25,0,0,0,2.444,2.448A3.822,3.822,0,0,0,281.357,179.484Zm10.161-3.887a4.178,4.178,0,1,0-4.169,4.159A4.1,4.1,0,0,0,291.518,175.6Zm-6.949,0a2.774,2.774,0,1,1,2.78,2.879A2.748,2.748,0,0,1,284.569,175.6Zm18.47,3.887v-1.232a3.035,3.035,0,0,1-.975.16,1.151,1.151,0,0,1-1.326-1.36v-4.191h2.3V171.6h-2.3v-2.224h-1.374V171.6h-1.693v1.264h1.693v4.367a2.251,2.251,0,0,0,2.445,2.448A3.82,3.82,0,0,0,303.039,179.484ZM305.6,179.6h1.374v-3.967c0-1.872,1.022-2.928,2.316-2.928a1.919,1.919,0,0,1,1.886,2.176V179.6h1.358v-4.927a2.947,2.947,0,0,0-3.02-3.232,2.824,2.824,0,0,0-2.54,1.392V167.6H305.6v12Zm9.587-4a4.21,4.21,0,0,0,7.732,2.255l-1.086-.752a2.827,2.827,0,0,1-5.256-1.232h6.55a3.876,3.876,0,0,0,.016-0.415,3.725,3.725,0,0,0-3.8-4.016A4.051,4.051,0,0,0,315.183,175.6Zm4.106-2.944a2.391,2.391,0,0,1,2.444,2.1h-5.064A2.611,2.611,0,0,1,319.289,172.653Zm11.5,6.943h4.058c2.3,0,3.8-1.424,3.8-3.312a2.705,2.705,0,0,0-1.965-2.719,2.575,2.575,0,0,0,1.214-2.32,3.107,3.107,0,0,0-3.386-3.007h-3.723V179.6Zm1.486-6.479v-3.536h2.237a1.785,1.785,0,0,1,1.933,1.776,1.747,1.747,0,0,1-1.933,1.76h-2.237Zm0,5.135V174.4h2.652c1.5,0,2.268.832,2.268,1.935,0,1.12-.766,1.92-2.284,1.92h-2.636Zm9.14,1.344h1.374v-3.967c0-1.872,1.1-2.752,2.109-2.752a2,2,0,0,1,.75.128v-1.424a2.836,2.836,0,0,0-.623-0.064,2.376,2.376,0,0,0-2.236,1.632V171.6h-1.374v8Zm8.308-11.118a0.965,0.965,0,0,0-.958-0.976,0.993,0.993,0,0,0-.991.976,0.982,0.982,0,0,0,.991.975A0.955,0.955,0,0,0,349.727,168.478ZM348.066,179.6h1.374v-8h-1.374v8Zm9.107-.112v-1.232a3.035,3.035,0,0,1-.975.16,1.151,1.151,0,0,1-1.326-1.36v-4.191h2.3V171.6h-2.3v-2.224H353.5V171.6h-1.693v1.264H353.5v4.367a2.25,2.25,0,0,0,2.444,2.448A3.822,3.822,0,0,0,357.173,179.484Zm4.218-11.006a0.965,0.965,0,0,0-.958-0.976,0.993,0.993,0,0,0-.991.976,0.982,0.982,0,0,0,.991.975A0.955,0.955,0,0,0,361.391,168.478ZM359.73,179.6H361.1v-8H359.73v8Zm9.953-2.224c0-1.2-.751-1.967-2.109-2.415l-0.862-.288c-0.943-.3-1.23-0.608-1.23-1.12a1.131,1.131,0,0,1,1.342-.928,2.157,2.157,0,0,1,1.693.832l0.895-.864a3.1,3.1,0,0,0-2.557-1.152c-1.581,0-2.7.88-2.7,2.176a2.411,2.411,0,0,0,1.981,2.319l0.782,0.256c1.039,0.336,1.422.72,1.422,1.28a1.216,1.216,0,0,1-1.406,1.088,2.145,2.145,0,0,1-2.045-1.264l-1.118.608a3.171,3.171,0,0,0,3.131,1.856C368.517,179.756,369.683,178.94,369.683,177.372Zm2.765,2.224h1.374v-3.967c0-1.872,1.022-2.928,2.317-2.928a1.919,1.919,0,0,1,1.885,2.176V179.6h1.358v-4.927a2.947,2.947,0,0,0-3.02-3.232,2.824,2.824,0,0,0-2.54,1.392V167.6h-1.374v12Zm20.084-2.224c0-1.2-.751-1.967-2.109-2.415l-0.863-.288c-0.943-.3-1.23-0.608-1.23-1.12a1.131,1.131,0,0,1,1.342-.928,2.156,2.156,0,0,1,1.693.832l0.895-.864a3.1,3.1,0,0,0-2.556-1.152c-1.582,0-2.7.88-2.7,2.176a2.412,2.412,0,0,0,1.981,2.319l0.783,0.256c1.038,0.336,1.422.72,1.422,1.28a1.216,1.216,0,0,1-1.406,1.088,2.143,2.143,0,0,1-2.045-1.264l-1.118.608a3.171,3.171,0,0,0,3.131,1.856C391.365,179.756,392.532,178.94,392.532,177.372Zm10.481-1.775a4.178,4.178,0,1,0-4.17,4.159A4.1,4.1,0,0,0,403.013,175.6Zm-6.95,0a2.774,2.774,0,1,1,2.78,2.879A2.748,2.748,0,0,1,396.063,175.6Zm9.715,4h1.374v-12h-1.374v12Zm4.154-4a4,4,0,0,0,3.914,4.159,3.5,3.5,0,0,0,2.812-1.392V179.6h1.374v-12h-1.374v5.231a3.5,3.5,0,0,0-2.812-1.392A4,4,0,0,0,409.932,175.6Zm6.838,0a2.729,2.729,0,1,1-2.716-2.9A2.729,2.729,0,0,1,416.77,175.6Zm6.312-7.119a0.965,0.965,0,0,0-.959-0.976,0.993,0.993,0,0,0-.99.976,0.982,0.982,0,0,0,.99.975A0.955,0.955,0,0,0,423.082,168.478ZM421.42,179.6h1.374v-8H421.42v8Zm4.155-4a4.21,4.21,0,0,0,7.732,2.255l-1.086-.752a2.827,2.827,0,0,1-5.256-1.232h6.55a3.876,3.876,0,0,0,.016-0.415,3.726,3.726,0,0,0-3.8-4.016A4.05,4.05,0,0,0,425.575,175.6Zm4.106-2.944a2.391,2.391,0,0,1,2.444,2.1h-5.064A2.611,2.611,0,0,1,429.681,172.653Zm6.6,6.943h1.374v-3.967c0-1.872,1.1-2.752,2.109-2.752a2.009,2.009,0,0,1,.751.128v-1.424a2.848,2.848,0,0,0-.623-0.064,2.376,2.376,0,0,0-2.237,1.632V171.6H436.28v8Zm11.679-2.224c0-1.2-.75-1.967-2.108-2.415l-0.863-.288c-0.943-.3-1.23-0.608-1.23-1.12a1.131,1.131,0,0,1,1.342-.928,2.156,2.156,0,0,1,1.693.832l0.895-.864a3.1,3.1,0,0,0-2.556-1.152c-1.582,0-2.7.88-2.7,2.176a2.412,2.412,0,0,0,1.981,2.319l0.783,0.256c1.038,0.336,1.422.72,1.422,1.28a1.217,1.217,0,0,1-1.406,1.088,2.143,2.143,0,0,1-2.045-1.264l-1.119.608a3.174,3.174,0,0,0,3.132,1.856C446.793,179.756,447.959,178.94,447.959,177.372Zm4.81-7.407a1.414,1.414,0,0,0,.224-0.72,1.191,1.191,0,1,0-2.381,0,1.241,1.241,0,0,0,.655,1.072l-1.07,2.288h0.927Zm7.4,6.543c0,1.984,1.182,3.248,2.94,3.248a2.747,2.747,0,0,0,2.46-1.392V179.6h1.374v-8h-1.374v3.968c0,1.839-.974,2.927-2.221,2.927-1.1,0-1.805-.848-1.805-2.192v-4.7h-1.374v4.911Zm10.162,3.088H471.7v-3.967c0-1.872,1.023-2.928,2.317-2.928a1.919,1.919,0,0,1,1.885,2.176V179.6h1.358v-4.927a2.946,2.946,0,0,0-3.02-3.232,2.824,2.824,0,0,0-2.54,1.392V171.6h-1.374v8ZM482.2,168.478a0.966,0.966,0,0,0-.959-0.976,0.993,0.993,0,0,0-.99.976,0.982,0.982,0,0,0,.99.975A0.956,0.956,0,0,0,482.2,168.478ZM480.539,179.6h1.374v-8h-1.374v8Zm5.449,0h1.374v-6.735h2.316V171.6h-2.316v-1.472a1.15,1.15,0,0,1,1.326-1.359,3.214,3.214,0,0,1,.99.159V167.71a3.624,3.624,0,0,0-1.246-.208,2.282,2.282,0,0,0-2.444,2.479V171.6h-1.694v1.264h1.694V179.6Zm13.5-4a4.178,4.178,0,1,0-4.169,4.159A4.1,4.1,0,0,0,499.488,175.6Zm-6.949,0a2.774,2.774,0,1,1,2.78,2.879A2.748,2.748,0,0,1,492.539,175.6Zm9.714,4h1.374v-3.967c0-1.872,1.1-2.752,2.109-2.752a2.006,2.006,0,0,1,.751.128v-1.424a2.842,2.842,0,0,0-.623-0.064,2.377,2.377,0,0,0-2.237,1.632V171.6h-1.374v8Zm6.647,0h1.374v-3.967c0-1.808.911-2.928,2.205-2.928,1.038,0,1.566.9,1.566,2.192v4.7h1.373v-3.967c0-1.808.895-2.928,2.189-2.928,1.039,0,1.582.9,1.582,2.192v4.7h1.374v-4.911c0-1.952-1.055-3.248-2.8-3.248a2.764,2.764,0,0,0-2.62,1.712,2.511,2.511,0,0,0-2.46-1.712,2.685,2.685,0,0,0-2.413,1.392V171.6H508.9v8Zm20.116-2.224c0-1.2-.751-1.967-2.109-2.415l-0.862-.288c-0.943-.3-1.231-0.608-1.231-1.12a1.131,1.131,0,0,1,1.342-.928,2.159,2.159,0,0,1,1.694.832l0.894-.864a3.1,3.1,0,0,0-2.556-1.152c-1.581,0-2.7.88-2.7,2.176a2.412,2.412,0,0,0,1.981,2.319l0.783,0.256c1.039,0.336,1.422.72,1.422,1.28a1.216,1.216,0,0,1-1.406,1.088,2.145,2.145,0,0,1-2.045-1.264l-1.118.608a3.171,3.171,0,0,0,3.131,1.856C527.85,179.756,529.016,178.94,529.016,177.372Zm6.839-1.775a4,4,0,0,0,3.914,4.159,3.5,3.5,0,0,0,2.812-1.392V179.6h1.374v-12h-1.374v5.231a3.5,3.5,0,0,0-2.812-1.392A4,4,0,0,0,535.855,175.6Zm6.838,0a2.729,2.729,0,1,1-2.716-2.9A2.729,2.729,0,0,1,542.693,175.6Zm4.539,0.911c0,1.984,1.182,3.248,2.939,3.248a2.746,2.746,0,0,0,2.46-1.392V179.6h1.374v-8h-1.374v3.968c0,1.839-.974,2.927-2.22,2.927-1.1,0-1.806-.848-1.806-2.192v-4.7h-1.373v4.911Zm10.162,3.088h1.373v-3.967c0-1.872,1.1-2.752,2.109-2.752a2,2,0,0,1,.751.128v-1.424a2.836,2.836,0,0,0-.623-0.064,2.378,2.378,0,0,0-2.237,1.632V171.6h-1.373v8Zm8.308-11.118a0.965,0.965,0,0,0-.959-0.976,0.993,0.993,0,0,0-.99.976,0.982,0.982,0,0,0,.99.975A0.955,0.955,0,0,0,565.7,168.478ZM564.041,179.6h1.373v-8h-1.373v8Zm4.777,0h1.374v-3.967c0-1.872,1.022-2.928,2.316-2.928a1.919,1.919,0,0,1,1.886,2.176V179.6h1.357v-4.927a2.946,2.946,0,0,0-3.019-3.232,2.824,2.824,0,0,0-2.54,1.392V171.6h-1.374v8Zm17.655-.464V171.6H585.1v1.232a3.4,3.4,0,0,0-2.78-1.392,4.075,4.075,0,0,0,0,8.143,3.41,3.41,0,0,0,2.78-1.408v0.912a2.555,2.555,0,0,1-2.668,2.768,3.416,3.416,0,0,1-2.8-1.344l-0.959.96a4.739,4.739,0,0,0,3.771,1.631A3.7,3.7,0,0,0,586.473,179.132Zm-6.662-3.631a2.7,2.7,0,1,1,2.7,2.8A2.664,2.664,0,0,1,579.811,175.5Zm18.8,3.983v-1.232a3.029,3.029,0,0,1-.974.16,1.151,1.151,0,0,1-1.326-1.36v-4.191h2.3V171.6h-2.3v-2.224h-1.374V171.6h-1.694v1.264h1.694v4.367a2.25,2.25,0,0,0,2.444,2.448A3.815,3.815,0,0,0,598.616,179.484Zm2.557,0.112h1.374v-3.967c0-1.872,1.023-2.928,2.317-2.928a1.919,1.919,0,0,1,1.885,2.176V179.6h1.358v-4.927a2.946,2.946,0,0,0-3.02-3.232,2.824,2.824,0,0,0-2.54,1.392V167.6h-1.374v12Zm9.587-4a4.21,4.21,0,0,0,7.733,2.255l-1.087-.752a2.827,2.827,0,0,1-5.256-1.232h6.55a3.876,3.876,0,0,0,.016-0.415,3.725,3.725,0,0,0-3.8-4.016A4.051,4.051,0,0,0,610.76,175.6Zm4.106-2.944a2.39,2.39,0,0,1,2.444,2.1h-5.064A2.612,2.612,0,0,1,614.866,172.653ZM39.673,199.6H41l3.1-11.358h-1.55l-2.38,8.862-3.275-9.054L33.634,197.1l-2.38-8.862H29.7L32.8,199.6h1.326l2.78-7.711Zm5.785-4a4.21,4.21,0,0,0,7.732,2.255L52.1,197.1a2.827,2.827,0,0,1-5.256-1.232H53.4a3.886,3.886,0,0,0,.016-0.415,3.725,3.725,0,0,0-3.8-4.016A4.051,4.051,0,0,0,45.458,195.6Zm4.106-2.944a2.391,2.391,0,0,1,2.444,2.1H46.944A2.612,2.612,0,0,1,49.564,192.653Zm11.776,4.719c0-1.2-.751-1.967-2.109-2.415l-0.863-.288c-0.943-.3-1.23-0.608-1.23-1.12a1.131,1.131,0,0,1,1.342-.928,2.157,2.157,0,0,1,1.693.832l0.895-.864a3.1,3.1,0,0,0-2.556-1.152c-1.582,0-2.7.88-2.7,2.176a2.412,2.412,0,0,0,1.981,2.319l0.783,0.256c1.038,0.336,1.422.72,1.422,1.28a1.216,1.216,0,0,1-1.406,1.088,2.143,2.143,0,0,1-2.045-1.264l-1.118.608a3.172,3.172,0,0,0,3.131,1.856C60.174,199.756,61.34,198.94,61.34,197.372Zm7,2.112v-1.232a3.032,3.032,0,0,1-.975.16,1.151,1.151,0,0,1-1.326-1.36v-4.191h2.3V191.6h-2.3v-2.224H64.664V191.6H62.97v1.264h1.693v4.367a2.25,2.25,0,0,0,2.444,2.448A3.817,3.817,0,0,0,68.338,199.484Zm1.822-3.887a4.21,4.21,0,0,0,7.732,2.255l-1.086-.752a2.827,2.827,0,0,1-5.256-1.232H78.1a3.886,3.886,0,0,0,.016-0.415,3.725,3.725,0,0,0-3.8-4.016A4.051,4.051,0,0,0,70.161,195.6Zm4.106-2.944a2.391,2.391,0,0,1,2.444,2.1H71.646A2.612,2.612,0,0,1,74.267,192.653Zm6.6,6.943H82.24v-3.967c0-1.872,1.1-2.752,2.109-2.752a2.005,2.005,0,0,1,.751.128v-1.424a2.841,2.841,0,0,0-.623-0.064,2.377,2.377,0,0,0-2.237,1.632V191.6H80.866v8Zm6.647,0h1.374v-3.967c0-1.872,1.022-2.928,2.317-2.928a1.919,1.919,0,0,1,1.885,2.176V199.6h1.358v-4.927a2.946,2.946,0,0,0-3.019-3.232,2.824,2.824,0,0,0-2.54,1.392V191.6H87.513v8Zm15.115,0h3.259a5.69,5.69,0,1,0,0-11.358h-3.259V199.6Zm1.486-1.392v-8.575h1.773a4.294,4.294,0,1,1,0,8.575h-1.773Zm10-2.607a4.21,4.21,0,0,0,7.733,2.255l-1.087-.752a2.827,2.827,0,0,1-5.256-1.232h6.55a3.886,3.886,0,0,0,.016-0.415,3.725,3.725,0,0,0-3.8-4.016A4.051,4.051,0,0,0,114.116,195.6Zm4.106-2.944a2.39,2.39,0,0,1,2.444,2.1H115.6A2.613,2.613,0,0,1,118.222,192.653ZM130,197.372c0-1.2-.751-1.967-2.109-2.415l-0.863-.288c-0.942-.3-1.23-0.608-1.23-1.12a1.131,1.131,0,0,1,1.342-.928,2.156,2.156,0,0,1,1.693.832l0.9-.864a3.1,3.1,0,0,0-2.556-1.152c-1.582,0-2.7.88-2.7,2.176a2.412,2.412,0,0,0,1.981,2.319l0.783,0.256c1.038,0.336,1.422.72,1.422,1.28a1.216,1.216,0,0,1-1.406,1.088,2.143,2.143,0,0,1-2.045-1.264l-1.118.608a3.171,3.171,0,0,0,3.131,1.856C128.831,199.756,130,198.94,130,197.372Zm2.141-1.775a4.21,4.21,0,0,0,7.733,2.255l-1.087-.752a2.827,2.827,0,0,1-5.256-1.232h6.55a3.886,3.886,0,0,0,.016-0.415,3.725,3.725,0,0,0-3.8-4.016A4.051,4.051,0,0,0,132.139,195.6Zm4.106-2.944a2.392,2.392,0,0,1,2.445,2.1h-5.065A2.613,2.613,0,0,1,136.245,192.653Zm6.6,6.943h1.374v-3.967c0-1.872,1.1-2.752,2.108-2.752a2,2,0,0,1,.751.128v-1.424a2.836,2.836,0,0,0-.623-0.064,2.376,2.376,0,0,0-2.236,1.632V191.6h-1.374v8Zm10.976-.112v-1.232a3.033,3.033,0,0,1-.974.16,1.151,1.151,0,0,1-1.326-1.36v-4.191h2.3V191.6h-2.3v-2.224h-1.374V191.6h-1.694v1.264h1.694v4.367a2.25,2.25,0,0,0,2.444,2.448A3.815,3.815,0,0,0,153.821,199.484Zm6.679-5.567a5.894,5.894,0,0,0,10.88,3.119l-1.246-.752a4.464,4.464,0,1,1,0-4.735l1.246-.752A5.894,5.894,0,0,0,160.5,193.917Zm12.815,1.68a4,4,0,0,0,3.914,4.159,3.5,3.5,0,0,0,2.812-1.392V199.6h1.374v-8h-1.374v1.232a3.5,3.5,0,0,0-2.812-1.392A4,4,0,0,0,173.315,195.6Zm6.838,0a2.729,2.729,0,1,1-2.716-2.9A2.73,2.73,0,0,1,180.153,195.6Zm4.65,4h1.374v-3.967c0-1.808.91-2.928,2.205-2.928,1.038,0,1.565.9,1.565,2.192v4.7h1.374v-3.967c0-1.808.9-2.928,2.189-2.928,1.038,0,1.581.9,1.581,2.192v4.7h1.374v-4.911c0-1.952-1.054-3.248-2.8-3.248a2.763,2.763,0,0,0-2.62,1.712,2.513,2.513,0,0,0-2.461-1.712,2.684,2.684,0,0,0-2.412,1.392V191.6H184.8v8Zm14.939,3.343h1.374v-4.575a3.5,3.5,0,0,0,2.812,1.392,4.167,4.167,0,0,0,0-8.319,3.5,3.5,0,0,0-2.812,1.392V191.6h-1.374v11.342Zm6.694-7.342a2.721,2.721,0,1,1-2.716-2.9A2.729,2.729,0,0,1,206.436,195.6Zm3.565,0a4,4,0,0,0,3.914,4.159,3.5,3.5,0,0,0,2.811-1.392V199.6H218.1v-8h-1.374v1.232a3.5,3.5,0,0,0-2.811-1.392A4,4,0,0,0,210,195.6Zm6.837,0a2.729,2.729,0,1,1-2.716-2.9A2.729,2.729,0,0,1,216.838,195.6Zm6.312-7.119a0.965,0.965,0,0,0-.958-0.976,0.993,0.993,0,0,0-.991.976,0.982,0.982,0,0,0,.991.975A0.955,0.955,0,0,0,223.15,188.478ZM221.489,199.6h1.374v-8h-1.374v8Zm12.222-.464V191.6h-1.374v1.232a3.4,3.4,0,0,0-2.78-1.392,4.075,4.075,0,0,0,0,8.143,3.41,3.41,0,0,0,2.78-1.408v0.912a2.555,2.555,0,0,1-2.668,2.768,3.416,3.416,0,0,1-2.8-1.344l-0.958.96a4.737,4.737,0,0,0,3.77,1.631A3.7,3.7,0,0,0,233.711,199.132Zm-6.662-3.631a2.7,2.7,0,1,1,2.7,2.8A2.664,2.664,0,0,1,227.049,195.5ZM237.1,199.6h1.374v-3.967c0-1.872,1.023-2.928,2.317-2.928a1.919,1.919,0,0,1,1.885,2.176V199.6h1.358v-4.927a2.946,2.946,0,0,0-3.02-3.232,2.824,2.824,0,0,0-2.54,1.392V191.6H237.1v8Zm22.624-4a4.178,4.178,0,1,0-4.17,4.159A4.1,4.1,0,0,0,259.723,195.6Zm-6.95,0a2.774,2.774,0,1,1,2.78,2.879A2.748,2.748,0,0,1,252.773,195.6Zm10.258,4H264.4v-6.735h2.317V191.6H264.4v-1.472a1.152,1.152,0,0,1,1.326-1.36,3.215,3.215,0,0,1,.991.16V187.71a3.628,3.628,0,0,0-1.246-.208,2.283,2.283,0,0,0-2.445,2.479V191.6h-1.693v1.264h1.693V199.6Zm18.949,0h1.326l3.1-11.358h-1.55l-2.381,8.862-3.275-9.054-3.259,9.054-2.38-8.862h-1.55l3.1,11.358h1.326l2.779-7.711Zm15.93,0h1.326l3.1-11.358h-1.55l-2.38,8.862-3.275-9.054-3.26,9.054-2.38-8.862h-1.55l3.1,11.358h1.326l2.78-7.711Zm7.1,0h1.486V188.238h-1.486V199.6Zm5.288,0h1.486V188.238h-1.486V199.6Zm6.983-1.072a1.183,1.183,0,1,0-1.183,1.2A1.205,1.205,0,0,0,317.277,198.524Z"/>
</svg>
