<svg data-name="Quote copy 2" xmlns="http://www.w3.org/2000/svg" width="722" height="302"><path data-name="Rectangle 96 copy" fill="#b09f8a" d="M0 0h722v302H0z"/><path data-name="“Don’t overthink it.”" d="M236.468 113.138a2.133 2.133 0 0 0-.325 1.129 1.852 1.852 0 1 0 3.7 0 1.913 1.913 0 0 0-1.026-1.681L240.5 109h-1.43zm4.654 0a2.133 2.133 0 0 0-.325 1.129 1.852 1.852 0 1 0 3.7 0 1.913 1.913 0 0 0-1.026-1.681l1.68-3.586h-1.427zm8.5 13.678h5.1c5.455 0 9.458-3.815 9.458-8.91s-4-8.909-9.458-8.909h-5.1v17.819zm2.327-2.184V111.18h2.777c4.279 0 7.106 2.861 7.106 6.726s-2.827 6.726-7.106 6.726h-2.777zm28.717-4.09a6.543 6.543 0 1 0-6.531 6.525 6.431 6.431 0 0 0 6.534-6.525zm-10.885 0a4.345 4.345 0 1 1 4.354 4.517 4.308 4.308 0 0 1-4.351-4.517zm15.207 6.274h2.152v-6.224c0-2.937 1.6-4.593 3.628-4.593 1.751 0 2.952 1.305 2.952 3.413v7.4h2.127v-7.73c0-3.112-1.926-5.07-4.729-5.07a4.421 4.421 0 0 0-3.978 2.184v-1.933h-2.152v12.549zm18.835-15.109a2.221 2.221 0 0 0 .35-1.129 1.864 1.864 0 1 0-3.728 0 1.948 1.948 0 0 0 1.026 1.682l-1.676 3.588h1.451zm11.182 14.933v-1.932a4.764 4.764 0 0 1-1.527.251c-1.351 0-2.076-.527-2.076-2.134v-6.575h3.6v-1.983h-3.6v-3.488h-2.152v3.488h-2.65v1.983h2.652v6.85a3.527 3.527 0 0 0 3.828 3.84 5.965 5.965 0 0 0 1.928-.3zm23.438-6.1a6.543 6.543 0 1 0-6.531 6.525 6.431 6.431 0 0 0 6.534-6.523zm-10.885 0a4.345 4.345 0 1 1 4.354 4.517 4.308 4.308 0 0 1-4.351-4.515zm18.835 6.274h1.8l5.78-12.549h-2.4l-4.279 9.487-4.278-9.487h-2.4zm9.753-6.274a6.592 6.592 0 0 0 12.111 3.538l-1.7-1.179a4.427 4.427 0 0 1-8.232-1.933h10.259a6.136 6.136 0 0 0 .025-.652c-.025-4.016-2.677-6.3-5.955-6.3a6.35 6.35 0 0 0-6.505 6.528zm6.431-4.618a3.745 3.745 0 0 1 3.828 3.287h-7.932a4.093 4.093 0 0 1 4.107-3.285zm10.328 10.892h2.152v-6.224c0-2.937 1.726-4.317 3.3-4.317a3.125 3.125 0 0 1 1.176.2v-2.234a4.455 4.455 0 0 0-.975-.1 3.721 3.721 0 0 0-3.5 2.56v-2.435h-2.152v12.549zm17.185-.176v-1.932a4.753 4.753 0 0 1-1.526.251c-1.351 0-2.077-.527-2.077-2.134v-6.573h3.6v-1.983h-3.6v-3.488h-2.151v3.488h-2.653v1.983h2.653v6.85a3.527 3.527 0 0 0 3.828 3.84 5.959 5.959 0 0 0 1.929-.3zm4 .176h2.152v-6.224c0-2.937 1.6-4.593 3.628-4.593 1.751 0 2.952 1.305 2.952 3.413v7.4h2.127v-7.73c0-3.112-1.927-5.07-4.729-5.07a4.42 4.42 0 0 0-3.978 2.184v-8.207h-2.152v18.823zm18.584-17.443a1.513 1.513 0 0 0-1.5-1.531 1.556 1.556 0 0 0-1.551 1.531 1.539 1.539 0 0 0 1.551 1.531 1.5 1.5 0 0 0 1.503-1.529zm-2.6 17.443h2.152v-12.547h-2.152v12.549zm7.479 0h2.151v-6.224c0-2.937 1.6-4.593 3.628-4.593 1.752 0 2.953 1.305 2.953 3.413v7.4h2.127v-7.73c0-3.112-1.927-5.07-4.729-5.07a4.421 4.421 0 0 0-3.979 2.184v-1.933h-2.151v12.549zm15.982 0h2.152v-6.274l6.781 6.274h2.9l-7.531-7 6.163-5.547h-2.853l-5.454 4.894v-11.168h-2.152v18.823zm24.187-17.443a1.513 1.513 0 0 0-1.5-1.531 1.556 1.556 0 0 0-1.551 1.531 1.539 1.539 0 0 0 1.551 1.531 1.5 1.5 0 0 0 1.501-1.529zm-2.6 17.443h2.152v-12.547h-2.152v12.549zm14.259-.176v-1.932a4.758 4.758 0 0 1-1.526.251c-1.351 0-2.077-.527-2.077-2.134v-6.573h3.6v-1.983h-3.6v-3.488h-2.152v3.488h-2.652v1.983h2.652v6.85a3.527 3.527 0 0 0 3.829 3.84 5.959 5.959 0 0 0 1.925-.3zm6.977-1.506a1.852 1.852 0 1 0-1.852 1.883 1.888 1.888 0 0 0 1.851-1.881zm4.753-13.427a2.221 2.221 0 0 0 .35-1.129 1.864 1.864 0 1 0-3.728 0 1.946 1.946 0 0 0 1.026 1.682l-1.677 3.588h1.451zm4.654 0a2.221 2.221 0 0 0 .35-1.129 1.864 1.864 0 1 0-3.728 0 1.946 1.946 0 0 0 1.026 1.682l-1.677 3.588h1.451z" fill-rule="evenodd" fill="#fff"/><path data-name="Rectangle 4 copy 5" fill="#fff" d="M174 167h375v50H174z"/><path data-name="Shop our Icon Collection" d="M225.113 198.111c2.256 0 3.805-1.383 3.82-3.364a3.357 3.357 0 0 0-2.541-3.257l-.752-.276c-1.128-.415-1.655-.676-1.655-1.26a1.1 1.1 0 0 1 1.294-.829 2.358 2.358 0 0 1 1.85.906l1.564-1.689a4.412 4.412 0 0 0-3.444-1.506c-2.136 0-3.685 1.245-3.685 3.364 0 1.49.963 2.55 2.692 3.149l.752.261c1.068.369 1.489.753 1.489 1.306a1.087 1.087 0 0 1-1.293.906 2.78 2.78 0 0 1-2.211-1.244l-1.835 1.582a4.648 4.648 0 0 0 3.955 1.951zm8.109-.185h2.391v-4.316h4.3v4.316h2.391v-10.9h-2.391v4.27h-4.3v-4.27h-2.391v10.905zm18.892.185a5.639 5.639 0 1 0-5.519-5.637 5.593 5.593 0 0 0 5.519 5.637zm0-2.366a3.276 3.276 0 1 1 3.1-3.271 3.2 3.2 0 0 1-3.1 3.271zm17.193-4.992a3.673 3.673 0 0 0-3.76-3.732h-3.624v10.905h2.391v-3.456h1.233a3.661 3.661 0 0 0 3.76-3.717zm-2.316 0a1.419 1.419 0 0 1-1.474 1.429h-1.2v-2.857h1.2a1.409 1.409 0 0 1 1.474 1.428zm16.923 7.358a5.639 5.639 0 1 0-5.52-5.637 5.593 5.593 0 0 0 5.52 5.637zm0-2.366a3.276 3.276 0 1 1 3.1-3.271 3.2 3.2 0 0 1-3.1 3.271zm14.08 2.366a4.233 4.233 0 0 0 4.391-4.5v-6.589h-2.391v6.62a2 2 0 1 1-4 0v-6.62H293.6v6.589a4.226 4.226 0 0 0 4.394 4.5zm9.161-.185h2.392v-4.5h.391l3.549 4.5h2.872l-3.775-4.807a2.807 2.807 0 0 0 2.091-2.811 3.186 3.186 0 0 0-3.309-3.287h-4.211v10.905zm2.392-6.574v-2.089h1.534a1.072 1.072 0 0 1 1.218 1.045 1.088 1.088 0 0 1-1.218 1.044h-1.534zm15.84 6.574h2.391v-10.9h-2.391v10.905zm12.2.185a5.5 5.5 0 0 0 4.993-2.98l-2.106-1.168a3.163 3.163 0 0 1-2.887 1.782 3.276 3.276 0 0 1 0-6.543 3.163 3.163 0 0 1 2.887 1.782l2.106-1.168a5.5 5.5 0 0 0-4.993-2.98 5.639 5.639 0 0 0-.002 11.275zm13.944 0a5.639 5.639 0 1 0-5.519-5.637 5.593 5.593 0 0 0 5.517 5.637zm0-2.366a3.276 3.276 0 1 1 3.1-3.271 3.2 3.2 0 0 1-3.102 3.271zm19.464 2.181v-10.9h-2.406v6.727l-5.188-6.727h-2.061v10.905h2.391v-6.743l5.2 6.743h2.06zm15.751.185a5.5 5.5 0 0 0 4.993-2.98l-2.106-1.168a3.163 3.163 0 0 1-2.887 1.782 3.276 3.276 0 0 1 0-6.543 3.163 3.163 0 0 1 2.887 1.782l2.106-1.168a5.5 5.5 0 0 0-4.993-2.98 5.639 5.639 0 0 0-.002 11.275zm13.944 0a5.639 5.639 0 1 0-5.519-5.637 5.593 5.593 0 0 0 5.517 5.637zm0-2.366a3.276 3.276 0 1 1 3.1-3.271 3.2 3.2 0 0 1-3.102 3.271zm9.809 2.181h6.813v-2.334h-4.422v-8.571h-2.39v10.905zm10.936 0h6.812v-2.334h-4.421v-8.571h-2.391v10.905zm10.935 0h6.768v-2.334h-4.378v-1.951h3.474v-2.335h-3.474v-1.951h4.376v-2.334h-6.768v10.905zm15.869.185a5.5 5.5 0 0 0 4.993-2.98l-2.105-1.168a3.164 3.164 0 0 1-2.888 1.782 3.276 3.276 0 0 1 0-6.543 3.164 3.164 0 0 1 2.888 1.782l2.105-1.168a5.5 5.5 0 0 0-4.993-2.98 5.639 5.639 0 0 0-.002 11.275zm10.952-.185h2.409v-8.571h2.752v-2.334h-7.88v2.334h2.722v8.571zm9.252 0h2.391v-10.9h-2.391v10.905zm12.2.185a5.639 5.639 0 1 0-5.519-5.637 5.593 5.593 0 0 0 5.515 5.637zm0-2.366a3.276 3.276 0 1 1 3.1-3.271 3.2 3.2 0 0 1-3.104 3.271zm19.464 2.181v-10.9H497.7v6.727l-5.188-6.727h-2.06v10.905h2.391v-6.743l5.2 6.743h2.057z" fill-rule="evenodd"/></svg>