<svg id="copy_copy_2" data-name="copy copy 2" xmlns="http://www.w3.org/2000/svg" width="720" height="315"><defs><style>.cls-2{fill-rule:evenodd}</style></defs><path id="Rectangle_106_copy_5" data-name="Rectangle 106 copy 5" d="M0 0h719.813l.171 315H.172z" fill-rule="evenodd" fill="#fff"/><g id="CTA_underline"><path d="M30 266h90v3H30z"/><path id="SHOP_now" data-name="SHOP now" class="cls-2" d="M33.395 261.2a3.12 3.12 0 0 0 3.422-3.065 3.049 3.049 0 0 0-2.277-2.967l-.674-.252c-1.011-.378-1.482-.616-1.482-1.148a.984.984 0 0 1 1.159-.756 2.1 2.1 0 0 1 1.657.826l1.4-1.54a3.923 3.923 0 0 0-3.085-1.371 3 3 0 0 0-3.3 3.065c0 1.358.862 2.323 2.412 2.869l.673.239c.957.336 1.334.686 1.334 1.19a.977.977 0 0 1-1.159.826 2.48 2.48 0 0 1-1.981-1.134l-1.644 1.442a4.141 4.141 0 0 0 3.545 1.776zm7.332-.168h2.142V257.1h3.853v3.933h2.142V251.1h-2.141v3.891h-3.854V251.1h-2.142v9.937zm16.993.168a5.14 5.14 0 1 0-4.945-5.136 5.055 5.055 0 0 0 4.945 5.136zm0-2.155a2.989 2.989 0 1 1 2.776-2.981 2.9 2.9 0 0 1-2.776 2.985zm15.471-4.545a3.319 3.319 0 0 0-3.368-3.4h-3.248v9.937h2.142v-3.149h1.1a3.308 3.308 0 0 0 3.374-3.388zm-2.075 0a1.282 1.282 0 0 1-1.32 1.3h-1.079v-2.6H69.8a1.274 1.274 0 0 1 1.316 1.3zm19.54 6.536V251.1H88.5v6.13l-4.648-6.13h-1.846v9.937h2.142v-6.144l4.662 6.144h1.846zm8.855.168a5.14 5.14 0 1 0-4.945-5.136 5.056 5.056 0 0 0 4.945 5.132zm0-2.155a2.989 2.989 0 1 1 2.775-2.981 2.9 2.9 0 0 1-2.775 2.981zm16.266 1.987h2.034l2.223-9.937h-2.29l-1.307 6.3-2.695-6.466-2.681 6.466-1.307-6.3h-2.291l2.21 9.937h2.034l2.035-4.87z"/></g><path id="BR_X_Kevin_Love_Slim_Pinstripe_Italian_Motion-Stretch_Suit_I" data-name="BR X Kevin Love | Slim Pinstripe Italian Motion-Stretch Suit I" class="cls-2" d="M31.586 52.871h9.36a6.3 6.3 0 0 0 6.48-6.27 5.566 5.566 0 0 0-3.03-5.04 5.013 5.013 0 0 0 1.53-3.66 6.331 6.331 0 0 0-6.33-6.33h-8.01v21.3zm4.77-12.689v-4.26h2.7a2.165 2.165 0 0 1 2.22 2.16 2.135 2.135 0 0 1-2.22 2.1h-2.7zm0 8.31v-4.26h4.17a2.167 2.167 0 0 1 2.25 2.13 2.141 2.141 0 0 1-2.22 2.13h-4.2zm15.78 4.38h4.77v-8.79h.78l7.08 8.79H70.5l-7.53-9.39c2.7-.96 4.17-2.73 4.17-5.49a6.288 6.288 0 0 0-6.6-6.42h-8.4v21.3zm4.77-12.84v-4.08h3.06c1.41 0 2.43.75 2.43 2.04a2.156 2.156 0 0 1-2.43 2.04h-3.06zm37.08 12.84h5.55L91.586 42.1l7.47-10.53h-5.52l-4.83 6.84-4.83-6.84h-5.52l7.5 10.53-7.98 10.77h5.58l5.28-7.05zm16.531 0h4.74v-9.54l8.669 9.54h6.12L119.935 41.8l8.4-10.229h-5.85l-7.229 8.91v-8.91h-4.74v21.3zm22.5 0h13.5v-4.56h-8.729V44.5h6.929v-4.56h-6.929v-3.81h8.729v-4.56h-13.5v21.3zm25.139 0h4.29l8.73-21.3h-5.25l-5.64 14.189-5.669-14.189h-5.19zm16.8 0h4.77v-21.3h-4.77v21.3zm30.029 0v-21.3h-4.8v13.139l-10.35-13.139h-4.11v21.3h4.77V39.7l10.38 13.17h4.109zm14.1 0h13.589v-4.56h-8.82v-16.74h-4.769v21.3zm26.909.36a11.01 11.01 0 1 0-11.01-11.01 11.035 11.035 0 0 0 11.01 11.009zm0-4.62a6.393 6.393 0 1 1 6.18-6.39 6.32 6.32 0 0 1-6.18 6.389zm21.39 4.26h4.29l8.729-21.3h-5.25l-5.639 14.189-5.67-14.189h-5.19zm16.8 0h13.5v-4.56h-8.729V44.5h6.929v-4.56h-6.929v-3.81h8.729v-4.56h-13.5v21.3zm26.729 1.65h3.78v-24.6h-3.78v24.6zm24.239-1.29c4.5 0 7.59-2.7 7.62-6.57.03-3.21-1.98-5.25-5.07-6.36l-1.5-.54c-2.25-.81-3.3-1.32-3.3-2.46 0-1.11 1.29-1.62 2.58-1.62a4.738 4.738 0 0 1 3.69 1.77l3.12-3.3a8.888 8.888 0 0 0-6.87-2.94c-4.26 0-7.35 2.43-7.35 6.57 0 2.91 1.92 4.98 5.37 6.15l1.5.51c2.13.72 2.97 1.47 2.97 2.55 0 1.02-.99 1.77-2.58 1.77a5.573 5.573 0 0 1-4.41-2.43l-3.66 3.09a9.34 9.34 0 0 0 7.89 3.809zm12.42-.36h13.59v-4.56h-8.82v-16.74h-4.77v21.3zm18.06 0h4.768v-21.3h-4.769v21.3zm21.779-4.53l6.21-8.61v13.139h4.8v-21.3h-4.349l-6.66 9.18-6.66-9.18H376.4v21.3h4.77V39.732zm39.839-9.48a7.254 7.254 0 0 0-7.5-7.29h-7.229v21.3h4.769v-6.75h2.46a7.23 7.23 0 0 0 7.5-7.26zm-4.62 0a2.8 2.8 0 0 1-2.94 2.79h-2.4v-5.58h2.4a2.785 2.785 0 0 1 2.94 2.79zm9.18 14.009h4.77v-21.3h-4.77v21.3zm30.029 0v-21.3h-4.8v13.14L446.69 31.572h-4.11v21.3h4.77V39.7l10.379 13.17h4.11zm12.36.36c4.5 0 7.59-2.7 7.62-6.57.03-3.21-1.98-5.25-5.07-6.36l-1.5-.54c-2.25-.81-3.3-1.32-3.3-2.46 0-1.11 1.289-1.62 2.579-1.62a4.738 4.738 0 0 1 3.69 1.77l3.12-3.3a8.888 8.888 0 0 0-6.87-2.94c-4.259 0-7.349 2.43-7.349 6.57 0 2.91 1.92 4.98 5.369 6.15l1.5.51c2.13.72 2.97 1.47 2.97 2.55 0 1.02-.99 1.77-2.58 1.77a5.571 5.571 0 0 1-4.409-2.43l-3.66 3.09a9.34 9.34 0 0 0 7.891 3.81zm15.96-.36h4.8V36.132h5.49v-4.56H484.73v4.56h5.429v16.739zm14.7 0h4.77v-8.79h.78l7.08 8.79h5.73l-7.53-9.39c2.7-.96 4.17-2.73 4.17-5.49a6.288 6.288 0 0 0-6.6-6.42h-8.4v21.3zm4.77-12.84v-4.08h3.06c1.41 0 2.43.75 2.43 2.04a2.156 2.156 0 0 1-2.43 2.04h-3.06zm16.59 12.84h4.77v-21.3h-4.77v21.3zm25.5-14.009a7.254 7.254 0 0 0-7.5-7.29h-7.229v21.3h4.769v-6.75h2.46a7.23 7.23 0 0 0 7.499-7.26zm-4.62 0a2.8 2.8 0 0 1-2.94 2.79h-2.4v-5.58h2.4a2.785 2.785 0 0 1 2.941 2.79zm9.18 14.009h13.5v-4.56h-8.73V44.5h6.93v-4.56h-6.93v-3.81h8.73v-4.56h-13.5v21.3zm-524.692 28h4.77v-21.3h-4.77v21.3zm14.61 0H51V64.132h5.49v-4.56H40.766v4.56H46.2v16.739zm10.26 0h4.98l1.89-4.5h8.82l1.89 4.5h4.98l-9.12-21.3h-4.32zm8.61-8.64l2.67-6.42 2.67 6.42h-5.34zm17.67 8.64h13.589v-4.56h-8.82V59.572h-4.77v21.3zm18.06 0h4.77v-21.3H100.8v21.3zm8.49 0h4.979l1.89-4.5h8.82l1.89 4.5h4.98l-9.12-21.3h-4.32zm8.609-8.64l2.67-6.42 2.67 6.42H117.9zm36.93 8.64v-21.3h-4.8v13.14l-10.35-13.139h-4.11v21.3h4.77V67.7l10.38 13.17h4.11zm25.109-4.53l6.21-8.61v13.14h4.8v-21.3h-4.35l-6.66 9.18-6.659-9.18h-4.35v21.3h4.77V67.732zm26.82 4.89a11.01 11.01 0 1 0-11.009-11.01 11.036 11.036 0 0 0 11.008 11.01zm0-4.62a6.393 6.393 0 1 1 6.18-6.39 6.32 6.32 0 0 1-6.181 6.39zm18.84 4.26h4.8V64.132h5.49v-4.56h-15.72v4.56h5.43v16.739zm14.7 0h4.77v-21.3h-4.77v21.3zm20.579.36a11.01 11.01 0 1 0-11.009-11.01 11.036 11.036 0 0 0 11.008 11.01zm0-4.62a6.393 6.393 0 1 1 6.18-6.39 6.319 6.319 0 0 1-6.181 6.39zm35.07 4.26v-21.3h-4.8v13.14l-10.35-13.139h-4.11v21.3h4.77V67.7l10.38 13.17h4.11zm5.49-8.49h8.82v-4.32h-8.82v4.32zm20.669 8.85c4.5 0 7.59-2.7 7.62-6.57.03-3.21-1.98-5.25-5.07-6.36l-1.5-.54c-2.249-.81-3.3-1.32-3.3-2.46 0-1.11 1.29-1.62 2.579-1.62a4.738 4.738 0 0 1 3.69 1.77l3.12-3.3a8.888 8.888 0 0 0-6.87-2.94c-4.259 0-7.349 2.43-7.349 6.57 0 2.91 1.92 4.98 5.37 6.15l1.5.51c2.129.72 2.969 1.47 2.969 2.55 0 1.02-.99 1.77-2.58 1.77a5.572 5.572 0 0 1-4.409-2.43l-3.66 3.09a9.34 9.34 0 0 0 7.887 3.81zm15.96-.36h4.8V64.132h5.49v-4.56h-15.72v4.56h5.429v16.739zm14.7 0h4.77v-8.79h.78l7.08 8.79h5.73l-7.53-9.39c2.7-.96 4.17-2.73 4.17-5.49a6.288 6.288 0 0 0-6.6-6.42h-8.4v21.3zm4.77-12.84v-4.08h3.06c1.41 0 2.43.75 2.43 2.04a2.156 2.156 0 0 1-2.43 2.04h-3.06zm16.59 12.84h13.5v-4.56h-8.729V72.5h6.93v-4.56h-6.93v-3.81h8.729v-4.56h-13.5v21.3zm22.47 0h4.8V64.132h5.489v-4.56h-15.72v4.56h5.43v16.739zm23.7.36a11.01 11.01 0 0 0 9.959-5.82l-4.2-2.28a6.39 6.39 0 1 1 0-5.82l4.2-2.28a11.1 11.1 0 1 0-9.96 16.2zm14.25-.36h4.77v-8.43h8.579v8.43h4.77v-21.3h-4.77v8.34h-8.579v-8.34h-4.77v21.3zm38.579.36c4.5 0 7.59-2.7 7.62-6.57.03-3.21-1.98-5.25-5.07-6.36l-1.5-.54c-2.25-.81-3.3-1.32-3.3-2.46 0-1.11 1.29-1.62 2.58-1.62a4.738 4.738 0 0 1 3.69 1.77l3.12-3.3a8.888 8.888 0 0 0-6.87-2.94c-4.26 0-7.35 2.43-7.35 6.57 0 2.91 1.92 4.98 5.37 6.15l1.5.51c2.13.72 2.97 1.47 2.97 2.55 0 1.02-.99 1.77-2.58 1.77a5.573 5.573 0 0 1-4.41-2.43l-3.659 3.09a9.337 9.337 0 0 0 7.888 3.81zm20.94 0a8.353 8.353 0 0 0 8.759-8.79V59.572h-4.769V72.5a3.992 3.992 0 1 1-7.98 0V59.572H485.3v12.869a8.338 8.338 0 0 0 8.761 8.79zm14.52-.36h4.77v-21.3h-4.77v21.3zm14.609 0h4.8V64.132h5.49v-4.56h-15.72v4.56h5.429v16.739zm-492.161 28h1.67V96.087h-1.671v12.784zm10.585-.126v-1.386a3.424 3.424 0 0 1-1.1.18 1.3 1.3 0 0 1-1.494-1.531v-4.717h2.593v-1.423h-2.592v-2.5h-1.549v2.5h-1.908v1.423h1.909v4.915a2.534 2.534 0 0 0 2.755 2.755 4.31 4.31 0 0 0 1.385-.216zm2.05-4.375a4.5 4.5 0 0 0 4.411 4.681 3.948 3.948 0 0 0 3.169-1.566v1.386h1.548v-9h-1.548v1.387a3.949 3.949 0 0 0-3.169-1.567 4.5 4.5 0 0 0-4.411 4.679zm7.706 0a3.075 3.075 0 1 1-3.061-3.259 3.074 3.074 0 0 1 3.061 3.259zm5.236 4.5h1.548v-13.5h-1.548v13.5zm7.254-12.514a1.087 1.087 0 0 0-1.08-1.1 1.118 1.118 0 0 0-1.116 1.1 1.107 1.107 0 0 0 1.116 1.1 1.076 1.076 0 0 0 1.08-1.099zm-1.873 12.514h1.548v-9h-1.547v9zm4.68-4.5a4.5 4.5 0 0 0 4.411 4.681 3.948 3.948 0 0 0 3.169-1.566v1.386H75.8v-9h-1.551v1.387a3.949 3.949 0 0 0-3.169-1.567 4.505 4.505 0 0 0-4.412 4.679zm7.706 0a3.075 3.075 0 1 1-3.061-3.259 3.074 3.074 0 0 1 3.062 3.259zm5.236 4.5h1.548v-4.465c0-2.107 1.152-3.3 2.611-3.3a2.161 2.161 0 0 1 2.125 2.449v5.311h1.531v-5.546a3.318 3.318 0 0 0-3.4-3.637 3.182 3.182 0 0 0-2.863 1.567v-1.381h-1.551v9zm24.1 0h1.369l3.061-9h-1.639l-2.178 6.572-2.251-6.572h-1.188l-2.251 6.572-2.179-6.572h-1.62l3.061 9h1.368l2.233-6.482zm15.661-4.5a4.709 4.709 0 1 0-4.7 4.681 4.62 4.62 0 0 0 4.704-4.681zm-7.833 0a3.126 3.126 0 1 1 3.133 3.241 3.094 3.094 0 0 1-3.129-3.241zm19.64 0a4.708 4.708 0 1 0-4.7 4.681 4.62 4.62 0 0 0 4.704-4.681zm-7.832 0a3.126 3.126 0 1 1 3.133 3.241 3.094 3.094 0 0 1-3.129-3.241zm10.944 4.5h1.548v-13.5h-1.548v13.5zm7.308-.4a1.539 1.539 0 0 0 .252-.81 1.333 1.333 0 1 0-2.665 0 1.34 1.34 0 0 0 .738 1.206l-1.206 2.575h1.026zm10.422-.99a3.947 3.947 0 0 0 3.169 1.566 4.69 4.69 0 0 0 0-9.363 3.948 3.948 0 0 0-3.169 1.567v-5.883h-1.549v13.5h1.549v-1.386zm6-3.115a3.067 3.067 0 1 1-3.061-3.259 3.074 3.074 0 0 1 3.06 3.264zm6.659 3.3a1.333 1.333 0 1 0-1.333 1.35 1.358 1.358 0 0 0 1.332-1.35zm16.291-.288h-6.37c.306-1.477 1.8-2.215 3.277-3.3 2.089-1.513 2.953-2.593 2.953-4.466a3.63 3.63 0 0 0-3.943-3.745 3.972 3.972 0 0 0-4.213 4.033h1.584a2.469 2.469 0 0 1 2.647-2.521 2.162 2.162 0 0 1 2.341 2.215c0 1.495-.793 2.161-2.269 3.259-1.891 1.405-4.285 2.665-4.285 5.4v.612h8.282v-1.494zm11.916-3.133v-3.565a4.536 4.536 0 1 0-9.056 0v3.565a4.536 4.536 0 1 0 9.055 0zm-7.508 0v-3.565c0-2.071 1.242-3.3 2.971-3.3 1.747 0 2.989 1.224 2.989 3.3v3.565c0 2.07-1.242 3.3-2.989 3.3-1.73-.005-2.972-1.23-2.972-3.3zm12.06 4.627h1.548V96.087h-2.756l-1.26 1.53h2.467v11.253zm13.574-3.835a3.571 3.571 0 0 0-2-3.349 2.991 2.991 0 0 0 1.3-2.521 3.318 3.318 0 0 0-3.583-3.3 3.364 3.364 0 0 0-3.6 3.3 2.98 2.98 0 0 0 1.332 2.521 3.573 3.573 0 0 0-2.035 3.349 4.3 4.3 0 0 0 8.585 0zm-6.357-5.836a1.9 1.9 0 0 1 2.071-1.873 1.867 1.867 0 0 1 2.052 1.873 1.911 1.911 0 0 1-2.052 1.891 1.949 1.949 0 0 1-2.071-1.891zm-.666 5.834a2.538 2.538 0 0 1 2.737-2.557 2.553 2.553 0 1 1 0 5.1 2.545 2.545 0 0 1-2.737-2.541zm15.713 5.816h1.423V96.087H219.7v14.765zm10.944-1.981h7.85v-1.584h-6.176v-11.2h-1.674v12.784zm12.384-12.512a1.087 1.087 0 0 0-1.08-1.1 1.118 1.118 0 0 0-1.116 1.1 1.106 1.106 0 0 0 1.116 1.1 1.076 1.076 0 0 0 1.08-1.1zm-1.872 12.514h1.548v-9h-1.548v9zm5.382 0h1.548v-4.465c0-2.035 1.026-3.3 2.485-3.3 1.17 0 1.764 1.008 1.764 2.467v5.293h1.549v-4.465c0-2.035 1.008-3.3 2.467-3.3 1.17 0 1.782 1.008 1.782 2.467v5.293h1.549v-5.528c0-2.2-1.189-3.655-3.151-3.655a3.116 3.116 0 0 0-2.953 1.927 2.831 2.831 0 0 0-2.773-1.927 3.027 3.027 0 0 0-2.719 1.567v-1.377h-1.548v9zm18.7-12.514a1.087 1.087 0 0 0-1.08-1.1 1.118 1.118 0 0 0-1.116 1.1 1.106 1.106 0 0 0 1.116 1.1 1.076 1.076 0 0 0 1.082-1.1zm-1.872 12.514h1.548v-9h-1.546v9zm10.261-.126v-1.386a3.422 3.422 0 0 1-1.1.18 1.3 1.3 0 0 1-1.5-1.531v-4.717h2.593v-1.423h-2.593v-2.5h-1.539v2.5h-1.909v1.423h1.909v4.915a2.534 2.534 0 0 0 2.755 2.755 4.307 4.307 0 0 0 1.386-.216zm2.05-4.375a4.747 4.747 0 0 0 8.715 2.539l-1.224-.847a3.187 3.187 0 0 1-5.924-1.386h7.382a4.392 4.392 0 0 0 .018-.468 4.2 4.2 0 0 0-4.285-4.52 4.562 4.562 0 0 0-4.68 4.682zm4.628-3.313a2.694 2.694 0 0 1 2.755 2.358h-5.708a2.943 2.943 0 0 1 2.955-2.358zm6.73 3.313a4.5 4.5 0 0 0 4.412 4.681 3.95 3.95 0 0 0 3.169-1.566v1.386h1.548v-13.5h-1.546v5.888a3.951 3.951 0 0 0-3.169-1.567 4.505 4.505 0 0 0-4.412 4.678zm7.707 0a3.075 3.075 0 1 1-3.061-3.259 3.075 3.075 0 0 1 3.063 3.259zm9.825 0a4.5 4.5 0 0 0 4.411 4.681 3.947 3.947 0 0 0 3.169-1.566v1.386h1.551v-9h-1.549v1.387a3.948 3.948 0 0 0-3.169-1.567 4.5 4.5 0 0 0-4.411 4.679zm7.706 0a3.075 3.075 0 1 1-3.061-3.259 3.074 3.074 0 0 1 3.063 3.259zm8.045 4.5h1.3l4.159-9h-1.728l-3.079 6.806-3.079-6.806h-1.728zm7.037-4.5a4.5 4.5 0 0 0 4.411 4.681 3.949 3.949 0 0 0 3.169-1.566v1.386h1.548v-9h-1.548v1.387a3.949 3.949 0 0 0-3.169-1.567 4.5 4.5 0 0 0-4.409 4.679zm7.706 0a3.075 3.075 0 1 1-3.063-3.259 3.074 3.074 0 0 1 3.065 3.259zm7.108-8.013a1.087 1.087 0 0 0-1.08-1.1 1.118 1.118 0 0 0-1.116 1.1 1.106 1.106 0 0 0 1.116 1.1 1.076 1.076 0 0 0 1.082-1.1zm-1.871 12.514h1.548v-9H340.3v9zm5.382 0h1.548v-13.5h-1.548v13.5zm4.679-4.5a4.5 4.5 0 0 0 4.412 4.681 3.947 3.947 0 0 0 3.168-1.566v1.386h1.549v-9h-1.549v1.387a3.947 3.947 0 0 0-3.168-1.567 4.505 4.505 0 0 0-4.411 4.678zm7.707 0a3.075 3.075 0 1 1-3.061-3.259 3.075 3.075 0 0 1 3.062 3.258zm6.784 3.115a3.947 3.947 0 0 0 3.169 1.566 4.69 4.69 0 0 0 0-9.363 3.948 3.948 0 0 0-3.169 1.567v-5.889H363.3v13.5h1.549v-1.386zm6-3.115a3.067 3.067 0 1 1-3.06-3.259 3.074 3.074 0 0 1 3.056 3.258zm6.569-8.013a1.088 1.088 0 0 0-1.081-1.1 1.118 1.118 0 0 0-1.116 1.1 1.106 1.106 0 0 0 1.116 1.1 1.077 1.077 0 0 0 1.077-1.101zm-1.873 12.514h1.548v-9h-1.548v9zm5.382 0h1.548v-13.5h-1.548v13.5zm7.254-12.514a1.087 1.087 0 0 0-1.08-1.1 1.118 1.118 0 0 0-1.116 1.1 1.106 1.106 0 0 0 1.116 1.1 1.076 1.076 0 0 0 1.076-1.101zm-1.872 12.514h1.548v-9h-1.548v9zm10.261-.126v-1.386a3.422 3.422 0 0 1-1.1.18 1.3 1.3 0 0 1-1.5-1.531v-4.717h2.593v-1.424h-2.593v-2.5h-1.548v2.5h-1.909v1.423h1.909v4.915a2.534 2.534 0 0 0 2.755 2.755 4.307 4.307 0 0 0 1.389-.216zm5.273 3.889l5.906-12.766h-1.732l-3.079 6.824-3.1-6.824h-1.711l3.943 8.535-1.962 4.231h1.728zm9.612-4.969a1.333 1.333 0 1 0-1.332 1.35 1.357 1.357 0 0 0 1.328-1.351zM39.693 156.871h1.328l3.105-11.365h-1.552l-2.385 8.868-3.281-9.06-3.265 9.06-2.385-8.868H29.7l3.105 11.365h1.329l2.785-7.715zm5.788-4a4.219 4.219 0 0 0 7.747 2.257l-1.088-.752a2.833 2.833 0 0 1-5.266-1.232h6.563a3.922 3.922 0 0 0 .016-.417 3.729 3.729 0 0 0-3.81-4.017 4.056 4.056 0 0 0-4.162 4.159zm4.114-2.945a2.4 2.4 0 0 1 2.449 2.1h-5.075a2.617 2.617 0 0 1 2.625-2.102zm11.305 10.29h1.377v-4.577a3.51 3.51 0 0 0 2.817 1.392 4.169 4.169 0 0 0 0-8.323 3.51 3.51 0 0 0-2.817 1.392v-1.232H60.9v11.348zm6.707-7.347a2.726 2.726 0 1 1-2.721-2.9 2.733 2.733 0 0 1 2.725 2.9zm3.565 0a4.005 4.005 0 0 0 3.922 4.162 3.51 3.51 0 0 0 2.817-1.392v1.232h1.377v-8h-1.373v1.229a3.51 3.51 0 0 0-2.817-1.392 4 4 0 0 0-3.922 4.161zm6.851 0a2.734 2.734 0 1 1-2.721-2.9 2.733 2.733 0 0 1 2.725 2.9zm4.653 4h1.377V152.9c0-1.872 1.1-2.753 2.113-2.753a2.013 2.013 0 0 1 .752.128v-1.424a2.853 2.853 0 0 0-.624-.064 2.381 2.381 0 0 0-2.241 1.632v-1.552H82.68v8zm10.994-.112v-1.232a3.043 3.043 0 0 1-.976.16 1.153 1.153 0 0 1-1.328-1.361v-4.194h2.3v-1.264h-2.3v-2.225h-1.373v2.225H88.3v1.264H90v4.37a2.253 2.253 0 0 0 2.449 2.449 3.831 3.831 0 0 0 1.225-.19zm2.558.112h1.377V152.9c0-1.872 1.025-2.929 2.321-2.929a1.922 1.922 0 0 1 1.889 2.177v4.722h1.36v-4.93a2.949 2.949 0 0 0-3.025-3.233 2.831 2.831 0 0 0-2.545 1.392v-1.232h-1.373v8zm9.6-4a4.219 4.219 0 0 0 7.747 2.257l-1.088-.752a2.834 2.834 0 0 1-5.267-1.232h6.563a3.922 3.922 0 0 0 .016-.417 3.729 3.729 0 0 0-3.809-4.017 4.056 4.056 0 0 0-4.158 4.161zm4.114-2.945a2.4 2.4 0 0 1 2.449 2.1h-5.071a2.618 2.618 0 0 1 2.626-2.1zm6.606 6.947h1.377V152.9c0-1.872 1.1-2.753 2.112-2.753a2.013 2.013 0 0 1 .753.128v-1.424a2.854 2.854 0 0 0-.625-.064 2.38 2.38 0 0 0-2.24 1.632v-1.552h-1.377v8zm17.459 0h1.216l2.721-8h-1.456l-1.937 5.842-2-5.842H131.5l-2 5.842-1.937-5.842h-1.44l2.721 8h1.216l1.985-5.762zm7.885-11.124a.966.966 0 0 0-.96-.977.994.994 0 0 0-.992.977.983.983 0 0 0 .992.976.956.956 0 0 0 .968-.976zm-1.664 11.124h1.376v-8h-1.376v8zm9.121-.112v-1.232a3.041 3.041 0 0 1-.976.16 1.153 1.153 0 0 1-1.328-1.361v-4.194h2.3v-1.264h-2.3v-2.225h-1.377v2.225h-1.7v1.264h1.7v4.37a2.252 2.252 0 0 0 2.449 2.449 3.828 3.828 0 0 0 1.236-.192zm2.559.112h1.376V152.9c0-1.872 1.025-2.929 2.321-2.929a1.921 1.921 0 0 1 1.889 2.177v4.722h1.36v-4.93a2.949 2.949 0 0 0-3.025-3.233 2.831 2.831 0 0 0-2.545 1.392v-5.234h-1.376v12zm18.993-.112v-1.232a3.041 3.041 0 0 1-.976.16 1.153 1.153 0 0 1-1.329-1.361v-4.194h2.305v-1.264H168.6v-2.225h-1.376v2.225h-1.7v1.264h1.7v4.37a2.252 2.252 0 0 0 2.449 2.449 3.828 3.828 0 0 0 1.232-.192zm2.558.112h1.377V152.9c0-1.872 1.024-2.929 2.321-2.929a1.922 1.922 0 0 1 1.889 2.177v4.722h1.36v-4.93a2.949 2.949 0 0 0-3.025-3.233 2.829 2.829 0 0 0-2.545 1.392v-5.234h-1.377v12zm9.6-4a4.219 4.219 0 0 0 7.747 2.257l-1.088-.752a2.834 2.834 0 0 1-5.267-1.232h6.563a3.922 3.922 0 0 0 .016-.417 3.729 3.729 0 0 0-3.809-4.017 4.056 4.056 0 0 0-4.158 4.159zm4.114-2.945a2.394 2.394 0 0 1 2.448 2.1h-5.074a2.618 2.618 0 0 1 2.63-2.102zm12.686 5.715a3.512 3.512 0 0 0 2.818 1.392 4.169 4.169 0 0 0 0-8.323 3.512 3.512 0 0 0-2.818 1.392v-5.234h-1.376v12h1.376v-1.232zm5.33-2.77a2.726 2.726 0 1 1-2.721-2.9 2.733 2.733 0 0 1 2.725 2.898zm3.549 0a4.22 4.22 0 0 0 7.748 2.257l-1.089-.752a2.833 2.833 0 0 1-5.266-1.232h6.569a3.922 3.922 0 0 0 .016-.417 3.729 3.729 0 0 0-3.81-4.017 4.056 4.056 0 0 0-4.164 4.159zm4.114-2.945a2.4 2.4 0 0 1 2.449 2.1h-5.074a2.617 2.617 0 0 1 2.629-2.102zm11.793 4.722c0-1.2-.753-1.969-2.113-2.417l-.865-.288c-.944-.3-1.232-.608-1.232-1.12a1.132 1.132 0 0 1 1.344-.929 2.16 2.16 0 0 1 1.7.833l.9-.865a3.106 3.106 0 0 0-2.562-1.152c-1.584 0-2.7.88-2.7 2.177a2.417 2.417 0 0 0 1.985 2.321l.784.256c1.041.336 1.425.72 1.425 1.28a1.218 1.218 0 0 1-1.408 1.089 2.148 2.148 0 0 1-2.049-1.265l-1.121.608a3.178 3.178 0 0 0 3.137 1.857c1.61-.002 2.779-.818 2.779-2.387zm7.007 2.113v-1.232a3.041 3.041 0 0 1-.976.16 1.153 1.153 0 0 1-1.329-1.361v-4.194h2.305v-1.264h-2.305v-2.225h-1.376v2.225h-1.7v1.264h1.7v4.37a2.252 2.252 0 0 0 2.449 2.449 3.828 3.828 0 0 0 1.236-.194zm7.262.112h1.386V152.9c0-1.808.912-2.929 2.209-2.929 1.04 0 1.568.9 1.568 2.193v4.706h1.377v-3.97c0-1.808.9-2.929 2.193-2.929 1.04 0 1.584.9 1.584 2.193v4.706h1.369v-4.914c0-1.953-1.056-3.249-2.8-3.249a2.769 2.769 0 0 0-2.625 1.712 2.516 2.516 0 0 0-2.465-1.712 2.689 2.689 0 0 0-2.41 1.393v-1.232h-1.377v8zm16.625-11.124a.967.967 0 0 0-.961-.977.994.994 0 0 0-.992.977.983.983 0 0 0 .992.976.957.957 0 0 0 .965-.978zm-1.665 11.124h1.377v-8h-1.377v8zm4.784 0h1.377v-12h-1.377v12zm4.784 0h1.376v-12h-1.376v12zm9.97-2.225c0-1.2-.752-1.969-2.113-2.417l-.864-.288c-.945-.3-1.233-.608-1.233-1.12a1.133 1.133 0 0 1 1.345-.929 2.159 2.159 0 0 1 1.7.833l.9-.865a3.106 3.106 0 0 0-2.561-1.152c-1.585 0-2.705.88-2.705 2.177a2.416 2.416 0 0 0 1.984 2.321l.785.256c1.04.336 1.424.72 1.424 1.28a1.218 1.218 0 0 1-1.408 1.089 2.148 2.148 0 0 1-2.049-1.265l-1.121.608a3.18 3.18 0 0 0 3.138 1.857c1.613-.002 2.782-.818 2.782-2.387zm11.535 2.113v-1.232a3.041 3.041 0 0 1-.976.16 1.153 1.153 0 0 1-1.329-1.361v-4.194h2.305v-1.264h-2.305v-2.225h-1.372v2.225h-1.7v1.264h1.7v4.37a2.252 2.252 0 0 0 2.449 2.449 3.828 3.828 0 0 0 1.232-.194zm10.178-3.89a4.186 4.186 0 1 0-4.178 4.162 4.107 4.107 0 0 0 4.182-4.164zm-6.963 0a2.779 2.779 0 1 1 2.785 2.882 2.751 2.751 0 0 1-2.781-2.884zm19.617 1.777c0-1.2-.752-1.969-2.113-2.417l-.864-.288c-.944-.3-1.232-.608-1.232-1.12a1.132 1.132 0 0 1 1.344-.929 2.161 2.161 0 0 1 1.7.833l.9-.865a3.1 3.1 0 0 0-2.561-1.152c-1.584 0-2.7.88-2.7 2.177a2.416 2.416 0 0 0 1.985 2.321l.784.256c1.041.336 1.425.72 1.425 1.28a1.219 1.219 0 0 1-1.409 1.089 2.149 2.149 0 0 1-2.049-1.265l-1.12.608a3.178 3.178 0 0 0 3.131 1.855c1.615 0 2.783-.816 2.783-2.385zm10.5-1.777a4.186 4.186 0 1 0-4.177 4.162 4.107 4.107 0 0 0 4.178-4.164zm-6.963 0a2.779 2.779 0 1 1 2.786 2.882 2.752 2.752 0 0 1-2.785-2.884zm9.616.913c0 1.985 1.184 3.249 2.945 3.249a2.754 2.754 0 0 0 2.465-1.392v1.232h1.377v-8h-1.377v3.969c0 1.841-.976 2.93-2.225 2.93-1.1 0-1.809-.849-1.809-2.193v-4.706h-1.376v4.914zm10.176 3.089h1.376V152.9c0-1.872 1.1-2.753 2.113-2.753a2.011 2.011 0 0 1 .752.128v-1.424a2.851 2.851 0 0 0-.624-.064 2.381 2.381 0 0 0-2.241 1.632v-1.552h-1.376v8zm13.635-1.985l-1.2-.672a2.713 2.713 0 0 1-2.5 1.537 2.883 2.883 0 0 1 0-5.763 2.713 2.713 0 0 1 2.5 1.537l1.2-.672a4.144 4.144 0 0 0-3.7-2.145 4.162 4.162 0 1 0 0 8.323 4.144 4.144 0 0 0 3.701-2.147zm1.948-2.017a4.22 4.22 0 0 0 7.748 2.257l-1.089-.752a2.833 2.833 0 0 1-5.266-1.232h6.563a3.922 3.922 0 0 0 .016-.417 3.729 3.729 0 0 0-3.81-4.017 4.056 4.056 0 0 0-4.161 4.159zm4.114-2.945a2.4 2.4 0 0 1 2.449 2.1h-5.074a2.617 2.617 0 0 1 2.626-2.102zm15.376 6.835v-1.232a3.041 3.041 0 0 1-.976.16 1.153 1.153 0 0 1-1.329-1.361v-4.194h2.305v-1.264h-2.305v-2.225H362.5v2.225h-1.7v1.264h1.7v4.37a2.252 2.252 0 0 0 2.449 2.449 3.828 3.828 0 0 0 1.233-.194zm2.558.112h1.377V152.9c0-1.872 1.024-2.929 2.321-2.929a1.922 1.922 0 0 1 1.889 2.177v4.722h1.36v-4.93a2.949 2.949 0 0 0-3.025-3.233 2.829 2.829 0 0 0-2.545 1.392v-5.234h-1.376v12zm9.6-4a4.219 4.219 0 0 0 7.747 2.257l-1.086-.756a2.833 2.833 0 0 1-5.266-1.232h6.566a3.922 3.922 0 0 0 .016-.417 3.729 3.729 0 0 0-3.809-4.017 4.056 4.056 0 0 0-4.167 4.161zm4.114-2.945a2.4 2.4 0 0 1 2.449 2.1h-5.074a2.616 2.616 0 0 1 2.626-2.104zm11.774 6.947h1.377v-6.739h2.321v-1.264h-2.321V147.4a1.152 1.152 0 0 1 1.329-1.36 3.222 3.222 0 0 1 .992.16v-1.217a3.638 3.638 0 0 0-1.249-.208 2.286 2.286 0 0 0-2.449 2.481v1.617h-1.7v1.264h1.7v6.739zm6.867-11.124a.966.966 0 0 0-.96-.977 1 1 0 0 0-.993.977.984.984 0 0 0 .993.976.956.956 0 0 0 .966-.98zm-1.665 11.124h1.377v-8h-1.376v8zm4.766 0h1.377V152.9c0-1.872 1.024-2.929 2.32-2.929a1.921 1.921 0 0 1 1.889 2.177v4.722h1.361v-4.93a2.949 2.949 0 0 0-3.025-3.233 2.829 2.829 0 0 0-2.545 1.392v-1.232H404.2v8zm9.6-4a4.219 4.219 0 0 0 7.747 2.257l-1.089-.752a2.833 2.833 0 0 1-5.266-1.232h6.563a3.922 3.922 0 0 0 .016-.417 3.729 3.729 0 0 0-3.81-4.017 4.055 4.055 0 0 0-4.156 4.155zm4.113-2.945a2.4 2.4 0 0 1 2.449 2.1h-5.074a2.617 2.617 0 0 1 2.626-2.106zm11.793 4.722c0-1.2-.753-1.969-2.113-2.417l-.864-.288c-.945-.3-1.233-.608-1.233-1.12a1.133 1.133 0 0 1 1.345-.929 2.159 2.159 0 0 1 1.7.833l.9-.865a3.106 3.106 0 0 0-2.561-1.152c-1.585 0-2.705.88-2.705 2.177a2.416 2.416 0 0 0 1.984 2.321l.785.256c1.04.336 1.424.72 1.424 1.28a1.218 1.218 0 0 1-1.408 1.089 2.148 2.148 0 0 1-2.049-1.265l-1.121.608a3.18 3.18 0 0 0 3.138 1.857c1.61-.006 2.777-.822 2.777-2.391zm7.007 2.113v-1.232a3.041 3.041 0 0 1-.976.16 1.153 1.153 0 0 1-1.329-1.361v-4.194h2.305v-1.264H434.4v-2.225h-1.376v2.225h-1.7v1.264h1.7v4.37a2.252 2.252 0 0 0 2.449 2.449 3.828 3.828 0 0 0 1.236-.198zm7.727.112h1.376v-6.739h2.321v-1.264h-2.321V147.4a1.153 1.153 0 0 1 1.329-1.36 3.222 3.222 0 0 1 .992.16v-1.217a3.636 3.636 0 0 0-1.248-.208 2.286 2.286 0 0 0-2.449 2.481v1.617h-1.7v1.264h1.7v6.739zm5.167-4a4.005 4.005 0 0 0 3.922 4.162 3.51 3.51 0 0 0 2.817-1.392v1.232h1.377v-8h-1.377v1.221a3.51 3.51 0 0 0-2.817-1.392 4.005 4.005 0 0 0-3.924 4.161zm6.851 0a2.734 2.734 0 1 1-2.721-2.9 2.733 2.733 0 0 1 2.722 2.892zm6.03 2.77a3.51 3.51 0 0 0 2.817 1.392 4.169 4.169 0 0 0 0-8.323 3.51 3.51 0 0 0-2.817 1.392v-5.234h-1.377v12h1.377v-1.232zm5.33-2.77a2.726 2.726 0 1 1-2.721-2.9 2.733 2.733 0 0 1 2.722 2.892zm4.173 4h1.377V152.9c0-1.872 1.1-2.753 2.113-2.753a2.011 2.011 0 0 1 .752.128v-1.424a2.851 2.851 0 0 0-.624-.064 2.38 2.38 0 0 0-2.241 1.632v-1.552h-1.377v8zm8.321-11.124a.966.966 0 0 0-.96-.977.994.994 0 0 0-.993.977.984.984 0 0 0 .993.976.956.956 0 0 0 .961-.982zm-1.665 11.124h1.377v-8h-1.377v8zm12.051-1.985l-1.2-.672a2.715 2.715 0 0 1-2.5 1.537 2.883 2.883 0 0 1 0-5.763 2.715 2.715 0 0 1 2.5 1.537l1.2-.672a4.143 4.143 0 0 0-3.7-2.145 4.162 4.162 0 1 0 0 8.323 4.143 4.143 0 0 0 3.701-2.151zm7.759-.24c0-1.2-.752-1.969-2.113-2.417l-.864-.288c-.945-.3-1.233-.608-1.233-1.12a1.133 1.133 0 0 1 1.345-.929 2.163 2.163 0 0 1 1.7.833l.9-.865a3.1 3.1 0 0 0-2.561-1.152c-1.585 0-2.7.88-2.7 2.177a2.416 2.416 0 0 0 1.985 2.321l.784.256c1.04.336 1.424.72 1.424 1.28a1.218 1.218 0 0 1-1.408 1.089 2.149 2.149 0 0 1-2.049-1.265l-1.12.608a3.177 3.177 0 0 0 3.137 1.857c1.606-.006 2.774-.822 2.774-2.391zm13.969 2.225h1.216l2.721-8H514.9l-1.937 5.842-2-5.842h-1.057l-2 5.842-1.937-5.842h-1.439l2.721 8h1.217l1.985-5.762zm7.885-11.124a.966.966 0 0 0-.96-.977 1 1 0 0 0-.993.977.984.984 0 0 0 .993.976.956.956 0 0 0 .961-.982zm-1.664 11.124h1.376v-8h-1.376v8zm9.121-.112v-1.232a3.041 3.041 0 0 1-.976.16 1.153 1.153 0 0 1-1.329-1.361v-4.194h2.305v-1.264h-2.305v-2.225h-1.376v2.225h-1.7v1.264h1.7v4.37a2.252 2.252 0 0 0 2.449 2.449 3.828 3.828 0 0 0 1.233-.198zm2.558.112h1.379V152.9c0-1.872 1.024-2.929 2.321-2.929a1.922 1.922 0 0 1 1.889 2.177v4.722h1.36v-4.93a2.949 2.949 0 0 0-3.025-3.233 2.829 2.829 0 0 0-2.545 1.393v-5.234h-1.377v12zm18.994-.112v-1.232a3.043 3.043 0 0 1-.977.16 1.153 1.153 0 0 1-1.328-1.361v-4.194h2.305v-1.264h-2.305v-2.225h-1.377v2.225h-1.7v1.264h1.7v4.37a2.253 2.253 0 0 0 2.449 2.449 3.835 3.835 0 0 0 1.234-.198zm2.558.112h1.377V152.9c0-1.872 1.024-2.929 2.32-2.929a1.921 1.921 0 0 1 1.889 2.177v4.722h1.361v-4.93a2.949 2.949 0 0 0-3.025-3.233 2.829 2.829 0 0 0-2.545 1.392v-5.234h-1.377v12zm9.6-4a4.219 4.219 0 0 0 7.747 2.257l-1.089-.752a2.833 2.833 0 0 1-5.266-1.232h6.563a3.922 3.922 0 0 0 .016-.417 3.729 3.729 0 0 0-3.81-4.017 4.055 4.055 0 0 0-4.16 4.153zm4.113-2.945a2.4 2.4 0 0 1 2.449 2.1h-5.074a2.617 2.617 0 0 1 2.626-2.108zm11.31 6.947h1.377v-12H576.9v12zm4.16-4a4.005 4.005 0 0 0 3.922 4.162 3.51 3.51 0 0 0 2.817-1.392v1.232h1.376v-8H587.8v1.219a3.51 3.51 0 0 0-2.817-1.392 4.005 4.005 0 0 0-3.926 4.161zm6.851 0a2.734 2.734 0 1 1-2.721-2.9 2.733 2.733 0 0 1 2.722 2.89zm8.991 3.89v-1.232a3.041 3.041 0 0 1-.976.16 1.153 1.153 0 0 1-1.329-1.361v-4.194h2.3v-1.264h-2.3v-2.225h-1.377v2.225h-1.7v1.264h1.7v4.37a2.253 2.253 0 0 0 2.449 2.449 3.83 3.83 0 0 0 1.235-.202zm1.822-3.89a4.219 4.219 0 0 0 7.747 2.257l-1.088-.752a2.833 2.833 0 0 1-5.266-1.232h6.562a3.922 3.922 0 0 0 .016-.417 3.728 3.728 0 0 0-3.809-4.017 4.056 4.056 0 0 0-4.161 4.151zm4.114-2.945a2.4 2.4 0 0 1 2.449 2.1h-5.073a2.616 2.616 0 0 1 2.625-2.11zm11.792 4.722c0-1.2-.752-1.969-2.113-2.417l-.864-.288c-.944-.3-1.232-.608-1.232-1.12a1.132 1.132 0 0 1 1.344-.929 2.16 2.16 0 0 1 1.7.833l.9-.865a3.1 3.1 0 0 0-2.561-1.152c-1.584 0-2.7.88-2.7 2.177a2.416 2.416 0 0 0 1.985 2.321l.784.256c1.041.336 1.425.72 1.425 1.28a1.218 1.218 0 0 1-1.409 1.089 2.15 2.15 0 0 1-2.049-1.265l-1.12.608a3.178 3.178 0 0 0 3.137 1.857c1.606-.01 2.774-.826 2.774-2.395zm7.008 2.113v-1.232a3.041 3.041 0 0 1-.976.16 1.153 1.153 0 0 1-1.329-1.361v-4.194h2.3v-1.264h-2.3v-2.225h-1.377v2.225h-1.7v1.264h1.7v4.37a2.253 2.253 0 0 0 2.449 2.449 3.83 3.83 0 0 0 1.234-.202zM32.3 165.747a.967.967 0 0 0-.96-.977.994.994 0 0 0-.992.977.984.984 0 0 0 .992.976.956.956 0 0 0 .96-.976zm-1.665 11.124h1.375v-8h-1.377v8zm4.784 0h1.377V172.9c0-1.872 1.024-2.929 2.321-2.929A1.921 1.921 0 0 1 41 172.149v4.722h1.361v-4.93a2.949 2.949 0 0 0-3.025-3.233 2.83 2.83 0 0 0-2.545 1.392v-1.232h-1.374v8zm10.224 0h1.377V172.9c0-1.872 1.024-2.929 2.321-2.929a1.921 1.921 0 0 1 1.889 2.177v4.722h1.361v-4.93a2.949 2.949 0 0 0-3.025-3.233 2.83 2.83 0 0 0-2.545 1.392v-1.232h-1.38v8zm17.955-4a4.186 4.186 0 1 0-4.178 4.162 4.107 4.107 0 0 0 4.18-4.164zm-6.963 0a2.779 2.779 0 1 1 2.785 2.882 2.751 2.751 0 0 1-2.787-2.884zm12.049 4h1.153l3.7-8H72l-2.737 6.05-2.737-6.05h-1.542zm6.255-4a4 4 0 0 0 3.921 4.162 3.51 3.51 0 0 0 2.817-1.392v1.232h1.377v-8h-1.379v1.227a3.51 3.51 0 0 0-2.817-1.392 4 4 0 0 0-3.922 4.161zm6.851 0a2.734 2.734 0 1 1-2.721-2.9 2.733 2.733 0 0 1 2.718 2.898zm8.991 3.89v-1.232a3.044 3.044 0 0 1-.976.16 1.153 1.153 0 0 1-1.328-1.361v-4.194h2.3v-1.264h-2.3v-2.225H87.1v2.225h-1.7v1.264h1.7v4.37a2.253 2.253 0 0 0 2.449 2.449 3.831 3.831 0 0 0 1.229-.194zM95 165.747a.967.967 0 0 0-.96-.977.994.994 0 0 0-.992.977.984.984 0 0 0 .992.976.957.957 0 0 0 .96-.976zm-1.665 11.124h1.377v-8h-1.376v8zm12.515-4a4.186 4.186 0 1 0-4.177 4.162 4.107 4.107 0 0 0 4.178-4.164zm-6.963 0a2.779 2.779 0 1 1 2.786 2.882 2.751 2.751 0 0 1-2.784-2.884zm9.728 4h1.377V172.9c0-1.872 1.024-2.929 2.32-2.929a1.921 1.921 0 0 1 1.889 2.177v4.722h1.361v-4.93a2.949 2.949 0 0 0-3.025-3.233 2.829 2.829 0 0 0-2.545 1.392v-1.232h-1.377v8zm12.129-1.072a1.185 1.185 0 1 0-1.185 1.2 1.207 1.207 0 0 0 1.186-1.199zm9.616 1.072h1.456v-9.956h3.538v-1.409h-8.532v1.409h3.538v9.956zm7.247 0h1.376V172.9c0-1.872 1.025-2.929 2.321-2.929a1.921 1.921 0 0 1 1.889 2.177v4.722h1.361v-4.93a2.95 2.95 0 0 0-3.026-3.233 2.832 2.832 0 0 0-2.545 1.392v-5.234h-1.376v12zm11.893-11.124a.966.966 0 0 0-.96-.977 1 1 0 0 0-.993.977.984.984 0 0 0 .993.976.956.956 0 0 0 .96-.976zm-1.664 11.124h1.376v-8h-1.376v8zm9.97-2.225c0-1.2-.753-1.969-2.113-2.417l-.865-.288c-.944-.3-1.232-.608-1.232-1.12a1.132 1.132 0 0 1 1.344-.929 2.16 2.16 0 0 1 1.7.833l.9-.865a3.1 3.1 0 0 0-2.561-1.152c-1.584 0-2.7.88-2.7 2.177a2.417 2.417 0 0 0 1.985 2.321l.784.256c1.041.336 1.425.72 1.425 1.28a1.218 1.218 0 0 1-1.409 1.089 2.148 2.148 0 0 1-2.064-1.265l-1.121.608a3.178 3.178 0 0 0 3.137 1.857c1.617 0 2.784-.816 2.784-2.385zm7.677 2.225h1.489v-11.365h-1.489v11.365zm9.41-.112v-1.232a3.043 3.043 0 0 1-.977.16 1.153 1.153 0 0 1-1.328-1.361v-4.194h2.305v-1.264h-2.305v-2.225h-1.377v2.225h-1.7v1.264h1.7v4.37a2.253 2.253 0 0 0 2.449 2.449 3.83 3.83 0 0 0 1.229-.192zm1.822-3.89a4.005 4.005 0 0 0 3.922 4.162 3.51 3.51 0 0 0 2.817-1.392v1.232h1.376v-8h-1.38v1.229a3.51 3.51 0 0 0-2.817-1.392 4.005 4.005 0 0 0-3.922 4.161zm6.851 0a2.734 2.734 0 1 1-2.721-2.9 2.733 2.733 0 0 1 2.717 2.9zm4.653 4h1.377v-12h-1.377v12zm6.449-11.124a.967.967 0 0 0-.961-.977.994.994 0 0 0-.992.977.983.983 0 0 0 .992.976.957.957 0 0 0 .957-.974zM193 176.871h1.377v-8H193v8zm4.16-4a4 4 0 0 0 3.921 4.162 3.509 3.509 0 0 0 2.817-1.392v1.232h1.377v-8H203.9v1.227a3.509 3.509 0 0 0-2.817-1.392 4 4 0 0 0-3.924 4.161zm6.85 0a2.734 2.734 0 1 1-2.721-2.9 2.733 2.733 0 0 1 2.72 2.898zm4.654 4h1.376V172.9c0-1.872 1.025-2.929 2.321-2.929a1.921 1.921 0 0 1 1.889 2.177v4.722h1.36v-4.93a2.949 2.949 0 0 0-3.025-3.233 2.831 2.831 0 0 0-2.545 1.392v-1.232h-1.376v8zm20.722-3.329l4.1-5.506v8.835h1.473v-11.365h-1.349l-4.225 5.667-4.226-5.667H223.8v11.365h1.489v-8.835zm16.768-.673a4.186 4.186 0 1 0-4.177 4.162 4.107 4.107 0 0 0 4.176-4.162zm-6.962 0a2.779 2.779 0 1 1 2.785 2.882 2.751 2.751 0 0 1-2.786-2.882zm13.921 3.89v-1.232a3.041 3.041 0 0 1-.976.16 1.153 1.153 0 0 1-1.329-1.361v-4.194h2.305v-1.264h-2.305v-2.225h-1.376v2.225h-1.7v1.264h1.7v4.37a2.252 2.252 0 0 0 2.449 2.449 3.828 3.828 0 0 0 1.231-.192zm4.223-11.012a.966.966 0 0 0-.96-.977.994.994 0 0 0-.993.977.984.984 0 0 0 .993.976.956.956 0 0 0 .959-.976zm-1.665 11.124h1.377v-8h-1.378v8zm12.515-4a4.186 4.186 0 1 0-4.177 4.162 4.107 4.107 0 0 0 4.176-4.164zm-6.963 0a2.779 2.779 0 1 1 2.786 2.882 2.752 2.752 0 0 1-2.787-2.884zm9.728 4h1.376V172.9c0-1.872 1.025-2.929 2.321-2.929a1.921 1.921 0 0 1 1.889 2.177v4.722h1.363v-4.93a2.95 2.95 0 0 0-3.026-3.233 2.832 2.832 0 0 0-2.545 1.392v-1.232h-1.379v8zm9.968-3.793H285V171.7h-4.081v1.377zm6.191 1.936a4.389 4.389 0 0 0 3.986 2.049c2.113 0 3.618-1.216 3.618-3.153 0-1.681-.961-2.641-2.642-3.281l-1.372-.529c-1.153-.432-1.713-.864-1.713-1.824a1.81 1.81 0 0 1 2.049-1.569 2.813 2.813 0 0 1 2.257 1.12l1.088-.96a4.145 4.145 0 0 0-3.313-1.553c-2.033 0-3.553 1.169-3.553 3.026 0 1.552.8 2.481 2.577 3.137l1.5.576a2.066 2.066 0 0 1 1.633 1.921 1.846 1.846 0 0 1-2.1 1.7 3.177 3.177 0 0 1-2.817-1.553zm14.466 1.745v-1.232a3.041 3.041 0 0 1-.976.16 1.153 1.153 0 0 1-1.329-1.361v-4.194h2.305v-1.264h-2.306v-2.225h-1.376v2.225h-1.7v1.264h1.7v4.37a2.252 2.252 0 0 0 2.449 2.449 3.828 3.828 0 0 0 1.232-.192zm2.559.112h1.376V172.9c0-1.872 1.105-2.753 2.113-2.753a2.011 2.011 0 0 1 .752.128v-1.424a2.851 2.851 0 0 0-.624-.064 2.381 2.381 0 0 0-2.241 1.632v-1.552h-1.376v8zm5.743-4a4.22 4.22 0 0 0 7.748 2.257l-1.089-.752a2.833 2.833 0 0 1-5.266-1.232h6.563a3.922 3.922 0 0 0 .016-.417 3.729 3.729 0 0 0-3.81-4.017 4.056 4.056 0 0 0-4.163 4.159zm4.114-2.945a2.4 2.4 0 0 1 2.449 2.1h-5.074a2.617 2.617 0 0 1 2.624-2.102zm10.832 6.835v-1.232a3.041 3.041 0 0 1-.976.16 1.153 1.153 0 0 1-1.328-1.361v-4.194h2.3v-1.264h-2.3v-2.225h-1.377v2.225h-1.7v1.264h1.7v4.37a2.252 2.252 0 0 0 2.449 2.449 3.828 3.828 0 0 0 1.231-.194zm9.714-1.873l-1.2-.672a2.713 2.713 0 0 1-2.5 1.537 2.883 2.883 0 0 1 0-5.763 2.713 2.713 0 0 1 2.5 1.537l1.2-.672a4.144 4.144 0 0 0-3.7-2.145 4.162 4.162 0 1 0 0 8.323 4.144 4.144 0 0 0 3.699-2.147zm2.573 1.985h1.376V172.9c0-1.872 1.025-2.929 2.321-2.929a1.921 1.921 0 0 1 1.889 2.177v4.722h1.36v-4.93a2.949 2.949 0 0 0-3.025-3.233 2.831 2.831 0 0 0-2.545 1.392v-5.234h-1.377v12zm23.619 0h1.329l3.105-11.365h-1.554l-2.385 8.868-3.281-9.06-3.265 9.06-2.385-8.868h-1.553l3.105 11.365h1.329l2.785-7.715zm14.143-4a4.186 4.186 0 1 0-4.177 4.162 4.107 4.107 0 0 0 4.176-4.166zm-6.962 0a2.779 2.779 0 1 1 2.785 2.882 2.751 2.751 0 0 1-2.786-2.886zm17.458 0a4.186 4.186 0 1 0-4.177 4.162 4.107 4.107 0 0 0 4.176-4.166zm-6.963 0a2.779 2.779 0 1 1 2.786 2.882 2.752 2.752 0 0 1-2.787-2.886zm9.728 4h1.376v-12h-1.376v12zm8.767-1.857a4.389 4.389 0 0 0 3.986 2.049c2.113 0 3.617-1.216 3.617-3.153 0-1.681-.96-2.641-2.641-3.281l-1.376-.529c-1.153-.432-1.713-.864-1.713-1.824a1.81 1.81 0 0 1 2.049-1.569 2.813 2.813 0 0 1 2.257 1.12l1.088-.96a4.146 4.146 0 0 0-3.313-1.553c-2.033 0-3.554 1.169-3.554 3.026 0 1.552.8 2.481 2.577 3.137l1.5.576a2.066 2.066 0 0 1 1.633 1.921 1.846 1.846 0 0 1-2.1 1.7 3.175 3.175 0 0 1-2.817-1.553zm10.24-1.232c0 1.985 1.185 3.249 2.946 3.249a2.752 2.752 0 0 0 2.464-1.392v1.232h1.377v-8h-1.378v3.969c0 1.841-.976 2.93-2.224 2.93-1.105 0-1.809-.849-1.809-2.193v-4.706h-1.377v4.914zm11.841-8.035a.966.966 0 0 0-.96-.977.994.994 0 0 0-.993.977.984.984 0 0 0 .993.976.956.956 0 0 0 .959-.978zm-1.665 11.124h1.377v-8h-1.377v8zm9.122-.112v-1.232a3.041 3.041 0 0 1-.976.16 1.153 1.153 0 0 1-1.329-1.361v-4.194h2.305v-1.264h-2.305v-2.225h-1.377v2.225h-1.7v1.264h1.7v4.37a2.253 2.253 0 0 0 2.449 2.449 3.83 3.83 0 0 0 1.232-.194zm7.726.112h1.377v-6.739h2.321v-1.264h-2.321v-1.47a1.152 1.152 0 0 1 1.328-1.36 3.223 3.223 0 0 1 .993.16v-1.217a3.638 3.638 0 0 0-1.249-.208 2.286 2.286 0 0 0-2.449 2.481v1.617h-1.7v1.264h1.7v6.739zm5.168-4a4.219 4.219 0 0 0 7.747 2.257l-1.088-.752a2.834 2.834 0 0 1-5.267-1.232h6.563a3.922 3.922 0 0 0 .016-.417 3.729 3.729 0 0 0-3.809-4.017 4.056 4.056 0 0 0-4.163 4.157zm4.114-2.945a2.4 2.4 0 0 1 2.449 2.1h-5.074a2.616 2.616 0 0 1 2.624-2.104zm5.982 2.945a4.005 4.005 0 0 0 3.921 4.162 3.512 3.512 0 0 0 2.818-1.392v1.232h1.376v-8h-1.376v1.225a3.512 3.512 0 0 0-2.818-1.392 4 4 0 0 0-3.922 4.161zm6.851 0a2.734 2.734 0 1 1-2.721-2.9 2.733 2.733 0 0 1 2.72 2.896zm8.991 3.89v-1.232a3.048 3.048 0 0 1-.977.16 1.153 1.153 0 0 1-1.328-1.361v-4.194h2.305v-1.264h-2.305v-2.225h-1.377v2.225h-1.7v1.264h1.7v4.37a2.253 2.253 0 0 0 2.449 2.449 3.835 3.835 0 0 0 1.232-.196zm2.446-2.977c0 1.985 1.184 3.249 2.945 3.249a2.754 2.754 0 0 0 2.465-1.392v1.232h1.373v-8h-1.377v3.969c0 1.841-.976 2.93-2.225 2.93-1.1 0-1.809-.849-1.809-2.193v-4.706h-1.376v4.914zm10.176 3.089h1.376V172.9c0-1.872 1.105-2.753 2.113-2.753a2.02 2.02 0 0 1 .753.128v-1.424a2.866 2.866 0 0 0-.625-.064 2.381 2.381 0 0 0-2.241 1.632v-1.552h-1.376v8zm5.744-4a4.219 4.219 0 0 0 7.747 2.257l-1.089-.752a2.833 2.833 0 0 1-5.266-1.232h6.563a3.922 3.922 0 0 0 .016-.417 3.729 3.729 0 0 0-3.81-4.017 4.055 4.055 0 0 0-4.162 4.155zm4.113-2.945a2.4 2.4 0 0 1 2.449 2.1h-5.074a2.617 2.617 0 0 1 2.624-2.106zm11.793 4.722c0-1.2-.752-1.969-2.113-2.417l-.864-.288c-.945-.3-1.233-.608-1.233-1.12a1.133 1.133 0 0 1 1.345-.929 2.159 2.159 0 0 1 1.7.833l.9-.865a3.1 3.1 0 0 0-2.561-1.152c-1.585 0-2.7.88-2.7 2.177a2.416 2.416 0 0 0 1.984 2.321l.785.256c1.04.336 1.424.72 1.424 1.28a1.218 1.218 0 0 1-1.408 1.089 2.148 2.148 0 0 1-2.049-1.265l-1.12.608a3.177 3.177 0 0 0 3.137 1.857c1.603-.006 2.772-.822 2.772-2.391zm6.845-1.777a4.005 4.005 0 0 0 3.922 4.162 3.51 3.51 0 0 0 2.817-1.392v1.232h1.373v-8h-1.377v1.223a3.51 3.51 0 0 0-2.817-1.392 4.005 4.005 0 0 0-3.919 4.161zm6.851 0a2.734 2.734 0 1 1-2.721-2.9 2.733 2.733 0 0 1 2.72 2.894zm9.245.913c0 1.985 1.185 3.249 2.945 3.249a2.753 2.753 0 0 0 2.465-1.392v1.232h1.377v-8h-1.377v3.969c0 1.841-.976 2.93-2.225 2.93-1.1 0-1.808-.849-1.808-2.193v-4.706h-1.377v4.914zm10.176 3.089h1.377V172.9c0-1.872 1.024-2.929 2.321-2.929a1.921 1.921 0 0 1 1.888 2.177v4.722h1.361v-4.93a2.949 2.949 0 0 0-3.025-3.233 2.829 2.829 0 0 0-2.545 1.392v-1.232h-1.377v8zm11.889-11.124a.967.967 0 0 0-.961-.977.994.994 0 0 0-.992.977.983.983 0 0 0 .992.976.957.957 0 0 0 .96-.982zm-1.665 11.124h1.376v-8h-1.376v8zm10.9 3.345h1.377v-11.354h-1.377v1.232a3.509 3.509 0 0 0-2.817-1.392 4.169 4.169 0 0 0 0 8.323 3.509 3.509 0 0 0 2.817-1.392v4.577zm.112-7.347a2.734 2.734 0 1 1-2.721-2.9 2.733 2.733 0 0 1 2.718 2.894zm4.542.913c0 1.985 1.184 3.249 2.945 3.249a2.754 2.754 0 0 0 2.465-1.392v1.232h1.376v-8h-1.376v3.969c0 1.841-.977 2.93-2.225 2.93-1.105 0-1.809-.849-1.809-2.193v-4.706h-1.376v4.914zm9.551-.913a4.219 4.219 0 0 0 7.747 2.257l-1.088-.752a2.833 2.833 0 0 1-5.266-1.232h6.562a3.922 3.922 0 0 0 .016-.417 3.728 3.728 0 0 0-3.809-4.017 4.056 4.056 0 0 0-4.165 4.155zm4.114-2.945a2.4 2.4 0 0 1 2.449 2.1h-5.074a2.616 2.616 0 0 1 2.622-2.106zm11.31 6.947h1.377v-4l4.337 4h1.857l-4.818-4.466 3.938-3.537h-1.825l-3.489 3.121v-7.123h-1.38v12zm9.424 0h1.377V172.9c0-1.872 1.024-2.929 2.32-2.929a1.921 1.921 0 0 1 1.889 2.177v4.722h1.361v-4.93a2.949 2.949 0 0 0-3.025-3.233 2.829 2.829 0 0 0-2.545 1.392v-1.232h-1.377v8zm11.888-11.124a.966.966 0 0 0-.96-.977.994.994 0 0 0-.992.977.983.983 0 0 0 .992.976.956.956 0 0 0 .957-.982zm-1.664 11.124h1.376v-8h-1.376v8zm9.121-.112v-1.232a3.041 3.041 0 0 1-.976.16 1.153 1.153 0 0 1-1.328-1.361v-4.194h2.3v-1.264h-2.3v-2.225H608.5v2.225h-1.7v1.264h1.7v4.37a2.252 2.252 0 0 0 2.449 2.449 3.828 3.828 0 0 0 1.23-.198zm7.727.112h1.376v-6.739h2.315v-1.264h-2.321V167.4a1.153 1.153 0 0 1 1.329-1.36 3.222 3.222 0 0 1 .992.16v-1.217a3.636 3.636 0 0 0-1.248-.208 2.286 2.286 0 0 0-2.449 2.481v1.617h-1.7v1.264h1.7v6.739zm5.167-4a4.005 4.005 0 0 0 3.924 4.154 3.509 3.509 0 0 0 2.817-1.392v1.232h1.377v-8h-1.377v1.229a3.509 3.509 0 0 0-2.817-1.392 4.005 4.005 0 0 0-3.927 4.161zm6.851 0a2.734 2.734 0 1 1-2.721-2.9 2.733 2.733 0 0 1 2.718 2.892zm6.03 2.77a3.51 3.51 0 0 0 2.817 1.392 4.169 4.169 0 0 0 0-8.323 3.51 3.51 0 0 0-2.817 1.392v-5.234h-1.376v12h1.376v-1.232zm5.33-2.77a2.726 2.726 0 1 1-2.721-2.9 2.733 2.733 0 0 1 2.718 2.892zm4.173 4h1.377V172.9c0-1.872 1.1-2.753 2.113-2.753a2.011 2.011 0 0 1 .752.128v-1.424a2.851 2.851 0 0 0-.624-.064 2.381 2.381 0 0 0-2.241 1.632v-1.552h-1.377v8zm8.321-11.124a.966.966 0 0 0-.96-.977.994.994 0 0 0-.993.977.984.984 0 0 0 .993.976.956.956 0 0 0 .957-.982zm-1.665 11.124h1.377v-8h-1.377v8zm12.051-1.985l-1.2-.672a2.714 2.714 0 0 1-2.5 1.537 2.883 2.883 0 0 1 0-5.763 2.714 2.714 0 0 1 2.5 1.537l1.2-.672a4.143 4.143 0 0 0-3.7-2.145 4.162 4.162 0 1 0 0 8.323 4.143 4.143 0 0 0 3.697-2.151zM31.305 196.871h1.377v-6.739H35v-1.264h-2.318V187.4a1.152 1.152 0 0 1 1.328-1.36 3.225 3.225 0 0 1 .992.16v-1.217a3.639 3.639 0 0 0-1.248-.208 2.286 2.286 0 0 0-2.449 2.481v1.617h-1.7v1.264h1.7v6.739zm6 0h1.377V192.9c0-1.872 1.1-2.753 2.113-2.753a2.013 2.013 0 0 1 .752.128v-1.424a2.854 2.854 0 0 0-.624-.064 2.381 2.381 0 0 0-2.241 1.632v-1.552H37.3v8zm14.1-4a4.186 4.186 0 1 0-4.178 4.162 4.107 4.107 0 0 0 4.173-4.164zm-6.963 0a2.779 2.779 0 1 1 2.785 2.882 2.751 2.751 0 0 1-2.786-2.884zm9.728 4h1.377V192.9c0-1.808.912-2.929 2.209-2.929 1.041 0 1.569.9 1.569 2.193v4.706H60.7v-3.97c0-1.808.9-2.929 2.193-2.929 1.04 0 1.585.9 1.585 2.193v4.706h1.376v-4.914c0-1.953-1.056-3.249-2.8-3.249a2.77 2.77 0 0 0-2.625 1.712 2.516 2.516 0 0 0-2.465-1.712 2.69 2.69 0 0 0-2.417 1.392v-1.232h-1.378v8zm23.73-.112v-1.232a3.044 3.044 0 0 1-.976.16 1.153 1.153 0 0 1-1.328-1.361v-4.194h2.3v-1.264h-2.3v-2.225h-1.379v2.225h-1.7v1.264h1.7v4.37a2.253 2.253 0 0 0 2.449 2.449 3.832 3.832 0 0 0 1.234-.192zm2.558.112h1.376V192.9c0-1.872 1.024-2.929 2.321-2.929a1.921 1.921 0 0 1 1.889 2.177v4.722H87.4v-4.93a2.949 2.949 0 0 0-3.025-3.233 2.83 2.83 0 0 0-2.545 1.392v-5.234h-1.373v12zm9.6-4a4.219 4.219 0 0 0 7.747 2.257l-1.089-.752a2.833 2.833 0 0 1-5.266-1.232h6.563a3.922 3.922 0 0 0 .016-.417 3.729 3.729 0 0 0-3.81-4.017 4.056 4.056 0 0 0-4.163 4.159zm4.114-2.945a2.4 2.4 0 0 1 2.449 2.1h-5.076a2.617 2.617 0 0 1 2.625-2.102zm17.809 6.947h1.219l2.721-8h-1.461l-1.937 5.842-2-5.842h-1.056l-2 5.842-1.937-5.842h-1.44l2.721 8h1.216l1.985-5.762zm13.92-4a4.186 4.186 0 1 0-4.178 4.162 4.107 4.107 0 0 0 4.177-4.166zm-6.963 0a2.779 2.779 0 1 1 2.785 2.882 2.751 2.751 0 0 1-2.787-2.886zm9.728 4h1.376V192.9c0-1.872 1.105-2.753 2.113-2.753a2.011 2.011 0 0 1 .752.128v-1.424a2.851 2.851 0 0 0-.624-.064 2.381 2.381 0 0 0-2.241 1.632v-1.552h-1.376v8zm6.656 0h1.378v-12h-1.38v12zm4.159-4a4.005 4.005 0 0 0 3.922 4.162 3.51 3.51 0 0 0 2.817-1.392v1.232h1.38v-12h-1.377v5.225a3.51 3.51 0 0 0-2.817-1.392 4.005 4.005 0 0 0-3.927 4.161zm6.851 0a2.734 2.734 0 1 1-2.721-2.9 2.733 2.733 0 0 1 2.719 2.896zm4.4.209h4.082V191.7h-4.082v1.377zm7.232 3.793h1.377V192.9c0-1.872 1.1-2.753 2.113-2.753a2.011 2.011 0 0 1 .752.128v-1.424a2.851 2.851 0 0 0-.624-.064 2.38 2.38 0 0 0-2.241 1.632v-1.552h-1.377v8zm5.744-4a4.219 4.219 0 0 0 7.747 2.257l-1.088-.752a2.833 2.833 0 0 1-5.266-1.232h6.562a3.922 3.922 0 0 0 .016-.417 3.728 3.728 0 0 0-3.809-4.017 4.056 4.056 0 0 0-4.17 4.155zm4.114-2.945a2.4 2.4 0 0 1 2.449 2.1h-5.074a2.616 2.616 0 0 1 2.62-2.106zm6.606 6.947h1.372V192.9c0-1.872 1.024-2.929 2.321-2.929a1.921 1.921 0 0 1 1.888 2.177v4.722h1.361v-4.93a2.949 2.949 0 0 0-3.025-3.233 2.829 2.829 0 0 0-2.545 1.393v-1.232h-1.377v8zm17.955-4a4.186 4.186 0 1 0-4.178 4.162 4.107 4.107 0 0 0 4.173-4.17zm-6.963 0a2.779 2.779 0 1 1 2.785 2.882 2.751 2.751 0 0 1-2.79-2.89zm16.483 4h1.216l2.721-8h-1.456l-1.937 5.842-2-5.842h-1.056l-2 5.842-1.937-5.842h-1.441l2.721 8h1.217l1.985-5.762zm6.221 0h1.376V192.9c0-1.872 1.025-2.929 2.321-2.929a1.921 1.921 0 0 1 1.889 2.177v4.722h1.36v-4.93a2.949 2.949 0 0 0-3.025-3.233 2.831 2.831 0 0 0-2.545 1.393v-1.232h-1.376v8zm9.6-4a4.219 4.219 0 0 0 7.747 2.257l-1.088-.752a2.833 2.833 0 0 1-5.266-1.232h6.562a3.922 3.922 0 0 0 .016-.417 3.728 3.728 0 0 0-3.809-4.017 4.056 4.056 0 0 0-4.168 4.153zm4.114-2.945a2.4 2.4 0 0 1 2.449 2.1h-5.074a2.616 2.616 0 0 1 2.619-2.108zm5.982 2.945a4.005 4.005 0 0 0 3.922 4.162 3.51 3.51 0 0 0 2.817-1.392v1.232h1.376v-12h-1.376v5.221a3.51 3.51 0 0 0-2.817-1.392 4.005 4.005 0 0 0-3.928 4.161zm6.851 0a2.734 2.734 0 1 1-2.721-2.9 2.733 2.733 0 0 1 2.715 2.892zm15.151.673l4.1-5.506v8.835h1.473v-11.373h-1.345l-4.226 5.667-4.225-5.667h-1.369v11.365h1.489v-8.835zm8.414-.673a4 4 0 0 0 3.921 4.162 3.509 3.509 0 0 0 2.817-1.392v1.232h1.377v-8h-1.377v1.221a3.509 3.509 0 0 0-2.817-1.392 4 4 0 0 0-3.927 4.161zm6.85 0a2.734 2.734 0 1 1-2.721-2.9 2.733 2.733 0 0 1 2.715 2.892zm4.654 4h1.376V192.9c0-1.872 1.1-2.753 2.113-2.753a2.02 2.02 0 0 1 .753.128v-1.424a2.866 2.866 0 0 0-.625-.064 2.381 2.381 0 0 0-2.241 1.632v-1.552h-1.376v8zm8.32-11.124a.966.966 0 0 0-.96-.977.994.994 0 0 0-.992.977.983.983 0 0 0 .992.976.956.956 0 0 0 .954-.982zm-1.664 11.124h1.376v-8h-1.382v8zm12.515-4a4.186 4.186 0 1 0-4.178 4.162 4.107 4.107 0 0 0 4.167-4.17zm-6.963 0a2.779 2.779 0 1 1 2.785 2.882 2.751 2.751 0 0 1-2.791-2.89zm14.639 4h4.066c2.305 0 3.81-1.424 3.81-3.313a2.708 2.708 0 0 0-1.969-2.721 2.578 2.578 0 0 0 1.216-2.321 3.112 3.112 0 0 0-3.393-3.01h-3.73v11.365zm1.489-6.483v-3.537h2.241a1.787 1.787 0 0 1 1.937 1.777 1.749 1.749 0 0 1-1.937 1.76h-2.247zm0 5.139v-3.858h2.657c1.505 0 2.273.832 2.273 1.937 0 1.12-.768 1.921-2.289 1.921h-2.647zm8.543-2.658a4.219 4.219 0 0 0 7.747 2.257l-1.088-.752a2.833 2.833 0 0 1-5.266-1.232h6.562a3.922 3.922 0 0 0 .016-.417 3.729 3.729 0 0 0-3.809-4.017 4.056 4.056 0 0 0-4.168 4.155zm4.114-2.945a2.4 2.4 0 0 1 2.449 2.1H308.1a2.616 2.616 0 0 1 2.627-2.106zm6.606 6.947h1.377v-12h-1.377v12zm4.784 0h1.377v-12h-1.377v12zm4.672-3.089c0 1.985 1.184 3.249 2.945 3.249a2.754 2.754 0 0 0 2.465-1.392v1.232h1.377v-8H332.2v3.969c0 1.841-.976 2.93-2.225 2.93-1.1 0-1.809-.849-1.809-2.193v-4.706h-1.376v4.914zm17.443 1.1l-1.2-.672a2.713 2.713 0 0 1-2.5 1.537 2.883 2.883 0 0 1 0-5.763 2.713 2.713 0 0 1 2.5 1.537l1.2-.672a4.144 4.144 0 0 0-3.7-2.145 4.162 4.162 0 1 0 0 8.323 4.144 4.144 0 0 0 3.694-2.147zm9.84 0l-1.2-.672a2.714 2.714 0 0 1-2.5 1.537 2.883 2.883 0 0 1 0-5.763 2.714 2.714 0 0 1 2.5 1.537l1.2-.672a4.145 4.145 0 0 0-3.7-2.145 4.162 4.162 0 1 0 0 8.323 4.145 4.145 0 0 0 3.694-2.147zm4.237-9.139a.966.966 0 0 0-.96-.977.994.994 0 0 0-.993.977.984.984 0 0 0 .993.976.956.956 0 0 0 .954-.978zm-1.665 11.124h1.377v-8h-1.377v8zm9.488 0h1.377V192.9c0-1.808.912-2.929 2.209-2.929 1.04 0 1.568.9 1.568 2.193v4.706h1.377v-3.97c0-1.808.9-2.929 2.193-2.929 1.04 0 1.584.9 1.584 2.193v4.706h1.377v-4.914c0-1.953-1.057-3.249-2.8-3.249a2.769 2.769 0 0 0-2.625 1.712 2.517 2.517 0 0 0-2.465-1.712 2.689 2.689 0 0 0-2.417 1.392v-1.232h-1.377v8zm16.625-11.124a.967.967 0 0 0-.961-.977.994.994 0 0 0-.992.977.983.983 0 0 0 .992.976.957.957 0 0 0 .955-.978zm-1.665 11.124h1.377v-8h-1.377v8zm4.784 0h1.376v-12h-1.376v12zm4.784 0h1.376v-12h-1.382v12zm6.5-.352a1.368 1.368 0 0 0 .224-.72 1.185 1.185 0 1 0-2.369 0 1.192 1.192 0 0 0 .657 1.072l-1.078 2.287h.913zm15.154-1.633l-1.2-.672a2.714 2.714 0 0 1-2.5 1.537 2.883 2.883 0 0 1 0-5.763 2.714 2.714 0 0 1 2.5 1.537l1.2-.672a4.162 4.162 0 1 0-.01 4.031zm2.573 1.985h1.377V192.9c0-1.872 1.1-2.753 2.113-2.753a2.011 2.011 0 0 1 .752.128v-1.424a2.851 2.851 0 0 0-.624-.064 2.38 2.38 0 0 0-2.241 1.632v-1.552h-1.377v8zm5.744-4a4.219 4.219 0 0 0 7.747 2.257l-1.088-.752a2.833 2.833 0 0 1-5.266-1.232h6.562a3.922 3.922 0 0 0 .016-.417 3.728 3.728 0 0 0-3.809-4.017 4.056 4.056 0 0 0-4.172 4.157zm4.114-2.945a2.4 2.4 0 0 1 2.449 2.1h-5.074a2.616 2.616 0 0 1 2.615-2.104zm5.982 2.945a4.005 4.005 0 0 0 3.922 4.162 3.512 3.512 0 0 0 2.817-1.392v1.232h1.376v-8h-1.376v1.225a3.512 3.512 0 0 0-2.817-1.392 4.005 4.005 0 0 0-3.932 4.161zm6.851 0a2.734 2.734 0 1 1-2.721-2.9 2.733 2.733 0 0 1 2.711 2.896zm8.991 3.89v-1.232a3.043 3.043 0 0 1-.977.16 1.153 1.153 0 0 1-1.328-1.361v-4.194h2.305v-1.264h-2.315v-2.225h-1.377v2.225h-1.7v1.264h1.7v4.37a2.253 2.253 0 0 0 2.449 2.449 3.835 3.835 0 0 0 1.233-.196zm4.223-11.012a.967.967 0 0 0-.961-.977.994.994 0 0 0-.992.977.983.983 0 0 0 .992.976.957.957 0 0 0 .951-.98zm-1.665 11.124h1.367v-8h-1.377v8zm4.784 0h1.376V192.9c0-1.872 1.025-2.929 2.321-2.929a1.921 1.921 0 0 1 1.889 2.177v4.722h1.361v-4.93a2.95 2.95 0 0 0-3.026-3.233 2.832 2.832 0 0 0-2.545 1.392v-1.232h-1.376v8zm17.683-.464v-7.539h-1.377v1.228a3.4 3.4 0 0 0-2.785-1.392 4.077 4.077 0 0 0 0 8.147 3.417 3.417 0 0 0 2.785-1.408v.912a2.558 2.558 0 0 1-2.673 2.769 3.422 3.422 0 0 1-2.8-1.345l-.96.961a4.751 4.751 0 0 0 3.777 1.633 3.705 3.705 0 0 0 4.023-3.97zm-6.675-3.634a2.707 2.707 0 1 1 2.7 2.8 2.667 2.667 0 0 1-2.71-2.804zm14.143.1a4.005 4.005 0 0 0 3.922 4.162 3.51 3.51 0 0 0 2.817-1.392v1.232h1.376v-8H485.8v1.221a3.51 3.51 0 0 0-2.817-1.392 4.005 4.005 0 0 0-3.925 4.161zm6.851 0a2.734 2.734 0 1 1-2.721-2.9 2.733 2.733 0 0 1 2.711 2.892zm9.357 4h1.377V192.9c0-1.872 1.024-2.929 2.321-2.929a1.921 1.921 0 0 1 1.888 2.177v4.722h1.361v-4.93a2.949 2.949 0 0 0-3.025-3.233 2.829 2.829 0 0 0-2.545 1.392v-1.232h-1.377v8zm9.6-4a4 4 0 0 0 3.921 4.162 3.509 3.509 0 0 0 2.817-1.392v1.232h1.377v-8H511.6v1.221a3.509 3.509 0 0 0-2.817-1.392 4 4 0 0 0-3.917 4.161zm6.85 0a2.734 2.734 0 1 1-2.721-2.9 2.733 2.733 0 0 1 2.711 2.892zm8.991 3.89v-1.232a3.041 3.041 0 0 1-.976.16 1.153 1.153 0 0 1-1.329-1.361v-4.194h2.3v-1.264h-2.3v-2.225h-1.376v2.225h-1.7v1.264h1.7v4.37a2.252 2.252 0 0 0 2.449 2.449 3.828 3.828 0 0 0 1.222-.2zm2.447-2.977c0 1.985 1.184 3.249 2.945 3.249a2.754 2.754 0 0 0 2.465-1.392v1.232h1.376v-8h-1.376v3.969c0 1.841-.977 2.93-2.225 2.93-1.105 0-1.809-.849-1.809-2.193v-4.706h-1.376v4.914zm10.176 3.089h1.376V192.9c0-1.872 1.105-2.753 2.113-2.753a2.011 2.011 0 0 1 .752.128v-1.424a2.851 2.851 0 0 0-.624-.064 2.381 2.381 0 0 0-2.241 1.632v-1.552h-1.386v8zm5.759-4a4.005 4.005 0 0 0 3.922 4.162 3.51 3.51 0 0 0 2.817-1.392v1.232h1.377v-8h-1.377v1.219a3.51 3.51 0 0 0-2.817-1.392 4.005 4.005 0 0 0-3.932 4.161zm6.851 0a2.734 2.734 0 1 1-2.721-2.9 2.733 2.733 0 0 1 2.711 2.89zm4.653 4h1.377v-12h-1.377v12zm4.528-3.793h4.069V191.7h-4.082v1.377zm12.418 1.568c0-1.2-.752-1.969-2.113-2.417l-.864-.288c-.944-.3-1.233-.608-1.233-1.12a1.133 1.133 0 0 1 1.345-.929 2.163 2.163 0 0 1 1.7.833l.9-.865a3.1 3.1 0 0 0-2.561-1.152c-1.585 0-2.705.88-2.705 2.177a2.416 2.416 0 0 0 1.985 2.321l.784.256c1.04.336 1.425.72 1.425 1.28a1.219 1.219 0 0 1-1.409 1.089 2.149 2.149 0 0 1-2.049-1.265l-1.12.608a3.177 3.177 0 0 0 3.137 1.857c1.6-.008 2.768-.824 2.768-2.393zm7.008 2.113v-1.232a3.048 3.048 0 0 1-.977.16 1.153 1.153 0 0 1-1.328-1.361v-4.194h2.305v-1.264h-2.305v-2.225h-1.377v2.225h-1.7v1.264h1.7v4.37a2.253 2.253 0 0 0 2.449 2.449 3.835 3.835 0 0 0 1.223-.2zm2.558.112h1.376V192.9c0-1.872 1.105-2.753 2.113-2.753a2.016 2.016 0 0 1 .753.128v-1.424a2.86 2.86 0 0 0-.625-.064 2.382 2.382 0 0 0-2.241 1.632v-1.552h-1.376v8zm5.744-4a4.219 4.219 0 0 0 7.747 2.257l-1.089-.752a2.833 2.833 0 0 1-5.266-1.232h6.549a3.922 3.922 0 0 0 .016-.417 3.729 3.729 0 0 0-3.81-4.017 4.055 4.055 0 0 0-4.157 4.151zm4.113-2.945a2.4 2.4 0 0 1 2.449 2.1h-5.074a2.617 2.617 0 0 1 2.615-2.11zm10.833 6.835v-1.232a3.043 3.043 0 0 1-.977.16 1.153 1.153 0 0 1-1.328-1.361v-4.194h2.3v-1.264h-2.3v-2.225h-1.377v2.225h-1.7v1.264h1.7v4.37a2.253 2.253 0 0 0 2.449 2.449 3.83 3.83 0 0 0 1.223-.202zm9.713-1.873l-1.2-.672a2.715 2.715 0 0 1-2.5 1.537 2.883 2.883 0 0 1 0-5.763 2.715 2.715 0 0 1 2.5 1.537l1.2-.672a4.143 4.143 0 0 0-3.7-2.145 4.162 4.162 0 1 0 0 8.323 4.143 4.143 0 0 0 3.69-2.155zm2.573 1.985h1.377V192.9c0-1.872 1.024-2.929 2.32-2.929a1.921 1.921 0 0 1 1.889 2.177v4.722h1.361v-4.93a2.949 2.949 0 0 0-3.038-3.232 2.829 2.829 0 0 0-2.545 1.392v-5.234h-1.377v12zm20.114-2.225c0-1.2-.753-1.969-2.113-2.417l-.864-.288c-.945-.3-1.233-.608-1.233-1.12a1.133 1.133 0 0 1 1.345-.929 2.159 2.159 0 0 1 1.7.833l.9-.865a3.106 3.106 0 0 0-2.561-1.152c-1.585 0-2.7.88-2.7 2.177a2.416 2.416 0 0 0 1.984 2.321l.785.256c1.04.336 1.424.72 1.424 1.28a1.218 1.218 0 0 1-1.408 1.089 2.148 2.148 0 0 1-2.049-1.265l-1.121.608a3.18 3.18 0 0 0 3.138 1.857c1.594-.01 2.768-.826 2.768-2.395zm2.653-.864c0 1.985 1.185 3.249 2.946 3.249a2.755 2.755 0 0 0 2.465-1.392v1.232h1.376v-8h-1.376v3.969c0 1.841-.977 2.93-2.225 2.93-1.105 0-1.809-.849-1.809-2.193v-4.706h-1.377v4.914zm11.841-8.035a.966.966 0 0 0-.96-.977.994.994 0 0 0-.993.977.984.984 0 0 0 .993.976.956.956 0 0 0 .95-.986zm-1.665 11.124h1.366v-8h-1.377v8zm9.122-.112v-1.232a3.041 3.041 0 0 1-.976.16 1.153 1.153 0 0 1-1.329-1.361v-4.194h2.3v-1.264h-2.3v-2.225h-1.376v2.225h-1.7v1.264h1.7v4.37a2.252 2.252 0 0 0 2.449 2.449 3.828 3.828 0 0 0 1.222-.202zm-617.175 20v-1.232a3.044 3.044 0 0 1-.976.16 1.153 1.153 0 0 1-1.328-1.361v-4.194h2.3v-1.264h-2.3v-2.225h-1.388v2.225h-1.7v1.264h1.7v4.37a2.253 2.253 0 0 0 2.449 2.449 3.831 3.831 0 0 0 1.233-.202zm2.558.112h1.377V212.9c0-1.872 1.024-2.929 2.321-2.929a1.921 1.921 0 0 1 1.889 2.177v4.722h1.361v-4.93a2.949 2.949 0 0 0-3.025-3.233 2.831 2.831 0 0 0-2.545 1.392v-5.234h-1.388v12zm9.6-4a4.005 4.005 0 0 0 3.922 4.162 3.51 3.51 0 0 0 2.817-1.392v1.232h1.377v-8h-1.388v1.217a3.51 3.51 0 0 0-2.817-1.392 4 4 0 0 0-3.921 4.161zm6.851 0a2.734 2.734 0 1 1-2.721-2.9 2.733 2.733 0 0 1 2.71 2.888zm8.991 3.89v-1.232a3.044 3.044 0 0 1-.976.16 1.153 1.153 0 0 1-1.328-1.361v-4.194h2.3v-1.264h-2.3v-2.225h-1.388v2.225h-1.7v1.264h1.7v4.37a2.253 2.253 0 0 0 2.449 2.449 3.831 3.831 0 0 0 1.232-.204zm7.262 3.457h1.377v-4.577a3.51 3.51 0 0 0 2.817 1.392 4.169 4.169 0 0 0 0-8.323 3.51 3.51 0 0 0-2.817 1.392v-1.232h-1.388v11.348zm6.707-7.347a2.726 2.726 0 1 1-2.721-2.9 2.733 2.733 0 0 1 2.71 2.888zm4.077.913c0 1.985 1.185 3.249 2.945 3.249a2.754 2.754 0 0 0 2.465-1.392v1.232H87.8v-8h-1.373v3.969c0 1.841-.976 2.93-2.225 2.93-1.1 0-1.809-.849-1.809-2.193v-4.706h-1.377v4.914zm15.362.864c0-1.2-.752-1.969-2.113-2.417l-.864-.288c-.944-.3-1.233-.608-1.233-1.12a1.133 1.133 0 0 1 1.345-.929 2.161 2.161 0 0 1 1.7.833l.9-.865a3.1 3.1 0 0 0-2.561-1.152c-1.585 0-2.705.88-2.705 2.177a2.416 2.416 0 0 0 1.985 2.321l.784.256c1.04.336 1.425.72 1.425 1.28a1.218 1.218 0 0 1-1.409 1.089 2.149 2.149 0 0 1-2.049-1.265l-1.12.608a3.178 3.178 0 0 0 3.137 1.857c1.599-.012 2.767-.828 2.767-2.397zm2.766 2.225h1.377V212.9c0-1.872 1.024-2.929 2.321-2.929a1.921 1.921 0 0 1 1.888 2.177v4.722h1.361v-4.93a2.949 2.949 0 0 0-3.025-3.233 2.829 2.829 0 0 0-2.545 1.392v-5.234h-1.388v12zm9.6-4a4.219 4.219 0 0 0 7.747 2.257l-1.089-.752a2.833 2.833 0 0 1-5.266-1.232h6.553a3.922 3.922 0 0 0 .016-.417 3.729 3.729 0 0 0-3.81-4.017 4.055 4.055 0 0 0-4.162 4.147zm4.113-2.945a2.4 2.4 0 0 1 2.449 2.1h-5.074a2.617 2.617 0 0 1 2.614-2.114zm11.793 4.722c0-1.2-.752-1.969-2.113-2.417l-.864-.288c-.945-.3-1.233-.608-1.233-1.12a1.133 1.133 0 0 1 1.345-.929 2.159 2.159 0 0 1 1.7.833l.9-.865a3.1 3.1 0 0 0-2.561-1.152c-1.585 0-2.7.88-2.7 2.177a2.416 2.416 0 0 0 1.985 2.321l.784.256c1.04.336 1.424.72 1.424 1.28a1.218 1.218 0 0 1-1.408 1.089 2.148 2.148 0 0 1-2.049-1.265l-1.12.608a3.177 3.177 0 0 0 3.137 1.857c1.593-.014 2.762-.83 2.762-2.399zm11.535 2.113v-1.232a3.041 3.041 0 0 1-.976.16 1.153 1.153 0 0 1-1.329-1.361v-4.194h2.305v-1.264h-2.316v-2.225h-1.38v2.225h-1.7v1.264h1.7v4.37a2.252 2.252 0 0 0 2.449 2.449 3.828 3.828 0 0 0 1.236-.206zm2.558.112h1.377V212.9c0-1.872 1.024-2.929 2.321-2.929a1.922 1.922 0 0 1 1.889 2.177v4.722h1.36v-4.93a2.949 2.949 0 0 0-3.025-3.233 2.831 2.831 0 0 0-2.545 1.392v-5.234h-1.377v12zm9.6-4a4.219 4.219 0 0 0 7.747 2.257l-1.101-.768a2.833 2.833 0 0 1-5.266-1.232h6.566a3.922 3.922 0 0 0 .016-.417 3.728 3.728 0 0 0-3.809-4.017 4.056 4.056 0 0 0-4.164 4.161zm4.114-2.945a2.4 2.4 0 0 1 2.449 2.1h-5.074a2.616 2.616 0 0 1 2.614-2.116zm12.687 5.715a3.509 3.509 0 0 0 2.817 1.392 4.169 4.169 0 0 0 0-8.323 3.509 3.509 0 0 0-2.817 1.392v-5.234h-1.377v12h1.377v-1.232zm5.33-2.77a2.726 2.726 0 1 1-2.721-2.9 2.733 2.733 0 0 1 2.71 2.884zm11.9 0a4.186 4.186 0 1 0-4.178 4.162 4.107 4.107 0 0 0 4.171-4.178zm-6.963 0a2.779 2.779 0 1 1 2.785 2.882 2.751 2.751 0 0 1-2.792-2.898zm9.616.913c0 1.985 1.184 3.249 2.945 3.249a2.754 2.754 0 0 0 2.465-1.392v1.232h1.376v-8h-1.376v3.969c0 1.841-.977 2.93-2.225 2.93-1.105 0-1.809-.849-1.809-2.193v-4.706h-1.376v4.914zm10.176 3.089h1.376V212.9c0-1.872 1.025-2.929 2.321-2.929a1.921 1.921 0 0 1 1.889 2.177v4.722h1.36v-4.93a2.949 2.949 0 0 0-3.025-3.233 2.831 2.831 0 0 0-2.545 1.392v-1.232h-1.376v8zm9.6-4a4.005 4.005 0 0 0 3.922 4.162 3.51 3.51 0 0 0 2.817-1.392v1.232h1.376v-12h-1.376v5.211a3.51 3.51 0 0 0-2.817-1.392 4.005 4.005 0 0 0-3.93 4.161zm6.851 0a2.734 2.734 0 1 1-2.721-2.9 2.733 2.733 0 0 1 2.713 2.882zm4.029 0a4.005 4.005 0 0 0 3.922 4.162 3.512 3.512 0 0 0 2.817-1.392v1.232h1.367v-8h-1.376v1.211a3.512 3.512 0 0 0-2.817-1.392 4.005 4.005 0 0 0-3.921 4.161zm6.851 0a2.734 2.734 0 1 1-2.721-2.9 2.733 2.733 0 0 1 2.713 2.882zm4.653 4h1.377V212.9c0-1.872 1.1-2.753 2.112-2.753a2.013 2.013 0 0 1 .753.128v-1.424a2.851 2.851 0 0 0-.624-.064 2.38 2.38 0 0 0-2.241 1.632v-1.552h-1.385v8zm8.321-11.124a.967.967 0 0 0-.961-.977.994.994 0 0 0-.992.977.983.983 0 0 0 .992.976.957.957 0 0 0 .953-.992zm-1.665 11.124h1.377v-8h-1.377v8zm4.16-4a4.219 4.219 0 0 0 7.747 2.257l-1.089-.752a2.833 2.833 0 0 1-5.266-1.232h6.563a3.922 3.922 0 0 0 .016-.417 3.729 3.729 0 0 0-3.81-4.017 4.055 4.055 0 0 0-4.169 4.143zm4.113-2.945a2.4 2.4 0 0 1 2.449 2.1h-5.074a2.617 2.617 0 0 1 2.617-2.118zm11.793 4.722c0-1.2-.752-1.969-2.113-2.417l-.864-.288c-.945-.3-1.233-.608-1.233-1.12a1.133 1.133 0 0 1 1.345-.929 2.159 2.159 0 0 1 1.7.833l.9-.865a3.1 3.1 0 0 0-2.561-1.152c-1.585 0-2.705.88-2.705 2.177a2.416 2.416 0 0 0 1.984 2.321l.785.256c1.04.336 1.424.72 1.424 1.28a1.218 1.218 0 0 1-1.408 1.089 2.148 2.148 0 0 1-2.049-1.265l-1.121.608a3.18 3.18 0 0 0 3.138 1.857c1.601-.018 2.77-.834 2.77-2.403zm15.2-1.777a4.186 4.186 0 1 0-4.178 4.162 4.107 4.107 0 0 0 4.171-4.18zm-6.963 0a2.779 2.779 0 1 1 2.785 2.882 2.751 2.751 0 0 1-2.792-2.9zm10.272 4h1.371v-6.739h2.321v-1.264H273.8V207.4a1.152 1.152 0 0 1 1.329-1.36 3.222 3.222 0 0 1 .992.16v-1.217a3.636 3.636 0 0 0-1.248-.208 2.286 2.286 0 0 0-2.449 2.481v1.617h-1.7v1.264h1.7v6.739zm15.473-2.225c0-1.2-.752-1.969-2.113-2.417l-.864-.288c-.944-.3-1.232-.608-1.232-1.12a1.132 1.132 0 0 1 1.344-.929 2.161 2.161 0 0 1 1.7.833l.9-.865a3.1 3.1 0 0 0-2.561-1.152c-1.584 0-2.7.88-2.7 2.177a2.416 2.416 0 0 0 1.985 2.321l.784.256c1.041.336 1.425.72 1.425 1.28a1.219 1.219 0 0 1-1.409 1.089 2.149 2.149 0 0 1-2.049-1.265l-1.12.608a3.178 3.178 0 0 0 3.137 1.857c1.598-.016 2.771-.832 2.771-2.401zm7.008 2.113v-1.232a3.043 3.043 0 0 1-.977.16 1.153 1.153 0 0 1-1.328-1.361v-4.194h2.295v-1.264h-2.3v-2.225h-1.377v2.225h-1.7v1.264h1.7v4.37a2.253 2.253 0 0 0 2.449 2.449 3.83 3.83 0 0 0 1.228-.208zm4.687 3.457l5.25-11.348H303.3l-2.737 6.066-2.753-6.066h-1.52l3.5 7.587-1.745 3.761h1.537zm7.423-3.345h1.377v-12h-1.377v12zm4.16-4a4.219 4.219 0 0 0 7.747 2.257l-1.089-.752a2.833 2.833 0 0 1-5.266-1.232h6.563a3.922 3.922 0 0 0 .016-.417 3.729 3.729 0 0 0-3.81-4.017 4.055 4.055 0 0 0-4.168 4.143zm4.113-2.945a2.4 2.4 0 0 1 2.449 2.1h-5.074a2.617 2.617 0 0 1 2.618-2.118zm10.686 2.945a4.005 4.005 0 0 0 3.922 4.162 3.51 3.51 0 0 0 2.817-1.392v1.232h1.377v-8h-1.377v1.211a3.51 3.51 0 0 0-2.817-1.392 4.005 4.005 0 0 0-3.929 4.161zm6.851 0a2.734 2.734 0 1 1-2.721-2.9 2.733 2.733 0 0 1 2.714 2.882zm4.653 4h1.377V212.9c0-1.872 1.024-2.929 2.321-2.929a1.922 1.922 0 0 1 1.889 2.177v4.722h1.36v-4.93a2.949 2.949 0 0 0-3.025-3.233 2.831 2.831 0 0 0-2.545 1.392v-1.232h-1.377v8zm9.6-4a4.005 4.005 0 0 0 3.917 4.144 3.51 3.51 0 0 0 2.817-1.392v1.232h1.376v-12h-1.376v5.229a3.51 3.51 0 0 0-2.817-1.392 4.005 4.005 0 0 0-3.924 4.161zm6.851 0a2.734 2.734 0 1 1-2.721-2.9 2.733 2.733 0 0 1 2.714 2.882zm16.624 2.017l-1.2-.672a2.713 2.713 0 0 1-2.5 1.537 2.883 2.883 0 0 1 0-5.763 2.713 2.713 0 0 1 2.5 1.537l1.2-.672a4.144 4.144 0 0 0-3.7-2.145 4.162 4.162 0 1 0 0 8.323 4.144 4.144 0 0 0 3.693-2.163zm10.3-2.017a4.186 4.186 0 1 0-4.178 4.162 4.107 4.107 0 0 0 4.175-4.18zm-6.963 0a2.779 2.779 0 1 1 2.785 2.882 2.751 2.751 0 0 1-2.788-2.9zm9.727 4H385V212.9c0-1.808.912-2.929 2.209-2.929 1.04 0 1.569.9 1.569 2.193v4.706h1.376v-3.97c0-1.808.9-2.929 2.193-2.929 1.04 0 1.585.9 1.585 2.193v4.706h1.368v-4.914c0-1.953-1.056-3.249-2.8-3.249a2.77 2.77 0 0 0-2.625 1.712 2.515 2.515 0 0 0-2.465-1.712A2.691 2.691 0 0 0 385 210.1v-1.232h-1.377v8zm15.537 0h1.376v-6.739h2.321v-1.264h-2.321V207.4a1.153 1.153 0 0 1 1.329-1.36 3.222 3.222 0 0 1 .992.16v-1.217a3.636 3.636 0 0 0-1.248-.208 2.286 2.286 0 0 0-2.449 2.481v1.617h-1.7v1.264h1.7v6.739zm13.523-4a4.186 4.186 0 1 0-4.178 4.162 4.107 4.107 0 0 0 4.175-4.18zm-6.963 0a2.779 2.779 0 1 1 2.785 2.882 2.751 2.751 0 0 1-2.788-2.9zm9.727 4h1.377V212.9c0-1.872 1.1-2.753 2.113-2.753a2.011 2.011 0 0 1 .752.128v-1.424a2.851 2.851 0 0 0-.624-.064 2.38 2.38 0 0 0-2.241 1.632v-1.552h-1.377v8zm10.994-.112v-1.232a3.041 3.041 0 0 1-.976.16 1.153 1.153 0 0 1-1.329-1.361v-4.194h2.305v-1.264h-2.305v-2.225h-1.376v2.225h-1.7v1.264h1.7v4.37a2.252 2.252 0 0 0 2.449 2.449 3.828 3.828 0 0 0 1.229-.208zm4.463-.96a1.185 1.185 0 1 0-1.184 1.2 1.206 1.206 0 0 0 1.181-1.215z"/></svg>