<svg id="copy_copy_2" data-name="copy copy 2" xmlns="http://www.w3.org/2000/svg" width="720" height="197" viewBox="0 0 720 197">
  <defs>
    <style>
      .cls-1 {
        fill: #fff;
      }

      .cls-2 {
        fill-rule: evenodd;
      }
    </style>
  </defs>
  <rect id="Rectangle_106_copy_12" data-name="Rectangle 106 copy 12" class="cls-1" width="720" height="197"/>
  <g id="CTA_underline">
    <rect x="31" y="144" width="90" height="3"/>
    <path id="SHOP_now" data-name="SHOP now" class="cls-2" d="M34.395,139.2a3.12,3.12,0,0,0,3.422-3.065,3.049,3.049,0,0,0-2.277-2.967l-0.674-.252c-1.011-.378-1.482-0.616-1.482-1.148a0.984,0.984,0,0,1,1.159-.756,2.1,2.1,0,0,1,1.657.826l1.4-1.54a3.923,3.923,0,0,0-3.085-1.371,3,3,0,0,0-3.3,3.065c0,1.358.862,2.323,2.412,2.869L34.3,135.1c0.957,0.336,1.334.686,1.334,1.19a0.977,0.977,0,0,1-1.159.826,2.48,2.48,0,0,1-1.981-1.134l-1.644,1.442A4.141,4.141,0,0,0,34.395,139.2Zm7.332-.168h2.142V135.1h3.853v3.933h2.142V129.1H47.723v3.891H43.869V129.1H41.727v9.937ZM58.72,139.2a5.14,5.14,0,1,0-4.945-5.136A5.055,5.055,0,0,0,58.72,139.2Zm0-2.155a2.989,2.989,0,1,1,2.776-2.981A2.9,2.9,0,0,1,58.72,137.049ZM74.191,132.5a3.319,3.319,0,0,0-3.368-3.4H67.575v9.937h2.142v-3.149h1.1A3.308,3.308,0,0,0,74.191,132.5Zm-2.075,0a1.282,1.282,0,0,1-1.32,1.3H69.717v-2.6H70.8A1.274,1.274,0,0,1,72.116,132.5Zm19.54,6.536V129.1H89.5v6.13l-4.648-6.13H83.006v9.937h2.142v-6.144l4.662,6.144h1.846Zm8.855,0.168a5.14,5.14,0,1,0-4.945-5.136A5.056,5.056,0,0,0,100.511,139.2Zm0-2.155a2.989,2.989,0,1,1,2.775-2.981A2.9,2.9,0,0,1,100.511,137.049Zm16.265,1.987h2.035l2.223-9.937h-2.29l-1.307,6.3-2.695-6.466-2.681,6.466-1.307-6.3h-2.291l2.21,9.937h2.034l2.035-4.87Z"/>
  </g>
  <path id="BR_X_Kevin_Love_Water-Resistant_Hooded_Jacket_Limited_availab" data-name="BR X Kevin Love | Water-Resistant Hooded Jacket Limited availab" class="cls-2" d="M31.586,53.324h9.36a6.3,6.3,0,0,0,6.48-6.27,5.566,5.566,0,0,0-3.03-5.04,5.013,5.013,0,0,0,1.53-3.66,6.331,6.331,0,0,0-6.33-6.33h-8.01v21.3Zm4.77-12.689v-4.26h2.7a2.165,2.165,0,0,1,2.22,2.16,2.135,2.135,0,0,1-2.22,2.1h-2.7Zm0,8.31v-4.26h4.17a2.167,2.167,0,0,1,2.25,2.13,2.141,2.141,0,0,1-2.22,2.13h-4.2Zm15.78,4.38h4.77v-8.79h0.78l7.08,8.79H70.5l-7.53-9.39c2.7-.96,4.17-2.73,4.17-5.49a6.288,6.288,0,0,0-6.6-6.42h-8.4v21.3Zm4.77-12.84V36.4h3.06c1.41,0,2.43.75,2.43,2.04a2.156,2.156,0,0,1-2.43,2.04h-3.06Zm37.08,12.84h5.55l-7.95-10.769,7.47-10.53h-5.52l-4.83,6.84-4.83-6.84h-5.52l7.5,10.53-7.98,10.77h5.58l5.28-7.05Zm16.53,0h4.74v-9.54l8.669,9.54h6.12l-10.11-11.069,8.4-10.23h-5.85l-7.229,8.91v-8.91h-4.74v21.3Zm22.5,0h13.5v-4.56h-8.729v-3.81h6.929v-4.56h-6.929v-3.81h8.729v-4.56h-13.5v21.3Zm25.139,0h4.29l8.73-21.3h-5.25l-5.64,14.189-5.669-14.189h-5.19Zm16.8,0h4.77v-21.3h-4.77v21.3Zm30.029,0v-21.3h-4.8V45.165l-10.35-13.139h-4.11v21.3h4.77V40.155l10.38,13.169h4.109Zm14.1,0h13.59v-4.56h-8.82V32.025h-4.77v21.3Zm26.91,0.36a11.01,11.01,0,1,0-11.01-11.009A11.035,11.035,0,0,0,245.994,53.684Zm0-4.62a6.393,6.393,0,1,1,6.18-6.39A6.32,6.32,0,0,1,245.994,49.064Zm21.39,4.26h4.29l8.729-21.3h-5.25l-5.639,14.189-5.67-14.189h-5.19Zm16.8,0h13.5v-4.56h-8.729v-3.81h6.929v-4.56h-6.929v-3.81h8.729v-4.56h-13.5v21.3Zm26.729,1.65h3.78v-24.6h-3.78v24.6Zm34.109-1.65h4.53l4.95-21.3h-5.1l-2.91,13.5-6-13.859-5.97,13.859-2.909-13.5h-5.1l4.92,21.3h4.529l4.53-10.44Zm10.141,0h4.98l1.89-4.5h8.819l1.89,4.5h4.98l-9.12-21.3h-4.319Zm8.61-8.64,2.669-6.42,2.67,6.42h-5.339Zm19.38,8.64h4.8V36.585h5.489v-4.56H377.723v4.56h5.43V53.324Zm14.7,0h13.5v-4.56h-8.73v-3.81h6.93v-4.56h-6.93v-3.81h8.73v-4.56h-13.5v21.3Zm18.63,0h4.769v-8.79h0.78l7.08,8.79h5.73l-7.53-9.39c2.7-.96,4.17-2.73,4.17-5.49a6.289,6.289,0,0,0-6.6-6.42h-8.4v21.3Zm4.769-12.84V36.4h3.06c1.41,0,2.43.75,2.43,2.04a2.156,2.156,0,0,1-2.43,2.04h-3.06Zm15.12,4.35h8.82v-4.32h-8.82v4.32Zm14.31,8.49h4.77v-8.79h0.78l7.079,8.79h5.73l-7.529-9.39c2.7-.96,4.169-2.73,4.169-5.49a6.288,6.288,0,0,0-6.6-6.42h-8.4v21.3Zm4.77-12.84V36.4h3.06c1.41,0,2.43.75,2.43,2.04a2.156,2.156,0,0,1-2.43,2.04h-3.06Zm16.59,12.84h13.5v-4.56h-8.73v-3.81h6.93v-4.56h-6.93v-3.81h8.73v-4.56h-13.5v21.3Zm24.989,0.36c4.5,0,7.59-2.7,7.62-6.57,0.03-3.21-1.98-5.25-5.07-6.36l-1.5-.54c-2.25-.81-3.3-1.32-3.3-2.46,0-1.11,1.29-1.62,2.58-1.62a4.738,4.738,0,0,1,3.69,1.77l3.12-3.3a8.888,8.888,0,0,0-6.87-2.94c-4.26,0-7.349,2.43-7.349,6.57,0,2.91,1.92,4.98,5.369,6.15l1.5,0.51c2.13,0.72,2.97,1.47,2.97,2.55,0,1.02-.99,1.77-2.58,1.77a5.573,5.573,0,0,1-4.41-2.43l-3.659,3.09A9.338,9.338,0,0,0,497.031,53.684Zm12.42-.36h4.77v-21.3h-4.77v21.3Zm17.13,0.36c4.5,0,7.589-2.7,7.619-6.57,0.03-3.21-1.98-5.25-5.069-6.36l-1.5-.54c-2.25-.81-3.3-1.32-3.3-2.46,0-1.11,1.29-1.62,2.58-1.62a4.738,4.738,0,0,1,3.69,1.77l3.119-3.3a8.886,8.886,0,0,0-6.869-2.94c-4.26,0-7.35,2.43-7.35,6.57,0,2.91,1.92,4.98,5.37,6.15l1.5,0.51c2.13,0.72,2.97,1.47,2.97,2.55,0,1.02-.99,1.77-2.58,1.77a5.573,5.573,0,0,1-4.41-2.43l-3.66,3.09A9.34,9.34,0,0,0,526.581,53.684Zm15.96-.36h4.8V36.585h5.49v-4.56H537.111v4.56h5.43V53.324Zm10.26,0h4.98l1.89-4.5h8.819l1.89,4.5h4.98l-9.12-21.3h-4.32Zm8.61-8.64,2.669-6.42,2.67,6.42h-5.339Zm36.929,8.64v-21.3h-4.8V45.165L583.191,32.025h-4.11v21.3h4.77V40.155L594.23,53.324h4.11Zm9.84,0h4.8V36.585h5.49v-4.56H602.751v4.56h5.429V53.324Zm-576.594,28h4.77v-8.43h8.58v8.43h4.77v-21.3h-4.77v8.34h-8.58v-8.34h-4.77v21.3Zm33.93,0.36a11.01,11.01,0,1,0-11.01-11.01A11.036,11.036,0,0,0,65.516,81.684Zm0-4.62a6.393,6.393,0,1,1,6.18-6.39A6.32,6.32,0,0,1,65.516,77.064Zm25.619,4.62a11.01,11.01,0,1,0-11.009-11.01A11.036,11.036,0,0,0,91.136,81.684Zm0-4.62a6.393,6.393,0,1,1,6.18-6.39A6.319,6.319,0,0,1,91.136,77.064Zm15.81,4.26h7.26a10.652,10.652,0,1,0,0-21.3h-7.26v21.3Zm4.77-4.38V64.4h2.49a6.275,6.275,0,0,1,0,12.54h-2.49Zm18.18,4.38h13.5v-4.56h-8.73v-3.81h6.93v-4.56h-6.93v-3.81h8.73v-4.56H129.9v21.3Zm18.63,0h7.26a10.652,10.652,0,1,0,0-21.3h-7.26v21.3Zm4.77-4.38V64.4h2.49a6.275,6.275,0,0,1,0,12.54h-2.49Zm30.75,4.74c3.66,0,6.96-1.83,6.96-6.18V60.025h-4.77V75.2a2.193,2.193,0,0,1-4.38-.12h-4.71C177.145,79.7,180.475,81.684,184.045,81.684Zm10.05-.36h4.98l1.89-4.5h8.82l1.889,4.5h4.98l-9.119-21.3h-4.32Zm8.61-8.64,2.67-6.42,2.67,6.42h-5.34Zm26.52,9a11.009,11.009,0,0,0,9.959-5.82l-4.2-2.28a6.39,6.39,0,1,1,0-5.82l4.2-2.28A11.1,11.1,0,1,0,229.225,81.684Zm14.25-.36h4.74v-9.54l8.67,9.54H263L252.9,70.255l8.4-10.23h-5.849l-7.23,8.91v-8.91h-4.74v21.3Zm22.5,0h13.5v-4.56h-8.73v-3.81h6.93v-4.56h-6.93v-3.81h8.73v-4.56h-13.5v21.3Zm22.47,0h4.8V64.585h5.489v-4.56H283.015v4.56h5.43V81.324Zm-257.416,28h7.85V107.74H32.7V96.54H31.029v12.784ZM43.413,96.811a1.087,1.087,0,0,0-1.08-1.1,1.118,1.118,0,0,0-1.116,1.1,1.107,1.107,0,0,0,1.116,1.1A1.076,1.076,0,0,0,43.413,96.811Zm-1.873,12.513h1.548v-9H41.541v9Zm5.382,0h1.548v-4.465c0-2.035,1.026-3.3,2.485-3.3,1.17,0,1.764,1.008,1.764,2.467v5.293h1.548v-4.465c0-2.035,1.008-3.3,2.467-3.3,1.17,0,1.782,1.008,1.782,2.467v5.293h1.548V103.8c0-2.2-1.188-3.656-3.151-3.656a3.116,3.116,0,0,0-2.953,1.927,2.831,2.831,0,0,0-2.773-1.927,3.027,3.027,0,0,0-2.719,1.567v-1.386H46.923v9Zm18.7-12.513a1.087,1.087,0,0,0-1.08-1.1,1.118,1.118,0,0,0-1.116,1.1,1.107,1.107,0,0,0,1.116,1.1A1.076,1.076,0,0,0,65.625,96.811Zm-1.873,12.513H65.3v-9H63.753v9Zm10.261-.126v-1.386a3.423,3.423,0,0,1-1.1.18,1.3,1.3,0,0,1-1.495-1.531v-4.717h2.593v-1.422H71.421v-2.5H69.873v2.5H67.964v1.422h1.909v4.915a2.534,2.534,0,0,0,2.755,2.755A4.31,4.31,0,0,0,74.014,109.2Zm2.05-4.375a4.746,4.746,0,0,0,8.715,2.539l-1.224-.847a3.187,3.187,0,0,1-5.924-1.386h7.382a4.368,4.368,0,0,0,.018-0.468,4.2,4.2,0,0,0-4.285-4.52A4.562,4.562,0,0,0,76.065,104.823Zm4.627-3.313a2.693,2.693,0,0,1,2.755,2.359H77.739A2.943,2.943,0,0,1,80.692,101.51Zm6.73,3.313a4.5,4.5,0,0,0,4.411,4.681A3.948,3.948,0,0,0,95,107.938v1.386h1.549V95.82H95v5.888a3.949,3.949,0,0,0-3.169-1.567A4.505,4.505,0,0,0,87.422,104.823Zm7.706,0a3.075,3.075,0,1,1-3.061-3.259A3.074,3.074,0,0,1,95.129,104.823Zm9.825,0a4.5,4.5,0,0,0,4.411,4.681,3.947,3.947,0,0,0,3.169-1.566v1.386h1.549v-9h-1.549v1.386a3.948,3.948,0,0,0-3.169-1.567A4.506,4.506,0,0,0,104.954,104.823Zm7.706,0a3.075,3.075,0,1,1-3.061-3.259A3.074,3.074,0,0,1,112.66,104.823Zm8.045,4.5H122l4.159-9h-1.728l-3.079,6.806-3.079-6.806h-1.728Zm7.037-4.5a4.5,4.5,0,0,0,4.411,4.681,3.949,3.949,0,0,0,3.169-1.566v1.386h1.548v-9h-1.548v1.386a3.949,3.949,0,0,0-3.169-1.567A4.5,4.5,0,0,0,127.742,104.823Zm7.706,0a3.075,3.075,0,1,1-3.061-3.259A3.074,3.074,0,0,1,135.448,104.823Zm7.108-8.012a1.087,1.087,0,0,0-1.08-1.1,1.118,1.118,0,0,0-1.116,1.1,1.106,1.106,0,0,0,1.116,1.1A1.076,1.076,0,0,0,142.556,96.811Zm-1.872,12.513h1.548v-9h-1.548v9Zm5.382,0h1.548V95.82h-1.548v13.5Zm4.679-4.5a4.5,4.5,0,0,0,4.412,4.681,3.95,3.95,0,0,0,3.169-1.566v1.386h1.548v-9h-1.548v1.386a3.951,3.951,0,0,0-3.169-1.567A4.506,4.506,0,0,0,150.745,104.823Zm7.707,0a3.075,3.075,0,1,1-3.061-3.259A3.075,3.075,0,0,1,158.452,104.823Zm6.784,3.115a3.947,3.947,0,0,0,3.169,1.566,4.69,4.69,0,0,0,0-9.363,3.948,3.948,0,0,0-3.169,1.567V95.82h-1.549v13.5h1.549v-1.386Zm6-3.115a3.067,3.067,0,1,1-3.061-3.259A3.075,3.075,0,0,1,171.232,104.823Zm6.568-8.012a1.087,1.087,0,0,0-1.081-1.1,1.118,1.118,0,0,0-1.116,1.1,1.106,1.106,0,0,0,1.116,1.1A1.076,1.076,0,0,0,177.8,96.811Zm-1.873,12.513h1.549v-9h-1.549v9Zm5.382,0h1.548V95.82h-1.548v13.5Zm7.254-12.513a1.087,1.087,0,0,0-1.08-1.1,1.118,1.118,0,0,0-1.116,1.1,1.106,1.106,0,0,0,1.116,1.1A1.076,1.076,0,0,0,188.563,96.811Zm-1.872,12.513h1.548v-9h-1.548v9Zm10.261-.126v-1.386a3.422,3.422,0,0,1-1.1.18,1.3,1.3,0,0,1-1.5-1.531v-4.717h2.593v-1.422h-2.593v-2.5h-1.548v2.5H190.9v1.422h1.909v4.915a2.534,2.534,0,0,0,2.755,2.755A4.307,4.307,0,0,0,196.952,109.2Zm5.273,3.889,5.906-12.765H206.4l-3.079,6.824-3.1-6.824h-1.711l3.943,8.534-1.962,4.231h1.728Zm9.612-4.969a1.332,1.332,0,1,0-1.332,1.35A1.357,1.357,0,0,0,211.837,108.118Z"/>
</svg>
