<svg id="copy_copy_2" data-name="copy copy 2" xmlns="http://www.w3.org/2000/svg" width="720" height="197"><defs><style>.cls-2{fill-rule:evenodd}</style></defs><path id="Rectangle_106_copy_12" data-name="Rectangle 106 copy 12" fill="#fff" d="M0 0h720v197H0z"/><g id="CTA_underline"><path d="M31 144h90v3H31z"/><path id="SHOP_now" data-name="SHOP now" class="cls-2" d="M34.395 139.2a3.12 3.12 0 0 0 3.422-3.065 3.049 3.049 0 0 0-2.277-2.967l-.674-.252c-1.011-.378-1.482-.616-1.482-1.148a.984.984 0 0 1 1.159-.756 2.1 2.1 0 0 1 1.657.826l1.4-1.54a3.923 3.923 0 0 0-3.085-1.371 3 3 0 0 0-3.3 3.065c0 1.358.862 2.323 2.412 2.869l.673.239c.957.336 1.334.686 1.334 1.19a.977.977 0 0 1-1.159.826 2.48 2.48 0 0 1-1.981-1.134l-1.644 1.442a4.141 4.141 0 0 0 3.545 1.776zm7.332-.168h2.142V135.1h3.853v3.933h2.142V129.1h-2.141v3.891h-3.854V129.1h-2.142v9.937zm16.993.168a5.14 5.14 0 1 0-4.945-5.136 5.055 5.055 0 0 0 4.945 5.136zm0-2.155a2.989 2.989 0 1 1 2.776-2.981 2.9 2.9 0 0 1-2.776 2.985zm15.471-4.545a3.319 3.319 0 0 0-3.368-3.4h-3.248v9.937h2.142v-3.149h1.1a3.308 3.308 0 0 0 3.374-3.388zm-2.075 0a1.282 1.282 0 0 1-1.32 1.3h-1.079v-2.6H70.8a1.274 1.274 0 0 1 1.316 1.3zm19.54 6.536V129.1H89.5v6.13l-4.648-6.13h-1.846v9.937h2.142v-6.144l4.662 6.144h1.846zm8.855.168a5.14 5.14 0 1 0-4.945-5.136 5.056 5.056 0 0 0 4.945 5.132zm0-2.155a2.989 2.989 0 1 1 2.775-2.981 2.9 2.9 0 0 1-2.775 2.981zm16.265 1.987h2.035l2.223-9.937h-2.29l-1.307 6.3-2.695-6.466-2.681 6.466-1.307-6.3h-2.291l2.21 9.937h2.034l2.035-4.87z"/></g><path id="BR_X_Kevin_Love_Water-Resistant_Hooded_Jacket_Limited_availab" data-name="BR X Kevin Love | Water-Resistant Hooded Jacket Limited availab" class="cls-2" d="M31.586 53.324h9.36a6.3 6.3 0 0 0 6.48-6.27 5.566 5.566 0 0 0-3.03-5.04 5.013 5.013 0 0 0 1.53-3.66 6.331 6.331 0 0 0-6.33-6.33h-8.01v21.3zm4.77-12.689v-4.26h2.7a2.165 2.165 0 0 1 2.22 2.16 2.135 2.135 0 0 1-2.22 2.1h-2.7zm0 8.31v-4.26h4.17a2.167 2.167 0 0 1 2.25 2.13 2.141 2.141 0 0 1-2.22 2.13h-4.2zm15.78 4.38h4.77v-8.79h.78l7.08 8.79H70.5l-7.53-9.39c2.7-.96 4.17-2.73 4.17-5.49a6.288 6.288 0 0 0-6.6-6.42h-8.4v21.3zm4.77-12.84V36.4h3.06c1.41 0 2.43.75 2.43 2.04a2.156 2.156 0 0 1-2.43 2.04h-3.06zm37.08 12.84h5.55l-7.95-10.769 7.47-10.53h-5.52l-4.83 6.84-4.83-6.84h-5.52l7.5 10.53-7.98 10.77h5.58l5.28-7.05zm16.53 0h4.74v-9.54l8.669 9.54h6.12l-10.11-11.069 8.4-10.23h-5.85l-7.229 8.91v-8.91h-4.74v21.3zm22.5 0h13.5v-4.56h-8.729v-3.81h6.929v-4.56h-6.929v-3.81h8.729v-4.56h-13.5v21.3zm25.139 0h4.29l8.73-21.3h-5.25l-5.64 14.189-5.669-14.189h-5.19zm16.8 0h4.77v-21.3h-4.77v21.3zm30.029 0v-21.3h-4.8v13.14l-10.35-13.139h-4.11v21.3h4.77V40.155l10.38 13.169h4.109zm14.1 0h13.59v-4.56h-8.82v-16.74h-4.77v21.3zm26.91.36a11.01 11.01 0 1 0-11.01-11.009 11.035 11.035 0 0 0 11.01 11.008zm0-4.62a6.393 6.393 0 1 1 6.18-6.39 6.32 6.32 0 0 1-6.18 6.389zm21.39 4.26h4.29l8.729-21.3h-5.25l-5.639 14.189-5.67-14.189h-5.19zm16.8 0h13.5v-4.56h-8.729v-3.81h6.929v-4.56h-6.929v-3.81h8.729v-4.56h-13.5v21.3zm26.729 1.65h3.78v-24.6h-3.78v24.6zm34.109-1.65h4.53l4.95-21.3h-5.1l-2.91 13.5-6-13.859-5.97 13.859-2.909-13.5h-5.1l4.92 21.3h4.529l4.53-10.44zm10.141 0h4.98l1.89-4.5h8.819l1.89 4.5h4.98l-9.12-21.3h-4.319zm8.61-8.64l2.669-6.42 2.67 6.42h-5.339zm19.38 8.64h4.8v-16.74h5.489v-4.56h-15.719v4.56h5.43v16.739zm14.7 0h13.5v-4.56h-8.73v-3.81h6.93v-4.56h-6.93v-3.81h8.73v-4.56h-13.5v21.3zm18.63 0h4.769v-8.79h.78l7.08 8.79h5.73l-7.53-9.39c2.7-.96 4.17-2.73 4.17-5.49a6.289 6.289 0 0 0-6.6-6.42h-8.4v21.3zm4.769-12.84V36.4h3.06c1.41 0 2.43.75 2.43 2.04a2.156 2.156 0 0 1-2.43 2.04h-3.06zm15.12 4.35h8.82v-4.32h-8.82v4.32zm14.31 8.49h4.77v-8.79h.78l7.079 8.79h5.73l-7.529-9.39c2.7-.96 4.169-2.73 4.169-5.49a6.288 6.288 0 0 0-6.6-6.42h-8.4v21.3zm4.77-12.84V36.4h3.06c1.41 0 2.43.75 2.43 2.04a2.156 2.156 0 0 1-2.43 2.04h-3.06zm16.59 12.84h13.5v-4.56h-8.73v-3.81h6.93v-4.56h-6.93v-3.81h8.73v-4.56h-13.5v21.3zm24.989.36c4.5 0 7.59-2.7 7.62-6.57.03-3.21-1.98-5.25-5.07-6.36l-1.5-.54c-2.25-.81-3.3-1.32-3.3-2.46 0-1.11 1.29-1.62 2.58-1.62a4.738 4.738 0 0 1 3.69 1.77l3.12-3.3a8.888 8.888 0 0 0-6.87-2.94c-4.26 0-7.349 2.43-7.349 6.57 0 2.91 1.92 4.98 5.369 6.15l1.5.51c2.13.72 2.97 1.47 2.97 2.55 0 1.02-.99 1.77-2.58 1.77a5.573 5.573 0 0 1-4.41-2.43l-3.659 3.09a9.338 9.338 0 0 0 7.889 3.809zm12.42-.36h4.77v-21.3h-4.77v21.3zm17.13.36c4.5 0 7.589-2.7 7.619-6.57.03-3.21-1.98-5.25-5.069-6.36l-1.5-.54c-2.25-.81-3.3-1.32-3.3-2.46 0-1.11 1.29-1.62 2.58-1.62a4.738 4.738 0 0 1 3.69 1.77l3.119-3.3a8.886 8.886 0 0 0-6.869-2.94c-4.26 0-7.35 2.43-7.35 6.57 0 2.91 1.92 4.98 5.37 6.15l1.5.51c2.13.72 2.97 1.47 2.97 2.55 0 1.02-.99 1.77-2.58 1.77a5.573 5.573 0 0 1-4.41-2.43l-3.66 3.09a9.34 9.34 0 0 0 7.89 3.809zm15.96-.36h4.8v-16.74h5.49v-4.56h-15.72v4.56h5.43v16.739zm10.26 0h4.98l1.89-4.5h8.819l1.89 4.5h4.98l-9.12-21.3h-4.32zm8.61-8.64l2.669-6.42 2.67 6.42h-5.339zm36.929 8.64v-21.3h-4.8v13.14l-10.349-13.14h-4.11v21.3h4.77v-13.17l10.379 13.169h4.11zm9.84 0h4.8v-16.74h5.49v-4.56h-15.719v4.56h5.429v16.739zm-576.594 28h4.77v-8.43h8.58v8.43h4.77v-21.3h-4.77v8.34h-8.58v-8.34h-4.77v21.3zm33.93.36a11.01 11.01 0 1 0-11.01-11.01 11.036 11.036 0 0 0 11.01 11.009zm0-4.62a6.393 6.393 0 1 1 6.18-6.39 6.32 6.32 0 0 1-6.18 6.389zm25.619 4.62a11.01 11.01 0 1 0-11.009-11.01 11.036 11.036 0 0 0 11.01 11.009zm0-4.62a6.393 6.393 0 1 1 6.18-6.39 6.319 6.319 0 0 1-6.179 6.389zm15.81 4.26h7.26a10.652 10.652 0 1 0 0-21.3h-7.26v21.3zm4.77-4.38V64.4h2.49a6.275 6.275 0 0 1 0 12.54h-2.49zm18.18 4.38h13.5v-4.56h-8.73v-3.81h6.93v-4.56h-6.93v-3.81h8.73v-4.56H129.9v21.3zm18.63 0h7.26a10.652 10.652 0 1 0 0-21.3h-7.26v21.3zm4.77-4.38V64.4h2.49a6.275 6.275 0 0 1 0 12.54h-2.49zm30.75 4.74c3.66 0 6.96-1.83 6.96-6.18v-15.48h-4.77V75.2a2.193 2.193 0 0 1-4.38-.12h-4.71c0 4.62 3.33 6.604 6.9 6.604zm10.05-.36h4.98l1.89-4.5h8.82l1.889 4.5h4.98l-9.119-21.3h-4.32zm8.61-8.64l2.67-6.42 2.67 6.42h-5.34zm26.52 9a11.009 11.009 0 0 0 9.959-5.82l-4.2-2.28a6.39 6.39 0 1 1 0-5.82l4.2-2.28a11.1 11.1 0 1 0-9.959 16.199zm14.25-.36h4.74v-9.54l8.67 9.54H263l-10.1-11.07 8.4-10.23h-5.849l-7.23 8.91v-8.91h-4.74v21.3zm22.5 0h13.5v-4.56h-8.73v-3.81h6.93v-4.56h-6.93v-3.81h8.73v-4.56h-13.5v21.3zm22.47 0h4.8v-16.74h5.489v-4.56h-15.719v4.56h5.43v16.739zm-257.416 28h7.85v-1.585H32.7v-11.2h-1.671v12.784zm12.384-12.514a1.087 1.087 0 0 0-1.08-1.1 1.118 1.118 0 0 0-1.116 1.1 1.107 1.107 0 0 0 1.116 1.1 1.076 1.076 0 0 0 1.08-1.1zm-1.873 12.513h1.548v-9h-1.547v9zm5.382 0h1.548v-4.465c0-2.035 1.026-3.3 2.485-3.3 1.17 0 1.764 1.008 1.764 2.467v5.293h1.548v-4.465c0-2.035 1.008-3.3 2.467-3.3 1.17 0 1.782 1.008 1.782 2.467v5.293h1.548V103.8c0-2.2-1.188-3.656-3.151-3.656a3.116 3.116 0 0 0-2.953 1.927 2.831 2.831 0 0 0-2.773-1.927 3.027 3.027 0 0 0-2.719 1.567v-1.386h-1.545v9zm18.7-12.513a1.087 1.087 0 0 0-1.08-1.1 1.118 1.118 0 0 0-1.116 1.1 1.107 1.107 0 0 0 1.116 1.1 1.076 1.076 0 0 0 1.083-1.1zm-1.873 12.513H65.3v-9h-1.547v9zm10.261-.126v-1.386a3.423 3.423 0 0 1-1.1.18 1.3 1.3 0 0 1-1.495-1.531v-4.717h2.593v-1.422h-2.587v-2.5h-1.548v2.5h-1.909v1.422h1.909v4.915a2.534 2.534 0 0 0 2.755 2.755 4.31 4.31 0 0 0 1.386-.214zm2.05-4.375a4.746 4.746 0 0 0 8.715 2.539l-1.224-.847a3.187 3.187 0 0 1-5.924-1.386h7.382a4.368 4.368 0 0 0 .018-.468 4.2 4.2 0 0 0-4.285-4.52 4.562 4.562 0 0 0-4.677 4.682zm4.627-3.313a2.693 2.693 0 0 1 2.755 2.359h-5.703a2.943 2.943 0 0 1 2.953-2.359zm6.73 3.313a4.5 4.5 0 0 0 4.411 4.681A3.948 3.948 0 0 0 95 107.938v1.386h1.549V95.82H95v5.888a3.949 3.949 0 0 0-3.169-1.567 4.505 4.505 0 0 0-4.409 4.682zm7.706 0a3.075 3.075 0 1 1-3.061-3.259 3.074 3.074 0 0 1 3.067 3.259zm9.825 0a4.5 4.5 0 0 0 4.411 4.681 3.947 3.947 0 0 0 3.169-1.566v1.386h1.549v-9h-1.549v1.386a3.948 3.948 0 0 0-3.169-1.567 4.506 4.506 0 0 0-4.405 4.68zm7.706 0a3.075 3.075 0 1 1-3.061-3.259 3.074 3.074 0 0 1 3.067 3.259zm8.045 4.5H122l4.159-9h-1.728l-3.079 6.806-3.079-6.806h-1.728zm7.037-4.5a4.5 4.5 0 0 0 4.411 4.681 3.949 3.949 0 0 0 3.169-1.566v1.386h1.548v-9h-1.548v1.386a3.949 3.949 0 0 0-3.169-1.567 4.5 4.5 0 0 0-4.405 4.68zm7.706 0a3.075 3.075 0 1 1-3.061-3.259 3.074 3.074 0 0 1 3.067 3.259zm7.108-8.012a1.087 1.087 0 0 0-1.08-1.1 1.118 1.118 0 0 0-1.116 1.1 1.106 1.106 0 0 0 1.116 1.1 1.076 1.076 0 0 0 1.086-1.1zm-1.872 12.513h1.548v-9h-1.548v9zm5.382 0h1.548V95.82h-1.548v13.5zm4.679-4.5a4.5 4.5 0 0 0 4.412 4.681 3.95 3.95 0 0 0 3.169-1.566v1.386h1.548v-9h-1.548v1.386a3.951 3.951 0 0 0-3.169-1.567 4.506 4.506 0 0 0-4.406 4.679zm7.707 0a3.075 3.075 0 1 1-3.061-3.259 3.075 3.075 0 0 1 3.067 3.258zm6.784 3.115a3.947 3.947 0 0 0 3.169 1.566 4.69 4.69 0 0 0 0-9.363 3.948 3.948 0 0 0-3.169 1.567V95.82h-1.549v13.5h1.549v-1.386zm6-3.115a3.067 3.067 0 1 1-3.061-3.259 3.075 3.075 0 0 1 3.063 3.258zm6.568-8.012a1.087 1.087 0 0 0-1.081-1.1 1.118 1.118 0 0 0-1.116 1.1 1.106 1.106 0 0 0 1.116 1.1 1.076 1.076 0 0 0 1.083-1.101zm-1.873 12.513h1.549v-9h-1.549v9zm5.382 0h1.548V95.82h-1.548v13.5zm7.254-12.513a1.087 1.087 0 0 0-1.08-1.1 1.118 1.118 0 0 0-1.116 1.1 1.106 1.106 0 0 0 1.116 1.1 1.076 1.076 0 0 0 1.082-1.101zm-1.872 12.513h1.548v-9h-1.548v9zm10.261-.126v-1.386a3.422 3.422 0 0 1-1.1.18 1.3 1.3 0 0 1-1.5-1.531v-4.717h2.593v-1.422h-2.593v-2.5h-1.548v2.5H190.9v1.422h1.909v4.915a2.534 2.534 0 0 0 2.755 2.755 4.307 4.307 0 0 0 1.388-.215zm5.273 3.889l5.906-12.765H206.4l-3.079 6.824-3.1-6.824h-1.711l3.943 8.534-1.962 4.231h1.728zm9.612-4.969a1.332 1.332 0 1 0-1.332 1.35 1.357 1.357 0 0 0 1.334-1.351z"/></svg>