<svg id="Quote_copy_3" data-name="Quote copy 3" xmlns="http://www.w3.org/2000/svg" width="720" height="254" viewBox="0 0 720 254">
  <defs>
    <style>
      .cls-1 {
        fill: #b09f8a;
      }

      .cls-2, .cls-4 {
        fill: #fff;
      }

      .cls-3, .cls-4 {
        fill-rule: evenodd;
      }
    </style>
  </defs>
  <rect id="Rectangle_96_copy" data-name="Rectangle 96 copy" class="cls-1" width="720" height="254"/>
  <g id="CTA">
    <rect id="Rectangle_4_copy_5" data-name="Rectangle 4 copy 5" class="cls-2" x="174" y="139" width="375" height="50"/>
    <path id="Shop_our_Icon_Collection" data-name="Shop our Icon Collection" class="cls-3" d="M225.113,170.111c2.256,0,3.805-1.383,3.82-3.364a3.357,3.357,0,0,0-2.541-3.257l-0.752-.276c-1.128-.415-1.655-0.676-1.655-1.26a1.1,1.1,0,0,1,1.294-.829,2.358,2.358,0,0,1,1.85.906l1.564-1.689a4.412,4.412,0,0,0-3.444-1.506c-2.136,0-3.685,1.245-3.685,3.364,0,1.49.963,2.55,2.692,3.149l0.752,0.261c1.068,0.369,1.489.753,1.489,1.306a1.087,1.087,0,0,1-1.293.906,2.78,2.78,0,0,1-2.211-1.244l-1.835,1.582A4.648,4.648,0,0,0,225.113,170.111Zm8.109-.185h2.391V165.61h4.3v4.316h2.391v-10.9h-2.391v4.27h-4.3v-4.27h-2.391v10.905Zm18.892,0.185a5.639,5.639,0,1,0-5.519-5.637A5.593,5.593,0,0,0,252.114,170.111Zm0-2.366a3.276,3.276,0,1,1,3.1-3.271A3.2,3.2,0,0,1,252.114,167.745Zm17.193-4.992a3.673,3.673,0,0,0-3.76-3.732h-3.624v10.905h2.391V166.47h1.233A3.661,3.661,0,0,0,269.307,162.753Zm-2.316,0a1.419,1.419,0,0,1-1.474,1.429h-1.2v-2.857h1.2A1.409,1.409,0,0,1,266.991,162.753Zm16.923,7.358a5.639,5.639,0,1,0-5.52-5.637A5.593,5.593,0,0,0,283.914,170.111Zm0-2.366a3.276,3.276,0,1,1,3.1-3.271A3.2,3.2,0,0,1,283.914,167.745Zm14.08,2.366a4.233,4.233,0,0,0,4.391-4.5v-6.589h-2.391v6.62a2,2,0,1,1-4,0v-6.62H293.6v6.589A4.226,4.226,0,0,0,297.994,170.111Zm9.161-.185h2.392v-4.5h0.391l3.549,4.5h2.872l-3.775-4.807a2.807,2.807,0,0,0,2.091-2.811,3.186,3.186,0,0,0-3.309-3.287h-4.211v10.905Zm2.392-6.574v-2.089h1.534a1.072,1.072,0,0,1,1.218,1.045,1.088,1.088,0,0,1-1.218,1.044h-1.534Zm15.84,6.574h2.391v-10.9h-2.391v10.905Zm12.2,0.185a5.5,5.5,0,0,0,4.993-2.98l-2.106-1.168a3.163,3.163,0,0,1-2.887,1.782,3.276,3.276,0,0,1,0-6.543,3.163,3.163,0,0,1,2.887,1.782l2.106-1.168a5.5,5.5,0,0,0-4.993-2.98A5.639,5.639,0,0,0,337.585,170.111Zm13.944,0a5.639,5.639,0,1,0-5.519-5.637A5.593,5.593,0,0,0,351.529,170.111Zm0-2.366a3.276,3.276,0,1,1,3.1-3.271A3.2,3.2,0,0,1,351.529,167.745Zm19.464,2.181v-10.9h-2.406v6.727l-5.188-6.727h-2.061v10.905h2.391v-6.743l5.2,6.743h2.06Zm15.751,0.185a5.5,5.5,0,0,0,4.993-2.98l-2.106-1.168a3.163,3.163,0,0,1-2.887,1.782,3.276,3.276,0,0,1,0-6.543,3.163,3.163,0,0,1,2.887,1.782l2.106-1.168a5.5,5.5,0,0,0-4.993-2.98A5.639,5.639,0,0,0,386.744,170.111Zm13.944,0a5.639,5.639,0,1,0-5.519-5.637A5.593,5.593,0,0,0,400.688,170.111Zm0-2.366a3.276,3.276,0,1,1,3.1-3.271A3.2,3.2,0,0,1,400.688,167.745Zm9.809,2.181h6.813v-2.334h-4.422v-8.571H410.5v10.905Zm10.936,0h6.812v-2.334h-4.421v-8.571h-2.391v10.905Zm10.935,0h6.768v-2.334H434.76v-1.951h3.474v-2.335H434.76v-1.951h4.376v-2.334h-6.768v10.905Zm15.869,0.185a5.5,5.5,0,0,0,4.993-2.98l-2.105-1.168a3.164,3.164,0,0,1-2.888,1.782,3.276,3.276,0,0,1,0-6.543,3.164,3.164,0,0,1,2.888,1.782l2.105-1.168a5.5,5.5,0,0,0-4.993-2.98A5.639,5.639,0,0,0,448.237,170.111Zm10.952-.185H461.6v-8.571h2.752v-2.334h-7.88v2.334h2.722v8.571Zm9.252,0h2.391v-10.9h-2.391v10.905Zm12.2,0.185a5.639,5.639,0,1,0-5.519-5.637A5.593,5.593,0,0,0,480.639,170.111Zm0-2.366a3.276,3.276,0,1,1,3.1-3.271A3.2,3.2,0,0,1,480.639,167.745Zm19.464,2.181v-10.9H497.7v6.727l-5.188-6.727h-2.06v10.905h2.391v-6.743l5.2,6.743H500.1Z"/>
  </g>
  <path id="_Curious._Connected._Out_in_the_world._" data-name="“Curious. Connected. Out in the world.”" class="cls-4" d="M108.335,85.462a2.133,2.133,0,0,0-.325,1.129,1.852,1.852,0,1,0,3.7,0,1.914,1.914,0,0,0-1.026-1.681l1.677-3.589h-1.426Zm4.654,0a2.133,2.133,0,0,0-.325,1.129,1.852,1.852,0,1,0,3.7,0,1.914,1.914,0,0,0-1.026-1.681l1.677-3.589h-1.426Zm7.277,4.768a9.227,9.227,0,0,0,17.039,4.894l-1.951-1.18a7,7,0,1,1,0-7.429l1.951-1.18A9.227,9.227,0,0,0,120.266,90.231Zm20.86,4.066c0,3.112,1.851,5.095,4.6,5.095a4.3,4.3,0,0,0,3.853-2.183V99.14h2.152V86.592h-2.152v6.224c0,2.886-1.526,4.593-3.478,4.593-1.726,0-2.827-1.33-2.827-3.438V86.592h-2.152v7.7Zm15.907,4.844h2.152V92.916c0-2.936,1.727-4.317,3.3-4.317a3.136,3.136,0,0,1,1.176.2V86.566a4.446,4.446,0,0,0-.976-0.1,3.724,3.724,0,0,0-3.5,2.56V86.592h-2.152V99.14ZM170.041,81.7a1.514,1.514,0,0,0-1.5-1.531,1.557,1.557,0,0,0-1.551,1.531,1.54,1.54,0,0,0,1.551,1.531A1.5,1.5,0,0,0,170.041,81.7Zm-2.6,17.442h2.152V86.592h-2.152V99.14ZM187,92.866a6.543,6.543,0,1,0-6.531,6.525A6.43,6.43,0,0,0,187,92.866Zm-10.884,0a4.344,4.344,0,1,1,4.353,4.517A4.307,4.307,0,0,1,176.118,92.866ZM191.149,94.3c0,3.112,1.852,5.095,4.6,5.095a4.3,4.3,0,0,0,3.853-2.183V99.14h2.152V86.592h-2.152v6.224c0,2.886-1.526,4.593-3.478,4.593-1.726,0-2.827-1.33-2.827-3.438V86.592h-2.152v7.7Zm24.015,1.355c0-1.882-1.176-3.087-3.3-3.79l-1.351-.452c-1.477-.477-1.927-0.954-1.927-1.757,0-.929.926-1.456,2.1-1.456a3.376,3.376,0,0,1,2.652,1.305l1.4-1.355a4.846,4.846,0,0,0-4-1.807c-2.477,0-4.229,1.38-4.229,3.413,0,1.757,1.076,2.987,3.1,3.639l1.226,0.4c1.626,0.527,2.227,1.129,2.227,2.008,0,1.079-.976,1.707-2.2,1.707a3.358,3.358,0,0,1-3.2-1.983l-1.751.954a4.966,4.966,0,0,0,4.9,2.911C213.337,99.391,215.164,98.111,215.164,95.652Zm7.3,1.807a1.852,1.852,0,1,0-1.852,1.882A1.888,1.888,0,0,0,222.465,97.459Zm11.028-7.228a9.228,9.228,0,0,0,17.04,4.894l-1.952-1.18a7,7,0,1,1,0-7.429l1.952-1.18A9.228,9.228,0,0,0,233.493,90.231Zm33.121,2.635a6.543,6.543,0,1,0-6.531,6.525A6.43,6.43,0,0,0,266.614,92.866Zm-10.884,0a4.344,4.344,0,1,1,4.353,4.517A4.307,4.307,0,0,1,255.73,92.866Zm15.206,6.274h2.152V92.916c0-2.936,1.6-4.593,3.628-4.593,1.752,0,2.953,1.305,2.953,3.413v7.4H281.8V91.41c0-3.112-1.926-5.07-4.729-5.07a4.421,4.421,0,0,0-3.978,2.183V86.592h-2.152V99.14Zm15.983,0h2.151V92.916c0-2.936,1.6-4.593,3.629-4.593,1.751,0,2.952,1.305,2.952,3.413v7.4h2.127V91.41c0-3.112-1.927-5.07-4.729-5.07a4.421,4.421,0,0,0-3.979,2.183V86.592h-2.151V99.14Zm15.006-6.274A6.592,6.592,0,0,0,314.036,96.4l-1.7-1.18a4.426,4.426,0,0,1-8.232-1.932h10.259a6.147,6.147,0,0,0,.025-0.653c-0.025-4.016-2.677-6.3-5.955-6.3A6.35,6.35,0,0,0,301.925,92.866Zm6.431-4.618a3.746,3.746,0,0,1,3.828,3.288h-7.932A4.093,4.093,0,0,1,308.356,88.248Zm21.687,7.78-1.876-1.054a4.241,4.241,0,0,1-3.9,2.409,4.52,4.52,0,0,1,0-9.035,4.241,4.241,0,0,1,3.9,2.409l1.876-1.054A6.526,6.526,0,1,0,330.043,96.028Zm10.8,2.936V97.032a4.741,4.741,0,0,1-1.526.251c-1.351,0-2.077-.527-2.077-2.133V88.574h3.6V86.592h-3.6V83.1h-2.152v3.489h-2.652v1.983h2.652v6.851a3.527,3.527,0,0,0,3.829,3.84A5.967,5.967,0,0,0,340.846,98.964Zm2.849-6.1a6.591,6.591,0,0,0,12.11,3.539l-1.7-1.18a4.426,4.426,0,0,1-8.232-1.932h10.259a6.147,6.147,0,0,0,.025-0.653c-0.025-4.016-2.678-6.3-5.955-6.3A6.349,6.349,0,0,0,343.7,92.866Zm6.431-4.618a3.746,3.746,0,0,1,3.828,3.288h-7.932A4.092,4.092,0,0,1,350.126,88.248Zm9.351,4.618a6.272,6.272,0,0,0,6.131,6.525,5.479,5.479,0,0,0,4.4-2.183V99.14h2.152V80.317h-2.152v8.207a5.479,5.479,0,0,0-4.4-2.183A6.272,6.272,0,0,0,359.477,92.866Zm10.71,0a4.275,4.275,0,1,1-4.254-4.543A4.279,4.279,0,0,1,370.187,92.866Zm10.252,4.593a1.852,1.852,0,1,0-1.852,1.882A1.888,1.888,0,0,0,380.439,97.459Zm29.394-7.228a9.183,9.183,0,1,0-9.183,9.211A9.108,9.108,0,0,0,409.833,90.231Zm-16.014,0a6.845,6.845,0,1,1,6.831,7A6.822,6.822,0,0,1,393.819,90.231ZM414.054,94.3c0,3.112,1.851,5.095,4.6,5.095a4.3,4.3,0,0,0,3.854-2.183V99.14h2.152V86.592h-2.152v6.224c0,2.886-1.527,4.593-3.478,4.593-1.727,0-2.828-1.33-2.828-3.438V86.592h-2.151v7.7Zm22.688,4.668V97.032a4.741,4.741,0,0,1-1.526.251c-1.352,0-2.077-.527-2.077-2.133V88.574h3.6V86.592h-3.6V83.1h-2.152v3.489h-2.652v1.983h2.652v6.851a3.527,3.527,0,0,0,3.828,3.84A5.973,5.973,0,0,0,436.742,98.964ZM450.7,81.7a1.514,1.514,0,0,0-1.5-1.531,1.557,1.557,0,0,0-1.551,1.531,1.54,1.54,0,0,0,1.551,1.531A1.5,1.5,0,0,0,450.7,81.7Zm-2.6,17.442h2.152V86.592h-2.152V99.14Zm7.479,0h2.152V92.916c0-2.936,1.6-4.593,3.628-4.593,1.751,0,2.952,1.305,2.952,3.413v7.4h2.127V91.41c0-3.112-1.927-5.07-4.729-5.07a4.42,4.42,0,0,0-3.978,2.183V86.592h-2.152V99.14Zm29.691-.176V97.032a4.741,4.741,0,0,1-1.526.251c-1.351,0-2.077-.527-2.077-2.133V88.574h3.6V86.592h-3.6V83.1h-2.152v3.489h-2.652v1.983h2.652v6.851a3.527,3.527,0,0,0,3.828,3.84A5.969,5.969,0,0,0,485.264,98.964Zm4,0.176h2.152V92.916c0-2.936,1.6-4.593,3.628-4.593,1.752,0,2.953,1.305,2.953,3.413v7.4h2.127V91.41c0-3.112-1.927-5.07-4.729-5.07a4.421,4.421,0,0,0-3.979,2.183V80.317h-2.152V99.14Zm15.007-6.274A6.591,6.591,0,0,0,516.38,96.4l-1.7-1.18a4.426,4.426,0,0,1-8.232-1.932h10.259a6.147,6.147,0,0,0,.025-0.653c-0.025-4.016-2.678-6.3-5.955-6.3A6.349,6.349,0,0,0,504.27,92.866Zm6.43-4.618a3.747,3.747,0,0,1,3.829,3.288H506.6A4.092,4.092,0,0,1,510.7,88.248ZM538.541,99.14h1.9L544.7,86.592h-2.277l-3.028,9.16-3.127-9.16h-1.652l-3.127,9.16-3.028-9.16h-2.252l4.254,12.549h1.9l3.1-9.035Zm21.76-6.274a6.543,6.543,0,1,0-6.53,6.525A6.43,6.43,0,0,0,560.3,92.866Zm-10.884,0a4.344,4.344,0,1,1,4.354,4.517A4.307,4.307,0,0,1,549.417,92.866Zm15.207,6.274h2.151V92.916c0-2.936,1.727-4.317,3.3-4.317a3.133,3.133,0,0,1,1.176.2V86.566a4.44,4.44,0,0,0-.976-0.1,3.724,3.724,0,0,0-3.5,2.56V86.592h-2.151V99.14Zm10.4,0h2.152V80.317h-2.152V99.14Zm6.5-6.274a6.271,6.271,0,0,0,6.13,6.525,5.481,5.481,0,0,0,4.4-2.183V99.14h2.152V80.317h-2.152v8.207a5.481,5.481,0,0,0-4.4-2.183A6.271,6.271,0,0,0,581.531,92.866Zm10.709,0a4.274,4.274,0,1,1-4.253-4.543A4.279,4.279,0,0,1,592.24,92.866Zm10.252,4.593a1.852,1.852,0,1,0-1.851,1.882A1.888,1.888,0,0,0,602.492,97.459Zm4.753-13.427a2.224,2.224,0,0,0,.35-1.129,1.864,1.864,0,1,0-3.728,0,1.944,1.944,0,0,0,1.026,1.681l-1.676,3.589h1.451Zm4.654,0a2.224,2.224,0,0,0,.35-1.129,1.864,1.864,0,1,0-3.728,0,1.944,1.944,0,0,0,1.026,1.681l-1.676,3.589h1.451Z"/>
</svg>
