<svg id="copy_copy_4" data-name="copy copy 4" xmlns="http://www.w3.org/2000/svg" width="768" height="221" viewBox="0 0 768 221">
  <defs>
    <style>
      .cls-1 {
        fill: #fff;
      }

      .cls-1, .cls-2 {
        fill-rule: evenodd;
      }
    </style>
  </defs>
  <path id="Rectangle_106_copy_5" data-name="Rectangle 106 copy 5" class="cls-1" d="M0,0H767.831l0.184,221H0.183Z"/>
  <g id="CTA">
    <rect id="Rectangle_4_copy_4" data-name="Rectangle 4 copy 4" x="39" y="127" width="122" height="4"/>
    <path id="Shop_now" data-name="Shop now" class="cls-2" d="M44.017,120.54c2.706,0,4.564-1.62,4.582-3.941,0.018-1.926-1.19-3.149-3.048-3.815l-0.9-.324c-1.353-.486-1.984-0.792-1.984-1.476,0-.666.776-0.972,1.551-0.972a2.851,2.851,0,0,1,2.219,1.062L48.31,109.1a5.349,5.349,0,0,0-4.131-1.764c-2.561,0-4.419,1.458-4.419,3.941,0,1.746,1.154,2.987,3.229,3.689l0.9,0.306c1.281,0.432,1.786.882,1.786,1.53,0,0.611-.6,1.061-1.551,1.061a3.354,3.354,0,0,1-2.652-1.457l-2.2,1.853A5.62,5.62,0,0,0,44.017,120.54Zm9.726-.216H56.61v-5.057h5.159v5.057h2.868V107.547H61.769v5H56.61v-5H53.742v12.777ZM76.4,120.54a6.6,6.6,0,1,0-6.62-6.605A6.629,6.629,0,0,0,76.4,120.54Zm0-2.772a3.835,3.835,0,1,1,3.716-3.833A3.795,3.795,0,0,1,76.4,117.768Zm20.622-5.848a4.357,4.357,0,0,0-4.51-4.373H88.167v12.777h2.868v-4.049h1.479A4.342,4.342,0,0,0,97.024,111.92Zm-2.778,0a1.683,1.683,0,0,1-1.768,1.673H91.035v-3.347h1.443A1.673,1.673,0,0,1,94.246,111.92Zm25.979,8.4V107.547h-2.886v7.882l-6.223-7.882h-2.472v12.777h2.869v-7.9l6.241,7.9h2.471Zm11.765,0.216a6.6,6.6,0,1,0-6.62-6.605A6.629,6.629,0,0,0,131.99,120.54Zm0-2.772a3.835,3.835,0,1,1,3.716-3.833A3.794,3.794,0,0,1,131.99,117.768Zm21.686,2.556H156.4l2.976-12.777h-3.067l-1.749,8.1-3.608-8.314-3.589,8.314-1.75-8.1h-3.067l2.959,12.777h2.723l2.724-6.263Z"/>
  </g>
  <path id="Slim-Fit_Chambray_Shirt" data-name="Slim-Fit Chambray Shirt" class="cls-2" d="M50.224,67.024c5.76,0,9.715-3.456,9.753-8.409,0.038-4.108-2.534-6.719-6.489-8.14l-1.92-.691c-2.88-1.037-4.224-1.689-4.224-3.148,0-1.421,1.651-2.073,3.3-2.073a6.064,6.064,0,0,1,4.723,2.265L59.362,42.6a11.375,11.375,0,0,0-8.793-3.763c-5.452,0-9.407,3.11-9.407,8.409,0,3.724,2.457,6.374,6.873,7.871l1.92,0.653c2.726,0.922,3.8,1.881,3.8,3.264,0,1.306-1.267,2.265-3.3,2.265a7.132,7.132,0,0,1-5.644-3.11l-4.684,3.955A11.955,11.955,0,0,0,50.224,67.024Zm15.322-.461H82.94V60.727H71.651V39.3H65.546V66.564Zm22.54,0h6.105V39.3H88.086V66.564Zm27.3-5.8,7.948-11.02V66.564h6.144V39.3h-5.568l-8.524,11.749L106.863,39.3H101.3V66.564H107.4V49.746ZM135.931,55.7H147.22V50.168H135.931V55.7Zm17.741,10.866h6.1V55.889h8.332V50.053h-8.332V45.138h10.674V39.3H153.672V66.564Zm22.272,0h6.105V39.3h-6.105V66.564Zm18.124,0h6.143V45.138h7.027V39.3h-20.12v5.836h6.95V66.564Zm39.474,0.461a14.092,14.092,0,0,0,12.748-7.449l-5.376-2.918a8.179,8.179,0,1,1,0-7.449l5.376-2.918A14.213,14.213,0,1,0,233.542,67.024Zm17.665-.461h6.105V55.774h10.982V66.564H274.4V39.3h-6.105V49.976H257.312V39.3h-6.105V66.564Zm27.379,0h6.374l2.419-5.759h11.289l2.419,5.759h6.374L295.788,39.3h-5.529Zm11.02-11.058,3.417-8.217,3.418,8.217h-6.835Zm36.134,5.26,7.948-11.02V66.564h6.144V39.3h-5.568L325.74,51.051,317.216,39.3h-5.568V66.564h6.1V49.746Zm21.2,5.8h11.98a8.06,8.06,0,0,0,8.294-8.025,7.124,7.124,0,0,0-3.878-6.451,6.417,6.417,0,0,0,1.958-4.684,8.1,8.1,0,0,0-8.1-8.1H346.937V66.564Zm6.106-16.242V44.87H356.5a2.771,2.771,0,0,1,2.842,2.765,2.733,2.733,0,0,1-2.842,2.688h-3.455Zm0,10.636V55.505h5.337a2.774,2.774,0,0,1,2.88,2.726,2.74,2.74,0,0,1-2.842,2.726h-5.375Zm19.622,5.606h6.1V55.313h1l9.061,11.25h7.334l-9.637-12.018c3.455-1.229,5.337-3.494,5.337-7.026a8.049,8.049,0,0,0-8.448-8.217H372.665V66.564Zm6.1-16.434V44.908h3.917c1.805,0,3.11.96,3.11,2.611,0,1.574-1.305,2.611-3.11,2.611H378.77Zm17.741,16.434h6.374L405.3,60.8h11.289l2.419,5.759h6.374L413.713,39.3h-5.529Zm11.02-11.058,3.418-8.217,3.417,8.217h-6.835Zm25.882,11.058h6.144V55.121L449.5,39.3h-7.1l-5.951,9.829L430.572,39.3h-7.1l9.945,15.781V66.564Zm37.632,0.461c5.759,0,9.714-3.456,9.752-8.409,0.039-4.108-2.534-6.719-6.489-8.14l-1.92-.691c-2.879-1.037-4.223-1.689-4.223-3.148,0-1.421,1.651-2.073,3.3-2.073a6.064,6.064,0,0,1,4.723,2.265l3.993-4.224a11.376,11.376,0,0,0-8.793-3.763c-5.452,0-9.407,3.11-9.407,8.409,0,3.724,2.457,6.374,6.873,7.871l1.92,0.653c2.726,0.922,3.8,1.881,3.8,3.264,0,1.306-1.267,2.265-3.3,2.265a7.13,7.13,0,0,1-5.644-3.11l-4.685,3.955A11.955,11.955,0,0,0,471.045,67.024Zm15.321-.461h6.105V55.774h10.982V66.564h6.105V39.3h-6.105V49.976H492.471V39.3h-6.105V66.564Zm30.3,0h6.105V39.3h-6.105V66.564Zm13.209,0h6.1V55.313h1l9.061,11.25h7.334l-9.638-12.018c3.456-1.229,5.338-3.494,5.338-7.026a8.049,8.049,0,0,0-8.448-8.217H529.873V66.564Zm6.1-16.434V44.908H539.9c1.8,0,3.11.96,3.11,2.611,0,1.574-1.306,2.611-3.11,2.611h-3.917Zm24.73,16.434h6.143V45.138h7.027V39.3h-20.12v5.836h6.95V66.564Z"/>
</svg>
