<svg id="copy_copy_2" data-name="copy copy 2" xmlns="http://www.w3.org/2000/svg" width="768" height="256" viewBox="0 0 768 256">
  <defs>
    <style>
      .cls-1 {
        fill: #fff;
      }

      .cls-2 {
        fill-rule: evenodd;
      }
    </style>
  </defs>
  <rect id="Rectangle_106_copy_12" data-name="Rectangle 106 copy 12" class="cls-1" width="768" height="256"/>
  <g id="CTA_copy" data-name="CTA copy">
    <rect id="Rectangle_4_copy_4" data-name="Rectangle 4 copy 4" x="39" y="162" width="122" height="4"/>
    <path id="Shop_now" data-name="Shop now" class="cls-2" d="M44.017,155.54c2.706,0,4.564-1.62,4.582-3.941,0.018-1.926-1.19-3.149-3.048-3.815l-0.9-.324c-1.353-.486-1.984-0.792-1.984-1.476,0-.666.776-0.972,1.551-0.972a2.851,2.851,0,0,1,2.219,1.062L48.31,144.1a5.349,5.349,0,0,0-4.131-1.764c-2.561,0-4.419,1.458-4.419,3.941,0,1.746,1.154,2.987,3.229,3.689l0.9,0.306c1.281,0.432,1.786.882,1.786,1.53,0,0.611-.6,1.061-1.551,1.061a3.354,3.354,0,0,1-2.652-1.457l-2.2,1.853A5.62,5.62,0,0,0,44.017,155.54Zm9.726-.216H56.61v-5.057h5.159v5.057h2.868V142.547H61.769v5H56.61v-5H53.742v12.777ZM76.4,155.54a6.6,6.6,0,1,0-6.62-6.6A6.629,6.629,0,0,0,76.4,155.54Zm0-2.772a3.835,3.835,0,1,1,3.716-3.833A3.795,3.795,0,0,1,76.4,152.768Zm20.622-5.848a4.357,4.357,0,0,0-4.51-4.373H88.167v12.777h2.868v-4.049h1.479A4.342,4.342,0,0,0,97.024,146.92Zm-2.778,0a1.683,1.683,0,0,1-1.768,1.673H91.035v-3.347h1.443A1.673,1.673,0,0,1,94.246,146.92Zm25.979,8.4V142.547h-2.886v7.882l-6.223-7.882h-2.472v12.777h2.869v-7.9l6.241,7.9h2.471Zm11.765,0.216a6.6,6.6,0,1,0-6.62-6.6A6.629,6.629,0,0,0,131.99,155.54Zm0-2.772a3.835,3.835,0,1,1,3.716-3.833A3.794,3.794,0,0,1,131.99,152.768Zm21.686,2.556H156.4l2.976-12.777h-3.067l-1.749,8.1-3.608-8.314-3.589,8.314-1.75-8.1h-3.067l2.959,12.777h2.723l2.724-6.263Z"/>
  </g>
  <path id="Extra-fine_Italian_Merino_Wool_Sweater" data-name="Extra-fine Italian Merino Wool Sweater" class="cls-2" d="M39.284,68.333H56.562V62.5H45.389V57.621h8.87V51.784h-8.87V46.908H56.562V41.072H39.284V68.333Zm41.24,0h7.1L77.452,54.549l9.561-13.477H79.948l-6.182,8.754-6.182-8.754H60.519l9.6,13.477L59.9,68.333h7.142L73.8,59.31Zm16.474,0h6.144V46.908h7.026V41.072H90.048v5.836H97V68.333Zm18.816,0h6.105V57.083h1l9.062,11.25h7.333l-9.637-12.018c3.455-1.229,5.337-3.494,5.337-7.026a8.049,8.049,0,0,0-8.447-8.217H115.814V68.333ZM121.919,51.9V46.678h3.917c1.805,0,3.11.96,3.11,2.611,0,1.574-1.3,2.611-3.11,2.611h-3.917Zm18.317,16.434h6.374l2.419-5.759h11.289l2.419,5.759h6.374L157.438,41.072h-5.529Zm11.02-11.058,3.418-8.217,3.417,8.217h-6.835Zm20.392,0.192h11.289V51.938H171.648v5.529Zm18.316,10.866h6.106V57.659H204.4V51.823H196.07V46.908h10.674V41.072h-16.78V68.333Zm22.848,0h6.1V41.072h-6.1V68.333Zm38.437,0V41.072h-6.144V57.889L231.858,41.072H226.6V68.333h6.1V51.477l13.285,16.856h5.261Zm7.681,0h17.279V62.5H265.035V57.621h8.87V51.784h-8.87V46.908h11.174V41.072H258.93V68.333Zm34.214,0h6.105V41.072h-6.105V68.333Zm18.7,0h6.143V46.908h7.027V41.072h-20.12v5.836h6.95V68.333Zm13.133,0h6.374l2.419-5.759h11.289l2.419,5.759h6.374L342.179,41.072H336.65ZM336,57.275l3.418-8.217,3.417,8.217H336Zm22.619,11.058h17.393V62.5H364.721V41.072h-6.105V68.333Zm23.116,0h6.1V41.072h-6.1V68.333Zm10.867,0h6.374l2.419-5.759h11.289l2.419,5.759h6.374L409.8,41.072h-5.529Zm11.02-11.058,3.417-8.217,3.418,8.217h-6.835Zm47.269,11.058V41.072h-6.143V57.889L431.5,41.072h-5.261V68.333h6.1V51.477l13.286,16.856h5.26ZM53.375,96.134l7.948-11.02v16.817h6.144V74.671H61.9L53.375,86.42,44.851,74.671H39.284v27.261h6.105V85.115Zm21.773,5.8H92.428V96.1H81.254V91.22h8.87V85.384h-8.87V80.507H92.428V74.671H75.149v27.261Zm23.846,0h6.1V90.682h1l9.061,11.25h7.334l-9.638-12.018c3.456-1.229,5.338-3.494,5.338-7.026a8.049,8.049,0,0,0-8.448-8.217H99v27.261ZM105.1,85.5V80.277h3.917c1.8,0,3.11.96,3.11,2.611,0,1.574-1.306,2.611-3.11,2.611H105.1Zm21.235,16.433h6.106V74.671h-6.106v27.261Zm38.437,0V74.671h-6.144V91.489L145.381,74.671h-5.26v27.261h6.1V85.076l13.285,16.856h5.261Zm20.237,0.461A14.091,14.091,0,1,0,170.917,88.3,14.126,14.126,0,0,0,185.009,102.393Zm0-5.913a8.183,8.183,0,1,1,7.91-8.178A8.088,8.088,0,0,1,185.009,96.48Zm51.378,5.452h5.8l6.335-27.261h-6.527l-3.725,17.278L230.589,74.21l-7.641,17.739-3.725-17.278H212.7l6.3,27.261h5.8l5.8-13.362Zm29.761,0.461A14.091,14.091,0,1,0,252.056,88.3,14.125,14.125,0,0,0,266.148,102.393Zm0-5.913a8.183,8.183,0,1,1,7.909-8.178A8.089,8.089,0,0,1,266.148,96.48Zm32.793,5.913A14.091,14.091,0,1,0,284.849,88.3,14.125,14.125,0,0,0,298.941,102.393Zm0-5.913A8.183,8.183,0,1,1,306.85,88.3,8.089,8.089,0,0,1,298.941,96.48Zm20.237,5.452h17.394V96.1H325.283V74.671h-6.105v27.261Zm40.587,0.461c5.76,0,9.715-3.456,9.753-8.409,0.038-4.108-2.534-6.719-6.489-8.14l-1.92-.691c-2.88-1.037-4.224-1.689-4.224-3.148,0-1.421,1.652-2.073,3.3-2.073A6.063,6.063,0,0,1,364.91,82.2l3.994-4.224a11.376,11.376,0,0,0-8.793-3.763c-5.453,0-9.408,3.11-9.408,8.409,0,3.725,2.458,6.374,6.874,7.871l1.919,0.653c2.727,0.922,3.8,1.881,3.8,3.264,0,1.305-1.267,2.265-3.3,2.265a7.134,7.134,0,0,1-5.645-3.11l-4.684,3.955A11.955,11.955,0,0,0,359.765,102.393Zm36.94-.461h5.8l6.336-27.261h-6.528l-3.724,17.278-7.68-17.739-7.641,17.739-3.724-17.278h-6.528l6.3,27.261h5.8l5.8-13.362Zm17.512,0H431.5V96.1H420.322V91.22h8.87V85.384h-8.87V80.507H431.5V74.671H414.217v27.261Zm20.928,0h6.374l2.419-5.759h11.289l2.419,5.759h6.374L452.347,74.671h-5.529Zm11.02-11.058,3.417-8.217L453,90.874h-6.835Zm24.807,11.058h6.143V80.507h7.027V74.671h-20.12v5.836h6.95v21.425Zm18.816,0h17.279V96.1H495.893V91.22h8.87V85.384h-8.87V80.507h11.174V74.671H489.788v27.261Zm23.846,0h6.105V90.682h1l9.061,11.25h7.334L527.5,89.914c3.455-1.229,5.337-3.494,5.337-7.026a8.049,8.049,0,0,0-8.448-8.217H513.634v27.261ZM519.739,85.5V80.277h3.917c1.805,0,3.11.96,3.11,2.611,0,1.574-1.3,2.611-3.11,2.611h-3.917Z"/>
</svg>
