<svg id="copy_copy_2" data-name="copy copy 2" xmlns="http://www.w3.org/2000/svg" width="768" height="222" viewBox="0 0 768 222">
  <defs>
    <style>
      .cls-1 {
        fill: #fff;
      }

      .cls-2 {
        fill-rule: evenodd;
      }
    </style>
  </defs>
  <rect id="Rectangle_106_copy_12" data-name="Rectangle 106 copy 12" class="cls-1" width="768" height="222"/>
  <g id="CTA_underline_copy" data-name="CTA_underline copy">
    <rect id="Rectangle_4_copy_4" data-name="Rectangle 4 copy 4" x="39" y="128" width="122" height="4"/>
    <path id="Shop_now" data-name="Shop now" class="cls-2" d="M43.817,120.853c2.706,0,4.564-1.653,4.582-4.023,0.018-1.965-1.19-3.214-3.048-3.894l-0.9-.33c-1.353-.5-1.984-0.808-1.984-1.506,0-.68.776-0.992,1.551-0.992a2.831,2.831,0,0,1,2.219,1.083l1.876-2.02a5.3,5.3,0,0,0-4.131-1.8c-2.561,0-4.419,1.488-4.419,4.022,0,1.782,1.154,3.049,3.229,3.766l0.9,0.312c1.281,0.441,1.786.9,1.786,1.561,0,0.625-.6,1.084-1.551,1.084a3.335,3.335,0,0,1-2.652-1.488l-2.2,1.892A5.583,5.583,0,0,0,43.817,120.853Zm9.726-.221H56.41v-5.161h5.159v5.161h2.868V107.591H61.569V112.7H56.41v-5.107H53.542v13.041Zm22.66,0.221a6.742,6.742,0,1,0-6.62-6.741A6.7,6.7,0,0,0,76.2,120.853Zm0-2.829a3.917,3.917,0,1,1,3.716-3.912A3.837,3.837,0,0,1,76.2,118.024Zm20.622-5.969a4.4,4.4,0,0,0-4.51-4.464H87.967v13.041h2.868V116.5h1.479A4.385,4.385,0,0,0,96.824,112.055Zm-2.778,0a1.7,1.7,0,0,1-1.768,1.708H90.835v-3.416h1.443A1.688,1.688,0,0,1,94.046,112.055Zm25.979,8.577V107.591h-2.886v8.045l-6.223-8.045h-2.472v13.041h2.869v-8.063l6.241,8.063h2.471Zm11.765,0.221a6.742,6.742,0,1,0-6.62-6.741A6.7,6.7,0,0,0,131.79,120.853Zm0-2.829a3.917,3.917,0,1,1,3.716-3.912A3.837,3.837,0,0,1,131.79,118.024Zm21.686,2.608H156.2l2.976-13.041h-3.067l-1.749,8.266-3.608-8.486-3.589,8.486-1.75-8.266h-3.067l2.959,13.041h2.723l2.724-6.392Z"/>
  </g>
  <path id="Leather_Duffle_Bag" data-name="Leather Duffle Bag" class="cls-2" d="M38.884,68.092H56.278V62.256H44.989V40.831H38.884V68.092Zm23.116,0H79.279V62.256H68.105V57.38h8.87V51.544h-8.87V46.667H79.279V40.831H62V68.092Zm20.928,0H89.3l2.419-5.759H103.01l2.419,5.759H111.8L100.13,40.831H94.6Zm11.02-11.058,3.417-8.217,3.418,8.217H93.948Zm24.807,11.058H124.9V46.667h7.027V40.831h-20.12v5.836h6.95V68.092Zm18.816,0h6.1V57.3h10.982V68.092h6.105V40.831h-6.105V51.505H143.676V40.831h-6.1V68.092Zm30.873,0h17.279V62.256H174.55V57.38h8.869V51.544H174.55V46.667h11.173V40.831H168.444V68.092Zm23.847,0h6.1V56.842h1l9.062,11.25h7.334l-9.638-12.018c3.456-1.229,5.337-3.494,5.337-7.026a8.049,8.049,0,0,0-8.447-8.217H192.291V68.092Zm6.1-16.434V46.437h3.916c1.8,0,3.111.96,3.111,2.611,0,1.574-1.306,2.611-3.111,2.611H198.4Zm30.835,16.434h9.292a13.633,13.633,0,1,0,0-27.261h-9.292V68.092Zm6.105-5.606V46.437h3.187a7.693,7.693,0,0,1,7.718,8.025,7.693,7.693,0,0,1-7.718,8.025h-3.187Zm34.176,6.067c6.527,0,11.212-4.454,11.212-11.25V40.831h-6.106V57.38c0,3.264-2.073,5.26-5.106,5.26s-5.107-2-5.107-5.26V40.831h-6.1V57.3C258.3,64.1,262.946,68.553,269.512,68.553Zm18.585-.461H294.2V57.418h8.332V51.582H294.2V46.667h10.674V40.831H288.1V68.092Zm22.848,0h6.106V57.418h8.332V51.582h-8.332V46.667h10.674V40.831h-16.78V68.092Zm22.848,0h17.394V62.256H339.9V40.831h-6.106V68.092Zm23.117,0h17.278V62.256H363.015V57.38h8.87V51.544h-8.87V46.667h11.173V40.831H356.91V68.092Zm34.213,0H403.1a8.06,8.06,0,0,0,8.294-8.025,7.123,7.123,0,0,0-3.878-6.45,6.417,6.417,0,0,0,1.958-4.684,8.1,8.1,0,0,0-8.1-8.1H391.123V68.092Zm6.106-16.242V46.4h3.455a2.771,2.771,0,0,1,2.842,2.764,2.733,2.733,0,0,1-2.842,2.688h-3.455Zm0,10.636V57.034h5.337a2.774,2.774,0,0,1,2.88,2.726,2.74,2.74,0,0,1-2.842,2.726h-5.375Zm16.512,5.606h6.374l2.419-5.759h11.289l2.419,5.759h6.374L430.943,40.831h-5.529Zm11.02-11.058,3.418-8.217,3.417,8.217h-6.835Zm34.714,11.519c4.415,0,8.754-1.305,11.173-4.032V51.582H459.36V57.3H464.7v4.032c-1.152.922-3.149,1.306-5.3,1.306-5.337,0-8.6-3.532-8.6-8.178a8,8,0,0,1,8.217-8.178,9.054,9.054,0,0,1,6.873,2.918l4.3-4.185a14.506,14.506,0,0,0-11.174-4.646,13.926,13.926,0,0,0-14.361,14.091C444.653,62.448,450.989,68.553,459.475,68.553Z"/>
</svg>
