<svg id="copy_copy_2" data-name="copy copy 2" xmlns="http://www.w3.org/2000/svg" width="768" height="469" viewBox="0 0 768 469">
  <defs>
    <style>
      .cls-1 {
        fill: #fff;
      }

      .cls-2 {
        fill-rule: evenodd;
      }
    </style>
  </defs>
  <rect id="Rectangle_106_copy_5" data-name="Rectangle 106 copy 5" class="cls-1" width="768" height="469"/>
  <g id="CTA_underline_copy_2" data-name="CTA_underline copy 2">
    <rect id="Rectangle_4_copy_4" data-name="Rectangle 4 copy 4" x="39" y="375" width="122" height="4"/>
    <path id="Shop_now" data-name="Shop now" class="cls-2" d="M43.817,367.853c2.706,0,4.564-1.653,4.582-4.023,0.018-1.965-1.19-3.214-3.048-3.894l-0.9-.33c-1.353-.5-1.984-0.808-1.984-1.506,0-.68.776-0.992,1.551-0.992a2.831,2.831,0,0,1,2.219,1.083l1.876-2.02a5.3,5.3,0,0,0-4.131-1.8c-2.561,0-4.419,1.488-4.419,4.022,0,1.782,1.154,3.049,3.229,3.766l0.9,0.312c1.281,0.441,1.786.9,1.786,1.561,0,0.625-.6,1.084-1.551,1.084a3.335,3.335,0,0,1-2.652-1.488l-2.2,1.892A5.583,5.583,0,0,0,43.817,367.853Zm9.726-.221H56.41v-5.161h5.159v5.161h2.868V354.591H61.569V359.7H56.41v-5.107H53.542v13.041Zm22.66,0.221a6.742,6.742,0,1,0-6.62-6.741A6.7,6.7,0,0,0,76.2,367.853Zm0-2.829a3.917,3.917,0,1,1,3.716-3.912A3.837,3.837,0,0,1,76.2,365.024Zm20.622-5.969a4.4,4.4,0,0,0-4.51-4.464H87.967v13.041h2.868V363.5h1.479A4.385,4.385,0,0,0,96.824,359.055Zm-2.778,0a1.7,1.7,0,0,1-1.768,1.708H90.835v-3.416h1.443A1.688,1.688,0,0,1,94.046,359.055Zm25.979,8.577V354.591h-2.886v8.045l-6.223-8.045h-2.472v13.041h2.869v-8.063l6.241,8.063h2.471Zm11.765,0.221a6.742,6.742,0,1,0-6.62-6.741A6.7,6.7,0,0,0,131.79,367.853Zm0-2.829a3.917,3.917,0,1,1,3.716-3.912A3.837,3.837,0,0,1,131.79,365.024Zm21.686,2.608H156.2l2.976-13.041h-3.067l-1.749,8.266-3.608-8.486-3.589,8.486-1.75-8.266h-3.067l2.959,13.041h2.723l2.724-6.392Z"/>
  </g>
  <path id="Slim_Herringbone_Italian_Wool_Flannel_Suit_Italian_wool_b._201" data-name="Slim Herringbone Italian Wool Flannel Suit Italian wool, b. 201" class="cls-2" d="M50.024,68.553c5.76,0,9.715-3.456,9.753-8.409,0.038-4.108-2.534-6.719-6.489-8.14l-1.92-.691c-2.88-1.037-4.224-1.689-4.224-3.148,0-1.421,1.651-2.073,3.3-2.073a6.064,6.064,0,0,1,4.723,2.265l3.993-4.224a11.376,11.376,0,0,0-8.793-3.763c-5.452,0-9.407,3.11-9.407,8.409,0,3.724,2.457,6.374,6.873,7.871l1.92,0.653c2.726,0.922,3.8,1.881,3.8,3.264,0,1.306-1.267,2.265-3.3,2.265a7.132,7.132,0,0,1-5.644-3.11l-4.684,3.955A11.954,11.954,0,0,0,50.024,68.553Zm15.9-.461H83.316V62.256H72.027V40.831H65.922V68.092Zm23.116,0h6.105V40.831H89.038V68.092Zm27.877-5.8,7.948-11.02V68.092h6.144V40.831h-5.568L116.915,52.58l-8.524-11.749h-5.568V68.092h6.105V51.275Zm32.141,5.8h6.1V57.3h10.981V68.092h6.106V40.831h-6.106V51.505H155.161V40.831h-6.1V68.092Zm30.873,0h17.279V62.256H186.034V57.38h8.87V51.544h-8.87V46.667h11.174V40.831H179.929V68.092Zm23.847,0h6.1V56.842h1l9.062,11.25h7.334l-9.638-12.018c3.456-1.229,5.337-3.494,5.337-7.026a8.049,8.049,0,0,0-8.447-8.217H203.776V68.092Zm6.1-16.434V46.437H213.8c1.805,0,3.11.96,3.11,2.611,0,1.574-1.305,2.611-3.11,2.611h-3.916Zm21.235,16.434h6.1V56.842h1l9.062,11.25h7.334l-9.638-12.018c3.456-1.229,5.337-3.494,5.337-7.026a8.049,8.049,0,0,0-8.447-8.217H231.116V68.092Zm6.1-16.434V46.437h3.917c1.8,0,3.11.96,3.11,2.611,0,1.574-1.306,2.611-3.11,2.611h-3.917Zm21.235,16.434h6.1V40.831h-6.1V68.092Zm38.436,0V40.831h-6.143V57.649L277.5,40.831h-5.261V68.092h6.106V51.236l13.285,16.856h5.26ZM317.9,68.553c4.415,0,8.754-1.305,11.173-4.032V51.582H317.783V57.3h5.337v4.032c-1.152.922-3.149,1.306-5.3,1.306-5.337,0-8.6-3.532-8.6-8.178a8,8,0,0,1,8.217-8.178A9.054,9.054,0,0,1,324.31,49.2l4.3-4.185a14.506,14.506,0,0,0-11.174-4.646,13.926,13.926,0,0,0-14.361,14.091C303.076,62.448,309.412,68.553,317.9,68.553Zm17.895-.461h11.98a8.059,8.059,0,0,0,8.293-8.025,7.123,7.123,0,0,0-3.878-6.45,6.417,6.417,0,0,0,1.958-4.684,8.1,8.1,0,0,0-8.1-8.1H335.793V68.092ZM341.9,51.851V46.4h3.455a2.771,2.771,0,0,1,2.842,2.764,2.733,2.733,0,0,1-2.842,2.688H341.9Zm0,10.636V57.034h5.337a2.774,2.774,0,0,1,2.88,2.726,2.74,2.74,0,0,1-2.842,2.726H341.9Zm32.754,6.067A14.091,14.091,0,1,0,360.56,54.462,14.126,14.126,0,0,0,374.652,68.553Zm0-5.913a8.183,8.183,0,1,1,7.91-8.178A8.088,8.088,0,0,1,374.652,62.64Zm44.888,5.452V40.831H413.4V57.649L400.15,40.831h-5.261V68.092H401V51.236L414.28,68.092h5.26Zm7.682,0H444.5V62.256H433.327V57.38h8.87V51.544h-8.87V46.667H444.5V40.831H427.222V68.092Zm34.214,0h6.105V40.831h-6.105V68.092Zm18.7,0h6.143V46.667h7.027V40.831h-20.12v5.836h6.95V68.092Zm13.133,0h6.374l2.419-5.759h11.289l2.419,5.759h6.374L510.471,40.831h-5.529Zm11.02-11.058,3.418-8.217,3.417,8.217h-6.835Zm22.618,11.058H544.3V62.256H533.013V40.831h-6.106V68.092Zm23.117,0h6.105V40.831h-6.105V68.092Zm10.867,0h6.374l2.419-5.759h11.289l2.419,5.759h6.374L578.093,40.831h-5.529Zm11.02-11.058,3.417-8.217,3.417,8.217h-6.834ZM619.18,68.092V40.831h-6.144V57.649L599.789,40.831h-5.26V68.092h6.105V51.236L613.92,68.092h5.26Zm-555.832,40.8h5.8L75.481,81.63H68.954L65.229,98.908,57.55,81.169,49.909,98.908,46.184,81.63H39.657l6.3,27.261h5.8l5.8-13.362Zm29.761,0.461A14.091,14.091,0,1,0,79.017,95.261,14.125,14.125,0,0,0,93.108,109.352Zm0-5.913a8.183,8.183,0,1,1,7.91-8.178A8.089,8.089,0,0,1,93.108,103.439Zm32.793,5.913A14.091,14.091,0,1,0,111.81,95.261,14.125,14.125,0,0,0,125.9,109.352Zm0-5.913a8.183,8.183,0,1,1,7.91-8.178A8.088,8.088,0,0,1,125.9,103.439Zm20.238,5.452h17.393v-5.836H152.244V81.63h-6.1v27.261Zm32.447,0h6.1V98.217h8.332V92.381h-8.332V87.466h10.674V81.63H178.586v27.261Zm22.848,0h17.394v-5.836H207.539V81.63h-6.1v27.261Zm20.2,0h6.374l2.419-5.759h11.289l2.419,5.759h6.373L238.834,81.63h-5.529Zm11.02-11.058,3.417-8.217,3.417,8.217h-6.834Zm47.269,11.058V81.63h-6.144V98.447L260.53,81.63h-5.26v27.261h6.1V92.035l13.286,16.856h5.26Zm32.332,0V81.63H306.11V98.447L292.863,81.63H287.6v27.261h6.106V92.035l13.285,16.856h5.26Zm7.682,0h17.279v-5.836H326.04V98.179h8.87V92.342h-8.87V87.466h11.174V81.63H319.935v27.261Zm23.846,0h17.394v-5.836H349.887V81.63h-6.106v27.261Zm40.588,0.461c5.759,0,9.714-3.456,9.753-8.409,0.038-4.108-2.535-6.719-6.489-8.14l-1.92-.691c-2.88-1.037-4.224-1.689-4.224-3.148,0-1.421,1.651-2.073,3.3-2.073a6.064,6.064,0,0,1,4.723,2.265l3.993-4.224a11.376,11.376,0,0,0-8.793-3.763c-5.452,0-9.407,3.11-9.407,8.409,0,3.724,2.457,6.374,6.873,7.871L384.1,98.1c2.726,0.921,3.8,1.881,3.8,3.264,0,1.305-1.267,2.265-3.3,2.265a7.131,7.131,0,0,1-5.644-3.11l-4.685,3.955A11.956,11.956,0,0,0,384.369,109.352Zm26.8,0c6.528,0,11.212-4.454,11.212-11.25V81.63h-6.1V98.179c0,3.263-2.073,5.26-5.107,5.26s-5.106-2-5.106-5.26V81.63h-6.106V98.1C399.959,104.9,404.605,109.352,411.171,109.352Zm18.586-.461h6.105V81.63h-6.105v27.261Zm18.7,0H454.6V87.466h7.027V81.63H441.507v5.836h6.95v21.425ZM41.486,142.49h2.456V123.744H41.486V142.49Zm15.524-.185v-2.033a5,5,0,0,1-1.611.264c-1.426,0-2.191-.554-2.191-2.244v-6.917h3.8v-2.086h-3.8v-3.67H50.937v3.67h-2.8v2.086h2.8v7.208a3.716,3.716,0,0,0,4.04,4.039A6.313,6.313,0,0,0,57.01,142.305Zm3.009-6.415a6.606,6.606,0,0,0,6.469,6.864,5.788,5.788,0,0,0,4.647-2.3v2.033h2.271v-13.2H71.135v2.033a5.788,5.788,0,0,0-4.647-2.3A6.606,6.606,0,0,0,60.019,135.89Zm11.3,0a4.51,4.51,0,1,1-4.489-4.779A4.508,4.508,0,0,1,71.319,135.89ZM79,142.49h2.271v-19.8H79v19.8Zm10.639-18.35a1.594,1.594,0,0,0-1.584-1.61,1.64,1.64,0,0,0-1.637,1.61,1.623,1.623,0,0,0,1.637,1.611A1.578,1.578,0,0,0,89.639,124.14Zm-2.746,18.35h2.271v-13.2H86.893v13.2Zm6.864-6.6a6.606,6.606,0,0,0,6.469,6.864,5.787,5.787,0,0,0,4.647-2.3v2.033h2.271v-13.2h-2.271v2.033a5.787,5.787,0,0,0-4.647-2.3A6.606,6.606,0,0,0,93.757,135.89Zm11.3,0a4.51,4.51,0,1,1-4.489-4.779A4.508,4.508,0,0,1,105.058,135.89Zm7.681,6.6h2.27v-6.548c0-3.089,1.69-4.831,3.829-4.831,1.848,0,3.116,1.373,3.116,3.59v7.789H124.2v-8.132c0-3.274-2.033-5.333-4.99-5.333a4.669,4.669,0,0,0-4.2,2.3v-2.033h-2.27v13.2Zm35.35,0H150.1l4.489-13.2h-2.4l-3.195,9.637-3.3-9.637h-1.743l-3.3,9.637-3.195-9.637h-2.377l4.489,13.2h2.007l3.274-9.5Zm22.968-6.6a6.9,6.9,0,1,0-6.891,6.864A6.774,6.774,0,0,0,171.057,135.89Zm-11.485,0a4.584,4.584,0,1,1,4.594,4.752A4.537,4.537,0,0,1,159.572,135.89Zm28.8,0a6.9,6.9,0,1,0-6.891,6.864A6.774,6.774,0,0,0,188.375,135.89Zm-11.485,0a4.584,4.584,0,1,1,4.594,4.752A4.537,4.537,0,0,1,176.89,135.89Zm16.05,6.6h2.271v-19.8H192.94v19.8Zm10.719-.581a2.258,2.258,0,0,0,.37-1.188,1.954,1.954,0,1,0-3.908,0,1.966,1.966,0,0,0,1.082,1.769l-1.769,3.776h1.5Zm15.285-1.452a5.787,5.787,0,0,0,4.647,2.3,6.877,6.877,0,0,0,0-13.729,5.787,5.787,0,0,0-4.647,2.3v-8.634h-2.271v19.8h2.271v-2.033Zm8.793-4.567a4.5,4.5,0,1,1-4.489-4.779A4.508,4.508,0,0,1,227.737,135.89Zm9.766,4.831a1.954,1.954,0,1,0-1.954,1.981A1.989,1.989,0,0,0,237.5,140.721ZM261.4,140.3h-9.347c0.449-2.165,2.641-3.248,4.806-4.832,3.063-2.218,4.33-3.8,4.33-6.548,0-3.644-2.667-5.492-5.782-5.492-3.459,0-6.179,2.324-6.179,5.915h2.324a3.62,3.62,0,0,1,3.881-3.7,3.17,3.17,0,0,1,3.432,3.248c0,2.191-1.161,3.168-3.326,4.779-2.773,2.059-6.285,3.907-6.285,7.921v0.9H261.4V140.3Zm17.477-4.594v-5.228c0-4.145-2.8-7.05-6.654-7.05s-6.627,2.9-6.627,7.05v5.228c0,4.171,2.772,7.049,6.627,7.049S278.873,139.876,278.873,135.705Zm-11.01,0v-5.228c0-3.036,1.822-4.832,4.356-4.832,2.562,0,4.383,1.8,4.383,4.832v5.228c0,3.036-1.821,4.831-4.383,4.831C269.685,140.536,267.863,138.741,267.863,135.705Zm17.687,6.785h2.271V123.744h-4.04l-1.848,2.244h3.617v16.5Zm20.937-6.785v-5.228c0-4.145-2.8-7.05-6.654-7.05s-6.627,2.9-6.627,7.05v5.228c0,4.171,2.772,7.049,6.627,7.049S306.487,139.876,306.487,135.705Zm-11.01,0v-5.228c0-3.036,1.822-4.832,4.356-4.832,2.562,0,4.383,1.8,4.383,4.832v5.228c0,3.036-1.821,4.831-4.383,4.831C297.3,140.536,295.477,138.741,295.477,135.705ZM41.26,195.289h6.1c3.457,0,5.713-2.136,5.713-4.969a4.062,4.062,0,0,0-2.953-4.081,3.862,3.862,0,0,0,1.824-3.48c0-2.4-1.92-4.513-5.089-4.513H41.26v17.043Zm2.233-9.722v-5.305h3.361a2.679,2.679,0,0,1,2.9,2.665,2.623,2.623,0,0,1-2.9,2.64H43.493Zm0,7.706v-5.786h3.985c2.256,0,3.409,1.249,3.409,2.905,0,1.68-1.152,2.881-3.433,2.881H43.493Zm12.815-3.985a6.006,6.006,0,0,0,5.881,6.241,5.264,5.264,0,0,0,4.225-2.088v1.848h2.064v-12H66.414v1.848a5.264,5.264,0,0,0-4.225-2.088A6.006,6.006,0,0,0,56.308,189.288Zm10.274,0a4.1,4.1,0,1,1-4.081-4.345A4.1,4.1,0,0,1,66.582,189.288Zm6.982,6h2.064v-5.953c0-2.809,1.536-4.393,3.481-4.393,1.68,0,2.833,1.248,2.833,3.265v7.081h2.04V187.9c0-2.977-1.848-4.849-4.537-4.849a4.244,4.244,0,0,0-3.817,2.088v-1.848H73.564v12Zm14.4-6a6.006,6.006,0,0,0,5.881,6.241,5.264,5.264,0,0,0,4.225-2.088v1.848h2.064v-12H98.07v1.848a5.264,5.264,0,0,0-4.225-2.088A6.006,6.006,0,0,0,87.964,189.288Zm10.274,0a4.1,4.1,0,1,1-4.081-4.345A4.1,4.1,0,0,1,98.238,189.288Zm6.981,6h2.065v-5.953c0-2.809,1.536-4.393,3.481-4.393,1.68,0,2.832,1.248,2.832,3.265v7.081h2.041V187.9c0-2.977-1.849-4.849-4.537-4.849a4.244,4.244,0,0,0-3.817,2.088v-1.848h-2.065v12Zm14.4-6a6.006,6.006,0,0,0,5.881,6.241,5.263,5.263,0,0,0,4.225-2.088v1.848h2.065v-12h-2.065v1.848a5.263,5.263,0,0,0-4.225-2.088A6.005,6.005,0,0,0,119.619,189.288Zm10.274,0a4.1,4.1,0,1,1-4.081-4.345A4.1,4.1,0,0,1,129.893,189.288Zm14.35,6h2.232v-7.754h1.657l6.553,7.754h2.809l-6.554-7.778c2.617-.384,4.2-2.064,4.2-4.56,0-2.809-1.944-4.7-5.089-4.7h-5.809v17.043Zm2.232-9.746V180.31h3.313c1.944,0,3.121.912,3.121,2.641,0,1.7-1.177,2.592-3.121,2.592h-3.313Zm12.6,3.745a6.328,6.328,0,0,0,11.619,3.384l-1.633-1.128a4.249,4.249,0,0,1-7.9-1.848h9.842a5.856,5.856,0,0,0,.024-0.624c-0.024-3.841-2.569-6.025-5.713-6.025A6.082,6.082,0,0,0,159.074,189.288Zm6.17-4.417a3.59,3.59,0,0,1,3.672,3.145h-7.609A3.923,3.923,0,0,1,165.244,184.871Zm9.91,15.435h2.065v-6.865a5.263,5.263,0,0,0,4.225,2.088,6.252,6.252,0,0,0,0-12.482,5.263,5.263,0,0,0-4.225,2.088v-1.848h-2.065v17.019Zm10.059-11.018a4.089,4.089,0,1,1-4.081-4.345A4.1,4.1,0,0,1,185.213,189.288Zm6.117,1.368c0,2.977,1.777,4.873,4.417,4.873a4.129,4.129,0,0,0,3.7-2.088v1.848h2.064v-12h-2.064v5.953c0,2.76-1.464,4.393-3.337,4.393-1.656,0-2.712-1.273-2.712-3.289v-7.057H191.33v7.369Zm17.329,2.785a5.262,5.262,0,0,0,4.224,2.088,6.252,6.252,0,0,0,0-12.482,5.262,5.262,0,0,0-4.224,2.088v-7.849h-2.065v18h2.065v-1.848Zm7.993-4.153a4.089,4.089,0,1,1-4.081-4.345A4.1,4.1,0,0,1,216.652,189.288Zm6.262,6h2.064v-18h-2.064v18Zm9.672-16.683a1.449,1.449,0,0,0-1.44-1.464,1.491,1.491,0,0,0-1.488,1.464,1.475,1.475,0,0,0,1.488,1.464A1.434,1.434,0,0,0,232.586,178.606Zm-2.5,16.683h2.064v-12H230.09v12Zm18.074-2.977-1.8-1.008a4.071,4.071,0,0,1-3.745,2.305,4.323,4.323,0,0,1,0-8.642,4.07,4.07,0,0,1,3.745,2.3l1.8-1.008a6.216,6.216,0,0,0-5.545-3.216,6.241,6.241,0,1,0,0,12.482A6.215,6.215,0,0,0,248.164,192.312Zm10.917,2.977h2.064v-5.953c0-2.809,1.537-4.393,3.481-4.393,1.681,0,2.833,1.248,2.833,3.265v7.081h2.04V187.9c0-2.977-1.848-4.849-4.537-4.849a4.246,4.246,0,0,0-3.817,2.088v-7.849h-2.064v18Zm14.4-6a6.006,6.006,0,0,0,5.881,6.241,5.266,5.266,0,0,0,4.225-2.088v1.848h2.064v-12h-2.064v1.848a5.266,5.266,0,0,0-4.225-2.088A6.005,6.005,0,0,0,273.481,189.288Zm10.274,0a4.1,4.1,0,1,1-4.081-4.345A4.1,4.1,0,0,1,283.755,189.288Zm14.759,2.664c0-1.8-1.128-2.952-3.169-3.624l-1.3-.432c-1.416-.457-1.848-0.913-1.848-1.681,0-.888.888-1.392,2.016-1.392a3.244,3.244,0,0,1,2.545,1.248l1.344-1.3a4.654,4.654,0,0,0-3.841-1.728c-2.376,0-4.057,1.32-4.057,3.264,0,1.681,1.033,2.857,2.977,3.481l1.176,0.384c1.561,0.5,2.137,1.08,2.137,1.92,0,1.033-.937,1.633-2.113,1.633a3.22,3.22,0,0,1-3.072-1.9l-1.681.912a4.767,4.767,0,0,0,4.7,2.785C296.762,195.529,298.514,194.305,298.514,191.952Zm10.27-2.664a6.006,6.006,0,0,0,5.881,6.241,5.264,5.264,0,0,0,4.225-2.088v1.848h2.064v-12H318.89v1.848a5.264,5.264,0,0,0-4.225-2.088A6.005,6.005,0,0,0,308.784,189.288Zm10.274,0a4.1,4.1,0,1,1-4.081-4.345A4.1,4.1,0,0,1,319.058,189.288Zm6.982,6H328.1v-5.953c0-2.809,1.536-4.393,3.481-4.393,1.68,0,2.832,1.248,2.832,3.265v7.081h2.041V187.9c0-2.977-1.848-4.849-4.537-4.849a4.245,4.245,0,0,0-3.817,2.088v-1.848H326.04v12Zm22.223-4.633c0,2.977,1.777,4.873,4.417,4.873a4.13,4.13,0,0,0,3.7-2.088v1.848h2.064v-12h-2.064v5.953c0,2.76-1.464,4.393-3.337,4.393-1.656,0-2.712-1.273-2.712-3.289v-7.057h-2.065v7.369Zm15.264,4.633h2.064v-5.953c0-2.809,1.537-4.393,3.481-4.393,1.681,0,2.833,1.248,2.833,3.265v7.081h2.04V187.9c0-2.977-1.848-4.849-4.537-4.849a4.246,4.246,0,0,0-3.817,2.088v-1.848h-2.064v12Zm25.49,0h1.825l4.08-12h-2.184l-2.9,8.761-3-8.761h-1.585l-3,8.761-2.9-8.761h-2.16l4.08,12h1.825l2.977-8.642Zm8.349-6a6.007,6.007,0,0,0,5.882,6.241,5.266,5.266,0,0,0,4.225-2.088v1.848h2.064v-12h-2.064v1.848a5.266,5.266,0,0,0-4.225-2.088A6.006,6.006,0,0,0,397.366,189.288Zm10.275,0a4.1,4.1,0,1,1-4.081-4.345A4.1,4.1,0,0,1,407.641,189.288Zm10.726,6H420.1l5.545-12h-2.305l-4.105,9.073-4.1-9.073h-2.305Zm9.359-6a6.328,6.328,0,0,0,11.619,3.384l-1.633-1.128a4.249,4.249,0,0,1-7.9-1.848h9.842a5.856,5.856,0,0,0,.024-0.624c-0.024-3.841-2.569-6.025-5.713-6.025A6.082,6.082,0,0,0,427.726,189.288Zm6.17-4.417a3.59,3.59,0,0,1,3.672,3.145h-7.609A3.923,3.923,0,0,1,433.9,184.871Zm9.91,10.418h2.065v-5.953c0-2.809,1.656-4.129,3.168-4.129a3.019,3.019,0,0,1,1.129.192v-2.136a4.279,4.279,0,0,0-.937-0.1,3.57,3.57,0,0,0-3.36,2.448v-2.328h-2.065v12Zm12.481-16.683a1.449,1.449,0,0,0-1.44-1.464,1.491,1.491,0,0,0-1.489,1.464,1.475,1.475,0,0,0,1.489,1.464A1.434,1.434,0,0,0,456.287,178.606Zm-2.5,16.683h2.065v-12H453.79v12Zm7.176,0h2.065v-5.953c0-2.809,1.536-4.393,3.48-4.393,1.681,0,2.833,1.248,2.833,3.265v7.081h2.04V187.9c0-2.977-1.848-4.849-4.537-4.849a4.243,4.243,0,0,0-3.816,2.088v-1.848h-2.065v12Zm26.522-.7V183.287h-2.064v1.848a5.108,5.108,0,0,0-4.177-2.088,6.114,6.114,0,0,0,0,12.218,5.126,5.126,0,0,0,4.177-2.112v1.368a3.838,3.838,0,0,1-4.009,4.153,5.136,5.136,0,0,1-4.2-2.017l-1.44,1.44a7.122,7.122,0,0,0,5.665,2.449C484.848,200.546,487.488,198.6,487.488,194.593Zm-10.01-5.449a4.059,4.059,0,1,1,4.057,4.2A4,4,0,0,1,477.478,189.144Zm33.05,3.168-1.8-1.008a4.069,4.069,0,0,1-3.745,2.305,4.323,4.323,0,0,1,0-8.642,4.068,4.068,0,0,1,3.745,2.3l1.8-1.008a6.218,6.218,0,0,0-5.546-3.216,6.241,6.241,0,1,0,0,12.482A6.216,6.216,0,0,0,510.528,192.312Zm15.455-3.024a6.277,6.277,0,1,0-6.265,6.241A6.159,6.159,0,0,0,525.983,189.288Zm-10.442,0a4.168,4.168,0,1,1,4.177,4.321A4.126,4.126,0,0,1,515.541,189.288Zm14.592,6H532.2v-5.953c0-2.713,1.368-4.393,3.313-4.393,1.56,0,2.352,1.344,2.352,3.289v7.057h2.065v-5.953c0-2.713,1.344-4.393,3.289-4.393,1.56,0,2.376,1.344,2.376,3.289v7.057h2.064V187.92c0-2.929-1.584-4.873-4.2-4.873a4.153,4.153,0,0,0-3.937,2.568,3.773,3.773,0,0,0-3.7-2.568,4.035,4.035,0,0,0-3.625,2.088v-1.848h-2.064v12Zm22.44,0h2.064v-5.953c0-2.713,1.368-4.393,3.313-4.393,1.56,0,2.352,1.344,2.352,3.289v7.057h2.065v-5.953c0-2.713,1.344-4.393,3.288-4.393,1.561,0,2.377,1.344,2.377,3.289v7.057H570.1V187.92c0-2.929-1.584-4.873-4.2-4.873a4.153,4.153,0,0,0-3.936,2.568,3.774,3.774,0,0,0-3.7-2.568,4.034,4.034,0,0,0-3.625,2.088v-1.848h-2.064v12Zm24.936-16.683a1.449,1.449,0,0,0-1.44-1.464,1.491,1.491,0,0,0-1.489,1.464,1.475,1.475,0,0,0,1.489,1.464A1.434,1.434,0,0,0,577.509,178.606Zm-2.5,16.683h2.065v-12h-2.065v12Zm13.682-.168v-1.848a4.568,4.568,0,0,1-1.465.24c-1.3,0-1.992-.5-1.992-2.041v-6.289h3.457v-1.9h-3.457V179.95h-2.065v3.337h-2.544v1.9h2.544v6.553a3.379,3.379,0,0,0,3.673,3.673A5.749,5.749,0,0,0,588.694,195.121Zm3.838,0.168H594.6v-5.953c0-2.713,1.368-4.393,3.312-4.393,1.561,0,2.353,1.344,2.353,3.289v7.057h2.064v-5.953c0-2.713,1.345-4.393,3.289-4.393,1.56,0,2.377,1.344,2.377,3.289v7.057h2.064V187.92c0-2.929-1.584-4.873-4.2-4.873a4.154,4.154,0,0,0-3.937,2.568,3.773,3.773,0,0,0-3.7-2.568,4.034,4.034,0,0,0-3.624,2.088v-1.848h-2.065v12Zm21.5-6a6.327,6.327,0,0,0,11.618,3.384l-1.632-1.128a4.25,4.25,0,0,1-7.9-1.848h9.842a5.856,5.856,0,0,0,.024-0.624c-0.024-3.841-2.568-6.025-5.713-6.025A6.081,6.081,0,0,0,614.036,189.288Zm6.169-4.417a3.591,3.591,0,0,1,3.673,3.145h-7.61A3.924,3.924,0,0,1,620.205,184.871Zm9.911,10.418h2.064v-5.953c0-2.809,1.537-4.393,3.481-4.393,1.68,0,2.833,1.248,2.833,3.265v7.081h2.04V187.9c0-2.977-1.848-4.849-4.537-4.849a4.246,4.246,0,0,0-3.817,2.088v-1.848h-2.064v12Zm21.7-.168v-1.848a4.562,4.562,0,0,1-1.464.24c-1.3,0-1.993-.5-1.993-2.041v-6.289h3.457v-1.9h-3.457V179.95h-2.064v3.337h-2.545v1.9h2.545v6.553a3.378,3.378,0,0,0,3.673,3.673A5.743,5.743,0,0,0,651.813,195.121ZM47.454,223.92v-1.848a4.564,4.564,0,0,1-1.464.24c-1.3,0-1.992-.5-1.992-2.041v-6.289h3.457v-1.9H44v-3.337H41.932v3.337H39.388v1.9h2.544v6.554a3.378,3.378,0,0,0,3.673,3.672A5.745,5.745,0,0,0,47.454,223.92Zm15.265-5.833a6.277,6.277,0,1,0-6.265,6.241A6.159,6.159,0,0,0,62.719,218.087Zm-10.442,0a4.168,4.168,0,1,1,4.177,4.321A4.126,4.126,0,0,1,52.277,218.087Zm30.817,11.018h2.064V212.086H83.094v1.848a5.264,5.264,0,0,0-4.225-2.088,6.252,6.252,0,0,0,0,12.482,5.264,5.264,0,0,0,4.225-2.088v6.865Zm0.168-11.018a4.1,4.1,0,1,1-4.081-4.345A4.1,4.1,0,0,1,83.262,218.087Zm6.814,1.368c0,2.977,1.776,4.873,4.417,4.873a4.13,4.13,0,0,0,3.7-2.088v1.848h2.065v-12H98.189v5.953c0,2.761-1.464,4.393-3.337,4.393-1.656,0-2.713-1.272-2.713-3.289v-7.057H90.076v7.369Zm14.327-1.368a6.006,6.006,0,0,0,5.882,6.241,5.262,5.262,0,0,0,4.224-2.088v1.848h2.065v-12h-2.065v1.848a5.262,5.262,0,0,0-4.224-2.088A6.006,6.006,0,0,0,104.4,218.087Zm10.274,0a4.1,4.1,0,1,1-4.08-4.345A4.1,4.1,0,0,1,114.677,218.087Zm6.982,6h2.065v-18h-2.065v18Zm9.673-16.683a1.45,1.45,0,0,0-1.441-1.464,1.491,1.491,0,0,0-1.488,1.464,1.475,1.475,0,0,0,1.488,1.464A1.435,1.435,0,0,0,131.332,207.405Zm-2.5,16.683H130.9v-12h-2.064v12Zm13.681-.168v-1.848a4.562,4.562,0,0,1-1.464.24c-1.3,0-1.992-.5-1.992-2.041v-6.289h3.456v-1.9H139.06v-3.337H137v3.337h-2.544v1.9H137v6.554a3.378,3.378,0,0,0,3.673,3.672A5.743,5.743,0,0,0,142.516,223.92Zm7.031,5.185,7.874-17.019h-2.3l-4.1,9.1-4.129-9.1H144.6l5.258,11.378-2.617,5.641h2.3Zm16.728-11.018a6.005,6.005,0,0,0,5.881,6.241,5.264,5.264,0,0,0,4.225-2.088v1.848h2.064v-12h-2.064v1.848a5.264,5.264,0,0,0-4.225-2.088A6.005,6.005,0,0,0,166.275,218.087Zm10.274,0a4.1,4.1,0,1,1-4.081-4.345A4.1,4.1,0,0,1,176.549,218.087Zm6.981,6H185.6v-5.953c0-2.808,1.536-4.393,3.481-4.393,1.68,0,2.832,1.248,2.832,3.265v7.081h2.041V216.7c0-2.977-1.849-4.849-4.537-4.849a4.244,4.244,0,0,0-3.817,2.088v-1.848H183.53v12Zm14.4-6a6.006,6.006,0,0,0,5.881,6.241,5.263,5.263,0,0,0,4.225-2.088v1.848H210.1v-18h-2.065v7.849a5.263,5.263,0,0,0-4.225-2.088A6.006,6.006,0,0,0,197.93,218.087Zm10.274,0a4.1,4.1,0,1,1-4.081-4.345A4.1,4.1,0,0,1,208.2,218.087Zm24.936,3.025-1.8-1.009a4.069,4.069,0,0,1-3.745,2.3,4.323,4.323,0,0,1,0-8.642,4.069,4.069,0,0,1,3.745,2.305l1.8-1.008a6.215,6.215,0,0,0-5.545-3.217,6.241,6.241,0,1,0,0,12.482A6.216,6.216,0,0,0,233.14,221.112ZM237,224.088h2.065v-5.953c0-2.808,1.656-4.129,3.168-4.129a3.019,3.019,0,0,1,1.129.192v-2.136a4.276,4.276,0,0,0-.936-0.1,3.57,3.57,0,0,0-3.361,2.448v-2.328H237v12Zm8.64-6a6.006,6.006,0,0,0,5.881,6.241,5.263,5.263,0,0,0,4.225-2.088v1.848h2.065v-12h-2.065v1.848a5.263,5.263,0,0,0-4.225-2.088A6.006,6.006,0,0,0,245.641,218.087Zm10.274,0a4.1,4.1,0,1,1-4.081-4.345A4.1,4.1,0,0,1,255.915,218.087Zm7.99,6h2.065V213.982h3.168v-1.9H265.97v-2.208c0-1.513.672-2.041,1.992-2.041a4.844,4.844,0,0,1,1.489.24v-1.824a5.464,5.464,0,0,0-1.873-.312,3.379,3.379,0,0,0-3.673,3.672v2.473h-2.544v1.9H263.9v10.106Zm14.379-.168v-1.848a4.715,4.715,0,0,1-1.488.24c-1.3,0-1.992-.5-1.992-2.041v-6.289h3.48v-1.9H274.8v-3.337h-2.065v3.337h-2.256v1.9h2.256v6.554a3.4,3.4,0,0,0,3.7,3.672A5.974,5.974,0,0,0,278.284,223.92Zm11.615-3.168c0-1.8-1.129-2.953-3.169-3.625l-1.3-.432c-1.417-.456-1.849-0.912-1.849-1.681,0-.888.888-1.392,2.017-1.392a3.242,3.242,0,0,1,2.544,1.248l1.344-1.3a4.654,4.654,0,0,0-3.84-1.728c-2.377,0-4.057,1.32-4.057,3.265,0,1.68,1.032,2.856,2.976,3.48l1.177,0.384c1.56,0.5,2.136,1.08,2.136,1.921,0,1.032-.936,1.632-2.112,1.632a3.221,3.221,0,0,1-3.073-1.9l-1.68.912a4.767,4.767,0,0,0,4.7,2.784C288.146,224.328,289.9,223.1,289.9,220.752Zm4.15,3.336h2.064v-5.953c0-2.712,1.368-4.393,3.313-4.393,1.56,0,2.352,1.345,2.352,3.289v7.057h2.065v-5.953c0-2.712,1.344-4.393,3.288-4.393,1.561,0,2.377,1.345,2.377,3.289v7.057h2.064v-7.369c0-2.929-1.584-4.873-4.2-4.873a4.153,4.153,0,0,0-3.937,2.568,3.773,3.773,0,0,0-3.7-2.568,4.035,4.035,0,0,0-3.625,2.088v-1.848h-2.064v12Zm21.5-6a6.006,6.006,0,0,0,5.882,6.241,5.266,5.266,0,0,0,4.225-2.088v1.848h2.064v-12h-2.064v1.848a5.266,5.266,0,0,0-4.225-2.088A6.006,6.006,0,0,0,315.552,218.087Zm10.275,0a4.1,4.1,0,1,1-4.081-4.345A4.1,4.1,0,0,1,325.827,218.087Zm6.981,6h2.065v-5.953c0-2.808,1.536-4.393,3.48-4.393,1.681,0,2.833,1.248,2.833,3.265v7.081h2.041V216.7c0-2.977-1.849-4.849-4.537-4.849a4.244,4.244,0,0,0-3.817,2.088v-1.848h-2.065v12Zm23.114-3.336c0-1.8-1.129-2.953-3.169-3.625l-1.3-.432c-1.417-.456-1.849-0.912-1.849-1.681,0-.888.889-1.392,2.017-1.392a3.242,3.242,0,0,1,2.544,1.248l1.345-1.3a4.657,4.657,0,0,0-3.841-1.728c-2.377,0-4.057,1.32-4.057,3.265,0,1.68,1.032,2.856,2.977,3.48l1.176,0.384c1.56,0.5,2.136,1.08,2.136,1.921,0,1.032-.936,1.632-2.112,1.632a3.222,3.222,0,0,1-3.073-1.9l-1.68.912a4.767,4.767,0,0,0,4.7,2.784C354.169,224.328,355.922,223.1,355.922,220.752Zm4.15,3.336h2.064v-5.953c0-2.808,1.537-4.393,3.481-4.393,1.68,0,2.833,1.248,2.833,3.265v7.081h2.04V216.7c0-2.977-1.848-4.849-4.537-4.849a4.245,4.245,0,0,0-3.817,2.088v-7.849h-2.064v18ZM377.9,207.405a1.449,1.449,0,0,0-1.44-1.464,1.492,1.492,0,0,0-1.489,1.464,1.476,1.476,0,0,0,1.489,1.464A1.434,1.434,0,0,0,377.9,207.405Zm-2.5,16.683h2.064v-12h-2.064v12Zm7.175,5.017h2.065V222.24a5.263,5.263,0,0,0,4.225,2.088,6.252,6.252,0,0,0,0-12.482,5.263,5.263,0,0,0-4.225,2.088v-1.848h-2.065v17.019Zm10.059-11.018a4.089,4.089,0,1,1-4.081-4.345A4.1,4.1,0,0,1,392.642,218.087Zm8.9,4.393a1.777,1.777,0,1,0-1.776,1.8A1.808,1.808,0,0,0,401.544,222.48Zm11.759,1.608h2.233V207.045H413.3v17.043Zm7.584,0h2.064v-5.953c0-2.808,1.537-4.393,3.481-4.393,1.68,0,2.833,1.248,2.833,3.265v7.081h2.04V216.7c0-2.977-1.848-4.849-4.537-4.849a4.246,4.246,0,0,0-3.817,2.088v-1.848h-2.064v12ZM444,220.752c0-1.8-1.128-2.953-3.168-3.625l-1.3-.432c-1.416-.456-1.848-0.912-1.848-1.681,0-.888.888-1.392,2.016-1.392a3.243,3.243,0,0,1,2.545,1.248l1.344-1.3a4.654,4.654,0,0,0-3.841-1.728c-2.376,0-4.056,1.32-4.056,3.265,0,1.68,1.032,2.856,2.976,3.48l1.176,0.384c1.561,0.5,2.137,1.08,2.137,1.921,0,1.032-.936,1.632-2.113,1.632a3.221,3.221,0,0,1-3.072-1.9l-1.681.912a4.769,4.769,0,0,0,4.7,2.784C442.248,224.328,444,223.1,444,220.752Zm4.15,8.353h2.065V222.24a5.263,5.263,0,0,0,4.225,2.088,6.252,6.252,0,0,0,0-12.482,5.263,5.263,0,0,0-4.225,2.088v-1.848H448.15v17.019Zm10.059-11.018a4.089,4.089,0,1,1-4.081-4.345A4.1,4.1,0,0,1,458.209,218.087Zm8.782-10.682a1.449,1.449,0,0,0-1.44-1.464,1.491,1.491,0,0,0-1.489,1.464,1.475,1.475,0,0,0,1.489,1.464A1.434,1.434,0,0,0,466.991,207.405Zm-2.5,16.683h2.065v-12h-2.065v12Zm7.176,0h2.065v-5.953c0-2.808,1.656-4.129,3.168-4.129a3.025,3.025,0,0,1,1.129.192v-2.136a4.285,4.285,0,0,0-.937-0.1,3.57,3.57,0,0,0-3.36,2.448v-2.328H471.67v12Zm8.616-6a6.328,6.328,0,0,0,11.619,3.385l-1.633-1.129a4.249,4.249,0,0,1-7.9-1.848h9.842a5.856,5.856,0,0,0,.024-0.624c-0.024-3.841-2.569-6.025-5.713-6.025A6.082,6.082,0,0,0,480.286,218.087Zm6.169-4.417a3.591,3.591,0,0,1,3.673,3.145h-7.609A3.923,3.923,0,0,1,486.455,213.67Zm8.975,4.417a6.006,6.006,0,0,0,5.881,6.241,5.263,5.263,0,0,0,4.225-2.088v1.848H507.6v-18h-2.065v7.849a5.263,5.263,0,0,0-4.225-2.088A6.006,6.006,0,0,0,495.43,218.087Zm10.274,0a4.1,4.1,0,1,1-4.081-4.345A4.1,4.1,0,0,1,505.7,218.087Zm16.1,4.153a5.264,5.264,0,0,0,4.225,2.088,6.252,6.252,0,0,0,0-12.482,5.264,5.264,0,0,0-4.225,2.088v-7.849h-2.064v18h2.064V222.24Zm7.994-4.153a4.089,4.089,0,1,1-4.081-4.345A4.1,4.1,0,0,1,529.8,218.087Zm9.214,11.018,7.874-17.019h-2.305l-4.1,9.1-4.129-9.1h-2.281l5.257,11.378-2.616,5.641h2.3Zm23.761-5.185v-1.848a4.562,4.562,0,0,1-1.464.24c-1.3,0-1.993-.5-1.993-2.041v-6.289h3.457v-1.9h-3.457v-3.337h-2.064v3.337h-2.545v1.9h2.545v6.554a3.378,3.378,0,0,0,3.673,3.672A5.743,5.743,0,0,0,562.775,223.92Zm3.839,0.168h2.064v-5.953c0-2.808,1.536-4.393,3.481-4.393,1.68,0,2.832,1.248,2.832,3.265v7.081h2.041V216.7c0-2.977-1.849-4.849-4.537-4.849a4.244,4.244,0,0,0-3.817,2.088v-7.849h-2.064v18Zm14.4-6a6.328,6.328,0,0,0,11.619,3.385L591,220.343a4.25,4.25,0,0,1-7.9-1.848h9.843a5.856,5.856,0,0,0,.024-0.624c-0.024-3.841-2.569-6.025-5.714-6.025A6.082,6.082,0,0,0,581.013,218.087Zm6.169-4.417a3.591,3.591,0,0,1,3.673,3.145h-7.61A3.925,3.925,0,0,1,587.182,213.67ZM47.454,252.719v-1.848a4.564,4.564,0,0,1-1.464.24c-1.3,0-1.992-.5-1.992-2.04v-6.289h3.457v-1.9H44v-3.336H41.932v3.336H39.388v1.9h2.544v6.553a3.378,3.378,0,0,0,3.673,3.672A5.745,5.745,0,0,0,47.454,252.719Zm3.838,0.168h2.065v-5.953c0-2.808,1.656-4.128,3.169-4.128a3.018,3.018,0,0,1,1.128.192v-2.137a4.278,4.278,0,0,0-.936-0.1,3.57,3.57,0,0,0-3.361,2.449v-2.329H51.292v12Zm8.64-6a6.006,6.006,0,0,0,5.881,6.241,5.264,5.264,0,0,0,4.225-2.088v1.848H72.1v-12H70.038v1.849a5.262,5.262,0,0,0-4.225-2.089A6.006,6.006,0,0,0,59.932,246.886Zm10.274,0a4.1,4.1,0,1,1-4.081-4.344A4.1,4.1,0,0,1,70.206,246.886Zm6.046,0a6.006,6.006,0,0,0,5.881,6.241,5.264,5.264,0,0,0,4.225-2.088v1.848h2.065v-18H86.358v7.85a5.262,5.262,0,0,0-4.225-2.089A6.006,6.006,0,0,0,76.252,246.886Zm10.274,0a4.1,4.1,0,1,1-4.081-4.344A4.1,4.1,0,0,1,86.526,246.886ZM96,236.2a1.45,1.45,0,0,0-1.44-1.464,1.465,1.465,0,1,0,0,2.929A1.435,1.435,0,0,0,96,236.2Zm-2.5,16.683h2.065v-12H93.508v12Zm13.681-.168v-1.848a4.562,4.562,0,0,1-1.464.24c-1.3,0-1.993-.5-1.993-2.04v-6.289h3.457v-1.9h-3.457v-3.336h-2.064v3.336H99.123v1.9h2.545v6.553a3.378,3.378,0,0,0,3.672,3.672A5.744,5.744,0,0,0,107.189,252.719Zm6.335-16.515a1.449,1.449,0,0,0-1.44-1.464,1.465,1.465,0,1,0,0,2.929A1.435,1.435,0,0,0,113.524,236.2Zm-2.5,16.683h2.065v-12h-2.065v12Zm18.771-6a6.278,6.278,0,1,0-6.266,6.241A6.16,6.16,0,0,0,129.8,246.886Zm-10.443,0a4.168,4.168,0,1,1,4.177,4.321A4.125,4.125,0,0,1,119.355,246.886Zm14.592,6h2.064v-5.953c0-2.808,1.537-4.392,3.481-4.392,1.68,0,2.833,1.248,2.833,3.264v7.081h2.04v-7.393c0-2.976-1.848-4.849-4.537-4.849a4.245,4.245,0,0,0-3.817,2.089v-1.849h-2.064v12Zm23.113-3.336c0-1.8-1.128-2.953-3.168-3.625l-1.3-.432c-1.416-.456-1.848-0.912-1.848-1.68,0-.888.888-1.393,2.016-1.393a3.243,3.243,0,0,1,2.545,1.249l1.344-1.3a4.654,4.654,0,0,0-3.841-1.728c-2.376,0-4.056,1.32-4.056,3.265,0,1.68,1.032,2.856,2.976,3.48l1.176,0.384c1.561,0.5,2.137,1.081,2.137,1.921,0,1.032-.936,1.632-2.113,1.632a3.221,3.221,0,0,1-3.072-1.9l-1.681.912a4.769,4.769,0,0,0,4.705,2.784C155.308,253.127,157.06,251.9,157.06,249.551Zm22.8-2.665a6.278,6.278,0,1,0-6.266,6.241A6.16,6.16,0,0,0,179.861,246.886Zm-10.443,0a4.168,4.168,0,1,1,4.177,4.321A4.125,4.125,0,0,1,169.418,246.886Zm15.408,6h2.065v-10.1h3.48v-1.9h-3.48v-2.208c0-1.513.672-2.041,1.992-2.041a4.833,4.833,0,0,1,1.488.24v-1.824a5.454,5.454,0,0,0-1.872-.312,3.428,3.428,0,0,0-3.673,3.721v2.424h-2.544v1.9h2.544v10.1Zm14.352-2.784c0.888,1.752,3.168,3.073,5.977,3.073,3.168,0,5.425-1.825,5.425-4.729,0-2.521-1.44-3.961-3.961-4.921l-2.064-.792c-1.729-.649-2.569-1.3-2.569-2.737,0-1.416,1.392-2.352,3.073-2.352a4.217,4.217,0,0,1,3.384,1.68l1.633-1.44a6.215,6.215,0,0,0-4.969-2.329c-3.049,0-5.329,1.753-5.329,4.537,0,2.328,1.2,3.721,3.864,4.705l2.257,0.864c1.584,0.6,2.448,1.512,2.448,2.881,0,1.584-1.392,2.544-3.144,2.544a4.762,4.762,0,0,1-4.225-2.328Zm14.639-3.217a6.006,6.006,0,0,0,5.881,6.241,5.263,5.263,0,0,0,4.225-2.088v1.848h2.065v-12h-2.065v1.849a5.261,5.261,0,0,0-4.225-2.089A6.006,6.006,0,0,0,213.817,246.886Zm10.274,0a4.1,4.1,0,1,1-4.08-4.344A4.1,4.1,0,0,1,224.091,246.886Zm10.727,6h1.728l5.546-12h-2.305l-4.105,9.074-4.1-9.074h-2.3ZM247.873,236.2a1.449,1.449,0,0,0-1.44-1.464,1.465,1.465,0,1,0,0,2.929A1.435,1.435,0,0,0,247.873,236.2Zm-2.5,16.683h2.064v-12h-2.064v12Zm7.176,0h2.064v-18h-2.064v18Zm6.239-6a6.328,6.328,0,0,0,11.619,3.385l-1.632-1.128a4.25,4.25,0,0,1-7.9-1.849h9.842a5.856,5.856,0,0,0,.024-0.624c-0.024-3.84-2.569-6.025-5.713-6.025A6.083,6.083,0,0,0,258.792,246.886Zm6.17-4.417a3.591,3.591,0,0,1,3.672,3.145h-7.609A3.924,3.924,0,0,1,264.962,242.469Zm17.278,10.418h2.233v-7.753h1.656l6.553,7.753h2.809l-6.553-7.777c2.616-.384,4.2-2.064,4.2-4.561,0-2.808-1.945-4.705-5.09-4.705H282.24v17.043Zm2.233-9.745v-5.233h3.312c1.945,0,3.121.912,3.121,2.64,0,1.7-1.176,2.593-3.121,2.593h-3.312Zm25.129,3.744a6.277,6.277,0,1,0-6.265,6.241A6.159,6.159,0,0,0,309.6,246.886Zm-10.442,0a4.168,4.168,0,1,1,4.177,4.321A4.125,4.125,0,0,1,299.16,246.886Zm24.722,6h1.824l4.081-12H327.6l-2.905,8.762-3-8.762h-1.584l-3,8.762-2.9-8.762h-2.161l4.081,12h1.825l2.976-8.641Zm10.99-.528a2.052,2.052,0,0,0,.336-1.08,1.777,1.777,0,1,0-3.553,0,1.785,1.785,0,0,0,.985,1.608l-1.609,3.433H332.4Zm10.895-5.473a6.328,6.328,0,0,0,11.618,3.385l-1.632-1.128a4.25,4.25,0,0,1-7.9-1.849H357.7a5.623,5.623,0,0,0,.025-0.624c-0.025-3.84-2.569-6.025-5.714-6.025A6.083,6.083,0,0,0,345.767,246.886Zm6.169-4.417a3.591,3.591,0,0,1,3.673,3.145H348A3.925,3.925,0,0,1,351.936,242.469Zm8.975,4.417a6.005,6.005,0,0,0,5.881,6.241,5.264,5.264,0,0,0,4.225-2.088v1.848h2.064v-12h-2.064v1.849a5.262,5.262,0,0,0-4.225-2.089A6.006,6.006,0,0,0,360.911,246.886Zm10.274,0a4.1,4.1,0,1,1-4.081-4.344A4.1,4.1,0,0,1,371.185,246.886Zm17.88,3.025-1.8-1.008a4.069,4.069,0,0,1-3.745,2.3,4.322,4.322,0,0,1,0-8.641,4.069,4.069,0,0,1,3.745,2.3l1.8-1.008a6.215,6.215,0,0,0-5.545-3.217,6.241,6.241,0,1,0,0,12.482A6.216,6.216,0,0,0,389.065,249.911Zm3.861,2.976h2.065v-5.953c0-2.808,1.536-4.392,3.481-4.392,1.68,0,2.832,1.248,2.832,3.264v7.081h2.041v-7.393c0-2.976-1.849-4.849-4.537-4.849a4.243,4.243,0,0,0-3.817,2.089v-7.85h-2.065v18Zm30.17-3.336c0-1.8-1.129-2.953-3.169-3.625l-1.3-.432c-1.417-.456-1.849-0.912-1.849-1.68,0-.888.888-1.393,2.017-1.393a3.243,3.243,0,0,1,2.544,1.249l1.344-1.3a4.654,4.654,0,0,0-3.84-1.728c-2.377,0-4.057,1.32-4.057,3.265,0,1.68,1.032,2.856,2.976,3.48l1.177,0.384c1.56,0.5,2.136,1.081,2.136,1.921,0,1.032-.936,1.632-2.112,1.632a3.221,3.221,0,0,1-3.073-1.9l-1.68.912a4.767,4.767,0,0,0,4.7,2.784C421.343,253.127,423.1,251.9,423.1,249.551Zm3.982-1.3c0,2.976,1.776,4.872,4.417,4.872a4.129,4.129,0,0,0,3.7-2.088v1.848h2.065v-12h-2.065v5.953c0,2.761-1.464,4.393-3.336,4.393-1.657,0-2.713-1.272-2.713-3.288v-7.058h-2.064v7.37Zm17.76-12.051a1.449,1.449,0,0,0-1.44-1.464,1.465,1.465,0,1,0,0,2.929A1.435,1.435,0,0,0,444.838,236.2Zm-2.5,16.683h2.064v-12h-2.064v12Zm13.681-.168v-1.848a4.564,4.564,0,0,1-1.465.24c-1.3,0-1.992-.5-1.992-2.04v-6.289h3.457v-1.9h-3.457v-3.336H450.5v3.336h-2.545v1.9H450.5v6.553a3.378,3.378,0,0,0,3.672,3.672A5.744,5.744,0,0,0,456.023,252.719ZM469.414,236.2a1.45,1.45,0,0,0-1.441-1.464,1.465,1.465,0,1,0,0,2.929A1.436,1.436,0,0,0,469.414,236.2Zm-2.5,16.683h2.064v-12h-2.064v12Zm14.954-3.336c0-1.8-1.129-2.953-3.169-3.625l-1.3-.432c-1.417-.456-1.849-0.912-1.849-1.68,0-.888.888-1.393,2.017-1.393a3.243,3.243,0,0,1,2.544,1.249l1.344-1.3a4.654,4.654,0,0,0-3.84-1.728c-2.377,0-4.057,1.32-4.057,3.265,0,1.68,1.032,2.856,2.976,3.48l1.177,0.384c1.56,0.5,2.136,1.081,2.136,1.921,0,1.032-.936,1.632-2.112,1.632a3.221,3.221,0,0,1-3.073-1.9l-1.68.912a4.767,4.767,0,0,0,4.705,2.784C480.118,253.127,481.871,251.9,481.871,249.551Zm10.269-2.665a6.006,6.006,0,0,0,5.881,6.241,5.263,5.263,0,0,0,4.225-2.088v1.848h2.065v-18h-2.065v7.85a5.261,5.261,0,0,0-4.225-2.089A6.006,6.006,0,0,0,492.14,246.886Zm10.274,0a4.1,4.1,0,1,1-4.081-4.344A4.1,4.1,0,0,1,502.414,246.886Zm6.046,0a6.328,6.328,0,0,0,11.618,3.385l-1.632-1.128a4.25,4.25,0,0,1-7.9-1.849h9.842a5.856,5.856,0,0,0,.024-0.624c-0.024-3.84-2.568-6.025-5.713-6.025A6.082,6.082,0,0,0,508.46,246.886Zm6.169-4.417a3.591,3.591,0,0,1,3.673,3.145h-7.61A3.925,3.925,0,0,1,514.629,242.469Zm17.689,7.082c0-1.8-1.129-2.953-3.169-3.625l-1.3-.432c-1.417-.456-1.849-0.912-1.849-1.68,0-.888.888-1.393,2.017-1.393a3.243,3.243,0,0,1,2.544,1.249l1.345-1.3a4.657,4.657,0,0,0-3.841-1.728c-2.377,0-4.057,1.32-4.057,3.265,0,1.68,1.032,2.856,2.976,3.48l1.177,0.384c1.56,0.5,2.136,1.081,2.136,1.921,0,1.032-.936,1.632-2.112,1.632a3.221,3.221,0,0,1-3.073-1.9l-1.68.912a4.767,4.767,0,0,0,4.7,2.784C530.565,253.127,532.318,251.9,532.318,249.551Zm6.646-13.347a1.449,1.449,0,0,0-1.44-1.464,1.465,1.465,0,1,0,0,2.929A1.435,1.435,0,0,0,538.964,236.2Zm-2.5,16.683h2.064v-12h-2.064v12Zm18.362-.7V240.885h-2.064v1.849a5.107,5.107,0,0,0-4.177-2.089,6.114,6.114,0,0,0,0,12.218,5.128,5.128,0,0,0,4.177-2.112v1.368a3.837,3.837,0,0,1-4.009,4.153,5.134,5.134,0,0,1-4.2-2.016l-1.441,1.44a7.128,7.128,0,0,0,5.666,2.448C552.189,258.144,554.83,256.2,554.83,252.191Zm-10.01-5.449a4.059,4.059,0,1,1,4.057,4.2A4,4,0,0,1,544.82,246.742Zm15.095,6.145h2.065v-5.953c0-2.808,1.536-4.392,3.481-4.392,1.68,0,2.832,1.248,2.832,3.264v7.081h2.041v-7.393c0-2.976-1.849-4.849-4.537-4.849a4.243,4.243,0,0,0-3.817,2.089v-1.849h-2.065v12Zm14.4-6a6.328,6.328,0,0,0,11.618,3.385l-1.632-1.128a4.25,4.25,0,0,1-7.9-1.849h9.842a5.856,5.856,0,0,0,.024-0.624c-0.024-3.84-2.568-6.025-5.713-6.025A6.082,6.082,0,0,0,574.315,246.886Zm6.169-4.417a3.591,3.591,0,0,1,3.673,3.145h-7.61A3.925,3.925,0,0,1,580.484,242.469Zm8.975,4.417a6.005,6.005,0,0,0,5.881,6.241,5.264,5.264,0,0,0,4.225-2.088v1.848h2.064v-18h-2.064v7.85a5.262,5.262,0,0,0-4.225-2.089A6.006,6.006,0,0,0,589.459,246.886Zm10.274,0a4.1,4.1,0,1,1-4.081-4.344A4.1,4.1,0,0,1,599.733,246.886Zm-557.777,34.8h2.064V271.581H47.5v-1.9H44.021v-2.208c0-1.512.672-2.04,1.992-2.04a4.835,4.835,0,0,1,1.488.24v-1.825a5.456,5.456,0,0,0-1.872-.312,3.428,3.428,0,0,0-3.673,3.721v2.424H39.412v1.9h2.544v10.106Zm9,0H53.02v-5.953c0-2.809,1.656-4.129,3.169-4.129a3.018,3.018,0,0,1,1.128.192V269.66a4.278,4.278,0,0,0-.936-0.1,3.572,3.572,0,0,0-3.361,2.449v-2.329H50.956v12Zm21.147-6a6.277,6.277,0,1,0-6.265,6.241A6.16,6.16,0,0,0,72.1,275.686Zm-10.442,0a4.168,4.168,0,1,1,4.177,4.32A4.125,4.125,0,0,1,61.66,275.686Zm14.591,6h2.064v-5.953c0-2.713,1.368-4.393,3.313-4.393,1.56,0,2.352,1.344,2.352,3.288v7.058h2.064v-5.953c0-2.713,1.344-4.393,3.289-4.393,1.56,0,2.377,1.344,2.377,3.288v7.058h2.064v-7.37c0-2.928-1.584-4.873-4.2-4.873a4.155,4.155,0,0,0-3.937,2.569,3.774,3.774,0,0,0-3.7-2.569,4.035,4.035,0,0,0-3.625,2.089v-1.849H76.252v12Zm35.593-.168V279.67a4.562,4.562,0,0,1-1.464.24c-1.3,0-1.993-.5-1.993-2.04v-6.289h3.457v-1.9h-3.457v-3.336h-2.064v3.336h-2.545v1.9h2.545v6.553A3.378,3.378,0,0,0,110,281.807,5.744,5.744,0,0,0,111.845,281.519Zm3.838,0.168h2.065v-5.953c0-2.809,1.536-4.393,3.481-4.393,1.68,0,2.832,1.248,2.832,3.264v7.082H126.1v-7.394c0-2.976-1.849-4.849-4.537-4.849a4.245,4.245,0,0,0-3.817,2.089v-7.85h-2.065v18Zm14.4-6A6.327,6.327,0,0,0,141.7,279.07l-1.632-1.128a4.25,4.25,0,0,1-7.9-1.848h9.842a5.856,5.856,0,0,0,.024-0.624c-0.024-3.841-2.568-6.026-5.713-6.026A6.082,6.082,0,0,0,130.083,275.686Zm6.169-4.417a3.591,3.591,0,0,1,3.673,3.144h-7.61A3.924,3.924,0,0,1,136.252,271.269ZM155.715,265a1.45,1.45,0,0,0-1.44-1.465A1.491,1.491,0,0,0,152.787,265a1.475,1.475,0,0,0,1.488,1.464A1.434,1.434,0,0,0,155.715,265Zm-2.5,16.683h2.064v-12h-2.064v12Zm7.176,0h2.064v-5.953c0-2.809,1.536-4.393,3.481-4.393,1.68,0,2.832,1.248,2.832,3.264v7.082h2.041v-7.394c0-2.976-1.849-4.849-4.537-4.849a4.245,4.245,0,0,0-3.817,2.089v-1.849H160.4v12Zm23.113-3.337c0-1.8-1.128-2.952-3.169-3.625l-1.3-.432c-1.416-.456-1.848-0.912-1.848-1.68,0-.888.888-1.392,2.016-1.392a3.246,3.246,0,0,1,2.545,1.248l1.344-1.3a4.654,4.654,0,0,0-3.841-1.729c-2.376,0-4.057,1.321-4.057,3.265,0,1.68,1.032,2.857,2.977,3.481l1.176,0.384c1.56,0.5,2.136,1.08,2.136,1.92,0,1.032-.936,1.632-2.112,1.632a3.222,3.222,0,0,1-3.073-1.9l-1.68.912a4.767,4.767,0,0,0,4.7,2.785C181.756,281.927,183.508,280.7,183.508,278.35ZM190.155,265a1.45,1.45,0,0,0-1.441-1.465A1.491,1.491,0,0,0,187.226,265a1.475,1.475,0,0,0,1.488,1.464A1.435,1.435,0,0,0,190.155,265Zm-2.5,16.683h2.064v-12h-2.064v12Zm6.24-6a6.006,6.006,0,0,0,5.881,6.241A5.262,5.262,0,0,0,204,279.838v1.849h2.064v-18H204v7.85a5.265,5.265,0,0,0-4.225-2.089A6.006,6.006,0,0,0,193.9,275.686Zm10.274,0a4.1,4.1,0,1,1-4.081-4.345A4.1,4.1,0,0,1,204.172,275.686Zm6.045,0a6.328,6.328,0,0,0,11.619,3.384l-1.632-1.128a4.25,4.25,0,0,1-7.9-1.848h9.842a5.856,5.856,0,0,0,.024-0.624c-0.024-3.841-2.569-6.026-5.713-6.026A6.083,6.083,0,0,0,210.217,275.686Zm6.17-4.417a3.592,3.592,0,0,1,3.673,3.144h-7.61A3.923,3.923,0,0,1,216.387,271.269Zm28.561,4.417a6.278,6.278,0,1,0-6.266,6.241A6.16,6.16,0,0,0,244.948,275.686Zm-10.443,0a4.168,4.168,0,1,1,4.177,4.32A4.126,4.126,0,0,1,234.505,275.686Zm14.424,1.368c0,2.976,1.776,4.873,4.417,4.873a4.13,4.13,0,0,0,3.7-2.089v1.849h2.064v-12h-2.064v5.954c0,2.76-1.465,4.392-3.337,4.392-1.656,0-2.713-1.272-2.713-3.288v-7.058h-2.064v7.37Zm21.769,4.465V279.67a4.562,4.562,0,0,1-1.464.24c-1.3,0-1.993-.5-1.993-2.04v-6.289H270.7v-1.9h-3.457v-3.336h-2.064v3.336h-2.545v1.9h2.545v6.553a3.378,3.378,0,0,0,3.673,3.673A5.743,5.743,0,0,0,270.7,281.519Zm6.407-.36a2.055,2.055,0,0,0,.336-1.081,1.776,1.776,0,1,0-3.552,0,1.786,1.786,0,0,0,.984,1.609l-1.609,3.432h1.369Zm11.663-4.105c0,2.976,1.777,4.873,4.417,4.873a4.128,4.128,0,0,0,3.7-2.089v1.849h2.064v-12h-2.064v5.954c0,2.76-1.464,4.392-3.337,4.392-1.656,0-2.712-1.272-2.712-3.288v-7.058h-2.065v7.37Zm23.042,1.3c0-1.8-1.128-2.952-3.169-3.625l-1.3-.432c-1.416-.456-1.849-0.912-1.849-1.68,0-.888.889-1.392,2.017-1.392a3.242,3.242,0,0,1,2.544,1.248l1.345-1.3a4.654,4.654,0,0,0-3.841-1.729c-2.377,0-4.057,1.321-4.057,3.265,0,1.68,1.032,2.857,2.977,3.481l1.176,0.384c1.56,0.5,2.136,1.08,2.136,1.92,0,1.032-.936,1.632-2.112,1.632a3.222,3.222,0,0,1-3.073-1.9l-1.68.912a4.767,4.767,0,0,0,4.7,2.785C310.057,281.927,311.81,280.7,311.81,278.35ZM318.457,265a1.45,1.45,0,0,0-1.441-1.465A1.491,1.491,0,0,0,315.528,265a1.475,1.475,0,0,0,1.488,1.464A1.435,1.435,0,0,0,318.457,265Zm-2.5,16.683h2.064v-12H315.96v12Zm7.176,0H325.2v-5.953c0-2.809,1.537-4.393,3.481-4.393,1.68,0,2.833,1.248,2.833,3.264v7.082h2.04v-7.394c0-2.976-1.848-4.849-4.537-4.849a4.246,4.246,0,0,0-3.817,2.089v-1.849h-2.064v12Zm26.522-.7V269.684h-2.064v1.849a5.11,5.11,0,0,0-4.177-2.089,6.115,6.115,0,0,0,0,12.219,5.126,5.126,0,0,0,4.177-2.113v1.369a3.837,3.837,0,0,1-4.009,4.152,5.134,5.134,0,0,1-4.2-2.016l-1.441,1.44a7.129,7.129,0,0,0,5.666,2.449C347.017,286.944,349.658,285,349.658,280.991Zm-10.01-5.449a4.059,4.059,0,1,1,4.057,4.2A4,4,0,0,1,339.648,275.542Zm28.248,5.977V279.67a4.562,4.562,0,0,1-1.464.24c-1.3,0-1.992-.5-1.992-2.04v-6.289H367.9v-1.9H364.44v-3.336h-2.065v3.336h-2.544v1.9h2.544v6.553a3.379,3.379,0,0,0,3.673,3.673A5.743,5.743,0,0,0,367.9,281.519Zm3.839,0.168H373.8v-5.953c0-2.809,1.537-4.393,3.481-4.393,1.681,0,2.833,1.248,2.833,3.264v7.082h2.04v-7.394c0-2.976-1.848-4.849-4.537-4.849a4.247,4.247,0,0,0-3.817,2.089v-7.85h-2.064v18Zm14.4-6a6.327,6.327,0,0,0,11.618,3.384l-1.632-1.128a4.25,4.25,0,0,1-7.9-1.848h9.842a5.856,5.856,0,0,0,.024-0.624c-0.024-3.841-2.568-6.026-5.713-6.026A6.082,6.082,0,0,0,386.135,275.686Zm6.169-4.417a3.591,3.591,0,0,1,3.673,3.144h-7.61A3.923,3.923,0,0,1,392.3,271.269Zm17.663,10.418h2.064V271.581h3.481v-1.9h-3.481v-2.208c0-1.512.672-2.04,1.993-2.04a4.833,4.833,0,0,1,1.488.24v-1.825a5.454,5.454,0,0,0-1.872-.312,3.428,3.428,0,0,0-3.673,3.721v2.424h-2.545v1.9h2.545v10.106ZM420.265,265a1.45,1.45,0,0,0-1.44-1.465A1.492,1.492,0,0,0,417.336,265a1.476,1.476,0,0,0,1.489,1.464A1.434,1.434,0,0,0,420.265,265Zm-2.5,16.683h2.064v-12h-2.064v12Zm7.149,0h2.065v-5.953c0-2.809,1.536-4.393,3.481-4.393,1.68,0,2.832,1.248,2.832,3.264v7.082h2.041v-7.394c0-2.976-1.849-4.849-4.537-4.849a4.245,4.245,0,0,0-3.817,2.089v-1.849h-2.065v12Zm14.4-6a6.327,6.327,0,0,0,11.618,3.384l-1.632-1.128a4.25,4.25,0,0,1-7.9-1.848h9.842a5.623,5.623,0,0,0,.025-0.624c-0.025-3.841-2.569-6.026-5.714-6.026A6.083,6.083,0,0,0,439.318,275.686Zm6.169-4.417a3.591,3.591,0,0,1,3.673,3.144h-7.61A3.924,3.924,0,0,1,445.487,271.269Zm17.689,7.081c0-1.8-1.129-2.952-3.169-3.625l-1.3-.432c-1.417-.456-1.849-0.912-1.849-1.68,0-.888.888-1.392,2.017-1.392a3.242,3.242,0,0,1,2.544,1.248l1.345-1.3a4.655,4.655,0,0,0-3.841-1.729c-2.377,0-4.057,1.321-4.057,3.265,0,1.68,1.032,2.857,2.977,3.481l1.176,0.384c1.56,0.5,2.136,1.08,2.136,1.92,0,1.032-.936,1.632-2.112,1.632a3.222,3.222,0,0,1-3.073-1.9l-1.68.912A4.766,4.766,0,0,0,459,281.927C461.423,281.927,463.176,280.7,463.176,278.35Zm10.511,3.169V279.67a4.562,4.562,0,0,1-1.464.24c-1.3,0-1.992-.5-1.992-2.04v-6.289h3.456v-1.9h-3.456v-3.336h-2.065v3.336h-2.544v1.9h2.544v6.553a3.378,3.378,0,0,0,3.673,3.673A5.743,5.743,0,0,0,473.687,281.519Zm11.591,0.168h2.065V271.581h3.48v-1.9h-3.48v-2.208c0-1.512.672-2.04,1.992-2.04a4.833,4.833,0,0,1,1.488.24v-1.825a5.454,5.454,0,0,0-1.872-.312,3.428,3.428,0,0,0-3.673,3.721v2.424h-2.544v1.9h2.544v10.106Zm7.752-6a6.006,6.006,0,0,0,5.881,6.241,5.262,5.262,0,0,0,4.225-2.089v1.849H505.2v-12h-2.064v1.849a5.265,5.265,0,0,0-4.225-2.089A6.006,6.006,0,0,0,493.03,275.686Zm10.274,0a4.1,4.1,0,1,1-4.081-4.345A4.1,4.1,0,0,1,503.3,275.686Zm9.046,4.152a5.262,5.262,0,0,0,4.225,2.089,6.253,6.253,0,0,0,0-12.483,5.265,5.265,0,0,0-4.225,2.089v-7.85h-2.064v18h2.064v-1.849Zm7.994-4.152a4.089,4.089,0,1,1-4.081-4.345A4.1,4.1,0,0,1,520.344,275.686Zm6.261,6h2.065v-5.953c0-2.809,1.656-4.129,3.169-4.129a3.017,3.017,0,0,1,1.128.192V269.66a4.276,4.276,0,0,0-.936-0.1,3.571,3.571,0,0,0-3.361,2.449v-2.329h-2.065v12ZM539.086,265a1.45,1.45,0,0,0-1.44-1.465A1.491,1.491,0,0,0,536.157,265a1.475,1.475,0,0,0,1.489,1.464A1.434,1.434,0,0,0,539.086,265Zm-2.5,16.683h2.065v-12h-2.065v12Zm18.075-2.977-1.8-1.008a4.068,4.068,0,0,1-3.745,2.3,4.322,4.322,0,0,1,0-8.641,4.068,4.068,0,0,1,3.745,2.3l1.8-1.008a6.218,6.218,0,0,0-5.546-3.217,6.242,6.242,0,1,0,0,12.483A6.216,6.216,0,0,0,554.664,278.71Zm11.639-.36c0-1.8-1.129-2.952-3.169-3.625l-1.3-.432c-1.417-.456-1.849-0.912-1.849-1.68,0-.888.888-1.392,2.017-1.392a3.242,3.242,0,0,1,2.544,1.248l1.344-1.3a4.652,4.652,0,0,0-3.84-1.729c-2.377,0-4.057,1.321-4.057,3.265,0,1.68,1.032,2.857,2.976,3.481l1.177,0.384c1.56,0.5,2.136,1.08,2.136,1.92,0,1.032-.936,1.632-2.112,1.632a3.221,3.221,0,0,1-3.073-1.9l-1.68.912a4.766,4.766,0,0,0,4.7,2.785C564.55,281.927,566.3,280.7,566.3,278.35Zm6.718,2.809a2.055,2.055,0,0,0,.336-1.081,1.776,1.776,0,1,0-3.552,0,1.786,1.786,0,0,0,.984,1.609l-1.609,3.432h1.369Zm13.9-1.321a5.261,5.261,0,0,0,4.225,2.089,6.253,6.253,0,0,0,0-12.483,5.264,5.264,0,0,0-4.225,2.089v-7.85h-2.065v18h2.065v-1.849Zm7.993-4.152a4.089,4.089,0,1,1-4.08-4.345A4.1,4.1,0,0,1,594.91,275.686Zm5.326,0a6.327,6.327,0,0,0,11.618,3.384l-1.632-1.128a4.25,4.25,0,0,1-7.9-1.848h9.842a5.856,5.856,0,0,0,.024-0.624c-0.024-3.841-2.568-6.026-5.713-6.026A6.082,6.082,0,0,0,600.236,275.686Zm6.169-4.417a3.591,3.591,0,0,1,3.673,3.144h-7.61A3.924,3.924,0,0,1,606.405,271.269Zm17.689,7.081c0-1.8-1.129-2.952-3.169-3.625l-1.3-.432c-1.417-.456-1.849-0.912-1.849-1.68,0-.888.888-1.392,2.017-1.392a3.242,3.242,0,0,1,2.544,1.248l1.345-1.3a4.655,4.655,0,0,0-3.841-1.729c-2.377,0-4.057,1.321-4.057,3.265,0,1.68,1.032,2.857,2.976,3.481l1.177,0.384c1.56,0.5,2.136,1.08,2.136,1.92,0,1.032-.936,1.632-2.112,1.632a3.221,3.221,0,0,1-3.073-1.9l-1.68.912a4.766,4.766,0,0,0,4.705,2.785C622.341,281.927,624.094,280.7,624.094,278.35Zm10.511,3.169V279.67a4.562,4.562,0,0,1-1.464.24c-1.3,0-1.993-.5-1.993-2.04v-6.289h3.457v-1.9h-3.457v-3.336h-2.064v3.336h-2.545v1.9h2.545v6.553a3.378,3.378,0,0,0,3.673,3.673A5.743,5.743,0,0,0,634.605,281.519Zm11.591,0.168h2.064V271.581h3.481v-1.9H648.26v-2.208c0-1.512.673-2.04,1.993-2.04a4.833,4.833,0,0,1,1.488.24v-1.825a5.454,5.454,0,0,0-1.872-.312,3.428,3.428,0,0,0-3.673,3.721v2.424h-2.545v1.9H646.2v10.106ZM656.494,265a1.45,1.45,0,0,0-1.44-1.465A1.491,1.491,0,0,0,653.566,265a1.475,1.475,0,0,0,1.488,1.464A1.434,1.434,0,0,0,656.494,265ZM654,281.687h2.064v-12H654v12Zm13.655-.168V279.67a4.562,4.562,0,0,1-1.464.24c-1.3,0-1.993-.5-1.993-2.04v-6.289h3.457v-1.9H664.2v-3.336h-2.064v3.336h-2.545v1.9h2.545v6.553a3.378,3.378,0,0,0,3.673,3.673A5.743,5.743,0,0,0,667.653,281.519Zm11.616-3.169c0-1.8-1.128-2.952-3.169-3.625l-1.3-.432c-1.416-.456-1.848-0.912-1.848-1.68,0-.888.888-1.392,2.016-1.392a3.244,3.244,0,0,1,2.545,1.248l1.344-1.3a4.654,4.654,0,0,0-3.841-1.729c-2.376,0-4.057,1.321-4.057,3.265,0,1.68,1.033,2.857,2.977,3.481l1.176,0.384c1.561,0.5,2.137,1.08,2.137,1.92,0,1.032-.937,1.632-2.113,1.632a3.221,3.221,0,0,1-3.072-1.9l-1.681.912a4.767,4.767,0,0,0,4.705,2.785C677.517,281.927,679.269,280.7,679.269,278.35ZM40.012,304.485a6.006,6.006,0,0,0,5.881,6.241,5.264,5.264,0,0,0,4.225-2.088v1.848h2.064v-12H50.118v1.848a5.264,5.264,0,0,0-4.225-2.088A6.006,6.006,0,0,0,40.012,304.485Zm10.274,0a4.1,4.1,0,1,1-4.081-4.345A4.1,4.1,0,0,1,50.286,304.485Zm6.982,6h2.064v-5.953c0-2.809,1.536-4.393,3.481-4.393,1.68,0,2.833,1.248,2.833,3.265v7.081h2.04v-7.393c0-2.977-1.848-4.849-4.537-4.849a4.245,4.245,0,0,0-3.817,2.088v-1.848H57.268v12Zm14.4-6a6.006,6.006,0,0,0,5.881,6.241,5.264,5.264,0,0,0,4.225-2.088v1.848h2.064v-18H81.774v7.849a5.264,5.264,0,0,0-4.225-2.088A6.006,6.006,0,0,0,71.668,304.485Zm10.274,0a4.1,4.1,0,1,1-4.081-4.345A4.1,4.1,0,0,1,81.942,304.485Zm16.1,4.153a5.264,5.264,0,0,0,4.225,2.088,6.252,6.252,0,0,0,0-12.482,5.264,5.264,0,0,0-4.225,2.088v-7.849H95.979v18h2.064v-1.848Zm7.993-4.153a4.089,4.089,0,1,1-4.081-4.345A4.1,4.1,0,0,1,106.037,304.485Zm5.326,0a6.327,6.327,0,0,0,11.618,3.384l-1.632-1.128a4.25,4.25,0,0,1-7.9-1.848h9.842a5.856,5.856,0,0,0,.024-0.624c-0.024-3.841-2.568-6.025-5.713-6.025A6.081,6.081,0,0,0,111.363,304.485Zm6.169-4.417a3.591,3.591,0,0,1,3.673,3.145H113.6A3.924,3.924,0,0,1,117.532,300.068Zm17.688,7.081c0-1.8-1.128-2.952-3.168-3.624l-1.3-.432c-1.416-.457-1.848-0.913-1.848-1.681,0-.888.888-1.392,2.017-1.392a3.242,3.242,0,0,1,2.544,1.248l1.344-1.3a4.654,4.654,0,0,0-3.84-1.728c-2.377,0-4.057,1.32-4.057,3.264,0,1.681,1.032,2.857,2.976,3.481l1.177,0.384c1.56,0.5,2.136,1.08,2.136,1.92,0,1.033-.936,1.633-2.112,1.633a3.22,3.22,0,0,1-3.073-1.9l-1.68.912a4.766,4.766,0,0,0,4.705,2.785C133.468,310.726,135.22,309.5,135.22,307.149Zm4.151,8.354h2.064v-6.865a5.264,5.264,0,0,0,4.225,2.088,6.252,6.252,0,0,0,0-12.482,5.264,5.264,0,0,0-4.225,2.088v-1.848h-2.064V315.5Zm10.058-11.018a4.089,4.089,0,1,1-4.081-4.345A4.1,4.1,0,0,1,149.429,304.485Zm17.88,0a6.278,6.278,0,1,0-6.265,6.241A6.159,6.159,0,0,0,167.309,304.485Zm-10.442,0a4.168,4.168,0,1,1,4.177,4.321A4.125,4.125,0,0,1,156.867,304.485Zm14.591,6h2.065v-6l6.5,6h2.785l-7.226-6.7,5.905-5.305h-2.736l-5.233,4.681V292.483h-2.065v18Zm12.432-6a6.327,6.327,0,0,0,11.618,3.384l-1.632-1.128a4.25,4.25,0,0,1-7.9-1.848h9.842a5.856,5.856,0,0,0,.024-0.624c-0.024-3.841-2.568-6.025-5.713-6.025A6.081,6.081,0,0,0,183.89,304.485Zm6.169-4.417a3.591,3.591,0,0,1,3.673,3.145h-7.61A3.924,3.924,0,0,1,190.059,300.068Zm9.527,4.729h6.121v-2.065h-6.121V304.8Zm10.847,5.689H212.5v-18h-2.065v18Zm9.673-16.683a1.45,1.45,0,0,0-1.441-1.464,1.491,1.491,0,0,0-1.488,1.464,1.475,1.475,0,0,0,1.488,1.464A1.435,1.435,0,0,0,220.106,293.8Zm-2.5,16.683h2.065v-12h-2.065v12Zm7.176,0h2.065v-6l6.5,6h2.785l-7.226-6.7,5.905-5.305h-2.736l-5.233,4.681V292.483h-2.065v18Zm12.432-6a6.327,6.327,0,0,0,11.618,3.384l-1.632-1.128a4.25,4.25,0,0,1-7.9-1.848h9.842a5.856,5.856,0,0,0,.024-0.624c-0.024-3.841-2.568-6.025-5.713-6.025A6.081,6.081,0,0,0,237.217,304.485Zm6.169-4.417a3.591,3.591,0,0,1,3.673,3.145h-7.61A3.924,3.924,0,0,1,243.386,300.068Zm16.03,4.417a6.006,6.006,0,0,0,5.881,6.241,5.263,5.263,0,0,0,4.225-2.088v1.848h2.065v-18h-2.065v7.849a5.263,5.263,0,0,0-4.225-2.088A6.006,6.006,0,0,0,259.416,304.485Zm10.274,0a4.1,4.1,0,1,1-4.081-4.345A4.1,4.1,0,0,1,269.69,304.485Zm6.046,0a6.327,6.327,0,0,0,11.618,3.384l-1.632-1.128a4.25,4.25,0,0,1-7.9-1.848h9.842a5.856,5.856,0,0,0,.024-0.624c-0.024-3.841-2.568-6.025-5.713-6.025A6.081,6.081,0,0,0,275.736,304.485Zm6.169-4.417a3.591,3.591,0,0,1,3.673,3.145h-7.61A3.924,3.924,0,0,1,281.9,300.068Zm16.249,10.25V308.47a4.568,4.568,0,0,1-1.465.24c-1.3,0-1.992-.5-1.992-2.041V300.38h3.457v-1.9H294.7v-3.337h-2.065v3.337h-2.544v1.9h2.544v6.553a3.379,3.379,0,0,0,3.673,3.673A5.749,5.749,0,0,0,298.154,310.318Zm2.734-5.833a6.007,6.007,0,0,0,5.882,6.241,5.262,5.262,0,0,0,4.224-2.088v1.848h2.065v-12h-2.065v1.848a5.262,5.262,0,0,0-4.224-2.088A6.006,6.006,0,0,0,300.888,304.485Zm10.274,0a4.1,4.1,0,1,1-4.08-4.345A4.1,4.1,0,0,1,311.162,304.485Zm9.479-10.682a1.45,1.45,0,0,0-1.441-1.464,1.491,1.491,0,0,0-1.488,1.464,1.475,1.475,0,0,0,1.488,1.464A1.435,1.435,0,0,0,320.641,293.8Zm-2.5,16.683h2.065v-12h-2.065v12Zm7.176,0h2.064v-18H325.32v18Zm14.954-3.337c0-1.8-1.129-2.952-3.169-3.624l-1.3-.432c-1.417-.457-1.849-0.913-1.849-1.681,0-.888.888-1.392,2.017-1.392a3.242,3.242,0,0,1,2.544,1.248l1.344-1.3a4.654,4.654,0,0,0-3.84-1.728c-2.377,0-4.057,1.32-4.057,3.264,0,1.681,1.032,2.857,2.976,3.481l1.177,0.384c1.56,0.5,2.136,1.08,2.136,1.92,0,1.033-.936,1.633-2.112,1.633a3.22,3.22,0,0,1-3.073-1.9l-1.68.912a4.766,4.766,0,0,0,4.7,2.785C338.521,310.726,340.274,309.5,340.274,307.149Zm7.006,1.729a1.777,1.777,0,1,0-1.776,1.8A1.808,1.808,0,0,0,347.28,308.878Z"/>
</svg>
