<svg id="copy_copy_2" data-name="copy copy 2" xmlns="http://www.w3.org/2000/svg" width="768" height="471" viewBox="0 0 768 471">
  <defs>
    <style>
      .cls-1 {
        fill: #fff;
      }

      .cls-1, .cls-2 {
        fill-rule: evenodd;
      }
    </style>
  </defs>
  <path id="Rectangle_106_copy_5" data-name="Rectangle 106 copy 5" class="cls-1" d="M0,0H767.8l0.183,471H0.183Z"/>
  <g id="CTA_underline_copy_3" data-name="CTA_underline copy 3">
    <rect id="Rectangle_4_copy_4" data-name="Rectangle 4 copy 4" x="39" y="377" width="122" height="4"/>
    <path id="Shop_now" data-name="Shop now" class="cls-2" d="M43.817,369.853c2.706,0,4.564-1.653,4.582-4.023,0.018-1.965-1.19-3.214-3.048-3.894l-0.9-.33c-1.353-.5-1.984-0.808-1.984-1.506,0-.68.776-0.992,1.551-0.992a2.831,2.831,0,0,1,2.219,1.083l1.876-2.02a5.3,5.3,0,0,0-4.131-1.8c-2.561,0-4.419,1.488-4.419,4.022,0,1.782,1.154,3.049,3.229,3.766l0.9,0.312c1.281,0.441,1.786.9,1.786,1.561,0,0.625-.6,1.084-1.551,1.084a3.335,3.335,0,0,1-2.652-1.488l-2.2,1.892A5.583,5.583,0,0,0,43.817,369.853Zm9.726-.221H56.41v-5.161h5.159v5.161h2.868V356.591H61.569V361.7H56.41v-5.107H53.542v13.041Zm22.66,0.221a6.742,6.742,0,1,0-6.62-6.741A6.7,6.7,0,0,0,76.2,369.853Zm0-2.829a3.917,3.917,0,1,1,3.716-3.912A3.837,3.837,0,0,1,76.2,367.024Zm20.622-5.969a4.4,4.4,0,0,0-4.51-4.464H87.967v13.041h2.868V365.5h1.479A4.385,4.385,0,0,0,96.824,361.055Zm-2.778,0a1.7,1.7,0,0,1-1.768,1.708H90.835v-3.416h1.443A1.688,1.688,0,0,1,94.046,361.055Zm25.979,8.577V356.591h-2.886v8.045l-6.223-8.045h-2.472v13.041h2.869v-8.063l6.241,8.063h2.471Zm11.765,0.221a6.742,6.742,0,1,0-6.62-6.741A6.7,6.7,0,0,0,131.79,369.853Zm0-2.829a3.917,3.917,0,1,1,3.716-3.912A3.837,3.837,0,0,1,131.79,367.024Zm21.686,2.608H156.2l2.976-13.041h-3.067l-1.749,8.266-3.608-8.486-3.589,8.486-1.75-8.266h-3.067l2.959,13.041h2.723l2.724-6.392Z"/>
  </g>
  <path id="Italian_Moleskin_Trucker_Jacket_Italian_moleskin_b._2018_Thi" data-name="Italian Moleskin Trucker Jacket  Italian moleskin, b. 2018  Thi" class="cls-2" d="M41.884,68.092h6.105V40.831H41.884V68.092Zm18.7,0h6.143V46.667h7.027V40.831H53.634v5.836h6.95V68.092Zm13.133,0h6.374l2.419-5.759H93.8l2.419,5.759h6.374L90.919,40.831H85.39Zm11.02-11.058,3.417-8.217,3.417,8.217H84.737Zm22.618,11.058h17.394V62.256H113.46V40.831h-6.1V68.092Zm23.117,0h6.1V40.831h-6.1V68.092Zm10.867,0h6.374l2.419-5.759H161.42l2.419,5.759h6.374L158.541,40.831h-5.53Zm11.02-11.058,3.417-8.217,3.417,8.217h-6.834Zm47.269,11.058V40.831h-6.144V57.649L180.237,40.831h-5.26V68.092h6.1V51.236l13.285,16.856h5.261Zm32.141-5.8,7.948-11.02V68.092h6.143V40.831h-5.567L231.769,52.58l-8.525-11.749h-5.567V68.092h6.105V51.275ZM266.1,68.553a14.091,14.091,0,1,0-14.092-14.091A14.126,14.126,0,0,0,266.1,68.553Zm0-5.913a8.183,8.183,0,1,1,7.91-8.178A8.088,8.088,0,0,1,266.1,62.64Zm20.237,5.452h17.394V62.256H292.44V40.831h-6.105V68.092Zm23.116,0H326.73V62.256H315.556V57.38h8.87V51.544h-8.87V46.667H326.73V40.831H309.451V68.092Zm31.987,0.461c5.759,0,9.714-3.456,9.753-8.409,0.038-4.108-2.534-6.719-6.489-8.14l-1.92-.691c-2.88-1.037-4.224-1.689-4.224-3.148,0-1.421,1.651-2.073,3.3-2.073a6.064,6.064,0,0,1,4.723,2.265l3.993-4.224a11.374,11.374,0,0,0-8.793-3.763c-5.452,0-9.407,3.11-9.407,8.409,0,3.724,2.458,6.374,6.873,7.871l1.92,0.653c2.726,0.922,3.8,1.881,3.8,3.264,0,1.306-1.267,2.265-3.3,2.265a7.132,7.132,0,0,1-5.644-3.11l-4.685,3.955A11.955,11.955,0,0,0,341.438,68.553Zm15.9-.461H363.4V55.882l11.1,12.21h7.833l-12.94-14.168,10.752-13.093h-7.488l-9.254,11.4v-11.4h-6.066V68.092Zm28.8,0h6.106V40.831h-6.106V68.092Zm38.437,0V40.831h-6.144V57.649L405.181,40.831h-5.26V68.092h6.105V51.236l13.285,16.856h5.261Zm21.85,0h6.144V46.667h7.026V40.831h-20.12v5.836h6.95V68.092Zm18.816,0h6.106V56.842h1l9.062,11.25h7.333L479.1,56.074c3.455-1.229,5.337-3.494,5.337-7.026a8.049,8.049,0,0,0-8.447-8.217H465.238V68.092Zm6.106-16.434V46.437h3.916c1.805,0,3.11.96,3.11,2.611,0,1.574-1.305,2.611-3.11,2.611h-3.916Zm31.641,16.894c6.527,0,11.212-4.454,11.212-11.25V40.831h-6.105V57.38c0,3.264-2.074,5.26-5.107,5.26s-5.107-2-5.107-5.26V40.831h-6.1V57.3C491.773,64.1,496.419,68.553,502.985,68.553Zm31.142,0A14.091,14.091,0,0,0,546.874,61.1L541.5,58.186a8.179,8.179,0,1,1,0-7.449l5.375-2.918A14.212,14.212,0,1,0,534.127,68.553Zm18.24-.461h6.067V55.882l11.1,12.21h7.833l-12.94-14.168,10.751-13.093h-7.487l-9.254,11.4v-11.4h-6.067V68.092Zm28.8,0h17.279V62.256H587.273V57.38h8.869V51.544h-8.869V46.667h11.173V40.831H581.167V68.092Zm23.847,0h6.105V56.842h1l9.062,11.25h7.334l-9.638-12.018c3.456-1.229,5.337-3.494,5.337-7.026a8.049,8.049,0,0,0-8.447-8.217H605.014V68.092Zm6.105-16.434V46.437h3.916c1.805,0,3.111.96,3.111,2.611,0,1.574-1.306,2.611-3.111,2.611h-3.916ZM48.6,109.352c4.685,0,8.908-2.342,8.908-7.91V81.63H51.406v19.428a2.807,2.807,0,0,1-5.606-.153H39.772C39.772,106.818,44.034,109.352,48.6,109.352Zm12.865-.461h6.374l2.419-5.759H81.549l2.419,5.759h6.374L78.67,81.63H73.14Zm11.02-11.058,3.417-8.217,3.417,8.217H72.488Zm33.945,11.519a14.092,14.092,0,0,0,12.748-7.449l-5.376-2.918a8.179,8.179,0,1,1,0-7.449l5.376-2.918A14.213,14.213,0,1,0,106.433,109.352Zm18.241-.461h6.067V96.681l11.1,12.21h7.833L136.731,94.723,147.482,81.63h-7.488l-9.253,11.4V81.63h-6.067v27.261Zm28.8,0h17.279v-5.836H159.579V98.179h8.87V92.342h-8.87V87.466h11.174V81.63H153.474v27.261Zm28.761,0h6.144V87.466h7.026V81.63h-20.12v5.836h6.95v21.425ZM41.486,142.49h2.456V123.744H41.486V142.49Zm15.524-.185v-2.033a5,5,0,0,1-1.611.264c-1.426,0-2.191-.554-2.191-2.244v-6.917h3.8v-2.086h-3.8v-3.67H50.937v3.67h-2.8v2.086h2.8v7.208a3.716,3.716,0,0,0,4.04,4.039A6.313,6.313,0,0,0,57.01,142.305Zm3.009-6.415a6.606,6.606,0,0,0,6.469,6.864,5.788,5.788,0,0,0,4.647-2.3v2.033h2.271v-13.2H71.135v2.033a5.788,5.788,0,0,0-4.647-2.3A6.606,6.606,0,0,0,60.019,135.89Zm11.3,0a4.51,4.51,0,1,1-4.489-4.779A4.508,4.508,0,0,1,71.319,135.89ZM79,142.49h2.271v-19.8H79v19.8Zm10.639-18.35a1.594,1.594,0,0,0-1.584-1.61,1.64,1.64,0,0,0-1.637,1.61,1.623,1.623,0,0,0,1.637,1.611A1.578,1.578,0,0,0,89.639,124.14Zm-2.746,18.35h2.271v-13.2H86.893v13.2Zm6.864-6.6a6.606,6.606,0,0,0,6.469,6.864,5.787,5.787,0,0,0,4.647-2.3v2.033h2.271v-13.2h-2.271v2.033a5.787,5.787,0,0,0-4.647-2.3A6.606,6.606,0,0,0,93.757,135.89Zm11.3,0a4.51,4.51,0,1,1-4.489-4.779A4.508,4.508,0,0,1,105.058,135.89Zm7.681,6.6h2.27v-6.548c0-3.089,1.69-4.831,3.829-4.831,1.848,0,3.116,1.373,3.116,3.59v7.789H124.2v-8.132c0-3.274-2.033-5.333-4.99-5.333a4.669,4.669,0,0,0-4.2,2.3v-2.033h-2.27v13.2Zm24.63,0h2.271v-6.548c0-2.983,1.505-4.831,3.644-4.831,1.716,0,2.587,1.478,2.587,3.617v7.762h2.271v-6.548c0-2.983,1.479-4.831,3.617-4.831,1.717,0,2.614,1.478,2.614,3.617v7.762h2.271v-8.105c0-3.222-1.743-5.36-4.621-5.36a4.568,4.568,0,0,0-4.33,2.825,4.149,4.149,0,0,0-4.066-2.825,4.437,4.437,0,0,0-3.987,2.3v-2.033h-2.271v13.2Zm37.437-6.6a6.9,6.9,0,1,0-6.891,6.864A6.774,6.774,0,0,0,174.806,135.89Zm-11.486,0a4.585,4.585,0,1,1,4.595,4.752A4.538,4.538,0,0,1,163.32,135.89Zm16.051,6.6h2.271v-19.8h-2.271v19.8Zm6.864-6.6a6.96,6.96,0,0,0,12.779,3.722l-1.8-1.241a4.674,4.674,0,0,1-8.687-2.033h10.825a6.285,6.285,0,0,0,.027-0.686c-0.027-4.225-2.825-6.627-6.284-6.627A6.69,6.69,0,0,0,186.235,135.89Zm6.786-4.859a3.95,3.95,0,0,1,4.039,3.459h-8.37A4.317,4.317,0,0,1,193.021,131.031Zm19.457,7.789c0-1.98-1.241-3.247-3.486-3.987l-1.426-.475c-1.557-.5-2.033-1-2.033-1.848,0-.977.977-1.531,2.218-1.531a3.567,3.567,0,0,1,2.8,1.373l1.479-1.426a5.12,5.12,0,0,0-4.225-1.9c-2.614,0-4.462,1.452-4.462,3.591,0,1.848,1.135,3.142,3.274,3.828l1.294,0.422c1.716,0.555,2.35,1.189,2.35,2.113,0,1.135-1.03,1.795-2.324,1.795a3.544,3.544,0,0,1-3.38-2.086l-1.848,1a5.244,5.244,0,0,0,5.175,3.062C210.55,142.754,212.478,141.408,212.478,138.82Zm4.565,3.67h2.271v-6.6l7.155,6.6h3.063l-7.947-7.366,6.5-5.835h-3.01l-5.756,5.148V122.688h-2.271v19.8Zm18.3-18.35a1.6,1.6,0,0,0-1.585-1.61,1.64,1.64,0,0,0-1.637,1.61,1.623,1.623,0,0,0,1.637,1.611A1.579,1.579,0,0,0,235.339,124.14Zm-2.746,18.35h2.27v-13.2h-2.27v13.2Zm7.893,0h2.271v-6.548c0-3.089,1.69-4.831,3.828-4.831,1.849,0,3.116,1.373,3.116,3.59v7.789h2.244v-8.132c0-3.274-2.033-5.333-4.99-5.333a4.667,4.667,0,0,0-4.2,2.3v-2.033h-2.271v13.2Zm19.694-.581a2.249,2.249,0,0,0,.37-1.188,1.954,1.954,0,1,0-3.908,0,1.965,1.965,0,0,0,1.083,1.769l-1.769,3.776h1.505Zm15.286-1.452a5.786,5.786,0,0,0,4.647,2.3,6.877,6.877,0,0,0,0-13.729,5.786,5.786,0,0,0-4.647,2.3v-8.634H273.2v19.8h2.271v-2.033Zm8.792-4.567a4.5,4.5,0,1,1-4.489-4.779A4.508,4.508,0,0,1,284.258,135.89Zm9.767,4.831a1.954,1.954,0,1,0-1.954,1.981A1.99,1.99,0,0,0,294.025,140.721Zm23.893-.422h-9.347c0.449-2.165,2.64-3.248,4.8-4.832,3.063-2.218,4.33-3.8,4.33-6.548,0-3.644-2.666-5.492-5.782-5.492-3.459,0-6.179,2.324-6.179,5.915h2.324a3.62,3.62,0,0,1,3.881-3.7,3.171,3.171,0,0,1,3.433,3.248c0,2.191-1.162,3.168-3.327,4.779-2.772,2.059-6.284,3.907-6.284,7.921v0.9h12.146V140.3Zm17.477-4.594v-5.228c0-4.145-2.8-7.05-6.654-7.05s-6.627,2.9-6.627,7.05v5.228c0,4.171,2.772,7.049,6.627,7.049S335.4,139.876,335.4,135.705Zm-11.011,0v-5.228c0-3.036,1.822-4.832,4.357-4.832,2.561,0,4.383,1.8,4.383,4.832v5.228c0,3.036-1.822,4.831-4.383,4.831C326.206,140.536,324.384,138.741,324.384,135.705Zm17.688,6.785h2.271V123.744H340.3l-1.848,2.244h3.617v16.5Zm19.907-5.624a5.24,5.24,0,0,0-2.931-4.911,4.388,4.388,0,0,0,1.9-3.7c0-2.8-2.165-4.832-5.254-4.832-3.01,0-5.281,2.033-5.281,4.832a4.368,4.368,0,0,0,1.954,3.7,5.24,5.24,0,0,0-2.984,4.911c0,3.406,2.641,5.888,6.311,5.888C359.418,142.754,361.979,140.272,361.979,136.866Zm-9.321-8.554a2.791,2.791,0,0,1,3.037-2.746,2.739,2.739,0,0,1,3.01,2.746,2.8,2.8,0,0,1-3.01,2.772A2.857,2.857,0,0,1,352.658,128.312Zm-0.977,8.554a3.722,3.722,0,0,1,4.014-3.749,3.744,3.744,0,1,1,0,7.472A3.731,3.731,0,0,1,351.681,136.866ZM44.717,195.289H46.9V180.358h5.305v-2.112H39.412v2.112h5.305v14.931Zm10.871,0h2.064v-5.953c0-2.809,1.536-4.393,3.481-4.393,1.68,0,2.833,1.248,2.833,3.265v7.081h2.04V187.9c0-2.977-1.848-4.849-4.537-4.849a4.245,4.245,0,0,0-3.817,2.088v-7.849H55.588v18ZM73.42,178.606a1.449,1.449,0,0,0-1.44-1.464,1.491,1.491,0,0,0-1.488,1.464,1.475,1.475,0,0,0,1.488,1.464A1.435,1.435,0,0,0,73.42,178.606Zm-2.5,16.683h2.064v-12H70.924v12Zm14.953-3.337c0-1.8-1.128-2.952-3.169-3.624l-1.3-.432c-1.416-.457-1.848-0.913-1.848-1.681,0-.888.888-1.392,2.016-1.392a3.243,3.243,0,0,1,2.544,1.248l1.344-1.3a4.655,4.655,0,0,0-3.841-1.728c-2.377,0-4.057,1.32-4.057,3.264,0,1.681,1.032,2.857,2.977,3.481l1.176,0.384c1.56,0.5,2.136,1.08,2.136,1.92,0,1.033-.936,1.633-2.112,1.633a3.221,3.221,0,0,1-3.073-1.9l-1.68.912a4.767,4.767,0,0,0,4.7,2.785C84.125,195.529,85.877,194.305,85.877,191.952Zm13.7-13.346a1.45,1.45,0,0,0-1.44-1.464,1.491,1.491,0,0,0-1.488,1.464,1.475,1.475,0,0,0,1.488,1.464A1.435,1.435,0,0,0,99.58,178.606Zm-2.5,16.683h2.064v-12H97.083v12Zm18.074-2.977-1.8-1.008a4.069,4.069,0,0,1-3.745,2.305,4.323,4.323,0,0,1,0-8.642,4.068,4.068,0,0,1,3.745,2.3l1.8-1.008a6.215,6.215,0,0,0-5.545-3.216,6.241,6.241,0,1,0,0,12.482A6.214,6.214,0,0,0,115.157,192.312Zm15.456-3.024a6.277,6.277,0,1,0-6.265,6.241A6.159,6.159,0,0,0,130.613,189.288Zm-10.442,0a4.168,4.168,0,1,1,4.177,4.321A4.125,4.125,0,0,1,120.171,189.288Zm14.591,6h2.065v-5.953c0-2.809,1.536-4.393,3.481-4.393,1.68,0,2.832,1.248,2.832,3.265v7.081h2.041V187.9c0-2.977-1.849-4.849-4.537-4.849a4.244,4.244,0,0,0-3.817,2.088v-1.848h-2.065v12ZM152.6,178.606a1.45,1.45,0,0,0-1.441-1.464,1.491,1.491,0,0,0-1.488,1.464,1.475,1.475,0,0,0,1.488,1.464A1.435,1.435,0,0,0,152.6,178.606Zm-2.5,16.683h2.065v-12H150.1v12Zm18.074-2.977-1.8-1.008a4.069,4.069,0,0,1-3.745,2.305,4.323,4.323,0,0,1,0-8.642,4.068,4.068,0,0,1,3.745,2.3l1.8-1.008a6.215,6.215,0,0,0-5.545-3.216,6.241,6.241,0,1,0,0,12.482A6.214,6.214,0,0,0,168.172,192.312Zm13.606-13.706a1.449,1.449,0,0,0-1.44-1.464,1.492,1.492,0,0,0-1.489,1.464,1.476,1.476,0,0,0,1.489,1.464A1.434,1.434,0,0,0,181.778,178.606Zm-0.432,4.681h-2.065v13.346c0,1.536-.72,2.041-1.848,2.041a5.262,5.262,0,0,1-.7-0.048v1.848a6.1,6.1,0,0,0,.984.072,3.365,3.365,0,0,0,3.625-3.673V183.287Zm4.175,6a6.006,6.006,0,0,0,5.881,6.241,5.263,5.263,0,0,0,4.225-2.088v1.848h2.065v-12h-2.065v1.848a5.263,5.263,0,0,0-4.225-2.088A6.006,6.006,0,0,0,185.521,189.288Zm10.274,0a4.1,4.1,0,1,1-4.081-4.345A4.1,4.1,0,0,1,195.8,189.288Zm17.88,3.024-1.8-1.008a4.07,4.07,0,0,1-3.745,2.305,4.323,4.323,0,0,1,0-8.642,4.069,4.069,0,0,1,3.745,2.3l1.8-1.008a6.215,6.215,0,0,0-5.545-3.216,6.241,6.241,0,1,0,0,12.482A6.214,6.214,0,0,0,213.675,192.312Zm3.862,2.977H219.6v-6l6.5,6h2.785l-7.226-6.7,5.906-5.305h-2.737l-5.233,4.681V177.286h-2.064v18Zm12.431-6a6.328,6.328,0,0,0,11.619,3.384l-1.633-1.128a4.249,4.249,0,0,1-7.9-1.848H241.9a5.856,5.856,0,0,0,.024-0.624c-0.024-3.841-2.569-6.025-5.714-6.025A6.082,6.082,0,0,0,229.968,189.288Zm6.169-4.417a3.591,3.591,0,0,1,3.673,3.145H232.2A3.923,3.923,0,0,1,236.137,184.871Zm16.249,10.25v-1.848a4.562,4.562,0,0,1-1.464.24c-1.3,0-1.993-.5-1.993-2.041v-6.289h3.457v-1.9h-3.457V179.95h-2.064v3.337H244.32v1.9h2.545v6.553a3.378,3.378,0,0,0,3.672,3.673A5.744,5.744,0,0,0,252.386,195.121Zm13.391-16.515a1.45,1.45,0,0,0-1.441-1.464,1.491,1.491,0,0,0-1.488,1.464,1.475,1.475,0,0,0,1.488,1.464A1.435,1.435,0,0,0,265.777,178.606Zm-2.5,16.683h2.065v-12H263.28v12Zm14.954-3.337c0-1.8-1.129-2.952-3.169-3.624l-1.3-.432c-1.417-.457-1.849-0.913-1.849-1.681,0-.888.888-1.392,2.017-1.392a3.242,3.242,0,0,1,2.544,1.248l1.344-1.3a4.654,4.654,0,0,0-3.84-1.728c-2.377,0-4.057,1.32-4.057,3.264,0,1.681,1.032,2.857,2.976,3.481l1.177,0.384c1.56,0.5,2.136,1.08,2.136,1.92,0,1.033-.936,1.633-2.112,1.633a3.22,3.22,0,0,1-3.073-1.9l-1.68.912a4.766,4.766,0,0,0,4.705,2.785C276.481,195.529,278.234,194.305,278.234,191.952Zm13.7-13.346a1.449,1.449,0,0,0-1.44-1.464,1.491,1.491,0,0,0-1.489,1.464,1.475,1.475,0,0,0,1.489,1.464A1.434,1.434,0,0,0,291.936,178.606Zm-2.5,16.683H291.5v-12h-2.065v12Zm7.176,0h2.065v-5.953c0-2.809,1.536-4.393,3.48-4.393,1.681,0,2.833,1.248,2.833,3.265v7.081h2.04V187.9c0-2.977-1.848-4.849-4.537-4.849a4.243,4.243,0,0,0-3.816,2.088v-1.848h-2.065v12Zm23.114-3.337c0-1.8-1.129-2.952-3.169-3.624l-1.3-.432c-1.417-.457-1.849-0.913-1.849-1.681,0-.888.888-1.392,2.017-1.392a3.242,3.242,0,0,1,2.544,1.248l1.345-1.3a4.657,4.657,0,0,0-3.841-1.728c-2.377,0-4.057,1.32-4.057,3.264,0,1.681,1.032,2.857,2.977,3.481l1.176,0.384c1.56,0.5,2.136,1.08,2.136,1.92,0,1.033-.936,1.633-2.112,1.633a3.22,3.22,0,0,1-3.073-1.9l-1.68.912a4.766,4.766,0,0,0,4.705,2.785C317.976,195.529,319.729,194.305,319.729,191.952Zm4.15,8.354h2.064v-6.865a5.264,5.264,0,0,0,4.225,2.088,6.252,6.252,0,0,0,0-12.482,5.264,5.264,0,0,0-4.225,2.088v-1.848h-2.064v17.019Zm10.058-11.018a4.089,4.089,0,1,1-4.081-4.345A4.1,4.1,0,0,1,333.937,189.288Zm8.782-10.682a1.449,1.449,0,0,0-1.44-1.464,1.491,1.491,0,0,0-1.488,1.464,1.475,1.475,0,0,0,1.488,1.464A1.434,1.434,0,0,0,342.719,178.606Zm-2.5,16.683h2.064v-12h-2.064v12Zm7.176,0h2.064v-5.953c0-2.809,1.656-4.129,3.169-4.129a3.017,3.017,0,0,1,1.128.192v-2.136a4.276,4.276,0,0,0-.936-0.1,3.57,3.57,0,0,0-3.361,2.448v-2.328H347.4v12Zm8.615-6a6.328,6.328,0,0,0,11.619,3.384L366,191.544a4.25,4.25,0,0,1-7.9-1.848h9.842a5.856,5.856,0,0,0,.024-0.624c-0.024-3.841-2.568-6.025-5.713-6.025A6.082,6.082,0,0,0,356.014,189.288Zm6.17-4.417a3.591,3.591,0,0,1,3.673,3.145h-7.61A3.923,3.923,0,0,1,362.184,184.871Zm8.974,4.417a6.007,6.007,0,0,0,5.882,6.241,5.262,5.262,0,0,0,4.224-2.088v1.848h2.065v-18h-2.065v7.849a5.262,5.262,0,0,0-4.224-2.088A6.006,6.006,0,0,0,371.158,189.288Zm10.275,0a4.1,4.1,0,1,1-4.081-4.345A4.1,4.1,0,0,1,381.433,189.288Zm16.1,4.153a5.266,5.266,0,0,0,4.225,2.088,6.252,6.252,0,0,0,0-12.482,5.266,5.266,0,0,0-4.225,2.088v-7.849H395.47v18h2.064v-1.848Zm7.994-4.153a4.089,4.089,0,1,1-4.081-4.345A4.1,4.1,0,0,1,405.528,189.288Zm9.215,11.018,7.873-17.019h-2.3l-4.105,9.1-4.129-9.1H409.8l5.257,11.378-2.617,5.641h2.305Zm17.975-5.017h6.1c3.457,0,5.713-2.136,5.713-4.969a4.061,4.061,0,0,0-2.952-4.081,3.862,3.862,0,0,0,1.824-3.48c0-2.4-1.92-4.513-5.089-4.513h-5.593v17.043Zm2.232-9.722v-5.305h3.361a2.68,2.68,0,0,1,2.905,2.665,2.624,2.624,0,0,1-2.905,2.64H434.95Zm0,7.706v-5.786h3.985c2.257,0,3.409,1.249,3.409,2.905,0,1.68-1.152,2.881-3.433,2.881H434.95Zm12.816-3.985a6.006,6.006,0,0,0,5.881,6.241,5.264,5.264,0,0,0,4.225-2.088v1.848h2.064v-12h-2.064v1.848a5.264,5.264,0,0,0-4.225-2.088A6.005,6.005,0,0,0,447.766,189.288Zm10.274,0a4.1,4.1,0,1,1-4.081-4.345A4.1,4.1,0,0,1,458.04,189.288Zm6.982,6h2.064v-5.953c0-2.809,1.536-4.393,3.481-4.393,1.68,0,2.832,1.248,2.832,3.265v7.081h2.041V187.9c0-2.977-1.849-4.849-4.537-4.849a4.244,4.244,0,0,0-3.817,2.088v-1.848h-2.064v12Zm14.4-6a6.006,6.006,0,0,0,5.881,6.241,5.263,5.263,0,0,0,4.225-2.088v1.848h2.065v-12h-2.065v1.848a5.263,5.263,0,0,0-4.225-2.088A6.006,6.006,0,0,0,479.421,189.288Zm10.274,0a4.1,4.1,0,1,1-4.081-4.345A4.1,4.1,0,0,1,489.7,189.288Zm6.982,6h2.064v-5.953c0-2.809,1.537-4.393,3.481-4.393,1.681,0,2.833,1.248,2.833,3.265v7.081h2.04V187.9c0-2.977-1.848-4.849-4.537-4.849a4.246,4.246,0,0,0-3.817,2.088v-1.848h-2.064v12Zm14.4-6a6.006,6.006,0,0,0,5.881,6.241,5.264,5.264,0,0,0,4.225-2.088v1.848h2.064v-12h-2.064v1.848a5.264,5.264,0,0,0-4.225-2.088A6.005,6.005,0,0,0,511.077,189.288Zm10.274,0a4.1,4.1,0,1,1-4.081-4.345A4.1,4.1,0,0,1,521.351,189.288Zm14.349,6h2.233v-7.754h1.656l6.554,7.754h2.808l-6.553-7.778c2.616-.384,4.2-2.064,4.2-4.56,0-2.809-1.945-4.7-5.089-4.7H535.7v17.043Zm2.233-9.746V180.31h3.312c1.945,0,3.121.912,3.121,2.641,0,1.7-1.176,2.592-3.121,2.592h-3.312Zm12.6,3.745a6.327,6.327,0,0,0,11.618,3.384l-1.632-1.128a4.25,4.25,0,0,1-7.9-1.848h9.842a5.856,5.856,0,0,0,.024-0.624c-0.024-3.841-2.568-6.025-5.713-6.025A6.081,6.081,0,0,0,550.532,189.288Zm6.169-4.417a3.591,3.591,0,0,1,3.673,3.145h-7.61A3.924,3.924,0,0,1,556.7,184.871Zm9.911,15.435h2.064v-6.865a5.266,5.266,0,0,0,4.225,2.088,6.252,6.252,0,0,0,0-12.482,5.266,5.266,0,0,0-4.225,2.088v-1.848h-2.064v17.019Zm10.058-11.018a4.089,4.089,0,1,1-4.081-4.345A4.1,4.1,0,0,1,576.67,189.288Zm6.118,1.368c0,2.977,1.776,4.873,4.417,4.873a4.131,4.131,0,0,0,3.7-2.088v1.848h2.064v-12H590.9v5.953c0,2.76-1.465,4.393-3.337,4.393-1.657,0-2.713-1.273-2.713-3.289v-7.057h-2.064v7.369Zm17.328,2.785a5.264,5.264,0,0,0,4.225,2.088,6.252,6.252,0,0,0,0-12.482,5.264,5.264,0,0,0-4.225,2.088v-7.849h-2.064v18h2.064v-1.848Zm7.994-4.153a4.089,4.089,0,1,1-4.081-4.345A4.1,4.1,0,0,1,608.11,189.288Zm6.262,6h2.064v-18h-2.064v18Zm9.672-16.683a1.449,1.449,0,0,0-1.44-1.464,1.491,1.491,0,0,0-1.489,1.464,1.475,1.475,0,0,0,1.489,1.464A1.434,1.434,0,0,0,624.044,178.606Zm-2.5,16.683h2.065v-12h-2.065v12Zm18.074-2.977-1.8-1.008a4.069,4.069,0,0,1-3.745,2.305,4.323,4.323,0,0,1,0-8.642,4.068,4.068,0,0,1,3.745,2.3l1.8-1.008a6.215,6.215,0,0,0-5.545-3.216,6.241,6.241,0,1,0,0,12.482A6.214,6.214,0,0,0,639.621,192.312Zm6.623-11.474a2.121,2.121,0,0,0,.336-1.08,1.789,1.789,0,1,0-3.577,0,1.86,1.86,0,0,0,.984,1.608l-1.608,3.433h1.392Zm11.209,11.114c0-1.8-1.128-2.952-3.169-3.624l-1.3-.432c-1.416-.457-1.848-0.913-1.848-1.681,0-.888.888-1.392,2.016-1.392a3.244,3.244,0,0,1,2.545,1.248l1.344-1.3a4.656,4.656,0,0,0-3.841-1.728c-2.376,0-4.057,1.32-4.057,3.264,0,1.681,1.033,2.857,2.977,3.481l1.176,0.384c1.561,0.5,2.137,1.08,2.137,1.92,0,1.033-.937,1.633-2.113,1.633a3.22,3.22,0,0,1-3.072-1.9l-1.681.912a4.767,4.767,0,0,0,4.7,2.785C655.7,195.529,657.453,194.305,657.453,191.952ZM40.012,218.087a6.007,6.007,0,0,0,6.217,6.241,6.029,6.029,0,0,0,5.4-2.856L50,220.343a4.249,4.249,0,0,1-7.9-1.848h9.842a5.856,5.856,0,0,0,.024-0.624c-0.024-3.841-2.569-6.025-5.713-6.025A6.082,6.082,0,0,0,40.012,218.087Zm6.169-4.417a3.591,3.591,0,0,1,3.673,3.145h-7.61A3.924,3.924,0,0,1,46.181,213.67Zm7.679,10.418h2.569l3.649-4.537,3.649,4.537h2.545l-4.9-6.073,4.513-5.929h-2.52l-3.289,4.321-3.313-4.321h-2.5l4.513,5.929Zm15.72,5.017h2.064V222.24a5.264,5.264,0,0,0,4.225,2.088,6.252,6.252,0,0,0,0-12.482,5.264,5.264,0,0,0-4.225,2.088v-1.848H69.58v17.019Zm10.058-11.018a4.089,4.089,0,1,1-4.081-4.345A4.1,4.1,0,0,1,79.638,218.087Zm6.286,6h2.064v-18H85.924v18Zm18.771-6a6.278,6.278,0,1,0-6.266,6.241A6.159,6.159,0,0,0,104.7,218.087Zm-10.443,0a4.168,4.168,0,1,1,4.177,4.321A4.126,4.126,0,0,1,94.252,218.087Zm14.592,6h2.064v-5.953c0-2.808,1.657-4.129,3.169-4.129a3.017,3.017,0,0,1,1.128.192v-2.136a4.276,4.276,0,0,0-.936-0.1,3.571,3.571,0,0,0-3.361,2.448v-2.328h-2.064v12Zm8.616-6a6.328,6.328,0,0,0,11.618,3.385l-1.632-1.129a4.25,4.25,0,0,1-7.9-1.848h9.842a5.856,5.856,0,0,0,.024-0.624c-0.024-3.841-2.568-6.025-5.713-6.025A6.081,6.081,0,0,0,117.46,218.087Zm6.169-4.417a3.591,3.591,0,0,1,3.673,3.145h-7.61A3.924,3.924,0,0,1,123.629,213.67Zm9.911,10.418H135.6v-5.953c0-2.808,1.657-4.129,3.169-4.129a3.017,3.017,0,0,1,1.128.192v-2.136a4.276,4.276,0,0,0-.936-0.1,3.571,3.571,0,0,0-3.361,2.448v-2.328H133.54v12Zm24.217-3.336c0-1.8-1.128-2.953-3.168-3.625l-1.3-.432c-1.416-.456-1.848-0.912-1.848-1.681,0-.888.888-1.392,2.016-1.392a3.243,3.243,0,0,1,2.545,1.248l1.344-1.3a4.654,4.654,0,0,0-3.841-1.728c-2.376,0-4.057,1.32-4.057,3.265,0,1.68,1.033,2.856,2.977,3.48l1.176,0.384c1.561,0.5,2.137,1.08,2.137,1.921,0,1.032-.936,1.632-2.113,1.632a3.221,3.221,0,0,1-3.072-1.9l-1.681.912a4.768,4.768,0,0,0,4.705,2.784C156.005,224.328,157.757,223.1,157.757,220.752Zm4.15,8.353h2.065V222.24a5.263,5.263,0,0,0,4.225,2.088,6.252,6.252,0,0,0,0-12.482,5.263,5.263,0,0,0-4.225,2.088v-1.848h-2.065v17.019Zm10.058-11.018a4.089,4.089,0,1,1-4.08-4.345A4.1,4.1,0,0,1,171.965,218.087Zm8.783-10.682a1.45,1.45,0,0,0-1.441-1.464,1.491,1.491,0,0,0-1.488,1.464,1.475,1.475,0,0,0,1.488,1.464A1.435,1.435,0,0,0,180.748,207.405Zm-2.5,16.683h2.065v-12h-2.065v12Zm7.176,0h2.065v-5.953c0-2.808,1.656-4.129,3.168-4.129a3.017,3.017,0,0,1,1.128.192v-2.136a4.276,4.276,0,0,0-.936-0.1,3.57,3.57,0,0,0-3.36,2.448v-2.328h-2.065v12Zm12.481-16.683a1.45,1.45,0,0,0-1.441-1.464,1.491,1.491,0,0,0-1.488,1.464,1.475,1.475,0,0,0,1.488,1.464A1.435,1.435,0,0,0,197.908,207.405Zm-2.5,16.683h2.064v-12h-2.064v12Zm13.681-.168v-1.848a4.562,4.562,0,0,1-1.464.24c-1.3,0-1.992-.5-1.992-2.041v-6.289h3.456v-1.9h-3.456v-3.337h-2.065v3.337h-2.544v1.9h2.544v6.554a3.378,3.378,0,0,0,3.673,3.672A5.743,5.743,0,0,0,209.092,223.92Zm9.958-5.833a6.006,6.006,0,0,0,5.882,6.241,5.262,5.262,0,0,0,4.224-2.088v1.848h2.065v-12h-2.065v1.848a5.262,5.262,0,0,0-4.224-2.088A6.006,6.006,0,0,0,219.05,218.087Zm10.274,0a4.1,4.1,0,1,1-4.08-4.345A4.1,4.1,0,0,1,229.324,218.087Zm6.982,6h2.065v-5.953c0-2.808,1.536-4.393,3.48-4.393,1.681,0,2.833,1.248,2.833,3.265v7.081h2.04V216.7c0-2.977-1.848-4.849-4.537-4.849a4.243,4.243,0,0,0-3.816,2.088v-1.848h-2.065v12Zm14.4-6a6.005,6.005,0,0,0,5.881,6.241,5.264,5.264,0,0,0,4.225-2.088v1.848h2.064v-18h-2.064v7.849a5.264,5.264,0,0,0-4.225-2.088A6.005,6.005,0,0,0,250.706,218.087Zm10.274,0a4.1,4.1,0,1,1-4.081-4.345A4.1,4.1,0,0,1,260.98,218.087Zm13.869,1.368c0,2.977,1.777,4.873,4.417,4.873a4.129,4.129,0,0,0,3.7-2.088v1.848h2.065v-12h-2.065v5.953c0,2.761-1.464,4.393-3.337,4.393-1.656,0-2.712-1.272-2.712-3.289v-7.057h-2.065v7.369Zm21.77,4.465v-1.848a4.568,4.568,0,0,1-1.465.24c-1.3,0-1.992-.5-1.992-2.041v-6.289h3.457v-1.9h-3.457v-3.337H291.1v3.337h-2.545v1.9H291.1v6.554a3.378,3.378,0,0,0,3.672,3.672A5.749,5.749,0,0,0,296.619,223.92Zm6.335-16.515a1.45,1.45,0,0,0-1.441-1.464,1.491,1.491,0,0,0-1.488,1.464,1.475,1.475,0,0,0,1.488,1.464A1.435,1.435,0,0,0,302.954,207.405Zm-2.5,16.683h2.065v-12h-2.065v12Zm7.176,0H309.7v-18h-2.065v18Zm9.672-16.683a1.449,1.449,0,0,0-1.44-1.464,1.491,1.491,0,0,0-1.488,1.464,1.475,1.475,0,0,0,1.488,1.464A1.434,1.434,0,0,0,317.305,207.405Zm-2.5,16.683h2.064v-12h-2.064v12Zm13.681-.168v-1.848a4.562,4.562,0,0,1-1.464.24c-1.3,0-1.993-.5-1.993-2.041v-6.289h3.457v-1.9h-3.457v-3.337h-2.064v3.337h-2.545v1.9h2.545v6.554a3.378,3.378,0,0,0,3.673,3.672A5.743,5.743,0,0,0,328.49,223.92Zm2.735-5.833a6.005,6.005,0,0,0,5.881,6.241,5.264,5.264,0,0,0,4.225-2.088v1.848H343.4v-12h-2.064v1.848a5.264,5.264,0,0,0-4.225-2.088A6.005,6.005,0,0,0,331.225,218.087Zm10.274,0a4.1,4.1,0,1,1-4.081-4.345A4.1,4.1,0,0,1,341.5,218.087Zm6.982,6h2.064v-5.953c0-2.808,1.656-4.129,3.169-4.129a3.017,3.017,0,0,1,1.128.192v-2.136a4.276,4.276,0,0,0-.936-0.1,3.571,3.571,0,0,0-3.361,2.448v-2.328h-2.064v12Zm12.48-16.683a1.449,1.449,0,0,0-1.44-1.464,1.492,1.492,0,0,0-1.489,1.464,1.476,1.476,0,0,0,1.489,1.464A1.434,1.434,0,0,0,360.961,207.405Zm-2.5,16.683h2.064v-12h-2.064v12Zm6.239-6a6.006,6.006,0,0,0,5.881,6.241,5.263,5.263,0,0,0,4.225-2.088v1.848h2.065v-12H374.81v1.848a5.263,5.263,0,0,0-4.225-2.088A6.006,6.006,0,0,0,364.7,218.087Zm10.274,0a4.1,4.1,0,1,1-4.08-4.345A4.1,4.1,0,0,1,374.978,218.087Zm6.982,6h2.065v-5.953c0-2.808,1.536-4.393,3.48-4.393,1.681,0,2.833,1.248,2.833,3.265v7.081h2.04V216.7c0-2.977-1.848-4.849-4.537-4.849a4.243,4.243,0,0,0-3.816,2.088v-1.848H381.96v12Zm22.392,0h2.064v-5.953c0-2.808,1.536-4.393,3.481-4.393,1.68,0,2.832,1.248,2.832,3.265v7.081h2.041V216.7c0-2.977-1.849-4.849-4.537-4.849a4.245,4.245,0,0,0-3.817,2.088v-7.849h-2.064v18Zm17.832-16.683a1.449,1.449,0,0,0-1.44-1.464,1.491,1.491,0,0,0-1.489,1.464,1.475,1.475,0,0,0,1.489,1.464A1.434,1.434,0,0,0,422.184,207.405Zm-2.5,16.683h2.065v-12h-2.065v12Zm14.954-3.336c0-1.8-1.128-2.953-3.169-3.625l-1.3-.432c-1.416-.456-1.848-0.912-1.848-1.681,0-.888.888-1.392,2.016-1.392a3.246,3.246,0,0,1,2.545,1.248l1.344-1.3a4.656,4.656,0,0,0-3.841-1.728c-2.377,0-4.057,1.32-4.057,3.265,0,1.68,1.032,2.856,2.977,3.48l1.176,0.384c1.56,0.5,2.136,1.08,2.136,1.921,0,1.032-.936,1.632-2.112,1.632a3.222,3.222,0,0,1-3.073-1.9l-1.68.912a4.768,4.768,0,0,0,4.7,2.784C432.889,224.328,434.641,223.1,434.641,220.752Zm10.511,3.168v-1.848a4.562,4.562,0,0,1-1.464.24c-1.3,0-1.992-.5-1.992-2.041v-6.289h3.456v-1.9H441.7v-3.337h-2.065v3.337h-2.544v1.9h2.544v6.554a3.379,3.379,0,0,0,3.673,3.672A5.743,5.743,0,0,0,445.152,223.92Zm15.266-5.833a6.278,6.278,0,1,0-6.266,6.241A6.159,6.159,0,0,0,460.418,218.087Zm-10.442,0a4.167,4.167,0,1,1,4.176,4.321A4.125,4.125,0,0,1,449.976,218.087Zm14.591,6h2.064v-5.953c0-2.808,1.657-4.129,3.169-4.129a3.017,3.017,0,0,1,1.128.192v-2.136a4.276,4.276,0,0,0-.936-0.1,3.572,3.572,0,0,0-3.361,2.448v-2.328h-2.064v12Zm13.177,5.017,7.873-17.019h-2.3l-4.1,9.1-4.129-9.1H472.8l5.257,11.378-2.617,5.641h2.305Zm12.816-6.625a1.777,1.777,0,1,0-1.777,1.8A1.809,1.809,0,0,0,490.56,222.48Zm11.759,1.608h2.232V207.045h-2.232v17.043Zm14.113-.168v-1.848a4.562,4.562,0,0,1-1.464.24c-1.3,0-1.993-.5-1.993-2.041v-6.289h3.457v-1.9h-3.457v-3.337h-2.064v3.337h-2.545v1.9h2.545v6.554a3.378,3.378,0,0,0,3.673,3.672A5.743,5.743,0,0,0,516.432,223.92Zm13.391-16.515a1.45,1.45,0,0,0-1.441-1.464,1.491,1.491,0,0,0-1.488,1.464,1.475,1.475,0,0,0,1.488,1.464A1.435,1.435,0,0,0,529.823,207.405Zm-2.5,16.683h2.065v-12h-2.065v12Zm14.954-3.336c0-1.8-1.129-2.953-3.169-3.625l-1.3-.432c-1.417-.456-1.849-0.912-1.849-1.681,0-.888.889-1.392,2.017-1.392a3.242,3.242,0,0,1,2.544,1.248l1.345-1.3a4.657,4.657,0,0,0-3.841-1.728c-2.377,0-4.057,1.32-4.057,3.265,0,1.68,1.032,2.856,2.977,3.48l1.176,0.384c1.56,0.5,2.136,1.08,2.136,1.921,0,1.032-.936,1.632-2.112,1.632a3.222,3.222,0,0,1-3.073-1.9l-1.68.912a4.767,4.767,0,0,0,4.7,2.784C540.527,224.328,542.28,223.1,542.28,220.752Zm22.1,0.36-1.8-1.009a4.067,4.067,0,0,1-3.744,2.3,4.323,4.323,0,0,1,0-8.642,4.067,4.067,0,0,1,3.744,2.305l1.8-1.008a6.215,6.215,0,0,0-5.545-3.217,6.241,6.241,0,1,0,0,12.482A6.216,6.216,0,0,0,564.384,221.112Zm3.861,2.976h2.065v-5.953c0-2.808,1.656-4.129,3.168-4.129a3.022,3.022,0,0,1,1.129.192v-2.136a4.285,4.285,0,0,0-.937-0.1,3.57,3.57,0,0,0-3.36,2.448v-2.328h-2.065v12Zm8.64-6a6.006,6.006,0,0,0,5.881,6.241,5.263,5.263,0,0,0,4.225-2.088v1.848h2.065v-12h-2.065v1.848a5.263,5.263,0,0,0-4.225-2.088A6.006,6.006,0,0,0,576.885,218.087Zm10.274,0a4.1,4.1,0,1,1-4.081-4.345A4.1,4.1,0,0,1,587.159,218.087Zm7.99,6h2.065V213.982h3.168v-1.9h-3.168v-2.208c0-1.513.672-2.041,1.992-2.041a4.833,4.833,0,0,1,1.488.24v-1.824a5.454,5.454,0,0,0-1.872-.312,3.379,3.379,0,0,0-3.673,3.672v2.473h-2.544v1.9h2.544v10.106Zm14.379-.168v-1.848a4.715,4.715,0,0,1-1.488.24c-1.3,0-1.992-.5-1.992-2.041v-6.289h3.48v-1.9h-3.48v-3.337h-2.065v3.337h-2.256v1.9h2.256v6.554a3.4,3.4,0,0,0,3.7,3.672A5.974,5.974,0,0,0,609.528,223.92Zm2.733-5.833a6.328,6.328,0,0,0,11.618,3.385l-1.632-1.129a4.25,4.25,0,0,1-7.9-1.848h9.842a5.856,5.856,0,0,0,.024-0.624c-0.024-3.841-2.568-6.025-5.713-6.025A6.081,6.081,0,0,0,612.261,218.087Zm6.169-4.417a3.591,3.591,0,0,1,3.673,3.145h-7.61A3.924,3.924,0,0,1,618.43,213.67Zm8.975,4.417a6.005,6.005,0,0,0,5.881,6.241,5.264,5.264,0,0,0,4.225-2.088v1.848h2.064v-18h-2.064v7.849a5.264,5.264,0,0,0-4.225-2.088A6.005,6.005,0,0,0,627.405,218.087Zm10.274,0a4.1,4.1,0,1,1-4.081-4.345A4.1,4.1,0,0,1,637.679,218.087Zm-595.723,34.8h2.064v-10.1H47.5v-1.9H44.021v-2.208c0-1.513.672-2.041,1.992-2.041a4.835,4.835,0,0,1,1.488.24v-1.824a5.456,5.456,0,0,0-1.872-.312,3.428,3.428,0,0,0-3.673,3.721v2.424H39.412v1.9h2.544v10.1Zm9,0H53.02v-5.953c0-2.808,1.656-4.128,3.169-4.128a3.018,3.018,0,0,1,1.128.192v-2.137a4.278,4.278,0,0,0-.936-0.1,3.57,3.57,0,0,0-3.361,2.449v-2.329H50.956v12Zm21.147-6a6.277,6.277,0,1,0-6.265,6.241A6.16,6.16,0,0,0,72.1,246.886Zm-10.442,0a4.168,4.168,0,1,1,4.177,4.321A4.125,4.125,0,0,1,61.66,246.886Zm14.591,6h2.064v-5.953c0-2.712,1.368-4.392,3.313-4.392,1.56,0,2.352,1.344,2.352,3.288v7.057h2.064v-5.953c0-2.712,1.344-4.392,3.289-4.392,1.56,0,2.377,1.344,2.377,3.288v7.057h2.064v-7.369c0-2.928-1.584-4.873-4.2-4.873a4.153,4.153,0,0,0-3.937,2.569,3.773,3.773,0,0,0-3.7-2.569,4.033,4.033,0,0,0-3.625,2.089v-1.849H76.252v12Zm29.5,0h2.065v-5.953c0-2.712,1.368-4.392,3.313-4.392,1.56,0,2.352,1.344,2.352,3.288v7.057h2.065v-5.953c0-2.712,1.344-4.392,3.288-4.392,1.561,0,2.377,1.344,2.377,3.288v7.057h2.064v-7.369c0-2.928-1.584-4.873-4.2-4.873a4.155,4.155,0,0,0-3.937,2.569,3.772,3.772,0,0,0-3.7-2.569,4.033,4.033,0,0,0-3.625,2.089v-1.849h-2.065v12Zm34.035-6a6.278,6.278,0,1,0-6.266,6.241A6.16,6.16,0,0,0,139.782,246.886Zm-10.442,0a4.167,4.167,0,1,1,4.176,4.321A4.125,4.125,0,0,1,129.34,246.886Zm14.591,6H146v-18h-2.064v18Zm6.24-6a6.328,6.328,0,0,0,11.618,3.385l-1.632-1.128a4.25,4.25,0,0,1-7.9-1.849H162.1a5.856,5.856,0,0,0,.024-0.624c-0.024-3.84-2.568-6.025-5.713-6.025A6.082,6.082,0,0,0,150.171,246.886Zm6.169-4.417a3.592,3.592,0,0,1,3.673,3.145H152.4A3.925,3.925,0,0,1,156.34,242.469Zm17.688,7.082c0-1.8-1.128-2.953-3.168-3.625l-1.3-.432c-1.416-.456-1.848-0.912-1.848-1.68,0-.888.888-1.393,2.016-1.393a3.243,3.243,0,0,1,2.545,1.249l1.344-1.3a4.654,4.654,0,0,0-3.841-1.728c-2.376,0-4.056,1.32-4.056,3.265,0,1.68,1.032,2.856,2.976,3.48l1.176,0.384c1.561,0.5,2.137,1.081,2.137,1.921,0,1.032-.936,1.632-2.113,1.632a3.221,3.221,0,0,1-3.072-1.9l-1.681.912a4.769,4.769,0,0,0,4.705,2.784C172.276,253.127,174.028,251.9,174.028,249.551Zm4.15,3.336h2.065v-6l6.5,6h2.785l-7.226-6.7,5.906-5.305h-2.737l-5.233,4.681V234.884h-2.065v18ZM194.811,236.2a1.45,1.45,0,0,0-1.441-1.464,1.465,1.465,0,1,0,0,2.929A1.436,1.436,0,0,0,194.811,236.2Zm-2.5,16.683h2.065v-12h-2.065v12Zm7.176,0h2.064v-5.953c0-2.808,1.537-4.392,3.481-4.392,1.68,0,2.833,1.248,2.833,3.264v7.081h2.04v-7.393c0-2.976-1.848-4.849-4.537-4.849a4.245,4.245,0,0,0-3.817,2.089v-1.849H199.49v12Zm17.9-.528a2.052,2.052,0,0,0,.336-1.08,1.776,1.776,0,1,0-3.552,0,1.786,1.786,0,0,0,.984,1.608l-1.609,3.433h1.369Zm10.895-5.473a6.006,6.006,0,0,0,5.881,6.241,5.263,5.263,0,0,0,4.225-2.088v1.848h2.065v-12H238.4v1.849a5.261,5.261,0,0,0-4.225-2.089A6.006,6.006,0,0,0,228.289,246.886Zm10.274,0a4.1,4.1,0,1,1-4.081-4.344A4.1,4.1,0,0,1,238.563,246.886Zm21.815,2.665c0-1.8-1.128-2.953-3.168-3.625l-1.3-.432c-1.416-.456-1.848-0.912-1.848-1.68,0-.888.888-1.393,2.017-1.393a3.243,3.243,0,0,1,2.544,1.249l1.344-1.3a4.654,4.654,0,0,0-3.84-1.728c-2.377,0-4.057,1.32-4.057,3.265,0,1.68,1.032,2.856,2.976,3.48l1.177,0.384c1.56,0.5,2.136,1.081,2.136,1.921,0,1.032-.936,1.632-2.112,1.632a3.221,3.221,0,0,1-3.073-1.9l-1.68.912a4.767,4.767,0,0,0,4.7,2.784C258.626,253.127,260.378,251.9,260.378,249.551Zm4.151,3.336h2.064v-5.953c0-2.712,1.368-4.392,3.313-4.392,1.56,0,2.352,1.344,2.352,3.288v7.057h2.065v-5.953c0-2.712,1.344-4.392,3.288-4.392,1.561,0,2.377,1.344,2.377,3.288v7.057h2.064v-7.369c0-2.928-1.584-4.873-4.2-4.873a4.152,4.152,0,0,0-3.936,2.569,3.774,3.774,0,0,0-3.7-2.569,4.033,4.033,0,0,0-3.625,2.089v-1.849h-2.064v12Zm34.034-6a6.278,6.278,0,1,0-6.265,6.241A6.16,6.16,0,0,0,298.563,246.886Zm-10.442,0a4.167,4.167,0,1,1,4.177,4.321A4.125,4.125,0,0,1,288.121,246.886Zm26.186,0a6.278,6.278,0,1,0-6.266,6.241A6.16,6.16,0,0,0,314.307,246.886Zm-10.443,0a4.168,4.168,0,1,1,4.177,4.321A4.125,4.125,0,0,1,303.864,246.886Zm20.882,5.833v-1.848a4.573,4.573,0,0,1-1.465.24c-1.3,0-1.992-.5-1.992-2.04v-6.289h3.457v-1.9h-3.457v-3.336h-2.065v3.336H316.68v1.9h2.544v6.553a3.379,3.379,0,0,0,3.673,3.672A5.754,5.754,0,0,0,324.746,252.719Zm3.838,0.168h2.065v-5.953c0-2.808,1.536-4.392,3.48-4.392,1.681,0,2.833,1.248,2.833,3.264v7.081H339v-7.393c0-2.976-1.848-4.849-4.537-4.849a4.242,4.242,0,0,0-3.816,2.089v-7.85h-2.065v18Zm33.29-2.976-1.8-1.008a4.068,4.068,0,0,1-3.744,2.3,4.322,4.322,0,0,1,0-8.641,4.068,4.068,0,0,1,3.744,2.3l1.8-1.008a6.215,6.215,0,0,0-5.545-3.217,6.241,6.241,0,1,0,0,12.482A6.216,6.216,0,0,0,361.874,249.911Zm15.456-3.025a6.278,6.278,0,1,0-6.266,6.241A6.16,6.16,0,0,0,377.33,246.886Zm-10.443,0a4.168,4.168,0,1,1,4.177,4.321A4.125,4.125,0,0,1,366.887,246.886Zm29.283,5.833v-1.848a4.562,4.562,0,0,1-1.464.24c-1.3,0-1.992-.5-1.992-2.04v-6.289h3.456v-1.9h-3.456v-3.336h-2.065v3.336h-2.064v1.9h2.064v6.553a3.379,3.379,0,0,0,3.673,3.672A5.743,5.743,0,0,0,396.17,252.719Zm-8.4,0v-1.848a4.568,4.568,0,0,1-1.465.24c-1.3,0-1.992-.5-1.992-2.04v-6.289h2.928v-1.9h-2.928v-3.336h-2.065v3.336H379.7v1.9h2.544v6.553a3.379,3.379,0,0,0,3.673,3.672A5.754,5.754,0,0,0,387.769,252.719Zm23.665-5.833a6.278,6.278,0,1,0-6.266,6.241A6.16,6.16,0,0,0,411.434,246.886Zm-10.443,0a4.168,4.168,0,1,1,4.177,4.321A4.125,4.125,0,0,1,400.991,246.886Zm14.592,6h2.064v-5.953c0-2.808,1.537-4.392,3.481-4.392,1.68,0,2.833,1.248,2.833,3.264v7.081H426v-7.393c0-2.976-1.848-4.849-4.537-4.849a4.245,4.245,0,0,0-3.817,2.089v-1.849h-2.064v12Zm23.088,0h2.064v-10.1h3.481v-1.9h-3.481v-2.208c0-1.513.673-2.041,1.993-2.041a4.833,4.833,0,0,1,1.488.24v-1.824a5.454,5.454,0,0,0-1.872-.312,3.428,3.428,0,0,0-3.673,3.721v2.424h-2.545v1.9h2.545v10.1Zm7.752-6a6.005,6.005,0,0,0,5.881,6.241,5.264,5.264,0,0,0,4.225-2.088v1.848h2.064v-12h-2.064v1.849a5.262,5.262,0,0,0-4.225-2.089A6.006,6.006,0,0,0,446.423,246.886Zm10.274,0a4.1,4.1,0,1,1-4.081-4.344A4.1,4.1,0,0,1,456.7,246.886Zm9.046,4.153a5.264,5.264,0,0,0,4.225,2.088,6.252,6.252,0,0,0,0-12.482,5.262,5.262,0,0,0-4.225,2.089v-7.85h-2.064v18h2.064v-1.848Zm7.994-4.153a4.089,4.089,0,1,1-4.081-4.344A4.1,4.1,0,0,1,473.737,246.886Zm6.261,6h2.065v-5.953c0-2.808,1.656-4.128,3.168-4.128a3.019,3.019,0,0,1,1.129.192v-2.137a4.279,4.279,0,0,0-.937-0.1,3.57,3.57,0,0,0-3.36,2.449v-2.329H480v12ZM492.479,236.2a1.45,1.45,0,0,0-1.441-1.464,1.465,1.465,0,1,0,0,2.929A1.436,1.436,0,0,0,492.479,236.2Zm-2.5,16.683h2.065v-12h-2.065v12Zm18.074-2.976-1.8-1.008a4.068,4.068,0,0,1-3.745,2.3,4.322,4.322,0,0,1,0-8.641,4.068,4.068,0,0,1,3.745,2.3l1.8-1.008a6.214,6.214,0,0,0-5.545-3.217,6.241,6.241,0,1,0,0,12.482A6.215,6.215,0,0,0,508.056,249.911Zm21.816,0-1.8-1.008a4.068,4.068,0,0,1-3.744,2.3,4.322,4.322,0,0,1,0-8.641,4.068,4.068,0,0,1,3.744,2.3l1.8-1.008a6.215,6.215,0,0,0-5.545-3.217,6.241,6.241,0,1,0,0,12.482A6.216,6.216,0,0,0,529.872,249.911Zm15.456-3.025a6.278,6.278,0,1,0-6.266,6.241A6.16,6.16,0,0,0,545.328,246.886Zm-10.443,0a4.168,4.168,0,1,1,4.177,4.321A4.125,4.125,0,0,1,534.885,246.886Zm14.592,6h2.064v-5.953c0-2.712,1.369-4.392,3.313-4.392,1.56,0,2.352,1.344,2.352,3.288v7.057h2.065v-5.953c0-2.712,1.344-4.392,3.289-4.392,1.56,0,2.376,1.344,2.376,3.288v7.057H567v-7.369c0-2.928-1.585-4.873-4.2-4.873a4.153,4.153,0,0,0-3.937,2.569,3.773,3.773,0,0,0-3.7-2.569,4.034,4.034,0,0,0-3.625,2.089v-1.849h-2.064v12Zm22.44,0h2.064v-5.953c0-2.712,1.368-4.392,3.313-4.392,1.56,0,2.352,1.344,2.352,3.288v7.057h2.065v-5.953c0-2.712,1.344-4.392,3.289-4.392,1.56,0,2.376,1.344,2.376,3.288v7.057h2.064v-7.369c0-2.928-1.584-4.873-4.2-4.873a4.153,4.153,0,0,0-3.937,2.569,3.773,3.773,0,0,0-3.7-2.569,4.034,4.034,0,0,0-3.625,2.089v-1.849h-2.064v12Zm34.034-6a6.278,6.278,0,1,0-6.265,6.241A6.159,6.159,0,0,0,605.951,246.886Zm-10.442,0a4.168,4.168,0,1,1,4.177,4.321A4.125,4.125,0,0,1,595.509,246.886Zm14.591,6h2.065v-5.953c0-2.808,1.536-4.392,3.48-4.392,1.681,0,2.833,1.248,2.833,3.264v7.081h2.041v-7.393c0-2.976-1.849-4.849-4.537-4.849a4.243,4.243,0,0,0-3.817,2.089v-1.849H610.1v12Zm15.336,0H627.5v-18h-2.064v18ZM635.8,257.9l7.873-17.019h-2.3l-4.105,9.1-4.129-9.1h-2.281l5.258,11.378L633.5,257.9h2.3ZM40.78,277.054c0,2.976,1.776,4.873,4.417,4.873a4.129,4.129,0,0,0,3.7-2.089v1.849h2.064v-12H48.894v5.954c0,2.76-1.464,4.392-3.337,4.392-1.656,0-2.713-1.272-2.713-3.288v-7.058H40.78v7.37Zm23.042,1.3c0-1.8-1.128-2.952-3.169-3.625l-1.3-.432c-1.416-.456-1.848-0.912-1.848-1.68,0-.888.888-1.392,2.016-1.392a3.243,3.243,0,0,1,2.545,1.248l1.344-1.3a4.653,4.653,0,0,0-3.841-1.729c-2.377,0-4.057,1.321-4.057,3.265,0,1.68,1.032,2.857,2.977,3.481l1.176,0.384c1.56,0.5,2.136,1.08,2.136,1.92,0,1.032-.936,1.632-2.112,1.632a3.221,3.221,0,0,1-3.073-1.9l-1.68.912a4.767,4.767,0,0,0,4.7,2.785C62.069,281.927,63.822,280.7,63.822,278.35Zm3.214-2.664a6.328,6.328,0,0,0,11.618,3.384l-1.632-1.128a4.25,4.25,0,0,1-7.9-1.848h9.842a5.856,5.856,0,0,0,.024-0.624c-0.024-3.841-2.568-6.026-5.713-6.026A6.083,6.083,0,0,0,67.036,275.686Zm6.169-4.417a3.591,3.591,0,0,1,3.673,3.144h-7.61A3.924,3.924,0,0,1,73.205,271.269Zm8.975,4.417a6.006,6.006,0,0,0,5.881,6.241,5.262,5.262,0,0,0,4.225-2.089v1.849H94.35v-18H92.286v7.85a5.265,5.265,0,0,0-4.225-2.089A6.007,6.007,0,0,0,82.18,275.686Zm10.274,0a4.1,4.1,0,1,1-4.081-4.345A4.1,4.1,0,0,1,92.454,275.686ZM108.988,265a1.45,1.45,0,0,0-1.441-1.465A1.491,1.491,0,0,0,106.059,265a1.475,1.475,0,0,0,1.488,1.464A1.435,1.435,0,0,0,108.988,265Zm-2.5,16.683h2.065v-12h-2.065v12Zm7.176,0h2.064v-5.953c0-2.809,1.537-4.393,3.481-4.393,1.681,0,2.833,1.248,2.833,3.264v7.082h2.04v-7.394c0-2.976-1.848-4.849-4.537-4.849a4.247,4.247,0,0,0-3.817,2.089v-1.849h-2.064v12Zm23.88,0h2.064V264.644h-3.673l-1.68,2.04h3.289v15Zm7.3,0h2.641l6.241-7.37a6.542,6.542,0,0,0,1.921-4.344,5.775,5.775,0,0,0-11.547.072,5.507,5.507,0,0,0,5.329,5.473,3.072,3.072,0,0,0,.673-0.048Zm1.369-11.666a3.661,3.661,0,1,1,3.648,3.672A3.622,3.622,0,0,1,146.211,270.021Zm23.378,6.241a5.511,5.511,0,0,0-5.329-5.5c-0.216,0-.432.024-0.672,0.048l5.209-6.169H166.18l-6.217,7.321a6.547,6.547,0,0,0-1.921,4.345A5.775,5.775,0,0,0,169.589,276.262Zm-9.434,0a3.661,3.661,0,1,1,3.673,3.672A3.642,3.642,0,0,1,160.155,276.262Zm25.154-.744v-4.753c0-3.769-2.545-6.41-6.049-6.41s-6.026,2.641-6.026,6.41v4.753c0,3.792,2.521,6.409,6.026,6.409S185.309,279.31,185.309,275.518Zm-10.01,0v-4.753c0-2.761,1.656-4.393,3.961-4.393,2.328,0,3.984,1.632,3.984,4.393v4.753c0,2.76-1.656,4.392-3.984,4.392C176.955,279.91,175.3,278.278,175.3,275.518Zm22.369,2.832c0-1.8-1.128-2.952-3.169-3.625l-1.3-.432c-1.416-.456-1.849-0.912-1.849-1.68,0-.888.889-1.392,2.017-1.392a3.242,3.242,0,0,1,2.544,1.248l1.345-1.3a4.655,4.655,0,0,0-3.841-1.729c-2.377,0-4.057,1.321-4.057,3.265,0,1.68,1.032,2.857,2.977,3.481l1.176,0.384c1.56,0.5,2.136,1.08,2.136,1.92,0,1.032-.936,1.632-2.112,1.632a3.222,3.222,0,0,1-3.073-1.9l-1.68.912a4.766,4.766,0,0,0,4.705,2.785C195.915,281.927,197.668,280.7,197.668,278.35Zm10.269-2.664a6.007,6.007,0,0,0,5.882,6.241,5.264,5.264,0,0,0,4.225-2.089v1.849h2.064v-12h-2.064v1.849a5.267,5.267,0,0,0-4.225-2.089A6.007,6.007,0,0,0,207.937,275.686Zm10.275,0a4.1,4.1,0,1,1-4.081-4.345A4.1,4.1,0,0,1,218.212,275.686Zm6.981,6h2.065v-5.953c0-2.809,1.656-4.129,3.168-4.129a3.019,3.019,0,0,1,1.129.192V269.66a4.276,4.276,0,0,0-.936-0.1,3.571,3.571,0,0,0-3.361,2.449v-2.329h-2.065v12Zm9.984,0h2.065v-5.953c0-2.713,1.368-4.393,3.312-4.393,1.561,0,2.353,1.344,2.353,3.288v7.058h2.064v-5.953c0-2.713,1.345-4.393,3.289-4.393,1.56,0,2.377,1.344,2.377,3.288v7.058H252.7v-7.37c0-2.928-1.584-4.873-4.2-4.873a4.155,4.155,0,0,0-3.937,2.569,3.773,3.773,0,0,0-3.7-2.569,4.034,4.034,0,0,0-3.624,2.089v-1.849h-2.065v12ZM260.57,286.7l7.874-17.02h-2.305l-4.105,9.1-4.129-9.1h-2.28l5.257,11.379-2.617,5.641h2.305Zm17.5-9.65c0,2.976,1.777,4.873,4.417,4.873a4.129,4.129,0,0,0,3.7-2.089v1.849h2.064v-12h-2.064v5.954c0,2.76-1.464,4.392-3.337,4.392-1.656,0-2.712-1.272-2.712-3.288v-7.058h-2.065v7.37Zm15.264,4.633h2.065v-5.953c0-2.809,1.536-4.393,3.48-4.393,1.681,0,2.833,1.248,2.833,3.264v7.082h2.04v-7.394c0-2.976-1.848-4.849-4.537-4.849a4.244,4.244,0,0,0-3.816,2.089v-1.849h-2.065v12ZM311.161,265a1.45,1.45,0,0,0-1.44-1.465A1.491,1.491,0,0,0,308.233,265a1.475,1.475,0,0,0,1.488,1.464A1.434,1.434,0,0,0,311.161,265Zm-2.5,16.683h2.064v-12h-2.064v12Zm8.184,0h2.064V271.581h3.481v-1.9h-3.481v-2.208c0-1.512.672-2.04,1.993-2.04a4.833,4.833,0,0,1,1.488.24v-1.825a5.454,5.454,0,0,0-1.872-.312,3.428,3.428,0,0,0-3.673,3.721v2.424H314.3v1.9h2.545v10.106Zm20.282-6a6.277,6.277,0,1,0-6.265,6.241A6.159,6.159,0,0,0,337.131,275.686Zm-10.442,0a4.168,4.168,0,1,1,4.177,4.32A4.125,4.125,0,0,1,326.689,275.686Zm14.591,6h2.065v-5.953c0-2.809,1.656-4.129,3.169-4.129a3.017,3.017,0,0,1,1.128.192V269.66a4.276,4.276,0,0,0-.936-0.1,3.571,3.571,0,0,0-3.361,2.449v-2.329H341.28v12Zm9.984,0h2.065v-5.953c0-2.713,1.368-4.393,3.313-4.393,1.56,0,2.352,1.344,2.352,3.288v7.058h2.064v-5.953c0-2.713,1.345-4.393,3.289-4.393,1.56,0,2.377,1.344,2.377,3.288v7.058h2.064v-7.37c0-2.928-1.584-4.873-4.2-4.873a4.156,4.156,0,0,0-3.937,2.569,3.773,3.773,0,0,0-3.7-2.569,4.035,4.035,0,0,0-3.625,2.089v-1.849h-2.065v12Zm30.218-3.337c0-1.8-1.128-2.952-3.169-3.625l-1.3-.432c-1.416-.456-1.848-0.912-1.848-1.68,0-.888.888-1.392,2.016-1.392a3.246,3.246,0,0,1,2.545,1.248l1.344-1.3a4.654,4.654,0,0,0-3.841-1.729c-2.376,0-4.057,1.321-4.057,3.265,0,1.68,1.032,2.857,2.977,3.481l1.176,0.384c1.56,0.5,2.137,1.08,2.137,1.92,0,1.032-.937,1.632-2.113,1.632a3.222,3.222,0,0,1-3.073-1.9l-1.68.912a4.767,4.767,0,0,0,4.7,2.785C379.73,281.927,381.482,280.7,381.482,278.35Zm10.27-2.664a6.006,6.006,0,0,0,5.881,6.241,5.262,5.262,0,0,0,4.225-2.089v1.849h2.064v-18h-2.064v7.85a5.265,5.265,0,0,0-4.225-2.089A6.006,6.006,0,0,0,391.752,275.686Zm10.274,0a4.1,4.1,0,1,1-4.081-4.345A4.1,4.1,0,0,1,402.026,275.686Zm6.813,1.368c0,2.976,1.777,4.873,4.417,4.873a4.128,4.128,0,0,0,3.7-2.089v1.849h2.065v-12h-2.065v5.954c0,2.76-1.464,4.392-3.336,4.392-1.657,0-2.713-1.272-2.713-3.288v-7.058h-2.065v7.37Zm14.328-1.368a6.328,6.328,0,0,0,11.619,3.384l-1.633-1.128a4.249,4.249,0,0,1-7.9-1.848H435.1a5.856,5.856,0,0,0,.024-0.624c-0.024-3.841-2.569-6.026-5.713-6.026A6.083,6.083,0,0,0,423.167,275.686Zm6.169-4.417a3.591,3.591,0,0,1,3.673,3.144H425.4A3.923,3.923,0,0,1,429.336,271.269Zm23.064,10.25V279.67a4.562,4.562,0,0,1-1.464.24c-1.3,0-1.992-.5-1.992-2.04v-6.289H452.4v-1.9h-3.456v-3.336h-2.065v3.336h-2.544v1.9h2.544v6.553a3.379,3.379,0,0,0,3.673,3.673A5.743,5.743,0,0,0,452.4,281.519Zm15.266-5.833a6.278,6.278,0,1,0-6.266,6.241A6.16,6.16,0,0,0,467.666,275.686Zm-10.443,0a4.168,4.168,0,1,1,4.177,4.32A4.126,4.126,0,0,1,457.223,275.686ZM481.367,265a1.45,1.45,0,0,0-1.44-1.465A1.492,1.492,0,0,0,478.438,265a1.476,1.476,0,0,0,1.489,1.464A1.434,1.434,0,0,0,481.367,265Zm-2.5,16.683h2.064v-12h-2.064v12Zm13.681-.168V279.67a4.564,4.564,0,0,1-1.465.24c-1.3,0-1.992-.5-1.992-2.04v-6.289h3.457v-1.9H489.1v-3.336h-2.064v3.336h-2.545v1.9h2.545v6.553a3.378,3.378,0,0,0,3.672,3.673A5.744,5.744,0,0,0,492.552,281.519Zm11.616-3.169c0-1.8-1.128-2.952-3.169-3.625l-1.3-.432c-1.416-.456-1.848-0.912-1.848-1.68,0-.888.888-1.392,2.016-1.392a3.246,3.246,0,0,1,2.545,1.248l1.344-1.3a4.654,4.654,0,0,0-3.841-1.729c-2.376,0-4.057,1.321-4.057,3.265,0,1.68,1.032,2.857,2.977,3.481l1.176,0.384c1.56,0.5,2.137,1.08,2.137,1.92,0,1.032-.937,1.632-2.113,1.632a3.223,3.223,0,0,1-3.073-1.9l-1.68.912a4.767,4.767,0,0,0,4.7,2.785C502.416,281.927,504.168,280.7,504.168,278.35Zm10.27-2.664a6.006,6.006,0,0,0,5.881,6.241,5.262,5.262,0,0,0,4.225-2.089v1.849h2.064v-18h-2.064v7.85a5.265,5.265,0,0,0-4.225-2.089A6.006,6.006,0,0,0,514.438,275.686Zm10.274,0a4.1,4.1,0,1,1-4.081-4.345A4.1,4.1,0,0,1,524.712,275.686Zm6.814,1.368c0,2.976,1.776,4.873,4.416,4.873a4.128,4.128,0,0,0,3.7-2.089v1.849H541.7v-12h-2.065v5.954c0,2.76-1.464,4.392-3.336,4.392-1.657,0-2.713-1.272-2.713-3.288v-7.058h-2.064v7.37Zm15.263,4.633h2.065v-5.953c0-2.809,1.656-4.129,3.169-4.129a3.017,3.017,0,0,1,1.128.192V269.66a4.276,4.276,0,0,0-.936-0.1,3.571,3.571,0,0,0-3.361,2.449v-2.329h-2.065v12Zm8.64-6a6.006,6.006,0,0,0,5.881,6.241,5.261,5.261,0,0,0,4.225-2.089v1.849H567.6v-12h-2.065v1.849a5.264,5.264,0,0,0-4.225-2.089A6.007,6.007,0,0,0,555.429,275.686Zm10.274,0a4.1,4.1,0,1,1-4.08-4.345A4.1,4.1,0,0,1,565.7,275.686Zm9.047,4.152a5.261,5.261,0,0,0,4.225,2.089,6.253,6.253,0,0,0,0-12.483,5.264,5.264,0,0,0-4.225,2.089v-7.85h-2.065v18h2.065v-1.849Zm7.993-4.152a4.089,4.089,0,1,1-4.081-4.345A4.1,4.1,0,0,1,582.743,275.686Zm6.262,6h2.064v-18h-2.064v18Zm6.24-6a6.327,6.327,0,0,0,11.618,3.384l-1.632-1.128a4.25,4.25,0,0,1-7.9-1.848h9.842a5.856,5.856,0,0,0,.024-0.624c-0.024-3.841-2.568-6.026-5.713-6.026A6.082,6.082,0,0,0,595.245,275.686Zm6.169-4.417a3.591,3.591,0,0,1,3.673,3.144h-7.61A3.924,3.924,0,0,1,601.414,271.269ZM621.021,286.7l7.874-17.02h-2.3l-4.105,9.1-4.128-9.1h-2.281l5.257,11.379-2.616,5.641h2.3Zm9.936-11.018a6.327,6.327,0,0,0,11.618,3.384l-1.632-1.128a4.25,4.25,0,0,1-7.9-1.848h9.842a5.856,5.856,0,0,0,.024-0.624c-0.024-3.841-2.568-6.026-5.713-6.026A6.082,6.082,0,0,0,630.957,275.686Zm6.169-4.417a3.591,3.591,0,0,1,3.673,3.144h-7.61A3.923,3.923,0,0,1,637.126,271.269Zm16.248,10.25V279.67a4.562,4.562,0,0,1-1.464.24c-1.3,0-1.993-.5-1.993-2.04v-6.289h3.457v-1.9h-3.457v-3.336h-2.064v3.336h-2.545v1.9h2.545v6.553a3.378,3.378,0,0,0,3.673,3.673A5.743,5.743,0,0,0,653.374,281.519ZM48.726,307.149c0-1.8-1.128-2.952-3.169-3.624l-1.3-.432c-1.416-.457-1.848-0.913-1.848-1.681,0-.888.888-1.392,2.017-1.392a3.243,3.243,0,0,1,2.544,1.248l1.344-1.3a4.655,4.655,0,0,0-3.841-1.728c-2.376,0-4.057,1.32-4.057,3.264,0,1.681,1.032,2.857,2.977,3.481l1.176,0.384c1.56,0.5,2.136,1.08,2.136,1.92,0,1.033-.936,1.633-2.112,1.633a3.221,3.221,0,0,1-3.073-1.9l-1.68.912a4.767,4.767,0,0,0,4.7,2.785C46.974,310.726,48.726,309.5,48.726,307.149Zm15.745-2.664a6.277,6.277,0,1,0-6.265,6.241A6.159,6.159,0,0,0,64.471,304.485Zm-10.442,0a4.168,4.168,0,1,1,4.177,4.321A4.125,4.125,0,0,1,54.028,304.485Zm15.408,6H71.5V300.38h3.169v-1.9H71.5v-2.209c0-1.512.672-2.04,1.992-2.04a4.835,4.835,0,0,1,1.488.24v-1.824a5.456,5.456,0,0,0-1.872-.312,3.378,3.378,0,0,0-3.673,3.672v2.473H66.892v1.9h2.545v10.106Zm14.379-.168V308.47a4.717,4.717,0,0,1-1.488.24c-1.3,0-1.992-.5-1.992-2.041V300.38h3.481v-1.9H80.334v-3.337H78.27v3.337H76.013v1.9H78.27v6.553a3.4,3.4,0,0,0,3.7,3.673A5.976,5.976,0,0,0,83.815,310.318Zm16.99,0V308.47a4.565,4.565,0,0,1-1.465.24c-1.3,0-1.993-.5-1.993-2.041V300.38h3.457v-1.9H97.348v-3.337H95.284v3.337H92.739v1.9h2.545v6.553a3.379,3.379,0,0,0,3.673,3.673A5.746,5.746,0,0,0,100.805,310.318Zm2.734-5.833a6.328,6.328,0,0,0,11.619,3.384l-1.632-1.128a4.25,4.25,0,0,1-7.9-1.848h9.842a5.856,5.856,0,0,0,.024-0.624c-0.024-3.841-2.569-6.025-5.713-6.025A6.082,6.082,0,0,0,103.539,304.485Zm6.17-4.417a3.59,3.59,0,0,1,3.672,3.145h-7.609A3.923,3.923,0,0,1,109.709,300.068Zm7.678,10.418h2.569l3.649-4.537,3.648,4.537H129.8l-4.9-6.073,4.513-5.929h-2.521l-3.288,4.321-3.313-4.321h-2.5l4.513,5.929Zm22.226-.168V308.47a4.562,4.562,0,0,1-1.464.24c-1.3,0-1.993-.5-1.993-2.041V300.38h3.457v-1.9h-3.457v-3.337h-2.064v3.337h-2.545v1.9h2.545v6.553a3.378,3.378,0,0,0,3.673,3.673A5.743,5.743,0,0,0,139.613,310.318Zm3.671-4.465c0,2.977,1.776,4.873,4.416,4.873a4.129,4.129,0,0,0,3.7-2.088v1.848h2.065v-12H151.4v5.953c0,2.76-1.464,4.393-3.336,4.393-1.657,0-2.713-1.273-2.713-3.289v-7.057h-2.064v7.369Zm15.263,4.633h2.065v-5.953c0-2.809,1.656-4.129,3.169-4.129a3.017,3.017,0,0,1,1.128.192V298.46a4.276,4.276,0,0,0-.936-0.1,3.57,3.57,0,0,0-3.361,2.448v-2.328h-2.065v12Zm8.616-6a6.328,6.328,0,0,0,11.619,3.384l-1.632-1.128a4.25,4.25,0,0,1-7.9-1.848h9.842a5.856,5.856,0,0,0,.024-0.624c-0.024-3.841-2.569-6.025-5.713-6.025A6.082,6.082,0,0,0,167.163,304.485Zm6.17-4.417a3.59,3.59,0,0,1,3.672,3.145H169.4A3.923,3.923,0,0,1,173.333,300.068Zm12.767,8.81a1.777,1.777,0,1,0-1.776,1.8A1.808,1.808,0,0,0,186.1,308.878Z"/>
</svg>
