<svg id="copy_copy_2" data-name="copy copy 2" xmlns="http://www.w3.org/2000/svg" width="768" height="223" viewBox="0 0 768 223">
  <defs>
    <style>
      .cls-1 {
        fill: #fff;
      }

      .cls-2 {
        fill-rule: evenodd;
      }
    </style>
  </defs>
  <rect id="Rectangle_106_copy_12" data-name="Rectangle 106 copy 12" class="cls-1" width="768" height="223"/>
  <g id="CTA_underline_copy_8" data-name="CTA_underline copy 8">
    <rect id="Rectangle_4_copy_4" data-name="Rectangle 4 copy 4" x="39" y="129" width="122" height="4"/>
    <path id="Shop_now" data-name="Shop now" class="cls-2" d="M43.817,121.853c2.706,0,4.564-1.653,4.582-4.023,0.018-1.965-1.19-3.214-3.048-3.894l-0.9-.33c-1.353-.5-1.984-0.808-1.984-1.506,0-.68.776-0.992,1.551-0.992a2.831,2.831,0,0,1,2.219,1.083l1.876-2.02a5.3,5.3,0,0,0-4.131-1.8c-2.561,0-4.419,1.488-4.419,4.022,0,1.782,1.154,3.049,3.229,3.766l0.9,0.312c1.281,0.441,1.786.9,1.786,1.561,0,0.625-.6,1.084-1.551,1.084a3.335,3.335,0,0,1-2.652-1.488l-2.2,1.892A5.583,5.583,0,0,0,43.817,121.853Zm9.726-.221H56.41v-5.161h5.159v5.161h2.868V108.591H61.569V113.7H56.41v-5.107H53.542v13.041Zm22.66,0.221a6.742,6.742,0,1,0-6.62-6.741A6.7,6.7,0,0,0,76.2,121.853Zm0-2.829a3.917,3.917,0,1,1,3.716-3.912A3.837,3.837,0,0,1,76.2,119.024Zm20.622-5.969a4.4,4.4,0,0,0-4.51-4.464H87.967v13.041h2.868V117.5h1.479A4.385,4.385,0,0,0,96.824,113.055Zm-2.778,0a1.7,1.7,0,0,1-1.768,1.708H90.835v-3.416h1.443A1.688,1.688,0,0,1,94.046,113.055Zm25.979,8.577V108.591h-2.886v8.045l-6.223-8.045h-2.472v13.041h2.869v-8.063l6.241,8.063h2.471Zm11.765,0.221a6.742,6.742,0,1,0-6.62-6.741A6.7,6.7,0,0,0,131.79,121.853Zm0-2.829a3.917,3.917,0,1,1,3.716-3.912A3.837,3.837,0,0,1,131.79,119.024Zm21.686,2.608H156.2l2.976-13.041h-3.067l-1.749,8.266-3.608-8.486-3.589,8.486-1.75-8.266h-3.067l2.959,13.041h2.723l2.724-6.392Z"/>
  </g>
  <path id="Vegan_Suede_Bomber_Jacket" data-name="Vegan Suede Bomber Jacket" class="cls-2" d="M49.216,68.092h5.491L65.88,40.831h-6.72L51.942,58.992,44.685,40.831H38.042Zm21.5,0H88V62.256H76.825V57.38h8.87V51.544h-8.87V46.667H88V40.831H70.72V68.092ZM107.2,68.553c4.416,0,8.755-1.305,11.174-4.032V51.582H107.084V57.3h5.337v4.032c-1.152.922-3.148,1.306-5.3,1.306-5.338,0-8.6-3.532-8.6-8.178a8,8,0,0,1,8.217-8.178,9.054,9.054,0,0,1,6.873,2.918l4.3-4.185a14.5,14.5,0,0,0-11.173-4.646A13.925,13.925,0,0,0,92.378,54.462C92.378,62.448,98.714,68.553,107.2,68.553Zm14.286-.461h6.374l2.419-5.759h11.289l2.419,5.759h6.374L138.687,40.831h-5.529Zm11.02-11.058,3.418-8.217,3.417,8.217h-6.835Zm47.269,11.058V40.831h-6.143V57.649L160.384,40.831h-5.261V68.092h6.106V51.236l13.285,16.856h5.26Zm26.19,0.461c5.759,0,9.714-3.456,9.752-8.409,0.039-4.108-2.534-6.719-6.489-8.14l-1.92-.691c-2.879-1.037-4.223-1.689-4.223-3.148,0-1.421,1.651-2.073,3.3-2.073a6.064,6.064,0,0,1,4.723,2.265l3.993-4.224a11.376,11.376,0,0,0-8.793-3.763c-5.452,0-9.407,3.11-9.407,8.409,0,3.724,2.457,6.374,6.873,7.871L205.7,57.3c2.726,0.922,3.8,1.881,3.8,3.264,0,1.306-1.267,2.265-3.3,2.265a7.13,7.13,0,0,1-5.644-3.11l-4.685,3.955A11.955,11.955,0,0,0,205.964,68.553Zm26.8,0c6.528,0,11.212-4.454,11.212-11.25V40.831h-6.105V57.38c0,3.264-2.074,5.26-5.107,5.26s-5.107-2-5.107-5.26V40.831h-6.1V57.3C221.554,64.1,226.2,68.553,232.766,68.553Zm18.586-.461h17.279V62.256H257.457V57.38h8.87V51.544h-8.87V46.667h11.174V40.831H251.352V68.092Zm23.846,0h9.293a13.633,13.633,0,1,0,0-27.261H275.2V68.092Zm6.106-5.606V46.437h3.187a7.693,7.693,0,0,1,7.717,8.025,7.693,7.693,0,0,1-7.717,8.025H281.3Zm23.27,5.606h17.279V62.256H310.679V57.38h8.87V51.544h-8.87V46.667h11.174V40.831H304.574V68.092Zm34.214,0h11.98a8.06,8.06,0,0,0,8.294-8.025,7.123,7.123,0,0,0-3.878-6.45,6.417,6.417,0,0,0,1.958-4.684,8.1,8.1,0,0,0-8.1-8.1H338.788V68.092Zm6.1-16.242V46.4h3.456a2.771,2.771,0,0,1,2.841,2.764,2.732,2.732,0,0,1-2.841,2.688h-3.456Zm0,10.636V57.034h5.337a2.773,2.773,0,0,1,2.88,2.726,2.739,2.739,0,0,1-2.841,2.726h-5.376Zm32.755,6.067a14.091,14.091,0,1,0-14.092-14.091A14.126,14.126,0,0,0,377.648,68.553Zm0-5.913a8.183,8.183,0,1,1,7.91-8.178A8.088,8.088,0,0,1,377.648,62.64Zm34.329-.346,7.948-11.02V68.092h6.143V40.831H420.5L411.977,52.58l-8.525-11.749h-5.567V68.092h6.105V51.275Zm21.773,5.8h11.98a8.06,8.06,0,0,0,8.294-8.025,7.125,7.125,0,0,0-3.878-6.45,6.417,6.417,0,0,0,1.958-4.684,8.1,8.1,0,0,0-8.1-8.1H433.75V68.092Zm6.105-16.242V46.4h3.456a2.771,2.771,0,0,1,2.841,2.764,2.732,2.732,0,0,1-2.841,2.688h-3.456Zm0,10.636V57.034h5.337a2.774,2.774,0,0,1,2.88,2.726,2.74,2.74,0,0,1-2.841,2.726h-5.376Zm20.2,5.606h17.279V62.256H466.159V57.38h8.87V51.544h-8.87V46.667h11.174V40.831H460.054V68.092Zm23.846,0h6.105V56.842h1l9.061,11.25H507.4l-9.637-12.018c3.455-1.229,5.337-3.494,5.337-7.026a8.049,8.049,0,0,0-8.448-8.217H483.9V68.092Zm6.105-16.434V46.437h3.917c1.8,0,3.11.96,3.11,2.611,0,1.574-1.305,2.611-3.11,2.611h-3.917Zm36.557,16.894c4.684,0,8.908-2.342,8.908-7.91V40.831h-6.105V60.259a2.807,2.807,0,0,1-5.606-.154h-6.028C517.731,66.019,521.993,68.553,526.562,68.553Zm12.865-.461H545.8l2.42-5.759h11.288l2.419,5.759H568.3L556.629,40.831H551.1Zm11.02-11.058,3.417-8.217,3.417,8.217h-6.834Zm33.945,11.519A14.092,14.092,0,0,0,597.14,61.1l-5.376-2.918a8.179,8.179,0,1,1,0-7.449l5.376-2.918A14.213,14.213,0,1,0,584.392,68.553Zm18.241-.461H608.7V55.882l11.1,12.21h7.833L614.69,53.924l10.751-13.093h-7.488l-9.253,11.4v-11.4h-6.067V68.092Zm28.8,0h17.278V62.256H637.538V57.38h8.87V51.544h-8.87V46.667h11.173V40.831H631.433V68.092Zm28.761,0h6.143V46.667h7.027V40.831h-20.12v5.836h6.95V68.092Z"/>
</svg>
