<svg id="Quote_copy_3" data-name="Quote copy 3" xmlns="http://www.w3.org/2000/svg" width="768" height="287" viewBox="0 0 768 287">
  <defs>
    <style>
      .cls-1 {
        fill: #b09f8a;
      }

      .cls-2, .cls-3 {
        fill: #fff;
      }

      .cls-2, .cls-4 {
        fill-rule: evenodd;
      }
    </style>
  </defs>
  <rect id="Rectangle_96_copy" data-name="Rectangle 96 copy" class="cls-1" width="768" height="287"/>
  <path id="_Curious._Connected._Out_in_the_world._" data-name="“Curious. Connected. Out in the world.”" class="cls-2" d="M82.567,97.586a2.542,2.542,0,0,0-.39,1.35,2.222,2.222,0,1,0,4.443,0,2.289,2.289,0,0,0-1.231-2.011L87.4,92.634H85.689Zm5.583,0a2.543,2.543,0,0,0-.39,1.35,2.222,2.222,0,1,0,4.443,0,2.289,2.289,0,0,0-1.231-2.011l2.011-4.291H91.273Zm8.73,5.7a11.078,11.078,0,0,0,20.443,5.852l-2.342-1.41a8.373,8.373,0,1,1,0-8.883l2.342-1.41A11.078,11.078,0,0,0,96.881,103.287Zm25.026,4.862c0,3.721,2.222,6.092,5.524,6.092a5.165,5.165,0,0,0,4.623-2.611v2.311h2.582V98.936h-2.582v7.442c0,3.452-1.831,5.492-4.173,5.492-2.071,0-3.392-1.59-3.392-4.111V98.936h-2.582v9.213Zm19.085,5.792h2.582V106.5c0-3.512,2.071-5.162,3.963-5.162a3.771,3.771,0,0,1,1.41.24V98.906a5.345,5.345,0,0,0-1.17-.12,4.466,4.466,0,0,0-4.2,3.061V98.936h-2.582v15.005ZM156.6,93.084a1.813,1.813,0,0,0-1.8-1.831,1.865,1.865,0,0,0-1.861,1.831,1.845,1.845,0,0,0,1.861,1.831A1.794,1.794,0,0,0,156.6,93.084Zm-3.122,20.857h2.581V98.936h-2.581v15.005Zm23.471-7.5a7.85,7.85,0,1,0-7.835,7.8A7.7,7.7,0,0,0,176.947,106.439Zm-13.058,0a5.211,5.211,0,1,1,5.223,5.4A5.157,5.157,0,0,1,163.889,106.439Zm18.033,1.71c0,3.721,2.222,6.092,5.524,6.092a5.165,5.165,0,0,0,4.623-2.611v2.311h2.582V98.936h-2.582v7.442c0,3.452-1.831,5.492-4.173,5.492-2.071,0-3.392-1.59-3.392-4.111V98.936h-2.582v9.213Zm28.812,1.621c0-2.251-1.411-3.692-3.963-4.532l-1.621-.54c-1.771-.57-2.311-1.14-2.311-2.1,0-1.11,1.11-1.74,2.521-1.74a4.055,4.055,0,0,1,3.182,1.56l1.681-1.62a5.82,5.82,0,0,0-4.8-2.161c-2.972,0-5.073,1.65-5.073,4.081,0,2.1,1.291,3.571,3.722,4.352l1.471,0.48c1.952,0.63,2.672,1.35,2.672,2.4,0,1.29-1.171,2.04-2.642,2.04a4.028,4.028,0,0,1-3.842-2.37l-2.1,1.14c0.93,2.341,3.272,3.481,5.883,3.481C208.542,114.241,210.734,112.711,210.734,109.77Zm8.759,2.16a2.221,2.221,0,1,0-2.221,2.251A2.26,2.26,0,0,0,219.493,111.93Zm13.232-8.643a11.077,11.077,0,0,0,20.443,5.852l-2.342-1.41a8.373,8.373,0,1,1,0-8.883l2.342-1.41A11.077,11.077,0,0,0,232.725,103.287Zm39.736,3.152a7.85,7.85,0,1,0-7.835,7.8A7.7,7.7,0,0,0,272.461,106.439Zm-13.058,0a5.211,5.211,0,1,1,5.223,5.4A5.157,5.157,0,0,1,259.4,106.439Zm18.243,7.5h2.582V106.5c0-3.512,1.921-5.492,4.353-5.492,2.1,0,3.542,1.56,3.542,4.081v8.853h2.552V104.7c0-3.721-2.312-6.062-5.674-6.062a5.308,5.308,0,0,0-4.773,2.611V98.936h-2.582v15.005Zm19.175,0H299.4V106.5c0-3.512,1.921-5.492,4.353-5.492,2.1,0,3.542,1.56,3.542,4.081v8.853h2.552V104.7c0-3.721-2.312-6.062-5.674-6.062a5.308,5.308,0,0,0-4.773,2.611V98.936h-2.582v15.005Zm18-7.5a7.914,7.914,0,0,0,14.53,4.231l-2.042-1.411a5.314,5.314,0,0,1-9.876-2.31h12.308a7.328,7.328,0,0,0,.03-0.781c-0.03-4.8-3.212-7.532-7.145-7.532A7.6,7.6,0,0,0,314.825,106.439Zm7.715-5.522a4.489,4.489,0,0,1,4.593,3.931h-9.516A4.906,4.906,0,0,1,322.54,100.917Zm26.02,9.3-2.252-1.261a5.086,5.086,0,0,1-4.683,2.881,5.4,5.4,0,0,1,0-10.8,5.086,5.086,0,0,1,4.683,2.881l2.252-1.261a7.774,7.774,0,0,0-6.935-4.021,7.8,7.8,0,1,0,0,15.605A7.774,7.774,0,0,0,348.56,110.22Zm12.961,3.511V111.42a5.715,5.715,0,0,1-1.832.3c-1.621,0-2.491-.63-2.491-2.551v-7.862h4.323V98.936H357.2V94.765h-2.582v4.171h-3.182v2.371h3.182V109.5a4.224,4.224,0,0,0,4.593,4.591A7.191,7.191,0,0,0,361.521,113.731Zm3.417-7.292a7.913,7.913,0,0,0,14.529,4.231l-2.041-1.411a5.314,5.314,0,0,1-9.876-2.31h12.308a7.328,7.328,0,0,0,.03-0.781c-0.03-4.8-3.212-7.532-7.145-7.532A7.6,7.6,0,0,0,364.938,106.439Zm7.715-5.522a4.489,4.489,0,0,1,4.593,3.931H367.73A4.906,4.906,0,0,1,372.653,100.917Zm11.22,5.522a7.509,7.509,0,0,0,7.355,7.8,6.582,6.582,0,0,0,5.283-2.611v2.311h2.582V91.433h-2.582v9.814a6.583,6.583,0,0,0-5.283-2.611A7.51,7.51,0,0,0,383.873,106.439Zm12.848,0a5.127,5.127,0,1,1-5.1-5.432A5.123,5.123,0,0,1,396.721,106.439Zm12.3,5.491a2.222,2.222,0,1,0-2.221,2.251A2.26,2.26,0,0,0,409.021,111.93Zm35.266-8.643A11.017,11.017,0,1,0,433.27,114.3,10.91,10.91,0,0,0,444.287,103.287Zm-19.213,0a8.212,8.212,0,1,1,8.2,8.373A8.171,8.171,0,0,1,425.074,103.287Zm24.276,4.862c0,3.721,2.222,6.092,5.524,6.092a5.165,5.165,0,0,0,4.623-2.611v2.311h2.581V98.936H459.5v7.442c0,3.452-1.831,5.492-4.173,5.492-2.071,0-3.392-1.59-3.392-4.111V98.936H449.35v9.213Zm27.22,5.582V111.42a5.7,5.7,0,0,1-1.831.3c-1.621,0-2.491-.63-2.491-2.551v-7.862h4.322V98.936h-4.322V94.765h-2.582v4.171h-3.182v2.371h3.182V109.5a4.224,4.224,0,0,0,4.593,4.591A7.18,7.18,0,0,0,476.57,113.731Zm16.743-20.647a1.813,1.813,0,0,0-1.8-1.831,1.865,1.865,0,0,0-1.861,1.831,1.845,1.845,0,0,0,1.861,1.831A1.794,1.794,0,0,0,493.313,93.084Zm-3.122,20.857h2.581V98.936h-2.581v15.005Zm8.972,0h2.581V106.5c0-3.512,1.922-5.492,4.353-5.492,2.1,0,3.542,1.56,3.542,4.081v8.853h2.552V104.7c0-3.721-2.311-6.062-5.674-6.062a5.308,5.308,0,0,0-4.773,2.611V98.936h-2.581v15.005Zm35.622-.21V111.42a5.715,5.715,0,0,1-1.832.3c-1.621,0-2.491-.63-2.491-2.551v-7.862h4.323V98.936h-4.323V94.765H527.88v4.171H524.7v2.371h3.182V109.5a4.224,4.224,0,0,0,4.593,4.591A7.191,7.191,0,0,0,534.785,113.731Zm4.8,0.21h2.581V106.5c0-3.512,1.922-5.492,4.353-5.492,2.1,0,3.542,1.56,3.542,4.081v8.853h2.552V104.7c0-3.721-2.311-6.062-5.674-6.062a5.308,5.308,0,0,0-4.773,2.611V91.433h-2.581v22.508Zm18-7.5a7.913,7.913,0,0,0,14.529,4.231l-2.041-1.411a5.315,5.315,0,0,1-9.877-2.31h12.308a7.328,7.328,0,0,0,.03-0.781c-0.03-4.8-3.212-7.532-7.144-7.532A7.6,7.6,0,0,0,557.587,106.439Zm7.715-5.522a4.491,4.491,0,0,1,4.593,3.931h-9.516A4.905,4.905,0,0,1,565.3,100.917Zm33.4,13.024h2.281l5.1-15.005h-2.731l-3.633,10.954-3.752-10.954H593.99l-3.753,10.954-3.632-10.954h-2.7l5.1,15.005h2.281l3.722-10.8Zm26.107-7.5a7.85,7.85,0,1,0-7.835,7.8A7.7,7.7,0,0,0,624.81,106.439Zm-13.058,0a5.211,5.211,0,1,1,5.223,5.4A5.157,5.157,0,0,1,611.752,106.439Zm18.244,7.5h2.581V106.5c0-3.512,2.072-5.162,3.963-5.162a3.78,3.78,0,0,1,1.411.24V98.906a5.36,5.36,0,0,0-1.171-.12,4.467,4.467,0,0,0-4.2,3.061V98.936H630v15.005Zm12.483,0h2.581V91.433h-2.581v22.508Zm7.8-7.5a7.509,7.509,0,0,0,7.355,7.8,6.58,6.58,0,0,0,5.283-2.611v2.311H665.5V91.433h-2.582v9.814a6.581,6.581,0,0,0-5.283-2.611A7.51,7.51,0,0,0,650.28,106.439Zm12.848,0a5.127,5.127,0,1,1-5.1-5.432A5.123,5.123,0,0,1,663.128,106.439Zm12.3,5.491a2.222,2.222,0,1,0-2.221,2.251A2.26,2.26,0,0,0,675.428,111.93Zm5.7-16.055a2.654,2.654,0,0,0,.421-1.35,2.237,2.237,0,1,0-4.473,0,2.326,2.326,0,0,0,1.23,2.011l-2.011,4.292h1.741Zm5.584,0a2.653,2.653,0,0,0,.42-1.35,2.237,2.237,0,1,0-4.473,0,2.327,2.327,0,0,0,1.231,2.011l-2.011,4.292h1.741Z"/>
  <rect id="Rectangle_4_copy_5" data-name="Rectangle 4 copy 5" class="cls-3" x="159.844" y="149.812" width="450.094" height="60"/>
  <path id="Shop_the_Icon_Collection" data-name="Shop the Icon Collection" class="cls-4" d="M223.872,187.236c2.706,0,4.565-1.653,4.583-4.022,0.018-1.966-1.191-3.215-3.05-3.894l-0.9-.331c-1.353-.5-1.984-0.808-1.984-1.506,0-.68.775-0.992,1.551-0.992a2.828,2.828,0,0,1,2.219,1.084l1.877-2.021a5.3,5.3,0,0,0-4.132-1.8c-2.562,0-4.42,1.488-4.42,4.023,0,1.782,1.154,3.049,3.229,3.765l0.9,0.313c1.281,0.44,1.787.9,1.787,1.561,0,0.624-.6,1.083-1.552,1.083a3.337,3.337,0,0,1-2.652-1.487l-2.2,1.891A5.584,5.584,0,0,0,223.872,187.236Zm9.728-.22h2.869v-5.161h5.16v5.161H244.5V173.975h-2.869v5.106h-5.16v-5.106H233.6v13.041Zm22.666,0.22a6.742,6.742,0,1,0-6.622-6.741A6.7,6.7,0,0,0,256.266,187.236Zm0-2.828a3.918,3.918,0,1,1,3.717-3.913A3.838,3.838,0,0,1,256.266,184.408Zm20.627-5.97a4.4,4.4,0,0,0-4.511-4.463h-4.348v13.041H270.9v-4.133h1.479A4.386,4.386,0,0,0,276.893,178.438Zm-2.779,0a1.7,1.7,0,0,1-1.768,1.708H270.9V176.73h1.443A1.689,1.689,0,0,1,274.114,178.438Zm16.189,8.578h2.887V176.767h3.3v-2.792h-9.455v2.792H290.3v10.249Zm11.1,0h2.869v-5.161h5.16v5.161H312.3V173.975h-2.869v5.106h-5.16v-5.106H301.4v13.041Zm16.766,0h8.119v-2.792h-5.251v-2.333h4.168V179.1h-4.168v-2.332h5.251v-2.792h-8.119v13.041Zm20.591,0h2.869V173.975H338.76v13.041Zm14.635,0.22a6.6,6.6,0,0,0,5.99-3.563l-2.526-1.4a3.8,3.8,0,0,1-3.464,2.131,3.917,3.917,0,0,1,0-7.825,3.8,3.8,0,0,1,3.464,2.131l2.526-1.4a6.6,6.6,0,0,0-5.99-3.564A6.742,6.742,0,0,0,353.4,187.236Zm16.73,0A6.742,6.742,0,1,0,363.5,180.5,6.7,6.7,0,0,0,370.125,187.236Zm0-2.828a3.918,3.918,0,1,1,3.717-3.913A3.838,3.838,0,0,1,370.125,184.408Zm23.351,2.608V173.975h-2.887v8.045l-6.224-8.045h-2.472v13.041h2.869v-8.064L391,187.016h2.472Zm18.9,0.22a6.605,6.605,0,0,0,5.99-3.563l-2.526-1.4a3.8,3.8,0,0,1-3.464,2.131,3.917,3.917,0,0,1,0-7.825,3.8,3.8,0,0,1,3.464,2.131l2.526-1.4a6.606,6.606,0,0,0-5.99-3.564A6.742,6.742,0,0,0,412.373,187.236Zm16.73,0a6.742,6.742,0,1,0-6.622-6.741A6.7,6.7,0,0,0,429.1,187.236Zm0-2.828a3.918,3.918,0,1,1,3.716-3.913A3.838,3.838,0,0,1,429.1,184.408Zm11.768,2.608h8.173v-2.792h-5.305V173.975h-2.868v13.041Zm13.12,0h8.173v-2.792h-5.305V173.975h-2.868v13.041Zm13.12,0h8.119v-2.792h-5.25v-2.333h4.167V179.1H469.98v-2.332h5.25v-2.792h-8.119v13.041Zm19.038,0.22a6.606,6.606,0,0,0,5.991-3.563l-2.526-1.4a3.8,3.8,0,0,1-3.465,2.131,3.917,3.917,0,0,1,0-7.825,3.8,3.8,0,0,1,3.465,2.131l2.526-1.4a6.606,6.606,0,0,0-5.991-3.564A6.742,6.742,0,0,0,486.149,187.236Zm13.14-.22h2.886V176.767h3.3v-2.792h-9.454v2.792h3.266v10.249Zm11.1,0h2.869V173.975h-2.869v13.041Zm14.635,0.22A6.742,6.742,0,1,0,518.4,180.5,6.7,6.7,0,0,0,525.023,187.236Zm0-2.828a3.918,3.918,0,1,1,3.717-3.913A3.838,3.838,0,0,1,525.023,184.408Zm23.351,2.608V173.975h-2.887v8.045l-6.224-8.045h-2.472v13.041h2.869v-8.064l6.242,8.064h2.472Z"/>
</svg>
