<svg id="copy_copy_4" data-name="copy copy 4" xmlns="http://www.w3.org/2000/svg" width="768" height="221"><defs><style>.cls-2{fill-rule:evenodd}</style></defs><path id="Rectangle_106_copy_5" data-name="Rectangle 106 copy 5" d="M0 0h767.831l.184 221H.183z" fill-rule="evenodd" fill="#fff"/><g id="CTA"><path id="Rectangle_4_copy_4" data-name="Rectangle 4 copy 4" d="M39 127h122v4H39z"/><path id="Shop_now" data-name="Shop now" class="cls-2" d="M44.017 120.54c2.706 0 4.564-1.62 4.582-3.941.018-1.926-1.19-3.149-3.048-3.815l-.9-.324c-1.353-.486-1.984-.792-1.984-1.476 0-.666.776-.972 1.551-.972a2.851 2.851 0 0 1 2.219 1.062l1.873-1.974a5.349 5.349 0 0 0-4.131-1.764c-2.561 0-4.419 1.458-4.419 3.941 0 1.746 1.154 2.987 3.229 3.689l.9.306c1.281.432 1.786.882 1.786 1.53 0 .611-.6 1.061-1.551 1.061a3.354 3.354 0 0 1-2.652-1.457l-2.2 1.853a5.62 5.62 0 0 0 4.745 2.281zm9.726-.216h2.867v-5.057h5.159v5.057h2.868v-12.777h-2.868v5H56.61v-5h-2.868v12.777zm22.657.216a6.6 6.6 0 1 0-6.62-6.605 6.629 6.629 0 0 0 6.62 6.605zm0-2.772a3.835 3.835 0 1 1 3.716-3.833 3.795 3.795 0 0 1-3.716 3.833zm20.622-5.848a4.357 4.357 0 0 0-4.51-4.373h-4.345v12.777h2.868v-4.049h1.479a4.342 4.342 0 0 0 4.51-4.355zm-2.778 0a1.683 1.683 0 0 1-1.768 1.673h-1.441v-3.347h1.443a1.673 1.673 0 0 1 1.768 1.674zm25.979 8.4v-12.773h-2.886v7.882l-6.223-7.882h-2.472v12.777h2.869v-7.9l6.241 7.9h2.471zm11.765.216a6.6 6.6 0 1 0-6.62-6.605 6.629 6.629 0 0 0 6.622 6.609zm0-2.772a3.835 3.835 0 1 1 3.716-3.833 3.794 3.794 0 0 1-3.714 3.837zm21.686 2.556h2.726l2.976-12.777h-3.067l-1.749 8.1-3.608-8.314-3.589 8.314-1.75-8.1h-3.067l2.959 12.777h2.723l2.724-6.263z"/></g><path id="Slim-Fit_Chambray_Shirt" data-name="Slim-Fit Chambray Shirt" class="cls-2" d="M50.224 67.024c5.76 0 9.715-3.456 9.753-8.409.038-4.108-2.534-6.719-6.489-8.14l-1.92-.691c-2.88-1.037-4.224-1.689-4.224-3.148 0-1.421 1.651-2.073 3.3-2.073a6.064 6.064 0 0 1 4.723 2.265l3.995-4.228a11.375 11.375 0 0 0-8.793-3.763c-5.452 0-9.407 3.11-9.407 8.409 0 3.724 2.457 6.374 6.873 7.871l1.92.653c2.726.922 3.8 1.881 3.8 3.264 0 1.306-1.267 2.265-3.3 2.265a7.132 7.132 0 0 1-5.644-3.11l-4.684 3.955a11.955 11.955 0 0 0 10.097 4.88zm15.322-.461H82.94v-5.836H71.651V39.3h-6.105v27.264zm22.54 0h6.105V39.3h-6.105v27.264zm27.3-5.8l7.948-11.02v16.821h6.144V39.3h-5.568l-8.524 11.749-8.523-11.749H101.3v27.264h6.1V49.746zm20.545-5.063h11.289v-5.532h-11.289V55.7zm17.741 10.866h6.1V55.889h8.332v-5.836h-8.332v-4.915h10.674V39.3h-16.774v27.264zm22.272 0h6.105V39.3h-6.105v27.264zm18.124 0h6.143V45.138h7.027V39.3h-20.12v5.836h6.95v21.428zm39.474.461a14.092 14.092 0 0 0 12.748-7.449l-5.376-2.918a8.179 8.179 0 1 1 0-7.449l5.376-2.918a14.213 14.213 0 1 0-12.748 20.731zm17.665-.461h6.105V55.774h10.982v10.79h6.106V39.3h-6.105v10.676h-10.983V39.3h-6.105v27.264zm27.379 0h6.374l2.419-5.759h11.289l2.419 5.759h6.374L295.788 39.3h-5.529zm11.02-11.058l3.417-8.217 3.418 8.217h-6.835zm36.134 5.26l7.948-11.02v16.816h6.144V39.3h-5.568l-8.524 11.751-8.524-11.751h-5.568v27.264h6.1V49.746zm21.2 5.8h11.98a8.06 8.06 0 0 0 8.294-8.025 7.124 7.124 0 0 0-3.878-6.451 6.417 6.417 0 0 0 1.958-4.684 8.1 8.1 0 0 0-8.1-8.1h-10.257v27.256zm6.106-16.242V44.87h3.454a2.771 2.771 0 0 1 2.842 2.765 2.733 2.733 0 0 1-2.842 2.688h-3.455zm0 10.636v-5.457h5.337a2.774 2.774 0 0 1 2.88 2.726 2.74 2.74 0 0 1-2.842 2.726h-5.375zm19.622 5.606h6.1V55.313h1l9.061 11.25h7.334l-9.637-12.018c3.455-1.229 5.337-3.494 5.337-7.026a8.049 8.049 0 0 0-8.448-8.217h-10.75v27.262zm6.1-16.434v-5.226h3.917c1.805 0 3.11.96 3.11 2.611 0 1.574-1.305 2.611-3.11 2.611h-3.915zm17.741 16.434h6.374L405.3 60.8h11.289l2.419 5.759h6.374L413.713 39.3h-5.529zm11.02-11.058l3.418-8.217 3.417 8.217h-6.835zm25.882 11.058h6.144V55.121L449.5 39.3h-7.1l-5.951 9.829-5.877-9.829h-7.1l9.945 15.781v11.483zm37.632.461c5.759 0 9.714-3.456 9.752-8.409.039-4.108-2.534-6.719-6.489-8.14l-1.92-.691c-2.879-1.037-4.223-1.689-4.223-3.148 0-1.421 1.651-2.073 3.3-2.073a6.064 6.064 0 0 1 4.723 2.265l3.993-4.224a11.376 11.376 0 0 0-8.793-3.763c-5.452 0-9.407 3.11-9.407 8.409 0 3.724 2.457 6.374 6.873 7.871l1.92.653c2.726.922 3.8 1.881 3.8 3.264 0 1.306-1.267 2.265-3.3 2.265a7.13 7.13 0 0 1-5.644-3.11l-4.685 3.955a11.955 11.955 0 0 0 10.102 4.871zm15.321-.461h6.105V55.774h10.982v10.79h6.105V39.3h-6.105v10.676h-10.98V39.3h-6.105v27.264zm30.3 0h6.105V39.3h-6.105v27.264zm13.209 0h6.1V55.313h1l9.061 11.25h7.334l-9.638-12.018c3.456-1.229 5.338-3.494 5.338-7.026a8.049 8.049 0 0 0-8.448-8.217h-10.747v27.262zm6.1-16.434v-5.226h3.927c1.8 0 3.11.96 3.11 2.611 0 1.574-1.306 2.611-3.11 2.611h-3.917zm24.73 16.434h6.143v-21.43h7.027V39.3h-20.12v5.836h6.95v21.428z"/></svg>