<svg id="copy_copy_2" data-name="copy copy 2" xmlns="http://www.w3.org/2000/svg" width="768" height="256"><defs><style>.cls-2{fill-rule:evenodd}</style></defs><path id="Rectangle_106_copy_12" data-name="Rectangle 106 copy 12" fill="#fff" d="M0 0h768v256H0z"/><g id="CTA_copy" data-name="CTA copy"><path id="Rectangle_4_copy_4" data-name="Rectangle 4 copy 4" d="M39 162h122v4H39z"/><path id="Shop_now" data-name="Shop now" class="cls-2" d="M44.017 155.54c2.706 0 4.564-1.62 4.582-3.941.018-1.926-1.19-3.149-3.048-3.815l-.9-.324c-1.353-.486-1.984-.792-1.984-1.476 0-.666.776-.972 1.551-.972a2.851 2.851 0 0 1 2.219 1.062l1.873-1.974a5.349 5.349 0 0 0-4.131-1.764c-2.561 0-4.419 1.458-4.419 3.941 0 1.746 1.154 2.987 3.229 3.689l.9.306c1.281.432 1.786.882 1.786 1.53 0 .611-.6 1.061-1.551 1.061a3.354 3.354 0 0 1-2.652-1.457l-2.2 1.853a5.62 5.62 0 0 0 4.745 2.281zm9.726-.216h2.867v-5.057h5.159v5.057h2.868v-12.777h-2.868v5H56.61v-5h-2.868v12.777zm22.657.216a6.6 6.6 0 1 0-6.62-6.6 6.629 6.629 0 0 0 6.62 6.6zm0-2.772a3.835 3.835 0 1 1 3.716-3.833 3.795 3.795 0 0 1-3.716 3.833zm20.622-5.848a4.357 4.357 0 0 0-4.51-4.373h-4.345v12.777h2.868v-4.049h1.479a4.342 4.342 0 0 0 4.51-4.355zm-2.778 0a1.683 1.683 0 0 1-1.768 1.673h-1.441v-3.347h1.443a1.673 1.673 0 0 1 1.768 1.674zm25.979 8.4v-12.773h-2.886v7.882l-6.223-7.882h-2.472v12.777h2.869v-7.9l6.241 7.9h2.471zm11.765.216a6.6 6.6 0 1 0-6.62-6.6 6.629 6.629 0 0 0 6.622 6.604zm0-2.772a3.835 3.835 0 1 1 3.716-3.833 3.794 3.794 0 0 1-3.714 3.837zm21.686 2.556h2.726l2.976-12.777h-3.067l-1.749 8.1-3.608-8.314-3.589 8.314-1.75-8.1h-3.067l2.959 12.777h2.723l2.724-6.263z"/></g><path id="Extra-fine_Italian_Merino_Wool_Sweater" data-name="Extra-fine Italian Merino Wool Sweater" class="cls-2" d="M39.284 68.333h17.278V62.5H45.389v-4.879h8.87v-5.837h-8.87v-4.876h11.173v-5.836H39.284v27.261zm41.24 0h7.1L77.452 54.549l9.561-13.477h-7.065l-6.182 8.754-6.182-8.754h-7.065l9.6 13.477L59.9 68.333h7.142L73.8 59.31zm16.474 0h6.144V46.908h7.026v-5.836h-20.12v5.836H97v21.425zm18.816 0h6.105v-11.25h1l9.062 11.25h7.333l-9.637-12.018c3.455-1.229 5.337-3.494 5.337-7.026a8.049 8.049 0 0 0-8.447-8.217h-10.753v27.261zm6.105-16.433v-5.222h3.917c1.805 0 3.11.96 3.11 2.611 0 1.574-1.3 2.611-3.11 2.611h-3.917zm18.317 16.434h6.374l2.419-5.759h11.289l2.419 5.759h6.374l-11.673-27.262h-5.529zm11.02-11.058l3.418-8.217 3.417 8.217h-6.835zm20.392.192h11.289v-5.53h-11.289v5.529zm18.316 10.866h6.106V57.659h8.33v-5.836h-8.33v-4.915h10.674v-5.836h-16.78v27.261zm22.848 0h6.1V41.072h-6.1v27.261zm38.437 0V41.072h-6.144v16.817l-13.247-16.817H226.6v27.261h6.1V51.477l13.285 16.856h5.261zm7.681 0h17.279V62.5h-11.174v-4.879h8.87v-5.837h-8.87v-4.876h11.174v-5.836H258.93v27.261zm34.214 0h6.105V41.072h-6.105v27.261zm18.7 0h6.143V46.908h7.027v-5.836h-20.12v5.836h6.95v21.425zm13.133 0h6.374l2.419-5.759h11.289l2.419 5.759h6.374l-11.673-27.262h-5.529zM336 57.275l3.418-8.217 3.417 8.217H336zm22.619 11.058h17.393V62.5h-11.291V41.072h-6.105v27.261zm23.116 0h6.1V41.072h-6.1v27.261zm10.867 0h6.374l2.419-5.759h11.289l2.419 5.759h6.374L409.8 41.072h-5.529zm11.02-11.058l3.417-8.217 3.418 8.217h-6.835zm47.269 11.058V41.072h-6.143v16.817L431.5 41.072h-5.261v27.261h6.1V51.477l13.286 16.856h5.26zM53.375 96.134l7.948-11.02v16.817h6.144v-27.26H61.9L53.375 86.42l-8.524-11.749h-5.567v27.261h6.105V85.115zm21.773 5.8h17.28V96.1H81.254v-4.88h8.87v-5.836h-8.87v-4.877h11.174v-5.836H75.149v27.261zm23.846 0h6.1V90.682h1l9.061 11.25h7.334l-9.638-12.018c3.456-1.229 5.338-3.494 5.338-7.026a8.049 8.049 0 0 0-8.448-8.217H99v27.261zM105.1 85.5v-5.223h3.917c1.8 0 3.11.96 3.11 2.611 0 1.574-1.306 2.611-3.11 2.611H105.1zm21.235 16.433h6.106V74.671h-6.106v27.261zm38.437 0V74.671h-6.144v16.818l-13.247-16.818h-5.26v27.261h6.1V85.076l13.285 16.856h5.261zm20.237.461A14.091 14.091 0 1 0 170.917 88.3a14.126 14.126 0 0 0 14.092 14.093zm0-5.913a8.183 8.183 0 1 1 7.91-8.178 8.088 8.088 0 0 1-7.91 8.177zm51.378 5.452h5.8l6.335-27.261h-6.527L238.27 91.95l-7.681-17.74-7.641 17.739-3.725-17.278H212.7l6.3 27.261h5.8l5.8-13.362zm29.761.461A14.091 14.091 0 1 0 252.056 88.3a14.125 14.125 0 0 0 14.092 14.093zm0-5.913a8.183 8.183 0 1 1 7.909-8.178 8.089 8.089 0 0 1-7.909 8.177zm32.793 5.913A14.091 14.091 0 1 0 284.849 88.3a14.125 14.125 0 0 0 14.092 14.093zm0-5.913a8.183 8.183 0 1 1 7.909-8.181 8.089 8.089 0 0 1-7.909 8.18zm20.237 5.452h17.394V96.1h-11.289V74.671h-6.105v27.261zm40.587.461c5.76 0 9.715-3.456 9.753-8.409.038-4.108-2.534-6.719-6.489-8.14l-1.92-.691c-2.88-1.037-4.224-1.689-4.224-3.148 0-1.421 1.652-2.073 3.3-2.073a6.063 6.063 0 0 1 4.725 2.267l3.994-4.224a11.376 11.376 0 0 0-8.793-3.763c-5.453 0-9.408 3.11-9.408 8.409 0 3.725 2.458 6.374 6.874 7.871l1.919.653c2.727.922 3.8 1.881 3.8 3.264 0 1.305-1.267 2.265-3.3 2.265a7.134 7.134 0 0 1-5.645-3.11l-4.684 3.955a11.955 11.955 0 0 0 10.098 4.873zm36.94-.461h5.8l6.336-27.261h-6.528l-3.724 17.278-7.68-17.739-7.641 17.739-3.724-17.278h-6.528l6.3 27.261h5.8l5.8-13.362zm17.512 0H431.5V96.1h-11.178v-4.88h8.87v-5.836h-8.87v-4.877H431.5v-5.836h-17.283v27.261zm20.928 0h6.374l2.419-5.759h11.289l2.419 5.759h6.374l-11.673-27.262h-5.529zm11.02-11.058l3.417-8.217L453 90.874h-6.835zm24.807 11.058h6.143V80.507h7.027v-5.836h-20.12v5.836h6.95v21.425zm18.816 0h17.279V96.1h-11.174v-4.88h8.87v-5.836h-8.87v-4.877h11.174v-5.836h-17.279v27.261zm23.846 0h6.105V90.682h1l9.061 11.25h7.334L527.5 89.914c3.455-1.229 5.337-3.494 5.337-7.026a8.049 8.049 0 0 0-8.448-8.217h-10.755v27.261zm6.105-16.433v-5.223h3.917c1.805 0 3.11.96 3.11 2.611 0 1.574-1.3 2.611-3.11 2.611h-3.917z"/></svg>