<svg id="copy_copy_5" data-name="copy copy 5" xmlns="http://www.w3.org/2000/svg" width="768" height="256"><defs><style>.cls-2{fill-rule:evenodd}</style></defs><path id="Rectangle_106_copy_12" data-name="Rectangle 106 copy 12" fill="#fff" d="M0 0h768v256H0z"/><g id="CTA_copy_2" data-name="CTA copy 2"><path id="Rectangle_4_copy_4" data-name="Rectangle 4 copy 4" d="M39 162h122v4H39z"/><path id="Shop_now" data-name="Shop now" class="cls-2" d="M44.017 155.54c2.706 0 4.564-1.62 4.582-3.941.018-1.926-1.19-3.149-3.048-3.815l-.9-.324c-1.353-.486-1.984-.792-1.984-1.476 0-.666.776-.972 1.551-.972a2.851 2.851 0 0 1 2.219 1.062l1.873-1.974a5.349 5.349 0 0 0-4.131-1.764c-2.561 0-4.419 1.458-4.419 3.941 0 1.746 1.154 2.987 3.229 3.689l.9.306c1.281.432 1.786.882 1.786 1.53 0 .611-.6 1.061-1.551 1.061a3.354 3.354 0 0 1-2.652-1.457l-2.2 1.853a5.62 5.62 0 0 0 4.745 2.281zm9.726-.216h2.867v-5.057h5.159v5.057h2.868v-12.777h-2.868v5H56.61v-5h-2.868v12.777zm22.657.216a6.6 6.6 0 1 0-6.62-6.6 6.629 6.629 0 0 0 6.62 6.6zm0-2.772a3.835 3.835 0 1 1 3.716-3.833 3.795 3.795 0 0 1-3.716 3.833zm20.622-5.848a4.357 4.357 0 0 0-4.51-4.373h-4.345v12.777h2.868v-4.049h1.479a4.342 4.342 0 0 0 4.51-4.355zm-2.778 0a1.683 1.683 0 0 1-1.768 1.673h-1.441v-3.347h1.443a1.673 1.673 0 0 1 1.768 1.674zm25.979 8.4v-12.773h-2.886v7.882l-6.223-7.882h-2.472v12.777h2.869v-7.9l6.241 7.9h2.471zm11.765.216a6.6 6.6 0 1 0-6.62-6.6 6.629 6.629 0 0 0 6.622 6.604zm0-2.772a3.835 3.835 0 1 1 3.716-3.833 3.794 3.794 0 0 1-3.714 3.837zm21.686 2.556h2.726l2.976-12.777h-3.067l-1.749 8.1-3.608-8.314-3.589 8.314-1.75-8.1h-3.067l2.959 12.777h2.723l2.724-6.263z"/></g><path id="Water-Repellent_Four-Pocket_Jacket_" data-name="Water-Repellent Four-Pocket Jacket" class="cls-2" d="M63.686 68.171h5.8L75.823 40.9h-6.529l-3.726 17.285-7.681-17.743-7.643 17.743L46.519 40.9h-6.53l6.3 27.268h5.8l5.8-13.365zm12.591 0h6.375l2.42-5.761h11.292l2.42 5.761h6.375L93.484 40.9h-5.531zM87.3 57.11l3.418-8.219 3.418 8.219H87.3zm24.422 11.061h6.145V46.74h7.033V40.9h-20.13v5.84h6.952v21.431zm18.431 0h17.283v-5.838H136.26v-4.877h8.871v-5.838h-8.871V46.74h11.176V40.9h-17.283v27.271zm23.462 0h6.107V56.918h1l9.064 11.253h7.336L167.48 56.15c3.457-1.229 5.338-3.5 5.338-7.028a8.05 8.05 0 0 0-8.449-8.219h-10.754v27.268zm6.107-16.438V46.51h3.917c1.8 0 3.111.96 3.111 2.612 0 1.575-1.306 2.612-3.111 2.612h-3.917zM178.69 57.3h11.291v-5.528H178.69V57.3zm17.932 10.869h6.107V56.918h1l9.064 11.253h7.335l-9.64-12.021c3.457-1.229 5.339-3.5 5.339-7.028a8.051 8.051 0 0 0-8.45-8.219h-10.755v27.268zm6.107-16.438V46.51h3.918c1.805 0 3.11.96 3.11 2.612 0 1.575-1.305 2.612-3.11 2.612h-3.918zm20.85 16.438h17.283v-5.836h-11.177v-4.877h8.872v-5.838h-8.872V46.74h11.177V40.9h-17.283v27.271zM265.9 50.235a9.287 9.287 0 0 0-9.6-9.333h-9.256v27.269h6.107V59.53h3.149a9.256 9.256 0 0 0 9.6-9.295zm-5.915 0a3.589 3.589 0 0 1-3.764 3.572h-3.072v-7.143h3.072a3.566 3.566 0 0 1 3.763 3.571zm11.364 17.936h17.283v-5.838h-11.178v-4.877h8.872v-5.838h-8.872V46.74h11.177V40.9h-17.283v27.271zm23.462 0h17.4v-5.838h-11.294V40.9h-6.107v27.271zm22.733 0h17.4v-5.838h-11.295V40.9h-6.106v27.271zm22.732 0h17.283v-5.838h-11.178v-4.877h8.872v-5.838h-8.872V46.74h11.177V40.9h-17.283v27.271zm48.119 0V40.9h-6.145v16.825L369 40.9h-5.262v27.271h6.107v-16.86l13.288 16.86h5.262zm12.208 0h6.145V46.74h7.028V40.9H393.65v5.84h6.95v21.431zm27.3 0h6.106V57.494h8.335v-5.838h-8.335V46.74h10.677V40.9H427.9v27.271zm34.485.461a14.1 14.1 0 1 0-14.095-14.1 14.129 14.129 0 0 0 14.095 14.1zm0-5.915a8.185 8.185 0 1 1 7.912-8.181 8.091 8.091 0 0 1-7.912 8.181zm30.758 5.915c6.529 0 11.214-4.455 11.214-11.253V40.9h-6.106v16.556c0 3.265-2.074 5.262-5.108 5.262s-5.108-2-5.108-5.262V40.9h-6.107v16.479c0 6.798 4.647 11.253 11.215 11.253zm18.2-.461h6.107V56.918h1l9.064 11.253h7.336L525.21 56.15c3.456-1.229 5.338-3.5 5.338-7.028A8.051 8.051 0 0 0 522.1 40.9h-10.755v27.271zm6.107-16.438V46.51h3.917c1.8 0 3.111.96 3.111 2.612 0 1.575-1.306 2.612-3.111 2.612h-3.917zM536.42 57.3h11.291v-5.528H536.42V57.3zm36.79-7.067a9.287 9.287 0 0 0-9.6-9.333h-9.256v27.271h6.107V59.53h3.149a9.256 9.256 0 0 0 9.6-9.295zm-5.915 0a3.588 3.588 0 0 1-3.764 3.572h-3.072v-7.141h3.072a3.566 3.566 0 0 1 3.764 3.571zm23.923 18.4a14.1 14.1 0 1 0-14.095-14.1 14.129 14.129 0 0 0 14.095 14.099zm0-5.915a8.185 8.185 0 1 1 7.912-8.181 8.091 8.091 0 0 1-7.912 8.18zm32.409 5.915a14.1 14.1 0 0 0 12.751-7.451L631 58.262a8.181 8.181 0 1 1 0-7.451l5.377-2.919a14.216 14.216 0 1 0-12.75 20.74zm17.854-.461h6.068V55.958l11.1 12.213h7.835L653.54 54l10.754-13.1h-7.489l-9.256 11.407V40.9h-6.068v27.271zm28.416 0h17.283v-5.839H676v-4.877h8.872v-5.838H676V46.74h11.18V40.9H669.9v27.271zm28.378 0h6.145V46.74h7.028V40.9h-20.124v5.84h6.951v21.431zm-649.337 34.06c4.686 0 8.91-2.343 8.91-7.912V74.5h-6.106v19.436a2.807 2.807 0 0 1-5.607-.154H40.1c0 5.918 4.268 8.45 8.838 8.45zm12.478-.461h6.375l2.42-5.761H81.5l2.42 5.761h6.38L78.622 74.5h-5.53zM72.439 90.71l3.418-8.219 3.418 8.219h-6.836zM106 102.232a14.093 14.093 0 0 0 12.751-7.451l-5.377-2.919a8.181 8.181 0 1 1 0-7.451l5.377-2.919A14.216 14.216 0 1 0 106 102.232zm17.854-.461h6.068V89.558l11.1 12.213h7.835L135.915 87.6l10.754-13.1h-7.49l-9.256 11.407V74.5h-6.068v27.268zm28.416 0h17.283v-5.838h-11.175v-4.877h8.872v-5.838h-8.872V80.34h11.176V74.5h-17.283v27.268zm28.379 0h6.151V80.34h7.028V74.5H173.7v5.84h6.952v21.431z"/></svg>