<svg id="copy_copy_2" data-name="copy copy 2" xmlns="http://www.w3.org/2000/svg" width="768" height="442"><defs><style>.cls-2{fill-rule:evenodd}</style></defs><path id="Rectangle_106_copy_5" data-name="Rectangle 106 copy 5" d="M0 0h767.831l.184 442H.183z" fill-rule="evenodd" fill="#fff"/><g id="CTA_underline"><path id="Rectangle_4_copy_4" data-name="Rectangle 4 copy 4" d="M39 348h122v4H39z"/><path id="Shop_now" data-name="Shop now" class="cls-2" d="M43.817 340.853c2.706 0 4.564-1.653 4.582-4.023.018-1.965-1.19-3.214-3.048-3.894l-.9-.33c-1.353-.5-1.984-.808-1.984-1.506 0-.68.776-.992 1.551-.992a2.831 2.831 0 0 1 2.219 1.083l1.876-2.02a5.3 5.3 0 0 0-4.131-1.8c-2.561 0-4.419 1.488-4.419 4.022 0 1.782 1.154 3.049 3.229 3.766l.9.312c1.281.441 1.786.9 1.786 1.561 0 .625-.6 1.084-1.551 1.084a3.335 3.335 0 0 1-2.652-1.488l-2.2 1.892a5.583 5.583 0 0 0 4.742 2.333zm9.726-.221h2.867v-5.161h5.159v5.161h2.868v-13.041h-2.868v5.109H56.41v-5.107h-2.868v13.041zm22.66.221a6.742 6.742 0 1 0-6.62-6.741 6.7 6.7 0 0 0 6.617 6.741zm0-2.829a3.917 3.917 0 1 1 3.716-3.912 3.837 3.837 0 0 1-3.719 3.912zm20.622-5.969a4.4 4.4 0 0 0-4.51-4.464h-4.348v13.041h2.868V336.5h1.479a4.385 4.385 0 0 0 4.51-4.445zm-2.778 0a1.7 1.7 0 0 1-1.768 1.708h-1.444v-3.416h1.443a1.688 1.688 0 0 1 1.768 1.708zm25.979 8.577v-13.041h-2.886v8.045l-6.223-8.045h-2.472v13.041h2.869v-8.063l6.241 8.063h2.471zm11.765.221a6.742 6.742 0 1 0-6.62-6.741 6.7 6.7 0 0 0 6.619 6.741zm0-2.829a3.917 3.917 0 1 1 3.716-3.912 3.837 3.837 0 0 1-3.717 3.912zm21.686 2.608h2.723l2.976-13.041h-3.067l-1.749 8.266-3.608-8.486-3.589 8.486-1.75-8.266h-3.067l2.959 13.041h2.723l2.724-6.392z"/></g><path id="Rapid_Movement_Cargo_Chino_Cotton_twill_b._1981_The_first_Ba" data-name="Rapid Movement Cargo Chino Cotton twill, b. 1981 The first Ba" class="cls-2" d="M41.884 68.092h6.105v-11.25h1l9.062 11.25h7.334l-9.64-12.018c3.456-1.229 5.337-3.494 5.337-7.026a8.049 8.049 0 0 0-8.447-8.217H41.884v27.261zm6.105-16.434v-5.221h3.916c1.8 0 3.11.96 3.11 2.611 0 1.574-1.306 2.611-3.11 2.611h-3.916zm18.317 16.434h6.374l2.42-5.759h11.288l2.419 5.759h6.373L83.508 40.831h-5.529zm11.02-11.058l3.417-8.217 3.417 8.217h-6.834zm41.474-6.873a9.284 9.284 0 0 0-9.6-9.33h-9.256v27.261h6.105v-8.639h3.151a9.253 9.253 0 0 0 9.6-9.292zm-5.913 0a3.588 3.588 0 0 1-3.763 3.571h-3.072V46.59h3.072a3.566 3.566 0 0 1 3.76 3.571zm11.751 17.931h6.105V40.831h-6.105v27.261zm13.785 0h9.292a13.633 13.633 0 1 0 0-27.261h-9.295v27.261zm6.105-5.606V46.437h3.187a7.693 7.693 0 0 1 7.718 8.025 7.693 7.693 0 0 1-7.718 8.025h-3.187zm47.73-.192l7.948-11.02v16.818h6.144V40.831h-5.568l-8.527 11.749-8.524-11.749h-5.568v27.261h6.1V51.275zm34.329 6.259a14.091 14.091 0 1 0-14.092-14.091 14.126 14.126 0 0 0 14.089 14.091zm0-5.913a8.183 8.183 0 1 1 7.91-8.178 8.088 8.088 0 0 1-7.913 8.178zm27.379 5.452h5.491l11.174-27.261h-6.72l-7.221 18.161-7.257-18.162h-6.643zm21.505 0h17.278v-5.836h-11.176V57.38h8.87v-5.836h-8.87v-4.877h11.173v-5.836h-17.278v27.261zm37.938-5.8l7.948-11.02v16.82h6.143V40.831h-5.57l-8.524 11.749-8.524-11.749h-5.568v27.261h6.1V51.275zm21.773 5.8h17.279v-5.836h-11.177V57.38h8.87v-5.836h-8.87v-4.877h11.174v-5.836h-17.279v27.261zm48.5 0V40.831h-6.144v16.818l-13.252-16.818h-5.26v27.261h6.1V51.236l13.285 16.856h5.261zm12.6 0h6.143V46.667h7.027v-5.836h-20.12v5.836h6.95v21.425zM54.44 109.352a14.093 14.093 0 0 0 12.747-7.452l-5.376-2.918a8.179 8.179 0 1 1 0-7.449l5.376-2.918a14.213 14.213 0 1 0-12.747 20.737zm14.67-.461h6.374l2.419-5.759h11.288l2.419 5.759h6.374L86.311 81.63h-5.529zm11.02-11.058l3.417-8.217 3.417 8.217h-6.835zm22.619 11.058h6.1v-11.25h1l9.062 11.25h7.334l-9.638-12.018c3.456-1.229 5.337-3.494 5.337-7.026a8.049 8.049 0 0 0-8.444-8.217h-10.752v27.261zm6.1-16.433v-5.222h3.916c1.8 0 3.11.96 3.11 2.611 0 1.574-1.305 2.611-3.11 2.611h-3.916zm33.561 16.894c4.416 0 8.754-1.306 11.174-4.032V92.381H142.3V98.1h5.337v4.031c-1.152.922-3.149 1.306-5.3 1.306-5.337 0-8.6-3.532-8.6-8.178a8 8 0 0 1 8.217-8.178A9.054 9.054 0 0 1 148.826 90l4.3-4.185a14.506 14.506 0 0 0-11.174-4.646 13.925 13.925 0 0 0-14.36 14.091c.001 7.987 6.336 14.092 14.822 14.092zm30.451 0a14.091 14.091 0 1 0-14.092-14.092 14.125 14.125 0 0 0 14.096 14.092zm0-5.913a8.183 8.183 0 1 1 7.909-8.178 8.089 8.089 0 0 1-7.905 8.178zm43.16 5.913a14.092 14.092 0 0 0 12.748-7.449l-5.369-2.918a8.179 8.179 0 1 1 0-7.449l5.376-2.918a14.213 14.213 0 1 0-12.751 20.734zm18.241-.461h6.105V98.1h10.982v10.789h6.105V81.63h-6.105V92.3h-10.978V81.63h-6.105v27.261zm30.874 0h6.105V81.63h-6.101v27.261zm38.436 0V81.63h-6.144v16.817L284.185 81.63h-5.26v27.261h6.1V92.035l13.285 16.856h5.261zm20.237.461a14.091 14.091 0 1 0-14.092-14.092 14.126 14.126 0 0 0 14.096 14.092zm0-5.913a8.183 8.183 0 1 1 7.91-8.178 8.088 8.088 0 0 1-7.906 8.178zM40.192 133.117a9.743 9.743 0 0 0 17.981 5.149l-2.059-1.241a7.367 7.367 0 1 1 0-7.815l2.06-1.241a9.743 9.743 0 0 0-17.982 5.148zm34.955 2.773a6.9 6.9 0 1 0-6.891 6.864 6.774 6.774 0 0 0 6.891-6.864zm-11.486 0a4.584 4.584 0 1 1 4.594 4.752 4.538 4.538 0 0 1-4.593-4.752zm32.21 6.415v-2.033a5 5 0 0 1-1.611.264c-1.426 0-2.192-.554-2.192-2.244v-6.917h3.8v-2.086h-3.8v-3.67H89.8v3.67h-2.272v2.086H89.8v7.208a3.716 3.716 0 0 0 4.04 4.039 6.313 6.313 0 0 0 2.032-.317zm-9.241 0v-2.033a5 5 0 0 1-1.611.264c-1.426 0-2.192-.554-2.192-2.244v-6.917h3.223v-2.086h-3.222v-3.67h-2.27v3.67h-2.8v2.086h2.8v7.208a3.716 3.716 0 0 0 4.04 4.039 6.313 6.313 0 0 0 2.033-.317zm26.032-6.415a6.9 6.9 0 1 0-6.892 6.864 6.775 6.775 0 0 0 6.892-6.864zm-11.486 0a4.584 4.584 0 1 1 4.594 4.752 4.537 4.537 0 0 1-4.594-4.752zm16.051 6.6h2.27v-6.548c0-3.089 1.69-4.831 3.829-4.831 1.848 0 3.116 1.373 3.116 3.59v7.789h2.244v-8.132c0-3.274-2.033-5.333-4.99-5.333a4.669 4.669 0 0 0-4.2 2.3v-2.033h-2.27v13.2zm31.337-.185v-2.033a5 5 0 0 1-1.611.264c-1.425 0-2.191-.554-2.191-2.244v-6.917h3.8v-2.086h-3.8v-3.67h-2.271v3.67h-2.8v2.086h2.8v7.208a3.716 3.716 0 0 0 4.04 4.039 6.317 6.317 0 0 0 2.033-.317zm15.418.185h2.007l4.488-13.2h-2.4l-3.195 9.637-3.3-9.637h-1.742l-3.3 9.637-3.195-9.637h-2.376l4.489 13.2h2.006l3.274-9.5zM177 124.14a1.6 1.6 0 0 0-1.585-1.61 1.64 1.64 0 0 0-1.637 1.61 1.623 1.623 0 0 0 1.637 1.611A1.579 1.579 0 0 0 177 124.14zm-2.746 18.35h2.27v-13.2h-2.27v13.2zm7.893 0h2.271v-19.8h-2.271v19.8zm7.893 0h2.271v-19.8h-2.271v19.8zm10.719-.581a2.258 2.258 0 0 0 .37-1.188 1.954 1.954 0 1 0-3.908 0 1.965 1.965 0 0 0 1.083 1.769l-1.769 3.776h1.5zm15.285-1.452a5.789 5.789 0 0 0 4.647 2.3 6.877 6.877 0 0 0 0-13.729 5.789 5.789 0 0 0-4.647 2.3v-8.634h-2.27v19.8h2.27v-2.033zm8.793-4.567a4.5 4.5 0 1 1-4.489-4.779 4.508 4.508 0 0 1 4.485 4.779zm9.766 4.831a1.954 1.954 0 1 0-1.953 1.981 1.989 1.989 0 0 0 1.95-1.981zm14.229 1.769h2.268v-18.746h-4.04l-1.848 2.244h3.617v16.5zm8.026 0h2.9l6.865-8.105a7.2 7.2 0 0 0 2.112-4.779 6.352 6.352 0 0 0-12.7.079 6.057 6.057 0 0 0 5.862 6.02 3.348 3.348 0 0 0 .739-.053zm1.5-12.832a4.027 4.027 0 1 1 4.013 4.04 3.984 3.984 0 0 1-4.012-4.04zm26.428 7.208a5.24 5.24 0 0 0-2.931-4.911 4.388 4.388 0 0 0 1.9-3.7c0-2.8-2.165-4.832-5.254-4.832-3.011 0-5.281 2.033-5.281 4.832a4.368 4.368 0 0 0 1.954 3.7 5.24 5.24 0 0 0-2.984 4.911c0 3.406 2.64 5.888 6.311 5.888 3.724 0 6.286-2.482 6.286-5.888zm-9.321-8.554a2.791 2.791 0 0 1 3.037-2.746 2.739 2.739 0 0 1 3.01 2.746 2.8 2.8 0 0 1-3.01 2.772 2.857 2.857 0 0 1-3.036-2.772zm-.977 8.554a3.722 3.722 0 0 1 4.014-3.749 3.744 3.744 0 1 1 0 7.472 3.731 3.731 0 0 1-4.013-3.723zm16.632 5.624h2.271v-18.746h-4.04l-1.848 2.244h3.617v16.5zm-246.4 52.8h2.18v-14.932h5.305v-2.112H39.412v2.112h5.305v14.931zm10.871 0h2.064v-5.953c0-2.809 1.536-4.393 3.481-4.393 1.68 0 2.833 1.248 2.833 3.265v7.081h2.04v-7.39c0-2.977-1.848-4.849-4.537-4.849a4.245 4.245 0 0 0-3.817 2.088v-7.849h-2.067v18zm14.4-6a6.328 6.328 0 0 0 11.618 3.384l-1.632-1.128a4.249 4.249 0 0 1-7.9-1.848h9.842a5.856 5.856 0 0 0 .024-.624c-.024-3.841-2.569-6.025-5.713-6.025a6.082 6.082 0 0 0-6.242 6.239zm6.169-4.417a3.591 3.591 0 0 1 3.673 3.145H72.22a3.924 3.924 0 0 1 3.937-3.147zm17.66 10.416h2.065v-10.106h3.481v-1.9h-3.481v-2.209c0-1.512.672-2.04 1.992-2.04a4.835 4.835 0 0 1 1.488.24v-1.824a5.456 5.456 0 0 0-1.872-.312 3.428 3.428 0 0 0-3.673 3.72v2.425h-2.544v1.9h2.544v10.106zm10.3-16.683a1.449 1.449 0 0 0-1.44-1.464 1.491 1.491 0 0 0-1.488 1.464 1.475 1.475 0 0 0 1.488 1.464 1.434 1.434 0 0 0 1.438-1.464zm-2.5 16.683h2.064v-12h-2.064v12zm7.15 0h2.064v-5.953c0-2.809 1.656-4.129 3.169-4.129a3.017 3.017 0 0 1 1.128.192v-2.136a4.276 4.276 0 0 0-.936-.1 3.57 3.57 0 0 0-3.361 2.448v-2.328h-2.064v12zm17.545-3.337c0-1.8-1.128-2.952-3.168-3.624l-1.3-.432c-1.417-.457-1.849-.913-1.849-1.681 0-.888.888-1.392 2.017-1.392a3.242 3.242 0 0 1 2.544 1.248l1.344-1.3a4.654 4.654 0 0 0-3.84-1.728c-2.377 0-4.057 1.32-4.057 3.264 0 1.681 1.032 2.857 2.976 3.481l1.177.384c1.56.5 2.136 1.08 2.136 1.92 0 1.033-.936 1.633-2.112 1.633a3.22 3.22 0 0 1-3.073-1.9l-1.68.912a4.766 4.766 0 0 0 4.7 2.785c2.435.007 4.187-1.217 4.187-3.57zm10.512 3.169v-1.848a4.562 4.562 0 0 1-1.464.24c-1.3 0-1.993-.5-1.993-2.041v-6.289h3.457v-1.9h-3.457v-3.333h-2.064v3.337h-2.545v1.9h2.545v6.553a3.378 3.378 0 0 0 3.673 3.673 5.743 5.743 0 0 0 1.85-.292zm11.206.168h6.1c3.456 0 5.713-2.136 5.713-4.969a4.061 4.061 0 0 0-2.953-4.081 3.861 3.861 0 0 0 1.825-3.48c0-2.4-1.921-4.513-5.089-4.513h-5.594v17.043zm2.233-9.722v-5.305h3.361a2.679 2.679 0 0 1 2.9 2.665 2.623 2.623 0 0 1-2.9 2.64h-3.361zm0 7.706v-5.786h3.985c2.256 0 3.408 1.249 3.408 2.905 0 1.68-1.152 2.881-3.432 2.881h-3.961zm12.815-3.985a6.006 6.006 0 0 0 5.881 6.241 5.263 5.263 0 0 0 4.225-2.088v1.848h2.065v-12h-2.065v1.848a5.263 5.263 0 0 0-4.225-2.088 6.006 6.006 0 0 0-5.879 6.239zm10.274 0a4.1 4.1 0 1 1-4.081-4.345 4.1 4.1 0 0 1 4.083 4.345zm6.982 6h2.063v-5.953c0-2.809 1.537-4.393 3.481-4.393 1.681 0 2.833 1.248 2.833 3.265v7.081h2.04V187.9c0-2.977-1.848-4.849-4.537-4.849a4.246 4.246 0 0 0-3.817 2.088v-1.848h-2.064v12zm14.4-6a6.006 6.006 0 0 0 5.881 6.241 5.264 5.264 0 0 0 4.225-2.088v1.848h2.064v-12h-2.064v1.848a5.264 5.264 0 0 0-4.225-2.088 6.005 6.005 0 0 0-5.879 6.239zm10.274 0a4.1 4.1 0 1 1-4.081-4.345 4.1 4.1 0 0 1 4.083 4.345zm6.982 6h2.064v-5.953c0-2.809 1.536-4.393 3.481-4.393 1.68 0 2.832 1.248 2.832 3.265v7.081h2.041V187.9c0-2.977-1.849-4.849-4.537-4.849a4.244 4.244 0 0 0-3.817 2.088v-1.848H212v12zm14.4-6a6.006 6.006 0 0 0 5.881 6.241 5.263 5.263 0 0 0 4.225-2.088v1.848h2.065v-12H236.5v1.848a5.263 5.263 0 0 0-4.225-2.088 6.006 6.006 0 0 0-5.881 6.239zm10.274 0a4.1 4.1 0 1 1-4.081-4.345 4.1 4.1 0 0 1 4.082 4.345zm14.35 6h2.232v-7.754h1.657l6.553 7.754h2.809l-6.554-7.778c2.617-.384 4.2-2.064 4.2-4.56 0-2.809-1.944-4.7-5.089-4.7h-5.809v17.043zm2.232-9.746v-5.232h3.313c1.944 0 3.121.912 3.121 2.641 0 1.7-1.177 2.592-3.121 2.592h-3.312zm12.6 3.745a6.328 6.328 0 0 0 11.619 3.384l-1.632-1.128a4.25 4.25 0 0 1-7.9-1.848h9.842a5.856 5.856 0 0 0 .024-.624c-.024-3.841-2.569-6.025-5.713-6.025a6.082 6.082 0 0 0-6.24 6.242zm6.17-4.417a3.592 3.592 0 0 1 3.673 3.145h-7.61a3.923 3.923 0 0 1 3.937-3.144zm9.91 15.435h2.065v-6.865a5.263 5.263 0 0 0 4.225 2.088 6.252 6.252 0 0 0 0-12.482 5.263 5.263 0 0 0-4.225 2.088v-1.848h-2.065v17.019zm10.059-11.018a4.089 4.089 0 1 1-4.081-4.345 4.1 4.1 0 0 1 4.081 4.346zm6.117 1.368c0 2.977 1.777 4.873 4.417 4.873a4.129 4.129 0 0 0 3.7-2.088v1.848h2.065v-12h-2.065v5.953c0 2.76-1.464 4.393-3.337 4.393-1.656 0-2.712-1.273-2.712-3.289v-7.057h-2.065v7.369zm17.329 2.785a5.263 5.263 0 0 0 4.225 2.088 6.252 6.252 0 0 0 0-12.482 5.263 5.263 0 0 0-4.225 2.088v-7.849h-2.065v18h2.065v-1.848zm7.993-4.153a4.089 4.089 0 1 1-4.08-4.345 4.1 4.1 0 0 1 4.08 4.346zm6.262 6h2.064v-18h-2.064v18zm9.672-16.683a1.449 1.449 0 0 0-1.44-1.464 1.491 1.491 0 0 0-1.488 1.464 1.475 1.475 0 0 0 1.488 1.464 1.434 1.434 0 0 0 1.44-1.462zm-2.5 16.683h2.064v-12h-2.064v12zm18.074-2.977l-1.8-1.008a4.071 4.071 0 0 1-3.745 2.305 4.323 4.323 0 0 1 0-8.642 4.07 4.07 0 0 1 3.745 2.3l1.8-1.008a6.216 6.216 0 0 0-5.545-3.216 6.241 6.241 0 1 0 0 12.482 6.215 6.215 0 0 0 5.549-3.211zm21.815 0l-1.8-1.008a4.069 4.069 0 0 1-3.745 2.305 4.323 4.323 0 0 1 0-8.642 4.068 4.068 0 0 1 3.745 2.3l1.8-1.008a6.215 6.215 0 0 0-5.545-3.216 6.241 6.241 0 1 0 0 12.482 6.214 6.214 0 0 0 5.549-3.211zm3.862 2.977h2.064v-5.953c0-2.809 1.537-4.393 3.481-4.393 1.68 0 2.833 1.248 2.833 3.265v7.081h2.04V187.9c0-2.977-1.848-4.849-4.537-4.849a4.245 4.245 0 0 0-3.817 2.088v-7.849h-2.064v18zm17.832-16.683a1.449 1.449 0 0 0-1.44-1.464 1.492 1.492 0 0 0-1.489 1.464 1.476 1.476 0 0 0 1.489 1.464 1.434 1.434 0 0 0 1.444-1.462zm-2.5 16.683h2.064v-12h-2.064v12zm7.175 0h2.065v-5.953c0-2.809 1.536-4.393 3.481-4.393 1.68 0 2.832 1.248 2.832 3.265v7.081h2.041V187.9c0-2.977-1.849-4.849-4.537-4.849a4.244 4.244 0 0 0-3.817 2.088v-1.848h-2.065v12zm26.931-6a6.278 6.278 0 1 0-6.266 6.241 6.159 6.159 0 0 0 6.274-6.24zm-10.443 0a4.168 4.168 0 1 1 4.177 4.321 4.126 4.126 0 0 1-4.169-4.32zm21.648 11.018h2.064v-6.865a5.263 5.263 0 0 0 4.225 2.088 6.252 6.252 0 0 0 0-12.482 5.263 5.263 0 0 0-4.225 2.088v-1.848h-2.064v17.019zm10.058-11.018a4.089 4.089 0 1 1-4.081-4.345 4.1 4.1 0 0 1 4.089 4.346zm5.349 0a6.006 6.006 0 0 0 5.881 6.241 5.263 5.263 0 0 0 4.225-2.088v1.848h2.065v-12h-2.065v1.848a5.263 5.263 0 0 0-4.225-2.088 6.006 6.006 0 0 0-5.873 6.24zm10.274 0a4.1 4.1 0 1 1-4.08-4.345 4.1 4.1 0 0 1 4.088 4.346zm6.982 6h2.065v-5.953c0-2.809 1.536-4.393 3.48-4.393 1.681 0 2.833 1.248 2.833 3.265v7.081h2.04V187.9c0-2.977-1.848-4.849-4.537-4.849a4.243 4.243 0 0 0-3.816 2.088v-1.848h-2.065v12zm21.7-.168v-1.848a4.562 4.562 0 0 1-1.464.24c-1.3 0-1.992-.5-1.992-2.041v-6.289h3.456v-1.9h-3.456v-3.331H490.1v3.337h-2.544v1.9h2.544v6.553a3.379 3.379 0 0 0 3.673 3.673 5.743 5.743 0 0 0 1.85-.292zm20.641.168h1.824l4.081-12h-2.184l-2.9 8.761-3-8.761h-1.58l-3 8.761-2.905-8.761h-2.161l4.081 12h1.825l2.976-8.642zm8.349-6a6.007 6.007 0 0 0 5.882 6.241 5.262 5.262 0 0 0 4.224-2.088v1.848h2.065v-12h-2.065v1.848a5.262 5.262 0 0 0-4.224-2.088 6.006 6.006 0 0 0-5.877 6.24zm10.275 0a4.1 4.1 0 1 1-4.081-4.345 4.1 4.1 0 0 1 4.086 4.346zm14.759 2.664c0-1.8-1.128-2.952-3.169-3.624l-1.3-.432c-1.416-.457-1.848-.913-1.848-1.681 0-.888.888-1.392 2.016-1.392a3.246 3.246 0 0 1 2.545 1.248l1.344-1.3a4.656 4.656 0 0 0-3.841-1.728c-2.376 0-4.057 1.32-4.057 3.264 0 1.681 1.032 2.857 2.977 3.481l1.176.384c1.56.5 2.137 1.08 2.137 1.92 0 1.033-.937 1.633-2.113 1.633a3.221 3.221 0 0 1-3.073-1.9l-1.68.912a4.767 4.767 0 0 0 4.705 2.785c2.439.008 4.186-1.216 4.186-3.569zm11.206 3.337h2.064v-5.953c0-2.713 1.369-4.393 3.313-4.393 1.56 0 2.352 1.344 2.352 3.289v7.057h2.065v-5.953c0-2.713 1.344-4.393 3.289-4.393 1.56 0 2.376 1.344 2.376 3.289v7.057h2.064v-7.368c0-2.929-1.584-4.873-4.2-4.873a4.153 4.153 0 0 0-3.937 2.568 3.773 3.773 0 0 0-3.7-2.568 4.035 4.035 0 0 0-3.625 2.088v-1.848h-2.064v12zm34.034-6a6.278 6.278 0 1 0-6.265 6.241 6.159 6.159 0 0 0 6.27-6.241zm-10.442 0a4.168 4.168 0 1 1 4.177 4.321 4.125 4.125 0 0 1-4.172-4.321zm13.655 0a6.006 6.006 0 0 0 5.881 6.241 5.263 5.263 0 0 0 4.225-2.088v1.848h2.065v-18h-2.065v7.849a5.263 5.263 0 0 0-4.225-2.088 6.006 6.006 0 0 0-5.876 6.238zm10.274 0a4.1 4.1 0 1 1-4.081-4.345 4.1 4.1 0 0 1 4.086 4.345zm6.046 0a6.327 6.327 0 0 0 11.618 3.384l-1.632-1.128a4.25 4.25 0 0 1-7.9-1.848h9.842a5.856 5.856 0 0 0 .024-.624c-.024-3.841-2.568-6.025-5.713-6.025a6.081 6.081 0 0 0-6.234 6.241zm6.169-4.417a3.591 3.591 0 0 1 3.673 3.145h-7.61a3.924 3.924 0 0 1 3.942-3.145zm9.911 10.418h2.064v-18H630.5v18zm6.24-6a6.327 6.327 0 0 0 11.618 3.384l-1.632-1.128a4.25 4.25 0 0 1-7.9-1.848h9.842a5.856 5.856 0 0 0 .024-.624c-.024-3.841-2.568-6.025-5.713-6.025a6.081 6.081 0 0 0-6.234 6.24zm6.169-4.417a3.591 3.591 0 0 1 3.673 3.145h-7.61a3.923 3.923 0 0 1 3.942-3.146zm8.974 4.417a6.007 6.007 0 0 0 5.882 6.241 5.266 5.266 0 0 0 4.225-2.088v1.848h2.064v-18h-2.059v7.849a5.266 5.266 0 0 0-4.225-2.088 6.006 6.006 0 0 0-5.882 6.237zm10.275 0a4.1 4.1 0 1 1-4.081-4.345 4.1 4.1 0 0 1 4.086 4.344zm-622.146 28.8a6.006 6.006 0 0 0 5.881 6.241 5.264 5.264 0 0 0 4.225-2.088v1.848h2.064v-12h-2.059v1.848a5.264 5.264 0 0 0-4.225-2.088 6.006 6.006 0 0 0-5.881 6.237zm10.274 0a4.1 4.1 0 1 1-4.081-4.345 4.1 4.1 0 0 1 4.086 4.343zm7.99 6h2.064v-10.107h3.169v-1.9h-3.163v-2.208c0-1.513.672-2.041 1.992-2.041a4.835 4.835 0 0 1 1.488.24v-1.824a5.457 5.457 0 0 0-1.872-.312 3.378 3.378 0 0 0-3.673 3.672v2.473h-2.544v1.9h2.545v10.106zm14.379-.168v-1.848a4.717 4.717 0 0 1-1.488.24c-1.3 0-1.992-.5-1.992-2.041v-6.289h3.481v-1.9h-3.476v-3.337H67.11v3.337h-2.256v1.9h2.256v6.554a3.4 3.4 0 0 0 3.7 3.672 5.976 5.976 0 0 0 1.845-.289zm2.733-5.833a6.328 6.328 0 0 0 11.618 3.385l-1.632-1.129a4.249 4.249 0 0 1-7.9-1.848h9.842a5.856 5.856 0 0 0 .024-.624c-.024-3.841-2.568-6.025-5.713-6.025a6.082 6.082 0 0 0-6.234 6.24zm6.169-4.417a3.591 3.591 0 0 1 3.673 3.145H77.62a3.924 3.924 0 0 1 3.937-3.146zm9.911 10.418h2.064v-5.953c0-2.808 1.656-4.129 3.169-4.129a3.018 3.018 0 0 1 1.128.192v-2.136a4.279 4.279 0 0 0-.936-.1 3.571 3.571 0 0 0-3.361 2.448v-2.328h-2.059v12zm22.537-.168v-1.848a4.562 4.562 0 0 1-1.464.24c-1.3 0-1.993-.5-1.993-2.041v-6.289H114v-1.9h-3.457v-3.337h-2.064v3.337h-2.545v1.9h2.545v6.554a3.378 3.378 0 0 0 3.673 3.672 5.743 5.743 0 0 0 1.853-.289zm3.839.168h2.064v-5.953c0-2.808 1.536-4.393 3.481-4.393 1.68 0 2.832 1.248 2.832 3.265v7.081h2.041V216.7c0-2.977-1.849-4.849-4.537-4.849a4.245 4.245 0 0 0-3.817 2.088v-7.849h-2.064v18zm14.4-6a6.328 6.328 0 0 0 11.619 3.385l-1.633-1.129a4.249 4.249 0 0 1-7.9-1.848h9.842a5.856 5.856 0 0 0 .024-.624c-.024-3.841-2.569-6.025-5.713-6.025a6.082 6.082 0 0 0-6.235 6.239zm6.17-4.417a3.59 3.59 0 0 1 3.672 3.145h-7.609a3.923 3.923 0 0 1 3.941-3.147zm30.409 3.793v-10.42h-2.233v10.466c0 3.049-1.776 4.753-4.441 4.753s-4.441-1.7-4.441-4.753v-10.466h-2.232v10.418c0 4.249 2.737 6.913 6.673 6.913s6.678-2.664 6.678-6.913zm7.414 5.017a1.777 1.777 0 1 0-1.777 1.8 1.808 1.808 0 0 0 1.781-1.802zm3.311-1.176c.888 1.752 3.169 3.072 5.977 3.072 3.169 0 5.425-1.824 5.425-4.729 0-2.52-1.44-3.96-3.96-4.921l-2.065-.792c-1.728-.648-2.568-1.3-2.568-2.736 0-1.416 1.392-2.353 3.072-2.353a4.215 4.215 0 0 1 3.385 1.681l1.632-1.441a6.216 6.216 0 0 0-4.969-2.328c-3.048 0-5.329 1.752-5.329 4.537 0 2.328 1.2 3.72 3.865 4.7l2.256.864c1.585.6 2.449 1.512 2.449 2.88 0 1.585-1.392 2.545-3.145 2.545a4.763 4.763 0 0 1-4.225-2.329zm18.432 1.176a1.776 1.776 0 1 0-1.776 1.8 1.808 1.808 0 0 0 1.78-1.802zm8.855 1.608h2.305l2.184-4.969h7.946l2.185 4.969h2.328l-7.562-17.043h-1.848zm5.354-6.985l3.1-7.033 3.1 7.033h-6.193zm14.879 6.985h2.064v-5.953c0-2.808 1.656-4.129 3.169-4.129a3.017 3.017 0 0 1 1.128.192v-2.136a4.276 4.276 0 0 0-.936-.1 3.57 3.57 0 0 0-3.361 2.448v-2.328h-2.064v12zm9.983 0h2.065v-5.953c0-2.712 1.368-4.393 3.313-4.393 1.56 0 2.352 1.345 2.352 3.289v7.057h2.065v-5.953c0-2.712 1.344-4.393 3.288-4.393 1.561 0 2.377 1.345 2.377 3.289v7.057h2.064v-7.369c0-2.929-1.584-4.873-4.2-4.873a4.155 4.155 0 0 0-3.937 2.568 3.772 3.772 0 0 0-3.7-2.568 4.034 4.034 0 0 0-3.625 2.088v-1.848h-2.058v12zm25.393 5.017l7.874-17.019h-2.305l-4.105 9.1-4.128-9.1H257.5l5.257 11.378-2.616 5.641h2.3zm17.5-9.65c0 2.977 1.777 4.873 4.417 4.873a4.129 4.129 0 0 0 3.7-2.088v1.848h2.065v-12h-2.065v5.953c0 2.761-1.464 4.393-3.337 4.393-1.656 0-2.712-1.272-2.712-3.289v-7.057h-2.065v7.369zm15.264 4.633h2.065v-5.953c0-2.808 1.536-4.393 3.48-4.393 1.681 0 2.833 1.248 2.833 3.265v7.081h2.04v-7.39c0-2.977-1.848-4.849-4.536-4.849a4.244 4.244 0 0 0-3.817 2.088v-1.848H295.2v12zm17.833-16.683a1.45 1.45 0 0 0-1.441-1.464 1.491 1.491 0 0 0-1.488 1.464 1.475 1.475 0 0 0 1.488 1.464 1.435 1.435 0 0 0 1.44-1.466zm-2.5 16.683h2.064v-12h-2.064v12zm8.184 0h2.064v-10.108h3.481v-1.9h-3.481v-2.208c0-1.513.673-2.041 1.993-2.041a4.833 4.833 0 0 1 1.488.24v-1.824a5.454 5.454 0 0 0-1.872-.312 3.427 3.427 0 0 0-3.673 3.72v2.425h-2.545v1.9h2.545v10.106zm20.282-6a6.277 6.277 0 1 0-6.265 6.241 6.159 6.159 0 0 0 6.263-6.244zm-10.442 0a4.168 4.168 0 1 1 4.177 4.321 4.126 4.126 0 0 1-4.175-4.324zm14.592 6h2.064v-5.953c0-2.808 1.656-4.129 3.169-4.129a3.017 3.017 0 0 1 1.128.192v-2.136a4.276 4.276 0 0 0-.936-.1 3.571 3.571 0 0 0-3.361 2.448v-2.328h-2.064v12zm9.984 0h2.064v-5.953c0-2.712 1.368-4.393 3.313-4.393 1.56 0 2.352 1.345 2.352 3.289v7.057h2.065v-5.953c0-2.712 1.344-4.393 3.288-4.393 1.561 0 2.377 1.345 2.377 3.289v7.057h2.064v-7.369c0-2.929-1.584-4.873-4.2-4.873a4.153 4.153 0 0 0-3.936 2.568 3.774 3.774 0 0 0-3.7-2.568 4.034 4.034 0 0 0-3.625 2.088v-1.848h-2.064v12zm25.3-1.608a1.777 1.777 0 1 0-1.776 1.8 1.808 1.808 0 0 0 1.774-1.802zm14.424 1.608h2.185v-14.933h5.305v-2.112h-12.8v2.112h5.305v14.931zm20.546-6a6.278 6.278 0 1 0-6.266 6.241 6.159 6.159 0 0 0 6.26-6.244zm-10.442 0a4.167 4.167 0 1 1 4.176 4.321 4.125 4.125 0 0 1-4.178-4.324zm13.655 0a6.005 6.005 0 0 0 5.881 6.241 5.264 5.264 0 0 0 4.225-2.088v1.848h2.064v-18h-2.064v7.849a5.264 5.264 0 0 0-4.225-2.088 6.005 6.005 0 0 0-5.883 6.235zm10.274 0a4.1 4.1 0 1 1-4.081-4.345 4.1 4.1 0 0 1 4.079 4.342zm6.046 0a6.005 6.005 0 0 0 5.881 6.241 5.264 5.264 0 0 0 4.225-2.088v1.848h2.064v-12h-2.064v1.848a5.264 5.264 0 0 0-4.225-2.088 6.005 6.005 0 0 0-5.883 6.236zm10.274 0a4.1 4.1 0 1 1-4.081-4.345 4.1 4.1 0 0 1 4.079 4.342zm10.174 11.018l7.874-17.019h-2.305l-4.105 9.1-4.128-9.1h-2.283l5.257 11.378-2.616 5.641h2.3zm12.528-5.545a2.052 2.052 0 0 0 .336-1.08 1.777 1.777 0 1 0-3.553 0 1.785 1.785 0 0 0 .985 1.608l-1.609 3.433h1.369zm23.426-5.473a6.278 6.278 0 1 0-6.266 6.241 6.159 6.159 0 0 0 6.264-6.244zm-10.443 0a4.168 4.168 0 1 1 4.177 4.321 4.126 4.126 0 0 1-4.175-4.324zm14.424 1.368c0 2.977 1.776 4.873 4.417 4.873a4.131 4.131 0 0 0 3.7-2.088v1.848h2.061v-12h-2.064v5.953c0 2.761-1.465 4.393-3.337 4.393-1.657 0-2.713-1.272-2.713-3.289v-7.057h-2.066v7.369zm15.264 4.633h2.064v-5.953c0-2.808 1.656-4.129 3.169-4.129a3.017 3.017 0 0 1 1.128.192v-2.136a4.276 4.276 0 0 0-.936-.1 3.571 3.571 0 0 0-3.361 2.448v-2.328h-2.064v12zm16.44 0h2.064v-5.953c0-2.808 1.536-4.393 3.481-4.393 1.68 0 2.832 1.248 2.832 3.265v7.081h2.041V216.7c0-2.977-1.849-4.849-4.537-4.849a4.244 4.244 0 0 0-3.817 2.088v-1.848h-2.064v12zm14.4-6a6.328 6.328 0 0 0 11.619 3.385l-1.633-1.129a4.249 4.249 0 0 1-7.9-1.848h9.842a5.856 5.856 0 0 0 .024-.624c-.024-3.841-2.569-6.025-5.714-6.025a6.082 6.082 0 0 0-6.241 6.237zm6.169-4.417a3.591 3.591 0 0 1 3.673 3.145h-7.61a3.925 3.925 0 0 1 3.934-3.149zm20.065 10.418h1.825l4.081-12h-2.185l-2.9 8.762-3-8.762h-1.584l-3 8.762-2.905-8.762h-2.16l4.081 12h1.824l2.977-8.641zm16.27 0h2.232v-7.753h1.657l6.553 7.753h2.809l-6.554-7.777c2.617-.384 4.2-2.065 4.2-4.561 0-2.809-1.944-4.705-5.089-4.705h-5.809v17.043zm2.232-9.746v-5.233h3.313c1.945 0 3.121.913 3.121 2.641 0 1.7-1.176 2.592-3.121 2.592h-3.313zm12.648 3.745a6.005 6.005 0 0 0 5.881 6.241 5.263 5.263 0 0 0 4.225-2.088v1.848h2.065v-12h-2.065v1.848a5.263 5.263 0 0 0-4.225-2.088 6.005 6.005 0 0 0-5.884 6.235zm10.274 0a4.1 4.1 0 1 1-4.084-4.349 4.1 4.1 0 0 1 4.081 4.345zm6.982 11.018h2.064v-6.869a5.264 5.264 0 0 0 4.225 2.088 6.252 6.252 0 0 0 0-12.482 5.264 5.264 0 0 0-4.225 2.088v-1.848h-2.064v17.019zm10.058-11.018a4.089 4.089 0 1 1-4.081-4.345 4.1 4.1 0 0 1 4.078 4.341zm8.782-10.682a1.449 1.449 0 0 0-1.44-1.464 1.491 1.491 0 0 0-1.488 1.464 1.475 1.475 0 0 0 1.488 1.464 1.434 1.434 0 0 0 1.434-1.468zm-2.5 16.683h2.064v-12h-2.064v12zm6.239-6a6.006 6.006 0 0 0 5.882 6.241 5.266 5.266 0 0 0 4.225-2.088v1.848h2.064v-18h-2.064v7.849a5.266 5.266 0 0 0-4.225-2.088 6.006 6.006 0 0 0-5.881 6.233zm10.275 0a4.1 4.1 0 1 1-4.081-4.345 4.1 4.1 0 0 1 4.082 4.34zM49.638 247.9l6.145-8.258v13.25h2.209v-17.048h-2.017l-6.337 8.5-6.337-8.5H41.26v17.043h2.233v-13.25zm25.153-1.009a6.277 6.277 0 1 0-6.265 6.241 6.16 6.16 0 0 0 6.265-6.246zm-10.442 0a4.168 4.168 0 1 1 4.177 4.321 4.125 4.125 0 0 1-4.178-4.326zm18.073 6h1.728l5.545-12h-2.3l-4.1 9.074-4.1-9.074h-2.3zm9.359-6a6.328 6.328 0 0 0 11.619 3.385l-1.633-1.128a4.25 4.25 0 0 1-7.9-1.849h9.842a5.856 5.856 0 0 0 .024-.624c-.024-3.84-2.569-6.025-5.713-6.025a6.082 6.082 0 0 0-6.24 6.236zm6.169-4.417a3.591 3.591 0 0 1 3.673 3.145h-7.61a3.925 3.925 0 0 1 3.936-3.15zm9.911 10.418h2.065v-5.953c0-2.712 1.368-4.392 3.312-4.392 1.561 0 2.353 1.344 2.353 3.288v7.057h2.064v-5.953c0-2.712 1.345-4.392 3.289-4.392 1.56 0 2.376 1.344 2.376 3.288v7.057h2.065v-7.369c0-2.928-1.584-4.873-4.2-4.873a4.154 4.154 0 0 0-3.937 2.569 3.772 3.772 0 0 0-3.7-2.569 4.032 4.032 0 0 0-3.624 2.089v-1.849h-2.064v12zm21.5-6a6.328 6.328 0 0 0 11.618 3.385l-1.632-1.128a4.25 4.25 0 0 1-7.9-1.849h9.842a5.856 5.856 0 0 0 .024-.624c-.024-3.84-2.568-6.025-5.713-6.025a6.082 6.082 0 0 0-6.236 6.235zm6.169-4.417a3.591 3.591 0 0 1 3.673 3.145H131.6a3.925 3.925 0 0 1 3.933-3.151zm9.911 10.418h2.064v-5.953c0-2.808 1.537-4.392 3.481-4.392 1.68 0 2.833 1.248 2.833 3.264v7.081h2.04V245.5c0-2.976-1.848-4.849-4.537-4.849a4.244 4.244 0 0 0-3.817 2.089v-1.849h-2.064v12zm21.7-.168v-1.848a4.562 4.562 0 0 1-1.464.24c-1.3 0-1.993-.5-1.993-2.04v-6.289h3.457v-1.9h-3.457v-3.336h-2.064v3.336h-2.545v1.9h2.545v6.553a3.378 3.378 0 0 0 3.673 3.672 5.743 5.743 0 0 0 1.848-.294zm10.03-8.353a8.858 8.858 0 0 0 16.348 4.681l-1.873-1.128a6.7 6.7 0 1 1 0-7.106l1.873-1.128a8.858 8.858 0 0 0-16.348 4.675zm19.248 2.52a6.005 6.005 0 0 0 5.881 6.241 5.263 5.263 0 0 0 4.225-2.088v1.848h2.064v-12h-2.064v1.849a5.261 5.261 0 0 0-4.225-2.089 6.006 6.006 0 0 0-5.881 6.233zm10.274 0a4.1 4.1 0 1 1-4.081-4.344 4.1 4.1 0 0 1 4.081 4.338zm6.982 6h2.064v-5.953c0-2.808 1.657-4.128 3.169-4.128a3.017 3.017 0 0 1 1.128.192v-2.137a4.276 4.276 0 0 0-.936-.1 3.571 3.571 0 0 0-3.361 2.449v-2.329h-2.064v12zm20.81-.7v-11.307h-2.064v1.849a5.106 5.106 0 0 0-4.177-2.089 6.114 6.114 0 0 0 0 12.218 5.126 5.126 0 0 0 4.177-2.112v1.368a3.837 3.837 0 0 1-4.009 4.153 5.134 5.134 0 0 1-4.2-2.016l-1.44 1.44a7.125 7.125 0 0 0 5.665 2.448c3.408 0 6.048-1.944 6.048-5.953zm-10.01-5.449a4.059 4.059 0 1 1 4.057 4.2 4 4 0 0 1-4.057-4.201zm26.69.144a6.278 6.278 0 1 0-6.265 6.241 6.16 6.16 0 0 0 6.265-6.242zm-10.442 0a4.168 4.168 0 1 1 4.177 4.321 4.125 4.125 0 0 1-4.177-4.322zm24.144-10.687a1.45 1.45 0 0 0-1.441-1.464 1.465 1.465 0 1 0 0 2.929 1.436 1.436 0 0 0 1.441-1.465zm-2.5 16.683h2.064v-12h-2.061v12zm14.953-3.336c0-1.8-1.128-2.953-3.168-3.625l-1.3-.432c-1.417-.456-1.849-.912-1.849-1.68 0-.888.888-1.393 2.017-1.393a3.243 3.243 0 0 1 2.544 1.249l1.344-1.3a4.654 4.654 0 0 0-3.84-1.728c-2.377 0-4.057 1.32-4.057 3.265 0 1.68 1.032 2.856 2.976 3.48l1.177.384c1.56.5 2.136 1.081 2.136 1.921 0 1.032-.936 1.632-2.112 1.632a3.221 3.221 0 0 1-3.073-1.9l-1.68.912a4.767 4.767 0 0 0 4.7 2.784c2.436.011 4.188-1.216 4.188-3.565zm10.27-2.665a6.006 6.006 0 0 0 5.881 6.241 5.263 5.263 0 0 0 4.225-2.088v1.848h2.065v-12H297.7v1.849a5.261 5.261 0 0 0-4.225-2.089 6.006 6.006 0 0 0-5.882 6.243zm10.274 0a4.1 4.1 0 1 1-4.081-4.344 4.1 4.1 0 0 1 4.084 4.348zm6.982 6h2.064v-5.953c0-2.808 1.657-4.128 3.169-4.128a3.017 3.017 0 0 1 1.128.192v-2.137a4.276 4.276 0 0 0-.936-.1 3.572 3.572 0 0 0-3.361 2.449v-2.329h-2.064v12zm9.984 0h2.07v-5.953c0-2.712 1.369-4.392 3.313-4.392 1.56 0 2.353 1.344 2.353 3.288v7.057h2.064v-5.953c0-2.712 1.344-4.392 3.289-4.392 1.56 0 2.376 1.344 2.376 3.288v7.057h2.065v-7.369c0-2.928-1.585-4.873-4.2-4.873a4.153 4.153 0 0 0-3.937 2.569 3.772 3.772 0 0 0-3.7-2.569 4.035 4.035 0 0 0-3.625 2.089v-1.849h-2.064v12zm21.5-6a6.328 6.328 0 0 0 11.618 3.385l-1.632-1.128a4.25 4.25 0 0 1-7.9-1.849h9.842a5.856 5.856 0 0 0 .024-.624c-.024-3.84-2.568-6.025-5.713-6.025a6.082 6.082 0 0 0-6.232 6.245zm6.169-4.417a3.592 3.592 0 0 1 3.673 3.145h-7.61a3.925 3.925 0 0 1 3.944-3.141zm8.975 4.417a6.005 6.005 0 0 0 5.881 6.241 5.266 5.266 0 0 0 4.225-2.088v1.848h2.064v-18h-2.064v7.85a5.264 5.264 0 0 0-4.225-2.089 6.006 6.006 0 0 0-5.874 6.242zm10.274 0a4.1 4.1 0 1 1-4.081-4.344 4.1 4.1 0 0 1 4.088 4.348zm23.784 6h1.824l4.081-12h-2.185l-2.9 8.762-3-8.762h-1.582l-3 8.762-2.9-8.762h-2.17l4.081 12h1.824l2.977-8.641zm11.83-16.683a1.45 1.45 0 0 0-1.441-1.464 1.465 1.465 0 1 0 0 2.929 1.436 1.436 0 0 0 1.448-1.464zm-2.5 16.683h2.064v-12h-2.064v12zm13.681-.168v-1.848a4.562 4.562 0 0 1-1.464.24c-1.3 0-1.992-.5-1.992-2.04v-6.289h3.456v-1.9H405.1v-3.336h-2.065v3.336h-2.544v1.9h2.544v6.553a3.378 3.378 0 0 0 3.673 3.672 5.743 5.743 0 0 0 1.845-.283zm3.839.168h2.064v-5.953c0-2.808 1.537-4.392 3.481-4.392 1.68 0 2.833 1.248 2.833 3.264v7.081h2.04v-7.393c0-2.976-1.848-4.849-4.537-4.849a4.244 4.244 0 0 0-3.817 2.089v-7.85h-2.064v18zm21.455-6a6.006 6.006 0 0 0 5.881 6.241 5.263 5.263 0 0 0 4.225-2.088v1.848h2.065v-12h-2.065v1.849a5.261 5.261 0 0 0-4.225-2.089 6.006 6.006 0 0 0-5.871 6.243zm10.274 0a4.1 4.1 0 1 1-4.081-4.344 4.1 4.1 0 0 1 4.091 4.348zm6.046 0a6.005 6.005 0 0 0 5.881 6.241 5.264 5.264 0 0 0 4.225-2.088v1.848h2.064v-18h-2.064v7.85a5.262 5.262 0 0 0-4.225-2.089 6.006 6.006 0 0 0-5.871 6.242zm10.274 0a4.1 4.1 0 1 1-4.081-4.344 4.1 4.1 0 0 1 4.091 4.348zm10.727 6h1.742l5.545-12h-2.3l-4.105 9.074-4.1-9.074h-2.305zm9.382-6a6.006 6.006 0 0 0 5.882 6.241 5.266 5.266 0 0 0 4.225-2.088v1.848h2.064v-12h-2.064v1.849a5.264 5.264 0 0 0-4.225-2.089 6.007 6.007 0 0 0-5.872 6.243zm10.275 0a4.1 4.1 0 1 1-4.081-4.344 4.1 4.1 0 0 1 4.091 4.348zm6.981 6h2.065v-5.953c0-2.808 1.536-4.392 3.481-4.392 1.68 0 2.832 1.248 2.832 3.264v7.081h2.041v-7.393c0-2.976-1.849-4.849-4.537-4.849a4.243 4.243 0 0 0-3.817 2.089v-1.849h-2.065v12zm26.234-2.976l-1.8-1.008a4.068 4.068 0 0 1-3.745 2.3 4.322 4.322 0 0 1 0-8.641 4.068 4.068 0 0 1 3.745 2.3l1.8-1.008a6.214 6.214 0 0 0-5.545-3.217 6.241 6.241 0 1 0 0 12.482 6.215 6.215 0 0 0 5.555-3.203zm2.926-3.025a6.328 6.328 0 0 0 11.618 3.385l-1.632-1.128a4.25 4.25 0 0 1-7.9-1.849h9.858a5.856 5.856 0 0 0 .024-.624c-.024-3.84-2.568-6.025-5.713-6.025a6.082 6.082 0 0 0-6.245 6.246zm6.169-4.417a3.592 3.592 0 0 1 3.673 3.145H529.2a3.925 3.925 0 0 1 3.935-3.14zm8.974 4.417a6.006 6.006 0 0 0 5.882 6.241 5.266 5.266 0 0 0 4.225-2.088v1.848h2.064v-18h-2.064v7.85a5.264 5.264 0 0 0-4.225-2.089 6.007 6.007 0 0 0-5.872 6.243zm10.275 0a4.1 4.1 0 1 1-4.081-4.344 4.1 4.1 0 0 1 4.091 4.349zm21.815 2.665c0-1.8-1.128-2.953-3.169-3.625l-1.3-.432c-1.416-.456-1.849-.912-1.849-1.68 0-.888.889-1.393 2.017-1.393a3.243 3.243 0 0 1 2.544 1.249l1.345-1.3a4.656 4.656 0 0 0-3.841-1.728c-2.377 0-4.057 1.32-4.057 3.265 0 1.68 1.032 2.856 2.977 3.48l1.176.384c1.56.5 2.136 1.081 2.136 1.921 0 1.032-.936 1.632-2.112 1.632a3.222 3.222 0 0 1-3.073-1.9l-1.68.912a4.767 4.767 0 0 0 4.705 2.784c2.438.012 4.192-1.215 4.192-3.564zm10.511 3.168v-1.848a4.562 4.562 0 0 1-1.464.24c-1.3 0-1.992-.5-1.992-2.04v-6.289h3.456v-1.9h-3.456v-3.336h-2.065v3.336h-2.544v1.9h2.544v6.553a3.379 3.379 0 0 0 3.673 3.672 5.743 5.743 0 0 0 1.858-.283zm3.839.168h2.064v-5.953c0-2.808 1.657-4.128 3.169-4.128a3.017 3.017 0 0 1 1.128.192v-2.137a4.276 4.276 0 0 0-.936-.1 3.571 3.571 0 0 0-3.361 2.449v-2.329h-2.064v12zm8.616-6a6.328 6.328 0 0 0 11.618 3.385l-1.632-1.128a4.25 4.25 0 0 1-7.9-1.849h9.859a5.856 5.856 0 0 0 .024-.624c-.024-3.84-2.568-6.025-5.713-6.025a6.082 6.082 0 0 0-6.246 6.245zm6.169-4.417a3.591 3.591 0 0 1 3.673 3.145H599.4a3.925 3.925 0 0 1 3.934-3.141zm16.249 10.25v-1.848a4.568 4.568 0 0 1-1.465.24c-1.3 0-1.992-.5-1.992-2.04v-6.289h3.457v-1.9h-3.457v-3.336h-2.065v3.336h-2.544v1.9h2.544v6.553a3.379 3.379 0 0 0 3.673 3.672 5.754 5.754 0 0 0 1.859-.284zm14.569-2.808l-1.8-1.008a4.068 4.068 0 0 1-3.744 2.3 4.322 4.322 0 0 1 0-8.641 4.068 4.068 0 0 1 3.744 2.3l1.8-1.008a6.215 6.215 0 0 0-5.545-3.217 6.241 6.241 0 1 0 0 12.482 6.216 6.216 0 0 0 5.555-3.204zm3.861 2.976h2.065v-5.953c0-2.808 1.536-4.392 3.48-4.392 1.681 0 2.833 1.248 2.833 3.264v7.081h2.04v-7.393c0-2.976-1.848-4.849-4.537-4.849a4.242 4.242 0 0 0-3.816 2.089v-7.85h-2.065v18zM48.726 278.35c0-1.8-1.128-2.952-3.169-3.625l-1.3-.432c-1.416-.456-1.848-.912-1.848-1.68 0-.888.888-1.392 2.017-1.392a3.243 3.243 0 0 1 2.544 1.248l1.344-1.3a4.653 4.653 0 0 0-3.841-1.729c-2.376 0-4.057 1.321-4.057 3.265 0 1.68 1.032 2.857 2.977 3.481l1.176.384c1.56.5 2.136 1.08 2.136 1.92 0 1.032-.936 1.632-2.112 1.632a3.221 3.221 0 0 1-3.073-1.9l-1.68.912a4.767 4.767 0 0 0 4.7 2.785c2.434.008 4.186-1.219 4.186-3.569zm15.745-2.664a6.277 6.277 0 1 0-6.265 6.241 6.16 6.16 0 0 0 6.265-6.241zm-10.442 0a4.168 4.168 0 1 1 4.177 4.32 4.125 4.125 0 0 1-4.178-4.32zM78.316 286.7l7.874-17.02h-2.3l-4.1 9.1-4.129-9.1h-2.29l5.257 11.379-2.616 5.641h2.3zm22.466-11.018a6.277 6.277 0 1 0-6.265 6.241 6.16 6.16 0 0 0 6.265-6.237zm-10.442 0a4.168 4.168 0 1 1 4.177 4.32 4.125 4.125 0 0 1-4.177-4.316zm14.423 1.368c0 2.976 1.777 4.873 4.417 4.873a4.128 4.128 0 0 0 3.7-2.089v1.849h2.065v-12h-2.065v5.954c0 2.76-1.464 4.392-3.337 4.392-1.656 0-2.712-1.272-2.712-3.288v-7.058h-2.065v7.37zm33.218 1.656l-1.8-1.008a4.068 4.068 0 0 1-3.745 2.3 4.322 4.322 0 0 1 0-8.641 4.068 4.068 0 0 1 3.745 2.3l1.8-1.008a6.216 6.216 0 0 0-5.545-3.217 6.242 6.242 0 1 0 0 12.483 6.214 6.214 0 0 0 5.545-3.205zm2.926-3.024a6.006 6.006 0 0 0 5.881 6.241 5.262 5.262 0 0 0 4.225-2.089v1.849h2.064v-12h-2.064v1.849a5.265 5.265 0 0 0-4.225-2.089 6.006 6.006 0 0 0-5.881 6.243zm10.274 0a4.1 4.1 0 1 1-4.081-4.345 4.1 4.1 0 0 1 4.081 4.349zm6.982 6h2.064v-5.953c0-2.809 1.536-4.393 3.481-4.393 1.68 0 2.832 1.248 2.832 3.264v7.082h2.041v-7.394c0-2.976-1.849-4.849-4.537-4.849a4.245 4.245 0 0 0-3.817 2.089v-1.849h-2.064v12zm22.391 0h2.064v-5.953c0-2.713 1.369-4.393 3.313-4.393 1.56 0 2.353 1.344 2.353 3.288v7.058h2.064v-5.953c0-2.713 1.344-4.393 3.289-4.393 1.56 0 2.376 1.344 2.376 3.288v7.058h2.065v-7.37c0-2.928-1.585-4.873-4.2-4.873a4.154 4.154 0 0 0-3.937 2.569 3.773 3.773 0 0 0-3.7-2.569 4.037 4.037 0 0 0-3.625 2.089v-1.849h-2.064v12zm21.5-6a6.006 6.006 0 0 0 5.881 6.241 5.262 5.262 0 0 0 4.225-2.089v1.849h2.064v-12h-2.064v1.849a5.265 5.265 0 0 0-4.225-2.089 6.006 6.006 0 0 0-5.877 6.243zm10.274 0a4.1 4.1 0 1 1-4.081-4.345 4.1 4.1 0 0 1 4.085 4.349zm6.982 6h2.064v-5.953c0-2.809 1.656-4.129 3.169-4.129a3.017 3.017 0 0 1 1.128.192v-2.132a4.276 4.276 0 0 0-.936-.1 3.571 3.571 0 0 0-3.361 2.449v-2.329h-2.064v12zm20.45-2.977l-1.8-1.008a4.069 4.069 0 0 1-3.745 2.3 4.322 4.322 0 0 1 0-8.641 4.069 4.069 0 0 1 3.745 2.3l1.8-1.008a6.217 6.217 0 0 0-5.545-3.217 6.242 6.242 0 1 0 0 12.483 6.215 6.215 0 0 0 5.549-3.204zm3.861 2.977h2.065v-5.953c0-2.809 1.536-4.393 3.481-4.393 1.68 0 2.832 1.248 2.832 3.264v7.082h2.041v-7.394c0-2.976-1.849-4.849-4.537-4.849a4.245 4.245 0 0 0-3.817 2.089v-7.85h-2.065v18zm28.489-.168v-1.844a4.562 4.562 0 0 1-1.464.24c-1.3 0-1.992-.5-1.992-2.04v-6.289h3.456v-1.9h-3.456v-3.336h-2.065v3.336h-2.544v1.9h2.544v6.553a3.379 3.379 0 0 0 3.673 3.673 5.743 5.743 0 0 0 1.852-.288zm15.266-5.833a6.278 6.278 0 1 0-6.266 6.241 6.16 6.16 0 0 0 6.27-6.236zm-10.443 0a4.168 4.168 0 1 1 4.177 4.32 4.126 4.126 0 0 1-4.173-4.315zm27.745 5.833v-1.844a4.562 4.562 0 0 1-1.464.24c-1.3 0-1.993-.5-1.993-2.04v-6.289h3.457v-1.9h-3.457v-3.336h-2.064v3.336h-2.545v1.9h2.545v6.553a3.378 3.378 0 0 0 3.673 3.673 5.743 5.743 0 0 0 1.852-.288zm3.839.168h2.064v-5.953c0-2.809 1.536-4.393 3.481-4.393 1.68 0 2.832 1.248 2.832 3.264v7.082h2.041v-7.394c0-2.976-1.849-4.849-4.537-4.849a4.245 4.245 0 0 0-3.817 2.089v-7.85h-2.064v18zm14.4-6a6.328 6.328 0 0 0 11.619 3.384l-1.633-1.128a4.249 4.249 0 0 1-7.9-1.848h9.842a5.856 5.856 0 0 0 .024-.624c-.024-3.841-2.569-6.026-5.714-6.026a6.083 6.083 0 0 0-6.235 6.246zm6.169-4.417a3.591 3.591 0 0 1 3.673 3.144h-7.609a3.923 3.923 0 0 1 3.939-3.14zm19.031 8.569a5.262 5.262 0 0 0 4.225 2.089 6.253 6.253 0 0 0 0-12.483 5.265 5.265 0 0 0-4.225 2.089v-7.85h-2.064v18h2.064v-1.849zm7.994-4.152a4.089 4.089 0 1 1-4.081-4.345 4.1 4.1 0 0 1 4.084 4.349zm5.325 0a6.328 6.328 0 0 0 11.619 3.384l-1.632-1.128a4.25 4.25 0 0 1-7.9-1.848h9.842a5.856 5.856 0 0 0 .024-.624c-.024-3.841-2.569-6.026-5.713-6.026a6.083 6.083 0 0 0-6.237 6.246zm6.17-4.417a3.59 3.59 0 0 1 3.672 3.144h-7.609a3.923 3.923 0 0 1 3.94-3.14zm8.974 4.417a6.006 6.006 0 0 0 5.881 6.241 5.261 5.261 0 0 0 4.225-2.089v1.849h2.065v-12h-2.065v1.849a5.264 5.264 0 0 0-4.225-2.089 6.007 6.007 0 0 0-5.878 6.243zm10.274 0a4.1 4.1 0 1 1-4.08-4.345 4.1 4.1 0 0 1 4.083 4.349zm13.488 5.833v-1.845a4.568 4.568 0 0 1-1.465.24c-1.3 0-1.992-.5-1.992-2.04v-6.289h3.457v-1.9h-3.457v-3.336h-2.065v3.336h-2.544v1.9h2.544v6.553a3.379 3.379 0 0 0 3.673 3.673 5.754 5.754 0 0 0 1.852-.288zm22.488-5.833a6.277 6.277 0 1 0-6.265 6.241 6.159 6.159 0 0 0 6.268-6.237zm-10.442 0a4.168 4.168 0 1 1 4.177 4.32 4.125 4.125 0 0 1-4.174-4.316zm15.408 6h2.064v-10.101h3.481v-1.9h-3.481v-2.208c0-1.512.672-2.04 1.993-2.04a4.833 4.833 0 0 1 1.488.24v-1.825a5.454 5.454 0 0 0-1.872-.312 3.428 3.428 0 0 0-3.673 3.721v2.424h-2.545v1.9h2.549v10.106zm18.072 5.017l7.874-17.02h-2.302l-4.1 9.1-4.129-9.1h-2.281l5.257 11.379-2.616 5.641h2.3zm22.466-11.018a6.277 6.277 0 1 0-6.265 6.241 6.159 6.159 0 0 0 6.268-6.236zm-10.442 0a4.168 4.168 0 1 1 4.177 4.32 4.125 4.125 0 0 1-4.169-4.315zm14.423 1.368c0 2.976 1.777 4.873 4.417 4.873a4.128 4.128 0 0 0 3.7-2.089v1.849h2.068v-12h-2.065v5.954c0 2.76-1.464 4.392-3.336 4.392-1.657 0-2.713-1.272-2.713-3.288v-7.058h-2.065v7.37zm15.264 4.633h2.065v-5.953c0-2.809 1.656-4.129 3.168-4.129a3.019 3.019 0 0 1 1.129.192v-2.132a4.276 4.276 0 0 0-.936-.1 3.571 3.571 0 0 0-3.361 2.449v-2.329h-2.065v12zm28.035-6a6.278 6.278 0 1 0-6.266 6.241 6.16 6.16 0 0 0 6.269-6.237zm-10.443 0a4.168 4.168 0 1 1 4.177 4.32 4.126 4.126 0 0 1-4.174-4.316zm24.722 6h1.824l4.081-12h-2.184l-2.9 8.762-3-8.762h-1.585l-3 8.762-2.9-8.762h-2.16l4.08 12h1.825l2.976-8.642zm9.334 0h2.064v-5.953c0-2.809 1.536-4.393 3.481-4.393 1.68 0 2.832 1.248 2.832 3.264v7.082h2.041v-7.394c0-2.976-1.849-4.849-4.537-4.849a4.245 4.245 0 0 0-3.817 2.089v-1.849h-2.061v12zm21.455-6a6.006 6.006 0 0 0 5.881 6.241 5.262 5.262 0 0 0 4.225-2.089v1.849h2.064v-18h-2.064v7.85a5.265 5.265 0 0 0-4.225-2.089 6.006 6.006 0 0 0-5.878 6.242zm10.274 0a4.1 4.1 0 1 1-4.081-4.345 4.1 4.1 0 0 1 4.084 4.349zm6.982 6h2.064v-5.953c0-2.809 1.657-4.129 3.169-4.129a3.017 3.017 0 0 1 1.128.192v-2.132a4.276 4.276 0 0 0-.936-.1 3.572 3.572 0 0 0-3.361 2.449v-2.329h-2.064v12zm9.816-4.633c0 2.976 1.776 4.873 4.417 4.873a4.128 4.128 0 0 0 3.7-2.089v1.849h2.065v-12h-2.066v5.954c0 2.76-1.464 4.392-3.336 4.392-1.657 0-2.713-1.272-2.713-3.288v-7.058h-2.064v7.37zm15.264 4.633h2.064v-5.953c0-2.713 1.368-4.393 3.313-4.393 1.56 0 2.352 1.344 2.352 3.288v7.058h2.065v-5.953c0-2.713 1.344-4.393 3.288-4.393 1.561 0 2.377 1.344 2.377 3.288v7.058h2.064v-7.37c0-2.928-1.584-4.873-4.2-4.873a4.154 4.154 0 0 0-3.936 2.569 3.775 3.775 0 0 0-3.7-2.569 4.035 4.035 0 0 0-3.625 2.089v-1.849h-2.064v12zm25.3-1.609a1.777 1.777 0 1 0-1.776 1.8 1.808 1.808 0 0 0 1.775-1.795z"/></svg>