<svg id="copy_copy_2" data-name="copy copy 2" xmlns="http://www.w3.org/2000/svg" width="768" height="442" viewBox="0 0 768 442">
  <defs>
    <style>
      .cls-1 {
        fill: #fff;
      }

      .cls-1, .cls-2 {
        fill-rule: evenodd;
      }
    </style>
  </defs>
  <path id="Rectangle_106_copy_5" data-name="Rectangle 106 copy 5" class="cls-1" d="M0,0H767.831l0.184,442H0.183Z"/>
  <g id="CTA_underline">
    <rect id="Rectangle_4_copy_4" data-name="Rectangle 4 copy 4" x="39" y="348" width="122" height="4"/>
    <path id="Shop_now" data-name="Shop now" class="cls-2" d="M43.817,340.853c2.706,0,4.564-1.653,4.582-4.023,0.018-1.965-1.19-3.214-3.048-3.894l-0.9-.33c-1.353-.5-1.984-0.808-1.984-1.506,0-.68.776-0.992,1.551-0.992a2.831,2.831,0,0,1,2.219,1.083l1.876-2.02a5.3,5.3,0,0,0-4.131-1.8c-2.561,0-4.419,1.488-4.419,4.022,0,1.782,1.154,3.049,3.229,3.766l0.9,0.312c1.281,0.441,1.786.9,1.786,1.561,0,0.625-.6,1.084-1.551,1.084a3.335,3.335,0,0,1-2.652-1.488l-2.2,1.892A5.583,5.583,0,0,0,43.817,340.853Zm9.726-.221H56.41v-5.161h5.159v5.161h2.868V327.591H61.569V332.7H56.41v-5.107H53.542v13.041Zm22.66,0.221a6.742,6.742,0,1,0-6.62-6.741A6.7,6.7,0,0,0,76.2,340.853Zm0-2.829a3.917,3.917,0,1,1,3.716-3.912A3.837,3.837,0,0,1,76.2,338.024Zm20.622-5.969a4.4,4.4,0,0,0-4.51-4.464H87.967v13.041h2.868V336.5h1.479A4.385,4.385,0,0,0,96.824,332.055Zm-2.778,0a1.7,1.7,0,0,1-1.768,1.708H90.835v-3.416h1.443A1.688,1.688,0,0,1,94.046,332.055Zm25.979,8.577V327.591h-2.886v8.045l-6.223-8.045h-2.472v13.041h2.869v-8.063l6.241,8.063h2.471Zm11.765,0.221a6.742,6.742,0,1,0-6.62-6.741A6.7,6.7,0,0,0,131.79,340.853Zm0-2.829a3.917,3.917,0,1,1,3.716-3.912A3.837,3.837,0,0,1,131.79,338.024Zm21.686,2.608H156.2l2.976-13.041h-3.067l-1.749,8.266-3.608-8.486-3.589,8.486-1.75-8.266h-3.067l2.959,13.041h2.723l2.724-6.392Z"/>
  </g>
  <path id="Rapid_Movement_Cargo_Chino_Cotton_twill_b._1981_The_first_Ba" data-name="Rapid Movement  Cargo Chino Cotton twill, b. 1981  The first Ba" class="cls-2" d="M41.884,68.092h6.105V56.842h1l9.062,11.25h7.334L55.745,56.074c3.456-1.229,5.337-3.494,5.337-7.026a8.049,8.049,0,0,0-8.447-8.217H41.884V68.092Zm6.105-16.434V46.437h3.916c1.8,0,3.11.96,3.11,2.611,0,1.574-1.306,2.611-3.11,2.611H47.989ZM66.306,68.092H72.68L75.1,62.333H86.388l2.419,5.759H95.18L83.508,40.831H77.979Zm11.02-11.058,3.417-8.217,3.417,8.217H77.326ZM118.8,50.161a9.284,9.284,0,0,0-9.6-9.33H99.944V68.092h6.105V59.453H109.2A9.253,9.253,0,0,0,118.8,50.161Zm-5.913,0a3.588,3.588,0,0,1-3.763,3.571h-3.072V46.59h3.072A3.566,3.566,0,0,1,112.884,50.161Zm11.751,17.931h6.105V40.831h-6.105V68.092Zm13.785,0h9.292a13.633,13.633,0,1,0,0-27.261H138.42V68.092Zm6.105-5.606V46.437h3.187a7.693,7.693,0,0,1,7.718,8.025,7.693,7.693,0,0,1-7.718,8.025h-3.187Zm47.73-.192,7.948-11.02V68.092h6.144V40.831h-5.568L192.255,52.58l-8.524-11.749h-5.568V68.092h6.1V51.275Zm34.329,6.259a14.091,14.091,0,1,0-14.092-14.091A14.126,14.126,0,0,0,226.584,68.553Zm0-5.913a8.183,8.183,0,1,1,7.91-8.178A8.088,8.088,0,0,1,226.584,62.64Zm27.379,5.452h5.491l11.174-27.261h-6.72L256.69,58.992l-7.257-18.162H242.79Zm21.505,0h17.278V62.256H281.573V57.38h8.87V51.544h-8.87V46.667h11.173V40.831H275.468V68.092Zm37.938-5.8,7.948-11.02V68.092H327.5V40.831H321.93L313.406,52.58l-8.524-11.749h-5.568V68.092h6.1V51.275Zm21.773,5.8h17.279V62.256H341.284V57.38h8.87V51.544h-8.87V46.667h11.174V40.831H335.179V68.092Zm48.5,0V40.831h-6.144V57.649L364.286,40.831h-5.26V68.092h6.1V51.236l13.285,16.856h5.261Zm12.6,0h6.143V46.667h7.027V40.831h-20.12v5.836h6.95V68.092ZM54.44,109.352A14.093,14.093,0,0,0,67.187,101.9l-5.376-2.918a8.179,8.179,0,1,1,0-7.449l5.376-2.918A14.213,14.213,0,1,0,54.44,109.352Zm14.67-.461h6.374l2.419-5.759H89.191l2.419,5.759h6.374L86.311,81.63H80.782Zm11.02-11.058,3.417-8.217,3.417,8.217H80.129Zm22.619,11.058h6.1V97.641h1l9.062,11.25h7.334l-9.638-12.018c3.456-1.229,5.337-3.494,5.337-7.026A8.049,8.049,0,0,0,113.5,81.63H102.748v27.261Zm6.1-16.433V87.236h3.916c1.8,0,3.11.96,3.11,2.611,0,1.574-1.305,2.611-3.11,2.611h-3.916Zm33.561,16.894c4.416,0,8.754-1.306,11.174-4.032V92.381H142.3V98.1h5.337v4.031c-1.152.922-3.149,1.306-5.3,1.306-5.337,0-8.6-3.532-8.6-8.178a8,8,0,0,1,8.217-8.178A9.054,9.054,0,0,1,148.826,90l4.3-4.185a14.506,14.506,0,0,0-11.174-4.646,13.925,13.925,0,0,0-14.36,14.091C127.593,103.247,133.928,109.352,142.414,109.352Zm30.451,0a14.091,14.091,0,1,0-14.092-14.092A14.125,14.125,0,0,0,172.865,109.352Zm0-5.913a8.183,8.183,0,1,1,7.909-8.178A8.089,8.089,0,0,1,172.865,103.439Zm43.16,5.913a14.092,14.092,0,0,0,12.748-7.449L223.4,98.985a8.179,8.179,0,1,1,0-7.449l5.376-2.918A14.213,14.213,0,1,0,216.025,109.352Zm18.241-.461h6.105V98.1h10.982v10.789h6.105V81.63h-6.105V92.3H240.371V81.63h-6.105v27.261Zm30.874,0h6.105V81.63H265.14v27.261Zm38.436,0V81.63h-6.144V98.447L284.185,81.63h-5.26v27.261h6.1V92.035l13.285,16.856h5.261Zm20.237,0.461a14.091,14.091,0,1,0-14.092-14.092A14.126,14.126,0,0,0,323.813,109.352Zm0-5.913a8.183,8.183,0,1,1,7.91-8.178A8.088,8.088,0,0,1,323.813,103.439ZM40.192,133.117a9.743,9.743,0,0,0,17.981,5.149l-2.059-1.241a7.367,7.367,0,1,1,0-7.815l2.06-1.241A9.743,9.743,0,0,0,40.192,133.117Zm34.955,2.773a6.9,6.9,0,1,0-6.891,6.864A6.774,6.774,0,0,0,75.147,135.89Zm-11.486,0a4.584,4.584,0,1,1,4.594,4.752A4.538,4.538,0,0,1,63.662,135.89Zm32.21,6.415v-2.033a5,5,0,0,1-1.611.264c-1.426,0-2.192-.554-2.192-2.244v-6.917h3.8v-2.086h-3.8v-3.67H89.8v3.67H87.528v2.086H89.8v7.208a3.716,3.716,0,0,0,4.04,4.039A6.313,6.313,0,0,0,95.872,142.305Zm-9.241,0v-2.033a5,5,0,0,1-1.611.264c-1.426,0-2.192-.554-2.192-2.244v-6.917H86.05v-2.086H82.828v-3.67H80.558v3.67h-2.8v2.086h2.8v7.208a3.716,3.716,0,0,0,4.04,4.039A6.313,6.313,0,0,0,86.631,142.305Zm26.032-6.415a6.9,6.9,0,1,0-6.892,6.864A6.775,6.775,0,0,0,112.662,135.89Zm-11.486,0a4.584,4.584,0,1,1,4.594,4.752A4.537,4.537,0,0,1,101.176,135.89Zm16.051,6.6h2.27v-6.548c0-3.089,1.69-4.831,3.829-4.831,1.848,0,3.116,1.373,3.116,3.59v7.789h2.244v-8.132c0-3.274-2.033-5.333-4.99-5.333a4.669,4.669,0,0,0-4.2,2.3v-2.033h-2.27v13.2Zm31.337-.185v-2.033a5,5,0,0,1-1.611.264c-1.425,0-2.191-.554-2.191-2.244v-6.917h3.8v-2.086h-3.8v-3.67h-2.271v3.67h-2.8v2.086h2.8v7.208a3.716,3.716,0,0,0,4.04,4.039A6.317,6.317,0,0,0,148.564,142.305Zm15.418,0.185h2.007l4.488-13.2h-2.4l-3.195,9.637-3.3-9.637h-1.742l-3.3,9.637-3.195-9.637h-2.376l4.489,13.2h2.006l3.274-9.5ZM177,124.14a1.6,1.6,0,0,0-1.585-1.61,1.64,1.64,0,0,0-1.637,1.61,1.623,1.623,0,0,0,1.637,1.611A1.579,1.579,0,0,0,177,124.14Zm-2.746,18.35h2.27v-13.2h-2.27v13.2Zm7.893,0h2.271v-19.8h-2.271v19.8Zm7.893,0h2.271v-19.8h-2.271v19.8Zm10.719-.581a2.258,2.258,0,0,0,.37-1.188,1.954,1.954,0,1,0-3.908,0,1.965,1.965,0,0,0,1.083,1.769l-1.769,3.776h1.5Zm15.285-1.452a5.789,5.789,0,0,0,4.647,2.3,6.877,6.877,0,0,0,0-13.729,5.789,5.789,0,0,0-4.647,2.3v-8.634h-2.27v19.8h2.27v-2.033Zm8.793-4.567a4.5,4.5,0,1,1-4.489-4.779A4.508,4.508,0,0,1,224.833,135.89Zm9.766,4.831a1.954,1.954,0,1,0-1.953,1.981A1.989,1.989,0,0,0,234.6,140.721Zm14.229,1.769H251.1V123.744h-4.04l-1.848,2.244h3.617v16.5Zm8.026,0h2.9l6.865-8.105a7.2,7.2,0,0,0,2.112-4.779,6.352,6.352,0,0,0-12.7.079,6.057,6.057,0,0,0,5.862,6.02,3.348,3.348,0,0,0,.739-0.053Zm1.5-12.832a4.027,4.027,0,1,1,4.013,4.04A3.984,3.984,0,0,1,258.359,129.658Zm26.428,7.208a5.24,5.24,0,0,0-2.931-4.911,4.388,4.388,0,0,0,1.9-3.7c0-2.8-2.165-4.832-5.254-4.832-3.011,0-5.281,2.033-5.281,4.832a4.368,4.368,0,0,0,1.954,3.7,5.24,5.24,0,0,0-2.984,4.911c0,3.406,2.64,5.888,6.311,5.888C282.225,142.754,284.787,140.272,284.787,136.866Zm-9.321-8.554a2.791,2.791,0,0,1,3.037-2.746,2.739,2.739,0,0,1,3.01,2.746,2.8,2.8,0,0,1-3.01,2.772A2.857,2.857,0,0,1,275.466,128.312Zm-0.977,8.554a3.722,3.722,0,0,1,4.014-3.749,3.744,3.744,0,1,1,0,7.472A3.731,3.731,0,0,1,274.489,136.866Zm16.632,5.624h2.271V123.744h-4.04l-1.848,2.244h3.617v16.5Zm-246.4,52.8H46.9V180.358h5.305v-2.112H39.412v2.112h5.305v14.931Zm10.871,0h2.064v-5.953c0-2.809,1.536-4.393,3.481-4.393,1.68,0,2.833,1.248,2.833,3.265v7.081h2.04V187.9c0-2.977-1.848-4.849-4.537-4.849a4.245,4.245,0,0,0-3.817,2.088v-7.849H55.588v18Zm14.4-6a6.328,6.328,0,0,0,11.618,3.384l-1.632-1.128a4.249,4.249,0,0,1-7.9-1.848h9.842a5.856,5.856,0,0,0,.024-0.624c-0.024-3.841-2.569-6.025-5.713-6.025A6.082,6.082,0,0,0,69.988,189.288Zm6.169-4.417a3.591,3.591,0,0,1,3.673,3.145H72.22A3.924,3.924,0,0,1,76.157,184.871ZM93.82,195.289h2.065V185.183h3.481v-1.9H95.885v-2.209c0-1.512.672-2.04,1.992-2.04a4.835,4.835,0,0,1,1.488.24v-1.824a5.456,5.456,0,0,0-1.872-.312,3.428,3.428,0,0,0-3.673,3.72v2.425H91.276v1.9H93.82v10.106Zm10.3-16.683a1.449,1.449,0,0,0-1.44-1.464,1.491,1.491,0,0,0-1.488,1.464,1.475,1.475,0,0,0,1.488,1.464A1.434,1.434,0,0,0,104.118,178.606Zm-2.5,16.683h2.064v-12h-2.064v12Zm7.15,0h2.064v-5.953c0-2.809,1.656-4.129,3.169-4.129a3.017,3.017,0,0,1,1.128.192v-2.136a4.276,4.276,0,0,0-.936-0.1,3.57,3.57,0,0,0-3.361,2.448v-2.328h-2.064v12Zm17.545-3.337c0-1.8-1.128-2.952-3.168-3.624l-1.3-.432c-1.417-.457-1.849-0.913-1.849-1.681,0-.888.888-1.392,2.017-1.392a3.242,3.242,0,0,1,2.544,1.248l1.344-1.3a4.654,4.654,0,0,0-3.84-1.728c-2.377,0-4.057,1.32-4.057,3.264,0,1.681,1.032,2.857,2.976,3.481l1.177,0.384c1.56,0.5,2.136,1.08,2.136,1.92,0,1.033-.936,1.633-2.112,1.633a3.22,3.22,0,0,1-3.073-1.9l-1.68.912a4.766,4.766,0,0,0,4.7,2.785C124.565,195.529,126.317,194.305,126.317,191.952Zm10.512,3.169v-1.848a4.562,4.562,0,0,1-1.464.24c-1.3,0-1.993-.5-1.993-2.041v-6.289h3.457v-1.9h-3.457V179.95h-2.064v3.337h-2.545v1.9h2.545v6.553a3.378,3.378,0,0,0,3.673,3.673A5.743,5.743,0,0,0,136.829,195.121Zm11.206,0.168h6.1c3.456,0,5.713-2.136,5.713-4.969a4.061,4.061,0,0,0-2.953-4.081,3.861,3.861,0,0,0,1.825-3.48c0-2.4-1.921-4.513-5.089-4.513h-5.594v17.043Zm2.233-9.722v-5.305h3.361a2.679,2.679,0,0,1,2.9,2.665,2.623,2.623,0,0,1-2.9,2.64h-3.361Zm0,7.706v-5.786h3.985c2.256,0,3.408,1.249,3.408,2.905,0,1.68-1.152,2.881-3.432,2.881h-3.961Zm12.815-3.985a6.006,6.006,0,0,0,5.881,6.241,5.263,5.263,0,0,0,4.225-2.088v1.848h2.065v-12h-2.065v1.848a5.263,5.263,0,0,0-4.225-2.088A6.006,6.006,0,0,0,163.083,189.288Zm10.274,0a4.1,4.1,0,1,1-4.081-4.345A4.1,4.1,0,0,1,173.357,189.288Zm6.982,6H182.4v-5.953c0-2.809,1.537-4.393,3.481-4.393,1.681,0,2.833,1.248,2.833,3.265v7.081h2.04V187.9c0-2.977-1.848-4.849-4.537-4.849a4.246,4.246,0,0,0-3.817,2.088v-1.848h-2.064v12Zm14.4-6a6.006,6.006,0,0,0,5.881,6.241,5.264,5.264,0,0,0,4.225-2.088v1.848h2.064v-12h-2.064v1.848a5.264,5.264,0,0,0-4.225-2.088A6.005,6.005,0,0,0,194.739,189.288Zm10.274,0a4.1,4.1,0,1,1-4.081-4.345A4.1,4.1,0,0,1,205.013,189.288Zm6.982,6h2.064v-5.953c0-2.809,1.536-4.393,3.481-4.393,1.68,0,2.832,1.248,2.832,3.265v7.081h2.041V187.9c0-2.977-1.849-4.849-4.537-4.849a4.244,4.244,0,0,0-3.817,2.088v-1.848H212v12Zm14.4-6a6.006,6.006,0,0,0,5.881,6.241,5.263,5.263,0,0,0,4.225-2.088v1.848h2.065v-12H236.5v1.848a5.263,5.263,0,0,0-4.225-2.088A6.006,6.006,0,0,0,226.394,189.288Zm10.274,0a4.1,4.1,0,1,1-4.081-4.345A4.1,4.1,0,0,1,236.668,189.288Zm14.35,6h2.232v-7.754h1.657l6.553,7.754h2.809l-6.554-7.778c2.617-.384,4.2-2.064,4.2-4.56,0-2.809-1.944-4.7-5.089-4.7h-5.809v17.043Zm2.232-9.746V180.31h3.313c1.944,0,3.121.912,3.121,2.641,0,1.7-1.177,2.592-3.121,2.592H253.25Zm12.6,3.745a6.328,6.328,0,0,0,11.619,3.384l-1.632-1.128a4.25,4.25,0,0,1-7.9-1.848h9.842a5.856,5.856,0,0,0,.024-0.624c-0.024-3.841-2.569-6.025-5.713-6.025A6.082,6.082,0,0,0,265.849,189.288Zm6.17-4.417a3.592,3.592,0,0,1,3.673,3.145h-7.61A3.923,3.923,0,0,1,272.019,184.871Zm9.91,15.435h2.065v-6.865a5.263,5.263,0,0,0,4.225,2.088,6.252,6.252,0,0,0,0-12.482,5.263,5.263,0,0,0-4.225,2.088v-1.848h-2.065v17.019Zm10.059-11.018a4.089,4.089,0,1,1-4.081-4.345A4.1,4.1,0,0,1,291.988,189.288Zm6.117,1.368c0,2.977,1.777,4.873,4.417,4.873a4.129,4.129,0,0,0,3.7-2.088v1.848h2.065v-12h-2.065v5.953c0,2.76-1.464,4.393-3.337,4.393-1.656,0-2.712-1.273-2.712-3.289v-7.057h-2.065v7.369Zm17.329,2.785a5.263,5.263,0,0,0,4.225,2.088,6.252,6.252,0,0,0,0-12.482,5.263,5.263,0,0,0-4.225,2.088v-7.849h-2.065v18h2.065v-1.848Zm7.993-4.153a4.089,4.089,0,1,1-4.08-4.345A4.1,4.1,0,0,1,323.427,189.288Zm6.262,6h2.064v-18h-2.064v18Zm9.672-16.683a1.449,1.449,0,0,0-1.44-1.464,1.491,1.491,0,0,0-1.488,1.464,1.475,1.475,0,0,0,1.488,1.464A1.434,1.434,0,0,0,339.361,178.606Zm-2.5,16.683h2.064v-12h-2.064v12Zm18.074-2.977-1.8-1.008a4.071,4.071,0,0,1-3.745,2.305,4.323,4.323,0,0,1,0-8.642,4.07,4.07,0,0,1,3.745,2.3l1.8-1.008a6.216,6.216,0,0,0-5.545-3.216,6.241,6.241,0,1,0,0,12.482A6.215,6.215,0,0,0,354.939,192.312Zm21.815,0-1.8-1.008a4.069,4.069,0,0,1-3.745,2.305,4.323,4.323,0,0,1,0-8.642,4.068,4.068,0,0,1,3.745,2.3l1.8-1.008a6.215,6.215,0,0,0-5.545-3.216,6.241,6.241,0,1,0,0,12.482A6.214,6.214,0,0,0,376.754,192.312Zm3.862,2.977h2.064v-5.953c0-2.809,1.537-4.393,3.481-4.393,1.68,0,2.833,1.248,2.833,3.265v7.081h2.04V187.9c0-2.977-1.848-4.849-4.537-4.849a4.245,4.245,0,0,0-3.817,2.088v-7.849h-2.064v18Zm17.832-16.683a1.449,1.449,0,0,0-1.44-1.464,1.492,1.492,0,0,0-1.489,1.464,1.476,1.476,0,0,0,1.489,1.464A1.434,1.434,0,0,0,398.448,178.606Zm-2.5,16.683h2.064v-12h-2.064v12Zm7.175,0h2.065v-5.953c0-2.809,1.536-4.393,3.481-4.393,1.68,0,2.832,1.248,2.832,3.265v7.081h2.041V187.9c0-2.977-1.849-4.849-4.537-4.849a4.244,4.244,0,0,0-3.817,2.088v-1.848h-2.065v12Zm26.931-6a6.278,6.278,0,1,0-6.266,6.241A6.159,6.159,0,0,0,430.058,189.288Zm-10.443,0a4.168,4.168,0,1,1,4.177,4.321A4.126,4.126,0,0,1,419.615,189.288Zm21.648,11.018h2.064v-6.865a5.263,5.263,0,0,0,4.225,2.088,6.252,6.252,0,0,0,0-12.482,5.263,5.263,0,0,0-4.225,2.088v-1.848h-2.064v17.019Zm10.058-11.018a4.089,4.089,0,1,1-4.081-4.345A4.1,4.1,0,0,1,451.321,189.288Zm5.349,0a6.006,6.006,0,0,0,5.881,6.241,5.263,5.263,0,0,0,4.225-2.088v1.848h2.065v-12h-2.065v1.848a5.263,5.263,0,0,0-4.225-2.088A6.006,6.006,0,0,0,456.67,189.288Zm10.274,0a4.1,4.1,0,1,1-4.08-4.345A4.1,4.1,0,0,1,466.944,189.288Zm6.982,6h2.065v-5.953c0-2.809,1.536-4.393,3.48-4.393,1.681,0,2.833,1.248,2.833,3.265v7.081h2.04V187.9c0-2.977-1.848-4.849-4.537-4.849a4.243,4.243,0,0,0-3.816,2.088v-1.848h-2.065v12Zm21.7-.168v-1.848a4.562,4.562,0,0,1-1.464.24c-1.3,0-1.992-.5-1.992-2.041v-6.289h3.456v-1.9h-3.456V179.95H490.1v3.337h-2.544v1.9H490.1v6.553a3.379,3.379,0,0,0,3.673,3.673A5.743,5.743,0,0,0,495.623,195.121Zm20.641,0.168h1.824l4.081-12h-2.184l-2.9,8.761-3-8.761H512.5l-3,8.761-2.905-8.761h-2.161l4.081,12h1.825l2.976-8.642Zm8.349-6a6.007,6.007,0,0,0,5.882,6.241,5.262,5.262,0,0,0,4.224-2.088v1.848h2.065v-12h-2.065v1.848a5.262,5.262,0,0,0-4.224-2.088A6.006,6.006,0,0,0,524.613,189.288Zm10.275,0a4.1,4.1,0,1,1-4.081-4.345A4.1,4.1,0,0,1,534.888,189.288Zm14.759,2.664c0-1.8-1.128-2.952-3.169-3.624l-1.3-.432c-1.416-.457-1.848-0.913-1.848-1.681,0-.888.888-1.392,2.016-1.392a3.246,3.246,0,0,1,2.545,1.248l1.344-1.3a4.656,4.656,0,0,0-3.841-1.728c-2.376,0-4.057,1.32-4.057,3.264,0,1.681,1.032,2.857,2.977,3.481l1.176,0.384c1.56,0.5,2.137,1.08,2.137,1.92,0,1.033-.937,1.633-2.113,1.633a3.221,3.221,0,0,1-3.073-1.9l-1.68.912a4.767,4.767,0,0,0,4.705,2.785C547.9,195.529,549.647,194.305,549.647,191.952Zm11.206,3.337h2.064v-5.953c0-2.713,1.369-4.393,3.313-4.393,1.56,0,2.352,1.344,2.352,3.289v7.057h2.065v-5.953c0-2.713,1.344-4.393,3.289-4.393,1.56,0,2.376,1.344,2.376,3.289v7.057h2.064V187.92c0-2.929-1.584-4.873-4.2-4.873a4.153,4.153,0,0,0-3.937,2.568,3.773,3.773,0,0,0-3.7-2.568,4.035,4.035,0,0,0-3.625,2.088v-1.848h-2.064v12Zm34.034-6a6.278,6.278,0,1,0-6.265,6.241A6.159,6.159,0,0,0,594.887,189.288Zm-10.442,0a4.168,4.168,0,1,1,4.177,4.321A4.125,4.125,0,0,1,584.445,189.288Zm13.655,0a6.006,6.006,0,0,0,5.881,6.241,5.263,5.263,0,0,0,4.225-2.088v1.848h2.065v-18h-2.065v7.849a5.263,5.263,0,0,0-4.225-2.088A6.006,6.006,0,0,0,598.1,189.288Zm10.274,0a4.1,4.1,0,1,1-4.081-4.345A4.1,4.1,0,0,1,608.374,189.288Zm6.046,0a6.327,6.327,0,0,0,11.618,3.384l-1.632-1.128a4.25,4.25,0,0,1-7.9-1.848h9.842a5.856,5.856,0,0,0,.024-0.624c-0.024-3.841-2.568-6.025-5.713-6.025A6.081,6.081,0,0,0,614.42,189.288Zm6.169-4.417a3.591,3.591,0,0,1,3.673,3.145h-7.61A3.924,3.924,0,0,1,620.589,184.871Zm9.911,10.418h2.064v-18H630.5v18Zm6.24-6a6.327,6.327,0,0,0,11.618,3.384l-1.632-1.128a4.25,4.25,0,0,1-7.9-1.848h9.842a5.856,5.856,0,0,0,.024-0.624c-0.024-3.841-2.568-6.025-5.713-6.025A6.081,6.081,0,0,0,636.74,189.288Zm6.169-4.417a3.591,3.591,0,0,1,3.673,3.145h-7.61A3.923,3.923,0,0,1,642.909,184.871Zm8.974,4.417a6.007,6.007,0,0,0,5.882,6.241,5.266,5.266,0,0,0,4.225-2.088v1.848h2.064v-18H661.99v7.849a5.266,5.266,0,0,0-4.225-2.088A6.006,6.006,0,0,0,651.883,189.288Zm10.275,0a4.1,4.1,0,1,1-4.081-4.345A4.1,4.1,0,0,1,662.158,189.288Zm-622.146,28.8a6.006,6.006,0,0,0,5.881,6.241,5.264,5.264,0,0,0,4.225-2.088v1.848h2.064v-12H50.118v1.848a5.264,5.264,0,0,0-4.225-2.088A6.006,6.006,0,0,0,40.012,218.087Zm10.274,0a4.1,4.1,0,1,1-4.081-4.345A4.1,4.1,0,0,1,50.286,218.087Zm7.99,6h2.064V213.982h3.169v-1.9H60.341v-2.208c0-1.513.672-2.041,1.992-2.041a4.835,4.835,0,0,1,1.488.24v-1.824a5.457,5.457,0,0,0-1.872-.312,3.378,3.378,0,0,0-3.673,3.672v2.473H55.732v1.9h2.545v10.106Zm14.379-.168v-1.848a4.717,4.717,0,0,1-1.488.24c-1.3,0-1.992-.5-1.992-2.041v-6.289h3.481v-1.9H69.175v-3.337H67.11v3.337H64.854v1.9H67.11v6.554a3.4,3.4,0,0,0,3.7,3.672A5.976,5.976,0,0,0,72.655,223.92Zm2.733-5.833a6.328,6.328,0,0,0,11.618,3.385l-1.632-1.129a4.249,4.249,0,0,1-7.9-1.848h9.842a5.856,5.856,0,0,0,.024-0.624c-0.024-3.841-2.568-6.025-5.713-6.025A6.082,6.082,0,0,0,75.388,218.087Zm6.169-4.417a3.591,3.591,0,0,1,3.673,3.145H77.62A3.924,3.924,0,0,1,81.557,213.67Zm9.911,10.418h2.064v-5.953c0-2.808,1.656-4.129,3.169-4.129a3.018,3.018,0,0,1,1.128.192v-2.136a4.279,4.279,0,0,0-.936-0.1,3.571,3.571,0,0,0-3.361,2.448v-2.328H91.468v12Zm22.537-.168v-1.848a4.562,4.562,0,0,1-1.464.24c-1.3,0-1.993-.5-1.993-2.041v-6.289h3.457v-1.9h-3.457v-3.337h-2.064v3.337h-2.545v1.9h2.545v6.554a3.378,3.378,0,0,0,3.673,3.672A5.743,5.743,0,0,0,114.005,223.92Zm3.839,0.168h2.064v-5.953c0-2.808,1.536-4.393,3.481-4.393,1.68,0,2.832,1.248,2.832,3.265v7.081h2.041V216.7c0-2.977-1.849-4.849-4.537-4.849a4.245,4.245,0,0,0-3.817,2.088v-7.849h-2.064v18Zm14.4-6a6.328,6.328,0,0,0,11.619,3.385l-1.633-1.129a4.249,4.249,0,0,1-7.9-1.848h9.842a5.856,5.856,0,0,0,.024-0.624c-0.024-3.841-2.569-6.025-5.713-6.025A6.082,6.082,0,0,0,132.243,218.087Zm6.17-4.417a3.59,3.59,0,0,1,3.672,3.145h-7.609A3.923,3.923,0,0,1,138.413,213.67Zm30.409,3.793V207.045h-2.233v10.466c0,3.049-1.776,4.753-4.441,4.753s-4.441-1.7-4.441-4.753V207.045h-2.232v10.418c0,4.249,2.737,6.913,6.673,6.913S168.822,221.712,168.822,217.463Zm7.414,5.017a1.777,1.777,0,1,0-1.777,1.8A1.808,1.808,0,0,0,176.236,222.48Zm3.311-1.176c0.888,1.752,3.169,3.072,5.977,3.072,3.169,0,5.425-1.824,5.425-4.729,0-2.52-1.44-3.96-3.96-4.921l-2.065-.792c-1.728-.648-2.568-1.3-2.568-2.736,0-1.416,1.392-2.353,3.072-2.353a4.215,4.215,0,0,1,3.385,1.681l1.632-1.441a6.216,6.216,0,0,0-4.969-2.328c-3.048,0-5.329,1.752-5.329,4.537,0,2.328,1.2,3.72,3.865,4.7l2.256,0.864c1.585,0.6,2.449,1.512,2.449,2.88,0,1.585-1.392,2.545-3.145,2.545a4.763,4.763,0,0,1-4.225-2.329Zm18.432,1.176a1.776,1.776,0,1,0-1.776,1.8A1.808,1.808,0,0,0,197.979,222.48Zm8.855,1.608h2.305l2.184-4.969h7.946l2.185,4.969h2.328l-7.562-17.043h-1.848Zm5.354-6.985,3.1-7.033,3.1,7.033h-6.193Zm14.879,6.985h2.064v-5.953c0-2.808,1.656-4.129,3.169-4.129a3.017,3.017,0,0,1,1.128.192v-2.136a4.276,4.276,0,0,0-.936-0.1,3.57,3.57,0,0,0-3.361,2.448v-2.328h-2.064v12Zm9.983,0h2.065v-5.953c0-2.712,1.368-4.393,3.313-4.393,1.56,0,2.352,1.345,2.352,3.289v7.057h2.065v-5.953c0-2.712,1.344-4.393,3.288-4.393,1.561,0,2.377,1.345,2.377,3.289v7.057h2.064v-7.369c0-2.929-1.584-4.873-4.2-4.873a4.155,4.155,0,0,0-3.937,2.568,3.772,3.772,0,0,0-3.7-2.568,4.034,4.034,0,0,0-3.625,2.088v-1.848H237.05v12Zm25.393,5.017,7.874-17.019h-2.305l-4.105,9.1-4.128-9.1H257.5l5.257,11.378-2.616,5.641h2.3Zm17.5-9.65c0,2.977,1.777,4.873,4.417,4.873a4.129,4.129,0,0,0,3.7-2.088v1.848h2.065v-12h-2.065v5.953c0,2.761-1.464,4.393-3.337,4.393-1.656,0-2.712-1.272-2.712-3.289v-7.057h-2.065v7.369Zm15.264,4.633h2.065v-5.953c0-2.808,1.536-4.393,3.48-4.393,1.681,0,2.833,1.248,2.833,3.265v7.081h2.04V216.7c0-2.977-1.848-4.849-4.536-4.849a4.244,4.244,0,0,0-3.817,2.088v-1.848H295.2v12Zm17.833-16.683a1.45,1.45,0,0,0-1.441-1.464,1.491,1.491,0,0,0-1.488,1.464,1.475,1.475,0,0,0,1.488,1.464A1.435,1.435,0,0,0,313.035,207.405Zm-2.5,16.683H312.6v-12h-2.064v12Zm8.184,0h2.064V213.982h3.481v-1.9h-3.481v-2.208c0-1.513.673-2.041,1.993-2.041a4.833,4.833,0,0,1,1.488.24v-1.824a5.454,5.454,0,0,0-1.872-.312,3.427,3.427,0,0,0-3.673,3.72v2.425h-2.545v1.9h2.545v10.106Zm20.282-6a6.277,6.277,0,1,0-6.265,6.241A6.159,6.159,0,0,0,339,218.087Zm-10.442,0a4.168,4.168,0,1,1,4.177,4.321A4.126,4.126,0,0,1,328.562,218.087Zm14.592,6h2.064v-5.953c0-2.808,1.656-4.129,3.169-4.129a3.017,3.017,0,0,1,1.128.192v-2.136a4.276,4.276,0,0,0-.936-0.1,3.571,3.571,0,0,0-3.361,2.448v-2.328h-2.064v12Zm9.984,0H355.2v-5.953c0-2.712,1.368-4.393,3.313-4.393,1.56,0,2.352,1.345,2.352,3.289v7.057h2.065v-5.953c0-2.712,1.344-4.393,3.288-4.393,1.561,0,2.377,1.345,2.377,3.289v7.057h2.064v-7.369c0-2.929-1.584-4.873-4.2-4.873a4.153,4.153,0,0,0-3.936,2.568,3.774,3.774,0,0,0-3.7-2.568,4.034,4.034,0,0,0-3.625,2.088v-1.848h-2.064v12Zm25.3-1.608a1.777,1.777,0,1,0-1.776,1.8A1.808,1.808,0,0,0,378.434,222.48Zm14.424,1.608h2.185V209.157h5.305v-2.112h-12.8v2.112h5.305v14.931Zm20.546-6a6.278,6.278,0,1,0-6.266,6.241A6.159,6.159,0,0,0,413.4,218.087Zm-10.442,0a4.167,4.167,0,1,1,4.176,4.321A4.125,4.125,0,0,1,402.962,218.087Zm13.655,0a6.005,6.005,0,0,0,5.881,6.241,5.264,5.264,0,0,0,4.225-2.088v1.848h2.064v-18h-2.064v7.849a5.264,5.264,0,0,0-4.225-2.088A6.005,6.005,0,0,0,416.617,218.087Zm10.274,0a4.1,4.1,0,1,1-4.081-4.345A4.1,4.1,0,0,1,426.891,218.087Zm6.046,0a6.005,6.005,0,0,0,5.881,6.241,5.264,5.264,0,0,0,4.225-2.088v1.848h2.064v-12h-2.064v1.848a5.264,5.264,0,0,0-4.225-2.088A6.005,6.005,0,0,0,432.937,218.087Zm10.274,0a4.1,4.1,0,1,1-4.081-4.345A4.1,4.1,0,0,1,443.211,218.087Zm10.174,11.018,7.874-17.019h-2.305l-4.105,9.1-4.128-9.1H448.44l5.257,11.378-2.616,5.641h2.3Zm12.528-5.545a2.052,2.052,0,0,0,.336-1.08,1.777,1.777,0,1,0-3.553,0,1.785,1.785,0,0,0,.985,1.608l-1.609,3.433h1.369Zm23.426-5.473a6.278,6.278,0,1,0-6.266,6.241A6.159,6.159,0,0,0,489.339,218.087Zm-10.443,0a4.168,4.168,0,1,1,4.177,4.321A4.126,4.126,0,0,1,478.9,218.087Zm14.424,1.368c0,2.977,1.776,4.873,4.417,4.873a4.131,4.131,0,0,0,3.7-2.088v1.848H503.5v-12h-2.064v5.953c0,2.761-1.465,4.393-3.337,4.393-1.657,0-2.713-1.272-2.713-3.289v-7.057H493.32v7.369Zm15.264,4.633h2.064v-5.953c0-2.808,1.656-4.129,3.169-4.129a3.017,3.017,0,0,1,1.128.192v-2.136a4.276,4.276,0,0,0-.936-0.1,3.571,3.571,0,0,0-3.361,2.448v-2.328h-2.064v12Zm16.44,0h2.064v-5.953c0-2.808,1.536-4.393,3.481-4.393,1.68,0,2.832,1.248,2.832,3.265v7.081h2.041V216.7c0-2.977-1.849-4.849-4.537-4.849a4.244,4.244,0,0,0-3.817,2.088v-1.848h-2.064v12Zm14.4-6a6.328,6.328,0,0,0,11.619,3.385l-1.633-1.129a4.249,4.249,0,0,1-7.9-1.848h9.842a5.856,5.856,0,0,0,.024-0.624c-0.024-3.841-2.569-6.025-5.714-6.025A6.082,6.082,0,0,0,539.423,218.087Zm6.169-4.417a3.591,3.591,0,0,1,3.673,3.145h-7.61A3.925,3.925,0,0,1,545.592,213.67Zm20.065,10.418h1.825l4.081-12h-2.185l-2.9,8.762-3-8.762h-1.584l-3,8.762-2.905-8.762h-2.16l4.081,12h1.824l2.977-8.641Zm16.27,0h2.232v-7.753h1.657l6.553,7.753h2.809l-6.554-7.777c2.617-.384,4.2-2.065,4.2-4.561,0-2.809-1.944-4.705-5.089-4.705h-5.809v17.043Zm2.232-9.746v-5.233h3.313c1.945,0,3.121.913,3.121,2.641,0,1.7-1.176,2.592-3.121,2.592h-3.313Zm12.648,3.745a6.005,6.005,0,0,0,5.881,6.241,5.263,5.263,0,0,0,4.225-2.088v1.848h2.065v-12h-2.065v1.848a5.263,5.263,0,0,0-4.225-2.088A6.005,6.005,0,0,0,596.807,218.087Zm10.274,0A4.1,4.1,0,1,1,603,213.742,4.1,4.1,0,0,1,607.081,218.087Zm6.982,11.018h2.064V222.24a5.264,5.264,0,0,0,4.225,2.088,6.252,6.252,0,0,0,0-12.482,5.264,5.264,0,0,0-4.225,2.088v-1.848h-2.064v17.019Zm10.058-11.018a4.089,4.089,0,1,1-4.081-4.345A4.1,4.1,0,0,1,624.121,218.087Zm8.782-10.682a1.449,1.449,0,0,0-1.44-1.464,1.491,1.491,0,0,0-1.488,1.464,1.475,1.475,0,0,0,1.488,1.464A1.434,1.434,0,0,0,632.9,207.405Zm-2.5,16.683h2.064v-12h-2.064v12Zm6.239-6a6.006,6.006,0,0,0,5.882,6.241,5.266,5.266,0,0,0,4.225-2.088v1.848h2.064v-18h-2.064v7.849a5.266,5.266,0,0,0-4.225-2.088A6.006,6.006,0,0,0,636.646,218.087Zm10.275,0a4.1,4.1,0,1,1-4.081-4.345A4.1,4.1,0,0,1,646.921,218.087ZM49.638,247.9l6.145-8.258v13.25h2.209V235.844H55.975l-6.337,8.5-6.337-8.5H41.26v17.043h2.233v-13.25Zm25.153-1.009a6.277,6.277,0,1,0-6.265,6.241A6.16,6.16,0,0,0,74.791,246.886Zm-10.442,0a4.168,4.168,0,1,1,4.177,4.321A4.125,4.125,0,0,1,64.348,246.886Zm18.073,6h1.728l5.545-12h-2.3l-4.1,9.074-4.1-9.074h-2.3Zm9.359-6a6.328,6.328,0,0,0,11.619,3.385l-1.633-1.128a4.25,4.25,0,0,1-7.9-1.849h9.842a5.856,5.856,0,0,0,.024-0.624c-0.024-3.84-2.569-6.025-5.713-6.025A6.082,6.082,0,0,0,91.78,246.886Zm6.169-4.417a3.591,3.591,0,0,1,3.673,3.145H94.013A3.925,3.925,0,0,1,97.949,242.469Zm9.911,10.418h2.065v-5.953c0-2.712,1.368-4.392,3.312-4.392,1.561,0,2.353,1.344,2.353,3.288v7.057h2.064v-5.953c0-2.712,1.345-4.392,3.289-4.392,1.56,0,2.376,1.344,2.376,3.288v7.057h2.065v-7.369c0-2.928-1.584-4.873-4.2-4.873a4.154,4.154,0,0,0-3.937,2.569,3.772,3.772,0,0,0-3.7-2.569,4.032,4.032,0,0,0-3.624,2.089v-1.849H107.86v12Zm21.5-6a6.328,6.328,0,0,0,11.618,3.385l-1.632-1.128a4.25,4.25,0,0,1-7.9-1.849h9.842a5.856,5.856,0,0,0,.024-0.624c-0.024-3.84-2.568-6.025-5.713-6.025A6.082,6.082,0,0,0,129.364,246.886Zm6.169-4.417a3.591,3.591,0,0,1,3.673,3.145H131.6A3.925,3.925,0,0,1,135.533,242.469Zm9.911,10.418h2.064v-5.953c0-2.808,1.537-4.392,3.481-4.392,1.68,0,2.833,1.248,2.833,3.264v7.081h2.04v-7.393c0-2.976-1.848-4.849-4.537-4.849a4.244,4.244,0,0,0-3.817,2.089v-1.849h-2.064v12Zm21.7-.168v-1.848a4.562,4.562,0,0,1-1.464.24c-1.3,0-1.993-.5-1.993-2.04v-6.289h3.457v-1.9h-3.457v-3.336H161.62v3.336h-2.545v1.9h2.545v6.553a3.378,3.378,0,0,0,3.673,3.672A5.743,5.743,0,0,0,167.141,252.719Zm10.03-8.353a8.858,8.858,0,0,0,16.348,4.681l-1.873-1.128a6.7,6.7,0,1,1,0-7.106l1.873-1.128A8.858,8.858,0,0,0,177.171,244.366Zm19.248,2.52a6.005,6.005,0,0,0,5.881,6.241,5.263,5.263,0,0,0,4.225-2.088v1.848h2.064v-12h-2.064v1.849a5.261,5.261,0,0,0-4.225-2.089A6.006,6.006,0,0,0,196.419,246.886Zm10.274,0a4.1,4.1,0,1,1-4.081-4.344A4.1,4.1,0,0,1,206.693,246.886Zm6.982,6h2.064v-5.953c0-2.808,1.657-4.128,3.169-4.128a3.017,3.017,0,0,1,1.128.192v-2.137a4.276,4.276,0,0,0-.936-0.1,3.571,3.571,0,0,0-3.361,2.449v-2.329h-2.064v12Zm20.81-.7V240.885h-2.064v1.849a5.106,5.106,0,0,0-4.177-2.089,6.114,6.114,0,0,0,0,12.218,5.126,5.126,0,0,0,4.177-2.112v1.368a3.837,3.837,0,0,1-4.009,4.153,5.134,5.134,0,0,1-4.2-2.016l-1.44,1.44a7.125,7.125,0,0,0,5.665,2.448C231.845,258.144,234.485,256.2,234.485,252.191Zm-10.01-5.449a4.059,4.059,0,1,1,4.057,4.2A4,4,0,0,1,224.475,246.742Zm26.69,0.144a6.278,6.278,0,1,0-6.265,6.241A6.16,6.16,0,0,0,251.165,246.886Zm-10.442,0a4.168,4.168,0,1,1,4.177,4.321A4.125,4.125,0,0,1,240.723,246.886ZM264.867,236.2a1.45,1.45,0,0,0-1.441-1.464,1.465,1.465,0,1,0,0,2.929A1.436,1.436,0,0,0,264.867,236.2Zm-2.5,16.683h2.064v-12H262.37v12Zm14.953-3.336c0-1.8-1.128-2.953-3.168-3.625l-1.3-.432c-1.417-.456-1.849-0.912-1.849-1.68,0-.888.888-1.393,2.017-1.393a3.243,3.243,0,0,1,2.544,1.249l1.344-1.3a4.654,4.654,0,0,0-3.84-1.728c-2.377,0-4.057,1.32-4.057,3.265,0,1.68,1.032,2.856,2.976,3.48l1.177,0.384c1.56,0.5,2.136,1.081,2.136,1.921,0,1.032-.936,1.632-2.112,1.632a3.221,3.221,0,0,1-3.073-1.9l-1.68.912a4.767,4.767,0,0,0,4.7,2.784C275.571,253.127,277.323,251.9,277.323,249.551Zm10.27-2.665a6.006,6.006,0,0,0,5.881,6.241,5.263,5.263,0,0,0,4.225-2.088v1.848h2.065v-12H297.7v1.849a5.261,5.261,0,0,0-4.225-2.089A6.006,6.006,0,0,0,287.593,246.886Zm10.274,0a4.1,4.1,0,1,1-4.081-4.344A4.1,4.1,0,0,1,297.867,246.886Zm6.982,6h2.064v-5.953c0-2.808,1.657-4.128,3.169-4.128a3.017,3.017,0,0,1,1.128.192v-2.137a4.276,4.276,0,0,0-.936-0.1,3.572,3.572,0,0,0-3.361,2.449v-2.329h-2.064v12Zm9.984,0H316.9v-5.953c0-2.712,1.369-4.392,3.313-4.392,1.56,0,2.353,1.344,2.353,3.288v7.057h2.064v-5.953c0-2.712,1.344-4.392,3.289-4.392,1.56,0,2.376,1.344,2.376,3.288v7.057h2.065v-7.369c0-2.928-1.585-4.873-4.2-4.873a4.153,4.153,0,0,0-3.937,2.569,3.772,3.772,0,0,0-3.7-2.569,4.035,4.035,0,0,0-3.625,2.089v-1.849h-2.064v12Zm21.5-6a6.328,6.328,0,0,0,11.618,3.385l-1.632-1.128a4.25,4.25,0,0,1-7.9-1.849h9.842a5.856,5.856,0,0,0,.024-0.624c-0.024-3.84-2.568-6.025-5.713-6.025A6.082,6.082,0,0,0,336.337,246.886Zm6.169-4.417a3.592,3.592,0,0,1,3.673,3.145h-7.61A3.925,3.925,0,0,1,342.506,242.469Zm8.975,4.417a6.005,6.005,0,0,0,5.881,6.241,5.266,5.266,0,0,0,4.225-2.088v1.848h2.064v-18h-2.064v7.85a5.264,5.264,0,0,0-4.225-2.089A6.006,6.006,0,0,0,351.481,246.886Zm10.274,0a4.1,4.1,0,1,1-4.081-4.344A4.1,4.1,0,0,1,361.755,246.886Zm23.784,6h1.824l4.081-12h-2.185l-2.9,8.762-3-8.762H381.77l-3,8.762-2.9-8.762H373.7l4.081,12h1.824l2.977-8.641Zm11.83-16.683a1.45,1.45,0,0,0-1.441-1.464,1.465,1.465,0,1,0,0,2.929A1.436,1.436,0,0,0,397.369,236.2Zm-2.5,16.683h2.064v-12h-2.064v12Zm13.681-.168v-1.848a4.562,4.562,0,0,1-1.464.24c-1.3,0-1.992-.5-1.992-2.04v-6.289h3.456v-1.9H405.1v-3.336h-2.065v3.336h-2.544v1.9h2.544v6.553a3.378,3.378,0,0,0,3.673,3.672A5.743,5.743,0,0,0,408.553,252.719Zm3.839,0.168h2.064v-5.953c0-2.808,1.537-4.392,3.481-4.392,1.68,0,2.833,1.248,2.833,3.264v7.081h2.04v-7.393c0-2.976-1.848-4.849-4.537-4.849a4.244,4.244,0,0,0-3.817,2.089v-7.85h-2.064v18Zm21.455-6a6.006,6.006,0,0,0,5.881,6.241,5.263,5.263,0,0,0,4.225-2.088v1.848h2.065v-12h-2.065v1.849a5.261,5.261,0,0,0-4.225-2.089A6.006,6.006,0,0,0,433.847,246.886Zm10.274,0a4.1,4.1,0,1,1-4.081-4.344A4.1,4.1,0,0,1,444.121,246.886Zm6.046,0a6.005,6.005,0,0,0,5.881,6.241,5.264,5.264,0,0,0,4.225-2.088v1.848h2.064v-18h-2.064v7.85a5.262,5.262,0,0,0-4.225-2.089A6.006,6.006,0,0,0,450.167,246.886Zm10.274,0a4.1,4.1,0,1,1-4.081-4.344A4.1,4.1,0,0,1,460.441,246.886Zm10.727,6H472.9l5.545-12h-2.3l-4.105,9.074-4.1-9.074h-2.305Zm9.382-6a6.006,6.006,0,0,0,5.882,6.241,5.266,5.266,0,0,0,4.225-2.088v1.848h2.064v-12h-2.064v1.849a5.264,5.264,0,0,0-4.225-2.089A6.007,6.007,0,0,0,480.55,246.886Zm10.275,0a4.1,4.1,0,1,1-4.081-4.344A4.1,4.1,0,0,1,490.825,246.886Zm6.981,6h2.065v-5.953c0-2.808,1.536-4.392,3.481-4.392,1.68,0,2.832,1.248,2.832,3.264v7.081h2.041v-7.393c0-2.976-1.849-4.849-4.537-4.849a4.243,4.243,0,0,0-3.817,2.089v-1.849h-2.065v12Zm26.234-2.976-1.8-1.008a4.068,4.068,0,0,1-3.745,2.3,4.322,4.322,0,0,1,0-8.641,4.068,4.068,0,0,1,3.745,2.3l1.8-1.008a6.214,6.214,0,0,0-5.545-3.217,6.241,6.241,0,1,0,0,12.482A6.215,6.215,0,0,0,524.04,249.911Zm2.926-3.025a6.328,6.328,0,0,0,11.618,3.385l-1.632-1.128a4.25,4.25,0,0,1-7.9-1.849H538.9a5.856,5.856,0,0,0,.024-0.624c-0.024-3.84-2.568-6.025-5.713-6.025A6.082,6.082,0,0,0,526.966,246.886Zm6.169-4.417a3.592,3.592,0,0,1,3.673,3.145H529.2A3.925,3.925,0,0,1,533.135,242.469Zm8.974,4.417a6.006,6.006,0,0,0,5.882,6.241,5.266,5.266,0,0,0,4.225-2.088v1.848h2.064v-18h-2.064v7.85a5.264,5.264,0,0,0-4.225-2.089A6.007,6.007,0,0,0,542.109,246.886Zm10.275,0a4.1,4.1,0,1,1-4.081-4.344A4.1,4.1,0,0,1,552.384,246.886Zm21.815,2.665c0-1.8-1.128-2.953-3.169-3.625l-1.3-.432c-1.416-.456-1.849-0.912-1.849-1.68,0-.888.889-1.393,2.017-1.393a3.243,3.243,0,0,1,2.544,1.249l1.345-1.3a4.656,4.656,0,0,0-3.841-1.728c-2.377,0-4.057,1.32-4.057,3.265,0,1.68,1.032,2.856,2.977,3.48l1.176,0.384c1.56,0.5,2.136,1.081,2.136,1.921,0,1.032-.936,1.632-2.112,1.632a3.222,3.222,0,0,1-3.073-1.9l-1.68.912a4.767,4.767,0,0,0,4.705,2.784C572.446,253.127,574.2,251.9,574.2,249.551Zm10.511,3.168v-1.848a4.562,4.562,0,0,1-1.464.24c-1.3,0-1.992-.5-1.992-2.04v-6.289h3.456v-1.9h-3.456v-3.336h-2.065v3.336h-2.544v1.9h2.544v6.553a3.379,3.379,0,0,0,3.673,3.672A5.743,5.743,0,0,0,584.71,252.719Zm3.839,0.168h2.064v-5.953c0-2.808,1.657-4.128,3.169-4.128a3.017,3.017,0,0,1,1.128.192v-2.137a4.276,4.276,0,0,0-.936-0.1,3.571,3.571,0,0,0-3.361,2.449v-2.329h-2.064v12Zm8.616-6a6.328,6.328,0,0,0,11.618,3.385l-1.632-1.128a4.25,4.25,0,0,1-7.9-1.849H609.1a5.856,5.856,0,0,0,.024-0.624c-0.024-3.84-2.568-6.025-5.713-6.025A6.082,6.082,0,0,0,597.165,246.886Zm6.169-4.417a3.591,3.591,0,0,1,3.673,3.145H599.4A3.925,3.925,0,0,1,603.334,242.469Zm16.249,10.25v-1.848a4.568,4.568,0,0,1-1.465.24c-1.3,0-1.992-.5-1.992-2.04v-6.289h3.457v-1.9h-3.457v-3.336h-2.065v3.336h-2.544v1.9h2.544v6.553a3.379,3.379,0,0,0,3.673,3.672A5.754,5.754,0,0,0,619.583,252.719Zm14.569-2.808-1.8-1.008a4.068,4.068,0,0,1-3.744,2.3,4.322,4.322,0,0,1,0-8.641,4.068,4.068,0,0,1,3.744,2.3l1.8-1.008a6.215,6.215,0,0,0-5.545-3.217,6.241,6.241,0,1,0,0,12.482A6.216,6.216,0,0,0,634.152,249.911Zm3.861,2.976h2.065v-5.953c0-2.808,1.536-4.392,3.48-4.392,1.681,0,2.833,1.248,2.833,3.264v7.081h2.04v-7.393c0-2.976-1.848-4.849-4.537-4.849a4.242,4.242,0,0,0-3.816,2.089v-7.85h-2.065v18ZM48.726,278.35c0-1.8-1.128-2.952-3.169-3.625l-1.3-.432c-1.416-.456-1.848-0.912-1.848-1.68,0-.888.888-1.392,2.017-1.392a3.243,3.243,0,0,1,2.544,1.248l1.344-1.3a4.653,4.653,0,0,0-3.841-1.729c-2.376,0-4.057,1.321-4.057,3.265,0,1.68,1.032,2.857,2.977,3.481l1.176,0.384c1.56,0.5,2.136,1.08,2.136,1.92,0,1.032-.936,1.632-2.112,1.632a3.221,3.221,0,0,1-3.073-1.9l-1.68.912a4.767,4.767,0,0,0,4.7,2.785C46.974,281.927,48.726,280.7,48.726,278.35Zm15.745-2.664a6.277,6.277,0,1,0-6.265,6.241A6.16,6.16,0,0,0,64.471,275.686Zm-10.442,0a4.168,4.168,0,1,1,4.177,4.32A4.125,4.125,0,0,1,54.028,275.686ZM78.316,286.7l7.874-17.02h-2.3l-4.1,9.1-4.129-9.1H73.371l5.257,11.379L76.012,286.7h2.3Zm22.466-11.018a6.277,6.277,0,1,0-6.265,6.241A6.16,6.16,0,0,0,100.782,275.686Zm-10.442,0a4.168,4.168,0,1,1,4.177,4.32A4.125,4.125,0,0,1,90.34,275.686Zm14.423,1.368c0,2.976,1.777,4.873,4.417,4.873a4.128,4.128,0,0,0,3.7-2.089v1.849h2.065v-12h-2.065v5.954c0,2.76-1.464,4.392-3.337,4.392-1.656,0-2.712-1.272-2.712-3.288v-7.058h-2.065v7.37Zm33.218,1.656-1.8-1.008a4.068,4.068,0,0,1-3.745,2.3,4.322,4.322,0,0,1,0-8.641,4.068,4.068,0,0,1,3.745,2.3l1.8-1.008a6.216,6.216,0,0,0-5.545-3.217,6.242,6.242,0,1,0,0,12.483A6.214,6.214,0,0,0,137.981,278.71Zm2.926-3.024a6.006,6.006,0,0,0,5.881,6.241,5.262,5.262,0,0,0,4.225-2.089v1.849h2.064v-12h-2.064v1.849a5.265,5.265,0,0,0-4.225-2.089A6.006,6.006,0,0,0,140.907,275.686Zm10.274,0a4.1,4.1,0,1,1-4.081-4.345A4.1,4.1,0,0,1,151.181,275.686Zm6.982,6h2.064v-5.953c0-2.809,1.536-4.393,3.481-4.393,1.68,0,2.832,1.248,2.832,3.264v7.082h2.041v-7.394c0-2.976-1.849-4.849-4.537-4.849a4.245,4.245,0,0,0-3.817,2.089v-1.849h-2.064v12Zm22.391,0h2.064v-5.953c0-2.713,1.369-4.393,3.313-4.393,1.56,0,2.353,1.344,2.353,3.288v7.058h2.064v-5.953c0-2.713,1.344-4.393,3.289-4.393,1.56,0,2.376,1.344,2.376,3.288v7.058h2.065v-7.37c0-2.928-1.585-4.873-4.2-4.873a4.154,4.154,0,0,0-3.937,2.569,3.773,3.773,0,0,0-3.7-2.569,4.037,4.037,0,0,0-3.625,2.089v-1.849h-2.064v12Zm21.5-6a6.006,6.006,0,0,0,5.881,6.241,5.262,5.262,0,0,0,4.225-2.089v1.849h2.064v-12h-2.064v1.849a5.265,5.265,0,0,0-4.225-2.089A6.006,6.006,0,0,0,202.058,275.686Zm10.274,0a4.1,4.1,0,1,1-4.081-4.345A4.1,4.1,0,0,1,212.332,275.686Zm6.982,6h2.064v-5.953c0-2.809,1.656-4.129,3.169-4.129a3.017,3.017,0,0,1,1.128.192V269.66a4.276,4.276,0,0,0-.936-0.1,3.571,3.571,0,0,0-3.361,2.449v-2.329h-2.064v12Zm20.45-2.977-1.8-1.008a4.069,4.069,0,0,1-3.745,2.3,4.322,4.322,0,0,1,0-8.641,4.069,4.069,0,0,1,3.745,2.3l1.8-1.008a6.217,6.217,0,0,0-5.545-3.217,6.242,6.242,0,1,0,0,12.483A6.215,6.215,0,0,0,239.764,278.71Zm3.861,2.977h2.065v-5.953c0-2.809,1.536-4.393,3.481-4.393,1.68,0,2.832,1.248,2.832,3.264v7.082h2.041v-7.394c0-2.976-1.849-4.849-4.537-4.849a4.245,4.245,0,0,0-3.817,2.089v-7.85h-2.065v18Zm28.489-.168V279.67a4.562,4.562,0,0,1-1.464.24c-1.3,0-1.992-.5-1.992-2.04v-6.289h3.456v-1.9h-3.456v-3.336h-2.065v3.336h-2.544v1.9h2.544v6.553a3.379,3.379,0,0,0,3.673,3.673A5.743,5.743,0,0,0,272.114,281.519Zm15.266-5.833a6.278,6.278,0,1,0-6.266,6.241A6.16,6.16,0,0,0,287.38,275.686Zm-10.443,0a4.168,4.168,0,1,1,4.177,4.32A4.126,4.126,0,0,1,276.937,275.686Zm27.745,5.833V279.67a4.562,4.562,0,0,1-1.464.24c-1.3,0-1.993-.5-1.993-2.04v-6.289h3.457v-1.9h-3.457v-3.336h-2.064v3.336h-2.545v1.9h2.545v6.553a3.378,3.378,0,0,0,3.673,3.673A5.743,5.743,0,0,0,304.682,281.519Zm3.839,0.168h2.064v-5.953c0-2.809,1.536-4.393,3.481-4.393,1.68,0,2.832,1.248,2.832,3.264v7.082h2.041v-7.394c0-2.976-1.849-4.849-4.537-4.849a4.245,4.245,0,0,0-3.817,2.089v-7.85h-2.064v18Zm14.4-6a6.328,6.328,0,0,0,11.619,3.384l-1.633-1.128a4.249,4.249,0,0,1-7.9-1.848h9.842a5.856,5.856,0,0,0,.024-0.624c-0.024-3.841-2.569-6.026-5.714-6.026A6.083,6.083,0,0,0,322.92,275.686Zm6.169-4.417a3.591,3.591,0,0,1,3.673,3.144h-7.609A3.923,3.923,0,0,1,329.089,271.269Zm19.031,8.569a5.262,5.262,0,0,0,4.225,2.089,6.253,6.253,0,0,0,0-12.483,5.265,5.265,0,0,0-4.225,2.089v-7.85h-2.064v18h2.064v-1.849Zm7.994-4.152a4.089,4.089,0,1,1-4.081-4.345A4.1,4.1,0,0,1,356.114,275.686Zm5.325,0a6.328,6.328,0,0,0,11.619,3.384l-1.632-1.128a4.25,4.25,0,0,1-7.9-1.848h9.842a5.856,5.856,0,0,0,.024-0.624c-0.024-3.841-2.569-6.026-5.713-6.026A6.083,6.083,0,0,0,361.439,275.686Zm6.17-4.417a3.59,3.59,0,0,1,3.672,3.144h-7.609A3.923,3.923,0,0,1,367.609,271.269Zm8.974,4.417a6.006,6.006,0,0,0,5.881,6.241,5.261,5.261,0,0,0,4.225-2.089v1.849h2.065v-12h-2.065v1.849a5.264,5.264,0,0,0-4.225-2.089A6.007,6.007,0,0,0,376.583,275.686Zm10.274,0a4.1,4.1,0,1,1-4.08-4.345A4.1,4.1,0,0,1,386.857,275.686Zm13.488,5.833V279.67a4.568,4.568,0,0,1-1.465.24c-1.3,0-1.992-.5-1.992-2.04v-6.289h3.457v-1.9h-3.457v-3.336h-2.065v3.336h-2.544v1.9h2.544v6.553a3.379,3.379,0,0,0,3.673,3.673A5.754,5.754,0,0,0,400.345,281.519Zm22.488-5.833a6.277,6.277,0,1,0-6.265,6.241A6.159,6.159,0,0,0,422.833,275.686Zm-10.442,0a4.168,4.168,0,1,1,4.177,4.32A4.125,4.125,0,0,1,412.391,275.686Zm15.408,6h2.064V271.581h3.481v-1.9h-3.481v-2.208c0-1.512.672-2.04,1.993-2.04a4.833,4.833,0,0,1,1.488.24v-1.825a5.454,5.454,0,0,0-1.872-.312,3.428,3.428,0,0,0-3.673,3.721v2.424h-2.545v1.9H427.8v10.106Zm18.072,5.017,7.874-17.02H451.44l-4.1,9.1-4.129-9.1h-2.281l5.257,11.379-2.616,5.641h2.3Zm22.466-11.018a6.277,6.277,0,1,0-6.265,6.241A6.159,6.159,0,0,0,468.337,275.686Zm-10.442,0a4.168,4.168,0,1,1,4.177,4.32A4.125,4.125,0,0,1,457.9,275.686Zm14.423,1.368c0,2.976,1.777,4.873,4.417,4.873a4.128,4.128,0,0,0,3.7-2.089v1.849H482.5v-12h-2.065v5.954c0,2.76-1.464,4.392-3.336,4.392-1.657,0-2.713-1.272-2.713-3.288v-7.058h-2.065v7.37Zm15.264,4.633h2.065v-5.953c0-2.809,1.656-4.129,3.168-4.129a3.019,3.019,0,0,1,1.129.192V269.66a4.276,4.276,0,0,0-.936-0.1,3.571,3.571,0,0,0-3.361,2.449v-2.329h-2.065v12Zm28.035-6a6.278,6.278,0,1,0-6.266,6.241A6.16,6.16,0,0,0,515.617,275.686Zm-10.443,0a4.168,4.168,0,1,1,4.177,4.32A4.126,4.126,0,0,1,505.174,275.686Zm24.722,6h1.824l4.081-12h-2.184l-2.9,8.762-3-8.762h-1.585l-3,8.762-2.9-8.762h-2.16l4.08,12h1.825l2.976-8.642Zm9.334,0h2.064v-5.953c0-2.809,1.536-4.393,3.481-4.393,1.68,0,2.832,1.248,2.832,3.264v7.082h2.041v-7.394c0-2.976-1.849-4.849-4.537-4.849a4.245,4.245,0,0,0-3.817,2.089v-1.849H539.23v12Zm21.455-6a6.006,6.006,0,0,0,5.881,6.241,5.262,5.262,0,0,0,4.225-2.089v1.849h2.064v-18h-2.064v7.85a5.265,5.265,0,0,0-4.225-2.089A6.006,6.006,0,0,0,560.685,275.686Zm10.274,0a4.1,4.1,0,1,1-4.081-4.345A4.1,4.1,0,0,1,570.959,275.686Zm6.982,6h2.064v-5.953c0-2.809,1.657-4.129,3.169-4.129a3.017,3.017,0,0,1,1.128.192V269.66a4.276,4.276,0,0,0-.936-0.1,3.572,3.572,0,0,0-3.361,2.449v-2.329h-2.064v12Zm9.816-4.633c0,2.976,1.776,4.873,4.417,4.873a4.128,4.128,0,0,0,3.7-2.089v1.849h2.065v-12H595.87v5.954c0,2.76-1.464,4.392-3.336,4.392-1.657,0-2.713-1.272-2.713-3.288v-7.058h-2.064v7.37Zm15.264,4.633h2.064v-5.953c0-2.713,1.368-4.393,3.313-4.393,1.56,0,2.352,1.344,2.352,3.288v7.058h2.065v-5.953c0-2.713,1.344-4.393,3.288-4.393,1.561,0,2.377,1.344,2.377,3.288v7.058h2.064v-7.37c0-2.928-1.584-4.873-4.2-4.873a4.154,4.154,0,0,0-3.936,2.569,3.775,3.775,0,0,0-3.7-2.569,4.035,4.035,0,0,0-3.625,2.089v-1.849h-2.064v12Zm25.3-1.609a1.777,1.777,0,1,0-1.776,1.8A1.808,1.808,0,0,0,628.317,280.078Z"/>
</svg>
