<svg id="copy_copy_2" data-name="copy copy 2" xmlns="http://www.w3.org/2000/svg" width="768" height="222"><defs><style>.cls-2{fill-rule:evenodd}</style></defs><path id="Rectangle_106_copy_12" data-name="Rectangle 106 copy 12" fill="#fff" d="M0 0h768v222H0z"/><g id="CTA_underline_copy" data-name="CTA_underline copy"><path id="Rectangle_4_copy_4" data-name="Rectangle 4 copy 4" d="M39 128h122v4H39z"/><path id="Shop_now" data-name="Shop now" class="cls-2" d="M43.817 120.853c2.706 0 4.564-1.653 4.582-4.023.018-1.965-1.19-3.214-3.048-3.894l-.9-.33c-1.353-.5-1.984-.808-1.984-1.506 0-.68.776-.992 1.551-.992a2.831 2.831 0 0 1 2.219 1.083l1.876-2.02a5.3 5.3 0 0 0-4.131-1.8c-2.561 0-4.419 1.488-4.419 4.022 0 1.782 1.154 3.049 3.229 3.766l.9.312c1.281.441 1.786.9 1.786 1.561 0 .625-.6 1.084-1.551 1.084a3.335 3.335 0 0 1-2.652-1.488l-2.2 1.892a5.583 5.583 0 0 0 4.742 2.333zm9.726-.221h2.867v-5.161h5.159v5.161h2.868v-13.041h-2.868v5.109H56.41v-5.107h-2.868v13.041zm22.66.221a6.742 6.742 0 1 0-6.62-6.741 6.7 6.7 0 0 0 6.617 6.741zm0-2.829a3.917 3.917 0 1 1 3.716-3.912 3.837 3.837 0 0 1-3.719 3.912zm20.622-5.969a4.4 4.4 0 0 0-4.51-4.464h-4.348v13.041h2.868V116.5h1.479a4.385 4.385 0 0 0 4.51-4.445zm-2.778 0a1.7 1.7 0 0 1-1.768 1.708h-1.444v-3.416h1.443a1.688 1.688 0 0 1 1.768 1.708zm25.979 8.577v-13.041h-2.886v8.045l-6.223-8.045h-2.472v13.041h2.869v-8.063l6.241 8.063h2.471zm11.765.221a6.742 6.742 0 1 0-6.62-6.741 6.7 6.7 0 0 0 6.619 6.741zm0-2.829a3.917 3.917 0 1 1 3.716-3.912 3.837 3.837 0 0 1-3.717 3.912zm21.686 2.608h2.723l2.976-13.041h-3.067l-1.749 8.266-3.608-8.486-3.589 8.486-1.75-8.266h-3.067l2.959 13.041h2.723l2.724-6.392z"/></g><path id="Leather_Duffle_Bag" data-name="Leather Duffle Bag" class="cls-2" d="M38.884 68.092h17.394v-5.836H44.989V40.831h-6.105v27.261zm23.116 0h17.279v-5.836H68.105V57.38h8.87v-5.836h-8.87v-4.877h11.174v-5.836H62v27.261zm20.928 0H89.3l2.419-5.759h11.291l2.419 5.759h6.371l-11.67-27.261H94.6zm11.02-11.058l3.417-8.217 3.418 8.217h-6.835zm24.807 11.058h6.145V46.667h7.027v-5.836h-20.12v5.836h6.95v21.425zm18.816 0h6.1V57.3h10.982v10.792h6.105V40.831h-6.105v10.674h-10.977V40.831h-6.1v27.261zm30.873 0h17.279v-5.836H174.55V57.38h8.869v-5.836h-8.869v-4.877h11.173v-5.836h-17.279v27.261zm23.847 0h6.1v-11.25h1l9.062 11.25h7.334l-9.638-12.018c3.456-1.229 5.337-3.494 5.337-7.026a8.049 8.049 0 0 0-8.447-8.217h-10.748v27.261zm6.1-16.434v-5.221h3.916c1.8 0 3.111.96 3.111 2.611 0 1.574-1.306 2.611-3.111 2.611H198.4zm30.835 16.434h9.292a13.633 13.633 0 1 0 0-27.261h-9.292v27.261zm6.105-5.606V46.437h3.187a7.693 7.693 0 0 1 7.718 8.025 7.693 7.693 0 0 1-7.718 8.025h-3.187zm34.176 6.067c6.527 0 11.212-4.454 11.212-11.25V40.831h-6.106V57.38c0 3.264-2.073 5.26-5.106 5.26s-5.107-2-5.107-5.26V40.831h-6.1V57.3c0 6.8 4.646 11.253 11.212 11.253zm18.585-.461h6.108V57.418h8.332v-5.836H294.2v-4.915h10.674v-5.836H288.1v27.261zm22.848 0h6.106V57.418h8.332v-5.836h-8.332v-4.915h10.674v-5.836h-16.78v27.261zm22.848 0h17.394v-5.836H339.9V40.831h-6.106v27.261zm23.117 0h17.278v-5.836h-11.168V57.38h8.87v-5.836h-8.87v-4.877h11.173v-5.836H356.91v27.261zm34.213 0H403.1a8.06 8.06 0 0 0 8.294-8.025 7.123 7.123 0 0 0-3.878-6.45 6.417 6.417 0 0 0 1.958-4.684 8.1 8.1 0 0 0-8.1-8.1h-10.251v27.259zm6.106-16.242V46.4h3.455a2.771 2.771 0 0 1 2.842 2.764 2.733 2.733 0 0 1-2.842 2.688h-3.455zm0 10.636v-5.452h5.337a2.774 2.774 0 0 1 2.88 2.726 2.74 2.74 0 0 1-2.842 2.726h-5.375zm16.512 5.606h6.374l2.419-5.759h11.289l2.419 5.759h6.374l-11.668-27.261h-5.529zm11.02-11.058l3.418-8.217 3.417 8.217h-6.835zm34.714 11.519c4.415 0 8.754-1.305 11.173-4.032V51.582H459.36V57.3h5.34v4.032c-1.152.922-3.149 1.306-5.3 1.306-5.337 0-8.6-3.532-8.6-8.178a8 8 0 0 1 8.217-8.178 9.054 9.054 0 0 1 6.873 2.918l4.3-4.185a14.506 14.506 0 0 0-11.174-4.646 13.926 13.926 0 0 0-14.361 14.091c-.002 7.988 6.334 14.093 14.82 14.093z"/></svg>