<svg id="copy_copy_2" data-name="copy copy 2" xmlns="http://www.w3.org/2000/svg" width="768" height="469"><defs><style>.cls-2{fill-rule:evenodd}</style></defs><path id="Rectangle_106_copy_5" data-name="Rectangle 106 copy 5" fill="#fff" d="M0 0h768v469H0z"/><g id="CTA_underline_copy_2" data-name="CTA_underline copy 2"><path id="Rectangle_4_copy_4" data-name="Rectangle 4 copy 4" d="M39 375h122v4H39z"/><path id="Shop_now" data-name="Shop now" class="cls-2" d="M43.817 367.853c2.706 0 4.564-1.653 4.582-4.023.018-1.965-1.19-3.214-3.048-3.894l-.9-.33c-1.353-.5-1.984-.808-1.984-1.506 0-.68.776-.992 1.551-.992a2.831 2.831 0 0 1 2.219 1.083l1.876-2.02a5.3 5.3 0 0 0-4.131-1.8c-2.561 0-4.419 1.488-4.419 4.022 0 1.782 1.154 3.049 3.229 3.766l.9.312c1.281.441 1.786.9 1.786 1.561 0 .625-.6 1.084-1.551 1.084a3.335 3.335 0 0 1-2.652-1.488l-2.2 1.892a5.583 5.583 0 0 0 4.742 2.333zm9.726-.221h2.867v-5.161h5.159v5.161h2.868v-13.041h-2.868v5.109H56.41v-5.107h-2.868v13.041zm22.66.221a6.742 6.742 0 1 0-6.62-6.741 6.7 6.7 0 0 0 6.617 6.741zm0-2.829a3.917 3.917 0 1 1 3.716-3.912 3.837 3.837 0 0 1-3.719 3.912zm20.622-5.969a4.4 4.4 0 0 0-4.51-4.464h-4.348v13.041h2.868V363.5h1.479a4.385 4.385 0 0 0 4.51-4.445zm-2.778 0a1.7 1.7 0 0 1-1.768 1.708h-1.444v-3.416h1.443a1.688 1.688 0 0 1 1.768 1.708zm25.979 8.577v-13.041h-2.886v8.045l-6.223-8.045h-2.472v13.041h2.869v-8.063l6.241 8.063h2.471zm11.765.221a6.742 6.742 0 1 0-6.62-6.741 6.7 6.7 0 0 0 6.619 6.741zm0-2.829a3.917 3.917 0 1 1 3.716-3.912 3.837 3.837 0 0 1-3.717 3.912zm21.686 2.608h2.723l2.976-13.041h-3.067l-1.749 8.266-3.608-8.486-3.589 8.486-1.75-8.266h-3.067l2.959 13.041h2.723l2.724-6.392z"/></g><path id="Slim_Herringbone_Italian_Wool_Flannel_Suit_Italian_wool_b._201" data-name="Slim Herringbone Italian Wool Flannel Suit Italian wool, b. 201" class="cls-2" d="M50.024 68.553c5.76 0 9.715-3.456 9.753-8.409.038-4.108-2.534-6.719-6.489-8.14l-1.92-.691c-2.88-1.037-4.224-1.689-4.224-3.148 0-1.421 1.651-2.073 3.3-2.073a6.064 6.064 0 0 1 4.723 2.265l3.993-4.224a11.376 11.376 0 0 0-8.793-3.763c-5.452 0-9.407 3.11-9.407 8.409 0 3.724 2.457 6.374 6.873 7.871l1.92.653c2.726.922 3.8 1.881 3.8 3.264 0 1.306-1.267 2.265-3.3 2.265a7.132 7.132 0 0 1-5.644-3.11l-4.684 3.955a11.954 11.954 0 0 0 10.099 4.876zm15.9-.461h17.392v-5.836H72.027V40.831h-6.105v27.261zm23.116 0h6.105V40.831h-6.107v27.261zm27.877-5.8l7.948-11.02v16.82h6.144V40.831h-5.568l-8.526 11.749-8.524-11.749h-5.568v27.261h6.105V51.275zm32.141 5.8h6.1V57.3h10.981v10.792h6.106V40.831h-6.106v10.674h-10.978V40.831h-6.1v27.261zm30.873 0h17.279v-5.836h-11.176V57.38h8.87v-5.836h-8.87v-4.877h11.174v-5.836h-17.279v27.261zm23.847 0h6.1v-11.25h1l9.062 11.25h7.334l-9.638-12.018c3.456-1.229 5.337-3.494 5.337-7.026a8.049 8.049 0 0 0-8.447-8.217h-10.75v27.261zm6.1-16.434v-5.221h3.922c1.805 0 3.11.96 3.11 2.611 0 1.574-1.305 2.611-3.11 2.611h-3.916zm21.235 16.434h6.1v-11.25h1l9.062 11.25h7.334l-9.638-12.018c3.456-1.229 5.337-3.494 5.337-7.026a8.049 8.049 0 0 0-8.447-8.217h-10.745v27.261zm6.1-16.434v-5.221h3.917c1.8 0 3.11.96 3.11 2.611 0 1.574-1.306 2.611-3.11 2.611h-3.917zm21.235 16.434h6.1V40.831h-6.1v27.261zm38.436 0V40.831h-6.143v16.818L277.5 40.831h-5.261v27.261h6.106V51.236l13.285 16.856h5.26zm21.016.461c4.415 0 8.754-1.305 11.173-4.032V51.582h-11.29V57.3h5.337v4.032c-1.152.922-3.149 1.306-5.3 1.306-5.337 0-8.6-3.532-8.6-8.178a8 8 0 0 1 8.217-8.178 9.054 9.054 0 0 1 6.873 2.918l4.3-4.185a14.506 14.506 0 0 0-11.174-4.646 13.926 13.926 0 0 0-14.361 14.091c.001 7.988 6.337 14.093 14.825 14.093zm17.895-.461h11.98a8.059 8.059 0 0 0 8.293-8.025 7.123 7.123 0 0 0-3.878-6.45 6.417 6.417 0 0 0 1.958-4.684 8.1 8.1 0 0 0-8.1-8.1h-10.255v27.259zm6.105-16.241V46.4h3.455a2.771 2.771 0 0 1 2.842 2.764 2.733 2.733 0 0 1-2.842 2.688H341.9zm0 10.636v-5.453h5.337a2.774 2.774 0 0 1 2.88 2.726 2.74 2.74 0 0 1-2.842 2.726H341.9zm32.754 6.067a14.091 14.091 0 1 0-14.094-14.092 14.126 14.126 0 0 0 14.092 14.091zm0-5.913a8.183 8.183 0 1 1 7.91-8.178 8.088 8.088 0 0 1-7.912 8.177zm44.888 5.452V40.831H413.4v16.818l-13.25-16.818h-5.261v27.261H401V51.236l13.28 16.856h5.26zm7.682 0H444.5v-5.837h-11.173V57.38h8.87v-5.836h-8.87v-4.877H444.5v-5.836h-17.278v27.261zm34.214 0h6.105V40.831h-6.105v27.261zm18.7 0h6.143V46.667h7.027v-5.836h-20.12v5.836h6.95v21.425zm13.133 0h6.374l2.419-5.759h11.289l2.419 5.759h6.374l-11.675-27.262h-5.529zm11.02-11.058l3.418-8.217 3.417 8.217h-6.835zm22.618 11.058H544.3v-5.837h-11.287V40.831h-6.106v27.261zm23.117 0h6.105V40.831h-6.105v27.261zm10.867 0h6.374l2.419-5.759h11.289l2.419 5.759h6.374l-11.675-27.262h-5.529zm11.02-11.058l3.417-8.217 3.417 8.217h-6.834zm47.267 11.057V40.831h-6.144v16.818l-13.247-16.818h-5.26v27.261h6.105V51.236l13.286 16.856h5.26zm-555.832 40.8h5.8l6.333-27.262h-6.527l-3.725 17.278-7.679-17.739-7.641 17.739-3.725-17.278h-6.527l6.3 27.261h5.8l5.8-13.362zm29.761.461a14.091 14.091 0 1 0-14.092-14.092 14.125 14.125 0 0 0 14.091 14.091zm0-5.913a8.183 8.183 0 1 1 7.91-8.178 8.089 8.089 0 0 1-7.911 8.177zm32.793 5.913a14.091 14.091 0 1 0-14.092-14.092 14.125 14.125 0 0 0 14.09 14.091zm0-5.913a8.183 8.183 0 1 1 7.91-8.178 8.088 8.088 0 0 1-7.912 8.177zm20.238 5.452h17.393v-5.836h-11.289V81.63h-6.1v27.261zm32.447 0h6.1V98.217h8.332v-5.836h-8.332v-4.915h10.674V81.63h-16.775v27.261zm22.848 0h17.394v-5.836h-11.29V81.63h-6.1v27.261zm20.2 0h6.374l2.419-5.759h11.289l2.419 5.759h6.373L238.834 81.63h-5.529zm11.02-11.058l3.417-8.217 3.417 8.217h-6.834zm47.269 11.058V81.63h-6.144v16.817L260.53 81.63h-5.26v27.261h6.1V92.035l13.286 16.856h5.26zm32.332 0V81.63h-6.146v16.817L292.863 81.63H287.6v27.261h6.106V92.035l13.285 16.856h5.26zm7.682 0h17.279v-5.836H326.04v-4.877h8.87v-5.837h-8.87v-4.876h11.174V81.63h-17.279v27.261zm23.846 0h17.394v-5.836h-11.291V81.63h-6.106v27.261zm40.588.461c5.759 0 9.714-3.456 9.753-8.409.038-4.108-2.535-6.719-6.489-8.14l-1.92-.691c-2.88-1.037-4.224-1.689-4.224-3.148 0-1.421 1.651-2.073 3.3-2.073a6.064 6.064 0 0 1 4.723 2.265l3.993-4.224a11.376 11.376 0 0 0-8.793-3.763c-5.452 0-9.407 3.11-9.407 8.409 0 3.724 2.457 6.374 6.873 7.871l1.919.65c2.726.921 3.8 1.881 3.8 3.264 0 1.305-1.267 2.265-3.3 2.265a7.131 7.131 0 0 1-5.644-3.11l-4.685 3.955a11.956 11.956 0 0 0 10.098 4.878zm26.8 0c6.528 0 11.212-4.454 11.212-11.25V81.63h-6.1v16.549c0 3.263-2.073 5.26-5.107 5.26s-5.106-2-5.106-5.26V81.63h-6.106V98.1c-.006 6.8 4.64 11.252 11.206 11.252zm18.586-.461h6.105V81.63h-6.105v27.261zm18.7 0h6.142V87.466h7.027V81.63h-20.12v5.836h6.95v21.425zM41.486 142.49h2.456v-18.746h-2.456v18.746zm15.524-.185v-2.033a5 5 0 0 1-1.611.264c-1.426 0-2.191-.554-2.191-2.244v-6.917h3.8v-2.086h-3.8v-3.67h-2.271v3.67h-2.8v2.086h2.8v7.208a3.716 3.716 0 0 0 4.04 4.039 6.313 6.313 0 0 0 2.033-.317zm3.009-6.415a6.606 6.606 0 0 0 6.469 6.864 5.788 5.788 0 0 0 4.647-2.3v2.033h2.271v-13.2h-2.271v2.033a5.788 5.788 0 0 0-4.647-2.3 6.606 6.606 0 0 0-6.469 6.87zm11.3 0a4.51 4.51 0 1 1-4.489-4.779 4.508 4.508 0 0 1 4.489 4.779zm7.681 6.6h2.271v-19.8H79v19.8zm10.639-18.35a1.594 1.594 0 0 0-1.584-1.61 1.64 1.64 0 0 0-1.637 1.61 1.623 1.623 0 0 0 1.637 1.611 1.578 1.578 0 0 0 1.584-1.611zm-2.746 18.35h2.271v-13.2h-2.271v13.2zm6.864-6.6a6.606 6.606 0 0 0 6.469 6.864 5.787 5.787 0 0 0 4.647-2.3v2.033h2.271v-13.2h-2.271v2.033a5.787 5.787 0 0 0-4.647-2.3 6.606 6.606 0 0 0-6.469 6.87zm11.3 0a4.51 4.51 0 1 1-4.489-4.779 4.508 4.508 0 0 1 4.49 4.779zm7.681 6.6h2.27v-6.548c0-3.089 1.69-4.831 3.829-4.831 1.848 0 3.116 1.373 3.116 3.59v7.789h2.247v-8.132c0-3.274-2.033-5.333-4.99-5.333a4.669 4.669 0 0 0-4.2 2.3v-2.033h-2.27v13.2zm35.35 0h2.012l4.489-13.2h-2.4l-3.195 9.637-3.3-9.637h-1.743l-3.3 9.637-3.195-9.637h-2.377l4.489 13.2h2.007l3.274-9.5zm22.968-6.6a6.9 6.9 0 1 0-6.891 6.864 6.774 6.774 0 0 0 6.892-6.864zm-11.485 0a4.584 4.584 0 1 1 4.594 4.752 4.537 4.537 0 0 1-4.593-4.752zm28.8 0a6.9 6.9 0 1 0-6.891 6.864 6.774 6.774 0 0 0 6.895-6.864zm-11.485 0a4.584 4.584 0 1 1 4.594 4.752 4.537 4.537 0 0 1-4.59-4.752zm16.05 6.6h2.271v-19.8h-2.267v19.8zm10.719-.581a2.258 2.258 0 0 0 .37-1.188 1.954 1.954 0 1 0-3.908 0 1.966 1.966 0 0 0 1.082 1.769l-1.769 3.776h1.5zm15.285-1.452a5.787 5.787 0 0 0 4.647 2.3 6.877 6.877 0 0 0 0-13.729 5.787 5.787 0 0 0-4.647 2.3v-8.634h-2.271v19.8h2.271v-2.033zm8.793-4.567a4.5 4.5 0 1 1-4.489-4.779 4.508 4.508 0 0 1 4.493 4.779zm9.766 4.831a1.954 1.954 0 1 0-1.954 1.981 1.989 1.989 0 0 0 1.955-1.981zm23.901-.421h-9.347c.449-2.165 2.641-3.248 4.806-4.832 3.063-2.218 4.33-3.8 4.33-6.548 0-3.644-2.667-5.492-5.782-5.492-3.459 0-6.179 2.324-6.179 5.915h2.324a3.62 3.62 0 0 1 3.881-3.7 3.17 3.17 0 0 1 3.432 3.248c0 2.191-1.161 3.168-3.326 4.779-2.773 2.059-6.285 3.907-6.285 7.921v.9H261.4V140.3zm17.477-4.594v-5.228c0-4.145-2.8-7.05-6.654-7.05s-6.627 2.9-6.627 7.05v5.228c0 4.171 2.772 7.049 6.627 7.049s6.65-2.879 6.65-7.05zm-11.01 0v-5.228c0-3.036 1.822-4.832 4.356-4.832 2.562 0 4.383 1.8 4.383 4.832v5.228c0 3.036-1.821 4.831-4.383 4.831-2.538-.001-4.36-1.796-4.36-4.832zm17.687 6.785h2.271v-18.747h-4.04l-1.848 2.244h3.617v16.5zm20.937-6.785v-5.228c0-4.145-2.8-7.05-6.654-7.05s-6.627 2.9-6.627 7.05v5.228c0 4.171 2.772 7.049 6.627 7.049s6.65-2.879 6.65-7.05zm-11.01 0v-5.228c0-3.036 1.822-4.832 4.356-4.832 2.562 0 4.383 1.8 4.383 4.832v5.228c0 3.036-1.821 4.831-4.383 4.831-2.537-.001-4.36-1.796-4.36-4.832zM41.26 195.289h6.1c3.457 0 5.713-2.136 5.713-4.969a4.062 4.062 0 0 0-2.953-4.081 3.862 3.862 0 0 0 1.824-3.48c0-2.4-1.92-4.513-5.089-4.513H41.26v17.043zm2.233-9.722v-5.305h3.361a2.679 2.679 0 0 1 2.9 2.665 2.623 2.623 0 0 1-2.9 2.64h-3.361zm0 7.706v-5.786h3.985c2.256 0 3.409 1.249 3.409 2.905 0 1.68-1.152 2.881-3.433 2.881h-3.961zm12.815-3.985a6.006 6.006 0 0 0 5.881 6.241 5.264 5.264 0 0 0 4.225-2.088v1.848h2.064v-12h-2.064v1.848a5.264 5.264 0 0 0-4.225-2.088 6.006 6.006 0 0 0-5.881 6.239zm10.274 0a4.1 4.1 0 1 1-4.081-4.345 4.1 4.1 0 0 1 4.081 4.345zm6.982 6h2.064v-5.953c0-2.809 1.536-4.393 3.481-4.393 1.68 0 2.833 1.248 2.833 3.265v7.081h2.04V187.9c0-2.977-1.848-4.849-4.537-4.849a4.244 4.244 0 0 0-3.817 2.088v-1.848h-2.064v12zm14.4-6a6.006 6.006 0 0 0 5.881 6.241 5.264 5.264 0 0 0 4.225-2.088v1.848h2.064v-12H98.07v1.848a5.264 5.264 0 0 0-4.225-2.088 6.006 6.006 0 0 0-5.881 6.239zm10.274 0a4.1 4.1 0 1 1-4.081-4.345 4.1 4.1 0 0 1 4.081 4.345zm6.981 6h2.065v-5.953c0-2.809 1.536-4.393 3.481-4.393 1.68 0 2.832 1.248 2.832 3.265v7.081h2.041V187.9c0-2.977-1.849-4.849-4.537-4.849a4.244 4.244 0 0 0-3.817 2.088v-1.848h-2.065v12zm14.4-6a6.006 6.006 0 0 0 5.881 6.241 5.263 5.263 0 0 0 4.225-2.088v1.848h2.065v-12h-2.065v1.848a5.263 5.263 0 0 0-4.225-2.088 6.005 6.005 0 0 0-5.881 6.239zm10.274 0a4.1 4.1 0 1 1-4.081-4.345 4.1 4.1 0 0 1 4.081 4.345zm14.35 6h2.232v-7.754h1.657l6.553 7.754h2.809l-6.554-7.778c2.617-.384 4.2-2.064 4.2-4.56 0-2.809-1.944-4.7-5.089-4.7h-5.809v17.043zm2.232-9.746v-5.232h3.313c1.944 0 3.121.912 3.121 2.641 0 1.7-1.177 2.592-3.121 2.592h-3.313zm12.6 3.745a6.328 6.328 0 0 0 11.619 3.384l-1.633-1.128a4.249 4.249 0 0 1-7.9-1.848h9.842a5.856 5.856 0 0 0 .024-.624c-.024-3.841-2.569-6.025-5.713-6.025a6.082 6.082 0 0 0-6.24 6.242zm6.17-4.417a3.59 3.59 0 0 1 3.672 3.145h-7.609a3.923 3.923 0 0 1 3.936-3.144zm9.91 15.435h2.065v-6.865a5.263 5.263 0 0 0 4.225 2.088 6.252 6.252 0 0 0 0-12.482 5.263 5.263 0 0 0-4.225 2.088v-1.848h-2.065v17.019zm10.059-11.018a4.089 4.089 0 1 1-4.081-4.345 4.1 4.1 0 0 1 4.08 4.346zm6.117 1.368c0 2.977 1.777 4.873 4.417 4.873a4.129 4.129 0 0 0 3.7-2.088v1.848h2.064v-12h-2.064v5.953c0 2.76-1.464 4.393-3.337 4.393-1.656 0-2.712-1.273-2.712-3.289v-7.057h-2.069v7.369zm17.329 2.785a5.262 5.262 0 0 0 4.224 2.088 6.252 6.252 0 0 0 0-12.482 5.262 5.262 0 0 0-4.224 2.088v-7.849h-2.065v18h2.065v-1.848zm7.993-4.153a4.089 4.089 0 1 1-4.081-4.345 4.1 4.1 0 0 1 4.08 4.346zm6.262 6h2.064v-18h-2.064v18zm9.672-16.683a1.449 1.449 0 0 0-1.44-1.464 1.491 1.491 0 0 0-1.488 1.464 1.475 1.475 0 0 0 1.488 1.464 1.434 1.434 0 0 0 1.439-1.462zm-2.5 16.683h2.064v-12h-2.061v12zm18.074-2.977l-1.8-1.008a4.071 4.071 0 0 1-3.745 2.305 4.323 4.323 0 0 1 0-8.642 4.07 4.07 0 0 1 3.745 2.3l1.8-1.008a6.216 6.216 0 0 0-5.545-3.216 6.241 6.241 0 1 0 0 12.482 6.215 6.215 0 0 0 5.548-3.211zm10.917 2.977h2.064v-5.953c0-2.809 1.537-4.393 3.481-4.393 1.681 0 2.833 1.248 2.833 3.265v7.081h2.04V187.9c0-2.977-1.848-4.849-4.537-4.849a4.246 4.246 0 0 0-3.817 2.088v-7.849h-2.064v18zm14.4-6a6.006 6.006 0 0 0 5.881 6.241 5.266 5.266 0 0 0 4.225-2.088v1.848h2.064v-12h-2.064v1.848a5.266 5.266 0 0 0-4.225-2.088 6.005 6.005 0 0 0-5.878 6.24zm10.274 0a4.1 4.1 0 1 1-4.081-4.345 4.1 4.1 0 0 1 4.084 4.346zm14.759 2.664c0-1.8-1.128-2.952-3.169-3.624l-1.3-.432c-1.416-.457-1.848-.913-1.848-1.681 0-.888.888-1.392 2.016-1.392a3.244 3.244 0 0 1 2.545 1.248l1.344-1.3a4.654 4.654 0 0 0-3.841-1.728c-2.376 0-4.057 1.32-4.057 3.264 0 1.681 1.033 2.857 2.977 3.481l1.176.384c1.561.5 2.137 1.08 2.137 1.92 0 1.033-.937 1.633-2.113 1.633a3.22 3.22 0 0 1-3.072-1.9l-1.681.912a4.767 4.767 0 0 0 4.7 2.785c2.437.008 4.189-1.216 4.189-3.569zm10.27-2.664a6.006 6.006 0 0 0 5.881 6.241 5.264 5.264 0 0 0 4.225-2.088v1.848h2.064v-12h-2.061v1.848a5.264 5.264 0 0 0-4.225-2.088 6.005 6.005 0 0 0-5.881 6.24zm10.274 0a4.1 4.1 0 1 1-4.081-4.345 4.1 4.1 0 0 1 4.084 4.346zm6.982 6h2.063v-5.953c0-2.809 1.536-4.393 3.481-4.393 1.68 0 2.832 1.248 2.832 3.265v7.081h2.041V187.9c0-2.977-1.848-4.849-4.537-4.849a4.245 4.245 0 0 0-3.817 2.088v-1.848h-2.06v12zm22.223-4.633c0 2.977 1.777 4.873 4.417 4.873a4.13 4.13 0 0 0 3.7-2.088v1.848h2.064v-12h-2.064v5.953c0 2.76-1.464 4.393-3.337 4.393-1.656 0-2.712-1.273-2.712-3.289v-7.057h-2.065v7.369zm15.264 4.633h2.064v-5.953c0-2.809 1.537-4.393 3.481-4.393 1.681 0 2.833 1.248 2.833 3.265v7.081h2.04V187.9c0-2.977-1.848-4.849-4.537-4.849a4.246 4.246 0 0 0-3.817 2.088v-1.848h-2.064v12zm25.49 0h1.825l4.08-12h-2.184l-2.9 8.761-3-8.761h-1.585l-3 8.761-2.9-8.761h-2.16l4.08 12h1.825l2.977-8.642zm8.349-6a6.007 6.007 0 0 0 5.882 6.241 5.266 5.266 0 0 0 4.225-2.088v1.848h2.064v-12h-2.064v1.848a5.266 5.266 0 0 0-4.225-2.088 6.006 6.006 0 0 0-5.879 6.24zm10.275 0a4.1 4.1 0 1 1-4.081-4.345 4.1 4.1 0 0 1 4.084 4.346zm10.726 6h1.736l5.545-12h-2.305l-4.105 9.073-4.1-9.073h-2.305zm9.359-6a6.328 6.328 0 0 0 11.619 3.384l-1.633-1.128a4.249 4.249 0 0 1-7.9-1.848h9.842a5.856 5.856 0 0 0 .024-.624c-.024-3.841-2.569-6.025-5.713-6.025a6.082 6.082 0 0 0-6.236 6.242zm6.17-4.417a3.59 3.59 0 0 1 3.672 3.145h-7.609a3.923 3.923 0 0 1 3.944-3.144zm9.91 10.418h2.065v-5.953c0-2.809 1.656-4.129 3.168-4.129a3.019 3.019 0 0 1 1.129.192v-2.136a4.279 4.279 0 0 0-.937-.1 3.57 3.57 0 0 0-3.36 2.448v-2.328h-2.065v12zm12.481-16.683a1.449 1.449 0 0 0-1.44-1.464 1.491 1.491 0 0 0-1.489 1.464 1.475 1.475 0 0 0 1.489 1.464 1.434 1.434 0 0 0 1.443-1.463zm-2.5 16.683h2.065v-12h-2.059v12zm7.176 0h2.065v-5.953c0-2.809 1.536-4.393 3.48-4.393 1.681 0 2.833 1.248 2.833 3.265v7.081h2.04V187.9c0-2.977-1.848-4.849-4.537-4.849a4.243 4.243 0 0 0-3.816 2.088v-1.848h-2.065v12zm26.522-.7v-11.301h-2.064v1.848a5.108 5.108 0 0 0-4.177-2.088 6.114 6.114 0 0 0 0 12.218 5.126 5.126 0 0 0 4.177-2.112v1.368a3.838 3.838 0 0 1-4.009 4.153 5.136 5.136 0 0 1-4.2-2.017l-1.44 1.44a7.122 7.122 0 0 0 5.665 2.449c3.414 0 6.054-1.946 6.054-5.953zm-10.01-5.449a4.059 4.059 0 1 1 4.057 4.2 4 4 0 0 1-4.051-4.195zm33.05 3.168l-1.8-1.008a4.069 4.069 0 0 1-3.745 2.305 4.323 4.323 0 0 1 0-8.642 4.068 4.068 0 0 1 3.745 2.3l1.8-1.008a6.218 6.218 0 0 0-5.546-3.216 6.241 6.241 0 1 0 0 12.482 6.216 6.216 0 0 0 5.552-3.208zm15.455-3.024a6.277 6.277 0 1 0-6.265 6.241 6.159 6.159 0 0 0 6.271-6.236zm-10.442 0a4.168 4.168 0 1 1 4.177 4.321 4.126 4.126 0 0 1-4.171-4.316zm14.592 6h2.073v-5.953c0-2.713 1.368-4.393 3.313-4.393 1.56 0 2.352 1.344 2.352 3.289v7.057h2.065v-5.953c0-2.713 1.344-4.393 3.289-4.393 1.56 0 2.376 1.344 2.376 3.289v7.057h2.064v-7.363c0-2.929-1.584-4.873-4.2-4.873a4.153 4.153 0 0 0-3.937 2.568 3.773 3.773 0 0 0-3.7-2.568 4.035 4.035 0 0 0-3.625 2.088v-1.848h-2.064v12zm22.44 0h2.064v-5.953c0-2.713 1.368-4.393 3.313-4.393 1.56 0 2.352 1.344 2.352 3.289v7.057h2.065v-5.953c0-2.713 1.344-4.393 3.288-4.393 1.561 0 2.377 1.344 2.377 3.289v7.057h2.074v-7.363c0-2.929-1.584-4.873-4.2-4.873a4.153 4.153 0 0 0-3.936 2.568 3.774 3.774 0 0 0-3.7-2.568 4.034 4.034 0 0 0-3.625 2.088v-1.848h-2.064v12zm24.936-16.683a1.449 1.449 0 0 0-1.44-1.464 1.491 1.491 0 0 0-1.489 1.464 1.475 1.475 0 0 0 1.489 1.464 1.434 1.434 0 0 0 1.446-1.458zm-2.5 16.683h2.065v-12h-2.065v12zm13.682-.168v-1.848a4.568 4.568 0 0 1-1.465.24c-1.3 0-1.992-.5-1.992-2.041v-6.289h3.457v-1.9h-3.457v-3.327h-2.065v3.337h-2.544v1.9h2.544v6.553a3.379 3.379 0 0 0 3.673 3.673 5.749 5.749 0 0 0 1.858-.292zm3.838.168h2.077v-5.953c0-2.713 1.368-4.393 3.312-4.393 1.561 0 2.353 1.344 2.353 3.289v7.057h2.064v-5.953c0-2.713 1.345-4.393 3.289-4.393 1.56 0 2.377 1.344 2.377 3.289v7.057h2.064v-7.363c0-2.929-1.584-4.873-4.2-4.873a4.154 4.154 0 0 0-3.937 2.568 3.773 3.773 0 0 0-3.7-2.568 4.034 4.034 0 0 0-3.624 2.088v-1.848h-2.065v12zm21.5-6a6.327 6.327 0 0 0 11.618 3.384l-1.632-1.128a4.25 4.25 0 0 1-7.9-1.848h9.842a5.856 5.856 0 0 0 .024-.624c-.024-3.841-2.568-6.025-5.713-6.025a6.081 6.081 0 0 0-6.226 6.246zm6.169-4.417a3.591 3.591 0 0 1 3.673 3.145h-7.61a3.924 3.924 0 0 1 3.95-3.14zm9.911 10.418h2.064v-5.953c0-2.809 1.537-4.393 3.481-4.393 1.68 0 2.833 1.248 2.833 3.265v7.081h2.04V187.9c0-2.977-1.848-4.849-4.537-4.849a4.246 4.246 0 0 0-3.817 2.088v-1.848h-2.064v12zm21.7-.168v-1.848a4.562 4.562 0 0 1-1.464.24c-1.3 0-1.993-.5-1.993-2.041v-6.289h3.457v-1.9h-3.457v-3.328h-2.064v3.337h-2.545v1.9h2.545v6.553a3.378 3.378 0 0 0 3.673 3.673 5.743 5.743 0 0 0 1.858-.292zM47.454 223.92v-1.848a4.564 4.564 0 0 1-1.464.24c-1.3 0-1.992-.5-1.992-2.041v-6.289h3.457v-1.9H44v-3.337h-2.068v3.337h-2.544v1.9h2.544v6.554a3.378 3.378 0 0 0 3.673 3.672 5.745 5.745 0 0 0 1.849-.288zm15.265-5.833a6.277 6.277 0 1 0-6.265 6.241 6.159 6.159 0 0 0 6.265-6.241zm-10.442 0a4.168 4.168 0 1 1 4.177 4.321 4.126 4.126 0 0 1-4.177-4.321zm30.817 11.018h2.064v-17.019h-2.064v1.848a5.264 5.264 0 0 0-4.225-2.088 6.252 6.252 0 0 0 0 12.482 5.264 5.264 0 0 0 4.225-2.088v6.865zm.168-11.018a4.1 4.1 0 1 1-4.081-4.345 4.1 4.1 0 0 1 4.081 4.345zm6.814 1.368c0 2.977 1.776 4.873 4.417 4.873a4.13 4.13 0 0 0 3.7-2.088v1.848h2.065v-12h-2.069v5.953c0 2.761-1.464 4.393-3.337 4.393-1.656 0-2.713-1.272-2.713-3.289v-7.057h-2.063v7.369zm14.327-1.368a6.006 6.006 0 0 0 5.882 6.241 5.262 5.262 0 0 0 4.224-2.088v1.848h2.065v-12h-2.065v1.848a5.262 5.262 0 0 0-4.224-2.088 6.006 6.006 0 0 0-5.885 6.239zm10.274 0a4.1 4.1 0 1 1-4.08-4.345 4.1 4.1 0 0 1 4.08 4.345zm6.982 6h2.065v-18h-2.065v18zm9.673-16.683a1.45 1.45 0 0 0-1.441-1.464 1.491 1.491 0 0 0-1.488 1.464 1.475 1.475 0 0 0 1.488 1.464 1.435 1.435 0 0 0 1.441-1.463zm-2.5 16.683h2.068v-12h-2.064v12zm13.681-.168v-1.848a4.562 4.562 0 0 1-1.464.24c-1.3 0-1.992-.5-1.992-2.041v-6.289h3.456v-1.9h-3.453v-3.337H137v3.337h-2.544v1.9H137v6.554a3.378 3.378 0 0 0 3.673 3.672 5.743 5.743 0 0 0 1.843-.287zm7.031 5.185l7.874-17.019h-2.3l-4.1 9.1-4.129-9.1H144.6l5.258 11.378-2.617 5.641h2.3zm16.728-11.018a6.005 6.005 0 0 0 5.881 6.241 5.264 5.264 0 0 0 4.225-2.088v1.848h2.064v-12h-2.064v1.848a5.264 5.264 0 0 0-4.225-2.088 6.005 6.005 0 0 0-5.878 6.24zm10.274 0a4.1 4.1 0 1 1-4.081-4.345 4.1 4.1 0 0 1 4.084 4.346zm6.981 6h2.073v-5.953c0-2.808 1.536-4.393 3.481-4.393 1.68 0 2.832 1.248 2.832 3.265v7.081h2.041V216.7c0-2.977-1.849-4.849-4.537-4.849a4.244 4.244 0 0 0-3.817 2.088v-1.848h-2.07v12zm14.4-6a6.006 6.006 0 0 0 5.881 6.241 5.263 5.263 0 0 0 4.225-2.088v1.848h2.067v-18h-2.065v7.849a5.263 5.263 0 0 0-4.225-2.088 6.006 6.006 0 0 0-5.88 6.239zm10.274 0a4.1 4.1 0 1 1-4.081-4.345 4.1 4.1 0 0 1 4.08 4.346zm24.936 3.025l-1.8-1.009a4.069 4.069 0 0 1-3.745 2.3 4.323 4.323 0 0 1 0-8.642 4.069 4.069 0 0 1 3.745 2.305l1.8-1.008a6.215 6.215 0 0 0-5.545-3.217 6.241 6.241 0 1 0 0 12.482 6.216 6.216 0 0 0 5.548-3.21zm3.863 2.977h2.065v-5.953c0-2.808 1.656-4.129 3.168-4.129a3.019 3.019 0 0 1 1.129.192v-2.136a4.276 4.276 0 0 0-.936-.1 3.57 3.57 0 0 0-3.361 2.448v-2.328H237v12zm8.64-6a6.006 6.006 0 0 0 5.881 6.241 5.263 5.263 0 0 0 4.225-2.088v1.848h2.065v-12h-2.065v1.848a5.263 5.263 0 0 0-4.225-2.088 6.006 6.006 0 0 0-5.88 6.238zm10.274 0a4.1 4.1 0 1 1-4.081-4.345 4.1 4.1 0 0 1 4.082 4.344zm7.99 6h2.065v-10.106h3.168v-1.9h-3.167v-2.208c0-1.513.672-2.041 1.992-2.041a4.844 4.844 0 0 1 1.489.24v-1.824a5.464 5.464 0 0 0-1.873-.312 3.379 3.379 0 0 0-3.673 3.672v2.473h-2.544v1.9h2.539v10.106zm14.379-.168v-1.848a4.715 4.715 0 0 1-1.488.24c-1.3 0-1.992-.5-1.992-2.041v-6.289h3.48v-1.9H274.8v-3.337h-2.065v3.337h-2.256v1.9h2.256v6.554a3.4 3.4 0 0 0 3.7 3.672 5.974 5.974 0 0 0 1.849-.288zm11.615-3.168c0-1.8-1.129-2.953-3.169-3.625l-1.3-.432c-1.417-.456-1.849-.912-1.849-1.681 0-.888.888-1.392 2.017-1.392a3.242 3.242 0 0 1 2.544 1.248l1.344-1.3a4.654 4.654 0 0 0-3.84-1.728c-2.377 0-4.057 1.32-4.057 3.265 0 1.68 1.032 2.856 2.976 3.48l1.177.384c1.56.5 2.136 1.08 2.136 1.921 0 1.032-.936 1.632-2.112 1.632a3.221 3.221 0 0 1-3.073-1.9l-1.68.912a4.767 4.767 0 0 0 4.7 2.784c2.434.008 4.188-1.22 4.188-3.568zm4.15 3.336h2.064v-5.953c0-2.712 1.368-4.393 3.313-4.393 1.56 0 2.352 1.345 2.352 3.289v7.057h2.065v-5.953c0-2.712 1.344-4.393 3.288-4.393 1.561 0 2.377 1.345 2.377 3.289v7.057h2.064v-7.369c0-2.929-1.584-4.873-4.2-4.873a4.153 4.153 0 0 0-3.937 2.568 3.773 3.773 0 0 0-3.7-2.568 4.035 4.035 0 0 0-3.625 2.088v-1.848h-2.064v12zm21.5-6a6.006 6.006 0 0 0 5.882 6.241 5.266 5.266 0 0 0 4.225-2.088v1.848h2.064v-12h-2.064v1.848a5.266 5.266 0 0 0-4.225-2.088 6.006 6.006 0 0 0-5.878 6.238zm10.275 0a4.1 4.1 0 1 1-4.081-4.345 4.1 4.1 0 0 1 4.085 4.344zm6.981 6h2.065v-5.953c0-2.808 1.536-4.393 3.48-4.393 1.681 0 2.833 1.248 2.833 3.265v7.081h2.041V216.7c0-2.977-1.849-4.849-4.537-4.849a4.244 4.244 0 0 0-3.817 2.088v-1.848h-2.065v12zm23.114-3.336c0-1.8-1.129-2.953-3.169-3.625l-1.3-.432c-1.417-.456-1.849-.912-1.849-1.681 0-.888.889-1.392 2.017-1.392a3.242 3.242 0 0 1 2.544 1.248l1.345-1.3a4.657 4.657 0 0 0-3.841-1.728c-2.377 0-4.057 1.32-4.057 3.265 0 1.68 1.032 2.856 2.977 3.48l1.176.384c1.56.5 2.136 1.08 2.136 1.921 0 1.032-.936 1.632-2.112 1.632a3.222 3.222 0 0 1-3.073-1.9l-1.68.912a4.767 4.767 0 0 0 4.7 2.784c2.437.008 4.19-1.22 4.19-3.568zm4.15 3.336h2.064v-5.953c0-2.808 1.537-4.393 3.481-4.393 1.68 0 2.833 1.248 2.833 3.265v7.081h2.04V216.7c0-2.977-1.848-4.849-4.537-4.849a4.245 4.245 0 0 0-3.817 2.088v-7.849h-2.064v18zm17.832-16.683a1.449 1.449 0 0 0-1.44-1.464 1.492 1.492 0 0 0-1.489 1.464 1.476 1.476 0 0 0 1.489 1.464 1.434 1.434 0 0 0 1.44-1.464zm-2.5 16.683h2.064v-12H375.4v12zm7.175 5.017h2.065v-6.865a5.263 5.263 0 0 0 4.225 2.088 6.252 6.252 0 0 0 0-12.482 5.263 5.263 0 0 0-4.225 2.088v-1.848h-2.065v17.019zm10.059-11.018a4.089 4.089 0 1 1-4.081-4.345 4.1 4.1 0 0 1 4.089 4.345zm8.9 4.393a1.777 1.777 0 1 0-1.776 1.8 1.808 1.808 0 0 0 1.786-1.8zm11.759 1.608h2.233v-17.043H413.3v17.043zm7.584 0h2.064v-5.953c0-2.808 1.537-4.393 3.481-4.393 1.68 0 2.833 1.248 2.833 3.265v7.081h2.04V216.7c0-2.977-1.848-4.849-4.537-4.849a4.246 4.246 0 0 0-3.817 2.088v-1.848h-2.064v12zM444 220.752c0-1.8-1.128-2.953-3.168-3.625l-1.3-.432c-1.416-.456-1.848-.912-1.848-1.681 0-.888.888-1.392 2.016-1.392a3.243 3.243 0 0 1 2.545 1.248l1.344-1.3a4.654 4.654 0 0 0-3.841-1.728c-2.376 0-4.056 1.32-4.056 3.265 0 1.68 1.032 2.856 2.976 3.48l1.176.384c1.561.5 2.137 1.08 2.137 1.921 0 1.032-.936 1.632-2.113 1.632a3.221 3.221 0 0 1-3.072-1.9l-1.681.912a4.769 4.769 0 0 0 4.7 2.784c2.433.008 4.185-1.22 4.185-3.568zm4.15 8.353h2.065v-6.865a5.263 5.263 0 0 0 4.225 2.088 6.252 6.252 0 0 0 0-12.482 5.263 5.263 0 0 0-4.225 2.088v-1.848h-2.065v17.019zm10.059-11.018a4.089 4.089 0 1 1-4.081-4.345 4.1 4.1 0 0 1 4.081 4.345zm8.782-10.682a1.449 1.449 0 0 0-1.44-1.464 1.491 1.491 0 0 0-1.489 1.464 1.475 1.475 0 0 0 1.489 1.464 1.434 1.434 0 0 0 1.44-1.464zm-2.5 16.683h2.065v-12h-2.065v12zm7.176 0h2.065v-5.953c0-2.808 1.656-4.129 3.168-4.129a3.025 3.025 0 0 1 1.129.192v-2.136a4.285 4.285 0 0 0-.937-.1 3.57 3.57 0 0 0-3.36 2.448v-2.328h-2.062v12zm8.616-6a6.328 6.328 0 0 0 11.619 3.385l-1.633-1.129a4.249 4.249 0 0 1-7.9-1.848h9.842a5.856 5.856 0 0 0 .024-.624c-.024-3.841-2.569-6.025-5.713-6.025a6.082 6.082 0 0 0-6.236 6.24zm6.169-4.417a3.591 3.591 0 0 1 3.673 3.145h-7.609a3.923 3.923 0 0 1 3.939-3.146zm8.975 4.417a6.006 6.006 0 0 0 5.881 6.241 5.263 5.263 0 0 0 4.225-2.088v1.848h2.067v-18h-2.065v7.849a5.263 5.263 0 0 0-4.225-2.088 6.006 6.006 0 0 0-5.88 6.237zm10.274 0a4.1 4.1 0 1 1-4.081-4.345 4.1 4.1 0 0 1 4.08 4.344zm16.1 4.153a5.264 5.264 0 0 0 4.225 2.088 6.252 6.252 0 0 0 0-12.482 5.264 5.264 0 0 0-4.225 2.088v-7.849h-2.064v18h2.064v-1.846zm7.994-4.153a4.089 4.089 0 1 1-4.081-4.345 4.1 4.1 0 0 1 4.086 4.344zm9.214 11.018l7.874-17.019h-2.305l-4.1 9.1-4.129-9.1h-2.281l5.257 11.378-2.616 5.641h2.3zm23.761-5.185v-1.848a4.562 4.562 0 0 1-1.464.24c-1.3 0-1.993-.5-1.993-2.041v-6.289h3.457v-1.9h-3.457v-3.337h-2.064v3.337h-2.545v1.9h2.545v6.554a3.378 3.378 0 0 0 3.673 3.672 5.743 5.743 0 0 0 1.853-.289zm3.839.168h2.064v-5.953c0-2.808 1.536-4.393 3.481-4.393 1.68 0 2.832 1.248 2.832 3.265v7.081h2.041V216.7c0-2.977-1.849-4.849-4.537-4.849a4.244 4.244 0 0 0-3.817 2.088v-7.849h-2.064v18zm14.4-6a6.328 6.328 0 0 0 11.619 3.385L591 220.343a4.25 4.25 0 0 1-7.9-1.848h9.843a5.856 5.856 0 0 0 .024-.624c-.024-3.841-2.569-6.025-5.714-6.025a6.082 6.082 0 0 0-6.24 6.241zm6.169-4.417a3.591 3.591 0 0 1 3.673 3.145h-7.61a3.925 3.925 0 0 1 3.941-3.147zM47.454 252.719v-1.848a4.564 4.564 0 0 1-1.464.24c-1.3 0-1.992-.5-1.992-2.04v-6.289h3.457v-1.9H44v-3.336h-2.068v3.336h-2.544v1.9h2.544v6.553a3.378 3.378 0 0 0 3.673 3.672 5.745 5.745 0 0 0 1.849-.288zm3.838.168h2.065v-5.953c0-2.808 1.656-4.128 3.169-4.128a3.018 3.018 0 0 1 1.128.192v-2.137a4.278 4.278 0 0 0-.936-.1 3.57 3.57 0 0 0-3.361 2.449v-2.329h-2.065v12zm8.64-6a6.006 6.006 0 0 0 5.881 6.241 5.264 5.264 0 0 0 4.225-2.088v1.848H72.1v-12h-2.062v1.849a5.262 5.262 0 0 0-4.225-2.089 6.006 6.006 0 0 0-5.881 6.238zm10.274 0a4.1 4.1 0 1 1-4.081-4.344 4.1 4.1 0 0 1 4.081 4.343zm6.046 0a6.006 6.006 0 0 0 5.881 6.241 5.264 5.264 0 0 0 4.225-2.088v1.848h2.065v-18h-2.065v7.85a5.262 5.262 0 0 0-4.225-2.089 6.006 6.006 0 0 0-5.881 6.237zm10.274 0a4.1 4.1 0 1 1-4.081-4.344 4.1 4.1 0 0 1 4.081 4.343zM96 236.2a1.45 1.45 0 0 0-1.44-1.464 1.465 1.465 0 1 0 0 2.929A1.435 1.435 0 0 0 96 236.2zm-2.5 16.683h2.065v-12h-2.057v12zm13.681-.168v-1.848a4.562 4.562 0 0 1-1.464.24c-1.3 0-1.993-.5-1.993-2.04v-6.289h3.457v-1.9h-3.457v-3.336h-2.064v3.336h-2.537v1.9h2.545v6.553a3.378 3.378 0 0 0 3.672 3.672 5.744 5.744 0 0 0 1.849-.284zm6.335-16.515a1.449 1.449 0 0 0-1.44-1.464 1.465 1.465 0 1 0 0 2.929 1.435 1.435 0 0 0 1.448-1.465zm-2.5 16.683h2.065v-12h-2.065v12zm18.771-6a6.278 6.278 0 1 0-6.266 6.241 6.16 6.16 0 0 0 6.279-6.238zm-10.443 0a4.168 4.168 0 1 1 4.177 4.321 4.125 4.125 0 0 1-4.166-4.318zm14.592 6H136v-5.953c0-2.808 1.537-4.392 3.481-4.392 1.68 0 2.833 1.248 2.833 3.264v7.081h2.04v-7.393c0-2.976-1.848-4.849-4.537-4.849A4.245 4.245 0 0 0 136 242.73v-1.849h-2.064v12zm23.113-3.336c0-1.8-1.128-2.953-3.168-3.625l-1.3-.432c-1.416-.456-1.848-.912-1.848-1.68 0-.888.888-1.393 2.016-1.393a3.243 3.243 0 0 1 2.545 1.249l1.344-1.3a4.654 4.654 0 0 0-3.841-1.728c-2.376 0-4.056 1.32-4.056 3.265 0 1.68 1.032 2.856 2.976 3.48l1.176.384c1.561.5 2.137 1.081 2.137 1.921 0 1.032-.936 1.632-2.113 1.632a3.221 3.221 0 0 1-3.072-1.9l-1.681.912a4.769 4.769 0 0 0 4.705 2.784c2.439.011 4.191-1.216 4.191-3.565zm22.8-2.665a6.278 6.278 0 1 0-6.266 6.241 6.16 6.16 0 0 0 6.278-6.237zm-10.443 0a4.168 4.168 0 1 1 4.177 4.321 4.125 4.125 0 0 1-4.165-4.317zm15.408 6h2.065v-10.1h3.48v-1.9h-3.48v-2.208c0-1.513.672-2.041 1.992-2.041a4.833 4.833 0 0 1 1.488.24v-1.824a5.454 5.454 0 0 0-1.872-.312 3.428 3.428 0 0 0-3.673 3.721v2.424h-2.544v1.9h2.544v10.1zm14.352-2.784c.888 1.752 3.168 3.073 5.977 3.073 3.168 0 5.425-1.825 5.425-4.729 0-2.521-1.44-3.961-3.961-4.921l-2.064-.792c-1.729-.649-2.569-1.3-2.569-2.737 0-1.416 1.392-2.352 3.073-2.352a4.217 4.217 0 0 1 3.384 1.68l1.633-1.44a6.215 6.215 0 0 0-4.969-2.329c-3.049 0-5.329 1.753-5.329 4.537 0 2.328 1.2 3.721 3.864 4.705l2.257.864c1.584.6 2.448 1.512 2.448 2.881 0 1.584-1.392 2.544-3.144 2.544a4.762 4.762 0 0 1-4.225-2.328zm14.639-3.217a6.006 6.006 0 0 0 5.881 6.241 5.263 5.263 0 0 0 4.225-2.088v1.848h2.065v-12h-2.065v1.849a5.261 5.261 0 0 0-4.225-2.089 6.006 6.006 0 0 0-5.869 6.244zm10.274 0a4.1 4.1 0 1 1-4.08-4.344 4.1 4.1 0 0 1 4.092 4.349zm10.727 6h1.728l5.546-12h-2.305l-4.105 9.074-4.1-9.074h-2.3zm13.067-16.681a1.449 1.449 0 0 0-1.44-1.464 1.465 1.465 0 1 0 0 2.929 1.435 1.435 0 0 0 1.44-1.465zm-2.5 16.683h2.064v-12h-2.064v12zm7.176 0h2.064v-18h-2.064v18zm6.239-6a6.328 6.328 0 0 0 11.619 3.385l-1.632-1.128a4.25 4.25 0 0 1-7.9-1.849h9.842a5.856 5.856 0 0 0 .024-.624c-.024-3.84-2.569-6.025-5.713-6.025a6.083 6.083 0 0 0-6.236 6.244zm6.17-4.417a3.591 3.591 0 0 1 3.672 3.145h-7.609a3.924 3.924 0 0 1 3.941-3.142zm17.278 10.418h2.233v-7.753h1.656l6.553 7.753h2.809l-6.553-7.777c2.616-.384 4.2-2.064 4.2-4.561 0-2.808-1.945-4.705-5.09-4.705h-5.804v17.043zm2.233-9.745v-5.233h3.312c1.945 0 3.121.912 3.121 2.64 0 1.7-1.176 2.593-3.121 2.593h-3.312zm25.129 3.744a6.277 6.277 0 1 0-6.265 6.241 6.159 6.159 0 0 0 6.267-6.238zm-10.442 0a4.168 4.168 0 1 1 4.177 4.321 4.125 4.125 0 0 1-4.173-4.318zm24.722 6h1.824l4.081-12H327.6l-2.905 8.762-3-8.762h-1.584l-3 8.762-2.9-8.762h-2.161l4.081 12h1.825l2.976-8.641zm10.99-.528a2.052 2.052 0 0 0 .336-1.08 1.777 1.777 0 1 0-3.553 0 1.785 1.785 0 0 0 .985 1.608l-1.609 3.433h1.373zm10.895-5.473a6.328 6.328 0 0 0 11.618 3.385l-1.632-1.128a4.25 4.25 0 0 1-7.9-1.849h9.851a5.623 5.623 0 0 0 .025-.624c-.025-3.84-2.569-6.025-5.714-6.025a6.083 6.083 0 0 0-6.244 6.245zm6.169-4.417a3.591 3.591 0 0 1 3.673 3.145H348a3.925 3.925 0 0 1 3.936-3.141zm8.975 4.417a6.005 6.005 0 0 0 5.881 6.241 5.264 5.264 0 0 0 4.225-2.088v1.848h2.064v-12h-2.064v1.849a5.262 5.262 0 0 0-4.225-2.089 6.006 6.006 0 0 0-5.877 6.243zm10.274 0a4.1 4.1 0 1 1-4.081-4.344 4.1 4.1 0 0 1 4.085 4.348zm17.88 3.025l-1.8-1.008a4.069 4.069 0 0 1-3.745 2.3 4.322 4.322 0 0 1 0-8.641 4.069 4.069 0 0 1 3.745 2.3l1.8-1.008a6.215 6.215 0 0 0-5.545-3.217 6.241 6.241 0 1 0 0 12.482 6.216 6.216 0 0 0 5.549-3.204zm3.861 2.976h2.065v-5.953c0-2.808 1.536-4.392 3.481-4.392 1.68 0 2.832 1.248 2.832 3.264v7.081h2.041v-7.393c0-2.976-1.849-4.849-4.537-4.849a4.243 4.243 0 0 0-3.817 2.089v-7.85h-2.065v18zm30.17-3.336c0-1.8-1.129-2.953-3.169-3.625l-1.3-.432c-1.417-.456-1.849-.912-1.849-1.68 0-.888.888-1.393 2.017-1.393a3.243 3.243 0 0 1 2.544 1.249l1.344-1.3a4.654 4.654 0 0 0-3.84-1.728c-2.377 0-4.057 1.32-4.057 3.265 0 1.68 1.032 2.856 2.976 3.48l1.177.384c1.56.5 2.136 1.081 2.136 1.921 0 1.032-.936 1.632-2.112 1.632a3.221 3.221 0 0 1-3.073-1.9l-1.68.912a4.767 4.767 0 0 0 4.7 2.784c2.437.011 4.194-1.216 4.194-3.565zm3.982-1.3c0 2.976 1.776 4.872 4.417 4.872a4.129 4.129 0 0 0 3.7-2.088v1.848h2.065v-12h-2.065v5.953c0 2.761-1.464 4.393-3.336 4.393-1.657 0-2.713-1.272-2.713-3.288v-7.058h-2.064v7.37zm17.76-12.051a1.449 1.449 0 0 0-1.44-1.464 1.465 1.465 0 1 0 0 2.929 1.435 1.435 0 0 0 1.444-1.461zm-2.5 16.683h2.064v-12h-2.064v12zm13.681-.168v-1.848a4.564 4.564 0 0 1-1.465.24c-1.3 0-1.992-.5-1.992-2.04v-6.289h3.457v-1.9h-3.457v-3.336H450.5v3.336h-2.545v1.9h2.545v6.553a3.378 3.378 0 0 0 3.672 3.672 5.744 5.744 0 0 0 1.851-.28zm13.399-16.511a1.45 1.45 0 0 0-1.441-1.464 1.465 1.465 0 1 0 0 2.929 1.436 1.436 0 0 0 1.441-1.465zm-2.5 16.683h2.064v-12h-2.064v12zm14.954-3.336c0-1.8-1.129-2.953-3.169-3.625l-1.3-.432c-1.417-.456-1.849-.912-1.849-1.68 0-.888.888-1.393 2.017-1.393a3.243 3.243 0 0 1 2.544 1.249l1.344-1.3a4.654 4.654 0 0 0-3.84-1.728c-2.377 0-4.057 1.32-4.057 3.265 0 1.68 1.032 2.856 2.976 3.48l1.177.384c1.56.5 2.136 1.081 2.136 1.921 0 1.032-.936 1.632-2.112 1.632a3.221 3.221 0 0 1-3.073-1.9l-1.68.912a4.767 4.767 0 0 0 4.705 2.784c2.431.011 4.184-1.216 4.184-3.565zm10.269-2.665a6.006 6.006 0 0 0 5.881 6.241 5.263 5.263 0 0 0 4.225-2.088v1.848h2.065v-18h-2.065v7.85a5.261 5.261 0 0 0-4.225-2.089 6.006 6.006 0 0 0-5.878 6.242zm10.274 0a4.1 4.1 0 1 1-4.081-4.344 4.1 4.1 0 0 1 4.084 4.348zm6.046 0a6.328 6.328 0 0 0 11.618 3.385l-1.632-1.128a4.25 4.25 0 0 1-7.9-1.849h9.842a5.856 5.856 0 0 0 .024-.624c-.024-3.84-2.568-6.025-5.713-6.025a6.082 6.082 0 0 0-6.236 6.245zm6.169-4.417a3.591 3.591 0 0 1 3.673 3.145h-7.61a3.925 3.925 0 0 1 3.94-3.141zm17.689 7.082c0-1.8-1.129-2.953-3.169-3.625l-1.3-.432c-1.417-.456-1.849-.912-1.849-1.68 0-.888.888-1.393 2.017-1.393a3.243 3.243 0 0 1 2.544 1.249l1.345-1.3a4.657 4.657 0 0 0-3.841-1.728c-2.377 0-4.057 1.32-4.057 3.265 0 1.68 1.032 2.856 2.976 3.48l1.177.384c1.56.5 2.136 1.081 2.136 1.921 0 1.032-.936 1.632-2.112 1.632a3.221 3.221 0 0 1-3.073-1.9l-1.68.912a4.767 4.767 0 0 0 4.7 2.784c2.436.011 4.189-1.216 4.189-3.565zm6.646-13.347a1.449 1.449 0 0 0-1.44-1.464 1.465 1.465 0 1 0 0 2.929 1.435 1.435 0 0 0 1.443-1.465zm-2.5 16.683h2.064v-12h-2.064v12zm18.362-.7v-11.298h-2.064v1.849a5.107 5.107 0 0 0-4.177-2.089 6.114 6.114 0 0 0 0 12.218 5.128 5.128 0 0 0 4.177-2.112v1.368a3.837 3.837 0 0 1-4.009 4.153 5.134 5.134 0 0 1-4.2-2.016l-1.441 1.44a7.128 7.128 0 0 0 5.666 2.448c3.414 0 6.055-1.944 6.055-5.953zm-10.01-5.449a4.059 4.059 0 1 1 4.057 4.2 4 4 0 0 1-4.05-4.192zm15.095 6.145h2.065v-5.953c0-2.808 1.536-4.392 3.481-4.392 1.68 0 2.832 1.248 2.832 3.264v7.081h2.041v-7.393c0-2.976-1.849-4.849-4.537-4.849a4.243 4.243 0 0 0-3.817 2.089v-1.849h-2.065v12zm14.4-6a6.328 6.328 0 0 0 11.618 3.385l-1.632-1.128a4.25 4.25 0 0 1-7.9-1.849h9.842a5.856 5.856 0 0 0 .024-.624c-.024-3.84-2.568-6.025-5.713-6.025a6.082 6.082 0 0 0-6.232 6.248zm6.169-4.417a3.591 3.591 0 0 1 3.673 3.145h-7.61a3.925 3.925 0 0 1 3.944-3.138zm8.975 4.417a6.005 6.005 0 0 0 5.881 6.241 5.264 5.264 0 0 0 4.225-2.088v1.848h2.064v-18h-2.064v7.85a5.262 5.262 0 0 0-4.225-2.089 6.006 6.006 0 0 0-5.874 6.245zm10.274 0a4.1 4.1 0 1 1-4.081-4.344 4.1 4.1 0 0 1 4.088 4.351zm-557.777 34.8h2.064v-10.098H47.5v-1.9h-3.479v-2.208c0-1.512.672-2.04 1.992-2.04a4.835 4.835 0 0 1 1.488.24v-1.825a5.456 5.456 0 0 0-1.872-.312 3.428 3.428 0 0 0-3.673 3.721v2.424h-2.544v1.9h2.544v10.106zm9 0h2.071v-5.953c0-2.809 1.656-4.129 3.169-4.129a3.018 3.018 0 0 1 1.128.192v-2.129a4.278 4.278 0 0 0-.936-.1 3.572 3.572 0 0 0-3.361 2.449v-2.329h-2.064v12zm21.147-6a6.277 6.277 0 1 0-6.265 6.241 6.16 6.16 0 0 0 6.269-6.234zm-10.442 0a4.168 4.168 0 1 1 4.177 4.32 4.125 4.125 0 0 1-4.171-4.313zm14.591 6h2.064v-5.953c0-2.713 1.368-4.393 3.313-4.393 1.56 0 2.352 1.344 2.352 3.288v7.058h2.064v-5.953c0-2.713 1.344-4.393 3.289-4.393 1.56 0 2.377 1.344 2.377 3.288v7.058h2.064v-7.37c0-2.928-1.584-4.873-4.2-4.873a4.155 4.155 0 0 0-3.937 2.569 3.774 3.774 0 0 0-3.7-2.569 4.035 4.035 0 0 0-3.625 2.089v-1.849h-2.054v12zm35.593-.168v-1.841a4.562 4.562 0 0 1-1.464.24c-1.3 0-1.993-.5-1.993-2.04v-6.289h3.457v-1.9h-3.457v-3.336h-2.064v3.336h-2.545v1.9h2.545v6.553a3.378 3.378 0 0 0 3.683 3.673 5.744 5.744 0 0 0 1.845-.288zm3.838.168h2.065v-5.953c0-2.809 1.536-4.393 3.481-4.393 1.68 0 2.832 1.248 2.832 3.264v7.082h2.046v-7.394c0-2.976-1.849-4.849-4.537-4.849a4.245 4.245 0 0 0-3.817 2.089v-7.85h-2.065v18zm14.4-6a6.327 6.327 0 0 0 11.624 3.391l-1.632-1.128a4.25 4.25 0 0 1-7.9-1.848h9.842a5.856 5.856 0 0 0 .024-.624c-.024-3.841-2.568-6.026-5.713-6.026a6.082 6.082 0 0 0-6.238 6.242zm6.169-4.417a3.591 3.591 0 0 1 3.673 3.144h-7.61a3.924 3.924 0 0 1 3.944-3.137zm19.47-6.262a1.45 1.45 0 0 0-1.44-1.465 1.491 1.491 0 0 0-1.488 1.465 1.475 1.475 0 0 0 1.488 1.464 1.434 1.434 0 0 0 1.44-1.464zm-2.5 16.683h2.064v-12h-2.064v12zm7.176 0h2.064v-5.953c0-2.809 1.536-4.393 3.481-4.393 1.68 0 2.832 1.248 2.832 3.264v7.082h2.041v-7.394c0-2.976-1.849-4.849-4.537-4.849a4.245 4.245 0 0 0-3.817 2.089v-1.849H160.4v12zm23.113-3.337c0-1.8-1.128-2.952-3.169-3.625l-1.3-.432c-1.416-.456-1.848-.912-1.848-1.68 0-.888.888-1.392 2.016-1.392a3.246 3.246 0 0 1 2.545 1.248l1.344-1.3a4.654 4.654 0 0 0-3.841-1.729c-2.376 0-4.057 1.321-4.057 3.265 0 1.68 1.032 2.857 2.977 3.481l1.176.384c1.56.5 2.136 1.08 2.136 1.92 0 1.032-.936 1.632-2.112 1.632a3.222 3.222 0 0 1-3.073-1.9l-1.68.912a4.767 4.767 0 0 0 4.7 2.785c2.438.012 4.19-1.215 4.19-3.565zM190.155 265a1.45 1.45 0 0 0-1.441-1.465 1.491 1.491 0 0 0-1.488 1.465 1.475 1.475 0 0 0 1.488 1.464 1.435 1.435 0 0 0 1.441-1.464zm-2.5 16.683h2.064v-12h-2.064v12zm6.24-6a6.006 6.006 0 0 0 5.881 6.241 5.262 5.262 0 0 0 4.224-2.086v1.849h2.064v-18H204v7.85a5.265 5.265 0 0 0-4.225-2.089 6.006 6.006 0 0 0-5.875 6.238zm10.274 0a4.1 4.1 0 1 1-4.081-4.345 4.1 4.1 0 0 1 4.084 4.348zm6.045 0a6.328 6.328 0 0 0 11.619 3.384l-1.632-1.128a4.25 4.25 0 0 1-7.9-1.848h9.842a5.856 5.856 0 0 0 .024-.624c-.024-3.841-2.569-6.026-5.713-6.026a6.083 6.083 0 0 0-6.237 6.245zm6.17-4.417a3.592 3.592 0 0 1 3.673 3.144h-7.61a3.923 3.923 0 0 1 3.94-3.141zm28.561 4.417a6.278 6.278 0 1 0-6.266 6.241 6.16 6.16 0 0 0 6.269-6.238zm-10.443 0a4.168 4.168 0 1 1 4.177 4.32 4.126 4.126 0 0 1-4.174-4.317zm14.424 1.368c0 2.976 1.776 4.873 4.417 4.873a4.13 4.13 0 0 0 3.7-2.089v1.849h2.064v-12h-2.064v5.954c0 2.76-1.465 4.392-3.337 4.392-1.656 0-2.713-1.272-2.713-3.288v-7.058h-2.064v7.37zm21.769 4.465v-1.846a4.562 4.562 0 0 1-1.464.24c-1.3 0-1.993-.5-1.993-2.04v-6.289h3.462v-1.9h-3.457v-3.336h-2.064v3.336h-2.545v1.9h2.545v6.553a3.378 3.378 0 0 0 3.673 3.673 5.743 5.743 0 0 0 1.848-.288zm6.407-.36a2.055 2.055 0 0 0 .336-1.081 1.776 1.776 0 1 0-3.552 0 1.786 1.786 0 0 0 .984 1.609l-1.609 3.432h1.369zm11.663-4.105c0 2.976 1.777 4.873 4.417 4.873a4.128 4.128 0 0 0 3.7-2.089v1.849h2.064v-12h-2.064v5.954c0 2.76-1.464 4.392-3.337 4.392-1.656 0-2.712-1.272-2.712-3.288v-7.058h-2.065v7.37zm23.042 1.3c0-1.8-1.128-2.952-3.169-3.625l-1.3-.432c-1.416-.456-1.849-.912-1.849-1.68 0-.888.889-1.392 2.017-1.392a3.242 3.242 0 0 1 2.544 1.248l1.345-1.3a4.654 4.654 0 0 0-3.841-1.729c-2.377 0-4.057 1.321-4.057 3.265 0 1.68 1.032 2.857 2.977 3.481l1.176.384c1.56.5 2.136 1.08 2.136 1.92 0 1.032-.936 1.632-2.112 1.632a3.222 3.222 0 0 1-3.073-1.9l-1.68.912a4.767 4.767 0 0 0 4.7 2.785c2.436.007 4.189-1.22 4.189-3.57zm6.65-13.351a1.45 1.45 0 0 0-1.441-1.465 1.491 1.491 0 0 0-1.488 1.465 1.475 1.475 0 0 0 1.488 1.464 1.435 1.435 0 0 0 1.441-1.464zm-2.5 16.683h2.064v-12h-2.061v12zm7.176 0h2.067v-5.953c0-2.809 1.537-4.393 3.481-4.393 1.68 0 2.833 1.248 2.833 3.264v7.082h2.04v-7.394c0-2.976-1.848-4.849-4.537-4.849a4.246 4.246 0 0 0-3.817 2.089v-1.849h-2.064v12zm26.522-.7v-11.299h-2.064v1.849a5.11 5.11 0 0 0-4.177-2.089 6.115 6.115 0 0 0 0 12.219 5.126 5.126 0 0 0 4.177-2.113v1.369a3.837 3.837 0 0 1-4.009 4.152 5.134 5.134 0 0 1-4.2-2.016l-1.441 1.44a7.129 7.129 0 0 0 5.666 2.449c3.41 0 6.051-1.944 6.051-5.953zm-10.01-5.449a4.059 4.059 0 1 1 4.057 4.2 4 4 0 0 1-4.054-4.192zm28.248 5.977v-1.841a4.562 4.562 0 0 1-1.464.24c-1.3 0-1.992-.5-1.992-2.04v-6.289h3.463v-1.9h-3.46v-3.336h-2.065v3.336h-2.544v1.9h2.544v6.553a3.379 3.379 0 0 0 3.673 3.673 5.743 5.743 0 0 0 1.852-.288zm3.839.168h2.068v-5.953c0-2.809 1.537-4.393 3.481-4.393 1.681 0 2.833 1.248 2.833 3.264v7.082h2.04v-7.394c0-2.976-1.848-4.849-4.537-4.849a4.247 4.247 0 0 0-3.817 2.089v-7.85h-2.064v18zm14.4-6a6.327 6.327 0 0 0 11.618 3.384l-1.632-1.128a4.25 4.25 0 0 1-7.9-1.848h9.842a5.856 5.856 0 0 0 .024-.624c-.024-3.841-2.568-6.026-5.713-6.026a6.082 6.082 0 0 0-6.236 6.249zm6.169-4.417a3.591 3.591 0 0 1 3.673 3.144h-7.61a3.923 3.923 0 0 1 3.936-3.137zm17.663 10.418h2.064v-10.099h3.481v-1.9h-3.481v-2.208c0-1.512.672-2.04 1.993-2.04a4.833 4.833 0 0 1 1.488.24v-1.825a5.454 5.454 0 0 0-1.872-.312 3.428 3.428 0 0 0-3.673 3.721v2.424h-2.545v1.9h2.545v10.106zM420.265 265a1.45 1.45 0 0 0-1.44-1.465 1.492 1.492 0 0 0-1.489 1.465 1.476 1.476 0 0 0 1.489 1.464 1.434 1.434 0 0 0 1.44-1.464zm-2.5 16.683h2.064v-12h-2.064v12zm7.149 0h2.065v-5.953c0-2.809 1.536-4.393 3.481-4.393 1.68 0 2.832 1.248 2.832 3.264v7.082h2.041v-7.394c0-2.976-1.849-4.849-4.537-4.849a4.245 4.245 0 0 0-3.817 2.089v-1.849h-2.065v12zm14.4-6a6.327 6.327 0 0 0 11.618 3.384l-1.632-1.128a4.25 4.25 0 0 1-7.9-1.848h9.842a5.623 5.623 0 0 0 .025-.624c-.025-3.841-2.569-6.026-5.714-6.026a6.083 6.083 0 0 0-6.235 6.245zm6.169-4.417a3.591 3.591 0 0 1 3.673 3.144h-7.61a3.924 3.924 0 0 1 3.941-3.141zm17.689 7.081c0-1.8-1.129-2.952-3.169-3.625l-1.3-.432c-1.417-.456-1.849-.912-1.849-1.68 0-.888.888-1.392 2.017-1.392a3.242 3.242 0 0 1 2.544 1.248l1.345-1.3a4.655 4.655 0 0 0-3.841-1.729c-2.377 0-4.057 1.321-4.057 3.265 0 1.68 1.032 2.857 2.977 3.481l1.176.384c1.56.5 2.136 1.08 2.136 1.92 0 1.032-.936 1.632-2.112 1.632a3.222 3.222 0 0 1-3.073-1.9l-1.68.912a4.766 4.766 0 0 0 4.714 2.796c2.423 0 4.176-1.227 4.176-3.577zm10.511 3.169v-1.846a4.562 4.562 0 0 1-1.464.24c-1.3 0-1.992-.5-1.992-2.04v-6.289h3.456v-1.9h-3.456v-3.336h-2.065v3.336h-2.544v1.9h2.544v6.553a3.378 3.378 0 0 0 3.673 3.673 5.743 5.743 0 0 0 1.852-.288zm11.591.168h2.065v-10.103h3.48v-1.9h-3.48v-2.208c0-1.512.672-2.04 1.992-2.04a4.833 4.833 0 0 1 1.488.24v-1.825a5.454 5.454 0 0 0-1.872-.312 3.428 3.428 0 0 0-3.673 3.721v2.424h-2.544v1.9h2.544v10.106zm7.752-6a6.006 6.006 0 0 0 5.881 6.241 5.262 5.262 0 0 0 4.225-2.089v1.849h2.068v-12h-2.064v1.849a5.265 5.265 0 0 0-4.225-2.089 6.006 6.006 0 0 0-5.881 6.241zm10.274 0a4.1 4.1 0 1 1-4.081-4.345 4.1 4.1 0 0 1 4.081 4.347zm9.046 4.152a5.262 5.262 0 0 0 4.225 2.089 6.253 6.253 0 0 0 0-12.483 5.265 5.265 0 0 0-4.225 2.089v-7.85h-2.064v18h2.064v-1.849zm7.994-4.152a4.089 4.089 0 1 1-4.081-4.345 4.1 4.1 0 0 1 4.085 4.347zm6.261 6h2.065v-5.953c0-2.809 1.656-4.129 3.169-4.129a3.017 3.017 0 0 1 1.128.192v-2.134a4.276 4.276 0 0 0-.936-.1 3.571 3.571 0 0 0-3.361 2.449v-2.329h-2.065v12zM539.086 265a1.45 1.45 0 0 0-1.44-1.465 1.491 1.491 0 0 0-1.489 1.465 1.475 1.475 0 0 0 1.489 1.464 1.434 1.434 0 0 0 1.44-1.464zm-2.5 16.683h2.065v-12h-2.065v12zm18.075-2.977l-1.8-1.008a4.068 4.068 0 0 1-3.745 2.3 4.322 4.322 0 0 1 0-8.641 4.068 4.068 0 0 1 3.745 2.3l1.8-1.008a6.218 6.218 0 0 0-5.546-3.217 6.242 6.242 0 1 0 0 12.483 6.216 6.216 0 0 0 5.549-3.205zm11.639-.36c0-1.8-1.129-2.952-3.169-3.625l-1.3-.432c-1.417-.456-1.849-.912-1.849-1.68 0-.888.888-1.392 2.017-1.392a3.242 3.242 0 0 1 2.544 1.248l1.344-1.3a4.652 4.652 0 0 0-3.84-1.729c-2.377 0-4.057 1.321-4.057 3.265 0 1.68 1.032 2.857 2.976 3.481l1.177.384c1.56.5 2.136 1.08 2.136 1.92 0 1.032-.936 1.632-2.112 1.632a3.221 3.221 0 0 1-3.073-1.9l-1.68.912a4.766 4.766 0 0 0 4.7 2.785c2.436.012 4.186-1.215 4.186-3.565zm6.718 2.809a2.055 2.055 0 0 0 .336-1.081 1.776 1.776 0 1 0-3.552 0 1.786 1.786 0 0 0 .984 1.609l-1.609 3.432h1.369zm13.9-1.321a5.261 5.261 0 0 0 4.225 2.089 6.253 6.253 0 0 0 0-12.483 5.264 5.264 0 0 0-4.225 2.089v-7.85h-2.065v18h2.065v-1.849zm7.993-4.152a4.089 4.089 0 1 1-4.08-4.345 4.1 4.1 0 0 1 4.079 4.349zm5.326 0a6.327 6.327 0 0 0 11.618 3.384l-1.632-1.128a4.25 4.25 0 0 1-7.9-1.848h9.842a5.856 5.856 0 0 0 .024-.624c-.024-3.841-2.568-6.026-5.713-6.026a6.082 6.082 0 0 0-6.24 6.246zm6.169-4.417a3.591 3.591 0 0 1 3.673 3.144h-7.61a3.924 3.924 0 0 1 3.936-3.14zm17.689 7.081c0-1.8-1.129-2.952-3.169-3.625l-1.3-.432c-1.417-.456-1.849-.912-1.849-1.68 0-.888.888-1.392 2.017-1.392a3.242 3.242 0 0 1 2.544 1.248l1.345-1.3a4.655 4.655 0 0 0-3.841-1.729c-2.377 0-4.057 1.321-4.057 3.265 0 1.68 1.032 2.857 2.976 3.481l1.177.384c1.56.5 2.136 1.08 2.136 1.92 0 1.032-.936 1.632-2.112 1.632a3.221 3.221 0 0 1-3.073-1.9l-1.68.912a4.766 4.766 0 0 0 4.705 2.785c2.427.012 4.18-1.215 4.18-3.565zm10.511 3.169v-1.845a4.562 4.562 0 0 1-1.464.24c-1.3 0-1.993-.5-1.993-2.04v-6.289h3.457v-1.9h-3.457v-3.336h-2.064v3.336h-2.545v1.9h2.545v6.553a3.378 3.378 0 0 0 3.673 3.673 5.743 5.743 0 0 0 1.847-.288zm11.591.168h2.064v-10.102h3.481v-1.9h-3.482v-2.208c0-1.512.673-2.04 1.993-2.04a4.833 4.833 0 0 1 1.488.24v-1.825a5.454 5.454 0 0 0-1.872-.312 3.428 3.428 0 0 0-3.673 3.721v2.424h-2.545v1.9h2.549v10.106zM656.494 265a1.45 1.45 0 0 0-1.44-1.465 1.491 1.491 0 0 0-1.488 1.465 1.475 1.475 0 0 0 1.488 1.464 1.434 1.434 0 0 0 1.44-1.464zM654 281.687h2.064v-12H654v12zm13.655-.168v-1.849a4.562 4.562 0 0 1-1.464.24c-1.3 0-1.993-.5-1.993-2.04v-6.289h3.457v-1.9H664.2v-3.336h-2.064v3.336h-2.545v1.9h2.545v6.553a3.378 3.378 0 0 0 3.673 3.673 5.743 5.743 0 0 0 1.844-.288zm11.616-3.169c0-1.8-1.128-2.952-3.169-3.625l-1.3-.432c-1.416-.456-1.848-.912-1.848-1.68 0-.888.888-1.392 2.016-1.392a3.244 3.244 0 0 1 2.545 1.248l1.344-1.3a4.654 4.654 0 0 0-3.841-1.729c-2.376 0-4.057 1.321-4.057 3.265 0 1.68 1.033 2.857 2.977 3.481l1.176.384c1.561.5 2.137 1.08 2.137 1.92 0 1.032-.937 1.632-2.113 1.632a3.221 3.221 0 0 1-3.072-1.9l-1.681.912a4.767 4.767 0 0 0 4.705 2.785c2.427.008 4.179-1.219 4.179-3.569zM40.012 304.485a6.006 6.006 0 0 0 5.881 6.241 5.264 5.264 0 0 0 4.225-2.088v1.848h2.064v-12h-2.064v1.848a5.264 5.264 0 0 0-4.225-2.088 6.006 6.006 0 0 0-5.881 6.239zm10.274 0a4.1 4.1 0 1 1-4.081-4.345 4.1 4.1 0 0 1 4.081 4.345zm6.982 6h2.064v-5.953c0-2.809 1.536-4.393 3.481-4.393 1.68 0 2.833 1.248 2.833 3.265v7.081h2.04v-7.393c0-2.977-1.848-4.849-4.537-4.849a4.245 4.245 0 0 0-3.817 2.088v-1.848h-2.064v12zm14.4-6a6.006 6.006 0 0 0 5.881 6.241 5.264 5.264 0 0 0 4.225-2.088v1.848h2.064v-18h-2.064v7.849a5.264 5.264 0 0 0-4.225-2.088 6.006 6.006 0 0 0-5.881 6.238zm10.274 0a4.1 4.1 0 1 1-4.081-4.345 4.1 4.1 0 0 1 4.081 4.345zm16.1 4.153a5.264 5.264 0 0 0 4.225 2.088 6.252 6.252 0 0 0 0-12.482 5.264 5.264 0 0 0-4.225 2.088v-7.849h-2.063v18h2.064v-1.848zm7.993-4.153a4.089 4.089 0 1 1-4.081-4.345 4.1 4.1 0 0 1 4.083 4.345zm5.326 0a6.327 6.327 0 0 0 11.618 3.384l-1.632-1.128a4.25 4.25 0 0 1-7.9-1.848h9.842a5.856 5.856 0 0 0 .024-.624c-.024-3.841-2.568-6.025-5.713-6.025a6.081 6.081 0 0 0-6.237 6.241zm6.169-4.417a3.591 3.591 0 0 1 3.673 3.145H113.6a3.924 3.924 0 0 1 3.932-3.145zm17.688 7.081c0-1.8-1.128-2.952-3.168-3.624l-1.3-.432c-1.416-.457-1.848-.913-1.848-1.681 0-.888.888-1.392 2.017-1.392a3.242 3.242 0 0 1 2.544 1.248l1.344-1.3a4.654 4.654 0 0 0-3.84-1.728c-2.377 0-4.057 1.32-4.057 3.264 0 1.681 1.032 2.857 2.976 3.481l1.177.384c1.56.5 2.136 1.08 2.136 1.92 0 1.033-.936 1.633-2.112 1.633a3.22 3.22 0 0 1-3.073-1.9l-1.68.912a4.766 4.766 0 0 0 4.705 2.785c2.429.007 4.181-1.219 4.181-3.57zm4.151 8.354h2.064v-6.865a5.264 5.264 0 0 0 4.225 2.088 6.252 6.252 0 0 0 0-12.482 5.264 5.264 0 0 0-4.225 2.088v-1.848h-2.064V315.5zm10.058-11.018a4.089 4.089 0 1 1-4.081-4.345 4.1 4.1 0 0 1 4.083 4.345zm17.88 0a6.278 6.278 0 1 0-6.265 6.241 6.159 6.159 0 0 0 6.267-6.241zm-10.442 0a4.168 4.168 0 1 1 4.177 4.321 4.125 4.125 0 0 1-4.175-4.321zm14.591 6h2.065v-6l6.5 6h2.785l-7.226-6.7 5.905-5.305h-2.736l-5.233 4.681v-10.678h-2.065v18zm12.432-6a6.327 6.327 0 0 0 11.618 3.384l-1.632-1.128a4.25 4.25 0 0 1-7.9-1.848h9.842a5.856 5.856 0 0 0 .024-.624c-.024-3.841-2.568-6.025-5.713-6.025a6.081 6.081 0 0 0-6.237 6.241zm6.169-4.417a3.591 3.591 0 0 1 3.673 3.145h-7.61a3.924 3.924 0 0 1 3.939-3.145zm9.527 4.729h6.121v-2.065h-6.121v2.068zm10.847 5.689h2.069v-18h-2.065v18zm9.673-16.683a1.45 1.45 0 0 0-1.441-1.464 1.491 1.491 0 0 0-1.488 1.464 1.475 1.475 0 0 0 1.488 1.464 1.435 1.435 0 0 0 1.443-1.467zm-2.5 16.683h2.065v-12h-2.065v12zm7.176 0h2.065v-6l6.5 6h2.785l-7.226-6.7 5.905-5.305h-2.736l-5.233 4.681v-10.679h-2.065v18zm12.432-6a6.327 6.327 0 0 0 11.618 3.384l-1.632-1.128a4.25 4.25 0 0 1-7.9-1.848h9.842a5.856 5.856 0 0 0 .024-.624c-.024-3.841-2.568-6.025-5.713-6.025a6.081 6.081 0 0 0-6.234 6.24zm6.169-4.417a3.591 3.591 0 0 1 3.673 3.145h-7.61a3.924 3.924 0 0 1 3.942-3.146zm16.03 4.417a6.006 6.006 0 0 0 5.881 6.241 5.263 5.263 0 0 0 4.225-2.088v1.848h2.065v-18h-2.065v7.849a5.263 5.263 0 0 0-4.225-2.088 6.006 6.006 0 0 0-5.876 6.237zm10.274 0a4.1 4.1 0 1 1-4.081-4.345 4.1 4.1 0 0 1 4.086 4.344zm6.046 0a6.327 6.327 0 0 0 11.618 3.384l-1.632-1.128a4.25 4.25 0 0 1-7.9-1.848h9.842a5.856 5.856 0 0 0 .024-.624c-.024-3.841-2.568-6.025-5.713-6.025a6.081 6.081 0 0 0-6.234 6.24zm6.169-4.417a3.591 3.591 0 0 1 3.673 3.145h-7.61a3.924 3.924 0 0 1 3.937-3.146zm16.249 10.25v-1.849a4.568 4.568 0 0 1-1.465.24c-1.3 0-1.992-.5-1.992-2.041v-6.289h3.457v-1.9H294.7v-3.337h-2.065v3.337h-2.544v1.9h2.544v6.553a3.379 3.379 0 0 0 3.673 3.673 5.749 5.749 0 0 0 1.846-.288zm2.734-5.833a6.007 6.007 0 0 0 5.882 6.241 5.262 5.262 0 0 0 4.224-2.088v1.848h2.065v-12h-2.065v1.848a5.262 5.262 0 0 0-4.224-2.088 6.006 6.006 0 0 0-5.877 6.238zm10.274 0a4.1 4.1 0 1 1-4.08-4.345 4.1 4.1 0 0 1 4.085 4.344zm9.479-10.682a1.45 1.45 0 0 0-1.441-1.464 1.491 1.491 0 0 0-1.488 1.464 1.475 1.475 0 0 0 1.488 1.464 1.435 1.435 0 0 0 1.446-1.468zm-2.5 16.683h2.065v-12h-2.065v12zm7.176 0h2.064v-18h-2.056v18zm14.954-3.337c0-1.8-1.129-2.952-3.169-3.624l-1.3-.432c-1.417-.457-1.849-.913-1.849-1.681 0-.888.888-1.392 2.017-1.392a3.242 3.242 0 0 1 2.544 1.248l1.344-1.3a4.654 4.654 0 0 0-3.84-1.728c-2.377 0-4.057 1.32-4.057 3.264 0 1.681 1.032 2.857 2.976 3.481l1.177.384c1.56.5 2.136 1.08 2.136 1.92 0 1.033-.936 1.633-2.112 1.633a3.22 3.22 0 0 1-3.073-1.9l-1.68.912a4.766 4.766 0 0 0 4.7 2.785c2.441.006 4.194-1.22 4.194-3.571zm7.006 1.729a1.777 1.777 0 1 0-1.776 1.8 1.808 1.808 0 0 0 1.784-1.801z"/></svg>