<svg id="copy_copy_2" data-name="copy copy 2" xmlns="http://www.w3.org/2000/svg" width="768" height="471"><defs><style>.cls-2{fill-rule:evenodd}</style></defs><path id="Rectangle_106_copy_5" data-name="Rectangle 106 copy 5" d="M0 0h767.8l.183 471H.183z" fill-rule="evenodd" fill="#fff"/><g id="CTA_underline_copy_3" data-name="CTA_underline copy 3"><path id="Rectangle_4_copy_4" data-name="Rectangle 4 copy 4" d="M39 377h122v4H39z"/><path id="Shop_now" data-name="Shop now" class="cls-2" d="M43.817 369.853c2.706 0 4.564-1.653 4.582-4.023.018-1.965-1.19-3.214-3.048-3.894l-.9-.33c-1.353-.5-1.984-.808-1.984-1.506 0-.68.776-.992 1.551-.992a2.831 2.831 0 0 1 2.219 1.083l1.876-2.02a5.3 5.3 0 0 0-4.131-1.8c-2.561 0-4.419 1.488-4.419 4.022 0 1.782 1.154 3.049 3.229 3.766l.9.312c1.281.441 1.786.9 1.786 1.561 0 .625-.6 1.084-1.551 1.084a3.335 3.335 0 0 1-2.652-1.488l-2.2 1.892a5.583 5.583 0 0 0 4.742 2.333zm9.726-.221h2.867v-5.161h5.159v5.161h2.868v-13.041h-2.868v5.109H56.41v-5.107h-2.868v13.041zm22.66.221a6.742 6.742 0 1 0-6.62-6.741 6.7 6.7 0 0 0 6.617 6.741zm0-2.829a3.917 3.917 0 1 1 3.716-3.912 3.837 3.837 0 0 1-3.719 3.912zm20.622-5.969a4.4 4.4 0 0 0-4.51-4.464h-4.348v13.041h2.868V365.5h1.479a4.385 4.385 0 0 0 4.51-4.445zm-2.778 0a1.7 1.7 0 0 1-1.768 1.708h-1.444v-3.416h1.443a1.688 1.688 0 0 1 1.768 1.708zm25.979 8.577v-13.041h-2.886v8.045l-6.223-8.045h-2.472v13.041h2.869v-8.063l6.241 8.063h2.471zm11.765.221a6.742 6.742 0 1 0-6.62-6.741 6.7 6.7 0 0 0 6.619 6.741zm0-2.829a3.917 3.917 0 1 1 3.716-3.912 3.837 3.837 0 0 1-3.717 3.912zm21.686 2.608h2.723l2.976-13.041h-3.067l-1.749 8.266-3.608-8.486-3.589 8.486-1.75-8.266h-3.067l2.959 13.041h2.723l2.724-6.392z"/></g><path id="Italian_Moleskin_Trucker_Jacket_Italian_moleskin_b._2018_Thi" data-name="Italian Moleskin Trucker Jacket Italian moleskin, b. 2018 Thi" class="cls-2" d="M41.884 68.092h6.105V40.831h-6.105v27.261zm18.7 0h6.143V46.667h7.027v-5.836h-20.12v5.836h6.95v21.425zm13.133 0h6.374l2.419-5.759H93.8l2.419 5.759h6.374L90.919 40.831H85.39zm11.02-11.058l3.417-8.217 3.417 8.217h-6.834zm22.618 11.058h17.394v-5.836H113.46V40.831h-6.1v27.261zm23.117 0h6.1V40.831h-6.1v27.261zm10.867 0h6.374l2.419-5.759h11.288l2.419 5.759h6.374l-11.672-27.261h-5.53zm11.02-11.058l3.417-8.217 3.417 8.217h-6.834zm47.269 11.058V40.831h-6.144v16.818l-13.247-16.818h-5.26v27.261h6.1V51.236l13.285 16.856h5.261zm32.141-5.8l7.948-11.02v16.82h6.143V40.831h-5.567l-8.524 11.749-8.525-11.749h-5.567v27.261h6.105V51.275zm34.331 6.261a14.091 14.091 0 1 0-14.092-14.091A14.126 14.126 0 0 0 266.1 68.553zm0-5.913a8.183 8.183 0 1 1 7.91-8.178 8.088 8.088 0 0 1-7.91 8.178zm20.237 5.452h17.394v-5.836H292.44V40.831h-6.105v27.261zm23.116 0h17.277v-5.836h-11.174V57.38h8.87v-5.836h-8.87v-4.877h11.174v-5.836h-17.279v27.261zm31.987.461c5.759 0 9.714-3.456 9.753-8.409.038-4.108-2.534-6.719-6.489-8.14l-1.92-.691c-2.88-1.037-4.224-1.689-4.224-3.148 0-1.421 1.651-2.073 3.3-2.073a6.064 6.064 0 0 1 4.723 2.265l3.993-4.224a11.374 11.374 0 0 0-8.793-3.763c-5.452 0-9.407 3.11-9.407 8.409 0 3.724 2.458 6.374 6.873 7.871l1.92.653c2.726.922 3.8 1.881 3.8 3.264 0 1.306-1.267 2.265-3.3 2.265a7.132 7.132 0 0 1-5.644-3.11l-4.685 3.955a11.955 11.955 0 0 0 10.098 4.876zm15.9-.461h6.06v-12.21l11.1 12.21h7.833l-12.94-14.168 10.752-13.093h-7.488l-9.254 11.4v-11.4h-6.066v27.261zm28.8 0h6.106V40.831h-6.106v27.261zm38.437 0V40.831h-6.144v16.818l-13.252-16.818h-5.26v27.261h6.105V51.236l13.285 16.856h5.261zm21.85 0h6.144V46.667h7.026v-5.836h-20.12v5.836h6.95v21.425zm18.816 0h6.106v-11.25h1l9.062 11.25h7.333L479.1 56.074c3.455-1.229 5.337-3.494 5.337-7.026a8.049 8.049 0 0 0-8.447-8.217h-10.752v27.261zm6.106-16.434v-5.221h3.916c1.805 0 3.11.96 3.11 2.611 0 1.574-1.305 2.611-3.11 2.611h-3.916zm31.641 16.894c6.527 0 11.212-4.454 11.212-11.25V40.831h-6.105V57.38c0 3.264-2.074 5.26-5.107 5.26s-5.107-2-5.107-5.26V40.831h-6.1V57.3c-.01 6.8 4.636 11.253 11.202 11.253zm31.142 0a14.091 14.091 0 0 0 12.742-7.452l-5.374-2.914a8.179 8.179 0 1 1 0-7.449l5.375-2.918a14.212 14.212 0 1 0-12.748 20.734zm18.24-.461h6.067V55.882l11.1 12.21h7.833l-12.94-14.168 10.751-13.093h-7.487l-9.254 11.4v-11.4h-6.067v27.261zm28.8 0h17.279v-5.835h-11.178V57.38h8.869v-5.836h-8.869v-4.877h11.173v-5.836h-17.279v27.261zm23.847 0h6.105V56.842h1l9.062 11.25h7.334l-9.638-12.018c3.456-1.229 5.337-3.494 5.337-7.026a8.049 8.049 0 0 0-8.447-8.217h-10.758v27.261zm6.105-16.434v-5.22h3.916c1.805 0 3.111.96 3.111 2.611 0 1.574-1.306 2.611-3.111 2.611h-3.916zM48.6 109.352c4.685 0 8.908-2.342 8.908-7.91V81.63h-6.102v19.428a2.807 2.807 0 0 1-5.606-.153h-6.028c0 5.913 4.262 8.447 8.828 8.447zm12.865-.461h6.374l2.419-5.759h11.291l2.419 5.759h6.374L78.67 81.63h-5.53zm11.02-11.058l3.417-8.217 3.417 8.217h-6.831zm33.945 11.519a14.092 14.092 0 0 0 12.748-7.449l-5.376-2.918a8.179 8.179 0 1 1 0-7.449l5.376-2.918a14.213 14.213 0 1 0-12.745 20.734zm18.241-.461h6.067v-12.21l11.1 12.21h7.833l-12.94-14.168 10.751-13.093h-7.488l-9.253 11.4v-11.4h-6.067v27.261zm28.8 0h17.279v-5.836h-11.171v-4.876h8.87v-5.837h-8.87v-4.876h11.174V81.63h-17.279v27.261zm28.761 0h6.144V87.466h7.026V81.63h-20.12v5.836h6.95v21.425zM41.486 142.49h2.456v-18.746h-2.456v18.746zm15.524-.185v-2.033a5 5 0 0 1-1.611.264c-1.426 0-2.191-.554-2.191-2.244v-6.917h3.8v-2.086h-3.8v-3.67h-2.271v3.67h-2.8v2.086h2.8v7.208a3.716 3.716 0 0 0 4.04 4.039 6.313 6.313 0 0 0 2.033-.317zm3.009-6.415a6.606 6.606 0 0 0 6.469 6.864 5.788 5.788 0 0 0 4.647-2.3v2.033h2.271v-13.2h-2.271v2.033a5.788 5.788 0 0 0-4.647-2.3 6.606 6.606 0 0 0-6.469 6.87zm11.3 0a4.51 4.51 0 1 1-4.489-4.779 4.508 4.508 0 0 1 4.489 4.779zm7.681 6.6h2.271v-19.8H79v19.8zm10.639-18.35a1.594 1.594 0 0 0-1.584-1.61 1.64 1.64 0 0 0-1.637 1.61 1.623 1.623 0 0 0 1.637 1.611 1.578 1.578 0 0 0 1.584-1.611zm-2.746 18.35h2.271v-13.2h-2.271v13.2zm6.864-6.6a6.606 6.606 0 0 0 6.469 6.864 5.787 5.787 0 0 0 4.647-2.3v2.033h2.271v-13.2h-2.271v2.033a5.787 5.787 0 0 0-4.647-2.3 6.606 6.606 0 0 0-6.469 6.87zm11.3 0a4.51 4.51 0 1 1-4.489-4.779 4.508 4.508 0 0 1 4.49 4.779zm7.681 6.6h2.27v-6.548c0-3.089 1.69-4.831 3.829-4.831 1.848 0 3.116 1.373 3.116 3.59v7.789h2.247v-8.132c0-3.274-2.033-5.333-4.99-5.333a4.669 4.669 0 0 0-4.2 2.3v-2.033h-2.27v13.2zm24.63 0h2.271v-6.548c0-2.983 1.505-4.831 3.644-4.831 1.716 0 2.587 1.478 2.587 3.617v7.762h2.271v-6.548c0-2.983 1.479-4.831 3.617-4.831 1.717 0 2.614 1.478 2.614 3.617v7.762h2.271v-8.105c0-3.222-1.743-5.36-4.621-5.36a4.568 4.568 0 0 0-4.33 2.825 4.149 4.149 0 0 0-4.066-2.825 4.437 4.437 0 0 0-3.987 2.3v-2.033h-2.271v13.2zm37.437-6.6a6.9 6.9 0 1 0-6.891 6.864 6.774 6.774 0 0 0 6.892-6.864zm-11.486 0a4.585 4.585 0 1 1 4.595 4.752 4.538 4.538 0 0 1-4.594-4.752zm16.051 6.6h2.271v-19.8h-2.271v19.8zm6.864-6.6a6.96 6.96 0 0 0 12.779 3.722l-1.8-1.241a4.674 4.674 0 0 1-8.687-2.033h10.825a6.285 6.285 0 0 0 .027-.686c-.027-4.225-2.825-6.627-6.284-6.627a6.69 6.69 0 0 0-6.859 6.865zm6.786-4.859a3.95 3.95 0 0 1 4.039 3.459h-8.37a4.317 4.317 0 0 1 4.332-3.459zm19.457 7.789c0-1.98-1.241-3.247-3.486-3.987l-1.426-.475c-1.557-.5-2.033-1-2.033-1.848 0-.977.977-1.531 2.218-1.531a3.567 3.567 0 0 1 2.8 1.373l1.479-1.426a5.12 5.12 0 0 0-4.225-1.9c-2.614 0-4.462 1.452-4.462 3.591 0 1.848 1.135 3.142 3.274 3.828l1.294.422c1.716.555 2.35 1.189 2.35 2.113 0 1.135-1.03 1.795-2.324 1.795a3.544 3.544 0 0 1-3.38-2.086l-1.848 1a5.244 5.244 0 0 0 5.175 3.062c2.667.003 4.595-1.343 4.595-3.931zm4.565 3.67h2.271v-6.6l7.155 6.6h3.063l-7.947-7.366 6.5-5.835h-3.01l-5.756 5.148v-11.749h-2.271v19.8zm18.3-18.35a1.6 1.6 0 0 0-1.585-1.61 1.64 1.64 0 0 0-1.637 1.61 1.623 1.623 0 0 0 1.637 1.611 1.579 1.579 0 0 0 1.582-1.611zm-2.746 18.35h2.27v-13.2h-2.27v13.2zm7.893 0h2.271v-6.548c0-3.089 1.69-4.831 3.828-4.831 1.849 0 3.116 1.373 3.116 3.59v7.789h2.244v-8.132c0-3.274-2.033-5.333-4.99-5.333a4.667 4.667 0 0 0-4.2 2.3v-2.033h-2.271v13.2zm19.694-.581a2.249 2.249 0 0 0 .37-1.188 1.954 1.954 0 1 0-3.908 0 1.965 1.965 0 0 0 1.083 1.769l-1.769 3.776h1.505zm15.286-1.452a5.786 5.786 0 0 0 4.647 2.3 6.877 6.877 0 0 0 0-13.729 5.786 5.786 0 0 0-4.647 2.3v-8.634H273.2v19.8h2.271v-2.033zm8.792-4.567a4.5 4.5 0 1 1-4.489-4.779 4.508 4.508 0 0 1 4.486 4.779zm9.767 4.831a1.954 1.954 0 1 0-1.954 1.981 1.99 1.99 0 0 0 1.951-1.981zm23.893-.422h-9.347c.449-2.165 2.64-3.248 4.8-4.832 3.063-2.218 4.33-3.8 4.33-6.548 0-3.644-2.666-5.492-5.782-5.492-3.459 0-6.179 2.324-6.179 5.915h2.324a3.62 3.62 0 0 1 3.881-3.7 3.171 3.171 0 0 1 3.433 3.248c0 2.191-1.162 3.168-3.327 4.779-2.772 2.059-6.284 3.907-6.284 7.921v.9h12.146v-2.19zm17.477-4.594v-5.228c0-4.145-2.8-7.05-6.654-7.05s-6.627 2.9-6.627 7.05v5.228c0 4.171 2.772 7.049 6.627 7.049s6.656-2.878 6.656-7.049zm-11.011 0v-5.228c0-3.036 1.822-4.832 4.357-4.832 2.561 0 4.383 1.8 4.383 4.832v5.228c0 3.036-1.822 4.831-4.383 4.831-2.538 0-4.36-1.795-4.36-4.831zm17.688 6.785h2.271v-18.746H340.3l-1.848 2.244h3.617v16.5zm19.907-5.624a5.24 5.24 0 0 0-2.931-4.911 4.388 4.388 0 0 0 1.9-3.7c0-2.8-2.165-4.832-5.254-4.832-3.01 0-5.281 2.033-5.281 4.832a4.368 4.368 0 0 0 1.954 3.7 5.24 5.24 0 0 0-2.984 4.911c0 3.406 2.641 5.888 6.311 5.888 3.721 0 6.282-2.482 6.282-5.888zm-9.321-8.554a2.791 2.791 0 0 1 3.037-2.746 2.739 2.739 0 0 1 3.01 2.746 2.8 2.8 0 0 1-3.01 2.772 2.857 2.857 0 0 1-3.04-2.772zm-.977 8.554a3.722 3.722 0 0 1 4.014-3.749 3.744 3.744 0 1 1 0 7.472 3.731 3.731 0 0 1-4.017-3.723zM44.717 195.289H46.9v-14.931h5.305v-2.112H39.412v2.112h5.305v14.931zm10.871 0h2.064v-5.953c0-2.809 1.536-4.393 3.481-4.393 1.68 0 2.833 1.248 2.833 3.265v7.081h2.04V187.9c0-2.977-1.848-4.849-4.537-4.849a4.245 4.245 0 0 0-3.817 2.088v-7.849h-2.064v18zm17.832-16.683a1.449 1.449 0 0 0-1.44-1.464 1.491 1.491 0 0 0-1.488 1.464 1.475 1.475 0 0 0 1.488 1.464 1.435 1.435 0 0 0 1.44-1.464zm-2.5 16.683h2.064v-12h-2.06v12zm14.953-3.337c0-1.8-1.128-2.952-3.169-3.624l-1.3-.432c-1.416-.457-1.848-.913-1.848-1.681 0-.888.888-1.392 2.016-1.392a3.243 3.243 0 0 1 2.544 1.248l1.344-1.3a4.655 4.655 0 0 0-3.841-1.728c-2.377 0-4.057 1.32-4.057 3.264 0 1.681 1.032 2.857 2.977 3.481l1.176.384c1.56.5 2.136 1.08 2.136 1.92 0 1.033-.936 1.633-2.112 1.633a3.221 3.221 0 0 1-3.073-1.9l-1.68.912a4.767 4.767 0 0 0 4.7 2.785c2.439.007 4.191-1.217 4.191-3.57zm13.7-13.346a1.45 1.45 0 0 0-1.44-1.464 1.491 1.491 0 0 0-1.488 1.464 1.475 1.475 0 0 0 1.488 1.464 1.435 1.435 0 0 0 1.447-1.464zm-2.5 16.683h2.064v-12h-2.054v12zm18.074-2.977l-1.8-1.008a4.069 4.069 0 0 1-3.745 2.305 4.323 4.323 0 0 1 0-8.642 4.068 4.068 0 0 1 3.745 2.3l1.8-1.008a6.215 6.215 0 0 0-5.545-3.216 6.241 6.241 0 1 0 0 12.482 6.214 6.214 0 0 0 5.555-3.213zm15.456-3.024a6.277 6.277 0 1 0-6.265 6.241 6.159 6.159 0 0 0 6.275-6.241zm-10.442 0a4.168 4.168 0 1 1 4.177 4.321 4.125 4.125 0 0 1-4.167-4.321zm14.591 6h2.065v-5.953c0-2.809 1.536-4.393 3.481-4.393 1.68 0 2.832 1.248 2.832 3.265v7.081h2.041V187.9c0-2.977-1.849-4.849-4.537-4.849a4.244 4.244 0 0 0-3.817 2.088v-1.848h-2.065v12zm17.848-16.682a1.45 1.45 0 0 0-1.441-1.464 1.491 1.491 0 0 0-1.488 1.464 1.475 1.475 0 0 0 1.488 1.464 1.435 1.435 0 0 0 1.441-1.464zm-2.5 16.683h2.065v-12H150.1v12zm18.074-2.977l-1.8-1.008a4.069 4.069 0 0 1-3.745 2.305 4.323 4.323 0 0 1 0-8.642 4.068 4.068 0 0 1 3.745 2.3l1.8-1.008a6.215 6.215 0 0 0-5.545-3.216 6.241 6.241 0 1 0 0 12.482 6.214 6.214 0 0 0 5.543-3.213zm13.606-13.706a1.449 1.449 0 0 0-1.44-1.464 1.492 1.492 0 0 0-1.489 1.464 1.476 1.476 0 0 0 1.489 1.464 1.434 1.434 0 0 0 1.438-1.464zm-.432 4.681h-2.065v13.346c0 1.536-.72 2.041-1.848 2.041a5.262 5.262 0 0 1-.7-.048v1.848a6.1 6.1 0 0 0 .984.072 3.365 3.365 0 0 0 3.625-3.673v-13.586zm4.175 6a6.006 6.006 0 0 0 5.881 6.241 5.263 5.263 0 0 0 4.225-2.088v1.848h2.065v-12h-2.065v1.848a5.263 5.263 0 0 0-4.225-2.088 6.006 6.006 0 0 0-5.883 6.24zm10.274 0a4.1 4.1 0 1 1-4.081-4.345 4.1 4.1 0 0 1 4.084 4.346zm17.88 3.024l-1.8-1.008a4.07 4.07 0 0 1-3.745 2.305 4.323 4.323 0 0 1 0-8.642 4.069 4.069 0 0 1 3.745 2.3l1.8-1.008a6.215 6.215 0 0 0-5.545-3.216 6.241 6.241 0 1 0 0 12.482 6.214 6.214 0 0 0 5.543-3.212zm3.862 2.977h2.061v-6l6.5 6h2.785l-7.226-6.7 5.906-5.305h-2.737l-5.233 4.681v-10.678h-2.064v18zm12.431-6a6.328 6.328 0 0 0 11.619 3.384l-1.633-1.128a4.249 4.249 0 0 1-7.9-1.848h9.844a5.856 5.856 0 0 0 .024-.624c-.024-3.841-2.569-6.025-5.714-6.025a6.082 6.082 0 0 0-6.242 6.241zm6.169-4.417a3.591 3.591 0 0 1 3.673 3.145H232.2a3.923 3.923 0 0 1 3.937-3.145zm16.249 10.25v-1.848a4.562 4.562 0 0 1-1.464.24c-1.3 0-1.993-.5-1.993-2.041v-6.289h3.457v-1.9h-3.457v-3.333h-2.064v3.337h-2.547v1.9h2.545v6.553a3.378 3.378 0 0 0 3.672 3.673 5.744 5.744 0 0 0 1.849-.292zm13.391-16.515a1.45 1.45 0 0 0-1.441-1.464 1.491 1.491 0 0 0-1.488 1.464 1.475 1.475 0 0 0 1.488 1.464 1.435 1.435 0 0 0 1.439-1.464zm-2.5 16.683h2.065v-12h-2.064v12zm14.954-3.337c0-1.8-1.129-2.952-3.169-3.624l-1.3-.432c-1.417-.457-1.849-.913-1.849-1.681 0-.888.888-1.392 2.017-1.392a3.242 3.242 0 0 1 2.544 1.248l1.344-1.3a4.654 4.654 0 0 0-3.84-1.728c-2.377 0-4.057 1.32-4.057 3.264 0 1.681 1.032 2.857 2.976 3.481l1.177.384c1.56.5 2.136 1.08 2.136 1.92 0 1.033-.936 1.633-2.112 1.633a3.22 3.22 0 0 1-3.073-1.9l-1.68.912a4.766 4.766 0 0 0 4.705 2.785c2.429.007 4.182-1.217 4.182-3.57zm13.7-13.346a1.449 1.449 0 0 0-1.44-1.464 1.491 1.491 0 0 0-1.489 1.464 1.475 1.475 0 0 0 1.489 1.464 1.434 1.434 0 0 0 1.443-1.464zm-2.5 16.683h2.067v-12h-2.065v12zm7.176 0h2.065v-5.953c0-2.809 1.536-4.393 3.48-4.393 1.681 0 2.833 1.248 2.833 3.265v7.081h2.04V187.9c0-2.977-1.848-4.849-4.537-4.849a4.243 4.243 0 0 0-3.816 2.088v-1.848h-2.065v12zm23.114-3.337c0-1.8-1.129-2.952-3.169-3.624l-1.3-.432c-1.417-.457-1.849-.913-1.849-1.681 0-.888.888-1.392 2.017-1.392a3.242 3.242 0 0 1 2.544 1.248l1.345-1.3a4.657 4.657 0 0 0-3.841-1.728c-2.377 0-4.057 1.32-4.057 3.264 0 1.681 1.032 2.857 2.977 3.481l1.176.384c1.56.5 2.136 1.08 2.136 1.92 0 1.033-.936 1.633-2.112 1.633a3.22 3.22 0 0 1-3.073-1.9l-1.68.912a4.766 4.766 0 0 0 4.705 2.785c2.434.007 4.187-1.217 4.187-3.57zm4.15 8.354h2.064v-6.865a5.264 5.264 0 0 0 4.225 2.088 6.252 6.252 0 0 0 0-12.482 5.264 5.264 0 0 0-4.225 2.088v-1.848h-2.064v17.019zm10.058-11.018a4.089 4.089 0 1 1-4.081-4.345 4.1 4.1 0 0 1 4.087 4.345zm8.782-10.682a1.449 1.449 0 0 0-1.44-1.464 1.491 1.491 0 0 0-1.488 1.464 1.475 1.475 0 0 0 1.488 1.464 1.434 1.434 0 0 0 1.446-1.464zm-2.5 16.683h2.064v-12h-2.064v12zm7.176 0h2.064v-5.953c0-2.809 1.656-4.129 3.169-4.129a3.017 3.017 0 0 1 1.128.192v-2.136a4.276 4.276 0 0 0-.936-.1 3.57 3.57 0 0 0-3.361 2.448v-2.328H347.4v12zm8.615-6a6.328 6.328 0 0 0 11.619 3.384L366 191.544a4.25 4.25 0 0 1-7.9-1.848h9.842a5.856 5.856 0 0 0 .024-.624c-.024-3.841-2.568-6.025-5.713-6.025a6.082 6.082 0 0 0-6.239 6.241zm6.17-4.417a3.591 3.591 0 0 1 3.673 3.145h-7.61a3.923 3.923 0 0 1 3.947-3.146zm8.974 4.417a6.007 6.007 0 0 0 5.882 6.241 5.262 5.262 0 0 0 4.224-2.088v1.848h2.065v-18h-2.065v7.849a5.262 5.262 0 0 0-4.224-2.088 6.006 6.006 0 0 0-5.872 6.237zm10.275 0a4.1 4.1 0 1 1-4.081-4.345 4.1 4.1 0 0 1 4.091 4.344zm16.1 4.153a5.266 5.266 0 0 0 4.225 2.088 6.252 6.252 0 0 0 0-12.482 5.266 5.266 0 0 0-4.225 2.088v-7.849h-2.053v18h2.064v-1.848zm7.994-4.153a4.089 4.089 0 1 1-4.081-4.345 4.1 4.1 0 0 1 4.092 4.344zm9.215 11.018l7.873-17.019h-2.3l-4.105 9.1-4.129-9.1H409.8l5.257 11.378-2.617 5.641h2.305zm17.975-5.017h6.1c3.457 0 5.713-2.136 5.713-4.969a4.061 4.061 0 0 0-2.952-4.081 3.862 3.862 0 0 0 1.824-3.48c0-2.4-1.92-4.513-5.089-4.513h-5.593v17.043zm2.232-9.722v-5.305h3.361a2.68 2.68 0 0 1 2.905 2.665 2.624 2.624 0 0 1-2.905 2.64h-3.35zm0 7.706v-5.786h3.985c2.257 0 3.409 1.249 3.409 2.905 0 1.68-1.152 2.881-3.433 2.881h-3.95zm12.816-3.985a6.006 6.006 0 0 0 5.881 6.241 5.264 5.264 0 0 0 4.225-2.088v1.848h2.064v-12h-2.064v1.848a5.264 5.264 0 0 0-4.225-2.088 6.005 6.005 0 0 0-5.87 6.238zm10.274 0a4.1 4.1 0 1 1-4.081-4.345 4.1 4.1 0 0 1 4.092 4.344zm6.982 6h2.064v-5.953c0-2.809 1.536-4.393 3.481-4.393 1.68 0 2.832 1.248 2.832 3.265v7.081h2.041V187.9c0-2.977-1.849-4.849-4.537-4.849a4.244 4.244 0 0 0-3.817 2.088v-1.848h-2.064v12zm14.4-6a6.006 6.006 0 0 0 5.881 6.241 5.263 5.263 0 0 0 4.225-2.088v1.848h2.065v-12h-2.065v1.848a5.263 5.263 0 0 0-4.225-2.088 6.006 6.006 0 0 0-5.871 6.238zm10.274 0a4.1 4.1 0 1 1-4.081-4.345 4.1 4.1 0 0 1 4.096 4.344zm6.982 6h2.064v-5.953c0-2.809 1.537-4.393 3.481-4.393 1.681 0 2.833 1.248 2.833 3.265v7.081h2.04V187.9c0-2.977-1.848-4.849-4.537-4.849a4.246 4.246 0 0 0-3.817 2.088v-1.848h-2.064v12zm14.4-6a6.006 6.006 0 0 0 5.881 6.241 5.264 5.264 0 0 0 4.225-2.088v1.848h2.064v-12h-2.064v1.848a5.264 5.264 0 0 0-4.225-2.088 6.005 6.005 0 0 0-5.871 6.238zm10.274 0a4.1 4.1 0 1 1-4.081-4.345 4.1 4.1 0 0 1 4.091 4.344zm14.349 6h2.233v-7.754h1.656l6.554 7.754h2.808l-6.553-7.778c2.616-.384 4.2-2.064 4.2-4.56 0-2.809-1.945-4.7-5.089-4.7H535.7v17.043zm2.233-9.746v-5.233h3.312c1.945 0 3.121.912 3.121 2.641 0 1.7-1.176 2.592-3.121 2.592h-3.312zm12.6 3.745a6.327 6.327 0 0 0 11.618 3.384l-1.632-1.128a4.25 4.25 0 0 1-7.9-1.848h9.842a5.856 5.856 0 0 0 .024-.624c-.024-3.841-2.568-6.025-5.713-6.025a6.081 6.081 0 0 0-6.23 6.241zm6.169-4.417a3.591 3.591 0 0 1 3.673 3.145h-7.61a3.924 3.924 0 0 1 3.945-3.145zm9.911 15.435h2.064v-6.865a5.266 5.266 0 0 0 4.225 2.088 6.252 6.252 0 0 0 0-12.482 5.266 5.266 0 0 0-4.225 2.088v-1.848h-2.064v17.019zm10.058-11.018a4.089 4.089 0 1 1-4.081-4.345 4.1 4.1 0 0 1 4.09 4.345zm6.118 1.368c0 2.977 1.776 4.873 4.417 4.873a4.131 4.131 0 0 0 3.7-2.088v1.848h2.064v-12h-2.06v5.953c0 2.76-1.465 4.393-3.337 4.393-1.657 0-2.713-1.273-2.713-3.289v-7.057h-2.064v7.369zm17.328 2.785a5.264 5.264 0 0 0 4.225 2.088 6.252 6.252 0 0 0 0-12.482 5.264 5.264 0 0 0-4.225 2.088v-7.849h-2.064v18h2.064v-1.848zm7.994-4.153a4.089 4.089 0 1 1-4.081-4.345 4.1 4.1 0 0 1 4.09 4.345zm6.262 6h2.064v-18h-2.064v18zm9.672-16.683a1.449 1.449 0 0 0-1.44-1.464 1.491 1.491 0 0 0-1.489 1.464 1.475 1.475 0 0 0 1.489 1.464 1.434 1.434 0 0 0 1.449-1.463zm-2.5 16.683h2.065v-12h-2.065v12zm18.074-2.977l-1.8-1.008a4.069 4.069 0 0 1-3.745 2.305 4.323 4.323 0 0 1 0-8.642 4.068 4.068 0 0 1 3.745 2.3l1.8-1.008a6.215 6.215 0 0 0-5.545-3.216 6.241 6.241 0 1 0 0 12.482 6.214 6.214 0 0 0 5.557-3.212zm6.623-11.474a2.121 2.121 0 0 0 .336-1.08 1.789 1.789 0 1 0-3.577 0 1.86 1.86 0 0 0 .984 1.608l-1.608 3.433h1.392zm11.209 11.114c0-1.8-1.128-2.952-3.169-3.624l-1.3-.432c-1.416-.457-1.848-.913-1.848-1.681 0-.888.888-1.392 2.016-1.392a3.244 3.244 0 0 1 2.545 1.248l1.344-1.3a4.656 4.656 0 0 0-3.841-1.728c-2.376 0-4.057 1.32-4.057 3.264 0 1.681 1.033 2.857 2.977 3.481l1.176.384c1.561.5 2.137 1.08 2.137 1.92 0 1.033-.937 1.633-2.113 1.633a3.22 3.22 0 0 1-3.072-1.9l-1.681.912a4.767 4.767 0 0 0 4.7 2.785c2.445.008 4.198-1.216 4.198-3.569zM40.012 218.087a6.007 6.007 0 0 0 6.217 6.241 6.029 6.029 0 0 0 5.4-2.856L50 220.343a4.249 4.249 0 0 1-7.9-1.848h9.842a5.856 5.856 0 0 0 .024-.624c-.024-3.841-2.569-6.025-5.713-6.025a6.082 6.082 0 0 0-6.241 6.241zm6.169-4.417a3.591 3.591 0 0 1 3.673 3.145h-7.61a3.924 3.924 0 0 1 3.937-3.145zm7.679 10.418h2.569l3.649-4.537 3.649 4.537h2.545l-4.9-6.073 4.513-5.929h-2.52l-3.289 4.321-3.313-4.321h-2.5l4.513 5.929zm15.72 5.017h2.064v-6.865a5.264 5.264 0 0 0 4.225 2.088 6.252 6.252 0 0 0 0-12.482 5.264 5.264 0 0 0-4.225 2.088v-1.848H69.58v17.019zm10.058-11.018a4.089 4.089 0 1 1-4.081-4.345 4.1 4.1 0 0 1 4.081 4.345zm6.286 6h2.064v-18h-2.064v18zm18.771-6a6.278 6.278 0 1 0-6.266 6.241 6.159 6.159 0 0 0 6.271-6.241zm-10.443 0a4.168 4.168 0 1 1 4.177 4.321 4.126 4.126 0 0 1-4.177-4.321zm14.592 6h2.064v-5.953c0-2.808 1.657-4.129 3.169-4.129a3.017 3.017 0 0 1 1.128.192v-2.136a4.276 4.276 0 0 0-.936-.1 3.571 3.571 0 0 0-3.361 2.448v-2.328h-2.064v12zm8.616-6a6.328 6.328 0 0 0 11.618 3.385l-1.632-1.129a4.25 4.25 0 0 1-7.9-1.848h9.842a5.856 5.856 0 0 0 .024-.624c-.024-3.841-2.568-6.025-5.713-6.025a6.081 6.081 0 0 0-6.239 6.241zm6.169-4.417a3.591 3.591 0 0 1 3.673 3.145h-7.61a3.924 3.924 0 0 1 3.937-3.145zm9.911 10.418h2.06v-5.953c0-2.808 1.657-4.129 3.169-4.129a3.017 3.017 0 0 1 1.128.192v-2.136a4.276 4.276 0 0 0-.936-.1 3.571 3.571 0 0 0-3.361 2.448v-2.328h-2.06v12zm24.217-3.336c0-1.8-1.128-2.953-3.168-3.625l-1.3-.432c-1.416-.456-1.848-.912-1.848-1.681 0-.888.888-1.392 2.016-1.392a3.243 3.243 0 0 1 2.545 1.248l1.344-1.3a4.654 4.654 0 0 0-3.841-1.728c-2.376 0-4.057 1.32-4.057 3.265 0 1.68 1.033 2.856 2.977 3.48l1.176.384c1.561.5 2.137 1.08 2.137 1.921 0 1.032-.936 1.632-2.113 1.632a3.221 3.221 0 0 1-3.072-1.9l-1.681.912a4.768 4.768 0 0 0 4.705 2.784c2.428.008 4.18-1.22 4.18-3.568zm4.15 8.353h2.065v-6.865a5.263 5.263 0 0 0 4.225 2.088 6.252 6.252 0 0 0 0-12.482 5.263 5.263 0 0 0-4.225 2.088v-1.848h-2.065v17.019zm10.058-11.018a4.089 4.089 0 1 1-4.08-4.345 4.1 4.1 0 0 1 4.08 4.345zm8.783-10.682a1.45 1.45 0 0 0-1.441-1.464 1.491 1.491 0 0 0-1.488 1.464 1.475 1.475 0 0 0 1.488 1.464 1.435 1.435 0 0 0 1.441-1.464zm-2.5 16.683h2.065v-12h-2.065v12zm7.176 0h2.065v-5.953c0-2.808 1.656-4.129 3.168-4.129a3.017 3.017 0 0 1 1.128.192v-2.136a4.276 4.276 0 0 0-.936-.1 3.57 3.57 0 0 0-3.36 2.448v-2.328h-2.065v12zm12.481-16.683a1.45 1.45 0 0 0-1.441-1.464 1.491 1.491 0 0 0-1.488 1.464 1.475 1.475 0 0 0 1.488 1.464 1.435 1.435 0 0 0 1.444-1.464zm-2.5 16.683h2.064v-12h-2.064v12zm13.681-.168v-1.848a4.562 4.562 0 0 1-1.464.24c-1.3 0-1.992-.5-1.992-2.041v-6.289h3.456v-1.9h-3.456v-3.337h-2.065v3.337h-2.544v1.9h2.544v6.554a3.378 3.378 0 0 0 3.673 3.672 5.743 5.743 0 0 0 1.854-.288zm9.958-5.833a6.006 6.006 0 0 0 5.882 6.241 5.262 5.262 0 0 0 4.224-2.088v1.848h2.065v-12h-2.065v1.848a5.262 5.262 0 0 0-4.224-2.088 6.006 6.006 0 0 0-5.876 6.239zm10.274 0a4.1 4.1 0 1 1-4.08-4.345 4.1 4.1 0 0 1 4.086 4.345zm6.982 6h2.065v-5.953c0-2.808 1.536-4.393 3.48-4.393 1.681 0 2.833 1.248 2.833 3.265v7.081h2.04V216.7c0-2.977-1.848-4.849-4.537-4.849a4.243 4.243 0 0 0-3.816 2.088v-1.848H236.3v12zm14.4-6a6.005 6.005 0 0 0 5.881 6.241 5.264 5.264 0 0 0 4.225-2.088v1.848h2.064v-18h-2.064v7.849a5.264 5.264 0 0 0-4.225-2.088 6.005 6.005 0 0 0-5.875 6.238zm10.274 0a4.1 4.1 0 1 1-4.081-4.345 4.1 4.1 0 0 1 4.087 4.345zm13.869 1.368c0 2.977 1.777 4.873 4.417 4.873a4.129 4.129 0 0 0 3.7-2.088v1.848h2.065v-12h-2.065v5.953c0 2.761-1.464 4.393-3.337 4.393-1.656 0-2.712-1.272-2.712-3.289v-7.057h-2.065v7.369zm21.77 4.465v-1.848a4.568 4.568 0 0 1-1.465.24c-1.3 0-1.992-.5-1.992-2.041v-6.289h3.457v-1.9h-3.457v-3.337H291.1v3.337h-2.545v1.9h2.545v6.554a3.378 3.378 0 0 0 3.672 3.672 5.749 5.749 0 0 0 1.847-.288zm6.335-16.515a1.45 1.45 0 0 0-1.441-1.464 1.491 1.491 0 0 0-1.488 1.464 1.475 1.475 0 0 0 1.488 1.464 1.435 1.435 0 0 0 1.447-1.464zm-2.5 16.683h2.065v-12h-2.065v12zm7.176 0h2.076v-18h-2.065v18zm9.672-16.683a1.449 1.449 0 0 0-1.44-1.464 1.491 1.491 0 0 0-1.488 1.464 1.475 1.475 0 0 0 1.488 1.464 1.434 1.434 0 0 0 1.449-1.464zm-2.5 16.683h2.064v-12h-2.064v12zm13.681-.168v-1.848a4.562 4.562 0 0 1-1.464.24c-1.3 0-1.993-.5-1.993-2.041v-6.289h3.457v-1.9h-3.457v-3.337h-2.064v3.337h-2.545v1.9h2.545v6.554a3.378 3.378 0 0 0 3.673 3.672 5.743 5.743 0 0 0 1.861-.288zm2.735-5.833a6.005 6.005 0 0 0 5.881 6.241 5.264 5.264 0 0 0 4.225-2.088v1.848h2.082v-12h-2.064v1.848a5.264 5.264 0 0 0-4.225-2.088 6.005 6.005 0 0 0-5.886 6.239zm10.274 0a4.1 4.1 0 1 1-4.081-4.345 4.1 4.1 0 0 1 4.095 4.345zm6.982 6h2.064v-5.953c0-2.808 1.656-4.129 3.169-4.129a3.017 3.017 0 0 1 1.128.192v-2.136a4.276 4.276 0 0 0-.936-.1 3.571 3.571 0 0 0-3.361 2.448v-2.328h-2.064v12zm12.48-16.683a1.449 1.449 0 0 0-1.44-1.464 1.492 1.492 0 0 0-1.489 1.464 1.476 1.476 0 0 0 1.489 1.464 1.434 1.434 0 0 0 1.453-1.463zm-2.5 16.683h2.064v-12h-2.064v12zm6.239-6a6.006 6.006 0 0 0 5.881 6.241 5.263 5.263 0 0 0 4.225-2.088v1.848h2.065v-12h-2.048v1.848a5.263 5.263 0 0 0-4.225-2.088 6.006 6.006 0 0 0-5.885 6.239zm10.274 0a4.1 4.1 0 1 1-4.08-4.345 4.1 4.1 0 0 1 4.097 4.345zm6.982 6h2.065v-5.953c0-2.808 1.536-4.393 3.48-4.393 1.681 0 2.833 1.248 2.833 3.265v7.081h2.04V216.7c0-2.977-1.848-4.849-4.537-4.849a4.243 4.243 0 0 0-3.816 2.088v-1.848h-2.048v12zm22.392 0h2.064v-5.953c0-2.808 1.536-4.393 3.481-4.393 1.68 0 2.832 1.248 2.832 3.265v7.081h2.041V216.7c0-2.977-1.849-4.849-4.537-4.849a4.245 4.245 0 0 0-3.817 2.088v-7.849h-2.064v18zm17.832-16.683a1.449 1.449 0 0 0-1.44-1.464 1.491 1.491 0 0 0-1.489 1.464 1.475 1.475 0 0 0 1.489 1.464 1.434 1.434 0 0 0 1.457-1.463zm-2.5 16.683h2.065v-12h-2.065v12zm14.954-3.336c0-1.8-1.128-2.953-3.169-3.625l-1.3-.432c-1.416-.456-1.848-.912-1.848-1.681 0-.888.888-1.392 2.016-1.392a3.246 3.246 0 0 1 2.545 1.248l1.344-1.3a4.656 4.656 0 0 0-3.841-1.728c-2.377 0-4.057 1.32-4.057 3.265 0 1.68 1.032 2.856 2.977 3.48l1.176.384c1.56.5 2.136 1.08 2.136 1.921 0 1.032-.936 1.632-2.112 1.632a3.222 3.222 0 0 1-3.073-1.9l-1.68.912a4.768 4.768 0 0 0 4.7 2.784c2.454.009 4.206-1.219 4.206-3.567zm10.511 3.168v-1.848a4.562 4.562 0 0 1-1.464.24c-1.3 0-1.992-.5-1.992-2.041v-6.289h3.456v-1.9H441.7v-3.337h-2.065v3.337h-2.544v1.9h2.544v6.554a3.379 3.379 0 0 0 3.673 3.672 5.743 5.743 0 0 0 1.844-.287zm15.266-5.833a6.278 6.278 0 1 0-6.266 6.241 6.159 6.159 0 0 0 6.286-6.24zm-10.442 0a4.167 4.167 0 1 1 4.176 4.321 4.125 4.125 0 0 1-4.156-4.32zm14.591 6h2.064v-5.953c0-2.808 1.657-4.129 3.169-4.129a3.017 3.017 0 0 1 1.128.192v-2.136a4.276 4.276 0 0 0-.936-.1 3.572 3.572 0 0 0-3.361 2.448v-2.328h-2.064v12zm13.177 5.017l7.873-17.019h-2.3l-4.1 9.1-4.129-9.1H472.8l5.257 11.378-2.617 5.641h2.305zm12.816-6.625a1.777 1.777 0 1 0-1.777 1.8 1.809 1.809 0 0 0 1.797-1.798zm11.759 1.608h2.232v-17.041h-2.232v17.043zm14.113-.168v-1.848a4.562 4.562 0 0 1-1.464.24c-1.3 0-1.993-.5-1.993-2.041v-6.289h3.457v-1.9h-3.457v-3.337h-2.064v3.337h-2.545v1.9h2.545v6.554a3.378 3.378 0 0 0 3.673 3.672 5.743 5.743 0 0 0 1.868-.286zm13.391-16.515a1.45 1.45 0 0 0-1.441-1.464 1.491 1.491 0 0 0-1.488 1.464 1.475 1.475 0 0 0 1.488 1.464 1.435 1.435 0 0 0 1.461-1.462zm-2.5 16.683h2.065v-12h-2.065v12zm14.954-3.336c0-1.8-1.129-2.953-3.169-3.625l-1.3-.432c-1.417-.456-1.849-.912-1.849-1.681 0-.888.889-1.392 2.017-1.392a3.242 3.242 0 0 1 2.544 1.248l1.345-1.3a4.657 4.657 0 0 0-3.841-1.728c-2.377 0-4.057 1.32-4.057 3.265 0 1.68 1.032 2.856 2.977 3.48l1.176.384c1.56.5 2.136 1.08 2.136 1.921 0 1.032-.936 1.632-2.112 1.632a3.222 3.222 0 0 1-3.073-1.9l-1.68.912a4.767 4.767 0 0 0 4.7 2.784c2.456.01 4.209-1.218 4.209-3.566zm22.1.36l-1.8-1.009a4.067 4.067 0 0 1-3.744 2.3 4.323 4.323 0 0 1 0-8.642 4.067 4.067 0 0 1 3.744 2.305l1.8-1.008a6.215 6.215 0 0 0-5.545-3.217 6.241 6.241 0 1 0 0 12.482 6.216 6.216 0 0 0 5.572-3.209zm3.861 2.976h2.065v-5.953c0-2.808 1.656-4.129 3.168-4.129a3.022 3.022 0 0 1 1.129.192v-2.136a4.285 4.285 0 0 0-.937-.1 3.57 3.57 0 0 0-3.36 2.448v-2.328h-2.065v12zm8.64-6a6.006 6.006 0 0 0 5.881 6.241 5.263 5.263 0 0 0 4.225-2.088v1.848h2.065v-12h-2.065v1.848a5.263 5.263 0 0 0-4.225-2.088 6.006 6.006 0 0 0-5.854 6.24zm10.274 0a4.1 4.1 0 1 1-4.081-4.345 4.1 4.1 0 0 1 4.108 4.346zm7.99 6h2.065v-10.104h3.168v-1.9h-3.168v-2.208c0-1.513.672-2.041 1.992-2.041a4.833 4.833 0 0 1 1.488.24v-1.824a5.454 5.454 0 0 0-1.872-.312 3.379 3.379 0 0 0-3.673 3.672v2.473h-2.544v1.9h2.544v10.106zm14.379-.168v-1.848a4.715 4.715 0 0 1-1.488.24c-1.3 0-1.992-.5-1.992-2.041v-6.289h3.48v-1.9h-3.48v-3.337h-2.065v3.337H601.7v1.9h2.256v6.554a3.4 3.4 0 0 0 3.7 3.672 5.974 5.974 0 0 0 1.872-.286zm2.733-5.833a6.328 6.328 0 0 0 11.618 3.385l-1.632-1.129a4.25 4.25 0 0 1-7.9-1.848h9.842a5.856 5.856 0 0 0 .024-.624c-.024-3.841-2.568-6.025-5.713-6.025a6.081 6.081 0 0 0-6.212 6.243zm6.169-4.417a3.591 3.591 0 0 1 3.673 3.145h-7.61a3.924 3.924 0 0 1 3.964-3.143zm8.975 4.417a6.005 6.005 0 0 0 5.881 6.241 5.264 5.264 0 0 0 4.225-2.088v1.848h2.064v-18h-2.064v7.849a5.264 5.264 0 0 0-4.225-2.088 6.005 6.005 0 0 0-5.854 6.24zm10.274 0a4.1 4.1 0 1 1-4.081-4.345 4.1 4.1 0 0 1 4.108 4.347zm-595.723 34.8h2.064v-10.1H47.5v-1.9h-3.479v-2.208c0-1.513.672-2.041 1.992-2.041a4.835 4.835 0 0 1 1.488.24v-1.824a5.456 5.456 0 0 0-1.872-.312 3.428 3.428 0 0 0-3.673 3.721v2.424h-2.544v1.9h2.544v10.1zm9 0h2.091v-5.953c0-2.808 1.656-4.128 3.169-4.128a3.018 3.018 0 0 1 1.128.192v-2.137a4.278 4.278 0 0 0-.936-.1 3.57 3.57 0 0 0-3.361 2.449v-2.329h-2.064v12zm21.147-6a6.277 6.277 0 1 0-6.265 6.241 6.16 6.16 0 0 0 6.289-6.24zm-10.442 0a4.168 4.168 0 1 1 4.177 4.321 4.125 4.125 0 0 1-4.151-4.32zm14.591 6h2.064v-5.953c0-2.712 1.368-4.392 3.313-4.392 1.56 0 2.352 1.344 2.352 3.288v7.057h2.064v-5.953c0-2.712 1.344-4.392 3.289-4.392 1.56 0 2.377 1.344 2.377 3.288v7.057h2.064v-7.369c0-2.928-1.584-4.873-4.2-4.873a4.153 4.153 0 0 0-3.937 2.569 3.773 3.773 0 0 0-3.7-2.569 4.033 4.033 0 0 0-3.625 2.089v-1.849h-2.034v12zm29.5 0h2.065v-5.953c0-2.712 1.368-4.392 3.313-4.392 1.56 0 2.352 1.344 2.352 3.288v7.057h2.065v-5.953c0-2.712 1.344-4.392 3.288-4.392 1.561 0 2.377 1.344 2.377 3.288v7.057h2.064v-7.369c0-2.928-1.584-4.873-4.2-4.873a4.155 4.155 0 0 0-3.937 2.569 3.772 3.772 0 0 0-3.7-2.569 4.033 4.033 0 0 0-3.625 2.089v-1.849h-2.065v12zm34.035-6a6.278 6.278 0 1 0-6.266 6.241 6.16 6.16 0 0 0 6.288-6.24zm-10.442 0a4.167 4.167 0 1 1 4.176 4.321 4.125 4.125 0 0 1-4.154-4.32zm14.591 6H146v-18h-2.064v18zm6.24-6a6.328 6.328 0 0 0 11.618 3.385l-1.632-1.128a4.25 4.25 0 0 1-7.9-1.849h9.865a5.856 5.856 0 0 0 .024-.624c-.024-3.84-2.568-6.025-5.713-6.025a6.082 6.082 0 0 0-6.24 6.242zm6.169-4.417a3.592 3.592 0 0 1 3.673 3.145H152.4a3.925 3.925 0 0 1 3.94-3.144zm17.688 7.082c0-1.8-1.128-2.953-3.168-3.625l-1.3-.432c-1.416-.456-1.848-.912-1.848-1.68 0-.888.888-1.393 2.016-1.393a3.243 3.243 0 0 1 2.545 1.249l1.344-1.3a4.654 4.654 0 0 0-3.841-1.728c-2.376 0-4.056 1.32-4.056 3.265 0 1.68 1.032 2.856 2.976 3.48l1.176.384c1.561.5 2.137 1.081 2.137 1.921 0 1.032-.936 1.632-2.113 1.632a3.221 3.221 0 0 1-3.072-1.9l-1.681.912a4.769 4.769 0 0 0 4.705 2.784c2.45.008 4.202-1.219 4.202-3.568zm4.15 3.336h2.065v-6l6.5 6h2.785l-7.226-6.7 5.906-5.305h-2.737l-5.233 4.681v-10.678h-2.065v18zm16.655-16.686a1.45 1.45 0 0 0-1.441-1.464 1.465 1.465 0 1 0 0 2.929 1.436 1.436 0 0 0 1.441-1.465zm-2.5 16.683h2.065v-12h-2.065v12zm7.176 0h2.064v-5.953c0-2.808 1.537-4.392 3.481-4.392 1.68 0 2.833 1.248 2.833 3.264v7.081h2.04v-7.393c0-2.976-1.848-4.849-4.537-4.849a4.245 4.245 0 0 0-3.817 2.089v-1.849h-2.061v12zm17.9-.528a2.052 2.052 0 0 0 .336-1.08 1.776 1.776 0 1 0-3.552 0 1.786 1.786 0 0 0 .984 1.608l-1.609 3.433h1.369zm10.895-5.473a6.006 6.006 0 0 0 5.881 6.241 5.263 5.263 0 0 0 4.225-2.088v1.848h2.065v-12H238.4v1.849a5.261 5.261 0 0 0-4.225-2.089 6.006 6.006 0 0 0-5.886 6.243zm10.274 0a4.1 4.1 0 1 1-4.081-4.344 4.1 4.1 0 0 1 4.088 4.348zm21.815 2.665c0-1.8-1.128-2.953-3.168-3.625l-1.3-.432c-1.416-.456-1.848-.912-1.848-1.68 0-.888.888-1.393 2.017-1.393a3.243 3.243 0 0 1 2.544 1.249l1.344-1.3a4.654 4.654 0 0 0-3.84-1.728c-2.377 0-4.057 1.32-4.057 3.265 0 1.68 1.032 2.856 2.976 3.48l1.177.384c1.56.5 2.136 1.081 2.136 1.921 0 1.032-.936 1.632-2.112 1.632a3.221 3.221 0 0 1-3.073-1.9l-1.68.912a4.767 4.767 0 0 0 4.7 2.784c2.439.011 4.191-1.216 4.191-3.565zm4.151 3.336h2.064v-5.953c0-2.712 1.368-4.392 3.313-4.392 1.56 0 2.352 1.344 2.352 3.288v7.057h2.065v-5.953c0-2.712 1.344-4.392 3.288-4.392 1.561 0 2.377 1.344 2.377 3.288v7.057h2.064v-7.369c0-2.928-1.584-4.873-4.2-4.873a4.152 4.152 0 0 0-3.936 2.569 3.774 3.774 0 0 0-3.7-2.569 4.033 4.033 0 0 0-3.625 2.089v-1.849h-2.064v12zm34.034-6a6.278 6.278 0 1 0-6.265 6.241 6.16 6.16 0 0 0 6.272-6.238zm-10.442 0a4.167 4.167 0 1 1 4.177 4.321 4.125 4.125 0 0 1-4.17-4.318zm26.186 0a6.278 6.278 0 1 0-6.266 6.241 6.16 6.16 0 0 0 6.273-6.238zm-10.443 0a4.168 4.168 0 1 1 4.177 4.321 4.125 4.125 0 0 1-4.17-4.318zm20.882 5.833v-1.848a4.573 4.573 0 0 1-1.465.24c-1.3 0-1.992-.5-1.992-2.04v-6.289h3.457v-1.9h-3.457v-3.336h-2.065v3.336h-2.537v1.9h2.544v6.553a3.379 3.379 0 0 0 3.673 3.672 5.754 5.754 0 0 0 1.849-.285zm3.838.168h2.065v-5.953c0-2.808 1.536-4.392 3.48-4.392 1.681 0 2.833 1.248 2.833 3.264v7.081H339v-7.393c0-2.976-1.848-4.849-4.537-4.849a4.242 4.242 0 0 0-3.816 2.089v-7.85h-2.065v18zm33.29-2.976l-1.8-1.008a4.068 4.068 0 0 1-3.744 2.3 4.322 4.322 0 0 1 0-8.641 4.068 4.068 0 0 1 3.744 2.3l1.8-1.008a6.215 6.215 0 0 0-5.545-3.217 6.241 6.241 0 1 0 0 12.482 6.216 6.216 0 0 0 5.552-3.205zm15.456-3.025a6.278 6.278 0 1 0-6.266 6.241 6.16 6.16 0 0 0 6.273-6.238zm-10.443 0a4.168 4.168 0 1 1 4.177 4.321 4.125 4.125 0 0 1-4.17-4.318zm29.283 5.833v-1.848a4.562 4.562 0 0 1-1.464.24c-1.3 0-1.992-.5-1.992-2.04v-6.289h3.456v-1.9h-3.456v-3.336h-2.065v3.336h-2.064v1.9h2.064v6.553a3.379 3.379 0 0 0 3.673 3.672 5.743 5.743 0 0 0 1.855-.285zm-8.4 0v-1.848a4.568 4.568 0 0 1-1.465.24c-1.3 0-1.992-.5-1.992-2.04v-6.289h2.928v-1.9h-2.928v-3.336h-2.065v3.336H379.7v1.9h2.544v6.553a3.379 3.379 0 0 0 3.673 3.672 5.754 5.754 0 0 0 1.852-.285zm23.665-5.833a6.278 6.278 0 1 0-6.266 6.241 6.16 6.16 0 0 0 6.272-6.238zm-10.443 0a4.168 4.168 0 1 1 4.177 4.321 4.125 4.125 0 0 1-4.171-4.318zm14.592 6h2.064v-5.953c0-2.808 1.537-4.392 3.481-4.392 1.68 0 2.833 1.248 2.833 3.264v7.081H426v-7.393c0-2.976-1.848-4.849-4.537-4.849a4.245 4.245 0 0 0-3.817 2.089v-1.849h-2.064v12zm23.088 0h2.064v-10.1h3.481v-1.9h-3.481v-2.208c0-1.513.673-2.041 1.993-2.041a4.833 4.833 0 0 1 1.488.24v-1.824a5.454 5.454 0 0 0-1.872-.312 3.428 3.428 0 0 0-3.673 3.721v2.424h-2.545v1.9h2.545v10.1zm7.752-6a6.005 6.005 0 0 0 5.881 6.241 5.264 5.264 0 0 0 4.225-2.088v1.848h2.064v-12h-2.064v1.849a5.262 5.262 0 0 0-4.225-2.089 6.006 6.006 0 0 0-5.875 6.242zm10.274 0a4.1 4.1 0 1 1-4.081-4.344 4.1 4.1 0 0 1 4.09 4.347zm9.046 4.153a5.264 5.264 0 0 0 4.225 2.088 6.252 6.252 0 0 0 0-12.482 5.262 5.262 0 0 0-4.225 2.089v-7.85h-2.064v18h2.064v-1.848zm7.994-4.153a4.089 4.089 0 1 1-4.081-4.344 4.1 4.1 0 0 1 4.087 4.347zm6.261 6h2.065v-5.953c0-2.808 1.656-4.128 3.168-4.128a3.019 3.019 0 0 1 1.129.192v-2.137a4.279 4.279 0 0 0-.937-.1 3.57 3.57 0 0 0-3.36 2.449v-2.329H480v12zm12.487-16.683a1.45 1.45 0 0 0-1.441-1.464 1.465 1.465 0 1 0 0 2.929 1.436 1.436 0 0 0 1.441-1.465zm-2.5 16.683h2.065v-12h-2.065v12zm18.074-2.976l-1.8-1.008a4.068 4.068 0 0 1-3.745 2.3 4.322 4.322 0 0 1 0-8.641 4.068 4.068 0 0 1 3.745 2.3l1.8-1.008a6.214 6.214 0 0 0-5.545-3.217 6.241 6.241 0 1 0 0 12.482 6.215 6.215 0 0 0 5.548-3.204zm21.816 0l-1.8-1.008a4.068 4.068 0 0 1-3.744 2.3 4.322 4.322 0 0 1 0-8.641 4.068 4.068 0 0 1 3.744 2.3l1.8-1.008a6.215 6.215 0 0 0-5.545-3.217 6.241 6.241 0 1 0 0 12.482 6.216 6.216 0 0 0 5.548-3.204zm15.456-3.025a6.278 6.278 0 1 0-6.266 6.241 6.16 6.16 0 0 0 6.269-6.237zm-10.443 0a4.168 4.168 0 1 1 4.177 4.321 4.125 4.125 0 0 1-4.174-4.317zm14.592 6h2.064v-5.953c0-2.712 1.369-4.392 3.313-4.392 1.56 0 2.352 1.344 2.352 3.288v7.057h2.065v-5.953c0-2.712 1.344-4.392 3.289-4.392 1.56 0 2.376 1.344 2.376 3.288v7.057H567v-7.369c0-2.928-1.585-4.873-4.2-4.873a4.153 4.153 0 0 0-3.937 2.569 3.773 3.773 0 0 0-3.7-2.569 4.034 4.034 0 0 0-3.625 2.089v-1.849h-2.064v12zm22.44 0h2.064v-5.953c0-2.712 1.368-4.392 3.313-4.392 1.56 0 2.352 1.344 2.352 3.288v7.057h2.065v-5.953c0-2.712 1.344-4.392 3.289-4.392 1.56 0 2.376 1.344 2.376 3.288v7.057h2.064v-7.369c0-2.928-1.584-4.873-4.2-4.873a4.153 4.153 0 0 0-3.937 2.569 3.773 3.773 0 0 0-3.7-2.569 4.034 4.034 0 0 0-3.625 2.089v-1.849h-2.064v12zm34.034-6a6.278 6.278 0 1 0-6.265 6.241 6.159 6.159 0 0 0 6.268-6.237zm-10.442 0a4.168 4.168 0 1 1 4.177 4.321 4.125 4.125 0 0 1-4.174-4.317zm14.591 6h2.065v-5.953c0-2.808 1.536-4.392 3.48-4.392 1.681 0 2.833 1.248 2.833 3.264v7.081h2.041v-7.393c0-2.976-1.849-4.849-4.537-4.849a4.243 4.243 0 0 0-3.817 2.089v-1.849H610.1v12zm15.336 0h2.067v-18h-2.064v18zM635.8 257.9l7.873-17.019h-2.3l-4.105 9.1-4.129-9.1h-2.281l5.258 11.378-2.616 5.641h2.3zM40.78 277.054c0 2.976 1.776 4.873 4.417 4.873a4.129 4.129 0 0 0 3.7-2.089v1.849h2.064v-12h-2.067v5.954c0 2.76-1.464 4.392-3.337 4.392-1.656 0-2.713-1.272-2.713-3.288v-7.058H40.78v7.37zm23.042 1.3c0-1.8-1.128-2.952-3.169-3.625l-1.3-.432c-1.416-.456-1.848-.912-1.848-1.68 0-.888.888-1.392 2.016-1.392a3.243 3.243 0 0 1 2.545 1.248l1.344-1.3a4.653 4.653 0 0 0-3.841-1.729c-2.377 0-4.057 1.321-4.057 3.265 0 1.68 1.032 2.857 2.977 3.481l1.176.384c1.56.5 2.136 1.08 2.136 1.92 0 1.032-.936 1.632-2.112 1.632a3.221 3.221 0 0 1-3.073-1.9l-1.68.912a4.767 4.767 0 0 0 4.7 2.785c2.433.004 4.186-1.223 4.186-3.573zm3.214-2.664a6.328 6.328 0 0 0 11.618 3.384l-1.632-1.128a4.25 4.25 0 0 1-7.9-1.848h9.842a5.856 5.856 0 0 0 .024-.624c-.024-3.841-2.568-6.026-5.713-6.026a6.083 6.083 0 0 0-6.239 6.238zm6.169-4.417a3.591 3.591 0 0 1 3.673 3.144h-7.61a3.924 3.924 0 0 1 3.937-3.148zm8.975 4.417a6.006 6.006 0 0 0 5.881 6.241 5.262 5.262 0 0 0 4.225-2.089v1.849h2.064v-18h-2.064v7.85a5.265 5.265 0 0 0-4.225-2.089 6.007 6.007 0 0 0-5.881 6.234zm10.274 0a4.1 4.1 0 1 1-4.081-4.345 4.1 4.1 0 0 1 4.081 4.341zM108.988 265a1.45 1.45 0 0 0-1.441-1.465 1.491 1.491 0 0 0-1.488 1.465 1.475 1.475 0 0 0 1.488 1.464 1.435 1.435 0 0 0 1.441-1.464zm-2.5 16.683h2.065v-12h-2.065v12zm7.176 0h2.064v-5.953c0-2.809 1.537-4.393 3.481-4.393 1.681 0 2.833 1.248 2.833 3.264v7.082h2.04v-7.394c0-2.976-1.848-4.849-4.537-4.849a4.247 4.247 0 0 0-3.817 2.089v-1.849h-2.064v12zm23.88 0h2.064v-17.039h-3.673l-1.68 2.04h3.289v15zm7.3 0h2.641l6.241-7.37a6.542 6.542 0 0 0 1.921-4.344 5.775 5.775 0 0 0-11.547.072 5.507 5.507 0 0 0 5.329 5.473 3.072 3.072 0 0 0 .673-.048zm1.369-11.666a3.661 3.661 0 1 1 3.648 3.672 3.622 3.622 0 0 1-3.65-3.668zm23.378 6.241a5.511 5.511 0 0 0-5.329-5.5c-.216 0-.432.024-.672.048l5.209-6.169h-2.619l-6.217 7.321a6.547 6.547 0 0 0-1.921 4.345 5.775 5.775 0 0 0 11.547-.041zm-9.434 0a3.661 3.661 0 1 1 3.673 3.672 3.642 3.642 0 0 1-3.675-3.668zm25.154-.744v-4.753c0-3.769-2.545-6.41-6.049-6.41s-6.026 2.641-6.026 6.41v4.753c0 3.792 2.521 6.409 6.026 6.409s6.047-2.613 6.047-6.405zm-10.01 0v-4.753c0-2.761 1.656-4.393 3.961-4.393 2.328 0 3.984 1.632 3.984 4.393v4.753c0 2.76-1.656 4.392-3.984 4.392-2.307.004-3.962-1.628-3.962-4.388zm22.369 2.832c0-1.8-1.128-2.952-3.169-3.625l-1.3-.432c-1.416-.456-1.849-.912-1.849-1.68 0-.888.889-1.392 2.017-1.392a3.242 3.242 0 0 1 2.544 1.248l1.345-1.3a4.655 4.655 0 0 0-3.841-1.729c-2.377 0-4.057 1.321-4.057 3.265 0 1.68 1.032 2.857 2.977 3.481l1.176.384c1.56.5 2.136 1.08 2.136 1.92 0 1.032-.936 1.632-2.112 1.632a3.222 3.222 0 0 1-3.073-1.9l-1.68.912a4.766 4.766 0 0 0 4.705 2.785c2.426.012 4.179-1.215 4.179-3.565zm10.269-2.664a6.007 6.007 0 0 0 5.882 6.241 5.264 5.264 0 0 0 4.225-2.089v1.849h2.064v-12h-2.064v1.849a5.267 5.267 0 0 0-4.225-2.089 6.007 6.007 0 0 0-5.884 6.243zm10.275 0a4.1 4.1 0 1 1-4.081-4.345 4.1 4.1 0 0 1 4.079 4.349zm6.981 6h2.065v-5.953c0-2.809 1.656-4.129 3.168-4.129a3.019 3.019 0 0 1 1.129.192v-2.132a4.276 4.276 0 0 0-.936-.1 3.571 3.571 0 0 0-3.361 2.449v-2.329h-2.065v12zm9.984 0h2.065v-5.953c0-2.713 1.368-4.393 3.312-4.393 1.561 0 2.353 1.344 2.353 3.288v7.058h2.064v-5.953c0-2.713 1.345-4.393 3.289-4.393 1.56 0 2.377 1.344 2.377 3.288v7.058h2.061v-7.37c0-2.928-1.584-4.873-4.2-4.873a4.155 4.155 0 0 0-3.937 2.569 3.773 3.773 0 0 0-3.7-2.569 4.034 4.034 0 0 0-3.624 2.089v-1.849h-2.065v12zm25.391 5.018l7.874-17.02h-2.305l-4.105 9.1-4.129-9.1h-2.28l5.257 11.379-2.617 5.641h2.305zm17.5-9.65c0 2.976 1.777 4.873 4.417 4.873a4.129 4.129 0 0 0 3.7-2.089v1.849h2.064v-12h-2.064v5.954c0 2.76-1.464 4.392-3.337 4.392-1.656 0-2.712-1.272-2.712-3.288v-7.058h-2.065v7.37zm15.264 4.633h2.065v-5.953c0-2.809 1.536-4.393 3.48-4.393 1.681 0 2.833 1.248 2.833 3.264v7.082h2.04v-7.394c0-2.976-1.848-4.849-4.537-4.849a4.244 4.244 0 0 0-3.816 2.089v-1.849h-2.065v12zM311.161 265a1.45 1.45 0 0 0-1.44-1.465 1.491 1.491 0 0 0-1.488 1.465 1.475 1.475 0 0 0 1.488 1.464 1.434 1.434 0 0 0 1.44-1.464zm-2.5 16.683h2.064v-12h-2.064v12zm8.184 0h2.064v-10.102h3.481v-1.9h-3.481v-2.208c0-1.512.672-2.04 1.993-2.04a4.833 4.833 0 0 1 1.488.24v-1.825a5.454 5.454 0 0 0-1.872-.312 3.428 3.428 0 0 0-3.673 3.721v2.424H314.3v1.9h2.545v10.106zm20.282-6a6.277 6.277 0 1 0-6.265 6.241 6.159 6.159 0 0 0 6.269-6.238zm-10.442 0a4.168 4.168 0 1 1 4.177 4.32 4.125 4.125 0 0 1-4.173-4.317zm14.591 6h2.065v-5.953c0-2.809 1.656-4.129 3.169-4.129a3.017 3.017 0 0 1 1.128.192v-2.133a4.276 4.276 0 0 0-.936-.1 3.571 3.571 0 0 0-3.361 2.449v-2.329h-2.061v12zm9.984 0h2.065v-5.953c0-2.713 1.368-4.393 3.313-4.393 1.56 0 2.352 1.344 2.352 3.288v7.058h2.064v-5.953c0-2.713 1.345-4.393 3.289-4.393 1.56 0 2.377 1.344 2.377 3.288v7.058h2.064v-7.37c0-2.928-1.584-4.873-4.2-4.873a4.156 4.156 0 0 0-3.937 2.569 3.773 3.773 0 0 0-3.7-2.569 4.035 4.035 0 0 0-3.625 2.089v-1.849h-2.065v12zm30.218-3.337c0-1.8-1.128-2.952-3.169-3.625l-1.3-.432c-1.416-.456-1.848-.912-1.848-1.68 0-.888.888-1.392 2.016-1.392a3.246 3.246 0 0 1 2.545 1.248l1.344-1.3a4.654 4.654 0 0 0-3.841-1.729c-2.376 0-4.057 1.321-4.057 3.265 0 1.68 1.032 2.857 2.977 3.481l1.176.384c1.56.5 2.137 1.08 2.137 1.92 0 1.032-.937 1.632-2.113 1.632a3.222 3.222 0 0 1-3.073-1.9l-1.68.912a4.767 4.767 0 0 0 4.7 2.785c2.438.012 4.19-1.215 4.19-3.565zm10.27-2.664a6.006 6.006 0 0 0 5.881 6.241 5.262 5.262 0 0 0 4.225-2.089v1.849h2.064v-18h-2.064v7.85a5.265 5.265 0 0 0-4.225-2.089 6.006 6.006 0 0 0-5.877 6.242zm10.274 0a4.1 4.1 0 1 1-4.081-4.345 4.1 4.1 0 0 1 4.085 4.349zm6.813 1.368c0 2.976 1.777 4.873 4.417 4.873a4.128 4.128 0 0 0 3.7-2.089v1.849h2.065v-12h-2.065v5.954c0 2.76-1.464 4.392-3.336 4.392-1.657 0-2.713-1.272-2.713-3.288v-7.058h-2.065v7.37zm14.328-1.368a6.328 6.328 0 0 0 11.619 3.384l-1.633-1.128a4.249 4.249 0 0 1-7.9-1.848h9.851a5.856 5.856 0 0 0 .024-.624c-.024-3.841-2.569-6.026-5.713-6.026a6.083 6.083 0 0 0-6.244 6.246zm6.169-4.417a3.591 3.591 0 0 1 3.673 3.144H425.4a3.923 3.923 0 0 1 3.936-3.14zm23.064 10.25v-1.845a4.562 4.562 0 0 1-1.464.24c-1.3 0-1.992-.5-1.992-2.04v-6.289h3.46v-1.9h-3.456v-3.336h-2.065v3.336h-2.544v1.9h2.544v6.553a3.379 3.379 0 0 0 3.673 3.673 5.743 5.743 0 0 0 1.848-.288zm15.266-5.833a6.278 6.278 0 1 0-6.266 6.241 6.16 6.16 0 0 0 6.27-6.237zm-10.443 0a4.168 4.168 0 1 1 4.177 4.32 4.126 4.126 0 0 1-4.173-4.316zM481.367 265a1.45 1.45 0 0 0-1.44-1.465 1.492 1.492 0 0 0-1.489 1.465 1.476 1.476 0 0 0 1.489 1.464 1.434 1.434 0 0 0 1.44-1.464zm-2.5 16.683h2.064v-12h-2.064v12zm13.681-.168v-1.845a4.564 4.564 0 0 1-1.465.24c-1.3 0-1.992-.5-1.992-2.04v-6.289h3.457v-1.9H489.1v-3.336h-2.064v3.336h-2.545v1.9h2.545v6.553a3.378 3.378 0 0 0 3.672 3.673 5.744 5.744 0 0 0 1.844-.288zm11.616-3.169c0-1.8-1.128-2.952-3.169-3.625l-1.3-.432c-1.416-.456-1.848-.912-1.848-1.68 0-.888.888-1.392 2.016-1.392a3.246 3.246 0 0 1 2.545 1.248l1.344-1.3a4.654 4.654 0 0 0-3.841-1.729c-2.376 0-4.057 1.321-4.057 3.265 0 1.68 1.032 2.857 2.977 3.481l1.176.384c1.56.5 2.137 1.08 2.137 1.92 0 1.032-.937 1.632-2.113 1.632a3.223 3.223 0 0 1-3.073-1.9l-1.68.912a4.767 4.767 0 0 0 4.7 2.785c2.438.012 4.19-1.215 4.19-3.565zm10.27-2.664a6.006 6.006 0 0 0 5.881 6.241 5.262 5.262 0 0 0 4.225-2.089v1.849h2.064v-18h-2.064v7.85a5.265 5.265 0 0 0-4.225-2.089 6.006 6.006 0 0 0-5.877 6.242zm10.274 0a4.1 4.1 0 1 1-4.081-4.345 4.1 4.1 0 0 1 4.085 4.349zm6.814 1.368c0 2.976 1.776 4.873 4.416 4.873a4.128 4.128 0 0 0 3.7-2.089v1.849h2.062v-12h-2.065v5.954c0 2.76-1.464 4.392-3.336 4.392-1.657 0-2.713-1.272-2.713-3.288v-7.058h-2.064v7.37zm15.263 4.633h2.065v-5.953c0-2.809 1.656-4.129 3.169-4.129a3.017 3.017 0 0 1 1.128.192v-2.133a4.276 4.276 0 0 0-.936-.1 3.571 3.571 0 0 0-3.361 2.449v-2.329h-2.065v12zm8.64-6a6.006 6.006 0 0 0 5.881 6.241 5.261 5.261 0 0 0 4.225-2.089v1.849h2.069v-12h-2.065v1.849a5.264 5.264 0 0 0-4.225-2.089 6.007 6.007 0 0 0-5.881 6.242zm10.274 0a4.1 4.1 0 1 1-4.08-4.345 4.1 4.1 0 0 1 4.081 4.348zm9.047 4.152a5.261 5.261 0 0 0 4.225 2.089 6.253 6.253 0 0 0 0-12.483 5.264 5.264 0 0 0-4.225 2.089v-7.85h-2.065v18h2.065v-1.849zm7.993-4.152a4.089 4.089 0 1 1-4.081-4.345 4.1 4.1 0 0 1 4.085 4.348zm6.262 6h2.064v-18h-2.064v18zm6.24-6a6.327 6.327 0 0 0 11.618 3.384l-1.632-1.128a4.25 4.25 0 0 1-7.9-1.848h9.842a5.856 5.856 0 0 0 .024-.624c-.024-3.841-2.568-6.026-5.713-6.026a6.082 6.082 0 0 0-6.235 6.245zm6.169-4.417a3.591 3.591 0 0 1 3.673 3.144h-7.61a3.924 3.924 0 0 1 3.941-3.141zm19.611 15.434l7.874-17.02h-2.3l-4.105 9.1-4.128-9.1h-2.281l5.257 11.379-2.616 5.641h2.3zm9.936-11.018a6.327 6.327 0 0 0 11.618 3.384l-1.632-1.128a4.25 4.25 0 0 1-7.9-1.848h9.842a5.856 5.856 0 0 0 .024-.624c-.024-3.841-2.568-6.026-5.713-6.026a6.082 6.082 0 0 0-6.239 6.246zm6.169-4.417a3.591 3.591 0 0 1 3.673 3.144h-7.61a3.923 3.923 0 0 1 3.937-3.14zm16.248 10.25v-1.845a4.562 4.562 0 0 1-1.464.24c-1.3 0-1.993-.5-1.993-2.04v-6.289h3.457v-1.9h-3.457v-3.336h-2.064v3.336h-2.545v1.9h2.545v6.553a3.378 3.378 0 0 0 3.673 3.673 5.743 5.743 0 0 0 1.848-.288zM48.726 307.149c0-1.8-1.128-2.952-3.169-3.624l-1.3-.432c-1.416-.457-1.848-.913-1.848-1.681 0-.888.888-1.392 2.017-1.392a3.243 3.243 0 0 1 2.544 1.248l1.344-1.3a4.655 4.655 0 0 0-3.841-1.728c-2.376 0-4.057 1.32-4.057 3.264 0 1.681 1.032 2.857 2.977 3.481l1.176.384c1.56.5 2.136 1.08 2.136 1.92 0 1.033-.936 1.633-2.112 1.633a3.221 3.221 0 0 1-3.073-1.9l-1.68.912a4.767 4.767 0 0 0 4.7 2.785c2.434.007 4.186-1.219 4.186-3.57zm15.745-2.664a6.277 6.277 0 1 0-6.265 6.241 6.159 6.159 0 0 0 6.265-6.241zm-10.442 0a4.168 4.168 0 1 1 4.177 4.321 4.125 4.125 0 0 1-4.178-4.321zm15.408 6H71.5V300.38h3.169v-1.9H71.5v-2.209c0-1.512.672-2.04 1.992-2.04a4.835 4.835 0 0 1 1.488.24v-1.824a5.456 5.456 0 0 0-1.872-.312 3.378 3.378 0 0 0-3.673 3.672v2.473h-2.543v1.9h2.545v10.106zm14.379-.168v-1.847a4.717 4.717 0 0 1-1.488.24c-1.3 0-1.992-.5-1.992-2.041v-6.289h3.481v-1.9h-3.483v-3.337H78.27v3.337h-2.257v1.9h2.257v6.553a3.4 3.4 0 0 0 3.7 3.673 5.976 5.976 0 0 0 1.845-.288zm16.99 0v-1.847a4.565 4.565 0 0 1-1.465.24c-1.3 0-1.993-.5-1.993-2.041v-6.289h3.457v-1.9h-3.457v-3.337h-2.064v3.337h-2.545v1.9h2.545v6.553a3.379 3.379 0 0 0 3.673 3.673 5.746 5.746 0 0 0 1.848-.288zm2.734-5.833a6.328 6.328 0 0 0 11.619 3.384l-1.632-1.128a4.25 4.25 0 0 1-7.9-1.848h9.842a5.856 5.856 0 0 0 .024-.624c-.024-3.841-2.569-6.025-5.713-6.025a6.082 6.082 0 0 0-6.241 6.242zm6.17-4.417a3.59 3.59 0 0 1 3.672 3.145h-7.609a3.923 3.923 0 0 1 3.936-3.144zm7.678 10.418h2.569l3.649-4.537 3.648 4.537h2.546l-4.9-6.073 4.513-5.929h-2.521l-3.288 4.321-3.313-4.321h-2.5l4.513 5.929zm22.226-.168v-1.847a4.562 4.562 0 0 1-1.464.24c-1.3 0-1.993-.5-1.993-2.041v-6.289h3.457v-1.9h-3.457v-3.337h-2.064v3.337h-2.545v1.9h2.545v6.553a3.378 3.378 0 0 0 3.673 3.673 5.743 5.743 0 0 0 1.847-.288zm3.671-4.465c0 2.977 1.776 4.873 4.416 4.873a4.129 4.129 0 0 0 3.7-2.088v1.848h2.065v-12H151.4v5.953c0 2.76-1.464 4.393-3.336 4.393-1.657 0-2.713-1.273-2.713-3.289v-7.057h-2.064v7.369zm15.263 4.633h2.065v-5.953c0-2.809 1.656-4.129 3.169-4.129a3.017 3.017 0 0 1 1.128.192v-2.135a4.276 4.276 0 0 0-.936-.1 3.57 3.57 0 0 0-3.361 2.448v-2.328h-2.065v12zm8.616-6a6.328 6.328 0 0 0 11.619 3.384l-1.632-1.128a4.25 4.25 0 0 1-7.9-1.848h9.842a5.856 5.856 0 0 0 .024-.624c-.024-3.841-2.569-6.025-5.713-6.025a6.082 6.082 0 0 0-6.241 6.241zm6.17-4.417a3.59 3.59 0 0 1 3.672 3.145H169.4a3.923 3.923 0 0 1 3.933-3.145zm12.767 8.81a1.777 1.777 0 1 0-1.776 1.8 1.808 1.808 0 0 0 1.775-1.8z"/></svg>