<svg id="copy_copy_3" data-name="copy copy 3" xmlns="http://www.w3.org/2000/svg" width="768" height="462"><defs><style>.cls-2{fill-rule:evenodd}</style></defs><path id="Rectangle_106_copy_12" data-name="Rectangle 106 copy 12" fill="#fff" d="M0 0h768v462H0z"/><g id="CTA_underline_copy_4" data-name="CTA_underline copy 4"><path id="Rectangle_4_copy_4" data-name="Rectangle 4 copy 4" d="M39 368h122v4H39z"/><path id="Shop_now" data-name="Shop now" class="cls-2" d="M43.817 360.853c2.706 0 4.564-1.653 4.582-4.023.018-1.965-1.19-3.214-3.048-3.894l-.9-.33c-1.353-.5-1.984-.808-1.984-1.506 0-.68.776-.992 1.551-.992a2.831 2.831 0 0 1 2.219 1.083l1.876-2.02a5.3 5.3 0 0 0-4.131-1.8c-2.561 0-4.419 1.488-4.419 4.022 0 1.782 1.154 3.049 3.229 3.766l.9.312c1.281.441 1.786.9 1.786 1.561 0 .625-.6 1.084-1.551 1.084a3.335 3.335 0 0 1-2.652-1.488l-2.2 1.892a5.583 5.583 0 0 0 4.742 2.333zm9.726-.221h2.867v-5.161h5.159v5.161h2.868v-13.041h-2.868v5.109H56.41v-5.107h-2.868v13.041zm22.66.221a6.742 6.742 0 1 0-6.62-6.741 6.7 6.7 0 0 0 6.617 6.741zm0-2.829a3.917 3.917 0 1 1 3.716-3.912 3.837 3.837 0 0 1-3.719 3.912zm20.622-5.969a4.4 4.4 0 0 0-4.51-4.464h-4.348v13.041h2.868V356.5h1.479a4.385 4.385 0 0 0 4.51-4.445zm-2.778 0a1.7 1.7 0 0 1-1.768 1.708h-1.444v-3.416h1.443a1.688 1.688 0 0 1 1.768 1.708zm25.979 8.577v-13.041h-2.886v8.045l-6.223-8.045h-2.472v13.041h2.869v-8.063l6.241 8.063h2.471zm11.765.221a6.742 6.742 0 1 0-6.62-6.741 6.7 6.7 0 0 0 6.619 6.741zm0-2.829a3.917 3.917 0 1 1 3.716-3.912 3.837 3.837 0 0 1-3.717 3.912zm21.686 2.608h2.723l2.976-13.041h-3.067l-1.749 8.266-3.608-8.486-3.589 8.486-1.75-8.266h-3.067l2.959 13.041h2.723l2.724-6.392z"/></g><path id="Chukka_Boot_Suede_b._1981_Available_in_leather_and_suede._" data-name="Chukka Boot Suede, b. 1981 | Available in leather and suede." class="cls-2" d="M54.44 68.553A14.092 14.092 0 0 0 67.187 61.1l-5.376-2.918a8.179 8.179 0 1 1 0-7.449l5.376-2.918A14.212 14.212 0 1 0 54.44 68.553zm18.241-.461h6.105V57.3h10.981v10.792h6.105V40.831h-6.105v10.674H78.786V40.831H72.68v27.261zm41.779.461c6.527 0 11.212-4.454 11.212-11.25V40.831h-6.105V57.38c0 3.264-2.074 5.26-5.107 5.26s-5.107-2-5.107-5.26V40.831h-6.105V57.3c-.001 6.8 4.645 11.253 11.211 11.253zm18.586-.461h6.066v-12.21l11.1 12.21h7.833L145.1 53.924l10.752-13.093h-7.488l-9.254 11.4v-11.4h-6.066v27.261zm28.8 0h6.067v-12.21l11.1 12.21h7.833L173.9 53.924l10.751-13.093h-7.487l-9.254 11.4v-11.4h-6.067v27.261zm25.882 0h6.372l2.419-5.759h11.289l2.419 5.759h6.373l-11.672-27.261H199.4zm11.02-11.058l3.418-8.217 3.417 8.217h-6.835zm31.832 11.058h11.98a8.06 8.06 0 0 0 8.294-8.025 7.124 7.124 0 0 0-3.879-6.45 6.414 6.414 0 0 0 1.959-4.684 8.1 8.1 0 0 0-8.1-8.1H230.58v27.259zm6.1-16.242V46.4h3.456a2.771 2.771 0 0 1 2.841 2.764 2.732 2.732 0 0 1-2.841 2.688h-3.456zm0 10.636v-5.452h5.337a2.774 2.774 0 0 1 2.88 2.726 2.74 2.74 0 0 1-2.841 2.726h-5.376zm32.755 6.067a14.091 14.091 0 1 0-14.092-14.091 14.125 14.125 0 0 0 14.097 14.091zm0-5.913a8.183 8.183 0 1 1 7.909-8.178 8.089 8.089 0 0 1-7.904 8.178zm32.793 5.913a14.091 14.091 0 1 0-14.092-14.091 14.125 14.125 0 0 0 14.097 14.091zm0-5.913a8.183 8.183 0 1 1 7.909-8.178 8.089 8.089 0 0 1-7.904 8.178zm24.115 5.452h6.144V46.667h7.026v-5.836H319.4v5.836h6.95v21.425zM39.8 99.138a6.035 6.035 0 0 0 5.48 2.817c2.905 0 4.974-1.672 4.974-4.335 0-2.311-1.321-3.632-3.632-4.512l-1.893-.726c-1.585-.594-2.355-1.188-2.355-2.509 0-1.3 1.277-2.157 2.817-2.157a3.867 3.867 0 0 1 3.1 1.541l1.5-1.321a5.7 5.7 0 0 0-4.559-2.136c-2.8 0-4.886 1.607-4.886 4.16 0 2.135 1.1 3.411 3.543 4.314l2.069.792c1.453.55 2.245 1.386 2.245 2.641 0 1.453-1.276 2.333-2.883 2.333a4.367 4.367 0 0 1-3.874-2.135zm14.081-1.695c0 2.729 1.629 4.467 4.05 4.467a3.786 3.786 0 0 0 3.385-1.91v1.694h1.893v-11h-1.893v5.458c0 2.531-1.343 4.028-3.059 4.028-1.519 0-2.487-1.167-2.487-3.015v-6.478h-1.893v6.757zm13.134-1.255a5.8 5.8 0 0 0 10.653 3.1l-1.5-1.034a3.9 3.9 0 0 1-7.241-1.695h9.024a5.373 5.373 0 0 0 .022-.572c-.022-3.521-2.355-5.524-5.238-5.524a5.576 5.576 0 0 0-5.724 5.726zm5.656-4.05a3.292 3.292 0 0 1 3.367 2.883h-6.981a3.6 3.6 0 0 1 3.61-2.881zm8.226 4.05a5.506 5.506 0 0 0 5.392 5.722 4.826 4.826 0 0 0 3.87-1.91v1.694h1.893V85.185h-1.893v7.2a4.826 4.826 0 0 0-3.874-1.915 5.507 5.507 0 0 0-5.392 5.719zm9.42 0a3.759 3.759 0 1 1-3.742-3.984 3.758 3.758 0 0 1 3.738 3.985zm5.54 0a5.8 5.8 0 0 0 10.652 3.1l-1.5-1.034a3.9 3.9 0 0 1-7.241-1.695h9.023a5.373 5.373 0 0 0 .022-.572c-.022-3.521-2.354-5.524-5.238-5.524a5.576 5.576 0 0 0-5.722 5.726zm5.656-4.05a3.293 3.293 0 0 1 3.368 2.883H97.9a3.6 3.6 0 0 1 3.609-2.881zm11.439 9.067a1.873 1.873 0 0 0 .309-.99 1.629 1.629 0 1 0-3.258 0 1.636 1.636 0 0 0 .9 1.474l-1.475 3.148h1.254zM125.686 100a4.827 4.827 0 0 0 3.874 1.914 5.732 5.732 0 0 0 0-11.444 4.827 4.827 0 0 0-3.874 1.915v-7.2h-1.893v16.506h1.893V100zm7.329-3.808a3.749 3.749 0 1 1-3.741-3.984 3.757 3.757 0 0 1 3.741 3.981zm8.138 4.028a1.629 1.629 0 1 0-1.629 1.65 1.658 1.658 0 0 0 1.629-1.653zm11.857 1.474h1.89V86.065h-3.367L150 87.936h3.015v13.755zm6.688 0h2.421l5.722-6.756a6 6 0 0 0 1.761-3.984 5.294 5.294 0 0 0-10.586.066 5.048 5.048 0 0 0 4.886 5.018 2.8 2.8 0 0 0 .616-.044zM160.952 91a3.357 3.357 0 1 1 3.346 3.367A3.321 3.321 0 0 1 160.952 91zm22.026 6a4.366 4.366 0 0 0-2.443-4.094 3.658 3.658 0 0 0 1.585-3.081 4.056 4.056 0 0 0-4.38-4.028 4.112 4.112 0 0 0-4.4 4.028 3.645 3.645 0 0 0 1.629 3.081A4.366 4.366 0 0 0 172.48 97a4.922 4.922 0 0 0 5.26 4.907c3.103.004 5.238-2.064 5.238-4.907zm-7.769-7.131a2.326 2.326 0 0 1 2.531-2.289 2.283 2.283 0 0 1 2.509 2.289 2.335 2.335 0 0 1-2.509 2.311 2.382 2.382 0 0 1-2.531-2.307zM174.4 97a3.1 3.1 0 0 1 3.345-3.125 3.121 3.121 0 1 1 0 6.229A3.11 3.11 0 0 1 174.4 97zm13.86 4.688h1.893V86.065h-3.367l-1.541 1.871h3.015v13.755zm13.552 2.421h1.738V86.065h-1.738v18.047zm10.713-2.421h2.113l2-4.555h7.285l2 4.555h2.135l-6.933-15.626h-1.695zm4.908-6.4l2.839-6.448 2.84 6.448h-5.679zm16.347 6.4h1.584l5.084-11h-2.112l-3.764 8.319-3.772-8.32h-2.11zm8.6-5.5a5.506 5.506 0 0 0 5.392 5.722 4.826 4.826 0 0 0 3.869-1.91v1.694h1.893v-11h-1.893v1.695a4.826 4.826 0 0 0-3.874-1.915 5.507 5.507 0 0 0-5.392 5.715zm9.42 0a3.759 3.759 0 1 1-3.742-3.984 3.758 3.758 0 0 1 3.742 3.985zm8.688-9.794a1.33 1.33 0 0 0-1.321-1.343A1.368 1.368 0 0 0 257.8 86.4a1.353 1.353 0 0 0 1.365 1.343 1.316 1.316 0 0 0 1.318-1.343zm-2.289 15.3h1.892v-11h-1.892v11zm6.578 0h1.892V85.185h-1.892v16.506zm5.719-5.5a5.506 5.506 0 0 0 5.392 5.722 4.826 4.826 0 0 0 3.869-1.916v1.694h1.893v-11h-1.893v1.695a4.826 4.826 0 0 0-3.874-1.915 5.507 5.507 0 0 0-5.392 5.715zm9.42 0a3.759 3.759 0 1 1-3.741-3.984 3.757 3.757 0 0 1 3.736 3.979zM288.2 100a4.824 4.824 0 0 0 3.873 1.914 5.732 5.732 0 0 0 0-11.444 4.824 4.824 0 0 0-3.873 1.915v-7.2h-1.89v16.506h1.89V100zm7.329-3.808a3.749 3.749 0 1 1-3.742-3.984 3.758 3.758 0 0 1 3.745 3.981zm5.738 5.5h1.893V85.185h-1.89v16.506zm5.72-5.5a5.8 5.8 0 0 0 10.652 3.1l-1.5-1.034a3.9 3.9 0 0 1-7.241-1.695h9.024a5.373 5.373 0 0 0 .022-.572c-.022-3.521-2.355-5.524-5.238-5.524a5.576 5.576 0 0 0-5.716 5.722zm5.656-4.05a3.292 3.292 0 0 1 3.367 2.883h-6.977a3.6 3.6 0 0 1 3.613-2.885zm17.844-5.742a1.329 1.329 0 0 0-1.321-1.343A1.367 1.367 0 0 0 327.8 86.4a1.352 1.352 0 0 0 1.364 1.343 1.315 1.315 0 0 0 1.323-1.343zm-2.289 15.3h1.893v-11H328.2v11zm6.578 0h1.893v-5.467c0-2.575 1.408-4.028 3.191-4.028 1.541 0 2.6 1.144 2.6 2.993v6.492h1.871v-6.777c0-2.729-1.695-4.446-4.16-4.446a3.891 3.891 0 0 0-3.5 1.915v-1.695h-1.893v11zm20.526 0h1.898V85.185h-1.9v16.506zm5.72-5.5a5.8 5.8 0 0 0 10.652 3.1l-1.5-1.034a3.9 3.9 0 0 1-7.241-1.695h9.023a5.373 5.373 0 0 0 .022-.572c-.022-3.521-2.355-5.524-5.238-5.524a5.576 5.576 0 0 0-5.718 5.714zm5.656-4.05a3.293 3.293 0 0 1 3.368 2.883h-6.977a3.6 3.6 0 0 1 3.609-2.893zm8.226 4.05a5.506 5.506 0 0 0 5.392 5.722A4.826 4.826 0 0 0 384.17 100v1.694h1.893v-11h-1.893v1.695a4.826 4.826 0 0 0-3.874-1.915 5.507 5.507 0 0 0-5.396 5.715zm9.42 0a3.759 3.759 0 1 1-3.742-3.984 3.758 3.758 0 0 1 3.742 3.973zm12.363 5.348v-1.705a4.18 4.18 0 0 1-1.343.22 1.584 1.584 0 0 1-1.826-1.871v-5.766h3.169v-1.739h-3.169v-3.059h-1.893v3.059h-2.333v1.739h2.333v6.008a3.1 3.1 0 0 0 3.367 3.367 5.266 5.266 0 0 0 1.695-.264zm3.518.154h1.895v-5.469c0-2.575 1.409-4.028 3.192-4.028 1.54 0 2.6 1.144 2.6 2.993v6.492h1.871v-6.777c0-2.729-1.695-4.446-4.16-4.446a3.893 3.893 0 0 0-3.5 1.915v-7.2h-1.892v16.506zm13.2-5.5a5.8 5.8 0 0 0 10.653 3.1l-1.5-1.034a3.9 3.9 0 0 1-7.241-1.695h9.024a5.373 5.373 0 0 0 .022-.572c-.022-3.521-2.355-5.524-5.238-5.524a5.577 5.577 0 0 0-5.725 5.712zm5.657-4.05a3.292 3.292 0 0 1 3.367 2.883h-6.977a3.6 3.6 0 0 1 3.609-2.895zm9.084 9.551h1.893v-5.47c0-2.575 1.518-3.785 2.9-3.785a2.764 2.764 0 0 1 1.034.176v-1.959a3.92 3.92 0 0 0-.858-.088 3.273 3.273 0 0 0-3.081 2.245v-2.135h-1.893v11zm14.212-5.5a5.506 5.506 0 0 0 5.392 5.722 4.827 4.827 0 0 0 3.873-1.925v1.694h1.892v-11h-1.892v1.695a4.827 4.827 0 0 0-3.874-1.915 5.507 5.507 0 0 0-5.392 5.715zm9.42 0a3.759 3.759 0 1 1-3.742-3.984 3.758 3.758 0 0 1 3.741 3.97zm6.4 5.5h1.893v-5.47c0-2.575 1.409-4.028 3.191-4.028 1.541 0 2.6 1.144 2.6 2.993v6.492h1.87v-6.777c0-2.729-1.694-4.446-4.159-4.446a3.892 3.892 0 0 0-3.5 1.915v-1.695h-1.893v11zm13.2-5.5a5.506 5.506 0 0 0 5.392 5.722 4.826 4.826 0 0 0 3.871-1.925v1.694h1.893V85.185h-1.893v7.2a4.826 4.826 0 0 0-3.874-1.915 5.507 5.507 0 0 0-5.392 5.719zm9.42 0a3.759 3.759 0 1 1-3.742-3.984 3.758 3.758 0 0 1 3.744 3.97zm20 2.443c0-1.651-1.034-2.707-2.9-3.323l-1.188-.4c-1.3-.418-1.695-.836-1.695-1.541 0-.814.814-1.276 1.849-1.276a2.975 2.975 0 0 1 2.333 1.144l1.232-1.188a4.267 4.267 0 0 0-3.521-1.585c-2.179 0-3.72 1.211-3.72 2.993 0 1.541.947 2.619 2.729 3.191l1.068.339c1.43.462 1.959.99 1.959 1.761a1.676 1.676 0 0 1-1.937 1.5 2.953 2.953 0 0 1-2.817-1.739l-1.541.836a4.371 4.371 0 0 0 4.314 2.552c2.223.001 3.829-1.121 3.829-3.278zm3.649-1.188c0 2.729 1.629 4.467 4.05 4.467a3.787 3.787 0 0 0 3.39-1.914v1.694h1.892v-11h-1.892v5.458c0 2.531-1.343 4.028-3.06 4.028-1.518 0-2.487-1.167-2.487-3.015v-6.489h-1.893v6.757zm13.134-1.255a5.8 5.8 0 0 0 10.653 3.1l-1.5-1.034a3.9 3.9 0 0 1-7.241-1.695h9.024a5.373 5.373 0 0 0 .022-.572c-.022-3.521-2.355-5.524-5.238-5.524a5.577 5.577 0 0 0-5.726 5.711zm5.657-4.05a3.292 3.292 0 0 1 3.367 2.883h-6.977a3.6 3.6 0 0 1 3.604-2.896zm8.226 4.05a5.506 5.506 0 0 0 5.392 5.722 4.827 4.827 0 0 0 3.868-1.925v1.694h1.892V85.185h-1.892v7.2a4.827 4.827 0 0 0-3.874-1.915 5.507 5.507 0 0 0-5.392 5.719zm9.42 0a3.76 3.76 0 1 1-3.742-3.984 3.758 3.758 0 0 1 3.736 3.97zm5.54 0a5.8 5.8 0 0 0 10.652 3.1l-1.5-1.034a3.9 3.9 0 0 1-7.241-1.695h9.023a5.373 5.373 0 0 0 .022-.572c-.022-3.521-2.355-5.524-5.238-5.524a5.576 5.576 0 0 0-5.724 5.711zm5.656-4.05a3.293 3.293 0 0 1 3.368 2.883h-6.977a3.6 3.6 0 0 1 3.603-2.896zm11.7 8.077a1.629 1.629 0 1 0-1.628 1.65 1.658 1.658 0 0 0 1.625-1.663zm-507.8 56.96v-7.633h-6.99v2.088h4.825v4.561a7.544 7.544 0 0 1-4.537 1.273 6.7 6.7 0 1 1-.288-13.4 7 7 0 0 1 4.921 1.872l1.488-1.608a9 9 0 0 0-6.409-2.376 8.7 8.7 0 0 0-8.882 8.809c0 4.969 3.793 8.81 9.17 8.81a9.364 9.364 0 0 0 6.697-2.409zm16.12-3.901a6.277 6.277 0 1 0-6.265 6.241 6.159 6.159 0 0 0 6.265-6.241zm-10.442 0a4.168 4.168 0 1 1 4.177 4.321 4.125 4.125 0 0 1-4.174-4.321zm17.088-10.682a1.45 1.45 0 0 0-1.44-1.465 1.492 1.492 0 0 0-1.488 1.465 1.475 1.475 0 0 0 1.488 1.464 1.435 1.435 0 0 0 1.442-1.464zm-2.5 16.683h2.064v-12h-2.058v12zm7.176 0h2.064v-5.953c0-2.809 1.536-4.393 3.481-4.393 1.68 0 2.833 1.248 2.833 3.265v7.081h2.041v-7.39c0-2.976-1.848-4.848-4.537-4.848a4.245 4.245 0 0 0-3.817 2.088v-1.848h-2.059v12zm26.522-.7v-11.302h-2.065v1.848a5.106 5.106 0 0 0-4.176-2.088 6.114 6.114 0 0 0 0 12.218 5.122 5.122 0 0 0 4.176-2.113v1.369a3.837 3.837 0 0 1-4.008 4.153 5.136 5.136 0 0 1-4.2-2.017l-1.44 1.44a7.124 7.124 0 0 0 5.666 2.449c3.412 0 6.053-1.947 6.053-5.953zm-10.01-5.449a4.059 4.059 0 1 1 4.057 4.2 4 4 0 0 1-4.051-4.196zm22.151 11.162h2.064v-6.865a5.266 5.266 0 0 0 4.225 2.088 6.252 6.252 0 0 0 0-12.482 5.266 5.266 0 0 0-4.225 2.088v-1.848h-2.064v17.019zm10.058-11.018a4.089 4.089 0 1 1-4.081-4.345 4.1 4.1 0 0 1 4.087 4.349zm6.286 6h2.071v-18h-2.064v18zm6.24-6a6.006 6.006 0 0 0 5.881 6.241 5.264 5.264 0 0 0 4.225-2.088v1.848h2.064v-12h-2.064v1.848a5.264 5.264 0 0 0-4.225-2.088 6.005 6.005 0 0 0-5.875 6.243zm10.274 0a4.1 4.1 0 1 1-4.081-4.345 4.1 4.1 0 0 1 4.087 4.349zm17.88 3.024l-1.8-1.008a4.069 4.069 0 0 1-3.744 2.305 4.323 4.323 0 0 1 0-8.642 4.068 4.068 0 0 1 3.744 2.3l1.8-1.008a6.216 6.216 0 0 0-5.545-3.216 6.241 6.241 0 1 0 0 12.482 6.215 6.215 0 0 0 5.551-3.209zm2.925-3.024a6.327 6.327 0 0 0 11.618 3.384l-1.632-1.128a4.25 4.25 0 0 1-7.9-1.848h9.843a5.856 5.856 0 0 0 .024-.624c-.024-3.841-2.569-6.025-5.714-6.025a6.082 6.082 0 0 0-6.233 6.245zm6.169-4.417a3.591 3.591 0 0 1 3.673 3.145h-7.61a3.925 3.925 0 0 1 3.943-3.141zm17.689 7.081c0-1.8-1.129-2.952-3.169-3.624l-1.3-.433c-1.417-.456-1.849-.912-1.849-1.68 0-.888.889-1.392 2.017-1.392a3.242 3.242 0 0 1 2.544 1.248l1.345-1.3a4.657 4.657 0 0 0-3.841-1.728c-2.377 0-4.057 1.32-4.057 3.264 0 1.681 1.032 2.857 2.977 3.481l1.176.384c1.56.5 2.136 1.08 2.136 1.92 0 1.032-.936 1.633-2.112 1.633a3.223 3.223 0 0 1-3.073-1.9l-1.68.912a4.766 4.766 0 0 0 4.705 2.785c2.434.011 4.187-1.213 4.187-3.566zm6.766-2.328h2.065v-.192c0-.912 1.008-1.561 1.9-2.257a5.377 5.377 0 0 0 2.521-4.32 4.822 4.822 0 0 0-4.945-4.9 5.181 5.181 0 0 0-5.3 5.209h2.064a3.088 3.088 0 0 1 3.241-3.193 2.812 2.812 0 0 1 2.88 2.929c0 1.44-.912 2.136-2.232 3.12-.936.7-2.185 1.848-2.185 3.121v.48zm2.785 4.057a1.777 1.777 0 1 0-1.776 1.8 1.808 1.808 0 0 0 1.782-1.796zm17.975 1.608h2.185v-14.927h5.3v-2.112h-12.784v2.112h5.305v14.931zm10.872 0h2.064v-5.953c0-2.809 1.536-4.393 3.481-4.393 1.68 0 2.832 1.248 2.832 3.265v7.081h2.041V151.9c0-2.976-1.849-4.848-4.537-4.848a4.245 4.245 0 0 0-3.817 2.088v-7.849h-2.058v18zm17.832-16.683a1.45 1.45 0 0 0-1.44-1.465 1.492 1.492 0 0 0-1.489 1.465 1.475 1.475 0 0 0 1.489 1.464 1.434 1.434 0 0 0 1.446-1.46zm-2.5 16.683h2.065v-12h-2.065v12zm14.954-3.337c0-1.8-1.128-2.952-3.169-3.624l-1.3-.433c-1.416-.456-1.848-.912-1.848-1.68 0-.888.888-1.392 2.016-1.392a3.242 3.242 0 0 1 2.544 1.248l1.345-1.3a4.656 4.656 0 0 0-3.841-1.728c-2.377 0-4.057 1.32-4.057 3.264 0 1.681 1.032 2.857 2.977 3.481l1.176.384c1.56.5 2.136 1.08 2.136 1.92 0 1.032-.936 1.633-2.112 1.633a3.223 3.223 0 0 1-3.073-1.9l-1.68.912a4.767 4.767 0 0 0 4.705 2.785c2.437.011 4.191-1.213 4.191-3.566zm11.206 3.337h2.064v-5.953c0-2.713 1.368-4.393 3.313-4.393 1.56 0 2.352 1.344 2.352 3.289v7.057h2.075v-5.953c0-2.713 1.344-4.393 3.288-4.393 1.561 0 2.377 1.344 2.377 3.289v7.057h2.064v-7.369c0-2.929-1.584-4.873-4.2-4.873a4.153 4.153 0 0 0-3.937 2.568 3.773 3.773 0 0 0-3.7-2.568 4.035 4.035 0 0 0-3.625 2.088v-1.848h-2.064v12zm24.936-16.683a1.45 1.45 0 0 0-1.44-1.465 1.492 1.492 0 0 0-1.489 1.465 1.476 1.476 0 0 0 1.497 1.468 1.434 1.434 0 0 0 1.441-1.464zm-2.5 16.683h2.064v-12h-2.064v12zm7.175 0h2.065v-18h-2.052v18zm9.673-16.683a1.45 1.45 0 0 0-1.441-1.465 1.492 1.492 0 0 0-1.488 1.465 1.475 1.475 0 0 0 1.488 1.464 1.435 1.435 0 0 0 1.454-1.46zm-2.5 16.683h2.065v-12H316.3v12zm13.681-.168v-1.848a4.562 4.562 0 0 1-1.464.24c-1.3 0-1.992-.505-1.992-2.041v-6.289h3.456v-1.9h-3.456v-3.337h-2.065v3.337h-2.544v1.9h2.544v6.553a3.379 3.379 0 0 0 3.673 3.673 5.743 5.743 0 0 0 1.864-.284zm2.735-5.833a6.006 6.006 0 0 0 5.881 6.241 5.263 5.263 0 0 0 4.225-2.088v1.848h2.065v-12h-2.065v1.848a5.263 5.263 0 0 0-4.225-2.088 6.006 6.006 0 0 0-5.865 6.243zm10.274 0a4.1 4.1 0 1 1-4.081-4.345 4.1 4.1 0 0 1 4.097 4.349zm6.982 6h2.064v-5.953c0-2.809 1.657-4.129 3.169-4.129a3.017 3.017 0 0 1 1.128.192v-2.136a4.276 4.276 0 0 0-.936-.1 3.572 3.572 0 0 0-3.361 2.448v-2.328h-2.064v12zm13.177 5.017l7.873-17.019h-2.3l-4.105 9.1-4.129-9.1H358.2l5.257 11.378-2.617 5.641h2.305zm10.503-10.702h6.121v-2.065h-6.121v2.065zm13.344-10.994a1.45 1.45 0 0 0-1.44-1.465 1.492 1.492 0 0 0-1.488 1.465 1.475 1.475 0 0 0 1.488 1.464 1.434 1.434 0 0 0 1.44-1.463zm-2.5 16.683h2.064v-12h-2.06v12zm7.176 0h2.064v-5.953c0-2.809 1.536-4.393 3.481-4.393 1.68 0 2.832 1.248 2.832 3.265v7.081h2.041V151.9c0-2.976-1.848-4.848-4.537-4.848a4.245 4.245 0 0 0-3.817 2.088v-1.848h-2.064v12zm23.113-3.337c0-1.8-1.128-2.952-3.169-3.624l-1.3-.433c-1.416-.456-1.848-.912-1.848-1.68 0-.888.888-1.392 2.016-1.392a3.244 3.244 0 0 1 2.545 1.248l1.344-1.3a4.654 4.654 0 0 0-3.841-1.728c-2.376 0-4.057 1.32-4.057 3.264 0 1.681 1.033 2.857 2.977 3.481l1.176.384c1.561.5 2.137 1.08 2.137 1.92 0 1.032-.937 1.633-2.113 1.633a3.221 3.221 0 0 1-3.072-1.9l-1.681.912a4.767 4.767 0 0 0 4.7 2.785c2.438.008 4.19-1.216 4.19-3.569zm4.15 8.354h2.065v-6.865a5.263 5.263 0 0 0 4.225 2.088 6.252 6.252 0 0 0 0-12.482 5.263 5.263 0 0 0-4.225 2.088v-1.848h-2.065v17.019zm10.058-11.018a4.089 4.089 0 1 1-4.081-4.345 4.1 4.1 0 0 1 4.085 4.346zm8.783-10.682a1.45 1.45 0 0 0-1.441-1.465 1.492 1.492 0 0 0-1.488 1.465 1.475 1.475 0 0 0 1.488 1.464 1.435 1.435 0 0 0 1.445-1.463zm-2.5 16.683h2.065v-12h-2.065v12zm7.176 0h2.068v-5.953c0-2.809 1.657-4.129 3.169-4.129a3.017 3.017 0 0 1 1.128.192v-2.136a4.276 4.276 0 0 0-.936-.1 3.571 3.571 0 0 0-3.361 2.448v-2.328h-2.064v12zm8.616-6a6.327 6.327 0 0 0 11.618 3.384l-1.632-1.128a4.25 4.25 0 0 1-7.9-1.848h9.842a5.856 5.856 0 0 0 .024-.624c-.024-3.841-2.568-6.025-5.713-6.025a6.081 6.081 0 0 0-6.232 6.241zm6.169-4.417a3.591 3.591 0 0 1 3.673 3.145h-7.61a3.924 3.924 0 0 1 3.944-3.145zm8.975 4.417a6.006 6.006 0 0 0 5.881 6.241 5.264 5.264 0 0 0 4.225-2.088v1.848h2.064v-18h-2.064v7.849a5.264 5.264 0 0 0-4.225-2.088 6.005 6.005 0 0 0-5.873 6.238zm10.274 0a4.1 4.1 0 1 1-4.081-4.345 4.1 4.1 0 0 1 4.088 4.345zm16.1 4.153a5.263 5.263 0 0 0 4.225 2.088 6.252 6.252 0 0 0 0-12.482 5.263 5.263 0 0 0-4.225 2.088v-7.849h-2.056v18h2.065v-1.848zm7.994-4.153a4.089 4.089 0 1 1-4.081-4.345 4.1 4.1 0 0 1 4.09 4.345zm17.856 0a6.278 6.278 0 1 0-6.266 6.241 6.159 6.159 0 0 0 6.275-6.241zm-10.443 0a4.168 4.168 0 1 1 4.177 4.321 4.126 4.126 0 0 1-4.168-4.321zm26.186 0a6.277 6.277 0 1 0-6.265 6.241 6.159 6.159 0 0 0 6.274-6.241zm-10.442 0a4.168 4.168 0 1 1 4.177 4.321 4.125 4.125 0 0 1-4.168-4.321zm20.881 5.833v-1.848a4.562 4.562 0 0 1-1.464.24c-1.3 0-1.992-.505-1.992-2.041v-6.289h3.456v-1.9h-3.456v-3.337h-2.065v3.337h-2.544v1.9h2.544v6.553a3.378 3.378 0 0 0 3.673 3.673 5.743 5.743 0 0 0 1.857-.288zm20.641.168h1.824l4.081-12h-2.184l-2.905 8.761-3-8.761h-1.584l-3 8.761-2.9-8.761h-2.161l4.081 12h1.825l2.976-8.642zm11.83-16.683a1.45 1.45 0 0 0-1.44-1.465 1.492 1.492 0 0 0-1.489 1.465 1.475 1.475 0 0 0 1.489 1.464 1.434 1.434 0 0 0 1.449-1.464zm-2.5 16.683h2.065v-12h-2.065v12zm7.176 0h2.065v-18h-2.065v18zm7.176 0H591v-18h-2.065v18zm14.232 0h2.064v-5.953c0-2.809 1.536-4.393 3.481-4.393 1.68 0 2.832 1.248 2.832 3.265v7.081h2.041v-7.39c0-2.976-1.849-4.848-4.537-4.848a4.245 4.245 0 0 0-3.817 2.088v-7.849h-2.064v18zm14.4-6a6.328 6.328 0 0 0 11.619 3.384l-1.633-1.128a4.249 4.249 0 0 1-7.9-1.848h9.861a5.856 5.856 0 0 0 .024-.624c-.024-3.841-2.569-6.025-5.713-6.025a6.082 6.082 0 0 0-6.247 6.24zm6.169-4.417a3.591 3.591 0 0 1 3.673 3.145H619.8a3.923 3.923 0 0 1 3.933-3.146zm9.911 10.418h2.065v-18h-2.065v18zm7.176 5.017h2.064v-6.865a5.266 5.266 0 0 0 4.225 2.088 6.252 6.252 0 0 0 0-12.482 5.266 5.266 0 0 0-4.225 2.088v-1.848h-2.053v17.019zm10.058-11.018a4.089 4.089 0 1 1-4.081-4.345 4.1 4.1 0 0 1 4.092 4.344zm15.982 11.018l7.874-17.019h-2.3l-4.1 9.1-4.129-9.1h-2.281l5.258 11.378-2.617 5.641h2.3zm22.467-11.018a6.278 6.278 0 1 0-6.266 6.241 6.159 6.159 0 0 0 6.277-6.242zm-10.443 0a4.168 4.168 0 1 1 4.177 4.321 4.126 4.126 0 0 1-4.166-4.322zm14.424 1.368c0 2.977 1.776 4.873 4.417 4.873a4.129 4.129 0 0 0 3.7-2.088v1.848h2.065v-12h-2.065v5.953c0 2.76-1.464 4.393-3.336 4.393-1.657 0-2.713-1.273-2.713-3.289v-7.057h-2.064v7.369zM40.948 188.089h2.065v-5.953c0-2.809 1.536-4.393 3.481-4.393 1.68 0 2.833 1.248 2.833 3.265v7.081h2.041V180.7c0-2.977-1.848-4.849-4.537-4.849a4.244 4.244 0 0 0-3.817 2.088v-1.848h-2.066v12zm14.4-6a6.006 6.006 0 0 0 5.881 6.241 5.264 5.264 0 0 0 4.225-2.088v1.848h2.064v-12h-2.064v1.848a5.264 5.264 0 0 0-4.225-2.088 6.006 6.006 0 0 0-5.881 6.238zm10.274 0a4.1 4.1 0 1 1-4.081-4.345 4.1 4.1 0 0 1 4.081 4.344zm10.727 6h1.728l5.545-12h-2.3l-4.1 9.074-4.1-9.074H70.8zM89.4 171.406a1.449 1.449 0 0 0-1.44-1.464 1.491 1.491 0 0 0-1.488 1.464 1.475 1.475 0 0 0 1.488 1.464 1.435 1.435 0 0 0 1.44-1.464zm-2.5 16.683h2.064v-12h-2.056v12zm18.362-.7v-11.302h-2.065v1.848a5.106 5.106 0 0 0-4.177-2.088 6.114 6.114 0 0 0 0 12.218 5.125 5.125 0 0 0 4.177-2.112v1.368a3.836 3.836 0 0 1-4.009 4.153 5.133 5.133 0 0 1-4.2-2.017l-1.44 1.441a7.126 7.126 0 0 0 5.665 2.448c3.416 0 6.057-1.946 6.057-5.953zm-10.01-5.449a4.059 4.059 0 1 1 4.057 4.2 4 4 0 0 1-4.049-4.196zm14.159.144a6.005 6.005 0 0 0 5.881 6.241 5.263 5.263 0 0 0 4.225-2.088v1.848h2.064v-12h-2.064v1.848a5.263 5.263 0 0 0-4.225-2.088 6.005 6.005 0 0 0-5.873 6.243zm10.274 0a4.1 4.1 0 1 1-4.081-4.345 4.1 4.1 0 0 1 4.089 4.349zm13.487 5.833v-1.848a4.562 4.562 0 0 1-1.464.24c-1.3 0-1.993-.5-1.993-2.041v-6.289h3.457v-1.9h-3.457v-3.329h-2.064v3.337h-2.544v1.9h2.544v6.553a3.378 3.378 0 0 0 3.673 3.673 5.743 5.743 0 0 0 1.856-.292zm2.735-5.833a6.328 6.328 0 0 0 11.618 3.385l-1.632-1.129A4.25 4.25 0 0 1 138 182.5h9.842a5.856 5.856 0 0 0 .024-.624c-.024-3.841-2.568-6.025-5.713-6.025a6.081 6.081 0 0 0-6.238 6.237zm6.169-4.417a3.591 3.591 0 0 1 3.673 3.145h-7.61a3.924 3.924 0 0 1 3.945-3.141zm23.064 10.25v-1.848a4.562 4.562 0 0 1-1.464.24c-1.3 0-1.993-.5-1.993-2.041v-6.289h3.457v-1.9h-3.457v-3.329h-2.064v3.337h-2.545v1.9h2.545v6.553a3.378 3.378 0 0 0 3.673 3.673 5.743 5.743 0 0 0 1.856-.292zm3.839.168h2.064v-5.953c0-2.809 1.536-4.393 3.481-4.393 1.68 0 2.832 1.248 2.832 3.265v7.081h2.041V180.7c0-2.977-1.849-4.849-4.537-4.849a4.244 4.244 0 0 0-3.817 2.088v-7.849h-2.064v18zm14.4-6a6.328 6.328 0 0 0 11.619 3.385l-1.633-1.129a4.249 4.249 0 0 1-7.9-1.848h9.842a5.856 5.856 0 0 0 .024-.624c-.024-3.841-2.569-6.025-5.714-6.025a6.082 6.082 0 0 0-6.231 6.244zm6.169-4.417a3.591 3.591 0 0 1 3.673 3.145h-7.609a3.923 3.923 0 0 1 3.943-3.142zm16.8 5.785c0 2.977 1.776 4.873 4.417 4.873a4.131 4.131 0 0 0 3.7-2.088v1.848h2.064v-12h-2.064v5.953c0 2.761-1.465 4.393-3.337 4.393-1.657 0-2.713-1.272-2.713-3.289v-7.057h-2.064v7.369zm15.264 4.633h2.064v-5.953c0-2.809 1.657-4.129 3.169-4.129a3.017 3.017 0 0 1 1.128.192v-2.136a4.276 4.276 0 0 0-.936-.1 3.571 3.571 0 0 0-3.361 2.448v-2.328h-2.064v12zm12.048-1.848a5.264 5.264 0 0 0 4.225 2.088 6.252 6.252 0 0 0 0-12.482 5.264 5.264 0 0 0-4.225 2.088v-7.849h-2.06v18h2.064v-1.848zm7.994-4.153a4.089 4.089 0 1 1-4.081-4.345 4.1 4.1 0 0 1 4.087 4.348zm5.325 0a6.006 6.006 0 0 0 5.881 6.241 5.263 5.263 0 0 0 4.225-2.088v1.848h2.065v-12h-2.065v1.848a5.263 5.263 0 0 0-4.225-2.088 6.006 6.006 0 0 0-5.875 6.242zm10.274 0a4.1 4.1 0 1 1-4.08-4.345 4.1 4.1 0 0 1 4.086 4.348zm6.982 6h2.065v-5.953c0-2.809 1.536-4.393 3.48-4.393 1.681 0 2.833 1.248 2.833 3.265v7.081h2.04V180.7c0-2.977-1.848-4.849-4.537-4.849a4.243 4.243 0 0 0-3.816 2.088v-1.848h-2.065v12zm25.08-16.683a1.449 1.449 0 0 0-1.44-1.464 1.491 1.491 0 0 0-1.488 1.464 1.475 1.475 0 0 0 1.488 1.464 1.434 1.434 0 0 0 1.446-1.46zm-.432 4.681h-2.064v13.346c0 1.537-.72 2.041-1.849 2.041a5.262 5.262 0 0 1-.7-.048v1.848a6.1 6.1 0 0 0 .984.072 3.365 3.365 0 0 0 3.625-3.673v-13.582zm4.943 7.369c0 2.977 1.777 4.873 4.417 4.873a4.129 4.129 0 0 0 3.7-2.088v1.848h2.064v-12h-2.064v5.953c0 2.761-1.464 4.393-3.337 4.393-1.656 0-2.712-1.272-2.712-3.289v-7.057h-2.065v7.369zm15.264 4.633h2.065v-5.953c0-2.809 1.536-4.393 3.48-4.393 1.681 0 2.833 1.248 2.833 3.265v7.081h2.04V180.7c0-2.977-1.848-4.849-4.537-4.849a4.243 4.243 0 0 0-3.816 2.088v-1.848H309.1v12zm26.522-.7v-11.298h-2.064v1.848a5.108 5.108 0 0 0-4.177-2.088 6.114 6.114 0 0 0 0 12.218 5.126 5.126 0 0 0 4.177-2.112v1.368a3.837 3.837 0 0 1-4.009 4.153 5.134 5.134 0 0 1-4.2-2.017L323.9 190.9a7.126 7.126 0 0 0 5.665 2.448c3.413-.002 6.053-1.948 6.053-5.955zm-10.01-5.449a4.059 4.059 0 1 1 4.057 4.2 4 4 0 0 1-4.051-4.192zm15.1 6.145h2.064v-18H340.7v18zm6.239-6a6.328 6.328 0 0 0 11.619 3.385l-1.632-1.129a4.25 4.25 0 0 1-7.9-1.848h9.842a5.856 5.856 0 0 0 .024-.624c-.024-3.841-2.569-6.025-5.713-6.025a6.082 6.082 0 0 0-6.238 6.248zm6.17-4.417a3.59 3.59 0 0 1 3.672 3.145h-7.609a3.923 3.923 0 0 1 3.939-3.138zm19.463-6.265a1.45 1.45 0 0 0-1.441-1.464 1.491 1.491 0 0 0-1.488 1.464 1.475 1.475 0 0 0 1.488 1.464 1.435 1.435 0 0 0 1.443-1.457zm-2.5 16.683h2.065v-12h-2.065v12zm7.176 0h2.064v-5.953c0-2.809 1.537-4.393 3.481-4.393 1.681 0 2.833 1.248 2.833 3.265v7.081h2.04V180.7c0-2.977-1.848-4.849-4.537-4.849a4.246 4.246 0 0 0-3.817 2.088v-1.848h-2.064v12zm30.169-3.336c0-1.8-1.128-2.953-3.169-3.625l-1.3-.432c-1.416-.456-1.848-.912-1.848-1.681 0-.888.888-1.392 2.016-1.392a3.244 3.244 0 0 1 2.545 1.248l1.344-1.3a4.656 4.656 0 0 0-3.841-1.728c-2.376 0-4.057 1.32-4.057 3.264 0 1.681 1.033 2.857 2.977 3.481l1.176.384c1.561.5 2.137 1.08 2.137 1.921 0 1.032-.937 1.632-2.113 1.632a3.22 3.22 0 0 1-3.072-1.9l-1.681.913a4.768 4.768 0 0 0 4.705 2.784c2.434.014 4.186-1.21 4.186-3.562zm10.512 3.168v-1.848a4.568 4.568 0 0 1-1.465.24c-1.3 0-1.992-.5-1.992-2.041v-6.289h3.457v-1.9h-3.457v-3.326h-2.065v3.337h-2.539v1.9h2.544v6.553a3.379 3.379 0 0 0 3.673 3.673 5.749 5.749 0 0 0 1.849-.292zm7.031 5.185l7.874-17.019h-2.305l-4.105 9.1-4.129-9.1h-2.28l5.257 11.378-2.617 5.641h2.305zm11.135-5.017h2.065v-18H436.1v18zm6.24-6a6.328 6.328 0 0 0 11.618 3.385l-1.632-1.129a4.25 4.25 0 0 1-7.9-1.848h9.842a5.856 5.856 0 0 0 .024-.624c-.024-3.841-2.568-6.025-5.713-6.025a6.081 6.081 0 0 0-6.234 6.247zm6.169-4.417a3.591 3.591 0 0 1 3.673 3.145h-7.61a3.924 3.924 0 0 1 3.942-3.139zm12.767 8.81a1.776 1.776 0 1 0-1.776 1.8 1.809 1.809 0 0 0 1.781-1.794zm28.2-6.913a8.81 8.81 0 1 0-8.81 8.809 8.725 8.725 0 0 0 8.818-8.803zm-15.363 0a6.567 6.567 0 1 1 6.553 6.7 6.534 6.534 0 0 1-6.545-6.694zm19.416 3.888c0 2.977 1.776 4.873 4.417 4.873a4.129 4.129 0 0 0 3.7-2.088v1.848h2.065v-12h-2.065v5.953c0 2.761-1.464 4.393-3.336 4.393-1.657 0-2.713-1.272-2.713-3.289v-7.057h-2.064v7.369zm15.264 4.633h2.064v-5.953c0-2.809 1.656-4.129 3.169-4.129a3.017 3.017 0 0 1 1.128.192v-2.136a4.276 4.276 0 0 0-.936-.1 3.57 3.57 0 0 0-3.361 2.448v-2.328H508.8v12zm17.136 0H528v-10.1h3.481v-1.9H528v-2.209c0-1.512.672-2.04 1.993-2.04a4.833 4.833 0 0 1 1.488.24v-1.824a5.454 5.454 0 0 0-1.872-.312 3.427 3.427 0 0 0-3.673 3.72v2.425h-2.545v1.9h2.545v10.106zm10.3-16.683a1.449 1.449 0 0 0-1.44-1.464 1.492 1.492 0 0 0-1.489 1.464 1.476 1.476 0 0 0 1.489 1.464 1.434 1.434 0 0 0 1.446-1.458zm-2.5 16.683h2.074v-12h-2.064v12zm7.149 0h2.065v-5.953c0-2.809 1.656-4.129 3.169-4.129a3.017 3.017 0 0 1 1.128.192v-2.136a4.276 4.276 0 0 0-.936-.1 3.57 3.57 0 0 0-3.361 2.448v-2.328h-2.065v12zm17.546-3.336c0-1.8-1.128-2.953-3.168-3.625l-1.3-.432c-1.416-.456-1.848-.912-1.848-1.681 0-.888.888-1.392 2.016-1.392a3.243 3.243 0 0 1 2.545 1.248l1.344-1.3a4.654 4.654 0 0 0-3.841-1.728c-2.376 0-4.056 1.32-4.056 3.264 0 1.681 1.032 2.857 2.976 3.481l1.176.384c1.561.5 2.137 1.08 2.137 1.921 0 1.032-.936 1.632-2.113 1.632a3.22 3.22 0 0 1-3.072-1.9l-1.681.913a4.769 4.769 0 0 0 4.705 2.784c2.438.013 4.19-1.211 4.19-3.563zm10.512 3.168v-1.848a4.562 4.562 0 0 1-1.464.24c-1.3 0-1.993-.5-1.993-2.041v-6.289h3.457v-1.9h-3.457v-3.327h-2.064v3.337h-2.545v1.9h2.545v6.553a3.378 3.378 0 0 0 3.672 3.673 5.744 5.744 0 0 0 1.859-.292zm14.111.168h1.729l5.545-12h-2.3l-4.105 9.074-4.1-9.074h-2.3zm9.359-6a6.328 6.328 0 0 0 11.619 3.385l-1.633-1.129a4.249 4.249 0 0 1-7.9-1.848h9.842a5.856 5.856 0 0 0 .024-.624c-.024-3.841-2.569-6.025-5.713-6.025a6.082 6.082 0 0 0-6.229 6.246zm6.17-4.417a3.59 3.59 0 0 1 3.672 3.145h-7.609a3.923 3.923 0 0 1 3.947-3.14zm9.91 10.418h2.065v-5.953c0-2.809 1.656-4.129 3.168-4.129a3.019 3.019 0 0 1 1.129.192v-2.136a4.276 4.276 0 0 0-.936-.1 3.57 3.57 0 0 0-3.361 2.448v-2.328h-2.065v12zm17.546-3.336c0-1.8-1.128-2.953-3.168-3.625l-1.3-.432c-1.416-.456-1.848-.912-1.848-1.681 0-.888.888-1.392 2.016-1.392a3.243 3.243 0 0 1 2.545 1.248l1.344-1.3a4.654 4.654 0 0 0-3.841-1.728c-2.376 0-4.057 1.32-4.057 3.264 0 1.681 1.033 2.857 2.977 3.481l1.176.384c1.561.5 2.137 1.08 2.137 1.921 0 1.032-.936 1.632-2.113 1.632a3.22 3.22 0 0 1-3.072-1.9l-1.681.913a4.769 4.769 0 0 0 4.7 2.784c2.443.012 4.195-1.212 4.195-3.564zm6.647-13.347a1.449 1.449 0 0 0-1.44-1.464 1.491 1.491 0 0 0-1.489 1.464 1.475 1.475 0 0 0 1.489 1.464 1.434 1.434 0 0 0 1.45-1.459zm-2.5 16.683h2.065v-12h-2.065v12zm18.771-6a6.278 6.278 0 1 0-6.266 6.241 6.159 6.159 0 0 0 6.279-6.237zm-10.443 0a4.168 4.168 0 1 1 4.177 4.321 4.126 4.126 0 0 1-4.164-4.317zm14.592 6h2.064v-5.953c0-2.809 1.537-4.393 3.481-4.393 1.68 0 2.833 1.248 2.833 3.265v7.081h2.04V180.7c0-2.977-1.848-4.849-4.537-4.849a4.246 4.246 0 0 0-3.817 2.088v-1.848h-2.064v12zm-613.1 22.8a6.006 6.006 0 0 0 5.881 6.241 5.264 5.264 0 0 0 4.225-2.088v1.848h2.064v-12h-2.048v1.848a5.264 5.264 0 0 0-4.225-2.088 6.006 6.006 0 0 0-5.881 6.242zm10.274 0a4.1 4.1 0 1 1-4.081-4.345 4.1 4.1 0 0 1 4.097 4.348zm6.982 11.018h2.064v-6.862a5.264 5.264 0 0 0 4.225 2.088 6.252 6.252 0 0 0 0-12.482 5.264 5.264 0 0 0-4.225 2.088v-1.848h-2.048v17.019zm10.058-11.018a4.089 4.089 0 1 1-4.081-4.345 4.1 4.1 0 0 1 4.097 4.348zm6.286 11.018h2.064v-6.862a5.264 5.264 0 0 0 4.225 2.088 6.252 6.252 0 0 0 0-12.482 5.264 5.264 0 0 0-4.225 2.088v-1.848h-2.048v17.019zm10.074-11.015a4.089 4.089 0 1 1-4.081-4.345 4.1 4.1 0 0 1 4.081 4.345zm5.35 0a6.328 6.328 0 0 0 11.618 3.385l-1.632-1.128a4.25 4.25 0 0 1-7.9-1.849h9.842a5.856 5.856 0 0 0 .024-.624c-.024-3.841-2.568-6.025-5.713-6.025a6.082 6.082 0 0 0-6.239 6.241zm6.169-4.417a3.592 3.592 0 0 1 3.673 3.145h-7.61a3.925 3.925 0 0 1 3.937-3.145zm8.974 4.417a6.006 6.006 0 0 0 5.882 6.241 5.266 5.266 0 0 0 4.225-2.088v1.848h2.064v-12h-2.064v1.848a5.266 5.266 0 0 0-4.225-2.088 6.007 6.007 0 0 0-5.882 6.239zm10.275 0a4.1 4.1 0 1 1-4.081-4.345 4.1 4.1 0 0 1 4.081 4.345zm6.981 6h2.065v-5.953c0-2.808 1.656-4.129 3.169-4.129a3.018 3.018 0 0 1 1.128.193v-2.137a4.276 4.276 0 0 0-.936-.1 3.57 3.57 0 0 0-3.361 2.449v-2.329h-2.065v12zm8.616-6a6.328 6.328 0 0 0 11.619 3.385l-1.632-1.128a4.25 4.25 0 0 1-7.9-1.849h9.842a5.856 5.856 0 0 0 .024-.624c-.024-3.841-2.569-6.025-5.713-6.025a6.083 6.083 0 0 0-6.24 6.241zm6.17-4.417a3.591 3.591 0 0 1 3.672 3.145h-7.609a3.924 3.924 0 0 1 3.937-3.145zm8.974 4.417a6.006 6.006 0 0 0 5.881 6.241 5.263 5.263 0 0 0 4.225-2.088v1.848h2.065v-18h-2.065v7.849a5.263 5.263 0 0 0-4.225-2.088 6.006 6.006 0 0 0-5.881 6.238zm10.274 0a4.1 4.1 0 1 1-4.08-4.345 4.1 4.1 0 0 1 4.08 4.345zm16.534-10.682a1.449 1.449 0 0 0-1.44-1.464 1.465 1.465 0 1 0 0 2.929 1.435 1.435 0 0 0 1.44-1.465zm-2.5 16.683h2.064v-12h-2.064v12zm7.176 0h2.064v-5.953c0-2.808 1.537-4.393 3.481-4.393 1.68 0 2.833 1.249 2.833 3.265v7.081h2.04V209.5c0-2.977-1.848-4.849-4.537-4.849a4.245 4.245 0 0 0-3.817 2.088v-1.848h-2.064v12zm28.489-.168v-1.848a4.568 4.568 0 0 1-1.465.24c-1.3 0-1.992-.5-1.992-2.04v-6.29h3.457v-1.9H201.7v-3.332h-2.065v3.336h-2.545v1.9h2.544v6.554a3.379 3.379 0 0 0 3.673 3.672 5.749 5.749 0 0 0 1.849-.292zm3.838.168h2.065v-5.953c0-2.808 1.536-4.393 3.48-4.393 1.681 0 2.833 1.249 2.833 3.265v7.081h2.04V209.5c0-2.977-1.848-4.849-4.537-4.849a4.243 4.243 0 0 0-3.816 2.088v-7.849h-2.065v18zm14.4-6a6.328 6.328 0 0 0 11.618 3.385l-1.632-1.128a4.25 4.25 0 0 1-7.9-1.849h9.842a5.856 5.856 0 0 0 .024-.624c-.024-3.841-2.568-6.025-5.713-6.025a6.082 6.082 0 0 0-6.235 6.24zm6.169-4.417a3.592 3.592 0 0 1 3.673 3.145h-7.61a3.925 3.925 0 0 1 3.941-3.146zm18.455 10.418h2.064v-17.044h-3.673l-1.68 2.041h3.289v15zm7.295 0h2.641l6.241-7.369a6.547 6.547 0 0 0 1.921-4.345 5.775 5.775 0 0 0-11.547.072 5.506 5.506 0 0 0 5.329 5.473 3.059 3.059 0 0 0 .672-.048zm1.369-11.666a3.661 3.661 0 1 1 3.648 3.673 3.621 3.621 0 0 1-3.644-3.674zm24.026 6.553a4.762 4.762 0 0 0-2.665-4.464 3.993 3.993 0 0 0 1.728-3.361c0-2.545-1.968-4.393-4.777-4.393a4.485 4.485 0 0 0-4.8 4.393 3.977 3.977 0 0 0 1.777 3.361 4.761 4.761 0 0 0-2.713 4.464c0 3.1 2.4 5.353 5.737 5.353 3.388-.001 5.717-2.257 5.717-5.354zm-8.47-7.776a2.537 2.537 0 0 1 2.76-2.5 2.491 2.491 0 0 1 2.737 2.5 2.547 2.547 0 0 1-2.737 2.52 2.6 2.6 0 0 1-2.76-2.52zm-.888 7.777a3.383 3.383 0 0 1 3.648-3.408 3.4 3.4 0 1 1 0 6.793 3.392 3.392 0 0 1-3.648-3.387zm15.12 5.113h2.064v-17.045h-3.673l-1.68 2.041h3.289v15zm25.417-2.976l-1.8-1.008a4.068 4.068 0 0 1-3.745 2.3 4.323 4.323 0 0 1 0-8.642 4.069 4.069 0 0 1 3.745 2.305l1.8-1.008a6.214 6.214 0 0 0-5.545-3.217 6.241 6.241 0 1 0 0 12.482 6.215 6.215 0 0 0 5.545-3.214zm2.926-3.025a6.005 6.005 0 0 0 5.881 6.241 5.266 5.266 0 0 0 4.225-2.088v1.848h2.064v-12h-2.064v1.848a5.266 5.266 0 0 0-4.225-2.088 6.006 6.006 0 0 0-5.881 6.237zm10.274 0a4.1 4.1 0 1 1-4.083-4.347 4.1 4.1 0 0 1 4.083 4.345zm13.487 5.833v-1.848a4.562 4.562 0 0 1-1.464.24c-1.3 0-1.993-.5-1.993-2.04v-6.29h3.457v-1.9h-3.457v-3.334h-2.064v3.336H330.5v1.9h2.545v6.554a3.378 3.378 0 0 0 3.672 3.672 5.744 5.744 0 0 0 1.853-.292zm2.734-5.833a6.006 6.006 0 0 0 5.882 6.241 5.266 5.266 0 0 0 4.225-2.088v1.848h2.064v-12h-2.064v1.848a5.266 5.266 0 0 0-4.225-2.088 6.007 6.007 0 0 0-5.886 6.237zm10.275 0a4.1 4.1 0 1 1-4.081-4.345 4.1 4.1 0 0 1 4.081 4.343zm6.981 6h2.065v-18h-2.065v18zm18.771-6a6.278 6.278 0 1 0-6.266 6.241 6.16 6.16 0 0 0 6.266-6.243zm-10.442 0a4.167 4.167 0 1 1 4.176 4.321 4.125 4.125 0 0 1-4.176-4.323zm25.777 5.305v-11.308H390.6v1.848a5.108 5.108 0 0 0-4.177-2.088 6.114 6.114 0 0 0 0 12.218 5.126 5.126 0 0 0 4.177-2.112v1.368a3.837 3.837 0 0 1-4.009 4.153 5.136 5.136 0 0 1-4.2-2.016l-1.44 1.44a7.125 7.125 0 0 0 5.665 2.448c3.41 0 6.05-1.945 6.05-5.953zm-10.01-5.449a4.059 4.059 0 1 1 4.057 4.2 4 4 0 0 1-4.057-4.202zm21.215.144a6.006 6.006 0 0 0 5.881 6.241 5.263 5.263 0 0 0 4.225-2.088v1.848h2.065v-12h-2.065v1.848a5.263 5.263 0 0 0-4.225-2.088 6.006 6.006 0 0 0-5.881 6.237zm10.274 0a4.1 4.1 0 1 1-4.08-4.345 4.1 4.1 0 0 1 4.08 4.343zm14.76 2.665c0-1.8-1.128-2.953-3.169-3.625l-1.3-.432c-1.416-.456-1.849-.912-1.849-1.68 0-.888.889-1.393 2.017-1.393a3.243 3.243 0 0 1 2.544 1.249l1.345-1.3a4.656 4.656 0 0 0-3.841-1.728c-2.377 0-4.057 1.32-4.057 3.265 0 1.68 1.032 2.856 2.977 3.48l1.176.384c1.56.5 2.136 1.081 2.136 1.921 0 1.032-.936 1.632-2.112 1.632a3.222 3.222 0 0 1-3.073-1.9l-1.68.912a4.768 4.768 0 0 0 4.7 2.784c2.433.005 4.186-1.223 4.186-3.571zm10.269-2.665a6.006 6.006 0 0 0 5.882 6.241 5.266 5.266 0 0 0 4.225-2.088v1.848h2.064v-12h-2.064v1.848a5.266 5.266 0 0 0-4.225-2.088 6.007 6.007 0 0 0-5.882 6.237zm10.275 0a4.1 4.1 0 1 1-4.081-4.345 4.1 4.1 0 0 1 4.081 4.343zm14.349 6h2.233v-7.657h6.069v-2.112h-6.073v-5.161h7.681v-2.113H463.8v17.043zm12.888 0h2.065v-5.953c0-2.808 1.656-4.129 3.168-4.129a3.018 3.018 0 0 1 1.128.193v-2.137a4.276 4.276 0 0 0-.936-.1 3.57 3.57 0 0 0-3.36 2.449v-2.329h-2.065v12zm8.616-6a6.328 6.328 0 0 0 11.619 3.385l-1.633-1.128a4.249 4.249 0 0 1-7.9-1.849h9.842a5.856 5.856 0 0 0 .024-.624c-.024-3.841-2.569-6.025-5.714-6.025a6.083 6.083 0 0 0-6.24 6.239zm6.169-4.417a3.591 3.591 0 0 1 3.673 3.145h-7.609a3.924 3.924 0 0 1 3.936-3.147zm9.911 10.418h2.065v-5.953c0-2.808 1.536-4.393 3.48-4.393 1.681 0 2.833 1.249 2.833 3.265v7.081h2.04v-7.39c0-2.977-1.848-4.849-4.537-4.849a4.243 4.243 0 0 0-3.816 2.088v-1.848h-2.065v12zm26.234-2.976l-1.8-1.008a4.069 4.069 0 0 1-3.745 2.3 4.323 4.323 0 0 1 0-8.642 4.07 4.07 0 0 1 3.745 2.305l1.8-1.008a6.214 6.214 0 0 0-5.545-3.217 6.241 6.241 0 1 0 0 12.482 6.215 6.215 0 0 0 5.545-3.214zm3.862 2.976h2.064v-5.953c0-2.808 1.536-4.393 3.481-4.393 1.68 0 2.832 1.249 2.832 3.265v7.081h2.045v-7.39c0-2.977-1.849-4.849-4.537-4.849a4.245 4.245 0 0 0-3.817 2.088v-7.849h-2.064v18zm22.7 0h2.233v-7.657h6.073v-2.112h-6.073v-5.161h7.689v-2.113h-9.914v17.043zm24.314-6a6.277 6.277 0 1 0-6.265 6.241 6.159 6.159 0 0 0 6.273-6.244zm-10.442 0a4.168 4.168 0 1 1 4.177 4.321 4.126 4.126 0 0 1-4.174-4.324zm14.592 6h2.064v-5.953c0-2.808 1.656-4.129 3.169-4.129a3.018 3.018 0 0 1 1.128.193v-2.137a4.276 4.276 0 0 0-.936-.1 3.571 3.571 0 0 0-3.361 2.449v-2.329h-2.064v12zm8.616-6a6.328 6.328 0 0 0 11.618 3.385l-1.632-1.128a4.25 4.25 0 0 1-7.9-1.849h9.842a5.856 5.856 0 0 0 .024-.624c-.024-3.841-2.568-6.025-5.713-6.025a6.082 6.082 0 0 0-6.236 6.238zm6.169-4.417a3.592 3.592 0 0 1 3.673 3.145h-7.61a3.925 3.925 0 0 1 3.94-3.148zm12.407-6.265a1.449 1.449 0 0 0-1.44-1.464 1.465 1.465 0 1 0 0 2.929 1.435 1.435 0 0 0 1.443-1.468zm-2.5 16.683h2.064v-12h-2.064v12zm18.362-.7v-11.305h-2.065v1.848a5.106 5.106 0 0 0-4.176-2.088 6.114 6.114 0 0 0 0 12.218 5.124 5.124 0 0 0 4.176-2.112v1.368a3.836 3.836 0 0 1-4.008 4.153 5.134 5.134 0 0 1-4.2-2.016l-1.441 1.44a7.128 7.128 0 0 0 5.666 2.448c3.414 0 6.052-1.945 6.052-5.953zm-10.01-5.449a4.059 4.059 0 1 1 4.057 4.2 4 4 0 0 1-4.05-4.199zm15.1 6.145h2.065v-5.953c0-2.808 1.536-4.393 3.48-4.393 1.681 0 2.833 1.249 2.833 3.265v7.081h2.04V209.5c0-2.977-1.848-4.849-4.536-4.849a4.244 4.244 0 0 0-3.817 2.088v-1.848h-2.065v12zm22.7 0h10.466v-2.112h-8.234v-14.93h-2.232v17.043zm12.72-6a6.328 6.328 0 0 0 11.618 3.385l-1.632-1.128a4.25 4.25 0 0 1-7.9-1.849h9.842a5.856 5.856 0 0 0 .024-.624c-.024-3.841-2.568-6.025-5.713-6.025a6.082 6.082 0 0 0-6.233 6.241zm6.169-4.417a3.592 3.592 0 0 1 3.673 3.145h-7.61a3.924 3.924 0 0 1 3.943-3.145zm21.1 9.722v-11.306h-2.064v1.848a5.109 5.109 0 0 0-4.177-2.088 6.114 6.114 0 0 0 0 12.218 5.128 5.128 0 0 0 4.177-2.112v1.368a3.837 3.837 0 0 1-4.009 4.153 5.134 5.134 0 0 1-4.2-2.016l-1.441 1.44a7.128 7.128 0 0 0 5.666 2.448c3.41 0 6.051-1.945 6.051-5.953zm-10.01-5.449a4.059 4.059 0 1 1 4.057 4.2 4 4 0 0 1-4.054-4.2zm17.592-10.538a1.449 1.449 0 0 0-1.44-1.464 1.465 1.465 0 1 0 0 2.929 1.435 1.435 0 0 0 1.443-1.465zm-2.5 16.683h2.065v-12h-2.065v12zm18.771-6a6.278 6.278 0 1 0-6.266 6.241 6.16 6.16 0 0 0 6.272-6.242zm-10.443 0a4.168 4.168 0 1 1 4.177 4.321 4.126 4.126 0 0 1-4.171-4.322zm14.592 6h2.064v-5.953c0-2.808 1.537-4.393 3.481-4.393 1.68 0 2.833 1.249 2.833 3.265v7.081h2.04V209.5c0-2.977-1.848-4.849-4.537-4.849a4.245 4.245 0 0 0-3.817 2.088v-1.848h-2.064v12zm-680.217 28.8h6.1c3.457 0 5.713-2.137 5.713-4.969a4.061 4.061 0 0 0-2.953-4.081 3.862 3.862 0 0 0 1.824-3.481c0-2.4-1.92-4.513-5.089-4.513H41.26v17.044zm2.233-9.722v-5.305h3.361a2.679 2.679 0 0 1 2.9 2.664 2.623 2.623 0 0 1-2.9 2.641h-3.361zm0 7.7v-5.785h3.985c2.256 0 3.409 1.248 3.409 2.905 0 1.68-1.152 2.88-3.433 2.88h-3.961zm25.346-3.984a6.277 6.277 0 1 0-6.265 6.241 6.16 6.16 0 0 0 6.265-6.236zm-10.442 0a4.168 4.168 0 1 1 4.177 4.32 4.125 4.125 0 0 1-4.174-4.315zm26.186 0a6.277 6.277 0 1 0-6.265 6.241 6.16 6.16 0 0 0 6.264-6.236zm-10.442 0a4.168 4.168 0 1 1 4.177 4.32 4.125 4.125 0 0 1-4.178-4.315zm20.881 5.833v-1.849a4.564 4.564 0 0 1-1.464.24c-1.3 0-1.993-.5-1.993-2.04v-6.289h3.457v-1.9h-3.457v-3.336H89.5v3.336h-2.544v1.9H89.5v6.553a3.379 3.379 0 0 0 3.673 3.673 5.745 5.745 0 0 0 1.848-.283zM98.188 240h12.122v-2.065H98.188V240zm24.6 2.352c0-1.8-1.128-2.953-3.168-3.625l-1.3-.432c-1.417-.456-1.849-.912-1.849-1.68 0-.888.888-1.392 2.017-1.392a3.242 3.242 0 0 1 2.544 1.248l1.344-1.3a4.652 4.652 0 0 0-3.84-1.729c-2.377 0-4.057 1.321-4.057 3.265 0 1.68 1.032 2.856 2.976 3.481l1.177.384c1.56.5 2.136 1.08 2.136 1.92 0 1.032-.936 1.632-2.112 1.632a3.221 3.221 0 0 1-3.073-1.9l-1.68.912a4.766 4.766 0 0 0 4.7 2.785c2.434.007 4.186-1.221 4.186-3.57zm6.647-13.346A1.45 1.45 0 0 0 128 227.54a1.491 1.491 0 0 0-1.488 1.465 1.475 1.475 0 0 0 1.488 1.464 1.434 1.434 0 0 0 1.436-1.464zm-2.5 16.683H129v-12h-2.06v12zm7.175 0h2.065v-5.953c0-2.809 1.536-4.393 3.481-4.393 1.68 0 2.832 1.248 2.832 3.264v7.082h2.041v-7.394c0-2.976-1.849-4.849-4.537-4.849a4.243 4.243 0 0 0-3.817 2.089v-1.849h-2.065v12zm26.235-2.977l-1.8-1.008a4.068 4.068 0 0 1-3.745 2.3 4.322 4.322 0 0 1 0-8.641 4.068 4.068 0 0 1 3.745 2.3l1.8-1.008a6.218 6.218 0 0 0-5.546-3.217 6.242 6.242 0 1 0 0 12.483 6.218 6.218 0 0 0 5.551-3.21zm2.925-3.024a6.327 6.327 0 0 0 11.618 3.384l-1.632-1.128a4.25 4.25 0 0 1-7.9-1.848h9.842a5.864 5.864 0 0 0 .024-.625c-.024-3.84-2.568-6.025-5.713-6.025a6.082 6.082 0 0 0-6.234 6.241zm6.169-4.417a3.591 3.591 0 0 1 3.673 3.144h-7.61a3.924 3.924 0 0 1 3.942-3.145zm16.966 15.435h2.065v-6.866a5.261 5.261 0 0 0 4.225 2.089 6.253 6.253 0 0 0 0-12.483 5.264 5.264 0 0 0-4.225 2.089v-1.849h-2.06v17.02zm10.059-11.018a4.089 4.089 0 1 1-4.081-4.345 4.1 4.1 0 0 1 4.086 4.344zm5.349 0a6.006 6.006 0 0 0 5.881 6.241 5.261 5.261 0 0 0 4.225-2.089v1.849h2.065v-12h-2.065v1.849a5.264 5.264 0 0 0-4.225-2.089 6.007 6.007 0 0 0-5.876 6.238zm10.274 0a4.1 4.1 0 1 1-4.081-4.345 4.1 4.1 0 0 1 4.086 4.344zm10.727 6h1.728l5.545-12h-2.3l-4.105 9.074-4.1-9.074h-2.3zm13.055-16.683a1.45 1.45 0 0 0-1.44-1.465 1.491 1.491 0 0 0-1.488 1.465 1.475 1.475 0 0 0 1.488 1.464 1.434 1.434 0 0 0 1.445-1.464zm-2.5 16.683h2.064v-12h-2.064v12zm7.176 0h2.064v-5.953c0-2.809 1.536-4.393 3.481-4.393 1.68 0 2.832 1.248 2.832 3.264v7.082h2.041v-7.394c0-2.976-1.848-4.849-4.537-4.849a4.244 4.244 0 0 0-3.817 2.089v-1.849h-2.064v12zm26.522-.7v-11.303h-2.065v1.849a5.107 5.107 0 0 0-4.177-2.089 6.115 6.115 0 0 0 0 12.219 5.126 5.126 0 0 0 4.177-2.113v1.368a3.836 3.836 0 0 1-4.002 4.153 5.134 5.134 0 0 1-4.2-2.016l-1.441 1.44a7.129 7.129 0 0 0 5.666 2.449c3.41 0 6.051-1.945 6.051-5.953zm-10.01-5.45a4.059 4.059 0 1 1 4.057 4.2 4 4 0 0 1-4.048-4.196zm24.647-10.537a1.45 1.45 0 0 0-1.44-1.465 1.491 1.491 0 0 0-1.488 1.465 1.475 1.475 0 0 0 1.488 1.464 1.434 1.434 0 0 0 1.449-1.46zm-2.5 16.683h2.064v-12h-2.064v12zm13.681-.168v-1.849a4.562 4.562 0 0 1-1.464.24c-1.3 0-1.993-.5-1.993-2.04v-6.289h3.472v-1.9h-3.457v-3.336h-2.064v3.336h-2.545v1.9h2.545v6.553a3.379 3.379 0 0 0 3.673 3.673 5.743 5.743 0 0 0 1.848-.284zm11.616-3.169c0-1.8-1.128-2.953-3.168-3.625l-1.3-.432c-1.416-.456-1.848-.912-1.848-1.68 0-.888.888-1.392 2.016-1.392a3.243 3.243 0 0 1 2.545 1.248l1.344-1.3a4.652 4.652 0 0 0-3.841-1.729c-2.376 0-4.056 1.321-4.056 3.265 0 1.68 1.032 2.856 2.976 3.481l1.176.384c1.561.5 2.137 1.08 2.137 1.92 0 1.032-.936 1.632-2.113 1.632a3.221 3.221 0 0 1-3.072-1.9l-1.681.912a4.768 4.768 0 0 0 4.7 2.785c2.446.012 4.198-1.216 4.198-3.565zm20.953 3.337h1.824l4.081-12h-2.185l-2.9 8.762-3-8.762H321.7l-3 8.762-2.9-8.762h-2.161l4.081 12h1.824l2.977-8.642zm8.349-6a6.006 6.006 0 0 0 5.881 6.241 5.261 5.261 0 0 0 4.225-2.089v1.849h2.064v-12h-2.064v1.849a5.264 5.264 0 0 0-4.225-2.089 6.006 6.006 0 0 0-5.868 6.242zm10.274 0a4.1 4.1 0 1 1-4.081-4.345 4.1 4.1 0 0 1 4.094 4.348zm10.175 11.018l7.873-17.02h-2.3l-4.105 9.1-4.129-9.1h-2.281l5.258 11.379-2.617 5.641h2.305zm23.76-5.185v-1.849a4.562 4.562 0 0 1-1.464.24c-1.3 0-1.993-.5-1.993-2.04v-6.289h3.457v-1.9h-3.457v-3.336H372.5v3.336h-2.545v1.9h2.545v6.553a3.379 3.379 0 0 0 3.673 3.673 5.743 5.743 0 0 0 1.852-.285zm15.265-5.833a6.277 6.277 0 1 0-6.265 6.241 6.159 6.159 0 0 0 6.278-6.238zm-10.442 0a4.168 4.168 0 1 1 4.177 4.32 4.126 4.126 0 0 1-4.164-4.317zm21.647 6h2.065v-5.953c0-2.809 1.536-4.393 3.481-4.393 1.68 0 2.832 1.248 2.832 3.264v7.082h2.041v-7.394c0-2.976-1.849-4.849-4.537-4.849a4.243 4.243 0 0 0-3.817 2.089v-1.849H404.5v12zm15.168-4.633c0 2.976 1.777 4.873 4.417 4.873a4.129 4.129 0 0 0 3.7-2.089v1.849h2.064v-12h-2.064v5.954c0 2.76-1.464 4.392-3.337 4.392-1.656 0-2.712-1.272-2.712-3.288v-7.058h-2.065v7.37zm15.264 4.633h2.064v-5.953c0-2.713 1.369-4.393 3.313-4.393 1.561 0 2.353 1.344 2.353 3.288v7.058h2.064v-5.953c0-2.713 1.344-4.393 3.289-4.393 1.56 0 2.376 1.344 2.376 3.288v7.058h2.065v-7.37c0-2.928-1.585-4.873-4.2-4.873a4.155 4.155 0 0 0-3.937 2.569 3.773 3.773 0 0 0-3.7-2.569 4.035 4.035 0 0 0-3.625 2.089v-1.849h-2.064v12zm21.5-6a6.327 6.327 0 0 0 11.618 3.384l-1.632-1.128a4.25 4.25 0 0 1-7.9-1.848h9.842a5.864 5.864 0 0 0 .024-.625c-.024-3.84-2.568-6.025-5.713-6.025a6.082 6.082 0 0 0-6.222 6.245zm6.169-4.417a3.591 3.591 0 0 1 3.673 3.144h-7.61a3.924 3.924 0 0 1 3.954-3.141zm9.911 10.418h2.064v-5.953c0-2.809 1.657-4.129 3.169-4.129a3.017 3.017 0 0 1 1.128.192v-2.137a4.276 4.276 0 0 0-.936-.1 3.572 3.572 0 0 0-3.361 2.449v-2.329h-2.064v12zm21.146-6a6.277 6.277 0 1 0-6.265 6.241 6.159 6.159 0 0 0 6.282-6.239zm-10.442 0a4.168 4.168 0 1 1 4.177 4.32 4.126 4.126 0 0 1-4.16-4.318zm14.424 1.368c0 2.976 1.776 4.873 4.417 4.873a4.128 4.128 0 0 0 3.7-2.089v1.849h2.065v-12h-2.065v5.954c0 2.76-1.464 4.392-3.336 4.392-1.657 0-2.713-1.272-2.713-3.288v-7.058h-2.064v7.37zm23.041 1.3c0-1.8-1.128-2.953-3.168-3.625l-1.3-.432c-1.416-.456-1.848-.912-1.848-1.68 0-.888.888-1.392 2.016-1.392a3.244 3.244 0 0 1 2.545 1.248l1.344-1.3a4.652 4.652 0 0 0-3.841-1.729c-2.376 0-4.057 1.321-4.057 3.265 0 1.68 1.033 2.856 2.977 3.481l1.176.384c1.561.5 2.137 1.08 2.137 1.92 0 1.032-.936 1.632-2.113 1.632a3.221 3.221 0 0 1-3.072-1.9l-1.681.912a4.767 4.767 0 0 0 4.705 2.785c2.445.006 4.197-1.222 4.197-3.571zm11.206 3.337h2.064v-5.953c0-2.809 1.657-4.129 3.169-4.129a3.017 3.017 0 0 1 1.128.192v-2.137a4.276 4.276 0 0 0-.936-.1 3.573 3.573 0 0 0-3.361 2.449v-2.329h-2.064v12zm8.616-6a6.327 6.327 0 0 0 11.618 3.384l-1.632-1.128a4.25 4.25 0 0 1-7.9-1.848h9.842a5.631 5.631 0 0 0 .025-.625c-.025-3.84-2.569-6.025-5.714-6.025a6.083 6.083 0 0 0-6.224 6.239zm6.169-4.417a3.591 3.591 0 0 1 3.673 3.144h-7.61a3.925 3.925 0 0 1 3.954-3.147zm9.911 10.418h2.064v-5.953c0-2.809 1.537-4.393 3.481-4.393 1.681 0 2.833 1.248 2.833 3.264v7.082H567v-7.394c0-2.976-1.848-4.849-4.537-4.849a4.245 4.245 0 0 0-3.817 2.089v-1.849h-2.064v12zm14.4-6a6.006 6.006 0 0 0 5.881 6.241 5.262 5.262 0 0 0 4.225-2.089v1.849h2.064v-18h-2.064v7.85a5.265 5.265 0 0 0-4.225-2.089 6.006 6.006 0 0 0-5.864 6.234zm10.274 0a4.1 4.1 0 1 1-4.081-4.345 4.1 4.1 0 0 1 4.098 4.341zm9.478-10.682a1.45 1.45 0 0 0-1.44-1.465 1.492 1.492 0 0 0-1.489 1.465 1.476 1.476 0 0 0 1.489 1.464 1.434 1.434 0 0 0 1.457-1.468zm-2.5 16.683h2.083v-12h-2.064v12zm13.681-.168v-1.849a4.564 4.564 0 0 1-1.465.24c-1.3 0-1.992-.5-1.992-2.04v-6.289h3.457v-1.9h-3.457v-3.336H596.4v3.336h-2.545v1.9h2.545v6.553a3.379 3.379 0 0 0 3.672 3.673 5.749 5.749 0 0 0 1.847-.292zm6.335-16.515a1.45 1.45 0 0 0-1.44-1.465 1.491 1.491 0 0 0-1.489 1.465 1.475 1.475 0 0 0 1.489 1.464 1.434 1.434 0 0 0 1.461-1.468zm-2.5 16.683h2.065v-12h-2.065v12zm18.771-6a6.278 6.278 0 1 0-6.266 6.241 6.16 6.16 0 0 0 6.29-6.246zm-10.443 0a4.168 4.168 0 1 1 4.177 4.32 4.126 4.126 0 0 1-4.153-4.325zm14.592 6h2.064v-5.953c0-2.809 1.537-4.393 3.481-4.393 1.68 0 2.833 1.248 2.833 3.264v7.082h2.04v-7.394c0-2.976-1.848-4.849-4.537-4.849a4.244 4.244 0 0 0-3.817 2.089v-1.849h-2.064v12zm23.113-3.337c0-1.8-1.128-2.953-3.168-3.625l-1.3-.432c-1.416-.456-1.848-.912-1.848-1.68 0-.888.888-1.392 2.016-1.392a3.244 3.244 0 0 1 2.545 1.248l1.344-1.3a4.652 4.652 0 0 0-3.841-1.729c-2.376 0-4.057 1.321-4.057 3.265 0 1.68 1.033 2.856 2.977 3.481l1.176.384c1.561.5 2.137 1.08 2.137 1.92 0 1.032-.936 1.632-2.113 1.632a3.221 3.221 0 0 1-3.072-1.9l-1.681.912a4.767 4.767 0 0 0 4.705 2.785c2.452.004 4.204-1.224 4.204-3.573zm7.007 1.728a1.777 1.777 0 1 0-1.776 1.8 1.808 1.808 0 0 0 1.803-1.804zM44.717 274.487H46.9v-14.931h5.305v-2.112H39.412v2.112h5.305v14.931zm20.546-6a6.277 6.277 0 1 0-6.263 6.24 6.159 6.159 0 0 0 6.263-6.241zm-10.442 0a4.168 4.168 0 1 1 4.179 4.32 4.125 4.125 0 0 1-4.18-4.321zm13.655 0a6.006 6.006 0 0 0 5.881 6.241 5.264 5.264 0 0 0 4.225-2.088v1.848h2.064v-18h-2.064v7.849a5.264 5.264 0 0 0-4.225-2.088 6.006 6.006 0 0 0-5.881 6.237zm10.274 0a4.1 4.1 0 1 1-4.081-4.345 4.1 4.1 0 0 1 4.081 4.344zm6.046 0a6.006 6.006 0 0 0 5.881 6.241 5.264 5.264 0 0 0 4.225-2.088v1.848h2.064v-12H94.9v1.848a5.264 5.264 0 0 0-4.225-2.088 6.006 6.006 0 0 0-5.875 6.238zm10.274 0a4.1 4.1 0 1 1-4.081-4.345 4.1 4.1 0 0 1 4.081 4.344zm10.174 11.013l7.874-17.019h-2.3l-4.105 9.1-4.129-9.1H100.3l5.257 11.378-2.617 5.641h2.3zm14.208-19.468a2.121 2.121 0 0 0 .336-1.08 1.789 1.789 0 1 0-3.577 0 1.86 1.86 0 0 0 .984 1.608l-1.608 3.44h1.392zm11.209 11.114c0-1.8-1.128-2.952-3.169-3.624l-1.3-.433c-1.416-.456-1.848-.912-1.848-1.68 0-.888.888-1.392 2.016-1.392a3.244 3.244 0 0 1 2.545 1.248l1.344-1.3a4.654 4.654 0 0 0-3.841-1.728c-2.376 0-4.057 1.32-4.057 3.264 0 1.681 1.033 2.857 2.977 3.481l1.176.384c1.561.5 2.137 1.08 2.137 1.92 0 1.032-.937 1.633-2.113 1.633a3.221 3.221 0 0 1-3.072-1.9l-1.681.912a4.767 4.767 0 0 0 4.7 2.785c2.434.011 4.186-1.216 4.186-3.566zM141 265.965a8.857 8.857 0 0 0 16.347 4.681l-1.872-1.128a6.7 6.7 0 1 1 0-7.1l1.872-1.129A8.858 8.858 0 0 0 141 265.965zm20.184 8.522h2.064v-5.953c0-2.809 1.536-4.393 3.481-4.393 1.68 0 2.832 1.248 2.832 3.265v7.081h2.041v-7.394c0-2.976-1.848-4.848-4.537-4.848a4.245 4.245 0 0 0-3.817 2.088v-7.849h-2.064v18zm15.167-4.633c0 2.977 1.777 4.873 4.417 4.873a4.129 4.129 0 0 0 3.7-2.088v1.848h2.065v-12h-2.065v5.953c0 2.76-1.464 4.393-3.337 4.393-1.656 0-2.712-1.273-2.712-3.289v-7.057h-2.065v7.369zm15.264 4.633h2.065v-6l6.5 6h2.785l-7.226-6.7 5.9-5.305h-2.736l-5.233 4.681v-10.679h-2.065v18zm14.136 0h2.064v-6l6.506 6h2.784l-7.225-6.7 5.905-5.305h-2.736l-5.234 4.681v-10.679h-2.064v18zm12.432-6a6.006 6.006 0 0 0 5.881 6.241 5.264 5.264 0 0 0 4.225-2.088v1.848h2.064v-12h-2.064v1.848a5.264 5.264 0 0 0-4.225-2.088 6.005 6.005 0 0 0-5.878 6.238zm10.274 0a4.1 4.1 0 1 1-4.081-4.345 4.1 4.1 0 0 1 4.084 4.344zm14.349 6h6.1c3.456 0 5.713-2.137 5.713-4.969a4.062 4.062 0 0 0-2.953-4.081 3.863 3.863 0 0 0 1.825-3.48c0-2.4-1.921-4.513-5.09-4.513h-5.593v17.043zm2.233-9.722v-5.305h3.36a2.679 2.679 0 0 1 2.905 2.665 2.623 2.623 0 0 1-2.905 2.64h-3.36zm0 7.706v-5.786h3.985c2.256 0 3.408 1.249 3.408 2.9 0 1.68-1.152 2.881-3.432 2.881h-3.961zm25.346-3.985a6.278 6.278 0 1 0-6.266 6.241 6.159 6.159 0 0 0 6.269-6.241zm-10.443 0a4.168 4.168 0 1 1 4.177 4.321 4.126 4.126 0 0 1-4.174-4.321zm26.186 0a6.277 6.277 0 1 0-6.265 6.241 6.159 6.159 0 0 0 6.268-6.241zm-10.442 0a4.168 4.168 0 1 1 4.177 4.321 4.125 4.125 0 0 1-4.174-4.321zm20.881 5.833v-1.848a4.562 4.562 0 0 1-1.464.24c-1.3 0-1.993-.5-1.993-2.041v-6.289h3.457v-1.9h-3.457v-3.337h-2.064v3.337H288.5v1.9h2.545v6.553a3.378 3.378 0 0 0 3.673 3.673 5.743 5.743 0 0 0 1.852-.288zm13.394-16.519a1.45 1.45 0 0 0-1.44-1.465 1.492 1.492 0 0 0-1.489 1.465 1.476 1.476 0 0 0 1.489 1.464 1.434 1.434 0 0 0 1.44-1.464zm-2.5 16.683h2.065v-12h-2.065v12zm14.954-3.337c0-1.8-1.128-2.952-3.169-3.624l-1.3-.433c-1.416-.456-1.848-.912-1.848-1.68 0-.888.888-1.392 2.016-1.392a3.246 3.246 0 0 1 2.545 1.248l1.344-1.3a4.656 4.656 0 0 0-3.841-1.728c-2.376 0-4.057 1.32-4.057 3.264 0 1.681 1.032 2.857 2.977 3.481l1.176.384c1.56.5 2.137 1.08 2.137 1.92 0 1.032-.937 1.633-2.113 1.633a3.224 3.224 0 0 1-3.073-1.9l-1.68.912a4.767 4.767 0 0 0 4.7 2.785c2.437.011 4.189-1.216 4.189-3.566zm10.27-2.664a6.006 6.006 0 0 0 5.881 6.241 5.264 5.264 0 0 0 4.225-2.088v1.848h2.064v-12h-2.064v1.848a5.264 5.264 0 0 0-4.225-2.088 6.005 6.005 0 0 0-5.878 6.243zm10.274 0a4.1 4.1 0 1 1-4.081-4.345 4.1 4.1 0 0 1 4.084 4.349zm14.037 6h2.065v-5.953c0-2.809 1.536-4.393 3.48-4.393 1.681 0 2.833 1.248 2.833 3.265v7.081h2.04v-7.394c0-2.976-1.848-4.848-4.536-4.848a4.244 4.244 0 0 0-3.817 2.088v-1.848H357v12zm26.93-6a6.277 6.277 0 1 0-6.265 6.241 6.159 6.159 0 0 0 6.268-6.237zm-10.442 0a4.168 4.168 0 1 1 4.177 4.321 4.126 4.126 0 0 1-4.174-4.317zm13.655 0a6.007 6.007 0 0 0 5.882 6.241 5.266 5.266 0 0 0 4.225-2.088v1.848h2.064v-18h-2.064v7.849a5.266 5.266 0 0 0-4.225-2.088 6.006 6.006 0 0 0-5.879 6.242zm10.275 0a4.1 4.1 0 1 1-4.081-4.345 4.1 4.1 0 0 1 4.084 4.349zm20.135 5.833v-1.848a4.568 4.568 0 0 1-1.465.24c-1.3 0-1.992-.5-1.992-2.041v-6.289h3.457v-1.9H414.1v-3.337h-2.07v3.337h-2.544v1.9h2.544v6.553a3.379 3.379 0 0 0 3.673 3.673 5.754 5.754 0 0 0 1.849-.284zm15.265-5.833a6.278 6.278 0 1 0-6.265 6.241 6.159 6.159 0 0 0 6.268-6.237zm-10.442 0a4.167 4.167 0 1 1 4.177 4.321 4.125 4.125 0 0 1-4.174-4.317zm27.744 5.833v-1.848a4.562 4.562 0 0 1-1.464.24c-1.3 0-1.992-.5-1.992-2.041v-6.289h3.456v-1.9h-3.456v-3.337h-2.06v3.337h-2.544v1.9h2.544v6.553a3.378 3.378 0 0 0 3.673 3.673 5.743 5.743 0 0 0 1.846-.284zm3.839.168h2.064v-5.953c0-2.809 1.537-4.393 3.481-4.393 1.68 0 2.833 1.248 2.833 3.265v7.081h2.04v-7.394c0-2.976-1.848-4.848-4.537-4.848a4.245 4.245 0 0 0-3.817 2.088v-7.849h-2.064v18zm14.4-6a6.328 6.328 0 0 0 11.619 3.384l-1.633-1.128a4.249 4.249 0 0 1-7.9-1.848h9.842a5.856 5.856 0 0 0 .024-.624c-.024-3.841-2.569-6.025-5.713-6.025a6.082 6.082 0 0 0-6.237 6.244zm6.17-4.417a3.59 3.59 0 0 1 3.672 3.145h-7.607a3.923 3.923 0 0 1 3.937-3.142zm17.278 10.418h6.1c3.457 0 5.714-2.137 5.714-4.969a4.062 4.062 0 0 0-2.953-4.081 3.862 3.862 0 0 0 1.824-3.48c0-2.4-1.92-4.513-5.089-4.513h-5.593v17.043zm2.233-9.722v-5.302h3.36a2.679 2.679 0 0 1 2.9 2.665 2.623 2.623 0 0 1-2.9 2.64h-3.36zm0 7.706v-5.786h3.984c2.257 0 3.409 1.249 3.409 2.9 0 1.68-1.152 2.881-3.433 2.881h-3.96zm13.727 2.016h2.065v-5.953c0-2.809 1.656-4.129 3.168-4.129a3.025 3.025 0 0 1 1.129.192v-2.136a4.285 4.285 0 0 0-.937-.1 3.57 3.57 0 0 0-3.36 2.448v-2.328h-2.065v12zm12.483-16.684a1.45 1.45 0 0 0-1.441-1.465 1.492 1.492 0 0 0-1.488 1.465 1.475 1.475 0 0 0 1.488 1.464 1.435 1.435 0 0 0 1.441-1.464zm-2.5 16.683h2.065v-12h-2.065v12zm13.681-.168v-1.848a4.562 4.562 0 0 1-1.464.24c-1.3 0-1.992-.5-1.992-2.041v-6.289h3.456v-1.9h-3.456v-3.337h-2.065v3.337h-2.544v1.9h2.544v6.553a3.379 3.379 0 0 0 3.673 3.673 5.743 5.743 0 0 0 1.851-.284zm6.335-16.515a1.45 1.45 0 0 0-1.44-1.465 1.492 1.492 0 0 0-1.488 1.465 1.475 1.475 0 0 0 1.488 1.464 1.434 1.434 0 0 0 1.443-1.464zm-2.5 16.683h2.064v-12h-2.064v12zm14.953-3.337c0-1.8-1.128-2.952-3.168-3.624l-1.3-.433c-1.416-.456-1.848-.912-1.848-1.68 0-.888.888-1.392 2.016-1.392a3.243 3.243 0 0 1 2.545 1.248l1.344-1.3a4.654 4.654 0 0 0-3.841-1.728c-2.376 0-4.056 1.32-4.056 3.264 0 1.681 1.032 2.857 2.976 3.481l1.177.384c1.56.5 2.136 1.08 2.136 1.92 0 1.032-.936 1.633-2.112 1.633a3.222 3.222 0 0 1-3.073-1.9l-1.681.912a4.768 4.768 0 0 0 4.7 2.785c2.44.011 4.192-1.216 4.192-3.566zm4.151 3.337h2.064v-5.953c0-2.809 1.536-4.393 3.481-4.393 1.68 0 2.832 1.248 2.832 3.265v7.081h2.041v-7.394c0-2.976-1.849-4.848-4.537-4.848a4.244 4.244 0 0 0-3.817 2.088v-7.849h-2.064v18zm30.169-3.337c0-1.8-1.129-2.952-3.169-3.624l-1.3-.433c-1.417-.456-1.849-.912-1.849-1.68 0-.888.888-1.392 2.017-1.392a3.242 3.242 0 0 1 2.544 1.248l1.345-1.3a4.657 4.657 0 0 0-3.841-1.728c-2.377 0-4.057 1.32-4.057 3.264 0 1.681 1.032 2.857 2.976 3.481l1.177.384c1.56.5 2.136 1.08 2.136 1.92 0 1.032-.936 1.633-2.112 1.633a3.222 3.222 0 0 1-3.073-1.9l-1.68.912a4.766 4.766 0 0 0 4.705 2.785c2.435.011 4.188-1.216 4.188-3.566zm15.744-2.664a6.277 6.277 0 1 0-6.265 6.241 6.159 6.159 0 0 0 6.272-6.237zm-10.442 0a4.168 4.168 0 1 1 4.177 4.321 4.125 4.125 0 0 1-4.17-4.317zm14.591 6h2.072v-18h-2.065v18zm6.24-6a6.006 6.006 0 0 0 5.881 6.241 5.263 5.263 0 0 0 4.225-2.088v1.848h2.065v-18h-2.065v7.849a5.263 5.263 0 0 0-4.225-2.088 6.006 6.006 0 0 0-5.874 6.242zm10.274 0a4.1 4.1 0 1 1-4.081-4.345 4.1 4.1 0 0 1 4.088 4.349zm9.479-10.682a1.451 1.451 0 0 0-1.441-1.465 1.492 1.492 0 0 0-1.48 1.465 1.475 1.475 0 0 0 1.488 1.464 1.435 1.435 0 0 0 1.44-1.464zm-2.5 16.683H630v-12h-2.064v12zm6.24-6a6.327 6.327 0 0 0 11.618 3.384l-1.632-1.128a4.25 4.25 0 0 1-7.9-1.848h9.853a5.856 5.856 0 0 0 .024-.624c-.024-3.841-2.568-6.025-5.713-6.025a6.081 6.081 0 0 0-6.24 6.244zm6.169-4.417a3.591 3.591 0 0 1 3.673 3.145H636.4a3.924 3.924 0 0 1 3.94-3.142zm9.911 10.418h2.064v-5.953c0-2.809 1.657-4.129 3.169-4.129a3.017 3.017 0 0 1 1.128.192v-2.136a4.276 4.276 0 0 0-.936-.1 3.571 3.571 0 0 0-3.361 2.448v-2.328h-2.064v12zm17.559-3.334c0-1.8-1.129-2.952-3.169-3.624l-1.3-.433c-1.417-.456-1.849-.912-1.849-1.68 0-.888.888-1.392 2.017-1.392a3.242 3.242 0 0 1 2.544 1.248l1.345-1.3a4.657 4.657 0 0 0-3.841-1.728c-2.377 0-4.057 1.32-4.057 3.264 0 1.681 1.032 2.857 2.976 3.481l1.177.384c1.56.5 2.136 1.08 2.136 1.92 0 1.032-.936 1.633-2.112 1.633a3.222 3.222 0 0 1-3.073-1.9l-1.68.912a4.766 4.766 0 0 0 4.705 2.785c2.425.007 4.181-1.22 4.181-3.57zm7.222-11.114a2.121 2.121 0 0 0 .336-1.08 1.788 1.788 0 1 0-3.576 0 1.86 1.86 0 0 0 .984 1.608L671.155 264h1.392zM40.78 298.653c0 2.977 1.776 4.873 4.417 4.873a4.13 4.13 0 0 0 3.7-2.088v1.848h2.064v-12h-2.067v5.953c0 2.761-1.464 4.393-3.337 4.393-1.656 0-2.713-1.272-2.713-3.289v-7.057H40.78v7.369zm15.264 4.633h2.064v-5.953c0-2.809 1.536-4.393 3.481-4.393 1.68 0 2.833 1.248 2.833 3.265v7.081h2.04v-7.393c0-2.977-1.848-4.849-4.537-4.849a4.245 4.245 0 0 0-3.817 2.088v-1.848h-2.064v12zM73.876 286.6a1.45 1.45 0 0 0-1.44-1.464 1.491 1.491 0 0 0-1.488 1.464 1.475 1.475 0 0 0 1.488 1.464 1.435 1.435 0 0 0 1.44-1.464zm-2.5 16.683h2.064v-12h-2.06v12zm8.184 0h2.064V293.18h3.481v-1.9h-3.477v-2.209c0-1.512.672-2.04 1.993-2.04a4.835 4.835 0 0 1 1.488.24v-1.824a5.457 5.457 0 0 0-1.872-.312 3.427 3.427 0 0 0-3.673 3.72v2.425h-2.545v1.9h2.545v10.106zm20.282-6a6.277 6.277 0 1 0-6.265 6.241 6.159 6.159 0 0 0 6.269-6.239zm-10.442 0a4.168 4.168 0 1 1 4.177 4.321 4.126 4.126 0 0 1-4.177-4.319zm14.591 6h2.065v-5.953c0-2.809 1.656-4.129 3.169-4.129a3.017 3.017 0 0 1 1.128.192v-2.133a4.276 4.276 0 0 0-.936-.1 3.57 3.57 0 0 0-3.361 2.448v-2.328H104v12zm9.984 0h2.065v-5.953c0-2.712 1.368-4.393 3.313-4.393 1.56 0 2.352 1.344 2.352 3.289v7.057h2.064v-5.953c0-2.712 1.345-4.393 3.289-4.393 1.561 0 2.377 1.344 2.377 3.289v7.057h2.065v-7.369c0-2.929-1.584-4.873-4.2-4.873a4.155 4.155 0 0 0-3.937 2.568 3.772 3.772 0 0 0-3.7-2.568 4.034 4.034 0 0 0-3.625 2.088v-1.848h-2.065v12zm30.225-3.333c0-1.8-1.128-2.953-3.169-3.625l-1.3-.432c-1.416-.456-1.848-.912-1.848-1.681 0-.888.888-1.392 2.016-1.392a3.246 3.246 0 0 1 2.545 1.248l1.344-1.3a4.656 4.656 0 0 0-3.841-1.728c-2.376 0-4.057 1.32-4.057 3.264 0 1.681 1.032 2.857 2.977 3.481l1.176.384c1.56.5 2.137 1.08 2.137 1.921 0 1.032-.937 1.632-2.113 1.632a3.221 3.221 0 0 1-3.073-1.9l-1.68.913a4.768 4.768 0 0 0 4.705 2.784c2.426.007 4.181-1.219 4.181-3.569zm10.27-2.665a6.005 6.005 0 0 0 5.881 6.241 5.264 5.264 0 0 0 4.225-2.088v1.848h2.064v-18h-2.064v7.849a5.264 5.264 0 0 0-4.225-2.088 6.005 6.005 0 0 0-5.884 6.238zm10.274 0a4.1 4.1 0 1 1-4.081-4.345 4.1 4.1 0 0 1 4.078 4.345zm6.813 1.368c0 2.977 1.777 4.873 4.417 4.873a4.129 4.129 0 0 0 3.7-2.088v1.848h2.065v-12h-2.065v5.953c0 2.761-1.464 4.393-3.336 4.393-1.657 0-2.713-1.272-2.713-3.289v-7.057h-2.065v7.369zm15.264 4.633h2.065v-5.953c0-2.809 1.656-4.129 3.169-4.129a3.017 3.017 0 0 1 1.128.192v-2.136a4.276 4.276 0 0 0-.936-.1 3.57 3.57 0 0 0-3.361 2.448v-2.328h-2.065v12zM199.3 286.6a1.449 1.449 0 0 0-1.44-1.464 1.491 1.491 0 0 0-1.489 1.464 1.475 1.475 0 0 0 1.489 1.464 1.434 1.434 0 0 0 1.44-1.464zm-2.5 16.683h2.065v-12H196.8v12zm7.176 0h2.065v-5.953c0-2.809 1.536-4.393 3.48-4.393 1.681 0 2.833 1.248 2.833 3.265v7.081h2.04v-7.393c0-2.977-1.848-4.849-4.537-4.849a4.243 4.243 0 0 0-3.816 2.088v-1.848h-2.065v12zm26.522-.7v-11.299h-2.064v1.848a5.108 5.108 0 0 0-4.177-2.088 6.114 6.114 0 0 0 0 12.218 5.126 5.126 0 0 0 4.177-2.112v1.368a3.837 3.837 0 0 1-4.009 4.153 5.134 5.134 0 0 1-4.2-2.017l-1.44 1.441a7.125 7.125 0 0 0 5.665 2.448c3.41 0 6.05-1.943 6.05-5.953zm-10.01-5.449a4.059 4.059 0 1 1 4.057 4.2 4 4 0 0 1-4.055-4.193zm28.249 5.977v-1.841a4.562 4.562 0 0 1-1.464.24c-1.3 0-1.993-.5-1.993-2.041v-6.289h3.457v-1.9h-3.457v-3.337h-2.064v3.337h-2.545v1.9h2.545v6.553a3.378 3.378 0 0 0 3.672 3.673 5.744 5.744 0 0 0 1.851-.288zm3.838.168h2.065v-5.953c0-2.809 1.536-4.393 3.481-4.393 1.68 0 2.832 1.248 2.832 3.265v7.081H263v-7.393c0-2.977-1.849-4.849-4.537-4.849a4.244 4.244 0 0 0-3.817 2.088v-7.849h-2.065v18zm14.4-6a6.328 6.328 0 0 0 11.625 3.391l-1.632-1.129a4.25 4.25 0 0 1-7.9-1.848h9.842a5.856 5.856 0 0 0 .024-.624c-.024-3.841-2.568-6.025-5.713-6.025a6.081 6.081 0 0 0-6.244 6.241zm6.169-4.417a3.591 3.591 0 0 1 3.673 3.145h-7.61a3.924 3.924 0 0 1 3.939-3.139zm30 10.418h1.992l4.657-17.043h-2.328l-3.577 13.3-4.921-13.586-4.9 13.586-3.577-13.3h-2.329l4.657 17.043h1.993L299 291.716zm8.684-6a6.328 6.328 0 0 0 11.619 3.385l-1.632-1.129a4.25 4.25 0 0 1-7.9-1.848h9.842a5.856 5.856 0 0 0 .024-.624c-.024-3.841-2.569-6.025-5.713-6.025a6.082 6.082 0 0 0-6.236 6.246zm6.17-4.417a3.59 3.59 0 0 1 3.672 3.145h-7.609a3.923 3.923 0 0 1 3.939-3.14zm17.688 7.082c0-1.8-1.128-2.953-3.169-3.625l-1.3-.432c-1.416-.456-1.848-.912-1.848-1.681 0-.888.888-1.392 2.016-1.392a3.244 3.244 0 0 1 2.545 1.248l1.344-1.3a4.654 4.654 0 0 0-3.841-1.728c-2.376 0-4.057 1.32-4.057 3.264 0 1.681 1.033 2.857 2.977 3.481l1.176.384c1.561.5 2.137 1.08 2.137 1.921 0 1.032-.937 1.632-2.113 1.632a3.22 3.22 0 0 1-3.072-1.9l-1.681.913a4.768 4.768 0 0 0 4.7 2.784c2.438.012 4.19-1.214 4.19-3.564zm10.512 3.168v-1.843a4.568 4.568 0 0 1-1.465.24c-1.3 0-1.992-.5-1.992-2.041v-6.289h3.459v-1.9h-3.457v-3.337h-2.064v3.337h-2.545v1.9h2.545v6.553a3.378 3.378 0 0 0 3.672 3.673 5.749 5.749 0 0 0 1.849-.288zm2.734-5.833a6.328 6.328 0 0 0 11.619 3.385l-1.633-1.129a4.249 4.249 0 0 1-7.9-1.848h9.842a5.856 5.856 0 0 0 .024-.624c-.024-3.841-2.569-6.025-5.713-6.025a6.082 6.082 0 0 0-6.235 6.246zm6.17-4.417a3.59 3.59 0 0 1 3.672 3.145h-7.609a3.923 3.923 0 0 1 3.941-3.14zm9.91 10.418h2.065v-5.953c0-2.809 1.656-4.129 3.168-4.129a3.019 3.019 0 0 1 1.129.192v-2.131a4.279 4.279 0 0 0-.937-.1 3.57 3.57 0 0 0-3.36 2.448v-2.328h-2.065v12zm9.984 0h2.065v-5.953c0-2.809 1.536-4.393 3.48-4.393 1.681 0 2.833 1.248 2.833 3.265v7.081h2.04v-7.393c0-2.977-1.848-4.849-4.536-4.849a4.244 4.244 0 0 0-3.817 2.088v-1.848H375v12zm22.7 0h4.9c5.233 0 9.074-3.649 9.074-8.521s-3.841-8.522-9.074-8.522h-4.9v17.043zm2.232-2.088v-12.862h2.672c4.105 0 6.817 2.737 6.817 6.434s-2.712 6.433-6.817 6.433h-2.665zm15.023-3.913a6.328 6.328 0 0 0 11.619 3.385l-1.633-1.129a4.249 4.249 0 0 1-7.9-1.848h9.842a5.856 5.856 0 0 0 .024-.624c-.024-3.841-2.569-6.025-5.713-6.025a6.082 6.082 0 0 0-6.231 6.246zm6.17-4.417a3.59 3.59 0 0 1 3.672 3.145h-7.609a3.923 3.923 0 0 1 3.945-3.14zm17.688 7.082c0-1.8-1.128-2.953-3.169-3.625l-1.3-.432c-1.416-.456-1.848-.912-1.848-1.681 0-.888.888-1.392 2.016-1.392a3.244 3.244 0 0 1 2.545 1.248l1.344-1.3a4.656 4.656 0 0 0-3.841-1.728c-2.376 0-4.057 1.32-4.057 3.264 0 1.681 1.033 2.857 2.977 3.481l1.176.384c1.561.5 2.137 1.08 2.137 1.921 0 1.032-.937 1.632-2.113 1.632a3.22 3.22 0 0 1-3.072-1.9l-1.681.913a4.768 4.768 0 0 0 4.7 2.784c2.442.012 4.194-1.214 4.194-3.564zm3.214-2.665a6.328 6.328 0 0 0 11.618 3.385l-1.632-1.129a4.25 4.25 0 0 1-7.9-1.848h9.843a5.856 5.856 0 0 0 .024-.624c-.024-3.841-2.569-6.025-5.714-6.025a6.082 6.082 0 0 0-6.231 6.246zm6.169-4.417a3.591 3.591 0 0 1 3.673 3.145h-7.61a3.925 3.925 0 0 1 3.945-3.14zm9.911 10.418h2.064v-5.953c0-2.809 1.657-4.129 3.169-4.129a3.017 3.017 0 0 1 1.128.192v-2.131a4.276 4.276 0 0 0-.936-.1 3.572 3.572 0 0 0-3.361 2.448v-2.328h-2.064v12zm16.489-.168v-1.843a4.562 4.562 0 0 1-1.464.24c-1.3 0-1.992-.5-1.992-2.041v-6.289h3.464v-1.9h-3.456v-3.337h-2.065v3.337h-2.544v1.9h2.544v6.553a3.379 3.379 0 0 0 3.673 3.673 5.743 5.743 0 0 0 1.848-.288zm10.03-8.353a8.858 8.858 0 0 0 16.348 4.68l-1.872-1.128a6.7 6.7 0 1 1 0-7.105l1.872-1.128a8.858 8.858 0 0 0-16.34 4.686zm19.248 2.52a6.006 6.006 0 0 0 5.881 6.241 5.263 5.263 0 0 0 4.225-2.088v1.848h2.065v-12h-2.065v1.848a5.263 5.263 0 0 0-4.225-2.088 6.006 6.006 0 0 0-5.873 6.244zm10.274 0a4.1 4.1 0 1 1-4.081-4.345 4.1 4.1 0 0 1 4.089 4.35zm6.982 6h2.074v-5.953c0-2.712 1.368-4.393 3.312-4.393 1.561 0 2.353 1.344 2.353 3.289v7.057h2.064v-5.953c0-2.712 1.345-4.393 3.289-4.393 1.56 0 2.376 1.344 2.376 3.289v7.057h2.065v-7.369c0-2.929-1.584-4.873-4.2-4.873a4.154 4.154 0 0 0-3.937 2.568 3.773 3.773 0 0 0-3.7-2.568 4.034 4.034 0 0 0-3.624 2.088v-1.848h-2.065v12zm22.44 5.017h2.064v-6.865a5.266 5.266 0 0 0 4.225 2.088 6.252 6.252 0 0 0 0-12.482 5.266 5.266 0 0 0-4.225 2.088v-1.848h-2.064V308.3zm10.058-11.018a4.089 4.089 0 1 1-4.081-4.345 4.1 4.1 0 0 1 4.089 4.351zm5.35 0a6.005 6.005 0 0 0 5.881 6.241 5.264 5.264 0 0 0 4.225-2.088v1.848h2.064v-12h-2.064v1.848a5.264 5.264 0 0 0-4.225-2.088 6.005 6.005 0 0 0-5.873 6.245zm10.274 0a4.1 4.1 0 1 1-4.081-4.345 4.1 4.1 0 0 1 4.089 4.351zm9.478-10.682a1.449 1.449 0 0 0-1.44-1.464 1.491 1.491 0 0 0-1.488 1.464 1.475 1.475 0 0 0 1.488 1.464 1.434 1.434 0 0 0 1.448-1.461zm-2.5 16.683h2.074v-12h-2.064v12zm18.362-.7v-11.296h-2.065v1.848a5.106 5.106 0 0 0-4.176-2.088 6.114 6.114 0 0 0 0 12.218 5.124 5.124 0 0 0 4.176-2.112v1.368a3.836 3.836 0 0 1-4.008 4.153 5.132 5.132 0 0 1-4.2-2.017l-1.441 1.441a7.128 7.128 0 0 0 5.666 2.448c3.419 0 6.06-1.943 6.06-5.953zm-10.01-5.449a4.059 4.059 0 1 1 4.057 4.2 4 4 0 0 1-4.045-4.19zm15.095 6.145h2.065v-5.953c0-2.809 1.536-4.393 3.48-4.393 1.681 0 2.833 1.248 2.833 3.265v7.081h2.04v-7.393c0-2.977-1.848-4.849-4.536-4.849a4.244 4.244 0 0 0-3.817 2.088v-1.848h-2.065v12zm33.986-6a6.277 6.277 0 1 0-6.265 6.241 6.159 6.159 0 0 0 6.277-6.232zm-10.442 0a4.168 4.168 0 1 1 4.177 4.321 4.126 4.126 0 0 1-4.165-4.312zm15.408 6h2.075V293.18h3.481v-1.9H640.7v-2.209c0-1.512.672-2.04 1.993-2.04a4.833 4.833 0 0 1 1.488.24v-1.824a5.454 5.454 0 0 0-1.872-.312 3.427 3.427 0 0 0-3.673 3.72v2.425h-2.545v1.9h2.545v10.106zm28.466 0h2.009l4.657-17.043h-2.329l-3.577 13.3-4.921-13.586-4.9 13.586-3.576-13.3h-2.329l4.657 17.043h1.993l4.176-11.57zm23.928 0h1.993l4.657-17.043h-2.329l-3.577 13.3-4.921-13.586-4.9 13.586-3.577-13.3h-2.328l4.657 17.043h2.006l4.177-11.57zm10.653 0h2.233v-17.033h-2.233v17.043zm7.944 0h2.232v-17.033h-2.232v17.043zm10.488-1.608a1.777 1.777 0 1 0-1.776 1.8 1.809 1.809 0 0 0 1.788-1.79z"/></svg>