<svg id="copy_copy_3" data-name="copy copy 3" xmlns="http://www.w3.org/2000/svg" width="768" height="462" viewBox="0 0 768 462">
  <defs>
    <style>
      .cls-1 {
        fill: #fff;
      }

      .cls-2 {
        fill-rule: evenodd;
      }
    </style>
  </defs>
  <rect id="Rectangle_106_copy_12" data-name="Rectangle 106 copy 12" class="cls-1" width="768" height="462"/>
  <g id="CTA_underline_copy_4" data-name="CTA_underline copy 4">
    <rect id="Rectangle_4_copy_4" data-name="Rectangle 4 copy 4" x="39" y="368" width="122" height="4"/>
    <path id="Shop_now" data-name="Shop now" class="cls-2" d="M43.817,360.853c2.706,0,4.564-1.653,4.582-4.023,0.018-1.965-1.19-3.214-3.048-3.894l-0.9-.33c-1.353-.5-1.984-0.808-1.984-1.506,0-.68.776-0.992,1.551-0.992a2.831,2.831,0,0,1,2.219,1.083l1.876-2.02a5.3,5.3,0,0,0-4.131-1.8c-2.561,0-4.419,1.488-4.419,4.022,0,1.782,1.154,3.049,3.229,3.766l0.9,0.312c1.281,0.441,1.786.9,1.786,1.561,0,0.625-.6,1.084-1.551,1.084a3.335,3.335,0,0,1-2.652-1.488l-2.2,1.892A5.583,5.583,0,0,0,43.817,360.853Zm9.726-.221H56.41v-5.161h5.159v5.161h2.868V347.591H61.569V352.7H56.41v-5.107H53.542v13.041Zm22.66,0.221a6.742,6.742,0,1,0-6.62-6.741A6.7,6.7,0,0,0,76.2,360.853Zm0-2.829a3.917,3.917,0,1,1,3.716-3.912A3.837,3.837,0,0,1,76.2,358.024Zm20.622-5.969a4.4,4.4,0,0,0-4.51-4.464H87.967v13.041h2.868V356.5h1.479A4.385,4.385,0,0,0,96.824,352.055Zm-2.778,0a1.7,1.7,0,0,1-1.768,1.708H90.835v-3.416h1.443A1.688,1.688,0,0,1,94.046,352.055Zm25.979,8.577V347.591h-2.886v8.045l-6.223-8.045h-2.472v13.041h2.869v-8.063l6.241,8.063h2.471Zm11.765,0.221a6.742,6.742,0,1,0-6.62-6.741A6.7,6.7,0,0,0,131.79,360.853Zm0-2.829a3.917,3.917,0,1,1,3.716-3.912A3.837,3.837,0,0,1,131.79,358.024Zm21.686,2.608H156.2l2.976-13.041h-3.067l-1.749,8.266-3.608-8.486-3.589,8.486-1.75-8.266h-3.067l2.959,13.041h2.723l2.724-6.392Z"/>
  </g>
  <path id="Chukka_Boot_Suede_b._1981_Available_in_leather_and_suede._" data-name="Chukka Boot   Suede, b. 1981 | Available in leather and suede. " class="cls-2" d="M54.44,68.553A14.092,14.092,0,0,0,67.187,61.1l-5.376-2.918a8.179,8.179,0,1,1,0-7.449l5.376-2.918A14.212,14.212,0,1,0,54.44,68.553Zm18.241-.461h6.105V57.3H89.767V68.092h6.105V40.831H89.767V51.505H78.786V40.831H72.68V68.092Zm41.779,0.461c6.527,0,11.212-4.454,11.212-11.25V40.831h-6.105V57.38c0,3.264-2.074,5.26-5.107,5.26s-5.107-2-5.107-5.26V40.831h-6.105V57.3C103.247,64.1,107.893,68.553,114.459,68.553Zm18.586-.461h6.066V55.882l11.1,12.21h7.833L145.1,53.924l10.752-13.093h-7.488l-9.254,11.4v-11.4h-6.066V68.092Zm28.8,0h6.067V55.882l11.1,12.21h7.833L173.9,53.924l10.751-13.093h-7.487l-9.254,11.4v-11.4h-6.067V68.092Zm25.882,0H194.1l2.419-5.759h11.289l2.419,5.759H216.6L204.928,40.831H199.4Zm11.02-11.058,3.418-8.217,3.417,8.217h-6.835ZM230.58,68.092h11.98a8.06,8.06,0,0,0,8.294-8.025,7.124,7.124,0,0,0-3.879-6.45,6.414,6.414,0,0,0,1.959-4.684,8.1,8.1,0,0,0-8.1-8.1H230.58V68.092Zm6.1-16.242V46.4h3.456a2.771,2.771,0,0,1,2.841,2.764,2.732,2.732,0,0,1-2.841,2.688h-3.456Zm0,10.636V57.034h5.337a2.774,2.774,0,0,1,2.88,2.726,2.74,2.74,0,0,1-2.841,2.726h-5.376Zm32.755,6.067a14.091,14.091,0,1,0-14.092-14.091A14.125,14.125,0,0,0,269.44,68.553Zm0-5.913a8.183,8.183,0,1,1,7.909-8.178A8.089,8.089,0,0,1,269.44,62.64Zm32.793,5.913a14.091,14.091,0,1,0-14.092-14.091A14.125,14.125,0,0,0,302.233,68.553Zm0-5.913a8.183,8.183,0,1,1,7.909-8.178A8.089,8.089,0,0,1,302.233,62.64Zm24.115,5.452h6.144V46.667h7.026V40.831H319.4v5.836h6.95V68.092ZM39.8,99.138a6.035,6.035,0,0,0,5.48,2.817c2.905,0,4.974-1.672,4.974-4.335,0-2.311-1.321-3.632-3.632-4.512l-1.893-.726c-1.585-.594-2.355-1.188-2.355-2.509,0-1.3,1.277-2.157,2.817-2.157a3.867,3.867,0,0,1,3.1,1.541l1.5-1.321A5.7,5.7,0,0,0,45.232,85.8c-2.8,0-4.886,1.607-4.886,4.16,0,2.135,1.1,3.411,3.543,4.314l2.069,0.792c1.453,0.55,2.245,1.386,2.245,2.641,0,1.453-1.276,2.333-2.883,2.333a4.367,4.367,0,0,1-3.874-2.135Zm14.081-1.695c0,2.729,1.629,4.467,4.05,4.467A3.786,3.786,0,0,0,61.316,100v1.694h1.893v-11H61.316v5.458c0,2.531-1.343,4.028-3.059,4.028-1.519,0-2.487-1.167-2.487-3.015V90.687H53.877v6.757Zm13.134-1.255a5.8,5.8,0,0,0,10.653,3.1l-1.5-1.034a3.9,3.9,0,0,1-7.241-1.695h9.024a5.373,5.373,0,0,0,.022-0.572c-0.022-3.521-2.355-5.524-5.238-5.524A5.576,5.576,0,0,0,67.011,96.189Zm5.656-4.05a3.292,3.292,0,0,1,3.367,2.883H69.057A3.6,3.6,0,0,1,72.667,92.14Zm8.226,4.05a5.506,5.506,0,0,0,5.392,5.722A4.826,4.826,0,0,0,90.159,100v1.694h1.893V85.185H90.159v7.2a4.826,4.826,0,0,0-3.874-1.915A5.507,5.507,0,0,0,80.893,96.189Zm9.42,0a3.759,3.759,0,1,1-3.742-3.984A3.758,3.758,0,0,1,90.313,96.189Zm5.54,0a5.8,5.8,0,0,0,10.652,3.1l-1.5-1.034a3.9,3.9,0,0,1-7.241-1.695h9.023a5.373,5.373,0,0,0,.022-0.572c-0.022-3.521-2.354-5.524-5.238-5.524A5.576,5.576,0,0,0,95.853,96.189Zm5.656-4.05a3.293,3.293,0,0,1,3.368,2.883H97.9A3.6,3.6,0,0,1,101.509,92.14Zm11.439,9.067a1.873,1.873,0,0,0,.309-0.99,1.629,1.629,0,1,0-3.258,0,1.636,1.636,0,0,0,.9,1.474l-1.475,3.148h1.254ZM125.686,100a4.827,4.827,0,0,0,3.874,1.914,5.732,5.732,0,0,0,0-11.444,4.827,4.827,0,0,0-3.874,1.915v-7.2h-1.893v16.506h1.893V100Zm7.329-3.808a3.749,3.749,0,1,1-3.741-3.984A3.757,3.757,0,0,1,133.015,96.189Zm8.138,4.028a1.629,1.629,0,1,0-1.629,1.65A1.658,1.658,0,0,0,141.153,100.217Zm11.857,1.474H154.9V86.065h-3.367L150,87.936h3.015v13.755Zm6.688,0h2.421l5.722-6.756a6,6,0,0,0,1.761-3.984,5.294,5.294,0,0,0-10.586.066,5.048,5.048,0,0,0,4.886,5.018,2.8,2.8,0,0,0,.616-0.044ZM160.952,91a3.357,3.357,0,1,1,3.346,3.367A3.321,3.321,0,0,1,160.952,91ZM182.978,97a4.366,4.366,0,0,0-2.443-4.094,3.658,3.658,0,0,0,1.585-3.081,4.056,4.056,0,0,0-4.38-4.028,4.112,4.112,0,0,0-4.4,4.028,3.645,3.645,0,0,0,1.629,3.081A4.366,4.366,0,0,0,172.48,97a4.922,4.922,0,0,0,5.26,4.907C180.843,101.911,182.978,99.843,182.978,97Zm-7.769-7.131a2.326,2.326,0,0,1,2.531-2.289,2.283,2.283,0,0,1,2.509,2.289,2.335,2.335,0,0,1-2.509,2.311A2.382,2.382,0,0,1,175.209,89.873ZM174.4,97a3.1,3.1,0,0,1,3.345-3.125,3.121,3.121,0,1,1,0,6.229A3.11,3.11,0,0,1,174.4,97Zm13.86,4.688h1.893V86.065h-3.367l-1.541,1.871h3.015v13.755Zm13.552,2.421h1.738V86.065h-1.738v18.047Zm10.713-2.421h2.113l2-4.555h7.285l2,4.555h2.135l-6.933-15.626h-1.695Zm4.908-6.4,2.839-6.448,2.84,6.448h-5.679Zm16.347,6.4h1.584l5.084-11h-2.112l-3.764,8.319L230.8,90.687H228.69Zm8.6-5.5a5.506,5.506,0,0,0,5.392,5.722A4.826,4.826,0,0,0,251.641,100v1.694h1.893v-11h-1.893v1.695a4.826,4.826,0,0,0-3.874-1.915A5.507,5.507,0,0,0,242.375,96.189Zm9.42,0a3.759,3.759,0,1,1-3.742-3.984A3.758,3.758,0,0,1,251.8,96.189Zm8.688-9.794a1.33,1.33,0,0,0-1.321-1.343A1.368,1.368,0,0,0,257.8,86.4a1.353,1.353,0,0,0,1.365,1.343A1.316,1.316,0,0,0,260.483,86.4Zm-2.289,15.3h1.892v-11h-1.892v11Zm6.578,0h1.892V85.185h-1.892v16.506Zm5.719-5.5a5.506,5.506,0,0,0,5.392,5.722A4.826,4.826,0,0,0,279.757,100v1.694h1.893v-11h-1.893v1.695a4.826,4.826,0,0,0-3.874-1.915A5.507,5.507,0,0,0,270.491,96.189Zm9.42,0a3.759,3.759,0,1,1-3.741-3.984A3.757,3.757,0,0,1,279.911,96.189ZM288.2,100a4.824,4.824,0,0,0,3.873,1.914,5.732,5.732,0,0,0,0-11.444,4.824,4.824,0,0,0-3.873,1.915v-7.2H286.31v16.506H288.2V100Zm7.329-3.808a3.749,3.749,0,1,1-3.742-3.984A3.758,3.758,0,0,1,295.532,96.189Zm5.738,5.5h1.893V85.185H301.27v16.506Zm5.72-5.5a5.8,5.8,0,0,0,10.652,3.1l-1.5-1.034a3.9,3.9,0,0,1-7.241-1.695h9.024a5.373,5.373,0,0,0,.022-0.572c-0.022-3.521-2.355-5.524-5.238-5.524A5.576,5.576,0,0,0,306.99,96.189Zm5.656-4.05a3.292,3.292,0,0,1,3.367,2.883h-6.977A3.6,3.6,0,0,1,312.646,92.14ZM330.487,86.4a1.329,1.329,0,0,0-1.321-1.343A1.367,1.367,0,0,0,327.8,86.4a1.352,1.352,0,0,0,1.364,1.343A1.315,1.315,0,0,0,330.487,86.4Zm-2.289,15.3h1.893v-11H328.2v11Zm6.578,0h1.893V96.233c0-2.575,1.408-4.028,3.191-4.028,1.541,0,2.6,1.144,2.6,2.993v6.492h1.871V94.913c0-2.729-1.695-4.446-4.16-4.446a3.891,3.891,0,0,0-3.5,1.915V90.687h-1.893v11Zm20.526,0H357.2V85.185H355.3v16.506Zm5.72-5.5a5.8,5.8,0,0,0,10.652,3.1l-1.5-1.034a3.9,3.9,0,0,1-7.241-1.695h9.023a5.373,5.373,0,0,0,.022-0.572c-0.022-3.521-2.355-5.524-5.238-5.524A5.576,5.576,0,0,0,361.022,96.189Zm5.656-4.05a3.293,3.293,0,0,1,3.368,2.883h-6.977A3.6,3.6,0,0,1,366.678,92.14Zm8.226,4.05a5.506,5.506,0,0,0,5.392,5.722A4.826,4.826,0,0,0,384.17,100v1.694h1.893v-11H384.17v1.695a4.826,4.826,0,0,0-3.874-1.915A5.507,5.507,0,0,0,374.9,96.189Zm9.42,0a3.759,3.759,0,1,1-3.742-3.984A3.758,3.758,0,0,1,384.324,96.189Zm12.363,5.348V99.843a4.18,4.18,0,0,1-1.343.22,1.584,1.584,0,0,1-1.826-1.871V92.426h3.169V90.687h-3.169V87.628h-1.893v3.059h-2.333v1.739h2.333v6.008a3.1,3.1,0,0,0,3.367,3.367A5.266,5.266,0,0,0,396.687,101.537Zm3.518,0.154H402.1V96.233c0-2.575,1.409-4.028,3.192-4.028,1.54,0,2.6,1.144,2.6,2.993v6.492h1.871V94.913c0-2.729-1.695-4.446-4.16-4.446a3.893,3.893,0,0,0-3.5,1.915v-7.2h-1.892v16.506Zm13.2-5.5a5.8,5.8,0,0,0,10.653,3.1l-1.5-1.034a3.9,3.9,0,0,1-7.241-1.695h9.024a5.373,5.373,0,0,0,.022-0.572c-0.022-3.521-2.355-5.524-5.238-5.524A5.577,5.577,0,0,0,413.4,96.189Zm5.657-4.05a3.292,3.292,0,0,1,3.367,2.883h-6.977A3.6,3.6,0,0,1,419.061,92.14Zm9.084,9.551h1.893V96.233c0-2.575,1.518-3.785,2.9-3.785a2.764,2.764,0,0,1,1.034.176V90.665a3.92,3.92,0,0,0-.858-0.088,3.273,3.273,0,0,0-3.081,2.245V90.687h-1.893v11Zm14.212-5.5a5.506,5.506,0,0,0,5.392,5.722A4.827,4.827,0,0,0,451.623,100v1.694h1.892v-11h-1.892v1.695a4.827,4.827,0,0,0-3.874-1.915A5.507,5.507,0,0,0,442.357,96.189Zm9.42,0a3.759,3.759,0,1,1-3.742-3.984A3.758,3.758,0,0,1,451.777,96.189Zm6.4,5.5h1.893V96.233c0-2.575,1.409-4.028,3.191-4.028,1.541,0,2.6,1.144,2.6,2.993v6.492h1.87V94.913c0-2.729-1.694-4.446-4.159-4.446a3.892,3.892,0,0,0-3.5,1.915V90.687h-1.893v11Zm13.2-5.5a5.506,5.506,0,0,0,5.392,5.722A4.826,4.826,0,0,0,480.641,100v1.694h1.893V85.185h-1.893v7.2a4.826,4.826,0,0,0-3.874-1.915A5.507,5.507,0,0,0,471.375,96.189Zm9.42,0a3.759,3.759,0,1,1-3.742-3.984A3.758,3.758,0,0,1,480.8,96.189Zm20,2.443c0-1.651-1.034-2.707-2.9-3.323l-1.188-.4c-1.3-.418-1.695-0.836-1.695-1.541,0-.814.814-1.276,1.849-1.276a2.975,2.975,0,0,1,2.333,1.144l1.232-1.188a4.267,4.267,0,0,0-3.521-1.585c-2.179,0-3.72,1.211-3.72,2.993,0,1.541.947,2.619,2.729,3.191L496.985,97c1.43,0.462,1.959.99,1.959,1.761a1.676,1.676,0,0,1-1.937,1.5,2.953,2.953,0,0,1-2.817-1.739l-1.541.836a4.371,4.371,0,0,0,4.314,2.552C499.186,101.911,500.792,100.789,500.792,98.632Zm3.649-1.188c0,2.729,1.629,4.467,4.05,4.467a3.787,3.787,0,0,0,3.39-1.914v1.694h1.892v-11h-1.892v5.458c0,2.531-1.343,4.028-3.06,4.028-1.518,0-2.487-1.167-2.487-3.015V90.687h-1.893v6.757Zm13.134-1.255a5.8,5.8,0,0,0,10.653,3.1l-1.5-1.034a3.9,3.9,0,0,1-7.241-1.695h9.024a5.373,5.373,0,0,0,.022-0.572c-0.022-3.521-2.355-5.524-5.238-5.524A5.577,5.577,0,0,0,517.575,96.189Zm5.657-4.05a3.292,3.292,0,0,1,3.367,2.883h-6.977A3.6,3.6,0,0,1,523.232,92.14Zm8.226,4.05a5.506,5.506,0,0,0,5.392,5.722A4.827,4.827,0,0,0,540.724,100v1.694h1.892V85.185h-1.892v7.2a4.827,4.827,0,0,0-3.874-1.915A5.507,5.507,0,0,0,531.458,96.189Zm9.42,0a3.76,3.76,0,1,1-3.742-3.984A3.758,3.758,0,0,1,540.878,96.189Zm5.54,0a5.8,5.8,0,0,0,10.652,3.1l-1.5-1.034a3.9,3.9,0,0,1-7.241-1.695h9.023a5.373,5.373,0,0,0,.022-0.572c-0.022-3.521-2.355-5.524-5.238-5.524A5.576,5.576,0,0,0,546.418,96.189Zm5.656-4.05a3.293,3.293,0,0,1,3.368,2.883h-6.977A3.6,3.6,0,0,1,552.074,92.14Zm11.7,8.077a1.629,1.629,0,1,0-1.628,1.65A1.658,1.658,0,0,0,563.777,100.217Zm-507.8,56.96v-7.633H48.99v2.088h4.825v4.561a7.544,7.544,0,0,1-4.537,1.273,6.7,6.7,0,1,1-.288-13.4,7,7,0,0,1,4.921,1.872l1.488-1.608a9,9,0,0,0-6.409-2.376,8.7,8.7,0,0,0-8.882,8.809c0,4.969,3.793,8.81,9.17,8.81A9.364,9.364,0,0,0,55.975,157.177ZM72.1,153.289a6.277,6.277,0,1,0-6.265,6.241A6.159,6.159,0,0,0,72.1,153.289Zm-10.442,0a4.168,4.168,0,1,1,4.177,4.321A4.125,4.125,0,0,1,61.661,153.289Zm17.088-10.682a1.45,1.45,0,0,0-1.44-1.465,1.492,1.492,0,0,0-1.488,1.465,1.475,1.475,0,0,0,1.488,1.464A1.435,1.435,0,0,0,78.748,142.607Zm-2.5,16.683h2.064v-12H76.252v12Zm7.176,0h2.064v-5.953c0-2.809,1.536-4.393,3.481-4.393,1.68,0,2.833,1.248,2.833,3.265v7.081h2.041V151.9c0-2.976-1.848-4.848-4.537-4.848a4.245,4.245,0,0,0-3.817,2.088v-1.848H83.428v12Zm26.522-.7V147.288h-2.065v1.848a5.106,5.106,0,0,0-4.176-2.088,6.114,6.114,0,0,0,0,12.218,5.122,5.122,0,0,0,4.176-2.113v1.369a3.837,3.837,0,0,1-4.008,4.153,5.136,5.136,0,0,1-4.2-2.017l-1.44,1.44a7.124,7.124,0,0,0,5.666,2.449C107.309,164.547,109.95,162.6,109.95,158.594Zm-10.01-5.449a4.059,4.059,0,1,1,4.057,4.2A4,4,0,0,1,99.94,153.145Zm22.151,11.162h2.064v-6.865a5.266,5.266,0,0,0,4.225,2.088,6.252,6.252,0,0,0,0-12.482,5.266,5.266,0,0,0-4.225,2.088v-1.848h-2.064v17.019Zm10.058-11.018a4.089,4.089,0,1,1-4.081-4.345A4.1,4.1,0,0,1,132.149,153.289Zm6.286,6H140.5v-18h-2.064v18Zm6.24-6a6.006,6.006,0,0,0,5.881,6.241,5.264,5.264,0,0,0,4.225-2.088v1.848h2.064v-12h-2.064v1.848a5.264,5.264,0,0,0-4.225-2.088A6.005,6.005,0,0,0,144.675,153.289Zm10.274,0a4.1,4.1,0,1,1-4.081-4.345A4.1,4.1,0,0,1,154.949,153.289Zm17.88,3.024-1.8-1.008a4.069,4.069,0,0,1-3.744,2.305,4.323,4.323,0,0,1,0-8.642,4.068,4.068,0,0,1,3.744,2.3l1.8-1.008a6.216,6.216,0,0,0-5.545-3.216,6.241,6.241,0,1,0,0,12.482A6.215,6.215,0,0,0,172.829,156.313Zm2.925-3.024a6.327,6.327,0,0,0,11.618,3.384l-1.632-1.128a4.25,4.25,0,0,1-7.9-1.848h9.843a5.856,5.856,0,0,0,.024-0.624c-0.024-3.841-2.569-6.025-5.714-6.025A6.082,6.082,0,0,0,175.754,153.289Zm6.169-4.417a3.591,3.591,0,0,1,3.673,3.145h-7.61A3.925,3.925,0,0,1,181.923,148.872Zm17.689,7.081c0-1.8-1.129-2.952-3.169-3.624l-1.3-.433c-1.417-.456-1.849-0.912-1.849-1.68,0-.888.889-1.392,2.017-1.392a3.242,3.242,0,0,1,2.544,1.248l1.345-1.3a4.657,4.657,0,0,0-3.841-1.728c-2.377,0-4.057,1.32-4.057,3.264,0,1.681,1.032,2.857,2.977,3.481l1.176,0.384c1.56,0.5,2.136,1.08,2.136,1.92,0,1.032-.936,1.633-2.112,1.633a3.223,3.223,0,0,1-3.073-1.9l-1.68.912a4.766,4.766,0,0,0,4.705,2.785C197.859,159.53,199.612,158.306,199.612,155.953Zm6.766-2.328h2.065v-0.192c0-.912,1.008-1.561,1.9-2.257a5.377,5.377,0,0,0,2.521-4.32,4.822,4.822,0,0,0-4.945-4.9,5.181,5.181,0,0,0-5.3,5.209h2.064a3.088,3.088,0,0,1,3.241-3.193,2.812,2.812,0,0,1,2.88,2.929c0,1.44-.912,2.136-2.232,3.12-0.936.7-2.185,1.848-2.185,3.121v0.48Zm2.785,4.057a1.777,1.777,0,1,0-1.776,1.8A1.808,1.808,0,0,0,209.163,157.682Zm17.975,1.608h2.185V144.359h5.3v-2.112H221.833v2.112h5.305V159.29Zm10.872,0h2.064v-5.953c0-2.809,1.536-4.393,3.481-4.393,1.68,0,2.832,1.248,2.832,3.265v7.081h2.041V151.9c0-2.976-1.849-4.848-4.537-4.848a4.245,4.245,0,0,0-3.817,2.088v-7.849H238.01v18Zm17.832-16.683a1.45,1.45,0,0,0-1.44-1.465,1.492,1.492,0,0,0-1.489,1.465,1.475,1.475,0,0,0,1.489,1.464A1.434,1.434,0,0,0,255.842,142.607Zm-2.5,16.683h2.065v-12h-2.065v12Zm14.954-3.337c0-1.8-1.128-2.952-3.169-3.624l-1.3-.433c-1.416-.456-1.848-0.912-1.848-1.68,0-.888.888-1.392,2.016-1.392a3.242,3.242,0,0,1,2.544,1.248l1.345-1.3a4.656,4.656,0,0,0-3.841-1.728c-2.377,0-4.057,1.32-4.057,3.264,0,1.681,1.032,2.857,2.977,3.481l1.176,0.384c1.56,0.5,2.136,1.08,2.136,1.92,0,1.032-.936,1.633-2.112,1.633a3.223,3.223,0,0,1-3.073-1.9l-1.68.912a4.767,4.767,0,0,0,4.705,2.785C266.546,159.53,268.3,158.306,268.3,155.953Zm11.206,3.337h2.064v-5.953c0-2.713,1.368-4.393,3.313-4.393,1.56,0,2.352,1.344,2.352,3.289v7.057H289.3v-5.953c0-2.713,1.344-4.393,3.288-4.393,1.561,0,2.377,1.344,2.377,3.289v7.057h2.064v-7.369c0-2.929-1.584-4.873-4.2-4.873a4.153,4.153,0,0,0-3.937,2.568,3.773,3.773,0,0,0-3.7-2.568,4.035,4.035,0,0,0-3.625,2.088v-1.848h-2.064v12Zm24.936-16.683a1.45,1.45,0,0,0-1.44-1.465,1.492,1.492,0,0,0-1.489,1.465A1.476,1.476,0,0,0,303,144.071,1.434,1.434,0,0,0,304.441,142.607Zm-2.5,16.683h2.064v-12h-2.064v12Zm7.175,0h2.065v-18H309.12v18Zm9.673-16.683a1.45,1.45,0,0,0-1.441-1.465,1.492,1.492,0,0,0-1.488,1.465,1.475,1.475,0,0,0,1.488,1.464A1.435,1.435,0,0,0,318.793,142.607Zm-2.5,16.683h2.065v-12H316.3v12Zm13.681-.168v-1.848a4.562,4.562,0,0,1-1.464.24c-1.3,0-1.992-.505-1.992-2.041v-6.289h3.456v-1.9h-3.456v-3.337h-2.065v3.337h-2.544v1.9h2.544v6.553a3.379,3.379,0,0,0,3.673,3.673A5.743,5.743,0,0,0,329.977,159.122Zm2.735-5.833a6.006,6.006,0,0,0,5.881,6.241,5.263,5.263,0,0,0,4.225-2.088v1.848h2.065v-12h-2.065v1.848a5.263,5.263,0,0,0-4.225-2.088A6.006,6.006,0,0,0,332.712,153.289Zm10.274,0a4.1,4.1,0,1,1-4.081-4.345A4.1,4.1,0,0,1,342.986,153.289Zm6.982,6h2.064v-5.953c0-2.809,1.657-4.129,3.169-4.129a3.017,3.017,0,0,1,1.128.192v-2.136a4.276,4.276,0,0,0-.936-0.1,3.572,3.572,0,0,0-3.361,2.448v-2.328h-2.064v12Zm13.177,5.017,7.873-17.019h-2.3l-4.105,9.1-4.129-9.1H358.2l5.257,11.378-2.617,5.641h2.305ZM373.632,153.6h6.121v-2.065h-6.121V153.6Zm13.344-10.994a1.45,1.45,0,0,0-1.44-1.465,1.492,1.492,0,0,0-1.488,1.465,1.475,1.475,0,0,0,1.488,1.464A1.434,1.434,0,0,0,386.976,142.607Zm-2.5,16.683h2.064v-12H384.48v12Zm7.176,0h2.064v-5.953c0-2.809,1.536-4.393,3.481-4.393,1.68,0,2.832,1.248,2.832,3.265v7.081h2.041V151.9c0-2.976-1.848-4.848-4.537-4.848a4.245,4.245,0,0,0-3.817,2.088v-1.848h-2.064v12Zm23.113-3.337c0-1.8-1.128-2.952-3.169-3.624l-1.3-.433c-1.416-.456-1.848-0.912-1.848-1.68,0-.888.888-1.392,2.016-1.392a3.244,3.244,0,0,1,2.545,1.248l1.344-1.3a4.654,4.654,0,0,0-3.841-1.728c-2.376,0-4.057,1.32-4.057,3.264,0,1.681,1.033,2.857,2.977,3.481l1.176,0.384c1.561,0.5,2.137,1.08,2.137,1.92,0,1.032-.937,1.633-2.113,1.633a3.221,3.221,0,0,1-3.072-1.9l-1.681.912a4.767,4.767,0,0,0,4.7,2.785C413.017,159.53,414.769,158.306,414.769,155.953Zm4.15,8.354h2.065v-6.865a5.263,5.263,0,0,0,4.225,2.088,6.252,6.252,0,0,0,0-12.482,5.263,5.263,0,0,0-4.225,2.088v-1.848h-2.065v17.019Zm10.058-11.018a4.089,4.089,0,1,1-4.081-4.345A4.1,4.1,0,0,1,428.977,153.289Zm8.783-10.682a1.45,1.45,0,0,0-1.441-1.465,1.492,1.492,0,0,0-1.488,1.465,1.475,1.475,0,0,0,1.488,1.464A1.435,1.435,0,0,0,437.76,142.607Zm-2.5,16.683h2.065v-12h-2.065v12Zm7.176,0H444.5v-5.953c0-2.809,1.657-4.129,3.169-4.129a3.017,3.017,0,0,1,1.128.192v-2.136a4.276,4.276,0,0,0-.936-0.1,3.571,3.571,0,0,0-3.361,2.448v-2.328h-2.064v12Zm8.616-6a6.327,6.327,0,0,0,11.618,3.384l-1.632-1.128a4.25,4.25,0,0,1-7.9-1.848h9.842a5.856,5.856,0,0,0,.024-0.624c-0.024-3.841-2.568-6.025-5.713-6.025A6.081,6.081,0,0,0,451.055,153.289Zm6.169-4.417a3.591,3.591,0,0,1,3.673,3.145h-7.61A3.924,3.924,0,0,1,457.224,148.872Zm8.975,4.417a6.006,6.006,0,0,0,5.881,6.241,5.264,5.264,0,0,0,4.225-2.088v1.848h2.064v-18h-2.064v7.849a5.264,5.264,0,0,0-4.225-2.088A6.005,6.005,0,0,0,466.2,153.289Zm10.274,0a4.1,4.1,0,1,1-4.081-4.345A4.1,4.1,0,0,1,476.473,153.289Zm16.1,4.153a5.263,5.263,0,0,0,4.225,2.088,6.252,6.252,0,0,0,0-12.482,5.263,5.263,0,0,0-4.225,2.088v-7.849H490.51v18h2.065v-1.848Zm7.994-4.153a4.089,4.089,0,1,1-4.081-4.345A4.1,4.1,0,0,1,500.569,153.289Zm17.856,0a6.278,6.278,0,1,0-6.266,6.241A6.159,6.159,0,0,0,518.425,153.289Zm-10.443,0a4.168,4.168,0,1,1,4.177,4.321A4.126,4.126,0,0,1,507.982,153.289Zm26.186,0a6.277,6.277,0,1,0-6.265,6.241A6.159,6.159,0,0,0,534.168,153.289Zm-10.442,0a4.168,4.168,0,1,1,4.177,4.321A4.125,4.125,0,0,1,523.726,153.289Zm20.881,5.833v-1.848a4.562,4.562,0,0,1-1.464.24c-1.3,0-1.992-.505-1.992-2.041v-6.289h3.456v-1.9h-3.456v-3.337h-2.065v3.337h-2.544v1.9h2.544v6.553a3.378,3.378,0,0,0,3.673,3.673A5.743,5.743,0,0,0,544.607,159.122Zm20.641,0.168h1.824l4.081-12h-2.184l-2.905,8.761-3-8.761h-1.584l-3,8.761-2.9-8.761h-2.161l4.081,12h1.825l2.976-8.642Zm11.83-16.683a1.45,1.45,0,0,0-1.44-1.465,1.492,1.492,0,0,0-1.489,1.465,1.475,1.475,0,0,0,1.489,1.464A1.434,1.434,0,0,0,577.078,142.607Zm-2.5,16.683h2.065v-12h-2.065v12Zm7.176,0h2.065v-18h-2.065v18Zm7.176,0H591v-18h-2.065v18Zm14.232,0h2.064v-5.953c0-2.809,1.536-4.393,3.481-4.393,1.68,0,2.832,1.248,2.832,3.265v7.081h2.041V151.9c0-2.976-1.849-4.848-4.537-4.848a4.245,4.245,0,0,0-3.817,2.088v-7.849h-2.064v18Zm14.4-6a6.328,6.328,0,0,0,11.619,3.384l-1.633-1.128a4.249,4.249,0,0,1-7.9-1.848H629.5a5.856,5.856,0,0,0,.024-0.624c-0.024-3.841-2.569-6.025-5.713-6.025A6.082,6.082,0,0,0,617.564,153.289Zm6.169-4.417a3.591,3.591,0,0,1,3.673,3.145H619.8A3.923,3.923,0,0,1,623.733,148.872Zm9.911,10.418h2.065v-18h-2.065v18Zm7.176,5.017h2.064v-6.865a5.266,5.266,0,0,0,4.225,2.088,6.252,6.252,0,0,0,0-12.482,5.266,5.266,0,0,0-4.225,2.088v-1.848H640.82v17.019Zm10.058-11.018a4.089,4.089,0,1,1-4.081-4.345A4.1,4.1,0,0,1,650.878,153.289Zm15.982,11.018,7.874-17.019h-2.3l-4.1,9.1-4.129-9.1h-2.281l5.258,11.378-2.617,5.641h2.3Zm22.467-11.018a6.278,6.278,0,1,0-6.266,6.241A6.159,6.159,0,0,0,689.327,153.289Zm-10.443,0a4.168,4.168,0,1,1,4.177,4.321A4.126,4.126,0,0,1,678.884,153.289Zm14.424,1.368c0,2.977,1.776,4.873,4.417,4.873a4.129,4.129,0,0,0,3.7-2.088v1.848h2.065v-12h-2.065v5.953c0,2.76-1.464,4.393-3.336,4.393-1.657,0-2.713-1.273-2.713-3.289v-7.057h-2.064v7.369ZM40.948,188.089h2.065v-5.953c0-2.809,1.536-4.393,3.481-4.393,1.68,0,2.833,1.248,2.833,3.265v7.081h2.041V180.7c0-2.977-1.848-4.849-4.537-4.849a4.244,4.244,0,0,0-3.817,2.088v-1.848H40.948v12Zm14.4-6a6.006,6.006,0,0,0,5.881,6.241,5.264,5.264,0,0,0,4.225-2.088v1.848h2.064v-12H65.454v1.848a5.264,5.264,0,0,0-4.225-2.088A6.006,6.006,0,0,0,55.348,182.088Zm10.274,0a4.1,4.1,0,1,1-4.081-4.345A4.1,4.1,0,0,1,65.622,182.088Zm10.727,6h1.728l5.545-12h-2.3l-4.1,9.074-4.1-9.074H70.8ZM89.4,171.406a1.449,1.449,0,0,0-1.44-1.464,1.491,1.491,0,0,0-1.488,1.464,1.475,1.475,0,0,0,1.488,1.464A1.435,1.435,0,0,0,89.4,171.406Zm-2.5,16.683h2.064v-12H86.908v12Zm18.362-.7V176.087h-2.065v1.848a5.106,5.106,0,0,0-4.177-2.088,6.114,6.114,0,0,0,0,12.218,5.125,5.125,0,0,0,4.177-2.112v1.368a3.836,3.836,0,0,1-4.009,4.153,5.133,5.133,0,0,1-4.2-2.017l-1.44,1.441a7.126,7.126,0,0,0,5.665,2.448C102.629,193.346,105.27,191.4,105.27,187.393Zm-10.01-5.449a4.059,4.059,0,1,1,4.057,4.2A4,4,0,0,1,95.26,181.944Zm14.159,0.144a6.005,6.005,0,0,0,5.881,6.241,5.263,5.263,0,0,0,4.225-2.088v1.848h2.064v-12h-2.064v1.848a5.263,5.263,0,0,0-4.225-2.088A6.005,6.005,0,0,0,109.419,182.088Zm10.274,0a4.1,4.1,0,1,1-4.081-4.345A4.1,4.1,0,0,1,119.693,182.088Zm13.487,5.833v-1.848a4.562,4.562,0,0,1-1.464.24c-1.3,0-1.993-.5-1.993-2.041v-6.289h3.457v-1.9h-3.457V172.75h-2.064v3.337h-2.544v1.9h2.544v6.553a3.378,3.378,0,0,0,3.673,3.673A5.743,5.743,0,0,0,133.18,187.921Zm2.735-5.833a6.328,6.328,0,0,0,11.618,3.385l-1.632-1.129A4.25,4.25,0,0,1,138,182.5h9.842a5.856,5.856,0,0,0,.024-0.624c-0.024-3.841-2.568-6.025-5.713-6.025A6.081,6.081,0,0,0,135.915,182.088Zm6.169-4.417a3.591,3.591,0,0,1,3.673,3.145h-7.61A3.924,3.924,0,0,1,142.084,177.671Zm23.064,10.25v-1.848a4.562,4.562,0,0,1-1.464.24c-1.3,0-1.993-.5-1.993-2.041v-6.289h3.457v-1.9h-3.457V172.75h-2.064v3.337h-2.545v1.9h2.545v6.553a3.378,3.378,0,0,0,3.673,3.673A5.743,5.743,0,0,0,165.148,187.921Zm3.839,0.168h2.064v-5.953c0-2.809,1.536-4.393,3.481-4.393,1.68,0,2.832,1.248,2.832,3.265v7.081h2.041V180.7c0-2.977-1.849-4.849-4.537-4.849a4.244,4.244,0,0,0-3.817,2.088v-7.849h-2.064v18Zm14.4-6a6.328,6.328,0,0,0,11.619,3.385l-1.633-1.129a4.249,4.249,0,0,1-7.9-1.848h9.842a5.856,5.856,0,0,0,.024-0.624c-0.024-3.841-2.569-6.025-5.714-6.025A6.082,6.082,0,0,0,183.386,182.088Zm6.169-4.417a3.591,3.591,0,0,1,3.673,3.145h-7.609A3.923,3.923,0,0,1,189.555,177.671Zm16.8,5.785c0,2.977,1.776,4.873,4.417,4.873a4.131,4.131,0,0,0,3.7-2.088v1.848h2.064v-12h-2.064v5.953c0,2.761-1.465,4.393-3.337,4.393-1.657,0-2.713-1.272-2.713-3.289v-7.057h-2.064v7.369Zm15.264,4.633h2.064v-5.953c0-2.809,1.657-4.129,3.169-4.129a3.017,3.017,0,0,1,1.128.192v-2.136a4.276,4.276,0,0,0-.936-0.1,3.571,3.571,0,0,0-3.361,2.448v-2.328h-2.064v12Zm12.048-1.848a5.264,5.264,0,0,0,4.225,2.088,6.252,6.252,0,0,0,0-12.482,5.264,5.264,0,0,0-4.225,2.088v-7.849H231.6v18h2.064v-1.848Zm7.994-4.153a4.089,4.089,0,1,1-4.081-4.345A4.1,4.1,0,0,1,241.66,182.088Zm5.325,0a6.006,6.006,0,0,0,5.881,6.241,5.263,5.263,0,0,0,4.225-2.088v1.848h2.065v-12h-2.065v1.848a5.263,5.263,0,0,0-4.225-2.088A6.006,6.006,0,0,0,246.985,182.088Zm10.274,0a4.1,4.1,0,1,1-4.08-4.345A4.1,4.1,0,0,1,257.259,182.088Zm6.982,6h2.065v-5.953c0-2.809,1.536-4.393,3.48-4.393,1.681,0,2.833,1.248,2.833,3.265v7.081h2.04V180.7c0-2.977-1.848-4.849-4.537-4.849a4.243,4.243,0,0,0-3.816,2.088v-1.848h-2.065v12Zm25.08-16.683a1.449,1.449,0,0,0-1.44-1.464,1.491,1.491,0,0,0-1.488,1.464,1.475,1.475,0,0,0,1.488,1.464A1.434,1.434,0,0,0,289.321,171.406Zm-0.432,4.681h-2.064v13.346c0,1.537-.72,2.041-1.849,2.041a5.262,5.262,0,0,1-.7-0.048v1.848a6.1,6.1,0,0,0,.984.072,3.365,3.365,0,0,0,3.625-3.673V176.087Zm4.943,7.369c0,2.977,1.777,4.873,4.417,4.873a4.129,4.129,0,0,0,3.7-2.088v1.848h2.064v-12h-2.064v5.953c0,2.761-1.464,4.393-3.337,4.393-1.656,0-2.712-1.272-2.712-3.289v-7.057h-2.065v7.369Zm15.264,4.633h2.065v-5.953c0-2.809,1.536-4.393,3.48-4.393,1.681,0,2.833,1.248,2.833,3.265v7.081h2.04V180.7c0-2.977-1.848-4.849-4.537-4.849a4.243,4.243,0,0,0-3.816,2.088v-1.848H309.1v12Zm26.522-.7V176.087h-2.064v1.848a5.108,5.108,0,0,0-4.177-2.088,6.114,6.114,0,0,0,0,12.218,5.126,5.126,0,0,0,4.177-2.112v1.368a3.837,3.837,0,0,1-4.009,4.153,5.134,5.134,0,0,1-4.2-2.017L323.9,190.9a7.126,7.126,0,0,0,5.665,2.448C332.978,193.346,335.618,191.4,335.618,187.393Zm-10.01-5.449a4.059,4.059,0,1,1,4.057,4.2A4,4,0,0,1,325.608,181.944Zm15.1,6.145h2.064v-18H340.7v18Zm6.239-6a6.328,6.328,0,0,0,11.619,3.385l-1.632-1.129a4.25,4.25,0,0,1-7.9-1.848h9.842a5.856,5.856,0,0,0,.024-0.624c-0.024-3.841-2.569-6.025-5.713-6.025A6.082,6.082,0,0,0,346.943,182.088Zm6.17-4.417a3.59,3.59,0,0,1,3.672,3.145h-7.609A3.923,3.923,0,0,1,353.113,177.671Zm19.463-6.265a1.45,1.45,0,0,0-1.441-1.464,1.491,1.491,0,0,0-1.488,1.464,1.475,1.475,0,0,0,1.488,1.464A1.435,1.435,0,0,0,372.576,171.406Zm-2.5,16.683h2.065v-12h-2.065v12Zm7.176,0h2.064v-5.953c0-2.809,1.537-4.393,3.481-4.393,1.681,0,2.833,1.248,2.833,3.265v7.081h2.04V180.7c0-2.977-1.848-4.849-4.537-4.849a4.246,4.246,0,0,0-3.817,2.088v-1.848h-2.064v12Zm30.169-3.336c0-1.8-1.128-2.953-3.169-3.625l-1.3-.432c-1.416-.456-1.848-0.912-1.848-1.681,0-.888.888-1.392,2.016-1.392a3.244,3.244,0,0,1,2.545,1.248l1.344-1.3a4.656,4.656,0,0,0-3.841-1.728c-2.376,0-4.057,1.32-4.057,3.264,0,1.681,1.033,2.857,2.977,3.481l1.176,0.384c1.561,0.5,2.137,1.08,2.137,1.921,0,1.032-.937,1.632-2.113,1.632a3.22,3.22,0,0,1-3.072-1.9l-1.681.913a4.768,4.768,0,0,0,4.705,2.784C405.672,188.329,407.424,187.105,407.424,184.753Zm10.512,3.168v-1.848a4.568,4.568,0,0,1-1.465.24c-1.3,0-1.992-.5-1.992-2.041v-6.289h3.457v-1.9h-3.457V172.75h-2.065v3.337H409.87v1.9h2.544v6.553a3.379,3.379,0,0,0,3.673,3.673A5.749,5.749,0,0,0,417.936,187.921Zm7.031,5.185,7.874-17.019h-2.305l-4.105,9.1-4.129-9.1h-2.28l5.257,11.378-2.617,5.641h2.305Zm11.135-5.017h2.065v-18H436.1v18Zm6.24-6a6.328,6.328,0,0,0,11.618,3.385l-1.632-1.129a4.25,4.25,0,0,1-7.9-1.848h9.842a5.856,5.856,0,0,0,.024-0.624c-0.024-3.841-2.568-6.025-5.713-6.025A6.081,6.081,0,0,0,442.342,182.088Zm6.169-4.417a3.591,3.591,0,0,1,3.673,3.145h-7.61A3.924,3.924,0,0,1,448.511,177.671Zm12.767,8.81a1.776,1.776,0,1,0-1.776,1.8A1.809,1.809,0,0,0,461.278,186.481Zm28.2-6.913a8.81,8.81,0,1,0-8.81,8.809A8.725,8.725,0,0,0,489.481,179.568Zm-15.363,0a6.567,6.567,0,1,1,6.553,6.7A6.534,6.534,0,0,1,474.118,179.568Zm19.416,3.888c0,2.977,1.776,4.873,4.417,4.873a4.129,4.129,0,0,0,3.7-2.088v1.848h2.065v-12h-2.065v5.953c0,2.761-1.464,4.393-3.336,4.393-1.657,0-2.713-1.272-2.713-3.289v-7.057h-2.064v7.369Zm15.264,4.633h2.064v-5.953c0-2.809,1.656-4.129,3.169-4.129a3.017,3.017,0,0,1,1.128.192v-2.136a4.276,4.276,0,0,0-.936-0.1,3.57,3.57,0,0,0-3.361,2.448v-2.328H508.8v12Zm17.136,0H528V177.983h3.481v-1.9H528v-2.209c0-1.512.672-2.04,1.993-2.04a4.833,4.833,0,0,1,1.488.24v-1.824a5.454,5.454,0,0,0-1.872-.312,3.427,3.427,0,0,0-3.673,3.72v2.425h-2.545v1.9h2.545v10.106Zm10.3-16.683a1.449,1.449,0,0,0-1.44-1.464,1.492,1.492,0,0,0-1.489,1.464,1.476,1.476,0,0,0,1.489,1.464A1.434,1.434,0,0,0,536.232,171.406Zm-2.5,16.683H535.8v-12h-2.064v12Zm7.149,0h2.065v-5.953c0-2.809,1.656-4.129,3.169-4.129a3.017,3.017,0,0,1,1.128.192v-2.136a4.276,4.276,0,0,0-.936-0.1,3.57,3.57,0,0,0-3.361,2.448v-2.328h-2.065v12Zm17.546-3.336c0-1.8-1.128-2.953-3.168-3.625l-1.3-.432c-1.416-.456-1.848-0.912-1.848-1.681,0-.888.888-1.392,2.016-1.392a3.243,3.243,0,0,1,2.545,1.248l1.344-1.3a4.654,4.654,0,0,0-3.841-1.728c-2.376,0-4.056,1.32-4.056,3.264,0,1.681,1.032,2.857,2.976,3.481l1.176,0.384c1.561,0.5,2.137,1.08,2.137,1.921,0,1.032-.936,1.632-2.113,1.632a3.22,3.22,0,0,1-3.072-1.9l-1.681.913a4.769,4.769,0,0,0,4.705,2.784C556.679,188.329,558.431,187.105,558.431,184.753Zm10.512,3.168v-1.848a4.562,4.562,0,0,1-1.464.24c-1.3,0-1.993-.5-1.993-2.041v-6.289h3.457v-1.9h-3.457V172.75h-2.064v3.337h-2.545v1.9h2.545v6.553a3.378,3.378,0,0,0,3.672,3.673A5.744,5.744,0,0,0,568.943,187.921Zm14.111,0.168h1.729l5.545-12h-2.3l-4.105,9.074-4.1-9.074h-2.3Zm9.359-6a6.328,6.328,0,0,0,11.619,3.385l-1.633-1.129a4.249,4.249,0,0,1-7.9-1.848h9.842a5.856,5.856,0,0,0,.024-0.624c-0.024-3.841-2.569-6.025-5.713-6.025A6.082,6.082,0,0,0,592.413,182.088Zm6.17-4.417a3.59,3.59,0,0,1,3.672,3.145h-7.609A3.923,3.923,0,0,1,598.583,177.671Zm9.91,10.418h2.065v-5.953c0-2.809,1.656-4.129,3.168-4.129a3.019,3.019,0,0,1,1.129.192v-2.136a4.276,4.276,0,0,0-.936-0.1,3.57,3.57,0,0,0-3.361,2.448v-2.328h-2.065v12Zm17.546-3.336c0-1.8-1.128-2.953-3.168-3.625l-1.3-.432c-1.416-.456-1.848-0.912-1.848-1.681,0-.888.888-1.392,2.016-1.392a3.243,3.243,0,0,1,2.545,1.248l1.344-1.3a4.654,4.654,0,0,0-3.841-1.728c-2.376,0-4.057,1.32-4.057,3.264,0,1.681,1.033,2.857,2.977,3.481l1.176,0.384c1.561,0.5,2.137,1.08,2.137,1.921,0,1.032-.936,1.632-2.113,1.632a3.22,3.22,0,0,1-3.072-1.9l-1.681.913a4.769,4.769,0,0,0,4.7,2.784C624.287,188.329,626.039,187.105,626.039,184.753Zm6.647-13.347a1.449,1.449,0,0,0-1.44-1.464,1.491,1.491,0,0,0-1.489,1.464,1.475,1.475,0,0,0,1.489,1.464A1.434,1.434,0,0,0,632.686,171.406Zm-2.5,16.683h2.065v-12h-2.065v12Zm18.771-6a6.278,6.278,0,1,0-6.266,6.241A6.159,6.159,0,0,0,648.96,182.088Zm-10.443,0a4.168,4.168,0,1,1,4.177,4.321A4.126,4.126,0,0,1,638.517,182.088Zm14.592,6h2.064v-5.953c0-2.809,1.537-4.393,3.481-4.393,1.68,0,2.833,1.248,2.833,3.265v7.081h2.04V180.7c0-2.977-1.848-4.849-4.537-4.849a4.246,4.246,0,0,0-3.817,2.088v-1.848h-2.064v12Zm-613.1,22.8a6.006,6.006,0,0,0,5.881,6.241,5.264,5.264,0,0,0,4.225-2.088v1.848h2.064v-12H50.118v1.848a5.264,5.264,0,0,0-4.225-2.088A6.006,6.006,0,0,0,40.012,210.887Zm10.274,0a4.1,4.1,0,1,1-4.081-4.345A4.1,4.1,0,0,1,50.286,210.887Zm6.982,11.018h2.064V215.04a5.264,5.264,0,0,0,4.225,2.088,6.252,6.252,0,0,0,0-12.482,5.264,5.264,0,0,0-4.225,2.088v-1.848H57.268v17.019Zm10.058-11.018a4.089,4.089,0,1,1-4.081-4.345A4.1,4.1,0,0,1,67.326,210.887Zm6.286,11.018h2.064V215.04a5.264,5.264,0,0,0,4.225,2.088,6.252,6.252,0,0,0,0-12.482,5.264,5.264,0,0,0-4.225,2.088v-1.848H73.612v17.019ZM83.67,210.887a4.089,4.089,0,1,1-4.081-4.345A4.1,4.1,0,0,1,83.67,210.887Zm5.35,0a6.328,6.328,0,0,0,11.618,3.385l-1.632-1.128a4.25,4.25,0,0,1-7.9-1.849h9.842a5.856,5.856,0,0,0,.024-0.624c-0.024-3.841-2.568-6.025-5.713-6.025A6.082,6.082,0,0,0,89.02,210.887Zm6.169-4.417a3.592,3.592,0,0,1,3.673,3.145h-7.61A3.925,3.925,0,0,1,95.189,206.47Zm8.974,4.417a6.006,6.006,0,0,0,5.882,6.241,5.266,5.266,0,0,0,4.225-2.088v1.848h2.064v-12H114.27v1.848a5.266,5.266,0,0,0-4.225-2.088A6.007,6.007,0,0,0,104.163,210.887Zm10.275,0a4.1,4.1,0,1,1-4.081-4.345A4.1,4.1,0,0,1,114.438,210.887Zm6.981,6h2.065v-5.953c0-2.808,1.656-4.129,3.169-4.129a3.018,3.018,0,0,1,1.128.193v-2.137a4.276,4.276,0,0,0-.936-0.1,3.57,3.57,0,0,0-3.361,2.449v-2.329h-2.065v12Zm8.616-6a6.328,6.328,0,0,0,11.619,3.385l-1.632-1.128a4.25,4.25,0,0,1-7.9-1.849h9.842a5.856,5.856,0,0,0,.024-0.624c-0.024-3.841-2.569-6.025-5.713-6.025A6.083,6.083,0,0,0,130.035,210.887Zm6.17-4.417a3.591,3.591,0,0,1,3.672,3.145h-7.609A3.924,3.924,0,0,1,136.205,206.47Zm8.974,4.417a6.006,6.006,0,0,0,5.881,6.241,5.263,5.263,0,0,0,4.225-2.088v1.848h2.065v-18h-2.065v7.849a5.263,5.263,0,0,0-4.225-2.088A6.006,6.006,0,0,0,145.179,210.887Zm10.274,0a4.1,4.1,0,1,1-4.08-4.345A4.1,4.1,0,0,1,155.453,210.887Zm16.534-10.682a1.449,1.449,0,0,0-1.44-1.464,1.465,1.465,0,1,0,0,2.929A1.435,1.435,0,0,0,171.987,200.205Zm-2.5,16.683h2.064v-12h-2.064v12Zm7.176,0h2.064v-5.953c0-2.808,1.537-4.393,3.481-4.393,1.68,0,2.833,1.249,2.833,3.265v7.081h2.04V209.5c0-2.977-1.848-4.849-4.537-4.849a4.245,4.245,0,0,0-3.817,2.088v-1.848h-2.064v12Zm28.489-.168v-1.848a4.568,4.568,0,0,1-1.465.24c-1.3,0-1.992-.5-1.992-2.04v-6.29h3.457v-1.9H201.7V201.55h-2.065v3.336H197.09v1.9h2.544v6.554a3.379,3.379,0,0,0,3.673,3.672A5.749,5.749,0,0,0,205.156,216.72Zm3.838,0.168h2.065v-5.953c0-2.808,1.536-4.393,3.48-4.393,1.681,0,2.833,1.249,2.833,3.265v7.081h2.04V209.5c0-2.977-1.848-4.849-4.537-4.849a4.243,4.243,0,0,0-3.816,2.088v-7.849h-2.065v18Zm14.4-6a6.328,6.328,0,0,0,11.618,3.385l-1.632-1.128a4.25,4.25,0,0,1-7.9-1.849h9.842a5.856,5.856,0,0,0,.024-0.624c-0.024-3.841-2.568-6.025-5.713-6.025A6.082,6.082,0,0,0,223.394,210.887Zm6.169-4.417a3.592,3.592,0,0,1,3.673,3.145h-7.61A3.925,3.925,0,0,1,229.563,206.47Zm18.455,10.418h2.064V199.845h-3.673l-1.68,2.041h3.289v15Zm7.295,0h2.641l6.241-7.369a6.547,6.547,0,0,0,1.921-4.345,5.775,5.775,0,0,0-11.547.072,5.506,5.506,0,0,0,5.329,5.473,3.059,3.059,0,0,0,.672-0.048Zm1.369-11.666a3.661,3.661,0,1,1,3.648,3.673A3.621,3.621,0,0,1,256.682,205.222Zm24.026,6.553a4.762,4.762,0,0,0-2.665-4.464,3.993,3.993,0,0,0,1.728-3.361c0-2.545-1.968-4.393-4.777-4.393a4.485,4.485,0,0,0-4.8,4.393,3.977,3.977,0,0,0,1.777,3.361,4.761,4.761,0,0,0-2.713,4.464c0,3.1,2.4,5.353,5.737,5.353C278.379,217.128,280.708,214.872,280.708,211.775ZM272.234,204a2.537,2.537,0,0,1,2.76-2.5,2.491,2.491,0,0,1,2.737,2.5,2.547,2.547,0,0,1-2.737,2.52A2.6,2.6,0,0,1,272.234,204Zm-0.888,7.777a3.383,3.383,0,0,1,3.648-3.408,3.4,3.4,0,1,1,0,6.793A3.392,3.392,0,0,1,271.346,211.775Zm15.12,5.113h2.064V199.845h-3.673l-1.68,2.041h3.289v15Zm25.417-2.976-1.8-1.008a4.068,4.068,0,0,1-3.745,2.3,4.323,4.323,0,0,1,0-8.642,4.069,4.069,0,0,1,3.745,2.305l1.8-1.008a6.214,6.214,0,0,0-5.545-3.217,6.241,6.241,0,1,0,0,12.482A6.215,6.215,0,0,0,311.883,213.912Zm2.926-3.025a6.005,6.005,0,0,0,5.881,6.241,5.266,5.266,0,0,0,4.225-2.088v1.848h2.064v-12h-2.064v1.848a5.266,5.266,0,0,0-4.225-2.088A6.006,6.006,0,0,0,314.809,210.887Zm10.274,0A4.1,4.1,0,1,1,321,206.542,4.1,4.1,0,0,1,325.083,210.887Zm13.487,5.833v-1.848a4.562,4.562,0,0,1-1.464.24c-1.3,0-1.993-.5-1.993-2.04v-6.29h3.457v-1.9h-3.457V201.55h-2.064v3.336H330.5v1.9h2.545v6.554a3.378,3.378,0,0,0,3.672,3.672A5.744,5.744,0,0,0,338.57,216.72Zm2.734-5.833a6.006,6.006,0,0,0,5.882,6.241,5.266,5.266,0,0,0,4.225-2.088v1.848h2.064v-12h-2.064v1.848a5.266,5.266,0,0,0-4.225-2.088A6.007,6.007,0,0,0,341.3,210.887Zm10.275,0a4.1,4.1,0,1,1-4.081-4.345A4.1,4.1,0,0,1,351.579,210.887Zm6.981,6h2.065v-18H358.56v18Zm18.771-6a6.278,6.278,0,1,0-6.266,6.241A6.16,6.16,0,0,0,377.331,210.887Zm-10.442,0a4.167,4.167,0,1,1,4.176,4.321A4.125,4.125,0,0,1,366.889,210.887Zm25.777,5.305V204.886H390.6v1.848a5.108,5.108,0,0,0-4.177-2.088,6.114,6.114,0,0,0,0,12.218,5.126,5.126,0,0,0,4.177-2.112v1.368a3.837,3.837,0,0,1-4.009,4.153,5.136,5.136,0,0,1-4.2-2.016l-1.44,1.44a7.125,7.125,0,0,0,5.665,2.448C390.026,222.145,392.666,220.2,392.666,216.192Zm-10.01-5.449a4.059,4.059,0,1,1,4.057,4.2A4,4,0,0,1,382.656,210.743Zm21.215,0.144a6.006,6.006,0,0,0,5.881,6.241,5.263,5.263,0,0,0,4.225-2.088v1.848h2.065v-12h-2.065v1.848a5.263,5.263,0,0,0-4.225-2.088A6.006,6.006,0,0,0,403.871,210.887Zm10.274,0a4.1,4.1,0,1,1-4.08-4.345A4.1,4.1,0,0,1,414.145,210.887Zm14.76,2.665c0-1.8-1.128-2.953-3.169-3.625l-1.3-.432c-1.416-.456-1.849-0.912-1.849-1.68,0-.888.889-1.393,2.017-1.393a3.243,3.243,0,0,1,2.544,1.249l1.345-1.3a4.656,4.656,0,0,0-3.841-1.728c-2.377,0-4.057,1.32-4.057,3.265,0,1.68,1.032,2.856,2.977,3.48l1.176,0.384c1.56,0.5,2.136,1.081,2.136,1.921,0,1.032-.936,1.632-2.112,1.632a3.222,3.222,0,0,1-3.073-1.9l-1.68.912a4.768,4.768,0,0,0,4.7,2.784C427.152,217.128,428.905,215.9,428.905,213.552Zm10.269-2.665a6.006,6.006,0,0,0,5.882,6.241,5.266,5.266,0,0,0,4.225-2.088v1.848h2.064v-12h-2.064v1.848a5.266,5.266,0,0,0-4.225-2.088A6.007,6.007,0,0,0,439.174,210.887Zm10.275,0a4.1,4.1,0,1,1-4.081-4.345A4.1,4.1,0,0,1,449.449,210.887Zm14.349,6h2.233v-7.657H472.1v-2.112h-6.073v-5.161h7.681v-2.113H463.8v17.043Zm12.888,0h2.065v-5.953c0-2.808,1.656-4.129,3.168-4.129a3.018,3.018,0,0,1,1.128.193v-2.137a4.276,4.276,0,0,0-.936-0.1,3.57,3.57,0,0,0-3.36,2.449v-2.329h-2.065v12Zm8.616-6a6.328,6.328,0,0,0,11.619,3.385l-1.633-1.128a4.249,4.249,0,0,1-7.9-1.849h9.842a5.856,5.856,0,0,0,.024-0.624c-0.024-3.841-2.569-6.025-5.714-6.025A6.083,6.083,0,0,0,485.3,210.887Zm6.169-4.417a3.591,3.591,0,0,1,3.673,3.145h-7.609A3.924,3.924,0,0,1,491.471,206.47Zm9.911,10.418h2.065v-5.953c0-2.808,1.536-4.393,3.48-4.393,1.681,0,2.833,1.249,2.833,3.265v7.081h2.04V209.5c0-2.977-1.848-4.849-4.537-4.849a4.243,4.243,0,0,0-3.816,2.088v-1.848h-2.065v12Zm26.234-2.976-1.8-1.008a4.069,4.069,0,0,1-3.745,2.3,4.323,4.323,0,0,1,0-8.642,4.07,4.07,0,0,1,3.745,2.305l1.8-1.008a6.214,6.214,0,0,0-5.545-3.217,6.241,6.241,0,1,0,0,12.482A6.215,6.215,0,0,0,527.616,213.912Zm3.862,2.976h2.064v-5.953c0-2.808,1.536-4.393,3.481-4.393,1.68,0,2.832,1.249,2.832,3.265v7.081H541.9V209.5c0-2.977-1.849-4.849-4.537-4.849a4.245,4.245,0,0,0-3.817,2.088v-7.849h-2.064v18Zm22.7,0h2.233v-7.657h6.073v-2.112h-6.073v-5.161H564.1v-2.113h-9.914v17.043Zm24.314-6a6.277,6.277,0,1,0-6.265,6.241A6.159,6.159,0,0,0,578.5,210.887Zm-10.442,0a4.168,4.168,0,1,1,4.177,4.321A4.126,4.126,0,0,1,568.053,210.887Zm14.592,6h2.064v-5.953c0-2.808,1.656-4.129,3.169-4.129a3.018,3.018,0,0,1,1.128.193v-2.137a4.276,4.276,0,0,0-.936-0.1,3.571,3.571,0,0,0-3.361,2.449v-2.329h-2.064v12Zm8.616-6a6.328,6.328,0,0,0,11.618,3.385l-1.632-1.128a4.25,4.25,0,0,1-7.9-1.849h9.842a5.856,5.856,0,0,0,.024-0.624c-0.024-3.841-2.568-6.025-5.713-6.025A6.082,6.082,0,0,0,591.261,210.887Zm6.169-4.417a3.592,3.592,0,0,1,3.673,3.145h-7.61A3.925,3.925,0,0,1,597.43,206.47Zm12.407-6.265a1.449,1.449,0,0,0-1.44-1.464,1.465,1.465,0,1,0,0,2.929A1.435,1.435,0,0,0,609.837,200.205Zm-2.5,16.683h2.064v-12h-2.064v12Zm18.362-.7V204.886h-2.065v1.848a5.106,5.106,0,0,0-4.176-2.088,6.114,6.114,0,0,0,0,12.218,5.124,5.124,0,0,0,4.176-2.112v1.368a3.836,3.836,0,0,1-4.008,4.153,5.134,5.134,0,0,1-4.2-2.016l-1.441,1.44a7.128,7.128,0,0,0,5.666,2.448C623.062,222.145,625.7,220.2,625.7,216.192Zm-10.01-5.449a4.059,4.059,0,1,1,4.057,4.2A4,4,0,0,1,615.693,210.743Zm15.1,6.145h2.065v-5.953c0-2.808,1.536-4.393,3.48-4.393,1.681,0,2.833,1.249,2.833,3.265v7.081h2.04V209.5c0-2.977-1.848-4.849-4.536-4.849a4.244,4.244,0,0,0-3.817,2.088v-1.848h-2.065v12Zm22.7,0h10.466v-2.112h-8.234V199.845h-2.232v17.043Zm12.72-6a6.328,6.328,0,0,0,11.618,3.385l-1.632-1.128a4.25,4.25,0,0,1-7.9-1.849h9.842a5.856,5.856,0,0,0,.024-0.624c-0.024-3.841-2.568-6.025-5.713-6.025A6.082,6.082,0,0,0,666.212,210.887Zm6.169-4.417a3.592,3.592,0,0,1,3.673,3.145h-7.61A3.924,3.924,0,0,1,672.381,206.47Zm21.1,9.722V204.886h-2.064v1.848a5.109,5.109,0,0,0-4.177-2.088,6.114,6.114,0,0,0,0,12.218,5.128,5.128,0,0,0,4.177-2.112v1.368a3.837,3.837,0,0,1-4.009,4.153,5.134,5.134,0,0,1-4.2-2.016l-1.441,1.44a7.128,7.128,0,0,0,5.666,2.448C690.837,222.145,693.478,220.2,693.478,216.192Zm-10.01-5.449a4.059,4.059,0,1,1,4.057,4.2A4,4,0,0,1,683.468,210.743Zm17.592-10.538a1.449,1.449,0,0,0-1.44-1.464,1.465,1.465,0,1,0,0,2.929A1.435,1.435,0,0,0,701.06,200.205Zm-2.5,16.683h2.065v-12h-2.065v12Zm18.771-6a6.278,6.278,0,1,0-6.266,6.241A6.16,6.16,0,0,0,717.334,210.887Zm-10.443,0a4.168,4.168,0,1,1,4.177,4.321A4.126,4.126,0,0,1,706.891,210.887Zm14.592,6h2.064v-5.953c0-2.808,1.537-4.393,3.481-4.393,1.68,0,2.833,1.249,2.833,3.265v7.081h2.04V209.5c0-2.977-1.848-4.849-4.537-4.849a4.245,4.245,0,0,0-3.817,2.088v-1.848h-2.064v12ZM41.26,245.688h6.1c3.457,0,5.713-2.137,5.713-4.969a4.061,4.061,0,0,0-2.953-4.081,3.862,3.862,0,0,0,1.824-3.481c0-2.4-1.92-4.513-5.089-4.513H41.26v17.044Zm2.233-9.722v-5.305h3.361a2.679,2.679,0,0,1,2.9,2.664,2.623,2.623,0,0,1-2.9,2.641H43.493Zm0,7.7v-5.785h3.985c2.256,0,3.409,1.248,3.409,2.905,0,1.68-1.152,2.88-3.433,2.88H43.493Zm25.346-3.984a6.277,6.277,0,1,0-6.265,6.241A6.16,6.16,0,0,0,68.839,239.687Zm-10.442,0a4.168,4.168,0,1,1,4.177,4.32A4.125,4.125,0,0,1,58.4,239.687Zm26.186,0a6.277,6.277,0,1,0-6.265,6.241A6.16,6.16,0,0,0,84.582,239.687Zm-10.442,0a4.168,4.168,0,1,1,4.177,4.32A4.125,4.125,0,0,1,74.14,239.687Zm20.881,5.833v-1.849a4.564,4.564,0,0,1-1.464.24c-1.3,0-1.993-.5-1.993-2.04v-6.289h3.457v-1.9H91.565v-3.336H89.5v3.336H86.956v1.9H89.5v6.553a3.379,3.379,0,0,0,3.673,3.673A5.745,5.745,0,0,0,95.021,245.52ZM98.188,240H110.31v-2.065H98.188V240Zm24.6,2.352c0-1.8-1.128-2.953-3.168-3.625l-1.3-.432c-1.417-.456-1.849-0.912-1.849-1.68,0-.888.888-1.392,2.017-1.392a3.242,3.242,0,0,1,2.544,1.248l1.344-1.3a4.652,4.652,0,0,0-3.84-1.729c-2.377,0-4.057,1.321-4.057,3.265,0,1.68,1.032,2.856,2.976,3.481l1.177,0.384c1.56,0.5,2.136,1.08,2.136,1.92,0,1.032-.936,1.632-2.112,1.632a3.221,3.221,0,0,1-3.073-1.9l-1.68.912a4.766,4.766,0,0,0,4.7,2.785C121.037,245.928,122.789,244.7,122.789,242.351Zm6.647-13.346A1.45,1.45,0,0,0,128,227.54a1.491,1.491,0,0,0-1.488,1.465A1.475,1.475,0,0,0,128,230.469,1.434,1.434,0,0,0,129.436,229.005Zm-2.5,16.683H129v-12H126.94v12Zm7.175,0h2.065v-5.953c0-2.809,1.536-4.393,3.481-4.393,1.68,0,2.832,1.248,2.832,3.264v7.082h2.041v-7.394c0-2.976-1.849-4.849-4.537-4.849a4.243,4.243,0,0,0-3.817,2.089v-1.849h-2.065v12Zm26.235-2.977-1.8-1.008a4.068,4.068,0,0,1-3.745,2.3,4.322,4.322,0,0,1,0-8.641,4.068,4.068,0,0,1,3.745,2.3l1.8-1.008a6.218,6.218,0,0,0-5.546-3.217,6.242,6.242,0,1,0,0,12.483A6.218,6.218,0,0,0,160.35,242.711Zm2.925-3.024a6.327,6.327,0,0,0,11.618,3.384l-1.632-1.128a4.25,4.25,0,0,1-7.9-1.848h9.842a5.864,5.864,0,0,0,.024-0.625c-0.024-3.84-2.568-6.025-5.713-6.025A6.082,6.082,0,0,0,163.275,239.687Zm6.169-4.417a3.591,3.591,0,0,1,3.673,3.144h-7.61A3.924,3.924,0,0,1,169.444,235.27Zm16.966,15.435h2.065v-6.866a5.261,5.261,0,0,0,4.225,2.089,6.253,6.253,0,0,0,0-12.483,5.264,5.264,0,0,0-4.225,2.089v-1.849H186.41v17.02Zm10.059-11.018a4.089,4.089,0,1,1-4.081-4.345A4.1,4.1,0,0,1,196.469,239.687Zm5.349,0a6.006,6.006,0,0,0,5.881,6.241,5.261,5.261,0,0,0,4.225-2.089v1.849h2.065v-12h-2.065v1.849a5.264,5.264,0,0,0-4.225-2.089A6.007,6.007,0,0,0,201.818,239.687Zm10.274,0a4.1,4.1,0,1,1-4.081-4.345A4.1,4.1,0,0,1,212.092,239.687Zm10.727,6h1.728l5.545-12h-2.3l-4.105,9.074-4.1-9.074h-2.3Zm13.055-16.683a1.45,1.45,0,0,0-1.44-1.465,1.491,1.491,0,0,0-1.488,1.465,1.475,1.475,0,0,0,1.488,1.464A1.434,1.434,0,0,0,235.874,229.005Zm-2.5,16.683h2.064v-12h-2.064v12Zm7.176,0h2.064v-5.953c0-2.809,1.536-4.393,3.481-4.393,1.68,0,2.832,1.248,2.832,3.264v7.082h2.041v-7.394c0-2.976-1.848-4.849-4.537-4.849a4.244,4.244,0,0,0-3.817,2.089v-1.849h-2.064v12Zm26.522-.7V233.685h-2.065v1.849a5.107,5.107,0,0,0-4.177-2.089,6.115,6.115,0,0,0,0,12.219,5.126,5.126,0,0,0,4.177-2.113v1.368A3.836,3.836,0,0,1,261,249.072a5.134,5.134,0,0,1-4.2-2.016l-1.441,1.44a7.129,7.129,0,0,0,5.666,2.449C264.435,250.945,267.076,249,267.076,244.992Zm-10.01-5.45a4.059,4.059,0,1,1,4.057,4.2A4,4,0,0,1,257.066,239.542Zm24.647-10.537a1.45,1.45,0,0,0-1.44-1.465,1.491,1.491,0,0,0-1.488,1.465,1.475,1.475,0,0,0,1.488,1.464A1.434,1.434,0,0,0,281.713,229.005Zm-2.5,16.683h2.064v-12h-2.064v12Zm13.681-.168v-1.849a4.562,4.562,0,0,1-1.464.24c-1.3,0-1.993-.5-1.993-2.04v-6.289H292.9v-1.9h-3.457v-3.336h-2.064v3.336h-2.545v1.9h2.545v6.553a3.379,3.379,0,0,0,3.673,3.673A5.743,5.743,0,0,0,292.9,245.52Zm11.616-3.169c0-1.8-1.128-2.953-3.168-3.625l-1.3-.432c-1.416-.456-1.848-0.912-1.848-1.68,0-.888.888-1.392,2.016-1.392a3.243,3.243,0,0,1,2.545,1.248l1.344-1.3a4.652,4.652,0,0,0-3.841-1.729c-2.376,0-4.056,1.321-4.056,3.265,0,1.68,1.032,2.856,2.976,3.481l1.176,0.384c1.561,0.5,2.137,1.08,2.137,1.92,0,1.032-.936,1.632-2.113,1.632a3.221,3.221,0,0,1-3.072-1.9l-1.681.912a4.768,4.768,0,0,0,4.7,2.785C302.762,245.928,304.514,244.7,304.514,242.351Zm20.953,3.337h1.824l4.081-12h-2.185l-2.9,8.762-3-8.762H321.7l-3,8.762-2.9-8.762h-2.161l4.081,12h1.824l2.977-8.642Zm8.349-6a6.006,6.006,0,0,0,5.881,6.241,5.261,5.261,0,0,0,4.225-2.089v1.849h2.064v-12h-2.064v1.849a5.264,5.264,0,0,0-4.225-2.089A6.006,6.006,0,0,0,333.816,239.687Zm10.274,0a4.1,4.1,0,1,1-4.081-4.345A4.1,4.1,0,0,1,344.09,239.687Zm10.175,11.018,7.873-17.02h-2.3l-4.105,9.1-4.129-9.1h-2.281l5.258,11.379-2.617,5.641h2.305Zm23.76-5.185v-1.849a4.562,4.562,0,0,1-1.464.24c-1.3,0-1.993-.5-1.993-2.04v-6.289h3.457v-1.9h-3.457v-3.336H372.5v3.336h-2.545v1.9H372.5v6.553a3.379,3.379,0,0,0,3.673,3.673A5.743,5.743,0,0,0,378.025,245.52Zm15.265-5.833a6.277,6.277,0,1,0-6.265,6.241A6.159,6.159,0,0,0,393.29,239.687Zm-10.442,0a4.168,4.168,0,1,1,4.177,4.32A4.126,4.126,0,0,1,382.848,239.687Zm21.647,6h2.065v-5.953c0-2.809,1.536-4.393,3.481-4.393,1.68,0,2.832,1.248,2.832,3.264v7.082h2.041v-7.394c0-2.976-1.849-4.849-4.537-4.849a4.243,4.243,0,0,0-3.817,2.089v-1.849H404.5v12Zm15.168-4.633c0,2.976,1.777,4.873,4.417,4.873a4.129,4.129,0,0,0,3.7-2.089v1.849h2.064v-12h-2.064v5.954c0,2.76-1.464,4.392-3.337,4.392-1.656,0-2.712-1.272-2.712-3.288v-7.058h-2.065v7.37Zm15.264,4.633h2.064v-5.953c0-2.713,1.369-4.393,3.313-4.393,1.561,0,2.353,1.344,2.353,3.288v7.058h2.064v-5.953c0-2.713,1.344-4.393,3.289-4.393,1.56,0,2.376,1.344,2.376,3.288v7.058h2.065v-7.37c0-2.928-1.585-4.873-4.2-4.873a4.155,4.155,0,0,0-3.937,2.569,3.773,3.773,0,0,0-3.7-2.569,4.035,4.035,0,0,0-3.625,2.089v-1.849h-2.064v12Zm21.5-6a6.327,6.327,0,0,0,11.618,3.384l-1.632-1.128a4.25,4.25,0,0,1-7.9-1.848h9.842a5.864,5.864,0,0,0,.024-0.625c-0.024-3.84-2.568-6.025-5.713-6.025A6.082,6.082,0,0,0,456.431,239.687Zm6.169-4.417a3.591,3.591,0,0,1,3.673,3.144h-7.61A3.924,3.924,0,0,1,462.6,235.27Zm9.911,10.418h2.064v-5.953c0-2.809,1.657-4.129,3.169-4.129a3.017,3.017,0,0,1,1.128.192v-2.137a4.276,4.276,0,0,0-.936-0.1,3.572,3.572,0,0,0-3.361,2.449v-2.329h-2.064v12Zm21.146-6a6.277,6.277,0,1,0-6.265,6.241A6.159,6.159,0,0,0,493.657,239.687Zm-10.442,0a4.168,4.168,0,1,1,4.177,4.32A4.126,4.126,0,0,1,483.215,239.687Zm14.424,1.368c0,2.976,1.776,4.873,4.417,4.873a4.128,4.128,0,0,0,3.7-2.089v1.849h2.065v-12h-2.065v5.954c0,2.76-1.464,4.392-3.336,4.392-1.657,0-2.713-1.272-2.713-3.288v-7.058h-2.064v7.37Zm23.041,1.3c0-1.8-1.128-2.953-3.168-3.625l-1.3-.432c-1.416-.456-1.848-0.912-1.848-1.68,0-.888.888-1.392,2.016-1.392a3.244,3.244,0,0,1,2.545,1.248l1.344-1.3a4.652,4.652,0,0,0-3.841-1.729c-2.376,0-4.057,1.321-4.057,3.265,0,1.68,1.033,2.856,2.977,3.481l1.176,0.384c1.561,0.5,2.137,1.08,2.137,1.92,0,1.032-.936,1.632-2.113,1.632a3.221,3.221,0,0,1-3.072-1.9l-1.681.912a4.767,4.767,0,0,0,4.705,2.785C518.928,245.928,520.68,244.7,520.68,242.351Zm11.206,3.337h2.064v-5.953c0-2.809,1.657-4.129,3.169-4.129a3.017,3.017,0,0,1,1.128.192v-2.137a4.276,4.276,0,0,0-.936-0.1,3.573,3.573,0,0,0-3.361,2.449v-2.329h-2.064v12Zm8.616-6a6.327,6.327,0,0,0,11.618,3.384l-1.632-1.128a4.25,4.25,0,0,1-7.9-1.848h9.842a5.631,5.631,0,0,0,.025-0.625c-0.025-3.84-2.569-6.025-5.714-6.025A6.083,6.083,0,0,0,540.5,239.687Zm6.169-4.417a3.591,3.591,0,0,1,3.673,3.144h-7.61A3.925,3.925,0,0,1,546.671,235.27Zm9.911,10.418h2.064v-5.953c0-2.809,1.537-4.393,3.481-4.393,1.681,0,2.833,1.248,2.833,3.264v7.082H567v-7.394c0-2.976-1.848-4.849-4.537-4.849a4.245,4.245,0,0,0-3.817,2.089v-1.849h-2.064v12Zm14.4-6a6.006,6.006,0,0,0,5.881,6.241,5.262,5.262,0,0,0,4.225-2.089v1.849h2.064v-18h-2.064v7.85a5.265,5.265,0,0,0-4.225-2.089A6.006,6.006,0,0,0,570.982,239.687Zm10.274,0a4.1,4.1,0,1,1-4.081-4.345A4.1,4.1,0,0,1,581.256,239.687Zm9.478-10.682a1.45,1.45,0,0,0-1.44-1.465,1.492,1.492,0,0,0-1.489,1.465,1.476,1.476,0,0,0,1.489,1.464A1.434,1.434,0,0,0,590.734,229.005Zm-2.5,16.683H590.3v-12h-2.064v12Zm13.681-.168v-1.849a4.564,4.564,0,0,1-1.465.24c-1.3,0-1.992-.5-1.992-2.04v-6.289h3.457v-1.9h-3.457v-3.336H596.4v3.336h-2.545v1.9H596.4v6.553a3.379,3.379,0,0,0,3.672,3.673A5.749,5.749,0,0,0,601.919,245.52Zm6.335-16.515a1.45,1.45,0,0,0-1.44-1.465,1.491,1.491,0,0,0-1.489,1.465,1.475,1.475,0,0,0,1.489,1.464A1.434,1.434,0,0,0,608.254,229.005Zm-2.5,16.683h2.065v-12h-2.065v12Zm18.771-6a6.278,6.278,0,1,0-6.266,6.241A6.16,6.16,0,0,0,624.528,239.687Zm-10.443,0a4.168,4.168,0,1,1,4.177,4.32A4.126,4.126,0,0,1,614.085,239.687Zm14.592,6h2.064v-5.953c0-2.809,1.537-4.393,3.481-4.393,1.68,0,2.833,1.248,2.833,3.264v7.082h2.04v-7.394c0-2.976-1.848-4.849-4.537-4.849a4.244,4.244,0,0,0-3.817,2.089v-1.849h-2.064v12Zm23.113-3.337c0-1.8-1.128-2.953-3.168-3.625l-1.3-.432c-1.416-.456-1.848-0.912-1.848-1.68,0-.888.888-1.392,2.016-1.392a3.244,3.244,0,0,1,2.545,1.248l1.344-1.3a4.652,4.652,0,0,0-3.841-1.729c-2.376,0-4.057,1.321-4.057,3.265,0,1.68,1.033,2.856,2.977,3.481l1.176,0.384c1.561,0.5,2.137,1.08,2.137,1.92,0,1.032-.936,1.632-2.113,1.632a3.221,3.221,0,0,1-3.072-1.9l-1.681.912a4.767,4.767,0,0,0,4.705,2.785C650.038,245.928,651.79,244.7,651.79,242.351Zm7.007,1.728a1.777,1.777,0,1,0-1.776,1.8A1.808,1.808,0,0,0,658.8,244.079ZM44.717,274.487H46.9V259.556h5.305v-2.112H39.412v2.112h5.305v14.931Zm20.546-6A6.277,6.277,0,1,0,59,274.727,6.159,6.159,0,0,0,65.263,268.486Zm-10.442,0A4.168,4.168,0,1,1,59,272.807,4.125,4.125,0,0,1,54.82,268.486Zm13.655,0a6.006,6.006,0,0,0,5.881,6.241,5.264,5.264,0,0,0,4.225-2.088v1.848h2.064v-18H78.582v7.849a5.264,5.264,0,0,0-4.225-2.088A6.006,6.006,0,0,0,68.476,268.486Zm10.274,0a4.1,4.1,0,1,1-4.081-4.345A4.1,4.1,0,0,1,78.75,268.486Zm6.046,0a6.006,6.006,0,0,0,5.881,6.241,5.264,5.264,0,0,0,4.225-2.088v1.848h2.064v-12H94.9v1.848a5.264,5.264,0,0,0-4.225-2.088A6.006,6.006,0,0,0,84.8,268.486Zm10.274,0a4.1,4.1,0,1,1-4.081-4.345A4.1,4.1,0,0,1,95.07,268.486ZM105.244,279.5l7.874-17.019h-2.3l-4.105,9.1-4.129-9.1H100.3l5.257,11.378L102.94,279.5h2.3Zm14.208-19.468a2.121,2.121,0,0,0,.336-1.08,1.789,1.789,0,1,0-3.577,0,1.86,1.86,0,0,0,.984,1.608L115.587,264h1.392Zm11.209,11.114c0-1.8-1.128-2.952-3.169-3.624l-1.3-.433c-1.416-.456-1.848-0.912-1.848-1.68,0-.888.888-1.392,2.016-1.392a3.244,3.244,0,0,1,2.545,1.248l1.344-1.3a4.654,4.654,0,0,0-3.841-1.728c-2.376,0-4.057,1.32-4.057,3.264,0,1.681,1.033,2.857,2.977,3.481l1.176,0.384c1.561,0.5,2.137,1.08,2.137,1.92,0,1.032-.937,1.633-2.113,1.633a3.221,3.221,0,0,1-3.072-1.9l-1.681.912a4.767,4.767,0,0,0,4.7,2.785C128.909,274.727,130.661,273.5,130.661,271.15ZM141,265.965a8.857,8.857,0,0,0,16.347,4.681l-1.872-1.128a6.7,6.7,0,1,1,0-7.1l1.872-1.129A8.858,8.858,0,0,0,141,265.965Zm20.184,8.522h2.064v-5.953c0-2.809,1.536-4.393,3.481-4.393,1.68,0,2.832,1.248,2.832,3.265v7.081h2.041v-7.394c0-2.976-1.848-4.848-4.537-4.848a4.245,4.245,0,0,0-3.817,2.088v-7.849h-2.064v18Zm15.167-4.633c0,2.977,1.777,4.873,4.417,4.873a4.129,4.129,0,0,0,3.7-2.088v1.848h2.065v-12h-2.065v5.953c0,2.76-1.464,4.393-3.337,4.393-1.656,0-2.712-1.273-2.712-3.289v-7.057h-2.065v7.369Zm15.264,4.633h2.065v-6l6.5,6h2.785l-7.226-6.7,5.9-5.305h-2.736l-5.233,4.681V256.484h-2.065v18Zm14.136,0h2.064v-6l6.506,6h2.784l-7.225-6.7,5.905-5.305h-2.736l-5.234,4.681V256.484h-2.064v18Zm12.432-6a6.006,6.006,0,0,0,5.881,6.241,5.264,5.264,0,0,0,4.225-2.088v1.848h2.064v-12h-2.064v1.848a5.264,5.264,0,0,0-4.225-2.088A6.005,6.005,0,0,0,218.186,268.486Zm10.274,0a4.1,4.1,0,1,1-4.081-4.345A4.1,4.1,0,0,1,228.46,268.486Zm14.349,6h6.1c3.456,0,5.713-2.137,5.713-4.969a4.062,4.062,0,0,0-2.953-4.081,3.863,3.863,0,0,0,1.825-3.48c0-2.4-1.921-4.513-5.09-4.513h-5.593v17.043Zm2.233-9.722V259.46h3.36a2.679,2.679,0,0,1,2.905,2.665,2.623,2.623,0,0,1-2.905,2.64h-3.36Zm0,7.706v-5.786h3.985c2.256,0,3.408,1.249,3.408,2.9,0,1.68-1.152,2.881-3.432,2.881h-3.961Zm25.346-3.985a6.278,6.278,0,1,0-6.266,6.241A6.159,6.159,0,0,0,270.388,268.486Zm-10.443,0a4.168,4.168,0,1,1,4.177,4.321A4.126,4.126,0,0,1,259.945,268.486Zm26.186,0a6.277,6.277,0,1,0-6.265,6.241A6.159,6.159,0,0,0,286.131,268.486Zm-10.442,0a4.168,4.168,0,1,1,4.177,4.321A4.125,4.125,0,0,1,275.689,268.486Zm20.881,5.833v-1.848a4.562,4.562,0,0,1-1.464.24c-1.3,0-1.993-.5-1.993-2.041v-6.289h3.457v-1.9h-3.457v-3.337h-2.064v3.337H288.5v1.9h2.545v6.553a3.378,3.378,0,0,0,3.673,3.673A5.743,5.743,0,0,0,296.57,274.319ZM309.961,257.8a1.45,1.45,0,0,0-1.44-1.465,1.492,1.492,0,0,0-1.489,1.465,1.476,1.476,0,0,0,1.489,1.464A1.434,1.434,0,0,0,309.961,257.8Zm-2.5,16.683h2.065v-12h-2.065v12Zm14.954-3.337c0-1.8-1.128-2.952-3.169-3.624l-1.3-.433c-1.416-.456-1.848-0.912-1.848-1.68,0-.888.888-1.392,2.016-1.392a3.246,3.246,0,0,1,2.545,1.248l1.344-1.3a4.656,4.656,0,0,0-3.841-1.728c-2.376,0-4.057,1.32-4.057,3.264,0,1.681,1.032,2.857,2.977,3.481l1.176,0.384c1.56,0.5,2.137,1.08,2.137,1.92,0,1.032-.937,1.633-2.113,1.633a3.224,3.224,0,0,1-3.073-1.9l-1.68.912a4.767,4.767,0,0,0,4.7,2.785C320.666,274.727,322.418,273.5,322.418,271.15Zm10.27-2.664a6.006,6.006,0,0,0,5.881,6.241,5.264,5.264,0,0,0,4.225-2.088v1.848h2.064v-12h-2.064v1.848a5.264,5.264,0,0,0-4.225-2.088A6.005,6.005,0,0,0,332.688,268.486Zm10.274,0a4.1,4.1,0,1,1-4.081-4.345A4.1,4.1,0,0,1,342.962,268.486Zm14.037,6h2.065v-5.953c0-2.809,1.536-4.393,3.48-4.393,1.681,0,2.833,1.248,2.833,3.265v7.081h2.04v-7.394c0-2.976-1.848-4.848-4.536-4.848a4.244,4.244,0,0,0-3.817,2.088v-1.848H357v12Zm26.93-6a6.277,6.277,0,1,0-6.265,6.241A6.159,6.159,0,0,0,383.929,268.486Zm-10.442,0a4.168,4.168,0,1,1,4.177,4.321A4.126,4.126,0,0,1,373.487,268.486Zm13.655,0a6.007,6.007,0,0,0,5.882,6.241,5.266,5.266,0,0,0,4.225-2.088v1.848h2.064v-18h-2.064v7.849a5.266,5.266,0,0,0-4.225-2.088A6.006,6.006,0,0,0,387.142,268.486Zm10.275,0a4.1,4.1,0,1,1-4.081-4.345A4.1,4.1,0,0,1,397.417,268.486Zm20.135,5.833v-1.848a4.568,4.568,0,0,1-1.465.24c-1.3,0-1.992-.5-1.992-2.041v-6.289h3.457v-1.9H414.1v-3.337H412.03v3.337h-2.544v1.9h2.544v6.553a3.379,3.379,0,0,0,3.673,3.673A5.754,5.754,0,0,0,417.552,274.319Zm15.265-5.833a6.278,6.278,0,1,0-6.265,6.241A6.159,6.159,0,0,0,432.817,268.486Zm-10.442,0a4.167,4.167,0,1,1,4.177,4.321A4.125,4.125,0,0,1,422.375,268.486Zm27.744,5.833v-1.848a4.562,4.562,0,0,1-1.464.24c-1.3,0-1.992-.5-1.992-2.041v-6.289h3.456v-1.9h-3.456v-3.337H444.6v3.337h-2.544v1.9H444.6v6.553a3.378,3.378,0,0,0,3.673,3.673A5.743,5.743,0,0,0,450.119,274.319Zm3.839,0.168h2.064v-5.953c0-2.809,1.537-4.393,3.481-4.393,1.68,0,2.833,1.248,2.833,3.265v7.081h2.04v-7.394c0-2.976-1.848-4.848-4.537-4.848a4.245,4.245,0,0,0-3.817,2.088v-7.849h-2.064v18Zm14.4-6a6.328,6.328,0,0,0,11.619,3.384l-1.633-1.128a4.249,4.249,0,0,1-7.9-1.848h9.842a5.856,5.856,0,0,0,.024-0.624c-0.024-3.841-2.569-6.025-5.713-6.025A6.082,6.082,0,0,0,468.357,268.486Zm6.17-4.417a3.59,3.59,0,0,1,3.672,3.145H470.59A3.923,3.923,0,0,1,474.527,264.069Zm17.278,10.418h6.1c3.457,0,5.714-2.137,5.714-4.969a4.062,4.062,0,0,0-2.953-4.081,3.862,3.862,0,0,0,1.824-3.48c0-2.4-1.92-4.513-5.089-4.513h-5.593v17.043Zm2.233-9.722V259.46h3.36a2.679,2.679,0,0,1,2.9,2.665,2.623,2.623,0,0,1-2.9,2.64h-3.36Zm0,7.706v-5.786h3.984c2.257,0,3.409,1.249,3.409,2.9,0,1.68-1.152,2.881-3.433,2.881h-3.96Zm13.727,2.016h2.065v-5.953c0-2.809,1.656-4.129,3.168-4.129a3.025,3.025,0,0,1,1.129.192v-2.136a4.285,4.285,0,0,0-.937-0.1,3.57,3.57,0,0,0-3.36,2.448v-2.328h-2.065v12ZM520.246,257.8a1.45,1.45,0,0,0-1.441-1.465,1.492,1.492,0,0,0-1.488,1.465,1.475,1.475,0,0,0,1.488,1.464A1.435,1.435,0,0,0,520.246,257.8Zm-2.5,16.683h2.065v-12h-2.065v12Zm13.681-.168v-1.848a4.562,4.562,0,0,1-1.464.24c-1.3,0-1.992-.5-1.992-2.041v-6.289h3.456v-1.9h-3.456v-3.337h-2.065v3.337h-2.544v1.9h2.544v6.553a3.379,3.379,0,0,0,3.673,3.673A5.743,5.743,0,0,0,531.43,274.319Zm6.335-16.515a1.45,1.45,0,0,0-1.44-1.465,1.492,1.492,0,0,0-1.488,1.465,1.475,1.475,0,0,0,1.488,1.464A1.434,1.434,0,0,0,537.765,257.8Zm-2.5,16.683h2.064v-12h-2.064v12Zm14.953-3.337c0-1.8-1.128-2.952-3.168-3.624l-1.3-.433c-1.416-.456-1.848-0.912-1.848-1.68,0-.888.888-1.392,2.016-1.392a3.243,3.243,0,0,1,2.545,1.248l1.344-1.3a4.654,4.654,0,0,0-3.841-1.728c-2.376,0-4.056,1.32-4.056,3.264,0,1.681,1.032,2.857,2.976,3.481l1.177,0.384c1.56,0.5,2.136,1.08,2.136,1.92,0,1.032-.936,1.633-2.112,1.633a3.222,3.222,0,0,1-3.073-1.9l-1.681.912a4.768,4.768,0,0,0,4.7,2.785C548.47,274.727,550.222,273.5,550.222,271.15Zm4.151,3.337h2.064v-5.953c0-2.809,1.536-4.393,3.481-4.393,1.68,0,2.832,1.248,2.832,3.265v7.081h2.041v-7.394c0-2.976-1.849-4.848-4.537-4.848a4.244,4.244,0,0,0-3.817,2.088v-7.849h-2.064v18Zm30.169-3.337c0-1.8-1.129-2.952-3.169-3.624l-1.3-.433c-1.417-.456-1.849-0.912-1.849-1.68,0-.888.888-1.392,2.017-1.392a3.242,3.242,0,0,1,2.544,1.248l1.345-1.3a4.657,4.657,0,0,0-3.841-1.728c-2.377,0-4.057,1.32-4.057,3.264,0,1.681,1.032,2.857,2.976,3.481l1.177,0.384c1.56,0.5,2.136,1.08,2.136,1.92,0,1.032-.936,1.633-2.112,1.633a3.222,3.222,0,0,1-3.073-1.9l-1.68.912a4.766,4.766,0,0,0,4.705,2.785C582.789,274.727,584.542,273.5,584.542,271.15Zm15.744-2.664a6.277,6.277,0,1,0-6.265,6.241A6.159,6.159,0,0,0,600.286,268.486Zm-10.442,0a4.168,4.168,0,1,1,4.177,4.321A4.125,4.125,0,0,1,589.844,268.486Zm14.591,6H606.5v-18h-2.065v18Zm6.24-6a6.006,6.006,0,0,0,5.881,6.241,5.263,5.263,0,0,0,4.225-2.088v1.848h2.065v-18h-2.065v7.849a5.263,5.263,0,0,0-4.225-2.088A6.006,6.006,0,0,0,610.675,268.486Zm10.274,0a4.1,4.1,0,1,1-4.081-4.345A4.1,4.1,0,0,1,620.949,268.486Zm9.479-10.682a1.451,1.451,0,0,0-1.441-1.465A1.492,1.492,0,0,0,627.5,257.8a1.475,1.475,0,0,0,1.488,1.464A1.435,1.435,0,0,0,630.428,257.8Zm-2.5,16.683H630v-12h-2.064v12Zm6.24-6a6.327,6.327,0,0,0,11.618,3.384l-1.632-1.128a4.25,4.25,0,0,1-7.9-1.848H646.1a5.856,5.856,0,0,0,.024-0.624c-0.024-3.841-2.568-6.025-5.713-6.025A6.081,6.081,0,0,0,634.171,268.486Zm6.169-4.417a3.591,3.591,0,0,1,3.673,3.145H636.4A3.924,3.924,0,0,1,640.34,264.069Zm9.911,10.418h2.064v-5.953c0-2.809,1.657-4.129,3.169-4.129a3.017,3.017,0,0,1,1.128.192v-2.136a4.276,4.276,0,0,0-.936-0.1,3.571,3.571,0,0,0-3.361,2.448v-2.328h-2.064v12ZM667.8,271.15c0-1.8-1.129-2.952-3.169-3.624l-1.3-.433c-1.417-.456-1.849-0.912-1.849-1.68,0-.888.888-1.392,2.017-1.392a3.242,3.242,0,0,1,2.544,1.248l1.345-1.3a4.657,4.657,0,0,0-3.841-1.728c-2.377,0-4.057,1.32-4.057,3.264,0,1.681,1.032,2.857,2.976,3.481l1.177,0.384c1.56,0.5,2.136,1.08,2.136,1.92,0,1.032-.936,1.633-2.112,1.633a3.222,3.222,0,0,1-3.073-1.9l-1.68.912a4.766,4.766,0,0,0,4.705,2.785C666.044,274.727,667.8,273.5,667.8,271.15Zm7.222-11.114a2.121,2.121,0,0,0,.336-1.08,1.788,1.788,0,1,0-3.576,0,1.86,1.86,0,0,0,.984,1.608L671.155,264h1.392ZM40.78,298.653c0,2.977,1.776,4.873,4.417,4.873a4.13,4.13,0,0,0,3.7-2.088v1.848h2.064v-12H48.894v5.953c0,2.761-1.464,4.393-3.337,4.393-1.656,0-2.713-1.272-2.713-3.289v-7.057H40.78v7.369Zm15.264,4.633h2.064v-5.953c0-2.809,1.536-4.393,3.481-4.393,1.68,0,2.833,1.248,2.833,3.265v7.081h2.04v-7.393c0-2.977-1.848-4.849-4.537-4.849a4.245,4.245,0,0,0-3.817,2.088v-1.848H56.044v12ZM73.876,286.6a1.45,1.45,0,0,0-1.44-1.464,1.491,1.491,0,0,0-1.488,1.464,1.475,1.475,0,0,0,1.488,1.464A1.435,1.435,0,0,0,73.876,286.6Zm-2.5,16.683h2.064v-12H71.38v12Zm8.184,0h2.064V293.18h3.481v-1.9H81.628v-2.209c0-1.512.672-2.04,1.993-2.04a4.835,4.835,0,0,1,1.488.24v-1.824a5.457,5.457,0,0,0-1.872-.312,3.427,3.427,0,0,0-3.673,3.72v2.425H77.019v1.9h2.545v10.106Zm20.282-6a6.277,6.277,0,1,0-6.265,6.241A6.159,6.159,0,0,0,99.846,297.285Zm-10.442,0a4.168,4.168,0,1,1,4.177,4.321A4.126,4.126,0,0,1,89.4,297.285Zm14.591,6h2.065v-5.953c0-2.809,1.656-4.129,3.169-4.129a3.017,3.017,0,0,1,1.128.192V291.26a4.276,4.276,0,0,0-.936-0.1,3.57,3.57,0,0,0-3.361,2.448v-2.328H104v12Zm9.984,0h2.065v-5.953c0-2.712,1.368-4.393,3.313-4.393,1.56,0,2.352,1.344,2.352,3.289v7.057h2.064v-5.953c0-2.712,1.345-4.393,3.289-4.393,1.561,0,2.377,1.344,2.377,3.289v7.057H131.5v-7.369c0-2.929-1.584-4.873-4.2-4.873a4.155,4.155,0,0,0-3.937,2.568,3.772,3.772,0,0,0-3.7-2.568,4.034,4.034,0,0,0-3.625,2.088v-1.848h-2.065v12ZM144.2,299.95c0-1.8-1.128-2.953-3.169-3.625l-1.3-.432c-1.416-.456-1.848-0.912-1.848-1.681,0-.888.888-1.392,2.016-1.392a3.246,3.246,0,0,1,2.545,1.248l1.344-1.3a4.656,4.656,0,0,0-3.841-1.728c-2.376,0-4.057,1.32-4.057,3.264,0,1.681,1.032,2.857,2.977,3.481l1.176,0.384c1.56,0.5,2.137,1.08,2.137,1.921,0,1.032-.937,1.632-2.113,1.632a3.221,3.221,0,0,1-3.073-1.9l-1.68.913a4.768,4.768,0,0,0,4.705,2.784C142.445,303.526,144.2,302.3,144.2,299.95Zm10.27-2.665a6.005,6.005,0,0,0,5.881,6.241,5.264,5.264,0,0,0,4.225-2.088v1.848h2.064v-18h-2.064v7.849a5.264,5.264,0,0,0-4.225-2.088A6.005,6.005,0,0,0,154.467,297.285Zm10.274,0a4.1,4.1,0,1,1-4.081-4.345A4.1,4.1,0,0,1,164.741,297.285Zm6.813,1.368c0,2.977,1.777,4.873,4.417,4.873a4.129,4.129,0,0,0,3.7-2.088v1.848h2.065v-12h-2.065v5.953c0,2.761-1.464,4.393-3.336,4.393-1.657,0-2.713-1.272-2.713-3.289v-7.057h-2.065v7.369Zm15.264,4.633h2.065v-5.953c0-2.809,1.656-4.129,3.169-4.129a3.017,3.017,0,0,1,1.128.192V291.26a4.276,4.276,0,0,0-.936-0.1,3.57,3.57,0,0,0-3.361,2.448v-2.328h-2.065v12ZM199.3,286.6a1.449,1.449,0,0,0-1.44-1.464,1.491,1.491,0,0,0-1.489,1.464,1.475,1.475,0,0,0,1.489,1.464A1.434,1.434,0,0,0,199.3,286.6Zm-2.5,16.683h2.065v-12H196.8v12Zm7.176,0h2.065v-5.953c0-2.809,1.536-4.393,3.48-4.393,1.681,0,2.833,1.248,2.833,3.265v7.081h2.04v-7.393c0-2.977-1.848-4.849-4.537-4.849a4.243,4.243,0,0,0-3.816,2.088v-1.848h-2.065v12Zm26.522-.7V291.284h-2.064v1.848a5.108,5.108,0,0,0-4.177-2.088,6.114,6.114,0,0,0,0,12.218,5.126,5.126,0,0,0,4.177-2.112v1.368a3.837,3.837,0,0,1-4.009,4.153,5.134,5.134,0,0,1-4.2-2.017l-1.44,1.441a7.125,7.125,0,0,0,5.665,2.448C227.86,308.543,230.5,306.6,230.5,302.59Zm-10.01-5.449a4.059,4.059,0,1,1,4.057,4.2A4,4,0,0,1,220.49,297.141Zm28.249,5.977V301.27a4.562,4.562,0,0,1-1.464.24c-1.3,0-1.993-.5-1.993-2.041V293.18h3.457v-1.9h-3.457v-3.337h-2.064v3.337h-2.545v1.9h2.545v6.553a3.378,3.378,0,0,0,3.672,3.673A5.744,5.744,0,0,0,248.739,303.118Zm3.838,0.168h2.065v-5.953c0-2.809,1.536-4.393,3.481-4.393,1.68,0,2.832,1.248,2.832,3.265v7.081H263v-7.393c0-2.977-1.849-4.849-4.537-4.849a4.244,4.244,0,0,0-3.817,2.088v-7.849h-2.065v18Zm14.4-6A6.328,6.328,0,0,0,278.6,300.67l-1.632-1.129a4.25,4.25,0,0,1-7.9-1.848h9.842a5.856,5.856,0,0,0,.024-0.624c-0.024-3.841-2.568-6.025-5.713-6.025A6.081,6.081,0,0,0,266.977,297.285Zm6.169-4.417a3.591,3.591,0,0,1,3.673,3.145h-7.61A3.924,3.924,0,0,1,273.146,292.868Zm30,10.418h1.992l4.657-17.043h-2.328l-3.577,13.3-4.921-13.586-4.9,13.586-3.577-13.3h-2.329l4.657,17.043h1.993L299,291.716Zm8.684-6a6.328,6.328,0,0,0,11.619,3.385l-1.632-1.129a4.25,4.25,0,0,1-7.9-1.848h9.842a5.856,5.856,0,0,0,.024-0.624c-0.024-3.841-2.569-6.025-5.713-6.025A6.082,6.082,0,0,0,311.832,297.285Zm6.17-4.417a3.59,3.59,0,0,1,3.672,3.145h-7.609A3.923,3.923,0,0,1,318,292.868Zm17.688,7.082c0-1.8-1.128-2.953-3.169-3.625l-1.3-.432c-1.416-.456-1.848-0.912-1.848-1.681,0-.888.888-1.392,2.016-1.392a3.244,3.244,0,0,1,2.545,1.248l1.344-1.3a4.654,4.654,0,0,0-3.841-1.728c-2.376,0-4.057,1.32-4.057,3.264,0,1.681,1.033,2.857,2.977,3.481l1.176,0.384c1.561,0.5,2.137,1.08,2.137,1.921,0,1.032-.937,1.632-2.113,1.632a3.22,3.22,0,0,1-3.072-1.9l-1.681.913a4.768,4.768,0,0,0,4.7,2.784C333.938,303.526,335.69,302.3,335.69,299.95Zm10.512,3.168V301.27a4.568,4.568,0,0,1-1.465.24c-1.3,0-1.992-.5-1.992-2.041V293.18H346.2v-1.9h-3.457v-3.337h-2.064v3.337h-2.545v1.9h2.545v6.553a3.378,3.378,0,0,0,3.672,3.673A5.749,5.749,0,0,0,346.2,303.118Zm2.734-5.833a6.328,6.328,0,0,0,11.619,3.385l-1.633-1.129a4.249,4.249,0,0,1-7.9-1.848h9.842a5.856,5.856,0,0,0,.024-0.624c-0.024-3.841-2.569-6.025-5.713-6.025A6.082,6.082,0,0,0,348.936,297.285Zm6.17-4.417a3.59,3.59,0,0,1,3.672,3.145h-7.609A3.923,3.923,0,0,1,355.106,292.868Zm9.91,10.418h2.065v-5.953c0-2.809,1.656-4.129,3.168-4.129a3.019,3.019,0,0,1,1.129.192V291.26a4.279,4.279,0,0,0-.937-0.1,3.57,3.57,0,0,0-3.36,2.448v-2.328h-2.065v12Zm9.984,0h2.065v-5.953c0-2.809,1.536-4.393,3.48-4.393,1.681,0,2.833,1.248,2.833,3.265v7.081h2.04v-7.393c0-2.977-1.848-4.849-4.536-4.849a4.244,4.244,0,0,0-3.817,2.088v-1.848H375v12Zm22.7,0h4.9c5.233,0,9.074-3.649,9.074-8.521s-3.841-8.522-9.074-8.522h-4.9v17.043Zm2.232-2.088V288.331H402.6c4.105,0,6.817,2.737,6.817,6.434s-2.712,6.433-6.817,6.433h-2.665Zm15.023-3.913a6.328,6.328,0,0,0,11.619,3.385l-1.633-1.129a4.249,4.249,0,0,1-7.9-1.848h9.842a5.856,5.856,0,0,0,.024-0.624c-0.024-3.841-2.569-6.025-5.713-6.025A6.082,6.082,0,0,0,414.959,297.285Zm6.17-4.417a3.59,3.59,0,0,1,3.672,3.145h-7.609A3.923,3.923,0,0,1,421.129,292.868Zm17.688,7.082c0-1.8-1.128-2.953-3.169-3.625l-1.3-.432c-1.416-.456-1.848-0.912-1.848-1.681,0-.888.888-1.392,2.016-1.392a3.244,3.244,0,0,1,2.545,1.248l1.344-1.3a4.656,4.656,0,0,0-3.841-1.728c-2.376,0-4.057,1.32-4.057,3.264,0,1.681,1.033,2.857,2.977,3.481l1.176,0.384c1.561,0.5,2.137,1.08,2.137,1.921,0,1.032-.937,1.632-2.113,1.632a3.22,3.22,0,0,1-3.072-1.9l-1.681.913a4.768,4.768,0,0,0,4.7,2.784C437.065,303.526,438.817,302.3,438.817,299.95Zm3.214-2.665a6.328,6.328,0,0,0,11.618,3.385l-1.632-1.129a4.25,4.25,0,0,1-7.9-1.848h9.843a5.856,5.856,0,0,0,.024-0.624c-0.024-3.841-2.569-6.025-5.714-6.025A6.082,6.082,0,0,0,442.031,297.285Zm6.169-4.417a3.591,3.591,0,0,1,3.673,3.145h-7.61A3.925,3.925,0,0,1,448.2,292.868Zm9.911,10.418h2.064v-5.953c0-2.809,1.657-4.129,3.169-4.129a3.017,3.017,0,0,1,1.128.192V291.26a4.276,4.276,0,0,0-.936-0.1,3.572,3.572,0,0,0-3.361,2.448v-2.328h-2.064v12Zm16.489-.168V301.27a4.562,4.562,0,0,1-1.464.24c-1.3,0-1.992-.5-1.992-2.041V293.18H474.6v-1.9h-3.456v-3.337h-2.065v3.337h-2.544v1.9h2.544v6.553a3.379,3.379,0,0,0,3.673,3.673A5.743,5.743,0,0,0,474.6,303.118Zm10.03-8.353a8.858,8.858,0,0,0,16.348,4.68l-1.872-1.128a6.7,6.7,0,1,1,0-7.105l1.872-1.128A8.858,8.858,0,0,0,484.63,294.765Zm19.248,2.52a6.006,6.006,0,0,0,5.881,6.241,5.263,5.263,0,0,0,4.225-2.088v1.848h2.065v-12h-2.065v1.848a5.263,5.263,0,0,0-4.225-2.088A6.006,6.006,0,0,0,503.878,297.285Zm10.274,0a4.1,4.1,0,1,1-4.081-4.345A4.1,4.1,0,0,1,514.152,297.285Zm6.982,6H523.2v-5.953c0-2.712,1.368-4.393,3.312-4.393,1.561,0,2.353,1.344,2.353,3.289v7.057h2.064v-5.953c0-2.712,1.345-4.393,3.289-4.393,1.56,0,2.376,1.344,2.376,3.289v7.057h2.065v-7.369c0-2.929-1.584-4.873-4.2-4.873a4.154,4.154,0,0,0-3.937,2.568,3.773,3.773,0,0,0-3.7-2.568,4.034,4.034,0,0,0-3.624,2.088v-1.848h-2.065v12Zm22.44,5.017h2.064v-6.865a5.266,5.266,0,0,0,4.225,2.088,6.252,6.252,0,0,0,0-12.482,5.266,5.266,0,0,0-4.225,2.088v-1.848h-2.064V308.3Zm10.058-11.018a4.089,4.089,0,1,1-4.081-4.345A4.1,4.1,0,0,1,553.632,297.285Zm5.35,0a6.005,6.005,0,0,0,5.881,6.241,5.264,5.264,0,0,0,4.225-2.088v1.848h2.064v-12h-2.064v1.848a5.264,5.264,0,0,0-4.225-2.088A6.005,6.005,0,0,0,558.982,297.285Zm10.274,0a4.1,4.1,0,1,1-4.081-4.345A4.1,4.1,0,0,1,569.256,297.285Zm9.478-10.682a1.449,1.449,0,0,0-1.44-1.464,1.491,1.491,0,0,0-1.488,1.464,1.475,1.475,0,0,0,1.488,1.464A1.434,1.434,0,0,0,578.734,286.6Zm-2.5,16.683H578.3v-12h-2.064v12Zm18.362-.7V291.284h-2.065v1.848a5.106,5.106,0,0,0-4.176-2.088,6.114,6.114,0,0,0,0,12.218,5.124,5.124,0,0,0,4.176-2.112v1.368a3.836,3.836,0,0,1-4.008,4.153,5.132,5.132,0,0,1-4.2-2.017l-1.441,1.441a7.128,7.128,0,0,0,5.666,2.448C591.959,308.543,594.6,306.6,594.6,302.59Zm-10.01-5.449a4.059,4.059,0,1,1,4.057,4.2A4,4,0,0,1,584.59,297.141Zm15.095,6.145h2.065v-5.953c0-2.809,1.536-4.393,3.48-4.393,1.681,0,2.833,1.248,2.833,3.265v7.081h2.04v-7.393c0-2.977-1.848-4.849-4.536-4.849a4.244,4.244,0,0,0-3.817,2.088v-1.848h-2.065v12Zm33.986-6a6.277,6.277,0,1,0-6.265,6.241A6.159,6.159,0,0,0,633.671,297.285Zm-10.442,0a4.168,4.168,0,1,1,4.177,4.321A4.126,4.126,0,0,1,623.229,297.285Zm15.408,6H640.7V293.18h3.481v-1.9H640.7v-2.209c0-1.512.672-2.04,1.993-2.04a4.833,4.833,0,0,1,1.488.24v-1.824a5.454,5.454,0,0,0-1.872-.312,3.427,3.427,0,0,0-3.673,3.72v2.425h-2.545v1.9h2.545v10.106Zm28.466,0H669.1l4.657-17.043h-2.329l-3.577,13.3-4.921-13.586-4.9,13.586-3.576-13.3h-2.329l4.657,17.043h1.993l4.176-11.57Zm23.928,0h1.993l4.657-17.043h-2.329l-3.577,13.3-4.921-13.586-4.9,13.586-3.577-13.3h-2.328l4.657,17.043H682.7l4.177-11.57Zm10.653,0h2.233V286.243h-2.233v17.043Zm7.944,0h2.232V286.243h-2.232v17.043Zm10.488-1.608a1.777,1.777,0,1,0-1.776,1.8A1.809,1.809,0,0,0,720.116,301.678Z"/>
</svg>
