<svg id="Quote_copy" data-name="Quote copy" xmlns="http://www.w3.org/2000/svg" width="768" height="322" viewBox="0 0 768 322">
  <defs>
    <style>
      .cls-1 {
        fill: #b09f8a;
      }

      .cls-2, .cls-3 {
        fill: #fff;
      }

      .cls-2, .cls-4 {
        fill-rule: evenodd;
      }
    </style>
  </defs>
  <rect id="Rectangle_96_copy" data-name="Rectangle 96 copy" class="cls-1" width="768" height="322"/>
  <path id="_Don_t_overthink_it._" data-name="“Don’t overthink it.”" class="cls-2" d="M234.836,109.585a2.548,2.548,0,0,0-.39,1.351,2.221,2.221,0,1,0,4.441,0,2.29,2.29,0,0,0-1.23-2.011l2.01-4.291h-1.71Zm5.582,0a2.548,2.548,0,0,0-.39,1.351,2.221,2.221,0,1,0,4.441,0,2.29,2.29,0,0,0-1.23-2.011l2.011-4.291h-1.711Zm10.2,16.356h6.122c6.542,0,11.344-4.561,11.344-10.654s-4.8-10.653-11.344-10.653h-6.122v21.307Zm2.791-2.611V107.245h3.331c5.132,0,8.523,3.421,8.523,8.042s-3.391,8.043-8.523,8.043h-3.331Zm34.444-4.891a7.848,7.848,0,1,0-7.833,7.8A7.7,7.7,0,0,0,287.851,118.439Zm-13.055,0a5.21,5.21,0,1,1,5.222,5.4A5.157,5.157,0,0,1,274.8,118.439Zm18.239,7.5h2.581V118.5c0-3.512,1.921-5.492,4.352-5.492,2.1,0,3.541,1.56,3.541,4.081v8.853h2.551V116.7c0-3.721-2.311-6.062-5.672-6.062a5.305,5.305,0,0,0-4.772,2.611v-2.311h-2.581v15Zm22.591-18.066a2.652,2.652,0,0,0,.42-1.351,2.236,2.236,0,1,0-4.471,0,2.325,2.325,0,0,0,1.23,2.011l-2.01,4.292h1.74Zm13.412,17.856V123.42a5.709,5.709,0,0,1-1.831.3c-1.62,0-2.491-.63-2.491-2.551v-7.862h4.322v-2.371h-4.322v-4.171h-2.581v4.171h-3.181v2.371h3.181V121.5a4.224,4.224,0,0,0,4.592,4.591A7.185,7.185,0,0,0,329.038,125.731Zm28.112-7.292a7.848,7.848,0,1,0-7.833,7.8A7.7,7.7,0,0,0,357.15,118.439Zm-13.055,0a5.21,5.21,0,1,1,5.222,5.4A5.157,5.157,0,0,1,344.1,118.439Zm22.591,7.5h2.161l6.932-15H372.9l-5.131,11.344-5.132-11.344h-2.881Zm11.7-7.5a7.911,7.911,0,0,0,14.525,4.231l-2.04-1.411a5.313,5.313,0,0,1-9.874-2.31H393.3a7.328,7.328,0,0,0,.03-0.781c-0.03-4.8-3.212-7.532-7.143-7.532A7.6,7.6,0,0,0,378.384,118.439Zm7.713-5.522a4.49,4.49,0,0,1,4.592,3.931h-9.514A4.9,4.9,0,0,1,386.1,112.917Zm12.387,13.024h2.581V118.5c0-3.512,2.071-5.162,3.962-5.162a3.771,3.771,0,0,1,1.41.24v-2.671a5.345,5.345,0,0,0-1.17-.12,4.464,4.464,0,0,0-4.2,3.061v-2.911h-2.581v15Zm20.613-.21V123.42a5.7,5.7,0,0,1-1.83.3c-1.621,0-2.491-.63-2.491-2.551v-7.862H419.1v-2.371h-4.321v-4.171H412.2v4.171h-3.182v2.371H412.2V121.5a4.223,4.223,0,0,0,4.591,4.591A7.18,7.18,0,0,0,419.1,125.731Zm4.8,0.21h2.581V118.5c0-3.512,1.921-5.492,4.352-5.492,2.1,0,3.541,1.56,3.541,4.081v8.853h2.551V116.7c0-3.721-2.311-6.062-5.672-6.062a5.305,5.305,0,0,0-4.772,2.611v-9.814h-2.581v22.508Zm22.291-20.857a1.813,1.813,0,0,0-1.8-1.831,1.864,1.864,0,0,0-1.86,1.831,1.845,1.845,0,0,0,1.86,1.831A1.794,1.794,0,0,0,446.185,105.084Zm-3.121,20.857h2.581v-15h-2.581v15Zm8.97,0h2.58V118.5c0-3.512,1.921-5.492,4.352-5.492,2.1,0,3.541,1.56,3.541,4.081v8.853h2.551V116.7c0-3.721-2.311-6.062-5.672-6.062a5.307,5.307,0,0,0-4.772,2.611v-2.311h-2.58v15Zm19.169,0h2.581v-7.5l8.133,7.5H485.4l-9.033-8.373,7.383-6.632h-3.421l-6.543,5.852V103.433H471.2v22.508Zm29.011-20.857a1.813,1.813,0,0,0-1.8-1.831,1.864,1.864,0,0,0-1.86,1.831,1.845,1.845,0,0,0,1.86,1.831A1.794,1.794,0,0,0,500.214,105.084Zm-3.121,20.857h2.581v-15h-2.581v15Zm17.1-.21V123.42a5.714,5.714,0,0,1-1.831.3c-1.621,0-2.491-.63-2.491-2.551v-7.862H514.2v-2.371h-4.322v-4.171h-2.581v4.171h-3.181v2.371h3.181V121.5a4.224,4.224,0,0,0,4.592,4.591A7.19,7.19,0,0,0,514.2,125.731Zm8.368-1.8a2.221,2.221,0,1,0-2.221,2.251A2.261,2.261,0,0,0,522.564,123.93Zm5.7-16.055a2.652,2.652,0,0,0,.42-1.351,2.236,2.236,0,1,0-4.471,0,2.325,2.325,0,0,0,1.23,2.011l-2.011,4.292h1.741Zm5.582,0a2.652,2.652,0,0,0,.42-1.351,2.236,2.236,0,1,0-4.471,0,2.325,2.325,0,0,0,1.23,2.011l-2.011,4.292h1.741Z"/>
  <rect id="Rectangle_4_copy_5" data-name="Rectangle 4 copy 5" class="cls-3" x="159.594" y="161.812" width="450" height="60"/>
  <path id="Shop_the_Icon_Collection" data-name="Shop the Icon Collection" class="cls-4" d="M223.616,199.236c2.706,0,4.564-1.653,4.582-4.022,0.018-1.966-1.19-3.215-3.048-3.894l-0.9-.331c-1.353-.5-1.984-0.808-1.984-1.506,0-.68.775-0.992,1.551-0.992a2.83,2.83,0,0,1,2.219,1.084l1.876-2.021a5.3,5.3,0,0,0-4.131-1.8c-2.562,0-4.42,1.488-4.42,4.023,0,1.782,1.155,3.049,3.229,3.765l0.9,0.313c1.281,0.44,1.786.9,1.786,1.561,0,0.624-.595,1.083-1.551,1.083a3.337,3.337,0,0,1-2.652-1.487l-2.2,1.891A5.582,5.582,0,0,0,223.616,199.236Zm9.726-.22h2.868v-5.161h5.159v5.161h2.868V185.975h-2.868v5.106H236.21v-5.106h-2.868v13.041Zm22.66,0.22a6.742,6.742,0,1,0-6.62-6.741A6.7,6.7,0,0,0,256,199.236Zm0-2.828a3.918,3.918,0,1,1,3.716-3.913A3.838,3.838,0,0,1,256,196.408Zm20.621-5.97a4.4,4.4,0,0,0-4.509-4.463h-4.347v13.041h2.868v-4.133h1.479A4.385,4.385,0,0,0,276.623,190.438Zm-2.777,0a1.7,1.7,0,0,1-1.768,1.708h-1.443V188.73h1.443A1.689,1.689,0,0,1,273.846,190.438Zm16.184,8.578h2.886V188.767h3.3v-2.792h-9.452v2.792h3.265v10.249Zm11.1,0H304v-5.161h5.159v5.161h2.868V185.975h-2.868v5.106H304v-5.106h-2.868v13.041Zm16.761,0h8.117v-2.792h-5.249v-2.333h4.167V191.1h-4.167v-2.332h5.249v-2.792h-8.117v13.041Zm20.586,0h2.868V185.975h-2.868v13.041Zm14.631,0.22a6.6,6.6,0,0,0,5.989-3.563l-2.526-1.4a3.8,3.8,0,0,1-3.463,2.131,3.917,3.917,0,0,1,0-7.825,3.8,3.8,0,0,1,3.463,2.131l2.526-1.4a6.6,6.6,0,0,0-5.989-3.564A6.742,6.742,0,0,0,353.105,199.236Zm16.726,0a6.742,6.742,0,1,0-6.62-6.741A6.7,6.7,0,0,0,369.831,199.236Zm0-2.828a3.918,3.918,0,1,1,3.715-3.913A3.837,3.837,0,0,1,369.831,196.408Zm23.345,2.608V185.975H390.29v8.045l-6.223-8.045H381.6v13.041h2.868v-8.064l6.242,8.064h2.471Zm18.891,0.22a6.6,6.6,0,0,0,5.989-3.563l-2.525-1.4a3.8,3.8,0,0,1-3.464,2.131,3.917,3.917,0,0,1,0-7.825,3.8,3.8,0,0,1,3.464,2.131l2.525-1.4a6.6,6.6,0,0,0-5.989-3.564A6.742,6.742,0,0,0,412.067,199.236Zm16.726,0a6.742,6.742,0,1,0-6.62-6.741A6.7,6.7,0,0,0,428.793,199.236Zm0-2.828a3.918,3.918,0,1,1,3.715-3.913A3.837,3.837,0,0,1,428.793,196.408Zm11.764,2.608h8.172v-2.792h-5.3V185.975h-2.868v13.041Zm13.117,0h8.171v-2.792h-5.3V185.975h-2.868v13.041Zm13.117,0h8.117v-2.792h-5.249v-2.333h4.166V191.1h-4.166v-2.332h5.249v-2.792h-8.117v13.041Zm19.033,0.22a6.6,6.6,0,0,0,5.989-3.563l-2.526-1.4a3.8,3.8,0,0,1-3.463,2.131,3.917,3.917,0,0,1,0-7.825,3.8,3.8,0,0,1,3.463,2.131l2.526-1.4a6.6,6.6,0,0,0-5.989-3.564A6.742,6.742,0,0,0,485.824,199.236Zm13.136-.22h2.886V188.767h3.3v-2.792H495.7v2.792h3.265v10.249Zm11.1,0h2.868V185.975h-2.868v13.041Zm14.631,0.22a6.742,6.742,0,1,0-6.62-6.741A6.7,6.7,0,0,0,524.687,199.236Zm0-2.828A3.918,3.918,0,1,1,528.4,192.5,3.838,3.838,0,0,1,524.687,196.408Zm23.346,2.608V185.975h-2.887v8.045l-6.223-8.045h-2.471v13.041h2.868v-8.064l6.241,8.064h2.472Z"/>
</svg>
