<svg id="copy_copy_2" data-name="copy copy 2" xmlns="http://www.w3.org/2000/svg" width="768" height="403"><defs><style>.cls-2{fill-rule:evenodd}</style></defs><path id="Rectangle_106_copy_12" data-name="Rectangle 106 copy 12" fill="#fff" d="M0 0h768v403H0z"/><g id="CTA_underline_copy_5" data-name="CTA_underline copy 5"><path id="Rectangle_4_copy_4" data-name="Rectangle 4 copy 4" d="M39 309h122v4H39z"/><path id="Shop_now" data-name="Shop now" class="cls-2" d="M43.817 301.853c2.706 0 4.564-1.653 4.582-4.023.018-1.965-1.19-3.214-3.048-3.894l-.9-.33c-1.353-.5-1.984-.808-1.984-1.506 0-.68.776-.992 1.551-.992a2.831 2.831 0 0 1 2.219 1.083l1.876-2.02a5.3 5.3 0 0 0-4.131-1.8c-2.561 0-4.419 1.488-4.419 4.022 0 1.782 1.154 3.049 3.229 3.766l.9.312c1.281.441 1.786.9 1.786 1.561 0 .625-.6 1.084-1.551 1.084a3.335 3.335 0 0 1-2.652-1.488l-2.2 1.892a5.583 5.583 0 0 0 4.742 2.333zm9.726-.221h2.867v-5.161h5.159v5.161h2.868v-13.041h-2.868v5.109H56.41v-5.107h-2.868v13.041zm22.66.221a6.742 6.742 0 1 0-6.62-6.741 6.7 6.7 0 0 0 6.617 6.741zm0-2.829a3.917 3.917 0 1 1 3.716-3.912 3.837 3.837 0 0 1-3.719 3.912zm20.622-5.969a4.4 4.4 0 0 0-4.51-4.464h-4.348v13.041h2.868V297.5h1.479a4.385 4.385 0 0 0 4.51-4.445zm-2.778 0a1.7 1.7 0 0 1-1.768 1.708h-1.444v-3.416h1.443a1.688 1.688 0 0 1 1.768 1.708zm25.979 8.577v-13.041h-2.886v8.045l-6.223-8.045h-2.472v13.041h2.869v-8.063l6.241 8.063h2.471zm11.765.221a6.742 6.742 0 1 0-6.62-6.741 6.7 6.7 0 0 0 6.619 6.741zm0-2.829a3.917 3.917 0 1 1 3.716-3.912 3.837 3.837 0 0 1-3.717 3.912zm21.686 2.608h2.723l2.976-13.041h-3.067l-1.749 8.266-3.608-8.486-3.589 8.486-1.75-8.266h-3.067l2.959 13.041h2.723l2.724-6.392z"/></g><path id="Suede_Trucker_Jacket_Suede_b._2018_Banana_Republic_s_legacy" data-name="Suede Trucker Jacket Suede, b. 2018 Banana Republic’s legacy" class="cls-2" d="M50.024 68.553c5.76 0 9.715-3.456 9.753-8.409.038-4.108-2.534-6.719-6.489-8.14l-1.92-.691c-2.88-1.037-4.224-1.689-4.224-3.148 0-1.421 1.651-2.073 3.3-2.073a6.064 6.064 0 0 1 4.723 2.265l3.993-4.224a11.376 11.376 0 0 0-8.793-3.763c-5.452 0-9.407 3.11-9.407 8.409 0 3.724 2.457 6.374 6.873 7.871l1.92.653c2.726.922 3.8 1.881 3.8 3.264 0 1.306-1.267 2.265-3.3 2.265a7.132 7.132 0 0 1-5.644-3.11l-4.684 3.955a11.954 11.954 0 0 0 10.099 4.876zm26.8 0c6.527 0 11.212-4.454 11.212-11.25V40.831h-6.103V57.38c0 3.264-2.073 5.26-5.107 5.26s-5.107-2-5.107-5.26V40.831h-6.105V57.3c0 6.8 4.647 11.253 11.212 11.253zm18.586-.461h17.279v-5.836h-11.172V57.38h8.87v-5.836h-8.87v-4.877h11.174v-5.836H95.412v27.261zm23.847 0h9.292a13.633 13.633 0 1 0 0-27.261h-9.292v27.261zm6.105-5.606V46.437h3.187a7.694 7.694 0 0 1 7.718 8.025 7.694 7.694 0 0 1-7.718 8.025h-3.187zm23.271 5.606h17.278v-5.836H154.74V57.38h8.869v-5.836h-8.869v-4.877h11.173v-5.836h-17.278v27.261zm38.015 0h6.143V46.667h7.027v-5.836H179.7v5.836h6.95v21.425zm18.816 0h6.1v-11.25h1l9.062 11.25h7.334l-9.638-12.018c3.456-1.229 5.338-3.494 5.338-7.026a8.049 8.049 0 0 0-8.448-8.217h-10.746v27.261zm6.1-16.434v-5.221h3.917c1.8 0 3.11.96 3.11 2.611 0 1.574-1.306 2.611-3.11 2.611h-3.917zm31.641 16.894c6.528 0 11.212-4.454 11.212-11.25V40.831h-6.105V57.38c0 3.264-2.073 5.26-5.107 5.26s-5.106-2-5.106-5.26V40.831H232V57.3c0 6.8 4.647 11.253 11.212 11.253zm31.142 0A14.092 14.092 0 0 0 287.1 61.1l-5.375-2.918a8.179 8.179 0 1 1 0-7.449l5.375-2.918a14.213 14.213 0 1 0-12.746 20.738zm18.241-.461h6.067V55.882l11.1 12.21h7.833l-12.94-14.168L315.4 40.831h-7.487l-9.254 11.4v-11.4H292.6v27.261zm28.8 0h17.279v-5.835H327.5V57.38h8.87v-5.836h-8.87v-4.877h11.174v-5.836H321.4v27.261zm23.846 0h6.106V56.842h1l9.062 11.25h7.334L359.1 56.074c3.456-1.229 5.337-3.494 5.337-7.026a8.049 8.049 0 0 0-8.447-8.217h-10.749v27.261zm6.106-16.434v-5.22h3.916c1.805 0 3.11.96 3.11 2.611 0 1.574-1.305 2.611-3.11 2.611h-3.916zm36.56 16.896c4.685 0 8.908-2.342 8.908-7.91V40.831h-6.1v19.428a2.807 2.807 0 0 1-5.606-.154h-6.028c-.002 5.914 4.26 8.448 8.826 8.448zm12.865-.461h6.374l2.419-5.759h11.292l2.419 5.759h6.373L417.97 40.831h-5.529zm11.02-11.058l3.417-8.217 3.417 8.217h-6.834zm33.945 11.519a14.092 14.092 0 0 0 12.751-7.453l-5.376-2.918a8.179 8.179 0 1 1 0-7.449l5.376-2.918a14.213 14.213 0 1 0-12.748 20.738zm18.241-.461h6.067v-12.21l11.1 12.21h7.833l-12.94-14.168 10.751-13.093h-7.488l-9.253 11.4v-11.4h-6.067v27.261zm28.8 0h17.279v-5.836h-11.171V57.38h8.87v-5.836h-8.87v-4.877h11.174v-5.836h-17.279v27.261zm28.761 0h6.144V46.667h7.026v-5.836h-20.12v5.836h6.95v21.425zM39.954 98.629c.977 1.927 3.485 3.379 6.575 3.379 3.485 0 5.967-2.006 5.967-5.2 0-2.772-1.584-4.356-4.357-5.413l-2.271-.871c-1.9-.713-2.825-1.426-2.825-3.01 0-1.558 1.531-2.588 3.38-2.588a4.639 4.639 0 0 1 3.723 1.848l1.8-1.584a6.838 6.838 0 0 0-5.466-2.561c-3.353 0-5.862 1.928-5.862 4.99 0 2.561 1.32 4.093 4.251 5.175l2.482.951c1.743.66 2.693 1.663 2.693 3.168 0 1.743-1.531 2.8-3.459 2.8a5.238 5.238 0 0 1-4.647-2.561zM56.85 96.6c0 3.274 1.954 5.359 4.858 5.359a4.541 4.541 0 0 0 4.066-2.3v2.033h2.271V88.49h-2.27v6.548c0 3.036-1.611 4.832-3.67 4.832-1.822 0-2.984-1.4-2.984-3.617V88.49H56.85v8.11zm15.761-1.505a6.96 6.96 0 0 0 12.779 3.718l-1.8-1.241a4.674 4.674 0 0 1-8.687-2.033h10.83a6.444 6.444 0 0 0 .026-.687c-.026-4.224-2.825-6.627-6.284-6.627a6.69 6.69 0 0 0-6.864 6.866zm6.789-4.863a3.95 3.95 0 0 1 4.04 3.459h-8.37a4.316 4.316 0 0 1 4.33-3.459zm9.872 4.858a6.606 6.606 0 0 0 6.469 6.864 5.788 5.788 0 0 0 4.647-2.3v2.033h2.271v-19.8h-2.271v8.634a5.79 5.79 0 0 0-4.647-2.3 6.606 6.606 0 0 0-6.472 6.87zm11.3 0a4.51 4.51 0 1 1-4.489-4.779 4.508 4.508 0 0 1 4.487 4.78zm6.651 0A6.96 6.96 0 0 0 120 98.813l-1.8-1.241a4.674 4.674 0 0 1-8.687-2.033h10.825a6.3 6.3 0 0 0 .027-.687c-.027-4.224-2.825-6.627-6.284-6.627a6.689 6.689 0 0 0-6.86 6.866zm6.785-4.858a3.95 3.95 0 0 1 4.04 3.459h-8.37a4.316 4.316 0 0 1 4.328-3.459zm13.728 10.879a2.263 2.263 0 0 0 .369-1.189 1.954 1.954 0 1 0-3.907 0 1.965 1.965 0 0 0 1.082 1.769l-1.769 3.776h1.5zm15.285-1.453a5.788 5.788 0 0 0 4.647 2.3 6.877 6.877 0 0 0 0-13.729 5.789 5.789 0 0 0-4.647 2.3v-8.64h-2.271v19.8h2.271v-2.031zm8.792-4.568a4.5 4.5 0 1 1-4.488-4.779 4.507 4.507 0 0 1 4.486 4.78zm9.767 4.832a1.954 1.954 0 1 0-1.954 1.981 1.989 1.989 0 0 0 1.952-1.981zm23.893-.422h-9.347c.449-2.165 2.64-3.248 4.806-4.832 3.062-2.218 4.33-3.8 4.33-6.548 0-3.644-2.667-5.492-5.783-5.492-3.459 0-6.178 2.324-6.178 5.914h2.323a3.621 3.621 0 0 1 3.882-3.7 3.169 3.169 0 0 1 3.432 3.248c0 2.191-1.162 3.168-3.327 4.779-2.772 2.06-6.284 3.908-6.284 7.921v.9h12.146V99.5zm17.477-4.594v-5.228c0-4.145-2.8-7.05-6.654-7.05s-6.627 2.9-6.627 7.05v5.228c0 4.172 2.772 7.049 6.627 7.049s6.652-2.877 6.652-7.049zm-11.01 0v-5.228c0-3.036 1.821-4.832 4.356-4.832 2.561 0 4.383 1.8 4.383 4.832v5.228c0 3.036-1.822 4.832-4.383 4.832-2.537 0-4.358-1.796-4.358-4.832zm17.687 6.785h2.273V82.945h-4.04l-1.848 2.244h3.617v16.5zm19.907-5.624a5.237 5.237 0 0 0-2.931-4.911 4.387 4.387 0 0 0 1.9-3.7c0-2.8-2.165-4.832-5.254-4.832-3.01 0-5.281 2.033-5.281 4.832a4.372 4.372 0 0 0 1.954 3.7 5.239 5.239 0 0 0-2.983 4.911c0 3.406 2.64 5.888 6.31 5.888 3.722 0 6.283-2.481 6.283-5.887zm-9.32-8.555a2.79 2.79 0 0 1 3.036-2.746 2.739 2.739 0 0 1 3.01 2.746 2.8 2.8 0 0 1-3.01 2.772 2.857 2.857 0 0 1-3.038-2.771zm-.977 8.555a3.722 3.722 0 0 1 4.013-3.749 3.744 3.744 0 1 1 0 7.472 3.731 3.731 0 0 1-4.015-3.722zM41.26 154.49h6.1c3.457 0 5.713-2.136 5.713-4.969a4.062 4.062 0 0 0-2.953-4.081 3.862 3.862 0 0 0 1.824-3.48c0-2.4-1.92-4.513-5.089-4.513H41.26v17.043zm2.233-9.722v-5.305h3.361a2.679 2.679 0 0 1 2.9 2.665 2.623 2.623 0 0 1-2.9 2.64h-3.361zm0 7.706v-5.785h3.985c2.256 0 3.409 1.248 3.409 2.9 0 1.68-1.152 2.881-3.433 2.881h-3.961zm12.815-3.985a6.006 6.006 0 0 0 5.881 6.241 5.264 5.264 0 0 0 4.225-2.088v1.848h2.064v-12h-2.064v1.848a5.264 5.264 0 0 0-4.225-2.088 6.006 6.006 0 0 0-5.881 6.239zm10.274 0a4.1 4.1 0 1 1-4.081-4.345 4.1 4.1 0 0 1 4.081 4.345zm6.982 6h2.064v-5.953c0-2.809 1.536-4.393 3.481-4.393 1.68 0 2.833 1.248 2.833 3.265v7.081h2.04V147.1c0-2.977-1.848-4.849-4.537-4.849a4.244 4.244 0 0 0-3.817 2.088v-1.848h-2.064v12zm14.4-6a6.006 6.006 0 0 0 5.881 6.241 5.264 5.264 0 0 0 4.225-2.088v1.848h2.064v-12H98.07v1.848a5.264 5.264 0 0 0-4.225-2.088 6.006 6.006 0 0 0-5.881 6.239zm10.274 0a4.1 4.1 0 1 1-4.081-4.345 4.1 4.1 0 0 1 4.081 4.345zm6.981 6h2.065v-5.953c0-2.809 1.536-4.393 3.481-4.393 1.68 0 2.832 1.248 2.832 3.265v7.081h2.041V147.1c0-2.977-1.849-4.849-4.537-4.849a4.244 4.244 0 0 0-3.817 2.088v-1.848h-2.065v12zm14.4-6a6.005 6.005 0 0 0 5.881 6.241 5.263 5.263 0 0 0 4.225-2.088v1.848h2.065v-12h-2.065v1.848a5.263 5.263 0 0 0-4.225-2.088 6.005 6.005 0 0 0-5.881 6.239zm10.274 0a4.1 4.1 0 1 1-4.081-4.345 4.1 4.1 0 0 1 4.081 4.345zm14.35 6h2.232v-7.753h1.657l6.553 7.753h2.809l-6.554-7.777c2.617-.385 4.2-2.065 4.2-4.561 0-2.809-1.944-4.7-5.089-4.7h-5.809v17.039zm2.232-9.746v-5.233h3.313c1.944 0 3.121.912 3.121 2.641 0 1.7-1.177 2.592-3.121 2.592h-3.313zm12.6 3.745a6.328 6.328 0 0 0 11.619 3.385l-1.633-1.129a4.249 4.249 0 0 1-7.9-1.848h9.842a5.856 5.856 0 0 0 .024-.624c-.024-3.841-2.569-6.025-5.713-6.025a6.082 6.082 0 0 0-6.24 6.242zm6.17-4.417a3.59 3.59 0 0 1 3.672 3.145h-7.609a3.923 3.923 0 0 1 3.936-3.144zm9.91 15.435h2.065v-6.865a5.263 5.263 0 0 0 4.225 2.088 6.252 6.252 0 0 0 0-12.482 5.263 5.263 0 0 0-4.225 2.088v-1.848h-2.065v17.019zm10.059-11.018a4.089 4.089 0 1 1-4.081-4.345 4.1 4.1 0 0 1 4.08 4.346zm6.117 1.368c0 2.977 1.777 4.873 4.417 4.873a4.129 4.129 0 0 0 3.7-2.088v1.848h2.064v-12h-2.064v5.953c0 2.76-1.464 4.393-3.337 4.393-1.656 0-2.712-1.273-2.712-3.289v-7.057h-2.069v7.369zm17.329 2.785a5.262 5.262 0 0 0 4.224 2.088 6.252 6.252 0 0 0 0-12.482 5.262 5.262 0 0 0-4.224 2.088v-7.849h-2.065v18h2.065v-1.848zm7.993-4.153a4.089 4.089 0 1 1-4.081-4.345 4.1 4.1 0 0 1 4.08 4.346zm6.262 6h2.064v-18h-2.064v18zm9.672-16.683a1.449 1.449 0 0 0-1.44-1.464 1.491 1.491 0 0 0-1.488 1.464 1.475 1.475 0 0 0 1.488 1.464 1.434 1.434 0 0 0 1.439-1.462zm-2.5 16.683h2.064v-12h-2.061v12zm18.074-2.977l-1.8-1.008a4.069 4.069 0 0 1-3.745 2.305 4.323 4.323 0 0 1 0-8.642 4.069 4.069 0 0 1 3.745 2.305l1.8-1.009a6.216 6.216 0 0 0-5.545-3.216 6.241 6.241 0 1 0 0 12.482 6.215 6.215 0 0 0 5.548-3.215zm6.622-11.474a2.121 2.121 0 0 0 .336-1.08 1.788 1.788 0 1 0-3.576 0 1.86 1.86 0 0 0 .984 1.608L250.921 144h1.393zM266 151.153c0-1.8-1.128-2.952-3.168-3.624l-1.3-.432c-1.417-.456-1.849-.913-1.849-1.681 0-.888.888-1.392 2.017-1.392a3.242 3.242 0 0 1 2.544 1.248l1.344-1.3a4.654 4.654 0 0 0-3.84-1.728c-2.377 0-4.057 1.32-4.057 3.264 0 1.681 1.032 2.857 2.976 3.481l1.177.384c1.56.5 2.136 1.08 2.136 1.92 0 1.033-.936 1.633-2.112 1.633a3.22 3.22 0 0 1-3.073-1.9l-1.68.913a4.767 4.767 0 0 0 4.705 2.784c2.423.007 4.18-1.217 4.18-3.57zm11.2 3.337h2.065v-18H277.2v18zm6.24-6a6.328 6.328 0 0 0 11.618 3.385l-1.632-1.129a4.25 4.25 0 0 1-7.9-1.848h9.842a5.856 5.856 0 0 0 .024-.624c-.024-3.841-2.568-6.025-5.713-6.025a6.081 6.081 0 0 0-6.238 6.24zm6.169-4.417a3.591 3.591 0 0 1 3.673 3.145h-7.61a3.924 3.924 0 0 1 3.938-3.146zm21.1 9.722v-11.307h-2.064v1.848a5.108 5.108 0 0 0-4.177-2.088 6.114 6.114 0 0 0 0 12.218 5.126 5.126 0 0 0 4.177-2.112v1.368a3.837 3.837 0 0 1-4.009 4.153 5.136 5.136 0 0 1-4.2-2.017l-1.44 1.441a7.126 7.126 0 0 0 5.665 2.448c3.406 0 6.046-1.947 6.046-5.953zm-10.01-5.449a4.059 4.059 0 1 1 4.057 4.2 4 4 0 0 1-4.056-4.201zm14.16.144a6.005 6.005 0 0 0 5.881 6.241 5.264 5.264 0 0 0 4.225-2.088v1.848h2.064v-12h-2.064v1.848a5.264 5.264 0 0 0-4.225-2.088 6.005 6.005 0 0 0-5.883 6.238zm10.274 0a4.1 4.1 0 1 1-4.081-4.345 4.1 4.1 0 0 1 4.079 4.344zm17.88 3.024l-1.8-1.008a4.067 4.067 0 0 1-3.744 2.305 4.323 4.323 0 0 1 0-8.642 4.067 4.067 0 0 1 3.744 2.305l1.8-1.009a6.216 6.216 0 0 0-5.545-3.216 6.241 6.241 0 1 0 0 12.482 6.215 6.215 0 0 0 5.543-3.218zm7.03 7.994l7.874-17.019h-2.307l-4.105 9.1-4.129-9.1H345.1l5.257 11.378-2.616 5.641h2.3zm29.257-11.019a6.278 6.278 0 1 0-6.266 6.241 6.159 6.159 0 0 0 6.266-6.241zm-10.442 0a4.167 4.167 0 1 1 4.176 4.321 4.125 4.125 0 0 1-4.177-4.321zm15.407 6h2.065v-10.105h3.481v-1.9h-3.481v-2.209c0-1.512.672-2.04 1.992-2.04a4.844 4.844 0 0 1 1.489.24v-1.824a5.464 5.464 0 0 0-1.873-.312 3.428 3.428 0 0 0-3.673 3.72v2.425h-2.545v1.9h2.544v10.106zm14.5-6a6.328 6.328 0 0 0 11.618 3.385l-1.632-1.129a4.25 4.25 0 0 1-7.9-1.848h9.842a5.856 5.856 0 0 0 .024-.624c-.024-3.841-2.568-6.025-5.713-6.025a6.081 6.081 0 0 0-6.244 6.241zm6.169-4.417a3.591 3.591 0 0 1 3.673 3.145h-7.61a3.924 3.924 0 0 1 3.932-3.145zm7.679 10.418h2.568l3.649-4.537 3.649 4.537h2.544l-4.9-6.073 4.513-5.929h-2.52l-3.289 4.321-3.313-4.321h-2.5l4.513 5.929zm15.72 5.017h2.064v-6.865a5.266 5.266 0 0 0 4.225 2.088 6.252 6.252 0 0 0 0-12.482 5.266 5.266 0 0 0-4.225 2.088v-1.848h-2.064v17.019zm10.058-11.018a4.089 4.089 0 1 1-4.081-4.345 4.1 4.1 0 0 1 4.076 4.345zm6.286 6h2.064v-18h-2.064v18zm18.77-6a6.277 6.277 0 1 0-6.265 6.241 6.159 6.159 0 0 0 6.26-6.241zm-10.442 0a4.168 4.168 0 1 1 4.177 4.321 4.125 4.125 0 0 1-4.182-4.321zm14.591 6h2.065v-5.953c0-2.809 1.656-4.129 3.169-4.129a3.017 3.017 0 0 1 1.128.192v-2.136a4.276 4.276 0 0 0-.936-.1 3.57 3.57 0 0 0-3.361 2.448v-2.328h-2.065v12zm8.64-6a6.006 6.006 0 0 0 5.881 6.241 5.263 5.263 0 0 0 4.225-2.088v1.848h2.058v-12h-2.065v1.848a5.263 5.263 0 0 0-4.225-2.088 6.006 6.006 0 0 0-5.879 6.239zm10.274 0a4.1 4.1 0 1 1-4.08-4.345 4.1 4.1 0 0 1 4.075 4.345zm13.488 5.833v-1.848a4.573 4.573 0 0 1-1.465.24c-1.3 0-1.992-.5-1.992-2.041v-6.289h3.457v-1.9h-3.457v-3.337h-2.065v3.337h-2.544v1.9h2.544v6.553a3.379 3.379 0 0 0 3.673 3.673 5.754 5.754 0 0 0 1.844-.288zm6.335-16.515a1.45 1.45 0 0 0-1.441-1.464 1.491 1.491 0 0 0-1.488 1.464 1.475 1.475 0 0 0 1.488 1.464 1.435 1.435 0 0 0 1.436-1.464zm-2.5 16.683h2.067v-12h-2.065v12zm18.77-6a6.277 6.277 0 1 0-6.265 6.241 6.159 6.159 0 0 0 6.262-6.242zm-10.442 0a4.168 4.168 0 1 1 4.177 4.321 4.126 4.126 0 0 1-4.179-4.322zm14.592 6h2.064v-5.953c0-2.809 1.536-4.393 3.481-4.393 1.68 0 2.832 1.248 2.832 3.265v7.081h2.041v-7.39c0-2.977-1.849-4.849-4.537-4.849a4.245 4.245 0 0 0-3.817 2.088v-1.848h-2.064v12zm17.9-.528a2.052 2.052 0 0 0 .336-1.08 1.777 1.777 0 1 0-3.553 0 1.786 1.786 0 0 0 .984 1.608l-1.608 3.433h1.368zm10.895-5.473a6.005 6.005 0 0 0 5.881 6.241 5.264 5.264 0 0 0 4.225-2.088v1.848h2.064v-18h-2.064v7.849a5.264 5.264 0 0 0-4.225-2.088 6.005 6.005 0 0 0-5.879 6.238zm10.274 0a4.1 4.1 0 1 1-4.081-4.345 4.1 4.1 0 0 1 4.083 4.345zm9.478-10.682a1.449 1.449 0 0 0-1.44-1.464 1.491 1.491 0 0 0-1.488 1.464 1.475 1.475 0 0 0 1.488 1.464 1.434 1.434 0 0 0 1.44-1.464zm-2.5 16.683h2.064v-12H572.8v12zm14.953-3.337c0-1.8-1.128-2.952-3.168-3.624l-1.3-.432c-1.416-.456-1.848-.913-1.848-1.681 0-.888.888-1.392 2.016-1.392a3.243 3.243 0 0 1 2.545 1.248l1.344-1.3a4.654 4.654 0 0 0-3.841-1.728c-2.376 0-4.057 1.32-4.057 3.264 0 1.681 1.033 2.857 2.977 3.481l1.176.384c1.561.5 2.137 1.08 2.137 1.92 0 1.033-.936 1.633-2.113 1.633a3.22 3.22 0 0 1-3.072-1.9l-1.681.913a4.768 4.768 0 0 0 4.705 2.784c2.434.007 4.186-1.217 4.186-3.57zm15.049.36l-1.8-1.008a4.067 4.067 0 0 1-3.744 2.305 4.323 4.323 0 0 1 0-8.642 4.067 4.067 0 0 1 3.744 2.305l1.8-1.009a6.217 6.217 0 0 0-5.545-3.216 6.241 6.241 0 1 0 0 12.482 6.216 6.216 0 0 0 5.551-3.217zm15.456-3.024A6.278 6.278 0 1 0 612 154.73a6.159 6.159 0 0 0 6.264-6.241zm-10.443 0A4.168 4.168 0 1 1 612 152.81a4.126 4.126 0 0 1-4.179-4.321zm18.073 6h1.728l5.545-12h-2.3l-4.105 9.073-4.105-9.073h-2.3zm9.359-6a6.328 6.328 0 0 0 11.618 3.385l-1.632-1.129a4.25 4.25 0 0 1-7.9-1.848h9.842a5.623 5.623 0 0 0 .025-.624c-.025-3.841-2.569-6.025-5.714-6.025a6.082 6.082 0 0 0-6.233 6.241zm6.169-4.417a3.591 3.591 0 0 1 3.673 3.145h-7.61a3.925 3.925 0 0 1 3.943-3.145zm9.911 10.418h2.073v-5.953c0-2.809 1.657-4.129 3.169-4.129a3.017 3.017 0 0 1 1.128.192v-2.136a4.276 4.276 0 0 0-.936-.1 3.572 3.572 0 0 0-3.361 2.448v-2.328h-2.064v12zm13.177 5.017l7.873-17.019h-2.3l-4.1 9.1-4.129-9.1h-2.28l5.257 11.378-2.617 5.641h2.3zm-624.5 17.781a6.006 6.006 0 0 0 5.881 6.241 5.264 5.264 0 0 0 4.225-2.088v1.848h2.064v-12h-2.056v1.848a5.264 5.264 0 0 0-4.225-2.088 6.006 6.006 0 0 0-5.881 6.239zm10.274 0a4.1 4.1 0 1 1-4.081-4.345 4.1 4.1 0 0 1 4.089 4.345zm6.982 6h2.064v-5.953c0-2.808 1.536-4.393 3.481-4.393 1.68 0 2.833 1.249 2.833 3.265v7.081h2.04V175.9c0-2.977-1.848-4.849-4.537-4.849a4.245 4.245 0 0 0-3.817 2.088v-1.848h-2.056v12zm14.4-6a6.006 6.006 0 0 0 5.881 6.241 5.264 5.264 0 0 0 4.225-2.088v1.848h2.064v-18h-2.056v7.849a5.264 5.264 0 0 0-4.225-2.088 6.006 6.006 0 0 0-5.881 6.238zm10.274 0a4.1 4.1 0 1 1-4.081-4.345 4.1 4.1 0 0 1 4.089 4.345zm13.1 0a6.006 6.006 0 0 0 5.881 6.241 5.263 5.263 0 0 0 4.225-2.088v1.848h2.065v-12h-2.065v1.848a5.263 5.263 0 0 0-4.225-2.088 6.006 6.006 0 0 0-5.872 6.239zm10.274 0a4.1 4.1 0 1 1-4.081-4.345 4.1 4.1 0 0 1 4.09 4.345zm6.046 0a6.005 6.005 0 0 0 5.881 6.241 5.264 5.264 0 0 0 4.225-2.088v1.848h2.064v-18h-2.064v7.849a5.264 5.264 0 0 0-4.225-2.088 6.005 6.005 0 0 0-5.872 6.238zm10.274 0a4.1 4.1 0 1 1-4.081-4.345 4.1 4.1 0 0 1 4.09 4.345zm10.726 6h1.729l5.545-12h-2.3l-4.1 9.074-4.105-9.074h-2.3zm9.36-6a6.328 6.328 0 0 0 11.618 3.385l-1.632-1.128a4.25 4.25 0 0 1-7.9-1.849h9.842a5.856 5.856 0 0 0 .024-.624c-.024-3.841-2.568-6.025-5.713-6.025a6.081 6.081 0 0 0-6.23 6.241zm6.169-4.417a3.592 3.592 0 0 1 3.673 3.145h-7.61a3.925 3.925 0 0 1 3.946-3.145zm9.911 10.418h2.064v-5.953c0-2.808 1.536-4.393 3.481-4.393 1.68 0 2.832 1.249 2.832 3.265v7.081h2.041V175.9c0-2.977-1.849-4.849-4.537-4.849a4.245 4.245 0 0 0-3.817 2.088v-1.848H157.8v12zm21.7-.168v-1.848a4.562 4.562 0 0 1-1.464.24c-1.3 0-1.993-.5-1.993-2.04v-6.29h3.463v-1.9h-3.457v-3.333h-2.064v3.337h-2.545v1.9h2.545v6.554a3.378 3.378 0 0 0 3.672 3.672 5.744 5.744 0 0 0 1.849-.292zm3.67-4.465c0 2.977 1.777 4.873 4.417 4.873a4.129 4.129 0 0 0 3.7-2.088v1.848h2.065v-12h-2.065v5.953c0 2.761-1.464 4.393-3.337 4.393-1.656 0-2.712-1.272-2.712-3.289v-7.057h-2.062v7.369zm15.264 4.633h2.072v-5.953c0-2.808 1.656-4.129 3.168-4.129a3.022 3.022 0 0 1 1.129.192v-2.136a4.285 4.285 0 0 0-.937-.1 3.57 3.57 0 0 0-3.36 2.448v-2.328h-2.065v12zm8.616-6a6.328 6.328 0 0 0 11.619 3.385l-1.633-1.128a4.249 4.249 0 0 1-7.9-1.849h9.842a5.856 5.856 0 0 0 .024-.624c-.024-3.841-2.569-6.025-5.713-6.025a6.082 6.082 0 0 0-6.233 6.24zm6.17-4.417a3.591 3.591 0 0 1 3.672 3.145h-7.609a3.924 3.924 0 0 1 3.943-3.146zm27.864 7.442l-1.8-1.008a4.069 4.069 0 0 1-3.745 2.3 4.323 4.323 0 0 1 0-8.642 4.068 4.068 0 0 1 3.745 2.3l1.8-1.008a6.214 6.214 0 0 0-5.545-3.217 6.241 6.241 0 1 0 0 12.482 6.215 6.215 0 0 0 5.551-3.208zm15.456-3.025a6.278 6.278 0 1 0-6.265 6.241 6.159 6.159 0 0 0 6.271-6.242zm-10.442 0a4.168 4.168 0 1 1 4.177 4.321 4.126 4.126 0 0 1-4.169-4.322zm14.591 6h2.065v-5.953c0-2.808 1.536-4.393 3.481-4.393 1.68 0 2.832 1.249 2.832 3.265v7.081h2.041V175.9c0-2.977-1.849-4.849-4.537-4.849a4.244 4.244 0 0 0-3.817 2.088v-1.848h-2.065v12zm21.7-.168v-1.848a4.573 4.573 0 0 1-1.465.24c-1.3 0-1.992-.5-1.992-2.04v-6.29h3.457v-1.9h-3.453v-3.333h-2.065v3.337h-2.544v1.9h2.544v6.554a3.379 3.379 0 0 0 3.673 3.672 5.754 5.754 0 0 0 1.849-.292zm6.335-16.515a1.45 1.45 0 0 0-1.441-1.464 1.491 1.491 0 0 0-1.488 1.464 1.475 1.475 0 0 0 1.488 1.464 1.435 1.435 0 0 0 1.445-1.464zm-2.5 16.683h2.065v-12h-2.065v12zm7.176 0h2.064v-5.953c0-2.808 1.537-4.393 3.481-4.393 1.68 0 2.833 1.249 2.833 3.265v7.081h2.04V175.9c0-2.977-1.848-4.849-4.537-4.849a4.246 4.246 0 0 0-3.817 2.088v-1.848H293.4v12zm15.168-4.633c0 2.977 1.776 4.873 4.417 4.873a4.129 4.129 0 0 0 3.7-2.088v1.848h2.065v-12h-2.065v5.953c0 2.761-1.464 4.393-3.336 4.393-1.657 0-2.713-1.272-2.713-3.289v-7.057h-2.064v7.369zm14.327-1.368a6.328 6.328 0 0 0 11.619 3.385l-1.633-1.128a4.249 4.249 0 0 1-7.9-1.849h9.842a5.856 5.856 0 0 0 .024-.624c-.024-3.841-2.569-6.025-5.713-6.025a6.082 6.082 0 0 0-6.228 6.241zm6.17-4.417a3.591 3.591 0 0 1 3.672 3.145h-7.609a3.924 3.924 0 0 1 3.944-3.145zm17.688 7.082c0-1.8-1.128-2.953-3.169-3.625l-1.3-.432c-1.416-.456-1.848-.912-1.848-1.68 0-.889.888-1.393 2.016-1.393a3.242 3.242 0 0 1 2.554 1.249l1.344-1.3a4.656 4.656 0 0 0-3.841-1.728c-2.376 0-4.057 1.32-4.057 3.265 0 1.68 1.033 2.856 2.977 3.48l1.176.384c1.561.5 2.137 1.081 2.137 1.921 0 1.032-.937 1.632-2.113 1.632a3.221 3.221 0 0 1-3.072-1.9l-1.681.912a4.768 4.768 0 0 0 4.7 2.784c2.43.007 4.184-1.217 4.184-3.569zm17.3 3.168v-1.848a4.562 4.562 0 0 1-1.464.24c-1.3 0-1.992-.5-1.992-2.04v-6.29h3.456v-1.9H360.6v-3.333h-2.065v3.337h-2.544v1.9h2.544v6.554a3.378 3.378 0 0 0 3.673 3.672 5.743 5.743 0 0 0 1.849-.292zm15.266-5.833a6.278 6.278 0 1 0-6.266 6.241 6.159 6.159 0 0 0 6.276-6.241zm-10.443 0a4.168 4.168 0 1 1 4.177 4.321 4.126 4.126 0 0 1-4.167-4.321zm22.344 6h2.065v-10.105h3.48v-1.9h-3.48v-2.208c0-1.513.672-2.041 1.992-2.041a4.833 4.833 0 0 1 1.488.24v-1.824a5.454 5.454 0 0 0-1.872-.312 3.428 3.428 0 0 0-3.673 3.721v2.424h-2.534v1.9h2.544v10.106zm8.832-4.633c0 2.977 1.776 4.873 4.417 4.873a4.129 4.129 0 0 0 3.7-2.088v1.848h2.065v-12h-2.065v5.953c0 2.761-1.464 4.393-3.336 4.393-1.657 0-2.713-1.272-2.713-3.289v-7.057h-2.064v7.369zm14.327-1.368A6.328 6.328 0 0 0 426 180.673l-1.633-1.128a4.249 4.249 0 0 1-7.9-1.849h9.842a5.856 5.856 0 0 0 .024-.624c-.024-3.841-2.569-6.025-5.713-6.025a6.082 6.082 0 0 0-6.237 6.241zm6.17-4.417a3.591 3.591 0 0 1 3.672 3.145h-7.609a3.924 3.924 0 0 1 3.947-3.144zm9.91 10.418h2.065v-18h-2.065v18zm13.3-6a6.328 6.328 0 0 0 11.618 3.385l-1.632-1.128a4.25 4.25 0 0 1-7.9-1.849h9.842a5.856 5.856 0 0 0 .024-.624c-.024-3.841-2.568-6.025-5.713-6.025a6.081 6.081 0 0 0-6.233 6.241zm6.169-4.417a3.592 3.592 0 0 1 3.673 3.145h-7.61a3.925 3.925 0 0 1 3.943-3.145zm8.975 4.417a6.005 6.005 0 0 0 5.881 6.241 5.264 5.264 0 0 0 4.225-2.088v1.848h2.064v-12h-2.064v1.848a5.264 5.264 0 0 0-4.225-2.088 6.005 6.005 0 0 0-5.878 6.239zm10.274 0a4.1 4.1 0 1 1-4.081-4.345 4.1 4.1 0 0 1 4.087 4.345zm17.88 3.025l-1.8-1.008a4.068 4.068 0 0 1-3.744 2.3 4.323 4.323 0 0 1 0-8.642 4.067 4.067 0 0 1 3.744 2.3l1.8-1.008a6.215 6.215 0 0 0-5.545-3.217 6.241 6.241 0 1 0 0 12.482 6.216 6.216 0 0 0 5.551-3.207zm3.861 2.976h2.065v-5.953c0-2.808 1.536-4.393 3.48-4.393 1.681 0 2.833 1.249 2.833 3.265v7.081h2.04V175.9c0-2.977-1.848-4.849-4.537-4.849a4.243 4.243 0 0 0-3.816 2.088v-7.849h-2.065v18zm33.29-2.976l-1.8-1.008a4.07 4.07 0 0 1-3.745 2.3 4.323 4.323 0 0 1 0-8.642 4.069 4.069 0 0 1 3.745 2.3l1.8-1.008a6.215 6.215 0 0 0-5.545-3.217 6.241 6.241 0 1 0 0 12.482 6.216 6.216 0 0 0 5.551-3.207zm15.456-3.025a6.278 6.278 0 1 0-6.266 6.241 6.159 6.159 0 0 0 6.272-6.241zm-10.442 0a4.167 4.167 0 1 1 4.176 4.321 4.125 4.125 0 0 1-4.17-4.321zm14.591 6h2.064v-18h-2.064v18zm7.176 0h2.064v-18h-2.064v18zm6.24-6a6.328 6.328 0 0 0 11.618 3.385l-1.632-1.128a4.25 4.25 0 0 1-7.9-1.849h9.842a5.856 5.856 0 0 0 .024-.624c-.024-3.841-2.568-6.025-5.713-6.025a6.081 6.081 0 0 0-6.233 6.241zm6.169-4.417a3.592 3.592 0 0 1 3.673 3.145h-7.61a3.924 3.924 0 0 1 3.945-3.145zm20.809 7.442l-1.8-1.008a4.068 4.068 0 0 1-3.744 2.3 4.323 4.323 0 0 1 0-8.642 4.067 4.067 0 0 1 3.744 2.3l1.8-1.008a6.215 6.215 0 0 0-5.545-3.217 6.241 6.241 0 1 0 0 12.482 6.216 6.216 0 0 0 5.551-3.207zm10.367 2.808v-1.848a4.568 4.568 0 0 1-1.465.24c-1.3 0-1.992-.5-1.992-2.04v-6.29h3.457v-1.9h-3.457v-3.333h-2.065v3.337h-2.544v1.9h2.544v6.554a3.379 3.379 0 0 0 3.673 3.672 5.749 5.749 0 0 0 1.855-.292zm6.335-16.515a1.45 1.45 0 0 0-1.441-1.464 1.491 1.491 0 0 0-1.488 1.464 1.475 1.475 0 0 0 1.488 1.464 1.435 1.435 0 0 0 1.447-1.464zm-2.5 16.683h2.065v-12h-2.065v12zm18.77-6a6.277 6.277 0 1 0-6.265 6.241 6.159 6.159 0 0 0 6.274-6.242zm-10.442 0a4.168 4.168 0 1 1 4.177 4.321 4.126 4.126 0 0 1-4.168-4.322zm14.592 6h2.077v-5.953c0-2.808 1.536-4.393 3.481-4.393 1.68 0 2.832 1.249 2.832 3.265v7.081h2.041V175.9c0-2.977-1.848-4.849-4.537-4.849a4.245 4.245 0 0 0-3.817 2.088v-1.848h-2.064v12zm18.192-1.608a1.777 1.777 0 1 0-1.776 1.8 1.808 1.808 0 0 0 1.785-1.8zM44.717 212.089H46.9v-14.931h5.305v-2.113H39.412v2.113h5.305v14.931zm10.871 0h2.064v-5.954c0-2.808 1.536-4.392 3.481-4.392 1.68 0 2.833 1.248 2.833 3.264v7.082h2.04V204.7c0-2.976-1.848-4.849-4.537-4.849a4.243 4.243 0 0 0-3.817 2.089v-7.85h-2.064v18zm17.832-16.684a1.449 1.449 0 0 0-1.44-1.464 1.491 1.491 0 0 0-1.488 1.464 1.475 1.475 0 0 0 1.488 1.465 1.435 1.435 0 0 0 1.44-1.465zm-2.5 16.684h2.064v-12h-2.06v12zm14.953-3.337c0-1.8-1.128-2.953-3.169-3.625l-1.3-.432c-1.416-.456-1.848-.912-1.848-1.68 0-.888.888-1.392 2.016-1.392a3.243 3.243 0 0 1 2.544 1.248l1.344-1.3a4.653 4.653 0 0 0-3.841-1.729c-2.377 0-4.057 1.32-4.057 3.265 0 1.68 1.032 2.856 2.977 3.48l1.176.385c1.56.5 2.136 1.08 2.136 1.92 0 1.032-.936 1.632-2.112 1.632a3.221 3.221 0 0 1-3.073-1.9l-1.68.912a4.768 4.768 0 0 0 4.7 2.785c2.439.008 4.191-1.221 4.191-3.569zM96 209.3c.888 1.752 3.169 3.073 5.977 3.073 3.169 0 5.425-1.825 5.425-4.729 0-2.521-1.44-3.961-3.96-4.921l-2.065-.792c-1.728-.649-2.568-1.3-2.568-2.737 0-1.416 1.392-2.352 3.072-2.352a4.217 4.217 0 0 1 3.385 1.68l1.632-1.44a6.213 6.213 0 0 0-4.969-2.329c-3.048 0-5.329 1.753-5.329 4.537 0 2.329 1.2 3.721 3.865 4.7l2.256.864c1.585.6 2.449 1.512 2.449 2.881 0 1.584-1.392 2.544-3.145 2.544a4.762 4.762 0 0 1-4.225-2.319zm15.36-1.848c0 2.976 1.776 4.873 4.417 4.873a4.132 4.132 0 0 0 3.7-2.089v1.849h2.064v-12h-2.064v5.953c0 2.761-1.465 4.393-3.337 4.393-1.656 0-2.713-1.272-2.713-3.288v-7.058h-2.064v7.37zm14.328-1.369a6.327 6.327 0 0 0 11.618 3.385l-1.632-1.128a4.25 4.25 0 0 1-7.9-1.849h9.842a5.856 5.856 0 0 0 .024-.624c-.024-3.84-2.568-6.025-5.713-6.025a6.082 6.082 0 0 0-6.236 6.245zm6.169-4.416a3.591 3.591 0 0 1 3.673 3.144h-7.61a3.924 3.924 0 0 1 3.94-3.14zm8.974 4.416a6.007 6.007 0 0 0 5.882 6.242 5.267 5.267 0 0 0 4.225-2.089v1.849h2.064v-18h-2.064v7.85a5.264 5.264 0 0 0-4.225-2.089 6.007 6.007 0 0 0-5.879 6.241zm10.275 0a4.1 4.1 0 1 1-4.081-4.344 4.1 4.1 0 0 1 4.084 4.348zm6.045 0a6.328 6.328 0 0 0 11.619 3.385l-1.633-1.128a4.249 4.249 0 0 1-7.9-1.849h9.842a5.856 5.856 0 0 0 .024-.624c-.024-3.84-2.569-6.025-5.713-6.025a6.083 6.083 0 0 0-6.236 6.245zm6.17-4.416a3.59 3.59 0 0 1 3.679 3.148h-7.609a3.923 3.923 0 0 1 3.933-3.144zm19.943 10.418h2.184v-14.927h5.306v-2.113h-12.8v2.113h5.305v14.931zm8.879 0h2.064v-5.954c0-2.808 1.657-4.128 3.169-4.128a3.017 3.017 0 0 1 1.128.192v-2.137a4.276 4.276 0 0 0-.936-.1 3.571 3.571 0 0 0-3.361 2.449v-2.329h-2.064v12zm9.816-4.633c0 2.976 1.776 4.873 4.417 4.873a4.132 4.132 0 0 0 3.7-2.089v1.849h2.064v-12h-2.064v5.953c0 2.761-1.465 4.393-3.337 4.393-1.656 0-2.713-1.272-2.713-3.288v-7.058h-2.064v7.37zm26.162 1.656l-1.8-1.008a4.069 4.069 0 0 1-3.745 2.3 4.322 4.322 0 0 1 0-8.641 4.069 4.069 0 0 1 3.745 2.3l1.8-1.008a6.215 6.215 0 0 0-5.545-3.217 6.242 6.242 0 1 0 0 12.483 6.217 6.217 0 0 0 5.548-3.205zm3.861 2.977h2.065v-6l6.5 6h2.785l-7.226-6.7 5.906-5.3h-2.737l-5.233 4.681v-10.681h-2.065v18zm12.432-6a6.327 6.327 0 0 0 11.618 3.385l-1.632-1.128a4.25 4.25 0 0 1-7.9-1.849h9.843a5.856 5.856 0 0 0 .024-.624c-.024-3.84-2.569-6.025-5.714-6.025a6.083 6.083 0 0 0-6.236 6.243zm6.169-4.416a3.591 3.591 0 0 1 3.673 3.144h-7.61a3.925 3.925 0 0 1 3.94-3.142zm9.911 10.418h2.064v-5.954c0-2.808 1.657-4.128 3.169-4.128a3.017 3.017 0 0 1 1.128.192v-2.137a4.276 4.276 0 0 0-.936-.1 3.572 3.572 0 0 0-3.361 2.449v-2.329H260.5v12zm24.338-4.705v-12.337h-2.209v12.1c0 2.328-1.32 3.168-2.808 3.168a2.667 2.667 0 0 1-2.833-2.784h-2.208c0 3.144 2.28 4.849 5.065 4.849 2.619-.001 4.996-1.418 4.996-4.994zm4.126-1.3a6.006 6.006 0 0 0 5.881 6.242 5.265 5.265 0 0 0 4.225-2.089v1.849h2.064v-12h-2.064v1.849a5.262 5.262 0 0 0-4.225-2.089 6.006 6.006 0 0 0-5.878 6.243zm10.274 0a4.1 4.1 0 1 1-4.081-4.344 4.1 4.1 0 0 1 4.084 4.349zm17.88 3.025l-1.8-1.008a4.069 4.069 0 0 1-3.745 2.3 4.322 4.322 0 0 1 0-8.641 4.069 4.069 0 0 1 3.745 2.3l1.8-1.008a6.215 6.215 0 0 0-5.545-3.217 6.242 6.242 0 1 0 0 12.483 6.217 6.217 0 0 0 5.548-3.204zm3.861 2.977h2.065v-6l6.5 6h2.785l-7.226-6.7 5.906-5.3h-2.737l-5.233 4.681v-10.68h-2.065v18zm12.432-6a6.327 6.327 0 0 0 11.618 3.385l-1.632-1.128a4.25 4.25 0 0 1-7.9-1.849h9.842a5.856 5.856 0 0 0 .024-.624c-.024-3.84-2.568-6.025-5.713-6.025a6.082 6.082 0 0 0-6.236 6.244zm6.169-4.416a3.591 3.591 0 0 1 3.673 3.144h-7.61a3.924 3.924 0 0 1 3.94-3.141zm16.249 10.249v-1.848a4.568 4.568 0 0 1-1.465.24c-1.3 0-1.992-.5-1.992-2.04v-6.289h3.457v-1.9h-3.457v-3.33H350.3v3.336h-2.54v1.9h2.54v6.553a3.379 3.379 0 0 0 3.673 3.673 5.72 5.72 0 0 0 1.853-.292zm13.39-16.515a1.449 1.449 0 0 0-1.44-1.464 1.491 1.491 0 0 0-1.488 1.464 1.475 1.475 0 0 0 1.488 1.465 1.435 1.435 0 0 0 1.443-1.462zm-2.5 16.684h2.064v-12h-2.057v12zm14.953-3.337c0-1.8-1.128-2.953-3.168-3.625l-1.3-.432c-1.416-.456-1.848-.912-1.848-1.68 0-.888.888-1.392 2.016-1.392a3.243 3.243 0 0 1 2.545 1.248l1.344-1.3a4.652 4.652 0 0 0-3.841-1.729c-2.376 0-4.056 1.32-4.056 3.265 0 1.68 1.032 2.856 2.976 3.48l1.176.385c1.561.5 2.137 1.08 2.137 1.92 0 1.032-.936 1.632-2.112 1.632a3.221 3.221 0 0 1-3.073-1.9l-1.681.912a4.769 4.769 0 0 0 4.7 2.785c2.44.011 4.192-1.218 4.192-3.566zm13.7-13.347a1.45 1.45 0 0 0-1.441-1.464 1.491 1.491 0 0 0-1.488 1.464 1.475 1.475 0 0 0 1.488 1.465 1.435 1.435 0 0 0 1.451-1.462zm-2.5 16.684h2.065v-12h-2.065v12zm7.176 0h2.064v-5.954c0-2.808 1.537-4.392 3.481-4.392 1.681 0 2.833 1.248 2.833 3.264v7.082h2.04V204.7c0-2.976-1.848-4.849-4.537-4.849a4.245 4.245 0 0 0-3.817 2.089v-1.849h-2.064v12zm23.113-3.337c0-1.8-1.128-2.953-3.168-3.625l-1.3-.432c-1.416-.456-1.848-.912-1.848-1.68 0-.888.888-1.392 2.017-1.392a3.242 3.242 0 0 1 2.544 1.248l1.344-1.3a4.652 4.652 0 0 0-3.84-1.729c-2.377 0-4.057 1.32-4.057 3.265 0 1.68 1.032 2.856 2.976 3.48l1.177.385c1.56.5 2.136 1.08 2.136 1.92 0 1.032-.936 1.632-2.112 1.632a3.221 3.221 0 0 1-3.073-1.9l-1.68.912a4.768 4.768 0 0 0 4.705 2.785c2.44.011 4.192-1.218 4.192-3.566zm4.151 8.353h2.064v-6.862a5.265 5.265 0 0 0 4.225 2.089 6.253 6.253 0 0 0 0-12.483 5.262 5.262 0 0 0-4.225 2.089v-1.849h-2.064v17.019zm10.058-11.018a4.089 4.089 0 1 1-4.081-4.344 4.1 4.1 0 0 1 4.094 4.347zm8.782-10.682a1.449 1.449 0 0 0-1.44-1.464 1.492 1.492 0 0 0-1.489 1.464 1.476 1.476 0 0 0 1.489 1.465 1.435 1.435 0 0 0 1.453-1.462zm-2.5 16.684h2.064v-12h-2.064v12zm7.175 0h2.079v-5.954c0-2.808 1.656-4.128 3.168-4.128a3.019 3.019 0 0 1 1.129.192v-2.137a4.279 4.279 0 0 0-.937-.1 3.57 3.57 0 0 0-3.36 2.449v-2.329h-2.065v12zm8.616-6a6.328 6.328 0 0 0 11.619 3.385l-1.633-1.128a4.249 4.249 0 0 1-7.9-1.849h9.842a5.856 5.856 0 0 0 .024-.624c-.024-3.84-2.569-6.025-5.713-6.025a6.083 6.083 0 0 0-6.222 6.242zm6.17-4.416a3.59 3.59 0 0 1 3.672 3.144h-7.609a3.923 3.923 0 0 1 3.954-3.143zm8.974 4.416a6.007 6.007 0 0 0 5.881 6.242 5.264 5.264 0 0 0 4.225-2.089v1.849h2.065v-18H484.7v7.85a5.261 5.261 0 0 0-4.225-2.089 6.006 6.006 0 0 0-5.875 6.238zm10.274 0a4.1 4.1 0 1 1-4.081-4.344 4.1 4.1 0 0 1 4.098 4.345zm16.1 4.153a5.265 5.265 0 0 0 4.225 2.089 6.253 6.253 0 0 0 0-12.483 5.262 5.262 0 0 0-4.225 2.089v-7.85h-2.045v18h2.064v-1.844zm7.994-4.153a4.089 4.089 0 1 1-4.081-4.344 4.1 4.1 0 0 1 4.1 4.345zm9.214 11.018l7.874-17.019h-2.3l-4.1 9.1-4.129-9.1h-2.281l5.257 11.378-2.616 5.641h2.3zm28.562-7.993l-1.8-1.008a4.07 4.07 0 0 1-3.745 2.3 4.322 4.322 0 0 1 0-8.641 4.07 4.07 0 0 1 3.745 2.3l1.8-1.008a6.215 6.215 0 0 0-5.545-3.217 6.242 6.242 0 1 0 0 12.483 6.217 6.217 0 0 0 5.564-3.208zm3.861 2.977h2.065v-18h-2.065v18zm6.24-6a6.006 6.006 0 0 0 5.881 6.242 5.264 5.264 0 0 0 4.225-2.089v1.849h2.065v-12h-2.065v1.849a5.261 5.261 0 0 0-4.225-2.089 6.006 6.006 0 0 0-5.862 6.237zm10.274 0a4.1 4.1 0 1 1-4.081-4.344 4.1 4.1 0 0 1 4.1 4.343zm14.76 2.665c0-1.8-1.129-2.953-3.169-3.625l-1.3-.432c-1.417-.456-1.849-.912-1.849-1.68 0-.888.888-1.392 2.017-1.392a3.242 3.242 0 0 1 2.544 1.248l1.344-1.3a4.652 4.652 0 0 0-3.84-1.729c-2.377 0-4.057 1.32-4.057 3.265 0 1.68 1.032 2.856 2.976 3.48l1.177.385c1.56.5 2.136 1.08 2.136 1.92 0 1.032-.936 1.632-2.112 1.632a3.221 3.221 0 0 1-3.073-1.9l-1.68.912a4.768 4.768 0 0 0 4.705 2.785c2.447.007 4.2-1.222 4.2-3.57zm11.9 0c0-1.8-1.129-2.953-3.169-3.625l-1.3-.432c-1.417-.456-1.849-.912-1.849-1.68 0-.888.888-1.392 2.017-1.392a3.242 3.242 0 0 1 2.544 1.248l1.344-1.3a4.652 4.652 0 0 0-3.84-1.729c-2.377 0-4.057 1.32-4.057 3.265 0 1.68 1.032 2.856 2.976 3.48l1.177.385c1.56.5 2.136 1.08 2.136 1.92 0 1.032-.936 1.632-2.112 1.632a3.221 3.221 0 0 1-3.073-1.9l-1.68.912a4.768 4.768 0 0 0 4.705 2.785c2.451.007 4.204-1.222 4.204-3.57zm6.646-13.347a1.449 1.449 0 0 0-1.44-1.464 1.491 1.491 0 0 0-1.488 1.464 1.475 1.475 0 0 0 1.488 1.465 1.435 1.435 0 0 0 1.463-1.466zm-2.5 16.684H600v-12h-2.064v12zm18.074-2.977l-1.8-1.008a4.068 4.068 0 0 1-3.744 2.3 4.322 4.322 0 0 1 0-8.641 4.068 4.068 0 0 1 3.744 2.3l1.8-1.008a6.215 6.215 0 0 0-5.545-3.217 6.242 6.242 0 1 0 0 12.483 6.217 6.217 0 0 0 5.572-3.21zm6.43 2.448a2.052 2.052 0 0 0 .336-1.08 1.777 1.777 0 1 0-3.553 0 1.789 1.789 0 0 0 .984 1.609l-1.608 3.432h1.368zM40.78 236.255c0 2.976 1.776 4.873 4.417 4.873a4.129 4.129 0 0 0 3.7-2.089v1.849h2.064v-12h-2.067v5.953c0 2.76-1.464 4.392-3.337 4.392-1.656 0-2.713-1.272-2.713-3.288v-7.057H40.78v7.369zm21.77 4.465v-1.849a4.564 4.564 0 0 1-1.464.24c-1.3 0-1.992-.5-1.992-2.04v-6.289h3.456v-1.9h-3.457v-3.337h-2.065v3.337h-2.544v1.9h2.544v6.553a3.379 3.379 0 0 0 3.673 3.673 5.745 5.745 0 0 0 1.849-.288zm6.335-16.515a1.45 1.45 0 0 0-1.44-1.465 1.491 1.491 0 0 0-1.488 1.465 1.475 1.475 0 0 0 1.488 1.464 1.435 1.435 0 0 0 1.44-1.464zm-2.5 16.683h2.064v-12h-2.061v12zm7.176 0h2.064v-18h-2.061v18zm9.672-16.683a1.45 1.45 0 0 0-1.44-1.465 1.491 1.491 0 0 0-1.488 1.465 1.475 1.475 0 0 0 1.488 1.464 1.435 1.435 0 0 0 1.443-1.464zm-2.5 16.683H82.8v-12h-2.06v12zm13.681-.168v-1.849a4.564 4.564 0 0 1-1.464.24c-1.3 0-1.992-.5-1.992-2.04v-6.289h3.457v-1.9h-3.451v-3.337H88.9v3.337h-2.545v1.9H88.9v6.553a3.379 3.379 0 0 0 3.673 3.673 5.745 5.745 0 0 0 1.848-.288zm2.735-5.833a6.006 6.006 0 0 0 5.882 6.241 5.264 5.264 0 0 0 4.225-2.089v1.849h2.064v-12h-2.064v1.848a5.267 5.267 0 0 0-4.225-2.089 6.007 6.007 0 0 0-5.875 6.24zm10.275 0a4.1 4.1 0 1 1-4.081-4.345 4.1 4.1 0 0 1 4.087 4.345zm6.981 6h2.065v-5.953c0-2.809 1.656-4.129 3.169-4.129a3.017 3.017 0 0 1 1.128.192v-2.136a4.219 4.219 0 0 0-.936-.1 3.571 3.571 0 0 0-3.361 2.449v-2.328h-2.065v12zm12.481-16.683a1.45 1.45 0 0 0-1.44-1.465 1.491 1.491 0 0 0-1.489 1.465 1.475 1.475 0 0 0 1.489 1.464 1.434 1.434 0 0 0 1.446-1.463zm-2.5 16.683h2.065v-12H124.4v12zm6.24-6a6.006 6.006 0 0 0 5.881 6.241 5.261 5.261 0 0 0 4.225-2.089v1.849h2.065v-12h-2.065v1.848a5.264 5.264 0 0 0-4.225-2.089 6.007 6.007 0 0 0-5.872 6.24zm10.274 0a4.1 4.1 0 1 1-4.081-4.345 4.1 4.1 0 0 1 4.09 4.345zm6.982 6h2.064v-5.953c0-2.809 1.537-4.393 3.481-4.393 1.681 0 2.833 1.248 2.833 3.264v7.082h2.04v-7.394c0-2.976-1.848-4.849-4.537-4.849a4.247 4.247 0 0 0-3.817 2.089v-1.848h-2.064v12zm30.169-3.337c0-1.8-1.128-2.952-3.169-3.625l-1.3-.432c-1.416-.456-1.848-.912-1.848-1.68 0-.888.888-1.392 2.016-1.392a3.244 3.244 0 0 1 2.545 1.248l1.344-1.3a4.655 4.655 0 0 0-3.841-1.729c-2.376 0-4.057 1.321-4.057 3.265 0 1.68 1.033 2.857 2.977 3.481l1.176.384c1.561.5 2.137 1.08 2.137 1.92 0 1.032-.937 1.632-2.113 1.632a3.221 3.221 0 0 1-3.072-1.9l-1.681.912a4.767 4.767 0 0 0 4.705 2.785c2.438.009 4.19-1.219 4.19-3.568zm10.512 3.169v-1.849a4.568 4.568 0 0 1-1.465.24c-1.3 0-1.992-.5-1.992-2.04v-6.289h3.457v-1.9h-3.457v-3.337h-2.064v3.337h-2.545v1.9h2.545v6.553a3.378 3.378 0 0 0 3.672 3.673 5.749 5.749 0 0 0 1.858-.287zm7.031 5.185l7.874-17.019h-2.305l-4.1 9.1-4.129-9.1h-2.28l5.257 11.378-2.617 5.641h2.306zm11.135-5.017h2.071v-18h-2.065v18zm6.24-6a6.327 6.327 0 0 0 11.618 3.384l-1.632-1.128a4.25 4.25 0 0 1-7.9-1.848h9.842a5.856 5.856 0 0 0 .024-.624c-.024-3.841-2.568-6.026-5.713-6.026a6.082 6.082 0 0 0-6.23 6.242zm6.169-4.417a3.591 3.591 0 0 1 3.673 3.144h-7.61a3.924 3.924 0 0 1 3.946-3.144zm12.479 9.89a2.052 2.052 0 0 0 .336-1.081 1.776 1.776 0 1 0-3.552 0 1.786 1.786 0 0 0 .984 1.609l-1.608 3.432h1.368zm11.831.528h2.065v-5.953c0-2.809 1.656-4.129 3.169-4.129a3.017 3.017 0 0 1 1.128.192v-2.136a4.219 4.219 0 0 0-.936-.1 3.571 3.571 0 0 0-3.361 2.449v-2.328h-2.065v12zm8.616-6a6.328 6.328 0 0 0 11.619 3.384l-1.632-1.128a4.25 4.25 0 0 1-7.9-1.848H264a5.856 5.856 0 0 0 .024-.624c-.024-3.841-2.569-6.026-5.713-6.026a6.083 6.083 0 0 0-6.238 6.241zm6.17-4.417a3.592 3.592 0 0 1 3.673 3.144h-7.61a3.923 3.923 0 0 1 3.946-3.145zm9.526 4.729h6.122v-2.065h-6.122v2.065zm13.345-10.994a1.45 1.45 0 0 0-1.441-1.465 1.491 1.491 0 0 0-1.488 1.465 1.475 1.475 0 0 0 1.488 1.464 1.435 1.435 0 0 0 1.45-1.465zm-2.5 16.683h2.065v-12h-2.065v12zm7.176 0h2.064v-5.953c0-2.713 1.369-4.393 3.313-4.393 1.56 0 2.353 1.344 2.353 3.288v7.058h2.064v-5.953c0-2.713 1.344-4.393 3.289-4.393 1.56 0 2.376 1.344 2.376 3.288v7.058h2.065v-7.37c0-2.928-1.585-4.873-4.2-4.873a4.154 4.154 0 0 0-3.937 2.569 3.773 3.773 0 0 0-3.7-2.569 4.037 4.037 0 0 0-3.625 2.089v-1.848h-2.064v12zm21.5-6a6.006 6.006 0 0 0 5.881 6.241 5.262 5.262 0 0 0 4.225-2.089v1.849h2.064v-12H317.4v1.848a5.265 5.265 0 0 0-4.225-2.089 6.006 6.006 0 0 0-5.875 6.238zm10.274 0a4.1 4.1 0 1 1-4.081-4.345 4.1 4.1 0 0 1 4.097 4.343zm18.168 5.305v-11.308h-2.064v1.848a5.11 5.11 0 0 0-4.177-2.089 6.115 6.115 0 0 0 0 12.219 5.126 5.126 0 0 0 4.177-2.113v1.369a3.837 3.837 0 0 1-4.009 4.152 5.134 5.134 0 0 1-4.2-2.016l-1.441 1.44a7.126 7.126 0 0 0 5.666 2.449c3.425 0 6.064-1.945 6.064-5.953zm-10.01-5.449a4.059 4.059 0 1 1 4.057 4.2 4 4 0 0 1-4.041-4.202zm17.592-10.538a1.45 1.45 0 0 0-1.44-1.465 1.491 1.491 0 0 0-1.489 1.465 1.475 1.475 0 0 0 1.489 1.464 1.434 1.434 0 0 0 1.456-1.466zm-2.5 16.683h2.065v-12h-2.065v12zm7.176 0h2.065v-5.953c0-2.809 1.536-4.393 3.48-4.393 1.681 0 2.833 1.248 2.833 3.264v7.082h2.04v-7.394c0-2.976-1.848-4.849-4.537-4.849a4.244 4.244 0 0 0-3.816 2.089v-1.848H348v12zm14.4-6a6.327 6.327 0 0 0 11.618 3.384l-1.632-1.128a4.25 4.25 0 0 1-7.9-1.848h9.842a5.856 5.856 0 0 0 .024-.624c-.024-3.841-2.568-6.026-5.713-6.026a6.082 6.082 0 0 0-6.22 6.239zm6.169-4.417a3.591 3.591 0 0 1 3.673 3.144h-7.61a3.924 3.924 0 0 1 3.956-3.147zm8.975 4.417a6.006 6.006 0 0 0 5.881 6.241 5.262 5.262 0 0 0 4.225-2.089v1.849h2.064v-18h-2.045v7.85a5.265 5.265 0 0 0-4.225-2.089 6.006 6.006 0 0 0-5.881 6.235zm10.274 0a4.1 4.1 0 1 1-4.081-4.345 4.1 4.1 0 0 1 4.1 4.342zm16.534-10.682a1.45 1.45 0 0 0-1.44-1.465 1.491 1.491 0 0 0-1.489 1.465 1.475 1.475 0 0 0 1.489 1.464 1.434 1.434 0 0 0 1.459-1.467zm-2.5 16.683h2.065v-12h-2.065v12zm7.176 0h2.091v-5.953c0-2.809 1.536-4.393 3.48-4.393 1.681 0 2.833 1.248 2.833 3.264v7.082h2.04v-7.394c0-2.976-1.848-4.849-4.537-4.849a4.244 4.244 0 0 0-3.816 2.089v-1.848h-2.065v12zm22.392 5.017h2.064v-6.866a5.262 5.262 0 0 0 4.225 2.089 6.253 6.253 0 0 0 0-12.483 5.265 5.265 0 0 0-4.225 2.089v-1.848h-2.064v17.019zm10.058-11.018a4.089 4.089 0 1 1-4.081-4.345 4.1 4.1 0 0 1 4.103 4.342zm6.285 6h2.065v-5.953c0-2.809 1.656-4.129 3.169-4.129a3.017 3.017 0 0 1 1.128.192v-2.136a4.219 4.219 0 0 0-.936-.1 3.571 3.571 0 0 0-3.361 2.449v-2.328h-2.065v12zm8.616-6a6.328 6.328 0 0 0 11.64 3.381l-1.632-1.128a4.25 4.25 0 0 1-7.9-1.848h9.842a5.856 5.856 0 0 0 .024-.624c-.024-3.841-2.569-6.026-5.713-6.026a6.083 6.083 0 0 0-6.239 6.242zm6.17-4.417a3.592 3.592 0 0 1 3.673 3.144h-7.61a3.923 3.923 0 0 1 3.959-3.147zm9.911 10.418h2.064v-5.953c0-2.713 1.368-4.393 3.313-4.393 1.56 0 2.352 1.344 2.352 3.288v7.058h2.065v-5.953c0-2.713 1.344-4.393 3.288-4.393 1.561 0 2.377 1.344 2.377 3.288v7.058h2.064v-7.37c0-2.928-1.584-4.873-4.2-4.873a4.156 4.156 0 0 0-3.937 2.569 3.773 3.773 0 0 0-3.7-2.569 4.035 4.035 0 0 0-3.625 2.089v-1.848h-2.064v12zm24.959-16.686a1.45 1.45 0 0 0-1.44-1.465 1.491 1.491 0 0 0-1.489 1.465 1.475 1.475 0 0 0 1.489 1.464 1.434 1.434 0 0 0 1.44-1.464zm-2.5 16.683h2.065v-12H494.9v12zm7.008-4.633c0 2.976 1.777 4.873 4.417 4.873a4.129 4.129 0 0 0 3.7-2.089v1.849h2.064v-12h-2.064v5.953c0 2.76-1.464 4.392-3.337 4.392-1.656 0-2.712-1.272-2.712-3.288v-7.057h-2.066v7.369zm15.264 4.633h2.064v-5.953c0-2.713 1.369-4.393 3.313-4.393 1.561 0 2.353 1.344 2.353 3.288v7.058h2.064v-5.953c0-2.713 1.344-4.393 3.289-4.393 1.56 0 2.376 1.344 2.376 3.288v7.058h2.069v-7.37c0-2.928-1.585-4.873-4.2-4.873a4.155 4.155 0 0 0-3.937 2.569 3.773 3.773 0 0 0-3.7-2.569 4.037 4.037 0 0 0-3.625 2.089v-1.848h-2.064v12zm37.273-3.337c0-1.8-1.128-2.952-3.168-3.625l-1.3-.432c-1.416-.456-1.848-.912-1.848-1.68 0-.888.888-1.392 2.016-1.392a3.243 3.243 0 0 1 2.545 1.248l1.344-1.3a4.655 4.655 0 0 0-3.841-1.729c-2.376 0-4.056 1.321-4.056 3.265 0 1.68 1.032 2.857 2.976 3.481l1.176.384c1.561.5 2.137 1.08 2.137 1.92 0 1.032-.936 1.632-2.113 1.632a3.221 3.221 0 0 1-3.072-1.9l-1.681.912a4.768 4.768 0 0 0 4.7 2.785c2.44.008 4.187-1.22 4.187-3.569zm3.982-1.3c0 2.976 1.777 4.873 4.417 4.873a4.128 4.128 0 0 0 3.7-2.089v1.849h2.065v-12h-2.065v5.953c0 2.76-1.464 4.392-3.337 4.392-1.656 0-2.712-1.272-2.712-3.288v-7.057h-2.065v7.369zm14.328-1.368a6.328 6.328 0 0 0 11.619 3.384l-1.633-1.128a4.249 4.249 0 0 1-7.9-1.848h9.842a5.856 5.856 0 0 0 .024-.624c-.024-3.841-2.569-6.026-5.714-6.026a6.083 6.083 0 0 0-6.236 6.246zm6.169-4.417a3.591 3.591 0 0 1 3.673 3.144h-7.607a3.923 3.923 0 0 1 3.936-3.14zm8.975 4.417a6.006 6.006 0 0 0 5.881 6.241 5.261 5.261 0 0 0 4.225-2.089v1.849h2.065v-18h-2.065v7.85a5.264 5.264 0 0 0-4.225-2.089 6.006 6.006 0 0 0-5.88 6.242zm10.274 0a4.1 4.1 0 1 1-4.081-4.345 4.1 4.1 0 0 1 4.083 4.349zm6.046 0a6.327 6.327 0 0 0 11.618 3.384l-1.632-1.128a4.25 4.25 0 0 1-7.9-1.848h9.842a5.856 5.856 0 0 0 .024-.624c-.024-3.841-2.568-6.026-5.713-6.026a6.082 6.082 0 0 0-6.237 6.246zm6.169-4.417a3.591 3.591 0 0 1 3.673 3.144h-7.61a3.924 3.924 0 0 1 3.939-3.14zm12.767 8.809a1.776 1.776 0 1 0-1.776 1.8 1.808 1.808 0 0 0 1.778-1.796z"/></svg>