<svg id="copy_copy_2" data-name="copy copy 2" xmlns="http://www.w3.org/2000/svg" width="768" height="403" viewBox="0 0 768 403">
  <defs>
    <style>
      .cls-1 {
        fill: #fff;
      }

      .cls-2 {
        fill-rule: evenodd;
      }
    </style>
  </defs>
  <rect id="Rectangle_106_copy_12" data-name="Rectangle 106 copy 12" class="cls-1" width="768" height="403"/>
  <g id="CTA_underline_copy_5" data-name="CTA_underline copy 5">
    <rect id="Rectangle_4_copy_4" data-name="Rectangle 4 copy 4" x="39" y="309" width="122" height="4"/>
    <path id="Shop_now" data-name="Shop now" class="cls-2" d="M43.817,301.853c2.706,0,4.564-1.653,4.582-4.023,0.018-1.965-1.19-3.214-3.048-3.894l-0.9-.33c-1.353-.5-1.984-0.808-1.984-1.506,0-.68.776-0.992,1.551-0.992a2.831,2.831,0,0,1,2.219,1.083l1.876-2.02a5.3,5.3,0,0,0-4.131-1.8c-2.561,0-4.419,1.488-4.419,4.022,0,1.782,1.154,3.049,3.229,3.766l0.9,0.312c1.281,0.441,1.786.9,1.786,1.561,0,0.625-.6,1.084-1.551,1.084a3.335,3.335,0,0,1-2.652-1.488l-2.2,1.892A5.583,5.583,0,0,0,43.817,301.853Zm9.726-.221H56.41v-5.161h5.159v5.161h2.868V288.591H61.569V293.7H56.41v-5.107H53.542v13.041Zm22.66,0.221a6.742,6.742,0,1,0-6.62-6.741A6.7,6.7,0,0,0,76.2,301.853Zm0-2.829a3.917,3.917,0,1,1,3.716-3.912A3.837,3.837,0,0,1,76.2,299.024Zm20.622-5.969a4.4,4.4,0,0,0-4.51-4.464H87.967v13.041h2.868V297.5h1.479A4.385,4.385,0,0,0,96.824,293.055Zm-2.778,0a1.7,1.7,0,0,1-1.768,1.708H90.835v-3.416h1.443A1.688,1.688,0,0,1,94.046,293.055Zm25.979,8.577V288.591h-2.886v8.045l-6.223-8.045h-2.472v13.041h2.869v-8.063l6.241,8.063h2.471Zm11.765,0.221a6.742,6.742,0,1,0-6.62-6.741A6.7,6.7,0,0,0,131.79,301.853Zm0-2.829a3.917,3.917,0,1,1,3.716-3.912A3.837,3.837,0,0,1,131.79,299.024Zm21.686,2.608H156.2l2.976-13.041h-3.067l-1.749,8.266-3.608-8.486-3.589,8.486-1.75-8.266h-3.067l2.959,13.041h2.723l2.724-6.392Z"/>
  </g>
  <path id="Suede_Trucker_Jacket_Suede_b._2018_Banana_Republic_s_legacy" data-name="Suede Trucker Jacket   Suede, b. 2018  Banana Republic’s legacy" class="cls-2" d="M50.024,68.553c5.76,0,9.715-3.456,9.753-8.409,0.038-4.108-2.534-6.719-6.489-8.14l-1.92-.691c-2.88-1.037-4.224-1.689-4.224-3.148,0-1.421,1.651-2.073,3.3-2.073a6.064,6.064,0,0,1,4.723,2.265l3.993-4.224a11.376,11.376,0,0,0-8.793-3.763c-5.452,0-9.407,3.11-9.407,8.409,0,3.724,2.457,6.374,6.873,7.871l1.92,0.653c2.726,0.922,3.8,1.881,3.8,3.264,0,1.306-1.267,2.265-3.3,2.265a7.132,7.132,0,0,1-5.644-3.11l-4.684,3.955A11.954,11.954,0,0,0,50.024,68.553Zm26.8,0c6.527,0,11.212-4.454,11.212-11.25V40.831H81.933V57.38c0,3.264-2.073,5.26-5.107,5.26s-5.107-2-5.107-5.26V40.831H65.614V57.3C65.614,64.1,70.261,68.553,76.826,68.553Zm18.586-.461h17.279V62.256H101.517V57.38h8.87V51.544h-8.87V46.667h11.174V40.831H95.412V68.092Zm23.847,0h9.292a13.633,13.633,0,1,0,0-27.261h-9.292V68.092Zm6.105-5.606V46.437h3.187a7.694,7.694,0,0,1,7.718,8.025,7.694,7.694,0,0,1-7.718,8.025h-3.187Zm23.271,5.606h17.278V62.256H154.74V57.38h8.869V51.544H154.74V46.667h11.173V40.831H148.635V68.092Zm38.015,0h6.143V46.667h7.027V40.831H179.7v5.836h6.95V68.092Zm18.816,0h6.1V56.842h1l9.062,11.25h7.334l-9.638-12.018c3.456-1.229,5.338-3.494,5.338-7.026a8.049,8.049,0,0,0-8.448-8.217H205.466V68.092Zm6.1-16.434V46.437h3.917c1.8,0,3.11.96,3.11,2.611,0,1.574-1.306,2.611-3.11,2.611h-3.917Zm31.641,16.894c6.528,0,11.212-4.454,11.212-11.25V40.831h-6.105V57.38c0,3.264-2.073,5.26-5.107,5.26s-5.106-2-5.106-5.26V40.831H232V57.3C232,64.1,236.647,68.553,243.212,68.553Zm31.142,0A14.092,14.092,0,0,0,287.1,61.1l-5.375-2.918a8.179,8.179,0,1,1,0-7.449l5.375-2.918A14.213,14.213,0,1,0,274.354,68.553Zm18.241-.461h6.067V55.882l11.1,12.21h7.833l-12.94-14.168L315.4,40.831h-7.487l-9.254,11.4v-11.4H292.6V68.092Zm28.8,0h17.279V62.256H327.5V57.38h8.87V51.544H327.5V46.667h11.174V40.831H321.4V68.092Zm23.846,0h6.106V56.842h1l9.062,11.25h7.334L359.1,56.074c3.456-1.229,5.337-3.494,5.337-7.026a8.049,8.049,0,0,0-8.447-8.217H345.241V68.092Zm6.106-16.434V46.437h3.916c1.805,0,3.11.96,3.11,2.611,0,1.574-1.305,2.611-3.11,2.611h-3.916ZM387.9,68.553c4.685,0,8.908-2.342,8.908-7.91V40.831h-6.1V60.259a2.807,2.807,0,0,1-5.606-.154h-6.028C379.072,66.019,383.334,68.553,387.9,68.553Zm12.865-.461h6.374l2.419-5.759H420.85l2.419,5.759h6.373L417.97,40.831h-5.529Zm11.02-11.058,3.417-8.217,3.417,8.217h-6.834Zm33.945,11.519A14.092,14.092,0,0,0,458.481,61.1l-5.376-2.918a8.179,8.179,0,1,1,0-7.449l5.376-2.918A14.213,14.213,0,1,0,445.733,68.553Zm18.241-.461h6.067V55.882l11.1,12.21h7.833l-12.94-14.168,10.751-13.093h-7.488l-9.253,11.4v-11.4h-6.067V68.092Zm28.8,0h17.279V62.256H498.879V57.38h8.87V51.544h-8.87V46.667h11.174V40.831H492.774V68.092Zm28.761,0h6.144V46.667h7.026V40.831h-20.12v5.836h6.95V68.092ZM39.954,98.629c0.977,1.927,3.485,3.379,6.575,3.379,3.485,0,5.967-2.006,5.967-5.2,0-2.772-1.584-4.356-4.357-5.413l-2.271-.871c-1.9-.713-2.825-1.426-2.825-3.01,0-1.558,1.531-2.588,3.38-2.588a4.639,4.639,0,0,1,3.723,1.848l1.8-1.584a6.838,6.838,0,0,0-5.466-2.561c-3.353,0-5.862,1.928-5.862,4.99,0,2.561,1.32,4.093,4.251,5.175l2.482,0.951c1.743,0.66,2.693,1.663,2.693,3.168,0,1.743-1.531,2.8-3.459,2.8a5.238,5.238,0,0,1-4.647-2.561ZM56.85,96.6c0,3.274,1.954,5.359,4.858,5.359a4.541,4.541,0,0,0,4.066-2.3v2.033h2.271V88.49H65.775v6.548c0,3.036-1.611,4.832-3.67,4.832-1.822,0-2.984-1.4-2.984-3.617V88.49H56.85V96.6Zm15.761-1.505A6.96,6.96,0,0,0,85.39,98.813l-1.8-1.241a4.674,4.674,0,0,1-8.687-2.033H85.733a6.444,6.444,0,0,0,.026-0.687c-0.026-4.224-2.825-6.627-6.284-6.627A6.69,6.69,0,0,0,72.611,95.091ZM79.4,90.232a3.95,3.95,0,0,1,4.04,3.459h-8.37A4.316,4.316,0,0,1,79.4,90.232Zm9.872,4.858a6.606,6.606,0,0,0,6.469,6.864,5.788,5.788,0,0,0,4.647-2.3v2.033h2.271v-19.8h-2.271v8.634a5.79,5.79,0,0,0-4.647-2.3A6.606,6.606,0,0,0,89.269,95.091Zm11.3,0a4.51,4.51,0,1,1-4.489-4.779A4.508,4.508,0,0,1,100.57,95.091Zm6.651,0A6.96,6.96,0,0,0,120,98.813l-1.8-1.241a4.674,4.674,0,0,1-8.687-2.033h10.825a6.3,6.3,0,0,0,.027-0.687c-0.027-4.224-2.825-6.627-6.284-6.627A6.689,6.689,0,0,0,107.221,95.091Zm6.785-4.858a3.95,3.95,0,0,1,4.04,3.459h-8.37A4.316,4.316,0,0,1,114.006,90.232Zm13.728,10.879a2.263,2.263,0,0,0,.369-1.189,1.954,1.954,0,1,0-3.907,0,1.965,1.965,0,0,0,1.082,1.769l-1.769,3.776h1.5Zm15.285-1.453a5.788,5.788,0,0,0,4.647,2.3,6.877,6.877,0,0,0,0-13.729,5.789,5.789,0,0,0-4.647,2.3V81.889h-2.271v19.8h2.271V99.658Zm8.792-4.568a4.5,4.5,0,1,1-4.488-4.779A4.507,4.507,0,0,1,151.811,95.091Zm9.767,4.832a1.954,1.954,0,1,0-1.954,1.981A1.989,1.989,0,0,0,161.578,99.922Zm23.893-.422h-9.347c0.449-2.165,2.64-3.248,4.806-4.832,3.062-2.218,4.33-3.8,4.33-6.548,0-3.644-2.667-5.492-5.783-5.492-3.459,0-6.178,2.324-6.178,5.914h2.323a3.621,3.621,0,0,1,3.882-3.7,3.169,3.169,0,0,1,3.432,3.248c0,2.191-1.162,3.168-3.327,4.779-2.772,2.06-6.284,3.908-6.284,7.921v0.9h12.146V99.5Zm17.477-4.594V89.678c0-4.145-2.8-7.05-6.654-7.05s-6.627,2.9-6.627,7.05v5.228c0,4.172,2.772,7.049,6.627,7.049S202.948,99.078,202.948,94.906Zm-11.01,0V89.678c0-3.036,1.821-4.832,4.356-4.832,2.561,0,4.383,1.8,4.383,4.832v5.228c0,3.036-1.822,4.832-4.383,4.832C193.759,99.738,191.938,97.942,191.938,94.906Zm17.687,6.785H211.9V82.945h-4.04l-1.848,2.244h3.617v16.5Zm19.907-5.624a5.237,5.237,0,0,0-2.931-4.911,4.387,4.387,0,0,0,1.9-3.7c0-2.8-2.165-4.832-5.254-4.832-3.01,0-5.281,2.033-5.281,4.832a4.372,4.372,0,0,0,1.954,3.7,5.239,5.239,0,0,0-2.983,4.911c0,3.406,2.64,5.888,6.31,5.888C226.971,101.955,229.532,99.474,229.532,96.068Zm-9.32-8.555a2.79,2.79,0,0,1,3.036-2.746,2.739,2.739,0,0,1,3.01,2.746,2.8,2.8,0,0,1-3.01,2.772A2.857,2.857,0,0,1,220.212,87.513Zm-0.977,8.555a3.722,3.722,0,0,1,4.013-3.749,3.744,3.744,0,1,1,0,7.472A3.731,3.731,0,0,1,219.235,96.068ZM41.26,154.49h6.1c3.457,0,5.713-2.136,5.713-4.969a4.062,4.062,0,0,0-2.953-4.081,3.862,3.862,0,0,0,1.824-3.48c0-2.4-1.92-4.513-5.089-4.513H41.26V154.49Zm2.233-9.722v-5.305h3.361a2.679,2.679,0,0,1,2.9,2.665,2.623,2.623,0,0,1-2.9,2.64H43.493Zm0,7.706v-5.785h3.985c2.256,0,3.409,1.248,3.409,2.9,0,1.68-1.152,2.881-3.433,2.881H43.493Zm12.815-3.985a6.006,6.006,0,0,0,5.881,6.241,5.264,5.264,0,0,0,4.225-2.088v1.848h2.064v-12H66.414v1.848a5.264,5.264,0,0,0-4.225-2.088A6.006,6.006,0,0,0,56.308,148.489Zm10.274,0a4.1,4.1,0,1,1-4.081-4.345A4.1,4.1,0,0,1,66.582,148.489Zm6.982,6h2.064v-5.953c0-2.809,1.536-4.393,3.481-4.393,1.68,0,2.833,1.248,2.833,3.265v7.081h2.04V147.1c0-2.977-1.848-4.849-4.537-4.849a4.244,4.244,0,0,0-3.817,2.088v-1.848H73.564v12Zm14.4-6a6.006,6.006,0,0,0,5.881,6.241,5.264,5.264,0,0,0,4.225-2.088v1.848h2.064v-12H98.07v1.848a5.264,5.264,0,0,0-4.225-2.088A6.006,6.006,0,0,0,87.964,148.489Zm10.274,0a4.1,4.1,0,1,1-4.081-4.345A4.1,4.1,0,0,1,98.238,148.489Zm6.981,6h2.065v-5.953c0-2.809,1.536-4.393,3.481-4.393,1.68,0,2.832,1.248,2.832,3.265v7.081h2.041V147.1c0-2.977-1.849-4.849-4.537-4.849a4.244,4.244,0,0,0-3.817,2.088v-1.848h-2.065v12Zm14.4-6a6.005,6.005,0,0,0,5.881,6.241,5.263,5.263,0,0,0,4.225-2.088v1.848h2.065v-12h-2.065v1.848a5.263,5.263,0,0,0-4.225-2.088A6.005,6.005,0,0,0,119.619,148.489Zm10.274,0a4.1,4.1,0,1,1-4.081-4.345A4.1,4.1,0,0,1,129.893,148.489Zm14.35,6h2.232v-7.753h1.657l6.553,7.753h2.809l-6.554-7.777c2.617-.385,4.2-2.065,4.2-4.561,0-2.809-1.944-4.7-5.089-4.7h-5.809V154.49Zm2.232-9.746v-5.233h3.313c1.944,0,3.121.912,3.121,2.641,0,1.7-1.177,2.592-3.121,2.592h-3.313Zm12.6,3.745a6.328,6.328,0,0,0,11.619,3.385l-1.633-1.129a4.249,4.249,0,0,1-7.9-1.848h9.842a5.856,5.856,0,0,0,.024-0.624c-0.024-3.841-2.569-6.025-5.713-6.025A6.082,6.082,0,0,0,159.074,148.489Zm6.17-4.417a3.59,3.59,0,0,1,3.672,3.145h-7.609A3.923,3.923,0,0,1,165.244,144.072Zm9.91,15.435h2.065v-6.865a5.263,5.263,0,0,0,4.225,2.088,6.252,6.252,0,0,0,0-12.482,5.263,5.263,0,0,0-4.225,2.088v-1.848h-2.065v17.019Zm10.059-11.018a4.089,4.089,0,1,1-4.081-4.345A4.1,4.1,0,0,1,185.213,148.489Zm6.117,1.368c0,2.977,1.777,4.873,4.417,4.873a4.129,4.129,0,0,0,3.7-2.088v1.848h2.064v-12h-2.064v5.953c0,2.76-1.464,4.393-3.337,4.393-1.656,0-2.712-1.273-2.712-3.289v-7.057H191.33v7.369Zm17.329,2.785a5.262,5.262,0,0,0,4.224,2.088,6.252,6.252,0,0,0,0-12.482,5.262,5.262,0,0,0-4.224,2.088v-7.849h-2.065v18h2.065v-1.848Zm7.993-4.153a4.089,4.089,0,1,1-4.081-4.345A4.1,4.1,0,0,1,216.652,148.489Zm6.262,6h2.064v-18h-2.064v18Zm9.672-16.683a1.449,1.449,0,0,0-1.44-1.464,1.491,1.491,0,0,0-1.488,1.464,1.475,1.475,0,0,0,1.488,1.464A1.434,1.434,0,0,0,232.586,137.807Zm-2.5,16.683h2.064v-12H230.09v12Zm18.074-2.977-1.8-1.008a4.069,4.069,0,0,1-3.745,2.305,4.323,4.323,0,0,1,0-8.642,4.069,4.069,0,0,1,3.745,2.305l1.8-1.009a6.216,6.216,0,0,0-5.545-3.216,6.241,6.241,0,1,0,0,12.482A6.215,6.215,0,0,0,248.164,151.513Zm6.622-11.474a2.121,2.121,0,0,0,.336-1.08,1.788,1.788,0,1,0-3.576,0,1.86,1.86,0,0,0,.984,1.608L250.921,144h1.393ZM266,151.153c0-1.8-1.128-2.952-3.168-3.624l-1.3-.432c-1.417-.456-1.849-0.913-1.849-1.681,0-.888.888-1.392,2.017-1.392a3.242,3.242,0,0,1,2.544,1.248l1.344-1.3a4.654,4.654,0,0,0-3.84-1.728c-2.377,0-4.057,1.32-4.057,3.264,0,1.681,1.032,2.857,2.976,3.481l1.177,0.384c1.56,0.5,2.136,1.08,2.136,1.92,0,1.033-.936,1.633-2.112,1.633a3.22,3.22,0,0,1-3.073-1.9l-1.68.913a4.767,4.767,0,0,0,4.705,2.784C264.243,154.73,266,153.506,266,151.153ZM277.2,154.49h2.065v-18H277.2v18Zm6.24-6a6.328,6.328,0,0,0,11.618,3.385l-1.632-1.129a4.25,4.25,0,0,1-7.9-1.848h9.842a5.856,5.856,0,0,0,.024-0.624c-0.024-3.841-2.568-6.025-5.713-6.025A6.081,6.081,0,0,0,283.441,148.489Zm6.169-4.417a3.591,3.591,0,0,1,3.673,3.145h-7.61A3.924,3.924,0,0,1,289.61,144.072Zm21.1,9.722V142.488h-2.064v1.848a5.108,5.108,0,0,0-4.177-2.088,6.114,6.114,0,0,0,0,12.218,5.126,5.126,0,0,0,4.177-2.112v1.368a3.837,3.837,0,0,1-4.009,4.153,5.136,5.136,0,0,1-4.2-2.017l-1.44,1.441a7.126,7.126,0,0,0,5.665,2.448C308.067,159.747,310.707,157.8,310.707,153.794Zm-10.01-5.449a4.059,4.059,0,1,1,4.057,4.2A4,4,0,0,1,300.7,148.345Zm14.16,0.144a6.005,6.005,0,0,0,5.881,6.241,5.264,5.264,0,0,0,4.225-2.088v1.848h2.064v-12h-2.064v1.848a5.264,5.264,0,0,0-4.225-2.088A6.005,6.005,0,0,0,314.857,148.489Zm10.274,0a4.1,4.1,0,1,1-4.081-4.345A4.1,4.1,0,0,1,325.131,148.489Zm17.88,3.024-1.8-1.008a4.067,4.067,0,0,1-3.744,2.305,4.323,4.323,0,0,1,0-8.642,4.067,4.067,0,0,1,3.744,2.305l1.8-1.009a6.216,6.216,0,0,0-5.545-3.216,6.241,6.241,0,1,0,0,12.482A6.215,6.215,0,0,0,343.011,151.513Zm7.03,7.994,7.874-17.019H355.61l-4.105,9.1-4.129-9.1H345.1l5.257,11.378-2.616,5.641h2.3ZM379.3,148.489a6.278,6.278,0,1,0-6.266,6.241A6.159,6.159,0,0,0,379.3,148.489Zm-10.442,0a4.167,4.167,0,1,1,4.176,4.321A4.125,4.125,0,0,1,368.857,148.489Zm15.407,6h2.065V144.384h3.481v-1.9h-3.481v-2.209c0-1.512.672-2.04,1.992-2.04a4.844,4.844,0,0,1,1.489.24v-1.824a5.464,5.464,0,0,0-1.873-.312,3.428,3.428,0,0,0-3.673,3.72v2.425H381.72v1.9h2.544V154.49Zm14.5-6a6.328,6.328,0,0,0,11.618,3.385l-1.632-1.129a4.25,4.25,0,0,1-7.9-1.848h9.842a5.856,5.856,0,0,0,.024-0.624c-0.024-3.841-2.568-6.025-5.713-6.025A6.081,6.081,0,0,0,398.76,148.489Zm6.169-4.417a3.591,3.591,0,0,1,3.673,3.145h-7.61A3.924,3.924,0,0,1,404.929,144.072Zm7.679,10.418h2.568l3.649-4.537,3.649,4.537h2.544l-4.9-6.073,4.513-5.929h-2.52l-3.289,4.321-3.313-4.321h-2.5l4.513,5.929Zm15.72,5.017h2.064v-6.865a5.266,5.266,0,0,0,4.225,2.088,6.252,6.252,0,0,0,0-12.482,5.266,5.266,0,0,0-4.225,2.088v-1.848h-2.064v17.019Zm10.058-11.018a4.089,4.089,0,1,1-4.081-4.345A4.1,4.1,0,0,1,438.386,148.489Zm6.286,6h2.064v-18h-2.064v18Zm18.77-6a6.277,6.277,0,1,0-6.265,6.241A6.159,6.159,0,0,0,463.442,148.489Zm-10.442,0a4.168,4.168,0,1,1,4.177,4.321A4.125,4.125,0,0,1,453,148.489Zm14.591,6h2.065v-5.953c0-2.809,1.656-4.129,3.169-4.129a3.017,3.017,0,0,1,1.128.192v-2.136a4.276,4.276,0,0,0-.936-0.1,3.57,3.57,0,0,0-3.361,2.448v-2.328h-2.065v12Zm8.64-6a6.006,6.006,0,0,0,5.881,6.241,5.263,5.263,0,0,0,4.225-2.088v1.848H488.4v-12h-2.065v1.848a5.263,5.263,0,0,0-4.225-2.088A6.006,6.006,0,0,0,476.231,148.489Zm10.274,0a4.1,4.1,0,1,1-4.08-4.345A4.1,4.1,0,0,1,486.505,148.489Zm13.488,5.833v-1.848a4.573,4.573,0,0,1-1.465.24c-1.3,0-1.992-.5-1.992-2.041v-6.289h3.457v-1.9h-3.457v-3.337h-2.065v3.337h-2.544v1.9h2.544v6.553a3.379,3.379,0,0,0,3.673,3.673A5.754,5.754,0,0,0,499.993,154.322Zm6.335-16.515a1.45,1.45,0,0,0-1.441-1.464,1.491,1.491,0,0,0-1.488,1.464,1.475,1.475,0,0,0,1.488,1.464A1.435,1.435,0,0,0,506.328,137.807Zm-2.5,16.683H505.9v-12h-2.065v12Zm18.77-6a6.277,6.277,0,1,0-6.265,6.241A6.159,6.159,0,0,0,522.6,148.489Zm-10.442,0a4.168,4.168,0,1,1,4.177,4.321A4.126,4.126,0,0,1,512.159,148.489Zm14.592,6h2.064v-5.953c0-2.809,1.536-4.393,3.481-4.393,1.68,0,2.832,1.248,2.832,3.265v7.081h2.041V147.1c0-2.977-1.849-4.849-4.537-4.849a4.245,4.245,0,0,0-3.817,2.088v-1.848h-2.064v12Zm17.9-.528a2.052,2.052,0,0,0,.336-1.08,1.777,1.777,0,1,0-3.553,0,1.786,1.786,0,0,0,.984,1.608l-1.608,3.433h1.368Zm10.895-5.473a6.005,6.005,0,0,0,5.881,6.241,5.264,5.264,0,0,0,4.225-2.088v1.848h2.064v-18h-2.064v7.849a5.264,5.264,0,0,0-4.225-2.088A6.005,6.005,0,0,0,555.55,148.489Zm10.274,0a4.1,4.1,0,1,1-4.081-4.345A4.1,4.1,0,0,1,565.824,148.489Zm9.478-10.682a1.449,1.449,0,0,0-1.44-1.464,1.491,1.491,0,0,0-1.488,1.464,1.475,1.475,0,0,0,1.488,1.464A1.434,1.434,0,0,0,575.3,137.807Zm-2.5,16.683h2.064v-12h-2.064v12Zm14.953-3.337c0-1.8-1.128-2.952-3.168-3.624l-1.3-.432c-1.416-.456-1.848-0.913-1.848-1.681,0-.888.888-1.392,2.016-1.392a3.243,3.243,0,0,1,2.545,1.248l1.344-1.3a4.654,4.654,0,0,0-3.841-1.728c-2.376,0-4.057,1.32-4.057,3.264,0,1.681,1.033,2.857,2.977,3.481l1.176,0.384c1.561,0.5,2.137,1.08,2.137,1.92,0,1.033-.936,1.633-2.113,1.633a3.22,3.22,0,0,1-3.072-1.9l-1.681.913a4.768,4.768,0,0,0,4.705,2.784C586.007,154.73,587.759,153.506,587.759,151.153Zm15.049,0.36-1.8-1.008a4.067,4.067,0,0,1-3.744,2.305,4.323,4.323,0,0,1,0-8.642,4.067,4.067,0,0,1,3.744,2.305l1.8-1.009a6.217,6.217,0,0,0-5.545-3.216,6.241,6.241,0,1,0,0,12.482A6.216,6.216,0,0,0,602.808,151.513Zm15.456-3.024A6.278,6.278,0,1,0,612,154.73,6.159,6.159,0,0,0,618.264,148.489Zm-10.443,0A4.168,4.168,0,1,1,612,152.81,4.126,4.126,0,0,1,607.821,148.489Zm18.073,6h1.728l5.545-12h-2.3l-4.105,9.073-4.105-9.073h-2.3Zm9.359-6a6.328,6.328,0,0,0,11.618,3.385l-1.632-1.129a4.25,4.25,0,0,1-7.9-1.848h9.842a5.623,5.623,0,0,0,.025-0.624c-0.025-3.841-2.569-6.025-5.714-6.025A6.082,6.082,0,0,0,635.253,148.489Zm6.169-4.417a3.591,3.591,0,0,1,3.673,3.145h-7.61A3.925,3.925,0,0,1,641.422,144.072Zm9.911,10.418H653.4v-5.953c0-2.809,1.657-4.129,3.169-4.129a3.017,3.017,0,0,1,1.128.192v-2.136a4.276,4.276,0,0,0-.936-0.1,3.572,3.572,0,0,0-3.361,2.448v-2.328h-2.064v12Zm13.177,5.017,7.873-17.019h-2.3l-4.1,9.1-4.129-9.1h-2.28l5.257,11.378-2.617,5.641h2.3Zm-624.5,17.781a6.006,6.006,0,0,0,5.881,6.241,5.264,5.264,0,0,0,4.225-2.088v1.848h2.064v-12H50.118v1.848a5.264,5.264,0,0,0-4.225-2.088A6.006,6.006,0,0,0,40.012,177.288Zm10.274,0a4.1,4.1,0,1,1-4.081-4.345A4.1,4.1,0,0,1,50.286,177.288Zm6.982,6h2.064v-5.953c0-2.808,1.536-4.393,3.481-4.393,1.68,0,2.833,1.249,2.833,3.265v7.081h2.04V175.9c0-2.977-1.848-4.849-4.537-4.849a4.245,4.245,0,0,0-3.817,2.088v-1.848H57.268v12Zm14.4-6a6.006,6.006,0,0,0,5.881,6.241,5.264,5.264,0,0,0,4.225-2.088v1.848h2.064v-18H81.774v7.849a5.264,5.264,0,0,0-4.225-2.088A6.006,6.006,0,0,0,71.668,177.288Zm10.274,0a4.1,4.1,0,1,1-4.081-4.345A4.1,4.1,0,0,1,81.942,177.288Zm13.1,0a6.006,6.006,0,0,0,5.881,6.241,5.263,5.263,0,0,0,4.225-2.088v1.848h2.065v-12h-2.065v1.848a5.263,5.263,0,0,0-4.225-2.088A6.006,6.006,0,0,0,95.043,177.288Zm10.274,0a4.1,4.1,0,1,1-4.081-4.345A4.1,4.1,0,0,1,105.317,177.288Zm6.046,0a6.005,6.005,0,0,0,5.881,6.241,5.264,5.264,0,0,0,4.225-2.088v1.848h2.064v-18h-2.064v7.849a5.264,5.264,0,0,0-4.225-2.088A6.005,6.005,0,0,0,111.363,177.288Zm10.274,0a4.1,4.1,0,1,1-4.081-4.345A4.1,4.1,0,0,1,121.637,177.288Zm10.726,6h1.729l5.545-12h-2.3l-4.1,9.074-4.105-9.074h-2.3Zm9.36-6a6.328,6.328,0,0,0,11.618,3.385l-1.632-1.128a4.25,4.25,0,0,1-7.9-1.849h9.842a5.856,5.856,0,0,0,.024-0.624c-0.024-3.841-2.568-6.025-5.713-6.025A6.081,6.081,0,0,0,141.723,177.288Zm6.169-4.417a3.592,3.592,0,0,1,3.673,3.145h-7.61A3.925,3.925,0,0,1,147.892,172.871Zm9.911,10.418h2.064v-5.953c0-2.808,1.536-4.393,3.481-4.393,1.68,0,2.832,1.249,2.832,3.265v7.081h2.041V175.9c0-2.977-1.849-4.849-4.537-4.849a4.245,4.245,0,0,0-3.817,2.088v-1.848H157.8v12Zm21.7-.168v-1.848a4.562,4.562,0,0,1-1.464.24c-1.3,0-1.993-.5-1.993-2.04v-6.29H179.5v-1.9h-3.457V167.95h-2.064v3.337h-2.545v1.9h2.545v6.554a3.378,3.378,0,0,0,3.672,3.672A5.744,5.744,0,0,0,179.5,183.121Zm3.67-4.465c0,2.977,1.777,4.873,4.417,4.873a4.129,4.129,0,0,0,3.7-2.088v1.848h2.065v-12h-2.065v5.953c0,2.761-1.464,4.393-3.337,4.393-1.656,0-2.712-1.272-2.712-3.289v-7.057H183.17v7.369Zm15.264,4.633H200.5v-5.953c0-2.808,1.656-4.129,3.168-4.129a3.022,3.022,0,0,1,1.129.192v-2.136a4.285,4.285,0,0,0-.937-0.1,3.57,3.57,0,0,0-3.36,2.448v-2.328h-2.065v12Zm8.616-6a6.328,6.328,0,0,0,11.619,3.385l-1.633-1.128a4.249,4.249,0,0,1-7.9-1.849h9.842a5.856,5.856,0,0,0,.024-0.624c-0.024-3.841-2.569-6.025-5.713-6.025A6.082,6.082,0,0,0,207.05,177.288Zm6.17-4.417a3.591,3.591,0,0,1,3.672,3.145h-7.609A3.924,3.924,0,0,1,213.22,172.871Zm27.864,7.442-1.8-1.008a4.069,4.069,0,0,1-3.745,2.3,4.323,4.323,0,0,1,0-8.642,4.068,4.068,0,0,1,3.745,2.3l1.8-1.008a6.214,6.214,0,0,0-5.545-3.217,6.241,6.241,0,1,0,0,12.482A6.215,6.215,0,0,0,241.084,180.313Zm15.456-3.025a6.278,6.278,0,1,0-6.265,6.241A6.159,6.159,0,0,0,256.54,177.288Zm-10.442,0a4.168,4.168,0,1,1,4.177,4.321A4.126,4.126,0,0,1,246.1,177.288Zm14.591,6h2.065v-5.953c0-2.808,1.536-4.393,3.481-4.393,1.68,0,2.832,1.249,2.832,3.265v7.081h2.041V175.9c0-2.977-1.849-4.849-4.537-4.849a4.244,4.244,0,0,0-3.817,2.088v-1.848h-2.065v12Zm21.7-.168v-1.848a4.573,4.573,0,0,1-1.465.24c-1.3,0-1.992-.5-1.992-2.04v-6.29h3.457v-1.9H278.93V167.95h-2.065v3.337h-2.544v1.9h2.544v6.554a3.379,3.379,0,0,0,3.673,3.672A5.754,5.754,0,0,0,282.387,183.121Zm6.335-16.515a1.45,1.45,0,0,0-1.441-1.464,1.491,1.491,0,0,0-1.488,1.464,1.475,1.475,0,0,0,1.488,1.464A1.435,1.435,0,0,0,288.722,166.606Zm-2.5,16.683h2.065v-12h-2.065v12Zm7.176,0h2.064v-5.953c0-2.808,1.537-4.393,3.481-4.393,1.68,0,2.833,1.249,2.833,3.265v7.081h2.04V175.9c0-2.977-1.848-4.849-4.537-4.849a4.246,4.246,0,0,0-3.817,2.088v-1.848H293.4v12Zm15.168-4.633c0,2.977,1.776,4.873,4.417,4.873a4.129,4.129,0,0,0,3.7-2.088v1.848h2.065v-12h-2.065v5.953c0,2.761-1.464,4.393-3.336,4.393-1.657,0-2.713-1.272-2.713-3.289v-7.057h-2.064v7.369Zm14.327-1.368a6.328,6.328,0,0,0,11.619,3.385l-1.633-1.128a4.249,4.249,0,0,1-7.9-1.849h9.842a5.856,5.856,0,0,0,.024-0.624c-0.024-3.841-2.569-6.025-5.713-6.025A6.082,6.082,0,0,0,322.9,177.288Zm6.17-4.417a3.591,3.591,0,0,1,3.672,3.145h-7.609A3.924,3.924,0,0,1,329.066,172.871Zm17.688,7.082c0-1.8-1.128-2.953-3.169-3.625l-1.3-.432c-1.416-.456-1.848-0.912-1.848-1.68,0-.889.888-1.393,2.016-1.393A3.242,3.242,0,0,1,345,174.072l1.344-1.3a4.656,4.656,0,0,0-3.841-1.728c-2.376,0-4.057,1.32-4.057,3.265,0,1.68,1.033,2.856,2.977,3.48l1.176,0.384c1.561,0.5,2.137,1.081,2.137,1.921,0,1.032-.937,1.632-2.113,1.632a3.221,3.221,0,0,1-3.072-1.9l-1.681.912a4.768,4.768,0,0,0,4.7,2.784C345,183.529,346.754,182.305,346.754,179.953Zm17.3,3.168v-1.848a4.562,4.562,0,0,1-1.464.24c-1.3,0-1.992-.5-1.992-2.04v-6.29h3.456v-1.9H360.6V167.95h-2.065v3.337h-2.544v1.9h2.544v6.554a3.378,3.378,0,0,0,3.673,3.672A5.743,5.743,0,0,0,364.057,183.121Zm15.266-5.833a6.278,6.278,0,1,0-6.266,6.241A6.159,6.159,0,0,0,379.323,177.288Zm-10.443,0a4.168,4.168,0,1,1,4.177,4.321A4.126,4.126,0,0,1,368.88,177.288Zm22.344,6h2.065V173.183h3.48v-1.9h-3.48v-2.208c0-1.513.672-2.041,1.992-2.041a4.833,4.833,0,0,1,1.488.24v-1.824a5.454,5.454,0,0,0-1.872-.312,3.428,3.428,0,0,0-3.673,3.721v2.424H388.68v1.9h2.544v10.106Zm8.832-4.633c0,2.977,1.776,4.873,4.417,4.873a4.129,4.129,0,0,0,3.7-2.088v1.848h2.065v-12h-2.065v5.953c0,2.761-1.464,4.393-3.336,4.393-1.657,0-2.713-1.272-2.713-3.289v-7.057h-2.064v7.369Zm14.327-1.368A6.328,6.328,0,0,0,426,180.673l-1.633-1.128a4.249,4.249,0,0,1-7.9-1.849h9.842a5.856,5.856,0,0,0,.024-0.624c-0.024-3.841-2.569-6.025-5.713-6.025A6.082,6.082,0,0,0,414.383,177.288Zm6.17-4.417a3.591,3.591,0,0,1,3.672,3.145h-7.609A3.924,3.924,0,0,1,420.553,172.871Zm9.91,10.418h2.065v-18h-2.065v18Zm13.3-6a6.328,6.328,0,0,0,11.618,3.385l-1.632-1.128a4.25,4.25,0,0,1-7.9-1.849h9.842a5.856,5.856,0,0,0,.024-0.624c-0.024-3.841-2.568-6.025-5.713-6.025A6.081,6.081,0,0,0,443.759,177.288Zm6.169-4.417a3.592,3.592,0,0,1,3.673,3.145h-7.61A3.925,3.925,0,0,1,449.928,172.871Zm8.975,4.417a6.005,6.005,0,0,0,5.881,6.241,5.264,5.264,0,0,0,4.225-2.088v1.848h2.064v-12h-2.064v1.848a5.264,5.264,0,0,0-4.225-2.088A6.005,6.005,0,0,0,458.9,177.288Zm10.274,0a4.1,4.1,0,1,1-4.081-4.345A4.1,4.1,0,0,1,469.177,177.288Zm17.88,3.025-1.8-1.008a4.068,4.068,0,0,1-3.744,2.3,4.323,4.323,0,0,1,0-8.642,4.067,4.067,0,0,1,3.744,2.3l1.8-1.008a6.215,6.215,0,0,0-5.545-3.217,6.241,6.241,0,1,0,0,12.482A6.216,6.216,0,0,0,487.057,180.313Zm3.861,2.976h2.065v-5.953c0-2.808,1.536-4.393,3.48-4.393,1.681,0,2.833,1.249,2.833,3.265v7.081h2.04V175.9c0-2.977-1.848-4.849-4.537-4.849a4.243,4.243,0,0,0-3.816,2.088v-7.849h-2.065v18Zm33.29-2.976-1.8-1.008a4.07,4.07,0,0,1-3.745,2.3,4.323,4.323,0,0,1,0-8.642,4.069,4.069,0,0,1,3.745,2.3l1.8-1.008a6.215,6.215,0,0,0-5.545-3.217,6.241,6.241,0,1,0,0,12.482A6.216,6.216,0,0,0,524.208,180.313Zm15.456-3.025a6.278,6.278,0,1,0-6.266,6.241A6.159,6.159,0,0,0,539.664,177.288Zm-10.442,0a4.167,4.167,0,1,1,4.176,4.321A4.125,4.125,0,0,1,529.222,177.288Zm14.591,6h2.064v-18h-2.064v18Zm7.176,0h2.064v-18h-2.064v18Zm6.24-6a6.328,6.328,0,0,0,11.618,3.385l-1.632-1.128a4.25,4.25,0,0,1-7.9-1.849h9.842a5.856,5.856,0,0,0,.024-0.624c-0.024-3.841-2.568-6.025-5.713-6.025A6.081,6.081,0,0,0,557.229,177.288Zm6.169-4.417a3.592,3.592,0,0,1,3.673,3.145h-7.61A3.924,3.924,0,0,1,563.4,172.871Zm20.809,7.442-1.8-1.008a4.068,4.068,0,0,1-3.744,2.3,4.323,4.323,0,0,1,0-8.642,4.067,4.067,0,0,1,3.744,2.3l1.8-1.008a6.215,6.215,0,0,0-5.545-3.217,6.241,6.241,0,1,0,0,12.482A6.216,6.216,0,0,0,584.207,180.313Zm10.367,2.808v-1.848a4.568,4.568,0,0,1-1.465.24c-1.3,0-1.992-.5-1.992-2.04v-6.29h3.457v-1.9h-3.457V167.95h-2.065v3.337h-2.544v1.9h2.544v6.554a3.379,3.379,0,0,0,3.673,3.672A5.749,5.749,0,0,0,594.574,183.121Zm6.335-16.515a1.45,1.45,0,0,0-1.441-1.464,1.491,1.491,0,0,0-1.488,1.464,1.475,1.475,0,0,0,1.488,1.464A1.435,1.435,0,0,0,600.909,166.606Zm-2.5,16.683h2.065v-12h-2.065v12Zm18.77-6a6.277,6.277,0,1,0-6.265,6.241A6.159,6.159,0,0,0,617.182,177.288Zm-10.442,0a4.168,4.168,0,1,1,4.177,4.321A4.126,4.126,0,0,1,606.74,177.288Zm14.592,6H623.4v-5.953c0-2.808,1.536-4.393,3.481-4.393,1.68,0,2.832,1.249,2.832,3.265v7.081h2.041V175.9c0-2.977-1.848-4.849-4.537-4.849a4.245,4.245,0,0,0-3.817,2.088v-1.848h-2.064v12Zm18.192-1.608a1.777,1.777,0,1,0-1.776,1.8A1.808,1.808,0,0,0,639.524,181.681ZM44.717,212.089H46.9V197.158h5.305v-2.113H39.412v2.113h5.305v14.931Zm10.871,0h2.064v-5.954c0-2.808,1.536-4.392,3.481-4.392,1.68,0,2.833,1.248,2.833,3.264v7.082h2.04V204.7c0-2.976-1.848-4.849-4.537-4.849a4.243,4.243,0,0,0-3.817,2.089v-7.85H55.588v18ZM73.42,195.405a1.449,1.449,0,0,0-1.44-1.464,1.491,1.491,0,0,0-1.488,1.464,1.475,1.475,0,0,0,1.488,1.465A1.435,1.435,0,0,0,73.42,195.405Zm-2.5,16.684h2.064v-12H70.924v12Zm14.953-3.337c0-1.8-1.128-2.953-3.169-3.625l-1.3-.432c-1.416-.456-1.848-0.912-1.848-1.68,0-.888.888-1.392,2.016-1.392a3.243,3.243,0,0,1,2.544,1.248l1.344-1.3a4.653,4.653,0,0,0-3.841-1.729c-2.377,0-4.057,1.32-4.057,3.265,0,1.68,1.032,2.856,2.977,3.48l1.176,0.385c1.56,0.5,2.136,1.08,2.136,1.92,0,1.032-.936,1.632-2.112,1.632a3.221,3.221,0,0,1-3.073-1.9l-1.68.912a4.768,4.768,0,0,0,4.7,2.785C84.125,212.329,85.877,211.1,85.877,208.752ZM96,209.3c0.888,1.752,3.169,3.073,5.977,3.073,3.169,0,5.425-1.825,5.425-4.729,0-2.521-1.44-3.961-3.96-4.921l-2.065-.792c-1.728-.649-2.568-1.3-2.568-2.737,0-1.416,1.392-2.352,3.072-2.352a4.217,4.217,0,0,1,3.385,1.68l1.632-1.44a6.213,6.213,0,0,0-4.969-2.329c-3.048,0-5.329,1.753-5.329,4.537,0,2.329,1.2,3.721,3.865,4.7l2.256,0.864c1.585,0.6,2.449,1.512,2.449,2.881,0,1.584-1.392,2.544-3.145,2.544A4.762,4.762,0,0,1,97.8,207.96Zm15.36-1.848c0,2.976,1.776,4.873,4.417,4.873a4.132,4.132,0,0,0,3.7-2.089v1.849h2.064v-12h-2.064v5.953c0,2.761-1.465,4.393-3.337,4.393-1.656,0-2.713-1.272-2.713-3.288v-7.058h-2.064v7.37Zm14.328-1.369a6.327,6.327,0,0,0,11.618,3.385l-1.632-1.128a4.25,4.25,0,0,1-7.9-1.849h9.842a5.856,5.856,0,0,0,.024-0.624c-0.024-3.84-2.568-6.025-5.713-6.025A6.082,6.082,0,0,0,125.691,206.087Zm6.169-4.416a3.591,3.591,0,0,1,3.673,3.144h-7.61A3.924,3.924,0,0,1,131.86,201.671Zm8.974,4.416a6.007,6.007,0,0,0,5.882,6.242,5.267,5.267,0,0,0,4.225-2.089v1.849h2.064v-18h-2.064v7.85a5.264,5.264,0,0,0-4.225-2.089A6.007,6.007,0,0,0,140.834,206.087Zm10.275,0a4.1,4.1,0,1,1-4.081-4.344A4.1,4.1,0,0,1,151.109,206.087Zm6.045,0a6.328,6.328,0,0,0,11.619,3.385l-1.633-1.128a4.249,4.249,0,0,1-7.9-1.849h9.842a5.856,5.856,0,0,0,.024-0.624c-0.024-3.84-2.569-6.025-5.713-6.025A6.083,6.083,0,0,0,157.154,206.087Zm6.17-4.416A3.59,3.59,0,0,1,167,204.815h-7.609A3.923,3.923,0,0,1,163.324,201.671Zm19.943,10.418h2.184V197.158h5.306v-2.113h-12.8v2.113h5.305v14.931Zm8.879,0h2.064v-5.954c0-2.808,1.657-4.128,3.169-4.128a3.017,3.017,0,0,1,1.128.192v-2.137a4.276,4.276,0,0,0-.936-0.1,3.571,3.571,0,0,0-3.361,2.449v-2.329h-2.064v12Zm9.816-4.633c0,2.976,1.776,4.873,4.417,4.873a4.132,4.132,0,0,0,3.7-2.089v1.849h2.064v-12h-2.064v5.953c0,2.761-1.465,4.393-3.337,4.393-1.656,0-2.713-1.272-2.713-3.288v-7.058h-2.064v7.37Zm26.162,1.656-1.8-1.008a4.069,4.069,0,0,1-3.745,2.3,4.322,4.322,0,0,1,0-8.641,4.069,4.069,0,0,1,3.745,2.3l1.8-1.008a6.215,6.215,0,0,0-5.545-3.217,6.242,6.242,0,1,0,0,12.483A6.217,6.217,0,0,0,228.124,209.112Zm3.861,2.977h2.065v-6l6.5,6h2.785l-7.226-6.7,5.906-5.3h-2.737l-5.233,4.681V194.085h-2.065v18Zm12.432-6a6.327,6.327,0,0,0,11.618,3.385l-1.632-1.128a4.25,4.25,0,0,1-7.9-1.849h9.843a5.856,5.856,0,0,0,.024-0.624c-0.024-3.84-2.569-6.025-5.714-6.025A6.083,6.083,0,0,0,244.417,206.087Zm6.169-4.416a3.591,3.591,0,0,1,3.673,3.144h-7.61A3.925,3.925,0,0,1,250.586,201.671Zm9.911,10.418h2.064v-5.954c0-2.808,1.657-4.128,3.169-4.128a3.017,3.017,0,0,1,1.128.192v-2.137a4.276,4.276,0,0,0-.936-0.1,3.572,3.572,0,0,0-3.361,2.449v-2.329H260.5v12Zm24.338-4.705V195.045h-2.209v12.1c0,2.328-1.32,3.168-2.808,3.168a2.667,2.667,0,0,1-2.833-2.784h-2.208c0,3.144,2.28,4.849,5.065,4.849C282.458,212.377,284.835,210.96,284.835,207.384Zm4.126-1.3a6.006,6.006,0,0,0,5.881,6.242,5.265,5.265,0,0,0,4.225-2.089v1.849h2.064v-12h-2.064v1.849a5.262,5.262,0,0,0-4.225-2.089A6.006,6.006,0,0,0,288.961,206.087Zm10.274,0a4.1,4.1,0,1,1-4.081-4.344A4.1,4.1,0,0,1,299.235,206.087Zm17.88,3.025-1.8-1.008a4.069,4.069,0,0,1-3.745,2.3,4.322,4.322,0,0,1,0-8.641,4.069,4.069,0,0,1,3.745,2.3l1.8-1.008a6.215,6.215,0,0,0-5.545-3.217,6.242,6.242,0,1,0,0,12.483A6.217,6.217,0,0,0,317.115,209.112Zm3.861,2.977h2.065v-6l6.5,6h2.785l-7.226-6.7,5.906-5.3h-2.737l-5.233,4.681V194.085h-2.065v18Zm12.432-6a6.327,6.327,0,0,0,11.618,3.385l-1.632-1.128a4.25,4.25,0,0,1-7.9-1.849h9.842a5.856,5.856,0,0,0,.024-0.624c-0.024-3.84-2.568-6.025-5.713-6.025A6.082,6.082,0,0,0,333.408,206.087Zm6.169-4.416a3.591,3.591,0,0,1,3.673,3.144h-7.61A3.924,3.924,0,0,1,339.577,201.671Zm16.249,10.249v-1.848a4.568,4.568,0,0,1-1.465.24c-1.3,0-1.992-.5-1.992-2.04v-6.289h3.457v-1.9h-3.457V196.75H350.3v3.336H347.76v1.9H350.3v6.553a3.379,3.379,0,0,0,3.673,3.673A5.72,5.72,0,0,0,355.826,211.92Zm13.39-16.515a1.449,1.449,0,0,0-1.44-1.464,1.491,1.491,0,0,0-1.488,1.464,1.475,1.475,0,0,0,1.488,1.465A1.435,1.435,0,0,0,369.216,195.405Zm-2.5,16.684h2.064v-12H366.72v12Zm14.953-3.337c0-1.8-1.128-2.953-3.168-3.625l-1.3-.432c-1.416-.456-1.848-0.912-1.848-1.68,0-.888.888-1.392,2.016-1.392a3.243,3.243,0,0,1,2.545,1.248l1.344-1.3a4.652,4.652,0,0,0-3.841-1.729c-2.376,0-4.056,1.32-4.056,3.265,0,1.68,1.032,2.856,2.976,3.48l1.176,0.385c1.561,0.5,2.137,1.08,2.137,1.92,0,1.032-.936,1.632-2.112,1.632a3.221,3.221,0,0,1-3.073-1.9l-1.681.912a4.769,4.769,0,0,0,4.7,2.785C379.921,212.329,381.673,211.1,381.673,208.752Zm13.7-13.347a1.45,1.45,0,0,0-1.441-1.464,1.491,1.491,0,0,0-1.488,1.464,1.475,1.475,0,0,0,1.488,1.465A1.435,1.435,0,0,0,395.376,195.405Zm-2.5,16.684h2.065v-12h-2.065v12Zm7.176,0h2.064v-5.954c0-2.808,1.537-4.392,3.481-4.392,1.681,0,2.833,1.248,2.833,3.264v7.082h2.04V204.7c0-2.976-1.848-4.849-4.537-4.849a4.245,4.245,0,0,0-3.817,2.089v-1.849h-2.064v12Zm23.113-3.337c0-1.8-1.128-2.953-3.168-3.625l-1.3-.432c-1.416-.456-1.848-0.912-1.848-1.68,0-.888.888-1.392,2.017-1.392a3.242,3.242,0,0,1,2.544,1.248l1.344-1.3a4.652,4.652,0,0,0-3.84-1.729c-2.377,0-4.057,1.32-4.057,3.265,0,1.68,1.032,2.856,2.976,3.48l1.177,0.385c1.56,0.5,2.136,1.08,2.136,1.92,0,1.032-.936,1.632-2.112,1.632a3.221,3.221,0,0,1-3.073-1.9l-1.68.912a4.768,4.768,0,0,0,4.705,2.785C421.416,212.329,423.168,211.1,423.168,208.752Zm4.151,8.353h2.064V210.24a5.265,5.265,0,0,0,4.225,2.089,6.253,6.253,0,0,0,0-12.483,5.262,5.262,0,0,0-4.225,2.089v-1.849h-2.064v17.019Zm10.058-11.018a4.089,4.089,0,1,1-4.081-4.344A4.1,4.1,0,0,1,437.377,206.087Zm8.782-10.682a1.449,1.449,0,0,0-1.44-1.464,1.492,1.492,0,0,0-1.489,1.464,1.476,1.476,0,0,0,1.489,1.465A1.435,1.435,0,0,0,446.159,195.405Zm-2.5,16.684h2.064v-12h-2.064v12Zm7.175,0H452.9v-5.954c0-2.808,1.656-4.128,3.168-4.128a3.019,3.019,0,0,1,1.129.192v-2.137a4.279,4.279,0,0,0-.937-0.1,3.57,3.57,0,0,0-3.36,2.449v-2.329h-2.065v12Zm8.616-6a6.328,6.328,0,0,0,11.619,3.385l-1.633-1.128a4.249,4.249,0,0,1-7.9-1.849h9.842a5.856,5.856,0,0,0,.024-0.624c-0.024-3.84-2.569-6.025-5.713-6.025A6.083,6.083,0,0,0,459.454,206.087Zm6.17-4.416a3.59,3.59,0,0,1,3.672,3.144h-7.609A3.923,3.923,0,0,1,465.624,201.671Zm8.974,4.416a6.007,6.007,0,0,0,5.881,6.242,5.264,5.264,0,0,0,4.225-2.089v1.849h2.065v-18H484.7v7.85a5.261,5.261,0,0,0-4.225-2.089A6.006,6.006,0,0,0,474.6,206.087Zm10.274,0a4.1,4.1,0,1,1-4.081-4.344A4.1,4.1,0,0,1,484.872,206.087Zm16.1,4.153a5.265,5.265,0,0,0,4.225,2.089,6.253,6.253,0,0,0,0-12.483,5.262,5.262,0,0,0-4.225,2.089v-7.85H498.91v18h2.064V210.24Zm7.994-4.153a4.089,4.089,0,1,1-4.081-4.344A4.1,4.1,0,0,1,508.968,206.087Zm9.214,11.018,7.874-17.019h-2.3l-4.1,9.1-4.129-9.1h-2.281l5.257,11.378-2.616,5.641h2.3Zm28.562-7.993-1.8-1.008a4.07,4.07,0,0,1-3.745,2.3,4.322,4.322,0,0,1,0-8.641,4.07,4.07,0,0,1,3.745,2.3l1.8-1.008a6.215,6.215,0,0,0-5.545-3.217,6.242,6.242,0,1,0,0,12.483A6.217,6.217,0,0,0,546.744,209.112Zm3.861,2.977h2.065v-18h-2.065v18Zm6.24-6a6.006,6.006,0,0,0,5.881,6.242,5.264,5.264,0,0,0,4.225-2.089v1.849h2.065v-12h-2.065v1.849a5.261,5.261,0,0,0-4.225-2.089A6.006,6.006,0,0,0,556.845,206.087Zm10.274,0a4.1,4.1,0,1,1-4.081-4.344A4.1,4.1,0,0,1,567.119,206.087Zm14.76,2.665c0-1.8-1.129-2.953-3.169-3.625l-1.3-.432c-1.417-.456-1.849-0.912-1.849-1.68,0-.888.888-1.392,2.017-1.392a3.242,3.242,0,0,1,2.544,1.248l1.344-1.3a4.652,4.652,0,0,0-3.84-1.729c-2.377,0-4.057,1.32-4.057,3.265,0,1.68,1.032,2.856,2.976,3.48l1.177,0.385c1.56,0.5,2.136,1.08,2.136,1.92,0,1.032-.936,1.632-2.112,1.632a3.221,3.221,0,0,1-3.073-1.9l-1.68.912a4.768,4.768,0,0,0,4.705,2.785C580.126,212.329,581.879,211.1,581.879,208.752Zm11.9,0c0-1.8-1.129-2.953-3.169-3.625l-1.3-.432c-1.417-.456-1.849-0.912-1.849-1.68,0-.888.888-1.392,2.017-1.392a3.242,3.242,0,0,1,2.544,1.248l1.344-1.3a4.652,4.652,0,0,0-3.84-1.729c-2.377,0-4.057,1.32-4.057,3.265,0,1.68,1.032,2.856,2.976,3.48l1.177,0.385c1.56,0.5,2.136,1.08,2.136,1.92,0,1.032-.936,1.632-2.112,1.632a3.221,3.221,0,0,1-3.073-1.9l-1.68.912a4.768,4.768,0,0,0,4.705,2.785C592.03,212.329,593.783,211.1,593.783,208.752Zm6.646-13.347a1.449,1.449,0,0,0-1.44-1.464,1.491,1.491,0,0,0-1.488,1.464,1.475,1.475,0,0,0,1.488,1.465A1.435,1.435,0,0,0,600.429,195.405Zm-2.5,16.684H600v-12h-2.064v12Zm18.074-2.977-1.8-1.008a4.068,4.068,0,0,1-3.744,2.3,4.322,4.322,0,0,1,0-8.641,4.068,4.068,0,0,1,3.744,2.3l1.8-1.008a6.215,6.215,0,0,0-5.545-3.217,6.242,6.242,0,1,0,0,12.483A6.217,6.217,0,0,0,616.007,209.112Zm6.43,2.448a2.052,2.052,0,0,0,.336-1.08,1.777,1.777,0,1,0-3.553,0,1.789,1.789,0,0,0,.984,1.609l-1.608,3.432h1.368ZM40.78,236.255c0,2.976,1.776,4.873,4.417,4.873a4.129,4.129,0,0,0,3.7-2.089v1.849h2.064v-12H48.894v5.953c0,2.76-1.464,4.392-3.337,4.392-1.656,0-2.713-1.272-2.713-3.288v-7.057H40.78v7.369ZM62.55,240.72v-1.849a4.564,4.564,0,0,1-1.464.24c-1.3,0-1.992-.5-1.992-2.04v-6.289H62.55v-1.9H59.093v-3.337H57.028v3.337H54.484v1.9h2.544v6.553a3.379,3.379,0,0,0,3.673,3.673A5.745,5.745,0,0,0,62.55,240.72Zm6.335-16.515a1.45,1.45,0,0,0-1.44-1.465,1.491,1.491,0,0,0-1.488,1.465,1.475,1.475,0,0,0,1.488,1.464A1.435,1.435,0,0,0,68.885,224.205Zm-2.5,16.683h2.064v-12H66.388v12Zm7.176,0h2.064v-18H73.564v18Zm9.672-16.683a1.45,1.45,0,0,0-1.44-1.465,1.491,1.491,0,0,0-1.488,1.465,1.475,1.475,0,0,0,1.488,1.464A1.435,1.435,0,0,0,83.236,224.205Zm-2.5,16.683H82.8v-12H80.74v12Zm13.681-.168v-1.849a4.564,4.564,0,0,1-1.464.24c-1.3,0-1.992-.5-1.992-2.04v-6.289h3.457v-1.9H90.964v-3.337H88.9v3.337H86.355v1.9H88.9v6.553a3.379,3.379,0,0,0,3.673,3.673A5.745,5.745,0,0,0,94.421,240.72Zm2.735-5.833a6.006,6.006,0,0,0,5.882,6.241,5.264,5.264,0,0,0,4.225-2.089v1.849h2.064v-12h-2.064v1.848a5.267,5.267,0,0,0-4.225-2.089A6.007,6.007,0,0,0,97.156,234.887Zm10.275,0a4.1,4.1,0,1,1-4.081-4.345A4.1,4.1,0,0,1,107.43,234.887Zm6.981,6h2.065v-5.953c0-2.809,1.656-4.129,3.169-4.129a3.017,3.017,0,0,1,1.128.192v-2.136a4.219,4.219,0,0,0-.936-0.1,3.571,3.571,0,0,0-3.361,2.449v-2.328h-2.065v12Zm12.481-16.683a1.45,1.45,0,0,0-1.44-1.465,1.491,1.491,0,0,0-1.489,1.465,1.475,1.475,0,0,0,1.489,1.464A1.434,1.434,0,0,0,126.892,224.205Zm-2.5,16.683h2.065v-12H124.4v12Zm6.24-6a6.006,6.006,0,0,0,5.881,6.241,5.261,5.261,0,0,0,4.225-2.089v1.849h2.065v-12h-2.065v1.848a5.264,5.264,0,0,0-4.225-2.089A6.007,6.007,0,0,0,130.635,234.887Zm10.274,0a4.1,4.1,0,1,1-4.081-4.345A4.1,4.1,0,0,1,140.909,234.887Zm6.982,6h2.064v-5.953c0-2.809,1.537-4.393,3.481-4.393,1.681,0,2.833,1.248,2.833,3.264v7.082h2.04v-7.394c0-2.976-1.848-4.849-4.537-4.849a4.247,4.247,0,0,0-3.817,2.089v-1.848h-2.064v12Zm30.169-3.337c0-1.8-1.128-2.952-3.169-3.625l-1.3-.432c-1.416-.456-1.848-0.912-1.848-1.68,0-.888.888-1.392,2.016-1.392a3.244,3.244,0,0,1,2.545,1.248l1.344-1.3a4.655,4.655,0,0,0-3.841-1.729c-2.376,0-4.057,1.321-4.057,3.265,0,1.68,1.033,2.857,2.977,3.481l1.176,0.384c1.561,0.5,2.137,1.08,2.137,1.92,0,1.032-.937,1.632-2.113,1.632a3.221,3.221,0,0,1-3.072-1.9l-1.681.912a4.767,4.767,0,0,0,4.705,2.785C176.308,241.128,178.06,239.9,178.06,237.551Zm10.512,3.169v-1.849a4.568,4.568,0,0,1-1.465.24c-1.3,0-1.992-.5-1.992-2.04v-6.289h3.457v-1.9h-3.457v-3.337h-2.064v3.337h-2.545v1.9h2.545v6.553a3.378,3.378,0,0,0,3.672,3.673A5.749,5.749,0,0,0,188.572,240.72Zm7.031,5.185,7.874-17.019h-2.305l-4.1,9.1-4.129-9.1h-2.28l5.257,11.378-2.617,5.641H195.6Zm11.135-5.017H208.8v-18h-2.065v18Zm6.24-6a6.327,6.327,0,0,0,11.618,3.384l-1.632-1.128a4.25,4.25,0,0,1-7.9-1.848h9.842a5.856,5.856,0,0,0,.024-0.624c-0.024-3.841-2.568-6.026-5.713-6.026A6.082,6.082,0,0,0,212.978,234.887Zm6.169-4.417a3.591,3.591,0,0,1,3.673,3.144h-7.61A3.924,3.924,0,0,1,219.147,230.47Zm12.479,9.89a2.052,2.052,0,0,0,.336-1.081,1.776,1.776,0,1,0-3.552,0,1.786,1.786,0,0,0,.984,1.609l-1.608,3.432h1.368Zm11.831,0.528h2.065v-5.953c0-2.809,1.656-4.129,3.169-4.129a3.017,3.017,0,0,1,1.128.192v-2.136a4.219,4.219,0,0,0-.936-0.1,3.571,3.571,0,0,0-3.361,2.449v-2.328h-2.065v12Zm8.616-6a6.328,6.328,0,0,0,11.619,3.384l-1.632-1.128a4.25,4.25,0,0,1-7.9-1.848H264a5.856,5.856,0,0,0,.024-0.624c-0.024-3.841-2.569-6.026-5.713-6.026A6.083,6.083,0,0,0,252.073,234.887Zm6.17-4.417a3.592,3.592,0,0,1,3.673,3.144h-7.61A3.923,3.923,0,0,1,258.243,230.47Zm9.526,4.729h6.122v-2.065h-6.122V235.2Zm13.345-10.994a1.45,1.45,0,0,0-1.441-1.465,1.491,1.491,0,0,0-1.488,1.465,1.475,1.475,0,0,0,1.488,1.464A1.435,1.435,0,0,0,281.114,224.205Zm-2.5,16.683h2.065v-12h-2.065v12Zm7.176,0h2.064v-5.953c0-2.713,1.369-4.393,3.313-4.393,1.56,0,2.353,1.344,2.353,3.288v7.058h2.064v-5.953c0-2.713,1.344-4.393,3.289-4.393,1.56,0,2.376,1.344,2.376,3.288v7.058h2.065v-7.37c0-2.928-1.585-4.873-4.2-4.873a4.154,4.154,0,0,0-3.937,2.569,3.773,3.773,0,0,0-3.7-2.569,4.037,4.037,0,0,0-3.625,2.089v-1.848h-2.064v12Zm21.5-6a6.006,6.006,0,0,0,5.881,6.241,5.262,5.262,0,0,0,4.225-2.089v1.849h2.064v-12H317.4v1.848a5.265,5.265,0,0,0-4.225-2.089A6.006,6.006,0,0,0,307.3,234.887Zm10.274,0a4.1,4.1,0,1,1-4.081-4.345A4.1,4.1,0,0,1,317.571,234.887Zm18.168,5.305V228.886h-2.064v1.848a5.11,5.11,0,0,0-4.177-2.089,6.115,6.115,0,0,0,0,12.219,5.126,5.126,0,0,0,4.177-2.113v1.369a3.837,3.837,0,0,1-4.009,4.152,5.134,5.134,0,0,1-4.2-2.016l-1.441,1.44a7.126,7.126,0,0,0,5.666,2.449C333.1,246.145,335.739,244.2,335.739,240.192Zm-10.01-5.449a4.059,4.059,0,1,1,4.057,4.2A4,4,0,0,1,325.729,234.743Zm17.592-10.538a1.45,1.45,0,0,0-1.44-1.465,1.491,1.491,0,0,0-1.489,1.465,1.475,1.475,0,0,0,1.489,1.464A1.434,1.434,0,0,0,343.321,224.205Zm-2.5,16.683h2.065v-12h-2.065v12Zm7.176,0h2.065v-5.953c0-2.809,1.536-4.393,3.48-4.393,1.681,0,2.833,1.248,2.833,3.264v7.082h2.04v-7.394c0-2.976-1.848-4.849-4.537-4.849a4.244,4.244,0,0,0-3.816,2.089v-1.848H348v12Zm14.4-6a6.327,6.327,0,0,0,11.618,3.384l-1.632-1.128a4.25,4.25,0,0,1-7.9-1.848h9.842a5.856,5.856,0,0,0,.024-0.624c-0.024-3.841-2.568-6.026-5.713-6.026A6.082,6.082,0,0,0,362.4,234.887Zm6.169-4.417a3.591,3.591,0,0,1,3.673,3.144h-7.61A3.924,3.924,0,0,1,368.569,230.47Zm8.975,4.417a6.006,6.006,0,0,0,5.881,6.241,5.262,5.262,0,0,0,4.225-2.089v1.849h2.064v-18H387.65v7.85a5.265,5.265,0,0,0-4.225-2.089A6.006,6.006,0,0,0,377.544,234.887Zm10.274,0a4.1,4.1,0,1,1-4.081-4.345A4.1,4.1,0,0,1,387.818,234.887Zm16.534-10.682a1.45,1.45,0,0,0-1.44-1.465,1.491,1.491,0,0,0-1.489,1.465,1.475,1.475,0,0,0,1.489,1.464A1.434,1.434,0,0,0,404.352,224.205Zm-2.5,16.683h2.065v-12h-2.065v12Zm7.176,0H411.1v-5.953c0-2.809,1.536-4.393,3.48-4.393,1.681,0,2.833,1.248,2.833,3.264v7.082h2.04v-7.394c0-2.976-1.848-4.849-4.537-4.849a4.244,4.244,0,0,0-3.816,2.089v-1.848h-2.065v12Zm22.392,5.017h2.064v-6.866a5.262,5.262,0,0,0,4.225,2.089,6.253,6.253,0,0,0,0-12.483,5.265,5.265,0,0,0-4.225,2.089v-1.848h-2.064v17.019Zm10.058-11.018a4.089,4.089,0,1,1-4.081-4.345A4.1,4.1,0,0,1,441.481,234.887Zm6.285,6h2.065v-5.953c0-2.809,1.656-4.129,3.169-4.129a3.017,3.017,0,0,1,1.128.192v-2.136a4.219,4.219,0,0,0-.936-0.1,3.571,3.571,0,0,0-3.361,2.449v-2.328h-2.065v12Zm8.616-6A6.328,6.328,0,0,0,468,238.271l-1.632-1.128a4.25,4.25,0,0,1-7.9-1.848h9.842a5.856,5.856,0,0,0,.024-0.624c-0.024-3.841-2.569-6.026-5.713-6.026A6.083,6.083,0,0,0,456.382,234.887Zm6.17-4.417a3.592,3.592,0,0,1,3.673,3.144h-7.61A3.923,3.923,0,0,1,462.552,230.47Zm9.911,10.418h2.064v-5.953c0-2.713,1.368-4.393,3.313-4.393,1.56,0,2.352,1.344,2.352,3.288v7.058h2.065v-5.953c0-2.713,1.344-4.393,3.288-4.393,1.561,0,2.377,1.344,2.377,3.288v7.058h2.064v-7.37c0-2.928-1.584-4.873-4.2-4.873a4.156,4.156,0,0,0-3.937,2.569,3.773,3.773,0,0,0-3.7-2.569,4.035,4.035,0,0,0-3.625,2.089v-1.848h-2.064v12ZM497.4,224.205a1.45,1.45,0,0,0-1.44-1.465,1.491,1.491,0,0,0-1.489,1.465,1.475,1.475,0,0,0,1.489,1.464A1.434,1.434,0,0,0,497.4,224.205Zm-2.5,16.683h2.065v-12H494.9v12Zm7.008-4.633c0,2.976,1.777,4.873,4.417,4.873a4.129,4.129,0,0,0,3.7-2.089v1.849h2.064v-12h-2.064v5.953c0,2.76-1.464,4.392-3.337,4.392-1.656,0-2.712-1.272-2.712-3.288v-7.057H501.91v7.369Zm15.264,4.633h2.064v-5.953c0-2.713,1.369-4.393,3.313-4.393,1.561,0,2.353,1.344,2.353,3.288v7.058h2.064v-5.953c0-2.713,1.344-4.393,3.289-4.393,1.56,0,2.376,1.344,2.376,3.288v7.058H534.7v-7.37c0-2.928-1.585-4.873-4.2-4.873a4.155,4.155,0,0,0-3.937,2.569,3.773,3.773,0,0,0-3.7-2.569,4.037,4.037,0,0,0-3.625,2.089v-1.848h-2.064v12Zm37.273-3.337c0-1.8-1.128-2.952-3.168-3.625l-1.3-.432c-1.416-.456-1.848-0.912-1.848-1.68,0-.888.888-1.392,2.016-1.392a3.243,3.243,0,0,1,2.545,1.248l1.344-1.3a4.655,4.655,0,0,0-3.841-1.729c-2.376,0-4.056,1.321-4.056,3.265,0,1.68,1.032,2.857,2.976,3.481l1.176,0.384c1.561,0.5,2.137,1.08,2.137,1.92,0,1.032-.936,1.632-2.113,1.632a3.221,3.221,0,0,1-3.072-1.9l-1.681.912a4.768,4.768,0,0,0,4.7,2.785C552.7,241.128,554.447,239.9,554.447,237.551Zm3.982-1.3c0,2.976,1.777,4.873,4.417,4.873a4.128,4.128,0,0,0,3.7-2.089v1.849h2.065v-12h-2.065v5.953c0,2.76-1.464,4.392-3.337,4.392-1.656,0-2.712-1.272-2.712-3.288v-7.057h-2.065v7.369Zm14.328-1.368a6.328,6.328,0,0,0,11.619,3.384l-1.633-1.128a4.249,4.249,0,0,1-7.9-1.848h9.842a5.856,5.856,0,0,0,.024-0.624c-0.024-3.841-2.569-6.026-5.714-6.026A6.083,6.083,0,0,0,572.757,234.887Zm6.169-4.417a3.591,3.591,0,0,1,3.673,3.144H574.99A3.923,3.923,0,0,1,578.926,230.47Zm8.975,4.417a6.006,6.006,0,0,0,5.881,6.241,5.261,5.261,0,0,0,4.225-2.089v1.849h2.065v-18h-2.065v7.85a5.264,5.264,0,0,0-4.225-2.089A6.006,6.006,0,0,0,587.9,234.887Zm10.274,0a4.1,4.1,0,1,1-4.081-4.345A4.1,4.1,0,0,1,598.175,234.887Zm6.046,0a6.327,6.327,0,0,0,11.618,3.384l-1.632-1.128a4.25,4.25,0,0,1-7.9-1.848h9.842a5.856,5.856,0,0,0,.024-0.624c-0.024-3.841-2.568-6.026-5.713-6.026A6.082,6.082,0,0,0,604.221,234.887Zm6.169-4.417a3.591,3.591,0,0,1,3.673,3.144h-7.61A3.924,3.924,0,0,1,610.39,230.47Zm12.767,8.809a1.776,1.776,0,1,0-1.776,1.8A1.808,1.808,0,0,0,623.157,239.279Z"/>
</svg>
