<svg id="copy_copy_2" data-name="copy copy 2" xmlns="http://www.w3.org/2000/svg" width="768" height="264" viewBox="0 0 768 264">
  <defs>
    <style>
      .cls-1 {
        fill: #fff;
      }

      .cls-1, .cls-2 {
        fill-rule: evenodd;
      }
    </style>
  </defs>
  <path id="Rectangle_106_copy_5" data-name="Rectangle 106 copy 5" class="cls-1" d="M0,0H767.8l0.183,264H0.183Z"/>
  <g id="CTA_underline_copy_6" data-name="CTA_underline copy 6">
    <rect id="Rectangle_4_copy_4" data-name="Rectangle 4 copy 4" x="39" y="170" width="122" height="4"/>
    <path id="Shop_now" data-name="Shop now" class="cls-2" d="M43.817,162.853c2.706,0,4.564-1.653,4.582-4.023,0.018-1.965-1.19-3.214-3.048-3.894l-0.9-.33c-1.353-.5-1.984-0.808-1.984-1.506,0-.68.776-0.992,1.551-0.992a2.831,2.831,0,0,1,2.219,1.083l1.876-2.02a5.3,5.3,0,0,0-4.131-1.8c-2.561,0-4.419,1.488-4.419,4.022,0,1.782,1.154,3.049,3.229,3.766l0.9,0.312c1.281,0.441,1.786.9,1.786,1.561,0,0.625-.6,1.084-1.551,1.084a3.335,3.335,0,0,1-2.652-1.488l-2.2,1.892A5.583,5.583,0,0,0,43.817,162.853Zm9.726-.221H56.41v-5.161h5.159v5.161h2.868V149.591H61.569V154.7H56.41v-5.107H53.542v13.041Zm22.66,0.221a6.742,6.742,0,1,0-6.62-6.741A6.7,6.7,0,0,0,76.2,162.853Zm0-2.829a3.917,3.917,0,1,1,3.716-3.912A3.837,3.837,0,0,1,76.2,160.024Zm20.622-5.969a4.4,4.4,0,0,0-4.51-4.464H87.967v13.041h2.868V158.5h1.479A4.385,4.385,0,0,0,96.824,154.055Zm-2.778,0a1.7,1.7,0,0,1-1.768,1.708H90.835v-3.416h1.443A1.688,1.688,0,0,1,94.046,154.055Zm25.979,8.577V149.591h-2.886v8.045l-6.223-8.045h-2.472v13.041h2.869v-8.063l6.241,8.063h2.471Zm11.765,0.221a6.742,6.742,0,1,0-6.62-6.741A6.7,6.7,0,0,0,131.79,162.853Zm0-2.829a3.917,3.917,0,1,1,3.716-3.912A3.837,3.837,0,0,1,131.79,160.024Zm21.686,2.608H156.2l2.976-13.041h-3.067l-1.749,8.266-3.608-8.486-3.589,8.486-1.75-8.266h-3.067l2.959,13.041h2.723l2.724-6.392Z"/>
  </g>
  <path id="Water-Resistant_Quilted_Bomber_Jacket" data-name="Water-Resistant Quilted Bomber Jacket" class="cls-2" d="M60.348,68.092h5.8l6.336-27.261H65.954L62.229,58.109,54.55,40.37,46.909,58.109,43.184,40.831H36.657l6.3,27.261h5.8l5.8-13.362Zm12.981,0H79.7l2.419-5.759H93.411l2.419,5.759H102.2L90.531,40.831H85Zm11.02-11.058,3.417-8.217,3.417,8.217H84.349Zm24.806,11.058H115.3V46.667h7.027V40.831h-20.12v5.836h6.949V68.092Zm18.817,0H145.25V62.256H134.077V57.38h8.869V51.544h-8.869V46.667H145.25V40.831H127.972V68.092Zm23.846,0h6.1V56.842h1l9.062,11.25h7.334l-9.638-12.018c3.456-1.229,5.338-3.494,5.338-7.026a8.049,8.049,0,0,0-8.448-8.217H151.818V68.092Zm6.1-16.434V46.437h3.917c1.8,0,3.11.96,3.11,2.611,0,1.574-1.306,2.611-3.11,2.611h-3.917Zm19.354,5.567h11.289V51.7H177.277v5.529Zm18.316,10.866H201.7V56.842h1l9.061,11.25h7.334l-9.638-12.018c3.456-1.229,5.338-3.494,5.338-7.026a8.049,8.049,0,0,0-8.448-8.217H195.593V68.092ZM201.7,51.659V46.437h3.917c1.8,0,3.11.96,3.11,2.611,0,1.574-1.306,2.611-3.11,2.611H201.7Zm21.235,16.434h17.279V62.256H229.039V57.38h8.869V51.544h-8.869V46.667h11.173V40.831H222.933V68.092Zm31.987,0.461c5.76,0,9.714-3.456,9.753-8.409,0.038-4.108-2.534-6.719-6.489-8.14l-1.92-.691c-2.88-1.037-4.224-1.689-4.224-3.148,0-1.421,1.651-2.073,3.3-2.073a6.064,6.064,0,0,1,4.723,2.265l3.993-4.224a11.374,11.374,0,0,0-8.792-3.763c-5.453,0-9.408,3.11-9.408,8.409,0,3.724,2.458,6.374,6.873,7.871l1.92,0.653c2.726,0.922,3.8,1.881,3.8,3.264,0,1.306-1.267,2.265-3.3,2.265a7.132,7.132,0,0,1-5.644-3.11l-4.685,3.955A11.955,11.955,0,0,0,254.92,68.553Zm15.9-.461h6.105V40.831h-6.105V68.092Zm21.925,0.461c5.76,0,9.715-3.456,9.753-8.409,0.038-4.108-2.534-6.719-6.489-8.14l-1.92-.691c-2.88-1.037-4.224-1.689-4.224-3.148,0-1.421,1.651-2.073,3.3-2.073a6.063,6.063,0,0,1,4.722,2.265l3.994-4.224a11.377,11.377,0,0,0-8.793-3.763c-5.453,0-9.408,3.11-9.408,8.409,0,3.724,2.458,6.374,6.874,7.871l1.919,0.653c2.727,0.922,3.8,1.881,3.8,3.264,0,1.306-1.267,2.265-3.3,2.265a7.134,7.134,0,0,1-5.645-3.11l-4.684,3.955A11.954,11.954,0,0,0,292.743,68.553Zm20.429-.461h6.144V46.667h7.026V40.831h-20.12v5.836h6.95V68.092Zm13.133,0h6.374l2.419-5.759h11.289l2.419,5.759h6.374L343.507,40.831h-5.529Zm11.02-11.058,3.418-8.217,3.417,8.217h-6.835ZM384.6,68.092V40.831h-6.144V57.649L365.2,40.831h-5.26V68.092h6.1V51.236l13.285,16.856H384.6Zm12.6,0h6.143V46.667h7.027V40.831h-20.12v5.836h6.95V68.092Zm40.626,0.461a14.124,14.124,0,0,0,8.448-2.8l2.879,2.342h8.64l-7.872-6.412a13.955,13.955,0,0,0,2-7.219A14.092,14.092,0,1,0,437.817,68.553Zm0-5.913a8.183,8.183,0,1,1,7.91-8.178,7.773,7.773,0,0,1-.691,3.264l-4.109-3.34-3.455,4.224,3.878,3.148A7.307,7.307,0,0,1,437.817,62.64Zm32.525,5.913c6.527,0,11.212-4.454,11.212-11.25V40.831h-6.1V57.38c0,3.264-2.074,5.26-5.107,5.26s-5.107-2-5.107-5.26V40.831H459.13V57.3C459.13,64.1,463.776,68.553,470.342,68.553Zm18.586-.461h6.105V40.831h-6.105V68.092Zm13.785,0h17.394V62.256H508.818V40.831h-6.1V68.092Zm24.345,0H533.2V46.667h7.026V40.831h-20.12v5.836h6.95V68.092Zm18.816,0h17.279V62.256H551.979V57.38h8.87V51.544h-8.87V46.667h11.174V40.831H545.874V68.092Zm23.847,0h9.292a13.633,13.633,0,1,0,0-27.261h-9.292V68.092Zm6.105-5.606V46.437h3.187a7.693,7.693,0,0,1,7.717,8.025,7.693,7.693,0,0,1-7.717,8.025h-3.187Zm-536.942,46.4h11.98a8.06,8.06,0,0,0,8.294-8.025,7.124,7.124,0,0,0-3.878-6.45,6.416,6.416,0,0,0,1.958-4.684,8.1,8.1,0,0,0-8.1-8.1H38.884v27.261ZM44.989,92.65V87.2h3.456a2.771,2.771,0,0,1,2.841,2.765,2.733,2.733,0,0,1-2.841,2.688H44.989Zm0,10.635V97.833h5.337a2.773,2.773,0,0,1,2.88,2.726,2.74,2.74,0,0,1-2.841,2.726H44.989Zm32.755,6.067A14.091,14.091,0,1,0,63.652,95.261,14.125,14.125,0,0,0,77.743,109.352Zm0-5.913a8.183,8.183,0,1,1,7.91-8.178A8.089,8.089,0,0,1,77.743,103.439Zm34.329-.346,7.948-11.019v16.817h6.144V81.63H120.6l-8.524,11.749L103.548,81.63H97.98v27.261h6.106V92.074Zm21.774,5.8h11.979a8.059,8.059,0,0,0,8.294-8.025,7.123,7.123,0,0,0-3.878-6.45,6.417,6.417,0,0,0,1.958-4.684,8.1,8.1,0,0,0-8.1-8.1H133.846v27.261Zm6.1-16.241V87.2h3.455a2.771,2.771,0,0,1,2.842,2.765,2.733,2.733,0,0,1-2.842,2.688h-3.455Zm0,10.635V97.833h5.337a2.774,2.774,0,0,1,2.88,2.726,2.74,2.74,0,0,1-2.842,2.726h-5.375Zm20.2,5.606h17.279v-5.836H166.255V98.179h8.869V92.342h-8.869V87.466h11.173V81.63H160.149v27.261Zm23.847,0h6.1V97.641h1l9.062,11.25H207.5l-9.638-12.018c3.456-1.229,5.337-3.494,5.337-7.026a8.049,8.049,0,0,0-8.447-8.217H184v27.261Zm6.1-16.433V87.236h3.916c1.805,0,3.111.96,3.111,2.611,0,1.574-1.306,2.611-3.111,2.611H190.1Zm36.557,16.894c4.684,0,8.908-2.342,8.908-7.91V81.63h-6.1v19.428a2.807,2.807,0,0,1-5.606-.153h-6.029C217.826,106.818,222.088,109.352,226.658,109.352Zm12.864-.461H245.9l2.419-5.759H259.6l2.419,5.759H268.4L256.724,81.63H251.2Zm11.02-11.058,3.417-8.217,3.418,8.217h-6.835Zm33.945,11.519a14.092,14.092,0,0,0,12.748-7.449l-5.375-2.918a8.179,8.179,0,1,1,0-7.449l5.375-2.918A14.212,14.212,0,1,0,284.487,109.352Zm18.241-.461H308.8V96.681l11.1,12.21h7.833l-12.94-14.168L325.536,81.63h-7.487l-9.254,11.4V81.63h-6.067v27.261Zm28.8,0h17.279v-5.836H337.633V98.179h8.87V92.342h-8.87V87.466h11.174V81.63H331.528v27.261Zm28.761,0h6.144V87.466h7.027V81.63H353.34v5.836h6.949v21.425Z"/>
</svg>
