<svg id="copy_copy_2" data-name="copy copy 2" xmlns="http://www.w3.org/2000/svg" width="768" height="264"><defs><style>.cls-2{fill-rule:evenodd}</style></defs><path id="Rectangle_106_copy_5" data-name="Rectangle 106 copy 5" d="M0 0h767.8l.183 264H.183z" fill-rule="evenodd" fill="#fff"/><g id="CTA_underline_copy_6" data-name="CTA_underline copy 6"><path id="Rectangle_4_copy_4" data-name="Rectangle 4 copy 4" d="M39 170h122v4H39z"/><path id="Shop_now" data-name="Shop now" class="cls-2" d="M43.817 162.853c2.706 0 4.564-1.653 4.582-4.023.018-1.965-1.19-3.214-3.048-3.894l-.9-.33c-1.353-.5-1.984-.808-1.984-1.506 0-.68.776-.992 1.551-.992a2.831 2.831 0 0 1 2.219 1.083l1.876-2.02a5.3 5.3 0 0 0-4.131-1.8c-2.561 0-4.419 1.488-4.419 4.022 0 1.782 1.154 3.049 3.229 3.766l.9.312c1.281.441 1.786.9 1.786 1.561 0 .625-.6 1.084-1.551 1.084a3.335 3.335 0 0 1-2.652-1.488l-2.2 1.892a5.583 5.583 0 0 0 4.742 2.333zm9.726-.221h2.867v-5.161h5.159v5.161h2.868v-13.041h-2.868v5.109H56.41v-5.107h-2.868v13.041zm22.66.221a6.742 6.742 0 1 0-6.62-6.741 6.7 6.7 0 0 0 6.617 6.741zm0-2.829a3.917 3.917 0 1 1 3.716-3.912 3.837 3.837 0 0 1-3.719 3.912zm20.622-5.969a4.4 4.4 0 0 0-4.51-4.464h-4.348v13.041h2.868V158.5h1.479a4.385 4.385 0 0 0 4.51-4.445zm-2.778 0a1.7 1.7 0 0 1-1.768 1.708h-1.444v-3.416h1.443a1.688 1.688 0 0 1 1.768 1.708zm25.979 8.577v-13.041h-2.886v8.045l-6.223-8.045h-2.472v13.041h2.869v-8.063l6.241 8.063h2.471zm11.765.221a6.742 6.742 0 1 0-6.62-6.741 6.7 6.7 0 0 0 6.619 6.741zm0-2.829a3.917 3.917 0 1 1 3.716-3.912 3.837 3.837 0 0 1-3.717 3.912zm21.686 2.608h2.723l2.976-13.041h-3.067l-1.749 8.266-3.608-8.486-3.589 8.486-1.75-8.266h-3.067l2.959 13.041h2.723l2.724-6.392z"/></g><path id="Water-Resistant_Quilted_Bomber_Jacket" data-name="Water-Resistant Quilted Bomber Jacket" class="cls-2" d="M60.348 68.092h5.8l6.336-27.261h-6.53l-3.725 17.278L54.55 40.37l-7.641 17.739-3.725-17.278h-6.527l6.3 27.261h5.8l5.8-13.362zm12.981 0H79.7l2.419-5.759h11.292l2.419 5.759h6.37L90.531 40.831H85zm11.02-11.058l3.417-8.217 3.417 8.217h-6.834zm24.806 11.058h6.145V46.667h7.027v-5.836h-20.12v5.836h6.949v21.425zm18.817 0h17.278v-5.836h-11.173V57.38h8.869v-5.836h-8.869v-4.877h11.173v-5.836h-17.278v27.261zm23.846 0h6.1v-11.25h1l9.062 11.25h7.334l-9.638-12.018c3.456-1.229 5.338-3.494 5.338-7.026a8.049 8.049 0 0 0-8.448-8.217h-10.748v27.261zm6.1-16.434v-5.221h3.917c1.8 0 3.11.96 3.11 2.611 0 1.574-1.306 2.611-3.11 2.611h-3.917zm19.354 5.567h11.289V51.7h-11.284v5.529zm18.316 10.866h6.112V56.842h1l9.061 11.25h7.334l-9.638-12.018c3.456-1.229 5.338-3.494 5.338-7.026a8.049 8.049 0 0 0-8.448-8.217h-10.754v27.261zm6.112-16.432v-5.222h3.917c1.8 0 3.11.96 3.11 2.611 0 1.574-1.306 2.611-3.11 2.611H201.7zm21.235 16.434h17.279v-5.837h-11.175V57.38h8.869v-5.836h-8.869v-4.877h11.173v-5.836h-17.279v27.261zm31.987.461c5.76 0 9.714-3.456 9.753-8.409.038-4.108-2.534-6.719-6.489-8.14l-1.92-.691c-2.88-1.037-4.224-1.689-4.224-3.148 0-1.421 1.651-2.073 3.3-2.073a6.064 6.064 0 0 1 4.723 2.265l3.993-4.224a11.374 11.374 0 0 0-8.792-3.763c-5.453 0-9.408 3.11-9.408 8.409 0 3.724 2.458 6.374 6.873 7.871l1.92.653c2.726.922 3.8 1.881 3.8 3.264 0 1.306-1.267 2.265-3.3 2.265a7.132 7.132 0 0 1-5.644-3.11l-4.685 3.955a11.955 11.955 0 0 0 10.098 4.875zm15.9-.461h6.105V40.831h-6.105v27.261zm21.925.461c5.76 0 9.715-3.456 9.753-8.409.038-4.108-2.534-6.719-6.489-8.14l-1.92-.691c-2.88-1.037-4.224-1.689-4.224-3.148 0-1.421 1.651-2.073 3.3-2.073a6.063 6.063 0 0 1 4.722 2.265l3.994-4.224a11.377 11.377 0 0 0-8.793-3.763c-5.453 0-9.408 3.11-9.408 8.409 0 3.724 2.458 6.374 6.874 7.871l1.919.653c2.727.922 3.8 1.881 3.8 3.264 0 1.306-1.267 2.265-3.3 2.265a7.134 7.134 0 0 1-5.645-3.11l-4.684 3.955a11.954 11.954 0 0 0 10.097 4.875zm20.429-.461h6.144V46.667h7.026v-5.836h-20.12v5.836h6.95v21.425zm13.133 0h6.374l2.419-5.759h11.289l2.419 5.759h6.374l-11.677-27.262h-5.529zm11.02-11.058l3.418-8.217 3.417 8.217h-6.835zM384.6 68.092V40.831h-6.144v16.818L365.2 40.831h-5.26v27.261h6.1V51.236l13.285 16.856h5.275zm12.6 0h6.143V46.667h7.027v-5.836h-20.12v5.836h6.95v21.425zm40.626.461a14.124 14.124 0 0 0 8.448-2.8l2.879 2.342h8.64l-7.872-6.412a13.955 13.955 0 0 0 2-7.219 14.092 14.092 0 1 0-14.104 14.089zm0-5.913a8.183 8.183 0 1 1 7.91-8.178 7.773 7.773 0 0 1-.691 3.264l-4.109-3.34-3.455 4.224 3.878 3.148a7.307 7.307 0 0 1-3.542.882zm32.525 5.913c6.527 0 11.212-4.454 11.212-11.25V40.831h-6.1V57.38c0 3.264-2.074 5.26-5.107 5.26s-5.107-2-5.107-5.26V40.831h-6.119V57.3c0 6.8 4.646 11.253 11.212 11.253zm18.586-.461h6.105V40.831h-6.105v27.261zm13.785 0h17.394v-5.836h-11.298V40.831h-6.1v27.261zm24.345 0h6.133V46.667h7.026v-5.836h-20.12v5.836h6.95v21.425zm18.816 0h17.279v-5.836h-11.183V57.38h8.87v-5.836h-8.87v-4.877h11.174v-5.836h-17.279v27.261zm23.847 0h9.292a13.633 13.633 0 1 0 0-27.261h-9.292v27.261zm6.105-5.606V46.437h3.187a7.693 7.693 0 0 1 7.717 8.025 7.693 7.693 0 0 1-7.717 8.025h-3.187zm-536.942 46.4h11.98a8.06 8.06 0 0 0 8.294-8.025 7.124 7.124 0 0 0-3.878-6.45 6.416 6.416 0 0 0 1.958-4.684 8.1 8.1 0 0 0-8.1-8.1H38.884v27.261zm6.096-16.236V87.2h3.456a2.771 2.771 0 0 1 2.841 2.765 2.733 2.733 0 0 1-2.841 2.688h-3.456zm0 10.635v-5.452h5.337a2.773 2.773 0 0 1 2.88 2.726 2.74 2.74 0 0 1-2.841 2.726h-5.376zm32.755 6.067a14.091 14.091 0 1 0-14.092-14.091 14.125 14.125 0 0 0 14.091 14.091zm0-5.913a8.183 8.183 0 1 1 7.91-8.178 8.089 8.089 0 0 1-7.911 8.178zm34.329-.346l7.948-11.019v16.817h6.144V81.63H120.6l-8.524 11.749-8.528-11.749H97.98v27.261h6.106V92.074zm21.774 5.8h11.979a8.059 8.059 0 0 0 8.294-8.025 7.123 7.123 0 0 0-3.878-6.45 6.417 6.417 0 0 0 1.958-4.684 8.1 8.1 0 0 0-8.1-8.1h-10.254v27.261zm6.1-16.241V87.2h3.455a2.771 2.771 0 0 1 2.842 2.765 2.733 2.733 0 0 1-2.842 2.688h-3.455zm0 10.635v-5.454h5.337a2.774 2.774 0 0 1 2.88 2.726 2.74 2.74 0 0 1-2.842 2.726h-5.375zm20.2 5.606h17.279v-5.836h-11.171v-4.878h8.869v-5.837h-8.869v-4.876h11.173V81.63h-17.279v27.261zm23.847 0h6.1V97.641h1l9.062 11.25h7.344l-9.638-12.018c3.456-1.229 5.337-3.494 5.337-7.026a8.049 8.049 0 0 0-8.447-8.217H184v27.261zm6.1-16.433v-5.224h3.916c1.805 0 3.111.96 3.111 2.611 0 1.574-1.306 2.611-3.111 2.611h-3.91zm36.557 16.894c4.684 0 8.908-2.342 8.908-7.91V81.63h-6.1v19.428a2.807 2.807 0 0 1-5.606-.153h-6.029c.002 5.913 4.264 8.447 8.834 8.447zm12.864-.461h6.385l2.419-5.759H259.6l2.419 5.759h6.381L256.724 81.63H251.2zm11.02-11.058l3.417-8.217 3.418 8.217h-6.835zm33.945 11.519a14.092 14.092 0 0 0 12.748-7.449l-5.375-2.918a8.179 8.179 0 1 1 0-7.449l5.375-2.918a14.212 14.212 0 1 0-12.741 20.732zm18.241-.461h6.079V96.681l11.1 12.21h7.833l-12.94-14.168 10.743-13.093h-7.487l-9.254 11.4v-11.4h-6.067v27.261zm28.8 0H348.8v-5.836h-11.167v-4.878h8.87v-5.837h-8.87v-4.876h11.174V81.63h-17.279v27.261zm28.761 0h6.144V87.466h7.027V81.63H353.34v5.836h6.949v21.425z"/></svg>