<svg id="copy_copy_2" data-name="copy copy 2" xmlns="http://www.w3.org/2000/svg" width="768" height="264" viewBox="0 0 768 264">
  <defs>
    <style>
      .cls-1 {
        fill: #fff;
      }

      .cls-2 {
        fill-rule: evenodd;
      }
    </style>
  </defs>
  <rect id="Rectangle_106_copy_12" data-name="Rectangle 106 copy 12" class="cls-1" width="768" height="264"/>
  <g id="CTA_underline_copy_7" data-name="CTA_underline copy 7">
    <rect id="Rectangle_4_copy_4" data-name="Rectangle 4 copy 4" x="39" y="170" width="122" height="4"/>
    <path id="Shop_now" data-name="Shop now" class="cls-2" d="M43.817,162.853c2.706,0,4.564-1.653,4.582-4.023,0.018-1.965-1.19-3.214-3.048-3.894l-0.9-.33c-1.353-.5-1.984-0.808-1.984-1.506,0-.68.776-0.992,1.551-0.992a2.831,2.831,0,0,1,2.219,1.083l1.876-2.02a5.3,5.3,0,0,0-4.131-1.8c-2.561,0-4.419,1.488-4.419,4.022,0,1.782,1.154,3.049,3.229,3.766l0.9,0.312c1.281,0.441,1.786.9,1.786,1.561,0,0.625-.6,1.084-1.551,1.084a3.335,3.335,0,0,1-2.652-1.488l-2.2,1.892A5.583,5.583,0,0,0,43.817,162.853Zm9.726-.221H56.41v-5.161h5.159v5.161h2.868V149.591H61.569V154.7H56.41v-5.107H53.542v13.041Zm22.66,0.221a6.742,6.742,0,1,0-6.62-6.741A6.7,6.7,0,0,0,76.2,162.853Zm0-2.829a3.917,3.917,0,1,1,3.716-3.912A3.837,3.837,0,0,1,76.2,160.024Zm20.622-5.969a4.4,4.4,0,0,0-4.51-4.464H87.967v13.041h2.868V158.5h1.479A4.385,4.385,0,0,0,96.824,154.055Zm-2.778,0a1.7,1.7,0,0,1-1.768,1.708H90.835v-3.416h1.443A1.688,1.688,0,0,1,94.046,154.055Zm25.979,8.577V149.591h-2.886v8.045l-6.223-8.045h-2.472v13.041h2.869v-8.063l6.241,8.063h2.471Zm11.765,0.221a6.742,6.742,0,1,0-6.62-6.741A6.7,6.7,0,0,0,131.79,162.853Zm0-2.829a3.917,3.917,0,1,1,3.716-3.912A3.837,3.837,0,0,1,131.79,160.024Zm21.686,2.608H156.2l2.976-13.041h-3.067l-1.749,8.266-3.608-8.486-3.589,8.486-1.75-8.266h-3.067l2.959,13.041h2.723l2.724-6.392Z"/>
  </g>
  <path id="Textured_Cotton_Mock-Neck_Cardigan_Sweater" data-name="Textured Cotton Mock-Neck Cardigan Sweater" class="cls-2" d="M45.8,68.092h6.144V46.667h7.027V40.831H38.849v5.836H45.8V68.092Zm18.816,0H81.893V62.256H70.72V57.38h8.87V51.544H70.72V46.667H81.893V40.831H64.615V68.092Zm41.241,0h7.1L102.783,54.308l9.561-13.477h-7.065L99.1,49.585l-6.182-8.754H85.85l9.6,13.477L85.236,68.092h7.142l6.758-9.023Zm16.474,0h6.144V46.667H135.5V40.831h-20.12v5.836h6.95V68.092Zm29.721,0.461c6.528,0,11.212-4.454,11.212-11.25V40.831h-6.1V57.38c0,3.264-2.074,5.26-5.107,5.26s-5.107-2-5.107-5.26V40.831h-6.105V57.3C140.838,64.1,145.484,68.553,152.05,68.553Zm18.586-.461h6.105V56.842h1l9.062,11.25h7.334L184.5,56.074c3.456-1.229,5.338-3.494,5.338-7.026a8.049,8.049,0,0,0-8.448-8.217H170.636V68.092Zm6.105-16.434V46.437h3.917c1.8,0,3.11.96,3.11,2.611,0,1.574-1.306,2.611-3.11,2.611h-3.917Zm21.235,16.434h17.279V62.256H204.081V57.38h8.87V51.544h-8.87V46.667h11.174V40.831H197.976V68.092Zm23.847,0h9.292a13.633,13.633,0,1,0,0-27.261h-9.292V68.092Zm6.1-5.606V46.437h3.187a7.694,7.694,0,0,1,7.718,8.025,7.694,7.694,0,0,1-7.718,8.025h-3.187Zm46.194,6.067A14.093,14.093,0,0,0,286.87,61.1l-5.376-2.918a8.179,8.179,0,1,1,0-7.449l5.376-2.918A14.213,14.213,0,1,0,274.122,68.553Zm30.8,0a14.091,14.091,0,1,0-14.092-14.091A14.125,14.125,0,0,0,304.919,68.553Zm0-5.913a8.183,8.183,0,1,1,7.909-8.178A8.089,8.089,0,0,1,304.919,62.64Zm24.115,5.452h6.144V46.667H342.2V40.831h-20.12v5.836h6.95V68.092Zm23.731,0h6.144V46.667h7.026V40.831h-20.12v5.836h6.95V68.092ZM383.1,68.553a14.091,14.091,0,1,0-14.091-14.091A14.125,14.125,0,0,0,383.1,68.553Zm0-5.913a8.183,8.183,0,1,1,7.91-8.178A8.088,8.088,0,0,1,383.1,62.64Zm44.889,5.452V40.831h-6.144V57.649L408.6,40.831h-5.26V68.092h6.1V51.236l13.285,16.856h5.261Zm32.14-5.8,7.949-11.02V68.092h6.143V40.831h-5.567L460.129,52.58l-8.524-11.749h-5.567V68.092h6.1V51.275Zm34.33,6.259a14.091,14.091,0,1,0-14.092-14.091A14.125,14.125,0,0,0,494.459,68.553Zm0-5.913a8.183,8.183,0,1,1,7.909-8.178A8.089,8.089,0,0,1,494.459,62.64Zm32.793,5.913A14.094,14.094,0,0,0,540,61.1l-5.376-2.918a8.179,8.179,0,1,1,0-7.449L540,47.819A14.213,14.213,0,1,0,527.252,68.553Zm18.24-.461h6.067V55.882l11.1,12.21h7.833l-12.94-14.168L568.3,40.831h-7.487l-9.254,11.4v-11.4h-6.067V68.092Zm25.69-10.866h11.289V51.7H571.182v5.529ZM614.15,68.092V40.831h-6.144V57.649L594.759,40.831H589.5V68.092H595.6V51.236l13.285,16.856h5.261Zm7.681,0H639.11V62.256H627.936V57.38h8.87V51.544h-8.87V46.667H639.11V40.831H621.831V68.092Zm35.711,0.461A14.092,14.092,0,0,0,670.29,61.1l-5.375-2.918a8.179,8.179,0,1,1,0-7.449l5.375-2.918A14.212,14.212,0,1,0,657.542,68.553Zm18.241-.461h6.067V55.882l11.1,12.21h7.833L687.84,53.924l10.751-13.093H691.1l-9.254,11.4v-11.4h-6.067V68.092ZM53.44,109.352A14.093,14.093,0,0,0,66.187,101.9l-5.376-2.918a8.179,8.179,0,1,1,0-7.449l5.376-2.918A14.213,14.213,0,1,0,53.44,109.352Zm14.67-.461h6.374l2.419-5.759H88.191l2.419,5.759h6.374L85.311,81.63H79.782Zm11.02-11.058,3.417-8.217,3.417,8.217H79.129Zm22.619,11.058h6.1V97.641h1l9.062,11.25h7.334l-9.638-12.018c3.456-1.229,5.337-3.494,5.337-7.026A8.049,8.049,0,0,0,112.5,81.63H101.748v27.261Zm6.1-16.433V87.236h3.916c1.8,0,3.11.96,3.11,2.611,0,1.574-1.305,2.611-3.11,2.611h-3.916Zm21.235,16.433h9.292a13.633,13.633,0,1,0,0-27.261h-9.292v27.261Zm6.105-5.606V87.236h3.187a8.031,8.031,0,0,1,0,16.049h-3.187Zm23.271,5.606h6.1V81.63h-6.1v27.261Zm27.109,0.461c4.416,0,8.754-1.306,11.173-4.032V92.381H185.458V98.1H190.8v4.031c-1.152.922-3.149,1.306-5.3,1.306-5.337,0-8.6-3.532-8.6-8.178a8,8,0,0,1,8.217-8.178A9.054,9.054,0,0,1,191.985,90l4.3-4.185a14.506,14.506,0,0,0-11.174-4.646,13.925,13.925,0,0,0-14.36,14.091C170.752,103.247,177.087,109.352,185.573,109.352Zm14.286-.461h6.374l2.419-5.759H219.94l2.419,5.759h6.374L217.061,81.63h-5.53Zm11.02-11.058,3.417-8.217,3.417,8.217h-6.834Zm47.269,11.058V81.63H252V98.447L238.757,81.63H233.5v27.261h6.1V92.035l13.285,16.856h5.261Zm26.189,0.461c5.76,0,9.715-3.456,9.753-8.409,0.038-4.108-2.534-6.719-6.489-8.14l-1.92-.691c-2.88-1.037-4.224-1.689-4.224-3.148,0-1.421,1.651-2.073,3.3-2.073a6.064,6.064,0,0,1,4.723,2.265l3.994-4.224a11.377,11.377,0,0,0-8.793-3.763c-5.453,0-9.408,3.11-9.408,8.409,0,3.724,2.458,6.374,6.873,7.871l1.92,0.653c2.726,0.921,3.8,1.881,3.8,3.264,0,1.305-1.268,2.265-3.3,2.265a7.134,7.134,0,0,1-5.644-3.11l-4.684,3.955A11.955,11.955,0,0,0,284.337,109.352Zm36.94-.461h5.8L333.41,81.63h-6.527l-3.725,17.278-7.679-17.739-7.641,17.739L304.113,81.63h-6.527l6.3,27.261h5.8l5.8-13.362Zm17.512,0h17.279v-5.836H344.894V98.179h8.87V92.342h-8.87V87.466h11.174V81.63H338.789v27.261Zm20.928,0h6.374l2.419-5.759H379.8l2.419,5.759h6.374L376.919,81.63H371.39Zm11.02-11.058,3.417-8.217,3.418,8.217h-6.835Zm24.807,11.058h6.143V87.466h7.027V81.63h-20.12v5.836h6.95v21.425Zm18.816,0h17.278v-5.836H420.465V98.179h8.87V92.342h-8.87V87.466h11.173V81.63H414.36v27.261Zm23.846,0h6.1V97.641h1l9.061,11.25h7.334l-9.638-12.018c3.456-1.229,5.338-3.494,5.338-7.026a8.049,8.049,0,0,0-8.448-8.217H438.206v27.261Zm6.1-16.433V87.236h3.917c1.8,0,3.11.96,3.11,2.611,0,1.574-1.306,2.611-3.11,2.611h-3.917Z"/>
</svg>
