<svg id="copy_copy_2" data-name="copy copy 2" xmlns="http://www.w3.org/2000/svg" width="768" height="223"><defs><style>.cls-2{fill-rule:evenodd}</style></defs><path id="Rectangle_106_copy_12" data-name="Rectangle 106 copy 12" fill="#fff" d="M0 0h768v223H0z"/><g id="CTA_underline_copy_8" data-name="CTA_underline copy 8"><path id="Rectangle_4_copy_4" data-name="Rectangle 4 copy 4" d="M39 129h122v4H39z"/><path id="Shop_now" data-name="Shop now" class="cls-2" d="M43.817 121.853c2.706 0 4.564-1.653 4.582-4.023.018-1.965-1.19-3.214-3.048-3.894l-.9-.33c-1.353-.5-1.984-.808-1.984-1.506 0-.68.776-.992 1.551-.992a2.831 2.831 0 0 1 2.219 1.083l1.876-2.02a5.3 5.3 0 0 0-4.131-1.8c-2.561 0-4.419 1.488-4.419 4.022 0 1.782 1.154 3.049 3.229 3.766l.9.312c1.281.441 1.786.9 1.786 1.561 0 .625-.6 1.084-1.551 1.084a3.335 3.335 0 0 1-2.652-1.488l-2.2 1.892a5.583 5.583 0 0 0 4.742 2.333zm9.726-.221h2.867v-5.161h5.159v5.161h2.868v-13.041h-2.868v5.109H56.41v-5.107h-2.868v13.041zm22.66.221a6.742 6.742 0 1 0-6.62-6.741 6.7 6.7 0 0 0 6.617 6.741zm0-2.829a3.917 3.917 0 1 1 3.716-3.912 3.837 3.837 0 0 1-3.719 3.912zm20.622-5.969a4.4 4.4 0 0 0-4.51-4.464h-4.348v13.041h2.868V117.5h1.479a4.385 4.385 0 0 0 4.51-4.445zm-2.778 0a1.7 1.7 0 0 1-1.768 1.708h-1.444v-3.416h1.443a1.688 1.688 0 0 1 1.768 1.708zm25.979 8.577v-13.041h-2.886v8.045l-6.223-8.045h-2.472v13.041h2.869v-8.063l6.241 8.063h2.471zm11.765.221a6.742 6.742 0 1 0-6.62-6.741 6.7 6.7 0 0 0 6.619 6.741zm0-2.829a3.917 3.917 0 1 1 3.716-3.912 3.837 3.837 0 0 1-3.717 3.912zm21.686 2.608h2.723l2.976-13.041h-3.067l-1.749 8.266-3.608-8.486-3.589 8.486-1.75-8.266h-3.067l2.959 13.041h2.723l2.724-6.392z"/></g><path id="Vegan_Suede_Bomber_Jacket" data-name="Vegan Suede Bomber Jacket" class="cls-2" d="M49.216 68.092h5.491L65.88 40.831h-6.72l-7.218 18.161-7.257-18.161h-6.643zm21.5 0H88v-5.836H76.825V57.38h8.87v-5.836h-8.87v-4.877H88v-5.836H70.72v27.261zm36.484.461c4.416 0 8.755-1.305 11.174-4.032V51.582h-11.29V57.3h5.337v4.032c-1.152.922-3.148 1.306-5.3 1.306-5.338 0-8.6-3.532-8.6-8.178a8 8 0 0 1 8.217-8.178 9.054 9.054 0 0 1 6.873 2.918l4.3-4.185a14.5 14.5 0 0 0-11.173-4.646 13.925 13.925 0 0 0-14.36 14.093c0 7.986 6.336 14.091 14.822 14.091zm14.286-.461h6.374l2.419-5.759h11.289l2.419 5.759h6.374l-11.674-27.261h-5.529zm11.02-11.058l3.418-8.217 3.417 8.217h-6.835zm47.269 11.058V40.831h-6.143v16.818l-13.248-16.818h-5.261v27.261h6.106V51.236l13.285 16.856h5.26zm26.19.461c5.759 0 9.714-3.456 9.752-8.409.039-4.108-2.534-6.719-6.489-8.14l-1.92-.691c-2.879-1.037-4.223-1.689-4.223-3.148 0-1.421 1.651-2.073 3.3-2.073a6.064 6.064 0 0 1 4.723 2.265l3.993-4.224a11.376 11.376 0 0 0-8.793-3.763c-5.452 0-9.407 3.11-9.407 8.409 0 3.724 2.457 6.374 6.873 7.871l1.926.65c2.726.922 3.8 1.881 3.8 3.264 0 1.306-1.267 2.265-3.3 2.265a7.13 7.13 0 0 1-5.644-3.11l-4.685 3.955a11.955 11.955 0 0 0 10.093 4.879zm26.8 0c6.528 0 11.212-4.454 11.212-11.25V40.831h-6.105V57.38c0 3.264-2.074 5.26-5.107 5.26s-5.107-2-5.107-5.26V40.831h-6.1V57.3c-.004 6.8 4.642 11.253 11.208 11.253zm18.586-.461h17.279v-5.836h-11.173V57.38h8.87v-5.836h-8.87v-4.877h11.174v-5.836h-17.279v27.261zm23.846 0h9.293a13.633 13.633 0 1 0 0-27.261h-9.29v27.261zm6.106-5.606V46.437h3.187a7.693 7.693 0 0 1 7.717 8.025 7.693 7.693 0 0 1-7.717 8.025h-3.19zm23.27 5.606h17.279v-5.836h-11.173V57.38h8.87v-5.836h-8.87v-4.877h11.174v-5.836h-17.279v27.261zm34.214 0h11.98a8.06 8.06 0 0 0 8.294-8.025 7.123 7.123 0 0 0-3.878-6.45 6.417 6.417 0 0 0 1.958-4.684 8.1 8.1 0 0 0-8.1-8.1h-10.253v27.259zm6.1-16.242V46.4h3.456a2.771 2.771 0 0 1 2.841 2.764 2.732 2.732 0 0 1-2.841 2.688h-3.456zm0 10.636v-5.452h5.337a2.773 2.773 0 0 1 2.88 2.726 2.739 2.739 0 0 1-2.841 2.726h-5.376zm32.755 6.067a14.091 14.091 0 1 0-14.092-14.091 14.126 14.126 0 0 0 14.098 14.091zm0-5.913a8.183 8.183 0 1 1 7.91-8.178 8.088 8.088 0 0 1-7.904 8.178zm34.329-.346l7.948-11.02v16.818h6.143V40.831H420.5l-8.523 11.749-8.525-11.749h-5.567v27.261h6.105V51.275zm21.773 5.8h11.98a8.06 8.06 0 0 0 8.294-8.025 7.125 7.125 0 0 0-3.878-6.45 6.417 6.417 0 0 0 1.958-4.684 8.1 8.1 0 0 0-8.1-8.1H433.75v27.257zm6.105-16.242V46.4h3.456a2.771 2.771 0 0 1 2.841 2.764 2.732 2.732 0 0 1-2.841 2.688h-3.456zm0 10.636v-5.454h5.337a2.774 2.774 0 0 1 2.88 2.726 2.74 2.74 0 0 1-2.841 2.726h-5.376zm20.2 5.606h17.279v-5.838h-11.169V57.38h8.87v-5.836h-8.87v-4.877h11.174v-5.836h-17.279v27.261zm23.846 0H490V56.842h1l9.061 11.25h7.339l-9.637-12.018c3.455-1.229 5.337-3.494 5.337-7.026a8.049 8.049 0 0 0-8.448-8.217H483.9v27.261zM490 51.66v-5.223h3.917c1.8 0 3.11.96 3.11 2.611 0 1.574-1.305 2.611-3.11 2.611H490zm36.557 16.894c4.684 0 8.908-2.342 8.908-7.91V40.831h-6.105v19.428a2.807 2.807 0 0 1-5.606-.154h-6.028c.005 5.914 4.267 8.448 8.836 8.448zm12.865-.461h6.378l2.42-5.759h11.288l2.419 5.759h6.373l-11.671-27.262H551.1zm11.02-11.058l3.417-8.217 3.417 8.217h-6.834zm33.945 11.519A14.092 14.092 0 0 0 597.14 61.1l-5.376-2.918a8.179 8.179 0 1 1 0-7.449l5.376-2.918a14.213 14.213 0 1 0-12.748 20.738zm18.241-.461h6.072V55.882l11.1 12.21h7.833L614.69 53.924l10.751-13.093h-7.488l-9.253 11.4v-11.4h-6.067v27.261zm28.8 0h17.278v-5.837h-11.168V57.38h8.87v-5.836h-8.87v-4.877h11.173v-5.836h-17.278v27.261zm28.761 0h6.143V46.667h7.027v-5.836h-20.12v5.836h6.95v21.425z"/></svg>