<svg id="copy_copy_2" data-name="copy copy 2" xmlns="http://www.w3.org/2000/svg" width="768" height="263" viewBox="0 0 768 263">
  <defs>
    <style>
      .cls-1 {
        fill: #fff;
      }

      .cls-1, .cls-2 {
        fill-rule: evenodd;
      }
    </style>
  </defs>
  <path id="Rectangle_106_copy_5" data-name="Rectangle 106 copy 5" class="cls-1" d="M0,0H767.831l0.184,263H0.183Z"/>
  <g id="CTA_underline_copy_9" data-name="CTA_underline copy 9">
    <rect id="Rectangle_4_copy_4" data-name="Rectangle 4 copy 4" x="39" y="169" width="122" height="4"/>
    <path id="Shop_now" data-name="Shop now" class="cls-2" d="M43.817,161.853c2.706,0,4.564-1.653,4.582-4.023,0.018-1.965-1.19-3.214-3.048-3.894l-0.9-.33c-1.353-.5-1.984-0.808-1.984-1.506,0-.68.776-0.992,1.551-0.992a2.831,2.831,0,0,1,2.219,1.083l1.876-2.02a5.3,5.3,0,0,0-4.131-1.8c-2.561,0-4.419,1.488-4.419,4.022,0,1.782,1.154,3.049,3.229,3.766l0.9,0.312c1.281,0.441,1.786.9,1.786,1.561,0,0.625-.6,1.084-1.551,1.084a3.335,3.335,0,0,1-2.652-1.488l-2.2,1.892A5.583,5.583,0,0,0,43.817,161.853Zm9.726-.221H56.41v-5.161h5.159v5.161h2.868V148.591H61.569V153.7H56.41v-5.107H53.542v13.041Zm22.66,0.221a6.742,6.742,0,1,0-6.62-6.741A6.7,6.7,0,0,0,76.2,161.853Zm0-2.829a3.917,3.917,0,1,1,3.716-3.912A3.837,3.837,0,0,1,76.2,159.024Zm20.622-5.969a4.4,4.4,0,0,0-4.51-4.464H87.967v13.041h2.868V157.5h1.479A4.385,4.385,0,0,0,96.824,153.055Zm-2.778,0a1.7,1.7,0,0,1-1.768,1.708H90.835v-3.416h1.443A1.688,1.688,0,0,1,94.046,153.055Zm25.979,8.577V148.591h-2.886v8.045l-6.223-8.045h-2.472v13.041h2.869v-8.063l6.241,8.063h2.471Zm11.765,0.221a6.742,6.742,0,1,0-6.62-6.741A6.7,6.7,0,0,0,131.79,161.853Zm0-2.829a3.917,3.917,0,1,1,3.716-3.912A3.837,3.837,0,0,1,131.79,159.024Zm21.686,2.608H156.2l2.976-13.041h-3.067l-1.749,8.266-3.608-8.486-3.589,8.486-1.75-8.266h-3.067l2.959,13.041h2.723l2.724-6.392Z"/>
  </g>
  <path id="Slim_Brushed_Motion-Stretch_Blazer_" data-name="Slim Brushed Motion-Stretch Blazer   " class="cls-2" d="M50.024,68.553c5.76,0,9.715-3.456,9.753-8.409,0.038-4.108-2.534-6.719-6.489-8.14l-1.92-.691c-2.88-1.037-4.224-1.689-4.224-3.148,0-1.421,1.651-2.073,3.3-2.073a6.064,6.064,0,0,1,4.723,2.265l3.993-4.224a11.376,11.376,0,0,0-8.793-3.763c-5.452,0-9.407,3.11-9.407,8.409,0,3.724,2.457,6.374,6.873,7.871l1.92,0.653c2.726,0.922,3.8,1.881,3.8,3.264,0,1.306-1.267,2.265-3.3,2.265a7.132,7.132,0,0,1-5.644-3.11l-4.684,3.955A11.954,11.954,0,0,0,50.024,68.553Zm15.9-.461H83.316V62.256H72.027V40.831H65.922V68.092Zm23.116,0h6.105V40.831H89.038V68.092Zm27.877-5.8,7.948-11.02V68.092h6.144V40.831h-5.568L116.915,52.58l-8.524-11.749h-5.568V68.092h6.105V51.275Zm32.141,5.8h11.98a8.059,8.059,0,0,0,8.293-8.025,7.123,7.123,0,0,0-3.878-6.45,6.414,6.414,0,0,0,1.959-4.684,8.1,8.1,0,0,0-8.1-8.1H149.056V68.092Zm6.1-16.242V46.4h3.456a2.771,2.771,0,0,1,2.841,2.764,2.732,2.732,0,0,1-2.841,2.688h-3.456Zm0,10.636V57.034H160.5a2.774,2.774,0,0,1,2.88,2.726,2.74,2.74,0,0,1-2.842,2.726h-5.375Zm20.2,5.606h6.106V56.842h1l9.062,11.25h7.334l-9.638-12.018c3.456-1.229,5.337-3.494,5.337-7.026a8.049,8.049,0,0,0-8.447-8.217H175.359V68.092Zm6.106-16.434V46.437h3.916c1.805,0,3.11.96,3.11,2.611,0,1.574-1.305,2.611-3.11,2.611h-3.916Zm31.641,16.894c6.527,0,11.212-4.454,11.212-11.25V40.831h-6.105V57.38c0,3.264-2.074,5.26-5.107,5.26s-5.107-2-5.107-5.26V40.831h-6.1V57.3C201.894,64.1,206.54,68.553,213.106,68.553Zm26.726,0c5.76,0,9.715-3.456,9.753-8.409,0.038-4.108-2.534-6.719-6.489-8.14l-1.92-.691c-2.88-1.037-4.224-1.689-4.224-3.148,0-1.421,1.651-2.073,3.3-2.073a6.064,6.064,0,0,1,4.723,2.265l3.994-4.224a11.377,11.377,0,0,0-8.793-3.763c-5.453,0-9.408,3.11-9.408,8.409,0,3.724,2.458,6.374,6.873,7.871l1.92,0.653c2.726,0.922,3.8,1.881,3.8,3.264,0,1.306-1.268,2.265-3.3,2.265a7.133,7.133,0,0,1-5.644-3.11l-4.684,3.955A11.953,11.953,0,0,0,239.832,68.553Zm15.9-.461h6.1V57.3h10.982V68.092h6.105V40.831h-6.105V51.505H261.835V40.831h-6.1V68.092Zm30.873,0h17.279V62.256H292.708V57.38h8.87V51.544h-8.87V46.667h11.174V40.831H286.6V68.092Zm23.847,0h9.292a13.633,13.633,0,1,0,0-27.261H310.45V68.092Zm6.105-5.606V46.437h3.187a7.694,7.694,0,0,1,7.718,8.025,7.694,7.694,0,0,1-7.718,8.025h-3.187Zm47.73-.192,7.948-11.02V68.092h6.144V40.831h-5.568L364.285,52.58l-8.524-11.749h-5.568V68.092H356.3V51.275Zm34.329,6.259a14.091,14.091,0,1,0-14.092-14.091A14.126,14.126,0,0,0,398.614,68.553Zm0-5.913a8.183,8.183,0,1,1,7.91-8.178A8.088,8.088,0,0,1,398.614,62.64Zm24.116,5.452h6.143V46.667H435.9V40.831H415.78v5.836h6.95V68.092Zm18.816,0h6.105V40.831h-6.105V68.092Zm26.341,0.461A14.091,14.091,0,1,0,453.8,54.462,14.125,14.125,0,0,0,467.887,68.553Zm0-5.913a8.183,8.183,0,1,1,7.91-8.178A8.088,8.088,0,0,1,467.887,62.64Zm44.888,5.452V40.831h-6.144V57.649L493.384,40.831h-5.26V68.092h6.1V51.236l13.285,16.856h5.261ZM519.8,57.226h11.288V51.7H519.8v5.529ZM546.26,68.553c5.76,0,9.715-3.456,9.753-8.409,0.038-4.108-2.534-6.719-6.489-8.14l-1.92-.691c-2.88-1.037-4.224-1.689-4.224-3.148,0-1.421,1.651-2.073,3.3-2.073a6.063,6.063,0,0,1,4.722,2.265l3.994-4.224a11.377,11.377,0,0,0-8.793-3.763c-5.453,0-9.408,3.11-9.408,8.409,0,3.724,2.458,6.374,6.873,7.871l1.92,0.653c2.727,0.922,3.8,1.881,3.8,3.264,0,1.306-1.267,2.265-3.3,2.265a7.134,7.134,0,0,1-5.645-3.11l-4.684,3.955A11.954,11.954,0,0,0,546.26,68.553Zm20.429-.461h6.143V46.667h7.027V40.831h-20.12v5.836h6.95V68.092Zm18.816,0h6.105V56.842h1l9.061,11.25H609l-9.638-12.018c3.456-1.229,5.338-3.494,5.338-7.026a8.049,8.049,0,0,0-8.448-8.217H585.505V68.092Zm6.105-16.434V46.437h3.917c1.8,0,3.11.96,3.11,2.611,0,1.574-1.306,2.611-3.11,2.611H591.61Zm21.235,16.434h17.279V62.256H618.951V57.38h8.869V51.544h-8.869V46.667h11.173V40.831H612.845V68.092Zm28.762,0h6.143V46.667h7.027V40.831h-20.12v5.836h6.95V68.092Zm30.335,0.461A14.092,14.092,0,0,0,684.69,61.1l-5.376-2.918a8.179,8.179,0,1,1,0-7.449l5.376-2.918A14.213,14.213,0,1,0,671.942,68.553Zm18.241-.461h6.105V57.3H707.27V68.092h6.105V40.831H707.27V51.505H696.288V40.831h-6.105V68.092Zm-648.3,40.8h11.98a8.06,8.06,0,0,0,8.294-8.025,7.124,7.124,0,0,0-3.878-6.45,6.416,6.416,0,0,0,1.958-4.684,8.1,8.1,0,0,0-8.1-8.1H41.884v27.261ZM47.989,92.65V87.2h3.456a2.771,2.771,0,0,1,2.841,2.765,2.733,2.733,0,0,1-2.841,2.688H47.989Zm0,10.635V97.833h5.337a2.773,2.773,0,0,1,2.88,2.726,2.74,2.74,0,0,1-2.841,2.726H47.989Zm20.2,5.606H85.581v-5.836H74.293V81.63H68.187v27.261Zm20.2,0h6.374l2.419-5.759h11.289l2.419,5.759h6.374L105.587,81.63h-5.529Zm11.02-11.058,3.417-8.217,3.417,8.217H99.406Zm21.236,11.058h21.042v-5.836H128.9l12.556-17.24V81.63h-20.62v5.836h12.326l-12.518,17.24v4.185Zm27.341,0h17.279v-5.836H154.087V98.179h8.87V92.342h-8.87V87.466h11.174V81.63H147.982v27.261Zm23.846,0h6.1V97.641h1l9.061,11.25h7.334L185.69,96.873c3.455-1.229,5.337-3.494,5.337-7.026a8.049,8.049,0,0,0-8.448-8.217H171.828v27.261Zm6.1-16.433V87.236h3.917c1.8,0,3.11.96,3.11,2.611,0,1.574-1.306,2.611-3.11,2.611h-3.917Z"/>
</svg>
