<svg id="copy_copy_2" data-name="copy copy 2" xmlns="http://www.w3.org/2000/svg" width="768" height="263"><defs><style>.cls-2{fill-rule:evenodd}</style></defs><path id="Rectangle_106_copy_5" data-name="Rectangle 106 copy 5" d="M0 0h767.831l.184 263H.183z" fill-rule="evenodd" fill="#fff"/><g id="CTA_underline_copy_9" data-name="CTA_underline copy 9"><path id="Rectangle_4_copy_4" data-name="Rectangle 4 copy 4" d="M39 169h122v4H39z"/><path id="Shop_now" data-name="Shop now" class="cls-2" d="M43.817 161.853c2.706 0 4.564-1.653 4.582-4.023.018-1.965-1.19-3.214-3.048-3.894l-.9-.33c-1.353-.5-1.984-.808-1.984-1.506 0-.68.776-.992 1.551-.992a2.831 2.831 0 0 1 2.219 1.083l1.876-2.02a5.3 5.3 0 0 0-4.131-1.8c-2.561 0-4.419 1.488-4.419 4.022 0 1.782 1.154 3.049 3.229 3.766l.9.312c1.281.441 1.786.9 1.786 1.561 0 .625-.6 1.084-1.551 1.084a3.335 3.335 0 0 1-2.652-1.488l-2.2 1.892a5.583 5.583 0 0 0 4.742 2.333zm9.726-.221h2.867v-5.161h5.159v5.161h2.868v-13.041h-2.868v5.109H56.41v-5.107h-2.868v13.041zm22.66.221a6.742 6.742 0 1 0-6.62-6.741 6.7 6.7 0 0 0 6.617 6.741zm0-2.829a3.917 3.917 0 1 1 3.716-3.912 3.837 3.837 0 0 1-3.719 3.912zm20.622-5.969a4.4 4.4 0 0 0-4.51-4.464h-4.348v13.041h2.868V157.5h1.479a4.385 4.385 0 0 0 4.51-4.445zm-2.778 0a1.7 1.7 0 0 1-1.768 1.708h-1.444v-3.416h1.443a1.688 1.688 0 0 1 1.768 1.708zm25.979 8.577v-13.041h-2.886v8.045l-6.223-8.045h-2.472v13.041h2.869v-8.063l6.241 8.063h2.471zm11.765.221a6.742 6.742 0 1 0-6.62-6.741 6.7 6.7 0 0 0 6.619 6.741zm0-2.829a3.917 3.917 0 1 1 3.716-3.912 3.837 3.837 0 0 1-3.717 3.912zm21.686 2.608h2.723l2.976-13.041h-3.067l-1.749 8.266-3.608-8.486-3.589 8.486-1.75-8.266h-3.067l2.959 13.041h2.723l2.724-6.392z"/></g><path id="Slim_Brushed_Motion-Stretch_Blazer_" data-name="Slim Brushed Motion-Stretch Blazer" class="cls-2" d="M50.024 68.553c5.76 0 9.715-3.456 9.753-8.409.038-4.108-2.534-6.719-6.489-8.14l-1.92-.691c-2.88-1.037-4.224-1.689-4.224-3.148 0-1.421 1.651-2.073 3.3-2.073a6.064 6.064 0 0 1 4.723 2.265l3.993-4.224a11.376 11.376 0 0 0-8.793-3.763c-5.452 0-9.407 3.11-9.407 8.409 0 3.724 2.457 6.374 6.873 7.871l1.92.653c2.726.922 3.8 1.881 3.8 3.264 0 1.306-1.267 2.265-3.3 2.265a7.132 7.132 0 0 1-5.644-3.11l-4.684 3.955a11.954 11.954 0 0 0 10.099 4.876zm15.9-.461h17.392v-5.836H72.027V40.831h-6.105v27.261zm23.116 0h6.105V40.831h-6.107v27.261zm27.877-5.8l7.948-11.02v16.82h6.144V40.831h-5.568l-8.526 11.749-8.524-11.749h-5.568v27.261h6.105V51.275zm32.141 5.8h11.98a8.059 8.059 0 0 0 8.293-8.025 7.123 7.123 0 0 0-3.878-6.45 6.414 6.414 0 0 0 1.959-4.684 8.1 8.1 0 0 0-8.1-8.1h-10.256v27.259zm6.1-16.242V46.4h3.456a2.771 2.771 0 0 1 2.841 2.764 2.732 2.732 0 0 1-2.841 2.688h-3.456zm0 10.636v-5.452h5.342a2.774 2.774 0 0 1 2.88 2.726 2.74 2.74 0 0 1-2.842 2.726h-5.375zm20.2 5.606h6.106v-11.25h1l9.062 11.25h7.334l-9.638-12.018c3.456-1.229 5.337-3.494 5.337-7.026a8.049 8.049 0 0 0-8.447-8.217h-10.753v27.261zm6.106-16.434v-5.221h3.916c1.805 0 3.11.96 3.11 2.611 0 1.574-1.305 2.611-3.11 2.611h-3.916zm31.641 16.894c6.527 0 11.212-4.454 11.212-11.25V40.831h-6.105V57.38c0 3.264-2.074 5.26-5.107 5.26s-5.107-2-5.107-5.26V40.831h-6.1V57.3c-.004 6.8 4.642 11.253 11.208 11.253zm26.726 0c5.76 0 9.715-3.456 9.753-8.409.038-4.108-2.534-6.719-6.489-8.14l-1.92-.691c-2.88-1.037-4.224-1.689-4.224-3.148 0-1.421 1.651-2.073 3.3-2.073a6.064 6.064 0 0 1 4.723 2.265l3.994-4.224a11.377 11.377 0 0 0-8.793-3.763c-5.453 0-9.408 3.11-9.408 8.409 0 3.724 2.458 6.374 6.873 7.871l1.92.653c2.726.922 3.8 1.881 3.8 3.264 0 1.306-1.268 2.265-3.3 2.265a7.133 7.133 0 0 1-5.644-3.11l-4.684 3.955a11.953 11.953 0 0 0 10.1 4.877zm15.9-.461h6.1V57.3h10.982v10.792h6.105V40.831h-6.105v10.674h-10.978V40.831h-6.1v27.261zm30.873 0h17.279v-5.835h-11.175V57.38h8.87v-5.836h-8.87v-4.877h11.174v-5.836H286.6v27.261zm23.847 0h9.292a13.633 13.633 0 1 0 0-27.261h-9.293v27.262zm6.105-5.606V46.437h3.187a7.694 7.694 0 0 1 7.718 8.025 7.694 7.694 0 0 1-7.718 8.025h-3.187zm47.73-.192l7.948-11.02v16.819h6.144V40.831h-5.568l-8.525 11.749-8.524-11.749h-5.568v27.261h6.107V51.275zm34.329 6.259a14.091 14.091 0 1 0-14.092-14.091 14.126 14.126 0 0 0 14.091 14.092zm0-5.913a8.183 8.183 0 1 1 7.91-8.178 8.088 8.088 0 0 1-7.911 8.179zm24.116 5.452h6.143V46.667h7.026v-5.836h-20.12v5.836h6.95v21.425zm18.816 0h6.105v-27.26h-6.105v27.261zm26.341.461a14.091 14.091 0 1 0-14.088-14.09 14.125 14.125 0 0 0 14.087 14.091zm0-5.913a8.183 8.183 0 1 1 7.91-8.178 8.088 8.088 0 0 1-7.911 8.179zm44.888 5.452v-27.26h-6.144v16.818l-13.248-16.818h-5.26v27.261h6.1V51.236l13.285 16.856h5.261zm7.024-10.865h11.288V51.7H519.8v5.529zm26.46 11.327c5.76 0 9.715-3.456 9.753-8.409.038-4.108-2.534-6.719-6.489-8.14l-1.92-.691c-2.88-1.037-4.224-1.689-4.224-3.148 0-1.421 1.651-2.073 3.3-2.073a6.063 6.063 0 0 1 4.722 2.265l3.994-4.224a11.377 11.377 0 0 0-8.793-3.763c-5.453 0-9.408 3.11-9.408 8.409 0 3.724 2.458 6.374 6.873 7.871l1.92.653c2.727.922 3.8 1.881 3.8 3.264 0 1.306-1.267 2.265-3.3 2.265a7.134 7.134 0 0 1-5.645-3.11l-4.684 3.955a11.954 11.954 0 0 0 10.101 4.876zm20.429-.461h6.143V46.667h7.027v-5.836h-20.12v5.836h6.95v21.425zm18.816 0h6.105v-11.25h1l9.061 11.25H609l-9.638-12.018c3.456-1.229 5.338-3.494 5.338-7.026a8.049 8.049 0 0 0-8.448-8.217h-10.747v27.261zm6.105-16.434v-5.221h3.917c1.8 0 3.11.96 3.11 2.611 0 1.574-1.306 2.611-3.11 2.611h-3.917zm21.235 16.434h17.279v-5.836h-11.173V57.38h8.869v-5.836h-8.869v-4.877h11.173v-5.836h-17.279v27.261zm28.762 0h6.143V46.667h7.027v-5.836h-20.12v5.836h6.95v21.425zm30.335.461A14.092 14.092 0 0 0 684.69 61.1l-5.376-2.918a8.179 8.179 0 1 1 0-7.449l5.376-2.918a14.213 14.213 0 1 0-12.748 20.738zm18.241-.461h6.105V57.3h10.982v10.792h6.105V40.831h-6.105v10.674h-10.982V40.831h-6.105v27.261zm-648.3 40.8h11.98a8.06 8.06 0 0 0 8.294-8.025 7.124 7.124 0 0 0-3.878-6.45 6.416 6.416 0 0 0 1.958-4.684 8.1 8.1 0 0 0-8.1-8.1H41.884v27.261zm6.106-16.242V87.2h3.456a2.771 2.771 0 0 1 2.841 2.765 2.733 2.733 0 0 1-2.841 2.688h-3.456zm0 10.635v-5.452h5.337a2.773 2.773 0 0 1 2.88 2.726 2.74 2.74 0 0 1-2.841 2.726h-5.376zm20.2 5.606h17.392v-5.836H74.293V81.63h-6.106v27.261zm20.2 0h6.374l2.419-5.759h11.289l2.419 5.759h6.374L105.587 81.63h-5.529zm11.02-11.058l3.417-8.217 3.417 8.217h-6.837zm21.236 11.058h21.042v-5.836H128.9l12.556-17.24V81.63h-20.62v5.836h12.326l-12.518 17.24v4.185zm27.341 0h17.279v-5.836h-11.178v-4.876h8.87v-5.837h-8.87v-4.876h11.174V81.63h-17.279v27.261zm23.846 0h6.1v-11.25h1l9.061 11.25h7.334l-9.637-12.018c3.455-1.229 5.337-3.494 5.337-7.026a8.049 8.049 0 0 0-8.448-8.217h-10.751v27.261zm6.1-16.433v-5.222h3.917c1.8 0 3.11.96 3.11 2.611 0 1.574-1.306 2.611-3.11 2.611h-3.917z"/></svg>