<svg id="copy_copy_2" data-name="copy copy 2" xmlns="http://www.w3.org/2000/svg" width="768" height="499"><defs><style>.cls-2{fill-rule:evenodd}</style></defs><path id="Rectangle_106_copy_5" data-name="Rectangle 106 copy 5" d="M0 0h767.831l.184 499H.183z" fill-rule="evenodd" fill="#fff"/><g id="CTA_underline_copy_10" data-name="CTA_underline copy 10"><path id="Rectangle_4_copy_4" data-name="Rectangle 4 copy 4" d="M39 405h122v4H39z"/><path id="Shop_now" data-name="Shop now" class="cls-2" d="M43.817 397.853c2.706 0 4.564-1.653 4.582-4.023.018-1.965-1.19-3.214-3.048-3.894l-.9-.33c-1.353-.5-1.984-.808-1.984-1.506 0-.68.776-.992 1.551-.992a2.831 2.831 0 0 1 2.219 1.083l1.876-2.02a5.3 5.3 0 0 0-4.131-1.8c-2.561 0-4.419 1.488-4.419 4.022 0 1.782 1.154 3.049 3.229 3.766l.9.312c1.281.441 1.786.9 1.786 1.561 0 .625-.6 1.084-1.551 1.084a3.335 3.335 0 0 1-2.652-1.488l-2.2 1.892a5.583 5.583 0 0 0 4.742 2.333zm9.726-.221h2.867v-5.161h5.159v5.161h2.868v-13.041h-2.868v5.109H56.41v-5.107h-2.868v13.041zm22.66.221a6.742 6.742 0 1 0-6.62-6.741 6.7 6.7 0 0 0 6.617 6.741zm0-2.829a3.917 3.917 0 1 1 3.716-3.912 3.837 3.837 0 0 1-3.719 3.912zm20.622-5.969a4.4 4.4 0 0 0-4.51-4.464h-4.348v13.041h2.868V393.5h1.479a4.385 4.385 0 0 0 4.51-4.445zm-2.778 0a1.7 1.7 0 0 1-1.768 1.708h-1.444v-3.416h1.443a1.688 1.688 0 0 1 1.768 1.708zm25.979 8.577v-13.041h-2.886v8.045l-6.223-8.045h-2.472v13.041h2.869v-8.063l6.241 8.063h2.471zm11.765.221a6.742 6.742 0 1 0-6.62-6.741 6.7 6.7 0 0 0 6.619 6.741zm0-2.829a3.917 3.917 0 1 1 3.716-3.912 3.837 3.837 0 0 1-3.717 3.912zm21.686 2.608h2.723l2.976-13.041h-3.067l-1.749 8.266-3.608-8.486-3.589 8.486-1.75-8.266h-3.067l2.959 13.041h2.723l2.724-6.392z"/></g><path id="BR_X_Kevin_Love_Slim_Pinstripe_Italian_Motion-Stretch_Suit_It" data-name="BR X Kevin Love | Slim Pinstripe Italian Motion-Stretch Suit It" class="cls-2" d="M41.884 68.092h11.98a8.06 8.06 0 0 0 8.294-8.025 7.124 7.124 0 0 0-3.878-6.45 6.416 6.416 0 0 0 1.958-4.684 8.1 8.1 0 0 0-8.1-8.1H41.884v27.259zm6.105-16.242V46.4h3.456a2.771 2.771 0 0 1 2.841 2.764 2.733 2.733 0 0 1-2.841 2.688h-3.456zm0 10.636v-5.452h5.337a2.773 2.773 0 0 1 2.88 2.726 2.74 2.74 0 0 1-2.841 2.726h-5.376zM67.8 68.092h6.105v-11.25h1l9.062 11.25H91.3l-9.635-12.018C85.121 54.846 87 52.58 87 49.048a8.049 8.049 0 0 0-8.447-8.217H67.8v27.261zm6.105-16.434v-5.221h3.917c1.8 0 3.11.96 3.11 2.611 0 1.574-1.305 2.611-3.11 2.611h-3.913zM120.6 68.092h7.1l-10.17-13.784 9.561-13.477h-7.065l-6.182 8.754-6.182-8.754H100.6l9.6 13.477-10.217 13.784h7.142l6.757-9.023zm20.391 0h6.067v-12.21l11.1 12.21h7.833L153.05 53.924l10.75-13.093h-7.487l-9.254 11.4v-11.4h-6.067v27.261zm28.416 0h17.279v-5.836h-11.172V57.38h8.87v-5.836h-8.87v-4.877h11.174v-5.836h-17.279v27.261zm31.8 0h5.493l11.173-27.261h-6.719l-7.224 18.161-7.257-18.162h-6.643zm21.12 0h6.1V40.831h-6.1v27.261zm38.052 0V40.831h-6.143v16.818l-13.25-16.818h-5.261v27.261h6.105V51.236l13.286 16.856h5.26zm17.281 0h17.394v-5.836h-11.292V40.831h-6.105v27.261zm34.06.461a14.091 14.091 0 1 0-14.092-14.091 14.125 14.125 0 0 0 14.089 14.091zm0-5.913a8.183 8.183 0 1 1 7.909-8.178 8.089 8.089 0 0 1-7.912 8.178zm27 5.452h5.48l11.173-27.261h-6.719l-7.219 18.162-7.257-18.162h-6.643zm21.12 0h17.279v-5.836h-11.182V57.38h8.87v-5.836h-8.87v-4.877h11.174v-5.836h-17.279v27.261zm33.438 2.108h4.838V38.719h-4.838V70.2zm30.257-1.651c5.76 0 9.715-3.456 9.753-8.409.039-4.108-2.534-6.719-6.489-8.14l-1.92-.691c-2.879-1.037-4.223-1.689-4.223-3.148 0-1.421 1.651-2.073 3.3-2.073a6.064 6.064 0 0 1 4.723 2.265l3.993-4.224a11.376 11.376 0 0 0-8.793-3.763c-5.452 0-9.407 3.11-9.407 8.409 0 3.724 2.457 6.374 6.873 7.871l1.92.653c2.726.922 3.8 1.881 3.8 3.264 0 1.306-1.267 2.265-3.3 2.265a7.134 7.134 0 0 1-5.645-3.11l-4.684 3.955a11.954 11.954 0 0 0 10.099 4.88zm15.514-.461h17.394v-5.832h-11.289V40.831h-6.105v27.261zm22.733 0h6.105V40.831h-6.105v27.261zm27.493-5.8l7.948-11.02v16.824h6.143V40.831H497.8l-8.525 11.749-8.525-11.749h-5.567v27.261h6.105V51.275zM539.5 50.161a9.284 9.284 0 0 0-9.6-9.33h-9.254v27.261h6.106v-8.639h3.148a9.253 9.253 0 0 0 9.6-9.292zm-5.913 0a3.588 3.588 0 0 1-3.763 3.571h-3.071V46.59h3.071a3.565 3.565 0 0 1 3.763 3.571zm11.367 17.931h6.105V40.831h-6.105v27.261zm38.052 0V40.831h-6.143v16.818l-13.247-16.818h-5.261v27.261h6.105V51.236l13.286 16.856h5.26zm15.438.461c5.76 0 9.714-3.456 9.753-8.409.038-4.108-2.534-6.719-6.489-8.14l-1.92-.691c-2.88-1.037-4.224-1.689-4.224-3.148 0-1.421 1.651-2.073 3.3-2.073a6.064 6.064 0 0 1 4.723 2.265l3.994-4.224a11.377 11.377 0 0 0-8.793-3.763c-5.453 0-9.408 3.11-9.408 8.409 0 3.724 2.458 6.374 6.873 7.871l1.92.653c2.726.922 3.8 1.881 3.8 3.264 0 1.306-1.268 2.265-3.3 2.265a7.132 7.132 0 0 1-5.644-3.11l-4.684 3.955a11.952 11.952 0 0 0 10.099 4.876zm20.045-.461h6.143V46.667h7.027v-5.836h-20.12v5.836h6.95v21.425zm18.432 0h6.1v-11.25h1l9.062 11.25h7.334l-9.638-12.018c3.456-1.229 5.337-3.494 5.337-7.026a8.049 8.049 0 0 0-8.447-8.217h-10.748v27.261zm6.1-16.434v-5.221h3.917c1.8 0 3.11.96 3.11 2.611 0 1.574-1.306 2.611-3.11 2.611h-3.917zm20.851 16.434h6.105V40.831h-6.105v27.261zm32.255-17.931a9.285 9.285 0 0 0-9.6-9.33h-9.254v27.261h6.106v-8.639h3.148a9.254 9.254 0 0 0 9.605-9.292zm-5.914 0a3.588 3.588 0 0 1-3.763 3.571h-3.071V46.59h3.071a3.565 3.565 0 0 1 3.768 3.571zm11.367 17.931h17.279v-5.836H707.69V57.38h8.87v-5.836h-8.87v-4.877h11.174v-5.836h-17.279v27.261zm-659.7 40.8h6.105V81.63h-6.101v27.261zm18.316 0h6.143V87.466h7.031V81.63H53.25v5.836h6.95v21.425zm12.749 0h6.374l2.419-5.759h11.293l2.419 5.759h6.374L90.151 81.63h-5.529zm11.02-11.058l3.417-8.217 3.418 8.216h-6.831zm22.235 11.057h17.4v-5.836h-11.292V81.63H106.2v27.261zm22.733 0h6.1V81.63h-6.1v27.261zm10.483 0h6.374l2.419-5.759H159.5l2.419 5.759h6.374L156.621 81.63h-5.53zm11.02-11.058l3.417-8.217 3.417 8.217h-6.834zm46.885 11.058V81.63h-6.141v16.817L177.933 81.63h-5.26v27.261h6.1V92.035l13.285 16.856h5.261zm31.373-5.8l7.948-11.019v16.817h6.143V81.63h-5.567L228.7 93.379l-8.528-11.749h-5.567v27.261h6.105V92.074zm33.945 6.259a14.091 14.091 0 1 0-14.089-14.089 14.126 14.126 0 0 0 14.092 14.091zm0-5.913a8.183 8.183 0 1 1 7.91-8.178 8.088 8.088 0 0 1-7.907 8.18zm23.731 5.452h6.144V87.466h7.027V81.63h-20.118v5.836h6.95v21.425zm18.432 0h6.106V81.63h-6.106v27.261zm25.958.461a14.091 14.091 0 1 0-14.092-14.092 14.125 14.125 0 0 0 14.095 14.094zm0-5.913a8.183 8.183 0 1 1 7.909-8.178 8.089 8.089 0 0 1-7.906 8.18zm44.5 5.452V81.63h-6.144v16.817l-13.24-16.817h-5.26v27.261h6.105V92.035l13.285 16.856h5.261zm6.644-10.866H393.2V92.5h-11.289v5.529zm26.073 11.327c5.76 0 9.714-3.456 9.753-8.409.038-4.108-2.534-6.719-6.489-8.14l-1.92-.691c-2.88-1.037-4.224-1.689-4.224-3.148 0-1.421 1.651-2.073 3.3-2.073a6.064 6.064 0 0 1 4.723 2.265l3.993-4.224a11.373 11.373 0 0 0-8.792-3.763c-5.453 0-9.408 3.11-9.408 8.409 0 3.724 2.458 6.374 6.873 7.871l1.92.653c2.726.921 3.8 1.881 3.8 3.264 0 1.305-1.268 2.265-3.3 2.265a7.132 7.132 0 0 1-5.644-3.11l-4.685 3.955a11.956 11.956 0 0 0 10.107 4.878zm20.045-.461h6.143V87.466h7.035V81.63h-20.12v5.836h6.95v21.425zm18.432 0h6.1V97.641h1l9.062 11.25h7.334l-9.638-12.018c3.456-1.229 5.337-3.494 5.337-7.026a8.049 8.049 0 0 0-8.447-8.217h-10.741v27.261zm6.1-16.433v-5.22h3.917c1.8 0 3.11.96 3.11 2.611 0 1.574-1.306 2.611-3.11 2.611h-3.917zm20.851 16.433H490.7v-5.836h-11.178v-4.874h8.87v-5.837h-8.87v-4.876H490.7V81.63h-17.283v27.261zm28.377 0h6.144V87.466h7.027V81.63h-20.109v5.836h6.95v21.425zm29.952.461a14.094 14.094 0 0 0 12.748-7.449l-5.376-2.918a8.179 8.179 0 1 1 0-7.449l5.376-2.918a14.213 14.213 0 1 0-12.736 20.736zm17.857-.461h6.105V98.1h10.981v10.789h6.106V81.63h-6.106V92.3h-10.969V81.63H549.6v27.261zm48.613.461c5.759 0 9.714-3.456 9.753-8.409.038-4.108-2.534-6.719-6.489-8.14l-1.92-.691c-2.88-1.037-4.224-1.689-4.224-3.148 0-1.421 1.651-2.073 3.3-2.073a6.064 6.064 0 0 1 4.723 2.265l3.993-4.224a11.374 11.374 0 0 0-8.793-3.763c-5.452 0-9.407 3.11-9.407 8.409 0 3.724 2.458 6.374 6.873 7.871l1.92.653c2.726.921 3.8 1.881 3.8 3.264 0 1.305-1.267 2.265-3.3 2.265a7.132 7.132 0 0 1-5.644-3.11l-4.685 3.955a11.956 11.956 0 0 0 10.112 4.878zm26.418 0c6.528 0 11.212-4.454 11.212-11.25V81.63h-6.105v16.549c0 3.263-2.073 5.26-5.107 5.26s-5.106-2-5.106-5.26V81.63h-6.106V98.1c.012 6.8 4.659 11.252 11.224 11.252zm18.2-.461h6.105V81.63h-6.105v27.261zm18.316 0h6.162V87.466h7.027V81.63H654.2v5.836h6.949v21.425zM41.486 142.49h2.456v-18.746h-2.456v18.746zm15.524-.185v-2.033a5 5 0 0 1-1.611.264c-1.426 0-2.191-.554-2.191-2.244v-6.917h3.8v-2.086h-3.8v-3.67h-2.271v3.67h-2.8v2.086h2.8v7.208a3.716 3.716 0 0 0 4.04 4.039 6.313 6.313 0 0 0 2.033-.317zm3.009-6.415a6.606 6.606 0 0 0 6.469 6.864 5.788 5.788 0 0 0 4.647-2.3v2.033h2.271v-13.2h-2.271v2.033a5.788 5.788 0 0 0-4.647-2.3 6.606 6.606 0 0 0-6.469 6.87zm11.3 0a4.51 4.51 0 1 1-4.489-4.779 4.508 4.508 0 0 1 4.489 4.779zm7.681 6.6h2.271v-19.8H79v19.8zm10.639-18.35a1.594 1.594 0 0 0-1.584-1.61 1.64 1.64 0 0 0-1.637 1.61 1.623 1.623 0 0 0 1.637 1.611 1.578 1.578 0 0 0 1.584-1.611zm-2.746 18.35h2.271v-13.2h-2.271v13.2zm6.864-6.6a6.606 6.606 0 0 0 6.469 6.864 5.787 5.787 0 0 0 4.647-2.3v2.033h2.271v-13.2h-2.271v2.033a5.787 5.787 0 0 0-4.647-2.3 6.606 6.606 0 0 0-6.469 6.87zm11.3 0a4.51 4.51 0 1 1-4.489-4.779 4.508 4.508 0 0 1 4.49 4.779zm7.681 6.6h2.27v-6.548c0-3.089 1.69-4.831 3.829-4.831 1.848 0 3.116 1.373 3.116 3.59v7.789h2.247v-8.132c0-3.274-2.033-5.333-4.99-5.333a4.669 4.669 0 0 0-4.2 2.3v-2.033h-2.27v13.2zm35.35 0h2.012l4.489-13.2h-2.4l-3.195 9.637-3.3-9.637h-1.743l-3.3 9.637-3.195-9.637h-2.377l4.489 13.2h2.007l3.274-9.5zm22.968-6.6a6.9 6.9 0 1 0-6.891 6.864 6.774 6.774 0 0 0 6.892-6.864zm-11.485 0a4.584 4.584 0 1 1 4.594 4.752 4.537 4.537 0 0 1-4.593-4.752zm28.8 0a6.9 6.9 0 1 0-6.891 6.864 6.774 6.774 0 0 0 6.895-6.864zm-11.485 0a4.584 4.584 0 1 1 4.594 4.752 4.537 4.537 0 0 1-4.59-4.752zm16.05 6.6h2.271v-19.8h-2.267v19.8zm10.719-.581a2.258 2.258 0 0 0 .37-1.188 1.954 1.954 0 1 0-3.908 0 1.966 1.966 0 0 0 1.082 1.769l-1.769 3.776h1.5zm15.285-1.452a5.787 5.787 0 0 0 4.647 2.3 6.877 6.877 0 0 0 0-13.729 5.787 5.787 0 0 0-4.647 2.3v-8.634h-2.271v19.8h2.271v-2.033zm8.793-4.567a4.5 4.5 0 1 1-4.489-4.779 4.508 4.508 0 0 1 4.493 4.779zm9.766 4.831a1.954 1.954 0 1 0-1.954 1.981 1.989 1.989 0 0 0 1.955-1.981zm23.901-.421h-9.347c.449-2.165 2.641-3.248 4.806-4.832 3.063-2.218 4.33-3.8 4.33-6.548 0-3.644-2.667-5.492-5.782-5.492-3.459 0-6.179 2.324-6.179 5.915h2.324a3.62 3.62 0 0 1 3.881-3.7 3.17 3.17 0 0 1 3.432 3.248c0 2.191-1.161 3.168-3.326 4.779-2.773 2.059-6.285 3.907-6.285 7.921v.9H261.4V140.3zm17.477-4.594v-5.228c0-4.145-2.8-7.05-6.654-7.05s-6.627 2.9-6.627 7.05v5.228c0 4.171 2.772 7.049 6.627 7.049s6.65-2.879 6.65-7.05zm-11.01 0v-5.228c0-3.036 1.822-4.832 4.356-4.832 2.562 0 4.383 1.8 4.383 4.832v5.228c0 3.036-1.821 4.831-4.383 4.831-2.538-.001-4.36-1.796-4.36-4.832zm17.687 6.785h2.271v-18.747h-4.04l-1.848 2.244h3.617v16.5zm19.907-5.624a5.239 5.239 0 0 0-2.93-4.911 4.388 4.388 0 0 0 1.9-3.7c0-2.8-2.165-4.832-5.255-4.832-3.01 0-5.28 2.033-5.28 4.832a4.37 4.37 0 0 0 1.953 3.7 5.24 5.24 0 0 0-2.983 4.911c0 3.406 2.64 5.888 6.31 5.888 3.724-.001 6.281-2.483 6.281-5.889zm-9.32-8.554a2.79 2.79 0 0 1 3.036-2.746 2.739 2.739 0 0 1 3.01 2.746 2.8 2.8 0 0 1-3.01 2.772 2.856 2.856 0 0 1-3.04-2.773zm-.977 8.554a3.722 3.722 0 0 1 4.013-3.749 3.744 3.744 0 1 1 0 7.472 3.731 3.731 0 0 1-4.017-3.724zm23.047 8.529h2.086v-21.652h-2.086V145.4zm16.05-2.905h11.512v-2.323h-9.056v-16.424h-2.456v18.746zm18.164-18.35a1.594 1.594 0 0 0-1.584-1.61 1.639 1.639 0 0 0-1.637 1.61 1.623 1.623 0 0 0 1.637 1.611 1.579 1.579 0 0 0 1.58-1.612zm-2.746 18.35h2.271v-13.2h-2.271v13.2zm7.893 0h2.271v-6.548c0-2.983 1.5-4.831 3.644-4.831 1.716 0 2.587 1.478 2.587 3.617v7.762h2.271v-6.548c0-2.983 1.479-4.831 3.617-4.831 1.717 0 2.614 1.478 2.614 3.617v7.762h2.271v-8.105c0-3.222-1.743-5.36-4.621-5.36a4.568 4.568 0 0 0-4.33 2.825 4.149 4.149 0 0 0-4.066-2.825 4.437 4.437 0 0 0-3.987 2.3v-2.033h-2.271v13.2zM385 124.14a1.594 1.594 0 0 0-1.584-1.61 1.639 1.639 0 0 0-1.637 1.61 1.623 1.623 0 0 0 1.637 1.611A1.578 1.578 0 0 0 385 124.14zm-2.746 18.35h2.271v-13.2h-2.271v13.2zm15.049-.185v-2.033a5.006 5.006 0 0 1-1.611.264c-1.426 0-2.191-.554-2.191-2.244v-6.917h3.8v-2.086h-3.8v-3.67h-2.271v3.67h-2.8v2.086h2.8v7.208a3.716 3.716 0 0 0 4.04 4.039 6.317 6.317 0 0 0 2.03-.317zm3.009-6.415a6.96 6.96 0 0 0 12.779 3.722l-1.8-1.241a4.674 4.674 0 0 1-8.687-2.033h10.825a6.285 6.285 0 0 0 .027-.686c-.027-4.225-2.826-6.627-6.284-6.627a6.69 6.69 0 0 0-6.862 6.865zm6.785-4.859a3.95 3.95 0 0 1 4.04 3.459h-8.37a4.317 4.317 0 0 1 4.333-3.459zm9.873 4.859a6.606 6.606 0 0 0 6.469 6.864 5.789 5.789 0 0 0 4.647-2.3v2.033h2.271v-19.8h-2.271v8.634a5.789 5.789 0 0 0-4.647-2.3 6.606 6.606 0 0 0-6.471 6.869zm11.3 0a4.51 4.51 0 1 1-4.489-4.779 4.508 4.508 0 0 1 4.488 4.779zm14.412 0a6.606 6.606 0 0 0 6.469 6.864 5.789 5.789 0 0 0 4.647-2.3v2.033h2.271v-13.2H453.8v2.033a5.789 5.789 0 0 0-4.647-2.3 6.606 6.606 0 0 0-6.472 6.87zm11.3 0a4.51 4.51 0 1 1-4.489-4.779 4.508 4.508 0 0 1 4.489 4.779zm11.8 6.6h1.9l6.1-13.2h-2.535l-4.515 9.98-4.515-9.98h-2.535zm10.322-6.6a6.606 6.606 0 0 0 6.469 6.864 5.789 5.789 0 0 0 4.647-2.3v2.033h2.271v-13.2h-2.271v2.033a5.789 5.789 0 0 0-4.647-2.3 6.606 6.606 0 0 0-6.473 6.87zm11.3 0a4.51 4.51 0 1 1-4.489-4.779 4.508 4.508 0 0 1 4.485 4.779zm10.426-11.75a1.594 1.594 0 0 0-1.584-1.61 1.639 1.639 0 0 0-1.637 1.61 1.623 1.623 0 0 0 1.637 1.611 1.578 1.578 0 0 0 1.584-1.611zm-2.746 18.35h2.271v-13.2h-2.271v13.2zm7.894 0h2.27v-19.8h-2.27v19.8zm6.863-6.6a6.606 6.606 0 0 0 6.469 6.864 5.786 5.786 0 0 0 4.647-2.3v2.033h2.271v-13.2h-2.271v2.033a5.786 5.786 0 0 0-4.647-2.3 6.606 6.606 0 0 0-6.469 6.87zm11.3 0a4.51 4.51 0 1 1-4.488-4.779 4.508 4.508 0 0 1 4.489 4.779zm9.952 4.567a5.786 5.786 0 0 0 4.647 2.3 6.877 6.877 0 0 0 0-13.729 5.786 5.786 0 0 0-4.647 2.3v-8.634h-2.271v19.8h2.271v-2.033zm8.792-4.567a4.5 4.5 0 1 1-4.489-4.779 4.508 4.508 0 0 1 4.49 4.779zm9.635-11.75a1.6 1.6 0 0 0-1.585-1.61 1.64 1.64 0 0 0-1.637 1.61 1.623 1.623 0 0 0 1.637 1.611 1.579 1.579 0 0 0 1.586-1.611zm-2.746 18.35h2.27v-13.2h-2.27v13.2zm7.893 0h2.271v-19.8h-2.271v19.8zm10.639-18.35a1.594 1.594 0 0 0-1.584-1.61 1.639 1.639 0 0 0-1.637 1.61 1.623 1.623 0 0 0 1.637 1.611 1.578 1.578 0 0 0 1.585-1.611zm-2.746 18.35h2.271v-13.2h-2.271v13.2zm15.049-.185v-2.033a5 5 0 0 1-1.61.264c-1.426 0-2.192-.554-2.192-2.244v-6.917h3.8v-2.086h-3.8v-3.67h-2.271v3.67h-2.8v2.086h2.8v7.208a3.716 3.716 0 0 0 4.04 4.039 6.308 6.308 0 0 0 2.034-.317zm7.735 5.7l8.66-18.72h-2.534l-4.515 10.015-4.541-10.007h-2.508l5.782 12.515-2.878 6.2h2.535zm14.1-7.288a1.954 1.954 0 1 0-1.954 1.981 1.989 1.989 0 0 0 1.952-1.977zM54.535 195.289h1.992l4.657-17.043h-2.328l-3.577 13.3-4.921-13.586-4.9 13.586-3.577-13.3h-2.325l4.657 17.043h1.992l4.177-11.57zm8.685-6a6.328 6.328 0 0 0 11.619 3.384l-1.632-1.128a4.249 4.249 0 0 1-7.9-1.848h9.843a5.856 5.856 0 0 0 .024-.624c-.024-3.841-2.569-6.025-5.713-6.025a6.082 6.082 0 0 0-6.241 6.24zm6.169-4.417a3.591 3.591 0 0 1 3.673 3.145h-7.61a3.924 3.924 0 0 1 3.937-3.146zm16.966 15.435h2.065v-6.865a5.264 5.264 0 0 0 4.225 2.088 6.252 6.252 0 0 0 0-12.482 5.264 5.264 0 0 0-4.225 2.088v-1.848h-2.064v17.019zm10.058-11.018a4.089 4.089 0 1 1-4.081-4.345 4.1 4.1 0 0 1 4.082 4.344zm5.349 0a6.007 6.007 0 0 0 5.882 6.241 5.262 5.262 0 0 0 4.224-2.088v1.848h2.065v-12h-2.065v1.848a5.262 5.262 0 0 0-4.224-2.088 6.006 6.006 0 0 0-5.881 6.238zm10.275 0a4.1 4.1 0 1 1-4.081-4.345 4.1 4.1 0 0 1 4.082 4.344zm6.981 6h2.065v-5.953c0-2.809 1.656-4.129 3.168-4.129a3.022 3.022 0 0 1 1.129.192v-2.136a4.285 4.285 0 0 0-.937-.1 3.57 3.57 0 0 0-3.36 2.448v-2.328h-2.065v12zm16.49-.168v-1.848a4.568 4.568 0 0 1-1.465.24c-1.3 0-1.992-.5-1.992-2.041v-6.289h3.457v-1.9h-3.457v-3.333h-2.065v3.337h-2.544v1.9h2.544v6.553a3.379 3.379 0 0 0 3.673 3.673 5.754 5.754 0 0 0 1.85-.292zm3.838.168h2.065v-5.953c0-2.809 1.536-4.393 3.48-4.393 1.681 0 2.833 1.248 2.833 3.265v7.081h2.04V187.9c0-2.977-1.848-4.849-4.537-4.849a4.243 4.243 0 0 0-3.816 2.088v-1.848h-2.065v12zm14.4-6a6.327 6.327 0 0 0 11.618 3.384l-1.632-1.128a4.25 4.25 0 0 1-7.9-1.848h9.842a5.856 5.856 0 0 0 .024-.624c-.024-3.841-2.568-6.025-5.713-6.025a6.081 6.081 0 0 0-6.238 6.24zm6.169-4.417a3.591 3.591 0 0 1 3.673 3.145h-7.61a3.924 3.924 0 0 1 3.938-3.146zm9.911 10.418h2.064v-5.953c0-2.809 1.657-4.129 3.169-4.129a3.017 3.017 0 0 1 1.128.192v-2.136a4.276 4.276 0 0 0-.936-.1 3.571 3.571 0 0 0-3.361 2.448v-2.328h-2.064v12zm26.186 0h1.824l4.081-12h-2.184l-2.905 8.761-3-8.761h-1.584l-3 8.761-2.9-8.761h-2.161l4.081 12h1.825l2.976-8.642zm11.83-16.683a1.449 1.449 0 0 0-1.44-1.464 1.491 1.491 0 0 0-1.489 1.464 1.475 1.475 0 0 0 1.489 1.464 1.434 1.434 0 0 0 1.441-1.465zm-2.5 16.683h2.065v-12h-2.065v12zm13.682-.168v-1.848a4.568 4.568 0 0 1-1.465.24c-1.3 0-1.992-.5-1.992-2.041v-6.289h3.457v-1.9h-3.457v-3.334h-2.065v3.337h-2.544v1.9h2.544v6.553a3.379 3.379 0 0 0 3.673 3.673 5.749 5.749 0 0 0 1.853-.292zm3.838.168h2.065v-5.953c0-2.809 1.536-4.393 3.48-4.393 1.681 0 2.833 1.248 2.833 3.265v7.081h2.04v-7.39c0-2.977-1.848-4.849-4.537-4.849a4.243 4.243 0 0 0-3.816 2.088v-7.849h-2.065v18zm28.489-.168v-1.848a4.562 4.562 0 0 1-1.464.24c-1.3 0-1.993-.5-1.993-2.041v-6.289h3.457v-1.9H247.9v-3.334h-2.064v3.337h-2.545v1.9h2.545v6.553a3.378 3.378 0 0 0 3.673 3.673 5.743 5.743 0 0 0 1.846-.292zm3.839.168h2.064v-5.953c0-2.809 1.536-4.393 3.481-4.393 1.68 0 2.832 1.248 2.832 3.265v7.081h2.041v-7.39c0-2.977-1.849-4.849-4.537-4.849a4.244 4.244 0 0 0-3.817 2.088v-7.849h-2.064v18zm14.4-6a6.328 6.328 0 0 0 11.619 3.384l-1.633-1.128a4.249 4.249 0 0 1-7.9-1.848h9.842a5.856 5.856 0 0 0 .024-.624c-.024-3.841-2.569-6.025-5.714-6.025a6.082 6.082 0 0 0-6.235 6.239zm6.169-4.417a3.591 3.591 0 0 1 3.673 3.145h-7.609a3.923 3.923 0 0 1 3.939-3.147zm19.031 8.57a5.264 5.264 0 0 0 4.225 2.088 6.252 6.252 0 0 0 0-12.482 5.264 5.264 0 0 0-4.225 2.088v-7.849h-2.064v18h2.064v-1.848zm7.994-4.153a4.089 4.089 0 1 1-4.081-4.345 4.1 4.1 0 0 1 4.084 4.343zm5.325 0a6.328 6.328 0 0 0 11.619 3.384l-1.632-1.128a4.25 4.25 0 0 1-7.9-1.848h9.842a5.856 5.856 0 0 0 .024-.624c-.024-3.841-2.569-6.025-5.713-6.025a6.082 6.082 0 0 0-6.237 6.239zm6.17-4.417a3.592 3.592 0 0 1 3.673 3.145h-7.61a3.923 3.923 0 0 1 3.94-3.147zm17.688 7.081c0-1.8-1.128-2.952-3.169-3.624l-1.3-.432c-1.416-.457-1.848-.913-1.848-1.681 0-.888.888-1.392 2.016-1.392a3.244 3.244 0 0 1 2.545 1.248l1.344-1.3a4.654 4.654 0 0 0-3.841-1.728c-2.376 0-4.057 1.32-4.057 3.264 0 1.681 1.033 2.857 2.977 3.481l1.176.384c1.561.5 2.137 1.08 2.137 1.92 0 1.033-.937 1.633-2.113 1.633a3.22 3.22 0 0 1-3.072-1.9l-1.681.912a4.767 4.767 0 0 0 4.7 2.785c2.437.005 4.189-1.219 4.189-3.572zm10.512 3.169v-1.848a4.564 4.564 0 0 1-1.465.24c-1.3 0-1.992-.5-1.992-2.041v-6.289h3.457v-1.9h-3.457v-3.335h-2.064v3.337h-2.545v1.9h2.545v6.553a3.378 3.378 0 0 0 3.672 3.673 5.749 5.749 0 0 0 1.852-.292zm10.894.168h2.064v-5.953c0-2.713 1.369-4.393 3.313-4.393 1.56 0 2.353 1.344 2.353 3.289v7.057h2.064v-5.953c0-2.713 1.344-4.393 3.289-4.393 1.56 0 2.376 1.344 2.376 3.289v7.057h2.068v-7.371c0-2.929-1.585-4.873-4.2-4.873a4.153 4.153 0 0 0-3.937 2.568 3.773 3.773 0 0 0-3.7-2.568 4.036 4.036 0 0 0-3.625 2.088v-1.848h-2.064v12zm24.936-16.683a1.449 1.449 0 0 0-1.44-1.464 1.491 1.491 0 0 0-1.488 1.464 1.475 1.475 0 0 0 1.488 1.464 1.434 1.434 0 0 0 1.443-1.466zm-2.5 16.683h2.064v-12h-2.064v12zm7.176 0h2.064v-18h-2.064v18zm7.176 0h2.064v-18h-2.064v18zm14.953-3.337c0-1.8-1.128-2.952-3.169-3.624l-1.3-.432c-1.416-.457-1.848-.913-1.848-1.681 0-.888.888-1.392 2.016-1.392a3.246 3.246 0 0 1 2.545 1.248l1.344-1.3a4.656 4.656 0 0 0-3.841-1.728c-2.376 0-4.057 1.32-4.057 3.264 0 1.681 1.032 2.857 2.977 3.481l1.176.384c1.56.5 2.137 1.08 2.137 1.92 0 1.033-.937 1.633-2.113 1.633a3.222 3.222 0 0 1-3.073-1.9l-1.68.912a4.767 4.767 0 0 0 4.705 2.785c2.436.005 4.188-1.219 4.188-3.572zm17.3 3.169v-1.848a4.562 4.562 0 0 1-1.464.24c-1.3 0-1.992-.5-1.992-2.041v-6.289h3.456v-1.9h-3.456v-3.335H416.9v3.337h-2.544v1.9h2.544v6.553a3.378 3.378 0 0 0 3.673 3.673 5.743 5.743 0 0 0 1.851-.292zm15.266-5.833a6.278 6.278 0 1 0-6.266 6.241 6.159 6.159 0 0 0 6.276-6.243zm-10.443 0a4.168 4.168 0 1 1 4.177 4.321 4.126 4.126 0 0 1-4.167-4.323zm29.425 2.664c0-1.8-1.128-2.952-3.169-3.624l-1.3-.432c-1.416-.457-1.848-.913-1.848-1.681 0-.888.888-1.392 2.016-1.392a3.244 3.244 0 0 1 2.545 1.248l1.344-1.3a4.654 4.654 0 0 0-3.841-1.728c-2.376 0-4.057 1.32-4.057 3.264 0 1.681 1.033 2.857 2.977 3.481l1.176.384c1.561.5 2.137 1.08 2.137 1.92 0 1.033-.937 1.633-2.113 1.633a3.22 3.22 0 0 1-3.072-1.9l-1.681.912a4.767 4.767 0 0 0 4.7 2.785c2.444.005 4.196-1.219 4.196-3.572zm15.745-2.664a6.278 6.278 0 1 0-6.266 6.241 6.159 6.159 0 0 0 6.276-6.243zm-10.442 0a4.167 4.167 0 1 1 4.176 4.321 4.125 4.125 0 0 1-4.166-4.323zm14.423 1.368c0 2.977 1.776 4.873 4.417 4.873a4.131 4.131 0 0 0 3.7-2.088v1.848h2.064v-12h-2.064v5.953c0 2.76-1.465 4.393-3.337 4.393-1.656 0-2.713-1.273-2.713-3.289v-7.057H476.4v7.369zm15.264 4.633h2.064v-5.953c0-2.809 1.657-4.129 3.169-4.129a3.017 3.017 0 0 1 1.128.192v-2.136a4.276 4.276 0 0 0-.936-.1 3.571 3.571 0 0 0-3.361 2.448v-2.328h-2.064v12zm20.45-2.977l-1.8-1.008a4.069 4.069 0 0 1-3.745 2.305 4.323 4.323 0 0 1 0-8.642 4.068 4.068 0 0 1 3.745 2.3l1.8-1.008a6.215 6.215 0 0 0-5.545-3.216 6.241 6.241 0 1 0 0 12.482 6.214 6.214 0 0 0 5.555-3.215zm2.925-3.024a6.328 6.328 0 0 0 11.619 3.384l-1.632-1.128a4.25 4.25 0 0 1-7.9-1.848h9.842a5.856 5.856 0 0 0 .024-.624c-.024-3.841-2.568-6.025-5.713-6.025a6.082 6.082 0 0 0-6.23 6.239zm6.17-4.417a3.591 3.591 0 0 1 3.673 3.145h-7.61a3.923 3.923 0 0 1 3.947-3.147zm23.064 10.25v-1.848a4.568 4.568 0 0 1-1.465.24c-1.3 0-1.992-.5-1.992-2.041v-6.289h3.457v-1.9h-3.457v-3.335h-2.054v3.337h-2.545v1.9h2.545v6.553a3.378 3.378 0 0 0 3.672 3.673 5.749 5.749 0 0 0 1.849-.292zm3.838.168h2.065v-5.953c0-2.809 1.536-4.393 3.48-4.393 1.681 0 2.833 1.248 2.833 3.265v7.081h2.04V187.9c0-2.977-1.848-4.849-4.537-4.849a4.243 4.243 0 0 0-3.816 2.088v-7.849h-2.065v18zm14.4-6a6.327 6.327 0 0 0 11.618 3.384l-1.632-1.128a4.25 4.25 0 0 1-7.9-1.848h9.842a5.856 5.856 0 0 0 .024-.624c-.024-3.841-2.568-6.025-5.713-6.025a6.081 6.081 0 0 0-6.229 6.238zm6.169-4.417a3.591 3.591 0 0 1 3.673 3.145h-7.61a3.924 3.924 0 0 1 3.947-3.148zm17.663 10.418h2.065v-10.109h3.48v-1.9h-3.48v-2.209c0-1.512.672-2.04 1.992-2.04a4.833 4.833 0 0 1 1.488.24v-1.824a5.454 5.454 0 0 0-1.872-.312 3.427 3.427 0 0 0-3.673 3.72v2.425H583.8v1.9h2.544v10.106zm10.3-16.683a1.449 1.449 0 0 0-1.44-1.464 1.491 1.491 0 0 0-1.488 1.464 1.475 1.475 0 0 0 1.488 1.464 1.434 1.434 0 0 0 1.448-1.467zm-2.5 16.683h2.064v-12h-2.064v12zm7.15 0h2.064v-5.953c0-2.809 1.536-4.393 3.481-4.393 1.68 0 2.832 1.248 2.832 3.265v7.081h2.041V187.9c0-2.977-1.849-4.849-4.537-4.849a4.245 4.245 0 0 0-3.817 2.088v-1.848h-2.064v12zm14.4-6a6.328 6.328 0 0 0 11.619 3.384l-1.633-1.128a4.249 4.249 0 0 1-7.9-1.848h9.842a5.856 5.856 0 0 0 .024-.624c-.024-3.841-2.569-6.025-5.713-6.025a6.082 6.082 0 0 0-6.228 6.237zm6.169-4.417a3.591 3.591 0 0 1 3.673 3.145h-7.609a3.923 3.923 0 0 1 3.947-3.149zm17.689 7.081c0-1.8-1.128-2.952-3.169-3.624l-1.3-.432c-1.416-.457-1.848-.913-1.848-1.681 0-.888.888-1.392 2.016-1.392a3.246 3.246 0 0 1 2.545 1.248l1.344-1.3a4.656 4.656 0 0 0-3.841-1.728c-2.377 0-4.057 1.32-4.057 3.264 0 1.681 1.032 2.857 2.977 3.481l1.176.384c1.56.5 2.136 1.08 2.136 1.92 0 1.033-.936 1.633-2.112 1.633a3.221 3.221 0 0 1-3.073-1.9l-1.68.912a4.767 4.767 0 0 0 4.705 2.785c2.442.003 4.192-1.221 4.192-3.574zm10.511 3.169v-1.848a4.562 4.562 0 0 1-1.464.24c-1.3 0-1.992-.5-1.992-2.041v-6.289h3.456v-1.9h-3.456v-3.337h-2.054v3.337H642v1.9h2.544v6.553a3.379 3.379 0 0 0 3.673 3.673 5.743 5.743 0 0 0 1.844-.292zm-608.1 28.967h2.064v-10.11H47.5v-1.9h-3.479v-2.208c0-1.513.672-2.041 1.992-2.041a4.835 4.835 0 0 1 1.488.24v-1.824a5.456 5.456 0 0 0-1.872-.312 3.428 3.428 0 0 0-3.673 3.72v2.425h-2.544v1.9h2.544v10.106zm7.752-6a6.006 6.006 0 0 0 5.881 6.241 5.264 5.264 0 0 0 4.225-2.088v1.848h2.064v-12h-2.058v1.848a5.264 5.264 0 0 0-4.225-2.088 6.006 6.006 0 0 0-5.881 6.234zm10.274 0a4.1 4.1 0 1 1-4.081-4.345 4.1 4.1 0 0 1 4.087 4.34zm9.046 4.153a5.264 5.264 0 0 0 4.225 2.088 6.252 6.252 0 0 0 0-12.482 5.264 5.264 0 0 0-4.225 2.088v-7.849h-2.058v18h2.064v-1.85zm7.994-4.153a4.089 4.089 0 1 1-4.081-4.345 4.1 4.1 0 0 1 4.087 4.34zm6.262 6h2.064v-5.953c0-2.808 1.656-4.129 3.169-4.129a3.018 3.018 0 0 1 1.128.192v-2.136a4.279 4.279 0 0 0-.936-.1 3.571 3.571 0 0 0-3.361 2.448v-2.328h-2.058v12zm12.481-16.683a1.449 1.449 0 0 0-1.44-1.464 1.491 1.491 0 0 0-1.488 1.464 1.475 1.475 0 0 0 1.488 1.464 1.435 1.435 0 0 0 1.445-1.468zm-2.5 16.683h2.064v-12h-2.055v12zm18.074-2.976l-1.8-1.009a4.069 4.069 0 0 1-3.745 2.3 4.323 4.323 0 0 1 0-8.642 4.069 4.069 0 0 1 3.745 2.305l1.8-1.008a6.215 6.215 0 0 0-5.545-3.217 6.241 6.241 0 1 0 0 12.482 6.216 6.216 0 0 0 5.554-3.215zm11.639-.36c0-1.8-1.128-2.953-3.169-3.625l-1.3-.432c-1.416-.456-1.848-.912-1.848-1.681 0-.888.888-1.392 2.016-1.392a3.246 3.246 0 0 1 2.545 1.248l1.344-1.3a4.656 4.656 0 0 0-3.841-1.728c-2.376 0-4.057 1.32-4.057 3.265 0 1.68 1.032 2.856 2.977 3.48l1.176.384c1.56.5 2.137 1.08 2.137 1.921 0 1.032-.937 1.632-2.113 1.632a3.223 3.223 0 0 1-3.073-1.9l-1.68.912a4.768 4.768 0 0 0 4.7 2.784c2.443.004 4.195-1.224 4.195-3.572zm20.952 3.336h1.825l4.08-12h-2.184l-2.905 8.762-3-8.762h-1.585l-3 8.762-2.905-8.762h-2.15l4.081 12H138l2.977-8.641zm11.83-16.683a1.449 1.449 0 0 0-1.44-1.464 1.491 1.491 0 0 0-1.488 1.464 1.475 1.475 0 0 0 1.488 1.464 1.434 1.434 0 0 0 1.449-1.468zm-2.5 16.683h2.064v-12h-2.064v12zm13.681-.168v-1.848a4.562 4.562 0 0 1-1.464.24c-1.3 0-1.993-.5-1.993-2.041v-6.289h3.457v-1.9h-3.457v-3.337h-2.064v3.337h-2.545v1.9h2.545v6.554a3.378 3.378 0 0 0 3.672 3.672 5.744 5.744 0 0 0 1.862-.292zm3.838.168h2.065v-5.953c0-2.808 1.536-4.393 3.481-4.393 1.68 0 2.832 1.248 2.832 3.265v7.081h2.041V216.7c0-2.977-1.849-4.849-4.537-4.849a4.244 4.244 0 0 0-3.817 2.088v-7.849h-2.065v18zm28.489-.168v-1.848a4.562 4.562 0 0 1-1.464.24c-1.3 0-1.992-.5-1.992-2.041v-6.289h3.456v-1.9h-3.456v-3.337h-2.065v3.337h-2.531v1.9h2.544v6.554a3.378 3.378 0 0 0 3.673 3.672 5.743 5.743 0 0 0 1.848-.292zm3.839.168h2.064v-5.953c0-2.808 1.537-4.393 3.481-4.393 1.68 0 2.833 1.248 2.833 3.265v7.081h2.04V216.7c0-2.977-1.848-4.849-4.537-4.849a4.245 4.245 0 0 0-3.817 2.088v-7.849h-2.064v18zm14.4-6a6.328 6.328 0 0 0 11.619 3.385l-1.632-1.129a4.25 4.25 0 0 1-7.9-1.848h9.842a5.856 5.856 0 0 0 .024-.624c-.024-3.841-2.569-6.025-5.713-6.025a6.082 6.082 0 0 0-6.228 6.236zm6.17-4.417a3.59 3.59 0 0 1 3.672 3.145h-7.609a3.923 3.923 0 0 1 3.949-3.15zm16.966 10.418h2.065v-18h-2.065v18zm6.24-6a6.005 6.005 0 0 0 5.881 6.241A5.264 5.264 0 0 0 257 222.24v1.848h2.064v-12H257v1.848a5.264 5.264 0 0 0-4.225-2.088 6.005 6.005 0 0 0-5.886 6.239zm10.274 0a4.1 4.1 0 1 1-4.081-4.345 4.1 4.1 0 0 1 4.093 4.339zm13.487 5.833v-1.848a4.562 4.562 0 0 1-1.464.24c-1.3 0-1.993-.5-1.993-2.041v-6.289h3.457v-1.9h-3.457v-3.337h-2.064v3.337h-2.545v1.9h2.545v6.554a3.378 3.378 0 0 0 3.673 3.672 5.743 5.743 0 0 0 1.86-.294zm2.735-5.833A6.328 6.328 0 0 0 285 221.472l-1.632-1.129a4.25 4.25 0 0 1-7.9-1.848h9.842a5.856 5.856 0 0 0 .024-.624c-.024-3.841-2.568-6.025-5.713-6.025a6.081 6.081 0 0 0-6.236 6.241zm6.169-4.417a3.591 3.591 0 0 1 3.673 3.145h-7.61a3.924 3.924 0 0 1 3.949-3.151zm17.688 7.082c0-1.8-1.128-2.953-3.168-3.625l-1.3-.432c-1.416-.456-1.848-.912-1.848-1.681 0-.888.888-1.392 2.016-1.392a3.243 3.243 0 0 1 2.545 1.248l1.344-1.3a4.654 4.654 0 0 0-3.84-1.728c-2.377 0-4.057 1.32-4.057 3.265 0 1.68 1.032 2.856 2.976 3.48l1.177.384c1.56.5 2.136 1.08 2.136 1.921 0 1.032-.936 1.632-2.112 1.632a3.221 3.221 0 0 1-3.073-1.9l-1.68.912a4.767 4.767 0 0 0 4.7 2.784c2.444.002 4.196-1.226 4.196-3.574zm10.512 3.168v-1.848a4.562 4.562 0 0 1-1.464.24c-1.3 0-1.993-.5-1.993-2.041v-6.289h3.457v-1.9H304.3v-3.337h-2.064v3.337h-2.545v1.9h2.545v6.554a3.378 3.378 0 0 0 3.673 3.672 5.743 5.743 0 0 0 1.845-.294zm13.391-16.515a1.45 1.45 0 0 0-1.441-1.464 1.491 1.491 0 0 0-1.488 1.464 1.475 1.475 0 0 0 1.488 1.464 1.435 1.435 0 0 0 1.453-1.47zm-2.5 16.683h2.065v-12h-2.065v12zm7.176 0h2.065v-5.953c0-2.808 1.536-4.393 3.48-4.393 1.681 0 2.833 1.248 2.833 3.265v7.081h2.04V216.7c0-2.977-1.848-4.849-4.537-4.849a4.243 4.243 0 0 0-3.816 2.088v-1.848h-2.065v12zm15.336 0h2.064v-5.953c0-2.808 1.537-4.393 3.481-4.393 1.68 0 2.833 1.248 2.833 3.265v7.081h2.04V216.7c0-2.977-1.848-4.849-4.537-4.849a4.245 4.245 0 0 0-3.817 2.088v-1.848h-2.049v12zm26.93-6a6.278 6.278 0 1 0-6.265 6.241 6.159 6.159 0 0 0 6.28-6.248zm-10.442 0a4.168 4.168 0 1 1 4.177 4.321 4.126 4.126 0 0 1-4.162-4.328zm18.072 6h1.729l5.545-12h-2.305l-4.1 9.074-4.1-9.074h-2.305zm9.383-6a6.006 6.006 0 0 0 5.882 6.241 5.262 5.262 0 0 0 4.224-2.088v1.848h2.065v-12h-2.065v1.848a5.262 5.262 0 0 0-4.224-2.088 6.006 6.006 0 0 0-5.87 6.232zm10.274 0a4.1 4.1 0 1 1-4.08-4.345 4.1 4.1 0 0 1 4.095 4.338zm13.488 5.833v-1.848a4.568 4.568 0 0 1-1.465.24c-1.3 0-1.992-.5-1.992-2.041v-6.289h3.457v-1.9h-3.457v-3.337h-2.065v3.337H400.8v1.9h2.544v6.554a3.379 3.379 0 0 0 3.673 3.672 5.749 5.749 0 0 0 1.848-.295zm6.335-16.515a1.45 1.45 0 0 0-1.441-1.464 1.491 1.491 0 0 0-1.488 1.464 1.475 1.475 0 0 0 1.488 1.464 1.435 1.435 0 0 0 1.456-1.471zm-2.5 16.683h2.065v-12h-2.05v12zm18.77-6a6.277 6.277 0 1 0-6.265 6.241 6.159 6.159 0 0 0 6.283-6.249zm-10.442 0a4.168 4.168 0 1 1 4.177 4.321 4.126 4.126 0 0 1-4.159-4.329zm14.592 6h2.064v-5.953c0-2.808 1.536-4.393 3.481-4.393 1.68 0 2.832 1.248 2.832 3.265v7.081h2.041V216.7c0-2.977-1.848-4.849-4.537-4.849a4.245 4.245 0 0 0-3.817 2.088v-1.848h-2.064v12zm18.192-1.608a1.777 1.777 0 1 0-1.776 1.8 1.808 1.808 0 0 0 1.794-1.807zm14.424 1.608h2.185v-14.938h5.305v-2.112h-12.777v2.112h5.3v14.931zm10.871 0h2.065v-5.953c0-2.808 1.536-4.393 3.48-4.393 1.681 0 2.833 1.248 2.833 3.265v7.081h2.041V216.7c0-2.977-1.849-4.849-4.537-4.849a4.244 4.244 0 0 0-3.817 2.088v-7.849h-2.047v18zm17.833-16.683a1.45 1.45 0 0 0-1.441-1.464 1.491 1.491 0 0 0-1.488 1.464 1.475 1.475 0 0 0 1.488 1.464 1.435 1.435 0 0 0 1.459-1.471zm-2.5 16.683h2.064v-12h-2.064v12zm14.954-3.336c0-1.8-1.129-2.953-3.169-3.625l-1.3-.432c-1.417-.456-1.849-.912-1.849-1.681 0-.888.888-1.392 2.017-1.392a3.242 3.242 0 0 1 2.544 1.248l1.344-1.3a4.654 4.654 0 0 0-3.84-1.728c-2.377 0-4.057 1.32-4.057 3.265 0 1.68 1.032 2.856 2.976 3.48l1.177.384c1.56.5 2.136 1.08 2.136 1.921 0 1.032-.936 1.632-2.112 1.632a3.221 3.221 0 0 1-3.073-1.9l-1.68.912a4.767 4.767 0 0 0 4.705 2.784c2.449.001 4.202-1.227 4.202-3.575zm11.517 3.336h2.233v-17.05h-2.233v17.043zm14.114-.168v-1.848a4.564 4.564 0 0 1-1.465.24c-1.3 0-1.992-.5-1.992-2.041v-6.289h3.457v-1.9h-3.457v-3.337h-2.043v3.337h-2.545v1.9h2.545v6.554a3.378 3.378 0 0 0 3.672 3.672 5.744 5.744 0 0 0 1.849-.295zm2.734-5.833a6.006 6.006 0 0 0 5.882 6.241 5.262 5.262 0 0 0 4.224-2.088v1.848h2.065v-12h-2.065v1.848a5.262 5.262 0 0 0-4.224-2.088 6.006 6.006 0 0 0-5.861 6.232zm10.275 0a4.1 4.1 0 1 1-4.081-4.345 4.1 4.1 0 0 1 4.102 4.338zm6.981 6h2.065v-18H555v18zm9.673-16.683a1.45 1.45 0 0 0-1.441-1.464 1.491 1.491 0 0 0-1.488 1.464 1.475 1.475 0 0 0 1.488 1.464 1.435 1.435 0 0 0 1.462-1.47zm-2.5 16.683h2.065v-12H562.2v12zm6.24-6a6.005 6.005 0 0 0 5.881 6.241 5.264 5.264 0 0 0 4.225-2.088v1.848h2.064v-12h-2.064v1.848a5.264 5.264 0 0 0-4.225-2.088 6.005 6.005 0 0 0-5.857 6.232zm10.274 0a4.1 4.1 0 1 1-4.081-4.345 4.1 4.1 0 0 1 4.105 4.338zm6.982 6h2.064v-5.953c0-2.808 1.536-4.393 3.481-4.393 1.68 0 2.832 1.248 2.832 3.265v7.081h2.041V216.7c0-2.977-1.848-4.849-4.537-4.849a4.245 4.245 0 0 0-3.817 2.088v-1.848h-2.064v12zM49.638 247.9l6.145-8.258v13.25h2.209v-17.048h-2.017l-6.337 8.5-6.337-8.5H41.26v17.043h2.233v-13.25zm25.153-1.009a6.277 6.277 0 1 0-6.265 6.241 6.16 6.16 0 0 0 6.265-6.246zm-10.442 0a4.168 4.168 0 1 1 4.177 4.321 4.125 4.125 0 0 1-4.178-4.326zm20.881 5.833v-1.848a4.564 4.564 0 0 1-1.464.24c-1.3 0-1.992-.5-1.992-2.04v-6.289h3.456v-1.9h-3.457v-3.336h-2.065v3.336h-2.544v1.9h2.544v6.553a3.378 3.378 0 0 0 3.673 3.672 5.745 5.745 0 0 0 1.849-.293zm6.335-16.524a1.45 1.45 0 0 0-1.44-1.464 1.465 1.465 0 1 0 0 2.929 1.436 1.436 0 0 0 1.44-1.465zm-2.5 16.683h2.064v-12h-2.061v12zm18.77-6a6.277 6.277 0 1 0-6.265 6.241 6.159 6.159 0 0 0 6.268-6.238zm-10.442 0a4.168 4.168 0 1 1 4.177 4.321 4.125 4.125 0 0 1-4.17-4.318zm14.592 6h2.064v-5.953c0-2.808 1.536-4.392 3.481-4.392 1.68 0 2.832 1.248 2.832 3.264v7.081h2.041v-7.393c0-2.976-1.849-4.849-4.537-4.849a4.244 4.244 0 0 0-3.817 2.089v-1.849h-2.064v12zm14.951-5.689h6.122v-2.064h-6.122v2.07zm9.288 2.905c.888 1.752 3.169 3.073 5.977 3.073 3.169 0 5.426-1.825 5.426-4.729 0-2.521-1.441-3.961-3.961-4.921l-2.065-.792c-1.728-.649-2.568-1.3-2.568-2.737 0-1.416 1.392-2.352 3.072-2.352a4.217 4.217 0 0 1 3.385 1.68l1.632-1.44a6.213 6.213 0 0 0-4.969-2.329c-3.048 0-5.329 1.753-5.329 4.537 0 2.328 1.2 3.721 3.865 4.705l2.257.864c1.584.6 2.448 1.512 2.448 2.881 0 1.584-1.392 2.544-3.145 2.544a4.764 4.764 0 0 1-4.225-2.328zm21.7 2.616v-1.848a4.568 4.568 0 0 1-1.465.24c-1.3 0-1.992-.5-1.992-2.04v-6.289h3.457v-1.9h-3.457v-3.336H152.4v3.336h-2.544v1.9h2.544v6.553a3.379 3.379 0 0 0 3.673 3.672 5.754 5.754 0 0 0 1.852-.284zm3.838.168h2.065v-5.953c0-2.808 1.656-4.128 3.168-4.128a3.017 3.017 0 0 1 1.128.192v-2.137a4.276 4.276 0 0 0-.936-.1 3.57 3.57 0 0 0-3.36 2.449v-2.329h-2.065v12zm8.616-6A6.328 6.328 0 0 0 182 250.271l-1.633-1.128a4.249 4.249 0 0 1-7.9-1.849h9.842a5.856 5.856 0 0 0 .024-.624c-.024-3.84-2.569-6.025-5.714-6.025a6.083 6.083 0 0 0-6.24 6.241zm6.169-4.417a3.591 3.591 0 0 1 3.673 3.145h-7.609a3.924 3.924 0 0 1 3.937-3.142zm16.249 10.25v-1.848a4.564 4.564 0 0 1-1.465.24c-1.3 0-1.992-.5-1.992-2.04v-6.289h3.461v-1.9h-3.46v-3.336h-2.064v3.336h-2.545v1.9h2.545v6.553a3.378 3.378 0 0 0 3.672 3.672 5.744 5.744 0 0 0 1.852-.285zm14.569-2.808l-1.8-1.008a4.07 4.07 0 0 1-3.745 2.3 4.322 4.322 0 0 1 0-8.641 4.07 4.07 0 0 1 3.745 2.3l1.8-1.008a6.215 6.215 0 0 0-5.545-3.217 6.241 6.241 0 1 0 0 12.482 6.216 6.216 0 0 0 5.546-3.205zm3.861 2.976h2.065v-5.953c0-2.808 1.536-4.392 3.48-4.392 1.681 0 2.833 1.248 2.833 3.264v7.081h2.041v-7.393c0-2.976-1.849-4.849-4.537-4.849a4.243 4.243 0 0 0-3.817 2.089v-7.85h-2.065v18zm35.427 0h1.992l4.657-17.043h-2.328l-3.577 13.3-4.921-13.587-4.9 13.587L234 235.844h-2.328l4.657 17.043h1.992l4.177-11.57zm21.215-6a6.278 6.278 0 1 0-6.265 6.241 6.159 6.159 0 0 0 6.266-6.239zm-10.442 0a4.168 4.168 0 1 1 4.177 4.321 4.125 4.125 0 0 1-4.176-4.319zm26.186 0a6.278 6.278 0 1 0-6.265 6.241 6.16 6.16 0 0 0 6.266-6.239zm-10.442 0a4.167 4.167 0 1 1 4.177 4.321 4.125 4.125 0 0 1-4.176-4.319zm14.591 6h2.065v-18h-2.065v18zm13.151-2.784c.889 1.752 3.169 3.073 5.978 3.073 3.168 0 5.425-1.825 5.425-4.729 0-2.521-1.44-3.961-3.961-4.921l-2.064-.792c-1.729-.649-2.569-1.3-2.569-2.737 0-1.416 1.392-2.352 3.073-2.352a4.217 4.217 0 0 1 3.384 1.68l1.633-1.44a6.215 6.215 0 0 0-4.969-2.329c-3.049 0-5.329 1.753-5.329 4.537 0 2.328 1.2 3.721 3.864 4.705l2.257.864c1.584.6 2.448 1.512 2.448 2.881 0 1.584-1.392 2.544-3.144 2.544a4.762 4.762 0 0 1-4.225-2.328zm15.36-1.848c0 2.976 1.777 4.872 4.417 4.872a4.129 4.129 0 0 0 3.7-2.088v1.848h2.064v-12h-2.064v5.953c0 2.761-1.464 4.393-3.337 4.393-1.656 0-2.712-1.272-2.712-3.288v-7.058h-2.065v7.37zm17.762-12.052a1.45 1.45 0 0 0-1.441-1.464 1.465 1.465 0 1 0 0 2.929 1.436 1.436 0 0 0 1.441-1.465zm-2.5 16.683h2.066v-12h-2.065v12zm13.681-.168v-1.848a4.562 4.562 0 0 1-1.464.24c-1.3 0-1.992-.5-1.992-2.04v-6.289h3.456v-1.9h-3.456v-3.336H339.7v3.336h-2.544v1.9h2.544v6.553a3.379 3.379 0 0 0 3.673 3.672 5.743 5.743 0 0 0 1.845-.284zm11.591.168h2.065v-10.1h3.48v-1.9h-3.48v-2.208c0-1.513.672-2.041 1.992-2.041a4.833 4.833 0 0 1 1.488.24v-1.824a5.454 5.454 0 0 0-1.872-.312 3.428 3.428 0 0 0-3.673 3.721v2.424h-2.544v1.9h2.544v10.1zm7.752-6a6.328 6.328 0 0 0 11.618 3.385l-1.632-1.128a4.25 4.25 0 0 1-7.9-1.849h9.842a5.856 5.856 0 0 0 .024-.624c-.024-3.84-2.568-6.025-5.713-6.025a6.082 6.082 0 0 0-6.236 6.244zm6.169-4.417a3.591 3.591 0 0 1 3.673 3.145h-7.61a3.925 3.925 0 0 1 3.94-3.142zm8.975 4.417a6.005 6.005 0 0 0 5.881 6.241 5.264 5.264 0 0 0 4.225-2.088v1.848h2.064v-12h-2.064v1.849a5.262 5.262 0 0 0-4.225-2.089 6.006 6.006 0 0 0-5.878 6.242zm10.274 0a4.1 4.1 0 1 1-4.081-4.344 4.1 4.1 0 0 1 4.084 4.347zm13.487 5.833v-1.848a4.562 4.562 0 0 1-1.464.24c-1.3 0-1.993-.5-1.993-2.04v-6.289h3.457v-1.9h-3.457v-3.336h-2.064v3.336H395.4v1.9h2.545v6.553a3.378 3.378 0 0 0 3.673 3.672 5.743 5.743 0 0 0 1.848-.285zm3.671-4.464c0 2.976 1.776 4.872 4.417 4.872a4.129 4.129 0 0 0 3.7-2.088v1.848h2.065v-12h-2.066v5.953c0 2.761-1.464 4.393-3.336 4.393-1.657 0-2.713-1.272-2.713-3.288v-7.058h-2.064v7.37zm15.264 4.632h2.064v-5.953c0-2.808 1.656-4.128 3.169-4.128a3.017 3.017 0 0 1 1.128.192v-2.137a4.276 4.276 0 0 0-.936-.1 3.57 3.57 0 0 0-3.361 2.449v-2.329H422.4v12zm8.615-6a6.328 6.328 0 0 0 11.619 3.385L441 249.143a4.25 4.25 0 0 1-7.9-1.849h9.842a5.856 5.856 0 0 0 .024-.624c-.024-3.84-2.569-6.025-5.713-6.025a6.083 6.083 0 0 0-6.237 6.241zm6.17-4.417a3.592 3.592 0 0 1 3.673 3.145h-7.61a3.924 3.924 0 0 1 3.94-3.143zm17.688 7.082c0-1.8-1.128-2.953-3.168-3.625l-1.3-.432c-1.416-.456-1.848-.912-1.848-1.68 0-.888.888-1.393 2.016-1.393a3.245 3.245 0 0 1 2.545 1.249l1.344-1.3a4.654 4.654 0 0 0-3.841-1.728c-2.376 0-4.057 1.32-4.057 3.265 0 1.68 1.033 2.856 2.977 3.48l1.176.384c1.561.5 2.137 1.081 2.137 1.921 0 1.032-.936 1.632-2.113 1.632a3.221 3.221 0 0 1-3.072-1.9l-1.681.912a4.768 4.768 0 0 0 4.7 2.784c2.436.009 4.188-1.218 4.188-3.567zm10.27-2.665a6.005 6.005 0 0 0 5.881 6.241 5.264 5.264 0 0 0 4.225-2.088v1.848h2.064v-12h-2.061v1.849a5.262 5.262 0 0 0-4.225-2.089 6.006 6.006 0 0 0-5.881 6.241zm10.274 0a4.1 4.1 0 1 1-4.081-4.344 4.1 4.1 0 0 1 4.084 4.346zm13.869 1.369c0 2.976 1.777 4.872 4.417 4.872a4.129 4.129 0 0 0 3.7-2.088v1.848h2.065v-12H497.4v5.953c0 2.761-1.464 4.393-3.337 4.393-1.656 0-2.712-1.272-2.712-3.288v-7.058h-2.065v7.37zm15.264 4.632h2.065v-5.953c0-2.808 1.536-4.392 3.481-4.392 1.68 0 2.832 1.248 2.832 3.264v7.081h2.041v-7.393c0-2.976-1.849-4.849-4.537-4.849a4.243 4.243 0 0 0-3.817 2.089v-1.849h-2.065v12zm17.836-16.685a1.45 1.45 0 0 0-1.441-1.464 1.465 1.465 0 1 0 0 2.929 1.436 1.436 0 0 0 1.441-1.465zm-2.5 16.683h2.065v-12h-2.065v12zm16.346 5.017h2.07v-17.015h-2.064v1.849a5.262 5.262 0 0 0-4.225-2.089 6.252 6.252 0 0 0 0 12.482 5.264 5.264 0 0 0 4.225-2.088v6.861zm.168-11.018a4.1 4.1 0 1 1-4.081-4.344 4.1 4.1 0 0 1 4.083 4.348zm6.814 1.369c0 2.976 1.776 4.872 4.417 4.872a4.129 4.129 0 0 0 3.7-2.088v1.848h2.065v-12h-2.065v5.953c0 2.761-1.464 4.393-3.336 4.393-1.657 0-2.713-1.272-2.713-3.288v-7.058h-2.064v7.37zm14.327-1.369a6.328 6.328 0 0 0 11.619 3.385l-1.633-1.128a4.249 4.249 0 0 1-7.9-1.849h9.842a5.856 5.856 0 0 0 .024-.624c-.024-3.84-2.569-6.025-5.713-6.025a6.083 6.083 0 0 0-6.236 6.245zm6.17-4.417a3.591 3.591 0 0 1 3.672 3.145h-7.609a3.924 3.924 0 0 1 3.94-3.141zm16.966 10.418h2.065v-6l6.5 6h2.785l-7.226-6.7 5.9-5.305h-2.736l-5.233 4.681v-10.675h-2.065v18zm14.136 0h2.064v-5.953c0-2.808 1.537-4.392 3.481-4.392 1.68 0 2.833 1.248 2.833 3.264v7.081h2.04v-7.393c0-2.976-1.848-4.849-4.537-4.849a4.244 4.244 0 0 0-3.817 2.089v-1.849h-2.064v12zm17.835-16.683a1.449 1.449 0 0 0-1.44-1.464 1.465 1.465 0 1 0 0 2.929 1.435 1.435 0 0 0 1.44-1.465zm-2.5 16.683h2.064v-12h-2.06v12zm13.681-.168v-1.848a4.564 4.564 0 0 1-1.465.24c-1.3 0-1.992-.5-1.992-2.04v-6.289h3.457v-1.9h-3.457v-3.336h-2.06v3.336h-2.545v1.9h2.545v6.553a3.378 3.378 0 0 0 3.672 3.672 5.744 5.744 0 0 0 1.849-.284zM41.956 281.687h2.064v-10.106h3.48v-1.9h-3.479v-2.208c0-1.512.672-2.04 1.992-2.04a4.835 4.835 0 0 1 1.488.24v-1.825a5.456 5.456 0 0 0-1.872-.312 3.428 3.428 0 0 0-3.673 3.721v2.424h-2.544v1.9h2.544v10.106zm7.752-6a6.006 6.006 0 0 0 5.881 6.241 5.262 5.262 0 0 0 4.225-2.089v1.849h2.064v-12h-2.064v1.849a5.265 5.265 0 0 0-4.225-2.089 6.007 6.007 0 0 0-5.881 6.238zm10.274 0a4.1 4.1 0 1 1-4.081-4.345 4.1 4.1 0 0 1 4.081 4.344zm9.046 4.152a5.262 5.262 0 0 0 4.225 2.089 6.253 6.253 0 0 0 0-12.483 5.265 5.265 0 0 0-4.225 2.089v-7.85h-2.064v18h2.064v-1.849zm7.994-4.152a4.089 4.089 0 1 1-4.081-4.345 4.1 4.1 0 0 1 4.081 4.344zm6.262 6h2.064v-5.953c0-2.809 1.656-4.129 3.169-4.129a3.018 3.018 0 0 1 1.128.192v-2.137a4.279 4.279 0 0 0-.936-.1 3.572 3.572 0 0 0-3.361 2.449v-2.329h-2.064v12zM95.764 265a1.45 1.45 0 0 0-1.44-1.465A1.491 1.491 0 0 0 92.836 265a1.475 1.475 0 0 0 1.488 1.464 1.435 1.435 0 0 0 1.44-1.464zm-2.5 16.683h2.064v-12h-2.06v12zm18.074-2.977l-1.8-1.008a4.07 4.07 0 0 1-3.745 2.3 4.322 4.322 0 0 1 0-8.641 4.07 4.07 0 0 1 3.745 2.3l1.8-1.008a6.217 6.217 0 0 0-5.545-3.217 6.242 6.242 0 1 0 0 12.483 6.215 6.215 0 0 0 5.549-3.205zm11.614 2.977h2.064v-10.102h3.484v-1.9h-3.48v-2.208c0-1.512.672-2.04 1.992-2.04a4.834 4.834 0 0 1 1.489.24v-1.825a5.456 5.456 0 0 0-1.873-.312 3.428 3.428 0 0 0-3.672 3.721v2.424h-2.545v1.9h2.545v10.106zm9 0h2.065v-5.953c0-2.809 1.656-4.129 3.168-4.129a3.017 3.017 0 0 1 1.128.192v-2.133a4.276 4.276 0 0 0-.936-.1 3.571 3.571 0 0 0-3.36 2.449v-2.329h-2.065v12zm21.147-6a6.278 6.278 0 1 0-6.266 6.241 6.16 6.16 0 0 0 6.267-6.238zm-10.442 0a4.167 4.167 0 1 1 4.176 4.32 4.125 4.125 0 0 1-4.173-4.317zm14.591 6h2.064v-5.953c0-2.713 1.369-4.393 3.313-4.393 1.56 0 2.353 1.344 2.353 3.288v7.058h2.064v-5.953c0-2.713 1.344-4.393 3.289-4.393 1.56 0 2.376 1.344 2.376 3.288v7.058h2.065v-7.37c0-2.928-1.585-4.873-4.2-4.873a4.154 4.154 0 0 0-3.937 2.569 3.773 3.773 0 0 0-3.7-2.569 4.037 4.037 0 0 0-3.625 2.089v-1.849h-2.064v12zm35.593-.168v-1.845a4.562 4.562 0 0 1-1.464.24c-1.3 0-1.993-.5-1.993-2.04v-6.289h3.457v-1.9h-3.457v-3.336h-2.064v3.336h-2.545v1.9h2.545v6.553a3.378 3.378 0 0 0 3.68 3.673 5.743 5.743 0 0 0 1.844-.288zm3.839.168h2.064v-5.953c0-2.809 1.536-4.393 3.481-4.393 1.68 0 2.832 1.248 2.832 3.264v7.082h2.043v-7.394c0-2.976-1.849-4.849-4.537-4.849a4.245 4.245 0 0 0-3.817 2.089v-7.85h-2.064v18zm14.4-6a6.328 6.328 0 0 0 11.62 3.387l-1.633-1.128a4.25 4.25 0 0 1-7.9-1.848h9.843a5.856 5.856 0 0 0 .024-.624c-.024-3.841-2.569-6.026-5.714-6.026a6.083 6.083 0 0 0-6.238 6.242zm6.169-4.417a3.591 3.591 0 0 1 3.673 3.144h-7.609a3.923 3.923 0 0 1 3.938-3.141zm26.713 10.418h1.825l4.08-12h-2.184l-2.905 8.762-3-8.762H240.2l-3 8.762-2.905-8.762h-2.16l4.081 12h1.824l2.977-8.642zm20.88-6a6.277 6.277 0 1 0-6.265 6.241 6.159 6.159 0 0 0 6.267-6.239zm-10.442 0a4.168 4.168 0 1 1 4.177 4.32 4.125 4.125 0 0 1-4.177-4.318zm14.591 6h2.065v-5.953c0-2.809 1.656-4.129 3.169-4.129a3.017 3.017 0 0 1 1.128.192v-2.134a4.276 4.276 0 0 0-.936-.1 3.571 3.571 0 0 0-3.361 2.449v-2.329h-2.065v12zm9.984 0h2.065v-18h-2.065v18zm6.24-6a6.006 6.006 0 0 0 5.881 6.241 5.261 5.261 0 0 0 4.225-2.089v1.849h2.065v-18h-2.065v7.85a5.264 5.264 0 0 0-4.225-2.089 6.007 6.007 0 0 0-5.879 6.24zm10.274 0a4.1 4.1 0 1 1-4.081-4.345 4.1 4.1 0 0 1 4.083 4.347zm6.6.312h6.121v-2.065h-6.121V276zm10.848 5.689H315v-5.953c0-2.809 1.656-4.129 3.169-4.129a3.017 3.017 0 0 1 1.128.192v-2.135a4.276 4.276 0 0 0-.936-.1 3.571 3.571 0 0 0-3.361 2.453v-2.329h-2.064v12zm8.616-6a6.327 6.327 0 0 0 11.618 3.384l-1.632-1.128a4.25 4.25 0 0 1-7.9-1.848h9.842a5.856 5.856 0 0 0 .024-.624c-.024-3.841-2.568-6.026-5.713-6.026a6.082 6.082 0 0 0-6.239 6.243zm6.169-4.417a3.591 3.591 0 0 1 3.673 3.144h-7.61a3.924 3.924 0 0 1 3.937-3.143zm9.911 10.418h2.067v-5.953c0-2.809 1.536-4.393 3.481-4.393 1.68 0 2.832 1.248 2.832 3.264v7.082h2.041v-7.394c0-2.976-1.849-4.849-4.537-4.849a4.246 4.246 0 0 0-3.817 2.089v-1.849h-2.064v12zm26.93-6a6.278 6.278 0 1 0-6.266 6.241 6.16 6.16 0 0 0 6.266-6.241zm-10.442 0a4.167 4.167 0 1 1 4.176 4.32 4.125 4.125 0 0 1-4.176-4.32zm24.721 6h1.825l4.081-12h-2.185l-2.9 8.762-3-8.762h-1.585l-3 8.762-2.9-8.762h-2.16l4.081 12h1.824l2.977-8.642zm9.334 0h2.064v-5.953c0-2.809 1.536-4.393 3.481-4.393 1.68 0 2.833 1.248 2.833 3.264v7.082h2.04v-7.394c0-2.976-1.848-4.849-4.537-4.849a4.246 4.246 0 0 0-3.817 2.089v-1.849h-2.064v12zm14.4-6a6.328 6.328 0 0 0 11.619 3.384l-1.633-1.128a4.249 4.249 0 0 1-7.9-1.848h9.842a5.856 5.856 0 0 0 .024-.624c-.024-3.841-2.569-6.026-5.713-6.026a6.083 6.083 0 0 0-6.24 6.242zm6.17-4.417a3.59 3.59 0 0 1 3.672 3.144h-7.609a3.923 3.923 0 0 1 3.936-3.144zm8.974 4.417a6.006 6.006 0 0 0 5.881 6.241 5.261 5.261 0 0 0 4.225-2.089v1.849h2.065v-18h-2.065v7.85a5.264 5.264 0 0 0-4.225-2.089 6.007 6.007 0 0 0-5.882 6.238zm10.274 0a4.1 4.1 0 1 1-4.081-4.345 4.1 4.1 0 0 1 4.08 4.345zm22.728 1.008l6.145-8.258v13.251h2.208v-17.043h-2.016l-6.337 8.5-6.338-8.5h-2.04v17.043h2.232v-13.251zm12.622-1.008a6.006 6.006 0 0 0 5.881 6.241 5.262 5.262 0 0 0 4.225-2.089v1.849h2.064v-12h-2.064v1.849a5.265 5.265 0 0 0-4.225-2.089 6.006 6.006 0 0 0-5.882 6.239zm10.274 0a4.1 4.1 0 1 1-4.081-4.345 4.1 4.1 0 0 1 4.08 4.345zm6.982 6h2.064v-5.953c0-2.809 1.656-4.129 3.169-4.129a3.017 3.017 0 0 1 1.128.192v-2.136a4.276 4.276 0 0 0-.936-.1 3.571 3.571 0 0 0-3.361 2.449v-2.329H480.6v12zM493.079 265a1.45 1.45 0 0 0-1.44-1.465A1.491 1.491 0 0 0 490.15 265a1.475 1.475 0 0 0 1.489 1.464 1.434 1.434 0 0 0 1.44-1.464zm-2.5 16.683h2.065v-12h-2.065v12zm18.771-6a6.278 6.278 0 1 0-6.266 6.241 6.16 6.16 0 0 0 6.269-6.238zm-10.442 0a4.167 4.167 0 1 1 4.176 4.32 4.125 4.125 0 0 1-4.173-4.317zm21.959 6h6.1c3.457 0 5.713-2.137 5.713-4.969a4.061 4.061 0 0 0-2.952-4.081 3.863 3.863 0 0 0 1.824-3.481c0-2.4-1.92-4.512-5.089-4.512h-5.593v17.043zm2.232-9.722v-5.3h3.361a2.68 2.68 0 0 1 2.905 2.664 2.624 2.624 0 0 1-2.905 2.641h-3.36zm0 7.705v-5.785h3.985c2.257 0 3.409 1.248 3.409 2.905 0 1.68-1.152 2.88-3.433 2.88h-3.96zm12.815-3.984a6.328 6.328 0 0 0 11.619 3.384l-1.632-1.128a4.25 4.25 0 0 1-7.9-1.848h9.842a5.856 5.856 0 0 0 .024-.624c-.024-3.841-2.569-6.026-5.713-6.026a6.083 6.083 0 0 0-6.237 6.246zm6.17-4.417a3.592 3.592 0 0 1 3.673 3.144h-7.61a3.923 3.923 0 0 1 3.94-3.14zM552 281.687h2.064v-18H552v18zm7.175 0h2.065v-18h-2.065v18zm7.008-4.633c0 2.976 1.776 4.873 4.417 4.873a4.129 4.129 0 0 0 3.7-2.089v1.849h2.064v-12H574.3v5.954c0 2.76-1.464 4.392-3.337 4.392-1.656 0-2.712-1.272-2.712-3.288v-7.058h-2.065v7.37zm26.162 1.656l-1.8-1.008a4.068 4.068 0 0 1-3.745 2.3 4.322 4.322 0 0 1 0-8.641 4.068 4.068 0 0 1 3.745 2.3l1.8-1.008a6.216 6.216 0 0 0-5.545-3.217 6.242 6.242 0 1 0 0 12.483 6.214 6.214 0 0 0 5.543-3.209zm14.76 0l-1.8-1.008a4.069 4.069 0 0 1-3.745 2.3 4.322 4.322 0 0 1 0-8.641 4.069 4.069 0 0 1 3.745 2.3l1.8-1.008a6.217 6.217 0 0 0-5.545-3.217 6.242 6.242 0 1 0 0 12.483 6.215 6.215 0 0 0 5.54-3.209zm6.356-13.71a1.45 1.45 0 0 0-1.44-1.465 1.491 1.491 0 0 0-1.489 1.465 1.475 1.475 0 0 0 1.489 1.464 1.434 1.434 0 0 0 1.44-1.464zm-2.5 16.683h2.065v-12h-2.065v12zm14.232 0h2.064v-5.953c0-2.713 1.369-4.393 3.313-4.393 1.56 0 2.353 1.344 2.353 3.288v7.058h2.064v-5.953c0-2.713 1.344-4.393 3.289-4.393 1.56 0 2.376 1.344 2.376 3.288v7.058h2.065v-7.37c0-2.928-1.585-4.873-4.2-4.873a4.154 4.154 0 0 0-3.937 2.569 3.773 3.773 0 0 0-3.7-2.569 4.037 4.037 0 0 0-3.625 2.089v-1.849H625.2v12zM650.132 265a1.45 1.45 0 0 0-1.44-1.465A1.491 1.491 0 0 0 647.2 265a1.475 1.475 0 0 0 1.488 1.464 1.434 1.434 0 0 0 1.444-1.464zm-2.5 16.683h2.068v-12h-2.064v12zm7.176 0h2.064v-18h-2.064v18zm7.176 0h2.064v-18h-2.064v18zm9.744-.528a2.055 2.055 0 0 0 .336-1.081 1.777 1.777 0 1 0-3.553 0 1.786 1.786 0 0 0 .984 1.609l-1.608 3.432h1.368zM51.847 307.509l-1.8-1.008a4.07 4.07 0 0 1-3.745 2.305 4.323 4.323 0 0 1 0-8.642 4.069 4.069 0 0 1 3.745 2.3l1.8-1.008a6.216 6.216 0 0 0-5.545-3.216 6.241 6.241 0 1 0 0 12.482 6.215 6.215 0 0 0 5.545-3.213zm3.861 2.977h2.064v-5.953c0-2.809 1.656-4.129 3.169-4.129a3.018 3.018 0 0 1 1.128.192v-2.136a4.279 4.279 0 0 0-.936-.1 3.571 3.571 0 0 0-3.361 2.448v-2.328h-2.064v12zm8.616-6a6.328 6.328 0 0 0 11.619 3.384l-1.632-1.128a4.249 4.249 0 0 1-7.9-1.848h9.842a5.856 5.856 0 0 0 .024-.624c-.024-3.841-2.568-6.025-5.713-6.025a6.082 6.082 0 0 0-6.24 6.24zm6.169-4.417a3.591 3.591 0 0 1 3.673 3.145h-7.61a3.924 3.924 0 0 1 3.937-3.146zm8.974 4.417a6.006 6.006 0 0 0 5.881 6.241 5.264 5.264 0 0 0 4.225-2.088v1.848h2.064v-12h-2.063v1.848a5.264 5.264 0 0 0-4.225-2.088 6.006 6.006 0 0 0-5.881 6.238zm10.274 0a4.1 4.1 0 1 1-4.081-4.345 4.1 4.1 0 0 1 4.082 4.344zm13.487 5.833v-1.849a4.562 4.562 0 0 1-1.464.24c-1.3 0-1.993-.5-1.993-2.041v-6.289h3.457v-1.9h-3.456v-3.337h-2.064v3.337h-2.545v1.9h2.544v6.553a3.379 3.379 0 0 0 3.673 3.673 5.743 5.743 0 0 0 1.849-.288zm6.335-16.515a1.449 1.449 0 0 0-1.44-1.464 1.491 1.491 0 0 0-1.488 1.464 1.475 1.475 0 0 0 1.488 1.464 1.434 1.434 0 0 0 1.441-1.468zm-2.5 16.683h2.064v-12h-2.064v12zm7.175 0h2.065v-5.953c0-2.809 1.536-4.393 3.481-4.393 1.68 0 2.832 1.248 2.832 3.265v7.081h2.041v-7.393c0-2.977-1.849-4.849-4.537-4.849a4.244 4.244 0 0 0-3.817 2.088v-1.848h-2.065v12zm26.523-.7v-11.303H138.7v1.848a5.106 5.106 0 0 0-4.177-2.088 6.114 6.114 0 0 0 0 12.218 5.125 5.125 0 0 0 4.177-2.112v1.368a3.837 3.837 0 0 1-4.009 4.153 5.138 5.138 0 0 1-4.2-2.017l-1.44 1.44a7.124 7.124 0 0 0 5.665 2.449c3.409 0 6.05-1.943 6.05-5.953zm-10.011-5.449a4.059 4.059 0 1 1 4.057 4.2 4 4 0 0 1-4.052-4.197zm21.215.144a6.007 6.007 0 0 0 5.882 6.241 5.266 5.266 0 0 0 4.225-2.088v1.848h2.064v-12h-2.064v1.848a5.266 5.266 0 0 0-4.225-2.088 6.006 6.006 0 0 0-5.877 6.242zm10.275 0a4.1 4.1 0 1 1-4.081-4.345 4.1 4.1 0 0 1 4.086 4.348zm14.037 6h2.065v-5.953c0-2.809 1.536-4.393 3.48-4.393 1.681 0 2.833 1.248 2.833 3.265v7.081h2.04v-7.393c0-2.977-1.848-4.849-4.537-4.849a4.243 4.243 0 0 0-3.816 2.088v-1.848h-2.065v12zm14.4-6a6.006 6.006 0 0 0 5.881 6.241 5.264 5.264 0 0 0 4.225-2.088v1.848h2.064v-12h-2.064v1.848a5.264 5.264 0 0 0-4.225-2.088 6.005 6.005 0 0 0-5.876 6.242zm10.274 0a4.1 4.1 0 1 1-4.081-4.345 4.1 4.1 0 0 1 4.086 4.348zm13.487 5.833v-1.845a4.562 4.562 0 0 1-1.464.24c-1.3 0-1.993-.5-1.993-2.041v-6.289h3.457v-1.9h-3.457v-3.337h-2.064v3.337h-2.545v1.9h2.545v6.553a3.378 3.378 0 0 0 3.673 3.673 5.743 5.743 0 0 0 1.853-.288zm3.671-4.465c0 2.977 1.776 4.873 4.416 4.873a4.129 4.129 0 0 0 3.7-2.088v1.848h2.065v-12h-2.065v5.953c0 2.76-1.464 4.393-3.336 4.393-1.657 0-2.713-1.273-2.713-3.289v-7.057h-2.064v7.369zm15.263 4.633h2.065v-5.953c0-2.809 1.656-4.129 3.169-4.129a3.017 3.017 0 0 1 1.128.192v-2.133a4.276 4.276 0 0 0-.936-.1 3.57 3.57 0 0 0-3.361 2.448v-2.328h-2.065v12zm8.64-6a6.006 6.006 0 0 0 5.881 6.241 5.263 5.263 0 0 0 4.225-2.088v1.848h2.065v-12h-2.065v1.848a5.263 5.263 0 0 0-4.225-2.088 6.006 6.006 0 0 0-5.876 6.241zm10.274 0a4.1 4.1 0 1 1-4.08-4.345 4.1 4.1 0 0 1 4.085 4.347zm6.982 6h2.065v-18h-2.065v18zm6.792-5.689h6.121v-2.065h-6.121v2.071zm18.625 2.352c0-1.8-1.128-2.952-3.168-3.624l-1.3-.432c-1.416-.457-1.848-.913-1.848-1.681 0-.888.888-1.392 2.016-1.392a3.243 3.243 0 0 1 2.545 1.248l1.344-1.3a4.654 4.654 0 0 0-3.841-1.728c-2.376 0-4.056 1.32-4.056 3.264 0 1.681 1.032 2.857 2.976 3.481l1.176.384c1.561.5 2.137 1.08 2.137 1.92 0 1.033-.936 1.633-2.113 1.633a3.22 3.22 0 0 1-3.072-1.9l-1.681.912a4.768 4.768 0 0 0 4.7 2.785c2.438.01 4.19-1.216 4.19-3.567zm10.512 3.169v-1.845a4.562 4.562 0 0 1-1.464.24c-1.3 0-1.993-.5-1.993-2.041v-6.289h3.46v-1.9h-3.457v-3.337h-2.064v3.337h-2.545v1.9h2.545v6.553a3.378 3.378 0 0 0 3.673 3.673 5.743 5.743 0 0 0 1.848-.288zm3.838.168h2.065v-5.953c0-2.809 1.656-4.129 3.169-4.129a3.017 3.017 0 0 1 1.128.192v-2.133a4.276 4.276 0 0 0-.936-.1 3.57 3.57 0 0 0-3.361 2.448v-2.328h-2.06v12zm8.616-6a6.328 6.328 0 0 0 11.619 3.384l-1.632-1.128a4.25 4.25 0 0 1-7.9-1.848h9.842a5.856 5.856 0 0 0 .024-.624c-.024-3.841-2.569-6.025-5.713-6.025a6.082 6.082 0 0 0-6.235 6.243zm6.17-4.417a3.592 3.592 0 0 1 3.673 3.145h-7.61a3.923 3.923 0 0 1 3.942-3.143zm16.248 10.25v-1.846a4.562 4.562 0 0 1-1.464.24c-1.3 0-1.993-.5-1.993-2.041v-6.289h3.457v-1.9h-3.457v-3.337h-2.064v3.337h-2.545v1.9h2.545v6.553a3.378 3.378 0 0 0 3.673 3.673 5.743 5.743 0 0 0 1.853-.288zm14.569-2.809l-1.8-1.008a4.07 4.07 0 0 1-3.745 2.305 4.323 4.323 0 0 1 0-8.642 4.069 4.069 0 0 1 3.745 2.3l1.8-1.008a6.215 6.215 0 0 0-5.545-3.216 6.241 6.241 0 1 0 0 12.482 6.214 6.214 0 0 0 5.55-3.211zm3.862 2.977h2.064v-5.953c0-2.809 1.536-4.393 3.481-4.393 1.68 0 2.832 1.248 2.832 3.265v7.081h2.041v-7.393c0-2.977-1.849-4.849-4.537-4.849a4.245 4.245 0 0 0-3.817 2.088v-7.849H348.5v18zm30.169-3.337c0-1.8-1.129-2.952-3.169-3.624l-1.3-.432c-1.417-.457-1.849-.913-1.849-1.681 0-.888.889-1.392 2.017-1.392a3.242 3.242 0 0 1 2.544 1.248l1.345-1.3a4.657 4.657 0 0 0-3.841-1.728c-2.377 0-4.057 1.32-4.057 3.264 0 1.681 1.032 2.857 2.977 3.481l1.176.384c1.56.5 2.136 1.08 2.136 1.92 0 1.033-.936 1.633-2.112 1.633a3.221 3.221 0 0 1-3.073-1.9l-1.68.912a4.766 4.766 0 0 0 4.705 2.785c2.433.009 4.186-1.217 4.186-3.568zm3.982-1.3c0 2.977 1.776 4.873 4.417 4.873a4.131 4.131 0 0 0 3.7-2.088v1.848h2.064v-12h-2.062v5.953c0 2.76-1.465 4.393-3.337 4.393-1.657 0-2.713-1.273-2.713-3.289v-7.057h-2.064v7.369zm17.76-12.05a1.449 1.449 0 0 0-1.44-1.464 1.491 1.491 0 0 0-1.488 1.464 1.475 1.475 0 0 0 1.488 1.464 1.434 1.434 0 0 0 1.445-1.461zm-2.5 16.683h2.064v-12h-2.055v12zm13.681-.168v-1.842a4.562 4.562 0 0 1-1.464.24c-1.3 0-1.993-.5-1.993-2.041v-6.289h3.465v-1.9h-3.457v-3.337h-2.063v3.337h-2.545v1.9h2.545v6.553a3.378 3.378 0 0 0 3.673 3.673 5.743 5.743 0 0 0 1.847-.288zm16.992 0v-1.842a4.568 4.568 0 0 1-1.465.24c-1.3 0-1.992-.5-1.992-2.041v-6.289h3.457v-1.9h-3.457v-3.337h-2.065v3.337h-2.544v1.9h2.544v6.553a3.379 3.379 0 0 0 3.673 3.673 5.749 5.749 0 0 0 1.858-.288zm3.838.168h2.078v-5.953c0-2.809 1.536-4.393 3.48-4.393 1.681 0 2.833 1.248 2.833 3.265v7.081h2.04v-7.393c0-2.977-1.848-4.849-4.537-4.849a4.243 4.243 0 0 0-3.816 2.088v-7.849h-2.065v18zm14.4-6a6.006 6.006 0 0 0 5.881 6.241 5.264 5.264 0 0 0 4.225-2.088v1.848H459v-12h-2.064v1.848a5.264 5.264 0 0 0-4.225-2.088 6.005 6.005 0 0 0-5.88 6.244zm10.274 0a4.1 4.1 0 1 1-4.081-4.345 4.1 4.1 0 0 1 4.09 4.35zm13.487 5.833v-1.843a4.562 4.562 0 0 1-1.464.24c-1.3 0-1.993-.5-1.993-2.041v-6.289h3.457v-1.9h-3.457v-3.337h-2.064v3.337h-2.545v1.9h2.545v6.553a3.378 3.378 0 0 0 3.673 3.673 5.743 5.743 0 0 0 1.857-.288zm10.894 5.185h2.065v-6.865a5.263 5.263 0 0 0 4.225 2.088 6.252 6.252 0 0 0 0-12.482 5.263 5.263 0 0 0-4.225 2.088v-1.848h-2.065V315.5zm10.058-11.018a4.089 4.089 0 1 1-4.08-4.345 4.1 4.1 0 0 1 4.089 4.35zm6.118 1.368c0 2.977 1.777 4.873 4.417 4.873a4.13 4.13 0 0 0 3.7-2.088v1.848h2.064v-12h-2.064v5.953c0 2.76-1.464 4.393-3.337 4.393-1.656 0-2.712-1.273-2.712-3.289v-7.057h-2.065v7.369zm23.042 1.3c0-1.8-1.128-2.952-3.169-3.624l-1.3-.432c-1.417-.457-1.849-.913-1.849-1.681 0-.888.889-1.392 2.017-1.392a3.242 3.242 0 0 1 2.544 1.248l1.345-1.3a4.657 4.657 0 0 0-3.841-1.728c-2.377 0-4.057 1.32-4.057 3.264 0 1.681 1.032 2.857 2.977 3.481l1.176.384c1.56.5 2.136 1.08 2.136 1.92 0 1.033-.936 1.633-2.112 1.633a3.221 3.221 0 0 1-3.073-1.9l-1.68.912a4.766 4.766 0 0 0 4.705 2.785c2.437.008 4.186-1.218 4.186-3.569zm4.15 3.337h2.064v-5.953c0-2.809 1.537-4.393 3.481-4.393 1.68 0 2.833 1.248 2.833 3.265v7.081h2.04v-7.393c0-2.977-1.848-4.849-4.537-4.849a4.245 4.245 0 0 0-3.817 2.088v-7.849h-2.064v18zm14.4-6a6.328 6.328 0 0 0 11.619 3.384l-1.632-1.128a4.25 4.25 0 0 1-7.9-1.848h9.842a5.856 5.856 0 0 0 .024-.624c-.024-3.841-2.569-6.025-5.713-6.025a6.082 6.082 0 0 0-6.232 6.241zm6.17-4.417a3.592 3.592 0 0 1 3.673 3.145h-7.61a3.923 3.923 0 0 1 3.945-3.145zm17.688 7.081c0-1.8-1.128-2.952-3.169-3.624l-1.3-.432c-1.416-.457-1.848-.913-1.848-1.681 0-.888.888-1.392 2.016-1.392a3.244 3.244 0 0 1 2.545 1.248l1.344-1.3a4.654 4.654 0 0 0-3.841-1.728c-2.376 0-4.057 1.32-4.057 3.264 0 1.681 1.033 2.857 2.977 3.481l1.176.384c1.561.5 2.137 1.08 2.137 1.92 0 1.033-.937 1.633-2.113 1.633a3.22 3.22 0 0 1-3.072-1.9l-1.681.912a4.767 4.767 0 0 0 4.7 2.785c2.442.007 4.194-1.219 4.194-3.57zm17.3 3.169v-1.848a4.562 4.562 0 0 1-1.464.24c-1.3 0-1.992-.5-1.992-2.041v-6.289h3.456v-1.9h-3.456v-3.337h-2.065v3.337h-2.544v1.9h2.544v6.553a3.379 3.379 0 0 0 3.673 3.673 5.743 5.743 0 0 0 1.859-.288zm3.839.168h2.064v-5.953c0-2.809 1.537-4.393 3.481-4.393 1.68 0 2.833 1.248 2.833 3.265v7.081h2.04v-7.393c0-2.977-1.848-4.849-4.537-4.849a4.246 4.246 0 0 0-3.817 2.088v-7.849h-2.064v18zm14.4-6a6.328 6.328 0 0 0 11.619 3.384l-1.632-1.128a4.25 4.25 0 0 1-7.9-1.848h9.842a5.856 5.856 0 0 0 .024-.624c-.024-3.841-2.569-6.025-5.713-6.025a6.082 6.082 0 0 0-6.23 6.24zm6.17-4.417a3.592 3.592 0 0 1 3.673 3.145h-7.61a3.923 3.923 0 0 1 3.947-3.146zM43.013 337.437a5.264 5.264 0 0 0 4.225 2.088 6.252 6.252 0 0 0 0-12.482 5.264 5.264 0 0 0-4.225 2.088v-7.849h-2.065v18h2.065v-1.848zm7.994-4.153a4.089 4.089 0 1 1-4.081-4.345 4.1 4.1 0 0 1 4.08 4.345zm17.856 0a6.277 6.277 0 1 0-6.265 6.241 6.159 6.159 0 0 0 6.265-6.241zm-10.442 0a4.168 4.168 0 1 1 4.177 4.321 4.126 4.126 0 0 1-4.178-4.321zm14.423 1.368c0 2.977 1.776 4.873 4.417 4.873a4.13 4.13 0 0 0 3.7-2.088v1.848h2.064v-12h-2.068v5.953c0 2.761-1.464 4.393-3.337 4.393-1.656 0-2.713-1.272-2.713-3.289v-7.057h-2.063v7.369zm15.264 4.633h2.064v-5.953c0-2.808 1.536-4.393 3.481-4.393 1.68 0 2.833 1.248 2.833 3.265v7.081h2.041v-7.393c0-2.977-1.848-4.849-4.537-4.849a4.245 4.245 0 0 0-3.817 2.088v-1.848h-2.065v12zm14.4-6a6.006 6.006 0 0 0 5.881 6.241 5.263 5.263 0 0 0 4.225-2.088v1.848h2.065v-18h-2.065v7.849a5.263 5.263 0 0 0-4.225-2.088 6.006 6.006 0 0 0-5.882 6.237zm10.274 0a4.1 4.1 0 1 1-4.081-4.345 4.1 4.1 0 0 1 4.08 4.344zm6.046 0a6.005 6.005 0 0 0 5.881 6.241 5.264 5.264 0 0 0 4.225-2.088v1.848H131v-12h-2.064v1.848a5.264 5.264 0 0 0-4.225-2.088 6.005 6.005 0 0 0-5.884 6.238zm10.274 0a4.1 4.1 0 1 1-4.081-4.345 4.1 4.1 0 0 1 4.079 4.344zm6.982 6h2.064v-5.953c0-2.808 1.657-4.129 3.169-4.129a3.017 3.017 0 0 1 1.128.192v-2.136a4.276 4.276 0 0 0-.936-.1 3.571 3.571 0 0 0-3.361 2.448v-2.328h-2.064v12zm12.48-16.683a1.449 1.449 0 0 0-1.44-1.464 1.491 1.491 0 0 0-1.488 1.464 1.475 1.475 0 0 0 1.488 1.464 1.434 1.434 0 0 0 1.439-1.466zm-2.5 16.683h2.064v-12h-2.064v12zm6.239-6a6.328 6.328 0 0 0 11.619 3.385l-1.633-1.129a4.249 4.249 0 0 1-7.9-1.848h9.842a5.856 5.856 0 0 0 .024-.624c-.024-3.841-2.569-6.025-5.713-6.025a6.082 6.082 0 0 0-6.236 6.24zm6.17-4.417a3.59 3.59 0 0 1 3.672 3.145h-7.609a3.923 3.923 0 0 1 3.94-3.146zm17.688 7.082c0-1.8-1.128-2.953-3.169-3.625l-1.3-.432c-1.416-.456-1.848-.912-1.848-1.681 0-.888.888-1.392 2.016-1.392a3.244 3.244 0 0 1 2.545 1.248l1.344-1.3a4.656 4.656 0 0 0-3.841-1.728c-2.376 0-4.057 1.32-4.057 3.265 0 1.68 1.033 2.856 2.977 3.48l1.176.384c1.561.5 2.137 1.08 2.137 1.921 0 1.032-.937 1.632-2.113 1.632a3.221 3.221 0 0 1-3.072-1.9l-1.681.912a4.768 4.768 0 0 0 4.7 2.784c2.437.007 4.189-1.218 4.189-3.569zm22.8-2.665a6.277 6.277 0 1 0-6.265 6.241 6.159 6.159 0 0 0 6.268-6.242zm-10.442 0a4.168 4.168 0 1 1 4.177 4.321 4.126 4.126 0 0 1-4.174-4.322zm15.408 6h2.064v-10.106h3.481v-1.9h-3.481v-2.208c0-1.513.673-2.041 1.993-2.041a4.833 4.833 0 0 1 1.488.24v-1.82a5.454 5.454 0 0 0-1.872-.312 3.427 3.427 0 0 0-3.673 3.72v2.425h-2.545v1.9h2.545v10.106zm23.209-3.336c0-1.8-1.128-2.953-3.169-3.625l-1.3-.432c-1.416-.456-1.848-.912-1.848-1.681 0-.888.888-1.392 2.016-1.392a3.244 3.244 0 0 1 2.545 1.248l1.344-1.3a4.654 4.654 0 0 0-3.841-1.728c-2.376 0-4.057 1.32-4.057 3.265 0 1.68 1.033 2.856 2.977 3.48l1.176.384c1.561.5 2.137 1.08 2.137 1.921 0 1.032-.936 1.632-2.113 1.632a3.221 3.221 0 0 1-3.072-1.9l-1.681.912a4.768 4.768 0 0 0 4.7 2.784c2.437.008 4.189-1.217 4.189-3.568zm10.512 3.168v-1.848a4.564 4.564 0 0 1-1.465.24c-1.3 0-1.992-.5-1.992-2.041v-6.289h3.457v-1.9h-3.457v-3.337h-2.061v3.337h-2.545v1.9h2.545v6.554a3.378 3.378 0 0 0 3.672 3.672 5.744 5.744 0 0 0 1.849-.288zm7.031 5.185l7.874-17.019h-2.305l-4.105 9.1-4.129-9.1h-2.28l5.257 11.378-2.617 5.641h2.3zm11.135-5.017h2.065v-18h-2.065v18zm6.24-6a6.328 6.328 0 0 0 11.618 3.385l-1.632-1.129a4.25 4.25 0 0 1-7.9-1.848h9.842a5.856 5.856 0 0 0 .024-.624c-.024-3.841-2.568-6.025-5.713-6.025a6.081 6.081 0 0 0-6.236 6.24zm6.169-4.417a3.591 3.591 0 0 1 3.673 3.145h-7.61a3.924 3.924 0 0 1 3.94-3.146zm16.03 4.417a6.006 6.006 0 0 0 5.882 6.241 5.266 5.266 0 0 0 4.225-2.088v1.848h2.064v-12h-2.064v1.848a5.266 5.266 0 0 0-4.225-2.088 6.006 6.006 0 0 0-5.879 6.238zm10.275 0a4.1 4.1 0 1 1-4.081-4.345 4.1 4.1 0 0 1 4.084 4.344zm6.981 6h2.065v-5.953c0-2.808 1.536-4.393 3.481-4.393 1.68 0 2.832 1.248 2.832 3.265v7.081h2.041v-7.393c0-2.977-1.849-4.849-4.537-4.849a4.244 4.244 0 0 0-3.817 2.088v-1.848h-2.065v12zm14.4-6a6.005 6.005 0 0 0 5.881 6.241 5.263 5.263 0 0 0 4.225-2.088v1.848h2.065v-18h-2.065v7.849a5.263 5.263 0 0 0-4.225-2.088 6.005 6.005 0 0 0-5.878 6.237zm10.274 0a4.1 4.1 0 1 1-4.081-4.345 4.1 4.1 0 0 1 4.084 4.344zm24.936 3.025l-1.8-1.009a4.069 4.069 0 0 1-3.745 2.305 4.323 4.323 0 0 1 0-8.642 4.069 4.069 0 0 1 3.745 2.3l1.8-1.008a6.215 6.215 0 0 0-5.545-3.217 6.241 6.241 0 1 0 0 12.482 6.216 6.216 0 0 0 5.548-3.212zm15.456-3.025a6.278 6.278 0 1 0-6.266 6.241 6.159 6.159 0 0 0 6.269-6.242zm-10.442 0a4.167 4.167 0 1 1 4.176 4.321 4.125 4.125 0 0 1-4.173-4.322zm14.591 6h2.064v-5.953c0-2.712 1.369-4.393 3.313-4.393 1.56 0 2.353 1.345 2.353 3.289v7.057h2.064v-5.953c0-2.712 1.344-4.393 3.289-4.393 1.56 0 2.376 1.345 2.376 3.289v7.057h2.065v-7.369c0-2.929-1.585-4.873-4.2-4.873a4.153 4.153 0 0 0-3.937 2.568 3.773 3.773 0 0 0-3.7-2.568 4.036 4.036 0 0 0-3.625 2.088v-1.848h-2.064v12zm23.3 0h2.076v-10.106h3.48v-1.9h-3.48v-2.208c0-1.513.672-2.041 1.992-2.041a4.833 4.833 0 0 1 1.488.24v-1.82a5.454 5.454 0 0 0-1.872-.312 3.427 3.427 0 0 0-3.673 3.72v2.425h-2.544v1.9h2.544v10.106zm20.282-6a6.277 6.277 0 1 0-6.265 6.241 6.159 6.159 0 0 0 6.272-6.242zm-10.442 0a4.168 4.168 0 1 1 4.177 4.321 4.126 4.126 0 0 1-4.17-4.322zm14.592 6h2.064v-5.953c0-2.808 1.656-4.129 3.169-4.129a3.017 3.017 0 0 1 1.128.192v-2.136a4.276 4.276 0 0 0-.936-.1 3.571 3.571 0 0 0-3.361 2.448v-2.328h-2.064v12zm16.489-.168v-1.848a4.562 4.562 0 0 1-1.464.24c-1.3 0-1.993-.5-1.993-2.041v-6.289h3.457v-1.9H431.5v-3.337h-2.064v3.337h-2.545v1.9h2.545v6.554a3.378 3.378 0 0 0 3.673 3.672 5.743 5.743 0 0 0 1.843-.288zm6.695-1.44a1.777 1.777 0 1 0-1.776 1.8 1.808 1.808 0 0 0 1.783-1.8z"/></svg>