<svg id="copy_copy_2" data-name="copy copy 2" xmlns="http://www.w3.org/2000/svg" width="768" height="499" viewBox="0 0 768 499">
  <defs>
    <style>
      .cls-1 {
        fill: #fff;
      }

      .cls-1, .cls-2 {
        fill-rule: evenodd;
      }
    </style>
  </defs>
  <path id="Rectangle_106_copy_5" data-name="Rectangle 106 copy 5" class="cls-1" d="M0,0H767.831l0.184,499H0.183Z"/>
  <g id="CTA_underline_copy_10" data-name="CTA_underline copy 10">
    <rect id="Rectangle_4_copy_4" data-name="Rectangle 4 copy 4" x="39" y="405" width="122" height="4"/>
    <path id="Shop_now" data-name="Shop now" class="cls-2" d="M43.817,397.853c2.706,0,4.564-1.653,4.582-4.023,0.018-1.965-1.19-3.214-3.048-3.894l-0.9-.33c-1.353-.5-1.984-0.808-1.984-1.506,0-.68.776-0.992,1.551-0.992a2.831,2.831,0,0,1,2.219,1.083l1.876-2.02a5.3,5.3,0,0,0-4.131-1.8c-2.561,0-4.419,1.488-4.419,4.022,0,1.782,1.154,3.049,3.229,3.766l0.9,0.312c1.281,0.441,1.786.9,1.786,1.561,0,0.625-.6,1.084-1.551,1.084a3.335,3.335,0,0,1-2.652-1.488l-2.2,1.892A5.583,5.583,0,0,0,43.817,397.853Zm9.726-.221H56.41v-5.161h5.159v5.161h2.868V384.591H61.569V389.7H56.41v-5.107H53.542v13.041Zm22.66,0.221a6.742,6.742,0,1,0-6.62-6.741A6.7,6.7,0,0,0,76.2,397.853Zm0-2.829a3.917,3.917,0,1,1,3.716-3.912A3.837,3.837,0,0,1,76.2,395.024Zm20.622-5.969a4.4,4.4,0,0,0-4.51-4.464H87.967v13.041h2.868V393.5h1.479A4.385,4.385,0,0,0,96.824,389.055Zm-2.778,0a1.7,1.7,0,0,1-1.768,1.708H90.835v-3.416h1.443A1.688,1.688,0,0,1,94.046,389.055Zm25.979,8.577V384.591h-2.886v8.045l-6.223-8.045h-2.472v13.041h2.869v-8.063l6.241,8.063h2.471Zm11.765,0.221a6.742,6.742,0,1,0-6.62-6.741A6.7,6.7,0,0,0,131.79,397.853Zm0-2.829a3.917,3.917,0,1,1,3.716-3.912A3.837,3.837,0,0,1,131.79,395.024Zm21.686,2.608H156.2l2.976-13.041h-3.067l-1.749,8.266-3.608-8.486-3.589,8.486-1.75-8.266h-3.067l2.959,13.041h2.723l2.724-6.392Z"/>
  </g>
  <path id="BR_X_Kevin_Love_Slim_Pinstripe_Italian_Motion-Stretch_Suit_It" data-name="BR X Kevin Love | Slim Pinstripe Italian Motion-Stretch Suit It" class="cls-2" d="M41.884,68.092h11.98a8.06,8.06,0,0,0,8.294-8.025,7.124,7.124,0,0,0-3.878-6.45,6.416,6.416,0,0,0,1.958-4.684,8.1,8.1,0,0,0-8.1-8.1H41.884V68.092Zm6.105-16.242V46.4h3.456a2.771,2.771,0,0,1,2.841,2.764,2.733,2.733,0,0,1-2.841,2.688H47.989Zm0,10.636V57.034h5.337a2.773,2.773,0,0,1,2.88,2.726,2.74,2.74,0,0,1-2.841,2.726H47.989ZM67.8,68.092h6.105V56.842h1l9.062,11.25H91.3L81.665,56.074C85.121,54.846,87,52.58,87,49.048a8.049,8.049,0,0,0-8.447-8.217H67.8V68.092Zm6.105-16.434V46.437h3.917c1.8,0,3.11.96,3.11,2.611,0,1.574-1.305,2.611-3.11,2.611H73.909ZM120.6,68.092h7.1L117.53,54.308l9.561-13.477h-7.065l-6.182,8.754-6.182-8.754H100.6l9.6,13.477L99.983,68.092h7.142l6.757-9.023Zm20.391,0h6.067V55.882l11.1,12.21h7.833L153.05,53.924,163.8,40.831h-7.487l-9.254,11.4v-11.4h-6.067V68.092Zm28.416,0h17.279V62.256H175.514V57.38h8.87V51.544h-8.87V46.667h11.174V40.831H169.409V68.092Zm31.8,0H206.7l11.173-27.261h-6.719L203.93,58.992l-7.257-18.162H190.03Zm21.12,0h6.1V40.831h-6.1V68.092Zm38.052,0V40.831h-6.143V57.649L240.986,40.831h-5.261V68.092h6.105V51.236l13.286,16.856h5.26Zm17.281,0h17.394V62.256H283.762V40.831h-6.105V68.092Zm34.06,0.461a14.091,14.091,0,1,0-14.092-14.091A14.125,14.125,0,0,0,311.717,68.553Zm0-5.913a8.183,8.183,0,1,1,7.909-8.178A8.089,8.089,0,0,1,311.717,62.64Zm27,5.452H344.2l11.173-27.261h-6.719l-7.219,18.162-7.257-18.162h-6.643Zm21.12,0h17.279V62.256H365.937V57.38h8.87V51.544h-8.87V46.667h11.174V40.831H359.832V68.092ZM393.278,70.2h4.838V38.719h-4.838V70.2Zm30.257-1.651c5.76,0,9.715-3.456,9.753-8.409,0.039-4.108-2.534-6.719-6.489-8.14l-1.92-.691c-2.879-1.037-4.223-1.689-4.223-3.148,0-1.421,1.651-2.073,3.3-2.073a6.064,6.064,0,0,1,4.723,2.265l3.993-4.224a11.376,11.376,0,0,0-8.793-3.763c-5.452,0-9.407,3.11-9.407,8.409,0,3.724,2.457,6.374,6.873,7.871l1.92,0.653c2.726,0.922,3.8,1.881,3.8,3.264,0,1.306-1.267,2.265-3.3,2.265a7.134,7.134,0,0,1-5.645-3.11l-4.684,3.955A11.954,11.954,0,0,0,423.535,68.553Zm15.514-.461h17.394V62.256H445.154V40.831h-6.105V68.092Zm22.733,0h6.105V40.831h-6.105V68.092Zm27.493-5.8,7.948-11.02V68.092h6.143V40.831H497.8L489.275,52.58,480.75,40.831h-5.567V68.092h6.105V51.275ZM539.5,50.161a9.284,9.284,0,0,0-9.6-9.33h-9.254V68.092h6.106V59.453H529.9A9.253,9.253,0,0,0,539.5,50.161Zm-5.913,0a3.588,3.588,0,0,1-3.763,3.571h-3.071V46.59h3.071A3.565,3.565,0,0,1,533.587,50.161Zm11.367,17.931h6.105V40.831h-6.105V68.092Zm38.052,0V40.831h-6.143V57.649L563.616,40.831h-5.261V68.092h6.105V51.236l13.286,16.856h5.26Zm15.438,0.461c5.76,0,9.714-3.456,9.753-8.409,0.038-4.108-2.534-6.719-6.489-8.14l-1.92-.691c-2.88-1.037-4.224-1.689-4.224-3.148,0-1.421,1.651-2.073,3.3-2.073a6.064,6.064,0,0,1,4.723,2.265l3.994-4.224a11.377,11.377,0,0,0-8.793-3.763c-5.453,0-9.408,3.11-9.408,8.409,0,3.724,2.458,6.374,6.873,7.871l1.92,0.653c2.726,0.922,3.8,1.881,3.8,3.264,0,1.306-1.268,2.265-3.3,2.265a7.132,7.132,0,0,1-5.644-3.11l-4.684,3.955A11.952,11.952,0,0,0,598.444,68.553Zm20.045-.461h6.143V46.667h7.027V40.831h-20.12v5.836h6.95V68.092Zm18.432,0h6.1V56.842h1l9.062,11.25h7.334l-9.638-12.018c3.456-1.229,5.337-3.494,5.337-7.026a8.049,8.049,0,0,0-8.447-8.217H636.921V68.092Zm6.1-16.434V46.437h3.917c1.8,0,3.11.96,3.11,2.611,0,1.574-1.306,2.611-3.11,2.611h-3.917Zm20.851,16.434h6.105V40.831h-6.105V68.092Zm32.255-17.931a9.285,9.285,0,0,0-9.6-9.33h-9.254V68.092h6.106V59.453h3.148A9.254,9.254,0,0,0,696.132,50.161Zm-5.914,0a3.588,3.588,0,0,1-3.763,3.571h-3.071V46.59h3.071A3.565,3.565,0,0,1,690.218,50.161Zm11.367,17.931h17.279V62.256H707.69V57.38h8.87V51.544h-8.87V46.667h11.174V40.831H701.585V68.092Zm-659.7,40.8h6.105V81.63H41.884v27.261Zm18.316,0h6.143V87.466H73.37V81.63H53.25v5.836H60.2v21.425Zm12.749,0h6.374l2.419-5.759H93.031l2.419,5.759h6.374L90.151,81.63H84.622Zm11.02-11.058,3.417-8.217L90.8,97.833H83.969ZM106.2,108.891H123.6v-5.836H112.308V81.63H106.2v27.261Zm22.733,0h6.1V81.63h-6.1v27.261Zm10.483,0h6.374l2.419-5.759H159.5l2.419,5.759h6.374L156.621,81.63h-5.53Zm11.02-11.058,3.417-8.217,3.417,8.217h-6.834Zm46.885,11.058V81.63H191.18V98.447L177.933,81.63h-5.26v27.261h6.1V92.035l13.285,16.856h5.261Zm31.373-5.8,7.948-11.019v16.817h6.143V81.63h-5.567L228.7,93.379,220.172,81.63h-5.567v27.261h6.105V92.074Zm33.945,6.259A14.091,14.091,0,1,0,248.55,95.261,14.126,14.126,0,0,0,262.642,109.352Zm0-5.913a8.183,8.183,0,1,1,7.91-8.178A8.088,8.088,0,0,1,262.642,103.439Zm23.731,5.452h6.144V87.466h7.027V81.63H279.423v5.836h6.95v21.425Zm18.432,0h6.106V81.63h-6.106v27.261Zm25.958,0.461a14.091,14.091,0,1,0-14.092-14.092A14.125,14.125,0,0,0,330.763,109.352Zm0-5.913a8.183,8.183,0,1,1,7.909-8.178A8.089,8.089,0,0,1,330.763,103.439Zm44.5,5.452V81.63h-6.144V98.447L355.876,81.63h-5.26v27.261h6.105V92.035l13.285,16.856h5.261Zm6.644-10.866H393.2V92.5H381.911v5.529Zm26.073,11.327c5.76,0,9.714-3.456,9.753-8.409,0.038-4.108-2.534-6.719-6.489-8.14l-1.92-.691c-2.88-1.037-4.224-1.689-4.224-3.148,0-1.421,1.651-2.073,3.3-2.073a6.064,6.064,0,0,1,4.723,2.265l3.993-4.224a11.373,11.373,0,0,0-8.792-3.763c-5.453,0-9.408,3.11-9.408,8.409,0,3.724,2.458,6.374,6.873,7.871l1.92,0.653c2.726,0.921,3.8,1.881,3.8,3.264,0,1.305-1.268,2.265-3.3,2.265a7.132,7.132,0,0,1-5.644-3.11l-4.685,3.955A11.956,11.956,0,0,0,407.984,109.352Zm20.045-.461h6.143V87.466H441.2V81.63h-20.12v5.836h6.95v21.425Zm18.432,0h6.1V97.641h1l9.062,11.25h7.334l-9.638-12.018c3.456-1.229,5.337-3.494,5.337-7.026a8.049,8.049,0,0,0-8.447-8.217H446.461v27.261Zm6.1-16.433V87.236h3.917c1.8,0,3.11.96,3.11,2.611,0,1.574-1.306,2.611-3.11,2.611h-3.917Zm20.851,16.433H490.7v-5.836H479.522V98.179h8.87V92.342h-8.87V87.466H490.7V81.63H473.417v27.261Zm28.377,0h6.144V87.466h7.027V81.63H494.844v5.836h6.95v21.425Zm29.952,0.461a14.094,14.094,0,0,0,12.748-7.449l-5.376-2.918a8.179,8.179,0,1,1,0-7.449l5.376-2.918A14.213,14.213,0,1,0,531.746,109.352Zm17.857-.461h6.105V98.1h10.981v10.789h6.106V81.63h-6.106V92.3H555.708V81.63H549.6v27.261Zm48.613,0.461c5.759,0,9.714-3.456,9.753-8.409,0.038-4.108-2.534-6.719-6.489-8.14l-1.92-.691c-2.88-1.037-4.224-1.689-4.224-3.148,0-1.421,1.651-2.073,3.3-2.073a6.064,6.064,0,0,1,4.723,2.265l3.993-4.224a11.374,11.374,0,0,0-8.793-3.763c-5.452,0-9.407,3.11-9.407,8.409,0,3.724,2.458,6.374,6.873,7.871l1.92,0.653c2.726,0.921,3.8,1.881,3.8,3.264,0,1.305-1.267,2.265-3.3,2.265a7.132,7.132,0,0,1-5.644-3.11l-4.685,3.955A11.956,11.956,0,0,0,598.216,109.352Zm26.418,0c6.528,0,11.212-4.454,11.212-11.25V81.63h-6.105V98.179c0,3.263-2.073,5.26-5.107,5.26s-5.106-2-5.106-5.26V81.63h-6.106V98.1C613.422,104.9,618.069,109.352,624.634,109.352Zm18.2-.461h6.105V81.63h-6.105v27.261Zm18.316,0H667.3V87.466h7.027V81.63H654.2v5.836h6.949v21.425ZM41.486,142.49h2.456V123.744H41.486V142.49Zm15.524-.185v-2.033a5,5,0,0,1-1.611.264c-1.426,0-2.191-.554-2.191-2.244v-6.917h3.8v-2.086h-3.8v-3.67H50.937v3.67h-2.8v2.086h2.8v7.208a3.716,3.716,0,0,0,4.04,4.039A6.313,6.313,0,0,0,57.01,142.305Zm3.009-6.415a6.606,6.606,0,0,0,6.469,6.864,5.788,5.788,0,0,0,4.647-2.3v2.033h2.271v-13.2H71.135v2.033a5.788,5.788,0,0,0-4.647-2.3A6.606,6.606,0,0,0,60.019,135.89Zm11.3,0a4.51,4.51,0,1,1-4.489-4.779A4.508,4.508,0,0,1,71.319,135.89ZM79,142.49h2.271v-19.8H79v19.8Zm10.639-18.35a1.594,1.594,0,0,0-1.584-1.61,1.64,1.64,0,0,0-1.637,1.61,1.623,1.623,0,0,0,1.637,1.611A1.578,1.578,0,0,0,89.639,124.14Zm-2.746,18.35h2.271v-13.2H86.893v13.2Zm6.864-6.6a6.606,6.606,0,0,0,6.469,6.864,5.787,5.787,0,0,0,4.647-2.3v2.033h2.271v-13.2h-2.271v2.033a5.787,5.787,0,0,0-4.647-2.3A6.606,6.606,0,0,0,93.757,135.89Zm11.3,0a4.51,4.51,0,1,1-4.489-4.779A4.508,4.508,0,0,1,105.058,135.89Zm7.681,6.6h2.27v-6.548c0-3.089,1.69-4.831,3.829-4.831,1.848,0,3.116,1.373,3.116,3.59v7.789H124.2v-8.132c0-3.274-2.033-5.333-4.99-5.333a4.669,4.669,0,0,0-4.2,2.3v-2.033h-2.27v13.2Zm35.35,0H150.1l4.489-13.2h-2.4l-3.195,9.637-3.3-9.637h-1.743l-3.3,9.637-3.195-9.637h-2.377l4.489,13.2h2.007l3.274-9.5Zm22.968-6.6a6.9,6.9,0,1,0-6.891,6.864A6.774,6.774,0,0,0,171.057,135.89Zm-11.485,0a4.584,4.584,0,1,1,4.594,4.752A4.537,4.537,0,0,1,159.572,135.89Zm28.8,0a6.9,6.9,0,1,0-6.891,6.864A6.774,6.774,0,0,0,188.375,135.89Zm-11.485,0a4.584,4.584,0,1,1,4.594,4.752A4.537,4.537,0,0,1,176.89,135.89Zm16.05,6.6h2.271v-19.8H192.94v19.8Zm10.719-.581a2.258,2.258,0,0,0,.37-1.188,1.954,1.954,0,1,0-3.908,0,1.966,1.966,0,0,0,1.082,1.769l-1.769,3.776h1.5Zm15.285-1.452a5.787,5.787,0,0,0,4.647,2.3,6.877,6.877,0,0,0,0-13.729,5.787,5.787,0,0,0-4.647,2.3v-8.634h-2.271v19.8h2.271v-2.033Zm8.793-4.567a4.5,4.5,0,1,1-4.489-4.779A4.508,4.508,0,0,1,227.737,135.89Zm9.766,4.831a1.954,1.954,0,1,0-1.954,1.981A1.989,1.989,0,0,0,237.5,140.721ZM261.4,140.3h-9.347c0.449-2.165,2.641-3.248,4.806-4.832,3.063-2.218,4.33-3.8,4.33-6.548,0-3.644-2.667-5.492-5.782-5.492-3.459,0-6.179,2.324-6.179,5.915h2.324a3.62,3.62,0,0,1,3.881-3.7,3.17,3.17,0,0,1,3.432,3.248c0,2.191-1.161,3.168-3.326,4.779-2.773,2.059-6.285,3.907-6.285,7.921v0.9H261.4V140.3Zm17.477-4.594v-5.228c0-4.145-2.8-7.05-6.654-7.05s-6.627,2.9-6.627,7.05v5.228c0,4.171,2.772,7.049,6.627,7.049S278.873,139.876,278.873,135.705Zm-11.01,0v-5.228c0-3.036,1.822-4.832,4.356-4.832,2.562,0,4.383,1.8,4.383,4.832v5.228c0,3.036-1.821,4.831-4.383,4.831C269.685,140.536,267.863,138.741,267.863,135.705Zm17.687,6.785h2.271V123.744h-4.04l-1.848,2.244h3.617v16.5Zm19.907-5.624a5.239,5.239,0,0,0-2.93-4.911,4.388,4.388,0,0,0,1.9-3.7c0-2.8-2.165-4.832-5.255-4.832-3.01,0-5.28,2.033-5.28,4.832a4.37,4.37,0,0,0,1.953,3.7,5.24,5.24,0,0,0-2.983,4.911c0,3.406,2.64,5.888,6.31,5.888C302.9,142.754,305.457,140.272,305.457,136.866Zm-9.32-8.554a2.79,2.79,0,0,1,3.036-2.746,2.739,2.739,0,0,1,3.01,2.746,2.8,2.8,0,0,1-3.01,2.772A2.856,2.856,0,0,1,296.137,128.312Zm-0.977,8.554a3.722,3.722,0,0,1,4.013-3.749,3.744,3.744,0,1,1,0,7.472A3.731,3.731,0,0,1,295.16,136.866Zm23.047,8.529h2.086V123.744h-2.086V145.4Zm16.05-2.905h11.512v-2.323h-9.056V123.744h-2.456V142.49Zm18.164-18.35a1.594,1.594,0,0,0-1.584-1.61,1.639,1.639,0,0,0-1.637,1.61,1.623,1.623,0,0,0,1.637,1.611A1.579,1.579,0,0,0,352.421,124.14Zm-2.746,18.35h2.271v-13.2h-2.271v13.2Zm7.893,0h2.271v-6.548c0-2.983,1.5-4.831,3.644-4.831,1.716,0,2.587,1.478,2.587,3.617v7.762h2.271v-6.548c0-2.983,1.479-4.831,3.617-4.831,1.717,0,2.614,1.478,2.614,3.617v7.762h2.271v-8.105c0-3.222-1.743-5.36-4.621-5.36a4.568,4.568,0,0,0-4.33,2.825,4.149,4.149,0,0,0-4.066-2.825,4.437,4.437,0,0,0-3.987,2.3v-2.033h-2.271v13.2ZM385,124.14a1.594,1.594,0,0,0-1.584-1.61,1.639,1.639,0,0,0-1.637,1.61,1.623,1.623,0,0,0,1.637,1.611A1.578,1.578,0,0,0,385,124.14Zm-2.746,18.35h2.271v-13.2h-2.271v13.2Zm15.049-.185v-2.033a5.006,5.006,0,0,1-1.611.264c-1.426,0-2.191-.554-2.191-2.244v-6.917h3.8v-2.086h-3.8v-3.67h-2.271v3.67h-2.8v2.086h2.8v7.208a3.716,3.716,0,0,0,4.04,4.039A6.317,6.317,0,0,0,397.3,142.305Zm3.009-6.415a6.96,6.96,0,0,0,12.779,3.722l-1.8-1.241a4.674,4.674,0,0,1-8.687-2.033h10.825a6.285,6.285,0,0,0,.027-0.686c-0.027-4.225-2.826-6.627-6.284-6.627A6.69,6.69,0,0,0,400.31,135.89Zm6.785-4.859a3.95,3.95,0,0,1,4.04,3.459h-8.37A4.317,4.317,0,0,1,407.1,131.031Zm9.873,4.859a6.606,6.606,0,0,0,6.469,6.864,5.789,5.789,0,0,0,4.647-2.3v2.033h2.271v-19.8h-2.271v8.634a5.789,5.789,0,0,0-4.647-2.3A6.606,6.606,0,0,0,416.968,135.89Zm11.3,0a4.51,4.51,0,1,1-4.489-4.779A4.508,4.508,0,0,1,428.269,135.89Zm14.412,0a6.606,6.606,0,0,0,6.469,6.864,5.789,5.789,0,0,0,4.647-2.3v2.033h2.271v-13.2H453.8v2.033a5.789,5.789,0,0,0-4.647-2.3A6.606,6.606,0,0,0,442.681,135.89Zm11.3,0a4.51,4.51,0,1,1-4.489-4.779A4.508,4.508,0,0,1,453.982,135.89Zm11.8,6.6h1.9l6.1-13.2h-2.535l-4.515,9.98-4.515-9.98h-2.535Zm10.322-6.6a6.606,6.606,0,0,0,6.469,6.864,5.789,5.789,0,0,0,4.647-2.3v2.033h2.271v-13.2h-2.271v2.033a5.789,5.789,0,0,0-4.647-2.3A6.606,6.606,0,0,0,476.1,135.89Zm11.3,0a4.51,4.51,0,1,1-4.489-4.779A4.508,4.508,0,0,1,487.4,135.89Zm10.426-11.75a1.594,1.594,0,0,0-1.584-1.61,1.639,1.639,0,0,0-1.637,1.61,1.623,1.623,0,0,0,1.637,1.611A1.578,1.578,0,0,0,497.83,124.14Zm-2.746,18.35h2.271v-13.2h-2.271v13.2Zm7.894,0h2.27v-19.8h-2.27v19.8Zm6.863-6.6a6.606,6.606,0,0,0,6.469,6.864,5.786,5.786,0,0,0,4.647-2.3v2.033h2.271v-13.2h-2.271v2.033a5.786,5.786,0,0,0-4.647-2.3A6.606,6.606,0,0,0,509.841,135.89Zm11.3,0a4.51,4.51,0,1,1-4.488-4.779A4.508,4.508,0,0,1,521.142,135.89Zm9.952,4.567a5.786,5.786,0,0,0,4.647,2.3,6.877,6.877,0,0,0,0-13.729,5.786,5.786,0,0,0-4.647,2.3v-8.634h-2.271v19.8h2.271v-2.033Zm8.792-4.567a4.5,4.5,0,1,1-4.489-4.779A4.508,4.508,0,0,1,539.886,135.89Zm9.635-11.75a1.6,1.6,0,0,0-1.585-1.61,1.64,1.64,0,0,0-1.637,1.61,1.623,1.623,0,0,0,1.637,1.611A1.579,1.579,0,0,0,549.521,124.14Zm-2.746,18.35h2.27v-13.2h-2.27v13.2Zm7.893,0h2.271v-19.8h-2.271v19.8Zm10.639-18.35a1.594,1.594,0,0,0-1.584-1.61,1.639,1.639,0,0,0-1.637,1.61,1.623,1.623,0,0,0,1.637,1.611A1.578,1.578,0,0,0,565.307,124.14Zm-2.746,18.35h2.271v-13.2h-2.271v13.2Zm15.049-.185v-2.033a5,5,0,0,1-1.61.264c-1.426,0-2.192-.554-2.192-2.244v-6.917h3.8v-2.086h-3.8v-3.67h-2.271v3.67h-2.8v2.086h2.8v7.208a3.716,3.716,0,0,0,4.04,4.039A6.308,6.308,0,0,0,577.61,142.305Zm7.735,5.7,8.66-18.72H591.47L586.955,139.3l-4.541-10.007h-2.508l5.782,12.515-2.878,6.2h2.535Zm14.1-7.288a1.954,1.954,0,1,0-1.954,1.981A1.989,1.989,0,0,0,599.442,140.721ZM54.535,195.289h1.992l4.657-17.043H58.856l-3.577,13.3-4.921-13.586-4.9,13.586-3.577-13.3H39.556l4.657,17.043h1.992l4.177-11.57Zm8.685-6a6.328,6.328,0,0,0,11.619,3.384l-1.632-1.128a4.249,4.249,0,0,1-7.9-1.848H75.15a5.856,5.856,0,0,0,.024-0.624c-0.024-3.841-2.569-6.025-5.713-6.025A6.082,6.082,0,0,0,63.22,189.288Zm6.169-4.417a3.591,3.591,0,0,1,3.673,3.145h-7.61A3.924,3.924,0,0,1,69.389,184.871Zm16.966,15.435H88.42v-6.865a5.264,5.264,0,0,0,4.225,2.088,6.252,6.252,0,0,0,0-12.482,5.264,5.264,0,0,0-4.225,2.088v-1.848H86.356v17.019Zm10.058-11.018a4.089,4.089,0,1,1-4.081-4.345A4.1,4.1,0,0,1,96.414,189.288Zm5.349,0a6.007,6.007,0,0,0,5.882,6.241,5.262,5.262,0,0,0,4.224-2.088v1.848h2.065v-12h-2.065v1.848a5.262,5.262,0,0,0-4.224-2.088A6.006,6.006,0,0,0,101.763,189.288Zm10.275,0a4.1,4.1,0,1,1-4.081-4.345A4.1,4.1,0,0,1,112.038,189.288Zm6.981,6h2.065v-5.953c0-2.809,1.656-4.129,3.168-4.129a3.022,3.022,0,0,1,1.129.192v-2.136a4.285,4.285,0,0,0-.937-0.1,3.57,3.57,0,0,0-3.36,2.448v-2.328h-2.065v12Zm16.49-.168v-1.848a4.568,4.568,0,0,1-1.465.24c-1.3,0-1.992-.5-1.992-2.041v-6.289h3.457v-1.9h-3.457V179.95h-2.065v3.337h-2.544v1.9h2.544v6.553a3.379,3.379,0,0,0,3.673,3.673A5.754,5.754,0,0,0,135.509,195.121Zm3.838,0.168h2.065v-5.953c0-2.809,1.536-4.393,3.48-4.393,1.681,0,2.833,1.248,2.833,3.265v7.081h2.04V187.9c0-2.977-1.848-4.849-4.537-4.849a4.243,4.243,0,0,0-3.816,2.088v-1.848h-2.065v12Zm14.4-6a6.327,6.327,0,0,0,11.618,3.384l-1.632-1.128a4.25,4.25,0,0,1-7.9-1.848h9.842a5.856,5.856,0,0,0,.024-0.624c-0.024-3.841-2.568-6.025-5.713-6.025A6.081,6.081,0,0,0,153.747,189.288Zm6.169-4.417a3.591,3.591,0,0,1,3.673,3.145h-7.61A3.924,3.924,0,0,1,159.916,184.871Zm9.911,10.418h2.064v-5.953c0-2.809,1.657-4.129,3.169-4.129a3.017,3.017,0,0,1,1.128.192v-2.136a4.276,4.276,0,0,0-.936-0.1,3.571,3.571,0,0,0-3.361,2.448v-2.328h-2.064v12Zm26.186,0h1.824l4.081-12h-2.184l-2.905,8.761-3-8.761h-1.584l-3,8.761-2.9-8.761h-2.161l4.081,12h1.825l2.976-8.642Zm11.83-16.683a1.449,1.449,0,0,0-1.44-1.464,1.491,1.491,0,0,0-1.489,1.464,1.475,1.475,0,0,0,1.489,1.464A1.434,1.434,0,0,0,207.843,178.606Zm-2.5,16.683h2.065v-12h-2.065v12Zm13.682-.168v-1.848a4.568,4.568,0,0,1-1.465.24c-1.3,0-1.992-.5-1.992-2.041v-6.289h3.457v-1.9h-3.457V179.95h-2.065v3.337h-2.544v1.9h2.544v6.553a3.379,3.379,0,0,0,3.673,3.673A5.749,5.749,0,0,0,219.028,195.121Zm3.838,0.168h2.065v-5.953c0-2.809,1.536-4.393,3.48-4.393,1.681,0,2.833,1.248,2.833,3.265v7.081h2.04V187.9c0-2.977-1.848-4.849-4.537-4.849a4.243,4.243,0,0,0-3.816,2.088v-7.849h-2.065v18Zm28.489-.168v-1.848a4.562,4.562,0,0,1-1.464.24c-1.3,0-1.993-.5-1.993-2.041v-6.289h3.457v-1.9H247.9V179.95h-2.064v3.337h-2.545v1.9h2.545v6.553a3.378,3.378,0,0,0,3.673,3.673A5.743,5.743,0,0,0,251.355,195.121Zm3.839,0.168h2.064v-5.953c0-2.809,1.536-4.393,3.481-4.393,1.68,0,2.832,1.248,2.832,3.265v7.081h2.041V187.9c0-2.977-1.849-4.849-4.537-4.849a4.244,4.244,0,0,0-3.817,2.088v-7.849h-2.064v18Zm14.4-6a6.328,6.328,0,0,0,11.619,3.384l-1.633-1.128a4.249,4.249,0,0,1-7.9-1.848h9.842a5.856,5.856,0,0,0,.024-0.624c-0.024-3.841-2.569-6.025-5.714-6.025A6.082,6.082,0,0,0,269.593,189.288Zm6.169-4.417a3.591,3.591,0,0,1,3.673,3.145h-7.609A3.923,3.923,0,0,1,275.762,184.871Zm19.031,8.57a5.264,5.264,0,0,0,4.225,2.088,6.252,6.252,0,0,0,0-12.482,5.264,5.264,0,0,0-4.225,2.088v-7.849h-2.064v18h2.064v-1.848Zm7.994-4.153a4.089,4.089,0,1,1-4.081-4.345A4.1,4.1,0,0,1,302.787,189.288Zm5.325,0a6.328,6.328,0,0,0,11.619,3.384l-1.632-1.128a4.25,4.25,0,0,1-7.9-1.848h9.842a5.856,5.856,0,0,0,.024-0.624c-0.024-3.841-2.569-6.025-5.713-6.025A6.082,6.082,0,0,0,308.112,189.288Zm6.17-4.417a3.592,3.592,0,0,1,3.673,3.145h-7.61A3.923,3.923,0,0,1,314.282,184.871Zm17.688,7.081c0-1.8-1.128-2.952-3.169-3.624l-1.3-.432c-1.416-.457-1.848-0.913-1.848-1.681,0-.888.888-1.392,2.016-1.392a3.244,3.244,0,0,1,2.545,1.248l1.344-1.3a4.654,4.654,0,0,0-3.841-1.728c-2.376,0-4.057,1.32-4.057,3.264,0,1.681,1.033,2.857,2.977,3.481l1.176,0.384c1.561,0.5,2.137,1.08,2.137,1.92,0,1.033-.937,1.633-2.113,1.633a3.22,3.22,0,0,1-3.072-1.9l-1.681.912a4.767,4.767,0,0,0,4.7,2.785C330.218,195.529,331.97,194.305,331.97,191.952Zm10.512,3.169v-1.848a4.564,4.564,0,0,1-1.465.24c-1.3,0-1.992-.5-1.992-2.041v-6.289h3.457v-1.9h-3.457V179.95h-2.064v3.337h-2.545v1.9h2.545v6.553a3.378,3.378,0,0,0,3.672,3.673A5.749,5.749,0,0,0,342.482,195.121Zm10.894,0.168h2.064v-5.953c0-2.713,1.369-4.393,3.313-4.393,1.56,0,2.353,1.344,2.353,3.289v7.057h2.064v-5.953c0-2.713,1.344-4.393,3.289-4.393,1.56,0,2.376,1.344,2.376,3.289v7.057H370.9V187.92c0-2.929-1.585-4.873-4.2-4.873a4.153,4.153,0,0,0-3.937,2.568,3.773,3.773,0,0,0-3.7-2.568,4.036,4.036,0,0,0-3.625,2.088v-1.848h-2.064v12Zm24.936-16.683a1.449,1.449,0,0,0-1.44-1.464,1.491,1.491,0,0,0-1.488,1.464,1.475,1.475,0,0,0,1.488,1.464A1.434,1.434,0,0,0,378.312,178.606Zm-2.5,16.683h2.064v-12h-2.064v12Zm7.176,0h2.064v-18h-2.064v18Zm7.176,0h2.064v-18h-2.064v18Zm14.953-3.337c0-1.8-1.128-2.952-3.169-3.624l-1.3-.432c-1.416-.457-1.848-0.913-1.848-1.681,0-.888.888-1.392,2.016-1.392a3.246,3.246,0,0,1,2.545,1.248l1.344-1.3a4.656,4.656,0,0,0-3.841-1.728c-2.376,0-4.057,1.32-4.057,3.264,0,1.681,1.032,2.857,2.977,3.481l1.176,0.384c1.56,0.5,2.137,1.08,2.137,1.92,0,1.033-.937,1.633-2.113,1.633a3.222,3.222,0,0,1-3.073-1.9l-1.68.912a4.767,4.767,0,0,0,4.705,2.785C403.369,195.529,405.121,194.305,405.121,191.952Zm17.3,3.169v-1.848a4.562,4.562,0,0,1-1.464.24c-1.3,0-1.992-.5-1.992-2.041v-6.289h3.456v-1.9h-3.456V179.95H416.9v3.337h-2.544v1.9H416.9v6.553a3.378,3.378,0,0,0,3.673,3.673A5.743,5.743,0,0,0,422.424,195.121Zm15.266-5.833a6.278,6.278,0,1,0-6.266,6.241A6.159,6.159,0,0,0,437.69,189.288Zm-10.443,0a4.168,4.168,0,1,1,4.177,4.321A4.126,4.126,0,0,1,427.247,189.288Zm29.425,2.664c0-1.8-1.128-2.952-3.169-3.624l-1.3-.432c-1.416-.457-1.848-0.913-1.848-1.681,0-.888.888-1.392,2.016-1.392a3.244,3.244,0,0,1,2.545,1.248l1.344-1.3a4.654,4.654,0,0,0-3.841-1.728c-2.376,0-4.057,1.32-4.057,3.264,0,1.681,1.033,2.857,2.977,3.481l1.176,0.384c1.561,0.5,2.137,1.08,2.137,1.92,0,1.033-.937,1.633-2.113,1.633a3.22,3.22,0,0,1-3.072-1.9l-1.681.912a4.767,4.767,0,0,0,4.7,2.785C454.92,195.529,456.672,194.305,456.672,191.952Zm15.745-2.664a6.278,6.278,0,1,0-6.266,6.241A6.159,6.159,0,0,0,472.417,189.288Zm-10.442,0a4.167,4.167,0,1,1,4.176,4.321A4.125,4.125,0,0,1,461.975,189.288Zm14.423,1.368c0,2.977,1.776,4.873,4.417,4.873a4.131,4.131,0,0,0,3.7-2.088v1.848h2.064v-12h-2.064v5.953c0,2.76-1.465,4.393-3.337,4.393-1.656,0-2.713-1.273-2.713-3.289v-7.057H476.4v7.369Zm15.264,4.633h2.064v-5.953c0-2.809,1.657-4.129,3.169-4.129a3.017,3.017,0,0,1,1.128.192v-2.136a4.276,4.276,0,0,0-.936-0.1,3.571,3.571,0,0,0-3.361,2.448v-2.328h-2.064v12Zm20.45-2.977-1.8-1.008a4.069,4.069,0,0,1-3.745,2.305,4.323,4.323,0,0,1,0-8.642,4.068,4.068,0,0,1,3.745,2.3l1.8-1.008a6.215,6.215,0,0,0-5.545-3.216,6.241,6.241,0,1,0,0,12.482A6.214,6.214,0,0,0,512.112,192.312Zm2.925-3.024a6.328,6.328,0,0,0,11.619,3.384l-1.632-1.128a4.25,4.25,0,0,1-7.9-1.848h9.842a5.856,5.856,0,0,0,.024-0.624c-0.024-3.841-2.568-6.025-5.713-6.025A6.082,6.082,0,0,0,515.037,189.288Zm6.17-4.417a3.591,3.591,0,0,1,3.673,3.145h-7.61A3.923,3.923,0,0,1,521.207,184.871Zm23.064,10.25v-1.848a4.568,4.568,0,0,1-1.465.24c-1.3,0-1.992-.5-1.992-2.041v-6.289h3.457v-1.9h-3.457V179.95H538.75v3.337h-2.545v1.9h2.545v6.553a3.378,3.378,0,0,0,3.672,3.673A5.749,5.749,0,0,0,544.271,195.121Zm3.838,0.168h2.065v-5.953c0-2.809,1.536-4.393,3.48-4.393,1.681,0,2.833,1.248,2.833,3.265v7.081h2.04V187.9c0-2.977-1.848-4.849-4.537-4.849a4.243,4.243,0,0,0-3.816,2.088v-7.849h-2.065v18Zm14.4-6a6.327,6.327,0,0,0,11.618,3.384l-1.632-1.128a4.25,4.25,0,0,1-7.9-1.848h9.842a5.856,5.856,0,0,0,.024-0.624c-0.024-3.841-2.568-6.025-5.713-6.025A6.081,6.081,0,0,0,562.509,189.288Zm6.169-4.417a3.591,3.591,0,0,1,3.673,3.145h-7.61A3.924,3.924,0,0,1,568.678,184.871Zm17.663,10.418h2.065V185.183h3.48v-1.9h-3.48v-2.209c0-1.512.672-2.04,1.992-2.04a4.833,4.833,0,0,1,1.488.24v-1.824a5.454,5.454,0,0,0-1.872-.312,3.427,3.427,0,0,0-3.673,3.72v2.425H583.8v1.9h2.544v10.106Zm10.3-16.683a1.449,1.449,0,0,0-1.44-1.464,1.491,1.491,0,0,0-1.488,1.464,1.475,1.475,0,0,0,1.488,1.464A1.434,1.434,0,0,0,596.639,178.606Zm-2.5,16.683h2.064v-12h-2.064v12Zm7.15,0h2.064v-5.953c0-2.809,1.536-4.393,3.481-4.393,1.68,0,2.832,1.248,2.832,3.265v7.081h2.041V187.9c0-2.977-1.849-4.849-4.537-4.849a4.245,4.245,0,0,0-3.817,2.088v-1.848h-2.064v12Zm14.4-6a6.328,6.328,0,0,0,11.619,3.384l-1.633-1.128a4.249,4.249,0,0,1-7.9-1.848h9.842a5.856,5.856,0,0,0,.024-0.624c-0.024-3.841-2.569-6.025-5.713-6.025A6.082,6.082,0,0,0,615.692,189.288Zm6.169-4.417a3.591,3.591,0,0,1,3.673,3.145h-7.609A3.923,3.923,0,0,1,621.861,184.871Zm17.689,7.081c0-1.8-1.128-2.952-3.169-3.624l-1.3-.432c-1.416-.457-1.848-0.913-1.848-1.681,0-.888.888-1.392,2.016-1.392a3.246,3.246,0,0,1,2.545,1.248l1.344-1.3a4.656,4.656,0,0,0-3.841-1.728c-2.377,0-4.057,1.32-4.057,3.264,0,1.681,1.032,2.857,2.977,3.481l1.176,0.384c1.56,0.5,2.136,1.08,2.136,1.92,0,1.033-.936,1.633-2.112,1.633a3.221,3.221,0,0,1-3.073-1.9l-1.68.912a4.767,4.767,0,0,0,4.705,2.785C637.8,195.529,639.55,194.305,639.55,191.952Zm10.511,3.169v-1.848a4.562,4.562,0,0,1-1.464.24c-1.3,0-1.992-.5-1.992-2.041v-6.289h3.456v-1.9h-3.456V179.95H644.54v3.337H642v1.9h2.544v6.553a3.379,3.379,0,0,0,3.673,3.673A5.743,5.743,0,0,0,650.061,195.121Zm-608.1,28.967h2.064V213.982H47.5v-1.9H44.021v-2.208c0-1.513.672-2.041,1.992-2.041a4.835,4.835,0,0,1,1.488.24v-1.824a5.456,5.456,0,0,0-1.872-.312,3.428,3.428,0,0,0-3.673,3.72v2.425H39.412v1.9h2.544v10.106Zm7.752-6a6.006,6.006,0,0,0,5.881,6.241,5.264,5.264,0,0,0,4.225-2.088v1.848h2.064v-12H59.814v1.848a5.264,5.264,0,0,0-4.225-2.088A6.006,6.006,0,0,0,49.708,218.087Zm10.274,0a4.1,4.1,0,1,1-4.081-4.345A4.1,4.1,0,0,1,59.982,218.087Zm9.046,4.153a5.264,5.264,0,0,0,4.225,2.088,6.252,6.252,0,0,0,0-12.482,5.264,5.264,0,0,0-4.225,2.088v-7.849H66.964v18h2.064V222.24Zm7.994-4.153a4.089,4.089,0,1,1-4.081-4.345A4.1,4.1,0,0,1,77.022,218.087Zm6.262,6h2.064v-5.953c0-2.808,1.656-4.129,3.169-4.129a3.018,3.018,0,0,1,1.128.192v-2.136a4.279,4.279,0,0,0-.936-0.1,3.571,3.571,0,0,0-3.361,2.448v-2.328H83.284v12Zm12.481-16.683a1.449,1.449,0,0,0-1.44-1.464,1.491,1.491,0,0,0-1.488,1.464,1.475,1.475,0,0,0,1.488,1.464A1.435,1.435,0,0,0,95.764,207.405Zm-2.5,16.683h2.064v-12H93.268v12Zm18.074-2.976-1.8-1.009a4.069,4.069,0,0,1-3.745,2.3,4.323,4.323,0,0,1,0-8.642,4.069,4.069,0,0,1,3.745,2.305l1.8-1.008a6.215,6.215,0,0,0-5.545-3.217,6.241,6.241,0,1,0,0,12.482A6.216,6.216,0,0,0,111.342,221.112Zm11.639-.36c0-1.8-1.128-2.953-3.169-3.625l-1.3-.432c-1.416-.456-1.848-0.912-1.848-1.681,0-.888.888-1.392,2.016-1.392a3.246,3.246,0,0,1,2.545,1.248l1.344-1.3a4.656,4.656,0,0,0-3.841-1.728c-2.376,0-4.057,1.32-4.057,3.265,0,1.68,1.032,2.856,2.977,3.48l1.176,0.384c1.56,0.5,2.137,1.08,2.137,1.921,0,1.032-.937,1.632-2.113,1.632a3.223,3.223,0,0,1-3.073-1.9l-1.68.912a4.768,4.768,0,0,0,4.7,2.784C121.229,224.328,122.981,223.1,122.981,220.752Zm20.952,3.336h1.825l4.08-12h-2.184l-2.905,8.762-3-8.762h-1.585l-3,8.762-2.905-8.762H132.1l4.081,12H138l2.977-8.641Zm11.83-16.683a1.449,1.449,0,0,0-1.44-1.464,1.491,1.491,0,0,0-1.488,1.464,1.475,1.475,0,0,0,1.488,1.464A1.434,1.434,0,0,0,155.763,207.405Zm-2.5,16.683h2.064v-12h-2.064v12Zm13.681-.168v-1.848a4.562,4.562,0,0,1-1.464.24c-1.3,0-1.993-.5-1.993-2.041v-6.289h3.457v-1.9h-3.457v-3.337h-2.064v3.337h-2.545v1.9h2.545v6.554a3.378,3.378,0,0,0,3.672,3.672A5.744,5.744,0,0,0,166.948,223.92Zm3.838,0.168h2.065v-5.953c0-2.808,1.536-4.393,3.481-4.393,1.68,0,2.832,1.248,2.832,3.265v7.081h2.041V216.7c0-2.977-1.849-4.849-4.537-4.849a4.244,4.244,0,0,0-3.817,2.088v-7.849h-2.065v18Zm28.489-.168v-1.848a4.562,4.562,0,0,1-1.464.24c-1.3,0-1.992-.5-1.992-2.041v-6.289h3.456v-1.9h-3.456v-3.337h-2.065v3.337H191.21v1.9h2.544v6.554a3.378,3.378,0,0,0,3.673,3.672A5.743,5.743,0,0,0,199.275,223.92Zm3.839,0.168h2.064v-5.953c0-2.808,1.537-4.393,3.481-4.393,1.68,0,2.833,1.248,2.833,3.265v7.081h2.04V216.7c0-2.977-1.848-4.849-4.537-4.849a4.245,4.245,0,0,0-3.817,2.088v-7.849h-2.064v18Zm14.4-6a6.328,6.328,0,0,0,11.619,3.385l-1.632-1.129a4.25,4.25,0,0,1-7.9-1.848h9.842a5.856,5.856,0,0,0,.024-0.624c-0.024-3.841-2.569-6.025-5.713-6.025A6.082,6.082,0,0,0,217.513,218.087Zm6.17-4.417a3.59,3.59,0,0,1,3.672,3.145h-7.609A3.923,3.923,0,0,1,223.683,213.67Zm16.966,10.418h2.065v-18h-2.065v18Zm6.24-6a6.005,6.005,0,0,0,5.881,6.241A5.264,5.264,0,0,0,257,222.24v1.848h2.064v-12H257v1.848a5.264,5.264,0,0,0-4.225-2.088A6.005,6.005,0,0,0,246.889,218.087Zm10.274,0a4.1,4.1,0,1,1-4.081-4.345A4.1,4.1,0,0,1,257.163,218.087Zm13.487,5.833v-1.848a4.562,4.562,0,0,1-1.464.24c-1.3,0-1.993-.5-1.993-2.041v-6.289h3.457v-1.9h-3.457v-3.337h-2.064v3.337h-2.545v1.9h2.545v6.554a3.378,3.378,0,0,0,3.673,3.672A5.743,5.743,0,0,0,270.65,223.92Zm2.735-5.833A6.328,6.328,0,0,0,285,221.472l-1.632-1.129a4.25,4.25,0,0,1-7.9-1.848h9.842a5.856,5.856,0,0,0,.024-0.624c-0.024-3.841-2.568-6.025-5.713-6.025A6.081,6.081,0,0,0,273.385,218.087Zm6.169-4.417a3.591,3.591,0,0,1,3.673,3.145h-7.61A3.924,3.924,0,0,1,279.554,213.67Zm17.688,7.082c0-1.8-1.128-2.953-3.168-3.625l-1.3-.432c-1.416-.456-1.848-0.912-1.848-1.681,0-.888.888-1.392,2.016-1.392a3.243,3.243,0,0,1,2.545,1.248l1.344-1.3a4.654,4.654,0,0,0-3.84-1.728c-2.377,0-4.057,1.32-4.057,3.265,0,1.68,1.032,2.856,2.976,3.48l1.177,0.384c1.56,0.5,2.136,1.08,2.136,1.921,0,1.032-.936,1.632-2.112,1.632a3.221,3.221,0,0,1-3.073-1.9l-1.68.912a4.767,4.767,0,0,0,4.7,2.784C295.49,224.328,297.242,223.1,297.242,220.752Zm10.512,3.168v-1.848a4.562,4.562,0,0,1-1.464.24c-1.3,0-1.993-.5-1.993-2.041v-6.289h3.457v-1.9H304.3v-3.337h-2.064v3.337h-2.545v1.9h2.545v6.554a3.378,3.378,0,0,0,3.673,3.672A5.743,5.743,0,0,0,307.754,223.92Zm13.391-16.515a1.45,1.45,0,0,0-1.441-1.464,1.491,1.491,0,0,0-1.488,1.464,1.475,1.475,0,0,0,1.488,1.464A1.435,1.435,0,0,0,321.145,207.405Zm-2.5,16.683h2.065v-12h-2.065v12Zm7.176,0h2.065v-5.953c0-2.808,1.536-4.393,3.48-4.393,1.681,0,2.833,1.248,2.833,3.265v7.081h2.04V216.7c0-2.977-1.848-4.849-4.537-4.849a4.243,4.243,0,0,0-3.816,2.088v-1.848h-2.065v12Zm15.336,0h2.064v-5.953c0-2.808,1.537-4.393,3.481-4.393,1.68,0,2.833,1.248,2.833,3.265v7.081h2.04V216.7c0-2.977-1.848-4.849-4.537-4.849a4.245,4.245,0,0,0-3.817,2.088v-1.848H341.16v12Zm26.93-6a6.278,6.278,0,1,0-6.265,6.241A6.159,6.159,0,0,0,368.09,218.087Zm-10.442,0a4.168,4.168,0,1,1,4.177,4.321A4.126,4.126,0,0,1,357.648,218.087Zm18.072,6h1.729l5.545-12h-2.305l-4.1,9.074-4.1-9.074h-2.305Zm9.383-6a6.006,6.006,0,0,0,5.882,6.241,5.262,5.262,0,0,0,4.224-2.088v1.848h2.065v-12h-2.065v1.848a5.262,5.262,0,0,0-4.224-2.088A6.006,6.006,0,0,0,385.1,218.087Zm10.274,0a4.1,4.1,0,1,1-4.08-4.345A4.1,4.1,0,0,1,395.377,218.087Zm13.488,5.833v-1.848a4.568,4.568,0,0,1-1.465.24c-1.3,0-1.992-.5-1.992-2.041v-6.289h3.457v-1.9h-3.457v-3.337h-2.065v3.337H400.8v1.9h2.544v6.554a3.379,3.379,0,0,0,3.673,3.672A5.749,5.749,0,0,0,408.865,223.92Zm6.335-16.515a1.45,1.45,0,0,0-1.441-1.464,1.491,1.491,0,0,0-1.488,1.464,1.475,1.475,0,0,0,1.488,1.464A1.435,1.435,0,0,0,415.2,207.405Zm-2.5,16.683h2.065v-12H412.7v12Zm18.77-6a6.277,6.277,0,1,0-6.265,6.241A6.159,6.159,0,0,0,431.473,218.087Zm-10.442,0a4.168,4.168,0,1,1,4.177,4.321A4.126,4.126,0,0,1,421.031,218.087Zm14.592,6h2.064v-5.953c0-2.808,1.536-4.393,3.481-4.393,1.68,0,2.832,1.248,2.832,3.265v7.081h2.041V216.7c0-2.977-1.848-4.849-4.537-4.849a4.245,4.245,0,0,0-3.817,2.088v-1.848h-2.064v12Zm18.192-1.608a1.777,1.777,0,1,0-1.776,1.8A1.808,1.808,0,0,0,453.815,222.48Zm14.424,1.608h2.185V209.157h5.305v-2.112H462.934v2.112h5.3v14.931Zm10.871,0h2.065v-5.953c0-2.808,1.536-4.393,3.48-4.393,1.681,0,2.833,1.248,2.833,3.265v7.081h2.041V216.7c0-2.977-1.849-4.849-4.537-4.849a4.244,4.244,0,0,0-3.817,2.088v-7.849H479.11v18Zm17.833-16.683a1.45,1.45,0,0,0-1.441-1.464,1.491,1.491,0,0,0-1.488,1.464,1.475,1.475,0,0,0,1.488,1.464A1.435,1.435,0,0,0,496.943,207.405Zm-2.5,16.683h2.064v-12h-2.064v12Zm14.954-3.336c0-1.8-1.129-2.953-3.169-3.625l-1.3-.432c-1.417-.456-1.849-0.912-1.849-1.681,0-.888.888-1.392,2.017-1.392a3.242,3.242,0,0,1,2.544,1.248l1.344-1.3a4.654,4.654,0,0,0-3.84-1.728c-2.377,0-4.057,1.32-4.057,3.265,0,1.68,1.032,2.856,2.976,3.48l1.177,0.384c1.56,0.5,2.136,1.08,2.136,1.921,0,1.032-.936,1.632-2.112,1.632a3.221,3.221,0,0,1-3.073-1.9l-1.68.912a4.767,4.767,0,0,0,4.705,2.784C507.647,224.328,509.4,223.1,509.4,220.752Zm11.517,3.336h2.233V207.045h-2.233v17.043Zm14.114-.168v-1.848a4.564,4.564,0,0,1-1.465.24c-1.3,0-1.992-.5-1.992-2.041v-6.289h3.457v-1.9h-3.457v-3.337H529.51v3.337h-2.545v1.9h2.545v6.554a3.378,3.378,0,0,0,3.672,3.672A5.744,5.744,0,0,0,535.031,223.92Zm2.734-5.833a6.006,6.006,0,0,0,5.882,6.241,5.262,5.262,0,0,0,4.224-2.088v1.848h2.065v-12h-2.065v1.848a5.262,5.262,0,0,0-4.224-2.088A6.006,6.006,0,0,0,537.765,218.087Zm10.275,0a4.1,4.1,0,1,1-4.081-4.345A4.1,4.1,0,0,1,548.04,218.087Zm6.981,6h2.065v-18h-2.065v18Zm9.673-16.683a1.45,1.45,0,0,0-1.441-1.464,1.491,1.491,0,0,0-1.488,1.464,1.475,1.475,0,0,0,1.488,1.464A1.435,1.435,0,0,0,564.694,207.405Zm-2.5,16.683h2.065v-12H562.2v12Zm6.24-6a6.005,6.005,0,0,0,5.881,6.241,5.264,5.264,0,0,0,4.225-2.088v1.848h2.064v-12h-2.064v1.848a5.264,5.264,0,0,0-4.225-2.088A6.005,6.005,0,0,0,568.437,218.087Zm10.274,0a4.1,4.1,0,1,1-4.081-4.345A4.1,4.1,0,0,1,578.711,218.087Zm6.982,6h2.064v-5.953c0-2.808,1.536-4.393,3.481-4.393,1.68,0,2.832,1.248,2.832,3.265v7.081h2.041V216.7c0-2.977-1.848-4.849-4.537-4.849a4.245,4.245,0,0,0-3.817,2.088v-1.848h-2.064v12ZM49.638,247.9l6.145-8.258v13.25h2.209V235.844H55.975l-6.337,8.5-6.337-8.5H41.26v17.043h2.233v-13.25Zm25.153-1.009a6.277,6.277,0,1,0-6.265,6.241A6.16,6.16,0,0,0,74.791,246.886Zm-10.442,0a4.168,4.168,0,1,1,4.177,4.321A4.125,4.125,0,0,1,64.348,246.886Zm20.881,5.833v-1.848a4.564,4.564,0,0,1-1.464.24c-1.3,0-1.992-.5-1.992-2.04v-6.289H85.23v-1.9H81.773v-3.336H79.708v3.336H77.164v1.9h2.544v6.553a3.378,3.378,0,0,0,3.673,3.672A5.745,5.745,0,0,0,85.23,252.719ZM91.565,236.2a1.45,1.45,0,0,0-1.44-1.464,1.465,1.465,0,1,0,0,2.929A1.436,1.436,0,0,0,91.565,236.2Zm-2.5,16.683h2.064v-12H89.068v12Zm18.77-6a6.277,6.277,0,1,0-6.265,6.241A6.159,6.159,0,0,0,107.838,246.886Zm-10.442,0a4.168,4.168,0,1,1,4.177,4.321A4.125,4.125,0,0,1,97.4,246.886Zm14.592,6h2.064v-5.953c0-2.808,1.536-4.392,3.481-4.392,1.68,0,2.832,1.248,2.832,3.264v7.081h2.041v-7.393c0-2.976-1.849-4.849-4.537-4.849a4.244,4.244,0,0,0-3.817,2.089v-1.849h-2.064v12Zm14.951-5.689h6.122v-2.064h-6.122V247.2Zm9.288,2.905c0.888,1.752,3.169,3.073,5.977,3.073,3.169,0,5.426-1.825,5.426-4.729,0-2.521-1.441-3.961-3.961-4.921l-2.065-.792c-1.728-.649-2.568-1.3-2.568-2.737,0-1.416,1.392-2.352,3.072-2.352a4.217,4.217,0,0,1,3.385,1.68l1.632-1.44a6.213,6.213,0,0,0-4.969-2.329c-3.048,0-5.329,1.753-5.329,4.537,0,2.328,1.2,3.721,3.865,4.705l2.257,0.864c1.584,0.6,2.448,1.512,2.448,2.881,0,1.584-1.392,2.544-3.145,2.544a4.764,4.764,0,0,1-4.225-2.328Zm21.7,2.616v-1.848a4.568,4.568,0,0,1-1.465.24c-1.3,0-1.992-.5-1.992-2.04v-6.289h3.457v-1.9h-3.457v-3.336H152.4v3.336h-2.544v1.9H152.4v6.553a3.379,3.379,0,0,0,3.673,3.672A5.754,5.754,0,0,0,157.925,252.719Zm3.838,0.168h2.065v-5.953c0-2.808,1.656-4.128,3.168-4.128a3.017,3.017,0,0,1,1.128.192v-2.137a4.276,4.276,0,0,0-.936-0.1,3.57,3.57,0,0,0-3.36,2.449v-2.329h-2.065v12Zm8.616-6A6.328,6.328,0,0,0,182,250.271l-1.633-1.128a4.249,4.249,0,0,1-7.9-1.849h9.842a5.856,5.856,0,0,0,.024-0.624c-0.024-3.84-2.569-6.025-5.714-6.025A6.083,6.083,0,0,0,170.379,246.886Zm6.169-4.417a3.591,3.591,0,0,1,3.673,3.145h-7.609A3.924,3.924,0,0,1,176.548,242.469Zm16.249,10.25v-1.848a4.564,4.564,0,0,1-1.465.24c-1.3,0-1.992-.5-1.992-2.04v-6.289H192.8v-1.9H189.34v-3.336h-2.064v3.336h-2.545v1.9h2.545v6.553a3.378,3.378,0,0,0,3.672,3.672A5.744,5.744,0,0,0,192.8,252.719Zm14.569-2.808-1.8-1.008a4.07,4.07,0,0,1-3.745,2.3,4.322,4.322,0,0,1,0-8.641,4.07,4.07,0,0,1,3.745,2.3l1.8-1.008a6.215,6.215,0,0,0-5.545-3.217,6.241,6.241,0,1,0,0,12.482A6.216,6.216,0,0,0,207.366,249.911Zm3.861,2.976h2.065v-5.953c0-2.808,1.536-4.392,3.48-4.392,1.681,0,2.833,1.248,2.833,3.264v7.081h2.041v-7.393c0-2.976-1.849-4.849-4.537-4.849a4.243,4.243,0,0,0-3.817,2.089v-7.85h-2.065v18Zm35.427,0h1.992l4.657-17.043h-2.328l-3.577,13.3-4.921-13.587-4.9,13.587L234,235.844h-2.328l4.657,17.043h1.992l4.177-11.57Zm21.215-6a6.278,6.278,0,1,0-6.265,6.241A6.159,6.159,0,0,0,267.869,246.886Zm-10.442,0a4.168,4.168,0,1,1,4.177,4.321A4.125,4.125,0,0,1,257.427,246.886Zm26.186,0a6.278,6.278,0,1,0-6.265,6.241A6.16,6.16,0,0,0,283.613,246.886Zm-10.442,0a4.167,4.167,0,1,1,4.177,4.321A4.125,4.125,0,0,1,273.171,246.886Zm14.591,6h2.065v-18h-2.065v18Zm13.151-2.784c0.889,1.752,3.169,3.073,5.978,3.073,3.168,0,5.425-1.825,5.425-4.729,0-2.521-1.44-3.961-3.961-4.921l-2.064-.792c-1.729-.649-2.569-1.3-2.569-2.737,0-1.416,1.392-2.352,3.073-2.352a4.217,4.217,0,0,1,3.384,1.68l1.633-1.44a6.215,6.215,0,0,0-4.969-2.329c-3.049,0-5.329,1.753-5.329,4.537,0,2.328,1.2,3.721,3.864,4.705l2.257,0.864c1.584,0.6,2.448,1.512,2.448,2.881,0,1.584-1.392,2.544-3.144,2.544a4.762,4.762,0,0,1-4.225-2.328Zm15.36-1.848c0,2.976,1.777,4.872,4.417,4.872a4.129,4.129,0,0,0,3.7-2.088v1.848h2.064v-12h-2.064v5.953c0,2.761-1.464,4.393-3.337,4.393-1.656,0-2.712-1.272-2.712-3.288v-7.058h-2.065v7.37ZM334.034,236.2a1.45,1.45,0,0,0-1.441-1.464,1.465,1.465,0,1,0,0,2.929A1.436,1.436,0,0,0,334.034,236.2Zm-2.5,16.683H333.6v-12h-2.065v12Zm13.681-.168v-1.848a4.562,4.562,0,0,1-1.464.24c-1.3,0-1.992-.5-1.992-2.04v-6.289h3.456v-1.9h-3.456v-3.336H339.7v3.336h-2.544v1.9H339.7v6.553a3.379,3.379,0,0,0,3.673,3.672A5.743,5.743,0,0,0,345.218,252.719Zm11.591,0.168h2.065v-10.1h3.48v-1.9h-3.48v-2.208c0-1.513.672-2.041,1.992-2.041a4.833,4.833,0,0,1,1.488.24v-1.824a5.454,5.454,0,0,0-1.872-.312,3.428,3.428,0,0,0-3.673,3.721v2.424h-2.544v1.9h2.544v10.1Zm7.752-6a6.328,6.328,0,0,0,11.618,3.385l-1.632-1.128a4.25,4.25,0,0,1-7.9-1.849h9.842a5.856,5.856,0,0,0,.024-0.624c-0.024-3.84-2.568-6.025-5.713-6.025A6.082,6.082,0,0,0,364.561,246.886Zm6.169-4.417a3.591,3.591,0,0,1,3.673,3.145h-7.61A3.925,3.925,0,0,1,370.73,242.469Zm8.975,4.417a6.005,6.005,0,0,0,5.881,6.241,5.264,5.264,0,0,0,4.225-2.088v1.848h2.064v-12h-2.064v1.849a5.262,5.262,0,0,0-4.225-2.089A6.006,6.006,0,0,0,379.705,246.886Zm10.274,0a4.1,4.1,0,1,1-4.081-4.344A4.1,4.1,0,0,1,389.979,246.886Zm13.487,5.833v-1.848a4.562,4.562,0,0,1-1.464.24c-1.3,0-1.993-.5-1.993-2.04v-6.289h3.457v-1.9h-3.457v-3.336h-2.064v3.336H395.4v1.9h2.545v6.553a3.378,3.378,0,0,0,3.673,3.672A5.743,5.743,0,0,0,403.466,252.719Zm3.671-4.464c0,2.976,1.776,4.872,4.417,4.872a4.129,4.129,0,0,0,3.7-2.088v1.848h2.065v-12H415.25v5.953c0,2.761-1.464,4.393-3.336,4.393-1.657,0-2.713-1.272-2.713-3.288v-7.058h-2.064v7.37Zm15.264,4.632h2.064v-5.953c0-2.808,1.656-4.128,3.169-4.128a3.017,3.017,0,0,1,1.128.192v-2.137a4.276,4.276,0,0,0-.936-0.1,3.57,3.57,0,0,0-3.361,2.449v-2.329H422.4v12Zm8.615-6a6.328,6.328,0,0,0,11.619,3.385L441,249.143a4.25,4.25,0,0,1-7.9-1.849h9.842a5.856,5.856,0,0,0,.024-0.624c-0.024-3.84-2.569-6.025-5.713-6.025A6.083,6.083,0,0,0,431.016,246.886Zm6.17-4.417a3.592,3.592,0,0,1,3.673,3.145h-7.61A3.924,3.924,0,0,1,437.186,242.469Zm17.688,7.082c0-1.8-1.128-2.953-3.168-3.625l-1.3-.432c-1.416-.456-1.848-0.912-1.848-1.68,0-.888.888-1.393,2.016-1.393a3.245,3.245,0,0,1,2.545,1.249l1.344-1.3a4.654,4.654,0,0,0-3.841-1.728c-2.376,0-4.057,1.32-4.057,3.265,0,1.68,1.033,2.856,2.977,3.48l1.176,0.384c1.561,0.5,2.137,1.081,2.137,1.921,0,1.032-.936,1.632-2.113,1.632a3.221,3.221,0,0,1-3.072-1.9l-1.681.912a4.768,4.768,0,0,0,4.7,2.784C453.122,253.127,454.874,251.9,454.874,249.551Zm10.27-2.665a6.005,6.005,0,0,0,5.881,6.241,5.264,5.264,0,0,0,4.225-2.088v1.848h2.064v-12H475.25v1.849a5.262,5.262,0,0,0-4.225-2.089A6.006,6.006,0,0,0,465.144,246.886Zm10.274,0a4.1,4.1,0,1,1-4.081-4.344A4.1,4.1,0,0,1,475.418,246.886Zm13.869,1.369c0,2.976,1.777,4.872,4.417,4.872a4.129,4.129,0,0,0,3.7-2.088v1.848h2.065v-12H497.4v5.953c0,2.761-1.464,4.393-3.337,4.393-1.656,0-2.712-1.272-2.712-3.288v-7.058h-2.065v7.37Zm15.264,4.632h2.065v-5.953c0-2.808,1.536-4.392,3.481-4.392,1.68,0,2.832,1.248,2.832,3.264v7.081h2.041v-7.393c0-2.976-1.849-4.849-4.537-4.849a4.243,4.243,0,0,0-3.817,2.089v-1.849h-2.065v12ZM522.384,236.2a1.45,1.45,0,0,0-1.441-1.464,1.465,1.465,0,1,0,0,2.929A1.436,1.436,0,0,0,522.384,236.2Zm-2.5,16.683h2.065v-12h-2.065v12Zm16.346,5.017H538.3V240.885h-2.064v1.849a5.262,5.262,0,0,0-4.225-2.089,6.252,6.252,0,0,0,0,12.482,5.264,5.264,0,0,0,4.225-2.088V257.9Zm0.168-11.018a4.1,4.1,0,1,1-4.081-4.344A4.1,4.1,0,0,1,536.4,246.886Zm6.814,1.369c0,2.976,1.776,4.872,4.417,4.872a4.129,4.129,0,0,0,3.7-2.088v1.848h2.065v-12h-2.065v5.953c0,2.761-1.464,4.393-3.336,4.393-1.657,0-2.713-1.272-2.713-3.288v-7.058h-2.064v7.37Zm14.327-1.369a6.328,6.328,0,0,0,11.619,3.385l-1.633-1.128a4.249,4.249,0,0,1-7.9-1.849h9.842a5.856,5.856,0,0,0,.024-0.624c-0.024-3.84-2.569-6.025-5.713-6.025A6.083,6.083,0,0,0,557.542,246.886Zm6.17-4.417a3.591,3.591,0,0,1,3.672,3.145h-7.609A3.924,3.924,0,0,1,563.712,242.469Zm16.966,10.418h2.065v-6l6.5,6h2.785l-7.226-6.7,5.9-5.305h-2.736l-5.233,4.681V234.884h-2.065v18Zm14.136,0h2.064v-5.953c0-2.808,1.537-4.392,3.481-4.392,1.68,0,2.833,1.248,2.833,3.264v7.081h2.04v-7.393c0-2.976-1.848-4.849-4.537-4.849a4.244,4.244,0,0,0-3.817,2.089v-1.849h-2.064v12ZM612.646,236.2a1.449,1.449,0,0,0-1.44-1.464,1.465,1.465,0,1,0,0,2.929A1.435,1.435,0,0,0,612.646,236.2Zm-2.5,16.683h2.064v-12H610.15v12Zm13.681-.168v-1.848a4.564,4.564,0,0,1-1.465.24c-1.3,0-1.992-.5-1.992-2.04v-6.289h3.457v-1.9h-3.457v-3.336H618.31v3.336h-2.545v1.9h2.545v6.553a3.378,3.378,0,0,0,3.672,3.672A5.744,5.744,0,0,0,623.831,252.719ZM41.956,281.687h2.064V271.581H47.5v-1.9H44.021v-2.208c0-1.512.672-2.04,1.992-2.04a4.835,4.835,0,0,1,1.488.24v-1.825a5.456,5.456,0,0,0-1.872-.312,3.428,3.428,0,0,0-3.673,3.721v2.424H39.412v1.9h2.544v10.106Zm7.752-6a6.006,6.006,0,0,0,5.881,6.241,5.262,5.262,0,0,0,4.225-2.089v1.849h2.064v-12H59.814v1.849a5.265,5.265,0,0,0-4.225-2.089A6.007,6.007,0,0,0,49.708,275.686Zm10.274,0a4.1,4.1,0,1,1-4.081-4.345A4.1,4.1,0,0,1,59.982,275.686Zm9.046,4.152a5.262,5.262,0,0,0,4.225,2.089,6.253,6.253,0,0,0,0-12.483,5.265,5.265,0,0,0-4.225,2.089v-7.85H66.964v18h2.064v-1.849Zm7.994-4.152a4.089,4.089,0,1,1-4.081-4.345A4.1,4.1,0,0,1,77.022,275.686Zm6.262,6h2.064v-5.953c0-2.809,1.656-4.129,3.169-4.129a3.018,3.018,0,0,1,1.128.192V269.66a4.279,4.279,0,0,0-.936-0.1,3.572,3.572,0,0,0-3.361,2.449v-2.329H83.284v12ZM95.764,265a1.45,1.45,0,0,0-1.44-1.465A1.491,1.491,0,0,0,92.836,265a1.475,1.475,0,0,0,1.488,1.464A1.435,1.435,0,0,0,95.764,265Zm-2.5,16.683h2.064v-12H93.268v12Zm18.074-2.977-1.8-1.008a4.07,4.07,0,0,1-3.745,2.3,4.322,4.322,0,0,1,0-8.641,4.07,4.07,0,0,1,3.745,2.3l1.8-1.008a6.217,6.217,0,0,0-5.545-3.217,6.242,6.242,0,1,0,0,12.483A6.215,6.215,0,0,0,111.342,278.71Zm11.614,2.977h2.064V271.581H128.5v-1.9H125.02v-2.208c0-1.512.672-2.04,1.992-2.04a4.834,4.834,0,0,1,1.489.24v-1.825a5.456,5.456,0,0,0-1.873-.312,3.428,3.428,0,0,0-3.672,3.721v2.424h-2.545v1.9h2.545v10.106Zm9,0h2.065v-5.953c0-2.809,1.656-4.129,3.168-4.129a3.017,3.017,0,0,1,1.128.192V269.66a4.276,4.276,0,0,0-.936-0.1,3.571,3.571,0,0,0-3.36,2.449v-2.329h-2.065v12Zm21.147-6a6.278,6.278,0,1,0-6.266,6.241A6.16,6.16,0,0,0,153.1,275.686Zm-10.442,0a4.167,4.167,0,1,1,4.176,4.32A4.125,4.125,0,0,1,142.66,275.686Zm14.591,6h2.064v-5.953c0-2.713,1.369-4.393,3.313-4.393,1.56,0,2.353,1.344,2.353,3.288v7.058h2.064v-5.953c0-2.713,1.344-4.393,3.289-4.393,1.56,0,2.376,1.344,2.376,3.288v7.058h2.065v-7.37c0-2.928-1.585-4.873-4.2-4.873a4.154,4.154,0,0,0-3.937,2.569,3.773,3.773,0,0,0-3.7-2.569,4.037,4.037,0,0,0-3.625,2.089v-1.849h-2.064v12Zm35.593-.168V279.67a4.562,4.562,0,0,1-1.464.24c-1.3,0-1.993-.5-1.993-2.04v-6.289h3.457v-1.9h-3.457v-3.336h-2.064v3.336h-2.545v1.9h2.545v6.553A3.378,3.378,0,0,0,191,281.807,5.743,5.743,0,0,0,192.844,281.519Zm3.839,0.168h2.064v-5.953c0-2.809,1.536-4.393,3.481-4.393,1.68,0,2.832,1.248,2.832,3.264v7.082H207.1v-7.394c0-2.976-1.849-4.849-4.537-4.849a4.245,4.245,0,0,0-3.817,2.089v-7.85h-2.064v18Zm14.4-6A6.328,6.328,0,0,0,222.7,279.07l-1.633-1.128a4.25,4.25,0,0,1-7.9-1.848h9.843a5.856,5.856,0,0,0,.024-0.624c-0.024-3.841-2.569-6.026-5.714-6.026A6.083,6.083,0,0,0,211.082,275.686Zm6.169-4.417a3.591,3.591,0,0,1,3.673,3.144h-7.609A3.923,3.923,0,0,1,217.251,271.269Zm26.713,10.418h1.825l4.08-12h-2.184l-2.905,8.762-3-8.762H240.2l-3,8.762-2.905-8.762h-2.16l4.081,12h1.824l2.977-8.642Zm20.88-6a6.277,6.277,0,1,0-6.265,6.241A6.159,6.159,0,0,0,264.844,275.686Zm-10.442,0a4.168,4.168,0,1,1,4.177,4.32A4.125,4.125,0,0,1,254.4,275.686Zm14.591,6h2.065v-5.953c0-2.809,1.656-4.129,3.169-4.129a3.017,3.017,0,0,1,1.128.192V269.66a4.276,4.276,0,0,0-.936-0.1,3.571,3.571,0,0,0-3.361,2.449v-2.329h-2.065v12Zm9.984,0h2.065v-18h-2.065v18Zm6.24-6a6.006,6.006,0,0,0,5.881,6.241,5.261,5.261,0,0,0,4.225-2.089v1.849h2.065v-18h-2.065v7.85a5.264,5.264,0,0,0-4.225-2.089A6.007,6.007,0,0,0,285.217,275.686Zm10.274,0a4.1,4.1,0,1,1-4.081-4.345A4.1,4.1,0,0,1,295.491,275.686Zm6.6,0.312h6.121v-2.065h-6.121V276Zm10.848,5.689H315v-5.953c0-2.809,1.656-4.129,3.169-4.129a3.017,3.017,0,0,1,1.128.192V269.66a4.276,4.276,0,0,0-.936-0.1A3.571,3.571,0,0,0,315,272.013v-2.329h-2.064v12Zm8.616-6a6.327,6.327,0,0,0,11.618,3.384l-1.632-1.128a4.25,4.25,0,0,1-7.9-1.848h9.842a5.856,5.856,0,0,0,.024-0.624c-0.024-3.841-2.568-6.026-5.713-6.026A6.082,6.082,0,0,0,321.553,275.686Zm6.169-4.417a3.591,3.591,0,0,1,3.673,3.144h-7.61A3.924,3.924,0,0,1,327.722,271.269Zm9.911,10.418H339.7v-5.953c0-2.809,1.536-4.393,3.481-4.393,1.68,0,2.832,1.248,2.832,3.264v7.082h2.041v-7.394c0-2.976-1.849-4.849-4.537-4.849a4.246,4.246,0,0,0-3.817,2.089v-1.849h-2.064v12Zm26.93-6a6.278,6.278,0,1,0-6.266,6.241A6.16,6.16,0,0,0,364.563,275.686Zm-10.442,0a4.167,4.167,0,1,1,4.176,4.32A4.125,4.125,0,0,1,354.121,275.686Zm24.721,6h1.825l4.081-12h-2.185l-2.9,8.762-3-8.762h-1.585l-3,8.762-2.9-8.762h-2.16l4.081,12h1.824l2.977-8.642Zm9.334,0h2.064v-5.953c0-2.809,1.536-4.393,3.481-4.393,1.68,0,2.833,1.248,2.833,3.264v7.082h2.04v-7.394c0-2.976-1.848-4.849-4.537-4.849a4.246,4.246,0,0,0-3.817,2.089v-1.849h-2.064v12Zm14.4-6a6.328,6.328,0,0,0,11.619,3.384l-1.633-1.128a4.249,4.249,0,0,1-7.9-1.848h9.842a5.856,5.856,0,0,0,.024-0.624c-0.024-3.841-2.569-6.026-5.713-6.026A6.083,6.083,0,0,0,402.575,275.686Zm6.17-4.417a3.59,3.59,0,0,1,3.672,3.144h-7.609A3.923,3.923,0,0,1,408.745,271.269Zm8.974,4.417a6.006,6.006,0,0,0,5.881,6.241,5.261,5.261,0,0,0,4.225-2.089v1.849h2.065v-18h-2.065v7.85a5.264,5.264,0,0,0-4.225-2.089A6.007,6.007,0,0,0,417.719,275.686Zm10.274,0a4.1,4.1,0,1,1-4.081-4.345A4.1,4.1,0,0,1,427.993,275.686Zm22.728,1.008,6.145-8.258v13.251h2.208V264.644h-2.016l-6.337,8.5-6.338-8.5h-2.04v17.043h2.232V268.436Zm12.622-1.008a6.006,6.006,0,0,0,5.881,6.241,5.262,5.262,0,0,0,4.225-2.089v1.849h2.064v-12h-2.064v1.849a5.265,5.265,0,0,0-4.225-2.089A6.006,6.006,0,0,0,463.343,275.686Zm10.274,0a4.1,4.1,0,1,1-4.081-4.345A4.1,4.1,0,0,1,473.617,275.686Zm6.982,6h2.064v-5.953c0-2.809,1.656-4.129,3.169-4.129a3.017,3.017,0,0,1,1.128.192V269.66a4.276,4.276,0,0,0-.936-0.1,3.571,3.571,0,0,0-3.361,2.449v-2.329H480.6v12ZM493.079,265a1.45,1.45,0,0,0-1.44-1.465A1.491,1.491,0,0,0,490.15,265a1.475,1.475,0,0,0,1.489,1.464A1.434,1.434,0,0,0,493.079,265Zm-2.5,16.683h2.065v-12h-2.065v12Zm18.771-6a6.278,6.278,0,1,0-6.266,6.241A6.16,6.16,0,0,0,509.353,275.686Zm-10.442,0a4.167,4.167,0,1,1,4.176,4.32A4.125,4.125,0,0,1,498.911,275.686Zm21.959,6h6.1c3.457,0,5.713-2.137,5.713-4.969a4.061,4.061,0,0,0-2.952-4.081,3.863,3.863,0,0,0,1.824-3.481c0-2.4-1.92-4.512-5.089-4.512H520.87v17.043Zm2.232-9.722v-5.3h3.361a2.68,2.68,0,0,1,2.905,2.664,2.624,2.624,0,0,1-2.905,2.641H523.1Zm0,7.705v-5.785h3.985c2.257,0,3.409,1.248,3.409,2.905,0,1.68-1.152,2.88-3.433,2.88H523.1Zm12.815-3.984a6.328,6.328,0,0,0,11.619,3.384l-1.632-1.128a4.25,4.25,0,0,1-7.9-1.848h9.842a5.856,5.856,0,0,0,.024-0.624c-0.024-3.841-2.569-6.026-5.713-6.026A6.083,6.083,0,0,0,535.917,275.686Zm6.17-4.417a3.592,3.592,0,0,1,3.673,3.144h-7.61A3.923,3.923,0,0,1,542.087,271.269ZM552,281.687h2.064v-18H552v18Zm7.175,0h2.065v-18h-2.065v18Zm7.008-4.633c0,2.976,1.776,4.873,4.417,4.873a4.129,4.129,0,0,0,3.7-2.089v1.849h2.064v-12h-2.064v5.954c0,2.76-1.464,4.392-3.337,4.392-1.656,0-2.712-1.272-2.712-3.288v-7.058h-2.065v7.37Zm26.162,1.656-1.8-1.008a4.068,4.068,0,0,1-3.745,2.3,4.322,4.322,0,0,1,0-8.641,4.068,4.068,0,0,1,3.745,2.3l1.8-1.008a6.216,6.216,0,0,0-5.545-3.217,6.242,6.242,0,1,0,0,12.483A6.214,6.214,0,0,0,592.343,278.71Zm14.76,0-1.8-1.008a4.069,4.069,0,0,1-3.745,2.3,4.322,4.322,0,0,1,0-8.641,4.069,4.069,0,0,1,3.745,2.3l1.8-1.008a6.217,6.217,0,0,0-5.545-3.217,6.242,6.242,0,1,0,0,12.483A6.215,6.215,0,0,0,607.1,278.71ZM613.461,265a1.45,1.45,0,0,0-1.44-1.465A1.491,1.491,0,0,0,610.532,265a1.475,1.475,0,0,0,1.489,1.464A1.434,1.434,0,0,0,613.461,265Zm-2.5,16.683h2.065v-12h-2.065v12Zm14.232,0h2.064v-5.953c0-2.713,1.369-4.393,3.313-4.393,1.56,0,2.353,1.344,2.353,3.288v7.058h2.064v-5.953c0-2.713,1.344-4.393,3.289-4.393,1.56,0,2.376,1.344,2.376,3.288v7.058h2.065v-7.37c0-2.928-1.585-4.873-4.2-4.873a4.154,4.154,0,0,0-3.937,2.569,3.773,3.773,0,0,0-3.7-2.569,4.037,4.037,0,0,0-3.625,2.089v-1.849H625.2v12ZM650.132,265a1.45,1.45,0,0,0-1.44-1.465A1.491,1.491,0,0,0,647.2,265a1.475,1.475,0,0,0,1.488,1.464A1.434,1.434,0,0,0,650.132,265Zm-2.5,16.683H649.7v-12h-2.064v12Zm7.176,0h2.064v-18h-2.064v18Zm7.176,0h2.064v-18h-2.064v18Zm9.744-.528a2.055,2.055,0,0,0,.336-1.081,1.777,1.777,0,1,0-3.553,0,1.786,1.786,0,0,0,.984,1.609l-1.608,3.432h1.368ZM51.847,307.509l-1.8-1.008a4.07,4.07,0,0,1-3.745,2.305,4.323,4.323,0,0,1,0-8.642,4.069,4.069,0,0,1,3.745,2.3l1.8-1.008a6.216,6.216,0,0,0-5.545-3.216,6.241,6.241,0,1,0,0,12.482A6.215,6.215,0,0,0,51.847,307.509Zm3.861,2.977h2.064v-5.953c0-2.809,1.656-4.129,3.169-4.129a3.018,3.018,0,0,1,1.128.192V298.46a4.279,4.279,0,0,0-.936-0.1,3.571,3.571,0,0,0-3.361,2.448v-2.328H55.708v12Zm8.616-6a6.328,6.328,0,0,0,11.619,3.384l-1.632-1.128a4.249,4.249,0,0,1-7.9-1.848h9.842a5.856,5.856,0,0,0,.024-0.624c-0.024-3.841-2.568-6.025-5.713-6.025A6.082,6.082,0,0,0,64.324,304.485Zm6.169-4.417a3.591,3.591,0,0,1,3.673,3.145h-7.61A3.924,3.924,0,0,1,70.493,300.068Zm8.974,4.417a6.006,6.006,0,0,0,5.881,6.241,5.264,5.264,0,0,0,4.225-2.088v1.848h2.064v-12H89.574v1.848a5.264,5.264,0,0,0-4.225-2.088A6.006,6.006,0,0,0,79.468,304.485Zm10.274,0a4.1,4.1,0,1,1-4.081-4.345A4.1,4.1,0,0,1,89.742,304.485Zm13.487,5.833V308.47a4.562,4.562,0,0,1-1.464.24c-1.3,0-1.993-.5-1.993-2.041V300.38h3.457v-1.9H99.772v-3.337H97.708v3.337H95.163v1.9h2.544v6.553a3.379,3.379,0,0,0,3.673,3.673A5.743,5.743,0,0,0,103.229,310.318Zm6.335-16.515a1.449,1.449,0,0,0-1.44-1.464,1.491,1.491,0,0,0-1.488,1.464,1.475,1.475,0,0,0,1.488,1.464A1.434,1.434,0,0,0,109.564,293.8Zm-2.5,16.683h2.064v-12h-2.064v12Zm7.175,0h2.065v-5.953c0-2.809,1.536-4.393,3.481-4.393,1.68,0,2.832,1.248,2.832,3.265v7.081h2.041v-7.393c0-2.977-1.849-4.849-4.537-4.849a4.244,4.244,0,0,0-3.817,2.088v-1.848h-2.065v12Zm26.523-.7V298.484H138.7v1.848a5.106,5.106,0,0,0-4.177-2.088,6.114,6.114,0,0,0,0,12.218,5.125,5.125,0,0,0,4.177-2.112v1.368a3.837,3.837,0,0,1-4.009,4.153,5.138,5.138,0,0,1-4.2-2.017l-1.44,1.44a7.124,7.124,0,0,0,5.665,2.449C138.125,315.743,140.766,313.8,140.766,309.79Zm-10.011-5.449a4.059,4.059,0,1,1,4.057,4.2A4,4,0,0,1,130.755,304.341Zm21.215,0.144a6.007,6.007,0,0,0,5.882,6.241,5.266,5.266,0,0,0,4.225-2.088v1.848h2.064v-12h-2.064v1.848a5.266,5.266,0,0,0-4.225-2.088A6.006,6.006,0,0,0,151.97,304.485Zm10.275,0a4.1,4.1,0,1,1-4.081-4.345A4.1,4.1,0,0,1,162.245,304.485Zm14.037,6h2.065v-5.953c0-2.809,1.536-4.393,3.48-4.393,1.681,0,2.833,1.248,2.833,3.265v7.081h2.04v-7.393c0-2.977-1.848-4.849-4.537-4.849a4.243,4.243,0,0,0-3.816,2.088v-1.848h-2.065v12Zm14.4-6a6.006,6.006,0,0,0,5.881,6.241,5.264,5.264,0,0,0,4.225-2.088v1.848h2.064v-12h-2.064v1.848a5.264,5.264,0,0,0-4.225-2.088A6.005,6.005,0,0,0,190.682,304.485Zm10.274,0a4.1,4.1,0,1,1-4.081-4.345A4.1,4.1,0,0,1,200.956,304.485Zm13.487,5.833V308.47a4.562,4.562,0,0,1-1.464.24c-1.3,0-1.993-.5-1.993-2.041V300.38h3.457v-1.9h-3.457v-3.337h-2.064v3.337h-2.545v1.9h2.545v6.553a3.378,3.378,0,0,0,3.673,3.673A5.743,5.743,0,0,0,214.443,310.318Zm3.671-4.465c0,2.977,1.776,4.873,4.416,4.873a4.129,4.129,0,0,0,3.7-2.088v1.848h2.065v-12h-2.065v5.953c0,2.76-1.464,4.393-3.336,4.393-1.657,0-2.713-1.273-2.713-3.289v-7.057h-2.064v7.369Zm15.263,4.633h2.065v-5.953c0-2.809,1.656-4.129,3.169-4.129a3.017,3.017,0,0,1,1.128.192V298.46a4.276,4.276,0,0,0-.936-0.1,3.57,3.57,0,0,0-3.361,2.448v-2.328h-2.065v12Zm8.64-6a6.006,6.006,0,0,0,5.881,6.241,5.263,5.263,0,0,0,4.225-2.088v1.848h2.065v-12h-2.065v1.848a5.263,5.263,0,0,0-4.225-2.088A6.006,6.006,0,0,0,242.017,304.485Zm10.274,0a4.1,4.1,0,1,1-4.08-4.345A4.1,4.1,0,0,1,252.291,304.485Zm6.982,6h2.065v-18h-2.065v18Zm6.792-5.689h6.121v-2.065h-6.121V304.8Zm18.625,2.352c0-1.8-1.128-2.952-3.168-3.624l-1.3-.432c-1.416-.457-1.848-0.913-1.848-1.681,0-.888.888-1.392,2.016-1.392a3.243,3.243,0,0,1,2.545,1.248l1.344-1.3a4.654,4.654,0,0,0-3.841-1.728c-2.376,0-4.056,1.32-4.056,3.264,0,1.681,1.032,2.857,2.976,3.481l1.176,0.384c1.561,0.5,2.137,1.08,2.137,1.92,0,1.033-.936,1.633-2.113,1.633a3.22,3.22,0,0,1-3.072-1.9l-1.681.912a4.768,4.768,0,0,0,4.7,2.785C282.938,310.726,284.69,309.5,284.69,307.149Zm10.512,3.169V308.47a4.562,4.562,0,0,1-1.464.24c-1.3,0-1.993-.5-1.993-2.041V300.38H295.2v-1.9h-3.457v-3.337h-2.064v3.337h-2.545v1.9h2.545v6.553a3.378,3.378,0,0,0,3.673,3.673A5.743,5.743,0,0,0,295.2,310.318Zm3.838,0.168h2.065v-5.953c0-2.809,1.656-4.129,3.169-4.129a3.017,3.017,0,0,1,1.128.192V298.46a4.276,4.276,0,0,0-.936-0.1,3.57,3.57,0,0,0-3.361,2.448v-2.328H299.04v12Zm8.616-6a6.328,6.328,0,0,0,11.619,3.384l-1.632-1.128a4.25,4.25,0,0,1-7.9-1.848h9.842a5.856,5.856,0,0,0,.024-0.624c-0.024-3.841-2.569-6.025-5.713-6.025A6.082,6.082,0,0,0,307.656,304.485Zm6.17-4.417a3.592,3.592,0,0,1,3.673,3.145h-7.61A3.923,3.923,0,0,1,313.826,300.068Zm16.248,10.25V308.47a4.562,4.562,0,0,1-1.464.24c-1.3,0-1.993-.5-1.993-2.041V300.38h3.457v-1.9h-3.457v-3.337h-2.064v3.337h-2.545v1.9h2.545v6.553a3.378,3.378,0,0,0,3.673,3.673A5.743,5.743,0,0,0,330.074,310.318Zm14.569-2.809-1.8-1.008a4.07,4.07,0,0,1-3.745,2.305,4.323,4.323,0,0,1,0-8.642,4.069,4.069,0,0,1,3.745,2.3l1.8-1.008a6.215,6.215,0,0,0-5.545-3.216,6.241,6.241,0,1,0,0,12.482A6.214,6.214,0,0,0,344.643,307.509Zm3.862,2.977h2.064v-5.953c0-2.809,1.536-4.393,3.481-4.393,1.68,0,2.832,1.248,2.832,3.265v7.081h2.041v-7.393c0-2.977-1.849-4.849-4.537-4.849a4.245,4.245,0,0,0-3.817,2.088v-7.849h-2.064v18Zm30.169-3.337c0-1.8-1.129-2.952-3.169-3.624l-1.3-.432c-1.417-.457-1.849-0.913-1.849-1.681,0-.888.889-1.392,2.017-1.392a3.242,3.242,0,0,1,2.544,1.248l1.345-1.3a4.657,4.657,0,0,0-3.841-1.728c-2.377,0-4.057,1.32-4.057,3.264,0,1.681,1.032,2.857,2.977,3.481l1.176,0.384c1.56,0.5,2.136,1.08,2.136,1.92,0,1.033-.936,1.633-2.112,1.633a3.221,3.221,0,0,1-3.073-1.9l-1.68.912a4.766,4.766,0,0,0,4.705,2.785C376.921,310.726,378.674,309.5,378.674,307.149Zm3.982-1.3c0,2.977,1.776,4.873,4.417,4.873a4.131,4.131,0,0,0,3.7-2.088v1.848h2.064v-12H390.77v5.953c0,2.76-1.465,4.393-3.337,4.393-1.657,0-2.713-1.273-2.713-3.289v-7.057h-2.064v7.369Zm17.76-12.05a1.449,1.449,0,0,0-1.44-1.464,1.491,1.491,0,0,0-1.488,1.464,1.475,1.475,0,0,0,1.488,1.464A1.434,1.434,0,0,0,400.416,293.8Zm-2.5,16.683h2.064v-12H397.92v12Zm13.681-.168V308.47a4.562,4.562,0,0,1-1.464.24c-1.3,0-1.993-.5-1.993-2.041V300.38H411.6v-1.9h-3.457v-3.337H406.08v3.337h-2.545v1.9h2.545v6.553a3.378,3.378,0,0,0,3.673,3.673A5.743,5.743,0,0,0,411.6,310.318Zm16.992,0V308.47a4.568,4.568,0,0,1-1.465.24c-1.3,0-1.992-.5-1.992-2.041V300.38h3.457v-1.9h-3.457v-3.337h-2.065v3.337h-2.544v1.9h2.544v6.553a3.379,3.379,0,0,0,3.673,3.673A5.749,5.749,0,0,0,428.593,310.318Zm3.838,0.168H434.5v-5.953c0-2.809,1.536-4.393,3.48-4.393,1.681,0,2.833,1.248,2.833,3.265v7.081h2.04v-7.393c0-2.977-1.848-4.849-4.537-4.849a4.243,4.243,0,0,0-3.816,2.088v-7.849h-2.065v18Zm14.4-6a6.006,6.006,0,0,0,5.881,6.241,5.264,5.264,0,0,0,4.225-2.088v1.848H459v-12h-2.064v1.848a5.264,5.264,0,0,0-4.225-2.088A6.005,6.005,0,0,0,446.831,304.485Zm10.274,0a4.1,4.1,0,1,1-4.081-4.345A4.1,4.1,0,0,1,457.105,304.485Zm13.487,5.833V308.47a4.562,4.562,0,0,1-1.464.24c-1.3,0-1.993-.5-1.993-2.041V300.38h3.457v-1.9h-3.457v-3.337h-2.064v3.337h-2.545v1.9h2.545v6.553a3.378,3.378,0,0,0,3.673,3.673A5.743,5.743,0,0,0,470.592,310.318Zm10.894,5.185h2.065v-6.865a5.263,5.263,0,0,0,4.225,2.088,6.252,6.252,0,0,0,0-12.482,5.263,5.263,0,0,0-4.225,2.088v-1.848h-2.065V315.5Zm10.058-11.018a4.089,4.089,0,1,1-4.08-4.345A4.1,4.1,0,0,1,491.544,304.485Zm6.118,1.368c0,2.977,1.777,4.873,4.417,4.873a4.13,4.13,0,0,0,3.7-2.088v1.848h2.064v-12h-2.064v5.953c0,2.76-1.464,4.393-3.337,4.393-1.656,0-2.712-1.273-2.712-3.289v-7.057h-2.065v7.369Zm23.042,1.3c0-1.8-1.128-2.952-3.169-3.624l-1.3-.432c-1.417-.457-1.849-0.913-1.849-1.681,0-.888.889-1.392,2.017-1.392a3.242,3.242,0,0,1,2.544,1.248l1.345-1.3a4.657,4.657,0,0,0-3.841-1.728c-2.377,0-4.057,1.32-4.057,3.264,0,1.681,1.032,2.857,2.977,3.481l1.176,0.384c1.56,0.5,2.136,1.08,2.136,1.92,0,1.033-.936,1.633-2.112,1.633a3.221,3.221,0,0,1-3.073-1.9l-1.68.912a4.766,4.766,0,0,0,4.705,2.785C518.951,310.726,520.7,309.5,520.7,307.149Zm4.15,3.337h2.064v-5.953c0-2.809,1.537-4.393,3.481-4.393,1.68,0,2.833,1.248,2.833,3.265v7.081h2.04v-7.393c0-2.977-1.848-4.849-4.537-4.849a4.245,4.245,0,0,0-3.817,2.088v-7.849h-2.064v18Zm14.4-6a6.328,6.328,0,0,0,11.619,3.384l-1.632-1.128a4.25,4.25,0,0,1-7.9-1.848h9.842a5.856,5.856,0,0,0,.024-0.624c-0.024-3.841-2.569-6.025-5.713-6.025A6.082,6.082,0,0,0,539.253,304.485Zm6.17-4.417a3.592,3.592,0,0,1,3.673,3.145h-7.61A3.923,3.923,0,0,1,545.423,300.068Zm17.688,7.081c0-1.8-1.128-2.952-3.169-3.624l-1.3-.432c-1.416-.457-1.848-0.913-1.848-1.681,0-.888.888-1.392,2.016-1.392a3.244,3.244,0,0,1,2.545,1.248l1.344-1.3a4.654,4.654,0,0,0-3.841-1.728c-2.376,0-4.057,1.32-4.057,3.264,0,1.681,1.033,2.857,2.977,3.481l1.176,0.384c1.561,0.5,2.137,1.08,2.137,1.92,0,1.033-.937,1.633-2.113,1.633a3.22,3.22,0,0,1-3.072-1.9l-1.681.912a4.767,4.767,0,0,0,4.7,2.785C561.359,310.726,563.111,309.5,563.111,307.149Zm17.3,3.169V308.47a4.562,4.562,0,0,1-1.464.24c-1.3,0-1.992-.5-1.992-2.041V300.38h3.456v-1.9h-3.456v-3.337h-2.065v3.337h-2.544v1.9h2.544v6.553a3.379,3.379,0,0,0,3.673,3.673A5.743,5.743,0,0,0,580.414,310.318Zm3.839,0.168h2.064v-5.953c0-2.809,1.537-4.393,3.481-4.393,1.68,0,2.833,1.248,2.833,3.265v7.081h2.04v-7.393c0-2.977-1.848-4.849-4.537-4.849a4.246,4.246,0,0,0-3.817,2.088v-7.849h-2.064v18Zm14.4-6a6.328,6.328,0,0,0,11.619,3.384l-1.632-1.128a4.25,4.25,0,0,1-7.9-1.848h9.842a5.856,5.856,0,0,0,.024-0.624c-0.024-3.841-2.569-6.025-5.713-6.025A6.082,6.082,0,0,0,598.652,304.485Zm6.17-4.417a3.592,3.592,0,0,1,3.673,3.145h-7.61A3.923,3.923,0,0,1,604.822,300.068ZM43.013,337.437a5.264,5.264,0,0,0,4.225,2.088,6.252,6.252,0,0,0,0-12.482,5.264,5.264,0,0,0-4.225,2.088v-7.849H40.948v18h2.065v-1.848Zm7.994-4.153a4.089,4.089,0,1,1-4.081-4.345A4.1,4.1,0,0,1,51.006,333.284Zm17.856,0a6.277,6.277,0,1,0-6.265,6.241A6.159,6.159,0,0,0,68.863,333.284Zm-10.442,0a4.168,4.168,0,1,1,4.177,4.321A4.126,4.126,0,0,1,58.42,333.284Zm14.423,1.368c0,2.977,1.776,4.873,4.417,4.873a4.13,4.13,0,0,0,3.7-2.088v1.848h2.064v-12H80.957v5.953c0,2.761-1.464,4.393-3.337,4.393-1.656,0-2.713-1.272-2.713-3.289v-7.057H72.844v7.369Zm15.264,4.633h2.064v-5.953c0-2.808,1.536-4.393,3.481-4.393,1.68,0,2.833,1.248,2.833,3.265v7.081h2.041v-7.393c0-2.977-1.848-4.849-4.537-4.849a4.245,4.245,0,0,0-3.817,2.088v-1.848H88.108v12Zm14.4-6a6.006,6.006,0,0,0,5.881,6.241,5.263,5.263,0,0,0,4.225-2.088v1.848h2.065v-18h-2.065v7.849a5.263,5.263,0,0,0-4.225-2.088A6.006,6.006,0,0,0,102.507,333.284Zm10.274,0a4.1,4.1,0,1,1-4.081-4.345A4.1,4.1,0,0,1,112.781,333.284Zm6.046,0a6.005,6.005,0,0,0,5.881,6.241,5.264,5.264,0,0,0,4.225-2.088v1.848H131v-12h-2.064v1.848a5.264,5.264,0,0,0-4.225-2.088A6.005,6.005,0,0,0,118.827,333.284Zm10.274,0a4.1,4.1,0,1,1-4.081-4.345A4.1,4.1,0,0,1,129.1,333.284Zm6.982,6h2.064v-5.953c0-2.808,1.657-4.129,3.169-4.129a3.017,3.017,0,0,1,1.128.192v-2.136a4.276,4.276,0,0,0-.936-0.1,3.571,3.571,0,0,0-3.361,2.448v-2.328h-2.064v12Zm12.48-16.683a1.449,1.449,0,0,0-1.44-1.464,1.491,1.491,0,0,0-1.488,1.464,1.475,1.475,0,0,0,1.488,1.464A1.434,1.434,0,0,0,148.563,322.6Zm-2.5,16.683h2.064v-12h-2.064v12Zm6.239-6a6.328,6.328,0,0,0,11.619,3.385l-1.633-1.129a4.249,4.249,0,0,1-7.9-1.848h9.842a5.856,5.856,0,0,0,.024-0.624c-0.024-3.841-2.569-6.025-5.713-6.025A6.082,6.082,0,0,0,152.306,333.284Zm6.17-4.417a3.59,3.59,0,0,1,3.672,3.145h-7.609A3.923,3.923,0,0,1,158.476,328.867Zm17.688,7.082c0-1.8-1.128-2.953-3.169-3.625l-1.3-.432c-1.416-.456-1.848-0.912-1.848-1.681,0-.888.888-1.392,2.016-1.392a3.244,3.244,0,0,1,2.545,1.248l1.344-1.3a4.656,4.656,0,0,0-3.841-1.728c-2.376,0-4.057,1.32-4.057,3.265,0,1.68,1.033,2.856,2.977,3.48l1.176,0.384c1.561,0.5,2.137,1.08,2.137,1.921,0,1.032-.937,1.632-2.113,1.632a3.221,3.221,0,0,1-3.072-1.9l-1.681.912a4.768,4.768,0,0,0,4.7,2.784C174.412,339.525,176.164,338.3,176.164,335.949Zm22.8-2.665a6.277,6.277,0,1,0-6.265,6.241A6.159,6.159,0,0,0,198.964,333.284Zm-10.442,0a4.168,4.168,0,1,1,4.177,4.321A4.126,4.126,0,0,1,188.522,333.284Zm15.408,6h2.064V329.179h3.481v-1.9h-3.481v-2.208c0-1.513.673-2.041,1.993-2.041a4.833,4.833,0,0,1,1.488.24V321.45a5.454,5.454,0,0,0-1.872-.312,3.427,3.427,0,0,0-3.673,3.72v2.425h-2.545v1.9h2.545v10.106Zm23.209-3.336c0-1.8-1.128-2.953-3.169-3.625l-1.3-.432c-1.416-.456-1.848-0.912-1.848-1.681,0-.888.888-1.392,2.016-1.392a3.244,3.244,0,0,1,2.545,1.248l1.344-1.3a4.654,4.654,0,0,0-3.841-1.728c-2.376,0-4.057,1.32-4.057,3.265,0,1.68,1.033,2.856,2.977,3.48l1.176,0.384c1.561,0.5,2.137,1.08,2.137,1.921,0,1.032-.936,1.632-2.113,1.632a3.221,3.221,0,0,1-3.072-1.9l-1.681.912a4.768,4.768,0,0,0,4.7,2.784C225.387,339.525,227.139,338.3,227.139,335.949Zm10.512,3.168v-1.848a4.564,4.564,0,0,1-1.465.24c-1.3,0-1.992-.5-1.992-2.041v-6.289h3.457v-1.9h-3.457v-3.337H232.13v3.337h-2.545v1.9h2.545v6.554a3.378,3.378,0,0,0,3.672,3.672A5.744,5.744,0,0,0,237.651,339.117Zm7.031,5.185,7.874-17.019h-2.305l-4.105,9.1-4.129-9.1h-2.28l5.257,11.378-2.617,5.641h2.3Zm11.135-5.017h2.065v-18h-2.065v18Zm6.24-6a6.328,6.328,0,0,0,11.618,3.385l-1.632-1.129a4.25,4.25,0,0,1-7.9-1.848h9.842a5.856,5.856,0,0,0,.024-0.624c-0.024-3.841-2.568-6.025-5.713-6.025A6.081,6.081,0,0,0,262.057,333.284Zm6.169-4.417a3.591,3.591,0,0,1,3.673,3.145h-7.61A3.924,3.924,0,0,1,268.226,328.867Zm16.03,4.417a6.006,6.006,0,0,0,5.882,6.241,5.266,5.266,0,0,0,4.225-2.088v1.848h2.064v-12h-2.064v1.848a5.266,5.266,0,0,0-4.225-2.088A6.006,6.006,0,0,0,284.256,333.284Zm10.275,0a4.1,4.1,0,1,1-4.081-4.345A4.1,4.1,0,0,1,294.531,333.284Zm6.981,6h2.065v-5.953c0-2.808,1.536-4.393,3.481-4.393,1.68,0,2.832,1.248,2.832,3.265v7.081h2.041v-7.393c0-2.977-1.849-4.849-4.537-4.849a4.244,4.244,0,0,0-3.817,2.088v-1.848h-2.065v12Zm14.4-6a6.005,6.005,0,0,0,5.881,6.241,5.263,5.263,0,0,0,4.225-2.088v1.848h2.065v-18h-2.065v7.849a5.263,5.263,0,0,0-4.225-2.088A6.005,6.005,0,0,0,315.912,333.284Zm10.274,0a4.1,4.1,0,1,1-4.081-4.345A4.1,4.1,0,0,1,326.186,333.284Zm24.936,3.025-1.8-1.009a4.069,4.069,0,0,1-3.745,2.305,4.323,4.323,0,0,1,0-8.642,4.069,4.069,0,0,1,3.745,2.3l1.8-1.008a6.215,6.215,0,0,0-5.545-3.217,6.241,6.241,0,1,0,0,12.482A6.216,6.216,0,0,0,351.122,336.309Zm15.456-3.025a6.278,6.278,0,1,0-6.266,6.241A6.159,6.159,0,0,0,366.578,333.284Zm-10.442,0a4.167,4.167,0,1,1,4.176,4.321A4.125,4.125,0,0,1,356.136,333.284Zm14.591,6h2.064v-5.953c0-2.712,1.369-4.393,3.313-4.393,1.56,0,2.353,1.345,2.353,3.289v7.057h2.064v-5.953c0-2.712,1.344-4.393,3.289-4.393,1.56,0,2.376,1.345,2.376,3.289v7.057h2.065v-7.369c0-2.929-1.585-4.873-4.2-4.873a4.153,4.153,0,0,0-3.937,2.568,3.773,3.773,0,0,0-3.7-2.568,4.036,4.036,0,0,0-3.625,2.088v-1.848h-2.064v12Zm23.3,0H396.1V329.179h3.48v-1.9H396.1v-2.208c0-1.513.672-2.041,1.992-2.041a4.833,4.833,0,0,1,1.488.24V321.45a5.454,5.454,0,0,0-1.872-.312,3.427,3.427,0,0,0-3.673,3.72v2.425h-2.544v1.9h2.544v10.106Zm20.282-6a6.277,6.277,0,1,0-6.265,6.241A6.159,6.159,0,0,0,414.313,333.284Zm-10.442,0a4.168,4.168,0,1,1,4.177,4.321A4.126,4.126,0,0,1,403.871,333.284Zm14.592,6h2.064v-5.953c0-2.808,1.656-4.129,3.169-4.129a3.017,3.017,0,0,1,1.128.192v-2.136a4.276,4.276,0,0,0-.936-0.1,3.571,3.571,0,0,0-3.361,2.448v-2.328h-2.064v12Zm16.489-.168v-1.848a4.562,4.562,0,0,1-1.464.24c-1.3,0-1.993-.5-1.993-2.041v-6.289h3.457v-1.9H431.5v-3.337h-2.064v3.337h-2.545v1.9h2.545v6.554a3.378,3.378,0,0,0,3.673,3.672A5.743,5.743,0,0,0,434.952,339.117Zm6.695-1.44a1.777,1.777,0,1,0-1.776,1.8A1.808,1.808,0,0,0,441.647,337.677Z"/>
</svg>
