<svg id="copy_copy_2" data-name="copy copy 2" xmlns="http://www.w3.org/2000/svg" width="768" height="343"><defs><style>.cls-2{fill-rule:evenodd}</style></defs><path id="Rectangle_106_copy_12" data-name="Rectangle 106 copy 12" fill="#fff" d="M0 0h768v343H0z"/><g id="CTA_underline_copy_11" data-name="CTA_underline copy 11"><path id="Rectangle_4_copy_4" data-name="Rectangle 4 copy 4" d="M39 249h122v4H39z"/><path id="Shop_now" data-name="Shop now" class="cls-2" d="M43.817 241.853c2.706 0 4.564-1.653 4.582-4.023.018-1.965-1.19-3.214-3.048-3.894l-.9-.33c-1.353-.5-1.984-.808-1.984-1.506 0-.68.776-.992 1.551-.992a2.831 2.831 0 0 1 2.219 1.083l1.876-2.02a5.3 5.3 0 0 0-4.131-1.8c-2.561 0-4.419 1.488-4.419 4.022 0 1.782 1.154 3.049 3.229 3.766l.9.312c1.281.441 1.786.9 1.786 1.561 0 .625-.6 1.084-1.551 1.084a3.335 3.335 0 0 1-2.652-1.488l-2.2 1.892a5.583 5.583 0 0 0 4.742 2.333zm9.726-.221h2.867v-5.161h5.159v5.161h2.868v-13.041h-2.868v5.109H56.41v-5.107h-2.868v13.041zm22.66.221a6.742 6.742 0 1 0-6.62-6.741 6.7 6.7 0 0 0 6.617 6.741zm0-2.829a3.917 3.917 0 1 1 3.716-3.912 3.837 3.837 0 0 1-3.719 3.912zm20.622-5.969a4.4 4.4 0 0 0-4.51-4.464h-4.348v13.041h2.868V237.5h1.479a4.385 4.385 0 0 0 4.51-4.445zm-2.778 0a1.7 1.7 0 0 1-1.768 1.708h-1.444v-3.416h1.443a1.688 1.688 0 0 1 1.768 1.708zm25.979 8.577v-13.041h-2.886v8.045l-6.223-8.045h-2.472v13.041h2.869v-8.063l6.241 8.063h2.471zm11.765.221a6.742 6.742 0 1 0-6.62-6.741 6.7 6.7 0 0 0 6.619 6.741zm0-2.829a3.917 3.917 0 1 1 3.716-3.912 3.837 3.837 0 0 1-3.717 3.912zm21.686 2.608h2.723l2.976-13.041h-3.067l-1.749 8.266-3.608-8.486-3.589 8.486-1.75-8.266h-3.067l2.959 13.041h2.723l2.724-6.392z"/></g><path id="BR_X_Kevin_Love_Water-Resistant_Hooded_Jacket_Limited_availa" data-name="BR X Kevin Love | Water-Resistant Hooded Jacket Limited availa" class="cls-2" d="M41.884 68.092h11.98a8.06 8.06 0 0 0 8.294-8.025 7.124 7.124 0 0 0-3.878-6.45 6.416 6.416 0 0 0 1.958-4.684 8.1 8.1 0 0 0-8.1-8.1H41.884v27.259zm6.105-16.242V46.4h3.456a2.771 2.771 0 0 1 2.841 2.764 2.733 2.733 0 0 1-2.841 2.688h-3.456zm0 10.636v-5.452h5.337a2.773 2.773 0 0 1 2.88 2.726 2.74 2.74 0 0 1-2.841 2.726h-5.376zm21.351 5.606h6.105v-11.25h1l9.055 11.25h7.334L83.2 56.074c3.456-1.229 5.337-3.494 5.337-7.026a8.049 8.049 0 0 0-8.447-8.217H69.339v27.261zm6.105-16.434v-5.221h3.917c1.8 0 3.11.96 3.11 2.611 0 1.574-1.305 2.611-3.11 2.611h-3.917zm49.765 16.434h7.1l-10.172-13.784 9.562-13.477h-7.065l-6.182 8.754-6.182-8.754h-7.065l9.6 13.477-10.215 13.784h7.142l6.757-9.023zm23.463 0h6.067v-12.21l11.1 12.21h7.833L160.73 53.924l10.751-13.093h-7.487l-9.254 11.4v-11.4h-6.067v27.261zm29.952 0H195.9v-5.836h-11.17V57.38h8.87v-5.836h-8.87v-4.877h11.17v-5.836h-17.275v27.261zm33.331 0h5.491l11.173-27.261h-6.72l-7.219 18.162-7.257-18.162h-6.643zm22.656 0h6.105V40.831h-6.105v27.261zm39.588 0V40.831h-6.143v16.818L254.81 40.831h-5.261v27.261h6.1V51.236l13.291 16.856h5.26zm20.353 0h17.394v-5.836h-11.289V40.831h-6.105v27.261zm35.6.461a14.091 14.091 0 1 0-14.092-14.091 14.125 14.125 0 0 0 14.088 14.091zm0-5.913a8.183 8.183 0 1 1 7.909-8.178 8.089 8.089 0 0 1-7.913 8.178zm28.531 5.452h5.491l11.173-27.261h-6.719l-7.219 18.162-7.257-18.162h-6.643zm22.656 0h17.279v-5.836h-11.178V57.38h8.87v-5.836h-8.87v-4.877h11.174v-5.836h-17.279v27.261zm36.514 2.108h4.838V38.719h-4.838V70.2zM63.348 108.891h5.8l6.333-27.261h-6.527l-3.725 17.278-7.679-17.739-7.641 17.739-3.725-17.278h-6.527l6.3 27.261h5.8l5.8-13.362zm14.133 0h6.374l2.419-5.759h11.289l2.419 5.759h6.374L94.683 81.63h-5.529zM88.5 97.833l3.417-8.217 3.417 8.217H88.5zm25.958 11.058h6.142V87.466h7.027V81.63H107.51v5.836h6.949v21.425zm19.969 0h17.278v-5.836h-11.172v-4.876h8.867v-5.837h-8.869v-4.876h11.173V81.63h-17.276v27.261zm25 0h6.105v-11.25h1l9.062 11.25h7.334l-9.638-12.018c3.456-1.229 5.338-3.494 5.338-7.026a8.049 8.049 0 0 0-8.448-8.217h-10.754v27.261zm6.105-16.433v-5.222h3.917c1.8 0 3.11.96 3.11 2.611 0 1.574-1.306 2.611-3.11 2.611h-3.917zm20.506 5.567h11.289V92.5h-11.29v5.529zm19.468 10.866h6.105v-11.25h1l9.061 11.25H229l-9.638-12.018c3.456-1.229 5.338-3.494 5.338-7.026a8.049 8.049 0 0 0-8.448-8.217h-10.747v27.261zm6.105-16.433v-5.222h3.917c1.8 0 3.11.96 3.11 2.611 0 1.574-1.306 2.611-3.11 2.611h-3.918zM234 108.891h17.279v-5.836H240.1v-4.876h8.869v-5.837H240.1v-4.876h11.173V81.63H234v27.261zm33.139.461c5.76 0 9.714-3.456 9.753-8.409.038-4.108-2.534-6.719-6.489-8.14l-1.92-.691c-2.88-1.037-4.224-1.689-4.224-3.148 0-1.421 1.651-2.073 3.3-2.073a6.064 6.064 0 0 1 4.723 2.265l3.993-4.224a11.373 11.373 0 0 0-8.792-3.763c-5.453 0-9.408 3.11-9.408 8.409 0 3.724 2.458 6.374 6.873 7.871l1.92.653c2.726.921 3.8 1.881 3.8 3.264 0 1.305-1.267 2.265-3.3 2.265a7.132 7.132 0 0 1-5.644-3.11l-4.685 3.955a11.956 11.956 0 0 0 10.097 4.876zm17.05-.461h6.105V81.63h-6.105v27.261zm23.077.461c5.76 0 9.715-3.456 9.753-8.409.038-4.108-2.534-6.719-6.489-8.14l-1.92-.691c-2.88-1.037-4.224-1.689-4.224-3.148 0-1.421 1.651-2.073 3.3-2.073a6.064 6.064 0 0 1 4.722 2.265l3.994-4.224a11.377 11.377 0 0 0-8.793-3.763c-5.453 0-9.408 3.11-9.408 8.409 0 3.724 2.458 6.374 6.873 7.871l1.92.653c2.727.921 3.8 1.881 3.8 3.264 0 1.305-1.267 2.265-3.3 2.265a7.134 7.134 0 0 1-5.645-3.11l-4.684 3.955a11.956 11.956 0 0 0 10.098 4.876zm21.581-.461h6.144V87.466h7.026V81.63h-20.12v5.836h6.95v21.425zm14.285 0h6.368l2.419-5.759h11.289l2.419 5.759H372L360.331 81.63H354.8zm11.02-11.058l3.418-8.217 3.417 8.217h-6.835zm48.422 11.058V81.63h-6.144v16.817L383.18 81.63h-5.26v27.261h6.1V92.035l13.285 16.856h5.261zm13.748 0h6.143V87.466h7.027V81.63h-20.12v5.836h6.95v21.425zm30.374 0h6.104V98.1h10.98v10.789h6.105V81.63h-6.105V92.3H452.8V81.63h-6.105v27.261zm44.582.461a14.091 14.091 0 1 0-14.092-14.092 14.125 14.125 0 0 0 14.089 14.092zm0-5.913a8.183 8.183 0 1 1 7.909-8.178 8.089 8.089 0 0 1-7.912 8.178zm33.945 5.913a14.091 14.091 0 1 0-14.092-14.092 14.125 14.125 0 0 0 14.089 14.092zm0-5.913a8.183 8.183 0 1 1 7.909-8.178 8.089 8.089 0 0 1-7.912 8.178zm21.389 5.452h9.288a13.633 13.633 0 1 0 0-27.261h-9.292v27.261zm6.105-5.606V87.236h3.183a8.031 8.031 0 0 1 0 16.049h-3.187zm24.423 5.606h17.278v-5.836h-11.176v-4.876h8.87v-5.837h-8.87v-4.876h11.173V81.63h-17.278v27.261zm25 0h9.292a13.633 13.633 0 1 0 0-27.261h-9.292v27.261zm6.105-5.606V87.236h3.187a8.031 8.031 0 0 1 0 16.049h-3.192zM48.6 150.151c4.685 0 8.908-2.342 8.908-7.91v-19.812h-6.102v19.428a2.807 2.807 0 0 1-5.606-.157h-6.028c0 5.917 4.262 8.451 8.828 8.451zm14.017-.461h6.374l2.419-5.759H82.7l2.419 5.759h6.374l-11.671-27.261h-5.53zm11.02-11.058l3.417-8.217 3.417 8.217H73.64zm35.1 11.519a14.092 14.092 0 0 0 12.748-7.449l-5.376-2.918a8.179 8.179 0 1 1 0-7.449l5.376-2.918a14.213 14.213 0 1 0-12.748 20.734zm19.393-.461h6.07v-12.21l11.1 12.21h7.833l-12.939-14.168 10.751-13.093h-7.495l-9.253 11.4v-11.4h-6.067v27.261zm29.952 0h17.279v-5.836h-11.174v-4.876h8.87v-5.837h-8.87v-4.876h11.174v-5.836h-17.279v27.261zm29.913 0h6.144v-21.425h7.026v-5.836h-20.12v5.836H188v21.425zm-146.922 33.6h9.6v-1.937H43.12v-13.689h-2.047v15.626zm15.8-15.3a1.329 1.329 0 0 0-1.32-1.342 1.343 1.343 0 1 0 0 2.685 1.316 1.316 0 0 0 1.317-1.339zm-2.289 15.3h1.893v-11h-1.896v11zm7.238 0h1.893v-5.458c0-2.487 1.255-4.028 3.037-4.028 1.431 0 2.157 1.233 2.157 3.016v6.47H70.8v-5.458c0-2.487 1.233-4.028 3.015-4.028 1.431 0 2.179 1.233 2.179 3.016v6.47h1.893v-6.757c0-2.685-1.453-4.467-3.852-4.467a3.808 3.808 0 0 0-3.61 2.355 3.459 3.459 0 0 0-3.389-2.355 3.7 3.7 0 0 0-3.323 1.914v-1.694h-1.894v11zm23.519-15.3a1.329 1.329 0 0 0-1.321-1.342 1.343 1.343 0 1 0 0 2.685 1.316 1.316 0 0 0 1.318-1.339zm-2.289 15.3h1.893v-11h-1.896v11zm13.2-.154v-1.695a4.186 4.186 0 0 1-1.343.22 1.584 1.584 0 0 1-1.827-1.87v-5.767h3.169v-1.738h-3.168v-3.059H91.19v3.059h-2.333v1.738h2.333v6.009a3.1 3.1 0 0 0 3.367 3.367 5.268 5.268 0 0 0 1.695-.264zm3.166-5.348a5.8 5.8 0 0 0 10.652 3.1l-1.5-1.034a3.9 3.9 0 0 1-7.241-1.695h9.024a5.368 5.368 0 0 0 .022-.572c-.022-3.522-2.355-5.524-5.238-5.524a5.576 5.576 0 0 0-5.719 5.725zm5.656-4.05a3.292 3.292 0 0 1 3.367 2.883h-6.977a3.6 3.6 0 0 1 3.61-2.883zm8.886 4.05a5.507 5.507 0 0 0 5.392 5.722 4.826 4.826 0 0 0 3.874-1.915v1.695h1.892v-16.506h-1.892v7.2a4.828 4.828 0 0 0-3.874-1.914 5.507 5.507 0 0 0-5.392 5.718zm9.42 0a3.759 3.759 0 1 1-3.742-3.984 3.758 3.758 0 0 1 3.742 3.984zm13.328 0a5.507 5.507 0 0 0 5.392 5.722 4.826 4.826 0 0 0 3.874-1.915v1.695h1.892v-11h-1.892v1.694a4.828 4.828 0 0 0-3.874-1.914 5.507 5.507 0 0 0-5.392 5.718zm9.42 0a3.759 3.759 0 1 1-3.742-3.984 3.758 3.758 0 0 1 3.742 3.984zm10.492 5.5h1.58l5.085-11h-2.113l-3.764 8.319-3.763-8.319h-2.113zm9.26-5.5a5.507 5.507 0 0 0 5.392 5.722 4.824 4.824 0 0 0 3.874-1.915v1.695h1.893v-11h-1.893v1.694a4.826 4.826 0 0 0-3.874-1.914 5.507 5.507 0 0 0-5.392 5.718zm9.42 0a3.759 3.759 0 1 1-3.741-3.984 3.757 3.757 0 0 1 3.741 3.984zm9.348-9.794a1.329 1.329 0 0 0-1.321-1.342 1.343 1.343 0 1 0 0 2.685 1.317 1.317 0 0 0 1.321-1.343zm-2.289 15.3h1.893v-11h-1.893v11zm7.238 0h1.893v-16.51h-1.89v16.506zm6.379-5.5a5.507 5.507 0 0 0 5.393 5.722 4.824 4.824 0 0 0 3.873-1.915v1.695h1.893v-11h-1.893v1.694a4.826 4.826 0 0 0-3.873-1.914 5.507 5.507 0 0 0-5.393 5.712zm9.42 0a3.759 3.759 0 1 1-3.741-3.984 3.757 3.757 0 0 1 3.745 3.978zm8.952 3.807a4.824 4.824 0 0 0 3.873 1.915 5.732 5.732 0 0 0 0-11.444 4.826 4.826 0 0 0-3.873 1.914v-7.2h-1.893v16.504h1.893v-1.69zm7.329-3.807a3.749 3.749 0 1 1-3.742-3.984 3.758 3.758 0 0 1 3.742 3.978zm8.687-9.794a1.329 1.329 0 0 0-1.32-1.342 1.343 1.343 0 1 0 0 2.685 1.316 1.316 0 0 0 1.32-1.349zm-2.289 15.3h1.893v-11h-1.893v11zm7.238 0h1.893v-16.516h-1.893v16.506zm9.527-15.3a1.329 1.329 0 0 0-1.32-1.342 1.343 1.343 0 1 0 0 2.685 1.316 1.316 0 0 0 1.32-1.349zm-2.289 15.3h1.893v-11h-1.893v11zm13.2-.154v-1.695a4.188 4.188 0 0 1-1.343.22 1.584 1.584 0 0 1-1.827-1.87v-5.767h3.17v-1.738h-3.17v-3.059h-1.892v3.059h-2.333v1.738h2.333v6.009a3.1 3.1 0 0 0 3.367 3.367 5.271 5.271 0 0 0 1.698-.274zm7.1 4.754l7.219-15.6h-2.113l-3.764 8.341-3.785-8.341h-2.091l4.82 10.432-2.4 5.172h2.113zm12.408-6.074a1.629 1.629 0 1 0-1.629 1.65 1.658 1.658 0 0 0 1.637-1.66z"/></svg>