<svg id="copy_copy_2" data-name="copy copy 2" xmlns="http://www.w3.org/2000/svg" width="768" height="343" viewBox="0 0 768 343">
  <defs>
    <style>
      .cls-1 {
        fill: #fff;
      }

      .cls-2 {
        fill-rule: evenodd;
      }
    </style>
  </defs>
  <rect id="Rectangle_106_copy_12" data-name="Rectangle 106 copy 12" class="cls-1" width="768" height="343"/>
  <g id="CTA_underline_copy_11" data-name="CTA_underline copy 11">
    <rect id="Rectangle_4_copy_4" data-name="Rectangle 4 copy 4" x="39" y="249" width="122" height="4"/>
    <path id="Shop_now" data-name="Shop now" class="cls-2" d="M43.817,241.853c2.706,0,4.564-1.653,4.582-4.023,0.018-1.965-1.19-3.214-3.048-3.894l-0.9-.33c-1.353-.5-1.984-0.808-1.984-1.506,0-.68.776-0.992,1.551-0.992a2.831,2.831,0,0,1,2.219,1.083l1.876-2.02a5.3,5.3,0,0,0-4.131-1.8c-2.561,0-4.419,1.488-4.419,4.022,0,1.782,1.154,3.049,3.229,3.766l0.9,0.312c1.281,0.441,1.786.9,1.786,1.561,0,0.625-.6,1.084-1.551,1.084a3.335,3.335,0,0,1-2.652-1.488l-2.2,1.892A5.583,5.583,0,0,0,43.817,241.853Zm9.726-.221H56.41v-5.161h5.159v5.161h2.868V228.591H61.569V233.7H56.41v-5.107H53.542v13.041Zm22.66,0.221a6.742,6.742,0,1,0-6.62-6.741A6.7,6.7,0,0,0,76.2,241.853Zm0-2.829a3.917,3.917,0,1,1,3.716-3.912A3.837,3.837,0,0,1,76.2,239.024Zm20.622-5.969a4.4,4.4,0,0,0-4.51-4.464H87.967v13.041h2.868V237.5h1.479A4.385,4.385,0,0,0,96.824,233.055Zm-2.778,0a1.7,1.7,0,0,1-1.768,1.708H90.835v-3.416h1.443A1.688,1.688,0,0,1,94.046,233.055Zm25.979,8.577V228.591h-2.886v8.045l-6.223-8.045h-2.472v13.041h2.869v-8.063l6.241,8.063h2.471Zm11.765,0.221a6.742,6.742,0,1,0-6.62-6.741A6.7,6.7,0,0,0,131.79,241.853Zm0-2.829a3.917,3.917,0,1,1,3.716-3.912A3.837,3.837,0,0,1,131.79,239.024Zm21.686,2.608H156.2l2.976-13.041h-3.067l-1.749,8.266-3.608-8.486-3.589,8.486-1.75-8.266h-3.067l2.959,13.041h2.723l2.724-6.392Z"/>
  </g>
  <path id="BR_X_Kevin_Love_Water-Resistant_Hooded_Jacket_Limited_availa" data-name="BR X Kevin Love |  Water-Resistant Hooded Jacket Limited availa" class="cls-2" d="M41.884,68.092h11.98a8.06,8.06,0,0,0,8.294-8.025,7.124,7.124,0,0,0-3.878-6.45,6.416,6.416,0,0,0,1.958-4.684,8.1,8.1,0,0,0-8.1-8.1H41.884V68.092Zm6.105-16.242V46.4h3.456a2.771,2.771,0,0,1,2.841,2.764,2.733,2.733,0,0,1-2.841,2.688H47.989Zm0,10.636V57.034h5.337a2.773,2.773,0,0,1,2.88,2.726,2.74,2.74,0,0,1-2.841,2.726H47.989Zm21.351,5.606h6.105V56.842h1L85.5,68.092h7.334L83.2,56.074c3.456-1.229,5.337-3.494,5.337-7.026a8.049,8.049,0,0,0-8.447-8.217H69.339V68.092Zm6.105-16.434V46.437h3.917c1.8,0,3.11.96,3.11,2.611,0,1.574-1.305,2.611-3.11,2.611H75.445ZM125.21,68.092h7.1L122.138,54.308,131.7,40.831h-7.065l-6.182,8.754-6.182-8.754h-7.065l9.6,13.477L104.591,68.092h7.142l6.757-9.023Zm23.463,0h6.067V55.882l11.1,12.21h7.833L160.73,53.924l10.751-13.093h-7.487l-9.254,11.4v-11.4h-6.067V68.092Zm29.952,0H195.9V62.256H184.73V57.38h8.87V51.544h-8.87V46.667H195.9V40.831H178.625V68.092Zm33.331,0h5.491L228.62,40.831H221.9l-7.219,18.162-7.257-18.162h-6.643Zm22.656,0h6.105V40.831h-6.105V68.092Zm39.588,0V40.831h-6.143V57.649L254.81,40.831h-5.261V68.092h6.1V51.236L268.94,68.092h5.26Zm20.353,0h17.394V62.256H300.658V40.831h-6.105V68.092Zm35.6,0.461a14.091,14.091,0,1,0-14.092-14.091A14.125,14.125,0,0,0,330.149,68.553Zm0-5.913a8.183,8.183,0,1,1,7.909-8.178A8.089,8.089,0,0,1,330.149,62.64Zm28.531,5.452h5.491l11.173-27.261h-6.719l-7.219,18.162-7.257-18.162h-6.643Zm22.656,0h17.279V62.256H387.441V57.38h8.87V51.544h-8.87V46.667h11.174V40.831H381.336V68.092ZM417.854,70.2h4.838V38.719h-4.838V70.2ZM63.348,108.891h5.8L75.481,81.63H68.954L65.229,98.908,57.55,81.169,49.909,98.908,46.184,81.63H39.657l6.3,27.261h5.8l5.8-13.362Zm14.133,0h6.374l2.419-5.759H97.563l2.419,5.759h6.374L94.683,81.63H89.154ZM88.5,97.833l3.417-8.217,3.417,8.217H88.5Zm25.958,11.058H120.6V87.466h7.027V81.63H107.51v5.836h6.949v21.425Zm19.969,0h17.278v-5.836H140.533V98.179H149.4V92.342h-8.869V87.466h11.173V81.63H134.428v27.261Zm25,0h6.105V97.641h1l9.062,11.25h7.334l-9.638-12.018c3.456-1.229,5.338-3.494,5.338-7.026a8.049,8.049,0,0,0-8.448-8.217H159.426v27.261Zm6.105-16.433V87.236h3.917c1.8,0,3.11.96,3.11,2.611,0,1.574-1.306,2.611-3.11,2.611h-3.917Zm20.506,5.567h11.289V92.5H186.037v5.529Zm19.468,10.866h6.105V97.641h1l9.061,11.25H229l-9.638-12.018c3.456-1.229,5.338-3.494,5.338-7.026a8.049,8.049,0,0,0-8.448-8.217H205.505v27.261Zm6.105-16.433V87.236h3.917c1.8,0,3.11.96,3.11,2.611,0,1.574-1.306,2.611-3.11,2.611H211.61ZM234,108.891h17.279v-5.836H240.1V98.179h8.869V92.342H240.1V87.466h11.173V81.63H234v27.261Zm33.139,0.461c5.76,0,9.714-3.456,9.753-8.409,0.038-4.108-2.534-6.719-6.489-8.14l-1.92-.691c-2.88-1.037-4.224-1.689-4.224-3.148,0-1.421,1.651-2.073,3.3-2.073a6.064,6.064,0,0,1,4.723,2.265l3.993-4.224a11.373,11.373,0,0,0-8.792-3.763c-5.453,0-9.408,3.11-9.408,8.409,0,3.724,2.458,6.374,6.873,7.871l1.92,0.653c2.726,0.921,3.8,1.881,3.8,3.264,0,1.305-1.267,2.265-3.3,2.265a7.132,7.132,0,0,1-5.644-3.11l-4.685,3.955A11.956,11.956,0,0,0,267.136,109.352Zm17.05-.461h6.105V81.63h-6.105v27.261Zm23.077,0.461c5.76,0,9.715-3.456,9.753-8.409,0.038-4.108-2.534-6.719-6.489-8.14l-1.92-.691c-2.88-1.037-4.224-1.689-4.224-3.148,0-1.421,1.651-2.073,3.3-2.073a6.064,6.064,0,0,1,4.722,2.265l3.994-4.224a11.377,11.377,0,0,0-8.793-3.763c-5.453,0-9.408,3.11-9.408,8.409,0,3.724,2.458,6.374,6.873,7.871l1.92,0.653c2.727,0.921,3.8,1.881,3.8,3.264,0,1.305-1.267,2.265-3.3,2.265a7.134,7.134,0,0,1-5.645-3.11l-4.684,3.955A11.956,11.956,0,0,0,307.263,109.352Zm21.581-.461h6.144V87.466h7.026V81.63h-20.12v5.836h6.95v21.425Zm14.285,0H349.5l2.419-5.759h11.289l2.419,5.759H372L360.331,81.63H354.8Zm11.02-11.058,3.418-8.217,3.417,8.217h-6.835Zm48.422,11.058V81.63h-6.144V98.447L383.18,81.63h-5.26v27.261h6.1V92.035l13.285,16.856h5.261Zm13.748,0h6.143V87.466h7.027V81.63h-20.12v5.836h6.95v21.425Zm30.374,0H452.8V98.1H463.78v10.789h6.105V81.63H463.78V92.3H452.8V81.63h-6.105v27.261Zm44.582,0.461a14.091,14.091,0,1,0-14.092-14.092A14.125,14.125,0,0,0,491.275,109.352Zm0-5.913a8.183,8.183,0,1,1,7.909-8.178A8.089,8.089,0,0,1,491.275,103.439Zm33.945,5.913a14.091,14.091,0,1,0-14.092-14.092A14.125,14.125,0,0,0,525.22,109.352Zm0-5.913a8.183,8.183,0,1,1,7.909-8.178A8.089,8.089,0,0,1,525.22,103.439Zm21.389,5.452H555.9a13.633,13.633,0,1,0,0-27.261h-9.292v27.261Zm6.105-5.606V87.236H555.9a8.031,8.031,0,0,1,0,16.049h-3.187Zm24.423,5.606h17.278v-5.836H583.242V98.179h8.87V92.342h-8.87V87.466h11.173V81.63H577.137v27.261Zm25,0h9.292a13.633,13.633,0,1,0,0-27.261h-9.292v27.261Zm6.105-5.606V87.236h3.187a8.031,8.031,0,0,1,0,16.049H608.24ZM48.6,150.151c4.685,0,8.908-2.342,8.908-7.91V122.429H51.406v19.428A2.807,2.807,0,0,1,45.8,141.7H39.772C39.772,147.617,44.034,150.151,48.6,150.151Zm14.017-.461h6.374l2.419-5.759H82.7l2.419,5.759h6.374L79.822,122.429H74.292Zm11.02-11.058,3.417-8.217,3.417,8.217H73.64Zm35.1,11.519a14.092,14.092,0,0,0,12.748-7.449l-5.376-2.918a8.179,8.179,0,1,1,0-7.449l5.376-2.918A14.213,14.213,0,1,0,108.737,150.151Zm19.393-.461H134.2V137.48l11.1,12.21h7.833l-12.939-14.168,10.751-13.093H143.45l-9.253,11.4v-11.4H128.13V149.69Zm29.952,0h17.279v-5.836H164.187v-4.876h8.87v-5.837h-8.87v-4.876h11.174v-5.836H158.082V149.69Zm29.913,0h6.144V128.265h7.026v-5.836h-20.12v5.836H188V149.69ZM41.073,183.29h9.6v-1.937H43.12V167.664H41.073V183.29Zm15.8-15.3a1.329,1.329,0,0,0-1.32-1.342,1.343,1.343,0,1,0,0,2.685A1.316,1.316,0,0,0,56.87,167.994Zm-2.289,15.3h1.893v-11H54.581v11Zm7.238,0h1.893v-5.458c0-2.487,1.255-4.028,3.037-4.028,1.431,0,2.157,1.233,2.157,3.016v6.47H70.8v-5.458c0-2.487,1.233-4.028,3.015-4.028,1.431,0,2.179,1.233,2.179,3.016v6.47h1.893v-6.757c0-2.685-1.453-4.467-3.852-4.467a3.808,3.808,0,0,0-3.61,2.355,3.459,3.459,0,0,0-3.389-2.355,3.7,3.7,0,0,0-3.323,1.914v-1.694H61.819v11Zm23.519-15.3a1.329,1.329,0,0,0-1.321-1.342,1.343,1.343,0,1,0,0,2.685A1.316,1.316,0,0,0,85.338,167.994Zm-2.289,15.3h1.893v-11H83.049v11Zm13.2-.154v-1.695a4.186,4.186,0,0,1-1.343.22,1.584,1.584,0,0,1-1.827-1.87v-5.767h3.169v-1.738H93.083v-3.059H91.19v3.059H88.857v1.738H91.19v6.009a3.1,3.1,0,0,0,3.367,3.367A5.268,5.268,0,0,0,96.252,183.136Zm3.166-5.348a5.8,5.8,0,0,0,10.652,3.1l-1.5-1.034a3.9,3.9,0,0,1-7.241-1.695h9.024a5.368,5.368,0,0,0,.022-0.572c-0.022-3.522-2.355-5.524-5.238-5.524A5.576,5.576,0,0,0,99.418,177.788Zm5.656-4.05a3.292,3.292,0,0,1,3.367,2.883h-6.977A3.6,3.6,0,0,1,105.074,173.738Zm8.886,4.05a5.507,5.507,0,0,0,5.392,5.722,4.826,4.826,0,0,0,3.874-1.915v1.695h1.892V166.784h-1.892v7.2a4.828,4.828,0,0,0-3.874-1.914A5.507,5.507,0,0,0,113.96,177.788Zm9.42,0a3.759,3.759,0,1,1-3.742-3.984A3.758,3.758,0,0,1,123.38,177.788Zm13.328,0a5.507,5.507,0,0,0,5.392,5.722,4.826,4.826,0,0,0,3.874-1.915v1.695h1.892v-11h-1.892v1.694a4.828,4.828,0,0,0-3.874-1.914A5.507,5.507,0,0,0,136.708,177.788Zm9.42,0a3.759,3.759,0,1,1-3.742-3.984A3.758,3.758,0,0,1,146.128,177.788Zm10.492,5.5H158.2l5.085-11h-2.113l-3.764,8.319-3.763-8.319h-2.113Zm9.26-5.5a5.507,5.507,0,0,0,5.392,5.722,4.824,4.824,0,0,0,3.874-1.915v1.695h1.893v-11h-1.893v1.694a4.826,4.826,0,0,0-3.874-1.914A5.507,5.507,0,0,0,165.88,177.788Zm9.42,0a3.759,3.759,0,1,1-3.741-3.984A3.757,3.757,0,0,1,175.3,177.788Zm9.348-9.794a1.329,1.329,0,0,0-1.321-1.342,1.343,1.343,0,1,0,0,2.685A1.317,1.317,0,0,0,184.648,167.994Zm-2.289,15.3h1.893v-11h-1.893v11Zm7.238,0h1.893V166.784H189.6V183.29Zm6.379-5.5a5.507,5.507,0,0,0,5.393,5.722,4.824,4.824,0,0,0,3.873-1.915v1.695h1.893v-11h-1.893v1.694a4.826,4.826,0,0,0-3.873-1.914A5.507,5.507,0,0,0,195.976,177.788Zm9.42,0a3.759,3.759,0,1,1-3.741-3.984A3.757,3.757,0,0,1,205.4,177.788Zm8.952,3.807a4.824,4.824,0,0,0,3.873,1.915,5.732,5.732,0,0,0,0-11.444,4.826,4.826,0,0,0-3.873,1.914v-7.2h-1.893V183.29h1.893V181.6Zm7.329-3.807a3.749,3.749,0,1,1-3.742-3.984A3.758,3.758,0,0,1,221.677,177.788Zm8.687-9.794a1.329,1.329,0,0,0-1.32-1.342,1.343,1.343,0,1,0,0,2.685A1.316,1.316,0,0,0,230.364,167.994Zm-2.289,15.3h1.893v-11h-1.893v11Zm7.238,0h1.893V166.784h-1.893V183.29Zm9.527-15.3a1.329,1.329,0,0,0-1.32-1.342,1.343,1.343,0,1,0,0,2.685A1.316,1.316,0,0,0,244.84,167.994Zm-2.289,15.3h1.893v-11h-1.893v11Zm13.2-.154v-1.695a4.188,4.188,0,0,1-1.343.22,1.584,1.584,0,0,1-1.827-1.87v-5.767h3.17v-1.738h-3.17v-3.059h-1.892v3.059h-2.333v1.738h2.333v6.009a3.1,3.1,0,0,0,3.367,3.367A5.271,5.271,0,0,0,255.754,183.136Zm7.1,4.754,7.219-15.6h-2.113l-3.764,8.341-3.785-8.341h-2.091l4.82,10.432-2.4,5.172h2.113Zm12.408-6.074a1.629,1.629,0,1,0-1.629,1.65A1.658,1.658,0,0,0,275.267,181.816Z"/>
</svg>
