<svg data-name="Quote copy 3" xmlns="http://www.w3.org/2000/svg" width="768" height="287"><path data-name="Rectangle 96 copy" fill="#b09f8a" d="M0 0h768v287H0z"/><path data-name="“Curious. Connected. Out in the world.”" d="M82.567 97.586a2.542 2.542 0 0 0-.39 1.35 2.222 2.222 0 1 0 4.443 0 2.289 2.289 0 0 0-1.231-2.011l2.011-4.291h-1.711zm5.583 0a2.543 2.543 0 0 0-.39 1.35 2.222 2.222 0 1 0 4.443 0 2.289 2.289 0 0 0-1.231-2.011l2.011-4.291h-1.71zm8.73 5.7a11.078 11.078 0 0 0 20.443 5.852l-2.342-1.41a8.373 8.373 0 1 1 0-8.883l2.342-1.41a11.078 11.078 0 0 0-20.442 5.852zm25.026 4.862c0 3.721 2.222 6.092 5.524 6.092a5.165 5.165 0 0 0 4.623-2.611v2.311h2.582V98.936h-2.582v7.442c0 3.452-1.831 5.492-4.173 5.492-2.071 0-3.392-1.59-3.392-4.111v-8.823h-2.582v9.213zm19.085 5.792h2.582v-7.44c0-3.512 2.071-5.162 3.963-5.162a3.771 3.771 0 0 1 1.41.24v-2.672a5.345 5.345 0 0 0-1.17-.12 4.466 4.466 0 0 0-4.2 3.061v-2.911h-2.582v15.005zM156.6 93.084a1.813 1.813 0 0 0-1.8-1.831 1.865 1.865 0 0 0-1.861 1.831 1.845 1.845 0 0 0 1.861 1.831 1.794 1.794 0 0 0 1.8-1.831zm-3.122 20.857h2.581V98.936h-2.581v15.005zm23.471-7.5a7.85 7.85 0 1 0-7.835 7.8 7.7 7.7 0 0 0 7.833-7.802zm-13.058 0a5.211 5.211 0 1 1 5.223 5.4 5.157 5.157 0 0 1-5.225-5.402zm18.033 1.71c0 3.721 2.222 6.092 5.524 6.092a5.165 5.165 0 0 0 4.623-2.611v2.311h2.582V98.936h-2.582v7.442c0 3.452-1.831 5.492-4.173 5.492-2.071 0-3.392-1.59-3.392-4.111v-8.823h-2.582v9.213zm28.812 1.621c0-2.251-1.411-3.692-3.963-4.532l-1.621-.54c-1.771-.57-2.311-1.14-2.311-2.1 0-1.11 1.11-1.74 2.521-1.74a4.055 4.055 0 0 1 3.182 1.56l1.681-1.62a5.82 5.82 0 0 0-4.8-2.161c-2.972 0-5.073 1.65-5.073 4.081 0 2.1 1.291 3.571 3.722 4.352l1.471.48c1.952.63 2.672 1.35 2.672 2.4 0 1.29-1.171 2.04-2.642 2.04a4.028 4.028 0 0 1-3.842-2.37l-2.1 1.14c.93 2.341 3.272 3.481 5.883 3.481 3.026-.002 5.218-1.532 5.218-4.473zm8.759 2.16a2.221 2.221 0 1 0-2.221 2.251 2.26 2.26 0 0 0 2.219-2.253zm13.232-8.643a11.077 11.077 0 0 0 20.443 5.852l-2.342-1.41a8.373 8.373 0 1 1 0-8.883l2.342-1.41a11.077 11.077 0 0 0-20.445 5.849zm39.736 3.152a7.85 7.85 0 1 0-7.835 7.8 7.7 7.7 0 0 0 7.833-7.802zm-13.058 0a5.211 5.211 0 1 1 5.223 5.4 5.157 5.157 0 0 1-5.228-5.402zm18.243 7.5h2.582V106.5c0-3.512 1.921-5.492 4.353-5.492 2.1 0 3.542 1.56 3.542 4.081v8.853h2.552V104.7c0-3.721-2.312-6.062-5.674-6.062a5.308 5.308 0 0 0-4.773 2.611v-2.313h-2.582v15.005zm19.175 0h2.577V106.5c0-3.512 1.921-5.492 4.353-5.492 2.1 0 3.542 1.56 3.542 4.081v8.853h2.552V104.7c0-3.721-2.312-6.062-5.674-6.062a5.308 5.308 0 0 0-4.773 2.611v-2.313h-2.582v15.005zm18-7.5a7.914 7.914 0 0 0 14.53 4.231l-2.042-1.411a5.314 5.314 0 0 1-9.876-2.31h12.308a7.328 7.328 0 0 0 .03-.781c-.03-4.8-3.212-7.532-7.145-7.532a7.6 7.6 0 0 0-7.803 7.801zm7.715-5.522a4.489 4.489 0 0 1 4.593 3.931h-9.516a4.906 4.906 0 0 1 4.925-3.933zm26.02 9.3l-2.252-1.261a5.086 5.086 0 0 1-4.683 2.881 5.4 5.4 0 0 1 0-10.8 5.086 5.086 0 0 1 4.683 2.881l2.252-1.261a7.774 7.774 0 0 0-6.935-4.021 7.8 7.8 0 1 0 0 15.605 7.774 7.774 0 0 0 6.937-4.023zm12.961 3.511v-2.31a5.715 5.715 0 0 1-1.832.3c-1.621 0-2.491-.63-2.491-2.551v-7.862h4.323v-2.371H357.2v-4.171h-2.582v4.171h-3.182v2.371h3.182v8.193a4.224 4.224 0 0 0 4.593 4.591 7.191 7.191 0 0 0 2.31-.36zm3.417-7.292a7.913 7.913 0 0 0 14.529 4.231l-2.041-1.411a5.314 5.314 0 0 1-9.876-2.31h12.308a7.328 7.328 0 0 0 .03-.781c-.03-4.8-3.212-7.532-7.145-7.532a7.6 7.6 0 0 0-7.803 7.804zm7.715-5.522a4.489 4.489 0 0 1 4.593 3.931h-9.514a4.906 4.906 0 0 1 4.923-3.93zm11.22 5.522a7.509 7.509 0 0 0 7.355 7.8 6.582 6.582 0 0 0 5.283-2.611v2.311h2.582V91.433h-2.582v9.814a6.583 6.583 0 0 0-5.283-2.611 7.51 7.51 0 0 0-7.353 7.803zm12.848 0a5.127 5.127 0 1 1-5.1-5.432 5.123 5.123 0 0 1 5.102 5.433zm12.3 5.491a2.222 2.222 0 1 0-2.221 2.251 2.26 2.26 0 0 0 2.223-2.25zm35.266-8.643A11.017 11.017 0 1 0 433.27 114.3a10.91 10.91 0 0 0 11.017-11.013zm-19.213 0a8.212 8.212 0 1 1 8.2 8.373 8.171 8.171 0 0 1-8.198-8.372zm24.276 4.862c0 3.721 2.222 6.092 5.524 6.092a5.165 5.165 0 0 0 4.623-2.611v2.311h2.581V98.936H459.5v7.442c0 3.452-1.831 5.492-4.173 5.492-2.071 0-3.392-1.59-3.392-4.111v-8.823h-2.585v9.213zm27.22 5.582v-2.31a5.7 5.7 0 0 1-1.831.3c-1.621 0-2.491-.63-2.491-2.551v-7.862h4.322v-2.371h-4.322v-4.171h-2.582v4.171h-3.182v2.371h3.182v8.193a4.224 4.224 0 0 0 4.593 4.591 7.18 7.18 0 0 0 2.313-.36zm16.743-20.647a1.813 1.813 0 0 0-1.8-1.831 1.865 1.865 0 0 0-1.861 1.831 1.845 1.845 0 0 0 1.861 1.831 1.794 1.794 0 0 0 1.802-1.83zm-3.122 20.857h2.581V98.936h-2.581v15.005zm8.972 0h2.581v-7.44c0-3.512 1.922-5.492 4.353-5.492 2.1 0 3.542 1.56 3.542 4.081v8.853h2.552V104.7c0-3.721-2.311-6.062-5.674-6.062a5.308 5.308 0 0 0-4.773 2.611v-2.313h-2.581v15.005zm35.622-.21v-2.31a5.715 5.715 0 0 1-1.832.3c-1.621 0-2.491-.63-2.491-2.551v-7.862h4.323v-2.371h-4.323v-4.171h-2.58v4.171h-3.18v2.371h3.182v8.193a4.224 4.224 0 0 0 4.593 4.591 7.191 7.191 0 0 0 2.31-.36zm4.8.21h2.581v-7.44c0-3.512 1.922-5.492 4.353-5.492 2.1 0 3.542 1.56 3.542 4.081v8.853h2.552V104.7c0-3.721-2.311-6.062-5.674-6.062a5.308 5.308 0 0 0-4.773 2.611v-9.816h-2.581v22.508zm18-7.5a7.913 7.913 0 0 0 14.529 4.231l-2.041-1.411a5.315 5.315 0 0 1-9.877-2.31h12.308a7.328 7.328 0 0 0 .03-.781c-.03-4.8-3.212-7.532-7.144-7.532a7.6 7.6 0 0 0-7.801 7.802zm7.715-5.522a4.491 4.491 0 0 1 4.593 3.931h-9.516a4.905 4.905 0 0 1 4.925-3.932zm33.4 13.024h2.281l5.1-15.005h-2.731l-3.633 10.954-3.752-10.954h-1.973l-3.753 10.954-3.632-10.954h-2.7l5.1 15.005h2.281l3.722-10.8zm26.107-7.5a7.85 7.85 0 1 0-7.835 7.8 7.7 7.7 0 0 0 7.84-7.803zm-13.058 0a5.211 5.211 0 1 1 5.223 5.4 5.157 5.157 0 0 1-5.218-5.403zm18.244 7.5h2.581V106.5c0-3.512 2.072-5.162 3.963-5.162a3.78 3.78 0 0 1 1.411.24v-2.672a5.36 5.36 0 0 0-1.171-.12 4.467 4.467 0 0 0-4.2 3.061v-2.911H630v15.005zm12.483 0h2.581V91.433h-2.581v22.508zm7.8-7.5a7.509 7.509 0 0 0 7.355 7.8 6.58 6.58 0 0 0 5.283-2.611v2.311h2.588V91.433h-2.582v9.814a6.581 6.581 0 0 0-5.283-2.611 7.51 7.51 0 0 0-7.355 7.803zm12.848 0a5.127 5.127 0 1 1-5.1-5.432 5.123 5.123 0 0 1 5.106 5.429zm12.3 5.491a2.222 2.222 0 1 0-2.221 2.251 2.26 2.26 0 0 0 2.227-2.254zm5.7-16.055a2.654 2.654 0 0 0 .421-1.35 2.237 2.237 0 1 0-4.473 0 2.326 2.326 0 0 0 1.23 2.011l-2.011 4.292h1.741zm5.584 0a2.653 2.653 0 0 0 .42-1.35 2.237 2.237 0 1 0-4.473 0 2.327 2.327 0 0 0 1.231 2.011l-2.011 4.292h1.741z" fill-rule="evenodd" fill="#fff"/><path data-name="Rectangle 4 copy 5" fill="#fff" d="M159.844 149.812h450.094v60H159.844z"/><path data-name="Shop the Icon Collection" d="M223.872 187.236c2.706 0 4.565-1.653 4.583-4.022.018-1.966-1.191-3.215-3.05-3.894l-.9-.331c-1.353-.5-1.984-.808-1.984-1.506 0-.68.775-.992 1.551-.992a2.828 2.828 0 0 1 2.219 1.084l1.877-2.021a5.3 5.3 0 0 0-4.132-1.8c-2.562 0-4.42 1.488-4.42 4.023 0 1.782 1.154 3.049 3.229 3.765l.9.313c1.281.44 1.787.9 1.787 1.561 0 .624-.6 1.083-1.552 1.083a3.337 3.337 0 0 1-2.652-1.487l-2.2 1.891a5.584 5.584 0 0 0 4.744 2.333zm9.728-.22h2.869v-5.161h5.16v5.161h2.871v-13.041h-2.869v5.106h-5.16v-5.106H233.6v13.041zm22.666.22a6.742 6.742 0 1 0-6.622-6.741 6.7 6.7 0 0 0 6.622 6.741zm0-2.828a3.918 3.918 0 1 1 3.717-3.913 3.838 3.838 0 0 1-3.717 3.913zm20.627-5.97a4.4 4.4 0 0 0-4.511-4.463h-4.348v13.041h2.866v-4.133h1.479a4.386 4.386 0 0 0 4.514-4.445zm-2.779 0a1.7 1.7 0 0 1-1.768 1.708H270.9v-3.416h1.443a1.689 1.689 0 0 1 1.771 1.708zm16.189 8.578h2.887v-10.249h3.3v-2.792h-9.455v2.792h3.265v10.249zm11.1 0h2.869v-5.161h5.16v5.161h2.868v-13.041h-2.869v5.106h-5.16v-5.106H301.4v13.041zm16.766 0h8.119v-2.792h-5.251v-2.333h4.168V179.1h-4.168v-2.332h5.251v-2.792h-8.119v13.041zm20.591 0h2.869v-13.041h-2.869v13.041zm14.635.22a6.6 6.6 0 0 0 5.99-3.563l-2.526-1.4a3.8 3.8 0 0 1-3.464 2.131 3.917 3.917 0 0 1 0-7.825 3.8 3.8 0 0 1 3.464 2.131l2.526-1.4a6.6 6.6 0 0 0-5.99-3.564 6.742 6.742 0 0 0 .005 13.49zm16.73 0a6.742 6.742 0 1 0-6.625-6.736 6.7 6.7 0 0 0 6.625 6.736zm0-2.828a3.918 3.918 0 1 1 3.717-3.913 3.838 3.838 0 0 1-3.717 3.913zm23.351 2.608v-13.041h-2.887v8.045l-6.224-8.045h-2.472v13.041h2.869v-8.064l6.238 8.064h2.472zm18.9.22a6.605 6.605 0 0 0 5.99-3.563l-2.526-1.4a3.8 3.8 0 0 1-3.464 2.131 3.917 3.917 0 0 1 0-7.825 3.8 3.8 0 0 1 3.464 2.131l2.526-1.4a6.606 6.606 0 0 0-5.99-3.564 6.742 6.742 0 0 0-.003 13.49zm16.73 0a6.742 6.742 0 1 0-6.622-6.741 6.7 6.7 0 0 0 6.616 6.741zm0-2.828a3.918 3.918 0 1 1 3.716-3.913 3.838 3.838 0 0 1-3.722 3.913zm11.768 2.608h8.173v-2.792h-5.305v-10.249h-2.868v13.041zm13.12 0h8.173v-2.792h-5.305v-10.249h-2.868v13.041zm13.12 0h8.119v-2.792h-5.25v-2.333h4.167V179.1h-4.17v-2.332h5.25v-2.792h-8.119v13.041zm19.038.22a6.606 6.606 0 0 0 5.991-3.563l-2.526-1.4a3.8 3.8 0 0 1-3.465 2.131 3.917 3.917 0 0 1 0-7.825 3.8 3.8 0 0 1 3.465 2.131l2.526-1.4a6.606 6.606 0 0 0-5.991-3.564 6.742 6.742 0 0 0-.003 13.49zm13.14-.22h2.886v-10.249h3.3v-2.792h-9.454v2.792h3.266v10.249zm11.1 0h2.869v-13.041h-2.869v13.041zm14.635.22a6.742 6.742 0 1 0-6.627-6.736 6.7 6.7 0 0 0 6.623 6.736zm0-2.828a3.918 3.918 0 1 1 3.717-3.913 3.838 3.838 0 0 1-3.721 3.913zm23.351 2.608v-13.041h-2.887v8.045l-6.224-8.045h-2.472v13.041h2.869v-8.064l6.242 8.064h2.472z" fill-rule="evenodd"/></svg>