<svg id="copy_copy_2" data-name="copy copy 2" xmlns="http://www.w3.org/2000/svg" width="720" height="150" viewBox="0 0 720 150">
  <defs>
    <style>
      .cls-1 {
        fill: #fff;
      }

      .cls-1, .cls-2 {
        fill-rule: evenodd;
      }
    </style>
  </defs>
  <path id="Rectangle_106_copy_5" data-name="Rectangle 106 copy 5" class="cls-1" d="M0,0H719.813l0.171,150H0.172Z"/>
  <g id="CTA_underline">
    <rect x="30" y="97" width="90" height="3"/>
    <path id="SHOP_now" data-name="SHOP now" class="cls-2" d="M33.395,92.2a3.12,3.12,0,0,0,3.422-3.065,3.05,3.05,0,0,0-2.277-2.967l-0.674-.252c-1.011-.378-1.482-0.616-1.482-1.148a0.984,0.984,0,0,1,1.159-.756,2.1,2.1,0,0,1,1.657.826l1.4-1.54a3.921,3.921,0,0,0-3.085-1.372A3,3,0,0,0,30.215,85c0,1.358.862,2.324,2.412,2.869L33.3,88.1c0.957,0.336,1.334.686,1.334,1.19a0.977,0.977,0,0,1-1.159.826A2.48,2.48,0,0,1,31.5,88.985l-1.644,1.442A4.143,4.143,0,0,0,33.395,92.2Zm7.332-.168h2.142V88.1h3.853v3.933h2.142V82.1H46.723V85.99H42.869V82.1H40.727v9.938ZM57.72,92.2a5.141,5.141,0,1,0-4.945-5.137A5.056,5.056,0,0,0,57.72,92.2Zm0-2.156A2.989,2.989,0,1,1,60.5,87.068,2.9,2.9,0,0,1,57.72,90.049ZM73.191,85.5a3.32,3.32,0,0,0-3.368-3.4H66.575v9.938h2.142V88.887h1.1A3.308,3.308,0,0,0,73.191,85.5Zm-2.075,0a1.282,1.282,0,0,1-1.32,1.3H68.717V84.2H69.8A1.274,1.274,0,0,1,71.116,85.5Zm19.54,6.537V82.1H88.5v6.131L83.851,82.1H82.006v9.938h2.142V85.892l4.662,6.145h1.846ZM99.511,92.2a5.141,5.141,0,1,0-4.945-5.137A5.056,5.056,0,0,0,99.511,92.2Zm0-2.156a2.989,2.989,0,1,1,2.775-2.981A2.9,2.9,0,0,1,99.511,90.049Zm16.265,1.987h2.035l2.223-9.938h-2.29l-1.307,6.3-2.695-6.466L111.061,88.4l-1.307-6.3h-2.291l2.21,9.938h2.034l2.035-4.871Z"/>
  </g>
  <path id="Slim-Fit_Chambray_Shirt" data-name="Slim-Fit Chambray Shirt" class="cls-2" d="M37.946,52.231c4.5,0,7.59-2.7,7.62-6.57,0.03-3.21-1.98-5.25-5.07-6.36l-1.5-.54c-2.25-.81-3.3-1.32-3.3-2.46,0-1.11,1.29-1.62,2.58-1.62a4.738,4.738,0,0,1,3.69,1.77l3.12-3.3a8.887,8.887,0,0,0-6.87-2.94c-4.26,0-7.35,2.43-7.35,6.57,0,2.91,1.92,4.98,5.37,6.15l1.5,0.51c2.13,0.72,2.97,1.47,2.97,2.55,0,1.02-.99,1.77-2.58,1.77a5.573,5.573,0,0,1-4.41-2.43l-3.66,3.09A9.34,9.34,0,0,0,37.946,52.231Zm12.42-.36H63.956v-4.56h-8.82V30.572h-4.77v21.3Zm18.06,0H73.2v-21.3h-4.77v21.3ZM90.2,47.341l6.21-8.61V51.871h4.8v-21.3H96.865l-6.66,9.18-6.66-9.18H79.2v21.3h4.77V38.732Zm16.5-3.96h8.82v-4.32h-8.82v4.32Zm14.31,8.49h4.769v-8.34h6.51v-4.56h-6.51v-3.84h8.34v-4.56H121.015v21.3Zm17.85,0h4.769v-21.3h-4.769v21.3Zm14.609,0h4.8V35.132h5.49v-4.56h-15.72v4.56h5.43V51.871Zm31.74,0.36a11.01,11.01,0,0,0,9.959-5.82l-4.2-2.28a6.39,6.39,0,1,1,0-5.82l4.2-2.28A11.1,11.1,0,1,0,185.214,52.231Zm14.25-.36h4.77v-8.43h8.579v8.43h4.77v-21.3h-4.77v8.34h-8.579v-8.34h-4.77v21.3Zm21.84,0h4.98l1.89-4.5h8.819l1.89,4.5h4.98l-9.12-21.3h-4.319Zm8.61-8.64,2.669-6.42,2.67,6.42h-5.339Zm28.679,4.11,6.21-8.61V51.871h4.8v-21.3h-4.35l-6.66,9.18-6.659-9.18h-4.35v21.3h4.77V38.732Zm17.01,4.53h9.36a6.3,6.3,0,0,0,6.48-6.27,5.566,5.566,0,0,0-3.03-5.04,5.013,5.013,0,0,0,1.53-3.66,6.331,6.331,0,0,0-6.33-6.33H275.6v21.3Zm4.77-12.689v-4.26h2.7a2.165,2.165,0,0,1,2.22,2.16,2.135,2.135,0,0,1-2.22,2.1h-2.7Zm0,8.31v-4.26h4.17a2.167,2.167,0,0,1,2.25,2.13,2.141,2.141,0,0,1-2.22,2.13h-4.2Zm15.78,4.38h4.77v-8.79h0.78l7.08,8.79h5.73l-7.53-9.39c2.7-.96,4.17-2.73,4.17-5.49a6.288,6.288,0,0,0-6.6-6.42h-8.4v21.3Zm4.77-12.84v-4.08h3.06c1.41,0,2.43.75,2.43,2.04a2.156,2.156,0,0,1-2.43,2.04h-3.06Zm14.31,12.84h4.98l1.89-4.5h8.819l1.89,4.5h4.98l-9.12-21.3h-4.319Zm8.61-8.64,2.67-6.42,2.669,6.42h-5.339Zm20.67,8.64h4.8v-8.94l7.769-12.359h-5.549l-4.65,7.68-4.59-7.68h-5.55l7.77,12.33v8.97Zm30.3,0.36c4.5,0,7.59-2.7,7.62-6.57,0.03-3.21-1.98-5.25-5.07-6.36l-1.5-.54c-2.25-.81-3.3-1.32-3.3-2.46,0-1.11,1.29-1.62,2.58-1.62a4.738,4.738,0,0,1,3.69,1.77l3.12-3.3a8.888,8.888,0,0,0-6.87-2.94c-4.259,0-7.349,2.43-7.349,6.57,0,2.91,1.92,4.98,5.369,6.15l1.5,0.51c2.13,0.72,2.97,1.47,2.97,2.55,0,1.02-.99,1.77-2.58,1.77a5.569,5.569,0,0,1-4.409-2.43l-3.66,3.09A9.338,9.338,0,0,0,374.812,52.231Zm12.42-.36H392v-8.43h8.58v8.43h4.77v-21.3h-4.77v8.34H392v-8.34h-4.77v21.3Zm24.12,0h4.77v-21.3h-4.77v21.3Zm10.77,0h4.77v-8.79h0.78l7.079,8.79h5.73l-7.53-9.39c2.7-.96,4.17-2.73,4.17-5.49a6.288,6.288,0,0,0-6.6-6.42h-8.4v21.3Zm4.77-12.84v-4.08h3.06c1.41,0,2.429.75,2.429,2.04a2.155,2.155,0,0,1-2.429,2.04h-3.06Zm19.77,12.84h4.8V35.132h5.489v-4.56H441.232v4.56h5.43V51.871Z"/>
</svg>
