<svg id="copy_copy_2" data-name="copy copy 2" xmlns="http://www.w3.org/2000/svg" width="720" height="251" viewBox="0 0 720 251">
  <defs>
    <style>
      .cls-1 {
        fill: #fff;
      }

      .cls-1, .cls-2 {
        fill-rule: evenodd;
      }
    </style>
  </defs>
  <path id="Rectangle_106_copy_5" data-name="Rectangle 106 copy 5" class="cls-1" d="M0,0H719.813l0.171,251H0.172Z"/>
  <g id="CTA_underline">
    <rect x="30" y="198" width="90" height="3"/>
    <path id="SHOP_now" data-name="SHOP now" class="cls-2" d="M33.395,193.2a3.12,3.12,0,0,0,3.422-3.065,3.049,3.049,0,0,0-2.277-2.967l-0.674-.252c-1.011-.378-1.482-0.616-1.482-1.148a0.984,0.984,0,0,1,1.159-.756,2.1,2.1,0,0,1,1.657.826l1.4-1.54a3.923,3.923,0,0,0-3.085-1.371,3,3,0,0,0-3.3,3.065c0,1.358.862,2.323,2.412,2.869L33.3,189.1c0.957,0.336,1.334.686,1.334,1.19a0.977,0.977,0,0,1-1.159.826,2.48,2.48,0,0,1-1.981-1.134l-1.644,1.442A4.141,4.141,0,0,0,33.395,193.2Zm7.332-.168h2.142V189.1h3.853v3.933h2.142V183.1H46.723v3.891H42.869V183.1H40.727v9.937ZM57.72,193.2a5.14,5.14,0,1,0-4.945-5.136A5.055,5.055,0,0,0,57.72,193.2Zm0-2.155a2.989,2.989,0,1,1,2.776-2.981A2.9,2.9,0,0,1,57.72,191.049ZM73.191,186.5a3.319,3.319,0,0,0-3.368-3.4H66.575v9.937h2.142v-3.149h1.1A3.308,3.308,0,0,0,73.191,186.5Zm-2.075,0a1.282,1.282,0,0,1-1.32,1.3H68.717v-2.6H69.8A1.274,1.274,0,0,1,71.116,186.5Zm19.54,6.536V183.1H88.5v6.13l-4.648-6.13H82.006v9.937h2.142v-6.144l4.662,6.144h1.846Zm8.855,0.168a5.14,5.14,0,1,0-4.945-5.136A5.056,5.056,0,0,0,99.511,193.2Zm0-2.155a2.989,2.989,0,1,1,2.775-2.981A2.9,2.9,0,0,1,99.511,191.049Zm16.265,1.987h2.035l2.223-9.937h-2.29l-1.307,6.3-2.695-6.466-2.681,6.466-1.307-6.3h-2.291l2.21,9.937h2.034l2.035-4.87Z"/>
  </g>
  <path id="Rapid_Movement_Cargo_Chino_Cotton_twill_b._1981_The_first_Ban" data-name="Rapid Movement Cargo Chino Cotton twill, b. 1981  The first Ban" class="cls-2" d="M31.586,50.871h4.77v-8.79h0.78l7.08,8.79h5.73l-7.53-9.39c2.7-.96,4.17-2.73,4.17-5.49a6.288,6.288,0,0,0-6.6-6.42h-8.4v21.3Zm4.77-12.84v-4.08h3.06c1.41,0,2.43.75,2.43,2.04a2.156,2.156,0,0,1-2.43,2.04h-3.06Zm14.31,12.84h4.98l1.89-4.5h8.82l1.89,4.5h4.98l-9.12-21.3h-4.32Zm8.61-8.64,2.67-6.42,2.67,6.42h-5.34Zm32.4-5.37a7.254,7.254,0,0,0-7.5-7.29h-7.23v21.3h4.77v-6.75h2.46A7.229,7.229,0,0,0,91.675,36.862Zm-4.62,0a2.8,2.8,0,0,1-2.94,2.79h-2.4v-5.58h2.4A2.785,2.785,0,0,1,87.056,36.862Zm9.18,14.009h4.769v-21.3H96.236v21.3Zm10.769,0h7.26a10.652,10.652,0,1,0,0-21.3h-7.26v21.3Zm4.77-4.38V33.952h2.49a6.011,6.011,0,0,1,6.03,6.27,6.011,6.011,0,0,1-6.03,6.27h-2.49Zm37.289-.15,6.21-8.61V50.871h4.8v-21.3h-4.35l-6.66,9.18-6.659-9.18h-4.35v21.3h4.77V37.732Zm26.82,4.89a11.01,11.01,0,1,0-11.009-11.01A11.036,11.036,0,0,0,175.884,51.231Zm0-4.62a6.393,6.393,0,1,1,6.18-6.39A6.32,6.32,0,0,1,175.884,46.611Zm21.39,4.26h4.29l8.73-21.3h-5.25L199.4,43.761l-5.67-14.189h-5.19Zm16.8,0h13.5v-4.56h-8.729V42.5h6.93v-4.56h-6.93v-3.81h8.729v-4.56h-13.5v21.3Zm29.64-4.53,6.209-8.61V50.871h4.8v-21.3h-4.35l-6.659,9.18-6.66-9.18H232.7v21.3h4.77V37.732Zm17.01,4.53h13.5v-4.56h-8.73V42.5h6.93v-4.56h-6.93v-3.81h8.73v-4.56h-13.5v21.3Zm37.889,0v-21.3h-4.8V42.711l-10.35-13.139h-4.109v21.3h4.769V37.7l10.38,13.17h4.11Zm9.84,0h4.8V34.132h5.49v-4.56h-15.72v4.56h5.43V50.871Zm31.74,0.36a11.01,11.01,0,0,0,9.959-5.82l-4.2-2.28a6.39,6.39,0,1,1,0-5.82l4.2-2.28A11.1,11.1,0,1,0,340.193,51.231Zm11.46-.36h4.98l1.89-4.5h8.819l1.89,4.5h4.98l-9.119-21.3h-4.32Zm8.61-8.64,2.67-6.42,2.67,6.42h-5.34Zm17.67,8.64h4.77v-8.79h0.78l7.079,8.79h5.73l-7.529-9.39c2.7-.96,4.169-2.73,4.169-5.49a6.288,6.288,0,0,0-6.6-6.42h-8.4v21.3Zm4.77-12.84v-4.08h3.06c1.41,0,2.43.75,2.43,2.04a2.156,2.156,0,0,1-2.43,2.04H382.7Zm26.22,13.2c3.449,0,6.839-1.02,8.729-3.15V37.972h-8.819v4.47H413v3.15a6.936,6.936,0,0,1-4.139,1.02c-4.17,0-6.72-2.76-6.72-6.39a6.252,6.252,0,0,1,6.42-6.39,7.071,7.071,0,0,1,5.369,2.28l3.36-3.27a11.333,11.333,0,0,0-8.729-3.63,10.88,10.88,0,0,0-11.22,11.01C397.343,46.461,402.293,51.231,408.923,51.231Zm23.789,0A11.01,11.01,0,1,0,421.7,40.222,11.036,11.036,0,0,0,432.712,51.231Zm0-4.62a6.393,6.393,0,1,1,6.18-6.39A6.32,6.32,0,0,1,432.712,46.611Zm33.719,4.62a11.01,11.01,0,0,0,9.96-5.82l-4.2-2.28a6.39,6.39,0,1,1,0-5.82l4.2-2.28A11.1,11.1,0,1,0,466.431,51.231Zm14.251-.36h4.769v-8.43h8.58v8.43h4.77v-21.3h-4.77v8.34h-8.58v-8.34h-4.769v21.3Zm24.12,0h4.769v-21.3H504.8v21.3Zm30.029,0v-21.3h-4.8V42.711l-10.35-13.139h-4.11v21.3h4.77V37.7l10.38,13.17h4.11Zm15.81,0.36a11.01,11.01,0,1,0-11.01-11.01A11.036,11.036,0,0,0,550.641,51.231Zm0-4.62a6.393,6.393,0,1,1,6.179-6.39A6.32,6.32,0,0,1,550.641,46.611ZM30.147,72.479A6.644,6.644,0,0,0,42.408,75.99L41,75.144a5.024,5.024,0,1,1,0-5.33l1.4-.846A6.644,6.644,0,0,0,30.147,72.479ZM53.981,74.37a4.709,4.709,0,1,0-4.7,4.681A4.62,4.62,0,0,0,53.981,74.37Zm-7.832,0a3.126,3.126,0,1,1,3.133,3.241A3.094,3.094,0,0,1,46.149,74.37Zm21.963,4.375V77.359a3.421,3.421,0,0,1-1.1.18,1.3,1.3,0,0,1-1.495-1.531V71.291h2.593V69.868H65.519v-2.5H63.971v2.5H62.422v1.422h1.548v4.915a2.534,2.534,0,0,0,2.755,2.755A4.31,4.31,0,0,0,68.112,78.745Zm-6.3,0V77.359a3.421,3.421,0,0,1-1.1.18,1.3,1.3,0,0,1-1.495-1.531V71.291h2.2V69.868h-2.2v-2.5H57.669v2.5H55.76v1.422h1.909v4.915a2.534,2.534,0,0,0,2.755,2.755A4.309,4.309,0,0,0,61.81,78.745ZM79.559,74.37a4.708,4.708,0,1,0-4.7,4.681A4.62,4.62,0,0,0,79.559,74.37Zm-7.832,0a3.126,3.126,0,1,1,3.133,3.241A3.094,3.094,0,0,1,71.727,74.37Zm10.944,4.5h1.548V74.406c0-2.107,1.152-3.3,2.611-3.3a2.161,2.161,0,0,1,2.125,2.449v5.312h1.53V73.325a3.318,3.318,0,0,0-3.4-3.637,3.183,3.183,0,0,0-2.863,1.566V69.868H82.671v9Zm21.367-.126V77.359a3.425,3.425,0,0,1-1.1.18,1.3,1.3,0,0,1-1.494-1.531V71.291h2.593V69.868h-2.593v-2.5H99.9v2.5H97.988v1.422H99.9v4.915a2.534,2.534,0,0,0,2.755,2.755A4.318,4.318,0,0,0,104.038,78.745Zm10.512,0.126h1.369l3.061-9h-1.639l-2.178,6.572-2.251-6.572h-1.188l-2.251,6.572-2.179-6.572h-1.62l3.061,9H110.1l2.233-6.482Zm8.872-12.514a1.087,1.087,0,0,0-1.08-1.1,1.118,1.118,0,0,0-1.116,1.1,1.106,1.106,0,0,0,1.116,1.1A1.076,1.076,0,0,0,123.422,66.357ZM121.55,78.871H123.1v-9H121.55v9Zm5.382,0h1.548v-13.5h-1.548v13.5Zm5.382,0h1.548v-13.5h-1.548v13.5Zm7.308-.4a1.54,1.54,0,0,0,.252-0.81,1.333,1.333,0,1,0-2.665,0,1.339,1.339,0,0,0,.739,1.206l-1.207,2.575h1.026Zm10.422-.99a3.947,3.947,0,0,0,3.169,1.566,4.69,4.69,0,0,0,0-9.363,3.947,3.947,0,0,0-3.169,1.566V65.367H148.5v13.5h1.549V77.485Zm5.995-3.115a3.067,3.067,0,1,1-3.061-3.259A3.074,3.074,0,0,1,156.039,74.37Zm6.659,3.295a1.333,1.333,0,1,0-1.333,1.35A1.357,1.357,0,0,0,162.7,77.665Zm9.7,1.206h1.549V66.087h-2.755l-1.261,1.53H172.4V78.871Zm5.472,0h1.98l4.682-5.528a4.911,4.911,0,0,0,1.44-3.259,4.331,4.331,0,0,0-8.66.054,4.13,4.13,0,0,0,4,4.105,2.294,2.294,0,0,0,.5-0.036Zm1.026-8.751a2.746,2.746,0,1,1,2.737,2.755A2.717,2.717,0,0,1,178.9,70.121Zm18.02,4.915a3.572,3.572,0,0,0-2-3.349,2.994,2.994,0,0,0,1.3-2.521,3.318,3.318,0,0,0-3.583-3.3,3.364,3.364,0,0,0-3.6,3.3,2.981,2.981,0,0,0,1.332,2.521,3.572,3.572,0,0,0-2.034,3.349A4.3,4.3,0,0,0,196.917,75.036ZM190.561,69.2a1.9,1.9,0,0,1,2.071-1.873,1.867,1.867,0,0,1,2.052,1.873,1.91,1.91,0,0,1-2.052,1.891A1.948,1.948,0,0,1,190.561,69.2ZM189.9,75.036a2.538,2.538,0,0,1,2.737-2.557,2.553,2.553,0,1,1,0,5.1A2.544,2.544,0,0,1,189.9,75.036Zm11.34,3.835h1.549V66.087h-2.755l-1.261,1.53h2.467V78.871Zm-168.089,40H34.6v-9.956H38.14v-1.408H29.609v1.408h3.537v9.956Zm7.247,0H41.77V114.9c0-1.872,1.024-2.929,2.321-2.929a1.921,1.921,0,0,1,1.889,2.177v4.722h1.36v-4.93a2.949,2.949,0,0,0-3.025-3.233A2.83,2.83,0,0,0,41.77,112.1v-5.234H40.393v12Zm9.6-4a4.219,4.219,0,0,0,7.747,2.257l-1.088-.752a2.833,2.833,0,0,1-5.266-1.232h6.563a3.922,3.922,0,0,0,.016-0.417,3.729,3.729,0,0,0-3.809-4.017A4.056,4.056,0,0,0,49.993,114.869Zm4.114-2.945a2.4,2.4,0,0,1,2.449,2.1H51.481A2.617,2.617,0,0,1,54.106,111.924Zm11.775,6.947h1.377v-6.739h2.321v-1.264H67.258V109.4a1.152,1.152,0,0,1,1.329-1.36,3.224,3.224,0,0,1,.992.16v-1.217a3.639,3.639,0,0,0-1.249-.208,2.286,2.286,0,0,0-2.449,2.481v1.617h-1.7v1.264h1.7v6.739Zm6.867-11.124a0.967,0.967,0,0,0-.96-0.977,0.994,0.994,0,0,0-.992.977,0.984,0.984,0,0,0,.992.976A0.957,0.957,0,0,0,72.748,107.747Zm-1.665,11.124H72.46v-8H71.083v8Zm4.766,0h1.377V114.9c0-1.872,1.1-2.753,2.113-2.753a2.013,2.013,0,0,1,.752.128v-1.424a2.853,2.853,0,0,0-.624-0.064,2.381,2.381,0,0,0-2.241,1.632v-1.552H75.849v8Zm11.7-2.225c0-1.2-.752-1.969-2.113-2.417l-0.864-.288c-0.944-.3-1.233-0.608-1.233-1.12a1.133,1.133,0,0,1,1.345-.929,2.161,2.161,0,0,1,1.7.833l0.9-.865a3.1,3.1,0,0,0-2.561-1.152c-1.585,0-2.705.88-2.705,2.177a2.416,2.416,0,0,0,1.985,2.321l0.784,0.256c1.041,0.336,1.425.72,1.425,1.28a1.218,1.218,0,0,1-1.408,1.089,2.149,2.149,0,0,1-2.049-1.265l-1.12.608a3.178,3.178,0,0,0,3.137,1.857C86.378,119.031,87.547,118.215,87.547,116.646Zm7.008,2.113v-1.232a3.043,3.043,0,0,1-.976.16,1.153,1.153,0,0,1-1.329-1.361v-4.194h2.3v-1.264h-2.3v-2.225H90.873v2.225h-1.7v1.264h1.7v4.37a2.253,2.253,0,0,0,2.449,2.449A3.831,3.831,0,0,0,94.554,118.759Zm7.471,0.112h4.065c2.3,0,3.81-1.424,3.81-3.313a2.708,2.708,0,0,0-1.969-2.721,2.578,2.578,0,0,0,1.216-2.321,3.111,3.111,0,0,0-3.393-3.009h-3.729v11.364Zm1.488-6.483v-3.537h2.241a1.786,1.786,0,0,1,1.937,1.777,1.749,1.749,0,0,1-1.937,1.76h-2.241Zm0,5.139v-3.858h2.657c1.5,0,2.273.832,2.273,1.937,0,1.12-.768,1.921-2.289,1.921h-2.641Zm8.543-2.658a4.005,4.005,0,0,0,3.922,4.162,3.51,3.51,0,0,0,2.817-1.392v1.232h1.376v-8H118.8V112.1a3.51,3.51,0,0,0-2.817-1.392A4.005,4.005,0,0,0,112.056,114.869Zm6.851,0a2.734,2.734,0,1,1-2.721-2.9A2.733,2.733,0,0,1,118.907,114.869Zm4.653,4h1.377V114.9c0-1.872,1.024-2.929,2.321-2.929a1.921,1.921,0,0,1,1.888,2.177v4.722h1.361v-4.93a2.949,2.949,0,0,0-3.025-3.233,2.829,2.829,0,0,0-2.545,1.392v-1.232H123.56v8Zm9.6-4a4,4,0,0,0,3.921,4.162,3.512,3.512,0,0,0,2.818-1.392v1.232h1.376v-8H139.9V112.1a3.512,3.512,0,0,0-2.818-1.392A4,4,0,0,0,133.16,114.869Zm6.851,0a2.734,2.734,0,1,1-2.722-2.9A2.734,2.734,0,0,1,140.011,114.869Zm4.653,4h1.376V114.9c0-1.872,1.025-2.929,2.321-2.929a1.921,1.921,0,0,1,1.889,2.177v4.722h1.361v-4.93a2.95,2.95,0,0,0-3.026-3.233,2.832,2.832,0,0,0-2.545,1.392v-1.232h-1.376v8Zm9.6-4a4.005,4.005,0,0,0,3.922,4.162A3.509,3.509,0,0,0,161,117.639v1.232h1.377v-8H161V112.1a3.509,3.509,0,0,0-2.817-1.392A4.005,4.005,0,0,0,154.263,114.869Zm6.851,0a2.734,2.734,0,1,1-2.721-2.9A2.733,2.733,0,0,1,161.114,114.869Zm9.565,4h1.489V113.7h1.1l4.37,5.17h1.873l-4.37-5.186a2.965,2.965,0,0,0,2.8-3.041,3.065,3.065,0,0,0-3.393-3.137h-3.874v11.364Zm1.489-6.5v-3.489h2.209c1.3,0,2.081.608,2.081,1.761,0,1.136-.785,1.728-2.081,1.728h-2.209Zm8.4,2.5a4.219,4.219,0,0,0,7.747,2.257l-1.088-.752a2.833,2.833,0,0,1-5.266-1.232h6.562a3.922,3.922,0,0,0,.016-0.417,3.728,3.728,0,0,0-3.809-4.017A4.056,4.056,0,0,0,180.567,114.869Zm4.114-2.945a2.4,2.4,0,0,1,2.449,2.1h-5.074A2.616,2.616,0,0,1,184.681,111.924Zm6.606,10.292h1.377v-4.577a3.509,3.509,0,0,0,2.817,1.392,4.169,4.169,0,0,0,0-8.323,3.509,3.509,0,0,0-2.817,1.392v-1.232h-1.377v11.348Zm6.707-7.347a2.726,2.726,0,1,1-2.721-2.9A2.733,2.733,0,0,1,197.994,114.869Zm4.077,0.913c0,1.985,1.185,3.249,2.945,3.249a2.753,2.753,0,0,0,2.465-1.392v1.232h1.377v-8h-1.377v3.969c0,1.841-.976,2.93-2.225,2.93-1.1,0-1.808-.849-1.808-2.193v-4.706h-1.377v4.914Zm11.553,1.857a3.509,3.509,0,0,0,2.817,1.392,4.169,4.169,0,0,0,0-8.323,3.509,3.509,0,0,0-2.817,1.392v-5.234h-1.377v12h1.377v-1.232Zm5.33-2.77a2.726,2.726,0,1,1-2.721-2.9A2.733,2.733,0,0,1,218.954,114.869Zm4.173,4H224.5v-12h-1.376v12Zm6.448-11.124a0.966,0.966,0,0,0-.96-0.977,0.994,0.994,0,0,0-.992.977,0.983,0.983,0,0,0,.992.976A0.956,0.956,0,0,0,229.575,107.747Zm-1.664,11.124h1.376v-8h-1.376v8Zm12.051-1.985-1.2-.672a2.713,2.713,0,0,1-2.5,1.537,2.883,2.883,0,0,1,0-5.763,2.713,2.713,0,0,1,2.5,1.537l1.2-.672a4.145,4.145,0,0,0-3.7-2.145,4.162,4.162,0,1,0,0,8.323A4.145,4.145,0,0,0,239.962,116.886Zm14.543,0-1.2-.672a2.714,2.714,0,0,1-2.5,1.537,2.883,2.883,0,0,1,0-5.763,2.714,2.714,0,0,1,2.5,1.537l1.2-.672a4.143,4.143,0,0,0-3.7-2.145,4.162,4.162,0,1,0,0,8.323A4.143,4.143,0,0,0,254.505,116.886Zm2.573,1.985h1.377V114.9c0-1.872,1.024-2.929,2.321-2.929a1.921,1.921,0,0,1,1.888,2.177v4.722h1.361v-4.93A2.949,2.949,0,0,0,261,110.708a2.829,2.829,0,0,0-2.545,1.392v-5.234h-1.377v12Zm11.889-11.124a0.967,0.967,0,0,0-.961-0.977,0.994,0.994,0,0,0-.992.977,0.983,0.983,0,0,0,.992.976A0.957,0.957,0,0,0,268.967,107.747ZM267.3,118.871h1.376v-8H267.3v8Zm4.784,0h1.376V114.9c0-1.872,1.025-2.929,2.321-2.929a1.921,1.921,0,0,1,1.889,2.177v4.722h1.361v-4.93a2.95,2.95,0,0,0-3.026-3.233,2.832,2.832,0,0,0-2.545,1.392v-1.232h-1.376v8Zm17.955-4a4.186,4.186,0,1,0-4.178,4.162A4.107,4.107,0,0,0,290.041,114.869Zm-6.963,0a2.779,2.779,0,1,1,2.785,2.882A2.751,2.751,0,0,1,283.078,114.869Zm14.431,7.347h1.377v-4.577a3.509,3.509,0,0,0,2.817,1.392,4.169,4.169,0,0,0,0-8.323,3.509,3.509,0,0,0-2.817,1.392v-1.232h-1.377v11.348Zm6.707-7.347a2.726,2.726,0,1,1-2.721-2.9A2.733,2.733,0,0,1,304.216,114.869Zm3.565,0a4.005,4.005,0,0,0,3.921,4.162,3.512,3.512,0,0,0,2.818-1.392v1.232H315.9v-8H314.52V112.1a3.512,3.512,0,0,0-2.818-1.392A4,4,0,0,0,307.781,114.869Zm6.851,0a2.734,2.734,0,1,1-2.721-2.9A2.733,2.733,0,0,1,314.632,114.869Zm4.653,4h1.377V114.9c0-1.872,1.024-2.929,2.32-2.929a1.921,1.921,0,0,1,1.889,2.177v4.722h1.361v-4.93a2.949,2.949,0,0,0-3.025-3.233,2.829,2.829,0,0,0-2.545,1.392v-1.232h-1.377v8Zm14.466-.112v-1.232a3.052,3.052,0,0,1-.977.16,1.153,1.153,0,0,1-1.328-1.361v-4.194h2.3v-1.264h-2.3v-2.225h-1.377v2.225h-1.7v1.264h1.7v4.37a2.253,2.253,0,0,0,2.449,2.449A3.84,3.84,0,0,0,333.751,118.759Zm13.76,0.112h1.217l2.721-8h-1.456l-1.937,5.842-2-5.842H345l-2,5.842-1.937-5.842H339.62l2.721,8h1.217l1.985-5.762Zm5.565-4A4.005,4.005,0,0,0,357,119.031a3.51,3.51,0,0,0,2.817-1.392v1.232h1.377v-8h-1.377V112.1A3.51,3.51,0,0,0,357,110.708,4.005,4.005,0,0,0,353.076,114.869Zm6.851,0a2.734,2.734,0,1,1-2.721-2.9A2.733,2.733,0,0,1,359.927,114.869Zm9.84,1.777c0-1.2-.753-1.969-2.113-2.417l-0.865-.288c-0.944-.3-1.232-0.608-1.232-1.12a1.132,1.132,0,0,1,1.344-.929,2.16,2.16,0,0,1,1.7.833l0.9-.865a3.1,3.1,0,0,0-2.561-1.152c-1.584,0-2.7.88-2.7,2.177a2.417,2.417,0,0,0,1.985,2.321L367,115.462c1.041,0.336,1.425.72,1.425,1.28a1.218,1.218,0,0,1-1.409,1.089,2.148,2.148,0,0,1-2.048-1.265l-1.121.608a3.178,3.178,0,0,0,3.137,1.857C368.6,119.031,369.767,118.215,369.767,116.646Zm7.469,2.225h1.377V114.9c0-1.808.912-2.929,2.208-2.929,1.041,0,1.569.9,1.569,2.193v4.706h1.377V114.9c0-1.808.9-2.929,2.193-2.929,1.04,0,1.584.9,1.584,2.193v4.706h1.377v-4.914c0-1.953-1.057-3.249-2.8-3.249a2.769,2.769,0,0,0-2.625,1.712,2.517,2.517,0,0,0-2.465-1.712,2.689,2.689,0,0,0-2.417,1.392v-1.232h-1.377v8Zm22.691-4a4.186,4.186,0,1,0-4.178,4.162A4.107,4.107,0,0,0,399.927,114.869Zm-6.963,0a2.779,2.779,0,1,1,2.785,2.882A2.751,2.751,0,0,1,392.964,114.869Zm9.1,0a4.005,4.005,0,0,0,3.922,4.162,3.509,3.509,0,0,0,2.817-1.392v1.232h1.377v-12h-1.377V112.1a3.509,3.509,0,0,0-2.817-1.392A4.005,4.005,0,0,0,402.067,114.869Zm6.851,0a2.734,2.734,0,1,1-2.721-2.9A2.733,2.733,0,0,1,408.918,114.869Zm4.029,0a4.219,4.219,0,0,0,7.747,2.257l-1.088-.752a2.833,2.833,0,0,1-5.266-1.232H420.9a3.922,3.922,0,0,0,.016-0.417,3.729,3.729,0,0,0-3.81-4.017A4.056,4.056,0,0,0,412.947,114.869Zm4.114-2.945a2.4,2.4,0,0,1,2.449,2.1h-5.074A2.617,2.617,0,0,1,417.061,111.924Zm6.607,6.947h1.376v-12h-1.376v12Zm4.159-4a4.219,4.219,0,0,0,7.747,2.257l-1.088-.752a2.833,2.833,0,0,1-5.266-1.232h6.562a3.922,3.922,0,0,0,.016-0.417,3.728,3.728,0,0,0-3.809-4.017A4.056,4.056,0,0,0,427.827,114.869Zm4.114-2.945a2.4,2.4,0,0,1,2.449,2.1h-5.074A2.616,2.616,0,0,1,431.941,111.924Zm5.982,2.945a4.005,4.005,0,0,0,3.922,4.162,3.51,3.51,0,0,0,2.817-1.392v1.232h1.376v-12h-1.376V112.1a3.51,3.51,0,0,0-2.817-1.392A4.005,4.005,0,0,0,437.923,114.869Zm6.851,0a2.734,2.734,0,1,1-2.721-2.9A2.733,2.733,0,0,1,444.774,114.869Zm8.733,0a4,4,0,0,0,3.921,4.162,3.509,3.509,0,0,0,2.817-1.392v1.232h1.377v-8h-1.377V112.1a3.509,3.509,0,0,0-2.817-1.392A4,4,0,0,0,453.507,114.869Zm6.85,0a2.734,2.734,0,1,1-2.721-2.9A2.733,2.733,0,0,1,460.357,114.869Zm5.326,4h1.377v-6.739h2.112v-1.264H467.06V109.4a1.152,1.152,0,0,1,1.328-1.36,3.233,3.233,0,0,1,.993.16v-1.217a3.646,3.646,0,0,0-1.249-.208,2.253,2.253,0,0,0-2.449,2.449v1.649h-1.7v1.264h1.7v6.739Zm9.588-.112v-1.232a3.145,3.145,0,0,1-.993.16,1.153,1.153,0,0,1-1.328-1.361v-4.194h2.321v-1.264H472.95v-2.225h-1.377v2.225h-1.5v1.264h1.5v4.37a2.265,2.265,0,0,0,2.465,2.449A3.984,3.984,0,0,0,475.271,118.759Zm1.82-3.89a4.219,4.219,0,0,0,7.747,2.257l-1.089-.752a2.833,2.833,0,0,1-5.266-1.232h6.563a3.922,3.922,0,0,0,.016-0.417,3.729,3.729,0,0,0-3.81-4.017A4.055,4.055,0,0,0,477.091,114.869Zm4.113-2.945a2.4,2.4,0,0,1,2.449,2.1h-5.074A2.617,2.617,0,0,1,481.2,111.924Zm6.607,6.947h1.376V114.9c0-1.872,1.1-2.753,2.113-2.753a2.011,2.011,0,0,1,.752.128v-1.424a2.851,2.851,0,0,0-.624-0.064,2.381,2.381,0,0,0-2.241,1.632v-1.552h-1.376v8Zm15.025-.112v-1.232a3.041,3.041,0,0,1-.976.16,1.153,1.153,0,0,1-1.329-1.361v-4.194h2.305v-1.264h-2.305v-2.225h-1.376v2.225h-1.7v1.264h1.7v4.37a2.252,2.252,0,0,0,2.449,2.449A3.828,3.828,0,0,0,502.836,118.759Zm2.559,0.112h1.376V114.9c0-1.872,1.024-2.929,2.321-2.929a1.922,1.922,0,0,1,1.889,2.177v4.722h1.36v-4.93a2.949,2.949,0,0,0-3.025-3.233,2.831,2.831,0,0,0-2.545,1.392v-5.234H505.4v12Zm9.6-4a4.219,4.219,0,0,0,7.747,2.257l-1.088-.752a2.833,2.833,0,0,1-5.266-1.232h6.562a3.922,3.922,0,0,0,.016-0.417,3.728,3.728,0,0,0-3.809-4.017A4.056,4.056,0,0,0,514.994,114.869Zm4.114-2.945a2.4,2.4,0,0,1,2.449,2.1h-5.074A2.616,2.616,0,0,1,519.108,111.924Zm20.274,2.529v-6.946h-1.489v6.978a2.968,2.968,0,1,1-5.922,0v-6.978h-1.489v6.946A4.453,4.453,0,1,0,539.382,114.453Zm4.941,3.346a1.185,1.185,0,1,0-1.184,1.2A1.206,1.206,0,0,0,544.323,117.8Zm2.207-.785a4.388,4.388,0,0,0,3.986,2.049c2.112,0,3.617-1.216,3.617-3.153,0-1.681-.96-2.641-2.641-3.281l-1.377-.529c-1.152-.432-1.712-0.864-1.712-1.824a1.809,1.809,0,0,1,2.048-1.569,2.812,2.812,0,0,1,2.257,1.12l1.089-.96a4.146,4.146,0,0,0-3.313-1.553c-2.033,0-3.554,1.169-3.554,3.026,0,1.552.8,2.481,2.577,3.137l1.5,0.576a2.066,2.066,0,0,1,1.632,1.921,1.845,1.845,0,0,1-2.1,1.7,3.178,3.178,0,0,1-2.818-1.553Zm12.289,0.785a1.185,1.185,0,1,0-1.185,1.2A1.206,1.206,0,0,0,558.819,117.8Zm5.9,1.072h1.536l1.457-3.313h5.3l1.456,3.313h1.553l-5.042-11.364h-1.232Zm3.569-4.658,2.065-4.69,2.065,4.69h-4.13Zm9.919,4.658h1.376V114.9c0-1.872,1.105-2.753,2.113-2.753a2.011,2.011,0,0,1,.752.128v-1.424a2.851,2.851,0,0,0-.624-0.064,2.381,2.381,0,0,0-2.241,1.632v-1.552H578.21v8Zm6.656,0h1.376V114.9c0-1.808.913-2.929,2.209-2.929,1.041,0,1.569.9,1.569,2.193v4.706H591.4V114.9c0-1.808.9-2.929,2.193-2.929,1.041,0,1.585.9,1.585,2.193v4.706h1.376v-4.914c0-1.953-1.056-3.249-2.8-3.249a2.77,2.77,0,0,0-2.625,1.712,2.515,2.515,0,0,0-2.465-1.712,2.691,2.691,0,0,0-2.417,1.392v-1.232h-1.376v8Zm16.929,3.345,5.25-11.348h-1.537l-2.737,6.066-2.753-6.066H598.5L602,118.455l-1.745,3.761h1.537Zm11.663-6.434c0,1.985,1.184,3.249,2.945,3.249a2.754,2.754,0,0,0,2.465-1.392v1.232h1.376v-8h-1.376v3.969c0,1.841-.977,2.93-2.225,2.93-1.105,0-1.809-.849-1.809-2.193v-4.706h-1.376v4.914Zm10.176,3.089h1.376V114.9c0-1.872,1.025-2.929,2.321-2.929a1.922,1.922,0,0,1,1.889,2.177v4.722h1.36v-4.93a2.949,2.949,0,0,0-3.025-3.233,2.831,2.831,0,0,0-2.545,1.392v-1.232h-1.376v8Zm11.888-11.124a0.966,0.966,0,0,0-.96-0.977,0.994,0.994,0,0,0-.993.977,0.984,0.984,0,0,0,.993.976A0.956,0.956,0,0,0,635.522,107.747Zm-1.665,11.124h1.377v-8h-1.377v8Zm5.457,0h1.376v-6.739h2.321v-1.264H640.69V109.4a1.152,1.152,0,0,1,1.329-1.36,3.222,3.222,0,0,1,.992.16v-1.217a3.636,3.636,0,0,0-1.248-.208,2.286,2.286,0,0,0-2.449,2.481v1.617h-1.7v1.264h1.7v6.739Zm13.523-4a4.186,4.186,0,1,0-4.178,4.162A4.107,4.107,0,0,0,652.837,114.869Zm-6.963,0a2.779,2.779,0,1,1,2.785,2.882A2.751,2.751,0,0,1,645.874,114.869Zm9.727,4h1.377V114.9c0-1.872,1.1-2.753,2.113-2.753a2.011,2.011,0,0,1,.752.128v-1.424a2.851,2.851,0,0,0-.624-0.064,2.38,2.38,0,0,0-2.241,1.632v-1.552H655.6v8Zm6.656,0h1.377V114.9c0-1.808.912-2.929,2.209-2.929,1.04,0,1.568.9,1.568,2.193v4.706h1.377V114.9c0-1.808.9-2.929,2.193-2.929,1.04,0,1.584.9,1.584,2.193v4.706h1.377v-4.914c0-1.953-1.057-3.249-2.8-3.249a2.769,2.769,0,0,0-2.625,1.712,2.516,2.516,0,0,0-2.465-1.712,2.689,2.689,0,0,0-2.417,1.392v-1.232h-1.377v8Zm16.865-1.072a1.185,1.185,0,1,0-1.185,1.2A1.206,1.206,0,0,0,679.122,117.8ZM33.146,138.871H34.6v-9.956H38.14v-1.408H29.609v1.408h3.537v9.956Zm13.7-4a4.186,4.186,0,1,0-4.178,4.162A4.107,4.107,0,0,0,46.844,134.869Zm-6.963,0a2.779,2.779,0,1,1,2.785,2.882A2.751,2.751,0,0,1,39.881,134.869Zm9.1,0a4.005,4.005,0,0,0,3.922,4.162,3.51,3.51,0,0,0,2.817-1.392v1.232H57.1V126.866H55.723V132.1a3.51,3.51,0,0,0-2.817-1.392A4,4,0,0,0,48.985,134.869Zm6.851,0a2.734,2.734,0,1,1-2.721-2.9A2.733,2.733,0,0,1,55.835,134.869Zm4.029,0a4.005,4.005,0,0,0,3.922,4.162,3.51,3.51,0,0,0,2.817-1.392v1.232H67.98v-8H66.6V132.1a3.51,3.51,0,0,0-2.817-1.392A4,4,0,0,0,59.864,134.869Zm6.851,0a2.734,2.734,0,1,1-2.721-2.9A2.733,2.733,0,0,1,66.715,134.869Zm6.782,7.347,5.25-11.348H77.211l-2.737,6.066-2.753-6.066H70.2l3.505,7.587-1.745,3.761H73.5Zm8.352-3.7a1.367,1.367,0,0,0,.224-0.72,1.185,1.185,0,1,0-2.369,0,1.191,1.191,0,0,0,.656,1.072l-1.072,2.289H80.2Zm15.618-3.65a4.186,4.186,0,1,0-4.178,4.162A4.107,4.107,0,0,0,97.467,134.869Zm-6.963,0a2.779,2.779,0,1,1,2.785,2.882A2.751,2.751,0,0,1,90.5,134.869Zm9.616,0.913c0,1.985,1.184,3.249,2.945,3.249a2.753,2.753,0,0,0,2.465-1.392v1.232h1.377v-8H105.53v3.969c0,1.841-.976,2.93-2.225,2.93-1.1,0-1.808-.849-1.808-2.193v-4.706H100.12v4.914Zm10.176,3.089h1.376V134.9c0-1.872,1.105-2.753,2.113-2.753a2.016,2.016,0,0,1,.753.128v-1.424a2.86,2.86,0,0,0-.625-0.064,2.382,2.382,0,0,0-2.241,1.632v-1.552H110.3v8Zm10.96,0h1.376V134.9c0-1.872,1.025-2.929,2.321-2.929a1.921,1.921,0,0,1,1.889,2.177v4.722H128.2v-4.93a2.95,2.95,0,0,0-3.026-3.233,2.832,2.832,0,0,0-2.545,1.392v-1.232h-1.376v8Zm9.6-4a4.22,4.22,0,0,0,7.748,2.257l-1.089-.752a2.833,2.833,0,0,1-5.266-1.232h6.563a3.922,3.922,0,0,0,.016-0.417,3.729,3.729,0,0,0-3.81-4.017A4.056,4.056,0,0,0,130.855,134.869Zm4.114-2.945a2.4,2.4,0,0,1,2.449,2.1h-5.074A2.617,2.617,0,0,1,134.969,131.924Zm13.377,6.947h1.217l2.721-8h-1.457l-1.936,5.842-2-5.842h-1.057l-2,5.842-1.937-5.842h-1.441l2.721,8h1.217l1.985-5.762Zm10.845,0h1.489V133.7h1.1l4.369,5.17h1.873l-4.37-5.186a2.965,2.965,0,0,0,2.8-3.041,3.065,3.065,0,0,0-3.393-3.137h-3.874v11.364Zm1.489-6.5v-3.489h2.209c1.3,0,2.081.608,2.081,1.761,0,1.136-.785,1.728-2.081,1.728H160.68Zm8.431,2.5a4.005,4.005,0,0,0,3.922,4.162,3.51,3.51,0,0,0,2.817-1.392v1.232h1.377v-8H175.85V132.1a3.51,3.51,0,0,0-2.817-1.392A4.005,4.005,0,0,0,169.111,134.869Zm6.851,0a2.734,2.734,0,1,1-2.721-2.9A2.733,2.733,0,0,1,175.962,134.869Zm4.653,7.347h1.377v-4.577a3.51,3.51,0,0,0,2.817,1.392,4.169,4.169,0,0,0,0-8.323,3.51,3.51,0,0,0-2.817,1.392v-1.232h-1.377v11.348Zm6.707-7.347a2.726,2.726,0,1,1-2.721-2.9A2.733,2.733,0,0,1,187.322,134.869Zm5.854-7.122a0.966,0.966,0,0,0-.96-0.977,0.994,0.994,0,0,0-.993.977,0.984,0.984,0,0,0,.993.976A0.956,0.956,0,0,0,193.176,127.747Zm-1.665,11.124h1.377v-8h-1.377v8Zm4.16-4a4.005,4.005,0,0,0,3.922,4.162,3.512,3.512,0,0,0,2.817-1.392v1.232h1.376V126.866H202.41V132.1a3.512,3.512,0,0,0-2.817-1.392A4.005,4.005,0,0,0,195.671,134.869Zm6.851,0a2.734,2.734,0,1,1-2.721-2.9A2.733,2.733,0,0,1,202.522,134.869Zm15.151,0.673,4.1-5.506v8.835h1.472V127.507H221.9l-4.226,5.666-4.226-5.666h-1.36v11.364h1.489v-8.835Zm16.769-.673a4.186,4.186,0,1,0-4.178,4.162A4.107,4.107,0,0,0,234.442,134.869Zm-6.963,0a2.779,2.779,0,1,1,2.785,2.882A2.751,2.751,0,0,1,227.479,134.869Zm12.049,4h1.152l3.7-8h-1.537l-2.737,6.05-2.737-6.05H235.83Zm6.239-4a4.219,4.219,0,0,0,7.747,2.257l-1.089-.752a2.833,2.833,0,0,1-5.266-1.232h6.563a3.922,3.922,0,0,0,.016-0.417,3.729,3.729,0,0,0-3.81-4.017A4.055,4.055,0,0,0,245.767,134.869Zm4.113-2.945a2.4,2.4,0,0,1,2.449,2.1h-5.074A2.617,2.617,0,0,1,249.88,131.924Zm6.607,6.947h1.376V134.9c0-1.808.913-2.929,2.209-2.929,1.041,0,1.569.9,1.569,2.193v4.706h1.376V134.9c0-1.808.9-2.929,2.193-2.929,1.041,0,1.585.9,1.585,2.193v4.706h1.377v-4.914c0-1.953-1.057-3.249-2.8-3.249a2.77,2.77,0,0,0-2.625,1.712,2.515,2.515,0,0,0-2.465-1.712,2.692,2.692,0,0,0-2.417,1.392v-1.232h-1.376v8Zm14.335-4a4.22,4.22,0,0,0,7.748,2.257l-1.089-.752a2.833,2.833,0,0,1-5.266-1.232h6.563a3.922,3.922,0,0,0,.016-0.417,3.729,3.729,0,0,0-3.81-4.017A4.056,4.056,0,0,0,270.822,134.869Zm4.114-2.945a2.4,2.4,0,0,1,2.449,2.1h-5.074A2.617,2.617,0,0,1,274.936,131.924Zm6.607,6.947h1.376V134.9c0-1.872,1.025-2.929,2.321-2.929a1.921,1.921,0,0,1,1.889,2.177v4.722h1.36v-4.93a2.949,2.949,0,0,0-3.025-3.233,2.831,2.831,0,0,0-2.545,1.392v-1.232h-1.376v8Zm14.465-.112v-1.232a3.041,3.041,0,0,1-.976.16,1.153,1.153,0,0,1-1.329-1.361v-4.194h2.305v-1.264H293.7v-2.225h-1.376v2.225h-1.7v1.264h1.7v4.37a2.252,2.252,0,0,0,2.449,2.449A3.828,3.828,0,0,0,296.008,138.759Zm6.686-5.57a5.906,5.906,0,0,0,10.9,3.121l-1.248-.752a4.466,4.466,0,1,1,0-4.738l1.248-.752A5.906,5.906,0,0,0,302.694,133.189Zm12.832,1.68a4.005,4.005,0,0,0,3.921,4.162,3.512,3.512,0,0,0,2.818-1.392v1.232h1.376v-8h-1.376V132.1a3.512,3.512,0,0,0-2.818-1.392A4,4,0,0,0,315.526,134.869Zm6.851,0a2.734,2.734,0,1,1-2.722-2.9A2.734,2.734,0,0,1,322.377,134.869Zm4.653,4h1.376V134.9c0-1.872,1.105-2.753,2.113-2.753a2.016,2.016,0,0,1,.753.128v-1.424a2.86,2.86,0,0,0-.625-0.064,2.382,2.382,0,0,0-2.241,1.632v-1.552H327.03v8Zm13.875-.464v-7.539h-1.377V132.1a3.4,3.4,0,0,0-2.785-1.392,4.077,4.077,0,0,0,0,8.147,3.417,3.417,0,0,0,2.785-1.408v0.912a2.558,2.558,0,0,1-2.673,2.769,3.422,3.422,0,0,1-2.8-1.345l-0.96.961a4.752,4.752,0,0,0,3.777,1.633A3.705,3.705,0,0,0,340.905,138.407Zm-6.675-3.634a2.707,2.707,0,1,1,2.7,2.8A2.667,2.667,0,0,1,334.23,134.773Zm17.795,0.1a4.186,4.186,0,1,0-4.178,4.162A4.107,4.107,0,0,0,352.025,134.869Zm-6.963,0a2.779,2.779,0,1,1,2.785,2.882A2.751,2.751,0,0,1,345.062,134.869Zm16.1-7.122a0.966,0.966,0,0,0-.96-0.977,0.994,0.994,0,0,0-.993.977,0.984,0.984,0,0,0,.993.976A0.956,0.956,0,0,0,361.158,127.747Zm-1.665,11.124h1.377v-8h-1.377v8Zm9.97-2.225c0-1.2-.752-1.969-2.113-2.417l-0.864-.288c-0.944-.3-1.232-0.608-1.232-1.12a1.132,1.132,0,0,1,1.344-.929,2.161,2.161,0,0,1,1.7.833l0.9-.865a3.1,3.1,0,0,0-2.561-1.152c-1.585,0-2.7.88-2.7,2.177a2.416,2.416,0,0,0,1.985,2.321l0.784,0.256c1.041,0.336,1.425.72,1.425,1.28a1.219,1.219,0,0,1-1.409,1.089,2.149,2.149,0,0,1-2.049-1.265l-1.12.608a3.178,3.178,0,0,0,3.137,1.857C368.3,139.031,369.463,138.215,369.463,136.646Zm6.846-1.777a4,4,0,0,0,3.921,4.162,3.509,3.509,0,0,0,2.817-1.392v1.232h1.377v-8h-1.377V132.1a3.509,3.509,0,0,0-2.817-1.392A4,4,0,0,0,376.309,134.869Zm6.85,0a2.734,2.734,0,1,1-2.721-2.9A2.733,2.733,0,0,1,383.159,134.869Zm4.654,4h1.376V134.9c0-1.872,1.1-2.753,2.113-2.753a2.011,2.011,0,0,1,.752.128v-1.424a2.851,2.851,0,0,0-.624-0.064,2.381,2.381,0,0,0-2.241,1.632v-1.552h-1.376v8Zm6.656,0h1.376V134.9c0-1.808.913-2.929,2.209-2.929,1.041,0,1.569.9,1.569,2.193v4.706H401V134.9c0-1.808.9-2.929,2.193-2.929,1.041,0,1.585.9,1.585,2.193v4.706h1.376v-4.914c0-1.953-1.056-3.249-2.8-3.249a2.77,2.77,0,0,0-2.625,1.712,2.515,2.515,0,0,0-2.465-1.712,2.691,2.691,0,0,0-2.417,1.392v-1.232h-1.376v8Zm14.335-4a4.219,4.219,0,0,0,7.747,2.257l-1.088-.752a2.833,2.833,0,0,1-5.266-1.232h6.563a3.922,3.922,0,0,0,.016-0.417,3.729,3.729,0,0,0-3.81-4.017A4.056,4.056,0,0,0,408.8,134.869Zm4.114-2.945a2.4,2.4,0,0,1,2.449,2.1h-5.074A2.616,2.616,0,0,1,412.918,131.924Zm5.982,2.945a4.005,4.005,0,0,0,3.922,4.162,3.51,3.51,0,0,0,2.817-1.392v1.232h1.377V126.866h-1.377V132.1a3.51,3.51,0,0,0-2.817-1.392A4.005,4.005,0,0,0,418.9,134.869Zm6.851,0a2.734,2.734,0,1,1-2.721-2.9A2.733,2.733,0,0,1,425.751,134.869Zm15.856,4h1.217l2.721-8h-1.457l-1.937,5.842-2-5.842h-1.056l-2,5.842-1.937-5.842h-1.44l2.721,8h1.216l1.985-5.762Zm7.886-11.124a0.967,0.967,0,0,0-.961-0.977,0.994,0.994,0,0,0-.992.977,0.983,0.983,0,0,0,.992.976A0.957,0.957,0,0,0,449.493,127.747Zm-1.665,11.124h1.377v-8h-1.377v8Zm9.122-.112v-1.232a3.048,3.048,0,0,1-.977.16,1.153,1.153,0,0,1-1.328-1.361v-4.194h2.305v-1.264h-2.305v-2.225h-1.377v2.225h-1.7v1.264h1.7v4.37a2.253,2.253,0,0,0,2.449,2.449A3.835,3.835,0,0,0,456.95,138.759Zm2.558,0.112h1.376V134.9c0-1.872,1.025-2.929,2.321-2.929a1.921,1.921,0,0,1,1.889,2.177v4.722h1.361v-4.93a2.95,2.95,0,0,0-3.026-3.233,2.832,2.832,0,0,0-2.545,1.392v-5.234h-1.376v12.005Zm14.3-4a4.005,4.005,0,0,0,3.922,4.162,3.51,3.51,0,0,0,2.817-1.392v1.232h1.377v-8H480.55V132.1a3.51,3.51,0,0,0-2.817-1.392A4.005,4.005,0,0,0,473.811,134.869Zm6.851,0a2.734,2.734,0,1,1-2.721-2.9A2.733,2.733,0,0,1,480.662,134.869Zm4.029,0a4.005,4.005,0,0,0,3.922,4.162,3.51,3.51,0,0,0,2.817-1.392v1.232h1.376V126.866H491.43V132.1a3.51,3.51,0,0,0-2.817-1.392A4.005,4.005,0,0,0,484.691,134.869Zm6.851,0a2.734,2.734,0,1,1-2.721-2.9A2.733,2.733,0,0,1,491.542,134.869Zm7.15,4h1.153l3.7-8h-1.536l-2.738,6.05-2.737-6.05H495Zm6.255-4a4.005,4.005,0,0,0,3.921,4.162,3.512,3.512,0,0,0,2.818-1.392v1.232h1.376v-8h-1.376V132.1a3.512,3.512,0,0,0-2.818-1.392A4,4,0,0,0,504.947,134.869Zm6.851,0a2.734,2.734,0,1,1-2.722-2.9A2.734,2.734,0,0,1,511.8,134.869Zm4.653,4h1.376V134.9c0-1.872,1.025-2.929,2.321-2.929a1.921,1.921,0,0,1,1.889,2.177v4.722H523.4v-4.93a2.949,2.949,0,0,0-3.025-3.233,2.832,2.832,0,0,0-2.546,1.392v-1.232h-1.376v8Zm17.491-1.985-1.2-.672a2.713,2.713,0,0,1-2.5,1.537,2.883,2.883,0,0,1,0-5.763,2.713,2.713,0,0,1,2.5,1.537l1.2-.672a4.145,4.145,0,0,0-3.7-2.145,4.162,4.162,0,1,0,0,8.323A4.145,4.145,0,0,0,533.942,136.886Zm1.948-2.017a4.219,4.219,0,0,0,7.747,2.257l-1.088-.752a2.833,2.833,0,0,1-5.266-1.232h6.563a3.922,3.922,0,0,0,.016-0.417,3.729,3.729,0,0,0-3.81-4.017A4.056,4.056,0,0,0,535.89,134.869ZM540,131.924a2.4,2.4,0,0,1,2.449,2.1h-5.074A2.616,2.616,0,0,1,540,131.924Zm5.982,2.945a4.005,4.005,0,0,0,3.922,4.162,3.51,3.51,0,0,0,2.817-1.392v1.232H554.1V126.866h-1.376V132.1a3.51,3.51,0,0,0-2.817-1.392A4.005,4.005,0,0,0,545.986,134.869Zm6.851,0a2.734,2.734,0,1,1-2.721-2.9A2.733,2.733,0,0,1,552.837,134.869Zm14.543,1.777c0-1.2-.752-1.969-2.113-2.417l-0.864-.288c-0.944-.3-1.233-0.608-1.233-1.12a1.133,1.133,0,0,1,1.345-.929,2.161,2.161,0,0,1,1.7.833l0.9-.865a3.1,3.1,0,0,0-2.561-1.152c-1.585,0-2.705.88-2.705,2.177a2.416,2.416,0,0,0,1.985,2.321l0.784,0.256c1.04,0.336,1.425.72,1.425,1.28a1.219,1.219,0,0,1-1.409,1.089,2.149,2.149,0,0,1-2.049-1.265l-1.12.608a3.177,3.177,0,0,0,3.137,1.857C566.212,139.031,567.38,138.215,567.38,136.646Zm7.008,2.113v-1.232a3.043,3.043,0,0,1-.977.16,1.153,1.153,0,0,1-1.328-1.361v-4.194h2.305v-1.264h-2.305v-2.225h-1.377v2.225h-1.7v1.264h1.7v4.37a2.253,2.253,0,0,0,2.449,2.449A3.835,3.835,0,0,0,574.388,138.759Zm2.558,0.112h1.377V134.9c0-1.872,1.1-2.753,2.112-2.753a2.016,2.016,0,0,1,.753.128v-1.424a2.854,2.854,0,0,0-.625-0.064,2.38,2.38,0,0,0-2.24,1.632v-1.552h-1.377v8Zm5.744-4a4.219,4.219,0,0,0,7.747,2.257l-1.089-.752a2.833,2.833,0,0,1-5.266-1.232h6.563a3.922,3.922,0,0,0,.016-0.417,3.729,3.729,0,0,0-3.809-4.017A4.056,4.056,0,0,0,582.69,134.869Zm4.113-2.945a2.4,2.4,0,0,1,2.449,2.1h-5.074A2.618,2.618,0,0,1,586.8,131.924Zm10.833,6.835v-1.232a3.041,3.041,0,0,1-.976.16,1.153,1.153,0,0,1-1.329-1.361v-4.194h2.3v-1.264h-2.3v-2.225h-1.377v2.225h-1.7v1.264h1.7v4.37a2.253,2.253,0,0,0,2.449,2.449A3.83,3.83,0,0,0,597.636,138.759Zm9.713-1.873-1.2-.672a2.714,2.714,0,0,1-2.5,1.537,2.883,2.883,0,0,1,0-5.763,2.714,2.714,0,0,1,2.5,1.537l1.2-.672a4.143,4.143,0,0,0-3.7-2.145,4.162,4.162,0,1,0,0,8.323A4.143,4.143,0,0,0,607.349,136.886Zm2.573,1.985H611.3V134.9c0-1.872,1.024-2.929,2.321-2.929a1.921,1.921,0,0,1,1.888,2.177v4.722h1.361v-4.93a2.949,2.949,0,0,0-3.025-3.233A2.829,2.829,0,0,0,611.3,132.1v-5.234h-1.377v12.005Zm20.114-2.225c0-1.2-.752-1.969-2.113-2.417l-0.864-.288c-0.945-.3-1.233-0.608-1.233-1.12a1.133,1.133,0,0,1,1.345-.929,2.159,2.159,0,0,1,1.7.833l0.9-.865a3.106,3.106,0,0,0-2.561-1.152c-1.585,0-2.7.88-2.7,2.177a2.416,2.416,0,0,0,1.984,2.321l0.785,0.256c1.04,0.336,1.424.72,1.424,1.28a1.218,1.218,0,0,1-1.408,1.089,2.148,2.148,0,0,1-2.049-1.265l-1.121.608a3.18,3.18,0,0,0,3.138,1.857C628.867,139.031,630.036,138.215,630.036,136.646Zm10.5-1.777a4.186,4.186,0,1,0-4.178,4.162A4.107,4.107,0,0,0,640.533,134.869Zm-6.963,0a2.779,2.779,0,1,1,2.785,2.882A2.751,2.751,0,0,1,633.57,134.869Zm16.192,7.347,5.25-11.348h-1.536l-2.738,6.066-2.753-6.066h-1.52l3.5,7.587-1.745,3.761h1.537Zm14.979-7.347a4.186,4.186,0,1,0-4.178,4.162A4.107,4.107,0,0,0,664.741,134.869Zm-6.963,0a2.779,2.779,0,1,1,2.785,2.882A2.751,2.751,0,0,1,657.778,134.869Zm9.615,0.913c0,1.985,1.185,3.249,2.945,3.249a2.753,2.753,0,0,0,2.465-1.392v1.232h1.377v-8H672.8v3.969c0,1.841-.976,2.93-2.225,2.93-1.1,0-1.808-.849-1.808-2.193v-4.706h-1.377v4.914ZM37.9,156.886l-1.2-.672a2.714,2.714,0,0,1-2.5,1.537,2.883,2.883,0,0,1,0-5.763,2.714,2.714,0,0,1,2.5,1.537l1.2-.672a4.144,4.144,0,0,0-3.7-2.145,4.162,4.162,0,1,0,0,8.323A4.144,4.144,0,0,0,37.9,156.886Zm1.949-2.017a4.005,4.005,0,0,0,3.922,4.162,3.51,3.51,0,0,0,2.817-1.392v1.232h1.377v-8H46.587V152.1a3.51,3.51,0,0,0-2.817-1.392A4,4,0,0,0,39.849,154.869Zm6.851,0a2.734,2.734,0,1,1-2.721-2.9A2.733,2.733,0,0,1,46.7,154.869Zm4.653,4h1.377V154.9c0-1.872,1.024-2.929,2.321-2.929a1.921,1.921,0,0,1,1.889,2.177v4.722H58.3v-4.93a2.949,2.949,0,0,0-3.025-3.233,2.83,2.83,0,0,0-2.545,1.392v-1.232H51.353v8Zm14.928,0h1.377V154.9c0-1.808.912-2.929,2.209-2.929,1.04,0,1.569.9,1.569,2.193v4.706h1.377V154.9c0-1.808.9-2.929,2.193-2.929,1.04,0,1.585.9,1.585,2.193v4.706h1.377v-4.914c0-1.953-1.056-3.249-2.8-3.249a2.77,2.77,0,0,0-2.625,1.712,2.516,2.516,0,0,0-2.465-1.712,2.69,2.69,0,0,0-2.417,1.392v-1.232H66.28v8Zm14.336-4a4,4,0,0,0,3.921,4.162,3.51,3.51,0,0,0,2.817-1.392v1.232h1.377v-8H87.355V152.1a3.51,3.51,0,0,0-2.817-1.392A4,4,0,0,0,80.616,154.869Zm6.851,0a2.734,2.734,0,1,1-2.721-2.9A2.733,2.733,0,0,1,87.467,154.869Zm4.653,4H93.5V154.9c0-1.872,1.1-2.753,2.113-2.753a2.013,2.013,0,0,1,.752.128v-1.424a2.854,2.854,0,0,0-.624-0.064A2.381,2.381,0,0,0,93.5,152.42v-1.552H92.12v8Zm13.635-1.985-1.2-.672a2.715,2.715,0,0,1-2.5,1.537,2.883,2.883,0,0,1,0-5.763,2.715,2.715,0,0,1,2.5,1.537l1.2-.672a4.143,4.143,0,0,0-3.7-2.145,4.162,4.162,0,1,0,0,8.323A4.143,4.143,0,0,0,105.755,156.886Zm2.573,1.985h1.377V154.9c0-1.872,1.024-2.929,2.32-2.929a1.921,1.921,0,0,1,1.889,2.177v4.722h1.361v-4.93a2.949,2.949,0,0,0-3.025-3.233,2.829,2.829,0,0,0-2.545,1.392v-5.234h-1.377v12Zm18.993-.112v-1.232a3.041,3.041,0,0,1-.976.16,1.153,1.153,0,0,1-1.329-1.361v-4.194h2.3v-1.264h-2.3v-2.225H123.64v2.225h-1.7v1.264h1.7v4.37a2.252,2.252,0,0,0,2.449,2.449A3.828,3.828,0,0,0,127.321,158.759Zm10.178-3.89a4.186,4.186,0,1,0-4.178,4.162A4.107,4.107,0,0,0,137.5,154.869Zm-6.963,0a2.779,2.779,0,1,1,2.785,2.882A2.751,2.751,0,0,1,130.536,154.869Zm18.5,3.89v-1.232a3.041,3.041,0,0,1-.976.16,1.153,1.153,0,0,1-1.329-1.361v-4.194h2.3v-1.264h-2.3v-2.225h-1.376v2.225h-1.7v1.264h1.7v4.37a2.252,2.252,0,0,0,2.449,2.449A3.828,3.828,0,0,0,149.033,158.759Zm2.558,0.112h1.377V154.9c0-1.872,1.024-2.929,2.321-2.929a1.922,1.922,0,0,1,1.889,2.177v4.722h1.36v-4.93a2.949,2.949,0,0,0-3.025-3.233,2.831,2.831,0,0,0-2.545,1.392v-5.234h-1.377v12Zm9.6-4a4.219,4.219,0,0,0,7.747,2.257l-1.088-.752a2.834,2.834,0,0,1-5.267-1.232h6.563a3.922,3.922,0,0,0,.016-0.417,3.729,3.729,0,0,0-3.809-4.017A4.056,4.056,0,0,0,161.191,154.869Zm4.114-2.945a2.4,2.4,0,0,1,2.449,2.1H162.68A2.616,2.616,0,0,1,165.305,151.924Zm12.686,5.715a3.512,3.512,0,0,0,2.818,1.392,4.169,4.169,0,0,0,0-8.323,3.512,3.512,0,0,0-2.818,1.392v-5.234h-1.376v12h1.376v-1.232Zm5.331-2.77a2.727,2.727,0,1,1-2.722-2.9A2.734,2.734,0,0,1,183.322,154.869Zm3.548,0a4.22,4.22,0,0,0,7.748,2.257l-1.089-.752a2.833,2.833,0,0,1-5.266-1.232h6.563a3.922,3.922,0,0,0,.016-0.417,3.729,3.729,0,0,0-3.81-4.017A4.056,4.056,0,0,0,186.87,154.869Zm4.114-2.945a2.4,2.4,0,0,1,2.449,2.1h-5.074A2.617,2.617,0,0,1,190.984,151.924Zm5.982,2.945a4.005,4.005,0,0,0,3.922,4.162,3.51,3.51,0,0,0,2.817-1.392v1.232h1.377v-8h-1.377V152.1a3.51,3.51,0,0,0-2.817-1.392A4.005,4.005,0,0,0,196.966,154.869Zm6.851,0a2.734,2.734,0,1,1-2.721-2.9A2.733,2.733,0,0,1,203.817,154.869Zm8.991,3.89v-1.232a3.041,3.041,0,0,1-.976.16,1.153,1.153,0,0,1-1.329-1.361v-4.194h2.305v-1.264H210.5v-2.225h-1.376v2.225h-1.7v1.264h1.7v4.37a2.252,2.252,0,0,0,2.449,2.449A3.828,3.828,0,0,0,212.808,158.759Zm14.993-3.89a4.186,4.186,0,1,0-4.177,4.162A4.107,4.107,0,0,0,227.8,154.869Zm-6.962,0a2.779,2.779,0,1,1,2.785,2.882A2.751,2.751,0,0,1,220.839,154.869Zm10.271,4h1.377v-6.739h2.321v-1.264h-2.321V149.4a1.152,1.152,0,0,1,1.328-1.36,3.223,3.223,0,0,1,.993.16v-1.217a3.638,3.638,0,0,0-1.249-.208,2.286,2.286,0,0,0-2.449,2.481v1.617h-1.7v1.264h1.7v6.739Zm12.049,3.345,5.25-11.348h-1.537l-2.737,6.066-2.753-6.066h-1.52l3.5,7.587-1.745,3.761h1.537Zm14.978-7.347a4.186,4.186,0,1,0-4.177,4.162A4.107,4.107,0,0,0,258.137,154.869Zm-6.963,0a2.779,2.779,0,1,1,2.786,2.882A2.752,2.752,0,0,1,251.174,154.869Zm9.616,0.913c0,1.985,1.184,3.249,2.945,3.249a2.753,2.753,0,0,0,2.465-1.392v1.232h1.377v-8H266.2v3.969c0,1.841-.976,2.93-2.225,2.93-1.1,0-1.809-.849-1.809-2.193v-4.706H260.79v4.914Zm10.176,3.089h1.376V154.9c0-1.872,1.105-2.753,2.113-2.753a2.02,2.02,0,0,1,.753.128v-1.424a2.86,2.86,0,0,0-.625-0.064,2.382,2.382,0,0,0-2.241,1.632v-1.552h-1.376v8Zm18.691-4a4.186,4.186,0,1,0-4.178,4.162A4.107,4.107,0,0,0,289.657,154.869Zm-6.963,0a2.779,2.779,0,1,1,2.785,2.882A2.751,2.751,0,0,1,282.694,154.869Zm16.482,4h1.217l2.721-8h-1.457l-1.936,5.842-2-5.842h-1.057l-2,5.842-1.936-5.842h-1.441l2.721,8h1.217l1.985-5.762Zm6.221,0h1.377V154.9c0-1.872,1.024-2.929,2.321-2.929a1.922,1.922,0,0,1,1.889,2.177v4.722h1.36v-4.93a2.949,2.949,0,0,0-3.025-3.233,2.831,2.831,0,0,0-2.545,1.392v-1.232H305.4v8Zm14.3-4a4,4,0,0,0,3.921,4.162,3.509,3.509,0,0,0,2.817-1.392v1.232h1.377v-12h-1.377V152.1a3.509,3.509,0,0,0-2.817-1.392A4,4,0,0,0,319.7,154.869Zm6.85,0a2.734,2.734,0,1,1-2.721-2.9A2.733,2.733,0,0,1,326.551,154.869Zm4.654,4h1.376V154.9c0-1.872,1.1-2.753,2.113-2.753a2.02,2.02,0,0,1,.753.128v-1.424a2.866,2.866,0,0,0-.625-0.064,2.382,2.382,0,0,0-2.241,1.632v-1.552h-1.376v8Zm6.544-3.089c0,1.985,1.184,3.249,2.945,3.249a2.754,2.754,0,0,0,2.465-1.392v1.232h1.376v-8h-1.376v3.969c0,1.841-.976,2.93-2.225,2.93-1.1,0-1.809-.849-1.809-2.193v-4.706h-1.376v4.914Zm10.176,3.089H349.3V154.9c0-1.808.913-2.929,2.209-2.929,1.041,0,1.569.9,1.569,2.193v4.706h1.376V154.9c0-1.808.9-2.929,2.193-2.929,1.041,0,1.585.9,1.585,2.193v4.706h1.376v-4.914c0-1.953-1.056-3.249-2.8-3.249a2.77,2.77,0,0,0-2.625,1.712,2.515,2.515,0,0,0-2.465-1.712A2.691,2.691,0,0,0,349.3,152.1v-1.232h-1.376v8Zm16.864-1.072a1.185,1.185,0,1,0-1.184,1.2A1.206,1.206,0,0,0,364.789,157.8Z"/>
</svg>
