<svg id="copy_copy_2" data-name="copy copy 2" xmlns="http://www.w3.org/2000/svg" width="720" height="150" viewBox="0 0 720 150">
  <defs>
    <style>
      .cls-1 {
        fill: #fff;
      }

      .cls-2 {
        fill-rule: evenodd;
      }
    </style>
  </defs>
  <rect id="Rectangle_106_copy_12" data-name="Rectangle 106 copy 12" class="cls-1" width="720" height="150"/>
  <g id="CTA_underline">
    <rect x="30" y="97" width="90" height="3"/>
    <path id="SHOP_now" data-name="SHOP now" class="cls-2" d="M33.395,92.2a3.12,3.12,0,0,0,3.422-3.065,3.05,3.05,0,0,0-2.277-2.967l-0.674-.252c-1.011-.378-1.482-0.616-1.482-1.148a0.984,0.984,0,0,1,1.159-.756,2.1,2.1,0,0,1,1.657.826l1.4-1.54a3.921,3.921,0,0,0-3.085-1.372A3,3,0,0,0,30.215,85c0,1.358.862,2.324,2.412,2.869L33.3,88.1c0.957,0.336,1.334.686,1.334,1.19a0.977,0.977,0,0,1-1.159.826A2.48,2.48,0,0,1,31.5,88.985l-1.644,1.442A4.143,4.143,0,0,0,33.395,92.2Zm7.332-.168h2.142V88.1h3.853v3.933h2.142V82.1H46.723V85.99H42.869V82.1H40.727v9.938ZM57.72,92.2a5.141,5.141,0,1,0-4.945-5.137A5.056,5.056,0,0,0,57.72,92.2Zm0-2.156A2.989,2.989,0,1,1,60.5,87.068,2.9,2.9,0,0,1,57.72,90.049ZM73.191,85.5a3.32,3.32,0,0,0-3.368-3.4H66.575v9.938h2.142V88.887h1.1A3.308,3.308,0,0,0,73.191,85.5Zm-2.075,0a1.282,1.282,0,0,1-1.32,1.3H68.717V84.2H69.8A1.274,1.274,0,0,1,71.116,85.5Zm19.54,6.537V82.1H88.5v6.131L83.851,82.1H82.006v9.938h2.142V85.892l4.662,6.145h1.846ZM99.511,92.2a5.141,5.141,0,1,0-4.945-5.137A5.056,5.056,0,0,0,99.511,92.2Zm0-2.156a2.989,2.989,0,1,1,2.775-2.981A2.9,2.9,0,0,1,99.511,90.049Zm16.265,1.987h2.035l2.223-9.938h-2.29l-1.307,6.3-2.695-6.466L111.061,88.4l-1.307-6.3h-2.291l2.21,9.938h2.034l2.035-4.871Z"/>
  </g>
  <path id="Leather_Duffle_Bag_" data-name="Leather Duffle Bag " class="cls-2" d="M31.586,51.871H45.176v-4.56h-8.82V30.572h-4.77v21.3Zm18.06,0h13.5v-4.56h-8.73V43.5h6.93v-4.56h-6.93v-3.81h8.73v-4.56h-13.5v21.3Zm16.35,0h4.98l1.89-4.5h8.82l1.89,4.5h4.98l-9.12-21.3h-4.32Zm8.61-8.64,2.67-6.42,2.67,6.42h-5.34Zm19.38,8.64h4.8V35.132h5.489v-4.56H88.556v4.56h5.43V51.871Zm14.7,0h4.77v-8.43h8.579v8.43h4.77v-21.3h-4.77v8.34h-8.579v-8.34h-4.77v21.3Zm24.12,0h13.5v-4.56h-8.729V43.5h6.929v-4.56h-6.929v-3.81h8.729v-4.56h-13.5v21.3Zm18.63,0h4.77v-8.79h0.779l7.08,8.79h5.73l-7.53-9.39c2.7-.96,4.17-2.73,4.17-5.49a6.288,6.288,0,0,0-6.6-6.42h-8.4v21.3Zm4.77-12.84v-4.08h3.059c1.41,0,2.43.75,2.43,2.04a2.156,2.156,0,0,1-2.43,2.04h-3.059ZM180.3,51.871h7.26a10.652,10.652,0,1,0,0-21.3H180.3v21.3Zm4.77-4.38V34.952h2.49a6.011,6.011,0,0,1,6.03,6.27,6.011,6.011,0,0,1-6.03,6.27h-2.49Zm26.7,4.74a8.353,8.353,0,0,0,8.759-8.79V30.572h-4.769V43.5a3.992,3.992,0,1,1-7.98,0V30.572h-4.77V43.441A8.338,8.338,0,0,0,211.765,52.231Zm14.52-.36h4.77v-8.34h6.509v-4.56h-6.509v-3.84h8.339v-4.56H226.285v21.3Zm17.85,0h4.77v-8.34h6.509v-4.56h-6.509v-3.84h8.339v-4.56H244.135v21.3Zm17.85,0h13.589v-4.56h-8.82V30.572h-4.769v21.3Zm18.059,0h13.5v-4.56h-8.73V43.5h6.93v-4.56h-6.93v-3.81h8.73v-4.56h-13.5v21.3Zm26.73,0h9.359a6.3,6.3,0,0,0,6.48-6.27,5.566,5.566,0,0,0-3.03-5.04,5.013,5.013,0,0,0,1.53-3.66,6.331,6.331,0,0,0-6.33-6.33h-8.009v21.3Zm4.77-12.689v-4.26h2.7a2.165,2.165,0,0,1,2.22,2.16,2.135,2.135,0,0,1-2.22,2.1h-2.7Zm0,8.31v-4.26h4.169a2.167,2.167,0,0,1,2.25,2.13,2.141,2.141,0,0,1-2.22,2.13h-4.2Zm12.9,4.38h4.98l1.89-4.5h8.819l1.89,4.5H347l-9.119-21.3h-4.32Zm8.61-8.64,2.67-6.42,2.669,6.42h-5.339Zm27.12,9c3.449,0,6.839-1.02,8.729-3.15V38.972h-8.819v4.47h4.169v3.15a6.936,6.936,0,0,1-4.139,1.02c-4.17,0-6.72-2.76-6.72-6.39a6.252,6.252,0,0,1,6.42-6.39,7.071,7.071,0,0,1,5.369,2.28l3.36-3.27a11.333,11.333,0,0,0-8.729-3.63,10.88,10.88,0,0,0-11.22,11.01C348.594,47.461,353.544,52.231,360.174,52.231Z"/>
</svg>
