<svg id="copy_copy_2" data-name="copy copy 2" xmlns="http://www.w3.org/2000/svg" width="720" height="268" viewBox="0 0 720 268">
  <defs>
    <style>
      .cls-1 {
        fill: #fff;
      }

      .cls-2 {
        fill-rule: evenodd;
      }
    </style>
  </defs>
  <rect id="Rectangle_106_copy_5" data-name="Rectangle 106 copy 5" class="cls-1" width="720" height="268"/>
  <g id="CTA_underline">
    <rect x="30" y="234" width="90" height="3"/>
    <path id="SHOP_now" data-name="SHOP now" class="cls-2" d="M33.395,229.2a3.12,3.12,0,0,0,3.422-3.065,3.049,3.049,0,0,0-2.277-2.967l-0.674-.252c-1.011-.378-1.482-0.616-1.482-1.148a0.984,0.984,0,0,1,1.159-.756,2.1,2.1,0,0,1,1.657.826l1.4-1.54a3.923,3.923,0,0,0-3.085-1.371,3,3,0,0,0-3.3,3.065c0,1.358.862,2.323,2.412,2.869L33.3,225.1c0.957,0.336,1.334.686,1.334,1.19a0.977,0.977,0,0,1-1.159.826,2.48,2.48,0,0,1-1.981-1.134l-1.644,1.442A4.141,4.141,0,0,0,33.395,229.2Zm7.332-.168h2.142V225.1h3.853v3.933h2.142V219.1H46.723v3.891H42.869V219.1H40.727v9.937ZM57.72,229.2a5.14,5.14,0,1,0-4.945-5.136A5.055,5.055,0,0,0,57.72,229.2Zm0-2.155a2.989,2.989,0,1,1,2.776-2.981A2.9,2.9,0,0,1,57.72,227.049ZM73.191,222.5a3.319,3.319,0,0,0-3.368-3.4H66.575v9.937h2.142v-3.149h1.1A3.308,3.308,0,0,0,73.191,222.5Zm-2.075,0a1.282,1.282,0,0,1-1.32,1.3H68.717v-2.6H69.8A1.274,1.274,0,0,1,71.116,222.5Zm19.54,6.536V219.1H88.5v6.13l-4.648-6.13H82.006v9.937h2.142v-6.144l4.662,6.144h1.846Zm8.855,0.168a5.14,5.14,0,1,0-4.945-5.136A5.056,5.056,0,0,0,99.511,229.2Zm0-2.155a2.989,2.989,0,1,1,2.775-2.981A2.9,2.9,0,0,1,99.511,227.049Zm16.265,1.987h2.035l2.223-9.937h-2.29l-1.307,6.3-2.695-6.466-2.681,6.466-1.307-6.3h-2.291l2.21,9.937h2.034l2.035-4.87Z"/>
  </g>
  <path id="Slim_Herringbone_Italian_Wool_Flannel_Suit_Italian_wool_b._20" data-name="Slim Herringbone Italian Wool Flannel Suit  Italian wool, b. 20" class="cls-2" d="M37.946,51.231c4.5,0,7.59-2.7,7.62-6.57,0.03-3.21-1.98-5.25-5.07-6.36l-1.5-.54c-2.25-.81-3.3-1.32-3.3-2.46,0-1.11,1.29-1.62,2.58-1.62a4.738,4.738,0,0,1,3.69,1.77l3.12-3.3a8.887,8.887,0,0,0-6.87-2.94c-4.26,0-7.35,2.43-7.35,6.57,0,2.91,1.92,4.98,5.37,6.15l1.5,0.51c2.13,0.72,2.97,1.47,2.97,2.55,0,1.02-.99,1.77-2.58,1.77a5.573,5.573,0,0,1-4.41-2.43l-3.66,3.09A9.34,9.34,0,0,0,37.946,51.231Zm12.42-.36H63.956v-4.56h-8.82V29.572h-4.77v21.3Zm18.06,0H73.2v-21.3h-4.77v21.3ZM90.2,46.341l6.21-8.61V50.871h4.8v-21.3H96.865l-6.66,9.18-6.66-9.18H79.2v21.3h4.77V37.732Zm25.11,4.53h4.769v-8.43h8.58v8.43h4.77v-21.3h-4.77v8.34h-8.58v-8.34h-4.769v21.3Zm24.12,0h13.5v-4.56H144.2V42.5h6.93v-4.56H144.2v-3.81h8.73v-4.56h-13.5v21.3Zm18.63,0h4.769v-8.79h0.78l7.08,8.79h5.73l-7.53-9.39c2.7-.96,4.17-2.73,4.17-5.49a6.288,6.288,0,0,0-6.6-6.42h-8.4v21.3Zm4.769-12.84v-4.08h3.06c1.41,0,2.43.75,2.43,2.04a2.156,2.156,0,0,1-2.43,2.04h-3.06Zm16.59,12.84h4.77v-8.79h0.78l7.08,8.79h5.729l-7.529-9.39c2.7-.96,4.17-2.73,4.17-5.49a6.288,6.288,0,0,0-6.6-6.42h-8.4v21.3Zm4.77-12.84v-4.08h3.06c1.41,0,2.43.75,2.43,2.04a2.156,2.156,0,0,1-2.43,2.04h-3.06Zm16.59,12.84h4.77v-21.3h-4.77v21.3Zm30.029,0v-21.3h-4.8V42.711l-10.35-13.139h-4.11v21.3h4.77V37.7l10.38,13.17h4.11Zm16.41,0.36c3.45,0,6.84-1.02,8.729-3.15V37.972h-8.819v4.47h4.17v3.15a6.939,6.939,0,0,1-4.14,1.02c-4.17,0-6.72-2.76-6.72-6.39a6.252,6.252,0,0,1,6.42-6.39,7.073,7.073,0,0,1,5.37,2.28l3.359-3.27a11.329,11.329,0,0,0-8.729-3.63,10.88,10.88,0,0,0-11.22,11.01C235.643,46.461,240.593,51.231,247.223,51.231Zm13.98-.36h9.359a6.3,6.3,0,0,0,6.48-6.27,5.566,5.566,0,0,0-3.03-5.04,5.013,5.013,0,0,0,1.53-3.66,6.331,6.331,0,0,0-6.33-6.33H261.2v21.3Zm4.77-12.689v-4.26h2.7a2.165,2.165,0,0,1,2.22,2.16,2.135,2.135,0,0,1-2.22,2.1h-2.7Zm0,8.31v-4.26h4.169a2.167,2.167,0,0,1,2.25,2.13,2.141,2.141,0,0,1-2.22,2.13h-4.2Zm25.589,4.74a11.01,11.01,0,1,0-11.009-11.01A11.036,11.036,0,0,0,291.562,51.231Zm0-4.62a6.393,6.393,0,1,1,6.18-6.39A6.32,6.32,0,0,1,291.562,46.611Zm35.069,4.26v-21.3h-4.8V42.711l-10.35-13.139h-4.11v21.3h4.77V37.7l10.38,13.17h4.109Zm6,0h13.5v-4.56H337.4V42.5h6.929v-4.56H337.4v-3.81h8.729v-4.56h-13.5v21.3Zm26.73,0h4.769v-21.3h-4.769v21.3Zm14.609,0h4.8V34.132h5.49v-4.56h-15.72v4.56h5.43V50.871Zm10.26,0h4.98l1.89-4.5h8.82l1.89,4.5h4.979l-9.119-21.3h-4.32Zm8.61-8.64,2.67-6.42,2.67,6.42h-5.34Zm17.67,8.64H424.1v-4.56h-8.82V29.572h-4.77v21.3Zm18.06,0h4.77v-21.3h-4.77v21.3Zm8.49,0h4.979l1.89-4.5h8.82l1.89,4.5h4.98l-9.12-21.3h-4.32Zm8.609-8.64,2.67-6.42,2.67,6.42h-5.34Zm36.93,8.64v-21.3h-4.8V42.711L467.45,29.572h-4.109v21.3h4.769V37.7l10.38,13.17h4.11Zm30.33,0h4.529l4.95-21.3h-5.1l-2.91,13.5-6-13.859-5.97,13.859-2.91-13.5h-5.1l4.92,21.3h4.53l4.53-10.44Zm23.25,0.36a11.01,11.01,0,1,0-11.01-11.01A11.035,11.035,0,0,0,536.18,51.231Zm0-4.62a6.393,6.393,0,1,1,6.18-6.39A6.32,6.32,0,0,1,536.18,46.611Zm25.619,4.62a11.01,11.01,0,1,0-11.009-11.01A11.036,11.036,0,0,0,561.8,51.231Zm0-4.62a6.393,6.393,0,1,1,6.18-6.39A6.319,6.319,0,0,1,561.8,46.611Zm15.81,4.26H591.2v-4.56h-8.82V29.572h-4.77v21.3Zm-546.023,28h4.77v-8.34h6.51v-4.56h-6.51v-3.84H44.7v-4.56H31.586v21.3Zm17.85,0H63.026v-4.56h-8.82V57.572h-4.77v21.3Zm15.78,0H70.2l1.89-4.5h8.82l1.89,4.5h4.98l-9.12-21.3h-4.32Zm8.61-8.64,2.67-6.42,2.67,6.42h-5.34Zm36.929,8.64v-21.3h-4.8V70.711L95.606,57.572H91.5v21.3h4.77V65.7l10.379,13.17h4.11Zm25.26,0v-21.3h-4.8V70.711L120.866,57.572h-4.11v21.3h4.77V65.7l10.379,13.17h4.11Zm6,0h13.5v-4.56h-8.73V70.5h6.93v-4.56h-6.93v-3.81h8.73v-4.56h-13.5v21.3Zm18.63,0h13.59v-4.56h-8.82V57.572h-4.77v21.3Zm31.71,0.36c4.5,0,7.589-2.7,7.619-6.57,0.03-3.21-1.98-5.25-5.069-6.36l-1.5-.54c-2.25-.81-3.3-1.32-3.3-2.46,0-1.11,1.29-1.62,2.58-1.62a4.736,4.736,0,0,1,3.689,1.77l3.12-3.3a8.887,8.887,0,0,0-6.869-2.94c-4.26,0-7.35,2.43-7.35,6.57,0,2.91,1.92,4.98,5.37,6.15l1.5,0.51c2.13,0.72,2.969,1.47,2.969,2.55,0,1.02-.989,1.77-2.579,1.77a5.573,5.573,0,0,1-4.41-2.43l-3.66,3.09A9.34,9.34,0,0,0,192.355,79.231Zm20.939,0a8.354,8.354,0,0,0,8.76-8.79V57.572h-4.77V70.5a3.992,3.992,0,1,1-7.98,0V57.572h-4.769V70.441C204.535,75.751,208.164,79.231,213.294,79.231Zm14.52-.36h4.77v-21.3h-4.77v21.3Zm14.61,0h4.8V62.132h5.489v-4.56H236.994v4.56h5.43V78.871Zm-211.395,28H32.7V94.087H31.029v12.784Zm10.585-.126v-1.386a3.424,3.424,0,0,1-1.1.18,1.3,1.3,0,0,1-1.494-1.531V99.291h2.593V97.868H39.022v-2.5H37.473v2.5H35.565v1.422h1.909v4.915a2.534,2.534,0,0,0,2.755,2.755A4.31,4.31,0,0,0,41.614,106.745Zm2.05-4.375a4.5,4.5,0,0,0,4.411,4.681,3.948,3.948,0,0,0,3.169-1.566v1.386h1.548v-9H51.245v1.386a3.948,3.948,0,0,0-3.169-1.566A4.5,4.5,0,0,0,43.665,102.37Zm7.706,0a3.075,3.075,0,1,1-3.061-3.259A3.074,3.074,0,0,1,51.371,102.37Zm5.236,4.5h1.548v-13.5H56.607v13.5Zm7.254-12.514a1.087,1.087,0,0,0-1.08-1.1,1.118,1.118,0,0,0-1.116,1.1,1.107,1.107,0,0,0,1.116,1.1A1.076,1.076,0,0,0,63.861,94.357Zm-1.873,12.514h1.548v-9H61.989v9Zm4.68-4.5a4.5,4.5,0,0,0,4.411,4.681,3.948,3.948,0,0,0,3.169-1.566v1.386H75.8v-9H74.249v1.386a3.948,3.948,0,0,0-3.169-1.566A4.505,4.505,0,0,0,66.668,102.37Zm7.706,0a3.075,3.075,0,1,1-3.061-3.259A3.074,3.074,0,0,1,74.375,102.37Zm5.236,4.5h1.549v-4.465c0-2.107,1.152-3.3,2.611-3.3a2.161,2.161,0,0,1,2.125,2.449v5.311h1.531v-5.546a3.318,3.318,0,0,0-3.4-3.637,3.184,3.184,0,0,0-2.863,1.566V97.868H79.61v9Zm24.1,0h1.369l3.061-9h-1.639l-2.178,6.572-2.251-6.572h-1.188l-2.251,6.572-2.179-6.572h-1.62l3.061,9h1.368l2.233-6.482Zm15.661-4.5a4.709,4.709,0,1,0-4.7,4.681A4.62,4.62,0,0,0,119.375,102.37Zm-7.833,0a3.126,3.126,0,1,1,3.133,3.241A3.095,3.095,0,0,1,111.542,102.37Zm19.64,0a4.708,4.708,0,1,0-4.7,4.681A4.62,4.62,0,0,0,131.182,102.37Zm-7.832,0a3.126,3.126,0,1,1,3.133,3.241A3.094,3.094,0,0,1,123.35,102.37Zm10.944,4.5h1.548v-13.5h-1.548v13.5Zm7.308-.4a1.539,1.539,0,0,0,.252-0.81,1.333,1.333,0,1,0-2.665,0,1.34,1.34,0,0,0,.738,1.206l-1.206,2.575h1.026Zm10.422-.99a3.947,3.947,0,0,0,3.169,1.566,4.69,4.69,0,0,0,0-9.363,3.947,3.947,0,0,0-3.169,1.566V93.367h-1.549v13.5h1.549v-1.386Zm6-3.115a3.067,3.067,0,1,1-3.061-3.259A3.074,3.074,0,0,1,158.019,102.37Zm6.659,3.3a1.333,1.333,0,1,0-1.333,1.35A1.358,1.358,0,0,0,164.678,105.665Zm16.291-.288H174.6c0.306-1.477,1.8-2.215,3.277-3.3,2.089-1.513,2.953-2.593,2.953-4.466a3.631,3.631,0,0,0-3.943-3.745,3.972,3.972,0,0,0-4.213,4.033h1.584a2.469,2.469,0,0,1,2.647-2.521,2.162,2.162,0,0,1,2.341,2.215c0,1.495-.793,2.161-2.269,3.259-1.891,1.405-4.285,2.665-4.285,5.4v0.612h8.282v-1.494Zm11.916-3.133V98.679a4.536,4.536,0,1,0-9.056,0v3.565A4.536,4.536,0,1,0,192.885,102.244Zm-7.508,0V98.679c0-2.071,1.242-3.295,2.971-3.295,1.747,0,2.989,1.224,2.989,3.295v3.565c0,2.07-1.242,3.3-2.989,3.3C186.619,105.539,185.377,104.314,185.377,102.244Zm12.06,4.627h1.548V94.087H196.23l-1.26,1.53h2.467v11.253Zm14.276-4.627V98.679a4.537,4.537,0,1,0-9.057,0v3.565A4.537,4.537,0,1,0,211.713,102.244Zm-7.508,0V98.679c0-2.071,1.242-3.295,2.971-3.295,1.746,0,2.989,1.224,2.989,3.295v3.565c0,2.07-1.243,3.3-2.989,3.3C205.447,105.539,204.205,104.314,204.205,102.244ZM30.841,154.871h4.066c2.3,0,3.81-1.424,3.81-3.313a2.707,2.707,0,0,0-1.969-2.721,2.577,2.577,0,0,0,1.216-2.321,3.112,3.112,0,0,0-3.393-3.009H30.841v11.364Zm1.489-6.483v-3.537h2.241a1.787,1.787,0,0,1,1.937,1.777,1.749,1.749,0,0,1-1.937,1.76H32.33Zm0,5.139v-3.858h2.657c1.5,0,2.273.832,2.273,1.937,0,1.12-.768,1.921-2.289,1.921H32.33Zm8.543-2.658a4.005,4.005,0,0,0,3.922,4.162,3.51,3.51,0,0,0,2.817-1.392v1.232h1.377v-8H47.612V148.1a3.51,3.51,0,0,0-2.817-1.392A4,4,0,0,0,40.873,150.869Zm6.851,0a2.734,2.734,0,1,1-2.721-2.9A2.733,2.733,0,0,1,47.724,150.869Zm4.653,4h1.377V150.9c0-1.872,1.024-2.929,2.321-2.929a1.921,1.921,0,0,1,1.889,2.177v4.722h1.361v-4.93a2.949,2.949,0,0,0-3.025-3.233,2.83,2.83,0,0,0-2.545,1.392v-1.232H52.377v8Zm9.6-4a4.005,4.005,0,0,0,3.922,4.162,3.51,3.51,0,0,0,2.817-1.392v1.232h1.377v-8H68.715V148.1a3.51,3.51,0,0,0-2.817-1.392A4,4,0,0,0,61.976,150.869Zm6.851,0a2.734,2.734,0,1,1-2.721-2.9A2.733,2.733,0,0,1,68.827,150.869Zm4.653,4h1.377V150.9c0-1.872,1.024-2.929,2.321-2.929a1.921,1.921,0,0,1,1.889,2.177v4.722h1.361v-4.93a2.949,2.949,0,0,0-3.025-3.233,2.83,2.83,0,0,0-2.545,1.392v-1.232H73.481v8Zm9.6-4A4.005,4.005,0,0,0,87,155.031a3.51,3.51,0,0,0,2.817-1.392v1.232H91.2v-8H89.819V148.1A3.51,3.51,0,0,0,87,146.708,4,4,0,0,0,83.08,150.869Zm6.851,0a2.734,2.734,0,1,1-2.721-2.9A2.733,2.733,0,0,1,89.931,150.869Zm9.565,4h1.489V149.7h1.1l4.37,5.17h1.873l-4.37-5.186a2.965,2.965,0,0,0,2.8-3.041,3.065,3.065,0,0,0-3.393-3.137H99.5v11.364Zm1.489-6.5v-3.489h2.209c1.3,0,2.08.608,2.08,1.761,0,1.136-.784,1.728-2.08,1.728h-2.209Zm8.4,2.5a4.219,4.219,0,0,0,7.747,2.257l-1.089-.752a2.833,2.833,0,0,1-5.266-1.232h6.563a3.922,3.922,0,0,0,.016-0.417,3.729,3.729,0,0,0-3.81-4.017A4.055,4.055,0,0,0,109.384,150.869Zm4.113-2.945a2.4,2.4,0,0,1,2.449,2.1h-5.074A2.617,2.617,0,0,1,113.5,147.924Zm6.607,10.292h1.376v-4.577a3.512,3.512,0,0,0,2.817,1.392,4.169,4.169,0,0,0,0-8.323,3.512,3.512,0,0,0-2.817,1.392v-1.232H120.1v11.348Zm6.707-7.347a2.727,2.727,0,1,1-2.722-2.9A2.734,2.734,0,0,1,126.811,150.869Zm4.077,0.913c0,1.985,1.184,3.249,2.945,3.249a2.754,2.754,0,0,0,2.465-1.392v1.232h1.376v-8H136.3v3.969c0,1.841-.977,2.93-2.225,2.93-1.1,0-1.809-.849-1.809-2.193v-4.706h-1.376v4.914Zm11.552,1.857a3.51,3.51,0,0,0,2.817,1.392,4.169,4.169,0,0,0,0-8.323,3.51,3.51,0,0,0-2.817,1.392v-5.234h-1.376v12h1.376v-1.232Zm5.33-2.77a2.726,2.726,0,1,1-2.721-2.9A2.733,2.733,0,0,1,147.77,150.869Zm4.173,4h1.377v-12h-1.377v12Zm6.449-11.124a0.966,0.966,0,0,0-.96-0.977,0.994,0.994,0,0,0-.993.977,0.984,0.984,0,0,0,.993.976A0.956,0.956,0,0,0,158.392,143.747Zm-1.665,11.124H158.1v-8h-1.377v8Zm12.051-1.985-1.2-.672a2.714,2.714,0,0,1-2.5,1.537,2.883,2.883,0,0,1,0-5.763,2.714,2.714,0,0,1,2.5,1.537l1.2-.672a4.143,4.143,0,0,0-3.7-2.145,4.162,4.162,0,1,0,0,8.323A4.143,4.143,0,0,0,168.778,152.886Zm7.277,1.985h1.376V150.9c0-1.872,1.025-2.929,2.321-2.929a1.921,1.921,0,0,1,1.889,2.177v4.722H183v-4.93a2.95,2.95,0,0,0-3.026-3.233,2.832,2.832,0,0,0-2.545,1.392v-5.234h-1.376v12Zm9.6-4a4.005,4.005,0,0,0,3.922,4.162,3.509,3.509,0,0,0,2.817-1.392v1.232h1.377v-8h-1.377V148.1a3.509,3.509,0,0,0-2.817-1.392A4.005,4.005,0,0,0,185.654,150.869Zm6.851,0a2.734,2.734,0,1,1-2.721-2.9A2.733,2.733,0,0,1,192.505,150.869Zm9.84,1.777c0-1.2-.753-1.969-2.113-2.417l-0.865-.288c-0.944-.3-1.232-0.608-1.232-1.12a1.132,1.132,0,0,1,1.344-.929,2.16,2.16,0,0,1,1.7.833l0.9-.865a3.106,3.106,0,0,0-2.562-1.152c-1.584,0-2.7.88-2.7,2.177a2.417,2.417,0,0,0,1.985,2.321l0.785,0.256c1.04,0.336,1.424.72,1.424,1.28a1.218,1.218,0,0,1-1.408,1.089,2.148,2.148,0,0,1-2.049-1.265l-1.121.608a3.179,3.179,0,0,0,3.138,1.857C201.176,155.031,202.345,154.215,202.345,152.646Zm6.845-1.777a4.005,4.005,0,0,0,3.922,4.162,3.512,3.512,0,0,0,2.817-1.392v1.232h1.376v-8h-1.376V148.1a3.512,3.512,0,0,0-2.817-1.392A4.005,4.005,0,0,0,209.19,150.869Zm6.851,0a2.734,2.734,0,1,1-2.721-2.9A2.733,2.733,0,0,1,216.041,150.869Zm4.653,4h1.377V150.9c0-1.872,1.024-2.929,2.321-2.929a1.921,1.921,0,0,1,1.888,2.177v4.722h1.361v-4.93a2.949,2.949,0,0,0-3.025-3.233,2.829,2.829,0,0,0-2.545,1.392v-1.232h-1.377v8Zm14.816-3.089c0,1.985,1.184,3.249,2.945,3.249a2.754,2.754,0,0,0,2.465-1.392v1.232H242.3v-8H240.92v3.969c0,1.841-.977,2.93-2.225,2.93-1.1,0-1.809-.849-1.809-2.193v-4.706H235.51v4.914Zm10.176,3.089h1.376V150.9c0-1.872,1.025-2.929,2.321-2.929a1.921,1.921,0,0,1,1.889,2.177v4.722h1.36v-4.93a2.949,2.949,0,0,0-3.025-3.233,2.831,2.831,0,0,0-2.545,1.392v-1.232h-1.376v8Zm16.994,0H263.9l2.721-8h-1.457l-1.937,5.842-2-5.842h-1.057l-2,5.842-1.936-5.842h-1.441l2.721,8h1.217l1.984-5.762Zm5.565-4a4.005,4.005,0,0,0,3.922,4.162,3.51,3.51,0,0,0,2.817-1.392v1.232h1.376v-8h-1.376V148.1a3.51,3.51,0,0,0-2.817-1.392A4.005,4.005,0,0,0,268.245,150.869Zm6.851,0a2.734,2.734,0,1,1-2.721-2.9A2.733,2.733,0,0,1,275.1,150.869Zm7.15,4H283.4l3.7-8H285.56l-2.738,6.05-2.737-6.05h-1.536Zm6.239-4a4.219,4.219,0,0,0,7.747,2.257l-1.088-.752a2.833,2.833,0,0,1-5.266-1.232h6.562a3.922,3.922,0,0,0,.016-0.417,3.729,3.729,0,0,0-3.809-4.017A4.056,4.056,0,0,0,288.485,150.869Zm4.114-2.945a2.4,2.4,0,0,1,2.449,2.1h-5.074A2.616,2.616,0,0,1,292.6,147.924Zm6.606,6.947h1.377V150.9c0-1.872,1.1-2.753,2.113-2.753a2.011,2.011,0,0,1,.752.128v-1.424a2.851,2.851,0,0,0-.624-0.064,2.38,2.38,0,0,0-2.241,1.632v-1.552h-1.377v8Zm8.321-11.124a0.967,0.967,0,0,0-.961-0.977,0.994,0.994,0,0,0-.992.977,0.983,0.983,0,0,0,.992.976A0.957,0.957,0,0,0,307.526,143.747Zm-1.665,11.124h1.377v-8h-1.377v8Zm4.784,0h1.377V150.9c0-1.872,1.024-2.929,2.32-2.929a1.921,1.921,0,0,1,1.889,2.177v4.722h1.361v-4.93a2.949,2.949,0,0,0-3.025-3.233,2.829,2.829,0,0,0-2.545,1.392v-1.232h-1.377v8Zm17.683-.464v-7.539h-1.377V148.1a3.4,3.4,0,0,0-2.785-1.392,4.077,4.077,0,0,0,0,8.147,3.417,3.417,0,0,0,2.785-1.408v0.912a2.558,2.558,0,0,1-2.673,2.769,3.422,3.422,0,0,1-2.8-1.345l-0.96.961a4.751,4.751,0,0,0,3.777,1.633A3.705,3.705,0,0,0,328.328,154.407Zm-6.675-3.634a2.707,2.707,0,1,1,2.7,2.8A2.667,2.667,0,0,1,321.653,150.773Zm22.034,2.113-1.2-.672a2.714,2.714,0,0,1-2.5,1.537,2.883,2.883,0,0,1,0-5.763,2.714,2.714,0,0,1,2.5,1.537l1.2-.672A4.162,4.162,0,1,0,343.687,152.886Zm10.3-2.017a4.186,4.186,0,1,0-4.177,4.162A4.107,4.107,0,0,0,353.991,150.869Zm-6.962,0a2.779,2.779,0,1,1,2.785,2.882A2.751,2.751,0,0,1,347.029,150.869Zm9.727,4h1.377V150.9c0-1.808.912-2.929,2.208-2.929,1.041,0,1.569.9,1.569,2.193v4.706h1.377V150.9c0-1.808.9-2.929,2.193-2.929,1.04,0,1.584.9,1.584,2.193v4.706h1.377v-4.914c0-1.953-1.057-3.249-2.8-3.249a2.769,2.769,0,0,0-2.625,1.712,2.517,2.517,0,0,0-2.465-1.712,2.689,2.689,0,0,0-2.417,1.392v-1.232h-1.377v8Zm14.96,0h1.376V150.9c0-1.808.913-2.929,2.209-2.929,1.041,0,1.569.9,1.569,2.193v4.706h1.377V150.9c0-1.808.9-2.929,2.192-2.929,1.041,0,1.585.9,1.585,2.193v4.706H383.4v-4.914c0-1.953-1.057-3.249-2.8-3.249a2.771,2.771,0,0,0-2.626,1.712,2.515,2.515,0,0,0-2.465-1.712,2.692,2.692,0,0,0-2.417,1.392v-1.232h-1.376v8Zm16.625-11.124a0.967,0.967,0,0,0-.961-0.977,0.994,0.994,0,0,0-.992.977,0.983,0.983,0,0,0,.992.976A0.957,0.957,0,0,0,388.341,143.747Zm-1.665,11.124h1.376v-8h-1.376v8Zm9.121-.112v-1.232a3.041,3.041,0,0,1-.976.16,1.153,1.153,0,0,1-1.328-1.361v-4.194h2.3v-1.264h-2.3v-2.225h-1.377v2.225h-1.7v1.264h1.7v4.37a2.252,2.252,0,0,0,2.449,2.449A3.828,3.828,0,0,0,395.8,154.759Zm2.559,0.112h1.376V150.9c0-1.808.913-2.929,2.209-2.929,1.041,0,1.569.9,1.569,2.193v4.706h1.376V150.9c0-1.808.9-2.929,2.193-2.929,1.041,0,1.585.9,1.585,2.193v4.706h1.376v-4.914c0-1.953-1.056-3.249-2.8-3.249a2.77,2.77,0,0,0-2.625,1.712,2.515,2.515,0,0,0-2.465-1.712,2.691,2.691,0,0,0-2.417,1.392v-1.232h-1.376v8Zm14.335-4a4.219,4.219,0,0,0,7.747,2.257l-1.088-.752a2.833,2.833,0,0,1-5.266-1.232h6.563a3.922,3.922,0,0,0,.016-0.417,3.729,3.729,0,0,0-3.81-4.017A4.056,4.056,0,0,0,412.691,150.869Zm4.114-2.945a2.4,2.4,0,0,1,2.449,2.1H414.18A2.617,2.617,0,0,1,416.805,147.924Zm6.606,6.947h1.377V150.9c0-1.872,1.024-2.929,2.321-2.929A1.922,1.922,0,0,1,429,150.149v4.722h1.36v-4.93a2.949,2.949,0,0,0-3.025-3.233,2.831,2.831,0,0,0-2.545,1.392v-1.232h-1.377v8Zm14.466-.112v-1.232a3.041,3.041,0,0,1-.976.16,1.153,1.153,0,0,1-1.329-1.361v-4.194h2.305v-1.264h-2.305v-2.225H434.2v2.225h-1.7v1.264h1.7v4.37a2.252,2.252,0,0,0,2.449,2.449A3.828,3.828,0,0,0,437.877,154.759Zm11.328,0v-1.232a3.041,3.041,0,0,1-.976.16,1.153,1.153,0,0,1-1.329-1.361v-4.194h2.305v-1.264H446.9v-2.225h-1.377v2.225h-1.7v1.264h1.7v4.37a2.253,2.253,0,0,0,2.449,2.449A3.83,3.83,0,0,0,449.205,154.759Zm10.177-3.89a4.186,4.186,0,1,0-4.177,4.162A4.107,4.107,0,0,0,459.382,150.869Zm-6.962,0a2.779,2.779,0,1,1,2.785,2.882A2.751,2.751,0,0,1,452.42,150.869Zm20.545,7.347h1.377V146.868h-1.377V148.1a3.509,3.509,0,0,0-2.817-1.392,4.169,4.169,0,0,0,0,8.323,3.509,3.509,0,0,0,2.817-1.392v4.577Zm0.112-7.347a2.734,2.734,0,1,1-2.721-2.9A2.733,2.733,0,0,1,473.077,150.869Zm4.542,0.913c0,1.985,1.184,3.249,2.945,3.249a2.754,2.754,0,0,0,2.465-1.392v1.232h1.376v-8h-1.376v3.969c0,1.841-.977,2.93-2.225,2.93-1.1,0-1.809-.849-1.809-2.193v-4.706h-1.376v4.914Zm9.551-.913a4.005,4.005,0,0,0,3.922,4.162,3.51,3.51,0,0,0,2.817-1.392v1.232h1.377v-8h-1.377V148.1a3.51,3.51,0,0,0-2.817-1.392A4.005,4.005,0,0,0,487.17,150.869Zm6.851,0a2.734,2.734,0,1,1-2.721-2.9A2.733,2.733,0,0,1,494.021,150.869Zm4.653,4h1.377v-12h-1.377v12Zm6.449-11.124a0.966,0.966,0,0,0-.96-0.977,0.994,0.994,0,0,0-.993.977,0.984,0.984,0,0,0,.993.976A0.956,0.956,0,0,0,505.123,143.747Zm-1.665,11.124h1.377v-8h-1.377v8Zm9.122-.112v-1.232a3.041,3.041,0,0,1-.976.16,1.153,1.153,0,0,1-1.329-1.361v-4.194h2.305v-1.264h-2.305v-2.225H508.9v2.225h-1.7v1.264h1.7v4.37a2.253,2.253,0,0,0,2.449,2.449A3.83,3.83,0,0,0,512.58,154.759Zm4.687,3.457,5.25-11.348h-1.536l-2.738,6.066-2.753-6.066h-1.52l3.5,7.587-1.745,3.761h1.537Zm11.151-7.347a4.005,4.005,0,0,0,3.921,4.162,3.512,3.512,0,0,0,2.818-1.392v1.232h1.376v-8h-1.376V148.1a3.512,3.512,0,0,0-2.818-1.392A4,4,0,0,0,528.418,150.869Zm6.851,0a2.734,2.734,0,1,1-2.721-2.9A2.733,2.733,0,0,1,535.269,150.869Zm4.653,4H541.3V150.9c0-1.872,1.024-2.929,2.32-2.929a1.921,1.921,0,0,1,1.889,2.177v4.722h1.361v-4.93a2.949,2.949,0,0,0-3.025-3.233A2.829,2.829,0,0,0,541.3,148.1v-1.232h-1.377v8Zm9.6-4a4,4,0,0,0,3.921,4.162,3.509,3.509,0,0,0,2.817-1.392v1.232h1.377v-12H556.26V148.1a3.509,3.509,0,0,0-2.817-1.392A4,4,0,0,0,549.522,150.869Zm6.85,0a2.734,2.734,0,1,1-2.721-2.9A2.733,2.733,0,0,1,556.372,150.869ZM573,152.886l-1.2-.672a2.714,2.714,0,0,1-2.5,1.537,2.883,2.883,0,0,1,0-5.763,2.714,2.714,0,0,1,2.5,1.537l1.2-.672A4.162,4.162,0,1,0,573,152.886Zm2.573,1.985h1.377V150.9c0-1.872,1.1-2.753,2.113-2.753a2.011,2.011,0,0,1,.752.128v-1.424a2.851,2.851,0,0,0-.624-0.064,2.38,2.38,0,0,0-2.241,1.632v-1.552h-1.377v8Zm5.76-4a4.005,4.005,0,0,0,3.922,4.162,3.51,3.51,0,0,0,2.817-1.392v1.232h1.376v-8h-1.376V148.1a3.51,3.51,0,0,0-2.817-1.392A4.005,4.005,0,0,0,581.329,150.869Zm6.851,0a2.734,2.734,0,1,1-2.721-2.9A2.733,2.733,0,0,1,588.18,150.869Zm5.325,4h1.377v-6.739H597v-1.264h-2.113V145.4a1.152,1.152,0,0,1,1.328-1.36,3.223,3.223,0,0,1,.993.16v-1.217a3.638,3.638,0,0,0-1.249-.208,2.253,2.253,0,0,0-2.449,2.449v1.649h-1.7v1.264h1.7v6.739Zm9.588-.112v-1.232a3.144,3.144,0,0,1-.992.16,1.153,1.153,0,0,1-1.329-1.361v-4.194h2.321v-1.264h-2.321v-2.225H599.4v2.225h-1.5v1.264h1.5v4.37a2.264,2.264,0,0,0,2.465,2.449A3.982,3.982,0,0,0,603.093,154.759Zm7.742-2.113c0-1.2-.752-1.969-2.113-2.417l-0.864-.288c-0.945-.3-1.233-0.608-1.233-1.12a1.133,1.133,0,0,1,1.345-.929,2.163,2.163,0,0,1,1.7.833l0.9-.865A3.1,3.1,0,0,0,608,146.708c-1.585,0-2.7.88-2.7,2.177a2.416,2.416,0,0,0,1.985,2.321l0.784,0.256c1.04,0.336,1.424.72,1.424,1.28a1.218,1.218,0,0,1-1.408,1.089,2.148,2.148,0,0,1-2.049-1.265l-1.12.608a3.177,3.177,0,0,0,3.137,1.857C609.667,155.031,610.835,154.215,610.835,152.646Zm2.766,2.225h1.376V150.9c0-1.808.913-2.929,2.209-2.929,1.041,0,1.569.9,1.569,2.193v4.706h1.376V150.9c0-1.808.9-2.929,2.193-2.929,1.041,0,1.585.9,1.585,2.193v4.706h1.377v-4.914c0-1.953-1.057-3.249-2.8-3.249a2.771,2.771,0,0,0-2.625,1.712,2.515,2.515,0,0,0-2.465-1.712,2.692,2.692,0,0,0-2.417,1.392v-1.232H613.6v8Zm14.335-4a4.005,4.005,0,0,0,3.922,4.162,3.509,3.509,0,0,0,2.817-1.392v1.232h1.377v-8h-1.377V148.1a3.509,3.509,0,0,0-2.817-1.392A4.005,4.005,0,0,0,627.936,150.869Zm6.851,0a2.734,2.734,0,1,1-2.721-2.9A2.733,2.733,0,0,1,634.787,150.869Zm4.654,4h1.376V150.9c0-1.872,1.025-2.929,2.321-2.929a1.921,1.921,0,0,1,1.889,2.177v4.722h1.36v-4.93a2.949,2.949,0,0,0-3.025-3.233,2.831,2.831,0,0,0-2.545,1.392v-1.232h-1.376v8Zm15.409-2.225c0-1.2-.752-1.969-2.112-2.417l-0.865-.288c-0.944-.3-1.232-0.608-1.232-1.12a1.132,1.132,0,0,1,1.344-.929,2.16,2.16,0,0,1,1.7.833l0.9-.865a3.1,3.1,0,0,0-2.561-1.152c-1.584,0-2.705.88-2.705,2.177a2.416,2.416,0,0,0,1.985,2.321l0.784,0.256c1.041,0.336,1.425.72,1.425,1.28a1.218,1.218,0,0,1-1.409,1.089,2.15,2.15,0,0,1-2.049-1.265l-1.12.608a3.178,3.178,0,0,0,3.137,1.857C653.682,155.031,654.85,154.215,654.85,152.646Zm2.766,2.225h1.377V150.9c0-1.872,1.024-2.929,2.321-2.929a1.921,1.921,0,0,1,1.888,2.177v4.722h1.361v-4.93a2.949,2.949,0,0,0-3.025-3.233,2.829,2.829,0,0,0-2.545,1.392v-5.234h-1.377v12Zm11.889-11.124a0.967,0.967,0,0,0-.961-0.977,0.994,0.994,0,0,0-.992.977,0.983,0.983,0,0,0,.992.976A0.957,0.957,0,0,0,669.505,143.747Zm-1.665,11.124h1.377v-8H667.84v8Zm4.784,3.345H674v-4.577a3.509,3.509,0,0,0,2.817,1.392,4.169,4.169,0,0,0,0-8.323A3.509,3.509,0,0,0,674,148.1v-1.232h-1.377v11.348Zm6.707-7.347a2.727,2.727,0,1,1-2.721-2.9A2.733,2.733,0,0,1,679.331,150.869Zm5.934,2.93a1.185,1.185,0,1,0-1.185,1.2A1.206,1.206,0,0,0,685.265,153.8ZM30.841,174.871H32.33V163.507H30.841v11.364Zm5.056,0h1.377V170.9c0-1.872,1.024-2.929,2.321-2.929a1.921,1.921,0,0,1,1.889,2.177v4.722h1.361v-4.93a2.949,2.949,0,0,0-3.025-3.233,2.83,2.83,0,0,0-2.545,1.392v-1.232H35.9v8Zm15.41-2.225c0-1.2-.752-1.969-2.113-2.417l-0.864-.288c-0.944-.3-1.233-0.608-1.233-1.12a1.133,1.133,0,0,1,1.345-.929,2.161,2.161,0,0,1,1.7.833l0.9-.865a3.1,3.1,0,0,0-2.561-1.152c-1.585,0-2.705.88-2.705,2.177a2.416,2.416,0,0,0,1.985,2.321l0.784,0.256c1.04,0.336,1.425.72,1.425,1.28a1.218,1.218,0,0,1-1.409,1.089,2.149,2.149,0,0,1-2.049-1.265l-1.12.608a3.178,3.178,0,0,0,3.137,1.857C50.138,175.031,51.307,174.215,51.307,172.646Zm2.766,5.57h1.377v-4.577a3.51,3.51,0,0,0,2.817,1.392,4.169,4.169,0,0,0,0-8.323,3.51,3.51,0,0,0-2.817,1.392v-1.232H54.073v11.348Zm6.707-7.347a2.726,2.726,0,1,1-2.721-2.9A2.733,2.733,0,0,1,60.779,170.869Zm5.854-7.122a0.967,0.967,0,0,0-.96-0.977,0.994,0.994,0,0,0-.992.977,0.984,0.984,0,0,0,.992.976A0.957,0.957,0,0,0,66.633,163.747Zm-1.665,11.124h1.377v-8H64.969v8Zm4.784,0h1.377V170.9c0-1.872,1.1-2.753,2.113-2.753a2.013,2.013,0,0,1,.752.128v-1.424a2.853,2.853,0,0,0-.624-0.064,2.381,2.381,0,0,0-2.241,1.632v-1.552H69.752v8Zm5.744-4a4.219,4.219,0,0,0,7.747,2.257l-1.088-.752a2.833,2.833,0,0,1-5.266-1.232h6.563a3.922,3.922,0,0,0,.016-0.417,3.729,3.729,0,0,0-3.809-4.017A4.056,4.056,0,0,0,75.5,170.869Zm4.114-2.945a2.4,2.4,0,0,1,2.449,2.1H76.985A2.617,2.617,0,0,1,79.61,167.924Zm5.982,2.945a4.005,4.005,0,0,0,3.922,4.162,3.51,3.51,0,0,0,2.817-1.392v1.232h1.377v-12H92.331V168.1a3.51,3.51,0,0,0-2.817-1.392A4,4,0,0,0,85.592,170.869Zm6.851,0a2.734,2.734,0,1,1-2.721-2.9A2.733,2.733,0,0,1,92.443,170.869Zm10.734,2.77a3.509,3.509,0,0,0,2.817,1.392,4.169,4.169,0,0,0,0-8.323,3.509,3.509,0,0,0-2.817,1.392v-5.234H101.8v12h1.377v-1.232Zm5.33-2.77a2.726,2.726,0,1,1-2.721-2.9A2.733,2.733,0,0,1,108.507,170.869Zm6.142,7.347,5.25-11.348h-1.537l-2.737,6.066-2.753-6.066h-1.52l3.5,7.587-1.745,3.761h1.537Zm15.841-3.457v-1.232a3.048,3.048,0,0,1-.977.16,1.153,1.153,0,0,1-1.328-1.361v-4.194h2.305v-1.264h-2.305v-2.225h-1.377v2.225h-1.7v1.264h1.7v4.37a2.253,2.253,0,0,0,2.449,2.449A3.835,3.835,0,0,0,130.49,174.759Zm2.558,0.112h1.376V170.9c0-1.872,1.025-2.929,2.321-2.929a1.921,1.921,0,0,1,1.889,2.177v4.722H140v-4.93a2.949,2.949,0,0,0-3.025-3.233,2.832,2.832,0,0,0-2.546,1.392v-5.234h-1.376v12Zm9.6-4a4.219,4.219,0,0,0,7.747,2.257l-1.089-.752a2.833,2.833,0,0,1-5.266-1.232H150.6a3.922,3.922,0,0,0,.016-0.417,3.729,3.729,0,0,0-3.81-4.017A4.055,4.055,0,0,0,142.648,170.869Zm4.113-2.945a2.4,2.4,0,0,1,2.449,2.1h-5.074A2.617,2.617,0,0,1,146.761,167.924Zm15.376,6.835v-1.232a3.041,3.041,0,0,1-.976.16,1.153,1.153,0,0,1-1.329-1.361v-4.194h2.305v-1.264h-2.305v-2.225h-1.376v2.225h-1.7v1.264h1.7v4.37a2.252,2.252,0,0,0,2.449,2.449A3.828,3.828,0,0,0,162.137,174.759Zm2.558,0.112h1.377V170.9c0-1.872,1.1-2.753,2.113-2.753a2.011,2.011,0,0,1,.752.128v-1.424a2.851,2.851,0,0,0-.624-0.064,2.381,2.381,0,0,0-2.241,1.632v-1.552H164.7v8Zm5.76-4a4.005,4.005,0,0,0,3.922,4.162,3.51,3.51,0,0,0,2.817-1.392v1.232h1.376v-8h-1.376V168.1a3.51,3.51,0,0,0-2.817-1.392A4.005,4.005,0,0,0,170.455,170.869Zm6.851,0a2.734,2.734,0,1,1-2.721-2.9A2.733,2.733,0,0,1,177.306,170.869Zm4.029,0a4.005,4.005,0,0,0,3.922,4.162,3.51,3.51,0,0,0,2.817-1.392v1.232h1.376v-12h-1.376V168.1a3.51,3.51,0,0,0-2.817-1.392A4.005,4.005,0,0,0,181.335,170.869Zm6.851,0a2.734,2.734,0,1,1-2.721-2.9A2.733,2.733,0,0,1,188.186,170.869Zm6.318-7.122a0.967,0.967,0,0,0-.961-0.977,0.994,0.994,0,0,0-.992.977,0.983,0.983,0,0,0,.992.976A0.957,0.957,0,0,0,194.5,163.747Zm-1.665,11.124h1.377v-8h-1.377v8Zm9.122-.112v-1.232a3.048,3.048,0,0,1-.977.16,1.153,1.153,0,0,1-1.328-1.361v-4.194h2.305v-1.264h-2.305v-2.225h-1.377v2.225h-1.7v1.264h1.7v4.37a2.253,2.253,0,0,0,2.449,2.449A3.835,3.835,0,0,0,201.961,174.759Zm4.223-11.012a0.967,0.967,0,0,0-.961-0.977,0.994,0.994,0,0,0-.992.977,0.983,0.983,0,0,0,.992.976A0.957,0.957,0,0,0,206.184,163.747Zm-1.665,11.124H205.9v-8h-1.376v8Zm12.515-4a4.186,4.186,0,1,0-4.178,4.162A4.107,4.107,0,0,0,217.034,170.869Zm-6.963,0a2.779,2.779,0,1,1,2.785,2.882A2.751,2.751,0,0,1,210.071,170.869Zm9.728,4h1.376V170.9c0-1.872,1.025-2.929,2.321-2.929a1.921,1.921,0,0,1,1.889,2.177v4.722h1.36v-4.93a2.949,2.949,0,0,0-3.025-3.233,2.831,2.831,0,0,0-2.545,1.392v-1.232H219.8v8Zm15.41-2.225c0-1.2-.753-1.969-2.113-2.417l-0.865-.288c-0.944-.3-1.232-0.608-1.232-1.12a1.132,1.132,0,0,1,1.344-.929,2.16,2.16,0,0,1,1.7.833l0.9-.865a3.1,3.1,0,0,0-2.561-1.152c-1.584,0-2.705.88-2.705,2.177a2.417,2.417,0,0,0,1.985,2.321l0.784,0.256c1.041,0.336,1.425.72,1.425,1.28a1.218,1.218,0,0,1-1.409,1.089,2.148,2.148,0,0,1-2.048-1.265l-1.121.608a3.178,3.178,0,0,0,3.137,1.857C234.04,175.031,235.209,174.215,235.209,172.646Zm15.2-1.777a4.186,4.186,0,1,0-4.177,4.162A4.107,4.107,0,0,0,250.409,170.869Zm-6.963,0a2.779,2.779,0,1,1,2.786,2.882A2.752,2.752,0,0,1,243.446,170.869Zm10.272,4H255.1v-6.739h2.321v-1.264H255.1V165.4a1.152,1.152,0,0,1,1.328-1.36,3.228,3.228,0,0,1,.993.16v-1.217a3.642,3.642,0,0,0-1.249-.208,2.286,2.286,0,0,0-2.449,2.481v1.617h-1.7v1.264h1.7v6.739Zm9.568-1.857a4.386,4.386,0,0,0,3.985,2.049c2.113,0,3.618-1.216,3.618-3.153,0-1.681-.961-2.641-2.641-3.281l-1.377-.529c-1.152-.432-1.713-0.864-1.713-1.824a1.81,1.81,0,0,1,2.049-1.569,2.812,2.812,0,0,1,2.257,1.12l1.088-.96a4.145,4.145,0,0,0-3.313-1.553c-2.033,0-3.553,1.169-3.553,3.026,0,1.552.8,2.481,2.577,3.137l1.5,0.576a2.066,2.066,0,0,1,1.633,1.921,1.846,1.846,0,0,1-2.1,1.7,3.177,3.177,0,0,1-2.817-1.553Zm9.759-2.145a4.005,4.005,0,0,0,3.922,4.162,3.51,3.51,0,0,0,2.817-1.392v1.232h1.377v-8h-1.377V168.1a3.51,3.51,0,0,0-2.817-1.392A4.005,4.005,0,0,0,273.045,170.869Zm6.851,0a2.734,2.734,0,1,1-2.721-2.9A2.733,2.733,0,0,1,279.9,170.869Zm7.15,4H288.2l3.7-8H290.36l-2.737,6.05-2.737-6.05h-1.537Zm8.7-11.124a0.966,0.966,0,0,0-.96-0.977,0.994,0.994,0,0,0-.993.977,0.984,0.984,0,0,0,.993.976A0.956,0.956,0,0,0,295.75,163.747Zm-1.665,11.124h1.377v-8h-1.377v8Zm4.784,0h1.377v-12h-1.377v12Zm4.16-4a4.219,4.219,0,0,0,7.747,2.257l-1.089-.752a2.833,2.833,0,0,1-5.266-1.232h6.563a3.922,3.922,0,0,0,.016-0.417,3.729,3.729,0,0,0-3.81-4.017A4.055,4.055,0,0,0,303.029,170.869Zm4.113-2.945a2.4,2.4,0,0,1,2.449,2.1h-5.074A2.618,2.618,0,0,1,307.142,167.924Zm11.519,6.947h1.488V169.7h1.105l4.37,5.17H327.5l-4.369-5.186a2.966,2.966,0,0,0,2.8-3.041,3.066,3.066,0,0,0-3.394-3.137h-3.873v11.364Zm1.488-6.5v-3.489h2.209c1.3,0,2.081.608,2.081,1.761,0,1.136-.784,1.728-2.081,1.728h-2.209Zm16.755,2.5a4.186,4.186,0,1,0-4.178,4.162A4.107,4.107,0,0,0,336.9,170.869Zm-6.963,0a2.779,2.779,0,1,1,2.785,2.882A2.751,2.751,0,0,1,329.941,170.869Zm16.482,4h1.217l2.721-8H348.9l-1.937,5.842-2-5.842H343.91l-2,5.842-1.936-5.842h-1.441l2.721,8h1.217l1.984-5.762Zm7.326-.352a1.368,1.368,0,0,0,.224-0.72,1.185,1.185,0,1,0-2.369,0,1.191,1.191,0,0,0,.656,1.072l-1.072,2.289H352.1Zm7.263-3.65a4.219,4.219,0,0,0,7.747,2.257l-1.088-.752a2.834,2.834,0,0,1-5.267-1.232h6.563a3.922,3.922,0,0,0,.016-0.417,3.729,3.729,0,0,0-3.809-4.017A4.056,4.056,0,0,0,361.012,170.869Zm4.114-2.945a2.394,2.394,0,0,1,2.448,2.1H362.5A2.618,2.618,0,0,1,365.126,167.924Zm5.982,2.945a4,4,0,0,0,3.921,4.162,3.509,3.509,0,0,0,2.817-1.392v1.232h1.377v-8h-1.377V168.1a3.509,3.509,0,0,0-2.817-1.392A4,4,0,0,0,371.108,170.869Zm6.851,0a2.734,2.734,0,1,1-2.722-2.9A2.734,2.734,0,0,1,377.959,170.869Zm11.92,2.017-1.2-.672a2.713,2.713,0,0,1-2.5,1.537,2.883,2.883,0,0,1,0-5.763,2.713,2.713,0,0,1,2.5,1.537l1.2-.672a4.145,4.145,0,0,0-3.7-2.145,4.162,4.162,0,1,0,0,8.323A4.145,4.145,0,0,0,389.879,172.886Zm2.573,1.985h1.376V170.9c0-1.872,1.025-2.929,2.321-2.929a1.921,1.921,0,0,1,1.889,2.177v4.722h1.36v-4.93a2.949,2.949,0,0,0-3.025-3.233,2.831,2.831,0,0,0-2.545,1.392v-5.234h-1.376v12Zm20.113-2.225c0-1.2-.752-1.969-2.113-2.417l-0.864-.288c-0.944-.3-1.232-0.608-1.232-1.12a1.132,1.132,0,0,1,1.344-.929,2.161,2.161,0,0,1,1.7.833l0.9-.865a3.1,3.1,0,0,0-2.561-1.152c-1.584,0-2.705.88-2.705,2.177a2.416,2.416,0,0,0,1.985,2.321l0.784,0.256c1.041,0.336,1.425.72,1.425,1.28a1.218,1.218,0,0,1-1.409,1.089,2.15,2.15,0,0,1-2.049-1.265l-1.12.608a3.178,3.178,0,0,0,3.137,1.857C411.4,175.031,412.565,174.215,412.565,172.646Zm2.654-.864c0,1.985,1.185,3.249,2.945,3.249a2.753,2.753,0,0,0,2.465-1.392v1.232h1.377v-8h-1.377v3.969c0,1.841-.976,2.93-2.225,2.93-1.1,0-1.808-.849-1.808-2.193v-4.706h-1.377v4.914Zm11.841-8.035a0.967,0.967,0,0,0-.961-0.977,0.994,0.994,0,0,0-.992.977,0.983,0.983,0,0,0,.992.976A0.957,0.957,0,0,0,427.06,163.747ZM425.4,174.871h1.377v-8H425.4v8Zm9.122-.112v-1.232a3.048,3.048,0,0,1-.977.16,1.153,1.153,0,0,1-1.328-1.361v-4.194h2.305v-1.264h-2.305v-2.225h-1.377v2.225h-1.7v1.264h1.7v4.37a2.253,2.253,0,0,0,2.449,2.449A3.835,3.835,0,0,0,434.517,174.759Zm8.926-11.012a0.966,0.966,0,0,0-.96-0.977,0.994,0.994,0,0,0-.992.977,0.983,0.983,0,0,0,.992.976A0.956,0.956,0,0,0,443.443,163.747Zm-1.664,11.124h1.376v-8h-1.376v8Zm9.97-2.225c0-1.2-.753-1.969-2.113-2.417l-0.865-.288c-0.944-.3-1.232-0.608-1.232-1.12a1.132,1.132,0,0,1,1.344-.929,2.16,2.16,0,0,1,1.7.833l0.9-.865a3.106,3.106,0,0,0-2.562-1.152c-1.584,0-2.705.88-2.705,2.177a2.417,2.417,0,0,0,1.985,2.321l0.785,0.256c1.04,0.336,1.424.72,1.424,1.28A1.218,1.218,0,0,1,449,173.831a2.148,2.148,0,0,1-2.049-1.265l-1.121.608a3.179,3.179,0,0,0,3.138,1.857C450.58,175.031,451.749,174.215,451.749,172.646Zm6.845-1.777a4.005,4.005,0,0,0,3.922,4.162,3.512,3.512,0,0,0,2.817-1.392v1.232h1.376v-12h-1.376V168.1a3.512,3.512,0,0,0-2.817-1.392A4.005,4.005,0,0,0,458.594,170.869Zm6.851,0a2.734,2.734,0,1,1-2.721-2.9A2.733,2.733,0,0,1,465.445,170.869Zm4.029,0a4.219,4.219,0,0,0,7.747,2.257l-1.089-.752a2.833,2.833,0,0,1-5.266-1.232h6.563a3.922,3.922,0,0,0,.016-0.417,3.729,3.729,0,0,0-3.81-4.017A4.056,4.056,0,0,0,469.474,170.869Zm4.113-2.945a2.4,2.4,0,0,1,2.449,2.1h-5.074A2.618,2.618,0,0,1,473.587,167.924Zm11.793,4.722c0-1.2-.752-1.969-2.113-2.417l-0.864-.288c-0.945-.3-1.233-0.608-1.233-1.12a1.133,1.133,0,0,1,1.345-.929,2.163,2.163,0,0,1,1.7.833l0.9-.865a3.1,3.1,0,0,0-2.561-1.152c-1.585,0-2.705.88-2.705,2.177a2.416,2.416,0,0,0,1.985,2.321l0.784,0.256c1.04,0.336,1.424.72,1.424,1.28a1.218,1.218,0,0,1-1.408,1.089,2.149,2.149,0,0,1-2.049-1.265l-1.12.608a3.177,3.177,0,0,0,3.137,1.857C484.212,175.031,485.38,174.215,485.38,172.646Zm4.43-8.9a0.966,0.966,0,0,0-.96-0.977,0.994,0.994,0,0,0-.992.977,0.983,0.983,0,0,0,.992.976A0.956,0.956,0,0,0,489.81,163.747Zm-1.664,11.124h1.376v-8h-1.376v8Zm12.243-.464v-7.539h-1.377V168.1a3.4,3.4,0,0,0-2.785-1.392,4.077,4.077,0,0,0,0,8.147,3.417,3.417,0,0,0,2.785-1.408v0.912a2.558,2.558,0,0,1-2.673,2.769,3.422,3.422,0,0,1-2.8-1.345l-0.96.961a4.751,4.751,0,0,0,3.777,1.633A3.705,3.705,0,0,0,500.389,174.407Zm-6.675-3.634a2.707,2.707,0,1,1,2.7,2.8A2.667,2.667,0,0,1,493.714,170.773Zm10.064,4.1h1.376V170.9c0-1.872,1.024-2.929,2.321-2.929a1.922,1.922,0,0,1,1.889,2.177v4.722h1.36v-4.93a2.949,2.949,0,0,0-3.025-3.233,2.831,2.831,0,0,0-2.545,1.392v-1.232h-1.376v8Zm9.6-4a4.219,4.219,0,0,0,7.747,2.257l-1.088-.752a2.833,2.833,0,0,1-5.266-1.232h6.562a3.922,3.922,0,0,0,.016-0.417,3.728,3.728,0,0,0-3.809-4.017A4.056,4.056,0,0,0,513.377,170.869Zm4.114-2.945a2.4,2.4,0,0,1,2.449,2.1h-5.074A2.616,2.616,0,0,1,517.491,167.924Zm5.982,2.945a4.005,4.005,0,0,0,3.922,4.162,3.51,3.51,0,0,0,2.817-1.392v1.232h1.376v-12h-1.376V168.1a3.51,3.51,0,0,0-2.817-1.392A4.005,4.005,0,0,0,523.473,170.869Zm6.851,0a2.734,2.734,0,1,1-2.721-2.9A2.733,2.733,0,0,1,530.324,170.869Zm9.821,4h1.377v-6.739h2.321v-1.264h-2.321V165.4a1.152,1.152,0,0,1,1.329-1.36,3.222,3.222,0,0,1,.992.16v-1.217a3.638,3.638,0,0,0-1.249-.208,2.286,2.286,0,0,0-2.449,2.481v1.617h-1.7v1.264h1.7v6.739Zm6,0h1.377V170.9c0-1.872,1.1-2.753,2.112-2.753a2.013,2.013,0,0,1,.753.128v-1.424a2.854,2.854,0,0,0-.625-0.064,2.38,2.38,0,0,0-2.24,1.632v-1.552h-1.377v8Zm14.1-4a4.186,4.186,0,1,0-4.177,4.162A4.107,4.107,0,0,0,560.244,170.869Zm-6.963,0a2.779,2.779,0,1,1,2.786,2.882A2.752,2.752,0,0,1,553.281,170.869Zm9.728,4h1.376V170.9c0-1.808.913-2.929,2.209-2.929,1.041,0,1.569.9,1.569,2.193v4.706h1.377V170.9c0-1.808.9-2.929,2.192-2.929,1.041,0,1.585.9,1.585,2.193v4.706h1.377v-4.914c0-1.953-1.057-3.249-2.8-3.249a2.771,2.771,0,0,0-2.625,1.712,2.515,2.515,0,0,0-2.465-1.712,2.692,2.692,0,0,0-2.417,1.392v-1.232h-1.376v8Zm23.729-.112v-1.232a3.041,3.041,0,0,1-.976.16,1.153,1.153,0,0,1-1.329-1.361v-4.194h2.305v-1.264h-2.305v-2.225h-1.376v2.225h-1.7v1.264h1.7v4.37a2.252,2.252,0,0,0,2.449,2.449A3.828,3.828,0,0,0,586.738,174.759Zm2.559,0.112h1.376V170.9c0-1.872,1.025-2.929,2.321-2.929a1.922,1.922,0,0,1,1.889,2.177v4.722h1.36v-4.93a2.949,2.949,0,0,0-3.025-3.233,2.831,2.831,0,0,0-2.545,1.392v-5.234H589.3v12Zm9.6-4a4.219,4.219,0,0,0,7.747,2.257l-1.088-.752a2.833,2.833,0,0,1-5.266-1.232h6.562a3.922,3.922,0,0,0,.016-0.417,3.728,3.728,0,0,0-3.809-4.017A4.056,4.056,0,0,0,598.9,170.869Zm4.114-2.945a2.4,2.4,0,0,1,2.449,2.1h-5.074A2.616,2.616,0,0,1,603.01,167.924Zm12.975-4.177a0.967,0.967,0,0,0-.961-0.977,0.994,0.994,0,0,0-.992.977,0.983,0.983,0,0,0,.992.976A0.957,0.957,0,0,0,615.985,163.747Zm-1.665,11.124H615.7v-8H614.32v8Zm4.784,0h1.377V170.9c0-1.872,1.024-2.929,2.32-2.929a1.921,1.921,0,0,1,1.889,2.177v4.722h1.361v-4.93a2.949,2.949,0,0,0-3.025-3.233,2.829,2.829,0,0,0-2.545,1.392v-1.232H619.1v8Zm15.41-2.225c0-1.2-.752-1.969-2.113-2.417l-0.864-.288c-0.945-.3-1.233-0.608-1.233-1.12a1.133,1.133,0,0,1,1.345-.929,2.159,2.159,0,0,1,1.7.833l0.9-.865a3.1,3.1,0,0,0-2.561-1.152c-1.585,0-2.705.88-2.705,2.177a2.416,2.416,0,0,0,1.984,2.321l0.785,0.256c1.04,0.336,1.424.72,1.424,1.28a1.218,1.218,0,0,1-1.408,1.089,2.148,2.148,0,0,1-2.049-1.265l-1.12.608a3.177,3.177,0,0,0,3.137,1.857C633.345,175.031,634.514,174.215,634.514,172.646Zm4.43-8.9a0.966,0.966,0,0,0-.96-0.977,0.994,0.994,0,0,0-.992.977,0.983,0.983,0,0,0,.992.976A0.956,0.956,0,0,0,638.944,163.747Zm-1.664,11.124h1.376v-8H637.28v8Zm4.159-4a4.005,4.005,0,0,0,3.922,4.162,3.51,3.51,0,0,0,2.817-1.392v1.232h1.377v-12h-1.377V168.1a3.51,3.51,0,0,0-2.817-1.392A4.005,4.005,0,0,0,641.439,170.869Zm6.851,0a2.734,2.734,0,1,1-2.721-2.9A2.733,2.733,0,0,1,648.29,170.869Zm4.029,0a4.219,4.219,0,0,0,7.747,2.257l-1.088-.752a2.833,2.833,0,0,1-5.266-1.232h6.562a3.922,3.922,0,0,0,.016-0.417,3.728,3.728,0,0,0-3.809-4.017A4.056,4.056,0,0,0,652.319,170.869Zm4.114-2.945a2.4,2.4,0,0,1,2.449,2.1h-5.074A2.616,2.616,0,0,1,656.433,167.924ZM38.364,190.869a4.186,4.186,0,1,0-4.178,4.162A4.107,4.107,0,0,0,38.364,190.869Zm-6.963,0a2.779,2.779,0,1,1,2.785,2.882A2.751,2.751,0,0,1,31.4,190.869Zm9.616,0.913c0,1.985,1.185,3.249,2.945,3.249a2.754,2.754,0,0,0,2.465-1.392v1.232H47.8v-8H46.427v3.969c0,1.841-.976,2.93-2.225,2.93-1.1,0-1.809-.849-1.809-2.193v-4.706H41.017v4.914Zm14.514,2.977v-1.232a3.044,3.044,0,0,1-.976.16,1.153,1.153,0,0,1-1.328-1.361v-4.194h2.3v-1.264h-2.3v-2.225H51.849v2.225h-1.7v1.264h1.7v4.37a2.253,2.253,0,0,0,2.449,2.449A3.831,3.831,0,0,0,55.531,194.759Zm4.271-.24a1.368,1.368,0,0,0,.224-0.72,1.185,1.185,0,1,0-2.369,0,1.191,1.191,0,0,0,.656,1.072L57.24,197.16h0.912Zm7.775-2.737c0,1.985,1.185,3.249,2.945,3.249a2.754,2.754,0,0,0,2.465-1.392v1.232h1.377v-8H72.987v3.969c0,1.841-.976,2.93-2.225,2.93-1.1,0-1.809-.849-1.809-2.193v-4.706H67.576v4.914Zm15.362,0.864c0-1.2-.752-1.969-2.113-2.417l-0.864-.288c-0.944-.3-1.232-0.608-1.232-1.12a1.133,1.133,0,0,1,1.344-.929,2.161,2.161,0,0,1,1.7.833l0.9-.865a3.1,3.1,0,0,0-2.561-1.152c-1.585,0-2.705.88-2.705,2.177a2.416,2.416,0,0,0,1.985,2.321l0.784,0.256c1.04,0.336,1.425.72,1.425,1.28a1.218,1.218,0,0,1-1.409,1.089,2.149,2.149,0,0,1-2.049-1.265l-1.12.608a3.178,3.178,0,0,0,3.137,1.857C81.77,195.031,82.939,194.215,82.939,192.646Zm4.43-8.9a0.967,0.967,0,0,0-.96-0.977,0.994,0.994,0,0,0-.992.977,0.984,0.984,0,0,0,.992.976A0.957,0.957,0,0,0,87.369,183.747ZM85.7,194.871h1.377v-8H85.7v8Zm4.784,0h1.377V190.9c0-1.872,1.024-2.929,2.321-2.929a1.921,1.921,0,0,1,1.889,2.177v4.722h1.361v-4.93a2.949,2.949,0,0,0-3.025-3.233,2.83,2.83,0,0,0-2.545,1.392v-1.232H90.488v8Zm17.683-.464v-7.539h-1.377V188.1a3.4,3.4,0,0,0-2.785-1.392,4.077,4.077,0,0,0,0,8.147,3.417,3.417,0,0,0,2.785-1.408v0.912a2.558,2.558,0,0,1-2.673,2.769,3.422,3.422,0,0,1-2.8-1.345l-0.96.961a4.752,4.752,0,0,0,3.777,1.633A3.705,3.705,0,0,0,108.171,194.407Zm-6.675-3.634a2.707,2.707,0,1,1,2.7,2.8A2.667,2.667,0,0,1,101.5,190.773Zm18.833,3.986v-1.232a3.041,3.041,0,0,1-.976.16,1.153,1.153,0,0,1-1.329-1.361v-4.194h2.3v-1.264h-2.3v-2.225h-1.376v2.225h-1.7v1.264h1.7v4.37a2.252,2.252,0,0,0,2.449,2.449A3.828,3.828,0,0,0,120.329,194.759Zm2.559,0.112h1.376V190.9c0-1.872,1.025-2.929,2.321-2.929a1.921,1.921,0,0,1,1.889,2.177v4.722h1.36v-4.93a2.949,2.949,0,0,0-3.025-3.233,2.831,2.831,0,0,0-2.545,1.392v-5.234h-1.376v12Zm9.6-4a4.219,4.219,0,0,0,7.747,2.257l-1.088-.752a2.833,2.833,0,0,1-5.266-1.232h6.562a3.922,3.922,0,0,0,.016-0.417,3.728,3.728,0,0,0-3.809-4.017A4.056,4.056,0,0,0,132.487,190.869Zm4.114-2.945a2.4,2.4,0,0,1,2.449,2.1h-5.074A2.616,2.616,0,0,1,136.6,187.924Zm11.775,6.947h1.376v-6.739h2.321v-1.264h-2.321V185.4a1.152,1.152,0,0,1,1.329-1.36,3.222,3.222,0,0,1,.992.16v-1.217a3.636,3.636,0,0,0-1.248-.208,2.286,2.286,0,0,0-2.449,2.481v1.617h-1.7v1.264h1.7v6.739Zm6.866-11.124a0.966,0.966,0,0,0-.96-0.977,0.994,0.994,0,0,0-.992.977,0.983,0.983,0,0,0,.992.976A0.956,0.956,0,0,0,155.242,183.747Zm-1.664,11.124h1.376v-8h-1.376v8Zm4.765,0h1.377V190.9c0-1.872,1.024-2.929,2.321-2.929a1.921,1.921,0,0,1,1.888,2.177v4.722h1.361v-4.93a2.949,2.949,0,0,0-3.025-3.233,2.829,2.829,0,0,0-2.545,1.392v-1.232h-1.377v8Zm9.6-4a4.219,4.219,0,0,0,7.747,2.257l-1.089-.752a2.833,2.833,0,0,1-5.266-1.232H175.9a3.922,3.922,0,0,0,.016-0.417,3.729,3.729,0,0,0-3.81-4.017A4.055,4.055,0,0,0,167.943,190.869Zm4.113-2.945a2.4,2.4,0,0,1,2.449,2.1h-5.074A2.617,2.617,0,0,1,172.056,187.924Zm11.793,4.722c0-1.2-.752-1.969-2.113-2.417l-0.864-.288c-0.945-.3-1.233-0.608-1.233-1.12a1.133,1.133,0,0,1,1.345-.929,2.163,2.163,0,0,1,1.7.833l0.9-.865a3.1,3.1,0,0,0-2.561-1.152c-1.585,0-2.7.88-2.7,2.177a2.416,2.416,0,0,0,1.985,2.321l0.784,0.256c1.04,0.336,1.424.72,1.424,1.28a1.218,1.218,0,0,1-1.408,1.089,2.149,2.149,0,0,1-2.049-1.265l-1.12.608a3.177,3.177,0,0,0,3.137,1.857C182.681,195.031,183.849,194.215,183.849,192.646Zm7.008,2.113v-1.232a3.052,3.052,0,0,1-.977.16,1.153,1.153,0,0,1-1.328-1.361v-4.194h2.305v-1.264h-2.305v-2.225h-1.377v2.225h-1.7v1.264h1.7v4.37a2.253,2.253,0,0,0,2.449,2.449A3.84,3.84,0,0,0,190.857,194.759Zm7.726,0.112h1.377v-6.739h2.321v-1.264H199.96V185.4a1.152,1.152,0,0,1,1.328-1.36,3.233,3.233,0,0,1,.993.16v-1.217a3.646,3.646,0,0,0-1.249-.208,2.286,2.286,0,0,0-2.449,2.481v1.617h-1.7v1.264h1.7v6.739Zm5.168-4a4,4,0,0,0,3.921,4.162,3.509,3.509,0,0,0,2.817-1.392v1.232h1.377v-8h-1.377V188.1a3.509,3.509,0,0,0-2.817-1.392A4,4,0,0,0,203.751,190.869Zm6.85,0a2.734,2.734,0,1,1-2.721-2.9A2.733,2.733,0,0,1,210.6,190.869Zm6.03,2.77a3.51,3.51,0,0,0,2.817,1.392,4.169,4.169,0,0,0,0-8.323,3.51,3.51,0,0,0-2.817,1.392v-5.234h-1.376v12h1.376v-1.232Zm5.33-2.77a2.726,2.726,0,1,1-2.721-2.9A2.733,2.733,0,0,1,221.961,190.869Zm4.174,4h1.376V190.9c0-1.872,1.105-2.753,2.113-2.753a2.011,2.011,0,0,1,.752.128v-1.424a2.851,2.851,0,0,0-.624-0.064,2.381,2.381,0,0,0-2.241,1.632v-1.552h-1.376v8Zm8.32-11.124a0.966,0.966,0,0,0-.96-0.977,1,1,0,0,0-.993.977,0.984,0.984,0,0,0,.993.976A0.956,0.956,0,0,0,234.455,183.747Zm-1.664,11.124h1.376v-8h-1.376v8Zm12.05-1.985-1.2-.672a2.714,2.714,0,0,1-2.5,1.537,2.883,2.883,0,0,1,0-5.763,2.714,2.714,0,0,1,2.5,1.537l1.2-.672A4.162,4.162,0,1,0,244.841,192.886Zm7.759-.24c0-1.2-.752-1.969-2.113-2.417l-0.864-.288c-0.944-.3-1.232-0.608-1.232-1.12a1.132,1.132,0,0,1,1.344-.929,2.161,2.161,0,0,1,1.7.833l0.9-.865a3.1,3.1,0,0,0-2.561-1.152c-1.584,0-2.7.88-2.7,2.177a2.416,2.416,0,0,0,1.985,2.321l0.784,0.256c1.041,0.336,1.425.72,1.425,1.28a1.219,1.219,0,0,1-1.409,1.089,2.149,2.149,0,0,1-2.049-1.265l-1.12.608a3.178,3.178,0,0,0,3.137,1.857C251.432,195.031,252.6,194.215,252.6,192.646Zm4.479,1.873a1.368,1.368,0,0,0,.224-0.72,1.185,1.185,0,1,0-2.369,0,1.191,1.191,0,0,0,.656,1.072l-1.072,2.289h0.912Zm9.263-.88a3.512,3.512,0,0,0,2.817,1.392,4.169,4.169,0,0,0,0-8.323,3.512,3.512,0,0,0-2.817,1.392v-5.234h-1.376v12h1.376v-1.232Zm5.331-2.77a2.727,2.727,0,1,1-2.722-2.9A2.734,2.734,0,0,1,271.673,190.869Zm3.548,0a4.219,4.219,0,0,0,7.747,2.257l-1.088-.752a2.833,2.833,0,0,1-5.266-1.232h6.563a3.922,3.922,0,0,0,.016-0.417,3.729,3.729,0,0,0-3.81-4.017A4.056,4.056,0,0,0,275.221,190.869Zm4.114-2.945a2.4,2.4,0,0,1,2.449,2.1H276.71A2.617,2.617,0,0,1,279.335,187.924Zm11.793,4.722c0-1.2-.753-1.969-2.113-2.417l-0.865-.288c-0.944-.3-1.232-0.608-1.232-1.12a1.132,1.132,0,0,1,1.344-.929,2.16,2.16,0,0,1,1.7.833l0.9-.865a3.1,3.1,0,0,0-2.561-1.152c-1.584,0-2.7.88-2.7,2.177a2.417,2.417,0,0,0,1.985,2.321l0.784,0.256c1.041,0.336,1.425.72,1.425,1.28a1.218,1.218,0,0,1-1.408,1.089,2.148,2.148,0,0,1-2.049-1.265l-1.121.608a3.178,3.178,0,0,0,3.137,1.857C289.959,195.031,291.128,194.215,291.128,192.646Zm7.007,2.113v-1.232a3.041,3.041,0,0,1-.976.16,1.153,1.153,0,0,1-1.329-1.361v-4.194h2.305v-1.264H295.83v-2.225h-1.376v2.225h-1.7v1.264h1.7v4.37a2.252,2.252,0,0,0,2.449,2.449A3.828,3.828,0,0,0,298.135,194.759Zm7.727,0.112h1.376v-6.739h2.321v-1.264h-2.321V185.4a1.152,1.152,0,0,1,1.329-1.36,3.222,3.222,0,0,1,.992.16v-1.217a3.636,3.636,0,0,0-1.248-.208,2.286,2.286,0,0,0-2.449,2.481v1.617h-1.7v1.264h1.7v6.739Zm6.866-11.124a0.966,0.966,0,0,0-.96-0.977,0.994,0.994,0,0,0-.992.977,0.983,0.983,0,0,0,.992.976A0.956,0.956,0,0,0,312.728,183.747Zm-1.664,11.124h1.376v-8h-1.376v8Zm9.1-.112v-1.232a3.041,3.041,0,0,1-.976.16,1.153,1.153,0,0,1-1.329-1.361v-4.194h2.3v-1.264h-2.3v-2.225h-1.376v2.225h-1.7v1.264h1.7v4.37a2.252,2.252,0,0,0,2.449,2.449A3.828,3.828,0,0,0,320.167,194.759Zm7.744-2.113c0-1.2-.752-1.969-2.113-2.417l-0.864-.288c-0.944-.3-1.232-0.608-1.232-1.12a1.132,1.132,0,0,1,1.344-.929,2.161,2.161,0,0,1,1.7.833l0.9-.865a3.1,3.1,0,0,0-2.561-1.152c-1.585,0-2.7.88-2.7,2.177a2.416,2.416,0,0,0,1.985,2.321l0.784,0.256c1.041,0.336,1.425.72,1.425,1.28a1.219,1.219,0,0,1-1.409,1.089,2.149,2.149,0,0,1-2.049-1.265l-1.12.608a3.178,3.178,0,0,0,3.137,1.857C326.743,195.031,327.911,194.215,327.911,192.646Zm6.846-1.777a4,4,0,0,0,3.921,4.162,3.509,3.509,0,0,0,2.817-1.392v1.232h1.377v-8H341.5V188.1a3.509,3.509,0,0,0-2.817-1.392A4,4,0,0,0,334.757,190.869Zm6.85,0a2.734,2.734,0,1,1-2.721-2.9A2.733,2.733,0,0,1,341.607,190.869Zm4.654,4h1.376V190.9c0-1.872,1.025-2.929,2.321-2.929a1.921,1.921,0,0,1,1.889,2.177v4.722h1.361v-4.93a2.95,2.95,0,0,0-3.026-3.233,2.831,2.831,0,0,0-2.545,1.392v-1.232h-1.376v8Zm9.6-4a4.005,4.005,0,0,0,3.922,4.162,3.51,3.51,0,0,0,2.817-1.392v1.232h1.377v-12H362.6V188.1a3.51,3.51,0,0,0-2.817-1.392A4.005,4.005,0,0,0,355.86,190.869Zm6.851,0a2.734,2.734,0,1,1-2.721-2.9A2.733,2.733,0,0,1,362.711,190.869Zm10.734,2.77a3.509,3.509,0,0,0,2.817,1.392,4.169,4.169,0,0,0,0-8.323,3.509,3.509,0,0,0-2.817,1.392v-5.234h-1.377v12h1.377v-1.232Zm5.33-2.77a2.726,2.726,0,1,1-2.721-2.9A2.733,2.733,0,0,1,378.775,190.869Zm3.549,0a4.219,4.219,0,0,0,7.747,2.257l-1.089-.752a2.833,2.833,0,0,1-5.266-1.232h6.563a3.922,3.922,0,0,0,.016-0.417,3.729,3.729,0,0,0-3.81-4.017A4.055,4.055,0,0,0,382.324,190.869Zm4.113-2.945a2.4,2.4,0,0,1,2.449,2.1h-5.074A2.617,2.617,0,0,1,386.437,187.924Zm11.793,4.722c0-1.2-.752-1.969-2.113-2.417l-0.864-.288c-0.945-.3-1.233-0.608-1.233-1.12a1.133,1.133,0,0,1,1.345-.929,2.163,2.163,0,0,1,1.7.833l0.9-.865a3.1,3.1,0,0,0-2.561-1.152c-1.585,0-2.7.88-2.7,2.177a2.416,2.416,0,0,0,1.985,2.321l0.784,0.256c1.04,0.336,1.424.72,1.424,1.28a1.218,1.218,0,0,1-1.408,1.089,2.149,2.149,0,0,1-2.049-1.265l-1.12.608a3.177,3.177,0,0,0,3.137,1.857C397.062,195.031,398.23,194.215,398.23,192.646Zm2.766,5.57h1.376v-4.577a3.512,3.512,0,0,0,2.817,1.392,4.169,4.169,0,0,0,0-8.323,3.512,3.512,0,0,0-2.817,1.392v-1.232H401v11.348Zm6.706-7.347a2.726,2.726,0,1,1-2.721-2.9A2.733,2.733,0,0,1,407.7,190.869Zm11.921,0a4.186,4.186,0,1,0-4.178,4.162A4.107,4.107,0,0,0,419.623,190.869Zm-6.963,0a2.779,2.779,0,1,1,2.785,2.882A2.751,2.751,0,0,1,412.66,190.869Zm9.728,4h1.376v-4l4.338,4h1.857l-4.818-4.466,3.937-3.537h-1.824l-3.49,3.121v-7.123h-1.376v12Zm8.287-4a4.219,4.219,0,0,0,7.747,2.257l-1.088-.752a2.833,2.833,0,0,1-5.266-1.232h6.562a3.922,3.922,0,0,0,.016-0.417,3.728,3.728,0,0,0-3.809-4.017A4.056,4.056,0,0,0,430.675,190.869Zm4.114-2.945a2.4,2.4,0,0,1,2.449,2.1h-5.074A2.616,2.616,0,0,1,434.789,187.924Zm6.35,3.154h4.082V189.7h-4.082v1.377Zm7.232,3.793h1.377v-12h-1.377v12Zm6.449-11.124a0.967,0.967,0,0,0-.961-0.977,0.994,0.994,0,0,0-.992.977,0.983,0.983,0,0,0,.992.976A0.957,0.957,0,0,0,454.82,183.747Zm-1.665,11.124h1.376v-8h-1.376v8Zm4.784,0h1.376v-4l4.338,4h1.857l-4.818-4.466,3.937-3.537h-1.824l-3.49,3.121v-7.123h-1.376v12Zm8.287-4a4.219,4.219,0,0,0,7.747,2.257l-1.088-.752a2.833,2.833,0,0,1-5.266-1.232h6.563a3.922,3.922,0,0,0,.016-0.417,3.729,3.729,0,0,0-3.81-4.017A4.056,4.056,0,0,0,466.226,190.869Zm4.114-2.945a2.4,2.4,0,0,1,2.449,2.1h-5.074A2.617,2.617,0,0,1,470.34,187.924Zm10.686,2.945a4.005,4.005,0,0,0,3.922,4.162,3.51,3.51,0,0,0,2.817-1.392v1.232h1.376v-12h-1.376V188.1a3.51,3.51,0,0,0-2.817-1.392A4.005,4.005,0,0,0,481.026,190.869Zm6.851,0a2.734,2.734,0,1,1-2.721-2.9A2.733,2.733,0,0,1,487.877,190.869Zm4.029,0a4.219,4.219,0,0,0,7.747,2.257l-1.088-.752a2.834,2.834,0,0,1-5.267-1.232h6.563a3.922,3.922,0,0,0,.016-0.417,3.729,3.729,0,0,0-3.809-4.017A4.056,4.056,0,0,0,491.906,190.869Zm4.114-2.945a2.4,2.4,0,0,1,2.449,2.1h-5.075A2.618,2.618,0,0,1,496.02,187.924Zm10.832,6.835v-1.232a3.041,3.041,0,0,1-.976.16,1.153,1.153,0,0,1-1.329-1.361v-4.194h2.3v-1.264h-2.3v-2.225H503.17v2.225h-1.7v1.264h1.7v4.37a2.253,2.253,0,0,0,2.449,2.449A3.83,3.83,0,0,0,506.852,194.759Zm1.822-3.89a4.005,4.005,0,0,0,3.922,4.162,3.51,3.51,0,0,0,2.817-1.392v1.232h1.376v-8h-1.376V188.1a3.51,3.51,0,0,0-2.817-1.392A4.005,4.005,0,0,0,508.674,190.869Zm6.851,0a2.734,2.734,0,1,1-2.721-2.9A2.733,2.733,0,0,1,515.525,190.869Zm6.318-7.122a0.967,0.967,0,0,0-.961-0.977,0.994,0.994,0,0,0-.992.977,0.983,0.983,0,0,0,.992.976A0.957,0.957,0,0,0,521.843,183.747Zm-1.665,11.124h1.377v-8h-1.377v8Zm4.784,0h1.377v-12h-1.377v12Zm9.97-2.225c0-1.2-.752-1.969-2.113-2.417l-0.864-.288c-0.945-.3-1.233-0.608-1.233-1.12a1.133,1.133,0,0,1,1.345-.929,2.163,2.163,0,0,1,1.7.833l0.9-.865a3.1,3.1,0,0,0-2.561-1.152c-1.585,0-2.705.88-2.705,2.177a2.416,2.416,0,0,0,1.985,2.321l0.784,0.256c1.04,0.336,1.424.72,1.424,1.28a1.218,1.218,0,0,1-1.408,1.089,2.149,2.149,0,0,1-2.049-1.265l-1.12.608a3.177,3.177,0,0,0,3.137,1.857C533.764,195.031,534.932,194.215,534.932,192.646ZM539.6,193.8a1.185,1.185,0,1,0-1.185,1.2A1.207,1.207,0,0,0,539.6,193.8Z"/>
</svg>
