<svg id="copy_copy_2" data-name="copy copy 2" xmlns="http://www.w3.org/2000/svg" width="720" height="261" viewBox="0 0 720 261">
  <defs>
    <style>
      .cls-1 {
        fill: #fff;
      }

      .cls-1, .cls-2 {
        fill-rule: evenodd;
      }
    </style>
  </defs>
  <path id="Rectangle_106_copy_5" data-name="Rectangle 106 copy 5" class="cls-1" d="M0,0H719.813l0.171,261H0.172Z"/>
  <g id="CTA_underline">
    <rect x="30" y="208" width="90" height="3"/>
    <path id="SHOP_now" data-name="SHOP now" class="cls-2" d="M33.395,203.2a3.12,3.12,0,0,0,3.422-3.065,3.049,3.049,0,0,0-2.277-2.967l-0.674-.252c-1.011-.378-1.482-0.616-1.482-1.148a0.984,0.984,0,0,1,1.159-.756,2.1,2.1,0,0,1,1.657.826l1.4-1.54a3.923,3.923,0,0,0-3.085-1.371,3,3,0,0,0-3.3,3.065c0,1.358.862,2.323,2.412,2.869L33.3,199.1c0.957,0.336,1.334.686,1.334,1.19a0.977,0.977,0,0,1-1.159.826,2.48,2.48,0,0,1-1.981-1.134l-1.644,1.442A4.141,4.141,0,0,0,33.395,203.2Zm7.332-.168h2.142V199.1h3.853v3.933h2.142V193.1H46.723v3.891H42.869V193.1H40.727v9.937ZM57.72,203.2a5.14,5.14,0,1,0-4.945-5.136A5.055,5.055,0,0,0,57.72,203.2Zm0-2.155a2.989,2.989,0,1,1,2.776-2.981A2.9,2.9,0,0,1,57.72,201.049ZM73.191,196.5a3.319,3.319,0,0,0-3.368-3.4H66.575v9.937h2.142v-3.149h1.1A3.308,3.308,0,0,0,73.191,196.5Zm-2.075,0a1.282,1.282,0,0,1-1.32,1.3H68.717v-2.6H69.8A1.274,1.274,0,0,1,71.116,196.5Zm19.54,6.536V193.1H88.5v6.13l-4.648-6.13H82.006v9.937h2.142v-6.144l4.662,6.144h1.846Zm8.855,0.168a5.14,5.14,0,1,0-4.945-5.136A5.056,5.056,0,0,0,99.511,203.2Zm0-2.155a2.989,2.989,0,1,1,2.775-2.981A2.9,2.9,0,0,1,99.511,201.049Zm16.265,1.987h2.035l2.223-9.937h-2.29l-1.307,6.3-2.695-6.466-2.681,6.466-1.307-6.3h-2.291l2.21,9.937h2.034l2.035-4.87Z"/>
  </g>
  <path id="Italian_Moleskin_Trucker_Jacket_Italian_moleskin_b._2018_Thi" data-name="Italian Moleskin Trucker Jacket  Italian moleskin, b. 2018  Thi" class="cls-2" d="M31.586,50.871h4.77v-21.3h-4.77v21.3Zm14.61,0H51V34.132h5.49v-4.56H40.766v4.56H46.2V50.871Zm10.26,0h4.98l1.89-4.5h8.82l1.89,4.5h4.98l-9.12-21.3h-4.32Zm8.61-8.64,2.67-6.42,2.67,6.42h-5.34Zm17.67,8.64H96.326v-4.56h-8.82V29.572h-4.77v21.3Zm18.06,0h4.77v-21.3H100.8v21.3Zm8.49,0h4.979l1.89-4.5h8.82l1.89,4.5h4.98l-9.12-21.3h-4.32Zm8.609-8.64,2.67-6.42,2.67,6.42H117.9Zm36.93,8.64v-21.3h-4.8V42.711l-10.35-13.139h-4.109v21.3h4.769V37.7l10.38,13.17h4.11Zm25.109-4.53,6.21-8.61V50.871h4.8v-21.3h-4.35l-6.66,9.18-6.659-9.18h-4.35v21.3h4.77V37.732Zm26.82,4.89a11.01,11.01,0,1,0-11.009-11.01A11.036,11.036,0,0,0,206.754,51.231Zm0-4.62a6.393,6.393,0,1,1,6.18-6.39A6.32,6.32,0,0,1,206.754,46.611Zm15.81,4.26h13.589v-4.56h-8.819V29.572h-4.77v21.3Zm18.06,0h13.5v-4.56h-8.73V42.5h6.93v-4.56h-6.93v-3.81h8.73v-4.56h-13.5v21.3Zm24.989,0.36c4.5,0,7.59-2.7,7.62-6.57,0.03-3.21-1.98-5.25-5.07-6.36l-1.5-.54c-2.25-.81-3.3-1.32-3.3-2.46,0-1.11,1.29-1.62,2.58-1.62a4.738,4.738,0,0,1,3.69,1.77l3.12-3.3a8.888,8.888,0,0,0-6.87-2.94c-4.259,0-7.349,2.43-7.349,6.57,0,2.91,1.92,4.98,5.369,6.15l1.5,0.51c2.13,0.72,2.97,1.47,2.97,2.55,0,1.02-.99,1.77-2.58,1.77a5.569,5.569,0,0,1-4.409-2.43l-3.66,3.09A9.34,9.34,0,0,0,265.613,51.231Zm12.42-.36h4.74v-9.54l8.67,9.54h6.119L287.453,39.8l8.4-10.229H290l-7.23,8.91v-8.91h-4.74v21.3Zm22.5,0h4.77v-21.3h-4.77v21.3Zm30.029,0v-21.3h-4.8V42.711L315.413,29.572H311.3v21.3h4.77V37.7l10.379,13.17h4.11Zm17.07,0h4.8V34.132h5.49v-4.56H342.2v4.56h5.429V50.871Zm14.7,0h4.77v-8.79h0.78l7.08,8.79h5.73l-7.53-9.39c2.7-.96,4.17-2.73,4.17-5.49a6.288,6.288,0,0,0-6.6-6.42h-8.4v21.3Zm4.77-12.84v-4.08h3.06c1.41,0,2.43.75,2.43,2.04a2.156,2.156,0,0,1-2.43,2.04H367.1Zm24.72,13.2a8.354,8.354,0,0,0,8.76-8.79V29.572h-4.77V42.5a3.992,3.992,0,1,1-7.98,0V29.572h-4.77V42.441A8.338,8.338,0,0,0,391.822,51.231Zm24.33,0a11.01,11.01,0,0,0,9.959-5.82l-4.2-2.28a6.39,6.39,0,1,1,0-5.82l4.2-2.28A11.1,11.1,0,1,0,416.152,51.231Zm14.25-.36h4.74v-9.54l8.669,9.54h6.12L439.822,39.8l8.4-10.229h-5.85l-7.229,8.91v-8.91H430.4v21.3Zm22.5,0h13.5v-4.56h-8.729V42.5H464.6v-4.56h-6.929v-3.81H466.4v-4.56H452.9v21.3Zm18.63,0h4.77v-8.79h0.78l7.079,8.79h5.73l-7.53-9.39c2.7-.96,4.17-2.73,4.17-5.49a6.288,6.288,0,0,0-6.6-6.42h-8.4v21.3Zm4.77-12.84v-4.08h3.06c1.409,0,2.429.75,2.429,2.04a2.156,2.156,0,0,1-2.429,2.04H476.3Zm28.56,13.2c3.659,0,6.959-1.83,6.959-6.18V29.572h-4.77V44.751a2.192,2.192,0,0,1-4.379-.12h-4.71C497.962,49.251,501.292,51.231,504.862,51.231Zm10.05-.36h4.98l1.889-4.5h8.82l1.89,4.5h4.98l-9.12-21.3h-4.32Zm8.609-8.64,2.67-6.42,2.67,6.42h-5.34Zm26.52,9a11.01,11.01,0,0,0,9.96-5.82l-4.2-2.28a6.39,6.39,0,1,1,0-5.82l4.2-2.28A11.1,11.1,0,1,0,550.041,51.231Zm14.251-.36h4.739v-9.54l8.67,9.54h6.12L573.711,39.8l8.4-10.229h-5.85l-7.23,8.91v-8.91h-4.739v21.3Zm22.5,0h13.5v-4.56h-8.73V42.5h6.93v-4.56h-6.93v-3.81h8.73v-4.56h-13.5v21.3Zm22.469,0h4.8V34.132h5.49v-4.56H603.832v4.56h5.429V50.871Zm-578.232,28H32.7V66.087H31.029V78.871Zm10.585-.126V77.359a3.421,3.421,0,0,1-1.1.18,1.3,1.3,0,0,1-1.494-1.531V71.291h2.593V69.868H39.022v-2.5H37.473v2.5H35.565v1.422h1.909v4.915a2.534,2.534,0,0,0,2.755,2.755A4.31,4.31,0,0,0,41.614,78.745Zm2.05-4.375a4.5,4.5,0,0,0,4.411,4.681,3.948,3.948,0,0,0,3.169-1.566v1.386h1.548v-9H51.245v1.386a3.948,3.948,0,0,0-3.169-1.566A4.5,4.5,0,0,0,43.665,74.37Zm7.706,0a3.075,3.075,0,1,1-3.061-3.259A3.074,3.074,0,0,1,51.371,74.37Zm5.236,4.5h1.548v-13.5H56.607v13.5Zm7.254-12.514a1.087,1.087,0,0,0-1.08-1.1,1.118,1.118,0,0,0-1.116,1.1,1.107,1.107,0,0,0,1.116,1.1A1.076,1.076,0,0,0,63.861,66.357ZM61.989,78.871h1.548v-9H61.989v9Zm4.68-4.5a4.5,4.5,0,0,0,4.411,4.681,3.948,3.948,0,0,0,3.169-1.566v1.386H75.8v-9H74.249v1.386a3.948,3.948,0,0,0-3.169-1.566A4.5,4.5,0,0,0,66.668,74.37Zm7.706,0a3.075,3.075,0,1,1-3.061-3.259A3.074,3.074,0,0,1,74.375,74.37Zm5.236,4.5h1.549V74.406c0-2.107,1.152-3.3,2.611-3.3a2.161,2.161,0,0,1,2.125,2.449v5.312h1.531V73.325a3.318,3.318,0,0,0-3.4-3.637,3.184,3.184,0,0,0-2.863,1.566V69.868H79.61v9Zm16.794,0h1.549V74.406c0-2.035,1.026-3.3,2.484-3.3,1.171,0,1.765,1.008,1.765,2.467v5.294h1.548V74.406c0-2.035,1.009-3.3,2.467-3.3,1.17,0,1.782,1.008,1.782,2.467v5.294h1.549V73.343c0-2.2-1.188-3.655-3.151-3.655a3.116,3.116,0,0,0-2.953,1.927,2.83,2.83,0,0,0-2.773-1.927,3.026,3.026,0,0,0-2.719,1.566V69.868H96.4v9Zm25.527-4.5a4.709,4.709,0,1,0-4.7,4.681A4.62,4.62,0,0,0,121.931,74.37Zm-7.833,0a3.126,3.126,0,1,1,3.133,3.241A3.095,3.095,0,0,1,114.1,74.37Zm10.944,4.5h1.548v-13.5h-1.548v13.5Zm4.679-4.5a4.746,4.746,0,0,0,8.715,2.539l-1.224-.846a3.188,3.188,0,0,1-5.924-1.386h7.382a4.393,4.393,0,0,0,.018-0.468,4.2,4.2,0,0,0-4.285-4.519A4.562,4.562,0,0,0,129.721,74.37Zm4.628-3.313a2.694,2.694,0,0,1,2.755,2.359H131.4A2.943,2.943,0,0,1,134.349,71.057Zm13.266,5.312c0-1.35-.846-2.215-2.377-2.719l-0.972-.324c-1.062-.342-1.386-0.684-1.386-1.26a1.274,1.274,0,0,1,1.512-1.044,2.433,2.433,0,0,1,1.909.936l1.008-.972a3.491,3.491,0,0,0-2.881-1.3c-1.782,0-3.043.99-3.043,2.449a2.718,2.718,0,0,0,2.233,2.611l0.882,0.288c1.171,0.378,1.6.81,1.6,1.441a1.371,1.371,0,0,1-1.585,1.224,2.415,2.415,0,0,1-2.3-1.422l-1.261.684a3.576,3.576,0,0,0,3.529,2.089C146.3,79.051,147.615,78.133,147.615,76.368Zm3.112,2.5h1.549v-4.5l4.879,4.5h2.089l-5.42-5.023,4.43-3.979H156.2l-3.925,3.511V65.367h-1.549v13.5ZM163.2,66.357a1.088,1.088,0,0,0-1.081-1.1,1.118,1.118,0,0,0-1.116,1.1,1.106,1.106,0,0,0,1.116,1.1A1.077,1.077,0,0,0,163.2,66.357Zm-1.873,12.514h1.549v-9h-1.549v9Zm5.382,0h1.548V74.406c0-2.107,1.153-3.3,2.611-3.3A2.161,2.161,0,0,1,173,73.56v5.312h1.53V73.325a3.318,3.318,0,0,0-3.4-3.637,3.185,3.185,0,0,0-2.863,1.566V69.868h-1.548v9Zm13.428-.4a1.54,1.54,0,0,0,.252-0.81,1.332,1.332,0,1,0-2.664,0,1.34,1.34,0,0,0,.738,1.206l-1.207,2.575h1.027Zm10.422-.99a3.947,3.947,0,0,0,3.169,1.566,4.69,4.69,0,0,0,0-9.363,3.947,3.947,0,0,0-3.169,1.566V65.367h-1.549v13.5h1.549V77.485Zm6-3.115a3.067,3.067,0,1,1-3.061-3.259A3.074,3.074,0,0,1,196.557,74.37Zm6.658,3.295a1.333,1.333,0,1,0-1.332,1.35A1.356,1.356,0,0,0,203.215,77.665Zm16.291-.288h-6.373c0.306-1.476,1.8-2.215,3.277-3.295,2.088-1.513,2.952-2.593,2.952-4.465a3.63,3.63,0,0,0-3.943-3.745,3.973,3.973,0,0,0-4.213,4.033h1.584a2.469,2.469,0,0,1,2.647-2.521,2.162,2.162,0,0,1,2.341,2.215c0,1.495-.792,2.161-2.269,3.259-1.89,1.4-4.285,2.665-4.285,5.4v0.612h8.282V77.377Zm11.917-3.133V70.679a4.537,4.537,0,1,0-9.057,0v3.565A4.537,4.537,0,1,0,231.423,74.244Zm-7.509,0V70.679c0-2.071,1.243-3.295,2.971-3.295,1.747,0,2.989,1.224,2.989,3.295v3.565c0,2.071-1.242,3.3-2.989,3.3C225.157,77.539,223.914,76.314,223.914,74.244Zm12.06,4.627h1.549V66.087h-2.755l-1.261,1.53h2.467V78.871Zm13.574-3.835a3.572,3.572,0,0,0-2-3.349,2.994,2.994,0,0,0,1.3-2.521,3.318,3.318,0,0,0-3.583-3.3,3.364,3.364,0,0,0-3.6,3.3,2.981,2.981,0,0,0,1.332,2.521,3.572,3.572,0,0,0-2.034,3.349A4.3,4.3,0,0,0,249.548,75.036ZM243.192,69.2a1.9,1.9,0,0,1,2.071-1.873,1.868,1.868,0,0,1,2.053,1.873,1.911,1.911,0,0,1-2.053,1.891A1.949,1.949,0,0,1,243.192,69.2Zm-0.666,5.834a2.538,2.538,0,0,1,2.737-2.557,2.553,2.553,0,1,1,0,5.1A2.544,2.544,0,0,1,242.526,75.036ZM33.146,118.871H34.6v-9.956H38.14v-1.408H29.609v1.408h3.537v9.956Zm7.247,0H41.77V114.9c0-1.872,1.024-2.929,2.321-2.929a1.921,1.921,0,0,1,1.889,2.177v4.722h1.36v-4.93a2.949,2.949,0,0,0-3.025-3.233A2.83,2.83,0,0,0,41.77,112.1v-5.234H40.393v12Zm11.889-11.124a0.967,0.967,0,0,0-.96-0.977,0.994,0.994,0,0,0-.992.977,0.984,0.984,0,0,0,.992.976A0.957,0.957,0,0,0,52.282,107.747Zm-1.665,11.124h1.377v-8H50.617v8Zm9.97-2.225c0-1.2-.752-1.969-2.113-2.417l-0.864-.288c-0.944-.3-1.233-0.608-1.233-1.12a1.133,1.133,0,0,1,1.345-.929,2.16,2.16,0,0,1,1.7.833l0.9-.865a3.1,3.1,0,0,0-2.561-1.152c-1.585,0-2.705.88-2.705,2.177a2.416,2.416,0,0,0,1.985,2.321l0.784,0.256c1.04,0.336,1.425.72,1.425,1.28a1.218,1.218,0,0,1-1.409,1.089,2.149,2.149,0,0,1-2.049-1.265l-1.12.608a3.178,3.178,0,0,0,3.137,1.857C59.418,119.031,60.587,118.215,60.587,116.646Zm9.134-8.9a0.967,0.967,0,0,0-.96-0.977,0.994,0.994,0,0,0-.992.977,0.984,0.984,0,0,0,.992.976A0.956,0.956,0,0,0,69.721,107.747Zm-1.665,11.124h1.377v-8H68.056v8Zm12.051-1.985-1.2-.672a2.714,2.714,0,0,1-2.5,1.537,2.883,2.883,0,0,1,0-5.763,2.714,2.714,0,0,1,2.5,1.537l1.2-.672a4.144,4.144,0,0,0-3.7-2.145,4.162,4.162,0,1,0,0,8.323A4.144,4.144,0,0,0,80.107,116.886Zm10.3-2.017a4.186,4.186,0,1,0-4.178,4.162A4.107,4.107,0,0,0,90.411,114.869Zm-6.963,0a2.779,2.779,0,1,1,2.785,2.882A2.751,2.751,0,0,1,83.448,114.869Zm9.727,4h1.377V114.9c0-1.872,1.024-2.929,2.321-2.929a1.921,1.921,0,0,1,1.889,2.177v4.722h1.361v-4.93a2.949,2.949,0,0,0-3.026-3.233,2.83,2.83,0,0,0-2.545,1.392v-1.232H93.176v8Zm11.888-11.124a0.966,0.966,0,0,0-.96-0.977,0.994,0.994,0,0,0-.992.977,0.983,0.983,0,0,0,.992.976A0.956,0.956,0,0,0,105.064,107.747ZM103.4,118.871h1.376v-8H103.4v8Zm12.051-1.985-1.2-.672a2.714,2.714,0,0,1-2.5,1.537,2.883,2.883,0,0,1,0-5.763,2.714,2.714,0,0,1,2.5,1.537l1.2-.672a4.145,4.145,0,0,0-3.7-2.145,4.162,4.162,0,1,0,0,8.323A4.145,4.145,0,0,0,115.451,116.886Zm9.069-9.139a0.966,0.966,0,0,0-.96-0.977,0.994,0.994,0,0,0-.993.977,0.984,0.984,0,0,0,.993.976A0.956,0.956,0,0,0,124.52,107.747Zm-0.288,3.121h-1.377v8.9a1.13,1.13,0,0,1-1.232,1.361,3.508,3.508,0,0,1-.464-0.032v1.232a3.95,3.95,0,0,0,.656.049,2.245,2.245,0,0,0,2.417-2.449v-9.06Zm2.783,4a4,4,0,0,0,3.921,4.162,3.509,3.509,0,0,0,2.817-1.392v1.232h1.377v-8h-1.377V112.1a3.509,3.509,0,0,0-2.817-1.392A4,4,0,0,0,127.015,114.869Zm6.851,0a2.734,2.734,0,1,1-2.722-2.9A2.734,2.734,0,0,1,133.866,114.869Zm11.92,2.017-1.2-.672a2.713,2.713,0,0,1-2.5,1.537,2.883,2.883,0,0,1,0-5.763,2.713,2.713,0,0,1,2.5,1.537l1.2-.672a4.145,4.145,0,0,0-3.7-2.145,4.162,4.162,0,1,0,0,8.323A4.145,4.145,0,0,0,145.786,116.886Zm2.573,1.985h1.376v-4l4.338,4h1.857l-4.818-4.466,3.937-3.537h-1.824l-3.49,3.121v-7.123h-1.376v12Zm8.287-4a4.219,4.219,0,0,0,7.747,2.257l-1.088-.752a2.833,2.833,0,0,1-5.266-1.232H164.6a3.922,3.922,0,0,0,.016-0.417,3.728,3.728,0,0,0-3.809-4.017A4.056,4.056,0,0,0,156.646,114.869Zm4.114-2.945a2.4,2.4,0,0,1,2.449,2.1h-5.074A2.616,2.616,0,0,1,160.76,111.924Zm10.832,6.835v-1.232a3.041,3.041,0,0,1-.976.16,1.153,1.153,0,0,1-1.329-1.361v-4.194h2.305v-1.264h-2.305v-2.225h-1.376v2.225h-1.7v1.264h1.7v4.37a2.252,2.252,0,0,0,2.449,2.449A3.828,3.828,0,0,0,171.592,118.759Zm8.927-11.012a0.966,0.966,0,0,0-.96-0.977,0.994,0.994,0,0,0-.993.977,0.984,0.984,0,0,0,.993.976A0.956,0.956,0,0,0,180.519,107.747Zm-1.665,11.124h1.377v-8h-1.377v8Zm9.97-2.225c0-1.2-.752-1.969-2.113-2.417l-0.864-.288c-0.944-.3-1.232-0.608-1.232-1.12a1.132,1.132,0,0,1,1.344-.929,2.161,2.161,0,0,1,1.7.833l0.9-.865a3.1,3.1,0,0,0-2.561-1.152c-1.585,0-2.705.88-2.705,2.177a2.416,2.416,0,0,0,1.985,2.321l0.784,0.256c1.041,0.336,1.425.72,1.425,1.28a1.219,1.219,0,0,1-1.409,1.089,2.149,2.149,0,0,1-2.049-1.265l-1.12.608a3.178,3.178,0,0,0,3.137,1.857C187.656,119.031,188.824,118.215,188.824,116.646Zm9.135-8.9A0.967,0.967,0,0,0,197,106.77a0.994,0.994,0,0,0-.992.977,0.983,0.983,0,0,0,.992.976A0.957,0.957,0,0,0,197.959,107.747Zm-1.665,11.124h1.376v-8h-1.376v8Zm4.784,0h1.376V114.9c0-1.872,1.025-2.929,2.321-2.929a1.921,1.921,0,0,1,1.889,2.177v4.722h1.361v-4.93A2.95,2.95,0,0,0,205,110.708a2.831,2.831,0,0,0-2.545,1.392v-1.232h-1.376v8Zm15.41-2.225c0-1.2-.753-1.969-2.113-2.417l-0.865-.288c-0.944-.3-1.232-0.608-1.232-1.12a1.132,1.132,0,0,1,1.344-.929,2.16,2.16,0,0,1,1.7.833l0.9-.865a3.106,3.106,0,0,0-2.562-1.152c-1.584,0-2.7.88-2.7,2.177a2.417,2.417,0,0,0,1.985,2.321l0.785,0.256c1.04,0.336,1.424.72,1.424,1.28a1.218,1.218,0,0,1-1.408,1.089,2.148,2.148,0,0,1-2.049-1.265l-1.121.608a3.179,3.179,0,0,0,3.138,1.857C215.319,119.031,216.488,118.215,216.488,116.646Zm2.765,5.57h1.377v-4.577a3.51,3.51,0,0,0,2.817,1.392,4.169,4.169,0,0,0,0-8.323,3.51,3.51,0,0,0-2.817,1.392v-1.232h-1.377v11.348Zm6.707-7.347a2.726,2.726,0,1,1-2.721-2.9A2.733,2.733,0,0,1,225.96,114.869Zm5.854-7.122a0.966,0.966,0,0,0-.96-0.977,0.994,0.994,0,0,0-.993.977,0.984,0.984,0,0,0,.993.976A0.956,0.956,0,0,0,231.814,107.747Zm-1.665,11.124h1.377v-8h-1.377v8Zm4.784,0h1.377V114.9c0-1.872,1.1-2.753,2.113-2.753a2.011,2.011,0,0,1,.752.128v-1.424a2.851,2.851,0,0,0-.624-0.064,2.38,2.38,0,0,0-2.241,1.632v-1.552h-1.377v8Zm5.744-4a4.219,4.219,0,0,0,7.747,2.257l-1.088-.752a2.833,2.833,0,0,1-5.266-1.232h6.562a3.922,3.922,0,0,0,.016-0.417,3.728,3.728,0,0,0-3.809-4.017A4.056,4.056,0,0,0,240.677,114.869Zm4.114-2.945a2.4,2.4,0,0,1,2.449,2.1h-5.074A2.616,2.616,0,0,1,244.791,111.924Zm5.982,2.945a4.005,4.005,0,0,0,3.922,4.162,3.512,3.512,0,0,0,2.817-1.392v1.232h1.376v-12h-1.376V112.1a3.512,3.512,0,0,0-2.817-1.392A4.005,4.005,0,0,0,250.773,114.869Zm6.851,0a2.734,2.734,0,1,1-2.721-2.9A2.733,2.733,0,0,1,257.624,114.869Zm10.733,2.77a3.512,3.512,0,0,0,2.818,1.392,4.169,4.169,0,0,0,0-8.323,3.512,3.512,0,0,0-2.818,1.392v-5.234h-1.376v12h1.376v-1.232Zm5.331-2.77a2.727,2.727,0,1,1-2.722-2.9A2.734,2.734,0,0,1,273.688,114.869Zm6.142,7.347,5.25-11.348h-1.537l-2.737,6.066-2.753-6.066h-1.521l3.506,7.587-1.745,3.761h1.537Zm11.983-3.345h4.065c2.305,0,3.81-1.424,3.81-3.313a2.707,2.707,0,0,0-1.969-2.721,2.576,2.576,0,0,0,1.217-2.321,3.112,3.112,0,0,0-3.394-3.009h-3.729v11.364Zm1.488-6.483v-3.537h2.241a1.786,1.786,0,0,1,1.937,1.777,1.749,1.749,0,0,1-1.937,1.76H293.3Zm0,5.139v-3.858h2.658c1.5,0,2.272.832,2.272,1.937,0,1.12-.768,1.921-2.289,1.921H293.3Zm8.543-2.658a4.005,4.005,0,0,0,3.922,4.162,3.509,3.509,0,0,0,2.817-1.392v1.232h1.377v-8h-1.377V112.1a3.509,3.509,0,0,0-2.817-1.392A4.005,4.005,0,0,0,301.844,114.869Zm6.851,0a2.734,2.734,0,1,1-2.721-2.9A2.733,2.733,0,0,1,308.7,114.869Zm4.654,4h1.376V114.9c0-1.872,1.025-2.929,2.321-2.929a1.922,1.922,0,0,1,1.889,2.177v4.722h1.36v-4.93a2.949,2.949,0,0,0-3.025-3.233,2.831,2.831,0,0,0-2.545,1.392v-1.232h-1.376v8Zm9.6-4a4.005,4.005,0,0,0,3.922,4.162,3.51,3.51,0,0,0,2.817-1.392v1.232h1.376v-8h-1.376V112.1a3.51,3.51,0,0,0-2.817-1.392A4.005,4.005,0,0,0,322.948,114.869Zm6.851,0a2.734,2.734,0,1,1-2.721-2.9A2.733,2.733,0,0,1,329.8,114.869Zm4.653,4h1.377V114.9c0-1.872,1.024-2.929,2.321-2.929a1.921,1.921,0,0,1,1.888,2.177v4.722H341.4v-4.93a2.949,2.949,0,0,0-3.025-3.233,2.829,2.829,0,0,0-2.545,1.392v-1.232h-1.377v8Zm9.6-4a4,4,0,0,0,3.921,4.162,3.509,3.509,0,0,0,2.817-1.392v1.232h1.377v-8H350.79V112.1a3.509,3.509,0,0,0-2.817-1.392A4,4,0,0,0,344.052,114.869Zm6.851,0a2.734,2.734,0,1,1-2.722-2.9A2.734,2.734,0,0,1,350.9,114.869Zm9.565,4h1.488V113.7h1.1l4.37,5.17H369.3l-4.369-5.186a2.966,2.966,0,0,0,2.8-3.041,3.066,3.066,0,0,0-3.394-3.137h-3.873v11.364Zm1.488-6.5v-3.489h2.209c1.3,0,2.081.608,2.081,1.761,0,1.136-.784,1.728-2.081,1.728h-2.209Zm8.4,2.5a4.219,4.219,0,0,0,7.747,2.257l-1.088-.752a2.833,2.833,0,0,1-5.266-1.232h6.563a3.922,3.922,0,0,0,.016-0.417,3.729,3.729,0,0,0-3.81-4.017A4.056,4.056,0,0,0,370.355,114.869Zm4.114-2.945a2.4,2.4,0,0,1,2.449,2.1h-5.074A2.617,2.617,0,0,1,374.469,111.924Zm6.607,10.292h1.376v-4.577a3.51,3.51,0,0,0,2.817,1.392,4.169,4.169,0,0,0,0-8.323,3.51,3.51,0,0,0-2.817,1.392v-1.232h-1.376v11.348Zm6.706-7.347a2.726,2.726,0,1,1-2.721-2.9A2.733,2.733,0,0,1,387.782,114.869Zm4.077,0.913c0,1.985,1.185,3.249,2.946,3.249a2.755,2.755,0,0,0,2.465-1.392v1.232h1.376v-8H397.27v3.969c0,1.841-.977,2.93-2.225,2.93-1.105,0-1.809-.849-1.809-2.193v-4.706h-1.377v4.914Zm11.553,1.857a3.51,3.51,0,0,0,2.817,1.392,4.169,4.169,0,0,0,0-8.323,3.51,3.51,0,0,0-2.817,1.392v-5.234h-1.377v12h1.377v-1.232Zm5.33-2.77a2.726,2.726,0,1,1-2.721-2.9A2.733,2.733,0,0,1,408.742,114.869Zm4.173,4h1.377v-12h-1.377v12Zm6.449-11.124a0.967,0.967,0,0,0-.961-0.977,0.994,0.994,0,0,0-.992.977,0.983,0.983,0,0,0,.992.976A0.957,0.957,0,0,0,419.364,107.747ZM417.7,118.871h1.377v-8H417.7v8Zm12.051-1.985-1.2-.672a2.713,2.713,0,0,1-2.5,1.537,2.883,2.883,0,0,1,0-5.763,2.713,2.713,0,0,1,2.5,1.537l1.2-.672a4.144,4.144,0,0,0-3.7-2.145,4.162,4.162,0,1,0,0,8.323A4.144,4.144,0,0,0,429.75,116.886Zm4.414-7.651a1.414,1.414,0,0,0,.224-0.72,1.193,1.193,0,1,0-2.385,0,1.24,1.24,0,0,0,.656,1.072l-1.072,2.289h0.928Zm7.473,7.411c0-1.2-.752-1.969-2.113-2.417l-0.864-.288c-0.944-.3-1.232-0.608-1.232-1.12a1.132,1.132,0,0,1,1.344-.929,2.161,2.161,0,0,1,1.7.833l0.9-.865a3.1,3.1,0,0,0-2.561-1.152c-1.585,0-2.7.88-2.7,2.177a2.416,2.416,0,0,0,1.985,2.321l0.784,0.256c1.041,0.336,1.425.72,1.425,1.28a1.219,1.219,0,0,1-1.409,1.089,2.149,2.149,0,0,1-2.049-1.265l-1.12.608a3.178,3.178,0,0,0,3.137,1.857C440.469,119.031,441.637,118.215,441.637,116.646Zm6.846-1.777a4.219,4.219,0,0,0,7.747,2.257l-1.089-.752a2.833,2.833,0,0,1-5.266-1.232h6.563a3.922,3.922,0,0,0,.016-0.417,3.729,3.729,0,0,0-3.81-4.017A4.055,4.055,0,0,0,448.483,114.869Zm4.113-2.945a2.4,2.4,0,0,1,2.449,2.1h-5.074A2.617,2.617,0,0,1,452.6,111.924Zm5.118,6.947h1.713l2.433-3.025,2.433,3.025h1.7l-3.266-4.05,3.01-3.953h-1.681l-2.193,2.881-2.209-2.881h-1.665l3.01,3.953Zm10.481,3.345h1.376v-4.577a3.512,3.512,0,0,0,2.818,1.392,4.169,4.169,0,0,0,0-8.323,3.512,3.512,0,0,0-2.818,1.392v-1.232H468.2v11.348Zm6.707-7.347a2.727,2.727,0,1,1-2.722-2.9A2.734,2.734,0,0,1,474.9,114.869Zm4.189,4h1.376v-12h-1.376v12Zm12.515-4a4.186,4.186,0,1,0-4.178,4.162A4.107,4.107,0,0,0,491.606,114.869Zm-6.963,0a2.779,2.779,0,1,1,2.785,2.882A2.751,2.751,0,0,1,484.643,114.869Zm9.727,4h1.377V114.9c0-1.872,1.1-2.753,2.113-2.753a2.011,2.011,0,0,1,.752.128v-1.424a2.851,2.851,0,0,0-.624-0.064,2.381,2.381,0,0,0-2.241,1.632v-1.552H494.37v8Zm5.744-4a4.219,4.219,0,0,0,7.747,2.257l-1.088-.752a2.833,2.833,0,0,1-5.266-1.232h6.563a3.922,3.922,0,0,0,.016-0.417,3.729,3.729,0,0,0-3.81-4.017A4.056,4.056,0,0,0,500.114,114.869Zm4.114-2.945a2.4,2.4,0,0,1,2.449,2.1H501.6A2.616,2.616,0,0,1,504.228,111.924Zm6.606,6.947h1.377V114.9c0-1.872,1.1-2.753,2.113-2.753a2.011,2.011,0,0,1,.752.128v-1.424a2.851,2.851,0,0,0-.624-0.064,2.381,2.381,0,0,0-2.241,1.632v-1.552h-1.377v8Zm16.146-2.225c0-1.2-.752-1.969-2.112-2.417L524,113.941c-0.944-.3-1.232-0.608-1.232-1.12a1.132,1.132,0,0,1,1.344-.929,2.16,2.16,0,0,1,1.7.833l0.9-.865a3.1,3.1,0,0,0-2.561-1.152c-1.584,0-2.705.88-2.705,2.177a2.416,2.416,0,0,0,1.985,2.321l0.784,0.256c1.041,0.336,1.425.72,1.425,1.28a1.218,1.218,0,0,1-1.409,1.089,2.15,2.15,0,0,1-2.049-1.265l-1.12.608a3.178,3.178,0,0,0,3.137,1.857C525.812,119.031,526.98,118.215,526.98,116.646Zm2.766,5.57h1.377v-4.577a3.509,3.509,0,0,0,2.817,1.392,4.169,4.169,0,0,0,0-8.323,3.509,3.509,0,0,0-2.817,1.392v-1.232h-1.377v11.348Zm6.707-7.347a2.726,2.726,0,1,1-2.721-2.9A2.733,2.733,0,0,1,536.453,114.869Zm5.854-7.122a0.967,0.967,0,0,0-.961-0.977,0.994,0.994,0,0,0-.992.977,0.983,0.983,0,0,0,.992.976A0.957,0.957,0,0,0,542.307,107.747Zm-1.665,11.124h1.377v-8h-1.377v8Zm4.784,0H546.8V114.9c0-1.872,1.1-2.753,2.112-2.753a2.013,2.013,0,0,1,.753.128v-1.424a2.854,2.854,0,0,0-.625-0.064,2.38,2.38,0,0,0-2.24,1.632v-1.552h-1.377v8Zm8.321-11.124a0.967,0.967,0,0,0-.961-0.977,0.994,0.994,0,0,0-.992.977,0.983,0.983,0,0,0,.992.976A0.957,0.957,0,0,0,553.747,107.747Zm-1.665,11.124h1.377v-8h-1.377v8Zm9.122-.112v-1.232a3.048,3.048,0,0,1-.977.16,1.153,1.153,0,0,1-1.328-1.361v-4.194h2.3v-1.264h-2.3v-2.225h-1.377v2.225h-1.7v1.264h1.7v4.37a2.253,2.253,0,0,0,2.449,2.449A3.835,3.835,0,0,0,561.2,118.759Zm6.637-3.89a4.005,4.005,0,0,0,3.922,4.162,3.51,3.51,0,0,0,2.817-1.392v1.232h1.377v-8H574.58V112.1a3.51,3.51,0,0,0-2.817-1.392A4.005,4.005,0,0,0,567.841,114.869Zm6.851,0a2.734,2.734,0,1,1-2.721-2.9A2.733,2.733,0,0,1,574.692,114.869Zm4.653,4h1.377V114.9c0-1.872,1.024-2.929,2.321-2.929a1.922,1.922,0,0,1,1.889,2.177v4.722h1.36v-4.93a2.949,2.949,0,0,0-3.025-3.233,2.831,2.831,0,0,0-2.545,1.392v-1.232h-1.377v8Zm9.6-4a4.005,4.005,0,0,0,3.922,4.162,3.512,3.512,0,0,0,2.817-1.392v1.232h1.376v-12h-1.376V112.1a3.512,3.512,0,0,0-2.817-1.392A4.005,4.005,0,0,0,588.945,114.869Zm6.851,0a2.734,2.734,0,1,1-2.721-2.9A2.733,2.733,0,0,1,595.8,114.869ZM30.521,135.782c0,1.985,1.185,3.249,2.945,3.249a2.754,2.754,0,0,0,2.465-1.392v1.232h1.377v-8H35.931v3.969c0,1.841-.976,2.93-2.225,2.93-1.1,0-1.809-.849-1.809-2.193v-4.706H30.521v4.914Zm14.514,2.977v-1.232a3.044,3.044,0,0,1-.976.16,1.153,1.153,0,0,1-1.329-1.361v-4.194h2.3v-1.264h-2.3v-2.225H41.353v2.225h-1.7v1.264h1.7v4.37a2.253,2.253,0,0,0,2.449,2.449A3.831,3.831,0,0,0,45.035,138.759Zm4.223-11.012a0.967,0.967,0,0,0-.96-0.977,0.994,0.994,0,0,0-.992.977,0.984,0.984,0,0,0,.992.976A0.957,0.957,0,0,0,49.258,127.747Zm-1.665,11.124H48.97v-8H47.593v8Zm4.784,0h1.377V126.866H52.377v12.005Zm6.448-11.124a0.967,0.967,0,0,0-.96-0.977,0.994,0.994,0,0,0-.992.977,0.984,0.984,0,0,0,.992.976A0.956,0.956,0,0,0,58.825,127.747Zm-1.665,11.124h1.377v-8H57.161v8Zm9.122-.112v-1.232a3.043,3.043,0,0,1-.976.16,1.153,1.153,0,0,1-1.328-1.361v-4.194h2.3v-1.264h-2.3v-2.225H62.6v2.225H60.9v1.264h1.7v4.37a2.253,2.253,0,0,0,2.449,2.449A3.831,3.831,0,0,0,66.282,138.759Zm1.822-3.89a4.005,4.005,0,0,0,3.922,4.162,3.51,3.51,0,0,0,2.817-1.392v1.232H76.22v-8H74.843V132.1a3.51,3.51,0,0,0-2.817-1.392A4,4,0,0,0,68.1,134.869Zm6.851,0a2.734,2.734,0,1,1-2.721-2.9A2.733,2.733,0,0,1,74.955,134.869Zm4.653,4h1.377V134.9c0-1.872,1.1-2.753,2.113-2.753a2.013,2.013,0,0,1,.752.128v-1.424a2.853,2.853,0,0,0-.624-0.064,2.381,2.381,0,0,0-2.241,1.632v-1.552H79.609v8Zm8.321-11.124a0.967,0.967,0,0,0-.96-0.977,0.994,0.994,0,0,0-.992.977,0.984,0.984,0,0,0,.992.976A0.957,0.957,0,0,0,87.929,127.747Zm-1.665,11.124h1.377v-8H86.265v8Zm4.16-4a4.005,4.005,0,0,0,3.922,4.162,3.51,3.51,0,0,0,2.817-1.392v1.232h1.377v-8H97.163V132.1a3.51,3.51,0,0,0-2.817-1.392A4,4,0,0,0,90.424,134.869Zm6.851,0a2.734,2.734,0,1,1-2.721-2.9A2.733,2.733,0,0,1,97.275,134.869Zm4.653,4h1.377V134.9c0-1.872,1.024-2.929,2.321-2.929a1.921,1.921,0,0,1,1.888,2.177v4.722h1.361v-4.93a2.949,2.949,0,0,0-3.025-3.233,2.829,2.829,0,0,0-2.545,1.392v-1.232h-1.377v8Zm14.928,0h1.376V134.9c0-1.872,1.025-2.929,2.321-2.929a1.921,1.921,0,0,1,1.889,2.177v4.722H123.8v-4.93a2.95,2.95,0,0,0-3.026-3.233,2.832,2.832,0,0,0-2.545,1.392v-5.234h-1.376v12.005Zm11.888-11.124a0.966,0.966,0,0,0-.96-0.977,0.994,0.994,0,0,0-.992.977,0.983,0.983,0,0,0,.992.976A0.956,0.956,0,0,0,128.744,127.747Zm-1.664,11.124h1.376v-8H127.08v8Zm9.97-2.225c0-1.2-.753-1.969-2.113-2.417l-0.865-.288c-0.944-.3-1.232-0.608-1.232-1.12a1.132,1.132,0,0,1,1.344-.929,2.16,2.16,0,0,1,1.7.833l0.9-.865a3.106,3.106,0,0,0-2.561-1.152c-1.585,0-2.706.88-2.706,2.177a2.417,2.417,0,0,0,1.985,2.321l0.785,0.256c1.04,0.336,1.424.72,1.424,1.28a1.218,1.218,0,0,1-1.408,1.089,2.148,2.148,0,0,1-2.049-1.265l-1.121.608a3.179,3.179,0,0,0,3.138,1.857C135.881,139.031,137.05,138.215,137.05,136.646Zm7.007,2.113v-1.232a3.041,3.041,0,0,1-.976.16,1.153,1.153,0,0,1-1.329-1.361v-4.194h2.3v-1.264h-2.3v-2.225h-1.376v2.225h-1.7v1.264h1.7v4.37a2.252,2.252,0,0,0,2.449,2.449A3.828,3.828,0,0,0,144.057,138.759Zm10.178-3.89a4.186,4.186,0,1,0-4.178,4.162A4.107,4.107,0,0,0,154.235,134.869Zm-6.963,0a2.779,2.779,0,1,1,2.785,2.882A2.751,2.751,0,0,1,147.272,134.869Zm9.727,4h1.377V134.9c0-1.872,1.1-2.753,2.113-2.753a2.011,2.011,0,0,1,.752.128v-1.424a2.851,2.851,0,0,0-.624-0.064,2.38,2.38,0,0,0-2.241,1.632v-1.552H157v8Zm8.785,3.345,5.25-11.348H169.5l-2.737,6.066-2.754-6.066h-1.52l3.5,7.587-1.744,3.761h1.536Zm8.544-4.417a1.185,1.185,0,1,0-1.184,1.2A1.206,1.206,0,0,0,174.328,137.8Zm7.839,1.072h1.489V127.507h-1.489v11.364Zm9.41-.112v-1.232a3.041,3.041,0,0,1-.976.16,1.153,1.153,0,0,1-1.329-1.361v-4.194h2.305v-1.264h-2.305v-2.225H187.9v2.225h-1.7v1.264h1.7v4.37a2.253,2.253,0,0,0,2.449,2.449A3.83,3.83,0,0,0,191.577,138.759Zm8.927-11.012a0.967,0.967,0,0,0-.961-0.977,0.994,0.994,0,0,0-.992.977,0.983,0.983,0,0,0,.992.976A0.957,0.957,0,0,0,200.5,127.747Zm-1.665,11.124h1.376v-8h-1.376v8Zm9.97-2.225c0-1.2-.752-1.969-2.113-2.417l-0.864-.288c-0.945-.3-1.233-0.608-1.233-1.12a1.133,1.133,0,0,1,1.345-.929,2.159,2.159,0,0,1,1.7.833l0.9-.865a3.1,3.1,0,0,0-2.561-1.152c-1.585,0-2.705.88-2.705,2.177a2.416,2.416,0,0,0,1.984,2.321l0.785,0.256c1.04,0.336,1.424.72,1.424,1.28a1.218,1.218,0,0,1-1.408,1.089,2.148,2.148,0,0,1-2.049-1.265l-1.121.608a3.18,3.18,0,0,0,3.138,1.857C207.64,139.031,208.809,138.215,208.809,136.646Zm14.736,0.24-1.2-.672a2.714,2.714,0,0,1-2.5,1.537,2.883,2.883,0,0,1,0-5.763,2.714,2.714,0,0,1,2.5,1.537l1.2-.672A4.162,4.162,0,1,0,223.545,136.886Zm2.573,1.985H227.5V134.9c0-1.872,1.1-2.753,2.113-2.753a2.011,2.011,0,0,1,.752.128v-1.424a2.851,2.851,0,0,0-.624-0.064,2.38,2.38,0,0,0-2.241,1.632v-1.552h-1.377v8Zm5.76-4a4.005,4.005,0,0,0,3.922,4.162,3.512,3.512,0,0,0,2.817-1.392v1.232h1.376v-8h-1.376V132.1a3.512,3.512,0,0,0-2.817-1.392A4.005,4.005,0,0,0,231.878,134.869Zm6.851,0a2.734,2.734,0,1,1-2.721-2.9A2.733,2.733,0,0,1,238.729,134.869Zm5.325,4h1.377v-6.739h2.113v-1.264h-2.113V129.4a1.152,1.152,0,0,1,1.328-1.36,3.223,3.223,0,0,1,.993.16v-1.217a3.638,3.638,0,0,0-1.249-.208,2.253,2.253,0,0,0-2.449,2.449v1.649h-1.7v1.264h1.7v6.739Zm9.588-.112v-1.232a3.144,3.144,0,0,1-.992.16,1.153,1.153,0,0,1-1.329-1.361v-4.194h2.321v-1.264h-2.321v-2.225h-1.376v2.225h-1.5v1.264h1.5v4.37a2.264,2.264,0,0,0,2.465,2.449A3.982,3.982,0,0,0,253.642,138.759Zm1.82-3.89a4.219,4.219,0,0,0,7.747,2.257l-1.088-.752a2.834,2.834,0,0,1-5.267-1.232h6.563a3.922,3.922,0,0,0,.016-0.417,3.729,3.729,0,0,0-3.809-4.017A4.056,4.056,0,0,0,255.462,134.869Zm4.114-2.945a2.394,2.394,0,0,1,2.448,2.1H256.95A2.618,2.618,0,0,1,259.576,131.924Zm5.982,2.945a4,4,0,0,0,3.921,4.162,3.509,3.509,0,0,0,2.817-1.392v1.232h1.377V126.866H272.3V132.1a3.509,3.509,0,0,0-2.817-1.392A4,4,0,0,0,265.558,134.869Zm6.851,0a2.734,2.734,0,1,1-2.722-2.9A2.734,2.734,0,0,1,272.409,134.869Zm9.821,4h1.377v-6.739h2.321v-1.264h-2.321V129.4a1.152,1.152,0,0,1,1.328-1.36,3.228,3.228,0,0,1,.993.16v-1.217a3.642,3.642,0,0,0-1.249-.208,2.286,2.286,0,0,0-2.449,2.481v1.617h-1.7v1.264h1.7v6.739Zm6,0h1.376V134.9c0-1.872,1.105-2.753,2.113-2.753a2.011,2.011,0,0,1,.752.128v-1.424a2.851,2.851,0,0,0-.624-0.064,2.381,2.381,0,0,0-2.241,1.632v-1.552H288.23v8Zm14.1-4a4.186,4.186,0,1,0-4.178,4.162A4.107,4.107,0,0,0,302.329,134.869Zm-6.963,0a2.779,2.779,0,1,1,2.785,2.882A2.751,2.751,0,0,1,295.366,134.869Zm9.728,4h1.376V134.9c0-1.808.913-2.929,2.209-2.929,1.04,0,1.569.9,1.569,2.193v4.706h1.376V134.9c0-1.808.9-2.929,2.193-2.929,1.041,0,1.585.9,1.585,2.193v4.706h1.376v-4.914c0-1.953-1.056-3.249-2.8-3.249a2.77,2.77,0,0,0-2.625,1.712,2.515,2.515,0,0,0-2.465-1.712,2.691,2.691,0,0,0-2.417,1.392v-1.232h-1.376v8Zm19.663,0h1.377V134.9c0-1.808.912-2.929,2.209-2.929,1.04,0,1.568.9,1.568,2.193v4.706h1.377V134.9c0-1.808.9-2.929,2.193-2.929,1.04,0,1.585.9,1.585,2.193v4.706h1.376v-4.914c0-1.953-1.056-3.249-2.8-3.249a2.769,2.769,0,0,0-2.625,1.712,2.516,2.516,0,0,0-2.465-1.712,2.689,2.689,0,0,0-2.417,1.392v-1.232h-1.377v8Zm22.691-4a4.186,4.186,0,1,0-4.177,4.162A4.107,4.107,0,0,0,347.448,134.869Zm-6.962,0a2.779,2.779,0,1,1,2.785,2.882A2.751,2.751,0,0,1,340.486,134.869Zm9.727,4h1.377V126.866h-1.377v12.005Zm4.16-4a4.219,4.219,0,0,0,7.747,2.257l-1.089-.752a2.833,2.833,0,0,1-5.266-1.232h6.563a3.922,3.922,0,0,0,.016-0.417,3.729,3.729,0,0,0-3.81-4.017A4.055,4.055,0,0,0,354.373,134.869Zm4.113-2.945a2.4,2.4,0,0,1,2.449,2.1h-5.074A2.617,2.617,0,0,1,358.486,131.924Zm11.793,4.722c0-1.2-.752-1.969-2.113-2.417l-0.864-.288c-0.945-.3-1.233-0.608-1.233-1.12a1.133,1.133,0,0,1,1.345-.929,2.159,2.159,0,0,1,1.7.833l0.9-.865a3.1,3.1,0,0,0-2.561-1.152c-1.585,0-2.705.88-2.705,2.177a2.416,2.416,0,0,0,1.984,2.321l0.785,0.256c1.04,0.336,1.424.72,1.424,1.28a1.218,1.218,0,0,1-1.408,1.089,2.148,2.148,0,0,1-2.049-1.265l-1.12.608a3.177,3.177,0,0,0,3.137,1.857C369.11,139.031,370.279,138.215,370.279,136.646Zm2.766,2.225h1.376v-4l4.338,4h1.857l-4.818-4.466,3.937-3.537h-1.824l-3.49,3.121v-7.123h-1.376v12.005Zm11.088-11.124a0.966,0.966,0,0,0-.96-0.977,1,1,0,0,0-.993.977,0.984,0.984,0,0,0,.993.976A0.956,0.956,0,0,0,384.133,127.747Zm-1.665,11.124h1.377v-8h-1.377v8Zm4.784,0h1.377V134.9c0-1.872,1.024-2.929,2.321-2.929a1.922,1.922,0,0,1,1.889,2.177v4.722h1.36v-4.93a2.949,2.949,0,0,0-3.025-3.233,2.831,2.831,0,0,0-2.545,1.392v-1.232h-1.377v8Zm11.937-.352a1.368,1.368,0,0,0,.224-0.72,1.185,1.185,0,1,0-2.369,0,1.191,1.191,0,0,0,.656,1.072l-1.072,2.289h0.912Zm7.263-3.65a4,4,0,0,0,3.921,4.162,3.509,3.509,0,0,0,2.817-1.392v1.232h1.377v-8H413.19V132.1a3.509,3.509,0,0,0-2.817-1.392A4,4,0,0,0,406.452,134.869Zm6.85,0a2.734,2.734,0,1,1-2.721-2.9A2.733,2.733,0,0,1,413.3,134.869Zm14.544,1.777c0-1.2-.753-1.969-2.113-2.417l-0.865-.288c-0.944-.3-1.232-0.608-1.232-1.12a1.133,1.133,0,0,1,1.345-.929,2.159,2.159,0,0,1,1.7.833l0.9-.865a3.106,3.106,0,0,0-2.561-1.152c-1.585,0-2.706.88-2.706,2.177a2.417,2.417,0,0,0,1.985,2.321l0.785,0.256c1.04,0.336,1.424.72,1.424,1.28a1.218,1.218,0,0,1-1.408,1.089,2.148,2.148,0,0,1-2.049-1.265l-1.121.608a3.179,3.179,0,0,0,3.138,1.857C426.677,139.031,427.846,138.215,427.846,136.646Zm2.765,2.225h1.377V134.9c0-1.808.912-2.929,2.209-2.929,1.04,0,1.569.9,1.569,2.193v4.706h1.376V134.9c0-1.808.9-2.929,2.193-2.929,1.04,0,1.585.9,1.585,2.193v4.706H442.3v-4.914c0-1.953-1.056-3.249-2.8-3.249a2.77,2.77,0,0,0-2.625,1.712,2.516,2.516,0,0,0-2.465-1.712,2.691,2.691,0,0,0-2.417,1.392v-1.232h-1.377v8Zm22.691-4a4.186,4.186,0,1,0-4.177,4.162A4.107,4.107,0,0,0,453.3,134.869Zm-6.962,0a2.779,2.779,0,1,1,2.785,2.882A2.751,2.751,0,0,1,446.34,134.869Zm17.458,0a4.186,4.186,0,1,0-4.177,4.162A4.107,4.107,0,0,0,463.8,134.869Zm-6.963,0a2.779,2.779,0,1,1,2.786,2.882A2.752,2.752,0,0,1,456.835,134.869Zm13.922,3.89v-1.232a3.043,3.043,0,0,1-.977.16,1.153,1.153,0,0,1-1.328-1.361v-4.194h2.305v-1.264h-2.305v-2.225h-1.377v2.225h-1.7v1.264h1.7v4.37a2.253,2.253,0,0,0,2.449,2.449A3.83,3.83,0,0,0,470.757,138.759Zm2.558,0.112h1.377V134.9c0-1.872,1.024-2.929,2.321-2.929a1.921,1.921,0,0,1,1.888,2.177v4.722h1.361v-4.93a2.949,2.949,0,0,0-3.025-3.233,2.829,2.829,0,0,0-2.545,1.392v-5.234h-1.377v12.005Zm22.195-1.985-1.2-.672a2.713,2.713,0,0,1-2.5,1.537,2.883,2.883,0,0,1,0-5.763,2.713,2.713,0,0,1,2.5,1.537l1.2-.672a4.145,4.145,0,0,0-3.7-2.145,4.162,4.162,0,1,0,0,8.323A4.145,4.145,0,0,0,495.51,136.886Zm10.3-2.017a4.186,4.186,0,1,0-4.178,4.162A4.107,4.107,0,0,0,505.814,134.869Zm-6.963,0a2.779,2.779,0,1,1,2.785,2.882A2.751,2.751,0,0,1,498.851,134.869Zm19.524,3.89v-1.232a3.052,3.052,0,0,1-.977.16,1.153,1.153,0,0,1-1.328-1.361v-4.194h2.3v-1.264h-2.3v-2.225h-1.377v2.225h-1.377v1.264h1.377v4.37a2.252,2.252,0,0,0,2.449,2.449A3.84,3.84,0,0,0,518.375,138.759Zm-5.6,0v-1.232a3.041,3.041,0,0,1-.976.16,1.153,1.153,0,0,1-1.329-1.361v-4.194h1.953v-1.264h-1.953v-2.225h-1.376v2.225h-1.7v1.264h1.7v4.37a2.252,2.252,0,0,0,2.449,2.449A3.828,3.828,0,0,0,512.772,138.759Zm15.778-3.89a4.186,4.186,0,1,0-4.178,4.162A4.107,4.107,0,0,0,528.55,134.869Zm-6.963,0a2.779,2.779,0,1,1,2.785,2.882A2.751,2.751,0,0,1,521.587,134.869Zm9.727,4h1.377V134.9c0-1.872,1.024-2.929,2.321-2.929a1.922,1.922,0,0,1,1.889,2.177v4.722h1.36v-4.93a2.949,2.949,0,0,0-3.025-3.233,2.829,2.829,0,0,0-2.545,1.392v-1.232h-1.377v8Zm15.392,0h1.377v-6.739H550.4v-1.264h-2.321V129.4a1.152,1.152,0,0,1,1.329-1.36,3.222,3.222,0,0,1,.992.16v-1.217a3.638,3.638,0,0,0-1.249-.208,2.286,2.286,0,0,0-2.449,2.481v1.617h-1.7v1.264h1.7v6.739Zm5.168-4a4.005,4.005,0,0,0,3.922,4.162,3.51,3.51,0,0,0,2.817-1.392v1.232h1.376v-8h-1.376V132.1a3.51,3.51,0,0,0-2.817-1.392A4.005,4.005,0,0,0,551.874,134.869Zm6.851,0a2.734,2.734,0,1,1-2.721-2.9A2.733,2.733,0,0,1,558.725,134.869Zm6.03,2.77a3.509,3.509,0,0,0,2.817,1.392,4.169,4.169,0,0,0,0-8.323,3.509,3.509,0,0,0-2.817,1.392v-5.234h-1.377v12.005h1.377v-1.232Zm5.33-2.77a2.726,2.726,0,1,1-2.721-2.9A2.733,2.733,0,0,1,570.085,134.869Zm4.173,4h1.376V134.9c0-1.872,1.105-2.753,2.113-2.753a2.02,2.02,0,0,1,.753.128v-1.424a2.86,2.86,0,0,0-.625-0.064,2.382,2.382,0,0,0-2.241,1.632v-1.552h-1.376v8Zm8.321-11.124a0.967,0.967,0,0,0-.961-0.977,0.994,0.994,0,0,0-.992.977,0.983,0.983,0,0,0,.992.976A0.957,0.957,0,0,0,582.579,127.747Zm-1.665,11.124h1.376v-8h-1.376v8Zm12.051-1.985-1.2-.672a2.713,2.713,0,0,1-2.5,1.537,2.883,2.883,0,0,1,0-5.763,2.713,2.713,0,0,1,2.5,1.537l1.2-.672a4.145,4.145,0,0,0-3.7-2.145,4.162,4.162,0,1,0,0,8.323A4.145,4.145,0,0,0,592.965,136.886Zm-555.065,20-1.2-.672a2.714,2.714,0,0,1-2.5,1.537,2.883,2.883,0,0,1,0-5.763,2.714,2.714,0,0,1,2.5,1.537l1.2-.672a4.144,4.144,0,0,0-3.7-2.145,4.162,4.162,0,1,0,0,8.323A4.144,4.144,0,0,0,37.9,156.886Zm10.3-2.017a4.186,4.186,0,1,0-4.178,4.162A4.107,4.107,0,0,0,48.2,154.869Zm-6.963,0a2.779,2.779,0,1,1,2.785,2.882A2.751,2.751,0,0,1,41.241,154.869Zm9.728,4h1.377V154.9c0-1.808.912-2.929,2.209-2.929,1.04,0,1.569.9,1.569,2.193v4.706H57.5V154.9c0-1.808.9-2.929,2.193-2.929,1.04,0,1.585.9,1.585,2.193v4.706h1.377v-4.914c0-1.953-1.056-3.249-2.8-3.249a2.77,2.77,0,0,0-2.625,1.712,2.516,2.516,0,0,0-2.465-1.712,2.69,2.69,0,0,0-2.417,1.392v-1.232H50.969v8Zm14.96,0h1.377V154.9c0-1.808.912-2.929,2.209-2.929,1.04,0,1.569.9,1.569,2.193v4.706h1.377V154.9c0-1.808.9-2.929,2.193-2.929,1.04,0,1.585.9,1.585,2.193v4.706h1.377v-4.914c0-1.953-1.056-3.249-2.8-3.249a2.77,2.77,0,0,0-2.625,1.712,2.516,2.516,0,0,0-2.465-1.712,2.69,2.69,0,0,0-2.417,1.392v-1.232H65.929v8Zm22.691-4a4.186,4.186,0,1,0-4.178,4.162A4.107,4.107,0,0,0,88.62,154.869Zm-6.963,0a2.779,2.779,0,1,1,2.785,2.882A2.751,2.751,0,0,1,81.657,154.869Zm9.727,4h1.377V154.9c0-1.872,1.024-2.929,2.321-2.929a1.921,1.921,0,0,1,1.889,2.177v4.722h1.361v-4.93a2.949,2.949,0,0,0-3.025-3.233,2.83,2.83,0,0,0-2.545,1.392v-1.232H91.384v8Zm10.224,0h1.377v-12h-1.377v12Zm6.913,3.345,5.25-11.348h-1.537l-2.737,6.066-2.753-6.066h-1.521l3.506,7.587-1.745,3.761h1.537Zm11.663-6.434c0,1.985,1.184,3.249,2.945,3.249a2.754,2.754,0,0,0,2.465-1.392v1.232h1.377v-8h-1.377v3.969c0,1.841-.976,2.93-2.225,2.93-1.1,0-1.809-.849-1.809-2.193v-4.706h-1.376v4.914Zm15.362,0.864c0-1.2-.752-1.969-2.113-2.417l-0.864-.288c-0.945-.3-1.233-0.608-1.233-1.12a1.133,1.133,0,0,1,1.345-.929,2.159,2.159,0,0,1,1.7.833l0.9-.865a3.1,3.1,0,0,0-2.561-1.152c-1.585,0-2.7.88-2.7,2.177a2.416,2.416,0,0,0,1.984,2.321l0.785,0.256c1.04,0.336,1.424.72,1.424,1.28a1.218,1.218,0,0,1-1.408,1.089,2.148,2.148,0,0,1-2.049-1.265l-1.12.608a3.177,3.177,0,0,0,3.137,1.857C134.377,159.031,135.546,158.215,135.546,156.646Zm2.141-1.777a4.22,4.22,0,0,0,7.748,2.257l-1.089-.752a2.833,2.833,0,0,1-5.266-1.232h6.563a3.922,3.922,0,0,0,.016-0.417,3.729,3.729,0,0,0-3.81-4.017A4.056,4.056,0,0,0,137.687,154.869Zm4.114-2.945a2.4,2.4,0,0,1,2.449,2.1h-5.074A2.617,2.617,0,0,1,141.8,151.924Zm5.982,2.945a4.005,4.005,0,0,0,3.922,4.162,3.51,3.51,0,0,0,2.817-1.392v1.232H155.9v-12h-1.377V152.1a3.51,3.51,0,0,0-2.817-1.392A4.005,4.005,0,0,0,147.783,154.869Zm6.851,0a2.734,2.734,0,1,1-2.721-2.9A2.733,2.733,0,0,1,154.634,154.869Zm11.022-7.122a0.966,0.966,0,0,0-.96-0.977,0.994,0.994,0,0,0-.993.977,0.984,0.984,0,0,0,.993.976A0.956,0.956,0,0,0,165.656,147.747Zm-1.665,11.124h1.377v-8h-1.377v8Zm4.784,0h1.377V154.9c0-1.872,1.024-2.929,2.321-2.929a1.921,1.921,0,0,1,1.888,2.177v4.722h1.361v-4.93a2.949,2.949,0,0,0-3.025-3.233,2.829,2.829,0,0,0-2.545,1.392v-1.232h-1.377v8Zm15.92,0h1.377V147.507h-2.449l-1.121,1.36H184.7v10Zm4.864,0h1.76l4.162-4.914a4.367,4.367,0,0,0,1.281-2.9,3.851,3.851,0,0,0-7.7.048,3.671,3.671,0,0,0,3.554,3.649,2.039,2.039,0,0,0,.448-0.032Zm0.912-7.779a2.441,2.441,0,1,1,2.433,2.449A2.415,2.415,0,0,1,190.471,151.092Zm15.587,4.162a3.676,3.676,0,0,0-3.554-3.666c-0.144,0-.288.016-0.448,0.032l3.473-4.113h-1.744l-4.146,4.881a4.369,4.369,0,0,0-1.28,2.9A3.851,3.851,0,0,0,206.058,155.254Zm-6.291,0a2.441,2.441,0,1,1,2.449,2.449A2.429,2.429,0,0,1,199.767,155.254Zm16.771-.5v-3.169a4.033,4.033,0,1,0-8.051,0v3.169A4.033,4.033,0,1,0,216.538,154.757Zm-6.675,0v-3.169a2.662,2.662,0,1,1,5.3,0v3.169A2.662,2.662,0,1,1,209.863,154.757Zm14.914,1.889c0-1.2-.753-1.969-2.113-2.417l-0.865-.288c-0.944-.3-1.232-0.608-1.232-1.12a1.132,1.132,0,0,1,1.344-.929,2.16,2.16,0,0,1,1.7.833l0.9-.865a3.1,3.1,0,0,0-2.561-1.152c-1.584,0-2.705.88-2.705,2.177a2.417,2.417,0,0,0,1.985,2.321l0.784,0.256c1.041,0.336,1.425.72,1.425,1.28a1.218,1.218,0,0,1-1.409,1.089,2.148,2.148,0,0,1-2.048-1.265l-1.121.608a3.178,3.178,0,0,0,3.137,1.857C223.608,159.031,224.777,158.215,224.777,156.646Zm6.845-1.777a4.005,4.005,0,0,0,3.921,4.162,3.512,3.512,0,0,0,2.818-1.392v1.232h1.376v-8h-1.376V152.1a3.512,3.512,0,0,0-2.818-1.392A4,4,0,0,0,231.622,154.869Zm6.851,0a2.734,2.734,0,1,1-2.721-2.9A2.733,2.733,0,0,1,238.473,154.869Zm4.653,4H244.5V154.9c0-1.872,1.1-2.753,2.112-2.753a2.013,2.013,0,0,1,.753.128v-1.424a2.854,2.854,0,0,0-.625-0.064,2.38,2.38,0,0,0-2.24,1.632v-1.552h-1.377v8Zm6.656,0h1.377V154.9c0-1.808.912-2.929,2.208-2.929,1.041,0,1.569.9,1.569,2.193v4.706h1.377V154.9c0-1.808.9-2.929,2.192-2.929,1.041,0,1.585.9,1.585,2.193v4.706h1.377v-4.914c0-1.953-1.057-3.249-2.8-3.249a2.771,2.771,0,0,0-2.626,1.712,2.515,2.515,0,0,0-2.465-1.712,2.689,2.689,0,0,0-2.416,1.392v-1.232h-1.377v8Zm16.929,3.345,5.25-11.348h-1.537l-2.737,6.066-2.753-6.066h-1.521l3.506,7.587-1.745,3.761h1.537Zm11.663-6.434c0,1.985,1.184,3.249,2.945,3.249a2.754,2.754,0,0,0,2.465-1.392v1.232h1.377v-8h-1.377v3.969c0,1.841-.976,2.93-2.225,2.93-1.1,0-1.809-.849-1.809-2.193v-4.706h-1.376v4.914Zm10.176,3.089h1.376V154.9c0-1.872,1.025-2.929,2.321-2.929a1.921,1.921,0,0,1,1.889,2.177v4.722H295.5v-4.93a2.95,2.95,0,0,0-3.026-3.233,2.832,2.832,0,0,0-2.545,1.392v-1.232H288.55v8Zm11.888-11.124a0.966,0.966,0,0,0-.96-0.977,0.994,0.994,0,0,0-.992.977,0.983,0.983,0,0,0,.992.976A0.956,0.956,0,0,0,300.438,147.747Zm-1.664,11.124h1.376v-8h-1.376v8Zm5.456,0h1.376v-6.739h2.321v-1.264h-2.321V149.4a1.153,1.153,0,0,1,1.329-1.36,3.222,3.222,0,0,1,.992.16v-1.217a3.636,3.636,0,0,0-1.248-.208,2.286,2.286,0,0,0-2.449,2.481v1.617h-1.7v1.264h1.7v6.739Zm13.523-4a4.186,4.186,0,1,0-4.178,4.162A4.107,4.107,0,0,0,317.753,154.869Zm-6.963,0a2.779,2.779,0,1,1,2.785,2.882A2.751,2.751,0,0,1,310.79,154.869Zm9.727,4h1.377V154.9c0-1.872,1.1-2.753,2.113-2.753a2.011,2.011,0,0,1,.752.128v-1.424a2.851,2.851,0,0,0-.624-0.064,2.381,2.381,0,0,0-2.241,1.632v-1.552h-1.377v8Zm6.656,0h1.377V154.9c0-1.808.912-2.929,2.209-2.929,1.04,0,1.568.9,1.568,2.193v4.706H333.7V154.9c0-1.808.9-2.929,2.193-2.929,1.04,0,1.585.9,1.585,2.193v4.706h1.376v-4.914c0-1.953-1.056-3.249-2.8-3.249a2.769,2.769,0,0,0-2.625,1.712,2.516,2.516,0,0,0-2.465-1.712,2.689,2.689,0,0,0-2.417,1.392v-1.232h-1.377v8Zm20.146-2.225c0-1.2-.752-1.969-2.112-2.417l-0.865-.288c-0.944-.3-1.232-0.608-1.232-1.12a1.132,1.132,0,0,1,1.344-.929,2.16,2.16,0,0,1,1.7.833l0.9-.865a3.1,3.1,0,0,0-2.561-1.152c-1.584,0-2.7.88-2.7,2.177a2.416,2.416,0,0,0,1.985,2.321l0.784,0.256c1.041,0.336,1.425.72,1.425,1.28a1.218,1.218,0,0,1-1.409,1.089,2.15,2.15,0,0,1-2.049-1.265l-1.12.608a3.178,3.178,0,0,0,3.137,1.857C346.151,159.031,347.319,158.215,347.319,156.646Zm6.846-1.777a4,4,0,0,0,3.921,4.162,3.509,3.509,0,0,0,2.817-1.392v1.232h1.377v-12H360.9V152.1a3.509,3.509,0,0,0-2.817-1.392A4,4,0,0,0,354.165,154.869Zm6.85,0a2.734,2.734,0,1,1-2.721-2.9A2.733,2.733,0,0,1,361.015,154.869Zm4.542,0.913c0,1.985,1.184,3.249,2.945,3.249a2.754,2.754,0,0,0,2.465-1.392v1.232h1.376v-8h-1.376v3.969c0,1.841-.976,2.93-2.225,2.93-1.1,0-1.809-.849-1.809-2.193v-4.706h-1.376v4.914Zm9.551-.913a4.22,4.22,0,0,0,7.748,2.257l-1.089-.752a2.833,2.833,0,0,1-5.266-1.232h6.563a3.922,3.922,0,0,0,.016-0.417,3.729,3.729,0,0,0-3.81-4.017A4.056,4.056,0,0,0,375.108,154.869Zm4.114-2.945a2.4,2.4,0,0,1,2.449,2.1H376.6A2.617,2.617,0,0,1,379.222,151.924Zm15.376,6.835v-1.232a3.041,3.041,0,0,1-.976.16,1.153,1.153,0,0,1-1.329-1.361v-4.194H394.6v-1.264h-2.305v-2.225h-1.376v2.225h-1.7v1.264h1.7v4.37a2.252,2.252,0,0,0,2.449,2.449A3.828,3.828,0,0,0,394.6,158.759Zm10.178-3.89a4.186,4.186,0,1,0-4.178,4.162A4.107,4.107,0,0,0,404.776,154.869Zm-6.963,0a2.779,2.779,0,1,1,2.785,2.882A2.751,2.751,0,0,1,397.813,154.869Zm16.1-7.122a0.967,0.967,0,0,0-.961-0.977,0.994,0.994,0,0,0-.992.977,0.983,0.983,0,0,0,.992.976A0.957,0.957,0,0,0,413.909,147.747Zm-1.665,11.124h1.377v-8h-1.377v8Zm9.122-.112v-1.232a3.043,3.043,0,0,1-.977.16,1.153,1.153,0,0,1-1.328-1.361v-4.194h2.305v-1.264h-2.305v-2.225h-1.377v2.225h-1.7v1.264h1.7v4.37a2.253,2.253,0,0,0,2.449,2.449A3.83,3.83,0,0,0,421.366,158.759Zm7.744-2.113c0-1.2-.752-1.969-2.113-2.417l-0.864-.288c-0.945-.3-1.233-0.608-1.233-1.12a1.133,1.133,0,0,1,1.345-.929,2.163,2.163,0,0,1,1.7.833l0.9-.865a3.1,3.1,0,0,0-2.561-1.152c-1.585,0-2.7.88-2.7,2.177a2.416,2.416,0,0,0,1.985,2.321l0.784,0.256c1.04,0.336,1.425.72,1.425,1.28a1.219,1.219,0,0,1-1.409,1.089,2.149,2.149,0,0,1-2.049-1.265l-1.12.608a3.177,3.177,0,0,0,3.137,1.857C427.942,159.031,429.11,158.215,429.11,156.646Zm6.845-1.777a4.005,4.005,0,0,0,3.922,4.162,3.51,3.51,0,0,0,2.817-1.392v1.232h1.377v-12h-1.377V152.1a3.51,3.51,0,0,0-2.817-1.392A4.005,4.005,0,0,0,435.955,154.869Zm6.851,0a2.734,2.734,0,1,1-2.721-2.9A2.733,2.733,0,0,1,442.806,154.869Zm4.541,0.913c0,1.985,1.185,3.249,2.946,3.249a2.755,2.755,0,0,0,2.465-1.392v1.232h1.376v-8h-1.376v3.969c0,1.841-.977,2.93-2.225,2.93-1.105,0-1.809-.849-1.809-2.193v-4.706h-1.377v4.914Zm10.176,3.089H458.9V154.9c0-1.872,1.1-2.753,2.113-2.753a2.011,2.011,0,0,1,.752.128v-1.424a2.851,2.851,0,0,0-.624-0.064,2.38,2.38,0,0,0-2.241,1.632v-1.552h-1.377v8Zm5.76-4a4.005,4.005,0,0,0,3.922,4.162,3.51,3.51,0,0,0,2.817-1.392v1.232H471.4v-8h-1.376V152.1a3.51,3.51,0,0,0-2.817-1.392A4.005,4.005,0,0,0,463.283,154.869Zm6.851,0a2.734,2.734,0,1,1-2.721-2.9A2.733,2.733,0,0,1,470.134,154.869Zm6.03,2.77a3.509,3.509,0,0,0,2.817,1.392,4.169,4.169,0,0,0,0-8.323,3.509,3.509,0,0,0-2.817,1.392v-5.234h-1.377v12h1.377v-1.232Zm5.33-2.77a2.726,2.726,0,1,1-2.721-2.9A2.733,2.733,0,0,1,481.494,154.869Zm4.173,4h1.377v-12h-1.377v12Zm4.16-4a4.219,4.219,0,0,0,7.747,2.257l-1.089-.752a2.833,2.833,0,0,1-5.266-1.232h6.563a3.922,3.922,0,0,0,.016-0.417,3.729,3.729,0,0,0-3.81-4.017A4.055,4.055,0,0,0,489.827,154.869Zm4.113-2.945a2.4,2.4,0,0,1,2.449,2.1h-5.074A2.617,2.617,0,0,1,493.94,151.924Zm13.072,10.292,5.25-11.348h-1.537l-2.737,6.066-2.753-6.066h-1.521l3.506,7.587-1.745,3.761h1.537Zm6.623-7.347a4.219,4.219,0,0,0,7.747,2.257l-1.089-.752a2.833,2.833,0,0,1-5.266-1.232h6.563a3.922,3.922,0,0,0,.016-0.417,3.729,3.729,0,0,0-3.81-4.017A4.055,4.055,0,0,0,513.635,154.869Zm4.113-2.945a2.4,2.4,0,0,1,2.449,2.1h-5.074A2.617,2.617,0,0,1,517.748,151.924Zm10.833,6.835v-1.232a3.048,3.048,0,0,1-.977.16,1.153,1.153,0,0,1-1.328-1.361v-4.194h2.305v-1.264h-2.305v-2.225H524.9v2.225h-1.7v1.264h1.7v4.37a2.253,2.253,0,0,0,2.449,2.449A3.835,3.835,0,0,0,528.581,158.759Zm12.448-2.113c0-1.2-.752-1.969-2.113-2.417l-0.864-.288c-0.945-.3-1.233-0.608-1.233-1.12a1.133,1.133,0,0,1,1.345-.929,2.159,2.159,0,0,1,1.7.833l0.9-.865a3.106,3.106,0,0,0-2.561-1.152c-1.585,0-2.705.88-2.705,2.177a2.416,2.416,0,0,0,1.984,2.321l0.785,0.256c1.04,0.336,1.424.72,1.424,1.28a1.218,1.218,0,0,1-1.408,1.089,2.148,2.148,0,0,1-2.049-1.265l-1.121.608a3.18,3.18,0,0,0,3.138,1.857C539.86,159.031,541.029,158.215,541.029,156.646Zm10.5-1.777a4.186,4.186,0,1,0-4.178,4.162A4.107,4.107,0,0,0,551.526,154.869Zm-6.963,0a2.779,2.779,0,1,1,2.785,2.882A2.751,2.751,0,0,1,544.563,154.869Zm10.272,4h1.376v-6.739h2.113v-1.264h-2.113V149.4a1.152,1.152,0,0,1,1.329-1.36,3.222,3.222,0,0,1,.992.16v-1.217a3.636,3.636,0,0,0-1.248-.208,2.253,2.253,0,0,0-2.449,2.449v1.649h-1.7v1.264h1.7v6.739Zm9.588-.112v-1.232a3.155,3.155,0,0,1-.993.16,1.153,1.153,0,0,1-1.328-1.361v-4.194h2.321v-1.264H562.1v-2.225h-1.377v2.225h-1.5v1.264h1.5v4.37a2.265,2.265,0,0,0,2.465,2.449A3.994,3.994,0,0,0,564.423,158.759Zm11.325,0v-1.232a3.041,3.041,0,0,1-.976.16,1.153,1.153,0,0,1-1.329-1.361v-4.194h2.305v-1.264h-2.305v-2.225h-1.377v2.225h-1.7v1.264h1.7v4.37a2.253,2.253,0,0,0,2.449,2.449A3.83,3.83,0,0,0,575.748,158.759Zm1.822-3.89a4.219,4.219,0,0,0,7.747,2.257l-1.088-.752a2.833,2.833,0,0,1-5.266-1.232h6.562a3.922,3.922,0,0,0,.016-0.417,3.728,3.728,0,0,0-3.809-4.017A4.056,4.056,0,0,0,577.57,154.869Zm4.114-2.945a2.4,2.4,0,0,1,2.449,2.1h-5.074A2.616,2.616,0,0,1,581.684,151.924Zm5.118,6.947h1.713l2.433-3.025,2.433,3.025h1.7l-3.265-4.05,3.009-3.953H593.14l-2.192,2.881-2.209-2.881h-1.665l3.009,3.953Zm14.818-.112v-1.232a3.041,3.041,0,0,1-.976.16,1.153,1.153,0,0,1-1.329-1.361v-4.194h2.3v-1.264h-2.3v-2.225h-1.376v2.225h-1.7v1.264h1.7v4.37a2.252,2.252,0,0,0,2.449,2.449A3.828,3.828,0,0,0,601.62,158.759Zm2.446-2.977c0,1.985,1.185,3.249,2.945,3.249a2.753,2.753,0,0,0,2.465-1.392v1.232h1.377v-8h-1.377v3.969c0,1.841-.976,2.93-2.225,2.93-1.1,0-1.808-.849-1.808-2.193v-4.706h-1.377v4.914Zm10.176,3.089h1.377V154.9c0-1.872,1.1-2.753,2.113-2.753a2.011,2.011,0,0,1,.752.128v-1.424a2.851,2.851,0,0,0-.624-0.064,2.38,2.38,0,0,0-2.241,1.632v-1.552h-1.377v8Zm5.744-4a4.219,4.219,0,0,0,7.747,2.257l-1.088-.752a2.833,2.833,0,0,1-5.266-1.232h6.562a3.922,3.922,0,0,0,.016-0.417,3.728,3.728,0,0,0-3.809-4.017A4.056,4.056,0,0,0,619.986,154.869Zm4.114-2.945a2.4,2.4,0,0,1,2.449,2.1h-5.074A2.616,2.616,0,0,1,624.1,151.924Zm8.511,5.875a1.185,1.185,0,1,0-1.185,1.2A1.206,1.206,0,0,0,632.611,157.8Z"/>
</svg>
