<svg id="copy_copy_2" data-name="copy copy 2" xmlns="http://www.w3.org/2000/svg" width="720" height="269" viewBox="0 0 720 269">
  <defs>
    <style>
      .cls-1 {
        fill: #fff;
      }

      .cls-2 {
        fill-rule: evenodd;
      }
    </style>
  </defs>
  <rect id="Rectangle_106_copy_12" data-name="Rectangle 106 copy 12" class="cls-1" width="720" height="269"/>
  <g id="CTA_underline">
    <rect x="30" y="216" width="90" height="3"/>
    <path id="SHOP_now" data-name="SHOP now" class="cls-2" d="M33.395,211.2a3.12,3.12,0,0,0,3.422-3.065,3.049,3.049,0,0,0-2.277-2.967l-0.674-.252c-1.011-.378-1.482-0.616-1.482-1.148a0.984,0.984,0,0,1,1.159-.756,2.1,2.1,0,0,1,1.657.826l1.4-1.54a3.923,3.923,0,0,0-3.085-1.371,3,3,0,0,0-3.3,3.065c0,1.358.862,2.323,2.412,2.869L33.3,207.1c0.957,0.336,1.334.686,1.334,1.19a0.977,0.977,0,0,1-1.159.826,2.48,2.48,0,0,1-1.981-1.134l-1.644,1.442A4.141,4.141,0,0,0,33.395,211.2Zm7.332-.168h2.142V207.1h3.853v3.933h2.142V201.1H46.723v3.891H42.869V201.1H40.727v9.937ZM57.72,211.2a5.14,5.14,0,1,0-4.945-5.136A5.055,5.055,0,0,0,57.72,211.2Zm0-2.155a2.989,2.989,0,1,1,2.776-2.981A2.9,2.9,0,0,1,57.72,209.049ZM73.191,204.5a3.319,3.319,0,0,0-3.368-3.4H66.575v9.937h2.142v-3.149h1.1A3.308,3.308,0,0,0,73.191,204.5Zm-2.075,0a1.282,1.282,0,0,1-1.32,1.3H68.717v-2.6H69.8A1.274,1.274,0,0,1,71.116,204.5Zm19.54,6.536V201.1H88.5v6.13l-4.648-6.13H82.006v9.937h2.142v-6.144l4.662,6.144h1.846Zm8.855,0.168a5.14,5.14,0,1,0-4.945-5.136A5.056,5.056,0,0,0,99.511,211.2Zm0-2.155a2.989,2.989,0,1,1,2.775-2.981A2.9,2.9,0,0,1,99.511,209.049Zm16.265,1.987h2.035l2.223-9.937h-2.29l-1.307,6.3-2.695-6.466-2.681,6.466-1.307-6.3h-2.291l2.21,9.937h2.034l2.035-4.87Z"/>
  </g>
  <path id="Suede_Trucker_Jacket_Suede_b._2018_Banana_Republic_s_legacy_o" data-name="Suede Trucker Jacket Suede, b. 2018  Banana Republic’s legacy o" class="cls-2" d="M37.946,52.231c4.5,0,7.59-2.7,7.62-6.57,0.03-3.21-1.98-5.25-5.07-6.36l-1.5-.54c-2.25-.81-3.3-1.32-3.3-2.46,0-1.11,1.29-1.62,2.58-1.62a4.738,4.738,0,0,1,3.69,1.77l3.12-3.3a8.887,8.887,0,0,0-6.87-2.94c-4.26,0-7.35,2.43-7.35,6.57,0,2.91,1.92,4.98,5.37,6.15l1.5,0.51c2.13,0.72,2.97,1.47,2.97,2.55,0,1.02-.99,1.77-2.58,1.77a5.573,5.573,0,0,1-4.41-2.43l-3.66,3.09A9.34,9.34,0,0,0,37.946,52.231Zm20.94,0a8.353,8.353,0,0,0,8.76-8.79V30.572h-4.77V43.5a3.992,3.992,0,1,1-7.98,0V30.572h-4.77V43.441A8.337,8.337,0,0,0,58.886,52.231Zm14.52-.36h13.5v-4.56h-8.73V43.5h6.93v-4.56h-6.93v-3.81h8.73v-4.56h-13.5v21.3Zm18.63,0H99.3a10.652,10.652,0,1,0,0-21.3h-7.26v21.3Zm4.77-4.38V34.952H99.3a6.011,6.011,0,0,1,6.03,6.27,6.011,6.011,0,0,1-6.03,6.27h-2.49Zm18.181,4.38h13.5v-4.56h-8.73V43.5h6.93v-4.56h-6.93v-3.81h8.73v-4.56h-13.5v21.3Zm29.7,0h4.8V35.132h5.49v-4.56h-15.72v4.56h5.43V51.871Zm14.7,0h4.77v-8.79h0.78l7.08,8.79h5.729l-7.529-9.39c2.7-.96,4.17-2.73,4.17-5.49a6.288,6.288,0,0,0-6.6-6.42h-8.4v21.3Zm4.77-12.84v-4.08h3.06c1.41,0,2.43.75,2.43,2.04a2.156,2.156,0,0,1-2.43,2.04h-3.06Zm24.72,13.2a8.354,8.354,0,0,0,8.76-8.79V30.572h-4.77V43.5a3.992,3.992,0,1,1-7.98,0V30.572h-4.77V43.441A8.338,8.338,0,0,0,188.875,52.231Zm24.329,0a11.01,11.01,0,0,0,9.96-5.82l-4.2-2.28a6.39,6.39,0,1,1,0-5.82l4.2-2.28A11.1,11.1,0,1,0,213.2,52.231Zm14.251-.36h4.74v-9.54l8.669,9.54h6.12L236.874,40.8l8.4-10.229h-5.85l-7.229,8.91v-8.91h-4.74v21.3Zm22.5,0h13.5v-4.56h-8.729V43.5h6.929v-4.56h-6.929v-3.81h8.729v-4.56h-13.5v21.3Zm18.63,0h4.769v-8.79h0.78l7.08,8.79h5.73l-7.53-9.39c2.7-.96,4.17-2.73,4.17-5.49a6.288,6.288,0,0,0-6.6-6.42h-8.4v21.3Zm4.769-12.84v-4.08h3.06c1.41,0,2.43.75,2.43,2.04a2.156,2.156,0,0,1-2.43,2.04h-3.06Zm28.56,13.2c3.66,0,6.96-1.83,6.96-6.18V30.572H304.1V45.751a2.192,2.192,0,0,1-4.379-.12h-4.71C295.015,50.251,298.345,52.231,301.914,52.231Zm10.051-.36h4.979l1.89-4.5h8.82l1.89,4.5h4.98l-9.12-21.3h-4.32Zm8.609-8.64,2.67-6.42,2.67,6.42h-5.34Zm26.52,9a11.01,11.01,0,0,0,9.96-5.82l-4.2-2.28a6.39,6.39,0,1,1,0-5.82l4.2-2.28A11.1,11.1,0,1,0,347.094,52.231Zm14.251-.36h4.739v-9.54l8.67,9.54h6.12L370.764,40.8l8.4-10.229h-5.85l-7.23,8.91v-8.91h-4.739v21.3Zm22.5,0h13.5v-4.56h-8.73V43.5h6.93v-4.56h-6.93v-3.81h8.73v-4.56h-13.5v21.3Zm22.47,0h4.8V35.132h5.49v-4.56h-15.72v4.56h5.43V51.871ZM29.985,77.783a4.937,4.937,0,0,0,4.483,2.3c2.377,0,4.069-1.368,4.069-3.547,0-1.891-1.08-2.971-2.971-3.691l-1.549-.594c-1.3-.486-1.927-0.972-1.927-2.053,0-1.062,1.044-1.764,2.3-1.764a3.164,3.164,0,0,1,2.539,1.26l1.224-1.08a4.663,4.663,0,0,0-3.727-1.746c-2.287,0-4,1.314-4,3.4,0,1.747.9,2.791,2.9,3.529l1.693,0.648a2.323,2.323,0,0,1,1.837,2.161c0,1.188-1.044,1.909-2.359,1.909a3.572,3.572,0,0,1-3.169-1.747ZM41.5,76.4c0,2.233,1.332,3.655,3.313,3.655a3.1,3.1,0,0,0,2.773-1.566v1.386h1.548v-9H47.591v4.465c0,2.071-1.1,3.3-2.5,3.3-1.242,0-2.035-.954-2.035-2.467V70.868H41.5V76.4ZM52.25,75.37a4.746,4.746,0,0,0,8.715,2.539l-1.224-.846a3.187,3.187,0,0,1-5.924-1.386H61.2a4.393,4.393,0,0,0,.018-0.468,4.2,4.2,0,0,0-4.285-4.519A4.562,4.562,0,0,0,52.25,75.37Zm4.627-3.313a2.693,2.693,0,0,1,2.755,2.359H53.925A2.943,2.943,0,0,1,56.878,72.057Zm6.73,3.313a4.5,4.5,0,0,0,4.411,4.681,3.948,3.948,0,0,0,3.169-1.566v1.386h1.548v-13.5H71.189v5.888a3.948,3.948,0,0,0-3.169-1.566A4.5,4.5,0,0,0,63.608,75.37Zm7.706,0a3.075,3.075,0,1,1-3.061-3.259A3.074,3.074,0,0,1,71.315,75.37Zm4.534,0a4.746,4.746,0,0,0,8.715,2.539l-1.224-.846a3.187,3.187,0,0,1-5.924-1.386H84.8a4.393,4.393,0,0,0,.018-0.468,4.2,4.2,0,0,0-4.285-4.519A4.562,4.562,0,0,0,75.848,75.37Zm4.627-3.313a2.693,2.693,0,0,1,2.755,2.359H77.523A2.943,2.943,0,0,1,80.476,72.057Zm9.359,7.418a1.54,1.54,0,0,0,.252-0.81,1.333,1.333,0,1,0-2.665,0,1.34,1.34,0,0,0,.738,1.206l-1.206,2.575H87.98Zm10.421-.99a3.95,3.95,0,0,0,3.169,1.566,4.69,4.69,0,0,0,0-9.363,3.95,3.95,0,0,0-3.169,1.566V66.367H98.708v13.5h1.548V78.485Zm6-3.115a3.067,3.067,0,1,1-3.061-3.259A3.074,3.074,0,0,1,106.252,75.37Zm6.658,3.295a1.332,1.332,0,1,0-1.332,1.35A1.356,1.356,0,0,0,112.91,78.665Zm16.292-.288h-6.374c0.306-1.476,1.8-2.215,3.277-3.295,2.089-1.513,2.953-2.593,2.953-4.465a3.631,3.631,0,0,0-3.943-3.745A3.973,3.973,0,0,0,120.9,70.9h1.585a2.469,2.469,0,0,1,2.647-2.521,2.161,2.161,0,0,1,2.34,2.215c0,1.495-.792,2.161-2.268,3.259-1.891,1.4-4.286,2.665-4.286,5.4v0.612H129.2V78.377Zm11.916-3.133V71.679a4.537,4.537,0,1,0-9.057,0v3.565A4.537,4.537,0,1,0,141.118,75.244Zm-7.508,0V71.679c0-2.071,1.242-3.295,2.971-3.295,1.746,0,2.989,1.224,2.989,3.295v3.565c0,2.071-1.243,3.3-2.989,3.3C134.852,78.539,133.61,77.314,133.61,75.244Zm12.06,4.627h1.548V67.087h-2.755l-1.26,1.53h2.467V79.871Zm13.574-3.835a3.573,3.573,0,0,0-2-3.349,2.994,2.994,0,0,0,1.3-2.521,3.318,3.318,0,0,0-3.583-3.3,3.364,3.364,0,0,0-3.6,3.3,2.98,2.98,0,0,0,1.333,2.521,3.572,3.572,0,0,0-2.035,3.349A4.3,4.3,0,0,0,159.244,76.036ZM152.888,70.2a1.9,1.9,0,0,1,2.07-1.873,1.868,1.868,0,0,1,2.053,1.873,1.911,1.911,0,0,1-2.053,1.891A1.948,1.948,0,0,1,152.888,70.2Zm-0.666,5.834a2.537,2.537,0,0,1,2.736-2.557,2.553,2.553,0,1,1,0,5.1A2.544,2.544,0,0,1,152.222,76.036ZM30.841,127.871h4.066c2.3,0,3.81-1.424,3.81-3.313a2.707,2.707,0,0,0-1.969-2.721,2.577,2.577,0,0,0,1.216-2.321,3.112,3.112,0,0,0-3.393-3.009H30.841v11.364Zm1.489-6.483v-3.537h2.241a1.787,1.787,0,0,1,1.937,1.777,1.749,1.749,0,0,1-1.937,1.76H32.33Zm0,5.139v-3.858h2.657c1.5,0,2.273.832,2.273,1.937,0,1.12-.768,1.921-2.289,1.921H32.33Zm8.543-2.658a4.005,4.005,0,0,0,3.922,4.162,3.51,3.51,0,0,0,2.817-1.392v1.232h1.377v-8H47.612V121.1a3.51,3.51,0,0,0-2.817-1.392A4,4,0,0,0,40.873,123.869Zm6.851,0a2.734,2.734,0,1,1-2.721-2.9A2.733,2.733,0,0,1,47.724,123.869Zm4.653,4h1.377V123.9c0-1.872,1.024-2.929,2.321-2.929a1.921,1.921,0,0,1,1.889,2.177v4.722h1.361v-4.93a2.949,2.949,0,0,0-3.025-3.233,2.83,2.83,0,0,0-2.545,1.392v-1.232H52.377v8Zm9.6-4a4.005,4.005,0,0,0,3.922,4.162,3.51,3.51,0,0,0,2.817-1.392v1.232h1.377v-8H68.715V121.1a3.51,3.51,0,0,0-2.817-1.392A4,4,0,0,0,61.976,123.869Zm6.851,0a2.734,2.734,0,1,1-2.721-2.9A2.733,2.733,0,0,1,68.827,123.869Zm4.653,4h1.377V123.9c0-1.872,1.024-2.929,2.321-2.929a1.921,1.921,0,0,1,1.889,2.177v4.722h1.361v-4.93a2.949,2.949,0,0,0-3.025-3.233,2.83,2.83,0,0,0-2.545,1.392v-1.232H73.481v8Zm9.6-4A4.005,4.005,0,0,0,87,128.031a3.51,3.51,0,0,0,2.817-1.392v1.232H91.2v-8H89.819V121.1A3.51,3.51,0,0,0,87,119.708,4,4,0,0,0,83.08,123.869Zm6.851,0a2.734,2.734,0,1,1-2.721-2.9A2.733,2.733,0,0,1,89.931,123.869Zm9.565,4h1.489V122.7h1.1l4.37,5.17h1.873l-4.37-5.186a2.965,2.965,0,0,0,2.8-3.041,3.065,3.065,0,0,0-3.393-3.137H99.5v11.364Zm1.489-6.5v-3.489h2.209c1.3,0,2.08.608,2.08,1.761,0,1.136-.784,1.728-2.08,1.728h-2.209Zm8.4,2.5a4.219,4.219,0,0,0,7.747,2.257l-1.089-.752a2.833,2.833,0,0,1-5.266-1.232h6.563a3.922,3.922,0,0,0,.016-0.417,3.729,3.729,0,0,0-3.81-4.017A4.055,4.055,0,0,0,109.384,123.869Zm4.113-2.945a2.4,2.4,0,0,1,2.449,2.1h-5.074A2.617,2.617,0,0,1,113.5,120.924Zm6.607,10.292h1.376v-4.577a3.512,3.512,0,0,0,2.817,1.392,4.169,4.169,0,0,0,0-8.323,3.512,3.512,0,0,0-2.817,1.392v-1.232H120.1v11.348Zm6.707-7.347a2.727,2.727,0,1,1-2.722-2.9A2.734,2.734,0,0,1,126.811,123.869Zm4.077,0.913c0,1.985,1.184,3.249,2.945,3.249a2.754,2.754,0,0,0,2.465-1.392v1.232h1.376v-8H136.3v3.969c0,1.841-.977,2.93-2.225,2.93-1.1,0-1.809-.849-1.809-2.193v-4.706h-1.376v4.914Zm11.552,1.857a3.51,3.51,0,0,0,2.817,1.392,4.169,4.169,0,0,0,0-8.323,3.51,3.51,0,0,0-2.817,1.392v-5.234h-1.376v12h1.376v-1.232Zm5.33-2.77a2.726,2.726,0,1,1-2.721-2.9A2.733,2.733,0,0,1,147.77,123.869Zm4.173,4h1.377v-12h-1.377v12Zm6.449-11.124a0.966,0.966,0,0,0-.96-0.977,0.994,0.994,0,0,0-.993.977,0.984,0.984,0,0,0,.993.976A0.956,0.956,0,0,0,158.392,116.747Zm-1.665,11.124H158.1v-8h-1.377v8Zm12.051-1.985-1.2-.672a2.714,2.714,0,0,1-2.5,1.537,2.883,2.883,0,0,1,0-5.763,2.714,2.714,0,0,1,2.5,1.537l1.2-.672a4.143,4.143,0,0,0-3.7-2.145,4.162,4.162,0,1,0,0,8.323A4.143,4.143,0,0,0,168.778,125.886Zm4.414-7.651a1.414,1.414,0,0,0,.224-0.72,1.193,1.193,0,1,0-2.385,0,1.239,1.239,0,0,0,.657,1.072l-1.073,2.289h0.928Zm7.474,7.411c0-1.2-.753-1.969-2.113-2.417l-0.865-.288c-0.944-.3-1.232-0.608-1.232-1.12a1.132,1.132,0,0,1,1.344-.929,2.16,2.16,0,0,1,1.7.833l0.9-.865a3.1,3.1,0,0,0-2.561-1.152c-1.584,0-2.7.88-2.7,2.177a2.417,2.417,0,0,0,1.985,2.321l0.784,0.256c1.041,0.336,1.425.72,1.425,1.28a1.218,1.218,0,0,1-1.409,1.089,2.148,2.148,0,0,1-2.048-1.265l-1.121.608a3.178,3.178,0,0,0,3.137,1.857C179.5,128.031,180.666,127.215,180.666,125.646Zm7.469,2.225h1.377v-12h-1.377v12Zm4.16-4a4.219,4.219,0,0,0,7.747,2.257l-1.089-.752a2.833,2.833,0,0,1-5.266-1.232h6.563a3.922,3.922,0,0,0,.016-0.417,3.729,3.729,0,0,0-3.81-4.017A4.055,4.055,0,0,0,192.3,123.869Zm4.113-2.945a2.4,2.4,0,0,1,2.449,2.1h-5.074A2.617,2.617,0,0,1,196.408,120.924Zm14.066,6.483v-7.539H209.1V121.1a3.4,3.4,0,0,0-2.785-1.392,4.077,4.077,0,0,0,0,8.147,3.417,3.417,0,0,0,2.785-1.408v0.912a2.558,2.558,0,0,1-2.673,2.769,3.422,3.422,0,0,1-2.8-1.345l-0.96.961a4.752,4.752,0,0,0,3.777,1.633A3.705,3.705,0,0,0,210.474,127.407Zm-6.675-3.634a2.707,2.707,0,1,1,2.7,2.8A2.667,2.667,0,0,1,203.8,123.773Zm9.439,0.1a4.005,4.005,0,0,0,3.922,4.162,3.509,3.509,0,0,0,2.817-1.392v1.232h1.377v-8h-1.377V121.1a3.509,3.509,0,0,0-2.817-1.392A4.005,4.005,0,0,0,213.238,123.869Zm6.851,0a2.734,2.734,0,1,1-2.721-2.9A2.733,2.733,0,0,1,220.089,123.869Zm11.92,2.017-1.2-.672a2.714,2.714,0,0,1-2.5,1.537,2.883,2.883,0,0,1,0-5.763,2.714,2.714,0,0,1,2.5,1.537l1.2-.672A4.162,4.162,0,1,0,232.009,125.886Zm4.686,5.33,5.25-11.348h-1.536l-2.737,6.066-2.753-6.066H233.4l3.5,7.587-1.744,3.761H236.7Zm19.507-7.347a4.186,4.186,0,1,0-4.178,4.162A4.107,4.107,0,0,0,256.2,123.869Zm-6.963,0a2.779,2.779,0,1,1,2.785,2.882A2.751,2.751,0,0,1,249.239,123.869Zm10.272,4h1.376v-6.739h2.321v-1.264h-2.321V118.4a1.152,1.152,0,0,1,1.329-1.36,3.222,3.222,0,0,1,.992.16v-1.217a3.636,3.636,0,0,0-1.248-.208,2.286,2.286,0,0,0-2.449,2.481v1.617h-1.7v1.264h1.7v6.739Zm9.663-4a4.219,4.219,0,0,0,7.747,2.257l-1.088-.752a2.834,2.834,0,0,1-5.267-1.232h6.563a3.922,3.922,0,0,0,.016-0.417,3.729,3.729,0,0,0-3.809-4.017A4.056,4.056,0,0,0,269.174,123.869Zm4.114-2.945a2.4,2.4,0,0,1,2.449,2.1h-5.074A2.616,2.616,0,0,1,273.288,120.924Zm5.118,6.947h1.712l2.433-3.025,2.433,3.025h1.7l-3.265-4.05,3.009-3.953h-1.681l-2.193,2.881-2.208-2.881h-1.665l3.009,3.953Zm10.48,3.345h1.377v-4.577a3.509,3.509,0,0,0,2.817,1.392,4.169,4.169,0,0,0,0-8.323,3.509,3.509,0,0,0-2.817,1.392v-1.232h-1.377v11.348Zm6.707-7.347a2.726,2.726,0,1,1-2.721-2.9A2.733,2.733,0,0,1,295.593,123.869Zm4.189,4h1.377v-12h-1.377v12Zm12.515-4a4.186,4.186,0,1,0-4.178,4.162A4.107,4.107,0,0,0,312.3,123.869Zm-6.963,0a2.779,2.779,0,1,1,2.785,2.882A2.751,2.751,0,0,1,305.334,123.869Zm9.728,4h1.376V123.9c0-1.872,1.105-2.753,2.113-2.753a2.02,2.02,0,0,1,.753.128v-1.424a2.866,2.866,0,0,0-.625-0.064,2.382,2.382,0,0,0-2.241,1.632v-1.552h-1.376v8Zm5.76-4a4,4,0,0,0,3.921,4.162,3.509,3.509,0,0,0,2.817-1.392v1.232h1.377v-8H327.56V121.1a3.509,3.509,0,0,0-2.817-1.392A4,4,0,0,0,320.822,123.869Zm6.85,0a2.734,2.734,0,1,1-2.721-2.9A2.733,2.733,0,0,1,327.672,123.869Zm8.991,3.89v-1.232a3.041,3.041,0,0,1-.976.16,1.153,1.153,0,0,1-1.329-1.361v-4.194h2.305v-1.264h-2.305v-2.225h-1.376v2.225h-1.7v1.264h1.7v4.37a2.252,2.252,0,0,0,2.449,2.449A3.828,3.828,0,0,0,336.663,127.759Zm4.223-11.012a0.966,0.966,0,0,0-.96-0.977,1,1,0,0,0-.993.977,0.984,0.984,0,0,0,.993.976A0.956,0.956,0,0,0,340.886,116.747Zm-1.664,11.124H340.6v-8h-1.376v8Zm12.515-4a4.186,4.186,0,1,0-4.178,4.162A4.107,4.107,0,0,0,351.737,123.869Zm-6.963,0a2.779,2.779,0,1,1,2.785,2.882A2.751,2.751,0,0,1,344.774,123.869Zm9.727,4h1.377V123.9c0-1.872,1.024-2.929,2.321-2.929a1.922,1.922,0,0,1,1.889,2.177v4.722h1.36v-4.93a2.949,2.949,0,0,0-3.025-3.233,2.829,2.829,0,0,0-2.545,1.392v-1.232H354.5v8Zm11.937-.352a1.368,1.368,0,0,0,.224-0.72,1.185,1.185,0,1,0-2.369,0,1.191,1.191,0,0,0,.656,1.072l-1.072,2.289h0.912Zm7.263-3.65a4,4,0,0,0,3.921,4.162,3.509,3.509,0,0,0,2.817-1.392v1.232h1.377v-12h-1.377V121.1a3.509,3.509,0,0,0-2.817-1.392A4,4,0,0,0,373.7,123.869Zm6.85,0a2.734,2.734,0,1,1-2.721-2.9A2.733,2.733,0,0,1,380.551,123.869Zm6.318-7.122a0.966,0.966,0,0,0-.96-0.977,0.994,0.994,0,0,0-.992.977,0.983,0.983,0,0,0,.992.976A0.956,0.956,0,0,0,386.869,116.747Zm-1.664,11.124h1.376v-8h-1.376v8Zm9.97-2.225c0-1.2-.753-1.969-2.113-2.417l-0.865-.288c-0.944-.3-1.232-0.608-1.232-1.12a1.133,1.133,0,0,1,1.345-.929,2.159,2.159,0,0,1,1.7.833l0.9-.865a3.106,3.106,0,0,0-2.561-1.152c-1.585,0-2.706.88-2.706,2.177a2.417,2.417,0,0,0,1.985,2.321l0.785,0.256c1.04,0.336,1.424.72,1.424,1.28a1.218,1.218,0,0,1-1.408,1.089,2.148,2.148,0,0,1-2.049-1.265l-1.121.608a3.179,3.179,0,0,0,3.138,1.857C394.006,128.031,395.175,127.215,395.175,125.646Zm10.032,0.24-1.2-.672a2.714,2.714,0,0,1-2.5,1.537,2.883,2.883,0,0,1,0-5.763,2.714,2.714,0,0,1,2.5,1.537l1.2-.672A4.162,4.162,0,1,0,405.207,125.886Zm10.3-2.017a4.186,4.186,0,1,0-4.177,4.162A4.107,4.107,0,0,0,415.511,123.869Zm-6.962,0a2.779,2.779,0,1,1,2.785,2.882A2.751,2.751,0,0,1,408.549,123.869Zm12.048,4h1.153l3.7-8h-1.536l-2.738,6.05-2.737-6.05H416.9Zm6.239-4a4.219,4.219,0,0,0,7.747,2.257l-1.088-.752a2.833,2.833,0,0,1-5.266-1.232h6.562a3.922,3.922,0,0,0,.016-0.417A3.728,3.728,0,0,0,431,119.708,4.056,4.056,0,0,0,426.836,123.869Zm4.114-2.945a2.4,2.4,0,0,1,2.449,2.1h-5.074A2.616,2.616,0,0,1,430.95,120.924Zm6.606,6.947h1.377V123.9c0-1.872,1.1-2.753,2.113-2.753a2.011,2.011,0,0,1,.752.128v-1.424a2.851,2.851,0,0,0-.624-0.064,2.38,2.38,0,0,0-2.241,1.632v-1.552h-1.377v8Zm8.785,3.345,5.25-11.348h-1.536l-2.738,6.066-2.753-6.066h-1.52l3.5,7.587-1.745,3.761h1.537Zm11.151-7.347a4.005,4.005,0,0,0,3.921,4.162,3.512,3.512,0,0,0,2.818-1.392v1.232h1.376v-8h-1.376V121.1a3.512,3.512,0,0,0-2.818-1.392A4,4,0,0,0,457.492,123.869Zm6.851,0a2.734,2.734,0,1,1-2.721-2.9A2.733,2.733,0,0,1,464.343,123.869Zm4.653,4h1.377V123.9c0-1.872,1.024-2.929,2.32-2.929a1.921,1.921,0,0,1,1.889,2.177v4.722h1.361v-4.93a2.949,2.949,0,0,0-3.025-3.233,2.829,2.829,0,0,0-2.545,1.392v-1.232H469v8Zm9.6-4a4,4,0,0,0,3.921,4.162,3.509,3.509,0,0,0,2.817-1.392v1.232h1.377v-12h-1.377V121.1a3.509,3.509,0,0,0-2.817-1.392A4,4,0,0,0,478.6,123.869Zm6.85,0a2.734,2.734,0,1,1-2.721-2.9A2.733,2.733,0,0,1,485.446,123.869Zm8.733,0a4.005,4.005,0,0,0,3.922,4.162,3.51,3.51,0,0,0,2.817-1.392v1.232h1.376v-8h-1.376V121.1a3.51,3.51,0,0,0-2.817-1.392A4.005,4.005,0,0,0,494.179,123.869Zm6.851,0a2.734,2.734,0,1,1-2.721-2.9A2.733,2.733,0,0,1,501.03,123.869Zm4.029,0a4.005,4.005,0,0,0,3.922,4.162,3.51,3.51,0,0,0,2.817-1.392v1.232h1.376v-12H511.8V121.1a3.51,3.51,0,0,0-2.817-1.392A4.005,4.005,0,0,0,505.059,123.869Zm6.851,0a2.734,2.734,0,1,1-2.721-2.9A2.733,2.733,0,0,1,511.91,123.869Zm7.15,4h1.153l3.7-8h-1.537l-2.737,6.05-2.737-6.05h-1.536Zm6.239-4a4.219,4.219,0,0,0,7.747,2.257l-1.088-.752a2.834,2.834,0,0,1-5.267-1.232h6.563a3.922,3.922,0,0,0,.016-0.417,3.729,3.729,0,0,0-3.809-4.017A4.056,4.056,0,0,0,525.3,123.869Zm4.114-2.945a2.4,2.4,0,0,1,2.449,2.1h-5.075A2.618,2.618,0,0,1,529.413,120.924Zm6.606,6.947H537.4V123.9c0-1.872,1.024-2.929,2.321-2.929a1.921,1.921,0,0,1,1.888,2.177v4.722h1.361v-4.93a2.949,2.949,0,0,0-3.025-3.233A2.829,2.829,0,0,0,537.4,121.1v-1.232h-1.377v8Zm14.466-.112v-1.232a3.048,3.048,0,0,1-.977.16,1.153,1.153,0,0,1-1.328-1.361v-4.194h2.305v-1.264H548.18v-2.225H546.8v2.225h-1.7v1.264h1.7v4.37a2.253,2.253,0,0,0,2.449,2.449A3.835,3.835,0,0,0,550.485,127.759Zm2.446-2.977c0,1.985,1.184,3.249,2.945,3.249a2.754,2.754,0,0,0,2.465-1.392v1.232h1.377v-8h-1.377v3.969c0,1.841-.976,2.93-2.225,2.93-1.1,0-1.809-.849-1.809-2.193v-4.706h-1.376v4.914Zm10.176,3.089h1.376V123.9c0-1.872,1.105-2.753,2.113-2.753a2.011,2.011,0,0,1,.752.128v-1.424a2.851,2.851,0,0,0-.624-0.064,2.381,2.381,0,0,0-2.241,1.632v-1.552h-1.376v8Zm5.744-4a4.219,4.219,0,0,0,7.747,2.257l-1.089-.752a2.833,2.833,0,0,1-5.266-1.232h6.563a3.922,3.922,0,0,0,.016-0.417,3.729,3.729,0,0,0-3.81-4.017A4.055,4.055,0,0,0,568.851,123.869Zm4.113-2.945a2.4,2.4,0,0,1,2.449,2.1h-5.074A2.617,2.617,0,0,1,572.964,120.924ZM37.9,145.886l-1.2-.672a2.714,2.714,0,0,1-2.5,1.537,2.883,2.883,0,0,1,0-5.763,2.714,2.714,0,0,1,2.5,1.537l1.2-.672a4.144,4.144,0,0,0-3.7-2.145,4.162,4.162,0,1,0,0,8.323A4.144,4.144,0,0,0,37.9,145.886Zm10.3-2.017a4.186,4.186,0,1,0-4.178,4.162A4.107,4.107,0,0,0,48.2,143.869Zm-6.963,0a2.779,2.779,0,1,1,2.785,2.882A2.751,2.751,0,0,1,41.241,143.869Zm9.728,4h1.377V143.9c0-1.872,1.024-2.929,2.321-2.929a1.921,1.921,0,0,1,1.889,2.177v4.722h1.36v-4.93a2.949,2.949,0,0,0-3.025-3.233,2.83,2.83,0,0,0-2.545,1.392v-1.232H50.969v8Zm14.466-.112v-1.232a3.044,3.044,0,0,1-.976.16,1.153,1.153,0,0,1-1.329-1.361v-4.194h2.3v-1.264h-2.3v-2.225H61.753v2.225h-1.7v1.264h1.7v4.37a2.253,2.253,0,0,0,2.449,2.449A3.832,3.832,0,0,0,65.434,147.759Zm4.223-11.012a0.967,0.967,0,0,0-.96-0.977,0.994,0.994,0,0,0-.992.977,0.984,0.984,0,0,0,.992.976A0.956,0.956,0,0,0,69.657,136.747Zm-1.665,11.124h1.376v-8H67.993v8Zm4.784,0h1.377V143.9c0-1.872,1.024-2.929,2.321-2.929a1.921,1.921,0,0,1,1.889,2.177v4.722h1.361v-4.93a2.949,2.949,0,0,0-3.025-3.233,2.83,2.83,0,0,0-2.545,1.392v-1.232H72.776v8Zm10.112-3.089c0,1.985,1.185,3.249,2.945,3.249a2.754,2.754,0,0,0,2.465-1.392v1.232h1.377v-8H88.3v3.969c0,1.841-.976,2.93-2.225,2.93-1.1,0-1.809-.849-1.809-2.193v-4.706H82.888v4.914Zm9.552-.913a4.219,4.219,0,0,0,7.747,2.257l-1.088-.752a2.833,2.833,0,0,1-5.266-1.232H100.4a3.922,3.922,0,0,0,.016-0.417,3.729,3.729,0,0,0-3.809-4.017A4.056,4.056,0,0,0,92.44,143.869Zm4.114-2.945a2.4,2.4,0,0,1,2.449,2.1H93.928A2.617,2.617,0,0,1,96.554,140.924Zm11.793,4.722c0-1.2-.752-1.969-2.113-2.417l-0.864-.288c-0.945-.3-1.233-0.608-1.233-1.12a1.133,1.133,0,0,1,1.345-.929,2.163,2.163,0,0,1,1.7.833l0.9-.865a3.1,3.1,0,0,0-2.561-1.152c-1.585,0-2.7.88-2.7,2.177a2.416,2.416,0,0,0,1.985,2.321l0.784,0.256c1.04,0.336,1.425.72,1.425,1.28a1.219,1.219,0,0,1-1.409,1.089,2.149,2.149,0,0,1-2.049-1.265l-1.12.608a3.177,3.177,0,0,0,3.137,1.857C107.178,148.031,108.346,147.215,108.346,145.646Zm11.535,2.113v-1.232a3.041,3.041,0,0,1-.976.16,1.153,1.153,0,0,1-1.329-1.361v-4.194h2.305v-1.264h-2.305v-2.225H116.2v2.225h-1.7v1.264h1.7v4.37a2.252,2.252,0,0,0,2.449,2.449A3.828,3.828,0,0,0,119.881,147.759Zm10.178-3.89a4.186,4.186,0,1,0-4.178,4.162A4.107,4.107,0,0,0,130.059,143.869Zm-6.963,0a2.779,2.779,0,1,1,2.785,2.882A2.751,2.751,0,0,1,123.1,143.869Zm14.9,4h1.376v-6.739h2.321v-1.264h-2.321V138.4a1.153,1.153,0,0,1,1.329-1.36,3.222,3.222,0,0,1,.992.16v-1.217a3.636,3.636,0,0,0-1.248-.208,2.286,2.286,0,0,0-2.449,2.481v1.617h-1.7v1.264h1.7v6.739Zm5.887-3.089c0,1.985,1.185,3.249,2.946,3.249a2.755,2.755,0,0,0,2.465-1.392v1.232h1.376v-8H149.29v3.969c0,1.841-.977,2.93-2.225,2.93-1.1,0-1.809-.849-1.809-2.193v-4.706h-1.377v4.914Zm9.552-.913a4.219,4.219,0,0,0,7.747,2.257l-1.088-.752a2.833,2.833,0,0,1-5.266-1.232h6.562a3.922,3.922,0,0,0,.016-0.417,3.728,3.728,0,0,0-3.809-4.017A4.056,4.056,0,0,0,153.431,143.869Zm4.114-2.945a2.4,2.4,0,0,1,2.449,2.1H154.92A2.616,2.616,0,0,1,157.545,140.924Zm6.606,6.947h1.377v-12h-1.377v12Zm8.864-4a4.219,4.219,0,0,0,7.747,2.257l-1.089-.752a2.833,2.833,0,0,1-5.266-1.232h6.563a3.922,3.922,0,0,0,.016-0.417,3.729,3.729,0,0,0-3.81-4.017A4.055,4.055,0,0,0,173.015,143.869Zm4.113-2.945a2.4,2.4,0,0,1,2.449,2.1H174.5A2.617,2.617,0,0,1,177.128,140.924Zm5.983,2.945a4,4,0,0,0,3.921,4.162,3.509,3.509,0,0,0,2.817-1.392v1.232h1.377v-8h-1.377V141.1a3.509,3.509,0,0,0-2.817-1.392A4,4,0,0,0,183.111,143.869Zm6.85,0a2.734,2.734,0,1,1-2.721-2.9A2.733,2.733,0,0,1,189.961,143.869Zm11.921,2.017-1.2-.672a2.713,2.713,0,0,1-2.5,1.537,2.883,2.883,0,0,1,0-5.763,2.713,2.713,0,0,1,2.5,1.537l1.2-.672a4.145,4.145,0,0,0-3.7-2.145,4.162,4.162,0,1,0,0,8.323A4.145,4.145,0,0,0,201.882,145.886Zm2.573,1.985h1.376V143.9c0-1.872,1.024-2.929,2.321-2.929a1.922,1.922,0,0,1,1.889,2.177v4.722h1.36v-4.93a2.949,2.949,0,0,0-3.025-3.233,2.831,2.831,0,0,0-2.545,1.392v-5.234h-1.376v12Zm22.194-1.985-1.2-.672a2.715,2.715,0,0,1-2.5,1.537,2.883,2.883,0,0,1,0-5.763,2.715,2.715,0,0,1,2.5,1.537l1.2-.672a4.143,4.143,0,0,0-3.7-2.145,4.162,4.162,0,1,0,0,8.323A4.143,4.143,0,0,0,226.649,145.886Zm10.3-2.017a4.186,4.186,0,1,0-4.178,4.162A4.107,4.107,0,0,0,236.953,143.869Zm-6.963,0a2.779,2.779,0,1,1,2.785,2.882A2.751,2.751,0,0,1,229.99,143.869Zm9.728,4h1.376v-12h-1.376v12Zm4.784,0h1.376v-12H244.5v12Zm4.159-4a4.219,4.219,0,0,0,7.747,2.257l-1.088-.752a2.833,2.833,0,0,1-5.266-1.232h6.562a3.922,3.922,0,0,0,.016-0.417,3.728,3.728,0,0,0-3.809-4.017A4.056,4.056,0,0,0,248.661,143.869Zm4.114-2.945a2.4,2.4,0,0,1,2.449,2.1H250.15A2.616,2.616,0,0,1,252.775,140.924Zm13.873,4.962-1.2-.672a2.714,2.714,0,0,1-2.5,1.537,2.883,2.883,0,0,1,0-5.763,2.714,2.714,0,0,1,2.5,1.537l1.2-.672A4.162,4.162,0,1,0,266.648,145.886Zm6.911,1.873v-1.232a3.041,3.041,0,0,1-.976.16,1.153,1.153,0,0,1-1.329-1.361v-4.194h2.305v-1.264h-2.305v-2.225h-1.377v2.225h-1.7v1.264h1.7v4.37a2.253,2.253,0,0,0,2.449,2.449A3.83,3.83,0,0,0,273.559,147.759Zm4.223-11.012a0.967,0.967,0,0,0-.961-0.977,0.994,0.994,0,0,0-.992.977,0.983,0.983,0,0,0,.992.976A0.957,0.957,0,0,0,277.782,136.747Zm-1.665,11.124h1.377v-8h-1.377v8Zm12.515-4a4.186,4.186,0,1,0-4.178,4.162A4.107,4.107,0,0,0,288.632,143.869Zm-6.963,0a2.779,2.779,0,1,1,2.785,2.882A2.751,2.751,0,0,1,281.669,143.869Zm9.728,4h1.376V143.9c0-1.872,1.025-2.929,2.321-2.929a1.921,1.921,0,0,1,1.889,2.177v4.722h1.361v-4.93a2.95,2.95,0,0,0-3.026-3.233,2.832,2.832,0,0,0-2.545,1.392v-1.232H291.4v8Zm12.128-1.072a1.185,1.185,0,1,0-1.184,1.2A1.206,1.206,0,0,0,303.525,146.8Zm9.617,1.072H314.6v-9.956h3.538v-1.408H309.6v1.408h3.538v9.956Zm7.247,0h1.376V143.9c0-1.872,1.025-2.929,2.321-2.929a1.921,1.921,0,0,1,1.889,2.177v4.722h1.36v-4.93a2.949,2.949,0,0,0-3.025-3.233,2.831,2.831,0,0,0-2.545,1.392v-5.234h-1.376v12Zm11.888-11.124a0.966,0.966,0,0,0-.96-0.977,0.994,0.994,0,0,0-.993.977,0.984,0.984,0,0,0,.993.976A0.956,0.956,0,0,0,332.277,136.747Zm-1.665,11.124h1.377v-8h-1.377v8Zm9.97-2.225c0-1.2-.752-1.969-2.112-2.417l-0.865-.288c-0.944-.3-1.232-0.608-1.232-1.12a1.132,1.132,0,0,1,1.344-.929,2.16,2.16,0,0,1,1.7.833l0.9-.865a3.1,3.1,0,0,0-2.561-1.152c-1.584,0-2.705.88-2.705,2.177a2.416,2.416,0,0,0,1.985,2.321l0.784,0.256c1.041,0.336,1.425.72,1.425,1.28a1.218,1.218,0,0,1-1.409,1.089,2.15,2.15,0,0,1-2.049-1.265l-1.12.608a3.178,3.178,0,0,0,3.137,1.857C339.414,148.031,340.582,147.215,340.582,145.646Zm6.75,0.368a4.387,4.387,0,0,0,3.985,2.049c2.113,0,3.618-1.216,3.618-3.153,0-1.681-.961-2.641-2.641-3.281l-1.377-.529c-1.152-.432-1.713-0.864-1.713-1.824a1.81,1.81,0,0,1,2.049-1.569,2.812,2.812,0,0,1,2.257,1.12l1.089-.96a4.148,4.148,0,0,0-3.314-1.553c-2.033,0-3.553,1.169-3.553,3.026,0,1.552.8,2.481,2.577,3.137l1.5,0.576a2.066,2.066,0,0,1,1.633,1.921,1.846,1.846,0,0,1-2.1,1.7,3.177,3.177,0,0,1-2.817-1.553Zm10.24-1.232c0,1.985,1.184,3.249,2.945,3.249a2.754,2.754,0,0,0,2.465-1.392v1.232h1.376v-8h-1.376v3.969c0,1.841-.976,2.93-2.225,2.93-1.1,0-1.809-.849-1.809-2.193v-4.706h-1.376v4.914Zm9.551-.913a4.22,4.22,0,0,0,7.748,2.257l-1.089-.752a2.833,2.833,0,0,1-5.266-1.232h6.563a3.922,3.922,0,0,0,.016-0.417,3.729,3.729,0,0,0-3.81-4.017A4.056,4.056,0,0,0,367.123,143.869Zm4.114-2.945a2.4,2.4,0,0,1,2.449,2.1h-5.074A2.617,2.617,0,0,1,371.237,140.924Zm5.982,2.945a4.005,4.005,0,0,0,3.922,4.162,3.51,3.51,0,0,0,2.817-1.392v1.232h1.377v-12h-1.377V141.1a3.51,3.51,0,0,0-2.817-1.392A4.005,4.005,0,0,0,377.219,143.869Zm6.851,0a2.734,2.734,0,1,1-2.721-2.9A2.733,2.733,0,0,1,384.07,143.869Zm4.029,0a4.219,4.219,0,0,0,7.747,2.257l-1.088-.752a2.833,2.833,0,0,1-5.266-1.232h6.562a3.922,3.922,0,0,0,.016-0.417,3.728,3.728,0,0,0-3.809-4.017A4.056,4.056,0,0,0,388.1,143.869Zm4.114-2.945a2.4,2.4,0,0,1,2.449,2.1h-5.074A2.616,2.616,0,0,1,392.213,140.924Zm13.295,6.947h1.457v-9.956H410.5v-1.408h-8.531v1.408h3.537v9.956Zm5.919,0H412.8V143.9c0-1.872,1.1-2.753,2.113-2.753a2.011,2.011,0,0,1,.752.128v-1.424a2.851,2.851,0,0,0-.624-0.064,2.38,2.38,0,0,0-2.241,1.632v-1.552h-1.377v8Zm6.544-3.089c0,1.985,1.185,3.249,2.945,3.249a2.753,2.753,0,0,0,2.465-1.392v1.232h1.377v-8h-1.377v3.969c0,1.841-.976,2.93-2.225,2.93-1.1,0-1.808-.849-1.808-2.193v-4.706h-1.377v4.914Zm17.443,1.1-1.2-.672a2.713,2.713,0,0,1-2.5,1.537,2.883,2.883,0,0,1,0-5.763,2.713,2.713,0,0,1,2.5,1.537l1.2-.672a4.144,4.144,0,0,0-3.7-2.145,4.162,4.162,0,1,0,0,8.323A4.144,4.144,0,0,0,435.414,145.886Zm2.573,1.985h1.376v-4l4.338,4h1.857l-4.818-4.466,3.937-3.537h-1.824l-3.49,3.121v-7.123h-1.376v12Zm8.287-4a4.219,4.219,0,0,0,7.747,2.257l-1.088-.752a2.833,2.833,0,0,1-5.266-1.232h6.563a3.922,3.922,0,0,0,.016-0.417,3.729,3.729,0,0,0-3.81-4.017A4.056,4.056,0,0,0,446.274,143.869Zm4.114-2.945a2.4,2.4,0,0,1,2.449,2.1h-5.074A2.617,2.617,0,0,1,450.388,140.924Zm6.606,6.947h1.377V143.9c0-1.872,1.1-2.753,2.113-2.753a2.011,2.011,0,0,1,.752.128v-1.424a2.851,2.851,0,0,0-.624-0.064,2.381,2.381,0,0,0-2.241,1.632v-1.552h-1.377v8Zm16.227-3.137v-8.227h-1.473v8.067a1.815,1.815,0,0,1-1.873,2.113,1.778,1.778,0,0,1-1.888-1.857h-1.473a3.128,3.128,0,0,0,3.378,3.233A3.069,3.069,0,0,0,473.221,144.734Zm2.749-.865a4.005,4.005,0,0,0,3.922,4.162,3.51,3.51,0,0,0,2.817-1.392v1.232h1.376v-8h-1.376V141.1a3.51,3.51,0,0,0-2.817-1.392A4.005,4.005,0,0,0,475.97,143.869Zm6.851,0a2.734,2.734,0,1,1-2.721-2.9A2.733,2.733,0,0,1,482.821,143.869Zm11.92,2.017-1.2-.672a2.714,2.714,0,0,1-2.5,1.537,2.883,2.883,0,0,1,0-5.763,2.714,2.714,0,0,1,2.5,1.537l1.2-.672a4.143,4.143,0,0,0-3.7-2.145,4.162,4.162,0,1,0,0,8.323A4.143,4.143,0,0,0,494.741,145.886Zm2.573,1.985h1.377v-4l4.337,4h1.857l-4.818-4.466,3.938-3.537H502.18l-3.489,3.121v-7.123h-1.377v12Zm8.288-4a4.219,4.219,0,0,0,7.747,2.257l-1.089-.752a2.833,2.833,0,0,1-5.266-1.232h6.563a3.922,3.922,0,0,0,.016-0.417,3.729,3.729,0,0,0-3.81-4.017A4.055,4.055,0,0,0,505.6,143.869Zm4.113-2.945a2.4,2.4,0,0,1,2.449,2.1H507.09A2.617,2.617,0,0,1,509.715,140.924Zm10.833,6.835v-1.232a3.048,3.048,0,0,1-.977.16,1.153,1.153,0,0,1-1.328-1.361v-4.194h2.3v-1.264h-2.3v-2.225h-1.377v2.225h-1.7v1.264h1.7v4.37a2.253,2.253,0,0,0,2.449,2.449A3.835,3.835,0,0,0,520.548,147.759Zm8.926-11.012a0.966,0.966,0,0,0-.96-0.977,0.994,0.994,0,0,0-.992.977,0.983,0.983,0,0,0,.992.976A0.956,0.956,0,0,0,529.474,136.747Zm-1.664,11.124h1.376v-8H527.81v8Zm9.97-2.225c0-1.2-.753-1.969-2.113-2.417l-0.864-.288c-0.945-.3-1.233-0.608-1.233-1.12a1.133,1.133,0,0,1,1.345-.929,2.159,2.159,0,0,1,1.7.833l0.9-.865a3.106,3.106,0,0,0-2.561-1.152c-1.585,0-2.706.88-2.706,2.177a2.417,2.417,0,0,0,1.985,2.321l0.785,0.256c1.04,0.336,1.424.72,1.424,1.28a1.218,1.218,0,0,1-1.408,1.089,2.148,2.148,0,0,1-2.049-1.265l-1.121.608A3.18,3.18,0,0,0,535,148.031C536.611,148.031,537.78,147.215,537.78,145.646Zm9.134-8.9a0.966,0.966,0,0,0-.96-0.977,0.994,0.994,0,0,0-.993.977,0.984,0.984,0,0,0,.993.976A0.956,0.956,0,0,0,546.914,136.747Zm-1.665,11.124h1.377v-8h-1.377v8Zm4.784,0h1.377V143.9c0-1.872,1.024-2.929,2.321-2.929a1.921,1.921,0,0,1,1.888,2.177v4.722h1.361v-4.93a2.949,2.949,0,0,0-3.025-3.233,2.829,2.829,0,0,0-2.545,1.392v-1.232h-1.377v8Zm15.41-2.225c0-1.2-.752-1.969-2.113-2.417l-0.864-.288c-0.944-.3-1.233-0.608-1.233-1.12a1.133,1.133,0,0,1,1.345-.929,2.163,2.163,0,0,1,1.7.833l0.9-.865a3.1,3.1,0,0,0-2.561-1.152c-1.585,0-2.705.88-2.705,2.177a2.416,2.416,0,0,0,1.985,2.321l0.784,0.256c1.04,0.336,1.425.72,1.425,1.28a1.219,1.219,0,0,1-1.409,1.089,2.149,2.149,0,0,1-2.049-1.265l-1.12.608a3.177,3.177,0,0,0,3.137,1.857C564.275,148.031,565.443,147.215,565.443,145.646Zm2.766,5.57h1.376v-4.577a3.512,3.512,0,0,0,2.818,1.392,4.169,4.169,0,0,0,0-8.323,3.512,3.512,0,0,0-2.818,1.392v-1.232h-1.376v11.348Zm6.707-7.347a2.727,2.727,0,1,1-2.722-2.9A2.734,2.734,0,0,1,574.916,143.869Zm5.853-7.122a0.966,0.966,0,0,0-.96-0.977,0.994,0.994,0,0,0-.992.977,0.983,0.983,0,0,0,.992.976A0.956,0.956,0,0,0,580.769,136.747Zm-1.664,11.124h1.376v-8h-1.376v8Zm4.784,0h1.376V143.9c0-1.872,1.105-2.753,2.113-2.753a2.011,2.011,0,0,1,.752.128v-1.424a2.851,2.851,0,0,0-.624-0.064,2.381,2.381,0,0,0-2.241,1.632v-1.552h-1.376v8Zm5.744-4a4.219,4.219,0,0,0,7.747,2.257l-1.089-.752a2.833,2.833,0,0,1-5.266-1.232h6.563a3.922,3.922,0,0,0,.016-0.417,3.729,3.729,0,0,0-3.81-4.017A4.055,4.055,0,0,0,589.633,143.869Zm4.113-2.945a2.4,2.4,0,0,1,2.449,2.1h-5.074A2.617,2.617,0,0,1,593.746,140.924Zm5.982,2.945a4.005,4.005,0,0,0,3.922,4.162,3.509,3.509,0,0,0,2.817-1.392v1.232h1.377v-12h-1.377V141.1a3.509,3.509,0,0,0-2.817-1.392A4.005,4.005,0,0,0,599.728,143.869Zm6.851,0a2.734,2.734,0,1,1-2.721-2.9A2.733,2.733,0,0,1,606.579,143.869ZM32.01,166.639a3.51,3.51,0,0,0,2.817,1.392,4.169,4.169,0,0,0,0-8.323A3.51,3.51,0,0,0,32.01,161.1v-5.234H30.633v12H32.01v-1.232Zm5.33-2.77a2.726,2.726,0,1,1-2.721-2.9A2.733,2.733,0,0,1,37.34,163.869Zm6.142,7.347,5.25-11.348H47.2l-2.737,6.066-2.753-6.066H40.185l3.505,7.587-1.745,3.761h1.537Zm19.042-5.33-1.2-.672a2.714,2.714,0,0,1-2.5,1.537,2.883,2.883,0,0,1,0-5.763,2.714,2.714,0,0,1,2.5,1.537l1.2-.672a4.144,4.144,0,0,0-3.7-2.145,4.162,4.162,0,1,0,0,8.323A4.144,4.144,0,0,0,62.524,165.886Zm2.573,1.985h1.377v-12H65.1v12Zm4.16-4a4.005,4.005,0,0,0,3.922,4.162A3.51,3.51,0,0,0,76,166.639v1.232h1.377v-8H76V161.1a3.51,3.51,0,0,0-2.817-1.392A4,4,0,0,0,69.256,163.869Zm6.851,0a2.734,2.734,0,1,1-2.721-2.9A2.733,2.733,0,0,1,76.107,163.869Zm9.839,1.777c0-1.2-.752-1.969-2.113-2.417l-0.864-.288c-0.944-.3-1.233-0.608-1.233-1.12a1.133,1.133,0,0,1,1.345-.929,2.161,2.161,0,0,1,1.7.833l0.9-.865a3.1,3.1,0,0,0-2.561-1.152c-1.585,0-2.705.88-2.705,2.177a2.416,2.416,0,0,0,1.985,2.321l0.784,0.256c1.04,0.336,1.425.72,1.425,1.28a1.218,1.218,0,0,1-1.409,1.089,2.149,2.149,0,0,1-2.049-1.265l-1.12.608a3.178,3.178,0,0,0,3.137,1.857C84.778,168.031,85.947,167.215,85.947,165.646Zm7.936,0c0-1.2-.752-1.969-2.113-2.417l-0.864-.288c-0.944-.3-1.233-0.608-1.233-1.12a1.133,1.133,0,0,1,1.345-.929,2.16,2.16,0,0,1,1.7.833l0.9-.865a3.1,3.1,0,0,0-2.561-1.152c-1.585,0-2.705.88-2.705,2.177a2.416,2.416,0,0,0,1.985,2.321l0.784,0.256c1.04,0.336,1.425.72,1.425,1.28a1.218,1.218,0,0,1-1.409,1.089,2.149,2.149,0,0,1-2.049-1.265l-1.121.608a3.178,3.178,0,0,0,3.137,1.857C92.714,168.031,93.883,167.215,93.883,165.646Zm4.43-8.9a0.967,0.967,0,0,0-.96-0.977,0.994,0.994,0,0,0-.992.977,0.984,0.984,0,0,0,.992.976A0.956,0.956,0,0,0,98.313,156.747Zm-1.665,11.124h1.376v-8H96.648v8Zm12.051-1.985-1.2-.672a2.715,2.715,0,0,1-2.5,1.537,2.883,2.883,0,0,1,0-5.763,2.715,2.715,0,0,1,2.5,1.537l1.2-.672a4.143,4.143,0,0,0-3.7-2.145,4.162,4.162,0,1,0,0,8.323A4.143,4.143,0,0,0,108.7,165.886Zm4.286,1.633a1.368,1.368,0,0,0,.224-0.72,1.185,1.185,0,1,0-2.369,0,1.191,1.191,0,0,0,.656,1.072l-1.072,2.289h0.912Zm7.775-2.737c0,1.985,1.184,3.249,2.945,3.249a2.754,2.754,0,0,0,2.465-1.392v1.232h1.376v-8H126.17v3.969c0,1.841-.977,2.93-2.225,2.93-1.1,0-1.809-.849-1.809-2.193v-4.706H120.76v4.914Zm14.513,2.977v-1.232a3.041,3.041,0,0,1-.976.16,1.153,1.153,0,0,1-1.329-1.361v-4.194h2.305v-1.264h-2.305v-2.225h-1.376v2.225h-1.7v1.264h1.7v4.37a2.252,2.252,0,0,0,2.449,2.449A3.828,3.828,0,0,0,135.273,167.759Zm4.223-11.012a0.966,0.966,0,0,0-.96-0.977,1,1,0,0,0-.993.977,0.984,0.984,0,0,0,.993.976A0.956,0.956,0,0,0,139.5,156.747Zm-1.664,11.124h1.376v-8h-1.376v8Zm4.783,0h1.377v-12h-1.377v12Zm6.449-11.124a0.966,0.966,0,0,0-.96-0.977,0.994,0.994,0,0,0-.993.977,0.984,0.984,0,0,0,.993.976A0.956,0.956,0,0,0,149.064,156.747ZM147.4,167.871h1.377v-8H147.4v8Zm9.122-.112v-1.232a3.041,3.041,0,0,1-.976.16,1.153,1.153,0,0,1-1.329-1.361v-4.194h2.3v-1.264h-2.3v-2.225h-1.377v2.225h-1.7v1.264h1.7v4.37a2.253,2.253,0,0,0,2.449,2.449A3.83,3.83,0,0,0,156.521,167.759Zm1.822-3.89a4.005,4.005,0,0,0,3.922,4.162,3.51,3.51,0,0,0,2.817-1.392v1.232h1.376v-8h-1.376V161.1a3.51,3.51,0,0,0-2.817-1.392A4.005,4.005,0,0,0,158.343,163.869Zm6.851,0a2.734,2.734,0,1,1-2.721-2.9A2.733,2.733,0,0,1,165.194,163.869Zm4.653,4h1.377V163.9c0-1.872,1.1-2.753,2.113-2.753a2.011,2.011,0,0,1,.752.128v-1.424a2.851,2.851,0,0,0-.624-0.064,2.38,2.38,0,0,0-2.241,1.632v-1.552h-1.377v8Zm8.321-11.124a0.967,0.967,0,0,0-.961-0.977,0.994,0.994,0,0,0-.992.977,0.983,0.983,0,0,0,.992.976A0.957,0.957,0,0,0,178.168,156.747ZM176.5,167.871h1.377v-8H176.5v8Zm4.16-4a4,4,0,0,0,3.921,4.162,3.512,3.512,0,0,0,2.818-1.392v1.232h1.376v-8H187.4V161.1a3.512,3.512,0,0,0-2.818-1.392A4,4,0,0,0,180.663,163.869Zm6.851,0a2.734,2.734,0,1,1-2.722-2.9A2.734,2.734,0,0,1,187.514,163.869Zm4.653,4h1.376V163.9c0-1.872,1.025-2.929,2.321-2.929a1.921,1.921,0,0,1,1.889,2.177v4.722h1.361v-4.93a2.95,2.95,0,0,0-3.026-3.233,2.832,2.832,0,0,0-2.545,1.392v-1.232h-1.376v8Zm20.114-2.225c0-1.2-.753-1.969-2.113-2.417l-0.865-.288c-0.944-.3-1.232-0.608-1.232-1.12a1.132,1.132,0,0,1,1.344-.929,2.16,2.16,0,0,1,1.7.833l0.9-.865a3.1,3.1,0,0,0-2.561-1.152c-1.584,0-2.705.88-2.705,2.177a2.417,2.417,0,0,0,1.985,2.321l0.784,0.256c1.041,0.336,1.425.72,1.425,1.28a1.218,1.218,0,0,1-1.409,1.089,2.148,2.148,0,0,1-2.048-1.265l-1.121.608a3.178,3.178,0,0,0,3.137,1.857C211.112,168.031,212.281,167.215,212.281,165.646Zm7.007,2.113v-1.232a3.041,3.041,0,0,1-.976.16,1.153,1.153,0,0,1-1.329-1.361v-4.194h2.305v-1.264h-2.305v-2.225h-1.376v2.225h-1.7v1.264h1.7v4.37a2.252,2.252,0,0,0,2.449,2.449A3.828,3.828,0,0,0,219.288,167.759Zm4.687,3.457,5.25-11.348h-1.536l-2.737,6.066-2.753-6.066h-1.521l3.5,7.587-1.744,3.761h1.536Zm7.423-3.345h1.377v-12H231.4v12Zm4.16-4a4.219,4.219,0,0,0,7.747,2.257l-1.088-.752a2.833,2.833,0,0,1-5.266-1.232h6.562a3.922,3.922,0,0,0,.016-0.417,3.729,3.729,0,0,0-3.809-4.017A4.056,4.056,0,0,0,235.558,163.869Zm4.114-2.945a2.4,2.4,0,0,1,2.449,2.1h-5.074A2.616,2.616,0,0,1,239.672,160.924Zm8.319,6.595a1.368,1.368,0,0,0,.224-0.72,1.185,1.185,0,1,0-2.369,0,1.191,1.191,0,0,0,.656,1.072l-1.072,2.289h0.912Zm7.887,0.352h1.376V163.9c0-1.872,1.1-2.753,2.113-2.753a2.02,2.02,0,0,1,.753.128v-1.424a2.866,2.866,0,0,0-.625-0.064,2.382,2.382,0,0,0-2.241,1.632v-1.552h-1.376v8Zm5.744-4a4.219,4.219,0,0,0,7.747,2.257l-1.089-.752a2.833,2.833,0,0,1-5.266-1.232h6.563a3.922,3.922,0,0,0,.016-0.417,3.729,3.729,0,0,0-3.81-4.017A4.055,4.055,0,0,0,261.622,163.869Zm4.113-2.945a2.4,2.4,0,0,1,2.449,2.1H263.11A2.617,2.617,0,0,1,265.735,160.924Zm6.351,3.154h4.081V162.7h-4.081v1.377Zm8.9-7.331a0.966,0.966,0,0,0-.96-0.977,0.994,0.994,0,0,0-.992.977,0.983,0.983,0,0,0,.992.976A0.956,0.956,0,0,0,280.982,156.747Zm-1.664,11.124h1.376v-8h-1.376v8Zm4.784,0h1.376V163.9c0-1.808.912-2.929,2.209-2.929,1.04,0,1.569.9,1.569,2.193v4.706h1.376V163.9c0-1.808.9-2.929,2.193-2.929,1.041,0,1.585.9,1.585,2.193v4.706h1.376v-4.914c0-1.953-1.056-3.249-2.8-3.249a2.77,2.77,0,0,0-2.625,1.712,2.515,2.515,0,0,0-2.465-1.712,2.691,2.691,0,0,0-2.417,1.392v-1.232H284.1v8Zm14.335-4a4.005,4.005,0,0,0,3.922,4.162,3.51,3.51,0,0,0,2.817-1.392v1.232h1.376v-8h-1.376V161.1a3.51,3.51,0,0,0-2.817-1.392A4.005,4.005,0,0,0,298.437,163.869Zm6.851,0a2.734,2.734,0,1,1-2.721-2.9A2.733,2.733,0,0,1,305.288,163.869Zm12.112,3.538v-7.539h-1.376V161.1a3.406,3.406,0,0,0-2.785-1.392,4.077,4.077,0,0,0,0,8.147,3.418,3.418,0,0,0,2.785-1.408v0.912a2.558,2.558,0,0,1-2.673,2.769,3.421,3.421,0,0,1-2.8-1.345l-0.961.961a4.753,4.753,0,0,0,3.778,1.633A3.7,3.7,0,0,0,317.4,167.407Zm-6.674-3.634a2.707,2.707,0,1,1,2.7,2.8A2.667,2.667,0,0,1,310.726,163.773Zm11.728-7.026a0.967,0.967,0,0,0-.961-0.977,0.994,0.994,0,0,0-.992.977,0.983,0.983,0,0,0,.992.976A0.957,0.957,0,0,0,322.454,156.747Zm-1.665,11.124h1.377v-8h-1.377v8Zm4.784,0h1.377V163.9c0-1.872,1.024-2.929,2.32-2.929a1.921,1.921,0,0,1,1.889,2.177v4.722h1.361v-4.93a2.949,2.949,0,0,0-3.025-3.233,2.829,2.829,0,0,0-2.545,1.392v-1.232h-1.377v8Zm9.6-4a4.219,4.219,0,0,0,7.747,2.257l-1.089-.752a2.833,2.833,0,0,1-5.266-1.232h6.563a3.922,3.922,0,0,0,.016-0.417,3.729,3.729,0,0,0-3.81-4.017A4.055,4.055,0,0,0,335.173,163.869Zm4.113-2.945a2.4,2.4,0,0,1,2.449,2.1h-5.074A2.617,2.617,0,0,1,339.286,160.924Zm5.982,2.945a4.005,4.005,0,0,0,3.922,4.162,3.509,3.509,0,0,0,2.817-1.392v1.232h1.377v-12h-1.377V161.1a3.509,3.509,0,0,0-2.817-1.392A4.005,4.005,0,0,0,345.268,163.869Zm6.851,0a2.734,2.734,0,1,1-2.721-2.9A2.733,2.733,0,0,1,352.119,163.869Zm11.022-7.122a0.966,0.966,0,0,0-.96-0.977,0.994,0.994,0,0,0-.993.977,0.984,0.984,0,0,0,.993.976A0.956,0.956,0,0,0,363.141,156.747Zm-1.665,11.124h1.377v-8h-1.377v8Zm4.784,0h1.377V163.9c0-1.872,1.024-2.929,2.321-2.929a1.922,1.922,0,0,1,1.889,2.177v4.722h1.36v-4.93a2.949,2.949,0,0,0-3.025-3.233,2.829,2.829,0,0,0-2.545,1.392v-1.232H366.26v8Zm14.928,3.345h1.376v-4.577a3.512,3.512,0,0,0,2.818,1.392,4.169,4.169,0,0,0,0-8.323,3.512,3.512,0,0,0-2.818,1.392v-1.232h-1.376v11.348Zm6.707-7.347a2.727,2.727,0,1,1-2.721-2.9A2.733,2.733,0,0,1,387.9,163.869Zm4.189,4h1.376V163.9c0-1.872,1.105-2.753,2.113-2.753a2.02,2.02,0,0,1,.753.128v-1.424a2.866,2.866,0,0,0-.625-0.064,2.382,2.382,0,0,0-2.241,1.632v-1.552h-1.376v8Zm5.744-4a4.219,4.219,0,0,0,7.747,2.257l-1.089-.752a2.833,2.833,0,0,1-5.266-1.232h6.563a3.922,3.922,0,0,0,.016-0.417,3.729,3.729,0,0,0-3.81-4.017A4.055,4.055,0,0,0,397.828,163.869Zm4.113-2.945a2.4,2.4,0,0,1,2.449,2.1h-5.074A2.617,2.617,0,0,1,401.941,160.924Zm6.607,6.947h1.376V163.9c0-1.808.913-2.929,2.209-2.929,1.041,0,1.569.9,1.569,2.193v4.706h1.377V163.9c0-1.808.9-2.929,2.192-2.929,1.041,0,1.585.9,1.585,2.193v4.706h1.377v-4.914c0-1.953-1.057-3.249-2.8-3.249a2.771,2.771,0,0,0-2.625,1.712,2.515,2.515,0,0,0-2.465-1.712,2.692,2.692,0,0,0-2.417,1.392v-1.232h-1.376v8Zm16.624-11.124a0.966,0.966,0,0,0-.96-0.977,0.994,0.994,0,0,0-.992.977,0.983,0.983,0,0,0,.992.976A0.956,0.956,0,0,0,425.172,156.747Zm-1.664,11.124h1.376v-8h-1.376v8Zm4.672-3.089c0,1.985,1.184,3.249,2.945,3.249a2.754,2.754,0,0,0,2.465-1.392v1.232h1.376v-8H433.59v3.969c0,1.841-.977,2.93-2.225,2.93-1.105,0-1.809-.849-1.809-2.193v-4.706H428.18v4.914Zm10.176,3.089h1.376V163.9c0-1.808.912-2.929,2.209-2.929,1.04,0,1.569.9,1.569,2.193v4.706h1.376V163.9c0-1.808.9-2.929,2.193-2.929,1.041,0,1.585.9,1.585,2.193v4.706h1.376v-4.914c0-1.953-1.056-3.249-2.8-3.249a2.77,2.77,0,0,0-2.625,1.712,2.515,2.515,0,0,0-2.465-1.712,2.691,2.691,0,0,0-2.417,1.392v-1.232h-1.376v8Zm24.849-2.225c0-1.2-.752-1.969-2.112-2.417l-0.865-.288c-0.944-.3-1.232-0.608-1.232-1.12a1.132,1.132,0,0,1,1.344-.929,2.16,2.16,0,0,1,1.7.833l0.9-.865a3.1,3.1,0,0,0-2.561-1.152c-1.584,0-2.705.88-2.705,2.177a2.416,2.416,0,0,0,1.985,2.321l0.784,0.256c1.041,0.336,1.425.72,1.425,1.28a1.218,1.218,0,0,1-1.409,1.089,2.15,2.15,0,0,1-2.049-1.265l-1.12.608a3.178,3.178,0,0,0,3.137,1.857C462.037,168.031,463.205,167.215,463.205,165.646Zm2.654-.864c0,1.985,1.185,3.249,2.945,3.249a2.753,2.753,0,0,0,2.465-1.392v1.232h1.377v-8h-1.377v3.969c0,1.841-.976,2.93-2.225,2.93-1.1,0-1.808-.849-1.808-2.193v-4.706h-1.377v4.914Zm9.552-.913a4.219,4.219,0,0,0,7.747,2.257l-1.088-.752a2.834,2.834,0,0,1-5.267-1.232h6.563a3.922,3.922,0,0,0,.016-0.417,3.729,3.729,0,0,0-3.809-4.017A4.056,4.056,0,0,0,475.411,163.869Zm4.113-2.945a2.4,2.4,0,0,1,2.449,2.1H476.9A2.618,2.618,0,0,1,479.524,160.924Zm5.983,2.945a4,4,0,0,0,3.921,4.162,3.509,3.509,0,0,0,2.817-1.392v1.232h1.377v-12h-1.377V161.1a3.509,3.509,0,0,0-2.817-1.392A4,4,0,0,0,485.507,163.869Zm6.85,0a2.734,2.734,0,1,1-2.721-2.9A2.733,2.733,0,0,1,492.357,163.869Zm4.03,0a4.219,4.219,0,0,0,7.747,2.257l-1.089-.752a2.833,2.833,0,0,1-5.266-1.232h6.563a3.922,3.922,0,0,0,.016-0.417,3.729,3.729,0,0,0-3.81-4.017A4.055,4.055,0,0,0,496.387,163.869Zm4.113-2.945a2.4,2.4,0,0,1,2.449,2.1h-5.074A2.617,2.617,0,0,1,500.5,160.924Zm8.511,5.875a1.184,1.184,0,1,0-1.184,1.2A1.206,1.206,0,0,0,509.011,166.8Z"/>
</svg>
