<svg id="copy_copy_2" data-name="copy copy 2" xmlns="http://www.w3.org/2000/svg" width="720" height="177" viewBox="0 0 720 177">
  <defs>
    <style>
      .cls-1 {
        fill: #fff;
      }

      .cls-1, .cls-2 {
        fill-rule: evenodd;
      }
    </style>
  </defs>
  <path id="Rectangle_106_copy_5" data-name="Rectangle 106 copy 5" class="cls-1" d="M0,0H719.813l0.171,177H0.172Z"/>
  <g id="CTA_underline">
    <rect x="31" y="124" width="90" height="3"/>
    <path id="SHOP_now" data-name="SHOP now" class="cls-2" d="M34.395,119.2a3.12,3.12,0,0,0,3.422-3.065,3.049,3.049,0,0,0-2.277-2.967l-0.674-.252c-1.011-.378-1.482-0.616-1.482-1.148a0.984,0.984,0,0,1,1.159-.756,2.1,2.1,0,0,1,1.657.826l1.4-1.54a3.923,3.923,0,0,0-3.085-1.371,3,3,0,0,0-3.3,3.065c0,1.358.862,2.323,2.412,2.869L34.3,115.1c0.957,0.336,1.334.686,1.334,1.19a0.977,0.977,0,0,1-1.159.826,2.48,2.48,0,0,1-1.981-1.134l-1.644,1.442A4.141,4.141,0,0,0,34.395,119.2Zm7.332-.168h2.142V115.1h3.853v3.933h2.142V109.1H47.723v3.891H43.869V109.1H41.727v9.937ZM58.72,119.2a5.14,5.14,0,1,0-4.945-5.136A5.055,5.055,0,0,0,58.72,119.2Zm0-2.155a2.989,2.989,0,1,1,2.776-2.981A2.9,2.9,0,0,1,58.72,117.049ZM74.191,112.5a3.319,3.319,0,0,0-3.368-3.4H67.575v9.937h2.142v-3.149h1.1A3.308,3.308,0,0,0,74.191,112.5Zm-2.075,0a1.282,1.282,0,0,1-1.32,1.3H69.717v-2.6H70.8A1.274,1.274,0,0,1,72.116,112.5Zm19.54,6.536V109.1H89.5v6.13l-4.648-6.13H83.006v9.937h2.142v-6.144l4.662,6.144h1.846Zm8.855,0.168a5.14,5.14,0,1,0-4.945-5.136A5.056,5.056,0,0,0,100.511,119.2Zm0-2.155a2.989,2.989,0,1,1,2.775-2.981A2.9,2.9,0,0,1,100.511,117.049Zm16.265,1.987h2.035l2.223-9.937h-2.29l-1.307,6.3-2.695-6.466-2.681,6.466-1.307-6.3h-2.291l2.21,9.937h2.034l2.035-4.87Z"/>
  </g>
  <path id="Water-Resistant_Quilted_Bomber_Jacket" data-name="Water-Resistant Quilted Bomber Jacket" class="cls-2" d="M48.356,50.871h4.53l4.95-21.3h-5.1l-2.91,13.5-6-13.859-5.97,13.859-2.91-13.5h-5.1l4.92,21.3H39.3l4.53-10.44Zm10.141,0h4.98l1.89-4.5h8.82l1.89,4.5h4.98l-9.12-21.3h-4.32Zm8.61-8.64,2.67-6.42,2.67,6.42h-5.34Zm19.38,8.64h4.8V34.132h5.49v-4.56H81.057v4.56h5.43V50.871Zm14.7,0h13.5v-4.56h-8.73V42.5h6.93v-4.56h-6.93v-3.81h8.73v-4.56h-13.5v21.3Zm18.63,0h4.77v-8.79h0.78l7.08,8.79h5.73l-7.53-9.39c2.7-.96,4.17-2.73,4.17-5.49a6.288,6.288,0,0,0-6.6-6.42h-8.4v21.3Zm4.77-12.84v-4.08h3.06c1.41,0,2.43.75,2.43,2.04a2.156,2.156,0,0,1-2.43,2.04h-3.06Zm15.12,4.35h8.82v-4.32h-8.82v4.32Zm14.31,8.49h4.769v-8.79h0.78l7.08,8.79h5.73l-7.53-9.39c2.7-.96,4.17-2.73,4.17-5.49a6.288,6.288,0,0,0-6.6-6.42h-8.4v21.3Zm4.769-12.84v-4.08h3.06c1.41,0,2.43.75,2.43,2.04a2.156,2.156,0,0,1-2.43,2.04h-3.06Zm16.59,12.84h13.5v-4.56h-8.73V42.5h6.93v-4.56h-6.93v-3.81h8.73v-4.56h-13.5v21.3Zm24.99,0.36c4.5,0,7.59-2.7,7.62-6.57,0.03-3.21-1.98-5.25-5.07-6.36l-1.5-.54c-2.25-.81-3.3-1.32-3.3-2.46,0-1.11,1.29-1.62,2.58-1.62a4.738,4.738,0,0,1,3.69,1.77l3.12-3.3a8.888,8.888,0,0,0-6.87-2.94c-4.26,0-7.35,2.43-7.35,6.57,0,2.91,1.92,4.98,5.37,6.15l1.5,0.51c2.13,0.72,2.97,1.47,2.97,2.55,0,1.02-.99,1.77-2.58,1.77a5.573,5.573,0,0,1-4.41-2.43l-3.66,3.09A9.34,9.34,0,0,0,200.365,51.231Zm12.42-.36h4.77v-21.3h-4.77v21.3Zm17.129,0.36c4.5,0,7.59-2.7,7.62-6.57,0.03-3.21-1.98-5.25-5.07-6.36l-1.5-.54c-2.25-.81-3.3-1.32-3.3-2.46,0-1.11,1.29-1.62,2.58-1.62a4.738,4.738,0,0,1,3.69,1.77l3.12-3.3a8.888,8.888,0,0,0-6.87-2.94c-4.259,0-7.349,2.43-7.349,6.57,0,2.91,1.92,4.98,5.369,6.15l1.5,0.51c2.13,0.72,2.97,1.47,2.97,2.55,0,1.02-.99,1.77-2.58,1.77a5.571,5.571,0,0,1-4.409-2.43l-3.66,3.09A9.34,9.34,0,0,0,229.914,51.231Zm15.96-.36h4.8V34.132h5.49v-4.56H240.445v4.56h5.429V50.871Zm10.261,0h4.979l1.89-4.5h8.82l1.89,4.5h4.98l-9.12-21.3h-4.32Zm8.609-8.64,2.67-6.42,2.67,6.42h-5.34Zm36.93,8.64v-21.3h-4.8V42.711l-10.35-13.139h-4.109v21.3h4.769V37.7l10.38,13.17h4.11Zm9.84,0h4.8V34.132h5.49v-4.56h-15.72v4.56h5.43V50.871Zm31.74,0.36a11.034,11.034,0,0,0,6.6-2.19l2.25,1.83h6.75l-6.15-5.01a10.9,10.9,0,0,0,1.56-5.64A11.01,11.01,0,1,0,343.254,51.231Zm0-4.62a6.393,6.393,0,1,1,6.179-6.39,6.075,6.075,0,0,1-.54,2.55l-3.21-2.61-2.7,3.3,3.029,2.46A5.705,5.705,0,0,1,343.254,46.611Zm25.409,4.62a8.354,8.354,0,0,0,8.76-8.79V29.572h-4.77V42.5a3.991,3.991,0,1,1-7.979,0V29.572H359.9V42.441A8.337,8.337,0,0,0,368.663,51.231Zm14.52-.36h4.77v-21.3h-4.77v21.3Zm10.77,0h13.59v-4.56h-8.82V29.572h-4.77v21.3Zm19.02,0h4.8V34.132h5.489v-4.56H407.543v4.56h5.43V50.871Zm14.7,0h13.5v-4.56h-8.729V42.5h6.929v-4.56h-6.929v-3.81h8.729v-4.56h-13.5v21.3Zm18.63,0h7.259a10.652,10.652,0,1,0,0-21.3H446.3v21.3Zm4.77-4.38V33.952h2.489a6.011,6.011,0,0,1,6.03,6.27,6.011,6.011,0,0,1-6.03,6.27h-2.489ZM31.586,78.871h9.36a6.3,6.3,0,0,0,6.48-6.27,5.566,5.566,0,0,0-3.03-5.04,5.013,5.013,0,0,0,1.53-3.66,6.331,6.331,0,0,0-6.33-6.33h-8.01v21.3Zm4.77-12.689v-4.26h2.7a2.165,2.165,0,0,1,2.22,2.16,2.135,2.135,0,0,1-2.22,2.1h-2.7Zm0,8.31v-4.26h4.17a2.167,2.167,0,0,1,2.25,2.13,2.141,2.141,0,0,1-2.22,2.13h-4.2Zm25.59,4.74a11.01,11.01,0,1,0-11.01-11.01A11.036,11.036,0,0,0,61.946,79.231Zm0-4.62a6.393,6.393,0,1,1,6.18-6.39A6.32,6.32,0,0,1,61.946,74.611Zm26.819-.27,6.21-8.61V78.871h4.8v-21.3h-4.35l-6.66,9.18-6.66-9.18h-4.35v21.3h4.77V65.732Zm17.01,4.53h9.36a6.3,6.3,0,0,0,6.48-6.27,5.566,5.566,0,0,0-3.03-5.04,5.013,5.013,0,0,0,1.53-3.66,6.331,6.331,0,0,0-6.33-6.33h-8.01v21.3Zm4.77-12.689v-4.26h2.7a2.165,2.165,0,0,1,2.22,2.16,2.135,2.135,0,0,1-2.22,2.1h-2.7Zm0,8.31v-4.26h4.17a2.167,2.167,0,0,1,2.25,2.13,2.141,2.141,0,0,1-2.22,2.13h-4.2Zm15.78,4.38h13.5v-4.56H131.1V70.5h6.93v-4.56H131.1v-3.81h8.73v-4.56h-13.5v21.3Zm18.63,0h4.77v-8.79h0.78l7.08,8.79h5.73l-7.53-9.39c2.7-.96,4.17-2.73,4.17-5.49a6.288,6.288,0,0,0-6.6-6.42h-8.4v21.3Zm4.77-12.84v-4.08h3.06c1.41,0,2.43.75,2.43,2.04a2.156,2.156,0,0,1-2.43,2.04h-3.06Zm28.56,13.2c3.66,0,6.96-1.83,6.96-6.18V57.572h-4.77V72.751a2.193,2.193,0,0,1-4.38-.12h-4.71C171.385,77.251,174.715,79.231,178.285,79.231Zm10.05-.36h4.98l1.89-4.5h8.82l1.889,4.5h4.98l-9.119-21.3h-4.32Zm8.61-8.64,2.67-6.42,2.67,6.42h-5.34Zm26.52,9a11.009,11.009,0,0,0,9.959-5.82l-4.2-2.28a6.39,6.39,0,1,1,0-5.82l4.2-2.28A11.1,11.1,0,1,0,223.465,79.231Zm14.25-.36h4.74v-9.54l8.67,9.54h6.119L247.135,67.8l8.4-10.23h-5.849l-7.23,8.91v-8.91h-4.74v21.3Zm22.5,0h13.5v-4.56h-8.729V70.5h6.93v-4.56h-6.93v-3.81h8.729v-4.56h-13.5v21.3Zm22.47,0h4.8V62.132h5.489v-4.56H277.255v4.56h5.43V78.871Z"/>
</svg>
