<svg id="copy_copy_2" data-name="copy copy 2" xmlns="http://www.w3.org/2000/svg" width="720" height="149" viewBox="0 0 720 149">
  <defs>
    <style>
      .cls-1 {
        fill: #fff;
      }

      .cls-1, .cls-2 {
        fill-rule: evenodd;
      }
    </style>
  </defs>
  <path id="Rectangle_106_copy_5" data-name="Rectangle 106 copy 5" class="cls-1" d="M0,0H719.813l0.171,149H0.172Z"/>
  <g id="CTA_underline">
    <rect x="30" y="96" width="90" height="3"/>
    <path id="SHOP_now" data-name="SHOP now" class="cls-2" d="M33.395,91.2a3.12,3.12,0,0,0,3.422-3.065,3.05,3.05,0,0,0-2.277-2.967l-0.674-.252c-1.011-.378-1.482-0.616-1.482-1.148a0.984,0.984,0,0,1,1.159-.756,2.1,2.1,0,0,1,1.657.826l1.4-1.54a3.921,3.921,0,0,0-3.085-1.372A3,3,0,0,0,30.215,84c0,1.358.862,2.324,2.412,2.869L33.3,87.1c0.957,0.336,1.334.686,1.334,1.19a0.977,0.977,0,0,1-1.159.826A2.48,2.48,0,0,1,31.5,87.985l-1.644,1.442A4.143,4.143,0,0,0,33.395,91.2Zm7.332-.168h2.142V87.1h3.853v3.933h2.142V81.1H46.723V84.99H42.869V81.1H40.727v9.938ZM57.72,91.2a5.141,5.141,0,1,0-4.945-5.137A5.056,5.056,0,0,0,57.72,91.2Zm0-2.156A2.989,2.989,0,1,1,60.5,86.068,2.9,2.9,0,0,1,57.72,89.049ZM73.191,84.5a3.32,3.32,0,0,0-3.368-3.4H66.575v9.938h2.142V87.887h1.1A3.308,3.308,0,0,0,73.191,84.5Zm-2.075,0a1.282,1.282,0,0,1-1.32,1.3H68.717V83.2H69.8A1.274,1.274,0,0,1,71.116,84.5Zm19.54,6.537V81.1H88.5v6.131L83.851,81.1H82.006v9.938h2.142V84.892l4.662,6.145h1.846ZM99.511,91.2a5.141,5.141,0,1,0-4.945-5.137A5.056,5.056,0,0,0,99.511,91.2Zm0-2.156a2.989,2.989,0,1,1,2.775-2.981A2.9,2.9,0,0,1,99.511,89.049Zm16.265,1.987h2.035l2.223-9.938h-2.29l-1.307,6.3-2.695-6.466L111.061,87.4l-1.307-6.3h-2.291l2.21,9.938h2.034l2.035-4.871Z"/>
  </g>
  <path id="Slim_Brushed_Motion-Stretch_Blazer" data-name="Slim Brushed Motion-Stretch Blazer" class="cls-2" d="M37.946,51.231c4.5,0,7.59-2.7,7.62-6.57,0.03-3.21-1.98-5.25-5.07-6.36l-1.5-.54c-2.25-.81-3.3-1.32-3.3-2.46,0-1.11,1.29-1.62,2.58-1.62a4.738,4.738,0,0,1,3.69,1.77l3.12-3.3a8.887,8.887,0,0,0-6.87-2.94c-4.26,0-7.35,2.43-7.35,6.57,0,2.91,1.92,4.98,5.37,6.15l1.5,0.51c2.13,0.72,2.97,1.47,2.97,2.55,0,1.02-.99,1.77-2.58,1.77a5.573,5.573,0,0,1-4.41-2.43l-3.66,3.09A9.34,9.34,0,0,0,37.946,51.231Zm12.42-.36H63.956v-4.56h-8.82V29.572h-4.77v21.3Zm18.06,0H73.2v-21.3h-4.77v21.3ZM90.2,46.341l6.21-8.61V50.871h4.8v-21.3H96.865l-6.66,9.18-6.66-9.18H79.2v21.3h4.77V37.732Zm25.11,4.53h9.359a6.3,6.3,0,0,0,6.48-6.27,5.566,5.566,0,0,0-3.03-5.04,5.013,5.013,0,0,0,1.53-3.66,6.331,6.331,0,0,0-6.33-6.33h-8.009v21.3Zm4.769-12.689v-4.26h2.7a2.165,2.165,0,0,1,2.22,2.16,2.135,2.135,0,0,1-2.22,2.1h-2.7Zm0,8.31v-4.26h4.17a2.167,2.167,0,0,1,2.25,2.13,2.141,2.141,0,0,1-2.22,2.13h-4.2Zm15.78,4.38h4.77v-8.79h0.78l7.08,8.79h5.73l-7.53-9.39c2.7-.96,4.17-2.73,4.17-5.49a6.288,6.288,0,0,0-6.6-6.42h-8.4v21.3Zm4.77-12.84v-4.08h3.06c1.41,0,2.43.75,2.43,2.04a2.156,2.156,0,0,1-2.43,2.04h-3.06Zm24.72,13.2a8.354,8.354,0,0,0,8.76-8.79V29.572h-4.77V42.5a3.992,3.992,0,1,1-7.98,0V29.572H156.6V42.441C156.6,47.751,160.224,51.231,165.354,51.231Zm20.88,0c4.5,0,7.59-2.7,7.62-6.57,0.03-3.21-1.98-5.25-5.07-6.36l-1.5-.54c-2.25-.81-3.3-1.32-3.3-2.46,0-1.11,1.29-1.62,2.58-1.62a4.738,4.738,0,0,1,3.69,1.77l3.12-3.3a8.888,8.888,0,0,0-6.87-2.94c-4.26,0-7.35,2.43-7.35,6.57,0,2.91,1.92,4.98,5.37,6.15l1.5,0.51c2.13,0.72,2.97,1.47,2.97,2.55,0,1.02-.99,1.77-2.58,1.77a5.573,5.573,0,0,1-4.41-2.43l-3.66,3.09A9.34,9.34,0,0,0,186.234,51.231Zm12.42-.36h4.77v-8.43H212v8.43h4.77v-21.3H212v8.34h-8.579v-8.34h-4.77v21.3Zm24.12,0h13.5v-4.56h-8.729V42.5h6.929v-4.56h-6.929v-3.81h8.729v-4.56h-13.5v21.3Zm18.63,0h7.259a10.652,10.652,0,1,0,0-21.3H241.4v21.3Zm4.769-4.38V33.952h2.49a6.011,6.011,0,0,1,6.03,6.27,6.011,6.011,0,0,1-6.03,6.27h-2.49Zm37.29-.15,6.209-8.61V50.871h4.8v-21.3h-4.35l-6.659,9.18-6.66-9.18h-4.35v21.3h4.77V37.732Zm26.819,4.89a11.01,11.01,0,1,0-11.009-11.01A11.036,11.036,0,0,0,310.282,51.231Zm0-4.62a6.393,6.393,0,1,1,6.18-6.39A6.319,6.319,0,0,1,310.282,46.611Zm18.84,4.26h4.8V34.132h5.49v-4.56H323.693v4.56h5.429V50.871Zm14.7,0h4.77v-21.3h-4.77v21.3Zm20.58,0.36a11.01,11.01,0,1,0-11.01-11.01A11.036,11.036,0,0,0,364.4,51.231Zm0-4.62a6.393,6.393,0,1,1,6.179-6.39A6.32,6.32,0,0,1,364.4,46.611Zm35.069,4.26v-21.3h-4.8V42.711l-10.35-13.139h-4.109v21.3h4.769V37.7l10.38,13.17h4.11Zm5.49-8.49h8.82v-4.32h-8.82v4.32Zm20.67,8.85c4.5,0,7.589-2.7,7.619-6.57,0.03-3.21-1.979-5.25-5.069-6.36l-1.5-.54c-2.25-.81-3.3-1.32-3.3-2.46,0-1.11,1.29-1.62,2.58-1.62a4.738,4.738,0,0,1,3.69,1.77l3.119-3.3a8.884,8.884,0,0,0-6.869-2.94c-4.26,0-7.35,2.43-7.35,6.57,0,2.91,1.92,4.98,5.37,6.15l1.5,0.51c2.13,0.72,2.97,1.47,2.97,2.55,0,1.02-.99,1.77-2.58,1.77a5.573,5.573,0,0,1-4.41-2.43l-3.66,3.09A9.34,9.34,0,0,0,425.631,51.231Zm15.96-.36h4.8V34.132h5.489v-4.56H436.161v4.56h5.43V50.871Zm14.7,0h4.769v-8.79h0.78l7.08,8.79h5.73l-7.53-9.39c2.7-.96,4.17-2.73,4.17-5.49a6.288,6.288,0,0,0-6.6-6.42h-8.4v21.3Zm4.769-12.84v-4.08h3.06c1.41,0,2.43.75,2.43,2.04a2.156,2.156,0,0,1-2.43,2.04h-3.06Zm16.59,12.84h13.5v-4.56h-8.73V42.5h6.93v-4.56h-6.93v-3.81h8.73v-4.56h-13.5v21.3Zm22.47,0h4.8V34.132h5.49v-4.56H494.69v4.56h5.43V50.871Zm23.7,0.36a11.007,11.007,0,0,0,9.959-5.82l-4.2-2.28a6.39,6.39,0,1,1,0-5.82l4.2-2.28A11.1,11.1,0,1,0,523.82,51.231Zm14.25-.36h4.77v-8.43h8.58v8.43h4.77v-21.3h-4.77v8.34h-8.58v-8.34h-4.77v21.3Zm32.22,0h9.359a6.3,6.3,0,0,0,6.48-6.27,5.566,5.566,0,0,0-3.03-5.04,5.013,5.013,0,0,0,1.53-3.66,6.331,6.331,0,0,0-6.33-6.33H570.29v21.3Zm4.77-12.689v-4.26h2.7a2.165,2.165,0,0,1,2.22,2.16,2.135,2.135,0,0,1-2.22,2.1h-2.7Zm0,8.31v-4.26h4.169a2.167,2.167,0,0,1,2.25,2.13,2.141,2.141,0,0,1-2.22,2.13h-4.2Zm15.78,4.38h13.589v-4.56h-8.82V29.572H590.84v21.3Zm15.779,0h4.98l1.89-4.5h8.82l1.89,4.5h4.979l-9.119-21.3h-4.32Zm8.61-8.64,2.67-6.42,2.67,6.42h-5.34Zm16.59,8.64h16.44v-4.56h-9.99l9.81-13.47v-3.27h-16.11v4.56h9.63L631.819,47.6v3.27Zm21.36,0h13.5v-4.56h-8.729V42.5h6.93v-4.56h-6.93v-3.81h8.729v-4.56h-13.5v21.3Zm18.63,0h4.77v-8.79h0.78l7.079,8.79h5.73l-7.529-9.39c2.7-.96,4.169-2.73,4.169-5.49a6.288,6.288,0,0,0-6.6-6.42h-8.4v21.3Zm4.77-12.84v-4.08h3.06c1.41,0,2.43.75,2.43,2.04a2.156,2.156,0,0,1-2.43,2.04h-3.06Z"/>
</svg>
