<svg id="copy_copy_2" data-name="copy copy 2" xmlns="http://www.w3.org/2000/svg" width="720" height="315" viewBox="0 0 720 315">
  <defs>
    <style>
      .cls-1 {
        fill: #fff;
      }

      .cls-1, .cls-2 {
        fill-rule: evenodd;
      }
    </style>
  </defs>
  <path id="Rectangle_106_copy_5" data-name="Rectangle 106 copy 5" class="cls-1" d="M0,0H719.813l0.171,315H0.172Z"/>
  <g id="CTA_underline">
    <rect x="30" y="266" width="90" height="3"/>
    <path id="SHOP_now" data-name="SHOP now" class="cls-2" d="M33.395,261.2a3.12,3.12,0,0,0,3.422-3.065,3.049,3.049,0,0,0-2.277-2.967l-0.674-.252c-1.011-.378-1.482-0.616-1.482-1.148a0.984,0.984,0,0,1,1.159-.756,2.1,2.1,0,0,1,1.657.826l1.4-1.54a3.923,3.923,0,0,0-3.085-1.371,3,3,0,0,0-3.3,3.065c0,1.358.862,2.323,2.412,2.869L33.3,257.1c0.957,0.336,1.334.686,1.334,1.19a0.977,0.977,0,0,1-1.159.826,2.48,2.48,0,0,1-1.981-1.134l-1.644,1.442A4.141,4.141,0,0,0,33.395,261.2Zm7.332-.168h2.142V257.1h3.853v3.933h2.142V251.1H46.723v3.891H42.869V251.1H40.727v9.937ZM57.72,261.2a5.14,5.14,0,1,0-4.945-5.136A5.055,5.055,0,0,0,57.72,261.2Zm0-2.155a2.989,2.989,0,1,1,2.776-2.981A2.9,2.9,0,0,1,57.72,259.049ZM73.191,254.5a3.319,3.319,0,0,0-3.368-3.4H66.575v9.937h2.142v-3.149h1.1A3.308,3.308,0,0,0,73.191,254.5Zm-2.075,0a1.282,1.282,0,0,1-1.32,1.3H68.717v-2.6H69.8A1.274,1.274,0,0,1,71.116,254.5Zm19.54,6.536V251.1H88.5v6.13l-4.648-6.13H82.006v9.937h2.142v-6.144l4.662,6.144h1.846Zm8.855,0.168a5.14,5.14,0,1,0-4.945-5.136A5.056,5.056,0,0,0,99.511,261.2Zm0-2.155a2.989,2.989,0,1,1,2.775-2.981A2.9,2.9,0,0,1,99.511,259.049Zm16.266,1.987h2.034l2.223-9.937h-2.29l-1.307,6.3-2.695-6.466-2.681,6.466-1.307-6.3h-2.291l2.21,9.937h2.034l2.035-4.87Z"/>
  </g>
  <path id="BR_X_Kevin_Love_Slim_Pinstripe_Italian_Motion-Stretch_Suit_I" data-name="BR X Kevin Love | Slim Pinstripe Italian Motion-Stretch Suit  I" class="cls-2" d="M31.586,52.871h9.36a6.3,6.3,0,0,0,6.48-6.27,5.566,5.566,0,0,0-3.03-5.04,5.013,5.013,0,0,0,1.53-3.66,6.331,6.331,0,0,0-6.33-6.33h-8.01v21.3Zm4.77-12.689v-4.26h2.7a2.165,2.165,0,0,1,2.22,2.16,2.135,2.135,0,0,1-2.22,2.1h-2.7Zm0,8.31v-4.26h4.17a2.167,2.167,0,0,1,2.25,2.13,2.141,2.141,0,0,1-2.22,2.13h-4.2Zm15.78,4.38h4.77v-8.79h0.78l7.08,8.79H70.5l-7.53-9.39c2.7-.96,4.17-2.73,4.17-5.49a6.288,6.288,0,0,0-6.6-6.42h-8.4v21.3Zm4.77-12.84v-4.08h3.06c1.41,0,2.43.75,2.43,2.04a2.156,2.156,0,0,1-2.43,2.04h-3.06Zm37.08,12.84h5.55L91.586,42.1l7.47-10.53h-5.52l-4.83,6.84-4.83-6.84h-5.52l7.5,10.53-7.98,10.77h5.58l5.28-7.05Zm16.531,0h4.74v-9.54l8.669,9.54h6.12L119.935,41.8l8.4-10.229h-5.85l-7.229,8.91v-8.91h-4.74v21.3Zm22.5,0h13.5v-4.56h-8.729V44.5h6.929v-4.56h-6.929v-3.81h8.729v-4.56h-13.5v21.3Zm25.139,0h4.29l8.73-21.3h-5.25l-5.64,14.189-5.669-14.189h-5.19Zm16.8,0h4.77v-21.3h-4.77v21.3Zm30.029,0v-21.3h-4.8V44.711l-10.35-13.139h-4.11v21.3h4.77V39.7l10.38,13.17h4.109Zm14.1,0h13.589v-4.56h-8.82V31.572h-4.769v21.3Zm26.909,0.36a11.01,11.01,0,1,0-11.01-11.01A11.035,11.035,0,0,0,245.994,53.231Zm0-4.62a6.393,6.393,0,1,1,6.18-6.39A6.32,6.32,0,0,1,245.994,48.611Zm21.39,4.26h4.29l8.729-21.3h-5.25l-5.639,14.189-5.67-14.189h-5.19Zm16.8,0h13.5v-4.56h-8.729V44.5h6.929v-4.56h-6.929v-3.81h8.729v-4.56h-13.5v21.3Zm26.729,1.65h3.78v-24.6h-3.78v24.6Zm24.239-1.29c4.5,0,7.59-2.7,7.62-6.57,0.03-3.21-1.98-5.25-5.07-6.36l-1.5-.54c-2.25-.81-3.3-1.32-3.3-2.46,0-1.11,1.29-1.62,2.58-1.62a4.738,4.738,0,0,1,3.69,1.77l3.12-3.3a8.888,8.888,0,0,0-6.87-2.94c-4.26,0-7.35,2.43-7.35,6.57,0,2.91,1.92,4.98,5.37,6.15l1.5,0.51c2.13,0.72,2.97,1.47,2.97,2.55,0,1.02-.99,1.77-2.58,1.77a5.573,5.573,0,0,1-4.41-2.43l-3.66,3.09A9.34,9.34,0,0,0,335.152,53.231Zm12.42-.36h13.59v-4.56h-8.82V31.572h-4.77v21.3Zm18.06,0H370.4v-21.3h-4.769v21.3Zm21.779-4.53,6.21-8.61V52.871h4.8v-21.3h-4.349l-6.66,9.18-6.66-9.18H376.4v21.3h4.77V39.732Zm39.839-9.48a7.254,7.254,0,0,0-7.5-7.29h-7.229v21.3h4.769v-6.75h2.46A7.23,7.23,0,0,0,427.25,38.862Zm-4.62,0a2.8,2.8,0,0,1-2.94,2.79h-2.4v-5.58h2.4A2.785,2.785,0,0,1,422.63,38.862Zm9.18,14.009h4.77v-21.3h-4.77v21.3Zm30.029,0v-21.3h-4.8V44.711L446.69,31.572h-4.11v21.3h4.77V39.7l10.379,13.17h4.11Zm12.36,0.36c4.5,0,7.59-2.7,7.62-6.57,0.03-3.21-1.98-5.25-5.07-6.36l-1.5-.54c-2.25-.81-3.3-1.32-3.3-2.46,0-1.11,1.289-1.62,2.579-1.62a4.738,4.738,0,0,1,3.69,1.77l3.12-3.3a8.888,8.888,0,0,0-6.87-2.94c-4.259,0-7.349,2.43-7.349,6.57,0,2.91,1.92,4.98,5.369,6.15l1.5,0.51c2.13,0.72,2.97,1.47,2.97,2.55,0,1.02-.99,1.77-2.58,1.77a5.571,5.571,0,0,1-4.409-2.43l-3.66,3.09A9.34,9.34,0,0,0,474.2,53.231Zm15.96-.36h4.8V36.132h5.49v-4.56H484.73v4.56h5.429V52.871Zm14.7,0h4.77v-8.79h0.78l7.08,8.79h5.73l-7.53-9.39c2.7-.96,4.17-2.73,4.17-5.49a6.288,6.288,0,0,0-6.6-6.42h-8.4v21.3Zm4.77-12.84v-4.08h3.06c1.41,0,2.43.75,2.43,2.04a2.156,2.156,0,0,1-2.43,2.04h-3.06Zm16.59,12.84h4.77v-21.3h-4.77v21.3Zm25.5-14.009a7.254,7.254,0,0,0-7.5-7.29h-7.229v21.3h4.769v-6.75h2.46A7.23,7.23,0,0,0,551.718,38.862Zm-4.62,0a2.8,2.8,0,0,1-2.94,2.79h-2.4v-5.58h2.4A2.785,2.785,0,0,1,547.1,38.862Zm9.18,14.009h13.5v-4.56h-8.73V44.5h6.93v-4.56h-6.93v-3.81h8.73v-4.56h-13.5v21.3Zm-524.692,28h4.77v-21.3h-4.77v21.3Zm14.61,0H51V64.132h5.49v-4.56H40.766v4.56H46.2V80.871Zm10.26,0h4.98l1.89-4.5h8.82l1.89,4.5h4.98l-9.12-21.3h-4.32Zm8.61-8.64,2.67-6.42,2.67,6.42h-5.34Zm17.67,8.64H96.326v-4.56h-8.82V59.572h-4.77v21.3Zm18.06,0h4.77v-21.3H100.8v21.3Zm8.49,0h4.979l1.89-4.5h8.82l1.89,4.5h4.98l-9.12-21.3h-4.32Zm8.609-8.64,2.67-6.42,2.67,6.42H117.9Zm36.93,8.64v-21.3h-4.8V72.711l-10.35-13.139h-4.11v21.3h4.77V67.7l10.38,13.17h4.11Zm25.109-4.53,6.21-8.61V80.871h4.8v-21.3h-4.35l-6.66,9.18-6.659-9.18h-4.35v21.3h4.77V67.732Zm26.82,4.89a11.01,11.01,0,1,0-11.009-11.01A11.036,11.036,0,0,0,206.754,81.231Zm0-4.62a6.393,6.393,0,1,1,6.18-6.39A6.32,6.32,0,0,1,206.754,76.611Zm18.84,4.26h4.8V64.132h5.49v-4.56h-15.72v4.56h5.43V80.871Zm14.7,0h4.77v-21.3h-4.77v21.3Zm20.579,0.36a11.01,11.01,0,1,0-11.009-11.01A11.036,11.036,0,0,0,260.873,81.231Zm0-4.62a6.393,6.393,0,1,1,6.18-6.39A6.319,6.319,0,0,1,260.873,76.611Zm35.07,4.26v-21.3h-4.8V72.711l-10.35-13.139h-4.11v21.3h4.77V67.7l10.38,13.17h4.11Zm5.49-8.49h8.82v-4.32h-8.82v4.32Zm20.669,8.85c4.5,0,7.59-2.7,7.62-6.57,0.03-3.21-1.98-5.25-5.07-6.36l-1.5-.54c-2.249-.81-3.3-1.32-3.3-2.46,0-1.11,1.29-1.62,2.579-1.62a4.738,4.738,0,0,1,3.69,1.77l3.12-3.3a8.888,8.888,0,0,0-6.87-2.94c-4.259,0-7.349,2.43-7.349,6.57,0,2.91,1.92,4.98,5.37,6.15l1.5,0.51c2.129,0.72,2.969,1.47,2.969,2.55,0,1.02-.99,1.77-2.58,1.77a5.572,5.572,0,0,1-4.409-2.43l-3.66,3.09A9.34,9.34,0,0,0,322.1,81.231Zm15.96-.36h4.8V64.132h5.49v-4.56H332.633v4.56h5.429V80.871Zm14.7,0h4.77v-8.79h0.78l7.08,8.79h5.73l-7.53-9.39c2.7-.96,4.17-2.73,4.17-5.49a6.288,6.288,0,0,0-6.6-6.42h-8.4v21.3Zm4.77-12.84v-4.08h3.06c1.41,0,2.43.75,2.43,2.04a2.156,2.156,0,0,1-2.43,2.04h-3.06Zm16.59,12.84h13.5v-4.56h-8.729V72.5h6.93v-4.56h-6.93v-3.81h8.729v-4.56h-13.5v21.3Zm22.47,0h4.8V64.132h5.489v-4.56H391.162v4.56h5.43V80.871Zm23.7,0.36a11.01,11.01,0,0,0,9.959-5.82l-4.2-2.28a6.39,6.39,0,1,1,0-5.82l4.2-2.28A11.1,11.1,0,1,0,420.292,81.231Zm14.25-.36h4.77v-8.43h8.579v8.43h4.77v-21.3h-4.77v8.34h-8.579v-8.34h-4.77v21.3Zm38.579,0.36c4.5,0,7.59-2.7,7.62-6.57,0.03-3.21-1.98-5.25-5.07-6.36l-1.5-.54c-2.25-.81-3.3-1.32-3.3-2.46,0-1.11,1.29-1.62,2.58-1.62a4.738,4.738,0,0,1,3.69,1.77l3.12-3.3a8.888,8.888,0,0,0-6.87-2.94c-4.26,0-7.35,2.43-7.35,6.57,0,2.91,1.92,4.98,5.37,6.15l1.5,0.51c2.13,0.72,2.97,1.47,2.97,2.55,0,1.02-.99,1.77-2.58,1.77a5.573,5.573,0,0,1-4.41-2.43l-3.659,3.09A9.337,9.337,0,0,0,473.121,81.231Zm20.94,0a8.353,8.353,0,0,0,8.759-8.79V59.572h-4.769V72.5a3.992,3.992,0,1,1-7.98,0V59.572H485.3V72.441A8.338,8.338,0,0,0,494.061,81.231Zm14.52-.36h4.77v-21.3h-4.77v21.3Zm14.609,0h4.8V64.132h5.49v-4.56H517.761v4.56h5.429V80.871Zm-492.161,28H32.7V96.087H31.029v12.784Zm10.585-.126v-1.386a3.424,3.424,0,0,1-1.1.18,1.3,1.3,0,0,1-1.494-1.531v-4.717h2.593V99.868H39.022v-2.5H37.473v2.5H35.565v1.423h1.909v4.915a2.534,2.534,0,0,0,2.755,2.755A4.31,4.31,0,0,0,41.614,108.745Zm2.05-4.375a4.5,4.5,0,0,0,4.411,4.681,3.948,3.948,0,0,0,3.169-1.566v1.386h1.548v-9H51.245v1.387a3.949,3.949,0,0,0-3.169-1.567A4.5,4.5,0,0,0,43.665,104.37Zm7.706,0a3.075,3.075,0,1,1-3.061-3.259A3.074,3.074,0,0,1,51.371,104.37Zm5.236,4.5h1.548v-13.5H56.607v13.5Zm7.254-12.514a1.087,1.087,0,0,0-1.08-1.1,1.118,1.118,0,0,0-1.116,1.1,1.107,1.107,0,0,0,1.116,1.1A1.076,1.076,0,0,0,63.861,96.357Zm-1.873,12.514h1.548v-9H61.989v9Zm4.68-4.5a4.5,4.5,0,0,0,4.411,4.681,3.948,3.948,0,0,0,3.169-1.566v1.386H75.8v-9H74.249v1.387a3.949,3.949,0,0,0-3.169-1.567A4.505,4.505,0,0,0,66.668,104.37Zm7.706,0a3.075,3.075,0,1,1-3.061-3.259A3.074,3.074,0,0,1,74.375,104.37Zm5.236,4.5h1.548v-4.465c0-2.107,1.152-3.3,2.611-3.3a2.161,2.161,0,0,1,2.125,2.449v5.311h1.531v-5.546a3.318,3.318,0,0,0-3.4-3.637,3.182,3.182,0,0,0-2.863,1.567V99.868H79.611v9Zm24.1,0h1.369l3.061-9h-1.639l-2.178,6.572-2.251-6.572h-1.188l-2.251,6.572-2.179-6.572h-1.62l3.061,9h1.368l2.233-6.482Zm15.661-4.5a4.709,4.709,0,1,0-4.7,4.681A4.62,4.62,0,0,0,119.375,104.37Zm-7.833,0a3.126,3.126,0,1,1,3.133,3.241A3.094,3.094,0,0,1,111.542,104.37Zm19.64,0a4.708,4.708,0,1,0-4.7,4.681A4.62,4.62,0,0,0,131.182,104.37Zm-7.832,0a3.126,3.126,0,1,1,3.133,3.241A3.094,3.094,0,0,1,123.35,104.37Zm10.944,4.5h1.548v-13.5h-1.548v13.5Zm7.308-.4a1.539,1.539,0,0,0,.252-0.81,1.333,1.333,0,1,0-2.665,0,1.34,1.34,0,0,0,.738,1.206l-1.206,2.575h1.026Zm10.422-.99a3.947,3.947,0,0,0,3.169,1.566,4.69,4.69,0,0,0,0-9.363,3.948,3.948,0,0,0-3.169,1.567V95.367h-1.549v13.5h1.549v-1.386Zm6-3.115a3.067,3.067,0,1,1-3.061-3.259A3.074,3.074,0,0,1,158.019,104.37Zm6.659,3.3a1.333,1.333,0,1,0-1.333,1.35A1.358,1.358,0,0,0,164.678,107.665Zm16.291-.288H174.6c0.306-1.477,1.8-2.215,3.277-3.3,2.089-1.513,2.953-2.593,2.953-4.466a3.63,3.63,0,0,0-3.943-3.745,3.972,3.972,0,0,0-4.213,4.033h1.584a2.469,2.469,0,0,1,2.647-2.521,2.162,2.162,0,0,1,2.341,2.215c0,1.495-.793,2.161-2.269,3.259-1.891,1.405-4.285,2.665-4.285,5.4v0.612h8.282v-1.494Zm11.916-3.133v-3.565a4.536,4.536,0,1,0-9.056,0v3.565A4.536,4.536,0,1,0,192.885,104.244Zm-7.508,0v-3.565c0-2.071,1.242-3.3,2.971-3.3,1.747,0,2.989,1.224,2.989,3.3v3.565c0,2.07-1.242,3.3-2.989,3.3C186.619,107.539,185.377,106.314,185.377,104.244Zm12.06,4.627h1.548V96.087H196.23l-1.26,1.53h2.467v11.253Zm13.574-3.835a3.571,3.571,0,0,0-2-3.349,2.991,2.991,0,0,0,1.3-2.521,3.318,3.318,0,0,0-3.583-3.3,3.364,3.364,0,0,0-3.6,3.3,2.98,2.98,0,0,0,1.332,2.521,3.573,3.573,0,0,0-2.035,3.349A4.3,4.3,0,0,0,211.011,105.036ZM204.655,99.2a1.9,1.9,0,0,1,2.071-1.873,1.867,1.867,0,0,1,2.052,1.873,1.911,1.911,0,0,1-2.052,1.891A1.949,1.949,0,0,1,204.655,99.2Zm-0.666,5.834a2.538,2.538,0,0,1,2.737-2.557,2.553,2.553,0,1,1,0,5.1A2.545,2.545,0,0,1,203.989,105.036Zm15.713,5.816h1.423V96.087H219.7v14.765Zm10.944-1.981h7.85v-1.584H232.32v-11.2h-1.674v12.784ZM243.03,96.357a1.087,1.087,0,0,0-1.08-1.1,1.118,1.118,0,0,0-1.116,1.1,1.106,1.106,0,0,0,1.116,1.1A1.076,1.076,0,0,0,243.03,96.357Zm-1.872,12.514h1.548v-9h-1.548v9Zm5.382,0h1.548v-4.465c0-2.035,1.026-3.3,2.485-3.3,1.17,0,1.764,1.008,1.764,2.467v5.293h1.549v-4.465c0-2.035,1.008-3.3,2.467-3.3,1.17,0,1.782,1.008,1.782,2.467v5.293h1.549v-5.528c0-2.2-1.189-3.655-3.151-3.655a3.116,3.116,0,0,0-2.953,1.927,2.831,2.831,0,0,0-2.773-1.927,3.027,3.027,0,0,0-2.719,1.567V99.868H246.54v9Zm18.7-12.514a1.087,1.087,0,0,0-1.08-1.1,1.118,1.118,0,0,0-1.116,1.1,1.106,1.106,0,0,0,1.116,1.1A1.076,1.076,0,0,0,265.242,96.357Zm-1.872,12.514h1.548v-9H263.37v9Zm10.261-.126v-1.386a3.422,3.422,0,0,1-1.1.18,1.3,1.3,0,0,1-1.5-1.531v-4.717h2.593V99.868h-2.593v-2.5H269.49v2.5h-1.909v1.423h1.909v4.915a2.534,2.534,0,0,0,2.755,2.755A4.307,4.307,0,0,0,273.631,108.745Zm2.05-4.375a4.747,4.747,0,0,0,8.715,2.539l-1.224-.847a3.187,3.187,0,0,1-5.924-1.386h7.382a4.392,4.392,0,0,0,.018-0.468,4.2,4.2,0,0,0-4.285-4.52A4.562,4.562,0,0,0,275.681,104.37Zm4.628-3.313a2.694,2.694,0,0,1,2.755,2.358h-5.708A2.943,2.943,0,0,1,280.309,101.057Zm6.73,3.313a4.5,4.5,0,0,0,4.412,4.681,3.95,3.95,0,0,0,3.169-1.566v1.386h1.548v-13.5H294.62v5.888a3.951,3.951,0,0,0-3.169-1.567A4.505,4.505,0,0,0,287.039,104.37Zm7.707,0a3.075,3.075,0,1,1-3.061-3.259A3.075,3.075,0,0,1,294.746,104.37Zm9.825,0a4.5,4.5,0,0,0,4.411,4.681,3.947,3.947,0,0,0,3.169-1.566v1.386H313.7v-9h-1.549v1.387a3.948,3.948,0,0,0-3.169-1.567A4.5,4.5,0,0,0,304.571,104.37Zm7.706,0a3.075,3.075,0,1,1-3.061-3.259A3.074,3.074,0,0,1,312.277,104.37Zm8.045,4.5h1.3l4.159-9h-1.728l-3.079,6.806-3.079-6.806h-1.728Zm7.037-4.5a4.5,4.5,0,0,0,4.411,4.681,3.949,3.949,0,0,0,3.169-1.566v1.386h1.548v-9h-1.548v1.387a3.949,3.949,0,0,0-3.169-1.567A4.5,4.5,0,0,0,327.359,104.37Zm7.706,0A3.075,3.075,0,1,1,332,101.111,3.074,3.074,0,0,1,335.065,104.37Zm7.108-8.013a1.087,1.087,0,0,0-1.08-1.1,1.118,1.118,0,0,0-1.116,1.1,1.106,1.106,0,0,0,1.116,1.1A1.076,1.076,0,0,0,342.173,96.357ZM340.3,108.871h1.548v-9H340.3v9Zm5.382,0h1.548v-13.5h-1.548v13.5Zm4.679-4.5a4.5,4.5,0,0,0,4.412,4.681,3.947,3.947,0,0,0,3.168-1.566v1.386h1.549v-9h-1.549v1.387a3.947,3.947,0,0,0-3.168-1.567A4.505,4.505,0,0,0,350.362,104.37Zm7.707,0a3.075,3.075,0,1,1-3.061-3.259A3.075,3.075,0,0,1,358.069,104.37Zm6.784,3.115a3.947,3.947,0,0,0,3.169,1.566,4.69,4.69,0,0,0,0-9.363,3.948,3.948,0,0,0-3.169,1.567V95.367H363.3v13.5h1.549v-1.386Zm6-3.115a3.067,3.067,0,1,1-3.06-3.259A3.074,3.074,0,0,1,370.848,104.37Zm6.569-8.013a1.088,1.088,0,0,0-1.081-1.1,1.118,1.118,0,0,0-1.116,1.1,1.106,1.106,0,0,0,1.116,1.1A1.077,1.077,0,0,0,377.417,96.357Zm-1.873,12.514h1.548v-9h-1.548v9Zm5.382,0h1.548v-13.5h-1.548v13.5Zm7.254-12.514a1.087,1.087,0,0,0-1.08-1.1,1.118,1.118,0,0,0-1.116,1.1,1.106,1.106,0,0,0,1.116,1.1A1.076,1.076,0,0,0,388.18,96.357Zm-1.872,12.514h1.548v-9h-1.548v9Zm10.261-.126v-1.386a3.422,3.422,0,0,1-1.1.18,1.3,1.3,0,0,1-1.5-1.531v-4.717h2.593V99.868h-2.593v-2.5h-1.548v2.5h-1.909v1.423h1.909v4.915a2.534,2.534,0,0,0,2.755,2.755A4.307,4.307,0,0,0,396.569,108.745Zm5.273,3.889,5.906-12.766H406.02l-3.079,6.824-3.1-6.824h-1.711l3.943,8.535-1.962,4.231h1.728Zm9.612-4.969a1.333,1.333,0,1,0-1.332,1.35A1.357,1.357,0,0,0,411.454,107.665ZM39.693,156.871h1.328l3.105-11.365H42.574l-2.385,8.868-3.281-9.06-3.265,9.06-2.385-8.868H29.7l3.105,11.365h1.329l2.785-7.715Zm5.788-4a4.219,4.219,0,0,0,7.747,2.257l-1.088-.752a2.833,2.833,0,0,1-5.266-1.232h6.563a3.922,3.922,0,0,0,.016-0.417,3.729,3.729,0,0,0-3.81-4.017A4.056,4.056,0,0,0,45.481,152.869Zm4.114-2.945a2.4,2.4,0,0,1,2.449,2.1H46.969A2.617,2.617,0,0,1,49.594,149.924ZM60.9,160.216h1.377v-4.577a3.51,3.51,0,0,0,2.817,1.392,4.169,4.169,0,0,0,0-8.323,3.51,3.51,0,0,0-2.817,1.392v-1.232H60.9v11.348Zm6.707-7.347a2.726,2.726,0,1,1-2.721-2.9A2.733,2.733,0,0,1,67.611,152.869Zm3.565,0a4.005,4.005,0,0,0,3.922,4.162,3.51,3.51,0,0,0,2.817-1.392v1.232h1.377v-8H77.915V150.1a3.51,3.51,0,0,0-2.817-1.392A4,4,0,0,0,71.176,152.869Zm6.851,0a2.734,2.734,0,1,1-2.721-2.9A2.733,2.733,0,0,1,78.027,152.869Zm4.653,4h1.377V152.9c0-1.872,1.1-2.753,2.113-2.753a2.013,2.013,0,0,1,.752.128v-1.424a2.853,2.853,0,0,0-.624-0.064,2.381,2.381,0,0,0-2.241,1.632v-1.552H82.68v8Zm10.994-.112v-1.232a3.043,3.043,0,0,1-.976.16,1.153,1.153,0,0,1-1.328-1.361v-4.194h2.3v-1.264h-2.3v-2.225H89.993v2.225H88.3v1.264h1.7v4.37a2.253,2.253,0,0,0,2.449,2.449A3.831,3.831,0,0,0,93.674,156.759Zm2.558,0.112h1.377V152.9c0-1.872,1.025-2.929,2.321-2.929a1.922,1.922,0,0,1,1.889,2.177v4.722h1.36v-4.93a2.949,2.949,0,0,0-3.025-3.233,2.831,2.831,0,0,0-2.545,1.392v-1.232H96.232v8Zm9.6-4a4.219,4.219,0,0,0,7.747,2.257l-1.088-.752a2.834,2.834,0,0,1-5.267-1.232h6.563a3.922,3.922,0,0,0,.016-0.417,3.729,3.729,0,0,0-3.809-4.017A4.056,4.056,0,0,0,105.832,152.869Zm4.114-2.945a2.4,2.4,0,0,1,2.449,2.1H107.32A2.618,2.618,0,0,1,109.946,149.924Zm6.606,6.947h1.377V152.9c0-1.872,1.1-2.753,2.112-2.753a2.013,2.013,0,0,1,.753.128v-1.424a2.854,2.854,0,0,0-.625-0.064,2.38,2.38,0,0,0-2.24,1.632v-1.552h-1.377v8Zm17.459,0h1.216l2.721-8h-1.456l-1.937,5.842-2-5.842H131.5l-2,5.842-1.937-5.842h-1.44l2.721,8h1.216l1.985-5.762Zm7.885-11.124a0.966,0.966,0,0,0-.96-0.977,0.994,0.994,0,0,0-.992.977,0.983,0.983,0,0,0,.992.976A0.956,0.956,0,0,0,141.9,145.747Zm-1.664,11.124h1.376v-8h-1.376v8Zm9.121-.112v-1.232a3.041,3.041,0,0,1-.976.16,1.153,1.153,0,0,1-1.328-1.361v-4.194h2.3v-1.264h-2.3v-2.225h-1.377v2.225h-1.7v1.264h1.7v4.37a2.252,2.252,0,0,0,2.449,2.449A3.828,3.828,0,0,0,149.353,156.759Zm2.559,0.112h1.376V152.9c0-1.872,1.025-2.929,2.321-2.929a1.921,1.921,0,0,1,1.889,2.177v4.722h1.36v-4.93a2.949,2.949,0,0,0-3.025-3.233,2.831,2.831,0,0,0-2.545,1.392v-5.234h-1.376v12Zm18.993-.112v-1.232a3.041,3.041,0,0,1-.976.16,1.153,1.153,0,0,1-1.329-1.361v-4.194h2.305v-1.264H168.6v-2.225h-1.376v2.225h-1.7v1.264h1.7v4.37a2.252,2.252,0,0,0,2.449,2.449A3.828,3.828,0,0,0,170.905,156.759Zm2.558,0.112h1.377V152.9c0-1.872,1.024-2.929,2.321-2.929a1.922,1.922,0,0,1,1.889,2.177v4.722h1.36v-4.93a2.949,2.949,0,0,0-3.025-3.233,2.829,2.829,0,0,0-2.545,1.392v-5.234h-1.377v12Zm9.6-4a4.219,4.219,0,0,0,7.747,2.257l-1.088-.752a2.834,2.834,0,0,1-5.267-1.232h6.563a3.922,3.922,0,0,0,.016-0.417,3.729,3.729,0,0,0-3.809-4.017A4.056,4.056,0,0,0,183.063,152.869Zm4.114-2.945a2.394,2.394,0,0,1,2.448,2.1h-5.074A2.618,2.618,0,0,1,187.177,149.924Zm12.686,5.715a3.512,3.512,0,0,0,2.818,1.392,4.169,4.169,0,0,0,0-8.323,3.512,3.512,0,0,0-2.818,1.392v-5.234h-1.376v12h1.376v-1.232Zm5.33-2.77a2.726,2.726,0,1,1-2.721-2.9A2.733,2.733,0,0,1,205.193,152.869Zm3.549,0a4.22,4.22,0,0,0,7.748,2.257l-1.089-.752a2.833,2.833,0,0,1-5.266-1.232H216.7a3.922,3.922,0,0,0,.016-0.417,3.729,3.729,0,0,0-3.81-4.017A4.056,4.056,0,0,0,208.742,152.869Zm4.114-2.945a2.4,2.4,0,0,1,2.449,2.1h-5.074A2.617,2.617,0,0,1,212.856,149.924Zm11.793,4.722c0-1.2-.753-1.969-2.113-2.417l-0.865-.288c-0.944-.3-1.232-0.608-1.232-1.12a1.132,1.132,0,0,1,1.344-.929,2.16,2.16,0,0,1,1.7.833l0.9-.865a3.106,3.106,0,0,0-2.562-1.152c-1.584,0-2.7.88-2.7,2.177a2.417,2.417,0,0,0,1.985,2.321l0.784,0.256c1.041,0.336,1.425.72,1.425,1.28a1.218,1.218,0,0,1-1.408,1.089,2.148,2.148,0,0,1-2.049-1.265l-1.121.608a3.178,3.178,0,0,0,3.137,1.857C223.48,157.031,224.649,156.215,224.649,154.646Zm7.007,2.113v-1.232a3.041,3.041,0,0,1-.976.16,1.153,1.153,0,0,1-1.329-1.361v-4.194h2.305v-1.264h-2.305v-2.225h-1.376v2.225h-1.7v1.264h1.7v4.37a2.252,2.252,0,0,0,2.449,2.449A3.828,3.828,0,0,0,231.656,156.759Zm7.262,0.112H240.3V152.9c0-1.808.912-2.929,2.209-2.929,1.04,0,1.568.9,1.568,2.193v4.706h1.377V152.9c0-1.808.9-2.929,2.193-2.929,1.04,0,1.584.9,1.584,2.193v4.706H250.6v-4.914c0-1.953-1.056-3.249-2.8-3.249a2.769,2.769,0,0,0-2.625,1.712,2.516,2.516,0,0,0-2.465-1.712A2.689,2.689,0,0,0,240.3,150.1v-1.232h-1.377v8Zm16.625-11.124a0.967,0.967,0,0,0-.961-0.977,0.994,0.994,0,0,0-.992.977,0.983,0.983,0,0,0,.992.976A0.957,0.957,0,0,0,255.543,145.747Zm-1.665,11.124h1.377v-8h-1.377v8Zm4.784,0h1.377v-12h-1.377v12Zm4.784,0h1.376v-12h-1.376v12Zm9.97-2.225c0-1.2-.752-1.969-2.113-2.417l-0.864-.288c-0.945-.3-1.233-0.608-1.233-1.12a1.133,1.133,0,0,1,1.345-.929,2.159,2.159,0,0,1,1.7.833l0.9-.865a3.106,3.106,0,0,0-2.561-1.152c-1.585,0-2.705.88-2.705,2.177a2.416,2.416,0,0,0,1.984,2.321l0.785,0.256c1.04,0.336,1.424.72,1.424,1.28a1.218,1.218,0,0,1-1.408,1.089,2.148,2.148,0,0,1-2.049-1.265l-1.121.608a3.18,3.18,0,0,0,3.138,1.857C272.247,157.031,273.416,156.215,273.416,154.646Zm11.535,2.113v-1.232a3.041,3.041,0,0,1-.976.16,1.153,1.153,0,0,1-1.329-1.361v-4.194h2.305v-1.264h-2.305v-2.225H281.27v2.225h-1.7v1.264h1.7v4.37a2.252,2.252,0,0,0,2.449,2.449A3.828,3.828,0,0,0,284.951,156.759Zm10.178-3.89a4.186,4.186,0,1,0-4.178,4.162A4.107,4.107,0,0,0,295.129,152.869Zm-6.963,0a2.779,2.779,0,1,1,2.785,2.882A2.751,2.751,0,0,1,288.166,152.869Zm19.617,1.777c0-1.2-.752-1.969-2.113-2.417l-0.864-.288c-0.944-.3-1.232-0.608-1.232-1.12a1.132,1.132,0,0,1,1.344-.929,2.161,2.161,0,0,1,1.7.833l0.9-.865a3.1,3.1,0,0,0-2.561-1.152c-1.584,0-2.7.88-2.7,2.177a2.416,2.416,0,0,0,1.985,2.321l0.784,0.256c1.041,0.336,1.425.72,1.425,1.28a1.219,1.219,0,0,1-1.409,1.089,2.149,2.149,0,0,1-2.049-1.265l-1.12.608A3.178,3.178,0,0,0,305,157.031C306.615,157.031,307.783,156.215,307.783,154.646Zm10.5-1.777a4.186,4.186,0,1,0-4.177,4.162A4.107,4.107,0,0,0,318.28,152.869Zm-6.963,0a2.779,2.779,0,1,1,2.786,2.882A2.752,2.752,0,0,1,311.317,152.869Zm9.616,0.913c0,1.985,1.184,3.249,2.945,3.249a2.754,2.754,0,0,0,2.465-1.392v1.232h1.377v-8h-1.377v3.969c0,1.841-.976,2.93-2.225,2.93-1.1,0-1.809-.849-1.809-2.193v-4.706h-1.376v4.914Zm10.176,3.089h1.376V152.9c0-1.872,1.1-2.753,2.113-2.753a2.011,2.011,0,0,1,.752.128v-1.424a2.851,2.851,0,0,0-.624-0.064,2.381,2.381,0,0,0-2.241,1.632v-1.552h-1.376v8Zm13.635-1.985-1.2-.672a2.713,2.713,0,0,1-2.5,1.537,2.883,2.883,0,0,1,0-5.763,2.713,2.713,0,0,1,2.5,1.537l1.2-.672a4.144,4.144,0,0,0-3.7-2.145,4.162,4.162,0,1,0,0,8.323A4.144,4.144,0,0,0,344.744,154.886Zm1.948-2.017a4.22,4.22,0,0,0,7.748,2.257l-1.089-.752a2.833,2.833,0,0,1-5.266-1.232h6.563a3.922,3.922,0,0,0,.016-0.417,3.729,3.729,0,0,0-3.81-4.017A4.056,4.056,0,0,0,346.692,152.869Zm4.114-2.945a2.4,2.4,0,0,1,2.449,2.1h-5.074A2.617,2.617,0,0,1,350.806,149.924Zm15.376,6.835v-1.232a3.041,3.041,0,0,1-.976.16,1.153,1.153,0,0,1-1.329-1.361v-4.194h2.305v-1.264h-2.305v-2.225H362.5v2.225h-1.7v1.264h1.7v4.37a2.252,2.252,0,0,0,2.449,2.449A3.828,3.828,0,0,0,366.182,156.759Zm2.558,0.112h1.377V152.9c0-1.872,1.024-2.929,2.321-2.929a1.922,1.922,0,0,1,1.889,2.177v4.722h1.36v-4.93a2.949,2.949,0,0,0-3.025-3.233,2.829,2.829,0,0,0-2.545,1.392v-5.234H368.74v12Zm9.6-4a4.219,4.219,0,0,0,7.747,2.257L385,154.374a2.833,2.833,0,0,1-5.266-1.232H386.3a3.922,3.922,0,0,0,.016-0.417,3.729,3.729,0,0,0-3.809-4.017A4.056,4.056,0,0,0,378.34,152.869Zm4.114-2.945a2.4,2.4,0,0,1,2.449,2.1h-5.074A2.616,2.616,0,0,1,382.454,149.924Zm11.774,6.947h1.377v-6.739h2.321v-1.264h-2.321V147.4a1.152,1.152,0,0,1,1.329-1.36,3.222,3.222,0,0,1,.992.16v-1.217a3.638,3.638,0,0,0-1.249-.208,2.286,2.286,0,0,0-2.449,2.481v1.617h-1.7v1.264h1.7v6.739Zm6.867-11.124a0.966,0.966,0,0,0-.96-0.977,1,1,0,0,0-.993.977,0.984,0.984,0,0,0,.993.976A0.956,0.956,0,0,0,401.1,145.747Zm-1.665,11.124h1.377v-8H399.43v8Zm4.766,0h1.377V152.9c0-1.872,1.024-2.929,2.32-2.929a1.921,1.921,0,0,1,1.889,2.177v4.722h1.361v-4.93a2.949,2.949,0,0,0-3.025-3.233,2.829,2.829,0,0,0-2.545,1.392v-1.232H404.2v8Zm9.6-4a4.219,4.219,0,0,0,7.747,2.257l-1.089-.752a2.833,2.833,0,0,1-5.266-1.232h6.563a3.922,3.922,0,0,0,.016-0.417,3.729,3.729,0,0,0-3.81-4.017A4.055,4.055,0,0,0,413.8,152.869Zm4.113-2.945a2.4,2.4,0,0,1,2.449,2.1h-5.074A2.617,2.617,0,0,1,417.909,149.924Zm11.793,4.722c0-1.2-.753-1.969-2.113-2.417l-0.864-.288c-0.945-.3-1.233-0.608-1.233-1.12a1.133,1.133,0,0,1,1.345-.929,2.159,2.159,0,0,1,1.7.833l0.9-.865a3.106,3.106,0,0,0-2.561-1.152c-1.585,0-2.705.88-2.705,2.177a2.416,2.416,0,0,0,1.984,2.321l0.785,0.256c1.04,0.336,1.424.72,1.424,1.28a1.218,1.218,0,0,1-1.408,1.089,2.148,2.148,0,0,1-2.049-1.265l-1.121.608a3.18,3.18,0,0,0,3.138,1.857C428.533,157.031,429.7,156.215,429.7,154.646Zm7.007,2.113v-1.232a3.041,3.041,0,0,1-.976.16,1.153,1.153,0,0,1-1.329-1.361v-4.194h2.305v-1.264H434.4v-2.225h-1.376v2.225h-1.7v1.264h1.7v4.37a2.252,2.252,0,0,0,2.449,2.449A3.828,3.828,0,0,0,436.709,156.759Zm7.727,0.112h1.376v-6.739h2.321v-1.264h-2.321V147.4a1.153,1.153,0,0,1,1.329-1.36,3.222,3.222,0,0,1,.992.16v-1.217a3.636,3.636,0,0,0-1.248-.208,2.286,2.286,0,0,0-2.449,2.481v1.617h-1.7v1.264h1.7v6.739Zm5.167-4a4.005,4.005,0,0,0,3.922,4.162,3.51,3.51,0,0,0,2.817-1.392v1.232h1.377v-8h-1.377V150.1a3.51,3.51,0,0,0-2.817-1.392A4.005,4.005,0,0,0,449.6,152.869Zm6.851,0a2.734,2.734,0,1,1-2.721-2.9A2.733,2.733,0,0,1,456.454,152.869Zm6.03,2.77a3.51,3.51,0,0,0,2.817,1.392,4.169,4.169,0,0,0,0-8.323,3.51,3.51,0,0,0-2.817,1.392v-5.234h-1.377v12h1.377v-1.232Zm5.33-2.77a2.726,2.726,0,1,1-2.721-2.9A2.733,2.733,0,0,1,467.814,152.869Zm4.173,4h1.377V152.9c0-1.872,1.1-2.753,2.113-2.753a2.011,2.011,0,0,1,.752.128v-1.424a2.851,2.851,0,0,0-.624-0.064,2.38,2.38,0,0,0-2.241,1.632v-1.552h-1.377v8Zm8.321-11.124a0.966,0.966,0,0,0-.96-0.977,0.994,0.994,0,0,0-.993.977,0.984,0.984,0,0,0,.993.976A0.956,0.956,0,0,0,480.308,145.747Zm-1.665,11.124h1.377v-8h-1.377v8Zm12.051-1.985-1.2-.672a2.715,2.715,0,0,1-2.5,1.537,2.883,2.883,0,0,1,0-5.763,2.715,2.715,0,0,1,2.5,1.537l1.2-.672a4.143,4.143,0,0,0-3.7-2.145,4.162,4.162,0,1,0,0,8.323A4.143,4.143,0,0,0,490.694,154.886Zm7.759-.24c0-1.2-.752-1.969-2.113-2.417l-0.864-.288c-0.945-.3-1.233-0.608-1.233-1.12a1.133,1.133,0,0,1,1.345-.929,2.163,2.163,0,0,1,1.7.833l0.9-.865a3.1,3.1,0,0,0-2.561-1.152c-1.585,0-2.7.88-2.7,2.177a2.416,2.416,0,0,0,1.985,2.321l0.784,0.256c1.04,0.336,1.424.72,1.424,1.28a1.218,1.218,0,0,1-1.408,1.089,2.149,2.149,0,0,1-2.049-1.265l-1.12.608a3.177,3.177,0,0,0,3.137,1.857C497.285,157.031,498.453,156.215,498.453,154.646Zm13.969,2.225h1.216l2.721-8H514.9l-1.937,5.842-2-5.842h-1.057l-2,5.842-1.937-5.842H504.53l2.721,8h1.217l1.985-5.762Zm7.885-11.124a0.966,0.966,0,0,0-.96-0.977,1,1,0,0,0-.993.977,0.984,0.984,0,0,0,.993.976A0.956,0.956,0,0,0,520.307,145.747Zm-1.664,11.124h1.376v-8h-1.376v8Zm9.121-.112v-1.232a3.041,3.041,0,0,1-.976.16,1.153,1.153,0,0,1-1.329-1.361v-4.194h2.305v-1.264h-2.305v-2.225h-1.376v2.225h-1.7v1.264h1.7v4.37a2.252,2.252,0,0,0,2.449,2.449A3.828,3.828,0,0,0,527.764,156.759Zm2.558,0.112H531.7V152.9c0-1.872,1.024-2.929,2.321-2.929a1.922,1.922,0,0,1,1.889,2.177v4.722h1.36v-4.93a2.949,2.949,0,0,0-3.025-3.233A2.829,2.829,0,0,0,531.7,150.1v-5.234h-1.377v12Zm18.994-.112v-1.232a3.043,3.043,0,0,1-.977.16,1.153,1.153,0,0,1-1.328-1.361v-4.194h2.305v-1.264h-2.305v-2.225h-1.377v2.225h-1.7v1.264h1.7v4.37a2.253,2.253,0,0,0,2.449,2.449A3.835,3.835,0,0,0,549.316,156.759Zm2.558,0.112h1.377V152.9c0-1.872,1.024-2.929,2.32-2.929a1.921,1.921,0,0,1,1.889,2.177v4.722h1.361v-4.93a2.949,2.949,0,0,0-3.025-3.233,2.829,2.829,0,0,0-2.545,1.392v-5.234h-1.377v12Zm9.6-4a4.219,4.219,0,0,0,7.747,2.257l-1.089-.752a2.833,2.833,0,0,1-5.266-1.232h6.563a3.922,3.922,0,0,0,.016-0.417,3.729,3.729,0,0,0-3.81-4.017A4.055,4.055,0,0,0,561.474,152.869Zm4.113-2.945a2.4,2.4,0,0,1,2.449,2.1h-5.074A2.617,2.617,0,0,1,565.587,149.924Zm11.31,6.947h1.377v-12H576.9v12Zm4.16-4a4.005,4.005,0,0,0,3.922,4.162,3.51,3.51,0,0,0,2.817-1.392v1.232h1.376v-8H587.8V150.1a3.51,3.51,0,0,0-2.817-1.392A4.005,4.005,0,0,0,581.057,152.869Zm6.851,0a2.734,2.734,0,1,1-2.721-2.9A2.733,2.733,0,0,1,587.908,152.869Zm8.991,3.89v-1.232a3.041,3.041,0,0,1-.976.16,1.153,1.153,0,0,1-1.329-1.361v-4.194h2.3v-1.264h-2.3v-2.225h-1.377v2.225h-1.7v1.264h1.7v4.37a2.253,2.253,0,0,0,2.449,2.449A3.83,3.83,0,0,0,596.9,156.759Zm1.822-3.89a4.219,4.219,0,0,0,7.747,2.257l-1.088-.752a2.833,2.833,0,0,1-5.266-1.232h6.562a3.922,3.922,0,0,0,.016-0.417,3.728,3.728,0,0,0-3.809-4.017A4.056,4.056,0,0,0,598.721,152.869Zm4.114-2.945a2.4,2.4,0,0,1,2.449,2.1H600.21A2.616,2.616,0,0,1,602.835,149.924Zm11.792,4.722c0-1.2-.752-1.969-2.113-2.417l-0.864-.288c-0.944-.3-1.232-0.608-1.232-1.12a1.132,1.132,0,0,1,1.344-.929,2.16,2.16,0,0,1,1.7.833l0.9-.865a3.1,3.1,0,0,0-2.561-1.152c-1.584,0-2.7.88-2.7,2.177a2.416,2.416,0,0,0,1.985,2.321l0.784,0.256c1.041,0.336,1.425.72,1.425,1.28a1.218,1.218,0,0,1-1.409,1.089,2.15,2.15,0,0,1-2.049-1.265l-1.12.608a3.178,3.178,0,0,0,3.137,1.857C613.459,157.031,614.627,156.215,614.627,154.646Zm7.008,2.113v-1.232a3.041,3.041,0,0,1-.976.16,1.153,1.153,0,0,1-1.329-1.361v-4.194h2.3v-1.264h-2.3v-2.225h-1.377v2.225h-1.7v1.264h1.7v4.37a2.253,2.253,0,0,0,2.449,2.449A3.83,3.83,0,0,0,621.635,156.759ZM32.3,165.747a0.967,0.967,0,0,0-.96-0.977,0.994,0.994,0,0,0-.992.977,0.984,0.984,0,0,0,.992.976A0.956,0.956,0,0,0,32.3,165.747Zm-1.665,11.124H32.01v-8H30.633v8Zm4.784,0h1.377V172.9c0-1.872,1.024-2.929,2.321-2.929A1.921,1.921,0,0,1,41,172.149v4.722h1.361v-4.93a2.949,2.949,0,0,0-3.025-3.233,2.83,2.83,0,0,0-2.545,1.392v-1.232H35.417v8Zm10.224,0h1.377V172.9c0-1.872,1.024-2.929,2.321-2.929a1.921,1.921,0,0,1,1.889,2.177v4.722h1.361v-4.93a2.949,2.949,0,0,0-3.025-3.233,2.83,2.83,0,0,0-2.545,1.392v-1.232H45.641v8Zm17.955-4a4.186,4.186,0,1,0-4.178,4.162A4.107,4.107,0,0,0,63.6,172.869Zm-6.963,0a2.779,2.779,0,1,1,2.785,2.882A2.751,2.751,0,0,1,56.633,172.869Zm12.049,4h1.153l3.7-8H72l-2.737,6.05-2.737-6.05H64.984Zm6.255-4a4,4,0,0,0,3.921,4.162,3.51,3.51,0,0,0,2.817-1.392v1.232h1.377v-8H81.675V170.1a3.51,3.51,0,0,0-2.817-1.392A4,4,0,0,0,74.936,172.869Zm6.851,0a2.734,2.734,0,1,1-2.721-2.9A2.733,2.733,0,0,1,81.787,172.869Zm8.991,3.89v-1.232a3.044,3.044,0,0,1-.976.16,1.153,1.153,0,0,1-1.328-1.361v-4.194h2.3v-1.264h-2.3v-2.225H87.1v2.225H85.4v1.264h1.7v4.37a2.253,2.253,0,0,0,2.449,2.449A3.831,3.831,0,0,0,90.778,176.759ZM95,165.747a0.967,0.967,0,0,0-.96-0.977,0.994,0.994,0,0,0-.992.977,0.984,0.984,0,0,0,.992.976A0.957,0.957,0,0,0,95,165.747Zm-1.665,11.124h1.377v-8H93.336v8Zm12.515-4a4.186,4.186,0,1,0-4.177,4.162A4.107,4.107,0,0,0,105.851,172.869Zm-6.963,0a2.779,2.779,0,1,1,2.786,2.882A2.751,2.751,0,0,1,98.889,172.869Zm9.728,4h1.377V172.9c0-1.872,1.024-2.929,2.32-2.929a1.921,1.921,0,0,1,1.889,2.177v4.722h1.361v-4.93a2.949,2.949,0,0,0-3.025-3.233,2.829,2.829,0,0,0-2.545,1.392v-1.232h-1.377v8Zm12.129-1.072a1.185,1.185,0,1,0-1.185,1.2A1.207,1.207,0,0,0,120.745,175.8Zm9.616,1.072h1.456v-9.956h3.538v-1.409h-8.532v1.409h3.538v9.956Zm7.247,0h1.376V172.9c0-1.872,1.025-2.929,2.321-2.929a1.921,1.921,0,0,1,1.889,2.177v4.722h1.361v-4.93a2.95,2.95,0,0,0-3.026-3.233,2.832,2.832,0,0,0-2.545,1.392v-5.234h-1.376v12ZM149.5,165.747a0.966,0.966,0,0,0-.96-0.977,1,1,0,0,0-.993.977,0.984,0.984,0,0,0,.993.976A0.956,0.956,0,0,0,149.5,165.747Zm-1.664,11.124h1.376v-8h-1.376v8Zm9.97-2.225c0-1.2-.753-1.969-2.113-2.417l-0.865-.288c-0.944-.3-1.232-0.608-1.232-1.12a1.132,1.132,0,0,1,1.344-.929,2.16,2.16,0,0,1,1.7.833l0.9-.865a3.1,3.1,0,0,0-2.561-1.152c-1.584,0-2.7.88-2.7,2.177a2.417,2.417,0,0,0,1.985,2.321l0.784,0.256c1.041,0.336,1.425.72,1.425,1.28a1.218,1.218,0,0,1-1.409,1.089A2.148,2.148,0,0,1,153,174.566l-1.121.608a3.178,3.178,0,0,0,3.137,1.857C156.633,177.031,157.8,176.215,157.8,174.646Zm7.677,2.225h1.489V165.506h-1.489v11.365Zm9.41-.112v-1.232a3.043,3.043,0,0,1-.977.16,1.153,1.153,0,0,1-1.328-1.361v-4.194h2.305v-1.264h-2.305v-2.225h-1.377v2.225h-1.7v1.264h1.7v4.37a2.253,2.253,0,0,0,2.449,2.449A3.83,3.83,0,0,0,174.889,176.759Zm1.822-3.89a4.005,4.005,0,0,0,3.922,4.162,3.51,3.51,0,0,0,2.817-1.392v1.232h1.376v-8H183.45V170.1a3.51,3.51,0,0,0-2.817-1.392A4.005,4.005,0,0,0,176.711,172.869Zm6.851,0a2.734,2.734,0,1,1-2.721-2.9A2.733,2.733,0,0,1,183.562,172.869Zm4.653,4h1.377v-12h-1.377v12Zm6.449-11.124a0.967,0.967,0,0,0-.961-0.977,0.994,0.994,0,0,0-.992.977,0.983,0.983,0,0,0,.992.976A0.957,0.957,0,0,0,194.664,165.747ZM193,176.871h1.377v-8H193v8Zm4.16-4a4,4,0,0,0,3.921,4.162,3.509,3.509,0,0,0,2.817-1.392v1.232h1.377v-8H203.9V170.1a3.509,3.509,0,0,0-2.817-1.392A4,4,0,0,0,197.159,172.869Zm6.85,0a2.734,2.734,0,1,1-2.721-2.9A2.733,2.733,0,0,1,204.009,172.869Zm4.654,4h1.376V172.9c0-1.872,1.025-2.929,2.321-2.929a1.921,1.921,0,0,1,1.889,2.177v4.722h1.36v-4.93a2.949,2.949,0,0,0-3.025-3.233,2.831,2.831,0,0,0-2.545,1.392v-1.232h-1.376v8Zm20.722-3.329,4.1-5.506v8.835h1.473V165.506H233.61l-4.225,5.667-4.226-5.667H223.8v11.365h1.489v-8.835Zm16.768-.673a4.186,4.186,0,1,0-4.177,4.162A4.107,4.107,0,0,0,246.153,172.869Zm-6.962,0a2.779,2.779,0,1,1,2.785,2.882A2.751,2.751,0,0,1,239.191,172.869Zm13.921,3.89v-1.232a3.041,3.041,0,0,1-.976.16,1.153,1.153,0,0,1-1.329-1.361v-4.194h2.305v-1.264h-2.305v-2.225h-1.376v2.225h-1.7v1.264h1.7v4.37a2.252,2.252,0,0,0,2.449,2.449A3.828,3.828,0,0,0,253.112,176.759Zm4.223-11.012a0.966,0.966,0,0,0-.96-0.977,0.994,0.994,0,0,0-.993.977,0.984,0.984,0,0,0,.993.976A0.956,0.956,0,0,0,257.335,165.747Zm-1.665,11.124h1.377v-8H255.67v8Zm12.515-4a4.186,4.186,0,1,0-4.177,4.162A4.107,4.107,0,0,0,268.185,172.869Zm-6.963,0a2.779,2.779,0,1,1,2.786,2.882A2.752,2.752,0,0,1,261.222,172.869Zm9.728,4h1.376V172.9c0-1.872,1.025-2.929,2.321-2.929a1.921,1.921,0,0,1,1.889,2.177v4.722H277.9v-4.93a2.95,2.95,0,0,0-3.026-3.233,2.832,2.832,0,0,0-2.545,1.392v-1.232H270.95v8Zm9.968-3.793H285V171.7h-4.081v1.377Zm6.191,1.936a4.389,4.389,0,0,0,3.986,2.049c2.113,0,3.618-1.216,3.618-3.153,0-1.681-.961-2.641-2.642-3.281L290.7,170.1c-1.153-.432-1.713-0.864-1.713-1.824a1.81,1.81,0,0,1,2.049-1.569,2.813,2.813,0,0,1,2.257,1.12l1.088-.96a4.145,4.145,0,0,0-3.313-1.553c-2.033,0-3.553,1.169-3.553,3.026,0,1.552.8,2.481,2.577,3.137l1.5,0.576a2.066,2.066,0,0,1,1.633,1.921,1.846,1.846,0,0,1-2.1,1.7,3.177,3.177,0,0,1-2.817-1.553Zm14.466,1.745v-1.232a3.041,3.041,0,0,1-.976.16,1.153,1.153,0,0,1-1.329-1.361v-4.194h2.305v-1.264H299.27v-2.225h-1.376v2.225h-1.7v1.264h1.7v4.37a2.252,2.252,0,0,0,2.449,2.449A3.828,3.828,0,0,0,301.575,176.759Zm2.559,0.112h1.376V172.9c0-1.872,1.105-2.753,2.113-2.753a2.011,2.011,0,0,1,.752.128v-1.424a2.851,2.851,0,0,0-.624-0.064,2.381,2.381,0,0,0-2.241,1.632v-1.552h-1.376v8Zm5.743-4a4.22,4.22,0,0,0,7.748,2.257l-1.089-.752a2.833,2.833,0,0,1-5.266-1.232h6.563a3.922,3.922,0,0,0,.016-0.417,3.729,3.729,0,0,0-3.81-4.017A4.056,4.056,0,0,0,309.877,172.869Zm4.114-2.945a2.4,2.4,0,0,1,2.449,2.1h-5.074A2.617,2.617,0,0,1,313.991,169.924Zm10.832,6.835v-1.232a3.041,3.041,0,0,1-.976.16,1.153,1.153,0,0,1-1.328-1.361v-4.194h2.3v-1.264h-2.3v-2.225h-1.377v2.225h-1.7v1.264h1.7v4.37a2.252,2.252,0,0,0,2.449,2.449A3.828,3.828,0,0,0,324.823,176.759Zm9.714-1.873-1.2-.672a2.713,2.713,0,0,1-2.5,1.537,2.883,2.883,0,0,1,0-5.763,2.713,2.713,0,0,1,2.5,1.537l1.2-.672a4.144,4.144,0,0,0-3.7-2.145,4.162,4.162,0,1,0,0,8.323A4.144,4.144,0,0,0,334.537,174.886Zm2.573,1.985h1.376V172.9c0-1.872,1.025-2.929,2.321-2.929a1.921,1.921,0,0,1,1.889,2.177v4.722h1.36v-4.93a2.949,2.949,0,0,0-3.025-3.233,2.831,2.831,0,0,0-2.545,1.392v-5.234H337.11v12Zm23.619,0h1.329l3.105-11.365H363.61l-2.385,8.868-3.281-9.06-3.265,9.06-2.385-8.868h-1.553l3.105,11.365h1.329l2.785-7.715Zm14.143-4a4.186,4.186,0,1,0-4.177,4.162A4.107,4.107,0,0,0,374.872,172.869Zm-6.962,0a2.779,2.779,0,1,1,2.785,2.882A2.751,2.751,0,0,1,367.91,172.869Zm17.458,0a4.186,4.186,0,1,0-4.177,4.162A4.107,4.107,0,0,0,385.368,172.869Zm-6.963,0a2.779,2.779,0,1,1,2.786,2.882A2.752,2.752,0,0,1,378.405,172.869Zm9.728,4h1.376v-12h-1.376v12Zm8.767-1.857a4.389,4.389,0,0,0,3.986,2.049c2.113,0,3.617-1.216,3.617-3.153,0-1.681-.96-2.641-2.641-3.281l-1.376-.529c-1.153-.432-1.713-0.864-1.713-1.824a1.81,1.81,0,0,1,2.049-1.569,2.813,2.813,0,0,1,2.257,1.12l1.088-.96a4.146,4.146,0,0,0-3.313-1.553c-2.033,0-3.554,1.169-3.554,3.026,0,1.552.8,2.481,2.577,3.137l1.5,0.576a2.066,2.066,0,0,1,1.633,1.921,1.846,1.846,0,0,1-2.1,1.7,3.175,3.175,0,0,1-2.817-1.553Zm10.24-1.232c0,1.985,1.185,3.249,2.946,3.249a2.752,2.752,0,0,0,2.464-1.392v1.232h1.377v-8H412.55v3.969c0,1.841-.976,2.93-2.224,2.93-1.105,0-1.809-.849-1.809-2.193v-4.706H407.14v4.914Zm11.841-8.035a0.966,0.966,0,0,0-.96-0.977,0.994,0.994,0,0,0-.993.977,0.984,0.984,0,0,0,.993.976A0.956,0.956,0,0,0,418.981,165.747Zm-1.665,11.124h1.377v-8h-1.377v8Zm9.122-.112v-1.232a3.041,3.041,0,0,1-.976.16,1.153,1.153,0,0,1-1.329-1.361v-4.194h2.305v-1.264h-2.305v-2.225h-1.377v2.225h-1.7v1.264h1.7v4.37a2.253,2.253,0,0,0,2.449,2.449A3.83,3.83,0,0,0,426.438,176.759Zm7.726,0.112h1.377v-6.739h2.321v-1.264h-2.321V167.4a1.152,1.152,0,0,1,1.328-1.36,3.223,3.223,0,0,1,.993.16v-1.217a3.638,3.638,0,0,0-1.249-.208,2.286,2.286,0,0,0-2.449,2.481v1.617h-1.7v1.264h1.7v6.739Zm5.168-4a4.219,4.219,0,0,0,7.747,2.257l-1.088-.752a2.834,2.834,0,0,1-5.267-1.232h6.563a3.922,3.922,0,0,0,.016-0.417,3.729,3.729,0,0,0-3.809-4.017A4.056,4.056,0,0,0,439.332,172.869Zm4.114-2.945a2.4,2.4,0,0,1,2.449,2.1h-5.074A2.616,2.616,0,0,1,443.446,169.924Zm5.982,2.945a4.005,4.005,0,0,0,3.921,4.162,3.512,3.512,0,0,0,2.818-1.392v1.232h1.376v-8h-1.376V170.1a3.512,3.512,0,0,0-2.818-1.392A4,4,0,0,0,449.428,172.869Zm6.851,0a2.734,2.734,0,1,1-2.721-2.9A2.733,2.733,0,0,1,456.279,172.869Zm8.991,3.89v-1.232a3.048,3.048,0,0,1-.977.16,1.153,1.153,0,0,1-1.328-1.361v-4.194h2.305v-1.264h-2.305v-2.225h-1.377v2.225h-1.7v1.264h1.7v4.37a2.253,2.253,0,0,0,2.449,2.449A3.835,3.835,0,0,0,465.27,176.759Zm2.446-2.977c0,1.985,1.184,3.249,2.945,3.249a2.754,2.754,0,0,0,2.465-1.392v1.232H474.5v-8h-1.377v3.969c0,1.841-.976,2.93-2.225,2.93-1.1,0-1.809-.849-1.809-2.193v-4.706h-1.376v4.914Zm10.176,3.089h1.376V172.9c0-1.872,1.105-2.753,2.113-2.753a2.02,2.02,0,0,1,.753.128v-1.424a2.866,2.866,0,0,0-.625-0.064,2.381,2.381,0,0,0-2.241,1.632v-1.552h-1.376v8Zm5.744-4a4.219,4.219,0,0,0,7.747,2.257l-1.089-.752a2.833,2.833,0,0,1-5.266-1.232h6.563a3.922,3.922,0,0,0,.016-0.417,3.729,3.729,0,0,0-3.81-4.017A4.055,4.055,0,0,0,483.636,172.869Zm4.113-2.945a2.4,2.4,0,0,1,2.449,2.1h-5.074A2.617,2.617,0,0,1,487.749,169.924Zm11.793,4.722c0-1.2-.752-1.969-2.113-2.417l-0.864-.288c-0.945-.3-1.233-0.608-1.233-1.12a1.133,1.133,0,0,1,1.345-.929,2.159,2.159,0,0,1,1.7.833l0.9-.865a3.1,3.1,0,0,0-2.561-1.152c-1.585,0-2.7.88-2.7,2.177a2.416,2.416,0,0,0,1.984,2.321l0.785,0.256c1.04,0.336,1.424.72,1.424,1.28a1.218,1.218,0,0,1-1.408,1.089,2.148,2.148,0,0,1-2.049-1.265l-1.12.608a3.177,3.177,0,0,0,3.137,1.857C498.373,177.031,499.542,176.215,499.542,174.646Zm6.845-1.777a4.005,4.005,0,0,0,3.922,4.162,3.51,3.51,0,0,0,2.817-1.392v1.232H514.5v-8h-1.377V170.1a3.51,3.51,0,0,0-2.817-1.392A4.005,4.005,0,0,0,506.387,172.869Zm6.851,0a2.734,2.734,0,1,1-2.721-2.9A2.733,2.733,0,0,1,513.238,172.869Zm9.245,0.913c0,1.985,1.185,3.249,2.945,3.249a2.753,2.753,0,0,0,2.465-1.392v1.232h1.377v-8h-1.377v3.969c0,1.841-.976,2.93-2.225,2.93-1.1,0-1.808-.849-1.808-2.193v-4.706h-1.377v4.914Zm10.176,3.089h1.377V172.9c0-1.872,1.024-2.929,2.321-2.929a1.921,1.921,0,0,1,1.888,2.177v4.722h1.361v-4.93a2.949,2.949,0,0,0-3.025-3.233,2.829,2.829,0,0,0-2.545,1.392v-1.232h-1.377v8Zm11.889-11.124a0.967,0.967,0,0,0-.961-0.977,0.994,0.994,0,0,0-.992.977,0.983,0.983,0,0,0,.992.976A0.957,0.957,0,0,0,544.548,165.747Zm-1.665,11.124h1.376v-8h-1.376v8Zm10.9,3.345h1.377V168.868h-1.377V170.1a3.509,3.509,0,0,0-2.817-1.392,4.169,4.169,0,0,0,0,8.323,3.509,3.509,0,0,0,2.817-1.392v4.577Zm0.112-7.347a2.734,2.734,0,1,1-2.721-2.9A2.733,2.733,0,0,1,553.893,172.869Zm4.542,0.913c0,1.985,1.184,3.249,2.945,3.249a2.754,2.754,0,0,0,2.465-1.392v1.232h1.376v-8h-1.376v3.969c0,1.841-.977,2.93-2.225,2.93-1.105,0-1.809-.849-1.809-2.193v-4.706h-1.376v4.914Zm9.551-.913a4.219,4.219,0,0,0,7.747,2.257l-1.088-.752a2.833,2.833,0,0,1-5.266-1.232h6.562a3.922,3.922,0,0,0,.016-0.417,3.728,3.728,0,0,0-3.809-4.017A4.056,4.056,0,0,0,567.986,172.869Zm4.114-2.945a2.4,2.4,0,0,1,2.449,2.1h-5.074A2.616,2.616,0,0,1,572.1,169.924Zm11.31,6.947h1.377v-4l4.337,4h1.857l-4.818-4.466,3.938-3.537h-1.825l-3.489,3.121v-7.123H583.41v12Zm9.424,0h1.377V172.9c0-1.872,1.024-2.929,2.32-2.929a1.921,1.921,0,0,1,1.889,2.177v4.722h1.361v-4.93a2.949,2.949,0,0,0-3.025-3.233,2.829,2.829,0,0,0-2.545,1.392v-1.232h-1.377v8Zm11.888-11.124a0.966,0.966,0,0,0-.96-0.977,0.994,0.994,0,0,0-.992.977,0.983,0.983,0,0,0,.992.976A0.956,0.956,0,0,0,604.722,165.747Zm-1.664,11.124h1.376v-8h-1.376v8Zm9.121-.112v-1.232a3.041,3.041,0,0,1-.976.16,1.153,1.153,0,0,1-1.328-1.361v-4.194h2.3v-1.264h-2.3v-2.225H608.5v2.225h-1.7v1.264h1.7v4.37a2.252,2.252,0,0,0,2.449,2.449A3.828,3.828,0,0,0,612.179,176.759Zm7.727,0.112h1.376v-6.739H623.6v-1.264h-2.321V167.4a1.153,1.153,0,0,1,1.329-1.36,3.222,3.222,0,0,1,.992.16v-1.217a3.636,3.636,0,0,0-1.248-.208,2.286,2.286,0,0,0-2.449,2.481v1.617h-1.7v1.264h1.7v6.739Zm5.167-4A4.005,4.005,0,0,0,629,177.031a3.509,3.509,0,0,0,2.817-1.392v1.232h1.377v-8h-1.377V170.1A3.509,3.509,0,0,0,629,168.708,4.005,4.005,0,0,0,625.073,172.869Zm6.851,0a2.734,2.734,0,1,1-2.721-2.9A2.733,2.733,0,0,1,631.924,172.869Zm6.03,2.77a3.51,3.51,0,0,0,2.817,1.392,4.169,4.169,0,0,0,0-8.323,3.51,3.51,0,0,0-2.817,1.392v-5.234h-1.376v12h1.376v-1.232Zm5.33-2.77a2.726,2.726,0,1,1-2.721-2.9A2.733,2.733,0,0,1,643.284,172.869Zm4.173,4h1.377V172.9c0-1.872,1.1-2.753,2.113-2.753a2.011,2.011,0,0,1,.752.128v-1.424a2.851,2.851,0,0,0-.624-0.064,2.381,2.381,0,0,0-2.241,1.632v-1.552h-1.377v8Zm8.321-11.124a0.966,0.966,0,0,0-.96-0.977,0.994,0.994,0,0,0-.993.977,0.984,0.984,0,0,0,.993.976A0.956,0.956,0,0,0,655.778,165.747Zm-1.665,11.124h1.377v-8h-1.377v8Zm12.051-1.985-1.2-.672a2.714,2.714,0,0,1-2.5,1.537,2.883,2.883,0,0,1,0-5.763,2.714,2.714,0,0,1,2.5,1.537l1.2-.672a4.143,4.143,0,0,0-3.7-2.145,4.162,4.162,0,1,0,0,8.323A4.143,4.143,0,0,0,666.164,174.886ZM31.305,196.871h1.377v-6.739H35v-1.264H32.682V187.4a1.152,1.152,0,0,1,1.328-1.36,3.225,3.225,0,0,1,.992.16v-1.217a3.639,3.639,0,0,0-1.248-.208,2.286,2.286,0,0,0-2.449,2.481v1.617h-1.7v1.264h1.7v6.739Zm6,0h1.377V192.9c0-1.872,1.1-2.753,2.113-2.753a2.013,2.013,0,0,1,.752.128v-1.424a2.854,2.854,0,0,0-.624-0.064,2.381,2.381,0,0,0-2.241,1.632v-1.552H37.3v8Zm14.1-4a4.186,4.186,0,1,0-4.178,4.162A4.107,4.107,0,0,0,51.4,192.869Zm-6.963,0a2.779,2.779,0,1,1,2.785,2.882A2.751,2.751,0,0,1,44.441,192.869Zm9.728,4h1.377V192.9c0-1.808.912-2.929,2.209-2.929,1.041,0,1.569.9,1.569,2.193v4.706H60.7V192.9c0-1.808.9-2.929,2.193-2.929,1.04,0,1.585.9,1.585,2.193v4.706h1.376v-4.914c0-1.953-1.056-3.249-2.8-3.249a2.77,2.77,0,0,0-2.625,1.712,2.516,2.516,0,0,0-2.465-1.712,2.69,2.69,0,0,0-2.417,1.392v-1.232H54.169v8Zm23.73-.112v-1.232a3.044,3.044,0,0,1-.976.16,1.153,1.153,0,0,1-1.328-1.361v-4.194h2.3v-1.264h-2.3v-2.225H74.217v2.225h-1.7v1.264h1.7v4.37a2.253,2.253,0,0,0,2.449,2.449A3.832,3.832,0,0,0,77.9,196.759Zm2.558,0.112h1.376V192.9c0-1.872,1.024-2.929,2.321-2.929a1.921,1.921,0,0,1,1.889,2.177v4.722H87.4v-4.93a2.949,2.949,0,0,0-3.025-3.233,2.83,2.83,0,0,0-2.545,1.392v-5.234H80.457v12Zm9.6-4a4.219,4.219,0,0,0,7.747,2.257l-1.089-.752a2.833,2.833,0,0,1-5.266-1.232h6.563a3.922,3.922,0,0,0,.016-0.417,3.729,3.729,0,0,0-3.81-4.017A4.056,4.056,0,0,0,90.056,192.869Zm4.114-2.945a2.4,2.4,0,0,1,2.449,2.1H91.545A2.617,2.617,0,0,1,94.17,189.924Zm17.809,6.947H113.2l2.721-8H114.46l-1.937,5.842-2-5.842h-1.056l-2,5.842-1.937-5.842h-1.44l2.721,8h1.216l1.985-5.762Zm13.92-4a4.186,4.186,0,1,0-4.178,4.162A4.107,4.107,0,0,0,125.9,192.869Zm-6.963,0a2.779,2.779,0,1,1,2.785,2.882A2.751,2.751,0,0,1,118.936,192.869Zm9.728,4h1.376V192.9c0-1.872,1.105-2.753,2.113-2.753a2.011,2.011,0,0,1,.752.128v-1.424a2.851,2.851,0,0,0-.624-0.064,2.381,2.381,0,0,0-2.241,1.632v-1.552h-1.376v8Zm6.656,0H136.7v-12H135.32v12Zm4.159-4a4.005,4.005,0,0,0,3.922,4.162,3.51,3.51,0,0,0,2.817-1.392v1.232H147.6v-12h-1.377V190.1a3.51,3.51,0,0,0-2.817-1.392A4.005,4.005,0,0,0,139.479,192.869Zm6.851,0a2.734,2.734,0,1,1-2.721-2.9A2.733,2.733,0,0,1,146.33,192.869Zm4.4,0.209h4.082V191.7h-4.082v1.377Zm7.232,3.793h1.377V192.9c0-1.872,1.1-2.753,2.113-2.753a2.011,2.011,0,0,1,.752.128v-1.424a2.851,2.851,0,0,0-.624-0.064,2.38,2.38,0,0,0-2.241,1.632v-1.552h-1.377v8Zm5.744-4a4.219,4.219,0,0,0,7.747,2.257l-1.088-.752a2.833,2.833,0,0,1-5.266-1.232h6.562a3.922,3.922,0,0,0,.016-0.417,3.728,3.728,0,0,0-3.809-4.017A4.056,4.056,0,0,0,163.7,192.869Zm4.114-2.945a2.4,2.4,0,0,1,2.449,2.1h-5.074A2.616,2.616,0,0,1,167.817,189.924Zm6.606,6.947H175.8V192.9c0-1.872,1.024-2.929,2.321-2.929a1.921,1.921,0,0,1,1.888,2.177v4.722h1.361v-4.93a2.949,2.949,0,0,0-3.025-3.233A2.829,2.829,0,0,0,175.8,190.1v-1.232h-1.377v8Zm17.955-4a4.186,4.186,0,1,0-4.178,4.162A4.107,4.107,0,0,0,192.378,192.869Zm-6.963,0a2.779,2.779,0,1,1,2.785,2.882A2.751,2.751,0,0,1,185.415,192.869Zm16.483,4h1.216l2.721-8h-1.456l-1.937,5.842-2-5.842h-1.056l-2,5.842-1.937-5.842h-1.441l2.721,8h1.217l1.985-5.762Zm6.221,0H209.5V192.9c0-1.872,1.025-2.929,2.321-2.929a1.921,1.921,0,0,1,1.889,2.177v4.722h1.36v-4.93a2.949,2.949,0,0,0-3.025-3.233A2.831,2.831,0,0,0,209.5,190.1v-1.232h-1.376v8Zm9.6-4a4.219,4.219,0,0,0,7.747,2.257l-1.088-.752a2.833,2.833,0,0,1-5.266-1.232h6.562a3.922,3.922,0,0,0,.016-0.417,3.728,3.728,0,0,0-3.809-4.017A4.056,4.056,0,0,0,217.718,192.869Zm4.114-2.945a2.4,2.4,0,0,1,2.449,2.1h-5.074A2.616,2.616,0,0,1,221.832,189.924Zm5.982,2.945a4.005,4.005,0,0,0,3.922,4.162,3.51,3.51,0,0,0,2.817-1.392v1.232h1.376v-12h-1.376V190.1a3.51,3.51,0,0,0-2.817-1.392A4.005,4.005,0,0,0,227.814,192.869Zm6.851,0a2.734,2.734,0,1,1-2.721-2.9A2.733,2.733,0,0,1,234.665,192.869Zm15.151,0.673,4.1-5.506v8.835h1.473V185.506h-1.345l-4.226,5.667-4.225-5.667H244.23v11.365h1.489v-8.835Zm8.414-.673a4,4,0,0,0,3.921,4.162,3.509,3.509,0,0,0,2.817-1.392v1.232h1.377v-8h-1.377V190.1a3.509,3.509,0,0,0-2.817-1.392A4,4,0,0,0,258.23,192.869Zm6.85,0a2.734,2.734,0,1,1-2.721-2.9A2.733,2.733,0,0,1,265.08,192.869Zm4.654,4h1.376V192.9c0-1.872,1.1-2.753,2.113-2.753a2.02,2.02,0,0,1,.753.128v-1.424a2.866,2.866,0,0,0-.625-0.064,2.381,2.381,0,0,0-2.241,1.632v-1.552h-1.376v8Zm8.32-11.124a0.966,0.966,0,0,0-.96-0.977,0.994,0.994,0,0,0-.992.977,0.983,0.983,0,0,0,.992.976A0.956,0.956,0,0,0,278.054,185.747Zm-1.664,11.124h1.376v-8H276.39v8Zm12.515-4a4.186,4.186,0,1,0-4.178,4.162A4.107,4.107,0,0,0,288.9,192.869Zm-6.963,0a2.779,2.779,0,1,1,2.785,2.882A2.751,2.751,0,0,1,281.942,192.869Zm14.639,4h4.066c2.305,0,3.81-1.424,3.81-3.313a2.708,2.708,0,0,0-1.969-2.721,2.578,2.578,0,0,0,1.216-2.321,3.112,3.112,0,0,0-3.393-3.01h-3.73v11.365Zm1.489-6.483v-3.537h2.241a1.787,1.787,0,0,1,1.937,1.777,1.749,1.749,0,0,1-1.937,1.76H298.07Zm0,5.139v-3.858h2.657c1.505,0,2.273.832,2.273,1.937,0,1.12-.768,1.921-2.289,1.921H298.07Zm8.543-2.658a4.219,4.219,0,0,0,7.747,2.257l-1.088-.752a2.833,2.833,0,0,1-5.266-1.232h6.562a3.922,3.922,0,0,0,.016-0.417,3.729,3.729,0,0,0-3.809-4.017A4.056,4.056,0,0,0,306.613,192.869Zm4.114-2.945a2.4,2.4,0,0,1,2.449,2.1H308.1A2.616,2.616,0,0,1,310.727,189.924Zm6.606,6.947h1.377v-12h-1.377v12Zm4.784,0h1.377v-12h-1.377v12Zm4.672-3.089c0,1.985,1.184,3.249,2.945,3.249a2.754,2.754,0,0,0,2.465-1.392v1.232h1.377v-8H332.2v3.969c0,1.841-.976,2.93-2.225,2.93-1.1,0-1.809-.849-1.809-2.193v-4.706h-1.376v4.914Zm17.443,1.1-1.2-.672a2.713,2.713,0,0,1-2.5,1.537,2.883,2.883,0,0,1,0-5.763,2.713,2.713,0,0,1,2.5,1.537l1.2-.672a4.144,4.144,0,0,0-3.7-2.145,4.162,4.162,0,1,0,0,8.323A4.144,4.144,0,0,0,344.232,194.886Zm9.84,0-1.2-.672a2.714,2.714,0,0,1-2.5,1.537,2.883,2.883,0,0,1,0-5.763,2.714,2.714,0,0,1,2.5,1.537l1.2-.672a4.145,4.145,0,0,0-3.7-2.145,4.162,4.162,0,1,0,0,8.323A4.145,4.145,0,0,0,354.072,194.886Zm4.237-9.139a0.966,0.966,0,0,0-.96-0.977,0.994,0.994,0,0,0-.993.977,0.984,0.984,0,0,0,.993.976A0.956,0.956,0,0,0,358.309,185.747Zm-1.665,11.124h1.377v-8h-1.377v8Zm9.488,0h1.377V192.9c0-1.808.912-2.929,2.209-2.929,1.04,0,1.568.9,1.568,2.193v4.706h1.377V192.9c0-1.808.9-2.929,2.193-2.929,1.04,0,1.584.9,1.584,2.193v4.706h1.377v-4.914c0-1.953-1.057-3.249-2.8-3.249a2.769,2.769,0,0,0-2.625,1.712,2.517,2.517,0,0,0-2.465-1.712,2.689,2.689,0,0,0-2.417,1.392v-1.232h-1.377v8Zm16.625-11.124a0.967,0.967,0,0,0-.961-0.977,0.994,0.994,0,0,0-.992.977,0.983,0.983,0,0,0,.992.976A0.957,0.957,0,0,0,382.757,185.747Zm-1.665,11.124h1.377v-8h-1.377v8Zm4.784,0h1.376v-12h-1.376v12Zm4.784,0h1.376v-12H390.66v12Zm6.5-.352a1.368,1.368,0,0,0,.224-0.72,1.185,1.185,0,1,0-2.369,0,1.192,1.192,0,0,0,.657,1.072L394.6,199.16h0.913Zm15.154-1.633-1.2-.672a2.714,2.714,0,0,1-2.5,1.537,2.883,2.883,0,0,1,0-5.763,2.714,2.714,0,0,1,2.5,1.537l1.2-.672A4.162,4.162,0,1,0,412.31,194.886Zm2.573,1.985h1.377V192.9c0-1.872,1.1-2.753,2.113-2.753a2.011,2.011,0,0,1,.752.128v-1.424a2.851,2.851,0,0,0-.624-0.064,2.38,2.38,0,0,0-2.241,1.632v-1.552h-1.377v8Zm5.744-4a4.219,4.219,0,0,0,7.747,2.257l-1.088-.752a2.833,2.833,0,0,1-5.266-1.232h6.562a3.922,3.922,0,0,0,.016-0.417,3.728,3.728,0,0,0-3.809-4.017A4.056,4.056,0,0,0,420.627,192.869Zm4.114-2.945a2.4,2.4,0,0,1,2.449,2.1h-5.074A2.616,2.616,0,0,1,424.741,189.924Zm5.982,2.945a4.005,4.005,0,0,0,3.922,4.162,3.512,3.512,0,0,0,2.817-1.392v1.232h1.376v-8h-1.376V190.1a3.512,3.512,0,0,0-2.817-1.392A4.005,4.005,0,0,0,430.723,192.869Zm6.851,0a2.734,2.734,0,1,1-2.721-2.9A2.733,2.733,0,0,1,437.574,192.869Zm8.991,3.89v-1.232a3.043,3.043,0,0,1-.977.16,1.153,1.153,0,0,1-1.328-1.361v-4.194h2.305v-1.264H444.26v-2.225h-1.377v2.225h-1.7v1.264h1.7v4.37a2.253,2.253,0,0,0,2.449,2.449A3.835,3.835,0,0,0,446.565,196.759Zm4.223-11.012a0.967,0.967,0,0,0-.961-0.977,0.994,0.994,0,0,0-.992.977,0.983,0.983,0,0,0,.992.976A0.957,0.957,0,0,0,450.788,185.747Zm-1.665,11.124H450.5v-8h-1.377v8Zm4.784,0h1.376V192.9c0-1.872,1.025-2.929,2.321-2.929a1.921,1.921,0,0,1,1.889,2.177v4.722h1.361v-4.93a2.95,2.95,0,0,0-3.026-3.233,2.832,2.832,0,0,0-2.545,1.392v-1.232h-1.376v8Zm17.683-.464v-7.539h-1.377V190.1a3.4,3.4,0,0,0-2.785-1.392,4.077,4.077,0,0,0,0,8.147,3.417,3.417,0,0,0,2.785-1.408v0.912a2.558,2.558,0,0,1-2.673,2.769,3.422,3.422,0,0,1-2.8-1.345l-0.96.961a4.751,4.751,0,0,0,3.777,1.633A3.705,3.705,0,0,0,471.59,196.407Zm-6.675-3.634a2.707,2.707,0,1,1,2.7,2.8A2.667,2.667,0,0,1,464.915,192.773Zm14.143,0.1a4.005,4.005,0,0,0,3.922,4.162,3.51,3.51,0,0,0,2.817-1.392v1.232h1.376v-8H485.8V190.1a3.51,3.51,0,0,0-2.817-1.392A4.005,4.005,0,0,0,479.058,192.869Zm6.851,0a2.734,2.734,0,1,1-2.721-2.9A2.733,2.733,0,0,1,485.909,192.869Zm9.357,4h1.377V192.9c0-1.872,1.024-2.929,2.321-2.929a1.921,1.921,0,0,1,1.888,2.177v4.722h1.361v-4.93a2.949,2.949,0,0,0-3.025-3.233,2.829,2.829,0,0,0-2.545,1.392v-1.232h-1.377v8Zm9.6-4a4,4,0,0,0,3.921,4.162,3.509,3.509,0,0,0,2.817-1.392v1.232h1.377v-8H511.6V190.1a3.509,3.509,0,0,0-2.817-1.392A4,4,0,0,0,504.866,192.869Zm6.85,0a2.734,2.734,0,1,1-2.721-2.9A2.733,2.733,0,0,1,511.716,192.869Zm8.991,3.89v-1.232a3.041,3.041,0,0,1-.976.16,1.153,1.153,0,0,1-1.329-1.361v-4.194h2.3v-1.264h-2.3v-2.225h-1.376v2.225h-1.7v1.264h1.7v4.37a2.252,2.252,0,0,0,2.449,2.449A3.828,3.828,0,0,0,520.707,196.759Zm2.447-2.977c0,1.985,1.184,3.249,2.945,3.249a2.754,2.754,0,0,0,2.465-1.392v1.232h1.376v-8h-1.376v3.969c0,1.841-.977,2.93-2.225,2.93-1.105,0-1.809-.849-1.809-2.193v-4.706h-1.376v4.914Zm10.176,3.089h1.376V192.9c0-1.872,1.105-2.753,2.113-2.753a2.011,2.011,0,0,1,.752.128v-1.424a2.851,2.851,0,0,0-.624-0.064,2.381,2.381,0,0,0-2.241,1.632v-1.552H533.33v8Zm5.759-4a4.005,4.005,0,0,0,3.922,4.162,3.51,3.51,0,0,0,2.817-1.392v1.232h1.377v-8h-1.377V190.1a3.51,3.51,0,0,0-2.817-1.392A4.005,4.005,0,0,0,539.089,192.869Zm6.851,0a2.734,2.734,0,1,1-2.721-2.9A2.733,2.733,0,0,1,545.94,192.869Zm4.653,4h1.377v-12h-1.377v12Zm4.528-3.793H559.2V191.7h-4.082v1.377Zm12.418,1.568c0-1.2-.752-1.969-2.113-2.417l-0.864-.288c-0.944-.3-1.233-0.608-1.233-1.12a1.133,1.133,0,0,1,1.345-.929,2.163,2.163,0,0,1,1.7.833l0.9-.865a3.1,3.1,0,0,0-2.561-1.152c-1.585,0-2.705.88-2.705,2.177a2.416,2.416,0,0,0,1.985,2.321l0.784,0.256c1.04,0.336,1.425.72,1.425,1.28a1.219,1.219,0,0,1-1.409,1.089,2.149,2.149,0,0,1-2.049-1.265l-1.12.608a3.177,3.177,0,0,0,3.137,1.857C566.371,197.031,567.539,196.215,567.539,194.646Zm7.008,2.113v-1.232a3.048,3.048,0,0,1-.977.16,1.153,1.153,0,0,1-1.328-1.361v-4.194h2.305v-1.264h-2.305v-2.225h-1.377v2.225h-1.7v1.264h1.7v4.37a2.253,2.253,0,0,0,2.449,2.449A3.835,3.835,0,0,0,574.547,196.759Zm2.558,0.112h1.376V192.9c0-1.872,1.105-2.753,2.113-2.753a2.016,2.016,0,0,1,.753.128v-1.424a2.86,2.86,0,0,0-.625-0.064,2.382,2.382,0,0,0-2.241,1.632v-1.552h-1.376v8Zm5.744-4a4.219,4.219,0,0,0,7.747,2.257l-1.089-.752a2.833,2.833,0,0,1-5.266-1.232H590.8a3.922,3.922,0,0,0,.016-0.417,3.729,3.729,0,0,0-3.81-4.017A4.055,4.055,0,0,0,582.849,192.869Zm4.113-2.945a2.4,2.4,0,0,1,2.449,2.1h-5.074A2.617,2.617,0,0,1,586.962,189.924Zm10.833,6.835v-1.232a3.043,3.043,0,0,1-.977.16,1.153,1.153,0,0,1-1.328-1.361v-4.194h2.3v-1.264h-2.3v-2.225h-1.377v2.225h-1.7v1.264h1.7v4.37a2.253,2.253,0,0,0,2.449,2.449A3.83,3.83,0,0,0,597.795,196.759Zm9.713-1.873-1.2-.672a2.715,2.715,0,0,1-2.5,1.537,2.883,2.883,0,0,1,0-5.763,2.715,2.715,0,0,1,2.5,1.537l1.2-.672a4.143,4.143,0,0,0-3.7-2.145,4.162,4.162,0,1,0,0,8.323A4.143,4.143,0,0,0,607.508,194.886Zm2.573,1.985h1.377V192.9c0-1.872,1.024-2.929,2.32-2.929a1.921,1.921,0,0,1,1.889,2.177v4.722h1.361v-4.93A2.949,2.949,0,0,0,614,188.708a2.829,2.829,0,0,0-2.545,1.392v-5.234h-1.377v12Zm20.114-2.225c0-1.2-.753-1.969-2.113-2.417l-0.864-.288c-0.945-.3-1.233-0.608-1.233-1.12a1.133,1.133,0,0,1,1.345-.929,2.159,2.159,0,0,1,1.7.833l0.9-.865a3.106,3.106,0,0,0-2.561-1.152c-1.585,0-2.7.88-2.7,2.177a2.416,2.416,0,0,0,1.984,2.321l0.785,0.256c1.04,0.336,1.424.72,1.424,1.28a1.218,1.218,0,0,1-1.408,1.089,2.148,2.148,0,0,1-2.049-1.265l-1.121.608a3.18,3.18,0,0,0,3.138,1.857C629.026,197.031,630.2,196.215,630.2,194.646Zm2.653-.864c0,1.985,1.185,3.249,2.946,3.249a2.755,2.755,0,0,0,2.465-1.392v1.232h1.376v-8h-1.376v3.969c0,1.841-.977,2.93-2.225,2.93-1.105,0-1.809-.849-1.809-2.193v-4.706h-1.377v4.914Zm11.841-8.035a0.966,0.966,0,0,0-.96-0.977,0.994,0.994,0,0,0-.993.977,0.984,0.984,0,0,0,.993.976A0.956,0.956,0,0,0,644.689,185.747Zm-1.665,11.124H644.4v-8h-1.377v8Zm9.122-.112v-1.232a3.041,3.041,0,0,1-.976.16,1.153,1.153,0,0,1-1.329-1.361v-4.194h2.3v-1.264h-2.3v-2.225h-1.376v2.225h-1.7v1.264h1.7v4.37a2.252,2.252,0,0,0,2.449,2.449A3.828,3.828,0,0,0,652.146,196.759Zm-617.175,20v-1.232a3.044,3.044,0,0,1-.976.16,1.153,1.153,0,0,1-1.328-1.361v-4.194h2.3v-1.264h-2.3v-2.225H31.289v2.225h-1.7v1.264h1.7v4.37a2.253,2.253,0,0,0,2.449,2.449A3.831,3.831,0,0,0,34.971,216.759Zm2.558,0.112h1.377V212.9c0-1.872,1.024-2.929,2.321-2.929a1.921,1.921,0,0,1,1.889,2.177v4.722h1.361v-4.93a2.949,2.949,0,0,0-3.025-3.233,2.831,2.831,0,0,0-2.545,1.392v-5.234H37.529v12Zm9.6-4a4.005,4.005,0,0,0,3.922,4.162,3.51,3.51,0,0,0,2.817-1.392v1.232h1.377v-8H53.867V210.1a3.51,3.51,0,0,0-2.817-1.392A4,4,0,0,0,47.129,212.869Zm6.851,0a2.734,2.734,0,1,1-2.721-2.9A2.733,2.733,0,0,1,53.979,212.869Zm8.991,3.89v-1.232a3.044,3.044,0,0,1-.976.16,1.153,1.153,0,0,1-1.328-1.361v-4.194h2.3v-1.264h-2.3v-2.225H59.289v2.225h-1.7v1.264h1.7v4.37a2.253,2.253,0,0,0,2.449,2.449A3.831,3.831,0,0,0,62.97,216.759Zm7.262,3.457h1.377v-4.577a3.51,3.51,0,0,0,2.817,1.392,4.169,4.169,0,0,0,0-8.323,3.51,3.51,0,0,0-2.817,1.392v-1.232H70.232v11.348Zm6.707-7.347a2.726,2.726,0,1,1-2.721-2.9A2.733,2.733,0,0,1,76.939,212.869Zm4.077,0.913c0,1.985,1.185,3.249,2.945,3.249a2.754,2.754,0,0,0,2.465-1.392v1.232H87.8v-8H86.427v3.969c0,1.841-.976,2.93-2.225,2.93-1.1,0-1.809-.849-1.809-2.193v-4.706H81.016v4.914Zm15.362,0.864c0-1.2-.752-1.969-2.113-2.417l-0.864-.288c-0.944-.3-1.233-0.608-1.233-1.12a1.133,1.133,0,0,1,1.345-.929,2.161,2.161,0,0,1,1.7.833l0.9-.865a3.1,3.1,0,0,0-2.561-1.152c-1.585,0-2.705.88-2.705,2.177a2.416,2.416,0,0,0,1.985,2.321l0.784,0.256c1.04,0.336,1.425.72,1.425,1.28a1.218,1.218,0,0,1-1.409,1.089,2.149,2.149,0,0,1-2.049-1.265l-1.12.608a3.178,3.178,0,0,0,3.137,1.857C95.21,217.031,96.378,216.215,96.378,214.646Zm2.766,2.225h1.377V212.9c0-1.872,1.024-2.929,2.321-2.929a1.921,1.921,0,0,1,1.888,2.177v4.722h1.361v-4.93a2.949,2.949,0,0,0-3.025-3.233,2.829,2.829,0,0,0-2.545,1.392v-5.234H99.144v12Zm9.6-4a4.219,4.219,0,0,0,7.747,2.257l-1.089-.752a2.833,2.833,0,0,1-5.266-1.232H116.7a3.922,3.922,0,0,0,.016-0.417,3.729,3.729,0,0,0-3.81-4.017A4.055,4.055,0,0,0,108.744,212.869Zm4.113-2.945a2.4,2.4,0,0,1,2.449,2.1h-5.074A2.617,2.617,0,0,1,112.857,209.924Zm11.793,4.722c0-1.2-.752-1.969-2.113-2.417l-0.864-.288c-0.945-.3-1.233-0.608-1.233-1.12a1.133,1.133,0,0,1,1.345-.929,2.159,2.159,0,0,1,1.7.833l0.9-.865a3.1,3.1,0,0,0-2.561-1.152c-1.585,0-2.7.88-2.7,2.177a2.416,2.416,0,0,0,1.985,2.321l0.784,0.256c1.04,0.336,1.424.72,1.424,1.28a1.218,1.218,0,0,1-1.408,1.089,2.148,2.148,0,0,1-2.049-1.265l-1.12.608a3.177,3.177,0,0,0,3.137,1.857C123.481,217.031,124.65,216.215,124.65,214.646Zm11.535,2.113v-1.232a3.041,3.041,0,0,1-.976.16,1.153,1.153,0,0,1-1.329-1.361v-4.194h2.305v-1.264H133.88v-2.225H132.5v2.225h-1.7v1.264h1.7v4.37a2.252,2.252,0,0,0,2.449,2.449A3.828,3.828,0,0,0,136.185,216.759Zm2.558,0.112h1.377V212.9c0-1.872,1.024-2.929,2.321-2.929a1.922,1.922,0,0,1,1.889,2.177v4.722h1.36v-4.93a2.949,2.949,0,0,0-3.025-3.233,2.831,2.831,0,0,0-2.545,1.392v-5.234h-1.377v12Zm9.6-4a4.219,4.219,0,0,0,7.747,2.257L155,214.374a2.833,2.833,0,0,1-5.266-1.232H156.3a3.922,3.922,0,0,0,.016-0.417,3.728,3.728,0,0,0-3.809-4.017A4.056,4.056,0,0,0,148.343,212.869Zm4.114-2.945a2.4,2.4,0,0,1,2.449,2.1h-5.074A2.616,2.616,0,0,1,152.457,209.924Zm12.687,5.715a3.509,3.509,0,0,0,2.817,1.392,4.169,4.169,0,0,0,0-8.323,3.509,3.509,0,0,0-2.817,1.392v-5.234h-1.377v12h1.377v-1.232Zm5.33-2.77a2.726,2.726,0,1,1-2.721-2.9A2.733,2.733,0,0,1,170.474,212.869Zm11.9,0a4.186,4.186,0,1,0-4.178,4.162A4.107,4.107,0,0,0,182.378,212.869Zm-6.963,0a2.779,2.779,0,1,1,2.785,2.882A2.751,2.751,0,0,1,175.415,212.869Zm9.616,0.913c0,1.985,1.184,3.249,2.945,3.249a2.754,2.754,0,0,0,2.465-1.392v1.232h1.376v-8h-1.376v3.969c0,1.841-.977,2.93-2.225,2.93-1.105,0-1.809-.849-1.809-2.193v-4.706h-1.376v4.914Zm10.176,3.089h1.376V212.9c0-1.872,1.025-2.929,2.321-2.929a1.921,1.921,0,0,1,1.889,2.177v4.722h1.36v-4.93a2.949,2.949,0,0,0-3.025-3.233,2.831,2.831,0,0,0-2.545,1.392v-1.232h-1.376v8Zm9.6-4a4.005,4.005,0,0,0,3.922,4.162,3.51,3.51,0,0,0,2.817-1.392v1.232h1.376v-12h-1.376V210.1a3.51,3.51,0,0,0-2.817-1.392A4.005,4.005,0,0,0,204.806,212.869Zm6.851,0a2.734,2.734,0,1,1-2.721-2.9A2.733,2.733,0,0,1,211.657,212.869Zm4.029,0a4.005,4.005,0,0,0,3.922,4.162,3.512,3.512,0,0,0,2.817-1.392v1.232H223.8v-8h-1.376V210.1a3.512,3.512,0,0,0-2.817-1.392A4.005,4.005,0,0,0,215.686,212.869Zm6.851,0a2.734,2.734,0,1,1-2.721-2.9A2.733,2.733,0,0,1,222.537,212.869Zm4.653,4h1.377V212.9c0-1.872,1.1-2.753,2.112-2.753a2.013,2.013,0,0,1,.753.128v-1.424a2.851,2.851,0,0,0-.624-0.064,2.38,2.38,0,0,0-2.241,1.632v-1.552H227.19v8Zm8.321-11.124a0.967,0.967,0,0,0-.961-0.977,0.994,0.994,0,0,0-.992.977,0.983,0.983,0,0,0,.992.976A0.957,0.957,0,0,0,235.511,205.747Zm-1.665,11.124h1.377v-8h-1.377v8Zm4.16-4a4.219,4.219,0,0,0,7.747,2.257l-1.089-.752a2.833,2.833,0,0,1-5.266-1.232h6.563a3.922,3.922,0,0,0,.016-0.417,3.729,3.729,0,0,0-3.81-4.017A4.055,4.055,0,0,0,238.006,212.869Zm4.113-2.945a2.4,2.4,0,0,1,2.449,2.1h-5.074A2.617,2.617,0,0,1,242.119,209.924Zm11.793,4.722c0-1.2-.752-1.969-2.113-2.417l-0.864-.288c-0.945-.3-1.233-0.608-1.233-1.12a1.133,1.133,0,0,1,1.345-.929,2.159,2.159,0,0,1,1.7.833l0.9-.865a3.1,3.1,0,0,0-2.561-1.152c-1.585,0-2.705.88-2.705,2.177a2.416,2.416,0,0,0,1.984,2.321l0.785,0.256c1.04,0.336,1.424.72,1.424,1.28a1.218,1.218,0,0,1-1.408,1.089,2.148,2.148,0,0,1-2.049-1.265l-1.121.608a3.18,3.18,0,0,0,3.138,1.857C252.743,217.031,253.912,216.215,253.912,214.646Zm15.2-1.777a4.186,4.186,0,1,0-4.178,4.162A4.107,4.107,0,0,0,269.113,212.869Zm-6.963,0a2.779,2.779,0,1,1,2.785,2.882A2.751,2.751,0,0,1,262.15,212.869Zm10.272,4H273.8v-6.739h2.321v-1.264H273.8V207.4a1.152,1.152,0,0,1,1.329-1.36,3.222,3.222,0,0,1,.992.16v-1.217a3.636,3.636,0,0,0-1.248-.208,2.286,2.286,0,0,0-2.449,2.481v1.617h-1.7v1.264h1.7v6.739Zm15.473-2.225c0-1.2-.752-1.969-2.113-2.417l-0.864-.288c-0.944-.3-1.232-0.608-1.232-1.12a1.132,1.132,0,0,1,1.344-.929,2.161,2.161,0,0,1,1.7.833l0.9-.865a3.1,3.1,0,0,0-2.561-1.152c-1.584,0-2.7.88-2.7,2.177a2.416,2.416,0,0,0,1.985,2.321l0.784,0.256c1.041,0.336,1.425.72,1.425,1.28a1.219,1.219,0,0,1-1.409,1.089,2.149,2.149,0,0,1-2.049-1.265l-1.12.608a3.178,3.178,0,0,0,3.137,1.857C286.727,217.031,287.9,216.215,287.9,214.646Zm7.008,2.113v-1.232a3.043,3.043,0,0,1-.977.16,1.153,1.153,0,0,1-1.328-1.361v-4.194H294.9v-1.264H292.6v-2.225h-1.377v2.225h-1.7v1.264h1.7v4.37a2.253,2.253,0,0,0,2.449,2.449A3.83,3.83,0,0,0,294.9,216.759Zm4.687,3.457,5.25-11.348H303.3l-2.737,6.066-2.753-6.066h-1.52l3.5,7.587-1.745,3.761h1.537Zm7.423-3.345h1.377v-12h-1.377v12Zm4.16-4a4.219,4.219,0,0,0,7.747,2.257l-1.089-.752a2.833,2.833,0,0,1-5.266-1.232h6.563a3.922,3.922,0,0,0,.016-0.417,3.729,3.729,0,0,0-3.81-4.017A4.055,4.055,0,0,0,311.173,212.869Zm4.113-2.945a2.4,2.4,0,0,1,2.449,2.1h-5.074A2.617,2.617,0,0,1,315.286,209.924Zm10.686,2.945a4.005,4.005,0,0,0,3.922,4.162,3.51,3.51,0,0,0,2.817-1.392v1.232h1.377v-8h-1.377V210.1a3.51,3.51,0,0,0-2.817-1.392A4.005,4.005,0,0,0,325.972,212.869Zm6.851,0a2.734,2.734,0,1,1-2.721-2.9A2.733,2.733,0,0,1,332.823,212.869Zm4.653,4h1.377V212.9c0-1.872,1.024-2.929,2.321-2.929a1.922,1.922,0,0,1,1.889,2.177v4.722h1.36v-4.93a2.949,2.949,0,0,0-3.025-3.233,2.831,2.831,0,0,0-2.545,1.392v-1.232h-1.377v8Zm9.6-4A4.005,4.005,0,0,0,351,217.031a3.51,3.51,0,0,0,2.817-1.392v1.232h1.376v-12h-1.376V210.1A3.51,3.51,0,0,0,351,208.708,4.005,4.005,0,0,0,347.076,212.869Zm6.851,0a2.734,2.734,0,1,1-2.721-2.9A2.733,2.733,0,0,1,353.927,212.869Zm16.624,2.017-1.2-.672a2.713,2.713,0,0,1-2.5,1.537,2.883,2.883,0,0,1,0-5.763,2.713,2.713,0,0,1,2.5,1.537l1.2-.672a4.144,4.144,0,0,0-3.7-2.145,4.162,4.162,0,1,0,0,8.323A4.144,4.144,0,0,0,370.551,214.886Zm10.3-2.017a4.186,4.186,0,1,0-4.178,4.162A4.107,4.107,0,0,0,380.855,212.869Zm-6.963,0a2.779,2.779,0,1,1,2.785,2.882A2.751,2.751,0,0,1,373.892,212.869Zm9.727,4H385V212.9c0-1.808.912-2.929,2.209-2.929,1.04,0,1.569.9,1.569,2.193v4.706h1.376V212.9c0-1.808.9-2.929,2.193-2.929,1.04,0,1.585.9,1.585,2.193v4.706H395.3v-4.914c0-1.953-1.056-3.249-2.8-3.249a2.77,2.77,0,0,0-2.625,1.712,2.515,2.515,0,0,0-2.465-1.712A2.691,2.691,0,0,0,385,210.1v-1.232h-1.377v8Zm15.537,0h1.376v-6.739h2.321v-1.264h-2.321V207.4a1.153,1.153,0,0,1,1.329-1.36,3.222,3.222,0,0,1,.992.16v-1.217a3.636,3.636,0,0,0-1.248-.208,2.286,2.286,0,0,0-2.449,2.481v1.617h-1.7v1.264h1.7v6.739Zm13.523-4a4.186,4.186,0,1,0-4.178,4.162A4.107,4.107,0,0,0,412.679,212.869Zm-6.963,0a2.779,2.779,0,1,1,2.785,2.882A2.751,2.751,0,0,1,405.716,212.869Zm9.727,4h1.377V212.9c0-1.872,1.1-2.753,2.113-2.753a2.011,2.011,0,0,1,.752.128v-1.424a2.851,2.851,0,0,0-.624-0.064,2.38,2.38,0,0,0-2.241,1.632v-1.552h-1.377v8Zm10.994-.112v-1.232a3.041,3.041,0,0,1-.976.16,1.153,1.153,0,0,1-1.329-1.361v-4.194h2.305v-1.264h-2.305v-2.225h-1.376v2.225h-1.7v1.264h1.7v4.37a2.252,2.252,0,0,0,2.449,2.449A3.828,3.828,0,0,0,426.437,216.759Zm4.463-.96a1.185,1.185,0,1,0-1.184,1.2A1.206,1.206,0,0,0,430.9,215.8Z"/>
</svg>
