<svg id="Header_copy" data-name="Header copy" xmlns="http://www.w3.org/2000/svg" width="1440" height="210" viewBox="0 0 1440 210">
  <metadata><?xpacket begin="﻿" id="W5M0MpCehiHzreSzNTczkc9d"?>
<x:xmpmeta xmlns:x="adobe:ns:meta/" x:xmptk="Adobe XMP Core 5.6-c138 79.159824, 2016/09/14-01:09:01        ">
   <rdf:RDF xmlns:rdf="http://www.w3.org/1999/02/22-rdf-syntax-ns#">
      <rdf:Description rdf:about=""/>
   </rdf:RDF>
</x:xmpmeta>
                                                                                                    
                                                                                                    
                                                                                                    
                                                                                                    
                                                                                                    
                                                                                                    
                                                                                                    
                                                                                                    
                                                                                                    
                                                                                                    
                                                                                                    
                                                                                                    
                                                                                                    
                                                                                                    
                                                                                                    
                                                                                                    
                                                                                                    
                                                                                                    
                                                                                                    
                                                                                                    
                           
<?xpacket end="w"?></metadata>
<defs>
    <style>
      .cls-1 {
        fill: #9a927f;
      }

      .cls-2 {
        fill: #fff;
        fill-rule: evenodd;
      }
    </style>
  </defs>
  <rect class="cls-1" width="1440" height="210"/>
  <path id="Iconic_Banana_Republic._Styled_for_now." data-name="Iconic Banana Republic. Styled for now." class="cls-2" d="M463.782,111.785h3.974V94.04h-3.974v17.745Zm14.223,0.275a6.659,6.659,0,0,0,5.974-3.649l-3.3-1.75a2.907,2.907,0,0,1-2.675,1.875,3,3,0,0,1,0-6,2.907,2.907,0,0,1,2.675,1.875l3.3-1.75a6.658,6.658,0,0,0-5.974-3.649A6.525,6.525,0,1,0,478.005,112.06Zm15.05,0a6.524,6.524,0,1,0-6.573-6.523A6.523,6.523,0,0,0,493.055,112.06Zm0-3.524a3.009,3.009,0,1,1,2.775-3A2.8,2.8,0,0,1,493.055,108.536Zm10.152,3.249h3.774v-6.073c0-2.25,1.1-3.275,2.524-3.275,1.35,0,2.025,1.05,2.025,2.775v6.573H515.3v-7.223c0-3.274-1.775-5.549-4.849-5.549a4.216,4.216,0,0,0-3.474,1.55V99.288h-3.774v12.5Zm18.174-14.2a2.349,2.349,0,1,0-2.349-2.349A2.352,2.352,0,0,0,521.381,97.589Zm-1.875,14.2h3.774v-12.5h-3.774v12.5Zm14.024,0.275a6.657,6.657,0,0,0,5.973-3.649l-3.3-1.75a2.905,2.905,0,0,1-2.674,1.875,3,3,0,0,1,0-6,2.905,2.905,0,0,1,2.674,1.875l3.3-1.75a6.657,6.657,0,0,0-5.973-3.649A6.525,6.525,0,1,0,533.53,112.06Zm16.326-.275h7.8a5.247,5.247,0,0,0,5.4-5.224,4.638,4.638,0,0,0-2.525-4.2,4.173,4.173,0,0,0,1.275-3.049,5.275,5.275,0,0,0-5.274-5.274h-6.673v17.745Zm3.974-10.572V97.664h2.249a1.8,1.8,0,0,1,1.85,1.8,1.779,1.779,0,0,1-1.85,1.75H553.83Zm0,6.923v-3.549H557.3a1.806,1.806,0,0,1,1.875,1.774,1.784,1.784,0,0,1-1.85,1.775h-3.5Zm17.875,3.924a4.327,4.327,0,0,0,3.4-1.525v1.25h3.774v-12.5H575.1v1.25a4.327,4.327,0,0,0-3.4-1.525c-3.275,0-5.8,2.975-5.8,6.524S568.43,112.06,571.705,112.06Zm0.849-3.424a3.11,3.11,0,1,1,2.85-3.1A2.854,2.854,0,0,1,572.554,108.636Zm10.677,3.149h3.774v-6.073c0-2.25,1.1-3.275,2.524-3.275,1.35,0,2.025,1.05,2.025,2.775v6.573h3.774v-7.223c0-3.274-1.775-5.549-4.849-5.549a4.214,4.214,0,0,0-3.474,1.55V99.288h-3.774v12.5Zm21.348,0.275a4.326,4.326,0,0,0,3.4-1.525v1.25h3.774v-12.5h-3.774v1.25a4.326,4.326,0,0,0-3.4-1.525c-3.274,0-5.8,2.975-5.8,6.524S601.3,112.06,604.579,112.06Zm0.85-3.424a3.111,3.111,0,1,1,2.849-3.1A2.854,2.854,0,0,1,605.429,108.636Zm10.676,3.149h3.774v-6.073c0-2.25,1.1-3.275,2.525-3.275,1.349,0,2.024,1.05,2.024,2.775v6.573H628.2v-7.223c0-3.274-1.774-5.549-4.849-5.549a4.217,4.217,0,0,0-3.474,1.55V99.288h-3.774v12.5Zm21.349,0.275a4.327,4.327,0,0,0,3.4-1.525v1.25h3.774v-12.5h-3.774v1.25a4.327,4.327,0,0,0-3.4-1.525c-3.275,0-5.8,2.975-5.8,6.524S634.179,112.06,637.454,112.06Zm0.849-3.424a3.11,3.11,0,1,1,2.85-3.1A2.854,2.854,0,0,1,638.3,108.636Zm17.751,3.149h3.974v-7.323h0.65l5.9,7.323h4.773l-6.273-7.823c2.249-.8,3.474-2.274,3.474-4.574a5.239,5.239,0,0,0-5.5-5.349h-7v17.745Zm3.974-10.7v-3.4h2.55a1.768,1.768,0,0,1,2.024,1.7,1.8,1.8,0,0,1-2.024,1.7h-2.55Zm18.75,10.972a7.014,7.014,0,0,0,5.873-2.749l-2.8-2.1a3.628,3.628,0,0,1-3.024,1.425,2.815,2.815,0,0,1-3.049-2.2h9.072a9.639,9.639,0,0,0,.075-1.324c0-4.049-2.924-6.1-6.223-6.1A6.524,6.524,0,1,0,678.778,112.06Zm-0.175-9.972a2.5,2.5,0,0,1,2.574,1.874h-5.3A2.61,2.61,0,0,1,678.6,102.088Zm9.951,14.921h3.774v-6.474a4.327,4.327,0,0,0,3.4,1.525c3.275,0,5.8-2.974,5.8-6.523s-2.524-6.524-5.8-6.524a4.327,4.327,0,0,0-3.4,1.525v-1.25h-3.774v17.721Zm6.324-8.373a3.111,3.111,0,1,1,2.849-3.1A2.855,2.855,0,0,1,694.878,108.636ZM709.7,112.06a3.846,3.846,0,0,0,3.324-1.55v1.275H716.8v-12.5h-3.774v6.074c0,2.3-.925,3.274-2.349,3.274-1.4,0-1.925-1.05-1.925-2.874V99.288h-3.774v7.123C704.979,109.811,706.6,112.06,709.7,112.06Zm18.624,0c3.274,0,5.8-2.974,5.8-6.523s-2.525-6.524-5.8-6.524a4.326,4.326,0,0,0-3.4,1.525v-7.5h-3.774v18.745h3.774v-1.25A4.326,4.326,0,0,0,728.327,112.06Zm-0.85-3.424a3.111,3.111,0,1,1,2.849-3.1A2.854,2.854,0,0,1,727.477,108.636Zm10.251,3.149H741.5V93.04h-3.775v18.745Zm10-14.2a2.349,2.349,0,1,0-2.35-2.349A2.352,2.352,0,0,0,747.728,97.589Zm-1.875,14.2h3.774v-12.5h-3.774v12.5Zm14.024,0.275a6.657,6.657,0,0,0,5.973-3.649l-3.3-1.75a2.906,2.906,0,0,1-2.674,1.875,3,3,0,0,1,0-6,2.906,2.906,0,0,1,2.674,1.875l3.3-1.75a6.657,6.657,0,0,0-5.973-3.649A6.525,6.525,0,1,0,759.877,112.06Zm11.276-.075a2.675,2.675,0,1,0-2.675-2.674A2.678,2.678,0,0,0,771.153,111.985Zm18.748,0.1c3.749,0,6.324-2.249,6.349-5.474,0.025-2.674-1.65-4.374-4.224-5.3l-1.25-.45c-1.874-.675-2.749-1.1-2.749-2.05,0-.925,1.075-1.35,2.149-1.35a3.945,3.945,0,0,1,3.074,1.475l2.6-2.749a7.405,7.405,0,0,0-5.724-2.449c-3.549,0-6.123,2.025-6.123,5.474,0,2.425,1.6,4.149,4.474,5.124l1.249,0.425c1.775,0.6,2.475,1.225,2.475,2.124,0,0.85-.825,1.475-2.15,1.475a4.643,4.643,0,0,1-3.674-2.025l-3.049,2.575A7.783,7.783,0,0,0,789.9,112.085Zm15.8-.15a8.458,8.458,0,0,0,2.25-.25v-3.349a3.681,3.681,0,0,1-1.375.225,1.817,1.817,0,0,1-2.125-2.125v-3.874h3.5V99.288h-3.5V95.814h-3.774v3.474h-2.5v3.274h2.5v4.649C800.677,110.385,802.927,111.935,805.7,111.935Zm11,5.074,7.773-17.721h-4.149l-3.074,7.723-3.1-7.723h-4.124l5.2,11.772-2.6,5.949H816.7Zm10.526-5.224H831V93.04h-3.774v18.745Zm14.024,0.275a7.015,7.015,0,0,0,5.873-2.749l-2.8-2.1a3.628,3.628,0,0,1-3.024,1.425,2.816,2.816,0,0,1-3.05-2.2h9.073a9.639,9.639,0,0,0,.075-1.324c0-4.049-2.924-6.1-6.223-6.1A6.524,6.524,0,1,0,841.251,112.06Zm-0.175-9.972a2.5,2.5,0,0,1,2.574,1.874h-5.3A2.612,2.612,0,0,1,841.076,102.088Zm15,9.972a4.327,4.327,0,0,0,3.4-1.525v1.25h3.774V93.04h-3.774v7.5a4.327,4.327,0,0,0-3.4-1.525c-3.275,0-5.8,2.975-5.8,6.524S852.8,112.06,856.076,112.06Zm0.849-3.424a3.11,3.11,0,1,1,2.85-3.1A2.854,2.854,0,0,1,856.925,108.636Zm18.826,3.149h3.774v-9.223h3.5V99.288h-3.5v-0.9c0-1.5.625-2.124,2.149-2.124a3.633,3.633,0,0,1,1.35.225V93.165a7.4,7.4,0,0,0-2.249-.275,4.786,4.786,0,0,0-5.024,5.024v1.375h-2.5v3.274h2.5v9.223Zm15.874,0.275a6.524,6.524,0,1,0-6.574-6.523A6.522,6.522,0,0,0,891.625,112.06Zm0-3.524a3.009,3.009,0,1,1,2.774-3A2.8,2.8,0,0,1,891.625,108.536Zm10.151,3.249h3.774v-5.923c0-1.8.9-3.05,2.525-3.05a4.832,4.832,0,0,1,1.674.3V99.288a4.423,4.423,0,0,0-1.224-.15,3.231,3.231,0,0,0-2.975,2.025V99.288h-3.774v12.5Zm17.55,0H923.1v-6.073c0-2.25,1.1-3.275,2.524-3.275,1.35,0,2.025,1.05,2.025,2.775v6.573h3.774v-7.223c0-3.274-1.775-5.549-4.849-5.549a4.217,4.217,0,0,0-3.474,1.55V99.288h-3.774v12.5Zm22.1,0.275a6.524,6.524,0,1,0-6.573-6.523A6.523,6.523,0,0,0,941.424,112.06Zm0-3.524a3.009,3.009,0,1,1,2.775-3A2.8,2.8,0,0,1,941.424,108.536Zm20.649,3.249h3.8l4.1-12.5h-4.049l-2.174,7.648-2.375-7.648h-2.9l-2.374,7.648-2.175-7.648h-4.049l4.124,12.5h3.8l2.15-6.623Zm11.952,0.2a2.675,2.675,0,1,0-2.674-2.674A2.678,2.678,0,0,0,974.025,111.985Z"/>
</svg>
