<svg id="Copy_copy_9" data-name="Copy copy 9" xmlns="http://www.w3.org/2000/svg" width="721" height="201" viewBox="0 0 721 201">
  <metadata><?xpacket begin="﻿" id="W5M0MpCehiHzreSzNTczkc9d"?>
<x:xmpmeta xmlns:x="adobe:ns:meta/" x:xmptk="Adobe XMP Core 5.6-c138 79.159824, 2016/09/14-01:09:01        ">
   <rdf:RDF xmlns:rdf="http://www.w3.org/1999/02/22-rdf-syntax-ns#">
      <rdf:Description rdf:about=""/>
   </rdf:RDF>
</x:xmpmeta>
                                                                                                    
                                                                                                    
                                                                                                    
                                                                                                    
                                                                                                    
                                                                                                    
                                                                                                    
                                                                                                    
                                                                                                    
                                                                                                    
                                                                                                    
                                                                                                    
                                                                                                    
                                                                                                    
                                                                                                    
                                                                                                    
                                                                                                    
                                                                                                    
                                                                                                    
                                                                                                    
                           
<?xpacket end="w"?></metadata>
<defs>
    <style>
      .cls-1 {
        fill: #fff;
      }

      .cls-2 {
        fill-rule: evenodd;
      }
    </style>
  </defs>
  <rect id="Rectangle_102_copy" data-name="Rectangle 102 copy" class="cls-1" width="721" height="201"/>
  <path id="DEVON_Vegan_SUEDE_LEGGING" data-name="DEVON Vegan SUEDE LEGGING" class="cls-2" d="M30.586,50.871h7.26a10.652,10.652,0,1,0,0-21.3h-7.26v21.3Zm4.77-4.38V33.952h2.49a6.011,6.011,0,0,1,6.03,6.27,6.011,6.011,0,0,1-6.03,6.27h-2.49Zm18.18,4.38h13.5v-4.56h-8.73V42.5h6.93v-4.56h-6.93v-3.81h8.73v-4.56h-13.5v21.3Zm25.14,0h4.29l8.73-21.3h-5.25l-5.64,14.189-5.67-14.189h-5.19Zm25.68,0.36a11.01,11.01,0,1,0-11.01-11.01A11.035,11.035,0,0,0,104.356,51.231Zm0-4.62a6.393,6.393,0,1,1,6.18-6.39A6.32,6.32,0,0,1,104.356,46.611Zm35.069,4.26v-21.3h-4.8V42.711L124.276,29.572h-4.11v21.3h4.77V37.7l10.379,13.17h4.11Zm19.74,0h4.29l8.73-21.3h-5.25l-5.64,14.189-5.67-14.189h-5.189Zm16.8,0h13.5v-4.56h-8.73V42.5h6.93v-4.56h-6.93v-3.81h8.73v-4.56h-13.5v21.3Zm28.5,0.36c3.45,0,6.84-1.02,8.73-3.15V37.972h-8.82v4.47h4.17v3.15a6.939,6.939,0,0,1-4.14,1.02c-4.17,0-6.72-2.76-6.72-6.39a6.252,6.252,0,0,1,6.42-6.39,7.073,7.073,0,0,1,5.37,2.28l3.36-3.27a11.333,11.333,0,0,0-8.73-3.63,10.88,10.88,0,0,0-11.22,11.01C192.885,46.461,197.835,51.231,204.465,51.231Zm11.16-.36h4.98l1.89-4.5h8.82l1.89,4.5h4.979l-9.119-21.3h-4.32Zm8.61-8.64,2.67-6.42,2.67,6.42h-5.34Zm36.929,8.64v-21.3h-4.8V42.711l-10.35-13.139h-4.11v21.3h4.77V37.7l10.38,13.17h4.109Zm20.46,0.36c4.5,0,7.59-2.7,7.62-6.57,0.03-3.21-1.98-5.25-5.07-6.36l-1.5-.54c-2.25-.81-3.3-1.32-3.3-2.46,0-1.11,1.29-1.62,2.58-1.62a4.738,4.738,0,0,1,3.69,1.77l3.12-3.3a8.888,8.888,0,0,0-6.87-2.94c-4.26,0-7.349,2.43-7.349,6.57,0,2.91,1.92,4.98,5.369,6.15l1.5,0.51c2.13,0.72,2.97,1.47,2.97,2.55,0,1.02-.99,1.77-2.58,1.77a5.573,5.573,0,0,1-4.41-2.43l-3.659,3.09A9.338,9.338,0,0,0,281.624,51.231Zm20.94,0a8.354,8.354,0,0,0,8.76-8.79V29.572h-4.77V42.5a3.992,3.992,0,1,1-7.98,0V29.572H293.8V42.441A8.338,8.338,0,0,0,302.564,51.231Zm14.52-.36h13.5v-4.56h-8.729V42.5h6.929v-4.56h-6.929v-3.81h8.729v-4.56h-13.5v21.3Zm18.63,0h7.26a10.652,10.652,0,1,0,0-21.3h-7.26v21.3Zm4.77-4.38V33.952h2.49A6.011,6.011,0,0,1,349,40.222a6.011,6.011,0,0,1-6.029,6.27h-2.49Zm18.18,4.38h13.5v-4.56h-8.729V42.5h6.929v-4.56h-6.929v-3.81h8.729v-4.56h-13.5v21.3Zm26.729,0h13.59v-4.56h-8.82V29.572h-4.77v21.3Zm18.06,0h13.5v-4.56h-8.729V42.5h6.929v-4.56h-6.929v-3.81h8.729v-4.56h-13.5v21.3Zm28.5,0.36c3.45,0,6.839-1.02,8.729-3.15V37.972h-8.819v4.47h4.17v3.15a6.939,6.939,0,0,1-4.14,1.02c-4.17,0-6.72-2.76-6.72-6.39a6.252,6.252,0,0,1,6.42-6.39,7.073,7.073,0,0,1,5.37,2.28l3.359-3.27a11.331,11.331,0,0,0-8.729-3.63,10.88,10.88,0,0,0-11.22,11.01C420.373,46.461,425.323,51.231,431.953,51.231Zm24.389,0c3.45,0,6.84-1.02,8.73-3.15V37.972h-8.82v4.47h4.17v3.15a6.939,6.939,0,0,1-4.14,1.02c-4.17,0-6.719-2.76-6.719-6.39a6.252,6.252,0,0,1,6.419-6.39,7.073,7.073,0,0,1,5.37,2.28l3.36-3.27a11.333,11.333,0,0,0-8.73-3.63,10.88,10.88,0,0,0-11.219,11.01C444.763,46.461,449.713,51.231,456.342,51.231Zm13.98-.36h4.77v-21.3h-4.77v21.3Zm30.029,0v-21.3h-4.8V42.711L485.2,29.572h-4.11v21.3h4.77V37.7l10.379,13.17h4.11Zm16.41,0.36c3.45,0,6.84-1.02,8.73-3.15V37.972h-8.82v4.47h4.17v3.15a6.939,6.939,0,0,1-4.14,1.02c-4.17,0-6.719-2.76-6.719-6.39a6.252,6.252,0,0,1,6.419-6.39,7.073,7.073,0,0,1,5.37,2.28l3.36-3.27a11.333,11.333,0,0,0-8.73-3.63,10.88,10.88,0,0,0-11.219,11.01C505.182,46.461,510.132,51.231,516.761,51.231Z"/>
  <g id="CTA_copy_2" data-name="CTA copy 2">
    <rect id="Rectangle_4_copy_4" data-name="Rectangle 4 copy 4" x="28" y="97.938" width="102" height="3.063"/>
    <path id="Shop_now" data-name="Shop now" class="cls-2" d="M32.347,92.177c2.255,0,3.8-1.378,3.818-3.352a3.347,3.347,0,0,0-2.54-3.245L32.873,85.3c-1.127-.413-1.653-0.674-1.653-1.255a1.1,1.1,0,0,1,1.293-.827,2.358,2.358,0,0,1,1.849.9l1.563-1.684a4.415,4.415,0,0,0-3.442-1.5c-2.135,0-3.683,1.24-3.683,3.352,0,1.485.962,2.541,2.691,3.138l0.752,0.26c1.067,0.367,1.488.75,1.488,1.3a1.086,1.086,0,0,1-1.293.9,2.78,2.78,0,0,1-2.21-1.24l-1.834,1.576A4.651,4.651,0,0,0,32.347,92.177Zm8.1-.184h2.39v-4.3h4.3v4.3h2.39V81.125h-2.39v4.255h-4.3V81.125h-2.39V91.993Zm18.883,0.184a5.618,5.618,0,1,0-5.517-5.618A5.581,5.581,0,0,0,59.335,92.177Zm0-2.357a3.265,3.265,0,1,1,3.1-3.26A3.2,3.2,0,0,1,59.335,89.82ZM76.52,84.845a3.667,3.667,0,0,0-3.758-3.719H69.139V91.993h2.39V88.549h1.233A3.654,3.654,0,0,0,76.52,84.845Zm-2.315,0a1.416,1.416,0,0,1-1.473,1.424h-1.2V83.421h1.2A1.407,1.407,0,0,1,74.2,84.845Zm21.649,7.148V81.125H93.449v6.7l-5.186-6.7H86.2V91.993h2.39v-6.72l5.2,6.72h2.059Zm9.8,0.184a5.618,5.618,0,1,0-5.516-5.618A5.581,5.581,0,0,0,105.658,92.177Zm0-2.357a3.265,3.265,0,1,1,3.1-3.26A3.2,3.2,0,0,1,105.658,89.82Zm18.072,2.174H126l2.48-10.868h-2.556l-1.458,6.888-3.006-7.072-2.991,7.072-1.458-6.888h-2.556l2.465,10.868h2.27l2.27-5.327Z"/>
  </g>
</svg>
