<svg id="Copy_copy_13" data-name="Copy copy 13" xmlns="http://www.w3.org/2000/svg" width="720" height="640" viewBox="0 0 720 640">
  <metadata><?xpacket begin="﻿" id="W5M0MpCehiHzreSzNTczkc9d"?>
<x:xmpmeta xmlns:x="adobe:ns:meta/" x:xmptk="Adobe XMP Core 5.6-c138 79.159824, 2016/09/14-01:09:01        ">
   <rdf:RDF xmlns:rdf="http://www.w3.org/1999/02/22-rdf-syntax-ns#">
      <rdf:Description rdf:about=""/>
   </rdf:RDF>
</x:xmpmeta>
                                                                                                    
                                                                                                    
                                                                                                    
                                                                                                    
                                                                                                    
                                                                                                    
                                                                                                    
                                                                                                    
                                                                                                    
                                                                                                    
                                                                                                    
                                                                                                    
                                                                                                    
                                                                                                    
                                                                                                    
                                                                                                    
                                                                                                    
                                                                                                    
                                                                                                    
                                                                                                    
                           
<?xpacket end="w"?></metadata>
<defs>
    <style>
      .cls-1 {
        fill: #fff;
        fill-opacity: 0;
      }

      .cls-2 {
        fill-rule: evenodd;
      }
    </style>
  </defs>
  <rect id="Rectangle_106_copy_14" data-name="Rectangle 106 copy 14" class="cls-1" width="720" height="640"/>
  <path id="WATER-RESISTANT_CLASSIC_TRENCH_COAT_Cotton_twill_b._1980_Don_" data-name="WATER-RESISTANT CLASSIC TRENCH COAT Cotton twill, b. 1980  Don’" class="cls-2" d="M45.088,50.371h4.228l4.62-19.88h-4.76l-2.716,12.6-5.6-12.936L35.289,43.091l-2.716-12.6h-4.76L32.4,50.371h4.228l4.228-9.744Zm9.464,0H59.2l1.764-4.2H69.2l1.764,4.2h4.648L67.1,30.491H63.065Zm8.036-8.064,2.492-5.992,2.492,5.992H62.589Zm18.088,8.064h4.48V34.747h5.124V30.491H75.609v4.256h5.068V50.371Zm13.72,0H107V46.115H98.848V42.559h6.468V38.3H98.848V34.747H107V30.491H94.4v19.88Zm17.388,0h4.452v-8.2h0.728l6.608,8.2h5.348l-7.028-8.764c2.52-.9,3.892-2.548,3.892-5.124a5.869,5.869,0,0,0-6.16-5.992h-7.84v19.88Zm4.452-11.984V34.579h2.856a1.981,1.981,0,0,1,2.268,1.9,2.012,2.012,0,0,1-2.268,1.9h-2.856Zm14.112,4.06h8.232V38.415h-8.232v4.032ZM143.7,50.371h4.452v-8.2h0.728l6.608,8.2h5.348l-7.028-8.764c2.52-.9,3.892-2.548,3.892-5.124a5.869,5.869,0,0,0-6.16-5.992H143.7v19.88Zm4.452-11.984V34.579h2.856a1.981,1.981,0,0,1,2.268,1.9,2.012,2.012,0,0,1-2.268,1.9h-2.856Zm15.483,11.984h12.6V46.115h-8.148V42.559h6.468V38.3h-6.468V34.747h8.148V30.491h-12.6v19.88Zm23.324,0.336c4.2,0,7.084-2.52,7.112-6.132,0.028-3-1.848-4.9-4.732-5.936l-1.4-.5c-2.1-.756-3.08-1.232-3.08-2.3,0-1.036,1.2-1.512,2.408-1.512a4.422,4.422,0,0,1,3.444,1.652l2.912-3.08a8.3,8.3,0,0,0-6.412-2.744c-3.976,0-6.86,2.268-6.86,6.132,0,2.716,1.792,4.648,5.012,5.74l1.4,0.476c1.988,0.672,2.772,1.372,2.772,2.38,0,0.952-.924,1.652-2.408,1.652a5.2,5.2,0,0,1-4.116-2.268L179.6,47.151A8.717,8.717,0,0,0,186.963,50.707Zm11.592-.336h4.452V30.491h-4.452v19.88Zm15.988,0.336c4.2,0,7.084-2.52,7.112-6.132,0.028-3-1.848-4.9-4.732-5.936l-1.4-.5c-2.1-.756-3.08-1.232-3.08-2.3,0-1.036,1.2-1.512,2.408-1.512a4.422,4.422,0,0,1,3.444,1.652l2.912-3.08a8.3,8.3,0,0,0-6.412-2.744c-3.976,0-6.86,2.268-6.86,6.132,0,2.716,1.792,4.648,5.012,5.74l1.4,0.476c1.988,0.672,2.772,1.372,2.772,2.38,0,0.952-.924,1.652-2.408,1.652a5.2,5.2,0,0,1-4.116-2.268l-3.416,2.884A8.717,8.717,0,0,0,214.543,50.707Zm14.9-.336h4.48V34.747h5.124V30.491H224.371v4.256h5.068V50.371Zm9.576,0h4.648l1.764-4.2h8.232l1.764,4.2h4.648l-8.512-19.88h-4.032Zm8.036-8.064,2.492-5.992,2.492,5.992h-4.984Zm34.468,8.064V30.491h-4.48V42.755l-9.66-12.264h-3.836v19.88H268V38.079l9.688,12.292h3.836Zm9.184,0h4.48V34.747h5.123V30.491H285.635v4.256H290.7V50.371Zm29.623,0.336a10.276,10.276,0,0,0,9.3-5.432l-3.92-2.128a5.964,5.964,0,1,1,0-5.432l3.92-2.128A10.364,10.364,0,1,0,320.326,50.707Zm13.3-.336H346.31V46.115h-8.232V30.491h-4.452v19.88Zm14.728,0H353l1.764-4.2H363l1.764,4.2h4.648L360.9,30.491h-4.032Zm8.036-8.064,2.492-5.992,2.492,5.992H356.39Zm21.9,8.4c4.2,0,7.084-2.52,7.112-6.132,0.028-3-1.848-4.9-4.732-5.936l-1.4-.5c-2.1-.756-3.08-1.232-3.08-2.3,0-1.036,1.2-1.512,2.408-1.512a4.422,4.422,0,0,1,3.444,1.652l2.912-3.08a8.3,8.3,0,0,0-6.412-2.744c-3.976,0-6.86,2.268-6.86,6.132,0,2.716,1.792,4.648,5.012,5.74l1.4,0.476c1.988,0.672,2.772,1.372,2.772,2.38,0,0.952-.924,1.652-2.408,1.652a5.2,5.2,0,0,1-4.116-2.268l-3.416,2.884A8.717,8.717,0,0,0,378.286,50.707Zm17.527,0c4.2,0,7.084-2.52,7.112-6.132,0.028-3-1.848-4.9-4.731-5.936l-1.4-.5c-2.1-.756-3.08-1.232-3.08-2.3,0-1.036,1.2-1.512,2.408-1.512a4.423,4.423,0,0,1,3.444,1.652l2.912-3.08a8.3,8.3,0,0,0-6.412-2.744c-3.976,0-6.86,2.268-6.86,6.132,0,2.716,1.792,4.648,5.012,5.74l1.4,0.476c1.987,0.672,2.771,1.372,2.771,2.38,0,0.952-.923,1.652-2.407,1.652a5.2,5.2,0,0,1-4.116-2.268l-3.416,2.884A8.717,8.717,0,0,0,395.813,50.707Zm11.592-.336h4.452V30.491h-4.452v19.88Zm19.208,0.336a10.276,10.276,0,0,0,9.3-5.432l-3.92-2.128a5.964,5.964,0,1,1,0-5.432l3.92-2.128A10.364,10.364,0,1,0,426.613,50.707Zm23.632-.336h4.48V34.747h5.124V30.491H445.177v4.256h5.068V50.371Zm13.72,0h4.452v-8.2h0.728l6.608,8.2H481.1l-7.027-8.764c2.52-.9,3.891-2.548,3.891-5.124a5.869,5.869,0,0,0-6.159-5.992h-7.84v19.88Zm4.452-11.984V34.579h2.856a1.981,1.981,0,0,1,2.268,1.9,2.012,2.012,0,0,1-2.268,1.9h-2.856ZM483.9,50.371h12.6V46.115h-8.148V42.559h6.468V38.3h-6.468V34.747H496.5V30.491H483.9v19.88Zm35.364,0V30.491h-4.48V42.755l-9.66-12.264h-3.836v19.88h4.452V38.079l9.688,12.292h3.836Zm14.756,0.336a10.276,10.276,0,0,0,9.3-5.432l-3.92-2.128a5.964,5.964,0,1,1,0-5.432l3.92-2.128A10.364,10.364,0,1,0,534.02,50.707Zm13.3-.336h4.452V42.5h8.008v7.868h4.452V30.491H559.78v7.784h-8.008V30.491H547.32v19.88Zm39.227,0.336a10.276,10.276,0,0,0,9.3-5.432l-3.92-2.128a5.964,5.964,0,1,1,0-5.432l3.92-2.128A10.364,10.364,0,1,0,586.547,50.707Zm22.456,0a10.276,10.276,0,1,0-10.276-10.276A10.3,10.3,0,0,0,609,50.707Zm0-4.312a5.967,5.967,0,1,1,5.768-5.964A5.9,5.9,0,0,1,609,46.4Zm11.732,3.976h4.648l1.764-4.2h8.232l1.764,4.2h4.648l-8.512-19.88h-4.032Zm8.036-8.064,2.492-5.992,2.492,5.992h-4.984Zm18.088,8.064h4.48V34.747h5.124V30.491H641.791v4.256h5.068V50.371ZM28.147,71.979A6.644,6.644,0,0,0,40.408,75.49L39,74.644a5.024,5.024,0,1,1,0-5.33l1.4-.846A6.644,6.644,0,0,0,28.147,71.979ZM51.981,73.87a4.709,4.709,0,1,0-4.7,4.681A4.62,4.62,0,0,0,51.981,73.87Zm-7.832,0a3.126,3.126,0,1,1,3.133,3.241A3.094,3.094,0,0,1,44.149,73.87Zm21.963,4.375V76.859a3.421,3.421,0,0,1-1.1.18,1.3,1.3,0,0,1-1.495-1.531V70.791h2.593V69.368H63.519v-2.5H61.971v2.5H60.422v1.422h1.548v4.915a2.534,2.534,0,0,0,2.755,2.755A4.31,4.31,0,0,0,66.112,78.245Zm-6.3,0V76.859a3.421,3.421,0,0,1-1.1.18,1.3,1.3,0,0,1-1.495-1.531V70.791h2.2V69.368h-2.2v-2.5H55.669v2.5H53.76v1.422h1.909v4.915a2.534,2.534,0,0,0,2.755,2.755A4.309,4.309,0,0,0,59.81,78.245ZM77.559,73.87a4.708,4.708,0,1,0-4.7,4.681A4.62,4.62,0,0,0,77.559,73.87Zm-7.832,0a3.126,3.126,0,1,1,3.133,3.241A3.094,3.094,0,0,1,69.727,73.87Zm10.944,4.5h1.548V73.906c0-2.107,1.152-3.3,2.611-3.3a2.161,2.161,0,0,1,2.125,2.449v5.312h1.53V72.825a3.318,3.318,0,0,0-3.4-3.637,3.183,3.183,0,0,0-2.863,1.566V69.368H80.671v9Zm21.367-.126V76.859a3.425,3.425,0,0,1-1.1.18,1.3,1.3,0,0,1-1.494-1.531V70.791h2.593V69.368H99.445v-2.5H97.9v2.5H95.988v1.422H97.9v4.915a2.534,2.534,0,0,0,2.755,2.755A4.318,4.318,0,0,0,102.038,78.245Zm10.512,0.126h1.369l3.061-9h-1.639l-2.178,6.572-2.251-6.572h-1.188l-2.251,6.572-2.179-6.572h-1.62l3.061,9H108.1l2.233-6.482Zm8.872-12.514a1.087,1.087,0,0,0-1.08-1.1,1.118,1.118,0,0,0-1.116,1.1,1.106,1.106,0,0,0,1.116,1.1A1.076,1.076,0,0,0,121.422,65.857ZM119.55,78.371H121.1v-9H119.55v9Zm5.382,0h1.548v-13.5h-1.548v13.5Zm5.382,0h1.548v-13.5h-1.548v13.5Zm7.308-.4a1.54,1.54,0,0,0,.252-0.81,1.333,1.333,0,1,0-2.665,0,1.339,1.339,0,0,0,.739,1.206l-1.207,2.575h1.026Zm10.422-.99a3.947,3.947,0,0,0,3.169,1.566,4.69,4.69,0,0,0,0-9.363,3.947,3.947,0,0,0-3.169,1.566V64.867H146.5v13.5h1.549V76.985Zm5.995-3.115a3.067,3.067,0,1,1-3.061-3.259A3.074,3.074,0,0,1,154.039,73.87Zm6.659,3.295a1.333,1.333,0,1,0-1.333,1.35A1.357,1.357,0,0,0,160.7,77.165Zm9.7,1.206h1.549V65.587h-2.755l-1.261,1.53H170.4V78.371Zm5.472,0h1.98l4.682-5.528a4.911,4.911,0,0,0,1.44-3.259,4.331,4.331,0,0,0-8.66.054,4.13,4.13,0,0,0,4,4.105,2.294,2.294,0,0,0,.5-0.036Zm1.026-8.751a2.746,2.746,0,1,1,2.737,2.755A2.717,2.717,0,0,1,176.9,69.621Zm18.02,4.915a3.572,3.572,0,0,0-2-3.349,2.994,2.994,0,0,0,1.3-2.521,3.318,3.318,0,0,0-3.583-3.3,3.364,3.364,0,0,0-3.6,3.3,2.981,2.981,0,0,0,1.332,2.521,3.572,3.572,0,0,0-2.034,3.349A4.3,4.3,0,0,0,194.917,74.536ZM188.561,68.7a1.9,1.9,0,0,1,2.071-1.873,1.867,1.867,0,0,1,2.052,1.873,1.91,1.91,0,0,1-2.052,1.891A1.948,1.948,0,0,1,188.561,68.7ZM187.9,74.536a2.538,2.538,0,0,1,2.737-2.557,2.553,2.553,0,1,1,0,5.1A2.544,2.544,0,0,1,187.9,74.536Zm18.9-.792V70.179a4.536,4.536,0,1,0-9.056,0v3.565A4.536,4.536,0,1,0,206.8,73.744Zm-7.508,0V70.179c0-2.071,1.242-3.295,2.971-3.295,1.747,0,2.989,1.224,2.989,3.295v3.565c0,2.071-1.242,3.3-2.989,3.3C200.531,77.039,199.289,75.814,199.289,73.744ZM28.841,118.371h3.265a5.693,5.693,0,1,0,0-11.364H28.841v11.364Zm1.489-1.392V108.4h1.777a4.3,4.3,0,1,1,0,8.58H30.33Zm18.37-2.61a4.186,4.186,0,1,0-4.178,4.162A4.107,4.107,0,0,0,48.7,114.369Zm-6.963,0a2.779,2.779,0,1,1,2.785,2.882A2.751,2.751,0,0,1,41.737,114.369Zm9.728,4h1.377V114.4c0-1.872,1.024-2.929,2.321-2.929a1.921,1.921,0,0,1,1.889,2.177v4.722h1.36v-4.93a2.949,2.949,0,0,0-3.025-3.233,2.83,2.83,0,0,0-2.545,1.392v-1.232H51.465v8Zm12.049-9.636a1.413,1.413,0,0,0,.224-0.72,1.193,1.193,0,1,0-2.385,0,1.24,1.24,0,0,0,.656,1.072l-1.072,2.289h0.928Zm7.153,9.524v-1.232a3.044,3.044,0,0,1-.976.16,1.153,1.153,0,0,1-1.328-1.361v-4.194h2.3v-1.264h-2.3v-2.225H66.985v2.225h-1.7v1.264h1.7V116a2.253,2.253,0,0,0,2.449,2.449A3.831,3.831,0,0,0,70.666,118.259Zm7.262,0.112h1.377v-12H77.928v12Zm4.16-4a4.219,4.219,0,0,0,7.747,2.257l-1.088-.752a2.833,2.833,0,0,1-5.266-1.232h6.563a3.9,3.9,0,0,0,.016-0.417,3.729,3.729,0,0,0-3.81-4.017A4.056,4.056,0,0,0,82.088,114.369Zm4.114-2.945a2.4,2.4,0,0,1,2.449,2.1H83.577A2.617,2.617,0,0,1,86.2,111.424Zm10.832,6.835v-1.232a3.043,3.043,0,0,1-.976.16,1.153,1.153,0,0,1-1.328-1.361v-4.194h2.3v-1.264h-2.3v-2.225H93.353v2.225h-1.7v1.264h1.7V116a2.253,2.253,0,0,0,2.449,2.449A3.831,3.831,0,0,0,97.034,118.259Zm6.638-3.89a4.005,4.005,0,0,0,3.921,4.162,3.512,3.512,0,0,0,2.818-1.392v1.232h1.376v-8h-1.376V111.6a3.512,3.512,0,0,0-2.818-1.392A4,4,0,0,0,103.672,114.369Zm6.851,0a2.734,2.734,0,1,1-2.721-2.9A2.733,2.733,0,0,1,110.523,114.369Zm4.653,4h1.377V114.4c0-1.872,1.024-2.929,2.32-2.929a1.921,1.921,0,0,1,1.889,2.177v4.722h1.361v-4.93a2.949,2.949,0,0,0-3.025-3.233,2.829,2.829,0,0,0-2.545,1.392v-1.232h-1.377v8Zm12.193,3.345,5.25-11.348h-1.537l-2.737,6.066-2.753-6.066h-1.521l3.506,7.587-1.745,3.761h1.537Zm11.761-3.457v-1.232a3.052,3.052,0,0,1-.977.16,1.153,1.153,0,0,1-1.328-1.361v-4.194h2.305v-1.264h-2.305v-2.225h-1.377v2.225h-1.7v1.264h1.7V116a2.253,2.253,0,0,0,2.449,2.449A3.84,3.84,0,0,0,139.13,118.259Zm2.558,0.112h1.376V114.4c0-1.872,1.025-2.929,2.321-2.929a1.921,1.921,0,0,1,1.889,2.177v4.722h1.361v-4.93a2.95,2.95,0,0,0-3.026-3.233,2.832,2.832,0,0,0-2.545,1.392v-5.234h-1.376v12Zm11.888-11.124a0.966,0.966,0,0,0-.96-0.977,1,1,0,0,0-.993.977,0.984,0.984,0,0,0,.993.976A0.956,0.956,0,0,0,153.576,107.247Zm-1.664,11.124h1.376v-8h-1.376v8Zm4.783,0h1.377V114.4c0-1.872,1.024-2.929,2.321-2.929a1.922,1.922,0,0,1,1.889,2.177v4.722h1.36v-4.93a2.949,2.949,0,0,0-3.025-3.233,2.831,2.831,0,0,0-2.545,1.392v-1.232H156.7v8Zm17.683-.464v-7.539H173V111.6a3.406,3.406,0,0,0-2.785-1.392,4.077,4.077,0,0,0,0,8.147A3.418,3.418,0,0,0,173,116.947v0.912a2.558,2.558,0,0,1-2.673,2.769,3.421,3.421,0,0,1-2.8-1.345l-0.961.961a4.753,4.753,0,0,0,3.778,1.633A3.7,3.7,0,0,0,174.378,117.907Zm-6.674-3.634a2.707,2.707,0,1,1,2.7,2.8A2.667,2.667,0,0,1,167.7,114.273Zm14.767,4.1h1.377V114.4c0-1.872,1.1-2.753,2.112-2.753a2.016,2.016,0,0,1,.753.128v-1.424a2.854,2.854,0,0,0-.625-0.064,2.38,2.38,0,0,0-2.24,1.632v-1.552h-1.377v8Zm5.76-4a4,4,0,0,0,3.921,4.162,3.509,3.509,0,0,0,2.817-1.392v1.232h1.377v-8h-1.377V111.6a3.509,3.509,0,0,0-2.817-1.392A4,4,0,0,0,188.231,114.369Zm6.85,0a2.734,2.734,0,1,1-2.721-2.9A2.733,2.733,0,0,1,195.081,114.369Zm6.318-7.122a0.966,0.966,0,0,0-.96-0.977,0.994,0.994,0,0,0-.992.977,0.983,0.983,0,0,0,.992.976A0.956,0.956,0,0,0,201.4,107.247Zm-1.664,11.124h1.376v-8h-1.376v8Zm4.784,0H205.9V114.4c0-1.872,1.025-2.929,2.321-2.929a1.921,1.921,0,0,1,1.889,2.177v4.722h1.36v-4.93a2.949,2.949,0,0,0-3.025-3.233A2.831,2.831,0,0,0,205.9,111.6v-1.232h-1.376v8Zm22.658-4A4.186,4.186,0,1,0,223,118.531,4.107,4.107,0,0,0,227.177,114.369Zm-6.962,0A2.779,2.779,0,1,1,223,117.251,2.751,2.751,0,0,1,220.215,114.369Zm9.727,4h1.377V114.4c0-1.872,1.024-2.929,2.321-2.929a1.921,1.921,0,0,1,1.888,2.177v4.722h1.361v-4.93a2.949,2.949,0,0,0-3.025-3.233,2.829,2.829,0,0,0-2.545,1.392v-1.232h-1.377v8Zm16.689,3.345,5.25-11.348h-1.537l-2.737,6.066-2.753-6.066h-1.521l3.506,7.587-1.745,3.761h1.537Zm14.978-7.347a4.186,4.186,0,1,0-4.178,4.162A4.107,4.107,0,0,0,261.609,114.369Zm-6.963,0a2.779,2.779,0,1,1,2.785,2.882A2.751,2.751,0,0,1,254.646,114.369Zm9.616,0.913c0,1.985,1.184,3.249,2.945,3.249a2.754,2.754,0,0,0,2.465-1.392v1.232h1.376v-8h-1.376v3.969c0,1.841-.976,2.93-2.225,2.93-1.1,0-1.809-.849-1.809-2.193v-4.706h-1.376v4.914Zm10.176,3.089h1.376V114.4c0-1.872,1.1-2.753,2.113-2.753a2.011,2.011,0,0,1,.752.128v-1.424a2.851,2.851,0,0,0-.624-0.064,2.381,2.381,0,0,0-2.241,1.632v-1.552h-1.376v8Zm10.96,3.345h1.376v-4.577a3.51,3.51,0,0,0,2.817,1.392,4.169,4.169,0,0,0,0-8.323,3.51,3.51,0,0,0-2.817,1.392v-1.232H285.4v11.348Zm6.706-7.347a2.726,2.726,0,1,1-2.721-2.9A2.733,2.733,0,0,1,292.1,114.369Zm3.565,0a4.005,4.005,0,0,0,3.922,4.162,3.51,3.51,0,0,0,2.817-1.392v1.232h1.377v-8h-1.377V111.6a3.51,3.51,0,0,0-2.817-1.392A4.005,4.005,0,0,0,295.669,114.369Zm6.851,0a2.734,2.734,0,1,1-2.721-2.9A2.733,2.733,0,0,1,302.52,114.369Zm4.653,4h1.377V114.4c0-1.872,1.1-2.753,2.113-2.753a2.011,2.011,0,0,1,.752.128v-1.424a2.851,2.851,0,0,0-.624-0.064,2.38,2.38,0,0,0-2.241,1.632v-1.552h-1.377v8Zm5.76-4a4.005,4.005,0,0,0,3.922,4.162,3.51,3.51,0,0,0,2.817-1.392v1.232h1.376v-8h-1.376V111.6a3.51,3.51,0,0,0-2.817-1.392A4.005,4.005,0,0,0,312.933,114.369Zm6.851,0a2.734,2.734,0,1,1-2.721-2.9A2.733,2.733,0,0,1,319.784,114.369Zm4.029,0a4.005,4.005,0,0,0,3.922,4.162,3.512,3.512,0,0,0,2.817-1.392v1.232h1.376v-12h-1.376V111.6a3.512,3.512,0,0,0-2.817-1.392A4.005,4.005,0,0,0,323.813,114.369Zm6.851,0a2.734,2.734,0,1,1-2.721-2.9A2.733,2.733,0,0,1,330.664,114.369Zm4.029,0a4.219,4.219,0,0,0,7.747,2.257l-1.089-.752a2.833,2.833,0,0,1-5.266-1.232h6.563a3.922,3.922,0,0,0,.016-0.417,3.729,3.729,0,0,0-3.81-4.017A4.055,4.055,0,0,0,334.693,114.369Zm4.113-2.945a2.4,2.4,0,0,1,2.449,2.1h-5.074A2.617,2.617,0,0,1,338.806,111.424Zm8.512,5.875a1.185,1.185,0,1,0-1.185,1.2A1.207,1.207,0,0,0,347.318,117.3Zm9.616,1.072h1.456v-9.956h3.538v-1.408H353.4v1.408h3.538v9.956Zm7.247,0h1.376V114.4c0-1.872,1.025-2.929,2.321-2.929a1.921,1.921,0,0,1,1.889,2.177v4.722h1.361v-4.93a2.95,2.95,0,0,0-3.026-3.233,2.832,2.832,0,0,0-2.545,1.392v-5.234h-1.376v12Zm11.888-11.124a0.966,0.966,0,0,0-.96-0.977,0.994,0.994,0,0,0-.992.977,0.983,0.983,0,0,0,.992.976A0.956,0.956,0,0,0,376.069,107.247Zm-1.664,11.124h1.376v-8h-1.376v8Zm9.97-2.225c0-1.2-.753-1.969-2.113-2.417l-0.865-.288c-0.944-.3-1.232-0.608-1.232-1.12a1.132,1.132,0,0,1,1.344-.929,2.16,2.16,0,0,1,1.7.833l0.9-.865a3.106,3.106,0,0,0-2.562-1.152c-1.584,0-2.7.88-2.7,2.177a2.417,2.417,0,0,0,1.985,2.321l0.785,0.256c1.04,0.336,1.424.72,1.424,1.28a1.218,1.218,0,0,1-1.408,1.089,2.148,2.148,0,0,1-2.049-1.265l-1.121.608a3.178,3.178,0,0,0,3.137,1.857C383.206,118.531,384.375,117.715,384.375,116.146Zm9.614,2.225h1.153l3.7-8H397.3l-2.737,6.05-2.737-6.05h-1.537Zm6.239-4a4.219,4.219,0,0,0,7.747,2.257l-1.088-.752a2.833,2.833,0,0,1-5.266-1.232h6.562a3.922,3.922,0,0,0,.016-0.417,3.728,3.728,0,0,0-3.809-4.017A4.056,4.056,0,0,0,400.228,114.369Zm4.114-2.945a2.4,2.4,0,0,1,2.449,2.1h-5.074A2.616,2.616,0,0,1,404.342,111.424Zm6.606,6.947h1.377V114.4c0-1.872,1.1-2.753,2.113-2.753a2.011,2.011,0,0,1,.752.128v-1.424a2.851,2.851,0,0,0-.624-0.064,2.38,2.38,0,0,0-2.241,1.632v-1.552h-1.377v8Zm11.7-2.225c0-1.2-.753-1.969-2.113-2.417l-0.865-.288c-0.944-.3-1.232-0.608-1.232-1.12a1.132,1.132,0,0,1,1.344-.929,2.16,2.16,0,0,1,1.7.833l0.9-.865a3.106,3.106,0,0,0-2.562-1.152c-1.584,0-2.7.88-2.7,2.177a2.417,2.417,0,0,0,1.985,2.321l0.784,0.256c1.041,0.336,1.425.72,1.425,1.28a1.218,1.218,0,0,1-1.408,1.089,2.148,2.148,0,0,1-2.049-1.265l-1.121.608a3.178,3.178,0,0,0,3.137,1.857C421.478,118.531,422.647,117.715,422.647,116.146Zm4.43-8.9a0.966,0.966,0,0,0-.96-0.977,0.994,0.994,0,0,0-.993.977,0.984,0.984,0,0,0,.993.976A0.956,0.956,0,0,0,427.077,107.247Zm-1.665,11.124h1.377v-8h-1.377v8Zm12.515-4a4.186,4.186,0,1,0-4.177,4.162A4.107,4.107,0,0,0,437.927,114.369Zm-6.962,0a2.779,2.779,0,1,1,2.785,2.882A2.751,2.751,0,0,1,430.965,114.369Zm9.727,4h1.377V114.4c0-1.872,1.024-2.929,2.321-2.929a1.921,1.921,0,0,1,1.888,2.177v4.722h1.361v-4.93a2.949,2.949,0,0,0-3.025-3.233,2.829,2.829,0,0,0-2.545,1.392v-1.232h-1.377v8Zm16.592-11.124a0.966,0.966,0,0,0-.96-0.977,0.994,0.994,0,0,0-.992.977,0.983,0.983,0,0,0,.992.976A0.956,0.956,0,0,0,457.284,107.247Zm-1.664,11.124H457v-8H455.62v8Zm9.97-2.225c0-1.2-.753-1.969-2.113-2.417l-0.865-.288c-0.944-.3-1.232-0.608-1.232-1.12a1.133,1.133,0,0,1,1.345-.929,2.159,2.159,0,0,1,1.7.833l0.9-.865a3.106,3.106,0,0,0-2.561-1.152c-1.585,0-2.706.88-2.706,2.177a2.417,2.417,0,0,0,1.985,2.321l0.785,0.256c1.04,0.336,1.424.72,1.424,1.28a1.218,1.218,0,0,1-1.408,1.089,2.148,2.148,0,0,1-2.049-1.265l-1.121.608a3.179,3.179,0,0,0,3.138,1.857C464.421,118.531,465.59,117.715,465.59,116.146Zm14.736,0.24-1.2-.672a2.714,2.714,0,0,1-2.5,1.537,2.883,2.883,0,0,1,0-5.763,2.714,2.714,0,0,1,2.5,1.537l1.2-.672a4.143,4.143,0,0,0-3.7-2.145,4.162,4.162,0,1,0,0,8.323A4.143,4.143,0,0,0,480.326,116.386Zm2.573,1.985h1.377V114.4c0-1.872,1.1-2.753,2.112-2.753a2.013,2.013,0,0,1,.753.128v-1.424a2.851,2.851,0,0,0-.624-0.064,2.38,2.38,0,0,0-2.241,1.632v-1.552H482.9v8Zm5.76-4a4,4,0,0,0,3.921,4.162,3.509,3.509,0,0,0,2.817-1.392v1.232h1.377v-8H495.4V111.6a3.509,3.509,0,0,0-2.817-1.392A4,4,0,0,0,488.659,114.369Zm6.851,0a2.734,2.734,0,1,1-2.722-2.9A2.734,2.734,0,0,1,495.51,114.369Zm5.325,4h1.377v-6.739h2.113v-1.264h-2.113V108.9a1.152,1.152,0,0,1,1.328-1.36,3.228,3.228,0,0,1,.993.16v-1.217a3.646,3.646,0,0,0-1.249-.208,2.253,2.253,0,0,0-2.449,2.449v1.649h-1.7v1.264h1.7v6.739Zm9.588-.112v-1.232a3.144,3.144,0,0,1-.992.16,1.153,1.153,0,0,1-1.329-1.361v-4.194h2.321v-1.264H508.1v-2.225h-1.377v2.225h-1.5v1.264h1.5V116a2.265,2.265,0,0,0,2.466,2.449A3.982,3.982,0,0,0,510.423,118.259Zm1.82-3.89a4.219,4.219,0,0,0,7.747,2.257l-1.089-.752a2.833,2.833,0,0,1-5.266-1.232H520.2a3.922,3.922,0,0,0,.016-0.417,3.729,3.729,0,0,0-3.81-4.017A4.055,4.055,0,0,0,512.243,114.369Zm4.113-2.945a2.4,2.4,0,0,1,2.449,2.1h-5.074A2.617,2.617,0,0,1,516.356,111.424Zm5.983,2.945a4,4,0,0,0,3.921,4.162,3.509,3.509,0,0,0,2.817-1.392v1.232h1.377v-12h-1.377V111.6a3.509,3.509,0,0,0-2.817-1.392A4,4,0,0,0,522.339,114.369Zm6.85,0a2.734,2.734,0,1,1-2.721-2.9A2.733,2.733,0,0,1,529.189,114.369Zm15.856,4h1.217l2.721-8h-1.457l-1.936,5.842-2-5.842h-1.057l-2,5.842-1.937-5.842h-1.441l2.721,8h1.217l1.984-5.762Zm7.886-11.124a0.966,0.966,0,0,0-.96-0.977,0.994,0.994,0,0,0-.993.977,0.984,0.984,0,0,0,.993.976A0.956,0.956,0,0,0,552.931,107.247Zm-1.665,11.124h1.377v-8h-1.377v8Zm9.122-.112v-1.232a3.041,3.041,0,0,1-.976.16,1.153,1.153,0,0,1-1.329-1.361v-4.194h2.305v-1.264h-2.305v-2.225h-1.376v2.225h-1.7v1.264h1.7V116a2.252,2.252,0,0,0,2.449,2.449A3.828,3.828,0,0,0,560.388,118.259Zm2.558,0.112h1.377V114.4c0-1.872,1.024-2.929,2.321-2.929a1.921,1.921,0,0,1,1.888,2.177v4.722h1.361v-4.93a2.949,2.949,0,0,0-3.025-3.233,2.829,2.829,0,0,0-2.545,1.392v-5.234h-1.377v12Zm-527.526,20h1.216l2.721-8H37.9l-1.937,5.842-2-5.842H32.907l-2,5.842-1.937-5.842H27.529l2.721,8h1.217l1.985-5.762Zm5.565-4a4,4,0,0,0,3.922,4.162,3.51,3.51,0,0,0,2.817-1.392v1.232H49.1v-8H47.723V131.6a3.51,3.51,0,0,0-2.817-1.392A4,4,0,0,0,40.985,134.369Zm6.851,0a2.734,2.734,0,1,1-2.721-2.9A2.733,2.733,0,0,1,47.835,134.369Zm8.991,3.89v-1.232a3.044,3.044,0,0,1-.976.16,1.153,1.153,0,0,1-1.328-1.361v-4.194h2.3v-1.264h-2.3v-2.225H53.145v2.225h-1.7v1.264h1.7V136a2.253,2.253,0,0,0,2.449,2.449A3.831,3.831,0,0,0,56.826,138.259Zm1.822-3.89a4.219,4.219,0,0,0,7.747,2.257l-1.089-.752a2.833,2.833,0,0,1-5.266-1.232H66.6a3.9,3.9,0,0,0,.016-0.417,3.729,3.729,0,0,0-3.81-4.017A4.056,4.056,0,0,0,58.649,134.369Zm4.114-2.945a2.4,2.4,0,0,1,2.449,2.1H60.137A2.617,2.617,0,0,1,62.762,131.424Zm6.607,6.947h1.376V134.4c0-1.872,1.1-2.753,2.113-2.753a2.013,2.013,0,0,1,.752.128v-1.424a2.854,2.854,0,0,0-.624-0.064,2.381,2.381,0,0,0-2.241,1.632v-1.552H69.369v8Zm5.728-3.793h4.082V133.2H75.1v1.377Zm7.232,3.793h1.377V134.4c0-1.872,1.1-2.753,2.113-2.753a2.013,2.013,0,0,1,.752.128v-1.424a2.854,2.854,0,0,0-.624-0.064,2.381,2.381,0,0,0-2.241,1.632v-1.552H82.329v8Zm5.744-4a4.219,4.219,0,0,0,7.747,2.257l-1.088-.752a2.833,2.833,0,0,1-5.266-1.232h6.563a3.922,3.922,0,0,0,.016-0.417,3.729,3.729,0,0,0-3.809-4.017A4.056,4.056,0,0,0,88.072,134.369Zm4.114-2.945a2.4,2.4,0,0,1,2.449,2.1H89.561A2.617,2.617,0,0,1,92.186,131.424Zm11.793,4.722c0-1.2-.753-1.969-2.113-2.417L101,133.441c-0.944-.3-1.232-0.608-1.232-1.12a1.132,1.132,0,0,1,1.344-.929,2.16,2.16,0,0,1,1.7.833l0.9-.865a3.106,3.106,0,0,0-2.561-1.152c-1.585,0-2.706.88-2.706,2.177a2.416,2.416,0,0,0,1.985,2.321l0.785,0.256c1.04,0.336,1.424.72,1.424,1.28a1.218,1.218,0,0,1-1.408,1.089,2.149,2.149,0,0,1-2.049-1.265l-1.12.608a3.178,3.178,0,0,0,3.138,1.857C102.81,138.531,103.979,137.715,103.979,136.146Zm4.43-8.9a0.966,0.966,0,0,0-.96-0.977,0.994,0.994,0,0,0-.993.977,0.984,0.984,0,0,0,.993.976A0.956,0.956,0,0,0,108.409,127.247Zm-1.665,11.124h1.377v-8h-1.377v8Zm9.97-2.225c0-1.2-.752-1.969-2.112-2.417l-0.865-.288c-0.944-.3-1.232-0.608-1.232-1.12a1.132,1.132,0,0,1,1.344-.929,2.16,2.16,0,0,1,1.7.833l0.9-.865a3.1,3.1,0,0,0-2.561-1.152c-1.584,0-2.7.88-2.7,2.177a2.416,2.416,0,0,0,1.985,2.321l0.784,0.256c1.041,0.336,1.425.72,1.425,1.28a1.218,1.218,0,0,1-1.409,1.089,2.15,2.15,0,0,1-2.049-1.265l-1.12.608a3.178,3.178,0,0,0,3.137,1.857C115.546,138.531,116.714,137.715,116.714,136.146Zm7.008,2.113v-1.232a3.041,3.041,0,0,1-.976.16,1.153,1.153,0,0,1-1.329-1.361v-4.194h2.3v-1.264h-2.3v-2.225H120.04v2.225h-1.7v1.264h1.7V136a2.253,2.253,0,0,0,2.449,2.449A3.83,3.83,0,0,0,123.722,138.259Zm1.822-3.89a4.005,4.005,0,0,0,3.922,4.162,3.51,3.51,0,0,0,2.817-1.392v1.232h1.376v-8h-1.376V131.6a3.51,3.51,0,0,0-2.817-1.392A4.005,4.005,0,0,0,125.544,134.369Zm6.851,0a2.734,2.734,0,1,1-2.721-2.9A2.733,2.733,0,0,1,132.4,134.369Zm4.653,4h1.377V134.4c0-1.872,1.024-2.929,2.321-2.929a1.921,1.921,0,0,1,1.888,2.177v4.722H144v-4.93a2.949,2.949,0,0,0-3.025-3.233,2.829,2.829,0,0,0-2.545,1.392v-1.232h-1.377v8Zm14.466-.112v-1.232a3.043,3.043,0,0,1-.977.16,1.153,1.153,0,0,1-1.328-1.361v-4.194h2.305v-1.264h-2.305v-2.225h-1.377v2.225h-1.7v1.264h1.7V136a2.253,2.253,0,0,0,2.449,2.449A3.83,3.83,0,0,0,151.514,138.259Zm11.328,0v-1.232a3.052,3.052,0,0,1-.977.16,1.153,1.153,0,0,1-1.328-1.361v-4.194h2.305v-1.264h-2.305v-2.225H159.16v2.225h-1.7v1.264h1.7V136a2.253,2.253,0,0,0,2.449,2.449A3.84,3.84,0,0,0,162.842,138.259Zm9.345,0.112H173.4l2.721-8h-1.456l-1.937,5.842-2-5.842h-1.056l-2,5.842-1.937-5.842H164.3l2.721,8h1.217l1.985-5.762Zm7.885-11.124a0.966,0.966,0,0,0-.96-0.977,1,1,0,0,0-.993.977,0.984,0.984,0,0,0,.993.976A0.956,0.956,0,0,0,180.072,127.247Zm-1.664,11.124h1.376v-8h-1.376v8Zm4.783,0h1.377V126.366h-1.377v12.005Zm4.784,0h1.377V126.366h-1.377v12.005Zm9.953,0H199.3v-6.739h2.321v-1.264H199.3V128.9a1.152,1.152,0,0,1,1.329-1.36,3.222,3.222,0,0,1,.992.16v-1.217a3.636,3.636,0,0,0-1.248-.208,2.286,2.286,0,0,0-2.449,2.481v1.617h-1.7v1.264h1.7v6.739Zm6,0H205.3V134.4c0-1.872,1.1-2.753,2.112-2.753a2.013,2.013,0,0,1,.753.128v-1.424a2.851,2.851,0,0,0-.624-0.064,2.38,2.38,0,0,0-2.241,1.632v-1.552h-1.377v8Zm14.1-4a4.186,4.186,0,1,0-4.177,4.162A4.107,4.107,0,0,0,218.026,134.369Zm-6.963,0a2.779,2.779,0,1,1,2.786,2.882A2.752,2.752,0,0,1,211.063,134.369Zm9.728,4h1.377V134.4c0-1.808.912-2.929,2.208-2.929,1.041,0,1.569.9,1.569,2.193v4.706h1.377V134.4c0-1.808.9-2.929,2.193-2.929,1.04,0,1.584.9,1.584,2.193v4.706h1.377v-4.914c0-1.953-1.057-3.249-2.8-3.249a2.769,2.769,0,0,0-2.625,1.712,2.517,2.517,0,0,0-2.465-1.712,2.689,2.689,0,0,0-2.417,1.392v-1.232h-1.377v8Zm23.729-.112v-1.232a3.041,3.041,0,0,1-.976.16,1.153,1.153,0,0,1-1.328-1.361v-4.194h2.3v-1.264h-2.3v-2.225h-1.377v2.225h-1.7v1.264h1.7V136a2.252,2.252,0,0,0,2.449,2.449A3.828,3.828,0,0,0,244.52,138.259Zm2.559,0.112h1.376V134.4c0-1.872,1.025-2.929,2.321-2.929a1.921,1.921,0,0,1,1.889,2.177v4.722h1.36v-4.93A2.949,2.949,0,0,0,251,130.208a2.831,2.831,0,0,0-2.545,1.392v-5.234h-1.376v12.005Zm9.6-4a4.219,4.219,0,0,0,7.747,2.257l-1.088-.752a2.833,2.833,0,0,1-5.266-1.232h6.562a3.922,3.922,0,0,0,.016-0.417,3.728,3.728,0,0,0-3.809-4.017A4.056,4.056,0,0,0,256.678,134.369Zm4.114-2.945a2.4,2.4,0,0,1,2.449,2.1h-5.074A2.616,2.616,0,0,1,260.792,131.424Zm17.809,6.947h1.217l2.721-8h-1.457l-1.937,5.842-2-5.842h-1.057l-2,5.842-1.936-5.842H270.71l2.721,8h1.217l1.984-5.762Zm13.92-4a4.186,4.186,0,1,0-4.177,4.162A4.107,4.107,0,0,0,292.521,134.369Zm-6.963,0a2.779,2.779,0,1,1,2.786,2.882A2.752,2.752,0,0,1,285.558,134.369Zm9.728,4h1.376V134.4c0-1.872,1.105-2.753,2.113-2.753a2.016,2.016,0,0,1,.753.128v-1.424a2.854,2.854,0,0,0-.625-0.064,2.382,2.382,0,0,0-2.241,1.632v-1.552h-1.376v8Zm6.656,0h1.376V126.366h-1.376v12.005Zm4.16-4a4,4,0,0,0,3.921,4.162,3.509,3.509,0,0,0,2.817-1.392v1.232h1.377V126.366H312.84V131.6a3.509,3.509,0,0,0-2.817-1.392A4,4,0,0,0,306.1,134.369Zm6.85,0a2.734,2.734,0,1,1-2.721-2.9A2.733,2.733,0,0,1,312.952,134.369Zm4.4,0.209h4.081V133.2H317.35v1.377Zm7.231,3.793h1.377V134.4c0-1.872,1.1-2.753,2.113-2.753a2.011,2.011,0,0,1,.752.128v-1.424a2.851,2.851,0,0,0-.624-0.064,2.38,2.38,0,0,0-2.241,1.632v-1.552h-1.377v8Zm5.744-4a4.219,4.219,0,0,0,7.747,2.257l-1.088-.752a2.833,2.833,0,0,1-5.266-1.232h6.562a3.692,3.692,0,0,0,.017-0.417,3.73,3.73,0,0,0-3.81-4.017A4.056,4.056,0,0,0,330.325,134.369Zm4.114-2.945a2.4,2.4,0,0,1,2.449,2.1h-5.074A2.616,2.616,0,0,1,334.439,131.424Zm6.606,6.947h1.377V134.4c0-1.872,1.024-2.929,2.321-2.929a1.922,1.922,0,0,1,1.889,2.177v4.722h1.36v-4.93a2.949,2.949,0,0,0-3.025-3.233,2.831,2.831,0,0,0-2.545,1.392v-1.232h-1.377v8Zm17.955-4a4.186,4.186,0,1,0-4.177,4.162A4.107,4.107,0,0,0,359,134.369Zm-6.962,0a2.779,2.779,0,1,1,2.785,2.882A2.751,2.751,0,0,1,352.038,134.369Zm16.482,4h1.216l2.721-8H371l-1.937,5.842-2-5.842h-1.056l-2,5.842-1.937-5.842h-1.44l2.721,8h1.216l1.985-5.762Zm6.221,0h1.376V134.4c0-1.872,1.025-2.929,2.321-2.929a1.921,1.921,0,0,1,1.889,2.177v4.722h1.361v-4.93a2.95,2.95,0,0,0-3.026-3.233,2.832,2.832,0,0,0-2.545,1.392v-1.232h-1.376v8Zm9.6-4a4.22,4.22,0,0,0,7.748,2.257L391,135.874a2.833,2.833,0,0,1-5.266-1.232H392.3a3.922,3.922,0,0,0,.016-0.417,3.729,3.729,0,0,0-3.81-4.017A4.056,4.056,0,0,0,384.34,134.369Zm4.114-2.945a2.4,2.4,0,0,1,2.449,2.1h-5.074A2.617,2.617,0,0,1,388.454,131.424Zm5.982,2.945a4.005,4.005,0,0,0,3.922,4.162,3.51,3.51,0,0,0,2.817-1.392v1.232h1.377V126.366h-1.377V131.6a3.51,3.51,0,0,0-2.817-1.392A4.005,4.005,0,0,0,394.436,134.369Zm6.851,0a2.734,2.734,0,1,1-2.721-2.9A2.733,2.733,0,0,1,401.287,134.369Zm9.565,4h6.979v-1.408h-5.49v-9.956h-1.489v11.364Zm11.009-11.124a0.967,0.967,0,0,0-.961-0.977,0.994,0.994,0,0,0-.992.977,0.983,0.983,0,0,0,.992.976A0.957,0.957,0,0,0,421.861,127.247ZM420.2,138.371h1.377v-8H420.2v8Zm4.784,0h1.377V134.4c0-1.808.912-2.929,2.209-2.929,1.04,0,1.568.9,1.568,2.193v4.706h1.377V134.4c0-1.808.9-2.929,2.193-2.929,1.04,0,1.584.9,1.584,2.193v4.706h1.377v-4.914c0-1.953-1.057-3.249-2.8-3.249a2.769,2.769,0,0,0-2.625,1.712,2.517,2.517,0,0,0-2.465-1.712,2.689,2.689,0,0,0-2.417,1.392v-1.232H424.98v8Zm22.691-4a4.186,4.186,0,1,0-4.178,4.162A4.107,4.107,0,0,0,447.671,134.369Zm-6.963,0a2.779,2.779,0,1,1,2.785,2.882A2.751,2.751,0,0,1,440.708,134.369Zm9.728,4h1.376V134.4c0-1.872,1.025-2.929,2.321-2.929a1.921,1.921,0,0,1,1.889,2.177v4.722h1.361v-4.93a2.95,2.95,0,0,0-3.026-3.233,2.832,2.832,0,0,0-2.545,1.392v-1.232h-1.376v8Zm14.465-.112v-1.232a3.041,3.041,0,0,1-.976.16,1.153,1.153,0,0,1-1.329-1.361v-4.194H464.9v-1.264H462.6v-2.225H461.22v2.225h-1.7v1.264h1.7V136a2.252,2.252,0,0,0,2.449,2.449A3.828,3.828,0,0,0,464.9,138.259Zm1.823-3.89a4,4,0,0,0,3.921,4.162,3.509,3.509,0,0,0,2.817-1.392v1.232h1.377v-8h-1.377V131.6a3.509,3.509,0,0,0-2.817-1.392A4,4,0,0,0,466.724,134.369Zm6.85,0a2.734,2.734,0,1,1-2.721-2.9A2.733,2.733,0,0,1,473.574,134.369Zm9.357,4h1.377V134.4c0-1.808.912-2.929,2.209-2.929,1.04,0,1.568.9,1.568,2.193v4.706h1.377V134.4c0-1.808.9-2.929,2.193-2.929,1.04,0,1.585.9,1.585,2.193v4.706h1.376v-4.914c0-1.953-1.056-3.249-2.8-3.249a2.77,2.77,0,0,0-2.625,1.712,2.516,2.516,0,0,0-2.465-1.712,2.689,2.689,0,0,0-2.417,1.392v-1.232h-1.377v8Zm16.625-11.124a0.966,0.966,0,0,0-.96-0.977,0.994,0.994,0,0,0-.993.977,0.984,0.984,0,0,0,.993.976A0.956,0.956,0,0,0,499.556,127.247Zm-1.665,11.124h1.377v-8h-1.377v8Zm4.784,0h1.377V126.366h-1.377v12.005Zm4.784,0h1.377V126.366h-1.377v12.005Zm11.152-11.124a0.966,0.966,0,0,0-.96-0.977,0.994,0.994,0,0,0-.992.977,0.983,0.983,0,0,0,.992.976A0.956,0.956,0,0,0,518.611,127.247Zm-1.664,11.124h1.376v-8h-1.376v8Zm4.784,0h1.376V134.4c0-1.872,1.025-2.929,2.321-2.929a1.921,1.921,0,0,1,1.889,2.177v4.722h1.36v-4.93a2.949,2.949,0,0,0-3.025-3.233,2.831,2.831,0,0,0-2.545,1.392v-1.232h-1.376v8Zm15.135,0h1.489V127.007h-1.489v11.364Zm9.41-.112v-1.232a3.041,3.041,0,0,1-.976.16,1.153,1.153,0,0,1-1.329-1.361v-4.194h2.3v-1.264h-2.3v-2.225H542.6v2.225h-1.7v1.264h1.7V136a2.252,2.252,0,0,0,2.449,2.449A3.828,3.828,0,0,0,546.276,138.259Zm1.822-3.89a4.005,4.005,0,0,0,3.922,4.162,3.51,3.51,0,0,0,2.817-1.392v1.232h1.376v-8h-1.376V131.6a3.51,3.51,0,0,0-2.817-1.392A4.005,4.005,0,0,0,548.1,134.369Zm6.851,0a2.734,2.734,0,1,1-2.721-2.9A2.733,2.733,0,0,1,554.949,134.369Zm4.653,4h1.377V126.366H559.6v12.005Zm6.913,3.345,5.25-11.348h-1.537l-2.737,6.066-2.753-6.066h-1.52l3.5,7.587-1.745,3.761h1.537Zm8.352-3.7a1.368,1.368,0,0,0,.224-0.72,1.185,1.185,0,1,0-2.369,0,1.191,1.191,0,0,0,.656,1.072l-1.072,2.289h0.912ZM28.633,158.371H30.01v-4l4.338,4H36.2l-4.818-4.466,3.938-3.537H33.5l-3.489,3.121v-7.123H28.633v12Zm9.424,0h1.377V154.4c0-1.872,1.024-2.929,2.321-2.929a1.921,1.921,0,0,1,1.889,2.177v4.722H45v-4.93a2.949,2.949,0,0,0-3.025-3.233,2.83,2.83,0,0,0-2.545,1.392v-1.232H38.057v8Zm17.955-4a4.186,4.186,0,1,0-4.178,4.162A4.107,4.107,0,0,0,56.012,154.369Zm-6.963,0a2.779,2.779,0,1,1,2.785,2.882A2.751,2.751,0,0,1,49.049,154.369Zm16.482,4h1.216l2.721-8H68.012l-1.937,5.842-2-5.842H63.018l-2,5.842-1.937-5.842H57.64l2.721,8h1.216l1.985-5.762Zm6.221,0h1.377V154.4c0-1.872,1.024-2.929,2.321-2.929a1.921,1.921,0,0,1,1.889,2.177v4.722H78.7v-4.93a2.949,2.949,0,0,0-3.025-3.233,2.83,2.83,0,0,0-2.545,1.392v-1.232H71.752v8Zm15.392,0h1.376v-6.739h2.321v-1.264H88.521V148.9a1.152,1.152,0,0,1,1.329-1.36,3.225,3.225,0,0,1,.992.16v-1.217a3.639,3.639,0,0,0-1.248-.208,2.286,2.286,0,0,0-2.449,2.481v1.617h-1.7v1.264h1.7v6.739Zm13.523-4a4.186,4.186,0,1,0-4.177,4.162A4.107,4.107,0,0,0,100.667,154.369Zm-6.963,0a2.779,2.779,0,1,1,2.785,2.882A2.751,2.751,0,0,1,93.7,154.369Zm9.728,4h1.377V154.4c0-1.872,1.1-2.753,2.112-2.753a2.016,2.016,0,0,1,.753.128v-1.424a2.854,2.854,0,0,0-.625-0.064,2.38,2.38,0,0,0-2.24,1.632v-1.552h-1.377v8Zm12.624-11.124a0.966,0.966,0,0,0-.96-0.977,0.994,0.994,0,0,0-.992.977,0.983,0.983,0,0,0,.992.976A0.956,0.956,0,0,0,116.056,147.247Zm-1.664,11.124h1.376v-8h-1.376v8Zm9.121-.112v-1.232a3.041,3.041,0,0,1-.976.16,1.153,1.153,0,0,1-1.328-1.361v-4.194h2.3v-1.264h-2.3v-2.225h-1.377v2.225h-1.7v1.264h1.7V156a2.252,2.252,0,0,0,2.449,2.449A3.828,3.828,0,0,0,123.513,158.259Zm7.745-2.113c0-1.2-.753-1.969-2.113-2.417l-0.864-.288c-0.945-.3-1.233-0.608-1.233-1.12a1.133,1.133,0,0,1,1.345-.929,2.159,2.159,0,0,1,1.7.833l0.9-.865a3.106,3.106,0,0,0-2.561-1.152c-1.585,0-2.705.88-2.705,2.177a2.416,2.416,0,0,0,1.984,2.321l0.785,0.256c1.04,0.336,1.424.72,1.424,1.28a1.218,1.218,0,0,1-1.408,1.089,2.148,2.148,0,0,1-2.049-1.265l-1.121.608a3.18,3.18,0,0,0,3.138,1.857C130.089,158.531,131.258,157.715,131.258,156.146Zm7.469,2.225H140.1v-12h-1.377v12Zm12.515-4a4.186,4.186,0,1,0-4.177,4.162A4.107,4.107,0,0,0,151.242,154.369Zm-6.962,0a2.779,2.779,0,1,1,2.785,2.882A2.751,2.751,0,0,1,144.28,154.369Zm9.727,4h1.377V154.4c0-1.872,1.024-2.929,2.321-2.929a1.921,1.921,0,0,1,1.888,2.177v4.722h1.361v-4.93a2.949,2.949,0,0,0-3.025-3.233,2.829,2.829,0,0,0-2.545,1.392v-1.232h-1.377v8Zm17.683-.464v-7.539h-1.377V151.6a3.4,3.4,0,0,0-2.785-1.392,4.077,4.077,0,0,0,0,8.147,3.417,3.417,0,0,0,2.785-1.408v0.912a2.558,2.558,0,0,1-2.673,2.769,3.422,3.422,0,0,1-2.8-1.345l-0.96.961a4.752,4.752,0,0,0,3.777,1.633A3.705,3.705,0,0,0,171.69,157.907Zm-6.675-3.634a2.707,2.707,0,1,1,2.705,2.8A2.667,2.667,0,0,1,165.015,154.273Zm15.25,1.873c0-1.2-.753-1.969-2.113-2.417l-0.864-.288c-0.945-.3-1.233-0.608-1.233-1.12a1.133,1.133,0,0,1,1.345-.929,2.159,2.159,0,0,1,1.7.833l0.9-.865a3.106,3.106,0,0,0-2.561-1.152c-1.585,0-2.7.88-2.7,2.177a2.416,2.416,0,0,0,1.984,2.321l0.785,0.256c1.04,0.336,1.424.72,1.424,1.28a1.218,1.218,0,0,1-1.408,1.089,2.148,2.148,0,0,1-2.049-1.265l-1.121.608a3.18,3.18,0,0,0,3.138,1.857C179.1,158.531,180.265,157.715,180.265,156.146Zm7.007,2.113v-1.232a3.041,3.041,0,0,1-.976.16,1.153,1.153,0,0,1-1.329-1.361v-4.194h2.3v-1.264h-2.3v-2.225h-1.376v2.225h-1.7v1.264h1.7V156a2.252,2.252,0,0,0,2.449,2.449A3.828,3.828,0,0,0,187.272,158.259Zm1.822-3.89a4.005,4.005,0,0,0,3.922,4.162,3.509,3.509,0,0,0,2.817-1.392v1.232h1.377v-8h-1.377V151.6a3.509,3.509,0,0,0-2.817-1.392A4.005,4.005,0,0,0,189.094,154.369Zm6.851,0a2.734,2.734,0,1,1-2.721-2.9A2.733,2.733,0,0,1,195.945,154.369Zm4.654,4h1.376V154.4c0-1.872,1.025-2.929,2.321-2.929a1.921,1.921,0,0,1,1.889,2.177v4.722h1.36v-4.93a2.949,2.949,0,0,0-3.025-3.233,2.831,2.831,0,0,0-2.545,1.392v-1.232H200.6v8Zm9.6-4a4.005,4.005,0,0,0,3.922,4.162,3.51,3.51,0,0,0,2.817-1.392v1.232h1.376v-12h-1.376V151.6a3.51,3.51,0,0,0-2.817-1.392A4.005,4.005,0,0,0,210.2,154.369Zm6.851,0a2.734,2.734,0,1,1-2.721-2.9A2.733,2.733,0,0,1,217.049,154.369Zm6.318-7.122a0.966,0.966,0,0,0-.96-0.977,0.994,0.994,0,0,0-.993.977,0.984,0.984,0,0,0,.993.976A0.956,0.956,0,0,0,223.367,147.247ZM221.7,158.371h1.377v-8H221.7v8Zm4.784,0h1.377V154.4c0-1.872,1.024-2.929,2.321-2.929a1.921,1.921,0,0,1,1.888,2.177v4.722h1.361v-4.93a2.949,2.949,0,0,0-3.025-3.233,2.829,2.829,0,0,0-2.545,1.392v-1.232h-1.377v8Zm17.683-.464v-7.539h-1.377V151.6a3.4,3.4,0,0,0-2.785-1.392,4.077,4.077,0,0,0,0,8.147,3.417,3.417,0,0,0,2.785-1.408v0.912a2.558,2.558,0,0,1-2.673,2.769,3.422,3.422,0,0,1-2.8-1.345l-0.96.961a4.752,4.752,0,0,0,3.777,1.633A3.705,3.705,0,0,0,244.169,157.907Zm-6.675-3.634a2.707,2.707,0,1,1,2.705,2.8A2.667,2.667,0,0,1,237.494,154.273Zm22.035,2.113-1.2-.672a2.713,2.713,0,0,1-2.5,1.537,2.883,2.883,0,0,1,0-5.763,2.713,2.713,0,0,1,2.5,1.537l1.2-.672a4.145,4.145,0,0,0-3.7-2.145,4.162,4.162,0,1,0,0,8.323A4.145,4.145,0,0,0,259.529,156.386Zm10.3-2.017a4.186,4.186,0,1,0-4.178,4.162A4.107,4.107,0,0,0,269.833,154.369Zm-6.963,0a2.779,2.779,0,1,1,2.785,2.882A2.751,2.751,0,0,1,262.87,154.369Zm9.727,4h1.377V154.4c0-1.808.912-2.929,2.209-2.929,1.04,0,1.568.9,1.568,2.193v4.706h1.377V154.4c0-1.808.9-2.929,2.193-2.929,1.04,0,1.584.9,1.584,2.193v4.706h1.377v-4.914c0-1.953-1.057-3.249-2.8-3.249a2.769,2.769,0,0,0-2.625,1.712,2.516,2.516,0,0,0-2.465-1.712,2.689,2.689,0,0,0-2.417,1.392v-1.232H272.6v8Zm14.96,0h1.377V154.4c0-1.808.912-2.929,2.209-2.929,1.04,0,1.568.9,1.568,2.193v4.706h1.377V154.4c0-1.808.9-2.929,2.193-2.929,1.04,0,1.584.9,1.584,2.193v4.706h1.377v-4.914c0-1.953-1.057-3.249-2.8-3.249a2.769,2.769,0,0,0-2.625,1.712,2.517,2.517,0,0,0-2.465-1.712,2.689,2.689,0,0,0-2.417,1.392v-1.232h-1.377v8Zm16.625-11.124a0.967,0.967,0,0,0-.961-0.977,0.994,0.994,0,0,0-.992.977,0.983,0.983,0,0,0,.992.976A0.957,0.957,0,0,0,304.182,147.247Zm-1.665,11.124h1.377v-8h-1.377v8Zm9.122-.112v-1.232a3.048,3.048,0,0,1-.977.16,1.153,1.153,0,0,1-1.328-1.361v-4.194h2.305v-1.264h-2.305v-2.225h-1.377v2.225h-1.7v1.264h1.7V156a2.253,2.253,0,0,0,2.449,2.449A3.835,3.835,0,0,0,311.639,158.259Zm2.558,0.112h1.376V154.4c0-1.808.913-2.929,2.209-2.929,1.041,0,1.569.9,1.569,2.193v4.706h1.377V154.4c0-1.808.9-2.929,2.192-2.929,1.041,0,1.585.9,1.585,2.193v4.706h1.377v-4.914c0-1.953-1.057-3.249-2.8-3.249a2.771,2.771,0,0,0-2.625,1.712,2.515,2.515,0,0,0-2.465-1.712,2.692,2.692,0,0,0-2.417,1.392v-1.232H314.2v8Zm14.335-4a4.22,4.22,0,0,0,7.748,2.257l-1.089-.752a2.833,2.833,0,0,1-5.266-1.232h6.563a3.922,3.922,0,0,0,.016-0.417,3.729,3.729,0,0,0-3.81-4.017A4.056,4.056,0,0,0,328.532,154.369Zm4.114-2.945a2.4,2.4,0,0,1,2.449,2.1h-5.074A2.617,2.617,0,0,1,332.646,151.424Zm6.607,6.947h1.376V154.4c0-1.872,1.025-2.929,2.321-2.929a1.921,1.921,0,0,1,1.889,2.177v4.722h1.36v-4.93a2.949,2.949,0,0,0-3.025-3.233,2.831,2.831,0,0,0-2.545,1.392v-1.232h-1.376v8Zm14.465-.112v-1.232a3.041,3.041,0,0,1-.976.16,1.153,1.153,0,0,1-1.329-1.361v-4.194h2.305v-1.264h-2.305v-2.225h-1.376v2.225h-1.7v1.264h1.7V156a2.252,2.252,0,0,0,2.449,2.449A3.828,3.828,0,0,0,353.718,158.259Zm11.328,0v-1.232a3.041,3.041,0,0,1-.976.16,1.153,1.153,0,0,1-1.329-1.361v-4.194h2.305v-1.264h-2.305v-2.225h-1.376v2.225h-1.7v1.264h1.7V156a2.252,2.252,0,0,0,2.449,2.449A3.828,3.828,0,0,0,365.046,158.259Zm10.178-3.89a4.186,4.186,0,1,0-4.178,4.162A4.107,4.107,0,0,0,375.224,154.369Zm-6.963,0a2.779,2.779,0,1,1,2.785,2.882A2.751,2.751,0,0,1,368.261,154.369Zm18.5,3.89v-1.232a3.043,3.043,0,0,1-.977.16,1.153,1.153,0,0,1-1.328-1.361v-4.194h2.305v-1.264h-2.305v-2.225h-1.377v2.225h-1.7v1.264h1.7V156a2.253,2.253,0,0,0,2.449,2.449A3.83,3.83,0,0,0,386.758,158.259Zm1.822-3.89a4.219,4.219,0,0,0,7.747,2.257l-1.088-.752a2.834,2.834,0,0,1-5.267-1.232h6.563a3.922,3.922,0,0,0,.016-0.417,3.729,3.729,0,0,0-3.809-4.017A4.056,4.056,0,0,0,388.58,154.369Zm4.114-2.945a2.4,2.4,0,0,1,2.449,2.1h-5.074A2.616,2.616,0,0,1,392.694,151.424Zm5.118,6.947h1.712l2.433-3.025,2.433,3.025h1.7l-3.265-4.05,3.009-3.953H404.15l-2.193,2.881-2.208-2.881h-1.665l3.009,3.953Zm14.818-.112v-1.232a3.041,3.041,0,0,1-.976.16,1.153,1.153,0,0,1-1.329-1.361v-4.194h2.305v-1.264h-2.305v-2.225h-1.376v2.225h-1.7v1.264h1.7V156a2.252,2.252,0,0,0,2.448,2.449A3.83,3.83,0,0,0,412.63,158.259Zm4.223-11.012a0.967,0.967,0,0,0-.961-0.977,0.994,0.994,0,0,0-.992.977,0.983,0.983,0,0,0,.992.976A0.957,0.957,0,0,0,416.853,147.247Zm-1.665,11.124h1.377v-8h-1.377v8Zm4.784,0h1.377v-12h-1.377v12Zm4.16-4a4.219,4.219,0,0,0,7.747,2.257l-1.089-.752a2.833,2.833,0,0,1-5.266-1.232h6.563a3.922,3.922,0,0,0,.016-0.417,3.729,3.729,0,0,0-3.81-4.017A4.055,4.055,0,0,0,424.132,154.369Zm4.113-2.945a2.4,2.4,0,0,1,2.449,2.1H425.62A2.617,2.617,0,0,1,428.245,151.424Zm15.376,6.835v-1.232a3.041,3.041,0,0,1-.976.16,1.153,1.153,0,0,1-1.328-1.361v-4.194h2.3v-1.264h-2.3v-2.225H439.94v2.225h-1.7v1.264h1.7V156a2.252,2.252,0,0,0,2.449,2.449A3.828,3.828,0,0,0,443.621,158.259Zm2.559,0.112h1.376V154.4c0-1.872,1.105-2.753,2.113-2.753a2.011,2.011,0,0,1,.752.128v-1.424a2.851,2.851,0,0,0-.624-0.064,2.381,2.381,0,0,0-2.241,1.632v-1.552H446.18v8Zm5.759-4a4.005,4.005,0,0,0,3.922,4.162,3.51,3.51,0,0,0,2.817-1.392v1.232h1.377v-8h-1.377V151.6a3.51,3.51,0,0,0-2.817-1.392A4.005,4.005,0,0,0,451.939,154.369Zm6.851,0a2.734,2.734,0,1,1-2.721-2.9A2.733,2.733,0,0,1,458.79,154.369Zm4.029,0a4.005,4.005,0,0,0,3.922,4.162,3.51,3.51,0,0,0,2.817-1.392v1.232h1.376v-12h-1.376V151.6a3.51,3.51,0,0,0-2.817-1.392A4.005,4.005,0,0,0,462.819,154.369Zm6.851,0a2.734,2.734,0,1,1-2.721-2.9A2.733,2.733,0,0,1,469.67,154.369Zm6.318-7.122a0.966,0.966,0,0,0-.96-0.977,0.994,0.994,0,0,0-.993.977,0.984,0.984,0,0,0,.993.976A0.956,0.956,0,0,0,475.988,147.247Zm-1.665,11.124H475.7v-8h-1.377v8Zm9.122-.112v-1.232a3.041,3.041,0,0,1-.976.16,1.153,1.153,0,0,1-1.329-1.361v-4.194h2.305v-1.264H481.14v-2.225h-1.377v2.225h-1.7v1.264h1.7V156a2.253,2.253,0,0,0,2.449,2.449A3.83,3.83,0,0,0,483.445,158.259Zm4.223-11.012a0.967,0.967,0,0,0-.961-0.977,0.994,0.994,0,0,0-.992.977,0.983,0.983,0,0,0,.992.976A0.957,0.957,0,0,0,487.668,147.247ZM486,158.371h1.377v-8H486v8Zm12.515-4a4.186,4.186,0,1,0-4.178,4.162A4.107,4.107,0,0,0,498.518,154.369Zm-6.963,0a2.779,2.779,0,1,1,2.785,2.882A2.751,2.751,0,0,1,491.555,154.369Zm9.728,4h1.376V154.4c0-1.872,1.025-2.929,2.321-2.929a1.921,1.921,0,0,1,1.889,2.177v4.722h1.361v-4.93a2.95,2.95,0,0,0-3.026-3.233,2.832,2.832,0,0,0-2.545,1.392v-1.232h-1.376v8Zm15.41-2.225c0-1.2-.753-1.969-2.113-2.417l-0.864-.288c-0.945-.3-1.233-0.608-1.233-1.12a1.133,1.133,0,0,1,1.345-.929,2.159,2.159,0,0,1,1.7.833l0.9-.865a3.106,3.106,0,0,0-2.561-1.152c-1.585,0-2.705.88-2.705,2.177a2.416,2.416,0,0,0,1.984,2.321l0.785,0.256c1.04,0.336,1.424.72,1.424,1.28a1.218,1.218,0,0,1-1.408,1.089,2.148,2.148,0,0,1-2.049-1.265l-1.121.608a3.18,3.18,0,0,0,3.138,1.857C515.524,158.531,516.693,157.715,516.693,156.146Zm4.67,1.153a1.185,1.185,0,1,0-1.184,1.2A1.206,1.206,0,0,0,521.363,157.3Z"/>
  <rect id="Rectangle_4_copy_4" data-name="Rectangle 4 copy 4" x="27" y="204.938" width="102" height="3.062"/>
  <path id="Shop_now" data-name="Shop now" class="cls-2" d="M31.347,199.177c2.255,0,3.8-1.378,3.818-3.352a3.346,3.346,0,0,0-2.54-3.245l-0.752-.276c-1.127-.413-1.654-0.673-1.654-1.255a1.1,1.1,0,0,1,1.293-.827,2.356,2.356,0,0,1,1.849.9l1.563-1.684a4.414,4.414,0,0,0-3.442-1.5c-2.134,0-3.683,1.24-3.683,3.352,0,1.485.962,2.541,2.691,3.138l0.752,0.26c1.067,0.367,1.488.75,1.488,1.3a1.086,1.086,0,0,1-1.293.9,2.779,2.779,0,0,1-2.21-1.24l-1.834,1.577A4.653,4.653,0,0,0,31.347,199.177Zm8.1-.184h2.39v-4.3h4.3v4.3h2.39V188.125h-2.39v4.256h-4.3v-4.256h-2.39v10.868Zm18.883,0.184a5.618,5.618,0,1,0-5.517-5.618A5.582,5.582,0,0,0,58.335,199.177Zm0-2.357a3.265,3.265,0,1,1,3.1-3.261A3.2,3.2,0,0,1,58.335,196.82Zm17.185-4.975a3.667,3.667,0,0,0-3.758-3.72H68.139v10.868h2.39v-3.444h1.233A3.654,3.654,0,0,0,75.52,191.845Zm-2.315,0a1.416,1.416,0,0,1-1.473,1.423h-1.2v-2.847h1.2A1.408,1.408,0,0,1,73.2,191.845Zm21.649,7.148V188.125H92.449v6.705l-5.186-6.705H85.2v10.868h2.39v-6.719l5.2,6.719h2.059Zm9.8,0.184a5.618,5.618,0,1,0-5.516-5.618A5.581,5.581,0,0,0,104.658,199.177Zm0-2.357a3.265,3.265,0,1,1,3.1-3.261A3.2,3.2,0,0,1,104.658,196.82Zm18.072,2.173H125l2.48-10.868h-2.556l-1.458,6.888-3.006-7.071-2.991,7.071-1.458-6.888h-2.556l2.465,10.868h2.27l2.27-5.327Z"/>
</svg>
