<svg id="Copy_copy_17" data-name="Copy copy 17" xmlns="http://www.w3.org/2000/svg" width="720" height="229" viewBox="0 0 720 229">
  <metadata><?xpacket begin="﻿" id="W5M0MpCehiHzreSzNTczkc9d"?>
<x:xmpmeta xmlns:x="adobe:ns:meta/" x:xmptk="Adobe XMP Core 5.6-c138 79.159824, 2016/09/14-01:09:01        ">
   <rdf:RDF xmlns:rdf="http://www.w3.org/1999/02/22-rdf-syntax-ns#">
      <rdf:Description rdf:about=""/>
   </rdf:RDF>
</x:xmpmeta>
                                                                                                    
                                                                                                    
                                                                                                    
                                                                                                    
                                                                                                    
                                                                                                    
                                                                                                    
                                                                                                    
                                                                                                    
                                                                                                    
                                                                                                    
                                                                                                    
                                                                                                    
                                                                                                    
                                                                                                    
                                                                                                    
                                                                                                    
                                                                                                    
                                                                                                    
                                                                                                    
                           
<?xpacket end="w"?></metadata>
<defs>
    <style>
      .cls-1 {
        fill: #fff;
      }

      .cls-2 {
        fill-rule: evenodd;
      }
    </style>
  </defs>
  <rect id="Rectangle_96_copy_5" data-name="Rectangle 96 copy 5" class="cls-1" width="720" height="229"/>
  <path id="PLUSH_WOOL-BLEND_DUSTER_Limited_availability._" data-name="PLUSH WOOL-BLEND DUSTER Limited availability.  " class="cls-2" d="M44.316,36.862a7.254,7.254,0,0,0-7.5-7.29h-7.23v21.3h4.77v-6.75h2.46A7.229,7.229,0,0,0,44.316,36.862Zm-4.62,0a2.8,2.8,0,0,1-2.94,2.79h-2.4v-5.58h2.4A2.785,2.785,0,0,1,39.7,36.862Zm9.18,14.009h13.59v-4.56h-8.82V29.572h-4.77v21.3Zm25.86,0.36a8.353,8.353,0,0,0,8.76-8.79V29.572h-4.77V42.5a3.992,3.992,0,1,1-7.98,0V29.572h-4.77V42.441A8.337,8.337,0,0,0,74.736,51.231Zm20.88,0c4.5,0,7.59-2.7,7.62-6.57,0.03-3.21-1.98-5.25-5.07-6.36l-1.5-.54c-2.25-.81-3.3-1.32-3.3-2.46,0-1.11,1.29-1.62,2.58-1.62a4.738,4.738,0,0,1,3.69,1.77l3.12-3.3a8.887,8.887,0,0,0-6.87-2.94c-4.26,0-7.35,2.43-7.35,6.57,0,2.91,1.92,4.98,5.37,6.15l1.5,0.51c2.13,0.72,2.97,1.47,2.97,2.55,0,1.02-.99,1.77-2.58,1.77a5.572,5.572,0,0,1-4.41-2.43l-3.66,3.09A9.34,9.34,0,0,0,95.615,51.231Zm12.42-.36h4.77v-8.43h8.58v8.43h4.77v-21.3h-4.77v8.34h-8.58v-8.34h-4.77v21.3Zm48.449,0h4.53l4.95-21.3h-5.1l-2.91,13.5-6-13.859-5.97,13.859-2.91-13.5h-5.1l4.92,21.3h4.53l4.53-10.44Zm23.251,0.36a11.01,11.01,0,1,0-11.01-11.01A11.036,11.036,0,0,0,179.735,51.231Zm0-4.62a6.393,6.393,0,1,1,6.179-6.39A6.32,6.32,0,0,1,179.735,46.611Zm25.619,4.62a11.01,11.01,0,1,0-11.009-11.01A11.036,11.036,0,0,0,205.354,51.231Zm0-4.62a6.393,6.393,0,1,1,6.18-6.39A6.319,6.319,0,0,1,205.354,46.611Zm15.81,4.26h13.59v-4.56h-8.82V29.572h-4.77v21.3Zm14.82-8.49h8.82v-4.32h-8.82v4.32Zm14.31,8.49h9.359a6.3,6.3,0,0,0,6.48-6.27,5.566,5.566,0,0,0-3.03-5.04,5.013,5.013,0,0,0,1.53-3.66,6.331,6.331,0,0,0-6.329-6.33h-8.01v21.3Zm4.77-12.689v-4.26h2.7a2.164,2.164,0,0,1,2.219,2.16,2.134,2.134,0,0,1-2.219,2.1h-2.7Zm0,8.31v-4.26h4.17a2.167,2.167,0,0,1,2.249,2.13,2.14,2.14,0,0,1-2.219,2.13h-4.2Zm15.78,4.38h13.589v-4.56h-8.819V29.572h-4.77v21.3Zm18.059,0h13.5v-4.56h-8.73V42.5h6.93v-4.56h-6.93v-3.81h8.73v-4.56H288.9v21.3Zm37.89,0v-21.3h-4.8V42.711l-10.35-13.139h-4.11v21.3h4.77V37.7l10.38,13.17h4.11Zm6,0h7.26a10.652,10.652,0,1,0,0-21.3h-7.26v21.3Zm4.77-4.38V33.952h2.49a6.011,6.011,0,0,1,6.03,6.27,6.011,6.011,0,0,1-6.03,6.27h-2.49Zm26.28,4.38H371.1a10.652,10.652,0,1,0,0-21.3h-7.259v21.3Zm4.769-4.38V33.952h2.49a6.011,6.011,0,0,1,6.03,6.27,6.011,6.011,0,0,1-6.03,6.27h-2.49Zm26.7,4.74a8.354,8.354,0,0,0,8.76-8.79V29.572H399.3V42.5a3.992,3.992,0,1,1-7.98,0V29.572h-4.77V42.441A8.338,8.338,0,0,0,395.312,51.231Zm20.88,0c4.5,0,7.589-2.7,7.619-6.57,0.03-3.21-1.979-5.25-5.069-6.36l-1.5-.54c-2.25-.81-3.3-1.32-3.3-2.46,0-1.11,1.29-1.62,2.58-1.62a4.738,4.738,0,0,1,3.69,1.77l3.119-3.3a8.884,8.884,0,0,0-6.869-2.94c-4.26,0-7.35,2.43-7.35,6.57,0,2.91,1.92,4.98,5.37,6.15l1.5,0.51c2.13,0.72,2.97,1.47,2.97,2.55,0,1.02-.99,1.77-2.58,1.77a5.573,5.573,0,0,1-4.41-2.43l-3.66,3.09A9.34,9.34,0,0,0,416.192,51.231Zm15.96-.36h4.8V34.132h5.49v-4.56H426.722v4.56h5.43V50.871Zm14.7,0h13.5v-4.56h-8.73V42.5h6.93v-4.56h-6.93v-3.81h8.73v-4.56h-13.5v21.3Zm18.63,0h4.769v-8.79h0.78l7.08,8.79h5.73l-7.53-9.39c2.7-.96,4.17-2.73,4.17-5.49a6.288,6.288,0,0,0-6.6-6.42h-8.4v21.3Zm4.769-12.84v-4.08h3.06c1.41,0,2.43.75,2.43,2.04a2.156,2.156,0,0,1-2.43,2.04h-3.06ZM29.029,78.871h7.85V77.287H30.7v-11.2H29.029V78.871ZM41.413,66.357a1.087,1.087,0,0,0-1.08-1.1,1.118,1.118,0,0,0-1.116,1.1,1.107,1.107,0,0,0,1.116,1.1A1.076,1.076,0,0,0,41.413,66.357ZM39.541,78.871h1.548v-9H39.541v9Zm5.382,0h1.548V74.406c0-2.035,1.026-3.3,2.485-3.3,1.17,0,1.764,1.008,1.764,2.467v5.294h1.548V74.406c0-2.035,1.008-3.3,2.467-3.3,1.17,0,1.782,1.008,1.782,2.467v5.294h1.548V73.343c0-2.2-1.188-3.655-3.151-3.655a3.116,3.116,0,0,0-2.953,1.927,2.83,2.83,0,0,0-2.773-1.927,3.026,3.026,0,0,0-2.719,1.566V69.868H44.923v9Zm18.7-12.514a1.087,1.087,0,0,0-1.08-1.1,1.118,1.118,0,0,0-1.116,1.1,1.107,1.107,0,0,0,1.116,1.1A1.076,1.076,0,0,0,63.625,66.357ZM61.753,78.871H63.3v-9H61.753v9Zm10.261-.126V77.359a3.421,3.421,0,0,1-1.1.18,1.3,1.3,0,0,1-1.495-1.531V71.291h2.593V69.868H69.421v-2.5H67.873v2.5H65.964v1.422h1.909v4.915a2.534,2.534,0,0,0,2.755,2.755A4.31,4.31,0,0,0,72.014,78.745Zm2.05-4.375a4.746,4.746,0,0,0,8.715,2.539l-1.224-.846a3.188,3.188,0,0,1-5.924-1.386h7.382a4.368,4.368,0,0,0,.018-0.468,4.2,4.2,0,0,0-4.285-4.519A4.562,4.562,0,0,0,74.065,74.37Zm4.627-3.313a2.693,2.693,0,0,1,2.755,2.359H75.739A2.943,2.943,0,0,1,78.692,71.057Zm6.73,3.313a4.5,4.5,0,0,0,4.411,4.681A3.948,3.948,0,0,0,93,77.485v1.386h1.549v-13.5H93v5.888a3.948,3.948,0,0,0-3.169-1.566A4.5,4.5,0,0,0,85.422,74.37Zm7.706,0a3.075,3.075,0,1,1-3.061-3.259A3.074,3.074,0,0,1,93.129,74.37Zm9.825,0a4.505,4.505,0,0,0,4.411,4.681,3.947,3.947,0,0,0,3.169-1.566v1.386h1.549v-9h-1.549v1.386a3.947,3.947,0,0,0-3.169-1.566A4.505,4.505,0,0,0,102.954,74.37Zm7.706,0a3.075,3.075,0,1,1-3.061-3.259A3.074,3.074,0,0,1,110.66,74.37Zm8.045,4.5H120l4.159-9h-1.728l-3.079,6.806-3.079-6.806h-1.728Zm7.037-4.5a4.5,4.5,0,0,0,4.411,4.681,3.948,3.948,0,0,0,3.169-1.566v1.386h1.548v-9h-1.548v1.386a3.948,3.948,0,0,0-3.169-1.566A4.5,4.5,0,0,0,125.742,74.37Zm7.706,0a3.075,3.075,0,1,1-3.061-3.259A3.074,3.074,0,0,1,133.448,74.37Zm7.108-8.012a1.087,1.087,0,0,0-1.08-1.1,1.118,1.118,0,0,0-1.116,1.1,1.106,1.106,0,0,0,1.116,1.1A1.076,1.076,0,0,0,140.556,66.357Zm-1.872,12.514h1.548v-9h-1.548v9Zm5.382,0h1.548v-13.5h-1.548v13.5Zm4.679-4.5a4.505,4.505,0,0,0,4.412,4.681,3.95,3.95,0,0,0,3.169-1.566v1.386h1.548v-9h-1.548v1.386a3.95,3.95,0,0,0-3.169-1.566A4.505,4.505,0,0,0,148.745,74.37Zm7.707,0a3.075,3.075,0,1,1-3.061-3.259A3.074,3.074,0,0,1,156.452,74.37Zm6.784,3.115a3.947,3.947,0,0,0,3.169,1.566,4.69,4.69,0,0,0,0-9.363,3.947,3.947,0,0,0-3.169,1.566V65.367h-1.549v13.5h1.549V77.485Zm6-3.115a3.067,3.067,0,1,1-3.061-3.259A3.074,3.074,0,0,1,169.232,74.37Zm6.568-8.012a1.087,1.087,0,0,0-1.081-1.1,1.118,1.118,0,0,0-1.116,1.1,1.106,1.106,0,0,0,1.116,1.1A1.076,1.076,0,0,0,175.8,66.357Zm-1.873,12.514h1.549v-9h-1.549v9Zm5.382,0h1.548v-13.5h-1.548v13.5Zm7.254-12.514a1.087,1.087,0,0,0-1.08-1.1,1.118,1.118,0,0,0-1.116,1.1,1.106,1.106,0,0,0,1.116,1.1A1.076,1.076,0,0,0,186.563,66.357Zm-1.872,12.514h1.548v-9h-1.548v9Zm10.261-.126V77.359a3.419,3.419,0,0,1-1.1.18,1.3,1.3,0,0,1-1.5-1.531V71.291h2.593V69.868h-2.593v-2.5h-1.548v2.5H188.9v1.422h1.909v4.915a2.534,2.534,0,0,0,2.755,2.755A4.307,4.307,0,0,0,194.952,78.745Zm5.273,3.889,5.906-12.766H204.4l-3.079,6.824-3.1-6.824h-1.711l3.943,8.535L198.5,82.634h1.728Zm9.612-4.97a1.332,1.332,0,1,0-1.332,1.35A1.356,1.356,0,0,0,209.837,77.665Z"/>
  <g id="CTA_copy_8" data-name="CTA copy 8">
    <rect id="Rectangle_4_copy_4" data-name="Rectangle 4 copy 4" x="27" y="125.938" width="102" height="3.062"/>
    <path id="Shop_now" data-name="Shop now" class="cls-2" d="M31.347,120.177c2.255,0,3.8-1.378,3.818-3.352a3.346,3.346,0,0,0-2.54-3.245l-0.752-.276c-1.127-.413-1.654-0.673-1.654-1.255a1.1,1.1,0,0,1,1.293-.827,2.356,2.356,0,0,1,1.849.9l1.563-1.684a4.414,4.414,0,0,0-3.442-1.5c-2.134,0-3.683,1.24-3.683,3.352,0,1.485.962,2.541,2.691,3.138l0.752,0.26c1.067,0.367,1.488.75,1.488,1.3a1.086,1.086,0,0,1-1.293.9,2.779,2.779,0,0,1-2.21-1.24l-1.834,1.577A4.653,4.653,0,0,0,31.347,120.177Zm8.1-.184h2.39v-4.3h4.3v4.3h2.39V109.125h-2.39v4.256h-4.3v-4.256h-2.39v10.868Zm18.883,0.184a5.618,5.618,0,1,0-5.517-5.618A5.582,5.582,0,0,0,58.335,120.177Zm0-2.357a3.265,3.265,0,1,1,3.1-3.261A3.2,3.2,0,0,1,58.335,117.82Zm17.185-4.975a3.667,3.667,0,0,0-3.758-3.72H68.139v10.868h2.39v-3.444h1.233A3.654,3.654,0,0,0,75.52,112.845Zm-2.315,0a1.416,1.416,0,0,1-1.473,1.423h-1.2v-2.847h1.2A1.408,1.408,0,0,1,73.2,112.845Zm21.649,7.148V109.125H92.449v6.7l-5.186-6.7H85.2v10.868h2.39v-6.719l5.2,6.719h2.059Zm9.8,0.184a5.618,5.618,0,1,0-5.516-5.618A5.581,5.581,0,0,0,104.658,120.177Zm0-2.357a3.265,3.265,0,1,1,3.1-3.261A3.2,3.2,0,0,1,104.658,117.82Zm18.072,2.173H125l2.48-10.868h-2.556l-1.458,6.888-3.006-7.071-2.991,7.071-1.458-6.888h-2.556l2.465,10.868h2.27l2.27-5.327Z"/>
  </g>
</svg>
