<svg id="copy_copy" data-name="copy copy" xmlns="http://www.w3.org/2000/svg" width="1360" height="723" viewBox="0 0 1360 723">
  <metadata><?xpacket begin="﻿" id="W5M0MpCehiHzreSzNTczkc9d"?>
<x:xmpmeta xmlns:x="adobe:ns:meta/" x:xmptk="Adobe XMP Core 5.6-c138 79.159824, 2016/09/14-01:09:01        ">
   <rdf:RDF xmlns:rdf="http://www.w3.org/1999/02/22-rdf-syntax-ns#">
      <rdf:Description rdf:about=""/>
   </rdf:RDF>
</x:xmpmeta>
                                                                                                    
                                                                                                    
                                                                                                    
                                                                                                    
                                                                                                    
                                                                                                    
                                                                                                    
                                                                                                    
                                                                                                    
                                                                                                    
                                                                                                    
                                                                                                    
                                                                                                    
                                                                                                    
                                                                                                    
                                                                                                    
                                                                                                    
                                                                                                    
                                                                                                    
                                                                                                    
                           
<?xpacket end="w"?></metadata>
<defs>
    <style>
      .cls-1, .cls-2 {
        fill-rule: evenodd;
      }

      .cls-2 {
        fill: #010000;
      }
    </style>
  </defs>
  <path id="We_partner_with_the_best_mills_on_earth_to_source_the_finest_ma" data-name="We partner with the best mills on earth to source the finest ma" class="cls-1" d="M50.74,601.146h1.328l3.1-11.361H53.62l-2.384,8.865-3.28-9.057-3.264,9.057-2.384-8.865H40.755l3.1,11.361h1.328l2.784-7.713Zm5.39-4a4.218,4.218,0,0,0,7.745,2.256l-1.088-.752a2.833,2.833,0,0,1-5.265-1.232h6.561A3.9,3.9,0,0,0,64.1,597a3.728,3.728,0,0,0-3.808-4.017A4.054,4.054,0,0,0,56.131,597.146Zm4.113-2.945a2.394,2.394,0,0,1,2.448,2.1H57.619A2.615,2.615,0,0,1,60.243,594.2Zm10.511,10.29H72.13v-4.577a3.509,3.509,0,0,0,2.817,1.392,4.168,4.168,0,0,0,0-8.321,3.509,3.509,0,0,0-2.817,1.392v-1.232H70.754v11.346Zm6.7-7.345a2.726,2.726,0,1,1-2.72-2.9A2.732,2.732,0,0,1,77.459,597.146Zm3.167,0a4,4,0,0,0,3.921,4.16,3.509,3.509,0,0,0,2.816-1.392v1.232h1.376v-8H87.363v1.232a3.509,3.509,0,0,0-2.816-1.392A4,4,0,0,0,80.626,597.146Zm6.849,0a2.733,2.733,0,1,1-2.72-2.9A2.732,2.732,0,0,1,87.475,597.146Zm4.255,4h1.376v-3.968c0-1.872,1.1-2.753,2.112-2.753a2.011,2.011,0,0,1,.752.128v-1.424a2.851,2.851,0,0,0-.624-0.064,2.381,2.381,0,0,0-2.24,1.632v-1.552H91.73v8Zm10.593-.112V599.8a3.043,3.043,0,0,1-.977.16,1.152,1.152,0,0,1-1.328-1.36v-4.193h2.3v-1.264h-2.3v-2.224H98.642v2.224h-1.7v1.264h1.7v4.369a2.252,2.252,0,0,0,2.448,2.448A3.835,3.835,0,0,0,102.323,601.034Zm2.159,0.112h1.376v-3.968c0-1.872,1.024-2.929,2.32-2.929a1.921,1.921,0,0,1,1.889,2.177v4.72h1.36v-4.928a2.949,2.949,0,0,0-3.025-3.233,2.829,2.829,0,0,0-2.544,1.392v-1.232h-1.376v8Zm9.2-4a4.218,4.218,0,0,0,7.745,2.256l-1.088-.752a2.833,2.833,0,0,1-5.265-1.232h6.561a3.9,3.9,0,0,0,.016-0.416,3.728,3.728,0,0,0-3.809-4.017A4.054,4.054,0,0,0,113.682,597.146Zm4.112-2.945a2.4,2.4,0,0,1,2.449,2.1H115.17A2.615,2.615,0,0,1,117.794,594.2ZM124,601.146h1.376v-3.968c0-1.872,1.1-2.753,2.112-2.753a2.011,2.011,0,0,1,.752.128v-1.424a2.851,2.851,0,0,0-.624-0.064,2.38,2.38,0,0,0-2.24,1.632v-1.552H124v8Zm16.657,0h1.216l2.72-8h-1.456l-1.936,5.841-2-5.841h-1.056l-2,5.841-1.936-5.841h-1.44l2.72,8h1.216l1.984-5.76Zm7.487-11.121a0.966,0.966,0,0,0-.96-0.976,0.994,0.994,0,0,0-.993.976,0.984,0.984,0,0,0,.993.976A0.956,0.956,0,0,0,148.146,590.025Zm-1.665,11.121h1.377v-8h-1.377v8Zm8.721-.112V599.8a3.041,3.041,0,0,1-.976.16,1.152,1.152,0,0,1-1.328-1.36v-4.193h2.3v-1.264h-2.3v-2.224h-1.377v2.224h-1.7v1.264h1.7v4.369a2.253,2.253,0,0,0,2.449,2.448A3.828,3.828,0,0,0,155.2,601.034Zm2.159,0.112h1.376v-3.968c0-1.872,1.025-2.929,2.321-2.929a1.921,1.921,0,0,1,1.888,2.177v4.72h1.36v-4.928a2.949,2.949,0,0,0-3.024-3.233,2.832,2.832,0,0,0-2.545,1.392v-5.232h-1.376v12Zm18.193-.112V599.8a3.048,3.048,0,0,1-.977.16,1.152,1.152,0,0,1-1.328-1.36v-4.193h2.305v-1.264h-2.305v-2.224h-1.376v2.224h-1.7v1.264h1.7v4.369a2.252,2.252,0,0,0,2.448,2.448A3.84,3.84,0,0,0,175.554,601.034Zm2.159,0.112h1.376v-3.968c0-1.872,1.024-2.929,2.32-2.929a1.921,1.921,0,0,1,1.889,2.177v4.72h1.36v-4.928a2.949,2.949,0,0,0-3.025-3.233,2.829,2.829,0,0,0-2.544,1.392v-5.232h-1.376v12Zm9.2-4a4.218,4.218,0,0,0,7.745,2.256l-1.088-.752a2.833,2.833,0,0,1-5.265-1.232h6.561a3.9,3.9,0,0,0,.016-0.416,3.728,3.728,0,0,0-3.809-4.017A4.054,4.054,0,0,0,186.913,597.146Zm4.112-2.945a2.4,2.4,0,0,1,2.449,2.1H188.4A2.615,2.615,0,0,1,191.025,594.2Zm11.888,5.713a3.508,3.508,0,0,0,2.816,1.392,4.168,4.168,0,0,0,0-8.321,3.508,3.508,0,0,0-2.816,1.392v-5.232h-1.377v12h1.377v-1.232Zm5.328-2.768a2.725,2.725,0,1,1-2.72-2.9A2.731,2.731,0,0,1,208.241,597.146Zm3.151,0a4.218,4.218,0,0,0,7.745,2.256l-1.088-.752a2.833,2.833,0,0,1-5.265-1.232h6.561a3.9,3.9,0,0,0,.016-0.416,3.728,3.728,0,0,0-3.808-4.017A4.054,4.054,0,0,0,211.392,597.146Zm4.113-2.945a2.394,2.394,0,0,1,2.448,2.1H212.88A2.616,2.616,0,0,1,215.505,594.2Zm11.392,4.721c0-1.2-.752-1.968-2.112-2.416l-0.865-.288c-0.944-.3-1.232-0.608-1.232-1.121a1.132,1.132,0,0,1,1.344-.928,2.162,2.162,0,0,1,1.7.832l0.9-.864a3.1,3.1,0,0,0-2.561-1.152c-1.584,0-2.7.88-2.7,2.176a2.415,2.415,0,0,0,1.984,2.321l0.784,0.256c1.041,0.336,1.425.72,1.425,1.28a1.218,1.218,0,0,1-1.409,1.088,2.147,2.147,0,0,1-2.048-1.264l-1.12.608a3.178,3.178,0,0,0,3.136,1.856C225.729,601.306,226.9,600.49,226.9,598.922Zm6.608,2.112V599.8a3.041,3.041,0,0,1-.976.16,1.152,1.152,0,0,1-1.329-1.36v-4.193h2.305v-1.264H231.2v-2.224h-1.376v2.224h-1.7v1.264h1.7v4.369a2.252,2.252,0,0,0,2.448,2.448A3.83,3.83,0,0,0,233.505,601.034Zm6.463,0.112h1.376v-3.968c0-1.808.912-2.929,2.208-2.929,1.04,0,1.569.9,1.569,2.193v4.7H246.5v-3.968c0-1.808.9-2.929,2.192-2.929,1.04,0,1.584.9,1.584,2.193v4.7h1.376v-4.912c0-1.953-1.056-3.249-2.8-3.249a2.769,2.769,0,0,0-2.624,1.712,2.515,2.515,0,0,0-2.465-1.712,2.689,2.689,0,0,0-2.416,1.392v-1.232h-1.376v8Zm16.224-11.121a0.966,0.966,0,0,0-.96-0.976,0.994,0.994,0,0,0-.992.976,0.983,0.983,0,0,0,.992.976A0.956,0.956,0,0,0,256.192,590.025Zm-1.664,11.121H255.9v-8h-1.376v8Zm4.384,0h1.376v-12h-1.376v12Zm4.384,0h1.376v-12H263.3v12Zm9.568-2.224c0-1.2-.752-1.968-2.112-2.416l-0.864-.288c-0.944-.3-1.232-0.608-1.232-1.121a1.132,1.132,0,0,1,1.344-.928,2.161,2.161,0,0,1,1.7.832l0.9-.864a3.1,3.1,0,0,0-2.56-1.152c-1.585,0-2.7.88-2.7,2.176a2.414,2.414,0,0,0,1.985,2.321l0.784,0.256c1.04,0.336,1.424.72,1.424,1.28a1.218,1.218,0,0,1-1.408,1.088,2.148,2.148,0,0,1-2.049-1.264l-1.12.608a3.179,3.179,0,0,0,3.137,1.856C271.7,601.306,272.864,600.49,272.864,598.922Zm14.4-1.776a4.185,4.185,0,1,0-4.176,4.16A4.106,4.106,0,0,0,287.264,597.146Zm-6.961,0a2.778,2.778,0,1,1,2.785,2.88A2.751,2.751,0,0,1,280.3,597.146Zm9.328,4h1.376v-3.968c0-1.872,1.024-2.929,2.32-2.929a1.921,1.921,0,0,1,1.889,2.177v4.72h1.36v-4.928a2.949,2.949,0,0,0-3.025-3.233,2.829,2.829,0,0,0-2.544,1.392v-1.232h-1.376v8Zm13.5-4a4.218,4.218,0,0,0,7.745,2.256l-1.088-.752a2.832,2.832,0,0,1-5.264-1.232h6.561A3.9,3.9,0,0,0,311.1,597a3.729,3.729,0,0,0-3.809-4.017A4.055,4.055,0,0,0,303.134,597.146Zm4.113-2.945a2.394,2.394,0,0,1,2.448,2.1h-5.072A2.615,2.615,0,0,1,307.247,594.2Zm5.583,2.945a4,4,0,0,0,3.921,4.16,3.508,3.508,0,0,0,2.816-1.392v1.232h1.376v-8h-1.376v1.232a3.508,3.508,0,0,0-2.816-1.392A4,4,0,0,0,312.83,597.146Zm6.849,0a2.733,2.733,0,1,1-2.72-2.9A2.731,2.731,0,0,1,319.679,597.146Zm4.255,4h1.376v-3.968c0-1.872,1.105-2.753,2.113-2.753a2.011,2.011,0,0,1,.752.128v-1.424a2.851,2.851,0,0,0-.624-0.064,2.381,2.381,0,0,0-2.241,1.632v-1.552h-1.376v8Zm10.593-.112V599.8a3.041,3.041,0,0,1-.976.16,1.152,1.152,0,0,1-1.329-1.36v-4.193h2.305v-1.264h-2.305v-2.224h-1.376v2.224h-1.7v1.264h1.7v4.369a2.252,2.252,0,0,0,2.449,2.448A3.828,3.828,0,0,0,334.527,601.034Zm2.159,0.112h1.376v-3.968c0-1.872,1.024-2.929,2.321-2.929a1.921,1.921,0,0,1,1.888,2.177v4.72h1.36v-4.928a2.949,2.949,0,0,0-3.024-3.233,2.829,2.829,0,0,0-2.545,1.392v-5.232h-1.376v12Zm18.192-.112V599.8a3.041,3.041,0,0,1-.976.16,1.152,1.152,0,0,1-1.328-1.36v-4.193h2.3v-1.264h-2.3v-2.224H351.2v2.224h-1.7v1.264h1.7v4.369a2.252,2.252,0,0,0,2.448,2.448A3.828,3.828,0,0,0,354.878,601.034Zm9.777-3.888a4.185,4.185,0,1,0-4.177,4.16A4.106,4.106,0,0,0,364.655,597.146Zm-6.961,0a2.778,2.778,0,1,1,2.784,2.88A2.751,2.751,0,0,1,357.694,597.146Zm18.816,1.776c0-1.2-.752-1.968-2.112-2.416l-0.864-.288c-0.944-.3-1.232-0.608-1.232-1.121a1.132,1.132,0,0,1,1.344-.928,2.161,2.161,0,0,1,1.7.832l0.9-.864a3.1,3.1,0,0,0-2.56-1.152c-1.584,0-2.7.88-2.7,2.176a2.416,2.416,0,0,0,1.985,2.321l0.784,0.256c1.04,0.336,1.424.72,1.424,1.28a1.218,1.218,0,0,1-1.408,1.088,2.147,2.147,0,0,1-2.048-1.264l-1.121.608a3.18,3.18,0,0,0,3.137,1.856C375.342,601.306,376.51,600.49,376.51,598.922Zm10.1-1.776a4.185,4.185,0,1,0-4.176,4.16A4.106,4.106,0,0,0,386.606,597.146Zm-6.961,0a2.778,2.778,0,1,1,2.785,2.88A2.751,2.751,0,0,1,379.645,597.146Zm9.216,0.912c0,1.984,1.184,3.248,2.945,3.248a2.752,2.752,0,0,0,2.464-1.392v1.232h1.376v-8H394.27v3.969c0,1.84-.976,2.928-2.224,2.928-1.105,0-1.809-.848-1.809-2.192v-4.705h-1.376v4.913Zm9.776,3.088h1.376v-3.968c0-1.872,1.1-2.753,2.113-2.753a2.011,2.011,0,0,1,.752.128v-1.424a2.851,2.851,0,0,0-.624-0.064,2.38,2.38,0,0,0-2.241,1.632v-1.552h-1.376v8Zm13.233-1.984-1.2-.672a2.712,2.712,0,0,1-2.5,1.536,2.882,2.882,0,0,1,0-5.761,2.711,2.711,0,0,1,2.5,1.537l1.2-.673a4.143,4.143,0,0,0-3.7-2.144,4.161,4.161,0,1,0,0,8.321A4.143,4.143,0,0,0,411.87,599.162Zm1.551-2.016a4.218,4.218,0,0,0,7.745,2.256l-1.088-.752a2.833,2.833,0,0,1-5.265-1.232h6.561A3.9,3.9,0,0,0,421.39,597a3.728,3.728,0,0,0-3.809-4.017A4.054,4.054,0,0,0,413.421,597.146Zm4.112-2.945a2.394,2.394,0,0,1,2.449,2.1h-5.073A2.615,2.615,0,0,1,417.533,594.2Zm14.576,6.833V599.8a3.041,3.041,0,0,1-.976.16,1.152,1.152,0,0,1-1.328-1.36v-4.193h2.3v-1.264h-2.3v-2.224h-1.376v2.224h-1.7v1.264h1.7v4.369a2.252,2.252,0,0,0,2.448,2.448A3.828,3.828,0,0,0,432.109,601.034Zm2.16,0.112h1.376v-3.968c0-1.872,1.024-2.929,2.32-2.929a1.921,1.921,0,0,1,1.888,2.177v4.72h1.361v-4.928a2.949,2.949,0,0,0-3.025-3.233,2.829,2.829,0,0,0-2.544,1.392v-5.232h-1.376v12Zm9.2-4a4.218,4.218,0,0,0,7.745,2.256l-1.088-.752a2.832,2.832,0,0,1-5.264-1.232h6.561a3.9,3.9,0,0,0,.016-0.416,3.729,3.729,0,0,0-3.809-4.017A4.055,4.055,0,0,0,443.468,597.146Zm4.113-2.945a2.394,2.394,0,0,1,2.448,2.1h-5.072A2.615,2.615,0,0,1,447.581,594.2Zm10.976,6.945h1.376v-6.737h2.32v-1.264h-2.32v-1.472a1.152,1.152,0,0,1,1.328-1.36,3.222,3.222,0,0,1,.992.16v-1.216a3.636,3.636,0,0,0-1.248-.208,2.285,2.285,0,0,0-2.448,2.48v1.616h-1.7v1.264h1.7v6.737Zm6.865-11.121a0.967,0.967,0,0,0-.961-0.976,0.994,0.994,0,0,0-.992.976,0.983,0.983,0,0,0,.992.976A0.957,0.957,0,0,0,465.422,590.025Zm-1.665,11.121h1.376v-8h-1.376v8Zm4.367,0H469.5v-3.968c0-1.872,1.025-2.929,2.321-2.929a1.921,1.921,0,0,1,1.888,2.177v4.72h1.36v-4.928a2.949,2.949,0,0,0-3.024-3.233,2.832,2.832,0,0,0-2.545,1.392v-1.232h-1.376v8Zm9.2-4a4.218,4.218,0,0,0,7.745,2.256l-1.088-.752a2.833,2.833,0,0,1-5.265-1.232h6.561a3.9,3.9,0,0,0,.016-0.416,3.728,3.728,0,0,0-3.808-4.017A4.054,4.054,0,0,0,477.324,597.146Zm4.113-2.945a2.394,2.394,0,0,1,2.448,2.1h-5.073A2.616,2.616,0,0,1,481.437,594.2Zm11.392,4.721c0-1.2-.752-1.968-2.113-2.416l-0.864-.288c-0.944-.3-1.232-0.608-1.232-1.121a1.132,1.132,0,0,1,1.344-.928,2.165,2.165,0,0,1,1.7.832l0.9-.864A3.1,3.1,0,0,0,490,592.985c-1.584,0-2.7.88-2.7,2.176a2.415,2.415,0,0,0,1.984,2.321l0.784,0.256c1.04,0.336,1.425.72,1.425,1.28a1.219,1.219,0,0,1-1.409,1.088,2.147,2.147,0,0,1-2.048-1.264l-1.12.608a3.178,3.178,0,0,0,3.136,1.856C491.661,601.306,492.829,600.49,492.829,598.922Zm6.608,2.112V599.8a3.052,3.052,0,0,1-.977.16,1.152,1.152,0,0,1-1.328-1.36v-4.193h2.305v-1.264h-2.305v-2.224h-1.376v2.224h-1.7v1.264h1.7v4.369a2.252,2.252,0,0,0,2.448,2.448A3.84,3.84,0,0,0,499.437,601.034Zm6.463,0.112h1.376v-3.968c0-1.808.912-2.929,2.208-2.929,1.04,0,1.568.9,1.568,2.193v4.7h1.377v-3.968c0-1.808.9-2.929,2.192-2.929,1.04,0,1.584.9,1.584,2.193v4.7h1.376v-4.912c0-1.953-1.056-3.249-2.8-3.249a2.769,2.769,0,0,0-2.624,1.712,2.516,2.516,0,0,0-2.465-1.712,2.689,2.689,0,0,0-2.416,1.392v-1.232H505.9v8Zm13.935-4a4,4,0,0,0,3.921,4.16,3.508,3.508,0,0,0,2.816-1.392v1.232h1.377v-8h-1.377v1.232a3.508,3.508,0,0,0-2.816-1.392A4,4,0,0,0,519.835,597.146Zm6.849,0a2.733,2.733,0,1,1-2.72-2.9A2.731,2.731,0,0,1,526.684,597.146Zm8.592,3.888V599.8a3.041,3.041,0,0,1-.976.16,1.152,1.152,0,0,1-1.328-1.36v-4.193h2.3v-1.264h-2.3v-2.224H531.6v2.224h-1.7v1.264h1.7v4.369a2.253,2.253,0,0,0,2.449,2.448A3.828,3.828,0,0,0,535.276,601.034Zm1.423-3.888a4.219,4.219,0,0,0,7.746,2.256l-1.089-.752a2.832,2.832,0,0,1-5.264-1.232h6.561a3.9,3.9,0,0,0,.016-0.416,3.729,3.729,0,0,0-3.809-4.017A4.055,4.055,0,0,0,536.7,597.146Zm4.113-2.945a2.394,2.394,0,0,1,2.448,2.1h-5.072A2.615,2.615,0,0,1,540.812,594.2Zm6.207,6.945H548.4v-3.968c0-1.872,1.1-2.753,2.112-2.753a2.011,2.011,0,0,1,.752.128v-1.424a2.851,2.851,0,0,0-.624-0.064,2.38,2.38,0,0,0-2.24,1.632v-1.552h-1.377v8Zm7.921-11.121a0.966,0.966,0,0,0-.96-0.976,0.994,0.994,0,0,0-.993.976,0.984,0.984,0,0,0,.993.976A0.956,0.956,0,0,0,554.94,590.025Zm-1.665,11.121h1.377v-8h-1.377v8Zm3.76-4a4,4,0,0,0,3.921,4.16,3.508,3.508,0,0,0,2.816-1.392v1.232h1.376v-8h-1.376v1.232a3.508,3.508,0,0,0-2.816-1.392A4,4,0,0,0,557.035,597.146Zm6.849,0a2.733,2.733,0,1,1-2.72-2.9A2.731,2.731,0,0,1,563.884,597.146Zm4.255,4h1.376v-12h-1.376v12Zm9.569-2.224c0-1.2-.752-1.968-2.112-2.416l-0.865-.288c-0.944-.3-1.232-0.608-1.232-1.121a1.132,1.132,0,0,1,1.344-.928,2.162,2.162,0,0,1,1.7.832l0.9-.864a3.1,3.1,0,0,0-2.561-1.152c-1.584,0-2.7.88-2.7,2.176a2.415,2.415,0,0,0,1.984,2.321l0.784,0.256c1.041,0.336,1.425.72,1.425,1.28a1.218,1.218,0,0,1-1.409,1.088,2.147,2.147,0,0,1-2.048-1.264l-1.12.608a3.178,3.178,0,0,0,3.136,1.856C576.54,601.306,577.708,600.49,577.708,598.922Zm2.111-1.568H587.9v-1.376h-8.081v1.376Zm12.192,2.56a3.508,3.508,0,0,0,2.816,1.392,4.168,4.168,0,0,0,0-8.321,3.508,3.508,0,0,0-2.816,1.392v-5.232h-1.376v12h1.376v-1.232Zm5.329-2.768a2.726,2.726,0,1,1-2.721-2.9A2.732,2.732,0,0,1,597.34,597.146Zm3.775,4h1.376v-12h-1.376v12Zm3.759-4a4.219,4.219,0,0,0,7.746,2.256l-1.089-.752a2.832,2.832,0,0,1-5.264-1.232h6.561a3.9,3.9,0,0,0,.016-0.416,3.729,3.729,0,0,0-3.809-4.017A4.055,4.055,0,0,0,604.874,597.146Zm4.113-2.945a2.394,2.394,0,0,1,2.448,2.1h-5.072A2.615,2.615,0,0,1,608.987,594.2Zm6.208,6.945h1.376v-3.968c0-1.872,1.024-2.929,2.32-2.929a1.921,1.921,0,0,1,1.888,2.177v4.72h1.361v-4.928a2.949,2.949,0,0,0-3.025-3.233,2.829,2.829,0,0,0-2.544,1.392v-1.232H615.2v8Zm9.2-4a4,4,0,0,0,3.921,4.16,3.508,3.508,0,0,0,2.816-1.392v1.232h1.376v-12h-1.376v5.232a3.508,3.508,0,0,0-2.816-1.392A4,4,0,0,0,624.394,597.146Zm6.849,0a2.733,2.733,0,1,1-2.72-2.9A2.731,2.731,0,0,1,631.243,597.146Zm5.919-7.121a0.966,0.966,0,0,0-.96-0.976,0.994,0.994,0,0,0-.992.976,0.983,0.983,0,0,0,.992.976A0.956,0.956,0,0,0,637.162,590.025ZM635.5,601.146h1.376v-8H635.5v8Zm4.384,0h1.376v-3.968c0-1.872,1.024-2.929,2.321-2.929a1.921,1.921,0,0,1,1.888,2.177v4.72h1.36v-4.928a2.949,2.949,0,0,0-3.024-3.233,2.831,2.831,0,0,0-2.545,1.392v-1.232h-1.376v8Zm17.281-.464v-7.537h-1.376v1.232A3.4,3.4,0,0,0,653,592.985a4.076,4.076,0,0,0,0,8.145,3.417,3.417,0,0,0,2.785-1.408v0.912a2.558,2.558,0,0,1-2.673,2.769,3.42,3.42,0,0,1-2.8-1.345l-0.96.961a4.749,4.749,0,0,0,3.776,1.632A3.7,3.7,0,0,0,657.163,600.682Zm-6.673-3.632a2.706,2.706,0,1,1,2.7,2.8A2.667,2.667,0,0,1,650.49,597.05Zm13.967,4.1h1.377v-3.968c0-1.872,1.024-2.929,2.32-2.929a1.921,1.921,0,0,1,1.888,2.177v4.72H671.4v-4.928a2.949,2.949,0,0,0-3.025-3.233,2.829,2.829,0,0,0-2.544,1.392v-1.232h-1.377v8Zm9.2-4a4,4,0,0,0,3.921,4.16,3.508,3.508,0,0,0,2.816-1.392v1.232h1.376v-8h-1.376v1.232a3.508,3.508,0,0,0-2.816-1.392A4,4,0,0,0,673.657,597.146Zm6.849,0a2.733,2.733,0,1,1-2.72-2.9A2.731,2.731,0,0,1,680.506,597.146Zm8.592,3.888V599.8a3.041,3.041,0,0,1-.976.16,1.152,1.152,0,0,1-1.328-1.36v-4.193h2.3v-1.264h-2.3v-2.224h-1.377v2.224h-1.7v1.264h1.7v4.369a2.252,2.252,0,0,0,2.449,2.448A3.828,3.828,0,0,0,689.1,601.034Zm2.047-2.976c0,1.984,1.184,3.248,2.945,3.248a2.752,2.752,0,0,0,2.464-1.392v1.232h1.376v-8h-1.376v3.969c0,1.84-.976,2.928-2.224,2.928-1.105,0-1.809-.848-1.809-2.192v-4.705h-1.376v4.913Zm9.776,3.088H702.3v-3.968c0-1.872,1.1-2.753,2.113-2.753a2.011,2.011,0,0,1,.752.128v-1.424a2.851,2.851,0,0,0-.624-0.064A2.38,2.38,0,0,0,702.3,594.7v-1.552h-1.376v8Zm5.36-4a4,4,0,0,0,3.921,4.16,3.508,3.508,0,0,0,2.816-1.392v1.232h1.376v-8h-1.376v1.232a3.508,3.508,0,0,0-2.816-1.392A4,4,0,0,0,706.281,597.146Zm6.849,0a2.733,2.733,0,1,1-2.72-2.9A2.731,2.731,0,0,1,713.13,597.146Zm4.255,4h1.376v-12h-1.376v12Zm9.152,0h1.376v-6.737h2.321v-1.264h-2.321v-1.472a1.152,1.152,0,0,1,1.328-1.36,3.233,3.233,0,0,1,.993.16v-1.216a3.646,3.646,0,0,0-1.249-.208,2.285,2.285,0,0,0-2.448,2.48v1.616h-1.7v1.264h1.7v6.737Zm6.865-11.121a0.966,0.966,0,0,0-.96-0.976,0.994,0.994,0,0,0-.992.976,0.983,0.983,0,0,0,.992.976A0.956,0.956,0,0,0,733.4,590.025Zm-1.664,11.121h1.376v-8h-1.376v8Zm5.743-1.232a3.508,3.508,0,0,0,2.816,1.392,4.168,4.168,0,0,0,0-8.321,3.508,3.508,0,0,0-2.816,1.392v-5.232h-1.376v12h1.376v-1.232Zm5.329-2.768a2.726,2.726,0,1,1-2.721-2.9A2.732,2.732,0,0,1,742.81,597.146Zm3.151,0a4.218,4.218,0,0,0,7.745,2.256l-1.088-.752a2.833,2.833,0,0,1-5.265-1.232h6.561A3.9,3.9,0,0,0,753.93,597a3.729,3.729,0,0,0-3.809-4.017A4.054,4.054,0,0,0,745.961,597.146Zm4.112-2.945a2.4,2.4,0,0,1,2.449,2.1h-5.073A2.615,2.615,0,0,1,750.073,594.2Zm6.208,6.945h1.376v-3.968c0-1.872,1.1-2.753,2.112-2.753a2.011,2.011,0,0,1,.752.128v-1.424a2.851,2.851,0,0,0-.624-0.064,2.38,2.38,0,0,0-2.24,1.632v-1.552h-1.376v8Zm11.3-2.224c0-1.2-.752-1.968-2.112-2.416l-0.864-.288c-0.944-.3-1.232-0.608-1.232-1.121a1.132,1.132,0,0,1,1.344-.928,2.161,2.161,0,0,1,1.7.832l0.9-.864a3.1,3.1,0,0,0-2.56-1.152c-1.584,0-2.7.88-2.7,2.176a2.415,2.415,0,0,0,1.984,2.321l0.784,0.256c1.04,0.336,1.424.72,1.424,1.28a1.218,1.218,0,0,1-1.408,1.088,2.147,2.147,0,0,1-2.048-1.264l-1.12.608a3.178,3.178,0,0,0,3.136,1.856C766.409,601.306,767.577,600.49,767.577,598.922Zm13.169,2.224h1.216l2.72-8h-1.456l-1.936,5.841-2-5.841h-1.056l-2,5.841-1.936-5.841h-1.441l2.721,8h1.216l1.984-5.76Zm7.487-11.121a0.966,0.966,0,0,0-.961-0.976,0.994,0.994,0,0,0-.992.976,0.983,0.983,0,0,0,.992.976A0.957,0.957,0,0,0,788.233,590.025Zm-1.665,11.121h1.377v-8h-1.377v8Zm8.721-.112V599.8a3.041,3.041,0,0,1-.976.16,1.152,1.152,0,0,1-1.328-1.36v-4.193h2.3v-1.264h-2.3v-2.224h-1.377v2.224h-1.7v1.264h1.7v4.369a2.252,2.252,0,0,0,2.449,2.448A3.828,3.828,0,0,0,795.289,601.034Zm2.159,0.112h1.376v-3.968c0-1.872,1.025-2.929,2.321-2.929a1.921,1.921,0,0,1,1.888,2.177v4.72h1.36v-4.928a2.949,2.949,0,0,0-3.024-3.233,2.831,2.831,0,0,0-2.545,1.392v-5.232h-1.376v12Zm18.193-.112V599.8a3.052,3.052,0,0,1-.977.16,1.152,1.152,0,0,1-1.328-1.36v-4.193h2.3v-1.264h-2.3v-2.224H811.96v2.224h-1.7v1.264h1.7v4.369a2.252,2.252,0,0,0,2.448,2.448A3.84,3.84,0,0,0,815.641,601.034Zm2.159,0.112h1.376v-3.968c0-1.872,1.024-2.929,2.32-2.929a1.921,1.921,0,0,1,1.889,2.177v4.72h1.36v-4.928a2.949,2.949,0,0,0-3.025-3.233,2.829,2.829,0,0,0-2.544,1.392v-5.232H817.8v12Zm9.2-4a4.218,4.218,0,0,0,7.745,2.256l-1.088-.752a2.833,2.833,0,0,1-5.265-1.232h6.561a3.9,3.9,0,0,0,.016-0.416,3.729,3.729,0,0,0-3.809-4.017A4.054,4.054,0,0,0,827,597.146Zm4.112-2.945a2.4,2.4,0,0,1,2.449,2.1h-5.073A2.615,2.615,0,0,1,831.112,594.2Zm10.511,6.945H843v-12h-1.377v12Zm3.76-4a4,4,0,0,0,3.921,4.16,3.508,3.508,0,0,0,2.816-1.392v1.232H853.5v-8H852.12v1.232a3.508,3.508,0,0,0-2.816-1.392A4,4,0,0,0,845.383,597.146Zm6.849,0a2.733,2.733,0,1,1-2.72-2.9A2.731,2.731,0,0,1,852.232,597.146Zm8.592,3.888V599.8a3.041,3.041,0,0,1-.976.16,1.153,1.153,0,0,1-1.329-1.36v-4.193h2.3v-1.264h-2.3v-2.224h-1.376v2.224h-1.7v1.264h1.7v4.369a2.252,2.252,0,0,0,2.449,2.448A3.828,3.828,0,0,0,860.824,601.034Zm1.423-3.888a4.218,4.218,0,0,0,7.745,2.256l-1.088-.752a2.833,2.833,0,0,1-5.265-1.232H870.2a3.9,3.9,0,0,0,.016-0.416,3.728,3.728,0,0,0-3.808-4.017A4.054,4.054,0,0,0,862.247,597.146Zm4.113-2.945a2.394,2.394,0,0,1,2.448,2.1h-5.073A2.616,2.616,0,0,1,866.36,594.2Zm11.392,4.721c0-1.2-.752-1.968-2.112-2.416l-0.864-.288c-0.945-.3-1.233-0.608-1.233-1.121a1.133,1.133,0,0,1,1.345-.928,2.161,2.161,0,0,1,1.7.832l0.9-.864a3.1,3.1,0,0,0-2.56-1.152c-1.585,0-2.7.88-2.7,2.176a2.415,2.415,0,0,0,1.984,2.321l0.785,0.256c1.04,0.336,1.424.72,1.424,1.28A1.218,1.218,0,0,1,875,600.106a2.147,2.147,0,0,1-2.049-1.264l-1.12.608a3.178,3.178,0,0,0,3.137,1.856C876.584,601.306,877.752,600.49,877.752,598.922Zm6.608,2.112V599.8a3.041,3.041,0,0,1-.976.16,1.152,1.152,0,0,1-1.329-1.36v-4.193h2.305v-1.264h-2.305v-2.224h-1.376v2.224h-1.7v1.264h1.7v4.369a2.252,2.252,0,0,0,2.449,2.448A3.828,3.828,0,0,0,884.36,601.034Zm8.127-11.009a0.966,0.966,0,0,0-.96-0.976,0.994,0.994,0,0,0-.992.976,0.983,0.983,0,0,0,.992.976A0.956,0.956,0,0,0,892.487,590.025Zm-1.664,11.121H892.2v-8h-1.376v8Zm4.384,0h1.376v-3.968c0-1.872,1.024-2.929,2.32-2.929a1.921,1.921,0,0,1,1.889,2.177v4.72h1.36v-4.928a2.949,2.949,0,0,0-3.025-3.233,2.829,2.829,0,0,0-2.544,1.392v-1.232h-1.376v8Zm9.824,0h1.376v-3.968c0-1.872,1.024-2.929,2.32-2.929a1.921,1.921,0,0,1,1.888,2.177v4.72h1.361v-4.928a2.949,2.949,0,0,0-3.025-3.233,2.829,2.829,0,0,0-2.544,1.392v-1.232h-1.376v8Zm17.553-4a4.185,4.185,0,1,0-4.177,4.16A4.107,4.107,0,0,0,922.584,597.146Zm-6.961,0a2.778,2.778,0,1,1,2.784,2.88A2.751,2.751,0,0,1,915.623,597.146Zm11.648,4h1.152l3.7-8h-1.537l-2.736,6.049-2.736-6.049h-1.537Zm5.855-4a4,4,0,0,0,3.921,4.16,3.508,3.508,0,0,0,2.816-1.392v1.232h1.377v-8h-1.377v1.232a3.508,3.508,0,0,0-2.816-1.392A4,4,0,0,0,933.126,597.146Zm6.849,0a2.733,2.733,0,1,1-2.72-2.9A2.731,2.731,0,0,1,939.975,597.146Zm8.592,3.888V599.8a3.041,3.041,0,0,1-.976.16,1.152,1.152,0,0,1-1.328-1.36v-4.193h2.3v-1.264h-2.3v-2.224h-1.377v2.224h-1.7v1.264h1.7v4.369a2.253,2.253,0,0,0,2.449,2.448A3.828,3.828,0,0,0,948.567,601.034Zm3.824-11.009a0.967,0.967,0,0,0-.961-0.976,0.994,0.994,0,0,0-.992.976,0.983,0.983,0,0,0,.992.976A0.957,0.957,0,0,0,952.391,590.025Zm-1.665,11.121H952.1v-8h-1.376v8Zm12.113-4a4.185,4.185,0,1,0-4.176,4.16A4.106,4.106,0,0,0,962.839,597.146Zm-6.961,0a2.778,2.778,0,1,1,2.785,2.88A2.751,2.751,0,0,1,955.878,597.146Zm9.328,4h1.376v-3.968c0-1.872,1.024-2.929,2.32-2.929a1.921,1.921,0,0,1,1.889,2.177v4.72h1.36v-4.928a2.949,2.949,0,0,0-3.024-3.233,2.829,2.829,0,0,0-2.545,1.392v-1.232h-1.376v8Zm11.728-1.072a1.184,1.184,0,1,0-1.184,1.2A1.205,1.205,0,0,0,976.934,600.074ZM41.891,625.146h4.065c2.3,0,3.809-1.424,3.809-3.312a2.709,2.709,0,0,0-1.968-2.721,2.575,2.575,0,0,0,1.216-2.32,3.111,3.111,0,0,0-3.392-3.008H41.891v11.361Zm1.488-6.481v-3.536h2.24a1.786,1.786,0,0,1,1.936,1.776,1.749,1.749,0,0,1-1.936,1.76h-2.24Zm0,5.137v-3.856h2.656c1.5,0,2.272.832,2.272,1.936,0,1.12-.768,1.92-2.288,1.92h-2.64Zm8.144-2.656a4,4,0,0,0,3.921,4.16,3.509,3.509,0,0,0,2.816-1.392v1.232h1.376v-8H58.26v1.232a3.509,3.509,0,0,0-2.816-1.392A4,4,0,0,0,51.523,621.146Zm6.849,0a2.733,2.733,0,1,1-2.72-2.9A2.732,2.732,0,0,1,58.372,621.146Zm4.255,4H64v-3.968c0-1.873,1.024-2.929,2.32-2.929a1.921,1.921,0,0,1,1.888,2.177v4.72h1.36v-4.928a2.949,2.949,0,0,0-3.024-3.233A2.83,2.83,0,0,0,64,618.377v-1.232H62.626v8Zm9.2-4a4,4,0,0,0,3.921,4.16,3.509,3.509,0,0,0,2.816-1.392v1.232h1.376v-8H78.563v1.232a3.509,3.509,0,0,0-2.816-1.392A4,4,0,0,0,71.826,621.146Zm6.849,0a2.733,2.733,0,1,1-2.72-2.9A2.732,2.732,0,0,1,78.675,621.146Zm4.255,4h1.376v-3.968c0-1.873,1.024-2.929,2.32-2.929a1.921,1.921,0,0,1,1.888,2.177v4.72h1.36v-4.928a2.949,2.949,0,0,0-3.024-3.233,2.829,2.829,0,0,0-2.544,1.392v-1.232H82.93v8Zm9.2-4a4,4,0,0,0,3.92,4.16,3.509,3.509,0,0,0,2.816-1.392v1.232h1.376v-8H98.867v1.232a3.509,3.509,0,0,0-2.816-1.392A4,4,0,0,0,92.13,621.146Zm6.849,0a2.733,2.733,0,1,1-2.72-2.9A2.732,2.732,0,0,1,98.979,621.146Zm8.767,4h1.488v-5.168h1.1l4.369,5.168h1.872l-4.369-5.184a2.965,2.965,0,0,0,2.8-3.041,3.065,3.065,0,0,0-3.393-3.136h-3.872v11.361Zm1.488-6.5v-3.488h2.208c1.3,0,2.08.608,2.08,1.76,0,1.136-.784,1.728-2.08,1.728h-2.208Zm8,2.5a4.219,4.219,0,0,0,7.746,2.256l-1.089-.752a2.832,2.832,0,0,1-5.264-1.232h6.561A3.9,3.9,0,0,0,125.2,621a3.729,3.729,0,0,0-3.809-4.017A4.055,4.055,0,0,0,117.233,621.146Zm4.113-2.945a2.394,2.394,0,0,1,2.448,2.1h-5.072A2.615,2.615,0,0,1,121.346,618.2Zm6.207,10.29h1.377v-4.577a3.508,3.508,0,0,0,2.816,1.392,4.168,4.168,0,0,0,0-8.321,3.508,3.508,0,0,0-2.816,1.392v-1.232h-1.377v11.346Zm6.705-7.345a2.725,2.725,0,1,1-2.72-2.9A2.731,2.731,0,0,1,134.258,621.146Zm3.679,0.912a2.921,2.921,0,0,0,2.945,3.248,2.752,2.752,0,0,0,2.464-1.392v1.232h1.376v-8h-1.376v3.969c0,1.84-.976,2.928-2.224,2.928-1.1,0-1.808-.848-1.808-2.192v-4.705h-1.377v4.913Zm11.152,1.856a3.512,3.512,0,0,0,2.817,1.392,4.168,4.168,0,0,0,0-8.321,3.512,3.512,0,0,0-2.817,1.392v-5.232h-1.376v12h1.376v-1.232Zm5.329-2.768a2.726,2.726,0,1,1-2.72-2.9A2.731,2.731,0,0,1,154.418,621.146Zm3.775,4h1.376v-12h-1.376v12Zm6.048-11.121a0.966,0.966,0,0,0-.96-0.976,0.994,0.994,0,0,0-.992.976,0.983,0.983,0,0,0,.992.976A0.956,0.956,0,0,0,164.241,614.025Zm-1.664,11.121h1.376v-8h-1.376v8Zm11.649-1.984-1.2-.672a2.712,2.712,0,0,1-2.5,1.536,2.882,2.882,0,0,1,0-5.761,2.711,2.711,0,0,1,2.5,1.537l1.2-.673a4.143,4.143,0,0,0-3.7-2.144,4.161,4.161,0,1,0,0,8.321A4.143,4.143,0,0,0,174.226,623.162Zm8.143-9.137a0.966,0.966,0,0,0-.96-0.976,0.994,0.994,0,0,0-.993.976,0.984,0.984,0,0,0,.993.976A0.956,0.956,0,0,0,182.369,614.025ZM180.7,625.146h1.377v-8H180.7v8Zm9.569-2.224c0-1.2-.752-1.968-2.112-2.416l-0.864-.288c-0.945-.3-1.233-0.608-1.233-1.121a1.133,1.133,0,0,1,1.345-.928,2.161,2.161,0,0,1,1.7.832l0.9-.864a3.1,3.1,0,0,0-2.56-1.152c-1.585,0-2.705.88-2.705,2.176a2.414,2.414,0,0,0,1.985,2.321l0.784,0.256c1.04,0.336,1.424.72,1.424,1.28a1.218,1.218,0,0,1-1.408,1.088,2.148,2.148,0,0,1-2.049-1.264l-1.12.608a3.178,3.178,0,0,0,3.137,1.856C189.105,625.306,190.273,624.49,190.273,622.922Zm6.047-1.776a4,4,0,0,0,3.92,4.16,3.509,3.509,0,0,0,2.817-1.392v1.232h1.376v-12h-1.376v5.232a3.509,3.509,0,0,0-2.817-1.392A4,4,0,0,0,196.32,621.146Zm6.849,0a2.733,2.733,0,1,1-2.721-2.9A2.732,2.732,0,0,1,203.169,621.146Zm3.631,0a4.218,4.218,0,0,0,7.745,2.256l-1.088-.752a2.833,2.833,0,0,1-5.265-1.232h6.561a3.9,3.9,0,0,0,.016-0.416,3.728,3.728,0,0,0-3.809-4.017A4.054,4.054,0,0,0,206.8,621.146Zm4.112-2.945a2.4,2.4,0,0,1,2.449,2.1h-5.073A2.615,2.615,0,0,1,210.912,618.2Zm11.392,4.721c0-1.2-.752-1.968-2.112-2.416l-0.864-.288c-0.944-.3-1.232-0.608-1.232-1.121a1.132,1.132,0,0,1,1.344-.928,2.161,2.161,0,0,1,1.7.832l0.9-.864a3.1,3.1,0,0,0-2.56-1.152c-1.584,0-2.7.88-2.7,2.176a2.415,2.415,0,0,0,1.984,2.321l0.784,0.256c1.04,0.336,1.424.72,1.424,1.28a1.218,1.218,0,0,1-1.408,1.088,2.147,2.147,0,0,1-2.048-1.264l-1.12.608a3.178,3.178,0,0,0,3.136,1.856C221.136,625.306,222.3,624.49,222.3,622.922Zm4.032-8.9a0.966,0.966,0,0,0-.96-0.976,0.994,0.994,0,0,0-.992.976,0.983,0.983,0,0,0,.992.976A0.956,0.956,0,0,0,226.336,614.025Zm-1.664,11.121h1.376v-8h-1.376v8Zm11.841-.464v-7.537h-1.377v1.232a3.4,3.4,0,0,0-2.784-1.392,4.076,4.076,0,0,0,0,8.145,3.416,3.416,0,0,0,2.784-1.408v0.912a2.558,2.558,0,0,1-2.672,2.769,3.42,3.42,0,0,1-2.8-1.345l-0.961.961a4.752,4.752,0,0,0,3.777,1.632A3.7,3.7,0,0,0,236.513,624.682Zm-6.673-3.632a2.706,2.706,0,1,1,2.7,2.8A2.667,2.667,0,0,1,229.84,621.05Zm9.663,4.1h1.376v-3.968c0-1.873,1.025-2.929,2.321-2.929a1.921,1.921,0,0,1,1.888,2.177v4.72h1.36v-4.928a2.949,2.949,0,0,0-3.024-3.233,2.832,2.832,0,0,0-2.545,1.392v-1.232H239.5v8Zm9.2-4a4.218,4.218,0,0,0,7.745,2.256l-1.088-.752a2.833,2.833,0,0,1-5.265-1.232h6.561a3.9,3.9,0,0,0,.016-0.416,3.728,3.728,0,0,0-3.808-4.017A4.054,4.054,0,0,0,248.7,621.146Zm4.113-2.945a2.394,2.394,0,0,1,2.448,2.1h-5.073A2.616,2.616,0,0,1,252.816,618.2Zm5.583,2.945a4,4,0,0,0,3.92,4.16,3.509,3.509,0,0,0,2.817-1.392v1.232h1.376v-12h-1.376v5.232a3.509,3.509,0,0,0-2.817-1.392A4,4,0,0,0,258.4,621.146Zm6.849,0a2.733,2.733,0,1,1-2.72-2.9A2.731,2.731,0,0,1,265.248,621.146Zm10.223-7.121a0.966,0.966,0,0,0-.96-0.976,0.994,0.994,0,0,0-.992.976,0.983,0.983,0,0,0,.992.976A0.956,0.956,0,0,0,275.471,614.025Zm-1.664,11.121h1.376v-8h-1.376v8Zm4.384,0h1.376v-3.968c0-1.873,1.024-2.929,2.32-2.929a1.921,1.921,0,0,1,1.888,2.177v4.72h1.361v-4.928a2.949,2.949,0,0,0-3.025-3.233,2.829,2.829,0,0,0-2.544,1.392v-1.232h-1.376v8Zm13.551-5.68a5.905,5.905,0,0,0,10.9,3.12l-1.249-.752a4.465,4.465,0,1,1,0-4.737l1.249-.752A5.905,5.905,0,0,0,291.742,619.466Zm12.432,1.68a4,4,0,0,0,3.92,4.16,3.509,3.509,0,0,0,2.817-1.392v1.232h1.376v-8h-1.376v1.232a3.509,3.509,0,0,0-2.817-1.392A4,4,0,0,0,304.174,621.146Zm6.849,0a2.733,2.733,0,1,1-2.72-2.9A2.731,2.731,0,0,1,311.023,621.146Zm4.255,4h1.376v-12h-1.376v12Zm6.048-11.121a0.966,0.966,0,0,0-.96-0.976,0.994,0.994,0,0,0-.992.976,0.983,0.983,0,0,0,.992.976A0.956,0.956,0,0,0,321.326,614.025Zm-1.664,11.121h1.376v-8h-1.376v8Zm5.056,0h1.376v-6.737h2.32v-1.264h-2.32v-1.472a1.152,1.152,0,0,1,1.328-1.36,3.222,3.222,0,0,1,.992.16v-1.216a3.636,3.636,0,0,0-1.248-.208,2.285,2.285,0,0,0-2.448,2.48v1.616h-1.7v1.264h1.7v6.737Zm13.121-4a4.185,4.185,0,1,0-4.177,4.16A4.106,4.106,0,0,0,337.839,621.146Zm-6.961,0a2.778,2.778,0,1,1,2.784,2.88A2.751,2.751,0,0,1,330.878,621.146Zm9.327,4h1.377v-3.968c0-1.873,1.1-2.753,2.112-2.753a2.011,2.011,0,0,1,.752.128v-1.424a2.851,2.851,0,0,0-.624-0.064,2.38,2.38,0,0,0-2.24,1.632v-1.552h-1.377v8Zm6.256,0h1.377v-3.968c0-1.873,1.024-2.929,2.32-2.929a1.921,1.921,0,0,1,1.888,2.177v4.72h1.36v-4.928a2.949,2.949,0,0,0-3.024-3.233,2.829,2.829,0,0,0-2.544,1.392v-1.232h-1.377v8Zm11.488-11.121a0.966,0.966,0,0,0-.96-0.976,0.994,0.994,0,0,0-.992.976,0.983,0.983,0,0,0,.992.976A0.956,0.956,0,0,0,357.949,614.025Zm-1.664,11.121h1.376v-8h-1.376v8Zm3.76-4a4,4,0,0,0,3.921,4.16,3.508,3.508,0,0,0,2.816-1.392v1.232h1.376v-8h-1.376v1.232a3.508,3.508,0,0,0-2.816-1.392A4,4,0,0,0,360.045,621.146Zm6.849,0a2.733,2.733,0,1,1-2.72-2.9A2.731,2.731,0,0,1,366.894,621.146Zm8.447,0.912c0,1.984,1.184,3.248,2.944,3.248a2.755,2.755,0,0,0,2.465-1.392v1.232h1.376v-8H380.75v3.969c0,1.84-.977,2.928-2.225,2.928-1.1,0-1.808-.848-1.808-2.192v-4.705h-1.376v4.913Zm14.96,0.864c0-1.2-.752-1.968-2.112-2.416l-0.864-.288c-0.944-.3-1.232-0.608-1.232-1.121a1.132,1.132,0,0,1,1.344-.928,2.161,2.161,0,0,1,1.7.832l0.9-.864a3.1,3.1,0,0,0-2.56-1.152c-1.584,0-2.7.88-2.7,2.176a2.415,2.415,0,0,0,1.984,2.321l0.784,0.256c1.04,0.336,1.424.72,1.424,1.28a1.218,1.218,0,0,1-1.408,1.088,2.147,2.147,0,0,1-2.048-1.264l-1.12.608a3.178,3.178,0,0,0,3.136,1.856C389.133,625.306,390.3,624.49,390.3,622.922Zm4.032-8.9a0.966,0.966,0,0,0-.96-0.976,1,1,0,0,0-.993.976,0.984,0.984,0,0,0,.993.976A0.956,0.956,0,0,0,394.333,614.025Zm-1.664,11.121h1.376v-8h-1.376v8Zm4.383,0h1.377v-3.968c0-1.873,1.024-2.929,2.32-2.929a1.921,1.921,0,0,1,1.888,2.177v4.72H404v-4.928a2.949,2.949,0,0,0-3.024-3.233,2.829,2.829,0,0,0-2.544,1.392v-1.232h-1.377v8Zm17.281-.464v-7.537h-1.376v1.232a3.4,3.4,0,0,0-2.784-1.392,4.076,4.076,0,0,0,0,8.145,3.416,3.416,0,0,0,2.784-1.408v0.912a2.558,2.558,0,0,1-2.672,2.769,3.422,3.422,0,0,1-2.8-1.345l-0.96.961a4.75,4.75,0,0,0,3.777,1.632A3.7,3.7,0,0,0,414.333,624.682Zm-6.673-3.632a2.706,2.706,0,1,1,2.7,2.8A2.667,2.667,0,0,1,407.66,621.05Zm13.968,7.441H423v-4.577a3.509,3.509,0,0,0,2.817,1.392,4.168,4.168,0,0,0,0-8.321A3.509,3.509,0,0,0,423,618.377v-1.232h-1.376v11.346Zm6.705-7.345a2.726,2.726,0,1,1-2.721-2.9A2.732,2.732,0,0,1,428.333,621.146Zm3.791,4H433.5v-3.968c0-1.873,1.1-2.753,2.112-2.753a2.011,2.011,0,0,1,.752.128v-1.424a2.851,2.851,0,0,0-.624-0.064,2.38,2.38,0,0,0-2.24,1.632v-1.552h-1.376v8Zm5.344-4a4.218,4.218,0,0,0,7.745,2.256l-1.088-.752a2.833,2.833,0,0,1-5.265-1.232h6.561a3.9,3.9,0,0,0,.016-0.416,3.728,3.728,0,0,0-3.809-4.017A4.054,4.054,0,0,0,437.468,621.146Zm4.112-2.945a2.394,2.394,0,0,1,2.449,2.1h-5.073A2.615,2.615,0,0,1,441.58,618.2Zm6.208,6.945h1.376v-3.968c0-1.808.912-2.929,2.208-2.929,1.041,0,1.569.9,1.569,2.193v4.7h1.376v-3.968c0-1.808.9-2.929,2.192-2.929,1.04,0,1.584.9,1.584,2.193v4.7h1.377v-4.912c0-1.953-1.057-3.249-2.8-3.249a2.769,2.769,0,0,0-2.624,1.712,2.515,2.515,0,0,0-2.465-1.712,2.689,2.689,0,0,0-2.416,1.392v-1.232h-1.376v8Zm16.224-11.121a0.966,0.966,0,0,0-.96-0.976,0.994,0.994,0,0,0-.992.976,0.983,0.983,0,0,0,.992.976A0.956,0.956,0,0,0,464.012,614.025Zm-1.664,11.121h1.376v-8h-1.376v8Zm4.272-3.088c0,1.984,1.184,3.248,2.944,3.248a2.752,2.752,0,0,0,2.464-1.392v1.232h1.377v-8h-1.377v3.969c0,1.84-.976,2.928-2.224,2.928-1.1,0-1.808-.848-1.808-2.192v-4.705H466.62v4.913Zm9.776,3.088h1.376v-3.968c0-1.808.912-2.929,2.208-2.929,1.04,0,1.568.9,1.568,2.193v4.7h1.376v-3.968c0-1.808.9-2.929,2.193-2.929,1.04,0,1.584.9,1.584,2.193v4.7h1.376v-4.912c0-1.953-1.056-3.249-2.8-3.249a2.771,2.771,0,0,0-2.625,1.712,2.515,2.515,0,0,0-2.464-1.712,2.689,2.689,0,0,0-2.416,1.392v-1.232H476.4v8Zm18.863,0h1.376v-3.968c0-1.808.913-2.929,2.209-2.929,1.04,0,1.568.9,1.568,2.193v4.7h1.376v-3.968c0-1.808.9-2.929,2.193-2.929,1.04,0,1.584.9,1.584,2.193v4.7h1.376v-4.912c0-1.953-1.056-3.249-2.8-3.249a2.769,2.769,0,0,0-2.625,1.712,2.515,2.515,0,0,0-2.464-1.712,2.692,2.692,0,0,0-2.417,1.392v-1.232h-1.376v8Zm13.936-4a4,4,0,0,0,3.921,4.16,3.508,3.508,0,0,0,2.816-1.392v1.232h1.376v-8h-1.376v1.232a3.508,3.508,0,0,0-2.816-1.392A4,4,0,0,0,509.2,621.146Zm6.849,0a2.733,2.733,0,1,1-2.72-2.9A2.731,2.731,0,0,1,516.044,621.146Zm8.592,3.888V623.8a3.041,3.041,0,0,1-.976.16,1.152,1.152,0,0,1-1.329-1.36v-4.193h2.3v-1.264h-2.3v-2.224h-1.376v2.224h-1.7v1.264h1.7v4.369a2.252,2.252,0,0,0,2.449,2.448A3.828,3.828,0,0,0,524.636,625.034Zm1.423-3.888A4.218,4.218,0,0,0,533.8,623.4l-1.088-.752a2.833,2.833,0,0,1-5.265-1.232h6.561a3.9,3.9,0,0,0,.016-0.416,3.728,3.728,0,0,0-3.808-4.017A4.054,4.054,0,0,0,526.059,621.146Zm4.113-2.945a2.394,2.394,0,0,1,2.448,2.1h-5.073A2.616,2.616,0,0,1,530.172,618.2Zm6.207,6.945h1.376v-3.968c0-1.873,1.1-2.753,2.113-2.753a2.011,2.011,0,0,1,.752.128v-1.424a2.851,2.851,0,0,0-.624-0.064,2.38,2.38,0,0,0-2.241,1.632v-1.552h-1.376v8Zm7.92-11.121a0.966,0.966,0,0,0-.96-0.976,0.994,0.994,0,0,0-.992.976,0.983,0.983,0,0,0,.992.976A0.956,0.956,0,0,0,544.3,614.025Zm-1.664,11.121h1.376v-8h-1.376v8Zm3.76-4a4,4,0,0,0,3.92,4.16,3.509,3.509,0,0,0,2.817-1.392v1.232h1.376v-8h-1.376v1.232a3.509,3.509,0,0,0-2.817-1.392A4,4,0,0,0,546.4,621.146Zm6.849,0a2.733,2.733,0,1,1-2.721-2.9A2.732,2.732,0,0,1,553.244,621.146Zm4.255,4h1.376v-12H557.5v12Zm9.568-2.224c0-1.2-.752-1.968-2.112-2.416l-0.864-.288c-0.944-.3-1.232-0.608-1.232-1.121a1.132,1.132,0,0,1,1.344-.928,2.161,2.161,0,0,1,1.7.832l0.9-.864a3.1,3.1,0,0,0-2.56-1.152c-1.584,0-2.7.88-2.7,2.176a2.415,2.415,0,0,0,1.984,2.321l0.784,0.256c1.04,0.336,1.424.72,1.424,1.28a1.218,1.218,0,0,1-1.408,1.088,2.147,2.147,0,0,1-2.048-1.264l-1.12.608a3.178,3.178,0,0,0,3.136,1.856C565.9,625.306,567.067,624.49,567.067,622.922Zm11.856,0c0-1.2-.752-1.968-2.112-2.416l-0.864-.288c-0.944-.3-1.232-0.608-1.232-1.121a1.132,1.132,0,0,1,1.344-.928,2.161,2.161,0,0,1,1.7.832l0.9-.864a3.1,3.1,0,0,0-2.56-1.152c-1.584,0-2.705.88-2.705,2.176a2.414,2.414,0,0,0,1.985,2.321l0.784,0.256c1.04,0.336,1.424.72,1.424,1.28a1.218,1.218,0,0,1-1.408,1.088,2.149,2.149,0,0,1-2.049-1.264l-1.12.608a3.179,3.179,0,0,0,3.137,1.856C577.755,625.306,578.923,624.49,578.923,622.922Zm10.1-1.776a4.185,4.185,0,1,0-4.176,4.16A4.106,4.106,0,0,0,589.019,621.146Zm-6.961,0a2.778,2.778,0,1,1,2.785,2.88A2.751,2.751,0,0,1,582.058,621.146Zm9.216,0.912c0,1.984,1.184,3.248,2.944,3.248a2.753,2.753,0,0,0,2.465-1.392v1.232h1.376v-8h-1.376v3.969c0,1.84-.976,2.928-2.224,2.928-1.1,0-1.809-.848-1.809-2.192v-4.705h-1.376v4.913Zm9.776,3.088h1.376v-3.968c0-1.873,1.1-2.753,2.113-2.753a2.011,2.011,0,0,1,.752.128v-1.424a2.851,2.851,0,0,0-.624-0.064,2.38,2.38,0,0,0-2.241,1.632v-1.552H601.05v8Zm13.233-1.984-1.2-.672a2.712,2.712,0,0,1-2.5,1.536,2.882,2.882,0,0,1,0-5.761,2.711,2.711,0,0,1,2.5,1.537l1.2-.673a4.143,4.143,0,0,0-3.7-2.144,4.161,4.161,0,1,0,0,8.321A4.143,4.143,0,0,0,614.283,623.162Zm1.551-2.016a4.218,4.218,0,0,0,7.745,2.256l-1.088-.752a2.833,2.833,0,0,1-5.265-1.232h6.561A3.9,3.9,0,0,0,623.8,621a3.728,3.728,0,0,0-3.809-4.017A4.054,4.054,0,0,0,615.834,621.146Zm4.112-2.945a2.394,2.394,0,0,1,2.449,2.1h-5.073A2.615,2.615,0,0,1,619.946,618.2Zm5.584,2.945a4,4,0,0,0,3.92,4.16,3.51,3.51,0,0,0,2.817-1.392v1.232h1.376v-12h-1.376v5.232a3.51,3.51,0,0,0-2.817-1.392A4,4,0,0,0,625.53,621.146Zm6.849,0a2.733,2.733,0,1,1-2.721-2.9A2.732,2.732,0,0,1,632.379,621.146Zm9.023,4h1.376v-6.737h2.32v-1.264h-2.32v-1.472a1.152,1.152,0,0,1,1.328-1.36,3.222,3.222,0,0,1,.992.16v-1.216a3.636,3.636,0,0,0-1.248-.208,2.285,2.285,0,0,0-2.448,2.48v1.616h-1.7v1.264h1.7v6.737Zm5.6,0h1.376v-3.968c0-1.873,1.1-2.753,2.112-2.753a2.011,2.011,0,0,1,.752.128v-1.424a2.851,2.851,0,0,0-.624-0.064,2.38,2.38,0,0,0-2.24,1.632v-1.552H647v8Zm13.7-4a4.185,4.185,0,1,0-4.177,4.16A4.107,4.107,0,0,0,660.7,621.146Zm-6.961,0a2.778,2.778,0,1,1,2.784,2.88A2.751,2.751,0,0,1,653.738,621.146Zm9.327,4h1.377v-3.968c0-1.808.912-2.929,2.208-2.929,1.04,0,1.568.9,1.568,2.193v4.7h1.376v-3.968c0-1.808.9-2.929,2.193-2.929,1.04,0,1.584.9,1.584,2.193v4.7h1.376v-4.912c0-1.953-1.056-3.249-2.8-3.249a2.77,2.77,0,0,0-2.625,1.712,2.515,2.515,0,0,0-2.464-1.712,2.689,2.689,0,0,0-2.416,1.392v-1.232h-1.377v8Zm18.24-4a4,4,0,0,0,3.921,4.16,3.508,3.508,0,0,0,2.816-1.392v1.232h1.376v-8h-1.376v1.232a3.508,3.508,0,0,0-2.816-1.392A4,4,0,0,0,681.305,621.146Zm6.849,0a2.733,2.733,0,1,1-2.72-2.9A2.731,2.731,0,0,1,688.154,621.146Zm4.255,4h1.376v-3.968c0-1.873,1.1-2.753,2.113-2.753a2.011,2.011,0,0,1,.752.128v-1.424a2.851,2.851,0,0,0-.624-0.064,2.38,2.38,0,0,0-2.241,1.632v-1.552h-1.376v8Zm13.7-4a4.185,4.185,0,1,0-4.176,4.16A4.106,4.106,0,0,0,706.106,621.146Zm-6.961,0a2.778,2.778,0,1,1,2.785,2.88A2.751,2.751,0,0,1,699.145,621.146Zm9.216,0.912c0,1.984,1.184,3.248,2.944,3.248a2.753,2.753,0,0,0,2.465-1.392v1.232h1.376v-8H713.77v3.969c0,1.84-.976,2.928-2.225,2.928-1.1,0-1.808-.848-1.808-2.192v-4.705h-1.376v4.913Zm9.776,3.088h1.376v-3.968c0-1.873,1.024-2.929,2.32-2.929a1.921,1.921,0,0,1,1.889,2.177v4.72h1.36v-4.928a2.949,2.949,0,0,0-3.025-3.233,2.829,2.829,0,0,0-2.544,1.392v-1.232h-1.376v8Zm9.2-4a4,4,0,0,0,3.92,4.16,3.51,3.51,0,0,0,2.817-1.392v1.232h1.376v-12h-1.376v5.232a3.51,3.51,0,0,0-2.817-1.392A4,4,0,0,0,727.337,621.146Zm6.849,0a2.733,2.733,0,1,1-2.721-2.9A2.732,2.732,0,0,1,734.186,621.146Zm12.623,3.888V623.8a3.041,3.041,0,0,1-.976.16,1.152,1.152,0,0,1-1.328-1.36v-4.193h2.3v-1.264h-2.3v-2.224h-1.377v2.224h-1.7v1.264h1.7v4.369a2.253,2.253,0,0,0,2.449,2.448A3.828,3.828,0,0,0,746.809,625.034Zm2.159,0.112h1.377v-3.968c0-1.873,1.024-2.929,2.32-2.929a1.921,1.921,0,0,1,1.888,2.177v4.72h1.36v-4.928a2.949,2.949,0,0,0-3.024-3.233,2.829,2.829,0,0,0-2.544,1.392v-5.232h-1.377v12Zm9.2-4a4.218,4.218,0,0,0,7.745,2.256l-1.088-.752a2.833,2.833,0,0,1-5.265-1.232h6.561a3.9,3.9,0,0,0,.016-0.416,3.728,3.728,0,0,0-3.808-4.017A4.054,4.054,0,0,0,758.168,621.146Zm4.113-2.945a2.394,2.394,0,0,1,2.448,2.1h-5.073A2.616,2.616,0,0,1,762.281,618.2Zm17.008,6.945h1.216l2.721-8h-1.457l-1.936,5.841-2-5.841h-1.056l-2,5.841-1.936-5.841H771.4l2.72,8h1.217l1.984-5.76Zm13.52-4a4.185,4.185,0,1,0-4.177,4.16A4.106,4.106,0,0,0,792.809,621.146Zm-6.961,0a2.778,2.778,0,1,1,2.784,2.88A2.751,2.751,0,0,1,785.848,621.146Zm9.328,4h1.376v-3.968c0-1.873,1.1-2.753,2.112-2.753a2.011,2.011,0,0,1,.752.128v-1.424a2.851,2.851,0,0,0-.624-0.064,2.38,2.38,0,0,0-2.24,1.632v-1.552h-1.376v8Zm6.256,0h1.376v-12h-1.376v12Zm3.759-4a4,4,0,0,0,3.921,4.16,3.508,3.508,0,0,0,2.816-1.392v1.232h1.377v-12h-1.377v5.232a3.508,3.508,0,0,0-2.816-1.392A4,4,0,0,0,805.191,621.146Zm6.849,0a2.733,2.733,0,1,1-2.72-2.9A2.731,2.731,0,0,1,812.04,621.146Zm6.16,2.928a1.185,1.185,0,1,0-1.185,1.2A1.206,1.206,0,0,0,818.2,624.074Z"/>
  <path id="Our_fabrics_are_the_treasures" data-name="Our fabrics are the treasures" class="cls-1" d="M51.843,560.831a12.1,12.1,0,1,0-12.1-12.1A12.129,12.129,0,0,0,51.843,560.831Zm0-5.077a7.026,7.026,0,1,1,6.792-7.023A6.945,6.945,0,0,1,51.843,555.754Zm27.094,5.077c5.6,0,9.627-3.824,9.627-9.66V537.027H83.321v14.21a4.387,4.387,0,1,1-8.77,0v-14.21H69.309v14.144C69.309,557.007,73.3,560.831,78.936,560.831Zm16.31-.395h5.243v-9.66h0.857l7.781,9.66h6.3l-8.275-10.32c2.967-1.055,4.582-3,4.582-6.033a6.911,6.911,0,0,0-7.253-7.056H95.246v23.409Zm5.243-14.111v-4.484h3.363c1.549,0,2.67.824,2.67,2.242,0,1.351-1.121,2.242-2.67,2.242h-3.363Zm27.163,14.111h5.242V551.27h7.154v-5.011h-7.154v-4.22h9.166v-5.012H127.652v23.409Zm15.479,0H148.6l2.077-4.946h9.693l2.077,4.946h5.473L157.9,537.027h-4.748Zm9.462-9.5,2.935-7.055,2.934,7.055h-5.869Zm19.774,9.5h10.286a6.921,6.921,0,0,0,7.122-6.891,6.117,6.117,0,0,0-3.33-5.539,5.509,5.509,0,0,0,1.681-4.022,6.958,6.958,0,0,0-6.956-6.957h-8.8v23.409Zm5.242-13.946v-4.682h2.967a2.379,2.379,0,0,1,2.44,2.374,2.347,2.347,0,0,1-2.44,2.308h-2.967Zm0,9.132V550.94h4.583a2.383,2.383,0,0,1,2.473,2.341,2.353,2.353,0,0,1-2.44,2.341h-4.616Zm17.693,4.814h5.242v-9.66H201.4l7.781,9.66h6.3l-8.275-10.32c2.967-1.055,4.582-3,4.582-6.033a6.911,6.911,0,0,0-7.253-7.056H195.3v23.409Zm5.242-14.111v-4.484h3.363c1.549,0,2.67.824,2.67,2.242,0,1.351-1.121,2.242-2.67,2.242h-3.363Zm18.583,14.111h5.242V537.027h-5.242v23.409Zm22.958,0.395a12.1,12.1,0,0,0,10.946-6.4l-4.616-2.5a7.023,7.023,0,1,1,0-6.4l4.616-2.5A12.2,12.2,0,1,0,242.085,560.831Zm23,0c4.946,0,8.342-2.967,8.375-7.22,0.033-3.528-2.176-5.77-5.572-6.99l-1.649-.593c-2.473-.89-3.627-1.451-3.627-2.7,0-1.219,1.418-1.78,2.836-1.78a5.2,5.2,0,0,1,4.055,1.945l3.429-3.626a9.767,9.767,0,0,0-7.55-3.231c-4.682,0-8.078,2.67-8.078,7.22,0,3.2,2.11,5.473,5.9,6.759l1.648,0.56c2.341,0.792,3.264,1.616,3.264,2.8,0,1.121-1.088,1.945-2.835,1.945a6.125,6.125,0,0,1-4.847-2.671l-4.022,3.4A10.264,10.264,0,0,0,265.089,560.831Zm19.742-.395H290.3l2.077-4.946h9.693l2.077,4.946h5.473L299.6,537.027h-4.748Zm9.462-9.5,2.935-7.055,2.934,7.055h-5.869Zm19.774,9.5h5.242v-9.66h0.857l7.781,9.66h6.3l-8.275-10.32c2.967-1.055,4.583-3,4.583-6.033a6.912,6.912,0,0,0-7.254-7.056h-9.231v23.409Zm5.242-14.111v-4.484h3.363c1.549,0,2.67.824,2.67,2.242,0,1.351-1.121,2.242-2.67,2.242h-3.363Zm18.583,14.111h14.837v-5.012h-9.595v-4.187h7.617v-5.011h-7.617v-4.187h9.595v-5.012H337.892v23.409Zm33.326,0h5.275v-18.4h6.034v-5.012H365.251v5.012h5.967v18.4Zm16.5,0h5.242v-9.265h9.429v9.265h5.243V537.027h-5.243v9.166h-9.429v-9.166h-5.242v23.409Zm26.862,0H429.42v-5.012h-9.594v-4.187h7.616v-5.011h-7.616v-4.187h9.594v-5.012H414.584v23.409Zm33.326,0h5.275v-18.4h6.033v-5.012H441.942v5.012h5.968v18.4Zm16.5,0h5.242v-9.66h0.858l7.781,9.66h6.3l-8.276-10.32c2.968-1.055,4.583-3,4.583-6.033a6.911,6.911,0,0,0-7.253-7.056h-9.232v23.409Zm5.242-14.111v-4.484h3.363c1.55,0,2.671.824,2.671,2.242,0,1.351-1.121,2.242-2.671,2.242h-3.363Zm18.584,14.111h14.836v-5.012h-9.594v-4.187H501.1v-5.011h-7.616v-4.187h9.594v-5.012H488.239v23.409Zm18.317,0h5.473l2.077-4.946H523.8l2.077,4.946h5.473l-10.023-23.409h-4.747Zm9.462-9.5,2.935-7.055,2.934,7.055h-5.869Zm26.136,9.891c4.946,0,8.342-2.967,8.375-7.22,0.033-3.528-2.176-5.77-5.572-6.99l-1.649-.593c-2.472-.89-3.626-1.451-3.626-2.7,0-1.219,1.417-1.78,2.835-1.78a5.2,5.2,0,0,1,4.055,1.945L550,539.863a9.767,9.767,0,0,0-7.55-3.231c-4.682,0-8.078,2.67-8.078,7.22,0,3.2,2.11,5.473,5.9,6.759l1.649,0.56c2.34,0.792,3.264,1.616,3.264,2.8,0,1.121-1.088,1.945-2.836,1.945a6.123,6.123,0,0,1-4.846-2.671l-4.023,3.4A10.265,10.265,0,0,0,542.154,560.831Zm23.362,0c5.605,0,9.627-3.824,9.627-9.66V537.027H569.9v14.21a4.387,4.387,0,1,1-8.77,0v-14.21h-5.242v14.144C555.889,557.007,559.878,560.831,565.516,560.831Zm16.31-.395h5.242v-9.66h0.857l7.781,9.66H602l-8.275-10.32c2.967-1.055,4.583-3,4.583-6.033a6.912,6.912,0,0,0-7.254-7.056h-9.231v23.409Zm5.242-14.111v-4.484h3.363c1.55,0,2.671.824,2.671,2.242,0,1.351-1.121,2.242-2.671,2.242h-3.363Zm18.583,14.111h14.837v-5.012h-9.594v-4.187h7.616v-5.011h-7.616v-4.187h9.594v-5.012H605.651v23.409Zm27.813,0.395c4.945,0,8.341-2.967,8.374-7.22,0.033-3.528-2.176-5.77-5.572-6.99l-1.648-.593c-2.473-.89-3.627-1.451-3.627-2.7,0-1.219,1.418-1.78,2.836-1.78a5.206,5.206,0,0,1,4.055,1.945l3.429-3.626a9.767,9.767,0,0,0-7.55-3.231c-4.682,0-8.078,2.67-8.078,7.22,0,3.2,2.11,5.473,5.9,6.759l1.648,0.56c2.341,0.792,3.264,1.616,3.264,2.8,0,1.121-1.088,1.945-2.835,1.945a6.123,6.123,0,0,1-4.847-2.671l-4.022,3.4A10.262,10.262,0,0,0,633.464,560.831Z"/>
  <g id="Number_copy_7" data-name="Number copy 7">
    <path id="_01" data-name="01" class="cls-1" d="M1310.13,632.1v-3.724c0-3.2-2.13-5.466-5.13-5.466s-5.12,2.263-5.12,5.466V632.1c0,3.2,2.13,5.465,5.12,5.465S1310.13,635.3,1310.13,632.1Zm-8.06,0v-3.724c0-2.062,1.21-3.3,2.93-3.3s2.94,1.242,2.94,3.3V632.1c0,2.082-1.21,3.3-2.94,3.3S1302.07,634.182,1302.07,632.1Zm14.93,5.265h2.19V623.15h-3.36l-1.67,2.183H1317v12.032Z"/>
    <path id="_03" data-name="03" class="cls-1" d="M1310.13,687.458v-3.724c0-3.2-2.13-5.465-5.13-5.465s-5.12,2.262-5.12,5.465v3.724c0,3.2,2.13,5.466,5.12,5.466S1310.13,690.662,1310.13,687.458Zm-8.06,0v-3.724c0-2.062,1.21-3.3,2.93-3.3s2.94,1.241,2.94,3.3v3.724c0,2.083-1.21,3.3-2.94,3.3S1302.07,689.541,1302.07,687.458Zm20.31,1.262a3.549,3.549,0,0,0-2.13-3.364,3.631,3.631,0,0,0,1.73-3.083c0.02-2.322-1.79-4-4.42-4a4.548,4.548,0,0,0-4.79,4.585h2.21a2.381,2.381,0,0,1,2.58-2.423,2.028,2.028,0,0,1,2.21,1.982,2.094,2.094,0,0,1-2.32,2.022h-1.12v1.882h1.12c1.63,0,2.72.761,2.72,2.263a2.264,2.264,0,0,1-2.53,2.182,2.721,2.721,0,0,1-2.94-2.5h-2.19a4.811,4.811,0,0,0,5.13,4.665C1320.45,692.924,1322.38,691.222,1322.38,688.72Z"/>
    <path class="cls-2" d="M1293,658V656.99h37V658h-37Z"/>
  </g>
  <g id="X_copy_6" data-name="X copy 6">
    <path id="Rectangle_116_copy_2" data-name="Rectangle 116 copy 2" class="cls-1" d="M1330.01,58.336l-0.94.929L1315.38,45.7,1300.94,60l-0.95-.938,14.44-14.3-13.96-13.832,0.94-.929,13.96,13.832,13.5-13.383,0.95,0.938-13.51,13.383Z"/>
  </g>
  <g id="R_copy_6" data-name="R copy 6">
    <path id="Rectangle_116_copy" data-name="Rectangle 116 copy" class="cls-1" d="M1328.51,362.768l-0.07-.068-27.94,27.9-0.95-.941,27.95-27.9-27.47-27.421,0.93-.932,28.49,28.431Z"/>
  </g>
</svg>
