<svg id="copy_copy" data-name="copy copy" xmlns="http://www.w3.org/2000/svg" width="1360" height="723" viewBox="0 0 1360 723">
  <metadata><?xpacket begin="﻿" id="W5M0MpCehiHzreSzNTczkc9d"?>
<x:xmpmeta xmlns:x="adobe:ns:meta/" x:xmptk="Adobe XMP Core 5.6-c138 79.159824, 2016/09/14-01:09:01        ">
   <rdf:RDF xmlns:rdf="http://www.w3.org/1999/02/22-rdf-syntax-ns#">
      <rdf:Description rdf:about=""/>
   </rdf:RDF>
</x:xmpmeta>
                                                                                                    
                                                                                                    
                                                                                                    
                                                                                                    
                                                                                                    
                                                                                                    
                                                                                                    
                                                                                                    
                                                                                                    
                                                                                                    
                                                                                                    
                                                                                                    
                                                                                                    
                                                                                                    
                                                                                                    
                                                                                                    
                                                                                                    
                                                                                                    
                                                                                                    
                                                                                                    
                           
<?xpacket end="w"?></metadata>
<defs>
    <style>
      .cls-1, .cls-2 {
        fill-rule: evenodd;
      }

      .cls-2 {
        fill: #010000;
      }
    </style>
  </defs>
  <path id="Archival_Banana_Republic_Flightsuit_1980_Not_available_for_sal" data-name="Archival Banana Republic Flightsuit, 1980 Not available for sal" class="cls-1" d="M816.517,41.146h2.657l1.008-2.4h4.7l1.009,2.4h2.656l-4.865-11.362h-2.3Zm4.593-4.609,1.424-3.425,1.424,3.425H821.11Zm9.9,4.609h2.545V36.458h0.416l3.776,4.689h3.057l-4.017-5.009a2.933,2.933,0,0,0,2.225-2.928,3.355,3.355,0,0,0-3.521-3.425h-4.481V41.146Zm2.545-6.849V32.121h1.632a1.132,1.132,0,0,1,1.3,1.088,1.15,1.15,0,0,1-1.3,1.088h-1.632ZM847.7,41.338a5.872,5.872,0,0,0,5.313-3.1l-2.24-1.216a3.409,3.409,0,1,1,0-3.1l2.24-1.216A5.923,5.923,0,1,0,847.7,41.338Zm8.079-.192h2.545v-4.5H862.9v4.5h2.545V29.785H862.9v4.449h-4.576V29.785h-2.545V41.146Zm13.344,0h2.545V29.785h-2.545V41.146Zm9.7,0h2.288l4.657-11.362h-2.8l-3.008,7.569-3.025-7.569h-2.768Zm6.879,0h2.656l1.008-2.4h4.705l1.008,2.4h2.657L892.87,29.785h-2.3Zm4.593-4.609,1.424-3.425,1.424,3.425h-2.848Zm9.9,4.609h7.249V38.714h-4.705V29.785H900.2V41.146Zm-160.414,24h4.993a3.359,3.359,0,0,0,3.456-3.344,2.969,2.969,0,0,0-1.616-2.688,2.674,2.674,0,0,0,.816-1.952,3.377,3.377,0,0,0-3.376-3.376h-4.273V65.146Zm2.545-6.769V56.105h1.44a1.155,1.155,0,0,1,1.184,1.152,1.139,1.139,0,0,1-1.184,1.12h-1.44Zm0,4.433V60.538h2.224a1.156,1.156,0,0,1,1.2,1.136,1.142,1.142,0,0,1-1.184,1.136h-2.24Zm7.359,2.336h2.657l1.008-2.4h4.7l1.008,2.4h2.657l-4.865-11.362h-2.3Zm4.593-4.609,1.424-3.425,1.424,3.425H754.28Zm20.177,4.609V53.785H771.9v7.009l-5.52-7.009h-2.193V65.146h2.545V58.121l5.536,7.025h2.193Zm2.462,0h2.656l1.009-2.4h4.7l1.008,2.4h2.657l-4.865-11.362h-2.3Zm4.593-4.609,1.424-3.425,1.424,3.425h-2.848Zm20.177,4.609V53.785h-2.561v7.009l-5.521-7.009h-2.192V65.146h2.545V58.121l5.536,7.025h2.193Zm2.462,0h2.656l1.008-2.4h4.7l1.008,2.4h2.657L811.32,53.785h-2.3Zm4.593-4.609,1.424-3.425,1.424,3.425h-2.848Zm14.223,4.609h2.544V60.458h0.416l3.777,4.689h3.056l-4.016-5.009a2.932,2.932,0,0,0,2.224-2.928,3.354,3.354,0,0,0-3.52-3.425h-4.481V65.146Zm2.544-6.849V56.121h1.632a1.132,1.132,0,0,1,1.3,1.088,1.15,1.15,0,0,1-1.3,1.088h-1.632Zm9.328,6.849h7.2V62.714h-4.657V60.682h3.7V58.249h-3.7V56.217h4.657V53.785h-7.2V65.146Zm18.273-7.473a3.869,3.869,0,0,0-4-3.889h-3.856V65.146H847.8v-3.6h1.312A3.856,3.856,0,0,0,853.112,57.673Zm-2.465,0a1.5,1.5,0,0,1-1.568,1.488H847.8V56.185h1.28A1.486,1.486,0,0,1,850.647,57.673Zm9.92,7.665a4.456,4.456,0,0,0,4.673-4.689V53.785H862.7v6.9a2.129,2.129,0,1,1-4.256,0v-6.9h-2.545V60.65A4.448,4.448,0,0,0,860.567,65.338Zm8.223-.192h4.993a3.359,3.359,0,0,0,3.456-3.344,2.969,2.969,0,0,0-1.616-2.688,2.674,2.674,0,0,0,.816-1.952,3.377,3.377,0,0,0-3.376-3.376H868.79V65.146Zm2.545-6.769V56.105h1.44a1.155,1.155,0,0,1,1.184,1.152,1.139,1.139,0,0,1-1.184,1.12h-1.44Zm0,4.433V60.538h2.224a1.156,1.156,0,0,1,1.2,1.136,1.142,1.142,0,0,1-1.184,1.136h-2.24Zm8.895,2.336h7.249V62.714h-4.705V53.785H880.23V65.146Zm10.112,0h2.544V53.785h-2.544V65.146ZM901.8,65.338a5.872,5.872,0,0,0,5.312-3.1l-2.24-1.216a3.409,3.409,0,1,1,0-3.1l2.24-1.216A5.923,5.923,0,1,0,901.8,65.338ZM757.208,89.146h2.544V84.7h3.473V82.265h-3.473V80.217H764.2V77.785h-6.993V89.146Zm10,0h7.249V86.714h-4.705V77.785h-2.544V89.146Zm10.112,0h2.544V77.785H777.32V89.146ZM789.1,89.338a6.279,6.279,0,0,0,4.657-1.68V82.265h-4.705V84.65h2.225v1.68a3.706,3.706,0,0,1-2.209.544,3.411,3.411,0,1,1-.16-6.817,3.775,3.775,0,0,1,2.865,1.216l1.792-1.744a6.044,6.044,0,0,0-4.657-1.936,5.8,5.8,0,0,0-5.985,5.873A5.9,5.9,0,0,0,789.1,89.338Zm7.935-.192h2.545v-4.5h4.576v4.5H806.7V77.785h-2.545v4.449h-4.576V77.785h-2.545V89.146Zm15.392,0h2.561V80.217h2.928V77.785h-8.385v2.432h2.9v8.929Zm11.553,0.192c2.4,0,4.048-1.44,4.064-3.5,0.016-1.712-1.056-2.8-2.7-3.392l-0.8-.288c-1.2-.432-1.761-0.7-1.761-1.312a1.167,1.167,0,0,1,1.377-.864,2.527,2.527,0,0,1,1.968.944l1.664-1.76a4.74,4.74,0,0,0-3.664-1.568c-2.273,0-3.921,1.3-3.921,3.5,0,1.552,1.024,2.656,2.865,3.281l0.8,0.272c1.136,0.384,1.584.784,1.584,1.36a1.152,1.152,0,0,1-1.376.944,2.973,2.973,0,0,1-2.353-1.3l-1.952,1.648A4.982,4.982,0,0,0,823.976,89.338Zm11.648,0A4.456,4.456,0,0,0,840.3,84.65V77.785h-2.544v6.9a2.129,2.129,0,1,1-4.257,0v-6.9h-2.544V84.65A4.447,4.447,0,0,0,835.624,89.338Zm8.223-.192h2.544V77.785h-2.544V89.146Zm8.272,0h2.56V80.217h2.929V77.785h-8.386v2.432h2.9v8.929Zm9.616-.48a2.192,2.192,0,0,0,.352-1.1,1.713,1.713,0,0,0-3.425,0,1.732,1.732,0,0,0,1.041,1.584l-1.2,2.48H859.9Zm9.455,0.48h2.417V77.785h-3.153l-1.728,2.384h2.464v8.977Zm6,0h2.976l3.185-4.529c0.9-1.28,1.344-1.92,1.344-3.056a4,4,0,0,0-8-.016,3.527,3.527,0,0,0,3.28,3.617Zm3.5-6.033a1.6,1.6,0,0,1,0-3.2A1.6,1.6,0,0,1,880.7,83.114Zm10.559,6.209a3.8,3.8,0,0,0,4.1-3.681,2.944,2.944,0,0,0-1.376-2.672,3,3,0,0,0,.928-2.256c0-1.792-1.44-3.12-3.649-3.12s-3.648,1.328-3.648,3.12a3.025,3.025,0,0,0,.912,2.256,2.965,2.965,0,0,0-1.36,2.672A3.8,3.8,0,0,0,891.254,89.322Zm0-7.169a1.22,1.22,0,1,1,1.313-1.216A1.239,1.239,0,0,1,891.254,82.153Zm0,4.945a1.522,1.522,0,1,1,1.6-1.52A1.518,1.518,0,0,1,891.254,87.1Zm11.088,2.224a4.257,4.257,0,0,0,4.289-4.545v-2.64a4.3,4.3,0,1,0-8.593,0v2.64A4.26,4.26,0,0,0,902.342,89.322Zm0-2.384a1.9,1.9,0,0,1-1.888-2.16v-2.64a1.9,1.9,0,1,1,3.761,0v2.64A1.9,1.9,0,0,1,902.342,86.938Zm-127.6,26.208v-8.523h-1.1v6.639l-5.186-6.639H767.48v8.523H768.6v-6.638l5.186,6.638h0.96Zm8.759-3a3.139,3.139,0,1,0-3.133,3.121A3.08,3.08,0,0,0,783.5,110.145Zm-5.222,0a2.084,2.084,0,1,1,2.089,2.161A2.064,2.064,0,0,1,778.28,110.145Zm10.8,2.917v-0.924a2.281,2.281,0,0,1-.732.12,0.864,0.864,0,0,1-1-1.02v-3.146h1.728v-0.948h-1.728v-1.669H786.32v1.669h-1.272v0.948h1.272v3.278a1.69,1.69,0,0,0,1.837,1.836A2.871,2.871,0,0,0,789.081,113.062Zm5.7-2.917a3,3,0,0,0,2.941,3.121,2.633,2.633,0,0,0,2.113-1.044v0.924h1.032v-6h-1.032v0.924a2.633,2.633,0,0,0-2.113-1.044A3,3,0,0,0,794.78,110.145Zm5.138,0a2.051,2.051,0,1,1-2.041-2.173A2.05,2.05,0,0,1,799.918,110.145Zm5.723,3h0.864l2.773-6h-1.152l-2.053,4.538-2.053-4.538h-1.153Zm5.051-3a3,3,0,0,0,2.941,3.121,2.635,2.635,0,0,0,2.113-1.044v0.924h1.032v-6h-1.032v0.924a2.635,2.635,0,0,0-2.113-1.044A3,3,0,0,0,810.692,110.145Zm5.138,0a2.051,2.051,0,1,1-2.041-2.173A2.05,2.05,0,0,1,815.83,110.145Zm5.1-5.342a0.725,0.725,0,0,0-.72-0.732,0.745,0.745,0,0,0-.744.732,0.738,0.738,0,0,0,.744.732A0.717,0.717,0,0,0,820.928,104.8Zm-1.248,8.343h1.032v-6H819.68v6Zm3.948,0h1.032v-9h-1.032v9Zm3.479-3a3,3,0,0,0,2.941,3.121,2.632,2.632,0,0,0,2.113-1.044v0.924h1.033v-6h-1.033v0.924a2.632,2.632,0,0,0-2.113-1.044A3,3,0,0,0,827.107,110.145Zm5.138,0a2.05,2.05,0,1,1-2.04-2.173A2.049,2.049,0,0,1,832.245,110.145Zm4.883,2.077a2.632,2.632,0,0,0,2.113,1.044,3.127,3.127,0,0,0,0-6.242,2.632,2.632,0,0,0-2.113,1.044v-3.925H836.1v9h1.033v-0.924Zm4-2.077a2.045,2.045,0,1,1-2.04-2.173A2.049,2.049,0,0,1,841.125,110.145Zm3.49,3h1.033v-9h-1.033v9Zm3.48-3a3.164,3.164,0,0,0,5.81,1.693l-0.816-.564a2.126,2.126,0,0,1-3.95-.925h4.922a2.928,2.928,0,0,0,.012-0.312,2.8,2.8,0,0,0-2.857-3.013A3.041,3.041,0,0,0,848.1,110.145Zm3.085-2.209a1.8,1.8,0,0,1,1.837,1.573h-3.806A1.962,1.962,0,0,1,851.18,107.936Zm9.551,5.21h1.033v-5.054h1.74v-0.948h-1.74v-1.105a0.864,0.864,0,0,1,1-1.02,2.416,2.416,0,0,1,.744.12v-0.912a2.727,2.727,0,0,0-.936-0.156,1.714,1.714,0,0,0-1.837,1.86v1.213h-1.272v0.948h1.272v5.054Zm10.5-3a3.139,3.139,0,1,0-3.133,3.121A3.08,3.08,0,0,0,871.233,110.145Zm-5.222,0a2.084,2.084,0,1,1,2.089,2.161A2.064,2.064,0,0,1,866.011,110.145Zm7.656,3H874.7v-2.977c0-1.4.829-2.065,1.585-2.065a1.508,1.508,0,0,1,.564.1v-1.068a2.138,2.138,0,0,0-.468-0.048,1.787,1.787,0,0,0-1.681,1.224v-1.164h-1.032v6Zm12.829-1.668a1.9,1.9,0,0,0-1.584-1.813l-0.648-.216c-0.709-.228-0.925-0.456-0.925-0.841a0.85,0.85,0,0,1,1.009-.7,1.621,1.621,0,0,1,1.272.624l0.672-.648a2.327,2.327,0,0,0-1.92-.864,1.777,1.777,0,0,0-2.029,1.633,1.811,1.811,0,0,0,1.488,1.74l0.589,0.192c0.78,0.252,1.068.541,1.068,0.961a0.913,0.913,0,0,1-1.056.816,1.611,1.611,0,0,1-1.537-.948l-0.84.456a2.384,2.384,0,0,0,2.353,1.392A1.811,1.811,0,0,0,886.5,111.478Zm1.967-1.333a3,3,0,0,0,2.941,3.121,2.635,2.635,0,0,0,2.113-1.044v0.924h1.032v-6h-1.032v0.924a2.635,2.635,0,0,0-2.113-1.044A3,3,0,0,0,888.463,110.145Zm5.138,0a2.051,2.051,0,1,1-2.041-2.173A2.05,2.05,0,0,1,893.6,110.145Zm3.85,3h1.032v-9h-1.032v9Zm3.479-3a3.165,3.165,0,0,0,5.811,1.693l-0.817-.564a2.125,2.125,0,0,1-3.949-.925H906.9a2.928,2.928,0,0,0,.012-0.312,2.8,2.8,0,0,0-2.857-3.013A3.042,3.042,0,0,0,900.93,110.145Zm3.086-2.209a1.8,1.8,0,0,1,1.836,1.573h-3.8A1.962,1.962,0,0,1,904.016,107.936Z"/>
  <path id="Re-imagined_Utility_Jumpsuit_2018_" data-name="Re-imagined Utility Jumpsuit, 2018      " class="cls-1" d="M562.587,253.146h2.544v-4.688h0.416l3.777,4.688h3.056l-4.017-5.008a2.933,2.933,0,0,0,2.225-2.929,3.354,3.354,0,0,0-3.521-3.424h-4.48v11.361Zm2.544-6.849v-2.176h1.632a1.132,1.132,0,0,1,1.3,1.088,1.15,1.15,0,0,1-1.3,1.088h-1.632Zm9.327,6.849h7.2v-2.432H577v-2.032h3.7v-2.433H577v-2.032h4.656v-2.432h-7.2v11.361Zm9.793-4.528h4.7v-2.305h-4.7v2.305Zm8.111,4.528h2.545V241.785h-2.545v11.361Zm12.1-2.416,3.313-4.593v7.009h2.56V241.785h-2.32l-3.553,4.9-3.552-4.9h-2.321v11.361h2.545v-7.009Zm8.335,2.416h2.656l1.008-2.4h4.705l1.008,2.4h2.657l-4.865-11.361h-2.3Zm4.593-4.608,1.424-3.425,1.424,3.425h-2.848Zm14.944,4.8a6.282,6.282,0,0,0,4.657-1.68v-5.393h-4.705v2.385h2.224v1.68a3.7,3.7,0,0,1-2.208.544,3.411,3.411,0,1,1-.16-6.817A3.773,3.773,0,0,1,635,245.273l1.793-1.744a6.048,6.048,0,0,0-4.657-1.936,5.8,5.8,0,0,0-5.985,5.873A5.9,5.9,0,0,0,632.331,253.338Zm7.935-.192h2.544V241.785h-2.544v11.361Zm16.5,0V241.785H654.2v7.009l-5.521-7.009H646.49v11.361h2.544v-7.025l5.537,7.025h2.192Zm3.679,0h7.2v-2.432h-4.657v-2.032h3.7v-2.433h-3.7v-2.032h4.657v-2.432h-7.2v11.361Zm10.416,0h3.872a5.682,5.682,0,1,0,0-11.361h-3.872v11.361Zm2.544-2.336v-6.689h1.328a3.347,3.347,0,0,1,0,6.689H673.4ZM567.131,277.338a4.456,4.456,0,0,0,4.673-4.688v-6.865H569.26v6.9a2.129,2.129,0,1,1-4.257,0v-6.9h-2.544v6.865A4.447,4.447,0,0,0,567.131,277.338Zm10.272-.192h2.56v-8.929h2.929v-2.432h-8.386v2.432h2.9v8.929Zm8.319,0h2.545V265.785h-2.545v11.361Zm6.224,0H599.2v-2.432h-4.7v-8.929h-2.545v11.361Zm10.112,0H604.6V265.785h-2.544v11.361Zm8.272,0h2.56v-8.929h2.929v-2.432h-8.385v2.432h2.9v8.929Zm11.392,0h2.56v-4.768l4.145-6.593h-2.96l-2.481,4.1-2.448-4.1h-2.961l4.145,6.577v4.784Zm16.112,0.192c1.952,0,3.713-.976,3.713-3.3v-8.257H639v8.1a1.169,1.169,0,0,1-2.336-.064h-2.512A3.368,3.368,0,0,0,637.834,277.338Zm11.856,0a4.456,4.456,0,0,0,4.673-4.688v-6.865h-2.545v6.9a2.129,2.129,0,1,1-4.256,0v-6.9h-2.545v6.865A4.448,4.448,0,0,0,649.69,277.338Zm14.1-2.608,3.313-4.593v7.009h2.56V265.785h-2.32l-3.553,4.9-3.552-4.9h-2.321v11.361h2.545v-7.009Zm17.408-5.057a3.869,3.869,0,0,0-4-3.888h-3.857v11.361h2.544v-3.6h1.313A3.856,3.856,0,0,0,681.194,269.673Zm-2.464,0a1.5,1.5,0,0,1-1.568,1.488h-1.281v-2.976h1.281A1.486,1.486,0,0,1,678.73,269.673Zm8.767,7.665c2.4,0,4.049-1.44,4.065-3.5,0.016-1.712-1.056-2.8-2.705-3.393l-0.8-.288c-1.2-.432-1.76-0.7-1.76-1.312a1.166,1.166,0,0,1,1.376-.864,2.529,2.529,0,0,1,1.969.944l1.664-1.76a4.742,4.742,0,0,0-3.665-1.568c-2.272,0-3.92,1.3-3.92,3.5,0,1.552,1.024,2.657,2.864,3.281l0.8,0.272c1.136,0.384,1.584.784,1.584,1.36a1.152,1.152,0,0,1-1.376.944,2.972,2.972,0,0,1-2.352-1.3l-1.952,1.648A4.981,4.981,0,0,0,687.5,277.338Zm11.648,0a4.456,4.456,0,0,0,4.673-4.688v-6.865h-2.544v6.9a2.129,2.129,0,1,1-4.257,0v-6.9h-2.544v6.865A4.447,4.447,0,0,0,699.145,277.338Zm8.223-.192h2.545V265.785h-2.545v11.361Zm8.273,0h2.56v-8.929h2.928v-2.432h-8.385v2.432h2.9v8.929Zm9.615-.48a2.183,2.183,0,0,0,.353-1.1,1.713,1.713,0,0,0-3.425,0,1.732,1.732,0,0,0,1.04,1.584l-1.2,2.481h1.392Zm15.5-1.9h-4.433a7.742,7.742,0,0,1,2.016-1.6,4.6,4.6,0,0,0,2.337-4.017A3.447,3.447,0,0,0,737,265.593a3.8,3.8,0,0,0-4.032,3.808h2.416a1.436,1.436,0,0,1,1.536-1.424,1.25,1.25,0,0,1,1.344,1.344c0,0.816-.816,1.536-1.712,2.177-1.664,1.184-3.632,2.256-3.632,4.832v0.816h7.841v-2.384Zm7.119,2.56a4.257,4.257,0,0,0,4.289-4.544v-2.641a4.3,4.3,0,1,0-8.593,0v2.641A4.26,4.26,0,0,0,747.88,277.322Zm0-2.384a1.9,1.9,0,0,1-1.888-2.16v-2.641a1.9,1.9,0,1,1,3.76,0v2.641A1.9,1.9,0,0,1,747.88,274.938Zm8.752,2.208h2.416V265.785H755.9l-1.729,2.384h2.465v8.977Zm9.632,0.176a3.8,3.8,0,0,0,4.1-3.68,2.945,2.945,0,0,0-1.377-2.673,3,3,0,0,0,.929-2.256c0-1.792-1.441-3.12-3.649-3.12s-3.649,1.328-3.649,3.12a3.025,3.025,0,0,0,.913,2.256,2.968,2.968,0,0,0-1.361,2.673A3.8,3.8,0,0,0,766.264,277.322Zm0-7.169a1.22,1.22,0,1,1,1.312-1.216A1.239,1.239,0,0,1,766.264,270.153Zm0,4.945a1.522,1.522,0,1,1,1.6-1.52A1.518,1.518,0,0,1,766.264,275.1Z"/>
  <path id="Shop_Now" data-name="Shop Now" class="cls-1" d="M562.533,298.557a3.129,3.129,0,0,0,2.783,1.408,2.306,2.306,0,0,0,.77-4.544l-0.792-.3c-0.8-.3-1.188-0.55-1.188-1.122a1.074,1.074,0,0,1,1.232-.9,1.894,1.894,0,0,1,1.486.726l0.891-.869a3.007,3.007,0,0,0-2.366-1.067,2.227,2.227,0,0,0-.693,4.4l0.858,0.309a1.321,1.321,0,0,1,1.112,1.188,1.1,1.1,0,0,1-1.266.968,2.126,2.126,0,0,1-1.815-1Zm8.767,1.276h1.287v-3.355h3.862v3.355h1.287v-7.811h-1.287v3.234h-3.862v-3.234H571.3v7.811Zm17.92-3.906a4.038,4.038,0,1,0-4.038,4.038A4.019,4.019,0,0,0,589.22,295.927Zm-6.777,0a2.735,2.735,0,1,1,2.739,2.795A2.738,2.738,0,0,1,582.443,295.927Zm12.65-3.905h-2.486v7.811h1.287v-2.706h1.2A2.557,2.557,0,1,0,595.093,292.022Zm-0.011,3.894h-1.188v-2.684h1.188A1.346,1.346,0,1,1,595.082,295.916Zm17.007,3.917v-7.811h-1.3v5.6l-4.39-5.6h-1.122v7.811h1.287v-5.622l4.4,5.622h1.122Zm11.473-3.906a4.038,4.038,0,1,0-4.038,4.038A4.019,4.019,0,0,0,623.562,295.927Zm-6.777,0a2.735,2.735,0,1,1,2.739,2.795A2.738,2.738,0,0,1,616.785,295.927Zm16.225,3.906H634.2l2.024-7.811h-1.364l-1.43,5.677L631.2,291.89l-2.233,5.809-1.43-5.677h-1.354l2.014,7.811h1.188l1.815-4.775ZM562.181,302.4v-0.989h76V302.4h-76Z"/>
  <g id="Number_copy_5" data-name="Number copy 5">
    <path id="_02" data-name="02" class="cls-1" d="M1310.13,632.1v-3.724c0-3.2-2.13-5.466-5.13-5.466s-5.12,2.263-5.12,5.466V632.1c0,3.2,2.13,5.465,5.12,5.465S1310.13,635.3,1310.13,632.1Zm-8.06,0v-3.724c0-2.062,1.21-3.3,2.93-3.3s2.94,1.242,2.94,3.3V632.1c0,2.082-1.21,3.3-2.94,3.3S1302.07,634.182,1302.07,632.1Zm19.91,3.1h-6.47c0.36-1.281,1.94-2.082,3.21-3.043,2.07-1.5,3.12-2.723,3.12-4.985a4.12,4.12,0,0,0-4.43-4.265,4.527,4.527,0,0,0-4.78,4.585h2.21a2.394,2.394,0,0,1,2.55-2.423,2.076,2.076,0,0,1,2.24,2.163c0,1.441-.91,2.242-2.36,3.3-2.07,1.542-4.64,2.9-4.64,6.026v0.8h9.35V635.2Z"/>
    <path id="_02-2" data-name="02" class="cls-1" d="M1310.13,687.458v-3.724c0-3.2-2.13-5.465-5.13-5.465s-5.12,2.262-5.12,5.465v3.724c0,3.2,2.13,5.466,5.12,5.466S1310.13,690.662,1310.13,687.458Zm-8.06,0v-3.724c0-2.062,1.21-3.3,2.93-3.3s2.94,1.241,2.94,3.3v3.724c0,2.083-1.21,3.3-2.94,3.3S1302.07,689.541,1302.07,687.458Zm19.91,3.1h-6.47c0.36-1.282,1.94-2.083,3.21-3.044,2.07-1.5,3.12-2.722,3.12-4.985a4.119,4.119,0,0,0-4.43-4.264,4.527,4.527,0,0,0-4.78,4.585h2.21a2.394,2.394,0,0,1,2.55-2.423,2.075,2.075,0,0,1,2.24,2.162c0,1.442-.91,2.243-2.36,3.3-2.07,1.541-4.64,2.9-4.64,6.026v0.8h9.35v-2.162Z"/>
    <path class="cls-2" d="M1293,658V656.99h37V658h-37Z"/>
  </g>
  <g id="X_copy_4" data-name="X copy 4">
    <path id="Rectangle_116_copy_2" data-name="Rectangle 116 copy 2" class="cls-1" d="M1330.01,58.336l-0.94.929L1315.38,45.7,1300.94,60l-0.95-.938,14.44-14.3-13.96-13.832,0.94-.929,13.96,13.832,13.5-13.383,0.95,0.938-13.51,13.383Z"/>
  </g>
  <g id="L_copy_4" data-name="L copy 4">
    <path id="Rectangle_116_copy" data-name="Rectangle 116 copy" class="cls-1" d="M57.12,334.161L29.782,361.739l26.874,27.11-0.913.921L27.88,361.663l0.913-.922,0.066,0.067L56.2,333.23Z"/>
  </g>
</svg>
