<svg id="Copy_copy_5" data-name="Copy copy 5" xmlns="http://www.w3.org/2000/svg" width="1360" height="723" viewBox="0 0 1360 723">
  <metadata><?xpacket begin="﻿" id="W5M0MpCehiHzreSzNTczkc9d"?>
<x:xmpmeta xmlns:x="adobe:ns:meta/" x:xmptk="Adobe XMP Core 5.6-c138 79.159824, 2016/09/14-01:09:01        ">
   <rdf:RDF xmlns:rdf="http://www.w3.org/1999/02/22-rdf-syntax-ns#">
      <rdf:Description rdf:about=""/>
   </rdf:RDF>
</x:xmpmeta>
                                                                                                    
                                                                                                    
                                                                                                    
                                                                                                    
                                                                                                    
                                                                                                    
                                                                                                    
                                                                                                    
                                                                                                    
                                                                                                    
                                                                                                    
                                                                                                    
                                                                                                    
                                                                                                    
                                                                                                    
                                                                                                    
                                                                                                    
                                                                                                    
                                                                                                    
                                                                                                    
                           
<?xpacket end="w"?></metadata>
<defs>
    <style>
      .cls-1, .cls-2, .cls-3 {
        fill-rule: evenodd;
      }

      .cls-2 {
        fill: #010000;
      }

      .cls-3 {
        fill: #fff;
      }
    </style>
  </defs>
  <path id="Trench_Dress_" data-name="Trench Dress     " class="cls-1" d="M614.635,649.146h2.56v-8.929h2.929v-2.432h-8.385v2.432h2.9v8.929Zm8.32,0H625.5v-4.688h0.416l3.776,4.688h3.057l-4.017-5.008a2.933,2.933,0,0,0,2.225-2.929,3.355,3.355,0,0,0-3.521-3.424h-4.48v11.361ZM625.5,642.3v-2.176h1.632a1.132,1.132,0,0,1,1.3,1.088,1.15,1.15,0,0,1-1.3,1.088H625.5Zm9.327,6.849h7.2v-2.432h-4.656v-2.032h3.7v-2.433h-3.7v-2.032h4.656v-2.432h-7.2v11.361Zm20.69,0V637.785h-2.561v7.009l-5.52-7.009h-2.193v11.361h2.545v-7.025l5.536,7.025h2.193Zm8.911,0.192a5.874,5.874,0,0,0,5.313-3.1l-2.241-1.216a3.409,3.409,0,1,1,0-3.105l2.241-1.216A5.923,5.923,0,1,0,664.427,649.338Zm8.079-.192h2.545v-4.5h4.576v4.5h2.545V637.785h-2.545v4.448h-4.576v-4.448h-2.545v11.361Zm18.144,0h3.872a5.682,5.682,0,1,0,0-11.361H690.65v11.361Zm2.544-2.336v-6.689h1.328a3.347,3.347,0,0,1,0,6.689h-1.328Zm10.176,2.336h2.544v-4.688h0.416l3.777,4.688h3.056l-4.016-5.008a2.933,2.933,0,0,0,2.224-2.929,3.354,3.354,0,0,0-3.521-3.424h-4.48v11.361Zm2.544-6.849v-2.176h1.632a1.132,1.132,0,0,1,1.3,1.088,1.15,1.15,0,0,1-1.3,1.088h-1.632Zm9.328,6.849h7.2v-2.432h-4.657v-2.032h3.7v-2.433h-3.7v-2.032h4.657v-2.432h-7.2v11.361Zm13.808,0.192c2.4,0,4.049-1.44,4.065-3.5,0.016-1.712-1.056-2.8-2.705-3.393l-0.8-.288c-1.2-.432-1.76-0.7-1.76-1.312a1.166,1.166,0,0,1,1.376-.864,2.527,2.527,0,0,1,1.968.944l1.665-1.76a4.742,4.742,0,0,0-3.665-1.568c-2.272,0-3.92,1.3-3.92,3.5,0,1.552,1.024,2.657,2.864,3.281l0.8,0.272c1.136,0.384,1.584.784,1.584,1.36a1.152,1.152,0,0,1-1.376.944,2.972,2.972,0,0,1-2.352-1.3l-1.953,1.648A4.984,4.984,0,0,0,729.05,649.338Zm10.5,0c2.4,0,4.048-1.44,4.064-3.5,0.016-1.712-1.056-2.8-2.7-3.393l-0.8-.288c-1.2-.432-1.76-0.7-1.76-1.312a1.166,1.166,0,0,1,1.376-.864,2.527,2.527,0,0,1,1.968.944l1.664-1.76a4.74,4.74,0,0,0-3.664-1.568c-2.272,0-3.921,1.3-3.921,3.5,0,1.552,1.025,2.657,2.865,3.281l0.8,0.272c1.136,0.384,1.584.784,1.584,1.36a1.152,1.152,0,0,1-1.376.944,2.972,2.972,0,0,1-2.352-1.3l-1.953,1.648A4.983,4.983,0,0,0,739.546,649.338Z"/>
  <path id="Shop_Now" data-name="Shop Now" class="cls-1" d="M763.533,644.557a3.129,3.129,0,0,0,2.783,1.408,2.306,2.306,0,0,0,.77-4.544l-0.792-.3c-0.8-.3-1.188-0.55-1.188-1.122a1.074,1.074,0,0,1,1.232-.9,1.894,1.894,0,0,1,1.486.726l0.891-.869a3.007,3.007,0,0,0-2.366-1.067,2.227,2.227,0,0,0-.693,4.4l0.858,0.309a1.321,1.321,0,0,1,1.112,1.188,1.1,1.1,0,0,1-1.266.968,2.126,2.126,0,0,1-1.815-1Zm8.767,1.276h1.287v-3.355h3.862v3.355h1.287v-7.811h-1.287v3.234h-3.862v-3.234H772.3v7.811Zm17.92-3.906a4.038,4.038,0,1,0-4.038,4.038A4.019,4.019,0,0,0,790.22,641.927Zm-6.777,0a2.735,2.735,0,1,1,2.739,2.795A2.738,2.738,0,0,1,783.443,641.927Zm12.65-3.9h-2.486v7.811h1.287v-2.706h1.2A2.557,2.557,0,1,0,796.093,638.022Zm-0.011,3.894h-1.188v-2.684h1.188A1.346,1.346,0,1,1,796.082,641.916Zm17.007,3.917v-7.811h-1.3v5.6l-4.39-5.6h-1.122v7.811h1.287v-5.622l4.4,5.622h1.122Zm11.473-3.906a4.038,4.038,0,1,0-4.038,4.038A4.019,4.019,0,0,0,824.562,641.927Zm-6.777,0a2.735,2.735,0,1,1,2.739,2.795A2.738,2.738,0,0,1,817.785,641.927Zm16.225,3.906H835.2l2.024-7.811h-1.364l-1.43,5.677L832.2,637.89l-2.233,5.809-1.43-5.677h-1.354l2.014,7.811h1.188l1.815-4.775ZM763.181,648.4v-0.989h76V648.4h-76Z"/>
  <g id="Number">
    <path id="_02" data-name="02" class="cls-1" d="M1310.13,632.1v-3.724c0-3.2-2.13-5.466-5.13-5.466s-5.12,2.263-5.12,5.466V632.1c0,3.2,2.13,5.465,5.12,5.465S1310.13,635.3,1310.13,632.1Zm-8.06,0v-3.724c0-2.062,1.21-3.3,2.93-3.3s2.94,1.242,2.94,3.3V632.1c0,2.082-1.21,3.3-2.94,3.3S1302.07,634.182,1302.07,632.1Zm19.91,3.1h-6.47c0.36-1.281,1.94-2.082,3.21-3.043,2.07-1.5,3.12-2.723,3.12-4.985a4.12,4.12,0,0,0-4.43-4.265,4.527,4.527,0,0,0-4.78,4.585h2.21a2.394,2.394,0,0,1,2.55-2.423,2.076,2.076,0,0,1,2.24,2.163c0,1.441-.91,2.242-2.36,3.3-2.07,1.542-4.64,2.9-4.64,6.026v0.8h9.35V635.2Z"/>
    <path id="_04" data-name="04" class="cls-1" d="M1310.13,687.458v-3.724c0-3.2-2.13-5.465-5.13-5.465s-5.12,2.262-5.12,5.465v3.724c0,3.2,2.13,5.466,5.12,5.466S1310.13,690.662,1310.13,687.458Zm-8.06,0v-3.724c0-2.062,1.21-3.3,2.93-3.3s2.94,1.241,2.94,3.3v3.724c0,2.083-1.21,3.3-2.94,3.3S1302.07,689.541,1302.07,687.458Zm17.29,5.266h2.19V689.16h1.89v-2.042h-1.89v-8.609h-1.95l-7.55,8.869v1.782h7.31v3.564Zm0-5.606h-4.56l4.56-5.326v5.326Z"/>
    <path class="cls-2" d="M1293,658V656.99h37V658h-37Z"/>
  </g>
  <g id="X_copy" data-name="X copy">
    <path id="Rectangle_116_copy_2" data-name="Rectangle 116 copy 2" class="cls-1" d="M1330.01,58.336l-0.94.929L1315.38,45.7,1300.94,60l-0.95-.938,14.44-14.3-13.96-13.832,0.94-.929,13.96,13.832,13.5-13.383,0.95,0.938-13.51,13.383Z"/>
  </g>
  <g id="R_copy" data-name="R copy">
    <path id="Rectangle_116_copy" data-name="Rectangle 116 copy" class="cls-1" d="M1328.51,362.768l-0.07-.068-27.94,27.9-0.95-.941,27.95-27.9-27.47-27.421,0.93-.932,28.49,28.431Z"/>
  </g>
  <g id="L_copy" data-name="L copy">
    <path id="Rectangle_116_copy-2" data-name="Rectangle 116 copy" class="cls-3" d="M57.12,334.161L29.782,361.739l26.874,27.11-0.913.921L27.88,361.663l0.913-.922,0.066,0.067L56.2,333.23Z"/>
  </g>
</svg>
