<svg id="Copy_copy_12" data-name="Copy copy 12" xmlns="http://www.w3.org/2000/svg" width="672" height="1097" viewBox="0 0 672 1097">
  <metadata><?xpacket begin="﻿" id="W5M0MpCehiHzreSzNTczkc9d"?>
<x:xmpmeta xmlns:x="adobe:ns:meta/" x:xmptk="Adobe XMP Core 5.6-c138 79.159824, 2016/09/14-01:09:01        ">
   <rdf:RDF xmlns:rdf="http://www.w3.org/1999/02/22-rdf-syntax-ns#">
      <rdf:Description rdf:about=""/>
   </rdf:RDF>
</x:xmpmeta>
                                                                                                    
                                                                                                    
                                                                                                    
                                                                                                    
                                                                                                    
                                                                                                    
                                                                                                    
                                                                                                    
                                                                                                    
                                                                                                    
                                                                                                    
                                                                                                    
                                                                                                    
                                                                                                    
                                                                                                    
                                                                                                    
                                                                                                    
                                                                                                    
                                                                                                    
                                                                                                    
                           
<?xpacket end="w"?></metadata>
<defs>
    <style>
      .cls-1 {
        fill-rule: evenodd;
      }
    </style>
  </defs>
  <path id="Rectangle_116_copy_2" data-name="Rectangle 116 copy 2" class="cls-1" d="M652.009,53.058l-1.094,1.085-15.976-15.83L618.1,55l-1.105-1.094,16.843-16.688L617.547,21.082,618.641,20l16.287,16.138,15.758-15.614,1.105,1.1L636.033,37.231Z"/>
  <path id="Rectangle_116_copy" data-name="Rectangle 116 copy" class="cls-1" d="M650.915,599.4l-0.08-.079L618.1,632l-1.105-1.1,32.739-32.681L617.547,566.09,618.641,565l33.368,33.309Z"/>
  <path id="We_partner_with_the_best_mills_on_earth_to_source_the_finest_ma" data-name="We partner with the best mills on earth to source the finest ma" class="cls-1" d="M50.007,834.323h1.66l3.881-14.2h-1.94L50.627,831.2l-4.1-11.323L42.445,831.2,39.464,820.12h-1.94l3.881,14.2h1.66l3.481-9.643Zm6.738-5a5.273,5.273,0,0,0,9.682,2.821l-1.36-.94a3.542,3.542,0,0,1-6.582-1.54h8.2a4.907,4.907,0,0,0,.02-0.521c-0.02-3.2-2.141-5.021-4.761-5.021A5.069,5.069,0,0,0,56.744,829.321Zm5.141-3.68a2.992,2.992,0,0,1,3.061,2.62H58.6A3.27,3.27,0,0,1,61.886,825.641ZM75.025,838.5h1.72v-5.721a4.387,4.387,0,0,0,3.521,1.741,5.211,5.211,0,0,0,0-10.4,4.387,4.387,0,0,0-3.521,1.741V824.32h-1.72V838.5Zm8.382-9.182a3.407,3.407,0,1,1-3.4-3.62A3.415,3.415,0,0,1,83.407,829.321Zm3.958,0a5.006,5.006,0,0,0,4.9,5.2,4.387,4.387,0,0,0,3.521-1.741v1.541h1.72v-10h-1.72v1.541a4.387,4.387,0,0,0-3.521-1.741A5.005,5.005,0,0,0,87.365,829.321Zm8.562,0a3.417,3.417,0,1,1-3.4-3.62A3.415,3.415,0,0,1,95.927,829.321Zm5.318,5h1.72v-4.962c0-2.34,1.381-3.44,2.641-3.44a2.514,2.514,0,0,1,.94.16V824.3a3.564,3.564,0,0,0-.78-0.08,2.977,2.977,0,0,0-2.8,2.041V824.32h-1.72v10Zm13.241-.141v-1.54a3.8,3.8,0,0,1-1.22.2,1.44,1.44,0,0,1-1.66-1.7V825.9h2.88V824.32h-2.88v-2.78h-1.721v2.78h-2.12V825.9h2.12v5.461a2.816,2.816,0,0,0,3.061,3.061A4.756,4.756,0,0,0,114.486,834.182Zm2.7,0.141h1.721v-4.962c0-2.34,1.28-3.66,2.9-3.66,1.4,0,2.361,1.04,2.361,2.72v5.9h1.7v-6.162c0-2.48-1.54-4.041-3.781-4.041a3.535,3.535,0,0,0-3.18,1.741V824.32h-1.721v10Zm11.5-5a5.273,5.273,0,0,0,9.682,2.821l-1.36-.94a3.541,3.541,0,0,1-6.581-1.54h8.2a4.907,4.907,0,0,0,.02-0.521c-0.02-3.2-2.141-5.021-4.762-5.021A5.069,5.069,0,0,0,128.685,829.321Zm5.141-3.68a2.992,2.992,0,0,1,3.061,2.62h-6.341A3.269,3.269,0,0,1,133.826,825.641Zm7.76,8.682h1.72v-4.962c0-2.34,1.38-3.44,2.641-3.44a2.514,2.514,0,0,1,.94.16V824.3a3.564,3.564,0,0,0-.78-0.08,2.976,2.976,0,0,0-2.8,2.041V824.32h-1.72v10Zm20.822,0h1.52l3.4-10h-1.82l-2.421,7.3-2.5-7.3h-1.32l-2.5,7.3-2.421-7.3h-1.8l3.4,10h1.521l2.48-7.2Zm9.358-13.9a1.208,1.208,0,0,0-1.2-1.221,1.242,1.242,0,0,0-1.24,1.221,1.229,1.229,0,0,0,1.24,1.22A1.2,1.2,0,0,0,171.766,820.42Zm-2.08,13.9h1.72v-10h-1.72v10Zm10.9-.141v-1.54a3.8,3.8,0,0,1-1.22.2,1.44,1.44,0,0,1-1.66-1.7V825.9h2.88V824.32h-2.88v-2.78h-1.721v2.78h-2.12V825.9h2.12v5.461a2.816,2.816,0,0,0,3.061,3.061A4.756,4.756,0,0,0,180.587,834.182Zm2.7,0.141h1.72v-4.962c0-2.34,1.281-3.66,2.9-3.66,1.4,0,2.361,1.04,2.361,2.72v5.9h1.7v-6.162c0-2.48-1.54-4.041-3.781-4.041a3.538,3.538,0,0,0-3.181,1.741v-6.542h-1.72v15Zm22.741-.141v-1.54a3.8,3.8,0,0,1-1.22.2,1.44,1.44,0,0,1-1.66-1.7V825.9h2.88V824.32h-2.88v-2.78h-1.721v2.78h-2.12V825.9h2.12v5.461a2.816,2.816,0,0,0,3.061,3.061A4.756,4.756,0,0,0,206.027,834.182Zm2.7,0.141h1.721v-4.962c0-2.34,1.28-3.66,2.9-3.66,1.4,0,2.361,1.04,2.361,2.72v5.9h1.7v-6.162c0-2.48-1.54-4.041-3.781-4.041a3.535,3.535,0,0,0-3.18,1.741v-6.542h-1.721v15Zm11.5-5a5.273,5.273,0,0,0,9.682,2.821l-1.36-.94a3.541,3.541,0,0,1-6.581-1.54h8.2a4.907,4.907,0,0,0,.02-0.521c-0.02-3.2-2.141-5.021-4.762-5.021A5.069,5.069,0,0,0,220.226,829.321Zm5.141-3.68a2.992,2.992,0,0,1,3.061,2.62h-6.341A3.269,3.269,0,0,1,225.367,825.641Zm14.86,7.141a4.387,4.387,0,0,0,3.521,1.741,5.211,5.211,0,0,0,0-10.4,4.387,4.387,0,0,0-3.521,1.741v-6.542h-1.721v15h1.721v-1.541Zm6.661-3.461a3.407,3.407,0,1,1-3.4-3.62A3.415,3.415,0,0,1,246.888,829.321Zm3.938,0a5.274,5.274,0,0,0,9.683,2.821l-1.361-.94a3.541,3.541,0,0,1-6.581-1.54h8.2a4.907,4.907,0,0,0,.02-0.521c-0.02-3.2-2.141-5.021-4.761-5.021A5.069,5.069,0,0,0,250.826,829.321Zm5.142-3.68a2.992,2.992,0,0,1,3.06,2.62h-6.341A3.269,3.269,0,0,1,255.968,825.641Zm14.24,5.9c0-1.5-.94-2.461-2.64-3.021l-1.081-.36c-1.18-.38-1.54-0.76-1.54-1.4,0-.74.74-1.16,1.68-1.16a2.7,2.7,0,0,1,2.121,1.04l1.12-1.08a3.877,3.877,0,0,0-3.2-1.441c-1.98,0-3.38,1.1-3.38,2.721,0,1.4.86,2.38,2.48,2.9l0.98,0.32c1.3,0.42,1.781.9,1.781,1.6a1.523,1.523,0,0,1-1.761,1.36,2.684,2.684,0,0,1-2.56-1.58l-1.4.76a3.973,3.973,0,0,0,3.92,2.321C268.748,834.523,270.208,833.5,270.208,831.542Zm8.26,2.64v-1.54a3.8,3.8,0,0,1-1.22.2,1.44,1.44,0,0,1-1.661-1.7V825.9h2.881V824.32h-2.881v-2.78h-1.72v2.78h-2.12V825.9h2.12v5.461a2.816,2.816,0,0,0,3.061,3.061A4.756,4.756,0,0,0,278.468,834.182Zm8.079,0.141h1.72v-4.962c0-2.26,1.141-3.66,2.761-3.66,1.3,0,1.96,1.12,1.96,2.74v5.882h1.721v-4.962c0-2.26,1.12-3.66,2.74-3.66,1.3,0,1.981,1.12,1.981,2.74v5.882h1.72v-6.142c0-2.44-1.32-4.061-3.5-4.061a3.462,3.462,0,0,0-3.281,2.141,3.146,3.146,0,0,0-3.081-2.141,3.362,3.362,0,0,0-3.021,1.741V824.32h-1.72v10Zm20.281-13.9a1.208,1.208,0,0,0-1.2-1.221,1.242,1.242,0,0,0-1.24,1.221,1.229,1.229,0,0,0,1.24,1.22A1.2,1.2,0,0,0,306.828,820.42Zm-2.081,13.9h1.721v-10h-1.721v10Zm5.48,0h1.721v-15h-1.721v15Zm5.48,0h1.721v-15h-1.721v15Zm11.962-2.781c0-1.5-.94-2.461-2.641-3.021l-1.08-.36c-1.18-.38-1.54-0.76-1.54-1.4,0-.74.74-1.16,1.68-1.16a2.7,2.7,0,0,1,2.12,1.04l1.121-1.08a3.879,3.879,0,0,0-3.2-1.441c-1.981,0-3.381,1.1-3.381,2.721,0,1.4.86,2.38,2.481,2.9l0.98,0.32c1.3,0.42,1.78.9,1.78,1.6a1.522,1.522,0,0,1-1.76,1.36,2.685,2.685,0,0,1-2.561-1.58l-1.4.76a3.974,3.974,0,0,0,3.921,2.321C326.208,834.523,327.669,833.5,327.669,831.542Zm18-2.221a5.231,5.231,0,1,0-5.221,5.2A5.133,5.133,0,0,0,345.669,829.321Zm-8.7,0a3.473,3.473,0,1,1,3.481,3.6A3.438,3.438,0,0,1,336.967,829.321Zm11.66,5h1.721v-4.962c0-2.34,1.28-3.66,2.9-3.66,1.4,0,2.361,1.04,2.361,2.72v5.9h1.7v-6.162c0-2.48-1.54-4.041-3.781-4.041a3.535,3.535,0,0,0-3.18,1.741V824.32h-1.721v10Zm16.88-5a5.273,5.273,0,0,0,9.682,2.821l-1.36-.94a3.542,3.542,0,0,1-6.582-1.54h8.2a4.907,4.907,0,0,0,.02-0.521c-0.02-3.2-2.14-5.021-4.761-5.021A5.069,5.069,0,0,0,365.507,829.321Zm5.141-3.68a2.992,2.992,0,0,1,3.061,2.62h-6.342A3.271,3.271,0,0,1,370.648,825.641Zm6.979,3.68a5.006,5.006,0,0,0,4.9,5.2,4.387,4.387,0,0,0,3.521-1.741v1.541h1.721v-10h-1.721v1.541a4.387,4.387,0,0,0-3.521-1.741A5.006,5.006,0,0,0,377.627,829.321Zm8.562,0a3.417,3.417,0,1,1-3.4-3.62A3.415,3.415,0,0,1,386.189,829.321Zm5.319,5h1.72v-4.962c0-2.34,1.38-3.44,2.641-3.44a2.514,2.514,0,0,1,.94.16V824.3a3.564,3.564,0,0,0-.78-0.08,2.976,2.976,0,0,0-2.8,2.041V824.32h-1.72v10Zm13.241-.141v-1.54a3.8,3.8,0,0,1-1.22.2,1.44,1.44,0,0,1-1.661-1.7V825.9h2.881V824.32h-2.881v-2.78h-1.72v2.78h-2.121V825.9h2.121v5.461a2.816,2.816,0,0,0,3.061,3.061A4.756,4.756,0,0,0,404.749,834.182Zm2.7,0.141h1.72v-4.962c0-2.34,1.281-3.66,2.9-3.66,1.4,0,2.36,1.04,2.36,2.72v5.9h1.7v-6.162c0-2.48-1.541-4.041-3.781-4.041a3.537,3.537,0,0,0-3.181,1.741v-6.542h-1.72v15Zm22.741-.141v-1.54a3.8,3.8,0,0,1-1.22.2,1.44,1.44,0,0,1-1.661-1.7V825.9h2.881V824.32h-2.881v-2.78h-1.72v2.78h-2.12V825.9h2.12v5.461a2.816,2.816,0,0,0,3.061,3.061A4.756,4.756,0,0,0,430.189,834.182Zm12.221-4.861a5.231,5.231,0,1,0-5.221,5.2A5.133,5.133,0,0,0,442.41,829.321Zm-8.7,0a3.473,3.473,0,1,1,3.481,3.6A3.438,3.438,0,0,1,433.708,829.321Zm23.522,2.221c0-1.5-.94-2.461-2.641-3.021l-1.08-.36c-1.18-.38-1.541-0.76-1.541-1.4,0-.74.741-1.16,1.681-1.16a2.7,2.7,0,0,1,2.12,1.04l1.121-1.08a3.879,3.879,0,0,0-3.2-1.441c-1.981,0-3.381,1.1-3.381,2.721,0,1.4.86,2.38,2.481,2.9l0.98,0.32c1.3,0.42,1.78.9,1.78,1.6a1.522,1.522,0,0,1-1.76,1.36,2.685,2.685,0,0,1-2.561-1.58l-1.4.76a3.973,3.973,0,0,0,3.921,2.321C455.769,834.523,457.23,833.5,457.23,831.542Zm12.621-2.221a5.232,5.232,0,1,0-5.222,5.2A5.134,5.134,0,0,0,469.851,829.321Zm-8.7,0a3.473,3.473,0,1,1,3.481,3.6A3.438,3.438,0,0,1,461.148,829.321Zm11.52,1.141c0,2.48,1.481,4.061,3.681,4.061a3.443,3.443,0,0,0,3.081-1.741v1.541h1.72v-10h-1.72v4.961c0,2.3-1.22,3.661-2.781,3.661-1.38,0-2.26-1.06-2.26-2.74V824.32h-1.721v6.142Zm12.221,3.861h1.72v-4.962c0-2.34,1.38-3.44,2.641-3.44a2.514,2.514,0,0,1,.94.16V824.3a3.564,3.564,0,0,0-.78-0.08,2.976,2.976,0,0,0-2.8,2.041V824.32h-1.72v10Zm16.542-2.481-1.5-.84a3.391,3.391,0,0,1-3.121,1.92,3.6,3.6,0,0,1,0-7.2,3.391,3.391,0,0,1,3.121,1.92l1.5-.84a5.181,5.181,0,0,0-4.621-2.681,5.2,5.2,0,1,0,0,10.4A5.181,5.181,0,0,0,501.431,831.842Zm1.938-2.521a5.273,5.273,0,0,0,9.682,2.821l-1.36-.94a3.542,3.542,0,0,1-6.582-1.54h8.2a4.907,4.907,0,0,0,.02-0.521c-0.02-3.2-2.14-5.021-4.761-5.021A5.068,5.068,0,0,0,503.369,829.321Zm5.141-3.68a2.993,2.993,0,0,1,3.061,2.62h-6.342A3.27,3.27,0,0,1,508.51,825.641Zm-464.4,38.541v-1.54a3.8,3.8,0,0,1-1.22.2,1.44,1.44,0,0,1-1.66-1.7V855.9h2.881V854.32H41.225v-2.78H39.5v2.78h-2.12V855.9H39.5v5.461a2.816,2.816,0,0,0,3.061,3.061A4.758,4.758,0,0,0,44.105,864.182Zm2.7,0.141h1.72v-4.962c0-2.34,1.28-3.66,2.9-3.66,1.4,0,2.36,1.04,2.36,2.72v5.9h1.7v-6.162c0-2.48-1.54-4.041-3.781-4.041a3.536,3.536,0,0,0-3.181,1.741v-6.542H46.8v15Zm11.5-5a5.273,5.273,0,0,0,9.682,2.821l-1.36-.94a3.542,3.542,0,0,1-6.582-1.54h8.2a4.907,4.907,0,0,0,.02-0.521c-0.02-3.2-2.141-5.021-4.761-5.021A5.069,5.069,0,0,0,58.3,859.321Zm5.141-3.68a2.992,2.992,0,0,1,3.061,2.62H60.165A3.27,3.27,0,0,1,63.445,855.641Zm13.72,8.682h1.72V855.9h2.9V854.32h-2.9v-1.84a1.44,1.44,0,0,1,1.66-1.7,4.029,4.029,0,0,1,1.24.2v-1.521a4.548,4.548,0,0,0-1.56-.26,2.857,2.857,0,0,0-3.061,3.1v2.02H75.044V855.9h2.121v8.422Zm8.582-13.9a1.208,1.208,0,0,0-1.2-1.221,1.243,1.243,0,0,0-1.24,1.221,1.229,1.229,0,0,0,1.24,1.22A1.2,1.2,0,0,0,85.747,850.42Zm-2.081,13.9h1.72v-10h-1.72v10Zm5.458,0h1.72v-4.962c0-2.34,1.28-3.66,2.9-3.66,1.4,0,2.361,1.04,2.361,2.72v5.9h1.7v-6.162c0-2.48-1.54-4.041-3.781-4.041a3.536,3.536,0,0,0-3.181,1.741V854.32h-1.72v10Zm11.5-5a5.273,5.273,0,0,0,9.682,2.821l-1.36-.94a3.542,3.542,0,0,1-6.582-1.54h8.2a4.907,4.907,0,0,0,.02-0.521c-0.02-3.2-2.14-5.021-4.761-5.021A5.068,5.068,0,0,0,100.625,859.321Zm5.141-3.68a2.993,2.993,0,0,1,3.061,2.62h-6.342A3.27,3.27,0,0,1,105.766,855.641Zm14.241,5.9c0-1.5-.941-2.461-2.641-3.021l-1.08-.36c-1.18-.38-1.541-0.76-1.541-1.4,0-.74.741-1.16,1.681-1.16a2.7,2.7,0,0,1,2.12,1.04l1.121-1.08a3.879,3.879,0,0,0-3.2-1.441c-1.981,0-3.381,1.1-3.381,2.721,0,1.4.86,2.38,2.481,2.9l0.98,0.32c1.3,0.42,1.78.9,1.78,1.6a1.522,1.522,0,0,1-1.76,1.36,2.685,2.685,0,0,1-2.561-1.58l-1.4.76a3.973,3.973,0,0,0,3.921,2.321C118.546,864.523,120.007,863.5,120.007,861.542Zm8.26,2.64v-1.54a3.808,3.808,0,0,1-1.221.2,1.44,1.44,0,0,1-1.66-1.7V855.9h2.881V854.32h-2.881v-2.78h-1.721v2.78h-2.12V855.9h2.12v5.461a2.816,2.816,0,0,0,3.061,3.061A4.767,4.767,0,0,0,128.267,864.182Zm8.078,0.141h1.721v-4.962c0-2.26,1.14-3.66,2.76-3.66,1.3,0,1.961,1.12,1.961,2.74v5.882h1.72v-4.962c0-2.26,1.121-3.66,2.741-3.66,1.3,0,1.98,1.12,1.98,2.74v5.882h1.721v-6.142c0-2.44-1.321-4.061-3.5-4.061a3.463,3.463,0,0,0-3.281,2.141,3.145,3.145,0,0,0-3.081-2.141,3.362,3.362,0,0,0-3.02,1.741V854.32h-1.721v10Zm17.421-5a5.005,5.005,0,0,0,4.9,5.2,4.39,4.39,0,0,0,3.521-1.741v1.541h1.72v-10h-1.72v1.541a4.39,4.39,0,0,0-3.521-1.741A5.005,5.005,0,0,0,153.766,859.321Zm8.562,0a3.417,3.417,0,1,1-3.4-3.62A3.415,3.415,0,0,1,162.328,859.321Zm10.739,4.861v-1.54a3.8,3.8,0,0,1-1.22.2,1.44,1.44,0,0,1-1.661-1.7V855.9h2.881V854.32h-2.881v-2.78h-1.72v2.78h-2.12V855.9h2.12v5.461a2.816,2.816,0,0,0,3.061,3.061A4.756,4.756,0,0,0,173.067,864.182Zm1.779-4.861a5.273,5.273,0,0,0,9.682,2.821l-1.36-.94a3.542,3.542,0,0,1-6.582-1.54h8.2a4.907,4.907,0,0,0,.02-0.521c-0.02-3.2-2.14-5.021-4.761-5.021A5.069,5.069,0,0,0,174.846,859.321Zm5.141-3.68a2.992,2.992,0,0,1,3.061,2.62h-6.342A3.271,3.271,0,0,1,179.987,855.641Zm7.759,8.682h1.721v-4.962c0-2.34,1.38-3.44,2.64-3.44a2.519,2.519,0,0,1,.941.16V854.3a3.566,3.566,0,0,0-.781-0.08,2.976,2.976,0,0,0-2.8,2.041V854.32h-1.721v10Zm9.9-13.9a1.208,1.208,0,0,0-1.2-1.221,1.243,1.243,0,0,0-1.241,1.221,1.23,1.23,0,0,0,1.241,1.22A1.2,1.2,0,0,0,197.647,850.42Zm-2.08,13.9h1.72v-10h-1.72v10Zm4.7-5a5.006,5.006,0,0,0,4.9,5.2,4.387,4.387,0,0,0,3.521-1.741v1.541h1.721v-10h-1.721v1.541a4.387,4.387,0,0,0-3.521-1.741A5.006,5.006,0,0,0,200.266,859.321Zm8.562,0a3.417,3.417,0,1,1-3.4-3.62A3.415,3.415,0,0,1,208.828,859.321Zm5.319,5h1.72v-15h-1.72v15Zm11.961-2.781c0-1.5-.94-2.461-2.64-3.021l-1.081-.36c-1.18-.38-1.54-0.76-1.54-1.4,0-.74.74-1.16,1.68-1.16a2.7,2.7,0,0,1,2.121,1.04l1.12-1.08a3.877,3.877,0,0,0-3.2-1.441c-1.98,0-3.38,1.1-3.38,2.721,0,1.4.86,2.38,2.48,2.9l0.98,0.32c1.3,0.42,1.781.9,1.781,1.6a1.523,1.523,0,0,1-1.761,1.36,2.684,2.684,0,0,1-2.56-1.58l-1.4.76a3.975,3.975,0,0,0,3.921,2.321C224.648,864.523,226.108,863.5,226.108,861.542Zm2.639-1.96h10.1v-1.721h-10.1v1.721Zm15.24,3.2a4.388,4.388,0,0,0,3.521,1.741,5.211,5.211,0,0,0,0-10.4,4.388,4.388,0,0,0-3.521,1.741v-6.542h-1.72v15h1.72v-1.541Zm6.662-3.461a3.408,3.408,0,1,1-3.4-3.62A3.415,3.415,0,0,1,250.649,859.321Zm4.718,5h1.72v-15h-1.72v15Zm4.7-5a5.273,5.273,0,0,0,9.682,2.821l-1.36-.94a3.542,3.542,0,0,1-6.582-1.54h8.2a4.907,4.907,0,0,0,.02-0.521c-0.02-3.2-2.14-5.021-4.761-5.021A5.068,5.068,0,0,0,260.067,859.321Zm5.141-3.68a2.993,2.993,0,0,1,3.061,2.62h-6.342A3.27,3.27,0,0,1,265.208,855.641Zm7.759,8.682h1.721v-4.962c0-2.34,1.28-3.66,2.9-3.66,1.4,0,2.361,1.04,2.361,2.72v5.9h1.7v-6.162c0-2.48-1.54-4.041-3.781-4.041a3.535,3.535,0,0,0-3.18,1.741V854.32h-1.721v10Zm11.5-5a5.006,5.006,0,0,0,4.9,5.2,4.387,4.387,0,0,0,3.521-1.741v1.541h1.721v-15h-1.721v6.542a4.387,4.387,0,0,0-3.521-1.741A5.006,5.006,0,0,0,284.467,859.321Zm8.562,0a3.417,3.417,0,1,1-3.4-3.62A3.415,3.415,0,0,1,293.029,859.321Zm7.4-8.9a1.208,1.208,0,0,0-1.2-1.221,1.243,1.243,0,0,0-1.241,1.221,1.229,1.229,0,0,0,1.241,1.22A1.2,1.2,0,0,0,300.428,850.42Zm-2.081,13.9h1.721v-10h-1.721v10Zm5.48,0h1.721v-4.962c0-2.34,1.28-3.66,2.9-3.66,1.4,0,2.361,1.04,2.361,2.72v5.9h1.7v-6.162c0-2.48-1.54-4.041-3.78-4.041a3.536,3.536,0,0,0-3.181,1.741V854.32h-1.721v10Zm21.6-.581V854.32h-1.721v1.541a4.256,4.256,0,0,0-3.481-1.741,5.1,5.1,0,0,0,0,10.183,4.272,4.272,0,0,0,3.481-1.761v1.14a3.2,3.2,0,0,1-3.341,3.461,4.278,4.278,0,0,1-3.5-1.68l-1.2,1.2a5.94,5.94,0,0,0,4.721,2.04C323.229,868.7,325.43,867.083,325.43,863.742Zm-8.342-4.541a3.383,3.383,0,1,1,3.38,3.5A3.332,3.332,0,0,1,317.088,859.2Zm17.46,5.122h1.72v-4.962c0-2.34,1.28-3.66,2.9-3.66,1.4,0,2.36,1.04,2.36,2.72v5.9h1.7v-6.162c0-2.48-1.541-4.041-3.781-4.041a3.536,3.536,0,0,0-3.181,1.741V854.32h-1.72v10Zm11.5-5a5.006,5.006,0,0,0,4.9,5.2,4.386,4.386,0,0,0,3.52-1.741v1.541h1.721v-10h-1.721v1.541a4.386,4.386,0,0,0-3.52-1.741A5.006,5.006,0,0,0,346.047,859.321Zm8.563,0a3.417,3.417,0,1,1-3.4-3.62A3.415,3.415,0,0,1,354.61,859.321Zm10.739,4.861v-1.54a3.8,3.8,0,0,1-1.22.2,1.44,1.44,0,0,1-1.661-1.7V855.9h2.881V854.32h-2.881v-2.78h-1.72v2.78h-2.121V855.9h2.121v5.461a2.816,2.816,0,0,0,3.061,3.061A4.756,4.756,0,0,0,365.349,864.182Zm2.559-3.72c0,2.48,1.48,4.061,3.681,4.061a3.444,3.444,0,0,0,3.081-1.741v1.541h1.72v-10h-1.72v4.961c0,2.3-1.221,3.661-2.781,3.661-1.38,0-2.261-1.06-2.261-2.74V854.32h-1.72v6.142Zm12.22,3.861h1.721v-4.962c0-2.34,1.38-3.44,2.64-3.44a2.514,2.514,0,0,1,.94.16V854.3a3.564,3.564,0,0,0-.78-0.08,2.976,2.976,0,0,0-2.8,2.041V854.32h-1.721v10Zm6.7-5a5.006,5.006,0,0,0,4.9,5.2,4.387,4.387,0,0,0,3.521-1.741v1.541h1.721v-10H395.25v1.541a4.387,4.387,0,0,0-3.521-1.741A5.006,5.006,0,0,0,386.828,859.321Zm8.562,0a3.417,3.417,0,1,1-3.4-3.62A3.415,3.415,0,0,1,395.39,859.321Zm5.318,5h1.721v-15h-1.721v15Zm11.441,0h1.72V855.9h2.9V854.32h-2.9v-1.84a1.44,1.44,0,0,1,1.661-1.7,4.027,4.027,0,0,1,1.24.2v-1.521a4.545,4.545,0,0,0-1.56-.26,2.857,2.857,0,0,0-3.061,3.1v2.02h-2.121V855.9h2.121v8.422Zm8.582-13.9a1.208,1.208,0,0,0-1.2-1.221,1.243,1.243,0,0,0-1.241,1.221,1.229,1.229,0,0,0,1.241,1.22A1.2,1.2,0,0,0,420.731,850.42Zm-2.081,13.9h1.721v-10H418.65v10Zm7.179-1.541a4.388,4.388,0,0,0,3.521,1.741,5.211,5.211,0,0,0,0-10.4,4.388,4.388,0,0,0-3.521,1.741v-6.542h-1.72v15h1.72v-1.541Zm6.662-3.461a3.408,3.408,0,1,1-3.4-3.62A3.415,3.415,0,0,1,432.491,859.321Zm3.938,0a5.273,5.273,0,0,0,9.682,2.821l-1.36-.94a3.542,3.542,0,0,1-6.582-1.54h8.2a4.907,4.907,0,0,0,.02-0.521c-0.02-3.2-2.141-5.021-4.761-5.021A5.068,5.068,0,0,0,436.429,859.321Zm5.141-3.68a2.993,2.993,0,0,1,3.061,2.62h-6.342A3.269,3.269,0,0,1,441.57,855.641Zm7.759,8.682h1.72v-4.962c0-2.34,1.381-3.44,2.641-3.44a2.514,2.514,0,0,1,.94.16V854.3a3.564,3.564,0,0,0-.78-0.08,2.978,2.978,0,0,0-2.8,2.041V854.32h-1.72v10Zm14.122-2.781c0-1.5-.94-2.461-2.641-3.021l-1.08-.36c-1.18-.38-1.54-0.76-1.54-1.4,0-.74.74-1.16,1.68-1.16a2.7,2.7,0,0,1,2.121,1.04l1.12-1.08a3.878,3.878,0,0,0-3.2-1.441c-1.98,0-3.381,1.1-3.381,2.721,0,1.4.861,2.38,2.481,2.9l0.98,0.32c1.3,0.42,1.781.9,1.781,1.6a1.523,1.523,0,0,1-1.761,1.36,2.684,2.684,0,0,1-2.56-1.58l-1.4.76a3.974,3.974,0,0,0,3.921,2.321C461.991,864.523,463.451,863.5,463.451,861.542Zm16.461,2.781h1.52l3.4-10h-1.821l-2.42,7.3-2.5-7.3h-1.32l-2.5,7.3-2.42-7.3h-1.8l3.4,10h1.52l2.481-7.2Zm9.358-13.9a1.208,1.208,0,0,0-1.2-1.221,1.242,1.242,0,0,0-1.24,1.221,1.229,1.229,0,0,0,1.24,1.22A1.2,1.2,0,0,0,489.27,850.42Zm-2.08,13.9h1.72v-10h-1.72v10Zm10.9-.141v-1.54a3.8,3.8,0,0,1-1.22.2,1.44,1.44,0,0,1-1.661-1.7V855.9h2.881V854.32H495.21v-2.78h-1.72v2.78h-2.121V855.9h2.121v5.461a2.816,2.816,0,0,0,3.061,3.061A4.756,4.756,0,0,0,498.091,864.182Zm2.7,0.141h1.72v-4.962c0-2.34,1.281-3.66,2.9-3.66,1.4,0,2.36,1.04,2.36,2.72v5.9h1.7v-6.162c0-2.48-1.54-4.041-3.781-4.041a3.537,3.537,0,0,0-3.181,1.741v-6.542h-1.72v15ZM44.105,894.182v-1.54a3.8,3.8,0,0,1-1.22.2,1.44,1.44,0,0,1-1.66-1.7V885.9h2.881V884.32H41.225v-2.78H39.5v2.78h-2.12V885.9H39.5v5.461a2.816,2.816,0,0,0,3.061,3.061A4.758,4.758,0,0,0,44.105,894.182Zm2.7,0.141h1.72v-4.962c0-2.34,1.28-3.66,2.9-3.66,1.4,0,2.36,1.04,2.36,2.72v5.9h1.7v-6.162c0-2.48-1.54-4.041-3.781-4.041a3.536,3.536,0,0,0-3.181,1.741v-6.542H46.8v15Zm11.5-5a5.273,5.273,0,0,0,9.682,2.821l-1.36-.94a3.542,3.542,0,0,1-6.582-1.54h8.2a4.907,4.907,0,0,0,.02-0.521c-0.02-3.2-2.141-5.021-4.761-5.021A5.069,5.069,0,0,0,58.3,889.321Zm5.141-3.68a2.992,2.992,0,0,1,3.061,2.62H60.165A3.27,3.27,0,0,1,63.445,885.641Zm13.139,8.682H78.3v-15h-1.72v15Zm4.7-5a5.006,5.006,0,0,0,4.9,5.2,4.388,4.388,0,0,0,3.521-1.741v1.541h1.72v-10h-1.72v1.541a4.388,4.388,0,0,0-3.521-1.741A5.005,5.005,0,0,0,81.284,889.321Zm8.562,0a3.417,3.417,0,1,1-3.4-3.62A3.415,3.415,0,0,1,89.846,889.321Zm10.74,4.861v-1.54a3.8,3.8,0,0,1-1.22.2,1.44,1.44,0,0,1-1.66-1.7V885.9h2.881V884.32H97.705v-2.78h-1.72v2.78H93.864V885.9h2.121v5.461a2.816,2.816,0,0,0,3.061,3.061A4.759,4.759,0,0,0,100.586,894.182Zm1.779-4.861a5.273,5.273,0,0,0,9.682,2.821l-1.36-.94a3.542,3.542,0,0,1-6.582-1.54h8.2a4.907,4.907,0,0,0,.02-0.521c-0.02-3.2-2.14-5.021-4.761-5.021A5.068,5.068,0,0,0,102.365,889.321Zm5.141-3.68a2.993,2.993,0,0,1,3.061,2.62h-6.342A3.27,3.27,0,0,1,107.506,885.641Zm14.241,5.9c0-1.5-.941-2.461-2.641-3.021l-1.08-.36c-1.181-.38-1.541-0.76-1.541-1.4,0-.74.741-1.16,1.681-1.16a2.7,2.7,0,0,1,2.12,1.04l1.121-1.08a3.879,3.879,0,0,0-3.2-1.441c-1.981,0-3.381,1.1-3.381,2.721,0,1.4.86,2.38,2.481,2.9l0.98,0.32c1.3,0.42,1.78.9,1.78,1.6a1.522,1.522,0,0,1-1.76,1.36,2.685,2.685,0,0,1-2.561-1.58l-1.4.76a3.973,3.973,0,0,0,3.921,2.321C120.286,894.523,121.747,893.5,121.747,891.542Zm8.26,2.64v-1.54a3.813,3.813,0,0,1-1.221.2,1.44,1.44,0,0,1-1.66-1.7V885.9h2.881V884.32h-2.881v-2.78h-1.721v2.78h-2.12V885.9h2.12v5.461a2.816,2.816,0,0,0,3.061,3.061A4.767,4.767,0,0,0,130.007,894.182Zm10.159-13.762a1.208,1.208,0,0,0-1.2-1.221,1.242,1.242,0,0,0-1.24,1.221,1.229,1.229,0,0,0,1.24,1.22A1.2,1.2,0,0,0,140.166,880.42Zm-2.081,13.9h1.721v-10h-1.721v10Zm5.48,0h1.721v-4.962c0-2.34,1.28-3.66,2.9-3.66,1.4,0,2.361,1.04,2.361,2.72v5.9h1.7v-6.162c0-2.48-1.54-4.041-3.781-4.041a3.535,3.535,0,0,0-3.18,1.741V884.32h-1.721v10Zm12.28,0h1.721v-4.962c0-2.34,1.28-3.66,2.9-3.66,1.4,0,2.361,1.04,2.361,2.72v5.9h1.7v-6.162c0-2.48-1.54-4.041-3.78-4.041a3.536,3.536,0,0,0-3.181,1.741V884.32h-1.721v10Zm21.943-5a5.232,5.232,0,1,0-5.221,5.2A5.133,5.133,0,0,0,177.788,889.321Zm-8.7,0a3.473,3.473,0,1,1,3.481,3.6A3.437,3.437,0,0,1,169.086,889.321Zm14.561,5h1.44l4.621-10h-1.92l-3.421,7.562-3.421-7.562h-1.921Zm7.319-5a5.005,5.005,0,0,0,4.9,5.2,4.388,4.388,0,0,0,3.521-1.741v1.541h1.72v-10h-1.72v1.541a4.388,4.388,0,0,0-3.521-1.741A5.005,5.005,0,0,0,190.966,889.321Zm8.562,0a3.417,3.417,0,1,1-3.4-3.62A3.415,3.415,0,0,1,199.528,889.321Zm10.739,4.861v-1.54a3.8,3.8,0,0,1-1.22.2,1.44,1.44,0,0,1-1.66-1.7V885.9h2.88V884.32h-2.88v-2.78h-1.721v2.78h-2.12V885.9h2.12v5.461a2.816,2.816,0,0,0,3.061,3.061A4.756,4.756,0,0,0,210.267,894.182Zm4.78-13.762a1.208,1.208,0,0,0-1.2-1.221,1.242,1.242,0,0,0-1.24,1.221,1.229,1.229,0,0,0,1.24,1.22A1.2,1.2,0,0,0,215.047,880.42Zm-2.081,13.9h1.721v-10h-1.721v10Zm15.143-5a5.232,5.232,0,1,0-5.222,5.2A5.134,5.134,0,0,0,228.109,889.321Zm-8.7,0a3.473,3.473,0,1,1,3.481,3.6A3.438,3.438,0,0,1,219.406,889.321Zm11.66,5h1.721v-4.962c0-2.34,1.28-3.66,2.9-3.66,1.4,0,2.361,1.04,2.361,2.72v5.9h1.7v-6.162c0-2.48-1.54-4.041-3.78-4.041a3.536,3.536,0,0,0-3.181,1.741V884.32h-1.721v10Zm14.661-1.341a1.481,1.481,0,1,0-1.48,1.5A1.507,1.507,0,0,0,245.727,892.982Zm8.8,1.341h5.081c2.88,0,4.761-1.781,4.761-4.141a3.384,3.384,0,0,0-2.461-3.4,3.22,3.22,0,0,0,1.521-2.9c0-2-1.6-3.76-4.241-3.76h-4.661v14.2Zm1.86-8.1V881.8h2.8a2.233,2.233,0,0,1,2.42,2.22,2.186,2.186,0,0,1-2.42,2.2h-2.8Zm0,6.421v-4.821h3.321c1.88,0,2.84,1.04,2.84,2.421,0,1.4-.96,2.4-2.86,2.4h-3.3Zm10.18-3.321a5.005,5.005,0,0,0,4.9,5.2,4.39,4.39,0,0,0,3.521-1.741v1.541h1.72v-10h-1.72v1.541a4.39,4.39,0,0,0-3.521-1.741A5.005,5.005,0,0,0,266.567,889.321Zm8.562,0a3.417,3.417,0,1,1-3.4-3.62A3.415,3.415,0,0,1,275.129,889.321Zm5.318,5h1.72v-4.962c0-2.34,1.281-3.66,2.9-3.66,1.4,0,2.361,1.04,2.361,2.72v5.9h1.7v-6.162c0-2.48-1.54-4.041-3.781-4.041a3.537,3.537,0,0,0-3.181,1.741V884.32h-1.72v10Zm11.5-5a5.005,5.005,0,0,0,4.9,5.2,4.388,4.388,0,0,0,3.521-1.741v1.541h1.72v-10h-1.72v1.541a4.388,4.388,0,0,0-3.521-1.741A5.005,5.005,0,0,0,291.947,889.321Zm8.562,0a3.417,3.417,0,1,1-3.4-3.62A3.415,3.415,0,0,1,300.509,889.321Zm5.318,5h1.721v-4.962c0-2.34,1.28-3.66,2.9-3.66,1.4,0,2.361,1.04,2.361,2.72v5.9h1.7v-6.162c0-2.48-1.54-4.041-3.781-4.041a3.535,3.535,0,0,0-3.18,1.741V884.32h-1.721v10Zm11.5-5a5.006,5.006,0,0,0,4.9,5.2,4.387,4.387,0,0,0,3.521-1.741v1.541h1.72v-10h-1.72v1.541a4.387,4.387,0,0,0-3.521-1.741A5.006,5.006,0,0,0,317.327,889.321Zm8.562,0a3.417,3.417,0,1,1-3.4-3.62A3.415,3.415,0,0,1,325.889,889.321Zm10.958,5h1.861v-6.462h1.38l5.461,6.462h2.341l-5.461-6.482a3.7,3.7,0,0,0,3.5-3.8c0-2.34-1.62-3.92-4.241-3.92h-4.841v14.2Zm1.861-8.122V881.84h2.76c1.621,0,2.6.76,2.6,2.2,0,1.421-.98,2.161-2.6,2.161h-2.76Zm10,3.12a5.274,5.274,0,0,0,9.683,2.821l-1.361-.94a3.541,3.541,0,0,1-6.581-1.54h8.2a4.907,4.907,0,0,0,.02-0.521c-0.02-3.2-2.141-5.021-4.761-5.021A5.069,5.069,0,0,0,348.707,889.321Zm5.142-3.68a2.992,2.992,0,0,1,3.06,2.62h-6.341A3.269,3.269,0,0,1,353.849,885.641Zm7.759,12.862h1.72v-5.721a4.388,4.388,0,0,0,3.521,1.741,5.211,5.211,0,0,0,0-10.4,4.388,4.388,0,0,0-3.521,1.741V884.32h-1.72V898.5Zm8.382-9.182a3.408,3.408,0,1,1-3.4-3.62A3.415,3.415,0,0,1,369.99,889.321Zm4.6,1.141c0,2.48,1.48,4.061,3.681,4.061a3.444,3.444,0,0,0,3.081-1.741v1.541h1.72v-10h-1.72v4.961c0,2.3-1.221,3.661-2.781,3.661-1.38,0-2.261-1.06-2.261-2.74V884.32h-1.72v6.142Zm13.941,2.32a4.386,4.386,0,0,0,3.52,1.741,5.211,5.211,0,0,0,0-10.4,4.386,4.386,0,0,0-3.52,1.741v-6.542h-1.721v15h1.721v-1.541Zm6.661-3.461a3.407,3.407,0,1,1-3.4-3.62A3.415,3.415,0,0,1,395.19,889.321Zm4.718,5h1.721v-15h-1.721v15Zm7.561-13.9a1.208,1.208,0,0,0-1.2-1.221,1.242,1.242,0,0,0-1.24,1.221,1.229,1.229,0,0,0,1.24,1.22A1.2,1.2,0,0,0,407.469,880.42Zm-2.081,13.9h1.721v-10h-1.721v10Zm14.562-2.481-1.5-.84a3.39,3.39,0,0,1-3.121,1.92,3.6,3.6,0,0,1,0-7.2,3.39,3.39,0,0,1,3.121,1.92l1.5-.84a5.18,5.18,0,0,0-4.621-2.681,5.2,5.2,0,1,0,0,10.4A5.18,5.18,0,0,0,419.95,891.842Zm10.179-11.422a1.208,1.208,0,0,0-1.2-1.221,1.242,1.242,0,0,0-1.24,1.221,1.229,1.229,0,0,0,1.24,1.22A1.2,1.2,0,0,0,430.129,880.42Zm-2.081,13.9h1.721v-10h-1.721v10Zm11.962-2.781c0-1.5-.941-2.461-2.641-3.021l-1.08-.36c-1.18-.38-1.541-0.76-1.541-1.4,0-.74.741-1.16,1.681-1.16a2.7,2.7,0,0,1,2.12,1.04l1.121-1.08a3.879,3.879,0,0,0-3.2-1.441c-1.981,0-3.381,1.1-3.381,2.721,0,1.4.86,2.38,2.481,2.9l0.98,0.32c1.3,0.42,1.78.9,1.78,1.6a1.522,1.522,0,0,1-1.76,1.36,2.685,2.685,0,0,1-2.561-1.58l-1.4.76a3.973,3.973,0,0,0,3.921,2.321C438.549,894.523,440.01,893.5,440.01,891.542Zm7.558-2.221a5.005,5.005,0,0,0,4.9,5.2,4.388,4.388,0,0,0,3.521-1.741v1.541h1.72v-15h-1.72v6.542a4.388,4.388,0,0,0-3.521-1.741A5.005,5.005,0,0,0,447.568,889.321Zm8.562,0a3.417,3.417,0,1,1-3.4-3.62A3.415,3.415,0,0,1,456.13,889.321Zm4.538,0a5.273,5.273,0,0,0,9.682,2.821l-1.36-.94a3.542,3.542,0,0,1-6.582-1.54h8.2a4.907,4.907,0,0,0,.02-0.521c-0.02-3.2-2.14-5.021-4.761-5.021A5.069,5.069,0,0,0,460.668,889.321Zm5.141-3.68a2.992,2.992,0,0,1,3.061,2.62h-6.342A3.271,3.271,0,0,1,465.809,885.641Zm14.241,5.9c0-1.5-.94-2.461-2.641-3.021l-1.08-.36c-1.18-.38-1.54-0.76-1.54-1.4,0-.74.74-1.16,1.68-1.16a2.705,2.705,0,0,1,2.121,1.04l1.12-1.08a3.878,3.878,0,0,0-3.2-1.441c-1.98,0-3.381,1.1-3.381,2.721,0,1.4.86,2.38,2.481,2.9l0.98,0.32c1.3,0.42,1.781.9,1.781,1.6a1.523,1.523,0,0,1-1.761,1.36,2.684,2.684,0,0,1-2.56-1.58l-1.4.76a3.974,3.974,0,0,0,3.921,2.321C478.59,894.523,480.05,893.5,480.05,891.542Zm5.039-11.122a1.208,1.208,0,0,0-1.2-1.221,1.243,1.243,0,0,0-1.241,1.221,1.23,1.23,0,0,0,1.241,1.22A1.2,1.2,0,0,0,485.089,880.42Zm-2.081,13.9h1.721v-10h-1.721v10Zm14.8-.581V884.32H496.09v1.541a4.256,4.256,0,0,0-3.481-1.741,5.1,5.1,0,0,0,0,10.183,4.272,4.272,0,0,0,3.481-1.761v1.14a3.2,3.2,0,0,1-3.341,3.461,4.278,4.278,0,0,1-3.5-1.68l-1.2,1.2a5.94,5.94,0,0,0,4.721,2.04C495.61,898.7,497.811,897.083,497.811,893.742Zm-8.342-4.541a3.383,3.383,0,1,1,3.38,3.5A3.332,3.332,0,0,1,489.469,889.2Zm12.08,5.122h1.72v-4.962c0-2.34,1.28-3.66,2.9-3.66,1.4,0,2.36,1.04,2.36,2.72v5.9h1.7v-6.162c0-2.48-1.541-4.041-3.781-4.041a3.536,3.536,0,0,0-3.181,1.741V884.32h-1.72v10Zm11.5-5a5.273,5.273,0,0,0,9.682,2.821l-1.361-.94a3.541,3.541,0,0,1-6.581-1.54h8.2a4.907,4.907,0,0,0,.02-0.521c-0.02-3.2-2.141-5.021-4.761-5.021A5.068,5.068,0,0,0,513.049,889.321Zm5.141-3.68a2.992,2.992,0,0,1,3.06,2.62h-6.341A3.269,3.269,0,0,1,518.19,885.641Zm6.979,3.68a5.005,5.005,0,0,0,4.9,5.2,4.388,4.388,0,0,0,3.521-1.741v1.541h1.72v-15h-1.72v6.542a4.388,4.388,0,0,0-3.521-1.741A5.005,5.005,0,0,0,525.169,889.321Zm8.562,0a3.417,3.417,0,1,1-3.4-3.62A3.415,3.415,0,0,1,533.731,889.321ZM40.765,910.42a1.208,1.208,0,0,0-1.2-1.221,1.243,1.243,0,0,0-1.24,1.221,1.229,1.229,0,0,0,1.24,1.22A1.2,1.2,0,0,0,40.765,910.42Zm-2.08,13.9H40.4v-10h-1.72v10Zm5.48,0h1.72v-4.962c0-2.34,1.28-3.66,2.9-3.66,1.4,0,2.361,1.04,2.361,2.72v5.9h1.7v-6.162c0-2.48-1.54-4.041-3.781-4.041a3.536,3.536,0,0,0-3.181,1.741V914.32h-1.72v10Zm16.94-7.1a7.382,7.382,0,0,0,13.623,3.9l-1.56-.94a5.581,5.581,0,1,1,0-5.922l1.56-.94A7.382,7.382,0,0,0,61.1,917.221Zm15.54,2.1a5.006,5.006,0,0,0,4.9,5.2,4.387,4.387,0,0,0,3.521-1.741v1.541h1.72v-10h-1.72v1.541a4.387,4.387,0,0,0-3.521-1.741A5.005,5.005,0,0,0,76.644,919.321Zm8.562,0a3.417,3.417,0,1,1-3.4-3.62A3.415,3.415,0,0,1,85.206,919.321Zm5.318,5h1.721v-15H90.524v15Zm7.561-13.9a1.208,1.208,0,0,0-1.2-1.221,1.243,1.243,0,0,0-1.24,1.221,1.229,1.229,0,0,0,1.24,1.22A1.2,1.2,0,0,0,98.085,910.42ZM96,924.323h1.72v-10H96v10Zm6.321,0h1.72V915.9h2.9V914.32h-2.9v-1.84a1.44,1.44,0,0,1,1.66-1.7,4.029,4.029,0,0,1,1.241.2v-1.521a4.551,4.551,0,0,0-1.561-.26,2.857,2.857,0,0,0-3.06,3.1v2.02H100.2V915.9h2.121v8.422Zm16.4-5a5.231,5.231,0,1,0-5.221,5.2A5.133,5.133,0,0,0,118.727,919.321Zm-8.7,0a3.473,3.473,0,1,1,3.481,3.6A3.437,3.437,0,0,1,110.025,919.321Zm11.66,5h1.72v-4.962c0-2.34,1.381-3.44,2.641-3.44a2.514,2.514,0,0,1,.94.16V914.3a3.564,3.564,0,0,0-.78-0.08,2.977,2.977,0,0,0-2.8,2.041V914.32h-1.72v10Zm7.82,0h1.72v-4.962c0-2.34,1.281-3.66,2.9-3.66,1.4,0,2.361,1.04,2.361,2.72v5.9h1.7v-6.162c0-2.48-1.54-4.041-3.781-4.041a3.537,3.537,0,0,0-3.181,1.741V914.32h-1.72v10Zm14.361-13.9a1.209,1.209,0,0,0-1.2-1.221,1.242,1.242,0,0,0-1.24,1.221,1.229,1.229,0,0,0,1.24,1.22A1.2,1.2,0,0,0,143.866,910.42Zm-2.081,13.9h1.72v-10h-1.72v10Zm4.7-5a5.005,5.005,0,0,0,4.9,5.2,4.388,4.388,0,0,0,3.521-1.741v1.541h1.72v-10h-1.72v1.541a4.388,4.388,0,0,0-3.521-1.741A5.005,5.005,0,0,0,146.485,919.321Zm8.562,0a3.417,3.417,0,1,1-3.4-3.62A3.415,3.415,0,0,1,155.047,919.321Zm10.558,1.141c0,2.48,1.48,4.061,3.681,4.061a3.444,3.444,0,0,0,3.081-1.741v1.541h1.72v-10h-1.72v4.961c0,2.3-1.221,3.661-2.781,3.661-1.38,0-2.261-1.06-2.261-2.74V914.32h-1.72v6.142Zm18.7,1.08c0-1.5-.94-2.461-2.641-3.021l-1.08-.36c-1.18-.38-1.54-0.76-1.54-1.4,0-.74.74-1.16,1.68-1.16a2.7,2.7,0,0,1,2.12,1.04l1.121-1.08a3.879,3.879,0,0,0-3.2-1.441c-1.981,0-3.381,1.1-3.381,2.721,0,1.4.86,2.38,2.481,2.9l0.98,0.32c1.3,0.42,1.78.9,1.78,1.6a1.522,1.522,0,0,1-1.76,1.36,2.685,2.685,0,0,1-2.561-1.58l-1.4.76a3.974,3.974,0,0,0,3.921,2.321C182.846,924.523,184.307,923.5,184.307,921.542Zm5.039-11.122a1.208,1.208,0,0,0-1.2-1.221,1.242,1.242,0,0,0-1.24,1.221,1.229,1.229,0,0,0,1.24,1.22A1.2,1.2,0,0,0,189.346,910.42Zm-2.081,13.9h1.721v-10h-1.721v10Zm5.48,0h1.721v-4.962c0-2.34,1.28-3.66,2.9-3.66,1.4,0,2.361,1.04,2.361,2.72v5.9h1.7v-6.162c0-2.48-1.54-4.041-3.781-4.041a3.535,3.535,0,0,0-3.18,1.741V914.32h-1.721v10Zm21.6-.581V914.32h-1.721v1.541a4.256,4.256,0,0,0-3.481-1.741,5.1,5.1,0,0,0,0,10.183,4.272,4.272,0,0,0,3.481-1.761v1.14a3.2,3.2,0,0,1-3.341,3.461,4.278,4.278,0,0,1-3.5-1.68l-1.2,1.2a5.939,5.939,0,0,0,4.721,2.04C212.147,928.7,214.348,927.083,214.348,923.742Zm-8.342-4.541a3.383,3.383,0,1,1,3.38,3.5A3.332,3.332,0,0,1,206.006,919.2Zm17.459,9.3h1.721v-5.721a4.387,4.387,0,0,0,3.521,1.741,5.211,5.211,0,0,0,0-10.4,4.387,4.387,0,0,0-3.521,1.741V914.32h-1.721V928.5Zm8.382-9.182a3.407,3.407,0,1,1-3.4-3.62A3.415,3.415,0,0,1,231.847,919.321Zm4.739,5h1.72v-4.962c0-2.34,1.38-3.44,2.641-3.44a2.514,2.514,0,0,1,.94.16V914.3a3.564,3.564,0,0,0-.78-0.08,2.976,2.976,0,0,0-2.8,2.041V914.32h-1.72v10Zm6.68-5a5.273,5.273,0,0,0,9.682,2.821l-1.36-.94a3.542,3.542,0,0,1-6.582-1.54h8.2a4.907,4.907,0,0,0,.02-0.521c-0.02-3.2-2.14-5.021-4.761-5.021A5.068,5.068,0,0,0,243.266,919.321Zm5.141-3.68a2.993,2.993,0,0,1,3.061,2.62h-6.342A3.27,3.27,0,0,1,248.407,915.641Zm7.759,8.682h1.721v-4.962c0-2.26,1.14-3.66,2.76-3.66,1.3,0,1.961,1.12,1.961,2.74v5.882h1.72v-4.962c0-2.26,1.12-3.66,2.741-3.66,1.3,0,1.98,1.12,1.98,2.74v5.882h1.721v-6.142c0-2.44-1.321-4.061-3.5-4.061a3.462,3.462,0,0,0-3.281,2.141,3.145,3.145,0,0,0-3.081-2.141,3.362,3.362,0,0,0-3.02,1.741V914.32h-1.721v10Zm20.281-13.9a1.208,1.208,0,0,0-1.2-1.221,1.243,1.243,0,0,0-1.241,1.221,1.23,1.23,0,0,0,1.241,1.22A1.2,1.2,0,0,0,276.447,910.42Zm-2.08,13.9h1.72v-10h-1.72v10Zm5.34-3.861c0,2.48,1.48,4.061,3.68,4.061a3.442,3.442,0,0,0,3.081-1.741v1.541h1.721v-10h-1.721v4.961c0,2.3-1.22,3.661-2.781,3.661-1.38,0-2.26-1.06-2.26-2.74V914.32h-1.72v6.142Zm12.22,3.861h1.72v-4.962c0-2.26,1.14-3.66,2.761-3.66,1.3,0,1.96,1.12,1.96,2.74v5.882h1.721v-4.962c0-2.26,1.12-3.66,2.74-3.66,1.3,0,1.981,1.12,1.981,2.74v5.882h1.72v-6.142c0-2.44-1.32-4.061-3.5-4.061a3.462,3.462,0,0,0-3.28,2.141,3.146,3.146,0,0,0-3.081-2.141,3.364,3.364,0,0,0-3.021,1.741V914.32h-1.72v10Zm23.58,0h1.72v-4.962c0-2.26,1.141-3.66,2.761-3.66,1.3,0,1.961,1.12,1.961,2.74v5.882h1.72v-4.962c0-2.26,1.12-3.66,2.741-3.66,1.3,0,1.98,1.12,1.98,2.74v5.882h1.72v-6.142c0-2.44-1.32-4.061-3.5-4.061a3.462,3.462,0,0,0-3.281,2.141,3.145,3.145,0,0,0-3.081-2.141,3.365,3.365,0,0,0-3.021,1.741V914.32h-1.72v10Zm17.42-5a5.006,5.006,0,0,0,4.9,5.2,4.387,4.387,0,0,0,3.521-1.741v1.541h1.721v-10h-1.721v1.541a4.387,4.387,0,0,0-3.521-1.741A5.006,5.006,0,0,0,332.927,919.321Zm8.562,0a3.417,3.417,0,1,1-3.4-3.62A3.415,3.415,0,0,1,341.489,919.321Zm10.74,4.862v-1.541a3.8,3.8,0,0,1-1.22.2,1.44,1.44,0,0,1-1.661-1.7V915.9h2.881V914.32h-2.881v-2.78h-1.72v2.78h-2.121V915.9h2.121v5.461a2.816,2.816,0,0,0,3.06,3.061A4.787,4.787,0,0,0,352.229,924.183Zm1.779-4.862a5.273,5.273,0,0,0,9.682,2.821l-1.36-.94a3.542,3.542,0,0,1-6.582-1.54h8.2a4.907,4.907,0,0,0,.02-0.521c-0.02-3.2-2.14-5.021-4.761-5.021A5.068,5.068,0,0,0,354.008,919.321Zm5.141-3.68a2.993,2.993,0,0,1,3.061,2.62h-6.342A3.27,3.27,0,0,1,359.149,915.641Zm7.759,8.682h1.72v-4.962c0-2.34,1.381-3.44,2.641-3.44a2.514,2.514,0,0,1,.94.16V914.3a3.564,3.564,0,0,0-.78-0.08,2.978,2.978,0,0,0-2.8,2.041V914.32h-1.72v10Zm9.9-13.9a1.208,1.208,0,0,0-1.2-1.221,1.242,1.242,0,0,0-1.24,1.221,1.229,1.229,0,0,0,1.24,1.22A1.2,1.2,0,0,0,376.809,910.42Zm-2.081,13.9h1.721v-10h-1.721v10Zm4.7-5a5.006,5.006,0,0,0,4.9,5.2,4.387,4.387,0,0,0,3.521-1.741v1.541h1.72v-10h-1.72v1.541a4.387,4.387,0,0,0-3.521-1.741A5.006,5.006,0,0,0,379.428,919.321Zm8.562,0a3.417,3.417,0,1,1-3.4-3.62A3.415,3.415,0,0,1,387.99,919.321Zm5.318,5h1.721v-15h-1.721v15Zm11.962-2.781c0-1.5-.94-2.461-2.641-3.021l-1.08-.36c-1.18-.38-1.54-0.76-1.54-1.4,0-.74.74-1.16,1.68-1.16a2.705,2.705,0,0,1,2.121,1.04l1.12-1.08a3.878,3.878,0,0,0-3.2-1.441c-1.98,0-3.381,1.1-3.381,2.721,0,1.4.86,2.38,2.481,2.9l0.98,0.32c1.3,0.42,1.78.9,1.78,1.6a1.522,1.522,0,0,1-1.76,1.36,2.686,2.686,0,0,1-2.561-1.58l-1.4.76a3.974,3.974,0,0,0,3.921,2.321C403.81,924.523,405.27,923.5,405.27,921.542Zm14.82,0c0-1.5-.94-2.461-2.641-3.021l-1.08-.36c-1.18-.38-1.54-0.76-1.54-1.4,0-.74.74-1.16,1.68-1.16a2.7,2.7,0,0,1,2.12,1.04l1.121-1.08a3.878,3.878,0,0,0-3.2-1.441c-1.981,0-3.381,1.1-3.381,2.721,0,1.4.86,2.38,2.481,2.9l0.98,0.32c1.3,0.42,1.78.9,1.78,1.6a1.522,1.522,0,0,1-1.76,1.36,2.685,2.685,0,0,1-2.561-1.58l-1.4.76a3.974,3.974,0,0,0,3.921,2.321C418.629,924.523,420.09,923.5,420.09,921.542Zm12.621-2.221a5.232,5.232,0,1,0-5.222,5.2A5.134,5.134,0,0,0,432.711,919.321Zm-8.7,0a3.473,3.473,0,1,1,3.48,3.6A3.437,3.437,0,0,1,424.009,919.321Zm11.519,1.141c0,2.48,1.481,4.061,3.681,4.061a3.443,3.443,0,0,0,3.081-1.741v1.541h1.72v-10h-1.72v4.961c0,2.3-1.22,3.661-2.781,3.661-1.38,0-2.26-1.06-2.26-2.74V914.32h-1.721v6.142Zm12.221,3.861h1.72v-4.962c0-2.34,1.38-3.44,2.641-3.44a2.514,2.514,0,0,1,.94.16V914.3a3.564,3.564,0,0,0-.78-0.08,2.976,2.976,0,0,0-2.8,2.041V914.32h-1.72v10Zm16.542-2.481-1.5-.84a3.391,3.391,0,0,1-3.121,1.92,3.6,3.6,0,0,1,0-7.2,3.391,3.391,0,0,1,3.121,1.92l1.5-.84a5.181,5.181,0,0,0-4.621-2.681,5.2,5.2,0,1,0,0,10.4A5.181,5.181,0,0,0,464.291,921.842Zm1.938-2.521a5.273,5.273,0,0,0,9.682,2.821l-1.36-.94a3.542,3.542,0,0,1-6.582-1.54h8.2a4.907,4.907,0,0,0,.02-0.521c-0.02-3.2-2.14-5.021-4.761-5.021A5.068,5.068,0,0,0,466.229,919.321Zm5.141-3.68a2.993,2.993,0,0,1,3.061,2.62h-6.342A3.27,3.27,0,0,1,471.37,915.641Zm6.979,3.68a5.005,5.005,0,0,0,4.9,5.2,4.388,4.388,0,0,0,3.521-1.741v1.541h1.72v-15h-1.72v6.542a4.388,4.388,0,0,0-3.521-1.741A5.005,5.005,0,0,0,478.349,919.321Zm8.562,0a3.417,3.417,0,1,1-3.4-3.62A3.415,3.415,0,0,1,486.911,919.321Zm-447.387,35h1.72V945.9h2.9V944.32h-2.9v-1.84a1.44,1.44,0,0,1,1.66-1.7,4.029,4.029,0,0,1,1.24.2v-1.521a4.548,4.548,0,0,0-1.56-.26,2.857,2.857,0,0,0-3.061,3.1v2.02H37.4V945.9h2.121v8.422Zm7,0h1.72v-4.962c0-2.34,1.38-3.44,2.641-3.44a2.515,2.515,0,0,1,.94.16V944.3a3.565,3.565,0,0,0-.78-0.08,2.977,2.977,0,0,0-2.8,2.041V944.32h-1.72v10Zm17.123-5a5.231,5.231,0,1,0-5.221,5.2A5.133,5.133,0,0,0,63.647,949.321Zm-8.7,0a3.473,3.473,0,1,1,3.481,3.6A3.437,3.437,0,0,1,54.945,949.321Zm11.66,5h1.72v-4.962c0-2.26,1.14-3.66,2.761-3.66,1.3,0,1.96,1.12,1.96,2.74v5.882h1.72v-4.962c0-2.26,1.12-3.66,2.741-3.66,1.3,0,1.981,1.12,1.981,2.74v5.882h1.72v-6.142c0-2.44-1.32-4.061-3.5-4.061a3.462,3.462,0,0,0-3.281,2.141,3.145,3.145,0,0,0-3.081-2.141,3.363,3.363,0,0,0-3.021,1.741V944.32H66.6v10Zm22.8-5a5.006,5.006,0,0,0,4.9,5.2,4.387,4.387,0,0,0,3.521-1.741v1.541h1.72v-10h-1.72v1.541a4.387,4.387,0,0,0-3.521-1.741A5.005,5.005,0,0,0,89.4,949.321Zm8.562,0a3.417,3.417,0,1,1-3.4-3.62A3.415,3.415,0,0,1,97.967,949.321Zm5.318,5h1.72v-4.962c0-2.34,1.381-3.44,2.641-3.44a2.514,2.514,0,0,1,.94.16V944.3a3.564,3.564,0,0,0-.78-0.08,2.977,2.977,0,0,0-2.8,2.041V944.32h-1.72v10Zm17.123-5a5.232,5.232,0,1,0-5.222,5.2A5.134,5.134,0,0,0,120.408,949.321Zm-8.7,0a3.473,3.473,0,1,1,3.481,3.6A3.438,3.438,0,0,1,111.705,949.321Zm11.52,1.141c0,2.48,1.481,4.061,3.681,4.061a3.443,3.443,0,0,0,3.081-1.741v1.541h1.72v-10h-1.72v4.961c0,2.3-1.22,3.661-2.781,3.661-1.38,0-2.26-1.06-2.26-2.74V944.32h-1.721v6.142Zm12.221,3.861h1.72v-4.962c0-2.34,1.28-3.66,2.9-3.66,1.4,0,2.36,1.04,2.36,2.72v5.9h1.7v-6.162c0-2.48-1.541-4.041-3.781-4.041a3.536,3.536,0,0,0-3.181,1.741V944.32h-1.72v10Zm11.5-5a5.006,5.006,0,0,0,4.9,5.2,4.386,4.386,0,0,0,3.52-1.741v1.541h1.721v-15h-1.721v6.542a4.386,4.386,0,0,0-3.52-1.741A5.006,5.006,0,0,0,146.945,949.321Zm8.562,0a3.417,3.417,0,1,1-3.4-3.62A3.415,3.415,0,0,1,155.507,949.321Zm15.78,4.862v-1.541a3.8,3.8,0,0,1-1.22.2,1.44,1.44,0,0,1-1.661-1.7V945.9h2.881V944.32h-2.881v-2.78h-1.72v2.78h-2.121V945.9h2.121v5.461a2.816,2.816,0,0,0,3.061,3.061A4.786,4.786,0,0,0,171.287,954.183Zm2.7,0.14h1.72v-4.962c0-2.34,1.281-3.66,2.9-3.66,1.4,0,2.36,1.04,2.36,2.72v5.9h1.7v-6.162c0-2.48-1.54-4.041-3.781-4.041a3.537,3.537,0,0,0-3.181,1.741v-6.542h-1.72v15Zm11.5-5a5.273,5.273,0,0,0,9.682,2.821l-1.36-.94a3.542,3.542,0,0,1-6.582-1.54h8.2a4.907,4.907,0,0,0,.02-0.521c-0.02-3.2-2.14-5.021-4.761-5.021A5.068,5.068,0,0,0,185.486,949.321Zm5.141-3.68a2.993,2.993,0,0,1,3.061,2.62h-6.342A3.27,3.27,0,0,1,190.627,945.641Zm21.261,8.682h1.521l3.4-10h-1.82l-2.421,7.3-2.5-7.3h-1.321l-2.5,7.3-2.421-7.3h-1.8l3.4,10h1.52l2.481-7.2Zm16.9-5a5.232,5.232,0,1,0-5.222,5.2A5.134,5.134,0,0,0,228.789,949.321Zm-8.7,0a3.473,3.473,0,1,1,3.48,3.6A3.437,3.437,0,0,1,220.087,949.321Zm11.659,5h1.721v-4.962c0-2.34,1.38-3.44,2.64-3.44a2.516,2.516,0,0,1,.941.16V944.3a3.566,3.566,0,0,0-.781-0.08,2.976,2.976,0,0,0-2.8,2.041V944.32h-1.721v10Zm7.821,0h1.72v-15h-1.72v15Zm4.7-5a5.006,5.006,0,0,0,4.9,5.2,4.386,4.386,0,0,0,3.52-1.741v1.541h1.721v-15h-1.721v6.542a4.386,4.386,0,0,0-3.52-1.741A5.006,5.006,0,0,0,244.266,949.321Zm8.562,0a3.417,3.417,0,1,1-3.4-3.62A3.415,3.415,0,0,1,252.828,949.321Zm7.7,3.661a1.48,1.48,0,1,0-1.48,1.5A1.507,1.507,0,0,0,260.527,952.982Z"/>
  <path id="OUR_FABRICS_ARE_THE_TREASURES" data-name="OUR FABRICS ARE THE TREASURES" class="cls-1" d="M53.011,740.547a14.52,14.52,0,1,0-14.52-14.52A14.555,14.555,0,0,0,53.011,740.547Zm0-6.093a8.432,8.432,0,1,1,8.15-8.427A8.334,8.334,0,0,1,53.011,734.454Zm32.513,6.093c6.726,0,11.553-4.59,11.553-11.592V711.982H90.786v17.052c0,3.363-2.136,5.42-5.262,5.42s-5.262-2.057-5.262-5.42V711.982H73.971v16.973C73.971,735.957,78.758,740.547,85.524,740.547Zm19.572-.475h6.29V728.48h1.029l9.337,11.592h7.557l-9.931-12.383c3.561-1.266,5.5-3.6,5.5-7.24a8.294,8.294,0,0,0-8.7-8.467H105.1v28.09Zm6.29-16.933v-5.381h4.036c1.859,0,3.2.989,3.2,2.691,0,1.622-1.346,2.69-3.2,2.69h-4.036Zm32.6,16.933h6.291v-11h8.585V723.06h-8.585V718h11v-6.014h-17.29v28.09Zm18.575,0h6.568l2.492-5.935h11.632l2.493,5.935h6.567l-12.027-28.09h-5.7Zm11.355-11.394,3.521-8.467,3.521,8.467h-7.042Zm23.728,11.394h12.344a8.3,8.3,0,0,0,8.546-8.269,7.339,7.339,0,0,0-4-6.646,6.614,6.614,0,0,0,2.018-4.827,8.35,8.35,0,0,0-8.348-8.348H197.64v28.09Zm6.291-16.735v-5.618h3.56a2.854,2.854,0,0,1,2.928,2.848,2.816,2.816,0,0,1-2.928,2.77h-3.56Zm0,10.959v-5.618h5.5a2.858,2.858,0,0,1,2.967,2.809,2.823,2.823,0,0,1-2.927,2.809h-5.539Zm21.231,5.776h6.29V728.48h1.029l9.337,11.592h7.557l-9.931-12.383c3.561-1.266,5.5-3.6,5.5-7.24a8.294,8.294,0,0,0-8.7-8.467H225.162v28.09Zm6.29-16.933v-5.381h4.036c1.86,0,3.205.989,3.205,2.691,0,1.622-1.345,2.69-3.205,2.69h-4.036Zm22.3,16.933h6.291v-28.09h-6.291v28.09Zm27.55,0.475a14.52,14.52,0,0,0,13.135-7.676l-5.539-3.006a8.428,8.428,0,1,1,0-7.676l5.539-3.006A14.644,14.644,0,1,0,281.3,740.547Zm27.6,0c5.935,0,10.01-3.561,10.049-8.665,0.04-4.233-2.611-6.923-6.686-8.387l-1.978-.712c-2.967-1.068-4.352-1.741-4.352-3.244,0-1.464,1.7-2.137,3.4-2.137a6.249,6.249,0,0,1,4.867,2.335l4.114-4.352a11.721,11.721,0,0,0-9.06-3.878c-5.618,0-9.693,3.205-9.693,8.665,0,3.837,2.532,6.567,7.082,8.11l1.978,0.673c2.809,0.949,3.917,1.938,3.917,3.363,0,1.345-1.306,2.334-3.4,2.334a7.347,7.347,0,0,1-5.815-3.205l-4.827,4.075A12.318,12.318,0,0,0,308.907,740.547Zm23.69-.475h6.568l2.492-5.935h11.632l2.493,5.935h6.567l-12.027-28.09h-5.7Zm11.355-11.394,3.521-8.467,3.521,8.467h-7.042Zm23.728,11.394h6.291V728.48H375l9.337,11.592h7.557l-9.93-12.383c3.56-1.266,5.5-3.6,5.5-7.24a8.293,8.293,0,0,0-8.7-8.467H367.68v28.09Zm6.291-16.933v-5.381h4.035c1.86,0,3.205.989,3.205,2.691,0,1.622-1.345,2.69-3.205,2.69h-4.035Zm22.3,16.933h17.8v-6.014H402.561v-5.024h9.14V723.02h-9.14V718h11.513v-6.014h-17.8v28.09ZM45.138,779.739h6.33V757.663h7.24v-6.014H37.977v6.014h7.161v22.076Zm19.8,0h6.291V768.622H82.548v11.117h6.291v-28.09H82.548v11H71.233v-11H64.942v28.09Zm32.234,0h17.8v-6.014H103.467V768.7h9.139v-6.014h-9.139v-5.024H114.98v-6.014h-17.8v28.09Zm39.991,0H143.5V757.663h7.24v-6.014H130.006v6.014h7.161v22.076Zm19.805,0h6.29V768.147h1.029l9.337,11.592h7.557l-9.931-12.383c3.561-1.266,5.5-3.6,5.5-7.24a8.294,8.294,0,0,0-8.7-8.467H156.972v28.09Zm6.29-16.933v-5.381H167.3c1.859,0,3.2.99,3.2,2.691,0,1.622-1.346,2.69-3.2,2.69h-4.036Zm22.3,16.933h17.8v-6.014H191.853V768.7h9.139v-6.014h-9.139v-5.024h11.513v-6.014h-17.8v28.09Zm21.981,0h6.568l2.492-5.934h11.632l2.493,5.934H237.3l-12.027-28.09h-5.7ZM218.9,768.345l3.521-8.467,3.521,8.467H218.9Zm31.363,11.869c5.935,0,10.01-3.561,10.049-8.665,0.04-4.233-2.611-6.923-6.686-8.387l-1.978-.712c-2.967-1.068-4.352-1.741-4.352-3.244,0-1.464,1.7-2.137,3.4-2.137a6.249,6.249,0,0,1,4.867,2.335l4.114-4.352a11.72,11.72,0,0,0-9.06-3.877c-5.618,0-9.693,3.2-9.693,8.664,0,3.837,2.532,6.567,7.082,8.11l1.978,0.673c2.809,0.949,3.917,1.938,3.917,3.363,0,1.345-1.306,2.334-3.4,2.334a7.348,7.348,0,0,1-5.816-3.2l-4.827,4.075A12.318,12.318,0,0,0,250.261,780.214Zm28.034,0c6.726,0,11.553-4.59,11.553-11.592V751.649h-6.291V768.7c0,3.363-2.137,5.42-5.262,5.42s-5.262-2.057-5.262-5.42V751.649h-6.291v16.973C266.742,775.624,271.529,780.214,278.3,780.214Zm19.572-.475h6.291V768.147h1.028l9.337,11.592h7.557l-9.93-12.383c3.56-1.266,5.5-3.6,5.5-7.24a8.294,8.294,0,0,0-8.7-8.467H297.867v28.09Zm6.291-16.933v-5.381h4.035c1.86,0,3.205.99,3.205,2.691,0,1.622-1.345,2.69-3.205,2.69h-4.035Zm22.3,16.933h17.8v-6.014H332.748V768.7h9.14v-6.014h-9.14v-5.024h11.513v-6.014h-17.8v28.09Zm33.375,0.475c5.934,0,10.009-3.561,10.049-8.665,0.04-4.233-2.611-6.923-6.686-8.387l-1.979-.712c-2.967-1.068-4.352-1.741-4.352-3.244,0-1.464,1.7-2.137,3.4-2.137a6.247,6.247,0,0,1,4.866,2.335l4.115-4.352a11.721,11.721,0,0,0-9.06-3.877c-5.618,0-9.693,3.2-9.693,8.664,0,3.837,2.532,6.567,7.082,8.11l1.978,0.673c2.809,0.949,3.917,1.938,3.917,3.363,0,1.345-1.306,2.334-3.4,2.334a7.349,7.349,0,0,1-5.816-3.2l-4.827,4.075A12.32,12.32,0,0,0,359.833,780.214Z"/>
</svg>
