<svg id="Copy_copy_12" data-name="Copy copy 12" xmlns="http://www.w3.org/2000/svg" width="672" height="1097" viewBox="0 0 672 1097">
  <metadata><?xpacket begin="﻿" id="W5M0MpCehiHzreSzNTczkc9d"?>
<x:xmpmeta xmlns:x="adobe:ns:meta/" x:xmptk="Adobe XMP Core 5.6-c138 79.159824, 2016/09/14-01:09:01        ">
   <rdf:RDF xmlns:rdf="http://www.w3.org/1999/02/22-rdf-syntax-ns#">
      <rdf:Description rdf:about=""/>
   </rdf:RDF>
</x:xmpmeta>
                                                                                                    
                                                                                                    
                                                                                                    
                                                                                                    
                                                                                                    
                                                                                                    
                                                                                                    
                                                                                                    
                                                                                                    
                                                                                                    
                                                                                                    
                                                                                                    
                                                                                                    
                                                                                                    
                                                                                                    
                                                                                                    
                                                                                                    
                                                                                                    
                                                                                                    
                                                                                                    
                           
<?xpacket end="w"?></metadata>
<defs>
    <style>
      .cls-1 {
        fill-rule: evenodd;
      }
    </style>
  </defs>
  <path id="Archival_Banana_Republic_Flightsuit_1980_Not_available_for_sa" data-name="Archival Banana Republic Flightsuit, 1980  Not available for sa" class="cls-1" d="M88.367,881.146h3.32l1.26-3h5.88l1.26,3h3.32l-6.08-14.2h-2.88Zm5.74-5.76,1.78-4.28,1.78,4.28h-3.56Zm12.38,5.76h3.18v-5.86h0.52l4.72,5.86h3.82l-5.02-6.26a3.665,3.665,0,0,0,2.78-3.66,4.192,4.192,0,0,0-4.4-4.279h-5.6v14.2Zm3.18-8.56v-2.719h2.04a1.414,1.414,0,0,1,1.62,1.359,1.437,1.437,0,0,1-1.62,1.36h-2.04Zm17.68,8.8a7.34,7.34,0,0,0,6.64-3.88l-2.8-1.52a4.259,4.259,0,1,1,0-3.88l2.8-1.52A7.4,7.4,0,1,0,127.346,881.386Zm10.1-.24h3.18v-5.62h5.72v5.62h3.18v-14.2h-3.18v5.559h-5.72v-5.559h-3.18v14.2Zm16.68,0h3.18v-14.2h-3.18v14.2Zm12.12,0h2.86l5.82-14.2h-3.5l-3.76,9.459-3.78-9.459h-3.46Zm8.6,0h3.32l1.26-3h5.88l1.26,3h3.32l-6.08-14.2h-2.88Zm5.74-5.76,1.78-4.28,1.78,4.28h-3.56Zm12.38,5.76h9.06v-3.04h-5.88V866.947h-3.18v14.2Zm18.1,0h6.239a4.2,4.2,0,0,0,4.32-4.18,3.711,3.711,0,0,0-2.02-3.36,3.342,3.342,0,0,0,1.02-2.44,4.22,4.22,0,0,0-4.219-4.219h-5.34v14.2Zm3.18-8.46v-2.839h1.8a1.442,1.442,0,0,1,1.479,1.439,1.423,1.423,0,0,1-1.479,1.4h-1.8Zm0,5.54v-2.84h2.78a1.444,1.444,0,0,1,1.5,1.42,1.427,1.427,0,0,1-1.479,1.42h-2.8Zm9.2,2.92h3.32l1.26-3h5.88l1.26,3h3.32l-6.08-14.2h-2.88Zm5.74-5.76,1.78-4.28,1.78,4.28h-3.56Zm25.219,5.76v-14.2h-3.2v8.759l-6.9-8.759h-2.74v14.2h3.18v-8.78l6.92,8.78h2.739Zm3.081,0h3.319l1.26-3h5.88l1.26,3h3.32l-6.08-14.2h-2.88Zm5.739-5.76,1.78-4.28,1.78,4.28h-3.56Zm25.22,5.76v-14.2h-3.2v8.759l-6.9-8.759h-2.739v14.2h3.179v-8.78l6.92,8.78h2.74Zm3.08,0h3.32l1.26-3h5.88l1.26,3h3.32l-6.08-14.2h-2.88Zm5.74-5.76,1.78-4.28,1.78,4.28h-3.56Zm17.78,5.76h3.18v-5.86h0.52l4.72,5.86h3.82l-5.02-6.26a3.665,3.665,0,0,0,2.78-3.66,4.192,4.192,0,0,0-4.4-4.279h-5.6v14.2Zm3.18-8.56v-2.719h2.04a1.414,1.414,0,0,1,1.62,1.359,1.437,1.437,0,0,1-1.62,1.36h-2.04Zm11.66,8.56h9v-3.04h-5.82v-2.54h4.62v-3.04h-4.62v-2.54h5.82v-3.039h-9v14.2Zm22.84-9.34a4.836,4.836,0,0,0-5-4.859h-4.82v14.2h3.18v-4.5h1.64A4.82,4.82,0,0,0,352.725,871.806Zm-3.08,0a1.869,1.869,0,0,1-1.96,1.86h-1.6v-3.72h1.6A1.857,1.857,0,0,1,349.645,871.806Zm12.4,9.58a5.569,5.569,0,0,0,5.84-5.86v-8.579H364.7v8.619a2.661,2.661,0,1,1-5.32,0v-8.619h-3.179v8.579A5.558,5.558,0,0,0,362.044,881.386Zm10.28-.24h6.24a4.2,4.2,0,0,0,4.32-4.18,3.711,3.711,0,0,0-2.02-3.36,3.342,3.342,0,0,0,1.02-2.44,4.221,4.221,0,0,0-4.22-4.219h-5.34v14.2Zm3.18-8.46v-2.839h1.8a1.442,1.442,0,0,1,1.48,1.439,1.423,1.423,0,0,1-1.48,1.4h-1.8Zm0,5.54v-2.84h2.78a1.445,1.445,0,0,1,1.5,1.42,1.427,1.427,0,0,1-1.48,1.42h-2.8Zm11.12,2.92h9.06v-3.04H389.8V866.947h-3.18v14.2Zm12.64,0h3.18v-14.2h-3.18v14.2Zm14.32,0.24a7.337,7.337,0,0,0,6.639-3.88l-2.8-1.52a4.259,4.259,0,1,1,0-3.88l2.8-1.52A7.4,7.4,0,1,0,413.584,881.386Zm-323.7,29.76h3.18v-5.56h4.34v-3.04h-4.34v-2.56h5.56v-3.039h-8.74v14.2Zm12.5,0h9.06v-3.04h-5.88V896.947h-3.18v14.2Zm12.64,0h3.18v-14.2h-3.18v14.2Zm14.72,0.24c2.3,0,4.56-.68,5.82-2.1v-6.74h-5.88v2.98h2.78v2.1a4.626,4.626,0,0,1-2.76.68,4.263,4.263,0,1,1-.2-8.52,4.716,4.716,0,0,1,3.58,1.52l2.24-2.179a7.555,7.555,0,0,0-5.82-2.42,7.253,7.253,0,0,0-7.48,7.339A7.375,7.375,0,0,0,129.746,911.386Zm9.92-.24h3.18v-5.62h5.72v5.62h3.179v-14.2h-3.179v5.559h-5.72v-5.559h-3.18v14.2Zm19.24,0h3.2v-11.16h3.659v-3.039H155.286v3.039h3.62v11.16Zm14.44,0.24c3,0,5.059-1.8,5.079-4.38,0.02-2.14-1.32-3.5-3.38-4.24l-1-.36c-1.5-.54-2.2-0.88-2.2-1.64,0-.74.86-1.08,1.72-1.08a3.158,3.158,0,0,1,2.459,1.18l2.08-2.2a5.925,5.925,0,0,0-4.579-1.96c-2.84,0-4.9,1.62-4.9,4.379,0,1.94,1.28,3.32,3.58,4.1l1,0.34c1.419,0.48,1.979.98,1.979,1.7,0,0.68-.66,1.18-1.719,1.18a3.715,3.715,0,0,1-2.94-1.62l-2.44,2.06A6.227,6.227,0,0,0,173.346,911.386Zm14.559,0a5.569,5.569,0,0,0,5.84-5.86v-8.579h-3.18v8.619a2.661,2.661,0,1,1-5.32,0v-8.619h-3.18v8.579A5.558,5.558,0,0,0,187.905,911.386Zm10.28-.24h3.18v-14.2h-3.18v14.2Zm10.34,0h3.2v-11.16h3.66v-3.039h-10.48v3.039h3.62v11.16Zm12.02-.6a2.739,2.739,0,0,0,.44-1.38,2.14,2.14,0,0,0-4.28,0,2.165,2.165,0,0,0,1.3,1.98l-1.5,3.1h1.74Zm11.819,0.6h3.02v-14.2h-3.94l-2.16,2.979h3.08v11.22Zm7.5,0h3.72l3.98-5.66c1.12-1.6,1.68-2.4,1.68-3.82a5,5,0,0,0-10-.02,4.408,4.408,0,0,0,4.1,4.52Zm4.38-7.54a2,2,0,0,1,0-4A2,2,0,0,1,244.244,903.606Zm13.2,7.76c2.88,0,5.12-1.9,5.12-4.6a3.679,3.679,0,0,0-1.72-3.34,3.753,3.753,0,0,0,1.16-2.82c0-2.239-1.8-3.9-4.56-3.9s-4.56,1.66-4.56,3.9a3.78,3.78,0,0,0,1.14,2.82,3.706,3.706,0,0,0-1.7,3.34C252.324,909.466,254.564,911.366,257.444,911.366Zm0-8.96a1.524,1.524,0,1,1,1.64-1.52A1.549,1.549,0,0,1,257.444,902.406Zm0,6.18a1.9,1.9,0,1,1,2-1.9A1.9,1.9,0,0,1,257.444,908.586Zm13.86,2.78c3.16,0,5.36-2.4,5.36-5.68v-3.3c0-3.279-2.2-5.679-5.36-5.679a5.324,5.324,0,0,0-5.38,5.679v3.3A5.325,5.325,0,0,0,271.3,911.366Zm0-2.98c-1.4,0-2.36-1-2.36-2.7v-3.3c0-1.7.96-2.7,2.36-2.7,1.38,0,2.34,1,2.34,2.7v3.3C273.644,907.386,272.684,908.386,271.3,908.386Zm30.408,2.76V900.492h-1.38v8.3l-6.483-8.3h-1.215v10.654h1.395v-8.3l6.483,8.3h1.2Zm10.95-3.751a3.924,3.924,0,1,0-3.917,3.9A3.851,3.851,0,0,0,312.662,907.4Zm-6.528,0a2.605,2.605,0,1,1,2.611,2.7A2.579,2.579,0,0,1,306.134,907.4Zm13.5,3.646v-1.155a2.851,2.851,0,0,1-.915.15,1.08,1.08,0,0,1-1.245-1.276v-3.931h2.16v-1.186h-2.16v-2.086h-1.291v2.086h-1.591v1.186h1.591v4.1a2.112,2.112,0,0,0,2.3,2.3A3.589,3.589,0,0,0,319.635,911.041Zm7.123-3.646a3.754,3.754,0,0,0,3.677,3.9,3.291,3.291,0,0,0,2.641-1.305v1.155h1.29v-7.5h-1.29V904.8a3.289,3.289,0,0,0-2.641-1.306A3.755,3.755,0,0,0,326.758,907.4Zm6.423,0a2.563,2.563,0,1,1-2.551-2.716A2.562,2.562,0,0,1,333.181,907.4Zm7.153,3.751h1.081l3.466-7.5h-1.44l-2.566,5.673-2.567-5.673h-1.44Zm6.314-3.751a3.754,3.754,0,0,0,3.677,3.9,3.292,3.292,0,0,0,2.641-1.305v1.155h1.29v-7.5h-1.29V904.8a3.29,3.29,0,0,0-2.641-1.306A3.755,3.755,0,0,0,346.648,907.4Zm6.423,0a2.563,2.563,0,1,1-2.551-2.716A2.562,2.562,0,0,1,353.071,907.4Zm6.373-6.678a0.906,0.906,0,0,0-.9-0.915,0.932,0.932,0,0,0-.93.915,0.922,0.922,0,0,0,.93.915A0.9,0.9,0,0,0,359.444,900.717Zm-1.561,10.429h1.291v-7.5h-1.291v7.5Zm4.935,0h1.291V899.892h-1.291v11.254Zm4.35-3.751a3.753,3.753,0,0,0,3.676,3.9,3.289,3.289,0,0,0,2.641-1.305v1.155h1.291v-7.5h-1.291V904.8a3.287,3.287,0,0,0-2.641-1.306A3.754,3.754,0,0,0,367.168,907.4Zm6.422,0a2.563,2.563,0,1,1-2.551-2.716A2.562,2.562,0,0,1,373.59,907.4Zm6.1,2.6a3.291,3.291,0,0,0,2.641,1.305,3.908,3.908,0,0,0,0-7.8,3.289,3.289,0,0,0-2.641,1.306v-4.907H378.4v11.254h1.29v-1.155Zm5-2.6a2.556,2.556,0,1,1-2.551-2.716A2.562,2.562,0,0,1,384.69,907.4Zm4.363,3.751h1.29V899.892h-1.29v11.254ZM393.4,907.4a3.956,3.956,0,0,0,7.263,2.116l-1.02-.706a2.656,2.656,0,0,1-4.937-1.155h6.152a3.66,3.66,0,0,0,.015-0.39,3.5,3.5,0,0,0-3.571-3.767A3.8,3.8,0,0,0,393.4,907.4Zm3.857-2.761a2.245,2.245,0,0,1,2.3,1.965H394.8A2.452,2.452,0,0,1,397.259,904.634Zm11.939,6.512h1.29v-6.317h2.176v-1.186h-2.176v-1.38a1.081,1.081,0,0,1,1.246-1.276,3.021,3.021,0,0,1,.93.15V900a3.409,3.409,0,0,0-1.17-.195,2.143,2.143,0,0,0-2.3,2.326v1.515h-1.591v1.186H409.2v6.317Zm13.127-3.751a3.924,3.924,0,1,0-3.916,3.9A3.85,3.85,0,0,0,422.325,907.4Zm-6.527,0a2.605,2.605,0,1,1,2.611,2.7A2.578,2.578,0,0,1,415.8,907.4Zm9.569,3.751h1.291v-3.721c0-1.756,1.035-2.581,1.981-2.581a1.886,1.886,0,0,1,.7.12v-1.336a2.673,2.673,0,0,0-.585-0.06,2.231,2.231,0,0,0-2.1,1.531v-1.456h-1.291v7.5ZM441.4,909.06c0-1.125-.7-1.845-1.981-2.265l-0.81-.271c-0.885-.285-1.155-0.57-1.155-1.05a1.062,1.062,0,0,1,1.26-.87,2.03,2.03,0,0,1,1.591.78l0.84-.81a2.909,2.909,0,0,0-2.4-1.081c-1.486,0-2.536.826-2.536,2.041a2.264,2.264,0,0,0,1.861,2.176l0.735,0.24c0.975,0.315,1.336.675,1.336,1.2a1.143,1.143,0,0,1-1.321,1.02,2.014,2.014,0,0,1-1.921-1.186l-1.05.571a2.98,2.98,0,0,0,2.941,1.74C440.309,911.3,441.4,910.531,441.4,909.06Zm2.458-1.665a3.753,3.753,0,0,0,3.676,3.9,3.289,3.289,0,0,0,2.641-1.305v1.155h1.291v-7.5h-1.291V904.8a3.287,3.287,0,0,0-2.641-1.306A3.754,3.754,0,0,0,443.862,907.4Zm6.422,0a2.563,2.563,0,1,1-2.551-2.716A2.562,2.562,0,0,1,450.284,907.4Zm4.813,3.751h1.29V899.892H455.1v11.254Zm4.349-3.751a3.956,3.956,0,0,0,7.263,2.116l-1.02-.706a2.656,2.656,0,0,1-4.937-1.155H466.9a3.66,3.66,0,0,0,.015-0.39,3.5,3.5,0,0,0-3.571-3.767A3.8,3.8,0,0,0,459.446,907.4Zm3.857-2.761a2.245,2.245,0,0,1,2.3,1.965h-4.757A2.453,2.453,0,0,1,463.3,904.634Z"/>
  <path id="Rectangle_116_copy_2" data-name="Rectangle 116 copy 2" class="cls-1" d="M652.009,53.058l-1.094,1.085-15.976-15.83L618.1,55l-1.105-1.094,16.843-16.688L617.547,21.082,618.641,20l16.287,16.138,15.758-15.614,1.105,1.1L636.033,37.231Z"/>
  <path id="Rectangle_116_copy_3" data-name="Rectangle 116 copy 3" class="cls-1" d="M21.085,597.086l0.079,0.081L53.9,564l1.1,1.119L22.27,598.287l32.183,32.607L53.359,632,19.991,598.2Z"/>
</svg>
