<svg id="Copy_copy_12" data-name="Copy copy 12" xmlns="http://www.w3.org/2000/svg" width="672" height="1097" viewBox="0 0 672 1097">
  <metadata><?xpacket begin="﻿" id="W5M0MpCehiHzreSzNTczkc9d"?>
<x:xmpmeta xmlns:x="adobe:ns:meta/" x:xmptk="Adobe XMP Core 5.6-c138 79.159824, 2016/09/14-01:09:01        ">
   <rdf:RDF xmlns:rdf="http://www.w3.org/1999/02/22-rdf-syntax-ns#">
      <rdf:Description rdf:about=""/>
   </rdf:RDF>
</x:xmpmeta>
                                                                                                    
                                                                                                    
                                                                                                    
                                                                                                    
                                                                                                    
                                                                                                    
                                                                                                    
                                                                                                    
                                                                                                    
                                                                                                    
                                                                                                    
                                                                                                    
                                                                                                    
                                                                                                    
                                                                                                    
                                                                                                    
                                                                                                    
                                                                                                    
                                                                                                    
                                                                                                    
                           
<?xpacket end="w"?></metadata>
<defs>
    <style>
      .cls-1 {
        fill-rule: evenodd;
      }
    </style>
  </defs>
  <path id="Rectangle_116_copy_2" data-name="Rectangle 116 copy 2" class="cls-1" d="M652.009,53.058l-1.094,1.085-15.976-15.83L618.1,55l-1.105-1.094,16.843-16.688L617.547,21.082,618.641,20l16.287,16.138,15.758-15.614,1.105,1.1L636.033,37.231Z"/>
  <path id="Rectangle_116_copy" data-name="Rectangle 116 copy" class="cls-1" d="M650.915,599.4l-0.08-.079L618.1,632l-1.105-1.1,32.739-32.681L617.547,566.09,618.641,565l33.368,33.309Z"/>
  <path id="Don_t_let_anything_rain_on_your_parade._Our_first_trench_appear" data-name="Don’t let anything rain on your parade. Our first trench appear" class="cls-1" d="M38.944,794.323h4.081c4.361,0,7.562-3.041,7.562-7.1s-3.2-7.1-7.562-7.1H38.944v14.2Zm1.86-1.741V781.86h2.221c3.421,0,5.681,2.28,5.681,5.361s-2.261,5.361-5.681,5.361H40.8Zm22.462-3.261a5.231,5.231,0,1,0-5.221,5.2A5.133,5.133,0,0,0,63.267,789.321Zm-8.7,0a3.473,3.473,0,1,1,3.481,3.6A3.438,3.438,0,0,1,54.565,789.321Zm11.66,5h1.72v-4.962c0-2.34,1.28-3.66,2.9-3.66,1.4,0,2.361,1.04,2.361,2.72v5.9h1.7v-6.162c0-2.48-1.54-4.041-3.781-4.041a3.536,3.536,0,0,0-3.181,1.741V784.32h-1.72v10ZM80.785,782.28a1.767,1.767,0,0,0,.28-0.9,1.49,1.49,0,1,0-2.981,0,1.55,1.55,0,0,0,.82,1.34l-1.34,2.861h1.16Zm8.441,11.9v-1.54a3.8,3.8,0,0,1-1.22.2,1.44,1.44,0,0,1-1.66-1.7V785.9h2.881V784.32H86.345v-2.78h-1.72v2.78H82.5V785.9h2.121v5.461a2.816,2.816,0,0,0,3.061,3.061A4.758,4.758,0,0,0,89.226,794.182Zm8.079,0.141h1.72v-15H97.3v15Zm4.7-5a5.273,5.273,0,0,0,9.682,2.821l-1.36-.94a3.542,3.542,0,0,1-6.582-1.54h8.2a4.907,4.907,0,0,0,.02-0.521c-0.02-3.2-2.141-5.021-4.761-5.021A5.068,5.068,0,0,0,102.005,789.321Zm5.141-3.68a2.993,2.993,0,0,1,3.061,2.62h-6.342A3.27,3.27,0,0,1,107.146,785.641Zm13.041,8.541v-1.54a3.813,3.813,0,0,1-1.221.2,1.44,1.44,0,0,1-1.66-1.7V785.9h2.881V784.32h-2.881v-2.78h-1.721v2.78h-2.12V785.9h2.12v5.461a2.816,2.816,0,0,0,3.061,3.061A4.767,4.767,0,0,0,120.187,794.182Zm7.3-4.861a5.006,5.006,0,0,0,4.9,5.2,4.387,4.387,0,0,0,3.521-1.741v1.541h1.72v-10h-1.72v1.541a4.387,4.387,0,0,0-3.521-1.741A5.006,5.006,0,0,0,127.485,789.321Zm8.562,0a3.417,3.417,0,1,1-3.4-3.62A3.415,3.415,0,0,1,136.047,789.321Zm5.318,5h1.721v-4.962c0-2.34,1.28-3.66,2.9-3.66,1.4,0,2.361,1.04,2.361,2.72v5.9h1.7v-6.162c0-2.48-1.54-4.041-3.78-4.041a3.536,3.536,0,0,0-3.181,1.741V784.32h-1.721v10Zm14.741,4.18,6.562-14.183h-1.921l-3.42,7.582-3.441-7.582h-1.9l4.381,9.482-2.18,4.7h1.92Zm14.2-4.321v-1.54a3.8,3.8,0,0,1-1.22.2,1.44,1.44,0,0,1-1.661-1.7V785.9h2.881V784.32h-2.881v-2.78h-1.72v2.78h-2.12V785.9h2.12v5.461a2.816,2.816,0,0,0,3.061,3.061A4.756,4.756,0,0,0,170.307,794.182Zm2.7,0.141h1.72v-4.962c0-2.34,1.281-3.66,2.9-3.66,1.4,0,2.361,1.04,2.361,2.72v5.9h1.7v-6.162c0-2.48-1.54-4.041-3.781-4.041a3.538,3.538,0,0,0-3.181,1.741v-6.542h-1.72v15Zm14.361-13.9a1.209,1.209,0,0,0-1.2-1.221,1.242,1.242,0,0,0-1.24,1.221,1.229,1.229,0,0,0,1.24,1.22A1.2,1.2,0,0,0,187.367,780.42Zm-2.081,13.9h1.72v-10h-1.72v10Zm5.48,0h1.72v-4.962c0-2.34,1.281-3.66,2.9-3.66,1.4,0,2.361,1.04,2.361,2.72v5.9h1.7v-6.162c0-2.48-1.54-4.041-3.781-4.041a3.538,3.538,0,0,0-3.181,1.741V784.32h-1.72v10Zm21.6-.581V784.32h-1.72v1.541a4.258,4.258,0,0,0-3.481-1.741,5.1,5.1,0,0,0,0,10.183,4.273,4.273,0,0,0,3.481-1.761v1.14a3.2,3.2,0,0,1-3.341,3.461,4.281,4.281,0,0,1-3.5-1.68l-1.2,1.2a5.939,5.939,0,0,0,4.721,2.04C210.168,798.7,212.368,797.083,212.368,793.742Zm-8.342-4.541a3.383,3.383,0,1,1,3.381,3.5A3.333,3.333,0,0,1,204.026,789.2Zm17.46,5.122h1.721v-4.962c0-2.34,1.38-3.44,2.64-3.44a2.514,2.514,0,0,1,.94.16V784.3a3.564,3.564,0,0,0-.78-0.08,2.976,2.976,0,0,0-2.8,2.041V784.32h-1.721v10Zm6.7-5a5.006,5.006,0,0,0,4.9,5.2,4.387,4.387,0,0,0,3.521-1.741v1.541h1.721v-10h-1.721v1.541a4.387,4.387,0,0,0-3.521-1.741A5.006,5.006,0,0,0,228.186,789.321Zm8.562,0a3.417,3.417,0,1,1-3.4-3.62A3.415,3.415,0,0,1,236.748,789.321Zm7.4-8.9a1.208,1.208,0,0,0-1.2-1.221,1.243,1.243,0,0,0-1.241,1.221,1.23,1.23,0,0,0,1.241,1.22A1.2,1.2,0,0,0,244.147,780.42Zm-2.081,13.9h1.721v-10h-1.721v10Zm5.48,0h1.721v-4.962c0-2.34,1.28-3.66,2.9-3.66,1.4,0,2.36,1.04,2.36,2.72v5.9h1.7v-6.162c0-2.48-1.541-4.041-3.781-4.041a3.536,3.536,0,0,0-3.181,1.741V784.32h-1.721v10Zm27.323-5a5.232,5.232,0,1,0-5.221,5.2A5.133,5.133,0,0,0,274.869,789.321Zm-8.7,0a3.473,3.473,0,1,1,3.481,3.6A3.437,3.437,0,0,1,266.167,789.321Zm11.66,5h1.72v-4.962c0-2.34,1.28-3.66,2.9-3.66,1.4,0,2.36,1.04,2.36,2.72v5.9h1.7v-6.162c0-2.48-1.541-4.041-3.781-4.041a3.536,3.536,0,0,0-3.181,1.741V784.32h-1.72v10Zm19.86,4.18,6.562-14.183h-1.921l-3.42,7.582-3.441-7.582h-1.9l4.381,9.482-2.18,4.7h1.92Zm18.222-9.182a5.231,5.231,0,1,0-5.221,5.2A5.133,5.133,0,0,0,315.909,789.321Zm-8.7,0a3.473,3.473,0,1,1,3.481,3.6A3.438,3.438,0,0,1,307.207,789.321Zm11.52,1.141c0,2.48,1.481,4.061,3.681,4.061a3.443,3.443,0,0,0,3.081-1.741v1.541h1.72v-10h-1.72v4.961c0,2.3-1.221,3.661-2.781,3.661-1.38,0-2.26-1.06-2.26-2.74V784.32h-1.721v6.142Zm12.22,3.861h1.721v-4.962c0-2.34,1.38-3.44,2.64-3.44a2.516,2.516,0,0,1,.941.16V784.3a3.566,3.566,0,0,0-.781-0.08,2.976,2.976,0,0,0-2.8,2.041V784.32h-1.721v10Zm12.7,4.18h1.72v-5.721a4.387,4.387,0,0,0,3.521,1.741,5.211,5.211,0,0,0,0-10.4,4.387,4.387,0,0,0-3.521,1.741V784.32h-1.72V798.5Zm8.382-9.182a3.408,3.408,0,1,1-3.4-3.62A3.415,3.415,0,0,1,352.03,789.321Zm3.958,0a5.005,5.005,0,0,0,4.9,5.2,4.39,4.39,0,0,0,3.521-1.741v1.541h1.72v-10h-1.72v1.541a4.39,4.39,0,0,0-3.521-1.741A5.005,5.005,0,0,0,355.988,789.321Zm8.562,0a3.417,3.417,0,1,1-3.4-3.62A3.415,3.415,0,0,1,364.55,789.321Zm5.318,5h1.72v-4.962c0-2.34,1.381-3.44,2.641-3.44a2.514,2.514,0,0,1,.94.16V784.3a3.564,3.564,0,0,0-.78-0.08,2.977,2.977,0,0,0-2.8,2.041V784.32h-1.72v10Zm6.7-5a5.005,5.005,0,0,0,4.9,5.2,4.388,4.388,0,0,0,3.521-1.741v1.541h1.72v-10h-1.72v1.541a4.388,4.388,0,0,0-3.521-1.741A5.005,5.005,0,0,0,376.568,789.321Zm8.562,0a3.417,3.417,0,1,1-3.4-3.62A3.415,3.415,0,0,1,385.13,789.321Zm4.538,0a5.006,5.006,0,0,0,4.9,5.2,4.387,4.387,0,0,0,3.521-1.741v1.541h1.72v-15h-1.72v6.542a4.387,4.387,0,0,0-3.521-1.741A5.006,5.006,0,0,0,389.668,789.321Zm8.562,0a3.417,3.417,0,1,1-3.4-3.62A3.415,3.415,0,0,1,398.23,789.321Zm4.538,0a5.273,5.273,0,0,0,9.682,2.821l-1.36-.94a3.541,3.541,0,0,1-6.581-1.54h8.2a4.907,4.907,0,0,0,.02-0.521c-0.02-3.2-2.141-5.021-4.762-5.021A5.069,5.069,0,0,0,402.768,789.321Zm5.141-3.68a2.992,2.992,0,0,1,3.061,2.62h-6.341A3.269,3.269,0,0,1,407.909,785.641Zm10.14,7.341a1.481,1.481,0,1,0-1.48,1.5A1.507,1.507,0,0,0,418.049,792.982Zm22.5-5.761a7.342,7.342,0,1,0-7.342,7.342A7.271,7.271,0,0,0,440.552,787.221Zm-12.8,0a5.472,5.472,0,1,1,5.461,5.581A5.445,5.445,0,0,1,427.749,787.221Zm15.68,3.241c0,2.48,1.48,4.061,3.681,4.061a3.444,3.444,0,0,0,3.081-1.741v1.541h1.72v-10h-1.72v4.961c0,2.3-1.221,3.661-2.781,3.661-1.38,0-2.261-1.06-2.261-2.74V784.32h-1.72v6.142Zm12.22,3.861h1.721v-4.962c0-2.34,1.38-3.44,2.64-3.44a2.523,2.523,0,0,1,.941.16V784.3a3.579,3.579,0,0,0-.781-0.08,2.976,2.976,0,0,0-2.8,2.041V784.32h-1.721v10Zm13.281,0h1.72V785.9h2.9V784.32h-2.9v-1.84a1.44,1.44,0,0,1,1.661-1.7,4.027,4.027,0,0,1,1.24.2v-1.521a4.545,4.545,0,0,0-1.56-.26,2.857,2.857,0,0,0-3.061,3.1v2.02h-2.121V785.9h2.121v8.422Zm8.582-13.9a1.208,1.208,0,0,0-1.2-1.221,1.243,1.243,0,0,0-1.241,1.221,1.23,1.23,0,0,0,1.241,1.22A1.2,1.2,0,0,0,477.512,780.42Zm-2.081,13.9h1.721v-10h-1.721v10Zm5.459,0h1.72v-4.962c0-2.34,1.381-3.44,2.641-3.44a2.514,2.514,0,0,1,.94.16V784.3a3.564,3.564,0,0,0-.78-0.08,2.977,2.977,0,0,0-2.8,2.041V784.32h-1.72v10Zm14.122-2.781c0-1.5-.94-2.461-2.641-3.021l-1.08-.36c-1.18-.38-1.54-0.76-1.54-1.4,0-.74.74-1.16,1.68-1.16a2.7,2.7,0,0,1,2.12,1.04l1.121-1.08a3.878,3.878,0,0,0-3.2-1.441c-1.981,0-3.381,1.1-3.381,2.721,0,1.4.86,2.38,2.481,2.9l0.98,0.32c1.3,0.42,1.78.9,1.78,1.6a1.522,1.522,0,0,1-1.76,1.36,2.685,2.685,0,0,1-2.561-1.58l-1.4.76a3.974,3.974,0,0,0,3.921,2.321C493.551,794.523,495.012,793.5,495.012,791.542Zm8.26,2.64v-1.54a3.808,3.808,0,0,1-1.221.2,1.44,1.44,0,0,1-1.66-1.7V785.9h2.881V784.32h-2.881v-2.78h-1.72v2.78H496.55V785.9h2.121v5.461a2.816,2.816,0,0,0,3.06,3.061A4.763,4.763,0,0,0,503.272,794.182Zm-459.167,30v-1.54a3.8,3.8,0,0,1-1.22.2,1.44,1.44,0,0,1-1.66-1.7V815.9h2.881V814.32H41.225v-2.78H39.5v2.78h-2.12V815.9H39.5v5.461a2.816,2.816,0,0,0,3.061,3.061A4.758,4.758,0,0,0,44.105,824.182Zm2.7,0.141h1.72v-4.962c0-2.34,1.38-3.44,2.641-3.44a2.515,2.515,0,0,1,.94.16V814.3a3.565,3.565,0,0,0-.78-0.08,2.977,2.977,0,0,0-2.8,2.041V814.32H46.8v10Zm6.68-5a5.273,5.273,0,0,0,9.682,2.821l-1.36-.94a3.542,3.542,0,0,1-6.581-1.54h8.2a4.907,4.907,0,0,0,.02-0.521c-0.02-3.2-2.141-5.021-4.761-5.021A5.069,5.069,0,0,0,53.484,819.321Zm5.141-3.68a2.992,2.992,0,0,1,3.061,2.62H55.345A3.27,3.27,0,0,1,58.626,815.641Zm7.759,8.682h1.72v-4.962c0-2.34,1.28-3.66,2.9-3.66,1.4,0,2.361,1.04,2.361,2.72v5.9h1.7v-6.162c0-2.48-1.54-4.041-3.781-4.041a3.536,3.536,0,0,0-3.181,1.741V814.32h-1.72v10Zm21.362-2.481-1.5-.84a3.391,3.391,0,0,1-3.121,1.92,3.6,3.6,0,0,1,0-7.2,3.391,3.391,0,0,1,3.121,1.92l1.5-.84a5.181,5.181,0,0,0-4.621-2.681,5.2,5.2,0,1,0,0,10.4A5.181,5.181,0,0,0,87.747,821.842Zm2.718,2.481h1.721v-4.962c0-2.34,1.28-3.66,2.9-3.66,1.4,0,2.361,1.04,2.361,2.72v5.9h1.7v-6.162c0-2.48-1.54-4.041-3.781-4.041a3.536,3.536,0,0,0-3.181,1.741v-6.542H90.465v15Zm16.88-5a5.005,5.005,0,0,0,4.9,5.2,4.388,4.388,0,0,0,3.521-1.741v1.541h1.72v-10h-1.72v1.541a4.388,4.388,0,0,0-3.521-1.741A5.005,5.005,0,0,0,107.345,819.321Zm8.562,0a3.417,3.417,0,1,1-3.4-3.62A3.415,3.415,0,0,1,115.907,819.321Zm5.318,9.182h1.72v-5.721a4.39,4.39,0,0,0,3.521,1.741,5.211,5.211,0,0,0,0-10.4,4.39,4.39,0,0,0-3.521,1.741V814.32h-1.72V828.5Zm8.382-9.182a3.408,3.408,0,1,1-3.4-3.62A3.415,3.415,0,0,1,129.607,819.321Zm4.738,9.182h1.721v-5.721a4.387,4.387,0,0,0,3.521,1.741,5.211,5.211,0,0,0,0-10.4,4.387,4.387,0,0,0-3.521,1.741V814.32h-1.721V828.5Zm8.382-9.182a3.407,3.407,0,1,1-3.4-3.62A3.415,3.415,0,0,1,142.727,819.321Zm3.958,0a5.274,5.274,0,0,0,9.683,2.821l-1.361-.94a3.541,3.541,0,0,1-6.581-1.54h8.2a4.907,4.907,0,0,0,.02-0.521c-0.02-3.2-2.141-5.021-4.761-5.021A5.069,5.069,0,0,0,146.685,819.321Zm5.142-3.68a2.992,2.992,0,0,1,3.06,2.62h-6.341A3.269,3.269,0,0,1,151.827,815.641Zm6.979,3.68a5.005,5.005,0,0,0,4.9,5.2,4.39,4.39,0,0,0,3.521-1.741v1.541h1.72v-10h-1.72v1.541a4.39,4.39,0,0,0-3.521-1.741A5.005,5.005,0,0,0,158.806,819.321Zm8.562,0a3.417,3.417,0,1,1-3.4-3.62A3.415,3.415,0,0,1,167.368,819.321Zm5.318,5h1.72v-4.962c0-2.34,1.381-3.44,2.641-3.44a2.514,2.514,0,0,1,.94.16V814.3a3.564,3.564,0,0,0-.78-0.08,2.977,2.977,0,0,0-2.8,2.041V814.32h-1.72v10Zm6.68-5a5.273,5.273,0,0,0,9.682,2.821l-1.36-.94a3.542,3.542,0,0,1-6.582-1.54h8.2a4.907,4.907,0,0,0,.02-0.521c-0.02-3.2-2.14-5.021-4.761-5.021A5.069,5.069,0,0,0,179.366,819.321Zm5.141-3.68a2.992,2.992,0,0,1,3.061,2.62h-6.342A3.271,3.271,0,0,1,184.507,815.641Zm6.979,3.68a5.006,5.006,0,0,0,4.9,5.2,4.387,4.387,0,0,0,3.521-1.741v1.541h1.721v-15h-1.721v6.542a4.387,4.387,0,0,0-3.521-1.741A5.006,5.006,0,0,0,191.486,819.321Zm8.562,0a3.417,3.417,0,1,1-3.4-3.62A3.415,3.415,0,0,1,200.048,819.321Zm12.779-8.9a1.208,1.208,0,0,0-1.2-1.221,1.243,1.243,0,0,0-1.241,1.221,1.229,1.229,0,0,0,1.241,1.22A1.2,1.2,0,0,0,212.827,810.42Zm-2.081,13.9h1.721v-10h-1.721v10Zm5.48,0h1.721v-4.962c0-2.34,1.28-3.66,2.9-3.66,1.4,0,2.36,1.04,2.36,2.72v5.9h1.7v-6.162c0-2.48-1.54-4.041-3.78-4.041a3.536,3.536,0,0,0-3.181,1.741V814.32h-1.721v10Zm22.742-.141v-1.54a3.8,3.8,0,0,1-1.221.2,1.44,1.44,0,0,1-1.66-1.7V815.9h2.881V814.32h-2.881v-2.78h-1.72v2.78h-2.121V815.9h2.121v5.461a2.816,2.816,0,0,0,3.06,3.061A4.758,4.758,0,0,0,238.968,824.182Zm2.7,0.141h1.72v-4.962c0-2.34,1.28-3.66,2.9-3.66,1.4,0,2.36,1.04,2.36,2.72v5.9h1.7v-6.162c0-2.48-1.541-4.041-3.781-4.041a3.536,3.536,0,0,0-3.181,1.741v-6.542h-1.72v15Zm11.5-5a5.274,5.274,0,0,0,9.683,2.821l-1.361-.94a3.541,3.541,0,0,1-6.581-1.54h8.2a4.907,4.907,0,0,0,.02-0.521c-0.02-3.2-2.141-5.021-4.761-5.021A5.069,5.069,0,0,0,253.166,819.321Zm5.142-3.68a2.992,2.992,0,0,1,3.06,2.62h-6.341A3.269,3.269,0,0,1,258.308,815.641Zm13.4,8.682h5.081c2.881,0,4.761-1.781,4.761-4.141a3.384,3.384,0,0,0-2.46-3.4,3.219,3.219,0,0,0,1.52-2.9c0-2-1.6-3.76-4.241-3.76h-4.661v14.2Zm1.86-8.1V811.8h2.8a2.233,2.233,0,0,1,2.42,2.22,2.186,2.186,0,0,1-2.42,2.2h-2.8Zm0,6.421v-4.821h3.321c1.88,0,2.841,1.04,2.841,2.421,0,1.4-.961,2.4-2.861,2.4h-3.3Zm10.18-3.321a5.005,5.005,0,0,0,4.9,5.2,4.388,4.388,0,0,0,3.521-1.741v1.541h1.72v-10h-1.72v1.541a4.388,4.388,0,0,0-3.521-1.741A5.005,5.005,0,0,0,283.747,819.321Zm8.562,0a3.417,3.417,0,1,1-3.4-3.62A3.415,3.415,0,0,1,292.309,819.321Zm5.318,5h1.721v-4.962c0-2.34,1.28-3.66,2.9-3.66,1.4,0,2.361,1.04,2.361,2.72v5.9h1.7v-6.162c0-2.48-1.54-4.041-3.781-4.041a3.535,3.535,0,0,0-3.18,1.741V814.32h-1.721v10Zm11.5-5a5.006,5.006,0,0,0,4.9,5.2,4.387,4.387,0,0,0,3.521-1.741v1.541h1.721v-10h-1.721v1.541a4.387,4.387,0,0,0-3.521-1.741A5.006,5.006,0,0,0,309.127,819.321Zm8.562,0a3.417,3.417,0,1,1-3.4-3.62A3.415,3.415,0,0,1,317.689,819.321Zm5.318,5h1.721v-4.962c0-2.34,1.28-3.66,2.9-3.66,1.4,0,2.361,1.04,2.361,2.72v5.9h1.7v-6.162c0-2.48-1.54-4.041-3.78-4.041a3.536,3.536,0,0,0-3.181,1.741V814.32h-1.721v10Zm11.5-5a5.006,5.006,0,0,0,4.9,5.2,4.387,4.387,0,0,0,3.521-1.741v1.541h1.721v-10h-1.721v1.541a4.387,4.387,0,0,0-3.521-1.741A5.006,5.006,0,0,0,334.507,819.321Zm8.562,0a3.417,3.417,0,1,1-3.4-3.62A3.415,3.415,0,0,1,343.069,819.321Zm10.959,5h1.86v-6.462h1.38l5.462,6.462h2.34l-5.461-6.482a3.706,3.706,0,0,0,3.5-3.8c0-2.34-1.621-3.92-4.241-3.92h-4.841v14.2Zm1.86-8.122V811.84h2.761c1.62,0,2.6.76,2.6,2.2,0,1.421-.98,2.161-2.6,2.161h-2.761Zm10,3.12a5.273,5.273,0,0,0,9.682,2.821l-1.36-.94a3.542,3.542,0,0,1-6.582-1.54h8.2a4.907,4.907,0,0,0,.02-0.521c-0.02-3.2-2.141-5.021-4.761-5.021A5.068,5.068,0,0,0,365.888,819.321Zm5.141-3.68a2.994,2.994,0,0,1,3.061,2.62h-6.342A3.269,3.269,0,0,1,371.029,815.641Zm7.759,12.862h1.72v-5.721a4.39,4.39,0,0,0,3.521,1.741,5.211,5.211,0,0,0,0-10.4,4.39,4.39,0,0,0-3.521,1.741V814.32h-1.72V828.5Zm8.382-9.182a3.408,3.408,0,1,1-3.4-3.62A3.415,3.415,0,0,1,387.17,819.321Zm4.6,1.141c0,2.48,1.481,4.061,3.681,4.061a3.443,3.443,0,0,0,3.081-1.741v1.541h1.72v-10h-1.72v4.961c0,2.3-1.221,3.661-2.781,3.661-1.38,0-2.26-1.06-2.26-2.74V814.32h-1.721v6.142Zm13.941,2.32a4.387,4.387,0,0,0,3.521,1.741,5.211,5.211,0,0,0,0-10.4,4.387,4.387,0,0,0-3.521,1.741v-6.542h-1.721v15h1.721v-1.541Zm6.661-3.461a3.407,3.407,0,1,1-3.4-3.62A3.415,3.415,0,0,1,412.37,819.321Zm4.719,5h1.72v-15h-1.72v15Zm7.56-13.9a1.208,1.208,0,0,0-1.2-1.221,1.243,1.243,0,0,0-1.241,1.221,1.23,1.23,0,0,0,1.241,1.22A1.2,1.2,0,0,0,424.649,810.42Zm-2.08,13.9h1.72v-10h-1.72v10Zm14.562-2.481-1.5-.84a3.39,3.39,0,0,1-3.12,1.92,3.6,3.6,0,0,1,0-7.2,3.39,3.39,0,0,1,3.12,1.92l1.5-.84a5.181,5.181,0,0,0-4.621-2.681,5.2,5.2,0,1,0,0,10.4A5.181,5.181,0,0,0,437.131,821.842Zm17.18,0-1.5-.84a3.39,3.39,0,0,1-3.12,1.92,3.6,3.6,0,0,1,0-7.2,3.39,3.39,0,0,1,3.12,1.92l1.5-.84a5.182,5.182,0,0,0-4.621-2.681,5.2,5.2,0,1,0,0,10.4A5.182,5.182,0,0,0,454.311,821.842Zm1.937-2.521a5.006,5.006,0,0,0,4.9,5.2,4.387,4.387,0,0,0,3.521-1.741v1.541h1.721v-10H464.67v1.541a4.387,4.387,0,0,0-3.521-1.741A5.006,5.006,0,0,0,456.248,819.321Zm8.562,0a3.417,3.417,0,1,1-3.4-3.62A3.415,3.415,0,0,1,464.81,819.321Zm10.74,4.861v-1.54a3.8,3.8,0,0,1-1.22.2,1.44,1.44,0,0,1-1.661-1.7V815.9h2.881V814.32h-2.881v-2.78h-1.72v2.78h-2.121V815.9h2.121v5.461a2.816,2.816,0,0,0,3.061,3.061A4.756,4.756,0,0,0,475.55,824.182Zm1.779-4.861a5.005,5.005,0,0,0,4.9,5.2,4.388,4.388,0,0,0,3.521-1.741v1.541h1.72v-10h-1.72v1.541a4.388,4.388,0,0,0-3.521-1.741A5.005,5.005,0,0,0,477.329,819.321Zm8.562,0a3.417,3.417,0,1,1-3.4-3.62A3.415,3.415,0,0,1,485.891,819.321Zm5.318,5h1.721v-15h-1.721v15Zm15.142-5a5.231,5.231,0,1,0-5.221,5.2A5.133,5.133,0,0,0,506.351,819.321Zm-8.7,0a3.473,3.473,0,1,1,3.481,3.6A3.438,3.438,0,0,1,497.649,819.321Zm20.982,4.421V814.32h-1.72v1.541a4.256,4.256,0,0,0-3.481-1.741,5.1,5.1,0,0,0,0,10.183,4.272,4.272,0,0,0,3.481-1.761v1.14a3.2,3.2,0,0,1-3.341,3.461,4.281,4.281,0,0,1-3.5-1.68l-1.2,1.2a5.939,5.939,0,0,0,4.721,2.04C516.431,828.7,518.631,827.083,518.631,823.742Zm-8.342-4.541a3.383,3.383,0,1,1,3.381,3.5A3.333,3.333,0,0,1,510.289,819.2ZM40.765,840.42a1.208,1.208,0,0,0-1.2-1.221,1.243,1.243,0,0,0-1.24,1.221,1.229,1.229,0,0,0,1.24,1.22A1.2,1.2,0,0,0,40.765,840.42Zm-2.08,13.9H40.4v-10h-1.72v10Zm5.48,0h1.72v-4.962c0-2.34,1.28-3.66,2.9-3.66,1.4,0,2.361,1.04,2.361,2.72v5.9h1.7v-6.162c0-2.48-1.54-4.041-3.781-4.041a3.536,3.536,0,0,0-3.181,1.741V844.32h-1.72v10Zm18.9,0h1.72v-14.2H61.724l-1.4,1.7h2.741v12.5Zm5.58,0h2.2l5.2-6.142a5.455,5.455,0,0,0,1.6-3.621,4.812,4.812,0,0,0-9.622.06,4.588,4.588,0,0,0,4.441,4.561,2.551,2.551,0,0,0,.56-0.04Zm1.14-9.723a3.051,3.051,0,1,1,3.041,3.061A3.018,3.018,0,0,1,69.785,844.6Zm19.522,5.462a3.968,3.968,0,0,0-2.221-3.721,3.326,3.326,0,0,0,1.44-2.8,3.687,3.687,0,0,0-3.981-3.661,3.738,3.738,0,0,0-4,3.661,3.312,3.312,0,0,0,1.48,2.8,3.969,3.969,0,0,0-2.261,3.721A4.782,4.782,0,0,0,89.307,850.062Zm-7.062-6.482a2.114,2.114,0,0,1,2.3-2.08,2.075,2.075,0,0,1,2.281,2.08,2.123,2.123,0,0,1-2.281,2.1A2.165,2.165,0,0,1,82.245,843.58Zm-0.74,6.482a2.82,2.82,0,0,1,3.041-2.841,2.836,2.836,0,1,1,0,5.661A2.827,2.827,0,0,1,81.5,850.062Zm20.5-.881v-3.96a5,5,0,0,0-5.041-5.342c-2.921,0-5.021,2.2-5.021,5.342v3.96c0,3.161,2.1,5.342,5.021,5.342A4.991,4.991,0,0,0,102.007,849.181Zm-8.342,0v-3.96c0-2.3,1.38-3.661,3.3-3.661,1.941,0,3.321,1.36,3.321,3.661v3.96c0,2.3-1.381,3.661-3.321,3.661C95.046,852.842,93.665,851.482,93.665,849.181Zm16.26,0.14a5.005,5.005,0,0,0,4.9,5.2,4.39,4.39,0,0,0,3.521-1.741v1.541h1.72v-10h-1.72v1.541a4.39,4.39,0,0,0-3.521-1.741A5.005,5.005,0,0,0,109.925,849.321Zm8.562,0a3.417,3.417,0,1,1-3.4-3.62A3.415,3.415,0,0,1,118.487,849.321Zm11.8,2.221c0-1.5-.94-2.461-2.64-3.021l-1.08-.36c-1.181-.38-1.541-0.76-1.541-1.4,0-.74.74-1.16,1.681-1.16a2.7,2.7,0,0,1,2.12,1.04l1.12-1.08a3.876,3.876,0,0,0-3.2-1.441c-1.981,0-3.381,1.1-3.381,2.721,0,1.4.86,2.38,2.48,2.9l0.981,0.32c1.3,0.42,1.78.9,1.78,1.6a1.522,1.522,0,0,1-1.76,1.36,2.684,2.684,0,0,1-2.561-1.58l-1.4.76a3.973,3.973,0,0,0,3.921,2.321C128.826,854.523,130.286,853.5,130.286,851.542Zm7.559-2.221a5.005,5.005,0,0,0,4.9,5.2,4.388,4.388,0,0,0,3.521-1.741v1.541h1.72v-10h-1.72v1.541a4.388,4.388,0,0,0-3.521-1.741A5.005,5.005,0,0,0,137.845,849.321Zm8.562,0a3.417,3.417,0,1,1-3.4-3.62A3.415,3.415,0,0,1,146.407,849.321Zm13.179,5h1.82V841.88h4.421v-1.76H155.165v1.76h4.421v12.443Zm6.9,0h1.721v-4.962c0-2.34,1.38-3.44,2.64-3.44a2.514,2.514,0,0,1,.94.16V844.3a3.564,3.564,0,0,0-.78-0.08,2.976,2.976,0,0,0-2.8,2.041V844.32h-1.721v10Zm17.123-5a5.232,5.232,0,1,0-5.221,5.2A5.133,5.133,0,0,0,183.608,849.321Zm-8.7,0a3.473,3.473,0,1,1,3.481,3.6A3.437,3.437,0,0,1,174.906,849.321Zm11.66,9.182h1.72v-5.721a4.387,4.387,0,0,0,3.521,1.741,5.211,5.211,0,0,0,0-10.4,4.387,4.387,0,0,0-3.521,1.741V844.32h-1.72V858.5Zm8.382-9.182a3.408,3.408,0,1,1-3.4-3.62A3.415,3.415,0,0,1,194.948,849.321Zm6.818-8.9a1.208,1.208,0,0,0-1.2-1.221,1.242,1.242,0,0,0-1.24,1.221,1.229,1.229,0,0,0,1.24,1.22A1.2,1.2,0,0,0,201.766,840.42Zm-2.08,13.9h1.72v-10h-1.72v10Zm14.562-2.481-1.5-.84a3.392,3.392,0,0,1-3.121,1.92,3.6,3.6,0,0,1,0-7.2,3.392,3.392,0,0,1,3.121,1.92l1.5-.84a5.181,5.181,0,0,0-4.621-2.681,5.2,5.2,0,1,0,0,10.4A5.181,5.181,0,0,0,214.248,851.842Zm1.938-2.521a5.005,5.005,0,0,0,4.9,5.2,4.388,4.388,0,0,0,3.521-1.741v1.541h1.72v-10h-1.72v1.541a4.388,4.388,0,0,0-3.521-1.741A5.005,5.005,0,0,0,216.186,849.321Zm8.562,0a3.417,3.417,0,1,1-3.4-3.62A3.415,3.415,0,0,1,224.748,849.321Zm5.318,5h1.72v-15h-1.72v15Zm11.12,0h1.86v-6.462h1.381l5.461,6.462h2.341l-5.462-6.482a3.705,3.705,0,0,0,3.5-3.8c0-2.34-1.62-3.92-4.241-3.92h-4.841v14.2Zm1.86-8.122V841.84h2.761c1.62,0,2.6.76,2.6,2.2,0,1.421-.981,2.161-2.6,2.161h-2.761Zm10.04,3.12a5.006,5.006,0,0,0,4.9,5.2,4.387,4.387,0,0,0,3.521-1.741v1.541h1.721v-10h-1.721v1.541a4.387,4.387,0,0,0-3.521-1.741A5.006,5.006,0,0,0,253.086,849.321Zm8.562,0a3.417,3.417,0,1,1-3.4-3.62A3.415,3.415,0,0,1,261.648,849.321Zm7.4-8.9a1.208,1.208,0,0,0-1.2-1.221,1.243,1.243,0,0,0-1.241,1.221,1.23,1.23,0,0,0,1.241,1.22A1.2,1.2,0,0,0,269.047,840.42Zm-2.081,13.9h1.721v-10h-1.721v10Zm5.48,0h1.721v-4.962c0-2.34,1.28-3.66,2.9-3.66,1.4,0,2.36,1.04,2.36,2.72v5.9h1.7v-6.162c0-2.48-1.541-4.041-3.781-4.041a3.536,3.536,0,0,0-3.181,1.741V844.32h-1.721v10Zm21.363-2.481-1.5-.84a3.39,3.39,0,0,1-3.12,1.92,3.6,3.6,0,0,1,0-7.2,3.39,3.39,0,0,1,3.12,1.92l1.5-.84a5.181,5.181,0,0,0-4.621-2.681,5.2,5.2,0,1,0,0,10.4A5.181,5.181,0,0,0,293.809,851.842Zm12.38-2.521a5.232,5.232,0,1,0-5.221,5.2A5.133,5.133,0,0,0,306.189,849.321Zm-8.7,0a3.473,3.473,0,1,1,3.481,3.6A3.437,3.437,0,0,1,297.487,849.321Zm10.879,0a5.006,5.006,0,0,0,4.9,5.2,4.386,4.386,0,0,0,3.52-1.741v1.541h1.721v-10h-1.721v1.541a4.386,4.386,0,0,0-3.52-1.741A5.006,5.006,0,0,0,308.366,849.321Zm8.563,0a3.417,3.417,0,1,1-3.4-3.62A3.415,3.415,0,0,1,316.929,849.321Zm10.739,4.861v-1.54a3.8,3.8,0,0,1-1.22.2,1.44,1.44,0,0,1-1.661-1.7V845.9h2.881V844.32h-2.881v-2.78h-1.72v2.78h-2.121V845.9h2.121v5.461a2.816,2.816,0,0,0,3.061,3.061A4.756,4.756,0,0,0,327.668,854.182Zm16.2,0.141h1.52l3.4-10h-1.82l-2.421,7.3-2.5-7.3h-1.321l-2.5,7.3-2.421-7.3h-1.8l3.4,10h1.521l2.48-7.2Zm9.359-13.9a1.209,1.209,0,0,0-1.2-1.221,1.242,1.242,0,0,0-1.24,1.221,1.229,1.229,0,0,0,1.24,1.22A1.2,1.2,0,0,0,353.228,840.42Zm-2.081,13.9h1.721v-10h-1.721v10Zm10.9-.141v-1.54a3.8,3.8,0,0,1-1.22.2,1.44,1.44,0,0,1-1.66-1.7V845.9h2.88V844.32h-2.88v-2.78h-1.721v2.78h-2.12V845.9h2.12v5.461a2.816,2.816,0,0,0,3.061,3.061A4.756,4.756,0,0,0,362.048,854.182Zm2.7,0.141h1.721v-4.962c0-2.34,1.28-3.66,2.9-3.66,1.4,0,2.361,1.04,2.361,2.72v5.9h1.7v-6.162c0-2.48-1.54-4.041-3.781-4.041a3.535,3.535,0,0,0-3.18,1.741v-6.542h-1.721v15Zm22.742-.141v-1.54a3.813,3.813,0,0,1-1.221.2,1.44,1.44,0,0,1-1.66-1.7V845.9h2.881V844.32h-2.881v-2.78h-1.721v2.78h-2.12V845.9h2.12v5.461a2.816,2.816,0,0,0,3.061,3.061A4.767,4.767,0,0,0,387.489,854.182Zm2.7,0.141h1.721v-4.962c0-2.34,1.28-3.66,2.9-3.66,1.4,0,2.361,1.04,2.361,2.72v5.9h1.7v-6.162c0-2.48-1.54-4.041-3.78-4.041a3.536,3.536,0,0,0-3.181,1.741v-6.542h-1.721v15Zm11.5-5a5.274,5.274,0,0,0,9.683,2.821l-1.361-.94a3.541,3.541,0,0,1-6.581-1.54h8.2a4.907,4.907,0,0,0,.02-0.521c-0.02-3.2-2.141-5.021-4.761-5.021A5.069,5.069,0,0,0,401.687,849.321Zm5.142-3.68a2.992,2.992,0,0,1,3.06,2.62h-6.341A3.269,3.269,0,0,1,406.829,845.641Zm22.221,6.2-1.5-.84a3.39,3.39,0,0,1-3.12,1.92,3.6,3.6,0,0,1,0-7.2,3.39,3.39,0,0,1,3.12,1.92l1.5-.84a5.182,5.182,0,0,0-4.621-2.681,5.2,5.2,0,1,0,0,10.4A5.182,5.182,0,0,0,429.05,851.842Zm1.937-2.521a5.006,5.006,0,0,0,4.9,5.2,4.386,4.386,0,0,0,3.52-1.741v1.541h1.721v-10h-1.721v1.541a4.386,4.386,0,0,0-3.52-1.741A5.006,5.006,0,0,0,430.987,849.321Zm8.562,0a3.417,3.417,0,1,1-3.4-3.62A3.415,3.415,0,0,1,439.549,849.321Zm5.319,9.182h1.72v-5.721a4.388,4.388,0,0,0,3.521,1.741,5.211,5.211,0,0,0,0-10.4,4.388,4.388,0,0,0-3.521,1.741V844.32h-1.72V858.5Zm8.382-9.182a3.408,3.408,0,1,1-3.4-3.62A3.415,3.415,0,0,1,453.25,849.321Zm9.979,4.861v-1.54a3.8,3.8,0,0,1-1.22.2,1.44,1.44,0,0,1-1.66-1.7V845.9h2.88V844.32h-2.88v-2.78h-1.721v2.78h-2.12V845.9h2.12v5.461a2.816,2.816,0,0,0,3.061,3.061A4.756,4.756,0,0,0,463.229,854.182Zm4.78-13.762a1.208,1.208,0,0,0-1.2-1.221,1.243,1.243,0,0,0-1.241,1.221,1.229,1.229,0,0,0,1.241,1.22A1.2,1.2,0,0,0,468.009,840.42Zm-2.081,13.9h1.721v-10h-1.721v10Zm15.143-5a5.232,5.232,0,1,0-5.222,5.2A5.134,5.134,0,0,0,481.071,849.321Zm-8.7,0a3.473,3.473,0,1,1,3.48,3.6A3.437,3.437,0,0,1,472.369,849.321Zm11.659,5h1.721v-4.962c0-2.34,1.28-3.66,2.9-3.66,1.4,0,2.36,1.04,2.36,2.72v5.9h1.7v-6.162c0-2.48-1.54-4.041-3.78-4.041a3.536,3.536,0,0,0-3.181,1.741V844.32h-1.721v10ZM38.144,873.42a1.7,1.7,0,0,0-.26.9,1.48,1.48,0,1,0,2.961,0,1.525,1.525,0,0,0-.82-1.34l1.34-2.86h-1.14Zm3.721,0a1.7,1.7,0,0,0-.26.9,1.481,1.481,0,1,0,2.961,0,1.525,1.525,0,0,0-.82-1.34l1.34-2.86h-1.14Zm6.3,10.9h4.081c4.361,0,7.562-3.041,7.562-7.1s-3.2-7.1-7.562-7.1H48.164v14.2Zm1.861-1.741V871.86h2.22c3.421,0,5.681,2.28,5.681,5.361s-2.261,5.361-5.681,5.361h-2.22Zm14.78-12.162a1.208,1.208,0,0,0-1.2-1.221,1.243,1.243,0,0,0-1.24,1.221,1.229,1.229,0,0,0,1.24,1.22A1.2,1.2,0,0,0,64.805,870.42Zm-2.08,13.9h1.72v-10h-1.72v10Zm11.962-2.781c0-1.5-.94-2.461-2.641-3.021l-1.08-.36c-1.18-.38-1.54-0.76-1.54-1.4,0-.74.74-1.16,1.68-1.16a2.7,2.7,0,0,1,2.121,1.04l1.12-1.08a3.878,3.878,0,0,0-3.2-1.441c-1.981,0-3.381,1.1-3.381,2.721,0,1.4.86,2.38,2.481,2.9l0.98,0.32c1.3,0.42,1.78.9,1.78,1.6a1.523,1.523,0,0,1-1.76,1.36,2.685,2.685,0,0,1-2.561-1.58l-1.4.76a3.974,3.974,0,0,0,3.921,2.321C73.226,884.523,74.686,883.5,74.686,881.542Zm8.26,2.641v-1.541a3.8,3.8,0,0,1-1.22.2,1.44,1.44,0,0,1-1.66-1.7V875.9h2.881V874.32H80.065v-2.78H78.345v2.78h-2.12V875.9h2.12v5.461a2.816,2.816,0,0,0,3.061,3.061A4.787,4.787,0,0,0,82.946,884.183Zm4.779-13.763a1.208,1.208,0,0,0-1.2-1.221,1.243,1.243,0,0,0-1.24,1.221,1.229,1.229,0,0,0,1.24,1.22A1.2,1.2,0,0,0,87.725,870.42Zm-2.08,13.9h1.72v-10h-1.72v10Zm5.48,0h1.72v-4.962c0-2.34,1.28-3.66,2.9-3.66,1.4,0,2.361,1.04,2.361,2.72v5.9h1.7v-6.162c0-2.48-1.54-4.041-3.781-4.041a3.536,3.536,0,0,0-3.181,1.741V874.32h-1.72v10Zm21.6-.581V874.32h-1.72v1.541a4.258,4.258,0,0,0-3.481-1.741,5.1,5.1,0,0,0,0,10.183,4.273,4.273,0,0,0,3.481-1.761v1.14a3.2,3.2,0,0,1-3.341,3.461,4.28,4.28,0,0,1-3.5-1.68l-1.2,1.2a5.937,5.937,0,0,0,4.721,2.04C110.527,888.7,112.727,887.083,112.727,883.742Zm-8.342-4.541a3.383,3.383,0,1,1,3.381,3.5A3.333,3.333,0,0,1,104.385,879.2Zm11.94,1.261c0,2.48,1.48,4.061,3.681,4.061a3.443,3.443,0,0,0,3.081-1.741v1.541h1.72v-10h-1.72v4.961c0,2.3-1.221,3.661-2.781,3.661-1.38,0-2.261-1.06-2.261-2.74V874.32h-1.72v6.142Zm14.3-10.042a1.208,1.208,0,0,0-1.2-1.221,1.243,1.243,0,0,0-1.241,1.221,1.229,1.229,0,0,0,1.241,1.22A1.2,1.2,0,0,0,130.626,870.42Zm-2.081,13.9h1.721v-10h-1.721v10Zm11.962-2.781c0-1.5-.94-2.461-2.641-3.021l-1.08-.36c-1.18-.38-1.54-0.76-1.54-1.4,0-.74.74-1.16,1.68-1.16a2.705,2.705,0,0,1,2.121,1.04l1.12-1.08a3.878,3.878,0,0,0-3.2-1.441c-1.98,0-3.381,1.1-3.381,2.721,0,1.4.86,2.38,2.481,2.9l0.98,0.32c1.3,0.42,1.78.9,1.78,1.6a1.522,1.522,0,0,1-1.76,1.36,2.686,2.686,0,0,1-2.561-1.58l-1.4.76a3.974,3.974,0,0,0,3.921,2.321C139.047,884.523,140.507,883.5,140.507,881.542Zm2.958,2.781h1.721v-4.962c0-2.34,1.28-3.66,2.9-3.66,1.4,0,2.361,1.04,2.361,2.72v5.9h1.7v-6.162c0-2.48-1.54-4.041-3.78-4.041a3.536,3.536,0,0,0-3.181,1.741v-6.542h-1.721v15Zm11.5-5a5.274,5.274,0,0,0,9.683,2.821l-1.361-.94a3.541,3.541,0,0,1-6.581-1.54h8.2a4.907,4.907,0,0,0,.02-0.521c-0.02-3.2-2.141-5.021-4.761-5.021A5.069,5.069,0,0,0,154.965,879.321Zm5.141-3.68a2.992,2.992,0,0,1,3.061,2.62h-6.341A3.269,3.269,0,0,1,160.106,875.641Zm6.979,3.68a5.006,5.006,0,0,0,4.9,5.2,4.386,4.386,0,0,0,3.52-1.741v1.541h1.721v-15h-1.721v6.542a4.386,4.386,0,0,0-3.52-1.741A5.006,5.006,0,0,0,167.085,879.321Zm8.562,0a3.417,3.417,0,1,1-3.4-3.62A3.415,3.415,0,0,1,175.647,879.321Zm10.7,5h1.72v-4.962c0-2.34,1.38-3.44,2.641-3.44a2.514,2.514,0,0,1,.94.16V874.3a3.564,3.564,0,0,0-.78-0.08,2.976,2.976,0,0,0-2.8,2.041V874.32h-1.72v10Zm6.7-5a5.005,5.005,0,0,0,4.9,5.2,4.39,4.39,0,0,0,3.521-1.741v1.541h1.72v-10h-1.72v1.541a4.39,4.39,0,0,0-3.521-1.741A5.005,5.005,0,0,0,193.046,879.321Zm8.562,0a3.417,3.417,0,1,1-3.4-3.62A3.415,3.415,0,0,1,201.608,879.321Zm7.4-8.9a1.208,1.208,0,0,0-1.2-1.221,1.242,1.242,0,0,0-1.24,1.221,1.229,1.229,0,0,0,1.24,1.22A1.2,1.2,0,0,0,209.006,870.42Zm-2.08,13.9h1.72v-10h-1.72v10Zm5.48,0h1.72v-4.962c0-2.34,1.281-3.66,2.9-3.66,1.4,0,2.361,1.04,2.361,2.72v5.9h1.7v-6.162c0-2.48-1.54-4.041-3.781-4.041a3.538,3.538,0,0,0-3.181,1.741V874.32h-1.72v10Zm26.982-.581V874.32h-1.72v1.541a4.258,4.258,0,0,0-3.481-1.741,5.1,5.1,0,0,0,0,10.183,4.273,4.273,0,0,0,3.481-1.761v1.14a3.2,3.2,0,0,1-3.341,3.461,4.28,4.28,0,0,1-3.5-1.68l-1.2,1.2a5.937,5.937,0,0,0,4.721,2.04C237.188,888.7,239.388,887.083,239.388,883.742Zm-8.342-4.541a3.383,3.383,0,1,1,3.381,3.5A3.332,3.332,0,0,1,231.046,879.2Zm11.3,0.12a5.273,5.273,0,0,0,9.682,2.821l-1.36-.94a3.542,3.542,0,0,1-6.582-1.54h8.2a4.907,4.907,0,0,0,.02-0.521c-0.02-3.2-2.14-5.021-4.761-5.021A5.068,5.068,0,0,0,242.346,879.321Zm5.141-3.68a2.993,2.993,0,0,1,3.061,2.62h-6.342A3.27,3.27,0,0,1,247.487,875.641Zm6.979,3.68a5.006,5.006,0,0,0,4.9,5.2,4.387,4.387,0,0,0,3.521-1.741v1.541h1.72v-10h-1.72v1.541a4.387,4.387,0,0,0-3.521-1.741A5.006,5.006,0,0,0,254.466,879.321Zm8.562,0a3.417,3.417,0,1,1-3.4-3.62A3.415,3.415,0,0,1,263.028,879.321Zm5.318,5h1.721v-4.962c0-2.34,1.38-3.44,2.64-3.44a2.516,2.516,0,0,1,.941.16V874.3a3.566,3.566,0,0,0-.781-0.08,2.976,2.976,0,0,0-2.8,2.041V874.32h-1.721v10Zm8.861-.441a1.71,1.71,0,0,0,.28-0.9,1.48,1.48,0,1,0-2.96,0,1.491,1.491,0,0,0,.82,1.341l-1.341,2.86h1.141Zm10.94-13.462a1.208,1.208,0,0,0-1.2-1.221,1.242,1.242,0,0,0-1.24,1.221,1.229,1.229,0,0,0,1.24,1.22A1.2,1.2,0,0,0,288.147,870.42Zm-2.08,13.9h1.72v-10h-1.72v10Zm5.48,0h1.72v-4.962c0-2.34,1.28-3.66,2.9-3.66,1.4,0,2.36,1.04,2.36,2.72v5.9h1.7v-6.162c0-2.48-1.541-4.041-3.781-4.041a3.536,3.536,0,0,0-3.181,1.741V874.32h-1.72v10Zm11.5-5a5.005,5.005,0,0,0,4.9,5.2,4.39,4.39,0,0,0,3.521-1.741v1.541h1.72v-15h-1.72v6.542a4.39,4.39,0,0,0-3.521-1.741A5.005,5.005,0,0,0,303.047,879.321Zm8.562,0a3.417,3.417,0,1,1-3.4-3.62A3.415,3.415,0,0,1,311.609,879.321Zm4.538,0a5.273,5.273,0,0,0,9.682,2.821l-1.36-.94a3.542,3.542,0,0,1-6.582-1.54h8.2a4.907,4.907,0,0,0,.02-0.521c-0.02-3.2-2.14-5.021-4.761-5.021A5.068,5.068,0,0,0,316.147,879.321Zm5.141-3.68a2.993,2.993,0,0,1,3.061,2.62h-6.342A3.27,3.27,0,0,1,321.288,875.641Zm6.979,3.68a5.273,5.273,0,0,0,9.682,2.821l-1.36-.94a3.542,3.542,0,0,1-6.582-1.54h8.2a4.907,4.907,0,0,0,.02-0.521c-0.02-3.2-2.14-5.021-4.761-5.021A5.068,5.068,0,0,0,328.267,879.321Zm5.141-3.68a2.993,2.993,0,0,1,3.061,2.62h-6.342A3.27,3.27,0,0,1,333.408,875.641Zm6.979,3.68a5.005,5.005,0,0,0,4.9,5.2,4.387,4.387,0,0,0,3.521-1.741v1.541h1.72v-15h-1.72v6.542a4.387,4.387,0,0,0-3.521-1.741A5.005,5.005,0,0,0,340.387,879.321Zm8.562,0a3.417,3.417,0,1,1-3.4-3.62A3.415,3.415,0,0,1,348.949,879.321Zm7.7,3.661a1.481,1.481,0,1,0-1.48,1.5A1.507,1.507,0,0,0,356.648,882.982Zm3.3-10.7a1.768,1.768,0,0,0,.28-0.9,1.49,1.49,0,1,0-2.98,0,1.55,1.55,0,0,0,.82,1.34l-1.341,2.861h1.161Zm3.721,0a1.768,1.768,0,0,0,.28-0.9,1.491,1.491,0,1,0-2.981,0,1.551,1.551,0,0,0,.821,1.34l-1.341,2.861h1.161Zm7.5,9.722a5.486,5.486,0,0,0,4.981,2.561c2.641,0,4.522-1.521,4.522-3.941,0-2.1-1.2-3.3-3.3-4.1l-1.721-.66c-1.44-.54-2.14-1.08-2.14-2.281,0-1.18,1.16-1.96,2.56-1.96a3.515,3.515,0,0,1,2.821,1.4l1.36-1.2a5.18,5.18,0,0,0-4.141-1.941c-2.54,0-4.441,1.461-4.441,3.781,0,1.941,1,3.1,3.221,3.921l1.881,0.72c1.32,0.5,2.04,1.261,2.04,2.4,0,1.32-1.16,2.12-2.621,2.12a3.968,3.968,0,0,1-3.52-1.94Zm14.541-11.582a1.208,1.208,0,0,0-1.2-1.221,1.242,1.242,0,0,0-1.24,1.221,1.229,1.229,0,0,0,1.24,1.22A1.2,1.2,0,0,0,385.708,870.42Zm-2.08,13.9h1.72v-10h-1.72v10Zm5.48,0h1.72v-4.962c0-2.34,1.28-3.66,2.9-3.66,1.4,0,2.36,1.04,2.36,2.72v5.9h1.7v-6.162c0-2.48-1.541-4.041-3.781-4.041a3.537,3.537,0,0,0-3.181,1.741V874.32h-1.72v10Zm21.362-2.481-1.5-.84a3.392,3.392,0,0,1-3.121,1.92,3.6,3.6,0,0,1,0-7.2,3.392,3.392,0,0,1,3.121,1.92l1.5-.84a5.181,5.181,0,0,0-4.621-2.681,5.2,5.2,0,1,0,0,10.4A5.181,5.181,0,0,0,410.47,881.842Zm1.938-2.521a5.273,5.273,0,0,0,9.682,2.821l-1.36-.94a3.542,3.542,0,0,1-6.582-1.54h8.2a4.907,4.907,0,0,0,.02-0.521c-0.02-3.2-2.141-5.021-4.761-5.021A5.068,5.068,0,0,0,412.408,879.321Zm5.141-3.68a2.994,2.994,0,0,1,3.061,2.62h-6.342A3.269,3.269,0,0,1,417.549,875.641Zm18.22,8.542v-1.541a3.8,3.8,0,0,1-1.22.2,1.44,1.44,0,0,1-1.66-1.7V875.9h2.88V874.32h-2.88v-2.78h-1.721v2.78h-2.12V875.9h2.12v5.461a2.816,2.816,0,0,0,3.061,3.061A4.786,4.786,0,0,0,435.769,884.183Zm2.7,0.14h1.72v-4.962c0-2.34,1.281-3.66,2.9-3.66,1.4,0,2.361,1.04,2.361,2.72v5.9h1.7v-6.162c0-2.48-1.54-4.041-3.781-4.041a3.538,3.538,0,0,0-3.181,1.741v-6.542h-1.72v15Zm11.5-5a5.273,5.273,0,0,0,9.682,2.821l-1.36-.94a3.542,3.542,0,0,1-6.582-1.54h8.2a4.907,4.907,0,0,0,.02-0.521c-0.02-3.2-2.14-5.021-4.761-5.021A5.068,5.068,0,0,0,449.968,879.321Zm5.141-3.68a2.992,2.992,0,0,1,3.061,2.62h-6.342A3.27,3.27,0,0,1,455.109,875.641Zm7.759,8.682h1.721v-4.962c0-2.34,1.28-3.66,2.9-3.66,1.4,0,2.361,1.04,2.361,2.72v5.9h1.7v-6.162c0-2.48-1.54-4.041-3.78-4.041a3.536,3.536,0,0,0-3.181,1.741V874.32h-1.721v10Zm14.421-.441a1.71,1.71,0,0,0,.28-0.9,1.481,1.481,0,1,0-2.961,0,1.49,1.49,0,0,0,.821,1.341l-1.341,2.86h1.14Zm13.941,0.3v-1.541a3.8,3.8,0,0,1-1.221.2,1.44,1.44,0,0,1-1.66-1.7V875.9h2.881V874.32h-2.881v-2.78h-1.72v2.78h-2.121V875.9h2.121v5.461a2.816,2.816,0,0,0,3.06,3.061A4.787,4.787,0,0,0,491.23,884.183Zm2.7,0.14h1.72v-4.962c0-2.34,1.28-3.66,2.9-3.66,1.4,0,2.36,1.04,2.36,2.72v5.9h1.7v-6.162c0-2.48-1.541-4.041-3.781-4.041a3.536,3.536,0,0,0-3.181,1.741v-6.542h-1.72v15Zm11.5-5a5.273,5.273,0,0,0,9.682,2.821l-1.36-.94a3.542,3.542,0,0,1-6.582-1.54h8.2a4.907,4.907,0,0,0,.02-0.521c-0.02-3.2-2.141-5.021-4.761-5.021A5.068,5.068,0,0,0,505.429,879.321Zm5.141-3.68a2.992,2.992,0,0,1,3.06,2.62h-6.341A3.269,3.269,0,0,1,510.57,875.641ZM44.105,914.183v-1.541a3.8,3.8,0,0,1-1.22.2,1.44,1.44,0,0,1-1.66-1.7V905.9h2.881V904.32H41.225v-2.78H39.5v2.78h-2.12V905.9H39.5v5.461a2.816,2.816,0,0,0,3.061,3.061A4.787,4.787,0,0,0,44.105,914.183Zm2.7,0.14h1.72v-4.962c0-2.34,1.38-3.44,2.641-3.44a2.515,2.515,0,0,1,.94.16V904.3a3.565,3.565,0,0,0-.78-0.08,2.977,2.977,0,0,0-2.8,2.041V904.32H46.8v10Zm6.68-5a5.273,5.273,0,0,0,9.682,2.821l-1.36-.94a3.542,3.542,0,0,1-6.581-1.54h8.2a4.907,4.907,0,0,0,.02-0.521c-0.02-3.2-2.141-5.021-4.761-5.021A5.069,5.069,0,0,0,53.484,909.321Zm5.141-3.68a2.992,2.992,0,0,1,3.061,2.62H55.345A3.27,3.27,0,0,1,58.626,905.641Zm7.759,8.682h1.72v-4.962c0-2.34,1.28-3.66,2.9-3.66,1.4,0,2.361,1.04,2.361,2.72v5.9h1.7v-6.162c0-2.48-1.54-4.041-3.781-4.041a3.536,3.536,0,0,0-3.181,1.741V904.32h-1.72v10Zm21.362-2.481-1.5-.84a3.391,3.391,0,0,1-3.121,1.92,3.6,3.6,0,0,1,0-7.2,3.391,3.391,0,0,1,3.121,1.92l1.5-.84a5.181,5.181,0,0,0-4.621-2.681,5.2,5.2,0,1,0,0,10.4A5.181,5.181,0,0,0,87.747,911.842Zm2.718,2.481h1.721v-4.962c0-2.34,1.28-3.66,2.9-3.66,1.4,0,2.361,1.04,2.361,2.72v5.9h1.7v-6.162c0-2.48-1.54-4.041-3.781-4.041a3.536,3.536,0,0,0-3.181,1.741v-6.542H90.465v15Zm17.66,0h1.72v-4.962c0-2.34,1.281-3.66,2.9-3.66,1.4,0,2.361,1.04,2.361,2.72v5.9h1.7v-6.162c0-2.48-1.54-4.041-3.781-4.041a3.538,3.538,0,0,0-3.181,1.741v-6.542h-1.72v15Zm11.5-5a5.005,5.005,0,0,0,4.9,5.2,4.388,4.388,0,0,0,3.521-1.741v1.541h1.72v-10h-1.72v1.541a4.388,4.388,0,0,0-3.521-1.741A5.005,5.005,0,0,0,119.625,909.321Zm8.562,0a3.417,3.417,0,1,1-3.4-3.62A3.415,3.415,0,0,1,128.187,909.321Zm11.8,2.221c0-1.5-.941-2.461-2.641-3.021l-1.08-.36c-1.18-.38-1.541-0.76-1.541-1.4,0-.74.741-1.16,1.681-1.16a2.7,2.7,0,0,1,2.12,1.04l1.121-1.08a3.879,3.879,0,0,0-3.2-1.441c-1.981,0-3.381,1.1-3.381,2.721,0,1.4.86,2.38,2.481,2.9l0.98,0.32c1.3,0.42,1.78.9,1.78,1.6a1.522,1.522,0,0,1-1.76,1.36,2.685,2.685,0,0,1-2.561-1.58l-1.4.76a3.973,3.973,0,0,0,3.921,2.321C138.526,914.523,139.987,913.5,139.987,911.542Zm10.059,1.24a4.386,4.386,0,0,0,3.52,1.741,5.211,5.211,0,0,0,0-10.4,4.386,4.386,0,0,0-3.52,1.741v-6.542h-1.721v15h1.721v-1.541Zm6.661-3.461a3.408,3.408,0,1,1-3.4-3.62A3.415,3.415,0,0,1,156.707,909.321Zm3.938,0a5.273,5.273,0,0,0,9.682,2.821l-1.36-.94a3.542,3.542,0,0,1-6.582-1.54h8.2a4.907,4.907,0,0,0,.02-0.521c-0.02-3.2-2.14-5.021-4.761-5.021A5.069,5.069,0,0,0,160.645,909.321Zm5.141-3.68a2.992,2.992,0,0,1,3.061,2.62h-6.342A3.271,3.271,0,0,1,165.786,905.641Zm16.842,6.2-1.5-.84a3.39,3.39,0,0,1-3.121,1.92,3.6,3.6,0,0,1,0-7.2,3.39,3.39,0,0,1,3.121,1.92l1.5-.84a5.183,5.183,0,0,0-4.622-2.681,5.2,5.2,0,1,0,0,10.4A5.183,5.183,0,0,0,182.628,911.842Zm12.38-2.521a5.232,5.232,0,1,0-5.221,5.2A5.133,5.133,0,0,0,195.008,909.321Zm-8.7,0a3.473,3.473,0,1,1,3.481,3.6A3.437,3.437,0,0,1,186.306,909.321Zm11.66,5h1.72v-4.962c0-2.26,1.14-3.66,2.761-3.66,1.3,0,1.96,1.12,1.96,2.74v5.882h1.72v-4.962c0-2.26,1.121-3.66,2.741-3.66,1.3,0,1.981,1.12,1.981,2.74v5.882h1.72v-6.142c0-2.44-1.32-4.061-3.5-4.061a3.464,3.464,0,0,0-3.281,2.141,3.144,3.144,0,0,0-3.08-2.141,3.363,3.363,0,0,0-3.021,1.741V904.32h-1.72v10Zm17.42-5a5.273,5.273,0,0,0,9.682,2.821l-1.36-.94a3.542,3.542,0,0,1-6.582-1.54h8.2a4.907,4.907,0,0,0,.02-0.521c-0.02-3.2-2.14-5.021-4.761-5.021A5.068,5.068,0,0,0,215.386,909.321Zm5.141-3.68a2.993,2.993,0,0,1,3.061,2.62h-6.342A3.27,3.27,0,0,1,220.527,905.641Zm12.359,3.68a5.005,5.005,0,0,0,4.9,5.2,4.388,4.388,0,0,0,3.521-1.741v1.541h1.72v-10h-1.72v1.541a4.388,4.388,0,0,0-3.521-1.741A5.005,5.005,0,0,0,232.886,909.321Zm8.562,0a3.417,3.417,0,1,1-3.4-3.62A3.415,3.415,0,0,1,241.448,909.321Zm10.7,5h1.72v-4.962c0-2.34,1.281-3.66,2.9-3.66,1.4,0,2.361,1.04,2.361,2.72v5.9h1.7v-6.162c0-2.48-1.54-4.041-3.781-4.041a3.538,3.538,0,0,0-3.181,1.741v-6.542h-1.72v15Zm11.5-5a5.005,5.005,0,0,0,4.9,5.2,4.388,4.388,0,0,0,3.521-1.741v1.541h1.72v-10h-1.72v1.541a4.388,4.388,0,0,0-3.521-1.741A5.005,5.005,0,0,0,263.646,909.321Zm8.562,0a3.417,3.417,0,1,1-3.4-3.62A3.415,3.415,0,0,1,272.208,909.321Zm5.318,5h1.721v-15h-1.721v15Zm5.48,0h1.721v-15h-1.721v15Zm5.48,0h1.721v-4.962c0-2.26,1.14-3.66,2.76-3.66,1.3,0,1.961,1.12,1.961,2.74v5.882h1.72v-4.962c0-2.26,1.12-3.66,2.741-3.66,1.3,0,1.98,1.12,1.98,2.74v5.882h1.721v-6.142c0-2.44-1.321-4.061-3.5-4.061a3.462,3.462,0,0,0-3.281,2.141,3.145,3.145,0,0,0-3.081-2.141,3.362,3.362,0,0,0-3.02,1.741V904.32h-1.721v10Zm17.42-5a5.006,5.006,0,0,0,4.9,5.2,4.386,4.386,0,0,0,3.52-1.741v1.541h1.721v-10h-1.721v1.541a4.386,4.386,0,0,0-3.52-1.741A5.006,5.006,0,0,0,305.906,909.321Zm8.562,0a3.417,3.417,0,1,1-3.4-3.62A3.415,3.415,0,0,1,314.468,909.321Zm5.319,5h1.72v-4.962c0-2.34,1.38-3.44,2.641-3.44a2.514,2.514,0,0,1,.94.16V904.3a3.564,3.564,0,0,0-.78-0.08,2.976,2.976,0,0,0-2.8,2.041V904.32h-1.72v10Zm7.82,0h1.72v-5l5.421,5h2.321l-6.021-5.582,4.921-4.421h-2.281l-4.361,3.9v-8.9h-1.72v15Zm25.922-5a5.231,5.231,0,1,0-5.221,5.2A5.133,5.133,0,0,0,353.529,909.321Zm-8.7,0a3.473,3.473,0,1,1,3.481,3.6A3.437,3.437,0,0,1,344.827,909.321Zm12.34,5h1.721V905.9h2.9V904.32h-2.9v-1.84a1.44,1.44,0,0,1,1.66-1.7,4.027,4.027,0,0,1,1.24.2v-1.521a4.545,4.545,0,0,0-1.56-.26,2.857,2.857,0,0,0-3.061,3.1v2.02h-2.12V905.9h2.12v8.422Zm11.08-5a5.273,5.273,0,0,0,9.682,2.821l-1.36-.94a3.542,3.542,0,0,1-6.582-1.54h8.2a4.907,4.907,0,0,0,.02-0.521c-0.02-3.2-2.14-5.021-4.761-5.021A5.069,5.069,0,0,0,368.247,909.321Zm5.141-3.68a2.992,2.992,0,0,1,3.061,2.62h-6.342A3.271,3.271,0,0,1,373.388,905.641Zm6.979,3.68a5.006,5.006,0,0,0,4.9,5.2,4.387,4.387,0,0,0,3.521-1.741v1.541h1.721v-10h-1.721v1.541a4.387,4.387,0,0,0-3.521-1.741A5.006,5.006,0,0,0,380.367,909.321Zm8.562,0a3.417,3.417,0,1,1-3.4-3.62A3.415,3.415,0,0,1,388.929,909.321Zm14.4,2.521-1.5-.84a3.39,3.39,0,0,1-3.12,1.92,3.6,3.6,0,0,1,0-7.2,3.39,3.39,0,0,1,3.12,1.92l1.5-.84a5.181,5.181,0,0,0-4.621-2.681,5.2,5.2,0,1,0,0,10.4A5.181,5.181,0,0,0,403.33,911.842Zm2.718,2.481h1.72v-4.962c0-2.34,1.28-3.66,2.9-3.66,1.4,0,2.36,1.04,2.36,2.72v5.9h1.7v-6.162c0-2.48-1.541-4.041-3.781-4.041a3.536,3.536,0,0,0-3.181,1.741v-6.542h-1.72v15ZM47.766,941.842l-1.5-.84a3.391,3.391,0,0,1-3.121,1.92,3.6,3.6,0,0,1,0-7.2,3.391,3.391,0,0,1,3.121,1.92l1.5-.84a5.181,5.181,0,0,0-4.621-2.681,5.2,5.2,0,1,0,0,10.4A5.181,5.181,0,0,0,47.766,941.842Zm12.38-2.521a5.231,5.231,0,1,0-5.221,5.2A5.133,5.133,0,0,0,60.147,939.321Zm-8.7,0a3.473,3.473,0,1,1,3.481,3.6A3.438,3.438,0,0,1,51.444,939.321Zm11.66,5h1.72v-15H63.1v15Zm5.48,0H70.3v-15h-1.72v15Zm4.7-5a5.273,5.273,0,0,0,9.682,2.821l-1.36-.94a3.542,3.542,0,0,1-6.581-1.54h8.2a4.907,4.907,0,0,0,.02-0.521c-0.02-3.2-2.14-5.021-4.761-5.021A5.069,5.069,0,0,0,73.284,939.321Zm5.141-3.68a2.992,2.992,0,0,1,3.061,2.62H75.145A3.27,3.27,0,0,1,78.425,935.641Zm16.841,6.2-1.5-.84a3.391,3.391,0,0,1-3.121,1.92,3.6,3.6,0,0,1,0-7.2,3.391,3.391,0,0,1,3.121,1.92l1.5-.84a5.181,5.181,0,0,0-4.621-2.681,5.2,5.2,0,1,0,0,10.4A5.181,5.181,0,0,0,95.267,941.842Zm8.139,2.341v-1.541a3.8,3.8,0,0,1-1.221.2,1.44,1.44,0,0,1-1.66-1.7V935.9h2.881V934.32h-2.881v-2.78H98.8v2.78h-2.12V935.9H98.8v5.461a2.816,2.816,0,0,0,3.06,3.061A4.787,4.787,0,0,0,103.406,944.183Zm4.779-13.763a1.208,1.208,0,0,0-1.2-1.221,1.242,1.242,0,0,0-1.24,1.221,1.229,1.229,0,0,0,1.24,1.22A1.2,1.2,0,0,0,108.185,930.42Zm-2.08,13.9h1.72v-10h-1.72v10Zm15.142-5a5.232,5.232,0,1,0-5.221,5.2A5.133,5.133,0,0,0,121.247,939.321Zm-8.7,0a3.473,3.473,0,1,1,3.481,3.6A3.437,3.437,0,0,1,112.545,939.321Zm11.66,5h1.72v-4.962c0-2.34,1.28-3.66,2.9-3.66,1.4,0,2.36,1.04,2.36,2.72v5.9h1.7v-6.162c0-2.48-1.541-4.041-3.781-4.041a3.537,3.537,0,0,0-3.181,1.741V934.32h-1.72v10Zm11.96-4.741h10.1v-1.721h-10.1v1.721Zm13.52,4.741h1.72v-4.962c0-2.34,1.381-3.44,2.641-3.44a2.514,2.514,0,0,1,.94.16V934.3a3.564,3.564,0,0,0-.78-0.08,2.977,2.977,0,0,0-2.8,2.041V934.32h-1.72v10Zm6.7-5a5.005,5.005,0,0,0,4.9,5.2,4.388,4.388,0,0,0,3.521-1.741v1.541h1.72v-10h-1.72v1.541a4.388,4.388,0,0,0-3.521-1.741A5.005,5.005,0,0,0,156.385,939.321Zm8.562,0a3.417,3.417,0,1,1-3.4-3.62A3.415,3.415,0,0,1,164.947,939.321Zm7.4-8.9a1.208,1.208,0,0,0-1.2-1.221,1.242,1.242,0,0,0-1.24,1.221,1.229,1.229,0,0,0,1.24,1.22A1.2,1.2,0,0,0,172.346,930.42Zm-2.081,13.9h1.721v-10h-1.721v10Zm5.48,0h1.721v-4.962c0-2.34,1.28-3.66,2.9-3.66,1.4,0,2.361,1.04,2.361,2.72v5.9h1.7v-6.162c0-2.48-1.54-4.041-3.781-4.041a3.535,3.535,0,0,0-3.18,1.741V934.32h-1.721v10Zm27.323-5a5.232,5.232,0,1,0-5.222,5.2A5.134,5.134,0,0,0,203.068,939.321Zm-8.7,0a3.473,3.473,0,1,1,3.481,3.6A3.438,3.438,0,0,1,194.365,939.321Zm11.66,5h1.721v-4.962c0-2.34,1.38-3.44,2.64-3.44a2.519,2.519,0,0,1,.941.16V934.3a3.572,3.572,0,0,0-.781-0.08,2.976,2.976,0,0,0-2.8,2.041V934.32h-1.721v10Zm19.182-2.781c0-1.5-.94-2.461-2.641-3.021l-1.08-.36c-1.18-.38-1.54-0.76-1.54-1.4,0-.74.74-1.16,1.68-1.16a2.7,2.7,0,0,1,2.121,1.04l1.12-1.08a3.878,3.878,0,0,0-3.2-1.441c-1.98,0-3.381,1.1-3.381,2.721,0,1.4.861,2.38,2.481,2.9l0.98,0.32c1.3,0.42,1.781.9,1.781,1.6a1.523,1.523,0,0,1-1.761,1.36,2.684,2.684,0,0,1-2.56-1.58l-1.4.76a3.974,3.974,0,0,0,3.921,2.321C223.747,944.523,225.207,943.5,225.207,941.542Zm2.959,2.781h1.72v-4.962c0-2.34,1.28-3.66,2.9-3.66,1.4,0,2.36,1.04,2.36,2.72v5.9h1.7v-6.162c0-2.48-1.541-4.041-3.781-4.041a3.536,3.536,0,0,0-3.181,1.741v-6.542h-1.72v15Zm14.36-13.9a1.208,1.208,0,0,0-1.2-1.221,1.242,1.242,0,0,0-1.24,1.221,1.229,1.229,0,0,0,1.24,1.22A1.2,1.2,0,0,0,242.526,930.42Zm-2.08,13.9h1.72v-10h-1.72v10Zm5.48,0h1.72v-4.962c0-2.34,1.28-3.66,2.9-3.66,1.4,0,2.36,1.04,2.36,2.72v5.9h1.7v-6.162c0-2.48-1.541-4.041-3.781-4.041a3.536,3.536,0,0,0-3.181,1.741V934.32h-1.72v10Zm11.5-5a5.273,5.273,0,0,0,9.682,2.821l-1.36-.94a3.542,3.542,0,0,1-6.582-1.54h8.2a4.907,4.907,0,0,0,.02-0.521c-0.02-3.2-2.141-5.021-4.761-5.021A5.068,5.068,0,0,0,257.426,939.321Zm5.141-3.68a2.992,2.992,0,0,1,3.06,2.62h-6.341A3.269,3.269,0,0,1,262.567,935.641Zm10.139,7.341a1.48,1.48,0,1,0-1.48,1.5A1.507,1.507,0,0,0,272.706,942.982Z"/>
  <path id="IN_THE_TRENCHES_" data-name="IN THE TRENCHES   " class="cls-1" d="M40.074,740.072h6.291v-28.09H40.074v28.09Zm40.012,0v-28.09h-6.33v17.329l-13.65-17.329h-5.42v28.09h6.291V722.7l13.689,17.368h5.42Zm23.342,0h6.33V718H117v-6.014H96.267V718h7.161v22.076Zm19.8,0h6.291V728.955h11.315v11.117h6.291v-28.09h-6.291v11H129.523v-11h-6.291v28.09Zm32.235,0h17.8v-6.014H161.757v-5.024h9.14V723.02h-9.14V718H173.27v-6.014h-17.8v28.09Zm39.991,0h6.33V718h7.24v-6.014H188.3V718h7.161v22.076Zm19.8,0h6.291V728.48h1.028l9.337,11.592h7.557l-9.93-12.383c3.56-1.266,5.5-3.6,5.5-7.24a8.294,8.294,0,0,0-8.7-8.467H215.262v28.09Zm6.291-16.933v-5.381h4.035c1.86,0,3.205.989,3.205,2.691,0,1.622-1.345,2.69-3.205,2.69h-4.035Zm22.3,16.933h17.8v-6.014H250.143v-5.024h9.14V723.02h-9.14V718h11.513v-6.014h-17.8v28.09Zm50.387,0v-28.09h-6.33v17.329l-13.65-17.329h-5.42v28.09h6.291V722.7l13.689,17.368h5.42Zm21.276,0.475a14.522,14.522,0,0,0,13.136-7.676l-5.539-3.006a8.428,8.428,0,1,1,0-7.676l5.539-3.006A14.645,14.645,0,1,0,315.516,740.547Zm19.218-.475h6.291V728.955H352.34v11.117h6.291v-28.09H352.34v11H341.025v-11h-6.291v28.09Zm32.234,0h17.8v-6.014H373.259v-5.024H382.4V723.02h-9.139V718h11.513v-6.014h-17.8v28.09Zm33.376,0.475c5.934,0,10.009-3.561,10.049-8.665,0.039-4.233-2.611-6.923-6.687-8.387l-1.978-.712c-2.967-1.068-4.352-1.741-4.352-3.244,0-1.464,1.7-2.137,3.4-2.137a6.248,6.248,0,0,1,4.866,2.335l4.115-4.352a11.722,11.722,0,0,0-9.06-3.878c-5.618,0-9.694,3.205-9.694,8.665,0,3.837,2.533,6.567,7.082,8.11l1.979,0.673c2.809,0.949,3.916,1.938,3.916,3.363,0,1.345-1.305,2.334-3.4,2.334a7.349,7.349,0,0,1-5.816-3.205l-4.827,4.075A12.318,12.318,0,0,0,400.344,740.547Z"/>
</svg>
