<svg id="Copy_copy_12" data-name="Copy copy 12" xmlns="http://www.w3.org/2000/svg" width="672" height="1097" viewBox="0 0 672 1097">
  <metadata><?xpacket begin="﻿" id="W5M0MpCehiHzreSzNTczkc9d"?>
<x:xmpmeta xmlns:x="adobe:ns:meta/" x:xmptk="Adobe XMP Core 5.6-c138 79.159824, 2016/09/14-01:09:01        ">
   <rdf:RDF xmlns:rdf="http://www.w3.org/1999/02/22-rdf-syntax-ns#">
      <rdf:Description rdf:about=""/>
   </rdf:RDF>
</x:xmpmeta>
                                                                                                    
                                                                                                    
                                                                                                    
                                                                                                    
                                                                                                    
                                                                                                    
                                                                                                    
                                                                                                    
                                                                                                    
                                                                                                    
                                                                                                    
                                                                                                    
                                                                                                    
                                                                                                    
                                                                                                    
                                                                                                    
                                                                                                    
                                                                                                    
                                                                                                    
                                                                                                    
                           
<?xpacket end="w"?></metadata>
<defs>
    <style>
      .cls-1 {
        fill-rule: evenodd;
      }
    </style>
  </defs>
  <path id="Utility_Trench_Coat_" data-name="Utility Trench Coat      " class="cls-1" d="M95.566,881.386a5.569,5.569,0,0,0,5.84-5.86v-8.579h-3.18v8.619a2.661,2.661,0,1,1-5.32,0v-8.619h-3.18v8.579A5.558,5.558,0,0,0,95.566,881.386Zm12.84-.24h3.2v-11.16h3.66v-3.039h-10.48v3.039h3.62v11.16Zm10.4,0h3.18v-14.2h-3.18v14.2Zm7.78,0h9.06v-3.04h-5.88V866.947h-3.18v14.2Zm12.64,0h3.18v-14.2h-3.18v14.2Zm10.339,0h3.2v-11.16h3.66v-3.039h-10.48v3.039h3.62v11.16Zm14.24,0h3.2v-5.96l5.18-8.239h-3.7l-3.1,5.119-3.06-5.119h-3.7l5.18,8.219v5.98Zm19.14,0h3.2v-11.16h3.66v-3.039h-10.48v3.039h3.62v11.16Zm10.4,0h3.18v-5.86h0.52l4.72,5.86h3.82l-5.02-6.26a3.665,3.665,0,0,0,2.78-3.66,4.192,4.192,0,0,0-4.4-4.279h-5.6v14.2Zm3.18-8.56v-2.719h2.04a1.414,1.414,0,0,1,1.62,1.359,1.437,1.437,0,0,1-1.62,1.36h-2.04Zm11.66,8.56h9v-3.04h-5.82v-2.54h4.62v-3.04h-4.62v-2.54h5.82v-3.039h-9v14.2Zm25.859,0v-14.2h-3.2v8.759l-6.9-8.759h-2.74v14.2h3.18v-8.78l6.92,8.78h2.739Zm11.14,0.24a7.34,7.34,0,0,0,6.64-3.88l-2.8-1.52a4.259,4.259,0,1,1,0-3.88l2.8-1.52A7.4,7.4,0,1,0,245.184,881.386Zm10.1-.24h3.18v-5.62h5.72v5.62h3.18v-14.2h-3.18v5.559h-5.72v-5.559h-3.18v14.2Zm29.22,0.24a7.34,7.34,0,0,0,6.64-3.88l-2.8-1.52a4.259,4.259,0,1,1,0-3.88l2.8-1.52A7.4,7.4,0,1,0,284.5,881.386Zm16.64,0a7.34,7.34,0,1,0-7.34-7.34A7.358,7.358,0,0,0,301.144,881.386Zm0-3.08a4.262,4.262,0,1,1,4.12-4.26A4.213,4.213,0,0,1,301.144,878.306Zm8.98,2.84h3.32l1.26-3h5.88l1.26,3h3.32l-6.08-14.2H316.2Zm5.74-5.76,1.78-4.28,1.78,4.28h-3.56Zm13.52,5.76h3.2v-11.16h3.66v-3.039h-10.48v3.039h3.62v11.16Z"/>
  <path id="Rectangle_116_copy_2" data-name="Rectangle 116 copy 2" class="cls-1" d="M652.009,53.058l-1.094,1.085-15.976-15.83L618.1,55l-1.105-1.094,16.843-16.688L617.547,21.082,618.641,20l16.287,16.138,15.758-15.614,1.105,1.1L636.033,37.231Z"/>
  <path id="Rectangle_116_copy_3" data-name="Rectangle 116 copy 3" class="cls-1" d="M21.085,597.086l0.079,0.081L53.9,564l1.1,1.119L22.27,598.287l32.183,32.607L53.359,632,19.991,598.2Z"/>
  <path id="Shop_Now_copy" data-name="Shop Now copy" class="cls-1" d="M89.661,920.093a4.267,4.267,0,0,0,3.795,1.92c2.085,0,3.555-1.215,3.555-3.075,0.015-1.59-.93-2.535-2.5-3.12l-1.08-.4c-1.095-.4-1.62-0.75-1.62-1.53a1.465,1.465,0,0,1,1.68-1.23,2.58,2.58,0,0,1,2.025.99l1.215-1.185A4.1,4.1,0,0,0,93.5,911c-1.98,0-3.465,1.14-3.465,3,0,1.455.825,2.385,2.52,3l1.17,0.42c1.02,0.375,1.515.87,1.515,1.62a1.5,1.5,0,0,1-1.725,1.32A2.9,2.9,0,0,1,91.041,919Zm11.955,1.74h1.755v-4.575h5.265v4.575h1.754v-10.65h-1.754v4.41h-5.265v-4.41h-1.755v10.65Zm24.434-5.325a5.5,5.5,0,1,0-5.5,5.5A5.48,5.48,0,0,0,126.05,916.508Zm-9.239,0a3.728,3.728,0,1,1,3.735,3.81A3.733,3.733,0,0,1,116.811,916.508Zm17.249-5.325h-3.389v10.65h1.754v-3.69h1.635A3.486,3.486,0,1,0,134.06,911.183Zm-0.015,5.31h-1.62v-3.66h1.62A1.836,1.836,0,1,1,134.045,916.493Zm23.19,5.34v-10.65h-1.77v7.635l-5.985-7.635h-1.53v10.65h1.755v-7.665l6,7.665h1.53Zm15.645-5.325a5.5,5.5,0,1,0-5.5,5.5A5.48,5.48,0,0,0,172.88,916.508Zm-9.24,0a3.728,3.728,0,1,1,3.735,3.81A3.733,3.733,0,0,1,163.64,916.508Zm22.125,5.325h1.62l2.76-10.65h-1.86l-1.95,7.74L183.29,911l-3.045,7.92-1.95-7.74H176.45l2.745,10.65h1.62l2.475-6.51Zm-96.584,3.5v-1.349H192.815v1.349H89.181Z"/>
</svg>
