<svg data-name="Header copy" xmlns="http://www.w3.org/2000/svg" width="1440" height="210"><path fill="#9a927f" d="M0 0h1440v210H0z"/><path data-name="Iconic Banana Republic. Styled for now." d="M463.782 111.785h3.974V94.04h-3.974v17.745zm14.223.275a6.659 6.659 0 0 0 5.974-3.649l-3.3-1.75a2.907 2.907 0 0 1-2.675 1.875 3 3 0 0 1 0-6 2.907 2.907 0 0 1 2.675 1.875l3.3-1.75a6.658 6.658 0 0 0-5.974-3.649 6.525 6.525 0 1 0 0 13.048zm15.05 0a6.524 6.524 0 1 0-6.573-6.523 6.523 6.523 0 0 0 6.573 6.523zm0-3.524a3.009 3.009 0 1 1 2.775-3 2.8 2.8 0 0 1-2.775 3zm10.152 3.249h3.774v-6.073c0-2.25 1.1-3.275 2.524-3.275 1.35 0 2.025 1.05 2.025 2.775v6.573h3.77v-7.223c0-3.274-1.775-5.549-4.849-5.549a4.216 4.216 0 0 0-3.474 1.55v-1.275h-3.774v12.5zm18.174-14.2a2.349 2.349 0 1 0-2.349-2.349 2.352 2.352 0 0 0 2.349 2.353zm-1.875 14.2h3.774v-12.5h-3.774v12.5zm14.024.275a6.657 6.657 0 0 0 5.973-3.649l-3.3-1.75a2.905 2.905 0 0 1-2.674 1.875 3 3 0 0 1 0-6 2.905 2.905 0 0 1 2.674 1.875l3.3-1.75a6.657 6.657 0 0 0-5.973-3.649 6.525 6.525 0 1 0 0 13.048zm16.326-.275h7.8a5.247 5.247 0 0 0 5.4-5.224 4.638 4.638 0 0 0-2.525-4.2 4.173 4.173 0 0 0 1.275-3.049 5.275 5.275 0 0 0-5.274-5.274h-6.673v17.745zm3.974-10.572v-3.549h2.249a1.8 1.8 0 0 1 1.85 1.8 1.779 1.779 0 0 1-1.85 1.75h-2.249zm0 6.923v-3.549h3.47a1.806 1.806 0 0 1 1.875 1.774 1.784 1.784 0 0 1-1.85 1.775h-3.5zm17.875 3.924a4.327 4.327 0 0 0 3.4-1.525v1.25h3.774v-12.5H575.1v1.25a4.327 4.327 0 0 0-3.4-1.525c-3.275 0-5.8 2.975-5.8 6.524s2.53 6.526 5.805 6.526zm.849-3.424a3.11 3.11 0 1 1 2.85-3.1 2.854 2.854 0 0 1-2.85 3.1zm10.677 3.149h3.774v-6.073c0-2.25 1.1-3.275 2.524-3.275 1.35 0 2.025 1.05 2.025 2.775v6.573h3.774v-7.223c0-3.274-1.775-5.549-4.849-5.549a4.214 4.214 0 0 0-3.474 1.55v-1.275h-3.774v12.5zm21.348.275a4.326 4.326 0 0 0 3.4-1.525v1.25h3.774v-12.5h-3.774v1.25a4.326 4.326 0 0 0-3.4-1.525c-3.274 0-5.8 2.975-5.8 6.524s2.521 6.526 5.8 6.526zm.85-3.424a3.111 3.111 0 1 1 2.849-3.1 2.854 2.854 0 0 1-2.849 3.1zm10.676 3.149h3.774v-6.073c0-2.25 1.1-3.275 2.525-3.275 1.349 0 2.024 1.05 2.024 2.775v6.573h3.772v-7.223c0-3.274-1.774-5.549-4.849-5.549a4.217 4.217 0 0 0-3.474 1.55v-1.275h-3.774v12.5zm21.349.275a4.327 4.327 0 0 0 3.4-1.525v1.25h3.774v-12.5h-3.774v1.25a4.327 4.327 0 0 0-3.4-1.525c-3.275 0-5.8 2.975-5.8 6.524s2.525 6.526 5.8 6.526zm.849-3.424a3.11 3.11 0 1 1 2.85-3.1 2.854 2.854 0 0 1-2.853 3.1zm17.751 3.149h3.974v-7.323h.65l5.9 7.323h4.773l-6.273-7.823c2.249-.8 3.474-2.274 3.474-4.574a5.239 5.239 0 0 0-5.5-5.349h-7v17.745zm3.974-10.7v-3.4h2.55a1.768 1.768 0 0 1 2.024 1.7 1.8 1.8 0 0 1-2.024 1.7h-2.55zm18.75 10.972a7.014 7.014 0 0 0 5.873-2.749l-2.8-2.1a3.628 3.628 0 0 1-3.024 1.425 2.815 2.815 0 0 1-3.049-2.2h9.072a9.639 9.639 0 0 0 .075-1.324c0-4.049-2.924-6.1-6.223-6.1a6.524 6.524 0 1 0 .076 13.051zm-.175-9.972a2.5 2.5 0 0 1 2.574 1.874h-5.3a2.61 2.61 0 0 1 2.723-1.871zm9.951 14.921h3.774v-6.474a4.327 4.327 0 0 0 3.4 1.525c3.275 0 5.8-2.974 5.8-6.523s-2.524-6.524-5.8-6.524a4.327 4.327 0 0 0-3.4 1.525v-1.25h-3.774v17.721zm6.324-8.373a3.111 3.111 0 1 1 2.849-3.1 2.855 2.855 0 0 1-2.849 3.103zm14.822 3.427a3.846 3.846 0 0 0 3.324-1.55v1.275h3.776v-12.5h-3.774v6.074c0 2.3-.925 3.274-2.349 3.274-1.4 0-1.925-1.05-1.925-2.874v-6.471h-3.774v7.123c.001 3.4 1.622 5.649 4.722 5.649zm18.624 0c3.274 0 5.8-2.974 5.8-6.523s-2.525-6.524-5.8-6.524a4.326 4.326 0 0 0-3.4 1.525v-7.5h-3.774v18.745h3.774v-1.25a4.326 4.326 0 0 0 3.403 1.527zm-.85-3.424a3.111 3.111 0 1 1 2.849-3.1 2.854 2.854 0 0 1-2.846 3.1zm10.251 3.149h3.775V93.04h-3.775v18.745zm10-14.2a2.349 2.349 0 1 0-2.35-2.349 2.352 2.352 0 0 0 2.353 2.353zm-1.875 14.2h3.774v-12.5h-3.774v12.5zm14.024.275a6.657 6.657 0 0 0 5.973-3.649l-3.3-1.75a2.906 2.906 0 0 1-2.674 1.875 3 3 0 0 1 0-6 2.906 2.906 0 0 1 2.674 1.875l3.3-1.75a6.657 6.657 0 0 0-5.973-3.649 6.525 6.525 0 1 0 .003 13.048zm11.276-.075a2.675 2.675 0 1 0-2.675-2.674 2.678 2.678 0 0 0 2.678 2.674zm18.748.1c3.749 0 6.324-2.249 6.349-5.474.025-2.674-1.65-4.374-4.224-5.3l-1.25-.45c-1.874-.675-2.749-1.1-2.749-2.05 0-.925 1.075-1.35 2.149-1.35a3.945 3.945 0 0 1 3.074 1.475l2.6-2.749a7.405 7.405 0 0 0-5.724-2.449c-3.549 0-6.123 2.025-6.123 5.474 0 2.425 1.6 4.149 4.474 5.124l1.249.425c1.775.6 2.475 1.225 2.475 2.124 0 .85-.825 1.475-2.15 1.475a4.643 4.643 0 0 1-3.674-2.025l-3.049 2.575a7.783 7.783 0 0 0 6.575 3.175zm15.8-.15a8.458 8.458 0 0 0 2.25-.25v-3.349a3.681 3.681 0 0 1-1.375.225 1.817 1.817 0 0 1-2.125-2.125v-3.874h3.5v-3.274h-3.5v-3.474h-3.774v3.474h-2.5v3.274h2.5v4.649c.003 3.174 2.253 4.724 5.026 4.724zm11 5.074l7.773-17.721h-4.149l-3.074 7.723-3.1-7.723h-4.124l5.2 11.772-2.6 5.949h4.076zm10.526-5.224H831V93.04h-3.774v18.745zm14.024.275a7.015 7.015 0 0 0 5.873-2.749l-2.8-2.1a3.628 3.628 0 0 1-3.024 1.425 2.816 2.816 0 0 1-3.05-2.2h9.073a9.639 9.639 0 0 0 .075-1.324c0-4.049-2.924-6.1-6.223-6.1a6.524 6.524 0 1 0 .079 13.048zm-.175-9.972a2.5 2.5 0 0 1 2.574 1.874h-5.3a2.612 2.612 0 0 1 2.729-1.874zm15 9.972a4.327 4.327 0 0 0 3.4-1.525v1.25h3.774V93.04h-3.774v7.5a4.327 4.327 0 0 0-3.4-1.525c-3.275 0-5.8 2.975-5.8 6.524s2.527 6.521 5.803 6.521zm.849-3.424a3.11 3.11 0 1 1 2.85-3.1 2.854 2.854 0 0 1-2.847 3.1zm18.826 3.149h3.774v-9.223h3.5v-3.274h-3.5v-.9c0-1.5.625-2.124 2.149-2.124a3.633 3.633 0 0 1 1.35.225v-3.324a7.4 7.4 0 0 0-2.249-.275 4.786 4.786 0 0 0-5.024 5.024v1.375h-2.5v3.274h2.5v9.223zm15.874.275a6.524 6.524 0 1 0-6.574-6.523 6.522 6.522 0 0 0 6.577 6.523zm0-3.524a3.009 3.009 0 1 1 2.774-3 2.8 2.8 0 0 1-2.771 3zm10.151 3.249h3.774v-5.923c0-1.8.9-3.05 2.525-3.05a4.832 4.832 0 0 1 1.674.3v-3.824a4.423 4.423 0 0 0-1.224-.15 3.231 3.231 0 0 0-2.975 2.025v-1.875h-3.774v12.5zm17.55 0h3.777v-6.073c0-2.25 1.1-3.275 2.524-3.275 1.35 0 2.025 1.05 2.025 2.775v6.573h3.774v-7.223c0-3.274-1.775-5.549-4.849-5.549a4.217 4.217 0 0 0-3.474 1.55v-1.275h-3.774v12.5zm22.1.275a6.524 6.524 0 1 0-6.573-6.523 6.523 6.523 0 0 0 6.574 6.523zm0-3.524a3.009 3.009 0 1 1 2.775-3 2.8 2.8 0 0 1-2.774 3zm20.649 3.249h3.8l4.1-12.5h-4.049l-2.174 7.648-2.375-7.648h-2.9l-2.374 7.648-2.175-7.648h-4.049l4.124 12.5h3.8l2.15-6.623zm11.952.2a2.675 2.675 0 1 0-2.674-2.674 2.678 2.678 0 0 0 2.675 2.674z" fill="#fff" fill-rule="evenodd"/></svg>