<svg data-name="Header copy" xmlns="http://www.w3.org/2000/svg" width="768" height="174"><path fill="#9a927f" d="M0 0h768v174H0z"/><path data-name="Iconic Banana Republic. Styled for now." d="M117.774 94.4h4.131V75.953h-4.131V94.4zm14.783.286a6.918 6.918 0 0 0 6.208-3.792l-3.428-1.818a3.021 3.021 0 0 1-2.78 1.948 3.121 3.121 0 0 1 0-6.234 3.021 3.021 0 0 1 2.78 1.948l3.428-1.818a6.918 6.918 0 0 0-6.208-3.792 6.781 6.781 0 1 0 0 13.553zm15.641 0a6.78 6.78 0 1 0-6.831-6.779 6.779 6.779 0 0 0 6.833 6.774zm0-3.662a3.126 3.126 0 1 1 2.884-3.117 2.906 2.906 0 0 1-2.882 3.111zm10.551 3.376h3.922v-6.317c0-2.338 1.143-3.4 2.624-3.4 1.4 0 2.1 1.091 2.1 2.883V94.4h3.922v-7.512c0-3.4-1.844-5.767-5.039-5.767a4.383 4.383 0 0 0-3.611 1.611v-1.324h-3.922V94.4zm18.888-14.754A2.442 2.442 0 1 0 175.2 77.2a2.445 2.445 0 0 0 2.437 2.441zM175.689 94.4h3.922V81.408h-3.922V94.4zm14.574.286a6.92 6.92 0 0 0 6.209-3.792l-3.429-1.818a3.021 3.021 0 0 1-2.78 1.948 3.121 3.121 0 0 1 0-6.234 3.021 3.021 0 0 1 2.78 1.948l3.429-1.818a6.92 6.92 0 0 0-6.209-3.792 6.781 6.781 0 1 0 0 13.553zm16.968-.286h8.1a5.452 5.452 0 0 0 5.611-5.429 4.82 4.82 0 0 0-2.623-4.364 4.341 4.341 0 0 0 1.324-3.169 5.481 5.481 0 0 0-5.48-5.481h-6.936V94.4zm4.13-10.988v-3.693h2.339a1.874 1.874 0 0 1 1.922 1.87 1.848 1.848 0 0 1-1.922 1.818h-2.338zm0 7.2v-3.698h3.611a1.876 1.876 0 0 1 1.948 1.844A1.853 1.853 0 0 1 215 90.6h-3.637zm18.577 4.078a4.5 4.5 0 0 0 3.533-1.584v1.3h3.922V81.408h-3.922v1.3a4.5 4.5 0 0 0-3.533-1.585c-3.4 0-6.026 3.091-6.026 6.78s2.623 6.778 6.026 6.778zm.883-3.559a3.232 3.232 0 1 1 2.962-3.221 2.966 2.966 0 0 1-2.962 3.212zm11.1 3.273h3.923v-6.321c0-2.338 1.142-3.4 2.623-3.4 1.4 0 2.1 1.091 2.1 2.883V94.4h3.923v-7.512c0-3.4-1.845-5.767-5.04-5.767a4.381 4.381 0 0 0-3.61 1.611v-1.324h-3.923V94.4zm22.188.286a4.5 4.5 0 0 0 3.532-1.584v1.3h3.923V81.408h-3.923v1.3a4.5 4.5 0 0 0-3.532-1.585c-3.4 0-6.027 3.091-6.027 6.78s2.618 6.778 6.023 6.778zm.883-3.559a3.232 3.232 0 1 1 2.961-3.221 2.966 2.966 0 0 1-2.965 3.212zm11.1 3.273h3.923v-6.321c0-2.338 1.143-3.4 2.623-3.4 1.4 0 2.1 1.091 2.1 2.883V94.4h3.923v-7.512c0-3.4-1.844-5.767-5.039-5.767a4.381 4.381 0 0 0-3.611 1.611v-1.324h-3.923V94.4zm22.188.286a4.5 4.5 0 0 0 3.52-1.59v1.3h3.922V81.408H301.8v1.3a4.5 4.5 0 0 0-3.533-1.585c-3.4 0-6.027 3.091-6.027 6.78s2.628 6.778 6.031 6.778zm.883-3.559a3.232 3.232 0 1 1 2.961-3.221 2.966 2.966 0 0 1-2.97 3.212zM317.6 94.4h4.131v-7.616h.675l6.13 7.611h4.964l-6.52-8.13c2.338-.831 3.61-2.364 3.61-4.754a5.445 5.445 0 0 0-5.714-5.559H317.6V94.4zm4.131-11.117v-3.538h2.649a1.837 1.837 0 0 1 2.1 1.766 1.867 1.867 0 0 1-2.1 1.766h-2.649zm19.486 11.4a7.29 7.29 0 0 0 6.1-2.857l-2.909-2.182a3.77 3.77 0 0 1-3.143 1.481 2.926 2.926 0 0 1-3.169-2.286h9.429a10.027 10.027 0 0 0 .078-1.377c0-4.208-3.039-6.338-6.468-6.338a6.78 6.78 0 1 0 .084 13.557zm-.182-10.364a2.6 2.6 0 0 1 2.676 1.948h-5.507a2.714 2.714 0 0 1 2.833-1.95zm10.342 15.507h3.923V93.1a4.5 4.5 0 0 0 3.533 1.584c3.4 0 6.026-3.091 6.026-6.779s-2.624-6.78-6.026-6.78a4.5 4.5 0 0 0-3.533 1.585v-1.3h-3.923v18.414zm6.572-8.7a3.232 3.232 0 1 1 2.962-3.221 2.966 2.966 0 0 1-2.96 3.217zm15.408 3.559a4 4 0 0 0 3.455-1.61V94.4h3.922V81.408h-3.922v6.312c0 2.39-.961 3.4-2.442 3.4-1.454 0-2-1.091-2-2.987v-6.725h-3.92v7.4c0 3.535 1.688 5.873 4.909 5.873zm19.356 0c3.4 0 6.026-3.091 6.026-6.779s-2.623-6.78-6.026-6.78a4.5 4.5 0 0 0-3.533 1.585v-7.797h-3.92V94.4h3.922v-1.3a4.5 4.5 0 0 0 3.533 1.581zm-.883-3.559a3.232 3.232 0 1 1 2.961-3.221 2.966 2.966 0 0 1-2.959 3.217zm10.656 3.274h3.922V74.914h-3.922V94.4zm10.392-14.754a2.442 2.442 0 1 0-2.441-2.442 2.445 2.445 0 0 0 2.441 2.437zM410.93 94.4h3.923V81.408h-3.923V94.4zm14.575.286a6.919 6.919 0 0 0 6.208-3.792l-3.429-1.818a3.021 3.021 0 0 1-2.779 1.948 3.121 3.121 0 0 1 0-6.234 3.021 3.021 0 0 1 2.779 1.948l3.429-1.818a6.92 6.92 0 0 0-6.208-3.792 6.781 6.781 0 1 0 0 13.553zm11.719-.078a2.779 2.779 0 1 0-2.78-2.779 2.783 2.783 0 0 0 2.78 2.771zm19.485.1c3.9 0 6.572-2.338 6.6-5.689.026-2.779-1.715-4.546-4.39-5.507l-1.3-.468c-1.948-.7-2.857-1.143-2.857-2.13 0-.961 1.117-1.4 2.234-1.4a4.1 4.1 0 0 1 3.195 1.533l2.7-2.857a7.694 7.694 0 0 0-5.948-2.546c-3.689 0-6.364 2.1-6.364 5.689 0 2.52 1.662 4.312 4.649 5.325l1.3.442c1.844.623 2.572 1.273 2.572 2.208 0 .883-.857 1.533-2.234 1.533a4.827 4.827 0 0 1-3.819-2.1l-3.169 2.675a8.088 8.088 0 0 0 6.831 3.291zm16.421-.156a8.791 8.791 0 0 0 2.338-.26v-3.481a3.828 3.828 0 0 1-1.429.234c-1.559 0-2.208-.649-2.208-2.208V84.81h3.637v-3.4h-3.637V77.8h-3.922v3.611h-2.6v3.4h2.6v4.831c0 3.299 2.337 4.909 5.221 4.909zm11.432 5.273l8.078-18.417h-4.312l-3.195 8.026-3.221-8.026h-4.286l5.4 12.234-2.7 6.182h4.234zM495.5 94.4h3.922V74.914H495.5V94.4zm14.574.286a7.29 7.29 0 0 0 6.1-2.857l-2.909-2.182a3.77 3.77 0 0 1-3.143 1.481 2.926 2.926 0 0 1-3.169-2.286h9.429a10.027 10.027 0 0 0 .078-1.377c0-4.208-3.039-6.338-6.468-6.338a6.78 6.78 0 1 0 .084 13.554zm-.182-10.364a2.6 2.6 0 0 1 2.676 1.948h-5.507a2.714 2.714 0 0 1 2.833-1.953zm15.59 10.364a4.5 4.5 0 0 0 3.532-1.584v1.3h3.923V74.914h-3.923v7.793a4.5 4.5 0 0 0-3.532-1.585c-3.4 0-6.027 3.091-6.027 6.78s2.626 6.779 6.029 6.779zm.883-3.559a3.232 3.232 0 1 1 2.961-3.221 2.966 2.966 0 0 1-2.959 3.216zm19.567 3.273h3.922v-9.59h3.637v-3.4h-3.637v-.938c0-1.558.65-2.208 2.234-2.208a3.775 3.775 0 0 1 1.4.234v-3.454a7.683 7.683 0 0 0-2.338-.286 4.974 4.974 0 0 0-5.221 5.221v1.429h-2.6v3.4h2.6V94.4zm16.5.286A6.78 6.78 0 1 0 555.6 87.9a6.779 6.779 0 0 0 6.83 6.781zm0-3.662a3.127 3.127 0 1 1 2.883-3.117 2.907 2.907 0 0 1-2.885 3.111zM572.98 94.4h3.92v-6.161c0-1.87.935-3.169 2.624-3.169a5.02 5.02 0 0 1 1.74.312v-3.974a4.6 4.6 0 0 0-1.273-.156 3.358 3.358 0 0 0-3.091 2.1v-1.944h-3.92V94.4zm18.239 0h3.923v-6.317c0-2.338 1.143-3.4 2.623-3.4 1.4 0 2.1 1.091 2.1 2.883V94.4h3.923v-7.512c0-3.4-1.845-5.767-5.04-5.767a4.381 4.381 0 0 0-3.61 1.611v-1.324h-3.923V94.4zm22.967.286a6.78 6.78 0 1 0-6.832-6.779 6.779 6.779 0 0 0 6.832 6.774zm0-3.662a3.127 3.127 0 1 1 2.883-3.117 2.906 2.906 0 0 1-2.883 3.111zm21.46 3.377h3.954l4.26-12.988h-4.208l-2.26 7.948-2.468-7.948h-3.013l-2.468 7.948-2.26-7.948h-4.213l4.286 12.987h3.949l2.233-6.883zm12.422.199a2.779 2.779 0 1 0-2.779-2.779 2.783 2.783 0 0 0 2.779 2.779z" fill="#fff" fill-rule="evenodd"/></svg>