<svg id="Copy_copy_13" data-name="Copy copy 13" xmlns="http://www.w3.org/2000/svg" width="672" height="1097" viewBox="0 0 672 1097">
  <metadata><?xpacket begin="﻿" id="W5M0MpCehiHzreSzNTczkc9d"?>
<x:xmpmeta xmlns:x="adobe:ns:meta/" x:xmptk="Adobe XMP Core 5.6-c138 79.159824, 2016/09/14-01:09:01        ">
   <rdf:RDF xmlns:rdf="http://www.w3.org/1999/02/22-rdf-syntax-ns#">
      <rdf:Description rdf:about=""/>
   </rdf:RDF>
</x:xmpmeta>
                                                                                                    
                                                                                                    
                                                                                                    
                                                                                                    
                                                                                                    
                                                                                                    
                                                                                                    
                                                                                                    
                                                                                                    
                                                                                                    
                                                                                                    
                                                                                                    
                                                                                                    
                                                                                                    
                                                                                                    
                                                                                                    
                                                                                                    
                                                                                                    
                                                                                                    
                                                                                                    
                           
<?xpacket end="w"?></metadata>
<defs>
    <style>
      .cls-1 {
        fill-rule: evenodd;
      }
    </style>
  </defs>
  <path id="RE-ISSUED_WOOL-CASHMERE_SWEATER_ORIGINALLY_SOLD_IN_1992_" data-name="RE-ISSUED WOOL-CASHMERE SWEATER, ORIGINALLY SOLD IN 1992     " class="cls-1" d="M89.886,881.146h3.18v-5.86h0.52l4.72,5.86h3.82l-5.02-6.26a3.665,3.665,0,0,0,2.78-3.66,4.192,4.192,0,0,0-4.4-4.279h-5.6v14.2Zm3.18-8.56v-2.719h2.04a1.414,1.414,0,0,1,1.62,1.359,1.437,1.437,0,0,1-1.62,1.36h-2.04Zm11.66,8.56h9v-3.04h-5.82v-2.54h4.62v-3.04h-4.62v-2.54h5.82v-3.039h-9v14.2Zm12.24-5.66h5.88v-2.88h-5.88v2.88Zm10.14,5.66h3.18v-14.2h-3.18v14.2Zm12.02,0.24c3,0,5.06-1.8,5.08-4.38,0.02-2.14-1.32-3.5-3.38-4.24l-1-.36c-1.5-.54-2.2-0.88-2.2-1.64,0-.74.86-1.079,1.72-1.079a3.157,3.157,0,0,1,2.46,1.179l2.08-2.2a5.925,5.925,0,0,0-4.58-1.96c-2.84,0-4.9,1.62-4.9,4.379,0,1.94,1.28,3.32,3.58,4.1l1,0.34c1.42,0.48,1.98.98,1.98,1.7,0,0.68-.66,1.18-1.72,1.18a3.715,3.715,0,0,1-2.94-1.62l-2.44,2.06A6.227,6.227,0,0,0,139.126,881.386Zm13.12,0c3,0,5.06-1.8,5.08-4.38,0.02-2.14-1.32-3.5-3.38-4.24l-1-.36c-1.5-.54-2.2-0.88-2.2-1.64,0-.74.86-1.079,1.72-1.079a3.157,3.157,0,0,1,2.46,1.179l2.08-2.2a5.925,5.925,0,0,0-4.58-1.96c-2.84,0-4.9,1.62-4.9,4.379,0,1.94,1.28,3.32,3.58,4.1l1,0.34c1.42,0.48,1.98.98,1.98,1.7,0,0.68-.66,1.18-1.72,1.18a3.715,3.715,0,0,1-2.94-1.62l-2.44,2.06A6.227,6.227,0,0,0,152.246,881.386Zm14.559,0a5.569,5.569,0,0,0,5.84-5.86v-8.579h-3.18v8.619a2.661,2.661,0,1,1-5.32,0v-8.619h-3.179v8.579A5.558,5.558,0,0,0,166.805,881.386Zm10.28-.24h9v-3.04h-5.82v-2.54h4.62v-3.04h-4.62v-2.54h5.82v-3.039h-9v14.2Zm13.02,0h4.84a7.1,7.1,0,1,0,0-14.2h-4.84v14.2Zm3.18-2.92v-8.359h1.66a4.183,4.183,0,0,1,0,8.359h-1.66Zm29.54,2.92h3.02l3.3-14.2h-3.4l-1.94,9-4-9.239-3.98,9.239-1.94-9h-3.4l3.28,14.2h3.02l3.02-6.96Zm16.1,0.24a7.34,7.34,0,1,0-7.34-7.34A7.358,7.358,0,0,0,238.925,881.386Zm0-3.08a4.262,4.262,0,1,1,4.12-4.26A4.213,4.213,0,0,1,238.925,878.306Zm17.68,3.08a7.34,7.34,0,1,0-7.34-7.34A7.358,7.358,0,0,0,256.605,881.386Zm0-3.08a4.262,4.262,0,1,1,4.12-4.26A4.213,4.213,0,0,1,256.605,878.306Zm11.139,2.84h9.06v-3.04h-5.88V866.947h-3.18v14.2Zm10.48-5.66h5.88v-2.88h-5.88v2.88Zm16.68,5.9a7.34,7.34,0,0,0,6.64-3.88l-2.8-1.52a4.259,4.259,0,1,1,0-3.88l2.8-1.52A7.4,7.4,0,1,0,294.9,881.386Zm8.24-.24h3.32l1.26-3h5.88l1.26,3h3.32l-6.08-14.2h-2.88Zm5.74-5.76,1.78-4.28,1.78,4.28h-3.56Zm16.24,6c3,0,5.06-1.8,5.08-4.38,0.02-2.14-1.32-3.5-3.38-4.24l-1-.36c-1.5-.54-2.2-0.88-2.2-1.64,0-.74.86-1.079,1.72-1.079a3.157,3.157,0,0,1,2.46,1.179l2.08-2.2a5.925,5.925,0,0,0-4.58-1.96c-2.84,0-4.9,1.62-4.9,4.379,0,1.94,1.28,3.32,3.58,4.1l1,0.34c1.42,0.48,1.98.98,1.98,1.7,0,0.68-.66,1.18-1.72,1.18a3.715,3.715,0,0,1-2.94-1.62l-2.44,2.06A6.227,6.227,0,0,0,325.124,881.386Zm8.88-.24h3.18v-5.62h5.72v5.62h3.18v-14.2H342.9v5.559h-5.72v-5.559H334v14.2Zm24.02-3.02,4.14-5.74v8.76h3.2v-14.2h-2.9l-4.44,6.119-4.44-6.119h-2.9v14.2h3.18v-8.76Zm11.94,3.02h9v-3.04h-5.82v-2.54h4.62v-3.04h-4.62v-2.54h5.82v-3.039h-9v14.2Zm13.02,0h3.18v-5.86h0.52l4.72,5.86h3.82l-5.02-6.26a3.665,3.665,0,0,0,2.78-3.66,4.192,4.192,0,0,0-4.4-4.279h-5.6v14.2Zm3.18-8.56v-2.719h2.04a1.414,1.414,0,0,1,1.62,1.359,1.437,1.437,0,0,1-1.62,1.36h-2.04Zm11.659,8.56h9v-3.04H401v-2.54h4.62v-3.04H401v-2.54h5.82v-3.039h-9v14.2Zm23.26,0.24c3,0,5.06-1.8,5.08-4.38,0.02-2.14-1.32-3.5-3.38-4.24l-1-.36c-1.5-.54-2.2-0.88-2.2-1.64,0-.74.86-1.079,1.72-1.079a3.157,3.157,0,0,1,2.46,1.179l2.08-2.2a5.925,5.925,0,0,0-4.58-1.96c-2.84,0-4.9,1.62-4.9,4.379,0,1.94,1.28,3.32,3.58,4.1l1,0.34c1.42,0.48,1.98.98,1.98,1.7,0,0.68-.66,1.18-1.72,1.18a3.715,3.715,0,0,1-2.94-1.62l-2.44,2.06A6.227,6.227,0,0,0,421.083,881.386Zm19.84-.24h3.02l3.3-14.2h-3.4l-1.94,9-4-9.239-3.98,9.239-1.94-9h-3.4l3.28,14.2h3.02l3.02-6.96Zm9.72,0h9v-3.04h-5.82v-2.54h4.62v-3.04h-4.62v-2.54h5.82v-3.039h-9v14.2Zm11.5,0h3.32l1.26-3h5.88l1.26,3h3.32l-6.08-14.2h-2.88Zm5.74-5.76,1.78-4.28,1.78,4.28h-3.56Zm13.52,5.76h3.2v-11.16h3.66v-3.039h-10.48v3.039h3.62v11.16Zm10.4,0h9v-3.04h-5.82v-2.54h4.62v-3.04h-4.62v-2.54h5.82v-3.039h-9v14.2Zm13.02,0H508v-5.86h0.52l4.72,5.86h3.82l-5.02-6.26a3.665,3.665,0,0,0,2.78-3.66,4.192,4.192,0,0,0-4.4-4.279h-5.6v14.2Zm3.18-8.56v-2.719h2.04a1.414,1.414,0,0,1,1.62,1.359,1.437,1.437,0,0,1-1.62,1.36H508Zm14.74,7.96a2.739,2.739,0,0,0,.44-1.38,2.14,2.14,0,1,0-4.28,0,2.165,2.165,0,0,0,1.3,1.98l-1.5,3.1h1.74ZM96.426,911.386a7.34,7.34,0,1,0-7.34-7.34A7.358,7.358,0,0,0,96.426,911.386Zm0-3.08a4.262,4.262,0,1,1,4.12-4.26A4.213,4.213,0,0,1,96.426,908.306Zm11.14,2.84h3.18v-5.86h0.52l4.72,5.86h3.82l-5.02-6.26a3.665,3.665,0,0,0,2.78-3.66,4.192,4.192,0,0,0-4.4-4.279h-5.6v14.2Zm3.18-8.56v-2.72h2.04a1.415,1.415,0,0,1,1.62,1.36,1.437,1.437,0,0,1-1.62,1.36h-2.04Zm11.66,8.56h3.18v-14.2h-3.18v14.2Zm14.72,0.24c2.3,0,4.56-.68,5.82-2.1v-6.74h-5.88v2.98h2.78v2.1a4.626,4.626,0,0,1-2.76.68,4.263,4.263,0,1,1-.2-8.52,4.716,4.716,0,0,1,3.58,1.52l2.24-2.179a7.555,7.555,0,0,0-5.82-2.42,7.253,7.253,0,0,0-7.48,7.339A7.375,7.375,0,0,0,137.126,911.386Zm9.919-.24h3.18v-14.2h-3.18v14.2Zm20.62,0v-14.2h-3.2v8.759l-6.9-8.759h-2.74v14.2h3.18v-8.78l6.92,8.78h2.74Zm3.08,0h3.32l1.26-3h5.88l1.26,3h3.32l-6.08-14.2h-2.88Zm5.74-5.76,1.78-4.28,1.78,4.28h-3.56Zm12.38,5.76h9.06v-3.04h-5.88V896.947h-3.18v14.2Zm12.64,0h9.06v-3.04h-5.88V896.947h-3.18v14.2Zm14.48,0h3.2v-5.96l5.18-8.239h-3.7l-3.1,5.119-3.06-5.119h-3.7l5.18,8.219v5.98Zm21.4,0.24c3,0,5.06-1.8,5.08-4.38,0.02-2.14-1.32-3.5-3.38-4.24l-1-.36c-1.5-.54-2.2-0.88-2.2-1.64,0-.74.86-1.08,1.72-1.08a3.159,3.159,0,0,1,2.46,1.18l2.08-2.2a5.925,5.925,0,0,0-4.58-1.96c-2.84,0-4.9,1.62-4.9,4.379,0,1.94,1.28,3.32,3.58,4.1l1,0.34c1.42,0.48,1.98.98,1.98,1.7,0,0.68-.66,1.18-1.72,1.18a3.715,3.715,0,0,1-2.94-1.62l-2.44,2.06A6.227,6.227,0,0,0,237.384,911.386Zm15.42,0a7.34,7.34,0,1,0-7.34-7.34A7.358,7.358,0,0,0,252.8,911.386Zm0-3.08a4.262,4.262,0,1,1,4.12-4.26A4.213,4.213,0,0,1,252.8,908.306Zm11.14,2.84H273v-3.04h-5.88V896.947h-3.18v14.2Zm12.64,0h4.839a7.1,7.1,0,1,0,0-14.2h-4.839v14.2Zm3.18-2.92v-8.36h1.659a4.183,4.183,0,0,1,0,8.36h-1.659Zm18.719,2.92h3.18v-14.2h-3.18v14.2Zm20.62,0v-14.2h-3.2v8.759l-6.9-8.759h-2.74v14.2h3.18v-8.78l6.92,8.78h2.74Zm12.12,0h3.019v-14.2H330.3l-2.16,2.979h3.08v11.22Zm7.5,0h3.719l3.98-5.66c1.12-1.6,1.68-2.4,1.68-3.82a5,5,0,0,0-10-.02,4.407,4.407,0,0,0,4.1,4.52Zm4.379-7.54a2,2,0,0,1,0-4A2,2,0,0,1,343.1,903.606Zm8.66,7.54h3.72l3.98-5.66c1.12-1.6,1.68-2.4,1.68-3.82a5,5,0,0,0-10-.02,4.408,4.408,0,0,0,4.1,4.52Zm4.38-7.54a2,2,0,0,1,0-4A2,2,0,0,1,356.142,903.606Zm17.86,4.56h-5.54c0.38-.72,1.84-1.5,2.52-2,1.66-1.22,2.92-2.48,2.92-5.02a4.308,4.308,0,0,0-4.6-4.439,4.743,4.743,0,0,0-5.04,4.759h3.02a1.8,1.8,0,0,1,1.92-1.78,1.563,1.563,0,0,1,1.68,1.68c0,1.02-1.02,1.92-2.14,2.72-2.08,1.48-4.54,2.82-4.54,6.04v1.02H374v-2.98Z"/>
  <path id="Shop_Now" data-name="Shop Now" class="cls-1" d="M89.661,950.093a4.267,4.267,0,0,0,3.795,1.92c2.085,0,3.555-1.215,3.555-3.075,0.015-1.59-.93-2.535-2.5-3.12l-1.08-.4c-1.095-.4-1.62-0.75-1.62-1.53a1.465,1.465,0,0,1,1.68-1.23,2.58,2.58,0,0,1,2.025.99l1.215-1.185A4.1,4.1,0,0,0,93.5,941c-1.98,0-3.465,1.14-3.465,3,0,1.455.825,2.385,2.52,3l1.17,0.42c1.02,0.375,1.515.87,1.515,1.62a1.5,1.5,0,0,1-1.725,1.32A2.9,2.9,0,0,1,91.041,949Zm11.955,1.74h1.755v-4.575h5.265v4.575h1.754v-10.65h-1.754v4.41h-5.265v-4.41h-1.755v10.65Zm24.434-5.325a5.5,5.5,0,1,0-5.5,5.5A5.48,5.48,0,0,0,126.05,946.508Zm-9.239,0a3.728,3.728,0,1,1,3.735,3.81A3.733,3.733,0,0,1,116.811,946.508Zm17.249-5.325h-3.389v10.65h1.754v-3.69h1.635A3.486,3.486,0,1,0,134.06,941.183Zm-0.015,5.31h-1.62v-3.66h1.62A1.836,1.836,0,1,1,134.045,946.493Zm23.19,5.34v-10.65h-1.77v7.635l-5.985-7.635h-1.53v10.65h1.755v-7.665l6,7.665h1.53Zm15.645-5.325a5.5,5.5,0,1,0-5.5,5.5A5.48,5.48,0,0,0,172.88,946.508Zm-9.24,0a3.728,3.728,0,1,1,3.735,3.81A3.733,3.733,0,0,1,163.64,946.508Zm22.125,5.325h1.62l2.76-10.65h-1.86l-1.95,7.74L183.29,941l-3.045,7.92-1.95-7.74H176.45l2.745,10.65h1.62l2.475-6.51Zm-96.584,3.5v-1.349H192.815v1.349H89.181Z"/>
  <path id="Rectangle_116_copy_2" data-name="Rectangle 116 copy 2" class="cls-1" d="M652.009,53.058l-1.094,1.085-15.976-15.83L618.1,55l-1.105-1.094,16.843-16.688L617.547,21.082,618.641,20l16.287,16.138,15.758-15.614,1.105,1.1L636.033,37.231Z"/>
  <path id="Rectangle_116_copy" data-name="Rectangle 116 copy" class="cls-1" d="M650.915,598.913l-0.08-.081L618.1,632l-1.105-1.12,32.739-33.169-32.183-32.606L618.641,564l33.368,33.8Z"/>
  <path id="Rectangle_116_copy_3" data-name="Rectangle 116 copy 3" class="cls-1" d="M21.085,597.086l0.079,0.081L53.9,564l1.1,1.119L22.27,598.287l32.183,32.607L53.359,632,19.991,598.2Z"/>
</svg>
