<svg id="Group_5_copy" data-name="Group 5 copy" xmlns="http://www.w3.org/2000/svg" width="672" height="1097" viewBox="0 0 672 1097">
  <metadata><?xpacket begin="﻿" id="W5M0MpCehiHzreSzNTczkc9d"?>
<x:xmpmeta xmlns:x="adobe:ns:meta/" x:xmptk="Adobe XMP Core 5.6-c138 79.159824, 2016/09/14-01:09:01        ">
   <rdf:RDF xmlns:rdf="http://www.w3.org/1999/02/22-rdf-syntax-ns#">
      <rdf:Description rdf:about=""/>
   </rdf:RDF>
</x:xmpmeta>
                                                                                                    
                                                                                                    
                                                                                                    
                                                                                                    
                                                                                                    
                                                                                                    
                                                                                                    
                                                                                                    
                                                                                                    
                                                                                                    
                                                                                                    
                                                                                                    
                                                                                                    
                                                                                                    
                                                                                                    
                                                                                                    
                                                                                                    
                                                                                                    
                                                                                                    
                                                                                                    
                           
<?xpacket end="w"?></metadata>
<defs>
    <style>
      .cls-1 {
        fill-rule: evenodd;
      }
    </style>
  </defs>
  <path id="Rectangle_116_copy_2" data-name="Rectangle 116 copy 2" class="cls-1" d="M652.009,53.058l-1.094,1.085-15.976-15.83L618.1,55l-1.105-1.094,16.843-16.688L617.547,21.082,618.641,20l16.287,16.138,15.758-15.614,1.105,1.1L636.033,37.231Z"/>
  <path id="Rectangle_116_copy" data-name="Rectangle 116 copy" class="cls-1" d="M650.915,599.4l-0.08-.079L618.1,632l-1.105-1.1,32.739-32.681L617.547,566.09,618.641,565l33.368,33.309Z"/>
  <path id="Banana_Republic_was_founded_in_San_Francisco_as_a_safari_and_tr" data-name="Banana Republic was founded in San Francisco as a safari and tr" class="cls-1" d="M38.944,834.323h5.081c2.881,0,4.761-1.781,4.761-4.141a3.384,3.384,0,0,0-2.461-3.4,3.219,3.219,0,0,0,1.52-2.9c0-2-1.6-3.76-4.241-3.76H38.944v14.2Zm1.86-8.1V821.8h2.8a2.233,2.233,0,0,1,2.421,2.22,2.186,2.186,0,0,1-2.421,2.2H40.8Zm0,6.421v-4.821h3.321c1.88,0,2.841,1.04,2.841,2.421,0,1.4-.96,2.4-2.861,2.4H40.8Zm10.18-3.321a5.006,5.006,0,0,0,4.9,5.2,4.388,4.388,0,0,0,3.521-1.741v1.541h1.72v-10h-1.72v1.541a4.388,4.388,0,0,0-3.521-1.741A5.005,5.005,0,0,0,50.984,829.321Zm8.562,0a3.417,3.417,0,1,1-3.4-3.62A3.415,3.415,0,0,1,59.546,829.321Zm5.318,5h1.72v-4.962c0-2.34,1.28-3.66,2.9-3.66,1.4,0,2.361,1.04,2.361,2.72v5.9h1.7v-6.162c0-2.48-1.54-4.041-3.781-4.041a3.536,3.536,0,0,0-3.181,1.741V824.32h-1.72v10Zm11.5-5a5.006,5.006,0,0,0,4.9,5.2,4.387,4.387,0,0,0,3.521-1.741v1.541h1.72v-10h-1.72v1.541a4.387,4.387,0,0,0-3.521-1.741A5.005,5.005,0,0,0,76.365,829.321Zm8.562,0a3.417,3.417,0,1,1-3.4-3.62A3.415,3.415,0,0,1,84.927,829.321Zm5.318,5h1.72v-4.962c0-2.34,1.28-3.66,2.9-3.66,1.4,0,2.361,1.04,2.361,2.72v5.9h1.7v-6.162c0-2.48-1.54-4.041-3.781-4.041a3.536,3.536,0,0,0-3.181,1.741V824.32h-1.72v10Zm11.5-5a5.005,5.005,0,0,0,4.9,5.2,4.388,4.388,0,0,0,3.521-1.741v1.541h1.72v-10h-1.72v1.541a4.388,4.388,0,0,0-3.521-1.741A5.005,5.005,0,0,0,101.745,829.321Zm8.562,0a3.417,3.417,0,1,1-3.4-3.62A3.415,3.415,0,0,1,110.307,829.321Zm10.958,5h1.86v-6.462h1.381l5.461,6.462h2.341l-5.462-6.482a3.705,3.705,0,0,0,3.5-3.8c0-2.34-1.62-3.92-4.241-3.92h-4.841v14.2Zm1.86-8.122V821.84h2.761c1.62,0,2.6.76,2.6,2.2,0,1.421-.981,2.161-2.6,2.161h-2.761Zm10,3.12a5.273,5.273,0,0,0,9.682,2.821l-1.36-.94a3.542,3.542,0,0,1-6.582-1.54h8.2a4.907,4.907,0,0,0,.02-0.521c-0.02-3.2-2.14-5.021-4.761-5.021A5.068,5.068,0,0,0,133.125,829.321Zm5.141-3.68a2.992,2.992,0,0,1,3.061,2.62h-6.342A3.27,3.27,0,0,1,138.266,825.641Zm7.759,12.862h1.721v-5.721a4.387,4.387,0,0,0,3.521,1.741,5.211,5.211,0,0,0,0-10.4,4.387,4.387,0,0,0-3.521,1.741V824.32h-1.721V838.5Zm8.382-9.182a3.407,3.407,0,1,1-3.4-3.62A3.415,3.415,0,0,1,154.407,829.321Zm4.6,1.141c0,2.48,1.48,4.061,3.68,4.061a3.442,3.442,0,0,0,3.081-1.741v1.541h1.721v-10h-1.721v4.961c0,2.3-1.22,3.661-2.78,3.661-1.381,0-2.261-1.06-2.261-2.74V824.32h-1.72v6.142Zm13.94,2.32a4.388,4.388,0,0,0,3.521,1.741,5.211,5.211,0,0,0,0-10.4,4.388,4.388,0,0,0-3.521,1.741v-6.542h-1.72v15h1.72v-1.541Zm6.662-3.461a3.408,3.408,0,1,1-3.4-3.62A3.415,3.415,0,0,1,179.608,829.321Zm4.718,5h1.72v-15h-1.72v15Zm7.56-13.9a1.208,1.208,0,0,0-1.2-1.221,1.242,1.242,0,0,0-1.24,1.221,1.229,1.229,0,0,0,1.24,1.22A1.2,1.2,0,0,0,191.886,820.42Zm-2.08,13.9h1.72v-10h-1.72v10Zm14.562-2.481-1.5-.84a3.391,3.391,0,0,1-3.121,1.92,3.6,3.6,0,0,1,0-7.2,3.391,3.391,0,0,1,3.121,1.92l1.5-.84a5.181,5.181,0,0,0-4.621-2.681,5.2,5.2,0,1,0,0,10.4A5.181,5.181,0,0,0,204.368,831.842Zm16.22,2.481h1.52l3.4-10h-1.82l-2.421,7.3-2.5-7.3h-1.321l-2.5,7.3-2.421-7.3h-1.8l3.4,10h1.52l2.48-7.2Zm6.458-5a5.005,5.005,0,0,0,4.9,5.2,4.387,4.387,0,0,0,3.521-1.741v1.541h1.72v-10h-1.72v1.541a4.387,4.387,0,0,0-3.521-1.741A5.005,5.005,0,0,0,227.046,829.321Zm8.562,0a3.417,3.417,0,1,1-3.4-3.62A3.415,3.415,0,0,1,235.608,829.321Zm11.8,2.221c0-1.5-.94-2.461-2.641-3.021l-1.08-.36c-1.18-.38-1.54-0.76-1.54-1.4,0-.74.74-1.16,1.68-1.16a2.705,2.705,0,0,1,2.121,1.04l1.12-1.08a3.878,3.878,0,0,0-3.2-1.441c-1.98,0-3.381,1.1-3.381,2.721,0,1.4.86,2.38,2.481,2.9l0.98,0.32c1.3,0.42,1.78.9,1.78,1.6a1.522,1.522,0,0,1-1.76,1.36,2.686,2.686,0,0,1-2.561-1.58l-1.4.76a3.974,3.974,0,0,0,3.921,2.321C245.948,834.523,247.408,833.5,247.408,831.542Zm8.919,2.781h1.72V825.9h2.9V824.32h-2.9v-1.84a1.44,1.44,0,0,1,1.661-1.7,4.027,4.027,0,0,1,1.24.2v-1.521a4.547,4.547,0,0,0-1.561-.26,2.857,2.857,0,0,0-3.06,3.1v2.02h-2.121V825.9h2.121v8.422Zm16.4-5a5.231,5.231,0,1,0-5.221,5.2A5.133,5.133,0,0,0,272.729,829.321Zm-8.7,0a3.473,3.473,0,1,1,3.481,3.6A3.437,3.437,0,0,1,264.027,829.321Zm11.52,1.141c0,2.48,1.48,4.061,3.681,4.061a3.442,3.442,0,0,0,3.08-1.741v1.541h1.721v-10h-1.721v4.961c0,2.3-1.22,3.661-2.78,3.661-1.381,0-2.261-1.06-2.261-2.74V824.32h-1.72v6.142Zm12.22,3.861h1.721v-4.962c0-2.34,1.28-3.66,2.9-3.66,1.4,0,2.361,1.04,2.361,2.72v5.9h1.7v-6.162c0-2.48-1.54-4.041-3.781-4.041a3.535,3.535,0,0,0-3.18,1.741V824.32h-1.721v10Zm11.5-5a5.006,5.006,0,0,0,4.9,5.2,4.387,4.387,0,0,0,3.521-1.741v1.541h1.72v-15h-1.72v6.542a4.387,4.387,0,0,0-3.521-1.741A5.006,5.006,0,0,0,299.267,829.321Zm8.562,0a3.417,3.417,0,1,1-3.4-3.62A3.415,3.415,0,0,1,307.829,829.321Zm4.538,0a5.273,5.273,0,0,0,9.682,2.821l-1.36-.94a3.541,3.541,0,0,1-6.581-1.54h8.2a4.907,4.907,0,0,0,.02-0.521c-0.02-3.2-2.14-5.021-4.761-5.021A5.069,5.069,0,0,0,312.367,829.321Zm5.141-3.68a2.992,2.992,0,0,1,3.061,2.62h-6.341A3.269,3.269,0,0,1,317.508,825.641Zm6.979,3.68a5.006,5.006,0,0,0,4.9,5.2,4.387,4.387,0,0,0,3.521-1.741v1.541h1.721v-15h-1.721v6.542a4.387,4.387,0,0,0-3.521-1.741A5.006,5.006,0,0,0,324.487,829.321Zm8.562,0a3.417,3.417,0,1,1-3.4-3.62A3.415,3.415,0,0,1,333.049,829.321Zm12.779-8.9a1.208,1.208,0,0,0-1.2-1.221,1.243,1.243,0,0,0-1.241,1.221,1.23,1.23,0,0,0,1.241,1.22A1.2,1.2,0,0,0,345.828,820.42Zm-2.08,13.9h1.72v-10h-1.72v10Zm5.48,0h1.72v-4.962c0-2.34,1.28-3.66,2.9-3.66,1.4,0,2.36,1.04,2.36,2.72v5.9h1.7v-6.162c0-2.48-1.541-4.041-3.781-4.041a3.536,3.536,0,0,0-3.181,1.741V824.32h-1.72v10ZM365.987,832a5.488,5.488,0,0,0,4.982,2.561c2.64,0,4.521-1.521,4.521-3.941,0-2.1-1.2-3.3-3.3-4.1l-1.721-.66c-1.44-.54-2.14-1.081-2.14-2.281,0-1.18,1.16-1.96,2.56-1.96a3.515,3.515,0,0,1,2.821,1.4l1.36-1.2a5.18,5.18,0,0,0-4.14-1.941c-2.541,0-4.442,1.461-4.442,3.781,0,1.941,1,3.1,3.221,3.921l1.881,0.72c1.32,0.5,2.04,1.261,2.04,2.4,0,1.32-1.16,2.12-2.62,2.12a3.968,3.968,0,0,1-3.521-1.94Zm11.7-2.681a5.006,5.006,0,0,0,4.9,5.2,4.386,4.386,0,0,0,3.52-1.741v1.541h1.721v-10h-1.721v1.541a4.386,4.386,0,0,0-3.52-1.741A5.006,5.006,0,0,0,377.687,829.321Zm8.562,0a3.417,3.417,0,1,1-3.4-3.62A3.415,3.415,0,0,1,386.249,829.321Zm5.319,5h1.72v-4.962c0-2.34,1.28-3.66,2.9-3.66,1.4,0,2.36,1.04,2.36,2.72v5.9h1.7v-6.162c0-2.48-1.541-4.041-3.781-4.041a3.536,3.536,0,0,0-3.181,1.741V824.32h-1.72v10Zm17.92,0h1.86v-6.382h5.061v-1.76h-5.061v-4.3h6.4v-1.76h-8.262v14.2Zm10.24,0h1.72v-4.962c0-2.34,1.381-3.44,2.641-3.44a2.514,2.514,0,0,1,.94.16V824.3a3.564,3.564,0,0,0-.78-0.08,2.977,2.977,0,0,0-2.8,2.041V824.32h-1.72v10Zm6.7-5a5.005,5.005,0,0,0,4.9,5.2,4.388,4.388,0,0,0,3.521-1.741v1.541h1.72v-10h-1.72v1.541a4.388,4.388,0,0,0-3.521-1.741A5.005,5.005,0,0,0,426.428,829.321Zm8.562,0a3.417,3.417,0,1,1-3.4-3.62A3.415,3.415,0,0,1,434.99,829.321Zm5.318,5h1.721v-4.962c0-2.34,1.28-3.66,2.9-3.66,1.4,0,2.361,1.04,2.361,2.72v5.9h1.7v-6.162c0-2.48-1.54-4.041-3.781-4.041a3.535,3.535,0,0,0-3.18,1.741V824.32h-1.721v10Zm21.362-2.481-1.5-.84a3.39,3.39,0,0,1-3.121,1.92,3.6,3.6,0,0,1,0-7.2,3.39,3.39,0,0,1,3.121,1.92l1.5-.84a5.18,5.18,0,0,0-4.621-2.681,5.2,5.2,0,1,0,0,10.4A5.18,5.18,0,0,0,461.67,831.842Zm4.8-11.422a1.208,1.208,0,0,0-1.2-1.221,1.243,1.243,0,0,0-1.241,1.221,1.229,1.229,0,0,0,1.241,1.22A1.2,1.2,0,0,0,466.469,820.42Zm-2.081,13.9h1.721v-10h-1.721v10Zm11.962-2.781c0-1.5-.94-2.461-2.641-3.021l-1.08-.36c-1.18-.38-1.54-0.76-1.54-1.4,0-.74.74-1.16,1.68-1.16a2.7,2.7,0,0,1,2.12,1.04l1.121-1.08a3.878,3.878,0,0,0-3.2-1.441c-1.981,0-3.381,1.1-3.381,2.721,0,1.4.86,2.38,2.481,2.9l0.98,0.32c1.3,0.42,1.78.9,1.78,1.6a1.522,1.522,0,0,1-1.76,1.36,2.685,2.685,0,0,1-2.561-1.58l-1.4.76a3.974,3.974,0,0,0,3.921,2.321C474.889,834.523,476.35,833.5,476.35,831.542Zm12.04,0.3-1.5-.84a3.39,3.39,0,0,1-3.121,1.92,3.6,3.6,0,0,1,0-7.2,3.39,3.39,0,0,1,3.121,1.92l1.5-.84a5.18,5.18,0,0,0-4.621-2.681,5.2,5.2,0,1,0,0,10.4A5.18,5.18,0,0,0,488.39,831.842Zm12.381-2.521a5.232,5.232,0,1,0-5.222,5.2A5.134,5.134,0,0,0,500.771,829.321Zm-8.7,0a3.473,3.473,0,1,1,3.48,3.6A3.437,3.437,0,0,1,492.069,829.321Zm-454.165,30a5.006,5.006,0,0,0,4.9,5.2,4.388,4.388,0,0,0,3.521-1.741v1.541h1.72v-10h-1.72v1.541a4.388,4.388,0,0,0-3.521-1.741A5.005,5.005,0,0,0,37.9,859.321Zm8.562,0a3.417,3.417,0,1,1-3.4-3.62A3.415,3.415,0,0,1,46.466,859.321Zm11.8,2.221c0-1.5-.94-2.461-2.641-3.021l-1.08-.36c-1.18-.38-1.54-0.76-1.54-1.4,0-.74.74-1.16,1.68-1.16a2.7,2.7,0,0,1,2.121,1.04l1.12-1.08a3.877,3.877,0,0,0-3.2-1.441c-1.98,0-3.381,1.1-3.381,2.721,0,1.4.86,2.38,2.481,2.9l0.98,0.32c1.3,0.42,1.78.9,1.78,1.6a1.523,1.523,0,0,1-1.76,1.36,2.684,2.684,0,0,1-2.561-1.58l-1.4.76a3.974,3.974,0,0,0,3.921,2.321C56.806,864.523,58.266,863.5,58.266,861.542Zm7.558-2.221a5.006,5.006,0,0,0,4.9,5.2,4.387,4.387,0,0,0,3.521-1.741v1.541h1.721v-10H74.246v1.541a4.387,4.387,0,0,0-3.521-1.741A5.005,5.005,0,0,0,65.824,859.321Zm8.562,0a3.417,3.417,0,1,1-3.4-3.62A3.415,3.415,0,0,1,74.386,859.321Zm17.18,2.221c0-1.5-.94-2.461-2.641-3.021l-1.08-.36c-1.18-.38-1.54-0.76-1.54-1.4,0-.74.74-1.16,1.68-1.16a2.7,2.7,0,0,1,2.121,1.04l1.12-1.08a3.878,3.878,0,0,0-3.2-1.441c-1.98,0-3.381,1.1-3.381,2.721,0,1.4.86,2.38,2.481,2.9l0.98,0.32c1.3,0.42,1.78.9,1.78,1.6a1.523,1.523,0,0,1-1.76,1.36,2.684,2.684,0,0,1-2.561-1.58l-1.4.76a3.974,3.974,0,0,0,3.921,2.321C90.105,864.523,91.566,863.5,91.566,861.542Zm2.178-2.221a5.006,5.006,0,0,0,4.9,5.2,4.386,4.386,0,0,0,3.521-1.741v1.541h1.721v-10h-1.721v1.541a4.386,4.386,0,0,0-3.521-1.741A5.005,5.005,0,0,0,93.744,859.321Zm8.562,0a3.417,3.417,0,1,1-3.4-3.62A3.415,3.415,0,0,1,102.306,859.321Zm6.159,5h1.72V855.9h2.9V854.32h-2.9v-1.84a1.44,1.44,0,0,1,1.66-1.7,4.029,4.029,0,0,1,1.241.2v-1.521a4.551,4.551,0,0,0-1.561-.26,2.857,2.857,0,0,0-3.06,3.1v2.02h-2.121V855.9h2.121v8.422Zm5.96-5a5.005,5.005,0,0,0,4.9,5.2,4.39,4.39,0,0,0,3.521-1.741v1.541h1.72v-10h-1.72v1.541a4.39,4.39,0,0,0-3.521-1.741A5.005,5.005,0,0,0,114.425,859.321Zm8.562,0a3.417,3.417,0,1,1-3.4-3.62A3.415,3.415,0,0,1,122.987,859.321Zm5.318,5h1.72v-4.962c0-2.34,1.381-3.44,2.641-3.44a2.514,2.514,0,0,1,.94.16V854.3a3.564,3.564,0,0,0-.78-0.08,2.977,2.977,0,0,0-2.8,2.041V854.32h-1.72v10Zm9.9-13.9a1.208,1.208,0,0,0-1.2-1.221,1.242,1.242,0,0,0-1.24,1.221,1.229,1.229,0,0,0,1.24,1.22A1.2,1.2,0,0,0,138.205,850.42Zm-2.08,13.9h1.72v-10h-1.72v10Zm10.08-5a5.005,5.005,0,0,0,4.9,5.2,4.388,4.388,0,0,0,3.521-1.741v1.541h1.72v-10h-1.72v1.541a4.388,4.388,0,0,0-3.521-1.741A5.005,5.005,0,0,0,146.205,859.321Zm8.562,0a3.417,3.417,0,1,1-3.4-3.62A3.415,3.415,0,0,1,154.767,859.321Zm5.318,5h1.72v-4.962c0-2.34,1.281-3.66,2.9-3.66,1.4,0,2.361,1.04,2.361,2.72v5.9h1.7v-6.162c0-2.48-1.54-4.041-3.781-4.041a3.538,3.538,0,0,0-3.181,1.741V854.32h-1.72v10Zm11.5-5a5.005,5.005,0,0,0,4.9,5.2,4.388,4.388,0,0,0,3.521-1.741v1.541h1.72v-15h-1.72v6.542a4.388,4.388,0,0,0-3.521-1.741A5.005,5.005,0,0,0,171.585,859.321Zm8.562,0a3.417,3.417,0,1,1-3.4-3.62A3.415,3.415,0,0,1,180.147,859.321Zm15.779,4.861v-1.54a3.8,3.8,0,0,1-1.22.2,1.44,1.44,0,0,1-1.66-1.7V855.9h2.88V854.32h-2.88v-2.78h-1.721v2.78h-2.12V855.9h2.12v5.461a2.816,2.816,0,0,0,3.061,3.061A4.756,4.756,0,0,0,195.926,864.182Zm2.7,0.141h1.721v-4.962c0-2.34,1.38-3.44,2.64-3.44a2.523,2.523,0,0,1,.941.16V854.3a3.579,3.579,0,0,0-.781-0.08,2.976,2.976,0,0,0-2.8,2.041V854.32h-1.721v10Zm6.7-5a5.006,5.006,0,0,0,4.9,5.2,4.387,4.387,0,0,0,3.521-1.741v1.541h1.721v-10h-1.721v1.541a4.387,4.387,0,0,0-3.521-1.741A5.006,5.006,0,0,0,205.325,859.321Zm8.562,0a3.417,3.417,0,1,1-3.4-3.62A3.415,3.415,0,0,1,213.887,859.321Zm8.439,5h1.441l4.621-10h-1.921l-3.421,7.562-3.42-7.562h-1.921Zm7.3-5a5.273,5.273,0,0,0,9.682,2.821l-1.36-.94a3.542,3.542,0,0,1-6.582-1.54h8.2a4.907,4.907,0,0,0,.02-0.521c-0.02-3.2-2.14-5.021-4.761-5.021A5.068,5.068,0,0,0,229.626,859.321Zm5.141-3.68a2.993,2.993,0,0,1,3.061,2.62h-6.342A3.27,3.27,0,0,1,234.767,855.641Zm7.759,8.682h1.721v-15h-1.721v15Zm19.942-2.481-1.5-.84a3.391,3.391,0,0,1-3.121,1.92,3.6,3.6,0,0,1,0-7.2,3.391,3.391,0,0,1,3.121,1.92l1.5-.84a5.18,5.18,0,0,0-4.621-2.681,5.2,5.2,0,1,0,0,10.4A5.18,5.18,0,0,0,262.468,861.842Zm2.718,2.481h1.72v-15h-1.72v15Zm15.142-5a5.231,5.231,0,1,0-5.221,5.2A5.133,5.133,0,0,0,280.328,859.321Zm-8.7,0a3.473,3.473,0,1,1,3.481,3.6A3.438,3.438,0,0,1,271.626,859.321Zm16.9,4.861v-1.54a3.808,3.808,0,0,1-1.221.2,1.44,1.44,0,0,1-1.66-1.7V855.9h2.881V854.32h-2.881v-2.78h-1.72v2.78h-2.121V855.9h2.121v5.461a2.816,2.816,0,0,0,3.06,3.061A4.763,4.763,0,0,0,288.528,864.182Zm2.7,0.141h1.721v-4.962c0-2.34,1.28-3.66,2.9-3.66,1.4,0,2.36,1.04,2.36,2.72v5.9h1.7v-6.162c0-2.48-1.541-4.041-3.781-4.041a3.536,3.536,0,0,0-3.181,1.741v-6.542h-1.721v15Zm14.361-13.9a1.208,1.208,0,0,0-1.2-1.221,1.243,1.243,0,0,0-1.241,1.221,1.23,1.23,0,0,0,1.241,1.22A1.2,1.2,0,0,0,305.587,850.42Zm-2.08,13.9h1.72v-10h-1.72v10Zm5.48,0h1.72v-4.962c0-2.34,1.28-3.66,2.9-3.66,1.4,0,2.36,1.04,2.36,2.72v5.9h1.7v-6.162c0-2.48-1.541-4.041-3.781-4.041a3.536,3.536,0,0,0-3.181,1.741V854.32h-1.72v10Zm21.6-.581V854.32h-1.721v1.541a4.256,4.256,0,0,0-3.48-1.741,5.1,5.1,0,0,0,0,10.183,4.271,4.271,0,0,0,3.48-1.761v1.14a3.2,3.2,0,0,1-3.34,3.461,4.279,4.279,0,0,1-3.5-1.68l-1.2,1.2a5.937,5.937,0,0,0,4.721,2.04C328.388,868.7,330.589,867.083,330.589,863.742Zm-8.342-4.541a3.383,3.383,0,1,1,3.381,3.5A3.332,3.332,0,0,1,322.247,859.2Zm26.542,2.641-1.5-.84a3.392,3.392,0,0,1-3.121,1.92,3.6,3.6,0,0,1,0-7.2,3.392,3.392,0,0,1,3.121,1.92l1.5-.84a5.181,5.181,0,0,0-4.621-2.681,5.2,5.2,0,1,0,0,10.4A5.181,5.181,0,0,0,348.789,861.842Zm12.38-2.521a5.231,5.231,0,1,0-5.221,5.2A5.133,5.133,0,0,0,361.169,859.321Zm-8.7,0a3.473,3.473,0,1,1,3.481,3.6A3.437,3.437,0,0,1,352.467,859.321Zm11.66,5h1.72v-4.962c0-2.26,1.141-3.66,2.761-3.66,1.3,0,1.96,1.12,1.96,2.74v5.882h1.721v-4.962c0-2.26,1.12-3.66,2.74-3.66,1.3,0,1.981,1.12,1.981,2.74v5.882h1.72v-6.142c0-2.44-1.32-4.061-3.5-4.061a3.462,3.462,0,0,0-3.281,2.141,3.146,3.146,0,0,0-3.081-2.141,3.364,3.364,0,0,0-3.021,1.741V854.32h-1.72v10Zm18.2,4.18h1.721v-5.721a4.386,4.386,0,0,0,3.52,1.741,5.211,5.211,0,0,0,0-10.4,4.386,4.386,0,0,0-3.52,1.741V854.32h-1.721V868.5Zm8.382-9.182a3.407,3.407,0,1,1-3.4-3.62A3.415,3.415,0,0,1,390.709,859.321Zm3.958,0a5.006,5.006,0,0,0,4.9,5.2,4.387,4.387,0,0,0,3.521-1.741v1.541h1.721v-10h-1.721v1.541a4.387,4.387,0,0,0-3.521-1.741A5.006,5.006,0,0,0,394.667,859.321Zm8.562,0a3.417,3.417,0,1,1-3.4-3.62A3.415,3.415,0,0,1,403.229,859.321Zm5.319,5h1.72v-4.962c0-2.34,1.28-3.66,2.9-3.66,1.4,0,2.36,1.04,2.36,2.72v5.9h1.7v-6.162c0-2.48-1.541-4.041-3.781-4.041a3.536,3.536,0,0,0-3.181,1.741V854.32h-1.72v10Zm14.74,4.18,6.562-14.183h-1.92l-3.421,7.582-3.441-7.582h-1.9l4.382,9.482-2.181,4.7h1.92Zm9.941-4.621a1.71,1.71,0,0,0,.28-0.9,1.481,1.481,0,1,0-2.961,0,1.491,1.491,0,0,0,.82,1.341l-1.34,2.86h1.14Zm10.94-13.462a1.209,1.209,0,0,0-1.2-1.221,1.242,1.242,0,0,0-1.24,1.221,1.229,1.229,0,0,0,1.24,1.22A1.2,1.2,0,0,0,444.169,850.42Zm-2.081,13.9h1.721v-10h-1.721v10Zm5.48,0h1.721v-4.962c0-2.34,1.28-3.66,2.9-3.66,1.4,0,2.361,1.04,2.361,2.72v5.9h1.7v-6.162c0-2.48-1.54-4.041-3.781-4.041a3.535,3.535,0,0,0-3.18,1.741V854.32h-1.721v10Zm18.762-2.781c0-1.5-.941-2.461-2.641-3.021l-1.08-.36c-1.18-.38-1.541-0.76-1.541-1.4,0-.74.741-1.16,1.681-1.16a2.7,2.7,0,0,1,2.12,1.04l1.121-1.08a3.879,3.879,0,0,0-3.2-1.441c-1.981,0-3.381,1.1-3.381,2.721,0,1.4.86,2.38,2.481,2.9l0.98,0.32c1.3,0.42,1.78.9,1.78,1.6a1.522,1.522,0,0,1-1.76,1.36,2.685,2.685,0,0,1-2.561-1.58l-1.4.76a3.973,3.973,0,0,0,3.921,2.321C464.869,864.523,466.33,863.5,466.33,861.542Zm2.958,6.961h1.721v-5.721a4.386,4.386,0,0,0,3.52,1.741,5.211,5.211,0,0,0,0-10.4,4.386,4.386,0,0,0-3.52,1.741V854.32h-1.721V868.5Zm8.382-9.182a3.407,3.407,0,1,1-3.4-3.62A3.415,3.415,0,0,1,477.67,859.321Zm6.819-8.9a1.208,1.208,0,0,0-1.2-1.221,1.243,1.243,0,0,0-1.241,1.221,1.23,1.23,0,0,0,1.241,1.22A1.2,1.2,0,0,0,484.489,850.42Zm-2.081,13.9h1.721v-10h-1.721v10Zm5.481,0h1.72v-4.962c0-2.34,1.38-3.44,2.641-3.44a2.514,2.514,0,0,1,.94.16V854.3a3.564,3.564,0,0,0-.78-0.08,2.976,2.976,0,0,0-2.8,2.041V854.32h-1.72v10Zm6.68-5a5.273,5.273,0,0,0,9.682,2.821l-1.36-.94a3.542,3.542,0,0,1-6.582-1.54h8.2a4.907,4.907,0,0,0,.02-0.521c-0.02-3.2-2.14-5.021-4.761-5.021A5.068,5.068,0,0,0,494.569,859.321Zm5.141-3.68a2.993,2.993,0,0,1,3.061,2.62h-6.342A3.27,3.27,0,0,1,499.71,855.641Zm6.979,3.68a5.005,5.005,0,0,0,4.9,5.2,4.388,4.388,0,0,0,3.521-1.741v1.541h1.72v-15h-1.72v6.542a4.388,4.388,0,0,0-3.521-1.741A5.005,5.005,0,0,0,506.689,859.321Zm8.562,0a3.417,3.417,0,1,1-3.4-3.62A3.415,3.415,0,0,1,515.251,859.321ZM40.4,892.782a4.387,4.387,0,0,0,3.521,1.741,5.211,5.211,0,0,0,0-10.4,4.387,4.387,0,0,0-3.521,1.741v-6.542h-1.72v15H40.4v-1.541Zm6.661-3.461a3.407,3.407,0,1,1-3.4-3.62A3.415,3.415,0,0,1,47.066,889.321Zm7.179,9.182,6.562-14.183H58.886L55.465,891.9l-3.441-7.582h-1.9l4.381,9.482-2.181,4.7h1.92Zm13.72-4.18h1.72v-4.962c0-2.26,1.14-3.66,2.761-3.66,1.3,0,1.96,1.12,1.96,2.74v5.882h1.72v-4.962c0-2.26,1.12-3.66,2.741-3.66,1.3,0,1.98,1.12,1.98,2.74v5.882h1.72v-6.142c0-2.44-1.32-4.061-3.5-4.061a3.462,3.462,0,0,0-3.281,2.141,3.145,3.145,0,0,0-3.081-2.141,3.363,3.363,0,0,0-3.021,1.741V884.32h-1.72v10Zm20.281-13.9a1.208,1.208,0,0,0-1.2-1.221,1.243,1.243,0,0,0-1.24,1.221,1.229,1.229,0,0,0,1.24,1.22A1.2,1.2,0,0,0,88.246,880.42Zm-2.081,13.9h1.72v-10h-1.72v10Zm5.48,0h1.72v-15h-1.72v15Zm7.561-13.9a1.208,1.208,0,0,0-1.2-1.221,1.243,1.243,0,0,0-1.24,1.221,1.229,1.229,0,0,0,1.24,1.22A1.2,1.2,0,0,0,99.206,880.42Zm-2.081,13.9h1.72v-10h-1.72v10Zm10.9-.141v-1.54a3.8,3.8,0,0,1-1.22.2,1.44,1.44,0,0,1-1.66-1.7V885.9h2.88V884.32h-2.88v-2.78h-1.721v2.78h-2.12V885.9h2.12v5.461a2.816,2.816,0,0,0,3.061,3.061A4.756,4.756,0,0,0,108.026,894.182Zm1.779-4.861a5.006,5.006,0,0,0,4.9,5.2,4.387,4.387,0,0,0,3.521-1.741v1.541h1.721v-10h-1.721v1.541a4.387,4.387,0,0,0-3.521-1.741A5.006,5.006,0,0,0,109.805,889.321Zm8.562,0a3.417,3.417,0,1,1-3.4-3.62A3.415,3.415,0,0,1,118.367,889.321Zm5.319,5h1.72v-4.962c0-2.34,1.38-3.44,2.641-3.44a2.514,2.514,0,0,1,.94.16V884.3a3.564,3.564,0,0,0-.78-0.08,2.976,2.976,0,0,0-2.8,2.041V884.32h-1.72v10Zm10.48,4.18,6.562-14.183h-1.921l-3.42,7.582-3.441-7.582h-1.9l4.381,9.482-2.18,4.7h1.92Zm8.24-8.921h5.1v-1.721h-5.1v1.721Zm15.022,1.96c0-1.5-.941-2.461-2.641-3.021l-1.08-.36c-1.18-.38-1.541-0.76-1.541-1.4,0-.74.741-1.16,1.681-1.16a2.7,2.7,0,0,1,2.12,1.04l1.121-1.08a3.879,3.879,0,0,0-3.2-1.441c-1.981,0-3.381,1.1-3.381,2.721,0,1.4.86,2.38,2.481,2.9l0.98,0.32c1.3,0.42,1.78.9,1.78,1.6a1.522,1.522,0,0,1-1.76,1.36,2.685,2.685,0,0,1-2.561-1.58l-1.4.76a3.973,3.973,0,0,0,3.921,2.321C155.967,894.523,157.428,893.5,157.428,891.542Zm2.818-1.08c0,2.48,1.481,4.061,3.681,4.061a3.443,3.443,0,0,0,3.081-1.741v1.541h1.72v-10h-1.72v4.961c0,2.3-1.22,3.661-2.781,3.661-1.38,0-2.26-1.06-2.26-2.74V884.32h-1.721v6.142Zm12.22,3.861h1.721v-4.962c0-2.34,1.38-3.44,2.64-3.44a2.516,2.516,0,0,1,.941.16V884.3a3.564,3.564,0,0,0-.78-0.08,2.976,2.976,0,0,0-2.8,2.041V884.32h-1.721v10Zm7.821,4.18h1.72v-5.721a4.387,4.387,0,0,0,3.521,1.741,5.211,5.211,0,0,0,0-10.4,4.387,4.387,0,0,0-3.521,1.741V884.32h-1.72V898.5Zm8.382-9.182a3.408,3.408,0,1,1-3.4-3.62A3.415,3.415,0,0,1,188.669,889.321Zm4.738,5h1.72v-15h-1.72v15Zm5.34-3.861c0,2.48,1.48,4.061,3.681,4.061a3.442,3.442,0,0,0,3.08-1.741v1.541h1.721v-10h-1.721v4.961c0,2.3-1.22,3.661-2.78,3.661-1.381,0-2.261-1.06-2.261-2.74V884.32h-1.72v6.142Zm18.7,1.08c0-1.5-.941-2.461-2.641-3.021l-1.08-.36c-1.181-.38-1.541-0.76-1.541-1.4,0-.74.74-1.16,1.681-1.16a2.7,2.7,0,0,1,2.12,1.04l1.12-1.08a3.876,3.876,0,0,0-3.2-1.441c-1.981,0-3.381,1.1-3.381,2.721,0,1.4.86,2.38,2.481,2.9l0.98,0.32c1.3,0.42,1.78.9,1.78,1.6a1.522,1.522,0,0,1-1.76,1.36,2.684,2.684,0,0,1-2.561-1.58l-1.4.76a3.973,3.973,0,0,0,3.921,2.321C215.988,894.523,217.449,893.5,217.449,891.542Zm17.42,0.3-1.5-.84a3.391,3.391,0,0,1-3.121,1.92,3.6,3.6,0,0,1,0-7.2,3.391,3.391,0,0,1,3.121,1.92l1.5-.84a5.18,5.18,0,0,0-4.621-2.681,5.2,5.2,0,1,0,0,10.4A5.18,5.18,0,0,0,234.869,891.842Zm2.718,2.481h1.72v-15h-1.72v15Zm15.142-5a5.231,5.231,0,1,0-5.221,5.2A5.133,5.133,0,0,0,252.729,889.321Zm-8.7,0a3.473,3.473,0,1,1,3.481,3.6A3.438,3.438,0,0,1,244.027,889.321Zm16.9,4.861v-1.54a3.808,3.808,0,0,1-1.221.2,1.44,1.44,0,0,1-1.66-1.7V885.9h2.881V884.32h-2.881v-2.78h-1.72v2.78h-2.121V885.9h2.121v5.461a2.816,2.816,0,0,0,3.06,3.061A4.763,4.763,0,0,0,260.929,894.182Zm2.7,0.141h1.721v-4.962c0-2.34,1.28-3.66,2.9-3.66,1.4,0,2.36,1.04,2.36,2.72v5.9h1.7v-6.162c0-2.48-1.541-4.041-3.781-4.041a3.536,3.536,0,0,0-3.181,1.741v-6.542h-1.721v15Zm11.5-5a5.274,5.274,0,0,0,9.683,2.821l-1.361-.94a3.541,3.541,0,0,1-6.581-1.54h8.2a4.907,4.907,0,0,0,.02-0.521c-0.02-3.2-2.141-5.021-4.761-5.021A5.069,5.069,0,0,0,275.127,889.321Zm5.142-3.68a2.992,2.992,0,0,1,3.06,2.62h-6.341A3.269,3.269,0,0,1,280.269,885.641Zm14.24,5.9c0-1.5-.94-2.461-2.64-3.021l-1.081-.36c-1.18-.38-1.54-0.76-1.54-1.4,0-.74.74-1.16,1.68-1.16a2.7,2.7,0,0,1,2.121,1.04l1.12-1.08a3.877,3.877,0,0,0-3.2-1.441c-1.98,0-3.38,1.1-3.38,2.721,0,1.4.86,2.38,2.48,2.9l0.98,0.32c1.3,0.42,1.781.9,1.781,1.6a1.523,1.523,0,0,1-1.761,1.36,2.684,2.684,0,0,1-2.56-1.58l-1.4.76a3.973,3.973,0,0,0,3.92,2.321C293.049,894.523,294.509,893.5,294.509,891.542Zm5.339,1.44a1.48,1.48,0,1,0-1.48,1.5A1.507,1.507,0,0,0,299.848,892.982Zm11.021,1.341h1.82V881.88h4.421v-1.76H306.448v1.76h4.421v12.443Zm16.622-5a5.232,5.232,0,1,0-5.222,5.2A5.134,5.134,0,0,0,327.491,889.321Zm-8.7,0a3.473,3.473,0,1,1,3.481,3.6A3.438,3.438,0,0,1,318.788,889.321Zm10.88,0a5.006,5.006,0,0,0,4.9,5.2,4.387,4.387,0,0,0,3.521-1.741v1.541h1.721v-15H338.09v6.542a4.387,4.387,0,0,0-3.521-1.741A5.006,5.006,0,0,0,329.668,889.321Zm8.562,0a3.417,3.417,0,1,1-3.4-3.62A3.415,3.415,0,0,1,338.23,889.321Zm4.538,0a5.006,5.006,0,0,0,4.9,5.2,4.387,4.387,0,0,0,3.521-1.741v1.541h1.721v-10H351.19v1.541a4.387,4.387,0,0,0-3.521-1.741A5.006,5.006,0,0,0,342.768,889.321Zm8.562,0a3.417,3.417,0,1,1-3.4-3.62A3.415,3.415,0,0,1,351.33,889.321Zm7.979,9.182,6.562-14.183H363.95l-3.421,7.582-3.44-7.582h-1.9l4.381,9.482-2.18,4.7h1.92Zm9.94-4.621a1.71,1.71,0,0,0,.28-0.9,1.48,1.48,0,1,0-2.96,0,1.491,1.491,0,0,0,.82,1.341l-1.34,2.86h1.14Zm13.941,0.3v-1.54a3.8,3.8,0,0,1-1.22.2,1.44,1.44,0,0,1-1.661-1.7V885.9h2.881V884.32h-2.881v-2.78h-1.72v2.78h-2.12V885.9h2.12v5.461a2.816,2.816,0,0,0,3.061,3.061A4.756,4.756,0,0,0,383.19,894.182Zm2.7,0.141h1.72v-4.962c0-2.34,1.281-3.66,2.9-3.66,1.4,0,2.361,1.04,2.361,2.72v5.9h1.7v-6.162c0-2.48-1.54-4.041-3.781-4.041a3.538,3.538,0,0,0-3.181,1.741v-6.542h-1.72v15Zm11.5-5a5.273,5.273,0,0,0,9.682,2.821l-1.36-.94a3.542,3.542,0,0,1-6.582-1.54h8.2a4.907,4.907,0,0,0,.02-0.521c-0.02-3.2-2.14-5.021-4.761-5.021A5.068,5.068,0,0,0,397.389,889.321Zm5.141-3.68a2.993,2.993,0,0,1,3.061,2.62h-6.342A3.27,3.27,0,0,1,402.53,885.641Zm22.221,6.2-1.5-.84a3.39,3.39,0,0,1-3.121,1.92,3.6,3.6,0,0,1,0-7.2,3.39,3.39,0,0,1,3.121,1.92l1.5-.84a5.18,5.18,0,0,0-4.621-2.681,5.2,5.2,0,1,0,0,10.4A5.18,5.18,0,0,0,424.751,891.842Zm12.38-2.521a5.231,5.231,0,1,0-5.221,5.2A5.133,5.133,0,0,0,437.131,889.321Zm-8.7,0a3.473,3.473,0,1,1,3.481,3.6A3.438,3.438,0,0,1,428.429,889.321Zm11.66,5h1.721v-15h-1.721v15Zm5.48,0h1.721v-15h-1.721v15Zm4.7-5a5.273,5.273,0,0,0,9.682,2.821l-1.36-.94a3.542,3.542,0,0,1-6.582-1.54h8.2a4.907,4.907,0,0,0,.02-0.521c-0.02-3.2-2.14-5.021-4.761-5.021A5.069,5.069,0,0,0,450.269,889.321Zm5.141-3.68a2.992,2.992,0,0,1,3.061,2.62h-6.342A3.271,3.271,0,0,1,455.41,885.641Zm16.842,6.2-1.5-.84a3.39,3.39,0,0,1-3.121,1.92,3.6,3.6,0,0,1,0-7.2,3.39,3.39,0,0,1,3.121,1.92l1.5-.84a5.183,5.183,0,0,0-4.622-2.681,5.2,5.2,0,1,0,0,10.4A5.183,5.183,0,0,0,472.252,891.842Zm8.139,2.34v-1.54a3.8,3.8,0,0,1-1.221.2,1.44,1.44,0,0,1-1.66-1.7V885.9h2.881V884.32H477.51v-2.78h-1.72v2.78h-2.121V885.9h2.121v5.461a2.816,2.816,0,0,0,3.06,3.061A4.758,4.758,0,0,0,480.391,894.182Zm4.779-13.762a1.208,1.208,0,0,0-1.2-1.221,1.243,1.243,0,0,0-1.241,1.221,1.23,1.23,0,0,0,1.241,1.22A1.2,1.2,0,0,0,485.17,880.42Zm-2.08,13.9h1.72v-10h-1.72v10Zm15.142-5a5.232,5.232,0,1,0-5.221,5.2A5.133,5.133,0,0,0,498.232,889.321Zm-8.7,0a3.473,3.473,0,1,1,3.481,3.6A3.437,3.437,0,0,1,489.53,889.321Zm11.66,5h1.72v-4.962c0-2.34,1.28-3.66,2.9-3.66,1.4,0,2.36,1.04,2.36,2.72v5.9h1.7v-6.162c0-2.48-1.541-4.041-3.781-4.041a3.536,3.536,0,0,0-3.181,1.741V884.32h-1.72v10Zm-462.506,30H40.4v-4.962c0-2.34,1.38-3.44,2.641-3.44a2.515,2.515,0,0,1,.94.16V914.3a3.565,3.565,0,0,0-.78-0.08,2.977,2.977,0,0,0-2.8,2.041V914.32h-1.72v10Zm6.68-5a5.273,5.273,0,0,0,9.682,2.821l-1.36-.94a3.542,3.542,0,0,1-6.582-1.54h8.2a4.907,4.907,0,0,0,.02-0.521c-0.02-3.2-2.141-5.021-4.761-5.021A5.069,5.069,0,0,0,45.364,919.321Zm5.141-3.68a2.992,2.992,0,0,1,3.061,2.62H47.225A3.27,3.27,0,0,1,50.506,915.641Zm8.479,8.682h1.72V915.9h2.9V914.32h-2.9v-1.84a1.44,1.44,0,0,1,1.66-1.7,4.029,4.029,0,0,1,1.24.2v-1.521a4.547,4.547,0,0,0-1.56-.26,2.857,2.857,0,0,0-3.061,3.1v2.02h-2.12V915.9h2.121v8.422Zm6.5,0h1.72v-15h-1.72v15Zm4.678-5a5.273,5.273,0,0,0,9.682,2.821l-1.36-.94a3.542,3.542,0,0,1-6.582-1.54h8.2a4.907,4.907,0,0,0,.02-0.521c-0.02-3.2-2.141-5.021-4.761-5.021A5.069,5.069,0,0,0,70.165,919.321Zm5.141-3.68a2.992,2.992,0,0,1,3.061,2.62H72.025A3.27,3.27,0,0,1,75.306,915.641Zm16.841,6.2-1.5-.84a3.391,3.391,0,0,1-3.121,1.92,3.6,3.6,0,0,1,0-7.2,3.391,3.391,0,0,1,3.121,1.92l1.5-.84a5.181,5.181,0,0,0-4.621-2.681,5.2,5.2,0,1,0,0,10.4A5.181,5.181,0,0,0,92.147,921.842Zm8.139,2.341v-1.541a3.8,3.8,0,0,1-1.22.2,1.44,1.44,0,0,1-1.66-1.7V915.9h2.88V914.32h-2.88v-2.78h-1.72v2.78h-2.12V915.9h2.12v5.461a2.816,2.816,0,0,0,3.061,3.061A4.783,4.783,0,0,0,100.286,924.183Zm9.181-2.641c0-1.5-.94-2.461-2.641-3.021l-1.08-.36c-1.18-.38-1.54-0.76-1.54-1.4,0-.74.74-1.16,1.68-1.16a2.7,2.7,0,0,1,2.12,1.04l1.121-1.08a3.878,3.878,0,0,0-3.2-1.441c-1.981,0-3.381,1.1-3.381,2.721,0,1.4.86,2.38,2.481,2.9l0.98,0.32c1.3,0.42,1.78.9,1.78,1.6a1.522,1.522,0,0,1-1.76,1.36,2.685,2.685,0,0,1-2.561-1.58l-1.4.76a3.974,3.974,0,0,0,3.921,2.321C108.006,924.523,109.467,923.5,109.467,921.542Zm8.2-1.08c0,2.48,1.48,4.061,3.681,4.061a3.443,3.443,0,0,0,3.081-1.741v1.541h1.72v-10h-1.72v4.961c0,2.3-1.221,3.661-2.781,3.661-1.38,0-2.26-1.06-2.26-2.74V914.32h-1.721v6.142Zm17.642,3.721v-1.541a3.808,3.808,0,0,1-1.221.2,1.44,1.44,0,0,1-1.66-1.7V915.9h2.881V914.32h-2.881v-2.78h-1.72v2.78h-2.121V915.9h2.121v5.461a2.816,2.816,0,0,0,3.06,3.061A4.792,4.792,0,0,0,135.307,924.183Zm4.779-13.763a1.208,1.208,0,0,0-1.2-1.221,1.243,1.243,0,0,0-1.241,1.221,1.23,1.23,0,0,0,1.241,1.22A1.2,1.2,0,0,0,140.086,910.42Zm-2.08,13.9h1.72v-10h-1.72v10Zm5.48,0h1.72v-15h-1.72v15Zm7.56-13.9a1.208,1.208,0,0,0-1.2-1.221,1.243,1.243,0,0,0-1.241,1.221,1.23,1.23,0,0,0,1.241,1.22A1.2,1.2,0,0,0,151.046,910.42Zm-2.081,13.9h1.721v-10h-1.721v10Zm10.9-.14v-1.541a3.8,3.8,0,0,1-1.221.2,1.44,1.44,0,0,1-1.66-1.7V915.9h2.881V914.32h-2.881v-2.78h-1.72v2.78h-2.121V915.9h2.121v5.461a2.816,2.816,0,0,0,3.06,3.061A4.787,4.787,0,0,0,159.867,924.183Zm1.779-4.862a5.005,5.005,0,0,0,4.9,5.2,4.388,4.388,0,0,0,3.521-1.741v1.541h1.72v-10h-1.72v1.541a4.388,4.388,0,0,0-3.521-1.741A5.005,5.005,0,0,0,161.646,919.321Zm8.562,0a3.417,3.417,0,1,1-3.4-3.62A3.415,3.415,0,0,1,170.208,919.321Zm5.318,5h1.72v-4.962c0-2.34,1.381-3.44,2.641-3.44a2.514,2.514,0,0,1,.94.16V914.3a3.564,3.564,0,0,0-.78-0.08,2.977,2.977,0,0,0-2.8,2.041V914.32h-1.72v10Zm9.9-13.9a1.209,1.209,0,0,0-1.2-1.221,1.242,1.242,0,0,0-1.24,1.221,1.229,1.229,0,0,0,1.24,1.22A1.2,1.2,0,0,0,185.427,910.42Zm-2.081,13.9h1.721v-10h-1.721v10Zm4.7-5a5.005,5.005,0,0,0,4.9,5.2,4.388,4.388,0,0,0,3.521-1.741v1.541h1.72v-10h-1.72v1.541a4.388,4.388,0,0,0-3.521-1.741A5.005,5.005,0,0,0,188.046,919.321Zm8.562,0a3.417,3.417,0,1,1-3.4-3.62A3.415,3.415,0,0,1,196.608,919.321Zm5.318,5h1.721v-4.962c0-2.34,1.28-3.66,2.9-3.66,1.4,0,2.361,1.04,2.361,2.72v5.9h1.7v-6.162c0-2.48-1.54-4.041-3.781-4.041a3.535,3.535,0,0,0-3.18,1.741V914.32h-1.721v10Zm20.341,0h1.441l4.621-10h-1.921l-3.421,7.562-3.42-7.562h-1.921Zm10.38-13.9a1.208,1.208,0,0,0-1.2-1.221,1.243,1.243,0,0,0-1.241,1.221,1.23,1.23,0,0,0,1.241,1.22A1.2,1.2,0,0,0,232.647,910.42Zm-2.08,13.9h1.72v-10h-1.72v10Zm7.2-1.541a4.387,4.387,0,0,0,3.521,1.741,5.211,5.211,0,0,0,0-10.4,4.387,4.387,0,0,0-3.521,1.741v-6.542h-1.72v15h1.72v-1.541Zm6.662-3.461a3.408,3.408,0,1,1-3.4-3.62A3.415,3.415,0,0,1,244.429,919.321Zm3.937,0a5.274,5.274,0,0,0,9.683,2.821l-1.361-.94a3.541,3.541,0,0,1-6.581-1.54h8.2a4.907,4.907,0,0,0,.02-0.521c-0.02-3.2-2.141-5.021-4.761-5.021A5.069,5.069,0,0,0,248.366,919.321Zm5.142-3.68a2.992,2.992,0,0,1,3.06,2.62h-6.341A3.269,3.269,0,0,1,253.508,915.641Zm14.24,5.9c0-1.5-.94-2.461-2.64-3.021l-1.08-.36c-1.181-.38-1.541-0.76-1.541-1.4,0-.74.74-1.16,1.681-1.16a2.7,2.7,0,0,1,2.12,1.04l1.12-1.08a3.876,3.876,0,0,0-3.2-1.441c-1.981,0-3.381,1.1-3.381,2.721,0,1.4.86,2.38,2.48,2.9l0.981,0.32c1.3,0.42,1.78.9,1.78,1.6a1.522,1.522,0,0,1-1.76,1.36,2.684,2.684,0,0,1-2.561-1.58l-1.4.76a3.973,3.973,0,0,0,3.921,2.321C266.288,924.523,267.748,923.5,267.748,921.542Zm8.919,2.781h1.721V915.9h2.9V914.32h-2.9v-1.84a1.44,1.44,0,0,1,1.66-1.7,4.027,4.027,0,0,1,1.24.2v-1.521a4.545,4.545,0,0,0-1.56-.26,2.857,2.857,0,0,0-3.061,3.1v2.02h-2.12V915.9h2.12v8.422Zm16.4-5a5.232,5.232,0,1,0-5.222,5.2A5.134,5.134,0,0,0,293.07,919.321Zm-8.7,0a3.473,3.473,0,1,1,3.48,3.6A3.437,3.437,0,0,1,284.368,919.321Zm11.659,5h1.721v-4.962c0-2.34,1.38-3.44,2.64-3.44a2.516,2.516,0,0,1,.941.16V914.3a3.564,3.564,0,0,0-.78-0.08,2.976,2.976,0,0,0-2.8,2.041V914.32h-1.721v10Zm11.92-5a5.006,5.006,0,0,0,4.9,5.2,4.386,4.386,0,0,0,3.52-1.741v1.541h1.721v-10h-1.721v1.541a4.386,4.386,0,0,0-3.52-1.741A5.006,5.006,0,0,0,307.947,919.321Zm8.562,0a3.417,3.417,0,1,1-3.4-3.62A3.415,3.415,0,0,1,316.509,919.321Zm5.319,5h1.72v-15h-1.72v15Zm5.48,0h1.72v-15h-1.72v15Zm13.06,4.18,6.562-14.183h-1.921l-3.42,7.582-3.441-7.582h-1.9l4.381,9.482-2.18,4.7h1.92Zm18.223-9.182a5.232,5.232,0,1,0-5.222,5.2A5.134,5.134,0,0,0,358.591,919.321Zm-8.7,0a3.473,3.473,0,1,1,3.481,3.6A3.438,3.438,0,0,1,349.888,919.321Zm11.52,1.141c0,2.48,1.481,4.061,3.681,4.061a3.443,3.443,0,0,0,3.081-1.741v1.541h1.72v-10h-1.72v4.961c0,2.3-1.22,3.661-2.781,3.661-1.38,0-2.26-1.06-2.26-2.74V914.32h-1.721v6.142Zm12.221,3.861h1.72v-4.962c0-2.34,1.38-3.44,2.641-3.44a2.514,2.514,0,0,1,.94.16V914.3a3.564,3.564,0,0,0-.78-0.08,2.976,2.976,0,0,0-2.8,2.041V914.32h-1.72v10Zm11.919-5a5.006,5.006,0,0,0,4.9,5.2,4.386,4.386,0,0,0,3.52-1.741v1.541h1.721v-10H393.97v1.541a4.386,4.386,0,0,0-3.52-1.741A5.006,5.006,0,0,0,385.548,919.321Zm8.562,0a3.417,3.417,0,1,1-3.4-3.62A3.415,3.415,0,0,1,394.11,919.321Zm4.539,0a5.005,5.005,0,0,0,4.9,5.2,4.39,4.39,0,0,0,3.521-1.741v1.541h1.72v-15h-1.72v6.542a4.39,4.39,0,0,0-3.521-1.741A5.005,5.005,0,0,0,398.649,919.321Zm8.562,0a3.417,3.417,0,1,1-3.4-3.62A3.415,3.415,0,0,1,407.211,919.321Zm8.439,5h1.44l4.621-10h-1.92l-3.421,7.562-3.421-7.562h-1.921Zm7.3-5a5.273,5.273,0,0,0,9.682,2.821l-1.36-.94a3.542,3.542,0,0,1-6.582-1.54h8.2a4.907,4.907,0,0,0,.02-0.521c-0.02-3.2-2.14-5.021-4.761-5.021A5.069,5.069,0,0,0,422.949,919.321Zm5.141-3.68a2.992,2.992,0,0,1,3.061,2.62h-6.342A3.271,3.271,0,0,1,428.09,915.641Zm7.759,8.682h1.721v-4.962c0-2.34,1.28-3.66,2.9-3.66,1.4,0,2.361,1.04,2.361,2.72v5.9h1.7v-6.162c0-2.48-1.54-4.041-3.78-4.041a3.536,3.536,0,0,0-3.181,1.741V914.32h-1.721v10Zm17.582-.14v-1.541a3.8,3.8,0,0,1-1.22.2,1.44,1.44,0,0,1-1.661-1.7V915.9h2.881V914.32H450.55v-2.78h-1.72v2.78h-2.121V915.9h2.121v5.461a2.816,2.816,0,0,0,3.06,3.061A4.787,4.787,0,0,0,453.431,924.183Zm2.559-3.721c0,2.48,1.48,4.061,3.681,4.061a3.442,3.442,0,0,0,3.08-1.741v1.541h1.721v-10h-1.721v4.961c0,2.3-1.22,3.661-2.78,3.661-1.381,0-2.261-1.06-2.261-2.74V914.32h-1.72v6.142Zm12.22,3.861h1.72v-4.962c0-2.34,1.381-3.44,2.641-3.44a2.514,2.514,0,0,1,.94.16V914.3a3.564,3.564,0,0,0-.78-0.08,2.977,2.977,0,0,0-2.8,2.041V914.32h-1.72v10Zm6.68-5a5.273,5.273,0,0,0,9.682,2.821l-1.36-.94a3.542,3.542,0,0,1-6.582-1.54h8.2a4.907,4.907,0,0,0,.02-0.521c-0.02-3.2-2.14-5.021-4.761-5.021A5.069,5.069,0,0,0,474.89,919.321Zm5.141-3.68a2.992,2.992,0,0,1,3.061,2.62h-6.341A3.269,3.269,0,0,1,480.031,915.641Zm14.241,5.9c0-1.5-.94-2.461-2.641-3.021l-1.08-.36c-1.18-.38-1.54-0.76-1.54-1.4,0-.74.74-1.16,1.68-1.16a2.705,2.705,0,0,1,2.121,1.04l1.12-1.08a3.878,3.878,0,0,0-3.2-1.441c-1.98,0-3.381,1.1-3.381,2.721,0,1.4.861,2.38,2.481,2.9l0.98,0.32c1.3,0.42,1.781.9,1.781,1.6a1.523,1.523,0,0,1-1.761,1.36,2.684,2.684,0,0,1-2.56-1.58l-1.4.76a3.974,3.974,0,0,0,3.921,2.321C492.812,924.523,494.272,923.5,494.272,921.542Zm5.339,1.44a1.481,1.481,0,1,0-1.48,1.5A1.507,1.507,0,0,0,499.611,922.982Z"/>
  <path id="AT_EASE:_A_MILITARY_STORY_" data-name="AT EASE: A MILITARY STORY  " class="cls-1" d="M37.067,740.072h6.568l2.493-5.935H57.759l2.492,5.935h6.568l-12.027-28.09h-5.7Zm11.355-11.394,3.521-8.467,3.521,8.467H48.422ZM74.4,740.072h6.33V718h7.24v-6.014H67.241V718H74.4v22.076Zm29.744,0h17.8v-6.014H110.437v-5.024h9.139V723.02h-9.139V718H121.95v-6.014h-17.8v28.09Zm21.981,0h6.567l2.493-5.935h11.632l2.492,5.935h6.568l-12.028-28.09h-5.7Zm11.354-11.394L141,720.211l3.521,8.467h-7.043Zm31.364,11.869c5.934,0,10.009-3.561,10.049-8.665,0.039-4.233-2.611-6.923-6.686-8.387l-1.979-.712c-2.967-1.068-4.352-1.741-4.352-3.244,0-1.464,1.7-2.137,3.4-2.137a6.247,6.247,0,0,1,4.866,2.335l4.115-4.352a11.722,11.722,0,0,0-9.06-3.878c-5.618,0-9.693,3.205-9.693,8.665,0,3.837,2.532,6.567,7.082,8.11l1.978,0.673c2.809,0.949,3.917,1.938,3.917,3.363,0,1.345-1.306,2.334-3.4,2.334a7.349,7.349,0,0,1-5.816-3.205l-4.827,4.075A12.318,12.318,0,0,0,168.845,740.547Zm16.8-.475h17.8v-6.014H191.933v-5.024h9.139V723.02h-9.139V718h11.513v-6.014h-17.8v28.09Zm28.113-11.75a4.234,4.234,0,1,0-4.233-4.234A4.238,4.238,0,0,0,213.755,728.322Zm0,12.066a4.233,4.233,0,1,0-4.233-4.233A4.238,4.238,0,0,0,213.755,740.388ZM37.067,779.739h6.568l2.493-5.934H57.759l2.492,5.934h6.568l-12.027-28.09h-5.7Zm11.355-11.394,3.521-8.467,3.521,8.467H48.422Zm48.147,5.42,8.19-11.355v17.329h6.33v-28.09h-5.737l-8.783,12.107-8.783-12.107H82.049v28.09H88.34V762.41Zm22.862,5.974h6.291v-28.09h-6.291v28.09Zm14.612,0h17.922v-6.014H140.334V751.649h-6.291v28.09Zm24.234,0h6.291v-28.09h-6.291v28.09Zm19.677,0h6.33V757.663h7.24v-6.014H170.793v6.014h7.161v22.076Zm13.946,0h6.568l2.492-5.934h11.632l2.493,5.934h6.567l-12.027-28.09h-5.7Zm11.355-11.394,3.521-8.467,3.522,8.467h-7.043Zm23.728,11.394h6.291V768.147H234.3l9.338,11.592H251.2l-9.93-12.383c3.56-1.266,5.5-3.6,5.5-7.24a8.293,8.293,0,0,0-8.7-8.467H226.983v28.09Zm6.291-16.933v-5.381h4.035c1.86,0,3.205.99,3.205,2.691,0,1.622-1.345,2.69-3.205,2.69h-4.035Zm27.639,16.933h6.33v-11.79l10.248-16.3h-7.32l-6.132,10.128-6.054-10.128h-7.319l10.247,16.261v11.829Zm40.787,0.475c5.934,0,10.01-3.561,10.049-8.665,0.04-4.233-2.611-6.923-6.686-8.387l-1.978-.712c-2.968-1.068-4.352-1.741-4.352-3.244,0-1.464,1.7-2.137,3.4-2.137A6.247,6.247,0,0,1,307,759.4l4.115-4.352a11.721,11.721,0,0,0-9.06-3.877c-5.618,0-9.693,3.2-9.693,8.664,0,3.837,2.532,6.567,7.082,8.11l1.978,0.673c2.809,0.949,3.917,1.938,3.917,3.363,0,1.345-1.306,2.334-3.4,2.334a7.349,7.349,0,0,1-5.816-3.2l-4.826,4.075A12.318,12.318,0,0,0,301.7,780.214Zm21.466-.475h6.33V757.663h7.24v-6.014H316.005v6.014h7.161v22.076Zm31.673,0.475a14.52,14.52,0,1,0-14.52-14.52A14.555,14.555,0,0,0,354.839,780.214Zm0-6.093a8.432,8.432,0,1,1,8.15-8.427A8.334,8.334,0,0,1,354.839,774.121Zm21.276,5.618h6.291V768.147h1.028l9.337,11.592h7.557l-9.93-12.383c3.56-1.266,5.5-3.6,5.5-7.24a8.293,8.293,0,0,0-8.7-8.467H376.115v28.09Zm6.291-16.933v-5.381h4.035c1.86,0,3.205.99,3.205,2.691,0,1.622-1.345,2.69-3.205,2.69h-4.035Zm27.639,16.933h6.33v-11.79l10.247-16.3H419.3l-6.132,10.128-6.054-10.128H399.8l10.247,16.261v11.829Z"/>
</svg>
