<svg id="Copy_copy_2" data-name="Copy copy 2" xmlns="http://www.w3.org/2000/svg" width="720" height="249"><defs><style>.cls-2{fill-rule:evenodd}</style></defs><path id="Rectangle_106_copy_12" data-name="Rectangle 106 copy 12" fill="#fff" d="M0 0h720v249H0z"/><path id="trench_dress_Woven_b._2018_March_to_your_own_beat._This_dress" data-name="trench dress Woven, b. 2018 March to your own beat. This dress" class="cls-2" d="M33.426 50.871h4.8V34.132h5.49v-4.56H28v4.56h5.43v16.739zm14.7 0H52.9v-8.79h.78l7.08 8.79h5.73l-7.53-9.39c2.7-.96 4.17-2.73 4.17-5.49a6.288 6.288 0 0 0-6.6-6.42h-8.4v21.3zm4.77-12.84v-4.08h3.06c1.41 0 2.43.75 2.43 2.04a2.156 2.156 0 0 1-2.43 2.04H52.9zm16.59 12.84h13.5v-4.56h-8.73V42.5h6.93v-4.56h-6.93v-3.81h8.73v-4.56h-13.5v21.3zm37.889 0v-21.3h-4.8v13.14L92.226 29.572h-4.11v21.3h4.77V37.7l10.379 13.17h4.11zm15.81.36a11.01 11.01 0 0 0 9.96-5.82l-4.2-2.28a6.39 6.39 0 1 1 0-5.82l4.2-2.28a11.1 11.1 0 1 0-9.96 16.2zm14.251-.36h4.769v-8.43h8.58v8.43h4.77v-21.3h-4.77v8.34h-8.58v-8.34h-4.769v21.3zm32.219 0h7.26a10.652 10.652 0 1 0 0-21.3h-7.26v21.3zm4.77-4.38V33.952h2.49a6.011 6.011 0 0 1 6.03 6.27 6.011 6.011 0 0 1-6.03 6.27h-2.49zm18.18 4.38h4.77v-8.79h.78l7.079 8.79h5.73l-7.529-9.39c2.7-.96 4.169-2.73 4.169-5.49a6.288 6.288 0 0 0-6.6-6.42h-8.4v21.3zm4.77-12.84v-4.08h3.06c1.41 0 2.43.75 2.43 2.04a2.156 2.156 0 0 1-2.43 2.04h-3.06zm16.59 12.84h13.5v-4.56h-8.73V42.5h6.93v-4.56h-6.93v-3.81h8.73v-4.56h-13.5v21.3zm24.989.36c4.5 0 7.59-2.7 7.62-6.57.03-3.21-1.98-5.25-5.07-6.36l-1.5-.54c-2.25-.81-3.3-1.32-3.3-2.46 0-1.11 1.29-1.62 2.58-1.62a4.738 4.738 0 0 1 3.69 1.77l3.12-3.3a8.888 8.888 0 0 0-6.87-2.94c-4.26 0-7.349 2.43-7.349 6.57 0 2.91 1.919 4.98 5.369 6.15l1.5.51c2.13.72 2.97 1.47 2.97 2.55 0 1.02-.99 1.77-2.58 1.77a5.573 5.573 0 0 1-4.41-2.43l-3.659 3.09a9.338 9.338 0 0 0 7.889 3.81zm18.78 0c4.5 0 7.59-2.7 7.62-6.57.03-3.21-1.98-5.25-5.07-6.36l-1.5-.54c-2.25-.81-3.3-1.32-3.3-2.46 0-1.11 1.29-1.62 2.58-1.62a4.738 4.738 0 0 1 3.69 1.77l3.12-3.3a8.888 8.888 0 0 0-6.87-2.94c-4.26 0-7.35 2.43-7.35 6.57 0 2.91 1.92 4.98 5.37 6.15l1.5.51c2.13.72 2.97 1.47 2.97 2.55 0 1.02-.99 1.77-2.58 1.77a5.573 5.573 0 0 1-4.41-2.43l-3.66 3.09a9.34 9.34 0 0 0 7.89 3.81zM38.986 78.871h1.494l3.493-12.784h-1.746l-2.683 9.975-3.691-10.191-3.673 10.191-2.68-9.975h-1.749l3.493 12.784h1.494l3.133-8.679zM54.9 74.37a4.708 4.708 0 1 0-4.7 4.681 4.62 4.62 0 0 0 4.7-4.681zm-7.832 0a3.126 3.126 0 1 1 3.132 3.241 3.094 3.094 0 0 1-3.135-3.241zm13.555 4.5h1.3l4.159-9h-1.735l-3.079 6.806-3.079-6.806H56.46zm7.019-4.5a4.746 4.746 0 0 0 8.715 2.539l-1.224-.846a3.188 3.188 0 0 1-5.924-1.386h7.382a4.368 4.368 0 0 0 .018-.468 4.2 4.2 0 0 0-4.285-4.519 4.562 4.562 0 0 0-4.685 4.68zm4.627-3.313a2.693 2.693 0 0 1 2.755 2.359h-5.711a2.943 2.943 0 0 1 2.953-2.359zm7.431 7.814h1.548v-4.465c0-2.107 1.152-3.3 2.611-3.3a2.161 2.161 0 0 1 2.125 2.449v5.312h1.53v-5.542a3.318 3.318 0 0 0-3.4-3.637 3.184 3.184 0 0 0-2.863 1.566v-1.386H79.7v9zm13.428-.4a1.54 1.54 0 0 0 .252-.81 1.333 1.333 0 1 0-2.665 0 1.34 1.34 0 0 0 .738 1.206l-1.206 2.575h1.026zm10.422-.99a3.947 3.947 0 0 0 3.169 1.566 4.69 4.69 0 0 0 0-9.363 3.947 3.947 0 0 0-3.169 1.566v-5.883H102v13.5h1.549v-1.382zm6-3.115a3.067 3.067 0 1 1-3.061-3.259 3.074 3.074 0 0 1 3.056 3.263zm6.658 3.295a1.333 1.333 0 1 0-1.333 1.35 1.357 1.357 0 0 0 1.325-1.346zm16.291-.288h-6.379c.306-1.476 1.8-2.215 3.277-3.295 2.089-1.513 2.953-2.593 2.953-4.465a3.63 3.63 0 0 0-3.943-3.745 3.972 3.972 0 0 0-4.213 4.033h1.584a2.469 2.469 0 0 1 2.647-2.521 2.162 2.162 0 0 1 2.341 2.215c0 1.495-.792 2.161-2.269 3.259-1.89 1.4-4.285 2.665-4.285 5.4v.612h8.282v-1.489zm11.917-3.133v-3.561a4.537 4.537 0 1 0-9.057 0v3.565a4.537 4.537 0 1 0 9.052 0zm-7.509 0v-3.561c0-2.071 1.243-3.295 2.971-3.295 1.747 0 2.989 1.224 2.989 3.295v3.565c0 2.071-1.242 3.3-2.989 3.3-1.733-.005-2.978-1.23-2.978-3.3zm12.06 4.627h1.548v-12.78h-2.754l-1.261 1.53h2.467v11.254zm13.574-3.835a3.571 3.571 0 0 0-2-3.349 2.992 2.992 0 0 0 1.3-2.521 3.318 3.318 0 0 0-3.583-3.3 3.364 3.364 0 0 0-3.6 3.3 2.981 2.981 0 0 0 1.332 2.521 3.573 3.573 0 0 0-2.035 3.349 4.3 4.3 0 0 0 8.581.004zM156.18 69.2a1.9 1.9 0 0 1 2.071-1.873A1.867 1.867 0 0 1 160.3 69.2a1.91 1.91 0 0 1-2.052 1.891 1.948 1.948 0 0 1-2.068-1.891zm-.666 5.834a2.538 2.538 0 0 1 2.737-2.557 2.553 2.553 0 1 1 0 5.1 2.544 2.544 0 0 1-2.737-2.541zM34.427 115.542l4.1-5.506v8.835H40v-11.364h-1.347l-4.226 5.666-4.227-5.666h-1.359v11.364h1.489v-8.835zm8.413-.673a4 4 0 0 0 3.922 4.162 3.51 3.51 0 0 0 2.817-1.392v1.232h1.377v-8H49.58v1.229a3.51 3.51 0 0 0-2.817-1.392 4 4 0 0 0-3.922 4.161zm6.851 0a2.734 2.734 0 1 1-2.721-2.9 2.733 2.733 0 0 1 2.722 2.9zm4.653 4h1.377V114.9c0-1.872 1.1-2.753 2.113-2.753a2.013 2.013 0 0 1 .752.128v-1.424a2.854 2.854 0 0 0-.624-.064 2.381 2.381 0 0 0-2.241 1.632v-1.552h-1.376v8zm13.635-1.985l-1.2-.672a2.714 2.714 0 0 1-2.5 1.537 2.883 2.883 0 0 1 0-5.763 2.714 2.714 0 0 1 2.5 1.537l1.2-.672a4.144 4.144 0 0 0-3.7-2.145 4.162 4.162 0 1 0 0 8.323 4.144 4.144 0 0 0 3.701-2.143zm2.573 1.985h1.376V114.9c0-1.872 1.024-2.929 2.321-2.929a1.921 1.921 0 0 1 1.889 2.177v4.722H77.5v-4.93a2.949 2.949 0 0 0-3.025-3.233 2.83 2.83 0 0 0-2.545 1.392v-5.234h-1.377v12zm18.993-.112v-1.232a3.044 3.044 0 0 1-.976.16 1.153 1.153 0 0 1-1.329-1.361v-4.194h2.3v-1.264h-2.3v-2.225h-1.375v2.225h-1.7v1.264h1.7v4.37a2.253 2.253 0 0 0 2.449 2.449 3.832 3.832 0 0 0 1.232-.19zm10.177-3.89a4.186 4.186 0 1 0-4.178 4.162 4.107 4.107 0 0 0 4.18-4.16zm-6.963 0a2.779 2.779 0 1 1 2.785 2.882 2.751 2.751 0 0 1-2.783-2.88zm16.192 7.347l5.25-11.348h-1.536l-2.737 6.066-2.754-6.066h-1.52l3.5 7.587-1.745 3.761h1.537zm14.979-7.347a4.186 4.186 0 1 0-4.178 4.162 4.107 4.107 0 0 0 4.18-4.16zm-6.963 0a2.779 2.779 0 1 1 2.785 2.882 2.751 2.751 0 0 1-2.783-2.88zm9.615.913c0 1.985 1.185 3.249 2.945 3.249a2.753 2.753 0 0 0 2.465-1.392v1.232h1.377v-8h-1.377v3.969c0 1.841-.976 2.93-2.225 2.93-1.1 0-1.808-.849-1.808-2.193v-4.706h-1.377v4.914zm10.176 3.089h1.377V114.9c0-1.872 1.1-2.753 2.113-2.753a2.011 2.011 0 0 1 .752.128v-1.424a2.851 2.851 0 0 0-.624-.064 2.38 2.38 0 0 0-2.241 1.632v-1.552h-1.375v8zm18.691-4a4.186 4.186 0 1 0-4.178 4.162 4.107 4.107 0 0 0 4.18-4.162zm-6.963 0a2.779 2.779 0 1 1 2.785 2.882 2.751 2.751 0 0 1-2.783-2.882zm16.483 4h1.216l2.721-8h-1.456l-1.937 5.842-2-5.842h-1.056l-2 5.842-1.937-5.842h-1.441l2.721 8h1.217l1.983-5.76zm6.221 0h1.376V114.9c0-1.872 1.025-2.929 2.321-2.929a1.921 1.921 0 0 1 1.889 2.177v4.722h1.36v-4.93a2.949 2.949 0 0 0-3.025-3.233 2.831 2.831 0 0 0-2.545 1.392v-1.232h-1.376v8zm16.3-1.232a3.509 3.509 0 0 0 2.817 1.392 4.169 4.169 0 0 0 0-8.323 3.509 3.509 0 0 0-2.807 1.394v-5.234h-1.377v12h1.377v-1.232zm5.33-2.77a2.726 2.726 0 1 1-2.721-2.9 2.733 2.733 0 0 1 2.727 2.902zm3.549 0a4.219 4.219 0 0 0 7.747 2.257l-1.089-.752a2.833 2.833 0 0 1-5.266-1.232h6.563a3.922 3.922 0 0 0 .016-.417 3.729 3.729 0 0 0-3.81-4.017 4.055 4.055 0 0 0-4.155 4.163zm4.113-2.945a2.4 2.4 0 0 1 2.449 2.1h-5.074a2.617 2.617 0 0 1 2.631-2.098zm5.983 2.945a4 4 0 0 0 3.921 4.162 3.509 3.509 0 0 0 2.817-1.392v1.232h1.377v-8h-1.377v1.231a3.509 3.509 0 0 0-2.817-1.392 4 4 0 0 0-3.915 4.161zm6.85 0a2.734 2.734 0 1 1-2.721-2.9 2.733 2.733 0 0 1 2.727 2.902zm8.992 3.89v-1.232a3.052 3.052 0 0 1-.977.16 1.153 1.153 0 0 1-1.328-1.361v-4.194h2.3v-1.264h-2.3v-2.225h-1.377v2.225h-1.7v1.264h1.7v4.37a2.252 2.252 0 0 0 2.449 2.449 3.84 3.84 0 0 0 1.239-.19zm4.463-.96a1.185 1.185 0 1 0-1.185 1.2 1.207 1.207 0 0 0 1.191-1.197zm9.616 1.072h1.456v-9.956h3.538v-1.408h-8.532v1.408h3.538v9.956zm7.247 0h1.376V114.9c0-1.872 1.025-2.929 2.321-2.929a1.921 1.921 0 0 1 1.889 2.177v4.722h1.36v-4.93a2.949 2.949 0 0 0-3.025-3.233 2.831 2.831 0 0 0-2.545 1.392v-5.234h-1.376v12zm11.888-11.124a.966.966 0 0 0-.96-.977 1 1 0 0 0-.993.977.984.984 0 0 0 .993.976.956.956 0 0 0 .966-.974zm-1.665 11.124h1.377v-8h-1.377v8zm9.97-2.225c0-1.2-.752-1.969-2.112-2.417l-.865-.288c-.944-.3-1.232-.608-1.232-1.12a1.132 1.132 0 0 1 1.344-.929 2.16 2.16 0 0 1 1.7.833l.9-.865a3.1 3.1 0 0 0-2.561-1.15c-1.584 0-2.705.88-2.705 2.177a2.417 2.417 0 0 0 1.985 2.321l.784.256c1.041.336 1.425.72 1.425 1.28a1.218 1.218 0 0 1-1.409 1.089 2.148 2.148 0 0 1-2.048-1.265l-1.121.608a3.178 3.178 0 0 0 3.137 1.857c1.616 0 2.784-.816 2.784-2.385zm6.846-1.777a4 4 0 0 0 3.921 4.162 3.509 3.509 0 0 0 2.817-1.392v1.232h1.377v-12h-1.377v5.231a3.509 3.509 0 0 0-2.817-1.392 4 4 0 0 0-3.915 4.161zm6.851 0a2.734 2.734 0 1 1-2.722-2.9 2.734 2.734 0 0 1 2.728 2.902zm4.653 4h1.376V114.9c0-1.872 1.105-2.753 2.113-2.753a2.02 2.02 0 0 1 .753.128v-1.424a2.866 2.866 0 0 0-.625-.064 2.382 2.382 0 0 0-2.241 1.632v-1.552h-1.376v8zm5.744-4a4.219 4.219 0 0 0 7.747 2.257l-1.089-.752a2.833 2.833 0 0 1-5.266-1.232h6.563a3.922 3.922 0 0 0 .016-.417 3.729 3.729 0 0 0-3.81-4.017 4.055 4.055 0 0 0-4.155 4.163zm4.113-2.945a2.4 2.4 0 0 1 2.449 2.1h-5.074a2.617 2.617 0 0 1 2.631-2.098zm11.793 4.722c0-1.2-.752-1.969-2.113-2.417l-.864-.288c-.945-.3-1.233-.608-1.233-1.12a1.133 1.133 0 0 1 1.345-.929 2.163 2.163 0 0 1 1.7.833l.9-.865a3.1 3.1 0 0 0-2.561-1.15c-1.585 0-2.705.88-2.705 2.177a2.416 2.416 0 0 0 1.985 2.321l.784.256c1.04.336 1.424.72 1.424 1.28a1.218 1.218 0 0 1-1.408 1.089 2.149 2.149 0 0 1-2.049-1.265l-1.12.608a3.177 3.177 0 0 0 3.137 1.857c1.616 0 2.784-.816 2.784-2.385zm7.936 0c0-1.2-.752-1.969-2.113-2.417l-.864-.288c-.945-.3-1.233-.608-1.233-1.12a1.133 1.133 0 0 1 1.345-.929 2.159 2.159 0 0 1 1.7.833l.9-.865a3.1 3.1 0 0 0-2.561-1.152c-1.585 0-2.7.88-2.7 2.177a2.416 2.416 0 0 0 1.984 2.321l.78.258c1.04.336 1.424.72 1.424 1.28a1.218 1.218 0 0 1-1.408 1.089 2.148 2.148 0 0 1-2.049-1.265l-1.12.608a3.177 3.177 0 0 0 3.137 1.857c1.616 0 2.784-.816 2.784-2.385zm9.134-8.9a.966.966 0 0 0-.96-.977 1 1 0 0 0-.993.977.984.984 0 0 0 .993.976.956.956 0 0 0 .964-.973zm-1.664 11.124h1.376v-8h-1.376v8zm9.969-2.225c0-1.2-.752-1.969-2.112-2.417l-.865-.288c-.944-.3-1.232-.608-1.232-1.12a1.132 1.132 0 0 1 1.344-.929 2.16 2.16 0 0 1 1.7.833l.9-.865a3.1 3.1 0 0 0-2.561-1.152c-1.584 0-2.705.88-2.705 2.177a2.417 2.417 0 0 0 1.985 2.321l.784.256c1.041.336 1.425.72 1.425 1.28a1.218 1.218 0 0 1-1.409 1.089 2.148 2.148 0 0 1-2.048-1.265l-1.121.608a3.178 3.178 0 0 0 3.137 1.857c1.616.003 2.784-.813 2.784-2.382zm6.846-1.777a4 4 0 0 0 3.921 4.162 3.512 3.512 0 0 0 2.818-1.392v1.232h1.376v-8h-1.376v1.232a3.512 3.512 0 0 0-2.818-1.392 4 4 0 0 0-3.915 4.161zm6.851 0a2.734 2.734 0 1 1-2.722-2.9 2.734 2.734 0 0 1 2.724 2.903zm4.653 4h1.376V114.9c0-1.872 1.025-2.929 2.321-2.929a1.921 1.921 0 0 1 1.889 2.177v4.722h1.363v-4.93a2.95 2.95 0 0 0-3.026-3.233 2.832 2.832 0 0 0-2.545 1.392v-1.232h-1.376v8zm14.3-4a4.219 4.219 0 0 0 7.747 2.257l-1.088-.752a2.833 2.833 0 0 1-5.266-1.232h6.563a3.922 3.922 0 0 0 .016-.417 3.729 3.729 0 0 0-3.81-4.017 4.056 4.056 0 0 0-4.153 4.164zm4.114-2.945a2.4 2.4 0 0 1 2.449 2.1h-5.074a2.616 2.616 0 0 1 2.634-2.097zm6.606 6.947h1.377v-12h-1.368v12zm4.16-4a4.219 4.219 0 0 0 7.747 2.257l-1.088-.752a2.833 2.833 0 0 1-5.266-1.232h6.576a3.922 3.922 0 0 0 .016-.417 3.728 3.728 0 0 0-3.809-4.017 4.056 4.056 0 0 0-4.167 4.162zm4.114-2.945a2.4 2.4 0 0 1 2.449 2.1h-5.074a2.616 2.616 0 0 1 2.634-2.099zm8.975 6.947h1.153l3.7-8h-1.536l-2.737 6.05-2.738-6.05h-1.536zm6.255-4a4.005 4.005 0 0 0 3.922 4.162 3.512 3.512 0 0 0 2.817-1.392v1.232h1.386v-8h-1.376v1.228a3.512 3.512 0 0 0-2.817-1.392 4.005 4.005 0 0 0-3.923 4.161zm6.851 0a2.734 2.734 0 1 1-2.721-2.9 2.733 2.733 0 0 1 2.73 2.899zm8.991 3.89v-1.232a3.043 3.043 0 0 1-.977.16 1.153 1.153 0 0 1-1.328-1.361v-4.194h2.305v-1.264h-2.305v-2.225h-1.377v2.225h-1.7v1.264h1.7v4.37a2.253 2.253 0 0 0 2.449 2.449 3.83 3.83 0 0 0 1.242-.193zm1.822-3.89a4.219 4.219 0 0 0 7.747 2.257l-1.088-.752a2.834 2.834 0 0 1-5.267-1.232h6.569a3.922 3.922 0 0 0 .016-.417 3.729 3.729 0 0 0-3.809-4.017 4.056 4.056 0 0 0-4.159 4.16zm4.114-2.945a2.4 2.4 0 0 1 2.449 2.1h-5.074a2.616 2.616 0 0 1 2.634-2.101zm5.982 2.945a4 4 0 0 0 3.921 4.162 3.512 3.512 0 0 0 2.818-1.392v1.232h1.376v-12h-1.376v5.228a3.512 3.512 0 0 0-2.818-1.392 4 4 0 0 0-3.912 4.161zm6.851 0a2.734 2.734 0 1 1-2.721-2.9 2.733 2.733 0 0 1 2.735 2.899zm9.357 7.347h1.376v-4.577a3.51 3.51 0 0 0 2.817 1.392 4.169 4.169 0 0 0 0-8.323 3.51 3.51 0 0 0-2.817 1.392v-1.232h-1.376v11.348zm6.706-7.347a2.726 2.726 0 1 1-2.721-2.9 2.733 2.733 0 0 1 2.73 2.899zm4.19 4h1.376v-12h-1.376v12zm4.159-4a4.005 4.005 0 0 0 3.922 4.162 3.51 3.51 0 0 0 2.817-1.392v1.232h1.377v-8h-1.377v1.228a3.51 3.51 0 0 0-2.817-1.392 4.005 4.005 0 0 0-3.913 4.161zm6.851 0a2.734 2.734 0 1 1-2.721-2.9 2.733 2.733 0 0 1 2.73 2.899zm6.782 7.347l5.25-11.348h-1.536l-2.737 6.066-2.753-6.066h-1.521l3.5 7.587-1.744 3.761h1.536zm19.506-7.347a4.186 4.186 0 1 0-4.177 4.162 4.107 4.107 0 0 0 4.186-4.163zm-6.962 0a2.779 2.779 0 1 1 2.785 2.882 2.751 2.751 0 0 1-2.776-2.883zm9.727 4h1.377v-3.97c0-1.872 1.024-2.929 2.321-2.929a1.921 1.921 0 0 1 1.888 2.177v4.722h1.361v-4.93a2.949 2.949 0 0 0-3.025-3.233 2.829 2.829 0 0 0-2.545 1.392v-1.232h-1.377v8zm14.3-4a4 4 0 0 0 3.921 4.162 3.509 3.509 0 0 0 2.817-1.392v1.232h1.377v-8h-1.377v1.228a3.509 3.509 0 0 0-2.817-1.392 4 4 0 0 0-3.908 4.161zm6.85 0a2.734 2.734 0 1 1-2.721-2.9 2.733 2.733 0 0 1 2.734 2.899zm16.624 2.017l-1.2-.672a2.714 2.714 0 0 1-2.5 1.537 2.883 2.883 0 0 1 0-5.763 2.714 2.714 0 0 1 2.5 1.537l1.2-.672a4.162 4.162 0 1 0 .013 4.032zm2.573 1.985h1.377v-12h-1.377v12zm4.16-4a4.005 4.005 0 0 0 3.921 4.162 3.512 3.512 0 0 0 2.818-1.392v1.232h1.376v-8h-1.376v1.226a3.512 3.512 0 0 0-2.818-1.392 4 4 0 0 0-3.908 4.161zm6.851 0a2.734 2.734 0 1 1-2.721-2.9 2.733 2.733 0 0 1 2.734 2.897zm9.839 1.777c0-1.2-.752-1.969-2.113-2.417l-.864-.288c-.945-.3-1.233-.608-1.233-1.12a1.133 1.133 0 0 1 1.345-.929 2.163 2.163 0 0 1 1.7.833l.9-.865a3.1 3.1 0 0 0-2.561-1.152c-1.585 0-2.705.88-2.705 2.177a2.416 2.416 0 0 0 1.985 2.321l.784.256c1.04.336 1.424.72 1.424 1.28a1.218 1.218 0 0 1-1.408 1.089 2.149 2.149 0 0 1-2.049-1.265l-1.12.608a3.177 3.177 0 0 0 3.137 1.857c1.623-.003 2.791-.819 2.791-2.388zm7.936 0c0-1.2-.752-1.969-2.113-2.417l-.864-.288c-.945-.3-1.233-.608-1.233-1.12a1.133 1.133 0 0 1 1.345-.929 2.163 2.163 0 0 1 1.7.833l.9-.865a3.1 3.1 0 0 0-2.561-1.152c-1.585 0-2.705.88-2.705 2.177a2.416 2.416 0 0 0 1.985 2.321l.784.256c1.04.336 1.424.72 1.424 1.28a1.218 1.218 0 0 1-1.408 1.089 2.148 2.148 0 0 1-2.049-1.265l-1.12.608a3.177 3.177 0 0 0 3.137 1.857c1.623-.003 2.791-.819 2.791-2.388zm4.43-8.9a.966.966 0 0 0-.96-.977.994.994 0 0 0-.992.977.983.983 0 0 0 .992.976.956.956 0 0 0 .973-.978zm-1.664 11.124h1.376v-8h-1.376v8zm12.051-1.985l-1.2-.672a2.713 2.713 0 0 1-2.5 1.537 2.883 2.883 0 0 1 0-5.763 2.713 2.713 0 0 1 2.5 1.537l1.2-.672a4.145 4.145 0 0 0-3.7-2.145 4.162 4.162 0 1 0 0 8.323 4.145 4.145 0 0 0 3.713-2.147zM28.633 138.871h1.377V134.9c0-1.808.912-2.929 2.209-2.929 1.04 0 1.569.9 1.569 2.193v4.706h1.377v-3.97c0-1.808.9-2.929 2.193-2.929 1.04 0 1.585.9 1.585 2.193v4.706h1.377v-4.914c0-1.953-1.056-3.249-2.8-3.249a2.77 2.77 0 0 0-2.625 1.712 2.516 2.516 0 0 0-2.465-1.712 2.69 2.69 0 0 0-2.42 1.393v-1.232h-1.377v8zm16.625-11.124a.967.967 0 0 0-.96-.977.994.994 0 0 0-.992.977.984.984 0 0 0 .992.976.957.957 0 0 0 .96-.976zm-1.665 11.124h1.377v-8h-1.377v8zm4.784 0h1.377v-12.005h-1.377v12.005zm6.449-11.124a.967.967 0 0 0-.96-.977.994.994 0 0 0-.992.977.984.984 0 0 0 .992.976.957.957 0 0 0 .959-.976zm-1.665 11.124h1.377v-8h-1.377v8zm9.122-.112v-1.232a3.044 3.044 0 0 1-.976.16 1.153 1.153 0 0 1-1.329-1.361v-4.194h2.3v-1.264h-2.3v-2.225H58.6v2.225h-1.7v1.264h1.7v4.37a2.253 2.253 0 0 0 2.449 2.449 3.832 3.832 0 0 0 1.233-.192zm1.822-3.89a4.005 4.005 0 0 0 3.922 4.162 3.51 3.51 0 0 0 2.817-1.392v1.232h1.376v-8h-1.377v1.229a3.51 3.51 0 0 0-2.817-1.392 4 4 0 0 0-3.926 4.161zm6.851 0a2.734 2.734 0 1 1-2.721-2.9 2.733 2.733 0 0 1 2.72 2.9zm4.653 4h1.377V134.9c0-1.872 1.1-2.753 2.113-2.753a2.013 2.013 0 0 1 .752.128v-1.424a2.854 2.854 0 0 0-.624-.064 2.381 2.381 0 0 0-2.241 1.632v-1.552h-1.377v8zm8.785 3.345l5.25-11.348h-1.537l-2.737 6.066-2.753-6.066H81.1l3.505 7.587-1.745 3.761h1.537zm15.841-3.457v-1.232a3.041 3.041 0 0 1-.976.16 1.153 1.153 0 0 1-1.329-1.361v-4.194h2.3v-1.264h-2.3v-2.225h-1.377v2.225h-1.7v1.264h1.7v4.37A2.253 2.253 0 0 0 99 138.951a3.828 3.828 0 0 0 1.234-.192zm2.558.112h1.377V134.9c0-1.872 1.1-2.753 2.113-2.753a2.011 2.011 0 0 1 .752.128v-1.424a2.851 2.851 0 0 0-.624-.064 2.381 2.381 0 0 0-2.241 1.632v-1.552h-1.377v8zm5.744-4a4.219 4.219 0 0 0 7.747 2.257l-1.088-.752a2.833 2.833 0 0 1-5.266-1.232h6.563a3.922 3.922 0 0 0 .016-.417 3.729 3.729 0 0 0-3.81-4.017 4.056 4.056 0 0 0-4.163 4.161zm4.114-2.945a2.4 2.4 0 0 1 2.449 2.1h-5.074a2.617 2.617 0 0 1 2.624-2.1zm6.606 6.947h1.377V134.9c0-1.872 1.024-2.929 2.321-2.929a1.922 1.922 0 0 1 1.889 2.177v4.722h1.36v-4.93a2.949 2.949 0 0 0-3.025-3.233 2.831 2.831 0 0 0-2.545 1.392v-1.232h-1.377v8zm17.491-1.985l-1.2-.672a2.714 2.714 0 0 1-2.5 1.537 2.883 2.883 0 0 1 0-5.763 2.714 2.714 0 0 1 2.5 1.537l1.2-.672a4.143 4.143 0 0 0-3.7-2.145 4.162 4.162 0 1 0 0 8.323 4.143 4.143 0 0 0 3.699-2.145zm2.573 1.985h1.379V134.9c0-1.872 1.024-2.929 2.321-2.929a1.921 1.921 0 0 1 1.888 2.177v4.722h1.361v-4.93a2.949 2.949 0 0 0-3.025-3.233 2.829 2.829 0 0 0-2.545 1.393v-5.234h-1.38v12.005zm9.968-3.793h8.083V133.7h-8.083v1.377zm11.216 3.793h1.376V134.9c0-1.808.913-2.929 2.209-2.929 1.041 0 1.569.9 1.569 2.193v4.706h1.376v-3.97c0-1.808.9-2.929 2.193-2.929 1.041 0 1.585.9 1.585 2.193v4.706h1.377v-4.914c0-1.953-1.057-3.249-2.8-3.249a2.771 2.771 0 0 0-2.625 1.712 2.515 2.515 0 0 0-2.465-1.712 2.692 2.692 0 0 0-2.417 1.392v-1.232H160.5v8zm14.335-4a4.005 4.005 0 0 0 3.922 4.162 3.509 3.509 0 0 0 2.817-1.392v1.232h1.377v-8h-1.377v1.227a3.509 3.509 0 0 0-2.817-1.392 4.005 4.005 0 0 0-3.923 4.161zm6.851 0a2.734 2.734 0 1 1-2.721-2.9 2.733 2.733 0 0 1 2.72 2.898zm4.029 0a4.005 4.005 0 0 0 3.922 4.162 3.51 3.51 0 0 0 2.817-1.392v1.232h1.377v-12.007h-1.377v5.234a3.51 3.51 0 0 0-2.817-1.392 4.005 4.005 0 0 0-3.923 4.161zm6.851 0a2.734 2.734 0 1 1-2.721-2.9 2.733 2.733 0 0 1 2.72 2.898zm4.029 0a4.219 4.219 0 0 0 7.747 2.257l-1.088-.752a2.833 2.833 0 0 1-5.266-1.232h6.562a3.922 3.922 0 0 0 .016-.417 3.728 3.728 0 0 0-3.809-4.017 4.056 4.056 0 0 0-4.162 4.159zm4.114-2.945a2.4 2.4 0 0 1 2.449 2.1h-5.074a2.616 2.616 0 0 1 2.624-2.102zm11.31 6.947h1.376V134.9c0-1.808.912-2.929 2.209-2.929 1.04 0 1.568.9 1.568 2.193v4.706h1.377v-3.97c0-1.808.9-2.929 2.193-2.929 1.04 0 1.584.9 1.584 2.193v4.706h1.377v-4.914c0-1.953-1.057-3.249-2.8-3.249a2.769 2.769 0 0 0-2.625 1.712 2.517 2.517 0 0 0-2.465-1.712 2.689 2.689 0 0 0-2.418 1.393v-1.232h-1.377v8zm22.691-4a4.186 4.186 0 1 0-4.178 4.162 4.107 4.107 0 0 0 4.177-4.166zm-6.963 0a2.779 2.779 0 1 1 2.785 2.882 2.751 2.751 0 0 1-2.786-2.886zm9.728 4h1.376V134.9c0-1.872 1.105-2.753 2.113-2.753a2.02 2.02 0 0 1 .753.128v-1.424a2.866 2.866 0 0 0-.625-.064 2.382 2.382 0 0 0-2.241 1.632v-1.552h-1.376v8zm5.744-4a4.219 4.219 0 0 0 7.747 2.257l-1.089-.752a2.833 2.833 0 0 1-5.266-1.232h6.563a3.922 3.922 0 0 0 .016-.417 3.729 3.729 0 0 0-3.81-4.017 4.055 4.055 0 0 0-4.162 4.157zm4.113-2.945a2.4 2.4 0 0 1 2.449 2.1h-5.074a2.617 2.617 0 0 1 2.624-2.104zm11.311 6.947h1.376V134.9c0-1.808.913-2.929 2.209-2.929 1.041 0 1.569.9 1.569 2.193v4.706h1.376v-3.97c0-1.808.9-2.929 2.193-2.929 1.041 0 1.585.9 1.585 2.193v4.706h1.376v-4.914c0-1.953-1.056-3.249-2.8-3.249a2.77 2.77 0 0 0-2.625 1.712 2.515 2.515 0 0 0-2.465-1.712 2.691 2.691 0 0 0-2.417 1.392v-1.232h-1.376v8zm22.691-4a4.186 4.186 0 1 0-4.178 4.162 4.107 4.107 0 0 0 4.177-4.168zm-6.963 0a2.779 2.779 0 1 1 2.785 2.882 2.751 2.751 0 0 1-2.786-2.888zm9.1 0a4.005 4.005 0 0 0 3.922 4.162 3.51 3.51 0 0 0 2.817-1.392v1.232h1.376v-12.011h-1.376v5.234a3.51 3.51 0 0 0-2.817-1.392 4.005 4.005 0 0 0-3.92 4.161zm6.851 0a2.734 2.734 0 1 1-2.721-2.9 2.733 2.733 0 0 1 2.723 2.894zm4.029 0a4.219 4.219 0 0 0 7.747 2.257l-1.088-.752a2.833 2.833 0 0 1-5.266-1.232h6.562a3.922 3.922 0 0 0 .016-.417 3.729 3.729 0 0 0-3.809-4.017 4.056 4.056 0 0 0-4.16 4.155zm4.114-2.945a2.4 2.4 0 0 1 2.449 2.1h-5.074a2.616 2.616 0 0 1 2.627-2.106zm6.606 6.947h1.377V134.9c0-1.872 1.1-2.753 2.113-2.753a2.011 2.011 0 0 1 .752.128v-1.424a2.851 2.851 0 0 0-.624-.064 2.38 2.38 0 0 0-2.241 1.632v-1.552h-1.377v8zm6.656 0h1.377V134.9c0-1.872 1.024-2.929 2.321-2.929a1.921 1.921 0 0 1 1.888 2.177v4.722h1.361v-4.93a2.949 2.949 0 0 0-3.025-3.233 2.829 2.829 0 0 0-2.545 1.392v-1.232h-1.377v8zm14.3-4a4.005 4.005 0 0 0 3.922 4.162 3.509 3.509 0 0 0 2.817-1.392v1.232h1.377v-8h-1.377v1.221a3.509 3.509 0 0 0-2.817-1.392 4.005 4.005 0 0 0-3.917 4.161zm6.851 0a2.734 2.734 0 1 1-2.721-2.9 2.733 2.733 0 0 1 2.726 2.892zm4.654 4h1.376V134.9c0-1.872 1.024-2.929 2.321-2.929a1.922 1.922 0 0 1 1.889 2.177v4.722h1.36v-4.93a2.949 2.949 0 0 0-3.025-3.233 2.831 2.831 0 0 0-2.545 1.392v-1.232h-1.376v8zm9.6-4a4.005 4.005 0 0 0 3.922 4.162 3.51 3.51 0 0 0 2.817-1.392v1.232h1.376v-12.013h-1.372v5.234a3.51 3.51 0 0 0-2.817-1.392 4.005 4.005 0 0 0-3.922 4.161zm6.851 0a2.734 2.734 0 1 1-2.721-2.9 2.733 2.733 0 0 1 2.725 2.892zm16.816 3.538v-7.539h-1.377v1.224a3.4 3.4 0 0 0-2.785-1.392 4.077 4.077 0 0 0 0 8.147 3.417 3.417 0 0 0 2.785-1.408v.912a2.558 2.558 0 0 1-2.673 2.769 3.422 3.422 0 0 1-2.8-1.345l-.96.961a4.752 4.752 0 0 0 3.777 1.633 3.705 3.705 0 0 0 4.037-3.97zm-6.675-3.634a2.707 2.707 0 1 1 2.705 2.8 2.667 2.667 0 0 1-2.701-2.808zm9.44.1a4 4 0 0 0 3.921 4.162 3.509 3.509 0 0 0 2.817-1.392v1.232h1.377v-8h-1.377v1.217a3.509 3.509 0 0 0-2.817-1.392 4 4 0 0 0-3.917 4.161zm6.85 0a2.734 2.734 0 1 1-2.721-2.9 2.733 2.733 0 0 1 2.725 2.888zm4.654 4h1.376V134.9c0-1.808.913-2.929 2.209-2.929 1.041 0 1.569.9 1.569 2.193v4.706h1.376v-3.97c0-1.808.9-2.929 2.193-2.929 1.041 0 1.585.9 1.585 2.193v4.706h1.376v-4.914c0-1.953-1.056-3.249-2.8-3.249a2.77 2.77 0 0 0-2.625 1.712 2.515 2.515 0 0 0-2.465-1.712 2.691 2.691 0 0 0-2.417 1.392v-1.232h-1.376v8zm16.627-11.134a.966.966 0 0 0-.96-.977 1 1 0 0 0-.993.977.984.984 0 0 0 .993.976.956.956 0 0 0 .96-.976zm-1.664 11.124h1.376v-8h-1.376v8zm4.783 0h1.381V134.9c0-1.872 1.024-2.929 2.321-2.929a1.922 1.922 0 0 1 1.889 2.177v4.722h1.36v-4.93a2.949 2.949 0 0 0-3.025-3.233 2.831 2.831 0 0 0-2.545 1.393v-1.232h-1.38v8zm9.6-4a4.219 4.219 0 0 0 7.747 2.257l-1.088-.752a2.833 2.833 0 0 1-5.266-1.232h6.562a3.922 3.922 0 0 0 .016-.417 3.728 3.728 0 0 0-3.809-4.017 4.056 4.056 0 0 0-4.161 4.159zm4.114-2.945a2.4 2.4 0 0 1 2.449 2.1h-5.074a2.616 2.616 0 0 1 2.626-2.102zm11.774 6.947h1.377v-6.739h2.321v-1.264h-2.321v-1.47a1.152 1.152 0 0 1 1.329-1.36 3.222 3.222 0 0 1 .992.16v-1.217a3.638 3.638 0 0 0-1.249-.208 2.286 2.286 0 0 0-2.449 2.481v1.617h-1.7v1.264h1.7v6.739zm13.523-4a4.186 4.186 0 1 0-4.177 4.162 4.107 4.107 0 0 0 4.178-4.166zm-6.962 0a2.779 2.779 0 1 1 2.785 2.882 2.751 2.751 0 0 1-2.784-2.886zm9.727 4h1.377V134.9c0-1.872 1.1-2.753 2.113-2.753a2.011 2.011 0 0 1 .752.128v-1.424a2.851 2.851 0 0 0-.624-.064 2.38 2.38 0 0 0-2.241 1.632v-1.552H446.6v8zm15.026-.112v-1.232a3.048 3.048 0 0 1-.977.16 1.153 1.153 0 0 1-1.328-1.361v-4.194h2.305v-1.264h-2.305v-2.225h-1.376v2.225h-1.7v1.264h1.7v4.37a2.253 2.253 0 0 0 2.449 2.449 3.835 3.835 0 0 0 1.233-.194zm10.177-3.89a4.186 4.186 0 1 0-4.177 4.162 4.107 4.107 0 0 0 4.179-4.164zm-6.963 0a2.779 2.779 0 1 1 2.786 2.882 2.752 2.752 0 0 1-2.785-2.884zm9.1 0a4 4 0 0 0 3.921 4.162 3.509 3.509 0 0 0 2.817-1.392v1.232h1.377v-12.007h-1.377v5.234a3.509 3.509 0 0 0-2.817-1.392 4 4 0 0 0-3.916 4.161zm6.85 0a2.734 2.734 0 1 1-2.721-2.9 2.733 2.733 0 0 1 2.726 2.898zm4.03 0a4 4 0 0 0 3.921 4.162 3.509 3.509 0 0 0 2.817-1.392v1.232h1.377v-8h-1.377v1.227a3.509 3.509 0 0 0-2.817-1.392 4 4 0 0 0-3.916 4.161zm6.85 0a2.734 2.734 0 1 1-2.721-2.9 2.733 2.733 0 0 1 2.726 2.898zm6.782 7.347l5.251-11.348h-1.537l-2.737 6.066-2.753-6.066h-1.521l3.506 7.587-1.745 3.761h1.536zM507 137.8a1.185 1.185 0 1 0-1.184 1.2 1.206 1.206 0 0 0 1.184-1.2z"/><g id="CTA"><path id="Rectangle_4_copy_4" data-name="Rectangle 4 copy 4" d="M27 186h102v3H27z"/><path id="Shop_now" data-name="Shop now" class="cls-2" d="M31.347 180.356c2.255 0 3.8-1.35 3.818-3.285a3.292 3.292 0 0 0-2.54-3.179l-.752-.27c-1.127-.405-1.654-.66-1.654-1.229a1.1 1.1 0 0 1 1.293-.81 2.376 2.376 0 0 1 1.849.885l1.563-1.65a4.458 4.458 0 0 0-3.442-1.47c-2.134 0-3.683 1.215-3.683 3.284 0 1.455.962 2.49 2.691 3.075l.752.255c1.067.36 1.488.735 1.488 1.274a1.082 1.082 0 0 1-1.293.885 2.794 2.794 0 0 1-2.21-1.215l-1.834 1.545a4.683 4.683 0 0 0 3.954 1.905zm8.1-.18h2.39v-4.214h4.3v4.214h2.39v-10.648h-2.39v4.172h-4.3v-4.169h-2.39v10.648zm18.883.18a5.5 5.5 0 1 0-5.517-5.5 5.524 5.524 0 0 0 5.522 5.5zm0-2.31a3.2 3.2 0 1 1 3.1-3.194 3.162 3.162 0 0 1-3.095 3.194zm17.185-4.874a3.631 3.631 0 0 0-3.758-3.644h-3.618v10.648h2.39V176.8h1.233a3.618 3.618 0 0 0 3.758-3.628zm-2.315 0a1.4 1.4 0 0 1-1.473 1.4h-1.2v-2.789h1.2a1.394 1.394 0 0 1 1.473 1.389zm21.649 7v-10.644h-2.4v6.572l-5.186-6.569H85.2v10.648h2.39v-6.584l5.2 6.584h2.059zm9.8.18a5.5 5.5 0 1 0-5.516-5.5 5.524 5.524 0 0 0 5.525 5.504zm0-2.31a3.2 3.2 0 1 1 3.1-3.194 3.162 3.162 0 0 1-3.091 3.198zm18.072 2.13H125l2.48-10.648h-2.556l-1.458 6.749-3.006-6.929-2.991 6.929-1.458-6.749h-2.556l2.465 10.648h2.27l2.27-5.219z"/></g></svg>