<svg id="Copy_copy_8" data-name="Copy copy 8" xmlns="http://www.w3.org/2000/svg" width="720" height="201" viewBox="0 0 720 201">
  <metadata><?xpacket begin="﻿" id="W5M0MpCehiHzreSzNTczkc9d"?>
<x:xmpmeta xmlns:x="adobe:ns:meta/" x:xmptk="Adobe XMP Core 5.6-c138 79.159824, 2016/09/14-01:09:01        ">
   <rdf:RDF xmlns:rdf="http://www.w3.org/1999/02/22-rdf-syntax-ns#">
      <rdf:Description rdf:about=""/>
   </rdf:RDF>
</x:xmpmeta>
                                                                                                    
                                                                                                    
                                                                                                    
                                                                                                    
                                                                                                    
                                                                                                    
                                                                                                    
                                                                                                    
                                                                                                    
                                                                                                    
                                                                                                    
                                                                                                    
                                                                                                    
                                                                                                    
                                                                                                    
                                                                                                    
                                                                                                    
                                                                                                    
                                                                                                    
                                                                                                    
                           
<?xpacket end="w"?></metadata>
<defs>
    <style>
      .cls-1 {
        fill: #fff;
      }

      .cls-2 {
        fill-rule: evenodd;
      }
    </style>
  </defs>
  <rect id="Rectangle_103_copy_2" data-name="Rectangle 103 copy 2" class="cls-1" width="720" height="201"/>
  <path id="SUEDE_SLOUCHY_BOOT_" data-name="SUEDE SLOUCHY BOOT " class="cls-2" d="M37.946,51.231c4.5,0,7.59-2.7,7.62-6.57,0.03-3.21-1.98-5.25-5.07-6.36l-1.5-.54c-2.25-.81-3.3-1.32-3.3-2.46,0-1.11,1.29-1.62,2.58-1.62a4.738,4.738,0,0,1,3.69,1.77l3.12-3.3a8.887,8.887,0,0,0-6.87-2.94c-4.26,0-7.35,2.43-7.35,6.57,0,2.91,1.92,4.98,5.37,6.15l1.5,0.51c2.13,0.72,2.97,1.47,2.97,2.55,0,1.02-.99,1.77-2.58,1.77a5.573,5.573,0,0,1-4.41-2.43l-3.66,3.09A9.34,9.34,0,0,0,37.946,51.231Zm20.94,0a8.353,8.353,0,0,0,8.76-8.79V29.572h-4.77V42.5a3.992,3.992,0,1,1-7.98,0V29.572h-4.77V42.441A8.337,8.337,0,0,0,58.886,51.231Zm14.52-.36h13.5v-4.56h-8.73V42.5h6.93v-4.56h-6.93v-3.81h8.73v-4.56h-13.5v21.3Zm18.63,0H99.3a10.652,10.652,0,1,0,0-21.3h-7.26v21.3Zm4.77-4.38V33.952H99.3a6.011,6.011,0,0,1,6.03,6.27,6.011,6.011,0,0,1-6.03,6.27h-2.49Zm18.181,4.38h13.5v-4.56h-8.73V42.5h6.93v-4.56h-6.93v-3.81h8.73v-4.56h-13.5v21.3Zm33.089,0.36c4.5,0,7.59-2.7,7.62-6.57,0.03-3.21-1.98-5.25-5.07-6.36l-1.5-.54c-2.25-.81-3.3-1.32-3.3-2.46,0-1.11,1.29-1.62,2.58-1.62a4.738,4.738,0,0,1,3.69,1.77l3.12-3.3a8.888,8.888,0,0,0-6.87-2.94c-4.26,0-7.35,2.43-7.35,6.57,0,2.91,1.92,4.98,5.37,6.15l1.5,0.51c2.13,0.72,2.97,1.47,2.97,2.55,0,1.02-.99,1.77-2.58,1.77a5.573,5.573,0,0,1-4.41-2.43l-3.66,3.09A9.34,9.34,0,0,0,148.075,51.231Zm12.42-.36h13.589v-4.56h-8.819V29.572H160.5v21.3Zm26.909,0.36a11.01,11.01,0,1,0-11.01-11.01A11.036,11.036,0,0,0,187.4,51.231Zm0-4.62a6.393,6.393,0,1,1,6.18-6.39A6.32,6.32,0,0,1,187.4,46.611Zm24.33,4.62a8.353,8.353,0,0,0,8.759-8.79V29.572h-4.769V42.5a3.992,3.992,0,1,1-7.98,0V29.572h-4.77V42.441A8.338,8.338,0,0,0,211.734,51.231Zm24.329,0a11.01,11.01,0,0,0,9.96-5.82l-4.2-2.28a6.39,6.39,0,1,1,0-5.82l4.2-2.28A11.1,11.1,0,1,0,236.063,51.231Zm14.251-.36h4.769v-8.43h8.58v8.43h4.77v-21.3h-4.77v8.34h-8.58v-8.34h-4.769v21.3Zm29.879,0h4.8v-8.94l7.77-12.359h-5.55l-4.65,7.68-4.59-7.68h-5.549l7.769,12.33v8.97Zm23.94,0h9.36a6.3,6.3,0,0,0,6.479-6.27,5.567,5.567,0,0,0-3.029-5.04,5.016,5.016,0,0,0,1.529-3.66,6.33,6.33,0,0,0-6.329-6.33h-8.01v21.3Zm4.77-12.689v-4.26h2.7a2.165,2.165,0,0,1,2.22,2.16,2.135,2.135,0,0,1-2.22,2.1h-2.7Zm0,8.31v-4.26h4.17a2.167,2.167,0,0,1,2.25,2.13,2.141,2.141,0,0,1-2.22,2.13h-4.2Zm25.589,4.74a11.01,11.01,0,1,0-11.009-11.01A11.036,11.036,0,0,0,334.492,51.231Zm0-4.62a6.393,6.393,0,1,1,6.18-6.39A6.319,6.319,0,0,1,334.492,46.611Zm25.62,4.62A11.01,11.01,0,1,0,349.1,40.222,11.036,11.036,0,0,0,360.112,51.231Zm0-4.62a6.393,6.393,0,1,1,6.18-6.39A6.32,6.32,0,0,1,360.112,46.611Zm18.84,4.26h4.8V34.132h5.49v-4.56h-15.72v4.56h5.43V50.871Z"/>
  <g id="CTA_copy" data-name="CTA copy">
    <rect id="Rectangle_4_copy_4" data-name="Rectangle 4 copy 4" x="29" y="97.938" width="102" height="3.063"/>
    <path id="Shop_now" data-name="Shop now" class="cls-2" d="M33.347,92.177c2.255,0,3.8-1.378,3.818-3.352a3.347,3.347,0,0,0-2.54-3.245L33.873,85.3c-1.127-.413-1.653-0.674-1.653-1.255a1.1,1.1,0,0,1,1.293-.827,2.358,2.358,0,0,1,1.849.9l1.563-1.684a4.415,4.415,0,0,0-3.442-1.5c-2.135,0-3.683,1.24-3.683,3.352,0,1.485.962,2.541,2.691,3.138l0.752,0.26c1.067,0.367,1.488.75,1.488,1.3a1.086,1.086,0,0,1-1.293.9,2.78,2.78,0,0,1-2.21-1.24l-1.834,1.576A4.651,4.651,0,0,0,33.347,92.177Zm8.1-.184h2.39v-4.3h4.3v4.3h2.39V81.125h-2.39v4.255h-4.3V81.125h-2.39V91.993Zm18.883,0.184a5.618,5.618,0,1,0-5.517-5.618A5.581,5.581,0,0,0,60.335,92.177Zm0-2.357a3.265,3.265,0,1,1,3.1-3.26A3.2,3.2,0,0,1,60.335,89.82ZM77.52,84.845a3.667,3.667,0,0,0-3.758-3.719H70.139V91.993h2.39V88.549h1.233A3.654,3.654,0,0,0,77.52,84.845Zm-2.315,0a1.416,1.416,0,0,1-1.473,1.424h-1.2V83.421h1.2A1.407,1.407,0,0,1,75.2,84.845Zm21.649,7.148V81.125H94.449v6.7l-5.186-6.7H87.2V91.993h2.39v-6.72l5.2,6.72h2.059Zm9.8,0.184a5.618,5.618,0,1,0-5.516-5.618A5.581,5.581,0,0,0,106.658,92.177Zm0-2.357a3.265,3.265,0,1,1,3.1-3.26A3.2,3.2,0,0,1,106.658,89.82Zm18.072,2.174H127l2.48-10.868h-2.556l-1.458,6.888-3.006-7.072-2.991,7.072-1.458-6.888h-2.556l2.465,10.868h2.27l2.27-5.327Z"/>
  </g>
</svg>
