<svg id="Copy_copy_10" data-name="Copy copy 10" xmlns="http://www.w3.org/2000/svg" width="720" height="739" viewBox="0 0 720 739">
  <metadata><?xpacket begin="﻿" id="W5M0MpCehiHzreSzNTczkc9d"?>
<x:xmpmeta xmlns:x="adobe:ns:meta/" x:xmptk="Adobe XMP Core 5.6-c138 79.159824, 2016/09/14-01:09:01        ">
   <rdf:RDF xmlns:rdf="http://www.w3.org/1999/02/22-rdf-syntax-ns#">
      <rdf:Description rdf:about=""/>
   </rdf:RDF>
</x:xmpmeta>
                                                                                                    
                                                                                                    
                                                                                                    
                                                                                                    
                                                                                                    
                                                                                                    
                                                                                                    
                                                                                                    
                                                                                                    
                                                                                                    
                                                                                                    
                                                                                                    
                                                                                                    
                                                                                                    
                                                                                                    
                                                                                                    
                                                                                                    
                                                                                                    
                                                                                                    
                                                                                                    
                           
<?xpacket end="w"?></metadata>
<defs>
    <style>
      .cls-1 {
        fill: #fff;
        fill-opacity: 0;
      }

      .cls-2 {
        fill-rule: evenodd;
      }
    </style>
  </defs>
  <rect id="Rectangle_105_copy_5" data-name="Rectangle 105 copy 5" class="cls-1" width="720" height="739"/>
  <path id="WASHABLE_WOOL-CASHMERE_SWEATER_Knit_b._1992_Originally_design" data-name="WASHABLE WOOL-CASHMERE SWEATER Knit, b. 1992  Originally design" class="cls-2" d="M47.088,49.371h4.228l4.62-19.88h-4.76l-2.716,12.6-5.6-12.936L37.289,42.091l-2.716-12.6h-4.76L34.4,49.371h4.228l4.228-9.744Zm9.464,0H61.2l1.764-4.2H71.2l1.764,4.2h4.648L69.1,29.491H65.065Zm8.036-8.064,2.492-5.992,2.492,5.992H64.589Zm21.9,8.4c4.2,0,7.084-2.52,7.112-6.132,0.028-3-1.848-4.9-4.732-5.936l-1.4-.5c-2.1-.756-3.08-1.232-3.08-2.3,0-1.036,1.2-1.512,2.408-1.512a4.422,4.422,0,0,1,3.444,1.652l2.912-3.08a8.3,8.3,0,0,0-6.412-2.744c-3.976,0-6.86,2.268-6.86,6.132,0,2.716,1.792,4.648,5.012,5.74l1.4,0.476c1.988,0.672,2.772,1.372,2.772,2.38,0,0.952-.924,1.652-2.408,1.652a5.2,5.2,0,0,1-4.116-2.268l-3.416,2.884A8.717,8.717,0,0,0,86.485,49.707Zm11.592-.336h4.452V41.5h8.008v7.868h4.452V29.491h-4.452v7.784h-8.008V29.491H98.076v19.88Zm20.384,0h4.648l1.764-4.2H133.1l1.764,4.2h4.648L131,29.491h-4.032Zm8.036-8.064,2.492-5.992,2.492,5.992H126.5Zm16.492,8.064h8.736a5.877,5.877,0,0,0,6.048-5.852,5.2,5.2,0,0,0-2.828-4.7,4.679,4.679,0,0,0,1.428-3.416,5.909,5.909,0,0,0-5.908-5.908h-7.476v19.88Zm4.452-11.844V33.551h2.52a2.021,2.021,0,0,1,2.072,2.016,1.993,1.993,0,0,1-2.072,1.96h-2.52Zm0,7.756V41.307h3.892a2.022,2.022,0,0,1,2.1,1.988,2,2,0,0,1-2.072,1.988h-3.92Zm14.728,4.088h12.684V45.115H166.62V29.491h-4.452v19.88Zm16.856,0h12.6V45.115h-8.148V41.559h6.468V37.3h-6.468V33.747h8.148V29.491h-12.6v19.88Zm40.1,0h4.228l4.62-19.88h-4.76l-2.716,12.6-5.6-12.936L209.32,42.091l-2.716-12.6h-4.76l4.592,19.88h4.228l4.228-9.744Zm21.7,0.336a10.276,10.276,0,1,0-10.276-10.276A10.3,10.3,0,0,0,240.82,49.707Zm0-4.312a5.967,5.967,0,1,1,5.768-5.964A5.9,5.9,0,0,1,240.82,45.4Zm23.911,4.312a10.276,10.276,0,1,0-10.276-10.276A10.3,10.3,0,0,0,264.731,49.707Zm0-4.312a5.967,5.967,0,1,1,5.768-5.964A5.9,5.9,0,0,1,264.731,45.4Zm14.756,3.976h12.684V45.115h-8.232V29.491h-4.452v19.88Zm13.832-7.924h8.232V37.415h-8.232v4.032Zm22.511,8.26a10.276,10.276,0,0,0,9.3-5.432l-3.92-2.128a5.964,5.964,0,1,1,0-5.432l3.92-2.128A10.364,10.364,0,1,0,315.83,49.707Zm10.7-.336h4.648l1.763-4.2h8.232l1.764,4.2h4.648l-8.512-19.88h-4.032Zm8.035-8.064,2.492-5.992,2.492,5.992h-4.984Zm21.9,8.4c4.2,0,7.084-2.52,7.112-6.132,0.028-3-1.848-4.9-4.732-5.936l-1.4-.5c-2.1-.756-3.08-1.232-3.08-2.3,0-1.036,1.2-1.512,2.408-1.512a4.422,4.422,0,0,1,3.444,1.652l2.912-3.08a8.3,8.3,0,0,0-6.412-2.744c-3.976,0-6.86,2.268-6.86,6.132,0,2.716,1.792,4.648,5.012,5.74l1.4,0.476c1.988,0.672,2.772,1.372,2.772,2.38,0,0.952-.924,1.652-2.408,1.652a5.2,5.2,0,0,1-4.116-2.268L349.1,46.151A8.717,8.717,0,0,0,356.459,49.707Zm11.591-.336H372.5V41.5h8.008v7.868h4.452V29.491H380.51v7.784H372.5V29.491H368.05v19.88Zm32.788-4.228,5.8-8.036V49.371h4.48V29.491h-4.06l-6.216,8.568-6.216-8.568h-4.06v19.88h4.452V37.107Zm15.876,4.228h12.6V45.115h-8.148V41.559h6.468V37.3h-6.468V33.747h8.148V29.491h-12.6v19.88Zm17.388,0h4.452v-8.2h0.728l6.608,8.2h5.348l-7.028-8.764c2.52-.9,3.892-2.548,3.892-5.124a5.869,5.869,0,0,0-6.16-5.992H434.1v19.88Zm4.452-11.984V33.579h2.856a1.981,1.981,0,0,1,2.268,1.9,2.012,2.012,0,0,1-2.268,1.9h-2.856Zm15.483,11.984h12.6V45.115h-8.148V41.559h6.468V37.3h-6.468V33.747h8.148V29.491h-12.6v19.88Zm30.884,0.336c4.2,0,7.084-2.52,7.112-6.132,0.028-3-1.848-4.9-4.732-5.936l-1.4-.5c-2.1-.756-3.08-1.232-3.08-2.3,0-1.036,1.2-1.512,2.408-1.512a4.422,4.422,0,0,1,3.444,1.652l2.912-3.08a8.3,8.3,0,0,0-6.412-2.744c-3.976,0-6.86,2.268-6.86,6.132,0,2.716,1.792,4.648,5.012,5.74l1.4,0.476c1.988,0.672,2.772,1.372,2.772,2.38,0,0.952-.924,1.652-2.408,1.652a5.2,5.2,0,0,1-4.116-2.268l-3.416,2.884A8.717,8.717,0,0,0,484.921,49.707Zm26.936-.336h4.228l4.62-19.88h-4.76l-2.716,12.6-5.6-12.936-5.572,12.936-2.716-12.6h-4.76l4.592,19.88H503.4l4.228-9.744Zm12.768,0h12.6V45.115h-8.148V41.559h6.468V37.3h-6.468V33.747h8.148V29.491h-12.6v19.88Zm15.26,0h4.648l1.764-4.2h8.232l1.764,4.2h4.648l-8.512-19.88H548.4Zm8.036-8.064,2.492-5.992,2.492,5.992h-4.984Zm18.088,8.064h4.48V33.747h5.124V29.491H560.941v4.256h5.068V49.371Zm13.72,0h12.6V45.115h-8.148V41.559h6.468V37.3h-6.468V33.747h8.148V29.491h-12.6v19.88Zm17.388,0h4.452v-8.2H602.3l6.608,8.2h5.348l-7.028-8.764c2.52-.9,3.892-2.548,3.892-5.124a5.869,5.869,0,0,0-6.16-5.992h-7.84v19.88Zm4.452-11.984V33.579h2.856a1.981,1.981,0,0,1,2.268,1.9,2.012,2.012,0,0,1-2.268,1.9h-2.856ZM31.029,77.371h1.656V71.285l6.788,6.086h2.359l-7.454-6.7,6.068-6.086H38.267l-5.582,5.546V64.587H31.029V77.371Zm12.744,0h1.548V72.906c0-2.107,1.152-3.3,2.611-3.3a2.161,2.161,0,0,1,2.125,2.449v5.312h1.53V71.825a3.318,3.318,0,0,0-3.4-3.637,3.184,3.184,0,0,0-2.863,1.566V68.368H43.773v9ZM57.147,64.857a1.087,1.087,0,0,0-1.08-1.1,1.118,1.118,0,0,0-1.116,1.1,1.107,1.107,0,0,0,1.116,1.1A1.076,1.076,0,0,0,57.147,64.857ZM55.275,77.371h1.548v-9H55.275v9Zm10.261-.126V75.859a3.421,3.421,0,0,1-1.1.18,1.3,1.3,0,0,1-1.495-1.531V69.791h2.593V68.368H62.943v-2.5H61.395v2.5H59.486v1.422h1.909v4.915a2.534,2.534,0,0,0,2.755,2.755A4.31,4.31,0,0,0,65.536,77.245Zm4.805-.27a1.54,1.54,0,0,0,.252-0.81,1.333,1.333,0,1,0-2.665,0,1.34,1.34,0,0,0,.738,1.206L67.46,79.946h1.026Zm10.422-.99a3.948,3.948,0,0,0,3.169,1.566,4.69,4.69,0,0,0,0-9.363,3.948,3.948,0,0,0-3.169,1.566V63.867H79.214v13.5h1.549V75.985Zm6-3.115A3.067,3.067,0,1,1,83.7,69.611,3.074,3.074,0,0,1,86.758,72.87Zm6.658,3.295a1.333,1.333,0,1,0-1.332,1.35A1.357,1.357,0,0,0,93.417,76.165Zm9.7,1.206h1.549V64.587h-2.755l-1.261,1.53h2.467V77.371Zm5.472,0h1.98l4.682-5.528a4.911,4.911,0,0,0,1.44-3.259,4.331,4.331,0,0,0-8.66.054,4.13,4.13,0,0,0,4,4.105,2.294,2.294,0,0,0,.5-0.036Zm1.026-8.751a2.746,2.746,0,1,1,2.737,2.755A2.717,2.717,0,0,1,109.616,68.621Zm9.918,8.751h1.98l4.682-5.528a4.911,4.911,0,0,0,1.44-3.259,4.331,4.331,0,0,0-8.66.054,4.13,4.13,0,0,0,4,4.105,2.294,2.294,0,0,0,.5-0.036Zm1.026-8.751a2.746,2.746,0,1,1,2.737,2.755A2.717,2.717,0,0,1,120.56,68.621Zm17.75,7.256h-6.374c0.306-1.476,1.8-2.215,3.277-3.295,2.089-1.513,2.953-2.593,2.953-4.465a3.631,3.631,0,0,0-3.943-3.745A3.972,3.972,0,0,0,130.01,68.4h1.584a2.469,2.469,0,0,1,2.647-2.521,2.161,2.161,0,0,1,2.34,2.215c0,1.495-.792,2.161-2.268,3.259-1.891,1.4-4.285,2.665-4.285,5.4v0.612h8.282V75.877Zm-96.5,35.812a5.874,5.874,0,1,0-5.874,5.874A5.818,5.818,0,0,0,41.806,111.689Zm-10.244,0a4.379,4.379,0,1,1,4.37,4.466A4.357,4.357,0,0,1,31.561,111.689Zm13.056,5.682h1.377V113.4c0-1.872,1.1-2.753,2.113-2.753a2.013,2.013,0,0,1,.752.128v-1.424a2.853,2.853,0,0,0-.624-0.064,2.381,2.381,0,0,0-2.241,1.632v-1.552H44.617v8Zm8.321-11.124a0.967,0.967,0,0,0-.96-0.977,0.994,0.994,0,0,0-.992.977,0.984,0.984,0,0,0,.992.976A0.956,0.956,0,0,0,52.938,106.247Zm-1.665,11.124H52.65v-8H51.273v8Zm12.243-.464v-7.539H62.139V110.6a3.406,3.406,0,0,0-2.785-1.392,4.077,4.077,0,0,0,0,8.147,3.418,3.418,0,0,0,2.785-1.408v0.912a2.558,2.558,0,0,1-2.673,2.769,3.422,3.422,0,0,1-2.8-1.345l-0.96.961a4.753,4.753,0,0,0,3.778,1.633A3.7,3.7,0,0,0,63.516,116.907Zm-6.675-3.634a2.707,2.707,0,1,1,2.705,2.8A2.667,2.667,0,0,1,56.841,113.273Zm11.728-7.026a0.967,0.967,0,0,0-.96-0.977,0.994,0.994,0,0,0-.992.977,0.984,0.984,0,0,0,.992.976A0.957,0.957,0,0,0,68.57,106.247ZM66.9,117.371h1.377v-8H66.9v8Zm4.784,0h1.377V113.4c0-1.872,1.024-2.929,2.321-2.929a1.921,1.921,0,0,1,1.889,2.177v4.722h1.36v-4.93a2.949,2.949,0,0,0-3.025-3.233,2.83,2.83,0,0,0-2.545,1.392v-1.232H71.689v8Zm9.6-4a4.005,4.005,0,0,0,3.922,4.162,3.51,3.51,0,0,0,2.817-1.392v1.232H89.4v-8H88.027V110.6a3.51,3.51,0,0,0-2.817-1.392A4,4,0,0,0,81.288,113.369Zm6.851,0a2.734,2.734,0,1,1-2.721-2.9A2.733,2.733,0,0,1,88.139,113.369Zm4.653,4h1.376v-12H92.792v12Zm4.784,0h1.377v-12H97.576v12Zm6.913,3.345,5.25-11.348H108.2l-2.737,6.066-2.753-6.066h-1.52l3.505,7.587-1.745,3.761h1.537Zm11.151-7.347a4.005,4.005,0,0,0,3.921,4.162,3.512,3.512,0,0,0,2.818-1.392v1.232h1.376v-12h-1.376V110.6a3.512,3.512,0,0,0-2.818-1.392A4,4,0,0,0,115.64,113.369Zm6.851,0a2.734,2.734,0,1,1-2.721-2.9A2.733,2.733,0,0,1,122.491,113.369Zm4.029,0a4.219,4.219,0,0,0,7.747,2.257l-1.089-.752a2.833,2.833,0,0,1-5.266-1.232h6.563a3.922,3.922,0,0,0,.016-0.417,3.729,3.729,0,0,0-3.81-4.017A4.055,4.055,0,0,0,126.52,113.369Zm4.113-2.945a2.4,2.4,0,0,1,2.449,2.1h-5.074A2.617,2.617,0,0,1,130.633,110.424Zm11.793,4.722c0-1.2-.752-1.969-2.113-2.417l-0.864-.288c-0.945-.3-1.233-0.608-1.233-1.12a1.133,1.133,0,0,1,1.345-.929,2.159,2.159,0,0,1,1.7.833l0.9-.865a3.1,3.1,0,0,0-2.561-1.152c-1.585,0-2.7.88-2.7,2.177a2.416,2.416,0,0,0,1.984,2.321l0.785,0.256c1.04,0.336,1.424.72,1.424,1.28a1.218,1.218,0,0,1-1.408,1.089,2.148,2.148,0,0,1-2.049-1.265l-1.12.608a3.177,3.177,0,0,0,3.137,1.857C141.257,117.531,142.426,116.715,142.426,115.146Zm4.43-8.9a0.966,0.966,0,0,0-.96-0.977,0.994,0.994,0,0,0-.992.977,0.983,0.983,0,0,0,.992.976A0.956,0.956,0,0,0,146.856,106.247Zm-1.664,11.124h1.376v-8h-1.376v8Zm12.243-.464v-7.539h-1.377V110.6a3.406,3.406,0,0,0-2.785-1.392,4.077,4.077,0,0,0,0,8.147,3.418,3.418,0,0,0,2.785-1.408v0.912a2.558,2.558,0,0,1-2.673,2.769,3.421,3.421,0,0,1-2.8-1.345l-0.961.961a4.754,4.754,0,0,0,3.778,1.633A3.705,3.705,0,0,0,157.435,116.907Zm-6.675-3.634a2.707,2.707,0,1,1,2.705,2.8A2.667,2.667,0,0,1,150.76,113.273Zm10.063,4.1H162.2V113.4c0-1.872,1.024-2.929,2.321-2.929a1.922,1.922,0,0,1,1.889,2.177v4.722h1.36v-4.93a2.949,2.949,0,0,0-3.025-3.233A2.831,2.831,0,0,0,162.2,110.6v-1.232h-1.377v8Zm9.6-4a4.219,4.219,0,0,0,7.747,2.257l-1.088-.752a2.833,2.833,0,0,1-5.266-1.232h6.562a3.922,3.922,0,0,0,.016-0.417,3.728,3.728,0,0,0-3.809-4.017A4.056,4.056,0,0,0,170.423,113.369Zm4.114-2.945a2.4,2.4,0,0,1,2.449,2.1h-5.074A2.616,2.616,0,0,1,174.537,110.424Zm5.982,2.945a4.005,4.005,0,0,0,3.921,4.162,3.512,3.512,0,0,0,2.818-1.392v1.232h1.376v-12h-1.376V110.6a3.512,3.512,0,0,0-2.818-1.392A4,4,0,0,0,180.519,113.369Zm6.851,0a2.734,2.734,0,1,1-2.721-2.9A2.733,2.733,0,0,1,187.37,113.369Zm11.021-7.122a0.966,0.966,0,0,0-.96-0.977,0.994,0.994,0,0,0-.992.977,0.983,0.983,0,0,0,.992.976A0.956,0.956,0,0,0,198.391,106.247Zm-1.664,11.124H198.1v-8h-1.376v8Zm4.784,0h1.376V113.4c0-1.872,1.025-2.929,2.321-2.929a1.921,1.921,0,0,1,1.889,2.177v4.722h1.36v-4.93a2.949,2.949,0,0,0-3.025-3.233,2.831,2.831,0,0,0-2.545,1.392v-1.232h-1.376v8Zm15.92,0h1.376V106.007h-2.449l-1.12,1.36h2.193v10Zm4.863,0h1.761l4.162-4.914a4.366,4.366,0,0,0,1.28-2.9,3.85,3.85,0,0,0-7.7.048,3.671,3.671,0,0,0,3.553,3.649,2.044,2.044,0,0,0,.449-0.032Zm0.913-7.779a2.441,2.441,0,1,1,2.433,2.449A2.415,2.415,0,0,1,223.207,109.592Zm8.815,7.779h1.761l4.162-4.914a4.366,4.366,0,0,0,1.28-2.9,3.85,3.85,0,0,0-7.7.048,3.671,3.671,0,0,0,3.553,3.649,2.044,2.044,0,0,0,.449-0.032Zm0.913-7.779a2.441,2.441,0,1,1,2.433,2.449A2.415,2.415,0,0,1,232.935,109.592Zm15.778,6.451h-5.666c0.272-1.313,1.6-1.969,2.913-2.93,1.857-1.344,2.625-2.3,2.625-3.969a3.228,3.228,0,0,0-3.5-3.33,3.532,3.532,0,0,0-3.746,3.586h1.409a2.194,2.194,0,0,1,2.353-2.241,1.921,1.921,0,0,1,2.08,1.969c0,1.328-.7,1.921-2.016,2.9-1.681,1.248-3.81,2.369-3.81,4.8v0.544h7.363v-1.328Zm8.046,1.328h1.376v-6.739h2.321v-1.264h-2.321V107.9a1.152,1.152,0,0,1,1.329-1.36,3.222,3.222,0,0,1,.992.16v-1.217a3.636,3.636,0,0,0-1.248-.208,2.286,2.286,0,0,0-2.449,2.481v1.617h-1.7v1.264h1.7v6.739Zm13.522-4a4.186,4.186,0,1,0-4.177,4.162A4.107,4.107,0,0,0,270.281,113.369Zm-6.962,0a2.779,2.779,0,1,1,2.785,2.882A2.751,2.751,0,0,1,263.319,113.369Zm9.727,4h1.377V113.4c0-1.872,1.1-2.753,2.113-2.753a2.011,2.011,0,0,1,.752.128v-1.424a2.851,2.851,0,0,0-.624-0.064,2.38,2.38,0,0,0-2.241,1.632v-1.552h-1.377v8Zm15.026-.112v-1.232a3.048,3.048,0,0,1-.977.16,1.153,1.153,0,0,1-1.328-1.361v-4.194h2.305v-1.264h-2.305v-2.225H284.39v2.225h-1.7v1.264h1.7V115a2.253,2.253,0,0,0,2.449,2.449A3.835,3.835,0,0,0,288.072,117.259Zm2.558,0.112h1.376V113.4c0-1.872,1.025-2.929,2.321-2.929a1.921,1.921,0,0,1,1.889,2.177v4.722h1.361v-4.93a2.949,2.949,0,0,0-3.025-3.233,2.832,2.832,0,0,0-2.546,1.392v-5.234H290.63v12Zm9.6-4a4.219,4.219,0,0,0,7.747,2.257l-1.089-.752a2.833,2.833,0,0,1-5.266-1.232h6.563a3.922,3.922,0,0,0,.016-0.417,3.729,3.729,0,0,0-3.81-4.017A4.055,4.055,0,0,0,300.23,113.369Zm4.113-2.945a2.4,2.4,0,0,1,2.449,2.1h-5.074A2.617,2.617,0,0,1,304.343,110.424Zm11.31,6.947h1.377V113.4c0-1.808.912-2.929,2.209-2.929,1.04,0,1.569.9,1.569,2.193v4.706h1.376V113.4c0-1.808.9-2.929,2.193-2.929,1.04,0,1.585.9,1.585,2.193v4.706h1.376v-4.914c0-1.953-1.056-3.249-2.8-3.249a2.77,2.77,0,0,0-2.625,1.712,2.516,2.516,0,0,0-2.465-1.712,2.691,2.691,0,0,0-2.417,1.392v-1.232h-1.377v8Zm14.336-4a4.219,4.219,0,0,0,7.747,2.257l-1.088-.752a2.833,2.833,0,0,1-5.266-1.232h6.562a3.922,3.922,0,0,0,.016-0.417,3.728,3.728,0,0,0-3.809-4.017A4.056,4.056,0,0,0,329.989,113.369Zm4.114-2.945a2.4,2.4,0,0,1,2.449,2.1h-5.074A2.616,2.616,0,0,1,334.1,110.424Zm6.606,6.947h1.377V113.4c0-1.872,1.024-2.929,2.321-2.929a1.922,1.922,0,0,1,1.889,2.177v4.722h1.36v-4.93a2.949,2.949,0,0,0-3.025-3.233,2.829,2.829,0,0,0-2.545,1.392v-1.232h-1.377v8Zm12.049-9.636a1.414,1.414,0,0,0,.224-0.72,1.193,1.193,0,1,0-2.385,0,1.24,1.24,0,0,0,.656,1.072l-1.072,2.289h0.928Zm7.473,7.411c0-1.2-.752-1.969-2.112-2.417l-0.865-.288c-0.944-.3-1.232-0.608-1.232-1.12a1.132,1.132,0,0,1,1.344-.929,2.16,2.16,0,0,1,1.7.833l0.9-.865a3.1,3.1,0,0,0-2.561-1.152c-1.584,0-2.705.88-2.705,2.177a2.417,2.417,0,0,0,1.985,2.321l0.784,0.256c1.041,0.336,1.425.72,1.425,1.28a1.218,1.218,0,0,1-1.409,1.089,2.148,2.148,0,0,1-2.048-1.265l-1.121.608a3.178,3.178,0,0,0,3.137,1.857C359.063,117.531,360.231,116.715,360.231,115.146Zm14.737,0.24-1.2-.672a2.713,2.713,0,0,1-2.5,1.537,2.883,2.883,0,0,1,0-5.763,2.713,2.713,0,0,1,2.5,1.537l1.2-.672a4.144,4.144,0,0,0-3.7-2.145,4.162,4.162,0,1,0,0,8.323A4.144,4.144,0,0,0,374.968,115.386Zm10.3-2.017a4.186,4.186,0,1,0-4.178,4.162A4.107,4.107,0,0,0,385.272,113.369Zm-6.963,0a2.779,2.779,0,1,1,2.785,2.882A2.751,2.751,0,0,1,378.309,113.369Zm9.728,4h1.376v-12h-1.376v12Zm4.784,0H394.2v-12h-1.376v12Zm4.159-4a4.219,4.219,0,0,0,7.747,2.257l-1.088-.752a2.833,2.833,0,0,1-5.266-1.232h6.562a3.922,3.922,0,0,0,.016-0.417,3.728,3.728,0,0,0-3.809-4.017A4.056,4.056,0,0,0,396.98,113.369Zm4.114-2.945a2.4,2.4,0,0,1,2.449,2.1h-5.074A2.616,2.616,0,0,1,401.094,110.424Zm13.873,4.962-1.2-.672a2.714,2.714,0,0,1-2.5,1.537,2.883,2.883,0,0,1,0-5.763,2.714,2.714,0,0,1,2.5,1.537l1.2-.672a4.143,4.143,0,0,0-3.7-2.145,4.162,4.162,0,1,0,0,8.323A4.143,4.143,0,0,0,414.967,115.386Zm6.911,1.873v-1.232a3.043,3.043,0,0,1-.977.16,1.153,1.153,0,0,1-1.328-1.361v-4.194h2.305v-1.264h-2.305v-2.225H418.2v2.225h-1.7v1.264h1.7V115a2.253,2.253,0,0,0,2.449,2.449A3.83,3.83,0,0,0,421.878,117.259Zm4.223-11.012a0.967,0.967,0,0,0-.961-0.977,0.994,0.994,0,0,0-.992.977,0.983,0.983,0,0,0,.992.976A0.957,0.957,0,0,0,426.1,106.247Zm-1.665,11.124h1.377v-8h-1.377v8Zm12.515-4a4.186,4.186,0,1,0-4.178,4.162A4.107,4.107,0,0,0,436.951,113.369Zm-6.963,0a2.779,2.779,0,1,1,2.785,2.882A2.751,2.751,0,0,1,429.988,113.369Zm9.728,4h1.376V113.4c0-1.872,1.025-2.929,2.321-2.929a1.921,1.921,0,0,1,1.889,2.177v4.722h1.361v-4.93a2.95,2.95,0,0,0-3.026-3.233,2.831,2.831,0,0,0-2.545,1.392v-1.232h-1.376v8Zm12.128-1.072a1.185,1.185,0,1,0-1.184,1.2A1.206,1.206,0,0,0,451.844,116.3Zm9.617,1.072h1.456v-9.956h3.538v-1.408h-8.532v1.408h3.538v9.956Zm7.246,0h1.377V113.4c0-1.872,1.024-2.929,2.321-2.929a1.922,1.922,0,0,1,1.889,2.177v4.722h1.36v-4.93a2.949,2.949,0,0,0-3.025-3.233,2.831,2.831,0,0,0-2.545,1.392v-5.234h-1.377v12ZM480.6,106.247a0.966,0.966,0,0,0-.96-0.977,0.994,0.994,0,0,0-.993.977,0.984,0.984,0,0,0,.993.976A0.956,0.956,0,0,0,480.6,106.247Zm-1.665,11.124h1.377v-8h-1.377v8Zm9.97-2.225c0-1.2-.752-1.969-2.113-2.417l-0.864-.288c-0.944-.3-1.232-0.608-1.232-1.12a1.132,1.132,0,0,1,1.344-.929,2.161,2.161,0,0,1,1.7.833l0.9-.865a3.1,3.1,0,0,0-2.561-1.152c-1.585,0-2.7.88-2.7,2.177a2.416,2.416,0,0,0,1.985,2.321l0.784,0.256c1.041,0.336,1.425.72,1.425,1.28a1.219,1.219,0,0,1-1.409,1.089,2.149,2.149,0,0,1-2.049-1.265l-1.12.608a3.178,3.178,0,0,0,3.137,1.857C487.733,117.531,488.9,116.715,488.9,115.146Zm7.47,2.225h1.376V113.4c0-1.872,1.025-2.929,2.321-2.929a1.921,1.921,0,0,1,1.889,2.177v4.722h1.361v-4.93a2.95,2.95,0,0,0-3.026-3.233,2.832,2.832,0,0,0-2.545,1.392v-1.232h-1.376v8Zm9.6-4a4.22,4.22,0,0,0,7.748,2.257l-1.089-.752a2.833,2.833,0,0,1-5.266-1.232h6.563a3.922,3.922,0,0,0,.016-0.417,3.729,3.729,0,0,0-3.81-4.017A4.056,4.056,0,0,0,505.97,113.369Zm4.114-2.945a2.4,2.4,0,0,1,2.449,2.1h-5.074A2.617,2.617,0,0,1,510.084,110.424Zm13.377,6.947h1.217l2.721-8h-1.457l-1.936,5.842-2-5.842h-1.057l-2,5.842-1.937-5.842H515.57l2.721,8h1.217l1.985-5.762Zm12.3-11.124a0.966,0.966,0,0,0-.96-0.977,1,1,0,0,0-.993.977,0.984,0.984,0,0,0,.993.976A0.956,0.956,0,0,0,535.763,106.247ZM534.1,117.371h1.377v-8H534.1v8Zm9.122-.112v-1.232a3.041,3.041,0,0,1-.976.16,1.153,1.153,0,0,1-1.329-1.361v-4.194h2.305v-1.264h-2.305v-2.225h-1.376v2.225h-1.7v1.264h1.7V115a2.252,2.252,0,0,0,2.449,2.449A3.828,3.828,0,0,0,543.22,117.259Zm1.822-3.89a4.219,4.219,0,0,0,7.747,2.257l-1.088-.752a2.833,2.833,0,0,1-5.266-1.232H553a3.922,3.922,0,0,0,.016-0.417,3.728,3.728,0,0,0-3.809-4.017A4.056,4.056,0,0,0,545.042,113.369Zm4.114-2.945a2.4,2.4,0,0,1,2.449,2.1h-5.074A2.616,2.616,0,0,1,549.156,110.424Zm6.606,6.947h1.377V113.4c0-1.872,1.1-2.753,2.113-2.753a2.011,2.011,0,0,1,.752.128v-1.424a2.851,2.851,0,0,0-.624-0.064,2.38,2.38,0,0,0-2.241,1.632v-1.552h-1.377v8Zm5.76-4a4.005,4.005,0,0,0,3.922,4.162,3.51,3.51,0,0,0,2.817-1.392v1.232h1.376v-8h-1.376V110.6a3.51,3.51,0,0,0-2.817-1.392A4.005,4.005,0,0,0,561.522,113.369Zm6.851,0a2.734,2.734,0,1,1-2.721-2.9A2.733,2.733,0,0,1,568.373,113.369Zm8.991,3.89v-1.232a3.041,3.041,0,0,1-.976.16,1.153,1.153,0,0,1-1.329-1.361v-4.194h2.305v-1.264h-2.305v-2.225h-1.377v2.225h-1.7v1.264h1.7V115a2.253,2.253,0,0,0,2.449,2.449A3.83,3.83,0,0,0,577.364,117.259Zm4.223-11.012a0.967,0.967,0,0,0-.961-0.977,0.994,0.994,0,0,0-.992.977,0.983,0.983,0,0,0,.992.976A0.957,0.957,0,0,0,581.587,106.247Zm-1.665,11.124H581.3v-8h-1.377v8Zm12.515-4a4.186,4.186,0,1,0-4.178,4.162A4.107,4.107,0,0,0,592.437,113.369Zm-6.963,0a2.779,2.779,0,1,1,2.785,2.882A2.751,2.751,0,0,1,585.474,113.369Zm9.728,4h1.376V113.4c0-1.872,1.025-2.929,2.321-2.929a1.921,1.921,0,0,1,1.889,2.177v4.722h1.361v-4.93a2.95,2.95,0,0,0-3.026-3.233,2.832,2.832,0,0,0-2.545,1.392v-1.232H595.2v8Zm16.592-11.124a0.966,0.966,0,0,0-.96-0.977,1,1,0,0,0-.993.977,0.984,0.984,0,0,0,.993.976A0.956,0.956,0,0,0,611.794,106.247Zm-1.665,11.124h1.377v-8h-1.377v8Zm9.97-2.225c0-1.2-.752-1.969-2.112-2.417l-0.865-.288c-0.944-.3-1.232-0.608-1.232-1.12a1.132,1.132,0,0,1,1.344-.929,2.16,2.16,0,0,1,1.7.833l0.9-.865a3.1,3.1,0,0,0-2.561-1.152c-1.584,0-2.7.88-2.7,2.177a2.416,2.416,0,0,0,1.985,2.321l0.784,0.256c1.041,0.336,1.425.72,1.425,1.28a1.218,1.218,0,0,1-1.409,1.089,2.15,2.15,0,0,1-2.049-1.265l-1.12.608a3.178,3.178,0,0,0,3.137,1.857C618.931,117.531,620.1,116.715,620.1,115.146ZM30.633,137.371H32.01V133.4c0-1.808.912-2.929,2.209-2.929,1.04,0,1.569.9,1.569,2.193v4.706h1.377V133.4c0-1.808.9-2.929,2.193-2.929,1.04,0,1.585.9,1.585,2.193v4.706h1.377v-4.914c0-1.953-1.056-3.249-2.8-3.249a2.77,2.77,0,0,0-2.625,1.712,2.516,2.516,0,0,0-2.465-1.712A2.69,2.69,0,0,0,32.01,130.6v-1.232H30.633v8Zm14.336-4a4.005,4.005,0,0,0,3.922,4.162,3.51,3.51,0,0,0,2.817-1.392v1.232h1.377v-8H51.707V130.6a3.51,3.51,0,0,0-2.817-1.392A4,4,0,0,0,44.969,133.369Zm6.851,0a2.734,2.734,0,1,1-2.721-2.9A2.733,2.733,0,0,1,51.82,133.369Zm4.029,0a4.005,4.005,0,0,0,3.922,4.162,3.51,3.51,0,0,0,2.817-1.392v1.232h1.377V125.366H62.587V130.6a3.51,3.51,0,0,0-2.817-1.392A4,4,0,0,0,55.849,133.369Zm6.851,0a2.734,2.734,0,1,1-2.721-2.9A2.733,2.733,0,0,1,62.7,133.369Zm4.029,0a4.219,4.219,0,0,0,7.747,2.257l-1.088-.752a2.833,2.833,0,0,1-5.266-1.232h6.563a3.922,3.922,0,0,0,.016-0.417,3.729,3.729,0,0,0-3.81-4.017A4.056,4.056,0,0,0,66.728,133.369Zm4.114-2.945a2.4,2.4,0,0,1,2.449,2.1H68.217A2.617,2.617,0,0,1,70.842,130.424Zm11.775,6.947h1.377v-6.739h2.321v-1.264H83.993V127.9a1.152,1.152,0,0,1,1.329-1.36,3.224,3.224,0,0,1,.992.16v-1.217a3.639,3.639,0,0,0-1.249-.208,2.286,2.286,0,0,0-2.449,2.481v1.617h-1.7v1.264h1.7v6.739Zm13.523-4a4.186,4.186,0,1,0-4.178,4.162A4.107,4.107,0,0,0,96.14,133.369Zm-6.963,0a2.779,2.779,0,1,1,2.785,2.882A2.751,2.751,0,0,1,89.177,133.369Zm9.727,4h1.377V133.4c0-1.872,1.1-2.753,2.113-2.753a2.011,2.011,0,0,1,.752.128v-1.424a2.851,2.851,0,0,0-.624-0.064,2.381,2.381,0,0,0-2.241,1.632v-1.552H98.9v8Zm17.459,0h1.217l2.721-8h-1.457l-1.937,5.842-2-5.842H113.85l-2,5.842-1.936-5.842h-1.441l2.721,8h1.217l1.984-5.762Zm13.92-4a4.186,4.186,0,1,0-4.177,4.162A4.107,4.107,0,0,0,130.283,133.369Zm-6.962,0a2.779,2.779,0,1,1,2.785,2.882A2.751,2.751,0,0,1,123.321,133.369Zm9.727,4h1.377V133.4c0-1.808.912-2.929,2.208-2.929,1.041,0,1.569.9,1.569,2.193v4.706h1.377V133.4c0-1.808.9-2.929,2.193-2.929,1.04,0,1.584.9,1.584,2.193v4.706h1.377v-4.914c0-1.953-1.057-3.249-2.8-3.249a2.769,2.769,0,0,0-2.625,1.712,2.517,2.517,0,0,0-2.465-1.712,2.689,2.689,0,0,0-2.417,1.392v-1.232h-1.377v8Zm14.336-4a4.219,4.219,0,0,0,7.747,2.257l-1.089-.752a2.833,2.833,0,0,1-5.266-1.232h6.563a3.922,3.922,0,0,0,.016-0.417,3.729,3.729,0,0,0-3.81-4.017A4.055,4.055,0,0,0,147.384,133.369Zm4.113-2.945a2.4,2.4,0,0,1,2.449,2.1h-5.074A2.617,2.617,0,0,1,151.5,130.424Zm6.607,6.947h1.376V133.4c0-1.872,1.025-2.929,2.321-2.929a1.921,1.921,0,0,1,1.889,2.177v4.722h1.361v-4.93a2.95,2.95,0,0,0-3.026-3.233,2.832,2.832,0,0,0-2.545,1.392v-1.232H158.1v8Zm14.3-4a4.005,4.005,0,0,0,3.922,4.162,3.51,3.51,0,0,0,2.817-1.392v1.232h1.376v-8h-1.376V130.6a3.51,3.51,0,0,0-2.817-1.392A4.005,4.005,0,0,0,172.407,133.369Zm6.851,0a2.734,2.734,0,1,1-2.721-2.9A2.733,2.733,0,0,1,179.258,133.369Zm4.653,4h1.377V133.4c0-1.872,1.024-2.929,2.321-2.929a1.922,1.922,0,0,1,1.889,2.177v4.722h1.36v-4.93a2.949,2.949,0,0,0-3.025-3.233,2.829,2.829,0,0,0-2.545,1.392v-1.232h-1.377v8Zm9.6-4a4.005,4.005,0,0,0,3.921,4.162,3.512,3.512,0,0,0,2.818-1.392v1.232h1.376V125.366H200.25V130.6a3.512,3.512,0,0,0-2.818-1.392A4,4,0,0,0,193.511,133.369Zm6.851,0a2.734,2.734,0,1,1-2.721-2.9A2.733,2.733,0,0,1,200.362,133.369Zm16.624,2.017-1.2-.672a2.713,2.713,0,0,1-2.5,1.537,2.883,2.883,0,0,1,0-5.763,2.713,2.713,0,0,1,2.5,1.537l1.2-.672a4.145,4.145,0,0,0-3.7-2.145,4.162,4.162,0,1,0,0,8.323A4.145,4.145,0,0,0,216.986,135.386Zm2.573,1.985h1.376V133.4c0-1.872,1.1-2.753,2.113-2.753a2.011,2.011,0,0,1,.752.128v-1.424a2.851,2.851,0,0,0-.624-0.064,2.381,2.381,0,0,0-2.241,1.632v-1.552h-1.376v8Zm5.759-4a4.005,4.005,0,0,0,3.922,4.162,3.51,3.51,0,0,0,2.817-1.392v1.232h1.377v-8h-1.377V130.6a3.51,3.51,0,0,0-2.817-1.392A4.005,4.005,0,0,0,225.318,133.369Zm6.851,0a2.734,2.734,0,1,1-2.721-2.9A2.733,2.733,0,0,1,232.169,133.369Zm5.326,4h1.376v-6.739h2.113v-1.264h-2.113V127.9a1.152,1.152,0,0,1,1.329-1.36,3.222,3.222,0,0,1,.992.16v-1.217a3.636,3.636,0,0,0-1.248-.208,2.253,2.253,0,0,0-2.449,2.449v1.649h-1.7v1.264h1.7v6.739Zm9.588-.112v-1.232a3.155,3.155,0,0,1-.993.16,1.153,1.153,0,0,1-1.328-1.361v-4.194h2.321v-1.264h-2.321v-2.225h-1.377v2.225h-1.5v1.264h1.5V135a2.264,2.264,0,0,0,2.465,2.449A3.994,3.994,0,0,0,247.083,137.259Zm1.819-3.89a4.219,4.219,0,0,0,7.747,2.257l-1.088-.752a2.833,2.833,0,0,1-5.266-1.232h6.562a3.922,3.922,0,0,0,.016-0.417,3.728,3.728,0,0,0-3.809-4.017A4.056,4.056,0,0,0,248.9,133.369Zm4.114-2.945a2.4,2.4,0,0,1,2.449,2.1h-5.074A2.616,2.616,0,0,1,253.016,130.424ZM259,133.369a4.005,4.005,0,0,0,3.922,4.162,3.51,3.51,0,0,0,2.817-1.392v1.232h1.376V125.366h-1.376V130.6a3.51,3.51,0,0,0-2.817-1.392A4.005,4.005,0,0,0,259,133.369Zm6.851,0a2.734,2.734,0,1,1-2.721-2.9A2.733,2.733,0,0,1,265.849,133.369Zm9.821,4h1.377v-6.739h2.321v-1.264h-2.321V127.9a1.152,1.152,0,0,1,1.329-1.36,3.222,3.222,0,0,1,.992.16v-1.217a3.638,3.638,0,0,0-1.249-.208,2.286,2.286,0,0,0-2.449,2.481v1.617h-1.7v1.264h1.7v6.739Zm6,0h1.377V133.4c0-1.872,1.1-2.753,2.112-2.753a2.013,2.013,0,0,1,.753.128v-1.424a2.851,2.851,0,0,0-.624-0.064,2.38,2.38,0,0,0-2.241,1.632v-1.552H281.67v8Zm14.1-4a4.186,4.186,0,1,0-4.177,4.162A4.107,4.107,0,0,0,295.769,133.369Zm-6.963,0a2.779,2.779,0,1,1,2.786,2.882A2.752,2.752,0,0,1,288.806,133.369Zm9.728,4h1.377V133.4c0-1.808.912-2.929,2.208-2.929,1.041,0,1.569.9,1.569,2.193v4.706h1.377V133.4c0-1.808.9-2.929,2.192-2.929,1.041,0,1.585.9,1.585,2.193v4.706h1.377v-4.914c0-1.953-1.057-3.249-2.8-3.249a2.769,2.769,0,0,0-2.625,1.712,2.517,2.517,0,0,0-2.465-1.712,2.689,2.689,0,0,0-2.417,1.392v-1.232h-1.377v8Zm26.163,0h1.216l2.721-8h-1.456l-1.937,5.842-2-5.842h-1.056l-2,5.842-1.937-5.842h-1.441l2.721,8h1.217l1.985-5.762Zm5.564-4a4.005,4.005,0,0,0,3.922,4.162A3.51,3.51,0,0,0,337,136.139v1.232h1.377v-8H337V130.6a3.51,3.51,0,0,0-2.817-1.392A4.005,4.005,0,0,0,330.261,133.369Zm6.851,0a2.734,2.734,0,1,1-2.721-2.9A2.733,2.733,0,0,1,337.112,133.369Zm9.84,1.777c0-1.2-.753-1.969-2.113-2.417l-0.865-.288c-0.944-.3-1.232-0.608-1.232-1.12a1.132,1.132,0,0,1,1.344-.929,2.16,2.16,0,0,1,1.7.833l0.9-.865a3.1,3.1,0,0,0-2.561-1.152c-1.584,0-2.7.88-2.7,2.177a2.417,2.417,0,0,0,1.985,2.321l0.784,0.256c1.041,0.336,1.425.72,1.425,1.28a1.218,1.218,0,0,1-1.409,1.089,2.148,2.148,0,0,1-2.048-1.265l-1.121.608a3.178,3.178,0,0,0,3.137,1.857C345.783,137.531,346.952,136.715,346.952,135.146Zm2.765,2.225h1.377V133.4c0-1.872,1.024-2.929,2.321-2.929a1.922,1.922,0,0,1,1.889,2.177v4.722h1.36v-4.93a2.949,2.949,0,0,0-3.025-3.233,2.829,2.829,0,0,0-2.545,1.392v-5.234h-1.377v12.005Zm9.6-4a4.005,4.005,0,0,0,3.921,4.162,3.512,3.512,0,0,0,2.818-1.392v1.232h1.376v-8h-1.376V130.6a3.512,3.512,0,0,0-2.818-1.392A4,4,0,0,0,359.317,133.369Zm6.851,0a2.734,2.734,0,1,1-2.721-2.9A2.733,2.733,0,0,1,366.168,133.369Zm6.03,2.77a3.509,3.509,0,0,0,2.817,1.392,4.169,4.169,0,0,0,0-8.323A3.509,3.509,0,0,0,372.2,130.6v-5.234h-1.377v12.005H372.2v-1.232Zm5.33-2.77a2.727,2.727,0,1,1-2.721-2.9A2.733,2.733,0,0,1,377.528,133.369Zm4.173,4h1.376V125.366H381.7v12.005Zm4.159-4a4.22,4.22,0,0,0,7.748,2.257l-1.089-.752a2.833,2.833,0,0,1-5.266-1.232h6.563a3.922,3.922,0,0,0,.016-0.417,3.729,3.729,0,0,0-3.81-4.017A4.056,4.056,0,0,0,385.86,133.369Zm4.114-2.945a2.4,2.4,0,0,1,2.449,2.1h-5.074A2.617,2.617,0,0,1,389.974,130.424Zm17.809,6.947H409l2.721-8h-1.457l-1.936,5.842-2-5.842H405.27l-2,5.842-1.936-5.842h-1.441l2.721,8h1.217l1.985-5.762Zm13.92-4a4.186,4.186,0,1,0-4.177,4.162A4.107,4.107,0,0,0,421.7,133.369Zm-6.962,0a2.779,2.779,0,1,1,2.785,2.882A2.751,2.751,0,0,1,414.741,133.369Zm17.458,0a4.186,4.186,0,1,0-4.177,4.162A4.107,4.107,0,0,0,432.2,133.369Zm-6.963,0a2.779,2.779,0,1,1,2.786,2.882A2.752,2.752,0,0,1,425.236,133.369Zm9.728,4h1.376V125.366h-1.376v12.005Zm4.528-3.793h4.081V132.2h-4.081v1.377Zm14.5,1.808-1.2-.672a2.713,2.713,0,0,1-2.5,1.537,2.883,2.883,0,0,1,0-5.763,2.713,2.713,0,0,1,2.5,1.537l1.2-.672a4.145,4.145,0,0,0-3.7-2.145,4.162,4.162,0,1,0,0,8.323A4.145,4.145,0,0,0,453.991,135.386Zm1.948-2.017a4.005,4.005,0,0,0,3.922,4.162,3.51,3.51,0,0,0,2.817-1.392v1.232h1.376v-8h-1.376V130.6a3.51,3.51,0,0,0-2.817-1.392A4.005,4.005,0,0,0,455.939,133.369Zm6.851,0a2.734,2.734,0,1,1-2.721-2.9A2.733,2.733,0,0,1,462.79,133.369Zm9.839,1.777c0-1.2-.752-1.969-2.113-2.417l-0.864-.288c-0.944-.3-1.232-0.608-1.232-1.12a1.132,1.132,0,0,1,1.344-.929,2.161,2.161,0,0,1,1.7.833l0.9-.865a3.1,3.1,0,0,0-2.561-1.152c-1.584,0-2.7.88-2.7,2.177a2.416,2.416,0,0,0,1.985,2.321l0.784,0.256c1.041,0.336,1.425.72,1.425,1.28a1.218,1.218,0,0,1-1.409,1.089,2.149,2.149,0,0,1-2.049-1.265l-1.12.608a3.178,3.178,0,0,0,3.137,1.857C471.461,137.531,472.629,136.715,472.629,135.146Zm2.766,2.225h1.377V133.4c0-1.872,1.024-2.929,2.321-2.929a1.921,1.921,0,0,1,1.888,2.177v4.722h1.361v-4.93a2.949,2.949,0,0,0-3.025-3.233,2.829,2.829,0,0,0-2.545,1.392v-5.234H475.4v12.005Zm10.224,0H487V133.4c0-1.808.913-2.929,2.209-2.929,1.041,0,1.569.9,1.569,2.193v4.706h1.377V133.4c0-1.808.9-2.929,2.192-2.929,1.041,0,1.585.9,1.585,2.193v4.706H497.3v-4.914c0-1.953-1.057-3.249-2.8-3.249a2.771,2.771,0,0,0-2.625,1.712,2.515,2.515,0,0,0-2.465-1.712A2.692,2.692,0,0,0,487,130.6v-1.232h-1.376v8Zm14.336-4a4.219,4.219,0,0,0,7.747,2.257l-1.089-.752a2.833,2.833,0,0,1-5.266-1.232h6.563a3.922,3.922,0,0,0,.016-0.417,3.729,3.729,0,0,0-3.81-4.017A4.055,4.055,0,0,0,499.955,133.369Zm4.113-2.945a2.4,2.4,0,0,1,2.449,2.1h-5.074A2.617,2.617,0,0,1,504.068,130.424Zm6.607,6.947h1.376V133.4c0-1.872,1.1-2.753,2.113-2.753a2.011,2.011,0,0,1,.752.128v-1.424a2.851,2.851,0,0,0-.624-0.064,2.381,2.381,0,0,0-2.241,1.632v-1.552h-1.376v8Zm5.744-4a4.219,4.219,0,0,0,7.747,2.257l-1.089-.752a2.833,2.833,0,0,1-5.266-1.232h6.563a3.922,3.922,0,0,0,.016-0.417,3.729,3.729,0,0,0-3.81-4.017A4.055,4.055,0,0,0,516.419,133.369Zm4.113-2.945a2.4,2.4,0,0,1,2.449,2.1h-5.074A2.617,2.617,0,0,1,520.532,130.424Zm8.511,5.875a1.184,1.184,0,1,0-1.184,1.2A1.206,1.206,0,0,0,529.043,136.3Z"/>
  <rect id="Rectangle_4_copy_4" data-name="Rectangle 4 copy 4" x="29" y="192.938" width="102" height="3.062"/>
  <path id="Shop_now" data-name="Shop now" class="cls-2" d="M33.347,187.177c2.255,0,3.8-1.378,3.818-3.352a3.346,3.346,0,0,0-2.54-3.245l-0.752-.276c-1.127-.413-1.653-0.673-1.653-1.255a1.1,1.1,0,0,1,1.293-.827,2.356,2.356,0,0,1,1.849.9l1.563-1.684a4.414,4.414,0,0,0-3.442-1.5c-2.135,0-3.683,1.24-3.683,3.352,0,1.485.962,2.541,2.691,3.138l0.752,0.26c1.067,0.367,1.488.75,1.488,1.3a1.086,1.086,0,0,1-1.293.9,2.779,2.779,0,0,1-2.21-1.24l-1.834,1.577A4.653,4.653,0,0,0,33.347,187.177Zm8.1-.184h2.39v-4.3h4.3v4.3h2.39V176.125h-2.39v4.256h-4.3v-4.256h-2.39v10.868Zm18.883,0.184a5.618,5.618,0,1,0-5.517-5.618A5.582,5.582,0,0,0,60.335,187.177Zm0-2.357a3.265,3.265,0,1,1,3.1-3.261A3.2,3.2,0,0,1,60.335,184.82Zm17.185-4.975a3.667,3.667,0,0,0-3.758-3.72H70.139v10.868h2.39v-3.444h1.233A3.654,3.654,0,0,0,77.52,179.845Zm-2.315,0a1.416,1.416,0,0,1-1.473,1.423h-1.2v-2.847h1.2A1.408,1.408,0,0,1,75.2,179.845Zm21.649,7.148V176.125H94.449v6.705l-5.186-6.705H87.2v10.868h2.39v-6.719l5.2,6.719h2.059Zm9.8,0.184a5.618,5.618,0,1,0-5.516-5.618A5.581,5.581,0,0,0,106.658,187.177Zm0-2.357a3.265,3.265,0,1,1,3.1-3.261A3.2,3.2,0,0,1,106.658,184.82Zm18.072,2.173H127l2.48-10.868h-2.556l-1.458,6.888-3.006-7.071-2.991,7.071-1.458-6.888h-2.556l2.465,10.868h2.27l2.27-5.327Z"/>
</svg>
