<svg id="Copy_copy_10" data-name="Copy copy 10" xmlns="http://www.w3.org/2000/svg" width="720" height="739"><defs><style>.cls-2{fill-rule:evenodd}</style></defs><path id="Rectangle_105_copy_5" data-name="Rectangle 105 copy 5" fill="#fff" fill-opacity="0" d="M0 0h720v739H0z"/><path id="WASHABLE_WOOL-CASHMERE_SWEATER_Knit_b._1992_Originally_design" data-name="WASHABLE WOOL-CASHMERE SWEATER Knit, b. 1992 Originally design" class="cls-2" d="M47.088 49.371h4.228l4.62-19.88h-4.76l-2.716 12.6-5.6-12.936-5.571 12.936-2.716-12.6h-4.76l4.587 19.88h4.228l4.228-9.744zm9.464 0H61.2l1.764-4.2H71.2l1.764 4.2h4.648L69.1 29.491h-4.035zm8.036-8.064l2.492-5.992 2.492 5.992h-4.983zm21.9 8.4c4.2 0 7.084-2.52 7.112-6.132.028-3-1.848-4.9-4.732-5.936l-1.4-.5c-2.1-.756-3.08-1.232-3.08-2.3 0-1.036 1.2-1.512 2.408-1.512a4.422 4.422 0 0 1 3.444 1.652l2.912-3.08a8.3 8.3 0 0 0-6.412-2.744c-3.976 0-6.86 2.268-6.86 6.132 0 2.716 1.792 4.648 5.012 5.74l1.4.476c1.988.672 2.772 1.372 2.772 2.38 0 .952-.924 1.652-2.408 1.652a5.2 5.2 0 0 1-4.116-2.268l-3.416 2.884a8.717 8.717 0 0 0 7.361 3.556zm11.592-.336h4.452V41.5h8.008v7.868h4.452V29.491h-4.452v7.784h-8.008v-7.784h-4.456v19.88zm20.384 0h4.648l1.764-4.2h8.224l1.764 4.2h4.648L131 29.491h-4.032zm8.036-8.064l2.492-5.992 2.492 5.992H126.5zm16.492 8.064h8.736a5.877 5.877 0 0 0 6.048-5.852 5.2 5.2 0 0 0-2.828-4.7 4.679 4.679 0 0 0 1.428-3.416 5.909 5.909 0 0 0-5.908-5.908h-7.476v19.88zm4.452-11.844v-3.976h2.52a2.021 2.021 0 0 1 2.072 2.016 1.993 1.993 0 0 1-2.072 1.96h-2.52zm0 7.756v-3.976h3.892a2.022 2.022 0 0 1 2.1 1.988 2 2 0 0 1-2.072 1.988h-3.92zm14.728 4.088h12.684v-4.256h-8.236V29.491h-4.452v19.88zm16.856 0h12.6v-4.256h-8.148v-3.556h6.468V37.3h-6.468v-3.553h8.148v-4.256h-12.6v19.88zm40.1 0h4.228l4.62-19.88h-4.76l-2.716 12.6-5.6-12.936-5.58 12.936-2.716-12.6h-4.76l4.592 19.88h4.228l4.228-9.744zm21.7.336a10.276 10.276 0 1 0-10.276-10.276 10.3 10.3 0 0 0 10.268 10.276zm0-4.312a5.967 5.967 0 1 1 5.768-5.964 5.9 5.9 0 0 1-5.776 5.969zm23.911 4.312a10.276 10.276 0 1 0-10.276-10.276 10.3 10.3 0 0 0 10.268 10.276zm0-4.312a5.967 5.967 0 1 1 5.768-5.964 5.9 5.9 0 0 1-5.776 5.969zm14.756 3.976h12.684v-4.256h-8.232V29.491h-4.452v19.88zm13.832-7.924h8.232v-4.032h-8.232v4.032zm22.511 8.26a10.276 10.276 0 0 0 9.3-5.432l-3.92-2.128a5.964 5.964 0 1 1 0-5.432l3.92-2.128a10.364 10.364 0 1 0-9.308 15.12zm10.7-.336h4.648l1.763-4.2h8.232l1.764 4.2h4.648l-8.512-19.88h-4.032zm8.035-8.064l2.492-5.992 2.492 5.992h-4.984zm21.9 8.4c4.2 0 7.084-2.52 7.112-6.132.028-3-1.848-4.9-4.732-5.936l-1.4-.5c-2.1-.756-3.08-1.232-3.08-2.3 0-1.036 1.2-1.512 2.408-1.512a4.422 4.422 0 0 1 3.444 1.652l2.912-3.08a8.3 8.3 0 0 0-6.412-2.744c-3.976 0-6.86 2.268-6.86 6.132 0 2.716 1.792 4.648 5.012 5.74l1.4.476c1.988.672 2.772 1.372 2.772 2.38 0 .952-.924 1.652-2.408 1.652a5.2 5.2 0 0 1-4.116-2.268l-3.425 2.884a8.717 8.717 0 0 0 7.359 3.556zm11.591-.336h4.436V41.5h8.008v7.868h4.452V29.491h-4.45v7.784h-8.01v-7.784h-4.45v19.88zm32.788-4.228l5.8-8.036v12.264h4.48v-19.88h-4.06l-6.216 8.568-6.216-8.568h-4.06v19.88h4.452V37.107zm15.876 4.228h12.6v-4.256h-8.148v-3.556h6.468V37.3h-6.468v-3.553h8.148v-4.256h-12.6v19.88zm17.388 0h4.452v-8.2h.728l6.608 8.2h5.348l-7.028-8.764c2.52-.9 3.892-2.548 3.892-5.124a5.869 5.869 0 0 0-6.16-5.992H434.1v19.88zm4.452-11.984v-3.808h2.856a1.981 1.981 0 0 1 2.268 1.9 2.012 2.012 0 0 1-2.268 1.9h-2.856zm15.483 11.984h12.6v-4.256h-8.148v-3.556h6.468V37.3h-6.468v-3.553h8.148v-4.256h-12.6v19.88zm30.884.336c4.2 0 7.084-2.52 7.112-6.132.028-3-1.848-4.9-4.732-5.936l-1.4-.5c-2.1-.756-3.08-1.232-3.08-2.3 0-1.036 1.2-1.512 2.408-1.512a4.422 4.422 0 0 1 3.444 1.652l2.912-3.08a8.3 8.3 0 0 0-6.412-2.744c-3.976 0-6.86 2.268-6.86 6.132 0 2.716 1.792 4.648 5.012 5.74l1.4.476c1.988.672 2.772 1.372 2.772 2.38 0 .952-.924 1.652-2.408 1.652a5.2 5.2 0 0 1-4.116-2.268l-3.416 2.884a8.717 8.717 0 0 0 7.35 3.556zm26.936-.336h4.228l4.62-19.88h-4.76l-2.716 12.6-5.6-12.936-5.572 12.936-2.716-12.6h-4.76l4.592 19.88h4.213l4.228-9.744zm12.768 0h12.6v-4.256h-8.148v-3.556h6.468V37.3h-6.468v-3.553h8.148v-4.256h-12.6v19.88zm15.26 0h4.648l1.764-4.2h8.232l1.764 4.2h4.648l-8.512-19.88H548.4zm8.036-8.064l2.492-5.992 2.492 5.992h-4.984zm18.088 8.064h4.48V33.747h5.124v-4.256h-14.686v4.256h5.068v15.624zm13.72 0h12.6v-4.256h-8.148v-3.556h6.468V37.3h-6.468v-3.553h8.148v-4.256h-12.6v19.88zm17.388 0h4.452v-8.2h.717l6.608 8.2h5.348l-7.028-8.764c2.52-.9 3.892-2.548 3.892-5.124a5.869 5.869 0 0 0-6.16-5.992h-7.84v19.88zm4.452-11.984v-3.808h2.856a1.981 1.981 0 0 1 2.268 1.9 2.012 2.012 0 0 1-2.268 1.9h-2.856zM31.029 77.371h1.656v-6.086l6.788 6.086h2.359l-7.454-6.7 6.068-6.086h-2.179l-5.582 5.546v-5.544h-1.656v12.784zm12.744 0h1.548v-4.465c0-2.107 1.152-3.3 2.611-3.3a2.161 2.161 0 0 1 2.125 2.449v5.312h1.53v-5.542a3.318 3.318 0 0 0-3.4-3.637 3.184 3.184 0 0 0-2.863 1.566v-1.386h-1.551v9zm13.374-12.514a1.087 1.087 0 0 0-1.08-1.1 1.118 1.118 0 0 0-1.116 1.1 1.107 1.107 0 0 0 1.116 1.1 1.076 1.076 0 0 0 1.08-1.1zm-1.872 12.514h1.548v-9h-1.548v9zm10.261-.126v-1.386a3.421 3.421 0 0 1-1.1.18 1.3 1.3 0 0 1-1.495-1.531v-4.717h2.593v-1.423h-2.591v-2.5h-1.548v2.5h-1.909v1.422h1.909v4.915a2.534 2.534 0 0 0 2.755 2.755 4.31 4.31 0 0 0 1.386-.215zm4.805-.27a1.54 1.54 0 0 0 .252-.81 1.333 1.333 0 1 0-2.665 0 1.34 1.34 0 0 0 .738 1.206l-1.206 2.575h1.026zm10.422-.99a3.948 3.948 0 0 0 3.169 1.566 4.69 4.69 0 0 0 0-9.363 3.948 3.948 0 0 0-3.169 1.566v-5.887h-1.549v13.5h1.549v-1.382zm6-3.115a3.067 3.067 0 1 1-3.063-3.259 3.074 3.074 0 0 1 3.058 3.259zm6.658 3.295a1.333 1.333 0 1 0-1.332 1.35 1.357 1.357 0 0 0 1.328-1.35zm9.7 1.206h1.549V64.587h-2.755l-1.261 1.53h2.467v11.254zm5.472 0h1.98l4.682-5.528a4.911 4.911 0 0 0 1.44-3.259 4.331 4.331 0 0 0-8.66.054 4.13 4.13 0 0 0 4 4.105 2.294 2.294 0 0 0 .5-.036zm1.026-8.751a2.746 2.746 0 1 1 2.737 2.755 2.717 2.717 0 0 1-2.74-2.754zm9.918 8.751h1.98l4.682-5.528a4.911 4.911 0 0 0 1.44-3.259 4.331 4.331 0 0 0-8.66.054 4.13 4.13 0 0 0 4 4.105 2.294 2.294 0 0 0 .5-.036zm1.026-8.751a2.746 2.746 0 1 1 2.737 2.755 2.717 2.717 0 0 1-2.74-2.754zm17.75 7.256h-6.374c.306-1.476 1.8-2.215 3.277-3.295 2.089-1.513 2.953-2.593 2.953-4.465a3.631 3.631 0 0 0-3.943-3.745 3.972 3.972 0 0 0-4.216 4.029h1.584a2.469 2.469 0 0 1 2.647-2.521 2.161 2.161 0 0 1 2.34 2.215c0 1.495-.792 2.161-2.268 3.259-1.891 1.4-4.285 2.665-4.285 5.4v.612h8.282v-1.488zm-96.5 35.812a5.874 5.874 0 1 0-5.874 5.874 5.818 5.818 0 0 0 5.867-5.873zm-10.244 0a4.379 4.379 0 1 1 4.37 4.466 4.357 4.357 0 0 1-4.378-4.465zm13.056 5.682h1.377v-3.97c0-1.872 1.1-2.753 2.113-2.753a2.013 2.013 0 0 1 .752.128v-1.424a2.853 2.853 0 0 0-.624-.064 2.381 2.381 0 0 0-2.241 1.632v-1.552h-1.385v8zm8.321-11.124a.967.967 0 0 0-.96-.977.994.994 0 0 0-.992.977.984.984 0 0 0 .992.976.956.956 0 0 0 .952-.975zm-1.665 11.124h1.369v-8h-1.377v8zm12.243-.464v-7.539h-1.385v1.233a3.406 3.406 0 0 0-2.785-1.392 4.077 4.077 0 0 0 0 8.147 3.418 3.418 0 0 0 2.785-1.408v.912a2.558 2.558 0 0 1-2.673 2.769 3.422 3.422 0 0 1-2.8-1.345l-.96.961a4.753 4.753 0 0 0 3.778 1.633 3.7 3.7 0 0 0 4.032-3.97zm-6.675-3.634a2.707 2.707 0 1 1 2.705 2.8 2.667 2.667 0 0 1-2.713-2.799zm11.728-7.026a.967.967 0 0 0-.96-.977.994.994 0 0 0-.992.977.984.984 0 0 0 .992.976.957.957 0 0 0 .953-.975zM66.9 117.371h1.377v-8H66.9v8zm4.784 0h1.377V113.4c0-1.872 1.024-2.929 2.321-2.929a1.921 1.921 0 0 1 1.889 2.177v4.722h1.36v-4.93a2.949 2.949 0 0 0-3.025-3.233 2.83 2.83 0 0 0-2.545 1.392v-1.232h-1.372v8zm9.6-4a4.005 4.005 0 0 0 3.922 4.162 3.51 3.51 0 0 0 2.817-1.392v1.232H89.4v-8h-1.373v1.227a3.51 3.51 0 0 0-2.817-1.392 4 4 0 0 0-3.922 4.161zm6.851 0a2.734 2.734 0 1 1-2.721-2.9 2.733 2.733 0 0 1 2.725 2.898zm4.653 4h1.376v-12h-1.372v12zm4.784 0h1.377v-12h-1.373v12zm6.913 3.345l5.25-11.348H108.2l-2.737 6.066-2.753-6.066h-1.52l3.505 7.587-1.745 3.761h1.537zm11.151-7.347a4.005 4.005 0 0 0 3.921 4.162 3.512 3.512 0 0 0 2.818-1.392v1.232h1.376v-12h-1.376v5.229a3.512 3.512 0 0 0-2.818-1.392 4 4 0 0 0-3.917 4.161zm6.851 0a2.734 2.734 0 1 1-2.721-2.9 2.733 2.733 0 0 1 2.725 2.9zm4.029 0a4.219 4.219 0 0 0 7.747 2.257l-1.089-.752a2.833 2.833 0 0 1-5.266-1.232h6.563a3.922 3.922 0 0 0 .016-.417 3.729 3.729 0 0 0-3.81-4.017 4.055 4.055 0 0 0-4.157 4.161zm4.113-2.945a2.4 2.4 0 0 1 2.449 2.1h-5.074a2.617 2.617 0 0 1 2.629-2.1zm11.793 4.722c0-1.2-.752-1.969-2.113-2.417l-.864-.288c-.945-.3-1.233-.608-1.233-1.12a1.133 1.133 0 0 1 1.345-.929 2.159 2.159 0 0 1 1.7.833l.9-.865a3.1 3.1 0 0 0-2.561-1.152c-1.585 0-2.7.88-2.7 2.177a2.416 2.416 0 0 0 1.984 2.321l.785.256c1.04.336 1.424.72 1.424 1.28a1.218 1.218 0 0 1-1.408 1.089 2.148 2.148 0 0 1-2.049-1.265l-1.12.608a3.177 3.177 0 0 0 3.137 1.857c1.608 0 2.777-.816 2.777-2.385zm4.43-8.9a.966.966 0 0 0-.96-.977.994.994 0 0 0-.992.977.983.983 0 0 0 .992.976.956.956 0 0 0 .964-.975zm-1.664 11.124h1.376v-8h-1.376v8zm12.243-.464v-7.539h-1.377v1.233a3.406 3.406 0 0 0-2.785-1.392 4.077 4.077 0 0 0 0 8.147 3.418 3.418 0 0 0 2.785-1.408v.912a2.558 2.558 0 0 1-2.673 2.769 3.421 3.421 0 0 1-2.8-1.345l-.961.961a4.754 4.754 0 0 0 3.778 1.633 3.705 3.705 0 0 0 4.037-3.97zm-6.675-3.634a2.707 2.707 0 1 1 2.705 2.8 2.667 2.667 0 0 1-2.701-2.799zm10.063 4.1h1.381V113.4c0-1.872 1.024-2.929 2.321-2.929a1.922 1.922 0 0 1 1.889 2.177v4.722h1.36v-4.93a2.949 2.949 0 0 0-3.025-3.233 2.831 2.831 0 0 0-2.545 1.393v-1.232h-1.377v8zm9.6-4a4.219 4.219 0 0 0 7.747 2.257l-1.088-.752a2.833 2.833 0 0 1-5.266-1.232h6.562a3.922 3.922 0 0 0 .016-.417 3.728 3.728 0 0 0-3.809-4.017 4.056 4.056 0 0 0-4.158 4.158zm4.114-2.945a2.4 2.4 0 0 1 2.449 2.1h-5.074a2.616 2.616 0 0 1 2.629-2.103zm5.982 2.945a4.005 4.005 0 0 0 3.921 4.162 3.512 3.512 0 0 0 2.818-1.392v1.232h1.376v-12h-1.376v5.226a3.512 3.512 0 0 0-2.818-1.392 4 4 0 0 0-3.917 4.161zm6.851 0a2.734 2.734 0 1 1-2.721-2.9 2.733 2.733 0 0 1 2.725 2.897zm11.021-7.122a.966.966 0 0 0-.96-.977.994.994 0 0 0-.992.977.983.983 0 0 0 .992.976.956.956 0 0 0 .964-.979zm-1.664 11.124h1.377v-8h-1.376v8zm4.784 0h1.376V113.4c0-1.872 1.025-2.929 2.321-2.929a1.921 1.921 0 0 1 1.889 2.177v4.722h1.36v-4.93a2.949 2.949 0 0 0-3.025-3.233 2.831 2.831 0 0 0-2.545 1.392v-1.232h-1.376v8zm15.92 0h1.376v-11.367h-2.449l-1.12 1.36h2.193v10zm4.863 0h1.761l4.162-4.914a4.366 4.366 0 0 0 1.28-2.9 3.85 3.85 0 0 0-7.7.048 3.671 3.671 0 0 0 3.553 3.649 2.044 2.044 0 0 0 .449-.032zm.913-7.779a2.441 2.441 0 1 1 2.433 2.449 2.415 2.415 0 0 1-2.429-2.452zm8.815 7.779h1.761l4.162-4.914a4.366 4.366 0 0 0 1.28-2.9 3.85 3.85 0 0 0-7.7.048 3.671 3.671 0 0 0 3.553 3.649 2.044 2.044 0 0 0 .449-.032zm.913-7.779a2.441 2.441 0 1 1 2.433 2.449 2.415 2.415 0 0 1-2.429-2.452zm15.778 6.451h-5.666c.272-1.313 1.6-1.969 2.913-2.93 1.857-1.344 2.625-2.3 2.625-3.969a3.228 3.228 0 0 0-3.5-3.33 3.532 3.532 0 0 0-3.746 3.586h1.409a2.194 2.194 0 0 1 2.353-2.241 1.921 1.921 0 0 1 2.08 1.969c0 1.328-.7 1.921-2.016 2.9-1.681 1.248-3.81 2.369-3.81 4.8v.544h7.363v-1.328zm8.046 1.328h1.376v-6.739h2.321v-1.264h-2.321V107.9a1.152 1.152 0 0 1 1.329-1.36 3.222 3.222 0 0 1 .992.16v-1.217a3.636 3.636 0 0 0-1.248-.208 2.286 2.286 0 0 0-2.449 2.481v1.617h-1.7v1.264h1.7v6.739zm13.522-4a4.186 4.186 0 1 0-4.177 4.162 4.107 4.107 0 0 0 4.181-4.167zm-6.962 0a2.779 2.779 0 1 1 2.785 2.882 2.751 2.751 0 0 1-2.781-2.887zm9.727 4h1.377V113.4c0-1.872 1.1-2.753 2.113-2.753a2.011 2.011 0 0 1 .752.128v-1.424a2.851 2.851 0 0 0-.624-.064 2.38 2.38 0 0 0-2.241 1.632v-1.552h-1.377v8zm15.026-.112v-1.232a3.048 3.048 0 0 1-.977.16 1.153 1.153 0 0 1-1.328-1.361v-4.194h2.305v-1.264h-2.305v-2.225h-1.373v2.225h-1.7v1.264h1.7V115a2.253 2.253 0 0 0 2.449 2.449 3.835 3.835 0 0 0 1.233-.19zm2.558.112h1.376V113.4c0-1.872 1.025-2.929 2.321-2.929a1.921 1.921 0 0 1 1.889 2.177v4.722h1.361v-4.93a2.949 2.949 0 0 0-3.025-3.233 2.832 2.832 0 0 0-2.546 1.392v-5.234h-1.372v12zm9.6-4a4.219 4.219 0 0 0 7.747 2.257l-1.089-.752a2.833 2.833 0 0 1-5.266-1.232h6.563a3.922 3.922 0 0 0 .016-.417 3.729 3.729 0 0 0-3.81-4.017 4.055 4.055 0 0 0-4.157 4.156zm4.113-2.945a2.4 2.4 0 0 1 2.449 2.1h-5.074a2.617 2.617 0 0 1 2.629-2.105zm11.31 6.947h1.377V113.4c0-1.808.912-2.929 2.209-2.929 1.04 0 1.569.9 1.569 2.193v4.706h1.376v-3.97c0-1.808.9-2.929 2.193-2.929 1.04 0 1.585.9 1.585 2.193v4.706h1.376v-4.914c0-1.953-1.056-3.249-2.8-3.249a2.77 2.77 0 0 0-2.625 1.712 2.516 2.516 0 0 0-2.465-1.712 2.691 2.691 0 0 0-2.417 1.392v-1.232h-1.377v8zm14.336-4a4.219 4.219 0 0 0 7.747 2.257l-1.088-.752a2.833 2.833 0 0 1-5.266-1.232h6.562a3.922 3.922 0 0 0 .016-.417 3.728 3.728 0 0 0-3.809-4.017 4.056 4.056 0 0 0-4.158 4.154zm4.114-2.945a2.4 2.4 0 0 1 2.449 2.1h-5.074a2.616 2.616 0 0 1 2.626-2.107zm6.606 6.947h1.377V113.4c0-1.872 1.024-2.929 2.321-2.929a1.922 1.922 0 0 1 1.889 2.177v4.722h1.36v-4.93a2.949 2.949 0 0 0-3.025-3.233 2.829 2.829 0 0 0-2.545 1.392v-1.232h-1.377v8zm12.049-9.636a1.414 1.414 0 0 0 .224-.72 1.193 1.193 0 1 0-2.385 0 1.24 1.24 0 0 0 .656 1.072l-1.072 2.289h.928zm7.473 7.411c0-1.2-.752-1.969-2.112-2.417l-.865-.288c-.944-.3-1.232-.608-1.232-1.12a1.132 1.132 0 0 1 1.344-.929 2.16 2.16 0 0 1 1.7.833l.9-.865a3.1 3.1 0 0 0-2.561-1.152c-1.584 0-2.705.88-2.705 2.177a2.417 2.417 0 0 0 1.985 2.321l.784.256c1.041.336 1.425.72 1.425 1.28a1.218 1.218 0 0 1-1.409 1.089 2.148 2.148 0 0 1-2.048-1.265l-1.121.608a3.178 3.178 0 0 0 3.137 1.857c1.614-.007 2.782-.823 2.782-2.392zm14.737.24l-1.2-.672a2.713 2.713 0 0 1-2.5 1.537 2.883 2.883 0 0 1 0-5.763 2.713 2.713 0 0 1 2.5 1.537l1.2-.672a4.144 4.144 0 0 0-3.7-2.145 4.162 4.162 0 1 0 0 8.323 4.144 4.144 0 0 0 3.704-2.152zm10.3-2.017a4.186 4.186 0 1 0-4.178 4.162 4.107 4.107 0 0 0 4.186-4.169zm-6.963 0a2.779 2.779 0 1 1 2.785 2.882 2.751 2.751 0 0 1-2.777-2.889zm9.728 4h1.376v-12h-1.376v12zm4.784 0h1.387v-12h-1.376v12zm4.159-4a4.219 4.219 0 0 0 7.747 2.257l-1.088-.752a2.833 2.833 0 0 1-5.266-1.232h6.562a3.922 3.922 0 0 0 .016-.417 3.728 3.728 0 0 0-3.809-4.017 4.056 4.056 0 0 0-4.154 4.154zm4.114-2.945a2.4 2.4 0 0 1 2.449 2.1h-5.074a2.616 2.616 0 0 1 2.633-2.107zm13.873 4.962l-1.2-.672a2.714 2.714 0 0 1-2.5 1.537 2.883 2.883 0 0 1 0-5.763 2.714 2.714 0 0 1 2.5 1.537l1.2-.672a4.143 4.143 0 0 0-3.7-2.145 4.162 4.162 0 1 0 0 8.323 4.143 4.143 0 0 0 3.708-2.152zm6.911 1.873v-1.232a3.043 3.043 0 0 1-.977.16 1.153 1.153 0 0 1-1.328-1.361v-4.194h2.305v-1.264h-2.305v-2.225H418.2v2.225h-1.7v1.264h1.7V115a2.253 2.253 0 0 0 2.449 2.449 3.83 3.83 0 0 0 1.229-.19zm4.223-11.012a.967.967 0 0 0-.961-.977.994.994 0 0 0-.992.977.983.983 0 0 0 .992.976.957.957 0 0 0 .968-.983zm-1.665 11.124h1.377v-8h-1.377v8zm12.515-4a4.186 4.186 0 1 0-4.178 4.162 4.107 4.107 0 0 0 4.186-4.171zm-6.963 0a2.779 2.779 0 1 1 2.785 2.882 2.751 2.751 0 0 1-2.777-2.891zm9.728 4h1.376V113.4c0-1.872 1.025-2.929 2.321-2.929a1.921 1.921 0 0 1 1.889 2.177v4.722h1.361v-4.93a2.95 2.95 0 0 0-3.026-3.233 2.831 2.831 0 0 0-2.545 1.392v-1.232h-1.376v8zm12.128-1.072a1.185 1.185 0 1 0-1.184 1.2 1.206 1.206 0 0 0 1.192-1.206zm9.617 1.072h1.456v-9.956h3.538v-1.408h-8.532v1.408h3.538v9.956zm7.246 0h1.377V113.4c0-1.872 1.024-2.929 2.321-2.929a1.922 1.922 0 0 1 1.889 2.177v4.722h1.36v-4.93a2.949 2.949 0 0 0-3.025-3.233 2.831 2.831 0 0 0-2.545 1.392v-5.234h-1.377v12zm11.901-11.131a.966.966 0 0 0-.96-.977.994.994 0 0 0-.993.977.984.984 0 0 0 .993.976.956.956 0 0 0 .96-.976zm-1.665 11.124h1.377v-8h-1.377v8zm9.97-2.225c0-1.2-.752-1.969-2.113-2.417l-.864-.288c-.944-.3-1.232-.608-1.232-1.12a1.132 1.132 0 0 1 1.344-.929 2.161 2.161 0 0 1 1.7.833l.9-.865a3.1 3.1 0 0 0-2.561-1.152c-1.585 0-2.7.88-2.7 2.177a2.416 2.416 0 0 0 1.985 2.321l.784.256c1.041.336 1.425.72 1.425 1.28a1.219 1.219 0 0 1-1.409 1.089 2.149 2.149 0 0 1-2.049-1.265l-1.12.608a3.178 3.178 0 0 0 3.137 1.857c1.601 0 2.768-.816 2.768-2.385zm7.47 2.225h1.376V113.4c0-1.872 1.025-2.929 2.321-2.929a1.921 1.921 0 0 1 1.889 2.177v4.722h1.361v-4.93a2.95 2.95 0 0 0-3.026-3.233 2.832 2.832 0 0 0-2.545 1.392v-1.232h-1.376v8zm9.6-4a4.22 4.22 0 0 0 7.748 2.257l-1.089-.752a2.833 2.833 0 0 1-5.266-1.232h6.563a3.922 3.922 0 0 0 .016-.417 3.729 3.729 0 0 0-3.81-4.017 4.056 4.056 0 0 0-4.167 4.159zm4.114-2.945a2.4 2.4 0 0 1 2.449 2.1h-5.074a2.617 2.617 0 0 1 2.62-2.102zm13.377 6.947h1.217l2.721-8h-1.457l-1.936 5.842-2-5.842h-1.057l-2 5.842-1.937-5.842h-1.447l2.721 8h1.217l1.985-5.762zm12.3-11.124a.966.966 0 0 0-.96-.977 1 1 0 0 0-.993.977.984.984 0 0 0 .993.976.956.956 0 0 0 .957-.978zm-1.666 11.122h1.377v-8H534.1v8zm9.122-.112v-1.232a3.041 3.041 0 0 1-.976.16 1.153 1.153 0 0 1-1.329-1.361v-4.194h2.305v-1.264h-2.305v-2.225h-1.376v2.225h-1.7v1.264h1.7V115a2.252 2.252 0 0 0 2.449 2.449 3.828 3.828 0 0 0 1.23-.19zm1.822-3.89a4.219 4.219 0 0 0 7.747 2.257l-1.088-.752a2.833 2.833 0 0 1-5.266-1.232H553a3.922 3.922 0 0 0 .016-.417 3.728 3.728 0 0 0-3.809-4.017 4.056 4.056 0 0 0-4.165 4.161zm4.114-2.945a2.4 2.4 0 0 1 2.449 2.1h-5.074a2.616 2.616 0 0 1 2.623-2.1zm6.606 6.947h1.377V113.4c0-1.872 1.1-2.753 2.113-2.753a2.011 2.011 0 0 1 .752.128v-1.424a2.851 2.851 0 0 0-.624-.064 2.38 2.38 0 0 0-2.241 1.632v-1.552h-1.377v8zm5.76-4a4.005 4.005 0 0 0 3.922 4.162 3.51 3.51 0 0 0 2.817-1.392v1.232h1.376v-8h-1.376v1.227a3.51 3.51 0 0 0-2.817-1.392 4.005 4.005 0 0 0-3.924 4.161zm6.851 0a2.734 2.734 0 1 1-2.721-2.9 2.733 2.733 0 0 1 2.719 2.898zm8.991 3.89v-1.232a3.041 3.041 0 0 1-.976.16 1.153 1.153 0 0 1-1.329-1.361v-4.194h2.305v-1.264h-2.305v-2.225h-1.377v2.225h-1.7v1.264h1.7V115a2.253 2.253 0 0 0 2.449 2.449 3.83 3.83 0 0 0 1.231-.19zm4.223-11.012a.967.967 0 0 0-.961-.977.994.994 0 0 0-.992.977.983.983 0 0 0 .992.976.957.957 0 0 0 .959-.978zm-1.665 11.124h1.376v-8h-1.377v8zm12.515-4a4.186 4.186 0 1 0-4.178 4.162 4.107 4.107 0 0 0 4.176-4.166zm-6.963 0a2.779 2.779 0 1 1 2.785 2.882 2.751 2.751 0 0 1-2.787-2.886zm9.728 4h1.376V113.4c0-1.872 1.025-2.929 2.321-2.929a1.921 1.921 0 0 1 1.889 2.177v4.722h1.361v-4.93a2.95 2.95 0 0 0-3.026-3.233 2.832 2.832 0 0 0-2.545 1.392v-1.232h-1.38v8zm16.592-11.124a.966.966 0 0 0-.96-.977 1 1 0 0 0-.993.977.984.984 0 0 0 .993.976.956.956 0 0 0 .958-.978zm-1.665 11.124h1.377v-8h-1.377v8zm9.97-2.225c0-1.2-.752-1.969-2.112-2.417l-.865-.288c-.944-.3-1.232-.608-1.232-1.12a1.132 1.132 0 0 1 1.344-.929 2.16 2.16 0 0 1 1.7.833l.9-.865a3.1 3.1 0 0 0-2.561-1.152c-1.584 0-2.7.88-2.7 2.177a2.416 2.416 0 0 0 1.985 2.321l.784.256c1.041.336 1.425.72 1.425 1.28a1.218 1.218 0 0 1-1.409 1.089 2.15 2.15 0 0 1-2.049-1.265l-1.12.608a3.178 3.178 0 0 0 3.137 1.857c1.603-.002 2.772-.818 2.772-2.387zM30.633 137.371h1.377V133.4c0-1.808.912-2.929 2.209-2.929 1.04 0 1.569.9 1.569 2.193v4.706h1.377v-3.97c0-1.808.9-2.929 2.193-2.929 1.04 0 1.585.9 1.585 2.193v4.706h1.377v-4.914c0-1.953-1.056-3.249-2.8-3.249a2.77 2.77 0 0 0-2.625 1.712 2.516 2.516 0 0 0-2.465-1.712 2.69 2.69 0 0 0-2.42 1.393v-1.232h-1.377v8zm14.336-4a4.005 4.005 0 0 0 3.922 4.162 3.51 3.51 0 0 0 2.817-1.392v1.232h1.377v-8h-1.378v1.227a3.51 3.51 0 0 0-2.817-1.392 4 4 0 0 0-3.921 4.161zm6.851 0a2.734 2.734 0 1 1-2.721-2.9 2.733 2.733 0 0 1 2.721 2.898zm4.029 0a4.005 4.005 0 0 0 3.922 4.162 3.51 3.51 0 0 0 2.817-1.392v1.232h1.377v-12.007h-1.378v5.234a3.51 3.51 0 0 0-2.817-1.392 4 4 0 0 0-3.921 4.161zm6.851 0a2.734 2.734 0 1 1-2.721-2.9 2.733 2.733 0 0 1 2.721 2.898zm4.029 0a4.219 4.219 0 0 0 7.747 2.257l-1.088-.752a2.833 2.833 0 0 1-5.266-1.232h6.563a3.922 3.922 0 0 0 .016-.417 3.729 3.729 0 0 0-3.81-4.017 4.056 4.056 0 0 0-4.163 4.159zm4.114-2.945a2.4 2.4 0 0 1 2.449 2.1h-5.075a2.617 2.617 0 0 1 2.625-2.102zm11.775 6.947h1.377v-6.739h2.321v-1.264h-2.323v-1.47a1.152 1.152 0 0 1 1.329-1.36 3.224 3.224 0 0 1 .992.16v-1.217a3.639 3.639 0 0 0-1.249-.208 2.286 2.286 0 0 0-2.449 2.481v1.617h-1.7v1.264h1.7v6.739zm13.523-4a4.186 4.186 0 1 0-4.178 4.162 4.107 4.107 0 0 0 4.177-4.166zm-6.963 0a2.779 2.779 0 1 1 2.785 2.882 2.751 2.751 0 0 1-2.786-2.886zm9.727 4h1.377V133.4c0-1.872 1.1-2.753 2.113-2.753a2.011 2.011 0 0 1 .752.128v-1.424a2.851 2.851 0 0 0-.624-.064 2.381 2.381 0 0 0-2.241 1.632v-1.552H98.9v8zm17.459 0h1.217l2.721-8h-1.457l-1.937 5.842-2-5.842h-1.058l-2 5.842-1.936-5.842h-1.441l2.721 8h1.217l1.984-5.762zm13.92-4a4.186 4.186 0 1 0-4.177 4.162 4.107 4.107 0 0 0 4.176-4.166zm-6.962 0a2.779 2.779 0 1 1 2.785 2.882 2.751 2.751 0 0 1-2.786-2.886zm9.727 4h1.377V133.4c0-1.808.912-2.929 2.208-2.929 1.041 0 1.569.9 1.569 2.193v4.706h1.377v-3.97c0-1.808.9-2.929 2.193-2.929 1.04 0 1.584.9 1.584 2.193v4.706h1.377v-4.914c0-1.953-1.057-3.249-2.8-3.249a2.769 2.769 0 0 0-2.625 1.712 2.517 2.517 0 0 0-2.465-1.712 2.689 2.689 0 0 0-2.417 1.392v-1.232h-1.377v8zm14.336-4a4.219 4.219 0 0 0 7.747 2.257l-1.089-.752a2.833 2.833 0 0 1-5.266-1.232h6.563a3.922 3.922 0 0 0 .016-.417 3.729 3.729 0 0 0-3.81-4.017 4.055 4.055 0 0 0-4.162 4.157zm4.113-2.945a2.4 2.4 0 0 1 2.449 2.1h-5.074a2.617 2.617 0 0 1 2.627-2.104zm6.607 6.947h1.376V133.4c0-1.872 1.025-2.929 2.321-2.929a1.921 1.921 0 0 1 1.889 2.177v4.722h1.361v-4.93a2.95 2.95 0 0 0-3.026-3.233 2.832 2.832 0 0 0-2.545 1.392v-1.232H158.1v8zm14.3-4a4.005 4.005 0 0 0 3.922 4.162 3.51 3.51 0 0 0 2.817-1.392v1.232h1.376v-8h-1.376v1.223a3.51 3.51 0 0 0-2.817-1.392 4.005 4.005 0 0 0-3.92 4.161zm6.851 0a2.734 2.734 0 1 1-2.721-2.9 2.733 2.733 0 0 1 2.723 2.894zm4.653 4h1.377V133.4c0-1.872 1.024-2.929 2.321-2.929a1.922 1.922 0 0 1 1.889 2.177v4.722h1.36v-4.93a2.949 2.949 0 0 0-3.025-3.233 2.829 2.829 0 0 0-2.545 1.392v-1.232h-1.377v8zm9.6-4a4.005 4.005 0 0 0 3.921 4.162 3.512 3.512 0 0 0 2.818-1.392v1.232h1.376v-12.011h-1.374v5.234a3.512 3.512 0 0 0-2.818-1.392 4 4 0 0 0-3.921 4.161zm6.851 0a2.734 2.734 0 1 1-2.721-2.9 2.733 2.733 0 0 1 2.723 2.894zm16.624 2.017l-1.2-.672a2.713 2.713 0 0 1-2.5 1.537 2.883 2.883 0 0 1 0-5.763 2.713 2.713 0 0 1 2.5 1.537l1.2-.672a4.145 4.145 0 0 0-3.7-2.145 4.162 4.162 0 1 0 0 8.323 4.145 4.145 0 0 0 3.702-2.151zm2.573 1.985h1.376V133.4c0-1.872 1.1-2.753 2.113-2.753a2.011 2.011 0 0 1 .752.128v-1.424a2.851 2.851 0 0 0-.624-.064 2.381 2.381 0 0 0-2.241 1.632v-1.552h-1.376v8zm5.759-4a4.005 4.005 0 0 0 3.922 4.162 3.51 3.51 0 0 0 2.817-1.392v1.232h1.377v-8h-1.377v1.221a3.51 3.51 0 0 0-2.817-1.392 4.005 4.005 0 0 0-3.92 4.161zm6.851 0a2.734 2.734 0 1 1-2.721-2.9 2.733 2.733 0 0 1 2.723 2.892zm5.326 4h1.376v-6.739h2.113v-1.264h-2.113V127.9a1.152 1.152 0 0 1 1.329-1.36 3.222 3.222 0 0 1 .992.16v-1.217a3.636 3.636 0 0 0-1.248-.208 2.253 2.253 0 0 0-2.449 2.449v1.649h-1.7v1.264h1.7v6.739zm9.588-.112v-1.232a3.155 3.155 0 0 1-.993.16 1.153 1.153 0 0 1-1.328-1.361v-4.194h2.321v-1.264h-2.321v-2.225h-1.377v2.225h-1.5v1.264h1.5V135a2.264 2.264 0 0 0 2.465 2.449 3.994 3.994 0 0 0 1.235-.19zm1.819-3.89a4.219 4.219 0 0 0 7.747 2.257l-1.088-.752a2.833 2.833 0 0 1-5.266-1.232h6.562a3.922 3.922 0 0 0 .016-.417 3.728 3.728 0 0 0-3.809-4.017 4.056 4.056 0 0 0-4.162 4.155zm4.114-2.945a2.4 2.4 0 0 1 2.449 2.1h-5.074a2.616 2.616 0 0 1 2.627-2.106zm5.986 2.939a4.005 4.005 0 0 0 3.922 4.162 3.51 3.51 0 0 0 2.817-1.392v1.232h1.376v-12.005h-1.376v5.234a3.51 3.51 0 0 0-2.817-1.392 4.005 4.005 0 0 0-3.922 4.161zm6.851 0a2.734 2.734 0 1 1-2.721-2.9 2.733 2.733 0 0 1 2.719 2.9zm9.821 4h1.377v-6.739h2.321v-1.264h-2.321V127.9a1.152 1.152 0 0 1 1.329-1.36 3.222 3.222 0 0 1 .992.16v-1.217a3.638 3.638 0 0 0-1.249-.208 2.286 2.286 0 0 0-2.449 2.481v1.617h-1.7v1.264h1.7v6.739zm6 0h1.377V133.4c0-1.872 1.1-2.753 2.112-2.753a2.013 2.013 0 0 1 .753.128v-1.424a2.851 2.851 0 0 0-.624-.064 2.38 2.38 0 0 0-2.241 1.632v-1.552h-1.379v8zm14.1-4a4.186 4.186 0 1 0-4.177 4.162 4.107 4.107 0 0 0 4.174-4.162zm-6.963 0a2.779 2.779 0 1 1 2.786 2.882 2.752 2.752 0 0 1-2.789-2.882zm9.728 4h1.377V133.4c0-1.808.912-2.929 2.208-2.929 1.041 0 1.569.9 1.569 2.193v4.706h1.377v-3.97c0-1.808.9-2.929 2.192-2.929 1.041 0 1.585.9 1.585 2.193v4.706h1.377v-4.914c0-1.953-1.057-3.249-2.8-3.249a2.769 2.769 0 0 0-2.625 1.712 2.517 2.517 0 0 0-2.465-1.712 2.689 2.689 0 0 0-2.417 1.392v-1.232h-1.377v8zm26.163 0h1.216l2.721-8h-1.456l-1.937 5.842-2-5.842h-1.056l-2 5.842-1.937-5.842h-1.441l2.721 8h1.217l1.985-5.762zm5.564-4a4.005 4.005 0 0 0 3.922 4.162 3.51 3.51 0 0 0 2.814-1.392v1.232h1.377v-8H337v1.229a3.51 3.51 0 0 0-2.817-1.392 4.005 4.005 0 0 0-3.922 4.161zm6.851 0a2.734 2.734 0 1 1-2.721-2.9 2.733 2.733 0 0 1 2.718 2.9zm9.84 1.777c0-1.2-.753-1.969-2.113-2.417l-.865-.288c-.944-.3-1.232-.608-1.232-1.12a1.132 1.132 0 0 1 1.344-.929 2.16 2.16 0 0 1 1.7.833l.9-.865a3.1 3.1 0 0 0-2.561-1.152c-1.584 0-2.7.88-2.7 2.177a2.417 2.417 0 0 0 1.985 2.321l.784.256c1.041.336 1.425.72 1.425 1.28a1.218 1.218 0 0 1-1.409 1.089 2.148 2.148 0 0 1-2.048-1.265l-1.121.608a3.178 3.178 0 0 0 3.137 1.857c1.602 0 2.771-.816 2.771-2.385zm2.765 2.225h1.377V133.4c0-1.872 1.024-2.929 2.321-2.929a1.922 1.922 0 0 1 1.889 2.177v4.722h1.36v-4.93a2.949 2.949 0 0 0-3.025-3.233 2.829 2.829 0 0 0-2.545 1.392v-5.234h-1.377v12.005zm9.6-4a4.005 4.005 0 0 0 3.921 4.162 3.512 3.512 0 0 0 2.818-1.392v1.232h1.376v-8h-1.376v1.227a3.512 3.512 0 0 0-2.818-1.392 4 4 0 0 0-3.924 4.161zm6.851 0a2.734 2.734 0 1 1-2.721-2.9 2.733 2.733 0 0 1 2.718 2.898zm6.03 2.77a3.509 3.509 0 0 0 2.817 1.392 4.169 4.169 0 0 0 0-8.323 3.509 3.509 0 0 0-2.818 1.39v-5.234h-1.377v12.005h1.377v-1.232zm5.33-2.77a2.727 2.727 0 1 1-2.721-2.9 2.733 2.733 0 0 1 2.718 2.898zm4.173 4h1.376v-12.005h-1.38v12.005zm4.159-4a4.22 4.22 0 0 0 7.748 2.257l-1.089-.752a2.833 2.833 0 0 1-5.266-1.232h6.563a3.922 3.922 0 0 0 .016-.417 3.729 3.729 0 0 0-3.81-4.017 4.056 4.056 0 0 0-4.165 4.159zm4.114-2.945a2.4 2.4 0 0 1 2.449 2.1h-5.074a2.617 2.617 0 0 1 2.622-2.102zm17.809 6.947H409l2.721-8h-1.457l-1.936 5.842-2-5.842h-1.058l-2 5.842-1.936-5.842h-1.441l2.721 8h1.217l1.985-5.762zm13.92-4a4.186 4.186 0 1 0-4.177 4.162 4.107 4.107 0 0 0 4.171-4.166zm-6.962 0a2.779 2.779 0 1 1 2.785 2.882 2.751 2.751 0 0 1-2.788-2.886zm17.458 0a4.186 4.186 0 1 0-4.177 4.162 4.107 4.107 0 0 0 4.175-4.166zm-6.963 0a2.779 2.779 0 1 1 2.786 2.882 2.752 2.752 0 0 1-2.789-2.886zm9.728 4h1.376v-12.007h-1.376v12.005zm4.528-3.793h4.081v-1.38h-4.081v1.377zm14.5 1.808l-1.2-.672a2.713 2.713 0 0 1-2.5 1.537 2.883 2.883 0 0 1 0-5.763 2.713 2.713 0 0 1 2.5 1.537l1.2-.672a4.145 4.145 0 0 0-3.7-2.145 4.162 4.162 0 1 0 0 8.323 4.145 4.145 0 0 0 3.696-2.147zm1.948-2.017a4.005 4.005 0 0 0 3.922 4.162 3.51 3.51 0 0 0 2.817-1.392v1.232h1.376v-8h-1.376v1.227a3.51 3.51 0 0 0-2.817-1.392 4.005 4.005 0 0 0-3.926 4.161zm6.851 0a2.734 2.734 0 1 1-2.721-2.9 2.733 2.733 0 0 1 2.717 2.898zm9.839 1.777c0-1.2-.752-1.969-2.113-2.417l-.864-.288c-.944-.3-1.232-.608-1.232-1.12a1.132 1.132 0 0 1 1.344-.929 2.161 2.161 0 0 1 1.7.833l.9-.865a3.1 3.1 0 0 0-2.561-1.152c-1.584 0-2.7.88-2.7 2.177a2.416 2.416 0 0 0 1.985 2.321l.784.256c1.041.336 1.425.72 1.425 1.28a1.218 1.218 0 0 1-1.409 1.089 2.149 2.149 0 0 1-2.049-1.265l-1.12.608a3.178 3.178 0 0 0 3.137 1.857c1.601-.002 2.769-.818 2.769-2.387zm2.766 2.225h1.377V133.4c0-1.872 1.024-2.929 2.321-2.929a1.921 1.921 0 0 1 1.888 2.177v4.722h1.361v-4.93a2.949 2.949 0 0 0-3.025-3.233 2.829 2.829 0 0 0-2.545 1.392v-5.234H475.4v12.005zm10.224 0H487V133.4c0-1.808.913-2.929 2.209-2.929 1.041 0 1.569.9 1.569 2.193v4.706h1.377v-3.97c0-1.808.9-2.929 2.192-2.929 1.041 0 1.585.9 1.585 2.193v4.706h1.368v-4.914c0-1.953-1.057-3.249-2.8-3.249a2.771 2.771 0 0 0-2.625 1.712 2.515 2.515 0 0 0-2.465-1.712A2.692 2.692 0 0 0 487 130.6v-1.232h-1.376v8zm14.336-4a4.219 4.219 0 0 0 7.747 2.257l-1.089-.752a2.833 2.833 0 0 1-5.266-1.232h6.563a3.922 3.922 0 0 0 .016-.417 3.729 3.729 0 0 0-3.81-4.017 4.055 4.055 0 0 0-4.165 4.157zm4.113-2.945a2.4 2.4 0 0 1 2.449 2.1h-5.074a2.617 2.617 0 0 1 2.621-2.104zm6.607 6.947h1.376V133.4c0-1.872 1.1-2.753 2.113-2.753a2.011 2.011 0 0 1 .752.128v-1.424a2.851 2.851 0 0 0-.624-.064 2.381 2.381 0 0 0-2.241 1.632v-1.552h-1.376v8zm5.744-4a4.219 4.219 0 0 0 7.747 2.257l-1.089-.752a2.833 2.833 0 0 1-5.266-1.232h6.563a3.922 3.922 0 0 0 .016-.417 3.729 3.729 0 0 0-3.81-4.017 4.055 4.055 0 0 0-4.165 4.155zm4.113-2.945a2.4 2.4 0 0 1 2.449 2.1h-5.074a2.617 2.617 0 0 1 2.621-2.106zm8.511 5.875a1.184 1.184 0 1 0-1.184 1.2 1.206 1.206 0 0 0 1.18-1.205z"/><path id="Rectangle_4_copy_4" data-name="Rectangle 4 copy 4" d="M29 192.938h102V196H29z"/><path id="Shop_now" data-name="Shop now" class="cls-2" d="M33.347 187.177c2.255 0 3.8-1.378 3.818-3.352a3.346 3.346 0 0 0-2.54-3.245l-.752-.276c-1.127-.413-1.653-.673-1.653-1.255a1.1 1.1 0 0 1 1.293-.827 2.356 2.356 0 0 1 1.849.9l1.563-1.684a4.414 4.414 0 0 0-3.442-1.5c-2.135 0-3.683 1.24-3.683 3.352 0 1.485.962 2.541 2.691 3.138l.752.26c1.067.367 1.488.75 1.488 1.3a1.086 1.086 0 0 1-1.293.9 2.779 2.779 0 0 1-2.21-1.24l-1.834 1.577a4.653 4.653 0 0 0 3.953 1.952zm8.1-.184h2.39v-4.3h4.3v4.3h2.39v-10.868h-2.39v4.256h-4.3v-4.256h-2.39v10.868zm18.883.184a5.618 5.618 0 1 0-5.517-5.618 5.582 5.582 0 0 0 5.522 5.618zm0-2.357a3.265 3.265 0 1 1 3.1-3.261 3.2 3.2 0 0 1-3.095 3.261zm17.185-4.975a3.667 3.667 0 0 0-3.758-3.72h-3.618v10.868h2.39v-3.444h1.233a3.654 3.654 0 0 0 3.758-3.704zm-2.315 0a1.416 1.416 0 0 1-1.473 1.423h-1.2v-2.847h1.2a1.408 1.408 0 0 1 1.473 1.424zm21.649 7.148v-10.868h-2.4v6.705l-5.186-6.705H87.2v10.868h2.39v-6.719l5.2 6.719h2.059zm9.8.184a5.618 5.618 0 1 0-5.516-5.618 5.581 5.581 0 0 0 5.525 5.618zm0-2.357a3.265 3.265 0 1 1 3.1-3.261 3.2 3.2 0 0 1-3.091 3.261zm18.072 2.173H127l2.48-10.868h-2.556l-1.458 6.888-3.006-7.071-2.991 7.071-1.458-6.888h-2.556l2.465 10.868h2.27l2.27-5.327z"/></svg>