<svg id="Copy_copy_11" data-name="Copy copy 11" xmlns="http://www.w3.org/2000/svg" width="720" height="201" viewBox="0 0 720 201">
  <metadata><?xpacket begin="﻿" id="W5M0MpCehiHzreSzNTczkc9d"?>
<x:xmpmeta xmlns:x="adobe:ns:meta/" x:xmptk="Adobe XMP Core 5.6-c138 79.159824, 2016/09/14-01:09:01        ">
   <rdf:RDF xmlns:rdf="http://www.w3.org/1999/02/22-rdf-syntax-ns#">
      <rdf:Description rdf:about=""/>
   </rdf:RDF>
</x:xmpmeta>
                                                                                                    
                                                                                                    
                                                                                                    
                                                                                                    
                                                                                                    
                                                                                                    
                                                                                                    
                                                                                                    
                                                                                                    
                                                                                                    
                                                                                                    
                                                                                                    
                                                                                                    
                                                                                                    
                                                                                                    
                                                                                                    
                                                                                                    
                                                                                                    
                                                                                                    
                                                                                                    
                           
<?xpacket end="w"?></metadata>
<defs>
    <style>
      .cls-1 {
        fill: #fff;
      }

      .cls-2 {
        fill-rule: evenodd;
      }
    </style>
  </defs>
  <rect id="Rectangle_106_copy_5" data-name="Rectangle 106 copy 5" class="cls-1" width="720" height="201"/>
  <path id="ITALIAN_LEATHER_BAG_" data-name="ITALIAN LEATHER BAG " class="cls-2" d="M29.586,50.871h4.77v-21.3h-4.77v21.3Zm14.61,0H49V34.132h5.49v-4.56H38.766v4.56H44.2V50.871Zm10.26,0h4.98l1.89-4.5h8.82l1.89,4.5h4.98l-9.12-21.3h-4.32Zm8.61-8.64,2.67-6.42,2.67,6.42h-5.34Zm17.67,8.64H94.326v-4.56h-8.82V29.572h-4.77v21.3Zm18.06,0h4.77v-21.3H98.8v21.3Zm8.49,0h4.979l1.89-4.5h8.82l1.89,4.5h4.98l-9.12-21.3h-4.32Zm8.609-8.64,2.67-6.42,2.67,6.42H115.9Zm36.93,8.64v-21.3h-4.8V42.711l-10.35-13.139h-4.109v21.3h4.769V37.7l10.38,13.17h4.11Zm14.1,0h13.589v-4.56H171.7V29.572h-4.77v21.3Zm18.059,0h13.5v-4.56h-8.73V42.5h6.93v-4.56h-6.93v-3.81h8.73v-4.56h-13.5v21.3Zm16.351,0h4.979l1.89-4.5h8.82l1.89,4.5h4.98l-9.12-21.3h-4.32Zm8.609-8.64,2.67-6.42,2.67,6.42h-5.34Zm19.38,8.64h4.8V34.132h5.49v-4.56H223.9v4.56h5.429V50.871Zm14.7,0h4.77v-8.43h8.58v8.43h4.77v-21.3h-4.77v8.34h-8.58v-8.34h-4.77v21.3Zm24.12,0h13.5v-4.56h-8.73V42.5h6.93v-4.56h-6.93v-3.81h8.73v-4.56h-13.5v21.3Zm18.63,0h4.77v-8.79h0.78l7.08,8.79h5.729l-7.529-9.39c2.7-.96,4.17-2.73,4.17-5.49a6.288,6.288,0,0,0-6.6-6.42h-8.4v21.3Zm4.77-12.84v-4.08h3.06c1.41,0,2.43.75,2.43,2.04a2.156,2.156,0,0,1-2.43,2.04h-3.06Zm24.09,12.84h9.359a6.3,6.3,0,0,0,6.48-6.27,5.566,5.566,0,0,0-3.03-5.04,5.013,5.013,0,0,0,1.53-3.66,6.331,6.331,0,0,0-6.33-6.33h-8.009v21.3ZM320.4,38.182v-4.26h2.7a2.165,2.165,0,0,1,2.22,2.16,2.135,2.135,0,0,1-2.22,2.1h-2.7Zm0,8.31v-4.26h4.17a2.167,2.167,0,0,1,2.25,2.13,2.141,2.141,0,0,1-2.22,2.13h-4.2Zm12.9,4.38h4.98l1.89-4.5h8.819l1.89,4.5h4.98l-9.12-21.3h-4.319Zm8.61-8.64,2.669-6.42,2.67,6.42h-5.339Zm27.12,9c3.449,0,6.839-1.02,8.729-3.15V37.972h-8.819v4.47h4.169v3.15a6.938,6.938,0,0,1-4.139,1.02c-4.17,0-6.72-2.76-6.72-6.39a6.252,6.252,0,0,1,6.42-6.39,7.073,7.073,0,0,1,5.369,2.28l3.36-3.27a11.333,11.333,0,0,0-8.729-3.63,10.88,10.88,0,0,0-11.22,11.01C357.454,46.461,362.4,51.231,369.034,51.231Z"/>
  <rect id="Rectangle_4_copy_4" data-name="Rectangle 4 copy 4" x="27" y="97.938" width="102" height="3.063"/>
  <path id="Shop_now" data-name="Shop now" class="cls-2" d="M31.347,92.177c2.255,0,3.8-1.378,3.818-3.352a3.347,3.347,0,0,0-2.54-3.245L31.873,85.3c-1.127-.413-1.654-0.674-1.654-1.255a1.1,1.1,0,0,1,1.293-.827,2.358,2.358,0,0,1,1.849.9l1.563-1.684a4.415,4.415,0,0,0-3.442-1.5c-2.134,0-3.683,1.24-3.683,3.352,0,1.485.962,2.541,2.691,3.138l0.752,0.26c1.067,0.367,1.488.75,1.488,1.3a1.086,1.086,0,0,1-1.293.9,2.78,2.78,0,0,1-2.21-1.24l-1.834,1.576A4.651,4.651,0,0,0,31.347,92.177Zm8.1-.184h2.39v-4.3h4.3v4.3h2.39V81.125h-2.39v4.255h-4.3V81.125h-2.39V91.993Zm18.883,0.184a5.618,5.618,0,1,0-5.517-5.618A5.581,5.581,0,0,0,58.335,92.177Zm0-2.357a3.265,3.265,0,1,1,3.1-3.26A3.2,3.2,0,0,1,58.335,89.82ZM75.52,84.845a3.667,3.667,0,0,0-3.758-3.719H68.139V91.993h2.39V88.549h1.233A3.654,3.654,0,0,0,75.52,84.845Zm-2.315,0a1.416,1.416,0,0,1-1.473,1.424h-1.2V83.421h1.2A1.407,1.407,0,0,1,73.2,84.845Zm21.649,7.148V81.125H92.449v6.7l-5.186-6.7H85.2V91.993h2.39v-6.72l5.2,6.72h2.059Zm9.8,0.184a5.618,5.618,0,1,0-5.516-5.618A5.581,5.581,0,0,0,104.658,92.177Zm0-2.357a3.265,3.265,0,1,1,3.1-3.26A3.2,3.2,0,0,1,104.658,89.82Zm18.072,2.174H125l2.48-10.868h-2.556l-1.458,6.888-3.006-7.072-2.991,7.072-1.458-6.888h-2.556l2.465,10.868h2.27l2.27-5.327Z"/>
</svg>
