<svg id="Copy_copy_11" data-name="Copy copy 11" xmlns="http://www.w3.org/2000/svg" width="720" height="201"><defs><style>.cls-2{fill-rule:evenodd}</style></defs><path id="Rectangle_106_copy_5" data-name="Rectangle 106 copy 5" fill="#fff" d="M0 0h720v201H0z"/><path id="ITALIAN_LEATHER_BAG_" data-name="ITALIAN LEATHER BAG" class="cls-2" d="M29.586 50.871h4.77v-21.3h-4.77v21.3zm14.61 0H49V34.132h5.49v-4.56H38.766v4.56H44.2v16.739zm10.26 0h4.98l1.89-4.5h8.82l1.89 4.5h4.98l-9.12-21.3h-4.32zm8.61-8.64l2.67-6.42 2.67 6.42h-5.34zm17.67 8.64h13.59v-4.56h-8.82V29.572h-4.77v21.3zm18.06 0h4.77v-21.3H98.8v21.3zm8.49 0h4.979l1.89-4.5h8.82l1.89 4.5h4.98l-9.12-21.3h-4.32zm8.609-8.64l2.67-6.42 2.67 6.42H115.9zm36.93 8.64v-21.3h-4.8v13.14l-10.35-13.139h-4.109v21.3h4.769V37.7l10.38 13.17h4.11zm14.1 0h13.589v-4.56H171.7V29.572h-4.77v21.3zm18.059 0h13.5v-4.56h-8.73V42.5h6.93v-4.56h-6.93v-3.81h8.73v-4.56h-13.5v21.3zm16.351 0h4.979l1.89-4.5h8.82l1.89 4.5h4.98l-9.12-21.3h-4.32zm8.609-8.64l2.67-6.42 2.67 6.42h-5.34zm19.38 8.64h4.8V34.132h5.49v-4.56H223.9v4.56h5.429v16.739zm14.7 0h4.77v-8.43h8.58v8.43h4.77v-21.3h-4.77v8.34h-8.58v-8.34h-4.77v21.3zm24.12 0h13.5v-4.56h-8.73V42.5h6.93v-4.56h-6.93v-3.81h8.73v-4.56h-13.5v21.3zm18.63 0h4.77v-8.79h.78l7.08 8.79h5.729l-7.529-9.39c2.7-.96 4.17-2.73 4.17-5.49a6.288 6.288 0 0 0-6.6-6.42h-8.4v21.3zm4.77-12.84v-4.08h3.06c1.41 0 2.43.75 2.43 2.04a2.156 2.156 0 0 1-2.43 2.04h-3.06zm24.09 12.84h9.359a6.3 6.3 0 0 0 6.48-6.27 5.566 5.566 0 0 0-3.03-5.04 5.013 5.013 0 0 0 1.53-3.66 6.331 6.331 0 0 0-6.33-6.33h-8.009v21.3zm4.766-12.689v-4.26h2.7a2.165 2.165 0 0 1 2.22 2.16 2.135 2.135 0 0 1-2.22 2.1h-2.7zm0 8.31v-4.26h4.17a2.167 2.167 0 0 1 2.25 2.13 2.141 2.141 0 0 1-2.22 2.13h-4.2zm12.9 4.38h4.98l1.89-4.5h8.819l1.89 4.5h4.98l-9.12-21.3h-4.319zm8.61-8.64l2.669-6.42 2.67 6.42h-5.339zm27.12 9c3.449 0 6.839-1.02 8.729-3.15v-10.11h-8.819v4.47h4.169v3.15a6.938 6.938 0 0 1-4.139 1.02c-4.17 0-6.72-2.76-6.72-6.39a6.252 6.252 0 0 1 6.42-6.39 7.073 7.073 0 0 1 5.369 2.28l3.36-3.27a11.333 11.333 0 0 0-8.729-3.63 10.88 10.88 0 0 0-11.22 11.01c.004 6.239 4.95 11.009 11.584 11.009z"/><path id="Rectangle_4_copy_4" data-name="Rectangle 4 copy 4" d="M27 97.938h102v3.063H27z"/><path id="Shop_now" data-name="Shop now" class="cls-2" d="M31.347 92.177c2.255 0 3.8-1.378 3.818-3.352a3.347 3.347 0 0 0-2.54-3.245l-.752-.28c-1.127-.413-1.654-.674-1.654-1.255a1.1 1.1 0 0 1 1.293-.827 2.358 2.358 0 0 1 1.849.9l1.563-1.684a4.415 4.415 0 0 0-3.442-1.5c-2.134 0-3.683 1.24-3.683 3.352 0 1.485.962 2.541 2.691 3.138l.752.26c1.067.367 1.488.75 1.488 1.3a1.086 1.086 0 0 1-1.293.9 2.78 2.78 0 0 1-2.21-1.24l-1.834 1.576a4.651 4.651 0 0 0 3.954 1.957zm8.1-.184h2.39v-4.3h4.3v4.3h2.39V81.125h-2.39v4.255h-4.3v-4.255h-2.39v10.868zm18.883.184a5.618 5.618 0 1 0-5.517-5.618 5.581 5.581 0 0 0 5.522 5.618zm0-2.357a3.265 3.265 0 1 1 3.1-3.26 3.2 3.2 0 0 1-3.095 3.26zm17.19-4.975a3.667 3.667 0 0 0-3.758-3.719h-3.623v10.867h2.39v-3.444h1.233a3.654 3.654 0 0 0 3.758-3.704zm-2.315 0a1.416 1.416 0 0 1-1.473 1.424h-1.2v-2.848h1.2a1.407 1.407 0 0 1 1.468 1.424zm21.649 7.148V81.125h-2.405v6.7l-5.186-6.7H85.2v10.868h2.39v-6.72l5.2 6.72h2.059zm9.8.184a5.618 5.618 0 1 0-5.516-5.618 5.581 5.581 0 0 0 5.52 5.618zm0-2.357a3.265 3.265 0 1 1 3.1-3.26 3.2 3.2 0 0 1-3.096 3.26zm18.072 2.174H125l2.48-10.868h-2.556l-1.458 6.888-3.006-7.072-2.991 7.072-1.458-6.888h-2.556l2.465 10.868h2.27l2.27-5.327z"/></svg>