<svg id="Copy_copy_12" data-name="Copy copy 12" xmlns="http://www.w3.org/2000/svg" width="720" height="299"><defs><style>.cls-2{fill-rule:evenodd}</style></defs><path id="Rectangle_106_copy_13" data-name="Rectangle 106 copy 13" fill="#fff" d="M0 0h720v299H0z"/><path id="UTILITY_JUMPSUIT_Woven_b._1980_The_sky_s_the_limit._Our_first" data-name="UTILITY JUMPSUIT Woven, b. 1980 The sky’s the limit. Our first" class="cls-2" d="M40.106 51.231a8.353 8.353 0 0 0 8.76-8.79V29.572H44.1V42.5a3.8 3.8 0 0 1-3.99 4.11 3.8 3.8 0 0 1-3.99-4.11V29.572h-4.77v12.869a8.337 8.337 0 0 0 8.756 8.79zm18.36-.36h4.8V34.132h5.49v-4.56h-15.72v4.56h5.43v16.739zm14.7 0h4.77v-21.3h-4.77v21.3zm10.77 0h13.59v-4.56h-8.82V29.572h-4.77v21.3zm18.06 0h4.77v-21.3H102v21.3zm14.61 0h4.8V34.132h5.489v-4.56h-15.72v4.56h5.43v16.739zm20.459 0h4.8v-8.94l7.77-12.359h-5.55l-4.65 7.68-4.589-7.68h-5.55l7.769 12.33v8.97zm28.41.36c3.66 0 6.96-1.83 6.96-6.18V29.572h-4.77v15.179a2.193 2.193 0 0 1-4.38-.12h-4.709c-.001 4.62 3.329 6.6 6.898 6.6zm21.33 0a8.353 8.353 0 0 0 8.759-8.79V29.572h-4.769V42.5a3.992 3.992 0 1 1-7.98 0V29.572h-4.77v12.869a8.338 8.338 0 0 0 8.755 8.79zm25.529-4.89l6.21-8.61v13.14h4.8v-21.3h-4.35l-6.66 9.18-6.659-9.18h-4.35v21.3h4.77V37.732zm31.74-9.48a7.254 7.254 0 0 0-7.5-7.29h-7.23v21.3h4.77v-6.75h2.46a7.23 7.23 0 0 0 7.499-7.259zm-4.62 0a2.8 2.8 0 0 1-2.94 2.79h-2.4v-5.58h2.4a2.785 2.785 0 0 1 2.939 2.791zm15.54 14.369c4.5 0 7.589-2.7 7.619-6.57.03-3.21-1.979-5.25-5.069-6.36l-1.5-.54c-2.25-.81-3.3-1.32-3.3-2.46 0-1.11 1.29-1.62 2.58-1.62a4.738 4.738 0 0 1 3.69 1.77l3.119-3.3a8.884 8.884 0 0 0-6.869-2.94c-4.26 0-7.35 2.43-7.35 6.57 0 2.91 1.92 4.98 5.37 6.15l1.5.51c2.13.72 2.97 1.47 2.97 2.55 0 1.02-.99 1.77-2.58 1.77a5.573 5.573 0 0 1-4.41-2.43l-3.66 3.09a9.34 9.34 0 0 0 7.889 3.811zm20.939 0a8.354 8.354 0 0 0 8.76-8.79V29.572h-4.77V42.5a3.991 3.991 0 1 1-7.979 0V29.572h-4.77v12.869a8.337 8.337 0 0 0 8.758 8.79zm14.52-.36h4.77v-21.3h-4.77v21.3zm14.61 0h4.8V34.132h5.489v-4.56h-15.72v4.56h5.43v16.739zm-264.076 28h1.493l3.493-12.784h-1.746l-2.683 9.975-3.691-10.19-3.673 10.191-2.68-9.975h-1.749l3.493 12.784h1.494l3.133-8.679zm15.913-4.5a4.708 4.708 0 1 0-4.7 4.681 4.62 4.62 0 0 0 4.7-4.681zm-7.832 0a3.126 3.126 0 1 1 3.132 3.241 3.094 3.094 0 0 1-3.135-3.241zm13.555 4.5h1.3l4.159-9h-1.735l-3.079 6.806-3.079-6.806H58.46zm7.019-4.5a4.746 4.746 0 0 0 8.715 2.539l-1.224-.846a3.188 3.188 0 0 1-5.924-1.386h7.382a4.368 4.368 0 0 0 .018-.468 4.2 4.2 0 0 0-4.285-4.519 4.562 4.562 0 0 0-4.685 4.68zm4.627-3.313a2.693 2.693 0 0 1 2.755 2.359h-5.711a2.943 2.943 0 0 1 2.953-2.359zm7.431 7.814h1.548v-4.465c0-2.107 1.152-3.3 2.611-3.3a2.161 2.161 0 0 1 2.125 2.449v5.312h1.53v-5.542a3.318 3.318 0 0 0-3.4-3.637 3.184 3.184 0 0 0-2.863 1.566v-1.386H81.7v9zm13.428-.4a1.54 1.54 0 0 0 .252-.81 1.333 1.333 0 1 0-2.665 0 1.34 1.34 0 0 0 .738 1.206l-1.206 2.575h1.026zm10.422-.99a3.947 3.947 0 0 0 3.169 1.566 4.69 4.69 0 0 0 0-9.363 3.947 3.947 0 0 0-3.169 1.566v-5.883H104v13.5h1.549v-1.382zm6-3.115a3.067 3.067 0 1 1-3.061-3.259 3.074 3.074 0 0 1 3.056 3.263zm6.658 3.295a1.333 1.333 0 1 0-1.333 1.35 1.357 1.357 0 0 0 1.325-1.346zm9.7 1.206h1.549v-12.78H126.7l-1.26 1.53h2.46v11.254zm5.472 0h1.98l4.682-5.528a4.911 4.911 0 0 0 1.44-3.259 4.331 4.331 0 0 0-8.66.054 4.13 4.13 0 0 0 4 4.105 2.294 2.294 0 0 0 .5-.036zm1.026-8.751a2.746 2.746 0 1 1 2.737 2.755 2.717 2.717 0 0 1-2.743-2.75zm18.02 4.915a3.572 3.572 0 0 0-2-3.349 2.994 2.994 0 0 0 1.3-2.521 3.318 3.318 0 0 0-3.583-3.3 3.364 3.364 0 0 0-3.6 3.3 2.981 2.981 0 0 0 1.332 2.521 3.572 3.572 0 0 0-2.034 3.349 4.3 4.3 0 0 0 8.581.005zm-6.36-5.831a1.9 1.9 0 0 1 2.071-1.873 1.868 1.868 0 0 1 2.053 1.873 1.911 1.911 0 0 1-2.053 1.891 1.949 1.949 0 0 1-2.071-1.891zm-.666 5.836a2.538 2.538 0 0 1 2.737-2.557 2.553 2.553 0 1 1 0 5.1 2.545 2.545 0 0 1-2.737-2.543zm18.9-.792v-3.565a4.536 4.536 0 1 0-9.056 0v3.565a4.536 4.536 0 1 0 9.056 0zm-7.508 0v-3.565c0-2.071 1.243-3.295 2.971-3.295 1.747 0 2.989 1.224 2.989 3.295v3.565c0 2.071-1.242 3.3-2.989 3.3-1.726-.005-2.969-1.23-2.969-3.3zM33.146 118.871H34.6v-9.956h3.54v-1.408h-8.531v1.408h3.537v9.956zm7.247 0h1.377V114.9c0-1.872 1.024-2.929 2.321-2.929a1.921 1.921 0 0 1 1.889 2.177v4.722h1.36v-4.93a2.949 2.949 0 0 0-3.025-3.233 2.83 2.83 0 0 0-2.545 1.393v-5.234h-1.377v12zm9.6-4a4.219 4.219 0 0 0 7.747 2.257l-1.088-.752a2.833 2.833 0 0 1-5.266-1.232h6.563a3.922 3.922 0 0 0 .016-.417 3.729 3.729 0 0 0-3.809-4.017 4.056 4.056 0 0 0-4.163 4.159zm4.114-2.945a2.4 2.4 0 0 1 2.449 2.1h-5.075a2.617 2.617 0 0 1 2.625-2.102zm16.5 4.722c0-1.2-.752-1.969-2.113-2.417l-.864-.288c-.944-.3-1.233-.608-1.233-1.12a1.133 1.133 0 0 1 1.345-.929 2.161 2.161 0 0 1 1.7.833l.9-.865a3.1 3.1 0 0 0-2.561-1.152c-1.585 0-2.705.88-2.705 2.177a2.416 2.416 0 0 0 1.985 2.321l.784.256c1.04.336 1.425.72 1.425 1.28a1.218 1.218 0 0 1-1.409 1.089 2.149 2.149 0 0 1-2.049-1.265l-1.121.608a3.178 3.178 0 0 0 3.137 1.857c1.606-.002 2.772-.818 2.772-2.387zm2.766 2.225h1.377v-4l4.338 4h1.857l-4.818-4.466 3.938-3.537h-1.831l-3.489 3.121v-7.123h-1.377v12zm11.553 3.345l5.25-11.348h-1.541l-2.735 6.064-2.753-6.066h-1.523l3.505 7.587-1.745 3.761h1.537zm9.472-12.981a1.414 1.414 0 0 0 .224-.72 1.192 1.192 0 1 0-2.385 0 1.24 1.24 0 0 0 .656 1.072l-1.072 2.289h.928zm7.473 7.411c0-1.2-.752-1.969-2.112-2.417l-.864-.288c-.944-.3-1.233-.608-1.233-1.12a1.133 1.133 0 0 1 1.338-.931 2.16 2.16 0 0 1 1.7.833l.9-.865a3.1 3.1 0 0 0-2.561-1.152c-1.585 0-2.705.88-2.705 2.177a2.416 2.416 0 0 0 1.985 2.321l.784.256c1.041.336 1.425.72 1.425 1.28a1.218 1.218 0 0 1-1.409 1.089 2.149 2.149 0 0 1-2.049-1.265l-1.12.608a3.178 3.178 0 0 0 3.137 1.857c1.613 0 2.779-.816 2.779-2.385zm11.536 2.113v-1.232a3.048 3.048 0 0 1-.977.16 1.153 1.153 0 0 1-1.328-1.361v-4.194h2.298v-1.264h-2.3v-2.225h-1.38v2.225h-1.7v1.264h1.7v4.37a2.253 2.253 0 0 0 2.449 2.449 3.835 3.835 0 0 0 1.231-.194zm2.558.112h1.376V114.9c0-1.872 1.025-2.929 2.321-2.929a1.921 1.921 0 0 1 1.889 2.177v4.722h1.361v-4.93a2.95 2.95 0 0 0-3.026-3.233 2.832 2.832 0 0 0-2.545 1.392v-5.234h-1.381v12zm9.6-4a4.22 4.22 0 0 0 7.748 2.257l-1.089-.752a2.833 2.833 0 0 1-5.266-1.232h6.563a3.922 3.922 0 0 0 .016-.417 3.729 3.729 0 0 0-3.81-4.017 4.056 4.056 0 0 0-4.168 4.157zm4.114-2.945a2.4 2.4 0 0 1 2.449 2.1h-5.074a2.617 2.617 0 0 1 2.619-2.104zm11.31 6.947h1.377v-12h-1.377v12zm6.449-11.124a.966.966 0 0 0-.96-.977.994.994 0 0 0-.993.977.984.984 0 0 0 .993.976.956.956 0 0 0 .954-.98zm-1.665 11.124h1.377v-8h-1.377v8zm4.784 0h1.377V114.9c0-1.808.912-2.929 2.209-2.929 1.04 0 1.568.9 1.568 2.193v4.706h1.377v-3.97c0-1.808.9-2.929 2.193-2.929 1.04 0 1.584.9 1.584 2.193v4.706h1.377v-4.914c0-1.953-1.057-3.249-2.8-3.249a2.769 2.769 0 0 0-2.625 1.712 2.516 2.516 0 0 0-2.465-1.712 2.689 2.689 0 0 0-2.417 1.392v-1.232h-1.377v8zm16.625-11.124a.967.967 0 0 0-.961-.977.994.994 0 0 0-.992.977.983.983 0 0 0 .992.976.957.957 0 0 0 .955-.98zm-1.665 11.124h1.377v-8h-1.377v8zm9.122-.112v-1.232a3.048 3.048 0 0 1-.977.16 1.153 1.153 0 0 1-1.328-1.361v-4.194h2.305v-1.264h-2.305v-2.225h-1.377v2.225h-1.7v1.264h1.7v4.37a2.253 2.253 0 0 0 2.449 2.449 3.835 3.835 0 0 0 1.227-.196zm4.463-.96a1.185 1.185 0 1 0-1.185 1.2 1.207 1.207 0 0 0 1.183-1.203zm18.8-4.61a5.874 5.874 0 1 0-5.874 5.874 5.818 5.818 0 0 0 5.872-5.878zm-10.244 0a4.379 4.379 0 1 1 4.37 4.466 4.357 4.357 0 0 1-4.373-4.47zm12.944 2.593c0 1.985 1.184 3.249 2.945 3.249a2.754 2.754 0 0 0 2.465-1.392v1.232h1.377v-8h-1.377v3.969c0 1.841-.976 2.93-2.225 2.93-1.1 0-1.809-.849-1.809-2.193v-4.706H200.6v4.914zm10.176 3.089h1.376V114.9c0-1.872 1.1-2.753 2.113-2.753a2.011 2.011 0 0 1 .752.128v-1.424a2.851 2.851 0 0 0-.624-.064 2.381 2.381 0 0 0-2.241 1.632v-1.552h-1.376v8zm11.424 0h1.377v-6.739h2.321v-1.264h-2.321V109.4a1.152 1.152 0 0 1 1.328-1.36 3.233 3.233 0 0 1 .993.16v-1.217a3.646 3.646 0 0 0-1.249-.208 2.286 2.286 0 0 0-2.449 2.481v1.617h-1.7v1.264h1.7v6.739zm6.867-11.124a.967.967 0 0 0-.961-.977.994.994 0 0 0-.992.977.983.983 0 0 0 .992.976.957.957 0 0 0 .958-.98zm-1.669 11.12h1.377v-8H227.4v8zm4.766 0h1.376V114.9c0-1.872 1.1-2.753 2.113-2.753a2.011 2.011 0 0 1 .752.128v-1.424a2.851 2.851 0 0 0-.624-.064 2.381 2.381 0 0 0-2.241 1.632v-1.552h-1.376v8zm11.7-2.225c0-1.2-.752-1.969-2.113-2.417l-.864-.288c-.945-.3-1.233-.608-1.233-1.12a1.133 1.133 0 0 1 1.345-.929 2.159 2.159 0 0 1 1.7.833l.9-.865a3.1 3.1 0 0 0-2.561-1.152c-1.585 0-2.705.88-2.705 2.177a2.416 2.416 0 0 0 1.984 2.321l.785.256c1.04.336 1.424.72 1.424 1.28a1.218 1.218 0 0 1-1.408 1.089 2.148 2.148 0 0 1-2.049-1.265l-1.12.608a3.177 3.177 0 0 0 3.137 1.857c1.612 0 2.777-.816 2.777-2.385zm7.007 2.113v-1.232a3.041 3.041 0 0 1-.976.16 1.153 1.153 0 0 1-1.328-1.361v-4.194h2.3v-1.264h-2.3v-2.225h-1.377v2.225h-1.7v1.264h1.7v4.37a2.252 2.252 0 0 0 2.449 2.449 3.828 3.828 0 0 0 1.231-.192zm7.727.112h1.377v-6.739h2.323v-1.264h-2.321V109.4a1.152 1.152 0 0 1 1.328-1.36 3.233 3.233 0 0 1 .993.16v-1.217a3.646 3.646 0 0 0-1.249-.208 2.286 2.286 0 0 0-2.449 2.481v1.617h-1.7v1.264h1.7v6.739zm5.2 0h1.377v-12H263.8v12zm6.43-11.124a.966.966 0 0 0-.96-.977 1 1 0 0 0-.993.977.984.984 0 0 0 .993.976.956.956 0 0 0 .961-.976zm-1.664 11.124h1.376v-8h-1.376v8zm12.242-.464v-7.539h-1.376v1.232a3.406 3.406 0 0 0-2.785-1.392 4.077 4.077 0 0 0 0 8.147 3.418 3.418 0 0 0 2.785-1.408v.912a2.558 2.558 0 0 1-2.673 2.769 3.421 3.421 0 0 1-2.8-1.345l-.961.961a4.754 4.754 0 0 0 3.778 1.633 3.7 3.7 0 0 0 4.033-3.97zm-6.674-3.634a2.707 2.707 0 1 1 2.7 2.8 2.667 2.667 0 0 1-2.699-2.8zm10.063 4.1h1.377V114.9c0-1.872 1.024-2.929 2.321-2.929a1.922 1.922 0 0 1 1.889 2.177v4.722h1.36v-4.93a2.949 2.949 0 0 0-3.025-3.233 2.829 2.829 0 0 0-2.545 1.392v-5.234H284.2v12zm14.466-.112v-1.232a3.041 3.041 0 0 1-.976.16 1.153 1.153 0 0 1-1.329-1.361v-4.194h2.305v-1.264h-2.305v-2.225h-1.377v2.225h-1.7v1.264h1.7v4.37a2.253 2.253 0 0 0 2.449 2.449 3.83 3.83 0 0 0 1.234-.194zm7.744-2.113c0-1.2-.752-1.969-2.113-2.417l-.864-.288c-.944-.3-1.232-.608-1.232-1.12a1.132 1.132 0 0 1 1.344-.929 2.161 2.161 0 0 1 1.7.833l.9-.865a3.1 3.1 0 0 0-2.561-1.152c-1.585 0-2.7.88-2.7 2.177a2.416 2.416 0 0 0 1.985 2.321l.784.256c1.041.336 1.425.72 1.425 1.28a1.219 1.219 0 0 1-1.409 1.089 2.149 2.149 0 0 1-2.049-1.265l-1.12.608a3.178 3.178 0 0 0 3.137 1.857c1.606-.002 2.774-.818 2.774-2.387zm2.654-.864c0 1.985 1.184 3.249 2.945 3.249a2.753 2.753 0 0 0 2.465-1.392v1.232h1.377v-8h-1.377v3.969c0 1.841-.976 2.93-2.225 2.93-1.1 0-1.809-.849-1.809-2.193v-4.706h-1.376v4.914zm11.841-8.035a.967.967 0 0 0-.961-.977.994.994 0 0 0-.992.977.983.983 0 0 0 .992.976.957.957 0 0 0 .959-.978zm-1.665 11.124h1.376v-8h-1.376v8zm9.122-.112v-1.232a3.052 3.052 0 0 1-.977.16 1.153 1.153 0 0 1-1.328-1.361v-4.194h2.305v-1.264h-2.305v-2.225h-1.377v2.225h-1.7v1.264h1.7v4.37a2.252 2.252 0 0 0 2.449 2.449 3.84 3.84 0 0 0 1.234-.194zm6.637-3.89a4.005 4.005 0 0 0 3.922 4.162 3.51 3.51 0 0 0 2.817-1.392v1.232h1.377v-8h-1.377v1.227a3.51 3.51 0 0 0-2.817-1.392 4.005 4.005 0 0 0-3.918 4.161zm6.851 0a2.734 2.734 0 1 1-2.721-2.9 2.733 2.733 0 0 1 2.722 2.898zm4.653 7.347h1.377v-4.577a3.51 3.51 0 0 0 2.817 1.392 4.169 4.169 0 0 0 0-8.323 3.51 3.51 0 0 0-2.817 1.392v-1.232H346.5v11.348zm6.707-7.347a2.726 2.726 0 1 1-2.721-2.9 2.733 2.733 0 0 1 2.722 2.898zm4.189 7.347h1.377v-4.577a3.51 3.51 0 0 0 2.817 1.392 4.169 4.169 0 0 0 0-8.323 3.51 3.51 0 0 0-2.817 1.392v-1.232H357.4v11.348zm6.707-7.347a2.726 2.726 0 1 1-2.721-2.9 2.733 2.733 0 0 1 2.718 2.898zm3.565 0a4.219 4.219 0 0 0 7.747 2.257l-1.088-.752a2.833 2.833 0 0 1-5.266-1.232h6.562a3.922 3.922 0 0 0 .016-.417 3.728 3.728 0 0 0-3.809-4.017 4.056 4.056 0 0 0-4.161 4.159zm4.114-2.945a2.4 2.4 0 0 1 2.449 2.1h-5.074a2.616 2.616 0 0 1 2.626-2.102zm5.982 2.945a4.005 4.005 0 0 0 3.921 4.162 3.512 3.512 0 0 0 2.818-1.392v1.232h1.376v-8H384.5v1.227a3.512 3.512 0 0 0-2.818-1.392 4 4 0 0 0-3.917 4.161zm6.851 0a2.734 2.734 0 1 1-2.721-2.9 2.733 2.733 0 0 1 2.722 2.898zm4.653 4h1.377V114.9c0-1.872 1.1-2.753 2.112-2.753a2.013 2.013 0 0 1 .753.128v-1.424a2.854 2.854 0 0 0-.625-.064 2.38 2.38 0 0 0-2.24 1.632v-1.552h-1.377v8zm5.744-4a4.219 4.219 0 0 0 7.747 2.257l-1.088-.752a2.834 2.834 0 0 1-5.267-1.232h6.563a3.922 3.922 0 0 0 .016-.417 3.729 3.729 0 0 0-3.809-4.017 4.056 4.056 0 0 0-4.161 4.159zm4.114-2.945a2.4 2.4 0 0 1 2.449 2.1H396.5a2.618 2.618 0 0 1 2.627-2.102zm5.982 2.945a4 4 0 0 0 3.921 4.162 3.509 3.509 0 0 0 2.817-1.392v1.232h1.377v-12h-1.377v5.227a3.509 3.509 0 0 0-2.817-1.392 4 4 0 0 0-3.92 4.161zm6.851 0a2.734 2.734 0 1 1-2.722-2.9 2.734 2.734 0 0 1 2.723 2.898zm11.021-7.122a.966.966 0 0 0-.96-.977.994.994 0 0 0-.992.977.983.983 0 0 0 .992.976.956.956 0 0 0 .961-.978zm-1.664 11.124h1.376v-8h-1.376v8zm4.784 0h1.376V114.9c0-1.872 1.024-2.929 2.321-2.929a1.922 1.922 0 0 1 1.889 2.177v4.722h1.36v-4.93a2.949 2.949 0 0 0-3.025-3.233 2.831 2.831 0 0 0-2.545 1.392v-1.232H426.1v8zm14.3-4a4.005 4.005 0 0 0 3.922 4.162 3.512 3.512 0 0 0 2.817-1.392v1.232h1.376v-8h-1.376v1.225a3.512 3.512 0 0 0-2.817-1.392 4.005 4.005 0 0 0-3.922 4.161zm6.851 0a2.734 2.734 0 1 1-2.721-2.9 2.733 2.733 0 0 1 2.725 2.896zm10.349 4h1.377v-11.366h-2.449l-1.121 1.36h2.193v10zm4.864 0h1.76l4.162-4.914a4.367 4.367 0 0 0 1.281-2.9 3.85 3.85 0 0 0-7.7.048 3.67 3.67 0 0 0 3.553 3.649 2.039 2.039 0 0 0 .448-.032zm.912-7.779a2.441 2.441 0 1 1 2.433 2.449 2.415 2.415 0 0 1-2.429-2.451zm16.019 4.37a3.176 3.176 0 0 0-1.777-2.977 2.663 2.663 0 0 0 1.152-2.241 2.95 2.95 0 0 0-3.185-2.93 2.991 2.991 0 0 0-3.2 2.93 2.652 2.652 0 0 0 1.184 2.241 3.175 3.175 0 0 0-1.808 2.977 3.826 3.826 0 0 0 7.639-.002zm-5.651-5.186a1.692 1.692 0 0 1 1.841-1.665 1.66 1.66 0 0 1 1.825 1.665 1.7 1.7 0 0 1-1.825 1.68 1.732 1.732 0 0 1-1.837-1.682zm-.592 5.186a2.256 2.256 0 0 1 2.433-2.273 2.27 2.27 0 1 1 0 4.53 2.262 2.262 0 0 1-2.429-2.259zm16.8-.7v-3.169a4.033 4.033 0 1 0-8.051 0v3.169a4.033 4.033 0 1 0 8.058-.007zm-6.675 0v-3.169a2.662 2.662 0 1 1 5.3 0v3.169a2.662 2.662 0 1 1-5.293-.007zm14.639 4.114h4.066c2.305 0 3.81-1.424 3.81-3.313a2.708 2.708 0 0 0-1.969-2.721 2.578 2.578 0 0 0 1.216-2.321 3.111 3.111 0 0 0-3.393-3.009h-3.73v11.364zm1.489-6.483v-3.537h2.241a1.787 1.787 0 0 1 1.937 1.777 1.749 1.749 0 0 1-1.937 1.76h-2.241zm0 5.139v-3.858h2.657c1.5 0 2.273.832 2.273 1.937 0 1.12-.768 1.921-2.289 1.921h-2.641zm8.543-2.658a4.005 4.005 0 0 0 3.922 4.162 3.51 3.51 0 0 0 2.817-1.392v1.232h1.376v-8h-1.376v1.222a3.51 3.51 0 0 0-2.817-1.392 4.005 4.005 0 0 0-3.915 4.161zm6.851 0a2.734 2.734 0 1 1-2.721-2.9 2.733 2.733 0 0 1 2.728 2.893zm4.653 4h1.377V114.9c0-1.872 1.024-2.929 2.321-2.929a1.921 1.921 0 0 1 1.888 2.177v4.722h1.361v-4.93a2.949 2.949 0 0 0-3.025-3.233 2.829 2.829 0 0 0-2.545 1.392v-1.232h-1.377v8zm9.6-4a4 4 0 0 0 3.921 4.162 3.509 3.509 0 0 0 2.817-1.392v1.232h1.377v-8H535.8v1.222a3.509 3.509 0 0 0-2.817-1.392 4 4 0 0 0-3.924 4.161zm6.85 0a2.734 2.734 0 1 1-2.721-2.9 2.733 2.733 0 0 1 2.728 2.893zm4.654 4h1.376V114.9c0-1.872 1.025-2.929 2.321-2.929a1.921 1.921 0 0 1 1.889 2.177v4.722h1.361v-4.93a2.95 2.95 0 0 0-3.026-3.233 2.832 2.832 0 0 0-2.545 1.392v-1.232h-1.376v8zm9.6-4a4.005 4.005 0 0 0 3.922 4.162 3.51 3.51 0 0 0 2.817-1.392v1.232h1.377v-8H556.9v1.222a3.51 3.51 0 0 0-2.817-1.392 4.005 4.005 0 0 0-3.921 4.161zm6.851 0a2.734 2.734 0 1 1-2.721-2.9 2.733 2.733 0 0 1 2.727 2.893zm9.565 4h1.489V113.7h1.1l4.37 5.17h1.873l-4.37-5.186a2.965 2.965 0 0 0 2.8-3.041 3.065 3.065 0 0 0-3.393-3.137h-3.874v11.364zm1.489-6.5v-3.489h2.209c1.3 0 2.081.608 2.081 1.761 0 1.136-.785 1.728-2.081 1.728h-2.209zm8.4 2.5a4.219 4.219 0 0 0 7.747 2.257l-1.088-.752a2.834 2.834 0 0 1-5.267-1.232h6.563a3.922 3.922 0 0 0 .016-.417 3.729 3.729 0 0 0-3.809-4.017 4.056 4.056 0 0 0-4.157 4.154zm4.114-2.945a2.4 2.4 0 0 1 2.449 2.1h-5.074a2.616 2.616 0 0 1 2.63-2.107zm6.606 10.292h1.377v-4.577a3.509 3.509 0 0 0 2.817 1.392 4.169 4.169 0 0 0 0-8.323 3.509 3.509 0 0 0-2.817 1.392v-1.232h-1.377v11.348zm6.707-7.347a2.726 2.726 0 1 1-2.721-2.9 2.733 2.733 0 0 1 2.726 2.893zm4.077.913c0 1.985 1.184 3.249 2.945 3.249a2.753 2.753 0 0 0 2.465-1.392v1.232h1.377v-8h-1.372v3.969c0 1.841-.976 2.93-2.225 2.93-1.1 0-1.808-.849-1.808-2.193v-4.706h-1.377v4.914zm11.552 1.857a3.512 3.512 0 0 0 2.818 1.392 4.169 4.169 0 0 0 0-8.323 3.512 3.512 0 0 0-2.818 1.392v-5.234h-1.376v12h1.376v-1.232zm5.331-2.77a2.727 2.727 0 1 1-2.721-2.9 2.733 2.733 0 0 1 2.726 2.893zm4.173 4h1.379v-12h-1.376v12zm6.448-11.124a.966.966 0 0 0-.96-.977.994.994 0 0 0-.992.977.983.983 0 0 0 .992.976.956.956 0 0 0 .965-.981zm-1.664 11.124h1.376v-8h-1.371v8zm12.05-1.985l-1.2-.672a2.714 2.714 0 0 1-2.5 1.537 2.883 2.883 0 0 1 0-5.763 2.714 2.714 0 0 1 2.5 1.537l1.2-.672a4.162 4.162 0 1 0 .005 4.028zm-597.96 20l-1.2-.672a2.714 2.714 0 0 1-2.5 1.537 2.883 2.883 0 0 1 0-5.763 2.714 2.714 0 0 1 2.5 1.537l1.2-.672a4.144 4.144 0 0 0-3.7-2.145 4.162 4.162 0 1 0 0 8.323 4.144 4.144 0 0 0 3.705-2.15zm1.949-2.017a4.005 4.005 0 0 0 3.922 4.162 3.51 3.51 0 0 0 2.817-1.392v1.232h1.377v-8h-1.373v1.224a3.51 3.51 0 0 0-2.817-1.392 4 4 0 0 0-3.921 4.161zm6.851 0a2.734 2.734 0 1 1-2.721-2.9 2.733 2.733 0 0 1 2.726 2.895zm8.991 3.89v-1.232a3.043 3.043 0 0 1-.976.16 1.153 1.153 0 0 1-1.328-1.361v-4.194h2.3v-1.264h-2.3v-2.225h-1.373v2.225h-1.7v1.264h1.7v4.37a2.253 2.253 0 0 0 2.449 2.449 3.831 3.831 0 0 0 1.232-.197zm1.822-3.89a4.005 4.005 0 0 0 3.922 4.162 3.51 3.51 0 0 0 2.817-1.392v1.232h1.376v-8h-1.372v1.224a3.51 3.51 0 0 0-2.817-1.392 4 4 0 0 0-3.921 4.161zm6.851 0a2.734 2.734 0 1 1-2.721-2.9 2.733 2.733 0 0 1 2.725 2.895zm4.653 4h1.377v-12.008h-1.372v12.005zm12.515-4a4.186 4.186 0 1 0-4.178 4.162 4.107 4.107 0 0 0 4.183-4.167zm-6.963 0a2.779 2.779 0 1 1 2.785 2.882 2.751 2.751 0 0 1-2.78-2.887zm17.187 3.538v-7.539h-1.372v1.227a3.406 3.406 0 0 0-2.785-1.392 4.077 4.077 0 0 0 0 8.147 3.418 3.418 0 0 0 2.785-1.408v.912a2.558 2.558 0 0 1-2.673 2.769 3.422 3.422 0 0 1-2.8-1.345l-.96.961a4.753 4.753 0 0 0 3.778 1.633 3.7 3.7 0 0 0 4.031-3.97zm-6.675-3.634a2.707 2.707 0 1 1 2.705 2.8 2.667 2.667 0 0 1-2.7-2.805zm11.973 3.022a1.185 1.185 0 1 0-1.184 1.2 1.206 1.206 0 0 0 1.184-1.2zm7.839 1.072h3.265a5.693 5.693 0 1 0 0-11.364h-3.265v11.364zm1.489-1.392v-8.58h1.776a4.3 4.3 0 1 1 0 8.58h-1.776zm10.511-1.7c0 1.985 1.184 3.249 2.945 3.249a2.753 2.753 0 0 0 2.465-1.392v1.232h1.377v-8H122.3v3.969c0 1.841-.976 2.93-2.225 2.93-1.1 0-1.809-.849-1.809-2.193v-4.706h-1.376v4.914zm11.552 1.857a3.512 3.512 0 0 0 2.818 1.392 4.169 4.169 0 0 0 0-8.323 3.512 3.512 0 0 0-2.818 1.392v-5.234h-1.376v12.005h1.376v-1.232zm5.331-2.77a2.727 2.727 0 1 1-2.721-2.9 2.733 2.733 0 0 1 2.721 2.902zm5.549 2.77a3.512 3.512 0 0 0 2.817 1.392 4.169 4.169 0 0 0 0-8.323 3.512 3.512 0 0 0-2.817 1.392v-5.234h-1.376v12.005h1.376v-1.232zm5.33-2.77a2.726 2.726 0 1 1-2.721-2.9 2.733 2.733 0 0 1 2.721 2.902zm3.549 0a4.219 4.219 0 0 0 7.747 2.257l-1.088-.752a2.833 2.833 0 0 1-5.266-1.232h6.563a3.922 3.922 0 0 0 .016-.417 3.729 3.729 0 0 0-3.81-4.017 4.056 4.056 0 0 0-4.161 4.163zm4.114-2.945a2.4 2.4 0 0 1 2.449 2.1h-5.074a2.616 2.616 0 0 1 2.625-2.098zm5.982 2.945a4.005 4.005 0 0 0 3.922 4.162 3.51 3.51 0 0 0 2.817-1.392v1.232h1.376v-12.003h-1.376v5.234a3.51 3.51 0 0 0-2.817-1.392 4.005 4.005 0 0 0-3.922 4.161zm6.851 0a2.734 2.734 0 1 1-2.721-2.9 2.733 2.733 0 0 1 2.721 2.902zm13.423 3.89v-1.232a3.043 3.043 0 0 1-.977.16 1.153 1.153 0 0 1-1.328-1.361v-4.194h2.3v-1.264h-2.3v-2.225h-1.377v2.225h-1.7v1.264h1.7v4.37a2.253 2.253 0 0 0 2.449 2.449 3.83 3.83 0 0 0 1.233-.19zm2.558.112h1.373V134.9c0-1.872 1.024-2.929 2.321-2.929a1.921 1.921 0 0 1 1.888 2.177v4.722h1.361v-4.93a2.949 2.949 0 0 0-3.025-3.233 2.829 2.829 0 0 0-2.545 1.393v-5.234h-1.377v12.005zm9.6-4a4.219 4.219 0 0 0 7.747 2.257l-1.089-.752a2.833 2.833 0 0 1-5.266-1.232h6.563a3.922 3.922 0 0 0 .016-.417 3.729 3.729 0 0 0-3.81-4.017 4.055 4.055 0 0 0-4.161 4.161zm4.113-2.945a2.4 2.4 0 0 1 2.449 2.1h-5.074a2.617 2.617 0 0 1 2.625-2.1zm11.519 6.947h1.488v-5.106h4.05v-1.409h-4.05v-3.441h5.122v-1.408h-6.61v11.364zm9.055 0h1.377v-12.005h-1.377v12.005zm6.449-11.124a.966.966 0 0 0-.96-.977.994.994 0 0 0-.993.977.984.984 0 0 0 .993.976.956.956 0 0 0 .96-.976zm-1.663 11.124h1.377v-8H220.2v8zm12.243-.464v-7.539h-1.376v1.232a3.407 3.407 0 0 0-2.785-1.392 4.077 4.077 0 0 0 0 8.147 3.42 3.42 0 0 0 2.785-1.408v.912a2.558 2.558 0 0 1-2.673 2.769 3.424 3.424 0 0 1-2.8-1.345l-.96.961a4.753 4.753 0 0 0 3.778 1.633 3.7 3.7 0 0 0 4.029-3.97zm-6.674-3.634a2.707 2.707 0 1 1 2.705 2.8 2.667 2.667 0 0 1-2.707-2.8zm10.063 4.1h1.377V134.9c0-1.872 1.024-2.929 2.321-2.929a1.921 1.921 0 0 1 1.888 2.177v4.722h1.361v-4.93a2.949 2.949 0 0 0-3.025-3.233 2.829 2.829 0 0 0-2.545 1.392v-5.234h-1.379v12.005zm14.466-.112v-1.232a3.048 3.048 0 0 1-.977.16 1.153 1.153 0 0 1-1.328-1.361v-4.194h2.3v-1.264h-2.3v-2.225h-1.377v2.225h-1.7v1.264h1.7v4.37a2.253 2.253 0 0 0 2.449 2.449 3.835 3.835 0 0 0 1.235-.194zm12.528-3.025v-8.227h-1.472v8.067a1.815 1.815 0 0 1-1.873 2.113 1.779 1.779 0 0 1-1.889-1.857h-1.472a3.127 3.127 0 0 0 3.377 3.233 3.069 3.069 0 0 0 3.327-3.331zm3.246.048c0 1.985 1.184 3.249 2.945 3.249a2.753 2.753 0 0 0 2.465-1.392v1.232h1.377v-8h-1.379v3.969c0 1.841-.976 2.93-2.225 2.93-1.1 0-1.809-.849-1.809-2.193v-4.706h-1.376v4.914zm10.176 3.089h1.376V134.9c0-1.808.913-2.929 2.209-2.929 1.041 0 1.569.9 1.569 2.193v4.706h1.377v-3.97c0-1.808.9-2.929 2.192-2.929 1.041 0 1.585.9 1.585 2.193v4.706h1.377v-4.914c0-1.953-1.057-3.249-2.8-3.249a2.771 2.771 0 0 0-2.625 1.712 2.515 2.515 0 0 0-2.465-1.712 2.692 2.692 0 0 0-2.417 1.392v-1.232h-1.376v8zm14.96 3.345h1.376v-4.577a3.512 3.512 0 0 0 2.817 1.392 4.169 4.169 0 0 0 0-8.323 3.512 3.512 0 0 0-2.817 1.392v-1.232h-1.376v11.348zm6.706-7.347a2.726 2.726 0 1 1-2.721-2.9 2.733 2.733 0 0 1 2.719 2.898zm9.36 1.777c0-1.2-.752-1.969-2.113-2.417l-.864-.288c-.945-.3-1.233-.608-1.233-1.12a1.133 1.133 0 0 1 1.345-.929 2.159 2.159 0 0 1 1.7.833l.9-.865a3.1 3.1 0 0 0-2.561-1.152c-1.585 0-2.705.88-2.705 2.177a2.416 2.416 0 0 0 1.985 2.321l.784.256c1.04.336 1.424.72 1.424 1.28a1.218 1.218 0 0 1-1.408 1.089 2.148 2.148 0 0 1-2.049-1.265l-1.12.608a3.177 3.177 0 0 0 3.137 1.857c1.604-.002 2.776-.818 2.776-2.387zm2.654-.864c0 1.985 1.184 3.249 2.945 3.249a2.754 2.754 0 0 0 2.465-1.392v1.232h1.376v-8h-1.376v3.969c0 1.841-.977 2.93-2.225 2.93-1.1 0-1.809-.849-1.809-2.193v-4.706h-1.376v4.914zm11.84-8.035a.966.966 0 0 0-.96-.977 1 1 0 0 0-.993.977.984.984 0 0 0 .993.976.956.956 0 0 0 .958-.978zm-1.668 11.122h1.376v-8H320.1v8zm9.121-.112v-1.232a3.041 3.041 0 0 1-.976.16 1.153 1.153 0 0 1-1.329-1.361v-4.194h2.305v-1.264h-2.305v-2.225h-1.376v2.225h-1.7v1.264h1.7v4.37a2.252 2.252 0 0 0 2.449 2.449 3.828 3.828 0 0 0 1.234-.192zm4.271-.24a1.368 1.368 0 0 0 .224-.72 1.185 1.185 0 1 0-2.369 0 1.19 1.19 0 0 0 .657 1.072l-1.073 2.289h.912zm9.552-10.772a.967.967 0 0 0-.961-.977.994.994 0 0 0-.992.977.983.983 0 0 0 .992.976.957.957 0 0 0 .963-.976zm-1.665 11.124h1.377v-8h-1.377v8zm9.122-.112v-1.232a3.043 3.043 0 0 1-.977.16 1.153 1.153 0 0 1-1.328-1.361v-4.194h2.304v-1.264h-2.3v-2.225h-1.377v2.225h-1.7v1.264h1.7v4.37a2.253 2.253 0 0 0 2.449 2.449 3.83 3.83 0 0 0 1.228-.192zm13.761.112h1.216l2.721-8h-1.456l-1.937 5.842-2-5.842h-1.056l-2 5.842-1.937-5.842h-1.44l2.721 8h1.216l1.985-5.762zm5.565-4a4 4 0 0 0 3.921 4.162 3.509 3.509 0 0 0 2.817-1.392v1.232h1.377v-8h-1.377v1.227a3.509 3.509 0 0 0-2.817-1.392 4 4 0 0 0-3.919 4.161zm6.85 0a2.734 2.734 0 1 1-2.721-2.9 2.733 2.733 0 0 1 2.723 2.898zm9.84 1.777c0-1.2-.753-1.969-2.113-2.417l-.864-.288c-.945-.3-1.233-.608-1.233-1.12a1.133 1.133 0 0 1 1.345-.929 2.159 2.159 0 0 1 1.7.833l.9-.865a3.106 3.106 0 0 0-2.561-1.152c-1.585 0-2.706.88-2.706 2.177a2.417 2.417 0 0 0 1.985 2.321l.785.256c1.04.336 1.424.72 1.424 1.28a1.218 1.218 0 0 1-1.408 1.089 2.148 2.148 0 0 1-2.049-1.265l-1.121.608a3.18 3.18 0 0 0 3.138 1.857c1.611-.002 2.78-.818 2.78-2.387zm9.134-8.9a.966.966 0 0 0-.96-.977.994.994 0 0 0-.993.977.984.984 0 0 0 .993.976.956.956 0 0 0 .962-.977zm-1.665 11.124h1.377v-8h-1.377v8zm4.784 0h1.377V134.9c0-1.872 1.024-2.929 2.321-2.929a1.921 1.921 0 0 1 1.888 2.177v4.722h1.361v-4.93a2.949 2.949 0 0 0-3.025-3.233 2.829 2.829 0 0 0-2.545 1.392v-1.232h-1.377v8zm15.41-2.225c0-1.2-.752-1.969-2.113-2.417l-.864-.288c-.944-.3-1.233-.608-1.233-1.12a1.133 1.133 0 0 1 1.345-.929 2.163 2.163 0 0 1 1.7.833l.9-.865a3.1 3.1 0 0 0-2.561-1.152c-1.585 0-2.7.88-2.7 2.177a2.416 2.416 0 0 0 1.985 2.321l.784.256c1.04.336 1.425.72 1.425 1.28a1.219 1.219 0 0 1-1.409 1.089 2.149 2.149 0 0 1-2.049-1.265l-1.12.608a3.177 3.177 0 0 0 3.137 1.857c1.607-.001 2.775-.817 2.775-2.386zm2.766 5.57h1.376v-4.577a3.512 3.512 0 0 0 2.818 1.392 4.169 4.169 0 0 0 0-8.323 3.512 3.512 0 0 0-2.818 1.392v-1.232h-1.376v11.348zm6.707-7.347a2.727 2.727 0 1 1-2.722-2.9 2.734 2.734 0 0 1 2.724 2.899zm5.854-7.122a.967.967 0 0 0-.961-.977.994.994 0 0 0-.992.977.983.983 0 0 0 .992.976.957.957 0 0 0 .963-.977zm-1.665 11.124h1.376v-8h-1.376v8zm4.784 0H434V134.9c0-1.872 1.1-2.753 2.113-2.753a2.011 2.011 0 0 1 .752.128v-1.424a2.851 2.851 0 0 0-.624-.064A2.381 2.381 0 0 0 434 132.42v-1.552h-1.376v8zm5.744-4a4.219 4.219 0 0 0 7.747 2.257l-1.089-.752a2.833 2.833 0 0 1-5.266-1.232h6.563a3.922 3.922 0 0 0 .016-.417 3.729 3.729 0 0 0-3.81-4.017 4.055 4.055 0 0 0-4.159 4.158zm4.113-2.945a2.4 2.4 0 0 1 2.449 2.1h-5.072a2.617 2.617 0 0 1 2.625-2.103zm5.982 2.945a4.005 4.005 0 0 0 3.922 4.162 3.509 3.509 0 0 0 2.817-1.392v1.232h1.377v-12.008h-1.377v5.234a3.509 3.509 0 0 0-2.817-1.392 4.005 4.005 0 0 0-3.92 4.161zm6.851 0a2.734 2.734 0 1 1-2.721-2.9 2.733 2.733 0 0 1 2.723 2.897zm10.734 2.77a3.51 3.51 0 0 0 2.817 1.392 4.169 4.169 0 0 0 0-8.323 3.51 3.51 0 0 0-2.817 1.392v-5.234h-1.377v12.005h1.377v-1.232zm5.33-2.77a2.726 2.726 0 1 1-2.721-2.9 2.733 2.733 0 0 1 2.723 2.897zm6.142 7.347l5.25-11.348h-1.536l-2.737 6.066-2.754-6.066h-1.52l3.505 7.587-1.744 3.761h1.536zm15.841-3.457v-1.232a3.041 3.041 0 0 1-.976.16 1.153 1.153 0 0 1-1.329-1.361v-4.194h2.305v-1.264h-2.303v-2.225h-1.376v2.225h-1.7v1.264h1.7v4.37a2.252 2.252 0 0 0 2.449 2.449 3.828 3.828 0 0 0 1.232-.195zm2.558.112h1.379V134.9c0-1.872 1.024-2.929 2.321-2.929a1.921 1.921 0 0 1 1.888 2.177v4.722h1.361v-4.93a2.949 2.949 0 0 0-3.025-3.233 2.829 2.829 0 0 0-2.545 1.393v-5.234h-1.377v12.005zm9.6-4a4.219 4.219 0 0 0 7.747 2.257l-1.089-.752a2.833 2.833 0 0 1-5.266-1.232h6.563a3.922 3.922 0 0 0 .016-.417 3.729 3.729 0 0 0-3.81-4.017 4.055 4.055 0 0 0-4.159 4.156zm4.113-2.945a2.4 2.4 0 0 1 2.449 2.1h-5.074a2.617 2.617 0 0 1 2.627-2.105zm20.274 2.529v-6.946h-1.488v6.978a2.968 2.968 0 1 1-5.923 0v-6.978h-1.488v6.946a4.452 4.452 0 1 0 8.901-.005zm4.942 3.346a1.185 1.185 0 1 0-1.185 1.2 1.206 1.206 0 0 0 1.187-1.204zm2.207-.785a4.386 4.386 0 0 0 3.985 2.049c2.113 0 3.618-1.216 3.618-3.153 0-1.681-.961-2.641-2.641-3.281l-1.377-.529c-1.152-.432-1.713-.864-1.713-1.824a1.81 1.81 0 0 1 2.049-1.569 2.812 2.812 0 0 1 2.257 1.12l1.089-.96a4.148 4.148 0 0 0-3.314-1.553c-2.033 0-3.553 1.169-3.553 3.026 0 1.552.8 2.481 2.577 3.137l1.5.576a2.066 2.066 0 0 1 1.633 1.921 1.846 1.846 0 0 1-2.1 1.7 3.177 3.177 0 0 1-2.817-1.553zm12.288.785a1.185 1.185 0 1 0-1.184 1.2 1.206 1.206 0 0 0 1.186-1.204zm17.524 1.072v-11.369H565.4v8.851l-6.915-8.851h-1.3v11.364h1.488v-8.851l6.915 8.851h1.281zm2.843-4a4.005 4.005 0 0 0 3.922 4.162 3.51 3.51 0 0 0 2.817-1.392v1.232h1.377v-8h-1.377v1.222a3.51 3.51 0 0 0-2.817-1.392 4.005 4.005 0 0 0-3.92 4.161zm6.851 0a2.734 2.734 0 1 1-2.721-2.9 2.733 2.733 0 0 1 2.723 2.893zm7.15 4h1.153l3.7-8h-1.536l-2.737 6.05-2.737-6.05h-1.537zm9.168 3.345l5.25-11.348H596.6l-2.738 6.066-2.753-6.066h-1.52l3.5 7.587-1.745 3.761h1.537zm9.472-12.981a1.414 1.414 0 0 0 .224-.72 1.193 1.193 0 1 0-2.385 0 1.24 1.24 0 0 0 .656 1.072l-1.072 2.289h.928zm7.473 7.411c0-1.2-.752-1.969-2.113-2.417l-.864-.288c-.944-.3-1.232-.608-1.232-1.12a1.132 1.132 0 0 1 1.344-.929 2.161 2.161 0 0 1 1.7.833l.9-.865a3.1 3.1 0 0 0-2.561-1.157c-1.584 0-2.705.88-2.705 2.177a2.416 2.416 0 0 0 1.985 2.321l.784.256c1.041.336 1.425.72 1.425 1.28a1.218 1.218 0 0 1-1.409 1.089 2.15 2.15 0 0 1-2.049-1.265l-1.12.608a3.178 3.178 0 0 0 3.137 1.857c1.612 0 2.78-.816 2.78-2.385zm16.162 2.225h1.328l3.105-11.364h-1.552l-2.385 8.867-3.281-9.06-3.266 9.06-2.385-8.867H616l3.105 11.364h1.328l2.786-7.715zm15.952 0h1.328l3.105-11.364h-1.552l-2.385 8.867-3.282-9.06-3.265 9.06-2.385-8.867h-1.552l3.105 11.364h1.328l2.785-7.715zm7.1 0h1.488v-11.369h-1.488v11.364zm5.3 0h1.488v-11.369h-1.488v11.364zM30.521 155.782c0 1.985 1.185 3.249 2.945 3.249a2.754 2.754 0 0 0 2.465-1.392v1.232h1.377v-8h-1.377v3.969c0 1.841-.976 2.93-2.225 2.93-1.1 0-1.809-.849-1.809-2.193v-4.706h-1.376v4.914zm10.179 3.089h1.377V154.9c0-1.872 1.024-2.929 2.321-2.929a1.921 1.921 0 0 1 1.889 2.177v4.722h1.361v-4.93a2.949 2.949 0 0 0-3.025-3.233 2.83 2.83 0 0 0-2.545 1.392v-1.232H40.7v8zm11.889-11.124a.967.967 0 0 0-.96-.977.994.994 0 0 0-.992.977.984.984 0 0 0 .992.976.957.957 0 0 0 .957-.976zm-1.665 11.124H52.3v-8h-1.379v8zm5.456 0h1.377v-6.739h2.321v-1.264h-2.324V149.4a1.152 1.152 0 0 1 1.328-1.36 3.224 3.224 0 0 1 .992.16v-1.217a3.639 3.639 0 0 0-1.248-.208 2.286 2.286 0 0 0-2.449 2.481v1.617h-1.7v1.264h1.7v6.739zm13.523-4a4.186 4.186 0 1 0-4.178 4.162 4.107 4.107 0 0 0 4.175-4.164zm-6.963 0a2.779 2.779 0 1 1 2.785 2.882 2.751 2.751 0 0 1-2.788-2.884zm9.728 4h1.377V154.9c0-1.872 1.1-2.753 2.113-2.753a2.013 2.013 0 0 1 .752.128v-1.424a2.852 2.852 0 0 0-.624-.064 2.381 2.381 0 0 0-2.241 1.632v-1.552h-1.38v8zm6.656 0H80.7V154.9c0-1.808.912-2.929 2.209-2.929 1.04 0 1.569.9 1.569 2.193v4.706h1.377v-3.97c0-1.808.9-2.929 2.193-2.929 1.04 0 1.585.9 1.585 2.193v4.706h1.377v-4.914c0-1.953-1.056-3.249-2.8-3.249a2.77 2.77 0 0 0-2.625 1.712 2.516 2.516 0 0 0-2.465-1.712 2.69 2.69 0 0 0-2.42 1.393v-1.232h-1.379v8zm20.146-2.225c0-1.2-.752-1.969-2.113-2.417l-.864-.288c-.944-.3-1.233-.608-1.233-1.12a1.133 1.133 0 0 1 1.344-.929 2.161 2.161 0 0 1 1.7.833l.9-.865a3.1 3.1 0 0 0-2.561-1.152c-1.585 0-2.705.88-2.705 2.177a2.416 2.416 0 0 0 1.985 2.321l.784.256c1.04.336 1.425.72 1.425 1.28a1.218 1.218 0 0 1-1.409 1.089 2.149 2.149 0 0 1-2.049-1.265l-1.12.608a3.178 3.178 0 0 0 3.137 1.857c1.609 0 2.776-.816 2.776-2.385zm4.671 1.153a1.185 1.185 0 1 0-1.184 1.2 1.206 1.206 0 0 0 1.18-1.199zm7.839 1.072h1.489V153.7h1.1l4.37 5.17h1.873l-4.37-5.186a2.965 2.965 0 0 0 2.8-3.041 3.065 3.065 0 0 0-3.393-3.137h-3.874v11.364zm1.489-6.5v-3.489h2.209c1.3 0 2.08.608 2.08 1.761 0 1.136-.784 1.728-2.08 1.728h-2.209zm8.4 2.5a4.219 4.219 0 0 0 7.747 2.257l-1.089-.752a2.833 2.833 0 0 1-5.266-1.232h6.563a3.922 3.922 0 0 0 .016-.417 3.729 3.729 0 0 0-3.81-4.017 4.055 4.055 0 0 0-4.166 4.159zm4.113-2.945a2.4 2.4 0 0 1 2.449 2.1h-5.074a2.617 2.617 0 0 1 2.62-2.102zm6.351 3.154h4.081v-1.38h-4.081v1.377zm8.9-7.331a.966.966 0 0 0-.96-.977.994.994 0 0 0-.992.977.983.983 0 0 0 .992.976.956.956 0 0 0 .951-.978zm-1.664 11.124h1.376v-8h-1.385v8zm4.784 0h1.376V154.9c0-1.872 1.025-2.929 2.321-2.929a1.922 1.922 0 0 1 1.889 2.177v4.722h1.36v-4.93a2.949 2.949 0 0 0-3.025-3.233 2.831 2.831 0 0 0-2.545 1.392v-1.232h-1.376v8zm14.465-.112v-1.232a3.041 3.041 0 0 1-.976.16 1.153 1.153 0 0 1-1.329-1.361v-4.194h2.305v-1.264H156.5v-2.225h-1.376v2.225h-1.7v1.264h1.7v4.37a2.252 2.252 0 0 0 2.449 2.449 3.828 3.828 0 0 0 1.236-.194zm2.558.112h1.377V154.9c0-1.872 1.1-2.753 2.113-2.753a2.011 2.011 0 0 1 .752.128v-1.424a2.851 2.851 0 0 0-.624-.064 2.38 2.38 0 0 0-2.241 1.632v-1.552h-1.377v8zm14.1-4a4.186 4.186 0 1 0-4.178 4.162 4.107 4.107 0 0 0 4.169-4.166zm-6.963 0a2.779 2.779 0 1 1 2.785 2.882 2.751 2.751 0 0 1-2.798-2.886zm9.1 0a4.005 4.005 0 0 0 3.922 4.162 3.51 3.51 0 0 0 2.817-1.392v1.232h1.376v-12h-1.376v5.225a3.51 3.51 0 0 0-2.817-1.392 4.005 4.005 0 0 0-3.928 4.161zm6.851 0a2.734 2.734 0 1 1-2.721-2.9 2.733 2.733 0 0 1 2.715 2.896zm4.536.909c0 1.985 1.185 3.249 2.945 3.249a2.753 2.753 0 0 0 2.465-1.392v1.232h1.377v-8h-1.377v3.969c0 1.841-.976 2.93-2.225 2.93-1.1 0-1.808-.849-1.808-2.193v-4.706H189v4.914zm17.443 1.1l-1.2-.672a2.713 2.713 0 0 1-2.5 1.537 2.883 2.883 0 0 1 0-5.763 2.713 2.713 0 0 1 2.5 1.537l1.2-.672a4.144 4.144 0 0 0-3.7-2.145 4.162 4.162 0 1 0 0 8.323 4.144 4.144 0 0 0 3.699-2.141zm1.949-2.017a4.219 4.219 0 0 0 7.747 2.257l-1.089-.752a2.833 2.833 0 0 1-5.266-1.232h6.563a3.922 3.922 0 0 0 .016-.417 3.729 3.729 0 0 0-3.81-4.017 4.055 4.055 0 0 0-4.162 4.165zm4.113-2.945a2.4 2.4 0 0 1 2.449 2.1h-5.074a2.617 2.617 0 0 1 2.62-2.096zm5.982 2.945a4.005 4.005 0 0 0 3.922 4.162 3.509 3.509 0 0 0 2.817-1.392v1.232h1.374v-12h-1.377v5.233a3.509 3.509 0 0 0-2.817-1.392 4.005 4.005 0 0 0-3.92 4.161zm6.851 0a2.734 2.734 0 1 1-2.721-2.9 2.733 2.733 0 0 1 2.72 2.904zm9.357 4h1.377V154.9c0-1.872 1.024-2.929 2.321-2.929a1.922 1.922 0 0 1 1.889 2.177v4.722h1.36v-4.93a2.949 2.949 0 0 0-3.025-3.233 2.831 2.831 0 0 0-2.545 1.392v-1.232h-1.377v8zm9.6-4a4.219 4.219 0 0 0 7.747 2.257l-1.088-.752a2.834 2.834 0 0 1-5.267-1.232h6.563a3.922 3.922 0 0 0 .016-.417 3.729 3.729 0 0 0-3.809-4.017 4.056 4.056 0 0 0-4.163 4.165zm4.114-2.945a2.4 2.4 0 0 1 2.449 2.1h-5.074a2.616 2.616 0 0 1 2.624-2.096zm5.982 2.945a4.005 4.005 0 0 0 3.921 4.162 3.512 3.512 0 0 0 2.818-1.392v1.232h1.376v-8h-1.376v1.233a3.512 3.512 0 0 0-2.818-1.392 4 4 0 0 0-3.922 4.161zm6.851 0a2.734 2.734 0 1 1-2.721-2.9 2.733 2.733 0 0 1 2.72 2.904zm4.653 4h1.376V154.9c0-1.872 1.105-2.753 2.113-2.753a2.016 2.016 0 0 1 .753.128v-1.424a2.86 2.86 0 0 0-.625-.064 2.382 2.382 0 0 0-2.241 1.632v-1.552h-1.376v8zm6.656 0h1.376v-12h-1.377v12zm6.913 3.345l5.25-11.348h-1.537l-2.737 6.066-2.753-6.066h-1.521l3.506 7.587-1.745 3.761h1.537zm15.84-3.457v-1.232a3.041 3.041 0 0 1-.976.16 1.153 1.153 0 0 1-1.328-1.355v-4.194h2.3v-1.264H293v-2.225h-1.377v2.225h-1.7v1.264h1.7v4.37a2.252 2.252 0 0 0 2.449 2.449 3.828 3.828 0 0 0 1.228-.192zm2.559.112h1.376V154.9c0-1.872 1.025-2.929 2.321-2.929a1.921 1.921 0 0 1 1.889 2.177v4.722h1.36v-4.93a2.949 2.949 0 0 0-3.025-3.233 2.831 2.831 0 0 0-2.545 1.392v-5.234h-1.376v12zm10.224 0h1.376V154.9c0-1.872 1.105-2.753 2.113-2.753a2.011 2.011 0 0 1 .752.128v-1.424a2.851 2.851 0 0 0-.624-.064 2.381 2.381 0 0 0-2.241 1.632v-1.552h-1.376v8zm5.743-4a4.219 4.219 0 0 0 7.747 2.257l-1.088-.752a2.833 2.833 0 0 1-5.266-1.232h6.563a3.922 3.922 0 0 0 .016-.417 3.729 3.729 0 0 0-3.81-4.017 4.056 4.056 0 0 0-4.163 4.165zm4.114-2.945a2.4 2.4 0 0 1 2.449 2.1h-5.074a2.617 2.617 0 0 1 2.624-2.096zm5.982 2.945a4.219 4.219 0 0 0 7.747 2.257l-1.088-.752a2.833 2.833 0 0 1-5.266-1.232h6.563a3.922 3.922 0 0 0 .016-.417 3.729 3.729 0 0 0-3.81-4.017 4.056 4.056 0 0 0-4.163 4.165zm4.114-2.945a2.4 2.4 0 0 1 2.449 2.1h-5.074a2.616 2.616 0 0 1 2.624-2.096zm10.686 2.945a4.005 4.005 0 0 0 3.922 4.162 3.512 3.512 0 0 0 2.817-1.392v1.232h1.376v-12h-1.376v5.233a3.512 3.512 0 0 0-2.817-1.392 4.005 4.005 0 0 0-3.923 4.161zm6.851 0a2.734 2.734 0 1 1-2.721-2.9 2.733 2.733 0 0 1 2.72 2.904zm4.029 0a4.219 4.219 0 0 0 7.747 2.257l-1.088-.752a2.834 2.834 0 0 1-5.265-1.228h6.563a3.922 3.922 0 0 0 .016-.417 3.729 3.729 0 0 0-3.809-4.017 4.056 4.056 0 0 0-4.165 4.161zm4.113-2.945a2.4 2.4 0 0 1 2.449 2.1h-5.074a2.618 2.618 0 0 1 2.624-2.096zm13.874 4.962l-1.2-.672a2.713 2.713 0 0 1-2.5 1.537 2.883 2.883 0 0 1 0-5.763 2.713 2.713 0 0 1 2.5 1.537l1.2-.672a4.144 4.144 0 0 0-3.7-2.145 4.162 4.162 0 1 0 0 8.323 4.144 4.144 0 0 0 3.699-2.141zm1.949-2.017a4 4 0 0 0 3.921 4.162 3.509 3.509 0 0 0 2.817-1.392v1.232h1.377v-8h-1.377v1.233a3.509 3.509 0 0 0-2.817-1.392 4 4 0 0 0-3.922 4.161zm6.85 0a2.734 2.734 0 1 1-2.721-2.9 2.733 2.733 0 0 1 2.72 2.904zm4.029 0a4.005 4.005 0 0 0 3.922 4.162 3.51 3.51 0 0 0 2.817-1.392v1.232h1.377v-12h-1.377v5.233a3.51 3.51 0 0 0-2.817-1.392 4.005 4.005 0 0 0-3.923 4.161zm6.851 0a2.734 2.734 0 1 1-2.721-2.9 2.733 2.733 0 0 1 2.72 2.904zm4.029 0a4.219 4.219 0 0 0 7.747 2.257l-1.088-.752a2.833 2.833 0 0 1-5.266-1.232h6.562a3.922 3.922 0 0 0 .016-.417 3.728 3.728 0 0 0-3.809-4.017 4.056 4.056 0 0 0-4.163 4.165zm4.114-2.945a2.4 2.4 0 0 1 2.449 2.1h-5.074a2.616 2.616 0 0 1 2.624-2.096zm11.792 4.722c0-1.2-.752-1.969-2.112-2.417l-.865-.288c-.944-.3-1.232-.608-1.232-1.12a1.132 1.132 0 0 1 1.344-.929 2.16 2.16 0 0 1 1.7.833l.9-.865a3.1 3.1 0 0 0-2.561-1.152c-1.584 0-2.7.88-2.7 2.177a2.416 2.416 0 0 0 1.985 2.321l.784.256c1.041.336 1.425.72 1.425 1.28a1.218 1.218 0 0 1-1.409 1.089 2.148 2.148 0 0 1-2.048-1.265l-1.121.608a3.178 3.178 0 0 0 3.137 1.857c1.604.004 2.772-.812 2.772-2.381zm7.47 2.225h1.377v-12h-1.377v12zm4.16-4a4 4 0 0 0 3.921 4.162 3.509 3.509 0 0 0 2.817-1.392v1.232h1.377v-8h-1.377v1.231a3.509 3.509 0 0 0-2.817-1.392 4 4 0 0 0-3.922 4.161zm6.85 0a2.734 2.734 0 1 1-2.721-2.9 2.733 2.733 0 0 1 2.72 2.902zm8.991 3.89v-1.232a3.041 3.041 0 0 1-.976.16 1.153 1.153 0 0 1-1.328-1.361v-4.194h2.3v-1.264h-2.3v-2.225H431v2.225h-1.7v1.264h1.7v4.37a2.252 2.252 0 0 0 2.449 2.449 3.828 3.828 0 0 0 1.228-.19zm1.823-3.89a4.219 4.219 0 0 0 7.747 2.257l-1.089-.752a2.833 2.833 0 0 1-5.266-1.232h6.563a3.922 3.922 0 0 0 .016-.417 3.729 3.729 0 0 0-3.81-4.017 4.055 4.055 0 0 0-4.162 4.163zm4.113-2.945a2.4 2.4 0 0 1 2.449 2.1h-5.074a2.617 2.617 0 0 1 2.624-2.098zm6.607 6.947h1.379V154.9c0-1.872 1.105-2.753 2.113-2.753a2.011 2.011 0 0 1 .752.128v-1.424a2.851 2.851 0 0 0-.624-.064 2.381 2.381 0 0 0-2.241 1.632v-1.552h-1.38v8zm7.488-.352a1.36 1.36 0 0 0 .225-.72 1.185 1.185 0 1 0-2.369 0 1.191 1.191 0 0 0 .656 1.072l-1.073 2.289h.913zm11.953.24v-1.232a3.041 3.041 0 0 1-.976.16 1.153 1.153 0 0 1-1.329-1.361v-4.194h2.305v-1.264h-2.305v-2.225h-1.377v2.225h-1.7v1.264h1.7v4.37a2.252 2.252 0 0 0 2.449 2.449 3.828 3.828 0 0 0 1.232-.19zm2.559.112h1.379V154.9c0-1.872 1.025-2.929 2.321-2.929a1.922 1.922 0 0 1 1.889 2.177v4.722h1.36v-4.93a2.949 2.949 0 0 0-3.025-3.233 2.831 2.831 0 0 0-2.545 1.393v-5.234h-1.38v12zm11.888-11.124a.966.966 0 0 0-.96-.977.994.994 0 0 0-.993.977.984.984 0 0 0 .993.976.956.956 0 0 0 .959-.974zm-1.665 11.124h1.377v-8h-1.377v8zm9.97-2.225c0-1.2-.752-1.969-2.113-2.417l-.864-.288c-.944-.3-1.232-.608-1.232-1.12a1.132 1.132 0 0 1 1.344-.929 2.161 2.161 0 0 1 1.7.833l.9-.865a3.1 3.1 0 0 0-2.561-1.152c-1.584 0-2.7.88-2.7 2.177a2.416 2.416 0 0 0 1.985 2.321l.784.256c1.041.336 1.425.72 1.425 1.28a1.218 1.218 0 0 1-1.409 1.089 2.15 2.15 0 0 1-2.049-1.265l-1.12.608a3.178 3.178 0 0 0 3.137 1.857c1.604.002 2.772-.814 2.772-2.383zm7.47 2.225h1.376V154.9c0-1.808.913-2.929 2.209-2.929 1.041 0 1.569.9 1.569 2.193v4.706h1.377v-3.97c0-1.808.9-2.929 2.192-2.929 1.041 0 1.585.9 1.585 2.193v4.706h1.377v-4.914c0-1.953-1.057-3.249-2.8-3.249a2.771 2.771 0 0 0-2.626 1.712 2.515 2.515 0 0 0-2.465-1.712 2.692 2.692 0 0 0-2.417 1.392v-1.232h-1.376v8zm22.691-4a4.186 4.186 0 1 0-4.178 4.162 4.107 4.107 0 0 0 4.177-4.162zm-6.963 0a2.779 2.779 0 1 1 2.785 2.882 2.751 2.751 0 0 1-2.786-2.882zm9.1 0a4.005 4.005 0 0 0 3.922 4.162 3.51 3.51 0 0 0 2.817-1.392v1.232h1.377v-12h-1.377v5.229a3.51 3.51 0 0 0-2.817-1.392 4.005 4.005 0 0 0-3.92 4.161zm6.851 0a2.734 2.734 0 1 1-2.721-2.9 2.733 2.733 0 0 1 2.723 2.9zm4.029 0a4.219 4.219 0 0 0 7.747 2.257l-1.088-.752a2.833 2.833 0 0 1-5.266-1.232h6.562a3.922 3.922 0 0 0 .016-.417 3.728 3.728 0 0 0-3.809-4.017 4.056 4.056 0 0 0-4.16 4.161zm4.114-2.945a2.4 2.4 0 0 1 2.449 2.1h-5.074a2.616 2.616 0 0 1 2.627-2.1zm6.606 6.947h1.377V154.9c0-1.872 1.1-2.753 2.113-2.753a2.011 2.011 0 0 1 .752.128v-1.424a2.851 2.851 0 0 0-.624-.064 2.38 2.38 0 0 0-2.241 1.632v-1.552h-1.377v8zm6.656 0h1.377V154.9c0-1.872 1.024-2.929 2.321-2.929a1.922 1.922 0 0 1 1.889 2.177v4.722h1.36v-4.93a2.949 2.949 0 0 0-3.025-3.233 2.829 2.829 0 0 0-2.545 1.392v-1.232h-1.375v8zm17.073 0h1.159l3.7-8h-1.537l-2.737 6.05-2.737-6.05h-1.536zm6.239-4a4.219 4.219 0 0 0 7.747 2.257l-1.088-.752a2.833 2.833 0 0 1-5.266-1.232h6.562a3.922 3.922 0 0 0 .016-.417 3.729 3.729 0 0 0-3.809-4.017 4.056 4.056 0 0 0-4.16 4.159zm4.114-2.945a2.4 2.4 0 0 1 2.449 2.1h-5.074a2.616 2.616 0 0 1 2.631-2.102zm6.606 6.945h1.377V154.9c0-1.872 1.1-2.753 2.113-2.753a2.011 2.011 0 0 1 .752.128v-1.424a2.851 2.851 0 0 0-.624-.064 2.38 2.38 0 0 0-2.241 1.632v-1.552H584v8zm11.7-2.225c0-1.2-.752-1.969-2.113-2.417l-.864-.288c-.944-.3-1.232-.608-1.232-1.12a1.132 1.132 0 0 1 1.344-.929 2.16 2.16 0 0 1 1.7.833l.9-.865a3.1 3.1 0 0 0-2.561-1.152c-1.584 0-2.7.88-2.7 2.177a2.416 2.416 0 0 0 1.985 2.321l.784.256c1.041.336 1.425.72 1.425 1.28a1.218 1.218 0 0 1-1.409 1.089 2.15 2.15 0 0 1-2.049-1.265l-1.12.608a3.178 3.178 0 0 0 3.137 1.857c1.605 0 2.773-.816 2.773-2.385zm4.431-8.9a.967.967 0 0 0-.961-.977.994.994 0 0 0-.992.977.983.983 0 0 0 .992.976.957.957 0 0 0 .961-.975zm-1.665 11.124h1.377v-8h-1.377v8zm12.515-4a4.186 4.186 0 1 0-4.178 4.162 4.107 4.107 0 0 0 4.178-4.163zm-6.963 0a2.779 2.779 0 1 1 2.785 2.882 2.751 2.751 0 0 1-2.785-2.883zm9.728 4h1.376v-3.97c0-1.872 1.025-2.929 2.321-2.929a1.921 1.921 0 0 1 1.889 2.177v4.722h1.361v-4.93a2.95 2.95 0 0 0-3.026-3.233 2.832 2.832 0 0 0-2.545 1.392v-1.232h-1.376v8zm22.659-4a4.186 4.186 0 1 0-4.178 4.162 4.107 4.107 0 0 0 4.178-4.163zm-6.963 0a2.779 2.779 0 1 1 2.785 2.882 2.751 2.751 0 0 1-2.785-2.883zm10.272 4h1.376v-6.739h2.321v-1.264h-2.321V149.4a1.152 1.152 0 0 1 1.329-1.36 3.222 3.222 0 0 1 .992.16v-1.217a3.636 3.636 0 0 0-1.248-.208 2.286 2.286 0 0 0-2.449 2.481v1.617h-1.7v1.264h1.7v6.739zm-601.35 16a4.186 4.186 0 1 0-4.178 4.162 4.107 4.107 0 0 0 4.178-4.163zm-6.963 0a2.779 2.779 0 1 1 2.785 2.882 2.751 2.751 0 0 1-2.786-2.883zm9.616.913c0 1.985 1.185 3.249 2.945 3.249a2.754 2.754 0 0 0 2.465-1.392v1.232H47.8v-8h-1.373v3.969c0 1.841-.976 2.93-2.225 2.93-1.1 0-1.809-.849-1.809-2.193v-4.706h-1.376v4.914zm10.176 3.089h1.377V174.9c0-1.872 1.1-2.753 2.113-2.753a2.013 2.013 0 0 1 .752.128v-1.424a2.854 2.854 0 0 0-.624-.064 2.381 2.381 0 0 0-2.241 1.632v-1.552h-1.377v8zm10.848-3.089c0 1.985 1.184 3.249 2.945 3.249a2.754 2.754 0 0 0 2.465-1.392v1.232h1.376v-8h-1.376v3.969c0 1.841-.976 2.93-2.225 2.93-1.1 0-1.809-.849-1.809-2.193v-4.706h-1.376v4.914zm14.514 2.977v-1.232a3.044 3.044 0 0 1-.976.16 1.153 1.153 0 0 1-1.329-1.361v-4.194h2.3v-1.264h-2.3v-2.225h-1.377v2.225h-1.7v1.264h1.7v4.37a2.253 2.253 0 0 0 2.449 2.449 3.832 3.832 0 0 0 1.232-.193zm4.223-11.012a.967.967 0 0 0-.96-.977.994.994 0 0 0-.992.977.984.984 0 0 0 .992.976.957.957 0 0 0 .959-.977zm-1.665 11.124h1.377v-8h-1.377v8zm4.784 0h1.377v-12H83.9v12zm6.448-11.124a.967.967 0 0 0-.96-.977.994.994 0 0 0-.992.977.984.984 0 0 0 .992.976.956.956 0 0 0 .96-.977zm-1.665 11.123h1.376v-8H88.68v8zm9.122-.112v-1.232a3.044 3.044 0 0 1-.976.16 1.153 1.153 0 0 1-1.329-1.361v-4.194h2.3v-1.264H95.5v-2.225h-1.38v2.225h-1.7v1.264h1.7v4.37a2.253 2.253 0 0 0 2.449 2.449 3.831 3.831 0 0 0 1.231-.192zm4.687 3.457l5.25-11.348H106.2l-2.737 6.066-2.753-6.066h-1.52l3.505 7.587-1.745 3.761h1.537zm11.775-3.345h1.377V174.9c0-1.872 1.024-2.929 2.321-2.929a1.921 1.921 0 0 1 1.888 2.177v4.722h1.361v-4.93a2.949 2.949 0 0 0-3.025-3.233 2.829 2.829 0 0 0-2.545 1.392v-5.234h-1.377v12zm9.6-4a4.219 4.219 0 0 0 7.747 2.257l-1.089-.752a2.833 2.833 0 0 1-5.266-1.232h6.563a3.922 3.922 0 0 0 .016-.417 3.729 3.729 0 0 0-3.81-4.017 4.055 4.055 0 0 0-4.161 4.159zm4.113-2.945a2.4 2.4 0 0 1 2.449 2.1h-5.074a2.617 2.617 0 0 1 2.625-2.102zm6.607 6.947h1.376V174.9c0-1.872 1.1-2.753 2.113-2.753a2.011 2.011 0 0 1 .752.128v-1.424a2.851 2.851 0 0 0-.624-.064 2.381 2.381 0 0 0-2.241 1.632v-1.552h-1.376v8zm8.32-11.124a.966.966 0 0 0-.96-.977.994.994 0 0 0-.992.977.983.983 0 0 0 .992.976.956.956 0 0 0 .956-.978zm-1.664 11.124h1.376v-8h-1.376v8zm9.121-.112v-1.232a3.041 3.041 0 0 1-.976.16 1.153 1.153 0 0 1-1.329-1.361v-4.194h2.3v-1.264h-2.3v-2.225h-1.376v2.225h-1.7v1.264h1.7v4.37a2.252 2.252 0 0 0 2.449 2.449 3.828 3.828 0 0 0 1.232-.194zm1.822-3.89a4.005 4.005 0 0 0 3.922 4.162 3.509 3.509 0 0 0 2.817-1.392v1.232h1.378v-8h-1.377v1.227a3.509 3.509 0 0 0-2.817-1.392 4.005 4.005 0 0 0-3.923 4.161zm6.851 0a2.734 2.734 0 1 1-2.721-2.9 2.733 2.733 0 0 1 2.721 2.898zm12.113 3.538v-7.539h-1.377v1.23a3.406 3.406 0 0 0-2.785-1.392 4.077 4.077 0 0 0 0 8.147 3.418 3.418 0 0 0 2.785-1.408v.912a2.558 2.558 0 0 1-2.673 2.769 3.421 3.421 0 0 1-2.8-1.345l-.961.961a4.754 4.754 0 0 0 3.778 1.633 3.705 3.705 0 0 0 4.033-3.97zm-6.675-3.634a2.707 2.707 0 1 1 2.7 2.8 2.667 2.667 0 0 1-2.7-2.802zm9.439.1a4.219 4.219 0 0 0 7.747 2.257l-1.088-.752a2.833 2.833 0 0 1-5.266-1.232h6.562a3.922 3.922 0 0 0 .016-.417 3.728 3.728 0 0 0-3.809-4.017 4.056 4.056 0 0 0-4.162 4.155zm4.114-2.945a2.4 2.4 0 0 1 2.449 2.1H175.4a2.616 2.616 0 0 1 2.625-2.106zm17.809 6.947h1.217l2.721-8h-1.457l-1.937 5.842-2-5.842h-1.056l-2 5.842-1.937-5.842h-1.44l2.721 8h1.216l1.985-5.762zm7.886-11.124a.967.967 0 0 0-.961-.977.994.994 0 0 0-.992.977.983.983 0 0 0 .992.976.957.957 0 0 0 .961-.982zm-1.665 11.124h1.377v-8h-1.377v8zm4.784 0h1.376v-12h-1.376v12zm4.784 0H213v-12h-1.376v12zm8.863-4a4.005 4.005 0 0 0 3.922 4.162 3.51 3.51 0 0 0 2.817-1.392v1.232h1.375v-8h-1.377v1.221a3.51 3.51 0 0 0-2.817-1.392 4.005 4.005 0 0 0-3.92 4.161zm6.851 0a2.734 2.734 0 1 1-2.721-2.9 2.733 2.733 0 0 1 2.721 2.892zm4.653 4h1.377v-12h-1.377v12zm9.97-2.225c0-1.2-.752-1.969-2.113-2.417l-.864-.288c-.944-.3-1.232-.608-1.232-1.12a1.132 1.132 0 0 1 1.344-.929 2.161 2.161 0 0 1 1.7.833l.9-.865a3.1 3.1 0 0 0-2.561-1.152c-1.584 0-2.705.88-2.705 2.177a2.416 2.416 0 0 0 1.985 2.321l.784.256c1.041.336 1.425.72 1.425 1.28a1.218 1.218 0 0 1-1.409 1.089 2.15 2.15 0 0 1-2.049-1.265l-1.12.608a3.178 3.178 0 0 0 3.137 1.857c1.61-.006 2.778-.822 2.778-2.391zm10.5-1.777a4.186 4.186 0 1 0-4.177 4.162 4.107 4.107 0 0 0 4.174-4.168zm-6.963 0a2.779 2.779 0 1 1 2.786 2.882 2.752 2.752 0 0 1-2.789-2.888zm14.432 4h1.371V174.9c0-1.872 1.025-2.929 2.321-2.929a1.921 1.921 0 0 1 1.889 2.177v4.722h1.361v-4.93a2.95 2.95 0 0 0-3.026-3.233 2.831 2.831 0 0 0-2.545 1.393v-5.234h-1.376v12zm9.6-4a4.219 4.219 0 0 0 7.747 2.257l-1.088-.752a2.833 2.833 0 0 1-5.266-1.232h6.562a3.922 3.922 0 0 0 .016-.417 3.728 3.728 0 0 0-3.809-4.017 4.056 4.056 0 0 0-4.166 4.155zm4.114-2.945a2.4 2.4 0 0 1 2.449 2.1h-5.074a2.616 2.616 0 0 1 2.621-2.106zm6.606 6.947h1.377v-12h-1.377v12zm4.784 3.345h1.377v-4.577a3.51 3.51 0 0 0 2.817 1.392 4.169 4.169 0 0 0 0-8.323 3.51 3.51 0 0 0-2.817 1.392v-1.232h-1.377v11.348zm6.707-7.347a2.726 2.726 0 1 1-2.721-2.9 2.733 2.733 0 0 1 2.717 2.894zm10.654 7.347l5.25-11.348H306.1l-2.738 6.066-2.753-6.066h-1.52l3.5 7.587-1.745 3.761h1.537zm14.978-7.347a4.186 4.186 0 1 0-4.177 4.162 4.107 4.107 0 0 0 4.173-4.168zm-6.962 0a2.779 2.779 0 1 1 2.785 2.882 2.751 2.751 0 0 1-2.789-2.888zm9.615.913c0 1.985 1.185 3.249 2.945 3.249a2.753 2.753 0 0 0 2.465-1.392v1.232h1.377v-8h-1.377v3.969c0 1.841-.976 2.93-2.225 2.93-1.1 0-1.808-.849-1.808-2.193v-4.706h-1.377v4.914zm14.88 3.089h1.376V174.9c0-1.872 1.105-2.753 2.113-2.753a2.02 2.02 0 0 1 .753.128v-1.424a2.866 2.866 0 0 0-.625-.064 2.382 2.382 0 0 0-2.241 1.632v-1.552H334.9v8zm8.32-11.124a.966.966 0 0 0-.96-.977.994.994 0 0 0-.992.977.983.983 0 0 0 .992.976.956.956 0 0 0 .956-.982zm-1.664 11.124h1.376v-8h-1.376v8zm9.97-2.225c0-1.2-.753-1.969-2.113-2.417l-.864-.288c-.945-.3-1.233-.608-1.233-1.12a1.133 1.133 0 0 1 1.345-.929 2.159 2.159 0 0 1 1.7.833l.9-.865a3.106 3.106 0 0 0-2.561-1.152c-1.585 0-2.705.88-2.705 2.177a2.416 2.416 0 0 0 1.984 2.321l.785.256c1.04.336 1.424.72 1.424 1.28a1.218 1.218 0 0 1-1.408 1.089 2.148 2.148 0 0 1-2.049-1.265l-1.121.608a3.18 3.18 0 0 0 3.138 1.857c1.605-.006 2.774-.822 2.774-2.391zm2.141-1.777a4.219 4.219 0 0 0 7.747 2.257l-1.088-.752a2.833 2.833 0 0 1-5.266-1.232h6.562a3.692 3.692 0 0 0 .017-.417 3.73 3.73 0 0 0-3.81-4.017 4.056 4.056 0 0 0-4.166 4.155zm4.114-2.945a2.4 2.4 0 0 1 2.449 2.1h-5.074a2.616 2.616 0 0 1 2.621-2.106zm15.376 6.835v-1.232a3.041 3.041 0 0 1-.976.16 1.153 1.153 0 0 1-1.329-1.361v-4.194h2.305v-1.264h-2.305v-2.225h-1.376v2.225h-1.7v1.264h1.7v4.37a2.252 2.252 0 0 0 2.449 2.449 3.828 3.828 0 0 0 1.228-.198zm10.178-3.89a4.186 4.186 0 1 0-4.178 4.162 4.107 4.107 0 0 0 4.174-4.168zm-6.963 0a2.779 2.779 0 1 1 2.785 2.882 2.751 2.751 0 0 1-2.789-2.888zm13.807 0a4 4 0 0 0 3.921 4.162 3.509 3.509 0 0 0 2.817-1.392v1.232h1.378v-8h-1.377v1.223a3.509 3.509 0 0 0-2.817-1.392 4 4 0 0 0-3.926 4.161zm6.851 0a2.734 2.734 0 1 1-2.722-2.9 2.734 2.734 0 0 1 2.718 2.894zm4.653 4h1.376V174.9c0-1.872 1.025-2.929 2.321-2.929a1.921 1.921 0 0 1 1.889 2.177v4.722h1.361v-4.93a2.95 2.95 0 0 0-3.026-3.233 2.832 2.832 0 0 0-2.545 1.392v-1.232h-1.376v8zm12.193 3.345l5.25-11.348h-1.541l-2.737 6.066-2.753-6.066h-1.521l3.506 7.587-1.745 3.761h1.537zm19.506-7.347a4.186 4.186 0 1 0-4.178 4.162 4.107 4.107 0 0 0 4.174-4.166zm-6.963 0a2.779 2.779 0 1 1 2.785 2.882 2.751 2.751 0 0 1-2.789-2.886zm16.994 2.017l-1.2-.672a2.714 2.714 0 0 1-2.5 1.537 2.883 2.883 0 0 1 0-5.763 2.714 2.714 0 0 1 2.5 1.537l1.2-.672a4.162 4.162 0 1 0-.004 4.029zm9.84 0l-1.2-.672a2.714 2.714 0 0 1-2.5 1.537 2.883 2.883 0 0 1 0-5.763 2.714 2.714 0 0 1 2.5 1.537l1.2-.672a4.143 4.143 0 0 0-3.7-2.145 4.162 4.162 0 1 0 0 8.323 4.143 4.143 0 0 0 3.696-2.149zm1.949-2.017a4.005 4.005 0 0 0 3.921 4.162 3.512 3.512 0 0 0 2.818-1.392v1.232h1.376v-8h-1.376v1.225a3.512 3.512 0 0 0-2.818-1.392 4 4 0 0 0-3.928 4.161zm6.851 0a2.734 2.734 0 1 1-2.721-2.9 2.733 2.733 0 0 1 2.717 2.896zm9.839 1.777c0-1.2-.752-1.969-2.113-2.417l-.864-.288c-.945-.3-1.233-.608-1.233-1.12a1.133 1.133 0 0 1 1.345-.929 2.163 2.163 0 0 1 1.7.833l.9-.865a3.1 3.1 0 0 0-2.561-1.152c-1.585 0-2.7.88-2.7 2.177a2.416 2.416 0 0 0 1.985 2.321l.784.256c1.04.336 1.424.72 1.424 1.28a1.218 1.218 0 0 1-1.408 1.089 2.149 2.149 0 0 1-2.049-1.265l-1.12.608a3.177 3.177 0 0 0 3.137 1.857c1.601-.004 2.769-.82 2.769-2.389zm4.43-8.9a.966.966 0 0 0-.96-.977.994.994 0 0 0-.992.977.983.983 0 0 0 .992.976.956.956 0 0 0 .956-.979zm-1.664 11.124h1.376v-8h-1.376v8zm12.515-4a4.186 4.186 0 1 0-4.178 4.157 4.107 4.107 0 0 0 4.174-4.162zm-6.963 0a2.779 2.779 0 1 1 2.785 2.877 2.751 2.751 0 0 1-2.789-2.882zm9.727 4h1.377V174.9c0-1.872 1.024-2.929 2.321-2.929a1.922 1.922 0 0 1 1.889 2.177v4.722h1.36v-4.93a2.949 2.949 0 0 0-3.025-3.233 2.831 2.831 0 0 0-2.545 1.392v-1.232h-1.377v8zm12.129-1.072a1.185 1.185 0 1 0-1.184 1.2 1.206 1.206 0 0 0 1.18-1.202z"/><g id="CTA_copy_5" data-name="CTA copy 5"><path id="Rectangle_4_copy_4" data-name="Rectangle 4 copy 4" d="M29 235.938h102V239H29z"/><path id="Shop_now" data-name="Shop now" class="cls-2" d="M33.347 230.177c2.255 0 3.8-1.378 3.818-3.352a3.346 3.346 0 0 0-2.54-3.245l-.752-.276c-1.127-.413-1.653-.673-1.653-1.255a1.1 1.1 0 0 1 1.293-.827 2.356 2.356 0 0 1 1.849.9l1.563-1.684a4.414 4.414 0 0 0-3.442-1.5c-2.135 0-3.683 1.24-3.683 3.352 0 1.485.962 2.541 2.691 3.138l.752.26c1.067.367 1.488.75 1.488 1.3a1.086 1.086 0 0 1-1.293.9 2.779 2.779 0 0 1-2.21-1.24l-1.834 1.577a4.653 4.653 0 0 0 3.953 1.952zm8.1-.184h2.39v-4.3h4.3v4.3h2.39v-10.868h-2.39v4.256h-4.3v-4.256h-2.39v10.868zm18.883.184a5.618 5.618 0 1 0-5.517-5.618 5.582 5.582 0 0 0 5.522 5.618zm0-2.357a3.265 3.265 0 1 1 3.1-3.261 3.2 3.2 0 0 1-3.095 3.261zm17.185-4.975a3.667 3.667 0 0 0-3.758-3.72h-3.618v10.868h2.39v-3.444h1.233a3.654 3.654 0 0 0 3.758-3.704zm-2.315 0a1.416 1.416 0 0 1-1.473 1.423h-1.2v-2.847h1.2a1.408 1.408 0 0 1 1.473 1.424zm21.649 7.148v-10.868h-2.4v6.705l-5.186-6.705H87.2v10.868h2.39v-6.719l5.2 6.719h2.059zm9.8.184a5.618 5.618 0 1 0-5.516-5.618 5.581 5.581 0 0 0 5.525 5.618zm0-2.357a3.265 3.265 0 1 1 3.1-3.261 3.2 3.2 0 0 1-3.091 3.261zm18.072 2.173H127l2.48-10.868h-2.556l-1.458 6.888-3.006-7.071-2.991 7.071-1.458-6.888h-2.556l2.465 10.868h2.27l2.27-5.327z"/></g></svg>