<svg id="Copy_copy_12" data-name="Copy copy 12" xmlns="http://www.w3.org/2000/svg" width="720" height="299" viewBox="0 0 720 299">
  <metadata><?xpacket begin="﻿" id="W5M0MpCehiHzreSzNTczkc9d"?>
<x:xmpmeta xmlns:x="adobe:ns:meta/" x:xmptk="Adobe XMP Core 5.6-c138 79.159824, 2016/09/14-01:09:01        ">
   <rdf:RDF xmlns:rdf="http://www.w3.org/1999/02/22-rdf-syntax-ns#">
      <rdf:Description rdf:about=""/>
   </rdf:RDF>
</x:xmpmeta>
                                                                                                    
                                                                                                    
                                                                                                    
                                                                                                    
                                                                                                    
                                                                                                    
                                                                                                    
                                                                                                    
                                                                                                    
                                                                                                    
                                                                                                    
                                                                                                    
                                                                                                    
                                                                                                    
                                                                                                    
                                                                                                    
                                                                                                    
                                                                                                    
                                                                                                    
                                                                                                    
                           
<?xpacket end="w"?></metadata>
<defs>
    <style>
      .cls-1 {
        fill: #fff;
      }

      .cls-2 {
        fill-rule: evenodd;
      }
    </style>
  </defs>
  <rect id="Rectangle_106_copy_13" data-name="Rectangle 106 copy 13" class="cls-1" width="720" height="299"/>
  <path id="UTILITY_JUMPSUIT_Woven_b._1980_The_sky_s_the_limit._Our_first" data-name="UTILITY JUMPSUIT Woven, b. 1980  The sky’s the limit. Our first" class="cls-2" d="M40.106,51.231a8.353,8.353,0,0,0,8.76-8.79V29.572H44.1V42.5a3.8,3.8,0,0,1-3.99,4.11,3.8,3.8,0,0,1-3.99-4.11V29.572h-4.77V42.441A8.337,8.337,0,0,0,40.106,51.231Zm18.36-.36h4.8V34.132h5.49v-4.56H53.036v4.56h5.43V50.871Zm14.7,0h4.77v-21.3h-4.77v21.3Zm10.77,0h13.59v-4.56h-8.82V29.572h-4.77v21.3Zm18.06,0h4.77v-21.3H102v21.3Zm14.61,0h4.8V34.132h5.489v-4.56H111.175v4.56h5.43V50.871Zm20.459,0h4.8v-8.94l7.77-12.359h-5.55l-4.65,7.68-4.589-7.68h-5.55l7.769,12.33v8.97Zm28.41,0.36c3.66,0,6.96-1.83,6.96-6.18V29.572h-4.77V44.751a2.193,2.193,0,0,1-4.38-.12h-4.709C158.575,49.251,161.905,51.231,165.474,51.231Zm21.33,0a8.353,8.353,0,0,0,8.759-8.79V29.572h-4.769V42.5a3.992,3.992,0,1,1-7.98,0V29.572h-4.77V42.441A8.338,8.338,0,0,0,186.8,51.231Zm25.529-4.89,6.21-8.61V50.871h4.8v-21.3h-4.35l-6.66,9.18-6.659-9.18h-4.35v21.3h4.77V37.732Zm31.74-9.48a7.254,7.254,0,0,0-7.5-7.29h-7.23v21.3h4.77v-6.75h2.46A7.23,7.23,0,0,0,244.073,36.862Zm-4.62,0a2.8,2.8,0,0,1-2.94,2.79h-2.4v-5.58h2.4A2.785,2.785,0,0,1,239.453,36.862Zm15.54,14.369c4.5,0,7.589-2.7,7.619-6.57,0.03-3.21-1.979-5.25-5.069-6.36l-1.5-.54c-2.25-.81-3.3-1.32-3.3-2.46,0-1.11,1.29-1.62,2.58-1.62a4.738,4.738,0,0,1,3.69,1.77l3.119-3.3a8.884,8.884,0,0,0-6.869-2.94c-4.26,0-7.35,2.43-7.35,6.57,0,2.91,1.92,4.98,5.37,6.15l1.5,0.51c2.13,0.72,2.97,1.47,2.97,2.55,0,1.02-.99,1.77-2.58,1.77a5.573,5.573,0,0,1-4.41-2.43l-3.66,3.09A9.34,9.34,0,0,0,254.993,51.231Zm20.939,0a8.354,8.354,0,0,0,8.76-8.79V29.572h-4.77V42.5a3.991,3.991,0,1,1-7.979,0V29.572h-4.77V42.441A8.337,8.337,0,0,0,275.932,51.231Zm14.52-.36h4.77v-21.3h-4.77v21.3Zm14.61,0h4.8V34.132h5.489v-4.56H299.632v4.56h5.43V50.871Zm-264.076,28H42.48l3.493-12.784H44.227l-2.683,9.975L37.853,65.871,34.18,76.062,31.5,66.087H29.751l3.493,12.784h1.494l3.133-8.679ZM56.9,74.37a4.708,4.708,0,1,0-4.7,4.681A4.62,4.62,0,0,0,56.9,74.37Zm-7.832,0A3.126,3.126,0,1,1,52.2,77.611,3.094,3.094,0,0,1,49.065,74.37Zm13.555,4.5h1.3l4.159-9H66.347l-3.079,6.806-3.079-6.806H58.46Zm7.019-4.5a4.746,4.746,0,0,0,8.715,2.539l-1.224-.846a3.188,3.188,0,0,1-5.924-1.386h7.382a4.368,4.368,0,0,0,.018-0.468,4.2,4.2,0,0,0-4.285-4.519A4.562,4.562,0,0,0,69.639,74.37Zm4.627-3.313a2.693,2.693,0,0,1,2.755,2.359H71.313A2.943,2.943,0,0,1,74.266,71.057ZM81.7,78.871h1.548V74.406c0-2.107,1.152-3.3,2.611-3.3a2.161,2.161,0,0,1,2.125,2.449v5.312h1.53V73.325a3.318,3.318,0,0,0-3.4-3.637,3.184,3.184,0,0,0-2.863,1.566V69.868H81.7v9Zm13.428-.4a1.54,1.54,0,0,0,.252-0.81,1.333,1.333,0,1,0-2.665,0,1.34,1.34,0,0,0,.738,1.206l-1.206,2.575h1.026Zm10.422-.99a3.947,3.947,0,0,0,3.169,1.566,4.69,4.69,0,0,0,0-9.363,3.947,3.947,0,0,0-3.169,1.566V65.367H104v13.5h1.549V77.485Zm6-3.115a3.067,3.067,0,1,1-3.061-3.259A3.074,3.074,0,0,1,111.545,74.37Zm6.658,3.295a1.333,1.333,0,1,0-1.333,1.35A1.357,1.357,0,0,0,118.2,77.665Zm9.7,1.206h1.549V66.087H126.7l-1.26,1.53H127.9V78.871Zm5.472,0h1.98l4.682-5.528a4.911,4.911,0,0,0,1.44-3.259,4.331,4.331,0,0,0-8.66.054,4.13,4.13,0,0,0,4,4.105,2.294,2.294,0,0,0,.5-0.036Zm1.026-8.751a2.746,2.746,0,1,1,2.737,2.755A2.717,2.717,0,0,1,134.4,70.121Zm18.02,4.915a3.572,3.572,0,0,0-2-3.349,2.994,2.994,0,0,0,1.3-2.521,3.318,3.318,0,0,0-3.583-3.3,3.364,3.364,0,0,0-3.6,3.3,2.981,2.981,0,0,0,1.332,2.521,3.572,3.572,0,0,0-2.034,3.349A4.3,4.3,0,0,0,152.422,75.036ZM146.066,69.2a1.9,1.9,0,0,1,2.071-1.873A1.868,1.868,0,0,1,150.19,69.2a1.911,1.911,0,0,1-2.053,1.891A1.949,1.949,0,0,1,146.066,69.2ZM145.4,75.036a2.538,2.538,0,0,1,2.737-2.557,2.553,2.553,0,1,1,0,5.1A2.545,2.545,0,0,1,145.4,75.036Zm18.9-.792V70.679a4.536,4.536,0,1,0-9.056,0v3.565A4.536,4.536,0,1,0,164.3,74.244Zm-7.508,0V70.679c0-2.071,1.243-3.295,2.971-3.295,1.747,0,2.989,1.224,2.989,3.295v3.565c0,2.071-1.242,3.3-2.989,3.3C158.037,77.539,156.794,76.314,156.794,74.244ZM33.146,118.871H34.6v-9.956H38.14v-1.408H29.609v1.408h3.537v9.956Zm7.247,0H41.77V114.9c0-1.872,1.024-2.929,2.321-2.929a1.921,1.921,0,0,1,1.889,2.177v4.722h1.36v-4.93a2.949,2.949,0,0,0-3.025-3.233A2.83,2.83,0,0,0,41.77,112.1v-5.234H40.393v12Zm9.6-4a4.219,4.219,0,0,0,7.747,2.257l-1.088-.752a2.833,2.833,0,0,1-5.266-1.232h6.563a3.922,3.922,0,0,0,.016-0.417,3.729,3.729,0,0,0-3.809-4.017A4.056,4.056,0,0,0,49.993,114.869Zm4.114-2.945a2.4,2.4,0,0,1,2.449,2.1H51.481A2.617,2.617,0,0,1,54.106,111.924Zm16.5,4.722c0-1.2-.752-1.969-2.113-2.417l-0.864-.288c-0.944-.3-1.233-0.608-1.233-1.12a1.133,1.133,0,0,1,1.345-.929,2.161,2.161,0,0,1,1.7.833l0.9-.865a3.1,3.1,0,0,0-2.561-1.152c-1.585,0-2.705.88-2.705,2.177a2.416,2.416,0,0,0,1.985,2.321l0.784,0.256c1.04,0.336,1.425.72,1.425,1.28a1.218,1.218,0,0,1-1.409,1.089,2.149,2.149,0,0,1-2.049-1.265l-1.121.608a3.178,3.178,0,0,0,3.137,1.857C69.434,119.031,70.6,118.215,70.6,116.646Zm2.766,2.225h1.377v-4l4.338,4h1.857l-4.818-4.466,3.938-3.537H78.234l-3.489,3.121v-7.123H73.368v12Zm11.553,3.345,5.25-11.348H88.635L85.9,116.934l-2.753-6.066H81.624l3.505,7.587-1.745,3.761h1.537Zm9.472-12.981a1.414,1.414,0,0,0,.224-0.72,1.192,1.192,0,1,0-2.385,0,1.24,1.24,0,0,0,.656,1.072l-1.072,2.289h0.928Zm7.473,7.411c0-1.2-.752-1.969-2.112-2.417l-0.864-.288c-0.944-.3-1.233-0.608-1.233-1.12A1.133,1.133,0,0,1,99,111.892a2.16,2.16,0,0,1,1.7.833l0.9-.865a3.1,3.1,0,0,0-2.561-1.152c-1.585,0-2.705.88-2.705,2.177a2.416,2.416,0,0,0,1.985,2.321l0.784,0.256c1.041,0.336,1.425.72,1.425,1.28a1.218,1.218,0,0,1-1.409,1.089,2.149,2.149,0,0,1-2.049-1.265l-1.12.608a3.178,3.178,0,0,0,3.137,1.857C100.7,119.031,101.866,118.215,101.866,116.646Zm11.536,2.113v-1.232a3.048,3.048,0,0,1-.977.16,1.153,1.153,0,0,1-1.328-1.361v-4.194H113.4v-1.264H111.1v-2.225H109.72v2.225h-1.7v1.264h1.7v4.37a2.253,2.253,0,0,0,2.449,2.449A3.835,3.835,0,0,0,113.4,118.759Zm2.558,0.112h1.376V114.9c0-1.872,1.025-2.929,2.321-2.929a1.921,1.921,0,0,1,1.889,2.177v4.722h1.361v-4.93a2.95,2.95,0,0,0-3.026-3.233,2.832,2.832,0,0,0-2.545,1.392v-5.234H115.96v12Zm9.6-4a4.22,4.22,0,0,0,7.748,2.257l-1.089-.752a2.833,2.833,0,0,1-5.266-1.232h6.563a3.922,3.922,0,0,0,.016-0.417,3.729,3.729,0,0,0-3.81-4.017A4.056,4.056,0,0,0,125.559,114.869Zm4.114-2.945a2.4,2.4,0,0,1,2.449,2.1h-5.074A2.617,2.617,0,0,1,129.673,111.924Zm11.31,6.947h1.377v-12h-1.377v12Zm6.449-11.124a0.966,0.966,0,0,0-.96-0.977,0.994,0.994,0,0,0-.993.977,0.984,0.984,0,0,0,.993.976A0.956,0.956,0,0,0,147.432,107.747Zm-1.665,11.124h1.377v-8h-1.377v8Zm4.784,0h1.377V114.9c0-1.808.912-2.929,2.209-2.929,1.04,0,1.568.9,1.568,2.193v4.706h1.377V114.9c0-1.808.9-2.929,2.193-2.929,1.04,0,1.584.9,1.584,2.193v4.706h1.377v-4.914c0-1.953-1.057-3.249-2.8-3.249a2.769,2.769,0,0,0-2.625,1.712,2.516,2.516,0,0,0-2.465-1.712,2.689,2.689,0,0,0-2.417,1.392v-1.232h-1.377v8Zm16.625-11.124a0.967,0.967,0,0,0-.961-0.977,0.994,0.994,0,0,0-.992.977,0.983,0.983,0,0,0,.992.976A0.957,0.957,0,0,0,167.176,107.747Zm-1.665,11.124h1.377v-8h-1.377v8Zm9.122-.112v-1.232a3.048,3.048,0,0,1-.977.16,1.153,1.153,0,0,1-1.328-1.361v-4.194h2.305v-1.264h-2.305v-2.225h-1.377v2.225h-1.7v1.264h1.7v4.37a2.253,2.253,0,0,0,2.449,2.449A3.835,3.835,0,0,0,174.633,118.759Zm4.463-.96a1.185,1.185,0,1,0-1.185,1.2A1.207,1.207,0,0,0,179.1,117.8Zm18.8-4.61a5.874,5.874,0,1,0-5.874,5.874A5.818,5.818,0,0,0,197.9,113.189Zm-10.244,0a4.379,4.379,0,1,1,4.37,4.466A4.357,4.357,0,0,1,187.655,113.189Zm12.944,2.593c0,1.985,1.184,3.249,2.945,3.249a2.754,2.754,0,0,0,2.465-1.392v1.232h1.377v-8h-1.377v3.969c0,1.841-.976,2.93-2.225,2.93-1.1,0-1.809-.849-1.809-2.193v-4.706H200.6v4.914Zm10.176,3.089h1.376V114.9c0-1.872,1.1-2.753,2.113-2.753a2.011,2.011,0,0,1,.752.128v-1.424a2.851,2.851,0,0,0-.624-0.064,2.381,2.381,0,0,0-2.241,1.632v-1.552h-1.376v8Zm11.424,0h1.377v-6.739H225.9v-1.264h-2.321V109.4a1.152,1.152,0,0,1,1.328-1.36,3.233,3.233,0,0,1,.993.16v-1.217a3.646,3.646,0,0,0-1.249-.208,2.286,2.286,0,0,0-2.449,2.481v1.617h-1.7v1.264h1.7v6.739Zm6.867-11.124a0.967,0.967,0,0,0-.961-0.977,0.994,0.994,0,0,0-.992.977,0.983,0.983,0,0,0,.992.976A0.957,0.957,0,0,0,229.066,107.747ZM227.4,118.871h1.377v-8H227.4v8Zm4.766,0h1.376V114.9c0-1.872,1.1-2.753,2.113-2.753a2.011,2.011,0,0,1,.752.128v-1.424a2.851,2.851,0,0,0-.624-0.064,2.381,2.381,0,0,0-2.241,1.632v-1.552h-1.376v8Zm11.7-2.225c0-1.2-.752-1.969-2.113-2.417l-0.864-.288c-0.945-.3-1.233-0.608-1.233-1.12a1.133,1.133,0,0,1,1.345-.929,2.159,2.159,0,0,1,1.7.833l0.9-.865a3.1,3.1,0,0,0-2.561-1.152c-1.585,0-2.705.88-2.705,2.177a2.416,2.416,0,0,0,1.984,2.321l0.785,0.256c1.04,0.336,1.424.72,1.424,1.28a1.218,1.218,0,0,1-1.408,1.089,2.148,2.148,0,0,1-2.049-1.265l-1.12.608a3.177,3.177,0,0,0,3.137,1.857C242.7,119.031,243.865,118.215,243.865,116.646Zm7.007,2.113v-1.232a3.041,3.041,0,0,1-.976.16,1.153,1.153,0,0,1-1.328-1.361v-4.194h2.3v-1.264h-2.3v-2.225h-1.377v2.225h-1.7v1.264h1.7v4.37a2.252,2.252,0,0,0,2.449,2.449A3.828,3.828,0,0,0,250.872,118.759Zm7.727,0.112h1.377v-6.739H262.3v-1.264h-2.321V109.4a1.152,1.152,0,0,1,1.328-1.36,3.233,3.233,0,0,1,.993.16v-1.217a3.646,3.646,0,0,0-1.249-.208,2.286,2.286,0,0,0-2.449,2.481v1.617h-1.7v1.264h1.7v6.739Zm5.2,0h1.377v-12H263.8v12Zm6.43-11.124a0.966,0.966,0,0,0-.96-0.977,1,1,0,0,0-.993.977,0.984,0.984,0,0,0,.993.976A0.956,0.956,0,0,0,270.231,107.747Zm-1.664,11.124h1.376v-8h-1.376v8Zm12.242-.464v-7.539h-1.376V112.1a3.406,3.406,0,0,0-2.785-1.392,4.077,4.077,0,0,0,0,8.147,3.418,3.418,0,0,0,2.785-1.408v0.912a2.558,2.558,0,0,1-2.673,2.769,3.421,3.421,0,0,1-2.8-1.345l-0.961.961a4.754,4.754,0,0,0,3.778,1.633A3.7,3.7,0,0,0,280.809,118.407Zm-6.674-3.634a2.707,2.707,0,1,1,2.7,2.8A2.667,2.667,0,0,1,274.135,114.773Zm10.063,4.1h1.377V114.9c0-1.872,1.024-2.929,2.321-2.929a1.922,1.922,0,0,1,1.889,2.177v4.722h1.36v-4.93a2.949,2.949,0,0,0-3.025-3.233,2.829,2.829,0,0,0-2.545,1.392v-5.234H284.2v12Zm14.466-.112v-1.232a3.041,3.041,0,0,1-.976.16,1.153,1.153,0,0,1-1.329-1.361v-4.194h2.305v-1.264h-2.305v-2.225h-1.377v2.225h-1.7v1.264h1.7v4.37a2.253,2.253,0,0,0,2.449,2.449A3.83,3.83,0,0,0,298.664,118.759Zm7.744-2.113c0-1.2-.752-1.969-2.113-2.417l-0.864-.288c-0.944-.3-1.232-0.608-1.232-1.12a1.132,1.132,0,0,1,1.344-.929,2.161,2.161,0,0,1,1.7.833l0.9-.865a3.1,3.1,0,0,0-2.561-1.152c-1.585,0-2.7.88-2.7,2.177a2.416,2.416,0,0,0,1.985,2.321l0.784,0.256c1.041,0.336,1.425.72,1.425,1.28a1.219,1.219,0,0,1-1.409,1.089,2.149,2.149,0,0,1-2.049-1.265l-1.12.608a3.178,3.178,0,0,0,3.137,1.857C305.24,119.031,306.408,118.215,306.408,116.646Zm2.654-.864c0,1.985,1.184,3.249,2.945,3.249a2.753,2.753,0,0,0,2.465-1.392v1.232h1.377v-8h-1.377v3.969c0,1.841-.976,2.93-2.225,2.93-1.1,0-1.809-.849-1.809-2.193v-4.706h-1.376v4.914Zm11.841-8.035a0.967,0.967,0,0,0-.961-0.977,0.994,0.994,0,0,0-.992.977,0.983,0.983,0,0,0,.992.976A0.957,0.957,0,0,0,320.9,107.747Zm-1.665,11.124h1.376v-8h-1.376v8Zm9.122-.112v-1.232a3.052,3.052,0,0,1-.977.16,1.153,1.153,0,0,1-1.328-1.361v-4.194h2.305v-1.264h-2.305v-2.225h-1.377v2.225h-1.7v1.264h1.7v4.37a2.252,2.252,0,0,0,2.449,2.449A3.84,3.84,0,0,0,328.36,118.759Zm6.637-3.89a4.005,4.005,0,0,0,3.922,4.162,3.51,3.51,0,0,0,2.817-1.392v1.232h1.377v-8h-1.377V112.1a3.51,3.51,0,0,0-2.817-1.392A4.005,4.005,0,0,0,335,114.869Zm6.851,0a2.734,2.734,0,1,1-2.721-2.9A2.733,2.733,0,0,1,341.848,114.869Zm4.653,7.347h1.377v-4.577a3.51,3.51,0,0,0,2.817,1.392,4.169,4.169,0,0,0,0-8.323,3.51,3.51,0,0,0-2.817,1.392v-1.232H346.5v11.348Zm6.707-7.347a2.726,2.726,0,1,1-2.721-2.9A2.733,2.733,0,0,1,353.208,114.869Zm4.189,7.347h1.377v-4.577a3.51,3.51,0,0,0,2.817,1.392,4.169,4.169,0,0,0,0-8.323,3.51,3.51,0,0,0-2.817,1.392v-1.232H357.4v11.348Zm6.707-7.347a2.726,2.726,0,1,1-2.721-2.9A2.733,2.733,0,0,1,364.1,114.869Zm3.565,0a4.219,4.219,0,0,0,7.747,2.257l-1.088-.752a2.833,2.833,0,0,1-5.266-1.232h6.562a3.922,3.922,0,0,0,.016-0.417,3.728,3.728,0,0,0-3.809-4.017A4.056,4.056,0,0,0,367.669,114.869Zm4.114-2.945a2.4,2.4,0,0,1,2.449,2.1h-5.074A2.616,2.616,0,0,1,371.783,111.924Zm5.982,2.945a4.005,4.005,0,0,0,3.921,4.162,3.512,3.512,0,0,0,2.818-1.392v1.232h1.376v-8H384.5V112.1a3.512,3.512,0,0,0-2.818-1.392A4,4,0,0,0,377.765,114.869Zm6.851,0a2.734,2.734,0,1,1-2.721-2.9A2.733,2.733,0,0,1,384.616,114.869Zm4.653,4h1.377V114.9c0-1.872,1.1-2.753,2.112-2.753a2.013,2.013,0,0,1,.753.128v-1.424a2.854,2.854,0,0,0-.625-0.064,2.38,2.38,0,0,0-2.24,1.632v-1.552h-1.377v8Zm5.744-4a4.219,4.219,0,0,0,7.747,2.257l-1.088-.752a2.834,2.834,0,0,1-5.267-1.232h6.563a3.922,3.922,0,0,0,.016-0.417,3.729,3.729,0,0,0-3.809-4.017A4.056,4.056,0,0,0,395.013,114.869Zm4.114-2.945a2.4,2.4,0,0,1,2.449,2.1H396.5A2.618,2.618,0,0,1,399.127,111.924Zm5.982,2.945a4,4,0,0,0,3.921,4.162,3.509,3.509,0,0,0,2.817-1.392v1.232h1.377v-12h-1.377V112.1a3.509,3.509,0,0,0-2.817-1.392A4,4,0,0,0,405.109,114.869Zm6.851,0a2.734,2.734,0,1,1-2.722-2.9A2.734,2.734,0,0,1,411.96,114.869Zm11.021-7.122a0.966,0.966,0,0,0-.96-0.977,0.994,0.994,0,0,0-.992.977,0.983,0.983,0,0,0,.992.976A0.956,0.956,0,0,0,422.981,107.747Zm-1.664,11.124h1.376v-8h-1.376v8Zm4.784,0h1.376V114.9c0-1.872,1.024-2.929,2.321-2.929a1.922,1.922,0,0,1,1.889,2.177v4.722h1.36v-4.93a2.949,2.949,0,0,0-3.025-3.233,2.831,2.831,0,0,0-2.545,1.392v-1.232H426.1v8Zm14.3-4a4.005,4.005,0,0,0,3.922,4.162,3.512,3.512,0,0,0,2.817-1.392v1.232h1.376v-8h-1.376V112.1a3.512,3.512,0,0,0-2.817-1.392A4.005,4.005,0,0,0,440.4,114.869Zm6.851,0a2.734,2.734,0,1,1-2.721-2.9A2.733,2.733,0,0,1,447.255,114.869Zm10.349,4h1.377V107.507h-2.449l-1.121,1.36H457.6v10Zm4.864,0h1.76l4.162-4.914a4.367,4.367,0,0,0,1.281-2.9,3.85,3.85,0,0,0-7.7.048,3.67,3.67,0,0,0,3.553,3.649,2.039,2.039,0,0,0,.448-0.032Zm0.912-7.779a2.441,2.441,0,1,1,2.433,2.449A2.415,2.415,0,0,1,463.38,111.092Zm16.019,4.37a3.176,3.176,0,0,0-1.777-2.977,2.663,2.663,0,0,0,1.152-2.241,2.95,2.95,0,0,0-3.185-2.93,2.991,2.991,0,0,0-3.2,2.93,2.652,2.652,0,0,0,1.184,2.241,3.175,3.175,0,0,0-1.808,2.977A3.826,3.826,0,0,0,479.4,115.462Zm-5.651-5.186a1.692,1.692,0,0,1,1.841-1.665,1.66,1.66,0,0,1,1.825,1.665,1.7,1.7,0,0,1-1.825,1.68A1.732,1.732,0,0,1,473.748,110.276Zm-0.592,5.186a2.256,2.256,0,0,1,2.433-2.273,2.27,2.27,0,1,1,0,4.53A2.262,2.262,0,0,1,473.156,115.462Zm16.8-.7v-3.169a4.033,4.033,0,1,0-8.051,0v3.169A4.033,4.033,0,1,0,489.959,114.757Zm-6.675,0v-3.169a2.662,2.662,0,1,1,5.3,0v3.169A2.662,2.662,0,1,1,483.284,114.757Zm14.639,4.114h4.066c2.305,0,3.81-1.424,3.81-3.313a2.708,2.708,0,0,0-1.969-2.721,2.578,2.578,0,0,0,1.216-2.321,3.111,3.111,0,0,0-3.393-3.009h-3.73v11.364Zm1.489-6.483v-3.537h2.241a1.787,1.787,0,0,1,1.937,1.777,1.749,1.749,0,0,1-1.937,1.76h-2.241Zm0,5.139v-3.858h2.657c1.5,0,2.273.832,2.273,1.937,0,1.12-.768,1.921-2.289,1.921h-2.641Zm8.543-2.658a4.005,4.005,0,0,0,3.922,4.162,3.51,3.51,0,0,0,2.817-1.392v1.232h1.376v-8h-1.376V112.1a3.51,3.51,0,0,0-2.817-1.392A4.005,4.005,0,0,0,507.955,114.869Zm6.851,0a2.734,2.734,0,1,1-2.721-2.9A2.733,2.733,0,0,1,514.806,114.869Zm4.653,4h1.377V114.9c0-1.872,1.024-2.929,2.321-2.929a1.921,1.921,0,0,1,1.888,2.177v4.722h1.361v-4.93a2.949,2.949,0,0,0-3.025-3.233,2.829,2.829,0,0,0-2.545,1.392v-1.232h-1.377v8Zm9.6-4a4,4,0,0,0,3.921,4.162,3.509,3.509,0,0,0,2.817-1.392v1.232h1.377v-8H535.8V112.1a3.509,3.509,0,0,0-2.817-1.392A4,4,0,0,0,529.059,114.869Zm6.85,0a2.734,2.734,0,1,1-2.721-2.9A2.733,2.733,0,0,1,535.909,114.869Zm4.654,4h1.376V114.9c0-1.872,1.025-2.929,2.321-2.929a1.921,1.921,0,0,1,1.889,2.177v4.722h1.361v-4.93a2.95,2.95,0,0,0-3.026-3.233,2.832,2.832,0,0,0-2.545,1.392v-1.232h-1.376v8Zm9.6-4a4.005,4.005,0,0,0,3.922,4.162,3.51,3.51,0,0,0,2.817-1.392v1.232h1.377v-8H556.9V112.1a3.51,3.51,0,0,0-2.817-1.392A4.005,4.005,0,0,0,550.162,114.869Zm6.851,0a2.734,2.734,0,1,1-2.721-2.9A2.733,2.733,0,0,1,557.013,114.869Zm9.565,4h1.489V113.7h1.1l4.37,5.17h1.873l-4.37-5.186a2.965,2.965,0,0,0,2.8-3.041,3.065,3.065,0,0,0-3.393-3.137h-3.874v11.364Zm1.489-6.5v-3.489h2.209c1.3,0,2.081.608,2.081,1.761,0,1.136-.785,1.728-2.081,1.728h-2.209Zm8.4,2.5a4.219,4.219,0,0,0,7.747,2.257l-1.088-.752a2.834,2.834,0,0,1-5.267-1.232h6.563a3.922,3.922,0,0,0,.016-0.417,3.729,3.729,0,0,0-3.809-4.017A4.056,4.056,0,0,0,576.466,114.869Zm4.114-2.945a2.4,2.4,0,0,1,2.449,2.1h-5.074A2.616,2.616,0,0,1,580.58,111.924Zm6.606,10.292h1.377v-4.577a3.509,3.509,0,0,0,2.817,1.392,4.169,4.169,0,0,0,0-8.323,3.509,3.509,0,0,0-2.817,1.392v-1.232h-1.377v11.348Zm6.707-7.347a2.726,2.726,0,1,1-2.721-2.9A2.733,2.733,0,0,1,593.893,114.869Zm4.077,0.913c0,1.985,1.184,3.249,2.945,3.249a2.753,2.753,0,0,0,2.465-1.392v1.232h1.377v-8H603.38v3.969c0,1.841-.976,2.93-2.225,2.93-1.1,0-1.808-.849-1.808-2.193v-4.706H597.97v4.914Zm11.552,1.857a3.512,3.512,0,0,0,2.818,1.392,4.169,4.169,0,0,0,0-8.323,3.512,3.512,0,0,0-2.818,1.392v-5.234h-1.376v12h1.376v-1.232Zm5.331-2.77a2.727,2.727,0,1,1-2.721-2.9A2.733,2.733,0,0,1,614.853,114.869Zm4.173,4H620.4v-12h-1.376v12Zm6.448-11.124a0.966,0.966,0,0,0-.96-0.977,0.994,0.994,0,0,0-.992.977,0.983,0.983,0,0,0,.992.976A0.956,0.956,0,0,0,625.474,107.747Zm-1.664,11.124h1.376v-8H623.81v8Zm12.05-1.985-1.2-.672a2.714,2.714,0,0,1-2.5,1.537,2.883,2.883,0,0,1,0-5.763,2.714,2.714,0,0,1,2.5,1.537l1.2-.672A4.162,4.162,0,1,0,635.86,116.886Zm-597.96,20-1.2-.672a2.714,2.714,0,0,1-2.5,1.537,2.883,2.883,0,0,1,0-5.763,2.714,2.714,0,0,1,2.5,1.537l1.2-.672a4.144,4.144,0,0,0-3.7-2.145,4.162,4.162,0,1,0,0,8.323A4.144,4.144,0,0,0,37.9,136.886Zm1.949-2.017a4.005,4.005,0,0,0,3.922,4.162,3.51,3.51,0,0,0,2.817-1.392v1.232h1.377v-8H46.587V132.1a3.51,3.51,0,0,0-2.817-1.392A4,4,0,0,0,39.849,134.869Zm6.851,0a2.734,2.734,0,1,1-2.721-2.9A2.733,2.733,0,0,1,46.7,134.869Zm8.991,3.89v-1.232a3.043,3.043,0,0,1-.976.16,1.153,1.153,0,0,1-1.328-1.361v-4.194h2.3v-1.264h-2.3v-2.225H52.009v2.225h-1.7v1.264h1.7v4.37a2.253,2.253,0,0,0,2.449,2.449A3.831,3.831,0,0,0,55.69,138.759Zm1.822-3.89a4.005,4.005,0,0,0,3.922,4.162,3.51,3.51,0,0,0,2.817-1.392v1.232h1.376v-8H64.251V132.1a3.51,3.51,0,0,0-2.817-1.392A4,4,0,0,0,57.513,134.869Zm6.851,0a2.734,2.734,0,1,1-2.721-2.9A2.733,2.733,0,0,1,64.363,134.869Zm4.653,4h1.377V126.866H69.017v12.005Zm12.515-4a4.186,4.186,0,1,0-4.178,4.162A4.107,4.107,0,0,0,81.532,134.869Zm-6.963,0a2.779,2.779,0,1,1,2.785,2.882A2.751,2.751,0,0,1,74.569,134.869Zm17.187,3.538v-7.539H90.379V132.1a3.406,3.406,0,0,0-2.785-1.392,4.077,4.077,0,0,0,0,8.147,3.418,3.418,0,0,0,2.785-1.408v0.912a2.558,2.558,0,0,1-2.673,2.769,3.422,3.422,0,0,1-2.8-1.345l-0.96.961a4.753,4.753,0,0,0,3.778,1.633A3.7,3.7,0,0,0,91.755,138.407Zm-6.675-3.634a2.707,2.707,0,1,1,2.705,2.8A2.667,2.667,0,0,1,85.081,134.773ZM97.049,137.8a1.185,1.185,0,1,0-1.184,1.2A1.206,1.206,0,0,0,97.049,137.8Zm7.839,1.072h3.265a5.693,5.693,0,1,0,0-11.364h-3.265v11.364Zm1.489-1.392V128.9h1.776a4.3,4.3,0,1,1,0,8.58h-1.776Zm10.511-1.7c0,1.985,1.184,3.249,2.945,3.249a2.753,2.753,0,0,0,2.465-1.392v1.232h1.377v-8H122.3v3.969c0,1.841-.976,2.93-2.225,2.93-1.1,0-1.809-.849-1.809-2.193v-4.706h-1.376v4.914Zm11.552,1.857a3.512,3.512,0,0,0,2.818,1.392,4.169,4.169,0,0,0,0-8.323,3.512,3.512,0,0,0-2.818,1.392v-5.234h-1.376v12.005h1.376v-1.232Zm5.331-2.77a2.727,2.727,0,1,1-2.721-2.9A2.733,2.733,0,0,1,133.771,134.869Zm5.549,2.77a3.512,3.512,0,0,0,2.817,1.392,4.169,4.169,0,0,0,0-8.323,3.512,3.512,0,0,0-2.817,1.392v-5.234h-1.376v12.005h1.376v-1.232Zm5.33-2.77a2.726,2.726,0,1,1-2.721-2.9A2.733,2.733,0,0,1,144.65,134.869Zm3.549,0a4.219,4.219,0,0,0,7.747,2.257l-1.088-.752a2.833,2.833,0,0,1-5.266-1.232h6.563a3.922,3.922,0,0,0,.016-0.417,3.729,3.729,0,0,0-3.81-4.017A4.056,4.056,0,0,0,148.2,134.869Zm4.114-2.945a2.4,2.4,0,0,1,2.449,2.1h-5.074A2.616,2.616,0,0,1,152.313,131.924Zm5.982,2.945a4.005,4.005,0,0,0,3.922,4.162,3.51,3.51,0,0,0,2.817-1.392v1.232h1.376V126.866h-1.376V132.1a3.51,3.51,0,0,0-2.817-1.392A4.005,4.005,0,0,0,158.295,134.869Zm6.851,0a2.734,2.734,0,1,1-2.721-2.9A2.733,2.733,0,0,1,165.146,134.869Zm13.423,3.89v-1.232a3.043,3.043,0,0,1-.977.16,1.153,1.153,0,0,1-1.328-1.361v-4.194h2.3v-1.264h-2.3v-2.225h-1.377v2.225h-1.7v1.264h1.7v4.37a2.253,2.253,0,0,0,2.449,2.449A3.83,3.83,0,0,0,178.569,138.759Zm2.558,0.112H182.5V134.9c0-1.872,1.024-2.929,2.321-2.929a1.921,1.921,0,0,1,1.888,2.177v4.722h1.361v-4.93a2.949,2.949,0,0,0-3.025-3.233A2.829,2.829,0,0,0,182.5,132.1v-5.234h-1.377v12.005Zm9.6-4a4.219,4.219,0,0,0,7.747,2.257l-1.089-.752a2.833,2.833,0,0,1-5.266-1.232h6.563a3.922,3.922,0,0,0,.016-0.417,3.729,3.729,0,0,0-3.81-4.017A4.055,4.055,0,0,0,190.727,134.869Zm4.113-2.945a2.4,2.4,0,0,1,2.449,2.1h-5.074A2.617,2.617,0,0,1,194.84,131.924Zm11.519,6.947h1.488v-5.106h4.05v-1.409h-4.05v-3.441h5.122v-1.408h-6.61v11.364Zm9.055,0h1.377V126.866h-1.377v12.005Zm6.449-11.124a0.966,0.966,0,0,0-.96-0.977,0.994,0.994,0,0,0-.993.977,0.984,0.984,0,0,0,.993.976A0.956,0.956,0,0,0,221.863,127.747ZM220.2,138.871h1.377v-8H220.2v8Zm12.243-.464v-7.539h-1.376V132.1a3.407,3.407,0,0,0-2.785-1.392,4.077,4.077,0,0,0,0,8.147,3.42,3.42,0,0,0,2.785-1.408v0.912a2.558,2.558,0,0,1-2.673,2.769,3.424,3.424,0,0,1-2.8-1.345l-0.96.961a4.753,4.753,0,0,0,3.778,1.633A3.7,3.7,0,0,0,232.441,138.407Zm-6.674-3.634a2.707,2.707,0,1,1,2.705,2.8A2.667,2.667,0,0,1,225.767,134.773Zm10.063,4.1h1.377V134.9c0-1.872,1.024-2.929,2.321-2.929a1.921,1.921,0,0,1,1.888,2.177v4.722h1.361v-4.93a2.949,2.949,0,0,0-3.025-3.233,2.829,2.829,0,0,0-2.545,1.392v-5.234H235.83v12.005Zm14.466-.112v-1.232a3.048,3.048,0,0,1-.977.16,1.153,1.153,0,0,1-1.328-1.361v-4.194h2.3v-1.264h-2.3v-2.225h-1.377v2.225h-1.7v1.264h1.7v4.37a2.253,2.253,0,0,0,2.449,2.449A3.835,3.835,0,0,0,250.3,138.759Zm12.528-3.025v-8.227h-1.472v8.067a1.815,1.815,0,0,1-1.873,2.113,1.779,1.779,0,0,1-1.889-1.857h-1.472a3.127,3.127,0,0,0,3.377,3.233A3.069,3.069,0,0,0,262.824,135.734Zm3.246,0.048c0,1.985,1.184,3.249,2.945,3.249a2.753,2.753,0,0,0,2.465-1.392v1.232h1.377v-8H271.48v3.969c0,1.841-.976,2.93-2.225,2.93-1.1,0-1.809-.849-1.809-2.193v-4.706H266.07v4.914Zm10.176,3.089h1.376V134.9c0-1.808.913-2.929,2.209-2.929,1.041,0,1.569.9,1.569,2.193v4.706h1.377V134.9c0-1.808.9-2.929,2.192-2.929,1.041,0,1.585.9,1.585,2.193v4.706h1.377v-4.914c0-1.953-1.057-3.249-2.8-3.249a2.771,2.771,0,0,0-2.625,1.712,2.515,2.515,0,0,0-2.465-1.712,2.692,2.692,0,0,0-2.417,1.392v-1.232h-1.376v8Zm14.96,3.345h1.376v-4.577a3.512,3.512,0,0,0,2.817,1.392,4.169,4.169,0,0,0,0-8.323,3.512,3.512,0,0,0-2.817,1.392v-1.232h-1.376v11.348Zm6.706-7.347a2.726,2.726,0,1,1-2.721-2.9A2.733,2.733,0,0,1,297.912,134.869Zm9.36,1.777c0-1.2-.752-1.969-2.113-2.417l-0.864-.288c-0.945-.3-1.233-0.608-1.233-1.12a1.133,1.133,0,0,1,1.345-.929,2.159,2.159,0,0,1,1.7.833l0.9-.865a3.1,3.1,0,0,0-2.561-1.152c-1.585,0-2.705.88-2.705,2.177a2.416,2.416,0,0,0,1.985,2.321l0.784,0.256c1.04,0.336,1.424.72,1.424,1.28a1.218,1.218,0,0,1-1.408,1.089,2.148,2.148,0,0,1-2.049-1.265l-1.12.608a3.177,3.177,0,0,0,3.137,1.857C306.1,139.031,307.272,138.215,307.272,136.646Zm2.654-.864c0,1.985,1.184,3.249,2.945,3.249a2.754,2.754,0,0,0,2.465-1.392v1.232h1.376v-8h-1.376v3.969c0,1.841-.977,2.93-2.225,2.93-1.1,0-1.809-.849-1.809-2.193v-4.706h-1.376v4.914Zm11.84-8.035a0.966,0.966,0,0,0-.96-0.977,1,1,0,0,0-.993.977,0.984,0.984,0,0,0,.993.976A0.956,0.956,0,0,0,321.766,127.747ZM320.1,138.871h1.376v-8H320.1v8Zm9.121-.112v-1.232a3.041,3.041,0,0,1-.976.16,1.153,1.153,0,0,1-1.329-1.361v-4.194h2.305v-1.264h-2.305v-2.225h-1.376v2.225h-1.7v1.264h1.7v4.37a2.252,2.252,0,0,0,2.449,2.449A3.828,3.828,0,0,0,329.223,138.759Zm4.271-.24a1.368,1.368,0,0,0,.224-0.72,1.185,1.185,0,1,0-2.369,0,1.19,1.19,0,0,0,.657,1.072l-1.073,2.289h0.912Zm9.552-10.772a0.967,0.967,0,0,0-.961-0.977,0.994,0.994,0,0,0-.992.977,0.983,0.983,0,0,0,.992.976A0.957,0.957,0,0,0,343.046,127.747Zm-1.665,11.124h1.377v-8h-1.377v8Zm9.122-.112v-1.232a3.043,3.043,0,0,1-.977.16,1.153,1.153,0,0,1-1.328-1.361v-4.194H350.5v-1.264H348.2v-2.225h-1.377v2.225h-1.7v1.264h1.7v4.37a2.253,2.253,0,0,0,2.449,2.449A3.83,3.83,0,0,0,350.5,138.759Zm13.761,0.112h1.216l2.721-8h-1.456l-1.937,5.842-2-5.842h-1.056l-2,5.842-1.937-5.842h-1.44l2.721,8h1.216l1.985-5.762Zm5.565-4a4,4,0,0,0,3.921,4.162,3.509,3.509,0,0,0,2.817-1.392v1.232h1.377v-8h-1.377V132.1a3.509,3.509,0,0,0-2.817-1.392A4,4,0,0,0,369.829,134.869Zm6.85,0a2.734,2.734,0,1,1-2.721-2.9A2.733,2.733,0,0,1,376.679,134.869Zm9.84,1.777c0-1.2-.753-1.969-2.113-2.417l-0.864-.288c-0.945-.3-1.233-0.608-1.233-1.12a1.133,1.133,0,0,1,1.345-.929,2.159,2.159,0,0,1,1.7.833l0.9-.865a3.106,3.106,0,0,0-2.561-1.152c-1.585,0-2.706.88-2.706,2.177a2.417,2.417,0,0,0,1.985,2.321l0.785,0.256c1.04,0.336,1.424.72,1.424,1.28a1.218,1.218,0,0,1-1.408,1.089,2.148,2.148,0,0,1-2.049-1.265l-1.121.608a3.18,3.18,0,0,0,3.138,1.857C385.35,139.031,386.519,138.215,386.519,136.646Zm9.134-8.9a0.966,0.966,0,0,0-.96-0.977,0.994,0.994,0,0,0-.993.977,0.984,0.984,0,0,0,.993.976A0.956,0.956,0,0,0,395.653,127.747Zm-1.665,11.124h1.377v-8h-1.377v8Zm4.784,0h1.377V134.9c0-1.872,1.024-2.929,2.321-2.929a1.921,1.921,0,0,1,1.888,2.177v4.722h1.361v-4.93a2.949,2.949,0,0,0-3.025-3.233,2.829,2.829,0,0,0-2.545,1.392v-1.232h-1.377v8Zm15.41-2.225c0-1.2-.752-1.969-2.113-2.417l-0.864-.288c-0.944-.3-1.233-0.608-1.233-1.12a1.133,1.133,0,0,1,1.345-.929,2.163,2.163,0,0,1,1.7.833l0.9-.865a3.1,3.1,0,0,0-2.561-1.152c-1.585,0-2.7.88-2.7,2.177a2.416,2.416,0,0,0,1.985,2.321l0.784,0.256c1.04,0.336,1.425.72,1.425,1.28a1.219,1.219,0,0,1-1.409,1.089,2.149,2.149,0,0,1-2.049-1.265l-1.12.608a3.177,3.177,0,0,0,3.137,1.857C413.014,139.031,414.182,138.215,414.182,136.646Zm2.766,5.57h1.376v-4.577a3.512,3.512,0,0,0,2.818,1.392,4.169,4.169,0,0,0,0-8.323,3.512,3.512,0,0,0-2.818,1.392v-1.232h-1.376v11.348Zm6.707-7.347a2.727,2.727,0,1,1-2.722-2.9A2.734,2.734,0,0,1,423.655,134.869Zm5.854-7.122a0.967,0.967,0,0,0-.961-0.977,0.994,0.994,0,0,0-.992.977,0.983,0.983,0,0,0,.992.976A0.957,0.957,0,0,0,429.509,127.747Zm-1.665,11.124h1.376v-8h-1.376v8Zm4.784,0H434V134.9c0-1.872,1.1-2.753,2.113-2.753a2.011,2.011,0,0,1,.752.128v-1.424a2.851,2.851,0,0,0-.624-0.064A2.381,2.381,0,0,0,434,132.42v-1.552h-1.376v8Zm5.744-4a4.219,4.219,0,0,0,7.747,2.257l-1.089-.752a2.833,2.833,0,0,1-5.266-1.232h6.563a3.922,3.922,0,0,0,.016-0.417,3.729,3.729,0,0,0-3.81-4.017A4.055,4.055,0,0,0,438.372,134.869Zm4.113-2.945a2.4,2.4,0,0,1,2.449,2.1H439.86A2.617,2.617,0,0,1,442.485,131.924Zm5.982,2.945a4.005,4.005,0,0,0,3.922,4.162,3.509,3.509,0,0,0,2.817-1.392v1.232h1.377V126.866h-1.377V132.1a3.509,3.509,0,0,0-2.817-1.392A4.005,4.005,0,0,0,448.467,134.869Zm6.851,0a2.734,2.734,0,1,1-2.721-2.9A2.733,2.733,0,0,1,455.318,134.869Zm10.734,2.77a3.51,3.51,0,0,0,2.817,1.392,4.169,4.169,0,0,0,0-8.323,3.51,3.51,0,0,0-2.817,1.392v-5.234h-1.377v12.005h1.377v-1.232Zm5.33-2.77a2.726,2.726,0,1,1-2.721-2.9A2.733,2.733,0,0,1,471.382,134.869Zm6.142,7.347,5.25-11.348h-1.536l-2.737,6.066-2.754-6.066h-1.52l3.505,7.587-1.744,3.761h1.536Zm15.841-3.457v-1.232a3.041,3.041,0,0,1-.976.16,1.153,1.153,0,0,1-1.329-1.361v-4.194h2.305v-1.264H491.06v-2.225h-1.376v2.225h-1.7v1.264h1.7v4.37a2.252,2.252,0,0,0,2.449,2.449A3.828,3.828,0,0,0,493.365,138.759Zm2.558,0.112H497.3V134.9c0-1.872,1.024-2.929,2.321-2.929a1.921,1.921,0,0,1,1.888,2.177v4.722h1.361v-4.93a2.949,2.949,0,0,0-3.025-3.233A2.829,2.829,0,0,0,497.3,132.1v-5.234h-1.377v12.005Zm9.6-4a4.219,4.219,0,0,0,7.747,2.257l-1.089-.752a2.833,2.833,0,0,1-5.266-1.232h6.563a3.922,3.922,0,0,0,.016-0.417,3.729,3.729,0,0,0-3.81-4.017A4.055,4.055,0,0,0,505.523,134.869Zm4.113-2.945a2.4,2.4,0,0,1,2.449,2.1h-5.074A2.617,2.617,0,0,1,509.636,131.924Zm20.274,2.529v-6.946h-1.488v6.978a2.968,2.968,0,1,1-5.923,0v-6.978h-1.488v6.946A4.452,4.452,0,1,0,529.91,134.453Zm4.942,3.346a1.185,1.185,0,1,0-1.185,1.2A1.206,1.206,0,0,0,534.852,137.8Zm2.207-.785a4.386,4.386,0,0,0,3.985,2.049c2.113,0,3.618-1.216,3.618-3.153,0-1.681-.961-2.641-2.641-3.281l-1.377-.529c-1.152-.432-1.713-0.864-1.713-1.824a1.81,1.81,0,0,1,2.049-1.569,2.812,2.812,0,0,1,2.257,1.12l1.089-.96a4.148,4.148,0,0,0-3.314-1.553c-2.033,0-3.553,1.169-3.553,3.026,0,1.552.8,2.481,2.577,3.137l1.5,0.576a2.066,2.066,0,0,1,1.633,1.921,1.846,1.846,0,0,1-2.1,1.7,3.177,3.177,0,0,1-2.817-1.553Zm12.288,0.785a1.185,1.185,0,1,0-1.184,1.2A1.206,1.206,0,0,0,549.347,137.8Zm17.524,1.072V127.507H565.4v8.851l-6.915-8.851h-1.3v11.364h1.488V130.02l6.915,8.851h1.281Zm2.843-4a4.005,4.005,0,0,0,3.922,4.162,3.51,3.51,0,0,0,2.817-1.392v1.232h1.377v-8h-1.377V132.1a3.51,3.51,0,0,0-2.817-1.392A4.005,4.005,0,0,0,569.714,134.869Zm6.851,0a2.734,2.734,0,1,1-2.721-2.9A2.733,2.733,0,0,1,576.565,134.869Zm7.15,4h1.153l3.7-8h-1.536l-2.737,6.05-2.737-6.05h-1.537Zm9.168,3.345,5.25-11.348H596.6l-2.738,6.066-2.753-6.066h-1.52l3.5,7.587-1.745,3.761h1.537Zm9.472-12.981a1.414,1.414,0,0,0,.224-0.72,1.193,1.193,0,1,0-2.385,0,1.24,1.24,0,0,0,.656,1.072l-1.072,2.289h0.928Zm7.473,7.411c0-1.2-.752-1.969-2.113-2.417l-0.864-.288c-0.944-.3-1.232-0.608-1.232-1.12a1.132,1.132,0,0,1,1.344-.929,2.161,2.161,0,0,1,1.7.833l0.9-.865A3.1,3.1,0,0,0,607,130.708c-1.584,0-2.705.88-2.705,2.177a2.416,2.416,0,0,0,1.985,2.321l0.784,0.256c1.041,0.336,1.425.72,1.425,1.28a1.218,1.218,0,0,1-1.409,1.089,2.15,2.15,0,0,1-2.049-1.265l-1.12.608a3.178,3.178,0,0,0,3.137,1.857C608.66,139.031,609.828,138.215,609.828,136.646Zm16.162,2.225h1.328l3.105-11.364h-1.552l-2.385,8.867-3.281-9.06-3.266,9.06-2.385-8.867H616l3.105,11.364h1.328l2.786-7.715Zm15.952,0h1.328l3.105-11.364h-1.552l-2.385,8.867-3.282-9.06-3.265,9.06-2.385-8.867h-1.552l3.105,11.364h1.328l2.785-7.715Zm7.1,0h1.488V127.507h-1.488v11.364Zm5.3,0h1.488V127.507h-1.488v11.364ZM30.521,155.782c0,1.985,1.185,3.249,2.945,3.249a2.754,2.754,0,0,0,2.465-1.392v1.232h1.377v-8H35.931v3.969c0,1.841-.976,2.93-2.225,2.93-1.1,0-1.809-.849-1.809-2.193v-4.706H30.521v4.914ZM40.7,158.871h1.377V154.9c0-1.872,1.024-2.929,2.321-2.929a1.921,1.921,0,0,1,1.889,2.177v4.722h1.361v-4.93a2.949,2.949,0,0,0-3.025-3.233,2.83,2.83,0,0,0-2.545,1.392v-1.232H40.7v8Zm11.889-11.124a0.967,0.967,0,0,0-.96-0.977,0.994,0.994,0,0,0-.992.977,0.984,0.984,0,0,0,.992.976A0.957,0.957,0,0,0,52.586,147.747Zm-1.665,11.124H52.3v-8H50.921v8Zm5.456,0h1.377v-6.739h2.321v-1.264H57.754V149.4a1.152,1.152,0,0,1,1.328-1.36,3.224,3.224,0,0,1,.992.16v-1.217a3.639,3.639,0,0,0-1.248-.208,2.286,2.286,0,0,0-2.449,2.481v1.617h-1.7v1.264h1.7v6.739Zm13.523-4a4.186,4.186,0,1,0-4.178,4.162A4.107,4.107,0,0,0,69.9,154.869Zm-6.963,0a2.779,2.779,0,1,1,2.785,2.882A2.751,2.751,0,0,1,62.937,154.869Zm9.728,4h1.377V154.9c0-1.872,1.1-2.753,2.113-2.753a2.013,2.013,0,0,1,.752.128v-1.424a2.852,2.852,0,0,0-.624-0.064,2.381,2.381,0,0,0-2.241,1.632v-1.552H72.665v8Zm6.656,0H80.7V154.9c0-1.808.912-2.929,2.209-2.929,1.04,0,1.569.9,1.569,2.193v4.706h1.377V154.9c0-1.808.9-2.929,2.193-2.929,1.04,0,1.585.9,1.585,2.193v4.706h1.377v-4.914c0-1.953-1.056-3.249-2.8-3.249a2.77,2.77,0,0,0-2.625,1.712,2.516,2.516,0,0,0-2.465-1.712A2.69,2.69,0,0,0,80.7,152.1v-1.232H79.321v8Zm20.146-2.225c0-1.2-.752-1.969-2.113-2.417l-0.864-.288c-0.944-.3-1.233-0.608-1.233-1.12a1.133,1.133,0,0,1,1.344-.929,2.161,2.161,0,0,1,1.7.833l0.9-.865a3.1,3.1,0,0,0-2.561-1.152c-1.585,0-2.705.88-2.705,2.177a2.416,2.416,0,0,0,1.985,2.321l0.784,0.256c1.04,0.336,1.425.72,1.425,1.28a1.218,1.218,0,0,1-1.409,1.089,2.149,2.149,0,0,1-2.049-1.265l-1.12.608a3.178,3.178,0,0,0,3.137,1.857C98.3,159.031,99.467,158.215,99.467,156.646Zm4.671,1.153a1.185,1.185,0,1,0-1.184,1.2A1.206,1.206,0,0,0,104.137,157.8Zm7.839,1.072h1.489V153.7h1.1l4.37,5.17h1.873l-4.37-5.186a2.965,2.965,0,0,0,2.8-3.041,3.065,3.065,0,0,0-3.393-3.137h-3.874v11.364Zm1.489-6.5v-3.489h2.209c1.3,0,2.08.608,2.08,1.761,0,1.136-.784,1.728-2.08,1.728h-2.209Zm8.4,2.5a4.219,4.219,0,0,0,7.747,2.257l-1.089-.752a2.833,2.833,0,0,1-5.266-1.232h6.563a3.922,3.922,0,0,0,.016-0.417,3.729,3.729,0,0,0-3.81-4.017A4.055,4.055,0,0,0,121.864,154.869Zm4.113-2.945a2.4,2.4,0,0,1,2.449,2.1h-5.074A2.617,2.617,0,0,1,125.977,151.924Zm6.351,3.154h4.081V153.7h-4.081v1.377Zm8.9-7.331a0.966,0.966,0,0,0-.96-0.977,0.994,0.994,0,0,0-.992.977,0.983,0.983,0,0,0,.992.976A0.956,0.956,0,0,0,141.224,147.747Zm-1.664,11.124h1.376v-8H139.56v8Zm4.784,0h1.376V154.9c0-1.872,1.025-2.929,2.321-2.929a1.922,1.922,0,0,1,1.889,2.177v4.722h1.36v-4.93a2.949,2.949,0,0,0-3.025-3.233,2.831,2.831,0,0,0-2.545,1.392v-1.232h-1.376v8Zm14.465-.112v-1.232a3.041,3.041,0,0,1-.976.16,1.153,1.153,0,0,1-1.329-1.361v-4.194h2.305v-1.264H156.5v-2.225h-1.376v2.225h-1.7v1.264h1.7v4.37a2.252,2.252,0,0,0,2.449,2.449A3.828,3.828,0,0,0,158.809,158.759Zm2.558,0.112h1.377V154.9c0-1.872,1.1-2.753,2.113-2.753a2.011,2.011,0,0,1,.752.128v-1.424a2.851,2.851,0,0,0-.624-0.064,2.38,2.38,0,0,0-2.241,1.632v-1.552h-1.377v8Zm14.1-4a4.186,4.186,0,1,0-4.178,4.162A4.107,4.107,0,0,0,175.467,154.869Zm-6.963,0a2.779,2.779,0,1,1,2.785,2.882A2.751,2.751,0,0,1,168.5,154.869Zm9.1,0a4.005,4.005,0,0,0,3.922,4.162,3.51,3.51,0,0,0,2.817-1.392v1.232h1.376v-12h-1.376V152.1a3.51,3.51,0,0,0-2.817-1.392A4.005,4.005,0,0,0,177.607,154.869Zm6.851,0a2.734,2.734,0,1,1-2.721-2.9A2.733,2.733,0,0,1,184.458,154.869ZM189,155.782c0,1.985,1.185,3.249,2.945,3.249a2.753,2.753,0,0,0,2.465-1.392v1.232h1.377v-8h-1.377v3.969c0,1.841-.976,2.93-2.225,2.93-1.1,0-1.808-.849-1.808-2.193v-4.706H189v4.914Zm17.443,1.1-1.2-.672a2.713,2.713,0,0,1-2.5,1.537,2.883,2.883,0,0,1,0-5.763,2.713,2.713,0,0,1,2.5,1.537l1.2-.672a4.144,4.144,0,0,0-3.7-2.145,4.162,4.162,0,1,0,0,8.323A4.144,4.144,0,0,0,206.442,156.886Zm1.949-2.017a4.219,4.219,0,0,0,7.747,2.257l-1.089-.752a2.833,2.833,0,0,1-5.266-1.232h6.563a3.922,3.922,0,0,0,.016-0.417,3.729,3.729,0,0,0-3.81-4.017A4.055,4.055,0,0,0,208.391,154.869Zm4.113-2.945a2.4,2.4,0,0,1,2.449,2.1h-5.074A2.617,2.617,0,0,1,212.5,151.924Zm5.982,2.945a4.005,4.005,0,0,0,3.922,4.162,3.509,3.509,0,0,0,2.817-1.392v1.232H226.6v-12h-1.377V152.1a3.509,3.509,0,0,0-2.817-1.392A4.005,4.005,0,0,0,218.486,154.869Zm6.851,0a2.734,2.734,0,1,1-2.721-2.9A2.733,2.733,0,0,1,225.337,154.869Zm9.357,4h1.377V154.9c0-1.872,1.024-2.929,2.321-2.929a1.922,1.922,0,0,1,1.889,2.177v4.722h1.36v-4.93a2.949,2.949,0,0,0-3.025-3.233,2.831,2.831,0,0,0-2.545,1.392v-1.232h-1.377v8Zm9.6-4a4.219,4.219,0,0,0,7.747,2.257l-1.088-.752a2.834,2.834,0,0,1-5.267-1.232h6.563a3.922,3.922,0,0,0,.016-0.417,3.729,3.729,0,0,0-3.809-4.017A4.056,4.056,0,0,0,244.294,154.869Zm4.114-2.945a2.4,2.4,0,0,1,2.449,2.1h-5.074A2.616,2.616,0,0,1,248.408,151.924Zm5.982,2.945a4.005,4.005,0,0,0,3.921,4.162,3.512,3.512,0,0,0,2.818-1.392v1.232h1.376v-8h-1.376V152.1a3.512,3.512,0,0,0-2.818-1.392A4,4,0,0,0,254.39,154.869Zm6.851,0a2.734,2.734,0,1,1-2.721-2.9A2.733,2.733,0,0,1,261.241,154.869Zm4.653,4h1.376V154.9c0-1.872,1.105-2.753,2.113-2.753a2.016,2.016,0,0,1,.753.128v-1.424a2.86,2.86,0,0,0-.625-0.064,2.382,2.382,0,0,0-2.241,1.632v-1.552h-1.376v8Zm6.656,0h1.376v-12H272.55v12Zm6.913,3.345,5.25-11.348h-1.537l-2.737,6.066-2.753-6.066h-1.521l3.506,7.587-1.745,3.761h1.537Zm15.84-3.457v-1.232a3.041,3.041,0,0,1-.976.16A1.153,1.153,0,0,1,293,156.326v-4.194h2.3v-1.264H293v-2.225h-1.377v2.225h-1.7v1.264h1.7v4.37a2.252,2.252,0,0,0,2.449,2.449A3.828,3.828,0,0,0,295.3,158.759Zm2.559,0.112h1.376V154.9c0-1.872,1.025-2.929,2.321-2.929a1.921,1.921,0,0,1,1.889,2.177v4.722h1.36v-4.93a2.949,2.949,0,0,0-3.025-3.233,2.831,2.831,0,0,0-2.545,1.392v-5.234h-1.376v12Zm10.224,0h1.376V154.9c0-1.872,1.105-2.753,2.113-2.753a2.011,2.011,0,0,1,.752.128v-1.424a2.851,2.851,0,0,0-.624-0.064,2.381,2.381,0,0,0-2.241,1.632v-1.552h-1.376v8Zm5.743-4a4.219,4.219,0,0,0,7.747,2.257l-1.088-.752a2.833,2.833,0,0,1-5.266-1.232h6.563a3.922,3.922,0,0,0,.016-0.417,3.729,3.729,0,0,0-3.81-4.017A4.056,4.056,0,0,0,313.829,154.869Zm4.114-2.945a2.4,2.4,0,0,1,2.449,2.1h-5.074A2.617,2.617,0,0,1,317.943,151.924Zm5.982,2.945a4.219,4.219,0,0,0,7.747,2.257l-1.088-.752a2.833,2.833,0,0,1-5.266-1.232h6.563a3.922,3.922,0,0,0,.016-0.417,3.729,3.729,0,0,0-3.81-4.017A4.056,4.056,0,0,0,323.925,154.869Zm4.114-2.945a2.4,2.4,0,0,1,2.449,2.1h-5.074A2.616,2.616,0,0,1,328.039,151.924Zm10.686,2.945a4.005,4.005,0,0,0,3.922,4.162,3.512,3.512,0,0,0,2.817-1.392v1.232h1.376v-12h-1.376V152.1a3.512,3.512,0,0,0-2.817-1.392A4.005,4.005,0,0,0,338.725,154.869Zm6.851,0a2.734,2.734,0,1,1-2.721-2.9A2.733,2.733,0,0,1,345.576,154.869Zm4.029,0a4.219,4.219,0,0,0,7.747,2.257l-1.088-.752A2.834,2.834,0,0,1,351,155.142h6.563a3.922,3.922,0,0,0,.016-0.417,3.729,3.729,0,0,0-3.809-4.017A4.056,4.056,0,0,0,349.605,154.869Zm4.113-2.945a2.4,2.4,0,0,1,2.449,2.1h-5.074A2.618,2.618,0,0,1,353.718,151.924Zm13.874,4.962-1.2-.672a2.713,2.713,0,0,1-2.5,1.537,2.883,2.883,0,0,1,0-5.763,2.713,2.713,0,0,1,2.5,1.537l1.2-.672a4.144,4.144,0,0,0-3.7-2.145,4.162,4.162,0,1,0,0,8.323A4.144,4.144,0,0,0,367.592,156.886Zm1.949-2.017a4,4,0,0,0,3.921,4.162,3.509,3.509,0,0,0,2.817-1.392v1.232h1.377v-8h-1.377V152.1a3.509,3.509,0,0,0-2.817-1.392A4,4,0,0,0,369.541,154.869Zm6.85,0a2.734,2.734,0,1,1-2.721-2.9A2.733,2.733,0,0,1,376.391,154.869Zm4.029,0a4.005,4.005,0,0,0,3.922,4.162,3.51,3.51,0,0,0,2.817-1.392v1.232h1.377v-12h-1.377V152.1a3.51,3.51,0,0,0-2.817-1.392A4.005,4.005,0,0,0,380.42,154.869Zm6.851,0a2.734,2.734,0,1,1-2.721-2.9A2.733,2.733,0,0,1,387.271,154.869Zm4.029,0a4.219,4.219,0,0,0,7.747,2.257l-1.088-.752a2.833,2.833,0,0,1-5.266-1.232h6.562a3.922,3.922,0,0,0,.016-0.417,3.728,3.728,0,0,0-3.809-4.017A4.056,4.056,0,0,0,391.3,154.869Zm4.114-2.945a2.4,2.4,0,0,1,2.449,2.1h-5.074A2.616,2.616,0,0,1,395.414,151.924Zm11.792,4.722c0-1.2-.752-1.969-2.112-2.417l-0.865-.288c-0.944-.3-1.232-0.608-1.232-1.12a1.132,1.132,0,0,1,1.344-.929,2.16,2.16,0,0,1,1.7.833l0.9-.865a3.1,3.1,0,0,0-2.561-1.152c-1.584,0-2.7.88-2.7,2.177a2.416,2.416,0,0,0,1.985,2.321l0.784,0.256c1.041,0.336,1.425.72,1.425,1.28a1.218,1.218,0,0,1-1.409,1.089,2.148,2.148,0,0,1-2.048-1.265l-1.121.608a3.178,3.178,0,0,0,3.137,1.857C406.038,159.031,407.206,158.215,407.206,156.646Zm7.47,2.225h1.377v-12h-1.377v12Zm4.16-4a4,4,0,0,0,3.921,4.162,3.509,3.509,0,0,0,2.817-1.392v1.232h1.377v-8h-1.377V152.1a3.509,3.509,0,0,0-2.817-1.392A4,4,0,0,0,418.836,154.869Zm6.85,0a2.734,2.734,0,1,1-2.721-2.9A2.733,2.733,0,0,1,425.686,154.869Zm8.991,3.89v-1.232a3.041,3.041,0,0,1-.976.16,1.153,1.153,0,0,1-1.328-1.361v-4.194h2.3v-1.264h-2.3v-2.225H431v2.225h-1.7v1.264H431v4.37a2.252,2.252,0,0,0,2.449,2.449A3.828,3.828,0,0,0,434.677,158.759Zm1.823-3.89a4.219,4.219,0,0,0,7.747,2.257l-1.089-.752a2.833,2.833,0,0,1-5.266-1.232h6.563a3.922,3.922,0,0,0,.016-0.417,3.729,3.729,0,0,0-3.81-4.017A4.055,4.055,0,0,0,436.5,154.869Zm4.113-2.945a2.4,2.4,0,0,1,2.449,2.1h-5.074A2.617,2.617,0,0,1,440.613,151.924Zm6.607,6.947H448.6V154.9c0-1.872,1.105-2.753,2.113-2.753a2.011,2.011,0,0,1,.752.128v-1.424a2.851,2.851,0,0,0-.624-0.064,2.381,2.381,0,0,0-2.241,1.632v-1.552H447.22v8Zm7.488-.352a1.36,1.36,0,0,0,.225-0.72,1.185,1.185,0,1,0-2.369,0,1.191,1.191,0,0,0,.656,1.072l-1.073,2.289h0.913Zm11.953,0.24v-1.232a3.041,3.041,0,0,1-.976.16,1.153,1.153,0,0,1-1.329-1.361v-4.194h2.305v-1.264h-2.305v-2.225H462.98v2.225h-1.7v1.264h1.7v4.37a2.252,2.252,0,0,0,2.449,2.449A3.828,3.828,0,0,0,466.661,158.759Zm2.559,0.112H470.6V154.9c0-1.872,1.025-2.929,2.321-2.929a1.922,1.922,0,0,1,1.889,2.177v4.722h1.36v-4.93a2.949,2.949,0,0,0-3.025-3.233A2.831,2.831,0,0,0,470.6,152.1v-5.234H469.22v12Zm11.888-11.124a0.966,0.966,0,0,0-.96-0.977,0.994,0.994,0,0,0-.993.977,0.984,0.984,0,0,0,.993.976A0.956,0.956,0,0,0,481.108,147.747Zm-1.665,11.124h1.377v-8h-1.377v8Zm9.97-2.225c0-1.2-.752-1.969-2.113-2.417l-0.864-.288c-0.944-.3-1.232-0.608-1.232-1.12a1.132,1.132,0,0,1,1.344-.929,2.161,2.161,0,0,1,1.7.833l0.9-.865a3.1,3.1,0,0,0-2.561-1.152c-1.584,0-2.7.88-2.7,2.177a2.416,2.416,0,0,0,1.985,2.321l0.784,0.256c1.041,0.336,1.425.72,1.425,1.28a1.218,1.218,0,0,1-1.409,1.089,2.15,2.15,0,0,1-2.049-1.265l-1.12.608a3.178,3.178,0,0,0,3.137,1.857C488.245,159.031,489.413,158.215,489.413,156.646Zm7.47,2.225h1.376V154.9c0-1.808.913-2.929,2.209-2.929,1.041,0,1.569.9,1.569,2.193v4.706h1.377V154.9c0-1.808.9-2.929,2.192-2.929,1.041,0,1.585.9,1.585,2.193v4.706h1.377v-4.914c0-1.953-1.057-3.249-2.8-3.249a2.771,2.771,0,0,0-2.626,1.712,2.515,2.515,0,0,0-2.465-1.712,2.692,2.692,0,0,0-2.417,1.392v-1.232h-1.376v8Zm22.691-4a4.186,4.186,0,1,0-4.178,4.162A4.107,4.107,0,0,0,519.574,154.869Zm-6.963,0a2.779,2.779,0,1,1,2.785,2.882A2.751,2.751,0,0,1,512.611,154.869Zm9.1,0a4.005,4.005,0,0,0,3.922,4.162,3.51,3.51,0,0,0,2.817-1.392v1.232h1.377v-12h-1.377V152.1a3.51,3.51,0,0,0-2.817-1.392A4.005,4.005,0,0,0,521.714,154.869Zm6.851,0a2.734,2.734,0,1,1-2.721-2.9A2.733,2.733,0,0,1,528.565,154.869Zm4.029,0a4.219,4.219,0,0,0,7.747,2.257l-1.088-.752a2.833,2.833,0,0,1-5.266-1.232h6.562a3.922,3.922,0,0,0,.016-0.417,3.728,3.728,0,0,0-3.809-4.017A4.056,4.056,0,0,0,532.594,154.869Zm4.114-2.945a2.4,2.4,0,0,1,2.449,2.1h-5.074A2.616,2.616,0,0,1,536.708,151.924Zm6.606,6.947h1.377V154.9c0-1.872,1.1-2.753,2.113-2.753a2.011,2.011,0,0,1,.752.128v-1.424a2.851,2.851,0,0,0-.624-0.064,2.38,2.38,0,0,0-2.241,1.632v-1.552h-1.377v8Zm6.656,0h1.377V154.9c0-1.872,1.024-2.929,2.321-2.929a1.922,1.922,0,0,1,1.889,2.177v4.722h1.36v-4.93a2.949,2.949,0,0,0-3.025-3.233,2.829,2.829,0,0,0-2.545,1.392v-1.232H549.97v8Zm17.073,0H568.2l3.7-8h-1.537l-2.737,6.05-2.737-6.05h-1.536Zm6.239-4a4.219,4.219,0,0,0,7.747,2.257l-1.088-.752a2.833,2.833,0,0,1-5.266-1.232h6.562a3.922,3.922,0,0,0,.016-0.417,3.729,3.729,0,0,0-3.809-4.017A4.056,4.056,0,0,0,573.282,154.869Zm4.114-2.945a2.4,2.4,0,0,1,2.449,2.1h-5.074A2.616,2.616,0,0,1,577.4,151.924ZM584,158.871h1.377V154.9c0-1.872,1.1-2.753,2.113-2.753a2.011,2.011,0,0,1,.752.128v-1.424a2.851,2.851,0,0,0-.624-0.064,2.38,2.38,0,0,0-2.241,1.632v-1.552H584v8Zm11.7-2.225c0-1.2-.752-1.969-2.113-2.417l-0.864-.288c-0.944-.3-1.232-0.608-1.232-1.12a1.132,1.132,0,0,1,1.344-.929,2.16,2.16,0,0,1,1.7.833l0.9-.865a3.1,3.1,0,0,0-2.561-1.152c-1.584,0-2.7.88-2.7,2.177a2.416,2.416,0,0,0,1.985,2.321l0.784,0.256c1.041,0.336,1.425.72,1.425,1.28a1.218,1.218,0,0,1-1.409,1.089,2.15,2.15,0,0,1-2.049-1.265l-1.12.608a3.178,3.178,0,0,0,3.137,1.857C594.532,159.031,595.7,158.215,595.7,156.646Zm4.431-8.9a0.967,0.967,0,0,0-.961-0.977,0.994,0.994,0,0,0-.992.977,0.983,0.983,0,0,0,.992.976A0.957,0.957,0,0,0,600.131,147.747Zm-1.665,11.124h1.377v-8h-1.377v8Zm12.515-4a4.186,4.186,0,1,0-4.178,4.162A4.107,4.107,0,0,0,610.981,154.869Zm-6.963,0a2.779,2.779,0,1,1,2.785,2.882A2.751,2.751,0,0,1,604.018,154.869Zm9.728,4h1.376V154.9c0-1.872,1.025-2.929,2.321-2.929a1.921,1.921,0,0,1,1.889,2.177v4.722h1.361v-4.93a2.95,2.95,0,0,0-3.026-3.233,2.832,2.832,0,0,0-2.545,1.392v-1.232h-1.376v8Zm22.659-4a4.186,4.186,0,1,0-4.178,4.162A4.107,4.107,0,0,0,636.405,154.869Zm-6.963,0a2.779,2.779,0,1,1,2.785,2.882A2.751,2.751,0,0,1,629.442,154.869Zm10.272,4h1.376v-6.739h2.321v-1.264H641.09V149.4a1.152,1.152,0,0,1,1.329-1.36,3.222,3.222,0,0,1,.992.16v-1.217a3.636,3.636,0,0,0-1.248-.208,2.286,2.286,0,0,0-2.449,2.481v1.617h-1.7v1.264h1.7v6.739Zm-601.35,16a4.186,4.186,0,1,0-4.178,4.162A4.107,4.107,0,0,0,38.364,174.869Zm-6.963,0a2.779,2.779,0,1,1,2.785,2.882A2.751,2.751,0,0,1,31.4,174.869Zm9.616,0.913c0,1.985,1.185,3.249,2.945,3.249a2.754,2.754,0,0,0,2.465-1.392v1.232H47.8v-8H46.427v3.969c0,1.841-.976,2.93-2.225,2.93-1.1,0-1.809-.849-1.809-2.193v-4.706H41.017v4.914Zm10.176,3.089h1.377V174.9c0-1.872,1.1-2.753,2.113-2.753a2.013,2.013,0,0,1,.752.128v-1.424a2.854,2.854,0,0,0-.624-0.064,2.381,2.381,0,0,0-2.241,1.632v-1.552H51.193v8Zm10.848-3.089c0,1.985,1.184,3.249,2.945,3.249a2.754,2.754,0,0,0,2.465-1.392v1.232h1.376v-8H67.451v3.969c0,1.841-.976,2.93-2.225,2.93-1.1,0-1.809-.849-1.809-2.193v-4.706H62.041v4.914Zm14.514,2.977v-1.232a3.044,3.044,0,0,1-.976.16,1.153,1.153,0,0,1-1.329-1.361v-4.194h2.3v-1.264h-2.3v-2.225H72.873v2.225h-1.7v1.264h1.7v4.37a2.253,2.253,0,0,0,2.449,2.449A3.832,3.832,0,0,0,76.554,178.759Zm4.223-11.012a0.967,0.967,0,0,0-.96-0.977,0.994,0.994,0,0,0-.992.977,0.984,0.984,0,0,0,.992.976A0.957,0.957,0,0,0,80.777,167.747Zm-1.665,11.124h1.377v-8H79.113v8Zm4.784,0h1.377v-12H83.9v12Zm6.448-11.124a0.967,0.967,0,0,0-.96-0.977,0.994,0.994,0,0,0-.992.977,0.984,0.984,0,0,0,.992.976A0.956,0.956,0,0,0,90.345,167.747ZM88.68,178.871h1.376v-8H88.68v8Zm9.122-.112v-1.232a3.044,3.044,0,0,1-.976.16,1.153,1.153,0,0,1-1.329-1.361v-4.194h2.3v-1.264H95.5v-2.225H94.12v2.225h-1.7v1.264h1.7v4.37a2.253,2.253,0,0,0,2.449,2.449A3.831,3.831,0,0,0,97.8,178.759Zm4.687,3.457,5.25-11.348H106.2l-2.737,6.066-2.753-6.066h-1.52l3.505,7.587-1.745,3.761h1.537Zm11.775-3.345h1.377V174.9c0-1.872,1.024-2.929,2.321-2.929a1.921,1.921,0,0,1,1.888,2.177v4.722h1.361v-4.93a2.949,2.949,0,0,0-3.025-3.233,2.829,2.829,0,0,0-2.545,1.392v-5.234h-1.377v12Zm9.6-4a4.219,4.219,0,0,0,7.747,2.257l-1.089-.752a2.833,2.833,0,0,1-5.266-1.232h6.563a3.922,3.922,0,0,0,.016-0.417,3.729,3.729,0,0,0-3.81-4.017A4.055,4.055,0,0,0,123.864,174.869Zm4.113-2.945a2.4,2.4,0,0,1,2.449,2.1h-5.074A2.617,2.617,0,0,1,127.977,171.924Zm6.607,6.947h1.376V174.9c0-1.872,1.1-2.753,2.113-2.753a2.011,2.011,0,0,1,.752.128v-1.424a2.851,2.851,0,0,0-.624-0.064,2.381,2.381,0,0,0-2.241,1.632v-1.552h-1.376v8Zm8.32-11.124a0.966,0.966,0,0,0-.96-0.977,0.994,0.994,0,0,0-.992.977,0.983,0.983,0,0,0,.992.976A0.956,0.956,0,0,0,142.9,167.747Zm-1.664,11.124h1.376v-8H141.24v8Zm9.121-.112v-1.232a3.041,3.041,0,0,1-.976.16,1.153,1.153,0,0,1-1.329-1.361v-4.194h2.3v-1.264h-2.3v-2.225H146.68v2.225h-1.7v1.264h1.7v4.37a2.252,2.252,0,0,0,2.449,2.449A3.828,3.828,0,0,0,150.361,178.759Zm1.822-3.89a4.005,4.005,0,0,0,3.922,4.162,3.509,3.509,0,0,0,2.817-1.392v1.232H160.3v-8h-1.377V172.1a3.509,3.509,0,0,0-2.817-1.392A4.005,4.005,0,0,0,152.183,174.869Zm6.851,0a2.734,2.734,0,1,1-2.721-2.9A2.733,2.733,0,0,1,159.034,174.869Zm12.113,3.538v-7.539H169.77V172.1a3.406,3.406,0,0,0-2.785-1.392,4.077,4.077,0,0,0,0,8.147,3.418,3.418,0,0,0,2.785-1.408v0.912a2.558,2.558,0,0,1-2.673,2.769,3.421,3.421,0,0,1-2.8-1.345l-0.961.961a4.754,4.754,0,0,0,3.778,1.633A3.705,3.705,0,0,0,171.147,178.407Zm-6.675-3.634a2.707,2.707,0,1,1,2.7,2.8A2.667,2.667,0,0,1,164.472,174.773Zm9.439,0.1a4.219,4.219,0,0,0,7.747,2.257l-1.088-.752a2.833,2.833,0,0,1-5.266-1.232h6.562a3.922,3.922,0,0,0,.016-0.417,3.728,3.728,0,0,0-3.809-4.017A4.056,4.056,0,0,0,173.911,174.869Zm4.114-2.945a2.4,2.4,0,0,1,2.449,2.1H175.4A2.616,2.616,0,0,1,178.025,171.924Zm17.809,6.947h1.217l2.721-8h-1.457l-1.937,5.842-2-5.842h-1.056l-2,5.842-1.937-5.842h-1.44l2.721,8h1.216l1.985-5.762Zm7.886-11.124a0.967,0.967,0,0,0-.961-0.977,0.994,0.994,0,0,0-.992.977,0.983,0.983,0,0,0,.992.976A0.957,0.957,0,0,0,203.72,167.747Zm-1.665,11.124h1.377v-8h-1.377v8Zm4.784,0h1.376v-12h-1.376v12Zm4.784,0H213v-12h-1.376v12Zm8.863-4a4.005,4.005,0,0,0,3.922,4.162,3.51,3.51,0,0,0,2.817-1.392v1.232H228.6v-8h-1.377V172.1a3.51,3.51,0,0,0-2.817-1.392A4.005,4.005,0,0,0,220.486,174.869Zm6.851,0a2.734,2.734,0,1,1-2.721-2.9A2.733,2.733,0,0,1,227.337,174.869Zm4.653,4h1.377v-12H231.99v12Zm9.97-2.225c0-1.2-.752-1.969-2.113-2.417l-0.864-.288c-0.944-.3-1.232-0.608-1.232-1.12a1.132,1.132,0,0,1,1.344-.929,2.161,2.161,0,0,1,1.7.833l0.9-.865a3.1,3.1,0,0,0-2.561-1.152c-1.584,0-2.705.88-2.705,2.177a2.416,2.416,0,0,0,1.985,2.321l0.784,0.256c1.041,0.336,1.425.72,1.425,1.28a1.218,1.218,0,0,1-1.409,1.089,2.15,2.15,0,0,1-2.049-1.265l-1.12.608a3.178,3.178,0,0,0,3.137,1.857C240.792,179.031,241.96,178.215,241.96,176.646Zm10.5-1.777a4.186,4.186,0,1,0-4.177,4.162A4.107,4.107,0,0,0,252.457,174.869Zm-6.963,0a2.779,2.779,0,1,1,2.786,2.882A2.752,2.752,0,0,1,245.494,174.869Zm14.432,4H261.3V174.9c0-1.872,1.025-2.929,2.321-2.929a1.921,1.921,0,0,1,1.889,2.177v4.722h1.361v-4.93a2.95,2.95,0,0,0-3.026-3.233A2.831,2.831,0,0,0,261.3,172.1v-5.234h-1.376v12Zm9.6-4a4.219,4.219,0,0,0,7.747,2.257l-1.088-.752a2.833,2.833,0,0,1-5.266-1.232h6.562a3.922,3.922,0,0,0,.016-0.417,3.728,3.728,0,0,0-3.809-4.017A4.056,4.056,0,0,0,269.525,174.869Zm4.114-2.945a2.4,2.4,0,0,1,2.449,2.1h-5.074A2.616,2.616,0,0,1,273.639,171.924Zm6.606,6.947h1.377v-12h-1.377v12Zm4.784,3.345h1.377v-4.577a3.51,3.51,0,0,0,2.817,1.392,4.169,4.169,0,0,0,0-8.323,3.51,3.51,0,0,0-2.817,1.392v-1.232h-1.377v11.348Zm6.707-7.347a2.726,2.726,0,1,1-2.721-2.9A2.733,2.733,0,0,1,291.736,174.869Zm10.654,7.347,5.25-11.348H306.1l-2.738,6.066-2.753-6.066h-1.52l3.5,7.587-1.745,3.761h1.537Zm14.978-7.347a4.186,4.186,0,1,0-4.177,4.162A4.107,4.107,0,0,0,317.368,174.869Zm-6.962,0a2.779,2.779,0,1,1,2.785,2.882A2.751,2.751,0,0,1,310.406,174.869Zm9.615,0.913c0,1.985,1.185,3.249,2.945,3.249a2.753,2.753,0,0,0,2.465-1.392v1.232h1.377v-8h-1.377v3.969c0,1.841-.976,2.93-2.225,2.93-1.1,0-1.808-.849-1.808-2.193v-4.706h-1.377v4.914Zm14.88,3.089h1.376V174.9c0-1.872,1.105-2.753,2.113-2.753a2.02,2.02,0,0,1,.753.128v-1.424a2.866,2.866,0,0,0-.625-0.064,2.382,2.382,0,0,0-2.241,1.632v-1.552H334.9v8Zm8.32-11.124a0.966,0.966,0,0,0-.96-0.977,0.994,0.994,0,0,0-.992.977,0.983,0.983,0,0,0,.992.976A0.956,0.956,0,0,0,343.221,167.747Zm-1.664,11.124h1.376v-8h-1.376v8Zm9.97-2.225c0-1.2-.753-1.969-2.113-2.417l-0.864-.288c-0.945-.3-1.233-0.608-1.233-1.12a1.133,1.133,0,0,1,1.345-.929,2.159,2.159,0,0,1,1.7.833l0.9-.865a3.106,3.106,0,0,0-2.561-1.152c-1.585,0-2.705.88-2.705,2.177a2.416,2.416,0,0,0,1.984,2.321l0.785,0.256c1.04,0.336,1.424.72,1.424,1.28a1.218,1.218,0,0,1-1.408,1.089,2.148,2.148,0,0,1-2.049-1.265l-1.121.608a3.18,3.18,0,0,0,3.138,1.857C350.358,179.031,351.527,178.215,351.527,176.646Zm2.141-1.777a4.219,4.219,0,0,0,7.747,2.257l-1.088-.752a2.833,2.833,0,0,1-5.266-1.232h6.562a3.692,3.692,0,0,0,.017-0.417,3.73,3.73,0,0,0-3.81-4.017A4.056,4.056,0,0,0,353.668,174.869Zm4.114-2.945a2.4,2.4,0,0,1,2.449,2.1h-5.074A2.616,2.616,0,0,1,357.782,171.924Zm15.376,6.835v-1.232a3.041,3.041,0,0,1-.976.16,1.153,1.153,0,0,1-1.329-1.361v-4.194h2.305v-1.264h-2.305v-2.225h-1.376v2.225h-1.7v1.264h1.7v4.37a2.252,2.252,0,0,0,2.449,2.449A3.828,3.828,0,0,0,373.158,178.759Zm10.178-3.89a4.186,4.186,0,1,0-4.178,4.162A4.107,4.107,0,0,0,383.336,174.869Zm-6.963,0a2.779,2.779,0,1,1,2.785,2.882A2.751,2.751,0,0,1,376.373,174.869Zm13.807,0a4,4,0,0,0,3.921,4.162,3.509,3.509,0,0,0,2.817-1.392v1.232H398.3v-8h-1.377V172.1a3.509,3.509,0,0,0-2.817-1.392A4,4,0,0,0,390.18,174.869Zm6.851,0a2.734,2.734,0,1,1-2.722-2.9A2.734,2.734,0,0,1,397.031,174.869Zm4.653,4h1.376V174.9c0-1.872,1.025-2.929,2.321-2.929a1.921,1.921,0,0,1,1.889,2.177v4.722h1.361v-4.93a2.95,2.95,0,0,0-3.026-3.233,2.832,2.832,0,0,0-2.545,1.392v-1.232h-1.376v8Zm12.193,3.345,5.25-11.348H417.59l-2.737,6.066-2.753-6.066h-1.521l3.506,7.587-1.745,3.761h1.537Zm19.506-7.347a4.186,4.186,0,1,0-4.178,4.162A4.107,4.107,0,0,0,433.383,174.869Zm-6.963,0a2.779,2.779,0,1,1,2.785,2.882A2.751,2.751,0,0,1,426.42,174.869Zm16.994,2.017-1.2-.672a2.714,2.714,0,0,1-2.5,1.537,2.883,2.883,0,0,1,0-5.763,2.714,2.714,0,0,1,2.5,1.537l1.2-.672A4.162,4.162,0,1,0,443.414,176.886Zm9.84,0-1.2-.672a2.714,2.714,0,0,1-2.5,1.537,2.883,2.883,0,0,1,0-5.763,2.714,2.714,0,0,1,2.5,1.537l1.2-.672a4.143,4.143,0,0,0-3.7-2.145,4.162,4.162,0,1,0,0,8.323A4.143,4.143,0,0,0,453.254,176.886Zm1.949-2.017a4.005,4.005,0,0,0,3.921,4.162,3.512,3.512,0,0,0,2.818-1.392v1.232h1.376v-8h-1.376V172.1a3.512,3.512,0,0,0-2.818-1.392A4,4,0,0,0,455.2,174.869Zm6.851,0a2.734,2.734,0,1,1-2.721-2.9A2.733,2.733,0,0,1,462.054,174.869Zm9.839,1.777c0-1.2-.752-1.969-2.113-2.417l-0.864-.288c-0.945-.3-1.233-0.608-1.233-1.12a1.133,1.133,0,0,1,1.345-.929,2.163,2.163,0,0,1,1.7.833l0.9-.865a3.1,3.1,0,0,0-2.561-1.152c-1.585,0-2.7.88-2.7,2.177a2.416,2.416,0,0,0,1.985,2.321l0.784,0.256c1.04,0.336,1.424.72,1.424,1.28a1.218,1.218,0,0,1-1.408,1.089,2.149,2.149,0,0,1-2.049-1.265l-1.12.608a3.177,3.177,0,0,0,3.137,1.857C470.725,179.031,471.893,178.215,471.893,176.646Zm4.43-8.9a0.966,0.966,0,0,0-.96-0.977,0.994,0.994,0,0,0-.992.977,0.983,0.983,0,0,0,.992.976A0.956,0.956,0,0,0,476.323,167.747Zm-1.664,11.124h1.376v-8h-1.376v8Zm12.515-4A4.186,4.186,0,1,0,483,179.031,4.107,4.107,0,0,0,487.174,174.869Zm-6.963,0A2.779,2.779,0,1,1,483,177.751,2.751,2.751,0,0,1,480.211,174.869Zm9.727,4h1.377V174.9c0-1.872,1.024-2.929,2.321-2.929a1.922,1.922,0,0,1,1.889,2.177v4.722h1.36v-4.93a2.949,2.949,0,0,0-3.025-3.233,2.831,2.831,0,0,0-2.545,1.392v-1.232h-1.377v8Zm12.129-1.072a1.185,1.185,0,1,0-1.184,1.2A1.206,1.206,0,0,0,502.067,177.8Z"/>
  <g id="CTA_copy_5" data-name="CTA copy 5">
    <rect id="Rectangle_4_copy_4" data-name="Rectangle 4 copy 4" x="29" y="235.938" width="102" height="3.062"/>
    <path id="Shop_now" data-name="Shop now" class="cls-2" d="M33.347,230.177c2.255,0,3.8-1.378,3.818-3.352a3.346,3.346,0,0,0-2.54-3.245l-0.752-.276c-1.127-.413-1.653-0.673-1.653-1.255a1.1,1.1,0,0,1,1.293-.827,2.356,2.356,0,0,1,1.849.9l1.563-1.684a4.414,4.414,0,0,0-3.442-1.5c-2.135,0-3.683,1.24-3.683,3.352,0,1.485.962,2.541,2.691,3.138l0.752,0.26c1.067,0.367,1.488.75,1.488,1.3a1.086,1.086,0,0,1-1.293.9,2.779,2.779,0,0,1-2.21-1.24l-1.834,1.577A4.653,4.653,0,0,0,33.347,230.177Zm8.1-.184h2.39v-4.3h4.3v4.3h2.39V219.125h-2.39v4.256h-4.3v-4.256h-2.39v10.868Zm18.883,0.184a5.618,5.618,0,1,0-5.517-5.618A5.582,5.582,0,0,0,60.335,230.177Zm0-2.357a3.265,3.265,0,1,1,3.1-3.261A3.2,3.2,0,0,1,60.335,227.82Zm17.185-4.975a3.667,3.667,0,0,0-3.758-3.72H70.139v10.868h2.39v-3.444h1.233A3.654,3.654,0,0,0,77.52,222.845Zm-2.315,0a1.416,1.416,0,0,1-1.473,1.423h-1.2v-2.847h1.2A1.408,1.408,0,0,1,75.2,222.845Zm21.649,7.148V219.125H94.449v6.705l-5.186-6.705H87.2v10.868h2.39v-6.719l5.2,6.719h2.059Zm9.8,0.184a5.618,5.618,0,1,0-5.516-5.618A5.581,5.581,0,0,0,106.658,230.177Zm0-2.357a3.265,3.265,0,1,1,3.1-3.261A3.2,3.2,0,0,1,106.658,227.82Zm18.072,2.173H127l2.48-10.868h-2.556l-1.458,6.888-3.006-7.071-2.991,7.071-1.458-6.888h-2.556l2.465,10.868h2.27l2.27-5.327Z"/>
  </g>
</svg>
