<svg id="Copy_copy_13" data-name="Copy copy 13" xmlns="http://www.w3.org/2000/svg" width="720" height="640"><defs><style>.cls-2{fill-rule:evenodd}</style></defs><path id="Rectangle_106_copy_14" data-name="Rectangle 106 copy 14" fill="#fff" fill-opacity="0" d="M0 0h720v640H0z"/><path id="WATER-RESISTANT_CLASSIC_TRENCH_COAT_Cotton_twill_b._1980_Don_" data-name="WATER-RESISTANT CLASSIC TRENCH COAT Cotton twill, b. 1980 Don’" class="cls-2" d="M45.088 50.371h4.228l4.62-19.88h-4.76l-2.716 12.6-5.6-12.936-5.571 12.936-2.716-12.6h-4.76l4.587 19.88h4.228l4.228-9.744zm9.464 0H59.2l1.764-4.2H69.2l1.764 4.2h4.648L67.1 30.491h-4.035zm8.036-8.064l2.492-5.992 2.492 5.992h-4.983zm18.088 8.064h4.48V34.747h5.124v-4.256H75.609v4.256h5.068v15.624zm13.72 0H107v-4.256h-8.152v-3.556h6.468V38.3h-6.468v-3.553H107v-4.256H94.4v19.88zm17.388 0h4.452v-8.2h.728l6.608 8.2h5.348l-7.028-8.764c2.52-.9 3.892-2.548 3.892-5.124a5.869 5.869 0 0 0-6.16-5.992h-7.84v19.88zm4.452-11.984v-3.808h2.856a1.981 1.981 0 0 1 2.268 1.9 2.012 2.012 0 0 1-2.268 1.9h-2.856zm14.112 4.06h8.232v-4.032h-8.232v4.032zm13.352 7.924h4.452v-8.2h.728l6.608 8.2h5.348l-7.028-8.764c2.52-.9 3.892-2.548 3.892-5.124a5.869 5.869 0 0 0-6.16-5.992h-7.84v19.88zm4.452-11.984v-3.808h2.856a1.981 1.981 0 0 1 2.268 1.9 2.012 2.012 0 0 1-2.268 1.9h-2.856zm15.483 11.984h12.6v-4.256h-8.148v-3.556h6.468V38.3h-6.468v-3.553h8.148v-4.256h-12.6v19.88zm23.324.336c4.2 0 7.084-2.52 7.112-6.132.028-3-1.848-4.9-4.732-5.936l-1.4-.5c-2.1-.756-3.08-1.232-3.08-2.3 0-1.036 1.2-1.512 2.408-1.512a4.422 4.422 0 0 1 3.444 1.652l2.912-3.08a8.3 8.3 0 0 0-6.412-2.744c-3.976 0-6.86 2.268-6.86 6.132 0 2.716 1.792 4.648 5.012 5.74l1.4.476c1.988.672 2.772 1.372 2.772 2.38 0 .952-.924 1.652-2.408 1.652a5.2 5.2 0 0 1-4.116-2.268l-3.411 2.884a8.717 8.717 0 0 0 7.363 3.556zm11.592-.336h4.452v-19.88h-4.452v19.88zm15.988.336c4.2 0 7.084-2.52 7.112-6.132.028-3-1.848-4.9-4.732-5.936l-1.4-.5c-2.1-.756-3.08-1.232-3.08-2.3 0-1.036 1.2-1.512 2.408-1.512a4.422 4.422 0 0 1 3.444 1.652l2.912-3.08a8.3 8.3 0 0 0-6.412-2.744c-3.976 0-6.86 2.268-6.86 6.132 0 2.716 1.792 4.648 5.012 5.74l1.4.476c1.988.672 2.772 1.372 2.772 2.38 0 .952-.924 1.652-2.408 1.652a5.2 5.2 0 0 1-4.116-2.268l-3.416 2.884a8.717 8.717 0 0 0 7.368 3.556zm14.9-.336h4.48V34.747h5.124v-4.256h-14.672v4.256h5.068v15.624zm9.576 0h4.648l1.764-4.2h8.232l1.764 4.2h4.648l-8.512-19.88h-4.032zm8.036-8.064l2.492-5.992 2.492 5.992h-4.984zm34.468 8.064v-19.88h-4.48v12.264l-9.66-12.264h-3.836v19.88H268V38.079l9.688 12.292h3.836zm9.184 0h4.48V34.747h5.123v-4.256h-14.671v4.256h5.065v15.624zm29.623.336a10.276 10.276 0 0 0 9.3-5.432l-3.92-2.128a5.964 5.964 0 1 1 0-5.432l3.92-2.128a10.364 10.364 0 1 0-9.3 15.12zm13.3-.336h12.684v-4.256h-8.232V30.491h-4.452v19.88zm14.728 0H353l1.764-4.2H363l1.764 4.2h4.648l-8.512-19.88h-4.032zm8.036-8.064l2.492-5.992 2.492 5.992h-4.984zm21.9 8.4c4.2 0 7.084-2.52 7.112-6.132.028-3-1.848-4.9-4.732-5.936l-1.4-.5c-2.1-.756-3.08-1.232-3.08-2.3 0-1.036 1.2-1.512 2.408-1.512a4.422 4.422 0 0 1 3.444 1.652l2.912-3.08a8.3 8.3 0 0 0-6.412-2.744c-3.976 0-6.86 2.268-6.86 6.132 0 2.716 1.792 4.648 5.012 5.74l1.4.476c1.988.672 2.772 1.372 2.772 2.38 0 .952-.924 1.652-2.408 1.652a5.2 5.2 0 0 1-4.116-2.268l-3.416 2.884a8.717 8.717 0 0 0 7.36 3.556zm17.527 0c4.2 0 7.084-2.52 7.112-6.132.028-3-1.848-4.9-4.731-5.936l-1.4-.5c-2.1-.756-3.08-1.232-3.08-2.3 0-1.036 1.2-1.512 2.408-1.512a4.423 4.423 0 0 1 3.444 1.652l2.912-3.08a8.3 8.3 0 0 0-6.412-2.744c-3.976 0-6.86 2.268-6.86 6.132 0 2.716 1.792 4.648 5.012 5.74l1.4.476c1.987.672 2.771 1.372 2.771 2.38 0 .952-.923 1.652-2.407 1.652a5.2 5.2 0 0 1-4.116-2.268l-3.416 2.884a8.717 8.717 0 0 0 7.359 3.556zm11.592-.336h4.452v-19.88h-4.452v19.88zm19.208.336a10.276 10.276 0 0 0 9.3-5.432l-3.92-2.128a5.964 5.964 0 1 1 0-5.432l3.92-2.128a10.364 10.364 0 1 0-9.304 15.12zm23.632-.336h4.48V34.747h5.124v-4.256h-14.676v4.256h5.068v15.624zm13.72 0h4.452v-8.2h.728l6.608 8.2h5.343l-7.027-8.764c2.52-.9 3.891-2.548 3.891-5.124a5.869 5.869 0 0 0-6.159-5.992h-7.84v19.88zm4.452-11.984v-3.808h2.856a1.981 1.981 0 0 1 2.268 1.9 2.012 2.012 0 0 1-2.268 1.9h-2.856zM483.9 50.371h12.6v-4.256h-8.148v-3.556h6.468V38.3h-6.468v-3.553h8.148v-4.256h-12.6v19.88zm35.364 0v-19.88h-4.48v12.264l-9.66-12.264h-3.836v19.88h4.452V38.079l9.688 12.292h3.836zm14.756.336a10.276 10.276 0 0 0 9.3-5.432l-3.92-2.128a5.964 5.964 0 1 1 0-5.432l3.92-2.128a10.364 10.364 0 1 0-9.3 15.12zm13.3-.336h4.452V42.5h8.008v7.868h4.452V30.491h-4.452v7.784h-8.008v-7.784h-4.452v19.88zm39.227.336a10.276 10.276 0 0 0 9.3-5.432l-3.92-2.128a5.964 5.964 0 1 1 0-5.432l3.92-2.128a10.364 10.364 0 1 0-9.3 15.12zm22.456 0a10.276 10.276 0 1 0-10.276-10.276A10.3 10.3 0 0 0 609 50.707zm0-4.312a5.967 5.967 0 1 1 5.768-5.964A5.9 5.9 0 0 1 609 46.4zm11.732 3.976h4.648l1.764-4.2h8.232l1.764 4.2h4.648l-8.512-19.88h-4.032zm8.036-8.064l2.492-5.992 2.492 5.992h-4.984zm18.088 8.064h4.48V34.747h5.124v-4.256h-14.672v4.256h5.068v15.624zM28.147 71.979a6.644 6.644 0 0 0 12.261 3.511L39 74.644a5.024 5.024 0 1 1 0-5.33l1.4-.846a6.644 6.644 0 0 0-12.253 3.511zm23.834 1.891a4.709 4.709 0 1 0-4.7 4.681 4.62 4.62 0 0 0 4.7-4.681zm-7.832 0a3.126 3.126 0 1 1 3.133 3.241 3.094 3.094 0 0 1-3.133-3.241zm21.963 4.375v-1.386a3.421 3.421 0 0 1-1.1.18 1.3 1.3 0 0 1-1.495-1.531v-4.717h2.593v-1.423h-2.591v-2.5h-1.548v2.5h-1.549v1.422h1.548v4.915a2.534 2.534 0 0 0 2.755 2.755 4.31 4.31 0 0 0 1.387-.215zm-6.3 0v-1.386a3.421 3.421 0 0 1-1.1.18 1.3 1.3 0 0 1-1.495-1.531v-4.717h2.2v-1.423h-2.2v-2.5h-1.548v2.5H53.76v1.422h1.909v4.915a2.534 2.534 0 0 0 2.755 2.755 4.309 4.309 0 0 0 1.386-.215zm17.747-4.375a4.708 4.708 0 1 0-4.7 4.681 4.62 4.62 0 0 0 4.7-4.681zm-7.832 0a3.126 3.126 0 1 1 3.133 3.241 3.094 3.094 0 0 1-3.133-3.241zm10.944 4.5h1.548v-4.464c0-2.107 1.152-3.3 2.611-3.3a2.161 2.161 0 0 1 2.125 2.449v5.312h1.53v-5.542a3.318 3.318 0 0 0-3.4-3.637 3.183 3.183 0 0 0-2.863 1.566v-1.386h-1.551v9zm21.367-.126v-1.385a3.425 3.425 0 0 1-1.1.18 1.3 1.3 0 0 1-1.494-1.531v-4.717h2.593v-1.423h-2.592v-2.5H97.9v2.5h-1.912v1.422H97.9v4.915a2.534 2.534 0 0 0 2.755 2.755 4.318 4.318 0 0 0 1.383-.215zm10.512.126h1.369l3.061-9h-1.639l-2.178 6.572-2.251-6.572h-1.188l-2.251 6.572-2.179-6.572h-1.62l3.061 9h1.365l2.233-6.482zm8.872-12.514a1.087 1.087 0 0 0-1.08-1.1 1.118 1.118 0 0 0-1.116 1.1 1.106 1.106 0 0 0 1.116 1.1 1.076 1.076 0 0 0 1.08-1.099zm-1.872 12.515h1.55v-9h-1.55v9zm5.382 0h1.548v-13.5h-1.548v13.5zm5.382 0h1.548v-13.5h-1.548v13.5zm7.308-.4a1.54 1.54 0 0 0 .252-.81 1.333 1.333 0 1 0-2.665 0 1.339 1.339 0 0 0 .739 1.206l-1.207 2.575h1.026zm10.422-.99a3.947 3.947 0 0 0 3.169 1.566 4.69 4.69 0 0 0 0-9.363 3.947 3.947 0 0 0-3.169 1.566v-5.883H146.5v13.5h1.549v-1.382zm5.995-3.115a3.067 3.067 0 1 1-3.061-3.259 3.074 3.074 0 0 1 3.061 3.263zm6.659 3.295a1.333 1.333 0 1 0-1.333 1.35 1.357 1.357 0 0 0 1.335-1.346zm9.7 1.206h1.549v-12.78h-2.755l-1.261 1.53h2.469v11.254zm5.472 0h1.98l4.682-5.528a4.911 4.911 0 0 0 1.44-3.259 4.331 4.331 0 0 0-8.66.054 4.13 4.13 0 0 0 4 4.105 2.294 2.294 0 0 0 .5-.036zm1.026-8.751a2.746 2.746 0 1 1 2.737 2.755 2.717 2.717 0 0 1-2.733-2.75zm18.02 4.915a3.572 3.572 0 0 0-2-3.349 2.994 2.994 0 0 0 1.3-2.521 3.318 3.318 0 0 0-3.583-3.3 3.364 3.364 0 0 0-3.6 3.3 2.981 2.981 0 0 0 1.332 2.521 3.572 3.572 0 0 0-2.034 3.349 4.3 4.3 0 0 0 8.586.005zm-6.355-5.831a1.9 1.9 0 0 1 2.071-1.873 1.867 1.867 0 0 1 2.052 1.873 1.91 1.91 0 0 1-2.052 1.891 1.948 1.948 0 0 1-2.071-1.891zm-.661 5.836a2.538 2.538 0 0 1 2.737-2.557 2.553 2.553 0 1 1 0 5.1 2.544 2.544 0 0 1-2.737-2.543zm18.9-.792v-3.565a4.536 4.536 0 1 0-9.056 0v3.565a4.536 4.536 0 1 0 9.056 0zm-7.508 0v-3.565c0-2.071 1.242-3.295 2.971-3.295 1.747 0 2.989 1.224 2.989 3.295v3.565c0 2.071-1.242 3.3-2.989 3.3-1.732-.005-2.974-1.23-2.974-3.3zM28.841 118.371h3.265a5.693 5.693 0 1 0 0-11.364h-3.265v11.364zm1.489-1.392V108.4h1.777a4.3 4.3 0 1 1 0 8.58H30.33zm18.37-2.61a4.186 4.186 0 1 0-4.178 4.162 4.107 4.107 0 0 0 4.178-4.162zm-6.963 0a2.779 2.779 0 1 1 2.785 2.882 2.751 2.751 0 0 1-2.785-2.882zm9.728 4h1.377V114.4c0-1.872 1.024-2.929 2.321-2.929a1.921 1.921 0 0 1 1.889 2.177v4.722h1.36v-4.93a2.949 2.949 0 0 0-3.025-3.233 2.83 2.83 0 0 0-2.545 1.392v-1.232h-1.377v8zm12.049-9.636a1.413 1.413 0 0 0 .224-.72 1.193 1.193 0 1 0-2.385 0 1.24 1.24 0 0 0 .656 1.072l-1.072 2.289h.928zm7.153 9.524v-1.232a3.044 3.044 0 0 1-.976.16 1.153 1.153 0 0 1-1.328-1.361v-4.194h2.3v-1.264h-2.3v-2.225h-1.378v2.225h-1.7v1.264h1.7V116a2.253 2.253 0 0 0 2.449 2.449 3.831 3.831 0 0 0 1.232-.19zm7.262.112h1.377v-12h-1.378v12zm4.16-4a4.219 4.219 0 0 0 7.747 2.257l-1.088-.752a2.833 2.833 0 0 1-5.266-1.232h6.563a3.9 3.9 0 0 0 .016-.417 3.729 3.729 0 0 0-3.81-4.017 4.056 4.056 0 0 0-4.163 4.161zm4.114-2.945a2.4 2.4 0 0 1 2.449 2.1h-5.075a2.617 2.617 0 0 1 2.623-2.1zm10.832 6.835v-1.232a3.043 3.043 0 0 1-.976.16 1.153 1.153 0 0 1-1.328-1.361v-4.194h2.3v-1.264h-2.3v-2.225h-1.378v2.225h-1.7v1.264h1.7V116a2.253 2.253 0 0 0 2.449 2.449 3.831 3.831 0 0 0 1.232-.19zm6.638-3.89a4.005 4.005 0 0 0 3.921 4.162 3.512 3.512 0 0 0 2.818-1.392v1.232h1.376v-8h-1.376v1.229a3.512 3.512 0 0 0-2.818-1.392 4 4 0 0 0-3.922 4.161zm6.851 0a2.734 2.734 0 1 1-2.721-2.9 2.733 2.733 0 0 1 2.72 2.9zm4.653 4h1.377V114.4c0-1.872 1.024-2.929 2.32-2.929a1.921 1.921 0 0 1 1.889 2.177v4.722h1.361v-4.93a2.949 2.949 0 0 0-3.025-3.233 2.829 2.829 0 0 0-2.545 1.392v-1.232h-1.377v8zm12.193 3.345l5.25-11.348h-1.537l-2.737 6.066-2.753-6.066h-1.521l3.506 7.587-1.745 3.761h1.537zm11.761-3.457v-1.232a3.052 3.052 0 0 1-.977.16 1.153 1.153 0 0 1-1.328-1.361v-4.194h2.305v-1.264h-2.305v-2.225h-1.377v2.225h-1.7v1.264h1.7V116a2.253 2.253 0 0 0 2.449 2.449 3.84 3.84 0 0 0 1.232-.19zm2.558.112h1.376V114.4c0-1.872 1.025-2.929 2.321-2.929a1.921 1.921 0 0 1 1.889 2.177v4.722h1.361v-4.93a2.95 2.95 0 0 0-3.026-3.233 2.832 2.832 0 0 0-2.545 1.392v-5.234h-1.376v12zm11.888-11.124a.966.966 0 0 0-.96-.977 1 1 0 0 0-.993.977.984.984 0 0 0 .993.976.956.956 0 0 0 .959-.974zm-1.664 11.124h1.376v-8h-1.376v8zm4.783 0h1.377V114.4c0-1.872 1.024-2.929 2.321-2.929a1.922 1.922 0 0 1 1.889 2.177v4.722h1.36v-4.93a2.949 2.949 0 0 0-3.025-3.233 2.831 2.831 0 0 0-2.545 1.392v-1.232H156.7v8zm17.683-.464v-7.539H173v1.234a3.406 3.406 0 0 0-2.785-1.392 4.077 4.077 0 0 0 0 8.147 3.418 3.418 0 0 0 2.785-1.408v.912a2.558 2.558 0 0 1-2.673 2.769 3.421 3.421 0 0 1-2.8-1.345l-.961.961a4.753 4.753 0 0 0 3.778 1.633 3.7 3.7 0 0 0 4.034-3.97zm-6.674-3.634a2.707 2.707 0 1 1 2.7 2.8 2.667 2.667 0 0 1-2.705-2.798zm14.767 4.1h1.377V114.4c0-1.872 1.1-2.753 2.112-2.753a2.016 2.016 0 0 1 .753.128v-1.424a2.854 2.854 0 0 0-.625-.064 2.38 2.38 0 0 0-2.24 1.632v-1.552h-1.377v8zm5.76-4a4 4 0 0 0 3.921 4.162 3.509 3.509 0 0 0 2.817-1.392v1.232h1.377v-8h-1.377v1.227a3.509 3.509 0 0 0-2.817-1.392 4 4 0 0 0-3.922 4.161zm6.85 0a2.734 2.734 0 1 1-2.721-2.9 2.733 2.733 0 0 1 2.72 2.898zm6.318-7.122a.966.966 0 0 0-.96-.977.994.994 0 0 0-.992.977.983.983 0 0 0 .992.976.956.956 0 0 0 .96-.978zm-1.664 11.124h1.376v-8h-1.376v8zm4.784 0h1.38V114.4c0-1.872 1.025-2.929 2.321-2.929a1.921 1.921 0 0 1 1.889 2.177v4.722h1.36v-4.93a2.949 2.949 0 0 0-3.025-3.233 2.831 2.831 0 0 0-2.545 1.393v-1.232h-1.376v8zm22.658-4a4.186 4.186 0 1 0-4.178 4.158 4.107 4.107 0 0 0 4.177-4.162zm-6.962 0a2.779 2.779 0 1 1 2.784 2.878 2.751 2.751 0 0 1-2.785-2.882zm9.727 4h1.377V114.4c0-1.872 1.024-2.929 2.321-2.929a1.921 1.921 0 0 1 1.888 2.177v4.722h1.361v-4.93a2.949 2.949 0 0 0-3.025-3.233 2.829 2.829 0 0 0-2.545 1.392v-1.232h-1.377v8zm16.689 3.345l5.25-11.348h-1.537l-2.737 6.066-2.753-6.066h-1.521l3.506 7.587-1.745 3.761h1.537zm14.978-7.347a4.186 4.186 0 1 0-4.178 4.162 4.107 4.107 0 0 0 4.177-4.164zm-6.963 0a2.779 2.779 0 1 1 2.785 2.882 2.751 2.751 0 0 1-2.786-2.884zm9.616.913c0 1.985 1.184 3.249 2.945 3.249a2.754 2.754 0 0 0 2.465-1.392v1.232h1.376v-8h-1.376v3.969c0 1.841-.976 2.93-2.225 2.93-1.1 0-1.809-.849-1.809-2.193v-4.706h-1.376v4.914zm10.176 3.089h1.376V114.4c0-1.872 1.1-2.753 2.113-2.753a2.011 2.011 0 0 1 .752.128v-1.424a2.851 2.851 0 0 0-.624-.064 2.381 2.381 0 0 0-2.241 1.632v-1.552h-1.376v8zm10.96 3.345h1.376v-4.577a3.51 3.51 0 0 0 2.817 1.392 4.169 4.169 0 0 0 0-8.323 3.51 3.51 0 0 0-2.817 1.392v-1.232H285.4v11.348zm6.706-7.347a2.726 2.726 0 1 1-2.721-2.9 2.733 2.733 0 0 1 2.716 2.898zm3.565 0a4.005 4.005 0 0 0 3.922 4.162 3.51 3.51 0 0 0 2.817-1.392v1.232h1.377v-8h-1.377v1.227a3.51 3.51 0 0 0-2.817-1.392 4.005 4.005 0 0 0-3.923 4.161zm6.851 0a2.734 2.734 0 1 1-2.721-2.9 2.733 2.733 0 0 1 2.72 2.898zm4.653 4h1.377V114.4c0-1.872 1.1-2.753 2.113-2.753a2.011 2.011 0 0 1 .752.128v-1.424a2.851 2.851 0 0 0-.624-.064 2.38 2.38 0 0 0-2.241 1.632v-1.552h-1.377v8zm5.76-4a4.005 4.005 0 0 0 3.922 4.162 3.51 3.51 0 0 0 2.817-1.392v1.232h1.376v-8h-1.376v1.227a3.51 3.51 0 0 0-2.817-1.392 4.005 4.005 0 0 0-3.923 4.161zm6.851 0a2.734 2.734 0 1 1-2.721-2.9 2.733 2.733 0 0 1 2.72 2.898zm4.029 0a4.005 4.005 0 0 0 3.922 4.162 3.512 3.512 0 0 0 2.817-1.392v1.232h1.376v-12h-1.376v5.227a3.512 3.512 0 0 0-2.817-1.392 4.005 4.005 0 0 0-3.923 4.161zm6.851 0a2.734 2.734 0 1 1-2.721-2.9 2.733 2.733 0 0 1 2.72 2.898zm4.029 0a4.219 4.219 0 0 0 7.747 2.257l-1.089-.752a2.833 2.833 0 0 1-5.266-1.232h6.563a3.922 3.922 0 0 0 .016-.417 3.729 3.729 0 0 0-3.81-4.017 4.055 4.055 0 0 0-4.162 4.159zm4.113-2.945a2.4 2.4 0 0 1 2.449 2.1h-5.074a2.617 2.617 0 0 1 2.624-2.102zm8.512 5.875a1.185 1.185 0 1 0-1.185 1.2 1.207 1.207 0 0 0 1.184-1.201zm9.616 1.072h1.456v-9.956h3.538v-1.408H353.4v1.408h3.538v9.956zm7.247 0h1.376V114.4c0-1.872 1.025-2.929 2.321-2.929a1.921 1.921 0 0 1 1.889 2.177v4.722h1.361v-4.93a2.95 2.95 0 0 0-3.026-3.233 2.832 2.832 0 0 0-2.545 1.392v-5.234h-1.376v12zm11.888-11.124a.966.966 0 0 0-.96-.977.994.994 0 0 0-.992.977.983.983 0 0 0 .992.976.956.956 0 0 0 .959-.978zm-1.664 11.124h1.376v-8h-1.376v8zm9.97-2.225c0-1.2-.753-1.969-2.113-2.417l-.865-.288c-.944-.3-1.232-.608-1.232-1.12a1.132 1.132 0 0 1 1.344-.929 2.16 2.16 0 0 1 1.7.833l.9-.865a3.106 3.106 0 0 0-2.562-1.152c-1.584 0-2.7.88-2.7 2.177a2.417 2.417 0 0 0 1.985 2.321l.785.256c1.04.336 1.424.72 1.424 1.28a1.218 1.218 0 0 1-1.408 1.089 2.148 2.148 0 0 1-2.049-1.265l-1.121.608a3.178 3.178 0 0 0 3.137 1.857c1.605-.002 2.774-.818 2.774-2.387zm9.614 2.225h1.153l3.7-8H397.3l-2.737 6.05-2.737-6.05h-1.537zm6.239-4a4.219 4.219 0 0 0 7.747 2.257l-1.088-.752a2.833 2.833 0 0 1-5.266-1.232h6.562a3.922 3.922 0 0 0 .016-.417 3.728 3.728 0 0 0-3.809-4.017 4.056 4.056 0 0 0-4.163 4.157zm4.114-2.945a2.4 2.4 0 0 1 2.449 2.1h-5.074a2.616 2.616 0 0 1 2.624-2.104zm6.606 6.947h1.377V114.4c0-1.872 1.1-2.753 2.113-2.753a2.011 2.011 0 0 1 .752.128v-1.424a2.851 2.851 0 0 0-.624-.064 2.38 2.38 0 0 0-2.241 1.632v-1.552h-1.377v8zm11.7-2.225c0-1.2-.753-1.969-2.113-2.417l-.865-.288c-.944-.3-1.232-.608-1.232-1.12a1.132 1.132 0 0 1 1.344-.929 2.16 2.16 0 0 1 1.7.833l.9-.865a3.106 3.106 0 0 0-2.562-1.152c-1.584 0-2.7.88-2.7 2.177a2.417 2.417 0 0 0 1.985 2.321l.784.256c1.041.336 1.425.72 1.425 1.28a1.218 1.218 0 0 1-1.408 1.089 2.148 2.148 0 0 1-2.049-1.265l-1.121.608a3.178 3.178 0 0 0 3.137 1.857c1.604-.004 2.773-.82 2.773-2.389zm4.43-8.9a.966.966 0 0 0-.96-.977.994.994 0 0 0-.993.977.984.984 0 0 0 .993.976.956.956 0 0 0 .958-.979zm-1.665 11.124h1.377v-8h-1.377v8zm12.515-4a4.186 4.186 0 1 0-4.177 4.162 4.107 4.107 0 0 0 4.175-4.167zm-6.962 0a2.779 2.779 0 1 1 2.785 2.882 2.751 2.751 0 0 1-2.787-2.887zm9.727 4h1.377V114.4c0-1.872 1.024-2.929 2.321-2.929a1.921 1.921 0 0 1 1.888 2.177v4.722h1.361v-4.93a2.949 2.949 0 0 0-3.025-3.233 2.829 2.829 0 0 0-2.545 1.392v-1.232h-1.377v8zm16.592-11.124a.966.966 0 0 0-.96-.977.994.994 0 0 0-.992.977.983.983 0 0 0 .992.976.956.956 0 0 0 .958-.979zm-1.664 11.124H457v-8h-1.38v8zm9.97-2.225c0-1.2-.753-1.969-2.113-2.417l-.865-.288c-.944-.3-1.232-.608-1.232-1.12a1.133 1.133 0 0 1 1.345-.929 2.159 2.159 0 0 1 1.7.833l.9-.865a3.106 3.106 0 0 0-2.561-1.152c-1.585 0-2.706.88-2.706 2.177a2.417 2.417 0 0 0 1.985 2.321l.785.256c1.04.336 1.424.72 1.424 1.28a1.218 1.218 0 0 1-1.408 1.089 2.148 2.148 0 0 1-2.049-1.265l-1.121.608a3.179 3.179 0 0 0 3.138 1.857c1.607-.003 2.776-.819 2.776-2.388zm14.736.24l-1.2-.672a2.714 2.714 0 0 1-2.5 1.537 2.883 2.883 0 0 1 0-5.763 2.714 2.714 0 0 1 2.5 1.537l1.2-.672a4.143 4.143 0 0 0-3.7-2.145 4.162 4.162 0 1 0 0 8.323 4.143 4.143 0 0 0 3.698-2.148zm2.573 1.985h1.377V114.4c0-1.872 1.1-2.753 2.112-2.753a2.013 2.013 0 0 1 .753.128v-1.424a2.851 2.851 0 0 0-.624-.064 2.38 2.38 0 0 0-2.241 1.632v-1.552H482.9v8zm5.76-4a4 4 0 0 0 3.921 4.162 3.509 3.509 0 0 0 2.817-1.392v1.232h1.377v-8H495.4v1.224a3.509 3.509 0 0 0-2.817-1.392 4 4 0 0 0-3.924 4.161zm6.851 0a2.734 2.734 0 1 1-2.722-2.9 2.734 2.734 0 0 1 2.72 2.895zm5.325 4h1.377v-6.739h2.113v-1.264h-2.113V108.9a1.152 1.152 0 0 1 1.328-1.36 3.228 3.228 0 0 1 .993.16v-1.217a3.646 3.646 0 0 0-1.249-.208 2.253 2.253 0 0 0-2.449 2.449v1.649h-1.7v1.264h1.7v6.739zm9.588-.112v-1.232a3.144 3.144 0 0 1-.992.16 1.153 1.153 0 0 1-1.329-1.361v-4.194h2.321v-1.264H508.1v-2.225h-1.377v2.225h-1.5v1.264h1.5V116a2.265 2.265 0 0 0 2.466 2.449 3.982 3.982 0 0 0 1.234-.19zm1.82-3.89a4.219 4.219 0 0 0 7.747 2.257l-1.089-.752a2.833 2.833 0 0 1-5.266-1.232h6.563a3.922 3.922 0 0 0 .016-.417 3.729 3.729 0 0 0-3.81-4.017 4.055 4.055 0 0 0-4.163 4.158zm4.113-2.945a2.4 2.4 0 0 1 2.449 2.1h-5.074a2.617 2.617 0 0 1 2.623-2.103zm5.983 2.945a4 4 0 0 0 3.921 4.162 3.509 3.509 0 0 0 2.817-1.392v1.232h1.377v-12h-1.377v5.226a3.509 3.509 0 0 0-2.817-1.392 4 4 0 0 0-3.923 4.161zm6.85 0a2.734 2.734 0 1 1-2.721-2.9 2.733 2.733 0 0 1 2.719 2.897zm15.856 4h1.217l2.721-8h-1.457l-1.936 5.842-2-5.842h-1.057l-2 5.842-1.937-5.842h-1.441l2.721 8h1.217l1.984-5.762zm7.886-11.124a.966.966 0 0 0-.96-.977.994.994 0 0 0-.993.977.984.984 0 0 0 .993.976.956.956 0 0 0 .958-.977zm-1.665 11.124h1.377v-8h-1.377v8zm9.122-.112v-1.232a3.041 3.041 0 0 1-.976.16 1.153 1.153 0 0 1-1.329-1.361v-4.194h2.305v-1.264h-2.305v-2.225h-1.376v2.225h-1.7v1.264h1.7V116a2.252 2.252 0 0 0 2.449 2.449 3.828 3.828 0 0 0 1.23-.19zm2.558.112h1.377V114.4c0-1.872 1.024-2.929 2.321-2.929a1.921 1.921 0 0 1 1.888 2.177v4.722h1.361v-4.93a2.949 2.949 0 0 0-3.025-3.233 2.829 2.829 0 0 0-2.545 1.392v-5.234h-1.377v12zm-527.526 20h1.216l2.721-8H37.9l-1.937 5.842-2-5.842h-1.056l-2 5.842-1.937-5.842h-1.441l2.721 8h1.217l1.985-5.762zm5.565-4a4 4 0 0 0 3.922 4.162 3.51 3.51 0 0 0 2.817-1.392v1.232H49.1v-8h-1.377v1.226a3.51 3.51 0 0 0-2.817-1.392 4 4 0 0 0-3.921 4.161zm6.851 0a2.734 2.734 0 1 1-2.721-2.9 2.733 2.733 0 0 1 2.718 2.897zm8.991 3.89v-1.232a3.044 3.044 0 0 1-.976.16 1.153 1.153 0 0 1-1.328-1.361v-4.194h2.3v-1.264h-2.3v-2.225h-1.38v2.225h-1.7v1.264h1.7V136a2.253 2.253 0 0 0 2.449 2.449 3.831 3.831 0 0 0 1.232-.19zm1.822-3.89a4.219 4.219 0 0 0 7.747 2.257l-1.089-.752a2.833 2.833 0 0 1-5.266-1.232H66.6a3.9 3.9 0 0 0 .016-.417 3.729 3.729 0 0 0-3.81-4.017 4.056 4.056 0 0 0-4.157 4.158zm4.114-2.945a2.4 2.4 0 0 1 2.449 2.1h-5.077a2.617 2.617 0 0 1 2.625-2.103zm6.607 6.947h1.376V134.4c0-1.872 1.1-2.753 2.113-2.753a2.013 2.013 0 0 1 .752.128v-1.424a2.854 2.854 0 0 0-.624-.064 2.381 2.381 0 0 0-2.241 1.632v-1.552h-1.379v8zm5.728-3.793h4.082V133.2H75.1v1.377zm7.232 3.793h1.377V134.4c0-1.872 1.1-2.753 2.113-2.753a2.013 2.013 0 0 1 .752.128v-1.424a2.854 2.854 0 0 0-.624-.064 2.381 2.381 0 0 0-2.241 1.632v-1.552h-1.38v8zm5.744-4a4.219 4.219 0 0 0 7.747 2.257l-1.088-.752a2.833 2.833 0 0 1-5.266-1.232h6.563a3.922 3.922 0 0 0 .016-.417 3.729 3.729 0 0 0-3.809-4.017 4.056 4.056 0 0 0-4.167 4.156zm4.114-2.945a2.4 2.4 0 0 1 2.449 2.1h-5.078a2.617 2.617 0 0 1 2.625-2.105zm11.793 4.722c0-1.2-.753-1.969-2.113-2.417l-.87-.293c-.944-.3-1.232-.608-1.232-1.12a1.132 1.132 0 0 1 1.344-.929 2.16 2.16 0 0 1 1.7.833l.9-.865a3.106 3.106 0 0 0-2.561-1.152c-1.585 0-2.706.88-2.706 2.177a2.416 2.416 0 0 0 1.985 2.321l.785.256c1.04.336 1.424.72 1.424 1.28a1.218 1.218 0 0 1-1.408 1.089 2.149 2.149 0 0 1-2.049-1.265l-1.12.608a3.178 3.178 0 0 0 3.138 1.857c1.61 0 2.779-.816 2.779-2.385zm4.43-8.9a.966.966 0 0 0-.96-.977.994.994 0 0 0-.993.977.984.984 0 0 0 .993.976.956.956 0 0 0 .956-.98zm-1.665 11.124h1.377v-8h-1.377v8zm9.97-2.225c0-1.2-.752-1.969-2.112-2.417l-.865-.288c-.944-.3-1.232-.608-1.232-1.12a1.132 1.132 0 0 1 1.344-.929 2.16 2.16 0 0 1 1.7.833l.9-.865a3.1 3.1 0 0 0-2.561-1.152c-1.584 0-2.7.88-2.7 2.177a2.416 2.416 0 0 0 1.985 2.321l.784.256c1.041.336 1.425.72 1.425 1.28a1.218 1.218 0 0 1-1.409 1.089 2.15 2.15 0 0 1-2.049-1.265l-1.12.608a3.178 3.178 0 0 0 3.137 1.857c1.601-.004 2.769-.82 2.769-2.389zm7.008 2.113v-1.232a3.041 3.041 0 0 1-.976.16 1.153 1.153 0 0 1-1.329-1.361v-4.194h2.3v-1.264h-2.3v-2.225h-1.381v2.225h-1.7v1.264h1.7V136a2.253 2.253 0 0 0 2.449 2.449 3.83 3.83 0 0 0 1.233-.19zm1.822-3.89a4.005 4.005 0 0 0 3.922 4.162 3.51 3.51 0 0 0 2.817-1.392v1.232h1.376v-8h-1.376v1.225a3.51 3.51 0 0 0-2.817-1.392 4.005 4.005 0 0 0-3.926 4.161zm6.851 0a2.734 2.734 0 1 1-2.721-2.9 2.733 2.733 0 0 1 2.722 2.896zm4.653 4h1.377V134.4c0-1.872 1.024-2.929 2.321-2.929a1.921 1.921 0 0 1 1.888 2.177v4.722H144v-4.93a2.949 2.949 0 0 0-3.025-3.233 2.829 2.829 0 0 0-2.545 1.392v-1.232h-1.377v8zm14.466-.112v-1.232a3.043 3.043 0 0 1-.977.16 1.153 1.153 0 0 1-1.328-1.361v-4.194h2.305v-1.264h-2.305v-2.225h-1.377v2.225h-1.7v1.264h1.7V136a2.253 2.253 0 0 0 2.449 2.449 3.83 3.83 0 0 0 1.229-.19zm11.328 0v-1.232a3.052 3.052 0 0 1-.977.16 1.153 1.153 0 0 1-1.328-1.361v-4.194h2.305v-1.264h-2.305v-2.225h-1.381v2.225h-1.7v1.264h1.7V136a2.253 2.253 0 0 0 2.449 2.449 3.84 3.84 0 0 0 1.233-.19zm9.345.112h1.209l2.721-8h-1.456l-1.937 5.842-2-5.842h-1.056l-2 5.842-1.937-5.842H164.3l2.721 8h1.217l1.985-5.762zm7.885-11.124a.966.966 0 0 0-.96-.977 1 1 0 0 0-.993.977.984.984 0 0 0 .993.976.956.956 0 0 0 .956-.978zm-1.664 11.124h1.376v-8h-1.376v8zm4.783 0h1.377v-12.007h-1.377v12.005zm4.784 0h1.377v-12.007h-1.377v12.005zm9.953 0h1.368v-6.739h2.321v-1.264H199.3v-1.47a1.152 1.152 0 0 1 1.329-1.36 3.222 3.222 0 0 1 .992.16v-1.217a3.636 3.636 0 0 0-1.248-.208 2.286 2.286 0 0 0-2.449 2.481v1.617h-1.7v1.264h1.7v6.739zm6 0h1.368V134.4c0-1.872 1.1-2.753 2.112-2.753a2.013 2.013 0 0 1 .753.128v-1.424a2.851 2.851 0 0 0-.624-.064 2.38 2.38 0 0 0-2.241 1.632v-1.552h-1.377v8zm14.1-4a4.186 4.186 0 1 0-4.177 4.162 4.107 4.107 0 0 0 4.171-4.166zm-6.963 0a2.779 2.779 0 1 1 2.786 2.882 2.752 2.752 0 0 1-2.792-2.886zm9.728 4h1.377V134.4c0-1.808.912-2.929 2.208-2.929 1.041 0 1.569.9 1.569 2.193v4.706h1.377v-3.97c0-1.808.9-2.929 2.193-2.929 1.04 0 1.584.9 1.584 2.193v4.706h1.377v-4.914c0-1.953-1.057-3.249-2.8-3.249a2.769 2.769 0 0 0-2.625 1.712 2.517 2.517 0 0 0-2.465-1.712 2.689 2.689 0 0 0-2.417 1.392v-1.232h-1.377v8zm23.729-.112v-1.232a3.041 3.041 0 0 1-.976.16 1.153 1.153 0 0 1-1.328-1.361v-4.194h2.3v-1.264h-2.3v-2.225h-1.377v2.225h-1.7v1.264h1.7V136a2.252 2.252 0 0 0 2.449 2.449 3.828 3.828 0 0 0 1.226-.19zm2.559.112h1.376V134.4c0-1.872 1.025-2.929 2.321-2.929a1.921 1.921 0 0 1 1.889 2.177v4.722h1.36v-4.93a2.949 2.949 0 0 0-3.031-3.232 2.831 2.831 0 0 0-2.545 1.392v-5.234h-1.376v12.005zm9.6-4a4.219 4.219 0 0 0 7.747 2.257l-1.088-.752a2.833 2.833 0 0 1-5.266-1.232h6.562a3.922 3.922 0 0 0 .016-.417 3.728 3.728 0 0 0-3.809-4.017 4.056 4.056 0 0 0-4.169 4.157zm4.114-2.945a2.4 2.4 0 0 1 2.449 2.1h-5.074a2.616 2.616 0 0 1 2.618-2.104zm17.809 6.947h1.217l2.721-8h-1.457l-1.937 5.842-2-5.842h-1.057l-2 5.842-1.936-5.842h-1.449l2.721 8h1.217l1.984-5.762zm13.92-4a4.186 4.186 0 1 0-4.177 4.162 4.107 4.107 0 0 0 4.17-4.168zm-6.963 0a2.779 2.779 0 1 1 2.786 2.882 2.752 2.752 0 0 1-2.793-2.888zm9.728 4h1.376V134.4c0-1.872 1.105-2.753 2.113-2.753a2.016 2.016 0 0 1 .753.128v-1.424a2.854 2.854 0 0 0-.625-.064 2.382 2.382 0 0 0-2.241 1.632v-1.552h-1.376v8zm6.656 0h1.376v-12.009h-1.376v12.005zm4.16-4a4 4 0 0 0 3.921 4.162 3.509 3.509 0 0 0 2.817-1.392v1.232h1.377v-12.011h-1.384v5.234a3.509 3.509 0 0 0-2.817-1.392 4 4 0 0 0-3.923 4.161zm6.85 0a2.734 2.734 0 1 1-2.721-2.9 2.733 2.733 0 0 1 2.714 2.894zm4.4.209h4.081V133.2h-4.09v1.377zm7.231 3.793h1.377V134.4c0-1.872 1.1-2.753 2.113-2.753a2.011 2.011 0 0 1 .752.128v-1.424a2.851 2.851 0 0 0-.624-.064 2.38 2.38 0 0 0-2.241 1.632v-1.552h-1.377v8zm5.744-4a4.219 4.219 0 0 0 7.747 2.257l-1.088-.752a2.833 2.833 0 0 1-5.266-1.232h6.562a3.692 3.692 0 0 0 .017-.417 3.73 3.73 0 0 0-3.81-4.017 4.056 4.056 0 0 0-4.171 4.153zm4.114-2.945a2.4 2.4 0 0 1 2.449 2.1h-5.074a2.616 2.616 0 0 1 2.616-2.108zm6.606 6.947h1.377V134.4c0-1.872 1.024-2.929 2.321-2.929a1.922 1.922 0 0 1 1.889 2.177v4.722h1.36v-4.93a2.949 2.949 0 0 0-3.025-3.233 2.831 2.831 0 0 0-2.545 1.392v-1.232h-1.377v8zm17.955-4a4.186 4.186 0 1 0-4.177 4.162 4.107 4.107 0 0 0 4.168-4.172zm-6.962 0a2.779 2.779 0 1 1 2.785 2.882 2.751 2.751 0 0 1-2.794-2.892zm16.482 4h1.216l2.721-8H371l-1.937 5.842-2-5.842h-1.056l-2 5.842-1.937-5.842h-1.44l2.721 8h1.216l1.985-5.762zm6.221 0h1.376V134.4c0-1.872 1.025-2.929 2.321-2.929a1.921 1.921 0 0 1 1.889 2.177v4.722h1.361v-4.93a2.95 2.95 0 0 0-3.026-3.233 2.832 2.832 0 0 0-2.545 1.392v-1.232h-1.376v8zm9.6-4a4.22 4.22 0 0 0 7.748 2.257l-1.098-.762a2.833 2.833 0 0 1-5.266-1.232h6.566a3.922 3.922 0 0 0 .016-.417 3.729 3.729 0 0 0-3.81-4.017 4.056 4.056 0 0 0-4.166 4.161zm4.114-2.945a2.4 2.4 0 0 1 2.449 2.1h-5.074a2.617 2.617 0 0 1 2.615-2.11zm5.982 2.945a4.005 4.005 0 0 0 3.922 4.162 3.51 3.51 0 0 0 2.817-1.392v1.232h1.377v-12.015h-1.377v5.234a3.51 3.51 0 0 0-2.817-1.392 4.005 4.005 0 0 0-3.932 4.161zm6.851 0a2.734 2.734 0 1 1-2.721-2.9 2.733 2.733 0 0 1 2.711 2.89zm9.565 4h6.979v-1.408h-5.49v-9.956h-1.489v11.364zm11.009-11.124a.967.967 0 0 0-.961-.977.994.994 0 0 0-.992.977.983.983 0 0 0 .992.976.957.957 0 0 0 .951-.984zm-1.671 11.116h1.377v-8H420.2v8zm4.784 0h1.377V134.4c0-1.808.912-2.929 2.209-2.929 1.04 0 1.568.9 1.568 2.193v4.706h1.377v-3.97c0-1.808.9-2.929 2.193-2.929 1.04 0 1.584.9 1.584 2.193v4.706h1.377v-4.914c0-1.953-1.057-3.249-2.8-3.249a2.769 2.769 0 0 0-2.625 1.712 2.517 2.517 0 0 0-2.465-1.712 2.689 2.689 0 0 0-2.417 1.392v-1.232h-1.382v8zm22.691-4a4.186 4.186 0 1 0-4.178 4.162 4.107 4.107 0 0 0 4.174-4.164zm-6.963 0a2.779 2.779 0 1 1 2.785 2.882 2.751 2.751 0 0 1-2.789-2.884zm9.728 4h1.376V134.4c0-1.872 1.025-2.929 2.321-2.929a1.921 1.921 0 0 1 1.889 2.177v4.722h1.361v-4.93a2.95 2.95 0 0 0-3.026-3.233 2.832 2.832 0 0 0-2.545 1.392v-1.232h-1.376v8zm14.465-.112v-1.232a3.041 3.041 0 0 1-.976.16 1.153 1.153 0 0 1-1.329-1.361v-4.194h2.3v-1.264h-2.3v-2.225h-1.38v2.225h-1.7v1.264h1.7V136a2.252 2.252 0 0 0 2.449 2.449 3.828 3.828 0 0 0 1.231-.19zm1.823-3.89a4 4 0 0 0 3.921 4.162 3.509 3.509 0 0 0 2.817-1.392v1.232h1.377v-8h-1.377v1.229a3.509 3.509 0 0 0-2.817-1.392 4 4 0 0 0-3.925 4.161zm6.85 0a2.734 2.734 0 1 1-2.721-2.9 2.733 2.733 0 0 1 2.717 2.9zm9.357 4h1.377V134.4c0-1.808.912-2.929 2.209-2.929 1.04 0 1.568.9 1.568 2.193v4.706h1.377v-3.97c0-1.808.9-2.929 2.193-2.929 1.04 0 1.585.9 1.585 2.193v4.706h1.376v-4.914c0-1.953-1.056-3.249-2.8-3.249a2.77 2.77 0 0 0-2.625 1.712 2.516 2.516 0 0 0-2.465-1.712 2.689 2.689 0 0 0-2.417 1.392v-1.232h-1.377v8zm16.625-11.124a.966.966 0 0 0-.96-.977.994.994 0 0 0-.993.977.984.984 0 0 0 .993.976.956.956 0 0 0 .956-.974zm-1.665 11.124h1.377v-8h-1.377v8zm4.784 0h1.377v-12.003h-1.377v12.005zm4.784 0h1.377v-12.003h-1.377v12.005zm11.152-11.124a.966.966 0 0 0-.96-.977.994.994 0 0 0-.992.977.983.983 0 0 0 .992.976.956.956 0 0 0 .956-.974zm-1.664 11.124h1.376v-8h-1.376v8zm4.784 0h1.376V134.4c0-1.872 1.025-2.929 2.321-2.929a1.921 1.921 0 0 1 1.889 2.177v4.722h1.36v-4.93a2.949 2.949 0 0 0-3.025-3.233 2.831 2.831 0 0 0-2.545 1.392v-1.232h-1.376v8zm15.135 0h1.489v-11.362h-1.489v11.364zm9.41-.112v-1.232a3.041 3.041 0 0 1-.976.16 1.153 1.153 0 0 1-1.329-1.361v-4.194h2.3v-1.264h-2.3v-2.225H542.6v2.225h-1.7v1.264h1.7V136a2.252 2.252 0 0 0 2.449 2.449 3.828 3.828 0 0 0 1.227-.19zm1.822-3.89a4.005 4.005 0 0 0 3.922 4.162 3.51 3.51 0 0 0 2.817-1.392v1.232h1.376v-8h-1.376v1.231a3.51 3.51 0 0 0-2.817-1.392 4.005 4.005 0 0 0-3.924 4.161zm6.851 0a2.734 2.734 0 1 1-2.721-2.9 2.733 2.733 0 0 1 2.717 2.902zm4.653 4h1.377v-12.001H559.6v12.005zm6.913 3.345l5.25-11.348h-1.537l-2.737 6.066-2.753-6.066h-1.52l3.5 7.587-1.745 3.761h1.537zm8.352-3.7a1.368 1.368 0 0 0 .224-.72 1.185 1.185 0 1 0-2.369 0 1.191 1.191 0 0 0 .656 1.072l-1.072 2.289h.912zM28.633 158.371h1.377v-4l4.338 4H36.2l-4.818-4.466 3.938-3.537H33.5l-3.489 3.121v-7.123h-1.378v12zm9.424 0h1.377V154.4c0-1.872 1.024-2.929 2.321-2.929a1.921 1.921 0 0 1 1.889 2.177v4.722H45v-4.93a2.949 2.949 0 0 0-3.025-3.233 2.83 2.83 0 0 0-2.545 1.392v-1.232h-1.373v8zm17.955-4a4.186 4.186 0 1 0-4.178 4.162 4.107 4.107 0 0 0 4.178-4.164zm-6.963 0a2.779 2.779 0 1 1 2.785 2.882 2.751 2.751 0 0 1-2.785-2.884zm16.482 4h1.216l2.721-8h-1.456l-1.937 5.842-2-5.842h-1.057l-2 5.842-1.937-5.842H57.64l2.721 8h1.216l1.985-5.762zm6.221 0h1.377V154.4c0-1.872 1.024-2.929 2.321-2.929a1.921 1.921 0 0 1 1.889 2.177v4.722H78.7v-4.93a2.949 2.949 0 0 0-3.025-3.233 2.83 2.83 0 0 0-2.545 1.392v-1.232h-1.378v8zm15.392 0h1.376v-6.739h2.321v-1.264h-2.32V148.9a1.152 1.152 0 0 1 1.329-1.36 3.225 3.225 0 0 1 .992.16v-1.217a3.639 3.639 0 0 0-1.248-.208 2.286 2.286 0 0 0-2.449 2.481v1.617h-1.7v1.264h1.7v6.739zm13.523-4a4.186 4.186 0 1 0-4.177 4.162 4.107 4.107 0 0 0 4.177-4.164zm-6.963 0a2.779 2.779 0 1 1 2.785 2.882 2.751 2.751 0 0 1-2.789-2.884zm9.728 4h1.377V154.4c0-1.872 1.1-2.753 2.112-2.753a2.016 2.016 0 0 1 .753.128v-1.424a2.854 2.854 0 0 0-.625-.064 2.38 2.38 0 0 0-2.24 1.632v-1.552h-1.377v8zm12.624-11.124a.966.966 0 0 0-.96-.977.994.994 0 0 0-.992.977.983.983 0 0 0 .992.976.956.956 0 0 0 .96-.976zm-1.664 11.124h1.376v-8h-1.376v8zm9.121-.112v-1.232a3.041 3.041 0 0 1-.976.16 1.153 1.153 0 0 1-1.328-1.361v-4.194h2.3v-1.264h-2.3v-2.225h-1.377v2.225h-1.7v1.264h1.7V156a2.252 2.252 0 0 0 2.449 2.449 3.828 3.828 0 0 0 1.232-.19zm7.745-2.113c0-1.2-.753-1.969-2.113-2.417l-.864-.288c-.945-.3-1.233-.608-1.233-1.12a1.133 1.133 0 0 1 1.345-.929 2.159 2.159 0 0 1 1.7.833l.9-.865a3.106 3.106 0 0 0-2.561-1.152c-1.585 0-2.705.88-2.705 2.177a2.416 2.416 0 0 0 1.984 2.321l.785.256c1.04.336 1.424.72 1.424 1.28a1.218 1.218 0 0 1-1.408 1.089 2.148 2.148 0 0 1-2.049-1.265l-1.121.608a3.18 3.18 0 0 0 3.138 1.857c1.609 0 2.778-.816 2.778-2.385zm7.469 2.225h1.373v-12h-1.377v12zm12.515-4a4.186 4.186 0 1 0-4.177 4.162 4.107 4.107 0 0 0 4.177-4.164zm-6.962 0a2.779 2.779 0 1 1 2.785 2.882 2.751 2.751 0 0 1-2.785-2.884zm9.727 4h1.377V154.4c0-1.872 1.024-2.929 2.321-2.929a1.921 1.921 0 0 1 1.888 2.177v4.722h1.361v-4.93a2.949 2.949 0 0 0-3.025-3.233 2.829 2.829 0 0 0-2.545 1.392v-1.232h-1.377v8zm17.683-.464v-7.539h-1.377v1.232a3.4 3.4 0 0 0-2.785-1.392 4.077 4.077 0 0 0 0 8.147 3.417 3.417 0 0 0 2.785-1.408v.912a2.558 2.558 0 0 1-2.673 2.769 3.422 3.422 0 0 1-2.8-1.345l-.96.961a4.752 4.752 0 0 0 3.777 1.633 3.705 3.705 0 0 0 4.033-3.97zm-6.675-3.634a2.707 2.707 0 1 1 2.705 2.8 2.667 2.667 0 0 1-2.705-2.8zm15.25 1.873c0-1.2-.753-1.969-2.113-2.417l-.864-.288c-.945-.3-1.233-.608-1.233-1.12a1.133 1.133 0 0 1 1.345-.929 2.159 2.159 0 0 1 1.7.833l.9-.865a3.106 3.106 0 0 0-2.561-1.152c-1.585 0-2.7.88-2.7 2.177a2.416 2.416 0 0 0 1.984 2.321l.785.256c1.04.336 1.424.72 1.424 1.28a1.218 1.218 0 0 1-1.408 1.089 2.148 2.148 0 0 1-2.049-1.265l-1.121.608a3.18 3.18 0 0 0 3.138 1.857c1.608 0 2.773-.816 2.773-2.385zm7.007 2.113v-1.232a3.041 3.041 0 0 1-.976.16 1.153 1.153 0 0 1-1.329-1.361v-4.194h2.3v-1.264h-2.3v-2.225h-1.376v2.225h-1.7v1.264h1.7V156a2.252 2.252 0 0 0 2.449 2.449 3.828 3.828 0 0 0 1.232-.19zm1.822-3.89a4.005 4.005 0 0 0 3.922 4.162 3.509 3.509 0 0 0 2.817-1.392v1.232h1.377v-8h-1.377v1.229a3.509 3.509 0 0 0-2.817-1.392 4.005 4.005 0 0 0-3.922 4.161zm6.851 0a2.734 2.734 0 1 1-2.721-2.9 2.733 2.733 0 0 1 2.721 2.9zm4.654 4h1.376V154.4c0-1.872 1.025-2.929 2.321-2.929a1.921 1.921 0 0 1 1.889 2.177v4.722h1.36v-4.93a2.949 2.949 0 0 0-3.025-3.233 2.831 2.831 0 0 0-2.545 1.392v-1.232H200.6v8zm9.6-4a4.005 4.005 0 0 0 3.922 4.162 3.51 3.51 0 0 0 2.817-1.392v1.232h1.376v-12h-1.376v5.229a3.51 3.51 0 0 0-2.817-1.392 4.005 4.005 0 0 0-3.921 4.161zm6.851 0a2.734 2.734 0 1 1-2.721-2.9 2.733 2.733 0 0 1 2.72 2.9zm6.318-7.122a.966.966 0 0 0-.96-.977.994.994 0 0 0-.993.977.984.984 0 0 0 .993.976.956.956 0 0 0 .959-.976zm-1.668 11.124h1.377v-8H221.7v8zm4.784 0h1.377V154.4c0-1.872 1.024-2.929 2.321-2.929a1.921 1.921 0 0 1 1.888 2.177v4.722h1.361v-4.93a2.949 2.949 0 0 0-3.025-3.233 2.829 2.829 0 0 0-2.545 1.392v-1.232h-1.377v8zm17.683-.464v-7.539h-1.377v1.232a3.4 3.4 0 0 0-2.785-1.392 4.077 4.077 0 0 0 0 8.147 3.417 3.417 0 0 0 2.785-1.408v.912a2.558 2.558 0 0 1-2.673 2.769 3.422 3.422 0 0 1-2.8-1.345l-.96.961a4.752 4.752 0 0 0 3.777 1.633 3.705 3.705 0 0 0 4.035-3.97zm-6.675-3.634a2.707 2.707 0 1 1 2.705 2.8 2.667 2.667 0 0 1-2.703-2.8zm22.035 2.113l-1.2-.672a2.713 2.713 0 0 1-2.5 1.537 2.883 2.883 0 0 1 0-5.763 2.713 2.713 0 0 1 2.5 1.537l1.2-.672a4.145 4.145 0 0 0-3.7-2.145 4.162 4.162 0 1 0 0 8.323 4.145 4.145 0 0 0 3.702-2.145zm10.3-2.017a4.186 4.186 0 1 0-4.178 4.162 4.107 4.107 0 0 0 4.184-4.162zm-6.963 0a2.779 2.779 0 1 1 2.785 2.882 2.751 2.751 0 0 1-2.779-2.882zm9.727 4h1.377V154.4c0-1.808.912-2.929 2.209-2.929 1.04 0 1.568.9 1.568 2.193v4.706h1.377v-3.97c0-1.808.9-2.929 2.193-2.929 1.04 0 1.584.9 1.584 2.193v4.706h1.377v-4.914c0-1.953-1.057-3.249-2.8-3.249a2.769 2.769 0 0 0-2.625 1.712 2.516 2.516 0 0 0-2.465-1.712 2.689 2.689 0 0 0-2.417 1.392v-1.232H272.6v8zm14.96 0h1.377V154.4c0-1.808.912-2.929 2.209-2.929 1.04 0 1.568.9 1.568 2.193v4.706h1.377v-3.97c0-1.808.9-2.929 2.193-2.929 1.04 0 1.584.9 1.584 2.193v4.706h1.377v-4.914c0-1.953-1.057-3.249-2.8-3.249a2.769 2.769 0 0 0-2.625 1.712 2.517 2.517 0 0 0-2.465-1.712 2.689 2.689 0 0 0-2.417 1.392v-1.232h-1.377v8zm16.625-11.124a.967.967 0 0 0-.961-.977.994.994 0 0 0-.992.977.983.983 0 0 0 .992.976.957.957 0 0 0 .967-.974zm-1.665 11.124h1.377v-8h-1.377v8zm9.122-.112v-1.232a3.048 3.048 0 0 1-.977.16 1.153 1.153 0 0 1-1.328-1.361v-4.194h2.305v-1.264h-2.305v-2.225h-1.377v2.225h-1.7v1.264h1.7V156a2.253 2.253 0 0 0 2.449 2.449 3.835 3.835 0 0 0 1.239-.19zm2.558.112h1.376V154.4c0-1.808.913-2.929 2.209-2.929 1.041 0 1.569.9 1.569 2.193v4.706h1.377v-3.97c0-1.808.9-2.929 2.192-2.929 1.041 0 1.585.9 1.585 2.193v4.706h1.377v-4.914c0-1.953-1.057-3.249-2.8-3.249a2.771 2.771 0 0 0-2.625 1.712 2.515 2.515 0 0 0-2.465-1.712 2.692 2.692 0 0 0-2.417 1.392v-1.232H314.2v8zm14.335-4a4.22 4.22 0 0 0 7.748 2.257l-1.089-.752a2.833 2.833 0 0 1-5.266-1.232h6.563a3.922 3.922 0 0 0 .016-.417 3.729 3.729 0 0 0-3.81-4.017 4.056 4.056 0 0 0-4.156 4.161zm4.114-2.945a2.4 2.4 0 0 1 2.449 2.1h-5.074a2.617 2.617 0 0 1 2.631-2.1zm6.607 6.947h1.376V154.4c0-1.872 1.025-2.929 2.321-2.929a1.921 1.921 0 0 1 1.889 2.177v4.722h1.36v-4.93a2.949 2.949 0 0 0-3.025-3.233 2.831 2.831 0 0 0-2.545 1.392v-1.232h-1.376v8zm14.465-.112v-1.232a3.041 3.041 0 0 1-.976.16 1.153 1.153 0 0 1-1.329-1.361v-4.194h2.305v-1.264h-2.305v-2.225h-1.376v2.225h-1.7v1.264h1.7V156a2.252 2.252 0 0 0 2.449 2.449 3.828 3.828 0 0 0 1.238-.19zm11.328 0v-1.232a3.041 3.041 0 0 1-.976.16 1.153 1.153 0 0 1-1.329-1.361v-4.194h2.305v-1.264h-2.305v-2.225h-1.376v2.225h-1.7v1.264h1.7V156a2.252 2.252 0 0 0 2.449 2.449 3.828 3.828 0 0 0 1.238-.19zm10.178-3.89a4.186 4.186 0 1 0-4.178 4.162 4.107 4.107 0 0 0 4.184-4.162zm-6.963 0a2.779 2.779 0 1 1 2.785 2.882 2.751 2.751 0 0 1-2.779-2.882zm18.5 3.89v-1.232a3.043 3.043 0 0 1-.977.16 1.153 1.153 0 0 1-1.328-1.361v-4.194h2.305v-1.264h-2.305v-2.225h-1.377v2.225h-1.7v1.264h1.7V156a2.253 2.253 0 0 0 2.449 2.449 3.83 3.83 0 0 0 1.236-.19zm1.822-3.89a4.219 4.219 0 0 0 7.747 2.257l-1.088-.752a2.834 2.834 0 0 1-5.267-1.232h6.563a3.922 3.922 0 0 0 .016-.417 3.729 3.729 0 0 0-3.809-4.017 4.056 4.056 0 0 0-4.159 4.161zm4.114-2.945a2.4 2.4 0 0 1 2.449 2.1h-5.074a2.616 2.616 0 0 1 2.628-2.1zm5.118 6.947h1.712l2.433-3.025 2.433 3.025h1.7l-3.265-4.05 3.009-3.953h-1.681l-2.193 2.881-2.208-2.881h-1.665l3.009 3.953zm14.818-.112v-1.232a3.041 3.041 0 0 1-.976.16 1.153 1.153 0 0 1-1.329-1.361v-4.194h2.305v-1.264h-2.305v-2.225h-1.376v2.225h-1.7v1.264h1.7V156a2.252 2.252 0 0 0 2.448 2.449 3.83 3.83 0 0 0 1.236-.19zm4.223-11.012a.967.967 0 0 0-.961-.977.994.994 0 0 0-.992.977.983.983 0 0 0 .992.976.957.957 0 0 0 .964-.976zm-1.665 11.124h1.377v-8h-1.377v8zm4.784 0h1.377v-12h-1.377v12zm4.16-4a4.219 4.219 0 0 0 7.747 2.257l-1.089-.752a2.833 2.833 0 0 1-5.266-1.232h6.563a3.922 3.922 0 0 0 .016-.417 3.729 3.729 0 0 0-3.81-4.017 4.055 4.055 0 0 0-4.158 4.159zm4.113-2.945a2.4 2.4 0 0 1 2.449 2.1h-5.071a2.617 2.617 0 0 1 2.625-2.102zm15.376 6.835v-1.232a3.041 3.041 0 0 1-.976.16 1.153 1.153 0 0 1-1.328-1.361v-4.194h2.3v-1.264h-2.3v-2.225h-1.374v2.225h-1.7v1.264h1.7V156a2.252 2.252 0 0 0 2.449 2.449 3.828 3.828 0 0 0 1.232-.19zm2.559.112h1.376V154.4c0-1.872 1.105-2.753 2.113-2.753a2.011 2.011 0 0 1 .752.128v-1.424a2.851 2.851 0 0 0-.624-.064 2.381 2.381 0 0 0-2.241 1.632v-1.552h-1.373v8zm5.759-4a4.005 4.005 0 0 0 3.922 4.162 3.51 3.51 0 0 0 2.817-1.392v1.232h1.377v-8h-1.377v1.225a3.51 3.51 0 0 0-2.817-1.392 4.005 4.005 0 0 0-3.919 4.161zm6.851 0a2.734 2.734 0 1 1-2.721-2.9 2.733 2.733 0 0 1 2.724 2.896zm4.029 0a4.005 4.005 0 0 0 3.922 4.162 3.51 3.51 0 0 0 2.817-1.392v1.232h1.376v-12h-1.376v5.225a3.51 3.51 0 0 0-2.817-1.392 4.005 4.005 0 0 0-3.919 4.161zm6.851 0a2.734 2.734 0 1 1-2.721-2.9 2.733 2.733 0 0 1 2.724 2.896zm6.318-7.122a.966.966 0 0 0-.96-.977.994.994 0 0 0-.993.977.984.984 0 0 0 .993.976.956.956 0 0 0 .963-.98zm-1.665 11.124h1.38v-8h-1.377v8zm9.122-.112v-1.232a3.041 3.041 0 0 1-.976.16 1.153 1.153 0 0 1-1.329-1.361v-4.194h2.305v-1.264h-2.302v-2.225h-1.377v2.225h-1.7v1.264h1.7V156a2.253 2.253 0 0 0 2.449 2.449 3.83 3.83 0 0 0 1.233-.19zm4.223-11.012a.967.967 0 0 0-.961-.977.994.994 0 0 0-.992.977.983.983 0 0 0 .992.976.957.957 0 0 0 .964-.98zM486 158.371h1.377v-8H486v8zm12.515-4a4.186 4.186 0 1 0-4.178 4.162 4.107 4.107 0 0 0 4.181-4.164zm-6.963 0a2.779 2.779 0 1 1 2.785 2.882 2.751 2.751 0 0 1-2.782-2.884zm9.728 4h1.376V154.4c0-1.872 1.025-2.929 2.321-2.929a1.921 1.921 0 0 1 1.889 2.177v4.722h1.361v-4.93a2.95 2.95 0 0 0-3.026-3.233 2.832 2.832 0 0 0-2.545 1.392v-1.232h-1.376v8zm15.41-2.225c0-1.2-.753-1.969-2.113-2.417l-.864-.288c-.945-.3-1.233-.608-1.233-1.12a1.133 1.133 0 0 1 1.345-.929 2.159 2.159 0 0 1 1.7.833l.9-.865a3.106 3.106 0 0 0-2.561-1.152c-1.585 0-2.705.88-2.705 2.177a2.416 2.416 0 0 0 1.984 2.321l.785.256c1.04.336 1.424.72 1.424 1.28a1.218 1.218 0 0 1-1.408 1.089 2.148 2.148 0 0 1-2.049-1.265l-1.121.608a3.18 3.18 0 0 0 3.138 1.857c1.612 0 2.781-.816 2.781-2.385zm4.67 1.153a1.185 1.185 0 1 0-1.184 1.2 1.206 1.206 0 0 0 1.187-1.199z"/><path id="Rectangle_4_copy_4" data-name="Rectangle 4 copy 4" d="M27 204.938h102V208H27z"/><path id="Shop_now" data-name="Shop now" class="cls-2" d="M31.347 199.177c2.255 0 3.8-1.378 3.818-3.352a3.346 3.346 0 0 0-2.54-3.245l-.752-.276c-1.127-.413-1.654-.673-1.654-1.255a1.1 1.1 0 0 1 1.293-.827 2.356 2.356 0 0 1 1.849.9l1.563-1.684a4.414 4.414 0 0 0-3.442-1.5c-2.134 0-3.683 1.24-3.683 3.352 0 1.485.962 2.541 2.691 3.138l.752.26c1.067.367 1.488.75 1.488 1.3a1.086 1.086 0 0 1-1.293.9 2.779 2.779 0 0 1-2.21-1.24l-1.834 1.577a4.653 4.653 0 0 0 3.954 1.952zm8.1-.184h2.39v-4.3h4.3v4.3h2.39v-10.868h-2.39v4.256h-4.3v-4.256h-2.39v10.868zm18.883.184a5.618 5.618 0 1 0-5.517-5.618 5.582 5.582 0 0 0 5.522 5.618zm0-2.357a3.265 3.265 0 1 1 3.1-3.261 3.2 3.2 0 0 1-3.095 3.261zm17.185-4.975a3.667 3.667 0 0 0-3.758-3.72h-3.618v10.868h2.39v-3.444h1.233a3.654 3.654 0 0 0 3.758-3.704zm-2.315 0a1.416 1.416 0 0 1-1.473 1.423h-1.2v-2.847h1.2a1.408 1.408 0 0 1 1.473 1.424zm21.649 7.148v-10.868h-2.4v6.705l-5.186-6.705H85.2v10.868h2.39v-6.719l5.2 6.719h2.059zm9.8.184a5.618 5.618 0 1 0-5.516-5.618 5.581 5.581 0 0 0 5.525 5.618zm0-2.357a3.265 3.265 0 1 1 3.1-3.261 3.2 3.2 0 0 1-3.091 3.261zm18.072 2.173H125l2.48-10.868h-2.556l-1.458 6.888-3.006-7.071-2.991 7.071-1.458-6.888h-2.556l2.465 10.868h2.27l2.27-5.327z"/></svg>