<svg id="Copy_copy_14" data-name="Copy copy 14" xmlns="http://www.w3.org/2000/svg" width="720" height="250"><defs><style>.cls-2{fill-rule:evenodd}</style></defs><path id="Rectangle_106_copy_16" data-name="Rectangle 106 copy 16" fill="#fff" d="M0 0h720v250H0z"/><path id="STRETCH-SUEDE_MINI_SKIRT_Suede_b._1998_What_s_new_about_this_" data-name="STRETCH-SUEDE MINI SKIRT Suede, b. 1998 What’s new about this" class="cls-2" d="M37.946 51.231c4.5 0 7.59-2.7 7.62-6.57.03-3.21-1.98-5.25-5.07-6.36l-1.5-.54c-2.25-.81-3.3-1.32-3.3-2.46 0-1.11 1.29-1.62 2.58-1.62a4.738 4.738 0 0 1 3.69 1.77l3.12-3.3a8.887 8.887 0 0 0-6.87-2.94c-4.26 0-7.35 2.43-7.35 6.57 0 2.91 1.92 4.98 5.37 6.15l1.5.51c2.13.72 2.97 1.47 2.97 2.55 0 1.02-.99 1.77-2.58 1.77a5.573 5.573 0 0 1-4.41-2.43l-3.66 3.09a9.34 9.34 0 0 0 7.89 3.81zm15.96-.36h4.8V34.132H64.2v-4.56H48.476v4.56h5.43v16.739zm14.7 0h4.77v-8.79h.78l7.08 8.79h5.73l-7.53-9.39c2.7-.96 4.17-2.73 4.17-5.49a6.288 6.288 0 0 0-6.6-6.42h-8.4v21.3zm4.77-12.84v-4.08h3.06c1.41 0 2.43.75 2.43 2.04a2.156 2.156 0 0 1-2.43 2.04h-3.06zm16.59 12.84h13.5v-4.56h-8.73V42.5h6.93v-4.56h-6.93v-3.81h8.73v-4.56h-13.5v21.3zm22.469 0h4.8V34.132h5.49v-4.56h-15.719v4.56h5.429v16.739zm23.7.36a11.01 11.01 0 0 0 9.96-5.82l-4.2-2.28a6.39 6.39 0 1 1 0-5.82l4.2-2.28a11.1 11.1 0 1 0-9.96 16.2zm14.251-.36h4.769v-8.43h8.58v8.43h4.77v-21.3h-4.77v8.34h-8.58v-8.34h-4.769v21.3zM174 42.381h8.819v-4.32H174v4.32zm20.669 8.85c4.5 0 7.59-2.7 7.62-6.57.03-3.21-1.98-5.25-5.07-6.36l-1.5-.54c-2.25-.81-3.3-1.32-3.3-2.46 0-1.11 1.29-1.62 2.58-1.62a4.738 4.738 0 0 1 3.69 1.77l3.12-3.3a8.888 8.888 0 0 0-6.87-2.94c-4.26 0-7.35 2.43-7.35 6.57 0 2.91 1.92 4.98 5.37 6.15l1.5.51c2.13.72 2.97 1.47 2.97 2.55 0 1.02-.99 1.77-2.58 1.77a5.573 5.573 0 0 1-4.41-2.43l-3.66 3.09a9.34 9.34 0 0 0 7.886 3.81zm20.94 0a8.353 8.353 0 0 0 8.759-8.79V29.572h-4.77V42.5a3.991 3.991 0 1 1-7.979 0V29.572h-4.77v12.869a8.338 8.338 0 0 0 8.756 8.79zm14.519-.36h13.5v-4.56h-8.73V42.5h6.93v-4.56h-6.93v-3.81h8.73v-4.56h-13.5v21.3zm18.63 0h7.26a10.652 10.652 0 1 0 0-21.3h-7.26v21.3zm4.77-4.38V33.952h2.49a6.011 6.011 0 0 1 6.03 6.27 6.011 6.011 0 0 1-6.03 6.27h-2.49zm18.18 4.38h13.5v-4.56h-8.73V42.5h6.93v-4.56h-6.93v-3.81h8.73v-4.56H271.7v21.3zm37.739-4.53l6.21-8.61v13.14h4.8v-21.3H316.1l-6.66 9.18-6.659-9.18h-4.35v21.3h4.77V37.732zm17.011 4.53h4.769v-21.3h-4.769v21.3zm30.028 0v-21.3h-4.8v13.14l-10.35-13.139h-4.11v21.3h4.77V37.7l10.38 13.17h4.109zm6 0h4.77v-21.3h-4.77v21.3zm25.229.36c4.5 0 7.59-2.7 7.62-6.57.03-3.21-1.98-5.25-5.07-6.36l-1.5-.54c-2.25-.81-3.3-1.32-3.3-2.46 0-1.11 1.29-1.62 2.58-1.62a4.738 4.738 0 0 1 3.69 1.77l3.12-3.3a8.888 8.888 0 0 0-6.87-2.94c-4.26 0-7.35 2.43-7.35 6.57 0 2.91 1.92 4.98 5.37 6.15l1.5.51c2.13.72 2.97 1.47 2.97 2.55 0 1.02-.99 1.77-2.58 1.77a5.573 5.573 0 0 1-4.41-2.43l-3.66 3.09a9.34 9.34 0 0 0 7.887 3.81zm12.42-.36h4.74v-9.54l8.669 9.54h6.12L409.552 39.8l8.4-10.229H412.1l-7.229 8.91v-8.91h-4.74v21.3zm22.5 0h4.77v-21.3h-4.77v21.3zm10.77 0h4.769v-8.79h.78l7.08 8.79h5.73l-7.53-9.39c2.7-.96 4.17-2.73 4.17-5.49a6.288 6.288 0 0 0-6.6-6.42h-8.4v21.3zm4.769-12.84v-4.08h3.06c1.41 0 2.43.75 2.43 2.04a2.156 2.156 0 0 1-2.43 2.04h-3.06zm19.77 12.84h4.8V34.132h5.49v-4.56h-15.722v4.56h5.429v16.739zM29.985 76.783a4.937 4.937 0 0 0 4.483 2.3c2.377 0 4.069-1.368 4.069-3.547 0-1.891-1.08-2.971-2.971-3.691l-1.549-.594c-1.3-.486-1.927-.972-1.927-2.053 0-1.062 1.044-1.764 2.3-1.764a3.164 3.164 0 0 1 2.539 1.26l1.224-1.08a4.663 4.663 0 0 0-3.727-1.746c-2.287 0-4 1.314-4 3.4 0 1.747.9 2.791 2.9 3.529l1.693.648a2.323 2.323 0 0 1 1.837 2.161c0 1.188-1.044 1.909-2.359 1.909a3.572 3.572 0 0 1-3.169-1.747zM41.5 75.4c0 2.233 1.332 3.655 3.313 3.655a3.1 3.1 0 0 0 2.773-1.566v1.386h1.548v-9h-1.543v4.465c0 2.071-1.1 3.3-2.5 3.3-1.242 0-2.035-.954-2.035-2.467v-5.305H41.5V75.4zm10.75-1.03a4.746 4.746 0 0 0 8.715 2.539l-1.224-.846a3.187 3.187 0 0 1-5.924-1.386H61.2a4.393 4.393 0 0 0 .018-.468 4.2 4.2 0 0 0-4.285-4.519 4.562 4.562 0 0 0-4.683 4.68zm4.627-3.313a2.693 2.693 0 0 1 2.755 2.359h-5.707a2.943 2.943 0 0 1 2.953-2.359zm6.73 3.313a4.5 4.5 0 0 0 4.411 4.681 3.948 3.948 0 0 0 3.169-1.566v1.386h1.548v-13.5h-1.546v5.888a3.948 3.948 0 0 0-3.169-1.566 4.5 4.5 0 0 0-4.412 4.677zm7.706 0a3.075 3.075 0 1 1-3.061-3.259 3.074 3.074 0 0 1 3.063 3.259zm4.534 0a4.746 4.746 0 0 0 8.715 2.539l-1.224-.846a3.187 3.187 0 0 1-5.924-1.386H84.8a4.393 4.393 0 0 0 .018-.468 4.2 4.2 0 0 0-4.285-4.519 4.562 4.562 0 0 0-4.685 4.68zm4.627-3.313a2.693 2.693 0 0 1 2.755 2.359h-5.706a2.943 2.943 0 0 1 2.953-2.359zm9.359 7.418a1.54 1.54 0 0 0 .252-.81 1.333 1.333 0 1 0-2.665 0 1.34 1.34 0 0 0 .738 1.206l-1.206 2.575h1.028zm10.421-.99a3.95 3.95 0 0 0 3.169 1.566 4.69 4.69 0 0 0 0-9.363 3.95 3.95 0 0 0-3.169 1.566v-5.887h-1.546v13.5h1.548v-1.382zm6-3.115a3.067 3.067 0 1 1-3.061-3.259 3.074 3.074 0 0 1 3.059 3.259zm6.658 3.295a1.332 1.332 0 1 0-1.332 1.35 1.356 1.356 0 0 0 1.33-1.35zm9.7 1.206h1.548V66.087h-2.754l-1.261 1.53h2.467v11.254zm5.472 0h1.98l4.682-5.528a4.911 4.911 0 0 0 1.44-3.259 4.332 4.332 0 0 0-8.661.054 4.131 4.131 0 0 0 4 4.105 2.294 2.294 0 0 0 .5-.036zm1.026-8.751a2.746 2.746 0 1 1 2.737 2.755 2.717 2.717 0 0 1-2.737-2.754zm9.917 8.751h1.981l4.681-5.528a4.907 4.907 0 0 0 1.441-3.259 4.332 4.332 0 0 0-8.661.054 4.131 4.131 0 0 0 4 4.105 2.294 2.294 0 0 0 .5-.036zm1.027-8.751a2.746 2.746 0 1 1 2.737 2.755 2.717 2.717 0 0 1-2.737-2.754zm18.02 4.915a3.571 3.571 0 0 0-2-3.349 2.992 2.992 0 0 0 1.3-2.521 3.318 3.318 0 0 0-3.583-3.3 3.364 3.364 0 0 0-3.6 3.3 2.981 2.981 0 0 0 1.332 2.521 3.573 3.573 0 0 0-2.035 3.349 4.3 4.3 0 0 0 8.586.001zm-6.356-5.835a1.9 1.9 0 0 1 2.071-1.873 1.867 1.867 0 0 1 2.052 1.873 1.91 1.91 0 0 1-2.052 1.891 1.948 1.948 0 0 1-2.071-1.891zm-.666 5.834a2.538 2.538 0 0 1 2.737-2.557 2.553 2.553 0 1 1 0 5.1 2.544 2.544 0 0 1-2.737-2.541zM39.693 118.871h1.328l3.105-11.364h-1.552l-2.385 8.867-3.281-9.06-3.265 9.06-2.385-8.867H29.7l3.105 11.364h1.329l2.785-7.715zm6.892 0h1.377V114.9c0-1.872 1.025-2.929 2.321-2.929a1.921 1.921 0 0 1 1.889 2.177v4.722h1.361v-4.93a2.949 2.949 0 0 0-3.025-3.233 2.831 2.831 0 0 0-2.545 1.392v-5.234h-1.378v12zm9.6-4a4 4 0 0 0 3.922 4.162 3.51 3.51 0 0 0 2.817-1.392v1.232H64.3v-8h-1.377v1.227a3.51 3.51 0 0 0-2.817-1.392 4 4 0 0 0-3.921 4.161zm6.851 0a2.734 2.734 0 1 1-2.721-2.9 2.733 2.733 0 0 1 2.72 2.898zm8.991 3.89v-1.232a3.044 3.044 0 0 1-.976.16 1.153 1.153 0 0 1-1.328-1.361v-4.194h2.3v-1.264h-2.3v-2.225h-1.378v2.225h-1.7v1.264h1.7v4.37a2.253 2.253 0 0 0 2.449 2.449 3.831 3.831 0 0 0 1.232-.194zm4.607-9.524a1.413 1.413 0 0 0 .224-.72 1.192 1.192 0 1 0-2.385 0 1.24 1.24 0 0 0 .656 1.072l-1.072 2.289h.928zm7.473 7.411c0-1.2-.752-1.969-2.113-2.417l-.864-.288c-.944-.3-1.232-.608-1.232-1.12a1.133 1.133 0 0 1 1.345-.929 2.161 2.161 0 0 1 1.7.833l.9-.865a3.1 3.1 0 0 0-2.561-1.152c-1.585 0-2.705.88-2.705 2.177a2.416 2.416 0 0 0 1.985 2.321l.784.256c1.04.336 1.425.72 1.425 1.28a1.218 1.218 0 0 1-1.409 1.089 2.149 2.149 0 0 1-2.049-1.265l-1.121.608a3.178 3.178 0 0 0 3.137 1.857c1.609-.002 2.778-.818 2.778-2.387zm7.47 2.225h1.377V114.9c0-1.872 1.024-2.929 2.321-2.929a1.921 1.921 0 0 1 1.889 2.177v4.722h1.361v-4.93a2.949 2.949 0 0 0-3.025-3.233 2.83 2.83 0 0 0-2.545 1.392v-1.232h-1.379v8zm9.6-4a4.219 4.219 0 0 0 7.747 2.257l-1.088-.752a2.834 2.834 0 0 1-5.267-1.232h6.563a3.922 3.922 0 0 0 .016-.417 3.729 3.729 0 0 0-3.809-4.017 4.056 4.056 0 0 0-4.163 4.157zm4.114-2.945a2.4 2.4 0 0 1 2.449 2.1h-5.075a2.618 2.618 0 0 1 2.625-2.104zm13.377 6.947h1.216l2.721-8h-1.456l-1.937 5.842-2-5.842h-1.056l-2 5.842-1.937-5.842h-1.44l2.721 8h1.216l1.985-5.762zm10.013-4a4 4 0 0 0 3.921 4.162 3.509 3.509 0 0 0 2.817-1.392v1.232h1.377v-8h-1.377v1.223a3.509 3.509 0 0 0-2.817-1.392 4 4 0 0 0-3.922 4.161zm6.85 0a2.734 2.734 0 1 1-2.721-2.9 2.733 2.733 0 0 1 2.72 2.894zm6.03 2.77a3.51 3.51 0 0 0 2.817 1.392 4.169 4.169 0 0 0 0-8.323 3.51 3.51 0 0 0-2.817 1.392v-5.234h-1.376v12h1.376v-1.232zm5.33-2.77a2.726 2.726 0 1 1-2.721-2.9 2.733 2.733 0 0 1 2.72 2.894zm11.905 0a4.186 4.186 0 1 0-4.178 4.162 4.107 4.107 0 0 0 4.177-4.168zm-6.963 0a2.779 2.779 0 1 1 2.785 2.882 2.751 2.751 0 0 1-2.786-2.888zm9.615.913c0 1.985 1.185 3.249 2.945 3.249a2.753 2.753 0 0 0 2.465-1.392v1.232h1.377v-8h-1.377v3.969c0 1.841-.976 2.93-2.224 2.93-1.105 0-1.809-.849-1.809-2.193v-4.706h-1.377v4.914zm14.514 2.977v-1.232a3.041 3.041 0 0 1-.976.16 1.153 1.153 0 0 1-1.329-1.361v-4.194h2.305v-1.264h-2.305v-2.225h-1.377v2.225h-1.7v1.264h1.7v4.37a2.252 2.252 0 0 0 2.449 2.449 3.828 3.828 0 0 0 1.232-.198zm11.328 0v-1.232a3.043 3.043 0 0 1-.977.16 1.153 1.153 0 0 1-1.328-1.361v-4.194h2.3v-1.264h-2.3v-2.225h-1.377v2.225h-1.7v1.264h1.7v4.37a2.253 2.253 0 0 0 2.449 2.449 3.83 3.83 0 0 0 1.232-.198zm2.558.112h1.377V114.9c0-1.872 1.024-2.929 2.321-2.929a1.921 1.921 0 0 1 1.888 2.177v4.722h1.361v-4.93a2.949 2.949 0 0 0-3.025-3.233 2.829 2.829 0 0 0-2.545 1.392v-5.234h-1.377v12zm11.888-11.124a.966.966 0 0 0-.96-.977.994.994 0 0 0-.992.977.983.983 0 0 0 .992.976.956.956 0 0 0 .959-.982zm-1.664 11.124h1.376v-8h-1.376v8zm9.97-2.225c0-1.2-.752-1.969-2.113-2.417l-.864-.288c-.945-.3-1.233-.608-1.233-1.12a1.133 1.133 0 0 1 1.345-.929 2.159 2.159 0 0 1 1.7.833l.9-.865a3.106 3.106 0 0 0-2.561-1.152c-1.585 0-2.705.88-2.705 2.177a2.416 2.416 0 0 0 1.984 2.321l.785.256c1.04.336 1.424.72 1.424 1.28a1.218 1.218 0 0 1-1.408 1.089 2.148 2.148 0 0 1-2.049-1.265l-1.121.608a3.18 3.18 0 0 0 3.138 1.857c1.608-.006 2.777-.822 2.777-2.391zm12.655 0c0-1.2-.752-1.969-2.112-2.417l-.865-.288c-.944-.3-1.232-.608-1.232-1.12a1.132 1.132 0 0 1 1.344-.929 2.16 2.16 0 0 1 1.7.833l.9-.865a3.1 3.1 0 0 0-2.561-1.152c-1.584 0-2.705.88-2.705 2.177a2.417 2.417 0 0 0 1.985 2.321l.784.256c1.041.336 1.425.72 1.425 1.28a1.218 1.218 0 0 1-1.409 1.089 2.148 2.148 0 0 1-2.048-1.265l-1.121.608a3.178 3.178 0 0 0 3.137 1.857c1.609-.006 2.781-.822 2.781-2.391zm2.766 2.225h1.377v-4l4.338 4h1.856l-4.818-4.466 3.938-3.537h-1.825l-3.489 3.121v-7.123h-1.377v12zm11.089-11.124a.967.967 0 0 0-.961-.977.994.994 0 0 0-.992.977.983.983 0 0 0 .992.976.957.957 0 0 0 .96-.982zm-1.665 11.124h1.377v-8h-1.377v8zm4.784 0h1.376V114.9c0-1.872 1.105-2.753 2.113-2.753a2.016 2.016 0 0 1 .753.128v-1.424a2.86 2.86 0 0 0-.625-.064 2.382 2.382 0 0 0-2.241 1.632v-1.552h-1.377v8zm10.994-.112v-1.232a3.048 3.048 0 0 1-.977.16 1.153 1.153 0 0 1-1.328-1.361v-4.194h2.3v-1.264h-2.3v-2.225h-1.377v2.225h-1.7v1.264h1.7v4.37a2.253 2.253 0 0 0 2.449 2.449 3.84 3.84 0 0 0 1.232-.198zm4.3-3.665h1.376v-.128c0-.609.672-1.041 1.265-1.5a3.586 3.586 0 0 0 1.68-2.881 3.215 3.215 0 0 0-3.3-3.266 3.456 3.456 0 0 0-3.538 3.474h1.377a2.059 2.059 0 0 1 2.161-2.129 1.876 1.876 0 0 1 1.921 1.953c0 .96-.609 1.424-1.489 2.081a3.075 3.075 0 0 0-1.456 2.08v.321zm1.856 2.705a1.185 1.185 0 1 0-1.184 1.2 1.206 1.206 0 0 0 1.186-1.205zm8.27 1.072h1.537l1.456-3.313h5.3l1.456 3.313h1.553l-5.042-11.364h-1.233zm3.57-4.658l2.065-4.69 2.064 4.69h-4.129zm11.3 3.426a3.51 3.51 0 0 0 2.817 1.392 4.169 4.169 0 0 0 0-8.323 3.51 3.51 0 0 0-2.817 1.392v-5.234h-1.376v12h1.376v-1.232zm5.33-2.77a2.726 2.726 0 1 1-2.721-2.9 2.733 2.733 0 0 1 2.718 2.894zm9.344 1.777c0-1.2-.753-1.969-2.113-2.417l-.865-.288c-.944-.3-1.232-.608-1.232-1.12a1.132 1.132 0 0 1 1.344-.929 2.16 2.16 0 0 1 1.7.833l.9-.865a3.1 3.1 0 0 0-2.561-1.152c-1.584 0-2.7.88-2.7 2.177a2.417 2.417 0 0 0 1.985 2.321l.784.256c1.041.336 1.425.72 1.425 1.28a1.218 1.218 0 0 1-1.409 1.089 2.148 2.148 0 0 1-2.048-1.265l-1.121.608a3.178 3.178 0 0 0 3.137 1.857c1.602-.006 2.771-.822 2.771-2.391zm10.5-1.777a4.186 4.186 0 1 0-4.177 4.162 4.107 4.107 0 0 0 4.17-4.168zm-6.962 0a2.779 2.779 0 1 1 2.785 2.882 2.751 2.751 0 0 1-2.792-2.888zm9.727 4h1.377v-12H307.9v12zm4.672-3.089c0 1.985 1.184 3.249 2.945 3.249a2.753 2.753 0 0 0 2.465-1.392v1.232h1.377v-8h-1.377v3.969c0 1.841-.976 2.93-2.225 2.93-1.1 0-1.808-.849-1.808-2.193v-4.706h-1.377v4.914zm14.514 2.977v-1.232a3.048 3.048 0 0 1-.977.16 1.153 1.153 0 0 1-1.328-1.361v-4.194h2.305v-1.264h-2.305v-2.225H323.4v2.225h-1.7v1.264h1.7v4.37a2.253 2.253 0 0 0 2.449 2.449 3.835 3.835 0 0 0 1.23-.196zm1.822-3.89a4.219 4.219 0 0 0 7.747 2.257l-1.088-.752a2.834 2.834 0 0 1-5.267-1.232h6.563a3.922 3.922 0 0 0 .016-.417 3.729 3.729 0 0 0-3.81-4.017 4.056 4.056 0 0 0-4.169 4.157zm4.113-2.945a2.4 2.4 0 0 1 2.449 2.1h-5.074a2.618 2.618 0 0 1 2.618-2.104zm6.607 6.947H341v-12h-1.377v12zm6.913 3.345l5.25-11.348h-1.537l-2.737 6.066-2.753-6.066h-1.521l3.506 7.587-1.749 3.757h1.537zm11.775-3.345h1.376V114.9c0-1.872 1.025-2.929 2.321-2.929a1.921 1.921 0 0 1 1.889 2.177v4.722h1.361v-4.93a2.95 2.95 0 0 0-3.026-3.233 2.832 2.832 0 0 0-2.545 1.392v-1.232h-1.376v8zm17.955-4a4.186 4.186 0 1 0-4.178 4.162 4.107 4.107 0 0 0 4.171-4.168zm-6.963 0a2.779 2.779 0 1 1 2.785 2.882 2.751 2.751 0 0 1-2.793-2.888zm13.921 3.89v-1.232a3.041 3.041 0 0 1-.976.16 1.153 1.153 0 0 1-1.329-1.361v-4.194h2.305v-1.264h-2.305v-2.225h-1.376v2.225h-1.7v1.264h1.7v4.37a2.252 2.252 0 0 0 2.449 2.449 3.828 3.828 0 0 0 1.225-.198zm2.559.112h1.376V114.9c0-1.872 1.025-2.929 2.321-2.929a1.921 1.921 0 0 1 1.889 2.177v4.722h1.36v-4.93a2.949 2.949 0 0 0-3.025-3.233 2.831 2.831 0 0 0-2.545 1.392v-5.234h-1.376v12zm11.888-11.124a.966.966 0 0 0-.96-.977.994.994 0 0 0-.993.977.984.984 0 0 0 .993.976.956.956 0 0 0 .953-.982zM396 118.871h1.377v-8H396v8zm4.784 0h1.377V114.9c0-1.872 1.024-2.929 2.321-2.929a1.922 1.922 0 0 1 1.889 2.177v4.722h1.36v-4.93a2.949 2.949 0 0 0-3.025-3.233 2.829 2.829 0 0 0-2.545 1.392v-1.232h-1.377v8zm17.683-.464v-7.539H417.1v1.232a3.408 3.408 0 0 0-2.786-1.392 4.077 4.077 0 0 0 0 8.147 3.42 3.42 0 0 0 2.786-1.408v.912a2.558 2.558 0 0 1-2.673 2.769 3.424 3.424 0 0 1-2.8-1.345l-.96.961a4.753 4.753 0 0 0 3.778 1.633 3.7 3.7 0 0 0 4.026-3.97zm-6.675-3.634a2.707 2.707 0 1 1 2.706 2.8 2.668 2.668 0 0 1-2.698-2.8zm11.969 3.026a1.185 1.185 0 1 0-1.185 1.2 1.206 1.206 0 0 0 1.189-1.199zm7.839 1.072h1.488v-11.364H431.6v11.364zm9.409-.112v-1.232a3.041 3.041 0 0 1-.976.16 1.153 1.153 0 0 1-1.328-1.361v-4.194h2.3v-1.264h-2.3v-2.225h-1.377v2.225h-1.7v1.264h1.7v4.37a2.252 2.252 0 0 0 2.449 2.449 3.828 3.828 0 0 0 1.236-.192zm13.761.112h1.217l2.721-8h-1.457l-1.936 5.842-2-5.842h-1.057l-2 5.842-1.937-5.842h-1.441l2.721 8h1.217l1.985-5.762zm5.565-4a4.005 4.005 0 0 0 3.922 4.162 3.51 3.51 0 0 0 2.817-1.392v1.232h1.376v-8h-1.376v1.227a3.51 3.51 0 0 0-2.817-1.392 4.005 4.005 0 0 0-3.918 4.161zm6.851 0a2.734 2.734 0 1 1-2.721-2.9 2.733 2.733 0 0 1 2.725 2.898zm9.839 1.777c0-1.2-.752-1.969-2.112-2.417l-.865-.288c-.944-.3-1.232-.608-1.232-1.12a1.132 1.132 0 0 1 1.344-.929 2.161 2.161 0 0 1 1.7.833l.9-.865a3.1 3.1 0 0 0-2.561-1.152c-1.584 0-2.705.88-2.705 2.177a2.416 2.416 0 0 0 1.985 2.321l.784.256c1.041.336 1.425.72 1.425 1.28a1.218 1.218 0 0 1-1.409 1.089 2.15 2.15 0 0 1-2.049-1.265l-1.12.608a3.178 3.178 0 0 0 3.137 1.857c1.614-.002 2.782-.818 2.782-2.387zm6.846-1.777a4 4 0 0 0 3.921 4.162 3.509 3.509 0 0 0 2.817-1.392v1.232h1.377v-8h-1.377v1.227a3.509 3.509 0 0 0-2.817-1.392 4 4 0 0 0-3.917 4.161zm6.85 0a2.734 2.734 0 1 1-2.721-2.9 2.733 2.733 0 0 1 2.725 2.898zm4.654 4h1.376v-12h-1.376v12zm4.784 0h1.376V114.9c0-1.872 1.105-2.753 2.113-2.753a2.011 2.011 0 0 1 .752.128v-1.424a2.851 2.851 0 0 0-.624-.064 2.381 2.381 0 0 0-2.241 1.632v-1.552h-1.376v8zm5.744-4a4.219 4.219 0 0 0 7.747 2.257l-1.089-.752a2.833 2.833 0 0 1-5.266-1.232h6.563a3.922 3.922 0 0 0 .016-.417 3.729 3.729 0 0 0-3.81-4.017 4.055 4.055 0 0 0-4.157 4.159zm4.113-2.945a2.4 2.4 0 0 1 2.449 2.1H507.4a2.617 2.617 0 0 1 2.62-2.102zm5.984 2.943a4.005 4.005 0 0 0 3.922 4.162 3.51 3.51 0 0 0 2.817-1.392v1.232h1.377v-8h-1.377v1.229a3.51 3.51 0 0 0-2.817-1.392 4.005 4.005 0 0 0-3.922 4.161zm6.851 0a2.734 2.734 0 1 1-2.721-2.9 2.733 2.733 0 0 1 2.723 2.9zm4.029 0a4.005 4.005 0 0 0 3.922 4.162 3.51 3.51 0 0 0 2.817-1.392v1.232H535v-12h-1.377v5.229a3.51 3.51 0 0 0-2.817-1.392 4.005 4.005 0 0 0-3.924 4.161zm6.851 0a2.734 2.734 0 1 1-2.721-2.9 2.733 2.733 0 0 1 2.723 2.9zm6.782 7.347l5.25-11.348h-1.536l-2.737 6.066-2.754-6.066h-1.52l3.5 7.587-1.744 3.761h1.536zm11.775 0h1.377v-4.577a3.509 3.509 0 0 0 2.817 1.392 4.169 4.169 0 0 0 0-8.323 3.509 3.509 0 0 0-2.817 1.392v-1.232h-1.375v11.348zm6.712-7.347a2.726 2.726 0 1 1-2.721-2.9 2.733 2.733 0 0 1 2.721 2.9zm3.565 0a4.219 4.219 0 0 0 7.747 2.257l-1.088-.752a2.833 2.833 0 0 1-5.266-1.232h6.562a3.922 3.922 0 0 0 .016-.417 3.728 3.728 0 0 0-3.809-4.017 4.056 4.056 0 0 0-4.165 4.161zm4.114-2.945a2.4 2.4 0 0 1 2.449 2.1h-5.074a2.616 2.616 0 0 1 2.622-2.1zm6.606 6.947h1.377V114.9c0-1.872 1.1-2.753 2.113-2.753a2.011 2.011 0 0 1 .752.128v-1.424a2.851 2.851 0 0 0-.624-.064 2.38 2.38 0 0 0-2.241 1.632v-1.552h-1.377v8zm7.328 0h1.377v-6.739h2.321v-1.264h-2.321V109.4a1.152 1.152 0 0 1 1.328-1.36 3.223 3.223 0 0 1 .993.16v-1.217a3.638 3.638 0 0 0-1.249-.208 2.286 2.286 0 0 0-2.449 2.481v1.617h-1.7v1.264h1.7v6.739zm5.168-4a4.219 4.219 0 0 0 7.747 2.257l-1.088-.752a2.834 2.834 0 0 1-5.267-1.232h6.563a3.922 3.922 0 0 0 .016-.417 3.729 3.729 0 0 0-3.809-4.017 4.056 4.056 0 0 0-4.165 4.159zm4.114-2.945a2.4 2.4 0 0 1 2.449 2.1h-5.074a2.616 2.616 0 0 1 2.622-2.102zm13.873 4.962l-1.2-.672a2.713 2.713 0 0 1-2.5 1.537 2.883 2.883 0 0 1 0-5.763 2.713 2.713 0 0 1 2.5 1.537l1.2-.672a4.144 4.144 0 0 0-3.7-2.145 4.162 4.162 0 1 0 0 8.323 4.144 4.144 0 0 0 3.697-2.147zm6.911 1.873v-1.232a3.052 3.052 0 0 1-.977.16 1.153 1.153 0 0 1-1.328-1.361v-4.194h2.305v-1.264h-2.305v-2.225h-1.377v2.225h-1.7v1.264h1.7v4.37a2.252 2.252 0 0 0 2.449 2.449 3.84 3.84 0 0 0 1.23-.194zm9.054-11.012a.966.966 0 0 0-.96-.977.994.994 0 0 0-.992.977.983.983 0 0 0 .992.976.956.956 0 0 0 .957-.978zm-.288 3.121h-1.376v8.9a1.13 1.13 0 0 1-1.233 1.361 3.508 3.508 0 0 1-.464-.032v1.232a3.95 3.95 0 0 0 .656.049 2.244 2.244 0 0 0 2.417-2.449v-9.06zm3.295 4.914c0 1.985 1.185 3.249 2.946 3.249a2.755 2.755 0 0 0 2.465-1.392v1.232h1.376v-8h-1.376v3.969c0 1.841-.977 2.93-2.225 2.93-1.105 0-1.809-.849-1.809-2.193v-4.706h-1.377v4.914zm15.362.864c0-1.2-.752-1.969-2.112-2.417l-.865-.288c-.944-.3-1.232-.608-1.232-1.12a1.132 1.132 0 0 1 1.344-.929 2.16 2.16 0 0 1 1.7.833l.9-.865a3.1 3.1 0 0 0-2.561-1.152c-1.584 0-2.7.88-2.7 2.177a2.416 2.416 0 0 0 1.985 2.321l.784.256c1.041.336 1.425.72 1.425 1.28a1.218 1.218 0 0 1-1.409 1.089 2.15 2.15 0 0 1-2.049-1.265l-1.12.608a3.178 3.178 0 0 0 3.137 1.857c1.602-.002 2.771-.818 2.771-2.387zm7.008 2.113v-1.232a3.041 3.041 0 0 1-.976.16 1.153 1.153 0 0 1-1.329-1.361v-4.194h2.3v-1.264h-2.3v-2.225h-1.377v2.225h-1.7v1.264h1.7v4.37a2.253 2.253 0 0 0 2.449 2.449 3.83 3.83 0 0 0 1.23-.194zm-610.136 20v-1.232a3.044 3.044 0 0 1-.976.16 1.153 1.153 0 0 1-1.328-1.361v-4.194h2.3v-1.264h-2.3v-2.225h-1.381v2.225h-1.7v1.264h1.7v4.37a2.253 2.253 0 0 0 2.449 2.449 3.831 3.831 0 0 0 1.233-.194zm2.558.112h1.377V134.9c0-1.872 1.024-2.929 2.321-2.929a1.921 1.921 0 0 1 1.889 2.177v4.722h1.361v-4.93a2.949 2.949 0 0 0-3.025-3.233 2.83 2.83 0 0 0-2.545 1.392v-5.234h-1.381v12.005zm9.6-4a4.219 4.219 0 0 0 7.747 2.257l-1.089-.752a2.833 2.833 0 0 1-5.266-1.232h6.563a3.922 3.922 0 0 0 .016-.417 3.729 3.729 0 0 0-3.81-4.017 4.056 4.056 0 0 0-4.164 4.157zm4.114-2.945a2.4 2.4 0 0 1 2.449 2.1h-5.078a2.617 2.617 0 0 1 2.625-2.104zm17.809 6.947h1.216l2.721-8h-1.46L69.6 136.71l-2-5.842h-1.062l-2 5.842-1.938-5.842h-1.44l2.721 8H65.1l1.985-5.762zm5.565-4a4.005 4.005 0 0 0 3.922 4.162 3.51 3.51 0 0 0 2.817-1.392v1.232h1.377v-8h-1.381v1.223a3.51 3.51 0 0 0-2.817-1.392 4 4 0 0 0-3.922 4.161zm6.851 0a2.734 2.734 0 1 1-2.721-2.9 2.733 2.733 0 0 1 2.717 2.894zm6.782 7.347l5.25-11.348h-1.54l-2.737 6.066-2.753-6.066h-1.521l3.505 7.587-1.745 3.761h1.537zm18.274-3.345h1.217l2.721-8H109l-1.937 5.842-2-5.842h-1.053l-2 5.842-1.936-5.842h-1.442l2.721 8h1.217l1.984-5.762zm5.565-4a4.219 4.219 0 0 0 7.747 2.257l-1.088-.752a2.834 2.834 0 0 1-5.267-1.232h6.563a3.922 3.922 0 0 0 .016-.417 3.729 3.729 0 0 0-3.809-4.017 4.056 4.056 0 0 0-4.166 4.153zm4.114-2.945a2.4 2.4 0 0 1 2.449 2.1h-5.074a2.616 2.616 0 0 1 2.619-2.108zm11.31 6.947h1.376V134.9c0-1.808.913-2.929 2.209-2.929 1.041 0 1.569.9 1.569 2.193v4.706h1.377v-3.97c0-1.808.9-2.929 2.192-2.929 1.041 0 1.585.9 1.585 2.193v4.706h1.376v-4.914c0-1.953-1.057-3.249-2.8-3.249a2.771 2.771 0 0 0-2.625 1.712 2.515 2.515 0 0 0-2.465-1.712 2.692 2.692 0 0 0-2.417 1.392v-1.232h-1.376v8zm14.336-4a4 4 0 0 0 3.921 4.162 3.509 3.509 0 0 0 2.817-1.392v1.232h1.377v-8h-1.377v1.219a3.509 3.509 0 0 0-2.817-1.392 4 4 0 0 0-3.925 4.161zm6.85 0a2.734 2.734 0 1 1-2.721-2.9 2.733 2.733 0 0 1 2.719 2.89zm4.029 0a4.005 4.005 0 0 0 3.922 4.162 3.51 3.51 0 0 0 2.817-1.392v1.232h1.377v-12.015h-1.377v5.234a3.51 3.51 0 0 0-2.817-1.392 4.005 4.005 0 0 0-3.926 4.161zm6.851 0a2.734 2.734 0 1 1-2.721-2.9 2.733 2.733 0 0 1 2.717 2.89zm4.029 0a4.219 4.219 0 0 0 7.747 2.257l-1.088-.752a2.833 2.833 0 0 1-5.27-1.242h6.562a3.922 3.922 0 0 0 .016-.417 3.728 3.728 0 0 0-3.809-4.017 4.056 4.056 0 0 0-4.162 4.161zm4.114-2.945a2.4 2.4 0 0 1 2.449 2.1H165.1a2.616 2.616 0 0 1 2.621-2.11zm12.975-4.177a.967.967 0 0 0-.961-.977.994.994 0 0 0-.992.977.983.983 0 0 0 .992.976.957.957 0 0 0 .961-.986zm-1.665 11.124h1.377v-8h-1.377v8zm9.122-.112v-1.232a3.043 3.043 0 0 1-.977.16 1.153 1.153 0 0 1-1.328-1.361v-4.194h2.3v-1.264h-2.3v-2.225h-1.377v2.225h-1.7v1.264h1.7v4.37a2.253 2.253 0 0 0 2.449 2.449 3.83 3.83 0 0 0 1.229-.202zm8.926-11.012a.966.966 0 0 0-.96-.977.994.994 0 0 0-.992.977.983.983 0 0 0 .992.976.956.956 0 0 0 .956-.986zm-1.664 11.124h1.376v-8h-1.376v8zm4.784 0h1.376V134.9c0-1.872 1.025-2.929 2.321-2.929a1.921 1.921 0 0 1 1.889 2.177v4.722h1.361v-4.93a2.95 2.95 0 0 0-3.026-3.233 2.831 2.831 0 0 0-2.545 1.392v-1.232H200.2v8zm15.92 0h1.377v-11.374h-2.449l-1.12 1.36h2.193v10zm4.863 0h1.761l4.162-4.914a4.366 4.366 0 0 0 1.28-2.9 3.85 3.85 0 0 0-7.7.048 3.671 3.671 0 0 0 3.553 3.649 2.044 2.044 0 0 0 .449-.032zm.913-7.779a2.441 2.441 0 1 1 2.433 2.449 2.415 2.415 0 0 1-2.432-2.459zm8.815 7.779h1.761l4.162-4.914a4.366 4.366 0 0 0 1.28-2.9 3.85 3.85 0 0 0-7.7.048 3.671 3.671 0 0 0 3.553 3.649 2.044 2.044 0 0 0 .449-.032zm.913-7.779a2.441 2.441 0 1 1 2.433 2.449 2.415 2.415 0 0 1-2.437-2.459zm16.018 4.37a3.174 3.174 0 0 0-1.777-2.977 2.661 2.661 0 0 0 1.153-2.241 2.95 2.95 0 0 0-3.185-2.93 2.992 2.992 0 0 0-3.2 2.93 2.65 2.65 0 0 0 1.185 2.241 3.174 3.174 0 0 0-1.809 2.977 3.826 3.826 0 0 0 7.629-.01zm-5.65-5.186a1.692 1.692 0 0 1 1.841-1.665 1.66 1.66 0 0 1 1.824 1.665 1.7 1.7 0 0 1-1.824 1.68 1.731 1.731 0 0 1-1.845-1.69zm-.592 5.186a2.256 2.256 0 0 1 2.433-2.273 2.27 2.27 0 1 1 0 4.53 2.262 2.262 0 0 1-2.436-2.267zm8.831-.384h8.083V133.7h-8.087v1.377zm10.592-.209a4.219 4.219 0 0 0 7.747 2.257l-1.088-.752a2.834 2.834 0 0 1-5.267-1.232h6.563a3.922 3.922 0 0 0 .016-.417 3.729 3.729 0 0 0-3.809-4.017 4.056 4.056 0 0 0-4.166 4.151zm4.114-2.945a2.4 2.4 0 0 1 2.449 2.1h-5.074a2.616 2.616 0 0 1 2.621-2.11zm5.118 6.947h1.712l2.433-3.025 2.433 3.025h1.7l-3.265-4.05 3.009-3.953h-1.681l-2.193 2.881-2.208-2.881h-1.665l3.009 3.953zm17.443-1.985l-1.2-.672a2.714 2.714 0 0 1-2.5 1.537 2.883 2.883 0 0 1 0-5.763 2.714 2.714 0 0 1 2.5 1.537l1.2-.672a4.143 4.143 0 0 0-3.7-2.145 4.162 4.162 0 1 0 0 8.323 4.143 4.143 0 0 0 3.699-2.155zm1.949-2.017a4.219 4.219 0 0 0 7.747 2.257l-1.089-.752a2.833 2.833 0 0 1-5.266-1.232h6.558a3.922 3.922 0 0 0 .016-.417 3.729 3.729 0 0 0-3.81-4.017 4.055 4.055 0 0 0-4.16 4.151zm4.113-2.945a2.4 2.4 0 0 1 2.449 2.1h-5.074a2.618 2.618 0 0 1 2.621-2.11zm6.607 10.292h1.377v-4.577a3.509 3.509 0 0 0 2.817 1.392 4.169 4.169 0 0 0 0-8.323 3.509 3.509 0 0 0-2.817 1.392v-1.232h-1.377v11.348zm6.707-7.347a2.727 2.727 0 1 1-2.721-2.9 2.733 2.733 0 0 1 2.717 2.89zm8.383 3.89v-1.232a3.043 3.043 0 0 1-.977.16 1.153 1.153 0 0 1-1.328-1.361v-4.194h2.3v-1.264h-2.3v-2.225h-1.377v2.225h-1.7v1.264h1.7v4.37a2.253 2.253 0 0 0 2.449 2.449 3.83 3.83 0 0 0 1.229-.202zm11.328 0v-1.232a3.048 3.048 0 0 1-.977.16 1.153 1.153 0 0 1-1.328-1.361v-4.194h2.305v-1.264h-2.305v-2.225H322.9v2.225h-1.7v1.264h1.7v4.37a2.253 2.253 0 0 0 2.449 2.449 3.84 3.84 0 0 0 1.235-.202zm2.558.112h1.376V134.9c0-1.872 1.025-2.929 2.321-2.929a1.921 1.921 0 0 1 1.889 2.177v4.722h1.361v-4.93a2.95 2.95 0 0 0-3.026-3.233 2.832 2.832 0 0 0-2.545 1.392v-5.234h-1.376v12.005zm11.888-11.124a.966.966 0 0 0-.96-.977.994.994 0 0 0-.992.977.983.983 0 0 0 .992.976.956.956 0 0 0 .956-.986zm-1.664 11.124h1.376v-8h-1.376v8zm9.97-2.225c0-1.2-.753-1.969-2.113-2.417l-.865-.288c-.944-.3-1.232-.608-1.232-1.12a1.132 1.132 0 0 1 1.344-.929 2.16 2.16 0 0 1 1.7.833l.9-.865a3.1 3.1 0 0 0-2.561-1.152c-1.584 0-2.7.88-2.7 2.177a2.417 2.417 0 0 0 1.985 2.321l.784.256c1.041.336 1.425.72 1.425 1.28a1.218 1.218 0 0 1-1.409 1.089 2.148 2.148 0 0 1-2.048-1.265l-1.121.608a3.178 3.178 0 0 0 3.137 1.857c1.601-.01 2.77-.826 2.77-2.395zm11.535 2.113v-1.232a3.041 3.041 0 0 1-.976.16 1.153 1.153 0 0 1-1.329-1.361v-4.194h2.305v-1.264h-2.305v-2.225h-1.377v2.225h-1.7v1.264h1.7v4.37a2.253 2.253 0 0 0 2.449 2.449 3.83 3.83 0 0 0 1.229-.202zm4.223-11.012a.967.967 0 0 0-.961-.977.994.994 0 0 0-.992.977.983.983 0 0 0 .992.976.957.957 0 0 0 .957-.986zm-1.665 11.124h1.377v-8h-1.377v8zm4.784 0h1.377V134.9c0-1.808.912-2.929 2.208-2.929 1.041 0 1.569.9 1.569 2.193v4.706h1.377v-3.97c0-1.808.9-2.929 2.193-2.929 1.04 0 1.584.9 1.584 2.193v4.706h1.375v-4.914c0-1.953-1.057-3.249-2.8-3.249a2.769 2.769 0 0 0-2.625 1.712 2.517 2.517 0 0 0-2.465-1.712 2.689 2.689 0 0 0-2.417 1.392v-1.232h-1.377v8zm14.336-4a4.219 4.219 0 0 0 7.747 2.257l-1.089-.752a2.833 2.833 0 0 1-5.266-1.232h6.555a3.922 3.922 0 0 0 .016-.417 3.729 3.729 0 0 0-3.81-4.017 4.055 4.055 0 0 0-4.157 4.149zm4.113-2.945a2.4 2.4 0 0 1 2.449 2.1h-5.074a2.617 2.617 0 0 1 2.621-2.112zm8.32 6.595a1.368 1.368 0 0 0 .224-.72 1.185 1.185 0 1 0-2.369 0 1.191 1.191 0 0 0 .656 1.072l-1.072 2.289h.912zm9.551-10.772a.966.966 0 0 0-.96-.977.994.994 0 0 0-.992.977.983.983 0 0 0 .992.976.956.956 0 0 0 .956-.988zm-1.664 11.124h1.376v-8h-1.376v8zm9.121-.112v-1.232a3.041 3.041 0 0 1-.976.16 1.153 1.153 0 0 1-1.329-1.361v-4.194h2.305v-1.264h-2.305v-2.225h-1.376v2.225h-1.7v1.264h1.7v4.37a2.252 2.252 0 0 0 2.449 2.449 3.828 3.828 0 0 0 1.228-.204zm7.262.112h1.377V134.9c0-1.872 1.024-2.929 2.321-2.929a1.922 1.922 0 0 1 1.889 2.177v4.722h1.36v-4.93a2.949 2.949 0 0 0-3.025-3.233 2.829 2.829 0 0 0-2.545 1.392v-5.234h-1.377v12.005zm9.6-4a4 4 0 0 0 3.921 4.162 3.512 3.512 0 0 0 2.818-1.392v1.232h1.376v-8h-1.376v1.215a3.512 3.512 0 0 0-2.818-1.392 4 4 0 0 0-3.925 4.161zm6.851 0a2.734 2.734 0 1 1-2.722-2.9 2.734 2.734 0 0 1 2.715 2.886zm9.839 1.777c0-1.2-.752-1.969-2.113-2.417l-.864-.288c-.945-.3-1.233-.608-1.233-1.12a1.133 1.133 0 0 1 1.345-.929 2.163 2.163 0 0 1 1.7.833l.9-.865a3.1 3.1 0 0 0-2.561-1.152c-1.585 0-2.7.88-2.7 2.177a2.416 2.416 0 0 0 1.985 2.321l.784.256c1.04.336 1.424.72 1.424 1.28a1.218 1.218 0 0 1-1.408 1.089 2.149 2.149 0 0 1-2.049-1.265l-1.12.608a3.177 3.177 0 0 0 3.137 1.857c1.601-.014 2.769-.83 2.769-2.399zm12.656 0c0-1.2-.753-1.969-2.113-2.417l-.865-.288c-.944-.3-1.232-.608-1.232-1.12a1.133 1.133 0 0 1 1.345-.929 2.159 2.159 0 0 1 1.7.833l.9-.865a3.106 3.106 0 0 0-2.561-1.152c-1.585 0-2.706.88-2.706 2.177a2.417 2.417 0 0 0 1.985 2.321l.785.256c1.04.336 1.424.72 1.424 1.28a1.218 1.218 0 0 1-1.408 1.089 2.148 2.148 0 0 1-2.049-1.265l-1.121.608a3.179 3.179 0 0 0 3.138 1.857c1.605-.014 2.776-.83 2.776-2.399zm7.007 2.113v-1.232a3.041 3.041 0 0 1-.976.16 1.153 1.153 0 0 1-1.329-1.361v-4.194h2.305v-1.264H462.9v-2.225h-1.376v2.225h-1.7v1.264h1.7v4.37a2.252 2.252 0 0 0 2.449 2.449 3.828 3.828 0 0 0 1.232-.206zm2.558.112h1.377V134.9c0-1.872 1.1-2.753 2.113-2.753a2.011 2.011 0 0 1 .752.128v-1.424a2.851 2.851 0 0 0-.624-.064 2.381 2.381 0 0 0-2.241 1.632v-1.552h-1.377v8zm5.744-4a4.219 4.219 0 0 0 7.747 2.257l-1.088-.752a2.833 2.833 0 0 1-5.266-1.232h6.562a3.692 3.692 0 0 0 .017-.417 3.73 3.73 0 0 0-3.81-4.017 4.056 4.056 0 0 0-4.166 4.145zm4.114-2.945a2.4 2.4 0 0 1 2.449 2.1H475a2.616 2.616 0 0 1 2.621-2.116zm10.832 6.835v-1.232a3.041 3.041 0 0 1-.976.16 1.153 1.153 0 0 1-1.329-1.361v-4.194h2.3v-1.264h-2.3v-2.225h-1.376v2.225h-1.7v1.264h1.7v4.37a2.252 2.252 0 0 0 2.449 2.449 3.828 3.828 0 0 0 1.228-.208zm9.714-1.873l-1.2-.672a2.713 2.713 0 0 1-2.5 1.537 2.883 2.883 0 0 1 0-5.763 2.713 2.713 0 0 1 2.5 1.537l1.2-.672a4.145 4.145 0 0 0-3.7-2.145 4.162 4.162 0 1 0 0 8.323 4.145 4.145 0 0 0 3.696-2.161zm2.573 1.985h1.376V134.9c0-1.872 1.025-2.929 2.321-2.929a1.922 1.922 0 0 1 1.889 2.177v4.722h1.36v-4.93a2.949 2.949 0 0 0-3.025-3.233 2.831 2.831 0 0 0-2.545 1.392v-5.234h-1.38v12.005zm12.128-1.072a1.185 1.185 0 1 0-1.184 1.2 1.206 1.206 0 0 0 1.18-1.215z"/><g id="CTA_copy_7" data-name="CTA copy 7"><path id="Rectangle_4_copy_4" data-name="Rectangle 4 copy 4" d="M29 185.938h102V189H29z"/><path id="Shop_now" data-name="Shop now" class="cls-2" d="M33.347 180.177c2.255 0 3.8-1.378 3.818-3.352a3.346 3.346 0 0 0-2.54-3.245l-.752-.276c-1.127-.413-1.653-.673-1.653-1.255a1.1 1.1 0 0 1 1.293-.827 2.356 2.356 0 0 1 1.849.9l1.563-1.684a4.414 4.414 0 0 0-3.442-1.5c-2.135 0-3.683 1.24-3.683 3.352 0 1.485.962 2.541 2.691 3.138l.752.26c1.067.367 1.488.75 1.488 1.3a1.086 1.086 0 0 1-1.293.9 2.779 2.779 0 0 1-2.21-1.24l-1.834 1.577a4.653 4.653 0 0 0 3.953 1.952zm8.1-.184h2.39v-4.3h4.3v4.3h2.39v-10.868h-2.39v4.256h-4.3v-4.256h-2.39v10.868zm18.883.184a5.618 5.618 0 1 0-5.517-5.618 5.582 5.582 0 0 0 5.522 5.618zm0-2.357a3.265 3.265 0 1 1 3.1-3.261 3.2 3.2 0 0 1-3.095 3.261zm17.185-4.975a3.667 3.667 0 0 0-3.758-3.72h-3.618v10.868h2.39v-3.444h1.233a3.654 3.654 0 0 0 3.758-3.704zm-2.315 0a1.416 1.416 0 0 1-1.473 1.423h-1.2v-2.847h1.2a1.408 1.408 0 0 1 1.473 1.424zm21.649 7.148v-10.868h-2.4v6.705l-5.186-6.705H87.2v10.868h2.39v-6.719l5.2 6.719h2.059zm9.8.184a5.618 5.618 0 1 0-5.516-5.618 5.581 5.581 0 0 0 5.525 5.618zm0-2.357a3.265 3.265 0 1 1 3.1-3.261 3.2 3.2 0 0 1-3.091 3.261zm18.072 2.173H127l2.48-10.868h-2.556l-1.458 6.888-3.006-7.071-2.991 7.071-1.458-6.888h-2.556l2.465 10.868h2.27l2.27-5.327z"/></g></svg>