<svg id="Copy_copy_15" data-name="Copy copy 15" xmlns="http://www.w3.org/2000/svg" width="720" height="200"><defs><style>.cls-2{fill-rule:evenodd}</style></defs><path id="Rectangle_96_copy_5" data-name="Rectangle 96 copy 5" fill="#fff" d="M0 0h720v200H0z"/><path id="REVERSIBLE_MELTON_WOOL_COAT_" data-name="REVERSIBLE MELTON WOOL COAT" class="cls-2" d="M29.586 50.871h4.77v-8.79h.78l7.08 8.79h5.73l-7.53-9.39c2.7-.96 4.17-2.73 4.17-5.49a6.288 6.288 0 0 0-6.6-6.42h-8.4v21.3zm4.77-12.84v-4.08h3.06c1.41 0 2.43.75 2.43 2.04a2.156 2.156 0 0 1-2.43 2.04h-3.06zm16.59 12.84h13.5v-4.56h-8.73V42.5h6.93v-4.56h-6.93v-3.81h8.73v-4.56h-13.5v21.3zm25.14 0h4.29l8.73-21.3h-5.25l-5.64 14.189-5.67-14.189h-5.19zm16.8 0h13.5v-4.56h-8.73V42.5h6.929v-4.56h-6.929v-3.81h8.73v-4.56h-13.5v21.3zm18.63 0h4.769v-8.79h.78l7.08 8.79h5.73l-7.53-9.39c2.7-.96 4.17-2.73 4.17-5.49a6.288 6.288 0 0 0-6.6-6.42h-8.4v21.3zm4.769-12.84v-4.08h3.06c1.41 0 2.43.75 2.43 2.04a2.156 2.156 0 0 1-2.43 2.04h-3.06zm22.95 13.2c4.5 0 7.59-2.7 7.62-6.57.03-3.21-1.98-5.25-5.07-6.36l-1.5-.54c-2.25-.81-3.3-1.32-3.3-2.46 0-1.11 1.29-1.62 2.58-1.62a4.738 4.738 0 0 1 3.69 1.77l3.12-3.3a8.888 8.888 0 0 0-6.87-2.94c-4.26 0-7.35 2.43-7.35 6.57 0 2.91 1.92 4.98 5.37 6.15l1.5.51c2.13.72 2.97 1.47 2.97 2.55 0 1.02-.99 1.77-2.58 1.77a5.573 5.573 0 0 1-4.41-2.43l-3.66 3.09a9.34 9.34 0 0 0 7.89 3.81zm12.42-.36h4.77v-21.3h-4.77v21.3zm10.77 0h9.359a6.3 6.3 0 0 0 6.48-6.27 5.566 5.566 0 0 0-3.03-5.04 5.013 5.013 0 0 0 1.53-3.66 6.331 6.331 0 0 0-6.33-6.33h-8.009v21.3zm4.769-12.689v-4.26h2.7a2.165 2.165 0 0 1 2.22 2.16 2.135 2.135 0 0 1-2.22 2.1h-2.7zm0 8.31v-4.26h4.17a2.167 2.167 0 0 1 2.25 2.13 2.141 2.141 0 0 1-2.22 2.13h-4.2zm15.781 4.38h13.589v-4.56h-8.82v-16.74h-4.769v21.3zm18.059 0h13.5v-4.56H205.8V42.5h6.93v-4.56h-6.93v-3.81h8.73v-4.56h-13.5v21.3zm37.739-4.53l6.21-8.61v13.139h4.8v-21.3h-4.35l-6.66 9.18-6.66-9.18h-4.349v21.3h4.769V37.732zm17.01 4.53h13.5v-4.56h-8.73V42.5h6.93v-4.56h-6.93v-3.81h8.73v-4.56h-13.5v21.3zm18.63 0H288v-4.56h-8.82v-16.74h-4.77v21.3zm19.02 0h4.8v-16.74h5.489v-4.56H288v4.56h5.43v16.739zm23.7.36a11.01 11.01 0 1 0-11.01-11.01 11.036 11.036 0 0 0 11.01 11.009zm0-4.62a6.393 6.393 0 1 1 6.179-6.39 6.32 6.32 0 0 1-6.179 6.389zm35.069 4.26v-21.3h-4.8v13.139l-10.35-13.139h-4.109v21.3h4.769V37.7l10.38 13.17h4.11zm30.33 0h4.529l4.95-21.3h-5.1L384 43.071l-6-13.859-5.97 13.859-2.91-13.5h-5.1l4.92 21.3h4.53L378 40.432zm23.25.36a11.01 11.01 0 1 0-11.01-11.01 11.035 11.035 0 0 0 11.01 11.009zm0-4.62a6.393 6.393 0 1 1 6.18-6.39 6.32 6.32 0 0 1-6.18 6.389zm25.619 4.62a11.01 11.01 0 1 0-11.009-11.01A11.036 11.036 0 0 0 431.4 51.231zm0-4.62a6.393 6.393 0 1 1 6.18-6.39 6.319 6.319 0 0 1-6.181 6.389zm15.81 4.26H460.8v-4.56h-8.82v-16.74h-4.77v21.3zm35.159.36a11.01 11.01 0 0 0 9.96-5.82l-4.2-2.28a6.39 6.39 0 1 1 0-5.82l4.2-2.28a11.1 11.1 0 1 0-9.96 16.199zm24.06 0a11.01 11.01 0 1 0-11.009-11.01 11.036 11.036 0 0 0 11.009 11.009zm0-4.62a6.393 6.393 0 1 1 6.18-6.39 6.319 6.319 0 0 1-6.18 6.389zM519 50.871h4.979l1.89-4.5h8.82l1.89 4.5h4.98l-9.12-21.3h-4.32zm8.609-8.64l2.67-6.42 2.67 6.42h-5.34zm19.38 8.64h4.8V34.132h5.49v-4.56h-15.718v4.56h5.429v16.739z"/><g id="CTA_copy_8" data-name="CTA copy 8"><path id="Rectangle_4_copy_4" data-name="Rectangle 4 copy 4" d="M27 97.938h102v3.063H27z"/><path id="Shop_now" data-name="Shop now" class="cls-2" d="M31.347 92.177c2.255 0 3.8-1.378 3.818-3.352a3.347 3.347 0 0 0-2.54-3.245l-.752-.28c-1.127-.413-1.654-.674-1.654-1.255a1.1 1.1 0 0 1 1.293-.827 2.358 2.358 0 0 1 1.849.9l1.563-1.684a4.415 4.415 0 0 0-3.442-1.5c-2.134 0-3.683 1.24-3.683 3.352 0 1.485.962 2.541 2.691 3.138l.752.26c1.067.367 1.488.75 1.488 1.3a1.086 1.086 0 0 1-1.293.9 2.78 2.78 0 0 1-2.21-1.24l-1.834 1.576a4.651 4.651 0 0 0 3.954 1.957zm8.1-.184h2.39v-4.3h4.3v4.3h2.39V81.125h-2.39v4.255h-4.3v-4.255h-2.39v10.868zm18.883.184a5.618 5.618 0 1 0-5.517-5.618 5.581 5.581 0 0 0 5.522 5.618zm0-2.357a3.265 3.265 0 1 1 3.1-3.26 3.2 3.2 0 0 1-3.095 3.26zm17.19-4.975a3.667 3.667 0 0 0-3.758-3.719h-3.623v10.867h2.39v-3.444h1.233a3.654 3.654 0 0 0 3.758-3.704zm-2.315 0a1.416 1.416 0 0 1-1.473 1.424h-1.2v-2.848h1.2a1.407 1.407 0 0 1 1.468 1.424zm21.649 7.148V81.125h-2.405v6.7l-5.186-6.7H85.2v10.868h2.39v-6.72l5.2 6.72h2.059zm9.8.184a5.618 5.618 0 1 0-5.516-5.618 5.581 5.581 0 0 0 5.52 5.618zm0-2.357a3.265 3.265 0 1 1 3.1-3.26 3.2 3.2 0 0 1-3.096 3.26zm18.072 2.174H125l2.48-10.868h-2.556l-1.458 6.888-3.006-7.072-2.991 7.072-1.458-6.888h-2.556l2.465 10.868h2.27l2.27-5.327z"/></g></svg>