<svg id="Copy_copy_16" data-name="Copy copy 16" xmlns="http://www.w3.org/2000/svg" width="720" height="287"><defs><style>.cls-2{fill-rule:evenodd}</style></defs><path id="Rectangle_106_copy_17" data-name="Rectangle 106 copy 17" fill="#fff" d="M0 0h720v287H0z"/><path id="SUEDE_CLASSIC_TRENCH_COAT_Suede_b._1980_Our_first_trench_app" data-name="SUEDE CLASSIC TRENCH COAT Suede, b. 1980 Our first trench app" class="cls-2" d="M37.946 51.231c4.5 0 7.59-2.7 7.62-6.57.03-3.21-1.98-5.25-5.07-6.36l-1.5-.54c-2.25-.81-3.3-1.32-3.3-2.46 0-1.11 1.29-1.62 2.58-1.62a4.738 4.738 0 0 1 3.69 1.77l3.12-3.3a8.887 8.887 0 0 0-6.87-2.94c-4.26 0-7.35 2.43-7.35 6.57 0 2.91 1.92 4.98 5.37 6.15l1.5.51c2.13.72 2.97 1.47 2.97 2.55 0 1.02-.99 1.77-2.58 1.77a5.573 5.573 0 0 1-4.41-2.43l-3.66 3.09a9.34 9.34 0 0 0 7.89 3.81zm20.94 0a8.353 8.353 0 0 0 8.76-8.79V29.572h-4.77V42.5a3.992 3.992 0 1 1-7.98 0V29.572h-4.77v12.869a8.337 8.337 0 0 0 8.76 8.79zm14.52-.36h13.5v-4.56h-8.73V42.5h6.93v-4.56h-6.93v-3.81h8.73v-4.56h-13.5v21.3zm18.63 0H99.3a10.652 10.652 0 1 0 0-21.3h-7.26v21.3zm4.77-4.38V33.952H99.3a6.011 6.011 0 0 1 6.03 6.27 6.011 6.011 0 0 1-6.03 6.27h-2.49zm18.181 4.38h13.5v-4.56h-8.73V42.5h6.93v-4.56h-6.93v-3.81h8.73v-4.56h-13.5v21.3zm36.539.36a11.009 11.009 0 0 0 9.959-5.82l-4.2-2.28a6.39 6.39 0 1 1 0-5.82l4.2-2.28a11.1 11.1 0 1 0-9.96 16.2zm14.25-.36h13.59v-4.56h-8.82V29.572h-4.77v21.3zm15.78 0h4.98l1.889-4.5h8.82l1.89 4.5h4.98l-9.12-21.3h-4.32zm8.609-8.64l2.67-6.42 2.67 6.42h-5.34zm23.461 9c4.5 0 7.589-2.7 7.619-6.57.03-3.21-1.98-5.25-5.07-6.36l-1.5-.54c-2.249-.81-3.3-1.32-3.3-2.46 0-1.11 1.29-1.62 2.579-1.62a4.738 4.738 0 0 1 3.69 1.77l3.12-3.3a8.888 8.888 0 0 0-6.87-2.94c-4.259 0-7.349 2.43-7.349 6.57 0 2.91 1.92 4.98 5.37 6.15l1.5.51c2.129.72 2.969 1.47 2.969 2.55 0 1.02-.99 1.77-2.58 1.77a5.572 5.572 0 0 1-4.409-2.43l-3.66 3.09a9.34 9.34 0 0 0 7.89 3.81zm18.779 0c4.5 0 7.59-2.7 7.62-6.57.03-3.21-1.98-5.25-5.07-6.36l-1.5-.54c-2.25-.81-3.3-1.32-3.3-2.46 0-1.11 1.29-1.62 2.58-1.62a4.738 4.738 0 0 1 3.69 1.77l3.12-3.3a8.888 8.888 0 0 0-6.87-2.94c-4.26 0-7.35 2.43-7.35 6.57 0 2.91 1.92 4.98 5.37 6.15l1.5.51c2.13.72 2.97 1.47 2.97 2.55 0 1.02-.99 1.77-2.58 1.77a5.573 5.573 0 0 1-4.41-2.43l-3.66 3.09a9.34 9.34 0 0 0 7.885 3.81zm12.42-.36h4.77v-21.3h-4.77v21.3zm20.579.36a11.01 11.01 0 0 0 9.96-5.82l-4.2-2.28a6.39 6.39 0 1 1 0-5.82l4.2-2.28a11.1 11.1 0 1 0-9.964 16.2zm25.32-.36h4.8V34.132h5.49v-4.56h-15.72v4.56h5.429v16.739zm14.7 0h4.77v-8.79h.78l7.08 8.79h5.73l-7.53-9.39c2.7-.96 4.17-2.73 4.17-5.49a6.288 6.288 0 0 0-6.6-6.42h-8.4v21.3zm4.77-12.84v-4.08h3.06c1.41 0 2.43.75 2.43 2.04a2.156 2.156 0 0 1-2.43 2.04h-3.06zm16.59 12.84h13.5v-4.56h-8.729V42.5h6.93v-4.56h-6.93v-3.81h8.729v-4.56h-13.5v21.3zm37.889 0v-21.3h-4.8v13.14l-10.35-13.139h-4.11v21.3h4.77V37.7l10.379 13.17h4.11zm15.81.36a11.01 11.01 0 0 0 9.96-5.82l-4.2-2.28a6.39 6.39 0 1 1 0-5.82l4.2-2.28a11.1 11.1 0 1 0-9.961 16.2zm14.251-.36h4.77v-8.43h8.579v8.43h4.77v-21.3h-4.77v8.34H399.5v-8.34h-4.77v21.3zm42.029.36a11.007 11.007 0 0 0 9.959-5.82l-4.2-2.28a6.39 6.39 0 1 1 0-5.82l4.2-2.28a11.1 11.1 0 1 0-9.96 16.2zm24.06 0a11.01 11.01 0 1 0-11.01-11.01 11.035 11.035 0 0 0 11.009 11.01zm0-4.62a6.393 6.393 0 1 1 6.18-6.39 6.32 6.32 0 0 1-6.181 6.39zm12.57 4.26h4.98l1.89-4.5h8.819l1.89 4.5h4.98l-9.12-21.3h-4.319zm8.61-8.64l2.669-6.42 2.67 6.42H482zm19.38 8.64h4.8V34.132h5.489v-4.56h-15.72v4.56h5.43v16.739zM29.985 76.783a4.937 4.937 0 0 0 4.483 2.3c2.377 0 4.069-1.368 4.069-3.547 0-1.891-1.08-2.971-2.971-3.691l-1.549-.594c-1.3-.486-1.927-.972-1.927-2.053 0-1.062 1.044-1.764 2.3-1.764a3.164 3.164 0 0 1 2.539 1.26l1.224-1.08a4.663 4.663 0 0 0-3.727-1.746c-2.287 0-4 1.314-4 3.4 0 1.747.9 2.791 2.9 3.529l1.693.648a2.323 2.323 0 0 1 1.837 2.161c0 1.188-1.044 1.909-2.359 1.909a3.572 3.572 0 0 1-3.169-1.747zM41.5 75.4c0 2.233 1.332 3.655 3.313 3.655a3.1 3.1 0 0 0 2.773-1.566v1.386h1.548v-9h-1.543v4.465c0 2.071-1.1 3.3-2.5 3.3-1.242 0-2.035-.954-2.035-2.467v-5.305H41.5V75.4zm10.75-1.03a4.746 4.746 0 0 0 8.715 2.539l-1.224-.846a3.187 3.187 0 0 1-5.924-1.386H61.2a4.393 4.393 0 0 0 .018-.468 4.2 4.2 0 0 0-4.285-4.519 4.562 4.562 0 0 0-4.683 4.68zm4.627-3.313a2.693 2.693 0 0 1 2.755 2.359h-5.707a2.943 2.943 0 0 1 2.953-2.359zm6.73 3.313a4.5 4.5 0 0 0 4.411 4.681 3.948 3.948 0 0 0 3.169-1.566v1.386h1.548v-13.5h-1.546v5.888a3.948 3.948 0 0 0-3.169-1.566 4.5 4.5 0 0 0-4.412 4.677zm7.706 0a3.075 3.075 0 1 1-3.061-3.259 3.074 3.074 0 0 1 3.063 3.259zm4.534 0a4.746 4.746 0 0 0 8.715 2.539l-1.224-.846a3.187 3.187 0 0 1-5.924-1.386H84.8a4.393 4.393 0 0 0 .018-.468 4.2 4.2 0 0 0-4.285-4.519 4.562 4.562 0 0 0-4.685 4.68zm4.627-3.313a2.693 2.693 0 0 1 2.755 2.359h-5.706a2.943 2.943 0 0 1 2.953-2.359zm9.359 7.418a1.54 1.54 0 0 0 .252-.81 1.333 1.333 0 1 0-2.665 0 1.34 1.34 0 0 0 .738 1.206l-1.206 2.575h1.028zm10.421-.99a3.95 3.95 0 0 0 3.169 1.566 4.69 4.69 0 0 0 0-9.363 3.95 3.95 0 0 0-3.169 1.566v-5.887h-1.546v13.5h1.548v-1.382zm6-3.115a3.067 3.067 0 1 1-3.061-3.259 3.074 3.074 0 0 1 3.059 3.259zm6.658 3.295a1.332 1.332 0 1 0-1.332 1.35 1.356 1.356 0 0 0 1.33-1.35zm9.7 1.206h1.548V66.087h-2.754l-1.261 1.53h2.467v11.254zm5.472 0h1.98l4.682-5.528a4.911 4.911 0 0 0 1.44-3.259 4.332 4.332 0 0 0-8.661.054 4.131 4.131 0 0 0 4 4.105 2.294 2.294 0 0 0 .5-.036zm1.026-8.751a2.746 2.746 0 1 1 2.737 2.755 2.717 2.717 0 0 1-2.737-2.754zm18.02 4.915a3.571 3.571 0 0 0-2-3.349 2.992 2.992 0 0 0 1.3-2.521 3.318 3.318 0 0 0-3.583-3.3 3.364 3.364 0 0 0-3.6 3.3 2.981 2.981 0 0 0 1.332 2.521 3.573 3.573 0 0 0-2.035 3.349 4.3 4.3 0 0 0 8.586.001zm-6.356-5.835a1.9 1.9 0 0 1 2.071-1.873A1.867 1.867 0 0 1 144.9 69.2a1.91 1.91 0 0 1-2.052 1.891 1.948 1.948 0 0 1-2.074-1.891zm-.666 5.834a2.538 2.538 0 0 1 2.737-2.557 2.553 2.553 0 1 1 0 5.1 2.544 2.544 0 0 1-2.737-2.541zm18.9-.792v-3.563a4.537 4.537 0 1 0-9.057 0v3.565a4.537 4.537 0 1 0 9.059 0zm-7.508 0v-3.563c0-2.071 1.242-3.295 2.971-3.295 1.746 0 2.989 1.224 2.989 3.295v3.565c0 2.071-1.243 3.3-2.989 3.3-1.727-.005-2.971-1.23-2.971-3.3zM41.8 121.187a5.874 5.874 0 1 0-5.874 5.874 5.818 5.818 0 0 0 5.88-5.872zm-10.244 0a4.379 4.379 0 1 1 4.37 4.466 4.357 4.357 0 0 1-4.365-4.464zM44.5 123.78c0 1.985 1.184 3.249 2.945 3.249a2.754 2.754 0 0 0 2.465-1.392v1.232h1.377v-8h-1.372v3.969c0 1.841-.976 2.93-2.225 2.93-1.1 0-1.809-.849-1.809-2.193v-4.706h-1.376v4.914zm10.176 3.089h1.377V122.9c0-1.872 1.1-2.753 2.113-2.753a2.012 2.012 0 0 1 .752.128v-1.424a2.852 2.852 0 0 0-.624-.064 2.381 2.381 0 0 0-2.241 1.632v-1.552h-1.372v8zm11.424 0h1.377v-6.739H69.8v-1.264h-2.318V117.4a1.152 1.152 0 0 1 1.329-1.36 3.225 3.225 0 0 1 .992.16v-1.217a3.639 3.639 0 0 0-1.248-.208 2.286 2.286 0 0 0-2.449 2.481v1.617h-1.7v1.264h1.7v6.739zm6.867-11.124a.967.967 0 0 0-.96-.977.994.994 0 0 0-.992.977.984.984 0 0 0 .992.976.957.957 0 0 0 .965-.974zm-1.665 11.124h1.377v-8h-1.371v8zm4.765 0h1.383V122.9c0-1.872 1.1-2.753 2.113-2.753a2.013 2.013 0 0 1 .752.128v-1.424a2.854 2.854 0 0 0-.624-.064 2.381 2.381 0 0 0-2.241 1.632v-1.552h-1.377v8zm11.7-2.225c0-1.2-.752-1.969-2.113-2.417l-.864-.288c-.944-.3-1.233-.608-1.233-1.12a1.133 1.133 0 0 1 1.345-.929 2.161 2.161 0 0 1 1.7.833l.9-.865a3.1 3.1 0 0 0-2.561-1.152c-1.585 0-2.705.88-2.705 2.177a2.416 2.416 0 0 0 1.985 2.321l.779.258c1.04.336 1.425.72 1.425 1.28a1.218 1.218 0 0 1-1.409 1.089 2.149 2.149 0 0 1-2.049-1.265l-1.121.608a3.178 3.178 0 0 0 3.137 1.857c1.617 0 2.788-.816 2.788-2.385zm7.008 2.113v-1.232a3.044 3.044 0 0 1-.976.16 1.153 1.153 0 0 1-1.329-1.361v-4.194h2.3v-1.264h-2.3v-2.225H91.1v2.225h-1.7v1.264h1.7v4.37a2.253 2.253 0 0 0 2.449 2.449 3.831 3.831 0 0 0 1.23-.19zm11.328 0v-1.232a3.052 3.052 0 0 1-.977.16 1.153 1.153 0 0 1-1.328-1.361v-4.194h2.3v-1.264h-2.3v-2.225h-1.377v2.225h-1.7v1.264h1.7v4.37a2.253 2.253 0 0 0 2.449 2.449 3.84 3.84 0 0 0 1.237-.19zm2.558.112h1.376V122.9c0-1.872 1.105-2.753 2.113-2.753a2.011 2.011 0 0 1 .752.128v-1.424a2.851 2.851 0 0 0-.624-.064 2.381 2.381 0 0 0-2.241 1.632v-1.552h-1.376v8zm5.744-4a4.219 4.219 0 0 0 7.747 2.257l-1.089-.752a2.833 2.833 0 0 1-5.266-1.232h6.563a3.922 3.922 0 0 0 .016-.417 3.729 3.729 0 0 0-3.81-4.017 4.055 4.055 0 0 0-4.157 4.161zm4.113-2.945a2.4 2.4 0 0 1 2.449 2.1H115.9a2.617 2.617 0 0 1 2.622-2.1zm6.607 6.947h1.376V122.9c0-1.872 1.025-2.929 2.321-2.929a1.921 1.921 0 0 1 1.889 2.177v4.722h1.361v-4.93a2.95 2.95 0 0 0-3.026-3.233 2.832 2.832 0 0 0-2.545 1.392v-1.232h-1.376v8zm17.491-1.985l-1.2-.672a2.713 2.713 0 0 1-2.5 1.537 2.883 2.883 0 0 1 0-5.763 2.713 2.713 0 0 1 2.5 1.537l1.2-.672a4.145 4.145 0 0 0-3.7-2.145 4.162 4.162 0 1 0 0 8.323 4.145 4.145 0 0 0 3.704-2.145zm2.572 1.985h1.377V122.9c0-1.872 1.024-2.929 2.321-2.929a1.922 1.922 0 0 1 1.889 2.177v4.722h1.36v-4.93a2.949 2.949 0 0 0-3.025-3.233 2.831 2.831 0 0 0-2.545 1.392v-5.234h-1.377v12zm14.3-4a4 4 0 0 0 3.921 4.162 3.512 3.512 0 0 0 2.818-1.392v1.232h1.376v-8h-1.376v1.227a3.512 3.512 0 0 0-2.818-1.392 4 4 0 0 0-3.909 4.161zm6.851 0a2.734 2.734 0 1 1-2.722-2.9 2.734 2.734 0 0 1 2.73 2.898zm4.661 7.345h1.376v-4.577a3.512 3.512 0 0 0 2.818 1.392 4.169 4.169 0 0 0 0-8.323 3.512 3.512 0 0 0-2.818 1.392v-1.232H171v11.348zm6.707-7.347a2.727 2.727 0 1 1-2.722-2.9 2.734 2.734 0 0 1 2.722 2.9zm4.189 7.347h1.376v-4.577a3.512 3.512 0 0 0 2.818 1.392 4.169 4.169 0 0 0 0-8.323 3.512 3.512 0 0 0-2.818 1.392v-1.232H181.9v11.348zm6.707-7.347a2.727 2.727 0 1 1-2.722-2.9 2.734 2.734 0 0 1 2.719 2.9zm3.565 0a4.219 4.219 0 0 0 7.747 2.257l-1.089-.752a2.833 2.833 0 0 1-5.266-1.232h6.563a3.922 3.922 0 0 0 .016-.417 3.729 3.729 0 0 0-3.81-4.017 4.055 4.055 0 0 0-4.161 4.161zm4.113-2.945a2.4 2.4 0 0 1 2.449 2.1h-5.074a2.617 2.617 0 0 1 2.625-2.1zm5.982 2.945a4.005 4.005 0 0 0 3.922 4.162 3.51 3.51 0 0 0 2.815-1.392v1.232h1.377v-8H209v1.229a3.51 3.51 0 0 0-2.817-1.392 4.005 4.005 0 0 0-3.92 4.161zm6.851 0a2.734 2.734 0 1 1-2.721-2.9 2.733 2.733 0 0 1 2.721 2.9zm4.654 4h1.376V122.9c0-1.872 1.1-2.753 2.113-2.753a2.011 2.011 0 0 1 .752.128v-1.424a2.851 2.851 0 0 0-.624-.064 2.381 2.381 0 0 0-2.241 1.632v-1.552h-1.376v8zm5.743-4a4.22 4.22 0 0 0 7.748 2.257l-1.089-.752a2.833 2.833 0 0 1-5.266-1.232h6.563a3.922 3.922 0 0 0 .016-.417 3.729 3.729 0 0 0-3.81-4.017 4.056 4.056 0 0 0-4.162 4.161zm4.114-2.945a2.4 2.4 0 0 1 2.449 2.1H221a2.617 2.617 0 0 1 2.625-2.1zm5.982 2.945a4.005 4.005 0 0 0 3.922 4.162 3.51 3.51 0 0 0 2.817-1.392v1.232h1.377v-12h-1.377v5.229a3.51 3.51 0 0 0-2.817-1.392 4.005 4.005 0 0 0-3.922 4.161zm6.851 0a2.734 2.734 0 1 1-2.721-2.9 2.733 2.733 0 0 1 2.721 2.9zm11.022-7.122a.967.967 0 0 0-.961-.977.994.994 0 0 0-.992.977.983.983 0 0 0 .992.976.957.957 0 0 0 .961-.976zm-1.665 11.124h1.377v-8h-1.377v8zm4.784 0h1.377V122.9c0-1.872 1.024-2.929 2.321-2.929a1.921 1.921 0 0 1 1.888 2.177v4.722h1.361v-4.93a2.949 2.949 0 0 0-3.025-3.233 2.829 2.829 0 0 0-2.545 1.392v-1.232H250.6v8zm18.993-.112v-1.232a3.041 3.041 0 0 1-.976.16 1.153 1.153 0 0 1-1.328-1.361v-4.194h2.3v-1.264h-2.3v-2.225h-1.377v2.225h-1.7v1.264h1.7v4.37a2.252 2.252 0 0 0 2.449 2.449 3.828 3.828 0 0 0 1.232-.192zm2.559.112h1.376V122.9c0-1.872 1.025-2.929 2.321-2.929a1.921 1.921 0 0 1 1.889 2.177v4.722h1.36v-4.93a2.949 2.949 0 0 0-3.025-3.233 2.831 2.831 0 0 0-2.545 1.392v-5.234h-1.376v12zm9.6-4a4.219 4.219 0 0 0 7.747 2.257l-1.088-.752a2.833 2.833 0 0 1-5.266-1.232h6.562a3.922 3.922 0 0 0 .016-.417 3.728 3.728 0 0 0-3.809-4.017 4.056 4.056 0 0 0-4.163 4.159zm4.114-2.945a2.4 2.4 0 0 1 2.449 2.1h-5.074a2.616 2.616 0 0 1 2.624-2.102zm11.518 6.947h4.066c2.305 0 3.809-1.424 3.809-3.313a2.707 2.707 0 0 0-1.968-2.721 2.578 2.578 0 0 0 1.216-2.321 3.111 3.111 0 0 0-3.393-3.009h-3.73v11.364zm1.489-6.483v-3.537h2.241a1.787 1.787 0 0 1 1.937 1.777 1.749 1.749 0 0 1-1.937 1.76h-2.241zm0 5.139v-3.858h2.657c1.5 0 2.273.832 2.273 1.937 0 1.12-.768 1.921-2.289 1.921h-2.641zm8.543-2.658a4.005 4.005 0 0 0 3.921 4.162 3.512 3.512 0 0 0 2.818-1.392v1.232h1.376v-8h-1.376v1.227a3.512 3.512 0 0 0-2.818-1.392 4 4 0 0 0-3.922 4.161zm6.851 0a2.734 2.734 0 1 1-2.721-2.9 2.733 2.733 0 0 1 2.72 2.898zm4.653 4h1.381V122.9c0-1.872 1.024-2.929 2.32-2.929a1.921 1.921 0 0 1 1.889 2.177v4.722h1.361v-4.93a2.949 2.949 0 0 0-3.025-3.233 2.829 2.829 0 0 0-2.545 1.393v-1.232h-1.377v8zm9.6-4a4 4 0 0 0 3.921 4.162 3.509 3.509 0 0 0 2.817-1.392v1.232h1.377v-8h-1.377v1.227a3.509 3.509 0 0 0-2.817-1.392 4 4 0 0 0-3.922 4.161zm6.85 0a2.734 2.734 0 1 1-2.721-2.9 2.733 2.733 0 0 1 2.72 2.898zm4.654 4h1.377V122.9c0-1.872 1.025-2.929 2.321-2.929a1.921 1.921 0 0 1 1.889 2.177v4.722h1.36v-4.93a2.949 2.949 0 0 0-3.025-3.233 2.831 2.831 0 0 0-2.545 1.393v-1.232h-1.376v8zm9.6-4a4.005 4.005 0 0 0 3.922 4.162 3.51 3.51 0 0 0 2.817-1.392v1.232h1.376v-8h-1.378v1.227a3.51 3.51 0 0 0-2.817-1.392 4.005 4.005 0 0 0-3.922 4.161zm6.851 0a2.734 2.734 0 1 1-2.721-2.9 2.733 2.733 0 0 1 2.719 2.898zm9.565 4h1.489V121.7h1.1l4.37 5.17h1.873l-4.37-5.186a2.965 2.965 0 0 0 2.8-3.041 3.065 3.065 0 0 0-3.393-3.137h-3.874v11.364zm1.489-6.5v-3.489h2.209c1.3 0 2.081.608 2.081 1.761 0 1.136-.785 1.728-2.081 1.728h-2.209zm8.4 2.5a4.219 4.219 0 0 0 7.747 2.257l-1.089-.752a2.833 2.833 0 0 1-5.266-1.232h6.563a3.922 3.922 0 0 0 .016-.417 3.729 3.729 0 0 0-3.81-4.017 4.055 4.055 0 0 0-4.164 4.159zm4.113-2.945a2.4 2.4 0 0 1 2.449 2.1h-5.074a2.618 2.618 0 0 1 2.622-2.102zm6.607 10.292h1.377v-4.577a3.509 3.509 0 0 0 2.817 1.392 4.169 4.169 0 0 0 0-8.323 3.509 3.509 0 0 0-2.817 1.392v-1.232h-1.377v11.348zm6.707-7.347a2.727 2.727 0 1 1-2.721-2.9 2.733 2.733 0 0 1 2.718 2.898zm4.077.913c0 1.985 1.184 3.249 2.945 3.249a2.754 2.754 0 0 0 2.465-1.392v1.232h1.377v-8h-1.377v3.969c0 1.841-.976 2.93-2.225 2.93-1.1 0-1.809-.849-1.809-2.193v-4.706h-1.376v4.914zm11.552 1.857a3.512 3.512 0 0 0 2.817 1.392 4.169 4.169 0 0 0 0-8.323 3.512 3.512 0 0 0-2.817 1.392v-5.234h-1.376v12h1.376v-1.232zm5.331-2.77a2.727 2.727 0 1 1-2.722-2.9 2.734 2.734 0 0 1 2.719 2.898zm4.173 4h1.376v-12h-1.376v12zm6.448-11.124a.966.966 0 0 0-.96-.977 1 1 0 0 0-.993.977.984.984 0 0 0 .993.976.956.956 0 0 0 .957-.976zm-1.664 11.124h1.376v-8h-1.376v8zm12.05-1.985l-1.2-.672a2.714 2.714 0 0 1-2.5 1.537 2.883 2.883 0 0 1 0-5.763 2.714 2.714 0 0 1 2.5 1.537l1.2-.672a4.162 4.162 0 1 0-.003 4.033zm14.544 0l-1.2-.672a2.713 2.713 0 0 1-2.5 1.537 2.883 2.883 0 0 1 0-5.763 2.713 2.713 0 0 1 2.5 1.537l1.2-.672a4.144 4.144 0 0 0-3.7-2.145 4.162 4.162 0 1 0 0 8.323 4.144 4.144 0 0 0 3.697-2.145zm1.949-2.017a4 4 0 0 0 3.921 4.162 3.509 3.509 0 0 0 2.817-1.392v1.232h1.377v-8h-1.38v1.229a3.509 3.509 0 0 0-2.817-1.392 4 4 0 0 0-3.921 4.161zm6.85 0a2.734 2.734 0 1 1-2.721-2.9 2.733 2.733 0 0 1 2.718 2.9zm8.991 3.89v-1.232a3.041 3.041 0 0 1-.976.16 1.153 1.153 0 0 1-1.329-1.361v-4.194h2.305v-1.264h-2.305v-2.225h-1.376v2.225h-1.7v1.264h1.7v4.37a2.252 2.252 0 0 0 2.449 2.449 3.828 3.828 0 0 0 1.229-.192zm1.823-3.89a4 4 0 0 0 3.921 4.162 3.509 3.509 0 0 0 2.817-1.392v1.232h1.377v-8h-1.377v1.229a3.509 3.509 0 0 0-2.817-1.392 4 4 0 0 0-3.924 4.161zm6.85 0a2.734 2.734 0 1 1-2.721-2.9 2.733 2.733 0 0 1 2.718 2.9zm4.654 4h1.376v-12h-1.379v12zm12.515-4a4.186 4.186 0 1 0-4.178 4.162 4.107 4.107 0 0 0 4.18-4.162zm-6.963 0a2.779 2.779 0 1 1 2.785 2.882 2.751 2.751 0 0 1-2.788-2.882zm17.186 3.538v-7.539h-1.376v1.232a3.406 3.406 0 0 0-2.785-1.392 4.077 4.077 0 0 0 0 8.147 3.418 3.418 0 0 0 2.785-1.408v.912a2.558 2.558 0 0 1-2.673 2.769 3.421 3.421 0 0 1-2.8-1.345l-.961.961a4.753 4.753 0 0 0 3.778 1.633 3.7 3.7 0 0 0 4.029-3.97zm-6.674-3.634a2.707 2.707 0 1 1 2.705 2.8 2.667 2.667 0 0 1-2.708-2.8zm16.432-7.026a.967.967 0 0 0-.961-.977.994.994 0 0 0-.992.977.983.983 0 0 0 .992.976.957.957 0 0 0 .958-.976zm-1.665 11.124h1.377v-8h-1.377v8zm4.784 0h1.376V122.9c0-1.872 1.025-2.929 2.321-2.929a1.921 1.921 0 0 1 1.889 2.177v4.722h1.361v-4.93a2.95 2.95 0 0 0-3.026-3.233 2.832 2.832 0 0 0-2.545 1.392v-1.232H516.6v8zm15.92 0h1.376v-11.364h-2.449l-1.12 1.36h2.193v10zm4.863 0h1.761l4.162-4.914a4.366 4.366 0 0 0 1.28-2.9 3.85 3.85 0 0 0-7.7.048 3.671 3.671 0 0 0 3.554 3.649 2.039 2.039 0 0 0 .448-.032zm.913-7.779a2.441 2.441 0 1 1 2.433 2.449 2.415 2.415 0 0 1-2.436-2.449zm16.018 4.37a3.175 3.175 0 0 0-1.776-2.977 2.663 2.663 0 0 0 1.152-2.241 2.95 2.95 0 0 0-3.185-2.93 2.992 2.992 0 0 0-3.2 2.93 2.653 2.653 0 0 0 1.185 2.241 3.174 3.174 0 0 0-1.809 2.977 3.826 3.826 0 0 0 7.63 0zm-5.65-5.186a1.692 1.692 0 0 1 1.841-1.665 1.66 1.66 0 0 1 1.824 1.665 1.7 1.7 0 0 1-1.824 1.68 1.731 1.731 0 0 1-1.844-1.68zm-.592 5.186a2.256 2.256 0 0 1 2.433-2.273 2.27 2.27 0 1 1 0 4.53 2.262 2.262 0 0 1-2.436-2.257zm16.8-.7v-3.169a4.033 4.033 0 1 0-8.052 0v3.169a4.033 4.033 0 1 0 8.052-.005zm-6.675 0v-3.169a2.662 2.662 0 1 1 5.3 0v3.169a2.662 2.662 0 1 1-5.295-.005zm20.93 4.114h1.216l2.721-8h-1.456l-1.937 5.842-2-5.842h-1.056l-2 5.842-1.937-5.842h-1.44l2.721 8h1.216l1.985-5.762zm7.886-11.124a.967.967 0 0 0-.961-.977.994.994 0 0 0-.992.977.983.983 0 0 0 .992.976.957.957 0 0 0 .961-.981zm-1.665 11.124h1.376v-8h-1.376v8zm9.122-.112v-1.232a3.052 3.052 0 0 1-.977.16 1.153 1.153 0 0 1-1.328-1.361v-4.194h2.3v-1.264h-2.3v-2.225h-1.377v2.225h-1.7v1.264h1.7v4.37a2.252 2.252 0 0 0 2.449 2.449 3.84 3.84 0 0 0 1.233-.197zm2.558.112h1.374V122.9c0-1.872 1.025-2.929 2.321-2.929a1.921 1.921 0 0 1 1.889 2.177v4.722h1.361v-4.93a2.95 2.95 0 0 0-3.026-3.233 2.831 2.831 0 0 0-2.545 1.393v-5.234h-1.376v12zm18.993-.112v-1.232a3.041 3.041 0 0 1-.976.16 1.153 1.153 0 0 1-1.329-1.361v-4.194h2.3v-1.264h-2.3v-2.225h-1.376v2.225h-1.7v1.264h1.7v4.37a2.252 2.252 0 0 0 2.449 2.449 3.828 3.828 0 0 0 1.232-.197zm2.558.112h1.377V122.9c0-1.872 1.024-2.929 2.321-2.929a1.922 1.922 0 0 1 1.889 2.177v4.722h1.36v-4.93a2.949 2.949 0 0 0-3.025-3.233 2.829 2.829 0 0 0-2.545 1.392v-5.234h-1.377v12zm9.6-4a4.219 4.219 0 0 0 7.747 2.257l-1.088-.752a2.834 2.834 0 0 1-5.267-1.232h6.563a3.922 3.922 0 0 0 .016-.417 3.729 3.729 0 0 0-3.809-4.017 4.056 4.056 0 0 0-4.162 4.154zm4.114-2.945a2.4 2.4 0 0 1 2.449 2.1h-5.074a2.616 2.616 0 0 1 2.625-2.107zM37.9 144.886l-1.2-.672a2.714 2.714 0 0 1-2.5 1.537 2.883 2.883 0 0 1 0-5.763 2.714 2.714 0 0 1 2.5 1.537l1.2-.672a4.144 4.144 0 0 0-3.7-2.145 4.162 4.162 0 1 0 0 8.323 4.144 4.144 0 0 0 3.7-2.145zm1.949-2.017a4.005 4.005 0 0 0 3.922 4.162 3.51 3.51 0 0 0 2.817-1.392v1.232h1.377v-8h-1.378v1.229a3.51 3.51 0 0 0-2.817-1.392 4 4 0 0 0-3.921 4.161zm6.851 0a2.734 2.734 0 1 1-2.721-2.9 2.733 2.733 0 0 1 2.721 2.9zm4.653 7.347h1.377v-4.577a3.51 3.51 0 0 0 2.817 1.392 4.169 4.169 0 0 0 0-8.323 3.51 3.51 0 0 0-2.817 1.392v-1.232h-1.377v11.348zm6.707-7.347a2.726 2.726 0 1 1-2.721-2.9 2.733 2.733 0 0 1 2.72 2.9zm8.383 3.89v-1.232a3.044 3.044 0 0 1-.976.16 1.153 1.153 0 0 1-1.329-1.361v-4.194h2.3v-1.264h-2.3v-2.225h-1.377v2.225h-1.7v1.264h1.7v4.37a2.253 2.253 0 0 0 2.449 2.449 3.832 3.832 0 0 0 1.233-.192zm4.223-11.012a.967.967 0 0 0-.96-.977.994.994 0 0 0-.992.977.984.984 0 0 0 .992.976.956.956 0 0 0 .959-.976zM69 146.871h1.377v-8H69v8zm12.515-4a4.186 4.186 0 1 0-4.178 4.162 4.107 4.107 0 0 0 4.179-4.164zm-6.963 0a2.779 2.779 0 1 1 2.785 2.882 2.751 2.751 0 0 1-2.784-2.884zm9.727 4h1.377V142.9c0-1.872 1.024-2.929 2.321-2.929a1.921 1.921 0 0 1 1.889 2.177v4.722h1.361v-4.93a2.949 2.949 0 0 0-3.025-3.233 2.83 2.83 0 0 0-2.545 1.392v-1.232H84.28v8zm14.5-8.723a1.356 1.356 0 0 0-.208.72 1.185 1.185 0 1 0 2.369 0 1.223 1.223 0 0 0-.656-1.073l1.072-2.288h-.912zm2.977 0a1.356 1.356 0 0 0-.208.72 1.185 1.185 0 1 0 2.369 0 1.223 1.223 0 0 0-.656-1.073l1.072-2.288h-.912zm5.439 8.723h3.265a5.693 5.693 0 1 0 0-11.364h-3.265v11.364zm1.489-1.392V136.9h1.776a4.3 4.3 0 1 1 0 8.58h-1.776zm12.224-9.732a.967.967 0 0 0-.961-.977.994.994 0 0 0-.992.977.983.983 0 0 0 .992.976.957.957 0 0 0 .958-.976zm-1.665 11.124h1.377v-8h-1.38v8zm9.97-2.225c0-1.2-.752-1.969-2.113-2.417l-.864-.288c-.945-.3-1.233-.608-1.233-1.12a1.133 1.133 0 0 1 1.345-.929 2.159 2.159 0 0 1 1.7.833l.9-.865a3.1 3.1 0 0 0-2.561-1.152c-1.585 0-2.7.88-2.7 2.177a2.416 2.416 0 0 0 1.985 2.321l.784.256c1.04.336 1.424.72 1.424 1.28a1.218 1.218 0 0 1-1.408 1.089 2.148 2.148 0 0 1-2.049-1.265l-1.12.608a3.177 3.177 0 0 0 3.137 1.857c1.601 0 2.77-.816 2.77-2.385zm7.008 2.113v-1.232a3.052 3.052 0 0 1-.977.16 1.153 1.153 0 0 1-1.328-1.361v-4.194h2.3v-1.264h-2.3v-2.225h-1.377v2.225h-1.7v1.264h1.7v4.37a2.252 2.252 0 0 0 2.449 2.449 3.84 3.84 0 0 0 1.23-.192zm4.222-11.012a.966.966 0 0 0-.96-.977.994.994 0 0 0-.992.977.983.983 0 0 0 .992.976.956.956 0 0 0 .957-.976zm-1.664 11.124h1.376v-8h-1.376v8zm4.784 0h1.376V142.9c0-1.872 1.025-2.929 2.321-2.929a1.921 1.921 0 0 1 1.889 2.177v4.722h1.36v-4.93a2.949 2.949 0 0 0-3.025-3.233 2.831 2.831 0 0 0-2.545 1.392v-1.232h-1.379v8zm17.682-.464v-7.539h-1.376v1.232a3.406 3.406 0 0 0-2.785-1.392 4.077 4.077 0 0 0 0 8.147 3.418 3.418 0 0 0 2.785-1.408v.912a2.558 2.558 0 0 1-2.673 2.769 3.421 3.421 0 0 1-2.8-1.345l-.961.961a4.754 4.754 0 0 0 3.778 1.633 3.7 3.7 0 0 0 4.029-3.97zm-6.674-3.634a2.707 2.707 0 1 1 2.7 2.8 2.667 2.667 0 0 1-2.703-2.8zm9.951 1.009c0 1.985 1.185 3.249 2.945 3.249a2.753 2.753 0 0 0 2.465-1.392v1.232h1.377v-8h-1.377v3.969c0 1.841-.976 2.93-2.224 2.93-1.105 0-1.809-.849-1.809-2.193v-4.706h-1.377v4.914zm11.841-8.035a.967.967 0 0 0-.961-.977.994.994 0 0 0-.992.977.983.983 0 0 0 .992.976.957.957 0 0 0 .958-.976zm-1.663 11.124h1.377v-8H174.7v8zm9.97-2.225c0-1.2-.752-1.969-2.113-2.417l-.864-.288c-.944-.3-1.233-.608-1.233-1.12a1.133 1.133 0 0 1 1.345-.929 2.161 2.161 0 0 1 1.7.833l.9-.865a3.1 3.1 0 0 0-2.561-1.152c-1.585 0-2.7.88-2.7 2.177a2.416 2.416 0 0 0 1.985 2.321l.784.256c1.04.336 1.425.72 1.425 1.28a1.219 1.219 0 0 1-1.409 1.089 2.149 2.149 0 0 1-2.049-1.265l-1.12.608a3.177 3.177 0 0 0 3.137 1.857c1.603 0 2.768-.816 2.768-2.385zm2.766 2.225h1.376V142.9c0-1.872 1.025-2.929 2.321-2.929a1.921 1.921 0 0 1 1.889 2.177v4.722h1.361v-4.93a2.949 2.949 0 0 0-3.025-3.233 2.832 2.832 0 0 0-2.546 1.392v-5.234h-1.376v12zm9.6-4a4.219 4.219 0 0 0 7.747 2.257l-1.089-.752a2.833 2.833 0 0 1-5.266-1.232h6.563a3.922 3.922 0 0 0 .016-.417 3.729 3.729 0 0 0-3.81-4.017 4.055 4.055 0 0 0-4.166 4.159zm4.113-2.945a2.4 2.4 0 0 1 2.449 2.1h-5.074a2.617 2.617 0 0 1 2.62-2.102zm5.982 2.945a4.005 4.005 0 0 0 3.922 4.162 3.51 3.51 0 0 0 2.817-1.392v1.232h1.377v-12h-1.377v5.227a3.51 3.51 0 0 0-2.817-1.392 4.005 4.005 0 0 0-3.927 4.161zm6.851 0a2.734 2.734 0 1 1-2.721-2.9 2.733 2.733 0 0 1 2.716 2.898zm9.357 4h1.377V142.9c0-1.872 1.1-2.753 2.113-2.753a2.011 2.011 0 0 1 .752.128v-1.424a2.851 2.851 0 0 0-.624-.064 2.38 2.38 0 0 0-2.241 1.632v-1.552h-1.377v8zm5.76-4a4.005 4.005 0 0 0 3.922 4.162 3.51 3.51 0 0 0 2.817-1.392v1.232h1.376v-8h-1.376v1.227a3.51 3.51 0 0 0-2.817-1.392 4.005 4.005 0 0 0-3.927 4.161zm6.851 0a2.734 2.734 0 1 1-2.721-2.9 2.733 2.733 0 0 1 2.716 2.898zm6.318-7.122a.967.967 0 0 0-.961-.977.994.994 0 0 0-.992.977.983.983 0 0 0 .992.976.957.957 0 0 0 .956-.978zm-1.668 11.122h1.377v-8H240.6v8zm4.784 0h1.377V142.9c0-1.872 1.024-2.929 2.321-2.929a1.921 1.921 0 0 1 1.888 2.177v4.722h1.361v-4.93a2.949 2.949 0 0 0-3.025-3.233 2.829 2.829 0 0 0-2.545 1.392v-1.232h-1.377v8zm22.387-.464v-7.539h-1.377v1.232a3.406 3.406 0 0 0-2.785-1.392 4.077 4.077 0 0 0 0 8.147 3.418 3.418 0 0 0 2.785-1.408v.912a2.558 2.558 0 0 1-2.673 2.769 3.422 3.422 0 0 1-2.8-1.345l-.961.961a4.754 4.754 0 0 0 3.778 1.633 3.705 3.705 0 0 0 4.031-3.97zm-6.675-3.634a2.707 2.707 0 1 1 2.7 2.8 2.667 2.667 0 0 1-2.702-2.8zm9.439.1a4.219 4.219 0 0 0 7.747 2.257l-1.088-.752a2.833 2.833 0 0 1-5.266-1.232h6.562a3.922 3.922 0 0 0 .016-.417 3.728 3.728 0 0 0-3.809-4.017 4.056 4.056 0 0 0-4.164 4.157zm4.114-2.945a2.4 2.4 0 0 1 2.449 2.1h-5.074a2.616 2.616 0 0 1 2.623-2.104zm5.982 2.945a4.005 4.005 0 0 0 3.922 4.162 3.51 3.51 0 0 0 2.817-1.392v1.232h1.376v-8h-1.376v1.225a3.51 3.51 0 0 0-2.817-1.392 4.005 4.005 0 0 0-3.924 4.161zm6.851 0a2.734 2.734 0 1 1-2.721-2.9 2.733 2.733 0 0 1 2.719 2.896zm4.653 4h1.377V142.9c0-1.872 1.1-2.753 2.113-2.753a2.011 2.011 0 0 1 .752.128v-1.424a2.851 2.851 0 0 0-.624-.064 2.38 2.38 0 0 0-2.241 1.632v-1.552h-1.377v8zm7.489-.352a1.368 1.368 0 0 0 .224-.72 1.185 1.185 0 1 0-2.369 0 1.191 1.191 0 0 0 .656 1.072l-1.072 2.289h.912zm9.552-10.772a.967.967 0 0 0-.961-.977.994.994 0 0 0-.992.977.983.983 0 0 0 .992.976.957.957 0 0 0 .959-.978zm-1.665 11.124h1.377v-8h-1.377v8zm4.784 0h1.377V142.9c0-1.872 1.024-2.929 2.32-2.929a1.921 1.921 0 0 1 1.889 2.177v4.722h1.361v-4.93a2.949 2.949 0 0 0-3.025-3.233 2.829 2.829 0 0 0-2.545 1.392v-1.232h-1.377v8zm9.6-4a4 4 0 0 0 3.921 4.162 3.509 3.509 0 0 0 2.817-1.392v1.232h1.377v-12h-1.377v5.225a3.509 3.509 0 0 0-2.817-1.392 4 4 0 0 0-3.923 4.161zm6.85 0a2.734 2.734 0 1 1-2.721-2.9 2.733 2.733 0 0 1 2.719 2.896zm4.029 0a4.219 4.219 0 0 0 7.747 2.257l-1.088-.752a2.833 2.833 0 0 1-5.266-1.232h6.563a3.922 3.922 0 0 0 .016-.417 3.729 3.729 0 0 0-3.81-4.017 4.056 4.056 0 0 0-4.164 4.157zm4.114-2.945a2.4 2.4 0 0 1 2.449 2.1h-5.074a2.617 2.617 0 0 1 2.623-2.104zm5.982 2.945a4.219 4.219 0 0 0 7.747 2.257l-1.088-.752a2.833 2.833 0 0 1-5.266-1.232h6.562a3.922 3.922 0 0 0 .016-.417 3.728 3.728 0 0 0-3.809-4.017 4.056 4.056 0 0 0-4.164 4.157zm4.114-2.945a2.4 2.4 0 0 1 2.449 2.1h-5.074a2.616 2.616 0 0 1 2.623-2.104zm5.982 2.945a4.005 4.005 0 0 0 3.922 4.162 3.51 3.51 0 0 0 2.817-1.392v1.232h1.376v-12H359.7v5.225a3.51 3.51 0 0 0-2.817-1.392 4.005 4.005 0 0 0-3.919 4.161zm6.851 0a2.734 2.734 0 1 1-2.721-2.9 2.733 2.733 0 0 1 2.719 2.896zm6.558 2.93a1.185 1.185 0 1 0-1.184 1.2 1.206 1.206 0 0 0 1.182-1.203zm3.04-8.564a1.414 1.414 0 0 0 .224-.72 1.193 1.193 0 1 0-2.385 0 1.239 1.239 0 0 0 .657 1.072l-1.073 2.289h.929zm2.977 0a1.406 1.406 0 0 0 .225-.72 1.193 1.193 0 1 0-2.385 0 1.24 1.24 0 0 0 .656 1.072l-1.073 2.289h.929zm6.8 7.779a4.387 4.387 0 0 0 3.985 2.049c2.113 0 3.618-1.216 3.618-3.153 0-1.681-.961-2.641-2.641-3.281l-1.377-.529c-1.152-.432-1.712-.864-1.712-1.824a1.809 1.809 0 0 1 2.048-1.569 2.812 2.812 0 0 1 2.257 1.12l1.089-.96a4.148 4.148 0 0 0-3.314-1.553c-2.032 0-3.553 1.169-3.553 3.026 0 1.552.8 2.481 2.577 3.137l1.5.576a2.066 2.066 0 0 1 1.632 1.921 1.846 1.846 0 0 1-2.1 1.7 3.177 3.177 0 0 1-2.817-1.553zm12.033-9.267a.967.967 0 0 0-.961-.977.994.994 0 0 0-.992.977.983.983 0 0 0 .992.976.957.957 0 0 0 .957-.98zm-1.665 11.124h1.376v-8h-1.376v8zm4.784 0h1.376V142.9c0-1.872 1.025-2.929 2.321-2.929a1.921 1.921 0 0 1 1.889 2.177v4.722h1.361v-4.93a2.95 2.95 0 0 0-3.026-3.233 2.832 2.832 0 0 0-2.545 1.392v-1.232h-1.38v8zm17.491-1.985l-1.2-.672a2.713 2.713 0 0 1-2.5 1.537 2.883 2.883 0 0 1 0-5.763 2.713 2.713 0 0 1 2.5 1.537l1.2-.672a4.145 4.145 0 0 0-3.7-2.145 4.162 4.162 0 1 0 0 8.323 4.145 4.145 0 0 0 3.696-2.149zm1.948-2.017a4.219 4.219 0 0 0 7.747 2.257l-1.088-.752a2.833 2.833 0 0 1-5.266-1.232h6.562a3.922 3.922 0 0 0 .016-.417 3.728 3.728 0 0 0-3.809-4.017 4.056 4.056 0 0 0-4.166 4.157zm4.114-2.945a2.4 2.4 0 0 1 2.449 2.1h-5.074a2.616 2.616 0 0 1 2.621-2.104zm15.376 6.835v-1.232a3.041 3.041 0 0 1-.976.16 1.153 1.153 0 0 1-1.329-1.361v-4.194h2.305v-1.264h-2.305v-2.225h-1.377v2.225h-1.7v1.264h1.7v4.37a2.253 2.253 0 0 0 2.449 2.449 3.83 3.83 0 0 0 1.229-.196zm2.558.112h1.369V142.9c0-1.872 1.024-2.929 2.321-2.929a1.921 1.921 0 0 1 1.888 2.177v4.722h1.361v-4.93a2.949 2.949 0 0 0-3.025-3.233 2.829 2.829 0 0 0-2.545 1.393v-5.234h-1.377v12zm9.6-4a4.219 4.219 0 0 0 7.747 2.257l-1.089-.752a2.833 2.833 0 0 1-5.266-1.232h6.563a3.922 3.922 0 0 0 .016-.417 3.729 3.729 0 0 0-3.81-4.017 4.055 4.055 0 0 0-4.165 4.155zm4.113-2.945a2.4 2.4 0 0 1 2.449 2.1h-5.074a2.617 2.617 0 0 1 2.621-2.106zm6.607 6.947h1.376V142.9c0-1.872 1.025-2.929 2.321-2.929a1.921 1.921 0 0 1 1.889 2.177v4.722h1.361v-4.93a2.95 2.95 0 0 0-3.026-3.233 2.832 2.832 0 0 0-2.545 1.392v-1.232h-1.376v8zm11.936-.352a1.368 1.368 0 0 0 .224-.72 1.185 1.185 0 1 0-2.369 0 1.192 1.192 0 0 0 .657 1.072l-1.073 2.289h.913zm11.953.24v-1.232a3.041 3.041 0 0 1-.976.16 1.153 1.153 0 0 1-1.329-1.361v-4.194h2.305v-1.264h-2.305v-2.225h-1.376v2.225h-1.7v1.264h1.7v4.37a2.252 2.252 0 0 0 2.449 2.449 3.828 3.828 0 0 0 1.228-.198zm2.558.112h1.377V142.9c0-1.872 1.024-2.929 2.321-2.929a1.922 1.922 0 0 1 1.889 2.177v4.722h1.36v-4.93a2.949 2.949 0 0 0-3.025-3.233 2.831 2.831 0 0 0-2.545 1.392v-5.234h-1.377v12zm9.6-4a4.219 4.219 0 0 0 7.747 2.257l-1.088-.752a2.833 2.833 0 0 1-5.266-1.232h6.562a3.922 3.922 0 0 0 .016-.417 3.729 3.729 0 0 0-3.809-4.017 4.056 4.056 0 0 0-4.166 4.153zm4.114-2.945a2.4 2.4 0 0 1 2.449 2.1h-5.074a2.616 2.616 0 0 1 2.621-2.108zm15.376 6.835v-1.232a3.048 3.048 0 0 1-.977.16 1.153 1.153 0 0 1-1.328-1.361v-4.194h2.305v-1.264h-2.305v-2.225H508v2.225h-1.7v1.264h1.7v4.37a2.253 2.253 0 0 0 2.449 2.449 3.835 3.835 0 0 0 1.235-.2zm2.558.112h1.376V142.9c0-1.872 1.1-2.753 2.113-2.753a2.016 2.016 0 0 1 .753.128v-1.424a2.86 2.86 0 0 0-.625-.064 2.382 2.382 0 0 0-2.241 1.632v-1.552h-1.376v8zm5.744-4a4.219 4.219 0 0 0 7.747 2.257l-1.089-.752a2.833 2.833 0 0 1-5.266-1.232h6.563a3.922 3.922 0 0 0 .016-.417 3.729 3.729 0 0 0-3.81-4.017 4.055 4.055 0 0 0-4.165 4.151zm4.113-2.945a2.4 2.4 0 0 1 2.449 2.1h-5.074a2.617 2.617 0 0 1 2.622-2.11zm6.607 6.947h1.376V142.9c0-1.872 1.025-2.929 2.321-2.929a1.921 1.921 0 0 1 1.889 2.177v4.722h1.361v-4.93a2.95 2.95 0 0 0-3.026-3.233 2.832 2.832 0 0 0-2.545 1.392v-1.232h-1.376v8zm17.491-1.985l-1.2-.672a2.713 2.713 0 0 1-2.5 1.537 2.883 2.883 0 0 1 0-5.763 2.713 2.713 0 0 1 2.5 1.537l1.2-.672a4.145 4.145 0 0 0-3.7-2.145 4.162 4.162 0 1 0 0 8.323 4.145 4.145 0 0 0 3.699-2.155zm2.572 1.985h1.377V142.9c0-1.872 1.024-2.929 2.321-2.929a1.922 1.922 0 0 1 1.889 2.177v4.722h1.36v-4.93a2.949 2.949 0 0 0-3.025-3.233 2.831 2.831 0 0 0-2.545 1.392v-5.234h-1.377v12zm14.928 0h1.377V142.9c0-1.872 1.024-2.929 2.321-2.929a1.921 1.921 0 0 1 1.888 2.177v4.722h1.361v-4.93a2.949 2.949 0 0 0-3.025-3.233 2.829 2.829 0 0 0-2.545 1.392v-5.234H565.7v12zm9.6-4a4 4 0 0 0 3.921 4.162 3.509 3.509 0 0 0 2.817-1.392v1.232h1.377v-8h-1.377v1.217a3.509 3.509 0 0 0-2.817-1.392 4 4 0 0 0-3.922 4.161zm6.851 0a2.734 2.734 0 1 1-2.722-2.9 2.734 2.734 0 0 1 2.718 2.888zm9.839 1.777c0-1.2-.752-1.969-2.113-2.417l-.864-.288c-.945-.3-1.233-.608-1.233-1.12a1.133 1.133 0 0 1 1.345-.929 2.159 2.159 0 0 1 1.7.833l.9-.865a3.1 3.1 0 0 0-2.561-1.152c-1.585 0-2.705.88-2.705 2.177a2.416 2.416 0 0 0 1.984 2.321l.785.256c1.04.336 1.424.72 1.424 1.28a1.218 1.218 0 0 1-1.408 1.089 2.148 2.148 0 0 1-2.049-1.265l-1.12.608a3.177 3.177 0 0 0 3.137 1.857c1.605-.012 2.774-.828 2.774-2.397zm8.846.993a3.51 3.51 0 0 0 2.817 1.392 4.169 4.169 0 0 0 0-8.323 3.51 3.51 0 0 0-2.817 1.392v-5.234h-1.377v12h1.377v-1.232zm5.33-2.77a2.726 2.726 0 1 1-2.721-2.9 2.733 2.733 0 0 1 2.717 2.888zm3.549 0a4.219 4.219 0 0 0 7.747 2.257l-1.088-.752a2.833 2.833 0 0 1-5.266-1.232h6.562a3.922 3.922 0 0 0 .016-.417 3.728 3.728 0 0 0-3.809-4.017 4.056 4.056 0 0 0-4.166 4.149zm4.114-2.945a2.4 2.4 0 0 1 2.449 2.1H611.2a2.616 2.616 0 0 1 2.626-2.112zm13.873 4.962l-1.2-.672a2.715 2.715 0 0 1-2.5 1.537 2.883 2.883 0 0 1 0-5.763 2.715 2.715 0 0 1 2.5 1.537l1.2-.672a4.143 4.143 0 0 0-3.7-2.145 4.162 4.162 0 1 0 0 8.323 4.143 4.143 0 0 0 3.697-2.157zm10.3-2.017a4.186 4.186 0 1 0-4.178 4.162 4.107 4.107 0 0 0 4.175-4.174zm-6.963 0a2.779 2.779 0 1 1 2.785 2.882 2.751 2.751 0 0 1-2.785-2.894zm9.728 4h1.376V142.9c0-1.808.913-2.929 2.209-2.929 1.041 0 1.569.9 1.569 2.193v4.706h1.378v-3.97c0-1.808.9-2.929 2.193-2.929 1.041 0 1.585.9 1.585 2.193v4.706h1.377v-4.914c0-1.953-1.057-3.249-2.8-3.249a2.771 2.771 0 0 0-2.625 1.712 2.515 2.515 0 0 0-2.465-1.712 2.692 2.692 0 0 0-2.417 1.392v-1.232h-1.376v8zm14.335-4a4.22 4.22 0 0 0 7.748 2.257l-1.089-.752a2.833 2.833 0 0 1-5.266-1.232h6.563a3.922 3.922 0 0 0 .016-.417 3.729 3.729 0 0 0-3.81-4.017 4.056 4.056 0 0 0-4.165 4.149zm4.114-2.945a2.4 2.4 0 0 1 2.449 2.1h-5.074a2.617 2.617 0 0 1 2.625-2.112zM30.009 162.869a4.005 4.005 0 0 0 3.922 4.162 3.51 3.51 0 0 0 2.817-1.392v1.232h1.377v-8h-1.377v1.229a3.51 3.51 0 0 0-2.817-1.392 4 4 0 0 0-3.922 4.161zm6.851 0a2.734 2.734 0 1 1-2.721-2.9 2.733 2.733 0 0 1 2.721 2.9zm9.357 4h1.377V162.9c0-1.872 1.024-2.929 2.321-2.929a1.921 1.921 0 0 1 1.889 2.177v4.722h1.361v-4.93a2.949 2.949 0 0 0-3.025-3.233 2.83 2.83 0 0 0-2.545 1.392v-5.234h-1.378v12zm9.6-4a4 4 0 0 0 3.922 4.162 3.51 3.51 0 0 0 2.817-1.392v1.232h1.377v-8h-1.378v1.229a3.51 3.51 0 0 0-2.817-1.392 4 4 0 0 0-3.922 4.161zm6.851 0a2.734 2.734 0 1 1-2.721-2.9 2.733 2.733 0 0 1 2.72 2.9zm4.653 4H68.7v-12h-1.38v12zm4.784 0h1.377v-12H72.1v12zm4.784 0h1.377V162.9c0-1.808.912-2.929 2.209-2.929 1.04 0 1.569.9 1.569 2.193v4.706h1.377v-3.97c0-1.808.9-2.929 2.193-2.929 1.041 0 1.585.9 1.585 2.193v4.706h1.377v-4.914c0-1.953-1.056-3.249-2.8-3.249a2.77 2.77 0 0 0-2.625 1.712 2.516 2.516 0 0 0-2.465-1.712 2.69 2.69 0 0 0-2.417 1.392v-1.232h-1.381v8zm14.336-4a4.005 4.005 0 0 0 3.922 4.162 3.51 3.51 0 0 0 2.817-1.392v1.232h1.377v-8h-1.378v1.229a3.51 3.51 0 0 0-2.817-1.392 4 4 0 0 0-3.922 4.161zm6.851 0a2.734 2.734 0 1 1-2.721-2.9 2.733 2.733 0 0 1 2.72 2.9zm4.653 4h1.371V162.9c0-1.872 1.105-2.753 2.113-2.753a2.02 2.02 0 0 1 .753.128v-1.424a2.866 2.866 0 0 0-.625-.064 2.382 2.382 0 0 0-2.241 1.632v-1.552h-1.376v8zm6.656 0h1.376v-4l4.338 4h1.857l-4.818-4.466 3.938-3.537h-1.826l-3.49 3.121v-7.123h-1.376v12zm21.539-4a4.186 4.186 0 1 0-4.178 4.162 4.107 4.107 0 0 0 4.177-4.162zm-6.963 0a2.779 2.779 0 1 1 2.785 2.882 2.751 2.751 0 0 1-2.786-2.882zm10.272 4h1.376v-6.739h2.321v-1.264h-2.321V157.4a1.152 1.152 0 0 1 1.329-1.36 3.222 3.222 0 0 1 .992.16v-1.217a3.636 3.636 0 0 0-1.248-.208 2.286 2.286 0 0 0-2.449 2.481v1.617h-1.7v1.264h1.7v6.739zm9.663-4a4.219 4.219 0 0 0 7.747 2.257l-1.088-.752a2.833 2.833 0 0 1-5.266-1.232h6.562a3.922 3.922 0 0 0 .016-.417 3.728 3.728 0 0 0-3.809-4.017 4.056 4.056 0 0 0-4.158 4.161zm4.114-2.945a2.4 2.4 0 0 1 2.449 2.1h-5.074a2.616 2.616 0 0 1 2.624-2.1zm5.982 2.945a4.005 4.005 0 0 0 3.922 4.162 3.512 3.512 0 0 0 2.817-1.392v1.232h1.376v-8h-1.377v1.229a3.512 3.512 0 0 0-2.817-1.392 4.005 4.005 0 0 0-3.922 4.161zm6.851 0a2.734 2.734 0 1 1-2.721-2.9 2.733 2.733 0 0 1 2.72 2.9zm11.92 2.017l-1.2-.672a2.713 2.713 0 0 1-2.5 1.537 2.883 2.883 0 0 1 0-5.763 2.713 2.713 0 0 1 2.5 1.537l1.2-.672a4.144 4.144 0 0 0-3.7-2.145 4.162 4.162 0 1 0 0 8.323 4.144 4.144 0 0 0 3.699-2.145zm2.573 1.985h1.376V162.9c0-1.872 1.025-2.929 2.321-2.929a1.921 1.921 0 0 1 1.889 2.177v4.722h1.361v-4.93a2.95 2.95 0 0 0-3.026-3.233 2.832 2.832 0 0 0-2.545 1.392v-5.234h-1.376v12zm22.194-1.985l-1.2-.672a2.714 2.714 0 0 1-2.5 1.537 2.883 2.883 0 0 1 0-5.763 2.714 2.714 0 0 1 2.5 1.537l1.2-.672a4.162 4.162 0 1 0-.001 4.033zm10.3-2.017a4.186 4.186 0 1 0-4.177 4.162 4.107 4.107 0 0 0 4.18-4.162zm-6.962 0a2.779 2.779 0 1 1 2.785 2.882 2.751 2.751 0 0 1-2.782-2.882zm9.727 4h1.377v-12H210.6v12zm4.784 0h1.377v-12h-1.377v12zm4.16-4a4.219 4.219 0 0 0 7.747 2.257l-1.089-.752a2.833 2.833 0 0 1-5.266-1.232h6.569a3.922 3.922 0 0 0 .016-.417 3.729 3.729 0 0 0-3.81-4.017 4.055 4.055 0 0 0-4.164 4.161zm4.113-2.945a2.4 2.4 0 0 1 2.449 2.1h-5.071a2.617 2.617 0 0 1 2.625-2.1zm13.874 4.962l-1.2-.672a2.713 2.713 0 0 1-2.5 1.537 2.883 2.883 0 0 1 0-5.763 2.713 2.713 0 0 1 2.5 1.537l1.2-.672a4.145 4.145 0 0 0-3.7-2.145 4.162 4.162 0 1 0 0 8.323 4.145 4.145 0 0 0 3.703-2.145zm6.91 1.873v-1.232a3.041 3.041 0 0 1-.976.16 1.153 1.153 0 0 1-1.329-1.361v-4.194h2.305v-1.264h-2.305v-2.225h-1.376v2.225h-1.7v1.264h1.7v4.37a2.252 2.252 0 0 0 2.449 2.449 3.828 3.828 0 0 0 1.235-.192zm4.223-11.012a.966.966 0 0 0-.96-.977 1 1 0 0 0-.993.977.984.984 0 0 0 .993.976.956.956 0 0 0 .963-.976zM247 166.871h1.377v-8H247v8zm12.516-4a4.186 4.186 0 1 0-4.178 4.162 4.107 4.107 0 0 0 4.175-4.164zm-6.963 0a2.779 2.779 0 1 1 2.785 2.882 2.751 2.751 0 0 1-2.788-2.884zm9.727 4h1.377V162.9c0-1.872 1.024-2.929 2.321-2.929a1.921 1.921 0 0 1 1.888 2.177v4.722h1.361v-4.93a2.949 2.949 0 0 0-3.025-3.233 2.829 2.829 0 0 0-2.545 1.392v-1.232h-1.377v8zm9.968-3.793h8.083V161.7h-8.083v1.377zm10.592-.209a4 4 0 0 0 3.921 4.162 3.509 3.509 0 0 0 2.817-1.392v1.232h1.377v-8h-1.377v1.229a3.509 3.509 0 0 0-2.817-1.392 4 4 0 0 0-3.924 4.161zm6.85 0a2.734 2.734 0 1 1-2.721-2.9 2.733 2.733 0 0 1 2.718 2.9zm4.654 4h1.376V162.9c0-1.872 1.025-2.929 2.321-2.929a1.921 1.921 0 0 1 1.889 2.177v4.722h1.361v-4.93a2.95 2.95 0 0 0-3.026-3.233 2.831 2.831 0 0 0-2.545 1.392v-1.232h-1.376v8zm9.6-4a4.005 4.005 0 0 0 3.922 4.162 3.51 3.51 0 0 0 2.817-1.392v1.232h1.377v-12h-1.377v5.229a3.51 3.51 0 0 0-2.817-1.392 4.005 4.005 0 0 0-3.926 4.161zm6.851 0a2.734 2.734 0 1 1-2.721-2.9 2.733 2.733 0 0 1 2.717 2.9zm11.15-7.122a.966.966 0 0 0-.96-.977.994.994 0 0 0-.993.977.984.984 0 0 0 .993.976.956.956 0 0 0 .956-.976zm-.288 3.121h-1.377v8.9a1.13 1.13 0 0 1-1.232 1.361 3.508 3.508 0 0 1-.464-.032v1.232a3.95 3.95 0 0 0 .656.049 2.245 2.245 0 0 0 2.417-2.449v-9.06zm3.295 4.914c0 1.985 1.184 3.249 2.945 3.249a2.753 2.753 0 0 0 2.465-1.392v1.232h1.377v-8h-1.377v3.969c0 1.841-.976 2.93-2.225 2.93-1.1 0-1.808-.849-1.808-2.193v-4.706h-1.377v4.914zm15.362.864c0-1.2-.752-1.969-2.113-2.417l-.864-.288c-.945-.3-1.233-.608-1.233-1.12a1.133 1.133 0 0 1 1.345-.929 2.163 2.163 0 0 1 1.7.833l.9-.865a3.1 3.1 0 0 0-2.561-1.152c-1.585 0-2.7.88-2.7 2.177a2.416 2.416 0 0 0 1.985 2.321l.784.256c1.04.336 1.424.72 1.424 1.28a1.218 1.218 0 0 1-1.408 1.089 2.149 2.149 0 0 1-2.049-1.265l-1.12.608a3.177 3.177 0 0 0 3.137 1.857c1.601 0 2.769-.816 2.769-2.385zm7.008 2.113v-1.232a3.052 3.052 0 0 1-.977.16 1.153 1.153 0 0 1-1.328-1.361v-4.194h2.305v-1.264h-2.305v-2.225h-1.377v2.225h-1.7v1.264h1.7v4.37a2.253 2.253 0 0 0 2.449 2.449 3.84 3.84 0 0 0 1.229-.192zm14.721-.352v-7.539h-1.377v1.232a3.406 3.406 0 0 0-2.785-1.392 4.077 4.077 0 0 0 0 8.147 3.418 3.418 0 0 0 2.785-1.408v.912a2.558 2.558 0 0 1-2.673 2.769 3.421 3.421 0 0 1-2.8-1.345l-.961.961a4.754 4.754 0 0 0 3.778 1.633 3.705 3.705 0 0 0 4.029-3.97zm-6.675-3.634a2.707 2.707 0 1 1 2.705 2.8 2.667 2.667 0 0 1-2.709-2.8zm9.439.1a4.219 4.219 0 0 0 7.747 2.257l-1.088-.752a2.833 2.833 0 0 1-5.266-1.232h6.562a3.922 3.922 0 0 0 .016-.417 3.728 3.728 0 0 0-3.809-4.017 4.056 4.056 0 0 0-4.169 4.157zm4.114-2.945a2.4 2.4 0 0 1 2.449 2.1h-5.074a2.616 2.616 0 0 1 2.621-2.104zm10.832 6.835v-1.232a3.041 3.041 0 0 1-.976.16 1.153 1.153 0 0 1-1.329-1.361v-4.194h2.305v-1.264h-2.305v-2.225h-1.376v2.225h-1.7v1.264h1.7v4.37a2.252 2.252 0 0 0 2.449 2.449 3.828 3.828 0 0 0 1.228-.196zm7.745-2.113c0-1.2-.753-1.969-2.113-2.417l-.865-.288c-.944-.3-1.232-.608-1.232-1.12a1.132 1.132 0 0 1 1.344-.929 2.16 2.16 0 0 1 1.7.833l.9-.865a3.1 3.1 0 0 0-2.561-1.152c-1.584 0-2.705.88-2.705 2.177a2.417 2.417 0 0 0 1.985 2.321l.784.256c1.041.336 1.425.72 1.425 1.28a1.218 1.218 0 0 1-1.409 1.089 2.148 2.148 0 0 1-2.048-1.265l-1.121.608a3.178 3.178 0 0 0 3.137 1.857c1.606-.004 2.775-.82 2.775-2.389zm8.846.993a3.509 3.509 0 0 0 2.817 1.392 4.169 4.169 0 0 0 0-8.323 3.509 3.509 0 0 0-2.817 1.392v-5.234h-1.377v12h1.377v-1.232zm5.33-2.77a2.726 2.726 0 1 1-2.721-2.9 2.733 2.733 0 0 1 2.717 2.896zm3.549 0a4.219 4.219 0 0 0 7.747 2.257l-1.089-.752a2.833 2.833 0 0 1-5.266-1.232h6.563a3.922 3.922 0 0 0 .016-.417 3.729 3.729 0 0 0-3.81-4.017 4.055 4.055 0 0 0-4.165 4.157zm4.113-2.945a2.4 2.4 0 0 1 2.449 2.1h-5.074a2.617 2.617 0 0 1 2.621-2.104zm16.435 6.835v-1.232a3.041 3.041 0 0 1-.976.16 1.153 1.153 0 0 1-1.329-1.361v-4.194h2.305v-1.264h-2.305v-2.225h-1.376v2.225h-1.377v1.264h1.377v4.37a2.252 2.252 0 0 0 2.449 2.449 3.828 3.828 0 0 0 1.228-.196zm-5.6 0v-1.232a3.043 3.043 0 0 1-.977.16 1.153 1.153 0 0 1-1.328-1.361v-4.194h1.953v-1.264h-1.959v-2.225h-1.377v2.225h-1.7v1.264h1.7v4.37a2.253 2.253 0 0 0 2.449 2.449 3.83 3.83 0 0 0 1.233-.196zm7.422-3.89a4.219 4.219 0 0 0 7.747 2.257l-1.089-.752a2.833 2.833 0 0 1-5.266-1.232h6.563a3.922 3.922 0 0 0 .016-.417 3.729 3.729 0 0 0-3.81-4.017 4.055 4.055 0 0 0-4.167 4.157zm4.113-2.945a2.4 2.4 0 0 1 2.449 2.1h-5.074a2.618 2.618 0 0 1 2.619-2.104zm6.607 6.947h1.376V162.9c0-1.872 1.105-2.753 2.113-2.753a2.016 2.016 0 0 1 .753.128v-1.424a2.86 2.86 0 0 0-.625-.064 2.382 2.382 0 0 0-2.241 1.632v-1.552h-1.376v8zm17.459 0h1.216l2.721-8h-1.456l-1.937 5.842-2-5.842h-1.056l-2 5.842-1.937-5.842h-1.44l2.721 8h1.216l1.985-5.762zm7.885-11.124a.966.966 0 0 0-.96-.977.994.994 0 0 0-.992.977.983.983 0 0 0 .992.976.956.956 0 0 0 .954-.98zm-1.664 11.124h1.376v-8h-1.376v8zm9.121-.112v-1.232a3.041 3.041 0 0 1-.976.16 1.153 1.153 0 0 1-1.329-1.361v-4.194h2.305v-1.264H468.8v-2.225h-1.376v2.225h-1.7v1.264h1.7v4.37a2.252 2.252 0 0 0 2.449 2.449 3.828 3.828 0 0 0 1.235-.196zm2.559.112h1.376V162.9c0-1.872 1.025-2.929 2.321-2.929a1.922 1.922 0 0 1 1.889 2.177v4.722h1.36v-4.93a2.949 2.949 0 0 0-3.025-3.233 2.831 2.831 0 0 0-2.545 1.392v-5.234h-1.376v12zm14.3-4a4.005 4.005 0 0 0 3.922 4.162 3.512 3.512 0 0 0 2.817-1.392v1.232h1.376v-8h-1.376v1.223a3.512 3.512 0 0 0-2.817-1.392 4.005 4.005 0 0 0-3.925 4.161zm6.851 0a2.734 2.734 0 1 1-2.721-2.9 2.733 2.733 0 0 1 2.718 2.894zm12.112 3.538v-7.539h-1.377v1.226a3.4 3.4 0 0 0-2.785-1.392 4.077 4.077 0 0 0 0 8.147 3.417 3.417 0 0 0 2.785-1.408v.912a2.558 2.558 0 0 1-2.673 2.769 3.424 3.424 0 0 1-2.8-1.345l-.96.961a4.752 4.752 0 0 0 3.777 1.633 3.705 3.705 0 0 0 4.03-3.97zm-6.675-3.634a2.707 2.707 0 1 1 2.705 2.8 2.667 2.667 0 0 1-2.708-2.806zm9.44.1a4.219 4.219 0 0 0 7.747 2.257l-1.089-.752a2.833 2.833 0 0 1-5.266-1.232h6.563a3.922 3.922 0 0 0 .016-.417 3.729 3.729 0 0 0-3.81-4.017 4.055 4.055 0 0 0-4.162 4.151zm4.113-2.945a2.4 2.4 0 0 1 2.449 2.1h-5.074a2.617 2.617 0 0 1 2.622-2.11zm8.512 5.875a1.185 1.185 0 1 0-1.185 1.2 1.207 1.207 0 0 0 1.182-1.209z"/><g id="CTA_copy_9" data-name="CTA copy 9"><path id="Rectangle_4_copy_4" data-name="Rectangle 4 copy 4" d="M29 213.938h102V217H29z"/><path id="Shop_now" data-name="Shop now" class="cls-2" d="M33.347 208.177c2.255 0 3.8-1.378 3.818-3.352a3.346 3.346 0 0 0-2.54-3.245l-.752-.276c-1.127-.413-1.653-.673-1.653-1.255a1.1 1.1 0 0 1 1.293-.827 2.356 2.356 0 0 1 1.849.9l1.563-1.684a4.414 4.414 0 0 0-3.442-1.5c-2.135 0-3.683 1.24-3.683 3.352 0 1.485.962 2.541 2.691 3.138l.752.26c1.067.367 1.488.75 1.488 1.3a1.086 1.086 0 0 1-1.293.9 2.779 2.779 0 0 1-2.21-1.24l-1.834 1.577a4.653 4.653 0 0 0 3.953 1.952zm8.1-.184h2.39v-4.3h4.3v4.3h2.39v-10.868h-2.39v4.256h-4.3v-4.256h-2.39v10.868zm18.883.184a5.618 5.618 0 1 0-5.517-5.618 5.582 5.582 0 0 0 5.522 5.618zm0-2.357a3.265 3.265 0 1 1 3.1-3.261 3.2 3.2 0 0 1-3.095 3.261zm17.185-4.975a3.667 3.667 0 0 0-3.758-3.72h-3.618v10.868h2.39v-3.444h1.233a3.654 3.654 0 0 0 3.758-3.704zm-2.315 0a1.416 1.416 0 0 1-1.473 1.423h-1.2v-2.847h1.2a1.408 1.408 0 0 1 1.473 1.424zm21.649 7.148v-10.868h-2.4v6.705l-5.186-6.705H87.2v10.868h2.39v-6.719l5.2 6.719h2.059zm9.8.184a5.618 5.618 0 1 0-5.516-5.618 5.581 5.581 0 0 0 5.525 5.618zm0-2.357a3.265 3.265 0 1 1 3.1-3.261 3.2 3.2 0 0 1-3.091 3.261zm18.072 2.173H127l2.48-10.868h-2.556l-1.458 6.888-3.006-7.071-2.991 7.071-1.458-6.888h-2.556l2.465 10.868h2.27l2.27-5.327z"/></g></svg>