<svg id="Copy_copy_17" data-name="Copy copy 17" xmlns="http://www.w3.org/2000/svg" width="720" height="229"><defs><style>.cls-2{fill-rule:evenodd}</style></defs><path id="Rectangle_96_copy_5" data-name="Rectangle 96 copy 5" fill="#fff" d="M0 0h720v229H0z"/><path id="PLUSH_WOOL-BLEND_DUSTER_Limited_availability._" data-name="PLUSH WOOL-BLEND DUSTER Limited availability." class="cls-2" d="M44.316 36.862a7.254 7.254 0 0 0-7.5-7.29h-7.23v21.3h4.77v-6.75h2.46a7.229 7.229 0 0 0 7.5-7.26zm-4.62 0a2.8 2.8 0 0 1-2.94 2.79h-2.4v-5.58h2.4a2.785 2.785 0 0 1 2.944 2.79zm9.18 14.009h13.59v-4.56h-8.82V29.572h-4.77v21.3zm25.86.36a8.353 8.353 0 0 0 8.76-8.79V29.572h-4.77V42.5a3.992 3.992 0 1 1-7.98 0V29.572h-4.77v12.869a8.337 8.337 0 0 0 8.76 8.79zm20.88 0c4.5 0 7.59-2.7 7.62-6.57.03-3.21-1.98-5.25-5.07-6.36l-1.5-.54c-2.25-.81-3.3-1.32-3.3-2.46 0-1.11 1.29-1.62 2.58-1.62a4.738 4.738 0 0 1 3.69 1.77l3.12-3.3a8.887 8.887 0 0 0-6.87-2.94c-4.26 0-7.35 2.43-7.35 6.57 0 2.91 1.92 4.98 5.37 6.15l1.5.51c2.13.72 2.97 1.47 2.97 2.55 0 1.02-.99 1.77-2.58 1.77a5.572 5.572 0 0 1-4.41-2.43l-3.66 3.09a9.34 9.34 0 0 0 7.889 3.81zm12.42-.36h4.77v-8.43h8.58v8.43h4.77v-21.3h-4.77v8.34h-8.58v-8.34h-4.77v21.3zm48.449 0h4.53l4.95-21.3h-5.1l-2.91 13.5-6-13.859-5.97 13.859-2.91-13.5h-5.1l4.92 21.3h4.53l4.53-10.44zm23.251.36a11.01 11.01 0 1 0-11.01-11.01 11.036 11.036 0 0 0 11.009 11.01zm0-4.62a6.393 6.393 0 1 1 6.179-6.39 6.32 6.32 0 0 1-6.18 6.39zm25.619 4.62a11.01 11.01 0 1 0-11.009-11.01 11.036 11.036 0 0 0 11.008 11.01zm0-4.62a6.393 6.393 0 1 1 6.18-6.39 6.319 6.319 0 0 1-6.181 6.39zm15.81 4.26h13.59v-4.56h-8.82V29.572h-4.77v21.3zm14.82-8.49h8.82v-4.32h-8.82v4.32zm14.31 8.49h9.359a6.3 6.3 0 0 0 6.48-6.27 5.566 5.566 0 0 0-3.03-5.04 5.013 5.013 0 0 0 1.53-3.66 6.331 6.331 0 0 0-6.329-6.33h-8.01v21.3zm4.77-12.689v-4.26h2.7a2.164 2.164 0 0 1 2.219 2.16 2.134 2.134 0 0 1-2.219 2.1h-2.7zm0 8.31v-4.26h4.17a2.167 2.167 0 0 1 2.249 2.13 2.14 2.14 0 0 1-2.219 2.13h-4.2zm15.78 4.38h13.589v-4.56h-8.819v-16.74h-4.77v21.3zm18.059 0h13.5v-4.56h-8.73V42.5h6.93v-4.56h-6.93v-3.81h8.73v-4.56H288.9v21.3zm37.89 0v-21.3h-4.8v13.139l-10.35-13.139h-4.11v21.3h4.77V37.7l10.38 13.17h4.11zm6 0h7.26a10.652 10.652 0 1 0 0-21.3h-7.26v21.3zm4.77-4.38v-12.54h2.49a6.011 6.011 0 0 1 6.03 6.27 6.011 6.011 0 0 1-6.03 6.27h-2.49zm26.28 4.38h7.256a10.652 10.652 0 1 0 0-21.3h-7.259v21.3zm4.769-4.38v-12.54h2.49a6.011 6.011 0 0 1 6.03 6.27 6.011 6.011 0 0 1-6.03 6.27h-2.49zm26.7 4.74a8.354 8.354 0 0 0 8.76-8.79v-12.87H399.3V42.5a3.992 3.992 0 1 1-7.98 0V29.572h-4.77v12.869a8.338 8.338 0 0 0 8.762 8.79zm20.88 0c4.5 0 7.589-2.7 7.619-6.57.03-3.21-1.979-5.25-5.069-6.36l-1.5-.54c-2.25-.81-3.3-1.32-3.3-2.46 0-1.11 1.29-1.62 2.58-1.62a4.738 4.738 0 0 1 3.69 1.77l3.119-3.3a8.884 8.884 0 0 0-6.869-2.94c-4.26 0-7.35 2.43-7.35 6.57 0 2.91 1.92 4.98 5.37 6.15l1.5.51c2.13.72 2.97 1.47 2.97 2.55 0 1.02-.99 1.77-2.58 1.77a5.573 5.573 0 0 1-4.41-2.43l-3.66 3.09a9.34 9.34 0 0 0 7.889 3.809zm15.96-.36h4.8v-16.74h5.49v-4.56h-15.721v4.56h5.43v16.739zm14.7 0h13.5v-4.56h-8.73V42.5h6.93v-4.56h-6.93v-3.81h8.73v-4.56h-13.5v21.3zm18.63 0h4.769v-8.79h.78l7.08 8.79h5.73l-7.53-9.39c2.7-.96 4.17-2.73 4.17-5.49a6.288 6.288 0 0 0-6.6-6.42h-8.4v21.3zm4.769-12.84v-4.08h3.06c1.41 0 2.43.75 2.43 2.04a2.156 2.156 0 0 1-2.43 2.04h-3.06zM29.029 78.871h7.85v-1.584H30.7v-11.2h-1.671v12.784zm12.384-12.514a1.087 1.087 0 0 0-1.08-1.1 1.118 1.118 0 0 0-1.116 1.1 1.107 1.107 0 0 0 1.116 1.1 1.076 1.076 0 0 0 1.08-1.1zm-1.872 12.514h1.548v-9h-1.548v9zm5.382 0h1.548v-4.465c0-2.035 1.026-3.3 2.485-3.3 1.17 0 1.764 1.008 1.764 2.467v5.294h1.548v-4.461c0-2.035 1.008-3.3 2.467-3.3 1.17 0 1.782 1.008 1.782 2.467v5.294h1.548v-5.524c0-2.2-1.188-3.655-3.151-3.655a3.116 3.116 0 0 0-2.953 1.927 2.83 2.83 0 0 0-2.773-1.927 3.026 3.026 0 0 0-2.719 1.566v-1.386h-1.546v9zm18.7-12.514a1.087 1.087 0 0 0-1.08-1.1 1.118 1.118 0 0 0-1.116 1.1 1.107 1.107 0 0 0 1.116 1.1 1.076 1.076 0 0 0 1.082-1.1zm-1.87 12.514H63.3v-9h-1.547v9zm10.261-.126v-1.386a3.421 3.421 0 0 1-1.1.18 1.3 1.3 0 0 1-1.495-1.531v-4.717h2.593v-1.423h-2.591v-2.5h-1.548v2.5h-1.909v1.422h1.909v4.915a2.534 2.534 0 0 0 2.755 2.755 4.31 4.31 0 0 0 1.386-.215zm2.05-4.375a4.746 4.746 0 0 0 8.715 2.539l-1.224-.846a3.188 3.188 0 0 1-5.924-1.386h7.382a4.368 4.368 0 0 0 .018-.468 4.2 4.2 0 0 0-4.285-4.519 4.562 4.562 0 0 0-4.681 4.68zm4.627-3.313a2.693 2.693 0 0 1 2.755 2.359h-5.707a2.943 2.943 0 0 1 2.953-2.359zm6.73 3.313a4.5 4.5 0 0 0 4.411 4.681A3.948 3.948 0 0 0 93 77.485v1.386h1.549v-13.5H93v5.888a3.948 3.948 0 0 0-3.169-1.566 4.5 4.5 0 0 0-4.409 4.677zm7.706 0a3.075 3.075 0 1 1-3.061-3.259 3.074 3.074 0 0 1 3.063 3.259zm9.825 0a4.505 4.505 0 0 0 4.411 4.681 3.947 3.947 0 0 0 3.169-1.566v1.386h1.549v-9h-1.549v1.386a3.947 3.947 0 0 0-3.169-1.566 4.505 4.505 0 0 0-4.409 4.679zm7.706 0a3.075 3.075 0 1 1-3.061-3.259 3.074 3.074 0 0 1 3.063 3.259zm8.045 4.5H120l4.159-9h-1.728l-3.079 6.806-3.079-6.806h-1.728zm7.037-4.5a4.5 4.5 0 0 0 4.411 4.681 3.948 3.948 0 0 0 3.169-1.566v1.386h1.548v-9h-1.548v1.386a3.948 3.948 0 0 0-3.169-1.566 4.5 4.5 0 0 0-4.409 4.679zm7.706 0a3.075 3.075 0 1 1-3.061-3.259 3.074 3.074 0 0 1 3.063 3.259zm7.108-8.012a1.087 1.087 0 0 0-1.08-1.1 1.118 1.118 0 0 0-1.116 1.1 1.106 1.106 0 0 0 1.116 1.1 1.076 1.076 0 0 0 1.082-1.101zm-1.872 12.514h1.548v-9h-1.548v9zm5.382 0h1.548v-13.5h-1.548v13.5zm4.679-4.5a4.505 4.505 0 0 0 4.412 4.681 3.95 3.95 0 0 0 3.169-1.566v1.386h1.548v-9h-1.548v1.386a3.95 3.95 0 0 0-3.169-1.566 4.505 4.505 0 0 0-4.41 4.677zm7.707 0a3.075 3.075 0 1 1-3.061-3.259 3.074 3.074 0 0 1 3.063 3.257zm6.784 3.115a3.947 3.947 0 0 0 3.169 1.566 4.69 4.69 0 0 0 0-9.363 3.947 3.947 0 0 0-3.169 1.566v-5.889h-1.549v13.5h1.549v-1.382zm6-3.115a3.067 3.067 0 1 1-3.061-3.259 3.074 3.074 0 0 1 3.059 3.257zm6.568-8.012a1.087 1.087 0 0 0-1.081-1.1 1.118 1.118 0 0 0-1.116 1.1 1.106 1.106 0 0 0 1.116 1.1 1.076 1.076 0 0 0 1.079-1.103zm-1.873 12.514h1.549v-9h-1.549v9zm5.382 0h1.548v-13.5h-1.548v13.5zm7.254-12.514a1.087 1.087 0 0 0-1.08-1.1 1.118 1.118 0 0 0-1.116 1.1 1.106 1.106 0 0 0 1.116 1.1 1.076 1.076 0 0 0 1.078-1.103zm-1.872 12.514h1.548v-9h-1.548v9zm10.261-.126v-1.389a3.419 3.419 0 0 1-1.1.18 1.3 1.3 0 0 1-1.5-1.531v-4.717h2.593v-1.423h-2.593v-2.5h-1.548v2.5H188.9v1.422h1.909v4.915a2.534 2.534 0 0 0 2.755 2.755 4.307 4.307 0 0 0 1.388-.215zm5.273 3.889l5.906-12.766H204.4l-3.079 6.824-3.1-6.824h-1.711l3.943 8.535-1.953 4.228h1.728zm9.612-4.97a1.332 1.332 0 1 0-1.332 1.35 1.356 1.356 0 0 0 1.33-1.352z"/><g id="CTA_copy_8" data-name="CTA copy 8"><path id="Rectangle_4_copy_4" data-name="Rectangle 4 copy 4" d="M27 125.938h102V129H27z"/><path id="Shop_now" data-name="Shop now" class="cls-2" d="M31.347 120.177c2.255 0 3.8-1.378 3.818-3.352a3.346 3.346 0 0 0-2.54-3.245l-.752-.276c-1.127-.413-1.654-.673-1.654-1.255a1.1 1.1 0 0 1 1.293-.827 2.356 2.356 0 0 1 1.849.9l1.563-1.684a4.414 4.414 0 0 0-3.442-1.5c-2.134 0-3.683 1.24-3.683 3.352 0 1.485.962 2.541 2.691 3.138l.752.26c1.067.367 1.488.75 1.488 1.3a1.086 1.086 0 0 1-1.293.9 2.779 2.779 0 0 1-2.21-1.24l-1.834 1.577a4.653 4.653 0 0 0 3.954 1.952zm8.1-.184h2.39v-4.3h4.3v4.3h2.39v-10.868h-2.39v4.256h-4.3v-4.256h-2.39v10.868zm18.883.184a5.618 5.618 0 1 0-5.517-5.618 5.582 5.582 0 0 0 5.522 5.618zm0-2.357a3.265 3.265 0 1 1 3.1-3.261 3.2 3.2 0 0 1-3.095 3.261zm17.185-4.975a3.667 3.667 0 0 0-3.758-3.72h-3.618v10.868h2.39v-3.444h1.233a3.654 3.654 0 0 0 3.758-3.704zm-2.315 0a1.416 1.416 0 0 1-1.473 1.423h-1.2v-2.847h1.2a1.408 1.408 0 0 1 1.473 1.424zm21.649 7.148v-10.868h-2.4v6.7l-5.186-6.7H85.2v10.868h2.39v-6.719l5.2 6.719h2.059zm9.8.184a5.618 5.618 0 1 0-5.516-5.618 5.581 5.581 0 0 0 5.525 5.618zm0-2.357a3.265 3.265 0 1 1 3.1-3.261 3.2 3.2 0 0 1-3.091 3.261zm18.072 2.173H125l2.48-10.868h-2.556l-1.458 6.888-3.006-7.071-2.991 7.071-1.458-6.888h-2.556l2.465 10.868h2.27l2.27-5.327z"/></g></svg>