<svg data-name="Quote copy" xmlns="http://www.w3.org/2000/svg" width="720" height="388"><path data-name="Rectangle 96 copy" fill="#9a927f" d="M0 0h720v388H0z"/><path data-name="“Don’t overthink it.”" d="M235.7 149.466a2.119 2.119 0 0 0-.325 1.125 1.851 1.851 0 1 0 3.7 0 1.907 1.907 0 0 0-1.026-1.675l1.676-3.577H238.3zm4.652 0a2.119 2.119 0 0 0-.325 1.125 1.851 1.851 0 1 0 3.7 0 1.907 1.907 0 0 0-1.025-1.675l1.676-3.577h-1.426zm8.5 13.63h5.1c5.452 0 9.454-3.8 9.454-8.878s-4-8.879-9.454-8.879h-5.1V163.1zm2.326-2.176v-13.4h2.776c4.277 0 7.1 2.851 7.1 6.7s-2.826 6.7-7.1 6.7h-2.776zm28.7-4.076a6.54 6.54 0 1 0-6.528 6.5 6.417 6.417 0 0 0 6.526-6.5zm-10.879 0a4.342 4.342 0 1 1 4.351 4.5 4.3 4.3 0 0 1-4.35-4.5zm15.2 6.252h2.151v-6.2c0-2.926 1.6-4.577 3.626-4.577 1.751 0 2.951 1.3 2.951 3.4v7.381h2.126v-7.7c0-3.1-1.926-5.052-4.727-5.052a4.422 4.422 0 0 0-3.976 2.176v-1.926h-2.15v12.5zm18.826-15.056a2.21 2.21 0 0 0 .35-1.125 1.863 1.863 0 1 0-3.726 0 1.94 1.94 0 0 0 1.025 1.676L299 152.167h1.451zm11.175 14.881V161a4.752 4.752 0 0 1-1.525.25c-1.351 0-2.076-.525-2.076-2.125v-6.553h3.6v-1.976h-3.6v-3.476h-2.151v3.476H305.8v1.976h2.651v6.828a3.52 3.52 0 0 0 3.826 3.826 5.984 5.984 0 0 0 1.923-.305zm23.427-6.077a6.54 6.54 0 1 0-6.528 6.5 6.417 6.417 0 0 0 6.526-6.5zm-10.879 0a4.342 4.342 0 1 1 4.351 4.5 4.3 4.3 0 0 1-4.353-4.5zm18.826 6.252h1.8l5.778-12.5h-2.4l-4.277 9.454-4.276-9.454h-2.4zm9.748-6.252a6.593 6.593 0 0 0 12.105 3.526l-1.7-1.175a4.428 4.428 0 0 1-8.228-1.926h10.251a6.1 6.1 0 0 0 .025-.65c-.025-4-2.676-6.278-5.953-6.278a6.337 6.337 0 0 0-6.502 6.503zm6.427-4.6a3.741 3.741 0 0 1 3.827 3.276h-7.928a4.087 4.087 0 0 1 4.099-3.278zM372.07 163.1h2.151v-6.2c0-2.926 1.726-4.3 3.3-4.3a3.148 3.148 0 0 1 1.176.2v-2.226a4.463 4.463 0 0 0-.976-.1 3.721 3.721 0 0 0-3.5 2.551v-2.426h-2.151v12.5zm17.178-.175V161a4.758 4.758 0 0 1-1.526.25c-1.35 0-2.076-.525-2.076-2.125v-6.553h3.6v-1.976h-3.6v-3.476H383.5v3.476h-2.651v1.976h2.651v6.828a3.519 3.519 0 0 0 3.826 3.826 5.993 5.993 0 0 0 1.922-.305zm4 .175h2.152v-6.2c0-2.926 1.6-4.577 3.626-4.577 1.751 0 2.951 1.3 2.951 3.4v7.377h2.123v-7.7c0-3.1-1.926-5.052-4.727-5.052a4.423 4.423 0 0 0-3.976 2.176v-8.178h-2.151V163.1zm18.576-17.381a1.51 1.51 0 0 0-1.5-1.526 1.553 1.553 0 0 0-1.55 1.526 1.537 1.537 0 0 0 1.55 1.525 1.494 1.494 0 0 0 1.497-1.529zm-2.6 17.381h2.151v-12.5h-2.155v12.5zm7.475 0h2.15v-6.2c0-2.926 1.6-4.577 3.627-4.577 1.75 0 2.951 1.3 2.951 3.4v7.377h2.126v-7.7c0-3.1-1.926-5.052-4.727-5.052a4.424 4.424 0 0 0-3.977 2.176v-1.926H416.7v12.5zm15.974 0h2.151v-6.252l6.776 6.252h2.9l-7.528-6.978 6.152-5.527h-2.851l-5.452 4.877v-11.133h-2.151V163.1zm24.176-17.381a1.51 1.51 0 0 0-1.5-1.526 1.553 1.553 0 0 0-1.55 1.526 1.537 1.537 0 0 0 1.55 1.525 1.494 1.494 0 0 0 1.496-1.529zm-2.6 17.381h2.151v-12.5h-2.151v12.5zm14.252-.175V161a4.752 4.752 0 0 1-1.525.25c-1.351 0-2.076-.525-2.076-2.125v-6.553h3.6v-1.976h-3.6v-3.476h-2.151v3.476h-2.651v1.976h2.651v6.828a3.52 3.52 0 0 0 3.827 3.826 5.982 5.982 0 0 0 1.924-.305zm6.974-1.5a1.851 1.851 0 1 0-1.851 1.876 1.884 1.884 0 0 0 1.846-1.881zm4.75-13.38a2.21 2.21 0 0 0 .35-1.125 1.863 1.863 0 1 0-3.726 0 1.94 1.94 0 0 0 1.025 1.676l-1.675 3.576h1.45zm4.652 0a2.21 2.21 0 0 0 .35-1.125 1.863 1.863 0 1 0-3.726 0 1.94 1.94 0 0 0 1.025 1.676l-1.676 3.576h1.45z" fill-rule="evenodd" fill="#fff"/><path data-name="Rectangle 4 copy 5" fill="#fff" d="M173 193h375v50H173z"/><path data-name="Shop our Icon Collection" d="M224.347 224.177c2.255 0 3.8-1.378 3.818-3.352a3.346 3.346 0 0 0-2.54-3.245l-.752-.276c-1.127-.413-1.653-.673-1.653-1.255a1.1 1.1 0 0 1 1.292-.827 2.356 2.356 0 0 1 1.849.9l1.564-1.684a4.415 4.415 0 0 0-3.443-1.5c-2.134 0-3.682 1.24-3.682 3.352 0 1.485.962 2.541 2.69 3.138l.752.26c1.067.367 1.488.75 1.488 1.3a1.086 1.086 0 0 1-1.293.9 2.779 2.779 0 0 1-2.209-1.24l-1.834 1.577a4.652 4.652 0 0 0 3.953 1.952zm8.1-.184h2.39v-4.3h4.3v4.3h2.39v-10.868h-2.39v4.256h-4.3v-4.256h-2.39v10.868zm18.883.184a5.618 5.618 0 1 0-5.517-5.618 5.582 5.582 0 0 0 5.522 5.618zm0-2.357a3.265 3.265 0 1 1 3.1-3.261 3.2 3.2 0 0 1-3.095 3.261zm17.185-4.975a3.667 3.667 0 0 0-3.758-3.72h-3.623v10.868h2.39v-3.444h1.233a3.654 3.654 0 0 0 3.763-3.704zm-2.315 0a1.416 1.416 0 0 1-1.473 1.423h-1.2v-2.847h1.2a1.408 1.408 0 0 1 1.478 1.424zm16.914 7.332a5.618 5.618 0 1 0-5.517-5.618 5.581 5.581 0 0 0 5.522 5.618zm0-2.357a3.265 3.265 0 1 1 3.1-3.261 3.2 3.2 0 0 1-3.095 3.261zm14.073 2.357a4.224 4.224 0 0 0 4.389-4.485v-6.567h-2.39v6.6a2 2 0 1 1-4 0v-6.6H292.8v6.567a4.217 4.217 0 0 0 4.392 4.485zm9.158-.184h2.39v-4.485h.39l3.548 4.485h2.871l-3.773-4.791a2.8 2.8 0 0 0 2.089-2.8 3.179 3.179 0 0 0-3.307-3.276h-4.203v10.868zm2.39-6.551v-2.082h1.533a1.07 1.07 0 0 1 1.217 1.041 1.087 1.087 0 0 1-1.217 1.041h-1.528zm15.832 6.551h2.39v-10.868h-2.39v10.868zm12.193.184a5.5 5.5 0 0 0 4.99-2.97l-2.1-1.163a3.165 3.165 0 0 1-2.886 1.776 3.264 3.264 0 0 1 0-6.521 3.165 3.165 0 0 1 2.886 1.776l2.1-1.164a5.5 5.5 0 0 0-4.99-2.969 5.618 5.618 0 0 0 .005 11.235zm13.937 0a5.618 5.618 0 1 0-5.516-5.618 5.581 5.581 0 0 0 5.519 5.618zm0-2.357a3.265 3.265 0 1 1 3.1-3.261 3.2 3.2 0 0 1-3.097 3.261zm19.455 2.173v-10.868h-2.4v6.705l-5.186-6.705h-2.06v10.868h2.39v-6.719l5.2 6.719h2.06zm15.743.184a5.5 5.5 0 0 0 4.99-2.97l-2.1-1.163a3.165 3.165 0 0 1-2.886 1.776 3.264 3.264 0 0 1 0-6.521 3.165 3.165 0 0 1 2.886 1.776l2.1-1.164a5.5 5.5 0 0 0-4.99-2.969 5.618 5.618 0 0 0 .005 11.235zm13.937 0a5.618 5.618 0 1 0-5.516-5.618 5.581 5.581 0 0 0 5.521 5.618zm0-2.357a3.265 3.265 0 1 1 3.1-3.261 3.2 3.2 0 0 1-3.095 3.261zm9.8 2.173h6.81v-2.327h-4.42v-8.541h-2.39v10.868zm10.931 0h6.809v-2.327h-4.419v-8.541h-2.39v10.868zm10.93 0h6.765v-2.327h-4.375v-1.943h3.473V217.4h-3.473v-1.944h4.375v-2.327H431.5v10.868zm15.862.184a5.5 5.5 0 0 0 4.99-2.97l-2.1-1.163a3.165 3.165 0 0 1-2.886 1.776 3.264 3.264 0 0 1 0-6.521 3.165 3.165 0 0 1 2.886 1.776l2.1-1.164a5.5 5.5 0 0 0-4.99-2.969 5.618 5.618 0 0 0 .009 11.235zm10.946-.184h2.4v-8.541h2.751v-2.327h-7.877v2.327h2.721v8.541zm9.247 0h2.39v-10.868h-2.39v10.868zm12.193.184a5.618 5.618 0 1 0-5.517-5.618 5.581 5.581 0 0 0 5.526 5.618zm0-2.357a3.265 3.265 0 1 1 3.1-3.261 3.2 3.2 0 0 1-3.091 3.261zm19.454 2.173v-10.868H496.8v6.705l-5.186-6.705h-2.059v10.868h2.39v-6.719l5.2 6.719h2.055z" fill-rule="evenodd"/></svg>