<svg id="Quote_copy" data-name="Quote copy" xmlns="http://www.w3.org/2000/svg" width="720" height="388" viewBox="0 0 720 388">
  <metadata><?xpacket begin="﻿" id="W5M0MpCehiHzreSzNTczkc9d"?>
<x:xmpmeta xmlns:x="adobe:ns:meta/" x:xmptk="Adobe XMP Core 5.6-c138 79.159824, 2016/09/14-01:09:01        ">
   <rdf:RDF xmlns:rdf="http://www.w3.org/1999/02/22-rdf-syntax-ns#">
      <rdf:Description rdf:about=""/>
   </rdf:RDF>
</x:xmpmeta>
                                                                                                    
                                                                                                    
                                                                                                    
                                                                                                    
                                                                                                    
                                                                                                    
                                                                                                    
                                                                                                    
                                                                                                    
                                                                                                    
                                                                                                    
                                                                                                    
                                                                                                    
                                                                                                    
                                                                                                    
                                                                                                    
                                                                                                    
                                                                                                    
                                                                                                    
                                                                                                    
                           
<?xpacket end="w"?></metadata>
<defs>
    <style>
      .cls-1 {
        fill: #9a927f;
      }

      .cls-2, .cls-3 {
        fill: #fff;
      }

      .cls-2, .cls-4 {
        fill-rule: evenodd;
      }
    </style>
  </defs>
  <rect id="Rectangle_96_copy" data-name="Rectangle 96 copy" class="cls-1" width="720" height="388"/>
  <g>
    <path id="_Don_t_overthink_it._" data-name="“Don’t overthink it.”" class="cls-2" d="M235.7,149.466a2.119,2.119,0,0,0-.325,1.125,1.851,1.851,0,1,0,3.7,0,1.907,1.907,0,0,0-1.026-1.675l1.676-3.577H238.3Zm4.652,0a2.119,2.119,0,0,0-.325,1.125,1.851,1.851,0,1,0,3.7,0,1.907,1.907,0,0,0-1.025-1.675l1.676-3.577h-1.426Zm8.5,13.63h5.1c5.452,0,9.454-3.8,9.454-8.878s-4-8.879-9.454-8.879h-5.1V163.1Zm2.326-2.176v-13.4h2.776c4.277,0,7.1,2.851,7.1,6.7s-2.826,6.7-7.1,6.7h-2.776Zm28.7-4.076a6.54,6.54,0,1,0-6.528,6.5A6.417,6.417,0,0,0,279.876,156.844Zm-10.879,0a4.342,4.342,0,1,1,4.351,4.5A4.3,4.3,0,0,1,269,156.844Zm15.2,6.252h2.151v-6.2c0-2.926,1.6-4.577,3.626-4.577,1.751,0,2.951,1.3,2.951,3.4V163.1h2.126v-7.7c0-3.1-1.926-5.052-4.727-5.052a4.422,4.422,0,0,0-3.976,2.176v-1.926H284.2v12.5Zm18.826-15.056a2.21,2.21,0,0,0,.35-1.125,1.863,1.863,0,1,0-3.726,0,1.94,1.94,0,0,0,1.025,1.676L299,152.167h1.451ZM314.2,162.921V161a4.752,4.752,0,0,1-1.525.25c-1.351,0-2.076-.525-2.076-2.125v-6.553h3.6v-1.976h-3.6v-3.476h-2.151v3.476H305.8v1.976h2.651V159.4a3.52,3.52,0,0,0,3.826,3.826A5.984,5.984,0,0,0,314.2,162.921Zm23.427-6.077a6.54,6.54,0,1,0-6.528,6.5A6.417,6.417,0,0,0,337.625,156.844Zm-10.879,0a4.342,4.342,0,1,1,4.351,4.5A4.3,4.3,0,0,1,326.746,156.844Zm18.826,6.252h1.8l5.778-12.5h-2.4l-4.277,9.454-4.276-9.454h-2.4Zm9.748-6.252a6.593,6.593,0,0,0,12.105,3.526l-1.7-1.175a4.428,4.428,0,0,1-8.228-1.926H367.75a6.1,6.1,0,0,0,.025-0.65c-0.025-4-2.676-6.278-5.953-6.278A6.337,6.337,0,0,0,355.32,156.844Zm6.427-4.6a3.741,3.741,0,0,1,3.827,3.276h-7.928A4.087,4.087,0,0,1,361.747,152.242ZM372.07,163.1h2.151v-6.2c0-2.926,1.726-4.3,3.3-4.3a3.148,3.148,0,0,1,1.176.2v-2.226a4.463,4.463,0,0,0-.976-0.1,3.721,3.721,0,0,0-3.5,2.551v-2.426H372.07v12.5Zm17.178-.175V161a4.758,4.758,0,0,1-1.526.25c-1.35,0-2.076-.525-2.076-2.125v-6.553h3.6v-1.976h-3.6v-3.476H383.5v3.476h-2.651v1.976H383.5V159.4a3.519,3.519,0,0,0,3.826,3.826A5.993,5.993,0,0,0,389.248,162.921Zm4,0.175H395.4v-6.2c0-2.926,1.6-4.577,3.626-4.577,1.751,0,2.951,1.3,2.951,3.4V163.1H404.1v-7.7c0-3.1-1.926-5.052-4.727-5.052a4.423,4.423,0,0,0-3.976,2.176v-8.178h-2.151V163.1Zm18.576-17.381a1.51,1.51,0,0,0-1.5-1.526,1.553,1.553,0,0,0-1.55,1.526,1.537,1.537,0,0,0,1.55,1.525A1.494,1.494,0,0,0,411.821,145.715Zm-2.6,17.381h2.151v-12.5H409.22v12.5Zm7.475,0h2.15v-6.2c0-2.926,1.6-4.577,3.627-4.577,1.75,0,2.951,1.3,2.951,3.4V163.1h2.126v-7.7c0-3.1-1.926-5.052-4.727-5.052a4.424,4.424,0,0,0-3.977,2.176v-1.926H416.7v12.5Zm15.974,0h2.151v-6.252L441.6,163.1h2.9l-7.528-6.978,6.152-5.527h-2.851l-5.452,4.877V144.339h-2.151V163.1Zm24.176-17.381a1.51,1.51,0,0,0-1.5-1.526,1.553,1.553,0,0,0-1.55,1.526,1.537,1.537,0,0,0,1.55,1.525A1.494,1.494,0,0,0,456.845,145.715Zm-2.6,17.381H456.4v-12.5h-2.151v12.5Zm14.252-.175V161a4.752,4.752,0,0,1-1.525.25c-1.351,0-2.076-.525-2.076-2.125v-6.553h3.6v-1.976h-3.6v-3.476h-2.151v3.476h-2.651v1.976h2.651V159.4a3.52,3.52,0,0,0,3.827,3.826A5.982,5.982,0,0,0,468.5,162.921Zm6.974-1.5a1.851,1.851,0,1,0-1.851,1.876A1.884,1.884,0,0,0,475.47,161.42Zm4.75-13.38a2.21,2.21,0,0,0,.35-1.125,1.863,1.863,0,1,0-3.726,0,1.94,1.94,0,0,0,1.025,1.676l-1.675,3.576h1.45Zm4.652,0a2.21,2.21,0,0,0,.35-1.125,1.863,1.863,0,1,0-3.726,0,1.94,1.94,0,0,0,1.025,1.676l-1.676,3.576H482.3Z"/>
    <rect id="Rectangle_4_copy_5" data-name="Rectangle 4 copy 5" class="cls-3" x="173" y="193" width="375" height="50"/>
    <path id="Shop_our_Icon_Collection" data-name="Shop our Icon Collection" class="cls-4" d="M224.347,224.177c2.255,0,3.8-1.378,3.818-3.352a3.346,3.346,0,0,0-2.54-3.245l-0.752-.276c-1.127-.413-1.653-0.673-1.653-1.255a1.1,1.1,0,0,1,1.292-.827,2.356,2.356,0,0,1,1.849.9l1.564-1.684a4.415,4.415,0,0,0-3.443-1.5c-2.134,0-3.682,1.24-3.682,3.352,0,1.485.962,2.541,2.69,3.138l0.752,0.26c1.067,0.367,1.488.75,1.488,1.3a1.086,1.086,0,0,1-1.293.9,2.779,2.779,0,0,1-2.209-1.24l-1.834,1.577A4.652,4.652,0,0,0,224.347,224.177Zm8.1-.184h2.39v-4.3h4.3v4.3h2.39V213.125h-2.39v4.256h-4.3v-4.256h-2.39v10.868Zm18.883,0.184a5.618,5.618,0,1,0-5.517-5.618A5.582,5.582,0,0,0,251.335,224.177Zm0-2.357a3.265,3.265,0,1,1,3.1-3.261A3.2,3.2,0,0,1,251.335,221.82Zm17.185-4.975a3.667,3.667,0,0,0-3.758-3.72h-3.623v10.868h2.39v-3.444h1.233A3.654,3.654,0,0,0,268.52,216.845Zm-2.315,0a1.416,1.416,0,0,1-1.473,1.423h-1.2v-2.847h1.2A1.408,1.408,0,0,1,266.205,216.845Zm16.914,7.332a5.618,5.618,0,1,0-5.517-5.618A5.581,5.581,0,0,0,283.119,224.177Zm0-2.357a3.265,3.265,0,1,1,3.1-3.261A3.2,3.2,0,0,1,283.119,221.82Zm14.073,2.357a4.224,4.224,0,0,0,4.389-4.485v-6.567h-2.39v6.6a2,2,0,1,1-4,0v-6.6H292.8v6.567A4.217,4.217,0,0,0,297.192,224.177Zm9.158-.184h2.39v-4.485h0.39l3.548,4.485h2.871l-3.773-4.791a2.8,2.8,0,0,0,2.089-2.8,3.179,3.179,0,0,0-3.307-3.276H306.35v10.868Zm2.39-6.551V215.36h1.533a1.07,1.07,0,0,1,1.217,1.041,1.087,1.087,0,0,1-1.217,1.041H308.74Zm15.832,6.551h2.39V213.125h-2.39v10.868Zm12.193,0.184a5.5,5.5,0,0,0,4.99-2.97l-2.1-1.163a3.165,3.165,0,0,1-2.886,1.776,3.264,3.264,0,0,1,0-6.521,3.165,3.165,0,0,1,2.886,1.776l2.1-1.164a5.5,5.5,0,0,0-4.99-2.969A5.618,5.618,0,0,0,336.765,224.177Zm13.937,0a5.618,5.618,0,1,0-5.516-5.618A5.581,5.581,0,0,0,350.7,224.177Zm0-2.357a3.265,3.265,0,1,1,3.1-3.261A3.2,3.2,0,0,1,350.7,221.82Zm19.455,2.173V213.125h-2.4v6.705l-5.186-6.705h-2.06v10.868h2.39v-6.719l5.2,6.719h2.06Zm15.743,0.184a5.5,5.5,0,0,0,4.99-2.97l-2.1-1.163a3.165,3.165,0,0,1-2.886,1.776,3.264,3.264,0,0,1,0-6.521,3.165,3.165,0,0,1,2.886,1.776l2.1-1.164a5.5,5.5,0,0,0-4.99-2.969A5.618,5.618,0,0,0,385.9,224.177Zm13.937,0a5.618,5.618,0,1,0-5.516-5.618A5.581,5.581,0,0,0,399.837,224.177Zm0-2.357a3.265,3.265,0,1,1,3.1-3.261A3.2,3.2,0,0,1,399.837,221.82Zm9.8,2.173h6.81v-2.327h-4.42v-8.541h-2.39v10.868Zm10.931,0h6.809v-2.327h-4.419v-8.541h-2.39v10.868Zm10.93,0h6.765v-2.327h-4.375v-1.943h3.473V217.4h-3.473v-1.944h4.375v-2.327H431.5v10.868Zm15.862,0.184a5.5,5.5,0,0,0,4.99-2.97l-2.1-1.163a3.165,3.165,0,0,1-2.886,1.776,3.264,3.264,0,0,1,0-6.521,3.165,3.165,0,0,1,2.886,1.776l2.1-1.164a5.5,5.5,0,0,0-4.99-2.969A5.618,5.618,0,0,0,447.364,224.177Zm10.946-.184h2.4v-8.541h2.751v-2.327h-7.877v2.327h2.721v8.541Zm9.247,0h2.39V213.125h-2.39v10.868Zm12.193,0.184a5.618,5.618,0,1,0-5.517-5.618A5.581,5.581,0,0,0,479.75,224.177Zm0-2.357a3.265,3.265,0,1,1,3.1-3.261A3.2,3.2,0,0,1,479.75,221.82Zm19.454,2.173V213.125H496.8v6.705l-5.186-6.705h-2.059v10.868h2.39v-6.719l5.2,6.719H499.2Z"/>
  </g>
</svg>
