<svg id="Center_Creative_copy" data-name="Center Creative copy" xmlns="http://www.w3.org/2000/svg" width="1360" height="723" viewBox="0 0 1360 723">
  <defs>
    <style>
      .cls-1, .cls-2, .cls-3 {
        fill-rule: evenodd;
      }

      .cls-2, .cls-3 {
        fill: #fff;
      }

      .cls-3, .cls-4 {
        opacity: 0.77;
      }

      .cls-4 {
        fill: none;
        stroke: #fff;
        stroke-width: 5px;
      }
    </style>
  </defs>
  <g id="copy">
    <path id="Banana_Republic_was_born_from_two_California_creatives_fueled_b" data-name="Banana Republic was born from two California creatives fueled b" class="cls-1" d="M30.891,593.146h4.065c2.3,0,3.809-1.424,3.809-3.312a2.709,2.709,0,0,0-1.968-2.721,2.575,2.575,0,0,0,1.216-2.32,3.111,3.111,0,0,0-3.392-3.008H30.891v11.361Zm1.488-6.481v-3.536h2.24a1.786,1.786,0,0,1,1.936,1.776,1.749,1.749,0,0,1-1.936,1.76h-2.24Zm0,5.137v-3.856h2.656c1.5,0,2.272.832,2.272,1.936,0,1.12-.768,1.92-2.288,1.92h-2.64Zm8.144-2.656a4,4,0,0,0,3.921,4.16,3.509,3.509,0,0,0,2.816-1.392v1.232h1.376v-8H47.26v1.232a3.509,3.509,0,0,0-2.816-1.392A4,4,0,0,0,40.523,589.146Zm6.849,0a2.733,2.733,0,1,1-2.72-2.9A2.732,2.732,0,0,1,47.372,589.146Zm4.255,4H53v-3.968c0-1.872,1.024-2.929,2.32-2.929a1.921,1.921,0,0,1,1.888,2.177v4.72h1.36v-4.928a2.949,2.949,0,0,0-3.024-3.233A2.83,2.83,0,0,0,53,586.377v-1.232H51.626v8Zm9.2-4a4,4,0,0,0,3.921,4.16,3.509,3.509,0,0,0,2.816-1.392v1.232h1.376v-8H67.563v1.232a3.509,3.509,0,0,0-2.816-1.392A4,4,0,0,0,60.826,589.146Zm6.849,0a2.733,2.733,0,1,1-2.72-2.9A2.732,2.732,0,0,1,67.675,589.146Zm4.255,4h1.376v-3.968c0-1.872,1.024-2.929,2.32-2.929a1.921,1.921,0,0,1,1.888,2.177v4.72h1.36v-4.928a2.949,2.949,0,0,0-3.024-3.233,2.829,2.829,0,0,0-2.544,1.392v-1.232H71.93v8Zm9.2-4a4,4,0,0,0,3.92,4.16,3.509,3.509,0,0,0,2.816-1.392v1.232h1.376v-8H87.867v1.232a3.509,3.509,0,0,0-2.816-1.392A4,4,0,0,0,81.13,589.146Zm6.849,0a2.733,2.733,0,1,1-2.72-2.9A2.732,2.732,0,0,1,87.979,589.146Zm8.767,4h1.488v-5.168h1.1l4.369,5.168h1.872l-4.369-5.184a2.965,2.965,0,0,0,2.8-3.041,3.065,3.065,0,0,0-3.393-3.136H96.746v11.361Zm1.488-6.5v-3.488h2.208c1.3,0,2.08.608,2.08,1.76,0,1.136-.784,1.728-2.08,1.728H98.234Zm8,2.5a4.219,4.219,0,0,0,7.746,2.256l-1.089-.752a2.832,2.832,0,0,1-5.264-1.232h6.561A3.9,3.9,0,0,0,114.2,589a3.729,3.729,0,0,0-3.809-4.017A4.055,4.055,0,0,0,106.233,589.146Zm4.113-2.945a2.394,2.394,0,0,1,2.448,2.1h-5.072A2.615,2.615,0,0,1,110.346,586.2Zm6.207,10.29h1.377v-4.577a3.508,3.508,0,0,0,2.816,1.392,4.168,4.168,0,0,0,0-8.321,3.508,3.508,0,0,0-2.816,1.392v-1.232h-1.377v11.346Zm6.7-7.345a2.725,2.725,0,1,1-2.72-2.9A2.731,2.731,0,0,1,123.258,589.146Zm3.679,0.912a2.921,2.921,0,0,0,2.945,3.248,2.752,2.752,0,0,0,2.464-1.392v1.232h1.376v-8h-1.376v3.969c0,1.84-.976,2.928-2.224,2.928-1.1,0-1.808-.848-1.808-2.192v-4.705h-1.377v4.913Zm11.152,1.856a3.512,3.512,0,0,0,2.817,1.392,4.168,4.168,0,0,0,0-8.321,3.512,3.512,0,0,0-2.817,1.392v-5.232h-1.376v12h1.376v-1.232Zm5.329-2.768a2.726,2.726,0,1,1-2.72-2.9A2.731,2.731,0,0,1,143.418,589.146Zm3.775,4h1.376v-12h-1.376v12Zm6.048-11.121a0.966,0.966,0,0,0-.96-0.976,0.994,0.994,0,0,0-.992.976,0.983,0.983,0,0,0,.992.976A0.956,0.956,0,0,0,153.241,582.025Zm-1.664,11.121h1.376v-8h-1.376v8Zm11.649-1.984-1.2-.672a2.712,2.712,0,0,1-2.5,1.536,2.882,2.882,0,0,1,0-5.761,2.711,2.711,0,0,1,2.5,1.537l1.2-.673a4.143,4.143,0,0,0-3.7-2.144,4.161,4.161,0,1,0,0,8.321A4.143,4.143,0,0,0,163.226,591.162Zm12.976,1.984h1.216l2.72-8h-1.456l-1.936,5.841-2-5.841h-1.056l-2,5.841-1.936-5.841h-1.441l2.721,8h1.216l1.984-5.76Zm5.166-4a4,4,0,0,0,3.921,4.16,3.508,3.508,0,0,0,2.816-1.392v1.232h1.376v-8h-1.376v1.232a3.508,3.508,0,0,0-2.816-1.392A4,4,0,0,0,181.368,589.146Zm6.849,0a2.733,2.733,0,1,1-2.72-2.9A2.731,2.731,0,0,1,188.217,589.146Zm9.44,1.776c0-1.2-.752-1.968-2.112-2.416l-0.864-.288c-0.945-.3-1.233-0.608-1.233-1.121a1.133,1.133,0,0,1,1.345-.928,2.161,2.161,0,0,1,1.7.832l0.9-.864a3.1,3.1,0,0,0-2.56-1.152c-1.585,0-2.7.88-2.7,2.176a2.415,2.415,0,0,0,1.984,2.321l0.785,0.256c1.04,0.336,1.424.72,1.424,1.28a1.218,1.218,0,0,1-1.408,1.088,2.147,2.147,0,0,1-2.049-1.264l-1.12.608a3.178,3.178,0,0,0,3.137,1.856C196.489,593.306,197.657,592.49,197.657,590.922Zm8.047,0.992a3.508,3.508,0,0,0,2.816,1.392,4.168,4.168,0,0,0,0-8.321,3.508,3.508,0,0,0-2.816,1.392v-5.232h-1.376v12H205.7v-1.232Zm5.329-2.768a2.726,2.726,0,1,1-2.721-2.9A2.732,2.732,0,0,1,211.033,589.146Zm11.5,0a4.185,4.185,0,1,0-4.177,4.16A4.106,4.106,0,0,0,222.537,589.146Zm-6.961,0a2.778,2.778,0,1,1,2.784,2.88A2.751,2.751,0,0,1,215.576,589.146Zm9.328,4h1.376v-3.968c0-1.872,1.1-2.753,2.112-2.753a2.011,2.011,0,0,1,.752.128v-1.424a2.851,2.851,0,0,0-.624-0.064,2.38,2.38,0,0,0-2.24,1.632v-1.552H224.9v8Zm6.255,0h1.377v-3.968c0-1.872,1.024-2.929,2.32-2.929a1.921,1.921,0,0,1,1.888,2.177v4.72h1.36v-4.928a2.949,2.949,0,0,0-3.024-3.233,2.829,2.829,0,0,0-2.544,1.392v-1.232h-1.377v8Zm14.592,0h1.377v-6.737h2.32v-1.264h-2.32v-1.472a1.152,1.152,0,0,1,1.328-1.36,3.222,3.222,0,0,1,.992.16v-1.216a3.636,3.636,0,0,0-1.248-.208,2.285,2.285,0,0,0-2.449,2.48v1.616h-1.7v1.264h1.7v6.737Zm5.6,0h1.376v-3.968c0-1.872,1.1-2.753,2.113-2.753a2.011,2.011,0,0,1,.752.128v-1.424a2.851,2.851,0,0,0-.624-0.064,2.381,2.381,0,0,0-2.241,1.632v-1.552h-1.376v8Zm13.7-4a4.185,4.185,0,1,0-4.176,4.16A4.106,4.106,0,0,0,265.048,589.146Zm-6.961,0a2.778,2.778,0,1,1,2.785,2.88A2.751,2.751,0,0,1,258.087,589.146Zm9.328,4h1.376v-3.968c0-1.808.912-2.929,2.209-2.929,1.04,0,1.568.9,1.568,2.193v4.7h1.376v-3.968c0-1.808.9-2.929,2.192-2.929,1.04,0,1.585.9,1.585,2.193v4.7H279.1v-4.912c0-1.953-1.056-3.249-2.8-3.249a2.769,2.769,0,0,0-2.624,1.712,2.515,2.515,0,0,0-2.464-1.712,2.689,2.689,0,0,0-2.417,1.392v-1.232h-1.376v8Zm22.928-.112V591.8a3.041,3.041,0,0,1-.976.16,1.152,1.152,0,0,1-1.328-1.36v-4.193h2.3v-1.264h-2.3v-2.224h-1.376v2.224h-1.7v1.264h1.7v4.369a2.252,2.252,0,0,0,2.448,2.448A3.828,3.828,0,0,0,290.343,593.034Zm8.945,0.112H300.5l2.72-8h-1.456l-1.936,5.841-2-5.841h-1.057l-2,5.841-1.936-5.841H291.4l2.72,8h1.216l1.984-5.76Zm13.52-4a4.185,4.185,0,1,0-4.177,4.16A4.107,4.107,0,0,0,312.808,589.146Zm-6.961,0a2.778,2.778,0,1,1,2.784,2.88A2.751,2.751,0,0,1,305.847,589.146Zm13.055-1.68a5.905,5.905,0,0,0,10.9,3.12l-1.249-.752a4.465,4.465,0,1,1,0-4.737l1.249-.752A5.905,5.905,0,0,0,318.9,587.466Zm12.432,1.68a4,4,0,0,0,3.92,4.16,3.509,3.509,0,0,0,2.817-1.392v1.232h1.376v-8h-1.376v1.232a3.509,3.509,0,0,0-2.817-1.392A4,4,0,0,0,331.334,589.146Zm6.849,0a2.733,2.733,0,1,1-2.72-2.9A2.731,2.731,0,0,1,338.183,589.146Zm4.255,4h1.376v-12h-1.376v12Zm6.048-11.121a0.966,0.966,0,0,0-.96-0.976,0.994,0.994,0,0,0-.992.976,0.983,0.983,0,0,0,.992.976A0.956,0.956,0,0,0,348.486,582.025Zm-1.664,11.121H348.2v-8h-1.376v8Zm5.056,0h1.376v-6.737h2.32v-1.264h-2.32v-1.472a1.152,1.152,0,0,1,1.328-1.36,3.222,3.222,0,0,1,.992.16v-1.216a3.636,3.636,0,0,0-1.248-.208,2.285,2.285,0,0,0-2.448,2.48v1.616h-1.7v1.264h1.7v6.737Zm13.121-4a4.185,4.185,0,1,0-4.177,4.16A4.106,4.106,0,0,0,365,589.146Zm-6.961,0a2.778,2.778,0,1,1,2.784,2.88A2.751,2.751,0,0,1,358.038,589.146Zm9.327,4h1.377v-3.968c0-1.872,1.1-2.753,2.112-2.753a2.011,2.011,0,0,1,.752.128v-1.424a2.851,2.851,0,0,0-.624-0.064,2.38,2.38,0,0,0-2.24,1.632v-1.552h-1.377v8Zm6.256,0H375v-3.968c0-1.872,1.024-2.929,2.32-2.929a1.921,1.921,0,0,1,1.888,2.177v4.72h1.36v-4.928a2.949,2.949,0,0,0-3.024-3.233A2.829,2.829,0,0,0,375,586.377v-1.232h-1.377v8Zm11.488-11.121a0.966,0.966,0,0,0-.96-0.976,0.994,0.994,0,0,0-.992.976,0.983,0.983,0,0,0,.992.976A0.956,0.956,0,0,0,385.109,582.025Zm-1.664,11.121h1.376v-8h-1.376v8Zm3.76-4a4,4,0,0,0,3.921,4.16,3.508,3.508,0,0,0,2.816-1.392v1.232h1.376v-8h-1.376v1.232a3.508,3.508,0,0,0-2.816-1.392A4,4,0,0,0,387.205,589.146Zm6.849,0a2.733,2.733,0,1,1-2.72-2.9A2.731,2.731,0,0,1,394.054,589.146Zm15.824,2.016-1.2-.672a2.713,2.713,0,0,1-2.5,1.536,2.882,2.882,0,0,1,0-5.761,2.712,2.712,0,0,1,2.5,1.537l1.2-.673a4.143,4.143,0,0,0-3.7-2.144,4.161,4.161,0,1,0,0,8.321A4.143,4.143,0,0,0,409.878,591.162Zm2.175,1.984h1.376v-3.968c0-1.872,1.1-2.753,2.112-2.753a2.011,2.011,0,0,1,.752.128v-1.424a2.851,2.851,0,0,0-.624-0.064,2.38,2.38,0,0,0-2.24,1.632v-1.552h-1.376v8Zm5.344-4a4.218,4.218,0,0,0,7.745,2.256l-1.088-.752a2.833,2.833,0,0,1-5.265-1.232h6.561a3.9,3.9,0,0,0,.016-0.416,3.729,3.729,0,0,0-3.809-4.017A4.054,4.054,0,0,0,417.4,589.146Zm4.112-2.945a2.4,2.4,0,0,1,2.449,2.1h-5.073A2.615,2.615,0,0,1,421.509,586.2Zm5.583,2.945a4,4,0,0,0,3.921,4.16,3.508,3.508,0,0,0,2.816-1.392v1.232h1.377v-8h-1.377v1.232a3.508,3.508,0,0,0-2.816-1.392A4,4,0,0,0,427.092,589.146Zm6.849,0a2.733,2.733,0,1,1-2.72-2.9A2.731,2.731,0,0,1,433.941,589.146Zm8.592,3.888V591.8a3.041,3.041,0,0,1-.976.16,1.152,1.152,0,0,1-1.328-1.36v-4.193h2.3v-1.264h-2.3v-2.224h-1.376v2.224h-1.7v1.264h1.7v4.369a2.252,2.252,0,0,0,2.448,2.448A3.828,3.828,0,0,0,442.533,593.034Zm3.824-11.009a0.966,0.966,0,0,0-.961-0.976,0.994,0.994,0,0,0-.992.976,0.983,0.983,0,0,0,.992.976A0.957,0.957,0,0,0,446.357,582.025Zm-1.665,11.121h1.377v-8h-1.377v8Zm6.881,0h1.152l3.7-8h-1.536l-2.736,6.049-2.737-6.049h-1.536Zm5.839-4a4.218,4.218,0,0,0,7.745,2.256l-1.088-.752a2.833,2.833,0,0,1-5.265-1.232h6.561a3.9,3.9,0,0,0,.016-0.416,3.728,3.728,0,0,0-3.808-4.017A4.054,4.054,0,0,0,457.412,589.146Zm4.113-2.945a2.394,2.394,0,0,1,2.448,2.1H458.9A2.616,2.616,0,0,1,461.525,586.2Zm11.392,4.721c0-1.2-.752-1.968-2.112-2.416l-0.864-.288c-0.945-.3-1.233-0.608-1.233-1.121a1.133,1.133,0,0,1,1.345-.928,2.161,2.161,0,0,1,1.7.832l0.9-.864a3.1,3.1,0,0,0-2.56-1.152c-1.585,0-2.7.88-2.7,2.176a2.415,2.415,0,0,0,1.984,2.321l0.785,0.256c1.04,0.336,1.424.72,1.424,1.28a1.218,1.218,0,0,1-1.408,1.088,2.147,2.147,0,0,1-2.049-1.264l-1.12.608a3.178,3.178,0,0,0,3.137,1.856C471.749,593.306,472.917,592.49,472.917,590.922Zm7.135,2.224h1.376v-6.737h2.321v-1.264h-2.321v-1.472a1.152,1.152,0,0,1,1.329-1.36,3.222,3.222,0,0,1,.992.16v-1.216a3.636,3.636,0,0,0-1.248-.208,2.285,2.285,0,0,0-2.449,2.48v1.616h-1.7v1.264h1.7v6.737Zm5.488-3.088c0,1.984,1.184,3.248,2.944,3.248a2.754,2.754,0,0,0,2.465-1.392v1.232h1.376v-8h-1.376v3.969c0,1.84-.977,2.928-2.225,2.928-1.1,0-1.808-.848-1.808-2.192v-4.705H485.54v4.913Zm9.152-.912a4.218,4.218,0,0,0,7.745,2.256l-1.088-.752a2.833,2.833,0,0,1-5.265-1.232h6.561a3.9,3.9,0,0,0,.016-0.416,3.728,3.728,0,0,0-3.809-4.017A4.054,4.054,0,0,0,494.692,589.146ZM498.8,586.2a2.394,2.394,0,0,1,2.449,2.1H496.18A2.615,2.615,0,0,1,498.8,586.2Zm6.208,6.945h1.376v-12h-1.376v12Zm3.76-4a4.218,4.218,0,0,0,7.745,2.256l-1.088-.752a2.833,2.833,0,0,1-5.265-1.232h6.561a3.9,3.9,0,0,0,.016-0.416,3.729,3.729,0,0,0-3.809-4.017A4.054,4.054,0,0,0,508.772,589.146Zm4.112-2.945a2.394,2.394,0,0,1,2.448,2.1H510.26A2.615,2.615,0,0,1,512.884,586.2Zm5.583,2.945a4,4,0,0,0,3.921,4.16,3.508,3.508,0,0,0,2.816-1.392v1.232h1.377v-12H525.2v5.232a3.508,3.508,0,0,0-2.816-1.392A4,4,0,0,0,518.467,589.146Zm6.849,0a2.733,2.733,0,1,1-2.72-2.9A2.731,2.731,0,0,1,525.316,589.146Zm9.935,2.768a3.51,3.51,0,0,0,2.817,1.392,4.168,4.168,0,0,0,0-8.321,3.51,3.51,0,0,0-2.817,1.392v-5.232h-1.376v12h1.376v-1.232Zm5.329-2.768a2.726,2.726,0,1,1-2.72-2.9A2.731,2.731,0,0,1,540.58,589.146Zm5.743,7.345,5.249-11.346h-1.536L547.3,591.21l-2.753-6.065h-1.52l3.5,7.585-1.745,3.761h1.536Zm15.041-3.457V591.8a3.041,3.041,0,0,1-.976.16,1.152,1.152,0,0,1-1.328-1.36v-4.193h2.3v-1.264h-2.3v-2.224h-1.377v2.224h-1.7v1.264h1.7v4.369a2.252,2.252,0,0,0,2.449,2.448A3.828,3.828,0,0,0,561.364,593.034Zm2.159,0.112H564.9v-3.968c0-1.872,1.025-2.929,2.321-2.929a1.921,1.921,0,0,1,1.888,2.177v4.72h1.36v-4.928a2.949,2.949,0,0,0-3.024-3.233,2.831,2.831,0,0,0-2.545,1.392v-5.232h-1.376v12Zm9.2-4a4.218,4.218,0,0,0,7.745,2.256l-1.088-.752a2.833,2.833,0,0,1-5.265-1.232h6.561a3.9,3.9,0,0,0,.016-0.416,3.728,3.728,0,0,0-3.808-4.017A4.054,4.054,0,0,0,572.723,589.146Zm4.113-2.945a2.394,2.394,0,0,1,2.448,2.1h-5.073A2.616,2.616,0,0,1,576.836,586.2Zm7.871-4.176a0.966,0.966,0,0,0-.96-0.976,0.994,0.994,0,0,0-.992.976,0.983,0.983,0,0,0,.992.976A0.956,0.956,0,0,0,584.707,582.025Zm-1.664,11.121h1.376v-8h-1.376v8Zm4.384,0H588.8v-3.968c0-1.872,1.1-2.753,2.112-2.753a2.011,2.011,0,0,1,.752.128v-1.424a2.851,2.851,0,0,0-.624-0.064,2.38,2.38,0,0,0-2.24,1.632v-1.552h-1.376v8Zm9.536-4a4.218,4.218,0,0,0,7.745,2.256l-1.089-.752a2.832,2.832,0,0,1-5.264-1.232h6.561a3.9,3.9,0,0,0,.016-0.416,3.729,3.729,0,0,0-3.809-4.017A4.054,4.054,0,0,0,596.963,589.146Zm4.112-2.945a2.4,2.4,0,0,1,2.449,2.1h-5.073A2.615,2.615,0,0,1,601.075,586.2Zm4.72,6.945h1.712l2.432-3.024,2.433,3.024h1.7L610.8,589.1l3.009-3.953h-1.681l-2.192,2.881-2.208-2.881h-1.664l3.008,3.953Zm10.08,3.345h1.376v-4.577a3.508,3.508,0,0,0,2.816,1.392,4.168,4.168,0,0,0,0-8.321,3.508,3.508,0,0,0-2.816,1.392v-1.232h-1.376v11.346Zm6.705-7.345a2.726,2.726,0,1,1-2.721-2.9A2.732,2.732,0,0,1,622.58,589.146Zm3.791,4h1.376v-12h-1.376v12Zm12.113-4a4.185,4.185,0,1,0-4.177,4.16A4.107,4.107,0,0,0,638.484,589.146Zm-6.961,0a2.778,2.778,0,1,1,2.784,2.88A2.751,2.751,0,0,1,631.523,589.146Zm9.327,4h1.377v-3.968c0-1.872,1.1-2.753,2.112-2.753a2.011,2.011,0,0,1,.752.128v-1.424a2.851,2.851,0,0,0-.624-0.064,2.38,2.38,0,0,0-2.24,1.632v-1.552H640.85v8Zm5.344-4a4.218,4.218,0,0,0,7.745,2.256l-1.088-.752a2.832,2.832,0,0,1-5.264-1.232h6.561a3.9,3.9,0,0,0,.016-0.416,3.729,3.729,0,0,0-3.809-4.017A4.055,4.055,0,0,0,646.194,589.146Zm4.113-2.945a2.394,2.394,0,0,1,2.448,2.1h-5.072A2.615,2.615,0,0,1,650.307,586.2Zm6.207,6.945h1.377v-3.968c0-1.872,1.1-2.753,2.112-2.753a2.011,2.011,0,0,1,.752.128v-1.424a2.851,2.851,0,0,0-.624-0.064,2.38,2.38,0,0,0-2.24,1.632v-1.552h-1.377v8Zm15.345-2.224c0-1.2-.752-1.968-2.112-2.416l-0.864-.288c-0.945-.3-1.233-0.608-1.233-1.121a1.133,1.133,0,0,1,1.345-.928,2.161,2.161,0,0,1,1.7.832l0.9-.864a3.1,3.1,0,0,0-2.56-1.152c-1.585,0-2.705.88-2.705,2.176a2.415,2.415,0,0,0,1.984,2.321l0.785,0.256c1.04,0.336,1.424.72,1.424,1.28a1.218,1.218,0,0,1-1.408,1.088,2.147,2.147,0,0,1-2.049-1.264l-1.12.608a3.178,3.178,0,0,0,3.137,1.856C670.691,593.306,671.859,592.49,671.859,590.922Zm2.367,5.569H675.6v-4.577a3.51,3.51,0,0,0,2.817,1.392,4.168,4.168,0,0,0,0-8.321,3.51,3.51,0,0,0-2.817,1.392v-1.232h-1.376v11.346Zm6.705-7.345a2.726,2.726,0,1,1-2.72-2.9A2.731,2.731,0,0,1,680.931,589.146Zm5.455-7.121a0.966,0.966,0,0,0-.96-0.976,0.994,0.994,0,0,0-.992.976,0.983,0.983,0,0,0,.992.976A0.956,0.956,0,0,0,686.386,582.025Zm-1.664,11.121H686.1v-8h-1.376v8Zm4.384,0h1.376v-3.968c0-1.872,1.1-2.753,2.112-2.753a2.016,2.016,0,0,1,.753.128v-1.424a2.86,2.86,0,0,0-.625-0.064,2.38,2.38,0,0,0-2.24,1.632v-1.552h-1.376v8Zm7.92-11.121a0.966,0.966,0,0,0-.96-0.976,0.994,0.994,0,0,0-.992.976,0.983,0.983,0,0,0,.992.976A0.956,0.956,0,0,0,697.026,582.025Zm-1.664,11.121h1.376v-8h-1.376v8Zm8.72-.112V591.8a3.041,3.041,0,0,1-.976.16,1.152,1.152,0,0,1-1.328-1.36v-4.193h2.3v-1.264h-2.3v-2.224H700.4v2.224h-1.7v1.264h1.7v4.369a2.252,2.252,0,0,0,2.448,2.448A3.828,3.828,0,0,0,704.082,593.034Zm7.344-2.112c0-1.2-.752-1.968-2.112-2.416l-0.864-.288c-0.944-.3-1.232-0.608-1.232-1.121a1.132,1.132,0,0,1,1.344-.928,2.161,2.161,0,0,1,1.7.832l0.9-.864a3.1,3.1,0,0,0-2.56-1.152c-1.584,0-2.7.88-2.7,2.176a2.415,2.415,0,0,0,1.984,2.321l0.784,0.256c1.04,0.336,1.424.72,1.424,1.28a1.218,1.218,0,0,1-1.408,1.088,2.147,2.147,0,0,1-2.048-1.264l-1.12.608a3.178,3.178,0,0,0,3.136,1.856C710.258,593.306,711.426,592.49,711.426,590.922Zm4.272,1.152a1.184,1.184,0,1,0-1.184,1.2A1.205,1.205,0,0,0,715.7,592.074Zm6.255-4.608a5.905,5.905,0,0,0,10.9,3.12l-1.248-.752a4.465,4.465,0,1,1,0-4.737l1.248-.752A5.905,5.905,0,0,0,721.953,587.466Zm12.944,2.592c0,1.984,1.184,3.248,2.945,3.248a2.752,2.752,0,0,0,2.464-1.392v1.232h1.376v-8h-1.376v3.969c0,1.84-.976,2.928-2.224,2.928-1.105,0-1.809-.848-1.809-2.192v-4.705H734.9v4.913Zm9.776,3.088h1.376v-3.968c0-1.872,1.1-2.753,2.113-2.753a2.011,2.011,0,0,1,.752.128v-1.424a2.851,2.851,0,0,0-.624-0.064,2.381,2.381,0,0,0-2.241,1.632v-1.552h-1.376v8Zm7.92-11.121a0.966,0.966,0,0,0-.96-0.976,0.994,0.994,0,0,0-.992.976,0.983,0.983,0,0,0,.992.976A0.956,0.956,0,0,0,752.593,582.025Zm-1.664,11.121h1.376v-8h-1.376v8Zm12.113-4a4.185,4.185,0,1,0-4.176,4.16A4.106,4.106,0,0,0,763.042,589.146Zm-6.961,0a2.778,2.778,0,1,1,2.785,2.88A2.751,2.751,0,0,1,756.081,589.146Zm9.216,0.912c0,1.984,1.184,3.248,2.944,3.248a2.755,2.755,0,0,0,2.465-1.392v1.232h1.376v-8h-1.376v3.969c0,1.84-.977,2.928-2.225,2.928-1.1,0-1.808-.848-1.808-2.192v-4.705H765.3v4.913Zm14.96,0.864c0-1.2-.752-1.968-2.112-2.416l-0.864-.288c-0.944-.3-1.232-0.608-1.232-1.121a1.132,1.132,0,0,1,1.344-.928,2.161,2.161,0,0,1,1.7.832l0.9-.864a3.1,3.1,0,0,0-2.56-1.152c-1.584,0-2.7.88-2.7,2.176a2.415,2.415,0,0,0,1.984,2.321l0.784,0.256c1.04,0.336,1.424.72,1.424,1.28a1.218,1.218,0,0,1-1.408,1.088,2.147,2.147,0,0,1-2.048-1.264l-1.12.608a3.178,3.178,0,0,0,3.136,1.856C779.089,593.306,780.257,592.49,780.257,590.922Zm4.08,1.872a1.368,1.368,0,0,0,.224-0.72,1.184,1.184,0,1,0-2.368,0,1.191,1.191,0,0,0,.656,1.072l-1.073,2.289h0.913Zm14.352-1.632-1.2-.672a2.712,2.712,0,0,1-2.5,1.536,2.882,2.882,0,0,1,0-5.761,2.711,2.711,0,0,1,2.5,1.537l1.2-.673a4.143,4.143,0,0,0-3.7-2.144,4.161,4.161,0,1,0,0,8.321A4.143,4.143,0,0,0,798.689,591.162Zm9.9-2.016a4.185,4.185,0,1,0-4.176,4.16A4.106,4.106,0,0,0,808.593,589.146Zm-6.961,0a2.778,2.778,0,1,1,2.785,2.88A2.751,2.751,0,0,1,801.632,589.146Zm9.328,4h1.376v-3.968c0-1.872,1.024-2.929,2.32-2.929a1.921,1.921,0,0,1,1.889,2.177v4.72h1.36v-4.928a2.949,2.949,0,0,0-3.025-3.233,2.829,2.829,0,0,0-2.544,1.392v-1.232H810.96v8Zm9.824,0h1.376v-3.968c0-1.872,1.024-2.929,2.32-2.929a1.921,1.921,0,0,1,1.888,2.177v4.72h1.361v-4.928a2.949,2.949,0,0,0-3.025-3.233,2.829,2.829,0,0,0-2.544,1.392v-1.232h-1.376v8Zm9.2-4a4.219,4.219,0,0,0,7.746,2.256l-1.089-.752a2.832,2.832,0,0,1-5.264-1.232h6.561a3.9,3.9,0,0,0,.016-0.416,3.729,3.729,0,0,0-3.809-4.017A4.055,4.055,0,0,0,829.983,589.146ZM834.1,586.2a2.394,2.394,0,0,1,2.448,2.1h-5.072A2.615,2.615,0,0,1,834.1,586.2Zm13.472,4.961-1.2-.672a2.712,2.712,0,0,1-2.5,1.536,2.882,2.882,0,0,1,0-5.761,2.711,2.711,0,0,1,2.5,1.537l1.2-.673a4.143,4.143,0,0,0-3.7-2.144,4.161,4.161,0,1,0,0,8.321A4.143,4.143,0,0,0,847.568,591.162Zm6.512,1.872V591.8a3.041,3.041,0,0,1-.976.16,1.152,1.152,0,0,1-1.328-1.36v-4.193h2.3v-1.264h-2.3v-2.224H850.4v2.224h-1.7v1.264h1.7v4.369a2.252,2.252,0,0,0,2.449,2.448A3.828,3.828,0,0,0,854.08,593.034Zm1.423-3.888a4.218,4.218,0,0,0,7.745,2.256l-1.088-.752a2.833,2.833,0,0,1-5.265-1.232h6.561a3.9,3.9,0,0,0,.016-0.416,3.728,3.728,0,0,0-3.808-4.017A4.054,4.054,0,0,0,855.5,589.146Zm4.113-2.945a2.394,2.394,0,0,1,2.448,2.1h-5.072A2.615,2.615,0,0,1,859.616,586.2Zm5.583,2.945a4,4,0,0,0,3.921,4.16,3.508,3.508,0,0,0,2.816-1.392v1.232h1.376v-12h-1.376v5.232a3.508,3.508,0,0,0-2.816-1.392A4,4,0,0,0,865.2,589.146Zm6.849,0a2.733,2.733,0,1,1-2.72-2.9A2.731,2.731,0,0,1,872.048,589.146Zm7.935,0a4,4,0,0,0,3.92,4.16,3.509,3.509,0,0,0,2.817-1.392v1.232H888.1v-8H886.72v1.232a3.509,3.509,0,0,0-2.817-1.392A4,4,0,0,0,879.983,589.146Zm6.849,0a2.733,2.733,0,1,1-2.72-2.9A2.731,2.731,0,0,1,886.832,589.146Zm4.255,4h1.376v-3.968c0-1.872,1.024-2.929,2.32-2.929a1.921,1.921,0,0,1,1.889,2.177v4.72h1.36v-4.928a2.949,2.949,0,0,0-3.025-3.233,2.829,2.829,0,0,0-2.544,1.392v-1.232h-1.376v8Zm9.2-4a4,4,0,0,0,3.92,4.16,3.508,3.508,0,0,0,2.816-1.392v1.232H908.4v-12h-1.377v5.232a3.508,3.508,0,0,0-2.816-1.392A4,4,0,0,0,900.287,589.146Zm6.849,0a2.733,2.733,0,1,1-2.721-2.9A2.732,2.732,0,0,1,907.136,589.146Zm16.287,0a4.185,4.185,0,1,0-4.176,4.16A4.106,4.106,0,0,0,923.423,589.146Zm-6.961,0a2.778,2.778,0,1,1,2.785,2.88A2.751,2.751,0,0,1,916.462,589.146Zm9.216,0.912c0,1.984,1.184,3.248,2.944,3.248a2.753,2.753,0,0,0,2.465-1.392v1.232h1.376v-8h-1.376v3.969c0,1.84-.976,2.928-2.224,2.928-1.105,0-1.809-.848-1.809-2.192v-4.705h-1.376v4.913Zm14.113,2.976V591.8a3.041,3.041,0,0,1-.976.16,1.152,1.152,0,0,1-1.329-1.36v-4.193h2.305v-1.264h-2.305v-2.224H936.11v2.224h-1.7v1.264h1.7v4.369a2.252,2.252,0,0,0,2.448,2.448A3.83,3.83,0,0,0,939.791,593.034Zm8.127-11.009a0.966,0.966,0,0,0-.96-0.976,0.994,0.994,0,0,0-.992.976,0.983,0.983,0,0,0,.992.976A0.956,0.956,0,0,0,947.918,582.025Zm-1.664,11.121h1.376v-8h-1.376v8Zm4.384,0h1.376v-3.968c0-1.872,1.024-2.929,2.32-2.929a1.921,1.921,0,0,1,1.889,2.177v4.72h1.36v-4.928a2.949,2.949,0,0,0-3.025-3.233,2.829,2.829,0,0,0-2.544,1.392v-1.232h-1.376v8Zm18.192-.112V591.8a3.041,3.041,0,0,1-.976.16,1.152,1.152,0,0,1-1.328-1.36v-4.193h2.3v-1.264h-2.3v-2.224h-1.377v2.224h-1.7v1.264h1.7v4.369a2.253,2.253,0,0,0,2.449,2.448A3.828,3.828,0,0,0,968.83,593.034Zm2.159,0.112h1.376v-3.968c0-1.872,1.025-2.929,2.321-2.929a1.921,1.921,0,0,1,1.888,2.177v4.72h1.36v-4.928a2.949,2.949,0,0,0-3.024-3.233,2.832,2.832,0,0,0-2.545,1.392v-5.232h-1.376v12Zm9.2-4a4.218,4.218,0,0,0,7.745,2.256l-1.088-.752a2.833,2.833,0,0,1-5.265-1.232h6.561a3.9,3.9,0,0,0,.016-0.416,3.728,3.728,0,0,0-3.808-4.017A4.054,4.054,0,0,0,980.189,589.146ZM984.3,586.2a2.394,2.394,0,0,1,2.448,2.1h-5.073A2.616,2.616,0,0,1,984.3,586.2Zm17.008,6.945h1.22l2.72-8h-1.46l-1.94,5.841-2-5.841H998.8l-2,5.841-1.936-5.841h-1.44l2.72,8h1.216l1.985-5.76Zm13.52-4a4.185,4.185,0,1,0-4.18,4.16A4.109,4.109,0,0,0,1014.83,589.146Zm-6.96,0a2.777,2.777,0,1,1,2.78,2.88A2.75,2.75,0,0,1,1007.87,589.146Zm9.33,4h1.37v-3.968c0-1.872,1.11-2.753,2.12-2.753a2.021,2.021,0,0,1,.75.128v-1.424a2.929,2.929,0,0,0-.63-0.064,2.388,2.388,0,0,0-2.24,1.632v-1.552h-1.37v8Zm6.25,0h1.38v-12h-1.38v12Zm3.76-4a4,4,0,0,0,3.92,4.16,3.519,3.519,0,0,0,2.82-1.392v1.232h1.38v-12h-1.38v5.232a3.519,3.519,0,0,0-2.82-1.392A4,4,0,0,0,1027.21,589.146Zm6.85,0a2.735,2.735,0,1,1-2.72-2.9A2.729,2.729,0,0,1,1034.06,589.146Zm5.97,3.648a1.347,1.347,0,0,0,.22-0.72,1.185,1.185,0,1,0-1.71,1.072l-1.07,2.289h0.91ZM38.412,613.146a4.185,4.185,0,1,0-4.177,4.16A4.106,4.106,0,0,0,38.412,613.146Zm-6.961,0a2.778,2.778,0,1,1,2.784,2.88A2.751,2.751,0,0,1,31.451,613.146Zm9.216,0.912c0,1.984,1.184,3.248,2.944,3.248a2.753,2.753,0,0,0,2.464-1.392v1.232h1.376v-8H46.075v3.969c0,1.84-.976,2.928-2.224,2.928-1.1,0-1.808-.848-1.808-2.192v-4.705H40.666v4.913Zm9.776,3.088h1.376v-3.968c0-1.873,1.1-2.753,2.112-2.753a2.012,2.012,0,0,1,.752.128v-1.424a2.852,2.852,0,0,0-.624-0.064,2.38,2.38,0,0,0-2.24,1.632v-1.552H50.442v8Zm17.425-1.984-1.2-.672a2.712,2.712,0,0,1-2.5,1.536,2.882,2.882,0,0,1,0-5.761,2.711,2.711,0,0,1,2.5,1.537l1.2-.673a4.144,4.144,0,0,0-3.7-2.144,4.161,4.161,0,1,0,0,8.321A4.144,4.144,0,0,0,67.867,615.162Zm2.175,1.984h1.376v-12H70.042v12Zm12.113-4a4.185,4.185,0,1,0-4.177,4.16A4.106,4.106,0,0,0,82.155,613.146Zm-6.961,0a2.778,2.778,0,1,1,2.784,2.88A2.751,2.751,0,0,1,75.194,613.146Zm13.52,3.888V615.8a3.042,3.042,0,0,1-.976.16,1.152,1.152,0,0,1-1.328-1.36v-4.193h2.3v-1.264h-2.3v-2.224H85.034v2.224h-1.7v1.264h1.7v4.369a2.252,2.252,0,0,0,2.448,2.448A3.83,3.83,0,0,0,88.715,617.034Zm2.159,0.112H92.25v-3.968c0-1.873,1.024-2.929,2.32-2.929a1.921,1.921,0,0,1,1.888,2.177v4.72h1.36v-4.928a2.949,2.949,0,0,0-3.024-3.233,2.829,2.829,0,0,0-2.544,1.392v-5.232H90.874v12Zm11.488-11.121a0.966,0.966,0,0,0-.96-0.976,0.994,0.994,0,0,0-.992.976,0.983,0.983,0,0,0,.992.976A0.956,0.956,0,0,0,102.362,606.025ZM100.7,617.146h1.376v-8H100.7v8Zm4.384,0h1.376v-3.968c0-1.873,1.024-2.929,2.32-2.929a1.921,1.921,0,0,1,1.888,2.177v4.72h1.361v-4.928A2.949,2.949,0,0,0,109,608.985a2.829,2.829,0,0,0-2.544,1.392v-1.232h-1.376v8Zm17.28-.464v-7.537h-1.376v1.232a3.4,3.4,0,0,0-2.784-1.392,4.076,4.076,0,0,0,0,8.145,3.416,3.416,0,0,0,2.784-1.408v0.912a2.558,2.558,0,0,1-2.672,2.769,3.424,3.424,0,0,1-2.8-1.345l-0.96.961a4.752,4.752,0,0,0,3.777,1.632A3.7,3.7,0,0,0,122.362,616.682Zm-6.673-3.632a2.706,2.706,0,1,1,2.705,2.8A2.667,2.667,0,0,1,115.689,613.05Zm15.632-7.025a0.966,0.966,0,0,0-.96-0.976,0.994,0.994,0,0,0-.992.976,0.983,0.983,0,0,0,.992.976A0.956,0.956,0,0,0,131.321,606.025Zm-1.664,11.121h1.376v-8h-1.376v8Zm9.569-2.224c0-1.2-.752-1.968-2.113-2.416l-0.864-.288c-0.944-.3-1.232-0.608-1.232-1.121a1.132,1.132,0,0,1,1.344-.928,2.161,2.161,0,0,1,1.7.832l0.9-.864a3.106,3.106,0,0,0-2.561-1.152c-1.584,0-2.7.88-2.7,2.176a2.415,2.415,0,0,0,1.984,2.321l0.784,0.256c1.04,0.336,1.424.72,1.424,1.28a1.218,1.218,0,0,1-1.408,1.088,2.147,2.147,0,0,1-2.048-1.264l-1.12.608a3.178,3.178,0,0,0,3.136,1.856C138.057,617.306,139.226,616.49,139.226,614.922Zm6.046-1.776a4,4,0,0,0,3.921,4.16,3.508,3.508,0,0,0,2.816-1.392v1.232h1.377v-12h-1.377v5.232a3.508,3.508,0,0,0-2.816-1.392A4,4,0,0,0,145.272,613.146Zm6.849,0a2.733,2.733,0,1,1-2.72-2.9A2.731,2.731,0,0,1,152.121,613.146Zm3.631,0A4.218,4.218,0,0,0,163.5,615.4l-1.088-.752a2.833,2.833,0,0,1-5.265-1.232h6.561a3.9,3.9,0,0,0,.016-0.416,3.728,3.728,0,0,0-3.808-4.017A4.055,4.055,0,0,0,155.752,613.146Zm4.113-2.945a2.394,2.394,0,0,1,2.448,2.1H157.24A2.617,2.617,0,0,1,159.865,610.2Zm11.392,4.721c0-1.2-.752-1.968-2.112-2.416l-0.864-.288c-0.945-.3-1.233-0.608-1.233-1.121a1.133,1.133,0,0,1,1.345-.928,2.161,2.161,0,0,1,1.7.832l0.9-.864a3.1,3.1,0,0,0-2.56-1.152c-1.585,0-2.705.88-2.705,2.176a2.414,2.414,0,0,0,1.985,2.321l0.784,0.256c1.04,0.336,1.424.72,1.424,1.28a1.218,1.218,0,0,1-1.408,1.088,2.147,2.147,0,0,1-2.049-1.264l-1.12.608a3.178,3.178,0,0,0,3.137,1.856C170.089,617.306,171.257,616.49,171.257,614.922Zm4.031-8.9a0.966,0.966,0,0,0-.96-0.976,0.994,0.994,0,0,0-.992.976,0.983,0.983,0,0,0,.992.976A0.956,0.956,0,0,0,175.288,606.025Zm-1.664,11.121H175v-8h-1.376v8Zm11.841-.464v-7.537h-1.376v1.232a3.4,3.4,0,0,0-2.785-1.392,4.076,4.076,0,0,0,0,8.145,3.417,3.417,0,0,0,2.785-1.408v0.912a2.558,2.558,0,0,1-2.673,2.769,3.42,3.42,0,0,1-2.8-1.345l-0.96.961a4.75,4.75,0,0,0,3.777,1.632A3.7,3.7,0,0,0,185.465,616.682Zm-6.673-3.632a2.706,2.706,0,1,1,2.705,2.8A2.667,2.667,0,0,1,178.792,613.05Zm9.664,4.1h1.376v-3.968c0-1.873,1.024-2.929,2.32-2.929a1.921,1.921,0,0,1,1.889,2.177v4.72h1.36v-4.928a2.949,2.949,0,0,0-3.025-3.233,2.829,2.829,0,0,0-2.544,1.392v-1.232h-1.376v8Zm9.2-4A4.218,4.218,0,0,0,205.4,615.4l-1.088-.752a2.833,2.833,0,0,1-5.265-1.232h6.561a3.9,3.9,0,0,0,.016-0.416,3.729,3.729,0,0,0-3.809-4.017A4.054,4.054,0,0,0,197.656,613.146Zm4.112-2.945a2.4,2.4,0,0,1,2.449,2.1h-5.073A2.615,2.615,0,0,1,201.768,610.2Zm5.583,2.945a4,4,0,0,0,3.921,4.16,3.508,3.508,0,0,0,2.816-1.392v1.232h1.377v-12h-1.377v5.232a3.508,3.508,0,0,0-2.816-1.392A4,4,0,0,0,207.351,613.146Zm6.849,0a2.733,2.733,0,1,1-2.72-2.9A2.731,2.731,0,0,1,214.2,613.146Zm9.024,4H224.6v-6.737h2.32v-1.264H224.6v-1.472a1.152,1.152,0,0,1,1.328-1.36,3.222,3.222,0,0,1,.992.16v-1.216a3.636,3.636,0,0,0-1.248-.208,2.285,2.285,0,0,0-2.448,2.48v1.616h-1.7v1.264h1.7v6.737Zm13.121-4a4.185,4.185,0,1,0-4.177,4.16A4.107,4.107,0,0,0,236.345,613.146Zm-6.961,0a2.778,2.778,0,1,1,2.784,2.88A2.751,2.751,0,0,1,229.384,613.146Zm9.327,4h1.377v-3.968c0-1.873,1.1-2.753,2.112-2.753a2.011,2.011,0,0,1,.752.128v-1.424a2.851,2.851,0,0,0-.624-0.064,2.38,2.38,0,0,0-2.24,1.632v-1.552h-1.377v8Zm9.536-4a4,4,0,0,0,3.921,4.16,3.508,3.508,0,0,0,2.816-1.392v1.232h1.376v-8h-1.376v1.232a3.508,3.508,0,0,0-2.816-1.392A4,4,0,0,0,248.247,613.146Zm6.849,0a2.733,2.733,0,1,1-2.72-2.9A2.731,2.731,0,0,1,255.1,613.146Zm8.559,4h1.376v-12h-1.376v12Zm6.048-11.121a0.966,0.966,0,0,0-.96-0.976,0.994,0.994,0,0,0-.992.976,0.983,0.983,0,0,0,.992.976A0.956,0.956,0,0,0,269.7,606.025Zm-1.664,11.121h1.376v-8h-1.376v8Zm5.056,0h1.376v-6.737h2.32v-1.264h-2.32v-1.472a1.152,1.152,0,0,1,1.328-1.36,3.222,3.222,0,0,1,.992.16v-1.216a3.636,3.636,0,0,0-1.248-.208,2.285,2.285,0,0,0-2.448,2.48v1.616h-1.7v1.264h1.7v6.737Zm4.768-4a4.218,4.218,0,0,0,7.745,2.256l-1.089-.752a2.832,2.832,0,0,1-5.264-1.232h6.561a3.9,3.9,0,0,0,.016-0.416,3.729,3.729,0,0,0-3.809-4.017A4.054,4.054,0,0,0,277.863,613.146Zm4.112-2.945a2.394,2.394,0,0,1,2.448,2.1h-5.072A2.615,2.615,0,0,1,281.975,610.2Zm12.176-4.176a0.966,0.966,0,0,0-.961-0.976,0.994,0.994,0,0,0-.992.976,0.983,0.983,0,0,0,.992.976A0.957,0.957,0,0,0,294.151,606.025Zm-1.665,11.121h1.377v-8h-1.377v8Zm4.384,0h1.376v-3.968c0-1.873,1.025-2.929,2.321-2.929a1.921,1.921,0,0,1,1.888,2.177v4.72h1.36v-4.928a2.949,2.949,0,0,0-3.024-3.233,2.831,2.831,0,0,0-2.545,1.392v-1.232H296.87v8Zm14.128,0h1.376v-3.968c0-1.808.912-2.929,2.208-2.929,1.041,0,1.569.9,1.569,2.193v4.7h1.376v-3.968c0-1.808.9-2.929,2.192-2.929,1.04,0,1.584.9,1.584,2.193v4.7h1.377v-4.912c0-1.953-1.057-3.249-2.8-3.249a2.769,2.769,0,0,0-2.624,1.712,2.515,2.515,0,0,0-2.465-1.712,2.689,2.689,0,0,0-2.416,1.392v-1.232H311v8Zm22.289-4a4.185,4.185,0,1,0-4.177,4.16A4.106,4.106,0,0,0,333.287,613.146Zm-6.961,0a2.778,2.778,0,1,1,2.784,2.88A2.751,2.751,0,0,1,326.326,613.146Zm13.52,3.888V615.8a3.041,3.041,0,0,1-.976.16,1.152,1.152,0,0,1-1.328-1.36v-4.193h2.3v-1.264h-2.3v-2.224h-1.376v2.224h-1.7v1.264h1.7v4.369a2.252,2.252,0,0,0,2.448,2.448A3.828,3.828,0,0,0,339.846,617.034Zm3.824-11.009a0.966,0.966,0,0,0-.96-0.976,0.994,0.994,0,0,0-.992.976,0.983,0.983,0,0,0,.992.976A0.956,0.956,0,0,0,343.67,606.025Zm-1.664,11.121h1.376v-8h-1.376v8Zm12.113-4a4.185,4.185,0,1,0-4.177,4.16A4.107,4.107,0,0,0,354.119,613.146Zm-6.961,0a2.778,2.778,0,1,1,2.784,2.88A2.751,2.751,0,0,1,347.158,613.146Zm9.327,4h1.377v-3.968c0-1.873,1.024-2.929,2.32-2.929a1.921,1.921,0,0,1,1.888,2.177v4.72h1.36v-4.928a2.949,2.949,0,0,0-3.024-3.233,2.829,2.829,0,0,0-2.544,1.392v-1.232h-1.377v8Zm11.728-1.072a1.184,1.184,0,1,0-1.184,1.2A1.205,1.205,0,0,0,368.213,616.074Zm15.521,1.072h1.329l3.1-11.361h-1.552l-2.385,8.865-3.28-9.057-3.264,9.057-2.385-8.865h-1.552l3.1,11.361h1.329l2.784-7.713Zm5.391-4a4.218,4.218,0,0,0,7.745,2.256l-1.088-.752a2.833,2.833,0,0,1-5.265-1.232h6.561a3.9,3.9,0,0,0,.016-0.416,3.728,3.728,0,0,0-3.808-4.017A4.054,4.054,0,0,0,389.125,613.146Zm4.112-2.945a2.394,2.394,0,0,1,2.449,2.1h-5.073A2.615,2.615,0,0,1,393.237,610.2Zm14.576,6.833V615.8a3.041,3.041,0,0,1-.976.16,1.152,1.152,0,0,1-1.328-1.36v-4.193h2.3v-1.264h-2.3v-2.224h-1.376v2.224h-1.7v1.264h1.7v4.369a2.252,2.252,0,0,0,2.448,2.448A3.828,3.828,0,0,0,407.813,617.034Zm2.16,0.112h1.376v-3.968c0-1.873,1.1-2.753,2.112-2.753a2.011,2.011,0,0,1,.752.128v-1.424a2.851,2.851,0,0,0-.624-0.064,2.38,2.38,0,0,0-2.24,1.632v-1.552h-1.376v8Zm5.36-4a4,4,0,0,0,3.92,4.16,3.512,3.512,0,0,0,2.817-1.392v1.232h1.376v-8H422.07v1.232a3.512,3.512,0,0,0-2.817-1.392A4,4,0,0,0,415.333,613.146Zm6.849,0a2.733,2.733,0,1,1-2.721-2.9A2.732,2.732,0,0,1,422.182,613.146Zm6.751,4h1.152l3.7-8h-1.537l-2.736,6.049-2.736-6.049h-1.537Zm5.84-4a4.218,4.218,0,0,0,7.745,2.256l-1.089-.752a2.832,2.832,0,0,1-5.264-1.232h6.561a3.9,3.9,0,0,0,.016-0.416,3.729,3.729,0,0,0-3.809-4.017A4.054,4.054,0,0,0,434.773,613.146Zm4.112-2.945a2.394,2.394,0,0,1,2.448,2.1h-5.072A2.615,2.615,0,0,1,438.885,610.2Zm6.208,6.945h1.376v-12h-1.376v12Zm8.687,0h1.376v-3.968c0-1.873,1.025-2.929,2.321-2.929a1.921,1.921,0,0,1,1.888,2.177v4.72h1.36v-4.928a2.949,2.949,0,0,0-3.024-3.233,2.831,2.831,0,0,0-2.545,1.392v-1.232H453.78v8Zm9.2-4a4.218,4.218,0,0,0,7.745,2.256l-1.088-.752a2.833,2.833,0,0,1-5.265-1.232h6.561a3.9,3.9,0,0,0,.016-0.416,3.728,3.728,0,0,0-3.808-4.017A4.054,4.054,0,0,0,462.98,613.146Zm4.113-2.945a2.394,2.394,0,0,1,2.448,2.1h-5.073A2.616,2.616,0,0,1,467.093,610.2Zm5.583,2.945a4,4,0,0,0,3.92,4.16,3.509,3.509,0,0,0,2.817-1.392v1.232h1.376v-8h-1.376v1.232a3.509,3.509,0,0,0-2.817-1.392A4,4,0,0,0,472.676,613.146Zm6.849,0a2.733,2.733,0,1,1-2.721-2.9A2.732,2.732,0,0,1,479.525,613.146Zm4.255,4h1.376v-3.968c0-1.873,1.1-2.753,2.112-2.753a2.011,2.011,0,0,1,.752.128v-1.424a2.851,2.851,0,0,0-.624-0.064,2.38,2.38,0,0,0-2.24,1.632v-1.552H483.78v8Zm9.536-4a4,4,0,0,0,3.92,4.16,3.512,3.512,0,0,0,2.817-1.392v1.232h1.376v-8h-1.376v1.232a3.512,3.512,0,0,0-2.817-1.392A4,4,0,0,0,493.316,613.146Zm6.848,0a2.733,2.733,0,1,1-2.72-2.9A2.731,2.731,0,0,1,500.164,613.146Zm4.255,4H505.8v-3.968c0-1.873,1.024-2.929,2.32-2.929A1.921,1.921,0,0,1,510,612.426v4.72h1.36v-4.928a2.949,2.949,0,0,0-3.024-3.233,2.829,2.829,0,0,0-2.544,1.392v-1.232h-1.377v8Zm9.2-4a4,4,0,0,0,3.921,4.16,3.508,3.508,0,0,0,2.816-1.392v1.232h1.376v-12h-1.376v5.232a3.508,3.508,0,0,0-2.816-1.392A4,4,0,0,0,513.619,613.146Zm6.849,0a2.733,2.733,0,1,1-2.72-2.9A2.731,2.731,0,0,1,520.468,613.146Zm9.023,4h1.377v-6.737h2.32v-1.264h-2.32v-1.472a1.152,1.152,0,0,1,1.328-1.36,3.222,3.222,0,0,1,.992.16v-1.216a3.636,3.636,0,0,0-1.248-.208,2.285,2.285,0,0,0-2.449,2.48v1.616h-1.7v1.264h1.7v6.737Zm4.768-4a4,4,0,0,0,3.921,4.16A3.508,3.508,0,0,0,541,615.914v1.232h1.376v-8H541v1.232a3.508,3.508,0,0,0-2.816-1.392A4,4,0,0,0,534.259,613.146Zm6.849,0a2.733,2.733,0,1,1-2.72-2.9A2.731,2.731,0,0,1,541.108,613.146Zm4.255,4h1.376v-3.968c0-1.873,1.105-2.753,2.113-2.753a2.011,2.011,0,0,1,.752.128v-1.424a2.851,2.851,0,0,0-.624-0.064,2.381,2.381,0,0,0-2.241,1.632v-1.552h-1.376v8Zm15.345-2.224c0-1.2-.752-1.968-2.113-2.416l-0.864-.288c-0.944-.3-1.232-0.608-1.232-1.121a1.132,1.132,0,0,1,1.344-.928,2.163,2.163,0,0,1,1.7.832l0.9-.864a3.1,3.1,0,0,0-2.561-1.152c-1.584,0-2.7.88-2.7,2.176a2.415,2.415,0,0,0,1.984,2.321l0.784,0.256c1.041,0.336,1.425.72,1.425,1.28a1.218,1.218,0,0,1-1.409,1.088,2.147,2.147,0,0,1-2.048-1.264l-1.12.608a3.178,3.178,0,0,0,3.136,1.856C559.54,617.306,560.708,616.49,560.708,614.922Zm1.743-1.776A4.218,4.218,0,0,0,570.2,615.4l-1.088-.752a2.833,2.833,0,0,1-5.265-1.232H570.4A3.9,3.9,0,0,0,570.42,613a3.728,3.728,0,0,0-3.809-4.017A4.054,4.054,0,0,0,562.451,613.146Zm4.112-2.945a2.394,2.394,0,0,1,2.449,2.1h-5.073A2.615,2.615,0,0,1,566.563,610.2Zm5.584,2.945a4,4,0,0,0,3.92,4.16,3.51,3.51,0,0,0,2.817-1.392v1.232h1.376v-8h-1.376v1.232a3.51,3.51,0,0,0-2.817-1.392A4,4,0,0,0,572.147,613.146Zm6.849,0a2.733,2.733,0,1,1-2.721-2.9A2.732,2.732,0,0,1,579,613.146Zm4.255,4h1.376v-3.968c0-1.873,1.1-2.753,2.112-2.753a2.011,2.011,0,0,1,.752.128v-1.424a2.851,2.851,0,0,0-.624-0.064,2.38,2.38,0,0,0-2.24,1.632v-1.552h-1.376v8Zm13.233-1.984-1.2-.672a2.713,2.713,0,0,1-2.5,1.536,2.882,2.882,0,0,1,0-5.761,2.712,2.712,0,0,1,2.5,1.537l1.2-.673a4.143,4.143,0,0,0-3.7-2.144,4.161,4.161,0,1,0,0,8.321A4.143,4.143,0,0,0,596.484,615.162Zm2.175,1.984h1.376v-3.968c0-1.873,1.024-2.929,2.32-2.929a1.921,1.921,0,0,1,1.888,2.177v4.72H605.6v-4.928a2.949,2.949,0,0,0-3.025-3.233,2.829,2.829,0,0,0-2.544,1.392v-5.232h-1.376v12Zm11.488-11.121a0.966,0.966,0,0,0-.961-0.976,0.994,0.994,0,0,0-.992.976,0.983,0.983,0,0,0,.992.976A0.957,0.957,0,0,0,610.147,606.025Zm-1.665,11.121h1.377v-8h-1.377v8Zm4.384,0h1.376v-3.968c0-1.873,1.025-2.929,2.321-2.929a1.921,1.921,0,0,1,1.888,2.177v4.72h1.36v-4.928a2.949,2.949,0,0,0-3.024-3.233,2.832,2.832,0,0,0-2.545,1.392v-1.232h-1.376v8Zm17.281-.464v-7.537h-1.376v1.232a3.4,3.4,0,0,0-2.784-1.392,4.076,4.076,0,0,0,0,8.145,3.416,3.416,0,0,0,2.784-1.408v0.912A2.558,2.558,0,0,1,626.1,619.4a3.421,3.421,0,0,1-2.8-1.345l-0.96.961a4.75,4.75,0,0,0,3.777,1.632A3.7,3.7,0,0,0,630.147,616.682Zm-6.673-3.632a2.706,2.706,0,1,1,2.7,2.8A2.667,2.667,0,0,1,623.474,613.05Zm14.432,4.1h1.376v-6.737H641.6v-1.264h-2.321v-1.472a1.152,1.152,0,0,1,1.329-1.36,3.222,3.222,0,0,1,.992.16v-1.216a3.638,3.638,0,0,0-1.249-.208,2.285,2.285,0,0,0-2.448,2.48v1.616h-1.7v1.264h1.7v6.737Zm13.121-4a4.185,4.185,0,1,0-4.176,4.16A4.106,4.106,0,0,0,651.027,613.146Zm-6.961,0a2.778,2.778,0,1,1,2.785,2.88A2.751,2.751,0,0,1,644.066,613.146Zm9.328,4h1.376v-3.968c0-1.873,1.1-2.753,2.112-2.753a2.016,2.016,0,0,1,.753.128v-1.424a2.86,2.86,0,0,0-.625-0.064,2.38,2.38,0,0,0-2.24,1.632v-1.552h-1.376v8Zm14.224-.112V615.8a3.041,3.041,0,0,1-.976.16,1.152,1.152,0,0,1-1.328-1.36v-4.193h2.3v-1.264h-2.3v-2.224h-1.376v2.224h-1.7v1.264h1.7v4.369a2.252,2.252,0,0,0,2.448,2.448A3.828,3.828,0,0,0,667.618,617.034Zm2.16,0.112h1.376v-3.968c0-1.873,1.024-2.929,2.32-2.929a1.921,1.921,0,0,1,1.889,2.177v4.72h1.36v-4.928a2.949,2.949,0,0,0-3.025-3.233,2.829,2.829,0,0,0-2.544,1.392v-5.232h-1.376v12Zm9.2-4a4.218,4.218,0,0,0,7.745,2.256l-1.089-.752a2.832,2.832,0,0,1-5.264-1.232h6.561a3.9,3.9,0,0,0,.016-0.416,3.729,3.729,0,0,0-3.809-4.017A4.054,4.054,0,0,0,678.978,613.146Zm4.112-2.945a2.394,2.394,0,0,1,2.448,2.1h-5.072A2.615,2.615,0,0,1,683.09,610.2Zm10.976,6.945h1.376v-6.737h2.32v-1.264h-2.32v-1.472a1.152,1.152,0,0,1,1.328-1.36,3.222,3.222,0,0,1,.992.16v-1.216a3.636,3.636,0,0,0-1.248-.208,2.285,2.285,0,0,0-2.448,2.48v1.616h-1.7v1.264h1.7v6.737Zm6.865-11.121a0.966,0.966,0,0,0-.961-0.976,0.994,0.994,0,0,0-.992.976,0.983,0.983,0,0,0,.992.976A0.957,0.957,0,0,0,700.931,606.025Zm-1.665,11.121h1.377v-8h-1.377v8Zm4.367,0h1.377v-3.968c0-1.873,1.024-2.929,2.32-2.929a1.921,1.921,0,0,1,1.888,2.177v4.72h1.36v-4.928a2.949,2.949,0,0,0-3.024-3.233,2.829,2.829,0,0,0-2.544,1.392v-1.232h-1.377v8Zm9.2-4a4.218,4.218,0,0,0,7.745,2.256l-1.088-.752a2.833,2.833,0,0,1-5.265-1.232h6.561A3.9,3.9,0,0,0,720.8,613a3.728,3.728,0,0,0-3.808-4.017A4.054,4.054,0,0,0,712.833,613.146Zm4.113-2.945a2.394,2.394,0,0,1,2.448,2.1h-5.073A2.616,2.616,0,0,1,716.946,610.2Zm11.392,4.721c0-1.2-.752-1.968-2.112-2.416l-0.864-.288c-0.945-.3-1.233-0.608-1.233-1.121a1.133,1.133,0,0,1,1.345-.928,2.161,2.161,0,0,1,1.7.832l0.9-.864a3.1,3.1,0,0,0-2.56-1.152c-1.585,0-2.7.88-2.7,2.176a2.415,2.415,0,0,0,1.984,2.321l0.785,0.256c1.04,0.336,1.424.72,1.424,1.28a1.218,1.218,0,0,1-1.408,1.088,2.147,2.147,0,0,1-2.049-1.264l-1.12.608a3.178,3.178,0,0,0,3.137,1.856C727.17,617.306,728.338,616.49,728.338,614.922Zm6.608,2.112V615.8a3.041,3.041,0,0,1-.976.16,1.152,1.152,0,0,1-1.329-1.36v-4.193h2.305v-1.264h-2.305v-2.224h-1.376v2.224h-1.7v1.264h1.7v4.369a2.252,2.252,0,0,0,2.449,2.448A3.828,3.828,0,0,0,734.946,617.034Zm6.463,0.112h1.376v-3.968c0-1.808.912-2.929,2.208-2.929,1.041,0,1.569.9,1.569,2.193v4.7h1.376v-3.968c0-1.808.9-2.929,2.192-2.929,1.04,0,1.584.9,1.584,2.193v4.7h1.377v-4.912c0-1.953-1.057-3.249-2.8-3.249a2.769,2.769,0,0,0-2.624,1.712,2.515,2.515,0,0,0-2.465-1.712,2.689,2.689,0,0,0-2.416,1.392v-1.232h-1.376v8Zm13.936-4a4,4,0,0,0,3.92,4.16,3.51,3.51,0,0,0,2.817-1.392v1.232h1.376v-8h-1.376v1.232a3.51,3.51,0,0,0-2.817-1.392A4,4,0,0,0,755.345,613.146Zm6.849,0a2.733,2.733,0,1,1-2.721-2.9A2.732,2.732,0,0,1,762.194,613.146Zm8.591,3.888V615.8a3.041,3.041,0,0,1-.976.16,1.152,1.152,0,0,1-1.328-1.36v-4.193h2.3v-1.264h-2.3v-2.224h-1.376v2.224h-1.7v1.264h1.7v4.369a2.252,2.252,0,0,0,2.448,2.448A3.828,3.828,0,0,0,770.785,617.034Zm1.424-3.888a4.218,4.218,0,0,0,7.745,2.256l-1.088-.752a2.833,2.833,0,0,1-5.265-1.232h6.561a3.9,3.9,0,0,0,.016-0.416,3.728,3.728,0,0,0-3.809-4.017A4.054,4.054,0,0,0,772.209,613.146Zm4.112-2.945a2.394,2.394,0,0,1,2.449,2.1H773.7A2.615,2.615,0,0,1,776.321,610.2Zm6.208,6.945h1.376v-3.968c0-1.873,1.1-2.753,2.112-2.753a2.011,2.011,0,0,1,.752.128v-1.424a2.851,2.851,0,0,0-.624-0.064,2.38,2.38,0,0,0-2.24,1.632v-1.552h-1.376v8Zm7.92-11.121a0.966,0.966,0,0,0-.96-0.976,0.994,0.994,0,0,0-.992.976,0.983,0.983,0,0,0,.992.976A0.956,0.956,0,0,0,790.449,606.025Zm-1.664,11.121h1.376v-8h-1.376v8Zm3.759-4a4,4,0,0,0,3.921,4.16,3.508,3.508,0,0,0,2.816-1.392v1.232h1.377v-8h-1.377v1.232a3.508,3.508,0,0,0-2.816-1.392A4,4,0,0,0,792.544,613.146Zm6.85,0a2.733,2.733,0,1,1-2.721-2.9A2.732,2.732,0,0,1,799.394,613.146Zm4.254,4h1.377v-12h-1.377v12Zm9.569-2.224c0-1.2-.752-1.968-2.112-2.416l-0.864-.288c-0.944-.3-1.232-0.608-1.232-1.121a1.132,1.132,0,0,1,1.344-.928,2.161,2.161,0,0,1,1.7.832l0.9-.864a3.1,3.1,0,0,0-2.56-1.152c-1.585,0-2.705.88-2.705,2.176a2.414,2.414,0,0,0,1.985,2.321l0.784,0.256c1.04,0.336,1.424.72,1.424,1.28a1.218,1.218,0,0,1-1.408,1.088,2.148,2.148,0,0,1-2.049-1.264l-1.12.608a3.178,3.178,0,0,0,3.137,1.856C812.049,617.306,813.217,616.49,813.217,614.922Zm6.047-1.776a4,4,0,0,0,3.921,4.16A3.508,3.508,0,0,0,826,615.914v1.232h1.376v-8H826v1.232a3.508,3.508,0,0,0-2.816-1.392A4,4,0,0,0,819.264,613.146Zm6.849,0a2.733,2.733,0,1,1-2.72-2.9A2.731,2.731,0,0,1,826.113,613.146Zm4.255,4h1.376v-3.968c0-1.873,1.024-2.929,2.32-2.929a1.921,1.921,0,0,1,1.889,2.177v4.72h1.36v-4.928a2.949,2.949,0,0,0-3.025-3.233,2.829,2.829,0,0,0-2.544,1.392v-1.232h-1.376v8Zm9.2-4a4,4,0,0,0,3.92,4.16,3.51,3.51,0,0,0,2.817-1.392v1.232h1.376v-12h-1.376v5.232a3.51,3.51,0,0,0-2.817-1.392A4,4,0,0,0,839.568,613.146Zm6.849,0a2.733,2.733,0,1,1-2.721-2.9A2.732,2.732,0,0,1,846.417,613.146Zm9.023,4h1.376v-6.737h2.32v-1.264h-2.32v-1.472a1.152,1.152,0,0,1,1.328-1.36,3.222,3.222,0,0,1,.992.16v-1.216a3.636,3.636,0,0,0-1.248-.208,2.285,2.285,0,0,0-2.448,2.48v1.616h-1.7v1.264h1.7v6.737Zm4.768-4a4,4,0,0,0,3.92,4.16,3.512,3.512,0,0,0,2.817-1.392v1.232h1.376v-8h-1.376v1.232a3.512,3.512,0,0,0-2.817-1.392A4,4,0,0,0,860.208,613.146Zm6.849,0a2.733,2.733,0,1,1-2.721-2.9A2.732,2.732,0,0,1,867.057,613.146Zm5.631,2.768a3.508,3.508,0,0,0,2.816,1.392,4.168,4.168,0,0,0,0-8.321,3.508,3.508,0,0,0-2.816,1.392v-5.232h-1.376v12h1.376v-1.232Zm5.328-2.768a2.725,2.725,0,1,1-2.72-2.9A2.731,2.731,0,0,1,878.016,613.146Zm3.775,4h1.377v-3.968c0-1.873,1.1-2.753,2.112-2.753a2.011,2.011,0,0,1,.752.128v-1.424a2.851,2.851,0,0,0-.624-0.064,2.38,2.38,0,0,0-2.24,1.632v-1.552h-1.377v8Zm7.921-11.121a0.966,0.966,0,0,0-.961-0.976,0.994,0.994,0,0,0-.992.976,0.983,0.983,0,0,0,.992.976A0.957,0.957,0,0,0,889.712,606.025Zm-1.665,11.121h1.377v-8h-1.377v8Zm11.649-1.984-1.2-.672a2.712,2.712,0,0,1-2.5,1.536,2.882,2.882,0,0,1,0-5.761,2.711,2.711,0,0,1,2.5,1.537l1.2-.673a4.143,4.143,0,0,0-3.7-2.144,4.161,4.161,0,1,0,0,8.321A4.143,4.143,0,0,0,899.7,615.162Zm8.143-9.137a0.966,0.966,0,0,0-.96-0.976,0.994,0.994,0,0,0-.992.976,0.983,0.983,0,0,0,.992.976A0.956,0.956,0,0,0,907.839,606.025Zm-1.664,11.121h1.376v-8h-1.376v8Zm4.384,0h1.376v-3.968c0-1.873,1.024-2.929,2.32-2.929a1.921,1.921,0,0,1,1.889,2.177v4.72h1.36v-4.928a2.949,2.949,0,0,0-3.025-3.233,2.829,2.829,0,0,0-2.544,1.392v-1.232h-1.376v8Zm9.824,0h1.376v-3.968c0-1.873,1.024-2.929,2.32-2.929a1.921,1.921,0,0,1,1.888,2.177v4.72h1.361v-4.928a2.949,2.949,0,0,0-3.025-3.233,2.829,2.829,0,0,0-2.544,1.392v-1.232h-1.376v8Zm17.553-4a4.185,4.185,0,1,0-4.177,4.16A4.107,4.107,0,0,0,937.936,613.146Zm-6.961,0a2.778,2.778,0,1,1,2.784,2.88A2.751,2.751,0,0,1,930.975,613.146Zm11.648,4h1.152l3.7-8h-1.536l-2.736,6.049-2.736-6.049h-1.537Zm5.855-4a4,4,0,0,0,3.921,4.16,3.508,3.508,0,0,0,2.816-1.392v1.232h1.376v-8h-1.376v1.232a3.508,3.508,0,0,0-2.816-1.392A4,4,0,0,0,948.478,613.146Zm6.849,0a2.733,2.733,0,1,1-2.72-2.9A2.731,2.731,0,0,1,955.327,613.146Zm8.592,3.888V615.8a3.041,3.041,0,0,1-.976.16,1.152,1.152,0,0,1-1.329-1.36v-4.193h2.3v-1.264h-2.3v-2.224h-1.376v2.224h-1.7v1.264h1.7v4.369a2.252,2.252,0,0,0,2.449,2.448A3.828,3.828,0,0,0,963.919,617.034Zm3.823-11.009a0.966,0.966,0,0,0-.96-0.976,0.994,0.994,0,0,0-.992.976,0.983,0.983,0,0,0,.992.976A0.956,0.956,0,0,0,967.742,606.025Zm-1.664,11.121h1.376v-8h-1.376v8Zm12.113-4a4.185,4.185,0,1,0-4.177,4.16A4.106,4.106,0,0,0,978.191,613.146Zm-6.961,0a2.778,2.778,0,1,1,2.784,2.88A2.751,2.751,0,0,1,971.23,613.146Zm9.328,4h1.376v-3.968c0-1.873,1.024-2.929,2.32-2.929a1.921,1.921,0,0,1,1.889,2.177v4.72h1.36v-4.928a2.949,2.949,0,0,0-3.025-3.233,2.829,2.829,0,0,0-2.544,1.392v-1.232h-1.376v8Zm15.008-2.224c0-1.2-.752-1.968-2.112-2.416l-0.864-.288c-0.944-.3-1.232-0.608-1.232-1.121a1.132,1.132,0,0,1,1.344-.928,2.161,2.161,0,0,1,1.7.832l0.9-.864a3.1,3.1,0,0,0-2.56-1.152c-1.584,0-2.7.88-2.7,2.176a2.415,2.415,0,0,0,1.984,2.321l0.784,0.256c1.04,0.336,1.424.72,1.424,1.28a1.218,1.218,0,0,1-1.408,1.088,2.147,2.147,0,0,1-2.048-1.264l-1.12.608a3.178,3.178,0,0,0,3.136,1.856C994.4,617.306,995.566,616.49,995.566,614.922Zm10.734,2.112V615.8a3,3,0,0,1-.97.16,1.151,1.151,0,0,1-1.33-1.36v-4.193h2.3v-1.264H1004v-2.224h-1.38v2.224h-1.69v1.264h1.69v4.369a2.254,2.254,0,0,0,2.45,2.448A3.769,3.769,0,0,0,1006.3,617.034Zm9.78-3.888a4.185,4.185,0,1,0-4.18,4.16A4.109,4.109,0,0,0,1016.08,613.146Zm-6.96,0a2.777,2.777,0,1,1,2.78,2.88A2.75,2.75,0,0,1,1009.12,613.146Zm15.29-7.121a0.962,0.962,0,0,0-.96-0.976,1,1,0,0,0-.99.976,0.984,0.984,0,0,0,.99.976A0.953,0.953,0,0,0,1024.41,606.025Zm-1.66,11.121h1.38v-8h-1.38v8Zm4.38,0h1.38v-3.968c0-1.873,1.02-2.929,2.32-2.929a1.922,1.922,0,0,1,1.89,2.177v4.72h1.36v-4.928a2.949,2.949,0,0,0-3.03-3.233,2.818,2.818,0,0,0-2.54,1.392v-1.232h-1.38v8Zm10.4,0h1.38v-6.737h2.32v-1.264h-2.32v-1.472a1.153,1.153,0,0,1,1.33-1.36,3.229,3.229,0,0,1,.99.16v-1.216a3.64,3.64,0,0,0-1.25-.208,2.287,2.287,0,0,0-2.45,2.48v1.616h-1.69v1.264h1.69v6.737Zm5.49-3.088c0,1.984,1.18,3.248,2.95,3.248a2.757,2.757,0,0,0,2.46-1.392v1.232h1.38v-8h-1.38v3.969c0,1.84-.98,2.928-2.22,2.928-1.11,0-1.81-.848-1.81-2.192v-4.705h-1.38v4.913Zm14.96,0.864c0-1.2-.75-1.968-2.11-2.416l-0.86-.288c-0.95-.3-1.24-0.608-1.24-1.121a1.134,1.134,0,0,1,1.35-.928,2.138,2.138,0,0,1,1.69.832l0.9-.864a3.1,3.1,0,0,0-2.56-1.152c-1.59,0-2.71.88-2.71,2.176a2.416,2.416,0,0,0,1.99,2.321l0.78,0.256c1.04,0.336,1.43.72,1.43,1.28a1.222,1.222,0,0,1-1.41,1.088,2.146,2.146,0,0,1-2.05-1.264l-1.12.608a3.18,3.18,0,0,0,3.14,1.856C1056.81,617.306,1057.98,616.49,1057.98,614.922Zm1.74-1.776a4.222,4.222,0,0,0,7.75,2.256l-1.09-.752a2.83,2.83,0,0,1-5.26-1.232h6.56c0.01-.176.01-0.272,0.01-0.416a3.722,3.722,0,0,0-3.8-4.017A4.058,4.058,0,0,0,1059.72,613.146Zm4.12-2.945a2.4,2.4,0,0,1,2.45,2.1h-5.08A2.625,2.625,0,0,1,1063.84,610.2ZM35.867,638.922c0-1.2-.752-1.968-2.112-2.416l-0.864-.288c-0.944-.3-1.232-0.608-1.232-1.121A1.133,1.133,0,0,1,33,634.169a2.162,2.162,0,0,1,1.7.832l0.9-.864a3.1,3.1,0,0,0-2.56-1.152c-1.584,0-2.7.88-2.7,2.176a2.415,2.415,0,0,0,1.984,2.321l0.784,0.256c1.04,0.336,1.424.72,1.424,1.28a1.218,1.218,0,0,1-1.408,1.088,2.147,2.147,0,0,1-2.048-1.264l-1.12.608a3.178,3.178,0,0,0,3.136,1.856C34.7,641.306,35.867,640.49,35.867,638.922Zm6.608,2.112V639.8a3.042,3.042,0,0,1-.976.16,1.152,1.152,0,0,1-1.328-1.36v-4.193h2.3v-1.264h-2.3v-2.224H38.795v2.224H37.1v1.264h1.7v4.369a2.252,2.252,0,0,0,2.448,2.448A3.83,3.83,0,0,0,42.475,641.034Zm4.288,3.457,5.249-11.346H50.475l-2.736,6.065-2.752-6.065h-1.52l3.5,7.585-1.744,3.761h1.536Zm7.024-3.345h1.376v-12H53.787v12Zm3.76-4a4.218,4.218,0,0,0,7.745,2.256L64.2,638.65a2.833,2.833,0,0,1-5.265-1.232H65.5A3.9,3.9,0,0,0,65.515,637a3.728,3.728,0,0,0-3.809-4.017A4.054,4.054,0,0,0,57.546,637.146Zm4.112-2.945a2.394,2.394,0,0,1,2.448,2.1H59.035A2.615,2.615,0,0,1,61.659,634.2Zm17.008,6.945h1.216l2.72-8H81.148l-1.936,5.841-2-5.841H76.155l-2,5.841-1.936-5.841h-1.44l2.72,8h1.216l1.984-5.76Zm7.487-11.121a0.966,0.966,0,0,0-.96-0.976,0.994,0.994,0,0,0-.992.976,0.983,0.983,0,0,0,.992.976A0.956,0.956,0,0,0,86.154,630.025ZM84.49,641.146h1.376v-8H84.49v8Zm8.721-.112V639.8a3.043,3.043,0,0,1-.976.16,1.152,1.152,0,0,1-1.328-1.36v-4.193h2.3v-1.264h-2.3v-2.224H89.53v2.224h-1.7v1.264h1.7v4.369a2.252,2.252,0,0,0,2.448,2.448A3.83,3.83,0,0,0,93.211,641.034Zm2.159,0.112h1.376v-3.968c0-1.873,1.024-2.929,2.32-2.929a1.921,1.921,0,0,1,1.889,2.177v4.72h1.36v-4.928a2.949,2.949,0,0,0-3.025-3.233,2.829,2.829,0,0,0-2.544,1.392v-5.232H95.37v12Zm19.312-2.224c0-1.2-.752-1.968-2.112-2.416l-0.864-.288c-0.944-.3-1.232-0.608-1.232-1.121a1.132,1.132,0,0,1,1.344-.928,2.161,2.161,0,0,1,1.7.832l0.9-.864a3.1,3.1,0,0,0-2.56-1.152c-1.584,0-2.7.88-2.7,2.176a2.414,2.414,0,0,0,1.985,2.321l0.784,0.256c1.04,0.336,1.424.72,1.424,1.28a1.218,1.218,0,0,1-1.408,1.088,2.149,2.149,0,0,1-2.049-1.264l-1.12.608a3.179,3.179,0,0,0,3.137,1.856C113.514,641.306,114.682,640.49,114.682,638.922Zm2.255-.864c0,1.984,1.184,3.248,2.945,3.248a2.752,2.752,0,0,0,2.464-1.392v1.232h1.376v-8h-1.376v3.969c0,1.84-.976,2.928-2.224,2.928-1.1,0-1.809-.848-1.809-2.192v-4.705h-1.376v4.913Zm11.152,1.856a3.51,3.51,0,0,0,2.817,1.392,4.168,4.168,0,0,0,0-8.321,3.51,3.51,0,0,0-2.817,1.392v-5.232h-1.376v12h1.376v-1.232Zm5.329-2.768a2.726,2.726,0,1,1-2.72-2.9A2.731,2.731,0,0,1,133.418,637.146Zm8.944,1.776c0-1.2-.752-1.968-2.112-2.416l-0.865-.288c-0.944-.3-1.232-0.608-1.232-1.121a1.132,1.132,0,0,1,1.344-.928,2.162,2.162,0,0,1,1.7.832l0.9-.864a3.1,3.1,0,0,0-2.561-1.152c-1.584,0-2.7.88-2.7,2.176a2.415,2.415,0,0,0,1.984,2.321l0.784,0.256c1.041,0.336,1.425.72,1.425,1.28a1.218,1.218,0,0,1-1.408,1.088,2.147,2.147,0,0,1-2.049-1.264l-1.12.608a3.178,3.178,0,0,0,3.136,1.856C141.194,641.306,142.362,640.49,142.362,638.922Zm6.608,2.112V639.8a3.041,3.041,0,0,1-.976.16,1.152,1.152,0,0,1-1.329-1.36v-4.193h2.305v-1.264h-2.305v-2.224h-1.376v2.224h-1.7v1.264h1.7v4.369a2.252,2.252,0,0,0,2.449,2.448A3.828,3.828,0,0,0,148.97,641.034Zm1.423-3.888a4,4,0,0,0,3.921,4.16,3.508,3.508,0,0,0,2.816-1.392v1.232h1.376v-8H157.13v1.232a3.508,3.508,0,0,0-2.816-1.392A4,4,0,0,0,150.393,637.146Zm6.849,0a2.733,2.733,0,1,1-2.72-2.9A2.731,2.731,0,0,1,157.242,637.146Zm4.255,4h1.376v-3.968c0-1.873,1.024-2.929,2.321-2.929a1.921,1.921,0,0,1,1.888,2.177v4.72h1.36v-4.928a2.949,2.949,0,0,0-3.024-3.233,2.829,2.829,0,0,0-2.545,1.392v-1.232H161.5v8Zm17.089-1.984-1.2-.672a2.712,2.712,0,0,1-2.5,1.536,2.882,2.882,0,0,1,0-5.761,2.711,2.711,0,0,1,2.5,1.537l1.2-.673a4.143,4.143,0,0,0-3.7-2.144,4.161,4.161,0,1,0,0,8.321A4.143,4.143,0,0,0,178.586,639.162Zm1.551-2.016a4.218,4.218,0,0,0,7.745,2.256l-1.088-.752a2.833,2.833,0,0,1-5.265-1.232h6.561a3.9,3.9,0,0,0,.016-0.416,3.729,3.729,0,0,0-3.809-4.017A4.054,4.054,0,0,0,180.137,637.146Zm4.112-2.945a2.394,2.394,0,0,1,2.448,2.1h-5.072A2.615,2.615,0,0,1,184.249,634.2Zm5.952,3.153h8.081v-1.376H190.2v1.376Zm12.192,2.56a3.508,3.508,0,0,0,2.816,1.392,4.168,4.168,0,0,0,0-8.321,3.508,3.508,0,0,0-2.816,1.392v-5.232h-1.377v12h1.377v-1.232Zm5.328-2.768a2.725,2.725,0,1,1-2.72-2.9A2.731,2.731,0,0,1,207.721,637.146Zm3.151,0a4.218,4.218,0,0,0,7.745,2.256l-1.088-.752a2.833,2.833,0,0,1-5.265-1.232h6.561a3.9,3.9,0,0,0,.016-0.416,3.728,3.728,0,0,0-3.808-4.017A4.054,4.054,0,0,0,210.872,637.146Zm4.113-2.945a2.394,2.394,0,0,1,2.448,2.1H212.36A2.616,2.616,0,0,1,214.985,634.2Zm13.472,4.961-1.2-.672a2.712,2.712,0,0,1-2.5,1.536,2.882,2.882,0,0,1,0-5.761,2.711,2.711,0,0,1,2.5,1.537l1.2-.673a4.143,4.143,0,0,0-3.7-2.144,4.161,4.161,0,1,0,0,8.321A4.143,4.143,0,0,0,228.457,639.162Zm1.551-2.016a4,4,0,0,0,3.92,4.16,3.509,3.509,0,0,0,2.817-1.392v1.232h1.376v-8h-1.376v1.232a3.509,3.509,0,0,0-2.817-1.392A4,4,0,0,0,230.008,637.146Zm6.849,0a2.733,2.733,0,1,1-2.721-2.9A2.732,2.732,0,0,1,236.857,637.146ZM241,638.058c0,1.984,1.184,3.248,2.944,3.248a2.754,2.754,0,0,0,2.465-1.392v1.232h1.376v-8h-1.376v3.969c0,1.84-.977,2.928-2.225,2.928-1.1,0-1.808-.848-1.808-2.192v-4.705H241v4.913Zm14.96,0.864c0-1.2-.752-1.968-2.112-2.416l-0.864-.288c-0.944-.3-1.232-0.608-1.232-1.121a1.132,1.132,0,0,1,1.344-.928,2.161,2.161,0,0,1,1.7.832l0.9-.864a3.1,3.1,0,0,0-2.56-1.152c-1.584,0-2.7.88-2.7,2.176a2.415,2.415,0,0,0,1.984,2.321l0.784,0.256c1.04,0.336,1.424.72,1.424,1.28a1.218,1.218,0,0,1-1.408,1.088,2.147,2.147,0,0,1-2.048-1.264l-1.12.608a3.178,3.178,0,0,0,3.136,1.856C254.792,641.306,255.96,640.49,255.96,638.922Zm1.743-1.776a4.219,4.219,0,0,0,7.746,2.256l-1.089-.752a2.832,2.832,0,0,1-5.264-1.232h6.561a3.9,3.9,0,0,0,.016-0.416,3.729,3.729,0,0,0-3.809-4.017A4.055,4.055,0,0,0,257.7,637.146Zm4.113-2.945a2.394,2.394,0,0,1,2.448,2.1h-5.072A2.615,2.615,0,0,1,261.816,634.2Zm17.008,6.945h1.217l2.72-8h-1.456l-1.936,5.841-2-5.841h-1.056l-2,5.841-1.937-5.841h-1.44l2.721,8h1.216l1.984-5.76Zm5.167-4a4.218,4.218,0,0,0,7.745,2.256l-1.088-.752a2.833,2.833,0,0,1-5.265-1.232h6.561A3.9,3.9,0,0,0,291.96,637a3.728,3.728,0,0,0-3.808-4.017A4.054,4.054,0,0,0,283.991,637.146ZM288.1,634.2a2.394,2.394,0,0,1,2.448,2.1h-5.073A2.616,2.616,0,0,1,288.1,634.2Zm11.887,5.713a3.509,3.509,0,0,0,2.817,1.392,4.168,4.168,0,0,0,0-8.321,3.509,3.509,0,0,0-2.817,1.392v-5.232h-1.376v12h1.376v-1.232Zm5.329-2.768a2.726,2.726,0,1,1-2.72-2.9A2.731,2.731,0,0,1,305.32,637.146Zm3.151,0a4.218,4.218,0,0,0,7.745,2.256l-1.088-.752a2.833,2.833,0,0,1-5.265-1.232h6.561A3.9,3.9,0,0,0,316.44,637a3.728,3.728,0,0,0-3.809-4.017A4.054,4.054,0,0,0,308.471,637.146Zm4.112-2.945a2.4,2.4,0,0,1,2.449,2.1h-5.073A2.615,2.615,0,0,1,312.583,634.2Zm6.208,6.945h1.376v-12h-1.376v12Zm6.048-11.121a0.966,0.966,0,0,0-.96-0.976,1,1,0,0,0-.993.976,0.984,0.984,0,0,0,.993.976A0.956,0.956,0,0,0,324.839,630.025Zm-1.664,11.121h1.376v-8h-1.376v8Zm3.759-4a4.218,4.218,0,0,0,7.745,2.256l-1.088-.752a2.832,2.832,0,0,1-5.264-1.232h6.56A3.9,3.9,0,0,0,334.9,637a3.728,3.728,0,0,0-3.808-4.017A4.055,4.055,0,0,0,326.934,637.146Zm4.113-2.945a2.394,2.394,0,0,1,2.448,2.1h-5.072A2.615,2.615,0,0,1,331.047,634.2Zm8.576,6.945h1.152l3.7-8h-1.536l-2.736,6.049-2.737-6.049h-1.536Zm5.839-4a4.218,4.218,0,0,0,7.745,2.256l-1.088-.752a2.832,2.832,0,0,1-5.264-1.232h6.561a4.163,4.163,0,0,0,.015-0.416,3.728,3.728,0,0,0-3.808-4.017A4.055,4.055,0,0,0,345.462,637.146Zm4.113-2.945a2.394,2.394,0,0,1,2.448,2.1h-5.072A2.615,2.615,0,0,1,349.575,634.2Zm14.576,6.833V639.8a3.041,3.041,0,0,1-.976.16,1.153,1.153,0,0,1-1.329-1.36v-4.193h2.305v-1.264h-2.305v-2.224H360.47v2.224h-1.7v1.264h1.7v4.369a2.252,2.252,0,0,0,2.449,2.448A3.828,3.828,0,0,0,364.151,641.034Zm2.159,0.112h1.376v-3.968c0-1.873,1.024-2.929,2.321-2.929a1.921,1.921,0,0,1,1.888,2.177v4.72h1.36v-4.928a2.949,2.949,0,0,0-3.024-3.233,2.831,2.831,0,0,0-2.545,1.392v-5.232H366.31v12Zm9.2-4a4,4,0,0,0,3.92,4.16,3.509,3.509,0,0,0,2.817-1.392v1.232h1.376v-8h-1.376v1.232a3.509,3.509,0,0,0-2.817-1.392A4,4,0,0,0,375.51,637.146Zm6.849,0a2.733,2.733,0,1,1-2.721-2.9A2.732,2.732,0,0,1,382.359,637.146Zm8.591,3.888V639.8a3.041,3.041,0,0,1-.976.16,1.152,1.152,0,0,1-1.328-1.36v-4.193h2.3v-1.264h-2.3v-2.224H387.27v2.224h-1.7v1.264h1.7v4.369a2.252,2.252,0,0,0,2.448,2.448A3.828,3.828,0,0,0,390.95,641.034Zm12.961,0.112h1.216l2.72-8h-1.456l-1.936,5.841-2-5.841H401.4l-2,5.841-1.936-5.841h-1.44l2.72,8h1.216l1.984-5.76Zm5.822,0h1.377v-3.968c0-1.873,1.024-2.929,2.32-2.929a1.921,1.921,0,0,1,1.888,2.177v4.72h1.36v-4.928a2.949,2.949,0,0,0-3.024-3.233,2.829,2.829,0,0,0-2.544,1.392v-5.232h-1.377v12Zm9.2-4a4,4,0,0,0,3.921,4.16,3.508,3.508,0,0,0,2.816-1.392v1.232h1.376v-8H425.67v1.232a3.508,3.508,0,0,0-2.816-1.392A4,4,0,0,0,418.933,637.146Zm6.849,0a2.733,2.733,0,1,1-2.72-2.9A2.731,2.731,0,0,1,425.782,637.146Zm8.592,3.888V639.8a3.041,3.041,0,0,1-.976.16,1.152,1.152,0,0,1-1.329-1.36v-4.193h2.305v-1.264h-2.305v-2.224h-1.376v2.224H429v1.264h1.7v4.369a2.252,2.252,0,0,0,2.449,2.448A3.828,3.828,0,0,0,434.374,641.034Zm8.223,3.457,5.249-11.346H446.31l-2.737,6.065-2.752-6.065H439.3l3.5,7.585-1.744,3.761H442.6Zm14.577-7.345a4.185,4.185,0,1,0-4.176,4.16A4.106,4.106,0,0,0,457.174,637.146Zm-6.961,0a2.778,2.778,0,1,1,2.785,2.88A2.751,2.751,0,0,1,450.213,637.146Zm9.216,0.912c0,1.984,1.184,3.248,2.944,3.248a2.754,2.754,0,0,0,2.465-1.392v1.232h1.376v-8h-1.376v3.969c0,1.84-.976,2.928-2.225,2.928-1.1,0-1.808-.848-1.808-2.192v-4.705h-1.376v4.913Zm20.577,3.088h1.216l2.72-8h-1.456l-1.936,5.841-2-5.841h-1.057l-2,5.841-1.936-5.841h-1.44l2.72,8h1.216l1.985-5.76Zm5.167-4a4.218,4.218,0,0,0,7.745,2.256l-1.089-.752a2.832,2.832,0,0,1-5.264-1.232h6.561a3.9,3.9,0,0,0,.016-0.416,3.729,3.729,0,0,0-3.809-4.017A4.054,4.054,0,0,0,485.173,637.146Zm4.112-2.945a2.394,2.394,0,0,1,2.448,2.1h-5.072A2.615,2.615,0,0,1,489.285,634.2Zm5.583,2.945a4,4,0,0,0,3.921,4.16,3.508,3.508,0,0,0,2.816-1.392v1.232h1.377v-8h-1.377v1.232a3.508,3.508,0,0,0-2.816-1.392A4,4,0,0,0,494.868,637.146Zm6.849,0a2.733,2.733,0,1,1-2.72-2.9A2.731,2.731,0,0,1,501.717,637.146Zm4.255,4h1.377v-3.968c0-1.873,1.1-2.753,2.112-2.753a2.011,2.011,0,0,1,.752.128v-1.424a2.851,2.851,0,0,0-.624-0.064,2.38,2.38,0,0,0-2.24,1.632v-1.552h-1.377v8Zm15.345-2.224c0-1.2-.752-1.968-2.112-2.416l-0.864-.288c-0.945-.3-1.233-0.608-1.233-1.121a1.133,1.133,0,0,1,1.345-.928,2.161,2.161,0,0,1,1.7.832l0.9-.864a3.1,3.1,0,0,0-2.56-1.152c-1.585,0-2.705.88-2.705,2.176a2.414,2.414,0,0,0,1.985,2.321l0.784,0.256c1.04,0.336,1.424.72,1.424,1.28a1.218,1.218,0,0,1-1.408,1.088,2.148,2.148,0,0,1-2.049-1.264l-1.12.608a3.178,3.178,0,0,0,3.137,1.856C520.149,641.306,521.317,640.49,521.317,638.922Zm2.367,2.224h1.376v-3.968c0-1.873,1.025-2.929,2.321-2.929a1.921,1.921,0,0,1,1.888,2.177v4.72h1.36v-4.928a2.949,2.949,0,0,0-3.024-3.233,2.831,2.831,0,0,0-2.545,1.392v-5.232h-1.376v12Zm17.553-4a4.185,4.185,0,1,0-4.176,4.16A4.106,4.106,0,0,0,541.237,637.146Zm-6.961,0a2.778,2.778,0,1,1,2.785,2.88A2.751,2.751,0,0,1,534.276,637.146Zm9.216,0.912c0,1.984,1.184,3.248,2.944,3.248a2.755,2.755,0,0,0,2.465-1.392v1.232h1.376v-8H548.9v3.969c0,1.84-.977,2.928-2.225,2.928-1.1,0-1.808-.848-1.808-2.192v-4.705h-1.376v4.913Zm9.776,3.088h1.376v-12h-1.376v12Zm3.76-4a4,4,0,0,0,3.92,4.16,3.512,3.512,0,0,0,2.817-1.392v1.232h1.376v-12h-1.376v5.232a3.512,3.512,0,0,0-2.817-1.392A4,4,0,0,0,557.028,637.146Zm6.848,0a2.733,2.733,0,1,1-2.72-2.9A2.731,2.731,0,0,1,563.876,637.146Zm16.288,0a4.185,4.185,0,1,0-4.176,4.16A4.106,4.106,0,0,0,580.164,637.146Zm-6.961,0a2.778,2.778,0,1,1,2.785,2.88A2.751,2.751,0,0,1,573.2,637.146Zm9.328,7.345h1.376v-4.577a3.51,3.51,0,0,0,2.817,1.392,4.168,4.168,0,0,0,0-8.321,3.51,3.51,0,0,0-2.817,1.392v-1.232h-1.376v11.346Zm6.705-7.345a2.726,2.726,0,1,1-2.72-2.9A2.731,2.731,0,0,1,589.236,637.146Zm3.167,0a4.218,4.218,0,0,0,7.745,2.256l-1.088-.752a2.833,2.833,0,0,1-5.265-1.232h6.561a3.9,3.9,0,0,0,.016-0.416,3.728,3.728,0,0,0-3.808-4.017A4.054,4.054,0,0,0,592.4,637.146Zm4.113-2.945a2.394,2.394,0,0,1,2.448,2.1h-5.073A2.616,2.616,0,0,1,596.516,634.2Zm6.207,6.945H604.1v-3.968c0-1.873,1.024-2.929,2.321-2.929a1.921,1.921,0,0,1,1.888,2.177v4.72h1.36v-4.928a2.949,2.949,0,0,0-3.024-3.233,2.829,2.829,0,0,0-2.545,1.392v-1.232h-1.376v8Zm13.5-4a4,4,0,0,0,3.92,4.16,3.508,3.508,0,0,0,2.816-1.392v1.232h1.377v-8h-1.377v1.232a3.508,3.508,0,0,0-2.816-1.392A4,4,0,0,0,616.227,637.146Zm6.848,0a2.733,2.733,0,1,1-2.72-2.9A2.731,2.731,0,0,1,623.075,637.146Zm15.056,4h1.217l2.72-8h-1.456l-1.937,5.841-2-5.841h-1.056l-2,5.841-1.937-5.841h-1.44l2.721,8h1.216l1.984-5.76Zm13.52-4a4.185,4.185,0,1,0-4.176,4.16A4.106,4.106,0,0,0,651.651,637.146Zm-6.961,0a2.778,2.778,0,1,1,2.785,2.88A2.751,2.751,0,0,1,644.69,637.146Zm9.328,4h1.376v-3.968c0-1.873,1.1-2.753,2.112-2.753a2.02,2.02,0,0,1,.753.128v-1.424a2.86,2.86,0,0,0-.625-0.064,2.38,2.38,0,0,0-2.24,1.632v-1.552h-1.376v8Zm6.256,0h1.376v-12h-1.376v12Zm3.76-4a4,4,0,0,0,3.92,4.16,3.51,3.51,0,0,0,2.817-1.392v1.232h1.376v-12h-1.376v5.232a3.51,3.51,0,0,0-2.817-1.392A4,4,0,0,0,664.034,637.146Zm6.849,0a2.733,2.733,0,1,1-2.721-2.9A2.732,2.732,0,0,1,670.883,637.146Zm16.288,0a4.185,4.185,0,1,0-4.177,4.16A4.107,4.107,0,0,0,687.171,637.146Zm-6.961,0a2.778,2.778,0,1,1,2.784,2.88A2.751,2.751,0,0,1,680.21,637.146Zm9.871,4h1.377v-6.737h2.32v-1.264h-2.32v-1.472a1.152,1.152,0,0,1,1.328-1.36,3.222,3.222,0,0,1,.992.16v-1.216a3.636,3.636,0,0,0-1.248-.208,2.285,2.285,0,0,0-2.449,2.48v1.616h-1.7v1.264h1.7v6.737Zm9.488,3.345h1.376v-4.577a3.51,3.51,0,0,0,2.817,1.392,4.168,4.168,0,0,0,0-8.321,3.51,3.51,0,0,0-2.817,1.392v-1.232h-1.376v11.346Zm6.705-7.345a2.726,2.726,0,1,1-2.72-2.9A2.731,2.731,0,0,1,706.274,637.146Zm11.52,0a4.185,4.185,0,1,0-4.176,4.16A4.106,4.106,0,0,0,717.794,637.146Zm-6.961,0a2.778,2.778,0,1,1,2.785,2.88A2.751,2.751,0,0,1,710.833,637.146Zm14.5,1.776c0-1.2-.752-1.968-2.112-2.416l-0.865-.288c-0.944-.3-1.232-0.608-1.232-1.121a1.132,1.132,0,0,1,1.344-.928,2.162,2.162,0,0,1,1.7.832l0.9-.864a3.1,3.1,0,0,0-2.561-1.152c-1.584,0-2.7.88-2.7,2.176a2.415,2.415,0,0,0,1.984,2.321l0.784,0.256c1.041,0.336,1.425.72,1.425,1.28a1.218,1.218,0,0,1-1.409,1.088,2.147,2.147,0,0,1-2.048-1.264l-1.12.608a3.178,3.178,0,0,0,3.136,1.856C724.162,641.306,725.33,640.49,725.33,638.922Zm7.536,0c0-1.2-.752-1.968-2.112-2.416l-0.865-.288c-0.944-.3-1.232-0.608-1.232-1.121a1.132,1.132,0,0,1,1.344-.928,2.162,2.162,0,0,1,1.7.832l0.9-.864a3.1,3.1,0,0,0-2.561-1.152c-1.584,0-2.7.88-2.7,2.176a2.415,2.415,0,0,0,1.984,2.321l0.784,0.256c1.041,0.336,1.425.72,1.425,1.28a1.218,1.218,0,0,1-1.409,1.088,2.147,2.147,0,0,1-2.048-1.264l-1.12.608a3.178,3.178,0,0,0,3.136,1.856C731.7,641.306,732.866,640.49,732.866,638.922Zm4.031-8.9a0.966,0.966,0,0,0-.96-0.976,0.994,0.994,0,0,0-.992.976,0.983,0.983,0,0,0,.992.976A0.956,0.956,0,0,0,736.9,630.025Zm-1.664,11.121h1.376v-8h-1.376v8Zm5.76-1.232a3.508,3.508,0,0,0,2.816,1.392,4.168,4.168,0,0,0,0-8.321,3.508,3.508,0,0,0-2.816,1.392v-5.232h-1.376v12h1.376v-1.232Zm5.329-2.768a2.726,2.726,0,1,1-2.721-2.9A2.732,2.732,0,0,1,746.322,637.146Zm5.439-7.121a0.966,0.966,0,0,0-.96-0.976,0.994,0.994,0,0,0-.992.976,0.983,0.983,0,0,0,.992.976A0.956,0.956,0,0,0,751.761,630.025ZM750.1,641.146h1.376v-8H750.1v8Zm4.384,0h1.376v-12h-1.376v12Zm6.048-11.121a0.966,0.966,0,0,0-.96-0.976,0.994,0.994,0,0,0-.992.976,0.983,0.983,0,0,0,.992.976A0.956,0.956,0,0,0,760.529,630.025Zm-1.664,11.121h1.376v-8h-1.376v8Zm8.72-.112V639.8a3.041,3.041,0,0,1-.976.16,1.152,1.152,0,0,1-1.328-1.36v-4.193h2.3v-1.264h-2.3v-2.224h-1.376v2.224h-1.7v1.264h1.7v4.369a2.252,2.252,0,0,0,2.448,2.448A3.828,3.828,0,0,0,767.585,641.034Zm3.824-11.009a0.966,0.966,0,0,0-.961-0.976,0.994,0.994,0,0,0-.992.976,0.983,0.983,0,0,0,.992.976A0.957,0.957,0,0,0,771.409,630.025Zm-1.665,11.121h1.377v-8h-1.377v8Zm3.76-4a4.218,4.218,0,0,0,7.745,2.256l-1.088-.752a2.833,2.833,0,0,1-5.265-1.232h6.561a3.9,3.9,0,0,0,.016-0.416,3.728,3.728,0,0,0-3.808-4.017A4.054,4.054,0,0,0,773.5,637.146Zm4.113-2.945a2.394,2.394,0,0,1,2.448,2.1h-5.073A2.616,2.616,0,0,1,777.617,634.2Zm11.392,4.721c0-1.2-.752-1.968-2.112-2.416l-0.864-.288c-0.945-.3-1.233-0.608-1.233-1.121a1.133,1.133,0,0,1,1.345-.928,2.161,2.161,0,0,1,1.7.832l0.9-.864a3.1,3.1,0,0,0-2.56-1.152c-1.585,0-2.705.88-2.705,2.176a2.415,2.415,0,0,0,1.984,2.321l0.785,0.256c1.04,0.336,1.424.72,1.424,1.28a1.218,1.218,0,0,1-1.408,1.088,2.147,2.147,0,0,1-2.049-1.264l-1.12.608a3.178,3.178,0,0,0,3.137,1.856C787.841,641.306,789.009,640.49,789.009,638.922Zm7.135,2.224h1.376v-6.737h2.321v-1.264H797.52v-1.472a1.152,1.152,0,0,1,1.329-1.36,3.222,3.222,0,0,1,.992.16v-1.216a3.636,3.636,0,0,0-1.248-.208,2.285,2.285,0,0,0-2.449,2.48v1.616h-1.7v1.264h1.7v6.737Zm13.121-4a4.185,4.185,0,1,0-4.176,4.16A4.106,4.106,0,0,0,809.265,637.146Zm-6.961,0a2.778,2.778,0,1,1,2.785,2.88A2.751,2.751,0,0,1,802.3,637.146Zm9.328,4h1.376v-3.968c0-1.873,1.1-2.753,2.113-2.753a2.011,2.011,0,0,1,.752.128v-1.424a2.851,2.851,0,0,0-.624-0.064,2.38,2.38,0,0,0-2.241,1.632v-1.552h-1.376v8Zm9.536-4a4,4,0,0,0,3.92,4.16,3.51,3.51,0,0,0,2.817-1.392v1.232h1.376v-8h-1.376v1.232a3.51,3.51,0,0,0-2.817-1.392A4,4,0,0,0,821.168,637.146Zm6.849,0a2.733,2.733,0,1,1-2.721-2.9A2.732,2.732,0,0,1,828.017,637.146Zm8.558,4h1.377v-12h-1.377v12Zm6.049-11.121a0.966,0.966,0,0,0-.961-0.976,0.994,0.994,0,0,0-.992.976,0.983,0.983,0,0,0,.992.976A0.957,0.957,0,0,0,842.624,630.025Zm-1.665,11.121h1.377v-8h-1.377v8Zm5.056,0h1.377v-6.737h2.32v-1.264h-2.32v-1.472a1.152,1.152,0,0,1,1.328-1.36,3.222,3.222,0,0,1,.992.16v-1.216a3.636,3.636,0,0,0-1.248-.208,2.285,2.285,0,0,0-2.449,2.48v1.616h-1.7v1.264h1.7v6.737Zm4.768-4a4.218,4.218,0,0,0,7.745,2.256l-1.088-.752a2.833,2.833,0,0,1-5.265-1.232h6.561a3.9,3.9,0,0,0,.016-0.416,3.728,3.728,0,0,0-3.808-4.017A4.055,4.055,0,0,0,850.783,637.146ZM854.9,634.2a2.394,2.394,0,0,1,2.448,2.1h-5.072A2.615,2.615,0,0,1,854.9,634.2Zm17.008,6.945h1.216l2.721-8h-1.456l-1.937,5.841-2-5.841h-1.056l-2,5.841-1.937-5.841h-1.44l2.721,8h1.216l1.984-5.76Zm7.487-11.121a0.966,0.966,0,0,0-.96-0.976,0.994,0.994,0,0,0-.992.976,0.983,0.983,0,0,0,.992.976A0.956,0.956,0,0,0,879.391,630.025Zm-1.664,11.121H879.1v-8h-1.376v8Zm8.721-.112V639.8a3.052,3.052,0,0,1-.977.16,1.152,1.152,0,0,1-1.328-1.36v-4.193h2.3v-1.264h-2.3v-2.224h-1.376v2.224h-1.7v1.264h1.7v4.369a2.252,2.252,0,0,0,2.448,2.448A3.835,3.835,0,0,0,886.448,641.034Zm2.159,0.112h1.376v-3.968c0-1.873,1.024-2.929,2.32-2.929a1.921,1.921,0,0,1,1.889,2.177v4.72h1.36v-4.928a2.949,2.949,0,0,0-3.025-3.233,2.829,2.829,0,0,0-2.544,1.392v-5.232h-1.376v12Zm14.128,0h1.376v-3.968c0-1.873,1.024-2.929,2.32-2.929a1.921,1.921,0,0,1,1.888,2.177v4.72h1.36v-4.928a2.949,2.949,0,0,0-3.024-3.233,2.829,2.829,0,0,0-2.544,1.392v-1.232h-1.376v8Zm17.552-4a4.185,4.185,0,1,0-4.176,4.16A4.106,4.106,0,0,0,920.287,637.146Zm-6.961,0a2.778,2.778,0,1,1,2.785,2.88A2.751,2.751,0,0,1,913.326,637.146Zm15.008,2.768a3.508,3.508,0,0,0,2.816,1.392,4.168,4.168,0,0,0,0-8.321,3.508,3.508,0,0,0-2.816,1.392v-5.232h-1.376v12h1.376v-1.232Zm5.329-2.768a2.726,2.726,0,1,1-2.721-2.9A2.732,2.732,0,0,1,933.663,637.146Zm11.5,0a4.185,4.185,0,1,0-4.177,4.16A4.106,4.106,0,0,0,945.167,637.146Zm-6.961,0a2.778,2.778,0,1,1,2.784,2.88A2.751,2.751,0,0,1,938.206,637.146Zm9.216,0.912c0,1.984,1.184,3.248,2.944,3.248a2.752,2.752,0,0,0,2.464-1.392v1.232h1.376v-8H952.83v3.969c0,1.84-.976,2.928-2.224,2.928-1.1,0-1.808-.848-1.808-2.192v-4.705h-1.376v4.913Zm9.776,3.088h1.376v-3.968c0-1.873,1.024-2.929,2.32-2.929a1.921,1.921,0,0,1,1.888,2.177v4.72h1.36v-4.928a2.949,2.949,0,0,0-3.024-3.233,2.829,2.829,0,0,0-2.544,1.392v-1.232H957.2v8Zm9.2-4a4,4,0,0,0,3.921,4.16,3.508,3.508,0,0,0,2.816-1.392v1.232h1.376v-12h-1.376v5.232a3.508,3.508,0,0,0-2.816-1.392A4,4,0,0,0,966.4,637.146Zm6.849,0a2.733,2.733,0,1,1-2.72-2.9A2.731,2.731,0,0,1,973.246,637.146Zm3.631,0a4,4,0,0,0,3.921,4.16,3.508,3.508,0,0,0,2.816-1.392v1.232h1.376v-8h-1.376v1.232a3.508,3.508,0,0,0-2.816-1.392A4,4,0,0,0,976.877,637.146Zm6.849,0a2.733,2.733,0,1,1-2.72-2.9A2.731,2.731,0,0,1,983.726,637.146Zm4.255,4h1.376v-3.968c0-1.873,1.1-2.753,2.113-2.753a2.011,2.011,0,0,1,.752.128v-1.424a2.851,2.851,0,0,0-.624-0.064,2.38,2.38,0,0,0-2.241,1.632v-1.552h-1.376v8Zm7.92-11.121a0.966,0.966,0,0,0-.96-0.976,0.994,0.994,0,0,0-.992.976,0.983,0.983,0,0,0,.992.976A0.956,0.956,0,0,0,995.9,630.025Zm-1.664,11.121h1.376v-8h-1.376v8Zm3.76-4a4.217,4.217,0,0,0,7.743,2.256l-1.09-.752a2.831,2.831,0,0,1-5.261-1.232h6.561a3.128,3.128,0,0,0,.02-0.416,3.735,3.735,0,0,0-3.81-4.017A4.055,4.055,0,0,0,998,637.146Zm4.113-2.945a2.391,2.391,0,0,1,2.45,2.1h-5.075A2.616,2.616,0,0,1,1002.11,634.2Zm11.39,4.721c0-1.2-.75-1.968-2.11-2.416l-0.86-.288c-0.95-.3-1.24-0.608-1.24-1.121a1.14,1.14,0,0,1,1.35-.928,2.138,2.138,0,0,1,1.69.832l0.9-.864a3.1,3.1,0,0,0-2.56-1.152c-1.59,0-2.71.88-2.71,2.176a2.416,2.416,0,0,0,1.99,2.321l0.78,0.256c1.04,0.336,1.43.72,1.43,1.28a1.222,1.222,0,0,1-1.41,1.088,2.146,2.146,0,0,1-2.05-1.264l-1.12.608a3.18,3.18,0,0,0,3.14,1.856C1012.33,641.306,1013.5,640.49,1013.5,638.922Zm4.27,1.152a1.185,1.185,0,1,0-1.18,1.2A1.206,1.206,0,0,0,1017.77,640.074Z"/>
    <path id="designed_for_a_life_with_NO_BOUNDARIES" data-name="designed for a life with NO BOUNDARIES" class="cls-1" d="M30.061,551.436H38.04a11.707,11.707,0,1,0,0-23.409H30.061v23.409Zm5.242-4.814V532.841H38.04a6.9,6.9,0,0,1,0,13.781H35.3Zm20.333,4.814H70.473v-5.012H60.878v-4.187h7.616v-5.011H60.878v-4.187h9.594v-5.012H55.636v23.409Zm27.813,0.395c4.945,0,8.341-2.967,8.374-7.22,0.033-3.528-2.176-5.77-5.572-6.99l-1.648-.593c-2.473-.89-3.627-1.451-3.627-2.7,0-1.219,1.418-1.78,2.835-1.78a5.206,5.206,0,0,1,4.055,1.945l3.429-3.626a9.767,9.767,0,0,0-7.55-3.231c-4.682,0-8.078,2.67-8.078,7.22,0,3.2,2.11,5.473,5.9,6.759l1.648,0.56c2.341,0.792,3.264,1.616,3.264,2.8,0,1.121-1.088,1.945-2.835,1.945a6.123,6.123,0,0,1-4.847-2.671l-4.022,3.4A10.263,10.263,0,0,0,83.449,551.831Zm14-.395h5.242V528.027H97.447v23.409Zm23.617,0.395c3.791,0,7.517-1.121,9.594-3.461V537.259h-9.693v4.912h4.583v3.462a7.629,7.629,0,0,1-4.55,1.121c-4.583,0-7.385-3.033-7.385-7.023a6.871,6.871,0,0,1,7.055-7.022,7.773,7.773,0,0,1,5.9,2.506l3.693-3.594a12.454,12.454,0,0,0-9.595-3.989,11.956,11.956,0,0,0-12.33,12.1C108.338,546.589,113.778,551.831,121.064,551.831Zm36.885-.395V528.027h-5.276v14.441L141.3,528.027h-4.517v23.409h5.242V536.962l11.408,14.474h4.517Zm6.949,0h14.836v-5.012H170.14v-4.187h7.616v-5.011H170.14v-4.187h9.594v-5.012H164.9v23.409Zm20.823,0H193.7a11.707,11.707,0,1,0,0-23.409h-7.978v23.409Zm5.242-4.814V532.841H193.7a6.9,6.9,0,0,1,0,13.781h-2.736Zm29.572,4.814h5.242V542.27h7.155v-5.011h-7.155v-4.22h9.166v-5.012H220.535v23.409Zm30.284,0.395a12.1,12.1,0,1,0-12.1-12.1A12.129,12.129,0,0,0,250.819,551.831Zm0-5.077a7.026,7.026,0,1,1,6.792-7.023A6.946,6.946,0,0,1,250.819,546.754Zm17.731,4.682h5.242v-9.66h0.857l7.781,9.66h6.3l-8.275-10.32c2.967-1.055,4.583-3,4.583-6.033a6.912,6.912,0,0,0-7.254-7.056H268.55v23.409Zm5.242-14.111v-4.484h3.363c1.549,0,2.67.824,2.67,2.242,0,1.351-1.121,2.242-2.67,2.242h-3.363Zm23.667,14.111h5.473l2.077-4.946H314.7l2.077,4.946h5.473L312.23,528.027h-4.748Zm9.463-9.5,2.934-7.055,2.934,7.055h-5.868Zm28.022,9.5H349.88v-5.012h-9.693v-18.4h-5.243v23.409Zm20.2,0h5.242V528.027H355.14v23.409Zm12.177,0h5.242V542.27h7.154v-5.011h-7.154v-4.22h9.166v-5.012H367.317v23.409Zm19.965,0h14.836v-5.012h-9.594v-4.187h7.616v-5.011h-7.616v-4.187h9.594v-5.012H387.282v23.409Zm47.9,0h4.978l5.44-23.409h-5.6l-3.2,14.837L430.2,527.632l-6.561,15.232-3.2-14.837h-5.6l5.407,23.409h4.979l4.978-11.474Zm15.394,0h5.242V528.027h-5.242v23.409Zm16.4,0h5.275v-18.4h6.034v-5.012H461v5.012h5.968v18.4Zm16.5,0h5.242v-9.265h9.429v9.265h5.242V528.027h-5.242v9.166h-9.429v-9.166h-5.242v23.409Zm57.268,0V528.027h-5.275v14.441l-11.375-14.441h-4.517v23.409h5.242V536.962l11.408,14.474h4.517Zm17.73,0.395a12.1,12.1,0,1,0-12.1-12.1A12.129,12.129,0,0,0,558.474,551.831Zm0-5.077a7.026,7.026,0,1,1,6.792-7.023A6.945,6.945,0,0,1,558.474,546.754Zm26.97,4.682H595.73a6.921,6.921,0,0,0,7.122-6.891,6.117,6.117,0,0,0-3.33-5.539,5.509,5.509,0,0,0,1.681-4.022,6.958,6.958,0,0,0-6.956-6.957h-8.8v23.409Zm5.242-13.946v-4.682h2.967a2.379,2.379,0,0,1,2.44,2.374,2.347,2.347,0,0,1-2.44,2.308h-2.967Zm0,9.132V541.94h4.583a2.382,2.382,0,0,1,2.472,2.341,2.352,2.352,0,0,1-2.439,2.341h-4.616Zm28.474,5.209a12.1,12.1,0,1,0-12.1-12.1A12.129,12.129,0,0,0,619.16,551.831Zm0-5.077a7.026,7.026,0,1,1,6.791-7.023A6.945,6.945,0,0,1,619.16,546.754Zm27.093,5.077c5.6,0,9.628-3.824,9.628-9.66V528.027h-5.243v14.21a4.387,4.387,0,1,1-8.77,0v-14.21h-5.242v14.144C636.626,548.007,640.616,551.831,646.253,551.831Zm37.477-.395V528.027h-5.275v14.441L667.08,528.027h-4.516v23.409h5.242V536.962l11.407,14.474h4.517Zm6.949,0h7.979a11.707,11.707,0,1,0,0-23.409h-7.979v23.409Zm5.242-4.814V532.841h2.737a6.9,6.9,0,0,1,0,13.781h-2.737Zm16.739,4.814h5.473l2.077-4.946H729.9l2.077,4.946h5.473L727.43,528.027h-4.747Zm9.462-9.5,2.934-7.055,2.935,7.055h-5.869Zm19.773,9.5h5.243v-9.66H748l7.781,9.66h6.3l-8.275-10.32c2.967-1.055,4.582-3,4.582-6.033a6.911,6.911,0,0,0-7.253-7.056H741.9v23.409Zm5.243-14.111v-4.484H750.5c1.549,0,2.67.824,2.67,2.242,0,1.351-1.121,2.242-2.67,2.242h-3.363Zm18.583,14.111h5.242V528.027h-5.242v23.409Zm12.177,0h14.836v-5.012H783.14v-4.187h7.616v-5.011H783.14v-4.187h9.594v-5.012H777.9v23.409Zm27.812,0.395c4.946,0,8.342-2.967,8.375-7.22,0.033-3.528-2.176-5.77-5.572-6.99l-1.649-.593c-2.473-.89-3.627-1.451-3.627-2.7,0-1.219,1.418-1.78,2.836-1.78a5.2,5.2,0,0,1,4.055,1.945l3.429-3.626a9.767,9.767,0,0,0-7.55-3.231c-4.682,0-8.078,2.67-8.078,7.22,0,3.2,2.11,5.473,5.9,6.759l1.648,0.56c2.341,0.792,3.264,1.616,3.264,2.8,0,1.121-1.088,1.945-2.835,1.945a6.125,6.125,0,0,1-4.847-2.671l-4.022,3.4A10.264,10.264,0,0,0,805.71,551.831Z"/>
    <path id="CELEBRATING_40_YEARS_OF_ICONIC_STYLE" data-name="CELEBRATING 40 YEARS OF ICONIC STYLE" class="cls-2" d="M932.738,250.409a6.069,6.069,0,0,0,5.49-3.209l-2.315-1.257a3.524,3.524,0,1,1,0-3.21l2.315-1.257A6.121,6.121,0,1,0,932.738,250.409Zm8.354-.2h7.44V247.7h-4.811v-2.1h3.819v-2.514h-3.819v-2.1h4.811v-2.515h-7.44v11.746Zm10.766,0h7.49V247.7h-4.861v-9.231h-2.629v11.746Zm10.452,0h7.441V247.7h-4.812v-2.1h3.82v-2.514h-3.82v-2.1h4.812v-2.515H962.31v11.746Zm10.767,0h5.158a3.472,3.472,0,0,0,3.572-3.458,3.07,3.07,0,0,0-1.67-2.779,2.766,2.766,0,0,0,.843-2.018,3.491,3.491,0,0,0-3.489-3.491h-4.414v11.746Zm2.629-7v-2.349h1.488a1.193,1.193,0,0,1,1.223,1.191,1.176,1.176,0,0,1-1.223,1.158h-1.488Zm0,4.582v-2.349H978a1.2,1.2,0,0,1,1.24,1.175,1.179,1.179,0,0,1-1.224,1.174h-2.314Zm9.195,2.416h2.629v-4.847h0.43l3.9,4.847h3.158l-4.15-5.178a3.033,3.033,0,0,0,2.3-3.028,3.467,3.467,0,0,0-3.638-3.54H984.9v11.746Zm2.629-7.081v-2.249h1.687a1.169,1.169,0,0,1,1.339,1.124,1.188,1.188,0,0,1-1.339,1.125H987.53Zm8.386,7.081h2.745l1.041-2.482h4.858l1.05,2.482h2.74l-5.03-11.746h-2.38Zm4.744-4.765,1.47-3.54,1.47,3.54h-2.94Zm11.18,4.765h2.65V240.98h3.02v-2.515h-8.66v2.515h2.99v9.231Zm8.6,0h2.63V238.465h-2.63v11.746Zm17.05,0V238.465h-2.65v7.246l-5.7-7.246h-2.26v11.746h2.62v-7.263l5.73,7.263h2.26Zm9.54,0.2a6.5,6.5,0,0,0,4.82-1.737V243.1h-4.87v2.465h2.3V247.3a3.8,3.8,0,0,1-2.28.563,3.526,3.526,0,1,1-.16-7.048,3.926,3.926,0,0,1,2.96,1.258l1.85-1.8a6.257,6.257,0,0,0-4.81-2,6,6,0,0,0-6.19,6.071A6.1,6.1,0,0,0,1047.03,250.409Zm17.96-.2h2.5v-2.548H1069V245.38h-1.51v-6.915h-2.25l-5.98,7.18v2.018h5.73v2.548Zm0-4.831h-2.69l2.69-3.242v3.242Zm11.17,5.013a4.4,4.4,0,0,0,4.43-4.7v-2.729a4.447,4.447,0,1,0-8.88,0v2.729A4.405,4.405,0,0,0,1076.16,250.393Zm0-2.465a1.96,1.96,0,0,1-1.95-2.234v-2.729a1.959,1.959,0,1,1,3.88,0v2.729A1.957,1.957,0,0,1,1076.16,247.928Zm15.53,2.283h2.64v-4.93l4.29-6.816h-3.06l-2.57,4.235-2.53-4.235h-3.05l4.28,6.8v4.947Zm9.62,0h7.44V247.7h-4.81v-2.1h3.82v-2.514h-3.82v-2.1h4.81v-2.515h-7.44v11.746Zm9.51,0h2.75l1.04-2.482h4.86l1.04,2.482h2.75l-5.03-11.746h-2.38Zm4.75-4.765,1.47-3.54,1.47,3.54h-2.94Zm10.24,4.765h2.63v-4.847h0.43l3.9,4.847h3.16l-4.15-5.178a3.034,3.034,0,0,0,2.29-3.028,3.464,3.464,0,0,0-3.63-3.54h-4.63v11.746Zm2.63-7.081v-2.249h1.68a1.169,1.169,0,0,1,1.34,1.124,1.187,1.187,0,0,1-1.34,1.125h-1.68Zm13.14,7.279c2.48,0,4.19-1.489,4.2-3.623,0.02-1.77-1.09-2.9-2.79-3.507l-0.83-.3c-1.24-.446-1.82-0.727-1.82-1.356a1.209,1.209,0,0,1,1.43-.893,2.615,2.615,0,0,1,2.03.976l1.72-1.82a4.9,4.9,0,0,0-3.79-1.621c-2.35,0-4.05,1.34-4.05,3.623,0,1.6,1.06,2.746,2.96,3.391l0.83,0.281c1.17,0.4,1.63.811,1.63,1.406a1.186,1.186,0,0,1-1.42.976,3.066,3.066,0,0,1-2.43-1.34l-2.02,1.7A5.151,5.151,0,0,0,1141.58,250.409Zm17.72,0a6.071,6.071,0,1,0-6.07-6.071A6.083,6.083,0,0,0,1159.3,250.409Zm0-2.547a3.526,3.526,0,1,1,3.4-3.524A3.49,3.49,0,0,1,1159.3,247.862Zm9.21,2.349h2.63v-4.6h3.58V243.1h-3.58V240.98h4.59v-2.515h-7.22v11.746Zm14.9,0h2.63V238.465h-2.63v11.746Zm11.84,0.2a6.068,6.068,0,0,0,5.49-3.209l-2.32-1.257a3.524,3.524,0,1,1,0-3.21l2.32-1.257A6.122,6.122,0,1,0,1195.25,250.409Zm13.76,0a6.071,6.071,0,1,0-6.07-6.071A6.085,6.085,0,0,0,1209.01,250.409Zm0-2.547a3.526,3.526,0,1,1,3.4-3.524A3.481,3.481,0,0,1,1209.01,247.862Zm19.83,2.349V238.465h-2.65v7.246l-5.7-7.246h-2.27v11.746h2.63v-7.263l5.72,7.263h2.27Zm3.8,0h2.63V238.465h-2.63v11.746Zm11.84,0.2a6.068,6.068,0,0,0,5.49-3.209l-2.31-1.257a3.524,3.524,0,1,1,0-3.21l2.31-1.257A6.118,6.118,0,1,0,1244.48,250.409Zm16.82,0c2.48,0,4.19-1.489,4.2-3.623,0.02-1.77-1.09-2.9-2.79-3.507l-0.83-.3c-1.24-.446-1.82-0.727-1.82-1.356a1.2,1.2,0,0,1,1.42-.893,2.62,2.62,0,0,1,2.04.976l1.72-1.82a4.9,4.9,0,0,0-3.79-1.621c-2.35,0-4.05,1.34-4.05,3.623,0,1.6,1.06,2.746,2.96,3.391l0.83,0.281c1.17,0.4,1.63.811,1.63,1.406a1.186,1.186,0,0,1-1.42.976,3.066,3.066,0,0,1-2.43-1.34l-2.02,1.7A5.151,5.151,0,0,0,1261.3,250.409Zm9.3-.2h2.64V240.98h3.03v-2.515h-8.67v2.515h3v9.231Zm11.77,0h2.65v-4.93l4.28-6.816h-3.06l-2.56,4.235-2.53-4.235h-3.06l4.28,6.8v4.947Zm9.63,0h7.49V247.7h-4.86v-9.231H1292v11.746Zm10.45,0h7.44V247.7h-4.81v-2.1h3.82v-2.514h-3.82v-2.1h4.81v-2.515h-7.44v11.746Z"/>
  </g>
  <g id="Graphics">
    <g id="Play">
      <path id="Polygon_598" data-name="Polygon 598" class="cls-3" d="M466.01,248.494L427.992,285V211.988Z"/>
      <circle class="cls-4" cx="439.5" cy="248.5" r="67.5"/>
    </g>
    <g id="closeBtn">
      <path id="Rectangle_116_copy_3" data-name="Rectangle 116 copy 3" class="cls-2" d="M1330.01,58.336l-0.94.929L1315.38,45.7,1300.94,60l-0.95-.938,14.44-14.3-13.96-13.832,0.94-.929,13.96,13.832,13.5-13.383,0.95,0.938-13.51,13.383Z"/>
    </g>
  </g>
</svg>
