<svg id="copy_copy_2" data-name="copy copy 2" xmlns="http://www.w3.org/2000/svg" width="1360" height="723" viewBox="0 0 1360 723">
  <defs>
    <style>
      .cls-1, .cls-2, .cls-3 {
        fill-rule: evenodd;
      }

      .cls-2 {
        fill: #010000;
      }

      .cls-3 {
        fill: #fff;
      }
    </style>
  </defs>
  <path id="We_partner_with_the_best_mills_on_earth_to_source_the_finest_ma" data-name="We partner with the best mills on earth to source the finest ma" class="cls-1" d="M40.74,595.146h1.328l3.1-11.361H43.62l-2.384,8.865-3.28-9.057-3.264,9.057-2.384-8.865H30.755l3.1,11.361h1.328l2.784-7.713Zm5.39-4a4.218,4.218,0,0,0,7.745,2.256l-1.088-.752a2.833,2.833,0,0,1-5.265-1.232h6.561A3.9,3.9,0,0,0,54.1,591a3.728,3.728,0,0,0-3.809-4.017A4.054,4.054,0,0,0,46.131,591.146Zm4.113-2.945a2.394,2.394,0,0,1,2.448,2.1H47.619A2.615,2.615,0,0,1,50.243,588.2Zm10.511,10.29H62.13v-4.577a3.509,3.509,0,0,0,2.816,1.392,4.168,4.168,0,0,0,0-8.321,3.509,3.509,0,0,0-2.816,1.392v-1.232H60.754v11.346Zm6.7-7.345a2.726,2.726,0,1,1-2.72-2.9A2.732,2.732,0,0,1,67.459,591.146Zm3.167,0a4,4,0,0,0,3.921,4.16,3.509,3.509,0,0,0,2.816-1.392v1.232h1.376v-8H77.363v1.232a3.509,3.509,0,0,0-2.816-1.392A4,4,0,0,0,70.626,591.146Zm6.849,0a2.733,2.733,0,1,1-2.72-2.9A2.732,2.732,0,0,1,77.475,591.146Zm4.255,4h1.376v-3.968c0-1.872,1.1-2.753,2.112-2.753a2.011,2.011,0,0,1,.752.128v-1.424a2.851,2.851,0,0,0-.624-0.064,2.381,2.381,0,0,0-2.24,1.632v-1.552H81.73v8Zm10.593-.112V593.8a3.042,3.042,0,0,1-.976.16,1.152,1.152,0,0,1-1.328-1.36v-4.193h2.3v-1.264h-2.3v-2.224H88.642v2.224h-1.7v1.264h1.7v4.369a2.252,2.252,0,0,0,2.448,2.448A3.829,3.829,0,0,0,92.323,595.034Zm2.159,0.112h1.376v-3.968c0-1.872,1.024-2.929,2.32-2.929a1.921,1.921,0,0,1,1.888,2.177v4.72h1.36v-4.928a2.949,2.949,0,0,0-3.025-3.233,2.829,2.829,0,0,0-2.544,1.392v-1.232H94.482v8Zm9.2-4a4.218,4.218,0,0,0,7.745,2.256l-1.088-.752a2.833,2.833,0,0,1-5.265-1.232h6.561a3.9,3.9,0,0,0,.016-0.416,3.728,3.728,0,0,0-3.809-4.017A4.054,4.054,0,0,0,103.682,591.146Zm4.112-2.945a2.4,2.4,0,0,1,2.449,2.1H105.17A2.615,2.615,0,0,1,107.794,588.2ZM114,595.146h1.376v-3.968c0-1.872,1.1-2.753,2.112-2.753a2.011,2.011,0,0,1,.752.128v-1.424a2.851,2.851,0,0,0-.624-0.064,2.38,2.38,0,0,0-2.24,1.632v-1.552H114v8Zm16.657,0h1.216l2.72-8h-1.456l-1.936,5.841-2-5.841h-1.056l-2,5.841-1.936-5.841h-1.44l2.72,8h1.216l1.984-5.76Zm7.487-11.121a0.966,0.966,0,0,0-.96-0.976,0.994,0.994,0,0,0-.993.976,0.984,0.984,0,0,0,.993.976A0.956,0.956,0,0,0,138.146,584.025Zm-1.665,11.121h1.377v-8h-1.377v8Zm8.721-.112V593.8a3.041,3.041,0,0,1-.976.16,1.152,1.152,0,0,1-1.328-1.36v-4.193h2.3v-1.264h-2.3v-2.224h-1.377v2.224h-1.7v1.264h1.7v4.369a2.253,2.253,0,0,0,2.449,2.448A3.828,3.828,0,0,0,145.2,595.034Zm2.159,0.112h1.376v-3.968c0-1.872,1.025-2.929,2.321-2.929a1.921,1.921,0,0,1,1.888,2.177v4.72h1.36v-4.928a2.949,2.949,0,0,0-3.024-3.233,2.832,2.832,0,0,0-2.545,1.392v-5.232h-1.376v12Zm18.193-.112V593.8a3.048,3.048,0,0,1-.977.16,1.152,1.152,0,0,1-1.328-1.36v-4.193h2.305v-1.264h-2.305v-2.224h-1.376v2.224h-1.7v1.264h1.7v4.369a2.252,2.252,0,0,0,2.448,2.448A3.84,3.84,0,0,0,165.554,595.034Zm2.159,0.112h1.376v-3.968c0-1.872,1.024-2.929,2.32-2.929a1.921,1.921,0,0,1,1.889,2.177v4.72h1.36v-4.928a2.949,2.949,0,0,0-3.025-3.233,2.829,2.829,0,0,0-2.544,1.392v-5.232h-1.376v12Zm9.2-4a4.218,4.218,0,0,0,7.745,2.256l-1.088-.752a2.833,2.833,0,0,1-5.265-1.232h6.561a3.9,3.9,0,0,0,.016-0.416,3.728,3.728,0,0,0-3.809-4.017A4.054,4.054,0,0,0,176.913,591.146Zm4.112-2.945a2.4,2.4,0,0,1,2.449,2.1H178.4A2.615,2.615,0,0,1,181.025,588.2Zm11.888,5.713a3.508,3.508,0,0,0,2.816,1.392,4.168,4.168,0,0,0,0-8.321,3.508,3.508,0,0,0-2.816,1.392v-5.232h-1.377v12h1.377v-1.232Zm5.328-2.768a2.725,2.725,0,1,1-2.72-2.9A2.731,2.731,0,0,1,198.241,591.146Zm3.151,0a4.218,4.218,0,0,0,7.745,2.256l-1.088-.752a2.833,2.833,0,0,1-5.265-1.232h6.561a3.9,3.9,0,0,0,.016-0.416,3.728,3.728,0,0,0-3.808-4.017A4.054,4.054,0,0,0,201.392,591.146Zm4.113-2.945a2.394,2.394,0,0,1,2.448,2.1H202.88A2.616,2.616,0,0,1,205.505,588.2Zm11.392,4.721c0-1.2-.752-1.968-2.112-2.416l-0.865-.288c-0.944-.3-1.232-0.608-1.232-1.121a1.132,1.132,0,0,1,1.344-.928,2.162,2.162,0,0,1,1.7.832l0.9-.864a3.1,3.1,0,0,0-2.561-1.152c-1.584,0-2.7.88-2.7,2.176a2.415,2.415,0,0,0,1.984,2.321l0.784,0.256c1.041,0.336,1.425.72,1.425,1.28a1.218,1.218,0,0,1-1.409,1.088,2.147,2.147,0,0,1-2.048-1.264l-1.12.608a3.178,3.178,0,0,0,3.136,1.856C215.729,595.306,216.9,594.49,216.9,592.922Zm6.608,2.112V593.8a3.041,3.041,0,0,1-.976.16,1.152,1.152,0,0,1-1.329-1.36v-4.193h2.305v-1.264H221.2v-2.224h-1.376v2.224h-1.7v1.264h1.7v4.369a2.252,2.252,0,0,0,2.448,2.448A3.83,3.83,0,0,0,223.505,595.034Zm6.463,0.112h1.376v-3.968c0-1.808.912-2.929,2.208-2.929,1.04,0,1.569.9,1.569,2.193v4.7H236.5v-3.968c0-1.808.9-2.929,2.192-2.929,1.04,0,1.584.9,1.584,2.193v4.7h1.376v-4.912c0-1.953-1.056-3.249-2.8-3.249a2.769,2.769,0,0,0-2.624,1.712,2.515,2.515,0,0,0-2.465-1.712,2.689,2.689,0,0,0-2.416,1.392v-1.232h-1.376v8Zm16.224-11.121a0.966,0.966,0,0,0-.96-0.976,0.994,0.994,0,0,0-.992.976,0.983,0.983,0,0,0,.992.976A0.956,0.956,0,0,0,246.192,584.025Zm-1.664,11.121H245.9v-8h-1.376v8Zm4.384,0h1.376v-12h-1.376v12Zm4.384,0h1.376v-12H253.3v12Zm9.568-2.224c0-1.2-.752-1.968-2.112-2.416l-0.864-.288c-0.944-.3-1.232-0.608-1.232-1.121a1.132,1.132,0,0,1,1.344-.928,2.161,2.161,0,0,1,1.7.832l0.9-.864a3.1,3.1,0,0,0-2.56-1.152c-1.585,0-2.7.88-2.7,2.176a2.414,2.414,0,0,0,1.985,2.321l0.784,0.256c1.04,0.336,1.424.72,1.424,1.28a1.218,1.218,0,0,1-1.408,1.088,2.148,2.148,0,0,1-2.049-1.264l-1.12.608a3.179,3.179,0,0,0,3.137,1.856C261.7,595.306,262.864,594.49,262.864,592.922Zm14.4-1.776a4.185,4.185,0,1,0-4.176,4.16A4.106,4.106,0,0,0,277.264,591.146Zm-6.961,0a2.778,2.778,0,1,1,2.785,2.88A2.751,2.751,0,0,1,270.3,591.146Zm9.328,4h1.376v-3.968c0-1.872,1.024-2.929,2.32-2.929a1.921,1.921,0,0,1,1.889,2.177v4.72h1.36v-4.928a2.949,2.949,0,0,0-3.025-3.233,2.829,2.829,0,0,0-2.544,1.392v-1.232h-1.376v8Zm13.5-4a4.218,4.218,0,0,0,7.745,2.256l-1.088-.752a2.832,2.832,0,0,1-5.264-1.232h6.561A3.9,3.9,0,0,0,301.1,591a3.729,3.729,0,0,0-3.809-4.017A4.055,4.055,0,0,0,293.134,591.146Zm4.113-2.945a2.394,2.394,0,0,1,2.448,2.1h-5.072A2.615,2.615,0,0,1,297.247,588.2Zm5.583,2.945a4,4,0,0,0,3.921,4.16,3.508,3.508,0,0,0,2.816-1.392v1.232h1.376v-8h-1.376v1.232a3.508,3.508,0,0,0-2.816-1.392A4,4,0,0,0,302.83,591.146Zm6.849,0a2.733,2.733,0,1,1-2.72-2.9A2.731,2.731,0,0,1,309.679,591.146Zm4.255,4h1.376v-3.968c0-1.872,1.105-2.753,2.113-2.753a2.011,2.011,0,0,1,.752.128v-1.424a2.851,2.851,0,0,0-.624-0.064,2.381,2.381,0,0,0-2.241,1.632v-1.552h-1.376v8Zm10.593-.112V593.8a3.041,3.041,0,0,1-.976.16,1.152,1.152,0,0,1-1.329-1.36v-4.193h2.305v-1.264h-2.305v-2.224h-1.376v2.224h-1.7v1.264h1.7v4.369a2.252,2.252,0,0,0,2.449,2.448A3.828,3.828,0,0,0,324.527,595.034Zm2.159,0.112h1.376v-3.968c0-1.872,1.024-2.929,2.321-2.929a1.921,1.921,0,0,1,1.888,2.177v4.72h1.36v-4.928a2.949,2.949,0,0,0-3.024-3.233,2.829,2.829,0,0,0-2.545,1.392v-5.232h-1.376v12Zm18.192-.112V593.8a3.041,3.041,0,0,1-.976.16,1.152,1.152,0,0,1-1.328-1.36v-4.193h2.3v-1.264h-2.3v-2.224H341.2v2.224h-1.7v1.264h1.7v4.369a2.252,2.252,0,0,0,2.448,2.448A3.828,3.828,0,0,0,344.878,595.034Zm9.777-3.888a4.185,4.185,0,1,0-4.177,4.16A4.106,4.106,0,0,0,354.655,591.146Zm-6.961,0a2.778,2.778,0,1,1,2.784,2.88A2.751,2.751,0,0,1,347.694,591.146Zm18.816,1.776c0-1.2-.752-1.968-2.112-2.416l-0.864-.288c-0.944-.3-1.232-0.608-1.232-1.121a1.132,1.132,0,0,1,1.344-.928,2.161,2.161,0,0,1,1.7.832l0.9-.864a3.1,3.1,0,0,0-2.56-1.152c-1.584,0-2.7.88-2.7,2.176a2.416,2.416,0,0,0,1.985,2.321l0.784,0.256c1.04,0.336,1.424.72,1.424,1.28a1.218,1.218,0,0,1-1.408,1.088,2.147,2.147,0,0,1-2.048-1.264l-1.121.608a3.18,3.18,0,0,0,3.137,1.856C365.342,595.306,366.51,594.49,366.51,592.922Zm10.1-1.776a4.185,4.185,0,1,0-4.176,4.16A4.106,4.106,0,0,0,376.606,591.146Zm-6.961,0a2.778,2.778,0,1,1,2.785,2.88A2.751,2.751,0,0,1,369.645,591.146Zm9.216,0.912c0,1.984,1.184,3.248,2.945,3.248a2.752,2.752,0,0,0,2.464-1.392v1.232h1.376v-8H384.27v3.969c0,1.84-.976,2.928-2.224,2.928-1.105,0-1.809-.848-1.809-2.192v-4.705h-1.376v4.913Zm9.776,3.088h1.376v-3.968c0-1.872,1.1-2.753,2.113-2.753a2.011,2.011,0,0,1,.752.128v-1.424a2.851,2.851,0,0,0-.624-0.064,2.38,2.38,0,0,0-2.241,1.632v-1.552h-1.376v8Zm13.233-1.984-1.2-.672a2.712,2.712,0,0,1-2.5,1.536,2.882,2.882,0,0,1,0-5.761,2.711,2.711,0,0,1,2.5,1.537l1.2-.673a4.143,4.143,0,0,0-3.7-2.144,4.161,4.161,0,1,0,0,8.321A4.143,4.143,0,0,0,401.87,593.162Zm1.551-2.016a4.218,4.218,0,0,0,7.745,2.256l-1.088-.752a2.833,2.833,0,0,1-5.265-1.232h6.561A3.9,3.9,0,0,0,411.39,591a3.728,3.728,0,0,0-3.809-4.017A4.054,4.054,0,0,0,403.421,591.146Zm4.112-2.945a2.394,2.394,0,0,1,2.449,2.1h-5.073A2.615,2.615,0,0,1,407.533,588.2Zm14.576,6.833V593.8a3.041,3.041,0,0,1-.976.16,1.152,1.152,0,0,1-1.328-1.36v-4.193h2.3v-1.264h-2.3v-2.224h-1.376v2.224h-1.7v1.264h1.7v4.369a2.252,2.252,0,0,0,2.448,2.448A3.828,3.828,0,0,0,422.109,595.034Zm2.16,0.112h1.376v-3.968c0-1.872,1.024-2.929,2.32-2.929a1.921,1.921,0,0,1,1.888,2.177v4.72h1.361v-4.928a2.949,2.949,0,0,0-3.025-3.233,2.829,2.829,0,0,0-2.544,1.392v-5.232h-1.376v12Zm9.2-4a4.218,4.218,0,0,0,7.745,2.256l-1.088-.752a2.832,2.832,0,0,1-5.264-1.232h6.561a3.9,3.9,0,0,0,.016-0.416,3.729,3.729,0,0,0-3.809-4.017A4.055,4.055,0,0,0,433.468,591.146Zm4.113-2.945a2.394,2.394,0,0,1,2.448,2.1h-5.072A2.615,2.615,0,0,1,437.581,588.2Zm10.976,6.945h1.376v-6.737h2.32v-1.264h-2.32v-1.472a1.152,1.152,0,0,1,1.328-1.36,3.222,3.222,0,0,1,.992.16v-1.216a3.636,3.636,0,0,0-1.248-.208,2.285,2.285,0,0,0-2.448,2.48v1.616h-1.7v1.264h1.7v6.737Zm6.865-11.121a0.967,0.967,0,0,0-.961-0.976,0.994,0.994,0,0,0-.992.976,0.983,0.983,0,0,0,.992.976A0.957,0.957,0,0,0,455.422,584.025Zm-1.665,11.121h1.376v-8h-1.376v8Zm4.367,0H459.5v-3.968c0-1.872,1.025-2.929,2.321-2.929a1.921,1.921,0,0,1,1.888,2.177v4.72h1.36v-4.928a2.949,2.949,0,0,0-3.024-3.233,2.832,2.832,0,0,0-2.545,1.392v-1.232h-1.376v8Zm9.2-4a4.218,4.218,0,0,0,7.745,2.256l-1.088-.752a2.833,2.833,0,0,1-5.265-1.232h6.561a3.9,3.9,0,0,0,.016-0.416,3.728,3.728,0,0,0-3.808-4.017A4.054,4.054,0,0,0,467.324,591.146Zm4.113-2.945a2.394,2.394,0,0,1,2.448,2.1h-5.073A2.616,2.616,0,0,1,471.437,588.2Zm11.392,4.721c0-1.2-.752-1.968-2.113-2.416l-0.864-.288c-0.944-.3-1.232-0.608-1.232-1.121a1.132,1.132,0,0,1,1.344-.928,2.163,2.163,0,0,1,1.7.832l0.9-.864A3.1,3.1,0,0,0,480,586.985c-1.584,0-2.7.88-2.7,2.176a2.415,2.415,0,0,0,1.984,2.321l0.784,0.256c1.041,0.336,1.425.72,1.425,1.28a1.218,1.218,0,0,1-1.409,1.088,2.147,2.147,0,0,1-2.048-1.264l-1.12.608a3.178,3.178,0,0,0,3.136,1.856C481.661,595.306,482.829,594.49,482.829,592.922Zm6.608,2.112V593.8a3.052,3.052,0,0,1-.977.16,1.152,1.152,0,0,1-1.328-1.36v-4.193h2.305v-1.264h-2.305v-2.224h-1.376v2.224h-1.7v1.264h1.7v4.369a2.252,2.252,0,0,0,2.448,2.448A3.84,3.84,0,0,0,489.437,595.034Zm6.463,0.112h1.376v-3.968c0-1.808.912-2.929,2.208-2.929,1.04,0,1.568.9,1.568,2.193v4.7h1.377v-3.968c0-1.808.9-2.929,2.192-2.929,1.04,0,1.584.9,1.584,2.193v4.7h1.376v-4.912c0-1.953-1.056-3.249-2.8-3.249a2.769,2.769,0,0,0-2.624,1.712,2.516,2.516,0,0,0-2.465-1.712,2.689,2.689,0,0,0-2.416,1.392v-1.232H495.9v8Zm13.935-4a4,4,0,0,0,3.921,4.16,3.508,3.508,0,0,0,2.816-1.392v1.232h1.377v-8h-1.377v1.232a3.508,3.508,0,0,0-2.816-1.392A4,4,0,0,0,509.835,591.146Zm6.849,0a2.733,2.733,0,1,1-2.72-2.9A2.731,2.731,0,0,1,516.684,591.146Zm8.592,3.888V593.8a3.041,3.041,0,0,1-.976.16,1.152,1.152,0,0,1-1.328-1.36v-4.193h2.3v-1.264h-2.3v-2.224H521.6v2.224h-1.7v1.264h1.7v4.369a2.253,2.253,0,0,0,2.449,2.448A3.828,3.828,0,0,0,525.276,595.034Zm1.423-3.888a4.219,4.219,0,0,0,7.746,2.256l-1.089-.752a2.832,2.832,0,0,1-5.264-1.232h6.561a3.9,3.9,0,0,0,.016-0.416,3.729,3.729,0,0,0-3.809-4.017A4.055,4.055,0,0,0,526.7,591.146Zm4.113-2.945a2.394,2.394,0,0,1,2.448,2.1h-5.072A2.615,2.615,0,0,1,530.812,588.2Zm6.207,6.945H538.4v-3.968c0-1.872,1.1-2.753,2.112-2.753a2.011,2.011,0,0,1,.752.128v-1.424a2.851,2.851,0,0,0-.624-0.064,2.38,2.38,0,0,0-2.24,1.632v-1.552h-1.377v8Zm7.921-11.121a0.966,0.966,0,0,0-.96-0.976,0.994,0.994,0,0,0-.993.976,0.984,0.984,0,0,0,.993.976A0.956,0.956,0,0,0,544.94,584.025Zm-1.665,11.121h1.377v-8h-1.377v8Zm3.76-4a4,4,0,0,0,3.921,4.16,3.508,3.508,0,0,0,2.816-1.392v1.232h1.376v-8h-1.376v1.232a3.508,3.508,0,0,0-2.816-1.392A4,4,0,0,0,547.035,591.146Zm6.849,0a2.733,2.733,0,1,1-2.72-2.9A2.731,2.731,0,0,1,553.884,591.146Zm4.255,4h1.376v-12h-1.376v12Zm9.569-2.224c0-1.2-.752-1.968-2.112-2.416l-0.865-.288c-0.944-.3-1.232-0.608-1.232-1.121a1.132,1.132,0,0,1,1.344-.928,2.162,2.162,0,0,1,1.7.832l0.9-.864a3.1,3.1,0,0,0-2.561-1.152c-1.584,0-2.7.88-2.7,2.176a2.415,2.415,0,0,0,1.984,2.321l0.784,0.256c1.041,0.336,1.425.72,1.425,1.28a1.218,1.218,0,0,1-1.409,1.088,2.147,2.147,0,0,1-2.048-1.264l-1.12.608a3.178,3.178,0,0,0,3.136,1.856C566.54,595.306,567.708,594.49,567.708,592.922Zm2.111-1.568H577.9v-1.376h-8.081v1.376Zm12.192,2.56a3.508,3.508,0,0,0,2.816,1.392,4.168,4.168,0,0,0,0-8.321,3.508,3.508,0,0,0-2.816,1.392v-5.232h-1.376v12h1.376v-1.232Zm5.329-2.768a2.726,2.726,0,1,1-2.721-2.9A2.732,2.732,0,0,1,587.34,591.146Zm3.775,4h1.376v-12h-1.376v12Zm3.759-4a4.219,4.219,0,0,0,7.746,2.256l-1.089-.752a2.832,2.832,0,0,1-5.264-1.232h6.561a3.9,3.9,0,0,0,.016-0.416,3.729,3.729,0,0,0-3.809-4.017A4.055,4.055,0,0,0,594.874,591.146Zm4.113-2.945a2.394,2.394,0,0,1,2.448,2.1h-5.072A2.615,2.615,0,0,1,598.987,588.2Zm6.208,6.945h1.376v-3.968c0-1.872,1.024-2.929,2.32-2.929a1.921,1.921,0,0,1,1.888,2.177v4.72h1.361v-4.928a2.949,2.949,0,0,0-3.025-3.233,2.829,2.829,0,0,0-2.544,1.392v-1.232H605.2v8Zm9.2-4a4,4,0,0,0,3.921,4.16,3.508,3.508,0,0,0,2.816-1.392v1.232h1.376v-12h-1.376v5.232a3.508,3.508,0,0,0-2.816-1.392A4,4,0,0,0,614.394,591.146Zm6.849,0a2.733,2.733,0,1,1-2.72-2.9A2.731,2.731,0,0,1,621.243,591.146Zm5.919-7.121a0.966,0.966,0,0,0-.96-0.976,0.994,0.994,0,0,0-.992.976,0.983,0.983,0,0,0,.992.976A0.956,0.956,0,0,0,627.162,584.025ZM625.5,595.146h1.376v-8H625.5v8Zm4.384,0h1.376v-3.968c0-1.872,1.024-2.929,2.321-2.929a1.921,1.921,0,0,1,1.888,2.177v4.72h1.36v-4.928a2.949,2.949,0,0,0-3.024-3.233,2.831,2.831,0,0,0-2.545,1.392v-1.232h-1.376v8Zm17.281-.464v-7.537h-1.376v1.232A3.4,3.4,0,0,0,643,586.985a4.076,4.076,0,0,0,0,8.145,3.417,3.417,0,0,0,2.785-1.408v0.912a2.558,2.558,0,0,1-2.673,2.769,3.42,3.42,0,0,1-2.8-1.345l-0.96.961a4.749,4.749,0,0,0,3.776,1.632A3.7,3.7,0,0,0,647.163,594.682Zm-6.673-3.632a2.706,2.706,0,1,1,2.7,2.8A2.667,2.667,0,0,1,640.49,591.05Zm13.968,4.1h1.376v-3.968c0-1.872,1.024-2.929,2.32-2.929a1.921,1.921,0,0,1,1.888,2.177v4.72H661.4v-4.928a2.949,2.949,0,0,0-3.025-3.233,2.829,2.829,0,0,0-2.544,1.392v-1.232h-1.376v8Zm9.2-4a4,4,0,0,0,3.921,4.16,3.508,3.508,0,0,0,2.816-1.392v1.232h1.376v-8h-1.376v1.232a3.508,3.508,0,0,0-2.816-1.392A4,4,0,0,0,663.657,591.146Zm6.849,0a2.733,2.733,0,1,1-2.72-2.9A2.731,2.731,0,0,1,670.506,591.146Zm8.592,3.888V593.8a3.041,3.041,0,0,1-.976.16,1.152,1.152,0,0,1-1.328-1.36v-4.193h2.3v-1.264h-2.3v-2.224h-1.377v2.224h-1.7v1.264h1.7v4.369a2.252,2.252,0,0,0,2.449,2.448A3.828,3.828,0,0,0,679.1,595.034Zm2.047-2.976c0,1.984,1.184,3.248,2.945,3.248a2.752,2.752,0,0,0,2.464-1.392v1.232h1.376v-8h-1.376v3.969c0,1.84-.976,2.928-2.224,2.928-1.105,0-1.809-.848-1.809-2.192v-4.705h-1.376v4.913Zm9.776,3.088H692.3v-3.968c0-1.872,1.1-2.753,2.113-2.753a2.011,2.011,0,0,1,.752.128v-1.424a2.851,2.851,0,0,0-.624-0.064A2.38,2.38,0,0,0,692.3,588.7v-1.552h-1.376v8Zm5.36-4a4,4,0,0,0,3.921,4.16,3.508,3.508,0,0,0,2.816-1.392v1.232h1.376v-8h-1.376v1.232a3.508,3.508,0,0,0-2.816-1.392A4,4,0,0,0,696.281,591.146Zm6.849,0a2.733,2.733,0,1,1-2.72-2.9A2.731,2.731,0,0,1,703.13,591.146Zm4.255,4h1.376v-12h-1.376v12Zm9.152,0h1.376v-6.737h2.321v-1.264h-2.321v-1.472a1.152,1.152,0,0,1,1.328-1.36,3.233,3.233,0,0,1,.993.16v-1.216a3.646,3.646,0,0,0-1.249-.208,2.285,2.285,0,0,0-2.448,2.48v1.616h-1.7v1.264h1.7v6.737Zm6.865-11.121a0.966,0.966,0,0,0-.96-0.976,0.994,0.994,0,0,0-.992.976,0.983,0.983,0,0,0,.992.976A0.956,0.956,0,0,0,723.4,584.025Zm-1.664,11.121h1.376v-8h-1.376v8Zm5.743-1.232a3.508,3.508,0,0,0,2.816,1.392,4.168,4.168,0,0,0,0-8.321,3.508,3.508,0,0,0-2.816,1.392v-5.232h-1.376v12h1.376v-1.232Zm5.329-2.768a2.726,2.726,0,1,1-2.721-2.9A2.732,2.732,0,0,1,732.81,591.146Zm3.151,0a4.218,4.218,0,0,0,7.745,2.256l-1.088-.752a2.833,2.833,0,0,1-5.265-1.232h6.561A3.9,3.9,0,0,0,743.93,591a3.729,3.729,0,0,0-3.809-4.017A4.054,4.054,0,0,0,735.961,591.146Zm4.112-2.945a2.4,2.4,0,0,1,2.449,2.1h-5.073A2.615,2.615,0,0,1,740.073,588.2Zm6.208,6.945h1.376v-3.968c0-1.872,1.1-2.753,2.112-2.753a2.011,2.011,0,0,1,.752.128v-1.424a2.851,2.851,0,0,0-.624-0.064,2.38,2.38,0,0,0-2.24,1.632v-1.552h-1.376v8Zm11.3-2.224c0-1.2-.752-1.968-2.112-2.416l-0.864-.288c-0.944-.3-1.232-0.608-1.232-1.121a1.132,1.132,0,0,1,1.344-.928,2.161,2.161,0,0,1,1.7.832l0.9-.864a3.1,3.1,0,0,0-2.56-1.152c-1.584,0-2.7.88-2.7,2.176a2.415,2.415,0,0,0,1.984,2.321l0.784,0.256c1.04,0.336,1.424.72,1.424,1.28a1.218,1.218,0,0,1-1.408,1.088,2.147,2.147,0,0,1-2.048-1.264l-1.12.608a3.178,3.178,0,0,0,3.136,1.856C756.409,595.306,757.577,594.49,757.577,592.922ZM38.468,619.146h1.216l2.72-8H40.948l-1.936,5.841-2-5.841H35.955l-2,5.841-1.936-5.841h-1.44l2.72,8h1.216l1.984-5.76Zm7.487-11.121a0.966,0.966,0,0,0-.96-0.976,0.994,0.994,0,0,0-.992.976,0.983,0.983,0,0,0,.992.976A0.956,0.956,0,0,0,45.955,608.025ZM44.29,619.146h1.376v-8H44.29v8Zm8.721-.112V617.8a3.042,3.042,0,0,1-.976.16,1.152,1.152,0,0,1-1.328-1.36v-4.193h2.3v-1.264h-2.3v-2.224H49.33v2.224h-1.7v1.264h1.7v4.369a2.252,2.252,0,0,0,2.448,2.448A3.829,3.829,0,0,0,53.011,619.034Zm2.159,0.112h1.376v-3.968c0-1.873,1.024-2.929,2.32-2.929a1.921,1.921,0,0,1,1.888,2.177v4.72h1.36v-4.928a2.949,2.949,0,0,0-3.024-3.233,2.83,2.83,0,0,0-2.544,1.392v-5.232H55.17v12Zm18.192-.112V617.8a3.042,3.042,0,0,1-.976.16,1.152,1.152,0,0,1-1.328-1.36v-4.193h2.3v-1.264h-2.3v-2.224H69.682v2.224h-1.7v1.264h1.7v4.369a2.252,2.252,0,0,0,2.448,2.448A3.829,3.829,0,0,0,73.363,619.034Zm2.159,0.112H76.9v-3.968c0-1.873,1.024-2.929,2.32-2.929a1.921,1.921,0,0,1,1.888,2.177v4.72h1.36v-4.928a2.949,2.949,0,0,0-3.024-3.233,2.83,2.83,0,0,0-2.544,1.392v-5.232H75.522v12Zm9.2-4a4.218,4.218,0,0,0,7.745,2.256l-1.088-.752a2.833,2.833,0,0,1-5.265-1.232h6.561A3.9,3.9,0,0,0,92.691,615a3.728,3.728,0,0,0-3.809-4.017A4.054,4.054,0,0,0,84.722,615.146Zm4.113-2.945a2.394,2.394,0,0,1,2.448,2.1H86.21A2.615,2.615,0,0,1,88.834,612.2Zm10.511,6.945h1.377v-12H99.345v12Zm3.76-4a4,4,0,0,0,3.921,4.16,3.508,3.508,0,0,0,2.816-1.392v1.232h1.376v-8h-1.376v1.232a3.508,3.508,0,0,0-2.816-1.392A4,4,0,0,0,103.105,615.146Zm6.849,0a2.733,2.733,0,1,1-2.72-2.9A2.731,2.731,0,0,1,109.954,615.146Zm8.592,3.888V617.8a3.041,3.041,0,0,1-.976.16,1.152,1.152,0,0,1-1.329-1.36v-4.193h2.305v-1.264h-2.305v-2.224h-1.376v2.224h-1.7v1.264h1.7v4.369a2.252,2.252,0,0,0,2.449,2.448A3.828,3.828,0,0,0,118.546,619.034Zm1.423-3.888a4.218,4.218,0,0,0,7.745,2.256l-1.088-.752a2.833,2.833,0,0,1-5.265-1.232h6.561a3.9,3.9,0,0,0,.016-0.416,3.728,3.728,0,0,0-3.808-4.017A4.054,4.054,0,0,0,119.969,615.146Zm4.113-2.945a2.394,2.394,0,0,1,2.448,2.1h-5.073A2.616,2.616,0,0,1,124.082,612.2Zm11.392,4.721c0-1.2-.752-1.968-2.112-2.416l-0.865-.288c-0.944-.3-1.232-0.608-1.232-1.121a1.132,1.132,0,0,1,1.344-.928,2.162,2.162,0,0,1,1.7.832l0.9-.864a3.1,3.1,0,0,0-2.561-1.152c-1.584,0-2.7.88-2.7,2.176a2.415,2.415,0,0,0,1.984,2.321l0.784,0.256c1.041,0.336,1.425.72,1.425,1.28a1.218,1.218,0,0,1-1.409,1.088,2.147,2.147,0,0,1-2.048-1.264l-1.12.608a3.178,3.178,0,0,0,3.136,1.856C134.306,619.306,135.474,618.49,135.474,616.922Zm6.608,2.112V617.8a3.041,3.041,0,0,1-.976.16,1.152,1.152,0,0,1-1.329-1.36v-4.193h2.305v-1.264h-2.305v-2.224H138.4v2.224h-1.7v1.264h1.7v4.369a2.252,2.252,0,0,0,2.448,2.448A3.83,3.83,0,0,0,142.082,619.034Zm8.127-11.009a0.966,0.966,0,0,0-.96-0.976,0.994,0.994,0,0,0-.992.976,0.983,0.983,0,0,0,.992.976A0.956,0.956,0,0,0,150.209,608.025Zm-1.664,11.121h1.376v-8h-1.376v8Zm4.384,0h1.376v-3.968c0-1.873,1.024-2.929,2.32-2.929a1.921,1.921,0,0,1,1.888,2.177v4.72h1.361v-4.928a2.949,2.949,0,0,0-3.025-3.233,2.829,2.829,0,0,0-2.544,1.392v-1.232h-1.376v8Zm9.823,0h1.377v-3.968c0-1.873,1.024-2.929,2.32-2.929a1.921,1.921,0,0,1,1.888,2.177v4.72h1.36v-4.928a2.949,2.949,0,0,0-3.024-3.233,2.829,2.829,0,0,0-2.544,1.392v-1.232h-1.377v8Zm17.553-4a4.185,4.185,0,1,0-4.176,4.16A4.106,4.106,0,0,0,180.305,615.146Zm-6.961,0a2.778,2.778,0,1,1,2.785,2.88A2.751,2.751,0,0,1,173.344,615.146Zm11.649,4h1.152l3.7-8h-1.536l-2.736,6.049-2.737-6.049H181.3Zm5.855-4a4,4,0,0,0,3.921,4.16,3.508,3.508,0,0,0,2.816-1.392v1.232h1.376v-8h-1.376v1.232a3.508,3.508,0,0,0-2.816-1.392A4,4,0,0,0,190.848,615.146Zm6.849,0a2.733,2.733,0,1,1-2.72-2.9A2.731,2.731,0,0,1,197.7,615.146Zm8.592,3.888V617.8a3.041,3.041,0,0,1-.976.16,1.152,1.152,0,0,1-1.329-1.36v-4.193h2.3v-1.264h-2.3v-2.224h-1.376v2.224h-1.7v1.264h1.7v4.369a2.252,2.252,0,0,0,2.449,2.448A3.828,3.828,0,0,0,206.289,619.034Zm3.823-11.009a0.966,0.966,0,0,0-.96-0.976,0.994,0.994,0,0,0-.992.976,0.983,0.983,0,0,0,.992.976A0.956,0.956,0,0,0,210.112,608.025Zm-1.664,11.121h1.376v-8h-1.376v8Zm12.113-4a4.185,4.185,0,1,0-4.177,4.16A4.106,4.106,0,0,0,220.561,615.146Zm-6.961,0a2.778,2.778,0,1,1,2.784,2.88A2.751,2.751,0,0,1,213.6,615.146Zm9.328,4H224.3v-3.968c0-1.873,1.024-2.929,2.32-2.929a1.921,1.921,0,0,1,1.889,2.177v4.72h1.36v-4.928a2.949,2.949,0,0,0-3.025-3.233,2.829,2.829,0,0,0-2.544,1.392v-1.232h-1.376v8Zm11.728-1.072a1.185,1.185,0,1,0-1.184,1.2A1.205,1.205,0,0,0,234.656,618.074Zm7.039,1.072h4.065c2.3,0,3.808-1.424,3.808-3.312a2.709,2.709,0,0,0-1.968-2.721,2.575,2.575,0,0,0,1.216-2.32,3.111,3.111,0,0,0-3.392-3.008H241.7v11.361Zm1.489-6.481v-3.536h2.24a1.786,1.786,0,0,1,1.936,1.776,1.748,1.748,0,0,1-1.936,1.76h-2.24Zm0,5.137v-3.856h2.656c1.5,0,2.272.832,2.272,1.936,0,1.12-.768,1.92-2.288,1.92h-2.64Zm8.143-2.656a4,4,0,0,0,3.921,4.16,3.508,3.508,0,0,0,2.816-1.392v1.232h1.376v-8h-1.376v1.232a3.508,3.508,0,0,0-2.816-1.392A4,4,0,0,0,251.327,615.146Zm6.849,0a2.733,2.733,0,1,1-2.72-2.9A2.731,2.731,0,0,1,258.176,615.146Zm4.255,4h1.376v-3.968c0-1.873,1.024-2.929,2.321-2.929a1.921,1.921,0,0,1,1.888,2.177v4.72h1.36v-4.928a2.949,2.949,0,0,0-3.024-3.233,2.831,2.831,0,0,0-2.545,1.392v-1.232h-1.376v8Zm9.2-4a4,4,0,0,0,3.92,4.16,3.509,3.509,0,0,0,2.817-1.392v1.232h1.376v-8h-1.376v1.232a3.509,3.509,0,0,0-2.817-1.392A4,4,0,0,0,271.631,615.146Zm6.849,0a2.733,2.733,0,1,1-2.721-2.9A2.732,2.732,0,0,1,278.48,615.146Zm4.255,4h1.376v-3.968c0-1.873,1.024-2.929,2.32-2.929a1.921,1.921,0,0,1,1.889,2.177v4.72h1.36v-4.928a2.949,2.949,0,0,0-3.025-3.233,2.829,2.829,0,0,0-2.544,1.392v-1.232h-1.376v8Zm9.2-4a4,4,0,0,0,3.92,4.16,3.508,3.508,0,0,0,2.816-1.392v1.232h1.377v-8h-1.377v1.232a3.508,3.508,0,0,0-2.816-1.392A4,4,0,0,0,291.935,615.146Zm6.848,0a2.733,2.733,0,1,1-2.72-2.9A2.731,2.731,0,0,1,298.783,615.146Zm8.767,4h1.488v-5.168h1.1l4.368,5.168h1.873l-4.369-5.184a2.965,2.965,0,0,0,2.8-3.041,3.064,3.064,0,0,0-3.392-3.136H307.55v11.361Zm1.488-6.5v-3.488h2.209c1.3,0,2.08.608,2.08,1.76,0,1.136-.784,1.728-2.08,1.728h-2.209Zm8,2.5a4.218,4.218,0,0,0,7.745,2.256l-1.088-.752a2.833,2.833,0,0,1-5.265-1.232h6.561a3.9,3.9,0,0,0,.016-0.416,3.728,3.728,0,0,0-3.808-4.017A4.054,4.054,0,0,0,317.038,615.146Zm4.113-2.945a2.394,2.394,0,0,1,2.448,2.1h-5.073A2.616,2.616,0,0,1,321.151,612.2Zm6.207,10.29h1.376v-4.577a3.51,3.51,0,0,0,2.817,1.392,4.168,4.168,0,0,0,0-8.321,3.51,3.51,0,0,0-2.817,1.392v-1.232h-1.376v11.346Zm6.7-7.345a2.726,2.726,0,1,1-2.72-2.9A2.731,2.731,0,0,1,334.063,615.146Zm3.679,0.912c0,1.984,1.184,3.248,2.944,3.248a2.753,2.753,0,0,0,2.465-1.392v1.232h1.376v-8h-1.376v3.969c0,1.84-.976,2.928-2.225,2.928-1.1,0-1.808-.848-1.808-2.192v-4.705h-1.376v4.913Zm11.152,1.856a3.509,3.509,0,0,0,2.817,1.392,4.168,4.168,0,0,0,0-8.321,3.509,3.509,0,0,0-2.817,1.392v-5.232h-1.376v12h1.376v-1.232Zm5.329-2.768a2.726,2.726,0,1,1-2.72-2.9A2.731,2.731,0,0,1,354.223,615.146Zm3.775,4h1.376v-12H358v12Zm6.048-11.121a0.966,0.966,0,0,0-.96-0.976,0.994,0.994,0,0,0-.992.976,0.983,0.983,0,0,0,.992.976A0.956,0.956,0,0,0,364.046,608.025Zm-1.664,11.121h1.376v-8h-1.376v8Zm11.649-1.984-1.2-.672a2.712,2.712,0,0,1-2.5,1.536,2.882,2.882,0,0,1,0-5.761,2.711,2.711,0,0,1,2.5,1.537l1.2-.673a4.146,4.146,0,0,0-3.7-2.144,4.161,4.161,0,1,0,0,8.321A4.146,4.146,0,0,0,374.031,617.162Zm8.142-9.137a0.966,0.966,0,0,0-.96-0.976,0.994,0.994,0,0,0-.992.976,0.983,0.983,0,0,0,.992.976A0.956,0.956,0,0,0,382.173,608.025Zm-1.664,11.121h1.376v-8h-1.376v8Zm9.569-2.224c0-1.2-.752-1.968-2.113-2.416l-0.864-.288c-0.944-.3-1.232-0.608-1.232-1.121a1.132,1.132,0,0,1,1.344-.928,2.165,2.165,0,0,1,1.7.832l0.9-.864a3.1,3.1,0,0,0-2.561-1.152c-1.584,0-2.7.88-2.7,2.176a2.415,2.415,0,0,0,1.984,2.321l0.784,0.256c1.04,0.336,1.425.72,1.425,1.28a1.219,1.219,0,0,1-1.409,1.088,2.147,2.147,0,0,1-2.048-1.264l-1.12.608a3.178,3.178,0,0,0,3.136,1.856C388.91,619.306,390.078,618.49,390.078,616.922Zm6.047-1.776a4,4,0,0,0,3.92,4.16,3.512,3.512,0,0,0,2.817-1.392v1.232h1.376v-12h-1.376v5.232a3.512,3.512,0,0,0-2.817-1.392A4,4,0,0,0,396.125,615.146Zm6.849,0a2.733,2.733,0,1,1-2.721-2.9A2.732,2.732,0,0,1,402.974,615.146Zm3.63,0a4.219,4.219,0,0,0,7.746,2.256l-1.089-.752A2.832,2.832,0,0,1,408,615.418h6.561a3.9,3.9,0,0,0,.016-0.416,3.729,3.729,0,0,0-3.809-4.017A4.055,4.055,0,0,0,406.6,615.146Zm4.113-2.945a2.394,2.394,0,0,1,2.448,2.1h-5.072A2.615,2.615,0,0,1,410.717,612.2Zm11.392,4.721c0-1.2-.752-1.968-2.112-2.416l-0.864-.288c-0.944-.3-1.232-0.608-1.232-1.121a1.132,1.132,0,0,1,1.344-.928,2.161,2.161,0,0,1,1.7.832l0.9-.864a3.1,3.1,0,0,0-2.56-1.152c-1.584,0-2.7.88-2.7,2.176a2.414,2.414,0,0,0,1.985,2.321l0.784,0.256c1.04,0.336,1.424.72,1.424,1.28a1.218,1.218,0,0,1-1.408,1.088,2.148,2.148,0,0,1-2.049-1.264l-1.12.608a3.179,3.179,0,0,0,3.137,1.856C420.941,619.306,422.109,618.49,422.109,616.922Zm4.031-8.9a0.966,0.966,0,0,0-.96-0.976,0.994,0.994,0,0,0-.992.976,0.983,0.983,0,0,0,.992.976A0.956,0.956,0,0,0,426.14,608.025Zm-1.664,11.121h1.376v-8h-1.376v8Zm11.841-.464v-7.537h-1.376v1.232a3.4,3.4,0,0,0-2.784-1.392,4.076,4.076,0,0,0,0,8.145,3.416,3.416,0,0,0,2.784-1.408v0.912a2.558,2.558,0,0,1-2.672,2.769,3.421,3.421,0,0,1-2.8-1.345l-0.96.961a4.75,4.75,0,0,0,3.777,1.632A3.7,3.7,0,0,0,436.317,618.682Zm-6.673-3.632a2.706,2.706,0,1,1,2.7,2.8A2.667,2.667,0,0,1,429.644,615.05Zm9.664,4.1h1.376v-3.968c0-1.873,1.024-2.929,2.32-2.929a1.921,1.921,0,0,1,1.889,2.177v4.72h1.36v-4.928a2.949,2.949,0,0,0-3.024-3.233,2.829,2.829,0,0,0-2.545,1.392v-1.232h-1.376v8Zm9.2-4a4.218,4.218,0,0,0,7.745,2.256l-1.088-.752a2.833,2.833,0,0,1-5.265-1.232h6.561a3.9,3.9,0,0,0,.016-0.416,3.728,3.728,0,0,0-3.809-4.017A4.054,4.054,0,0,0,448.508,615.146Zm4.112-2.945a2.4,2.4,0,0,1,2.449,2.1H450A2.615,2.615,0,0,1,452.62,612.2Zm5.584,2.945a4,4,0,0,0,3.92,4.16,3.51,3.51,0,0,0,2.817-1.392v1.232h1.376v-12h-1.376v5.232a3.51,3.51,0,0,0-2.817-1.392A4,4,0,0,0,458.2,615.146Zm6.849,0a2.733,2.733,0,1,1-2.721-2.9A2.732,2.732,0,0,1,465.053,615.146Zm10.223-7.121a0.967,0.967,0,0,0-.961-0.976,0.994,0.994,0,0,0-.992.976,0.983,0.983,0,0,0,.992.976A0.957,0.957,0,0,0,475.276,608.025Zm-1.665,11.121h1.376v-8h-1.376v8Zm4.384,0h1.376v-3.968c0-1.873,1.025-2.929,2.321-2.929a1.921,1.921,0,0,1,1.888,2.177v4.72h1.36v-4.928a2.949,2.949,0,0,0-3.024-3.233,2.832,2.832,0,0,0-2.545,1.392v-1.232H478v8Zm13.552-5.68a5.9,5.9,0,0,0,10.9,3.12l-1.248-.752a4.465,4.465,0,1,1,0-4.737l1.248-.752A5.9,5.9,0,0,0,491.547,613.466Zm12.432,1.68a4,4,0,0,0,3.92,4.16,3.51,3.51,0,0,0,2.817-1.392v1.232h1.376v-8h-1.376v1.232a3.51,3.51,0,0,0-2.817-1.392A4,4,0,0,0,503.979,615.146Zm6.849,0a2.733,2.733,0,1,1-2.721-2.9A2.732,2.732,0,0,1,510.828,615.146Zm4.255,4h1.376v-12h-1.376v12Zm6.048-11.121a0.966,0.966,0,0,0-.96-0.976,0.994,0.994,0,0,0-.993.976,0.984,0.984,0,0,0,.993.976A0.956,0.956,0,0,0,521.131,608.025Zm-1.665,11.121h1.377v-8h-1.377v8Zm5.056,0H525.9v-6.737h2.32v-1.264H525.9v-1.472a1.152,1.152,0,0,1,1.328-1.36,3.222,3.222,0,0,1,.992.16v-1.216a3.636,3.636,0,0,0-1.248-.208,2.285,2.285,0,0,0-2.449,2.48v1.616h-1.7v1.264h1.7v6.737Zm13.121-4a4.185,4.185,0,1,0-4.176,4.16A4.106,4.106,0,0,0,537.643,615.146Zm-6.961,0a2.778,2.778,0,1,1,2.785,2.88A2.751,2.751,0,0,1,530.682,615.146Zm9.328,4h1.376v-3.968c0-1.873,1.105-2.753,2.113-2.753a2.011,2.011,0,0,1,.752.128v-1.424a2.851,2.851,0,0,0-.624-0.064,2.381,2.381,0,0,0-2.241,1.632v-1.552H540.01v8Zm6.256,0h1.376v-3.968c0-1.873,1.025-2.929,2.321-2.929a1.921,1.921,0,0,1,1.888,2.177v4.72h1.36v-4.928a2.949,2.949,0,0,0-3.024-3.233,2.831,2.831,0,0,0-2.545,1.392v-1.232h-1.376v8Zm11.488-11.121a0.966,0.966,0,0,0-.96-0.976,0.994,0.994,0,0,0-.992.976,0.983,0.983,0,0,0,.992.976A0.956,0.956,0,0,0,557.754,608.025Zm-1.664,11.121h1.376v-8H556.09v8Zm3.76-4a4,4,0,0,0,3.92,4.16,3.509,3.509,0,0,0,2.817-1.392v1.232h1.376v-8h-1.376v1.232a3.509,3.509,0,0,0-2.817-1.392A4,4,0,0,0,559.85,615.146Zm6.849,0a2.733,2.733,0,1,1-2.721-2.9A2.732,2.732,0,0,1,566.7,615.146Zm8.446,0.912a2.921,2.921,0,0,0,2.945,3.248,2.752,2.752,0,0,0,2.464-1.392v1.232h1.376v-8h-1.376v3.969c0,1.84-.976,2.928-2.224,2.928-1.1,0-1.808-.848-1.808-2.192v-4.705h-1.377v4.913Zm14.961,0.864c0-1.2-.752-1.968-2.112-2.416l-0.864-.288c-0.944-.3-1.232-0.608-1.232-1.121a1.132,1.132,0,0,1,1.344-.928,2.161,2.161,0,0,1,1.7.832l0.9-.864a3.1,3.1,0,0,0-2.56-1.152c-1.584,0-2.705.88-2.705,2.176a2.416,2.416,0,0,0,1.985,2.321l0.784,0.256c1.04,0.336,1.424.72,1.424,1.28a1.218,1.218,0,0,1-1.408,1.088,2.147,2.147,0,0,1-2.048-1.264l-1.121.608a3.179,3.179,0,0,0,3.137,1.856C588.938,619.306,590.106,618.49,590.106,616.922Zm4.032-8.9a0.966,0.966,0,0,0-.961-0.976,0.994,0.994,0,0,0-.992.976,0.983,0.983,0,0,0,.992.976A0.957,0.957,0,0,0,594.138,608.025Zm-1.665,11.121h1.377v-8h-1.377v8Zm4.384,0h1.377v-3.968c0-1.873,1.024-2.929,2.32-2.929a1.921,1.921,0,0,1,1.888,2.177v4.72h1.36v-4.928a2.949,2.949,0,0,0-3.024-3.233,2.829,2.829,0,0,0-2.544,1.392v-1.232h-1.377v8Zm17.281-.464v-7.537h-1.376v1.232a3.4,3.4,0,0,0-2.784-1.392,4.076,4.076,0,0,0,0,8.145,3.416,3.416,0,0,0,2.784-1.408v0.912a2.558,2.558,0,0,1-2.672,2.769,3.421,3.421,0,0,1-2.8-1.345l-0.96.961a4.75,4.75,0,0,0,3.777,1.632A3.7,3.7,0,0,0,614.138,618.682Zm-6.673-3.632a2.706,2.706,0,1,1,2.7,2.8A2.667,2.667,0,0,1,607.465,615.05Zm13.968,7.441h1.376v-4.577a3.508,3.508,0,0,0,2.816,1.392,4.168,4.168,0,0,0,0-8.321,3.508,3.508,0,0,0-2.816,1.392v-1.232h-1.376v11.346Zm6.705-7.345a2.726,2.726,0,1,1-2.721-2.9A2.732,2.732,0,0,1,628.138,615.146Zm3.791,4H633.3v-3.968c0-1.873,1.1-2.753,2.112-2.753a2.011,2.011,0,0,1,.752.128v-1.424a2.851,2.851,0,0,0-.624-0.064,2.38,2.38,0,0,0-2.24,1.632v-1.552h-1.376v8Zm5.344-4a4.218,4.218,0,0,0,7.745,2.256l-1.088-.752a2.833,2.833,0,0,1-5.265-1.232h6.561a3.9,3.9,0,0,0,.016-0.416,3.728,3.728,0,0,0-3.809-4.017A4.054,4.054,0,0,0,637.273,615.146Zm4.112-2.945a2.394,2.394,0,0,1,2.449,2.1h-5.073A2.615,2.615,0,0,1,641.385,612.2Zm6.208,6.945h1.376v-3.968c0-1.808.912-2.929,2.208-2.929,1.04,0,1.568.9,1.568,2.193v4.7h1.377v-3.968c0-1.808.9-2.929,2.192-2.929,1.04,0,1.584.9,1.584,2.193v4.7h1.376v-4.912c0-1.953-1.056-3.249-2.8-3.249a2.769,2.769,0,0,0-2.624,1.712,2.516,2.516,0,0,0-2.465-1.712,2.689,2.689,0,0,0-2.416,1.392v-1.232h-1.376v8Zm16.224-11.121a0.966,0.966,0,0,0-.96-0.976,0.994,0.994,0,0,0-.992.976,0.983,0.983,0,0,0,.992.976A0.956,0.956,0,0,0,663.817,608.025Zm-1.664,11.121h1.376v-8h-1.376v8Zm4.272-3.088c0,1.984,1.184,3.248,2.944,3.248a2.752,2.752,0,0,0,2.464-1.392v1.232h1.377v-8h-1.377v3.969c0,1.84-.976,2.928-2.224,2.928-1.1,0-1.808-.848-1.808-2.192v-4.705h-1.376v4.913Zm9.775,3.088h1.377v-3.968c0-1.808.912-2.929,2.208-2.929,1.04,0,1.568.9,1.568,2.193v4.7h1.376v-3.968c0-1.808.9-2.929,2.193-2.929,1.04,0,1.584.9,1.584,2.193v4.7h1.376v-4.912c0-1.953-1.056-3.249-2.8-3.249a2.77,2.77,0,0,0-2.625,1.712,2.515,2.515,0,0,0-2.464-1.712,2.689,2.689,0,0,0-2.416,1.392v-1.232H676.2v8Zm18.864,0h1.376v-3.968c0-1.808.913-2.929,2.209-2.929,1.04,0,1.568.9,1.568,2.193v4.7h1.376v-3.968c0-1.808.9-2.929,2.192-2.929,1.041,0,1.585.9,1.585,2.193v4.7h1.376v-4.912c0-1.953-1.056-3.249-2.8-3.249a2.769,2.769,0,0,0-2.624,1.712,2.515,2.515,0,0,0-2.464-1.712,2.691,2.691,0,0,0-2.417,1.392v-1.232h-1.376v8Zm13.936-4a4,4,0,0,0,3.921,4.16,3.508,3.508,0,0,0,2.816-1.392v1.232h1.376v-8h-1.376v1.232a3.508,3.508,0,0,0-2.816-1.392A4,4,0,0,0,709,615.146Zm6.849,0a2.733,2.733,0,1,1-2.72-2.9A2.731,2.731,0,0,1,715.849,615.146Zm8.592,3.888V617.8a3.048,3.048,0,0,1-.977.16,1.152,1.152,0,0,1-1.328-1.36v-4.193h2.305v-1.264h-2.305v-2.224H720.76v2.224h-1.7v1.264h1.7v4.369a2.252,2.252,0,0,0,2.448,2.448A3.835,3.835,0,0,0,724.441,619.034Zm1.423-3.888a4.218,4.218,0,0,0,7.745,2.256l-1.088-.752a2.833,2.833,0,0,1-5.265-1.232h6.561a3.9,3.9,0,0,0,.016-0.416,3.728,3.728,0,0,0-3.808-4.017A4.054,4.054,0,0,0,725.864,615.146Zm4.113-2.945a2.394,2.394,0,0,1,2.448,2.1h-5.073A2.616,2.616,0,0,1,729.977,612.2Zm6.207,6.945h1.376v-3.968c0-1.873,1.1-2.753,2.112-2.753a2.013,2.013,0,0,1,.753.128v-1.424a2.851,2.851,0,0,0-.624-0.064,2.38,2.38,0,0,0-2.241,1.632v-1.552h-1.376v8Zm7.92-11.121a0.966,0.966,0,0,0-.96-0.976,0.994,0.994,0,0,0-.992.976,0.983,0.983,0,0,0,.992.976A0.956,0.956,0,0,0,744.1,608.025Zm-1.664,11.121h1.376v-8H742.44v8Zm3.76-4a4,4,0,0,0,3.92,4.16,3.509,3.509,0,0,0,2.817-1.392v1.232h1.376v-8h-1.376v1.232a3.509,3.509,0,0,0-2.817-1.392A4,4,0,0,0,746.2,615.146Zm6.849,0a2.733,2.733,0,1,1-2.721-2.9A2.732,2.732,0,0,1,753.049,615.146Zm4.255,4h1.376v-12H757.3v12Zm9.568-2.224c0-1.2-.752-1.968-2.112-2.416l-0.864-.288c-0.944-.3-1.232-0.608-1.232-1.121a1.132,1.132,0,0,1,1.344-.928,2.161,2.161,0,0,1,1.7.832l0.9-.864a3.1,3.1,0,0,0-2.56-1.152c-1.584,0-2.7.88-2.7,2.176a2.415,2.415,0,0,0,1.984,2.321l0.784,0.256c1.04,0.336,1.424.72,1.424,1.28a1.218,1.218,0,0,1-1.408,1.088,2.147,2.147,0,0,1-2.048-1.264l-1.12.608a3.178,3.178,0,0,0,3.136,1.856C765.7,619.306,766.872,618.49,766.872,616.922Zm-730,24c0-1.2-.752-1.968-2.112-2.416l-0.864-.288c-0.944-.3-1.232-0.608-1.232-1.121A1.133,1.133,0,0,1,34,636.169a2.162,2.162,0,0,1,1.7.832l0.9-.864a3.1,3.1,0,0,0-2.56-1.152c-1.584,0-2.7.88-2.7,2.176a2.415,2.415,0,0,0,1.984,2.321l0.784,0.256c1.04,0.336,1.424.72,1.424,1.28a1.218,1.218,0,0,1-1.408,1.088,2.147,2.147,0,0,1-2.048-1.264l-1.12.608a3.178,3.178,0,0,0,3.136,1.856C35.7,643.306,36.867,642.49,36.867,640.922Zm10.1-1.776a4.185,4.185,0,1,0-4.177,4.16A4.106,4.106,0,0,0,46.964,639.146Zm-6.961,0a2.778,2.778,0,1,1,2.784,2.88A2.751,2.751,0,0,1,40,639.146Zm9.216,0.912c0,1.984,1.184,3.248,2.944,3.248a2.753,2.753,0,0,0,2.464-1.392v1.232H56v-8H54.627v3.969c0,1.84-.976,2.928-2.224,2.928-1.1,0-1.808-.848-1.808-2.192v-4.705H49.218v4.913Zm9.776,3.088H60.37v-3.968c0-1.873,1.1-2.753,2.112-2.753a2.012,2.012,0,0,1,.752.128v-1.424a2.851,2.851,0,0,0-.624-0.064,2.381,2.381,0,0,0-2.24,1.632v-1.552H58.994v8Zm13.233-1.984-1.2-.672a2.712,2.712,0,0,1-2.5,1.536,2.882,2.882,0,0,1,0-5.761,2.711,2.711,0,0,1,2.5,1.537l1.2-.673a4.144,4.144,0,0,0-3.7-2.144,4.161,4.161,0,1,0,0,8.321A4.144,4.144,0,0,0,72.227,641.162Zm1.551-2.016a4.218,4.218,0,0,0,7.745,2.256l-1.088-.752a2.833,2.833,0,0,1-5.265-1.232h6.561A3.9,3.9,0,0,0,81.747,639a3.728,3.728,0,0,0-3.809-4.017A4.054,4.054,0,0,0,73.778,639.146Zm4.113-2.945a2.394,2.394,0,0,1,2.448,2.1H75.266A2.616,2.616,0,0,1,77.891,636.2Zm5.583,2.945a4,4,0,0,0,3.921,4.16,3.509,3.509,0,0,0,2.816-1.392v1.232h1.376v-12H90.211v5.232a3.509,3.509,0,0,0-2.816-1.392A4,4,0,0,0,83.474,639.146Zm6.849,0a2.733,2.733,0,1,1-2.72-2.9A2.732,2.732,0,0,1,90.323,639.146Zm9.023,4h1.376v-6.737h2.321v-1.264h-2.321v-1.472a1.152,1.152,0,0,1,1.328-1.36,3.233,3.233,0,0,1,.993.16v-1.216a3.646,3.646,0,0,0-1.249-.208,2.285,2.285,0,0,0-2.448,2.48v1.616h-1.7v1.264h1.7v6.737Zm5.6,0h1.376v-3.968c0-1.873,1.1-2.753,2.112-2.753a2.011,2.011,0,0,1,.752.128v-1.424a2.851,2.851,0,0,0-.624-0.064,2.38,2.38,0,0,0-2.24,1.632v-1.552h-1.376v8Zm13.7-4a4.185,4.185,0,1,0-4.177,4.16A4.106,4.106,0,0,0,118.643,639.146Zm-6.961,0a2.778,2.778,0,1,1,2.784,2.88A2.751,2.751,0,0,1,111.682,639.146Zm9.328,4h1.376v-3.968c0-1.808.912-2.929,2.208-2.929,1.04,0,1.568.9,1.568,2.193v4.7h1.377v-3.968c0-1.808.9-2.929,2.192-2.929,1.04,0,1.584.9,1.584,2.193v4.7h1.376v-4.912c0-1.953-1.056-3.249-2.8-3.249a2.769,2.769,0,0,0-2.624,1.712,2.517,2.517,0,0,0-2.465-1.712,2.689,2.689,0,0,0-2.416,1.392v-1.232H121.01v8Zm18.239-4a4,4,0,0,0,3.921,4.16,3.508,3.508,0,0,0,2.816-1.392v1.232h1.376v-8h-1.376v1.232a3.508,3.508,0,0,0-2.816-1.392A4,4,0,0,0,139.249,639.146Zm6.849,0a2.733,2.733,0,1,1-2.72-2.9A2.731,2.731,0,0,1,146.1,639.146Zm4.255,4h1.376v-3.968c0-1.873,1.1-2.753,2.113-2.753a2.011,2.011,0,0,1,.752.128v-1.424a2.851,2.851,0,0,0-.624-0.064,2.381,2.381,0,0,0-2.241,1.632v-1.552h-1.376v8Zm13.7-4a4.185,4.185,0,1,0-4.176,4.16A4.106,4.106,0,0,0,164.05,639.146Zm-6.961,0a2.778,2.778,0,1,1,2.785,2.88A2.751,2.751,0,0,1,157.089,639.146Zm9.216,0.912c0,1.984,1.184,3.248,2.944,3.248a2.753,2.753,0,0,0,2.465-1.392v1.232h1.376v-8h-1.376v3.969c0,1.84-.976,2.928-2.224,2.928-1.105,0-1.809-.848-1.809-2.192v-4.705h-1.376v4.913Zm9.776,3.088h1.376v-3.968c0-1.873,1.024-2.929,2.321-2.929a1.921,1.921,0,0,1,1.888,2.177v4.72h1.36v-4.928A2.949,2.949,0,0,0,180,634.985a2.829,2.829,0,0,0-2.545,1.392v-1.232h-1.376v8Zm9.2-4a4,4,0,0,0,3.92,4.16,3.51,3.51,0,0,0,2.817-1.392v1.232h1.376v-12h-1.376v5.232a3.51,3.51,0,0,0-2.817-1.392A4,4,0,0,0,185.281,639.146Zm6.849,0a2.733,2.733,0,1,1-2.721-2.9A2.732,2.732,0,0,1,192.13,639.146Zm12.623,3.888V641.8a3.041,3.041,0,0,1-.976.16,1.152,1.152,0,0,1-1.328-1.36v-4.193h2.3v-1.264h-2.3v-2.224h-1.376v2.224h-1.7v1.264h1.7v4.369a2.252,2.252,0,0,0,2.448,2.448A3.828,3.828,0,0,0,204.753,643.034Zm2.159,0.112h1.377v-3.968c0-1.873,1.024-2.929,2.32-2.929a1.921,1.921,0,0,1,1.888,2.177v4.72h1.36v-4.928a2.949,2.949,0,0,0-3.024-3.233,2.829,2.829,0,0,0-2.544,1.392v-5.232h-1.377v12Zm9.2-4a4.218,4.218,0,0,0,7.745,2.256l-1.088-.752a2.833,2.833,0,0,1-5.265-1.232h6.561a3.9,3.9,0,0,0,.016-0.416,3.728,3.728,0,0,0-3.808-4.017A4.054,4.054,0,0,0,216.112,639.146Zm4.113-2.945a2.394,2.394,0,0,1,2.448,2.1H217.6A2.616,2.616,0,0,1,220.225,636.2Zm17.008,6.945h1.216l2.721-8h-1.457l-1.936,5.841-2-5.841h-1.056l-2,5.841-1.936-5.841h-1.44l2.72,8h1.217l1.984-5.76Zm13.52-4a4.185,4.185,0,1,0-4.177,4.16A4.106,4.106,0,0,0,250.753,639.146Zm-6.961,0a2.778,2.778,0,1,1,2.784,2.88A2.751,2.751,0,0,1,243.792,639.146Zm9.328,4H254.5v-3.968c0-1.873,1.1-2.753,2.112-2.753a2.011,2.011,0,0,1,.752.128v-1.424a2.851,2.851,0,0,0-.624-0.064,2.38,2.38,0,0,0-2.24,1.632v-1.552H253.12v8Zm6.256,0h1.376v-12h-1.376v12Zm3.759-4a4,4,0,0,0,3.921,4.16,3.508,3.508,0,0,0,2.816-1.392v1.232h1.377v-12h-1.377v5.232a3.508,3.508,0,0,0-2.816-1.392A4,4,0,0,0,263.135,639.146Zm6.849,0a2.733,2.733,0,1,1-2.72-2.9A2.731,2.731,0,0,1,269.984,639.146Zm6.16,2.928a1.185,1.185,0,1,0-1.185,1.2A1.206,1.206,0,0,0,276.144,642.074Z"/>
  <path id="Our_fabrics_are_the_treasures" data-name="Our fabrics are the treasures" class="cls-1" d="M41.843,551.831a12.1,12.1,0,1,0-12.1-12.1A12.129,12.129,0,0,0,41.843,551.831Zm0-5.077a7.026,7.026,0,1,1,6.792-7.023A6.945,6.945,0,0,1,41.843,546.754Zm27.094,5.077c5.6,0,9.627-3.824,9.627-9.66V528.027H73.321v14.21a4.387,4.387,0,1,1-8.77,0v-14.21H59.309v14.144C59.309,548.007,63.3,551.831,68.936,551.831Zm16.31-.395h5.242v-9.66h0.857l7.781,9.66h6.3l-8.276-10.32c2.968-1.055,4.582-3,4.582-6.033a6.911,6.911,0,0,0-7.253-7.056H85.246v23.409Zm5.242-14.111v-4.484h3.363c1.55,0,2.671.824,2.671,2.242,0,1.351-1.121,2.242-2.671,2.242H90.489Zm27.163,14.111h5.242V542.27h7.154v-5.011h-7.154v-4.22h9.166v-5.012H117.652v23.409Zm15.479,0H138.6l2.077-4.946h9.693l2.077,4.946h5.473L147.9,528.027h-4.748Zm9.462-9.5,2.935-7.055,2.934,7.055h-5.869Zm19.774,9.5h10.286a6.921,6.921,0,0,0,7.122-6.891,6.117,6.117,0,0,0-3.33-5.539,5.509,5.509,0,0,0,1.681-4.022,6.958,6.958,0,0,0-6.956-6.957h-8.8v23.409Zm5.242-13.946v-4.682h2.967a2.379,2.379,0,0,1,2.44,2.374,2.347,2.347,0,0,1-2.44,2.308h-2.967Zm0,9.132V541.94h4.583a2.383,2.383,0,0,1,2.473,2.341,2.353,2.353,0,0,1-2.44,2.341h-4.616Zm17.693,4.814h5.242v-9.66H191.4l7.781,9.66h6.3l-8.275-10.32c2.967-1.055,4.582-3,4.582-6.033a6.911,6.911,0,0,0-7.253-7.056H185.3v23.409Zm5.242-14.111v-4.484h3.363c1.549,0,2.67.824,2.67,2.242,0,1.351-1.121,2.242-2.67,2.242h-3.363Zm18.583,14.111h5.242V528.027h-5.242v23.409Zm22.958,0.395a12.1,12.1,0,0,0,10.946-6.4l-4.616-2.5a7.023,7.023,0,1,1,0-6.4l4.616-2.5A12.2,12.2,0,1,0,232.085,551.831Zm23,0c4.946,0,8.342-2.967,8.375-7.22,0.033-3.528-2.176-5.77-5.572-6.99l-1.649-.593c-2.473-.89-3.627-1.451-3.627-2.7,0-1.219,1.418-1.78,2.836-1.78a5.2,5.2,0,0,1,4.055,1.945l3.429-3.626a9.767,9.767,0,0,0-7.55-3.231c-4.682,0-8.078,2.67-8.078,7.22,0,3.2,2.11,5.473,5.9,6.759l1.648,0.56c2.341,0.792,3.264,1.616,3.264,2.8,0,1.121-1.088,1.945-2.835,1.945a6.125,6.125,0,0,1-4.847-2.671l-4.022,3.4A10.264,10.264,0,0,0,255.089,551.831Zm19.742-.395H280.3l2.077-4.946h9.693l2.077,4.946h5.473L289.6,528.027h-4.748Zm9.462-9.5,2.935-7.055,2.934,7.055h-5.869Zm19.774,9.5h5.242v-9.66h0.857l7.781,9.66h6.3l-8.275-10.32c2.967-1.055,4.583-3,4.583-6.033a6.912,6.912,0,0,0-7.254-7.056h-9.231v23.409Zm5.242-14.111v-4.484h3.363c1.549,0,2.67.824,2.67,2.242,0,1.351-1.121,2.242-2.67,2.242h-3.363Zm18.583,14.111h14.837v-5.012h-9.595v-4.187h7.617v-5.011h-7.617v-4.187h9.595v-5.012H327.892v23.409Zm33.326,0h5.275v-18.4h6.034v-5.012H355.251v5.012h5.967v18.4Zm16.5,0h5.242v-9.265h9.429v9.265h5.243V528.027h-5.243v9.166h-9.429v-9.166h-5.242v23.409Zm26.862,0H419.42v-5.012h-9.594v-4.187h7.616v-5.011h-7.616v-4.187h9.594v-5.012H404.584v23.409Zm33.326,0h5.275v-18.4h6.033v-5.012H431.942v5.012h5.968v18.4Zm16.5,0h5.242v-9.66h0.858l7.781,9.66h6.3l-8.276-10.32c2.968-1.055,4.583-3,4.583-6.033a6.911,6.911,0,0,0-7.253-7.056h-9.232v23.409Zm5.242-14.111v-4.484h3.363c1.55,0,2.671.824,2.671,2.242,0,1.351-1.121,2.242-2.671,2.242h-3.363Zm18.584,14.111h14.836v-5.012h-9.594v-4.187H491.1v-5.011h-7.616v-4.187h9.594v-5.012H478.239v23.409Zm18.317,0h5.473l2.077-4.946H513.8l2.077,4.946h5.473l-10.023-23.409h-4.747Zm9.462-9.5,2.935-7.055,2.934,7.055h-5.869Zm26.136,9.891c4.946,0,8.342-2.967,8.375-7.22,0.033-3.528-2.176-5.77-5.572-6.99l-1.649-.593c-2.472-.89-3.626-1.451-3.626-2.7,0-1.219,1.417-1.78,2.835-1.78a5.2,5.2,0,0,1,4.055,1.945L540,530.863a9.767,9.767,0,0,0-7.55-3.231c-4.682,0-8.078,2.67-8.078,7.22,0,3.2,2.11,5.473,5.9,6.759l1.649,0.56c2.34,0.792,3.264,1.616,3.264,2.8,0,1.121-1.088,1.945-2.836,1.945a6.123,6.123,0,0,1-4.846-2.671l-4.023,3.4A10.265,10.265,0,0,0,532.154,551.831Zm23.362,0c5.605,0,9.627-3.824,9.627-9.66V528.027H559.9v14.21a4.387,4.387,0,1,1-8.77,0v-14.21h-5.242v14.144C545.889,548.007,549.878,551.831,555.516,551.831Zm16.31-.395h5.242v-9.66h0.857l7.781,9.66H592l-8.275-10.32c2.967-1.055,4.583-3,4.583-6.033a6.912,6.912,0,0,0-7.254-7.056h-9.231v23.409Zm5.242-14.111v-4.484h3.363c1.55,0,2.671.824,2.671,2.242,0,1.351-1.121,2.242-2.671,2.242h-3.363Zm18.583,14.111h14.837v-5.012h-9.594v-4.187h7.616v-5.011h-7.616v-4.187h9.594v-5.012H595.651v23.409Zm27.813,0.395c4.945,0,8.341-2.967,8.374-7.22,0.033-3.528-2.176-5.77-5.572-6.99l-1.648-.593c-2.473-.89-3.627-1.451-3.627-2.7,0-1.219,1.418-1.78,2.836-1.78a5.206,5.206,0,0,1,4.055,1.945l3.429-3.626a9.767,9.767,0,0,0-7.55-3.231c-4.682,0-8.078,2.67-8.078,7.22,0,3.2,2.11,5.473,5.9,6.759l1.648,0.56c2.341,0.792,3.264,1.616,3.264,2.8,0,1.121-1.088,1.945-2.835,1.945a6.123,6.123,0,0,1-4.847-2.671l-4.022,3.4A10.262,10.262,0,0,0,623.464,551.831Z"/>
  <g id="Number_copy_3" data-name="Number copy 3">
    <path id="_01" data-name="01" class="cls-1" d="M1310.13,632.1v-3.724c0-3.2-2.13-5.466-5.13-5.466s-5.12,2.263-5.12,5.466V632.1c0,3.2,2.13,5.465,5.12,5.465S1310.13,635.3,1310.13,632.1Zm-8.06,0v-3.724c0-2.062,1.21-3.3,2.93-3.3s2.94,1.242,2.94,3.3V632.1c0,2.082-1.21,3.3-2.94,3.3S1302.07,634.182,1302.07,632.1Zm14.93,5.265h2.19V623.15h-3.36l-1.67,2.183H1317v12.032Z"/>
    <path id="_04" data-name="04" class="cls-1" d="M1310.13,687.458v-3.724c0-3.2-2.13-5.465-5.13-5.465s-5.12,2.262-5.12,5.465v3.724c0,3.2,2.13,5.466,5.12,5.466S1310.13,690.662,1310.13,687.458Zm-8.06,0v-3.724c0-2.062,1.21-3.3,2.93-3.3s2.94,1.241,2.94,3.3v3.724c0,2.083-1.21,3.3-2.94,3.3S1302.07,689.541,1302.07,687.458Zm17.29,5.266h2.19V689.16h1.89v-2.042h-1.89v-8.609h-1.95l-7.55,8.869v1.782h7.31v3.564Zm0-5.606h-4.56l4.56-5.326v5.326Z"/>
    <path class="cls-2" d="M1293,658v-1h37v1h-37Z"/>
  </g>
  <g id="X_copy" data-name="X copy">
    <path id="Rectangle_116_copy_2" data-name="Rectangle 116 copy 2" class="cls-3" d="M1330.01,58.336l-0.94.929L1315.38,45.7,1300.94,60l-0.95-.938,14.44-14.3-13.96-13.832,0.94-.929,13.96,13.832,13.5-13.383,0.95,0.938-13.51,13.383Z"/>
  </g>
  <g id="R_copy" data-name="R copy">
    <path id="Rectangle_116_copy" data-name="Rectangle 116 copy" class="cls-3" d="M1328.51,362.768l-0.07-.068-27.94,27.9-0.95-.941,27.95-27.9-27.47-27.421,0.93-.932,28.49,28.431Z"/>
  </g>
</svg>
