<svg id="copy_copy_2" data-name="copy copy 2" xmlns="http://www.w3.org/2000/svg" width="1360" height="723" viewBox="0 0 1360 723">
  <defs>
    <style>
      .cls-1 {
        fill: #fff;
      }

      .cls-1, .cls-2 {
        fill-rule: evenodd;
      }
    </style>
  </defs>
  <path id="MODERN_TRUCKER_JACKET_IN_LUXE_SUEDE_L_Italian_Moleskin_R_" data-name="MODERN TRUCKER JACKET IN LUXE SUEDE (L) &amp; Italian Moleskin (R) " class="cls-1" d="M110.459,592.73l3.313-4.593v7.009h2.56V583.785h-2.32l-3.553,4.9-3.552-4.9h-2.32v11.361h2.544v-7.009Zm14.784,2.608a5.873,5.873,0,1,0-5.873-5.872A5.886,5.886,0,0,0,125.243,595.338Zm0-2.464a3.41,3.41,0,1,1,3.3-3.408A3.371,3.371,0,0,1,125.243,592.874Zm8.911,2.272h3.873a5.682,5.682,0,1,0,0-11.361h-3.873v11.361Zm2.545-2.336v-6.689h1.328a3.347,3.347,0,0,1,0,6.689H136.7Zm10.175,2.336h7.2v-2.432h-4.656v-2.032h3.7v-2.433h-3.7v-2.032h4.656v-2.432h-7.2v11.361Zm10.416,0h2.545v-4.688h0.416l3.776,4.688h3.057l-4.017-5.008a2.933,2.933,0,0,0,2.224-2.929,3.354,3.354,0,0,0-3.52-3.424H157.29v11.361Zm2.545-6.849v-2.176h1.632a1.132,1.132,0,0,1,1.3,1.088,1.15,1.15,0,0,1-1.3,1.088h-1.632Zm19.6,6.849V583.785h-2.56v7.009l-5.521-7.009h-2.192v11.361h2.544v-7.025l5.537,7.025h2.192Zm10.063,0h2.56v-8.929h2.929v-2.432H186.6v2.432h2.9v8.929Zm8.32,0h2.544v-4.688h0.416l3.777,4.688h3.056l-4.017-5.008a2.933,2.933,0,0,0,2.225-2.929,3.354,3.354,0,0,0-3.521-3.424h-4.48v11.361Zm2.544-6.849v-2.176h1.632a1.132,1.132,0,0,1,1.3,1.088,1.15,1.15,0,0,1-1.3,1.088h-1.632Zm13.664,7.041a4.456,4.456,0,0,0,4.673-4.688v-6.865h-2.544v6.9a2.129,2.129,0,1,1-4.257,0v-6.9h-2.544v6.865A4.447,4.447,0,0,0,214.026,595.338Zm13.456,0a5.872,5.872,0,0,0,5.313-3.1l-2.24-1.216a3.409,3.409,0,1,1,0-3.105l2.24-1.216A5.923,5.923,0,1,0,227.482,595.338Zm8.079-.192h2.529v-5.088l4.624,5.088h3.265l-5.393-5.9,4.481-5.456h-3.121l-3.856,4.752v-4.752h-2.529v11.361Zm12.48,0h7.2v-2.432h-4.656v-2.032h3.7v-2.433h-3.7v-2.032h4.656v-2.432h-7.2v11.361Zm10.416,0H261v-4.688h0.416l3.776,4.688h3.057l-4.017-5.008a2.933,2.933,0,0,0,2.224-2.929,3.354,3.354,0,0,0-3.52-3.424h-4.481v11.361ZM261,588.3v-2.176h1.632a1.132,1.132,0,0,1,1.3,1.088,1.15,1.15,0,0,1-1.3,1.088H261Zm16.192,7.041c1.952,0,3.712-.976,3.712-3.3v-8.257h-2.544v8.1a1.169,1.169,0,0,1-2.336-.064h-2.513A3.368,3.368,0,0,0,277.194,595.338Zm5.839-.192h2.656l1.009-2.4h4.7l1.008,2.4h2.657L290.2,583.785h-2.3Zm4.593-4.608,1.424-3.425,1.424,3.425h-2.848Zm14.624,4.8a5.874,5.874,0,0,0,5.313-3.1l-2.241-1.216a3.409,3.409,0,1,1,0-3.105l2.241-1.216A5.923,5.923,0,1,0,302.25,595.338Zm8.079-.192h2.529v-5.088l4.624,5.088h3.265l-5.393-5.9,4.481-5.456h-3.121l-3.856,4.752v-4.752h-2.529v11.361Zm12.48,0h7.2v-2.432h-4.656v-2.032h3.7v-2.433h-3.7v-2.032h4.656v-2.432h-7.2v11.361Zm12.464,0h2.561v-8.929h2.928v-2.432h-8.385v2.432h2.9v8.929Zm-230.382,24h1.488V607.785h-1.488v11.361Zm15.457,0V607.785h-1.472v8.849l-6.913-8.849h-1.3v11.361h1.488V610.3l6.913,8.849h1.28Zm8.8,0H136.4v-2.432H131.69v-8.929h-2.544v11.361Zm14.273,0.192a4.455,4.455,0,0,0,4.672-4.688v-6.865h-2.544v6.9a2.129,2.129,0,1,1-4.257,0v-6.9h-2.544v6.865A4.447,4.447,0,0,0,143.419,619.338Zm15.472-.192h2.96l-4.24-5.744,3.984-5.617h-2.944l-2.576,3.648-2.577-3.648h-2.944l4,5.617-4.256,5.744h2.976l2.817-3.76Zm5.3,0h7.2v-2.432H166.73v-2.032h3.7v-2.433h-3.7v-2.032h4.657v-2.432h-7.2v11.361Zm18.608,0.192c2.4,0,4.049-1.44,4.065-3.5,0.016-1.712-1.056-2.8-2.705-3.393l-0.8-.288c-1.2-.432-1.76-0.7-1.76-1.312a1.166,1.166,0,0,1,1.376-.864,2.527,2.527,0,0,1,1.968.944l1.665-1.76a4.744,4.744,0,0,0-3.665-1.568c-2.272,0-3.92,1.3-3.92,3.5,0,1.552,1.024,2.657,2.864,3.281l0.8,0.272c1.136,0.384,1.584.784,1.584,1.36a1.152,1.152,0,0,1-1.376.944,2.972,2.972,0,0,1-2.352-1.3l-1.953,1.648A4.984,4.984,0,0,0,182.794,619.338Zm11.648,0a4.456,4.456,0,0,0,4.673-4.688v-6.865H196.57v6.9a2.129,2.129,0,1,1-4.256,0v-6.9h-2.545v6.865A4.448,4.448,0,0,0,194.442,619.338Zm8.223-.192h7.2v-2.432H205.21v-2.032h3.7v-2.433h-3.7v-2.032h4.656v-2.432h-7.2v11.361Zm10.416,0h3.873a5.682,5.682,0,1,0,0-11.361h-3.873v11.361Zm2.545-2.336v-6.689h1.328a3.347,3.347,0,0,1,0,6.689h-1.328Zm10.175,2.336H233v-2.432h-4.657v-2.032h3.7v-2.433h-3.7v-2.032H233v-2.432h-7.2v11.361Zm17.984,2.017a16.207,16.207,0,0,1,0-15.363h-1.12a15.43,15.43,0,0,0,0,15.363h1.12Zm3.264-2.017h6.977v-1.408h-5.489v-9.953h-1.488v11.361Zm9.008,2.017h1.12a15.43,15.43,0,0,0,0-15.363h-1.12A16.207,16.207,0,0,1,256.057,621.163ZM108.235,643.322a4.728,4.728,0,0,0,3.329-1.36l1.232,1.184h3.168l-2.9-2.784,2.32-2.7h-2.9l-0.992,1.184-1.729-1.649a2.987,2.987,0,0,0,1.873-2.72,3.074,3.074,0,0,0-3.265-2.88,3.119,3.119,0,0,0-3.3,2.928,3.328,3.328,0,0,0,1.184,2.336,3.507,3.507,0,0,0-1.888,3.025C104.379,641.754,105.627,643.322,108.235,643.322Zm-0.848-8.8a0.945,0.945,0,0,1,1.888.048,1.266,1.266,0,0,1-.944,1.232h-0.016A1.855,1.855,0,0,1,107.387,634.521Zm-0.656,5.441a2.026,2.026,0,0,1,1.1-1.584l2.16,2.08a2.785,2.785,0,0,1-1.792.752A1.318,1.318,0,0,1,106.731,639.962Zm16,3.184h2.545V631.785H122.73v11.361Zm8.273,0h2.56v-8.929h2.928v-2.432h-8.385v2.432H131v8.929Zm5.951,0h2.656l1.009-2.4h4.7l1.008,2.4h2.657l-4.865-11.361h-2.3Zm4.593-4.608,1.424-3.425,1.424,3.425h-2.848Zm9.9,4.608H158.7v-2.432H154v-8.929H151.45v11.361Zm10.112,0h2.544V631.785h-2.544v11.361Zm5.008,0h2.656l1.008-2.4h4.7l1.008,2.4H178.6l-4.864-11.361h-2.305Zm4.592-4.608,1.425-3.425,1.424,3.425h-2.849Zm20.177,4.608V631.785h-2.56v7.009l-5.521-7.009h-2.192v11.361h2.544v-7.025l5.537,7.025h2.192Zm14.351-2.416L209,636.137v7.009h2.56V631.785h-2.32l-3.553,4.9-3.552-4.9h-2.32v11.361h2.544v-7.009Zm14.784,2.608a5.873,5.873,0,1,0-5.873-5.872A5.886,5.886,0,0,0,220.474,643.338Zm0-2.464a3.41,3.41,0,1,1,3.3-3.408A3.371,3.371,0,0,1,220.474,640.874Zm8.911,2.272h7.249v-2.432h-4.7v-8.929h-2.544v11.361Zm10.112,0h7.2v-2.432h-4.657v-2.032h3.7v-2.433h-3.7v-2.032H246.7v-2.432h-7.2v11.361Zm13.808,0.192c2.4,0,4.049-1.44,4.065-3.5,0.016-1.712-1.056-2.8-2.7-3.393l-0.8-.288c-1.2-.432-1.76-0.7-1.76-1.312a1.166,1.166,0,0,1,1.376-.864,2.529,2.529,0,0,1,1.969.944l1.664-1.76a4.741,4.741,0,0,0-3.665-1.568c-2.272,0-3.92,1.3-3.92,3.5,0,1.552,1.024,2.657,2.864,3.281l0.8,0.272c1.136,0.384,1.585.784,1.585,1.36a1.153,1.153,0,0,1-1.377.944,2.972,2.972,0,0,1-2.352-1.3l-1.952,1.648A4.981,4.981,0,0,0,253.305,643.338Zm7.1-.192h2.528v-5.088l4.625,5.088h3.264l-5.393-5.9,4.481-5.456h-3.12l-3.857,4.752v-4.752h-2.528v11.361Zm12.48,0h2.544V631.785h-2.544v11.361Zm16.5,0V631.785h-2.56v7.009l-5.521-7.009h-2.193v11.361h2.545v-7.025l5.537,7.025h2.192Zm11.246,2.017a16.207,16.207,0,0,1,0-15.363h-1.12a15.43,15.43,0,0,0,0,15.363h1.12Zm3.264-2.017h1.488v-5.168h1.1l4.369,5.168h1.872l-4.368-5.184a2.965,2.965,0,0,0,2.8-3.041,3.064,3.064,0,0,0-3.392-3.136H303.9v11.361Zm1.488-6.5v-3.488h2.209c1.3,0,2.08.608,2.08,1.76,0,1.136-.784,1.728-2.08,1.728h-2.209Zm8.912,8.514h1.12a15.43,15.43,0,0,0,0-15.363H314.3A16.207,16.207,0,0,1,314.3,645.163Z"/>
  <path id="SHOP_now" data-name="SHOP now" class="cls-1" d="M280.036,614.492a2.943,2.943,0,0,0,2.651,1.409,2.257,2.257,0,0,0,2.483-2.256,2.331,2.331,0,0,0-1.75-2.289l-0.754-.3c-0.765-.3-1.132-0.55-1.132-1.122a1.034,1.034,0,0,1,1.174-.9,1.772,1.772,0,0,1,1.414.726l0.849-.869a2.81,2.81,0,0,0-2.253-1.068,2.2,2.2,0,0,0-2.42,2.2,2.26,2.26,0,0,0,1.76,2.2l0.817,0.308a1.3,1.3,0,0,1,1.059,1.188,1.06,1.06,0,0,1-1.205.968,2.006,2.006,0,0,1-1.729-1Zm8.348,1.277h1.226v-3.356h3.677v3.356h1.226v-7.813h-1.226v3.235H289.61v-3.235h-1.226v7.813Zm17.063-3.906A3.85,3.85,0,1,0,301.6,615.9,3.927,3.927,0,0,0,305.447,611.863Zm-6.454,0a2.61,2.61,0,1,1,2.609,2.794A2.678,2.678,0,0,1,298.993,611.863Zm12.045-3.907h-2.367v7.813H309.9v-2.707h1.142A2.553,2.553,0,1,0,311.038,607.956Zm-0.01,3.9H309.9v-2.685h1.132A1.343,1.343,0,1,1,311.028,611.852Zm16.193,3.917v-7.813h-1.236v5.6l-4.181-5.6h-1.068v7.813h1.226v-5.623l4.19,5.623h1.069Zm10.924-3.906A3.85,3.85,0,1,0,334.3,615.9,3.927,3.927,0,0,0,338.145,611.863Zm-6.454,0a2.61,2.61,0,1,1,2.609,2.794A2.678,2.678,0,0,1,331.691,611.863Zm15.45,3.906h1.131l1.928-7.813h-1.3l-1.362,5.678-2.127-5.81-2.126,5.81-1.362-5.678h-1.289l1.917,7.813h1.132l1.728-4.776Zm-67.44,2.568v-0.99h72.36v0.99H279.7Z"/>
  <path id="SHOP_now-2" data-name="SHOP now" class="cls-1" d="M339.036,638.492a2.943,2.943,0,0,0,2.651,1.409,2.257,2.257,0,0,0,2.483-2.256,2.331,2.331,0,0,0-1.75-2.289l-0.754-.3c-0.765-.3-1.132-0.55-1.132-1.122a1.034,1.034,0,0,1,1.174-.9,1.772,1.772,0,0,1,1.414.726l0.849-.869a2.81,2.81,0,0,0-2.253-1.068,2.2,2.2,0,0,0-2.42,2.2,2.26,2.26,0,0,0,1.76,2.2l0.817,0.308a1.3,1.3,0,0,1,1.059,1.188,1.06,1.06,0,0,1-1.205.968,2.006,2.006,0,0,1-1.729-1Zm8.348,1.277h1.226v-3.356h3.677v3.356h1.226v-7.813h-1.226v3.235H348.61v-3.235h-1.226v7.813Zm17.063-3.906A3.85,3.85,0,1,0,360.6,639.9,3.927,3.927,0,0,0,364.447,635.863Zm-6.454,0a2.61,2.61,0,1,1,2.609,2.794A2.678,2.678,0,0,1,357.993,635.863Zm12.045-3.907h-2.367v7.813H368.9v-2.707h1.142A2.553,2.553,0,1,0,370.038,631.956Zm-0.01,3.9H368.9v-2.685h1.132A1.343,1.343,0,1,1,370.028,635.852Zm16.193,3.917v-7.813h-1.236v5.6l-4.181-5.6h-1.068v7.813h1.226v-5.623l4.19,5.623h1.069Zm10.924-3.906A3.85,3.85,0,1,0,393.3,639.9,3.927,3.927,0,0,0,397.145,635.863Zm-6.454,0a2.61,2.61,0,1,1,2.609,2.794A2.678,2.678,0,0,1,390.691,635.863Zm15.45,3.906h1.131l1.928-7.813h-1.3l-1.362,5.678-2.127-5.81-2.126,5.81-1.362-5.678h-1.289l1.917,7.813h1.132l1.728-4.776Zm-67.44,2.568v-0.99h72.36v0.99H338.7Z"/>
  <g id="Number">
    <path id="_03" data-name="03" class="cls-2" d="M1310.13,632.1v-3.724c0-3.2-2.13-5.466-5.13-5.466s-5.12,2.263-5.12,5.466V632.1c0,3.2,2.13,5.465,5.12,5.465S1310.13,635.3,1310.13,632.1Zm-8.06,0v-3.724c0-2.062,1.21-3.3,2.93-3.3s2.94,1.242,2.94,3.3V632.1c0,2.082-1.21,3.3-2.94,3.3S1302.07,634.182,1302.07,632.1Zm20.31,1.261a3.547,3.547,0,0,0-2.13-3.363,3.632,3.632,0,0,0,1.73-3.084c0.02-2.322-1.79-4-4.42-4a4.548,4.548,0,0,0-4.79,4.585h2.21a2.381,2.381,0,0,1,2.58-2.423,2.028,2.028,0,0,1,2.21,1.982,2.094,2.094,0,0,1-2.32,2.023h-1.12v1.882h1.12c1.63,0,2.72.76,2.72,2.262a2.264,2.264,0,0,1-2.53,2.182,2.721,2.721,0,0,1-2.94-2.5h-2.19a4.81,4.81,0,0,0,5.13,4.664C1320.45,637.565,1322.38,635.864,1322.38,633.361Z"/>
    <path id="_04" data-name="04" class="cls-2" d="M1310.13,687.458v-3.724c0-3.2-2.13-5.465-5.13-5.465s-5.12,2.262-5.12,5.465v3.724c0,3.2,2.13,5.466,5.12,5.466S1310.13,690.662,1310.13,687.458Zm-8.06,0v-3.724c0-2.062,1.21-3.3,2.93-3.3s2.94,1.241,2.94,3.3v3.724c0,2.083-1.21,3.3-2.94,3.3S1302.07,689.541,1302.07,687.458Zm17.29,5.266h2.19V689.16h1.89v-2.042h-1.89v-8.609h-1.95l-7.55,8.869v1.782h7.31v3.564Zm0-5.606h-4.56l4.56-5.326v5.326Z"/>
    <path class="cls-2" d="M1293,658v-1h37v1h-37Z"/>
  </g>
  <g id="X_copy_2" data-name="X copy 2">
    <path id="Rectangle_116_copy_2" data-name="Rectangle 116 copy 2" class="cls-2" d="M1330.01,58.336l-0.94.929L1315.38,45.7,1300.94,60l-0.95-.938,14.44-14.3-13.96-13.832,0.94-.929,13.96,13.832,13.5-13.383,0.95,0.938-13.51,13.383Z"/>
  </g>
  <g id="R_copy_3" data-name="R copy 3">
    <path id="Rectangle_116_copy" data-name="Rectangle 116 copy" class="cls-2" d="M1328.51,362.768l-0.07-.068-27.94,27.9-0.95-.941,27.95-27.9-27.47-27.421,0.93-.932,28.49,28.431Z"/>
  </g>
  <g id="L_copy_3" data-name="L copy 3">
    <path id="Rectangle_116_copy-2" data-name="Rectangle 116 copy" class="cls-2" d="M57.12,334.161L29.782,361.739l26.874,27.11-0.913.921L27.88,361.663l0.913-.921,0.066,0.066L56.2,333.23Z"/>
  </g>
</svg>
