<svg id="copy_copy_2" data-name="copy copy 2" xmlns="http://www.w3.org/2000/svg" width="1360" height="723" viewBox="0 0 1360 723">
  <defs>
    <style>
      .cls-1, .cls-2 {
        fill-rule: evenodd;
      }

      .cls-2 {
        fill: #fff;
      }
    </style>
  </defs>
  <path id="SHOP_now_copy_2" data-name="SHOP now copy 2" class="cls-1" d="M713.036,87.492a2.944,2.944,0,0,0,2.651,1.408,2.257,2.257,0,0,0,2.483-2.256,2.329,2.329,0,0,0-1.75-2.289l-0.754-.3c-0.765-.3-1.132-0.55-1.132-1.122a1.034,1.034,0,0,1,1.174-.9,1.772,1.772,0,0,1,1.414.726l0.849-.869a2.808,2.808,0,0,0-2.253-1.067,2.2,2.2,0,0,0-2.42,2.2,2.259,2.259,0,0,0,1.76,2.2l0.817,0.308a1.3,1.3,0,0,1,1.059,1.188,1.06,1.06,0,0,1-1.2.968,2.006,2.006,0,0,1-1.729-1Zm8.348,1.276h1.226V85.413h3.677v3.356h1.226V80.957h-1.226v3.235H722.61V80.957h-1.226v7.812Zm17.063-3.906A3.85,3.85,0,1,0,734.6,88.9,3.927,3.927,0,0,0,738.447,84.863Zm-6.454,0a2.61,2.61,0,1,1,2.609,2.795A2.679,2.679,0,0,1,731.993,84.863Zm12.045-3.906h-2.367v7.812H742.9V86.062h1.142A2.553,2.553,0,1,0,744.038,80.957Zm-0.01,3.9H742.9V82.167h1.132A1.343,1.343,0,1,1,744.028,84.852Zm16.193,3.917V80.957h-1.236v5.6l-4.181-5.6h-1.068v7.812h1.226V83.146l4.19,5.623h1.069Zm10.924-3.906A3.85,3.85,0,1,0,767.3,88.9,3.927,3.927,0,0,0,771.145,84.863Zm-6.454,0a2.61,2.61,0,1,1,2.609,2.795A2.679,2.679,0,0,1,764.691,84.863Zm15.45,3.906h1.131l1.928-7.812h-1.3l-1.362,5.678-2.127-5.81-2.126,5.81-1.362-5.678h-1.289l1.917,7.812h1.132l1.728-4.775ZM712.7,91.337v-0.99h72.36v0.99H712.7Z"/>
  <path id="Vegan_Suede_Bomber_Jacket_" data-name="Vegan Suede Bomber Jacket " class="cls-1" d="M665.866,42.146h2.288l4.657-11.362h-2.8L667,38.354l-3.024-7.569h-2.769Zm9.439,0h7.2V39.714H677.85V37.682h3.7V35.249h-3.7V33.217h4.656V30.785h-7.2V42.146Zm15.681,0.192a6.279,6.279,0,0,0,4.657-1.68V35.265h-4.705V37.65h2.225v1.68a3.7,3.7,0,0,1-2.209.544,3.411,3.411,0,1,1-.16-6.817,3.773,3.773,0,0,1,2.865,1.216l1.792-1.744a6.044,6.044,0,0,0-4.657-1.936,5.8,5.8,0,0,0-5.985,5.873A5.9,5.9,0,0,0,690.986,42.338Zm6.431-.192h2.657l1.008-2.4h4.7l1.009,2.4h2.656l-4.865-11.362h-2.3Zm4.593-4.609,1.424-3.425,1.424,3.425H702.01Zm20.177,4.609V30.785h-2.56v7.009l-5.521-7.009h-2.193V42.146h2.545V35.121L720,42.146h2.192Zm11.871,0.192c2.4,0,4.048-1.44,4.064-3.5,0.016-1.712-1.056-2.8-2.7-3.392l-0.8-.288c-1.2-.432-1.761-0.7-1.761-1.312a1.167,1.167,0,0,1,1.377-.864,2.527,2.527,0,0,1,1.968.944l1.664-1.76a4.74,4.74,0,0,0-3.664-1.568c-2.273,0-3.921,1.3-3.921,3.5,0,1.552,1.024,2.656,2.864,3.28l0.8,0.272c1.136,0.384,1.584.784,1.584,1.36a1.152,1.152,0,0,1-1.376.944,2.972,2.972,0,0,1-2.353-1.3l-1.952,1.648A4.982,4.982,0,0,0,734.058,42.338Zm11.648,0a4.456,4.456,0,0,0,4.672-4.689V30.785h-2.544v6.9a2.129,2.129,0,1,1-4.257,0v-6.9h-2.544V37.65A4.447,4.447,0,0,0,745.706,42.338Zm8.223-.192h7.2V39.714h-4.657V37.682h3.7V35.249h-3.7V33.217h4.657V30.785h-7.2V42.146Zm10.416,0h3.872a5.682,5.682,0,1,0,0-11.362h-3.872V42.146Zm2.544-2.336V33.121h1.328a3.347,3.347,0,0,1,0,6.689h-1.328Zm10.176,2.336h7.2V39.714h-4.657V37.682h3.7V35.249h-3.7V33.217h4.657V30.785h-7.2V42.146Zm-137.12,24h4.993a3.359,3.359,0,0,0,3.456-3.344,2.969,2.969,0,0,0-1.616-2.688,2.674,2.674,0,0,0,.816-1.952,3.377,3.377,0,0,0-3.376-3.376h-4.273V66.146Zm2.544-6.769V57.105h1.441a1.155,1.155,0,0,1,1.184,1.152,1.139,1.139,0,0,1-1.184,1.12h-1.441Zm0,4.433V61.538h2.225a1.156,1.156,0,0,1,1.2,1.136,1.142,1.142,0,0,1-1.184,1.136h-2.241Zm14.129,2.528a5.873,5.873,0,1,0-5.873-5.873A5.887,5.887,0,0,0,656.618,66.338Zm0-2.464a3.41,3.41,0,1,1,3.3-3.409A3.371,3.371,0,0,1,656.618,63.874ZM671.4,63.73l3.312-4.593v7.009h2.56V54.785h-2.32l-3.552,4.9-3.553-4.9h-2.32V66.146h2.544V59.137Zm9.551,2.416h4.992A3.359,3.359,0,0,0,689.4,62.8a2.969,2.969,0,0,0-1.616-2.688,2.674,2.674,0,0,0,.816-1.952,3.378,3.378,0,0,0-3.377-3.376h-4.272V66.146Zm2.544-6.769V57.105h1.44a1.155,1.155,0,0,1,1.184,1.152,1.139,1.139,0,0,1-1.184,1.12H683.5Zm0,4.433V61.538h2.224a1.156,1.156,0,0,1,1.2,1.136,1.142,1.142,0,0,1-1.184,1.136H683.5Zm8.9,2.336h7.2V63.714h-4.656V61.682h3.7V59.249h-3.7V57.217h4.656V54.785h-7.2V66.146Zm10.416,0h2.545V61.458h0.416l3.776,4.689H712.6l-4.017-5.009a2.933,2.933,0,0,0,2.225-2.928,3.355,3.355,0,0,0-3.521-3.425h-4.481V66.146Zm2.545-6.849V57.121h1.632a1.132,1.132,0,0,1,1.3,1.088,1.15,1.15,0,0,1-1.3,1.088h-1.632Zm16.192,7.041c1.952,0,3.712-.976,3.712-3.3V54.785h-2.544v8.1a1.169,1.169,0,0,1-2.336-.064h-2.513A3.369,3.369,0,0,0,721.545,66.338Zm5.839-.192h2.657l1.008-2.4h4.7l1.009,2.4h2.656l-4.865-11.362h-2.3Zm4.593-4.609,1.424-3.425,1.424,3.425h-2.848Zm14.624,4.8a5.873,5.873,0,0,0,5.313-3.1l-2.24-1.216a3.409,3.409,0,1,1,0-3.1l2.24-1.216A5.923,5.923,0,1,0,746.6,66.338Zm8.079-.192h2.529V61.058l4.624,5.089H765.1l-5.393-5.9,4.481-5.457h-3.121l-3.856,4.753V54.785H754.68V66.146Zm12.48,0h7.2V63.714h-4.656V61.682h3.7V59.249h-3.7V57.217h4.656V54.785h-7.2V66.146Zm12.465,0h2.56V57.217h2.928V54.785h-8.385v2.432h2.9v8.929Z"/>
  <g id="Number_copy_2" data-name="Number copy 2">
    <path id="_04" data-name="04" class="cls-2" d="M1310.13,632.1v-3.724c0-3.2-2.13-5.466-5.13-5.466s-5.12,2.263-5.12,5.466V632.1c0,3.2,2.13,5.465,5.12,5.465S1310.13,635.3,1310.13,632.1Zm-8.06,0v-3.724c0-2.062,1.21-3.3,2.93-3.3s2.94,1.242,2.94,3.3V632.1c0,2.082-1.21,3.3-2.94,3.3S1302.07,634.182,1302.07,632.1Zm17.29,5.265h2.19V633.8h1.89v-2.042h-1.89V623.15h-1.95l-7.55,8.87V633.8h7.31v3.564Zm0-5.606h-4.56l4.56-5.325v5.325Z"/>
    <path id="_04-2" data-name="04" class="cls-2" d="M1310.13,687.458v-3.724c0-3.2-2.13-5.465-5.13-5.465s-5.12,2.262-5.12,5.465v3.724c0,3.2,2.13,5.466,5.12,5.466S1310.13,690.662,1310.13,687.458Zm-8.06,0v-3.724c0-2.062,1.21-3.3,2.93-3.3s2.94,1.241,2.94,3.3v3.724c0,2.083-1.21,3.3-2.94,3.3S1302.07,689.541,1302.07,687.458Zm17.29,5.266h2.19V689.16h1.89v-2.042h-1.89v-8.609h-1.95l-7.55,8.869v1.782h7.31v3.564Zm0-5.606h-4.56l4.56-5.326v5.326Z"/>
    <path class="cls-2" d="M1293,658v-1h37v1h-37Z"/>
  </g>
  <g id="X_copy_3" data-name="X copy 3">
    <path id="Rectangle_116_copy_2" data-name="Rectangle 116 copy 2" class="cls-2" d="M1330.01,58.336l-0.94.929L1315.38,45.7,1300.94,60l-0.95-.938,14.44-14.3-13.96-13.832,0.94-.929,13.96,13.832,13.5-13.383,0.95,0.938-13.51,13.383Z"/>
  </g>
  <g id="L_copy_4" data-name="L copy 4">
    <path id="Rectangle_116_copy" data-name="Rectangle 116 copy" class="cls-1" d="M57.12,334.161L29.782,361.739l26.874,27.11-0.913.921L27.88,361.663l0.913-.921,0.066,0.066L56.2,333.23Z"/>
  </g>
</svg>
