<svg id="copy_copy_2" data-name="copy copy 2" xmlns="http://www.w3.org/2000/svg" width="1360" height="723" viewBox="0 0 1360 723">
  <defs>
    <style>
      .cls-1, .cls-2 {
        fill-rule: evenodd;
      }

      .cls-2 {
        fill: #fff;
      }
    </style>
  </defs>
  <path id="SHOP_now" data-name="SHOP now" class="cls-1" d="M1050.04,668.492a2.934,2.934,0,0,0,2.65,1.409,2.258,2.258,0,0,0,2.48-2.256,2.331,2.331,0,0,0-1.75-2.289l-0.75-.3c-0.77-.3-1.14-0.55-1.14-1.122a1.039,1.039,0,0,1,1.18-.9,1.763,1.763,0,0,1,1.41.726l0.85-.869a2.8,2.8,0,0,0-2.25-1.068,2.2,2.2,0,0,0-2.42,2.2,2.253,2.253,0,0,0,1.76,2.2l0.82,0.308a1.293,1.293,0,0,1,1.05,1.188,1.055,1.055,0,0,1-1.2.968,2.013,2.013,0,0,1-1.73-1Zm8.34,1.277h1.23v-3.356h3.68v3.356h1.22v-7.813h-1.22v3.235h-3.68v-3.235h-1.23v7.813Zm17.07-3.906a3.85,3.85,0,1,0-3.85,4.038A3.93,3.93,0,0,0,1075.45,665.863Zm-6.46,0a2.611,2.611,0,1,1,2.61,2.794A2.677,2.677,0,0,1,1068.99,665.863Zm12.05-3.907h-2.37v7.813h1.23v-2.707h1.14A2.553,2.553,0,1,0,1081.04,661.956Zm-0.01,3.9h-1.13v-2.685h1.13A1.343,1.343,0,1,1,1081.03,665.852Zm16.19,3.917v-7.813h-1.24v5.6l-4.18-5.6h-1.06v7.813h1.22v-5.623l4.19,5.623h1.07Zm10.92-3.906a3.85,3.85,0,1,0-3.84,4.038A3.921,3.921,0,0,0,1108.14,665.863Zm-6.45,0a2.611,2.611,0,1,1,2.61,2.794A2.677,2.677,0,0,1,1101.69,665.863Zm15.45,3.906h1.13l1.93-7.813h-1.3l-1.36,5.678-2.13-5.81-2.12,5.81-1.37-5.678h-1.29l1.92,7.813h1.13l1.73-4.776Zm-67.44,2.568v-0.99h72.36v0.99H1049.7Z"/>
  <path id="SHOP_now_copy_3" data-name="SHOP now copy 3" class="cls-2" d="M21.036,698.492a2.942,2.942,0,0,0,2.651,1.409,2.257,2.257,0,0,0,2.483-2.256,2.33,2.33,0,0,0-1.75-2.289l-0.754-.3c-0.765-.3-1.131-0.55-1.131-1.122a1.033,1.033,0,0,1,1.173-.9,1.772,1.772,0,0,1,1.414.726l0.849-.869a2.808,2.808,0,0,0-2.253-1.068,2.2,2.2,0,0,0-2.42,2.2,2.26,2.26,0,0,0,1.76,2.2l0.817,0.308a1.3,1.3,0,0,1,1.058,1.188,1.059,1.059,0,0,1-1.2.968,2,2,0,0,1-1.729-1Zm8.348,1.277H30.61v-3.356h3.677v3.356h1.226v-7.813H34.287v3.235H30.61v-3.235H29.384v7.813Zm17.063-3.906A3.849,3.849,0,1,0,42.6,699.9,3.927,3.927,0,0,0,46.447,695.863Zm-6.454,0a2.61,2.61,0,1,1,2.609,2.794A2.678,2.678,0,0,1,39.994,695.863Zm12.045-3.907H49.671v7.813H50.9v-2.707h1.142A2.553,2.553,0,1,0,52.038,691.956Zm-0.01,3.9H50.9v-2.685h1.132A1.343,1.343,0,1,1,52.028,695.852Zm16.193,3.917v-7.813H66.985v5.6l-4.18-5.6H61.736v7.813h1.226v-5.623l4.191,5.623h1.069Zm10.924-3.906A3.85,3.85,0,1,0,75.3,699.9,3.927,3.927,0,0,0,79.145,695.863Zm-6.454,0a2.61,2.61,0,1,1,2.609,2.794A2.678,2.678,0,0,1,72.691,695.863Zm15.45,3.906h1.131l1.928-7.813H89.9l-1.362,5.678-2.127-5.81-2.127,5.81-1.362-5.678H81.635l1.917,7.813h1.132l1.729-4.776ZM20.7,702.337v-0.99h72.36v0.99H20.7Z"/>
  <path id="Water-Resistant_Quilted_Bomber_Jacket" data-name="Water-Resistant  Quilted Bomber Jacket" class="cls-2" d="M29.532,652.888h2.416l2.64-11.361h-2.72l-1.552,7.2-3.2-7.393-3.184,7.393-1.552-7.2h-2.72l2.624,11.361H24.7l2.416-5.569Zm5.887,0h2.656l1.008-2.4h4.7l1.008,2.4h2.656l-4.865-11.361h-2.3Zm4.593-4.608,1.424-3.425,1.424,3.425H40.011Zm10.816,4.608h2.56v-8.929h2.928v-2.432H47.931v2.432h2.9v8.929Zm8.32,0h7.2v-2.432H61.691v-2.032h3.7v-2.433h-3.7v-2.032h4.657v-2.432h-7.2v11.361Zm10.416,0h2.544V648.2h0.416l3.777,4.688h3.056l-4.017-5.008a2.934,2.934,0,0,0,2.224-2.929,3.354,3.354,0,0,0-3.521-3.424H69.563v11.361Zm2.544-6.849v-2.176h1.632a1.132,1.132,0,0,1,1.3,1.088,1.15,1.15,0,0,1-1.3,1.088H72.107Zm8.543,2.321h4.7v-2.305h-4.7v2.305Zm8.112,4.528h2.544V648.2h0.416l3.776,4.688h3.056l-4.016-5.008a2.934,2.934,0,0,0,2.224-2.929,3.354,3.354,0,0,0-3.52-3.424H88.762v11.361Zm2.544-6.849v-2.176h1.632a1.132,1.132,0,0,1,1.3,1.088,1.15,1.15,0,0,1-1.3,1.088H91.307Zm9.327,6.849h7.2v-2.432h-4.657v-2.032h3.7v-2.433h-3.7v-2.032h4.657v-2.432h-7.2v11.361Zm13.809,0.192c2.4,0,4.048-1.44,4.064-3.5,0.016-1.712-1.056-2.8-2.7-3.393L115,645.9c-1.2-.432-1.761-0.7-1.761-1.312a1.167,1.167,0,0,1,1.377-.864,2.527,2.527,0,0,1,1.968.944l1.664-1.76a4.74,4.74,0,0,0-3.664-1.568c-2.273,0-3.921,1.3-3.921,3.5,0,1.552,1.024,2.656,2.864,3.281l0.8,0.272c1.137,0.384,1.585.784,1.585,1.36a1.152,1.152,0,0,1-1.376.944,2.972,2.972,0,0,1-2.353-1.3l-1.952,1.648A4.982,4.982,0,0,0,114.443,653.08Zm7.1-.192h2.544V641.527h-2.544v11.361Zm9.616,0.192c2.4,0,4.049-1.44,4.065-3.5,0.016-1.712-1.056-2.8-2.705-3.393l-0.8-.288c-1.2-.432-1.76-0.7-1.76-1.312a1.166,1.166,0,0,1,1.376-.864,2.527,2.527,0,0,1,1.968.944l1.665-1.76a4.742,4.742,0,0,0-3.665-1.568c-2.272,0-3.92,1.3-3.92,3.5,0,1.552,1.024,2.656,2.864,3.281l0.8,0.272c1.136,0.384,1.584.784,1.584,1.36a1.152,1.152,0,0,1-1.376.944,2.972,2.972,0,0,1-2.352-1.3l-1.952,1.648A4.981,4.981,0,0,0,131.162,653.08Zm8.992-.192h2.56v-8.929h2.929v-2.432h-8.386v2.432h2.9v8.929Zm5.951,0h2.657l1.008-2.4h4.7l1.008,2.4h2.656l-4.865-11.361h-2.3Zm4.593-4.608,1.424-3.425,1.424,3.425H150.7Zm20.177,4.608V641.527h-2.56v7.009l-5.521-7.009H160.6v11.361h2.544v-7.025l5.537,7.025h2.192Zm5.727,0h2.56v-8.929h2.929v-2.432h-8.386v2.432h2.9v8.929ZM25.819,677.08a5.886,5.886,0,0,0,3.52-1.168l1.2,0.976h3.6l-3.28-2.672a5.815,5.815,0,0,0,.832-3.009A5.873,5.873,0,1,0,25.819,677.08Zm0-2.464a3.41,3.41,0,1,1,3.3-3.409,3.244,3.244,0,0,1-.288,1.361l-1.712-1.393-1.44,1.761,1.616,1.312A3.044,3.044,0,0,1,25.819,674.616Zm14.032,2.464a4.456,4.456,0,0,0,4.673-4.688v-6.865H41.98v6.9a2.129,2.129,0,1,1-4.257,0v-6.9H35.179v6.865A4.447,4.447,0,0,0,39.851,677.08Zm8.223-.192h2.544V665.527H48.074v11.361Zm6.224,0h7.249v-2.432h-4.7v-8.929H54.3v11.361Zm10.624,0h2.56v-8.929h2.928v-2.432H62.026v2.432h2.9v8.929Zm8.32,0h7.2v-2.432H75.786v-2.032h3.7v-2.433h-3.7v-2.032h4.657v-2.432h-7.2v11.361Zm10.416,0h3.873a5.682,5.682,0,1,0,0-11.361H83.658v11.361Zm2.544-2.336v-6.689h1.328a3.347,3.347,0,0,1,0,6.689H86.2Zm14.976,2.336h4.992a3.359,3.359,0,0,0,3.457-3.344,2.97,2.97,0,0,0-1.616-2.689,2.674,2.674,0,0,0,.816-1.952,3.377,3.377,0,0,0-3.377-3.376h-4.272v11.361Zm2.544-6.769v-2.272h1.44A1.155,1.155,0,0,1,106.346,669a1.139,1.139,0,0,1-1.184,1.12h-1.44Zm0,4.433V672.28h2.224a1.157,1.157,0,0,1,1.2,1.136,1.143,1.143,0,0,1-1.185,1.136h-2.24Zm14.128,2.528a5.873,5.873,0,1,0-5.872-5.873A5.887,5.887,0,0,0,117.85,677.08Zm0-2.464a3.41,3.41,0,1,1,3.3-3.409A3.371,3.371,0,0,1,117.85,674.616Zm14.784-.144,3.313-4.593v7.009h2.56V665.527h-2.32l-3.553,4.9-3.552-4.9h-2.321v11.361h2.545v-7.009Zm9.551,2.416h4.993a3.359,3.359,0,0,0,3.456-3.344,2.97,2.97,0,0,0-1.616-2.689,2.674,2.674,0,0,0,.816-1.952,3.377,3.377,0,0,0-3.376-3.376h-4.273v11.361Zm2.545-6.769v-2.272h1.44A1.155,1.155,0,0,1,147.354,669a1.139,1.139,0,0,1-1.184,1.12h-1.44Zm0,4.433V672.28h2.224a1.156,1.156,0,0,1,1.2,1.136,1.142,1.142,0,0,1-1.184,1.136h-2.24Zm8.9,2.336h7.2v-2.432h-4.657v-2.032h3.7v-2.433h-3.7v-2.032h4.657v-2.432h-7.2v11.361Zm10.416,0h2.544V672.2H167l3.777,4.688h3.056l-4.016-5.008a2.934,2.934,0,0,0,2.224-2.929,3.354,3.354,0,0,0-3.52-3.424h-4.481v11.361Zm2.544-6.849v-2.176h1.633a1.132,1.132,0,0,1,1.3,1.088,1.15,1.15,0,0,1-1.3,1.088h-1.633Zm16.192,7.041c1.953,0,3.713-.976,3.713-3.3v-8.257h-2.544v8.1a1.17,1.17,0,0,1-2.337-.064H179.1A3.368,3.368,0,0,0,182.777,677.08Zm5.84-.192h2.656l1.008-2.4h4.7l1.008,2.4h2.657l-4.865-11.361h-2.3Zm4.592-4.608,1.425-3.425,1.424,3.425h-2.849Zm14.625,4.8a5.875,5.875,0,0,0,5.313-3.1l-2.241-1.216a3.409,3.409,0,1,1,0-3.105l2.241-1.216A5.923,5.923,0,1,0,207.834,677.08Zm8.079-.192h2.528V671.8l4.625,5.088h3.264l-5.392-5.905,4.48-5.456H222.3l-3.857,4.752v-4.752h-2.528v11.361Zm12.48,0h7.2v-2.432h-4.657v-2.032h3.7v-2.433h-3.7v-2.032h4.657v-2.432h-7.2v11.361Zm12.464,0h2.561v-8.929h2.928v-2.432h-8.385v2.432h2.9v8.929Z"/>
  <path id="BR_X_Kevin_Love_Water-Resistant_Hooded_Jacket" data-name="BR X Kevin Love | Water-Resistant Hooded Jacket" class="cls-1" d="M545.587,673.146h4.992a3.359,3.359,0,0,0,3.457-3.344,2.971,2.971,0,0,0-1.616-2.689,2.674,2.674,0,0,0,.816-1.952,3.377,3.377,0,0,0-3.377-3.376h-4.272v11.361Zm2.544-6.769v-2.272h1.44a1.155,1.155,0,0,1,1.184,1.152,1.139,1.139,0,0,1-1.184,1.12h-1.44Zm0,4.433v-2.272h2.224a1.157,1.157,0,0,1,1.2,1.136,1.143,1.143,0,0,1-1.185,1.136h-2.24Zm8.9,2.336h2.544v-4.688h0.416l3.777,4.688h3.056l-4.017-5.008a2.933,2.933,0,0,0,2.225-2.929,3.354,3.354,0,0,0-3.521-3.424h-4.48v11.361Zm2.544-6.849v-2.176H561.2a1.132,1.132,0,0,1,1.3,1.088,1.15,1.15,0,0,1-1.3,1.088h-1.632Zm20.737,6.849h2.96l-4.241-5.744,3.985-5.617h-2.945l-2.576,3.648-2.576-3.648H571.97l4,5.617-4.257,5.744h2.977l2.816-3.76Zm9.774,0h2.529v-5.088l4.624,5.088H600.5l-5.393-5.9,4.481-5.456h-3.121l-3.856,4.752v-4.752h-2.529v11.361Zm12.48,0h7.2v-2.432h-4.656v-2.032h3.7v-2.433h-3.7v-2.032h4.656v-2.432h-7.2v11.361Zm13.889,0h2.288l4.657-11.361h-2.8l-3.008,7.569-3.024-7.569h-2.769Zm9.439,0h2.544V661.785H625.89v11.361Zm16.5,0V661.785h-2.56v7.009l-5.521-7.009h-2.192v11.361h2.544v-7.025l5.537,7.025h2.192Zm8.479,0h7.249v-2.432H653.41v-8.929h-2.544v11.361Zm14.832,0.192a5.873,5.873,0,1,0-5.873-5.872A5.886,5.886,0,0,0,665.7,673.338Zm0-2.464a3.41,3.41,0,1,1,3.3-3.408A3.371,3.371,0,0,1,665.7,670.874Zm11.888,2.272h2.288l4.657-11.361h-2.8l-3.008,7.569-3.024-7.569h-2.769Zm9.439,0h7.2v-2.432H689.57v-2.032h3.7v-2.433h-3.7v-2.032h4.656v-2.432h-7.2v11.361Zm15.216,0.88h2.016V660.905h-2.016v13.121Zm19.153-.88h2.416l2.641-11.361H723.73l-1.552,7.2-3.2-7.393-3.185,7.393-1.552-7.2h-2.72l2.624,11.361h2.416l2.417-5.568Zm5.887,0h2.656l1.008-2.4h4.7l1.008,2.4h2.656l-4.864-11.361h-2.305Zm4.592-4.608,1.424-3.425,1.425,3.425h-2.849Zm10.816,4.608h2.56v-8.929h2.929v-2.432h-8.385v2.432h2.9v8.929Zm8.32,0h7.2v-2.432h-4.657v-2.032h3.7v-2.433h-3.7v-2.032h4.657v-2.432h-7.2v11.361Zm10.416,0h2.544v-4.688h0.416l3.777,4.688h3.056l-4.017-5.008a2.933,2.933,0,0,0,2.225-2.929,3.354,3.354,0,0,0-3.521-3.424h-4.48v11.361Zm2.544-6.849v-2.176H765.6a1.132,1.132,0,0,1,1.3,1.088,1.15,1.15,0,0,1-1.3,1.088h-1.632Zm8.543,2.321h4.705v-2.305h-4.705v2.305Zm8.112,4.528h2.545v-4.688h0.416l3.776,4.688h3.057l-4.017-5.008a2.933,2.933,0,0,0,2.224-2.929,3.354,3.354,0,0,0-3.52-3.424h-4.481v11.361Zm2.545-6.849v-2.176H784.8a1.132,1.132,0,0,1,1.3,1.088,1.15,1.15,0,0,1-1.3,1.088h-1.632Zm9.327,6.849h7.2v-2.432H795.04v-2.032h3.7v-2.433h-3.7v-2.032H799.7v-2.432h-7.2v11.361Zm13.809,0.192c2.4,0,4.048-1.44,4.064-3.5,0.016-1.712-1.056-2.8-2.7-3.393l-0.8-.288c-1.2-.432-1.761-0.7-1.761-1.312a1.167,1.167,0,0,1,1.377-.864,2.527,2.527,0,0,1,1.968.944l1.664-1.76a4.74,4.74,0,0,0-3.664-1.568c-2.273,0-3.921,1.3-3.921,3.5,0,1.552,1.024,2.657,2.864,3.281l0.8,0.272c1.136,0.384,1.584.784,1.584,1.36a1.152,1.152,0,0,1-1.376.944,2.972,2.972,0,0,1-2.353-1.3l-1.952,1.648A4.982,4.982,0,0,0,806.305,673.338Zm7.1-.192h2.544V661.785h-2.544v11.361Zm9.616,0.192c2.4,0,4.049-1.44,4.065-3.5,0.016-1.712-1.056-2.8-2.705-3.393l-0.8-.288c-1.2-.432-1.76-0.7-1.76-1.312a1.166,1.166,0,0,1,1.376-.864,2.527,2.527,0,0,1,1.968.944l1.665-1.76a4.742,4.742,0,0,0-3.665-1.568c-2.272,0-3.92,1.3-3.92,3.5,0,1.552,1.024,2.657,2.864,3.281l0.8,0.272c1.136,0.384,1.584.784,1.584,1.36a1.152,1.152,0,0,1-1.376.944,2.972,2.972,0,0,1-2.352-1.3l-1.952,1.648A4.981,4.981,0,0,0,823.024,673.338Zm8.992-.192h2.56v-8.929h2.929v-2.432h-8.386v2.432h2.9v8.929Zm5.951,0h2.657l1.008-2.4h4.705l1.008,2.4H850l-4.865-11.361h-2.3Zm4.593-4.608,1.424-3.425,1.424,3.425H842.56Zm20.177,4.608V661.785h-2.56v7.009l-5.521-7.009h-2.192v11.361h2.544v-7.025l5.537,7.025h2.192Zm5.727,0h2.56v-8.929h2.929v-2.432h-8.386v2.432h2.9v8.929Zm12.655,0h2.545v-4.5h4.576v4.5h2.545V661.785H888.24v4.448h-4.576v-4.448h-2.545v11.361Zm18.577,0.192a5.873,5.873,0,1,0-5.873-5.872A5.887,5.887,0,0,0,899.7,673.338Zm0-2.464a3.41,3.41,0,1,1,3.3-3.408A3.371,3.371,0,0,1,899.7,670.874Zm14.144,2.464a5.873,5.873,0,1,0-5.873-5.872A5.887,5.887,0,0,0,913.84,673.338Zm0-2.464a3.41,3.41,0,1,1,3.3-3.408A3.371,3.371,0,0,1,913.84,670.874Zm8.911,2.272h3.872a5.682,5.682,0,1,0,0-11.361h-3.872v11.361Zm2.544-2.336v-6.689h1.328a3.347,3.347,0,0,1,0,6.689H925.3Zm10.176,2.336h7.2v-2.432h-4.657v-2.032h3.7v-2.433h-3.7v-2.032h4.657v-2.432h-7.2v11.361Zm10.416,0h3.872a5.682,5.682,0,1,0,0-11.361h-3.872v11.361Zm2.544-2.336v-6.689h1.328a3.347,3.347,0,0,1,0,6.689h-1.328Zm17.36,2.528c1.952,0,3.713-.976,3.713-3.3v-8.257h-2.545v8.1a1.169,1.169,0,0,1-2.336-.064h-2.512A3.368,3.368,0,0,0,965.791,673.338Zm5.839-.192h2.657l1.008-2.4H980l1.008,2.4h2.656L978.8,661.785h-2.3Zm4.593-4.608,1.424-3.425,1.425,3.425h-2.849Zm14.624,4.8a5.872,5.872,0,0,0,5.313-3.1l-2.24-1.216a3.409,3.409,0,1,1,0-3.105l2.24-1.216A5.923,5.923,0,1,0,990.847,673.338Zm8.08-.192h2.523v-5.088l4.63,5.088h3.26l-5.39-5.9,4.48-5.456h-3.12l-3.86,4.752v-4.752h-2.523v11.361Zm12.483,0h7.2v-2.432h-4.66v-2.032h3.7v-2.433h-3.7v-2.032h4.66v-2.432h-7.2v11.361Zm12.46,0h2.56v-8.929h2.93v-2.432h-8.39v2.432h2.9v8.929Z"/>
  <path id="Limited_availability._" data-name="Limited availability. " class="cls-1" d="M545.515,691.146h5.234V690.09h-4.118v-7.467h-1.116v8.523Zm8.616-8.343a0.725,0.725,0,0,0-.72-0.732,0.745,0.745,0,0,0-.744.732,0.738,0.738,0,0,0,.744.732A0.717,0.717,0,0,0,554.131,682.8Zm-1.248,8.343h1.032v-6h-1.032v6Zm3.948,0h1.032v-2.977c0-1.356.684-2.2,1.657-2.2,0.78,0,1.176.673,1.176,1.645v3.529h1.033v-2.977c0-1.356.672-2.2,1.644-2.2,0.781,0,1.189.673,1.189,1.645v3.529h1.032v-3.685c0-1.465-.792-2.437-2.1-2.437a2.076,2.076,0,0,0-1.968,1.284,1.887,1.887,0,0,0-1.849-1.284,2.018,2.018,0,0,0-1.813,1.044v-0.924h-1.032v6Zm12.828-8.343a0.725,0.725,0,0,0-.72-0.732,0.745,0.745,0,0,0-.744.732,0.738,0.738,0,0,0,.744.732A0.717,0.717,0,0,0,569.659,682.8Zm-1.248,8.343h1.032v-6h-1.032v6Zm7.2-.084v-0.924a2.281,2.281,0,0,1-.732.12,0.864,0.864,0,0,1-1-1.02v-3.146h1.729v-0.948h-1.729v-1.669h-1.032v1.669h-1.273v0.948h1.273v3.278a1.689,1.689,0,0,0,1.837,1.836A2.871,2.871,0,0,0,575.612,691.062Zm1.727-2.917a3.164,3.164,0,0,0,5.81,1.693l-0.816-.564a2.126,2.126,0,0,1-3.95-.925H583.3a2.928,2.928,0,0,0,.012-0.312,2.8,2.8,0,0,0-2.857-3.013A3.041,3.041,0,0,0,577.339,688.145Zm3.085-2.209a1.8,1.8,0,0,1,1.837,1.573h-3.806A1.962,1.962,0,0,1,580.424,685.936Zm4.846,2.209a3,3,0,0,0,2.942,3.121,2.631,2.631,0,0,0,2.112-1.044v0.924h1.033v-9h-1.033v3.925a2.631,2.631,0,0,0-2.112-1.044A3,3,0,0,0,585.27,688.145Zm5.139,0a2.051,2.051,0,1,1-2.041-2.173A2.05,2.05,0,0,1,590.409,688.145Zm7.269,0a3,3,0,0,0,2.941,3.121,2.632,2.632,0,0,0,2.113-1.044v0.924h1.033v-6h-1.033v0.924a2.632,2.632,0,0,0-2.113-1.044A3,3,0,0,0,597.678,688.145Zm5.138,0a2.05,2.05,0,1,1-2.041-2.173A2.049,2.049,0,0,1,602.816,688.145Zm5.723,3H609.4l2.773-6h-1.152l-2.053,4.538-2.053-4.538h-1.152Zm5.051-3a3,3,0,0,0,2.941,3.121,2.632,2.632,0,0,0,2.113-1.044v0.924h1.032v-6h-1.032v0.924a2.632,2.632,0,0,0-2.113-1.044A3,3,0,0,0,613.59,688.145Zm5.138,0a2.051,2.051,0,1,1-2.041-2.173A2.049,2.049,0,0,1,618.728,688.145Zm5.1-5.342a0.726,0.726,0,0,0-.721-0.732,0.745,0.745,0,0,0-.744.732,0.738,0.738,0,0,0,.744.732A0.718,0.718,0,0,0,623.827,682.8Zm-1.249,8.343h1.032v-6h-1.032v6Zm3.948,0h1.032v-9h-1.032v9Zm3.48-3a3,3,0,0,0,2.941,3.121,2.633,2.633,0,0,0,2.113-1.044v0.924h1.032v-6H635.06v0.924a2.633,2.633,0,0,0-2.113-1.044A3,3,0,0,0,630.006,688.145Zm5.138,0a2.051,2.051,0,1,1-2.041-2.173A2.05,2.05,0,0,1,635.144,688.145Zm4.882,2.077a2.633,2.633,0,0,0,2.113,1.044,3.127,3.127,0,0,0,0-6.242,2.633,2.633,0,0,0-2.113,1.044v-3.925h-1.032v9h1.032v-0.924Zm4-2.077a2.045,2.045,0,1,1-2.041-2.173A2.05,2.05,0,0,1,644.024,688.145Zm4.738-5.342a0.725,0.725,0,0,0-.72-0.732,0.745,0.745,0,0,0-.744.732,0.738,0.738,0,0,0,.744.732A0.717,0.717,0,0,0,648.762,682.8Zm-1.248,8.343h1.032v-6h-1.032v6Zm3.948,0h1.032v-9h-1.032v9Zm5.2-8.343a0.725,0.725,0,0,0-.72-0.732,0.746,0.746,0,0,0-.745.732,0.738,0.738,0,0,0,.745.732A0.717,0.717,0,0,0,656.658,682.8Zm-1.249,8.343h1.033v-6h-1.033v6Zm7.2-.084v-0.924a2.287,2.287,0,0,1-.733.12,0.864,0.864,0,0,1-1-1.02v-3.146h1.729v-0.948h-1.729v-1.669H659.85v1.669h-1.273v0.948h1.273v3.278a1.689,1.689,0,0,0,1.836,1.836A2.878,2.878,0,0,0,662.611,691.062Zm3.875,2.593,3.938-8.511h-1.153l-2.053,4.55-2.065-4.55h-1.14l2.629,5.69-1.309,2.821h1.153Zm6.768-3.313a0.889,0.889,0,1,0-.888.9A0.9,0.9,0,0,0,673.254,690.342Z"/>
  <g id="Number_copy_7" data-name="Number copy 7">
    <path id="_03" data-name="03" class="cls-1" d="M1310.13,632.1v-3.724c0-3.2-2.13-5.466-5.13-5.466s-5.12,2.263-5.12,5.466V632.1c0,3.2,2.13,5.465,5.12,5.465S1310.13,635.3,1310.13,632.1Zm-8.06,0v-3.724c0-2.062,1.21-3.3,2.93-3.3s2.94,1.242,2.94,3.3V632.1c0,2.082-1.21,3.3-2.94,3.3S1302.07,634.182,1302.07,632.1Zm20.31,1.261a3.547,3.547,0,0,0-2.13-3.363,3.632,3.632,0,0,0,1.73-3.084c0.02-2.322-1.79-4-4.42-4a4.548,4.548,0,0,0-4.79,4.585h2.21a2.381,2.381,0,0,1,2.58-2.423,2.028,2.028,0,0,1,2.21,1.982,2.094,2.094,0,0,1-2.32,2.023h-1.12v1.882h1.12c1.63,0,2.72.76,2.72,2.262a2.264,2.264,0,0,1-2.53,2.182,2.721,2.721,0,0,1-2.94-2.5h-2.19a4.81,4.81,0,0,0,5.13,4.664C1320.45,637.565,1322.38,635.864,1322.38,633.361Z"/>
    <path id="_03-2" data-name="03" class="cls-1" d="M1310.13,687.458v-3.724c0-3.2-2.13-5.465-5.13-5.465s-5.12,2.262-5.12,5.465v3.724c0,3.2,2.13,5.466,5.12,5.466S1310.13,690.662,1310.13,687.458Zm-8.06,0v-3.724c0-2.062,1.21-3.3,2.93-3.3s2.94,1.241,2.94,3.3v3.724c0,2.083-1.21,3.3-2.94,3.3S1302.07,689.541,1302.07,687.458Zm20.31,1.262a3.549,3.549,0,0,0-2.13-3.364,3.631,3.631,0,0,0,1.73-3.083c0.02-2.322-1.79-4-4.42-4a4.548,4.548,0,0,0-4.79,4.585h2.21a2.381,2.381,0,0,1,2.58-2.423,2.028,2.028,0,0,1,2.21,1.982,2.094,2.094,0,0,1-2.32,2.022h-1.12v1.882h1.12c1.63,0,2.72.761,2.72,2.263a2.264,2.264,0,0,1-2.53,2.182,2.721,2.721,0,0,1-2.94-2.5h-2.19a4.811,4.811,0,0,0,5.13,4.665C1320.45,692.924,1322.38,691.222,1322.38,688.72Z"/>
    <path class="cls-1" d="M1293,658V656.99h37V658h-37Z"/>
  </g>
  <g id="X_copy_6" data-name="X copy 6">
    <path id="Rectangle_116_copy_2" data-name="Rectangle 116 copy 2" class="cls-1" d="M1330.01,58.336l-0.94.929L1315.38,45.7,1300.94,60l-0.95-.938,14.44-14.3-13.96-13.832,0.94-.929,13.96,13.832,13.5-13.383,0.95,0.938-13.51,13.383Z"/>
  </g>
  <g id="L_copy_7" data-name="L copy 7">
    <path id="Rectangle_116_copy" data-name="Rectangle 116 copy" class="cls-2" d="M57.12,334.161L29.782,361.739l26.874,27.11-0.913.921L27.88,361.663l0.913-.921,0.066,0.066L56.2,333.23Z"/>
  </g>
</svg>
