<svg id="copy_copy_2" data-name="copy copy 2" xmlns="http://www.w3.org/2000/svg" width="1360" height="723" viewBox="0 0 1360 723">
  <defs>
    <style>
      .cls-1, .cls-2 {
        fill-rule: evenodd;
      }

      .cls-2 {
        fill: #010000;
      }
    </style>
  </defs>
  <path id="Banana_Republic_was_founded_in_San_Francisco_as_a_safari_and_tr" data-name="Banana Republic was founded in San Francisco as a safari and tr" class="cls-1" d="M31.891,595.146h4.065c2.3,0,3.809-1.424,3.809-3.312a2.709,2.709,0,0,0-1.968-2.721,2.575,2.575,0,0,0,1.216-2.32,3.111,3.111,0,0,0-3.392-3.008H31.891v11.361Zm1.488-6.481v-3.536h2.24a1.786,1.786,0,0,1,1.936,1.776,1.749,1.749,0,0,1-1.936,1.76h-2.24Zm0,5.137v-3.856h2.656c1.5,0,2.272.832,2.272,1.936,0,1.12-.768,1.92-2.288,1.92h-2.64Zm8.144-2.656a4,4,0,0,0,3.921,4.16,3.509,3.509,0,0,0,2.816-1.392v1.232h1.376v-8H48.26v1.232a3.509,3.509,0,0,0-2.816-1.392A4,4,0,0,0,41.523,591.146Zm6.849,0a2.733,2.733,0,1,1-2.72-2.9A2.732,2.732,0,0,1,48.372,591.146Zm4.255,4H54v-3.968c0-1.872,1.024-2.929,2.32-2.929a1.921,1.921,0,0,1,1.888,2.177v4.72h1.36v-4.928a2.949,2.949,0,0,0-3.024-3.233A2.83,2.83,0,0,0,54,588.377v-1.232H52.626v8Zm9.2-4a4,4,0,0,0,3.921,4.16,3.509,3.509,0,0,0,2.816-1.392v1.232h1.376v-8H68.563v1.232a3.509,3.509,0,0,0-2.816-1.392A4,4,0,0,0,61.826,591.146Zm6.849,0a2.733,2.733,0,1,1-2.72-2.9A2.732,2.732,0,0,1,68.675,591.146Zm4.255,4h1.376v-3.968c0-1.872,1.024-2.929,2.32-2.929a1.921,1.921,0,0,1,1.888,2.177v4.72h1.36v-4.928a2.949,2.949,0,0,0-3.024-3.233,2.829,2.829,0,0,0-2.544,1.392v-1.232H72.93v8Zm9.2-4a4,4,0,0,0,3.92,4.16,3.509,3.509,0,0,0,2.816-1.392v1.232h1.376v-8H88.867v1.232a3.509,3.509,0,0,0-2.816-1.392A4,4,0,0,0,82.13,591.146Zm6.849,0a2.733,2.733,0,1,1-2.72-2.9A2.732,2.732,0,0,1,88.979,591.146Zm8.767,4h1.488v-5.168h1.1l4.369,5.168h1.872l-4.369-5.184a2.965,2.965,0,0,0,2.8-3.041,3.065,3.065,0,0,0-3.393-3.136H97.746v11.361Zm1.488-6.5v-3.488h2.208c1.3,0,2.08.608,2.08,1.76,0,1.136-.784,1.728-2.08,1.728H99.234Zm8,2.5a4.219,4.219,0,0,0,7.746,2.256l-1.089-.752a2.832,2.832,0,0,1-5.264-1.232h6.561A3.9,3.9,0,0,0,115.2,591a3.729,3.729,0,0,0-3.809-4.017A4.055,4.055,0,0,0,107.233,591.146Zm4.113-2.945a2.394,2.394,0,0,1,2.448,2.1h-5.072A2.615,2.615,0,0,1,111.346,588.2Zm6.207,10.29h1.377v-4.577a3.508,3.508,0,0,0,2.816,1.392,4.168,4.168,0,0,0,0-8.321,3.508,3.508,0,0,0-2.816,1.392v-1.232h-1.377v11.346Zm6.7-7.345a2.725,2.725,0,1,1-2.72-2.9A2.731,2.731,0,0,1,124.258,591.146Zm3.679,0.912a2.921,2.921,0,0,0,2.945,3.248,2.752,2.752,0,0,0,2.464-1.392v1.232h1.376v-8h-1.376v3.969c0,1.84-.976,2.928-2.224,2.928-1.1,0-1.808-.848-1.808-2.192v-4.705h-1.377v4.913Zm11.152,1.856a3.512,3.512,0,0,0,2.817,1.392,4.168,4.168,0,0,0,0-8.321,3.512,3.512,0,0,0-2.817,1.392v-5.232h-1.376v12h1.376v-1.232Zm5.329-2.768a2.726,2.726,0,1,1-2.72-2.9A2.731,2.731,0,0,1,144.418,591.146Zm3.775,4h1.376v-12h-1.376v12Zm6.048-11.121a0.966,0.966,0,0,0-.96-0.976,0.994,0.994,0,0,0-.992.976,0.983,0.983,0,0,0,.992.976A0.956,0.956,0,0,0,154.241,584.025Zm-1.664,11.121h1.376v-8h-1.376v8Zm11.649-1.984-1.2-.672a2.712,2.712,0,0,1-2.5,1.536,2.882,2.882,0,0,1,0-5.761,2.711,2.711,0,0,1,2.5,1.537l1.2-.673a4.143,4.143,0,0,0-3.7-2.144,4.161,4.161,0,1,0,0,8.321A4.143,4.143,0,0,0,164.226,593.162Zm12.976,1.984h1.216l2.72-8h-1.456l-1.936,5.841-2-5.841h-1.056l-2,5.841-1.936-5.841h-1.441l2.721,8h1.216l1.984-5.76Zm5.166-4a4,4,0,0,0,3.921,4.16,3.508,3.508,0,0,0,2.816-1.392v1.232h1.376v-8h-1.376v1.232a3.508,3.508,0,0,0-2.816-1.392A4,4,0,0,0,182.368,591.146Zm6.849,0a2.733,2.733,0,1,1-2.72-2.9A2.731,2.731,0,0,1,189.217,591.146Zm9.44,1.776c0-1.2-.752-1.968-2.112-2.416l-0.864-.288c-0.945-.3-1.233-0.608-1.233-1.121a1.133,1.133,0,0,1,1.345-.928,2.161,2.161,0,0,1,1.7.832l0.9-.864a3.1,3.1,0,0,0-2.56-1.152c-1.585,0-2.7.88-2.7,2.176a2.415,2.415,0,0,0,1.984,2.321l0.785,0.256c1.04,0.336,1.424.72,1.424,1.28a1.218,1.218,0,0,1-1.408,1.088,2.147,2.147,0,0,1-2.049-1.264l-1.12.608a3.178,3.178,0,0,0,3.137,1.856C197.489,595.306,198.657,594.49,198.657,592.922Zm7.135,2.224h1.376v-6.737h2.321v-1.264h-2.321v-1.472a1.152,1.152,0,0,1,1.329-1.36,3.222,3.222,0,0,1,.992.16v-1.216a3.636,3.636,0,0,0-1.248-.208,2.285,2.285,0,0,0-2.449,2.48v1.616h-1.7v1.264h1.7v6.737Zm13.121-4a4.185,4.185,0,1,0-4.176,4.16A4.106,4.106,0,0,0,218.913,591.146Zm-6.961,0a2.778,2.778,0,1,1,2.785,2.88A2.751,2.751,0,0,1,211.952,591.146Zm9.216,0.912c0,1.984,1.184,3.248,2.944,3.248a2.753,2.753,0,0,0,2.465-1.392v1.232h1.376v-8h-1.376v3.969c0,1.84-.976,2.928-2.225,2.928-1.1,0-1.808-.848-1.808-2.192v-4.705h-1.376v4.913Zm9.776,3.088h1.376v-3.968c0-1.872,1.024-2.929,2.32-2.929a1.921,1.921,0,0,1,1.889,2.177v4.72h1.36v-4.928a2.949,2.949,0,0,0-3.025-3.233,2.829,2.829,0,0,0-2.544,1.392v-1.232h-1.376v8Zm9.2-4a4,4,0,0,0,3.92,4.16,3.51,3.51,0,0,0,2.817-1.392v1.232h1.376v-12h-1.376v5.232a3.51,3.51,0,0,0-2.817-1.392A4,4,0,0,0,240.144,591.146Zm6.849,0a2.733,2.733,0,1,1-2.721-2.9A2.732,2.732,0,0,1,246.993,591.146Zm3.63,0a4.219,4.219,0,0,0,7.746,2.256l-1.089-.752a2.832,2.832,0,0,1-5.264-1.232h6.561a3.9,3.9,0,0,0,.016-0.416,3.729,3.729,0,0,0-3.809-4.017A4.055,4.055,0,0,0,250.623,591.146Zm4.113-2.945a2.394,2.394,0,0,1,2.448,2.1h-5.072A2.615,2.615,0,0,1,254.736,588.2Zm5.583,2.945a4,4,0,0,0,3.921,4.16,3.508,3.508,0,0,0,2.816-1.392v1.232h1.377v-12h-1.377v5.232a3.508,3.508,0,0,0-2.816-1.392A4,4,0,0,0,260.319,591.146Zm6.849,0a2.733,2.733,0,1,1-2.72-2.9A2.731,2.731,0,0,1,267.168,591.146Zm10.223-7.121a0.966,0.966,0,0,0-.96-0.976,0.994,0.994,0,0,0-.992.976,0.983,0.983,0,0,0,.992.976A0.956,0.956,0,0,0,277.391,584.025Zm-1.664,11.121H277.1v-8h-1.376v8Zm4.384,0h1.376v-3.968c0-1.872,1.024-2.929,2.321-2.929a1.921,1.921,0,0,1,1.888,2.177v4.72h1.36v-4.928a2.949,2.949,0,0,0-3.024-3.233,2.829,2.829,0,0,0-2.545,1.392v-1.232h-1.376v8Zm13.408-1.856a4.387,4.387,0,0,0,3.984,2.048c2.112,0,3.617-1.216,3.617-3.152,0-1.68-.961-2.64-2.641-3.281l-1.376-.528c-1.152-.432-1.712-0.864-1.712-1.824a1.809,1.809,0,0,1,2.048-1.568,2.811,2.811,0,0,1,2.256,1.12l1.089-.96a4.147,4.147,0,0,0-3.313-1.552c-2.032,0-3.552,1.168-3.552,3.024,0,1.552.8,2.48,2.576,3.137l1.5,0.576a2.065,2.065,0,0,1,1.632,1.92,1.844,1.844,0,0,1-2.1,1.7,3.174,3.174,0,0,1-2.816-1.552Zm9.359-2.144a4,4,0,0,0,3.921,4.16,3.508,3.508,0,0,0,2.816-1.392v1.232h1.376v-8h-1.376v1.232a3.508,3.508,0,0,0-2.816-1.392A4,4,0,0,0,302.878,591.146Zm6.849,0a2.733,2.733,0,1,1-2.72-2.9A2.731,2.731,0,0,1,309.727,591.146Zm4.255,4h1.376v-3.968c0-1.872,1.025-2.929,2.321-2.929a1.921,1.921,0,0,1,1.888,2.177v4.72h1.36v-4.928a2.949,2.949,0,0,0-3.024-3.233,2.831,2.831,0,0,0-2.545,1.392v-1.232h-1.376v8Zm14.336,0h1.488v-5.1h4.049v-1.409h-4.049v-3.44h5.121v-1.408h-6.609v11.361Zm8.192,0h1.376v-3.968c0-1.872,1.1-2.753,2.112-2.753a2.011,2.011,0,0,1,.752.128v-1.424a2.851,2.851,0,0,0-.624-0.064,2.38,2.38,0,0,0-2.24,1.632v-1.552H336.51v8Zm5.36-4a4,4,0,0,0,3.92,4.16,3.51,3.51,0,0,0,2.817-1.392v1.232h1.376v-8h-1.376v1.232a3.51,3.51,0,0,0-2.817-1.392A4,4,0,0,0,341.87,591.146Zm6.849,0a2.733,2.733,0,1,1-2.721-2.9A2.732,2.732,0,0,1,348.719,591.146Zm4.255,4h1.376v-3.968c0-1.872,1.024-2.929,2.32-2.929a1.921,1.921,0,0,1,1.888,2.177v4.72h1.361v-4.928a2.949,2.949,0,0,0-3.025-3.233,2.829,2.829,0,0,0-2.544,1.392v-1.232h-1.376v8Zm17.089-1.984-1.2-.672a2.712,2.712,0,0,1-2.5,1.536,2.882,2.882,0,0,1,0-5.761,2.711,2.711,0,0,1,2.5,1.537l1.2-.673a4.146,4.146,0,0,0-3.7-2.144,4.161,4.161,0,1,0,0,8.321A4.146,4.146,0,0,0,370.063,593.162Zm3.839-9.137a0.967,0.967,0,0,0-.961-0.976,0.994,0.994,0,0,0-.992.976,0.983,0.983,0,0,0,.992.976A0.957,0.957,0,0,0,373.9,584.025Zm-1.665,11.121h1.376v-8h-1.376v8Zm9.569-2.224c0-1.2-.752-1.968-2.112-2.416l-0.865-.288c-0.944-.3-1.232-0.608-1.232-1.121a1.133,1.133,0,0,1,1.345-.928,2.161,2.161,0,0,1,1.7.832l0.9-.864a3.1,3.1,0,0,0-2.56-1.152c-1.585,0-2.7.88-2.7,2.176a2.415,2.415,0,0,0,1.984,2.321l0.785,0.256c1.04,0.336,1.424.72,1.424,1.28a1.218,1.218,0,0,1-1.408,1.088,2.147,2.147,0,0,1-2.049-1.264l-1.12.608a3.178,3.178,0,0,0,3.137,1.856C380.638,595.306,381.806,594.49,381.806,592.922Zm9.632,0.24-1.2-.672a2.712,2.712,0,0,1-2.5,1.536,2.882,2.882,0,0,1,0-5.761,2.711,2.711,0,0,1,2.5,1.537l1.2-.673a4.143,4.143,0,0,0-3.7-2.144,4.161,4.161,0,1,0,0,8.321A4.143,4.143,0,0,0,391.438,593.162Zm9.9-2.016a4.185,4.185,0,1,0-4.177,4.16A4.106,4.106,0,0,0,401.342,591.146Zm-6.961,0a2.778,2.778,0,1,1,2.784,2.88A2.751,2.751,0,0,1,394.381,591.146Zm13.007,0a4,4,0,0,0,3.921,4.16,3.508,3.508,0,0,0,2.816-1.392v1.232H415.5v-8h-1.376v1.232a3.508,3.508,0,0,0-2.816-1.392A4,4,0,0,0,407.388,591.146Zm6.849,0a2.733,2.733,0,1,1-2.72-2.9A2.731,2.731,0,0,1,414.237,591.146Zm9.44,1.776c0-1.2-.752-1.968-2.112-2.416l-0.864-.288c-0.945-.3-1.233-0.608-1.233-1.121a1.133,1.133,0,0,1,1.345-.928,2.161,2.161,0,0,1,1.7.832l0.9-.864a3.1,3.1,0,0,0-2.56-1.152c-1.585,0-2.705.88-2.705,2.176a2.414,2.414,0,0,0,1.985,2.321l0.784,0.256c1.04,0.336,1.424.72,1.424,1.28a1.218,1.218,0,0,1-1.408,1.088,2.147,2.147,0,0,1-2.049-1.264l-1.12.608a3.178,3.178,0,0,0,3.137,1.856C422.509,595.306,423.677,594.49,423.677,592.922Zm6.047-1.776a4,4,0,0,0,3.92,4.16,3.509,3.509,0,0,0,2.817-1.392v1.232h1.376v-8h-1.376v1.232a3.509,3.509,0,0,0-2.817-1.392A4,4,0,0,0,429.724,591.146Zm6.849,0a2.733,2.733,0,1,1-2.721-2.9A2.732,2.732,0,0,1,436.573,591.146Zm13.743,1.776c0-1.2-.752-1.968-2.112-2.416l-0.864-.288c-0.944-.3-1.232-0.608-1.232-1.121a1.132,1.132,0,0,1,1.344-.928,2.161,2.161,0,0,1,1.7.832l0.9-.864a3.1,3.1,0,0,0-2.56-1.152c-1.584,0-2.7.88-2.7,2.176a2.416,2.416,0,0,0,1.985,2.321l0.784,0.256c1.04,0.336,1.424.72,1.424,1.28a1.218,1.218,0,0,1-1.408,1.088,2.147,2.147,0,0,1-2.048-1.264l-1.121.608a3.18,3.18,0,0,0,3.137,1.856C449.148,595.306,450.316,594.49,450.316,592.922Zm1.743-1.776a4,4,0,0,0,3.921,4.16,3.508,3.508,0,0,0,2.816-1.392v1.232h1.376v-8H458.8v1.232a3.508,3.508,0,0,0-2.816-1.392A4,4,0,0,0,452.059,591.146Zm6.849,0a2.733,2.733,0,1,1-2.72-2.9A2.731,2.731,0,0,1,458.908,591.146Zm4.927,4h1.377v-6.737h2.32v-1.264h-2.32v-1.472a1.152,1.152,0,0,1,1.328-1.36,3.222,3.222,0,0,1,.992.16v-1.216a3.636,3.636,0,0,0-1.248-.208,2.285,2.285,0,0,0-2.449,2.48v1.616h-1.7v1.264h1.7v6.737Zm4.768-4a4,4,0,0,0,3.921,4.16,3.508,3.508,0,0,0,2.816-1.392v1.232h1.376v-8H475.34v1.232a3.508,3.508,0,0,0-2.816-1.392A4,4,0,0,0,468.6,591.146Zm6.849,0a2.733,2.733,0,1,1-2.72-2.9A2.731,2.731,0,0,1,475.452,591.146Zm4.255,4h1.376v-3.968c0-1.872,1.1-2.753,2.113-2.753a2.011,2.011,0,0,1,.752.128v-1.424a2.851,2.851,0,0,0-.624-0.064,2.381,2.381,0,0,0-2.241,1.632v-1.552h-1.376v8Zm7.92-11.121a0.966,0.966,0,0,0-.96-0.976,0.994,0.994,0,0,0-.992.976,0.983,0.983,0,0,0,.992.976A0.956,0.956,0,0,0,487.627,584.025Zm-1.664,11.121h1.376v-8h-1.376v8Zm8.064-4a4,4,0,0,0,3.92,4.16,3.509,3.509,0,0,0,2.817-1.392v1.232h1.376v-8h-1.376v1.232a3.509,3.509,0,0,0-2.817-1.392A4,4,0,0,0,494.027,591.146Zm6.849,0a2.733,2.733,0,1,1-2.721-2.9A2.732,2.732,0,0,1,500.876,591.146Zm4.255,4h1.376v-3.968c0-1.872,1.024-2.929,2.32-2.929a1.921,1.921,0,0,1,1.889,2.177v4.72h1.36v-4.928a2.949,2.949,0,0,0-3.025-3.233,2.829,2.829,0,0,0-2.544,1.392v-1.232h-1.376v8Zm9.2-4a4,4,0,0,0,3.92,4.16,3.508,3.508,0,0,0,2.816-1.392v1.232h1.377v-12h-1.377v5.232a3.508,3.508,0,0,0-2.816-1.392A4,4,0,0,0,514.331,591.146Zm6.848,0a2.733,2.733,0,1,1-2.72-2.9A2.731,2.731,0,0,1,521.179,591.146Zm12.624,3.888V593.8a3.041,3.041,0,0,1-.976.16,1.152,1.152,0,0,1-1.328-1.36v-4.193h2.3v-1.264h-2.3v-2.224h-1.377v2.224h-1.7v1.264h1.7v4.369a2.252,2.252,0,0,0,2.449,2.448A3.828,3.828,0,0,0,533.8,595.034Zm2.159,0.112h1.376v-3.968c0-1.872,1.105-2.753,2.113-2.753a2.011,2.011,0,0,1,.752.128v-1.424a2.851,2.851,0,0,0-.624-0.064,2.381,2.381,0,0,0-2.241,1.632v-1.552h-1.376v8Zm5.36-4a4,4,0,0,0,3.921,4.16,3.508,3.508,0,0,0,2.816-1.392v1.232h1.376v-8h-1.376v1.232a3.508,3.508,0,0,0-2.816-1.392A4,4,0,0,0,541.322,591.146Zm6.849,0a2.733,2.733,0,1,1-2.72-2.9A2.731,2.731,0,0,1,548.171,591.146Zm6.751,4h1.153l3.7-8h-1.536l-2.737,6.049-2.736-6.049h-1.536Zm5.84-4a4.218,4.218,0,0,0,7.745,2.256l-1.088-.752a2.833,2.833,0,0,1-5.265-1.232h6.561a3.9,3.9,0,0,0,.016-0.416,3.728,3.728,0,0,0-3.808-4.017A4.054,4.054,0,0,0,560.762,591.146Zm4.113-2.945a2.394,2.394,0,0,1,2.448,2.1H562.25A2.616,2.616,0,0,1,564.875,588.2Zm6.207,6.945h1.376v-12h-1.376v12Zm15.953-1.984-1.2-.672a2.713,2.713,0,0,1-2.5,1.536,2.882,2.882,0,0,1,0-5.761,2.712,2.712,0,0,1,2.5,1.537l1.2-.673a4.145,4.145,0,0,0-3.7-2.144,4.161,4.161,0,1,0,0,8.321A4.145,4.145,0,0,0,587.035,593.162Zm2.174,1.984h1.377v-12h-1.377v12Zm12.113-4a4.185,4.185,0,1,0-4.176,4.16A4.106,4.106,0,0,0,601.322,591.146Zm-6.961,0a2.778,2.778,0,1,1,2.785,2.88A2.751,2.751,0,0,1,594.361,591.146Zm13.521,3.888V593.8a3.041,3.041,0,0,1-.976.16,1.152,1.152,0,0,1-1.328-1.36v-4.193h2.3v-1.264h-2.3v-2.224H604.2v2.224h-1.7v1.264h1.7v4.369a2.253,2.253,0,0,0,2.449,2.448A3.828,3.828,0,0,0,607.882,595.034Zm2.159,0.112h1.377v-3.968c0-1.872,1.024-2.929,2.32-2.929a1.921,1.921,0,0,1,1.888,2.177v4.72h1.36v-4.928a2.949,2.949,0,0,0-3.024-3.233,2.829,2.829,0,0,0-2.544,1.392v-5.232h-1.377v12Zm11.488-11.121a0.966,0.966,0,0,0-.96-0.976,0.994,0.994,0,0,0-.992.976,0.983,0.983,0,0,0,.992.976A0.956,0.956,0,0,0,621.529,584.025Zm-1.664,11.121h1.376v-8h-1.376v8Zm4.384,0h1.376v-3.968c0-1.872,1.024-2.929,2.321-2.929a1.921,1.921,0,0,1,1.888,2.177v4.72h1.36v-4.928a2.949,2.949,0,0,0-3.024-3.233,2.829,2.829,0,0,0-2.545,1.392v-1.232h-1.376v8Zm17.281-.464v-7.537h-1.376v1.232a3.4,3.4,0,0,0-2.785-1.392,4.076,4.076,0,0,0,0,8.145,3.417,3.417,0,0,0,2.785-1.408v0.912a2.558,2.558,0,0,1-2.673,2.769,3.42,3.42,0,0,1-2.8-1.345l-0.96.961a4.749,4.749,0,0,0,3.776,1.632A3.7,3.7,0,0,0,641.53,594.682Zm-6.673-3.632a2.706,2.706,0,1,1,2.7,2.8A2.667,2.667,0,0,1,634.857,591.05Zm21.233,2.112-1.2-.672a2.712,2.712,0,0,1-2.5,1.536,2.882,2.882,0,0,1,0-5.761,2.711,2.711,0,0,1,2.5,1.537l1.2-.673a4.145,4.145,0,0,0-3.7-2.144,4.161,4.161,0,1,0,0,8.321A4.145,4.145,0,0,0,656.09,593.162Zm9.9-2.016a4.185,4.185,0,1,0-4.176,4.16A4.106,4.106,0,0,0,665.993,591.146Zm-6.961,0a2.778,2.778,0,1,1,2.785,2.88A2.751,2.751,0,0,1,659.032,591.146Zm9.328,4h1.376v-3.968c0-1.808.912-2.929,2.209-2.929,1.04,0,1.568.9,1.568,2.193v4.7h1.376v-3.968c0-1.808.9-2.929,2.192-2.929,1.041,0,1.585.9,1.585,2.193v4.7h1.376v-4.912c0-1.953-1.056-3.249-2.8-3.249a2.769,2.769,0,0,0-2.624,1.712,2.515,2.515,0,0,0-2.464-1.712,2.691,2.691,0,0,0-2.417,1.392v-1.232H668.36v8Zm14.56,3.345H684.3v-4.577a3.509,3.509,0,0,0,2.817,1.392,4.168,4.168,0,0,0,0-8.321,3.509,3.509,0,0,0-2.817,1.392v-1.232H682.92v11.346Zm6.705-7.345a2.726,2.726,0,1,1-2.72-2.9A2.731,2.731,0,0,1,689.625,591.146Zm3.167,0a4,4,0,0,0,3.92,4.16,3.509,3.509,0,0,0,2.817-1.392v1.232h1.376v-8h-1.376v1.232a3.509,3.509,0,0,0-2.817-1.392A4,4,0,0,0,692.792,591.146Zm6.849,0a2.733,2.733,0,1,1-2.72-2.9A2.731,2.731,0,0,1,699.641,591.146Zm4.255,4h1.376v-3.968c0-1.872,1.024-2.929,2.32-2.929a1.921,1.921,0,0,1,1.889,2.177v4.72h1.36v-4.928a2.949,2.949,0,0,0-3.025-3.233,2.829,2.829,0,0,0-2.544,1.392v-1.232H703.9v8Zm11.792,3.345,5.249-11.346H719.4l-2.737,6.065-2.752-6.065h-1.52l3.5,7.585-1.744,3.761h1.536Zm7.952-3.7a1.368,1.368,0,0,0,.224-0.72,1.184,1.184,0,1,0-2.368,0,1.191,1.191,0,0,0,.656,1.072l-1.072,2.289h0.912ZM33.347,608.025a0.966,0.966,0,0,0-.96-0.976,0.994,0.994,0,0,0-.992.976,0.983,0.983,0,0,0,.992.976A0.956,0.956,0,0,0,33.347,608.025Zm-1.664,11.121h1.376v-8H31.683v8Zm4.384,0h1.376v-3.968c0-1.873,1.024-2.929,2.32-2.929a1.921,1.921,0,0,1,1.888,2.177v4.72h1.36v-4.928a2.949,2.949,0,0,0-3.024-3.233,2.829,2.829,0,0,0-2.544,1.392v-1.232H36.067v8Zm15.009-2.224c0-1.2-.752-1.968-2.112-2.416l-0.864-.288c-0.944-.3-1.232-0.608-1.232-1.121a1.133,1.133,0,0,1,1.344-.928,2.162,2.162,0,0,1,1.7.832l0.9-.864a3.1,3.1,0,0,0-2.56-1.152c-1.584,0-2.7.88-2.7,2.176a2.415,2.415,0,0,0,1.984,2.321l0.784,0.256c1.04,0.336,1.424.72,1.424,1.28a1.218,1.218,0,0,1-1.408,1.088,2.147,2.147,0,0,1-2.048-1.264l-1.12.608a3.178,3.178,0,0,0,3.136,1.856C49.907,619.306,51.075,618.49,51.075,616.922Zm2.367,5.569h1.376v-4.577a3.509,3.509,0,0,0,2.816,1.392,4.168,4.168,0,0,0,0-8.321,3.509,3.509,0,0,0-2.816,1.392v-1.232H53.442v11.346Zm6.7-7.345a2.726,2.726,0,1,1-2.72-2.9A2.732,2.732,0,0,1,60.147,615.146Zm5.455-7.121a0.966,0.966,0,0,0-.96-0.976,0.994,0.994,0,0,0-.992.976,0.983,0.983,0,0,0,.992.976A0.956,0.956,0,0,0,65.6,608.025Zm-1.664,11.121h1.376v-8H63.938v8Zm4.384,0H69.7v-3.968c0-1.873,1.1-2.753,2.112-2.753a2.012,2.012,0,0,1,.752.128v-1.424a2.852,2.852,0,0,0-.624-0.064A2.381,2.381,0,0,0,69.7,612.7v-1.552H68.322v8Zm5.344-4a4.218,4.218,0,0,0,7.745,2.256l-1.088-.752a2.833,2.833,0,0,1-5.265-1.232h6.561A3.9,3.9,0,0,0,81.635,615a3.728,3.728,0,0,0-3.808-4.017A4.054,4.054,0,0,0,73.666,615.146Zm4.113-2.945a2.394,2.394,0,0,1,2.448,2.1H75.154A2.615,2.615,0,0,1,77.779,612.2Zm5.583,2.945a4,4,0,0,0,3.921,4.16,3.509,3.509,0,0,0,2.816-1.392v1.232h1.376v-12H90.1v5.232a3.509,3.509,0,0,0-2.816-1.392A4,4,0,0,0,83.362,615.146Zm6.849,0a2.733,2.733,0,1,1-2.72-2.9A2.732,2.732,0,0,1,90.211,615.146Zm9.935,2.768a3.508,3.508,0,0,0,2.816,1.392,4.168,4.168,0,0,0,0-8.321,3.508,3.508,0,0,0-2.816,1.392v-5.232H98.77v12h1.376v-1.232Zm5.329-2.768a2.726,2.726,0,1,1-2.721-2.9A2.732,2.732,0,0,1,105.475,615.146Zm5.743,7.345,5.249-11.346H114.93l-2.736,6.065-2.752-6.065h-1.521l3.5,7.585-1.744,3.761h1.536Zm10.976-3.345h1.376v-3.968c0-1.808.912-2.929,2.208-2.929,1.04,0,1.568.9,1.568,2.193v4.7h1.377v-3.968c0-1.808.9-2.929,2.192-2.929,1.04,0,1.584.9,1.584,2.193v4.7h1.376v-4.912c0-1.953-1.056-3.249-2.8-3.249a2.771,2.771,0,0,0-2.625,1.712,2.515,2.515,0,0,0-2.464-1.712,2.689,2.689,0,0,0-2.416,1.392v-1.232h-1.376v8Zm16.224-11.121a0.966,0.966,0,0,0-.96-0.976,1,1,0,0,0-.993.976,0.984,0.984,0,0,0,.993.976A0.956,0.956,0,0,0,138.418,608.025Zm-1.665,11.121h1.377v-8h-1.377v8Zm4.384,0h1.377v-12h-1.377v12Zm6.048-11.121a0.966,0.966,0,0,0-.96-0.976,0.994,0.994,0,0,0-.992.976,0.983,0.983,0,0,0,.992.976A0.956,0.956,0,0,0,147.185,608.025Zm-1.664,11.121H146.9v-8h-1.376v8Zm8.721-.112V617.8a3.041,3.041,0,0,1-.976.16,1.152,1.152,0,0,1-1.329-1.36v-4.193h2.3v-1.264h-2.3v-2.224h-1.376v2.224h-1.7v1.264h1.7v4.369a2.252,2.252,0,0,0,2.449,2.448A3.828,3.828,0,0,0,154.242,619.034Zm1.423-3.888a4,4,0,0,0,3.921,4.16,3.508,3.508,0,0,0,2.816-1.392v1.232h1.376v-8H162.4v1.232a3.508,3.508,0,0,0-2.816-1.392A4,4,0,0,0,155.665,615.146Zm6.849,0a2.733,2.733,0,1,1-2.72-2.9A2.731,2.731,0,0,1,162.514,615.146Zm4.255,4h1.376v-3.968c0-1.873,1.1-2.753,2.113-2.753a2.011,2.011,0,0,1,.752.128v-1.424a2.851,2.851,0,0,0-.624-0.064,2.38,2.38,0,0,0-2.241,1.632v-1.552h-1.376v8Zm8.384,3.345,5.249-11.346h-1.536l-2.737,6.065-2.752-6.065h-1.52l3.5,7.585-1.744,3.761h1.536Zm6.592-7.137h4.081v-1.376h-4.081v1.376Zm12.017,1.568c0-1.2-.752-1.968-2.113-2.416l-0.864-.288c-0.944-.3-1.232-0.608-1.232-1.121a1.132,1.132,0,0,1,1.344-.928,2.165,2.165,0,0,1,1.7.832l0.9-.864a3.1,3.1,0,0,0-2.561-1.152c-1.584,0-2.7.88-2.7,2.176a2.415,2.415,0,0,0,1.984,2.321l0.784,0.256c1.04,0.336,1.425.72,1.425,1.28a1.219,1.219,0,0,1-1.409,1.088,2.147,2.147,0,0,1-2.048-1.264l-1.12.608a3.178,3.178,0,0,0,3.136,1.856C192.594,619.306,193.762,618.49,193.762,616.922Zm2.255-.864c0,1.984,1.184,3.248,2.944,3.248a2.754,2.754,0,0,0,2.465-1.392v1.232H202.8v-8h-1.376v3.969c0,1.84-.977,2.928-2.225,2.928-1.1,0-1.808-.848-1.808-2.192v-4.705h-1.376v4.913Zm9.776,3.088h1.376v-3.968c0-1.873,1.1-2.753,2.112-2.753a2.011,2.011,0,0,1,.752.128v-1.424a2.851,2.851,0,0,0-.624-0.064,2.38,2.38,0,0,0-2.24,1.632v-1.552h-1.376v8Zm6.256,3.345h1.376v-4.577a3.508,3.508,0,0,0,2.816,1.392,4.168,4.168,0,0,0,0-8.321,3.508,3.508,0,0,0-2.816,1.392v-1.232h-1.376v11.346Zm6.7-7.345a2.726,2.726,0,1,1-2.721-2.9A2.732,2.732,0,0,1,218.754,615.146Zm3.791,4h1.376v-12h-1.376v12Zm4.271-3.088a2.921,2.921,0,0,0,2.945,3.248,2.752,2.752,0,0,0,2.464-1.392v1.232H233.6v-8h-1.376v3.969c0,1.84-.976,2.928-2.224,2.928-1.1,0-1.808-.848-1.808-2.192v-4.705h-1.377v4.913Zm14.961,0.864c0-1.2-.752-1.968-2.112-2.416l-0.864-.288c-0.944-.3-1.232-0.608-1.232-1.121a1.132,1.132,0,0,1,1.344-.928,2.161,2.161,0,0,1,1.7.832l0.9-.864a3.1,3.1,0,0,0-2.56-1.152c-1.584,0-2.7.88-2.7,2.176a2.414,2.414,0,0,0,1.985,2.321l0.784,0.256c1.04,0.336,1.424.72,1.424,1.28a1.218,1.218,0,0,1-1.408,1.088,2.149,2.149,0,0,1-2.049-1.264l-1.12.608a3.179,3.179,0,0,0,3.137,1.856C240.609,619.306,241.777,618.49,241.777,616.922Zm13.936,0.24-1.2-.672a2.712,2.712,0,0,1-2.5,1.536,2.882,2.882,0,0,1,0-5.761,2.711,2.711,0,0,1,2.5,1.537l1.2-.673a4.143,4.143,0,0,0-3.7-2.144,4.161,4.161,0,1,0,0,8.321A4.143,4.143,0,0,0,255.713,617.162Zm2.175,1.984h1.376v-12h-1.376v12Zm12.113-4a4.185,4.185,0,1,0-4.177,4.16A4.106,4.106,0,0,0,270,615.146Zm-6.961,0a2.778,2.778,0,1,1,2.784,2.88A2.751,2.751,0,0,1,263.04,615.146Zm13.52,3.888V617.8a3.041,3.041,0,0,1-.976.16,1.152,1.152,0,0,1-1.328-1.36v-4.193h2.3v-1.264h-2.3v-2.224H272.88v2.224h-1.7v1.264h1.7v4.369a2.252,2.252,0,0,0,2.448,2.448A3.828,3.828,0,0,0,276.56,619.034Zm2.16,0.112H280.1v-3.968c0-1.873,1.024-2.929,2.32-2.929a1.921,1.921,0,0,1,1.888,2.177v4.72h1.361v-4.928a2.949,2.949,0,0,0-3.025-3.233,2.829,2.829,0,0,0-2.544,1.392v-5.232H278.72v12Zm9.2-4a4.219,4.219,0,0,0,7.746,2.256l-1.089-.752a2.832,2.832,0,0,1-5.264-1.232h6.561a3.9,3.9,0,0,0,.016-0.416,3.729,3.729,0,0,0-3.809-4.017A4.055,4.055,0,0,0,287.919,615.146Zm4.113-2.945a2.394,2.394,0,0,1,2.448,2.1h-5.072A2.615,2.615,0,0,1,292.032,612.2Zm11.392,4.721c0-1.2-.752-1.968-2.112-2.416l-0.864-.288c-0.944-.3-1.232-0.608-1.232-1.121a1.132,1.132,0,0,1,1.344-.928,2.161,2.161,0,0,1,1.7.832l0.9-.864a3.1,3.1,0,0,0-2.56-1.152c-1.584,0-2.7.88-2.7,2.176a2.414,2.414,0,0,0,1.985,2.321l0.784,0.256c1.04,0.336,1.424.72,1.424,1.28a1.218,1.218,0,0,1-1.408,1.088,2.149,2.149,0,0,1-2.049-1.264l-1.12.608a3.179,3.179,0,0,0,3.137,1.856C302.256,619.306,303.424,618.49,303.424,616.922Zm4.272,1.152a1.185,1.185,0,1,0-1.185,1.2A1.206,1.206,0,0,0,307.7,618.074Zm8.816,1.072h1.456v-9.953H321.5v-1.408h-8.529v1.408h3.537v9.953Zm13.3-4a4.185,4.185,0,1,0-4.176,4.16A4.106,4.106,0,0,0,329.808,615.146Zm-6.961,0a2.778,2.778,0,1,1,2.785,2.88A2.751,2.751,0,0,1,322.847,615.146Zm8.7,0a4,4,0,0,0,3.92,4.16,3.509,3.509,0,0,0,2.817-1.392v1.232h1.376v-12h-1.376v5.232a3.509,3.509,0,0,0-2.817-1.392A4,4,0,0,0,331.551,615.146Zm6.849,0a2.733,2.733,0,1,1-2.721-2.9A2.732,2.732,0,0,1,338.4,615.146Zm3.631,0a4,4,0,0,0,3.92,4.16,3.51,3.51,0,0,0,2.817-1.392v1.232h1.376v-8h-1.376v1.232a3.51,3.51,0,0,0-2.817-1.392A4,4,0,0,0,342.031,615.146Zm6.849,0a2.733,2.733,0,1,1-2.721-2.9A2.732,2.732,0,0,1,348.88,615.146Zm6.383,7.345,5.249-11.346h-1.536l-2.737,6.065-2.752-6.065h-1.52l3.5,7.585-1.744,3.761h1.536Zm7.952-3.7a1.368,1.368,0,0,0,.224-0.72,1.184,1.184,0,1,0-2.368,0,1.191,1.191,0,0,0,.656,1.072l-1.072,2.289h0.912Zm11.152,0.24V617.8a3.041,3.041,0,0,1-.976.16,1.152,1.152,0,0,1-1.328-1.36v-4.193h2.3v-1.264h-2.3v-2.224h-1.376v2.224h-1.7v1.264h1.7v4.369a2.252,2.252,0,0,0,2.448,2.448A3.828,3.828,0,0,0,374.367,619.034Zm2.159,0.112H377.9v-3.968c0-1.873,1.024-2.929,2.32-2.929a1.921,1.921,0,0,1,1.888,2.177v4.72h1.36v-4.928a2.949,2.949,0,0,0-3.024-3.233,2.829,2.829,0,0,0-2.544,1.392v-5.232h-1.377v12Zm9.2-4a4.218,4.218,0,0,0,7.745,2.256l-1.088-.752a2.833,2.833,0,0,1-5.265-1.232h6.561A3.9,3.9,0,0,0,393.7,615a3.728,3.728,0,0,0-3.808-4.017A4.054,4.054,0,0,0,385.726,615.146Zm4.113-2.945a2.394,2.394,0,0,1,2.448,2.1h-5.073A2.616,2.616,0,0,1,389.839,612.2Zm17.776,4.961-1.2-.672a2.712,2.712,0,0,1-2.5,1.536,2.882,2.882,0,0,1,0-5.761,2.711,2.711,0,0,1,2.5,1.537l1.2-.673a4.143,4.143,0,0,0-3.7-2.144,4.161,4.161,0,1,0,0,8.321A4.143,4.143,0,0,0,407.615,617.162Zm9.9-2.016a4.185,4.185,0,1,0-4.177,4.16A4.106,4.106,0,0,0,417.519,615.146Zm-6.961,0a2.778,2.778,0,1,1,2.784,2.88A2.751,2.751,0,0,1,410.558,615.146Zm9.328,4h1.376v-12h-1.376v12Zm4.383,0h1.377v-12h-1.377v12Zm3.76-4a4.218,4.218,0,0,0,7.745,2.256l-1.088-.752a2.833,2.833,0,0,1-5.265-1.232h6.561A3.9,3.9,0,0,0,436,615a3.728,3.728,0,0,0-3.808-4.017A4.054,4.054,0,0,0,428.029,615.146Zm4.113-2.945a2.394,2.394,0,0,1,2.448,2.1h-5.073A2.616,2.616,0,0,1,432.142,612.2Zm13.472,4.961-1.2-.672a2.712,2.712,0,0,1-2.5,1.536,2.882,2.882,0,0,1,0-5.761,2.711,2.711,0,0,1,2.5,1.537l1.2-.673a4.143,4.143,0,0,0-3.7-2.144,4.161,4.161,0,1,0,0,8.321A4.143,4.143,0,0,0,445.614,617.162Zm6.512,1.872V617.8a3.043,3.043,0,0,1-.977.16,1.152,1.152,0,0,1-1.328-1.36v-4.193h2.3v-1.264h-2.3v-2.224h-1.376v2.224h-1.7v1.264h1.7v4.369a2.252,2.252,0,0,0,2.448,2.448A3.83,3.83,0,0,0,452.126,619.034Zm3.823-11.009a0.966,0.966,0,0,0-.96-0.976,0.994,0.994,0,0,0-.992.976,0.983,0.983,0,0,0,.992.976A0.956,0.956,0,0,0,455.949,608.025Zm-1.664,11.121h1.376v-8h-1.376v8Zm12.113-4a4.185,4.185,0,1,0-4.177,4.16A4.106,4.106,0,0,0,466.4,615.146Zm-6.961,0a2.778,2.778,0,1,1,2.784,2.88A2.751,2.751,0,0,1,459.437,615.146Zm9.328,4h1.376v-3.968c0-1.873,1.024-2.929,2.32-2.929a1.921,1.921,0,0,1,1.888,2.177v4.72h1.361v-4.928a2.949,2.949,0,0,0-3.025-3.233,2.829,2.829,0,0,0-2.544,1.392v-1.232h-1.376v8Zm14.127,0h1.376v-3.968c0-1.873,1.105-2.753,2.113-2.753a2.011,2.011,0,0,1,.752.128v-1.424a2.851,2.851,0,0,0-.624-0.064,2.382,2.382,0,0,0-2.241,1.632v-1.552h-1.376v8Zm5.344-4a4.218,4.218,0,0,0,7.745,2.256l-1.088-.752a2.833,2.833,0,0,1-5.265-1.232h6.561a3.9,3.9,0,0,0,.016-0.416,3.728,3.728,0,0,0-3.808-4.017A4.055,4.055,0,0,0,488.236,615.146Zm4.113-2.945a2.394,2.394,0,0,1,2.448,2.1h-5.073A2.617,2.617,0,0,1,492.349,612.2Zm6.783,6.945h1.377v-6.737h2.32v-1.264h-2.32v-1.472a1.152,1.152,0,0,1,1.328-1.36,3.222,3.222,0,0,1,.992.16v-1.216a3.636,3.636,0,0,0-1.248-.208,2.285,2.285,0,0,0-2.449,2.48v1.616h-1.7v1.264h1.7v6.737Zm5.2,0h1.376v-12h-1.376v12Zm3.743-4a4.218,4.218,0,0,0,7.745,2.256l-1.088-.752a2.833,2.833,0,0,1-5.265-1.232h6.561a3.9,3.9,0,0,0,.016-0.416,3.728,3.728,0,0,0-3.808-4.017A4.054,4.054,0,0,0,508.076,615.146Zm4.113-2.945a2.394,2.394,0,0,1,2.448,2.1h-5.073A2.616,2.616,0,0,1,512.189,612.2Zm13.472,4.961-1.2-.672a2.712,2.712,0,0,1-2.5,1.536,2.882,2.882,0,0,1,0-5.761,2.711,2.711,0,0,1,2.5,1.537l1.2-.673a4.143,4.143,0,0,0-3.7-2.144,4.161,4.161,0,1,0,0,8.321A4.143,4.143,0,0,0,525.661,617.162Zm6.512,1.872V617.8a3.052,3.052,0,0,1-.977.16,1.152,1.152,0,0,1-1.328-1.36v-4.193h2.3v-1.264h-2.3v-2.224h-1.376v2.224h-1.7v1.264h1.7v4.369a2.252,2.252,0,0,0,2.448,2.448A3.84,3.84,0,0,0,532.173,619.034Zm7.344-2.112c0-1.2-.753-1.968-2.113-2.416l-0.864-.288c-0.944-.3-1.232-0.608-1.232-1.121a1.132,1.132,0,0,1,1.344-.928,2.161,2.161,0,0,1,1.7.832l0.9-.864a3.106,3.106,0,0,0-2.561-1.152c-1.584,0-2.7.88-2.7,2.176a2.415,2.415,0,0,0,1.984,2.321l0.784,0.256c1.04,0.336,1.424.72,1.424,1.28a1.218,1.218,0,0,1-1.408,1.088,2.147,2.147,0,0,1-2.048-1.264l-1.12.608a3.178,3.178,0,0,0,3.136,1.856C538.348,619.306,539.517,618.49,539.517,616.922Zm6.559-.864c0,1.984,1.184,3.248,2.944,3.248a2.752,2.752,0,0,0,2.464-1.392v1.232h1.377v-8h-1.377v3.969c0,1.84-.976,2.928-2.224,2.928-1.1,0-1.808-.848-1.808-2.192v-4.705h-1.376v4.913Zm14.112,2.976V617.8a3.041,3.041,0,0,1-.976.16,1.152,1.152,0,0,1-1.328-1.36v-4.193h2.3v-1.264h-2.3v-2.224h-1.376v2.224h-1.7v1.264h1.7v4.369a2.252,2.252,0,0,0,2.448,2.448A3.828,3.828,0,0,0,560.188,619.034Zm3.824-11.009a0.966,0.966,0,0,0-.961-0.976,0.994,0.994,0,0,0-.992.976,0.983,0.983,0,0,0,.992.976A0.957,0.957,0,0,0,564.012,608.025Zm-1.665,11.121h1.377v-8h-1.377v8Zm4.384,0h1.377v-12h-1.377v12Zm6.048-11.121a0.966,0.966,0,0,0-.96-0.976,0.994,0.994,0,0,0-.992.976,0.983,0.983,0,0,0,.992.976A0.956,0.956,0,0,0,572.779,608.025Zm-1.664,11.121h1.376v-8h-1.376v8Zm8.721-.112V617.8a3.041,3.041,0,0,1-.976.16,1.152,1.152,0,0,1-1.329-1.36v-4.193h2.305v-1.264h-2.305v-2.224h-1.376v2.224h-1.7v1.264h1.7v4.369a2.252,2.252,0,0,0,2.449,2.448A3.828,3.828,0,0,0,579.836,619.034Zm1.423-3.888a4,4,0,0,0,3.921,4.16A3.508,3.508,0,0,0,588,617.914v1.232h1.376v-8H588v1.232a3.508,3.508,0,0,0-2.816-1.392A4,4,0,0,0,581.259,615.146Zm6.849,0a2.733,2.733,0,1,1-2.72-2.9A2.731,2.731,0,0,1,588.108,615.146Zm4.255,4h1.376v-3.968c0-1.873,1.1-2.753,2.113-2.753a2.011,2.011,0,0,1,.752.128v-1.424a2.851,2.851,0,0,0-.624-0.064,2.381,2.381,0,0,0-2.241,1.632v-1.552h-1.376v8Zm7.92-11.121a0.966,0.966,0,0,0-.96-0.976,0.994,0.994,0,0,0-.992.976,0.983,0.983,0,0,0,.992.976A0.956,0.956,0,0,0,600.283,608.025Zm-1.664,11.121H600v-8h-1.376v8Zm3.76-4a4,4,0,0,0,3.92,4.16,3.509,3.509,0,0,0,2.817-1.392v1.232h1.376v-8h-1.376v1.232a3.509,3.509,0,0,0-2.817-1.392A4,4,0,0,0,602.379,615.146Zm6.849,0a2.733,2.733,0,1,1-2.721-2.9A2.732,2.732,0,0,1,609.228,615.146Zm4.255,4h1.376v-3.968c0-1.873,1.024-2.929,2.32-2.929a1.921,1.921,0,0,1,1.889,2.177v4.72h1.36v-4.928a2.949,2.949,0,0,0-3.025-3.233,2.829,2.829,0,0,0-2.544,1.392v-1.232h-1.376v8Zm16.272,0h1.152l3.7-8h-1.536l-2.737,6.049-2.736-6.049h-1.536Zm8.3-11.121a0.966,0.966,0,0,0-.96-0.976,0.994,0.994,0,0,0-.992.976,0.983,0.983,0,0,0,.992.976A0.956,0.956,0,0,0,638.059,608.025ZM636.4,619.146h1.376v-8H636.4v8Zm5.76-1.232a3.508,3.508,0,0,0,2.816,1.392,4.168,4.168,0,0,0,0-8.321,3.508,3.508,0,0,0-2.816,1.392v-5.232h-1.377v12h1.377v-1.232Zm5.328-2.768a2.725,2.725,0,1,1-2.72-2.9A2.731,2.731,0,0,1,647.483,615.146Zm3.151,0a4.218,4.218,0,0,0,7.745,2.256l-1.088-.752a2.833,2.833,0,0,1-5.265-1.232h6.561A3.9,3.9,0,0,0,658.6,615a3.728,3.728,0,0,0-3.808-4.017A4.054,4.054,0,0,0,650.634,615.146Zm4.113-2.945a2.394,2.394,0,0,1,2.448,2.1h-5.073A2.616,2.616,0,0,1,654.747,612.2Zm11.392,4.721c0-1.2-.752-1.968-2.112-2.416l-0.864-.288c-0.945-.3-1.233-0.608-1.233-1.121a1.133,1.133,0,0,1,1.345-.928,2.161,2.161,0,0,1,1.7.832l0.9-.864a3.1,3.1,0,0,0-2.56-1.152c-1.585,0-2.705.88-2.705,2.176a2.415,2.415,0,0,0,1.984,2.321l0.785,0.256c1.04,0.336,1.424.72,1.424,1.28a1.218,1.218,0,0,1-1.408,1.088,2.147,2.147,0,0,1-2.049-1.264l-1.12.608a3.178,3.178,0,0,0,3.137,1.856C664.971,619.306,666.139,618.49,666.139,616.922Zm7.135,2.224h1.376v-6.737h2.321v-1.264H674.65v-1.472a1.152,1.152,0,0,1,1.329-1.36,3.222,3.222,0,0,1,.992.16v-1.216a3.636,3.636,0,0,0-1.248-.208,2.285,2.285,0,0,0-2.449,2.48v1.616h-1.7v1.264h1.7v6.737Zm13.121-4a4.185,4.185,0,1,0-4.176,4.16A4.106,4.106,0,0,0,686.4,615.146Zm-6.961,0a2.778,2.778,0,1,1,2.785,2.88A2.751,2.751,0,0,1,679.434,615.146Zm9.328,4h1.376v-3.968c0-1.873,1.1-2.753,2.112-2.753a2.02,2.02,0,0,1,.753.128v-1.424a2.86,2.86,0,0,0-.625-0.064,2.38,2.38,0,0,0-2.24,1.632v-1.552h-1.376v8Zm9.536-4a4,4,0,0,0,3.92,4.16,3.509,3.509,0,0,0,2.817-1.392v1.232h1.376v-8h-1.376v1.232a3.509,3.509,0,0,0-2.817-1.392A4,4,0,0,0,698.3,615.146Zm6.849,0a2.733,2.733,0,1,1-2.721-2.9A2.732,2.732,0,0,1,705.147,615.146Zm4.255,4h1.376v-12H709.4v12Zm4.384,0h1.376v-12h-1.376v12ZM33.811,646.491l5.249-11.346H37.524l-2.736,6.065-2.752-6.065h-1.52l3.5,7.585-1.744,3.761h1.536Zm14.577-7.345a4.185,4.185,0,1,0-4.177,4.16A4.106,4.106,0,0,0,48.388,639.146Zm-6.961,0a2.778,2.778,0,1,1,2.784,2.88A2.751,2.751,0,0,1,41.427,639.146Zm9.216,0.912c0,1.984,1.184,3.248,2.944,3.248a2.753,2.753,0,0,0,2.464-1.392v1.232h1.376v-8H56.051v3.969c0,1.84-.976,2.928-2.224,2.928-1.1,0-1.808-.848-1.808-2.192v-4.705H50.643v4.913Zm9.776,3.088h1.376v-3.968c0-1.873,1.1-2.753,2.112-2.753a2.011,2.011,0,0,1,.752.128v-1.424a2.851,2.851,0,0,0-.624-0.064,2.381,2.381,0,0,0-2.24,1.632v-1.552H60.419v8Zm9.536-4a4,4,0,0,0,3.921,4.16,3.509,3.509,0,0,0,2.816-1.392v1.232h1.376v-8H76.691v1.232a3.509,3.509,0,0,0-2.816-1.392A4,4,0,0,0,69.954,639.146Zm6.849,0a2.733,2.733,0,1,1-2.72-2.9A2.732,2.732,0,0,1,76.8,639.146Zm3.631,0a4,4,0,0,0,3.921,4.16,3.509,3.509,0,0,0,2.816-1.392v1.232h1.376v-12H87.171v5.232a3.509,3.509,0,0,0-2.816-1.392A4,4,0,0,0,80.434,639.146Zm6.849,0a2.733,2.733,0,1,1-2.72-2.9A2.732,2.732,0,0,1,87.283,639.146Zm6.751,4h1.152l3.7-8H97.347l-2.736,6.049-2.736-6.049H90.338Zm5.84-4a4.218,4.218,0,0,0,7.745,2.256l-1.088-.752a2.833,2.833,0,0,1-5.265-1.232h6.561a3.9,3.9,0,0,0,.016-0.416,3.728,3.728,0,0,0-3.808-4.017A4.054,4.054,0,0,0,99.874,639.146Zm4.113-2.945a2.394,2.394,0,0,1,2.448,2.1h-5.073A2.616,2.616,0,0,1,103.987,636.2Zm6.207,6.945h1.376v-3.968c0-1.873,1.024-2.929,2.321-2.929a1.921,1.921,0,0,1,1.888,2.177v4.72h1.36v-4.928a2.949,2.949,0,0,0-3.024-3.233,2.829,2.829,0,0,0-2.545,1.392v-1.232h-1.376v8Zm14.065-.112V641.8a3.052,3.052,0,0,1-.977.16,1.152,1.152,0,0,1-1.328-1.36v-4.193h2.305v-1.264h-2.305v-2.224h-1.376v2.224h-1.7v1.264h1.7v4.369a2.252,2.252,0,0,0,2.448,2.448A3.84,3.84,0,0,0,124.259,643.034Zm2.047-2.976c0,1.984,1.184,3.248,2.944,3.248a2.754,2.754,0,0,0,2.465-1.392v1.232h1.376v-8h-1.376v3.969c0,1.84-.977,2.928-2.225,2.928-1.1,0-1.808-.848-1.808-2.192v-4.705h-1.376v4.913Zm9.776,3.088h1.376v-3.968c0-1.873,1.1-2.753,2.112-2.753a2.011,2.011,0,0,1,.752.128v-1.424a2.851,2.851,0,0,0-.624-0.064,2.38,2.38,0,0,0-2.24,1.632v-1.552h-1.376v8Zm5.344-4a4.218,4.218,0,0,0,7.745,2.256l-1.088-.752a2.833,2.833,0,0,1-5.265-1.232h6.561A3.9,3.9,0,0,0,149.4,639a3.728,3.728,0,0,0-3.809-4.017A4.054,4.054,0,0,0,141.426,639.146Zm4.112-2.945a2.394,2.394,0,0,1,2.449,2.1h-5.073A2.615,2.615,0,0,1,145.538,636.2Zm11.392,4.721c0-1.2-.752-1.968-2.112-2.416l-0.864-.288c-0.944-.3-1.232-0.608-1.232-1.121a1.132,1.132,0,0,1,1.344-.928,2.161,2.161,0,0,1,1.7.832l0.9-.864a3.1,3.1,0,0,0-2.56-1.152c-1.584,0-2.7.88-2.7,2.176a2.415,2.415,0,0,0,1.984,2.321l0.784,0.256c1.04,0.336,1.424.72,1.424,1.28a1.218,1.218,0,0,1-1.408,1.088,2.147,2.147,0,0,1-2.048-1.264l-1.12.608a3.178,3.178,0,0,0,3.136,1.856C155.762,643.306,156.93,642.49,156.93,640.922Zm4.272,1.152a1.184,1.184,0,1,0-1.184,1.2A1.205,1.205,0,0,0,161.2,642.074Z"/>
  <path id="At_Ease:_A_Military_Story" data-name="At Ease: A Military Story" class="cls-1" d="M28.556,551.436h5.473l2.077-4.946H45.8l2.077,4.946h5.473L43.326,528.027H38.579Zm9.462-9.5,2.934-7.055,2.934,7.055H38.018Zm21.651,9.5h5.275v-18.4h6.033v-5.012H53.7v5.012h5.968v18.4Zm24.786,0H99.291v-5.012H89.7v-4.187h7.616v-5.011H89.7v-4.187h9.594v-5.012H84.455v23.409Zm18.317,0h5.473l2.077-4.946h9.693l2.078,4.946h5.473l-10.023-23.409H112.8Zm9.463-9.5,2.934-7.055,2.934,7.055h-5.868Zm26.136,9.891c4.945,0,8.341-2.967,8.374-7.22,0.033-3.528-2.176-5.77-5.572-6.99l-1.648-.593c-2.473-.89-3.627-1.451-3.627-2.7,0-1.219,1.418-1.78,2.835-1.78a5.207,5.207,0,0,1,4.056,1.945l3.428-3.626a9.766,9.766,0,0,0-7.55-3.231c-4.681,0-8.077,2.67-8.077,7.22,0,3.2,2.11,5.473,5.9,6.759l1.649,0.56c2.341,0.792,3.264,1.616,3.264,2.8,0,1.121-1.088,1.945-2.836,1.945a6.123,6.123,0,0,1-4.846-2.671l-4.023,3.4A10.266,10.266,0,0,0,138.371,551.831Zm14-.395h14.837v-5.012h-9.594v-4.187h7.616v-5.011h-7.616v-4.187h9.594v-5.012H152.368v23.409Zm23.428-9.792a3.528,3.528,0,1,0-3.528-3.528A3.532,3.532,0,0,0,175.8,541.644Zm0,10.056a3.528,3.528,0,1,0-3.528-3.528A3.532,3.532,0,0,0,175.8,551.7Zm15.283-.264h5.473l2.077-4.946h9.693l2.078,4.946h5.473L205.85,528.027H201.1Zm9.463-9.5,2.934-7.055,2.934,7.055h-5.868Zm40.122,4.517L247.489,537v14.441h5.275V528.027h-4.78l-7.32,10.089-7.319-10.089h-4.781v23.409h5.243V537Zm19.052,4.979h5.242V528.027h-5.242v23.409Zm12.177,0h14.935v-5.012h-9.693v-18.4h-5.242v23.409Zm20.2,0h5.242V528.027h-5.242v23.409Zm16.4,0h5.275v-18.4h6.034v-5.012H302.517v5.012h5.968v18.4Zm11.622,0h5.473l2.077-4.946h9.693l2.078,4.946H344.9l-10.023-23.409H330.13Zm9.463-9.5,2.934-7.055,2.934,7.055H329.57Zm19.773,9.5h5.242v-9.66h0.857l7.781,9.66h6.3l-8.275-10.32c2.967-1.055,4.583-3,4.583-6.033a6.912,6.912,0,0,0-7.254-7.056h-9.231v23.409Zm5.242-14.111v-4.484h3.363c1.55,0,2.671.824,2.671,2.242,0,1.351-1.121,2.242-2.671,2.242h-3.363Zm23.033,14.111h5.275v-9.825l8.539-13.584h-6.1l-5.11,8.44-5.045-8.44h-6.1l8.539,13.551v9.858Zm33.989,0.395c4.945,0,8.341-2.967,8.374-7.22,0.033-3.528-2.176-5.77-5.572-6.99l-1.648-.593c-2.473-.89-3.627-1.451-3.627-2.7,0-1.219,1.418-1.78,2.835-1.78a5.207,5.207,0,0,1,4.056,1.945l3.429-3.626a9.768,9.768,0,0,0-7.551-3.231c-4.681,0-8.077,2.67-8.077,7.22,0,3.2,2.11,5.473,5.9,6.759l1.649,0.56c2.341,0.792,3.264,1.616,3.264,2.8,0,1.121-1.088,1.945-2.835,1.945a6.123,6.123,0,0,1-4.847-2.671l-4.022,3.4A10.262,10.262,0,0,0,411.607,551.831Zm17.888-.395h5.275v-18.4H440.8v-5.012H423.528v5.012H429.5v18.4Zm26.394,0.395a12.1,12.1,0,1,0-12.1-12.1A12.129,12.129,0,0,0,455.889,551.831Zm0-5.077a7.026,7.026,0,1,1,6.792-7.023A6.946,6.946,0,0,1,455.889,546.754Zm17.73,4.682h5.243v-9.66h0.857l7.781,9.66h6.3l-8.275-10.32c2.967-1.055,4.582-3,4.582-6.033a6.911,6.911,0,0,0-7.253-7.056h-9.232v23.409Zm5.243-14.111v-4.484h3.363c1.549,0,2.67.824,2.67,2.242,0,1.351-1.121,2.242-2.67,2.242h-3.363ZM501.9,551.436h5.275v-9.825l8.539-13.584h-6.1l-5.11,8.44-5.044-8.44h-6.1l8.54,13.551v9.858Z"/>
  <g id="Number_copy_5" data-name="Number copy 5">
    <path id="_01" data-name="01" class="cls-1" d="M1310.13,632.1v-3.724c0-3.2-2.13-5.466-5.13-5.466s-5.12,2.263-5.12,5.466V632.1c0,3.2,2.13,5.465,5.12,5.465S1310.13,635.3,1310.13,632.1Zm-8.06,0v-3.724c0-2.062,1.21-3.3,2.93-3.3s2.94,1.242,2.94,3.3V632.1c0,2.082-1.21,3.3-2.94,3.3S1302.07,634.182,1302.07,632.1Zm14.93,5.265h2.19V623.15h-3.36l-1.67,2.183H1317v12.032Z"/>
    <path id="_03" data-name="03" class="cls-1" d="M1310.13,687.458v-3.724c0-3.2-2.13-5.465-5.13-5.465s-5.12,2.262-5.12,5.465v3.724c0,3.2,2.13,5.466,5.12,5.466S1310.13,690.662,1310.13,687.458Zm-8.06,0v-3.724c0-2.062,1.21-3.3,2.93-3.3s2.94,1.241,2.94,3.3v3.724c0,2.083-1.21,3.3-2.94,3.3S1302.07,689.541,1302.07,687.458Zm20.31,1.262a3.549,3.549,0,0,0-2.13-3.364,3.631,3.631,0,0,0,1.73-3.083c0.02-2.322-1.79-4-4.42-4a4.548,4.548,0,0,0-4.79,4.585h2.21a2.381,2.381,0,0,1,2.58-2.423,2.028,2.028,0,0,1,2.21,1.982,2.094,2.094,0,0,1-2.32,2.022h-1.12v1.882h1.12c1.63,0,2.72.761,2.72,2.263a2.264,2.264,0,0,1-2.53,2.182,2.721,2.721,0,0,1-2.94-2.5h-2.19a4.811,4.811,0,0,0,5.13,4.665C1320.45,692.924,1322.38,691.222,1322.38,688.72Z"/>
    <path class="cls-2" d="M1293,658v-1h37v1h-37Z"/>
  </g>
  <g id="X_copy_4" data-name="X copy 4">
    <path id="Rectangle_116_copy_2" data-name="Rectangle 116 copy 2" class="cls-1" d="M1330.01,58.336l-0.94.929L1315.38,45.7,1300.94,60l-0.95-.938,14.44-14.3-13.96-13.832,0.94-.929,13.96,13.832,13.5-13.383,0.95,0.938-13.51,13.383Z"/>
  </g>
  <g id="R_copy_5" data-name="R copy 5">
    <path id="Rectangle_116_copy" data-name="Rectangle 116 copy" class="cls-1" d="M1328.51,362.768l-0.07-.068-27.94,27.9-0.95-.941,27.95-27.9-27.47-27.421,0.93-.932,28.49,28.431Z"/>
  </g>
</svg>
