<svg id="copy_copy_2" data-name="copy copy 2" xmlns="http://www.w3.org/2000/svg" width="1360" height="723" viewBox="0 0 1360 723">
  <defs>
    <style>
      .cls-1, .cls-2 {
        fill-rule: evenodd;
      }

      .cls-2 {
        fill: #fff;
      }
    </style>
  </defs>
  <path id="SHOP_now" data-name="SHOP now" class="cls-1" d="M564.036,635.492a2.943,2.943,0,0,0,2.651,1.409,2.257,2.257,0,0,0,2.483-2.256,2.331,2.331,0,0,0-1.75-2.289l-0.754-.3c-0.765-.3-1.132-0.55-1.132-1.122a1.034,1.034,0,0,1,1.174-.9,1.772,1.772,0,0,1,1.414.726l0.849-.869a2.81,2.81,0,0,0-2.253-1.068,2.2,2.2,0,0,0-2.42,2.2,2.26,2.26,0,0,0,1.76,2.2l0.817,0.308a1.3,1.3,0,0,1,1.059,1.188,1.06,1.06,0,0,1-1.2.968,2.006,2.006,0,0,1-1.729-1Zm8.348,1.277h1.226v-3.356h3.677v3.356h1.226v-7.813h-1.226v3.235H573.61v-3.235h-1.226v7.813Zm17.063-3.906A3.85,3.85,0,1,0,585.6,636.9,3.927,3.927,0,0,0,589.447,632.863Zm-6.454,0a2.61,2.61,0,1,1,2.609,2.794A2.678,2.678,0,0,1,582.993,632.863Zm12.045-3.907h-2.367v7.813H593.9v-2.707h1.142A2.553,2.553,0,1,0,595.038,628.956Zm-0.01,3.9H593.9v-2.685h1.132A1.343,1.343,0,1,1,595.028,632.852Zm16.193,3.917v-7.813h-1.236v5.6l-4.181-5.6h-1.068v7.813h1.226v-5.623l4.19,5.623h1.069Zm10.924-3.906A3.85,3.85,0,1,0,618.3,636.9,3.927,3.927,0,0,0,622.145,632.863Zm-6.454,0a2.61,2.61,0,1,1,2.609,2.794A2.678,2.678,0,0,1,615.691,632.863Zm15.45,3.906h1.131l1.928-7.813h-1.3l-1.362,5.678-2.127-5.81-2.126,5.81-1.362-5.678h-1.289l1.917,7.813h1.132l1.728-4.776Zm-67.44,2.568v-0.99h72.36v0.99H563.7Z"/>
  <path id="Slim_Brushed_Motion-Stretch_Blazer_" data-name="Slim Brushed Motion-Stretch Blazer " class="cls-1" d="M511.97,590.61c2.4,0,4.049-1.44,4.065-3.5,0.016-1.712-1.056-2.8-2.7-3.392l-0.8-.288c-1.2-.432-1.76-0.7-1.76-1.312a1.166,1.166,0,0,1,1.376-.864,2.527,2.527,0,0,1,1.969.944l1.664-1.761a4.741,4.741,0,0,0-3.665-1.568c-2.272,0-3.92,1.3-3.92,3.5,0,1.552,1.024,2.656,2.864,3.28l0.8,0.272c1.137,0.384,1.585.784,1.585,1.36a1.153,1.153,0,0,1-1.377.945,2.973,2.973,0,0,1-2.352-1.3l-1.952,1.649A4.981,4.981,0,0,0,511.97,590.61Zm7.1-.192h7.249v-2.432h-4.7v-8.93h-2.544v11.362Zm10.112,0h2.544V579.056h-2.544v11.362Zm12.1-2.416,3.313-4.593v7.009h2.56V579.056h-2.32l-3.553,4.9-3.552-4.9h-2.321v11.362h2.545v-7.009Zm14.351,2.416h4.993a3.359,3.359,0,0,0,3.456-3.345,2.969,2.969,0,0,0-1.616-2.688,2.674,2.674,0,0,0,.816-1.952,3.377,3.377,0,0,0-3.376-3.377h-4.273v11.362Zm2.544-6.769v-2.272h1.44a1.155,1.155,0,0,1,1.185,1.152,1.139,1.139,0,0,1-1.185,1.12h-1.44Zm0,4.433v-2.273H560.4a1.156,1.156,0,0,1,1.2,1.136,1.142,1.142,0,0,1-1.184,1.137h-2.241Zm8.9,2.336h2.544v-4.689h0.416l3.777,4.689h3.056l-4.016-5.009a2.932,2.932,0,0,0,2.224-2.928,3.354,3.354,0,0,0-3.521-3.425h-4.48v11.362Zm2.544-6.849v-2.176h1.632a1.132,1.132,0,0,1,1.3,1.088,1.15,1.15,0,0,1-1.3,1.088h-1.632Zm13.665,7.041a4.456,4.456,0,0,0,4.672-4.689v-6.865H585.41v6.9a2.129,2.129,0,1,1-4.257,0v-6.9h-2.544v6.865A4.447,4.447,0,0,0,583.282,590.61Zm11.615,0c2.4,0,4.049-1.44,4.065-3.5,0.016-1.712-1.056-2.8-2.705-3.392l-0.8-.288c-1.2-.432-1.76-0.7-1.76-1.312a1.166,1.166,0,0,1,1.376-.864,2.527,2.527,0,0,1,1.968.944l1.665-1.761a4.742,4.742,0,0,0-3.665-1.568c-2.272,0-3.92,1.3-3.92,3.5,0,1.552,1.024,2.656,2.864,3.28l0.8,0.272c1.136,0.384,1.584.784,1.584,1.36a1.153,1.153,0,0,1-1.376.945,2.973,2.973,0,0,1-2.352-1.3l-1.952,1.649A4.981,4.981,0,0,0,594.9,590.61Zm7.1-.192h2.545v-4.5h4.576v4.5h2.545V579.056h-2.545v4.449h-4.576v-4.449H602v11.362Zm13.344,0h7.2v-2.432h-4.656v-2.033h3.7v-2.432h-3.7v-2.032h4.656v-2.433h-7.2v11.362Zm10.417,0h3.872a5.682,5.682,0,1,0,0-11.362h-3.872v11.362Zm2.544-2.336v-6.689h1.328a3.347,3.347,0,0,1,0,6.689H628.3ZM410.212,612l3.312-4.593v7.009h2.561V603.056h-2.321l-3.552,4.9-3.553-4.9h-2.32v11.362h2.544v-7.009ZM425,614.61a5.873,5.873,0,1,0-5.872-5.873A5.887,5.887,0,0,0,425,614.61Zm0-2.464a3.41,3.41,0,1,1,3.3-3.409A3.371,3.371,0,0,1,425,612.146Zm10.528,2.272h2.56v-8.929h2.929v-2.433h-8.386v2.433h2.9v8.929Zm8.319,0h2.545V603.056h-2.545v11.362ZM455.3,614.61a5.873,5.873,0,1,0-5.873-5.873A5.887,5.887,0,0,0,455.3,614.61Zm0-2.464a3.41,3.41,0,1,1,3.3-3.409A3.371,3.371,0,0,1,455.3,612.146Zm19.185,2.272V603.056h-2.561v7.009l-5.521-7.009H464.21v11.362h2.544v-7.025l5.537,7.025h2.193Zm3.406-4.529H482.6v-2.3H477.89v2.3Zm11.5,4.721c2.4,0,4.049-1.44,4.065-3.5,0.016-1.712-1.056-2.8-2.7-3.392l-0.8-.288c-1.2-.432-1.76-0.7-1.76-1.312a1.166,1.166,0,0,1,1.376-.864,2.53,2.53,0,0,1,1.969.944l1.664-1.761a4.742,4.742,0,0,0-3.665-1.568c-2.272,0-3.92,1.3-3.92,3.5,0,1.552,1.024,2.656,2.864,3.28l0.8,0.272c1.136,0.384,1.584.784,1.584,1.36a1.153,1.153,0,0,1-1.376.945,2.973,2.973,0,0,1-2.352-1.3l-1.952,1.649A4.981,4.981,0,0,0,489.394,614.61Zm8.992-.192h2.56v-8.929h2.929v-2.433H495.49v2.433h2.9v8.929Zm8.32,0h2.544v-4.689h0.416l3.777,4.689H516.5l-4.017-5.009a2.932,2.932,0,0,0,2.225-2.928,3.355,3.355,0,0,0-3.521-3.425h-4.48v11.362Zm2.544-6.849v-2.176h1.632a1.132,1.132,0,0,1,1.3,1.088,1.15,1.15,0,0,1-1.3,1.088H509.25Zm9.327,6.849h7.2v-2.432h-4.656v-2.033h3.7v-2.432h-3.7v-2.032h4.656v-2.433h-7.2v11.362Zm12.465,0h2.56v-8.929h2.928v-2.433h-8.385v2.433h2.9v8.929Zm13.12,0.192a5.873,5.873,0,0,0,5.313-3.105l-2.24-1.216a3.408,3.408,0,1,1,0-3.1l2.24-1.216A5.923,5.923,0,1,0,544.162,614.61Zm8.079-.192h2.545v-4.5h4.576v4.5h2.545V603.056h-2.545v4.449h-4.576v-4.449h-2.545v11.362Zm18.144,0h4.993a3.359,3.359,0,0,0,3.456-3.345,2.969,2.969,0,0,0-1.616-2.688,2.674,2.674,0,0,0,.816-1.952,3.377,3.377,0,0,0-3.376-3.377h-4.273v11.362Zm2.544-6.769v-2.272h1.441a1.155,1.155,0,0,1,1.184,1.152,1.139,1.139,0,0,1-1.184,1.12h-1.441Zm0,4.433v-2.273h2.225a1.156,1.156,0,0,1,1.2,1.136,1.142,1.142,0,0,1-1.184,1.137h-2.241Zm8.9,2.336h7.249v-2.432h-4.7v-8.93h-2.544v11.362Zm8.9,0h2.656l1.008-2.4h4.705l1.008,2.4h2.656l-4.864-11.362h-2.3Zm4.592-4.609,1.424-3.424,1.425,3.424h-2.849Zm9.328,4.609h8.769v-2.432h-5.329l5.233-7.186v-1.744h-8.593v2.433h5.136l-5.216,7.185v1.744Zm11.872,0h7.2v-2.432h-4.657v-2.033h3.7v-2.432h-3.7v-2.032h4.657v-2.433h-7.2v11.362Zm10.416,0h2.544v-4.689h0.416l3.777,4.689h3.056l-4.017-5.009a2.932,2.932,0,0,0,2.225-2.928,3.354,3.354,0,0,0-3.521-3.425h-4.48v11.362Zm2.544-6.849v-2.176h1.632a1.132,1.132,0,0,1,1.3,1.088,1.15,1.15,0,0,1-1.3,1.088h-1.632Z"/>
  <g id="Number_copy_9" data-name="Number copy 9">
    <path id="_02" data-name="02" class="cls-2" d="M1310.13,632.1v-3.724c0-3.2-2.13-5.466-5.13-5.466s-5.12,2.263-5.12,5.466V632.1c0,3.2,2.13,5.465,5.12,5.465S1310.13,635.3,1310.13,632.1Zm-8.06,0v-3.724c0-2.062,1.21-3.3,2.93-3.3s2.94,1.242,2.94,3.3V632.1c0,2.082-1.21,3.3-2.94,3.3S1302.07,634.182,1302.07,632.1Zm19.91,3.1h-6.47c0.36-1.281,1.94-2.082,3.21-3.043,2.07-1.5,3.12-2.723,3.12-4.985a4.12,4.12,0,0,0-4.43-4.265,4.527,4.527,0,0,0-4.78,4.585h2.21a2.394,2.394,0,0,1,2.55-2.423,2.076,2.076,0,0,1,2.24,2.163c0,1.441-.91,2.242-2.36,3.3-2.07,1.542-4.64,2.9-4.64,6.026v0.8h9.35V635.2Z"/>
    <path id="_03" data-name="03" class="cls-2" d="M1310.13,687.458v-3.724c0-3.2-2.13-5.465-5.13-5.465s-5.12,2.262-5.12,5.465v3.724c0,3.2,2.13,5.466,5.12,5.466S1310.13,690.662,1310.13,687.458Zm-8.06,0v-3.724c0-2.062,1.21-3.3,2.93-3.3s2.94,1.241,2.94,3.3v3.724c0,2.083-1.21,3.3-2.94,3.3S1302.07,689.541,1302.07,687.458Zm20.31,1.262a3.549,3.549,0,0,0-2.13-3.364,3.631,3.631,0,0,0,1.73-3.083c0.02-2.322-1.79-4-4.42-4a4.548,4.548,0,0,0-4.79,4.585h2.21a2.381,2.381,0,0,1,2.58-2.423,2.028,2.028,0,0,1,2.21,1.982,2.094,2.094,0,0,1-2.32,2.022h-1.12v1.882h1.12c1.63,0,2.72.761,2.72,2.263a2.264,2.264,0,0,1-2.53,2.182,2.721,2.721,0,0,1-2.94-2.5h-2.19a4.811,4.811,0,0,0,5.13,4.665C1320.45,692.924,1322.38,691.222,1322.38,688.72Z"/>
    <path class="cls-2" d="M1293,658v-1h37v1h-37Z"/>
  </g>
  <g id="X_copy_8" data-name="X copy 8">
    <path id="Rectangle_116_copy_2" data-name="Rectangle 116 copy 2" class="cls-1" d="M1330.01,58.336l-0.94.929L1315.38,45.7,1300.94,60l-0.95-.938,14.44-14.3-13.96-13.832,0.94-.929,13.96,13.832,13.5-13.383,0.95,0.938-13.51,13.383Z"/>
  </g>
  <g id="R_copy_9" data-name="R copy 9">
    <path id="Rectangle_116_copy" data-name="Rectangle 116 copy" class="cls-1" d="M1328.51,362.768l-0.07-.068-27.94,27.9-0.95-.941,27.95-27.9-27.47-27.421,0.93-.932,28.49,28.431Z"/>
  </g>
  <g id="L_copy_9" data-name="L copy 9">
    <path id="Rectangle_116_copy-2" data-name="Rectangle 116 copy" class="cls-1" d="M57.12,334.161L29.782,361.739l26.874,27.11-0.913.921L27.88,361.663l0.913-.921,0.066,0.066L56.2,333.23Z"/>
  </g>
</svg>
