<svg id="copy" xmlns="http://www.w3.org/2000/svg" width="672" height="1097" viewBox="0 0 672 1097">
  <defs>
    <style>
      .cls-1, .cls-3 {
        fill: #fff;
      }

      .cls-1, .cls-3, .cls-4 {
        fill-rule: evenodd;
      }

      .cls-1, .cls-2 {
        opacity: 0.77;
      }

      .cls-2 {
        fill: none;
        stroke: #fff;
        stroke-width: 5px;
      }
    </style>
  </defs>
  <g id="play_copy" data-name="play copy">
    <path id="Polygon_598" data-name="Polygon 598" class="cls-1" d="M367.116,336.493l-45.34,43.536V292.956Z"/>
    <circle class="cls-2" cx="335.5" cy="336.5" r="80.5"/>
  </g>
  <g id="closeBtn_copy" data-name="closeBtn copy">
    <path id="Shape_593_copy" data-name="Shape 593 copy" class="cls-3" d="M648.164,23.987l0.848,0.847L617.836,56.011l-0.848-.847Zm-30.328,0-0.848.847,31.176,31.177,0.848-.847Z"/>
  </g>
  <path id="CELEBRATING_40_YEARS_OF_ICONIC_STYLE_copy" data-name="CELEBRATING 40 YEARS OF ICONIC STYLE copy" class="cls-3" d="M93.634,476.176a7.915,7.915,0,0,0,7.16-4.185l-3.019-1.64a4.6,4.6,0,1,1,0-4.185l3.019-1.64A7.983,7.983,0,1,0,93.634,476.176Zm10.895-.258h9.7v-3.28h-6.276V469.9h4.982v-3.279h-4.982v-2.74h6.276V460.6h-9.7v15.319Zm14.042,0h9.768v-3.28H122V460.6h-3.428v15.319Zm13.631,0h9.7v-3.28h-6.275V469.9h4.982v-3.279h-4.982v-2.74h6.275V460.6h-9.7v15.319Zm14.042,0h6.729a4.528,4.528,0,0,0,4.657-4.51,4,4,0,0,0-2.178-3.624,3.6,3.6,0,0,0,1.1-2.632A4.552,4.552,0,0,0,152,460.6h-5.758v15.319Zm3.429-9.127v-3.063h1.941a1.557,1.557,0,0,1,1.6,1.553,1.535,1.535,0,0,1-1.6,1.51h-1.941Zm0,5.977V469.7h3a1.558,1.558,0,0,1,1.617,1.532,1.539,1.539,0,0,1-1.6,1.532h-3.019Zm11.994,3.15H165.1V469.6h0.561l5.089,6.322h4.119l-5.412-6.753a3.955,3.955,0,0,0,3-3.949,4.522,4.522,0,0,0-4.744-4.617h-6.038v15.319Zm3.428-9.235v-2.934h2.2a1.526,1.526,0,0,1,1.747,1.467,1.55,1.55,0,0,1-1.747,1.467h-2.2Zm10.937,9.235h3.58l1.359-3.237h6.34l1.358,3.237h3.58L185.693,460.6h-3.105Zm6.189-6.214,1.92-4.617,1.919,4.617h-3.839Zm14.582,6.214h3.45V463.879H204.2V460.6H192.9v3.28h3.9v12.039Zm11.217,0h3.429V460.6H208.02v15.319Zm22.235,0V460.6h-3.45v9.45l-7.44-9.45H216.41v15.319h3.429v-9.472l7.462,9.472h2.954Zm12.447,0.258c2.48,0,4.917-.733,6.275-2.265V466.64h-6.34v3.215h3v2.265a4.984,4.984,0,0,1-2.976.734,4.6,4.6,0,1,1-.216-9.191,5.081,5.081,0,0,1,3.86,1.64l2.416-2.352a8.148,8.148,0,0,0-6.276-2.611,7.823,7.823,0,0,0-8.065,7.918C234.378,472.746,237.936,476.176,242.7,476.176Zm23.425-.258h3.256V472.6h1.962v-2.977h-1.962V460.6H266.45l-7.806,9.364V472.6h7.483v3.323Zm0-6.3h-3.515l3.515-4.229v4.229Zm14.559,6.537c3.408,0,5.78-2.589,5.78-6.127v-3.56c0-3.539-2.372-6.128-5.78-6.128-3.428,0-5.8,2.589-5.8,6.128v3.56C274.886,473.566,277.258,476.155,280.686,476.155Zm0-3.215c-1.509,0-2.544-1.079-2.544-2.912v-3.56c0-1.834,1.035-2.913,2.544-2.913,1.488,0,2.523,1.079,2.523,2.913v3.56C283.209,471.861,282.174,472.94,280.686,472.94Zm20.255,2.978h3.45v-6.43l5.585-8.889h-3.989l-3.343,5.524-3.3-5.524h-3.99l5.586,8.868v6.451Zm12.554,0h9.7v-3.28h-6.275V469.9H321.9v-3.279h-4.981v-2.74H323.2V460.6h-9.7v15.319Zm12.4,0h3.58l1.358-3.237h6.34l1.359,3.237h3.58L335.559,460.6h-3.105Zm6.189-6.214,1.919-4.617,1.92,4.617h-3.839Zm13.353,6.214h3.429V469.6h0.56l5.09,6.322h4.118l-5.412-6.753a3.954,3.954,0,0,0,3-3.949,4.522,4.522,0,0,0-4.744-4.617H345.44v15.319Zm3.429-9.235v-2.934h2.2a1.526,1.526,0,0,1,1.747,1.467,1.55,1.55,0,0,1-1.747,1.467h-2.2Zm17.147,9.493c3.235,0,5.456-1.941,5.478-4.724,0.021-2.309-1.424-3.776-3.645-4.574l-1.078-.389c-1.617-.582-2.372-0.949-2.372-1.769,0-.8.927-1.165,1.854-1.165a3.406,3.406,0,0,1,2.653,1.273l2.243-2.373a6.389,6.389,0,0,0-4.939-2.115c-3.062,0-5.283,1.748-5.283,4.725,0,2.093,1.38,3.582,3.86,4.423l1.078,0.367c1.531,0.518,2.135,1.057,2.135,1.834,0,0.733-.712,1.273-1.854,1.273a4,4,0,0,1-3.17-1.748l-2.631,2.222A6.712,6.712,0,0,0,366.016,476.176Zm23.1,0a7.918,7.918,0,1,0-7.914-7.918A7.935,7.935,0,0,0,389.116,476.176Zm0-3.322a4.6,4.6,0,1,1,4.443-4.6A4.544,4.544,0,0,1,389.116,472.854Zm12.016,3.064h3.429v-6h4.679v-3.28h-4.679v-2.761h6V460.6h-9.424v15.319Zm19.435,0H424V460.6h-3.428v15.319Zm15.442,0.258a7.913,7.913,0,0,0,7.159-4.185l-3.019-1.64a4.6,4.6,0,1,1,0-4.185l3.019-1.64A7.983,7.983,0,1,0,436.009,476.176Zm17.946,0a7.918,7.918,0,1,0-7.914-7.918A7.934,7.934,0,0,0,453.955,476.176Zm0-3.322a4.6,4.6,0,1,1,4.442-4.6A4.544,4.544,0,0,1,453.955,472.854Zm25.86,3.064V460.6h-3.45v9.45l-7.44-9.45h-2.954v15.319H469.4v-9.472l7.462,9.472h2.954Zm4.964,0h3.429V460.6h-3.429v15.319Zm15.442,0.258a7.915,7.915,0,0,0,7.16-4.185l-3.019-1.64a4.6,4.6,0,1,1,0-4.185l3.019-1.64A7.983,7.983,0,1,0,500.221,476.176Zm21.937,0c3.235,0,5.456-1.941,5.478-4.724,0.021-2.309-1.424-3.776-3.645-4.574l-1.078-.389c-1.617-.582-2.372-0.949-2.372-1.769,0-.8.927-1.165,1.854-1.165a3.406,3.406,0,0,1,2.653,1.273l2.243-2.373a6.389,6.389,0,0,0-4.939-2.115c-3.062,0-5.283,1.748-5.283,4.725,0,2.093,1.38,3.582,3.86,4.423l1.078,0.367c1.531,0.518,2.135,1.057,2.135,1.834,0,0.733-.711,1.273-1.854,1.273a4,4,0,0,1-3.17-1.748l-2.631,2.222A6.712,6.712,0,0,0,522.158,476.176Zm12.123-.258h3.45V463.879h3.947V460.6h-11.3v3.28h3.9v12.039Zm15.357,0h3.45v-6.43l5.586-8.889h-3.99l-3.342,5.524-3.3-5.524h-3.989l5.585,8.868v6.451Zm12.554,0h9.769v-3.28h-6.34V460.6h-3.429v15.319Zm13.632,0h9.7v-3.28h-6.275V469.9h4.981v-3.279h-4.981v-2.74h6.275V460.6h-9.7v15.319Z"/>
  <path id="Banana_Republic_was_born_from_two_California_creatives_fueled_b_copy" data-name="Banana Republic was born from two California creatives fueled b copy" class="cls-4" d="M38.944,834.323h5.081c2.881,0,4.761-1.781,4.761-4.141a3.384,3.384,0,0,0-2.461-3.4,3.219,3.219,0,0,0,1.52-2.9c0-2-1.6-3.76-4.241-3.76H38.944v14.2Zm1.86-8.1V821.8h2.8a2.233,2.233,0,0,1,2.421,2.22,2.186,2.186,0,0,1-2.421,2.2H40.8Zm0,6.421v-4.821h3.321c1.88,0,2.841,1.04,2.841,2.421,0,1.4-.96,2.4-2.861,2.4H40.8Zm10.18-3.321a5.006,5.006,0,0,0,4.9,5.2,4.388,4.388,0,0,0,3.521-1.741v1.541h1.72v-10h-1.72v1.541a4.388,4.388,0,0,0-3.521-1.741A5.005,5.005,0,0,0,50.984,829.321Zm8.562,0a3.417,3.417,0,1,1-3.4-3.62A3.415,3.415,0,0,1,59.546,829.321Zm5.318,5h1.72v-4.962c0-2.34,1.28-3.66,2.9-3.66,1.4,0,2.361,1.04,2.361,2.72v5.9h1.7v-6.162c0-2.48-1.54-4.041-3.781-4.041a3.536,3.536,0,0,0-3.181,1.741V824.32h-1.72v10Zm11.5-5a5.006,5.006,0,0,0,4.9,5.2,4.387,4.387,0,0,0,3.521-1.741v1.541h1.72v-10h-1.72v1.541a4.387,4.387,0,0,0-3.521-1.741A5.005,5.005,0,0,0,76.365,829.321Zm8.562,0a3.417,3.417,0,1,1-3.4-3.62A3.415,3.415,0,0,1,84.927,829.321Zm5.318,5h1.72v-4.962c0-2.34,1.28-3.66,2.9-3.66,1.4,0,2.361,1.04,2.361,2.72v5.9h1.7v-6.162c0-2.48-1.54-4.041-3.781-4.041a3.536,3.536,0,0,0-3.181,1.741V824.32h-1.72v10Zm11.5-5a5.005,5.005,0,0,0,4.9,5.2,4.388,4.388,0,0,0,3.521-1.741v1.541h1.72v-10h-1.72v1.541a4.388,4.388,0,0,0-3.521-1.741A5.005,5.005,0,0,0,101.745,829.321Zm8.562,0a3.417,3.417,0,1,1-3.4-3.62A3.415,3.415,0,0,1,110.307,829.321Zm10.958,5h1.86v-6.462h1.381l5.461,6.462h2.341l-5.462-6.482a3.705,3.705,0,0,0,3.5-3.8c0-2.34-1.62-3.92-4.241-3.92h-4.841v14.2Zm1.86-8.122V821.84h2.761c1.62,0,2.6.76,2.6,2.2,0,1.421-.981,2.161-2.6,2.161h-2.761Zm10,3.12a5.273,5.273,0,0,0,9.682,2.821l-1.36-.94a3.542,3.542,0,0,1-6.582-1.54h8.2a4.907,4.907,0,0,0,.02-0.521c-0.02-3.2-2.14-5.021-4.761-5.021A5.068,5.068,0,0,0,133.125,829.321Zm5.141-3.68a2.992,2.992,0,0,1,3.061,2.62h-6.342A3.27,3.27,0,0,1,138.266,825.641Zm7.759,12.862h1.721v-5.721a4.387,4.387,0,0,0,3.521,1.741,5.211,5.211,0,0,0,0-10.4,4.387,4.387,0,0,0-3.521,1.741V824.32h-1.721V838.5Zm8.382-9.182a3.407,3.407,0,1,1-3.4-3.62A3.415,3.415,0,0,1,154.407,829.321Zm4.6,1.141c0,2.48,1.48,4.061,3.68,4.061a3.442,3.442,0,0,0,3.081-1.741v1.541h1.721v-10h-1.721v4.961c0,2.3-1.22,3.661-2.78,3.661-1.381,0-2.261-1.06-2.261-2.74V824.32h-1.72v6.142Zm13.94,2.32a4.388,4.388,0,0,0,3.521,1.741,5.211,5.211,0,0,0,0-10.4,4.388,4.388,0,0,0-3.521,1.741v-6.542h-1.72v15h1.72v-1.541Zm6.662-3.461a3.408,3.408,0,1,1-3.4-3.62A3.415,3.415,0,0,1,179.608,829.321Zm4.718,5h1.72v-15h-1.72v15Zm7.56-13.9a1.208,1.208,0,0,0-1.2-1.221,1.242,1.242,0,0,0-1.24,1.221,1.229,1.229,0,0,0,1.24,1.22A1.2,1.2,0,0,0,191.886,820.42Zm-2.08,13.9h1.72v-10h-1.72v10Zm14.562-2.481-1.5-.84a3.391,3.391,0,0,1-3.121,1.92,3.6,3.6,0,0,1,0-7.2,3.391,3.391,0,0,1,3.121,1.92l1.5-.84a5.181,5.181,0,0,0-4.621-2.681,5.2,5.2,0,1,0,0,10.4A5.181,5.181,0,0,0,204.368,831.842Zm16.22,2.481h1.52l3.4-10h-1.82l-2.421,7.3-2.5-7.3h-1.321l-2.5,7.3-2.421-7.3h-1.8l3.4,10h1.52l2.48-7.2Zm6.458-5a5.005,5.005,0,0,0,4.9,5.2,4.387,4.387,0,0,0,3.521-1.741v1.541h1.72v-10h-1.72v1.541a4.387,4.387,0,0,0-3.521-1.741A5.005,5.005,0,0,0,227.046,829.321Zm8.562,0a3.417,3.417,0,1,1-3.4-3.62A3.415,3.415,0,0,1,235.608,829.321Zm11.8,2.221c0-1.5-.94-2.461-2.641-3.021l-1.08-.36c-1.18-.38-1.54-0.76-1.54-1.4,0-.74.74-1.16,1.68-1.16a2.705,2.705,0,0,1,2.121,1.04l1.12-1.08a3.878,3.878,0,0,0-3.2-1.441c-1.98,0-3.381,1.1-3.381,2.721,0,1.4.86,2.38,2.481,2.9l0.98,0.32c1.3,0.42,1.78.9,1.78,1.6a1.522,1.522,0,0,1-1.76,1.36,2.686,2.686,0,0,1-2.561-1.58l-1.4.76a3.974,3.974,0,0,0,3.921,2.321C245.948,834.523,247.408,833.5,247.408,831.542Zm10.059,1.24a4.387,4.387,0,0,0,3.521,1.741,5.211,5.211,0,0,0,0-10.4,4.387,4.387,0,0,0-3.521,1.741v-6.542h-1.721v15h1.721v-1.541Zm6.661-3.461a3.407,3.407,0,1,1-3.4-3.62A3.415,3.415,0,0,1,264.128,829.321Zm14.381,0a5.232,5.232,0,1,0-5.222,5.2A5.134,5.134,0,0,0,278.509,829.321Zm-8.7,0a3.473,3.473,0,1,1,3.48,3.6A3.437,3.437,0,0,1,269.807,829.321Zm11.659,5h1.721v-4.962c0-2.34,1.38-3.44,2.64-3.44a2.516,2.516,0,0,1,.941.16V824.3a3.564,3.564,0,0,0-.78-0.08,2.976,2.976,0,0,0-2.8,2.041V824.32h-1.721v10Zm7.821,0h1.72v-4.962c0-2.34,1.28-3.66,2.9-3.66,1.4,0,2.36,1.04,2.36,2.72v5.9h1.7v-6.162c0-2.48-1.541-4.041-3.781-4.041a3.536,3.536,0,0,0-3.181,1.741V824.32h-1.72v10Zm18.24,0h1.72V825.9h2.9V824.32h-2.9v-1.84a1.441,1.441,0,0,1,1.661-1.7,4.027,4.027,0,0,1,1.24.2v-1.521a4.545,4.545,0,0,0-1.56-.26,2.857,2.857,0,0,0-3.061,3.1v2.02h-2.12V825.9h2.12v8.422Zm7,0h1.72v-4.962c0-2.34,1.381-3.44,2.641-3.44a2.514,2.514,0,0,1,.94.16V824.3a3.564,3.564,0,0,0-.78-0.08,2.977,2.977,0,0,0-2.8,2.041V824.32h-1.72v10Zm17.122-5a5.231,5.231,0,1,0-5.221,5.2A5.133,5.133,0,0,0,331.649,829.321Zm-8.7,0a3.473,3.473,0,1,1,3.481,3.6A3.438,3.438,0,0,1,322.947,829.321Zm11.66,5h1.721v-4.962c0-2.26,1.14-3.66,2.76-3.66,1.3,0,1.961,1.12,1.961,2.74v5.882h1.72v-4.962c0-2.26,1.12-3.66,2.741-3.66,1.3,0,1.98,1.12,1.98,2.74v5.882h1.721v-6.142c0-2.44-1.321-4.061-3.5-4.061a3.463,3.463,0,0,0-3.281,2.141,3.145,3.145,0,0,0-3.081-2.141,3.36,3.36,0,0,0-3.02,1.741V824.32h-1.721v10Zm28.662-.141v-1.54a3.8,3.8,0,0,1-1.22.2,1.44,1.44,0,0,1-1.661-1.7V825.9h2.881V824.32h-2.881v-2.78h-1.72v2.78h-2.121V825.9h2.121v5.461a2.816,2.816,0,0,0,3.06,3.061A4.758,4.758,0,0,0,363.269,834.182Zm11.181,0.141h1.52l3.4-10H377.55l-2.42,7.3-2.5-7.3h-1.32l-2.5,7.3-2.42-7.3h-1.8l3.4,10h1.521l2.48-7.2Zm16.9-5a5.231,5.231,0,1,0-5.221,5.2A5.133,5.133,0,0,0,391.35,829.321Zm-8.7,0a3.473,3.473,0,1,1,3.481,3.6A3.437,3.437,0,0,1,382.648,829.321Zm16.32-2.1a7.381,7.381,0,0,0,13.623,3.9l-1.56-.94a5.581,5.581,0,1,1,0-5.922l1.56-.94A7.381,7.381,0,0,0,398.968,827.221Zm15.54,2.1a5.005,5.005,0,0,0,4.9,5.2,4.388,4.388,0,0,0,3.521-1.741v1.541h1.72v-10h-1.72v1.541a4.388,4.388,0,0,0-3.521-1.741A5.005,5.005,0,0,0,414.508,829.321Zm8.562,0a3.417,3.417,0,1,1-3.4-3.62A3.415,3.415,0,0,1,423.07,829.321Zm5.318,5h1.721v-15h-1.721v15Zm7.561-13.9a1.209,1.209,0,0,0-1.2-1.221,1.242,1.242,0,0,0-1.24,1.221,1.229,1.229,0,0,0,1.24,1.22A1.2,1.2,0,0,0,435.949,820.42Zm-2.081,13.9h1.721v-10h-1.721v10Zm6.32,0h1.721V825.9h2.9V824.32h-2.9v-1.84a1.44,1.44,0,0,1,1.66-1.7,4.027,4.027,0,0,1,1.24.2v-1.521a4.545,4.545,0,0,0-1.56-.26,2.857,2.857,0,0,0-3.061,3.1v2.02h-2.12V825.9h2.12v8.422Zm16.4-5a5.232,5.232,0,1,0-5.222,5.2A5.134,5.134,0,0,0,456.591,829.321Zm-8.7,0a3.473,3.473,0,1,1,3.48,3.6A3.437,3.437,0,0,1,447.889,829.321Zm11.659,5h1.721v-4.962c0-2.34,1.38-3.44,2.64-3.44a2.516,2.516,0,0,1,.941.16V824.3a3.564,3.564,0,0,0-.78-0.08,2.976,2.976,0,0,0-2.8,2.041V824.32h-1.721v10Zm7.821,0h1.72v-4.962c0-2.34,1.28-3.66,2.9-3.66,1.4,0,2.36,1.04,2.36,2.72v5.9h1.7v-6.162c0-2.48-1.541-4.041-3.781-4.041a3.536,3.536,0,0,0-3.181,1.741V824.32h-1.72v10Zm14.36-13.9a1.208,1.208,0,0,0-1.2-1.221,1.242,1.242,0,0,0-1.24,1.221,1.229,1.229,0,0,0,1.24,1.22A1.2,1.2,0,0,0,481.729,820.42Zm-2.08,13.9h1.72v-10h-1.72v10Zm4.7-5a5.006,5.006,0,0,0,4.9,5.2,4.386,4.386,0,0,0,3.52-1.741v1.541h1.721v-10H492.77v1.541a4.386,4.386,0,0,0-3.52-1.741A5.006,5.006,0,0,0,484.348,829.321Zm8.563,0a3.417,3.417,0,1,1-3.4-3.62A3.415,3.415,0,0,1,492.911,829.321Zm19.78,2.521-1.5-.84a3.39,3.39,0,0,1-3.12,1.92,3.6,3.6,0,0,1,0-7.2,3.39,3.39,0,0,1,3.12,1.92l1.5-.84a5.181,5.181,0,0,0-4.621-2.681,5.2,5.2,0,1,0,0,10.4A5.181,5.181,0,0,0,512.691,831.842Zm2.718,2.481h1.72v-4.962c0-2.34,1.38-3.44,2.641-3.44a2.514,2.514,0,0,1,.94.16V824.3a3.564,3.564,0,0,0-.78-0.08,2.977,2.977,0,0,0-2.8,2.041V824.32h-1.72v10Zm6.68-5a5.273,5.273,0,0,0,9.682,2.821l-1.36-.94a3.542,3.542,0,0,1-6.582-1.54h8.2a4.907,4.907,0,0,0,.02-0.521c-0.02-3.2-2.14-5.021-4.761-5.021A5.068,5.068,0,0,0,522.089,829.321Zm5.141-3.68a2.993,2.993,0,0,1,3.061,2.62h-6.342A3.27,3.27,0,0,1,527.23,825.641Zm6.979,3.68a5.006,5.006,0,0,0,4.9,5.2,4.387,4.387,0,0,0,3.521-1.741v1.541h1.72v-10h-1.72v1.541a4.387,4.387,0,0,0-3.521-1.741A5.006,5.006,0,0,0,534.209,829.321Zm8.562,0a3.417,3.417,0,1,1-3.4-3.62A3.415,3.415,0,0,1,542.771,829.321Zm10.74,4.861v-1.54a3.808,3.808,0,0,1-1.221.2,1.44,1.44,0,0,1-1.66-1.7V825.9h2.881V824.32H550.63v-2.78h-1.72v2.78h-2.121V825.9h2.121v5.461a2.816,2.816,0,0,0,3.06,3.061A4.763,4.763,0,0,0,553.511,834.182Zm4.779-13.762a1.208,1.208,0,0,0-1.2-1.221,1.242,1.242,0,0,0-1.24,1.221,1.229,1.229,0,0,0,1.24,1.22A1.2,1.2,0,0,0,558.29,820.42Zm-2.08,13.9h1.72v-10h-1.72v10Zm8.6,0h1.441l4.621-10h-1.921l-3.421,7.562-3.42-7.562h-1.921Zm7.3-5a5.273,5.273,0,0,0,9.682,2.821l-1.36-.94a3.542,3.542,0,0,1-6.582-1.54h8.2a4.907,4.907,0,0,0,.02-0.521c-0.02-3.2-2.141-5.021-4.761-5.021A5.068,5.068,0,0,0,572.11,829.321Zm5.141-3.68a2.993,2.993,0,0,1,3.061,2.62H573.97A3.27,3.27,0,0,1,577.251,825.641Zm14.241,5.9c0-1.5-.941-2.461-2.641-3.021l-1.08-.36c-1.181-.38-1.541-0.76-1.541-1.4,0-.74.741-1.16,1.681-1.16a2.7,2.7,0,0,1,2.12,1.04l1.121-1.08a3.879,3.879,0,0,0-3.2-1.441c-1.981,0-3.381,1.1-3.381,2.721,0,1.4.86,2.38,2.481,2.9l0.98,0.32c1.3,0.42,1.78.9,1.78,1.6a1.522,1.522,0,0,1-1.76,1.36,2.685,2.685,0,0,1-2.561-1.58l-1.4.76a3.973,3.973,0,0,0,3.921,2.321C590.031,834.523,591.492,833.5,591.492,831.542ZM39.524,864.323h1.72V855.9h2.9V854.32h-2.9v-1.84a1.44,1.44,0,0,1,1.66-1.7,4.029,4.029,0,0,1,1.24.2v-1.521a4.548,4.548,0,0,0-1.56-.26,2.857,2.857,0,0,0-3.061,3.1v2.02H37.4V855.9h2.121v8.422Zm6.86-3.861c0,2.48,1.48,4.061,3.681,4.061a3.442,3.442,0,0,0,3.081-1.741v1.541h1.72v-10h-1.72v4.961c0,2.3-1.22,3.661-2.781,3.661-1.38,0-2.261-1.06-2.261-2.74V854.32h-1.72v6.142Zm11.44-1.141a5.273,5.273,0,0,0,9.682,2.821l-1.36-.94a3.542,3.542,0,0,1-6.582-1.54h8.2a4.907,4.907,0,0,0,.02-0.521c-0.02-3.2-2.141-5.021-4.761-5.021A5.069,5.069,0,0,0,57.824,859.321Zm5.141-3.68a2.992,2.992,0,0,1,3.061,2.62H59.685A3.27,3.27,0,0,1,62.965,855.641Zm7.759,8.682h1.72v-15h-1.72v15Zm4.7-5a5.273,5.273,0,0,0,9.682,2.821l-1.36-.94a3.542,3.542,0,0,1-6.582-1.54h8.2a4.907,4.907,0,0,0,.02-0.521c-0.02-3.2-2.141-5.021-4.761-5.021A5.069,5.069,0,0,0,75.424,859.321Zm5.141-3.68a2.992,2.992,0,0,1,3.061,2.62H77.285A3.27,3.27,0,0,1,80.566,855.641Zm6.979,3.68a5.006,5.006,0,0,0,4.9,5.2,4.387,4.387,0,0,0,3.521-1.741v1.541h1.72v-15h-1.72v6.542a4.387,4.387,0,0,0-3.521-1.741A5.005,5.005,0,0,0,87.545,859.321Zm8.562,0a3.417,3.417,0,1,1-3.4-3.62A3.415,3.415,0,0,1,96.107,859.321Zm12.419,3.461a4.388,4.388,0,0,0,3.521,1.741,5.211,5.211,0,0,0,0-10.4,4.388,4.388,0,0,0-3.521,1.741v-6.542h-1.72v15h1.72v-1.541Zm6.662-3.461a3.408,3.408,0,1,1-3.4-3.62A3.415,3.415,0,0,1,115.187,859.321Zm7.179,9.182,6.561-14.183h-1.92l-3.421,7.582-3.441-7.582h-1.9l4.381,9.482-2.181,4.7h1.921Zm18.8-4.321v-1.54a3.808,3.808,0,0,1-1.221.2,1.44,1.44,0,0,1-1.66-1.7V855.9h2.881V854.32h-2.881v-2.78h-1.72v2.78h-2.121V855.9h2.121v5.461a2.816,2.816,0,0,0,3.06,3.061A4.763,4.763,0,0,0,141.167,864.182Zm2.7,0.141h1.721v-4.962c0-2.34,1.28-3.66,2.9-3.66,1.4,0,2.36,1.04,2.36,2.72v5.9h1.7v-6.162c0-2.48-1.541-4.041-3.781-4.041a3.536,3.536,0,0,0-3.181,1.741v-6.542h-1.721v15Zm11.5-5a5.274,5.274,0,0,0,9.683,2.821l-1.361-.94a3.541,3.541,0,0,1-6.581-1.54h8.2a4.907,4.907,0,0,0,.02-0.521c-0.02-3.2-2.141-5.021-4.761-5.021A5.069,5.069,0,0,0,155.365,859.321Zm5.142-3.68a2.992,2.992,0,0,1,3.06,2.62h-6.341A3.269,3.269,0,0,1,160.507,855.641Zm9.839-5.221a1.208,1.208,0,0,0-1.2-1.221,1.242,1.242,0,0,0-1.24,1.221,1.229,1.229,0,0,0,1.24,1.22A1.2,1.2,0,0,0,170.346,850.42Zm-2.08,13.9h1.72v-10h-1.72v10Zm5.48,0h1.72v-4.962c0-2.34,1.38-3.44,2.641-3.44a2.514,2.514,0,0,1,.94.16V854.3a3.564,3.564,0,0,0-.78-0.08,2.977,2.977,0,0,0-2.8,2.041V854.32h-1.72v10Zm11.92-5a5.273,5.273,0,0,0,9.682,2.821l-1.36-.94a3.542,3.542,0,0,1-6.582-1.54h8.2a4.907,4.907,0,0,0,.02-0.521c-0.02-3.2-2.14-5.021-4.761-5.021A5.068,5.068,0,0,0,185.666,859.321Zm5.141-3.68a2.993,2.993,0,0,1,3.061,2.62h-6.342A3.27,3.27,0,0,1,190.807,855.641Zm5.9,8.682h2.14l3.041-3.781,3.041,3.781h2.12l-4.081-5.062,3.761-4.941h-2.1l-2.741,3.6-2.761-3.6h-2.08l3.761,4.941Zm12.6,4.18h1.72v-5.721a4.387,4.387,0,0,0,3.521,1.741,5.211,5.211,0,0,0,0-10.4,4.387,4.387,0,0,0-3.521,1.741V854.32h-1.72V868.5Zm8.382-9.182a3.408,3.408,0,1,1-3.4-3.62A3.415,3.415,0,0,1,217.689,859.321Zm4.738,5h1.72v-15h-1.72v15Zm15.142-5a5.231,5.231,0,1,0-5.221,5.2A5.133,5.133,0,0,0,237.569,859.321Zm-8.7,0a3.473,3.473,0,1,1,3.481,3.6A3.437,3.437,0,0,1,228.867,859.321Zm11.66,5h1.72v-4.962c0-2.34,1.381-3.44,2.641-3.44a2.514,2.514,0,0,1,.94.16V854.3a3.564,3.564,0,0,0-.78-0.08,2.977,2.977,0,0,0-2.8,2.041V854.32h-1.72v10Zm6.68-5a5.273,5.273,0,0,0,9.682,2.821l-1.36-.94a3.542,3.542,0,0,1-6.582-1.54h8.2a4.907,4.907,0,0,0,.02-0.521c-0.02-3.2-2.14-5.021-4.761-5.021A5.069,5.069,0,0,0,247.207,859.321Zm5.141-3.68a2.992,2.992,0,0,1,3.061,2.62h-6.342A3.271,3.271,0,0,1,252.348,855.641Zm7.759,8.682h1.721v-4.962c0-2.34,1.38-3.44,2.64-3.44a2.516,2.516,0,0,1,.941.16V854.3a3.566,3.566,0,0,0-.781-0.08,2.976,2.976,0,0,0-2.8,2.041V854.32h-1.721v10Zm19.182-2.781c0-1.5-.94-2.461-2.641-3.021l-1.08-.36c-1.18-.38-1.54-0.76-1.54-1.4,0-.74.74-1.16,1.68-1.16a2.7,2.7,0,0,1,2.121,1.04l1.12-1.08a3.877,3.877,0,0,0-3.2-1.441c-1.98,0-3.381,1.1-3.381,2.721,0,1.4.861,2.38,2.481,2.9l0.98,0.32c1.3,0.42,1.781.9,1.781,1.6a1.523,1.523,0,0,1-1.761,1.36,2.684,2.684,0,0,1-2.56-1.58l-1.4.76a3.974,3.974,0,0,0,3.921,2.321C277.829,864.523,279.289,863.5,279.289,861.542Zm2.959,6.961h1.72v-5.721a4.387,4.387,0,0,0,3.521,1.741,5.211,5.211,0,0,0,0-10.4,4.387,4.387,0,0,0-3.521,1.741V854.32h-1.72V868.5Zm8.382-9.182a3.408,3.408,0,1,1-3.4-3.62A3.415,3.415,0,0,1,290.63,859.321Zm6.818-8.9a1.208,1.208,0,0,0-1.2-1.221,1.242,1.242,0,0,0-1.24,1.221,1.229,1.229,0,0,0,1.24,1.22A1.2,1.2,0,0,0,297.448,850.42Zm-2.08,13.9h1.72v-10h-1.72v10Zm5.48,0h1.72v-4.962c0-2.34,1.381-3.44,2.641-3.44a2.514,2.514,0,0,1,.94.16V854.3a3.564,3.564,0,0,0-.78-0.08,2.977,2.977,0,0,0-2.8,2.041V854.32h-1.72v10Zm9.9-13.9a1.208,1.208,0,0,0-1.2-1.221,1.242,1.242,0,0,0-1.24,1.221,1.229,1.229,0,0,0,1.24,1.22A1.2,1.2,0,0,0,310.748,850.42Zm-2.08,13.9h1.72v-10h-1.72v10Zm10.9-.141v-1.54a3.8,3.8,0,0,1-1.22.2,1.44,1.44,0,0,1-1.66-1.7V855.9h2.88V854.32h-2.88v-2.78h-1.721v2.78h-2.12V855.9h2.12v5.461a2.816,2.816,0,0,0,3.061,3.061A4.756,4.756,0,0,0,319.569,864.182Zm9.181-2.64c0-1.5-.941-2.461-2.641-3.021l-1.08-.36c-1.18-.38-1.541-0.76-1.541-1.4,0-.74.741-1.16,1.681-1.16a2.7,2.7,0,0,1,2.12,1.04l1.121-1.08a3.879,3.879,0,0,0-3.2-1.441c-1.981,0-3.381,1.1-3.381,2.721,0,1.4.86,2.38,2.481,2.9l0.98,0.32c1.3,0.42,1.78.9,1.78,1.6a1.522,1.522,0,0,1-1.76,1.36,2.685,2.685,0,0,1-2.561-1.58l-1.4.76a3.973,3.973,0,0,0,3.921,2.321C327.289,864.523,328.75,863.5,328.75,861.542Zm5.339,1.44a1.481,1.481,0,1,0-1.481,1.5A1.507,1.507,0,0,0,334.089,862.982Zm7.819-5.761a7.381,7.381,0,0,0,13.623,3.9l-1.56-.94a5.581,5.581,0,1,1,0-5.922l1.56-.94A7.381,7.381,0,0,0,341.908,857.221Zm16.18,3.241c0,2.48,1.481,4.061,3.681,4.061a3.442,3.442,0,0,0,3.081-1.741v1.541h1.72v-10h-1.72v4.961c0,2.3-1.22,3.661-2.781,3.661-1.38,0-2.26-1.06-2.26-2.74V854.32h-1.721v6.142Zm12.221,3.861h1.72v-4.962c0-2.34,1.38-3.44,2.641-3.44a2.514,2.514,0,0,1,.94.16V854.3a3.564,3.564,0,0,0-.78-0.08,2.976,2.976,0,0,0-2.8,2.041V854.32h-1.72v10Zm9.9-13.9a1.208,1.208,0,0,0-1.2-1.221,1.242,1.242,0,0,0-1.24,1.221,1.229,1.229,0,0,0,1.24,1.22A1.2,1.2,0,0,0,380.209,850.42Zm-2.08,13.9h1.72v-10h-1.72v10Zm15.142-5a5.231,5.231,0,1,0-5.221,5.2A5.133,5.133,0,0,0,393.271,859.321Zm-8.7,0a3.473,3.473,0,1,1,3.481,3.6A3.437,3.437,0,0,1,384.569,859.321Zm11.52,1.141c0,2.48,1.48,4.061,3.681,4.061a3.442,3.442,0,0,0,3.08-1.741v1.541h1.721v-10H402.85v4.961c0,2.3-1.22,3.661-2.78,3.661-1.381,0-2.261-1.06-2.261-2.74V854.32h-1.72v6.142Zm18.7,1.08c0-1.5-.941-2.461-2.641-3.021l-1.08-.36c-1.181-.38-1.541-0.76-1.541-1.4,0-.74.74-1.16,1.681-1.16a2.7,2.7,0,0,1,2.12,1.04l1.12-1.08a3.876,3.876,0,0,0-3.2-1.441c-1.981,0-3.381,1.1-3.381,2.721,0,1.4.86,2.38,2.48,2.9l0.981,0.32c1.3,0.42,1.78.9,1.78,1.6a1.522,1.522,0,0,1-1.76,1.36,2.684,2.684,0,0,1-2.561-1.58l-1.4.76a3.973,3.973,0,0,0,3.921,2.321C413.33,864.523,414.791,863.5,414.791,861.542Zm5.1,2.34a1.71,1.71,0,0,0,.28-0.9,1.481,1.481,0,1,0-2.961,0,1.491,1.491,0,0,0,.82,1.341l-1.34,2.86h1.14Zm17.941-2.04-1.5-.84a3.391,3.391,0,0,1-3.121,1.92,3.6,3.6,0,0,1,0-7.2,3.391,3.391,0,0,1,3.121,1.92l1.5-.84a5.18,5.18,0,0,0-4.621-2.681,5.2,5.2,0,1,0,0,10.4A5.18,5.18,0,0,0,437.831,861.842Zm12.38-2.521a5.231,5.231,0,1,0-5.221,5.2A5.133,5.133,0,0,0,450.211,859.321Zm-8.7,0a3.473,3.473,0,1,1,3.481,3.6A3.438,3.438,0,0,1,441.509,859.321Zm11.66,5h1.721v-4.962c0-2.34,1.28-3.66,2.9-3.66,1.4,0,2.361,1.04,2.361,2.72v5.9h1.7v-6.162c0-2.48-1.54-4.041-3.781-4.041a3.535,3.535,0,0,0-3.18,1.741V854.32h-1.721v10Zm12.28,0h1.721v-4.962c0-2.34,1.28-3.66,2.9-3.66,1.4,0,2.361,1.04,2.361,2.72v5.9h1.7v-6.162c0-2.48-1.54-4.041-3.781-4.041a3.535,3.535,0,0,0-3.18,1.741V854.32h-1.721v10Zm11.5-5a5.273,5.273,0,0,0,9.683,2.821l-1.361-.94a3.541,3.541,0,0,1-6.581-1.54h8.2a4.907,4.907,0,0,0,.02-0.521c-0.02-3.2-2.141-5.021-4.762-5.021A5.069,5.069,0,0,0,476.949,859.321Zm5.141-3.68a2.992,2.992,0,0,1,3.061,2.62H478.81A3.269,3.269,0,0,1,482.09,855.641Zm16.842,6.2-1.5-.84a3.39,3.39,0,0,1-3.12,1.92,3.6,3.6,0,0,1,0-7.2,3.39,3.39,0,0,1,3.12,1.92l1.5-.84a5.181,5.181,0,0,0-4.621-2.681,5.2,5.2,0,1,0,0,10.4A5.181,5.181,0,0,0,498.932,861.842Zm8.139,2.34v-1.54a3.8,3.8,0,0,1-1.22.2,1.44,1.44,0,0,1-1.661-1.7V855.9h2.881V854.32H504.19v-2.78h-1.72v2.78h-2.121V855.9h2.121v5.461a2.816,2.816,0,0,0,3.06,3.061A4.758,4.758,0,0,0,507.071,864.182Zm1.779-4.861a5.273,5.273,0,0,0,9.682,2.821l-1.36-.94a3.542,3.542,0,0,1-6.582-1.54h8.2a4.907,4.907,0,0,0,.02-0.521c-0.02-3.2-2.14-5.021-4.761-5.021A5.068,5.068,0,0,0,508.85,859.321Zm5.141-3.68a2.993,2.993,0,0,1,3.061,2.62H510.71A3.27,3.27,0,0,1,513.991,855.641Zm6.979,3.68a5.005,5.005,0,0,0,4.9,5.2,4.388,4.388,0,0,0,3.521-1.741v1.541h1.72v-15h-1.72v6.542a4.388,4.388,0,0,0-3.521-1.741A5.005,5.005,0,0,0,520.97,859.321Zm8.562,0a3.417,3.417,0,1,1-3.4-3.62A3.415,3.415,0,0,1,529.532,859.321Zm9.918,0a5.005,5.005,0,0,0,4.9,5.2,4.388,4.388,0,0,0,3.521-1.741v1.541h1.72v-10h-1.72v1.541a4.388,4.388,0,0,0-3.521-1.741A5.005,5.005,0,0,0,539.45,859.321Zm8.562,0a3.417,3.417,0,1,1-3.4-3.62A3.415,3.415,0,0,1,548.012,859.321Zm5.318,5h1.721v-4.962c0-2.34,1.28-3.66,2.9-3.66,1.4,0,2.361,1.04,2.361,2.72v5.9h1.7v-6.162c0-2.48-1.54-4.041-3.781-4.041a3.535,3.535,0,0,0-3.18,1.741V854.32H553.33v10Zm11.5-5a5.006,5.006,0,0,0,4.9,5.2,4.387,4.387,0,0,0,3.521-1.741v1.541h1.721v-15h-1.721v6.542a4.387,4.387,0,0,0-3.521-1.741A5.006,5.006,0,0,0,564.83,859.321Zm8.562,0a3.417,3.417,0,1,1-3.4-3.62A3.415,3.415,0,0,1,573.392,859.321Zm-525.046,30a5.231,5.231,0,1,0-5.221,5.2A5.133,5.133,0,0,0,48.347,889.321Zm-8.7,0a3.473,3.473,0,1,1,3.481,3.6A3.437,3.437,0,0,1,39.644,889.321Zm11.52,1.141c0,2.48,1.48,4.061,3.681,4.061a3.442,3.442,0,0,0,3.081-1.741v1.541h1.72v-10h-1.72v4.961c0,2.3-1.22,3.661-2.781,3.661-1.38,0-2.261-1.06-2.261-2.74V884.32h-1.72v6.142Zm17.642,3.72v-1.54a3.8,3.8,0,0,1-1.22.2,1.44,1.44,0,0,1-1.66-1.7V885.9h2.881V884.32H65.925v-2.78H64.2v2.78h-2.12V885.9H64.2v5.461a2.816,2.816,0,0,0,3.061,3.061A4.758,4.758,0,0,0,68.806,894.182ZM78.965,880.42a1.208,1.208,0,0,0-1.2-1.221,1.243,1.243,0,0,0-1.24,1.221,1.229,1.229,0,0,0,1.24,1.22A1.2,1.2,0,0,0,78.965,880.42Zm-2.081,13.9H78.6v-10H76.884v10Zm5.48,0h1.72v-4.962c0-2.34,1.28-3.66,2.9-3.66,1.4,0,2.361,1.04,2.361,2.72v5.9h1.7v-6.162c0-2.48-1.54-4.041-3.781-4.041a3.536,3.536,0,0,0-3.181,1.741V884.32h-1.72v10Zm22.742-.141v-1.54a3.8,3.8,0,0,1-1.221.2,1.44,1.44,0,0,1-1.66-1.7V885.9h2.881V884.32h-2.881v-2.78h-1.72v2.78H98.384V885.9h2.121v5.461a2.816,2.816,0,0,0,3.06,3.061A4.758,4.758,0,0,0,105.106,894.182Zm2.7,0.141h1.72v-4.962c0-2.34,1.28-3.66,2.9-3.66,1.4,0,2.36,1.04,2.36,2.72v5.9h1.7v-6.162c0-2.48-1.541-4.041-3.781-4.041a3.536,3.536,0,0,0-3.181,1.741v-6.542h-1.72v15Zm11.5-5a5.273,5.273,0,0,0,9.682,2.821l-1.361-.94a3.541,3.541,0,0,1-6.581-1.54h8.2a4.907,4.907,0,0,0,.02-0.521c-0.02-3.2-2.141-5.021-4.761-5.021A5.068,5.068,0,0,0,119.305,889.321Zm5.141-3.68a2.992,2.992,0,0,1,3.06,2.62h-6.341A3.269,3.269,0,0,1,124.446,885.641Zm21.261,8.682h1.52l3.4-10h-1.82l-2.421,7.3-2.5-7.3h-1.321l-2.5,7.3-2.421-7.3h-1.8l3.4,10h1.521l2.48-7.2Zm16.9-5a5.231,5.231,0,1,0-5.221,5.2A5.133,5.133,0,0,0,162.607,889.321Zm-8.7,0a3.473,3.473,0,1,1,3.481,3.6A3.438,3.438,0,0,1,153.905,889.321Zm11.66,5h1.721v-4.962c0-2.34,1.38-3.44,2.64-3.44a2.514,2.514,0,0,1,.94.16V884.3a3.564,3.564,0,0,0-.78-0.08,2.976,2.976,0,0,0-2.8,2.041V884.32h-1.721v10Zm7.82,0h1.721v-15h-1.721v15Zm4.7-5a5.006,5.006,0,0,0,4.9,5.2,4.387,4.387,0,0,0,3.521-1.741v1.541h1.721v-15h-1.721v6.542a4.387,4.387,0,0,0-3.521-1.741A5.006,5.006,0,0,0,178.085,889.321Zm8.562,0a3.417,3.417,0,1,1-3.4-3.62A3.415,3.415,0,0,1,186.647,889.321Zm7.459,4.561a1.71,1.71,0,0,0,.28-0.9,1.481,1.481,0,1,0-2.961,0,1.491,1.491,0,0,0,.82,1.341l-1.34,2.86h1.14Zm18.522-4.561a5.232,5.232,0,1,0-5.222,5.2A5.134,5.134,0,0,0,212.628,889.321Zm-8.7,0a3.473,3.473,0,1,1,3.48,3.6A3.437,3.437,0,0,1,203.926,889.321Zm11.519,1.141c0,2.48,1.481,4.061,3.681,4.061a3.442,3.442,0,0,0,3.081-1.741v1.541h1.72v-10h-1.72v4.961c0,2.3-1.22,3.661-2.781,3.661-1.38,0-2.26-1.06-2.26-2.74V884.32h-1.721v6.142Zm12.221,3.861h1.72v-4.962c0-2.34,1.38-3.44,2.641-3.44a2.514,2.514,0,0,1,.94.16V884.3a3.564,3.564,0,0,0-.78-0.08,2.976,2.976,0,0,0-2.8,2.041V884.32h-1.72v10Zm21.782-2.481-1.5-.84a3.392,3.392,0,0,1-3.121,1.92,3.6,3.6,0,0,1,0-7.2,3.392,3.392,0,0,1,3.121,1.92l1.5-.84a5.181,5.181,0,0,0-4.621-2.681,5.2,5.2,0,1,0,0,10.4A5.181,5.181,0,0,0,249.448,891.842Zm2.718,2.481h1.72v-15h-1.72v15Zm15.142-5a5.231,5.231,0,1,0-5.221,5.2A5.133,5.133,0,0,0,267.308,889.321Zm-8.7,0a3.473,3.473,0,1,1,3.481,3.6A3.437,3.437,0,0,1,258.606,889.321Zm16.9,4.861v-1.54a3.8,3.8,0,0,1-1.22.2,1.44,1.44,0,0,1-1.66-1.7V885.9h2.88V884.32h-2.88v-2.78h-1.721v2.78h-2.12V885.9h2.12v5.461a2.816,2.816,0,0,0,3.061,3.061A4.756,4.756,0,0,0,275.507,894.182Zm2.7,0.141h1.721v-4.962c0-2.34,1.28-3.66,2.9-3.66,1.4,0,2.361,1.04,2.361,2.72v5.9h1.7v-6.162c0-2.48-1.54-4.041-3.781-4.041a3.535,3.535,0,0,0-3.18,1.741v-6.542h-1.721v15Zm14.361-13.9a1.208,1.208,0,0,0-1.2-1.221,1.243,1.243,0,0,0-1.241,1.221,1.229,1.229,0,0,0,1.241,1.22A1.2,1.2,0,0,0,292.567,880.42Zm-2.081,13.9h1.721v-10h-1.721v10Zm5.48,0h1.721v-4.962c0-2.34,1.28-3.66,2.9-3.66,1.4,0,2.361,1.04,2.361,2.72v5.9h1.7v-6.162c0-2.48-1.54-4.041-3.78-4.041a3.536,3.536,0,0,0-3.181,1.741V884.32h-1.721v10Zm21.6-.581V884.32h-1.721v1.541a4.256,4.256,0,0,0-3.48-1.741,5.1,5.1,0,0,0,0,10.183,4.271,4.271,0,0,0,3.48-1.761v1.14a3.2,3.2,0,0,1-3.34,3.461,4.279,4.279,0,0,1-3.5-1.68l-1.2,1.2a5.941,5.941,0,0,0,4.722,2.04C315.368,898.7,317.569,897.083,317.569,893.742Zm-8.342-4.541a3.383,3.383,0,1,1,3.381,3.5A3.332,3.332,0,0,1,309.227,889.2Zm19.54-8.781a1.208,1.208,0,0,0-1.2-1.221,1.243,1.243,0,0,0-1.241,1.221,1.23,1.23,0,0,0,1.241,1.22A1.2,1.2,0,0,0,328.767,880.42Zm-2.08,13.9h1.72v-10h-1.72v10Zm11.961-2.781c0-1.5-.94-2.461-2.641-3.021l-1.08-.36c-1.18-.38-1.54-0.76-1.54-1.4,0-.74.74-1.16,1.68-1.16a2.7,2.7,0,0,1,2.121,1.04l1.12-1.08a3.877,3.877,0,0,0-3.2-1.441c-1.98,0-3.381,1.1-3.381,2.721,0,1.4.861,2.38,2.481,2.9l0.98,0.32c1.3,0.42,1.781.9,1.781,1.6a1.523,1.523,0,0,1-1.761,1.36,2.684,2.684,0,0,1-2.56-1.58l-1.4.76a3.974,3.974,0,0,0,3.921,2.321C337.188,894.523,338.648,893.5,338.648,891.542Zm7.558-2.221a5.006,5.006,0,0,0,4.9,5.2,4.387,4.387,0,0,0,3.521-1.741v1.541h1.721v-15h-1.721v6.542a4.387,4.387,0,0,0-3.521-1.741A5.006,5.006,0,0,0,346.206,889.321Zm8.562,0a3.417,3.417,0,1,1-3.4-3.62A3.415,3.415,0,0,1,354.768,889.321Zm4.538,0a5.274,5.274,0,0,0,9.683,2.821l-1.361-.94a3.541,3.541,0,0,1-6.581-1.54h8.2a4.907,4.907,0,0,0,.02-0.521c-0.02-3.2-2.141-5.021-4.761-5.021A5.069,5.069,0,0,0,359.306,889.321Zm5.142-3.68a2.992,2.992,0,0,1,3.06,2.62h-6.341A3.269,3.269,0,0,1,364.448,885.641Zm14.24,5.9c0-1.5-.94-2.461-2.64-3.021l-1.081-.36c-1.18-.38-1.54-0.76-1.54-1.4,0-.74.74-1.16,1.68-1.16a2.7,2.7,0,0,1,2.121,1.04l1.12-1.08a3.877,3.877,0,0,0-3.2-1.441c-1.98,0-3.38,1.1-3.38,2.721,0,1.4.86,2.38,2.48,2.9l0.981,0.32c1.3,0.42,1.78.9,1.78,1.6a1.522,1.522,0,0,1-1.76,1.36,2.684,2.684,0,0,1-2.561-1.58l-1.4.76a3.973,3.973,0,0,0,3.92,2.321C377.228,894.523,378.688,893.5,378.688,891.542Zm5.039-11.122a1.208,1.208,0,0,0-1.2-1.221,1.242,1.242,0,0,0-1.24,1.221,1.229,1.229,0,0,0,1.24,1.22A1.2,1.2,0,0,0,383.727,880.42Zm-2.08,13.9h1.72v-10h-1.72v10Zm14.8-.581V884.32h-1.72v1.541a4.259,4.259,0,0,0-3.481-1.741,5.1,5.1,0,0,0,0,10.183,4.274,4.274,0,0,0,3.481-1.761v1.14a3.2,3.2,0,0,1-3.341,3.461,4.279,4.279,0,0,1-3.5-1.68l-1.2,1.2a5.937,5.937,0,0,0,4.721,2.04C394.249,898.7,396.449,897.083,396.449,893.742Zm-8.342-4.541a3.383,3.383,0,1,1,3.381,3.5A3.332,3.332,0,0,1,388.107,889.2Zm12.08,5.122h1.72v-4.962c0-2.34,1.281-3.66,2.9-3.66,1.4,0,2.361,1.04,2.361,2.72v5.9h1.7v-6.162c0-2.48-1.54-4.041-3.781-4.041a3.538,3.538,0,0,0-3.181,1.741V884.32h-1.72v10Zm11.5-5a5.273,5.273,0,0,0,9.682,2.821l-1.36-.94a3.542,3.542,0,0,1-6.582-1.54h8.2a4.907,4.907,0,0,0,.02-0.521c-0.02-3.2-2.14-5.021-4.761-5.021A5.068,5.068,0,0,0,411.687,889.321Zm5.141-3.68a2.993,2.993,0,0,1,3.061,2.62h-6.342A3.27,3.27,0,0,1,416.828,885.641Zm6.979,3.68a5.006,5.006,0,0,0,4.9,5.2,4.387,4.387,0,0,0,3.521-1.741v1.541h1.721v-15h-1.721v6.542a4.387,4.387,0,0,0-3.521-1.741A5.006,5.006,0,0,0,423.807,889.321Zm8.562,0a3.417,3.417,0,1,1-3.4-3.62A3.415,3.415,0,0,1,432.369,889.321Zm11.279,5h1.72V885.9h2.9V884.32h-2.9v-1.84a1.44,1.44,0,0,1,1.661-1.7,4.027,4.027,0,0,1,1.24.2v-1.521a4.545,4.545,0,0,0-1.56-.26,2.857,2.857,0,0,0-3.061,3.1v2.02h-2.121V885.9h2.121v8.422Zm16.4-5a5.231,5.231,0,1,0-5.221,5.2A5.133,5.133,0,0,0,460.05,889.321Zm-8.7,0a3.473,3.473,0,1,1,3.481,3.6A3.437,3.437,0,0,1,451.348,889.321Zm11.66,5h1.72v-4.962c0-2.34,1.381-3.44,2.641-3.44a2.514,2.514,0,0,1,.94.16V884.3a3.564,3.564,0,0,0-.78-0.08,2.977,2.977,0,0,0-2.8,2.041V884.32h-1.72v10Zm11.92-5a5.005,5.005,0,0,0,4.9,5.2,4.388,4.388,0,0,0,3.521-1.741v1.541h1.72v-10h-1.72v1.541a4.388,4.388,0,0,0-3.521-1.741A5.005,5.005,0,0,0,474.928,889.321Zm8.562,0a3.417,3.417,0,1,1-3.4-3.62A3.415,3.415,0,0,1,483.49,889.321Zm10.7,5h1.72v-15h-1.72v15Zm7.561-13.9a1.209,1.209,0,0,0-1.2-1.221,1.242,1.242,0,0,0-1.24,1.221,1.229,1.229,0,0,0,1.24,1.22A1.2,1.2,0,0,0,501.749,880.42Zm-2.081,13.9h1.72v-10h-1.72v10Zm6.32,0h1.721V885.9h2.9V884.32h-2.9v-1.84a1.44,1.44,0,0,1,1.66-1.7,4.027,4.027,0,0,1,1.24.2v-1.521a4.545,4.545,0,0,0-1.56-.26,2.857,2.857,0,0,0-3.061,3.1v2.02h-2.12V885.9h2.12v8.422Zm5.96-5a5.273,5.273,0,0,0,9.682,2.821l-1.36-.94a3.541,3.541,0,0,1-6.581-1.54h8.2a4.907,4.907,0,0,0,.02-0.521c-0.02-3.2-2.141-5.021-4.762-5.021A5.069,5.069,0,0,0,511.948,889.321Zm5.141-3.68a2.992,2.992,0,0,1,3.061,2.62h-6.341A3.269,3.269,0,0,1,517.089,885.641Zm15.22-5.221a1.208,1.208,0,0,0-1.2-1.221,1.243,1.243,0,0,0-1.241,1.221,1.229,1.229,0,0,0,1.241,1.22A1.2,1.2,0,0,0,532.309,880.42Zm-2.081,13.9h1.721v-10h-1.721v10Zm5.48,0h1.721v-4.962c0-2.34,1.28-3.66,2.9-3.66,1.4,0,2.361,1.04,2.361,2.72v5.9h1.7v-6.162c0-2.48-1.54-4.041-3.78-4.041a3.536,3.536,0,0,0-3.181,1.741V884.32h-1.721v10Zm-497.024,30H40.4v-4.962c0-2.26,1.14-3.66,2.761-3.66,1.3,0,1.961,1.12,1.961,2.74v5.882h1.72v-4.962c0-2.26,1.12-3.66,2.741-3.66,1.3,0,1.98,1.12,1.98,2.74v5.882h1.72v-6.142c0-2.44-1.32-4.061-3.5-4.061a3.462,3.462,0,0,0-3.281,2.141,3.145,3.145,0,0,0-3.081-2.141,3.363,3.363,0,0,0-3.021,1.741V914.32h-1.72v10Zm27.863-5a5.231,5.231,0,1,0-5.221,5.2A5.133,5.133,0,0,0,66.547,919.321Zm-8.7,0a3.473,3.473,0,1,1,3.481,3.6A3.437,3.437,0,0,1,57.845,919.321Zm16.9,4.862v-1.541a3.8,3.8,0,0,1-1.22.2,1.44,1.44,0,0,1-1.66-1.7V915.9h2.881V914.32H71.866v-2.78H70.145v2.78h-2.12V915.9h2.12v5.461a2.816,2.816,0,0,0,3.061,3.061A4.787,4.787,0,0,0,74.746,924.183Zm4.779-13.763a1.208,1.208,0,0,0-1.2-1.221,1.243,1.243,0,0,0-1.24,1.221,1.229,1.229,0,0,0,1.24,1.22A1.2,1.2,0,0,0,79.526,910.42Zm-2.081,13.9h1.72v-10h-1.72v10Zm15.142-5a5.231,5.231,0,1,0-5.221,5.2A5.133,5.133,0,0,0,92.587,919.321Zm-8.7,0a3.473,3.473,0,1,1,3.481,3.6A3.437,3.437,0,0,1,83.885,919.321Zm11.66,5h1.721v-4.962c0-2.34,1.28-3.66,2.9-3.66,1.4,0,2.361,1.04,2.361,2.72v5.9h1.7v-6.162c0-2.48-1.54-4.041-3.781-4.041a3.536,3.536,0,0,0-3.18,1.741V914.32H95.545v10Zm14.661-1.341a1.481,1.481,0,1,0-1.481,1.5A1.507,1.507,0,0,0,110.206,922.982Zm19.4,1.341h1.66l3.881-14.2h-1.94L130.228,921.2l-4.1-11.323L122.046,921.2l-2.981-11.082h-1.94l3.881,14.2h1.66l3.481-9.643Zm6.737-5a5.274,5.274,0,0,0,9.683,2.821l-1.361-.94a3.541,3.541,0,0,1-6.581-1.54h8.2a4.907,4.907,0,0,0,.02-0.521c-0.02-3.2-2.141-5.021-4.761-5.021A5.069,5.069,0,0,0,136.345,919.321Zm5.142-3.68a2.992,2.992,0,0,1,3.06,2.62h-6.341A3.269,3.269,0,0,1,141.487,915.641Zm18.22,8.542v-1.541a3.8,3.8,0,0,1-1.22.2,1.44,1.44,0,0,1-1.661-1.7V915.9h2.881V914.32h-2.881v-2.78h-1.72v2.78h-2.121V915.9h2.121v5.461a2.816,2.816,0,0,0,3.061,3.061A4.786,4.786,0,0,0,159.707,924.183Zm2.7,0.14h1.72v-4.962c0-2.34,1.381-3.44,2.641-3.44a2.514,2.514,0,0,1,.94.16V914.3a3.564,3.564,0,0,0-.78-0.08,2.977,2.977,0,0,0-2.8,2.041V914.32h-1.72v10Zm6.7-5a5.005,5.005,0,0,0,4.9,5.2,4.388,4.388,0,0,0,3.521-1.741v1.541h1.72v-10h-1.72v1.541a4.388,4.388,0,0,0-3.521-1.741A5.005,5.005,0,0,0,169.106,919.321Zm8.562,0a3.417,3.417,0,1,1-3.4-3.62A3.415,3.415,0,0,1,177.668,919.321Zm8.439,5h1.44l4.621-10h-1.92l-3.421,7.562-3.421-7.562h-1.92Zm7.3-5a5.274,5.274,0,0,0,9.683,2.821l-1.361-.94a3.541,3.541,0,0,1-6.581-1.54h8.2a4.907,4.907,0,0,0,.02-0.521c-0.02-3.2-2.141-5.021-4.761-5.021A5.069,5.069,0,0,0,193.406,919.321Zm5.142-3.68a2.992,2.992,0,0,1,3.06,2.62h-6.341A3.269,3.269,0,0,1,198.548,915.641Zm7.759,8.682h1.72v-15h-1.72v15Zm10.86,0h1.72v-4.962c0-2.34,1.28-3.66,2.9-3.66,1.4,0,2.36,1.04,2.36,2.72v5.9h1.7v-6.162c0-2.48-1.541-4.041-3.781-4.041a3.536,3.536,0,0,0-3.181,1.741V914.32h-1.72v10Zm11.5-5a5.274,5.274,0,0,0,9.683,2.821l-1.361-.94a3.541,3.541,0,0,1-6.581-1.54h8.2a4.907,4.907,0,0,0,.02-0.521c-0.02-3.2-2.141-5.021-4.761-5.021A5.069,5.069,0,0,0,228.666,919.321Zm5.142-3.68a2.992,2.992,0,0,1,3.06,2.62h-6.341A3.269,3.269,0,0,1,233.808,915.641Zm6.979,3.68a5.005,5.005,0,0,0,4.9,5.2,4.388,4.388,0,0,0,3.521-1.741v1.541h1.72v-10h-1.72v1.541a4.388,4.388,0,0,0-3.521-1.741A5.005,5.005,0,0,0,240.787,919.321Zm8.562,0a3.417,3.417,0,1,1-3.4-3.62A3.415,3.415,0,0,1,249.349,919.321Zm5.318,5h1.72v-4.962c0-2.34,1.381-3.44,2.641-3.44a2.514,2.514,0,0,1,.94.16V914.3a3.564,3.564,0,0,0-.78-0.08,2.977,2.977,0,0,0-2.8,2.041V914.32h-1.72v10Zm11.92-5a5.005,5.005,0,0,0,4.9,5.2,4.388,4.388,0,0,0,3.521-1.741v1.541h1.72v-10h-1.72v1.541a4.388,4.388,0,0,0-3.521-1.741A5.005,5.005,0,0,0,266.587,919.321Zm8.562,0a3.417,3.417,0,1,1-3.4-3.62A3.415,3.415,0,0,1,275.149,919.321Zm5.318,5h1.721v-4.962c0-2.34,1.28-3.66,2.9-3.66,1.4,0,2.361,1.04,2.361,2.72v5.9h1.7v-6.162c0-2.48-1.54-4.041-3.781-4.041a3.535,3.535,0,0,0-3.18,1.741V914.32h-1.721v10Zm11.5-5a5.006,5.006,0,0,0,4.9,5.2,4.387,4.387,0,0,0,3.521-1.741v1.541h1.721v-15h-1.721v6.542a4.387,4.387,0,0,0-3.521-1.741A5.006,5.006,0,0,0,291.967,919.321Zm8.562,0a3.417,3.417,0,1,1-3.4-3.62A3.415,3.415,0,0,1,300.529,919.321Zm11.279,5h1.72V915.9h2.9V914.32h-2.9v-1.84a1.44,1.44,0,0,1,1.661-1.7,4.027,4.027,0,0,1,1.24.2v-1.521a4.545,4.545,0,0,0-1.56-.26,2.857,2.857,0,0,0-3.061,3.1v2.02h-2.121V915.9h2.121v8.422Zm5.96-5a5.005,5.005,0,0,0,4.9,5.2,4.388,4.388,0,0,0,3.521-1.741v1.541h1.72v-10h-1.72v1.541a4.388,4.388,0,0,0-3.521-1.741A5.005,5.005,0,0,0,317.768,919.321Zm8.562,0a3.417,3.417,0,1,1-3.4-3.62A3.415,3.415,0,0,1,326.33,919.321Zm5.318,5h1.721v-4.962c0-2.34,1.38-3.44,2.64-3.44a2.514,2.514,0,0,1,.94.16V914.3a3.564,3.564,0,0,0-.78-0.08,2.976,2.976,0,0,0-2.8,2.041V914.32h-1.721v10Zm19.182-2.781c0-1.5-.94-2.461-2.641-3.021l-1.08-.36c-1.18-.38-1.541-0.76-1.541-1.4,0-.74.741-1.16,1.681-1.16a2.7,2.7,0,0,1,2.12,1.04l1.121-1.08a3.879,3.879,0,0,0-3.2-1.441c-1.981,0-3.381,1.1-3.381,2.721,0,1.4.86,2.38,2.481,2.9l0.98,0.32c1.3,0.42,1.78.9,1.78,1.6a1.522,1.522,0,0,1-1.76,1.36,2.685,2.685,0,0,1-2.561-1.58l-1.4.76a3.973,3.973,0,0,0,3.921,2.321C349.369,924.523,350.83,923.5,350.83,921.542Zm2.178-2.221a5.273,5.273,0,0,0,9.682,2.821l-1.36-.94a3.542,3.542,0,0,1-6.582-1.54h8.2a4.907,4.907,0,0,0,.02-0.521c-0.02-3.2-2.14-5.021-4.761-5.021A5.069,5.069,0,0,0,353.008,919.321Zm5.141-3.68a2.992,2.992,0,0,1,3.061,2.62h-6.341A3.269,3.269,0,0,1,358.149,915.641Zm6.979,3.68a5.006,5.006,0,0,0,4.9,5.2,4.387,4.387,0,0,0,3.521-1.741v1.541h1.721v-10H373.55v1.541a4.387,4.387,0,0,0-3.521-1.741A5.006,5.006,0,0,0,365.128,919.321Zm8.562,0a3.417,3.417,0,1,1-3.4-3.62A3.415,3.415,0,0,1,373.69,919.321Zm5.319,5h1.72v-4.962c0-2.34,1.38-3.44,2.641-3.44a2.514,2.514,0,0,1,.94.16V914.3a3.564,3.564,0,0,0-.78-0.08,2.976,2.976,0,0,0-2.8,2.041V914.32h-1.72v10Zm16.542-2.481-1.5-.84a3.391,3.391,0,0,1-3.121,1.92,3.6,3.6,0,0,1,0-7.2,3.391,3.391,0,0,1,3.121,1.92l1.5-.84a5.181,5.181,0,0,0-4.621-2.681,5.2,5.2,0,1,0,0,10.4A5.181,5.181,0,0,0,395.551,921.842Zm2.718,2.481h1.72v-4.962c0-2.34,1.281-3.66,2.9-3.66,1.4,0,2.361,1.04,2.361,2.72v5.9h1.7v-6.162c0-2.48-1.54-4.041-3.781-4.041a3.538,3.538,0,0,0-3.181,1.741v-6.542h-1.72v15Zm14.361-13.9a1.209,1.209,0,0,0-1.2-1.221,1.242,1.242,0,0,0-1.24,1.221,1.229,1.229,0,0,0,1.24,1.22A1.2,1.2,0,0,0,412.63,910.42Zm-2.081,13.9h1.72v-10h-1.72v10Zm5.48,0h1.72v-4.962c0-2.34,1.281-3.66,2.9-3.66,1.4,0,2.361,1.04,2.361,2.72v5.9h1.7v-6.162c0-2.48-1.54-4.041-3.781-4.041a3.538,3.538,0,0,0-3.181,1.741V914.32h-1.72v10Zm21.6-.581V914.32h-1.72v1.541a4.258,4.258,0,0,0-3.481-1.741,5.1,5.1,0,0,0,0,10.183,4.273,4.273,0,0,0,3.481-1.761v1.14a3.2,3.2,0,0,1-3.341,3.461,4.281,4.281,0,0,1-3.5-1.68l-1.2,1.2a5.939,5.939,0,0,0,4.721,2.04C435.431,928.7,437.631,927.083,437.631,923.742Zm-8.342-4.541a3.383,3.383,0,1,1,3.381,3.5A3.333,3.333,0,0,1,429.289,919.2Zm18.041,5.122h1.72V915.9h2.9V914.32h-2.9v-1.84a1.44,1.44,0,0,1,1.661-1.7,4.027,4.027,0,0,1,1.24.2v-1.521a4.547,4.547,0,0,0-1.561-.26,2.857,2.857,0,0,0-3.06,3.1v2.02h-2.121V915.9h2.121v8.422Zm16.4-5a5.231,5.231,0,1,0-5.221,5.2A5.133,5.133,0,0,0,463.732,919.321Zm-8.7,0a3.473,3.473,0,1,1,3.481,3.6A3.437,3.437,0,0,1,455.03,919.321Zm11.66,5h1.72v-4.962c0-2.34,1.381-3.44,2.641-3.44a2.514,2.514,0,0,1,.94.16V914.3a3.564,3.564,0,0,0-.78-0.08,2.977,2.977,0,0,0-2.8,2.041V914.32h-1.72v10Zm17.781-.14v-1.541a3.8,3.8,0,0,1-1.22.2,1.44,1.44,0,0,1-1.66-1.7V915.9h2.88V914.32h-2.88v-2.78H479.87v2.78h-2.12V915.9h2.12v5.461a2.816,2.816,0,0,0,3.061,3.061A4.786,4.786,0,0,0,484.471,924.183Zm2.7,0.14h1.721v-4.962c0-2.34,1.28-3.66,2.9-3.66,1.4,0,2.361,1.04,2.361,2.72v5.9h1.7v-6.162c0-2.48-1.54-4.041-3.781-4.041a3.535,3.535,0,0,0-3.18,1.741v-6.542H487.17v15Zm11.5-5a5.273,5.273,0,0,0,9.682,2.821l-1.36-.94a3.542,3.542,0,0,1-6.582-1.54h8.2a4.907,4.907,0,0,0,.02-0.521c-0.02-3.2-2.14-5.021-4.761-5.021A5.069,5.069,0,0,0,498.67,919.321Zm5.141-3.68a2.992,2.992,0,0,1,3.061,2.62h-6.341A3.269,3.269,0,0,1,503.811,915.641Zm13.72,8.682h1.72V915.9h2.9V914.32h-2.9v-1.84a1.44,1.44,0,0,1,1.661-1.7,4.027,4.027,0,0,1,1.24.2v-1.521a4.545,4.545,0,0,0-1.56-.26,2.857,2.857,0,0,0-3.061,3.1v2.02H515.41V915.9h2.121v8.422Zm8.582-13.9a1.208,1.208,0,0,0-1.2-1.221,1.243,1.243,0,0,0-1.241,1.221,1.229,1.229,0,0,0,1.241,1.22A1.2,1.2,0,0,0,526.113,910.42Zm-2.081,13.9h1.721v-10h-1.721v10Zm5.459,0h1.72v-4.962c0-2.34,1.28-3.66,2.9-3.66,1.4,0,2.36,1.04,2.36,2.72v5.9h1.7v-6.162c0-2.48-1.541-4.041-3.781-4.041a3.537,3.537,0,0,0-3.181,1.741V914.32h-1.72v10Zm11.5-5a5.273,5.273,0,0,0,9.682,2.821l-1.36-.94a3.542,3.542,0,0,1-6.582-1.54h8.2a4.907,4.907,0,0,0,.02-0.521c-0.02-3.2-2.14-5.021-4.761-5.021A5.068,5.068,0,0,0,540.991,919.321Zm5.141-3.68a2.993,2.993,0,0,1,3.061,2.62h-6.342A3.27,3.27,0,0,1,546.132,915.641Zm14.241,5.9c0-1.5-.941-2.461-2.641-3.021l-1.08-.36c-1.181-.38-1.541-0.76-1.541-1.4,0-.74.741-1.16,1.681-1.16a2.7,2.7,0,0,1,2.12,1.04l1.121-1.08a3.879,3.879,0,0,0-3.2-1.441c-1.981,0-3.381,1.1-3.381,2.721,0,1.4.86,2.38,2.481,2.9l0.98,0.32c1.3,0.42,1.78.9,1.78,1.6a1.522,1.522,0,0,1-1.76,1.36,2.685,2.685,0,0,1-2.561-1.58l-1.4.76a3.973,3.973,0,0,0,3.921,2.321C558.912,924.523,560.373,923.5,560.373,921.542Zm8.259,2.641v-1.541a3.8,3.8,0,0,1-1.22.2,1.44,1.44,0,0,1-1.66-1.7V915.9h2.88V914.32h-2.88v-2.78h-1.721v2.78h-2.12V915.9h2.12v5.461a2.816,2.816,0,0,0,3.061,3.061A4.786,4.786,0,0,0,568.632,924.183ZM38.684,954.323H40.4v-4.962c0-2.26,1.14-3.66,2.761-3.66,1.3,0,1.961,1.12,1.961,2.74v5.882h1.72v-4.962c0-2.26,1.12-3.66,2.741-3.66,1.3,0,1.98,1.12,1.98,2.74v5.882h1.72v-6.142c0-2.44-1.32-4.061-3.5-4.061a3.462,3.462,0,0,0-3.281,2.141,3.145,3.145,0,0,0-3.081-2.141,3.363,3.363,0,0,0-3.021,1.741V944.32h-1.72v10Zm17.42-5a5.006,5.006,0,0,0,4.9,5.2,4.387,4.387,0,0,0,3.521-1.741v1.541h1.72v-10h-1.72v1.541a4.387,4.387,0,0,0-3.521-1.741A5.005,5.005,0,0,0,56.1,949.321Zm8.562,0a3.417,3.417,0,1,1-3.4-3.62A3.415,3.415,0,0,1,64.666,949.321Zm10.74,4.862v-1.541a3.8,3.8,0,0,1-1.22.2,1.44,1.44,0,0,1-1.66-1.7V945.9h2.881V944.32H72.525v-2.78H70.8v2.78H68.684V945.9H70.8v5.461a2.816,2.816,0,0,0,3.061,3.061A4.787,4.787,0,0,0,75.406,954.183Zm1.779-4.862a5.273,5.273,0,0,0,9.682,2.821l-1.36-.94a3.542,3.542,0,0,1-6.582-1.54h8.2a4.907,4.907,0,0,0,.02-0.521c-0.02-3.2-2.141-5.021-4.761-5.021A5.069,5.069,0,0,0,77.185,949.321Zm5.141-3.68a2.992,2.992,0,0,1,3.061,2.62H79.045A3.27,3.27,0,0,1,82.326,945.641Zm7.759,8.682h1.72v-4.962c0-2.34,1.38-3.44,2.641-3.44a2.516,2.516,0,0,1,.94.16V944.3a3.566,3.566,0,0,0-.78-0.08,2.977,2.977,0,0,0-2.8,2.041V944.32h-1.72v10Zm9.9-13.9a1.208,1.208,0,0,0-1.2-1.221,1.243,1.243,0,0,0-1.24,1.221,1.229,1.229,0,0,0,1.24,1.22A1.2,1.2,0,0,0,99.986,940.42Zm-2.081,13.9h1.72v-10h-1.72v10Zm4.7-5a5.006,5.006,0,0,0,4.9,5.2,4.387,4.387,0,0,0,3.521-1.741v1.541h1.721v-10h-1.721v1.541a4.387,4.387,0,0,0-3.521-1.741A5.006,5.006,0,0,0,102.605,949.321Zm8.562,0a3.417,3.417,0,1,1-3.4-3.62A3.415,3.415,0,0,1,111.167,949.321Zm5.318,5h1.721v-15h-1.721v15Zm11.962-2.781c0-1.5-.94-2.461-2.641-3.021l-1.08-.36c-1.18-.38-1.54-0.76-1.54-1.4,0-.74.74-1.16,1.68-1.16a2.7,2.7,0,0,1,2.121,1.04l1.12-1.08a3.878,3.878,0,0,0-3.2-1.441c-1.98,0-3.381,1.1-3.381,2.721,0,1.4.861,2.38,2.481,2.9l0.98,0.32c1.3,0.42,1.781.9,1.781,1.6a1.523,1.523,0,0,1-1.761,1.36,2.684,2.684,0,0,1-2.56-1.58l-1.4.76a3.974,3.974,0,0,0,3.921,2.321C126.987,954.523,128.447,953.5,128.447,951.542Zm7.558-2.221a5.006,5.006,0,0,0,4.9,5.2,4.387,4.387,0,0,0,3.521-1.741v1.541h1.721v-10h-1.721v1.541a4.387,4.387,0,0,0-3.521-1.741A5.006,5.006,0,0,0,136.005,949.321Zm8.562,0a3.417,3.417,0,1,1-3.4-3.62A3.415,3.415,0,0,1,144.567,949.321Zm5.319,5h1.72v-4.962c0-2.34,1.28-3.66,2.9-3.66,1.4,0,2.36,1.04,2.36,2.72v5.9h1.7v-6.162c0-2.48-1.541-4.041-3.781-4.041a3.536,3.536,0,0,0-3.181,1.741V944.32h-1.72v10Zm11.5-5a5.006,5.006,0,0,0,4.9,5.2,4.386,4.386,0,0,0,3.52-1.741v1.541h1.721v-15h-1.721v6.542a4.386,4.386,0,0,0-3.52-1.741A5.006,5.006,0,0,0,161.385,949.321Zm8.562,0a3.417,3.417,0,1,1-3.4-3.62A3.415,3.415,0,0,1,169.947,949.321Zm11.279,5h1.721V945.9h2.9V944.32h-2.9v-1.84a1.44,1.44,0,0,1,1.66-1.7,4.027,4.027,0,0,1,1.24.2v-1.521a4.545,4.545,0,0,0-1.56-.26,2.857,2.857,0,0,0-3.061,3.1v2.02h-2.12V945.9h2.12v8.422Zm5.96-5a5.006,5.006,0,0,0,4.9,5.2,4.387,4.387,0,0,0,3.521-1.741v1.541h1.72v-10h-1.72v1.541a4.387,4.387,0,0,0-3.521-1.741A5.006,5.006,0,0,0,187.186,949.321Zm8.562,0a3.417,3.417,0,1,1-3.4-3.62A3.415,3.415,0,0,1,195.748,949.321Zm7.039,3.461a4.387,4.387,0,0,0,3.521,1.741,5.211,5.211,0,0,0,0-10.4,4.387,4.387,0,0,0-3.521,1.741v-6.542h-1.721v15h1.721v-1.541Zm6.661-3.461a3.407,3.407,0,1,1-3.4-3.62A3.415,3.415,0,0,1,209.448,949.321Zm4.718,5h1.721v-4.962c0-2.34,1.38-3.44,2.64-3.44a2.516,2.516,0,0,1,.941.16V944.3a3.564,3.564,0,0,0-.78-0.08,2.976,2.976,0,0,0-2.8,2.041V944.32h-1.721v10Zm9.9-13.9a1.208,1.208,0,0,0-1.2-1.221,1.242,1.242,0,0,0-1.24,1.221,1.229,1.229,0,0,0,1.24,1.22A1.2,1.2,0,0,0,224.067,940.42Zm-2.08,13.9h1.72v-10h-1.72v10Zm14.562-2.481-1.5-.84a3.39,3.39,0,0,1-3.12,1.92,3.6,3.6,0,0,1,0-7.2,3.39,3.39,0,0,1,3.12,1.92l1.5-.84a5.181,5.181,0,0,0-4.621-2.681,5.2,5.2,0,1,0,0,10.4A5.181,5.181,0,0,0,236.549,951.842Zm10.178-11.422a1.208,1.208,0,0,0-1.2-1.221,1.243,1.243,0,0,0-1.241,1.221,1.23,1.23,0,0,0,1.241,1.22A1.2,1.2,0,0,0,246.727,940.42Zm-2.08,13.9h1.72v-10h-1.72v10Zm5.48,0h1.72v-4.962c0-2.34,1.28-3.66,2.9-3.66,1.4,0,2.36,1.04,2.36,2.72v5.9h1.7v-6.162c0-2.48-1.541-4.041-3.781-4.041a3.536,3.536,0,0,0-3.181,1.741V944.32h-1.72v10Zm12.28,0h1.72v-4.962c0-2.34,1.28-3.66,2.9-3.66,1.4,0,2.36,1.04,2.36,2.72v5.9h1.7v-6.162c0-2.48-1.541-4.041-3.781-4.041a3.536,3.536,0,0,0-3.181,1.741V944.32h-1.72v10Zm21.942-5a5.231,5.231,0,1,0-5.221,5.2A5.133,5.133,0,0,0,284.349,949.321Zm-8.7,0a3.473,3.473,0,1,1,3.481,3.6A3.437,3.437,0,0,1,275.647,949.321Zm14.561,5h1.44l4.621-10h-1.92l-3.421,7.562-3.421-7.562h-1.92Zm7.319-5a5.006,5.006,0,0,0,4.9,5.2,4.387,4.387,0,0,0,3.521-1.741v1.541h1.721v-10h-1.721v1.541a4.387,4.387,0,0,0-3.521-1.741A5.006,5.006,0,0,0,297.527,949.321Zm8.562,0a3.417,3.417,0,1,1-3.4-3.62A3.415,3.415,0,0,1,306.089,949.321Zm10.74,4.862v-1.541a3.808,3.808,0,0,1-1.221.2,1.44,1.44,0,0,1-1.66-1.7V945.9h2.881V944.32h-2.881v-2.78h-1.72v2.78h-2.121V945.9h2.121v5.461a2.816,2.816,0,0,0,3.06,3.061A4.792,4.792,0,0,0,316.829,954.183Zm4.779-13.763a1.208,1.208,0,0,0-1.2-1.221,1.243,1.243,0,0,0-1.241,1.221,1.23,1.23,0,0,0,1.241,1.22A1.2,1.2,0,0,0,321.608,940.42Zm-2.08,13.9h1.72v-10h-1.72v10Zm15.142-5a5.232,5.232,0,1,0-5.221,5.2A5.133,5.133,0,0,0,334.67,949.321Zm-8.7,0a3.473,3.473,0,1,1,3.481,3.6A3.437,3.437,0,0,1,325.968,949.321Zm11.66,5h1.72v-4.962c0-2.34,1.28-3.66,2.9-3.66,1.4,0,2.36,1.04,2.36,2.72v5.9h1.7v-6.162c0-2.48-1.541-4.041-3.781-4.041a3.536,3.536,0,0,0-3.181,1.741V944.32h-1.72v10Zm18.761-2.781c0-1.5-.94-2.461-2.64-3.021l-1.081-.36c-1.18-.38-1.54-0.76-1.54-1.4,0-.74.74-1.16,1.68-1.16a2.7,2.7,0,0,1,2.121,1.04l1.12-1.08a3.877,3.877,0,0,0-3.2-1.441c-1.98,0-3.38,1.1-3.38,2.721,0,1.4.86,2.38,2.48,2.9l0.98,0.32c1.3,0.42,1.781.9,1.781,1.6a1.523,1.523,0,0,1-1.761,1.36,2.684,2.684,0,0,1-2.56-1.58l-1.4.76a3.975,3.975,0,0,0,3.921,2.321C354.929,954.523,356.389,953.5,356.389,951.542Zm13.42,2.641v-1.541a3.8,3.8,0,0,1-1.22.2,1.44,1.44,0,0,1-1.661-1.7V945.9h2.881V944.32h-2.881v-2.78h-1.72v2.78h-2.121V945.9h2.121v5.461a2.816,2.816,0,0,0,3.061,3.061A4.786,4.786,0,0,0,369.809,954.183Zm12.221-4.862a5.231,5.231,0,1,0-5.221,5.2A5.133,5.133,0,0,0,382.03,949.321Zm-8.7,0a3.473,3.473,0,1,1,3.481,3.6A3.438,3.438,0,0,1,373.328,949.321Zm19.12-8.9a1.208,1.208,0,0,0-1.2-1.221,1.242,1.242,0,0,0-1.24,1.221,1.229,1.229,0,0,0,1.24,1.22A1.2,1.2,0,0,0,392.448,940.42Zm-2.08,13.9h1.72v-10h-1.72v10Zm5.48,0h1.72v-4.962c0-2.34,1.281-3.66,2.9-3.66,1.4,0,2.361,1.04,2.361,2.72v5.9h1.7v-6.162c0-2.48-1.54-4.041-3.781-4.041a3.538,3.538,0,0,0-3.181,1.741V944.32h-1.72v10Zm13,0h1.721V945.9h2.9V944.32h-2.9v-1.84a1.44,1.44,0,0,1,1.66-1.7,4.027,4.027,0,0,1,1.24.2v-1.521a4.545,4.545,0,0,0-1.56-.26,2.857,2.857,0,0,0-3.061,3.1v2.02h-2.12V945.9h2.12v8.422Zm6.86-3.861c0,2.48,1.48,4.061,3.681,4.061a3.443,3.443,0,0,0,3.081-1.741v1.541h1.72v-10h-1.72v4.961c0,2.3-1.221,3.661-2.781,3.661-1.38,0-2.26-1.06-2.26-2.74V944.32h-1.721v6.142Zm18.7,1.08c0-1.5-.94-2.461-2.641-3.021l-1.08-.36c-1.18-.38-1.54-0.76-1.54-1.4,0-.74.74-1.16,1.68-1.16a2.705,2.705,0,0,1,2.121,1.04l1.12-1.08a3.878,3.878,0,0,0-3.2-1.441c-1.98,0-3.381,1.1-3.381,2.721,0,1.4.86,2.38,2.481,2.9l0.98,0.32c1.3,0.42,1.78.9,1.78,1.6a1.522,1.522,0,0,1-1.76,1.36,2.686,2.686,0,0,1-2.561-1.58l-1.4.76a3.974,3.974,0,0,0,3.921,2.321C432.95,954.523,434.41,953.5,434.41,951.542Zm2.178-2.221a5.273,5.273,0,0,0,9.683,2.821l-1.361-.94a3.541,3.541,0,0,1-6.581-1.54h8.2a4.907,4.907,0,0,0,.02-0.521c-0.02-3.2-2.141-5.021-4.762-5.021A5.069,5.069,0,0,0,436.588,949.321Zm5.141-3.68a2.992,2.992,0,0,1,3.061,2.62h-6.341A3.269,3.269,0,0,1,441.729,945.641Zm19.621,5.9c0-1.5-.94-2.461-2.641-3.021l-1.08-.36c-1.18-.38-1.54-0.76-1.54-1.4,0-.74.74-1.16,1.68-1.16a2.7,2.7,0,0,1,2.121,1.04l1.12-1.08a3.878,3.878,0,0,0-3.2-1.441c-1.98,0-3.381,1.1-3.381,2.721,0,1.4.861,2.38,2.481,2.9l0.98,0.32c1.3,0.42,1.781.9,1.781,1.6a1.523,1.523,0,0,1-1.761,1.36,2.684,2.684,0,0,1-2.56-1.58l-1.4.76a3.974,3.974,0,0,0,3.921,2.321C459.89,954.523,461.35,953.5,461.35,951.542Zm8.26,2.641v-1.541a3.8,3.8,0,0,1-1.22.2,1.44,1.44,0,0,1-1.661-1.7V945.9h2.881V944.32h-2.881v-2.78h-1.72v2.78h-2.121V945.9h2.121v5.461a2.816,2.816,0,0,0,3.061,3.061A4.786,4.786,0,0,0,469.61,954.183Zm5.359,4.32,6.562-14.183H479.61l-3.42,7.582-3.441-7.582h-1.9l4.381,9.482-2.18,4.7h1.92Zm8.78-4.18h1.72v-15h-1.72v15Zm4.7-5a5.273,5.273,0,0,0,9.682,2.821l-1.36-.94a3.542,3.542,0,0,1-6.582-1.54h8.2a4.907,4.907,0,0,0,.02-0.521c-0.02-3.2-2.14-5.021-4.761-5.021A5.068,5.068,0,0,0,488.449,949.321Zm5.141-3.68a2.993,2.993,0,0,1,3.061,2.62h-6.342A3.27,3.27,0,0,1,493.59,945.641Zm21.261,8.682h1.521l3.4-10h-1.82l-2.421,7.3-2.5-7.3H511.71l-2.5,7.3-2.421-7.3h-1.8l3.4,10h1.52l2.481-7.2Zm9.359-13.9a1.208,1.208,0,0,0-1.2-1.221,1.243,1.243,0,0,0-1.241,1.221,1.229,1.229,0,0,0,1.241,1.22A1.2,1.2,0,0,0,524.21,940.42Zm-2.081,13.9h1.721v-10h-1.721v10Zm10.9-.14v-1.541a3.813,3.813,0,0,1-1.221.2,1.44,1.44,0,0,1-1.66-1.7V945.9h2.881V944.32H530.15v-2.78h-1.721v2.78h-2.12V945.9h2.12v5.461a2.816,2.816,0,0,0,3.061,3.061A4.8,4.8,0,0,0,533.031,954.183Zm2.7,0.14h1.721v-4.962c0-2.34,1.28-3.66,2.9-3.66,1.4,0,2.36,1.04,2.36,2.72v5.9h1.7v-6.162c0-2.48-1.541-4.041-3.781-4.041a3.536,3.536,0,0,0-3.181,1.741v-6.542h-1.721v15ZM45.166,981.542c0-1.5-.94-2.461-2.641-3.021l-1.08-.36c-1.18-.38-1.54-0.76-1.54-1.4,0-.74.74-1.16,1.68-1.16a2.7,2.7,0,0,1,2.121,1.04l1.12-1.08a3.877,3.877,0,0,0-3.2-1.441c-1.98,0-3.381,1.1-3.381,2.721,0,1.4.86,2.38,2.481,2.9l0.98,0.32c1.3,0.42,1.78.9,1.78,1.6a1.523,1.523,0,0,1-1.76,1.36,2.684,2.684,0,0,1-2.561-1.58l-1.4.76a3.974,3.974,0,0,0,3.921,2.321C43.705,984.523,45.166,983.5,45.166,981.542Zm2.819-1.08c0,2.48,1.48,4.061,3.681,4.061a3.443,3.443,0,0,0,3.081-1.741v1.541h1.72v-10h-1.72v4.961c0,2.3-1.22,3.661-2.781,3.661-1.38,0-2.261-1.06-2.261-2.74V974.32h-1.72v6.142Zm13.941,2.32a4.388,4.388,0,0,0,3.521,1.741,5.211,5.211,0,0,0,0-10.4,4.388,4.388,0,0,0-3.521,1.741v-6.542H60.2v15h1.72v-1.541Zm6.662-3.461a3.407,3.407,0,1,1-3.4-3.62A3.415,3.415,0,0,1,68.586,979.321Zm11.18,2.221c0-1.5-.94-2.461-2.641-3.021l-1.08-.36c-1.18-.38-1.54-0.76-1.54-1.4,0-.74.74-1.16,1.68-1.16a2.7,2.7,0,0,1,2.12,1.04l1.12-1.08a3.878,3.878,0,0,0-3.2-1.441c-1.98,0-3.381,1.1-3.381,2.721,0,1.4.86,2.38,2.481,2.9l0.98,0.32c1.3,0.42,1.78.9,1.78,1.6a1.523,1.523,0,0,1-1.76,1.36,2.685,2.685,0,0,1-2.561-1.58l-1.4.76a3.974,3.974,0,0,0,3.921,2.321C78.306,984.523,79.766,983.5,79.766,981.542Zm8.26,2.641v-1.541a3.8,3.8,0,0,1-1.22.2,1.44,1.44,0,0,1-1.66-1.7V975.9h2.881V974.32H85.145v-2.78h-1.72v2.78H81.3V975.9h2.12v5.461a2.816,2.816,0,0,0,3.061,3.061A4.787,4.787,0,0,0,88.026,984.183Zm1.779-4.862a5.006,5.006,0,0,0,4.9,5.2,4.387,4.387,0,0,0,3.521-1.741v1.541h1.72v-10h-1.72v1.541a4.387,4.387,0,0,0-3.521-1.741A5.005,5.005,0,0,0,89.805,979.321Zm8.562,0a3.417,3.417,0,1,1-3.4-3.62A3.415,3.415,0,0,1,98.367,979.321Zm5.318,5h1.721v-4.962c0-2.34,1.28-3.66,2.9-3.66,1.4,0,2.361,1.04,2.361,2.72v5.9h1.7v-6.162c0-2.48-1.54-4.041-3.78-4.041a3.536,3.536,0,0,0-3.181,1.741V974.32h-1.721v10Zm21.363-2.481-1.5-.84a3.39,3.39,0,0,1-3.121,1.92,3.6,3.6,0,0,1,0-7.2,3.39,3.39,0,0,1,3.121,1.92l1.5-.84a5.183,5.183,0,0,0-4.622-2.681,5.2,5.2,0,1,0,0,10.4A5.183,5.183,0,0,0,125.048,981.842Zm1.937-2.521a5.274,5.274,0,0,0,9.683,2.821l-1.361-.94a3.541,3.541,0,0,1-6.581-1.54h8.2a4.907,4.907,0,0,0,.02-0.521c-0.02-3.2-2.141-5.021-4.761-5.021A5.069,5.069,0,0,0,126.985,979.321Zm5.142-3.68a2.992,2.992,0,0,1,3.06,2.62h-6.341A3.269,3.269,0,0,1,132.127,975.641Zm7.439,3.941h10.1v-1.721h-10.1v1.721Zm15.24,3.2a4.388,4.388,0,0,0,3.521,1.741,5.211,5.211,0,0,0,0-10.4,4.388,4.388,0,0,0-3.521,1.741v-6.542h-1.72v15h1.72v-1.541Zm6.662-3.461a3.408,3.408,0,1,1-3.4-3.62A3.415,3.415,0,0,1,161.468,979.321Zm3.938,0a5.273,5.273,0,0,0,9.682,2.821l-1.36-.94a3.542,3.542,0,0,1-6.582-1.54h8.2a4.907,4.907,0,0,0,.02-0.521c-0.02-3.2-2.14-5.021-4.761-5.021A5.068,5.068,0,0,0,165.406,979.321Zm5.141-3.68a2.993,2.993,0,0,1,3.061,2.62h-6.342A3.27,3.27,0,0,1,170.547,975.641Zm16.841,6.2-1.5-.84a3.39,3.39,0,0,1-3.121,1.92,3.6,3.6,0,0,1,0-7.2,3.39,3.39,0,0,1,3.121,1.92l1.5-.84a5.18,5.18,0,0,0-4.621-2.681,5.2,5.2,0,1,0,0,10.4A5.18,5.18,0,0,0,187.388,981.842Zm1.938-2.521a5.006,5.006,0,0,0,4.9,5.2,4.387,4.387,0,0,0,3.521-1.741v1.541h1.72v-10h-1.72v1.541a4.387,4.387,0,0,0-3.521-1.741A5.006,5.006,0,0,0,189.326,979.321Zm8.562,0a3.417,3.417,0,1,1-3.4-3.62A3.415,3.415,0,0,1,197.888,979.321Zm5.178,1.141c0,2.48,1.481,4.061,3.681,4.061a3.443,3.443,0,0,0,3.081-1.741v1.541h1.72v-10h-1.72v4.961c0,2.3-1.22,3.661-2.781,3.661-1.38,0-2.26-1.06-2.26-2.74V974.32h-1.721v6.142Zm18.7,1.08c0-1.5-.94-2.461-2.641-3.021l-1.08-.36c-1.18-.38-1.54-0.76-1.54-1.4,0-.74.74-1.16,1.68-1.16a2.7,2.7,0,0,1,2.121,1.04l1.12-1.08a3.877,3.877,0,0,0-3.2-1.441c-1.98,0-3.381,1.1-3.381,2.721,0,1.4.861,2.38,2.481,2.9l0.98,0.32c1.3,0.42,1.781.9,1.781,1.6a1.523,1.523,0,0,1-1.761,1.36,2.684,2.684,0,0,1-2.56-1.58l-1.4.76a3.974,3.974,0,0,0,3.921,2.321C220.308,984.523,221.768,983.5,221.768,981.542Zm2.178-2.221a5.274,5.274,0,0,0,9.683,2.821l-1.361-.94a3.541,3.541,0,0,1-6.581-1.54h8.2a4.907,4.907,0,0,0,.02-0.521c-0.02-3.2-2.141-5.021-4.761-5.021A5.069,5.069,0,0,0,223.946,979.321Zm5.142-3.68a2.992,2.992,0,0,1,3.06,2.62h-6.341A3.269,3.269,0,0,1,229.088,975.641Zm21.261,8.682h1.52l3.4-10h-1.82l-2.421,7.3-2.5-7.3h-1.32l-2.5,7.3-2.421-7.3h-1.8l3.4,10h1.521l2.48-7.2Zm6.458-5a5.273,5.273,0,0,0,9.682,2.821l-1.36-.94a3.542,3.542,0,0,1-6.582-1.54h8.2a4.907,4.907,0,0,0,.02-0.521c-0.02-3.2-2.14-5.021-4.761-5.021A5.068,5.068,0,0,0,256.807,979.321Zm5.141-3.68a2.993,2.993,0,0,1,3.061,2.62h-6.342A3.27,3.27,0,0,1,261.948,975.641Zm14.86,7.141a4.386,4.386,0,0,0,3.52,1.741,5.211,5.211,0,0,0,0-10.4,4.386,4.386,0,0,0-3.52,1.741v-6.542h-1.721v15h1.721v-1.541Zm6.661-3.461a3.408,3.408,0,1,1-3.4-3.62A3.415,3.415,0,0,1,283.469,979.321Zm3.938,0a5.273,5.273,0,0,0,9.682,2.821l-1.36-.94a3.542,3.542,0,0,1-6.582-1.54h8.2a4.907,4.907,0,0,0,.02-0.521c-0.02-3.2-2.14-5.021-4.761-5.021A5.069,5.069,0,0,0,287.407,979.321Zm5.141-3.68a2.992,2.992,0,0,1,3.061,2.62h-6.342A3.271,3.271,0,0,1,292.548,975.641Zm7.759,8.682h1.721v-15h-1.721v15Zm7.561-13.9a1.208,1.208,0,0,0-1.2-1.221,1.243,1.243,0,0,0-1.241,1.221,1.229,1.229,0,0,0,1.241,1.22A1.2,1.2,0,0,0,307.868,970.42Zm-2.081,13.9h1.721v-10h-1.721v10Zm4.7-5a5.273,5.273,0,0,0,9.683,2.821l-1.361-.94a3.541,3.541,0,0,1-6.581-1.54h8.2a4.907,4.907,0,0,0,.02-0.521c-0.02-3.2-2.141-5.021-4.762-5.021A5.069,5.069,0,0,0,310.487,979.321Zm5.141-3.68a2.992,2.992,0,0,1,3.061,2.62h-6.341A3.269,3.269,0,0,1,315.628,975.641Zm10.72,8.682h1.441l4.621-10h-1.921l-3.42,7.562-3.421-7.562h-1.921Zm7.3-5a5.273,5.273,0,0,0,9.682,2.821l-1.36-.94a3.542,3.542,0,0,1-6.582-1.54h8.2a4.907,4.907,0,0,0,.02-0.521c-0.02-3.2-2.14-5.021-4.761-5.021A5.068,5.068,0,0,0,333.648,979.321Zm5.141-3.68a2.993,2.993,0,0,1,3.061,2.62h-6.342A3.27,3.27,0,0,1,338.789,975.641Zm18.22,8.542v-1.541a3.8,3.8,0,0,1-1.22.2,1.44,1.44,0,0,1-1.66-1.7V975.9h2.88V974.32h-2.88v-2.78h-1.721v2.78h-2.12V975.9h2.12v5.461a2.816,2.816,0,0,0,3.061,3.061A4.786,4.786,0,0,0,357.009,984.183Zm2.7,0.14h1.721v-4.962c0-2.34,1.28-3.66,2.9-3.66,1.4,0,2.361,1.04,2.361,2.72v5.9h1.7v-6.162c0-2.48-1.54-4.041-3.781-4.041a3.535,3.535,0,0,0-3.18,1.741v-6.542h-1.721v15Zm11.5-5a5.006,5.006,0,0,0,4.9,5.2,4.387,4.387,0,0,0,3.521-1.741v1.541h1.721v-10H379.63v1.541a4.387,4.387,0,0,0-3.521-1.741A5.006,5.006,0,0,0,371.208,979.321Zm8.562,0a3.417,3.417,0,1,1-3.4-3.62A3.415,3.415,0,0,1,379.77,979.321Zm10.74,4.862v-1.541a3.8,3.8,0,0,1-1.221.2,1.44,1.44,0,0,1-1.66-1.7V975.9h2.881V974.32h-2.881v-2.78h-1.72v2.78h-2.121V975.9h2.121v5.461a2.816,2.816,0,0,0,3.06,3.061A4.787,4.787,0,0,0,390.51,984.183Zm16.2,0.14h1.52l3.4-10h-1.821l-2.42,7.3-2.5-7.3h-1.32l-2.5,7.3-2.42-7.3h-1.8l3.4,10h1.521l2.48-7.2Zm7.278,0h1.72v-4.962c0-2.34,1.28-3.66,2.9-3.66,1.4,0,2.36,1.04,2.36,2.72v5.9h1.7v-6.162c0-2.48-1.541-4.041-3.781-4.041a3.537,3.537,0,0,0-3.181,1.741v-6.542h-1.72v15Zm11.5-5a5.005,5.005,0,0,0,4.9,5.2,4.388,4.388,0,0,0,3.521-1.741v1.541h1.72v-10h-1.72v1.541a4.388,4.388,0,0,0-3.521-1.741A5.005,5.005,0,0,0,425.489,979.321Zm8.562,0a3.417,3.417,0,1,1-3.4-3.62A3.415,3.415,0,0,1,434.051,979.321Zm10.739,4.862v-1.541a3.8,3.8,0,0,1-1.22.2,1.44,1.44,0,0,1-1.66-1.7V975.9h2.88V974.32h-2.88v-2.78h-1.721v2.78h-2.12V975.9h2.12v5.461a2.816,2.816,0,0,0,3.061,3.061A4.786,4.786,0,0,0,444.79,984.183Zm10.28,4.32,6.561-14.183h-1.92L456.29,981.9l-3.441-7.582h-1.9l4.381,9.482-2.181,4.7h1.921Zm18.222-9.182a5.232,5.232,0,1,0-5.221,5.2A5.133,5.133,0,0,0,473.292,979.321Zm-8.7,0a3.473,3.473,0,1,1,3.481,3.6A3.437,3.437,0,0,1,464.59,979.321Zm11.52,1.141c0,2.48,1.48,4.061,3.681,4.061a3.442,3.442,0,0,0,3.08-1.741v1.541h1.721v-10h-1.721v4.961c0,2.3-1.22,3.661-2.78,3.661-1.381,0-2.261-1.06-2.261-2.74V974.32h-1.72v6.142Zm25.722,3.861h1.52l3.4-10h-1.82l-2.421,7.3-2.5-7.3h-1.321l-2.5,7.3-2.421-7.3h-1.8l3.4,10h1.521l2.48-7.2Zm6.458-5a5.273,5.273,0,0,0,9.682,2.821l-1.36-.94a3.542,3.542,0,0,1-6.582-1.54h8.2a4.907,4.907,0,0,0,.02-0.521c-0.02-3.2-2.14-5.021-4.761-5.021A5.068,5.068,0,0,0,508.29,979.321Zm5.141-3.68a2.992,2.992,0,0,1,3.061,2.62H510.15A3.27,3.27,0,0,1,513.431,975.641Zm6.979,3.68a5.006,5.006,0,0,0,4.9,5.2,4.387,4.387,0,0,0,3.521-1.741v1.541h1.721v-10h-1.721v1.541a4.387,4.387,0,0,0-3.521-1.741A5.006,5.006,0,0,0,520.41,979.321Zm8.562,0a3.417,3.417,0,1,1-3.4-3.62A3.415,3.415,0,0,1,528.972,979.321Zm5.318,5h1.721v-4.962c0-2.34,1.38-3.44,2.641-3.44a2.514,2.514,0,0,1,.94.16V974.3a3.564,3.564,0,0,0-.78-0.08,2.976,2.976,0,0,0-2.8,2.041V974.32H534.29v10Zm19.182-2.781c0-1.5-.94-2.461-2.64-3.021l-1.081-.36c-1.18-.38-1.54-0.76-1.54-1.4,0-.74.74-1.16,1.68-1.16a2.7,2.7,0,0,1,2.121,1.04l1.12-1.08a3.877,3.877,0,0,0-3.2-1.441c-1.98,0-3.381,1.1-3.381,2.721,0,1.4.861,2.38,2.481,2.9l0.98,0.32c1.3,0.42,1.781.9,1.781,1.6a1.523,1.523,0,0,1-1.761,1.36,2.684,2.684,0,0,1-2.56-1.58l-1.4.76a3.975,3.975,0,0,0,3.921,2.321C552.012,984.523,553.472,983.5,553.472,981.542Zm2.959,2.781h1.72v-4.962c0-2.34,1.28-3.66,2.9-3.66,1.4,0,2.36,1.04,2.36,2.72v5.9h1.7v-6.162c0-2.48-1.541-4.041-3.781-4.041a3.537,3.537,0,0,0-3.181,1.741v-6.542h-1.72v15Zm21.942-5a5.231,5.231,0,1,0-5.221,5.2A5.133,5.133,0,0,0,578.373,979.321Zm-8.7,0a3.473,3.473,0,1,1,3.481,3.6A3.437,3.437,0,0,1,569.671,979.321Zm11.52,1.141c0,2.48,1.48,4.061,3.681,4.061a3.442,3.442,0,0,0,3.08-1.741v1.541h1.721v-10h-1.721v4.961c0,2.3-1.22,3.661-2.78,3.661-1.381,0-2.261-1.06-2.261-2.74V974.32h-1.72v6.142Zm12.22,3.861h1.72v-15h-1.72v15Zm4.7-5a5.005,5.005,0,0,0,4.9,5.2,4.388,4.388,0,0,0,3.521-1.741v1.541h1.72v-15h-1.72v6.542a4.388,4.388,0,0,0-3.521-1.741A5.005,5.005,0,0,0,598.111,979.321Zm8.562,0a3.417,3.417,0,1,1-3.4-3.62A3.415,3.415,0,0,1,606.673,979.321Zm-558.326,30a5.231,5.231,0,1,0-5.221,5.2A5.132,5.132,0,0,0,48.347,1009.32Zm-8.7,0a3.473,3.473,0,1,1,3.481,3.6A3.437,3.437,0,0,1,39.644,1009.32Zm11.66,9.18h1.72v-5.72a4.387,4.387,0,0,0,3.521,1.74,5.209,5.209,0,0,0,0-10.4,4.387,4.387,0,0,0-3.521,1.74v-1.54H51.3v14.18Zm8.382-9.18a3.407,3.407,0,1,1-3.4-3.62A3.415,3.415,0,0,1,59.686,1009.32Zm3.958,0a5.273,5.273,0,0,0,9.682,2.82l-1.36-.94a3.542,3.542,0,0,1-6.582-1.54h8.2a4.88,4.88,0,0,0,.02-0.52c-0.02-3.2-2.141-5.02-4.761-5.02A5.068,5.068,0,0,0,63.644,1009.32Zm5.141-3.68a2.992,2.992,0,0,1,3.061,2.62H65.5A3.27,3.27,0,0,1,68.786,1005.64Zm7.759,8.68h1.72v-4.96c0-2.34,1.28-3.66,2.9-3.66,1.4,0,2.361,1.04,2.361,2.72v5.9h1.7v-6.16c0-2.48-1.54-4.04-3.781-4.04a3.537,3.537,0,0,0-3.181,1.74v-1.54h-1.72v10Zm16.88-5a5,5,0,0,0,4.9,5.2,4.385,4.385,0,0,0,3.52-1.74v1.54h1.721v-10h-1.721v1.54a4.385,4.385,0,0,0-3.52-1.74A5,5,0,0,0,93.425,1009.32Zm8.563,0a3.417,3.417,0,1,1-3.4-3.62A3.415,3.415,0,0,1,101.987,1009.32Zm18.82,5h1.52l3.4-10h-1.82l-2.421,7.3-2.5-7.3h-1.32l-2.5,7.3-2.421-7.3h-1.8l3.4,10h1.521l2.48-7.2Zm16.9-5a5.231,5.231,0,1,0-5.221,5.2A5.132,5.132,0,0,0,137.707,1009.32Zm-8.7,0a3.473,3.473,0,1,1,3.481,3.6A3.438,3.438,0,0,1,129.005,1009.32Zm11.66,5h1.72v-4.96c0-2.34,1.381-3.44,2.641-3.44a2.514,2.514,0,0,1,.94.16v-1.78a3.564,3.564,0,0,0-.78-0.08,2.977,2.977,0,0,0-2.8,2.04v-1.94h-1.72v10Zm7.82,0h1.721v-15h-1.721v15Zm4.7-5a5,5,0,0,0,4.9,5.2,4.386,4.386,0,0,0,3.521-1.74v1.54h1.72v-15h-1.72v6.541a4.386,4.386,0,0,0-3.521-1.74A5,5,0,0,0,153.185,1009.32Zm8.562,0a3.417,3.417,0,1,1-3.4-3.62A3.415,3.415,0,0,1,161.747,1009.32Zm20.361,0a5.232,5.232,0,1,0-5.222,5.2A5.133,5.133,0,0,0,182.108,1009.32Zm-8.7,0a3.473,3.473,0,1,1,3.481,3.6A3.438,3.438,0,0,1,173.405,1009.32Zm12.341,5h1.72v-8.42h2.9v-1.58h-2.9v-1.84a1.44,1.44,0,0,1,1.66-1.7,4.029,4.029,0,0,1,1.241.2v-1.521a4.551,4.551,0,0,0-1.561-.26,2.857,2.857,0,0,0-3.06,3.1v2.02h-2.121v1.58h2.121v8.42Zm11.86,4.18h1.72v-5.72a4.386,4.386,0,0,0,3.521,1.74,5.209,5.209,0,0,0,0-10.4,4.386,4.386,0,0,0-3.521,1.74v-1.54h-1.72v14.18Zm8.382-9.18a3.408,3.408,0,1,1-3.4-3.62A3.415,3.415,0,0,1,205.988,1009.32Zm14.4,0a5.231,5.231,0,1,0-5.221,5.2A5.132,5.132,0,0,0,220.388,1009.32Zm-8.7,0a3.473,3.473,0,1,1,3.481,3.6A3.437,3.437,0,0,1,211.686,1009.32Zm18.122,2.22c0-1.5-.941-2.46-2.641-3.02l-1.08-.36c-1.181-.38-1.541-0.76-1.541-1.4,0-.74.741-1.16,1.681-1.16a2.7,2.7,0,0,1,2.12,1.04l1.121-1.08a3.881,3.881,0,0,0-3.2-1.44c-1.981,0-3.381,1.1-3.381,2.72,0,1.4.86,2.38,2.481,2.9l0.98,0.32c1.3,0.42,1.78.9,1.78,1.6a1.522,1.522,0,0,1-1.76,1.36,2.685,2.685,0,0,1-2.561-1.58l-1.4.76a3.972,3.972,0,0,0,3.921,2.32C228.347,1014.52,229.808,1013.5,229.808,1011.54Zm9.42,0c0-1.5-.94-2.46-2.641-3.02l-1.08-.36c-1.18-.38-1.54-0.76-1.54-1.4,0-.74.74-1.16,1.68-1.16a2.7,2.7,0,0,1,2.12,1.04l1.121-1.08a3.88,3.88,0,0,0-3.2-1.44c-1.98,0-3.381,1.1-3.381,2.72,0,1.4.86,2.38,2.481,2.9l0.98,0.32c1.3,0.42,1.78.9,1.78,1.6a1.522,1.522,0,0,1-1.76,1.36,2.686,2.686,0,0,1-2.561-1.58l-1.4.76a3.973,3.973,0,0,0,3.921,2.32C237.767,1014.52,239.228,1013.5,239.228,1011.54Zm5.039-11.12a1.208,1.208,0,0,0-1.2-1.221,1.243,1.243,0,0,0-1.241,1.221,1.229,1.229,0,0,0,1.241,1.22A1.2,1.2,0,0,0,244.267,1000.42Zm-2.081,13.9h1.721v-10h-1.721v10Zm7.2-1.54a4.386,4.386,0,0,0,3.521,1.74,5.209,5.209,0,0,0,0-10.4,4.386,4.386,0,0,0-3.521,1.74v-6.541h-1.721v15h1.721v-1.54Zm6.661-3.46a3.407,3.407,0,1,1-3.4-3.62A3.414,3.414,0,0,1,256.048,1009.32Zm6.8-8.9a1.208,1.208,0,0,0-1.2-1.221,1.243,1.243,0,0,0-1.241,1.221,1.23,1.23,0,0,0,1.241,1.22A1.2,1.2,0,0,0,262.847,1000.42Zm-2.081,13.9h1.721v-10h-1.721v10Zm5.48,0h1.721v-15h-1.721v15Zm7.561-13.9a1.208,1.208,0,0,0-1.2-1.221,1.243,1.243,0,0,0-1.241,1.221,1.229,1.229,0,0,0,1.241,1.22A1.2,1.2,0,0,0,273.807,1000.42Zm-2.081,13.9h1.721v-10h-1.721v10Zm10.9-.14v-1.54a3.8,3.8,0,0,1-1.221.2,1.44,1.44,0,0,1-1.66-1.7v-5.24h2.881v-1.58h-2.881v-2.78h-1.72v2.78h-2.121v1.58h2.121v5.46a2.815,2.815,0,0,0,3.06,3.06A4.787,4.787,0,0,0,282.628,1014.18Zm4.779-13.76a1.208,1.208,0,0,0-1.2-1.221,1.243,1.243,0,0,0-1.241,1.221,1.23,1.23,0,0,0,1.241,1.22A1.2,1.2,0,0,0,287.407,1000.42Zm-2.08,13.9h1.72v-10h-1.72v10Zm4.7-5a5.274,5.274,0,0,0,9.683,2.82l-1.361-.94a3.541,3.541,0,0,1-6.581-1.54h8.2a4.88,4.88,0,0,0,.02-0.52c-0.02-3.2-2.141-5.02-4.761-5.02A5.068,5.068,0,0,0,290.026,1009.32Zm5.142-3.68a2.992,2.992,0,0,1,3.06,2.62h-6.341A3.269,3.269,0,0,1,295.168,1005.64Zm14.24,5.9c0-1.5-.94-2.46-2.64-3.02l-1.081-.36c-1.18-.38-1.54-0.76-1.54-1.4,0-.74.74-1.16,1.68-1.16a2.7,2.7,0,0,1,2.121,1.04l1.12-1.08a3.879,3.879,0,0,0-3.2-1.44c-1.98,0-3.38,1.1-3.38,2.72,0,1.4.86,2.38,2.48,2.9l0.98,0.32c1.3,0.42,1.781.9,1.781,1.6a1.523,1.523,0,0,1-1.761,1.36,2.684,2.684,0,0,1-2.56-1.58l-1.4.76a3.972,3.972,0,0,0,3.92,2.32C307.948,1014.52,309.408,1013.5,309.408,1011.54Zm8.919,2.78h1.721v-8.42h2.9v-1.58h-2.9v-1.84a1.44,1.44,0,0,1,1.66-1.7,4.027,4.027,0,0,1,1.24.2v-1.521a4.545,4.545,0,0,0-1.56-.26,2.857,2.857,0,0,0-3.061,3.1v2.02h-2.12v1.58h2.12v8.42Zm16.4-5a5.232,5.232,0,1,0-5.222,5.2A5.133,5.133,0,0,0,334.73,1009.32Zm-8.7,0a3.473,3.473,0,1,1,3.48,3.6A3.437,3.437,0,0,1,326.028,1009.32Zm11.659,5h1.721v-4.96c0-2.34,1.38-3.44,2.64-3.44a2.519,2.519,0,0,1,.941.16v-1.78a3.572,3.572,0,0,0-.781-0.08,2.975,2.975,0,0,0-2.8,2.04v-1.94h-1.721v10Zm11.92-5a5,5,0,0,0,4.9,5.2,4.386,4.386,0,0,0,3.521-1.74v1.54h1.721v-10h-1.721v1.54a4.386,4.386,0,0,0-3.521-1.74A5,5,0,0,0,349.607,1009.32Zm8.562,0a3.417,3.417,0,1,1-3.4-3.62A3.414,3.414,0,0,1,358.169,1009.32Zm10.7,5h1.72v-15h-1.72v15Zm7.56-13.9a1.208,1.208,0,0,0-1.2-1.221,1.243,1.243,0,0,0-1.241,1.221,1.23,1.23,0,0,0,1.241,1.22A1.2,1.2,0,0,0,376.428,1000.42Zm-2.081,13.9h1.721v-10h-1.721v10Zm6.321,0h1.72v-8.42h2.9v-1.58h-2.9v-1.84a1.44,1.44,0,0,1,1.66-1.7,4.029,4.029,0,0,1,1.241.2v-1.521a4.547,4.547,0,0,0-1.561-.26,2.857,2.857,0,0,0-3.06,3.1v2.02h-2.121v1.58h2.121v8.42Zm5.96-5a5.273,5.273,0,0,0,9.682,2.82l-1.36-.94a3.542,3.542,0,0,1-6.582-1.54h8.2a4.88,4.88,0,0,0,.02-0.52c-0.02-3.2-2.141-5.02-4.761-5.02A5.068,5.068,0,0,0,386.628,1009.32Zm5.141-3.68a2.994,2.994,0,0,1,3.061,2.62h-6.342A3.269,3.269,0,0,1,391.769,1005.64Zm21.261,8.68h1.52l3.4-10h-1.82l-2.421,7.3-2.5-7.3h-1.321l-2.5,7.3-2.421-7.3h-1.8l3.4,10h1.521l2.48-7.2Zm9.359-13.9a1.209,1.209,0,0,0-1.2-1.221,1.242,1.242,0,0,0-1.24,1.221,1.229,1.229,0,0,0,1.24,1.22A1.2,1.2,0,0,0,422.389,1000.42Zm-2.081,13.9h1.721v-10h-1.721v10Zm10.9-.14v-1.54a3.8,3.8,0,0,1-1.22.2,1.44,1.44,0,0,1-1.66-1.7v-5.24h2.88v-1.58h-2.88v-2.78h-1.721v2.78h-2.12v1.58h2.12v5.46a2.816,2.816,0,0,0,3.061,3.06A4.786,4.786,0,0,0,431.209,1014.18Zm2.7,0.14h1.721v-4.96c0-2.34,1.28-3.66,2.9-3.66,1.4,0,2.361,1.04,2.361,2.72v5.9h1.7v-6.16c0-2.48-1.54-4.04-3.781-4.04a3.536,3.536,0,0,0-3.18,1.74v-6.541h-1.721v15Zm17.66,0h1.721v-4.96c0-2.34,1.28-3.66,2.9-3.66,1.4,0,2.361,1.04,2.361,2.72v5.9h1.7v-6.16c0-2.48-1.54-4.04-3.781-4.04a3.536,3.536,0,0,0-3.18,1.74v-1.54h-1.721v10Zm21.943-5a5.232,5.232,0,1,0-5.222,5.2A5.133,5.133,0,0,0,473.511,1009.32Zm-8.7,0a3.473,3.473,0,1,1,3.48,3.6A3.437,3.437,0,0,1,464.809,1009.32Zm18.76,3.46a4.386,4.386,0,0,0,3.521,1.74,5.209,5.209,0,0,0,0-10.4,4.386,4.386,0,0,0-3.521,1.74v-6.541h-1.721v15h1.721v-1.54Zm6.661-3.46a3.407,3.407,0,1,1-3.4-3.62A3.415,3.415,0,0,1,490.23,1009.32Zm14.381,0a5.232,5.232,0,1,0-5.222,5.2A5.133,5.133,0,0,0,504.611,1009.32Zm-8.7,0a3.473,3.473,0,1,1,3.48,3.6A3.437,3.437,0,0,1,495.909,1009.32Zm11.519,1.14c0,2.48,1.481,4.06,3.681,4.06a3.441,3.441,0,0,0,3.081-1.74v1.54h1.72v-10h-1.72v4.96c0,2.3-1.22,3.66-2.781,3.66-1.38,0-2.26-1.06-2.26-2.74v-5.88h-1.721v6.14Zm12.221,3.86h1.72v-4.96c0-2.34,1.28-3.66,2.9-3.66,1.4,0,2.36,1.04,2.36,2.72v5.9h1.7v-6.16c0-2.48-1.541-4.04-3.781-4.04a3.538,3.538,0,0,0-3.181,1.74v-1.54h-1.72v10Zm11.5-5a5,5,0,0,0,4.9,5.2,4.389,4.389,0,0,0,3.521-1.74v1.54h1.72v-15h-1.72v6.541a4.389,4.389,0,0,0-3.521-1.74A5,5,0,0,0,531.149,1009.32Zm8.562,0a3.417,3.417,0,1,1-3.4-3.62A3.415,3.415,0,0,1,539.711,1009.32Zm4.538,0a5,5,0,0,0,4.9,5.2,4.387,4.387,0,0,0,3.521-1.74v1.54h1.72v-10h-1.72v1.54a4.387,4.387,0,0,0-3.521-1.74A5,5,0,0,0,544.249,1009.32Zm8.562,0a3.417,3.417,0,1,1-3.4-3.62A3.415,3.415,0,0,1,552.811,1009.32Zm5.318,5h1.72v-4.96c0-2.34,1.381-3.44,2.641-3.44a2.514,2.514,0,0,1,.94.16v-1.78a3.564,3.564,0,0,0-.78-0.08,2.976,2.976,0,0,0-2.8,2.04v-1.94h-1.72v10Zm9.9-13.9a1.208,1.208,0,0,0-1.2-1.221,1.242,1.242,0,0,0-1.24,1.221,1.229,1.229,0,0,0,1.24,1.22A1.2,1.2,0,0,0,568.03,1000.42Zm-2.081,13.9h1.721v-10h-1.721v10Zm4.7-5a5.273,5.273,0,0,0,9.682,2.82l-1.36-.94a3.542,3.542,0,0,1-6.582-1.54h8.2a4.88,4.88,0,0,0,.02-0.52c-0.02-3.2-2.14-5.02-4.761-5.02A5.068,5.068,0,0,0,570.649,1009.32Zm5.141-3.68a2.992,2.992,0,0,1,3.061,2.62h-6.342A3.271,3.271,0,0,1,575.79,1005.64Zm14.241,5.9c0-1.5-.94-2.46-2.641-3.02l-1.08-.36c-1.18-.38-1.54-0.76-1.54-1.4,0-.74.74-1.16,1.68-1.16a2.705,2.705,0,0,1,2.121,1.04l1.12-1.08a3.88,3.88,0,0,0-3.2-1.44c-1.98,0-3.381,1.1-3.381,2.72,0,1.4.86,2.38,2.481,2.9l0.98,0.32c1.3,0.42,1.78.9,1.78,1.6a1.522,1.522,0,0,1-1.76,1.36,2.686,2.686,0,0,1-2.561-1.58l-1.4.76a3.973,3.973,0,0,0,3.921,2.32C588.571,1014.52,590.031,1013.5,590.031,1011.54Zm5.339,1.44a1.481,1.481,0,1,0-1.48,1.5A1.507,1.507,0,0,0,595.37,1012.98Z"/>
  <path id="Designed_for_a_life_with_NO_BOUNDARIES_copy" data-name="Designed for a life with NO BOUNDARIES copy" class="cls-4" d="M40.074,740.072h9.575a14.048,14.048,0,1,0,0-28.09H40.074v28.09Zm6.291-5.776V717.758h3.284c4.748,0,7.952,3.759,7.952,8.269s-3.2,8.269-7.952,8.269H46.364Zm24.4,5.776h17.8v-6.014H77.054v-5.024h9.139V723.02H77.054V718H88.567v-6.014h-17.8v28.09Zm33.376,0.475c5.934,0,10.009-3.561,10.049-8.665,0.039-4.233-2.611-6.923-6.687-8.387l-1.978-.712c-2.967-1.068-4.352-1.741-4.352-3.244,0-1.464,1.7-2.137,3.4-2.137a6.248,6.248,0,0,1,4.866,2.335l4.115-4.352a11.722,11.722,0,0,0-9.06-3.878c-5.619,0-9.694,3.205-9.694,8.665,0,3.837,2.532,6.567,7.082,8.11l1.979,0.673c2.809,0.949,3.916,1.938,3.916,3.363,0,1.345-1.305,2.334-3.4,2.334a7.349,7.349,0,0,1-5.816-3.205l-4.827,4.075A12.318,12.318,0,0,0,104.139,740.547Zm16.8-.475h6.291v-28.09h-6.291v28.09Zm28.341,0.475c4.55,0,9.02-1.346,11.513-4.154V723.06H149.158v5.9h5.5v4.154c-1.186.949-3.244,1.345-5.459,1.345-5.5,0-8.863-3.64-8.863-8.427A8.246,8.246,0,0,1,148.8,717.6a9.33,9.33,0,0,1,7.082,3.007l4.431-4.312a14.943,14.943,0,0,0-11.513-4.788,14.349,14.349,0,0,0-14.8,14.52C134.005,734.256,140.533,740.547,149.277,740.547Zm44.261-.475v-28.09h-6.33v17.329l-13.649-17.329h-5.421v28.09h6.291V722.7l13.689,17.368h5.42Zm8.339,0h17.8v-6.014H208.168v-5.024h9.139V723.02h-9.139V718h11.513v-6.014h-17.8v28.09Zm24.988,0h9.574a14.048,14.048,0,1,0,0-28.09h-9.574v28.09Zm6.29-5.776V717.758h3.284c4.748,0,7.952,3.759,7.952,8.269s-3.2,8.269-7.952,8.269h-3.284Zm35.487,5.776h6.291v-11h8.585V723.06h-8.585V718h11v-6.014H268.642v28.09Zm36.341,0.475a14.52,14.52,0,1,0-14.52-14.52A14.555,14.555,0,0,0,304.983,740.547Zm0-6.093a8.432,8.432,0,1,1,8.15-8.427A8.335,8.335,0,0,1,304.983,734.454Zm21.276,5.618h6.291V728.48h1.029l9.337,11.592h7.557l-9.931-12.383c3.561-1.266,5.5-3.6,5.5-7.24a8.293,8.293,0,0,0-8.7-8.467H326.259v28.09Zm6.291-16.933v-5.381h4.036c1.859,0,3.2.989,3.2,2.691,0,1.622-1.345,2.69-3.2,2.69H332.55Zm28.4,16.933h6.568l2.492-5.935h11.632l2.493,5.935H390.7l-12.027-28.09h-5.7Zm11.355-11.394,3.521-8.467,3.521,8.467h-7.042Zm33.627,11.394h17.923v-6.014H412.224V711.982h-6.291v28.09Zm24.235,0h6.291v-28.09h-6.291v28.09Zm14.612,0h6.291v-11h8.585V723.06h-8.585V718h11v-6.014H444.78v28.09Zm23.958,0h17.8v-6.014H475.029v-5.024h9.139V723.02h-9.139V718h11.513v-6.014h-17.8v28.09ZM62.19,779.739h5.974l6.528-28.09H67.966l-3.838,17.8-7.913-18.278-7.873,18.278-3.838-17.8H37.779l6.489,28.09h5.974l5.974-13.768Zm18.474,0h6.291v-28.09H80.663v28.09Zm19.677,0h6.33V757.663h7.24v-6.014H93.179v6.014h7.162v22.076Zm19.8,0h6.291V768.622H137.75v11.117h6.29v-28.09h-6.29v11H126.435v-11h-6.291v28.09Zm68.722,0v-28.09h-6.331v17.329l-13.649-17.329h-5.42v28.09h6.29V762.371l13.689,17.368h5.421Zm21.276,0.475a14.52,14.52,0,1,0-14.52-14.52A14.555,14.555,0,0,0,210.142,780.214Zm0-6.093a8.432,8.432,0,1,1,8.15-8.427A8.334,8.334,0,0,1,210.142,774.121Zm32.364,5.618H254.85a8.3,8.3,0,0,0,8.545-8.269,7.34,7.34,0,0,0-4-6.646A6.61,6.61,0,0,0,261.417,760a8.349,8.349,0,0,0-8.348-8.348H242.506v28.09ZM248.8,763v-5.618h3.561a2.856,2.856,0,0,1,2.928,2.848,2.816,2.816,0,0,1-2.928,2.77H248.8Zm0,10.959v-5.618h5.5a2.858,2.858,0,0,1,2.967,2.809,2.823,2.823,0,0,1-2.928,2.809H248.8Zm34.169,6.251a14.52,14.52,0,1,0-14.52-14.52A14.555,14.555,0,0,0,282.965,780.214Zm0-6.093a8.432,8.432,0,1,1,8.15-8.427A8.334,8.334,0,0,1,282.965,774.121Zm32.512,6.093c6.726,0,11.553-4.59,11.553-11.592V751.649h-6.291V768.7c0,3.363-2.136,5.42-5.262,5.42s-5.262-2.057-5.262-5.42V751.649h-6.29v16.973C303.925,775.624,308.712,780.214,315.477,780.214Zm44.972-.475v-28.09h-6.33v17.329L340.47,751.649h-5.421v28.09h6.291V762.371l13.689,17.368h5.42Zm8.339,0h9.575a14.048,14.048,0,1,0,0-28.09h-9.575v28.09Zm6.291-5.776V757.425h3.284c4.747,0,7.952,3.759,7.952,8.269s-3.2,8.269-7.952,8.269h-3.284Zm20.086,5.776h6.567l2.493-5.934h11.632l2.492,5.934h6.568l-12.027-28.09h-5.7Zm11.355-11.394,3.521-8.467,3.521,8.467H406.52Zm23.728,11.394h6.29V768.147h1.029l9.337,11.592h7.557l-9.931-12.383c3.561-1.266,5.5-3.6,5.5-7.24a8.294,8.294,0,0,0-8.7-8.467H430.248v28.09Zm6.29-16.933v-5.381h4.036c1.859,0,3.2.99,3.2,2.691,0,1.622-1.346,2.69-3.2,2.69h-4.036Zm22.3,16.933h6.291v-28.09h-6.291v28.09Zm14.612,0h17.8v-6.014H479.741V768.7h9.139v-6.014h-9.139v-5.024h11.513v-6.014h-17.8v28.09Zm33.375,0.475c5.935,0,10.01-3.561,10.05-8.665,0.039-4.233-2.612-6.923-6.687-8.387l-1.978-.712c-2.967-1.068-4.352-1.741-4.352-3.244,0-1.464,1.7-2.137,3.4-2.137a6.248,6.248,0,0,1,4.866,2.335l4.115-4.352a11.723,11.723,0,0,0-9.06-3.877c-5.619,0-9.694,3.2-9.694,8.664,0,3.837,2.532,6.567,7.082,8.11l1.978,0.673c2.81,0.949,3.917,1.938,3.917,3.363,0,1.345-1.3,2.334-3.4,2.334a7.348,7.348,0,0,1-5.816-3.2l-4.827,4.075A12.318,12.318,0,0,0,506.825,780.214Z"/>
</svg>
