<svg xmlns="http://www.w3.org/2000/svg" width="672" height="1097" viewBox="0 0 672 1097">
  <defs>
    <style>
      .cls-1 {
        fill-rule: evenodd;
      }
    </style>
  </defs>
  <path id="Shop_Now_copy_3" data-name="Shop Now copy 3" class="cls-1" d="M89.661,943.093a4.267,4.267,0,0,0,3.795,1.92c2.085,0,3.555-1.215,3.555-3.075,0.015-1.59-.93-2.535-2.5-3.12l-1.08-.4c-1.095-.4-1.62-0.75-1.62-1.53a1.465,1.465,0,0,1,1.68-1.23,2.58,2.58,0,0,1,2.025.99l1.215-1.185A4.1,4.1,0,0,0,93.5,934c-1.98,0-3.465,1.14-3.465,3,0,1.455.825,2.385,2.52,3l1.17,0.42c1.02,0.375,1.515.87,1.515,1.62a1.5,1.5,0,0,1-1.725,1.32A2.9,2.9,0,0,1,91.041,942Zm11.955,1.74h1.755v-4.575h5.265v4.575h1.754v-10.65h-1.754v4.41h-5.265v-4.41h-1.755v10.65Zm24.434-5.325a5.5,5.5,0,1,0-5.5,5.5A5.48,5.48,0,0,0,126.05,939.508Zm-9.239,0a3.728,3.728,0,1,1,3.735,3.81A3.733,3.733,0,0,1,116.811,939.508Zm17.249-5.325h-3.389v10.65h1.754v-3.69h1.635A3.486,3.486,0,1,0,134.06,934.183Zm-0.015,5.31h-1.62v-3.66h1.62A1.836,1.836,0,1,1,134.045,939.493Zm23.19,5.34v-10.65h-1.77v7.635l-5.985-7.635h-1.53v10.65h1.755v-7.665l6,7.665h1.53Zm15.645-5.325a5.5,5.5,0,1,0-5.5,5.5A5.48,5.48,0,0,0,172.88,939.508Zm-9.24,0a3.728,3.728,0,1,1,3.735,3.81A3.733,3.733,0,0,1,163.64,939.508Zm22.125,5.325h1.62l2.76-10.65h-1.86l-1.95,7.74L183.29,934l-3.045,7.92-1.95-7.74H176.45l2.745,10.65h1.62l2.475-6.51Zm-96.584,3.5v-1.349H192.815v1.349H89.181Z"/>
  <path id="Chukka_Boot_Available_in_leather_and_suede._copy" data-name="Chukka Boot Available in leather and suede.       copy" class="cls-1" d="M96.426,881.386a7.34,7.34,0,0,0,6.64-3.88l-2.8-1.52a4.259,4.259,0,1,1,0-3.88l2.8-1.52A7.4,7.4,0,1,0,96.426,881.386Zm10.1-.24h3.18v-5.62h5.72v5.62h3.18v-14.2h-3.18v5.559h-5.72v-5.559h-3.18v14.2Zm22.36,0.24a5.569,5.569,0,0,0,5.84-5.86v-8.579h-3.18v8.619a2.661,2.661,0,1,1-5.32,0v-8.619h-3.18v8.579A5.558,5.558,0,0,0,128.886,881.386Zm10.28-.24h3.16v-6.36l5.78,6.36h4.08l-6.74-7.38,5.6-6.819h-3.9l-4.82,5.939v-5.939h-3.16v14.2Zm15.6,0h3.16v-6.36l5.78,6.36h4.08l-6.74-7.38,5.6-6.819h-3.9l-4.82,5.939v-5.939h-3.16v14.2Zm14.08,0h3.32l1.26-3h5.88l1.26,3h3.32l-6.08-14.2h-2.88Zm5.74-5.76,1.78-4.28,1.78,4.28h-3.56Zm17.78,5.76h6.24a4.2,4.2,0,0,0,4.32-4.18,3.711,3.711,0,0,0-2.02-3.36,3.342,3.342,0,0,0,1.02-2.44,4.221,4.221,0,0,0-4.22-4.219h-5.34v14.2Zm3.18-8.46v-2.839h1.8a1.442,1.442,0,0,1,1.48,1.439,1.423,1.423,0,0,1-1.48,1.4h-1.8Zm0,5.54v-2.84h2.78a1.445,1.445,0,0,1,1.5,1.42,1.427,1.427,0,0,1-1.48,1.42h-2.8Zm17.66,3.16a7.34,7.34,0,1,0-7.34-7.34A7.357,7.357,0,0,0,213.206,881.386Zm0-3.08a4.262,4.262,0,1,1,4.119-4.26A4.213,4.213,0,0,1,213.206,878.306Zm17.679,3.08a7.34,7.34,0,1,0-7.34-7.34A7.358,7.358,0,0,0,230.885,881.386Zm0-3.08a4.262,4.262,0,1,1,4.12-4.26A4.213,4.213,0,0,1,230.885,878.306Zm13.16,2.84h3.2v-11.16h3.66v-3.039h-10.48v3.039h3.62v11.16ZM88.477,904.286h1.441l1.365-3.106H96.25l1.365,3.106h1.456l-4.727-10.654H93.188Zm3.346-4.367,1.936-4.4,1.936,4.4H91.823Zm11.6,4.367h1.08l3.467-7.5h-1.441l-2.566,5.672-2.566-5.672h-1.44Zm6.314-3.751a3.754,3.754,0,0,0,3.676,3.9,3.289,3.289,0,0,0,2.641-1.305v1.155h1.291v-7.5h-1.291v1.156a3.287,3.287,0,0,0-2.641-1.306A3.754,3.754,0,0,0,109.732,900.535Zm6.422,0a2.563,2.563,0,1,1-2.551-2.717A2.562,2.562,0,0,1,116.154,900.535Zm6.373-6.678a0.907,0.907,0,0,0-.9-0.916,0.933,0.933,0,0,0-.93.916,0.922,0.922,0,0,0,.93.915A0.9,0.9,0,0,0,122.527,893.857Zm-1.56,10.429h1.29v-7.5h-1.29v7.5Zm4.935,0h1.29V893.032H125.9v11.254Zm4.349-3.751a3.755,3.755,0,0,0,3.677,3.9,3.291,3.291,0,0,0,2.641-1.305v1.155h1.29v-7.5h-1.29v1.156a3.289,3.289,0,0,0-2.641-1.306A3.755,3.755,0,0,0,130.251,900.535Zm6.423,0a2.563,2.563,0,1,1-2.551-2.717A2.562,2.562,0,0,1,136.674,900.535Zm6.1,2.6a3.289,3.289,0,0,0,2.641,1.305,3.908,3.908,0,0,0,0-7.8,3.287,3.287,0,0,0-2.641,1.306v-4.907h-1.291v11.254h1.291v-1.155Zm5-2.6a2.556,2.556,0,1,1-2.551-2.717A2.562,2.562,0,0,1,147.774,900.535Zm4.362,3.751h1.291V893.032h-1.291v11.254Zm4.35-3.751a3.956,3.956,0,0,0,7.263,2.115l-1.021-.7a2.656,2.656,0,0,1-4.937-1.155h6.153a3.66,3.66,0,0,0,.015-0.39,3.5,3.5,0,0,0-3.572-3.767A3.8,3.8,0,0,0,156.486,900.535Zm3.856-2.762a2.245,2.245,0,0,1,2.3,1.966h-4.757A2.454,2.454,0,0,1,160.342,897.773Zm13.064-3.916a0.907,0.907,0,0,0-.9-0.916,0.933,0.933,0,0,0-.93.916,0.922,0.922,0,0,0,.93.915A0.9,0.9,0,0,0,173.406,893.857Zm-1.56,10.429h1.29v-7.5h-1.29v7.5Zm4.935,0h1.29v-3.721c0-1.756.961-2.747,2.176-2.747a1.8,1.8,0,0,1,1.771,2.041v4.427h1.275v-4.622a2.765,2.765,0,0,0-2.836-3.031,2.653,2.653,0,0,0-2.386,1.306v-1.156h-1.29v7.5Zm14.894,0h1.291V893.032h-1.291v11.254Zm4.35-3.751a3.956,3.956,0,0,0,7.263,2.115l-1.021-.7a2.656,2.656,0,0,1-4.937-1.155h6.153a3.66,3.66,0,0,0,.015-0.39,3.5,3.5,0,0,0-3.572-3.767A3.8,3.8,0,0,0,196.025,900.535Zm3.856-2.762a2.245,2.245,0,0,1,2.3,1.966H197.42A2.455,2.455,0,0,1,199.881,897.773Zm6.059,2.762a3.754,3.754,0,0,0,3.676,3.9,3.289,3.289,0,0,0,2.641-1.305v1.155h1.291v-7.5h-1.291v1.156a3.287,3.287,0,0,0-2.641-1.306A3.754,3.754,0,0,0,205.94,900.535Zm6.422,0a2.563,2.563,0,1,1-2.551-2.717A2.562,2.562,0,0,1,212.362,900.535Zm8.88,3.646v-1.155a2.862,2.862,0,0,1-.916.15,1.08,1.08,0,0,1-1.245-1.276v-3.931h2.161v-1.186h-2.161V894.7H217.79v2.086H216.2v1.186h1.591v4.1a2.112,2.112,0,0,0,2.3,2.3A3.6,3.6,0,0,0,221.242,904.181Zm2.848,0.1h1.29v-3.721c0-1.756.961-2.747,2.176-2.747a1.8,1.8,0,0,1,1.771,2.041v4.427H230.6v-4.622a2.765,2.765,0,0,0-2.836-3.031,2.654,2.654,0,0,0-2.386,1.306v-4.907h-1.29v11.254Zm9.449-3.751a3.956,3.956,0,0,0,7.263,2.115l-1.02-.7a2.656,2.656,0,0,1-4.937-1.155H241a3.66,3.66,0,0,0,.015-0.39,3.5,3.5,0,0,0-3.571-3.767A3.8,3.8,0,0,0,233.539,900.535Zm3.857-2.762a2.246,2.246,0,0,1,2.3,1.966h-4.757A2.454,2.454,0,0,1,237.4,897.773Zm6.644,6.513h1.29v-3.721c0-1.756,1.035-2.581,1.981-2.581a1.886,1.886,0,0,1,.7.12v-1.336a2.673,2.673,0,0,0-.585-0.06,2.232,2.232,0,0,0-2.1,1.531v-1.456h-1.29v7.5Zm10.589-3.751a3.755,3.755,0,0,0,3.677,3.9,3.291,3.291,0,0,0,2.641-1.305v1.155h1.29v-7.5h-1.29v1.156a3.289,3.289,0,0,0-2.641-1.306A3.755,3.755,0,0,0,254.629,900.535Zm6.423,0a2.563,2.563,0,1,1-2.551-2.717A2.562,2.562,0,0,1,261.052,900.535Zm4.812,3.751h1.291v-3.721c0-1.756.96-2.747,2.176-2.747a1.8,1.8,0,0,1,1.77,2.041v4.427h1.276v-4.622a2.765,2.765,0,0,0-2.836-3.031,2.652,2.652,0,0,0-2.386,1.306v-1.156h-1.291v7.5Zm9.45-3.751a3.754,3.754,0,0,0,3.676,3.9,3.289,3.289,0,0,0,2.641-1.305v1.155h1.291V893.032h-1.291v4.907a3.287,3.287,0,0,0-2.641-1.306A3.754,3.754,0,0,0,275.314,900.535Zm6.422,0a2.563,2.563,0,1,1-2.551-2.717A2.562,2.562,0,0,1,281.736,900.535Zm14.535,1.665c0-1.125-.706-1.845-1.981-2.266l-0.81-.27c-0.886-.285-1.156-0.57-1.156-1.05a1.063,1.063,0,0,1,1.261-.871,2.027,2.027,0,0,1,1.59.781l0.841-.811a2.912,2.912,0,0,0-2.4-1.08c-1.486,0-2.536.825-2.536,2.041a2.264,2.264,0,0,0,1.86,2.176l0.736,0.24c0.975,0.315,1.335.675,1.335,1.2a1.142,1.142,0,0,1-1.32,1.021,2.013,2.013,0,0,1-1.921-1.186l-1.051.57a2.981,2.981,0,0,0,2.942,1.741C295.175,904.436,296.271,903.671,296.271,902.2Zm2.938-.81a2.738,2.738,0,0,0,2.761,3.046,2.583,2.583,0,0,0,2.311-1.305v1.155h1.29v-7.5h-1.29v3.722c0,1.725-.916,2.746-2.086,2.746a1.772,1.772,0,0,1-1.7-2.056v-4.412h-1.29v4.607Zm9.4-.855a3.956,3.956,0,0,0,7.263,2.115l-1.02-.7a2.656,2.656,0,0,1-4.937-1.155h6.152a3.66,3.66,0,0,0,.015-0.39,3.5,3.5,0,0,0-3.571-3.767A3.8,3.8,0,0,0,308.613,900.535Zm3.857-2.762a2.246,2.246,0,0,1,2.3,1.966h-4.757A2.453,2.453,0,0,1,312.47,897.773Zm6.058,2.762a3.755,3.755,0,0,0,3.677,3.9,3.292,3.292,0,0,0,2.641-1.305v1.155h1.29V893.032h-1.29v4.907a3.29,3.29,0,0,0-2.641-1.306A3.755,3.755,0,0,0,318.528,900.535Zm6.423,0a2.563,2.563,0,1,1-2.551-2.717A2.562,2.562,0,0,1,324.951,900.535Zm4.227,0a3.956,3.956,0,0,0,7.263,2.115l-1.021-.7a2.656,2.656,0,0,1-4.937-1.155h6.153a3.66,3.66,0,0,0,.015-0.39,3.5,3.5,0,0,0-3.571-3.767A3.8,3.8,0,0,0,329.178,900.535Zm3.857-2.762a2.245,2.245,0,0,1,2.295,1.966h-4.756A2.453,2.453,0,0,1,333.035,897.773Zm8.429,5.508a1.111,1.111,0,1,0-1.111,1.125A1.131,1.131,0,0,0,341.464,903.281Z"/>
  <path id="Rectangle_116_copy_11" data-name="Rectangle 116 copy 11" class="cls-1" d="M652.009,53.059l-1.094,1.084L634.939,38.314,618.1,55l-1.105-1.094,16.843-16.688L617.547,21.082,618.641,20l16.287,16.137,15.758-15.614,1.105,1.1L636.033,37.23Z"/>
  <path id="Rectangle_116_copy_10" data-name="Rectangle 116 copy 10" class="cls-1" d="M650.915,598.914l-0.08-.082L618.1,632l-1.105-1.12,32.739-33.17-32.183-32.606L618.641,564l33.368,33.8Z"/>
  <path id="Rectangle_116_copy_9" data-name="Rectangle 116 copy 9" class="cls-1" d="M21.085,597.087l0.079,0.08L53.9,564l1.1,1.119L22.27,598.287l32.183,32.606L53.359,632,19.991,598.2Z"/>
</svg>
