<svg id="Group_31_copy" data-name="Group 31 copy" xmlns="http://www.w3.org/2000/svg" width="1216" height="75" viewBox="0 0 1216 75">
  <metadata><?xpacket begin="﻿" id="W5M0MpCehiHzreSzNTczkc9d"?>
<x:xmpmeta xmlns:x="adobe:ns:meta/" x:xmptk="Adobe XMP Core 5.6-c138 79.159824, 2016/09/14-01:09:01        ">
   <rdf:RDF xmlns:rdf="http://www.w3.org/1999/02/22-rdf-syntax-ns#">
      <rdf:Description rdf:about=""/>
   </rdf:RDF>
</x:xmpmeta>
                                                                                                    
                                                                                                    
                                                                                                    
                                                                                                    
                                                                                                    
                                                                                                    
                                                                                                    
                                                                                                    
                                                                                                    
                                                                                                    
                                                                                                    
                                                                                                    
                                                                                                    
                                                                                                    
                                                                                                    
                                                                                                    
                                                                                                    
                                                                                                    
                                                                                                    
                                                                                                    
                           
<?xpacket end="w"?></metadata>
<defs>
    <style>
      .cls-1 {
        fill: #756d59;
      }

      .cls-1, .cls-2 {
        fill-rule: evenodd;
      }

      .cls-2, .cls-3 {
        fill: #fff;
      }
    </style>
  </defs>
  <path id="Polygon_800" data-name="Polygon 800" class="cls-1" d="M0,75V0H0V74.993l12-37.5L0,0H1216V75H0Z"/>
  <path id="SHOP_THE_FULL_COLLECTION_HERE" data-name="SHOP THE FULL COLLECTION HERE" class="cls-2" d="M59.829,41.744a4.937,4.937,0,0,0,4.483,2.3c2.377,0,4.069-1.368,4.069-3.547,0-1.891-1.08-2.971-2.971-3.691l-1.548-.594c-1.3-.486-1.927-0.972-1.927-2.053,0-1.062,1.044-1.764,2.3-1.764a3.164,3.164,0,0,1,2.539,1.26L68,32.58a4.663,4.663,0,0,0-3.727-1.746c-2.287,0-4,1.314-4,3.4,0,1.747.9,2.791,2.9,3.529l1.692,0.648a2.323,2.323,0,0,1,1.837,2.161c0,1.188-1.044,1.909-2.359,1.909a3.572,3.572,0,0,1-3.169-1.746Zm12.312,2.089h1.675V38.071h7v5.762h1.675V31.049H80.82V36.5h-7V31.049H72.141V43.833ZM99.5,37.441A6.608,6.608,0,1,0,92.9,44.049,6.544,6.544,0,0,0,99.5,37.441Zm-11.523,0A4.925,4.925,0,1,1,92.9,42.465,4.9,4.9,0,0,1,87.981,37.441Zm19.243-6.392h-3.907V43.833h1.674V39.17h2.233A4.073,4.073,0,1,0,107.224,31.049Zm0,6.572h-2.233V32.616h2.233A2.513,2.513,0,1,1,107.224,37.621Zm15.048,6.212h1.638v-11.2h3.979V31.049h-9.6v1.584h3.98v11.2Zm8.909,0h1.674V38.071h7v5.762h1.675V31.049h-1.675V36.5h-7V31.049h-1.674V43.833Zm15.029,0h7.455V42.249h-5.78V38.089h4.7V36.5h-4.7V32.634h5.78V31.049H146.21V43.833Zm17.01,0h1.674V38.089h4.556V36.5h-4.556V32.634h5.762V31.049H163.22V43.833Zm20.7-4.969V31.049h-1.675V38.9c0,2.287-1.332,3.565-3.331,3.565s-3.331-1.278-3.331-3.565v-7.85h-1.674v7.814A5.009,5.009,0,1,0,183.923,38.864Zm4.515,4.969h7.85V42.249h-6.176v-11.2h-1.674V43.833Zm11.16,0h7.85V42.249h-6.176v-11.2H199.6V43.833Zm15.371-6.392a6.644,6.644,0,0,0,12.262,3.511l-1.405-.846a5.024,5.024,0,1,1,0-5.33l1.405-.846A6.644,6.644,0,0,0,214.969,37.441Zm28.1,0a6.608,6.608,0,1,0-6.608,6.608A6.544,6.544,0,0,0,243.071,37.441Zm-11.524,0a4.925,4.925,0,1,1,4.916,5.023A4.9,4.9,0,0,1,231.547,37.441Zm15.336,6.392h7.85V42.249h-6.175v-11.2h-1.675V43.833Zm11.16,0h7.85V42.249h-6.176v-11.2h-1.674V43.833Zm11.16,0h7.454V42.249h-5.78V38.089h4.7V36.5h-4.7V32.634h5.78V31.049H269.2V43.833Zm10.079-6.392a6.644,6.644,0,0,0,12.262,3.511l-1.4-.846a5.024,5.024,0,1,1,0-5.33l1.4-.846A6.644,6.644,0,0,0,279.282,37.441Zm18.361,6.392h1.639v-11.2h3.979V31.049h-9.6v1.584h3.979v11.2Zm8.909,0h1.675V31.049h-1.675V43.833Zm18.688-6.392a6.608,6.608,0,1,0-6.608,6.608A6.544,6.544,0,0,0,325.24,37.441Zm-11.524,0a4.925,4.925,0,1,1,4.916,5.023A4.9,4.9,0,0,1,313.716,37.441Zm26.229,6.392V31.049h-1.656v9.957l-7.779-9.957h-1.458V43.833h1.675V33.876l7.778,9.957h1.44Zm10.383,0H352V38.071h7v5.762h1.675V31.049h-1.675V36.5h-7V31.049h-1.674V43.833Zm15.029,0h7.455V42.249h-5.78V38.089h4.7V36.5h-4.7V32.634h5.78V31.049h-7.455V43.833Zm11.322,0h1.675V38.017H379.6l4.916,5.816h2.106L381.7,38a3.336,3.336,0,0,0,3.151-3.421c0-2.107-1.459-3.529-3.817-3.529h-4.358V43.833Zm1.675-7.31V32.6h2.485c1.458,0,2.34.684,2.34,1.98,0,1.278-.882,1.945-2.34,1.945h-2.485Zm11.051,7.31h7.454V42.249H391.08V38.089h4.7V36.5h-4.7V32.634h5.779V31.049h-7.454V43.833Z"/>
  <rect id="Rectangle_669_copy" data-name="Rectangle 669 copy" class="cls-3" x="350" y="50" width="47" height="2"/>
</svg>
