<svg xmlns="http://www.w3.org/2000/svg" width="1440" height="803" viewBox="0 0 1440 803">
  <defs>
    <style>
      .cls-1, .cls-2 {
        fill: #fff;
        fill-rule: evenodd;
      }

      .cls-1 {
        opacity: 0.75;
      }
    </style>
  </defs>
  <path id="DESIGNED_FOR_A_LIFE_WITH_NO_BOUNDARIES_copy_2" data-name="DESIGNED FOR  A LIFE WITH  NO BOUNDARIES copy 2" class="cls-1" d="M443.649,173.507h16.942a24.857,24.857,0,1,0,0-49.7H443.649v49.705Zm11.131-10.221V134.023h5.811c8.4,0,14.071,6.651,14.071,14.632s-5.67,14.631-14.071,14.631H454.78ZM497.2,173.507h31.5V162.866H508.33v-8.891H524.5V143.334H508.33v-8.891H528.7V123.8H497.2v49.705Zm58.312,0.84c10.5,0,17.712-6.3,17.782-15.331,0.07-7.491-4.62-12.252-11.831-14.842l-3.5-1.26c-5.25-1.89-7.7-3.08-7.7-5.741,0-2.59,3.011-3.78,6.021-3.78a11.057,11.057,0,0,1,8.611,4.13l7.281-7.7a20.742,20.742,0,0,0-16.032-6.86c-9.941,0-17.152,5.67-17.152,15.331,0,6.791,4.481,11.622,12.532,14.352l3.5,1.19c4.971,1.68,6.931,3.43,6.931,5.951,0,2.38-2.311,4.13-6.021,4.13a13,13,0,0,1-10.291-5.67l-8.541,7.21C540.948,171.057,547.669,174.347,555.51,174.347Zm28.978-.84h11.131V123.8H584.488v49.705Zm49.422,0.84c8.051,0,15.961-2.38,20.372-7.35V143.4H633.7v10.431h9.731v7.351c-2.1,1.68-5.741,2.38-9.661,2.38-9.731,0-15.682-6.441-15.682-14.911a14.592,14.592,0,0,1,14.982-14.912,16.507,16.507,0,0,1,12.531,5.32l7.841-7.63c-4.761-5.251-11.551-8.471-20.372-8.471-15.4,0-26.183,11.551-26.183,25.693C606.887,163.216,618.438,174.347,633.91,174.347Zm77.561-.84V123.8h-11.2v30.663L676.117,123.8h-9.591v49.705h11.131V142.774l24.223,30.733h9.591Zm13.994,0h31.5V162.866H736.6v-8.891h16.171V143.334H736.6v-8.891h20.372V123.8h-31.5v49.705Zm43.47,0h16.942a24.857,24.857,0,1,0,0-49.7H768.935v49.705Zm11.131-10.221V134.023h5.811c8.4,0,14.072,6.651,14.072,14.632s-5.671,14.631-14.072,14.631h-5.811Zm61.318,10.221h11.131V154.045h15.192V143.4H852.515v-8.961h19.462V123.8H841.384v49.705Zm63.563,0.84a25.693,25.693,0,1,0-25.693-25.692A25.754,25.754,0,0,0,904.947,174.347Zm0-10.781a14.918,14.918,0,0,1,0-29.823c8.051,0,14.422,6.861,14.422,14.912S913,163.566,904.947,163.566Zm36.886,9.941h11.132V153h1.82l16.522,20.512h13.371L967.106,151.6c6.3-2.24,9.731-6.371,9.731-12.812,0-8.261-6.02-14.981-15.4-14.981h-19.6v49.705Zm11.132-29.963v-9.521h7.14c3.291,0,5.671,1.75,5.671,4.76,0,2.871-2.38,4.761-5.671,4.761h-7.14Zm-460.6,106.434h11.621l4.41-10.5h20.583l4.41,10.5h11.622l-21.283-49.706H513.65Zm20.092-20.162,6.231-14.982,6.23,14.982H512.46Zm58.027,20.162H602.2V239.337H581.619V200.272H570.487v49.706Zm42.139,0h11.132V200.272H612.626v49.706Zm25.13,0h11.131V230.516h15.192V219.874H648.887v-8.961h19.462V200.272H637.756v49.706Zm41.649,0h31.5V239.337H690.537v-8.891h16.172V219.8H690.537v-8.891h20.372V200.272h-31.5v49.706Zm100.245,0h10.571l11.551-49.706h-11.9l-6.791,31.5-14-32.344-13.931,32.344-6.791-31.5h-11.9l11.481,49.706h10.571l10.571-24.363Zm31.915,0H822.7V200.272H811.565v49.706Zm34.09,0h11.2V210.913h12.812V200.272H832.984v10.641h12.671v39.065Zm34.3,0h11.131V230.306h20.022v19.672h11.131V200.272H911.107v19.462H891.085V200.272H879.954v49.706Zm-422.37,76.47v-49.7h-11.2v30.663L422.23,276.743h-9.591v49.7H423.77V295.715l24.223,30.733h9.591Zm36.887,0.84A25.693,25.693,0,1,0,468.778,301.6,25.754,25.754,0,0,0,494.471,327.288Zm0-10.781a14.918,14.918,0,0,1,0-29.823c8.051,0,14.422,6.861,14.422,14.912S502.522,316.507,494.471,316.507Zm55.786,9.941H572.1c8.541,0,15.122-6.44,15.122-14.631a12.992,12.992,0,0,0-7.071-11.762,11.7,11.7,0,0,0,3.57-8.541,14.773,14.773,0,0,0-14.771-14.771H550.257v49.7Zm11.131-29.613v-9.941h6.3a5.051,5.051,0,0,1,5.18,5.04,4.982,4.982,0,0,1-5.18,4.9h-6.3Zm0,19.392v-9.941h9.731a5.057,5.057,0,0,1,5.251,4.971,5,5,0,0,1-5.181,4.97h-9.8ZM621.1,327.288A25.693,25.693,0,1,0,595.406,301.6,25.755,25.755,0,0,0,621.1,327.288Zm0-10.781a14.918,14.918,0,0,1,0-29.823c8.051,0,14.421,6.861,14.421,14.912S629.15,316.507,621.1,316.507Zm56.768,10.781c11.9,0,20.443-8.12,20.443-20.512V276.743H687.178v30.173c0,5.951-3.78,9.591-9.311,9.591s-9.311-3.64-9.311-9.591V276.743H657.425v30.033C657.425,319.168,665.9,327.288,677.867,327.288Zm78.822-.84v-49.7h-11.2v30.663l-24.153-30.663h-9.591v49.7h11.132V295.715L747.1,326.448h9.591Zm14,0h16.942a24.857,24.857,0,1,0,0-49.7H770.684v49.7Zm11.131-10.221V286.964h5.811c8.4,0,14.071,6.651,14.071,14.632s-5.67,14.631-14.071,14.631h-5.811ZM816.6,326.448h11.621l4.41-10.5h20.583l4.41,10.5H869.25l-21.283-49.7H837.886ZM836.7,306.286l6.231-14.982,6.23,14.982H836.7Zm41.228,20.162h11.131V305.936h1.821L907.4,326.448h13.372L903.2,304.536c6.3-2.24,9.731-6.371,9.731-12.812,0-8.261-6.021-14.981-15.4-14.981h-19.6v49.7Zm11.131-29.963v-9.521H896.2c3.291,0,5.671,1.75,5.671,4.76,0,2.871-2.38,4.761-5.671,4.761h-7.141Zm38.708,29.963H938.9v-49.7H927.763v49.7Zm25.13,0h31.5V315.807H964.024v-8.891H980.2V296.275H964.024v-8.891H984.4V276.743h-31.5v49.7Zm58.307,0.84c10.51,0,17.72-6.3,17.79-15.331,0.07-7.491-4.62-12.252-11.84-14.842l-3.5-1.26c-5.25-1.89-7.7-3.08-7.7-5.741,0-2.59,3.01-3.78,6.02-3.78a11.074,11.074,0,0,1,8.62,4.13l7.28-7.7a20.759,20.759,0,0,0-16.04-6.86c-9.94,0-17.148,5.67-17.148,15.331,0,6.791,4.481,11.622,12.528,14.352l3.5,1.19c4.97,1.68,6.93,3.431,6.93,5.951,0,2.38-2.31,4.13-6.02,4.13a13,13,0,0,1-10.29-5.67l-8.538,7.21C996.643,324,1003.36,327.288,1011.2,327.288Z"/>
  <path id="CELEBRATING_40_YEARS_OF_ICONIC_STYLE_copy" data-name="CELEBRATING 40 YEARS OF ICONIC STYLE copy" class="cls-2" d="M502.714,381.209a7.341,7.341,0,0,0,6.641-3.881l-2.8-1.52a4.262,4.262,0,1,1,0-3.881l2.8-1.521A7.4,7.4,0,1,0,502.714,381.209Zm9.5-.24h9v-3.041h-5.821v-2.54h4.621v-3.041h-4.621v-2.541h5.821v-3.04h-9v14.2Zm12.42,0h9.061v-3.041h-5.881V366.766h-3.18v14.2Zm12.039,0h9v-3.041h-5.821v-2.54h4.621v-3.041h-4.621v-2.541h5.821v-3.04h-9v14.2Zm12.42,0h6.242a4.2,4.2,0,0,0,4.321-4.181,3.713,3.713,0,0,0-2.021-3.361,3.342,3.342,0,0,0,1.02-2.44,4.221,4.221,0,0,0-4.221-4.221h-5.341v14.2Zm3.181-8.462v-2.841h1.8a1.444,1.444,0,0,1,1.481,1.441,1.424,1.424,0,0,1-1.481,1.4h-1.8Zm0,5.541v-2.84h2.781a1.445,1.445,0,0,1,1.5,1.42,1.427,1.427,0,0,1-1.48,1.42h-2.8Zm10.519,2.921h3.181v-5.862h0.52l4.721,5.862h3.821l-5.021-6.262a3.665,3.665,0,0,0,2.78-3.66,4.193,4.193,0,0,0-4.4-4.281h-5.6v14.2Zm3.181-8.562v-2.721h2.04a1.416,1.416,0,0,1,1.621,1.361,1.438,1.438,0,0,1-1.621,1.36h-2.04Zm9.539,8.562h3.32l1.261-3h5.881l1.26,3h3.321l-6.082-14.2h-2.88Zm5.741-5.761,1.78-4.281,1.781,4.281h-3.561Zm12.919,5.761h3.2V369.806h3.661v-3.04H590.552v3.04h3.62v11.163Zm9.8,0h3.18v-14.2h-3.18v14.2Zm20.022,0v-14.2h-3.2v8.762l-6.9-8.762h-2.74v14.2h3.18v-8.782l6.922,8.782h2.74Zm10.939,0.24c2.3,0,4.561-.68,5.821-2.1v-6.741h-5.881v2.981h2.781v2.1a4.631,4.631,0,0,1-2.761.68,4.264,4.264,0,1,1-.2-8.522,4.717,4.717,0,0,1,3.581,1.521l2.24-2.181a7.558,7.558,0,0,0-5.821-2.42,7.255,7.255,0,0,0-7.482,7.341A7.377,7.377,0,0,0,634.933,381.209Zm20.519-.24h3.021v-3.081h1.82v-2.76h-1.82v-8.362h-2.721l-7.241,8.682v2.44h6.941v3.081Zm0-5.841h-3.261l3.261-3.921v3.921Zm12.9,6.061c3.16,0,5.361-2.4,5.361-5.681v-3.3c0-3.281-2.2-5.681-5.361-5.681-3.181,0-5.381,2.4-5.381,5.681v3.3A5.326,5.326,0,0,0,668.352,381.189Zm0-2.981c-1.4,0-2.361-1-2.361-2.7v-3.3c0-1.7.96-2.7,2.361-2.7,1.38,0,2.34,1,2.34,2.7v3.3C670.692,377.208,669.732,378.208,668.352,378.208Zm17.579,2.761h3.2v-5.962l5.181-8.241h-3.7l-3.1,5.121-3.061-5.121h-3.7l5.181,8.221v5.982Zm11.039,0h9v-3.041h-5.821v-2.54h4.621v-3.041h-4.621v-2.541h5.821v-3.04h-9v14.2Zm10.9,0h3.321l1.26-3h5.881l1.26,3h3.321l-6.081-14.2h-2.881Zm5.741-5.761,1.781-4.281,1.78,4.281h-3.561Zm11.779,5.761h3.181v-5.862h0.52l4.721,5.862h3.821l-5.021-6.262a3.665,3.665,0,0,0,2.78-3.66,4.193,4.193,0,0,0-4.4-4.281h-5.6v14.2Zm3.181-8.562v-2.721h2.04a1.415,1.415,0,0,1,1.621,1.361,1.438,1.438,0,0,1-1.621,1.36h-2.04Zm15.3,8.8c3,0,5.061-1.8,5.081-4.381,0.02-2.141-1.32-3.5-3.381-4.241l-1-.36c-1.5-.54-2.2-0.88-2.2-1.64,0-.741.86-1.081,1.72-1.081a3.157,3.157,0,0,1,2.46,1.181l2.081-2.2a5.927,5.927,0,0,0-4.581-1.96c-2.841,0-4.9,1.62-4.9,4.381,0,1.94,1.28,3.32,3.581,4.1l1,0.341c1.42,0.48,1.98.98,1.98,1.7,0,0.68-.66,1.18-1.72,1.18a3.717,3.717,0,0,1-2.941-1.62l-2.44,2.06A6.225,6.225,0,0,0,743.871,381.209Zm20.22,0a7.342,7.342,0,1,0-7.342-7.342A7.359,7.359,0,0,0,764.091,381.209Zm0-3.081a4.263,4.263,0,1,1,4.121-4.261A4.214,4.214,0,0,1,764.091,378.128Zm10.538,2.841h3.181v-5.561h4.341v-3.041H777.81v-2.561h5.561v-3.04h-8.742v14.2Zm16.82,0h3.181v-14.2h-3.181v14.2Zm13.721,0.24a7.343,7.343,0,0,0,6.642-3.881l-2.8-1.52a4.262,4.262,0,1,1,0-3.881l2.8-1.521A7.4,7.4,0,1,0,805.17,381.209Zm16.04,0a7.342,7.342,0,1,0-7.341-7.342A7.36,7.36,0,0,0,821.21,381.209Zm0-3.081a4.263,4.263,0,1,1,4.121-4.261A4.214,4.214,0,0,1,821.21,378.128Zm23.381,2.841v-14.2h-3.2v8.762l-6.9-8.762h-2.74v14.2h3.18v-8.782l6.922,8.782h2.74Zm4,0h3.181v-14.2h-3.181v14.2Zm13.722,0.24a7.342,7.342,0,0,0,6.641-3.881l-2.8-1.52a4.262,4.262,0,1,1,0-3.881l2.8-1.521A7.4,7.4,0,1,0,862.31,381.209Zm19.139,0c3,0,5.061-1.8,5.081-4.381,0.02-2.141-1.32-3.5-3.381-4.241l-1-.36c-1.5-.54-2.2-0.88-2.2-1.64,0-.741.86-1.081,1.72-1.081a3.157,3.157,0,0,1,2.46,1.181l2.081-2.2a5.927,5.927,0,0,0-4.581-1.96c-2.841,0-4.9,1.62-4.9,4.381,0,1.94,1.28,3.32,3.581,4.1l1,0.341c1.42,0.48,1.98.98,1.98,1.7,0,0.68-.66,1.18-1.72,1.18a3.717,3.717,0,0,1-2.941-1.62l-2.44,2.06A6.225,6.225,0,0,0,881.449,381.209Zm10.639-.24h3.2V369.806h3.661v-3.04H888.468v3.04h3.62v11.163Zm13.641,0h3.2v-5.962l5.181-8.241h-3.7l-3.1,5.121-3.061-5.121h-3.7l5.182,8.221v5.982Zm11.038,0h9.062v-3.041h-5.881V366.766h-3.181v14.2Zm12.04,0h9v-3.041h-5.821v-2.54h4.621v-3.041h-4.621v-2.541h5.821v-3.04h-9v14.2Z"/>
</svg>
