<svg xmlns="http://www.w3.org/2000/svg" width="1440" height="803"><path data-name="DESIGNED FOR A LIFE WITH NO BOUNDARIES copy 2" d="M443.649 173.507h16.942a24.857 24.857 0 1 0 0-49.7h-16.942v49.705zm11.131-10.221v-29.263h5.811c8.4 0 14.071 6.651 14.071 14.632s-5.67 14.631-14.071 14.631h-5.811zm42.42 10.221h31.5v-10.641h-20.37v-8.891h16.17v-10.641h-16.17v-8.891h20.37V123.8h-31.5v49.705zm58.312.84c10.5 0 17.712-6.3 17.782-15.331.07-7.491-4.62-12.252-11.831-14.842l-3.5-1.26c-5.25-1.89-7.7-3.08-7.7-5.741 0-2.59 3.011-3.78 6.021-3.78a11.057 11.057 0 0 1 8.611 4.13l7.281-7.7a20.742 20.742 0 0 0-16.032-6.86c-9.941 0-17.152 5.67-17.152 15.331 0 6.791 4.481 11.622 12.532 14.352l3.5 1.19c4.971 1.68 6.931 3.43 6.931 5.951 0 2.38-2.311 4.13-6.021 4.13a13 13 0 0 1-10.291-5.67l-8.541 7.21c3.846 5.6 10.567 8.89 18.408 8.89zm28.978-.84h11.131V123.8h-11.133v49.705zm49.422.84c8.051 0 15.961-2.38 20.372-7.35V143.4H633.7v10.431h9.731v7.351c-2.1 1.68-5.741 2.38-9.661 2.38-9.731 0-15.682-6.441-15.682-14.911a14.592 14.592 0 0 1 14.982-14.912 16.507 16.507 0 0 1 12.531 5.32l7.841-7.63c-4.761-5.251-11.551-8.471-20.372-8.471-15.4 0-26.183 11.551-26.183 25.693 0 14.565 11.551 25.696 27.023 25.696zm77.561-.84V123.8h-11.2v30.663L676.117 123.8h-9.591v49.705h11.131v-30.731l24.223 30.733h9.591zm13.994 0h31.5v-10.641H736.6v-8.891h16.171v-10.641H736.6v-8.891h20.372V123.8h-31.5v49.705zm43.47 0h16.942a24.857 24.857 0 1 0 0-49.7h-16.944v49.705zm11.131-10.221v-29.263h5.811c8.4 0 14.072 6.651 14.072 14.632s-5.671 14.631-14.072 14.631h-5.811zm61.318 10.221h11.131v-19.462h15.192V143.4h-15.194v-8.961h19.462V123.8h-30.593v49.705zm63.563.84a25.693 25.693 0 1 0-25.693-25.692 25.754 25.754 0 0 0 25.691 25.692zm0-10.781a14.918 14.918 0 0 1 0-29.823c8.051 0 14.422 6.861 14.422 14.912s-6.371 14.911-14.424 14.911zm36.886 9.941h11.132V153h1.82l16.522 20.512h13.371L967.106 151.6c6.3-2.24 9.731-6.371 9.731-12.812 0-8.261-6.02-14.981-15.4-14.981h-19.6v49.705zm11.132-29.963v-9.521h7.14c3.291 0 5.671 1.75 5.671 4.76 0 2.871-2.38 4.761-5.671 4.761h-7.14zm-460.6 106.434h11.621l4.41-10.5h20.583l4.41 10.5h11.622l-21.283-49.706h-10.08zm20.092-20.162l6.231-14.982 6.23 14.982h-12.46zm58.027 20.162H602.2v-10.641h-20.581v-39.065h-11.132v49.706zm42.139 0h11.132v-49.706h-11.131v49.706zm25.13 0h11.131v-19.462h15.192v-10.642h-15.191v-8.961h19.462v-10.641h-30.593v49.706zm41.649 0h31.5v-10.641h-20.367v-8.891h16.172V219.8h-16.172v-8.891h20.372v-10.637h-31.5v49.706zm100.245 0h10.571l11.551-49.706h-11.9l-6.791 31.5-14-32.344-13.931 32.344-6.791-31.5h-11.9l11.481 49.706h10.571l10.571-24.363zm31.915 0H822.7v-49.706h-11.135v49.706zm34.09 0h11.2v-39.065h12.812v-10.641h-36.682v10.641h12.671v39.065zm34.3 0h11.131v-19.672h20.022v19.672h11.131v-49.706h-11.131v19.462h-20.022v-19.462h-11.131v49.706zm-422.37 76.47v-49.7h-11.2v30.663l-24.154-30.668h-9.591v49.7h11.131v-30.728l24.223 30.733h9.591zm36.887.84a25.693 25.693 0 1 0-25.693-25.688 25.754 25.754 0 0 0 25.693 25.688zm0-10.781a14.918 14.918 0 0 1 0-29.823c8.051 0 14.422 6.861 14.422 14.912s-6.371 14.911-14.422 14.911zm55.786 9.941H572.1c8.541 0 15.122-6.44 15.122-14.631a12.992 12.992 0 0 0-7.071-11.762 11.7 11.7 0 0 0 3.57-8.541 14.773 14.773 0 0 0-14.771-14.771h-18.693v49.7zm11.131-29.613v-9.941h6.3a5.051 5.051 0 0 1 5.18 5.04 4.982 4.982 0 0 1-5.18 4.9h-6.3zm0 19.392v-9.941h9.731a5.057 5.057 0 0 1 5.251 4.971 5 5 0 0 1-5.181 4.97h-9.8zm59.712 11.061a25.693 25.693 0 1 0-25.694-25.688 25.755 25.755 0 0 0 25.694 25.688zm0-10.781a14.918 14.918 0 0 1 0-29.823c8.051 0 14.421 6.861 14.421 14.912s-6.371 14.911-14.421 14.911zm56.768 10.781c11.9 0 20.443-8.12 20.443-20.512v-30.033h-11.133v30.173c0 5.951-3.78 9.591-9.311 9.591s-9.311-3.64-9.311-9.591v-30.173h-11.131v30.033c0 12.392 8.475 20.512 20.442 20.512zm78.822-.84v-49.7h-11.2v30.663l-24.153-30.663h-9.591v49.7h11.132v-30.733l24.222 30.733h9.591zm14 0h16.942a24.857 24.857 0 1 0 0-49.7h-16.948v49.7zm11.131-10.221v-29.263h5.811c8.4 0 14.071 6.651 14.071 14.632s-5.67 14.631-14.071 14.631h-5.811zm34.779 10.221h11.621l4.41-10.5h20.583l4.41 10.5h11.626l-21.283-49.7h-10.081zm20.1-20.162l6.231-14.982 6.23 14.982H836.7zm41.228 20.162h11.131v-20.512h1.821l16.52 20.512h13.372L903.2 304.536c6.3-2.24 9.731-6.371 9.731-12.812 0-8.261-6.021-14.981-15.4-14.981h-19.6v49.7zm11.131-29.963v-9.521h7.141c3.291 0 5.671 1.75 5.671 4.76 0 2.871-2.38 4.761-5.671 4.761h-7.141zm38.708 29.963H938.9v-49.7h-11.137v49.7zm25.13 0h31.5v-10.641h-20.373v-8.891H980.2v-10.641h-16.176v-8.891H984.4v-10.641h-31.5v49.7zm58.307.84c10.51 0 17.72-6.3 17.79-15.331.07-7.491-4.62-12.252-11.84-14.842l-3.5-1.26c-5.25-1.89-7.7-3.08-7.7-5.741 0-2.59 3.01-3.78 6.02-3.78a11.074 11.074 0 0 1 8.62 4.13l7.28-7.7a20.759 20.759 0 0 0-16.04-6.86c-9.94 0-17.148 5.67-17.148 15.331 0 6.791 4.481 11.622 12.528 14.352l3.5 1.19c4.97 1.68 6.93 3.431 6.93 5.951 0 2.38-2.31 4.13-6.02 4.13a13 13 0 0 1-10.29-5.67l-8.538 7.21c3.847 5.602 10.564 8.89 18.404 8.89z" opacity=".75" fill="#fff" fill-rule="evenodd"/><path data-name="CELEBRATING 40 YEARS OF ICONIC STYLE copy" d="M502.714 381.209a7.341 7.341 0 0 0 6.641-3.881l-2.8-1.52a4.262 4.262 0 1 1 0-3.881l2.8-1.521a7.4 7.4 0 1 0-6.641 10.803zm9.5-.24h9v-3.041h-5.821v-2.54h4.621v-3.041h-4.621v-2.541h5.821v-3.04h-9v14.2zm12.42 0h9.061v-3.041h-5.881v-11.162h-3.18v14.2zm12.039 0h9v-3.041h-5.821v-2.54h4.621v-3.041h-4.621v-2.541h5.821v-3.04h-9v14.2zm12.42 0h6.242a4.2 4.2 0 0 0 4.321-4.181 3.713 3.713 0 0 0-2.021-3.361 3.342 3.342 0 0 0 1.02-2.44 4.221 4.221 0 0 0-4.221-4.221h-5.341v14.2zm3.181-8.462v-2.841h1.8a1.444 1.444 0 0 1 1.481 1.441 1.424 1.424 0 0 1-1.481 1.4h-1.8zm0 5.541v-2.84h2.781a1.445 1.445 0 0 1 1.5 1.42 1.427 1.427 0 0 1-1.48 1.42h-2.8zm10.519 2.921h3.181v-5.862h.52l4.721 5.862h3.821l-5.021-6.262a3.665 3.665 0 0 0 2.78-3.66 4.193 4.193 0 0 0-4.4-4.281h-5.6v14.2zm3.181-8.562v-2.721h2.04a1.416 1.416 0 0 1 1.621 1.361 1.438 1.438 0 0 1-1.621 1.36h-2.04zm9.539 8.562h3.32l1.261-3h5.881l1.26 3h3.321l-6.082-14.2h-2.88zm5.741-5.761l1.78-4.281 1.781 4.281h-3.561zm12.919 5.761h3.2v-11.163h3.661v-3.04h-10.482v3.04h3.62v11.163zm9.8 0h3.18v-14.2h-3.18v14.2zm20.022 0v-14.2h-3.2v8.762l-6.9-8.762h-2.74v14.2h3.18v-8.782l6.922 8.782h2.74zm10.939.24c2.3 0 4.561-.68 5.821-2.1v-6.741h-5.881v2.981h2.781v2.1a4.631 4.631 0 0 1-2.761.68 4.264 4.264 0 1 1-.2-8.522 4.717 4.717 0 0 1 3.581 1.521l2.24-2.181a7.558 7.558 0 0 0-5.821-2.42 7.255 7.255 0 0 0-7.482 7.341 7.377 7.377 0 0 0 7.721 7.341zm20.519-.24h3.021v-3.081h1.82v-2.76h-1.82v-8.362h-2.721l-7.241 8.682v2.44h6.941v3.081zm0-5.841h-3.261l3.261-3.921v3.921zm12.9 6.061c3.16 0 5.361-2.4 5.361-5.681v-3.3c0-3.281-2.2-5.681-5.361-5.681-3.181 0-5.381 2.4-5.381 5.681v3.3a5.326 5.326 0 0 0 5.38 5.681zm0-2.981c-1.4 0-2.361-1-2.361-2.7v-3.3c0-1.7.96-2.7 2.361-2.7 1.38 0 2.34 1 2.34 2.7v3.3c-.001 1.7-.961 2.7-2.341 2.7zm17.579 2.761h3.2v-5.962l5.181-8.241h-3.7l-3.1 5.121-3.061-5.121h-3.7l5.181 8.221v5.982zm11.039 0h9v-3.041h-5.821v-2.54h4.621v-3.041h-4.621v-2.541h5.821v-3.04h-9v14.2zm10.9 0h3.321l1.26-3h5.881l1.26 3h3.321l-6.081-14.2h-2.881zm5.741-5.761l1.781-4.281 1.78 4.281h-3.561zm11.779 5.761h3.181v-5.862h.52l4.721 5.862h3.821l-5.021-6.262a3.665 3.665 0 0 0 2.78-3.66 4.193 4.193 0 0 0-4.4-4.281h-5.6v14.2zm3.181-8.562v-2.721h2.04a1.415 1.415 0 0 1 1.621 1.361 1.438 1.438 0 0 1-1.621 1.36h-2.04zm15.3 8.8c3 0 5.061-1.8 5.081-4.381.02-2.141-1.32-3.5-3.381-4.241l-1-.36c-1.5-.54-2.2-.88-2.2-1.64 0-.741.86-1.081 1.72-1.081a3.157 3.157 0 0 1 2.46 1.181l2.081-2.2a5.927 5.927 0 0 0-4.581-1.96c-2.841 0-4.9 1.62-4.9 4.381 0 1.94 1.28 3.32 3.581 4.1l1 .341c1.42.48 1.98.98 1.98 1.7 0 .68-.66 1.18-1.72 1.18a3.717 3.717 0 0 1-2.941-1.62l-2.44 2.06a6.225 6.225 0 0 0 5.259 2.542zm20.22 0a7.342 7.342 0 1 0-7.342-7.342 7.359 7.359 0 0 0 7.341 7.344zm0-3.081a4.263 4.263 0 1 1 4.121-4.261 4.214 4.214 0 0 1-4.122 4.263zm10.538 2.841h3.181v-5.561h4.341v-3.041h-4.342v-2.561h5.561v-3.04h-8.742v14.2zm16.82 0h3.181v-14.2h-3.181v14.2zm13.721.24a7.343 7.343 0 0 0 6.642-3.881l-2.8-1.52a4.262 4.262 0 1 1 0-3.881l2.8-1.521a7.4 7.4 0 1 0-6.643 10.805zm16.04 0a7.342 7.342 0 1 0-7.341-7.342 7.36 7.36 0 0 0 7.34 7.344zm0-3.081a4.263 4.263 0 1 1 4.121-4.261 4.214 4.214 0 0 1-4.122 4.263zm23.381 2.841v-14.2h-3.2v8.762l-6.9-8.762h-2.74v14.2h3.18v-8.782l6.922 8.782h2.74zm4 0h3.181v-14.2h-3.181v14.2zm13.722.24a7.342 7.342 0 0 0 6.641-3.881l-2.8-1.52a4.262 4.262 0 1 1 0-3.881l2.8-1.521a7.4 7.4 0 1 0-6.645 10.805zm19.139 0c3 0 5.061-1.8 5.081-4.381.02-2.141-1.32-3.5-3.381-4.241l-1-.36c-1.5-.54-2.2-.88-2.2-1.64 0-.741.86-1.081 1.72-1.081a3.157 3.157 0 0 1 2.46 1.181l2.081-2.2a5.927 5.927 0 0 0-4.581-1.96c-2.841 0-4.9 1.62-4.9 4.381 0 1.94 1.28 3.32 3.581 4.1l1 .341c1.42.48 1.98.98 1.98 1.7 0 .68-.66 1.18-1.72 1.18a3.717 3.717 0 0 1-2.941-1.62l-2.44 2.06a6.225 6.225 0 0 0 5.256 2.542zm10.639-.24h3.2v-11.161h3.661v-3.04h-10.485v3.04h3.62v11.163zm13.641 0h3.2v-5.962l5.181-8.241h-3.7l-3.1 5.121-3.061-5.121h-3.7l5.182 8.221v5.982zm11.038 0h9.062v-3.041h-5.881v-11.16h-3.181v14.2zm12.04 0h9v-3.041h-5.821v-2.54h4.621v-3.041h-4.621v-2.541h5.821v-3.04h-9v14.2z" fill="#fff" fill-rule="evenodd"/></svg>