<svg id="Header_copy" data-name="Header copy" xmlns="http://www.w3.org/2000/svg" width="768" height="174" viewBox="0 0 768 174">
  <metadata><?xpacket begin="﻿" id="W5M0MpCehiHzreSzNTczkc9d"?>
<x:xmpmeta xmlns:x="adobe:ns:meta/" x:xmptk="Adobe XMP Core 5.6-c138 79.159824, 2016/09/14-01:09:01        ">
   <rdf:RDF xmlns:rdf="http://www.w3.org/1999/02/22-rdf-syntax-ns#">
      <rdf:Description rdf:about=""/>
   </rdf:RDF>
</x:xmpmeta>
                                                                                                    
                                                                                                    
                                                                                                    
                                                                                                    
                                                                                                    
                                                                                                    
                                                                                                    
                                                                                                    
                                                                                                    
                                                                                                    
                                                                                                    
                                                                                                    
                                                                                                    
                                                                                                    
                                                                                                    
                                                                                                    
                                                                                                    
                                                                                                    
                                                                                                    
                                                                                                    
                           
<?xpacket end="w"?></metadata>
<defs>
    <style>
      .cls-1 {
        fill: #9a927f;
      }

      .cls-2 {
        fill: #fff;
        fill-rule: evenodd;
      }
    </style>
  </defs>
  <rect class="cls-1" width="768" height="174"/>
  <path id="Iconic_Banana_Republic._Styled_for_now." data-name="Iconic Banana Republic. Styled for now." class="cls-2" d="M117.774,94.4h4.131V75.953h-4.131V94.4Zm14.783,0.286a6.918,6.918,0,0,0,6.208-3.792l-3.428-1.818a3.021,3.021,0,0,1-2.78,1.948,3.121,3.121,0,0,1,0-6.234,3.021,3.021,0,0,1,2.78,1.948l3.428-1.818a6.918,6.918,0,0,0-6.208-3.792A6.781,6.781,0,1,0,132.557,94.681Zm15.641,0a6.78,6.78,0,1,0-6.831-6.779A6.779,6.779,0,0,0,148.2,94.681Zm0-3.662a3.126,3.126,0,1,1,2.884-3.117A2.906,2.906,0,0,1,148.2,91.018ZM158.749,94.4h3.922V88.083c0-2.338,1.143-3.4,2.624-3.4,1.4,0,2.1,1.091,2.1,2.883V94.4h3.922V86.888c0-3.4-1.844-5.767-5.039-5.767a4.383,4.383,0,0,0-3.611,1.611V81.408h-3.922V94.4Zm18.888-14.754A2.442,2.442,0,1,0,175.2,77.2,2.445,2.445,0,0,0,177.637,79.641ZM175.689,94.4h3.922V81.408h-3.922V94.4Zm14.574,0.286a6.92,6.92,0,0,0,6.209-3.792l-3.429-1.818a3.021,3.021,0,0,1-2.78,1.948,3.121,3.121,0,0,1,0-6.234,3.021,3.021,0,0,1,2.78,1.948l3.429-1.818a6.92,6.92,0,0,0-6.209-3.792A6.781,6.781,0,1,0,190.263,94.681Zm16.968-.286h8.1a5.452,5.452,0,0,0,5.611-5.429,4.82,4.82,0,0,0-2.623-4.364,4.341,4.341,0,0,0,1.324-3.169,5.481,5.481,0,0,0-5.48-5.481h-6.936V94.4Zm4.13-10.988V79.719H213.7a1.874,1.874,0,0,1,1.922,1.87,1.848,1.848,0,0,1-1.922,1.818h-2.338Zm0,7.2V86.914h3.611a1.876,1.876,0,0,1,1.948,1.844A1.853,1.853,0,0,1,215,90.6h-3.637Zm18.577,4.078a4.5,4.5,0,0,0,3.533-1.584v1.3h3.922V81.408h-3.922v1.3a4.5,4.5,0,0,0-3.533-1.585c-3.4,0-6.026,3.091-6.026,6.78S226.535,94.681,229.938,94.681Zm0.883-3.559a3.232,3.232,0,1,1,2.962-3.221A2.966,2.966,0,0,1,230.821,91.122Zm11.1,3.273h3.923V88.083c0-2.338,1.142-3.4,2.623-3.4,1.4,0,2.1,1.091,2.1,2.883V94.4h3.923V86.888c0-3.4-1.845-5.767-5.04-5.767a4.381,4.381,0,0,0-3.61,1.611V81.408h-3.923V94.4Zm22.188,0.286a4.5,4.5,0,0,0,3.532-1.584v1.3h3.923V81.408h-3.923v1.3a4.5,4.5,0,0,0-3.532-1.585c-3.4,0-6.027,3.091-6.027,6.78S260.7,94.681,264.105,94.681Zm0.883-3.559a3.232,3.232,0,1,1,2.961-3.221A2.966,2.966,0,0,1,264.988,91.122Zm11.1,3.273h3.923V88.083c0-2.338,1.143-3.4,2.623-3.4,1.4,0,2.1,1.091,2.1,2.883V94.4h3.923V86.888c0-3.4-1.844-5.767-5.039-5.767a4.381,4.381,0,0,0-3.611,1.611V81.408h-3.923V94.4Zm22.188,0.286A4.5,4.5,0,0,0,301.8,93.1v1.3h3.922V81.408H301.8v1.3a4.5,4.5,0,0,0-3.533-1.585c-3.4,0-6.027,3.091-6.027,6.78S294.868,94.681,298.271,94.681Zm0.883-3.559a3.232,3.232,0,1,1,2.961-3.221A2.966,2.966,0,0,1,299.154,91.122ZM317.6,94.4h4.131V86.784h0.675l6.13,7.611H333.5l-6.52-8.13c2.338-.831,3.61-2.364,3.61-4.754a5.445,5.445,0,0,0-5.714-5.559H317.6V94.4Zm4.131-11.117V79.745h2.649a1.837,1.837,0,0,1,2.1,1.766,1.867,1.867,0,0,1-2.1,1.766h-2.649Zm19.486,11.4a7.29,7.29,0,0,0,6.1-2.857l-2.909-2.182a3.77,3.77,0,0,1-3.143,1.481,2.926,2.926,0,0,1-3.169-2.286h9.429a10.027,10.027,0,0,0,.078-1.377c0-4.208-3.039-6.338-6.468-6.338A6.78,6.78,0,1,0,341.219,94.681Zm-0.182-10.364a2.6,2.6,0,0,1,2.676,1.948h-5.507A2.714,2.714,0,0,1,341.037,84.317Zm10.342,15.507H355.3V93.1a4.5,4.5,0,0,0,3.533,1.584c3.4,0,6.026-3.091,6.026-6.779s-2.624-6.78-6.026-6.78a4.5,4.5,0,0,0-3.533,1.585v-1.3h-3.923V99.824Zm6.572-8.7a3.232,3.232,0,1,1,2.962-3.221A2.966,2.966,0,0,1,357.951,91.122Zm15.408,3.559a4,4,0,0,0,3.455-1.61V94.4h3.922V81.408h-3.922V87.72c0,2.39-.961,3.4-2.442,3.4-1.454,0-2-1.091-2-2.987V81.408H368.45v7.4C368.45,92.343,370.138,94.681,373.359,94.681Zm19.356,0c3.4,0,6.026-3.091,6.026-6.779s-2.623-6.78-6.026-6.78a4.5,4.5,0,0,0-3.533,1.585V74.914H385.26V94.4h3.922V93.1A4.5,4.5,0,0,0,392.715,94.681Zm-0.883-3.559a3.232,3.232,0,1,1,2.961-3.221A2.966,2.966,0,0,1,391.832,91.122ZM402.486,94.4h3.922V74.914h-3.922V94.4Zm10.392-14.754a2.442,2.442,0,1,0-2.441-2.442A2.445,2.445,0,0,0,412.878,79.641ZM410.93,94.4h3.923V81.408H410.93V94.4Zm14.575,0.286a6.919,6.919,0,0,0,6.208-3.792l-3.429-1.818a3.021,3.021,0,0,1-2.779,1.948,3.121,3.121,0,0,1,0-6.234,3.021,3.021,0,0,1,2.779,1.948l3.429-1.818a6.92,6.92,0,0,0-6.208-3.792A6.781,6.781,0,1,0,425.505,94.681Zm11.719-.078a2.779,2.779,0,1,0-2.78-2.779A2.783,2.783,0,0,0,437.224,94.6Zm19.485,0.1c3.9,0,6.572-2.338,6.6-5.689,0.026-2.779-1.715-4.546-4.39-5.507l-1.3-.468c-1.948-.7-2.857-1.143-2.857-2.13,0-.961,1.117-1.4,2.234-1.4a4.1,4.1,0,0,1,3.195,1.533l2.7-2.857a7.694,7.694,0,0,0-5.948-2.546c-3.689,0-6.364,2.1-6.364,5.689,0,2.52,1.662,4.312,4.649,5.325l1.3,0.442c1.844,0.623,2.572,1.273,2.572,2.208,0,0.883-.857,1.533-2.234,1.533a4.827,4.827,0,0,1-3.819-2.1l-3.169,2.675A8.088,8.088,0,0,0,456.709,94.707Zm16.421-.156a8.791,8.791,0,0,0,2.338-.26V90.811a3.828,3.828,0,0,1-1.429.234c-1.559,0-2.208-.649-2.208-2.208V84.81h3.637v-3.4h-3.637V77.8h-3.922v3.611h-2.6v3.4h2.6v4.831C467.909,92.941,470.246,94.551,473.13,94.551Zm11.432,5.273,8.078-18.417h-4.312l-3.195,8.026-3.221-8.026h-4.286l5.4,12.234-2.7,6.182h4.234ZM495.5,94.4h3.922V74.914H495.5V94.4Zm14.574,0.286a7.29,7.29,0,0,0,6.1-2.857l-2.909-2.182a3.77,3.77,0,0,1-3.143,1.481,2.926,2.926,0,0,1-3.169-2.286h9.429a10.027,10.027,0,0,0,.078-1.377c0-4.208-3.039-6.338-6.468-6.338A6.78,6.78,0,1,0,510.076,94.681Zm-0.182-10.364a2.6,2.6,0,0,1,2.676,1.948h-5.507A2.714,2.714,0,0,1,509.894,84.317Zm15.59,10.364a4.5,4.5,0,0,0,3.532-1.584v1.3h3.923V74.914h-3.923v7.793a4.5,4.5,0,0,0-3.532-1.585c-3.4,0-6.027,3.091-6.027,6.78S522.081,94.681,525.484,94.681Zm0.883-3.559a3.232,3.232,0,1,1,2.961-3.221A2.966,2.966,0,0,1,526.367,91.122ZM545.932,94.4h3.922V84.81h3.637v-3.4h-3.637V80.472c0-1.558.65-2.208,2.234-2.208a3.775,3.775,0,0,1,1.4.234V75.044a7.683,7.683,0,0,0-2.338-.286,4.974,4.974,0,0,0-5.221,5.221v1.429h-2.6v3.4h2.6V94.4Zm16.5,0.286A6.78,6.78,0,1,0,555.6,87.9,6.779,6.779,0,0,0,562.43,94.681Zm0-3.662a3.127,3.127,0,1,1,2.883-3.117A2.907,2.907,0,0,1,562.43,91.018ZM572.98,94.4H576.9V88.239c0-1.87.935-3.169,2.624-3.169a5.02,5.02,0,0,1,1.74.312V81.408a4.6,4.6,0,0,0-1.273-.156,3.358,3.358,0,0,0-3.091,2.1V81.408H572.98V94.4Zm18.239,0h3.923V88.083c0-2.338,1.143-3.4,2.623-3.4,1.4,0,2.1,1.091,2.1,2.883V94.4h3.923V86.888c0-3.4-1.845-5.767-5.04-5.767a4.381,4.381,0,0,0-3.61,1.611V81.408h-3.923V94.4Zm22.967,0.286a6.78,6.78,0,1,0-6.832-6.779A6.779,6.779,0,0,0,614.186,94.681Zm0-3.662a3.127,3.127,0,1,1,2.883-3.117A2.906,2.906,0,0,1,614.186,91.018Zm21.46,3.377H639.6l4.26-12.988h-4.208l-2.26,7.948-2.468-7.948h-3.013l-2.468,7.948-2.26-7.948H622.97L627.256,94.4h3.949l2.233-6.883ZM648.068,94.6a2.779,2.779,0,1,0-2.779-2.779A2.783,2.783,0,0,0,648.068,94.6Z"/>
</svg>
