<svg id="Copy_copy_6" data-name="Copy copy 6" xmlns="http://www.w3.org/2000/svg" width="768" height="229" viewBox="0 0 768 229">
  <metadata><?xpacket begin="﻿" id="W5M0MpCehiHzreSzNTczkc9d"?>
<x:xmpmeta xmlns:x="adobe:ns:meta/" x:xmptk="Adobe XMP Core 5.6-c138 79.159824, 2016/09/14-01:09:01        ">
   <rdf:RDF xmlns:rdf="http://www.w3.org/1999/02/22-rdf-syntax-ns#">
      <rdf:Description rdf:about=""/>
   </rdf:RDF>
</x:xmpmeta>
                                                                                                    
                                                                                                    
                                                                                                    
                                                                                                    
                                                                                                    
                                                                                                    
                                                                                                    
                                                                                                    
                                                                                                    
                                                                                                    
                                                                                                    
                                                                                                    
                                                                                                    
                                                                                                    
                                                                                                    
                                                                                                    
                                                                                                    
                                                                                                    
                                                                                                    
                                                                                                    
                           
<?xpacket end="w"?></metadata>
<defs>
    <style>
      .cls-1 {
        fill: #fff;
      }

      .cls-2 {
        fill-rule: evenodd;
      }
    </style>
  </defs>
  <rect id="Rectangle_109_copy_5" data-name="Rectangle 109 copy 5" class="cls-1" width="768" height="229"/>
  <path id="ITALIAN_LEATHER_BAG" data-name="ITALIAN LEATHER BAG" class="cls-2" d="M43.684,67.444h6.105V40.183H43.684V67.444Zm18.7,0h6.143V46.019h7.027V40.183H55.434v5.836h6.95V67.444Zm13.133,0h6.374l2.419-5.76H95.6l2.419,5.76h6.374L92.719,40.183H87.19Zm11.02-11.058,3.417-8.217,3.417,8.217H86.537Zm22.618,11.058h17.394V61.608H115.26V40.183h-6.105V67.444Zm23.117,0h6.105V40.183h-6.105V67.444Zm10.867,0h6.374l2.419-5.76H163.22l2.419,5.76h6.374L160.341,40.183h-5.53Zm11.02-11.058,3.417-8.217,3.417,8.217h-6.834Zm47.269,11.058V40.183h-6.144V57L182.037,40.183h-5.26V67.444h6.105V50.588l13.285,16.856h5.261Zm18.049,0h17.394V61.608H225.582V40.183h-6.1V67.444Zm23.116,0h17.279V61.608H248.7V56.731h8.87V50.9H248.7V46.019h11.174V40.183H242.593V67.444Zm20.928,0H269.9l2.419-5.76H283.6l2.419,5.76H292.4L280.723,40.183h-5.529Zm11.02-11.058,3.418-8.217,3.417,8.217h-6.835Zm24.807,11.058h6.144V46.019h7.026V40.183H292.4v5.836h6.95V67.444Zm18.816,0h6.105V56.655h10.982V67.444h6.105V40.183h-6.105V50.857H324.269V40.183h-6.105V67.444Zm30.874,0h17.278V61.608H355.143V56.731h8.869V50.9h-8.869V46.019h11.173V40.183H349.038V67.444Zm23.846,0h6.1V56.194h1l9.062,11.25h7.334l-9.638-12.018c3.456-1.229,5.337-3.494,5.337-7.026a8.049,8.049,0,0,0-8.447-8.217H372.884V67.444Zm6.1-16.434V45.789h3.917c1.8,0,3.11.96,3.11,2.611,0,1.574-1.306,2.611-3.11,2.611h-3.917Zm30.835,16.434H421.8a8.06,8.06,0,0,0,8.294-8.025,7.124,7.124,0,0,0-3.878-6.451,6.417,6.417,0,0,0,1.958-4.684,8.1,8.1,0,0,0-8.1-8.1H409.824V67.444Zm6.1-16.242V45.75h3.456a2.771,2.771,0,0,1,2.841,2.764,2.732,2.732,0,0,1-2.841,2.688h-3.456Zm0,10.636V56.386h5.338a2.773,2.773,0,0,1,2.879,2.726,2.739,2.739,0,0,1-2.841,2.726h-5.376Zm16.513,5.606h6.374l2.419-5.76h11.289l2.419,5.76h6.374L449.644,40.183h-5.529Zm11.02-11.058,3.418-8.217,3.417,8.217h-6.835ZM478.175,67.9c4.416,0,8.755-1.305,11.174-4.032V50.934H478.06v5.721H483.4v4.032c-1.151.922-3.148,1.306-5.3,1.306-5.338,0-8.6-3.532-8.6-8.178a8,8,0,0,1,8.217-8.178,9.054,9.054,0,0,1,6.873,2.918l4.3-4.185a14.5,14.5,0,0,0-11.173-4.646,13.925,13.925,0,0,0-14.361,14.091C463.354,61.8,469.69,67.9,478.175,67.9Z"/>
  <rect id="Rectangle_4_copy_4" data-name="Rectangle 4 copy 4" x="39.406" y="135.312" width="122.406" height="3.688"/>
  <path id="Shop_now" data-name="Shop now" class="cls-2" d="M44.617,128.409c2.706,0,4.564-1.653,4.582-4.022,0.018-1.966-1.19-3.215-3.048-3.894l-0.9-.331c-1.353-.5-1.984-0.808-1.984-1.506,0-.679.776-0.992,1.551-0.992a2.829,2.829,0,0,1,2.219,1.084l1.876-2.02a5.3,5.3,0,0,0-4.131-1.8c-2.561,0-4.419,1.487-4.419,4.022,0,1.782,1.154,3.049,3.229,3.765l0.9,0.313c1.281,0.44,1.786.9,1.786,1.561,0,0.624-.6,1.083-1.551,1.083a3.337,3.337,0,0,1-2.652-1.487l-2.2,1.892A5.582,5.582,0,0,0,44.617,128.409Zm9.726-.22H57.21v-5.161h5.159v5.161h2.868V115.148H62.369v5.106H57.21v-5.106H54.342v13.041ZM77,128.409a6.742,6.742,0,1,0-6.62-6.741A6.7,6.7,0,0,0,77,128.409Zm0-2.828a3.918,3.918,0,1,1,3.716-3.913A3.837,3.837,0,0,1,77,125.581Zm20.622-5.97a4.4,4.4,0,0,0-4.51-4.463H88.767v13.041h2.868v-4.133h1.479A4.384,4.384,0,0,0,97.624,119.611Zm-2.778,0a1.7,1.7,0,0,1-1.768,1.708H91.635V117.9h1.443A1.689,1.689,0,0,1,94.846,119.611Zm25.979,8.578V115.148h-2.886v8.045l-6.223-8.045h-2.472v13.041h2.869v-8.063l6.241,8.063h2.471Zm11.765,0.22a6.742,6.742,0,1,0-6.62-6.741A6.7,6.7,0,0,0,132.59,128.409Zm0-2.828a3.918,3.918,0,1,1,3.716-3.913A3.837,3.837,0,0,1,132.59,125.581Zm21.686,2.608H157l2.976-13.041h-3.067l-1.749,8.265-3.608-8.485-3.589,8.485-1.75-8.265h-3.067l2.959,13.041h2.723l2.724-6.392Z"/>
</svg>
