<svg id="Copy_copy_8" data-name="Copy copy 8" xmlns="http://www.w3.org/2000/svg" width="768" height="836" viewBox="0 0 768 836">
  <metadata><?xpacket begin="﻿" id="W5M0MpCehiHzreSzNTczkc9d"?>
<x:xmpmeta xmlns:x="adobe:ns:meta/" x:xmptk="Adobe XMP Core 5.6-c138 79.159824, 2016/09/14-01:09:01        ">
   <rdf:RDF xmlns:rdf="http://www.w3.org/1999/02/22-rdf-syntax-ns#">
      <rdf:Description rdf:about=""/>
   </rdf:RDF>
</x:xmpmeta>
                                                                                                    
                                                                                                    
                                                                                                    
                                                                                                    
                                                                                                    
                                                                                                    
                                                                                                    
                                                                                                    
                                                                                                    
                                                                                                    
                                                                                                    
                                                                                                    
                                                                                                    
                                                                                                    
                                                                                                    
                                                                                                    
                                                                                                    
                                                                                                    
                                                                                                    
                                                                                                    
                           
<?xpacket end="w"?></metadata>
<defs>
    <style>
      .cls-1 {
        fill: #fff;
        fill-opacity: 0;
      }

      .cls-2 {
        fill-rule: evenodd;
      }
    </style>
  </defs>
  <rect id="Rectangle_109_copy_7" data-name="Rectangle 109 copy 7" class="cls-1" width="768" height="836"/>
  <path id="WATER-RESISTANT_CLASSIC_TRENCH_COAT_Cotton_twill_b._1980_Don_" data-name="WATER-RESISTANT CLASSIC TRENCH COAT Cotton twill, b. 1980  Don’" class="cls-2" d="M64.748,67.395h5.8l6.336-27.261H70.354L66.629,57.412,58.95,39.672,51.309,57.412,47.584,40.133H41.057l6.3,27.261h5.8l5.8-13.362Zm12.981,0H84.1l2.419-5.759H97.811l2.419,5.759H106.6L94.931,40.133H89.4Zm11.02-11.058,3.417-8.217,3.417,8.217H88.749Zm24.806,11.058H119.7V45.969h7.027V40.133h-20.12v5.836h6.949V67.395Zm18.817,0H149.65V61.558H138.477V56.682h8.869V50.846h-8.869V45.969H149.65V40.133H132.372V67.395Zm23.846,0h6.105V56.144h1l9.062,11.25h7.334l-9.638-12.018c3.456-1.229,5.338-3.494,5.338-7.026a8.049,8.049,0,0,0-8.448-8.217H156.218V67.395Zm6.105-16.434V45.739h3.917c1.8,0,3.11.96,3.11,2.611,0,1.574-1.306,2.611-3.11,2.611h-3.917Zm19.354,5.567h11.289V51H181.677v5.529Zm18.316,10.866H206.1V56.144h1l9.061,11.25h7.334l-9.638-12.018c3.456-1.229,5.338-3.494,5.338-7.026a8.049,8.049,0,0,0-8.448-8.217H199.993V67.395ZM206.1,50.961V45.739h3.917c1.8,0,3.11.96,3.11,2.611,0,1.574-1.306,2.611-3.11,2.611H206.1Zm21.235,16.434h17.279V61.558H233.439V56.682h8.869V50.846h-8.869V45.969h11.173V40.133H227.333V67.395Zm31.987,0.461c5.76,0,9.714-3.456,9.753-8.409,0.038-4.108-2.534-6.719-6.489-8.14l-1.92-.691c-2.88-1.037-4.224-1.69-4.224-3.148,0-1.421,1.651-2.073,3.3-2.073a6.064,6.064,0,0,1,4.723,2.265l3.993-4.224a11.373,11.373,0,0,0-8.792-3.763c-5.453,0-9.408,3.11-9.408,8.409,0,3.724,2.458,6.374,6.873,7.871l1.92,0.653c2.726,0.921,3.8,1.881,3.8,3.264,0,1.305-1.267,2.265-3.3,2.265a7.132,7.132,0,0,1-5.644-3.11l-4.685,3.955A11.955,11.955,0,0,0,259.32,67.855Zm15.9-.461h6.1V40.133h-6.1V67.395Zm21.925,0.461c5.76,0,9.715-3.456,9.753-8.409,0.038-4.108-2.534-6.719-6.489-8.14l-1.92-.691c-2.88-1.037-4.224-1.69-4.224-3.148,0-1.421,1.651-2.073,3.3-2.073a6.063,6.063,0,0,1,4.722,2.265l3.994-4.224a11.377,11.377,0,0,0-8.793-3.763c-5.453,0-9.408,3.11-9.408,8.409,0,3.724,2.458,6.374,6.874,7.871l1.919,0.653c2.727,0.921,3.8,1.881,3.8,3.264,0,1.305-1.267,2.265-3.3,2.265a7.134,7.134,0,0,1-5.645-3.11l-4.684,3.955A11.954,11.954,0,0,0,297.143,67.855Zm20.429-.461h6.144V45.969h7.026V40.133h-20.12v5.836h6.95V67.395Zm13.133,0h6.374l2.419-5.759h11.289l2.419,5.759h6.374L347.907,40.133h-5.529Zm11.02-11.058,3.418-8.217,3.417,8.217h-6.835ZM389,67.395V40.133h-6.144V56.951L369.6,40.133h-5.26V67.395h6.105V50.539l13.285,16.856H389Zm12.6,0h6.143V45.969h7.027V40.133h-20.12v5.836h6.95V67.395ZM55.84,108.654a14.091,14.091,0,0,0,12.748-7.449l-5.376-2.918a8.179,8.179,0,1,1,0-7.449l5.376-2.918A14.212,14.212,0,1,0,55.84,108.654Zm18.241-.461H91.474v-5.836H80.186V80.932H74.08v27.261Zm20.2,0h6.374l2.419-5.759H114.36l2.419,5.759h6.374L111.48,80.932h-5.529ZM105.3,97.135l3.418-8.217,3.417,8.217H105.3Zm30.029,11.519c5.76,0,9.715-3.455,9.753-8.409,0.039-4.108-2.534-6.719-6.489-8.14l-1.92-.691c-2.88-1.037-4.223-1.689-4.223-3.148,0-1.421,1.651-2.073,3.3-2.073a6.065,6.065,0,0,1,4.723,2.265l3.993-4.224a11.376,11.376,0,0,0-8.793-3.763c-5.452,0-9.407,3.11-9.407,8.409,0,3.724,2.457,6.374,6.873,7.871l1.92,0.653c2.726,0.921,3.8,1.881,3.8,3.264,0,1.3-1.267,2.265-3.3,2.265a7.134,7.134,0,0,1-5.645-3.11l-4.684,3.955A11.953,11.953,0,0,0,135.327,108.654Zm24.038,0c5.76,0,9.715-3.455,9.753-8.409,0.039-4.108-2.534-6.719-6.489-8.14l-1.92-.691c-2.88-1.037-4.223-1.689-4.223-3.148,0-1.421,1.651-2.073,3.3-2.073a6.065,6.065,0,0,1,4.723,2.265l3.993-4.224a11.376,11.376,0,0,0-8.793-3.763c-5.452,0-9.407,3.11-9.407,8.409,0,3.724,2.457,6.374,6.873,7.871L159.1,97.4c2.726,0.921,3.8,1.881,3.8,3.264,0,1.3-1.267,2.265-3.3,2.265a7.134,7.134,0,0,1-5.645-3.11l-4.684,3.955A11.953,11.953,0,0,0,159.365,108.654Zm15.9-.461h6.1V80.932h-6.1v27.261Zm26.341,0.461a14.091,14.091,0,0,0,12.748-7.449l-5.376-2.918a8.179,8.179,0,1,1,0-7.449l5.376-2.918A14.213,14.213,0,1,0,201.6,108.654Zm32.41-.461h6.144V86.768h7.026V80.932h-20.12v5.836h6.95v21.425Zm18.816,0h6.1V96.943h1L269,108.193h7.334l-9.637-12.018c3.455-1.229,5.337-3.494,5.337-7.026a8.049,8.049,0,0,0-8.448-8.217H252.83v27.261Zm6.1-16.433V86.538h3.917c1.805,0,3.11.96,3.11,2.611,0,1.574-1.305,2.611-3.11,2.611h-3.917Zm21.236,16.433h17.278v-5.836H286.276V97.481h8.869V91.645h-8.869V86.768h11.173V80.932H280.171v27.261Zm48.5,0V80.932h-6.144V97.75L309.277,80.932h-5.26v27.261h6.105V91.338l13.285,16.855h5.261Zm20.237,0.461a14.091,14.091,0,0,0,12.748-7.449l-5.375-2.918a8.179,8.179,0,1,1,0-7.449l5.375-2.918A14.212,14.212,0,1,0,348.905,108.654Zm18.241-.461h6.1V97.4h10.982v10.789h6.105V80.932h-6.105V91.606H373.251V80.932h-6.1v27.261Zm53.8,0.461a14.091,14.091,0,0,0,12.748-7.449l-5.376-2.918a8.179,8.179,0,1,1,0-7.449l5.376-2.918A14.213,14.213,0,1,0,420.943,108.654Zm30.8,0a14.091,14.091,0,1,0-14.092-14.091A14.126,14.126,0,0,0,451.74,108.654Zm0-5.913a8.183,8.183,0,1,1,7.91-8.178A8.088,8.088,0,0,1,451.74,102.741Zm16.09,5.452H474.2l2.419-5.759h11.289l2.419,5.759h6.374L485.032,80.932H479.5Zm11.02-11.058,3.417-8.217,3.418,8.217H478.85Zm24.807,11.058H509.8V86.768h7.027V80.932h-20.12v5.836h6.95v21.425ZM41.592,132.419a9.743,9.743,0,0,0,17.981,5.149l-2.059-1.241a7.367,7.367,0,1,1,0-7.815l2.06-1.241A9.743,9.743,0,0,0,41.592,132.419Zm34.955,2.773a6.9,6.9,0,1,0-6.891,6.865A6.775,6.775,0,0,0,76.547,135.192Zm-11.486,0a4.584,4.584,0,1,1,4.594,4.752A4.538,4.538,0,0,1,65.062,135.192Zm32.21,6.416v-2.033a5.03,5.03,0,0,1-1.611.264c-1.426,0-2.191-.555-2.191-2.245v-6.917h3.8v-2.086h-3.8v-3.67H91.2v3.67H88.928v2.086H91.2v7.208a3.716,3.716,0,0,0,4.04,4.04A6.313,6.313,0,0,0,97.272,141.608Zm-9.241,0v-2.033a5.031,5.031,0,0,1-1.611.264c-1.426,0-2.191-.555-2.191-2.245v-6.917H87.45v-2.086H84.228v-3.67H81.958v3.67h-2.8v2.086h2.8v7.208a3.716,3.716,0,0,0,4.04,4.04A6.313,6.313,0,0,0,88.031,141.608Zm26.031-6.416a6.905,6.905,0,1,0-6.892,6.865A6.775,6.775,0,0,0,114.062,135.192Zm-11.486,0a4.584,4.584,0,1,1,4.594,4.752A4.537,4.537,0,0,1,102.576,135.192Zm16.051,6.6h2.27v-6.548c0-3.09,1.69-4.832,3.829-4.832,1.848,0,3.116,1.373,3.116,3.591v7.789h2.244V133.66c0-3.274-2.033-5.333-4.99-5.333a4.669,4.669,0,0,0-4.2,2.3v-2.033h-2.27v13.2Zm31.337-.185v-2.033a5.028,5.028,0,0,1-1.611.264c-1.425,0-2.191-.555-2.191-2.245v-6.917h3.8v-2.086h-3.8v-3.67h-2.271v3.67h-2.8v2.086h2.8v7.208a3.717,3.717,0,0,0,4.04,4.04A6.317,6.317,0,0,0,149.964,141.608Zm15.418,0.185h2.007l4.488-13.2h-2.4l-3.195,9.637-3.3-9.637h-1.742l-3.3,9.637-3.195-9.637h-2.376l4.489,13.2h2.006l3.274-9.506ZM178.4,123.442a1.6,1.6,0,0,0-1.585-1.61,1.64,1.64,0,0,0-1.637,1.61,1.623,1.623,0,0,0,1.637,1.611A1.579,1.579,0,0,0,178.4,123.442Zm-2.746,18.351h2.27v-13.2h-2.27v13.2Zm7.893,0h2.271v-19.8h-2.271v19.8Zm7.893,0h2.271v-19.8h-2.271v19.8Zm10.719-.581a2.263,2.263,0,0,0,.37-1.188,1.954,1.954,0,1,0-3.908,0,1.965,1.965,0,0,0,1.083,1.769l-1.769,3.775h1.5Zm15.285-1.452a5.792,5.792,0,0,0,4.647,2.3,6.877,6.877,0,0,0,0-13.73,5.792,5.792,0,0,0-4.647,2.3V121.99h-2.27v19.8h2.27V139.76Zm8.793-4.568a4.5,4.5,0,1,1-4.489-4.779A4.508,4.508,0,0,1,226.233,135.192ZM236,140.024a1.954,1.954,0,1,0-1.953,1.98A1.989,1.989,0,0,0,236,140.024Zm14.229,1.769H252.5V123.046h-4.04l-1.848,2.245h3.617v16.5Zm8.026,0h2.9l6.865-8.106a7.2,7.2,0,0,0,2.112-4.779,6.352,6.352,0,0,0-12.7.079,6.057,6.057,0,0,0,5.862,6.02,3.348,3.348,0,0,0,.739-0.053Zm1.5-12.832A4.027,4.027,0,1,1,263.772,133,3.984,3.984,0,0,1,259.759,128.961Zm26.428,7.208a5.238,5.238,0,0,0-2.931-4.911,4.391,4.391,0,0,0,1.9-3.7c0-2.8-2.165-4.831-5.254-4.831-3.011,0-5.281,2.033-5.281,4.831a4.371,4.371,0,0,0,1.954,3.7,5.238,5.238,0,0,0-2.984,4.911c0,3.406,2.64,5.888,6.311,5.888C283.625,142.057,286.187,139.575,286.187,136.169Zm-9.321-8.555a2.791,2.791,0,0,1,3.037-2.746,2.739,2.739,0,0,1,3.01,2.746,2.8,2.8,0,0,1-3.01,2.772A2.857,2.857,0,0,1,276.866,127.614Zm-0.977,8.555a3.722,3.722,0,0,1,4.014-3.75,3.744,3.744,0,1,1,0,7.473A3.732,3.732,0,0,1,275.889,136.169Zm27.722-1.162v-5.228c0-4.145-2.8-7.049-6.654-7.049s-6.627,2.9-6.627,7.049v5.228c0,4.172,2.772,7.05,6.627,7.05S303.611,139.179,303.611,135.007Zm-11.011,0v-5.228c0-3.036,1.822-4.832,4.357-4.832,2.561,0,4.383,1.8,4.383,4.832v5.228c0,3.036-1.822,4.832-4.383,4.832C294.422,139.839,292.6,138.043,292.6,135.007ZM42.66,194.591h4.9c5.233,0,9.074-3.648,9.074-8.521s-3.841-8.522-9.074-8.522h-4.9v17.043Zm2.233-2.088V179.636h2.664c4.1,0,6.818,2.737,6.818,6.434s-2.713,6.433-6.818,6.433H44.893Zm27.554-3.913a6.277,6.277,0,1,0-6.265,6.241A6.159,6.159,0,0,0,72.447,188.59ZM62,188.59a4.168,4.168,0,1,1,4.177,4.321A4.126,4.126,0,0,1,62,188.59Zm14.591,6H78.66v-5.953c0-2.808,1.536-4.393,3.481-4.393,1.68,0,2.833,1.248,2.833,3.265v7.081h2.04V187.2c0-2.977-1.848-4.849-4.537-4.849a4.245,4.245,0,0,0-3.817,2.088v-1.848H76.6v12ZM94.668,180.14A2.12,2.12,0,0,0,95,179.06a1.788,1.788,0,1,0-3.577,0,1.861,1.861,0,0,0,.984,1.609L90.8,184.1H92.2ZM105.4,194.423v-1.848a4.562,4.562,0,0,1-1.464.24c-1.3,0-1.993-.5-1.993-2.041v-6.289H105.4v-1.9H101.94v-3.337H99.876v3.337H97.331v1.9h2.544v6.554a3.378,3.378,0,0,0,3.673,3.672A5.743,5.743,0,0,0,105.4,194.423Zm10.894,0.168h2.065v-18h-2.065v18Zm6.24-6a6.328,6.328,0,0,0,11.618,3.385l-1.632-1.129a4.25,4.25,0,0,1-7.9-1.848h9.842a5.856,5.856,0,0,0,.024-0.624c-0.024-3.841-2.568-6.025-5.713-6.025A6.081,6.081,0,0,0,122.531,188.59Zm6.169-4.417a3.591,3.591,0,0,1,3.673,3.145h-7.61A3.924,3.924,0,0,1,128.7,184.173Zm16.249,10.25v-1.848a4.568,4.568,0,0,1-1.465.24c-1.3,0-1.992-.5-1.992-2.041v-6.289h3.457v-1.9h-3.457v-3.337h-2.065v3.337h-2.544v1.9h2.544v6.554a3.379,3.379,0,0,0,3.673,3.672A5.749,5.749,0,0,0,144.949,194.423Zm9.958-5.833a6.005,6.005,0,0,0,5.881,6.241,5.264,5.264,0,0,0,4.225-2.088v1.848h2.064v-12h-2.064v1.848a5.264,5.264,0,0,0-4.225-2.088A6.005,6.005,0,0,0,154.907,188.59Zm10.274,0a4.1,4.1,0,1,1-4.081-4.345A4.1,4.1,0,0,1,165.181,188.59Zm6.982,6h2.064v-5.953c0-2.808,1.536-4.393,3.481-4.393,1.68,0,2.832,1.248,2.832,3.265v7.081h2.041V187.2c0-2.977-1.849-4.849-4.537-4.849a4.245,4.245,0,0,0-3.817,2.088v-1.848h-2.064v12Zm18.288,5.017,7.874-17.019h-2.3l-4.105,9.1-4.128-9.1h-2.281l5.257,11.378-2.616,5.641h2.3Zm17.641-5.185v-1.848a4.564,4.564,0,0,1-1.465.24c-1.3,0-1.992-.5-1.992-2.041v-6.289h3.457v-1.9h-3.457v-3.337h-2.064v3.337h-2.545v1.9h2.545v6.554a3.378,3.378,0,0,0,3.672,3.672A5.744,5.744,0,0,0,208.092,194.423Zm3.838,0.168H214v-5.953c0-2.808,1.536-4.393,3.481-4.393,1.68,0,2.832,1.248,2.832,3.265v7.081h2.041V187.2c0-2.977-1.849-4.849-4.537-4.849A4.244,4.244,0,0,0,214,184.437v-7.849H211.93v18Zm17.833-16.683a1.45,1.45,0,0,0-1.441-1.464,1.491,1.491,0,0,0-1.488,1.464,1.475,1.475,0,0,0,1.488,1.464A1.435,1.435,0,0,0,229.763,177.908Zm-2.5,16.683h2.065v-12h-2.065v12Zm7.176,0h2.064v-5.953c0-2.808,1.537-4.393,3.481-4.393,1.68,0,2.833,1.248,2.833,3.265v7.081h2.04V187.2c0-2.977-1.848-4.849-4.537-4.849a4.246,4.246,0,0,0-3.817,2.088v-1.848h-2.064v12Zm26.522-.7V182.589H258.9v1.848a5.109,5.109,0,0,0-4.177-2.088,6.114,6.114,0,0,0,0,12.218,5.128,5.128,0,0,0,4.177-2.112v1.368a3.837,3.837,0,0,1-4.009,4.153,5.132,5.132,0,0,1-4.2-2.017l-1.44,1.441a7.125,7.125,0,0,0,5.665,2.448C258.323,199.848,260.964,197.9,260.964,193.9Zm-10.01-5.449a4.059,4.059,0,1,1,4.057,4.2A4,4,0,0,1,250.954,188.446Zm22.151,6.145h2.065v-5.953c0-2.808,1.656-4.129,3.168-4.129a3.017,3.017,0,0,1,1.128.192v-2.136a4.276,4.276,0,0,0-.936-0.1,3.57,3.57,0,0,0-3.36,2.448v-2.328h-2.065v12Zm8.64-6a6.005,6.005,0,0,0,5.881,6.241,5.263,5.263,0,0,0,4.225-2.088v1.848h2.065v-12h-2.065v1.848a5.263,5.263,0,0,0-4.225-2.088A6.005,6.005,0,0,0,281.745,188.59Zm10.274,0a4.1,4.1,0,1,1-4.081-4.345A4.1,4.1,0,0,1,292.019,188.59Zm9.478-10.682a1.449,1.449,0,0,0-1.44-1.464,1.491,1.491,0,0,0-1.488,1.464,1.475,1.475,0,0,0,1.488,1.464A1.434,1.434,0,0,0,301.5,177.908ZM299,194.591h2.064v-12H299v12Zm7.176,0h2.064v-5.953c0-2.808,1.536-4.393,3.481-4.393,1.68,0,2.832,1.248,2.832,3.265v7.081H316.6V187.2c0-2.977-1.848-4.849-4.537-4.849a4.245,4.245,0,0,0-3.817,2.088v-1.848h-2.064v12Zm33.986-6a6.278,6.278,0,1,0-6.266,6.241A6.159,6.159,0,0,0,340.163,188.59Zm-10.443,0a4.168,4.168,0,1,1,4.177,4.321A4.126,4.126,0,0,1,329.72,188.59Zm14.592,6h2.064v-5.953c0-2.808,1.537-4.393,3.481-4.393,1.68,0,2.833,1.248,2.833,3.265v7.081h2.04V187.2c0-2.977-1.848-4.849-4.537-4.849a4.245,4.245,0,0,0-3.817,2.088v-1.848h-2.064v12Zm25.032,5.017,7.874-17.019h-2.305l-4.105,9.1-4.128-9.1H364.4l5.257,11.378-2.616,5.641h2.3ZM391.81,188.59a6.278,6.278,0,1,0-6.265,6.241A6.159,6.159,0,0,0,391.81,188.59Zm-10.442,0a4.168,4.168,0,1,1,4.177,4.321A4.126,4.126,0,0,1,381.368,188.59Zm14.423,1.368c0,2.977,1.777,4.873,4.417,4.873a4.129,4.129,0,0,0,3.7-2.088v1.848h2.065v-12h-2.065v5.953c0,2.761-1.464,4.393-3.337,4.393-1.656,0-2.712-1.272-2.712-3.289v-7.057h-2.065v7.369Zm15.264,4.633h2.065v-5.953c0-2.808,1.656-4.129,3.168-4.129a3.022,3.022,0,0,1,1.129.192v-2.136a4.285,4.285,0,0,0-.937-0.1,3.57,3.57,0,0,0-3.36,2.448v-2.328h-2.065v12Zm16.44,5.017h2.064v-6.865a5.266,5.266,0,0,0,4.225,2.088,6.252,6.252,0,0,0,0-12.482,5.266,5.266,0,0,0-4.225,2.088v-1.848H427.5v17.019Zm10.058-11.018a4.089,4.089,0,1,1-4.081-4.345A4.1,4.1,0,0,1,437.553,188.59Zm5.35,0a6.005,6.005,0,0,0,5.881,6.241,5.264,5.264,0,0,0,4.225-2.088v1.848h2.064v-12h-2.064v1.848a5.264,5.264,0,0,0-4.225-2.088A6.005,6.005,0,0,0,442.9,188.59Zm10.274,0a4.1,4.1,0,1,1-4.081-4.345A4.1,4.1,0,0,1,453.177,188.59Zm6.982,6h2.064v-5.953c0-2.808,1.657-4.129,3.169-4.129a3.017,3.017,0,0,1,1.128.192v-2.136a4.276,4.276,0,0,0-.936-0.1,3.571,3.571,0,0,0-3.361,2.448v-2.328h-2.064v12Zm8.64-6a6.005,6.005,0,0,0,5.881,6.241,5.266,5.266,0,0,0,4.225-2.088v1.848h2.064v-12h-2.064v1.848a5.266,5.266,0,0,0-4.225-2.088A6.005,6.005,0,0,0,468.8,188.59Zm10.274,0a4.1,4.1,0,1,1-4.081-4.345A4.1,4.1,0,0,1,479.073,188.59Zm6.045,0A6.006,6.006,0,0,0,491,194.831a5.263,5.263,0,0,0,4.225-2.088v1.848h2.065v-18h-2.065v7.849A5.263,5.263,0,0,0,491,182.349,6.006,6.006,0,0,0,485.118,188.59Zm10.274,0a4.1,4.1,0,1,1-4.08-4.345A4.1,4.1,0,0,1,495.392,188.59Zm6.046,0a6.328,6.328,0,0,0,11.618,3.385l-1.632-1.129a4.25,4.25,0,0,1-7.9-1.848h9.843a5.856,5.856,0,0,0,.024-0.624c-0.024-3.841-2.569-6.025-5.714-6.025A6.082,6.082,0,0,0,501.438,188.59Zm6.169-4.417a3.591,3.591,0,0,1,3.673,3.145h-7.61A3.925,3.925,0,0,1,507.607,184.173Zm12.768,8.81a1.777,1.777,0,1,0-1.777,1.8A1.809,1.809,0,0,0,520.375,192.983Zm14.424,1.608h2.184V179.66h5.305v-2.112H529.494v2.112h5.3v14.931Zm10.871,0h2.064v-5.953c0-2.808,1.537-4.393,3.481-4.393,1.68,0,2.833,1.248,2.833,3.265v7.081h2.04V187.2c0-2.977-1.848-4.849-4.537-4.849a4.246,4.246,0,0,0-3.817,2.088v-7.849H545.67v18ZM563.5,177.908a1.449,1.449,0,0,0-1.44-1.464,1.491,1.491,0,0,0-1.488,1.464,1.475,1.475,0,0,0,1.488,1.464A1.434,1.434,0,0,0,563.5,177.908Zm-2.5,16.683h2.064v-12h-2.064v12Zm14.953-3.336c0-1.8-1.128-2.953-3.168-3.625l-1.3-.432c-1.416-.456-1.848-0.912-1.848-1.681,0-.888.888-1.392,2.016-1.392a3.244,3.244,0,0,1,2.545,1.248l1.344-1.3a4.654,4.654,0,0,0-3.841-1.728c-2.376,0-4.057,1.32-4.057,3.265,0,1.68,1.033,2.856,2.977,3.48l1.176,0.384c1.561,0.5,2.137,1.08,2.137,1.921,0,1.032-.936,1.632-2.113,1.632a3.221,3.221,0,0,1-3.072-1.9l-1.681.912a4.768,4.768,0,0,0,4.705,2.784C574.207,194.831,575.959,193.607,575.959,191.255Zm14.423,3.336h1.728l5.546-12h-2.3l-4.105,9.074-4.105-9.074h-2.3Zm9.359-6a6.328,6.328,0,0,0,11.619,3.385l-1.633-1.129a4.249,4.249,0,0,1-7.9-1.848h9.842a5.856,5.856,0,0,0,.024-0.624c-0.024-3.841-2.569-6.025-5.713-6.025A6.082,6.082,0,0,0,599.741,188.59Zm6.169-4.417a3.591,3.591,0,0,1,3.673,3.145h-7.609A3.923,3.923,0,0,1,605.91,184.173Zm9.911,10.418h2.065v-5.953c0-2.808,1.656-4.129,3.168-4.129a3.022,3.022,0,0,1,1.129.192v-2.136a4.285,4.285,0,0,0-.937-0.1,3.57,3.57,0,0,0-3.36,2.448v-2.328h-2.065v12Zm17.546-3.336c0-1.8-1.128-2.953-3.169-3.625l-1.3-.432c-1.416-.456-1.848-0.912-1.848-1.681,0-.888.888-1.392,2.016-1.392a3.244,3.244,0,0,1,2.545,1.248l1.344-1.3a4.654,4.654,0,0,0-3.841-1.728c-2.376,0-4.057,1.32-4.057,3.265,0,1.68,1.033,2.856,2.977,3.48l1.176,0.384c1.561,0.5,2.137,1.08,2.137,1.921,0,1.032-.937,1.632-2.113,1.632a3.221,3.221,0,0,1-3.072-1.9l-1.681.912a4.768,4.768,0,0,0,4.705,2.784C631.615,194.831,633.367,193.607,633.367,191.255Zm6.647-13.347a1.45,1.45,0,0,0-1.441-1.464,1.491,1.491,0,0,0-1.488,1.464,1.475,1.475,0,0,0,1.488,1.464A1.435,1.435,0,0,0,640.014,177.908Zm-2.5,16.683h2.065v-12h-2.065v12Zm18.771-6a6.278,6.278,0,1,0-6.266,6.241A6.159,6.159,0,0,0,656.288,188.59Zm-10.443,0a4.168,4.168,0,1,1,4.177,4.321A4.126,4.126,0,0,1,645.845,188.59Zm14.592,6H662.5v-5.953c0-2.808,1.537-4.393,3.481-4.393,1.68,0,2.833,1.248,2.833,3.265v7.081h2.04V187.2c0-2.977-1.848-4.849-4.537-4.849a4.245,4.245,0,0,0-3.817,2.088v-1.848h-2.064v12ZM44.845,206.707a1.45,1.45,0,0,0-1.44-1.464,1.465,1.465,0,1,0,0,2.929A1.435,1.435,0,0,0,44.845,206.707Zm-2.5,16.683h2.065v-12H42.348v12ZM57.3,220.054c0-1.8-1.128-2.953-3.169-3.625l-1.3-.432c-1.416-.456-1.848-0.912-1.848-1.68,0-.888.888-1.393,2.016-1.393a3.244,3.244,0,0,1,2.544,1.249l1.344-1.3a4.655,4.655,0,0,0-3.841-1.728c-2.376,0-4.057,1.32-4.057,3.265,0,1.68,1.032,2.856,2.977,3.48l1.176,0.384c1.56,0.505,2.136,1.081,2.136,1.921,0,1.032-.936,1.632-2.112,1.632a3.221,3.221,0,0,1-3.073-1.9l-1.68.912a4.767,4.767,0,0,0,4.7,2.784C55.549,223.63,57.3,222.406,57.3,220.054Zm22.1,0.36-1.8-1.008a4.069,4.069,0,0,1-3.745,2.3,4.322,4.322,0,0,1,0-8.641,4.069,4.069,0,0,1,3.745,2.3l1.8-1.008a6.215,6.215,0,0,0-5.545-3.217,6.241,6.241,0,1,0,0,12.482A6.216,6.216,0,0,0,79.406,220.414Zm3.861,2.976h2.064v-5.953c0-2.808,1.656-4.128,3.169-4.128a3.018,3.018,0,0,1,1.128.192v-2.137a4.278,4.278,0,0,0-.936-0.1,3.57,3.57,0,0,0-3.361,2.449v-2.329H83.267v12Zm8.64-6a6.006,6.006,0,0,0,5.881,6.241,5.263,5.263,0,0,0,4.225-2.088v1.848h2.065v-12h-2.065v1.849a5.261,5.261,0,0,0-4.225-2.089A6.006,6.006,0,0,0,91.907,217.389Zm10.274,0a4.1,4.1,0,1,1-4.081-4.344A4.1,4.1,0,0,1,102.181,217.389Zm7.99,6h2.065v-10.1H115.4v-1.9h-3.168V209.18c0-1.512.672-2.041,1.992-2.041a4.833,4.833,0,0,1,1.488.24v-1.824a5.454,5.454,0,0,0-1.872-.312,3.379,3.379,0,0,0-3.673,3.673v2.472h-2.544v1.9h2.544v10.1Zm14.379-.168v-1.848a4.715,4.715,0,0,1-1.488.24c-1.3,0-1.992-.5-1.992-2.04v-6.289h3.48v-1.9h-3.48v-3.336h-2.065v3.336h-2.256v1.9h2.256v6.553a3.4,3.4,0,0,0,3.7,3.672A5.974,5.974,0,0,0,124.55,223.222Zm2.733-5.833a6.328,6.328,0,0,0,11.618,3.385l-1.632-1.128a4.25,4.25,0,0,1-7.9-1.849h9.842a5.856,5.856,0,0,0,.024-0.624c-0.024-3.84-2.568-6.025-5.713-6.025A6.082,6.082,0,0,0,127.283,217.389Zm6.169-4.417a3.591,3.591,0,0,1,3.673,3.145h-7.61A3.925,3.925,0,0,1,133.452,212.972Zm8.975,4.417a6.005,6.005,0,0,0,5.881,6.241,5.264,5.264,0,0,0,4.225-2.088v1.848H154.6v-18h-2.064v7.85a5.262,5.262,0,0,0-4.225-2.089A6.006,6.006,0,0,0,142.427,217.389Zm10.274,0a4.1,4.1,0,1,1-4.081-4.344A4.1,4.1,0,0,1,152.7,217.389Zm23.784,6h1.824l4.081-12h-2.184L177.3,220.15l-3-8.762h-1.584l-3,8.762-2.9-8.762H164.65l4.081,12h1.825l2.976-8.641Zm11.83-16.683a1.45,1.45,0,0,0-1.441-1.464,1.465,1.465,0,1,0,0,2.929A1.436,1.436,0,0,0,188.315,206.707Zm-2.5,16.683h2.065v-12h-2.065v12Zm13.681-.168v-1.848a4.562,4.562,0,0,1-1.464.24c-1.3,0-1.992-.5-1.992-2.04v-6.289H199.5v-1.9h-3.456v-3.336h-2.065v3.336h-2.544v1.9h2.544v6.553a3.379,3.379,0,0,0,3.673,3.672A5.743,5.743,0,0,0,199.5,223.222Zm3.839,0.168H205.4v-5.953c0-2.808,1.537-4.392,3.481-4.392,1.681,0,2.833,1.248,2.833,3.264v7.081h2.04V216c0-2.976-1.848-4.849-4.537-4.849a4.245,4.245,0,0,0-3.817,2.089v-7.85h-2.064v18Zm32.138,0H237.3l4.081-12H239.2l-2.905,8.762-3-8.762h-1.584l-3,8.762-2.9-8.762h-2.161l4.081,12h1.825l2.976-8.641Zm8.349-6a6.006,6.006,0,0,0,5.881,6.241,5.263,5.263,0,0,0,4.225-2.088v1.848H256v-12h-2.065v1.849a5.261,5.261,0,0,0-4.225-2.089A6.006,6.006,0,0,0,243.825,217.389Zm10.274,0a4.1,4.1,0,1,1-4.081-4.344A4.1,4.1,0,0,1,254.1,217.389Zm13.488,5.833v-1.848a4.573,4.573,0,0,1-1.465.24c-1.3,0-1.992-.5-1.992-2.04v-6.289h3.457v-1.9H264.13v-3.336h-2.065v3.336h-2.544v1.9h2.544v6.553a3.379,3.379,0,0,0,3.673,3.672A5.754,5.754,0,0,0,267.587,223.222Zm2.734-5.833a6.328,6.328,0,0,0,11.619,3.385l-1.633-1.128a4.249,4.249,0,0,1-7.9-1.849h9.842a5.856,5.856,0,0,0,.024-0.624c-0.024-3.84-2.569-6.025-5.714-6.025A6.083,6.083,0,0,0,270.321,217.389Zm6.169-4.417a3.591,3.591,0,0,1,3.673,3.145h-7.609A3.924,3.924,0,0,1,276.49,212.972ZM286.4,223.39h2.065v-5.953c0-2.808,1.656-4.128,3.168-4.128a3.025,3.025,0,0,1,1.129.192v-2.137a4.291,4.291,0,0,0-.937-0.1,3.57,3.57,0,0,0-3.36,2.449v-2.329H286.4v12Zm8.592-5.689h6.122v-2.064h-6.122V217.7Zm10.848,5.689H307.9v-5.953c0-2.808,1.657-4.128,3.169-4.128a3.017,3.017,0,0,1,1.128.192v-2.137a4.276,4.276,0,0,0-.936-0.1,3.571,3.571,0,0,0-3.361,2.449v-2.329h-2.064v12Zm8.616-6a6.328,6.328,0,0,0,11.618,3.385l-1.632-1.128a4.25,4.25,0,0,1-7.9-1.849h9.842a5.856,5.856,0,0,0,.024-0.624c-0.024-3.84-2.568-6.025-5.713-6.025A6.082,6.082,0,0,0,314.457,217.389Zm6.169-4.417a3.591,3.591,0,0,1,3.673,3.145h-7.61A3.925,3.925,0,0,1,320.626,212.972Zm9.911,15.435H332.6v-6.865a5.266,5.266,0,0,0,4.225,2.088,6.252,6.252,0,0,0,0-12.482,5.264,5.264,0,0,0-4.225,2.089v-1.849h-2.064v17.019ZM340.6,217.389a4.089,4.089,0,1,1-4.081-4.344A4.1,4.1,0,0,1,340.6,217.389Zm5.35,0a6.328,6.328,0,0,0,11.618,3.385l-1.632-1.128a4.25,4.25,0,0,1-7.9-1.849h9.842a5.856,5.856,0,0,0,.024-0.624c-0.024-3.84-2.568-6.025-5.713-6.025A6.082,6.082,0,0,0,345.945,217.389Zm6.169-4.417a3.592,3.592,0,0,1,3.673,3.145h-7.61A3.925,3.925,0,0,1,352.114,212.972Zm9.911,10.418h2.064v-18h-2.064v18Zm7.176,0h2.064v-18H369.2v18Zm6.239-6a6.328,6.328,0,0,0,11.619,3.385l-1.633-1.128a4.249,4.249,0,0,1-7.9-1.849h9.842a5.856,5.856,0,0,0,.024-0.624c-0.024-3.84-2.569-6.025-5.713-6.025A6.083,6.083,0,0,0,375.44,217.389Zm6.169-4.417a3.591,3.591,0,0,1,3.673,3.145h-7.609A3.924,3.924,0,0,1,381.609,212.972Zm9.911,10.418h2.065v-5.953c0-2.808,1.536-4.392,3.48-4.392,1.681,0,2.833,1.248,2.833,3.264v7.081h2.04V216c0-2.976-1.848-4.849-4.536-4.849a4.243,4.243,0,0,0-3.817,2.089v-1.849H391.52v12Zm21.7-.168v-1.848a4.562,4.562,0,0,1-1.464.24c-1.3,0-1.992-.5-1.992-2.04v-6.289h3.456v-1.9h-3.456v-3.336H407.7v3.336h-2.544v1.9H407.7v6.553a3.379,3.379,0,0,0,3.673,3.672A5.743,5.743,0,0,0,413.217,223.222Zm16.992,0v-1.848a4.562,4.562,0,0,1-1.464.24c-1.3,0-1.993-.5-1.993-2.04v-6.289h3.457v-1.9h-3.457v-3.336h-2.064v3.336h-2.545v1.9h2.545v6.553a3.378,3.378,0,0,0,3.673,3.672A5.743,5.743,0,0,0,430.209,223.222Zm14.017,0.168h1.824l4.081-12h-2.184l-2.905,8.762-3-8.762h-1.584l-3,8.762-2.9-8.762h-2.161l4.081,12H438.3l2.976-8.641Zm11.83-16.683a1.449,1.449,0,0,0-1.44-1.464,1.465,1.465,0,1,0,0,2.929A1.435,1.435,0,0,0,456.056,206.707Zm-2.5,16.683h2.065v-12h-2.065v12Zm7.176,0H462.8v-18h-2.065v18Zm7.176,0h2.064v-18h-2.064v18Zm14.928,0H484.9v-10.1h3.48v-1.9H484.9V209.18c0-1.512.672-2.041,1.992-2.041a4.833,4.833,0,0,1,1.488.24v-1.824a5.454,5.454,0,0,0-1.872-.312,3.428,3.428,0,0,0-3.673,3.721v2.424H480.3v1.9h2.544v10.1Zm9,0H493.9v-5.953c0-2.808,1.656-4.128,3.169-4.128a3.017,3.017,0,0,1,1.128.192v-2.137a4.276,4.276,0,0,0-.936-0.1,3.57,3.57,0,0,0-3.361,2.449v-2.329h-2.064v12Zm21.146-6a6.277,6.277,0,1,0-6.265,6.241A6.159,6.159,0,0,0,512.985,217.389Zm-10.442,0a4.168,4.168,0,1,1,4.177,4.321A4.125,4.125,0,0,1,502.543,217.389Zm14.591,6H519.2v-5.953c0-2.712,1.368-4.392,3.313-4.392,1.56,0,2.352,1.344,2.352,3.288v7.057h2.065v-5.953c0-2.712,1.344-4.392,3.288-4.392,1.561,0,2.377,1.344,2.377,3.288v7.057h2.064v-7.369c0-2.928-1.584-4.873-4.2-4.873a4.155,4.155,0,0,0-3.937,2.569,3.772,3.772,0,0,0-3.7-2.569,4.033,4.033,0,0,0-3.625,2.089v-1.849h-2.065v12Zm35.593-.168v-1.848a4.562,4.562,0,0,1-1.464.24c-1.3,0-1.992-.5-1.992-2.04v-6.289h3.456v-1.9h-3.456v-3.336h-2.065v3.336h-2.544v1.9h2.544v6.553a3.379,3.379,0,0,0,3.673,3.672A5.743,5.743,0,0,0,552.727,223.222Zm3.839,0.168h2.064v-5.953c0-2.808,1.537-4.392,3.481-4.392,1.681,0,2.833,1.248,2.833,3.264v7.081h2.04V216c0-2.976-1.848-4.849-4.537-4.849a4.245,4.245,0,0,0-3.817,2.089v-7.85h-2.064v18Zm14.4-6a6.328,6.328,0,0,0,11.618,3.385l-1.632-1.128a4.25,4.25,0,0,1-7.9-1.849H582.9a5.856,5.856,0,0,0,.024-0.624c-0.024-3.84-2.568-6.025-5.713-6.025A6.082,6.082,0,0,0,570.966,217.389Zm6.169-4.417a3.592,3.592,0,0,1,3.673,3.145H573.2A3.924,3.924,0,0,1,577.135,212.972ZM52.526,252.19h1.824l4.081-12H56.247l-2.9,8.762-3-8.762H48.758l-3,8.762-2.9-8.762h-2.16l4.081,12H46.6l2.977-8.642Zm20.88-6a6.277,6.277,0,1,0-6.265,6.241A6.16,6.16,0,0,0,73.406,246.189Zm-10.442,0a4.168,4.168,0,1,1,4.177,4.32A4.125,4.125,0,0,1,62.964,246.189Zm14.591,6H79.62v-5.953c0-2.809,1.656-4.129,3.169-4.129a3.018,3.018,0,0,1,1.128.192v-2.137a4.279,4.279,0,0,0-.936-0.1,3.572,3.572,0,0,0-3.361,2.449v-2.329H77.556v12Zm9.984,0H89.6v-18H87.54v18Zm6.24-6a6.006,6.006,0,0,0,5.881,6.241,5.261,5.261,0,0,0,4.225-2.089v1.849h2.065v-18h-2.065v7.85a5.263,5.263,0,0,0-4.225-2.089A6.006,6.006,0,0,0,93.779,246.189Zm10.274,0a4.1,4.1,0,1,1-4.081-4.345A4.1,4.1,0,0,1,104.053,246.189Zm6.6,0.312h6.121v-2.065h-6.121V246.5ZM121.5,252.19h2.064v-5.953c0-2.809,1.657-4.129,3.169-4.129a3.017,3.017,0,0,1,1.128.192v-2.137a4.276,4.276,0,0,0-.936-0.1,3.572,3.572,0,0,0-3.361,2.449v-2.329H121.5v12Zm8.616-6a6.327,6.327,0,0,0,11.618,3.384l-1.632-1.128a4.25,4.25,0,0,1-7.9-1.848h9.842a5.856,5.856,0,0,0,.024-0.624c-0.024-3.841-2.568-6.026-5.713-6.026A6.082,6.082,0,0,0,130.115,246.189Zm6.169-4.417a3.591,3.591,0,0,1,3.673,3.144h-7.61A3.924,3.924,0,0,1,136.284,241.772ZM146.2,252.19h2.064v-5.953c0-2.809,1.537-4.393,3.481-4.393,1.68,0,2.833,1.248,2.833,3.264v7.082h2.04V244.8c0-2.976-1.848-4.849-4.537-4.849a4.246,4.246,0,0,0-3.817,2.089v-1.849H146.2v12Zm26.93-6a6.278,6.278,0,1,0-6.265,6.241A6.16,6.16,0,0,0,173.125,246.189Zm-10.442,0a4.168,4.168,0,1,1,4.177,4.32A4.125,4.125,0,0,1,162.683,246.189Zm24.721,6h1.825l4.081-12h-2.185l-2.9,8.762-3-8.762h-1.584l-3,8.762-2.905-8.762h-2.16l4.081,12h1.824l2.977-8.642Zm9.334,0H198.8v-5.953c0-2.809,1.537-4.393,3.481-4.393,1.68,0,2.833,1.248,2.833,3.264v7.082h2.04V244.8c0-2.976-1.848-4.849-4.537-4.849a4.247,4.247,0,0,0-3.817,2.089v-1.849h-2.064v12Zm14.4-6a6.328,6.328,0,0,0,11.619,3.384l-1.632-1.128a4.25,4.25,0,0,1-7.9-1.848h9.842a5.856,5.856,0,0,0,.024-0.624c-0.024-3.841-2.569-6.026-5.713-6.026A6.083,6.083,0,0,0,211.137,246.189Zm6.17-4.417a3.591,3.591,0,0,1,3.673,3.144h-7.61A3.923,3.923,0,0,1,217.307,241.772Zm8.974,4.417a6.007,6.007,0,0,0,5.882,6.241,5.26,5.26,0,0,0,4.224-2.089v1.849h2.065v-18h-2.065v7.85a5.263,5.263,0,0,0-4.224-2.089A6.007,6.007,0,0,0,226.281,246.189Zm10.275,0a4.1,4.1,0,1,1-4.081-4.345A4.1,4.1,0,0,1,236.556,246.189Zm14.349,6h10.466v-2.113h-8.233v-14.93h-2.233V252.19Zm16.512-16.683a1.45,1.45,0,0,0-1.44-1.465,1.491,1.491,0,0,0-1.488,1.465,1.475,1.475,0,0,0,1.488,1.464A1.434,1.434,0,0,0,267.417,235.507Zm-2.5,16.683h2.064v-12h-2.064v12Zm7.176,0h2.064v-5.953c0-2.713,1.368-4.393,3.313-4.393,1.56,0,2.352,1.344,2.352,3.288v7.058h2.065v-5.953c0-2.713,1.344-4.393,3.289-4.393,1.56,0,2.376,1.344,2.376,3.288v7.058h2.064v-7.37c0-2.928-1.584-4.873-4.2-4.873a4.154,4.154,0,0,0-3.937,2.569,3.774,3.774,0,0,0-3.7-2.569,4.036,4.036,0,0,0-3.625,2.089v-1.849H272.1v12Zm34.034-6a6.278,6.278,0,1,0-6.265,6.241A6.159,6.159,0,0,0,306.131,246.189Zm-10.442,0a4.168,4.168,0,1,1,4.177,4.32A4.125,4.125,0,0,1,295.689,246.189Zm14.591,6h2.065v-5.953c0-2.809,1.536-4.393,3.48-4.393,1.681,0,2.833,1.248,2.833,3.264v7.082H320.7V244.8c0-2.976-1.849-4.849-4.537-4.849a4.245,4.245,0,0,0-3.817,2.089v-1.849H310.28v12Zm21.7-.168v-1.849a4.573,4.573,0,0,1-1.465.24c-1.3,0-1.992-.5-1.992-2.04v-6.289h3.457v-1.9h-3.457v-3.336h-2.065v3.336h-2.544v1.9h2.544v6.553a3.379,3.379,0,0,0,3.673,3.673A5.754,5.754,0,0,0,331.978,252.022Zm2.734-5.833a6.006,6.006,0,0,0,5.881,6.241,5.261,5.261,0,0,0,4.225-2.089v1.849h2.065v-12h-2.065v1.849a5.264,5.264,0,0,0-4.225-2.089A6.007,6.007,0,0,0,334.712,246.189Zm10.274,0a4.1,4.1,0,1,1-4.081-4.345A4.1,4.1,0,0,1,344.986,246.189Zm14.038,6h2.064v-5.953c0-2.713,1.369-4.393,3.313-4.393,1.56,0,2.352,1.344,2.352,3.288v7.058h2.065v-5.953c0-2.713,1.344-4.393,3.289-4.393,1.56,0,2.376,1.344,2.376,3.288v7.058h2.065v-7.37c0-2.928-1.585-4.873-4.2-4.873a4.154,4.154,0,0,0-3.937,2.569,3.774,3.774,0,0,0-3.7-2.569,4.036,4.036,0,0,0-3.625,2.089v-1.849h-2.064v12Zm24.936-16.683a1.45,1.45,0,0,0-1.44-1.465,1.491,1.491,0,0,0-1.488,1.465,1.475,1.475,0,0,0,1.488,1.464A1.434,1.434,0,0,0,383.96,235.507Zm-2.5,16.683h2.064v-12h-2.064v12Zm7.176,0H390.7v-18H388.64v18Zm7.175,0h2.065v-18h-2.065v18Zm16.728-16.683a1.45,1.45,0,0,0-1.44-1.465,1.491,1.491,0,0,0-1.488,1.465,1.475,1.475,0,0,0,1.488,1.464A1.434,1.434,0,0,0,412.543,235.507Zm-2.5,16.683h2.064v-12h-2.064v12Zm7.176,0h2.064v-5.953c0-2.809,1.536-4.393,3.481-4.393,1.68,0,2.832,1.248,2.832,3.264v7.082h2.041V244.8c0-2.976-1.848-4.849-4.537-4.849a4.246,4.246,0,0,0-3.817,2.089v-1.849h-2.064v12Zm22.7,0h2.233V235.147h-2.233V252.19Zm14.114-.168v-1.849a4.573,4.573,0,0,1-1.465.24c-1.3,0-1.992-.5-1.992-2.04v-6.289h3.457v-1.9h-3.457v-3.336h-2.065v3.336h-2.544v1.9h2.544v6.553a3.379,3.379,0,0,0,3.673,3.673A5.754,5.754,0,0,0,454.04,252.022Zm2.734-5.833a6.006,6.006,0,0,0,5.881,6.241,5.261,5.261,0,0,0,4.225-2.089v1.849h2.065v-12H466.88v1.849a5.264,5.264,0,0,0-4.225-2.089A6.007,6.007,0,0,0,456.774,246.189Zm10.274,0a4.1,4.1,0,1,1-4.081-4.345A4.1,4.1,0,0,1,467.048,246.189Zm6.982,6h2.064v-18H474.03v18Zm10.369,5.017,7.873-17.02h-2.3l-4.105,9.1-4.129-9.1h-2.28l5.257,11.379-2.617,5.641H484.4Zm12.527-5.545a2.047,2.047,0,0,0,.337-1.081,1.777,1.777,0,1,0-3.553,0,1.786,1.786,0,0,0,.984,1.609l-1.608,3.432h1.368Zm11.832,0.528h2.064v-6l6.5,6h2.785l-7.226-6.7,5.906-5.3h-2.737l-5.233,4.681V234.186h-2.064v18Zm14.135,0h2.065v-5.953c0-2.809,1.536-4.393,3.48-4.393,1.681,0,2.833,1.248,2.833,3.264v7.082h2.04V244.8c0-2.976-1.848-4.849-4.537-4.849a4.244,4.244,0,0,0-3.816,2.089v-1.849h-2.065v12Zm26.93-6a6.277,6.277,0,1,0-6.265,6.241A6.159,6.159,0,0,0,549.823,246.189Zm-10.442,0a4.168,4.168,0,1,1,4.177,4.32A4.126,4.126,0,0,1,539.381,246.189Zm24.722,6h1.824l4.081-12h-2.184l-2.9,8.762-3-8.762h-1.584l-3,8.762-2.9-8.762h-2.161l4.081,12h1.825l2.976-8.642Zm9.333,0H575.5v-5.953c0-2.809,1.536-4.393,3.481-4.393,1.68,0,2.832,1.248,2.832,3.264v7.082h2.041V244.8c0-2.976-1.849-4.849-4.537-4.849a4.245,4.245,0,0,0-3.817,2.089v-1.849h-2.065v12Zm23.088,0h2.065V242.084h3.481v-1.9h-3.481v-2.208c0-1.512.672-2.04,1.992-2.04a4.844,4.844,0,0,1,1.489.24v-1.825a5.464,5.464,0,0,0-1.873-.312,3.429,3.429,0,0,0-3.673,3.721v2.424H593.98v1.9h2.544V252.19Zm20.283-6a6.278,6.278,0,1,0-6.266,6.241A6.16,6.16,0,0,0,616.807,246.189Zm-10.442,0a4.167,4.167,0,1,1,4.176,4.32A4.125,4.125,0,0,1,606.365,246.189Zm14.591,6h2.064v-5.953c0-2.809,1.657-4.129,3.169-4.129a3.017,3.017,0,0,1,1.128.192v-2.137a4.276,4.276,0,0,0-.936-0.1,3.572,3.572,0,0,0-3.361,2.449v-2.329h-2.064v12Zm18.936-16.683a1.45,1.45,0,0,0-1.44-1.465,1.491,1.491,0,0,0-1.488,1.465,1.475,1.475,0,0,0,1.488,1.464A1.434,1.434,0,0,0,639.892,235.507Zm-2.5,16.683h2.064v-12H637.4v12Zm13.681-.168v-1.849a4.562,4.562,0,0,1-1.464.24c-1.3,0-1.993-.5-1.993-2.04v-6.289h3.457v-1.9H647.62v-3.336h-2.064v3.336h-2.545v1.9h2.545v6.553a3.378,3.378,0,0,0,3.673,3.673A5.743,5.743,0,0,0,651.077,252.022Zm11.616-3.169c0-1.8-1.128-2.952-3.169-3.625l-1.3-.432c-1.416-.456-1.848-0.912-1.848-1.68,0-.888.888-1.392,2.016-1.392a3.244,3.244,0,0,1,2.545,1.248l1.344-1.3a4.655,4.655,0,0,0-3.841-1.729c-2.376,0-4.057,1.321-4.057,3.265,0,1.68,1.033,2.857,2.977,3.481l1.176,0.384c1.561,0.5,2.137,1.08,2.137,1.92,0,1.032-.937,1.632-2.113,1.632a3.221,3.221,0,0,1-3.072-1.9l-1.681.912a4.767,4.767,0,0,0,4.7,2.785C660.941,252.43,662.693,251.206,662.693,248.853ZM42.348,280.989h2.065v-18H42.348v18Zm18.77-6a6.277,6.277,0,1,0-6.265,6.241A6.159,6.159,0,0,0,61.119,274.988Zm-10.442,0a4.168,4.168,0,1,1,4.177,4.321A4.125,4.125,0,0,1,50.676,274.988Zm14.591,6h2.064v-5.953c0-2.809,1.536-4.393,3.481-4.393,1.68,0,2.833,1.248,2.833,3.265v7.081h2.041V273.6c0-2.977-1.848-4.849-4.537-4.849a4.245,4.245,0,0,0-3.817,2.088v-1.848H65.268v12Zm26.522-.7V268.987H89.725v1.848a5.107,5.107,0,0,0-4.177-2.088,6.114,6.114,0,0,0,0,12.218,5.126,5.126,0,0,0,4.177-2.112v1.368a3.837,3.837,0,0,1-4.009,4.153,5.136,5.136,0,0,1-4.2-2.017l-1.44,1.44a7.123,7.123,0,0,0,5.665,2.449C89.149,286.246,91.79,284.3,91.79,280.293Zm-10.01-5.449a4.059,4.059,0,1,1,4.057,4.2A4,4,0,0,1,81.78,274.844Zm22.873,2.808c0-1.8-1.128-2.952-3.169-3.624l-1.3-.432c-1.416-.457-1.848-0.913-1.848-1.681,0-.888.888-1.392,2.016-1.392a3.246,3.246,0,0,1,2.545,1.248l1.344-1.3a4.656,4.656,0,0,0-3.841-1.728c-2.376,0-4.057,1.32-4.057,3.264,0,1.681,1.032,2.857,2.977,3.481l1.176,0.384c1.56,0.5,2.137,1.08,2.137,1.92,0,1.033-.937,1.633-2.113,1.633a3.221,3.221,0,0,1-3.073-1.9l-1.68.912a4.767,4.767,0,0,0,4.7,2.785C102.9,281.229,104.653,280.005,104.653,277.652Zm10.512,3.169v-1.848a4.573,4.573,0,0,1-1.465.24c-1.3,0-1.992-.5-1.992-2.041v-6.289h3.457v-1.9h-3.457V265.65h-2.065v3.337H107.1v1.9h2.544v6.553a3.379,3.379,0,0,0,3.673,3.673A5.754,5.754,0,0,0,115.165,280.821Zm2.734-5.833a6.006,6.006,0,0,0,5.881,6.241,5.263,5.263,0,0,0,4.225-2.088v1.848h2.065v-12h-2.065v1.848a5.263,5.263,0,0,0-4.225-2.088A6.006,6.006,0,0,0,117.9,274.988Zm10.274,0a4.1,4.1,0,1,1-4.081-4.345A4.1,4.1,0,0,1,128.173,274.988Zm6.982,6h2.065v-5.953c0-2.809,1.536-4.393,3.48-4.393,1.681,0,2.833,1.248,2.833,3.265v7.081h2.04V273.6c0-2.977-1.848-4.849-4.537-4.849a4.243,4.243,0,0,0-3.816,2.088v-1.848h-2.065v12Zm14.4-6a6.006,6.006,0,0,0,5.881,6.241,5.264,5.264,0,0,0,4.225-2.088v1.848h2.064v-18h-2.064v7.849a5.264,5.264,0,0,0-4.225-2.088A6.005,6.005,0,0,0,149.555,274.988Zm10.274,0a4.1,4.1,0,1,1-4.081-4.345A4.1,4.1,0,0,1,159.829,274.988Zm9.478-10.682a1.449,1.449,0,0,0-1.44-1.464,1.492,1.492,0,0,0-1.489,1.464,1.476,1.476,0,0,0,1.489,1.464A1.434,1.434,0,0,0,169.307,264.306Zm-2.5,16.683h2.064v-12h-2.064v12Zm7.175,0h2.065v-5.953c0-2.809,1.536-4.393,3.481-4.393,1.68,0,2.832,1.248,2.832,3.265v7.081h2.041V273.6c0-2.977-1.849-4.849-4.537-4.849a4.244,4.244,0,0,0-3.817,2.088v-1.848h-2.065v12Zm26.523-.7V268.987h-2.065v1.848a5.106,5.106,0,0,0-4.177-2.088,6.114,6.114,0,0,0,0,12.218,5.125,5.125,0,0,0,4.177-2.112v1.368a3.837,3.837,0,0,1-4.009,4.153,5.138,5.138,0,0,1-4.2-2.017l-1.44,1.44a7.124,7.124,0,0,0,5.665,2.449C197.868,286.246,200.509,284.3,200.509,280.293ZM190.5,274.844a4.059,4.059,0,1,1,4.057,4.2A4,4,0,0,1,190.5,274.844Zm33.05,3.168-1.8-1.008A4.071,4.071,0,0,1,218,279.309a4.323,4.323,0,0,1,0-8.642,4.07,4.07,0,0,1,3.745,2.3l1.8-1.008A6.216,6.216,0,0,0,218,268.747a6.241,6.241,0,1,0,0,12.482A6.215,6.215,0,0,0,223.548,278.012ZM239,274.988a6.278,6.278,0,1,0-6.266,6.241A6.159,6.159,0,0,0,239,274.988Zm-10.442,0a4.167,4.167,0,1,1,4.176,4.321A4.125,4.125,0,0,1,228.562,274.988Zm14.591,6h2.064v-5.953c0-2.713,1.369-4.393,3.313-4.393,1.561,0,2.353,1.344,2.353,3.289v7.057h2.064v-5.953c0-2.713,1.344-4.393,3.289-4.393,1.56,0,2.376,1.344,2.376,3.289v7.057h2.065V273.62c0-2.929-1.585-4.873-4.2-4.873a4.154,4.154,0,0,0-3.937,2.568,3.773,3.773,0,0,0-3.7-2.568,4.036,4.036,0,0,0-3.625,2.088v-1.848h-2.064v12Zm22.44,0h2.064v-5.953c0-2.713,1.369-4.393,3.313-4.393,1.56,0,2.353,1.344,2.353,3.289v7.057h2.064v-5.953c0-2.713,1.344-4.393,3.289-4.393,1.56,0,2.376,1.344,2.376,3.289v7.057h2.065V273.62c0-2.929-1.585-4.873-4.2-4.873a4.153,4.153,0,0,0-3.937,2.568,3.773,3.773,0,0,0-3.7-2.568,4.035,4.035,0,0,0-3.625,2.088v-1.848h-2.064v12Zm24.936-16.683a1.449,1.449,0,0,0-1.44-1.464,1.491,1.491,0,0,0-1.488,1.464,1.475,1.475,0,0,0,1.488,1.464A1.434,1.434,0,0,0,290.529,264.306Zm-2.5,16.683H290.1v-12h-2.064v12Zm13.681-.168v-1.848a4.562,4.562,0,0,1-1.464.24c-1.3,0-1.993-.5-1.993-2.041v-6.289h3.457v-1.9h-3.457V265.65h-2.064v3.337h-2.545v1.9h2.545v6.553a3.378,3.378,0,0,0,3.673,3.673A5.743,5.743,0,0,0,301.714,280.821Zm3.839,0.168h2.064v-5.953c0-2.713,1.368-4.393,3.313-4.393,1.56,0,2.352,1.344,2.352,3.289v7.057h2.065v-5.953c0-2.713,1.344-4.393,3.288-4.393,1.561,0,2.377,1.344,2.377,3.289v7.057h2.064V273.62c0-2.929-1.584-4.873-4.2-4.873a4.153,4.153,0,0,0-3.936,2.568,3.774,3.774,0,0,0-3.7-2.568,4.034,4.034,0,0,0-3.625,2.088v-1.848h-2.064v12Zm21.5-6a6.328,6.328,0,0,0,11.619,3.384l-1.633-1.128a4.249,4.249,0,0,1-7.9-1.848h9.842a5.856,5.856,0,0,0,.024-0.624c-0.024-3.841-2.569-6.025-5.713-6.025A6.082,6.082,0,0,0,327.056,274.988Zm6.17-4.417a3.59,3.59,0,0,1,3.672,3.145h-7.609A3.923,3.923,0,0,1,333.226,270.571Zm9.91,10.418H345.2v-5.953c0-2.809,1.536-4.393,3.48-4.393,1.681,0,2.833,1.248,2.833,3.265v7.081h2.04V273.6c0-2.977-1.848-4.849-4.537-4.849a4.243,4.243,0,0,0-3.816,2.088v-1.848h-2.065v12Zm21.7-.168v-1.848a4.562,4.562,0,0,1-1.464.24c-1.3,0-1.992-.5-1.992-2.041v-6.289h3.456v-1.9h-3.456V265.65h-2.065v3.337h-2.544v1.9h2.544v6.553a3.379,3.379,0,0,0,3.673,3.673A5.743,5.743,0,0,0,364.833,280.821Zm16.992,0v-1.848a4.562,4.562,0,0,1-1.464.24c-1.3,0-1.993-.5-1.993-2.041v-6.289h3.457v-1.9h-3.457V265.65H376.3v3.337h-2.545v1.9H376.3v6.553a3.378,3.378,0,0,0,3.673,3.673A5.743,5.743,0,0,0,381.825,280.821Zm15.265-5.833a6.277,6.277,0,1,0-6.265,6.241A6.159,6.159,0,0,0,397.09,274.988Zm-10.442,0a4.168,4.168,0,1,1,4.177,4.321A4.126,4.126,0,0,1,386.648,274.988Zm27.745,5.833v-1.848a4.564,4.564,0,0,1-1.465.24c-1.3,0-1.992-.5-1.992-2.041v-6.289h3.457v-1.9h-3.457V265.65h-2.064v3.337h-2.545v1.9h2.545v6.553a3.378,3.378,0,0,0,3.672,3.673A5.744,5.744,0,0,0,414.393,280.821Zm2.734-5.833a6.328,6.328,0,0,0,11.619,3.384l-1.632-1.128a4.25,4.25,0,0,1-7.9-1.848h9.842a5.856,5.856,0,0,0,.024-0.624c-0.024-3.841-2.569-6.025-5.713-6.025A6.082,6.082,0,0,0,417.127,274.988Zm6.17-4.417a3.59,3.59,0,0,1,3.672,3.145H419.36A3.923,3.923,0,0,1,423.3,270.571Zm7.678,10.418h2.569l3.649-4.537,3.648,4.537h2.545l-4.9-6.073L443,268.987h-2.521l-3.288,4.321-3.313-4.321h-2.5l4.513,5.929Zm22.226-.168v-1.848a4.562,4.562,0,0,1-1.464.24c-1.3,0-1.993-.5-1.993-2.041v-6.289H453.2v-1.9h-3.457V265.65H447.68v3.337h-2.545v1.9h2.545v6.553a3.378,3.378,0,0,0,3.673,3.673A5.743,5.743,0,0,0,453.2,280.821Zm6.335-16.515a1.449,1.449,0,0,0-1.44-1.464,1.492,1.492,0,0,0-1.489,1.464,1.476,1.476,0,0,0,1.489,1.464A1.434,1.434,0,0,0,459.536,264.306Zm-2.5,16.683H459.1v-12H457.04v12Zm7.175,0h2.065v-18h-2.065v18Zm6.24-6a6.328,6.328,0,0,0,11.619,3.384l-1.633-1.128a4.25,4.25,0,0,1-7.9-1.848h9.843a5.856,5.856,0,0,0,.024-0.624c-0.024-3.841-2.569-6.025-5.714-6.025A6.082,6.082,0,0,0,470.455,274.988Zm6.169-4.417a3.591,3.591,0,0,1,3.673,3.145h-7.61A3.925,3.925,0,0,1,476.624,270.571Zm23.064,10.25v-1.848a4.562,4.562,0,0,1-1.464.24c-1.3,0-1.993-.5-1.993-2.041v-6.289h3.457v-1.9h-3.457V265.65h-2.064v3.337h-2.545v1.9h2.545v6.553a3.378,3.378,0,0,0,3.673,3.673A5.743,5.743,0,0,0,499.688,280.821Zm3.839,0.168h2.064v-5.953c0-2.809,1.657-4.129,3.169-4.129a3.017,3.017,0,0,1,1.128.192v-2.136a4.276,4.276,0,0,0-.936-0.1,3.571,3.571,0,0,0-3.361,2.448v-2.328h-2.064v12Zm8.64-6a6.006,6.006,0,0,0,5.881,6.241,5.264,5.264,0,0,0,4.225-2.088v1.848h2.064v-12h-2.064v1.848a5.264,5.264,0,0,0-4.225-2.088A6.005,6.005,0,0,0,512.167,274.988Zm10.274,0a4.1,4.1,0,1,1-4.081-4.345A4.1,4.1,0,0,1,522.441,274.988Zm6.045,0a6.007,6.007,0,0,0,5.882,6.241,5.262,5.262,0,0,0,4.224-2.088v1.848h2.065v-18h-2.065v7.849a5.262,5.262,0,0,0-4.224-2.088A6.006,6.006,0,0,0,528.486,274.988Zm10.274,0a4.1,4.1,0,1,1-4.08-4.345A4.1,4.1,0,0,1,538.76,274.988Zm9.479-10.682a1.45,1.45,0,0,0-1.441-1.464,1.491,1.491,0,0,0-1.488,1.464,1.475,1.475,0,0,0,1.488,1.464A1.435,1.435,0,0,0,548.239,264.306Zm-2.5,16.683h2.065v-12h-2.065v12Zm13.681-.168v-1.848a4.562,4.562,0,0,1-1.464.24c-1.3,0-1.992-.5-1.992-2.041v-6.289h3.456v-1.9h-3.456V265.65H553.9v3.337h-2.544v1.9H553.9v6.553a3.379,3.379,0,0,0,3.673,3.673A5.743,5.743,0,0,0,559.423,280.821Zm6.336-16.515a1.45,1.45,0,0,0-1.441-1.464,1.491,1.491,0,0,0-1.488,1.464,1.475,1.475,0,0,0,1.488,1.464A1.435,1.435,0,0,0,565.759,264.306Zm-2.5,16.683h2.064v-12h-2.064v12Zm18.77-6a6.277,6.277,0,1,0-6.265,6.241A6.159,6.159,0,0,0,582.032,274.988Zm-10.442,0a4.168,4.168,0,1,1,4.177,4.321A4.125,4.125,0,0,1,571.59,274.988Zm14.592,6h2.064v-5.953c0-2.809,1.536-4.393,3.481-4.393,1.68,0,2.832,1.248,2.832,3.265v7.081H596.6V273.6c0-2.977-1.849-4.849-4.537-4.849a4.244,4.244,0,0,0-3.817,2.088v-1.848h-2.064v12Zm23.113-3.337c0-1.8-1.128-2.952-3.169-3.624l-1.3-.432c-1.416-.457-1.848-0.913-1.848-1.681,0-.888.888-1.392,2.016-1.392a3.246,3.246,0,0,1,2.545,1.248l1.344-1.3a4.656,4.656,0,0,0-3.841-1.728c-2.376,0-4.057,1.32-4.057,3.264,0,1.681,1.032,2.857,2.977,3.481l1.176,0.384c1.56,0.5,2.136,1.08,2.136,1.92,0,1.033-.936,1.633-2.112,1.633a3.221,3.221,0,0,1-3.073-1.9l-1.68.912a4.767,4.767,0,0,0,4.705,2.785C607.543,281.229,609.295,280.005,609.295,277.652Zm7.007,1.729a1.777,1.777,0,1,0-1.777,1.8A1.809,1.809,0,0,0,616.3,279.381Z"/>
  <rect id="Rectangle_4_copy_4" data-name="Rectangle 4 copy 4" x="39" y="348.875" width="122.406" height="3.656"/>
  <path id="Shop_now" data-name="Shop now" class="cls-2" d="M44.217,341.954c2.706,0,4.564-1.653,4.582-4.022,0.018-1.966-1.19-3.215-3.048-3.894l-0.9-.331c-1.353-.5-1.984-0.808-1.984-1.506,0-.68.776-0.992,1.551-0.992a2.829,2.829,0,0,1,2.219,1.084l1.876-2.02a5.3,5.3,0,0,0-4.131-1.8c-2.561,0-4.419,1.487-4.419,4.022,0,1.782,1.154,3.049,3.229,3.765l0.9,0.313c1.281,0.44,1.786.9,1.786,1.561,0,0.624-.6,1.083-1.551,1.083a3.337,3.337,0,0,1-2.652-1.487l-2.2,1.892A5.582,5.582,0,0,0,44.217,341.954Zm9.726-.22H56.81v-5.161h5.159v5.161h2.868V328.693H61.969V333.8H56.81v-5.106H53.942v13.041Zm22.66,0.22a6.742,6.742,0,1,0-6.62-6.741A6.7,6.7,0,0,0,76.6,341.954Zm0-2.828a3.918,3.918,0,1,1,3.716-3.913A3.837,3.837,0,0,1,76.6,339.126Zm20.622-5.97a4.4,4.4,0,0,0-4.51-4.463H88.367v13.041h2.868V337.6h1.479A4.384,4.384,0,0,0,97.224,333.156Zm-2.778,0a1.7,1.7,0,0,1-1.768,1.708H91.235v-3.416h1.443A1.689,1.689,0,0,1,94.446,333.156Zm25.979,8.578V328.693h-2.886v8.045l-6.223-8.045h-2.472v13.041h2.869V333.67l6.241,8.064h2.471Zm11.765,0.22a6.742,6.742,0,1,0-6.62-6.741A6.7,6.7,0,0,0,132.19,341.954Zm0-2.828a3.918,3.918,0,1,1,3.716-3.913A3.837,3.837,0,0,1,132.19,339.126Zm21.686,2.608H156.6l2.976-13.041h-3.067l-1.749,8.265-3.608-8.485-3.589,8.485-1.75-8.265h-3.067l2.959,13.041h2.723l2.724-6.392Z"/>
</svg>
