<svg id="Copy_copy_11" data-name="Copy copy 11" xmlns="http://www.w3.org/2000/svg" width="768" height="401" viewBox="0 0 768 401">
  <metadata><?xpacket begin="﻿" id="W5M0MpCehiHzreSzNTczkc9d"?>
<x:xmpmeta xmlns:x="adobe:ns:meta/" x:xmptk="Adobe XMP Core 5.6-c138 79.159824, 2016/09/14-01:09:01        ">
   <rdf:RDF xmlns:rdf="http://www.w3.org/1999/02/22-rdf-syntax-ns#">
      <rdf:Description rdf:about=""/>
   </rdf:RDF>
</x:xmpmeta>
                                                                                                    
                                                                                                    
                                                                                                    
                                                                                                    
                                                                                                    
                                                                                                    
                                                                                                    
                                                                                                    
                                                                                                    
                                                                                                    
                                                                                                    
                                                                                                    
                                                                                                    
                                                                                                    
                                                                                                    
                                                                                                    
                                                                                                    
                                                                                                    
                                                                                                    
                                                                                                    
                           
<?xpacket end="w"?></metadata>
<defs>
    <style>
      .cls-1 {
        fill: #fff;
      }

      .cls-2 {
        fill-rule: evenodd;
      }
    </style>
  </defs>
  <rect id="Rectangle_109_copy_10" data-name="Rectangle 109 copy 10" class="cls-1" width="768" height="401"/>
  <path id="SUEDE_CLASSIC_TRENCH_COAT_Suede_b._1980_Our_first_trench_app" data-name="SUEDE CLASSIC TRENCH COAT Suede, b. 1980   Our first trench app" class="cls-2" d="M51.424,67.165c5.76,0,9.715-3.456,9.753-8.409,0.038-4.108-2.534-6.719-6.489-8.14l-1.92-.691c-2.88-1.037-4.224-1.689-4.224-3.148,0-1.421,1.651-2.073,3.3-2.073a6.064,6.064,0,0,1,4.723,2.265l3.993-4.224a11.376,11.376,0,0,0-8.793-3.763c-5.452,0-9.407,3.11-9.407,8.409,0,3.724,2.457,6.374,6.873,7.871l1.92,0.653c2.726,0.921,3.8,1.881,3.8,3.264,0,1.305-1.267,2.265-3.3,2.265a7.132,7.132,0,0,1-5.644-3.11l-4.684,3.955A11.954,11.954,0,0,0,51.424,67.165Zm26.8,0c6.528,0,11.212-4.454,11.212-11.25V39.443H83.333V55.992c0,3.264-2.073,5.26-5.107,5.26s-5.107-2-5.107-5.26V39.443H67.014V55.915C67.014,62.711,71.661,67.165,78.226,67.165ZM96.812,66.7h17.279V60.868H102.917V55.992h8.87V50.156h-8.87V45.279h11.174V39.443H96.812V66.7Zm23.847,0h9.292a13.633,13.633,0,1,0,0-27.261h-9.292V66.7Zm6.1-5.606V45.049h3.187a7.694,7.694,0,0,1,7.718,8.025,7.694,7.694,0,0,1-7.718,8.025h-3.187ZM150.035,66.7h17.278V60.868H156.14V55.992h8.869V50.156H156.14V45.279h11.173V39.443H150.035V66.7ZM196.8,67.165a14.092,14.092,0,0,0,12.748-7.449L204.176,56.8a8.179,8.179,0,1,1,0-7.449l5.376-2.918A14.213,14.213,0,1,0,196.8,67.165Zm18.241-.461h17.394V60.868H221.15V39.443h-6.105V66.7Zm20.2,0h6.374l2.419-5.76h11.289l2.419,5.76h6.374L252.445,39.443h-5.529Zm11.02-11.058,3.418-8.217,3.417,8.217h-6.835Zm30.029,11.519c5.76,0,9.715-3.456,9.753-8.409,0.038-4.108-2.534-6.719-6.489-8.14l-1.92-.691c-2.88-1.037-4.224-1.689-4.224-3.148,0-1.421,1.651-2.073,3.3-2.073a6.064,6.064,0,0,1,4.723,2.265l3.994-4.224a11.377,11.377,0,0,0-8.793-3.763c-5.453,0-9.408,3.11-9.408,8.409,0,3.724,2.458,6.374,6.873,7.871l1.92,0.653c2.727,0.921,3.8,1.881,3.8,3.264,0,1.305-1.267,2.265-3.3,2.265a7.133,7.133,0,0,1-5.644-3.11l-4.684,3.955A11.953,11.953,0,0,0,276.292,67.165Zm24.038,0c5.76,0,9.715-3.456,9.753-8.409,0.038-4.108-2.534-6.719-6.489-8.14l-1.92-.691c-2.88-1.037-4.224-1.689-4.224-3.148,0-1.421,1.651-2.073,3.3-2.073a6.064,6.064,0,0,1,4.723,2.265l3.994-4.224a11.377,11.377,0,0,0-8.793-3.763c-5.453,0-9.408,3.11-9.408,8.409,0,3.724,2.458,6.374,6.873,7.871l1.92,0.653c2.726,0.921,3.8,1.881,3.8,3.264,0,1.305-1.268,2.265-3.3,2.265a7.133,7.133,0,0,1-5.644-3.11l-4.684,3.955A11.953,11.953,0,0,0,300.33,67.165Zm15.9-.461h6.105V39.443h-6.105V66.7Zm26.341,0.461a14.092,14.092,0,0,0,12.748-7.449L349.941,56.8a8.179,8.179,0,1,1,0-7.449l5.376-2.918A14.213,14.213,0,1,0,342.569,67.165Zm32.41-.461h6.143V45.279h7.027V39.443h-20.12v5.836h6.95V66.7Zm18.816,0h6.1V55.454h1L409.96,66.7h7.334l-9.638-12.018c3.456-1.229,5.338-3.494,5.338-7.026a8.049,8.049,0,0,0-8.448-8.217H393.8V66.7Zm6.1-16.434V45.049h3.917c1.8,0,3.11.96,3.11,2.611,0,1.574-1.306,2.611-3.11,2.611H399.9ZM421.135,66.7h17.279V60.868H427.24V55.992h8.87V50.156h-8.87V45.279h11.174V39.443H421.135V66.7Zm48.5,0V39.443h-6.144V56.261L450.242,39.443h-5.26V66.7h6.1V49.848L464.372,66.7h5.261Zm20.237,0.461a14.092,14.092,0,0,0,12.748-7.449L497.242,56.8a8.179,8.179,0,1,1,0-7.449l5.376-2.918A14.213,14.213,0,1,0,489.87,67.165Zm18.241-.461h6.105V55.915H525.2V66.7H531.3V39.443H525.2V50.117H514.216V39.443h-6.105V66.7Zm53.8,0.461a14.093,14.093,0,0,0,12.748-7.449L569.28,56.8a8.179,8.179,0,1,1,0-7.449l5.376-2.918A14.213,14.213,0,1,0,561.908,67.165Zm30.8,0a14.091,14.091,0,1,0-14.092-14.091A14.125,14.125,0,0,0,592.705,67.165Zm0-5.913a8.183,8.183,0,1,1,7.909-8.178A8.089,8.089,0,0,1,592.705,61.252Zm16.09,5.452h6.374l2.419-5.76h11.288l2.419,5.76h6.374L626,39.443h-5.529Zm11.02-11.058,3.417-8.217,3.417,8.217h-6.834ZM644.621,66.7h6.144V45.279h7.027V39.443h-20.12v5.836h6.949V66.7ZM41.354,97.241c0.977,1.927,3.485,3.379,6.575,3.379,3.485,0,5.967-2.006,5.967-5.2,0-2.772-1.584-4.357-4.357-5.413l-2.271-.871c-1.9-.713-2.825-1.426-2.825-3.01,0-1.558,1.531-2.587,3.38-2.587a4.639,4.639,0,0,1,3.723,1.848l1.8-1.584a6.838,6.838,0,0,0-5.466-2.561c-3.353,0-5.862,1.927-5.862,4.99,0,2.561,1.32,4.092,4.251,5.175l2.482,0.95c1.743,0.66,2.693,1.663,2.693,3.168,0,1.743-1.531,2.8-3.459,2.8a5.238,5.238,0,0,1-4.647-2.561Zm16.9-2.033c0,3.274,1.954,5.359,4.858,5.359a4.542,4.542,0,0,0,4.066-2.3V100.3h2.271V87.1H67.175V93.65c0,3.036-1.611,4.832-3.67,4.832-1.822,0-2.984-1.4-2.984-3.617V87.1H58.25v8.106Zm15.761-1.5A6.96,6.96,0,0,0,86.79,97.425l-1.8-1.241a4.674,4.674,0,0,1-8.687-2.033H87.133a6.444,6.444,0,0,0,.026-0.686c-0.026-4.225-2.825-6.627-6.284-6.627A6.69,6.69,0,0,0,74.011,93.7ZM80.8,88.844a3.95,3.95,0,0,1,4.04,3.459h-8.37A4.316,4.316,0,0,1,80.8,88.844ZM90.669,93.7a6.606,6.606,0,0,0,6.469,6.864,5.789,5.789,0,0,0,4.647-2.3V100.3h2.271V80.5h-2.271v8.634a5.789,5.789,0,0,0-4.647-2.3A6.606,6.606,0,0,0,90.669,93.7Zm11.3,0a4.51,4.51,0,1,1-4.489-4.779A4.508,4.508,0,0,1,101.97,93.7Zm6.651,0A6.96,6.96,0,0,0,121.4,97.425l-1.8-1.241a4.674,4.674,0,0,1-8.687-2.033h10.825a6.3,6.3,0,0,0,.027-0.686c-0.027-4.225-2.825-6.627-6.284-6.627A6.689,6.689,0,0,0,108.621,93.7Zm6.785-4.858a3.95,3.95,0,0,1,4.04,3.459h-8.37A4.316,4.316,0,0,1,115.406,88.844Zm13.728,10.878a2.258,2.258,0,0,0,.369-1.188,1.954,1.954,0,1,0-3.907,0,1.965,1.965,0,0,0,1.082,1.769l-1.769,3.776h1.5Zm15.285-1.452a5.789,5.789,0,0,0,4.647,2.3,6.877,6.877,0,0,0,0-13.729,5.789,5.789,0,0,0-4.647,2.3V80.5h-2.271v19.8h2.271V98.27Zm8.792-4.568a4.5,4.5,0,1,1-4.488-4.779A4.507,4.507,0,0,1,153.211,93.7Zm9.767,4.832a1.954,1.954,0,1,0-1.954,1.981A1.989,1.989,0,0,0,162.978,98.534Zm14.229,1.769h2.271V81.557h-4.04L173.59,83.8h3.617v16.5Zm8.025,0h2.905L195,92.2a7.2,7.2,0,0,0,2.112-4.779,6.352,6.352,0,0,0-12.7.079,6.057,6.057,0,0,0,5.862,6.02,3.365,3.365,0,0,0,.739-0.053Zm1.5-12.831a4.027,4.027,0,1,1,4.014,4.04A3.985,3.985,0,0,1,186.737,87.472Zm26.428,7.208a5.238,5.238,0,0,0-2.93-4.911,4.39,4.39,0,0,0,1.9-3.7c0-2.8-2.166-4.832-5.255-4.832-3.01,0-5.281,2.033-5.281,4.832a4.372,4.372,0,0,0,1.954,3.7,5.239,5.239,0,0,0-2.983,4.911c0,3.406,2.64,5.887,6.31,5.887C210.6,100.567,213.165,98.086,213.165,94.68Zm-9.32-8.555a2.79,2.79,0,0,1,3.036-2.746,2.739,2.739,0,0,1,3.01,2.746,2.8,2.8,0,0,1-3.01,2.772A2.857,2.857,0,0,1,203.845,86.125Zm-0.977,8.555a3.722,3.722,0,0,1,4.013-3.749,3.744,3.744,0,1,1,0,7.472A3.731,3.731,0,0,1,202.868,94.68Zm27.721-1.162V88.29c0-4.145-2.8-7.05-6.653-7.05s-6.628,2.9-6.628,7.05v5.228c0,4.172,2.773,7.049,6.628,7.049S230.589,97.69,230.589,93.518Zm-11.01,0V88.29c0-3.036,1.822-4.832,4.357-4.832,2.561,0,4.383,1.8,4.383,4.832v5.228c0,3.036-1.822,4.832-4.383,4.832C221.4,98.35,219.579,96.554,219.579,93.518ZM59.1,144.58a8.81,8.81,0,1,0-8.81,8.81A8.724,8.724,0,0,0,59.1,144.58Zm-15.363,0a6.567,6.567,0,1,1,6.553,6.7A6.534,6.534,0,0,1,43.741,144.58Zm19.416,3.889c0,2.977,1.776,4.873,4.417,4.873a4.13,4.13,0,0,0,3.7-2.088V153.1h2.065v-12H71.27v5.953c0,2.76-1.464,4.393-3.337,4.393-1.656,0-2.713-1.273-2.713-3.289V141.1H63.156v7.369ZM78.42,153.1h2.065v-5.953c0-2.809,1.656-4.129,3.169-4.129a3.018,3.018,0,0,1,1.128.192v-2.136a4.279,4.279,0,0,0-.936-0.1,3.571,3.571,0,0,0-3.361,2.448V141.1H78.42v12Zm17.136,0h2.064V143H101.1v-1.9H97.621v-2.209c0-1.512.672-2.04,1.993-2.04a4.834,4.834,0,0,1,1.489.24v-1.824a5.457,5.457,0,0,0-1.873-.312,3.427,3.427,0,0,0-3.673,3.72V141.1H93.012V143h2.545V153.1Zm10.3-16.683a1.45,1.45,0,0,0-1.441-1.464,1.491,1.491,0,0,0-1.488,1.464,1.475,1.475,0,0,0,1.488,1.464A1.435,1.435,0,0,0,105.855,136.419Zm-2.5,16.683h2.065v-12h-2.065v12Zm7.15,0h2.065v-5.953c0-2.809,1.656-4.129,3.168-4.129a3.017,3.017,0,0,1,1.128.192v-2.136a4.276,4.276,0,0,0-.936-0.1,3.57,3.57,0,0,0-3.36,2.448V141.1h-2.065v12Zm17.546-3.337c0-1.8-1.128-2.952-3.169-3.624l-1.3-.432c-1.416-.456-1.848-0.913-1.848-1.681,0-.888.888-1.392,2.016-1.392a3.244,3.244,0,0,1,2.545,1.248l1.344-1.3a4.656,4.656,0,0,0-3.841-1.728c-2.376,0-4.057,1.32-4.057,3.264,0,1.681,1.032,2.857,2.977,3.481l1.176,0.384c1.56,0.5,2.137,1.08,2.137,1.92,0,1.033-.937,1.633-2.113,1.633a3.222,3.222,0,0,1-3.073-1.9l-1.68.913a4.768,4.768,0,0,0,4.7,2.784C126.3,153.342,128.054,152.118,128.054,149.765Zm10.512,3.169v-1.848a4.568,4.568,0,0,1-1.465.24c-1.3,0-1.992-.5-1.992-2.041V143h3.457v-1.9h-3.457v-3.337h-2.065V141.1H130.5V143h2.544v6.553a3.379,3.379,0,0,0,3.673,3.673A5.749,5.749,0,0,0,138.566,152.934Zm16.991,0v-1.848a4.562,4.562,0,0,1-1.464.24c-1.3,0-1.992-.5-1.992-2.041V143h3.456v-1.9H152.1v-3.337h-2.065V141.1h-2.544V143h2.544v6.553a3.378,3.378,0,0,0,3.673,3.673A5.743,5.743,0,0,0,155.557,152.934ZM159.4,153.1h2.064v-5.953c0-2.809,1.657-4.129,3.169-4.129a3.017,3.017,0,0,1,1.128.192v-2.136a4.276,4.276,0,0,0-.936-0.1,3.571,3.571,0,0,0-3.361,2.448V141.1H159.4v12Zm8.616-6a6.328,6.328,0,0,0,11.618,3.385L178,149.357a4.25,4.25,0,0,1-7.9-1.848h9.842a5.856,5.856,0,0,0,.024-0.624c-0.024-3.841-2.568-6.025-5.713-6.025A6.081,6.081,0,0,0,168.012,147.1Zm6.169-4.417a3.591,3.591,0,0,1,3.673,3.145h-7.61A3.924,3.924,0,0,1,174.181,142.684Zm9.911,10.418h2.064v-5.953c0-2.809,1.537-4.393,3.481-4.393,1.68,0,2.833,1.248,2.833,3.265V153.1h2.04v-7.393c0-2.977-1.848-4.849-4.537-4.849a4.245,4.245,0,0,0-3.817,2.088V141.1h-2.064v12Zm26.234-2.977-1.8-1.008a4.069,4.069,0,0,1-3.745,2.305,4.323,4.323,0,0,1,0-8.642,4.069,4.069,0,0,1,3.745,2.305l1.8-1.009a6.216,6.216,0,0,0-5.545-3.216,6.241,6.241,0,1,0,0,12.482A6.215,6.215,0,0,0,210.326,150.125Zm3.861,2.977h2.065v-5.953c0-2.809,1.536-4.393,3.48-4.393,1.681,0,2.833,1.248,2.833,3.265V153.1h2.041v-7.393c0-2.977-1.849-4.849-4.537-4.849a4.244,4.244,0,0,0-3.817,2.088V135.1h-2.065v18Zm21.456-6a6.005,6.005,0,0,0,5.881,6.241,5.264,5.264,0,0,0,4.225-2.088V153.1h2.064v-12h-2.064v1.848a5.264,5.264,0,0,0-4.225-2.088A6.005,6.005,0,0,0,235.643,147.1Zm10.274,0a4.1,4.1,0,1,1-4.081-4.345A4.1,4.1,0,0,1,245.917,147.1Zm6.981,11.018h2.065v-6.865a5.263,5.263,0,0,0,4.225,2.088,6.252,6.252,0,0,0,0-12.482,5.263,5.263,0,0,0-4.225,2.088V141.1H252.9v17.019ZM262.957,147.1a4.089,4.089,0,1,1-4.081-4.345A4.1,4.1,0,0,1,262.957,147.1Zm6.285,11.018h2.065v-6.865a5.263,5.263,0,0,0,4.225,2.088,6.252,6.252,0,0,0,0-12.482,5.263,5.263,0,0,0-4.225,2.088V141.1h-2.065v17.019ZM279.3,147.1a4.089,4.089,0,1,1-4.081-4.345A4.1,4.1,0,0,1,279.3,147.1Zm5.349,0a6.328,6.328,0,0,0,11.619,3.385l-1.633-1.129a4.249,4.249,0,0,1-7.9-1.848h9.842a5.856,5.856,0,0,0,.024-0.624c-0.024-3.841-2.569-6.025-5.714-6.025A6.082,6.082,0,0,0,284.65,147.1Zm6.169-4.417a3.591,3.591,0,0,1,3.673,3.145h-7.609A3.923,3.923,0,0,1,290.819,142.684Zm8.975,4.417a6.006,6.006,0,0,0,5.881,6.241,5.263,5.263,0,0,0,4.225-2.088V153.1h2.065v-12H309.9v1.848a5.263,5.263,0,0,0-4.225-2.088A6.006,6.006,0,0,0,299.794,147.1Zm10.274,0a4.1,4.1,0,1,1-4.081-4.345A4.1,4.1,0,0,1,310.068,147.1Zm6.982,6h2.064v-5.953c0-2.809,1.657-4.129,3.169-4.129a3.017,3.017,0,0,1,1.128.192v-2.136a4.276,4.276,0,0,0-.936-0.1,3.571,3.571,0,0,0-3.361,2.448V141.1H317.05v12Zm8.616-6a6.328,6.328,0,0,0,11.618,3.385l-1.632-1.129a4.25,4.25,0,0,1-7.9-1.848H337.6a5.856,5.856,0,0,0,.024-0.624c-0.024-3.841-2.568-6.025-5.713-6.025A6.081,6.081,0,0,0,325.666,147.1Zm6.169-4.417a3.591,3.591,0,0,1,3.673,3.145H327.9A3.924,3.924,0,0,1,331.835,142.684Zm8.975,4.417a6.005,6.005,0,0,0,5.881,6.241,5.264,5.264,0,0,0,4.225-2.088V153.1h2.064v-18h-2.064v7.849a5.264,5.264,0,0,0-4.225-2.088A6.005,6.005,0,0,0,340.81,147.1Zm10.274,0A4.1,4.1,0,1,1,347,142.756,4.1,4.1,0,0,1,351.084,147.1Zm16.534-10.682a1.449,1.449,0,0,0-1.44-1.464,1.491,1.491,0,0,0-1.489,1.464,1.475,1.475,0,0,0,1.489,1.464A1.434,1.434,0,0,0,367.618,136.419Zm-2.5,16.683h2.065v-12h-2.065v12Zm7.176,0h2.065v-5.953c0-2.809,1.536-4.393,3.48-4.393,1.681,0,2.833,1.248,2.833,3.265V153.1h2.04v-7.393c0-2.977-1.848-4.849-4.536-4.849a4.244,4.244,0,0,0-3.817,2.088V141.1H372.3v12Zm28.489-.168v-1.848a4.562,4.562,0,0,1-1.464.24c-1.3,0-1.993-.5-1.993-2.041V143h3.457v-1.9h-3.457v-3.337h-2.064V141.1H392.72V143h2.545v6.553a3.378,3.378,0,0,0,3.673,3.673A5.743,5.743,0,0,0,400.786,152.934Zm3.839,0.168h2.064v-5.953c0-2.809,1.536-4.393,3.481-4.393,1.68,0,2.832,1.248,2.832,3.265V153.1h2.041v-7.393c0-2.977-1.849-4.849-4.537-4.849a4.245,4.245,0,0,0-3.817,2.088V135.1h-2.064v18Zm14.4-6a6.328,6.328,0,0,0,11.619,3.385l-1.633-1.129a4.249,4.249,0,0,1-7.9-1.848h9.842a5.856,5.856,0,0,0,.024-0.624c-0.024-3.841-2.569-6.025-5.713-6.025A6.082,6.082,0,0,0,419.024,147.1Zm6.17-4.417a3.59,3.59,0,0,1,3.672,3.145h-7.609A3.923,3.923,0,0,1,425.194,142.684ZM442.472,153.1h6.1c3.457,0,5.714-2.136,5.714-4.969a4.062,4.062,0,0,0-2.953-4.081,3.862,3.862,0,0,0,1.824-3.48c0-2.4-1.92-4.513-5.089-4.513h-5.593V153.1Zm2.232-9.722v-5.305h3.361a2.679,2.679,0,0,1,2.905,2.665,2.623,2.623,0,0,1-2.905,2.64H444.7Zm0,7.706V145.3h3.985c2.257,0,3.409,1.248,3.409,2.9,0,1.68-1.152,2.881-3.433,2.881H444.7ZM457.52,147.1a6.005,6.005,0,0,0,5.881,6.241,5.264,5.264,0,0,0,4.225-2.088V153.1h2.064v-12h-2.064v1.848a5.264,5.264,0,0,0-4.225-2.088A6.005,6.005,0,0,0,457.52,147.1Zm10.274,0a4.1,4.1,0,1,1-4.081-4.345A4.1,4.1,0,0,1,467.794,147.1Zm6.982,6h2.064v-5.953c0-2.809,1.536-4.393,3.481-4.393,1.68,0,2.832,1.248,2.832,3.265V153.1h2.041v-7.393c0-2.977-1.849-4.849-4.537-4.849a4.245,4.245,0,0,0-3.817,2.088V141.1h-2.064v12Zm14.4-6a6.006,6.006,0,0,0,5.881,6.241,5.263,5.263,0,0,0,4.225-2.088V153.1h2.065v-12h-2.065v1.848a5.263,5.263,0,0,0-4.225-2.088A6.006,6.006,0,0,0,489.175,147.1Zm10.274,0a4.1,4.1,0,1,1-4.08-4.345A4.1,4.1,0,0,1,499.449,147.1Zm6.982,6H508.5v-5.953c0-2.809,1.536-4.393,3.48-4.393,1.681,0,2.833,1.248,2.833,3.265V153.1h2.04v-7.393c0-2.977-1.848-4.849-4.537-4.849a4.243,4.243,0,0,0-3.816,2.088V141.1h-2.065v12Zm14.4-6a6.005,6.005,0,0,0,5.881,6.241,5.264,5.264,0,0,0,4.225-2.088V153.1H533v-12h-2.064v1.848a5.264,5.264,0,0,0-4.225-2.088A6.005,6.005,0,0,0,520.831,147.1Zm10.274,0a4.1,4.1,0,1,1-4.081-4.345A4.1,4.1,0,0,1,531.105,147.1Zm14.349,6h2.233v-7.753h1.656L555.9,153.1h2.808l-6.553-7.777c2.616-.385,4.2-2.065,4.2-4.561,0-2.809-1.945-4.705-5.089-4.705h-5.81V153.1Zm2.233-9.746v-5.233H551c1.944,0,3.12.912,3.12,2.641,0,1.7-1.176,2.592-3.12,2.592h-3.313Zm12.6,3.745a6.328,6.328,0,0,0,11.619,3.385l-1.633-1.129a4.249,4.249,0,0,1-7.9-1.848h9.842a5.856,5.856,0,0,0,.024-0.624c-0.024-3.841-2.569-6.025-5.714-6.025A6.082,6.082,0,0,0,560.286,147.1Zm6.169-4.417a3.591,3.591,0,0,1,3.673,3.145h-7.609A3.923,3.923,0,0,1,566.455,142.684Zm9.911,15.435h2.065v-6.865a5.262,5.262,0,0,0,4.224,2.088,6.252,6.252,0,0,0,0-12.482,5.262,5.262,0,0,0-4.224,2.088V141.1h-2.065v17.019ZM586.424,147.1a4.089,4.089,0,1,1-4.081-4.345A4.1,4.1,0,0,1,586.424,147.1Zm6.118,1.368c0,2.977,1.776,4.873,4.417,4.873a4.13,4.13,0,0,0,3.7-2.088V153.1h2.064v-12h-2.064v5.953c0,2.76-1.465,4.393-3.337,4.393-1.656,0-2.713-1.273-2.713-3.289V141.1h-2.064v7.369Zm17.328,2.785a5.266,5.266,0,0,0,4.225,2.088,6.252,6.252,0,0,0,0-12.482,5.266,5.266,0,0,0-4.225,2.088V135.1h-2.064v18h2.064v-1.848Zm7.994-4.153a4.089,4.089,0,1,1-4.081-4.345A4.1,4.1,0,0,1,617.864,147.1Zm6.262,6h2.064v-18h-2.064v18Zm9.672-16.683a1.449,1.449,0,0,0-1.44-1.464,1.492,1.492,0,0,0-1.489,1.464,1.476,1.476,0,0,0,1.489,1.464A1.434,1.434,0,0,0,633.8,136.419ZM631.3,153.1h2.065v-12H631.3v12Zm18.075-2.977-1.8-1.008a4.067,4.067,0,0,1-3.745,2.305,4.323,4.323,0,0,1,0-8.642,4.067,4.067,0,0,1,3.745,2.305l1.8-1.009a6.218,6.218,0,0,0-5.546-3.216,6.241,6.241,0,1,0,0,12.482A6.216,6.216,0,0,0,649.376,150.125Zm-596.129,28.8-1.8-1.008a4.069,4.069,0,0,1-3.745,2.3,4.323,4.323,0,0,1,0-8.642,4.068,4.068,0,0,1,3.745,2.3l1.8-1.008a6.215,6.215,0,0,0-5.545-3.217,6.241,6.241,0,1,0,0,12.482A6.216,6.216,0,0,0,53.247,178.925Zm2.925-3.025a6.006,6.006,0,0,0,5.881,6.241,5.264,5.264,0,0,0,4.225-2.088V181.9h2.064v-12H66.278v1.848a5.264,5.264,0,0,0-4.225-2.088A6.006,6.006,0,0,0,56.172,175.9Zm10.274,0a4.1,4.1,0,1,1-4.081-4.345A4.1,4.1,0,0,1,66.446,175.9Zm13.487,5.833v-1.848a4.564,4.564,0,0,1-1.464.24c-1.3,0-1.992-.5-1.992-2.04V171.8h3.457v-1.9H76.476v-3.337H74.412V169.9H71.867v1.9h2.545v6.554a3.378,3.378,0,0,0,3.673,3.672A5.745,5.745,0,0,0,79.933,181.733Zm2.735-5.833a6.006,6.006,0,0,0,5.881,6.241,5.264,5.264,0,0,0,4.225-2.088V181.9h2.065v-12H92.774v1.848a5.264,5.264,0,0,0-4.225-2.088A6.006,6.006,0,0,0,82.668,175.9Zm10.274,0a4.1,4.1,0,1,1-4.081-4.345A4.1,4.1,0,0,1,92.942,175.9Zm6.982,6h2.064v-18H99.924v18Zm18.77-6a6.278,6.278,0,1,0-6.265,6.241A6.159,6.159,0,0,0,118.694,175.9Zm-10.442,0a4.167,4.167,0,1,1,4.177,4.321A4.126,4.126,0,0,1,108.252,175.9Zm25.778,5.305V169.9h-2.065v1.848a5.106,5.106,0,0,0-4.177-2.088,6.114,6.114,0,0,0,0,12.218,5.125,5.125,0,0,0,4.177-2.112v1.368a3.836,3.836,0,0,1-4.009,4.153,5.137,5.137,0,0,1-4.2-2.016l-1.44,1.44a7.126,7.126,0,0,0,5.665,2.448C131.389,187.158,134.03,185.214,134.03,181.205Zm-10.011-5.449a4.059,4.059,0,1,1,4.057,4.2A4,4,0,0,1,124.019,175.756Zm24.648-10.538a1.449,1.449,0,0,0-1.44-1.464,1.491,1.491,0,0,0-1.488,1.464,1.475,1.475,0,0,0,1.488,1.464A1.434,1.434,0,0,0,148.667,165.218Zm-2.5,16.683h2.064v-12h-2.064v12Zm7.175,0h2.065v-5.953c0-2.808,1.536-4.393,3.481-4.393,1.68,0,2.832,1.249,2.832,3.265V181.9h2.041v-7.393c0-2.977-1.849-4.849-4.537-4.849a4.244,4.244,0,0,0-3.817,2.088V169.9h-2.065v12Zm23.88,0h2.065V164.858h-3.673l-1.68,2.04h3.288v15Zm7.3,0h2.64l6.242-7.369a6.548,6.548,0,0,0,1.92-4.345,5.774,5.774,0,0,0-11.546.072,5.506,5.506,0,0,0,5.329,5.473,3.059,3.059,0,0,0,.672-0.048Zm1.368-11.666a3.661,3.661,0,1,1,3.649,3.673A3.622,3.622,0,0,1,185.89,170.235Zm24.026,6.553a4.764,4.764,0,0,0-2.664-4.465,3.99,3.99,0,0,0,1.728-3.36c0-2.545-1.969-4.393-4.777-4.393a4.485,4.485,0,0,0-4.8,4.393,3.973,3.973,0,0,0,1.776,3.36,4.764,4.764,0,0,0-2.712,4.465c0,3.1,2.4,5.353,5.737,5.353C207.588,182.141,209.916,179.885,209.916,176.788Zm-8.474-7.777a2.538,2.538,0,0,1,2.761-2.5,2.49,2.49,0,0,1,2.736,2.5,2.547,2.547,0,0,1-2.736,2.52A2.6,2.6,0,0,1,201.442,169.011Zm-0.888,7.777a3.383,3.383,0,0,1,3.649-3.408,3.4,3.4,0,1,1,0,6.793A3.392,3.392,0,0,1,200.554,176.788Zm25.2-1.056v-4.753c0-3.768-2.544-6.409-6.049-6.409s-6.025,2.641-6.025,6.409v4.753c0,3.793,2.52,6.409,6.025,6.409S225.756,179.525,225.756,175.732Zm-10.01,0v-4.753c0-2.76,1.657-4.393,3.961-4.393,2.329,0,3.985,1.633,3.985,4.393v4.753c0,2.761-1.656,4.393-3.985,4.393C217.4,180.125,215.746,178.493,215.746,175.732ZM247.14,181.9h1.824l4.081-12H250.86l-2.9,8.762-3-8.762h-1.584l-3,8.762-2.9-8.762h-2.161l4.081,12h1.824l2.977-8.641Zm11.83-16.683a1.45,1.45,0,0,0-1.441-1.464,1.491,1.491,0,0,0-1.488,1.464,1.475,1.475,0,0,0,1.488,1.464A1.435,1.435,0,0,0,258.97,165.218Zm-2.5,16.683h2.065v-12h-2.065v12Zm13.681-.168v-1.848a4.562,4.562,0,0,1-1.464.24c-1.3,0-1.992-.5-1.992-2.04V171.8h3.456v-1.9H266.7v-3.337h-2.065V169.9h-2.544v1.9h2.544v6.554a3.378,3.378,0,0,0,3.673,3.672A5.743,5.743,0,0,0,270.154,181.733Zm3.839,0.168h2.064v-5.953c0-2.808,1.537-4.393,3.481-4.393,1.68,0,2.833,1.249,2.833,3.265V181.9h2.04v-7.393c0-2.977-1.848-4.849-4.537-4.849a4.245,4.245,0,0,0-3.817,2.088V163.9h-2.064v18Zm28.489-.168v-1.848a4.564,4.564,0,0,1-1.465.24c-1.3,0-1.992-.5-1.992-2.04V171.8h3.457v-1.9h-3.457v-3.337h-2.064V169.9h-2.545v1.9h2.545v6.554a3.378,3.378,0,0,0,3.672,3.672A5.749,5.749,0,0,0,302.482,181.733Zm3.838,0.168h2.065v-5.953c0-2.808,1.536-4.393,3.48-4.393,1.681,0,2.833,1.249,2.833,3.265V181.9h2.04v-7.393c0-2.977-1.848-4.849-4.536-4.849a4.244,4.244,0,0,0-3.817,2.088V163.9H306.32v18Zm14.4-6a6.328,6.328,0,0,0,11.618,3.385l-1.632-1.128a4.25,4.25,0,0,1-7.9-1.849h9.842a5.856,5.856,0,0,0,.024-0.624c-0.024-3.841-2.568-6.025-5.713-6.025A6.081,6.081,0,0,0,320.72,175.9Zm6.169-4.417a3.592,3.592,0,0,1,3.673,3.145h-7.61A3.925,3.925,0,0,1,326.889,171.483Zm27.865,7.442-1.8-1.008a4.068,4.068,0,0,1-3.744,2.3,4.323,4.323,0,0,1,0-8.642,4.067,4.067,0,0,1,3.744,2.3l1.8-1.008a6.215,6.215,0,0,0-5.545-3.217,6.241,6.241,0,1,0,0,12.482A6.216,6.216,0,0,0,354.754,178.925Zm2.925-3.025a6.006,6.006,0,0,0,5.881,6.241,5.263,5.263,0,0,0,4.225-2.088V181.9h2.065v-12h-2.065v1.848a5.263,5.263,0,0,0-4.225-2.088A6.006,6.006,0,0,0,357.679,175.9Zm10.274,0a4.1,4.1,0,1,1-4.081-4.345A4.1,4.1,0,0,1,367.953,175.9Zm6.982,11.018H377v-6.865a5.266,5.266,0,0,0,4.225,2.088,6.252,6.252,0,0,0,0-12.482A5.266,5.266,0,0,0,377,171.747V169.9h-2.064v17.019ZM384.993,175.9a4.089,4.089,0,1,1-4.081-4.345A4.1,4.1,0,0,1,384.993,175.9Zm12.576,5.833v-1.848a4.568,4.568,0,0,1-1.465.24c-1.3,0-1.992-.5-1.992-2.04V171.8h3.457v-1.9h-3.457v-3.337h-2.065V169.9H389.5v1.9h2.544v6.554a3.379,3.379,0,0,0,3.673,3.672A5.754,5.754,0,0,0,397.569,181.733Zm6.335-16.515a1.45,1.45,0,0,0-1.441-1.464,1.491,1.491,0,0,0-1.488,1.464,1.475,1.475,0,0,0,1.488,1.464A1.435,1.435,0,0,0,403.9,165.218Zm-2.5,16.683h2.065v-12h-2.065v12Zm18.77-6a6.277,6.277,0,1,0-6.265,6.241A6.159,6.159,0,0,0,420.177,175.9Zm-10.442,0a4.168,4.168,0,1,1,4.177,4.321A4.126,4.126,0,0,1,409.735,175.9Zm14.592,6h2.064v-5.953c0-2.808,1.536-4.393,3.481-4.393,1.68,0,2.832,1.249,2.832,3.265V181.9h2.041v-7.393c0-2.977-1.849-4.849-4.537-4.849a4.245,4.245,0,0,0-3.817,2.088V169.9h-2.064v12Zm21.743-13.082a2.034,2.034,0,0,0-.312,1.08,1.777,1.777,0,1,0,3.553,0,1.829,1.829,0,0,0-.985-1.608l1.609-3.433h-1.368Zm4.465,0a2.034,2.034,0,0,0-.312,1.08,1.777,1.777,0,1,0,3.553,0,1.829,1.829,0,0,0-.985-1.608l1.609-3.433h-1.369Zm8.159,13.082h4.9c5.233,0,9.074-3.648,9.074-8.521s-3.841-8.522-9.074-8.522h-4.9V181.9Zm2.232-2.088V166.946h2.665c4.105,0,6.817,2.737,6.817,6.434s-2.712,6.433-6.817,6.433h-2.665Zm18.337-14.595a1.45,1.45,0,0,0-1.441-1.464,1.491,1.491,0,0,0-1.488,1.464,1.475,1.475,0,0,0,1.488,1.464A1.435,1.435,0,0,0,479.263,165.218Zm-2.5,16.683h2.064v-12h-2.064v12Zm14.953-3.336c0-1.8-1.128-2.953-3.168-3.625l-1.3-.432c-1.416-.456-1.848-0.912-1.848-1.68,0-.889.888-1.393,2.017-1.393a3.24,3.24,0,0,1,2.544,1.249l1.344-1.3a4.654,4.654,0,0,0-3.84-1.728c-2.377,0-4.057,1.32-4.057,3.265,0,1.68,1.032,2.856,2.976,3.48l1.177,0.384c1.56,0.5,2.136,1.081,2.136,1.921,0,1.032-.936,1.632-2.112,1.632a3.221,3.221,0,0,1-3.073-1.9l-1.68.912a4.767,4.767,0,0,0,4.7,2.784C489.967,182.141,491.719,180.917,491.719,178.565Zm10.512,3.168v-1.848a4.562,4.562,0,0,1-1.464.24c-1.3,0-1.993-.5-1.993-2.04V171.8h3.457v-1.9h-3.457v-3.337H496.71V169.9h-2.545v1.9h2.545v6.554a3.378,3.378,0,0,0,3.673,3.672A5.743,5.743,0,0,0,502.231,181.733Zm6.335-16.515a1.449,1.449,0,0,0-1.44-1.464,1.492,1.492,0,0,0-1.489,1.464,1.476,1.476,0,0,0,1.489,1.464A1.434,1.434,0,0,0,508.566,165.218Zm-2.5,16.683h2.064v-12H506.07v12Zm7.175,0h2.065v-5.953c0-2.808,1.536-4.393,3.481-4.393,1.68,0,2.832,1.249,2.832,3.265V181.9h2.041v-7.393c0-2.977-1.849-4.849-4.537-4.849a4.244,4.244,0,0,0-3.817,2.088V169.9h-2.065v12Zm26.523-.7V169.9H537.7v1.848a5.106,5.106,0,0,0-4.177-2.088,6.114,6.114,0,0,0,0,12.218,5.125,5.125,0,0,0,4.177-2.112v1.368a3.836,3.836,0,0,1-4.009,4.153,5.137,5.137,0,0,1-4.2-2.016l-1.44,1.44a7.126,7.126,0,0,0,5.665,2.448C537.127,187.158,539.768,185.214,539.768,181.205Zm-10.011-5.449a4.059,4.059,0,1,1,4.057,4.2A4,4,0,0,1,529.757,175.756Zm14.928,1.512c0,2.977,1.776,4.873,4.417,4.873a4.131,4.131,0,0,0,3.7-2.088V181.9h2.064v-12H552.8v5.953c0,2.761-1.465,4.393-3.337,4.393-1.656,0-2.713-1.272-2.713-3.289V169.9h-2.064v7.369Zm17.76-12.05a1.449,1.449,0,0,0-1.44-1.464,1.491,1.491,0,0,0-1.488,1.464,1.475,1.475,0,0,0,1.488,1.464A1.434,1.434,0,0,0,562.445,165.218Zm-2.5,16.683h2.064v-12h-2.064v12Zm14.953-3.336c0-1.8-1.128-2.953-3.168-3.625l-1.3-.432c-1.416-.456-1.848-0.912-1.848-1.68,0-.889.888-1.393,2.016-1.393a3.24,3.24,0,0,1,2.545,1.249l1.344-1.3a4.654,4.654,0,0,0-3.841-1.728c-2.376,0-4.057,1.32-4.057,3.265,0,1.68,1.033,2.856,2.977,3.48l1.176,0.384c1.561,0.5,2.137,1.081,2.137,1.921,0,1.032-.936,1.632-2.113,1.632a3.221,3.221,0,0,1-3.072-1.9l-1.681.912a4.769,4.769,0,0,0,4.705,2.784C573.15,182.141,574.9,180.917,574.9,178.565Zm4.15,3.336h2.065v-5.953c0-2.808,1.536-4.393,3.481-4.393,1.68,0,2.832,1.249,2.832,3.265V181.9h2.041v-7.393c0-2.977-1.849-4.849-4.537-4.849a4.244,4.244,0,0,0-3.817,2.088V163.9h-2.065v18Zm14.4-6a6.328,6.328,0,0,0,11.618,3.385l-1.632-1.128a4.25,4.25,0,0,1-7.9-1.849h9.842a5.856,5.856,0,0,0,.024-0.624c-0.024-3.841-2.568-6.025-5.713-6.025A6.081,6.081,0,0,0,593.452,175.9Zm6.169-4.417a3.591,3.591,0,0,1,3.673,3.145h-7.61A3.925,3.925,0,0,1,599.621,171.483ZM608.6,175.9a6.005,6.005,0,0,0,5.881,6.241,5.264,5.264,0,0,0,4.225-2.088V181.9h2.064v-18H618.7v7.849a5.264,5.264,0,0,0-4.225-2.088A6.005,6.005,0,0,0,608.6,175.9Zm10.274,0a4.1,4.1,0,1,1-4.081-4.345A4.1,4.1,0,0,1,618.87,175.9Zm14.037,6h2.065v-5.953c0-2.808,1.656-4.129,3.169-4.129a3.017,3.017,0,0,1,1.128.192v-2.136a4.276,4.276,0,0,0-.936-0.1,3.57,3.57,0,0,0-3.361,2.448V169.9h-2.065v12Zm8.64-6a6.006,6.006,0,0,0,5.881,6.241,5.263,5.263,0,0,0,4.225-2.088V181.9h2.065v-12h-2.065v1.848a5.263,5.263,0,0,0-4.225-2.088A6.006,6.006,0,0,0,641.547,175.9Zm10.274,0a4.1,4.1,0,1,1-4.08-4.345A4.1,4.1,0,0,1,651.821,175.9Zm9.479-10.682a1.45,1.45,0,0,0-1.441-1.464,1.491,1.491,0,0,0-1.488,1.464,1.475,1.475,0,0,0,1.488,1.464A1.435,1.435,0,0,0,661.3,165.218ZM658.8,181.9h2.065v-12H658.8v12Zm7.176,0h2.064v-5.953c0-2.808,1.537-4.393,3.481-4.393,1.681,0,2.833,1.249,2.833,3.265V181.9h2.04v-7.393c0-2.977-1.848-4.849-4.537-4.849a4.246,4.246,0,0,0-3.817,2.088V169.9h-2.064v12Zm33.578-.7V169.9h-2.065v1.848a5.106,5.106,0,0,0-4.176-2.088,6.114,6.114,0,0,0,0,12.218,5.124,5.124,0,0,0,4.176-2.112v1.368a3.836,3.836,0,0,1-4.008,4.153,5.134,5.134,0,0,1-4.2-2.016l-1.441,1.44a7.128,7.128,0,0,0,5.666,2.448C696.916,187.158,699.557,185.214,699.557,181.205Zm-10.01-5.449a4.059,4.059,0,1,1,4.057,4.2A4,4,0,0,1,689.547,175.756Zm14.159,0.144a6.328,6.328,0,0,0,11.619,3.385l-1.633-1.128a4.249,4.249,0,0,1-7.9-1.849h9.842a5.856,5.856,0,0,0,.024-0.624c-0.024-3.841-2.569-6.025-5.714-6.025A6.082,6.082,0,0,0,703.706,175.9Zm6.169-4.417a3.591,3.591,0,0,1,3.673,3.145h-7.609A3.924,3.924,0,0,1,709.875,171.483Zm8.975,4.417a6.005,6.005,0,0,0,5.881,6.241,5.264,5.264,0,0,0,4.225-2.088V181.9h2.065v-12h-2.065v1.848a5.264,5.264,0,0,0-4.225-2.088A6.005,6.005,0,0,0,718.85,175.9Zm10.274,0a4.1,4.1,0,1,1-4.081-4.345A4.1,4.1,0,0,1,729.124,175.9Zm6.982,6h2.064v-5.953c0-2.808,1.657-4.129,3.169-4.129a3.017,3.017,0,0,1,1.128.192v-2.136a4.276,4.276,0,0,0-.936-0.1,3.571,3.571,0,0,0-3.361,2.448V169.9h-2.064v12Zm11.233-.528a2.052,2.052,0,0,0,.336-1.08,1.777,1.777,0,1,0-3.553,0,1.786,1.786,0,0,0,.984,1.608l-1.608,3.433h1.368ZM44.845,194.017a1.45,1.45,0,0,0-1.44-1.464,1.491,1.491,0,0,0-1.488,1.464,1.475,1.475,0,0,0,1.488,1.465A1.435,1.435,0,0,0,44.845,194.017Zm-2.5,16.684h2.065v-12H42.348v12Zm7.176,0h2.064v-5.954c0-2.808,1.536-4.392,3.481-4.392,1.68,0,2.833,1.248,2.833,3.264V210.7h2.041v-7.394c0-2.976-1.848-4.849-4.537-4.849a4.243,4.243,0,0,0-3.817,2.089V198.7H49.524v12Zm14.4-6a6.007,6.007,0,0,0,5.881,6.242,5.265,5.265,0,0,0,4.225-2.089V210.7h2.064v-18H74.03v7.85a5.262,5.262,0,0,0-4.225-2.089A6.006,6.006,0,0,0,63.924,204.7Zm10.274,0a4.1,4.1,0,1,1-4.081-4.344A4.1,4.1,0,0,1,74.2,204.7Zm6.046,0a6.328,6.328,0,0,0,11.618,3.385l-1.632-1.128a4.25,4.25,0,0,1-7.9-1.849h9.842a5.856,5.856,0,0,0,.024-0.624c-0.024-3.84-2.568-6.025-5.713-6.025A6.082,6.082,0,0,0,80.243,204.7Zm6.169-4.416a3.591,3.591,0,0,1,3.673,3.144h-7.61A3.924,3.924,0,0,1,86.413,200.283Zm8.975,4.416a6.328,6.328,0,0,0,11.619,3.385l-1.633-1.128a4.25,4.25,0,0,1-7.9-1.849h9.842a5.856,5.856,0,0,0,.024-0.624c-0.024-3.84-2.569-6.025-5.713-6.025A6.082,6.082,0,0,0,95.387,204.7Zm6.17-4.416a3.59,3.59,0,0,1,3.672,3.144H97.62A3.924,3.924,0,0,1,101.557,200.283Zm8.974,4.416a6.007,6.007,0,0,0,5.881,6.242,5.264,5.264,0,0,0,4.225-2.089V210.7H122.7v-18h-2.065v7.85a5.261,5.261,0,0,0-4.225-2.089A6.006,6.006,0,0,0,110.531,204.7Zm10.274,0a4.1,4.1,0,1,1-4.081-4.344A4.1,4.1,0,0,1,120.805,204.7Zm9.839,4.393a1.777,1.777,0,1,0-1.777,1.8A1.809,1.809,0,0,0,130.644,209.092Zm4.56-12.842a2.121,2.121,0,0,0,.336-1.08,1.789,1.789,0,1,0-3.577,0,1.86,1.86,0,0,0,.984,1.608l-1.608,3.433h1.392Zm4.465,0a2.121,2.121,0,0,0,.336-1.08,1.789,1.789,0,1,0-3.577,0,1.86,1.86,0,0,0,.984,1.608l-1.608,3.433H137.2Zm10.2,11.666c0.889,1.752,3.169,3.073,5.978,3.073,3.168,0,5.425-1.825,5.425-4.729,0-2.521-1.44-3.961-3.961-4.921l-2.064-.792c-1.729-.649-2.569-1.3-2.569-2.737,0-1.416,1.392-2.352,3.073-2.352a4.217,4.217,0,0,1,3.384,1.68l1.633-1.44a6.215,6.215,0,0,0-4.969-2.329c-3.049,0-5.329,1.753-5.329,4.537,0,2.329,1.2,3.721,3.864,4.7l2.257,0.864c1.584,0.6,2.448,1.512,2.448,2.881,0,1.584-1.392,2.544-3.144,2.544a4.762,4.762,0,0,1-4.225-2.328Zm18.049-13.9a1.449,1.449,0,0,0-1.44-1.464,1.492,1.492,0,0,0-1.489,1.464,1.476,1.476,0,0,0,1.489,1.465A1.435,1.435,0,0,0,167.915,194.017Zm-2.5,16.684h2.064v-12h-2.064v12Zm7.175,0h2.065v-5.954c0-2.808,1.536-4.392,3.481-4.392,1.68,0,2.832,1.248,2.832,3.264V210.7h2.041v-7.394c0-2.976-1.849-4.849-4.537-4.849a4.243,4.243,0,0,0-3.817,2.089V198.7h-2.065v12Zm26.234-2.977-1.8-1.008a4.068,4.068,0,0,1-3.745,2.3,4.322,4.322,0,0,1,0-8.641,4.068,4.068,0,0,1,3.745,2.3l1.8-1.008a6.214,6.214,0,0,0-5.545-3.217,6.242,6.242,0,1,0,0,12.483A6.216,6.216,0,0,0,198.828,207.724Zm2.926-3.025a6.327,6.327,0,0,0,11.618,3.385l-1.632-1.128a4.25,4.25,0,0,1-7.9-1.849h9.842a5.856,5.856,0,0,0,.024-0.624c-0.024-3.84-2.568-6.025-5.713-6.025A6.082,6.082,0,0,0,201.754,204.7Zm6.169-4.416a3.591,3.591,0,0,1,3.673,3.144h-7.61A3.924,3.924,0,0,1,207.923,200.283Zm23.064,10.249v-1.848a4.564,4.564,0,0,1-1.465.24c-1.3,0-1.992-.5-1.992-2.04V200.6h3.457v-1.9H227.53v-3.336h-2.064V198.7h-2.545v1.9h2.545v6.553a3.379,3.379,0,0,0,3.672,3.673A5.715,5.715,0,0,0,230.987,210.532Zm3.838,0.169h2.065v-5.954c0-2.808,1.536-4.392,3.481-4.392,1.68,0,2.832,1.248,2.832,3.264V210.7h2.041v-7.394c0-2.976-1.849-4.849-4.537-4.849a4.243,4.243,0,0,0-3.817,2.089V192.7h-2.065v18Zm14.4-6a6.327,6.327,0,0,0,11.618,3.385l-1.632-1.128a4.25,4.25,0,0,1-7.9-1.849h9.842a5.856,5.856,0,0,0,.024-0.624c-0.024-3.84-2.568-6.025-5.713-6.025A6.082,6.082,0,0,0,249.225,204.7Zm6.169-4.416a3.591,3.591,0,0,1,3.673,3.144h-7.61A3.924,3.924,0,0,1,255.394,200.283Zm9.911,10.418h2.064v-5.954c0-2.808,1.537-4.392,3.481-4.392,1.68,0,2.833,1.248,2.833,3.264V210.7h2.04v-7.394c0-2.976-1.848-4.849-4.537-4.849a4.245,4.245,0,0,0-3.817,2.089V198.7h-2.064v12Zm17.9-.529a2.052,2.052,0,0,0,.336-1.08,1.776,1.776,0,1,0-3.552,0,1.789,1.789,0,0,0,.984,1.609l-1.609,3.432h1.369Zm17.929,0.36v-1.848a4.564,4.564,0,0,1-1.465.24c-1.3,0-1.992-.5-1.992-2.04V200.6h3.457v-1.9h-3.457v-3.336h-2.064V198.7h-2.545v1.9h2.545v6.553a3.379,3.379,0,0,0,3.672,3.673A5.72,5.72,0,0,0,301.138,210.532Zm3.838,0.169h2.065v-5.954c0-2.808,1.536-4.392,3.48-4.392,1.681,0,2.833,1.248,2.833,3.264V210.7h2.04v-7.394c0-2.976-1.848-4.849-4.536-4.849a4.243,4.243,0,0,0-3.817,2.089V192.7h-2.065v18Zm14.4-6a6.327,6.327,0,0,0,11.618,3.385l-1.632-1.128a4.25,4.25,0,0,1-7.9-1.849h9.842a5.856,5.856,0,0,0,.024-0.624c-0.024-3.84-2.568-6.025-5.713-6.025A6.082,6.082,0,0,0,319.376,204.7Zm6.169-4.416a3.591,3.591,0,0,1,3.673,3.144h-7.61A3.924,3.924,0,0,1,325.545,200.283Zm23.064,10.249v-1.848a4.562,4.562,0,0,1-1.464.24c-1.3,0-1.993-.5-1.993-2.04V200.6h3.457v-1.9h-3.457v-3.336h-2.064V198.7h-2.545v1.9h2.545v6.553a3.379,3.379,0,0,0,3.673,3.673A5.713,5.713,0,0,0,348.609,210.532Zm3.839,0.169h2.064v-5.954c0-2.808,1.656-4.128,3.169-4.128a3.017,3.017,0,0,1,1.128.192v-2.137a4.276,4.276,0,0,0-.936-0.1,3.57,3.57,0,0,0-3.361,2.449V198.7h-2.064v12Zm8.615-6a6.328,6.328,0,0,0,11.619,3.385l-1.632-1.128a4.25,4.25,0,0,1-7.9-1.849h9.842a5.856,5.856,0,0,0,.024-0.624c-0.024-3.84-2.568-6.025-5.713-6.025A6.083,6.083,0,0,0,361.063,204.7Zm6.17-4.416a3.591,3.591,0,0,1,3.673,3.144H363.3A3.923,3.923,0,0,1,367.233,200.283Zm9.911,10.418h2.064v-5.954c0-2.808,1.536-4.392,3.481-4.392,1.68,0,2.832,1.248,2.832,3.264V210.7h2.041v-7.394c0-2.976-1.849-4.849-4.537-4.849a4.243,4.243,0,0,0-3.817,2.089V198.7h-2.064v12Zm26.234-2.977-1.8-1.008a4.068,4.068,0,0,1-3.745,2.3,4.322,4.322,0,0,1,0-8.641,4.068,4.068,0,0,1,3.745,2.3l1.8-1.008a6.216,6.216,0,0,0-5.546-3.217,6.242,6.242,0,1,0,0,12.483A6.218,6.218,0,0,0,403.378,207.724Zm3.861,2.977H409.3v-5.954c0-2.808,1.537-4.392,3.481-4.392,1.681,0,2.833,1.248,2.833,3.264V210.7h2.04v-7.394c0-2.976-1.848-4.849-4.537-4.849a4.245,4.245,0,0,0-3.817,2.089V192.7h-2.064v18Zm22.391,0H431.7v-5.954c0-2.808,1.536-4.392,3.481-4.392,1.68,0,2.832,1.248,2.832,3.264V210.7h2.041v-7.394c0-2.976-1.849-4.849-4.537-4.849a4.243,4.243,0,0,0-3.817,2.089V192.7H429.63v18Zm14.4-6a6.006,6.006,0,0,0,5.881,6.242,5.264,5.264,0,0,0,4.225-2.089V210.7H456.2v-12h-2.065v1.849a5.261,5.261,0,0,0-4.225-2.089A6.006,6.006,0,0,0,444.03,204.7Zm10.274,0a4.1,4.1,0,1,1-4.081-4.344A4.1,4.1,0,0,1,454.3,204.7Zm14.76,2.665c0-1.8-1.129-2.953-3.169-3.625l-1.3-.432c-1.417-.456-1.849-0.912-1.849-1.68,0-.888.888-1.392,2.017-1.392a3.242,3.242,0,0,1,2.544,1.248l1.344-1.3a4.652,4.652,0,0,0-3.84-1.729c-2.377,0-4.057,1.32-4.057,3.265,0,1.68,1.032,2.856,2.976,3.48l1.177,0.385c1.56,0.5,2.136,1.08,2.136,1.92,0,1.032-.936,1.632-2.112,1.632a3.221,3.221,0,0,1-3.073-1.9l-1.68.912a4.768,4.768,0,0,0,4.7,2.785C467.311,210.941,469.064,209.716,469.064,207.364Zm13.27,1.488a5.264,5.264,0,0,0,4.225,2.089,6.253,6.253,0,0,0,0-12.483,5.261,5.261,0,0,0-4.225,2.089V192.7h-2.065v18h2.065v-1.849Zm7.994-4.153a4.089,4.089,0,1,1-4.081-4.344A4.1,4.1,0,0,1,490.328,204.7Zm5.325,0a6.327,6.327,0,0,0,11.618,3.385l-1.632-1.128a4.25,4.25,0,0,1-7.9-1.849h9.842a5.623,5.623,0,0,0,.025-0.624c-0.025-3.84-2.569-6.025-5.714-6.025A6.083,6.083,0,0,0,495.653,204.7Zm6.169-4.416a3.591,3.591,0,0,1,3.673,3.144h-7.61A3.925,3.925,0,0,1,501.822,200.283Zm20.809,7.441-1.8-1.008a4.068,4.068,0,0,1-3.745,2.3,4.322,4.322,0,0,1,0-8.641,4.068,4.068,0,0,1,3.745,2.3l1.8-1.008a6.214,6.214,0,0,0-5.545-3.217,6.242,6.242,0,1,0,0,12.483A6.216,6.216,0,0,0,522.631,207.724Zm15.456-3.025a6.277,6.277,0,1,0-6.265,6.242A6.159,6.159,0,0,0,538.087,204.7Zm-10.442,0a4.168,4.168,0,1,1,4.177,4.321A4.125,4.125,0,0,1,527.645,204.7Zm14.591,6H544.3v-5.954c0-2.712,1.368-4.392,3.313-4.392,1.56,0,2.352,1.344,2.352,3.288V210.7h2.065v-5.954c0-2.712,1.344-4.392,3.288-4.392,1.561,0,2.377,1.344,2.377,3.288V210.7h2.064v-7.37c0-2.928-1.584-4.873-4.2-4.873a4.155,4.155,0,0,0-3.937,2.569,3.772,3.772,0,0,0-3.7-2.569,4.033,4.033,0,0,0-3.625,2.089V198.7h-2.065v12Zm21.5-6a6.328,6.328,0,0,0,11.619,3.385l-1.633-1.128a4.249,4.249,0,0,1-7.9-1.849h9.842a5.856,5.856,0,0,0,.024-0.624c-0.024-3.84-2.569-6.025-5.714-6.025A6.083,6.083,0,0,0,563.74,204.7Zm6.169-4.416a3.591,3.591,0,0,1,3.673,3.144h-7.609A3.923,3.923,0,0,1,569.909,200.283ZM585.94,204.7a6.006,6.006,0,0,0,5.881,6.242,5.265,5.265,0,0,0,4.225-2.089V210.7h2.064v-12h-2.064v1.849a5.262,5.262,0,0,0-4.225-2.089A6.006,6.006,0,0,0,585.94,204.7Zm10.274,0a4.1,4.1,0,1,1-4.081-4.344A4.1,4.1,0,0,1,596.214,204.7Zm14.037,6h2.065v-5.954c0-2.808,1.536-4.392,3.48-4.392,1.681,0,2.833,1.248,2.833,3.264V210.7h2.041v-7.394c0-2.976-1.849-4.849-4.537-4.849a4.243,4.243,0,0,0-3.817,2.089V192.7h-2.065v18Zm14.4-6a6.006,6.006,0,0,0,5.881,6.242,5.265,5.265,0,0,0,4.225-2.089V210.7h2.064v-12h-2.064v1.849a5.262,5.262,0,0,0-4.225-2.089A6.006,6.006,0,0,0,624.651,204.7Zm10.274,0a4.1,4.1,0,1,1-4.081-4.344A4.1,4.1,0,0,1,634.925,204.7Zm6.982,6h2.064v-18h-2.064v18Zm7.176,0h2.064v-18h-2.064v18Zm7.175,0h2.065v-5.954c0-2.712,1.368-4.392,3.313-4.392,1.56,0,2.352,1.344,2.352,3.288V210.7h2.065v-5.954c0-2.712,1.344-4.392,3.288-4.392,1.561,0,2.377,1.344,2.377,3.288V210.7h2.064v-7.37c0-2.928-1.584-4.873-4.2-4.873a4.155,4.155,0,0,0-3.937,2.569,3.772,3.772,0,0,0-3.7-2.569,4.033,4.033,0,0,0-3.625,2.089V198.7h-2.065v12Zm21.5-6a6.007,6.007,0,0,0,5.881,6.242,5.264,5.264,0,0,0,4.225-2.089V210.7h2.065v-12h-2.065v1.849a5.261,5.261,0,0,0-4.225-2.089A6.006,6.006,0,0,0,677.762,204.7Zm10.274,0a4.1,4.1,0,1,1-4.081-4.344A4.1,4.1,0,0,1,688.036,204.7Zm6.982,6h2.064v-5.954c0-2.808,1.657-4.128,3.169-4.128a3.017,3.017,0,0,1,1.128.192v-2.137a4.276,4.276,0,0,0-.936-0.1,3.572,3.572,0,0,0-3.361,2.449V198.7h-2.064v12Zm9.984,0h2.064v-6l6.506,6h2.784l-7.225-6.7,5.9-5.3H712.3l-5.234,4.681V192.7H705v18ZM53.943,233.5a6.277,6.277,0,1,0-6.265,6.241A6.16,6.16,0,0,0,53.943,233.5Zm-10.442,0a4.168,4.168,0,1,1,4.177,4.32A4.125,4.125,0,0,1,43.5,233.5Zm15.408,6h2.065V229.394h3.481v-1.9H60.973v-2.209c0-1.512.672-2.04,1.992-2.04a4.834,4.834,0,0,1,1.488.24v-1.825a5.456,5.456,0,0,0-1.872-.312,3.428,3.428,0,0,0-3.673,3.721V227.5H56.364v1.9h2.544V239.5Zm14.5-6a6.328,6.328,0,0,0,11.618,3.384l-1.632-1.128a4.25,4.25,0,0,1-7.9-1.848h9.842a5.856,5.856,0,0,0,.024-0.624c-0.024-3.841-2.569-6.026-5.713-6.026A6.083,6.083,0,0,0,73.4,233.5Zm6.169-4.417a3.591,3.591,0,0,1,3.673,3.144h-7.61A3.924,3.924,0,0,1,79.573,229.082Zm8.975,4.417a6.006,6.006,0,0,0,5.881,6.241,5.262,5.262,0,0,0,4.225-2.089V239.5h2.064v-12H98.654v1.848a5.264,5.264,0,0,0-4.225-2.089A6.006,6.006,0,0,0,88.548,233.5Zm10.274,0a4.1,4.1,0,1,1-4.081-4.345A4.1,4.1,0,0,1,98.822,233.5Zm17.88,3.024-1.8-1.008a4.068,4.068,0,0,1-3.744,2.3,4.322,4.322,0,0,1,0-8.641,4.068,4.068,0,0,1,3.744,2.3l1.8-1.008a6.217,6.217,0,0,0-5.545-3.217,6.242,6.242,0,1,0,0,12.483A6.215,6.215,0,0,0,116.7,236.523Zm3.861,2.977h2.065v-5.953c0-2.809,1.536-4.393,3.48-4.393,1.681,0,2.833,1.248,2.833,3.264V239.5h2.04v-7.394c0-2.976-1.848-4.849-4.537-4.849a4.244,4.244,0,0,0-3.816,2.089V221.5h-2.065v18Zm33.29-2.977-1.8-1.008a4.07,4.07,0,0,1-3.745,2.3,4.322,4.322,0,0,1,0-8.641,4.07,4.07,0,0,1,3.745,2.3l1.8-1.008a6.217,6.217,0,0,0-5.545-3.217,6.242,6.242,0,1,0,0,12.483A6.215,6.215,0,0,0,153.853,236.523Zm15.456-3.024a6.278,6.278,0,1,0-6.266,6.241A6.16,6.16,0,0,0,169.309,233.5Zm-10.442,0a4.167,4.167,0,1,1,4.176,4.32A4.125,4.125,0,0,1,158.867,233.5Zm14.591,6h2.064v-18h-2.064v18Zm7.176,0H182.7v-18h-2.064v18Zm6.239-6a6.328,6.328,0,0,0,11.619,3.384l-1.632-1.128a4.25,4.25,0,0,1-7.9-1.848H198.8a5.856,5.856,0,0,0,.024-0.624c-0.024-3.841-2.569-6.026-5.713-6.026A6.083,6.083,0,0,0,186.873,233.5Zm6.17-4.417a3.592,3.592,0,0,1,3.673,3.144h-7.61A3.923,3.923,0,0,1,193.043,229.082Zm20.809,7.441-1.8-1.008a4.068,4.068,0,0,1-3.744,2.3,4.322,4.322,0,0,1,0-8.641,4.068,4.068,0,0,1,3.744,2.3l1.8-1.008a6.217,6.217,0,0,0-5.545-3.217,6.242,6.242,0,1,0,0,12.483A6.215,6.215,0,0,0,213.852,236.523Zm10.367,2.809v-1.849a4.573,4.573,0,0,1-1.465.24c-1.3,0-1.992-.5-1.992-2.04v-6.289h3.457v-1.9h-3.457v-3.337H218.7V227.5h-2.544v1.9H218.7v6.553a3.379,3.379,0,0,0,3.673,3.673A5.754,5.754,0,0,0,224.219,239.332Zm6.335-16.515a1.45,1.45,0,0,0-1.441-1.465,1.491,1.491,0,0,0-1.488,1.465,1.475,1.475,0,0,0,1.488,1.464A1.435,1.435,0,0,0,230.554,222.817Zm-2.5,16.683h2.065v-12h-2.065v12Zm18.77-6a6.277,6.277,0,1,0-6.265,6.241A6.159,6.159,0,0,0,246.827,233.5Zm-10.442,0a4.168,4.168,0,1,1,4.177,4.32A4.126,4.126,0,0,1,236.385,233.5Zm14.592,6h2.064v-5.953c0-2.809,1.536-4.393,3.481-4.393,1.68,0,2.832,1.248,2.832,3.264V239.5H261.4v-7.394c0-2.976-1.849-4.849-4.537-4.849a4.246,4.246,0,0,0-3.817,2.089V227.5h-2.064v12Zm14.951-5.689h12.123v-2.065H265.928v2.065Zm15.888-.312a6.006,6.006,0,0,0,5.881,6.241,5.261,5.261,0,0,0,4.225-2.089V239.5h2.065v-12h-2.065v1.848a5.264,5.264,0,0,0-4.225-2.089A6.007,6.007,0,0,0,281.816,233.5Zm10.274,0a4.1,4.1,0,1,1-4.081-4.345A4.1,4.1,0,0,1,292.09,233.5Zm6.982,6h2.064v-5.953c0-2.809,1.537-4.393,3.481-4.393,1.681,0,2.833,1.248,2.833,3.264V239.5h2.04v-7.394c0-2.976-1.848-4.849-4.537-4.849a4.247,4.247,0,0,0-3.817,2.089V227.5h-2.064v12Zm14.4-6a6.006,6.006,0,0,0,5.881,6.241,5.262,5.262,0,0,0,4.225-2.089V239.5h2.064v-18h-2.064v7.85a5.265,5.265,0,0,0-4.225-2.089A6.006,6.006,0,0,0,313.472,233.5Zm10.274,0a4.1,4.1,0,1,1-4.081-4.345A4.1,4.1,0,0,1,323.746,233.5Zm16.726-10.682a1.45,1.45,0,0,0-1.441-1.465,1.491,1.491,0,0,0-1.488,1.465,1.475,1.475,0,0,0,1.488,1.464A1.435,1.435,0,0,0,340.472,222.817ZM340.04,227.5h-2.065v13.346c0,1.536-.72,2.04-1.848,2.04a5.262,5.262,0,0,1-.7-0.048v1.849a6.1,6.1,0,0,0,.984.072,3.366,3.366,0,0,0,3.625-3.673V227.5Zm4.943,7.369c0,2.976,1.776,4.873,4.417,4.873a4.13,4.13,0,0,0,3.7-2.089V239.5h2.064v-12H353.1v5.953c0,2.76-1.465,4.392-3.337,4.392-1.656,0-2.713-1.272-2.713-3.288V227.5h-2.064v7.369Zm23.041,1.3c0-1.8-1.128-2.952-3.168-3.625l-1.3-.432c-1.416-.456-1.848-0.912-1.848-1.68,0-.888.888-1.392,2.017-1.392a3.242,3.242,0,0,1,2.544,1.248l1.344-1.3a4.655,4.655,0,0,0-3.84-1.729c-2.377,0-4.057,1.321-4.057,3.265,0,1.68,1.032,2.857,2.976,3.481l1.177,0.384c1.56,0.5,2.136,1.08,2.136,1.92,0,1.032-.936,1.632-2.112,1.632a3.221,3.221,0,0,1-3.073-1.9l-1.68.912a4.766,4.766,0,0,0,4.705,2.785C366.272,239.74,368.024,238.516,368.024,236.163Zm10.512,3.169v-1.849a4.562,4.562,0,0,1-1.464.24c-1.3,0-1.993-.5-1.993-2.04v-6.289h3.457v-1.9h-3.457v-3.337h-2.064V227.5H370.47v1.9h2.545v6.553a3.378,3.378,0,0,0,3.673,3.673A5.743,5.743,0,0,0,378.536,239.332Zm22.081-.528V227.5h-2.065v1.848a5.107,5.107,0,0,0-4.177-2.089,6.115,6.115,0,0,0,0,12.219,5.123,5.123,0,0,0,4.177-2.113v1.369a3.836,3.836,0,0,1-4.009,4.152,5.137,5.137,0,0,1-4.2-2.016l-1.44,1.44a7.124,7.124,0,0,0,5.665,2.449C397.976,244.757,400.617,242.812,400.617,238.8Zm-10.01-5.449a4.059,4.059,0,1,1,4.056,4.2A4,4,0,0,1,390.607,233.355Zm14.159,0.144a6.327,6.327,0,0,0,11.618,3.384l-1.632-1.128a4.25,4.25,0,0,1-7.9-1.848H416.7a5.856,5.856,0,0,0,.024-0.624c-0.024-3.841-2.568-6.026-5.713-6.026A6.082,6.082,0,0,0,404.766,233.5Zm6.169-4.417a3.591,3.591,0,0,1,3.673,3.144H407A3.924,3.924,0,0,1,410.935,229.082Zm16.249,10.25v-1.849a4.573,4.573,0,0,1-1.465.24c-1.3,0-1.992-.5-1.992-2.04v-6.289h3.457v-1.9h-3.457v-3.337h-2.065V227.5h-2.544v1.9h2.544v6.553a3.379,3.379,0,0,0,3.673,3.673A5.754,5.754,0,0,0,427.184,239.332Zm11.616-3.169c0-1.8-1.128-2.952-3.169-3.625l-1.3-.432c-1.416-.456-1.849-0.912-1.849-1.68,0-.888.889-1.392,2.017-1.392a3.242,3.242,0,0,1,2.544,1.248l1.345-1.3a4.658,4.658,0,0,0-3.841-1.729c-2.377,0-4.057,1.321-4.057,3.265,0,1.68,1.032,2.857,2.977,3.481l1.176,0.384c1.56,0.5,2.136,1.08,2.136,1.92,0,1.032-.936,1.632-2.112,1.632a3.222,3.222,0,0,1-3.073-1.9l-1.68.912a4.766,4.766,0,0,0,4.7,2.785C437.047,239.74,438.8,238.516,438.8,236.163Zm13.27,1.488a5.262,5.262,0,0,0,4.225,2.089,6.253,6.253,0,0,0,0-12.483,5.265,5.265,0,0,0-4.225,2.089V221.5h-2.064v18h2.064v-1.849Zm7.994-4.152a4.089,4.089,0,1,1-4.081-4.345A4.1,4.1,0,0,1,460.064,233.5Zm5.325,0a6.328,6.328,0,0,0,11.619,3.384l-1.633-1.128a4.249,4.249,0,0,1-7.9-1.848h9.842a5.856,5.856,0,0,0,.024-0.624c-0.024-3.841-2.569-6.026-5.714-6.026A6.083,6.083,0,0,0,465.389,233.5Zm6.169-4.417a3.591,3.591,0,0,1,3.673,3.144h-7.609A3.923,3.923,0,0,1,471.558,229.082Zm24.651,10.25v-1.849a4.568,4.568,0,0,1-1.465.24c-1.3,0-1.992-.5-1.992-2.04v-6.289h3.457v-1.9h-3.457v-3.337h-2.065V227.5h-2.064v1.9h2.064v6.553a3.379,3.379,0,0,0,3.673,3.673A5.749,5.749,0,0,0,496.209,239.332Zm-8.4,0v-1.849a4.562,4.562,0,0,1-1.464.24c-1.3,0-1.993-.5-1.993-2.04v-6.289h2.929v-1.9H484.35v-3.337h-2.064V227.5h-2.545v1.9h2.545v6.553a3.378,3.378,0,0,0,3.672,3.673A5.744,5.744,0,0,0,487.807,239.332Zm11.134-5.833a6.328,6.328,0,0,0,11.619,3.384l-1.633-1.128a4.249,4.249,0,0,1-7.9-1.848h9.842a5.856,5.856,0,0,0,.024-0.624c-0.024-3.841-2.569-6.026-5.713-6.026A6.083,6.083,0,0,0,498.941,233.5Zm6.17-4.417a3.59,3.59,0,0,1,3.672,3.144h-7.609A3.923,3.923,0,0,1,505.111,229.082Zm9.91,10.418h2.065v-5.953c0-2.809,1.656-4.129,3.168-4.129a3.019,3.019,0,0,1,1.129.192v-2.136a4.222,4.222,0,0,0-.937-0.1,3.571,3.571,0,0,0-3.36,2.449V227.5h-2.065v12Zm26.187,0h1.824l4.081-12h-2.185l-2.9,8.761-3-8.761h-1.584l-3,8.761-2.9-8.761h-2.16l4.081,12h1.824l2.977-8.642Zm11.83-16.683a1.45,1.45,0,0,0-1.441-1.465,1.491,1.491,0,0,0-1.488,1.465,1.475,1.475,0,0,0,1.488,1.464A1.435,1.435,0,0,0,553.038,222.817Zm-2.5,16.683h2.064v-12h-2.064v12Zm13.681-.168v-1.849a4.562,4.562,0,0,1-1.464.24c-1.3,0-1.993-.5-1.993-2.04v-6.289h3.457v-1.9h-3.457v-3.337H558.7V227.5h-2.545v1.9H558.7v6.553a3.378,3.378,0,0,0,3.673,3.673A5.743,5.743,0,0,0,564.222,239.332Zm3.839,0.168h2.064v-5.953c0-2.809,1.536-4.393,3.481-4.393,1.68,0,2.833,1.248,2.833,3.264V239.5h2.04v-7.394c0-2.976-1.848-4.849-4.537-4.849a4.246,4.246,0,0,0-3.817,2.089V221.5h-2.064v18Zm21.455-6a6.006,6.006,0,0,0,5.881,6.241,5.261,5.261,0,0,0,4.225-2.089V239.5h2.065v-12h-2.065v1.848a5.264,5.264,0,0,0-4.225-2.089A6.007,6.007,0,0,0,589.516,233.5Zm10.274,0a4.1,4.1,0,1,1-4.081-4.345A4.1,4.1,0,0,1,599.79,233.5Zm18.168,5.305V227.5h-2.064v1.848a5.109,5.109,0,0,0-4.177-2.089,6.115,6.115,0,0,0,0,12.219,5.124,5.124,0,0,0,4.177-2.113v1.369a3.837,3.837,0,0,1-4.009,4.152,5.136,5.136,0,0,1-4.2-2.016l-1.44,1.44a7.122,7.122,0,0,0,5.665,2.449C615.318,244.757,617.958,242.812,617.958,238.8Zm-10.01-5.449a4.059,4.059,0,1,1,4.057,4.2A4,4,0,0,1,607.948,233.355Zm14.16,0.144a6.327,6.327,0,0,0,11.618,3.384l-1.632-1.128a4.25,4.25,0,0,1-7.9-1.848h9.842a5.856,5.856,0,0,0,.024-0.624c-0.024-3.841-2.568-6.026-5.713-6.026A6.082,6.082,0,0,0,622.108,233.5Zm6.169-4.417a3.591,3.591,0,0,1,3.673,3.144h-7.61A3.923,3.923,0,0,1,628.277,229.082Zm12.767,8.809a1.777,1.777,0,1,0-1.776,1.8A1.808,1.808,0,0,0,641.044,237.891Z"/>
  <rect id="Rectangle_4_copy_8" data-name="Rectangle 4 copy 8" x="39" y="307.375" width="122.406" height="3.687"/>
  <path id="Shop_now_copy_4" data-name="Shop now copy 4" class="cls-2" d="M44.217,300.465c2.706,0,4.564-1.653,4.582-4.022,0.018-1.966-1.19-3.215-3.048-3.894l-0.9-.331c-1.353-.5-1.984-0.808-1.984-1.506,0-.68.776-0.992,1.551-0.992a2.829,2.829,0,0,1,2.219,1.084l1.876-2.021a5.3,5.3,0,0,0-4.131-1.8c-2.561,0-4.419,1.488-4.419,4.023,0,1.781,1.154,3.049,3.229,3.765l0.9,0.312c1.281,0.441,1.786.9,1.786,1.562,0,0.624-.6,1.083-1.551,1.083a3.335,3.335,0,0,1-2.652-1.488l-2.2,1.892A5.58,5.58,0,0,0,44.217,300.465Zm9.726-.22H56.81v-5.162h5.159v5.162h2.868V287.2H61.969v5.106H56.81V287.2H53.942v13.041Zm22.66,0.22a6.742,6.742,0,1,0-6.62-6.741A6.7,6.7,0,0,0,76.6,300.465Zm0-2.829a3.917,3.917,0,1,1,3.716-3.912A3.837,3.837,0,0,1,76.6,297.636Zm20.622-5.969a4.4,4.4,0,0,0-4.51-4.463H88.367v13.041h2.868v-4.133h1.479A4.385,4.385,0,0,0,97.224,291.667Zm-2.778,0a1.7,1.7,0,0,1-1.768,1.708H91.235v-3.416h1.443A1.689,1.689,0,0,1,94.446,291.667Zm25.979,8.578V287.2h-2.886v8.045l-6.223-8.045h-2.472v13.041h2.869v-8.064l6.241,8.064h2.471Zm11.765,0.22a6.742,6.742,0,1,0-6.62-6.741A6.7,6.7,0,0,0,132.19,300.465Zm0-2.829a3.917,3.917,0,1,1,3.716-3.912A3.837,3.837,0,0,1,132.19,297.636Zm21.686,2.609H156.6l2.976-13.041h-3.067l-1.749,8.265-3.608-8.486-3.589,8.486-1.75-8.265h-3.067l2.959,13.041h2.723l2.724-6.392Z"/>
</svg>
