<svg id="Copy_copy_2" data-name="Copy copy 2" xmlns="http://www.w3.org/2000/svg" width="768" height="263" viewBox="0 0 768 263">
  <metadata><?xpacket begin="﻿" id="W5M0MpCehiHzreSzNTczkc9d"?>
<x:xmpmeta xmlns:x="adobe:ns:meta/" x:xmptk="Adobe XMP Core 5.6-c138 79.159824, 2016/09/14-01:09:01        ">
   <rdf:RDF xmlns:rdf="http://www.w3.org/1999/02/22-rdf-syntax-ns#">
      <rdf:Description rdf:about=""/>
   </rdf:RDF>
</x:xmpmeta>
                                                                                                    
                                                                                                    
                                                                                                    
                                                                                                    
                                                                                                    
                                                                                                    
                                                                                                    
                                                                                                    
                                                                                                    
                                                                                                    
                                                                                                    
                                                                                                    
                                                                                                    
                                                                                                    
                                                                                                    
                                                                                                    
                                                                                                    
                                                                                                    
                                                                                                    
                                                                                                    
                           
<?xpacket end="w"?></metadata>
<defs>
    <style>
      .cls-1 {
        fill: #fff;
      }

      .cls-2 {
        fill-rule: evenodd;
      }
    </style>
  </defs>
  <rect id="Rectangle_109_copy_11" data-name="Rectangle 109 copy 11" class="cls-1" width="768" height="263"/>
  <path id="PLUSH_WOOL-BLEND_DUSTER_Limited_availability._" data-name="PLUSH WOOL-BLEND DUSTER Limited availability.      " class="cls-2" d="M62.137,49.347a9.284,9.284,0,0,0-9.6-9.33H43.284V67.278h6.105V58.639h3.149A9.253,9.253,0,0,0,62.137,49.347Zm-5.913,0a3.588,3.588,0,0,1-3.763,3.571H49.389V45.776h3.072A3.565,3.565,0,0,1,56.223,49.347ZM67.974,67.278H85.368V61.442H74.08V40.017H67.974V67.278Zm33.1,0.461c6.528,0,11.212-4.454,11.212-11.25V40.017h-6.105V56.566c0,3.264-2.073,5.26-5.107,5.26s-5.106-2-5.106-5.26V40.017H89.862V56.489C89.862,63.285,94.508,67.739,101.074,67.739Zm26.726,0c5.76,0,9.715-3.456,9.753-8.409,0.039-4.108-2.534-6.719-6.489-8.14l-1.92-.691c-2.879-1.037-4.223-1.689-4.223-3.148,0-1.421,1.651-2.073,3.3-2.073a6.064,6.064,0,0,1,4.723,2.265l3.993-4.224a11.376,11.376,0,0,0-8.793-3.763c-5.452,0-9.407,3.11-9.407,8.409,0,3.724,2.457,6.374,6.873,7.871l1.92,0.653c2.726,0.922,3.8,1.881,3.8,3.264,0,1.306-1.267,2.265-3.3,2.265a7.134,7.134,0,0,1-5.645-3.11L117.7,62.863A11.954,11.954,0,0,0,127.8,67.739Zm15.9-.461h6.1V56.489h10.982V67.278h6.1V40.017h-6.1V50.691H149.8V40.017h-6.1V67.278Zm62.014,0h5.8l6.336-27.261h-6.528L207.594,57.3l-7.68-17.739L192.273,57.3l-3.724-17.278h-6.528l6.3,27.261h5.8l5.8-13.362Zm29.761,0.461a14.091,14.091,0,1,0-14.092-14.091A14.126,14.126,0,0,0,235.473,67.739Zm0-5.913a8.183,8.183,0,1,1,7.91-8.178A8.088,8.088,0,0,1,235.473,61.826Zm32.793,5.913a14.091,14.091,0,1,0-14.092-14.091A14.126,14.126,0,0,0,268.266,67.739Zm0-5.913a8.183,8.183,0,1,1,7.91-8.178A8.088,8.088,0,0,1,268.266,61.826ZM288.5,67.278H305.9V61.442H294.608V40.017H288.5V67.278Zm18.97-10.866h11.289V50.883H307.473v5.529Zm18.316,10.866h11.98a8.06,8.06,0,0,0,8.294-8.025,7.123,7.123,0,0,0-3.878-6.45,6.417,6.417,0,0,0,1.958-4.684,8.1,8.1,0,0,0-8.1-8.1H325.789V67.278Zm6.105-16.242V45.584h3.456a2.771,2.771,0,0,1,2.841,2.764,2.732,2.732,0,0,1-2.841,2.688h-3.456Zm0,10.636V56.22h5.338a2.773,2.773,0,0,1,2.879,2.726,2.739,2.739,0,0,1-2.841,2.726h-5.376Zm20.2,5.606h17.394V61.442H358.2V40.017h-6.1V67.278Zm23.116,0h17.279V61.442H381.314V56.566h8.87V50.73h-8.87V45.853h11.174V40.017H375.209V67.278Zm48.5,0V40.017h-6.144V56.835L404.316,40.017h-5.26V67.278h6.105V50.422l13.285,16.856h5.261Zm7.681,0h9.292a13.633,13.633,0,1,0,0-27.261h-9.292V67.278Zm6.105-5.606V45.623h3.187a7.693,7.693,0,0,1,7.718,8.025,7.693,7.693,0,0,1-7.718,8.025h-3.187Zm33.638,5.606h9.293a13.633,13.633,0,1,0,0-27.261h-9.293V67.278Zm6.106-5.606V45.623h3.187a7.693,7.693,0,0,1,7.717,8.025,7.693,7.693,0,0,1-7.717,8.025h-3.187Zm34.175,6.067c6.528,0,11.212-4.454,11.212-11.25V40.017h-6.105V56.566c0,3.264-2.074,5.26-5.107,5.26s-5.107-2-5.107-5.26V40.017H500.2V56.489C500.2,63.285,504.846,67.739,511.412,67.739Zm26.726,0c5.76,0,9.715-3.456,9.753-8.409,0.038-4.108-2.534-6.719-6.489-8.14l-1.92-.691c-2.88-1.037-4.224-1.689-4.224-3.148,0-1.421,1.651-2.073,3.3-2.073a6.064,6.064,0,0,1,4.722,2.265l3.994-4.224a11.377,11.377,0,0,0-8.793-3.763c-5.453,0-9.408,3.11-9.408,8.409,0,3.724,2.458,6.374,6.874,7.871l1.919,0.653c2.727,0.922,3.8,1.881,3.8,3.264,0,1.306-1.267,2.265-3.3,2.265a7.134,7.134,0,0,1-5.645-3.11l-4.684,3.955A11.954,11.954,0,0,0,538.138,67.739Zm20.429-.461h6.144V45.853h7.026V40.017h-20.12v5.836h6.95V67.278Zm18.816,0h17.279V61.442H583.488V56.566h8.87V50.73h-8.87V45.853h11.174V40.017H577.383V67.278Zm23.847,0h6.105V56.028h1l9.062,11.25h7.334L615.091,55.26c3.456-1.229,5.337-3.494,5.337-7.026a8.049,8.049,0,0,0-8.447-8.217H601.23V67.278Zm6.105-16.434V45.623h3.916c1.805,0,3.11.96,3.11,2.611,0,1.574-1.3,2.611-3.11,2.611h-3.916ZM42.886,100.877H54.4V98.554H45.341V82.131H42.886v18.746Zm18.163-18.35a1.594,1.594,0,0,0-1.584-1.611,1.64,1.64,0,0,0-1.637,1.611,1.623,1.623,0,0,0,1.637,1.611A1.578,1.578,0,0,0,61.049,82.527ZM58.3,100.877h2.271v-13.2H58.3v13.2Zm7.893,0h2.271V94.329c0-2.984,1.5-4.832,3.644-4.832,1.716,0,2.588,1.479,2.588,3.617v7.762h2.271V94.329c0-2.984,1.479-4.832,3.617-4.832,1.716,0,2.614,1.479,2.614,3.617v7.762h2.271V92.772c0-3.221-1.743-5.36-4.621-5.36a4.569,4.569,0,0,0-4.33,2.825,4.15,4.15,0,0,0-4.066-2.825,4.437,4.437,0,0,0-3.987,2.3V87.676H66.2v13.2Zm27.43-18.35a1.594,1.594,0,0,0-1.584-1.611,1.64,1.64,0,0,0-1.637,1.611,1.623,1.623,0,0,0,1.637,1.611A1.578,1.578,0,0,0,93.627,82.527Zm-2.746,18.35h2.271v-13.2H90.881v13.2Zm15.049-.184V98.66a5.016,5.016,0,0,1-1.61.264c-1.426,0-2.192-.554-2.192-2.244V89.762h3.8V87.676h-3.8v-3.67h-2.27v3.67h-2.8v2.086h2.8V96.97a3.716,3.716,0,0,0,4.04,4.039A6.337,6.337,0,0,0,105.929,100.693Zm3.009-6.416A6.96,6.96,0,0,0,121.717,98l-1.8-1.241a4.674,4.674,0,0,1-8.687-2.033h10.826a6.54,6.54,0,0,0,.026-0.686c-0.026-4.225-2.825-6.627-6.284-6.627A6.69,6.69,0,0,0,108.938,94.277Zm6.786-4.858a3.951,3.951,0,0,1,4.04,3.459h-8.37A4.315,4.315,0,0,1,115.724,89.418Zm9.872,4.858a6.606,6.606,0,0,0,6.469,6.864,5.788,5.788,0,0,0,4.647-2.3v2.033h2.271v-19.8h-2.271v8.634a5.789,5.789,0,0,0-4.647-2.3A6.607,6.607,0,0,0,125.6,94.277Zm11.3,0a4.51,4.51,0,1,1-4.489-4.779A4.508,4.508,0,0,1,136.9,94.277Zm14.412,0a6.606,6.606,0,0,0,6.469,6.864,5.788,5.788,0,0,0,4.647-2.3v2.033H164.7v-13.2h-2.271v2.033a5.789,5.789,0,0,0-4.647-2.3A6.607,6.607,0,0,0,151.309,94.277Zm11.3,0a4.51,4.51,0,1,1-4.489-4.779A4.508,4.508,0,0,1,162.61,94.277Zm11.8,6.6h1.9l6.1-13.2h-2.535l-4.515,9.98-4.515-9.98H168.31Zm10.321-6.6a6.606,6.606,0,0,0,6.469,6.864,5.788,5.788,0,0,0,4.647-2.3v2.033h2.271v-13.2h-2.271v2.033a5.789,5.789,0,0,0-4.647-2.3A6.607,6.607,0,0,0,184.731,94.277Zm11.3,0a4.51,4.51,0,1,1-4.489-4.779A4.508,4.508,0,0,1,196.032,94.277Zm10.427-11.749a1.6,1.6,0,0,0-1.584-1.611,1.641,1.641,0,0,0-1.638,1.611,1.623,1.623,0,0,0,1.638,1.611A1.578,1.578,0,0,0,206.459,82.527Zm-2.746,18.35h2.27v-13.2h-2.27v13.2Zm7.893,0h2.271v-19.8h-2.271v19.8Zm6.864-6.6a6.606,6.606,0,0,0,6.469,6.864,5.789,5.789,0,0,0,4.647-2.3v2.033h2.271v-13.2h-2.271v2.033a5.791,5.791,0,0,0-4.647-2.3A6.606,6.606,0,0,0,218.47,94.277Zm11.3,0a4.51,4.51,0,1,1-4.489-4.779A4.508,4.508,0,0,1,229.771,94.277Zm9.951,4.568a5.788,5.788,0,0,0,4.647,2.3,6.877,6.877,0,0,0,0-13.729,5.789,5.789,0,0,0-4.647,2.3V81.075h-2.271v19.8h2.271V98.844Zm8.792-4.568a4.5,4.5,0,1,1-4.488-4.779A4.507,4.507,0,0,1,248.514,94.277Zm9.635-11.749a1.6,1.6,0,0,0-1.584-1.611,1.64,1.64,0,0,0-1.637,1.611,1.623,1.623,0,0,0,1.637,1.611A1.578,1.578,0,0,0,258.149,82.527Zm-2.746,18.35h2.271v-13.2H255.4v13.2Zm7.893,0h2.271v-19.8H263.3v19.8Zm10.64-18.35a1.6,1.6,0,0,0-1.584-1.611,1.64,1.64,0,0,0-1.637,1.611,1.623,1.623,0,0,0,1.637,1.611A1.578,1.578,0,0,0,273.936,82.527Zm-2.746,18.35h2.271v-13.2H271.19v13.2Zm15.049-.184V98.66a5.022,5.022,0,0,1-1.611.264c-1.426,0-2.191-.554-2.191-2.244V89.762h3.8V87.676h-3.8v-3.67h-2.271v3.67h-2.8v2.086h2.8V96.97a3.716,3.716,0,0,0,4.04,4.039A6.347,6.347,0,0,0,286.239,100.693Zm7.734,5.7,8.661-18.72H300.1l-4.515,10.007-4.542-10.007h-2.508l5.782,12.515-2.878,6.2h2.535Zm14.1-7.288a1.954,1.954,0,1,0-1.954,1.981A1.989,1.989,0,0,0,308.071,99.108Z"/>
  <rect id="Rectangle_4_copy_9" data-name="Rectangle 4 copy 9" x="39" y="169.156" width="122.406" height="3.688"/>
  <path id="Shop_now_copy_5" data-name="Shop now copy 5" class="cls-2" d="M44.216,162.243c2.706,0,4.564-1.653,4.582-4.022,0.018-1.965-1.19-3.214-3.048-3.894l-0.9-.33c-1.353-.5-1.984-0.809-1.984-1.507,0-.679.776-0.991,1.551-0.991a2.831,2.831,0,0,1,2.219,1.083l1.876-2.02a5.3,5.3,0,0,0-4.131-1.8c-2.561,0-4.419,1.488-4.419,4.022,0,1.782,1.154,3.049,3.229,3.766l0.9,0.312c1.281,0.441,1.786.9,1.786,1.561,0,0.625-.6,1.084-1.551,1.084a3.335,3.335,0,0,1-2.652-1.488l-2.2,1.892A5.582,5.582,0,0,0,44.216,162.243Zm9.726-.22H56.81v-5.161h5.159v5.161h2.868V148.982H61.969v5.106H56.81v-5.106H53.942v13.041Zm22.66,0.22a6.742,6.742,0,1,0-6.62-6.74A6.7,6.7,0,0,0,76.6,162.243Zm0-2.828a3.918,3.918,0,1,1,3.716-3.912A3.837,3.837,0,0,1,76.6,159.415Zm20.622-5.97a4.4,4.4,0,0,0-4.51-4.463H88.367v13.041h2.868V157.89h1.479A4.384,4.384,0,0,0,97.224,153.445Zm-2.778,0a1.7,1.7,0,0,1-1.768,1.709H91.235v-3.417h1.443A1.689,1.689,0,0,1,94.446,153.445Zm25.979,8.578V148.982h-2.886v8.045l-6.223-8.045h-2.472v13.041h2.869V153.96l6.241,8.063h2.471Zm11.765,0.22a6.742,6.742,0,1,0-6.62-6.74A6.7,6.7,0,0,0,132.19,162.243Zm0-2.828a3.918,3.918,0,1,1,3.716-3.912A3.837,3.837,0,0,1,132.19,159.415Zm21.686,2.608H156.6l2.976-13.041h-3.067l-1.749,8.266-3.608-8.486-3.59,8.486-1.749-8.266h-3.067l2.959,13.041h2.723l2.724-6.392Z"/>
</svg>
