<svg id="copy" xmlns="http://www.w3.org/2000/svg" width="672" height="1097"><defs><style>.cls-3{fill:#fff}.cls-3,.cls-4{fill-rule:evenodd}</style></defs><g id="play_copy" data-name="play copy"><path id="Polygon_598" data-name="Polygon 598" d="M367.116 336.493l-45.34 43.536v-87.073z" opacity=".77" fill-rule="evenodd" fill="#fff"/><circle cx="335.5" cy="336.5" r="80.5" fill="none" stroke="#fff" stroke-width="5" opacity=".77"/></g><g id="closeBtn_copy" data-name="closeBtn copy"><path id="Shape_593_copy" data-name="Shape 593 copy" class="cls-3" d="M648.164 23.987l.848.847-31.176 31.177-.848-.847zm-30.328 0l-.848.847 31.176 31.177.848-.847z"/></g><path id="CELEBRATING_40_YEARS_OF_ICONIC_STYLE_copy" data-name="CELEBRATING 40 YEARS OF ICONIC STYLE copy" class="cls-3" d="M93.634 476.176a7.915 7.915 0 0 0 7.16-4.185l-3.019-1.64a4.6 4.6 0 1 1 0-4.185l3.019-1.64a7.983 7.983 0 1 0-7.16 11.65zm10.895-.258h9.7v-3.28h-6.276V469.9h4.982v-3.279h-4.982v-2.74h6.276V460.6h-9.7v15.319zm14.042 0h9.768v-3.28H122V460.6h-3.428v15.319zm13.631 0h9.7v-3.28h-6.275V469.9h4.982v-3.279h-4.982v-2.74h6.275V460.6h-9.7v15.319zm14.042 0h6.729a4.528 4.528 0 0 0 4.657-4.51 4 4 0 0 0-2.178-3.624 3.6 3.6 0 0 0 1.1-2.632A4.552 4.552 0 0 0 152 460.6h-5.758v15.319zm3.429-9.127v-3.063h1.941a1.557 1.557 0 0 1 1.6 1.553 1.535 1.535 0 0 1-1.6 1.51h-1.941zm0 5.977V469.7h3a1.558 1.558 0 0 1 1.617 1.532 1.539 1.539 0 0 1-1.6 1.532h-3.019zm11.994 3.15h3.433V469.6h.561l5.089 6.322h4.119l-5.412-6.753a3.955 3.955 0 0 0 3-3.949 4.522 4.522 0 0 0-4.744-4.617h-6.038v15.319zm3.428-9.235v-2.934h2.2a1.526 1.526 0 0 1 1.747 1.467 1.55 1.55 0 0 1-1.747 1.467h-2.2zm10.937 9.235h3.58l1.359-3.237h6.34l1.358 3.237h3.58l-6.556-15.318h-3.105zm6.189-6.214l1.92-4.617 1.919 4.617h-3.839zm14.582 6.214h3.45v-12.039h3.947V460.6h-11.3v3.28h3.9v12.039zm11.217 0h3.429V460.6h-3.429v15.319zm22.235 0V460.6h-3.45v9.45l-7.44-9.45h-2.955v15.319h3.429v-9.472l7.462 9.472h2.954zm12.447.258c2.48 0 4.917-.733 6.275-2.265v-7.271h-6.34v3.215h3v2.265a4.984 4.984 0 0 1-2.976.734 4.6 4.6 0 1 1-.216-9.191 5.081 5.081 0 0 1 3.86 1.64l2.416-2.352a8.148 8.148 0 0 0-6.276-2.611 7.823 7.823 0 0 0-8.065 7.918c-.002 4.488 3.556 7.918 8.32 7.918zm23.425-.258h3.256V472.6h1.962v-2.977h-1.962V460.6h-2.933l-7.806 9.364v2.636h7.483v3.323zm0-6.3h-3.515l3.515-4.229v4.229zm14.559 6.537c3.408 0 5.78-2.589 5.78-6.127v-3.56c0-3.539-2.372-6.128-5.78-6.128-3.428 0-5.8 2.589-5.8 6.128v3.56c0 3.538 2.372 6.127 5.8 6.127zm0-3.215c-1.509 0-2.544-1.079-2.544-2.912v-3.56c0-1.834 1.035-2.913 2.544-2.913 1.488 0 2.523 1.079 2.523 2.913v3.56c0 1.833-1.035 2.912-2.523 2.912zm20.255 2.978h3.45v-6.43l5.585-8.889h-3.989l-3.343 5.524-3.3-5.524h-3.99l5.586 8.868v6.451zm12.554 0h9.7v-3.28h-6.275V469.9h4.98v-3.279h-4.981v-2.74h6.281V460.6h-9.7v15.319zm12.4 0h3.58l1.358-3.237h6.34l1.359 3.237h3.58l-6.553-15.318h-3.105zm6.189-6.214l1.919-4.617 1.92 4.617h-3.839zm13.353 6.214h3.429V469.6h.56l5.09 6.322h4.118l-5.412-6.753a3.954 3.954 0 0 0 3-3.949 4.522 4.522 0 0 0-4.744-4.617h-6.038v15.319zm3.429-9.235v-2.934h2.2a1.526 1.526 0 0 1 1.747 1.467 1.55 1.55 0 0 1-1.747 1.467h-2.2zm17.147 9.493c3.235 0 5.456-1.941 5.478-4.724.021-2.309-1.424-3.776-3.645-4.574l-1.078-.389c-1.617-.582-2.372-.949-2.372-1.769 0-.8.927-1.165 1.854-1.165a3.406 3.406 0 0 1 2.653 1.273l2.243-2.373a6.389 6.389 0 0 0-4.939-2.115c-3.062 0-5.283 1.748-5.283 4.725 0 2.093 1.38 3.582 3.86 4.423l1.078.367c1.531.518 2.135 1.057 2.135 1.834 0 .733-.712 1.273-1.854 1.273a4 4 0 0 1-3.17-1.748l-2.631 2.222a6.712 6.712 0 0 0 5.674 2.74zm23.1 0a7.918 7.918 0 1 0-7.914-7.918 7.935 7.935 0 0 0 7.917 7.918zm0-3.322a4.6 4.6 0 1 1 4.443-4.6 4.544 4.544 0 0 1-4.44 4.6zm12.016 3.064h3.429v-6h4.679v-3.28h-4.679v-2.761h6V460.6h-9.424v15.319zm19.435 0H424V460.6h-3.428v15.319zm15.442.258a7.913 7.913 0 0 0 7.159-4.185l-3.019-1.64a4.6 4.6 0 1 1 0-4.185l3.019-1.64a7.983 7.983 0 1 0-7.156 11.65zm17.946 0a7.918 7.918 0 1 0-7.914-7.918 7.934 7.934 0 0 0 7.917 7.918zm0-3.322a4.6 4.6 0 1 1 4.442-4.6 4.544 4.544 0 0 1-4.439 4.6zm25.86 3.064V460.6h-3.45v9.45l-7.44-9.45h-2.954v15.319h3.432v-9.472l7.462 9.472h2.954zm4.964 0h3.429V460.6h-3.429v15.319zm15.442.258a7.915 7.915 0 0 0 7.16-4.185l-3.019-1.64a4.6 4.6 0 1 1 0-4.185l3.019-1.64a7.983 7.983 0 1 0-7.157 11.65zm21.937 0c3.235 0 5.456-1.941 5.478-4.724.021-2.309-1.424-3.776-3.645-4.574l-1.078-.389c-1.617-.582-2.372-.949-2.372-1.769 0-.8.927-1.165 1.854-1.165a3.406 3.406 0 0 1 2.653 1.273l2.243-2.373a6.389 6.389 0 0 0-4.939-2.115c-3.062 0-5.283 1.748-5.283 4.725 0 2.093 1.38 3.582 3.86 4.423l1.078.367c1.531.518 2.135 1.057 2.135 1.834 0 .733-.711 1.273-1.854 1.273a4 4 0 0 1-3.17-1.748l-2.631 2.222a6.712 6.712 0 0 0 5.674 2.74zm12.123-.258h3.45v-12.039h3.947V460.6h-11.3v3.28h3.9v12.039zm15.357 0h3.45v-6.43l5.586-8.889h-3.99l-3.342 5.524-3.3-5.524h-3.989l5.585 8.868v6.451zm12.554 0h9.769v-3.28h-6.34V460.6h-3.429v15.319zm13.632 0h9.7v-3.28h-6.275V469.9h4.981v-3.279h-4.981v-2.74h6.275V460.6h-9.7v15.319z"/><path id="Banana_Republic_was_born_from_two_California_creatives_fueled_b_copy" data-name="Banana Republic was born from two California creatives fueled b copy" class="cls-4" d="M38.944 834.323h5.081c2.881 0 4.761-1.781 4.761-4.141a3.384 3.384 0 0 0-2.461-3.4 3.219 3.219 0 0 0 1.52-2.9c0-2-1.6-3.76-4.241-3.76h-4.66v14.2zm1.86-8.1V821.8h2.8a2.233 2.233 0 0 1 2.421 2.22 2.186 2.186 0 0 1-2.421 2.2H40.8zm0 6.421v-4.821h3.321c1.88 0 2.841 1.04 2.841 2.421 0 1.4-.96 2.4-2.861 2.4H40.8zm10.18-3.321a5.006 5.006 0 0 0 4.9 5.2 4.388 4.388 0 0 0 3.521-1.741v1.541h1.72v-10h-1.72v1.541a4.388 4.388 0 0 0-3.521-1.741 5.005 5.005 0 0 0-4.9 5.198zm8.562 0a3.417 3.417 0 1 1-3.4-3.62 3.415 3.415 0 0 1 3.4 3.618zm5.318 5h1.72v-4.962c0-2.34 1.28-3.66 2.9-3.66 1.4 0 2.361 1.04 2.361 2.72v5.9h1.7v-6.162c0-2.48-1.54-4.041-3.781-4.041a3.536 3.536 0 0 0-3.181 1.741v-1.539h-1.72v10zm11.5-5a5.006 5.006 0 0 0 4.9 5.2 4.387 4.387 0 0 0 3.521-1.741v1.541h1.72v-10h-1.72v1.541a4.387 4.387 0 0 0-3.521-1.741 5.005 5.005 0 0 0-4.899 5.198zm8.562 0a3.417 3.417 0 1 1-3.4-3.62 3.415 3.415 0 0 1 3.401 3.618zm5.318 5h1.72v-4.962c0-2.34 1.28-3.66 2.9-3.66 1.4 0 2.361 1.04 2.361 2.72v5.9h1.7v-6.162c0-2.48-1.54-4.041-3.781-4.041a3.536 3.536 0 0 0-3.181 1.741v-1.539h-1.72v10zm11.5-5a5.005 5.005 0 0 0 4.9 5.2 4.388 4.388 0 0 0 3.521-1.741v1.541h1.72v-10h-1.72v1.541a4.388 4.388 0 0 0-3.521-1.741 5.005 5.005 0 0 0-4.899 5.198zm8.562 0a3.417 3.417 0 1 1-3.4-3.62 3.415 3.415 0 0 1 3.401 3.618zm10.958 5h1.86v-6.462h1.381l5.461 6.462h2.341l-5.462-6.482a3.705 3.705 0 0 0 3.5-3.8c0-2.34-1.62-3.92-4.241-3.92h-4.841v14.2zm1.86-8.122v-4.361h2.761c1.62 0 2.6.76 2.6 2.2 0 1.421-.981 2.161-2.6 2.161h-2.761zm10 3.12a5.273 5.273 0 0 0 9.682 2.821l-1.36-.94a3.542 3.542 0 0 1-6.582-1.54h8.2a4.907 4.907 0 0 0 .02-.521c-.02-3.2-2.14-5.021-4.761-5.021a5.068 5.068 0 0 0-5.198 5.201zm5.141-3.68a2.992 2.992 0 0 1 3.061 2.62h-6.342a3.27 3.27 0 0 1 3.282-2.62zm7.759 12.862h1.721v-5.721a4.387 4.387 0 0 0 3.521 1.741 5.211 5.211 0 0 0 0-10.4 4.387 4.387 0 0 0-3.521 1.741v-1.544h-1.721v14.18zm8.382-9.182a3.407 3.407 0 1 1-3.4-3.62 3.415 3.415 0 0 1 3.401 3.62zm4.6 1.141c0 2.48 1.48 4.061 3.68 4.061a3.442 3.442 0 0 0 3.081-1.741v1.541h1.721v-10h-1.721v4.961c0 2.3-1.22 3.661-2.78 3.661-1.381 0-2.261-1.06-2.261-2.74v-5.885h-1.72v6.142zm13.94 2.32a4.388 4.388 0 0 0 3.521 1.741 5.211 5.211 0 0 0 0-10.4 4.388 4.388 0 0 0-3.521 1.741v-6.542h-1.72v15h1.72v-1.541zm6.662-3.461a3.408 3.408 0 1 1-3.4-3.62 3.415 3.415 0 0 1 3.4 3.62zm4.718 5h1.72v-15h-1.72v15zm7.56-13.9a1.208 1.208 0 0 0-1.2-1.221 1.242 1.242 0 0 0-1.24 1.221 1.229 1.229 0 0 0 1.24 1.22 1.2 1.2 0 0 0 1.2-1.221zm-2.08 13.9h1.72v-10h-1.72v10zm14.562-2.481l-1.5-.84a3.391 3.391 0 0 1-3.121 1.92 3.6 3.6 0 0 1 0-7.2 3.391 3.391 0 0 1 3.121 1.92l1.5-.84a5.181 5.181 0 0 0-4.621-2.681 5.2 5.2 0 1 0 0 10.4 5.181 5.181 0 0 0 4.621-2.677zm16.22 2.481h1.52l3.4-10h-1.82l-2.421 7.3-2.5-7.3h-1.321l-2.5 7.3-2.421-7.3h-1.8l3.4 10h1.52l2.48-7.2zm6.458-5a5.005 5.005 0 0 0 4.9 5.2 4.387 4.387 0 0 0 3.521-1.741v1.541h1.72v-10h-1.72v1.541a4.387 4.387 0 0 0-3.521-1.741 5.005 5.005 0 0 0-4.9 5.2zm8.562 0a3.417 3.417 0 1 1-3.4-3.62 3.415 3.415 0 0 1 3.4 3.62zm11.8 2.221c0-1.5-.94-2.461-2.641-3.021l-1.08-.36c-1.18-.38-1.54-.76-1.54-1.4 0-.74.74-1.16 1.68-1.16a2.705 2.705 0 0 1 2.121 1.04l1.12-1.08a3.878 3.878 0 0 0-3.2-1.441c-1.98 0-3.381 1.1-3.381 2.721 0 1.4.86 2.38 2.481 2.9l.98.32c1.3.42 1.78.9 1.78 1.6a1.522 1.522 0 0 1-1.76 1.36 2.686 2.686 0 0 1-2.561-1.58l-1.4.76a3.974 3.974 0 0 0 3.921 2.321c2.02.001 3.48-1.022 3.48-2.98zm10.059 1.24a4.387 4.387 0 0 0 3.521 1.741 5.211 5.211 0 0 0 0-10.4 4.387 4.387 0 0 0-3.521 1.741v-6.542h-1.721v15h1.721v-1.541zm6.661-3.461a3.407 3.407 0 1 1-3.4-3.62 3.415 3.415 0 0 1 3.4 3.62zm14.381 0a5.232 5.232 0 1 0-5.222 5.2 5.134 5.134 0 0 0 5.222-5.2zm-8.7 0a3.473 3.473 0 1 1 3.48 3.6 3.437 3.437 0 0 1-3.482-3.6zm11.659 5h1.721v-4.962c0-2.34 1.38-3.44 2.64-3.44a2.516 2.516 0 0 1 .941.16V824.3a3.564 3.564 0 0 0-.78-.08 2.976 2.976 0 0 0-2.8 2.041v-1.941h-1.721v10zm7.821 0h1.72v-4.962c0-2.34 1.28-3.66 2.9-3.66 1.4 0 2.36 1.04 2.36 2.72v5.9h1.7v-6.162c0-2.48-1.541-4.041-3.781-4.041a3.536 3.536 0 0 0-3.181 1.741v-1.537h-1.72v10zm18.24 0h1.72V825.9h2.9v-1.58h-2.9v-1.84a1.441 1.441 0 0 1 1.661-1.7 4.027 4.027 0 0 1 1.24.2v-1.521a4.545 4.545 0 0 0-1.56-.26 2.857 2.857 0 0 0-3.061 3.1v2.02h-2.12v1.581h2.12v8.422zm7 0h1.72v-4.962c0-2.34 1.381-3.44 2.641-3.44a2.514 2.514 0 0 1 .94.16V824.3a3.564 3.564 0 0 0-.78-.08 2.977 2.977 0 0 0-2.8 2.041v-1.941h-1.72v10zm17.122-5a5.231 5.231 0 1 0-5.221 5.2 5.133 5.133 0 0 0 5.219-5.2zm-8.7 0a3.473 3.473 0 1 1 3.481 3.6 3.438 3.438 0 0 1-3.485-3.6zm11.66 5h1.721v-4.962c0-2.26 1.14-3.66 2.76-3.66 1.3 0 1.961 1.12 1.961 2.74v5.882h1.72v-4.962c0-2.26 1.12-3.66 2.741-3.66 1.3 0 1.98 1.12 1.98 2.74v5.882h1.721v-6.142c0-2.44-1.321-4.061-3.5-4.061a3.463 3.463 0 0 0-3.281 2.141 3.145 3.145 0 0 0-3.081-2.141 3.36 3.36 0 0 0-3.02 1.741v-1.539h-1.721v10zm28.662-.141v-1.54a3.8 3.8 0 0 1-1.22.2 1.44 1.44 0 0 1-1.661-1.7v-5.24h2.881v-1.58h-2.881v-2.78h-1.72v2.78h-2.121v1.58h2.121v5.461a2.816 2.816 0 0 0 3.06 3.061 4.758 4.758 0 0 0 1.537-.24zm11.181.141h1.52l3.4-10h-1.824l-2.42 7.3-2.5-7.3h-1.32l-2.5 7.3-2.42-7.3h-1.8l3.4 10h1.521l2.48-7.2zm16.9-5a5.231 5.231 0 1 0-5.221 5.2 5.133 5.133 0 0 0 5.217-5.2zm-8.7 0a3.473 3.473 0 1 1 3.481 3.6 3.437 3.437 0 0 1-3.487-3.6zm16.32-2.1a7.381 7.381 0 0 0 13.623 3.9l-1.56-.94a5.581 5.581 0 1 1 0-5.922l1.56-.94a7.381 7.381 0 0 0-13.629 3.902zm15.54 2.1a5.005 5.005 0 0 0 4.9 5.2 4.388 4.388 0 0 0 3.521-1.741v1.541h1.72v-10h-1.72v1.541a4.388 4.388 0 0 0-3.521-1.741 5.005 5.005 0 0 0-4.906 5.2zm8.562 0a3.417 3.417 0 1 1-3.4-3.62 3.415 3.415 0 0 1 3.394 3.62zm5.318 5h1.721v-15h-1.721v15zm7.561-13.9a1.209 1.209 0 0 0-1.2-1.221 1.242 1.242 0 0 0-1.24 1.221 1.229 1.229 0 0 0 1.24 1.22 1.2 1.2 0 0 0 1.194-1.221zm-2.081 13.9h1.721v-10h-1.721v10zm6.32 0h1.721V825.9h2.9v-1.58h-2.9v-1.84a1.44 1.44 0 0 1 1.66-1.7 4.027 4.027 0 0 1 1.24.2v-1.521a4.545 4.545 0 0 0-1.56-.26 2.857 2.857 0 0 0-3.061 3.1v2.02h-2.12v1.581h2.12v8.422zm16.4-5a5.232 5.232 0 1 0-5.222 5.2 5.134 5.134 0 0 0 5.219-5.2zm-8.7 0a3.473 3.473 0 1 1 3.48 3.6 3.437 3.437 0 0 1-3.485-3.6zm11.659 5h1.721v-4.962c0-2.34 1.38-3.44 2.64-3.44a2.516 2.516 0 0 1 .941.16V824.3a3.564 3.564 0 0 0-.78-.08 2.976 2.976 0 0 0-2.8 2.041v-1.941h-1.721v10zm7.821 0h1.72v-4.962c0-2.34 1.28-3.66 2.9-3.66 1.4 0 2.36 1.04 2.36 2.72v5.9h1.7v-6.162c0-2.48-1.541-4.041-3.781-4.041a3.536 3.536 0 0 0-3.181 1.741v-1.537h-1.72v10zm14.36-13.9a1.208 1.208 0 0 0-1.2-1.221 1.242 1.242 0 0 0-1.24 1.221 1.229 1.229 0 0 0 1.24 1.22 1.2 1.2 0 0 0 1.195-1.221zm-2.08 13.9h1.72v-10h-1.72v10zm4.7-5a5.006 5.006 0 0 0 4.9 5.2 4.386 4.386 0 0 0 3.52-1.741v1.541h1.721v-10h-1.725v1.541a4.386 4.386 0 0 0-3.52-1.741 5.006 5.006 0 0 0-4.902 5.2zm8.563 0a3.417 3.417 0 1 1-3.4-3.62 3.415 3.415 0 0 1 3.394 3.62zm19.78 2.521l-1.5-.84a3.39 3.39 0 0 1-3.12 1.92 3.6 3.6 0 0 1 0-7.2 3.39 3.39 0 0 1 3.12 1.92l1.5-.84a5.181 5.181 0 0 0-4.621-2.681 5.2 5.2 0 1 0 0 10.4 5.181 5.181 0 0 0 4.615-2.679zm2.718 2.481h1.72v-4.962c0-2.34 1.38-3.44 2.641-3.44a2.514 2.514 0 0 1 .94.16V824.3a3.564 3.564 0 0 0-.78-.08 2.977 2.977 0 0 0-2.8 2.041v-1.941h-1.72v10zm6.68-5a5.273 5.273 0 0 0 9.682 2.821l-1.36-.94a3.542 3.542 0 0 1-6.582-1.54h8.2a4.907 4.907 0 0 0 .02-.521c-.02-3.2-2.14-5.021-4.761-5.021a5.068 5.068 0 0 0-5.205 5.199zm5.141-3.68a2.993 2.993 0 0 1 3.061 2.62h-6.342a3.27 3.27 0 0 1 3.275-2.622zm6.979 3.68a5.006 5.006 0 0 0 4.9 5.2 4.387 4.387 0 0 0 3.521-1.741v1.541h1.72v-10h-1.72v1.541a4.387 4.387 0 0 0-3.521-1.741 5.006 5.006 0 0 0-4.906 5.198zm8.562 0a3.417 3.417 0 1 1-3.4-3.62 3.415 3.415 0 0 1 3.394 3.618zm10.74 4.861v-1.54a3.808 3.808 0 0 1-1.221.2 1.44 1.44 0 0 1-1.66-1.7V825.9h2.881v-1.58h-2.887v-2.78h-1.72v2.78h-2.121v1.58h2.121v5.461a2.816 2.816 0 0 0 3.06 3.061 4.763 4.763 0 0 0 1.541-.24zm4.779-13.762a1.208 1.208 0 0 0-1.2-1.221 1.242 1.242 0 0 0-1.24 1.221 1.229 1.229 0 0 0 1.24 1.22 1.2 1.2 0 0 0 1.194-1.222zm-2.08 13.9h1.72v-10h-1.72v10zm8.6 0h1.441l4.621-10h-1.921l-3.421 7.562-3.42-7.562h-1.921zm7.3-5a5.273 5.273 0 0 0 9.682 2.821l-1.36-.94a3.542 3.542 0 0 1-6.582-1.54h8.2a4.907 4.907 0 0 0 .02-.521c-.02-3.2-2.141-5.021-4.761-5.021a5.068 5.068 0 0 0-5.205 5.2zm5.141-3.68a2.993 2.993 0 0 1 3.061 2.62h-6.348a3.27 3.27 0 0 1 3.281-2.621zm14.241 5.9c0-1.5-.941-2.461-2.641-3.021l-1.08-.36c-1.181-.38-1.541-.76-1.541-1.4 0-.74.741-1.16 1.681-1.16a2.7 2.7 0 0 1 2.12 1.04l1.121-1.08a3.879 3.879 0 0 0-3.2-1.441c-1.981 0-3.381 1.1-3.381 2.721 0 1.4.86 2.38 2.481 2.9l.98.32c1.3.42 1.78.9 1.78 1.6a1.522 1.522 0 0 1-1.76 1.36 2.685 2.685 0 0 1-2.561-1.58l-1.4.76a3.973 3.973 0 0 0 3.921 2.321c2.013.001 3.474-1.022 3.474-2.98zM39.524 864.323h1.72V855.9h2.9v-1.58h-2.9v-1.84a1.44 1.44 0 0 1 1.66-1.7 4.029 4.029 0 0 1 1.24.2v-1.521a4.548 4.548 0 0 0-1.56-.26 2.857 2.857 0 0 0-3.061 3.1v2.02H37.4v1.581h2.121v8.422zm6.86-3.861c0 2.48 1.48 4.061 3.681 4.061a3.442 3.442 0 0 0 3.081-1.741v1.541h1.72v-10h-1.72v4.961c0 2.3-1.22 3.661-2.781 3.661-1.38 0-2.261-1.06-2.261-2.74v-5.885h-1.72v6.142zm11.44-1.141a5.273 5.273 0 0 0 9.682 2.821l-1.36-.94a3.542 3.542 0 0 1-6.582-1.54h8.2a4.907 4.907 0 0 0 .02-.521c-.02-3.2-2.141-5.021-4.761-5.021a5.069 5.069 0 0 0-5.199 5.201zm5.141-3.68a2.992 2.992 0 0 1 3.061 2.62h-6.341a3.27 3.27 0 0 1 3.28-2.62zm7.759 8.682h1.72v-15h-1.72v15zm4.7-5a5.273 5.273 0 0 0 9.682 2.821l-1.36-.94a3.542 3.542 0 0 1-6.582-1.54h8.2a4.907 4.907 0 0 0 .02-.521c-.02-3.2-2.141-5.021-4.761-5.021a5.069 5.069 0 0 0-5.199 5.199zm5.141-3.68a2.992 2.992 0 0 1 3.061 2.62h-6.341a3.27 3.27 0 0 1 3.281-2.622zm6.979 3.68a5.006 5.006 0 0 0 4.9 5.2 4.387 4.387 0 0 0 3.521-1.741v1.541h1.72v-15h-1.72v6.542a4.387 4.387 0 0 0-3.521-1.741 5.005 5.005 0 0 0-4.899 5.197zm8.562 0a3.417 3.417 0 1 1-3.4-3.62 3.415 3.415 0 0 1 3.401 3.618zm12.419 3.461a4.388 4.388 0 0 0 3.521 1.741 5.211 5.211 0 0 0 0-10.4 4.388 4.388 0 0 0-3.521 1.741v-6.542h-1.72v15h1.72v-1.541zm6.662-3.461a3.408 3.408 0 1 1-3.4-3.62 3.415 3.415 0 0 1 3.4 3.618zm7.179 9.182l6.561-14.183h-1.92l-3.421 7.582-3.441-7.582h-1.9l4.381 9.482-2.181 4.7h1.921zm18.8-4.321v-1.54a3.808 3.808 0 0 1-1.221.2 1.44 1.44 0 0 1-1.66-1.7V855.9h2.881v-1.58h-2.881v-2.78h-1.72v2.78h-2.121v1.58h2.121v5.461a2.816 2.816 0 0 0 3.06 3.061 4.763 4.763 0 0 0 1.542-.24zm2.7.141h1.721v-4.962c0-2.34 1.28-3.66 2.9-3.66 1.4 0 2.36 1.04 2.36 2.72v5.9h1.7v-6.162c0-2.48-1.541-4.041-3.781-4.041a3.536 3.536 0 0 0-3.181 1.741v-6.542h-1.721v15zm11.5-5a5.274 5.274 0 0 0 9.683 2.821l-1.361-.94a3.541 3.541 0 0 1-6.581-1.54h8.2a4.907 4.907 0 0 0 .02-.521c-.02-3.2-2.141-5.021-4.761-5.021a5.069 5.069 0 0 0-5.201 5.197zm5.142-3.68a2.992 2.992 0 0 1 3.06 2.62h-6.341a3.269 3.269 0 0 1 3.28-2.624zm9.839-5.221a1.208 1.208 0 0 0-1.2-1.221 1.242 1.242 0 0 0-1.24 1.221 1.229 1.229 0 0 0 1.24 1.22 1.2 1.2 0 0 0 1.199-1.224zm-2.08 13.9h1.72v-10h-1.72v10zm5.48 0h1.72v-4.962c0-2.34 1.38-3.44 2.641-3.44a2.514 2.514 0 0 1 .94.16V854.3a3.564 3.564 0 0 0-.78-.08 2.977 2.977 0 0 0-2.8 2.041v-1.941h-1.72v10zm11.92-5a5.273 5.273 0 0 0 9.682 2.821l-1.36-.94a3.542 3.542 0 0 1-6.582-1.54h8.2a4.907 4.907 0 0 0 .02-.521c-.02-3.2-2.14-5.021-4.761-5.021a5.068 5.068 0 0 0-5.2 5.198zm5.141-3.68a2.993 2.993 0 0 1 3.061 2.62h-6.342a3.27 3.27 0 0 1 3.28-2.623zm5.9 8.682h2.14l3.041-3.781 3.041 3.781h2.12l-4.081-5.062 3.761-4.941h-2.1l-2.741 3.6-2.761-3.6h-2.08l3.761 4.941zm12.6 4.18h1.72v-5.721a4.387 4.387 0 0 0 3.521 1.741 5.211 5.211 0 0 0 0-10.4 4.387 4.387 0 0 0-3.521 1.741v-1.547h-1.72v14.18zm8.382-9.182a3.408 3.408 0 1 1-3.4-3.62 3.415 3.415 0 0 1 3.399 3.617zm4.738 5h1.72v-15h-1.72v15zm15.142-5a5.231 5.231 0 1 0-5.221 5.2 5.133 5.133 0 0 0 5.22-5.203zm-8.7 0a3.473 3.473 0 1 1 3.481 3.6 3.437 3.437 0 0 1-3.484-3.603zm11.66 5h1.72v-4.962c0-2.34 1.381-3.44 2.641-3.44a2.514 2.514 0 0 1 .94.16V854.3a3.564 3.564 0 0 0-.78-.08 2.977 2.977 0 0 0-2.8 2.041v-1.941h-1.72v10zm6.68-5a5.273 5.273 0 0 0 9.682 2.821l-1.36-.94a3.542 3.542 0 0 1-6.582-1.54h8.2a4.907 4.907 0 0 0 .02-.521c-.02-3.2-2.14-5.021-4.761-5.021a5.069 5.069 0 0 0-5.202 5.198zm5.141-3.68a2.992 2.992 0 0 1 3.061 2.62h-6.342a3.271 3.271 0 0 1 3.278-2.623zm7.759 8.682h1.721v-4.962c0-2.34 1.38-3.44 2.64-3.44a2.516 2.516 0 0 1 .941.16V854.3a3.566 3.566 0 0 0-.781-.08 2.976 2.976 0 0 0-2.8 2.041v-1.941h-1.721v10zm19.182-2.781c0-1.5-.94-2.461-2.641-3.021l-1.08-.36c-1.18-.38-1.54-.76-1.54-1.4 0-.74.74-1.16 1.68-1.16a2.7 2.7 0 0 1 2.121 1.04l1.12-1.08a3.877 3.877 0 0 0-3.2-1.441c-1.98 0-3.381 1.1-3.381 2.721 0 1.4.861 2.38 2.481 2.9l.98.32c1.3.42 1.781.9 1.781 1.6a1.523 1.523 0 0 1-1.761 1.36 2.684 2.684 0 0 1-2.56-1.58l-1.4.76a3.974 3.974 0 0 0 3.921 2.321c2.016-.002 3.476-1.025 3.476-2.983zm2.959 6.961h1.72v-5.721a4.387 4.387 0 0 0 3.521 1.741 5.211 5.211 0 0 0 0-10.4 4.387 4.387 0 0 0-3.521 1.741v-1.547h-1.72v14.18zm8.382-9.182a3.408 3.408 0 1 1-3.4-3.62 3.415 3.415 0 0 1 3.397 3.617zm6.818-8.9a1.208 1.208 0 0 0-1.2-1.221 1.242 1.242 0 0 0-1.24 1.221 1.229 1.229 0 0 0 1.24 1.22 1.2 1.2 0 0 0 1.197-1.224zm-2.08 13.9h1.72v-10h-1.72v10zm5.48 0h1.72v-4.962c0-2.34 1.381-3.44 2.641-3.44a2.514 2.514 0 0 1 .94.16V854.3a3.564 3.564 0 0 0-.78-.08 2.977 2.977 0 0 0-2.8 2.041v-1.941h-1.72v10zm9.9-13.9a1.208 1.208 0 0 0-1.2-1.221 1.242 1.242 0 0 0-1.24 1.221 1.229 1.229 0 0 0 1.24 1.22 1.2 1.2 0 0 0 1.197-1.224zm-2.08 13.9h1.72v-10h-1.72v10zm10.9-.141v-1.54a3.8 3.8 0 0 1-1.22.2 1.44 1.44 0 0 1-1.66-1.7V855.9h2.88v-1.58h-2.88v-2.78h-1.721v2.78h-2.12v1.58h2.12v5.461a2.816 2.816 0 0 0 3.061 3.061 4.756 4.756 0 0 0 1.538-.24zm9.181-2.64c0-1.5-.941-2.461-2.641-3.021l-1.08-.36c-1.18-.38-1.541-.76-1.541-1.4 0-.74.741-1.16 1.681-1.16a2.7 2.7 0 0 1 2.12 1.04l1.121-1.08a3.879 3.879 0 0 0-3.2-1.441c-1.981 0-3.381 1.1-3.381 2.721 0 1.4.86 2.38 2.481 2.9l.98.32c1.3.42 1.78.9 1.78 1.6a1.522 1.522 0 0 1-1.76 1.36 2.685 2.685 0 0 1-2.561-1.58l-1.4.76a3.973 3.973 0 0 0 3.921 2.321c2.017 0 3.478-1.023 3.478-2.981zm5.339 1.44a1.481 1.481 0 1 0-1.481 1.5 1.507 1.507 0 0 0 1.479-1.501zm7.819-5.761a7.381 7.381 0 0 0 13.623 3.9l-1.56-.94a5.581 5.581 0 1 1 0-5.922l1.56-.94a7.381 7.381 0 0 0-13.625 3.901zm16.18 3.241c0 2.48 1.481 4.061 3.681 4.061a3.442 3.442 0 0 0 3.081-1.741v1.541h1.72v-10h-1.72v4.961c0 2.3-1.22 3.661-2.781 3.661-1.38 0-2.26-1.06-2.26-2.74v-5.886h-1.721v6.142zm12.221 3.861h1.72v-4.962c0-2.34 1.38-3.44 2.641-3.44a2.514 2.514 0 0 1 .94.16V854.3a3.564 3.564 0 0 0-.78-.08 2.976 2.976 0 0 0-2.8 2.041v-1.941h-1.72v10zm9.9-13.9a1.208 1.208 0 0 0-1.2-1.221 1.242 1.242 0 0 0-1.24 1.221 1.229 1.229 0 0 0 1.24 1.22 1.2 1.2 0 0 0 1.198-1.224zm-2.08 13.9h1.72v-10h-1.72v10zm15.142-5a5.231 5.231 0 1 0-5.221 5.2 5.133 5.133 0 0 0 5.219-5.203zm-8.7 0a3.473 3.473 0 1 1 3.481 3.6 3.437 3.437 0 0 1-3.485-3.603zm11.52 1.141c0 2.48 1.48 4.061 3.681 4.061a3.442 3.442 0 0 0 3.08-1.741v1.541h1.721v-10h-1.725v4.961c0 2.3-1.22 3.661-2.78 3.661-1.381 0-2.261-1.06-2.261-2.74v-5.888h-1.72v6.142zm18.7 1.08c0-1.5-.941-2.461-2.641-3.021l-1.08-.36c-1.181-.38-1.541-.76-1.541-1.4 0-.74.74-1.16 1.681-1.16a2.7 2.7 0 0 1 2.12 1.04l1.12-1.08a3.876 3.876 0 0 0-3.2-1.441c-1.981 0-3.381 1.1-3.381 2.721 0 1.4.86 2.38 2.48 2.9l.981.32c1.3.42 1.78.9 1.78 1.6a1.522 1.522 0 0 1-1.76 1.36 2.684 2.684 0 0 1-2.561-1.58l-1.4.76a3.973 3.973 0 0 0 3.921 2.321c2.018-.002 3.479-1.025 3.479-2.983zm5.1 2.34a1.71 1.71 0 0 0 .28-.9 1.481 1.481 0 1 0-2.961 0 1.491 1.491 0 0 0 .82 1.341l-1.34 2.86h1.14zm17.941-2.04l-1.5-.84a3.391 3.391 0 0 1-3.121 1.92 3.6 3.6 0 0 1 0-7.2 3.391 3.391 0 0 1 3.121 1.92l1.5-.84a5.18 5.18 0 0 0-4.621-2.681 5.2 5.2 0 1 0 0 10.4 5.18 5.18 0 0 0 4.618-2.682zm12.38-2.521a5.231 5.231 0 1 0-5.221 5.2 5.133 5.133 0 0 0 5.218-5.203zm-8.7 0a3.473 3.473 0 1 1 3.481 3.6 3.438 3.438 0 0 1-3.486-3.603zm11.66 5h1.721v-4.962c0-2.34 1.28-3.66 2.9-3.66 1.4 0 2.361 1.04 2.361 2.72v5.9h1.7v-6.162c0-2.48-1.54-4.041-3.781-4.041a3.535 3.535 0 0 0-3.18 1.741v-1.54h-1.721v10zm12.28 0h1.721v-4.962c0-2.34 1.28-3.66 2.9-3.66 1.4 0 2.361 1.04 2.361 2.72v5.9h1.7v-6.162c0-2.48-1.54-4.041-3.781-4.041a3.535 3.535 0 0 0-3.18 1.741v-1.54h-1.721v10zm11.5-5a5.273 5.273 0 0 0 9.683 2.821l-1.361-.94a3.541 3.541 0 0 1-6.581-1.54h8.2a4.907 4.907 0 0 0 .02-.521c-.02-3.2-2.141-5.021-4.762-5.021a5.069 5.069 0 0 0-5.204 5.198zm5.141-3.68a2.992 2.992 0 0 1 3.061 2.62h-6.346a3.269 3.269 0 0 1 3.28-2.623zm16.842 6.2l-1.5-.84a3.39 3.39 0 0 1-3.12 1.92 3.6 3.6 0 0 1 0-7.2 3.39 3.39 0 0 1 3.12 1.92l1.5-.84a5.181 5.181 0 0 0-4.621-2.681 5.2 5.2 0 1 0 0 10.4 5.181 5.181 0 0 0 4.616-2.681zm8.139 2.34v-1.54a3.8 3.8 0 0 1-1.22.2 1.44 1.44 0 0 1-1.661-1.7V855.9h2.881v-1.58h-2.886v-2.78h-1.72v2.78h-2.121v1.58h2.121v5.461a2.816 2.816 0 0 0 3.06 3.061 4.758 4.758 0 0 0 1.541-.24zm1.779-4.861a5.273 5.273 0 0 0 9.682 2.821l-1.36-.94a3.542 3.542 0 0 1-6.582-1.54h8.2a4.907 4.907 0 0 0 .02-.521c-.02-3.2-2.14-5.021-4.761-5.021a5.068 5.068 0 0 0-5.204 5.199zm5.141-3.68a2.993 2.993 0 0 1 3.061 2.62h-6.347a3.27 3.27 0 0 1 3.281-2.622zm6.979 3.68a5.005 5.005 0 0 0 4.9 5.2 4.388 4.388 0 0 0 3.521-1.741v1.541h1.72v-15h-1.72v6.542a4.388 4.388 0 0 0-3.521-1.741 5.005 5.005 0 0 0-4.905 5.197zm8.562 0a3.417 3.417 0 1 1-3.4-3.62 3.415 3.415 0 0 1 3.395 3.618zm9.918 0a5.005 5.005 0 0 0 4.9 5.2 4.388 4.388 0 0 0 3.521-1.741v1.541h1.72v-10h-1.72v1.541a4.388 4.388 0 0 0-3.521-1.741 5.005 5.005 0 0 0-4.905 5.198zm8.562 0a3.417 3.417 0 1 1-3.4-3.62 3.415 3.415 0 0 1 3.395 3.618zm5.318 5h1.721v-4.962c0-2.34 1.28-3.66 2.9-3.66 1.4 0 2.361 1.04 2.361 2.72v5.9h1.7v-6.162c0-2.48-1.54-4.041-3.781-4.041a3.535 3.535 0 0 0-3.18 1.741v-1.539h-1.726v10zm11.5-5a5.006 5.006 0 0 0 4.9 5.2 4.387 4.387 0 0 0 3.521-1.741v1.541h1.721v-15h-1.721v6.542a4.387 4.387 0 0 0-3.521-1.741 5.006 5.006 0 0 0-4.905 5.197zm8.562 0a3.417 3.417 0 1 1-3.4-3.62 3.415 3.415 0 0 1 3.395 3.618zm-525.046 30a5.231 5.231 0 1 0-5.221 5.2 5.133 5.133 0 0 0 5.217-5.202zm-8.7 0a3.473 3.473 0 1 1 3.481 3.6 3.437 3.437 0 0 1-3.488-3.602zm11.52 1.141c0 2.48 1.48 4.061 3.681 4.061a3.442 3.442 0 0 0 3.081-1.741v1.541h1.72v-10h-1.72v4.961c0 2.3-1.22 3.661-2.781 3.661-1.38 0-2.261-1.06-2.261-2.74v-5.887h-1.72v6.142zm17.642 3.72v-1.54a3.8 3.8 0 0 1-1.22.2 1.44 1.44 0 0 1-1.66-1.7V885.9h2.881v-1.58h-2.889v-2.78H64.2v2.78h-2.12v1.58h2.12v5.461a2.816 2.816 0 0 0 3.061 3.061 4.758 4.758 0 0 0 1.545-.24zm10.152-13.764a1.208 1.208 0 0 0-1.2-1.221 1.243 1.243 0 0 0-1.24 1.221 1.229 1.229 0 0 0 1.24 1.22 1.2 1.2 0 0 0 1.2-1.22zm-2.081 13.9H78.6v-10h-1.716v10zm5.48 0h1.72v-4.962c0-2.34 1.28-3.66 2.9-3.66 1.4 0 2.361 1.04 2.361 2.72v5.9h1.7v-6.162c0-2.48-1.54-4.041-3.781-4.041a3.536 3.536 0 0 0-3.181 1.741v-1.536h-1.72v10zm22.742-.141v-1.54a3.8 3.8 0 0 1-1.221.2 1.44 1.44 0 0 1-1.66-1.7V885.9h2.881v-1.58h-2.881v-2.78h-1.72v2.78h-2.121v1.58h2.121v5.461a2.816 2.816 0 0 0 3.06 3.061 4.758 4.758 0 0 0 1.541-.24zm2.7.141h1.72v-4.962c0-2.34 1.28-3.66 2.9-3.66 1.4 0 2.36 1.04 2.36 2.72v5.9h1.7v-6.162c0-2.48-1.541-4.041-3.781-4.041a3.536 3.536 0 0 0-3.181 1.741v-6.542h-1.72v15zm11.5-5a5.273 5.273 0 0 0 9.682 2.821l-1.361-.94a3.541 3.541 0 0 1-6.581-1.54h8.2a4.907 4.907 0 0 0 .02-.521c-.02-3.2-2.141-5.021-4.761-5.021a5.068 5.068 0 0 0-5.2 5.202zm5.141-3.68a2.992 2.992 0 0 1 3.06 2.62h-6.341a3.269 3.269 0 0 1 3.28-2.619zm21.261 8.682h1.52l3.4-10h-1.82l-2.421 7.3-2.5-7.3h-1.321l-2.5 7.3-2.421-7.3h-1.8l3.4 10h1.521l2.48-7.2zm16.9-5a5.231 5.231 0 1 0-5.221 5.2 5.133 5.133 0 0 0 5.22-5.201zm-8.7 0a3.473 3.473 0 1 1 3.481 3.6 3.438 3.438 0 0 1-3.484-3.601zm11.66 5h1.721v-4.962c0-2.34 1.38-3.44 2.64-3.44a2.514 2.514 0 0 1 .94.16v-1.78a3.564 3.564 0 0 0-.78-.08 2.976 2.976 0 0 0-2.8 2.041v-1.941h-1.721v10zm7.82 0h1.721v-15h-1.721v15zm4.7-5a5.006 5.006 0 0 0 4.9 5.2 4.387 4.387 0 0 0 3.521-1.741v1.541h1.721v-15h-1.721v6.542a4.387 4.387 0 0 0-3.521-1.741 5.006 5.006 0 0 0-4.903 5.198zm8.562 0a3.417 3.417 0 1 1-3.4-3.62 3.415 3.415 0 0 1 3.397 3.619zm7.459 4.561a1.71 1.71 0 0 0 .28-.9 1.481 1.481 0 1 0-2.961 0 1.491 1.491 0 0 0 .82 1.341l-1.34 2.86h1.14zm18.522-4.561a5.232 5.232 0 1 0-5.222 5.2 5.134 5.134 0 0 0 5.219-5.201zm-8.7 0a3.473 3.473 0 1 1 3.48 3.6 3.437 3.437 0 0 1-3.485-3.601zm11.519 1.141c0 2.48 1.481 4.061 3.681 4.061a3.442 3.442 0 0 0 3.081-1.741v1.541h1.72v-10h-1.72v4.961c0 2.3-1.22 3.661-2.781 3.661-1.38 0-2.26-1.06-2.26-2.74v-5.886h-1.721v6.142zm12.221 3.861h1.72v-4.962c0-2.34 1.38-3.44 2.641-3.44a2.514 2.514 0 0 1 .94.16V884.3a3.564 3.564 0 0 0-.78-.08 2.976 2.976 0 0 0-2.8 2.041v-1.941h-1.72v10zm21.782-2.481l-1.5-.84a3.392 3.392 0 0 1-3.121 1.92 3.6 3.6 0 0 1 0-7.2 3.392 3.392 0 0 1 3.121 1.92l1.5-.84a5.181 5.181 0 0 0-4.621-2.681 5.2 5.2 0 1 0 0 10.4 5.181 5.181 0 0 0 4.616-2.68zm2.718 2.481h1.72v-15h-1.72v15zm15.142-5a5.231 5.231 0 1 0-5.221 5.2 5.133 5.133 0 0 0 5.216-5.203zm-8.7 0a3.473 3.473 0 1 1 3.481 3.6 3.437 3.437 0 0 1-3.488-3.603zm16.9 4.861v-1.54a3.8 3.8 0 0 1-1.22.2 1.44 1.44 0 0 1-1.66-1.7V885.9h2.88v-1.58h-2.88v-2.78h-1.721v2.78h-2.12v1.58h2.12v5.461a2.816 2.816 0 0 0 3.061 3.061 4.756 4.756 0 0 0 1.534-.24zm2.7.141h1.721v-4.962c0-2.34 1.28-3.66 2.9-3.66 1.4 0 2.361 1.04 2.361 2.72v5.9h1.7v-6.162c0-2.48-1.54-4.041-3.781-4.041a3.535 3.535 0 0 0-3.18 1.741v-6.542h-1.721v15zm14.361-13.9a1.208 1.208 0 0 0-1.2-1.221 1.243 1.243 0 0 0-1.241 1.221 1.229 1.229 0 0 0 1.241 1.22 1.2 1.2 0 0 0 1.193-1.226zm-2.081 13.9h1.721v-10h-1.721v10zm5.48 0h1.721v-4.962c0-2.34 1.28-3.66 2.9-3.66 1.4 0 2.361 1.04 2.361 2.72v5.9h1.7v-6.162c0-2.48-1.54-4.041-3.78-4.041a3.536 3.536 0 0 0-3.181 1.741v-1.542h-1.721v10zm21.6-.581v-9.425h-1.721v1.541a4.256 4.256 0 0 0-3.48-1.741 5.1 5.1 0 0 0 0 10.183 4.271 4.271 0 0 0 3.48-1.761v1.14a3.2 3.2 0 0 1-3.34 3.461 4.279 4.279 0 0 1-3.5-1.68l-1.2 1.2a5.941 5.941 0 0 0 4.722 2.04c2.834-.003 5.035-1.62 5.035-4.961zm-8.342-4.541a3.383 3.383 0 1 1 3.381 3.5 3.332 3.332 0 0 1-3.385-3.504zm19.54-8.781a1.208 1.208 0 0 0-1.2-1.221 1.243 1.243 0 0 0-1.241 1.221 1.23 1.23 0 0 0 1.241 1.22 1.2 1.2 0 0 0 1.196-1.223zm-2.08 13.9h1.72v-10h-1.72v10zm11.961-2.781c0-1.5-.94-2.461-2.641-3.021l-1.08-.36c-1.18-.38-1.54-.76-1.54-1.4 0-.74.74-1.16 1.68-1.16a2.7 2.7 0 0 1 2.121 1.04l1.12-1.08a3.877 3.877 0 0 0-3.2-1.441c-1.98 0-3.381 1.1-3.381 2.721 0 1.4.861 2.38 2.481 2.9l.98.32c1.3.42 1.781.9 1.781 1.6a1.523 1.523 0 0 1-1.761 1.36 2.684 2.684 0 0 1-2.56-1.58l-1.4.76a3.974 3.974 0 0 0 3.921 2.321c2.015.001 3.475-1.022 3.475-2.98zm7.558-2.221a5.006 5.006 0 0 0 4.9 5.2 4.387 4.387 0 0 0 3.521-1.741v1.541h1.721v-15h-1.721v6.542a4.387 4.387 0 0 0-3.521-1.741 5.006 5.006 0 0 0-4.904 5.199zm8.562 0a3.417 3.417 0 1 1-3.4-3.62 3.415 3.415 0 0 1 3.396 3.62zm4.538 0a5.274 5.274 0 0 0 9.683 2.821l-1.361-.94a3.541 3.541 0 0 1-6.581-1.54h8.2a4.907 4.907 0 0 0 .02-.521c-.02-3.2-2.141-5.021-4.761-5.021a5.069 5.069 0 0 0-5.204 5.201zm5.142-3.68a2.992 2.992 0 0 1 3.06 2.62h-6.341a3.269 3.269 0 0 1 3.277-2.62zm14.24 5.9c0-1.5-.94-2.461-2.64-3.021l-1.081-.36c-1.18-.38-1.54-.76-1.54-1.4 0-.74.74-1.16 1.68-1.16a2.7 2.7 0 0 1 2.121 1.04l1.12-1.08a3.877 3.877 0 0 0-3.2-1.441c-1.98 0-3.38 1.1-3.38 2.721 0 1.4.86 2.38 2.48 2.9l.981.32c1.3.42 1.78.9 1.78 1.6a1.522 1.522 0 0 1-1.76 1.36 2.684 2.684 0 0 1-2.561-1.58l-1.4.76a3.973 3.973 0 0 0 3.92 2.321c2.016.002 3.476-1.021 3.476-2.979zm5.039-11.122a1.208 1.208 0 0 0-1.2-1.221 1.242 1.242 0 0 0-1.24 1.221 1.229 1.229 0 0 0 1.24 1.22 1.2 1.2 0 0 0 1.196-1.219zm-2.08 13.9h1.72v-10h-1.72v10zm14.8-.581v-9.418h-1.72v1.541a4.259 4.259 0 0 0-3.481-1.741 5.1 5.1 0 0 0 0 10.183 4.274 4.274 0 0 0 3.481-1.761v1.14a3.2 3.2 0 0 1-3.341 3.461 4.279 4.279 0 0 1-3.5-1.68l-1.2 1.2a5.937 5.937 0 0 0 4.721 2.04c2.838-.003 5.038-1.62 5.038-4.961zm-8.342-4.541a3.383 3.383 0 1 1 3.381 3.5 3.332 3.332 0 0 1-3.383-3.497zm12.08 5.122h1.72v-4.962c0-2.34 1.281-3.66 2.9-3.66 1.4 0 2.361 1.04 2.361 2.72v5.9h1.7v-6.162c0-2.48-1.54-4.041-3.781-4.041a3.538 3.538 0 0 0-3.181 1.741v-1.535h-1.72v10zm11.5-5a5.273 5.273 0 0 0 9.682 2.821l-1.36-.94a3.542 3.542 0 0 1-6.582-1.54h8.2a4.907 4.907 0 0 0 .02-.521c-.02-3.2-2.14-5.021-4.761-5.021a5.068 5.068 0 0 0-5.201 5.203zm5.141-3.68a2.993 2.993 0 0 1 3.061 2.62h-6.342a3.27 3.27 0 0 1 3.279-2.618zm6.979 3.68a5.006 5.006 0 0 0 4.9 5.2 4.387 4.387 0 0 0 3.521-1.741v1.541h1.721v-15h-1.721v6.542a4.387 4.387 0 0 0-3.521-1.741 5.006 5.006 0 0 0-4.902 5.201zm8.562 0a3.417 3.417 0 1 1-3.4-3.62 3.415 3.415 0 0 1 3.398 3.622zm11.279 5h1.72V885.9h2.9v-1.58h-2.9v-1.84a1.44 1.44 0 0 1 1.661-1.7 4.027 4.027 0 0 1 1.24.2v-1.521a4.545 4.545 0 0 0-1.56-.26 2.857 2.857 0 0 0-3.061 3.1v2.02h-2.121v1.581h2.121v8.422zm16.4-5a5.231 5.231 0 1 0-5.221 5.2 5.133 5.133 0 0 0 5.221-5.198zm-8.7 0a3.473 3.473 0 1 1 3.481 3.6 3.437 3.437 0 0 1-3.483-3.598zm11.66 5h1.72v-4.962c0-2.34 1.381-3.44 2.641-3.44a2.514 2.514 0 0 1 .94.16V884.3a3.564 3.564 0 0 0-.78-.08 2.977 2.977 0 0 0-2.8 2.041v-1.941h-1.72v10zm11.92-5a5.005 5.005 0 0 0 4.9 5.2 4.388 4.388 0 0 0 3.521-1.741v1.541h1.72v-10h-1.72v1.541a4.388 4.388 0 0 0-3.521-1.741 5.005 5.005 0 0 0-4.902 5.202zm8.562 0a3.417 3.417 0 1 1-3.4-3.62 3.415 3.415 0 0 1 3.398 3.622zm10.7 5h1.72v-15h-1.72v15zm7.561-13.9a1.209 1.209 0 0 0-1.2-1.221 1.242 1.242 0 0 0-1.24 1.221 1.229 1.229 0 0 0 1.24 1.22 1.2 1.2 0 0 0 1.196-1.219zm-2.081 13.9h1.72v-10h-1.72v10zm6.32 0h1.721V885.9h2.9v-1.58h-2.9v-1.84a1.44 1.44 0 0 1 1.66-1.7 4.027 4.027 0 0 1 1.24.2v-1.521a4.545 4.545 0 0 0-1.56-.26 2.857 2.857 0 0 0-3.061 3.1v2.02h-2.12v1.581h2.12v8.422zm5.96-5a5.273 5.273 0 0 0 9.682 2.821l-1.36-.94a3.541 3.541 0 0 1-6.581-1.54h8.2a4.907 4.907 0 0 0 .02-.521c-.02-3.2-2.141-5.021-4.762-5.021a5.069 5.069 0 0 0-5.203 5.203zm5.141-3.68a2.992 2.992 0 0 1 3.061 2.62h-6.341a3.269 3.269 0 0 1 3.276-2.618zm15.22-5.221a1.208 1.208 0 0 0-1.2-1.221 1.243 1.243 0 0 0-1.241 1.221 1.229 1.229 0 0 0 1.241 1.22 1.2 1.2 0 0 0 1.196-1.218zm-2.081 13.9h1.721v-10h-1.721v10zm5.48 0h1.721v-4.962c0-2.34 1.28-3.66 2.9-3.66 1.4 0 2.361 1.04 2.361 2.72v5.9h1.7v-6.162c0-2.48-1.54-4.041-3.78-4.041a3.536 3.536 0 0 0-3.181 1.741v-1.534h-1.721v10zm-497.024 30H40.4v-4.962c0-2.26 1.14-3.66 2.761-3.66 1.3 0 1.961 1.12 1.961 2.74v5.882h1.72v-4.962c0-2.26 1.12-3.66 2.741-3.66 1.3 0 1.98 1.12 1.98 2.74v5.882h1.72v-6.142c0-2.44-1.32-4.061-3.5-4.061a3.462 3.462 0 0 0-3.281 2.141 3.145 3.145 0 0 0-3.081-2.141 3.363 3.363 0 0 0-3.021 1.741v-1.536h-1.72v10zm27.863-5a5.231 5.231 0 1 0-5.221 5.2 5.133 5.133 0 0 0 5.217-5.197zm-8.7 0a3.473 3.473 0 1 1 3.481 3.6 3.437 3.437 0 0 1-3.487-3.597zm16.9 4.862v-1.541a3.8 3.8 0 0 1-1.22.2 1.44 1.44 0 0 1-1.66-1.7V915.9h2.881v-1.58h-2.886v-2.78h-1.721v2.78h-2.12v1.58h2.12v5.461a2.816 2.816 0 0 0 3.061 3.061 4.787 4.787 0 0 0 1.54-.239zm4.779-13.763a1.208 1.208 0 0 0-1.2-1.221 1.243 1.243 0 0 0-1.24 1.221 1.229 1.229 0 0 0 1.24 1.22 1.2 1.2 0 0 0 1.196-1.217zm-2.081 13.9h1.72v-10h-1.72v10zm15.142-5a5.231 5.231 0 1 0-5.221 5.2 5.133 5.133 0 0 0 5.217-5.196zm-8.7 0a3.473 3.473 0 1 1 3.481 3.6 3.437 3.437 0 0 1-3.487-3.596zm11.66 5h1.721v-4.962c0-2.34 1.28-3.66 2.9-3.66 1.4 0 2.361 1.04 2.361 2.72v5.9h1.7v-6.162c0-2.48-1.54-4.041-3.781-4.041a3.536 3.536 0 0 0-3.18 1.741v-1.533h-1.727v10zm14.661-1.341a1.481 1.481 0 1 0-1.481 1.5 1.507 1.507 0 0 0 1.475-1.494zm19.4 1.341h1.66l3.881-14.2h-1.94l-2.985 11.083-4.1-11.323-4.082 11.323-2.981-11.082h-1.94l3.881 14.2h1.66l3.481-9.643zm6.737-5a5.274 5.274 0 0 0 9.683 2.821l-1.361-.94a3.541 3.541 0 0 1-6.581-1.54h8.2a4.907 4.907 0 0 0 .02-.521c-.02-3.2-2.141-5.021-4.761-5.021a5.069 5.069 0 0 0-5.204 5.205zm5.142-3.68a2.992 2.992 0 0 1 3.06 2.62h-6.341a3.269 3.269 0 0 1 3.277-2.616zm18.22 8.542v-1.541a3.8 3.8 0 0 1-1.22.2 1.44 1.44 0 0 1-1.661-1.7V915.9h2.881v-1.58h-2.881v-2.78h-1.72v2.78h-2.121v1.58h2.121v5.461a2.816 2.816 0 0 0 3.061 3.061 4.786 4.786 0 0 0 1.536-.239zm2.7.14h1.72v-4.962c0-2.34 1.381-3.44 2.641-3.44a2.514 2.514 0 0 1 .94.16V914.3a3.564 3.564 0 0 0-.78-.08 2.977 2.977 0 0 0-2.8 2.041v-1.941h-1.72v10zm6.7-5a5.005 5.005 0 0 0 4.9 5.2 4.388 4.388 0 0 0 3.521-1.741v1.541h1.72v-10h-1.72v1.541a4.388 4.388 0 0 0-3.521-1.741 5.005 5.005 0 0 0-4.905 5.202zm8.562 0a3.417 3.417 0 1 1-3.4-3.62 3.415 3.415 0 0 1 3.395 3.622zm8.439 5h1.44l4.621-10h-1.92l-3.421 7.562-3.421-7.562h-1.92zm7.3-5a5.274 5.274 0 0 0 9.683 2.821l-1.361-.94a3.541 3.541 0 0 1-6.581-1.54h8.2a4.907 4.907 0 0 0 .02-.521c-.02-3.2-2.141-5.021-4.761-5.021a5.069 5.069 0 0 0-5.206 5.203zm5.142-3.68a2.992 2.992 0 0 1 3.06 2.62h-6.341a3.269 3.269 0 0 1 3.275-2.618zm7.759 8.682h1.72v-15h-1.72v15zm10.86 0h1.72v-4.962c0-2.34 1.28-3.66 2.9-3.66 1.4 0 2.36 1.04 2.36 2.72v5.9h1.7v-6.162c0-2.48-1.541-4.041-3.781-4.041a3.536 3.536 0 0 0-3.181 1.741v-1.537h-1.72v10zm11.5-5a5.274 5.274 0 0 0 9.683 2.821l-1.361-.94a3.541 3.541 0 0 1-6.581-1.54h8.2a4.907 4.907 0 0 0 .02-.521c-.02-3.2-2.141-5.021-4.761-5.021a5.069 5.069 0 0 0-5.207 5.201zm5.142-3.68a2.992 2.992 0 0 1 3.06 2.62h-6.341a3.269 3.269 0 0 1 3.274-2.62zm6.979 3.68a5.005 5.005 0 0 0 4.9 5.2 4.388 4.388 0 0 0 3.521-1.741v1.541h1.72v-10h-1.72v1.541a4.388 4.388 0 0 0-3.521-1.741 5.005 5.005 0 0 0-4.907 5.2zm8.562 0a3.417 3.417 0 1 1-3.4-3.62 3.415 3.415 0 0 1 3.393 3.62zm5.318 5h1.72v-4.962c0-2.34 1.381-3.44 2.641-3.44a2.514 2.514 0 0 1 .94.16V914.3a3.564 3.564 0 0 0-.78-.08 2.977 2.977 0 0 0-2.8 2.041v-1.941h-1.72v10zm11.92-5a5.005 5.005 0 0 0 4.9 5.2 4.388 4.388 0 0 0 3.521-1.741v1.541h1.72v-10h-1.72v1.541a4.388 4.388 0 0 0-3.521-1.741 5.005 5.005 0 0 0-4.907 5.2zm8.562 0a3.417 3.417 0 1 1-3.4-3.62 3.415 3.415 0 0 1 3.393 3.62zm5.318 5h1.721v-4.962c0-2.34 1.28-3.66 2.9-3.66 1.4 0 2.361 1.04 2.361 2.72v5.9h1.7v-6.162c0-2.48-1.54-4.041-3.781-4.041a3.535 3.535 0 0 0-3.18 1.741v-1.537h-1.721v10zm11.5-5a5.006 5.006 0 0 0 4.9 5.2 4.387 4.387 0 0 0 3.521-1.741v1.541h1.721v-15h-1.721v6.542a4.387 4.387 0 0 0-3.521-1.741 5.006 5.006 0 0 0-4.907 5.199zm8.562 0a3.417 3.417 0 1 1-3.4-3.62 3.415 3.415 0 0 1 3.393 3.62zm11.279 5h1.72V915.9h2.9v-1.58h-2.9v-1.84a1.44 1.44 0 0 1 1.661-1.7 4.027 4.027 0 0 1 1.24.2v-1.521a4.545 4.545 0 0 0-1.56-.26 2.857 2.857 0 0 0-3.061 3.1v2.02h-2.121v1.581h2.121v8.422zm5.96-5a5.005 5.005 0 0 0 4.9 5.2 4.388 4.388 0 0 0 3.521-1.741v1.541h1.72v-10h-1.72v1.541a4.388 4.388 0 0 0-3.521-1.741 5.005 5.005 0 0 0-4.907 5.2zm8.562 0a3.417 3.417 0 1 1-3.4-3.62 3.415 3.415 0 0 1 3.393 3.62zm5.318 5h1.721v-4.962c0-2.34 1.38-3.44 2.64-3.44a2.514 2.514 0 0 1 .94.16V914.3a3.564 3.564 0 0 0-.78-.08 2.976 2.976 0 0 0-2.8 2.041v-1.941h-1.721v10zm19.182-2.781c0-1.5-.94-2.461-2.641-3.021l-1.08-.36c-1.18-.38-1.541-.76-1.541-1.4 0-.74.741-1.16 1.681-1.16a2.7 2.7 0 0 1 2.12 1.04l1.121-1.08a3.879 3.879 0 0 0-3.2-1.441c-1.981 0-3.381 1.1-3.381 2.721 0 1.4.86 2.38 2.481 2.9l.98.32c1.3.42 1.78.9 1.78 1.6a1.522 1.522 0 0 1-1.76 1.36 2.685 2.685 0 0 1-2.561-1.58l-1.4.76a3.973 3.973 0 0 0 3.921 2.321c2.012.003 3.473-1.02 3.473-2.978zm2.178-2.221a5.273 5.273 0 0 0 9.682 2.821l-1.36-.94a3.542 3.542 0 0 1-6.582-1.54h8.2a4.907 4.907 0 0 0 .02-.521c-.02-3.2-2.14-5.021-4.761-5.021a5.069 5.069 0 0 0-5.206 5.203zm5.141-3.68a2.992 2.992 0 0 1 3.061 2.62h-6.341a3.269 3.269 0 0 1 3.273-2.618zm6.979 3.68a5.006 5.006 0 0 0 4.9 5.2 4.387 4.387 0 0 0 3.521-1.741v1.541h1.721v-10h-1.727v1.541a4.387 4.387 0 0 0-3.521-1.741 5.006 5.006 0 0 0-4.901 5.202zm8.562 0a3.417 3.417 0 1 1-3.4-3.62 3.415 3.415 0 0 1 3.393 3.622zm5.319 5h1.72v-4.962c0-2.34 1.38-3.44 2.641-3.44a2.514 2.514 0 0 1 .94.16V914.3a3.564 3.564 0 0 0-.78-.08 2.976 2.976 0 0 0-2.8 2.041v-1.941h-1.72v10zm16.542-2.481l-1.5-.84a3.391 3.391 0 0 1-3.121 1.92 3.6 3.6 0 0 1 0-7.2 3.391 3.391 0 0 1 3.121 1.92l1.5-.84a5.181 5.181 0 0 0-4.621-2.681 5.2 5.2 0 1 0 0 10.4 5.181 5.181 0 0 0 4.614-2.675zm2.718 2.481h1.72v-4.962c0-2.34 1.281-3.66 2.9-3.66 1.4 0 2.361 1.04 2.361 2.72v5.9h1.7v-6.162c0-2.48-1.54-4.041-3.781-4.041a3.538 3.538 0 0 0-3.181 1.741v-6.542h-1.72v15zm14.361-13.9a1.209 1.209 0 0 0-1.2-1.221 1.242 1.242 0 0 0-1.24 1.221 1.229 1.229 0 0 0 1.24 1.22 1.2 1.2 0 0 0 1.193-1.219zm-2.081 13.9h1.72v-10h-1.72v10zm5.48 0h1.72v-4.962c0-2.34 1.281-3.66 2.9-3.66 1.4 0 2.361 1.04 2.361 2.72v5.9h1.7v-6.162c0-2.48-1.54-4.041-3.781-4.041a3.538 3.538 0 0 0-3.181 1.741v-1.535h-1.72v10zm21.6-.581v-9.418h-1.72v1.541a4.258 4.258 0 0 0-3.481-1.741 5.1 5.1 0 0 0 0 10.183 4.273 4.273 0 0 0 3.481-1.761v1.14a3.2 3.2 0 0 1-3.341 3.461 4.281 4.281 0 0 1-3.5-1.68l-1.2 1.2a5.939 5.939 0 0 0 4.721 2.04c2.835-.003 5.035-1.62 5.035-4.961zm-8.342-4.541a3.383 3.383 0 1 1 3.381 3.5 3.333 3.333 0 0 1-3.386-3.497zm18.041 5.122h1.72V915.9h2.9v-1.58h-2.9v-1.84a1.44 1.44 0 0 1 1.661-1.7 4.027 4.027 0 0 1 1.24.2v-1.521a4.547 4.547 0 0 0-1.561-.26 2.857 2.857 0 0 0-3.06 3.1v2.02h-2.121v1.581h2.121v8.422zm16.4-5a5.231 5.231 0 1 0-5.221 5.2 5.133 5.133 0 0 0 5.218-5.198zm-8.7 0a3.473 3.473 0 1 1 3.481 3.6 3.437 3.437 0 0 1-3.486-3.598zm11.66 5h1.72v-4.962c0-2.34 1.381-3.44 2.641-3.44a2.514 2.514 0 0 1 .94.16V914.3a3.564 3.564 0 0 0-.78-.08 2.977 2.977 0 0 0-2.8 2.041v-1.941h-1.72v10zm17.781-.14v-1.541a3.8 3.8 0 0 1-1.22.2 1.44 1.44 0 0 1-1.66-1.7V915.9h2.88v-1.58h-2.88v-2.78h-1.726v2.78h-2.12v1.58h2.12v5.461a2.816 2.816 0 0 0 3.061 3.061 4.786 4.786 0 0 0 1.54-.239zm2.7.14h1.721v-4.962c0-2.34 1.28-3.66 2.9-3.66 1.4 0 2.361 1.04 2.361 2.72v5.9h1.7v-6.162c0-2.48-1.54-4.041-3.781-4.041a3.535 3.535 0 0 0-3.18 1.741v-6.542h-1.727v15zm11.5-5a5.273 5.273 0 0 0 9.682 2.821l-1.36-.94a3.542 3.542 0 0 1-6.582-1.54h8.2a4.907 4.907 0 0 0 .02-.521c-.02-3.2-2.14-5.021-4.761-5.021a5.069 5.069 0 0 0-5.205 5.203zm5.141-3.68a2.992 2.992 0 0 1 3.061 2.62h-6.341a3.269 3.269 0 0 1 3.274-2.618zm13.72 8.682h1.72V915.9h2.9v-1.58h-2.9v-1.84a1.44 1.44 0 0 1 1.661-1.7 4.027 4.027 0 0 1 1.24.2v-1.521a4.545 4.545 0 0 0-1.56-.26 2.857 2.857 0 0 0-3.061 3.1v2.02h-2.127v1.581h2.121v8.422zm8.582-13.9a1.208 1.208 0 0 0-1.2-1.221 1.243 1.243 0 0 0-1.241 1.221 1.229 1.229 0 0 0 1.241 1.22 1.2 1.2 0 0 0 1.194-1.221zm-2.081 13.9h1.721v-10h-1.721v10zm5.459 0h1.72v-4.962c0-2.34 1.28-3.66 2.9-3.66 1.4 0 2.36 1.04 2.36 2.72v5.9h1.7v-6.162c0-2.48-1.541-4.041-3.781-4.041a3.537 3.537 0 0 0-3.181 1.741v-1.537h-1.72v10zm11.5-5a5.273 5.273 0 0 0 9.682 2.821l-1.36-.94a3.542 3.542 0 0 1-6.582-1.54h8.2a4.907 4.907 0 0 0 .02-.521c-.02-3.2-2.14-5.021-4.761-5.021a5.068 5.068 0 0 0-5.205 5.201zm5.141-3.68a2.993 2.993 0 0 1 3.061 2.62h-6.342a3.27 3.27 0 0 1 3.275-2.62zm14.241 5.9c0-1.5-.941-2.461-2.641-3.021l-1.08-.36c-1.181-.38-1.541-.76-1.541-1.4 0-.74.741-1.16 1.681-1.16a2.7 2.7 0 0 1 2.12 1.04l1.121-1.08a3.879 3.879 0 0 0-3.2-1.441c-1.981 0-3.381 1.1-3.381 2.721 0 1.4.86 2.38 2.481 2.9l.98.32c1.3.42 1.78.9 1.78 1.6a1.522 1.522 0 0 1-1.76 1.36 2.685 2.685 0 0 1-2.561-1.58l-1.4.76a3.973 3.973 0 0 0 3.921 2.321c2.013.002 3.474-1.021 3.474-2.979zm8.259 2.641v-1.541a3.8 3.8 0 0 1-1.22.2 1.44 1.44 0 0 1-1.66-1.7V915.9h2.88v-1.58h-2.88v-2.78h-1.721v2.78h-2.12v1.58h2.12v5.461a2.816 2.816 0 0 0 3.061 3.061 4.786 4.786 0 0 0 1.534-.239zM38.684 954.323H40.4v-4.962c0-2.26 1.14-3.66 2.761-3.66 1.3 0 1.961 1.12 1.961 2.74v5.882h1.72v-4.962c0-2.26 1.12-3.66 2.741-3.66 1.3 0 1.98 1.12 1.98 2.74v5.882h1.72v-6.142c0-2.44-1.32-4.061-3.5-4.061a3.462 3.462 0 0 0-3.281 2.141 3.145 3.145 0 0 0-3.081-2.141 3.363 3.363 0 0 0-3.021 1.741v-1.541h-1.72v10zm17.42-5a5.006 5.006 0 0 0 4.9 5.2 4.387 4.387 0 0 0 3.521-1.741v1.541h1.72v-10h-1.72v1.541a4.387 4.387 0 0 0-3.521-1.741 5.005 5.005 0 0 0-4.904 5.198zm8.562 0a3.417 3.417 0 1 1-3.4-3.62 3.415 3.415 0 0 1 3.4 3.618zm10.74 4.862v-1.541a3.8 3.8 0 0 1-1.22.2 1.44 1.44 0 0 1-1.66-1.7V945.9h2.881v-1.58h-2.882v-2.78H70.8v2.78h-2.116v1.58H70.8v5.461a2.816 2.816 0 0 0 3.061 3.061 4.787 4.787 0 0 0 1.545-.239zm1.779-4.862a5.273 5.273 0 0 0 9.682 2.821l-1.36-.94a3.542 3.542 0 0 1-6.582-1.54h8.2a4.907 4.907 0 0 0 .02-.521c-.02-3.2-2.141-5.021-4.761-5.021a5.069 5.069 0 0 0-5.199 5.199zm5.141-3.68a2.992 2.992 0 0 1 3.061 2.62h-6.342a3.27 3.27 0 0 1 3.281-2.622zm7.759 8.682h1.72v-4.962c0-2.34 1.38-3.44 2.641-3.44a2.516 2.516 0 0 1 .94.16V944.3a3.566 3.566 0 0 0-.78-.08 2.977 2.977 0 0 0-2.8 2.041v-1.941h-1.72v10zm9.9-13.9a1.208 1.208 0 0 0-1.2-1.221 1.243 1.243 0 0 0-1.24 1.221 1.229 1.229 0 0 0 1.24 1.22 1.2 1.2 0 0 0 1.201-1.225zm-2.081 13.9h1.72v-10h-1.72v10zm4.7-5a5.006 5.006 0 0 0 4.9 5.2 4.387 4.387 0 0 0 3.521-1.741v1.541h1.721v-10h-1.721v1.541a4.387 4.387 0 0 0-3.521-1.741 5.006 5.006 0 0 0-4.899 5.196zm8.562 0a3.417 3.417 0 1 1-3.4-3.62 3.415 3.415 0 0 1 3.401 3.616zm5.318 5h1.721v-15h-1.721v15zm11.962-2.781c0-1.5-.94-2.461-2.641-3.021l-1.08-.36c-1.18-.38-1.54-.76-1.54-1.4 0-.74.74-1.16 1.68-1.16a2.7 2.7 0 0 1 2.121 1.04l1.12-1.08a3.878 3.878 0 0 0-3.2-1.441c-1.98 0-3.381 1.1-3.381 2.721 0 1.4.861 2.38 2.481 2.9l.98.32c1.3.42 1.781.9 1.781 1.6a1.523 1.523 0 0 1-1.761 1.36 2.684 2.684 0 0 1-2.56-1.58l-1.4.76a3.974 3.974 0 0 0 3.921 2.321c2.02-.001 3.48-1.024 3.48-2.982zm7.558-2.221a5.006 5.006 0 0 0 4.9 5.2 4.387 4.387 0 0 0 3.521-1.741v1.541h1.721v-10h-1.721v1.541a4.387 4.387 0 0 0-3.521-1.741 5.006 5.006 0 0 0-4.899 5.198zm8.562 0a3.417 3.417 0 1 1-3.4-3.62 3.415 3.415 0 0 1 3.401 3.618zm5.319 5h1.72v-4.962c0-2.34 1.28-3.66 2.9-3.66 1.4 0 2.36 1.04 2.36 2.72v5.9h1.7v-6.162c0-2.48-1.541-4.041-3.781-4.041a3.536 3.536 0 0 0-3.181 1.741v-1.539h-1.72v10zm11.5-5a5.006 5.006 0 0 0 4.9 5.2 4.386 4.386 0 0 0 3.52-1.741v1.541h1.721v-15h-1.721v6.542a4.386 4.386 0 0 0-3.52-1.741 5.006 5.006 0 0 0-4.9 5.197zm8.562 0a3.417 3.417 0 1 1-3.4-3.62 3.415 3.415 0 0 1 3.4 3.618zm11.279 5h1.721V945.9h2.9v-1.58h-2.9v-1.84a1.44 1.44 0 0 1 1.66-1.7 4.027 4.027 0 0 1 1.24.2v-1.521a4.545 4.545 0 0 0-1.56-.26 2.857 2.857 0 0 0-3.061 3.1v2.02h-2.12v1.581h2.12v8.422zm5.96-5a5.006 5.006 0 0 0 4.9 5.2 4.387 4.387 0 0 0 3.521-1.741v1.541h1.72v-10h-1.72v1.541a4.387 4.387 0 0 0-3.521-1.741 5.006 5.006 0 0 0-4.9 5.198zm8.562 0a3.417 3.417 0 1 1-3.4-3.62 3.415 3.415 0 0 1 3.4 3.618zm7.039 3.461a4.387 4.387 0 0 0 3.521 1.741 5.211 5.211 0 0 0 0-10.4 4.387 4.387 0 0 0-3.521 1.741v-6.542h-1.721v15h1.721v-1.541zm6.661-3.461a3.407 3.407 0 1 1-3.4-3.62 3.415 3.415 0 0 1 3.4 3.618zm4.718 5h1.721v-4.962c0-2.34 1.38-3.44 2.64-3.44a2.516 2.516 0 0 1 .941.16V944.3a3.564 3.564 0 0 0-.78-.08 2.976 2.976 0 0 0-2.8 2.041v-1.941h-1.721v10zm9.9-13.9a1.208 1.208 0 0 0-1.2-1.221 1.242 1.242 0 0 0-1.24 1.221 1.229 1.229 0 0 0 1.24 1.22 1.2 1.2 0 0 0 1.201-1.223zm-2.08 13.9h1.72v-10h-1.72v10zm14.562-2.481l-1.5-.84a3.39 3.39 0 0 1-3.12 1.92 3.6 3.6 0 0 1 0-7.2 3.39 3.39 0 0 1 3.12 1.92l1.5-.84a5.181 5.181 0 0 0-4.621-2.681 5.2 5.2 0 1 0 0 10.4 5.181 5.181 0 0 0 4.622-2.679zm10.178-11.422a1.208 1.208 0 0 0-1.2-1.221 1.243 1.243 0 0 0-1.241 1.221 1.23 1.23 0 0 0 1.241 1.22 1.2 1.2 0 0 0 1.201-1.22zm-2.08 13.9h1.72v-10h-1.72v10zm5.48 0h1.72v-4.962c0-2.34 1.28-3.66 2.9-3.66 1.4 0 2.36 1.04 2.36 2.72v5.9h1.7v-6.162c0-2.48-1.541-4.041-3.781-4.041a3.536 3.536 0 0 0-3.181 1.741v-1.536h-1.72v10zm12.28 0h1.72v-4.962c0-2.34 1.28-3.66 2.9-3.66 1.4 0 2.36 1.04 2.36 2.72v5.9h1.7v-6.162c0-2.48-1.541-4.041-3.781-4.041a3.536 3.536 0 0 0-3.181 1.741v-1.536h-1.72v10zm21.942-5a5.231 5.231 0 1 0-5.221 5.2 5.133 5.133 0 0 0 5.222-5.199zm-8.7 0a3.473 3.473 0 1 1 3.481 3.6 3.437 3.437 0 0 1-3.482-3.599zm14.561 5h1.44l4.621-10h-1.92l-3.421 7.562-3.421-7.562h-1.92zm7.319-5a5.006 5.006 0 0 0 4.9 5.2 4.387 4.387 0 0 0 3.521-1.741v1.541h1.721v-10h-1.721v1.541a4.387 4.387 0 0 0-3.521-1.741 5.006 5.006 0 0 0-4.901 5.201zm8.562 0a3.417 3.417 0 1 1-3.4-3.62 3.415 3.415 0 0 1 3.399 3.621zm10.74 4.862v-1.541a3.808 3.808 0 0 1-1.221.2 1.44 1.44 0 0 1-1.66-1.7V945.9h2.881v-1.58h-2.881v-2.78h-1.72v2.78h-2.121v1.58h2.121v5.461a2.816 2.816 0 0 0 3.06 3.061 4.792 4.792 0 0 0 1.54-.239zm4.779-13.763a1.208 1.208 0 0 0-1.2-1.221 1.243 1.243 0 0 0-1.241 1.221 1.23 1.23 0 0 0 1.241 1.22 1.2 1.2 0 0 0 1.199-1.219zm-2.08 13.9h1.72v-10h-1.72v10zm15.142-5a5.232 5.232 0 1 0-5.221 5.2 5.133 5.133 0 0 0 5.22-5.198zm-8.7 0a3.473 3.473 0 1 1 3.481 3.6 3.437 3.437 0 0 1-3.484-3.598zm11.66 5h1.72v-4.962c0-2.34 1.28-3.66 2.9-3.66 1.4 0 2.36 1.04 2.36 2.72v5.9h1.7v-6.162c0-2.48-1.541-4.041-3.781-4.041a3.536 3.536 0 0 0-3.181 1.741v-1.535h-1.72v10zm18.761-2.781c0-1.5-.94-2.461-2.64-3.021l-1.081-.36c-1.18-.38-1.54-.76-1.54-1.4 0-.74.74-1.16 1.68-1.16a2.7 2.7 0 0 1 2.121 1.04l1.12-1.08a3.877 3.877 0 0 0-3.2-1.441c-1.98 0-3.38 1.1-3.38 2.721 0 1.4.86 2.38 2.48 2.9l.98.32c1.3.42 1.781.9 1.781 1.6a1.523 1.523 0 0 1-1.761 1.36 2.684 2.684 0 0 1-2.56-1.58l-1.4.76a3.975 3.975 0 0 0 3.921 2.321c2.016.005 3.476-1.018 3.476-2.976zm13.42 2.641v-1.541a3.8 3.8 0 0 1-1.22.2 1.44 1.44 0 0 1-1.661-1.7V945.9h2.881v-1.58h-2.881v-2.78h-1.72v2.78h-2.121v1.58h2.121v5.461a2.816 2.816 0 0 0 3.061 3.061 4.786 4.786 0 0 0 1.537-.239zm12.221-4.862a5.231 5.231 0 1 0-5.221 5.2 5.133 5.133 0 0 0 5.218-5.196zm-8.7 0a3.473 3.473 0 1 1 3.481 3.6 3.438 3.438 0 0 1-3.486-3.596zm19.12-8.9a1.208 1.208 0 0 0-1.2-1.221 1.242 1.242 0 0 0-1.24 1.221 1.229 1.229 0 0 0 1.24 1.22 1.2 1.2 0 0 0 1.195-1.217zm-2.08 13.9h1.72v-10h-1.72v10zm5.48 0h1.72v-4.962c0-2.34 1.281-3.66 2.9-3.66 1.4 0 2.361 1.04 2.361 2.72v5.9h1.7v-6.162c0-2.48-1.54-4.041-3.781-4.041a3.538 3.538 0 0 0-3.181 1.741v-1.533h-1.72v10zm13 0h1.721V945.9h2.9v-1.58h-2.9v-1.84a1.44 1.44 0 0 1 1.66-1.7 4.027 4.027 0 0 1 1.24.2v-1.521a4.545 4.545 0 0 0-1.56-.26 2.857 2.857 0 0 0-3.061 3.1v2.02h-2.12v1.581h2.12v8.422zm6.86-3.861c0 2.48 1.48 4.061 3.681 4.061a3.443 3.443 0 0 0 3.081-1.741v1.541h1.72v-10h-1.72v4.961c0 2.3-1.221 3.661-2.781 3.661-1.38 0-2.26-1.06-2.26-2.74v-5.879h-1.721v6.142zm18.7 1.08c0-1.5-.94-2.461-2.641-3.021l-1.08-.36c-1.18-.38-1.54-.76-1.54-1.4 0-.74.74-1.16 1.68-1.16a2.705 2.705 0 0 1 2.121 1.04l1.12-1.08a3.878 3.878 0 0 0-3.2-1.441c-1.98 0-3.381 1.1-3.381 2.721 0 1.4.86 2.38 2.481 2.9l.98.32c1.3.42 1.78.9 1.78 1.6a1.522 1.522 0 0 1-1.76 1.36 2.686 2.686 0 0 1-2.561-1.58l-1.4.76a3.974 3.974 0 0 0 3.921 2.321c2.017.007 3.477-1.016 3.477-2.974zm2.178-2.221a5.273 5.273 0 0 0 9.683 2.821l-1.361-.94a3.541 3.541 0 0 1-6.581-1.54h8.2a4.907 4.907 0 0 0 .02-.521c-.02-3.2-2.141-5.021-4.762-5.021a5.069 5.069 0 0 0-5.202 5.207zm5.141-3.68a2.992 2.992 0 0 1 3.061 2.62h-6.341a3.269 3.269 0 0 1 3.277-2.614zm19.621 5.9c0-1.5-.94-2.461-2.641-3.021l-1.08-.36c-1.18-.38-1.54-.76-1.54-1.4 0-.74.74-1.16 1.68-1.16a2.7 2.7 0 0 1 2.121 1.04l1.12-1.08a3.878 3.878 0 0 0-3.2-1.441c-1.98 0-3.381 1.1-3.381 2.721 0 1.4.861 2.38 2.481 2.9l.98.32c1.3.42 1.781.9 1.781 1.6a1.523 1.523 0 0 1-1.761 1.36 2.684 2.684 0 0 1-2.56-1.58l-1.4.76a3.974 3.974 0 0 0 3.921 2.321c2.016.008 3.476-1.015 3.476-2.973zm8.26 2.641v-1.541a3.8 3.8 0 0 1-1.22.2 1.44 1.44 0 0 1-1.661-1.7V945.9h2.881v-1.58h-2.881v-2.78h-1.72v2.78h-2.121v1.58h2.121v5.461a2.816 2.816 0 0 0 3.061 3.061 4.786 4.786 0 0 0 1.537-.239zm5.359 4.32l6.562-14.183h-1.924l-3.42 7.582-3.441-7.582h-1.9l4.381 9.482-2.18 4.7h1.92zm8.78-4.18h1.72v-15h-1.72v15zm4.7-5a5.273 5.273 0 0 0 9.682 2.821l-1.36-.94a3.542 3.542 0 0 1-6.582-1.54h8.2a4.907 4.907 0 0 0 .02-.521c-.02-3.2-2.14-5.021-4.761-5.021a5.068 5.068 0 0 0-5.202 5.206zm5.141-3.68a2.993 2.993 0 0 1 3.061 2.62h-6.342a3.27 3.27 0 0 1 3.278-2.615zm21.261 8.682h1.521l3.4-10h-1.82l-2.421 7.3-2.5-7.3h-1.324l-2.5 7.3-2.421-7.3h-1.8l3.4 10h1.52l2.481-7.2zm9.359-13.9a1.208 1.208 0 0 0-1.2-1.221 1.243 1.243 0 0 0-1.241 1.221 1.229 1.229 0 0 0 1.241 1.22 1.2 1.2 0 0 0 1.197-1.218zm-2.081 13.9h1.721v-10h-1.721v10zm10.9-.14v-1.541a3.813 3.813 0 0 1-1.221.2 1.44 1.44 0 0 1-1.66-1.7V945.9h2.881v-1.58h-2.882v-2.78h-1.721v2.78h-2.12v1.58h2.12v5.461a2.816 2.816 0 0 0 3.061 3.061 4.8 4.8 0 0 0 1.541-.239zm2.7.14h1.721v-4.962c0-2.34 1.28-3.66 2.9-3.66 1.4 0 2.36 1.04 2.36 2.72v5.9h1.7v-6.162c0-2.48-1.541-4.041-3.781-4.041a3.536 3.536 0 0 0-3.181 1.741v-6.542h-1.721v15zM45.166 981.542c0-1.5-.94-2.461-2.641-3.021l-1.08-.36c-1.18-.38-1.54-.76-1.54-1.4 0-.74.74-1.16 1.68-1.16a2.7 2.7 0 0 1 2.121 1.04l1.12-1.08a3.877 3.877 0 0 0-3.2-1.441c-1.98 0-3.381 1.1-3.381 2.721 0 1.4.86 2.38 2.481 2.9l.98.32c1.3.42 1.78.9 1.78 1.6a1.523 1.523 0 0 1-1.76 1.36 2.684 2.684 0 0 1-2.561-1.58l-1.4.76a3.974 3.974 0 0 0 3.921 2.321c2.019.001 3.48-1.022 3.48-2.98zm2.819-1.08c0 2.48 1.48 4.061 3.681 4.061a3.443 3.443 0 0 0 3.081-1.741v1.541h1.72v-10h-1.72v4.961c0 2.3-1.22 3.661-2.781 3.661-1.38 0-2.261-1.06-2.261-2.74v-5.885h-1.72v6.142zm13.941 2.32a4.388 4.388 0 0 0 3.521 1.741 5.211 5.211 0 0 0 0-10.4 4.388 4.388 0 0 0-3.521 1.741v-6.542H60.2v15h1.72v-1.541zm6.662-3.461a3.407 3.407 0 1 1-3.4-3.62 3.415 3.415 0 0 1 3.398 3.62zm11.18 2.221c0-1.5-.94-2.461-2.641-3.021l-1.08-.36c-1.18-.38-1.54-.76-1.54-1.4 0-.74.74-1.16 1.68-1.16a2.7 2.7 0 0 1 2.12 1.04l1.12-1.08a3.878 3.878 0 0 0-3.2-1.441c-1.98 0-3.381 1.1-3.381 2.721 0 1.4.86 2.38 2.481 2.9l.98.32c1.3.42 1.78.9 1.78 1.6a1.523 1.523 0 0 1-1.76 1.36 2.685 2.685 0 0 1-2.561-1.58l-1.4.76a3.974 3.974 0 0 0 3.921 2.321c2.019.001 3.479-1.022 3.479-2.98zm8.26 2.641v-1.541a3.8 3.8 0 0 1-1.22.2 1.44 1.44 0 0 1-1.66-1.7V975.9h2.881v-1.58h-2.884v-2.78h-1.72v2.78H81.3v1.58h2.12v5.461a2.816 2.816 0 0 0 3.061 3.061 4.787 4.787 0 0 0 1.545-.239zm1.779-4.862a5.006 5.006 0 0 0 4.9 5.2 4.387 4.387 0 0 0 3.521-1.741v1.541h1.72v-10h-1.72v1.541a4.387 4.387 0 0 0-3.521-1.741 5.005 5.005 0 0 0-4.902 5.2zm8.562 0a3.417 3.417 0 1 1-3.4-3.62 3.415 3.415 0 0 1 3.398 3.62zm5.318 5h1.721v-4.962c0-2.34 1.28-3.66 2.9-3.66 1.4 0 2.361 1.04 2.361 2.72v5.9h1.7v-6.162c0-2.48-1.54-4.041-3.78-4.041a3.536 3.536 0 0 0-3.181 1.741v-1.537h-1.721v10zm21.363-2.481l-1.5-.84a3.39 3.39 0 0 1-3.121 1.92 3.6 3.6 0 0 1 0-7.2 3.39 3.39 0 0 1 3.121 1.92l1.5-.84a5.183 5.183 0 0 0-4.622-2.681 5.2 5.2 0 1 0 0 10.4 5.183 5.183 0 0 0 4.62-2.677zm1.937-2.521a5.274 5.274 0 0 0 9.683 2.821l-1.361-.94a3.541 3.541 0 0 1-6.581-1.54h8.2a4.907 4.907 0 0 0 .02-.521c-.02-3.2-2.141-5.021-4.761-5.021a5.069 5.069 0 0 0-5.202 5.203zm5.142-3.68a2.992 2.992 0 0 1 3.06 2.62h-6.341a3.269 3.269 0 0 1 3.279-2.618zm7.439 3.941h10.1v-1.721h-10.1v1.721zm15.24 3.2a4.388 4.388 0 0 0 3.521 1.741 5.211 5.211 0 0 0 0-10.4 4.388 4.388 0 0 0-3.521 1.741v-6.542h-1.72v15h1.72v-1.541zm6.662-3.461a3.408 3.408 0 1 1-3.4-3.62 3.415 3.415 0 0 1 3.398 3.622zm3.938 0a5.273 5.273 0 0 0 9.682 2.821l-1.36-.94a3.542 3.542 0 0 1-6.582-1.54h8.2a4.907 4.907 0 0 0 .02-.521c-.02-3.2-2.14-5.021-4.761-5.021a5.068 5.068 0 0 0-5.201 5.203zm5.141-3.68a2.993 2.993 0 0 1 3.061 2.62h-6.342a3.27 3.27 0 0 1 3.279-2.618zm16.841 6.2l-1.5-.84a3.39 3.39 0 0 1-3.121 1.92 3.6 3.6 0 0 1 0-7.2 3.39 3.39 0 0 1 3.121 1.92l1.5-.84a5.18 5.18 0 0 0-4.621-2.681 5.2 5.2 0 1 0 0 10.4 5.18 5.18 0 0 0 4.619-2.676zm1.938-2.521a5.006 5.006 0 0 0 4.9 5.2 4.387 4.387 0 0 0 3.521-1.741v1.541h1.72v-10h-1.72v1.541a4.387 4.387 0 0 0-3.521-1.741 5.006 5.006 0 0 0-4.902 5.203zm8.562 0a3.417 3.417 0 1 1-3.4-3.62 3.415 3.415 0 0 1 3.398 3.623zm5.178 1.141c0 2.48 1.481 4.061 3.681 4.061a3.443 3.443 0 0 0 3.081-1.741v1.541h1.72v-10h-1.72v4.961c0 2.3-1.22 3.661-2.781 3.661-1.38 0-2.26-1.06-2.26-2.74v-5.882h-1.721v6.142zm18.7 1.08c0-1.5-.94-2.461-2.641-3.021l-1.08-.36c-1.18-.38-1.54-.76-1.54-1.4 0-.74.74-1.16 1.68-1.16a2.7 2.7 0 0 1 2.121 1.04l1.12-1.08a3.877 3.877 0 0 0-3.2-1.441c-1.98 0-3.381 1.1-3.381 2.721 0 1.4.861 2.38 2.481 2.9l.98.32c1.3.42 1.781.9 1.781 1.6a1.523 1.523 0 0 1-1.761 1.36 2.684 2.684 0 0 1-2.56-1.58l-1.4.76a3.974 3.974 0 0 0 3.921 2.321c2.019.004 3.479-1.019 3.479-2.977zm2.178-2.221a5.274 5.274 0 0 0 9.683 2.821l-1.361-.94a3.541 3.541 0 0 1-6.581-1.54h8.2a4.907 4.907 0 0 0 .02-.521c-.02-3.2-2.141-5.021-4.761-5.021a5.069 5.069 0 0 0-5.2 5.204zm5.142-3.68a2.992 2.992 0 0 1 3.06 2.62h-6.341a3.269 3.269 0 0 1 3.281-2.617zm21.261 8.682h1.52l3.4-10h-1.82l-2.421 7.3-2.5-7.3h-1.32l-2.5 7.3-2.421-7.3h-1.8l3.4 10h1.521l2.48-7.2zm6.458-5a5.273 5.273 0 0 0 9.682 2.821l-1.36-.94a3.542 3.542 0 0 1-6.582-1.54h8.2a4.907 4.907 0 0 0 .02-.521c-.02-3.2-2.14-5.021-4.761-5.021a5.068 5.068 0 0 0-5.199 5.202zm5.141-3.68a2.993 2.993 0 0 1 3.061 2.62h-6.342a3.27 3.27 0 0 1 3.281-2.619zm14.86 7.141a4.386 4.386 0 0 0 3.52 1.741 5.211 5.211 0 0 0 0-10.4 4.386 4.386 0 0 0-3.52 1.741v-6.542h-1.721v15h1.721v-1.541zm6.661-3.461a3.408 3.408 0 1 1-3.4-3.62 3.415 3.415 0 0 1 3.4 3.621zm3.938 0a5.273 5.273 0 0 0 9.682 2.821l-1.36-.94a3.542 3.542 0 0 1-6.582-1.54h8.2a4.907 4.907 0 0 0 .02-.521c-.02-3.2-2.14-5.021-4.761-5.021a5.069 5.069 0 0 0-5.199 5.202zm5.141-3.68a2.992 2.992 0 0 1 3.061 2.62h-6.342a3.271 3.271 0 0 1 3.281-2.619zm7.759 8.682h1.721v-15h-1.721v15zm7.561-13.9a1.208 1.208 0 0 0-1.2-1.221 1.243 1.243 0 0 0-1.241 1.221 1.229 1.229 0 0 0 1.241 1.22 1.2 1.2 0 0 0 1.2-1.222zm-2.081 13.9h1.721v-10h-1.721v10zm4.7-5a5.273 5.273 0 0 0 9.683 2.821l-1.361-.94a3.541 3.541 0 0 1-6.581-1.54h8.2a4.907 4.907 0 0 0 .02-.521c-.02-3.2-2.141-5.021-4.762-5.021a5.069 5.069 0 0 0-5.199 5.2zm5.141-3.68a2.992 2.992 0 0 1 3.061 2.62h-6.341a3.269 3.269 0 0 1 3.28-2.621zm10.72 8.682h1.441l4.621-10h-1.921l-3.42 7.562-3.421-7.562h-1.921zm7.3-5a5.273 5.273 0 0 0 9.682 2.821l-1.36-.94a3.542 3.542 0 0 1-6.582-1.54h8.2a4.907 4.907 0 0 0 .02-.521c-.02-3.2-2.14-5.021-4.761-5.021a5.068 5.068 0 0 0-5.199 5.198zm5.141-3.68a2.993 2.993 0 0 1 3.061 2.62h-6.342a3.27 3.27 0 0 1 3.281-2.623zm18.22 8.542v-1.541a3.8 3.8 0 0 1-1.22.2 1.44 1.44 0 0 1-1.66-1.7V975.9h2.88v-1.58h-2.88v-2.78h-1.721v2.78h-2.12v1.58h2.12v5.461a2.816 2.816 0 0 0 3.061 3.061 4.786 4.786 0 0 0 1.54-.239zm2.7.14h1.721v-4.962c0-2.34 1.28-3.66 2.9-3.66 1.4 0 2.361 1.04 2.361 2.72v5.9h1.7v-6.162c0-2.48-1.54-4.041-3.781-4.041a3.535 3.535 0 0 0-3.18 1.741v-6.542h-1.721v15zm11.5-5a5.006 5.006 0 0 0 4.9 5.2 4.387 4.387 0 0 0 3.521-1.741v1.541h1.721v-10h-1.721v1.541a4.387 4.387 0 0 0-3.521-1.741 5.006 5.006 0 0 0-4.901 5.195zm8.562 0a3.417 3.417 0 1 1-3.4-3.62 3.415 3.415 0 0 1 3.399 3.615zm10.74 4.862v-1.541a3.8 3.8 0 0 1-1.221.2 1.44 1.44 0 0 1-1.66-1.7V975.9h2.881v-1.58h-2.881v-2.78h-1.72v2.78h-2.121v1.58h2.121v5.461a2.816 2.816 0 0 0 3.06 3.061 4.787 4.787 0 0 0 1.54-.239zm16.2.14h1.52l3.4-10h-1.821l-2.42 7.3-2.5-7.3h-1.32l-2.5 7.3-2.42-7.3h-1.8l3.4 10h1.521l2.48-7.2zm7.278 0h1.72v-4.962c0-2.34 1.28-3.66 2.9-3.66 1.4 0 2.36 1.04 2.36 2.72v5.9h1.7v-6.162c0-2.48-1.541-4.041-3.781-4.041a3.537 3.537 0 0 0-3.181 1.741v-6.542h-1.72v15zm11.5-5a5.005 5.005 0 0 0 4.9 5.2 4.388 4.388 0 0 0 3.521-1.741v1.541h1.72v-10h-1.72v1.541a4.388 4.388 0 0 0-3.521-1.741 5.005 5.005 0 0 0-4.9 5.193zm8.562 0a3.417 3.417 0 1 1-3.4-3.62 3.415 3.415 0 0 1 3.4 3.613zm10.739 4.862v-1.541a3.8 3.8 0 0 1-1.22.2 1.44 1.44 0 0 1-1.66-1.7V975.9h2.88v-1.58h-2.88v-2.78h-1.721v2.78h-2.12v1.58h2.12v5.461a2.816 2.816 0 0 0 3.061 3.061 4.786 4.786 0 0 0 1.54-.239zm10.28 4.32l6.561-14.183h-1.92l-3.421 7.573-3.441-7.582h-1.9l4.381 9.482-2.181 4.7h1.921zm18.222-9.182a5.232 5.232 0 1 0-5.221 5.2 5.133 5.133 0 0 0 5.221-5.207zm-8.7 0a3.473 3.473 0 1 1 3.481 3.6 3.437 3.437 0 0 1-3.483-3.607zm11.52 1.141c0 2.48 1.48 4.061 3.681 4.061a3.442 3.442 0 0 0 3.08-1.741v1.541h1.721v-10h-1.721v4.961c0 2.3-1.22 3.661-2.78 3.661-1.381 0-2.261-1.06-2.261-2.74v-5.892h-1.72v6.142zm25.722 3.861h1.52l3.4-10h-1.82l-2.421 7.3-2.5-7.3h-1.321l-2.5 7.3-2.421-7.3h-1.8l3.4 10h1.521l2.48-7.2zm6.458-5a5.273 5.273 0 0 0 9.682 2.821l-1.36-.94a3.542 3.542 0 0 1-6.582-1.54h8.2a4.907 4.907 0 0 0 .02-.521c-.02-3.2-2.14-5.021-4.761-5.021a5.068 5.068 0 0 0-5.201 5.192zm5.141-3.68a2.992 2.992 0 0 1 3.061 2.62h-6.344a3.27 3.27 0 0 1 3.281-2.629zm6.979 3.68a5.006 5.006 0 0 0 4.9 5.2 4.387 4.387 0 0 0 3.521-1.741v1.541h1.721v-10h-1.721v1.541a4.387 4.387 0 0 0-3.521-1.741 5.006 5.006 0 0 0-4.902 5.191zm8.562 0a3.417 3.417 0 1 1-3.4-3.62 3.415 3.415 0 0 1 3.398 3.611zm5.318 5h1.721v-4.962c0-2.34 1.38-3.44 2.641-3.44a2.514 2.514 0 0 1 .94.16V974.3a3.564 3.564 0 0 0-.78-.08 2.976 2.976 0 0 0-2.8 2.041v-1.941h-1.724v10zm19.182-2.781c0-1.5-.94-2.461-2.64-3.021l-1.081-.36c-1.18-.38-1.54-.76-1.54-1.4 0-.74.74-1.16 1.68-1.16a2.7 2.7 0 0 1 2.121 1.04l1.12-1.08a3.877 3.877 0 0 0-3.2-1.441c-1.98 0-3.381 1.1-3.381 2.721 0 1.4.861 2.38 2.481 2.9l.98.32c1.3.42 1.781.9 1.781 1.6a1.523 1.523 0 0 1-1.761 1.36 2.684 2.684 0 0 1-2.56-1.58l-1.4.76a3.975 3.975 0 0 0 3.921 2.321c2.017-.006 3.477-1.029 3.477-2.987zm2.959 2.781h1.72v-4.962c0-2.34 1.28-3.66 2.9-3.66 1.4 0 2.36 1.04 2.36 2.72v5.9h1.7v-6.162c0-2.48-1.541-4.041-3.781-4.041a3.537 3.537 0 0 0-3.181 1.741v-6.542h-1.72v15zm21.942-5a5.231 5.231 0 1 0-5.221 5.2 5.133 5.133 0 0 0 5.219-5.209zm-8.7 0a3.473 3.473 0 1 1 3.481 3.6 3.437 3.437 0 0 1-3.485-3.609zm11.52 1.141c0 2.48 1.48 4.061 3.681 4.061a3.442 3.442 0 0 0 3.08-1.741v1.541h1.721v-10h-1.721v4.961c0 2.3-1.22 3.661-2.78 3.661-1.381 0-2.261-1.06-2.261-2.74v-5.894h-1.72v6.142zm12.22 3.861h1.72v-15h-1.72v15zm4.7-5a5.005 5.005 0 0 0 4.9 5.2 4.388 4.388 0 0 0 3.521-1.741v1.541h1.72v-15h-1.72v6.542a4.388 4.388 0 0 0-3.521-1.741 5.005 5.005 0 0 0-4.904 5.188zm8.562 0a3.417 3.417 0 1 1-3.4-3.62 3.415 3.415 0 0 1 3.396 3.609zm-558.326 30a5.231 5.231 0 1 0-5.221 5.2 5.132 5.132 0 0 0 5.217-5.212zm-8.7 0a3.473 3.473 0 1 1 3.481 3.6 3.437 3.437 0 0 1-3.488-3.612zm11.66 9.18h1.72v-5.72a4.387 4.387 0 0 0 3.521 1.74 5.209 5.209 0 0 0 0-10.4 4.387 4.387 0 0 0-3.521 1.74v-1.54H51.3v14.18zm8.382-9.18a3.407 3.407 0 1 1-3.4-3.62 3.415 3.415 0 0 1 3.393 3.608zm3.958 0a5.273 5.273 0 0 0 9.682 2.82l-1.36-.94a3.542 3.542 0 0 1-6.582-1.54h8.2a4.88 4.88 0 0 0 .02-.52c-.02-3.2-2.141-5.02-4.761-5.02a5.068 5.068 0 0 0-5.206 5.188zm5.141-3.68a2.992 2.992 0 0 1 3.061 2.62H65.5a3.27 3.27 0 0 1 3.286-2.632zm7.759 8.68h1.72v-4.96c0-2.34 1.28-3.66 2.9-3.66 1.4 0 2.361 1.04 2.361 2.72v5.9h1.7v-6.16c0-2.48-1.54-4.04-3.781-4.04a3.537 3.537 0 0 0-3.181 1.74v-1.54h-1.72v10zm16.88-5a5 5 0 0 0 4.9 5.2 4.385 4.385 0 0 0 3.52-1.74v1.54h1.721v-10h-1.721v1.54a4.385 4.385 0 0 0-3.52-1.74 5 5 0 0 0-4.906 5.188zm8.563 0a3.417 3.417 0 1 1-3.4-3.62 3.415 3.415 0 0 1 3.393 3.608zm18.82 5h1.52l3.4-10h-1.82l-2.421 7.3-2.5-7.3h-1.32l-2.5 7.3-2.421-7.3h-1.8l3.4 10h1.521l2.48-7.2zm16.9-5a5.231 5.231 0 1 0-5.221 5.2 5.132 5.132 0 0 0 5.214-5.212zm-8.7 0a3.473 3.473 0 1 1 3.481 3.6 3.438 3.438 0 0 1-3.49-3.612zm11.66 5h1.72v-4.96c0-2.34 1.381-3.44 2.641-3.44a2.514 2.514 0 0 1 .94.16v-1.78a3.564 3.564 0 0 0-.78-.08 2.977 2.977 0 0 0-2.8 2.04v-1.94h-1.72v10zm7.82 0h1.721v-15h-1.721v15zm4.7-5a5 5 0 0 0 4.9 5.2 4.386 4.386 0 0 0 3.521-1.74v1.54h1.72v-15h-1.72v6.541a4.386 4.386 0 0 0-3.521-1.74 5 5 0 0 0-4.909 5.187zm8.562 0a3.417 3.417 0 1 1-3.4-3.62 3.415 3.415 0 0 1 3.391 3.608zm20.361 0a5.232 5.232 0 1 0-5.222 5.2 5.133 5.133 0 0 0 5.213-5.212zm-8.7 0a3.473 3.473 0 1 1 3.481 3.6 3.438 3.438 0 0 1-3.493-3.612zm12.341 5h1.72v-8.42h2.9v-1.58h-2.9v-1.84a1.44 1.44 0 0 1 1.66-1.7 4.029 4.029 0 0 1 1.241.2v-1.521a4.551 4.551 0 0 0-1.561-.26 2.857 2.857 0 0 0-3.06 3.1v2.02h-2.121v1.58h2.121v8.42zm11.86 4.18h1.72v-5.72a4.386 4.386 0 0 0 3.521 1.74 5.209 5.209 0 0 0 0-10.4 4.386 4.386 0 0 0-3.521 1.74v-1.54h-1.72v14.18zm8.382-9.18a3.408 3.408 0 1 1-3.4-3.62 3.415 3.415 0 0 1 3.388 3.608zm14.4 0a5.231 5.231 0 1 0-5.221 5.2 5.132 5.132 0 0 0 5.209-5.212zm-8.7 0a3.473 3.473 0 1 1 3.481 3.6 3.437 3.437 0 0 1-3.495-3.612zm18.122 2.22c0-1.5-.941-2.46-2.641-3.02l-1.08-.36c-1.181-.38-1.541-.76-1.541-1.4 0-.74.741-1.16 1.681-1.16a2.7 2.7 0 0 1 2.12 1.04l1.121-1.08a3.881 3.881 0 0 0-3.2-1.44c-1.981 0-3.381 1.1-3.381 2.72 0 1.4.86 2.38 2.481 2.9l.98.32c1.3.42 1.78.9 1.78 1.6a1.522 1.522 0 0 1-1.76 1.36 2.685 2.685 0 0 1-2.561-1.58l-1.4.76a3.972 3.972 0 0 0 3.921 2.32c2.005-.012 3.466-1.032 3.466-2.992zm9.42 0c0-1.5-.94-2.46-2.641-3.02l-1.08-.36c-1.18-.38-1.54-.76-1.54-1.4 0-.74.74-1.16 1.68-1.16a2.7 2.7 0 0 1 2.12 1.04l1.121-1.08a3.88 3.88 0 0 0-3.2-1.44c-1.98 0-3.381 1.1-3.381 2.72 0 1.4.86 2.38 2.481 2.9l.98.32c1.3.42 1.78.9 1.78 1.6a1.522 1.522 0 0 1-1.76 1.36 2.686 2.686 0 0 1-2.561-1.58l-1.4.76a3.973 3.973 0 0 0 3.921 2.32c2.005-.012 3.466-1.032 3.466-2.992zm5.039-11.12a1.208 1.208 0 0 0-1.2-1.221 1.243 1.243 0 0 0-1.241 1.221 1.229 1.229 0 0 0 1.241 1.22 1.2 1.2 0 0 0 1.186-1.232zm-2.081 13.9h1.721v-10H242.2v10zm7.2-1.54a4.386 4.386 0 0 0 3.521 1.74 5.209 5.209 0 0 0 0-10.4 4.386 4.386 0 0 0-3.521 1.74v-6.541h-1.721v15h1.721v-1.54zm6.661-3.46a3.407 3.407 0 1 1-3.4-3.62 3.414 3.414 0 0 1 3.387 3.608zm6.8-8.9a1.208 1.208 0 0 0-1.2-1.221 1.243 1.243 0 0 0-1.241 1.221 1.23 1.23 0 0 0 1.241 1.22 1.2 1.2 0 0 0 1.186-1.232zm-2.081 13.9h1.721v-10h-1.721v10zm5.48 0h1.721v-15h-1.721v15zm7.561-13.9a1.208 1.208 0 0 0-1.2-1.221 1.243 1.243 0 0 0-1.241 1.221 1.229 1.229 0 0 0 1.241 1.22 1.2 1.2 0 0 0 1.186-1.232zm-2.081 13.9h1.721v-10h-1.721v10zm10.9-.14v-1.54a3.8 3.8 0 0 1-1.221.2 1.44 1.44 0 0 1-1.66-1.7v-5.24h2.881v-1.58h-2.881v-2.78h-1.72v2.78h-2.121v1.58h2.121v5.46a2.815 2.815 0 0 0 3.06 3.06 4.787 4.787 0 0 0 1.529-.252zm4.779-13.76a1.208 1.208 0 0 0-1.2-1.221 1.243 1.243 0 0 0-1.241 1.221 1.23 1.23 0 0 0 1.241 1.22 1.2 1.2 0 0 0 1.188-1.232zm-2.08 13.9h1.72v-10h-1.72v10zm4.7-5a5.274 5.274 0 0 0 9.683 2.82l-1.361-.94a3.541 3.541 0 0 1-6.581-1.54h8.2a4.88 4.88 0 0 0 .02-.52c-.02-3.2-2.141-5.02-4.761-5.02a5.068 5.068 0 0 0-5.213 5.188zm5.142-3.68a2.992 2.992 0 0 1 3.06 2.62H291.9a3.269 3.269 0 0 1 3.268-2.632zm14.24 5.9c0-1.5-.94-2.46-2.64-3.02l-1.081-.36c-1.18-.38-1.54-.76-1.54-1.4 0-.74.74-1.16 1.68-1.16a2.7 2.7 0 0 1 2.121 1.04l1.12-1.08a3.879 3.879 0 0 0-3.2-1.44c-1.98 0-3.38 1.1-3.38 2.72 0 1.4.86 2.38 2.48 2.9l.98.32c1.3.42 1.781.9 1.781 1.6a1.523 1.523 0 0 1-1.761 1.36 2.684 2.684 0 0 1-2.56-1.58l-1.4.76a3.972 3.972 0 0 0 3.92 2.32c2.007-.012 3.467-1.032 3.467-2.992zm8.919 2.78h1.721v-8.42h2.9v-1.58h-2.9v-1.84a1.44 1.44 0 0 1 1.66-1.7 4.027 4.027 0 0 1 1.24.2v-1.521a4.545 4.545 0 0 0-1.56-.26 2.857 2.857 0 0 0-3.061 3.1v2.02h-2.12v1.58h2.12v8.42zm16.4-5a5.232 5.232 0 1 0-5.222 5.2 5.133 5.133 0 0 0 5.212-5.212zm-8.7 0a3.473 3.473 0 1 1 3.48 3.6 3.437 3.437 0 0 1-3.492-3.612zm11.659 5h1.721v-4.96c0-2.34 1.38-3.44 2.64-3.44a2.519 2.519 0 0 1 .941.16v-1.78a3.572 3.572 0 0 0-.781-.08 2.975 2.975 0 0 0-2.8 2.04v-1.94h-1.721v10zm11.92-5a5 5 0 0 0 4.9 5.2 4.386 4.386 0 0 0 3.521-1.74v1.54h1.721v-10h-1.721v1.54a4.386 4.386 0 0 0-3.521-1.74 5 5 0 0 0-4.912 5.188zm8.562 0a3.417 3.417 0 1 1-3.4-3.62 3.414 3.414 0 0 1 3.388 3.608zm10.7 5h1.72v-15h-1.72v15zm7.56-13.9a1.208 1.208 0 0 0-1.2-1.221 1.243 1.243 0 0 0-1.241 1.221 1.23 1.23 0 0 0 1.241 1.22 1.2 1.2 0 0 0 1.187-1.232zm-2.081 13.9h1.721v-10h-1.721v10zm6.321 0h1.72v-8.42h2.9v-1.58h-2.9v-1.84a1.44 1.44 0 0 1 1.66-1.7 4.029 4.029 0 0 1 1.241.2v-1.521a4.547 4.547 0 0 0-1.561-.26 2.857 2.857 0 0 0-3.06 3.1v2.02h-2.121v1.58h2.121v8.42zm5.96-5a5.273 5.273 0 0 0 9.682 2.82l-1.36-.94a3.542 3.542 0 0 1-6.582-1.54h8.2a4.88 4.88 0 0 0 .02-.52c-.02-3.2-2.141-5.02-4.761-5.02a5.068 5.068 0 0 0-5.212 5.188zm5.141-3.68a2.994 2.994 0 0 1 3.061 2.62h-6.342a3.269 3.269 0 0 1 3.268-2.632zm21.261 8.68h1.52l3.4-10h-1.82l-2.421 7.3-2.5-7.3h-1.321l-2.5 7.3-2.421-7.3h-1.8l3.4 10h1.521l2.48-7.2zm9.359-13.9a1.209 1.209 0 0 0-1.2-1.221 1.242 1.242 0 0 0-1.24 1.221 1.229 1.229 0 0 0 1.24 1.22 1.2 1.2 0 0 0 1.187-1.232zm-2.081 13.9h1.721v-10h-1.721v10zm10.9-.14v-1.54a3.8 3.8 0 0 1-1.22.2 1.44 1.44 0 0 1-1.66-1.7v-5.24h2.88v-1.58h-2.88v-2.78h-1.721v2.78h-2.12v1.58h2.12v5.46a2.816 2.816 0 0 0 3.061 3.06 4.786 4.786 0 0 0 1.528-.252zm2.7.14h1.721v-4.96c0-2.34 1.28-3.66 2.9-3.66 1.4 0 2.361 1.04 2.361 2.72v5.9h1.7v-6.16c0-2.48-1.54-4.04-3.781-4.04a3.536 3.536 0 0 0-3.18 1.74v-6.541h-1.721v15zm17.66 0h1.721v-4.96c0-2.34 1.28-3.66 2.9-3.66 1.4 0 2.361 1.04 2.361 2.72v5.9h1.7v-6.16c0-2.48-1.54-4.04-3.781-4.04a3.536 3.536 0 0 0-3.18 1.74v-1.54h-1.721v10zm21.943-5a5.232 5.232 0 1 0-5.222 5.2 5.133 5.133 0 0 0 5.209-5.212zm-8.7 0a3.473 3.473 0 1 1 3.48 3.6 3.437 3.437 0 0 1-3.495-3.612zm18.76 3.46a4.386 4.386 0 0 0 3.521 1.74 5.209 5.209 0 0 0 0-10.4 4.386 4.386 0 0 0-3.521 1.74v-6.541h-1.721v15h1.721v-1.54zm6.661-3.46a3.407 3.407 0 1 1-3.4-3.62 3.415 3.415 0 0 1 3.385 3.608zm14.381 0a5.232 5.232 0 1 0-5.222 5.2 5.133 5.133 0 0 0 5.207-5.212zm-8.7 0a3.473 3.473 0 1 1 3.48 3.6 3.437 3.437 0 0 1-3.497-3.612zm11.519 1.14c0 2.48 1.481 4.06 3.681 4.06a3.441 3.441 0 0 0 3.081-1.74v1.54h1.72v-10h-1.72v4.96c0 2.3-1.22 3.66-2.781 3.66-1.38 0-2.26-1.06-2.26-2.74v-5.88h-1.721v6.14zm12.221 3.86h1.72v-4.96c0-2.34 1.28-3.66 2.9-3.66 1.4 0 2.36 1.04 2.36 2.72v5.9h1.7v-6.16c0-2.48-1.541-4.04-3.781-4.04a3.538 3.538 0 0 0-3.181 1.74v-1.54h-1.72v10zm11.5-5a5 5 0 0 0 4.9 5.2 4.389 4.389 0 0 0 3.521-1.74v1.54h1.72v-15h-1.72v6.541a4.389 4.389 0 0 0-3.521-1.74 5 5 0 0 0-4.917 5.187zm8.562 0a3.417 3.417 0 1 1-3.4-3.62 3.415 3.415 0 0 1 3.383 3.608zm4.538 0a5 5 0 0 0 4.9 5.2 4.387 4.387 0 0 0 3.521-1.74v1.54h1.72v-10h-1.72v1.54a4.387 4.387 0 0 0-3.521-1.74 5 5 0 0 0-4.917 5.188zm8.562 0a3.417 3.417 0 1 1-3.4-3.62 3.415 3.415 0 0 1 3.383 3.608zm5.318 5h1.72v-4.96c0-2.34 1.381-3.44 2.641-3.44a2.514 2.514 0 0 1 .94.16v-1.78a3.564 3.564 0 0 0-.78-.08 2.976 2.976 0 0 0-2.8 2.04v-1.94h-1.72v10zm9.9-13.9a1.208 1.208 0 0 0-1.2-1.221 1.242 1.242 0 0 0-1.24 1.221 1.229 1.229 0 0 0 1.24 1.22 1.2 1.2 0 0 0 1.184-1.232zm-2.081 13.9h1.721v-10h-1.721v10zm4.7-5a5.273 5.273 0 0 0 9.682 2.82l-1.36-.94a3.542 3.542 0 0 1-6.582-1.54h8.2a4.88 4.88 0 0 0 .02-.52c-.02-3.2-2.14-5.02-4.761-5.02a5.068 5.068 0 0 0-5.215 5.188zm5.141-3.68a2.992 2.992 0 0 1 3.061 2.62h-6.342a3.271 3.271 0 0 1 3.265-2.632zm14.241 5.9c0-1.5-.94-2.46-2.641-3.02l-1.08-.36c-1.18-.38-1.54-.76-1.54-1.4 0-.74.74-1.16 1.68-1.16a2.705 2.705 0 0 1 2.121 1.04l1.12-1.08a3.88 3.88 0 0 0-3.2-1.44c-1.98 0-3.381 1.1-3.381 2.72 0 1.4.86 2.38 2.481 2.9l.98.32c1.3.42 1.78.9 1.78 1.6a1.522 1.522 0 0 1-1.76 1.36 2.686 2.686 0 0 1-2.561-1.58l-1.4.76a3.973 3.973 0 0 0 3.921 2.32c2.004-.012 3.464-1.032 3.464-2.992zm5.339 1.44a1.481 1.481 0 1 0-1.48 1.5 1.507 1.507 0 0 0 1.464-1.512z"/><path id="Designed_for_a_life_with_NO_BOUNDARIES_copy" data-name="Designed for a life with NO BOUNDARIES copy" class="cls-4" d="M40.074 740.072h9.575a14.048 14.048 0 1 0 0-28.09h-9.575v28.09zm6.291-5.776v-16.538h3.284c4.748 0 7.952 3.759 7.952 8.269s-3.2 8.269-7.952 8.269h-3.285zm24.4 5.776h17.8v-6.014H77.054v-5.024h9.139v-6.014h-9.139V718h11.513v-6.014h-17.8v28.09zm33.376.475c5.934 0 10.009-3.561 10.049-8.665.039-4.233-2.611-6.923-6.687-8.387l-1.978-.712c-2.967-1.068-4.352-1.741-4.352-3.244 0-1.464 1.7-2.137 3.4-2.137a6.248 6.248 0 0 1 4.866 2.335l4.115-4.352a11.722 11.722 0 0 0-9.06-3.878c-5.619 0-9.694 3.205-9.694 8.665 0 3.837 2.532 6.567 7.082 8.11l1.979.673c2.809.949 3.916 1.938 3.916 3.363 0 1.345-1.305 2.334-3.4 2.334a7.349 7.349 0 0 1-5.816-3.205l-4.827 4.075a12.318 12.318 0 0 0 10.405 5.025zm16.8-.475h6.291v-28.09h-6.291v28.09zm28.341.475c4.55 0 9.02-1.346 11.513-4.154V723.06h-11.637v5.9h5.5v4.154c-1.186.949-3.244 1.345-5.459 1.345-5.5 0-8.863-3.64-8.863-8.427a8.246 8.246 0 0 1 8.464-8.432 9.33 9.33 0 0 1 7.082 3.007l4.431-4.312a14.943 14.943 0 0 0-11.513-4.788 14.349 14.349 0 0 0-14.8 14.52c.005 8.229 6.533 14.52 15.277 14.52zm44.261-.475v-28.09h-6.33v17.329l-13.649-17.329h-5.421v28.09h6.291V722.7l13.689 17.368h5.42zm8.339 0h17.8v-6.014h-11.514v-5.024h9.139v-6.014h-9.139V718h11.513v-6.014h-17.8v28.09zm24.988 0h9.574a14.048 14.048 0 1 0 0-28.09h-9.574v28.09zm6.29-5.776v-16.538h3.284c4.748 0 7.952 3.759 7.952 8.269s-3.2 8.269-7.952 8.269h-3.284zm35.487 5.776h6.291v-11h8.585v-6.012h-8.585V718h11v-6.014h-17.296v28.09zm36.341.475a14.52 14.52 0 1 0-14.52-14.52 14.555 14.555 0 0 0 14.515 14.52zm0-6.093a8.432 8.432 0 1 1 8.15-8.427 8.335 8.335 0 0 1-8.155 8.427zm21.276 5.618h6.291V728.48h1.029l9.337 11.592h7.557l-9.931-12.383c3.561-1.266 5.5-3.6 5.5-7.24a8.293 8.293 0 0 0-8.7-8.467h-11.088v28.09zm6.291-16.933v-5.381h4.036c1.859 0 3.2.989 3.2 2.691 0 1.622-1.345 2.69-3.2 2.69h-4.041zm28.4 16.933h6.568l2.492-5.935h11.632l2.493 5.935h6.56l-12.027-28.09h-5.7zm11.355-11.394l3.521-8.467 3.521 8.467h-7.042zm33.627 11.394h17.923v-6.014h-11.636v-22.076h-6.291v28.09zm24.235 0h6.291v-28.09h-6.291v28.09zm14.612 0h6.291v-11h8.585v-6.012h-8.585V718h11v-6.014H444.78v28.09zm23.958 0h17.8v-6.014h-11.513v-5.024h9.139v-6.014h-9.139V718h11.513v-6.014h-17.8v28.09zM62.19 779.739h5.974l6.528-28.09h-6.726l-3.838 17.8-7.913-18.278-7.873 18.278-3.838-17.8h-6.725l6.489 28.09h5.974l5.974-13.768zm18.474 0h6.291v-28.09h-6.292v28.09zm19.677 0h6.33v-22.076h7.24v-6.014H93.179v6.014h7.162v22.076zm19.8 0h6.291v-11.117h11.318v11.117h6.29v-28.09h-6.29v11h-11.315v-11h-6.291v28.09zm68.722 0v-28.09h-6.331v17.329l-13.649-17.329h-5.42v28.09h6.29v-17.368l13.689 17.368h5.421zm21.276.475a14.52 14.52 0 1 0-14.52-14.52 14.555 14.555 0 0 0 14.523 14.52zm0-6.093a8.432 8.432 0 1 1 8.15-8.427 8.334 8.334 0 0 1-8.147 8.427zm32.364 5.618h12.347a8.3 8.3 0 0 0 8.545-8.269 7.34 7.34 0 0 0-4-6.646 6.61 6.61 0 0 0 2.022-4.824 8.349 8.349 0 0 0-8.348-8.348h-10.563v28.09zM248.8 763v-5.618h3.561a2.856 2.856 0 0 1 2.928 2.848 2.816 2.816 0 0 1-2.928 2.77H248.8zm0 10.959v-5.618h5.5a2.858 2.858 0 0 1 2.967 2.809 2.823 2.823 0 0 1-2.928 2.809H248.8zm34.169 6.251a14.52 14.52 0 1 0-14.52-14.52 14.555 14.555 0 0 0 14.516 14.524zm0-6.093a8.432 8.432 0 1 1 8.15-8.427 8.334 8.334 0 0 1-8.154 8.431zm32.512 6.093c6.726 0 11.553-4.59 11.553-11.592v-16.969h-6.291V768.7c0 3.363-2.136 5.42-5.262 5.42s-5.262-2.057-5.262-5.42v-17.051h-6.29v16.973c-.004 7.002 4.783 11.592 11.548 11.592zm44.972-.475v-28.09h-6.33v17.329l-13.653-17.325h-5.421v28.09h6.291v-17.368l13.689 17.368h5.42zm8.339 0h9.575a14.048 14.048 0 1 0 0-28.09h-9.575v28.09zm6.291-5.776v-16.534h3.284c4.747 0 7.952 3.759 7.952 8.269s-3.2 8.269-7.952 8.269h-3.284zm20.086 5.776h6.567l2.493-5.934h11.632l2.492 5.934h6.568l-12.027-28.09h-5.7zm11.355-11.394l3.521-8.467 3.521 8.467h-7.046zm23.728 11.394h6.29v-11.588h1.029l9.337 11.592h7.557l-9.931-12.383c3.561-1.266 5.5-3.6 5.5-7.24a8.294 8.294 0 0 0-8.7-8.467h-11.086v28.09zm6.29-16.933v-5.381h4.036c1.859 0 3.2.99 3.2 2.691 0 1.622-1.346 2.69-3.2 2.69h-4.036zm22.3 16.933h6.291v-28.09h-6.291v28.09zm14.612 0h17.8v-6.014h-11.513V768.7h9.139v-6.014h-9.139v-5.024h11.513v-6.014h-17.8v28.09zm33.375.475c5.935 0 10.01-3.561 10.05-8.665.039-4.233-2.612-6.923-6.687-8.387l-1.978-.712c-2.967-1.068-4.352-1.741-4.352-3.244 0-1.464 1.7-2.137 3.4-2.137a6.248 6.248 0 0 1 4.866 2.335l4.115-4.352a11.723 11.723 0 0 0-9.06-3.877c-5.619 0-9.694 3.2-9.694 8.664 0 3.837 2.532 6.567 7.082 8.11l1.978.673c2.81.949 3.917 1.938 3.917 3.363 0 1.345-1.3 2.334-3.4 2.334a7.348 7.348 0 0 1-5.816-3.2l-4.827 4.075a12.318 12.318 0 0 0 10.402 5.024z"/></svg>