<svg xmlns="http://www.w3.org/2000/svg" width="672" height="1097"><defs><style>.cls-1{fill-rule:evenodd}</style></defs><path id="Rectangle_116_copy_6" data-name="Rectangle 116 copy 6" class="cls-1" d="M652.009 53.059l-1.094 1.084-15.976-15.829L618.1 55l-1.105-1.095 16.843-16.688-16.291-16.135L618.641 20l16.287 16.137 15.758-15.614 1.105 1.1-15.758 15.607z"/><path id="Rectangle_116_copy_5" data-name="Rectangle 116 copy 5" d="M650.915 599.4l-.08-.079L618.1 632l-1.105-1.1 32.739-32.681-32.187-32.129 1.094-1.09 33.368 33.309z" fill="#fff" fill-rule="evenodd"/><path id="We_partner_with_the_best_mills_on_earth_to_source_the_finest_ma_copy" data-name="We partner with the best mills on earth to source the finest ma copy" class="cls-1" d="M50.007 834.323h1.66l3.881-14.2h-1.94L50.627 831.2l-4.1-11.323-4.082 11.323-2.981-11.08h-1.94l3.881 14.2h1.66l3.481-9.643zm6.738-5a5.273 5.273 0 0 0 9.682 2.821l-1.36-.94a3.542 3.542 0 0 1-6.582-1.54h8.2a4.907 4.907 0 0 0 .02-.521c-.02-3.2-2.141-5.021-4.761-5.021a5.069 5.069 0 0 0-5.2 5.199zm5.141-3.68a2.992 2.992 0 0 1 3.061 2.62H58.6a3.27 3.27 0 0 1 3.286-2.622zM75.025 838.5h1.72v-5.721a4.387 4.387 0 0 0 3.521 1.741 5.211 5.211 0 0 0 0-10.4 4.387 4.387 0 0 0-3.521 1.741v-1.541h-1.72v14.18zm8.382-9.182a3.407 3.407 0 1 1-3.4-3.62 3.415 3.415 0 0 1 3.4 3.623zm3.958 0a5.006 5.006 0 0 0 4.9 5.2 4.387 4.387 0 0 0 3.521-1.741v1.541h1.72v-10h-1.72v1.541a4.387 4.387 0 0 0-3.521-1.741 5.005 5.005 0 0 0-4.9 5.203zm8.562 0a3.417 3.417 0 1 1-3.4-3.62 3.415 3.415 0 0 1 3.4 3.623zm5.318 5h1.72v-4.962c0-2.34 1.381-3.44 2.641-3.44a2.514 2.514 0 0 1 .94.16V824.3a3.564 3.564 0 0 0-.78-.08 2.977 2.977 0 0 0-2.8 2.041v-1.941h-1.72v10zm13.241-.141v-1.54a3.8 3.8 0 0 1-1.22.2 1.44 1.44 0 0 1-1.66-1.7V825.9h2.88v-1.58h-2.88v-2.78h-1.721v2.78h-2.12v1.58h2.12v5.461a2.816 2.816 0 0 0 3.061 3.061 4.756 4.756 0 0 0 1.54-.24zm2.7.141h1.721v-4.962c0-2.34 1.28-3.66 2.9-3.66 1.4 0 2.361 1.04 2.361 2.72v5.9h1.7v-6.162c0-2.48-1.54-4.041-3.781-4.041a3.535 3.535 0 0 0-3.18 1.741v-1.534h-1.721v10zm11.5-5a5.273 5.273 0 0 0 9.682 2.821l-1.36-.94a3.541 3.541 0 0 1-6.581-1.54h8.2a4.907 4.907 0 0 0 .02-.521c-.02-3.2-2.141-5.021-4.762-5.021a5.069 5.069 0 0 0-5.2 5.204zm5.141-3.68a2.992 2.992 0 0 1 3.061 2.62h-6.341a3.269 3.269 0 0 1 3.279-2.617zm7.76 8.682h1.72v-4.962c0-2.34 1.38-3.44 2.641-3.44a2.514 2.514 0 0 1 .94.16V824.3a3.564 3.564 0 0 0-.78-.08 2.976 2.976 0 0 0-2.8 2.041v-1.941h-1.72v10zm20.822 0h1.52l3.4-10h-1.82l-2.421 7.3-2.5-7.3h-1.32l-2.5 7.3-2.421-7.3h-1.8l3.4 10h1.521l2.48-7.2zm9.358-13.9a1.208 1.208 0 0 0-1.2-1.221 1.242 1.242 0 0 0-1.24 1.221 1.229 1.229 0 0 0 1.24 1.22 1.2 1.2 0 0 0 1.199-1.22zm-2.08 13.9h1.72v-10h-1.72v10zm10.9-.141v-1.54a3.8 3.8 0 0 1-1.22.2 1.44 1.44 0 0 1-1.66-1.7V825.9h2.88v-1.58h-2.88v-2.78h-1.721v2.78h-2.12v1.58h2.12v5.461a2.816 2.816 0 0 0 3.061 3.061 4.756 4.756 0 0 0 1.54-.24zm2.7.141h1.72v-4.962c0-2.34 1.281-3.66 2.9-3.66 1.4 0 2.361 1.04 2.361 2.72v5.9h1.7v-6.162c0-2.48-1.54-4.041-3.781-4.041a3.538 3.538 0 0 0-3.181 1.741v-6.542h-1.72v15zm22.741-.141v-1.54a3.8 3.8 0 0 1-1.22.2 1.44 1.44 0 0 1-1.66-1.7V825.9h2.88v-1.58h-2.88v-2.78h-1.721v2.78h-2.12v1.58h2.12v5.461a2.816 2.816 0 0 0 3.061 3.061 4.756 4.756 0 0 0 1.539-.24zm2.7.141h1.721v-4.962c0-2.34 1.28-3.66 2.9-3.66 1.4 0 2.361 1.04 2.361 2.72v5.9h1.7v-6.162c0-2.48-1.54-4.041-3.781-4.041a3.535 3.535 0 0 0-3.18 1.741v-6.542h-1.721v15zm11.5-5a5.273 5.273 0 0 0 9.682 2.821l-1.36-.94a3.541 3.541 0 0 1-6.581-1.54h8.2a4.907 4.907 0 0 0 .02-.521c-.02-3.2-2.141-5.021-4.762-5.021a5.069 5.069 0 0 0-5.201 5.202zm5.141-3.68a2.992 2.992 0 0 1 3.061 2.62h-6.341a3.269 3.269 0 0 1 3.278-2.619zm14.86 7.141a4.387 4.387 0 0 0 3.521 1.741 5.211 5.211 0 0 0 0-10.4 4.387 4.387 0 0 0-3.521 1.741v-6.542h-1.721v15h1.721v-1.541zm6.661-3.461a3.407 3.407 0 1 1-3.4-3.62 3.415 3.415 0 0 1 3.398 3.621zm3.938 0a5.274 5.274 0 0 0 9.683 2.821l-1.361-.94a3.541 3.541 0 0 1-6.581-1.54h8.2a4.907 4.907 0 0 0 .02-.521c-.02-3.2-2.141-5.021-4.761-5.021a5.069 5.069 0 0 0-5.202 5.202zm5.142-3.68a2.992 2.992 0 0 1 3.06 2.62h-6.341a3.269 3.269 0 0 1 3.279-2.619zm14.24 5.9c0-1.5-.94-2.461-2.64-3.021l-1.081-.36c-1.18-.38-1.54-.76-1.54-1.4 0-.74.74-1.16 1.68-1.16a2.7 2.7 0 0 1 2.121 1.04l1.12-1.08a3.877 3.877 0 0 0-3.2-1.441c-1.98 0-3.38 1.1-3.38 2.721 0 1.4.86 2.38 2.48 2.9l.98.32c1.3.42 1.781.9 1.781 1.6a1.523 1.523 0 0 1-1.761 1.36 2.684 2.684 0 0 1-2.56-1.58l-1.4.76a3.973 3.973 0 0 0 3.92 2.321c2.018.003 3.478-1.02 3.478-2.978zm8.26 2.64v-1.54a3.8 3.8 0 0 1-1.22.2 1.44 1.44 0 0 1-1.661-1.7v-5.24h2.881v-1.58h-2.881v-2.78h-1.72v2.78h-2.12v1.58h2.12v5.461a2.816 2.816 0 0 0 3.061 3.061 4.756 4.756 0 0 0 1.538-.24zm8.079.141h1.72v-4.962c0-2.26 1.141-3.66 2.761-3.66 1.3 0 1.96 1.12 1.96 2.74v5.882h1.721v-4.962c0-2.26 1.12-3.66 2.74-3.66 1.3 0 1.981 1.12 1.981 2.74v5.882h1.72v-6.142c0-2.44-1.32-4.061-3.5-4.061a3.462 3.462 0 0 0-3.281 2.141 3.146 3.146 0 0 0-3.081-2.141 3.362 3.362 0 0 0-3.021 1.741v-1.539h-1.72v10zm20.281-13.9a1.208 1.208 0 0 0-1.2-1.221 1.242 1.242 0 0 0-1.24 1.221 1.229 1.229 0 0 0 1.24 1.22 1.2 1.2 0 0 0 1.198-1.221zm-2.081 13.9h1.721v-10h-1.721v10zm5.48 0h1.721v-15h-1.721v15zm5.48 0h1.721v-15h-1.721v15zm11.962-2.781c0-1.5-.94-2.461-2.641-3.021l-1.08-.36c-1.18-.38-1.54-.76-1.54-1.4 0-.74.74-1.16 1.68-1.16a2.7 2.7 0 0 1 2.12 1.04l1.121-1.08a3.879 3.879 0 0 0-3.2-1.441c-1.981 0-3.381 1.1-3.381 2.721 0 1.4.86 2.38 2.481 2.9l.98.32c1.3.42 1.78.9 1.78 1.6a1.522 1.522 0 0 1-1.76 1.36 2.685 2.685 0 0 1-2.561-1.58l-1.4.76a3.974 3.974 0 0 0 3.921 2.321c2.017.003 3.478-1.02 3.478-2.978zm18-2.221a5.231 5.231 0 1 0-5.221 5.2 5.133 5.133 0 0 0 5.219-5.198zm-8.7 0a3.473 3.473 0 1 1 3.481 3.6 3.438 3.438 0 0 1-3.485-3.598zm11.66 5h1.721v-4.962c0-2.34 1.28-3.66 2.9-3.66 1.4 0 2.361 1.04 2.361 2.72v5.9h1.7v-6.162c0-2.48-1.54-4.041-3.781-4.041a3.535 3.535 0 0 0-3.18 1.741v-1.535h-1.721v10zm16.88-5a5.273 5.273 0 0 0 9.682 2.821l-1.36-.94a3.542 3.542 0 0 1-6.582-1.54h8.2a4.907 4.907 0 0 0 .02-.521c-.02-3.2-2.14-5.021-4.761-5.021a5.069 5.069 0 0 0-5.203 5.203zm5.141-3.68a2.992 2.992 0 0 1 3.061 2.62h-6.342a3.271 3.271 0 0 1 3.277-2.618zm6.979 3.68a5.006 5.006 0 0 0 4.9 5.2 4.387 4.387 0 0 0 3.521-1.741v1.541h1.721v-10h-1.721v1.541a4.387 4.387 0 0 0-3.521-1.741 5.006 5.006 0 0 0-4.904 5.202zm8.562 0a3.417 3.417 0 1 1-3.4-3.62 3.415 3.415 0 0 1 3.396 3.622zm5.319 5h1.72v-4.962c0-2.34 1.38-3.44 2.641-3.44a2.514 2.514 0 0 1 .94.16V824.3a3.564 3.564 0 0 0-.78-.08 2.976 2.976 0 0 0-2.8 2.041v-1.941h-1.72v10zm13.241-.141v-1.54a3.8 3.8 0 0 1-1.22.2 1.44 1.44 0 0 1-1.661-1.7V825.9h2.881v-1.58h-2.881v-2.78h-1.72v2.78h-2.121v1.58h2.121v5.461a2.816 2.816 0 0 0 3.061 3.061 4.756 4.756 0 0 0 1.536-.24zm2.7.141h1.72v-4.962c0-2.34 1.281-3.66 2.9-3.66 1.4 0 2.36 1.04 2.36 2.72v5.9h1.7v-6.162c0-2.48-1.541-4.041-3.781-4.041a3.537 3.537 0 0 0-3.181 1.741v-6.542h-1.72v15zm22.741-.141v-1.54a3.8 3.8 0 0 1-1.22.2 1.44 1.44 0 0 1-1.661-1.7V825.9h2.881v-1.58h-2.881v-2.78h-1.72v2.78h-2.12v1.58h2.12v5.461a2.816 2.816 0 0 0 3.061 3.061 4.756 4.756 0 0 0 1.535-.24zm12.221-4.861a5.231 5.231 0 1 0-5.221 5.2 5.133 5.133 0 0 0 5.216-5.196zm-8.7 0a3.473 3.473 0 1 1 3.481 3.6 3.438 3.438 0 0 1-3.488-3.596zm23.522 2.221c0-1.5-.94-2.461-2.641-3.021l-1.08-.36c-1.18-.38-1.541-.76-1.541-1.4 0-.74.741-1.16 1.681-1.16a2.7 2.7 0 0 1 2.12 1.04l1.121-1.08a3.879 3.879 0 0 0-3.2-1.441c-1.981 0-3.381 1.1-3.381 2.721 0 1.4.86 2.38 2.481 2.9l.98.32c1.3.42 1.78.9 1.78 1.6a1.522 1.522 0 0 1-1.76 1.36 2.685 2.685 0 0 1-2.561-1.58l-1.4.76a3.973 3.973 0 0 0 3.921 2.321c2.012.005 3.473-1.018 3.473-2.976zm12.621-2.221a5.232 5.232 0 1 0-5.222 5.2 5.134 5.134 0 0 0 5.215-5.196zm-8.7 0a3.473 3.473 0 1 1 3.481 3.6 3.438 3.438 0 0 1-3.491-3.596zm11.52 1.141c0 2.48 1.481 4.061 3.681 4.061a3.443 3.443 0 0 0 3.081-1.741v1.541h1.72v-10h-1.72v4.961c0 2.3-1.22 3.661-2.781 3.661-1.38 0-2.26-1.06-2.26-2.74v-5.881h-1.721v6.142zm12.221 3.861h1.72v-4.962c0-2.34 1.38-3.44 2.641-3.44a2.514 2.514 0 0 1 .94.16V824.3a3.564 3.564 0 0 0-.78-.08 2.976 2.976 0 0 0-2.8 2.041v-1.941h-1.72v10zm16.542-2.481l-1.5-.84a3.391 3.391 0 0 1-3.121 1.92 3.6 3.6 0 0 1 0-7.2 3.391 3.391 0 0 1 3.121 1.92l1.5-.84a5.181 5.181 0 0 0-4.621-2.681 5.2 5.2 0 1 0 0 10.4 5.181 5.181 0 0 0 4.611-2.675zm1.938-2.521a5.273 5.273 0 0 0 9.682 2.821l-1.36-.94a3.542 3.542 0 0 1-6.582-1.54h8.2a4.907 4.907 0 0 0 .02-.521c-.02-3.2-2.14-5.021-4.761-5.021a5.068 5.068 0 0 0-5.209 5.205zm5.141-3.68a2.993 2.993 0 0 1 3.061 2.62h-6.342a3.27 3.27 0 0 1 3.271-2.616zm-464.4 38.541v-1.54a3.8 3.8 0 0 1-1.22.2 1.44 1.44 0 0 1-1.66-1.7V855.9h2.881v-1.58h-2.896v-2.78H39.5v2.78h-2.12v1.58h2.12v5.461a2.816 2.816 0 0 0 3.061 3.061 4.758 4.758 0 0 0 1.544-.24zm2.7.141h1.72v-4.962c0-2.34 1.28-3.66 2.9-3.66 1.4 0 2.36 1.04 2.36 2.72v5.9h1.7v-6.162c0-2.48-1.54-4.041-3.781-4.041a3.536 3.536 0 0 0-3.181 1.741v-6.542H46.8v15zm11.5-5a5.273 5.273 0 0 0 9.682 2.821l-1.36-.94a3.542 3.542 0 0 1-6.582-1.54h8.2a4.907 4.907 0 0 0 .02-.521c-.02-3.2-2.141-5.021-4.761-5.021a5.069 5.069 0 0 0-5.219 5.203zm5.141-3.68a2.992 2.992 0 0 1 3.061 2.62h-6.357a3.27 3.27 0 0 1 3.28-2.618zm13.72 8.682h1.72V855.9h2.9v-1.58h-2.9v-1.84a1.44 1.44 0 0 1 1.66-1.7 4.029 4.029 0 0 1 1.24.2v-1.521a4.548 4.548 0 0 0-1.56-.26 2.857 2.857 0 0 0-3.061 3.1v2.02h-2.136v1.581h2.121v8.422zm8.582-13.9a1.208 1.208 0 0 0-1.2-1.221 1.243 1.243 0 0 0-1.24 1.221 1.229 1.229 0 0 0 1.24 1.22 1.2 1.2 0 0 0 1.184-1.221zm-2.081 13.9h1.72v-10h-1.72v10zm5.458 0h1.72v-4.962c0-2.34 1.28-3.66 2.9-3.66 1.4 0 2.361 1.04 2.361 2.72v5.9h1.7v-6.162c0-2.48-1.54-4.041-3.781-4.041a3.536 3.536 0 0 0-3.181 1.741v-1.537h-1.72v10zm11.5-5a5.273 5.273 0 0 0 9.682 2.821l-1.36-.94a3.542 3.542 0 0 1-6.582-1.54h8.2a4.907 4.907 0 0 0 .02-.521c-.02-3.2-2.14-5.021-4.761-5.021a5.068 5.068 0 0 0-5.214 5.201zm5.141-3.68a2.993 2.993 0 0 1 3.061 2.62H102.5a3.27 3.27 0 0 1 3.266-2.62zm14.241 5.9c0-1.5-.941-2.461-2.641-3.021l-1.08-.36c-1.18-.38-1.541-.76-1.541-1.4 0-.74.741-1.16 1.681-1.16a2.7 2.7 0 0 1 2.12 1.04l1.121-1.08a3.879 3.879 0 0 0-3.2-1.441c-1.981 0-3.381 1.1-3.381 2.721 0 1.4.86 2.38 2.481 2.9l.98.32c1.3.42 1.78.9 1.78 1.6a1.522 1.522 0 0 1-1.76 1.36 2.685 2.685 0 0 1-2.561-1.58l-1.4.76a3.973 3.973 0 0 0 3.921 2.321c2.004.002 3.465-1.021 3.465-2.979zm8.26 2.64v-1.54a3.808 3.808 0 0 1-1.221.2 1.44 1.44 0 0 1-1.66-1.7V855.9h2.881v-1.58h-2.881v-2.78h-1.721v2.78h-2.12v1.58h2.12v5.461a2.816 2.816 0 0 0 3.061 3.061 4.767 4.767 0 0 0 1.526-.24zm8.078.141h1.721v-4.962c0-2.26 1.14-3.66 2.76-3.66 1.3 0 1.961 1.12 1.961 2.74v5.882h1.72v-4.962c0-2.26 1.121-3.66 2.741-3.66 1.3 0 1.98 1.12 1.98 2.74v5.882h1.721v-6.142c0-2.44-1.321-4.061-3.5-4.061a3.463 3.463 0 0 0-3.281 2.141 3.145 3.145 0 0 0-3.081-2.141 3.362 3.362 0 0 0-3.02 1.741v-1.54h-1.721v10zm17.421-5a5.005 5.005 0 0 0 4.9 5.2 4.39 4.39 0 0 0 3.521-1.741v1.541h1.72v-10h-1.72v1.541a4.39 4.39 0 0 0-3.521-1.741 5.005 5.005 0 0 0-4.915 5.199zm8.562 0a3.417 3.417 0 1 1-3.4-3.62 3.415 3.415 0 0 1 3.385 3.619zm10.739 4.861v-1.54a3.8 3.8 0 0 1-1.22.2 1.44 1.44 0 0 1-1.661-1.7V855.9h2.881v-1.58h-2.881v-2.78h-1.72v2.78h-2.12v1.58h2.12v5.461a2.816 2.816 0 0 0 3.061 3.061 4.756 4.756 0 0 0 1.525-.24zm1.779-4.861a5.273 5.273 0 0 0 9.682 2.821l-1.36-.94a3.542 3.542 0 0 1-6.582-1.54h8.2a4.907 4.907 0 0 0 .02-.521c-.02-3.2-2.14-5.021-4.761-5.021a5.069 5.069 0 0 0-5.214 5.2zm5.141-3.68a2.992 2.992 0 0 1 3.061 2.62h-6.342a3.271 3.271 0 0 1 3.266-2.621zm7.759 8.682h1.721v-4.962c0-2.34 1.38-3.44 2.64-3.44a2.519 2.519 0 0 1 .941.16V854.3a3.566 3.566 0 0 0-.781-.08 2.976 2.976 0 0 0-2.8 2.041v-1.941h-1.721v10zm9.9-13.9a1.208 1.208 0 0 0-1.2-1.221 1.243 1.243 0 0 0-1.241 1.221 1.23 1.23 0 0 0 1.241 1.22 1.2 1.2 0 0 0 1.186-1.224zm-2.08 13.9h1.72v-10h-1.72v10zm4.7-5a5.006 5.006 0 0 0 4.9 5.2 4.387 4.387 0 0 0 3.521-1.741v1.541h1.721v-10h-1.721v1.541a4.387 4.387 0 0 0-3.521-1.741 5.006 5.006 0 0 0-4.915 5.197zm8.562 0a3.417 3.417 0 1 1-3.4-3.62 3.415 3.415 0 0 1 3.385 3.617zm5.319 5h1.72v-15h-1.72v15zm11.961-2.781c0-1.5-.94-2.461-2.64-3.021l-1.081-.36c-1.18-.38-1.54-.76-1.54-1.4 0-.74.74-1.16 1.68-1.16a2.7 2.7 0 0 1 2.121 1.04l1.12-1.08a3.877 3.877 0 0 0-3.2-1.441c-1.98 0-3.38 1.1-3.38 2.721 0 1.4.86 2.38 2.48 2.9l.98.32c1.3.42 1.781.9 1.781 1.6a1.523 1.523 0 0 1-1.761 1.36 2.684 2.684 0 0 1-2.56-1.58l-1.4.76a3.975 3.975 0 0 0 3.921 2.321c2.004 0 3.464-1.023 3.464-2.981zm2.639-1.96h10.1v-1.721h-10.1v1.721zm15.24 3.2a4.388 4.388 0 0 0 3.521 1.741 5.211 5.211 0 0 0 0-10.4 4.388 4.388 0 0 0-3.521 1.741v-6.542h-1.72v15h1.72v-1.541zm6.662-3.461a3.408 3.408 0 1 1-3.4-3.62 3.415 3.415 0 0 1 3.385 3.619zm4.718 5h1.72v-15h-1.72v15zm4.7-5a5.273 5.273 0 0 0 9.682 2.821l-1.36-.94a3.542 3.542 0 0 1-6.582-1.54h8.2a4.907 4.907 0 0 0 .02-.521c-.02-3.2-2.14-5.021-4.761-5.021a5.068 5.068 0 0 0-5.214 5.2zm5.141-3.68a2.993 2.993 0 0 1 3.061 2.62h-6.342a3.27 3.27 0 0 1 3.266-2.621zm7.759 8.682h1.721v-4.962c0-2.34 1.28-3.66 2.9-3.66 1.4 0 2.361 1.04 2.361 2.72v5.9h1.7v-6.162c0-2.48-1.54-4.041-3.781-4.041a3.535 3.535 0 0 0-3.18 1.741v-1.54h-1.721v10zm11.5-5a5.006 5.006 0 0 0 4.9 5.2 4.387 4.387 0 0 0 3.521-1.741v1.541h1.721v-15h-1.721v6.542a4.387 4.387 0 0 0-3.521-1.741 5.006 5.006 0 0 0-4.915 5.196zm8.562 0a3.417 3.417 0 1 1-3.4-3.62 3.415 3.415 0 0 1 3.385 3.617zm7.4-8.9a1.208 1.208 0 0 0-1.2-1.221 1.243 1.243 0 0 0-1.241 1.221 1.229 1.229 0 0 0 1.241 1.22 1.2 1.2 0 0 0 1.184-1.224zm-2.081 13.9h1.721v-10h-1.721v10zm5.48 0h1.721v-4.962c0-2.34 1.28-3.66 2.9-3.66 1.4 0 2.361 1.04 2.361 2.72v5.9h1.7v-6.162c0-2.48-1.54-4.041-3.78-4.041a3.536 3.536 0 0 0-3.181 1.741v-1.54h-1.721v10zm21.6-.581v-9.423h-1.721v1.541a4.256 4.256 0 0 0-3.481-1.741 5.1 5.1 0 0 0 0 10.183 4.272 4.272 0 0 0 3.481-1.761v1.14a3.2 3.2 0 0 1-3.341 3.461 4.278 4.278 0 0 1-3.5-1.68l-1.2 1.2a5.94 5.94 0 0 0 4.721 2.04c2.827-.003 5.028-1.62 5.028-4.961zm-8.342-4.541a3.383 3.383 0 1 1 3.38 3.5 3.332 3.332 0 0 1-3.393-3.502zm17.46 5.122h1.72v-4.962c0-2.34 1.28-3.66 2.9-3.66 1.4 0 2.36 1.04 2.36 2.72v5.9h1.7v-6.162c0-2.48-1.541-4.041-3.781-4.041a3.536 3.536 0 0 0-3.181 1.741v-1.54h-1.72v10zm11.5-5a5.006 5.006 0 0 0 4.9 5.2 4.386 4.386 0 0 0 3.52-1.741v1.541h1.721v-10h-1.721v1.541a4.386 4.386 0 0 0-3.52-1.741 5.006 5.006 0 0 0-4.914 5.197zm8.563 0a3.417 3.417 0 1 1-3.4-3.62 3.415 3.415 0 0 1 3.386 3.617zm10.739 4.861v-1.54a3.8 3.8 0 0 1-1.22.2 1.44 1.44 0 0 1-1.661-1.7V855.9h2.881v-1.58h-2.881v-2.78h-1.72v2.78h-2.121v1.58h2.121v5.461a2.816 2.816 0 0 0 3.061 3.061 4.756 4.756 0 0 0 1.526-.24zm2.559-3.72c0 2.48 1.48 4.061 3.681 4.061a3.444 3.444 0 0 0 3.081-1.741v1.541h1.72v-10h-1.72v4.961c0 2.3-1.221 3.661-2.781 3.661-1.38 0-2.261-1.06-2.261-2.74v-5.888h-1.72v6.142zm12.22 3.861h1.721v-4.962c0-2.34 1.38-3.44 2.64-3.44a2.514 2.514 0 0 1 .94.16V854.3a3.564 3.564 0 0 0-.78-.08 2.976 2.976 0 0 0-2.8 2.041v-1.941h-1.721v10zm6.7-5a5.006 5.006 0 0 0 4.9 5.2 4.387 4.387 0 0 0 3.521-1.741v1.541h1.721v-10h-1.734v1.541a4.387 4.387 0 0 0-3.521-1.741 5.006 5.006 0 0 0-4.901 5.195zm8.562 0a3.417 3.417 0 1 1-3.4-3.62 3.415 3.415 0 0 1 3.386 3.615zm5.318 5h1.721v-15h-1.721v15zm11.441 0h1.72V855.9h2.9v-1.58h-2.9v-1.84a1.44 1.44 0 0 1 1.661-1.7 4.027 4.027 0 0 1 1.24.2v-1.521a4.545 4.545 0 0 0-1.56-.26 2.857 2.857 0 0 0-3.061 3.1v2.02h-2.121v1.581h2.121v8.422zm8.582-13.9a1.208 1.208 0 0 0-1.2-1.221 1.243 1.243 0 0 0-1.241 1.221 1.229 1.229 0 0 0 1.241 1.22 1.2 1.2 0 0 0 1.186-1.226zm-2.081 13.9h1.721v-10h-1.735v10zm7.179-1.541a4.388 4.388 0 0 0 3.521 1.741 5.211 5.211 0 0 0 0-10.4 4.388 4.388 0 0 0-3.521 1.741v-6.542h-1.72v15h1.72v-1.541zm6.662-3.461a3.408 3.408 0 1 1-3.4-3.62 3.415 3.415 0 0 1 3.386 3.617zm3.938 0a5.273 5.273 0 0 0 9.682 2.821l-1.36-.94a3.542 3.542 0 0 1-6.582-1.54h8.2a4.907 4.907 0 0 0 .02-.521c-.02-3.2-2.141-5.021-4.761-5.021a5.068 5.068 0 0 0-5.213 5.198zm5.141-3.68a2.993 2.993 0 0 1 3.061 2.62h-6.342a3.269 3.269 0 0 1 3.267-2.623zm7.759 8.682h1.72v-4.962c0-2.34 1.381-3.44 2.641-3.44a2.514 2.514 0 0 1 .94.16V854.3a3.564 3.564 0 0 0-.78-.08 2.978 2.978 0 0 0-2.8 2.041v-1.941h-1.72v10zm14.122-2.781c0-1.5-.94-2.461-2.641-3.021l-1.08-.36c-1.18-.38-1.54-.76-1.54-1.4 0-.74.74-1.16 1.68-1.16a2.7 2.7 0 0 1 2.121 1.04l1.12-1.08a3.878 3.878 0 0 0-3.2-1.441c-1.98 0-3.381 1.1-3.381 2.721 0 1.4.861 2.38 2.481 2.9l.98.32c1.3.42 1.781.9 1.781 1.6a1.523 1.523 0 0 1-1.761 1.36 2.684 2.684 0 0 1-2.56-1.58l-1.4.76a3.974 3.974 0 0 0 3.921 2.321c2.005-.002 3.465-1.025 3.465-2.983zm16.461 2.781h1.52l3.4-10h-1.821l-2.42 7.3-2.5-7.3h-1.32l-2.5 7.3-2.42-7.3h-1.8l3.4 10h1.52l2.481-7.2zm9.358-13.9a1.208 1.208 0 0 0-1.2-1.221 1.242 1.242 0 0 0-1.24 1.221 1.229 1.229 0 0 0 1.24 1.22 1.2 1.2 0 0 0 1.186-1.226zm-2.08 13.9h1.72v-10h-1.72v10zm10.9-.141v-1.54a3.8 3.8 0 0 1-1.22.2 1.44 1.44 0 0 1-1.661-1.7V855.9h2.881v-1.58h-2.894v-2.78h-1.72v2.78h-2.121v1.58h2.121v5.461a2.816 2.816 0 0 0 3.061 3.061 4.756 4.756 0 0 0 1.54-.24zm2.7.141h1.72v-4.962c0-2.34 1.281-3.66 2.9-3.66 1.4 0 2.36 1.04 2.36 2.72v5.9h1.7v-6.162c0-2.48-1.54-4.041-3.781-4.041a3.537 3.537 0 0 0-3.181 1.741v-6.542h-1.72v15zM44.105 894.182v-1.54a3.8 3.8 0 0 1-1.22.2 1.44 1.44 0 0 1-1.66-1.7V885.9h2.881v-1.58h-2.881v-2.78H39.5v2.78h-2.12v1.58h2.12v5.461a2.816 2.816 0 0 0 3.061 3.061 4.758 4.758 0 0 0 1.544-.24zm2.7.141h1.72v-4.962c0-2.34 1.28-3.66 2.9-3.66 1.4 0 2.36 1.04 2.36 2.72v5.9h1.7v-6.162c0-2.48-1.54-4.041-3.781-4.041a3.536 3.536 0 0 0-3.181 1.741v-6.542H46.8v15zm11.5-5a5.273 5.273 0 0 0 9.682 2.821l-1.36-.94a3.542 3.542 0 0 1-6.582-1.54h8.2a4.907 4.907 0 0 0 .02-.521c-.02-3.2-2.141-5.021-4.761-5.021a5.069 5.069 0 0 0-5.204 5.199zm5.141-3.68a2.992 2.992 0 0 1 3.061 2.62h-6.342a3.27 3.27 0 0 1 3.28-2.622zm13.139 8.682H78.3v-15h-1.72v15zm4.7-5a5.006 5.006 0 0 0 4.9 5.2 4.388 4.388 0 0 0 3.521-1.741v1.541h1.72v-10h-1.72v1.541a4.388 4.388 0 0 0-3.521-1.741 5.005 5.005 0 0 0-4.901 5.196zm8.562 0a3.417 3.417 0 1 1-3.4-3.62 3.415 3.415 0 0 1 3.399 3.616zm10.74 4.861v-1.54a3.8 3.8 0 0 1-1.22.2 1.44 1.44 0 0 1-1.66-1.7V885.9h2.881v-1.58h-2.883v-2.78h-1.72v2.78h-2.121v1.58h2.121v5.461a2.816 2.816 0 0 0 3.061 3.061 4.759 4.759 0 0 0 1.54-.24zm1.779-4.861a5.273 5.273 0 0 0 9.682 2.821l-1.36-.94a3.542 3.542 0 0 1-6.582-1.54h8.2a4.907 4.907 0 0 0 .02-.521c-.02-3.2-2.14-5.021-4.761-5.021a5.068 5.068 0 0 0-5.2 5.197zm5.141-3.68a2.993 2.993 0 0 1 3.061 2.62h-6.342a3.27 3.27 0 0 1 3.28-2.624zm14.241 5.9c0-1.5-.941-2.461-2.641-3.021l-1.08-.36c-1.181-.38-1.541-.76-1.541-1.4 0-.74.741-1.16 1.681-1.16a2.7 2.7 0 0 1 2.12 1.04l1.121-1.08a3.879 3.879 0 0 0-3.2-1.441c-1.981 0-3.381 1.1-3.381 2.721 0 1.4.86 2.38 2.481 2.9l.98.32c1.3.42 1.78.9 1.78 1.6a1.522 1.522 0 0 1-1.76 1.36 2.685 2.685 0 0 1-2.561-1.58l-1.4.76a3.973 3.973 0 0 0 3.921 2.321c2.018-.002 3.479-1.025 3.479-2.983zm8.26 2.64v-1.54a3.813 3.813 0 0 1-1.221.2 1.44 1.44 0 0 1-1.66-1.7V885.9h2.881v-1.58h-2.881v-2.78h-1.721v2.78h-2.12v1.58h2.12v5.461a2.816 2.816 0 0 0 3.061 3.061 4.767 4.767 0 0 0 1.54-.24zm10.159-13.762a1.208 1.208 0 0 0-1.2-1.221 1.242 1.242 0 0 0-1.24 1.221 1.229 1.229 0 0 0 1.24 1.22 1.2 1.2 0 0 0 1.199-1.223zm-2.081 13.9h1.721v-10h-1.721v10zm5.48 0h1.721v-4.962c0-2.34 1.28-3.66 2.9-3.66 1.4 0 2.361 1.04 2.361 2.72v5.9h1.7v-6.162c0-2.48-1.54-4.041-3.781-4.041a3.535 3.535 0 0 0-3.18 1.741v-1.539h-1.721v10zm12.28 0h1.721v-4.962c0-2.34 1.28-3.66 2.9-3.66 1.4 0 2.361 1.04 2.361 2.72v5.9h1.7v-6.162c0-2.48-1.54-4.041-3.78-4.041a3.536 3.536 0 0 0-3.181 1.741v-1.539h-1.721v10zm21.943-5a5.232 5.232 0 1 0-5.221 5.2 5.133 5.133 0 0 0 5.22-5.202zm-8.7 0a3.473 3.473 0 1 1 3.481 3.6 3.437 3.437 0 0 1-3.484-3.602zm14.561 5h1.44l4.621-10h-1.92l-3.421 7.562-3.421-7.562h-1.921zm7.319-5a5.005 5.005 0 0 0 4.9 5.2 4.388 4.388 0 0 0 3.521-1.741v1.541h1.72v-10h-1.72v1.541a4.388 4.388 0 0 0-3.521-1.741 5.005 5.005 0 0 0-4.903 5.198zm8.562 0a3.417 3.417 0 1 1-3.4-3.62 3.415 3.415 0 0 1 3.397 3.618zm10.739 4.861v-1.54a3.8 3.8 0 0 1-1.22.2 1.44 1.44 0 0 1-1.66-1.7V885.9h2.88v-1.58h-2.88v-2.78h-1.721v2.78h-2.12v1.58h2.12v5.461a2.816 2.816 0 0 0 3.061 3.061 4.756 4.756 0 0 0 1.537-.24zm4.78-13.762a1.208 1.208 0 0 0-1.2-1.221 1.242 1.242 0 0 0-1.24 1.221 1.229 1.229 0 0 0 1.24 1.22 1.2 1.2 0 0 0 1.197-1.222zm-2.081 13.9h1.721v-10h-1.721v10zm15.143-5a5.232 5.232 0 1 0-5.222 5.2 5.134 5.134 0 0 0 5.219-5.201zm-8.7 0a3.473 3.473 0 1 1 3.481 3.6 3.438 3.438 0 0 1-3.487-3.601zm11.66 5h1.721v-4.962c0-2.34 1.28-3.66 2.9-3.66 1.4 0 2.361 1.04 2.361 2.72v5.9h1.7v-6.162c0-2.48-1.54-4.041-3.78-4.041a3.536 3.536 0 0 0-3.181 1.741v-1.538h-1.721v10zm14.661-1.341a1.481 1.481 0 1 0-1.48 1.5 1.507 1.507 0 0 0 1.474-1.499zm8.8 1.341h5.081c2.88 0 4.761-1.781 4.761-4.141a3.384 3.384 0 0 0-2.461-3.4 3.22 3.22 0 0 0 1.521-2.9c0-2-1.6-3.76-4.241-3.76h-4.661v14.2zm1.86-8.1V881.8h2.8a2.233 2.233 0 0 1 2.42 2.22 2.186 2.186 0 0 1-2.42 2.2h-2.8zm0 6.421v-4.821h3.321c1.88 0 2.84 1.04 2.84 2.421 0 1.4-.96 2.4-2.86 2.4h-3.3zm10.18-3.321a5.005 5.005 0 0 0 4.9 5.2 4.39 4.39 0 0 0 3.521-1.741v1.541h1.72v-10h-1.72v1.541a4.39 4.39 0 0 0-3.521-1.741 5.005 5.005 0 0 0-4.906 5.199zm8.562 0a3.417 3.417 0 1 1-3.4-3.62 3.415 3.415 0 0 1 3.394 3.619zm5.318 5h1.72v-4.962c0-2.34 1.281-3.66 2.9-3.66 1.4 0 2.361 1.04 2.361 2.72v5.9h1.7v-6.162c0-2.48-1.54-4.041-3.781-4.041a3.537 3.537 0 0 0-3.181 1.741v-1.538h-1.72v10zm11.5-5a5.005 5.005 0 0 0 4.9 5.2 4.388 4.388 0 0 0 3.521-1.741v1.541h1.72v-10h-1.72v1.541a4.388 4.388 0 0 0-3.521-1.741 5.005 5.005 0 0 0-4.906 5.199zm8.562 0a3.417 3.417 0 1 1-3.4-3.62 3.415 3.415 0 0 1 3.394 3.619zm5.318 5h1.721v-4.962c0-2.34 1.28-3.66 2.9-3.66 1.4 0 2.361 1.04 2.361 2.72v5.9h1.7v-6.162c0-2.48-1.54-4.041-3.781-4.041a3.535 3.535 0 0 0-3.18 1.741v-1.538h-1.721v10zm11.5-5a5.006 5.006 0 0 0 4.9 5.2 4.387 4.387 0 0 0 3.521-1.741v1.541h1.72v-10h-1.72v1.541a4.387 4.387 0 0 0-3.521-1.741 5.006 5.006 0 0 0-4.906 5.199zm8.562 0a3.417 3.417 0 1 1-3.4-3.62 3.415 3.415 0 0 1 3.394 3.619zm10.958 5h1.861v-6.462h1.38l5.461 6.462h2.341l-5.461-6.482a3.7 3.7 0 0 0 3.5-3.8c0-2.34-1.62-3.92-4.241-3.92h-4.841v14.2zm1.861-8.122v-4.36h2.76c1.621 0 2.6.76 2.6 2.2 0 1.421-.98 2.161-2.6 2.161h-2.76zm10 3.12a5.274 5.274 0 0 0 9.683 2.821l-1.361-.94a3.541 3.541 0 0 1-6.581-1.54h8.2a4.907 4.907 0 0 0 .02-.521c-.02-3.2-2.141-5.021-4.761-5.021a5.069 5.069 0 0 0-5.207 5.202zm5.142-3.68a2.992 2.992 0 0 1 3.06 2.62h-6.341a3.269 3.269 0 0 1 3.274-2.619zm7.759 12.862h1.72v-5.721a4.388 4.388 0 0 0 3.521 1.741 5.211 5.211 0 0 0 0-10.4 4.388 4.388 0 0 0-3.521 1.741v-1.543h-1.72v14.18zm8.382-9.182a3.408 3.408 0 1 1-3.4-3.62 3.415 3.415 0 0 1 3.393 3.621zm4.6 1.141c0 2.48 1.48 4.061 3.681 4.061a3.444 3.444 0 0 0 3.081-1.741v1.541h1.72v-10h-1.72v4.961c0 2.3-1.221 3.661-2.781 3.661-1.38 0-2.261-1.06-2.261-2.74v-5.884h-1.72v6.142zm13.941 2.32a4.386 4.386 0 0 0 3.52 1.741 5.211 5.211 0 0 0 0-10.4 4.386 4.386 0 0 0-3.52 1.741v-6.542h-1.721v15h1.721v-1.541zm6.661-3.461a3.407 3.407 0 1 1-3.4-3.62 3.415 3.415 0 0 1 3.391 3.621zm4.718 5h1.721v-15h-1.721v15zm7.561-13.9a1.208 1.208 0 0 0-1.2-1.221 1.242 1.242 0 0 0-1.24 1.221 1.229 1.229 0 0 0 1.24 1.22 1.2 1.2 0 0 0 1.191-1.22zm-2.081 13.9h1.721v-10h-1.721v10zm14.562-2.481l-1.5-.84a3.39 3.39 0 0 1-3.121 1.92 3.6 3.6 0 0 1 0-7.2 3.39 3.39 0 0 1 3.121 1.92l1.5-.84a5.18 5.18 0 0 0-4.621-2.681 5.2 5.2 0 1 0 0 10.4 5.18 5.18 0 0 0 4.612-2.676zm10.179-11.422a1.208 1.208 0 0 0-1.2-1.221 1.242 1.242 0 0 0-1.24 1.221 1.229 1.229 0 0 0 1.24 1.22 1.2 1.2 0 0 0 1.191-1.217zm-2.081 13.9h1.721v-10h-1.721v10zm11.962-2.781c0-1.5-.941-2.461-2.641-3.021l-1.08-.36c-1.18-.38-1.541-.76-1.541-1.4 0-.74.741-1.16 1.681-1.16a2.7 2.7 0 0 1 2.12 1.04l1.121-1.08a3.879 3.879 0 0 0-3.2-1.441c-1.981 0-3.381 1.1-3.381 2.721 0 1.4.86 2.38 2.481 2.9l.98.32c1.3.42 1.78.9 1.78 1.6a1.522 1.522 0 0 1-1.76 1.36 2.685 2.685 0 0 1-2.561-1.58l-1.4.76a3.973 3.973 0 0 0 3.921 2.321c2.01.007 3.471-1.016 3.471-2.974zm7.558-2.221a5.005 5.005 0 0 0 4.9 5.2 4.388 4.388 0 0 0 3.521-1.741v1.541h1.72v-15h-1.72v6.542a4.388 4.388 0 0 0-3.521-1.741 5.005 5.005 0 0 0-4.909 5.205zm8.562 0a3.417 3.417 0 1 1-3.4-3.62 3.415 3.415 0 0 1 3.391 3.626zm4.538 0a5.273 5.273 0 0 0 9.682 2.821l-1.36-.94a3.542 3.542 0 0 1-6.582-1.54h8.2a4.907 4.907 0 0 0 .02-.521c-.02-3.2-2.14-5.021-4.761-5.021a5.069 5.069 0 0 0-5.208 5.207zm5.141-3.68a2.992 2.992 0 0 1 3.061 2.62h-6.342a3.271 3.271 0 0 1 3.272-2.614zm14.241 5.9c0-1.5-.94-2.461-2.641-3.021l-1.08-.36c-1.18-.38-1.54-.76-1.54-1.4 0-.74.74-1.16 1.68-1.16a2.705 2.705 0 0 1 2.121 1.04l1.12-1.08a3.878 3.878 0 0 0-3.2-1.441c-1.98 0-3.381 1.1-3.381 2.721 0 1.4.86 2.38 2.481 2.9l.98.32c1.3.42 1.781.9 1.781 1.6a1.523 1.523 0 0 1-1.761 1.36 2.684 2.684 0 0 1-2.56-1.58l-1.4.76a3.974 3.974 0 0 0 3.921 2.321c2.01.008 3.47-1.015 3.47-2.973zm5.039-11.122a1.208 1.208 0 0 0-1.2-1.221 1.243 1.243 0 0 0-1.241 1.221 1.23 1.23 0 0 0 1.241 1.22 1.2 1.2 0 0 0 1.191-1.213zm-2.081 13.9h1.721v-10h-1.721v10zm14.8-.581v-9.412h-1.727v1.541a4.256 4.256 0 0 0-3.481-1.741 5.1 5.1 0 0 0 0 10.183 4.272 4.272 0 0 0 3.481-1.761v1.14a3.2 3.2 0 0 1-3.341 3.461 4.278 4.278 0 0 1-3.5-1.68l-1.2 1.2a5.94 5.94 0 0 0 4.721 2.04c2.84-.003 5.041-1.62 5.041-4.961zm-8.342-4.541a3.383 3.383 0 1 1 3.38 3.5 3.332 3.332 0 0 1-3.386-3.491zm12.08 5.122h1.72v-4.962c0-2.34 1.28-3.66 2.9-3.66 1.4 0 2.36 1.04 2.36 2.72v5.9h1.7v-6.162c0-2.48-1.541-4.041-3.781-4.041a3.536 3.536 0 0 0-3.181 1.741v-1.529h-1.72v10zm11.5-5a5.273 5.273 0 0 0 9.682 2.821l-1.361-.94a3.541 3.541 0 0 1-6.581-1.54h8.2a4.907 4.907 0 0 0 .02-.521c-.02-3.2-2.141-5.021-4.761-5.021a5.068 5.068 0 0 0-5.205 5.209zm5.141-3.68a2.992 2.992 0 0 1 3.06 2.62h-6.341a3.269 3.269 0 0 1 3.275-2.612zm6.979 3.68a5.005 5.005 0 0 0 4.9 5.2 4.388 4.388 0 0 0 3.521-1.741v1.541h1.72v-15h-1.72v6.542a4.388 4.388 0 0 0-3.521-1.741 5.005 5.005 0 0 0-4.906 5.207zm8.562 0a3.417 3.417 0 1 1-3.4-3.62 3.415 3.415 0 0 1 3.394 3.628zM40.765 910.42a1.208 1.208 0 0 0-1.2-1.221 1.243 1.243 0 0 0-1.24 1.221 1.229 1.229 0 0 0 1.24 1.22 1.2 1.2 0 0 0 1.2-1.22zm-2.08 13.9H40.4v-10h-1.72v10zm5.48 0h1.72v-4.962c0-2.34 1.28-3.66 2.9-3.66 1.4 0 2.361 1.04 2.361 2.72v5.9h1.7v-6.162c0-2.48-1.54-4.041-3.781-4.041a3.536 3.536 0 0 0-3.181 1.741v-1.536h-1.72v10zm16.94-7.1a7.382 7.382 0 0 0 13.623 3.9l-1.56-.94a5.581 5.581 0 1 1 0-5.922l1.56-.94a7.382 7.382 0 0 0-13.628 3.903zm15.54 2.1a5.006 5.006 0 0 0 4.9 5.2 4.387 4.387 0 0 0 3.521-1.741v1.541h1.72v-10h-1.72v1.541a4.387 4.387 0 0 0-3.521-1.741 5.005 5.005 0 0 0-4.901 5.201zm8.562 0a3.417 3.417 0 1 1-3.4-3.62 3.415 3.415 0 0 1 3.399 3.621zm5.318 5h1.721v-15h-1.722v15zm7.561-13.9a1.208 1.208 0 0 0-1.2-1.221 1.243 1.243 0 0 0-1.24 1.221 1.229 1.229 0 0 0 1.24 1.22 1.2 1.2 0 0 0 1.199-1.22zM96 924.323h1.72v-10H96v10zm6.321 0h1.72V915.9h2.9v-1.58h-2.9v-1.84a1.44 1.44 0 0 1 1.66-1.7 4.029 4.029 0 0 1 1.241.2v-1.521a4.551 4.551 0 0 0-1.561-.26 2.857 2.857 0 0 0-3.06 3.1v2.02H100.2v1.581h2.121v8.422zm16.4-5a5.231 5.231 0 1 0-5.221 5.2 5.133 5.133 0 0 0 5.227-5.202zm-8.7 0a3.473 3.473 0 1 1 3.481 3.6 3.437 3.437 0 0 1-3.477-3.602zm11.66 5h1.72v-4.962c0-2.34 1.381-3.44 2.641-3.44a2.514 2.514 0 0 1 .94.16V914.3a3.564 3.564 0 0 0-.78-.08 2.977 2.977 0 0 0-2.8 2.041v-1.941h-1.72v10zm7.82 0h1.72v-4.962c0-2.34 1.281-3.66 2.9-3.66 1.4 0 2.361 1.04 2.361 2.72v5.9h1.7v-6.162c0-2.48-1.54-4.041-3.781-4.041a3.537 3.537 0 0 0-3.181 1.741v-1.539h-1.72v10zm14.361-13.9a1.209 1.209 0 0 0-1.2-1.221 1.242 1.242 0 0 0-1.24 1.221 1.229 1.229 0 0 0 1.24 1.22 1.2 1.2 0 0 0 1.204-1.223zm-2.081 13.9h1.72v-10h-1.72v10zm4.7-5a5.005 5.005 0 0 0 4.9 5.2 4.388 4.388 0 0 0 3.521-1.741v1.541h1.72v-10h-1.72v1.541a4.388 4.388 0 0 0-3.521-1.741 5.005 5.005 0 0 0-4.896 5.198zm8.562 0a3.417 3.417 0 1 1-3.4-3.62 3.415 3.415 0 0 1 3.404 3.618zm10.558 1.141c0 2.48 1.48 4.061 3.681 4.061a3.444 3.444 0 0 0 3.081-1.741v1.541h1.72v-10h-1.72v4.961c0 2.3-1.221 3.661-2.781 3.661-1.38 0-2.261-1.06-2.261-2.74v-5.887h-1.72v6.142zm18.7 1.08c0-1.5-.94-2.461-2.641-3.021l-1.08-.36c-1.18-.38-1.54-.76-1.54-1.4 0-.74.74-1.16 1.68-1.16a2.7 2.7 0 0 1 2.12 1.04l1.121-1.08a3.879 3.879 0 0 0-3.2-1.441c-1.981 0-3.381 1.1-3.381 2.721 0 1.4.86 2.38 2.481 2.9l.98.32c1.3.42 1.78.9 1.78 1.6a1.522 1.522 0 0 1-1.76 1.36 2.685 2.685 0 0 1-2.561-1.58l-1.4.76a3.974 3.974 0 0 0 3.921 2.321c2.025-.001 3.486-1.024 3.486-2.982zm5.039-11.122a1.208 1.208 0 0 0-1.2-1.221 1.242 1.242 0 0 0-1.24 1.221 1.229 1.229 0 0 0 1.24 1.22 1.2 1.2 0 0 0 1.206-1.222zm-2.081 13.9h1.721v-10h-1.721v10zm5.48 0h1.721v-4.962c0-2.34 1.28-3.66 2.9-3.66 1.4 0 2.361 1.04 2.361 2.72v5.9h1.7v-6.162c0-2.48-1.54-4.041-3.781-4.041a3.535 3.535 0 0 0-3.18 1.741v-1.538h-1.721v10zm21.6-.581v-9.421h-1.721v1.541a4.256 4.256 0 0 0-3.481-1.741 5.1 5.1 0 0 0 0 10.183 4.272 4.272 0 0 0 3.481-1.761v1.14a3.2 3.2 0 0 1-3.341 3.461 4.278 4.278 0 0 1-3.5-1.68l-1.2 1.2a5.939 5.939 0 0 0 4.721 2.04c2.849-.003 5.05-1.62 5.05-4.961zm-8.342-4.541a3.383 3.383 0 1 1 3.38 3.5 3.332 3.332 0 0 1-3.371-3.5zm17.459 9.3h1.721v-5.721a4.387 4.387 0 0 0 3.521 1.741 5.211 5.211 0 0 0 0-10.4 4.387 4.387 0 0 0-3.521 1.741v-1.541h-1.721v14.18zm8.382-9.182a3.407 3.407 0 1 1-3.4-3.62 3.415 3.415 0 0 1 3.409 3.623zm4.739 5h1.72v-4.962c0-2.34 1.38-3.44 2.641-3.44a2.514 2.514 0 0 1 .94.16V914.3a3.564 3.564 0 0 0-.78-.08 2.976 2.976 0 0 0-2.8 2.041v-1.941h-1.72v10zm6.68-5a5.273 5.273 0 0 0 9.682 2.821l-1.36-.94a3.542 3.542 0 0 1-6.582-1.54h8.2a4.907 4.907 0 0 0 .02-.521c-.02-3.2-2.14-5.021-4.761-5.021a5.068 5.068 0 0 0-5.19 5.204zm5.141-3.68a2.993 2.993 0 0 1 3.061 2.62h-6.342a3.27 3.27 0 0 1 3.29-2.617zm7.759 8.682h1.721v-4.962c0-2.26 1.14-3.66 2.76-3.66 1.3 0 1.961 1.12 1.961 2.74v5.882h1.72v-4.962c0-2.26 1.12-3.66 2.741-3.66 1.3 0 1.98 1.12 1.98 2.74v5.882h1.721v-6.142c0-2.44-1.321-4.061-3.5-4.061a3.462 3.462 0 0 0-3.281 2.141 3.145 3.145 0 0 0-3.081-2.141 3.362 3.362 0 0 0-3.02 1.741v-1.538h-1.721v10zm20.281-13.9a1.208 1.208 0 0 0-1.2-1.221 1.243 1.243 0 0 0-1.241 1.221 1.23 1.23 0 0 0 1.241 1.22 1.2 1.2 0 0 0 1.209-1.22zm-2.08 13.9h1.72v-10h-1.72v10zm5.34-3.861c0 2.48 1.48 4.061 3.68 4.061a3.442 3.442 0 0 0 3.081-1.741v1.541h1.721v-10h-1.721v4.961c0 2.3-1.22 3.661-2.781 3.661-1.38 0-2.26-1.06-2.26-2.74v-5.882h-1.72v6.142zm12.22 3.861h1.72v-4.962c0-2.26 1.14-3.66 2.761-3.66 1.3 0 1.96 1.12 1.96 2.74v5.882h1.721v-4.962c0-2.26 1.12-3.66 2.74-3.66 1.3 0 1.981 1.12 1.981 2.74v5.882h1.72v-6.142c0-2.44-1.32-4.061-3.5-4.061a3.462 3.462 0 0 0-3.28 2.141 3.146 3.146 0 0 0-3.081-2.141 3.364 3.364 0 0 0-3.021 1.741v-1.538h-1.72v10zm23.58 0h1.72v-4.962c0-2.26 1.141-3.66 2.761-3.66 1.3 0 1.961 1.12 1.961 2.74v5.882h1.72v-4.962c0-2.26 1.12-3.66 2.741-3.66 1.3 0 1.98 1.12 1.98 2.74v5.882h1.72v-6.142c0-2.44-1.32-4.061-3.5-4.061a3.462 3.462 0 0 0-3.281 2.141 3.145 3.145 0 0 0-3.081-2.141 3.365 3.365 0 0 0-3.021 1.741v-1.538h-1.72v10zm17.42-5a5.006 5.006 0 0 0 4.9 5.2 4.387 4.387 0 0 0 3.521-1.741v1.541h1.721v-10h-1.721v1.541a4.387 4.387 0 0 0-3.521-1.741 5.006 5.006 0 0 0-4.891 5.201zm8.562 0a3.417 3.417 0 1 1-3.4-3.62 3.415 3.415 0 0 1 3.409 3.621zm10.74 4.862v-1.541a3.8 3.8 0 0 1-1.22.2 1.44 1.44 0 0 1-1.661-1.7V915.9h2.881v-1.58h-2.881v-2.78h-1.72v2.78h-2.121v1.58h2.121v5.461a2.816 2.816 0 0 0 3.06 3.061 4.787 4.787 0 0 0 1.55-.239zm1.779-4.862a5.273 5.273 0 0 0 9.682 2.821l-1.36-.94a3.542 3.542 0 0 1-6.582-1.54h8.2a4.907 4.907 0 0 0 .02-.521c-.02-3.2-2.14-5.021-4.761-5.021a5.068 5.068 0 0 0-5.19 5.202zm5.141-3.68a2.993 2.993 0 0 1 3.061 2.62h-6.342a3.27 3.27 0 0 1 3.29-2.619zm7.759 8.682h1.72v-4.962c0-2.34 1.381-3.44 2.641-3.44a2.514 2.514 0 0 1 .94.16v-1.78a3.564 3.564 0 0 0-.78-.08 2.978 2.978 0 0 0-2.8 2.041v-1.941h-1.72v10zm9.9-13.9a1.208 1.208 0 0 0-1.2-1.221 1.242 1.242 0 0 0-1.24 1.221 1.229 1.229 0 0 0 1.24 1.22 1.2 1.2 0 0 0 1.21-1.222zm-2.081 13.9h1.721v-10h-1.721v10zm4.7-5a5.006 5.006 0 0 0 4.9 5.2 4.387 4.387 0 0 0 3.521-1.741v1.541h1.72v-10h-1.72v1.541a4.387 4.387 0 0 0-3.521-1.741 5.006 5.006 0 0 0-4.89 5.199zm8.562 0a3.417 3.417 0 1 1-3.4-3.62 3.415 3.415 0 0 1 3.41 3.619zm5.318 5h1.721v-15h-1.721v15zm11.962-2.781c0-1.5-.94-2.461-2.641-3.021l-1.08-.36c-1.18-.38-1.54-.76-1.54-1.4 0-.74.74-1.16 1.68-1.16a2.705 2.705 0 0 1 2.121 1.04l1.12-1.08a3.878 3.878 0 0 0-3.2-1.441c-1.98 0-3.381 1.1-3.381 2.721 0 1.4.86 2.38 2.481 2.9l.98.32c1.3.42 1.78.9 1.78 1.6a1.522 1.522 0 0 1-1.76 1.36 2.686 2.686 0 0 1-2.561-1.58l-1.4.76a3.974 3.974 0 0 0 3.921 2.321c2.03.002 3.49-1.021 3.49-2.979zm14.82 0c0-1.5-.94-2.461-2.641-3.021l-1.08-.36c-1.18-.38-1.54-.76-1.54-1.4 0-.74.74-1.16 1.68-1.16a2.7 2.7 0 0 1 2.12 1.04l1.121-1.08a3.878 3.878 0 0 0-3.2-1.441c-1.981 0-3.381 1.1-3.381 2.721 0 1.4.86 2.38 2.481 2.9l.98.32c1.3.42 1.78.9 1.78 1.6a1.522 1.522 0 0 1-1.76 1.36 2.685 2.685 0 0 1-2.561-1.58l-1.4.76a3.974 3.974 0 0 0 3.921 2.321c2.029.002 3.49-1.021 3.49-2.979zm12.621-2.221a5.232 5.232 0 1 0-5.222 5.2 5.134 5.134 0 0 0 5.232-5.199zm-8.7 0a3.473 3.473 0 1 1 3.48 3.6 3.437 3.437 0 0 1-3.472-3.599zm11.519 1.141c0 2.48 1.481 4.061 3.681 4.061a3.443 3.443 0 0 0 3.081-1.741v1.541h1.72v-10h-1.72v4.961c0 2.3-1.22 3.661-2.781 3.661-1.38 0-2.26-1.06-2.26-2.74v-5.884h-1.721v6.142zm12.221 3.861h1.72v-4.962c0-2.34 1.38-3.44 2.641-3.44a2.514 2.514 0 0 1 .94.16v-1.78a3.564 3.564 0 0 0-.78-.08 2.976 2.976 0 0 0-2.8 2.041v-1.941h-1.72v10zm16.542-2.481l-1.5-.84a3.391 3.391 0 0 1-3.121 1.92 3.6 3.6 0 0 1 0-7.2 3.391 3.391 0 0 1 3.121 1.92l1.5-.84a5.181 5.181 0 0 0-4.621-2.681 5.2 5.2 0 1 0 0 10.4 5.181 5.181 0 0 0 4.629-2.678zm1.938-2.521a5.273 5.273 0 0 0 9.682 2.821l-1.36-.94a3.542 3.542 0 0 1-6.582-1.54h8.2a4.907 4.907 0 0 0 .02-.521c-.02-3.2-2.14-5.021-4.761-5.021a5.068 5.068 0 0 0-5.191 5.202zm5.141-3.68a2.993 2.993 0 0 1 3.061 2.62h-6.342a3.27 3.27 0 0 1 3.289-2.619zm6.979 3.68a5.005 5.005 0 0 0 4.9 5.2 4.388 4.388 0 0 0 3.521-1.741v1.541h1.72v-15h-1.72v6.542a4.388 4.388 0 0 0-3.521-1.741 5.005 5.005 0 0 0-4.892 5.2zm8.562 0a3.417 3.417 0 1 1-3.4-3.62 3.415 3.415 0 0 1 3.408 3.621zm-447.387 35h1.72v-8.42h2.9v-1.58h-2.9v-1.84a1.44 1.44 0 0 1 1.66-1.7 4.029 4.029 0 0 1 1.24.2v-1.521a4.548 4.548 0 0 0-1.56-.26 2.857 2.857 0 0 0-3.061 3.1v2.02H37.4v1.581h2.121v8.422zm7 0h1.72v-4.962c0-2.34 1.38-3.44 2.641-3.44a2.515 2.515 0 0 1 .94.16V944.3a3.565 3.565 0 0 0-.78-.08 2.977 2.977 0 0 0-2.8 2.041v-1.941h-1.72v10zm17.123-5a5.231 5.231 0 1 0-5.221 5.2 5.133 5.133 0 0 0 5.229-5.199zm-8.7 0a3.473 3.473 0 1 1 3.481 3.6 3.437 3.437 0 0 1-3.475-3.599zm11.66 5h1.72v-4.962c0-2.26 1.14-3.66 2.761-3.66 1.3 0 1.96 1.12 1.96 2.74v5.882h1.72v-4.962c0-2.26 1.12-3.66 2.741-3.66 1.3 0 1.981 1.12 1.981 2.74v5.882h1.72v-6.142c0-2.44-1.32-4.061-3.5-4.061a3.462 3.462 0 0 0-3.281 2.141 3.145 3.145 0 0 0-3.081-2.141 3.363 3.363 0 0 0-3.021 1.741v-1.538H66.6v10zm22.8-5a5.006 5.006 0 0 0 4.9 5.2 4.387 4.387 0 0 0 3.521-1.741v1.541h1.72v-10h-1.72v1.541a4.387 4.387 0 0 0-3.521-1.741 5.005 5.005 0 0 0-4.899 5.201zm8.562 0a3.417 3.417 0 1 1-3.4-3.62 3.415 3.415 0 0 1 3.406 3.621zm5.318 5h1.72v-4.962c0-2.34 1.381-3.44 2.641-3.44a2.514 2.514 0 0 1 .94.16V944.3a3.564 3.564 0 0 0-.78-.08 2.977 2.977 0 0 0-2.8 2.041v-1.941h-1.72v10zm17.123-5a5.232 5.232 0 1 0-5.222 5.2 5.134 5.134 0 0 0 5.228-5.199zm-8.7 0a3.473 3.473 0 1 1 3.481 3.6 3.438 3.438 0 0 1-3.478-3.599zm11.52 1.141c0 2.48 1.481 4.061 3.681 4.061a3.443 3.443 0 0 0 3.081-1.741v1.541h1.72v-10h-1.72v4.961c0 2.3-1.22 3.661-2.781 3.661-1.38 0-2.26-1.06-2.26-2.74v-5.884h-1.721v6.142zm12.221 3.861h1.72v-4.962c0-2.34 1.28-3.66 2.9-3.66 1.4 0 2.36 1.04 2.36 2.72v5.9h1.7v-6.162c0-2.48-1.541-4.041-3.781-4.041a3.536 3.536 0 0 0-3.181 1.741v-1.538h-1.72v10zm11.5-5a5.006 5.006 0 0 0 4.9 5.2 4.386 4.386 0 0 0 3.52-1.741v1.541h1.721v-15h-1.721v6.542a4.386 4.386 0 0 0-3.52-1.741 5.006 5.006 0 0 0-4.898 5.198zm8.562 0a3.417 3.417 0 1 1-3.4-3.62 3.415 3.415 0 0 1 3.402 3.619zm15.78 4.862v-1.541a3.8 3.8 0 0 1-1.22.2 1.44 1.44 0 0 1-1.661-1.7V945.9h2.881v-1.58h-2.881v-2.78h-1.72v2.78h-2.121v1.58h2.121v5.461a2.816 2.816 0 0 0 3.061 3.061 4.786 4.786 0 0 0 1.542-.239zm2.7.14h1.72v-4.962c0-2.34 1.281-3.66 2.9-3.66 1.4 0 2.36 1.04 2.36 2.72v5.9h1.7v-6.162c0-2.48-1.54-4.041-3.781-4.041a3.537 3.537 0 0 0-3.181 1.741v-6.542h-1.72v15zm11.5-5a5.273 5.273 0 0 0 9.682 2.821l-1.36-.94a3.542 3.542 0 0 1-6.582-1.54h8.2a4.907 4.907 0 0 0 .02-.521c-.02-3.2-2.14-5.021-4.761-5.021a5.068 5.068 0 0 0-5.198 5.198zm5.141-3.68a2.993 2.993 0 0 1 3.061 2.62h-6.342a3.27 3.27 0 0 1 3.282-2.623zm21.261 8.682h1.521l3.4-10h-1.82l-2.421 7.3-2.5-7.3h-1.321l-2.5 7.3-2.421-7.3h-1.8l3.4 10h1.52l2.481-7.2zm16.9-5a5.232 5.232 0 1 0-5.222 5.2 5.134 5.134 0 0 0 5.224-5.205zm-8.7 0a3.473 3.473 0 1 1 3.48 3.6 3.437 3.437 0 0 1-3.48-3.605zm11.659 5h1.721v-4.962c0-2.34 1.38-3.44 2.64-3.44a2.516 2.516 0 0 1 .941.16V944.3a3.566 3.566 0 0 0-.781-.08 2.976 2.976 0 0 0-2.8 2.041v-1.941h-1.721v10zm7.821 0h1.72v-15h-1.72v15zm4.7-5a5.006 5.006 0 0 0 4.9 5.2 4.386 4.386 0 0 0 3.52-1.741v1.541h1.721v-15h-1.721v6.542a4.386 4.386 0 0 0-3.52-1.741 5.006 5.006 0 0 0-4.901 5.194zm8.562 0a3.417 3.417 0 1 1-3.4-3.62 3.415 3.415 0 0 1 3.399 3.615zm7.7 3.661a1.48 1.48 0 1 0-1.48 1.5 1.507 1.507 0 0 0 1.478-1.505z"/><path id="OUR_FABRICS_ARE_THE_TREASURES_copy" data-name="OUR FABRICS ARE THE TREASURES copy" class="cls-1" d="M53.011 740.547a14.52 14.52 0 1 0-14.52-14.52 14.555 14.555 0 0 0 14.52 14.52zm0-6.093a8.432 8.432 0 1 1 8.15-8.427 8.334 8.334 0 0 1-8.15 8.427zm32.513 6.093c6.726 0 11.553-4.59 11.553-11.592v-16.973h-6.291v17.052c0 3.363-2.136 5.42-5.262 5.42s-5.262-2.057-5.262-5.42v-17.052h-6.291v16.973c0 7.002 4.787 11.592 11.553 11.592zm19.572-.475h6.29V728.48h1.029l9.337 11.592h7.557l-9.931-12.383c3.561-1.266 5.5-3.6 5.5-7.24a8.294 8.294 0 0 0-8.7-8.467H105.1v28.09zm6.29-16.933v-5.381h4.036c1.859 0 3.2.989 3.2 2.691 0 1.622-1.346 2.69-3.2 2.69h-4.036zm32.6 16.933h6.291v-11h8.585v-6.012h-8.585V718h11v-6.014h-17.29v28.09zm18.575 0h6.568l2.492-5.935h11.632l2.493 5.935h6.567l-12.027-28.09h-5.7zm11.355-11.394l3.521-8.467 3.521 8.467h-7.042zm23.728 11.394h12.344a8.3 8.3 0 0 0 8.546-8.269 7.339 7.339 0 0 0-4-6.646 6.614 6.614 0 0 0 2.018-4.827 8.35 8.35 0 0 0-8.348-8.348H197.64v28.09zm6.291-16.735v-5.618h3.56a2.854 2.854 0 0 1 2.928 2.848 2.816 2.816 0 0 1-2.928 2.77h-3.56zm0 10.959v-5.618h5.5a2.858 2.858 0 0 1 2.967 2.809 2.823 2.823 0 0 1-2.927 2.809h-5.539zm21.231 5.776h6.29V728.48h1.029l9.337 11.592h7.557l-9.931-12.383c3.561-1.266 5.5-3.6 5.5-7.24a8.294 8.294 0 0 0-8.7-8.467h-11.086v28.09zm6.29-16.933v-5.381h4.036c1.86 0 3.205.989 3.205 2.691 0 1.622-1.345 2.69-3.205 2.69h-4.036zm22.3 16.933h6.291v-28.09h-6.291v28.09zm27.55.475a14.52 14.52 0 0 0 13.135-7.676l-5.539-3.006a8.428 8.428 0 1 1 0-7.676l5.539-3.006a14.644 14.644 0 1 0-13.141 21.364zm27.6 0c5.935 0 10.01-3.561 10.049-8.665.04-4.233-2.611-6.923-6.686-8.387l-1.978-.712c-2.967-1.068-4.352-1.741-4.352-3.244 0-1.464 1.7-2.137 3.4-2.137a6.249 6.249 0 0 1 4.867 2.335l4.114-4.352a11.721 11.721 0 0 0-9.06-3.878c-5.618 0-9.693 3.205-9.693 8.665 0 3.837 2.532 6.567 7.082 8.11l1.978.673c2.809.949 3.917 1.938 3.917 3.363 0 1.345-1.306 2.334-3.4 2.334a7.347 7.347 0 0 1-5.815-3.205l-4.827 4.075a12.318 12.318 0 0 0 10.405 5.025zm23.69-.475h6.568l2.492-5.935h11.632l2.493 5.935h6.567l-12.027-28.09h-5.7zm11.355-11.394l3.521-8.467 3.521 8.467h-7.042zm23.728 11.394h6.291V728.48H375l9.337 11.592h7.557l-9.93-12.383c3.56-1.266 5.5-3.6 5.5-7.24a8.293 8.293 0 0 0-8.7-8.467H367.68v28.09zm6.291-16.933v-5.381h4.035c1.86 0 3.205.989 3.205 2.691 0 1.622-1.345 2.69-3.205 2.69h-4.035zm22.3 16.933h17.8v-6.014h-11.509v-5.024h9.14v-6.014h-9.14V718h11.513v-6.014h-17.8v28.09zM45.138 779.739h6.33v-22.076h7.24v-6.014H37.977v6.014h7.161v22.076zm19.8 0h6.291v-11.117h11.319v11.117h6.291v-28.09h-6.291v11H71.233v-11h-6.291v28.09zm32.234 0h17.8v-6.014h-11.505V768.7h9.139v-6.014h-9.139v-5.024h11.513v-6.014h-17.8v28.09zm39.991 0h6.337v-22.076h7.24v-6.014h-20.734v6.014h7.161v22.076zm19.805 0h6.29v-11.592h1.029l9.337 11.592h7.557l-9.931-12.383c3.561-1.266 5.5-3.6 5.5-7.24a8.294 8.294 0 0 0-8.7-8.467h-11.078v28.09zm6.29-16.933v-5.381h4.042c1.859 0 3.2.99 3.2 2.691 0 1.622-1.346 2.69-3.2 2.69h-4.036zm22.3 16.933h17.8v-6.014h-11.505V768.7h9.139v-6.014h-9.139v-5.024h11.513v-6.014h-17.8v28.09zm21.981 0h6.568l2.492-5.934h11.632l2.493 5.934h6.576l-12.027-28.09h-5.7zm11.361-11.394l3.521-8.467 3.521 8.467H218.9zm31.363 11.869c5.935 0 10.01-3.561 10.049-8.665.04-4.233-2.611-6.923-6.686-8.387l-1.978-.712c-2.967-1.068-4.352-1.741-4.352-3.244 0-1.464 1.7-2.137 3.4-2.137a6.249 6.249 0 0 1 4.867 2.335l4.114-4.352a11.72 11.72 0 0 0-9.06-3.877c-5.618 0-9.693 3.2-9.693 8.664 0 3.837 2.532 6.567 7.082 8.11l1.978.673c2.809.949 3.917 1.938 3.917 3.363 0 1.345-1.306 2.334-3.4 2.334a7.348 7.348 0 0 1-5.816-3.2l-4.827 4.075a12.318 12.318 0 0 0 10.403 5.02zm28.034 0c6.726 0 11.553-4.59 11.553-11.592v-16.973h-6.291V768.7c0 3.363-2.137 5.42-5.262 5.42s-5.262-2.057-5.262-5.42v-17.051h-6.291v16.973c-.002 7.002 4.785 11.592 11.556 11.592zm19.572-.475h6.291v-11.592h1.028l9.337 11.592h7.557l-9.93-12.383c3.56-1.266 5.5-3.6 5.5-7.24a8.294 8.294 0 0 0-8.7-8.467h-11.085v28.09zm6.291-16.933v-5.381h4.035c1.86 0 3.205.99 3.205 2.691 0 1.622-1.345 2.69-3.205 2.69h-4.035zm22.3 16.933h17.8v-6.014h-11.512V768.7h9.14v-6.014h-9.14v-5.024h11.513v-6.014h-17.8v28.09zm33.375.475c5.934 0 10.009-3.561 10.049-8.665.04-4.233-2.611-6.923-6.686-8.387l-1.979-.712c-2.967-1.068-4.352-1.741-4.352-3.244 0-1.464 1.7-2.137 3.4-2.137a6.247 6.247 0 0 1 4.866 2.335l4.115-4.352a11.721 11.721 0 0 0-9.06-3.877c-5.618 0-9.693 3.2-9.693 8.664 0 3.837 2.532 6.567 7.082 8.11l1.978.673c2.809.949 3.917 1.938 3.917 3.363 0 1.345-1.306 2.334-3.4 2.334a7.349 7.349 0 0 1-5.816-3.2l-4.827 4.075a12.32 12.32 0 0 0 10.404 5.02z"/></svg>