<svg xmlns="http://www.w3.org/2000/svg" width="672" height="1097"><defs><style>.cls-1{fill-rule:evenodd}</style></defs><path id="Rapid_Movement_Cargo_Chino_copy" data-name="Rapid Movement Cargo Chino copy" class="cls-1" d="M89.886 881.146h3.18v-5.86h.52l4.72 5.86h3.82l-5.02-6.26a3.665 3.665 0 0 0 2.78-3.66 4.192 4.192 0 0 0-4.4-4.279h-5.6v14.2zm3.18-8.56v-2.719h2.04a1.414 1.414 0 0 1 1.62 1.359 1.437 1.437 0 0 1-1.62 1.36h-2.04zm10.14 8.56h3.32l1.26-3h5.88l1.26 3h3.32l-6.08-14.2h-2.88zm5.74-5.76l1.78-4.28 1.78 4.28h-3.56zm22.2-3.58a4.836 4.836 0 0 0-5-4.859h-4.82v14.2h3.18v-4.5h1.64a4.82 4.82 0 0 0 5-4.841zm-3.08 0a1.869 1.869 0 0 1-1.96 1.86h-1.6v-3.72h1.6a1.857 1.857 0 0 1 1.96 1.86zm6.72 9.34h3.18v-14.2h-3.18v14.2zm7.78 0h4.84a7.1 7.1 0 1 0 0-14.2h-4.84v14.2zm3.18-2.92v-8.359h1.66a4.183 4.183 0 0 1 0 8.359h-1.66zm26.059-.1l4.14-5.74v8.76h3.2v-14.2h-2.9l-4.44 6.119-4.44-6.119h-2.9v14.2h3.18v-8.76zm18.48 3.26a7.34 7.34 0 1 0-7.34-7.34 7.358 7.358 0 0 0 7.34 7.34zm0-3.08a4.262 4.262 0 1 1 4.12-4.26 4.213 4.213 0 0 1-4.12 4.26zm14.86 2.84h2.86l5.82-14.2h-3.5l-3.76 9.459-3.78-9.459h-3.46zm11.8 0h9v-3.04h-5.82v-2.54h4.62v-3.04h-4.62v-2.54h5.82v-3.039h-9v14.2zm20.36-3.02l4.14-5.74v8.76h3.2v-14.2h-2.9l-4.44 6.119-4.44-6.119h-2.9v14.2h3.18v-8.76zm11.939 3.02h9v-3.04h-5.82v-2.54h4.62v-3.04h-4.62v-2.54h5.82v-3.039h-9v14.2zm25.86 0v-14.2h-3.2v8.759l-6.9-8.759h-2.74v14.2h3.18v-8.78l6.92 8.78h2.74zm7.16 0h3.2v-11.16h3.66v-3.039h-10.48v3.039h3.62v11.16zm22.36.24a7.34 7.34 0 0 0 6.64-3.88l-2.8-1.52a4.259 4.259 0 1 1 0-3.88l2.8-1.52a7.4 7.4 0 1 0-6.64 10.8zm8.24-.24h3.32l1.26-3h5.88l1.26 3h3.32l-6.08-14.2h-2.88zm5.74-5.76l1.78-4.28 1.78 4.28H318.6zm12.38 5.76h3.18v-5.86h.52l4.72 5.86h3.82l-5.02-6.26a3.665 3.665 0 0 0 2.78-3.66 4.192 4.192 0 0 0-4.4-4.279h-5.6v14.2zm3.18-8.56v-2.719h2.04a1.414 1.414 0 0 1 1.62 1.359 1.437 1.437 0 0 1-1.62 1.36h-2.04zm18.08 8.8c2.3 0 4.56-.68 5.82-2.1v-6.74h-5.88v2.98h2.78v2.1a4.626 4.626 0 0 1-2.76.68 4.262 4.262 0 1 1-.2-8.519 4.715 4.715 0 0 1 3.58 1.519l2.24-2.179a7.555 7.555 0 0 0-5.82-2.42 7.253 7.253 0 0 0-7.48 7.339 7.375 7.375 0 0 0 7.72 7.34zm16.46 0a7.34 7.34 0 1 0-7.34-7.34 7.358 7.358 0 0 0 7.336 7.34zm0-3.08a4.262 4.262 0 1 1 4.12-4.26 4.213 4.213 0 0 1-4.124 4.26zm23.679 3.08a7.34 7.34 0 0 0 6.64-3.88l-2.8-1.52a4.259 4.259 0 1 1 0-3.88l2.8-1.52a7.4 7.4 0 1 0-6.64 10.8zm10.1-.24h3.18v-5.62h5.72v5.62h3.18v-14.2h-3.18v5.559h-5.72v-5.559h-3.18v14.2zm16.68 0h3.18v-14.2h-3.18v14.2zm20.62 0v-14.2h-3.2v8.759l-6.9-8.759h-2.74v14.2h3.18v-8.78l6.92 8.78h2.74zm11.14.24a7.34 7.34 0 1 0-7.34-7.34 7.358 7.358 0 0 0 7.34 7.34zm0-3.08a4.262 4.262 0 1 1 4.12-4.26 4.213 4.213 0 0 1-4.12 4.26z"/><path id="Shop_Now_copy" data-name="Shop Now copy" class="cls-1" d="M89.661 920.093a4.267 4.267 0 0 0 3.795 1.92c2.085 0 3.555-1.215 3.555-3.075.015-1.59-.93-2.535-2.5-3.12l-1.08-.4c-1.095-.4-1.62-.75-1.62-1.53a1.465 1.465 0 0 1 1.68-1.23 2.58 2.58 0 0 1 2.025.99l1.215-1.185A4.1 4.1 0 0 0 93.5 911c-1.98 0-3.465 1.14-3.465 3 0 1.455.825 2.385 2.52 3l1.17.42c1.02.375 1.515.87 1.515 1.62a1.5 1.5 0 0 1-1.725 1.32 2.9 2.9 0 0 1-2.474-1.36zm11.955 1.74h1.755v-4.575h5.265v4.575h1.754v-10.65h-1.754v4.41h-5.265v-4.41h-1.755v10.65zm24.434-5.325a5.5 5.5 0 1 0-5.5 5.5 5.48 5.48 0 0 0 5.5-5.5zm-9.239 0a3.728 3.728 0 1 1 3.735 3.81 3.733 3.733 0 0 1-3.735-3.81zm17.249-5.325h-3.389v10.65h1.754v-3.69h1.635a3.486 3.486 0 1 0 0-6.96zm-.015 5.31h-1.62v-3.66h1.62a1.836 1.836 0 1 1 0 3.66zm23.19 5.34v-10.65h-1.77v7.635l-5.985-7.635h-1.53v10.65h1.755v-7.665l6 7.665h1.53zm15.645-5.325a5.5 5.5 0 1 0-5.5 5.5 5.48 5.48 0 0 0 5.5-5.5zm-9.24 0a3.728 3.728 0 1 1 3.735 3.81 3.733 3.733 0 0 1-3.735-3.81zm22.125 5.325h1.62l2.76-10.65h-1.86l-1.95 7.74L183.29 911l-3.045 7.92-1.95-7.74h-1.845l2.745 10.65h1.62l2.475-6.51zm-96.584 3.5v-1.349h103.634v1.349H89.181z"/><path id="Rectangle_116_copy_10" data-name="Rectangle 116 copy 10" class="cls-1" d="M652.009 53.059l-1.094 1.084-15.976-15.829L618.1 55l-1.105-1.094 16.843-16.688-16.291-16.136L618.641 20l16.287 16.137 15.758-15.614 1.105 1.1-15.758 15.607z"/><path id="Rectangle_116_copy_9" data-name="Rectangle 116 copy 9" class="cls-1" d="M650.915 598.914l-.08-.082L618.1 632l-1.105-1.12 32.739-33.17-32.183-32.606 1.09-1.104 33.368 33.8z"/><path id="Rectangle_116_copy_8" data-name="Rectangle 116 copy 8" class="cls-1" d="M21.085 597.087l.079.08L53.9 564l1.1 1.119-32.73 33.168 32.183 32.606L53.359 632l-33.368-33.8z"/></svg>