<svg xmlns="http://www.w3.org/2000/svg" width="672" height="1097"><defs><style>.cls-1{fill-rule:evenodd}</style></defs><path id="Shop_Now_copy_3" data-name="Shop Now copy 3" class="cls-1" d="M89.661 920.093a4.267 4.267 0 0 0 3.795 1.92c2.085 0 3.555-1.215 3.555-3.075.015-1.59-.93-2.535-2.5-3.12l-1.08-.4c-1.095-.4-1.62-.75-1.62-1.53a1.465 1.465 0 0 1 1.68-1.23 2.58 2.58 0 0 1 2.025.99l1.215-1.185A4.1 4.1 0 0 0 93.5 911c-1.98 0-3.465 1.14-3.465 3 0 1.455.825 2.385 2.52 3l1.17.42c1.02.375 1.515.87 1.515 1.62a1.5 1.5 0 0 1-1.725 1.32 2.9 2.9 0 0 1-2.474-1.36zm11.955 1.74h1.755v-4.575h5.265v4.575h1.754v-10.65h-1.754v4.41h-5.265v-4.41h-1.755v10.65zm24.434-5.325a5.5 5.5 0 1 0-5.5 5.5 5.48 5.48 0 0 0 5.5-5.5zm-9.239 0a3.728 3.728 0 1 1 3.735 3.81 3.733 3.733 0 0 1-3.735-3.81zm17.249-5.325h-3.389v10.65h1.754v-3.69h1.635a3.486 3.486 0 1 0 0-6.96zm-.015 5.31h-1.62v-3.66h1.62a1.836 1.836 0 1 1 0 3.66zm23.19 5.34v-10.65h-1.77v7.635l-5.985-7.635h-1.53v10.65h1.755v-7.665l6 7.665h1.53zm15.645-5.325a5.5 5.5 0 1 0-5.5 5.5 5.48 5.48 0 0 0 5.5-5.5zm-9.24 0a3.728 3.728 0 1 1 3.735 3.81 3.733 3.733 0 0 1-3.735-3.81zm22.125 5.325h1.62l2.76-10.65h-1.86l-1.95 7.74L183.29 911l-3.045 7.92-1.95-7.74h-1.845l2.745 10.65h1.62l2.475-6.51zm-96.584 3.5v-1.349h103.634v1.349H89.181z"/><path id="Water-Resistant_Quilted_Bomber_Jacket_copy" data-name="Water-Resistant Quilted Bomber Jacket copy" class="cls-1" d="M101.066 881.146h3.02l3.3-14.2h-3.4l-1.94 9-4-9.239-3.98 9.239-1.94-9h-3.4l3.28 14.2h3.02l3.02-6.96zm7.161 0h3.32l1.259-3h5.88l1.26 3h3.32l-6.08-14.2h-2.88zm5.739-5.76l1.78-4.28 1.78 4.28h-3.56zm13.321 5.76h3.2v-11.16h3.66v-3.039h-10.48v3.039h3.62v11.16zm10.2 0h9v-3.04h-5.82v-2.54h4.62v-3.04h-4.62v-2.54h5.82v-3.039h-9v14.2zm12.82 0h3.18v-5.86h.52l4.72 5.86h3.82l-5.02-6.26a3.665 3.665 0 0 0 2.78-3.66 4.192 4.192 0 0 0-4.4-4.279h-5.6v14.2zm3.18-8.56v-2.719h2.04a1.414 1.414 0 0 1 1.62 1.359 1.437 1.437 0 0 1-1.62 1.36h-2.04zm10.48 2.9h5.88v-2.88h-5.88v2.88zm9.94 5.66h3.18v-5.86h.52l4.72 5.86h3.82l-5.02-6.26a3.665 3.665 0 0 0 2.78-3.66 4.192 4.192 0 0 0-4.4-4.279h-5.6v14.2zm3.18-8.56v-2.719h2.04a1.414 1.414 0 0 1 1.62 1.359 1.437 1.437 0 0 1-1.62 1.36h-2.04zm11.46 8.56h9v-3.04h-5.82v-2.54h4.62v-3.04h-4.62v-2.54h5.82v-3.039h-9v14.2zm17.06.24c3 0 5.06-1.8 5.08-4.38.02-2.14-1.32-3.5-3.38-4.24l-1-.36c-1.5-.54-2.2-.88-2.2-1.64 0-.74.86-1.079 1.72-1.079a3.157 3.157 0 0 1 2.46 1.179l2.08-2.2a5.925 5.925 0 0 0-4.58-1.96c-2.84 0-4.9 1.62-4.9 4.379 0 1.94 1.28 3.32 3.58 4.1l1 .34c1.42.48 1.98.98 1.98 1.7 0 .68-.66 1.18-1.72 1.18a3.715 3.715 0 0 1-2.94-1.62l-2.44 2.06a6.227 6.227 0 0 0 5.259 2.541zm8.679-.24h3.18v-14.2h-3.18v14.2zm11.82.24c3 0 5.06-1.8 5.08-4.38.02-2.14-1.32-3.5-3.38-4.24l-1-.36c-1.5-.54-2.2-.88-2.2-1.64 0-.74.86-1.079 1.72-1.079a3.157 3.157 0 0 1 2.46 1.179l2.08-2.2a5.925 5.925 0 0 0-4.58-1.96c-2.84 0-4.9 1.62-4.9 4.379 0 1.94 1.28 3.32 3.58 4.1l1 .34c1.42.48 1.98.98 1.98 1.7 0 .68-.66 1.18-1.72 1.18a3.715 3.715 0 0 1-2.94-1.62l-2.44 2.06a6.227 6.227 0 0 0 5.259 2.541zm11.04-.24h3.2v-11.16h3.66v-3.039h-10.48v3.039h3.62v11.16zm7.24 0h3.32l1.26-3h5.88l1.26 3h3.32l-6.08-14.2h-2.88zm5.74-5.76l1.78-4.28 1.78 4.28h-3.56zm25.02 5.76v-14.2h-3.2v8.759l-6.9-8.759h-2.74v14.2h3.18v-8.78l6.92 8.78h2.74zm6.96 0h3.2v-11.16h3.66v-3.039h-10.48v3.039h3.62v11.16zm21.96.24a7.356 7.356 0 0 0 4.4-1.46l1.5 1.22h4.5l-4.1-3.34a7.269 7.269 0 0 0 1.04-3.76 7.34 7.34 0 1 0-7.341 7.34zm0-3.08a4.262 4.262 0 1 1 4.12-4.26 4.051 4.051 0 0 1-.36 1.7l-2.14-1.74-1.8 2.2 2.02 1.64a3.8 3.8 0 0 1-1.841.46zm17.34 3.08a5.569 5.569 0 0 0 5.839-5.86v-8.579h-3.179v8.619a2.661 2.661 0 1 1-5.32 0v-8.619h-3.18v8.579a5.558 5.558 0 0 0 5.834 5.86zm10.079-.24h3.18v-14.2h-3.18v14.2zm7.58 0h9.06v-3.04h-5.88v-11.159h-3.18v14.2zm13.08 0h3.2v-11.16H359v-3.039h-10.48v3.039h3.62v11.16zm10.2 0h9v-3.04h-5.82v-2.54h4.62v-3.04h-4.62v-2.54h5.82v-3.039h-9v14.2zm12.82 0H380a7.1 7.1 0 1 0 0-14.2h-4.84v14.2zm3.18-2.92v-8.359H380a4.183 4.183 0 0 1 0 8.359h-1.66zm18.319 2.92h6.24a4.2 4.2 0 0 0 4.32-4.18 3.711 3.711 0 0 0-2.02-3.36 3.342 3.342 0 0 0 1.02-2.44 4.221 4.221 0 0 0-4.22-4.219h-5.34v14.2zm3.18-8.46v-2.839h1.8a1.442 1.442 0 0 1 1.48 1.439 1.423 1.423 0 0 1-1.48 1.4h-1.8zm0 5.54v-2.84h2.78a1.445 1.445 0 0 1 1.5 1.42 1.427 1.427 0 0 1-1.48 1.42h-2.8zm17.46 3.16a7.34 7.34 0 1 0-7.34-7.34 7.358 7.358 0 0 0 7.336 7.34zm0-3.08a4.262 4.262 0 1 1 4.12-4.26 4.213 4.213 0 0 1-4.124 4.26zm18.28-.18l4.14-5.74v8.76h3.2v-14.2h-2.9l-4.44 6.119-4.44-6.119h-2.9v14.2h3.18v-8.76zm11.74 3.02h6.24a4.2 4.2 0 0 0 4.32-4.18 3.711 3.711 0 0 0-2.02-3.36 3.342 3.342 0 0 0 1.02-2.44 4.221 4.221 0 0 0-4.22-4.219h-5.34v14.2zm3.18-8.46v-2.839h1.8a1.442 1.442 0 0 1 1.48 1.439 1.423 1.423 0 0 1-1.48 1.4h-1.8zm0 5.54v-2.84h2.78a1.445 1.445 0 0 1 1.5 1.42 1.427 1.427 0 0 1-1.48 1.42h-2.8zm10.92 2.92h9v-3.04H464.6v-2.54h4.62v-3.04h-4.62v-2.54h5.82v-3.039h-9v14.2zm12.82 0h3.18v-5.86h.52l4.72 5.86h3.819l-5.019-6.26a3.665 3.665 0 0 0 2.78-3.66 4.192 4.192 0 0 0-4.4-4.279h-5.6v14.2zm3.18-8.56v-2.719h2.04a1.414 1.414 0 0 1 1.62 1.359 1.437 1.437 0 0 1-1.62 1.36h-2.04zm19.84 8.8c2.44 0 4.64-1.22 4.64-4.12v-10.319h-3.18v10.119a1.462 1.462 0 0 1-2.92-.08h-3.14c-.001 3.08 2.219 4.4 4.599 4.4zm7.1-.24h3.32l1.26-3h5.879l1.26 3h3.32l-6.08-14.2h-2.88zm5.739-5.76l1.78-4.28 1.78 4.28H510.1zm18.081 6a7.34 7.34 0 0 0 6.639-3.88l-2.8-1.52a4.259 4.259 0 1 1 0-3.88l2.8-1.52a7.4 7.4 0 1 0-6.64 10.8zm9.9-.24h3.16v-6.36l5.779 6.36h4.08l-6.74-7.38 5.6-6.819h-3.9l-4.819 5.939v-5.939h-3.16v14.2zm15.4 0h9v-3.04h-5.82v-2.54h4.62v-3.04h-4.62v-2.54h5.82v-3.039h-9v14.2zm15.379 0h3.2v-11.16h3.66v-3.039h-10.48v3.039h3.62v11.16z"/><path id="Rectangle_116_copy_12" data-name="Rectangle 116 copy 12" class="cls-1" d="M652.009 53.059l-1.094 1.084-15.976-15.829L618.1 55l-1.105-1.094 16.843-16.688-16.291-16.136L618.641 20l16.287 16.137 15.758-15.614 1.105 1.1-15.758 15.607z"/><path id="Rectangle_116_copy_11" data-name="Rectangle 116 copy 11" class="cls-1" d="M650.915 598.914l-.08-.082L618.1 632l-1.105-1.12 32.739-33.17-32.183-32.606 1.09-1.104 33.368 33.8z"/><path id="Rectangle_116_copy_10" data-name="Rectangle 116 copy 10" class="cls-1" d="M21.085 597.087l.079.08L53.9 564l1.1 1.119-32.73 33.169 32.183 32.605L53.359 632l-33.368-33.8z"/></svg>