<svg xmlns="http://www.w3.org/2000/svg" width="672" height="1097"><defs><style>.cls-1{fill-rule:evenodd}</style></defs><path id="Rectangle_116_copy_10" data-name="Rectangle 116 copy 10" class="cls-1" d="M652.009 53.059l-1.094 1.084-15.976-15.829L618.1 55l-1.105-1.094 16.843-16.688-16.291-16.136L618.641 20l16.287 16.137 15.758-15.614 1.105 1.1-15.758 15.607z"/><path id="Rectangle_116_copy_9" data-name="Rectangle 116 copy 9" class="cls-1" d="M650.915 599.4l-.08-.08L618.1 632l-1.105-1.1 32.739-32.681-32.187-32.129 1.094-1.09 33.368 33.309z"/><path id="Banana_Republic_was_founded_in_San_Francisco_as_a_safari_and_tr_copy" data-name="Banana Republic was founded in San Francisco as a safari and tr copy" class="cls-1" d="M38.944 834.323h5.081c2.881 0 4.761-1.781 4.761-4.141a3.384 3.384 0 0 0-2.461-3.4 3.219 3.219 0 0 0 1.52-2.9c0-2-1.6-3.76-4.241-3.76h-4.66v14.2zm1.86-8.1V821.8h2.8a2.233 2.233 0 0 1 2.421 2.22 2.186 2.186 0 0 1-2.421 2.2H40.8zm0 6.421v-4.821h3.321c1.88 0 2.841 1.04 2.841 2.421 0 1.4-.96 2.4-2.861 2.4H40.8zm10.18-3.321a5.006 5.006 0 0 0 4.9 5.2 4.388 4.388 0 0 0 3.521-1.741v1.541h1.72v-10h-1.72v1.541a4.388 4.388 0 0 0-3.521-1.741 5.005 5.005 0 0 0-4.9 5.198zm8.562 0a3.417 3.417 0 1 1-3.4-3.62 3.415 3.415 0 0 1 3.4 3.618zm5.318 5h1.72v-4.962c0-2.34 1.28-3.66 2.9-3.66 1.4 0 2.361 1.04 2.361 2.72v5.9h1.7v-6.162c0-2.48-1.54-4.041-3.781-4.041a3.536 3.536 0 0 0-3.181 1.741v-1.539h-1.72v10zm11.5-5a5.006 5.006 0 0 0 4.9 5.2 4.387 4.387 0 0 0 3.521-1.741v1.541h1.72v-10h-1.72v1.541a4.387 4.387 0 0 0-3.521-1.741 5.005 5.005 0 0 0-4.899 5.198zm8.562 0a3.417 3.417 0 1 1-3.4-3.62 3.415 3.415 0 0 1 3.401 3.618zm5.318 5h1.72v-4.962c0-2.34 1.28-3.66 2.9-3.66 1.4 0 2.361 1.04 2.361 2.72v5.9h1.7v-6.162c0-2.48-1.54-4.041-3.781-4.041a3.536 3.536 0 0 0-3.181 1.741v-1.539h-1.72v10zm11.5-5a5.005 5.005 0 0 0 4.9 5.2 4.388 4.388 0 0 0 3.521-1.741v1.541h1.72v-10h-1.72v1.541a4.388 4.388 0 0 0-3.521-1.741 5.005 5.005 0 0 0-4.899 5.198zm8.562 0a3.417 3.417 0 1 1-3.4-3.62 3.415 3.415 0 0 1 3.401 3.618zm10.958 5h1.86v-6.462h1.381l5.461 6.462h2.341l-5.462-6.482a3.705 3.705 0 0 0 3.5-3.8c0-2.34-1.62-3.92-4.241-3.92h-4.841v14.2zm1.86-8.122v-4.361h2.761c1.62 0 2.6.76 2.6 2.2 0 1.421-.981 2.161-2.6 2.161h-2.761zm10 3.12a5.273 5.273 0 0 0 9.682 2.821l-1.36-.94a3.542 3.542 0 0 1-6.582-1.54h8.2a4.907 4.907 0 0 0 .02-.521c-.02-3.2-2.14-5.021-4.761-5.021a5.068 5.068 0 0 0-5.198 5.201zm5.141-3.68a2.992 2.992 0 0 1 3.061 2.62h-6.342a3.27 3.27 0 0 1 3.282-2.62zm7.759 12.862h1.721v-5.721a4.387 4.387 0 0 0 3.521 1.741 5.211 5.211 0 0 0 0-10.4 4.387 4.387 0 0 0-3.521 1.741v-1.544h-1.721v14.18zm8.382-9.182a3.407 3.407 0 1 1-3.4-3.62 3.415 3.415 0 0 1 3.401 3.62zm4.6 1.141c0 2.48 1.48 4.061 3.68 4.061a3.442 3.442 0 0 0 3.081-1.741v1.541h1.721v-10h-1.721v4.961c0 2.3-1.22 3.661-2.78 3.661-1.381 0-2.261-1.06-2.261-2.74v-5.885h-1.72v6.142zm13.94 2.32a4.388 4.388 0 0 0 3.521 1.741 5.211 5.211 0 0 0 0-10.4 4.388 4.388 0 0 0-3.521 1.741v-6.542h-1.72v15h1.72v-1.541zm6.662-3.461a3.408 3.408 0 1 1-3.4-3.62 3.415 3.415 0 0 1 3.4 3.62zm4.718 5h1.72v-15h-1.72v15zm7.56-13.9a1.208 1.208 0 0 0-1.2-1.221 1.242 1.242 0 0 0-1.24 1.221 1.229 1.229 0 0 0 1.24 1.22 1.2 1.2 0 0 0 1.2-1.221zm-2.08 13.9h1.72v-10h-1.72v10zm14.562-2.481l-1.5-.84a3.391 3.391 0 0 1-3.121 1.92 3.6 3.6 0 0 1 0-7.2 3.391 3.391 0 0 1 3.121 1.92l1.5-.84a5.181 5.181 0 0 0-4.621-2.681 5.2 5.2 0 1 0 0 10.4 5.181 5.181 0 0 0 4.621-2.677zm16.22 2.481h1.52l3.4-10h-1.82l-2.421 7.3-2.5-7.3h-1.321l-2.5 7.3-2.421-7.3h-1.8l3.4 10h1.52l2.48-7.2zm6.458-5a5.005 5.005 0 0 0 4.9 5.2 4.387 4.387 0 0 0 3.521-1.741v1.541h1.72v-10h-1.72v1.541a4.387 4.387 0 0 0-3.521-1.741 5.005 5.005 0 0 0-4.9 5.2zm8.562 0a3.417 3.417 0 1 1-3.4-3.62 3.415 3.415 0 0 1 3.4 3.62zm11.8 2.221c0-1.5-.94-2.461-2.641-3.021l-1.08-.36c-1.18-.38-1.54-.76-1.54-1.4 0-.74.74-1.16 1.68-1.16a2.705 2.705 0 0 1 2.121 1.04l1.12-1.08a3.878 3.878 0 0 0-3.2-1.441c-1.98 0-3.381 1.1-3.381 2.721 0 1.4.86 2.38 2.481 2.9l.98.32c1.3.42 1.78.9 1.78 1.6a1.522 1.522 0 0 1-1.76 1.36 2.686 2.686 0 0 1-2.561-1.58l-1.4.76a3.974 3.974 0 0 0 3.921 2.321c2.02.001 3.48-1.022 3.48-2.98zm8.919 2.781h1.72V825.9h2.9v-1.58h-2.9v-1.84a1.44 1.44 0 0 1 1.661-1.7 4.027 4.027 0 0 1 1.24.2v-1.521a4.547 4.547 0 0 0-1.561-.26 2.857 2.857 0 0 0-3.06 3.1v2.02h-2.121v1.581h2.121v8.422zm16.4-5a5.231 5.231 0 1 0-5.221 5.2 5.133 5.133 0 0 0 5.223-5.202zm-8.7 0a3.473 3.473 0 1 1 3.481 3.6 3.437 3.437 0 0 1-3.481-3.602zm11.52 1.141c0 2.48 1.48 4.061 3.681 4.061a3.442 3.442 0 0 0 3.08-1.741v1.541h1.721v-10h-1.721v4.961c0 2.3-1.22 3.661-2.78 3.661-1.381 0-2.261-1.06-2.261-2.74v-5.887h-1.72v6.142zm12.22 3.861h1.721v-4.962c0-2.34 1.28-3.66 2.9-3.66 1.4 0 2.361 1.04 2.361 2.72v5.9h1.7v-6.162c0-2.48-1.54-4.041-3.781-4.041a3.535 3.535 0 0 0-3.18 1.741v-1.541h-1.721v10zm11.5-5a5.006 5.006 0 0 0 4.9 5.2 4.387 4.387 0 0 0 3.521-1.741v1.541h1.72v-15h-1.72v6.542a4.387 4.387 0 0 0-3.521-1.741 5.006 5.006 0 0 0-4.9 5.195zm8.562 0a3.417 3.417 0 1 1-3.4-3.62 3.415 3.415 0 0 1 3.4 3.616zm4.538 0a5.273 5.273 0 0 0 9.682 2.821l-1.36-.94a3.541 3.541 0 0 1-6.581-1.54h8.2a4.907 4.907 0 0 0 .02-.521c-.02-3.2-2.14-5.021-4.761-5.021a5.069 5.069 0 0 0-5.2 5.197zm5.141-3.68a2.992 2.992 0 0 1 3.061 2.62h-6.341a3.269 3.269 0 0 1 3.28-2.624zm6.979 3.68a5.006 5.006 0 0 0 4.9 5.2 4.387 4.387 0 0 0 3.521-1.741v1.541h1.721v-15h-1.721v6.542a4.387 4.387 0 0 0-3.521-1.741 5.006 5.006 0 0 0-4.9 5.195zm8.562 0a3.417 3.417 0 1 1-3.4-3.62 3.415 3.415 0 0 1 3.4 3.616zm12.779-8.9a1.208 1.208 0 0 0-1.2-1.221 1.243 1.243 0 0 0-1.241 1.221 1.23 1.23 0 0 0 1.241 1.22 1.2 1.2 0 0 0 1.2-1.225zm-2.08 13.9h1.72v-10h-1.72v10zm5.48 0h1.72v-4.962c0-2.34 1.28-3.66 2.9-3.66 1.4 0 2.36 1.04 2.36 2.72v5.9h1.7v-6.162c0-2.48-1.541-4.041-3.781-4.041a3.536 3.536 0 0 0-3.181 1.741v-1.541h-1.72v10zM365.987 832a5.488 5.488 0 0 0 4.982 2.561c2.64 0 4.521-1.521 4.521-3.941 0-2.1-1.2-3.3-3.3-4.1l-1.721-.66c-1.44-.54-2.14-1.081-2.14-2.281 0-1.18 1.16-1.96 2.56-1.96a3.515 3.515 0 0 1 2.821 1.4l1.36-1.2a5.18 5.18 0 0 0-4.14-1.941c-2.541 0-4.442 1.461-4.442 3.781 0 1.941 1 3.1 3.221 3.921l1.881.72c1.32.5 2.04 1.261 2.04 2.4 0 1.32-1.16 2.12-2.62 2.12a3.968 3.968 0 0 1-3.521-1.94zm11.7-2.681a5.006 5.006 0 0 0 4.9 5.2 4.386 4.386 0 0 0 3.52-1.741v1.541h1.721v-10h-1.721v1.541a4.386 4.386 0 0 0-3.52-1.741 5.006 5.006 0 0 0-4.9 5.202zm8.562 0a3.417 3.417 0 1 1-3.4-3.62 3.415 3.415 0 0 1 3.4 3.622zm5.319 5h1.72v-4.962c0-2.34 1.28-3.66 2.9-3.66 1.4 0 2.36 1.04 2.36 2.72v5.9h1.7v-6.162c0-2.48-1.541-4.041-3.781-4.041a3.536 3.536 0 0 0-3.181 1.741v-1.535h-1.72v10zm17.92 0h1.86v-6.382h5.061v-1.76h-5.061v-4.3h6.4v-1.76h-8.262v14.2zm10.24 0h1.72v-4.962c0-2.34 1.381-3.44 2.641-3.44a2.514 2.514 0 0 1 .94.16V824.3a3.564 3.564 0 0 0-.78-.08 2.977 2.977 0 0 0-2.8 2.041v-1.941h-1.72v10zm6.7-5a5.005 5.005 0 0 0 4.9 5.2 4.388 4.388 0 0 0 3.521-1.741v1.541h1.72v-10h-1.72v1.541a4.388 4.388 0 0 0-3.521-1.741 5.005 5.005 0 0 0-4.9 5.202zm8.562 0a3.417 3.417 0 1 1-3.4-3.62 3.415 3.415 0 0 1 3.4 3.622zm5.318 5h1.721v-4.962c0-2.34 1.28-3.66 2.9-3.66 1.4 0 2.361 1.04 2.361 2.72v5.9h1.7v-6.162c0-2.48-1.54-4.041-3.781-4.041a3.535 3.535 0 0 0-3.18 1.741v-1.535h-1.721v10zm21.362-2.481l-1.5-.84a3.39 3.39 0 0 1-3.121 1.92 3.6 3.6 0 0 1 0-7.2 3.39 3.39 0 0 1 3.121 1.92l1.5-.84a5.18 5.18 0 0 0-4.621-2.681 5.2 5.2 0 1 0 0 10.4 5.18 5.18 0 0 0 4.621-2.675zm4.8-11.422a1.208 1.208 0 0 0-1.2-1.221 1.243 1.243 0 0 0-1.241 1.221 1.229 1.229 0 0 0 1.241 1.22 1.2 1.2 0 0 0 1.199-1.216zm-2.081 13.9h1.721v-10h-1.721v10zm11.962-2.781c0-1.5-.94-2.461-2.641-3.021l-1.08-.36c-1.18-.38-1.54-.76-1.54-1.4 0-.74.74-1.16 1.68-1.16a2.7 2.7 0 0 1 2.12 1.04l1.121-1.08a3.878 3.878 0 0 0-3.2-1.441c-1.981 0-3.381 1.1-3.381 2.721 0 1.4.86 2.38 2.481 2.9l.98.32c1.3.42 1.78.9 1.78 1.6a1.522 1.522 0 0 1-1.76 1.36 2.685 2.685 0 0 1-2.561-1.58l-1.4.76a3.974 3.974 0 0 0 3.921 2.321c2.018.008 3.479-1.015 3.479-2.973zm12.04.3l-1.5-.84a3.39 3.39 0 0 1-3.121 1.92 3.6 3.6 0 0 1 0-7.2 3.39 3.39 0 0 1 3.121 1.92l1.5-.84a5.18 5.18 0 0 0-4.621-2.681 5.2 5.2 0 1 0 0 10.4 5.18 5.18 0 0 0 4.62-2.672zm12.381-2.521a5.232 5.232 0 1 0-5.222 5.2 5.134 5.134 0 0 0 5.221-5.193zm-8.7 0a3.473 3.473 0 1 1 3.48 3.6 3.437 3.437 0 0 1-3.483-3.593zm-454.165 30a5.006 5.006 0 0 0 4.9 5.2 4.388 4.388 0 0 0 3.521-1.741v1.541h1.72v-10h-1.72v1.541a4.388 4.388 0 0 0-3.521-1.741 5.005 5.005 0 0 0-4.907 5.207zm8.562 0a3.417 3.417 0 1 1-3.4-3.62 3.415 3.415 0 0 1 3.397 3.627zm11.8 2.221c0-1.5-.94-2.461-2.641-3.021l-1.08-.36c-1.18-.38-1.54-.76-1.54-1.4 0-.74.74-1.16 1.68-1.16a2.7 2.7 0 0 1 2.121 1.04l1.12-1.08a3.877 3.877 0 0 0-3.2-1.441c-1.98 0-3.381 1.1-3.381 2.721 0 1.4.86 2.38 2.481 2.9l.98.32c1.3.42 1.78.9 1.78 1.6a1.523 1.523 0 0 1-1.76 1.36 2.684 2.684 0 0 1-2.561-1.58l-1.4.76a3.974 3.974 0 0 0 3.921 2.321c2.017.008 3.477-1.015 3.477-2.973zm7.558-2.221a5.006 5.006 0 0 0 4.9 5.2 4.387 4.387 0 0 0 3.521-1.741v1.541h1.721v-10h-1.723v1.541a4.387 4.387 0 0 0-3.521-1.741 5.005 5.005 0 0 0-4.901 5.207zm8.562 0a3.417 3.417 0 1 1-3.4-3.62 3.415 3.415 0 0 1 3.397 3.627zm17.18 2.221c0-1.5-.94-2.461-2.641-3.021l-1.08-.36c-1.18-.38-1.54-.76-1.54-1.4 0-.74.74-1.16 1.68-1.16a2.7 2.7 0 0 1 2.121 1.04l1.12-1.08a3.878 3.878 0 0 0-3.2-1.441c-1.98 0-3.381 1.1-3.381 2.721 0 1.4.86 2.38 2.481 2.9l.98.32c1.3.42 1.78.9 1.78 1.6a1.523 1.523 0 0 1-1.76 1.36 2.684 2.684 0 0 1-2.561-1.58l-1.4.76a3.974 3.974 0 0 0 3.921 2.321c2.016.008 3.477-1.015 3.477-2.973zm2.178-2.221a5.006 5.006 0 0 0 4.9 5.2 4.386 4.386 0 0 0 3.521-1.741v1.541h1.721v-10h-1.721v1.541a4.386 4.386 0 0 0-3.521-1.741 5.005 5.005 0 0 0-4.903 5.207zm8.562 0a3.417 3.417 0 1 1-3.4-3.62 3.415 3.415 0 0 1 3.397 3.627zm6.159 5h1.72V855.9h2.9v-1.58h-2.9v-1.84a1.44 1.44 0 0 1 1.66-1.7 4.029 4.029 0 0 1 1.241.2v-1.521a4.551 4.551 0 0 0-1.561-.26 2.857 2.857 0 0 0-3.06 3.1v2.02h-2.121v1.581h2.121v8.422zm5.96-5a5.005 5.005 0 0 0 4.9 5.2 4.39 4.39 0 0 0 3.521-1.741v1.541h1.72v-10h-1.72v1.541a4.39 4.39 0 0 0-3.521-1.741 5.005 5.005 0 0 0-4.903 5.207zm8.562 0a3.417 3.417 0 1 1-3.4-3.62 3.415 3.415 0 0 1 3.397 3.627zm5.318 5h1.72v-4.962c0-2.34 1.381-3.44 2.641-3.44a2.514 2.514 0 0 1 .94.16V854.3a3.564 3.564 0 0 0-.78-.08 2.977 2.977 0 0 0-2.8 2.041v-1.941h-1.72v10zm9.9-13.9a1.208 1.208 0 0 0-1.2-1.221 1.242 1.242 0 0 0-1.24 1.221 1.229 1.229 0 0 0 1.24 1.22 1.2 1.2 0 0 0 1.197-1.214zm-2.08 13.9h1.72v-10h-1.72v10zm10.08-5a5.005 5.005 0 0 0 4.9 5.2 4.388 4.388 0 0 0 3.521-1.741v1.541h1.72v-10h-1.72v1.541a4.388 4.388 0 0 0-3.521-1.741 5.005 5.005 0 0 0-4.903 5.207zm8.562 0a3.417 3.417 0 1 1-3.4-3.62 3.415 3.415 0 0 1 3.397 3.627zm5.318 5h1.72v-4.962c0-2.34 1.281-3.66 2.9-3.66 1.4 0 2.361 1.04 2.361 2.72v5.9h1.7v-6.162c0-2.48-1.54-4.041-3.781-4.041a3.538 3.538 0 0 0-3.181 1.741v-1.53h-1.72v10zm11.5-5a5.005 5.005 0 0 0 4.9 5.2 4.388 4.388 0 0 0 3.521-1.741v1.541h1.72v-15h-1.72v6.542a4.388 4.388 0 0 0-3.521-1.741 5.005 5.005 0 0 0-4.903 5.206zm8.562 0a3.417 3.417 0 1 1-3.4-3.62 3.415 3.415 0 0 1 3.397 3.627zm15.779 4.861v-1.54a3.8 3.8 0 0 1-1.22.2 1.44 1.44 0 0 1-1.66-1.7V855.9h2.88v-1.58h-2.88v-2.78h-1.721v2.78h-2.12v1.58h2.12v5.461a2.816 2.816 0 0 0 3.061 3.061 4.756 4.756 0 0 0 1.537-.24zm2.7.141h1.721v-4.962c0-2.34 1.38-3.44 2.64-3.44a2.523 2.523 0 0 1 .941.16V854.3a3.579 3.579 0 0 0-.781-.08 2.976 2.976 0 0 0-2.8 2.041v-1.941h-1.721v10zm6.7-5a5.006 5.006 0 0 0 4.9 5.2 4.387 4.387 0 0 0 3.521-1.741v1.541h1.721v-10h-1.721v1.541a4.387 4.387 0 0 0-3.521-1.741 5.006 5.006 0 0 0-4.904 5.205zm8.562 0a3.417 3.417 0 1 1-3.4-3.62 3.415 3.415 0 0 1 3.396 3.625zm8.439 5h1.441l4.621-10h-1.921l-3.421 7.562-3.42-7.562h-1.921zm7.3-5a5.273 5.273 0 0 0 9.682 2.821l-1.36-.94a3.542 3.542 0 0 1-6.582-1.54h8.2a4.907 4.907 0 0 0 .02-.521c-.02-3.2-2.14-5.021-4.761-5.021a5.068 5.068 0 0 0-5.203 5.206zm5.141-3.68a2.993 2.993 0 0 1 3.061 2.62h-6.342a3.27 3.27 0 0 1 3.277-2.615zm7.759 8.682h1.721v-15h-1.721v15zm19.942-2.481l-1.5-.84a3.391 3.391 0 0 1-3.121 1.92 3.6 3.6 0 0 1 0-7.2 3.391 3.391 0 0 1 3.121 1.92l1.5-.84a5.18 5.18 0 0 0-4.621-2.681 5.2 5.2 0 1 0 0 10.4 5.18 5.18 0 0 0 4.617-2.674zm2.718 2.481h1.72v-15h-1.72v15zm15.142-5a5.231 5.231 0 1 0-5.221 5.2 5.133 5.133 0 0 0 5.217-5.197zm-8.7 0a3.473 3.473 0 1 1 3.481 3.6 3.438 3.438 0 0 1-3.487-3.597zm16.9 4.861v-1.54a3.808 3.808 0 0 1-1.221.2 1.44 1.44 0 0 1-1.66-1.7V855.9h2.881v-1.58h-2.881v-2.78h-1.72v2.78h-2.121v1.58h2.121v5.461a2.816 2.816 0 0 0 3.06 3.061 4.763 4.763 0 0 0 1.537-.24zm2.7.141h1.721v-4.962c0-2.34 1.28-3.66 2.9-3.66 1.4 0 2.36 1.04 2.36 2.72v5.9h1.7v-6.162c0-2.48-1.541-4.041-3.781-4.041a3.536 3.536 0 0 0-3.181 1.741v-6.542h-1.721v15zm14.361-13.9a1.208 1.208 0 0 0-1.2-1.221 1.243 1.243 0 0 0-1.241 1.221 1.23 1.23 0 0 0 1.241 1.22 1.2 1.2 0 0 0 1.194-1.22zm-2.08 13.9h1.72v-10h-1.72v10zm5.48 0h1.72v-4.962c0-2.34 1.28-3.66 2.9-3.66 1.4 0 2.36 1.04 2.36 2.72v5.9h1.7v-6.162c0-2.48-1.541-4.041-3.781-4.041a3.536 3.536 0 0 0-3.181 1.741v-1.536h-1.72v10zm21.6-.581v-9.419h-1.721v1.541a4.256 4.256 0 0 0-3.48-1.741 5.1 5.1 0 0 0 0 10.183 4.271 4.271 0 0 0 3.48-1.761v1.14a3.2 3.2 0 0 1-3.34 3.461 4.279 4.279 0 0 1-3.5-1.68l-1.2 1.2a5.937 5.937 0 0 0 4.721 2.04c2.835-.003 5.036-1.62 5.036-4.961zm-8.342-4.541a3.383 3.383 0 1 1 3.381 3.5 3.332 3.332 0 0 1-3.385-3.498zm26.542 2.641l-1.5-.84a3.392 3.392 0 0 1-3.121 1.92 3.6 3.6 0 0 1 0-7.2 3.392 3.392 0 0 1 3.121 1.92l1.5-.84a5.181 5.181 0 0 0-4.621-2.681 5.2 5.2 0 1 0 0 10.4 5.181 5.181 0 0 0 4.617-2.676zm12.38-2.521a5.231 5.231 0 1 0-5.221 5.2 5.133 5.133 0 0 0 5.217-5.197zm-8.7 0a3.473 3.473 0 1 1 3.481 3.6 3.437 3.437 0 0 1-3.487-3.597zm11.66 5h1.72v-4.962c0-2.26 1.141-3.66 2.761-3.66 1.3 0 1.96 1.12 1.96 2.74v5.882h1.721v-4.962c0-2.26 1.12-3.66 2.74-3.66 1.3 0 1.981 1.12 1.981 2.74v5.882h1.72v-6.142c0-2.44-1.32-4.061-3.5-4.061a3.462 3.462 0 0 0-3.281 2.141 3.146 3.146 0 0 0-3.081-2.141 3.364 3.364 0 0 0-3.021 1.741v-1.536h-1.72v10zm18.2 4.18h1.721v-5.721a4.386 4.386 0 0 0 3.52 1.741 5.211 5.211 0 0 0 0-10.4 4.386 4.386 0 0 0-3.52 1.741v-1.539h-1.721v14.18zm8.382-9.182a3.407 3.407 0 1 1-3.4-3.62 3.415 3.415 0 0 1 3.394 3.625zm3.958 0a5.006 5.006 0 0 0 4.9 5.2 4.387 4.387 0 0 0 3.521-1.741v1.541h1.721v-10h-1.721v1.541a4.387 4.387 0 0 0-3.521-1.741 5.006 5.006 0 0 0-4.906 5.205zm8.562 0a3.417 3.417 0 1 1-3.4-3.62 3.415 3.415 0 0 1 3.394 3.625zm5.319 5h1.72v-4.962c0-2.34 1.28-3.66 2.9-3.66 1.4 0 2.36 1.04 2.36 2.72v5.9h1.7v-6.162c0-2.48-1.541-4.041-3.781-4.041a3.536 3.536 0 0 0-3.181 1.741v-1.532h-1.72v10zm14.74 4.18l6.562-14.183h-1.92l-3.421 7.582-3.441-7.582h-1.9l4.382 9.482-2.181 4.7h1.92zm9.941-4.621a1.71 1.71 0 0 0 .28-.9 1.481 1.481 0 1 0-2.961 0 1.491 1.491 0 0 0 .82 1.341l-1.34 2.86h1.14zm10.94-13.462a1.209 1.209 0 0 0-1.2-1.221 1.242 1.242 0 0 0-1.24 1.221 1.229 1.229 0 0 0 1.24 1.22 1.2 1.2 0 0 0 1.194-1.213zm-2.081 13.9h1.721v-10h-1.721v10zm5.48 0h1.721v-4.962c0-2.34 1.28-3.66 2.9-3.66 1.4 0 2.361 1.04 2.361 2.72v5.9h1.7v-6.162c0-2.48-1.54-4.041-3.781-4.041a3.535 3.535 0 0 0-3.18 1.741v-1.529h-1.721v10zm18.762-2.781c0-1.5-.941-2.461-2.641-3.021l-1.08-.36c-1.18-.38-1.541-.76-1.541-1.4 0-.74.741-1.16 1.681-1.16a2.7 2.7 0 0 1 2.12 1.04l1.121-1.08a3.879 3.879 0 0 0-3.2-1.441c-1.981 0-3.381 1.1-3.381 2.721 0 1.4.86 2.38 2.481 2.9l.98.32c1.3.42 1.78.9 1.78 1.6a1.522 1.522 0 0 1-1.76 1.36 2.685 2.685 0 0 1-2.561-1.58l-1.4.76a3.973 3.973 0 0 0 3.921 2.321c2.013.011 3.474-1.012 3.474-2.97zm2.958 6.961h1.721v-5.721a4.386 4.386 0 0 0 3.52 1.741 5.211 5.211 0 0 0 0-10.4 4.386 4.386 0 0 0-3.52 1.741v-1.534h-1.721v14.18zm8.382-9.182a3.407 3.407 0 1 1-3.4-3.62 3.415 3.415 0 0 1 3.394 3.63zm6.819-8.9a1.208 1.208 0 0 0-1.2-1.221 1.243 1.243 0 0 0-1.241 1.221 1.23 1.23 0 0 0 1.241 1.22 1.2 1.2 0 0 0 1.194-1.211zm-2.081 13.9h1.721v-10h-1.721v10zm5.481 0h1.72v-4.962c0-2.34 1.38-3.44 2.641-3.44a2.514 2.514 0 0 1 .94.16V854.3a3.564 3.564 0 0 0-.78-.08 2.976 2.976 0 0 0-2.8 2.041v-1.941h-1.72v10zm6.68-5a5.273 5.273 0 0 0 9.682 2.821l-1.36-.94a3.542 3.542 0 0 1-6.582-1.54h8.2a4.907 4.907 0 0 0 .02-.521c-.02-3.2-2.14-5.021-4.761-5.021a5.068 5.068 0 0 0-5.205 5.211zm5.141-3.68a2.993 2.993 0 0 1 3.061 2.62h-6.342a3.27 3.27 0 0 1 3.275-2.61zm6.979 3.68a5.005 5.005 0 0 0 4.9 5.2 4.388 4.388 0 0 0 3.521-1.741v1.541h1.72v-15h-1.72v6.542a4.388 4.388 0 0 0-3.521-1.741 5.005 5.005 0 0 0-4.906 5.209zm8.562 0a3.417 3.417 0 1 1-3.4-3.62 3.415 3.415 0 0 1 3.394 3.63zM40.4 892.782a4.387 4.387 0 0 0 3.521 1.741 5.211 5.211 0 0 0 0-10.4 4.387 4.387 0 0 0-3.521 1.741v-6.542h-1.72v15h1.72v-1.541zm6.661-3.461a3.407 3.407 0 1 1-3.4-3.62 3.415 3.415 0 0 1 3.405 3.62zm7.179 9.182l6.562-14.183h-1.916l-3.421 7.58-3.441-7.582h-1.9l4.381 9.482-2.181 4.7h1.92zm13.72-4.18h1.72v-4.962c0-2.26 1.14-3.66 2.761-3.66 1.3 0 1.96 1.12 1.96 2.74v5.882h1.72v-4.962c0-2.26 1.12-3.66 2.741-3.66 1.3 0 1.98 1.12 1.98 2.74v5.882h1.72v-6.142c0-2.44-1.32-4.061-3.5-4.061a3.462 3.462 0 0 0-3.281 2.141 3.145 3.145 0 0 0-3.081-2.141 3.363 3.363 0 0 0-3.021 1.741v-1.541h-1.72v10zm20.281-13.9a1.208 1.208 0 0 0-1.2-1.221 1.243 1.243 0 0 0-1.24 1.221 1.229 1.229 0 0 0 1.24 1.22 1.2 1.2 0 0 0 1.205-1.223zm-2.081 13.9h1.72v-10h-1.72v10zm5.48 0h1.72v-15h-1.72v15zm7.561-13.9a1.208 1.208 0 0 0-1.2-1.221 1.243 1.243 0 0 0-1.24 1.221 1.229 1.229 0 0 0 1.24 1.22 1.2 1.2 0 0 0 1.205-1.223zm-2.081 13.9h1.72v-10h-1.72v10zm10.9-.141v-1.54a3.8 3.8 0 0 1-1.22.2 1.44 1.44 0 0 1-1.66-1.7V885.9h2.88v-1.58h-2.88v-2.78h-1.721v2.78h-2.12v1.58h2.12v5.461a2.816 2.816 0 0 0 3.061 3.061 4.756 4.756 0 0 0 1.546-.24zm1.779-4.861a5.006 5.006 0 0 0 4.9 5.2 4.387 4.387 0 0 0 3.521-1.741v1.541h1.721v-10h-1.721v1.541a4.387 4.387 0 0 0-3.521-1.741 5.006 5.006 0 0 0-4.894 5.2zm8.562 0a3.417 3.417 0 1 1-3.4-3.62 3.415 3.415 0 0 1 3.406 3.62zm5.319 5h1.72v-4.962c0-2.34 1.38-3.44 2.641-3.44a2.514 2.514 0 0 1 .94.16V884.3a3.564 3.564 0 0 0-.78-.08 2.976 2.976 0 0 0-2.8 2.041v-1.941h-1.72v10zm10.48 4.18l6.562-14.183h-1.921l-3.42 7.582-3.441-7.582h-1.9l4.381 9.482-2.18 4.7h1.92zm8.24-8.921h5.1v-1.721h-5.1v1.721zm15.022 1.96c0-1.5-.941-2.461-2.641-3.021l-1.08-.36c-1.18-.38-1.541-.76-1.541-1.4 0-.74.741-1.16 1.681-1.16a2.7 2.7 0 0 1 2.12 1.04l1.121-1.08a3.879 3.879 0 0 0-3.2-1.441c-1.981 0-3.381 1.1-3.381 2.721 0 1.4.86 2.38 2.481 2.9l.98.32c1.3.42 1.78.9 1.78 1.6a1.522 1.522 0 0 1-1.76 1.36 2.685 2.685 0 0 1-2.561-1.58l-1.4.76a3.973 3.973 0 0 0 3.921 2.321c2.025.003 3.486-1.02 3.486-2.978zm2.818-1.08c0 2.48 1.481 4.061 3.681 4.061a3.443 3.443 0 0 0 3.081-1.741v1.541h1.72v-10h-1.72v4.961c0 2.3-1.22 3.661-2.781 3.661-1.38 0-2.26-1.06-2.26-2.74v-5.883h-1.721v6.142zm12.22 3.861h1.721v-4.962c0-2.34 1.38-3.44 2.64-3.44a2.516 2.516 0 0 1 .941.16V884.3a3.564 3.564 0 0 0-.78-.08 2.976 2.976 0 0 0-2.8 2.041v-1.941h-1.721v10zm7.821 4.18h1.72v-5.721a4.387 4.387 0 0 0 3.521 1.741 5.211 5.211 0 0 0 0-10.4 4.387 4.387 0 0 0-3.521 1.741v-1.542h-1.72v14.18zm8.382-9.182a3.408 3.408 0 1 1-3.4-3.62 3.415 3.415 0 0 1 3.406 3.622zm4.738 5h1.72v-15h-1.72v15zm5.34-3.861c0 2.48 1.48 4.061 3.681 4.061a3.442 3.442 0 0 0 3.08-1.741v1.541h1.721v-10h-1.721v4.961c0 2.3-1.22 3.661-2.78 3.661-1.381 0-2.261-1.06-2.261-2.74v-5.881h-1.72v6.142zm18.7 1.08c0-1.5-.941-2.461-2.641-3.021l-1.08-.36c-1.181-.38-1.541-.76-1.541-1.4 0-.74.74-1.16 1.681-1.16a2.7 2.7 0 0 1 2.12 1.04l1.12-1.08a3.876 3.876 0 0 0-3.2-1.441c-1.981 0-3.381 1.1-3.381 2.721 0 1.4.86 2.38 2.481 2.9l.98.32c1.3.42 1.78.9 1.78 1.6a1.522 1.522 0 0 1-1.76 1.36 2.684 2.684 0 0 1-2.561-1.58l-1.4.76a3.973 3.973 0 0 0 3.921 2.321c2.028.005 3.489-1.018 3.489-2.976zm17.42.3l-1.5-.84a3.391 3.391 0 0 1-3.121 1.92 3.6 3.6 0 0 1 0-7.2 3.391 3.391 0 0 1 3.121 1.92l1.5-.84a5.18 5.18 0 0 0-4.621-2.681 5.2 5.2 0 1 0 0 10.4 5.18 5.18 0 0 0 4.629-2.675zm2.718 2.481h1.72v-15h-1.72v15zm15.142-5a5.231 5.231 0 1 0-5.221 5.2 5.133 5.133 0 0 0 5.229-5.198zm-8.7 0a3.473 3.473 0 1 1 3.481 3.6 3.438 3.438 0 0 1-3.475-3.598zm16.9 4.861v-1.54a3.808 3.808 0 0 1-1.221.2 1.44 1.44 0 0 1-1.66-1.7v-5.24h2.881v-1.58h-2.881v-2.78h-1.72v2.78h-2.121v1.58h2.121v5.461a2.816 2.816 0 0 0 3.06 3.061 4.763 4.763 0 0 0 1.549-.24zm2.7.141h1.721v-4.962c0-2.34 1.28-3.66 2.9-3.66 1.4 0 2.36 1.04 2.36 2.72v5.9h1.7v-6.162c0-2.48-1.541-4.041-3.781-4.041a3.536 3.536 0 0 0-3.181 1.741v-6.542h-1.721v15zm11.5-5a5.274 5.274 0 0 0 9.683 2.821l-1.361-.94a3.541 3.541 0 0 1-6.581-1.54h8.2a4.907 4.907 0 0 0 .02-.521c-.02-3.2-2.141-5.021-4.761-5.021a5.069 5.069 0 0 0-5.194 5.201zm5.142-3.68a2.992 2.992 0 0 1 3.06 2.62h-6.341a3.269 3.269 0 0 1 3.287-2.62zm14.24 5.9c0-1.5-.94-2.461-2.64-3.021l-1.081-.36c-1.18-.38-1.54-.76-1.54-1.4 0-.74.74-1.16 1.68-1.16a2.7 2.7 0 0 1 2.121 1.04l1.12-1.08a3.877 3.877 0 0 0-3.2-1.441c-1.98 0-3.38 1.1-3.38 2.721 0 1.4.86 2.38 2.48 2.9l.98.32c1.3.42 1.781.9 1.781 1.6a1.523 1.523 0 0 1-1.761 1.36 2.684 2.684 0 0 1-2.56-1.58l-1.4.76a3.973 3.973 0 0 0 3.92 2.321c2.026.002 3.486-1.021 3.486-2.979zm5.339 1.44a1.48 1.48 0 1 0-1.48 1.5 1.507 1.507 0 0 0 1.486-1.499zm11.021 1.341h1.82V881.88h4.421v-1.76h-10.656v1.76h4.421v12.443zm16.622-5a5.232 5.232 0 1 0-5.222 5.2 5.134 5.134 0 0 0 5.228-5.201zm-8.7 0a3.473 3.473 0 1 1 3.481 3.6 3.438 3.438 0 0 1-3.478-3.601zm10.88 0a5.006 5.006 0 0 0 4.9 5.2 4.387 4.387 0 0 0 3.521-1.741v1.541h1.721v-15h-1.717v6.542a4.387 4.387 0 0 0-3.521-1.741 5.006 5.006 0 0 0-4.901 5.198zm8.562 0a3.417 3.417 0 1 1-3.4-3.62 3.415 3.415 0 0 1 3.403 3.619zm4.538 0a5.006 5.006 0 0 0 4.9 5.2 4.387 4.387 0 0 0 3.521-1.741v1.541h1.721v-10h-1.717v1.541a4.387 4.387 0 0 0-3.521-1.741 5.006 5.006 0 0 0-4.901 5.199zm8.562 0a3.417 3.417 0 1 1-3.4-3.62 3.415 3.415 0 0 1 3.403 3.619zm7.979 9.182l6.562-14.183h-1.918l-3.421 7.582-3.44-7.582h-1.9l4.381 9.482-2.18 4.7h1.92zm9.94-4.621a1.71 1.71 0 0 0 .28-.9 1.48 1.48 0 1 0-2.96 0 1.491 1.491 0 0 0 .82 1.341l-1.34 2.86h1.14zm13.941.3v-1.54a3.8 3.8 0 0 1-1.22.2 1.44 1.44 0 0 1-1.661-1.7V885.9h2.881v-1.58h-2.881v-2.78h-1.72v2.78h-2.12v1.58h2.12v5.461a2.816 2.816 0 0 0 3.061 3.061 4.756 4.756 0 0 0 1.543-.24zm2.7.141h1.72v-4.962c0-2.34 1.281-3.66 2.9-3.66 1.4 0 2.361 1.04 2.361 2.72v5.9h1.7v-6.162c0-2.48-1.54-4.041-3.781-4.041a3.538 3.538 0 0 0-3.181 1.741v-6.542h-1.72v15zm11.5-5a5.273 5.273 0 0 0 9.682 2.821l-1.36-.94a3.542 3.542 0 0 1-6.582-1.54h8.2a4.907 4.907 0 0 0 .02-.521c-.02-3.2-2.14-5.021-4.761-5.021a5.068 5.068 0 0 0-5.197 5.198zm5.141-3.68a2.993 2.993 0 0 1 3.061 2.62h-6.342a3.27 3.27 0 0 1 3.283-2.623zm22.221 6.2l-1.5-.84a3.39 3.39 0 0 1-3.121 1.92 3.6 3.6 0 0 1 0-7.2 3.39 3.39 0 0 1 3.121 1.92l1.5-.84a5.18 5.18 0 0 0-4.621-2.681 5.2 5.2 0 1 0 0 10.4 5.18 5.18 0 0 0 4.623-2.681zm12.38-2.521a5.231 5.231 0 1 0-5.221 5.2 5.133 5.133 0 0 0 5.223-5.202zm-8.7 0a3.473 3.473 0 1 1 3.481 3.6 3.438 3.438 0 0 1-3.481-3.602zm11.66 5h1.721v-15h-1.721v15zm5.48 0h1.721v-15h-1.721v15zm4.7-5a5.273 5.273 0 0 0 9.682 2.821l-1.36-.94a3.542 3.542 0 0 1-6.582-1.54h8.2a4.907 4.907 0 0 0 .02-.521c-.02-3.2-2.14-5.021-4.761-5.021a5.069 5.069 0 0 0-5.199 5.199zm5.141-3.68a2.992 2.992 0 0 1 3.061 2.62h-6.342a3.271 3.271 0 0 1 3.281-2.622zm16.842 6.2l-1.5-.84a3.39 3.39 0 0 1-3.121 1.92 3.6 3.6 0 0 1 0-7.2 3.39 3.39 0 0 1 3.121 1.92l1.5-.84a5.183 5.183 0 0 0-4.622-2.681 5.2 5.2 0 1 0 0 10.4 5.183 5.183 0 0 0 4.622-2.68zm8.139 2.34v-1.54a3.8 3.8 0 0 1-1.221.2 1.44 1.44 0 0 1-1.66-1.7V885.9h2.881v-1.58h-2.881v-2.78h-1.72v2.78h-2.121v1.58h2.121v5.461a2.816 2.816 0 0 0 3.06 3.061 4.758 4.758 0 0 0 1.541-.24zm4.779-13.762a1.208 1.208 0 0 0-1.2-1.221 1.243 1.243 0 0 0-1.241 1.221 1.23 1.23 0 0 0 1.241 1.22 1.2 1.2 0 0 0 1.2-1.221zm-2.08 13.9h1.72v-10h-1.72v10zm15.142-5a5.232 5.232 0 1 0-5.221 5.2 5.133 5.133 0 0 0 5.221-5.2zm-8.7 0a3.473 3.473 0 1 1 3.481 3.6 3.437 3.437 0 0 1-3.483-3.6zm11.66 5h1.72v-4.962c0-2.34 1.28-3.66 2.9-3.66 1.4 0 2.36 1.04 2.36 2.72v5.9h1.7v-6.162c0-2.48-1.541-4.041-3.781-4.041a3.536 3.536 0 0 0-3.181 1.741v-1.537h-1.72v10zm-462.506 30H40.4v-4.962c0-2.34 1.38-3.44 2.641-3.44a2.515 2.515 0 0 1 .94.16V914.3a3.565 3.565 0 0 0-.78-.08 2.977 2.977 0 0 0-2.8 2.041v-1.941h-1.72v10zm6.68-5a5.273 5.273 0 0 0 9.682 2.821l-1.36-.94a3.542 3.542 0 0 1-6.582-1.54h8.2a4.907 4.907 0 0 0 .02-.521c-.02-3.2-2.141-5.021-4.761-5.021a5.069 5.069 0 0 0-5.201 5.201zm5.141-3.68a2.992 2.992 0 0 1 3.061 2.62h-6.343a3.27 3.27 0 0 1 3.281-2.62zm8.479 8.682h1.72V915.9h2.9v-1.58h-2.9v-1.84a1.44 1.44 0 0 1 1.66-1.7 4.029 4.029 0 0 1 1.24.2v-1.521a4.547 4.547 0 0 0-1.56-.26 2.857 2.857 0 0 0-3.061 3.1v2.02h-2.12v1.581h2.121v8.422zm6.5 0h1.72v-15h-1.72v15zm4.678-5a5.273 5.273 0 0 0 9.682 2.821l-1.36-.94a3.542 3.542 0 0 1-6.582-1.54h8.2a4.907 4.907 0 0 0 .02-.521c-.02-3.2-2.141-5.021-4.761-5.021a5.069 5.069 0 0 0-5.198 5.199zm5.141-3.68a2.992 2.992 0 0 1 3.061 2.62h-6.341a3.27 3.27 0 0 1 3.281-2.622zm16.841 6.2l-1.5-.84a3.391 3.391 0 0 1-3.121 1.92 3.6 3.6 0 0 1 0-7.2 3.391 3.391 0 0 1 3.121 1.92l1.5-.84a5.181 5.181 0 0 0-4.621-2.681 5.2 5.2 0 1 0 0 10.4 5.181 5.181 0 0 0 4.622-2.68zm8.139 2.341v-1.541a3.8 3.8 0 0 1-1.22.2 1.44 1.44 0 0 1-1.66-1.7V915.9h2.88v-1.58h-2.88v-2.78h-1.72v2.78h-2.12v1.58h2.12v5.461a2.816 2.816 0 0 0 3.061 3.061 4.783 4.783 0 0 0 1.54-.239zm9.181-2.641c0-1.5-.94-2.461-2.641-3.021l-1.08-.36c-1.18-.38-1.54-.76-1.54-1.4 0-.74.74-1.16 1.68-1.16a2.7 2.7 0 0 1 2.12 1.04l1.121-1.08a3.878 3.878 0 0 0-3.2-1.441c-1.981 0-3.381 1.1-3.381 2.721 0 1.4.86 2.38 2.481 2.9l.98.32c1.3.42 1.78.9 1.78 1.6a1.522 1.522 0 0 1-1.76 1.36 2.685 2.685 0 0 1-2.561-1.58l-1.4.76a3.974 3.974 0 0 0 3.921 2.321c2.02 0 3.481-1.023 3.481-2.981zm8.2-1.08c0 2.48 1.48 4.061 3.681 4.061a3.443 3.443 0 0 0 3.081-1.741v1.541h1.72v-10h-1.72v4.961c0 2.3-1.221 3.661-2.781 3.661-1.38 0-2.26-1.06-2.26-2.74v-5.886h-1.721v6.142zm17.642 3.721v-1.541a3.808 3.808 0 0 1-1.221.2 1.44 1.44 0 0 1-1.66-1.7V915.9h2.881v-1.58h-2.881v-2.78h-1.72v2.78h-2.121v1.58h2.121v5.461a2.816 2.816 0 0 0 3.06 3.061 4.792 4.792 0 0 0 1.54-.239zm4.779-13.763a1.208 1.208 0 0 0-1.2-1.221 1.243 1.243 0 0 0-1.241 1.221 1.23 1.23 0 0 0 1.241 1.22 1.2 1.2 0 0 0 1.199-1.221zm-2.08 13.9h1.72v-10h-1.72v10zm5.48 0h1.72v-15h-1.72v15zm7.56-13.9a1.208 1.208 0 0 0-1.2-1.221 1.243 1.243 0 0 0-1.241 1.221 1.23 1.23 0 0 0 1.241 1.22 1.2 1.2 0 0 0 1.199-1.221zm-2.081 13.9h1.721v-10h-1.721v10zm10.9-.14v-1.541a3.8 3.8 0 0 1-1.221.2 1.44 1.44 0 0 1-1.66-1.7v-5.24h2.881v-1.58h-2.881v-2.78h-1.72v2.78h-2.121v1.58h2.121v5.461a2.816 2.816 0 0 0 3.06 3.061 4.787 4.787 0 0 0 1.542-.239zm1.779-4.862a5.005 5.005 0 0 0 4.9 5.2 4.388 4.388 0 0 0 3.521-1.741v1.541h1.72v-10h-1.72v1.541a4.388 4.388 0 0 0-3.521-1.741 5.005 5.005 0 0 0-4.899 5.202zm8.562 0a3.417 3.417 0 1 1-3.4-3.62 3.415 3.415 0 0 1 3.401 3.622zm5.318 5h1.72v-4.962c0-2.34 1.381-3.44 2.641-3.44a2.514 2.514 0 0 1 .94.16V914.3a3.564 3.564 0 0 0-.78-.08 2.977 2.977 0 0 0-2.8 2.041v-1.941h-1.72v10zm9.9-13.9a1.209 1.209 0 0 0-1.2-1.221 1.242 1.242 0 0 0-1.24 1.221 1.229 1.229 0 0 0 1.24 1.22 1.2 1.2 0 0 0 1.202-1.219zm-2.081 13.9h1.721v-10h-1.721v10zm4.7-5a5.005 5.005 0 0 0 4.9 5.2 4.388 4.388 0 0 0 3.521-1.741v1.541h1.72v-10h-1.72v1.541a4.388 4.388 0 0 0-3.521-1.741 5.005 5.005 0 0 0-4.898 5.202zm8.562 0a3.417 3.417 0 1 1-3.4-3.62 3.415 3.415 0 0 1 3.402 3.622zm5.318 5h1.721v-4.962c0-2.34 1.28-3.66 2.9-3.66 1.4 0 2.361 1.04 2.361 2.72v5.9h1.7v-6.162c0-2.48-1.54-4.041-3.781-4.041a3.535 3.535 0 0 0-3.18 1.741v-1.535h-1.721v10zm20.341 0h1.441l4.621-10h-1.921l-3.421 7.562-3.42-7.562h-1.921zm10.38-13.9a1.208 1.208 0 0 0-1.2-1.221 1.243 1.243 0 0 0-1.241 1.221 1.23 1.23 0 0 0 1.241 1.22 1.2 1.2 0 0 0 1.202-1.219zm-2.08 13.9h1.72v-10h-1.72v10zm7.2-1.541a4.387 4.387 0 0 0 3.521 1.741 5.211 5.211 0 0 0 0-10.4 4.387 4.387 0 0 0-3.521 1.741v-6.542h-1.72v15h1.72v-1.541zm6.662-3.461a3.408 3.408 0 1 1-3.4-3.62 3.415 3.415 0 0 1 3.402 3.624zm3.937 0a5.274 5.274 0 0 0 9.683 2.821l-1.361-.94a3.541 3.541 0 0 1-6.581-1.54h8.2a4.907 4.907 0 0 0 .02-.521c-.02-3.2-2.141-5.021-4.761-5.021a5.069 5.069 0 0 0-5.198 5.205zm5.142-3.68a2.992 2.992 0 0 1 3.06 2.62h-6.341a3.269 3.269 0 0 1 3.283-2.616zm14.24 5.9c0-1.5-.94-2.461-2.64-3.021l-1.08-.36c-1.181-.38-1.541-.76-1.541-1.4 0-.74.74-1.16 1.681-1.16a2.7 2.7 0 0 1 2.12 1.04l1.12-1.08a3.876 3.876 0 0 0-3.2-1.441c-1.981 0-3.381 1.1-3.381 2.721 0 1.4.86 2.38 2.48 2.9l.981.32c1.3.42 1.78.9 1.78 1.6a1.522 1.522 0 0 1-1.76 1.36 2.684 2.684 0 0 1-2.561-1.58l-1.4.76a3.973 3.973 0 0 0 3.921 2.321c2.022.006 3.482-1.017 3.482-2.975zm8.919 2.781h1.721V915.9h2.9v-1.58h-2.9v-1.84a1.44 1.44 0 0 1 1.66-1.7 4.027 4.027 0 0 1 1.24.2v-1.521a4.545 4.545 0 0 0-1.56-.26 2.857 2.857 0 0 0-3.061 3.1v2.02h-2.12v1.581h2.12v8.422zm16.4-5a5.232 5.232 0 1 0-5.222 5.2 5.134 5.134 0 0 0 5.227-5.197zm-8.7 0a3.473 3.473 0 1 1 3.48 3.6 3.437 3.437 0 0 1-3.477-3.597zm11.659 5h1.721v-4.962c0-2.34 1.38-3.44 2.64-3.44a2.516 2.516 0 0 1 .941.16V914.3a3.564 3.564 0 0 0-.78-.08 2.976 2.976 0 0 0-2.8 2.041v-1.941h-1.721v10zm11.92-5a5.006 5.006 0 0 0 4.9 5.2 4.386 4.386 0 0 0 3.52-1.741v1.541h1.721v-10h-1.721v1.541a4.386 4.386 0 0 0-3.52-1.741 5.006 5.006 0 0 0-4.897 5.203zm8.562 0a3.417 3.417 0 1 1-3.4-3.62 3.415 3.415 0 0 1 3.403 3.623zm5.319 5h1.72v-15h-1.72v15zm5.48 0h1.72v-15h-1.72v15zm13.06 4.18l6.562-14.183h-1.921l-3.42 7.582-3.441-7.582h-1.9l4.381 9.482-2.18 4.7h1.92zm18.223-9.182a5.232 5.232 0 1 0-5.222 5.2 5.134 5.134 0 0 0 5.225-5.195zm-8.7 0a3.473 3.473 0 1 1 3.481 3.6 3.438 3.438 0 0 1-3.481-3.595zm11.52 1.141c0 2.48 1.481 4.061 3.681 4.061a3.443 3.443 0 0 0 3.081-1.741v1.541h1.72v-10h-1.72v4.961c0 2.3-1.22 3.661-2.781 3.661-1.38 0-2.26-1.06-2.26-2.74v-5.88h-1.721v6.142zm12.221 3.861h1.72v-4.962c0-2.34 1.38-3.44 2.641-3.44a2.514 2.514 0 0 1 .94.16V914.3a3.564 3.564 0 0 0-.78-.08 2.976 2.976 0 0 0-2.8 2.041v-1.941h-1.72v10zm11.919-5a5.006 5.006 0 0 0 4.9 5.2 4.386 4.386 0 0 0 3.52-1.741v1.541h1.721v-10h-1.719v1.541a4.386 4.386 0 0 0-3.52-1.741 5.006 5.006 0 0 0-4.902 5.203zm8.562 0a3.417 3.417 0 1 1-3.4-3.62 3.415 3.415 0 0 1 3.4 3.623zm4.539 0a5.005 5.005 0 0 0 4.9 5.2 4.39 4.39 0 0 0 3.521-1.741v1.541h1.72v-15h-1.72v6.542a4.39 4.39 0 0 0-3.521-1.741 5.005 5.005 0 0 0-4.9 5.202zm8.562 0a3.417 3.417 0 1 1-3.4-3.62 3.415 3.415 0 0 1 3.4 3.623zm8.439 5h1.44l4.621-10h-1.92l-3.421 7.562-3.421-7.562h-1.921zm7.3-5a5.273 5.273 0 0 0 9.682 2.821l-1.36-.94a3.542 3.542 0 0 1-6.582-1.54h8.2a4.907 4.907 0 0 0 .02-.521c-.02-3.2-2.14-5.021-4.761-5.021a5.069 5.069 0 0 0-5.2 5.204zm5.141-3.68a2.992 2.992 0 0 1 3.061 2.62h-6.342a3.271 3.271 0 0 1 3.28-2.617zm7.759 8.682h1.721v-4.962c0-2.34 1.28-3.66 2.9-3.66 1.4 0 2.361 1.04 2.361 2.72v5.9h1.7v-6.162c0-2.48-1.54-4.041-3.78-4.041a3.536 3.536 0 0 0-3.181 1.741v-1.536h-1.721v10zm17.582-.14v-1.541a3.8 3.8 0 0 1-1.22.2 1.44 1.44 0 0 1-1.661-1.7V915.9h2.881v-1.58h-2.882v-2.78h-1.72v2.78h-2.121v1.58h2.121v5.461a2.816 2.816 0 0 0 3.06 3.061 4.787 4.787 0 0 0 1.541-.239zm2.559-3.721c0 2.48 1.48 4.061 3.681 4.061a3.442 3.442 0 0 0 3.08-1.741v1.541h1.721v-10h-1.721v4.961c0 2.3-1.22 3.661-2.78 3.661-1.381 0-2.261-1.06-2.261-2.74v-5.882h-1.72v6.142zm12.22 3.861h1.72v-4.962c0-2.34 1.381-3.44 2.641-3.44a2.514 2.514 0 0 1 .94.16V914.3a3.564 3.564 0 0 0-.78-.08 2.977 2.977 0 0 0-2.8 2.041v-1.941h-1.72v10zm6.68-5a5.273 5.273 0 0 0 9.682 2.821l-1.36-.94a3.542 3.542 0 0 1-6.582-1.54h8.2a4.907 4.907 0 0 0 .02-.521c-.02-3.2-2.14-5.021-4.761-5.021a5.069 5.069 0 0 0-5.2 5.202zm5.141-3.68a2.992 2.992 0 0 1 3.061 2.62h-6.341a3.269 3.269 0 0 1 3.279-2.619zm14.241 5.9c0-1.5-.94-2.461-2.641-3.021l-1.08-.36c-1.18-.38-1.54-.76-1.54-1.4 0-.74.74-1.16 1.68-1.16a2.705 2.705 0 0 1 2.121 1.04l1.12-1.08a3.878 3.878 0 0 0-3.2-1.441c-1.98 0-3.381 1.1-3.381 2.721 0 1.4.861 2.38 2.481 2.9l.98.32c1.3.42 1.781.9 1.781 1.6a1.523 1.523 0 0 1-1.761 1.36 2.684 2.684 0 0 1-2.56-1.58l-1.4.76a3.974 3.974 0 0 0 3.921 2.321c2.018.003 3.478-1.02 3.478-2.978zm5.339 1.44a1.481 1.481 0 1 0-1.48 1.5 1.507 1.507 0 0 0 1.479-1.498z"/><path id="AT_EASE:_A_MILITARY_STORY_copy" data-name="AT EASE: A MILITARY STORY copy" class="cls-1" d="M37.067 740.072h6.568l2.493-5.935h11.631l2.492 5.935h6.568l-12.027-28.09h-5.7zm11.355-11.394l3.521-8.467 3.521 8.467h-7.042zM74.4 740.072h6.33V718h7.24v-6.014H67.241V718H74.4v22.076zm29.744 0h17.8v-6.014h-11.507v-5.024h9.139v-6.014h-9.139V718h11.513v-6.014h-17.8v28.09zm21.981 0h6.567l2.493-5.935h11.632l2.492 5.935h6.568l-12.028-28.09h-5.7zm11.354-11.394l3.521-8.467 3.521 8.467h-7.043zm31.364 11.869c5.934 0 10.009-3.561 10.049-8.665.039-4.233-2.611-6.923-6.686-8.387l-1.979-.712c-2.967-1.068-4.352-1.741-4.352-3.244 0-1.464 1.7-2.137 3.4-2.137a6.247 6.247 0 0 1 4.866 2.335l4.115-4.352a11.722 11.722 0 0 0-9.06-3.878c-5.618 0-9.693 3.205-9.693 8.665 0 3.837 2.532 6.567 7.082 8.11l1.978.673c2.809.949 3.917 1.938 3.917 3.363 0 1.345-1.306 2.334-3.4 2.334a7.349 7.349 0 0 1-5.816-3.205l-4.827 4.075a12.318 12.318 0 0 0 10.408 5.025zm16.8-.475h17.8v-6.014h-11.51v-5.024h9.139v-6.014h-9.139V718h11.513v-6.014h-17.8v28.09zm28.113-11.75a4.234 4.234 0 1 0-4.233-4.234 4.238 4.238 0 0 0 4.232 4.234zm0 12.066a4.233 4.233 0 1 0-4.233-4.233 4.238 4.238 0 0 0 4.232 4.233zM37.067 779.739h6.568l2.493-5.934h11.631l2.492 5.934h6.568l-12.027-28.09h-5.7zm11.355-11.394l3.521-8.467 3.521 8.467h-7.042zm48.147 5.42l8.19-11.355v17.329h6.33v-28.09h-5.737l-8.783 12.107-8.783-12.107h-5.737v28.09h6.291V762.41zm22.862 5.974h6.291v-28.09h-6.291v28.09zm14.612 0h17.922v-6.014h-11.631v-22.076h-6.291v28.09zm24.234 0h6.291v-28.09h-6.291v28.09zm19.677 0h6.33v-22.076h7.24v-6.014h-20.731v6.014h7.161v22.076zm13.946 0h6.568l2.492-5.934h11.632l2.493 5.934h6.567l-12.027-28.09h-5.7zm11.355-11.394l3.521-8.467 3.522 8.467h-7.043zm23.728 11.394h6.291v-11.592h1.026l9.338 11.592h7.562l-9.93-12.383c3.56-1.266 5.5-3.6 5.5-7.24a8.293 8.293 0 0 0-8.7-8.467h-11.087v28.09zm6.291-16.933v-5.381h4.035c1.86 0 3.205.99 3.205 2.691 0 1.622-1.345 2.69-3.205 2.69h-4.035zm27.639 16.933h6.33v-11.79l10.248-16.3h-7.32l-6.132 10.128-6.054-10.128h-7.319l10.247 16.261v11.829zm40.787.475c5.934 0 10.01-3.561 10.049-8.665.04-4.233-2.611-6.923-6.686-8.387l-1.978-.712c-2.968-1.068-4.352-1.741-4.352-3.244 0-1.464 1.7-2.137 3.4-2.137A6.247 6.247 0 0 1 307 759.4l4.115-4.352a11.721 11.721 0 0 0-9.06-3.877c-5.618 0-9.693 3.2-9.693 8.664 0 3.837 2.532 6.567 7.082 8.11l1.978.673c2.809.949 3.917 1.938 3.917 3.363 0 1.345-1.306 2.334-3.4 2.334a7.349 7.349 0 0 1-5.816-3.2l-4.826 4.075a12.318 12.318 0 0 0 10.403 5.024zm21.466-.475h6.33v-22.076h7.24v-6.014h-20.731v6.014h7.161v22.076zm31.673.475a14.52 14.52 0 1 0-14.52-14.52 14.555 14.555 0 0 0 14.52 14.52zm0-6.093a8.432 8.432 0 1 1 8.15-8.427 8.334 8.334 0 0 1-8.15 8.427zm21.276 5.618h6.291v-11.592h1.028l9.337 11.592h7.557l-9.93-12.383c3.56-1.266 5.5-3.6 5.5-7.24a8.293 8.293 0 0 0-8.7-8.467h-11.083v28.09zm6.291-16.933v-5.381h4.035c1.86 0 3.205.99 3.205 2.691 0 1.622-1.345 2.69-3.205 2.69h-4.035zm27.639 16.933h6.33v-11.79l10.247-16.3H419.3l-6.132 10.128-6.054-10.128H399.8l10.247 16.261v11.829z"/></svg>