<svg xmlns="http://www.w3.org/2000/svg" width="672" height="1097" viewBox="0 0 672 1097">
  <defs>
    <style>
      .cls-1 {
        fill-rule: evenodd;
      }
    </style>
  </defs>
  <path id="Rectangle_116_copy_14" data-name="Rectangle 116 copy 14" class="cls-1" d="M652.009,53.059l-1.094,1.084L634.939,38.314,618.1,55l-1.105-1.094,16.843-16.688L617.547,21.082,618.641,20l16.287,16.137,15.758-15.614,1.105,1.1L636.033,37.23Z"/>
  <path id="Rectangle_116_copy_13" data-name="Rectangle 116 copy 13" class="cls-1" d="M650.915,599.4l-0.08-.08L618.1,632l-1.105-1.1,32.739-32.681L617.547,566.09,618.641,565l33.368,33.309Z"/>
  <path id="We_partner_with_the_best_mills_to_source_the_finest_fabrics_wit_copy" data-name="We partner with the best mills to source the finest fabrics wit copy" class="cls-1" d="M50.007,794.323h1.66l3.881-14.2h-1.94L50.627,791.2l-4.1-11.323L42.445,791.2,39.464,780.12h-1.94l3.881,14.2h1.66l3.481-9.643Zm6.738-5a5.273,5.273,0,0,0,9.682,2.821l-1.36-.94a3.542,3.542,0,0,1-6.582-1.54h8.2a4.907,4.907,0,0,0,.02-0.521c-0.02-3.2-2.141-5.021-4.761-5.021A5.069,5.069,0,0,0,56.744,789.321Zm5.141-3.68a2.992,2.992,0,0,1,3.061,2.62H58.6A3.27,3.27,0,0,1,61.886,785.641ZM75.025,798.5h1.72v-5.721a4.387,4.387,0,0,0,3.521,1.741,5.211,5.211,0,0,0,0-10.4,4.387,4.387,0,0,0-3.521,1.741V784.32h-1.72V798.5Zm8.382-9.182a3.407,3.407,0,1,1-3.4-3.62A3.415,3.415,0,0,1,83.407,789.321Zm3.958,0a5.006,5.006,0,0,0,4.9,5.2,4.387,4.387,0,0,0,3.521-1.741v1.541h1.72v-10h-1.72v1.541a4.387,4.387,0,0,0-3.521-1.741A5.005,5.005,0,0,0,87.365,789.321Zm8.562,0a3.417,3.417,0,1,1-3.4-3.62A3.415,3.415,0,0,1,95.927,789.321Zm5.318,5h1.72v-4.962c0-2.34,1.381-3.44,2.641-3.44a2.514,2.514,0,0,1,.94.16V784.3a3.564,3.564,0,0,0-.78-0.08,2.977,2.977,0,0,0-2.8,2.041V784.32h-1.72v10Zm13.241-.141v-1.54a3.8,3.8,0,0,1-1.22.2,1.44,1.44,0,0,1-1.66-1.7V785.9h2.88V784.32h-2.88v-2.78h-1.721v2.78h-2.12V785.9h2.12v5.461a2.816,2.816,0,0,0,3.061,3.061A4.756,4.756,0,0,0,114.486,794.182Zm2.7,0.141h1.721v-4.962c0-2.34,1.28-3.66,2.9-3.66,1.4,0,2.361,1.04,2.361,2.72v5.9h1.7v-6.162c0-2.48-1.54-4.041-3.781-4.041a3.535,3.535,0,0,0-3.18,1.741V784.32h-1.721v10Zm11.5-5a5.273,5.273,0,0,0,9.682,2.821l-1.36-.94a3.541,3.541,0,0,1-6.581-1.54h8.2a4.907,4.907,0,0,0,.02-0.521c-0.02-3.2-2.141-5.021-4.762-5.021A5.069,5.069,0,0,0,128.685,789.321Zm5.141-3.68a2.992,2.992,0,0,1,3.061,2.62h-6.341A3.269,3.269,0,0,1,133.826,785.641Zm7.76,8.682h1.72v-4.962c0-2.34,1.38-3.44,2.641-3.44a2.514,2.514,0,0,1,.94.16V784.3a3.564,3.564,0,0,0-.78-0.08,2.976,2.976,0,0,0-2.8,2.041V784.32h-1.72v10Zm20.822,0h1.52l3.4-10h-1.82l-2.421,7.3-2.5-7.3h-1.32l-2.5,7.3-2.421-7.3h-1.8l3.4,10h1.521l2.48-7.2Zm9.358-13.9a1.208,1.208,0,0,0-1.2-1.221,1.242,1.242,0,0,0-1.24,1.221,1.229,1.229,0,0,0,1.24,1.22A1.2,1.2,0,0,0,171.766,780.42Zm-2.08,13.9h1.72v-10h-1.72v10Zm10.9-.141v-1.54a3.8,3.8,0,0,1-1.22.2,1.44,1.44,0,0,1-1.66-1.7V785.9h2.88V784.32h-2.88v-2.78h-1.721v2.78h-2.12V785.9h2.12v5.461a2.816,2.816,0,0,0,3.061,3.061A4.756,4.756,0,0,0,180.587,794.182Zm2.7,0.141h1.72v-4.962c0-2.34,1.281-3.66,2.9-3.66,1.4,0,2.361,1.04,2.361,2.72v5.9h1.7v-6.162c0-2.48-1.54-4.041-3.781-4.041a3.538,3.538,0,0,0-3.181,1.741v-6.542h-1.72v15Zm22.741-.141v-1.54a3.8,3.8,0,0,1-1.22.2,1.44,1.44,0,0,1-1.66-1.7V785.9h2.88V784.32h-2.88v-2.78h-1.721v2.78h-2.12V785.9h2.12v5.461a2.816,2.816,0,0,0,3.061,3.061A4.756,4.756,0,0,0,206.027,794.182Zm2.7,0.141h1.721v-4.962c0-2.34,1.28-3.66,2.9-3.66,1.4,0,2.361,1.04,2.361,2.72v5.9h1.7v-6.162c0-2.48-1.54-4.041-3.781-4.041a3.535,3.535,0,0,0-3.18,1.741v-6.542h-1.721v15Zm11.5-5a5.273,5.273,0,0,0,9.682,2.821l-1.36-.94a3.541,3.541,0,0,1-6.581-1.54h8.2a4.907,4.907,0,0,0,.02-0.521c-0.02-3.2-2.141-5.021-4.762-5.021A5.069,5.069,0,0,0,220.226,789.321Zm5.141-3.68a2.992,2.992,0,0,1,3.061,2.62h-6.341A3.269,3.269,0,0,1,225.367,785.641Zm14.86,7.141a4.387,4.387,0,0,0,3.521,1.741,5.211,5.211,0,0,0,0-10.4,4.387,4.387,0,0,0-3.521,1.741v-6.542h-1.721v15h1.721v-1.541Zm6.661-3.461a3.407,3.407,0,1,1-3.4-3.62A3.415,3.415,0,0,1,246.888,789.321Zm3.938,0a5.274,5.274,0,0,0,9.683,2.821l-1.361-.94a3.541,3.541,0,0,1-6.581-1.54h8.2a4.907,4.907,0,0,0,.02-0.521c-0.02-3.2-2.141-5.021-4.761-5.021A5.069,5.069,0,0,0,250.826,789.321Zm5.142-3.68a2.992,2.992,0,0,1,3.06,2.62h-6.341A3.269,3.269,0,0,1,255.968,785.641Zm14.24,5.9c0-1.5-.94-2.461-2.64-3.021l-1.081-.36c-1.18-.38-1.54-0.76-1.54-1.4,0-.74.74-1.16,1.68-1.16a2.7,2.7,0,0,1,2.121,1.04l1.12-1.08a3.877,3.877,0,0,0-3.2-1.441c-1.98,0-3.38,1.1-3.38,2.721,0,1.4.86,2.38,2.48,2.9l0.98,0.32c1.3,0.42,1.781.9,1.781,1.6a1.523,1.523,0,0,1-1.761,1.36,2.684,2.684,0,0,1-2.56-1.58l-1.4.76a3.973,3.973,0,0,0,3.92,2.321C268.748,794.523,270.208,793.5,270.208,791.542Zm8.26,2.64v-1.54a3.8,3.8,0,0,1-1.22.2,1.44,1.44,0,0,1-1.661-1.7V785.9h2.881V784.32h-2.881v-2.78h-1.72v2.78h-2.12V785.9h2.12v5.461a2.816,2.816,0,0,0,3.061,3.061A4.756,4.756,0,0,0,278.468,794.182Zm8.079,0.141h1.72v-4.962c0-2.26,1.141-3.66,2.761-3.66,1.3,0,1.96,1.12,1.96,2.74v5.882h1.721v-4.962c0-2.26,1.12-3.66,2.74-3.66,1.3,0,1.981,1.12,1.981,2.74v5.882h1.72v-6.142c0-2.44-1.32-4.061-3.5-4.061a3.462,3.462,0,0,0-3.281,2.141,3.146,3.146,0,0,0-3.081-2.141,3.362,3.362,0,0,0-3.021,1.741V784.32h-1.72v10Zm20.281-13.9a1.208,1.208,0,0,0-1.2-1.221,1.242,1.242,0,0,0-1.24,1.221,1.229,1.229,0,0,0,1.24,1.22A1.2,1.2,0,0,0,306.828,780.42Zm-2.081,13.9h1.721v-10h-1.721v10Zm5.48,0h1.721v-15h-1.721v15Zm5.48,0h1.721v-15h-1.721v15Zm11.962-2.781c0-1.5-.94-2.461-2.641-3.021l-1.08-.36c-1.18-.38-1.54-0.76-1.54-1.4,0-.74.74-1.16,1.68-1.16a2.7,2.7,0,0,1,2.12,1.04l1.121-1.08a3.879,3.879,0,0,0-3.2-1.441c-1.981,0-3.381,1.1-3.381,2.721,0,1.4.86,2.38,2.481,2.9l0.98,0.32c1.3,0.42,1.78.9,1.78,1.6a1.522,1.522,0,0,1-1.76,1.36,2.685,2.685,0,0,1-2.561-1.58l-1.4.76a3.974,3.974,0,0,0,3.921,2.321C326.208,794.523,327.669,793.5,327.669,791.542Zm13.42,2.64v-1.54a3.813,3.813,0,0,1-1.221.2,1.44,1.44,0,0,1-1.66-1.7V785.9h2.881V784.32h-2.881v-2.78h-1.721v2.78h-2.12V785.9h2.12v5.461a2.816,2.816,0,0,0,3.061,3.061A4.767,4.767,0,0,0,341.089,794.182Zm12.221-4.861a5.232,5.232,0,1,0-5.221,5.2A5.133,5.133,0,0,0,353.31,789.321Zm-8.7,0a3.473,3.473,0,1,1,3.481,3.6A3.437,3.437,0,0,1,344.608,789.321Zm23.521,2.221c0-1.5-.94-2.461-2.64-3.021l-1.081-.36c-1.18-.38-1.54-0.76-1.54-1.4,0-.74.74-1.16,1.68-1.16a2.7,2.7,0,0,1,2.121,1.04l1.12-1.08a3.877,3.877,0,0,0-3.2-1.441c-1.98,0-3.381,1.1-3.381,2.721,0,1.4.861,2.38,2.481,2.9l0.98,0.32c1.3,0.42,1.781.9,1.781,1.6a1.523,1.523,0,0,1-1.761,1.36,2.684,2.684,0,0,1-2.56-1.58l-1.4.76a3.975,3.975,0,0,0,3.921,2.321C366.669,794.523,368.129,793.5,368.129,791.542Zm12.621-2.221a5.232,5.232,0,1,0-5.221,5.2A5.133,5.133,0,0,0,380.75,789.321Zm-8.7,0a3.473,3.473,0,1,1,3.481,3.6A3.437,3.437,0,0,1,372.048,789.321Zm11.52,1.141c0,2.48,1.48,4.061,3.681,4.061a3.442,3.442,0,0,0,3.08-1.741v1.541h1.721v-10h-1.721v4.961c0,2.3-1.22,3.661-2.78,3.661-1.381,0-2.261-1.06-2.261-2.74V784.32h-1.72v6.142Zm12.22,3.861h1.72v-4.962c0-2.34,1.381-3.44,2.641-3.44a2.514,2.514,0,0,1,.94.16V784.3a3.564,3.564,0,0,0-.78-0.08,2.977,2.977,0,0,0-2.8,2.041V784.32h-1.72v10Zm16.542-2.481-1.5-.84a3.39,3.39,0,0,1-3.121,1.92,3.6,3.6,0,0,1,0-7.2,3.39,3.39,0,0,1,3.121,1.92l1.5-.84a5.18,5.18,0,0,0-4.621-2.681,5.2,5.2,0,1,0,0,10.4A5.18,5.18,0,0,0,412.33,791.842Zm1.938-2.521a5.273,5.273,0,0,0,9.682,2.821l-1.36-.94a3.542,3.542,0,0,1-6.582-1.54h8.2a4.907,4.907,0,0,0,.02-0.521c-0.02-3.2-2.14-5.021-4.761-5.021A5.069,5.069,0,0,0,414.268,789.321Zm5.141-3.68a2.992,2.992,0,0,1,3.061,2.62h-6.341A3.269,3.269,0,0,1,419.409,785.641Zm18.221,8.541v-1.54a3.8,3.8,0,0,1-1.221.2,1.44,1.44,0,0,1-1.66-1.7V785.9h2.881V784.32h-2.881v-2.78h-1.72v2.78h-2.121V785.9h2.121v5.461a2.816,2.816,0,0,0,3.06,3.061A4.763,4.763,0,0,0,437.63,794.182Zm2.7,0.141h1.72v-4.962c0-2.34,1.28-3.66,2.9-3.66,1.4,0,2.36,1.04,2.36,2.72v5.9h1.7v-6.162c0-2.48-1.541-4.041-3.781-4.041a3.536,3.536,0,0,0-3.181,1.741v-6.542h-1.72v15Zm11.5-5a5.274,5.274,0,0,0,9.683,2.821l-1.361-.94a3.541,3.541,0,0,1-6.581-1.54h8.2a4.907,4.907,0,0,0,.02-0.521c-0.02-3.2-2.141-5.021-4.761-5.021A5.069,5.069,0,0,0,451.828,789.321Zm5.142-3.68a2.992,2.992,0,0,1,3.06,2.62h-6.341A3.269,3.269,0,0,1,456.97,785.641Zm13.719,8.682h1.721V785.9h2.9V784.32h-2.9v-1.84a1.44,1.44,0,0,1,1.66-1.7,4.027,4.027,0,0,1,1.24.2v-1.521a4.545,4.545,0,0,0-1.56-.26,2.857,2.857,0,0,0-3.061,3.1v2.02h-2.12V785.9h2.12v8.422Zm8.582-13.9a1.208,1.208,0,0,0-1.2-1.221,1.242,1.242,0,0,0-1.24,1.221,1.229,1.229,0,0,0,1.24,1.22A1.2,1.2,0,0,0,479.271,780.42Zm-2.08,13.9h1.72v-10h-1.72v10Zm5.458,0h1.721v-4.962c0-2.34,1.28-3.66,2.9-3.66,1.4,0,2.361,1.04,2.361,2.72v5.9h1.7v-6.162c0-2.48-1.54-4.041-3.781-4.041a3.535,3.535,0,0,0-3.18,1.741V784.32h-1.721v10Zm11.5-5a5.273,5.273,0,0,0,9.682,2.821l-1.36-.94a3.542,3.542,0,0,1-6.582-1.54h8.2a4.907,4.907,0,0,0,.02-0.521c-0.02-3.2-2.14-5.021-4.761-5.021A5.069,5.069,0,0,0,494.149,789.321Zm5.141-3.68a2.992,2.992,0,0,1,3.061,2.62h-6.342A3.271,3.271,0,0,1,499.29,785.641Zm14.241,5.9c0-1.5-.94-2.461-2.641-3.021l-1.08-.36c-1.18-.38-1.54-0.76-1.54-1.4,0-.74.74-1.16,1.68-1.16a2.705,2.705,0,0,1,2.121,1.04l1.12-1.08a3.878,3.878,0,0,0-3.2-1.441c-1.98,0-3.381,1.1-3.381,2.721,0,1.4.86,2.38,2.481,2.9l0.98,0.32c1.3,0.42,1.781.9,1.781,1.6a1.523,1.523,0,0,1-1.761,1.36,2.686,2.686,0,0,1-2.561-1.58l-1.4.76a3.974,3.974,0,0,0,3.921,2.321C512.071,794.523,513.531,793.5,513.531,791.542Zm8.26,2.64v-1.54a3.8,3.8,0,0,1-1.22.2,1.44,1.44,0,0,1-1.661-1.7V785.9h2.881V784.32H518.91v-2.78h-1.72v2.78h-2.121V785.9h2.121v5.461a2.816,2.816,0,0,0,3.06,3.061A4.758,4.758,0,0,0,521.791,794.182Zm8.659,0.141h1.72V785.9h2.9V784.32h-2.9v-1.84a1.441,1.441,0,0,1,1.661-1.7,4.027,4.027,0,0,1,1.24.2v-1.521a4.545,4.545,0,0,0-1.56-.26,2.857,2.857,0,0,0-3.061,3.1v2.02h-2.12V785.9h2.12v8.422Zm5.96-5a5.005,5.005,0,0,0,4.9,5.2,4.388,4.388,0,0,0,3.521-1.741v1.541h1.72v-10h-1.72v1.541a4.388,4.388,0,0,0-3.521-1.741A5.005,5.005,0,0,0,536.41,789.321Zm8.562,0a3.417,3.417,0,1,1-3.4-3.62A3.415,3.415,0,0,1,544.972,789.321Zm7.039,3.461a4.386,4.386,0,0,0,3.52,1.741,5.211,5.211,0,0,0,0-10.4,4.386,4.386,0,0,0-3.52,1.741v-6.542H550.29v15h1.721v-1.541Zm6.661-3.461a3.407,3.407,0,1,1-3.4-3.62A3.415,3.415,0,0,1,558.672,789.321Zm4.718,5h1.721v-4.962c0-2.34,1.38-3.44,2.64-3.44a2.519,2.519,0,0,1,.941.16V784.3a3.572,3.572,0,0,0-.781-0.08,2.976,2.976,0,0,0-2.8,2.041V784.32H563.39v10Zm9.9-13.9a1.208,1.208,0,0,0-1.2-1.221,1.243,1.243,0,0,0-1.241,1.221,1.229,1.229,0,0,0,1.241,1.22A1.2,1.2,0,0,0,573.291,780.42Zm-2.081,13.9h1.721v-10H571.21v10Zm14.563-2.481-1.5-.84a3.39,3.39,0,0,1-3.12,1.92,3.6,3.6,0,0,1,0-7.2,3.39,3.39,0,0,1,3.12,1.92l1.5-.84a5.182,5.182,0,0,0-4.621-2.681,5.2,5.2,0,1,0,0,10.4A5.182,5.182,0,0,0,585.773,791.842Zm9.2-.3c0-1.5-.94-2.461-2.641-3.021l-1.08-.36c-1.18-.38-1.54-0.76-1.54-1.4,0-.74.74-1.16,1.68-1.16a2.7,2.7,0,0,1,2.121,1.04l1.12-1.08a3.878,3.878,0,0,0-3.2-1.441c-1.98,0-3.381,1.1-3.381,2.721,0,1.4.861,2.38,2.481,2.9l0.98,0.32c1.3,0.42,1.781.9,1.781,1.6a1.523,1.523,0,0,1-1.761,1.36,2.684,2.684,0,0,1-2.56-1.58l-1.4.76a3.974,3.974,0,0,0,3.921,2.321C593.512,794.523,594.972,793.5,594.972,791.542ZM47.166,824.323h1.52l3.4-10h-1.82l-2.421,7.3-2.5-7.3h-1.32l-2.5,7.3-2.42-7.3H37.3l3.4,10h1.52l2.481-7.2Zm9.359-13.9a1.208,1.208,0,0,0-1.2-1.221,1.243,1.243,0,0,0-1.24,1.221,1.229,1.229,0,0,0,1.24,1.22A1.2,1.2,0,0,0,56.525,810.42Zm-2.081,13.9h1.72v-10h-1.72v10Zm10.9-.141v-1.54a3.8,3.8,0,0,1-1.22.2,1.44,1.44,0,0,1-1.66-1.7V815.9h2.881V814.32H62.465v-2.78H60.744v2.78h-2.12V815.9h2.121v5.461a2.816,2.816,0,0,0,3.061,3.061A4.758,4.758,0,0,0,65.346,824.182Zm2.7,0.141h1.72v-4.962c0-2.34,1.28-3.66,2.9-3.66,1.4,0,2.361,1.04,2.361,2.72v5.9h1.7v-6.162c0-2.48-1.54-4.041-3.781-4.041a3.536,3.536,0,0,0-3.181,1.741v-6.542h-1.72v15Zm22.741-.141v-1.54a3.8,3.8,0,0,1-1.22.2,1.44,1.44,0,0,1-1.66-1.7V815.9h2.881V814.32H87.905v-2.78h-1.72v2.78H84.064V815.9h2.121v5.461a2.816,2.816,0,0,0,3.061,3.061A4.758,4.758,0,0,0,90.786,824.182Zm2.7,0.141h1.721v-4.962c0-2.34,1.28-3.66,2.9-3.66,1.4,0,2.36,1.04,2.36,2.72v5.9h1.7v-6.162c0-2.48-1.541-4.041-3.781-4.041a3.536,3.536,0,0,0-3.181,1.741v-6.542H93.485v15Zm11.5-5a5.274,5.274,0,0,0,9.683,2.821l-1.361-.94a3.541,3.541,0,0,1-6.581-1.54h8.2a4.907,4.907,0,0,0,.02-0.521c-0.02-3.2-2.141-5.021-4.761-5.021A5.069,5.069,0,0,0,104.984,819.321Zm5.142-3.68a2.992,2.992,0,0,1,3.06,2.62h-6.341A3.269,3.269,0,0,1,110.126,815.641Zm13.139,8.682h1.72v-15h-1.72v15Zm4.7-5a5.005,5.005,0,0,0,4.9,5.2,4.39,4.39,0,0,0,3.521-1.741v1.541h1.72v-10h-1.72v1.541a4.39,4.39,0,0,0-3.521-1.741A5.005,5.005,0,0,0,127.965,819.321Zm8.562,0a3.417,3.417,0,1,1-3.4-3.62A3.415,3.415,0,0,1,136.527,819.321Zm10.739,4.861v-1.54a3.8,3.8,0,0,1-1.22.2,1.44,1.44,0,0,1-1.661-1.7V815.9h2.881V814.32h-2.881v-2.78h-1.72v2.78h-2.12V815.9h2.12v5.461a2.816,2.816,0,0,0,3.061,3.061A4.756,4.756,0,0,0,147.266,824.182Zm1.779-4.861a5.273,5.273,0,0,0,9.682,2.821l-1.36-.94a3.542,3.542,0,0,1-6.582-1.54h8.2a4.907,4.907,0,0,0,.02-0.521c-0.02-3.2-2.14-5.021-4.761-5.021A5.069,5.069,0,0,0,149.045,819.321Zm5.141-3.68a2.992,2.992,0,0,1,3.061,2.62h-6.342A3.271,3.271,0,0,1,154.186,815.641Zm14.241,5.9c0-1.5-.94-2.461-2.641-3.021l-1.08-.36c-1.18-.38-1.54-0.76-1.54-1.4,0-.74.74-1.16,1.68-1.16a2.705,2.705,0,0,1,2.121,1.04l1.12-1.08a3.878,3.878,0,0,0-3.2-1.441c-1.98,0-3.381,1.1-3.381,2.721,0,1.4.86,2.38,2.481,2.9l0.98,0.32c1.3,0.42,1.781.9,1.781,1.6a1.523,1.523,0,0,1-1.761,1.36,2.686,2.686,0,0,1-2.561-1.58l-1.4.76a3.974,3.974,0,0,0,3.921,2.321C166.967,824.523,168.427,823.5,168.427,821.542Zm8.26,2.64v-1.54a3.8,3.8,0,0,1-1.22.2,1.44,1.44,0,0,1-1.661-1.7V815.9h2.881V814.32h-2.881v-2.78h-1.72v2.78h-2.121V815.9h2.121v5.461a2.816,2.816,0,0,0,3.06,3.061A4.758,4.758,0,0,0,176.687,824.182Zm10.159-13.762a1.208,1.208,0,0,0-1.2-1.221,1.243,1.243,0,0,0-1.241,1.221,1.23,1.23,0,0,0,1.241,1.22A1.2,1.2,0,0,0,186.846,810.42Zm-2.08,13.9h1.72v-10h-1.72v10Zm5.48,0h1.72v-4.962c0-2.34,1.28-3.66,2.9-3.66,1.4,0,2.36,1.04,2.36,2.72v5.9h1.7v-6.162c0-2.48-1.541-4.041-3.781-4.041a3.536,3.536,0,0,0-3.181,1.741V814.32h-1.72v10Zm12.28,0h1.72v-4.962c0-2.34,1.28-3.66,2.9-3.66,1.4,0,2.36,1.04,2.36,2.72v5.9h1.7v-6.162c0-2.48-1.541-4.041-3.781-4.041a3.536,3.536,0,0,0-3.181,1.741V814.32h-1.72v10Zm21.942-5a5.231,5.231,0,1,0-5.221,5.2A5.133,5.133,0,0,0,224.468,819.321Zm-8.7,0a3.473,3.473,0,1,1,3.481,3.6A3.437,3.437,0,0,1,215.766,819.321Zm14.561,5h1.44l4.621-10h-1.92l-3.421,7.562-3.421-7.562h-1.92Zm7.319-5a5.006,5.006,0,0,0,4.9,5.2,4.387,4.387,0,0,0,3.521-1.741v1.541h1.721v-10h-1.721v1.541a4.387,4.387,0,0,0-3.521-1.741A5.006,5.006,0,0,0,237.646,819.321Zm8.562,0a3.417,3.417,0,1,1-3.4-3.62A3.415,3.415,0,0,1,246.208,819.321Zm10.74,4.861v-1.54a3.8,3.8,0,0,1-1.221.2,1.44,1.44,0,0,1-1.66-1.7V815.9h2.881V814.32h-2.881v-2.78h-1.72v2.78h-2.121V815.9h2.121v5.461a2.816,2.816,0,0,0,3.06,3.061A4.763,4.763,0,0,0,256.948,824.182Zm4.779-13.762a1.208,1.208,0,0,0-1.2-1.221,1.243,1.243,0,0,0-1.241,1.221,1.23,1.23,0,0,0,1.241,1.22A1.2,1.2,0,0,0,261.727,810.42Zm-2.08,13.9h1.72v-10h-1.72v10Zm15.142-5a5.232,5.232,0,1,0-5.221,5.2A5.133,5.133,0,0,0,274.789,819.321Zm-8.7,0a3.473,3.473,0,1,1,3.481,3.6A3.437,3.437,0,0,1,266.087,819.321Zm11.66,5h1.72v-4.962c0-2.34,1.28-3.66,2.9-3.66,1.4,0,2.36,1.04,2.36,2.72v5.9h1.7v-6.162c0-2.48-1.541-4.041-3.781-4.041a3.536,3.536,0,0,0-3.181,1.741V814.32h-1.72v10Zm14.66-1.341a1.48,1.48,0,1,0-1.48,1.5A1.507,1.507,0,0,0,292.407,822.982Zm11.021,1.341h1.82V811.88h4.421v-1.76H299.007v1.76h4.421v12.443Zm8.559,0h1.721v-4.962c0-2.34,1.28-3.66,2.9-3.66,1.4,0,2.361,1.04,2.361,2.72v5.9h1.7v-6.162c0-2.48-1.54-4.041-3.781-4.041a3.535,3.535,0,0,0-3.18,1.741v-6.542h-1.721v15Zm14.361-13.9a1.208,1.208,0,0,0-1.2-1.221,1.242,1.242,0,0,0-1.24,1.221,1.229,1.229,0,0,0,1.24,1.22A1.2,1.2,0,0,0,326.348,810.42Zm-2.081,13.9h1.721v-10h-1.721v10Zm11.962-2.781c0-1.5-.94-2.461-2.641-3.021l-1.08-.36c-1.18-.38-1.54-0.76-1.54-1.4,0-.74.74-1.16,1.68-1.16a2.7,2.7,0,0,1,2.12,1.04l1.121-1.08a3.878,3.878,0,0,0-3.2-1.441c-1.981,0-3.381,1.1-3.381,2.721,0,1.4.86,2.38,2.481,2.9l0.98,0.32c1.3,0.42,1.78.9,1.78,1.6a1.522,1.522,0,0,1-1.76,1.36,2.685,2.685,0,0,1-2.561-1.58l-1.4.76a3.974,3.974,0,0,0,3.921,2.321C334.768,824.523,336.229,823.5,336.229,821.542Zm8.6,2.781h1.861v-14.2h-1.861v14.2Zm11.262-.141v-1.54a3.808,3.808,0,0,1-1.221.2,1.44,1.44,0,0,1-1.66-1.7V815.9h2.881V814.32h-2.881v-2.78h-1.72v2.78h-2.121V815.9h2.121v5.461a2.816,2.816,0,0,0,3.06,3.061A4.763,4.763,0,0,0,356.089,824.182Zm1.779-4.861a5.005,5.005,0,0,0,4.9,5.2,4.39,4.39,0,0,0,3.521-1.741v1.541h1.72v-10h-1.72v1.541a4.39,4.39,0,0,0-3.521-1.741A5.005,5.005,0,0,0,357.868,819.321Zm8.562,0a3.417,3.417,0,1,1-3.4-3.62A3.415,3.415,0,0,1,366.43,819.321Zm5.318,5h1.72v-15h-1.72v15Zm7.56-13.9a1.208,1.208,0,0,0-1.2-1.221,1.242,1.242,0,0,0-1.24,1.221,1.229,1.229,0,0,0,1.24,1.22A1.2,1.2,0,0,0,379.308,810.42Zm-2.08,13.9h1.72v-10h-1.72v10Zm4.7-5a5.005,5.005,0,0,0,4.9,5.2,4.39,4.39,0,0,0,3.521-1.741v1.541h1.72v-10h-1.72v1.541a4.39,4.39,0,0,0-3.521-1.741A5.005,5.005,0,0,0,381.928,819.321Zm8.562,0a3.417,3.417,0,1,1-3.4-3.62A3.415,3.415,0,0,1,390.49,819.321Zm5.318,5h1.72v-4.962c0-2.34,1.281-3.66,2.9-3.66,1.4,0,2.361,1.04,2.361,2.72v5.9h1.7v-6.162c0-2.48-1.54-4.041-3.781-4.041a3.537,3.537,0,0,0-3.181,1.741V814.32h-1.72v10Zm24.9-4.161,5.121-6.882v11.043h1.84v-14.2h-1.68L420.71,817.2l-5.282-7.081h-1.7v14.2h1.86V813.28Zm20.461-.841a5.232,5.232,0,1,0-5.222,5.2A5.134,5.134,0,0,0,441.171,819.321Zm-8.7,0a3.473,3.473,0,1,1,3.48,3.6A3.437,3.437,0,0,1,432.469,819.321Zm16.9,4.861v-1.54a3.8,3.8,0,0,1-1.22.2,1.44,1.44,0,0,1-1.661-1.7V815.9h2.881V814.32h-2.881v-2.78h-1.72v2.78h-2.121V815.9h2.121v5.461a2.816,2.816,0,0,0,3.061,3.061A4.756,4.756,0,0,0,449.37,824.182Zm4.779-13.762a1.208,1.208,0,0,0-1.2-1.221,1.242,1.242,0,0,0-1.24,1.221,1.229,1.229,0,0,0,1.24,1.22A1.2,1.2,0,0,0,454.149,810.42Zm-2.08,13.9h1.72v-10h-1.72v10Zm15.142-5a5.231,5.231,0,1,0-5.221,5.2A5.133,5.133,0,0,0,467.211,819.321Zm-8.7,0a3.473,3.473,0,1,1,3.481,3.6A3.437,3.437,0,0,1,458.509,819.321Zm11.66,5h1.72v-4.962c0-2.34,1.281-3.66,2.9-3.66,1.4,0,2.36,1.04,2.36,2.72v5.9h1.7v-6.162c0-2.48-1.54-4.041-3.781-4.041a3.537,3.537,0,0,0-3.181,1.741V814.32h-1.72v10Zm11.96-4.741h5.1v-1.721h-5.1v1.721Zm7.24,2.42a5.485,5.485,0,0,0,4.981,2.561c2.641,0,4.521-1.521,4.521-3.941,0-2.1-1.2-3.3-3.3-4.1l-1.72-.66c-1.44-.54-2.141-1.081-2.141-2.281,0-1.18,1.161-1.96,2.561-1.96a3.516,3.516,0,0,1,2.821,1.4l1.36-1.2a5.182,5.182,0,0,0-4.141-1.941c-2.541,0-4.441,1.461-4.441,3.781,0,1.941,1,3.1,3.221,3.921l1.88,0.72c1.321,0.5,2.041,1.261,2.041,2.4,0,1.32-1.161,2.12-2.621,2.12a3.969,3.969,0,0,1-3.521-1.94Zm17.582,2.18v-1.54a3.813,3.813,0,0,1-1.221.2,1.44,1.44,0,0,1-1.66-1.7V815.9h2.881V814.32H504.07v-2.78h-1.721v2.78h-2.12V815.9h2.12v5.461a2.816,2.816,0,0,0,3.061,3.061A4.767,4.767,0,0,0,506.951,824.182Zm2.7,0.141h1.721v-4.962c0-2.34,1.38-3.44,2.64-3.44a2.516,2.516,0,0,1,.941.16V814.3a3.566,3.566,0,0,0-.781-0.08,2.976,2.976,0,0,0-2.8,2.041V814.32h-1.721v10Zm6.681-5a5.273,5.273,0,0,0,9.682,2.821l-1.36-.94a3.542,3.542,0,0,1-6.582-1.54h8.2a4.907,4.907,0,0,0,.02-0.521c-0.02-3.2-2.141-5.021-4.761-5.021A5.068,5.068,0,0,0,516.33,819.321Zm5.141-3.68a2.992,2.992,0,0,1,3.06,2.62H518.19A3.269,3.269,0,0,1,521.471,815.641Zm13.04,8.541v-1.54a3.8,3.8,0,0,1-1.22.2,1.44,1.44,0,0,1-1.66-1.7V815.9h2.88V814.32h-2.88v-2.78H529.91v2.78h-2.12V815.9h2.12v5.461a2.816,2.816,0,0,0,3.061,3.061A4.756,4.756,0,0,0,534.511,824.182Zm11.642-2.34-1.5-.84a3.39,3.39,0,0,1-3.12,1.92,3.6,3.6,0,0,1,0-7.2,3.39,3.39,0,0,1,3.12,1.92l1.5-.84a5.182,5.182,0,0,0-4.621-2.681,5.2,5.2,0,1,0,0,10.4A5.182,5.182,0,0,0,546.153,821.842Zm2.718,2.481h1.72v-4.962c0-2.34,1.28-3.66,2.9-3.66,1.4,0,2.36,1.04,2.36,2.72v5.9h1.7v-6.162c0-2.48-1.541-4.041-3.781-4.041a3.536,3.536,0,0,0-3.181,1.741v-6.542h-1.72v15Zm28.522,0h1.661l3.881-14.2h-1.941l-2.98,11.082-4.1-11.323L569.832,821.2l-2.981-11.082H564.91l3.881,14.2h1.661l3.481-9.643Zm17.18-5a5.231,5.231,0,1,0-5.221,5.2A5.133,5.133,0,0,0,594.573,819.321Zm-8.7,0a3.473,3.473,0,1,1,3.481,3.6A3.438,3.438,0,0,1,585.871,819.321Zm21.322,0a5.231,5.231,0,1,0-5.221,5.2A5.133,5.133,0,0,0,607.193,819.321Zm-8.7,0a3.473,3.473,0,1,1,3.481,3.6A3.438,3.438,0,0,1,598.491,819.321Zm11.66,5h1.721v-15h-1.721v15Zm-570.627,30h1.72V845.9h2.9V844.32h-2.9v-1.84a1.44,1.44,0,0,1,1.66-1.7,4.029,4.029,0,0,1,1.24.2v-1.521a4.548,4.548,0,0,0-1.56-.26,2.857,2.857,0,0,0-3.061,3.1v2.02H37.4V845.9h2.121v8.422Zm5.96-5a5.273,5.273,0,0,0,9.682,2.821l-1.36-.94a3.542,3.542,0,0,1-6.581-1.54h8.2a4.907,4.907,0,0,0,.02-0.521c-0.02-3.2-2.14-5.021-4.761-5.021A5.069,5.069,0,0,0,45.484,849.321Zm5.141-3.68a2.992,2.992,0,0,1,3.061,2.62H47.345A3.27,3.27,0,0,1,50.626,845.641Zm6.979,3.68a5.006,5.006,0,0,0,4.9,5.2,4.387,4.387,0,0,0,3.521-1.741v1.541h1.72v-10h-1.72v1.541a4.387,4.387,0,0,0-3.521-1.741A5.005,5.005,0,0,0,57.6,849.321Zm8.562,0a3.417,3.417,0,1,1-3.4-3.62A3.415,3.415,0,0,1,66.167,849.321Zm10.74,4.861v-1.54a3.8,3.8,0,0,1-1.22.2,1.44,1.44,0,0,1-1.66-1.7V845.9h2.881V844.32H74.025v-2.78H72.3v2.78H70.184V845.9H72.3v5.461a2.816,2.816,0,0,0,3.061,3.061A4.758,4.758,0,0,0,76.906,854.182Zm2.559-3.72c0,2.48,1.48,4.061,3.681,4.061a3.442,3.442,0,0,0,3.081-1.741v1.541h1.721v-10H86.226v4.961c0,2.3-1.22,3.661-2.781,3.661-1.38,0-2.261-1.06-2.261-2.74V844.32h-1.72v6.142Zm12.22,3.861h1.72v-4.962c0-2.34,1.38-3.44,2.641-3.44a2.515,2.515,0,0,1,.94.16V844.3a3.565,3.565,0,0,0-.78-0.08,2.977,2.977,0,0,0-2.8,2.041V844.32h-1.72v10Zm6.68-5a5.273,5.273,0,0,0,9.683,2.821l-1.361-.94a3.541,3.541,0,0,1-6.581-1.54h8.2a4.907,4.907,0,0,0,.02-0.521c-0.02-3.2-2.141-5.021-4.762-5.021A5.069,5.069,0,0,0,98.365,849.321Zm5.141-3.68a2.992,2.992,0,0,1,3.061,2.62h-6.341A3.269,3.269,0,0,1,103.506,845.641Zm14.241,5.9c0-1.5-.94-2.461-2.64-3.021l-1.081-.36c-1.18-.38-1.54-0.76-1.54-1.4,0-.74.74-1.16,1.68-1.16a2.7,2.7,0,0,1,2.121,1.04l1.12-1.08a3.877,3.877,0,0,0-3.2-1.441c-1.98,0-3.381,1.1-3.381,2.721,0,1.4.861,2.38,2.481,2.9l0.98,0.32c1.3,0.42,1.781.9,1.781,1.6a1.523,1.523,0,0,1-1.761,1.36,2.684,2.684,0,0,1-2.56-1.58l-1.4.76a3.975,3.975,0,0,0,3.921,2.321C116.287,854.523,117.747,853.5,117.747,851.542Zm7.558-2.221a5.006,5.006,0,0,0,4.9,5.2,4.386,4.386,0,0,0,3.52-1.741v1.541h1.721v-10h-1.721v1.541a4.386,4.386,0,0,0-3.52-1.741A5.006,5.006,0,0,0,125.305,849.321Zm8.562,0a3.417,3.417,0,1,1-3.4-3.62A3.415,3.415,0,0,1,133.867,849.321Zm10.559,1.141c0,2.48,1.48,4.061,3.68,4.061a3.442,3.442,0,0,0,3.081-1.741v1.541h1.721v-10h-1.721v4.961c0,2.3-1.22,3.661-2.781,3.661-1.38,0-2.26-1.06-2.26-2.74V844.32h-1.72v6.142Zm12.22,3.861h1.72v-4.962c0-2.34,1.28-3.66,2.9-3.66,1.4,0,2.36,1.04,2.36,2.72v5.9h1.7v-6.162c0-2.48-1.541-4.041-3.781-4.041a3.537,3.537,0,0,0-3.181,1.741V844.32h-1.72v10Zm14.36-13.9a1.208,1.208,0,0,0-1.2-1.221,1.242,1.242,0,0,0-1.24,1.221,1.229,1.229,0,0,0,1.24,1.22A1.2,1.2,0,0,0,171.006,840.42Zm-2.08,13.9h1.72v-10h-1.72v10Zm13.122,4.18h1.72V844.32h-1.72v1.541a4.39,4.39,0,0,0-3.521-1.741,5.211,5.211,0,0,0,0,10.4,4.39,4.39,0,0,0,3.521-1.741V858.5Zm0.14-9.182a3.417,3.417,0,1,1-3.4-3.62A3.415,3.415,0,0,1,182.188,849.321Zm5.178,1.141c0,2.48,1.48,4.061,3.681,4.061a3.444,3.444,0,0,0,3.081-1.741v1.541h1.72v-10h-1.72v4.961c0,2.3-1.221,3.661-2.781,3.661-1.38,0-2.261-1.06-2.261-2.74V844.32h-1.72v6.142Zm11.44-1.141a5.273,5.273,0,0,0,9.682,2.821l-1.36-.94a3.542,3.542,0,0,1-6.582-1.54h8.2a4.907,4.907,0,0,0,.02-0.521c-0.02-3.2-2.14-5.021-4.761-5.021A5.068,5.068,0,0,0,198.806,849.321Zm5.141-3.68a2.992,2.992,0,0,1,3.061,2.62h-6.342A3.27,3.27,0,0,1,203.947,845.641Zm13.139,8.682h1.721v-5l5.421,5h2.32l-6.021-5.582,4.921-4.421h-2.28l-4.361,3.9v-8.9h-1.721v15Zm11.28,0h1.721v-4.962c0-2.34,1.28-3.66,2.9-3.66,1.4,0,2.361,1.04,2.361,2.72v5.9h1.7v-6.162c0-2.48-1.54-4.041-3.781-4.041a3.535,3.535,0,0,0-3.18,1.741V844.32h-1.721v10Zm14.361-13.9a1.208,1.208,0,0,0-1.2-1.221,1.243,1.243,0,0,0-1.241,1.221,1.229,1.229,0,0,0,1.241,1.22A1.2,1.2,0,0,0,242.727,840.42Zm-2.081,13.9h1.721v-10h-1.721v10Zm10.9-.141v-1.54a3.808,3.808,0,0,1-1.221.2,1.44,1.44,0,0,1-1.66-1.7V845.9h2.881V844.32h-2.881v-2.78h-1.72v2.78h-2.121V845.9h2.121v5.461a2.816,2.816,0,0,0,3.06,3.061A4.763,4.763,0,0,0,251.548,854.182Zm8.659,0.141h1.72V845.9h2.9V844.32h-2.9v-1.84a1.44,1.44,0,0,1,1.661-1.7,4.027,4.027,0,0,1,1.24.2v-1.521a4.545,4.545,0,0,0-1.56-.26,2.857,2.857,0,0,0-3.061,3.1v2.02h-2.121V845.9h2.121v8.422Zm5.96-5a5.005,5.005,0,0,0,4.9,5.2,4.388,4.388,0,0,0,3.521-1.741v1.541h1.72v-10h-1.72v1.541a4.388,4.388,0,0,0-3.521-1.741A5.005,5.005,0,0,0,266.167,849.321Zm8.562,0a3.417,3.417,0,1,1-3.4-3.62A3.415,3.415,0,0,1,274.729,849.321Zm7.038,3.461a4.39,4.39,0,0,0,3.521,1.741,5.211,5.211,0,0,0,0-10.4,4.39,4.39,0,0,0-3.521,1.741v-6.542h-1.72v15h1.72v-1.541Zm6.662-3.461a3.408,3.408,0,1,1-3.4-3.62A3.415,3.415,0,0,1,288.429,849.321Zm4.718,5h1.721v-4.962c0-2.34,1.38-3.44,2.64-3.44a2.514,2.514,0,0,1,.94.16V844.3a3.564,3.564,0,0,0-.78-0.08,2.976,2.976,0,0,0-2.8,2.041V844.32h-1.721v10Zm9.9-13.9a1.208,1.208,0,0,0-1.2-1.221,1.243,1.243,0,0,0-1.241,1.221,1.229,1.229,0,0,0,1.241,1.22A1.2,1.2,0,0,0,303.048,840.42Zm-2.081,13.9h1.721v-10h-1.721v10Zm14.562-2.481-1.5-.84a3.39,3.39,0,0,1-3.121,1.92,3.6,3.6,0,0,1,0-7.2,3.39,3.39,0,0,1,3.121,1.92l1.5-.84a5.18,5.18,0,0,0-4.621-2.681,5.2,5.2,0,1,0,0,10.4A5.18,5.18,0,0,0,315.529,851.842Zm8.679,2.481h1.72V845.9h2.9V844.32h-2.9v-1.84a1.44,1.44,0,0,1,1.661-1.7,4.027,4.027,0,0,1,1.24.2v-1.521a4.547,4.547,0,0,0-1.561-.26,2.857,2.857,0,0,0-3.06,3.1v2.02h-2.121V845.9h2.121v8.422Zm7,0h1.72v-4.962c0-2.34,1.38-3.44,2.641-3.44a2.514,2.514,0,0,1,.94.16V844.3a3.564,3.564,0,0,0-.78-0.08,2.976,2.976,0,0,0-2.8,2.041V844.32h-1.72v10Zm17.122-5a5.231,5.231,0,1,0-5.221,5.2A5.133,5.133,0,0,0,348.33,849.321Zm-8.7,0a3.473,3.473,0,1,1,3.481,3.6A3.437,3.437,0,0,1,339.628,849.321Zm11.66,5h1.72v-4.962c0-2.26,1.141-3.66,2.761-3.66,1.3,0,1.96,1.12,1.96,2.74v5.882h1.721v-4.962c0-2.26,1.12-3.66,2.74-3.66,1.3,0,1.981,1.12,1.981,2.74v5.882h1.72v-6.142c0-2.44-1.32-4.061-3.5-4.061a3.462,3.462,0,0,0-3.281,2.141,3.146,3.146,0,0,0-3.081-2.141,3.364,3.364,0,0,0-3.021,1.741V844.32h-1.72v10Zm28.662-.141v-1.54a3.813,3.813,0,0,1-1.221.2,1.44,1.44,0,0,1-1.66-1.7V845.9h2.881V844.32h-2.881v-2.78h-1.721v2.78h-2.12V845.9h2.12v5.461a2.816,2.816,0,0,0,3.061,3.061A4.767,4.767,0,0,0,379.95,854.182Zm2.7,0.141h1.721v-4.962c0-2.34,1.28-3.66,2.9-3.66,1.4,0,2.361,1.04,2.361,2.72v5.9h1.7v-6.162c0-2.48-1.54-4.041-3.78-4.041a3.536,3.536,0,0,0-3.181,1.741v-6.542h-1.721v15Zm11.5-5a5.274,5.274,0,0,0,9.683,2.821l-1.361-.94a3.541,3.541,0,0,1-6.581-1.54h8.2a4.907,4.907,0,0,0,.02-0.521c-0.02-3.2-2.141-5.021-4.761-5.021A5.069,5.069,0,0,0,394.148,849.321Zm5.142-3.68a2.992,2.992,0,0,1,3.06,2.62h-6.341A3.269,3.269,0,0,1,399.29,845.641Zm21.261,8.682h1.52l3.4-10h-1.821l-2.42,7.3-2.5-7.3h-1.32l-2.5,7.3-2.42-7.3h-1.8l3.4,10h1.521l2.48-7.2Zm16.9-5a5.231,5.231,0,1,0-5.221,5.2A5.133,5.133,0,0,0,437.451,849.321Zm-8.7,0a3.473,3.473,0,1,1,3.481,3.6A3.437,3.437,0,0,1,428.749,849.321Zm11.66,5h1.72v-4.962c0-2.34,1.381-3.44,2.641-3.44a2.514,2.514,0,0,1,.94.16V844.3a3.564,3.564,0,0,0-.78-0.08,2.977,2.977,0,0,0-2.8,2.041V844.32h-1.72v10Zm7.82,0h1.72v-15h-1.72v15Zm4.7-5a5.005,5.005,0,0,0,4.9,5.2,4.388,4.388,0,0,0,3.521-1.741v1.541h1.72v-15h-1.72v6.542a4.388,4.388,0,0,0-3.521-1.741A5.005,5.005,0,0,0,452.929,849.321Zm8.562,0a3.417,3.417,0,1,1-3.4-3.62A3.415,3.415,0,0,1,461.491,849.321Zm5,0.261h5.1v-1.721h-5.1v1.721Zm8.54,4.741h1.72v-4.962c0-2.34,1.381-3.44,2.641-3.44a2.514,2.514,0,0,1,.94.16V844.3a3.564,3.564,0,0,0-.78-0.08,2.978,2.978,0,0,0-2.8,2.041V844.32h-1.72v10Zm6.68-5a5.273,5.273,0,0,0,9.683,2.821l-1.361-.94a3.541,3.541,0,0,1-6.581-1.54h8.2a4.907,4.907,0,0,0,.02-0.521c-0.02-3.2-2.141-5.021-4.762-5.021A5.069,5.069,0,0,0,481.709,849.321Zm5.141-3.68a2.992,2.992,0,0,1,3.061,2.62H483.57A3.269,3.269,0,0,1,486.85,845.641Zm7.76,8.682h1.72v-4.962c0-2.34,1.28-3.66,2.9-3.66,1.4,0,2.36,1.04,2.36,2.72v5.9h1.7v-6.162c0-2.48-1.541-4.041-3.781-4.041a3.536,3.536,0,0,0-3.181,1.741V844.32h-1.72v10Zm21.942-5a5.232,5.232,0,1,0-5.221,5.2A5.133,5.133,0,0,0,516.552,849.321Zm-8.7,0a3.473,3.473,0,1,1,3.481,3.6A3.437,3.437,0,0,1,507.85,849.321Zm20.1,5h1.52l3.4-10h-1.82l-2.421,7.3-2.5-7.3h-1.32l-2.5,7.3-2.42-7.3h-1.8l3.4,10h1.521l2.48-7.2Zm7.278,0h1.72v-4.962c0-2.34,1.281-3.66,2.9-3.66,1.4,0,2.361,1.04,2.361,2.72v5.9h1.7v-6.162c0-2.48-1.54-4.041-3.781-4.041a3.537,3.537,0,0,0-3.181,1.741V844.32h-1.72v10Zm11.5-5a5.273,5.273,0,0,0,9.682,2.821l-1.36-.94a3.542,3.542,0,0,1-6.582-1.54h8.2a4.907,4.907,0,0,0,.02-0.521c-0.02-3.2-2.14-5.021-4.761-5.021A5.068,5.068,0,0,0,546.73,849.321Zm5.141-3.68a2.993,2.993,0,0,1,3.061,2.62H548.59A3.27,3.27,0,0,1,551.871,845.641Zm6.979,3.68a5.006,5.006,0,0,0,4.9,5.2,4.387,4.387,0,0,0,3.521-1.741v1.541h1.72v-15h-1.72v6.542a4.387,4.387,0,0,0-3.521-1.741A5.006,5.006,0,0,0,558.85,849.321Zm8.562,0a3.417,3.417,0,1,1-3.4-3.62A3.415,3.415,0,0,1,567.412,849.321ZM45.926,880.162l5.121-6.882v11.043h1.84v-14.2h-1.68L45.926,877.2l-5.281-7.081h-1.7v14.2H40.8V873.28Zm10.019-.841a5.006,5.006,0,0,0,4.9,5.2,4.387,4.387,0,0,0,3.521-1.741v1.541h1.72v-10h-1.72v1.541a4.387,4.387,0,0,0-3.521-1.741A5.005,5.005,0,0,0,55.944,879.321Zm8.562,0a3.417,3.417,0,1,1-3.4-3.62A3.415,3.415,0,0,1,64.507,879.321Zm5.318,5h1.72v-4.962c0-2.34,1.38-3.44,2.641-3.44a2.515,2.515,0,0,1,.94.16V874.3a3.565,3.565,0,0,0-.78-0.08,2.977,2.977,0,0,0-2.8,2.041V874.32h-1.72v10Zm9.9-13.9a1.208,1.208,0,0,0-1.2-1.221,1.243,1.243,0,0,0-1.24,1.221,1.229,1.229,0,0,0,1.24,1.22A1.2,1.2,0,0,0,79.725,870.42Zm-2.08,13.9h1.72v-10h-1.72v10Zm15.142-5a5.231,5.231,0,1,0-5.221,5.2A5.133,5.133,0,0,0,92.787,879.321Zm-8.7,0a3.473,3.473,0,1,1,3.481,3.6A3.437,3.437,0,0,1,84.085,879.321Zm17.3,5h5.081c2.881,0,4.761-1.781,4.761-4.141a3.384,3.384,0,0,0-2.46-3.4,3.219,3.219,0,0,0,1.52-2.9c0-2-1.6-3.76-4.241-3.76h-4.661v14.2Zm1.86-8.1V871.8h2.8a2.233,2.233,0,0,1,2.421,2.22,2.187,2.187,0,0,1-2.421,2.2h-2.8Zm0,6.421v-4.821h3.321c1.881,0,2.841,1.04,2.841,2.421,0,1.4-.96,2.4-2.861,2.4h-3.3Zm10.18-3.321a5.273,5.273,0,0,0,9.682,2.821l-1.36-.94a3.542,3.542,0,0,1-6.582-1.54h8.2a4.907,4.907,0,0,0,.02-0.521c-0.02-3.2-2.14-5.021-4.761-5.021A5.068,5.068,0,0,0,113.425,879.321Zm5.141-3.68a2.992,2.992,0,0,1,3.061,2.62h-6.342A3.27,3.27,0,0,1,118.566,875.641Zm7.759,8.682h1.721v-15h-1.721v15Zm5.48,0h1.721v-15h-1.721v15Zm5.34-3.861c0,2.48,1.481,4.061,3.681,4.061a3.443,3.443,0,0,0,3.081-1.741v1.541h1.72v-10h-1.72v4.961c0,2.3-1.22,3.661-2.781,3.661-1.38,0-2.26-1.06-2.26-2.74V874.32h-1.721v6.142Zm21.3,1.38-1.5-.84a3.39,3.39,0,0,1-3.12,1.92,3.6,3.6,0,0,1,0-7.2,3.39,3.39,0,0,1,3.12,1.92l1.5-.84a5.182,5.182,0,0,0-4.621-2.681,5.2,5.2,0,1,0,0,10.4A5.182,5.182,0,0,0,158.448,881.842Zm11.8,0-1.5-.84a3.39,3.39,0,0,1-3.12,1.92,3.6,3.6,0,0,1,0-7.2,3.39,3.39,0,0,1,3.12,1.92l1.5-.84a5.182,5.182,0,0,0-4.621-2.681,5.2,5.2,0,1,0,0,10.4A5.182,5.182,0,0,0,170.248,881.842Zm4.8-11.422a1.208,1.208,0,0,0-1.2-1.221,1.243,1.243,0,0,0-1.241,1.221,1.23,1.23,0,0,0,1.241,1.22A1.2,1.2,0,0,0,175.046,870.42Zm-2.08,13.9h1.72v-10h-1.72v10Zm10.859,0h1.721v-4.962c0-2.26,1.14-3.66,2.761-3.66,1.3,0,1.96,1.12,1.96,2.74v5.882h1.72v-4.962c0-2.26,1.121-3.66,2.741-3.66,1.3,0,1.981,1.12,1.981,2.74v5.882h1.72v-6.142c0-2.44-1.32-4.061-3.5-4.061a3.463,3.463,0,0,0-3.281,2.141,3.144,3.144,0,0,0-3.08-2.141,3.363,3.363,0,0,0-3.021,1.741V874.32h-1.721v10Zm20.281-13.9a1.208,1.208,0,0,0-1.2-1.221,1.242,1.242,0,0,0-1.24,1.221,1.229,1.229,0,0,0,1.24,1.22A1.2,1.2,0,0,0,204.106,870.42Zm-2.08,13.9h1.72v-10h-1.72v10Zm5.48,0h1.72v-15h-1.72v15Zm5.48,0h1.72v-15h-1.72v15Zm7.62-.441a1.71,1.71,0,0,0,.28-0.9,1.48,1.48,0,1,0-2.96,0,1.491,1.491,0,0,0,.82,1.341l-1.34,2.86h1.14Zm17.942-2.04-1.5-.84a3.392,3.392,0,0,1-3.121,1.92,3.6,3.6,0,0,1,0-7.2,3.392,3.392,0,0,1,3.121,1.92l1.5-.84a5.181,5.181,0,0,0-4.621-2.681,5.2,5.2,0,1,0,0,10.4A5.181,5.181,0,0,0,238.548,881.842Zm2.718,2.481h1.72v-4.962c0-2.34,1.381-3.44,2.641-3.44a2.514,2.514,0,0,1,.94.16V874.3a3.564,3.564,0,0,0-.78-0.08,2.977,2.977,0,0,0-2.8,2.041V874.32h-1.72v10Zm6.68-5a5.273,5.273,0,0,0,9.682,2.821l-1.36-.94a3.542,3.542,0,0,1-6.582-1.54h8.2a4.907,4.907,0,0,0,.02-0.521c-0.02-3.2-2.14-5.021-4.761-5.021A5.068,5.068,0,0,0,247.946,879.321Zm5.141-3.68a2.992,2.992,0,0,1,3.061,2.62h-6.342A3.27,3.27,0,0,1,253.087,875.641Zm6.979,3.68a5.006,5.006,0,0,0,4.9,5.2,4.387,4.387,0,0,0,3.521-1.741v1.541h1.721v-10h-1.721v1.541a4.387,4.387,0,0,0-3.521-1.741A5.006,5.006,0,0,0,260.066,879.321Zm8.562,0a3.417,3.417,0,1,1-3.4-3.62A3.415,3.415,0,0,1,268.628,879.321Zm10.74,4.862v-1.541a3.8,3.8,0,0,1-1.221.2,1.44,1.44,0,0,1-1.66-1.7V875.9h2.881V874.32h-2.881v-2.78h-1.72v2.78h-2.121V875.9h2.121v5.461a2.816,2.816,0,0,0,3.06,3.061A4.787,4.787,0,0,0,279.368,884.183Zm4.779-13.763a1.208,1.208,0,0,0-1.2-1.221,1.243,1.243,0,0,0-1.241,1.221,1.23,1.23,0,0,0,1.241,1.22A1.2,1.2,0,0,0,284.147,870.42Zm-2.08,13.9h1.72v-10h-1.72v10Zm5.48,0h1.72v-4.962c0-2.34,1.28-3.66,2.9-3.66,1.4,0,2.36,1.04,2.36,2.72v5.9h1.7v-6.162c0-2.48-1.541-4.041-3.781-4.041a3.536,3.536,0,0,0-3.181,1.741V874.32h-1.72v10Zm21.6-.581V874.32h-1.721v1.541a4.256,4.256,0,0,0-3.48-1.741,5.1,5.1,0,0,0,0,10.183,4.271,4.271,0,0,0,3.48-1.761v1.14a3.2,3.2,0,0,1-3.34,3.461,4.279,4.279,0,0,1-3.5-1.68l-1.2,1.2a5.937,5.937,0,0,0,4.721,2.04C306.948,888.7,309.149,887.083,309.149,883.742Zm-8.342-4.541a3.383,3.383,0,1,1,3.381,3.5A3.332,3.332,0,0,1,300.807,879.2Zm17.46,5.122h1.72v-4.962c0-2.34,1.28-3.66,2.9-3.66,1.4,0,2.36,1.04,2.36,2.72v5.9h1.7v-6.162c0-2.48-1.541-4.041-3.781-4.041a3.537,3.537,0,0,0-3.181,1.741V874.32h-1.72v10Zm11.5-5a5.005,5.005,0,0,0,4.9,5.2,4.39,4.39,0,0,0,3.521-1.741v1.541h1.72v-10h-1.72v1.541a4.39,4.39,0,0,0-3.521-1.741A5.005,5.005,0,0,0,329.767,879.321Zm8.562,0a3.417,3.417,0,1,1-3.4-3.62A3.415,3.415,0,0,1,338.329,879.321Zm10.739,4.862v-1.541a3.8,3.8,0,0,1-1.22.2,1.44,1.44,0,0,1-1.66-1.7V875.9h2.88V874.32h-2.88v-2.78h-1.721v2.78h-2.12V875.9h2.12v5.461a2.816,2.816,0,0,0,3.061,3.061A4.786,4.786,0,0,0,349.068,884.183Zm2.559-3.721c0,2.48,1.48,4.061,3.681,4.061a3.443,3.443,0,0,0,3.081-1.741v1.541h1.72v-10h-1.72v4.961c0,2.3-1.221,3.661-2.781,3.661-1.38,0-2.261-1.06-2.261-2.74V874.32h-1.72v6.142Zm12.22,3.861h1.721v-4.962c0-2.34,1.38-3.44,2.64-3.44a2.523,2.523,0,0,1,.941.16V874.3a3.579,3.579,0,0,0-.781-0.08,2.976,2.976,0,0,0-2.8,2.041V874.32h-1.721v10Zm6.7-5a5.006,5.006,0,0,0,4.9,5.2,4.387,4.387,0,0,0,3.521-1.741v1.541h1.721v-10h-1.721v1.541a4.387,4.387,0,0,0-3.521-1.741A5.006,5.006,0,0,0,370.547,879.321Zm8.562,0a3.417,3.417,0,1,1-3.4-3.62A3.415,3.415,0,0,1,379.109,879.321Zm5.319,5h1.72v-15h-1.72v15Zm5.159-4.741h5.1v-1.721h-5.1v1.721Zm15.022,1.96c0-1.5-.94-2.461-2.641-3.021l-1.08-.36c-1.18-.38-1.54-0.76-1.54-1.4,0-.74.74-1.16,1.68-1.16a2.7,2.7,0,0,1,2.121,1.04l1.12-1.08a3.877,3.877,0,0,0-3.2-1.441c-1.98,0-3.381,1.1-3.381,2.721,0,1.4.861,2.38,2.481,2.9l0.98,0.32c1.3,0.42,1.781.9,1.781,1.6a1.523,1.523,0,0,1-1.761,1.36,2.684,2.684,0,0,1-2.56-1.58l-1.4.76a3.974,3.974,0,0,0,3.921,2.321C403.149,884.523,404.609,883.5,404.609,881.542Zm8.26,2.641v-1.541a3.8,3.8,0,0,1-1.22.2,1.44,1.44,0,0,1-1.661-1.7V875.9h2.881V874.32h-2.881v-2.78h-1.72v2.78h-2.121V875.9h2.121v5.461a2.816,2.816,0,0,0,3.061,3.061A4.786,4.786,0,0,0,412.869,884.183Zm2.7,0.14h1.72v-4.962c0-2.34,1.381-3.44,2.641-3.44a2.514,2.514,0,0,1,.94.16V874.3a3.564,3.564,0,0,0-.78-0.08,2.977,2.977,0,0,0-2.8,2.041V874.32h-1.72v10Zm6.68-5a5.273,5.273,0,0,0,9.682,2.821l-1.36-.94a3.542,3.542,0,0,1-6.582-1.54h8.2a4.907,4.907,0,0,0,.02-0.521c-0.02-3.2-2.14-5.021-4.761-5.021A5.068,5.068,0,0,0,422.248,879.321Zm5.141-3.68a2.992,2.992,0,0,1,3.061,2.62h-6.342A3.27,3.27,0,0,1,427.389,875.641Zm13.041,8.542v-1.541a3.8,3.8,0,0,1-1.22.2,1.44,1.44,0,0,1-1.661-1.7V875.9h2.881V874.32h-2.881v-2.78h-1.72v2.78h-2.121V875.9h2.121v5.461a2.816,2.816,0,0,0,3.06,3.061A4.787,4.787,0,0,0,440.43,884.183Zm11.641-2.341-1.5-.84a3.391,3.391,0,0,1-3.121,1.92,3.6,3.6,0,0,1,0-7.2,3.391,3.391,0,0,1,3.121,1.92l1.5-.84a5.181,5.181,0,0,0-4.621-2.681,5.2,5.2,0,1,0,0,10.4A5.181,5.181,0,0,0,452.071,881.842Zm2.718,2.481h1.72v-4.962c0-2.34,1.281-3.66,2.9-3.66,1.4,0,2.361,1.04,2.361,2.72v5.9h1.7v-6.162c0-2.48-1.54-4.041-3.781-4.041a3.538,3.538,0,0,0-3.181,1.741v-6.542h-1.72v15Zm17.66,4.18h1.72v-5.721a4.39,4.39,0,0,0,3.521,1.741,5.211,5.211,0,0,0,0-10.4,4.39,4.39,0,0,0-3.521,1.741V874.32h-1.72V888.5Zm8.382-9.182a3.408,3.408,0,1,1-3.4-3.62A3.415,3.415,0,0,1,480.831,879.321Zm6.819-8.9a1.208,1.208,0,0,0-1.2-1.221,1.242,1.242,0,0,0-1.24,1.221,1.229,1.229,0,0,0,1.24,1.22A1.2,1.2,0,0,0,487.65,870.42Zm-2.081,13.9h1.721v-10h-1.721v10Zm4.7-5a5.273,5.273,0,0,0,9.682,2.821l-1.36-.94a3.542,3.542,0,0,1-6.582-1.54h8.2a4.907,4.907,0,0,0,.02-0.521c-0.02-3.2-2.14-5.021-4.761-5.021A5.069,5.069,0,0,0,490.269,879.321Zm5.141-3.68a2.992,2.992,0,0,1,3.061,2.62h-6.342A3.271,3.271,0,0,1,495.41,875.641Zm16.842,6.2-1.5-.84a3.39,3.39,0,0,1-3.121,1.92,3.6,3.6,0,0,1,0-7.2,3.39,3.39,0,0,1,3.121,1.92l1.5-.84a5.183,5.183,0,0,0-4.622-2.681,5.2,5.2,0,1,0,0,10.4A5.183,5.183,0,0,0,512.252,881.842Zm1.937-2.521a5.273,5.273,0,0,0,9.683,2.821l-1.361-.94a3.541,3.541,0,0,1-6.581-1.54h8.2a4.907,4.907,0,0,0,.02-0.521c-0.02-3.2-2.141-5.021-4.761-5.021A5.069,5.069,0,0,0,514.189,879.321Zm5.141-3.68a2.992,2.992,0,0,1,3.061,2.62H516.05A3.269,3.269,0,0,1,519.33,875.641Zm14.241,5.9c0-1.5-.94-2.461-2.641-3.021l-1.08-.36c-1.18-.38-1.54-0.76-1.54-1.4,0-.74.74-1.16,1.68-1.16a2.7,2.7,0,0,1,2.121,1.04l1.12-1.08a3.877,3.877,0,0,0-3.2-1.441c-1.98,0-3.381,1.1-3.381,2.721,0,1.4.861,2.38,2.481,2.9l0.98,0.32c1.3,0.42,1.781.9,1.781,1.6a1.523,1.523,0,0,1-1.761,1.36,2.684,2.684,0,0,1-2.56-1.58l-1.4.76a3.975,3.975,0,0,0,3.921,2.321C532.111,884.523,533.571,883.5,533.571,881.542Zm13.42,2.641v-1.541a3.8,3.8,0,0,1-1.22.2,1.44,1.44,0,0,1-1.661-1.7V875.9h2.881V874.32H544.11v-2.78h-1.72v2.78h-2.121V875.9h2.121v5.461a2.816,2.816,0,0,0,3.061,3.061A4.786,4.786,0,0,0,546.991,884.183Zm2.7,0.14h1.72v-4.962c0-2.34,1.281-3.66,2.9-3.66,1.4,0,2.36,1.04,2.36,2.72v5.9h1.7v-6.162c0-2.48-1.541-4.041-3.781-4.041a3.537,3.537,0,0,0-3.181,1.741v-6.542h-1.72v15Zm11.5-5a5.005,5.005,0,0,0,4.9,5.2,4.388,4.388,0,0,0,3.521-1.741v1.541h1.72v-10h-1.72v1.541a4.388,4.388,0,0,0-3.521-1.741A5.005,5.005,0,0,0,561.19,879.321Zm8.562,0a3.417,3.417,0,1,1-3.4-3.62A3.415,3.415,0,0,1,569.752,879.321Zm10.739,4.862v-1.541a3.8,3.8,0,0,1-1.22.2,1.44,1.44,0,0,1-1.66-1.7V875.9h2.88V874.32h-2.88v-2.78H575.89v2.78h-2.12V875.9h2.12v5.461a2.816,2.816,0,0,0,3.061,3.061A4.786,4.786,0,0,0,580.491,884.183ZM38.684,918.5H40.4v-5.721a4.387,4.387,0,0,0,3.521,1.741,5.211,5.211,0,0,0,0-10.4,4.387,4.387,0,0,0-3.521,1.741V904.32h-1.72V918.5Zm8.382-9.182a3.407,3.407,0,1,1-3.4-3.62A3.415,3.415,0,0,1,47.066,909.321Zm4.6,1.141c0,2.48,1.48,4.061,3.681,4.061a3.442,3.442,0,0,0,3.081-1.741v1.541h1.72v-10h-1.72v4.961c0,2.3-1.22,3.661-2.781,3.661-1.38,0-2.261-1.06-2.261-2.74V904.32h-1.72v6.142Zm18.7,1.08c0-1.5-.94-2.461-2.641-3.021l-1.08-.36c-1.18-.38-1.54-0.76-1.54-1.4,0-.74.74-1.16,1.68-1.16a2.7,2.7,0,0,1,2.12,1.04l1.12-1.08a3.878,3.878,0,0,0-3.2-1.441c-1.98,0-3.381,1.1-3.381,2.721,0,1.4.86,2.38,2.481,2.9l0.98,0.32c1.3,0.42,1.781.9,1.781,1.6a1.523,1.523,0,0,1-1.761,1.36,2.685,2.685,0,0,1-2.561-1.58l-1.4.76a3.974,3.974,0,0,0,3.921,2.321C68.906,914.523,70.366,913.5,70.366,911.542Zm2.959,2.781h1.72v-4.962c0-2.34,1.28-3.66,2.9-3.66,1.4,0,2.36,1.04,2.36,2.72v5.9h1.7v-6.162c0-2.48-1.54-4.041-3.781-4.041a3.536,3.536,0,0,0-3.181,1.741v-6.542h-1.72v15Zm22.741-.14v-1.541a3.8,3.8,0,0,1-1.22.2,1.44,1.44,0,0,1-1.66-1.7V905.9h2.881V904.32H93.185v-2.78h-1.72v2.78H89.344V905.9h2.121v5.461a2.816,2.816,0,0,0,3.061,3.061A4.788,4.788,0,0,0,96.066,914.183Zm2.7,0.14h1.72v-4.962c0-2.34,1.281-3.66,2.9-3.66,1.4,0,2.36,1.04,2.36,2.72v5.9h1.7v-6.162c0-2.48-1.54-4.041-3.781-4.041a3.537,3.537,0,0,0-3.181,1.741v-6.542h-1.72v15Zm11.5-5a5.273,5.273,0,0,0,9.682,2.821l-1.36-.94a3.542,3.542,0,0,1-6.582-1.54h8.2a4.907,4.907,0,0,0,.02-0.521c-0.02-3.2-2.14-5.021-4.761-5.021A5.068,5.068,0,0,0,110.265,909.321Zm5.141-3.68a2.993,2.993,0,0,1,3.061,2.62h-6.342A3.27,3.27,0,0,1,115.406,905.641Zm14.859,7.141a4.39,4.39,0,0,0,3.521,1.741,5.211,5.211,0,0,0,0-10.4,4.39,4.39,0,0,0-3.521,1.741v-6.542h-1.72v15h1.72v-1.541Zm6.662-3.461a3.408,3.408,0,1,1-3.4-3.62A3.415,3.415,0,0,1,136.927,909.321Zm14.38,0a5.231,5.231,0,1,0-5.221,5.2A5.133,5.133,0,0,0,151.307,909.321Zm-8.7,0a3.473,3.473,0,1,1,3.481,3.6A3.438,3.438,0,0,1,142.6,909.321Zm11.52,1.141c0,2.48,1.481,4.061,3.681,4.061a3.443,3.443,0,0,0,3.081-1.741v1.541h1.72v-10h-1.72v4.961c0,2.3-1.221,3.661-2.781,3.661-1.38,0-2.26-1.06-2.26-2.74V904.32h-1.721v6.142Zm12.22,3.861h1.721v-4.962c0-2.34,1.28-3.66,2.9-3.66,1.4,0,2.361,1.04,2.361,2.72v5.9h1.7v-6.162c0-2.48-1.54-4.041-3.78-4.041a3.536,3.536,0,0,0-3.181,1.741V904.32h-1.721v10Zm11.5-5a5.006,5.006,0,0,0,4.9,5.2,4.387,4.387,0,0,0,3.521-1.741v1.541h1.721v-15h-1.721v6.542a4.387,4.387,0,0,0-3.521-1.741A5.006,5.006,0,0,0,177.845,909.321Zm8.562,0a3.417,3.417,0,1,1-3.4-3.62A3.415,3.415,0,0,1,186.407,909.321Zm4.538,0a5.006,5.006,0,0,0,4.9,5.2,4.386,4.386,0,0,0,3.52-1.741v1.541h1.721v-10h-1.721v1.541a4.386,4.386,0,0,0-3.52-1.741A5.006,5.006,0,0,0,190.945,909.321Zm8.562,0a3.417,3.417,0,1,1-3.4-3.62A3.415,3.415,0,0,1,199.507,909.321Zm5.319,5h1.72v-4.962c0-2.34,1.38-3.44,2.641-3.44a2.514,2.514,0,0,1,.94.16V904.3a3.564,3.564,0,0,0-.78-0.08,2.977,2.977,0,0,0-2.8,2.041V904.32h-1.72v10Zm9.9-13.9a1.208,1.208,0,0,0-1.2-1.221,1.242,1.242,0,0,0-1.24,1.221,1.229,1.229,0,0,0,1.24,1.22A1.2,1.2,0,0,0,214.726,900.42Zm-2.08,13.9h1.72v-10h-1.72v10Zm4.7-5a5.273,5.273,0,0,0,9.682,2.821l-1.36-.94a3.542,3.542,0,0,1-6.582-1.54h8.2a4.907,4.907,0,0,0,.02-0.521c-0.02-3.2-2.14-5.021-4.761-5.021A5.068,5.068,0,0,0,217.346,909.321Zm5.141-3.68a2.993,2.993,0,0,1,3.061,2.62h-6.342A3.27,3.27,0,0,1,222.487,905.641Zm14.241,5.9c0-1.5-.941-2.461-2.641-3.021l-1.08-.36c-1.181-.38-1.541-0.76-1.541-1.4,0-.74.741-1.16,1.681-1.16a2.7,2.7,0,0,1,2.12,1.04l1.121-1.08a3.879,3.879,0,0,0-3.2-1.441c-1.981,0-3.381,1.1-3.381,2.721,0,1.4.86,2.38,2.481,2.9l0.98,0.32c1.3,0.42,1.78.9,1.78,1.6a1.522,1.522,0,0,1-1.76,1.36,2.685,2.685,0,0,1-2.561-1.58l-1.4.76a3.973,3.973,0,0,0,3.921,2.321C235.267,914.523,236.728,913.5,236.728,911.542Zm18-2.221a5.231,5.231,0,1,0-5.221,5.2A5.133,5.133,0,0,0,254.728,909.321Zm-8.7,0a3.473,3.473,0,1,1,3.481,3.6A3.438,3.438,0,0,1,246.026,909.321Zm12.34,5h1.721V905.9h2.9V904.32h-2.9v-1.84a1.44,1.44,0,0,1,1.66-1.7,4.027,4.027,0,0,1,1.24.2v-1.521a4.545,4.545,0,0,0-1.56-.26,2.857,2.857,0,0,0-3.061,3.1v2.02h-2.12V905.9h2.12v8.422Zm18.342-2.781c0-1.5-.94-2.461-2.641-3.021l-1.08-.36c-1.18-.38-1.54-0.76-1.54-1.4,0-.74.74-1.16,1.68-1.16a2.705,2.705,0,0,1,2.121,1.04l1.12-1.08a3.878,3.878,0,0,0-3.2-1.441c-1.98,0-3.381,1.1-3.381,2.721,0,1.4.86,2.38,2.481,2.9l0.98,0.32c1.3,0.42,1.78.9,1.78,1.6a1.522,1.522,0,0,1-1.76,1.36,2.686,2.686,0,0,1-2.561-1.58l-1.4.76a3.974,3.974,0,0,0,3.921,2.321C275.248,914.523,276.708,913.5,276.708,911.542Zm8.26,2.641v-1.541a3.8,3.8,0,0,1-1.221.2,1.44,1.44,0,0,1-1.66-1.7V905.9h2.881V904.32h-2.881v-2.78h-1.72v2.78h-2.121V905.9h2.121v5.461a2.816,2.816,0,0,0,3.06,3.061A4.787,4.787,0,0,0,284.968,914.183Zm5.359,4.32,6.562-14.183h-1.921l-3.42,7.582-3.441-7.582h-1.9l4.381,9.482-2.18,4.7h1.92Zm8.78-4.18h1.72v-15h-1.72v15Zm4.7-5a5.273,5.273,0,0,0,9.682,2.821l-1.36-.94a3.542,3.542,0,0,1-6.582-1.54h8.2a4.907,4.907,0,0,0,.02-0.521c-0.02-3.2-2.141-5.021-4.761-5.021A5.068,5.068,0,0,0,303.807,909.321Zm5.141-3.68a2.993,2.993,0,0,1,3.061,2.62h-6.342A3.269,3.269,0,0,1,308.948,905.641Zm12.359,3.68a5.005,5.005,0,0,0,4.9,5.2,4.388,4.388,0,0,0,3.521-1.741v1.541h1.72v-10h-1.72v1.541a4.388,4.388,0,0,0-3.521-1.741A5.005,5.005,0,0,0,321.307,909.321Zm8.562,0a3.417,3.417,0,1,1-3.4-3.62A3.415,3.415,0,0,1,329.869,909.321Zm5.318,5h1.72v-4.962c0-2.34,1.281-3.66,2.9-3.66,1.4,0,2.361,1.04,2.361,2.72v5.9h1.7v-6.162c0-2.48-1.54-4.041-3.781-4.041a3.538,3.538,0,0,0-3.181,1.741V904.32h-1.72v10Zm11.5-5a5.005,5.005,0,0,0,4.9,5.2,4.388,4.388,0,0,0,3.521-1.741v1.541h1.72v-15h-1.72v6.542a4.388,4.388,0,0,0-3.521-1.741A5.005,5.005,0,0,0,346.687,909.321Zm8.562,0a3.417,3.417,0,1,1-3.4-3.62A3.415,3.415,0,0,1,355.249,909.321Zm19.78,2.521-1.5-.84a3.39,3.39,0,0,1-3.121,1.92,3.6,3.6,0,0,1,0-7.2,3.39,3.39,0,0,1,3.121,1.92l1.5-.84a5.18,5.18,0,0,0-4.621-2.681,5.2,5.2,0,1,0,0,10.4A5.18,5.18,0,0,0,375.029,911.842Zm12.38-2.521a5.231,5.231,0,1,0-5.221,5.2A5.133,5.133,0,0,0,387.409,909.321Zm-8.7,0a3.473,3.473,0,1,1,3.481,3.6A3.438,3.438,0,0,1,378.707,909.321Zm11.66,5h1.721v-4.962c0-2.26,1.14-3.66,2.76-3.66,1.3,0,1.961,1.12,1.961,2.74v5.882h1.72v-4.962c0-2.26,1.12-3.66,2.741-3.66,1.3,0,1.98,1.12,1.98,2.74v5.882h1.721v-6.142c0-2.44-1.321-4.061-3.5-4.061a3.462,3.462,0,0,0-3.281,2.141,3.145,3.145,0,0,0-3.081-2.141,3.362,3.362,0,0,0-3.02,1.741V904.32h-1.721v10Zm18.921,0h1.72V905.9h2.9V904.32h-2.9v-1.84a1.44,1.44,0,0,1,1.661-1.7,4.027,4.027,0,0,1,1.24.2v-1.521a4.545,4.545,0,0,0-1.56-.26,2.857,2.857,0,0,0-3.061,3.1v2.02h-2.121V905.9h2.121v8.422Zm16.4-5a5.231,5.231,0,1,0-5.221,5.2A5.133,5.133,0,0,0,425.69,909.321Zm-8.7,0a3.473,3.473,0,1,1,3.481,3.6A3.438,3.438,0,0,1,416.988,909.321Zm11.66,5h1.72v-4.962c0-2.34,1.381-3.44,2.641-3.44a2.514,2.514,0,0,1,.94.16V904.3a3.564,3.564,0,0,0-.78-0.08,2.978,2.978,0,0,0-2.8,2.041V904.32h-1.72v10Zm13.241-.14v-1.541a3.8,3.8,0,0,1-1.22.2,1.44,1.44,0,0,1-1.66-1.7V905.9h2.88V904.32h-2.88v-2.78h-1.721v2.78h-2.12V905.9h2.12v5.461a2.816,2.816,0,0,0,3.061,3.061A4.786,4.786,0,0,0,441.889,914.183Zm5.08-1.2a1.481,1.481,0,1,0-1.48,1.5A1.507,1.507,0,0,0,446.969,912.982Z"/>
  <path id="Stretch_Your_Limits_copy" data-name="Stretch Your Limits    copy" class="cls-1" d="M48.461,740.547c5.935,0,10.01-3.561,10.049-8.665,0.04-4.233-2.611-6.923-6.686-8.387l-1.978-.712c-2.967-1.068-4.352-1.741-4.352-3.244,0-1.464,1.7-2.137,3.4-2.137a6.248,6.248,0,0,1,4.866,2.335l4.115-4.352a11.722,11.722,0,0,0-9.06-3.878c-5.618,0-9.693,3.205-9.693,8.665,0,3.837,2.532,6.567,7.082,8.11l1.978,0.673c2.809,0.949,3.917,1.938,3.917,3.363,0,1.345-1.306,2.334-3.4,2.334a7.349,7.349,0,0,1-5.816-3.205l-4.827,4.075A12.318,12.318,0,0,0,48.461,740.547Zm21.466-.475h6.33V718H83.5v-6.014H62.766V718h7.161v22.076Zm19.8,0h6.291V728.48h1.029l9.337,11.592h7.557l-9.931-12.383c3.561-1.266,5.5-3.6,5.5-7.24a8.293,8.293,0,0,0-8.7-8.467H89.731v28.09Zm6.291-16.933v-5.381h4.036c1.859,0,3.2.989,3.2,2.691,0,1.622-1.345,2.69-3.2,2.69H96.022Zm22.3,16.933h17.8v-6.014H124.613v-5.024h9.139V723.02h-9.139V718h11.513v-6.014h-17.8v28.09Zm30.052,0h6.33V718h7.24v-6.014H141.213V718h7.161v22.076Zm31.673,0.475a14.521,14.521,0,0,0,13.135-7.676l-5.539-3.006a8.428,8.428,0,1,1,0-7.676l5.539-3.006A14.644,14.644,0,1,0,180.047,740.547Zm19.217-.475h6.291V728.955H216.87v11.117h6.291v-28.09H216.87v11H205.555v-11h-6.291v28.09Zm49.968,0h6.331v-11.79l10.247-16.3h-7.32l-6.132,10.128-6.053-10.128h-7.32l10.247,16.261v11.829Zm32.784,0.475a14.52,14.52,0,1,0-14.52-14.52A14.555,14.555,0,0,0,282.016,740.547Zm0-6.093a8.432,8.432,0,1,1,8.15-8.427A8.335,8.335,0,0,1,282.016,734.454Zm32.513,6.093c6.726,0,11.552-4.59,11.552-11.592V711.982h-6.29v17.052c0,3.363-2.137,5.42-5.262,5.42s-5.262-2.057-5.262-5.42V711.982h-6.291v16.973C302.976,735.957,307.763,740.547,314.529,740.547Zm19.572-.475h6.291V728.48h1.028l9.337,11.592h7.557l-9.931-12.383c3.561-1.266,5.5-3.6,5.5-7.24a8.294,8.294,0,0,0-8.7-8.467H334.1v28.09Zm6.291-16.933v-5.381h4.035c1.86,0,3.2.989,3.2,2.691,0,1.622-1.345,2.69-3.2,2.69h-4.035Zm32.6,16.933H390.91v-6.014H379.278V711.982h-6.291v28.09Zm24.235,0h6.291v-28.09h-6.291v28.09Zm29.132-5.974,8.19-11.355v17.329h6.33v-28.09h-5.737l-8.783,12.106-8.783-12.106h-5.737v28.09h6.291V722.743Zm22.862,5.974h6.29v-28.09h-6.29v28.09Zm19.676,0h6.33V718h7.24v-6.014H461.731V718h7.161v22.076Zm27.8,0.475c5.935,0,10.01-3.561,10.049-8.665,0.04-4.233-2.611-6.923-6.686-8.387l-1.978-.712c-2.967-1.068-4.352-1.741-4.352-3.244,0-1.464,1.7-2.137,3.4-2.137a6.249,6.249,0,0,1,4.867,2.335l4.114-4.352a11.721,11.721,0,0,0-9.06-3.878c-5.618,0-9.693,3.205-9.693,8.665,0,3.837,2.532,6.567,7.082,8.11l1.978,0.673c2.809,0.949,3.917,1.938,3.917,3.363,0,1.345-1.306,2.334-3.4,2.334a7.348,7.348,0,0,1-5.816-3.205l-4.827,4.075A12.318,12.318,0,0,0,496.688,740.547Z"/>
</svg>
