<svg xmlns="http://www.w3.org/2000/svg" width="672" height="1098"><defs><style>.cls-1{fill-rule:evenodd}</style></defs><path id="Slim_Brushed_Motion-Stretch_Blazer_copy" data-name="Slim Brushed Motion-Stretch Blazer copy" class="cls-1" d="M94.126 882.386c3 0 5.06-1.8 5.08-4.38.02-2.14-1.32-3.5-3.38-4.24l-1-.36c-1.5-.54-2.2-.88-2.2-1.64 0-.74.86-1.079 1.72-1.079a3.157 3.157 0 0 1 2.46 1.179l2.08-2.2a5.925 5.925 0 0 0-4.58-1.96c-2.84 0-4.9 1.62-4.9 4.379 0 1.94 1.28 3.32 3.58 4.1l1 .34c1.42.48 1.98.98 1.98 1.7 0 .68-.66 1.18-1.72 1.18a3.715 3.715 0 0 1-2.94-1.62l-2.44 2.06a6.226 6.226 0 0 0 5.26 2.541zm8.88-.24h9.06v-3.04h-5.88v-11.159h-3.18v14.2zm12.64 0h3.18v-14.2h-3.18v14.2zm15.12-3.02l4.14-5.74v8.76h3.2v-14.2h-2.9l-4.44 6.119-4.44-6.119h-2.9v14.2h3.18v-8.76zm17.939 3.02h6.24a4.2 4.2 0 0 0 4.32-4.18 3.711 3.711 0 0 0-2.02-3.36 3.342 3.342 0 0 0 1.02-2.44 4.221 4.221 0 0 0-4.22-4.219h-5.34v14.2zm3.18-8.46v-2.839h1.8a1.442 1.442 0 0 1 1.48 1.439 1.423 1.423 0 0 1-1.48 1.4h-1.8zm0 5.54v-2.84h2.78a1.445 1.445 0 0 1 1.5 1.42 1.427 1.427 0 0 1-1.48 1.42h-2.8zm11.12 2.92h3.18v-5.86h.52l4.72 5.86h3.82l-5.02-6.26a3.665 3.665 0 0 0 2.78-3.66 4.192 4.192 0 0 0-4.4-4.279h-5.6v14.2zm3.18-8.56v-2.719h2.04a1.414 1.414 0 0 1 1.62 1.359 1.437 1.437 0 0 1-1.62 1.36h-2.04zm17.08 8.8a5.569 5.569 0 0 0 5.84-5.86v-8.579h-3.18v8.619a2.661 2.661 0 1 1-5.32 0v-8.619h-3.18v8.579a5.558 5.558 0 0 0 5.84 5.86zm14.52 0c3 0 5.06-1.8 5.08-4.38.02-2.14-1.32-3.5-3.38-4.24l-1-.36c-1.5-.54-2.2-.88-2.2-1.64 0-.74.86-1.079 1.72-1.079a3.157 3.157 0 0 1 2.46 1.179l2.08-2.2a5.925 5.925 0 0 0-4.58-1.96c-2.84 0-4.9 1.62-4.9 4.379 0 1.94 1.28 3.32 3.58 4.1l1 .34c1.42.48 1.98.98 1.98 1.7 0 .68-.66 1.18-1.72 1.18a3.715 3.715 0 0 1-2.94-1.62l-2.44 2.06a6.227 6.227 0 0 0 5.26 2.541zm8.88-.24h3.18v-5.62h5.72v5.62h3.179v-14.2h-3.179v5.559h-5.72v-5.559h-3.18v14.2zm16.68 0h9v-3.04h-5.819v-2.54h4.619v-3.04h-4.619v-2.54h5.819v-3.039h-9v14.2zm13.02 0h4.835a7.1 7.1 0 1 0 0-14.2h-4.839v14.2zm3.18-2.92v-8.359h1.655a4.183 4.183 0 0 1 0 8.359h-1.659zm26.059-.1l4.14-5.74v8.76h3.2v-14.2h-2.9l-4.44 6.119-4.44-6.119h-2.9v14.2h3.18v-8.76zm18.48 3.26a7.34 7.34 0 1 0-7.34-7.34 7.358 7.358 0 0 0 7.34 7.34zm0-3.08a4.262 4.262 0 1 1 4.12-4.26 4.213 4.213 0 0 1-4.12 4.26zm13.16 2.84h3.2v-11.16h3.66v-3.039h-10.48v3.039h3.62v11.16zm10.4 0h3.18v-14.2h-3.18v14.2zm14.319.24a7.34 7.34 0 1 0-7.34-7.34 7.358 7.358 0 0 0 7.34 7.34zm0-3.08a4.262 4.262 0 1 1 4.12-4.26 4.213 4.213 0 0 1-4.12 4.26zm23.98 2.84v-14.2h-3.2v8.759l-6.9-8.759H333.1v14.2h3.18v-8.78l6.92 8.78h2.74zm4.26-5.66h5.88v-2.88H350.2v2.88zm14.38 5.9c3 0 5.06-1.8 5.08-4.38.02-2.14-1.32-3.5-3.38-4.24l-1-.36c-1.5-.54-2.2-.88-2.2-1.64 0-.74.86-1.079 1.72-1.079a3.157 3.157 0 0 1 2.46 1.179l2.08-2.2a5.925 5.925 0 0 0-4.58-1.96c-2.84 0-4.9 1.62-4.9 4.379 0 1.94 1.28 3.32 3.58 4.1l1 .34c1.42.48 1.98.98 1.98 1.7 0 .68-.66 1.18-1.72 1.18a3.715 3.715 0 0 1-2.94-1.62l-2.44 2.06a6.227 6.227 0 0 0 5.26 2.541zm11.24-.24h3.2v-11.16h3.659v-3.039H372.2v3.039h3.62v11.16zm10.4 0h3.18v-5.86h.52l4.72 5.86h3.82l-5.02-6.26a3.665 3.665 0 0 0 2.78-3.66 4.192 4.192 0 0 0-4.4-4.279h-5.6v14.2zm3.18-8.56v-2.719h2.04a1.414 1.414 0 0 1 1.62 1.359 1.437 1.437 0 0 1-1.62 1.36H389.4zm11.66 8.56h9v-3.04h-5.82v-2.54h4.62v-3.04h-4.62v-2.54h5.82v-3.039h-9v14.2zm15.58 0h3.2v-11.16h3.66v-3.039h-10.48v3.039h3.62v11.16zm16.4.24a7.34 7.34 0 0 0 6.64-3.88l-2.8-1.52a4.259 4.259 0 1 1 0-3.88l2.8-1.52a7.4 7.4 0 1 0-6.641 10.8zm10.1-.24h3.18v-5.62h5.72v5.62h3.18v-14.2h-3.18v5.559h-5.72v-5.559h-3.18v14.2zm22.68 0h6.24a4.2 4.2 0 0 0 4.32-4.18 3.711 3.711 0 0 0-2.02-3.36 3.342 3.342 0 0 0 1.02-2.44 4.221 4.221 0 0 0-4.22-4.219h-5.34v14.2zm3.18-8.46v-2.839h1.8a1.442 1.442 0 0 1 1.48 1.439 1.423 1.423 0 0 1-1.48 1.4H469zm0 5.54v-2.84h2.78a1.445 1.445 0 0 1 1.5 1.42 1.427 1.427 0 0 1-1.48 1.42H469zm11.12 2.92h9.06v-3.04H483.3v-11.159h-3.18v14.2zm11.119 0h3.32l1.26-3h5.88l1.26 3h3.32l-6.08-14.2h-2.88zm5.74-5.76l1.78-4.28 1.78 4.28h-3.56zm11.66 5.76H519.6v-3.04h-6.66l6.54-8.979v-2.18h-10.74v3.039h6.42l-6.52 8.98v2.18zm14.84 0h9v-3.04h-5.82v-2.54h4.62v-3.04h-4.62v-2.54h5.82v-3.039h-9v14.2zm13.02 0h3.18v-5.86h.52l4.72 5.86h3.82l-5.02-6.26a3.665 3.665 0 0 0 2.78-3.66 4.192 4.192 0 0 0-4.4-4.279h-5.6v14.2zm3.18-8.56v-2.719h2.04a1.414 1.414 0 0 1 1.62 1.359 1.437 1.437 0 0 1-1.62 1.36h-2.04z"/><path id="Shop_Now_copy" data-name="Shop Now copy" class="cls-1" d="M89.661 921.093a4.267 4.267 0 0 0 3.795 1.92c2.085 0 3.555-1.215 3.555-3.075.015-1.59-.93-2.535-2.5-3.12l-1.08-.4c-1.095-.4-1.62-.75-1.62-1.53a1.465 1.465 0 0 1 1.68-1.23 2.58 2.58 0 0 1 2.025.99l1.215-1.185A4.1 4.1 0 0 0 93.5 912c-1.98 0-3.465 1.14-3.465 3 0 1.455.825 2.385 2.52 3l1.17.42c1.02.375 1.515.87 1.515 1.62a1.5 1.5 0 0 1-1.725 1.32 2.9 2.9 0 0 1-2.474-1.36zm11.955 1.74h1.755v-4.575h5.265v4.575h1.754v-10.65h-1.754v4.41h-5.265v-4.41h-1.755v10.65zm24.434-5.325a5.5 5.5 0 1 0-5.5 5.5 5.48 5.48 0 0 0 5.5-5.5zm-9.239 0a3.728 3.728 0 1 1 3.735 3.81 3.733 3.733 0 0 1-3.735-3.81zm17.249-5.325h-3.389v10.65h1.754v-3.69h1.635a3.486 3.486 0 1 0 0-6.96zm-.015 5.31h-1.62v-3.66h1.62a1.836 1.836 0 1 1 0 3.66zm23.19 5.34v-10.65h-1.77v7.635l-5.985-7.635h-1.53v10.65h1.755v-7.665l6 7.665h1.53zm15.645-5.325a5.5 5.5 0 1 0-5.5 5.5 5.48 5.48 0 0 0 5.5-5.5zm-9.24 0a3.728 3.728 0 1 1 3.735 3.81 3.733 3.733 0 0 1-3.735-3.81zm22.125 5.325h1.62l2.76-10.65h-1.86l-1.95 7.74L183.29 912l-3.045 7.92-1.95-7.74h-1.845l2.745 10.65h1.62l2.475-6.51zm-96.584 3.5v-1.349h103.634v1.349H89.181z"/><path id="Rectangle_116_copy_14" data-name="Rectangle 116 copy 14" class="cls-1" d="M652.009 54.059l-1.094 1.084-15.976-15.829L618.1 56l-1.105-1.094 16.843-16.688-16.291-16.136L618.641 21l16.287 16.137 15.758-15.614 1.105 1.1-15.758 15.607z"/><path id="Rectangle_116_copy_13" data-name="Rectangle 116 copy 13" class="cls-1" d="M650.915 599.914l-.08-.082L618.1 633l-1.105-1.12 32.739-33.17-32.183-32.606 1.09-1.104 33.368 33.8z"/><path id="Rectangle_116_copy_12" data-name="Rectangle 116 copy 12" class="cls-1" d="M21.085 598.087l.079.08L53.9 565l1.1 1.119-32.73 33.169 32.183 32.605L53.359 633l-33.368-33.8z"/></svg>