<svg xmlns="http://www.w3.org/2000/svg" width="672" height="1097" viewBox="0 0 672 1097">
  <defs>
    <style>
      .cls-1 {
        fill-rule: evenodd;
      }
    </style>
  </defs>
  <path id="BR_X_Kevin_Love_Slim_Pinstripe_Italian_Motion-Stretch_Suit_copy" data-name="BR X Kevin Love | Slim Pinstripe Italian Motion-Stretch Suit  copy" class="cls-1" d="M89.886,881.146h6.24a4.2,4.2,0,0,0,4.32-4.18,3.711,3.711,0,0,0-2.02-3.36,3.342,3.342,0,0,0,1.02-2.44,4.221,4.221,0,0,0-4.22-4.219h-5.34v14.2Zm3.18-8.46v-2.839h1.8a1.442,1.442,0,0,1,1.48,1.439,1.423,1.423,0,0,1-1.48,1.4h-1.8Zm0,5.54v-2.84h2.78a1.445,1.445,0,0,1,1.5,1.42,1.427,1.427,0,0,1-1.48,1.42h-2.8Zm11.12,2.92h3.18v-5.86h0.52l4.72,5.86h3.82l-5.02-6.26a3.665,3.665,0,0,0,2.78-3.66,4.192,4.192,0,0,0-4.4-4.279h-5.6v14.2Zm3.18-8.56v-2.719h2.04a1.414,1.414,0,0,1,1.62,1.359,1.437,1.437,0,0,1-1.62,1.36h-2.04Zm25.92,8.56h3.7l-5.3-7.18,4.98-7.019h-3.68l-3.22,4.559-3.22-4.559h-3.68l5,7.019-5.32,7.18h3.72l3.52-4.7Zm12.22,0h3.16v-6.36l5.78,6.36h4.08l-6.74-7.38,5.6-6.819h-3.9l-4.82,5.939v-5.939h-3.16v14.2Zm15.6,0h9v-3.04h-5.82v-2.54h4.62v-3.04h-4.62v-2.54h5.82v-3.039h-9v14.2Zm17.36,0h2.86l5.82-14.2h-3.5l-3.76,9.459-3.78-9.459h-3.46Zm11.8,0h3.18v-14.2h-3.18v14.2Zm20.619,0v-14.2h-3.2v8.759l-6.9-8.759h-2.74v14.2h3.18v-8.78l6.919,8.78h2.74Zm10.6,0h9.06v-3.04h-5.88V866.947h-3.18v14.2Zm18.54,0.24a7.34,7.34,0,1,0-7.34-7.34A7.358,7.358,0,0,0,240.025,881.386Zm0-3.08a4.262,4.262,0,1,1,4.12-4.26A4.213,4.213,0,0,1,240.025,878.306Zm14.86,2.84h2.86l5.82-14.2h-3.5l-3.76,9.459-3.78-9.459h-3.46Zm11.8,0h9v-3.04h-5.819v-2.54h4.619v-3.04h-4.619v-2.54h5.819v-3.039h-9v14.2Zm19.019,1.1h2.52v-16.4H285.7v16.4Zm17.36-.86c3,0,5.06-1.8,5.08-4.38,0.02-2.14-1.32-3.5-3.38-4.24l-1-.36c-1.5-.54-2.2-0.88-2.2-1.64,0-.74.86-1.079,1.72-1.079a3.157,3.157,0,0,1,2.46,1.179l2.08-2.2a5.925,5.925,0,0,0-4.58-1.96c-2.84,0-4.9,1.62-4.9,4.379,0,1.94,1.28,3.32,3.58,4.1l1,0.34c1.42,0.48,1.98.98,1.98,1.7,0,0.68-.66,1.18-1.72,1.18a3.715,3.715,0,0,1-2.94-1.62l-2.44,2.06A6.227,6.227,0,0,0,303.064,881.386Zm8.879-.24H321v-3.04h-5.88V866.947h-3.18v14.2Zm12.64,0h3.18v-14.2h-3.18v14.2Zm15.12-3.02,4.14-5.74v8.76h3.2v-14.2h-2.9l-4.44,6.119-4.44-6.119h-2.9v14.2h3.18v-8.76Zm27.759-6.32a4.836,4.836,0,0,0-5-4.859h-4.82v14.2h3.18v-4.5h1.64A4.82,4.82,0,0,0,367.462,871.806Zm-3.08,0a1.869,1.869,0,0,1-1.96,1.86h-1.6v-3.72h1.6A1.857,1.857,0,0,1,364.382,871.806Zm6.72,9.34h3.18v-14.2H371.1v14.2Zm20.62,0v-14.2h-3.2v8.759l-6.9-8.759h-2.74v14.2h3.18v-8.78l6.92,8.78h2.74Zm8.84,0.24c3,0,5.06-1.8,5.08-4.38,0.02-2.14-1.32-3.5-3.38-4.24l-1-.36c-1.5-.54-2.2-0.88-2.2-1.64,0-.74.86-1.079,1.72-1.079a3.157,3.157,0,0,1,2.46,1.179l2.08-2.2a5.925,5.925,0,0,0-4.58-1.96c-2.84,0-4.9,1.62-4.9,4.379,0,1.94,1.28,3.32,3.58,4.1l1,0.34c1.42,0.48,1.98.98,1.98,1.7,0,0.68-.66,1.18-1.72,1.18a3.715,3.715,0,0,1-2.94-1.62l-2.44,2.06A6.227,6.227,0,0,0,400.562,881.386Zm11.24-.24H415v-11.16h3.66v-3.039h-10.48v3.039h3.62v11.16Zm10.4,0h3.18v-5.86H425.9l4.72,5.86h3.82l-5.02-6.26a3.665,3.665,0,0,0,2.78-3.66,4.192,4.192,0,0,0-4.4-4.279h-5.6v14.2Zm3.18-8.56v-2.719h2.039a1.414,1.414,0,0,1,1.62,1.359,1.437,1.437,0,0,1-1.62,1.36h-2.039Zm11.659,8.56h3.18v-14.2h-3.18v14.2Zm17.6-9.34a4.836,4.836,0,0,0-5-4.859h-4.82v14.2H448v-4.5h1.64A4.82,4.82,0,0,0,454.641,871.806Zm-3.08,0a1.869,1.869,0,0,1-1.96,1.86H448v-3.72h1.6A1.857,1.857,0,0,1,451.561,871.806Zm6.72,9.34h9v-3.04h-5.82v-2.54h4.62v-3.04h-4.62v-2.54h5.82v-3.039h-9v14.2Zm-368.395,30h3.18v-14.2h-3.18v14.2Zm10.34,0h3.2v-11.16h3.66v-3.039H96.606v3.039h3.62v11.16Zm7.44,0h3.32l1.26-3h5.88l1.26,3h3.32l-6.08-14.2h-2.88Zm5.74-5.76,1.78-4.28,1.78,4.28h-3.56Zm12.38,5.76h9.06v-3.04h-5.88V896.947h-3.18v14.2Zm12.64,0h3.18v-14.2h-3.18v14.2Zm6.26,0h3.32l1.26-3h5.88l1.26,3h3.32l-6.08-14.2h-2.88Zm5.74-5.76,1.78-4.28,1.78,4.28h-3.56Zm25.22,5.76v-14.2h-3.2v8.759l-6.9-8.759h-2.74v14.2h3.18v-8.78l6.92,8.78h2.74Zm17.939-3.02,4.14-5.74v8.76h3.2v-14.2h-2.9l-4.44,6.119-4.44-6.119h-2.9v14.2h3.18v-8.76Zm18.48,3.26a7.34,7.34,0,1,0-7.34-7.34A7.358,7.358,0,0,0,212.065,911.386Zm0-3.08a4.262,4.262,0,1,1,4.12-4.26A4.213,4.213,0,0,1,212.065,908.306Zm13.16,2.84h3.2v-11.16h3.66v-3.039h-10.48v3.039h3.62v11.16Zm10.4,0h3.18v-14.2h-3.18v14.2Zm14.32,0.24a7.34,7.34,0,1,0-7.34-7.34A7.357,7.357,0,0,0,249.945,911.386Zm0-3.08a4.262,4.262,0,1,1,4.119-4.26A4.213,4.213,0,0,1,249.945,908.306Zm23.979,2.84v-14.2h-3.2v8.759l-6.9-8.759h-2.74v14.2h3.18v-8.78l6.92,8.78h2.74Zm4.26-5.66h5.88v-2.88h-5.88v2.88Zm14.38,5.9c3,0,5.06-1.8,5.08-4.38,0.02-2.14-1.32-3.5-3.38-4.24l-1-.36c-1.5-.54-2.2-0.88-2.2-1.64,0-.74.86-1.08,1.72-1.08a3.159,3.159,0,0,1,2.46,1.18l2.08-2.2a5.925,5.925,0,0,0-4.58-1.96c-2.84,0-4.9,1.62-4.9,4.379,0,1.94,1.28,3.32,3.58,4.1l1,0.34c1.42,0.48,1.98.98,1.98,1.7,0,0.68-.66,1.18-1.72,1.18a3.715,3.715,0,0,1-2.94-1.62l-2.44,2.06A6.227,6.227,0,0,0,292.564,911.386Zm11.24-.24H307v-11.16h3.66v-3.039h-10.48v3.039h3.62v11.16Zm10.4,0h3.18v-5.86h0.52l4.72,5.86h3.819l-5.019-6.26a3.664,3.664,0,0,0,2.779-3.66,4.191,4.191,0,0,0-4.4-4.279h-5.6v14.2Zm3.18-8.56v-2.72h2.04a1.415,1.415,0,0,1,1.62,1.36,1.437,1.437,0,0,1-1.62,1.36h-2.04Zm11.659,8.56h9v-3.04h-5.82v-2.54h4.62v-3.04h-4.62v-2.54h5.82v-3.039h-9v14.2Zm15.58,0h3.2v-11.16h3.66v-3.039H341v3.039h3.62v11.16Zm16.4,0.24a7.34,7.34,0,0,0,6.64-3.88l-2.8-1.52a4.26,4.26,0,1,1,0-3.88l2.8-1.52A7.4,7.4,0,1,0,361.023,911.386Zm10.1-.24h3.18v-5.62h5.72v5.62h3.18v-14.2h-3.18v5.559H374.3v-5.559h-3.18v14.2Zm26.92,0.24c3,0,5.06-1.8,5.08-4.38,0.02-2.14-1.32-3.5-3.38-4.24l-1-.36c-1.5-.54-2.2-0.88-2.2-1.64,0-.74.86-1.08,1.72-1.08a3.159,3.159,0,0,1,2.46,1.18l2.08-2.2a5.925,5.925,0,0,0-4.58-1.96c-2.84,0-4.9,1.62-4.9,4.379,0,1.94,1.28,3.32,3.58,4.1l1,0.34c1.42,0.48,1.98.98,1.98,1.7,0,0.68-.66,1.18-1.72,1.18a3.715,3.715,0,0,1-2.94-1.62l-2.44,2.06A6.227,6.227,0,0,0,398.043,911.386Zm14.56,0a5.569,5.569,0,0,0,5.84-5.86v-8.579h-3.18v8.619a2.661,2.661,0,1,1-5.32,0v-8.619h-3.18v8.579A5.558,5.558,0,0,0,412.6,911.386Zm10.28-.24h3.179v-14.2h-3.179v14.2Zm10.339,0h3.2v-11.16h3.66v-3.039H429.6v3.039h3.62v11.16Z"/>
  <path id="Shop_Now_copy" data-name="Shop Now copy" class="cls-1" d="M89.661,950.093a4.267,4.267,0,0,0,3.795,1.92c2.085,0,3.555-1.215,3.555-3.075,0.015-1.59-.93-2.535-2.5-3.12l-1.08-.4c-1.095-.4-1.62-0.75-1.62-1.53a1.465,1.465,0,0,1,1.68-1.23,2.58,2.58,0,0,1,2.025.99l1.215-1.185A4.1,4.1,0,0,0,93.5,941c-1.98,0-3.465,1.14-3.465,3,0,1.455.825,2.385,2.52,3l1.17,0.42c1.02,0.375,1.515.87,1.515,1.62a1.5,1.5,0,0,1-1.725,1.32A2.9,2.9,0,0,1,91.041,949Zm11.955,1.74h1.755v-4.575h5.265v4.575h1.754v-10.65h-1.754v4.41h-5.265v-4.41h-1.755v10.65Zm24.434-5.325a5.5,5.5,0,1,0-5.5,5.5A5.48,5.48,0,0,0,126.05,946.508Zm-9.239,0a3.728,3.728,0,1,1,3.735,3.81A3.733,3.733,0,0,1,116.811,946.508Zm17.249-5.325h-3.389v10.65h1.754v-3.69h1.635A3.486,3.486,0,1,0,134.06,941.183Zm-0.015,5.31h-1.62v-3.66h1.62A1.836,1.836,0,1,1,134.045,946.493Zm23.19,5.34v-10.65h-1.77v7.635l-5.985-7.635h-1.53v10.65h1.755v-7.665l6,7.665h1.53Zm15.645-5.325a5.5,5.5,0,1,0-5.5,5.5A5.48,5.48,0,0,0,172.88,946.508Zm-9.24,0a3.728,3.728,0,1,1,3.735,3.81A3.733,3.733,0,0,1,163.64,946.508Zm22.125,5.325h1.62l2.76-10.65h-1.86l-1.95,7.74L183.29,941l-3.045,7.92-1.95-7.74H176.45l2.745,10.65h1.62l2.475-6.51Zm-96.584,3.5v-1.349H192.815v1.349H89.181Z"/>
  <path id="Rectangle_116_copy_15" data-name="Rectangle 116 copy 15" class="cls-1" d="M652.009,53.059l-1.094,1.084L634.939,38.314,618.1,55l-1.105-1.094,16.843-16.688L617.547,21.082,618.641,20l16.287,16.137,15.758-15.614,1.105,1.1L636.033,37.23Z"/>
  <path id="Rectangle_116_copy_13" data-name="Rectangle 116 copy 13" class="cls-1" d="M21.085,597.087l0.079,0.08L53.9,564l1.1,1.119L22.27,598.287l32.183,32.606L53.359,632,19.991,598.2Z"/>
</svg>
