<svg xmlns="http://www.w3.org/2000/svg" width="672" height="1097"><defs><style>.cls-1{fill-rule:evenodd}</style></defs><path id="Rectangle_116_copy_14" data-name="Rectangle 116 copy 14" class="cls-1" d="M652.009 53.059l-1.094 1.084-15.976-15.829L618.1 55l-1.105-1.094 16.843-16.688-16.291-16.136L618.641 20l16.287 16.137 15.758-15.614 1.105 1.1-15.758 15.607z"/><path id="Rectangle_116_copy_13" data-name="Rectangle 116 copy 13" class="cls-1" d="M650.915 599.4l-.08-.08L618.1 632l-1.105-1.1 32.739-32.681-32.187-32.129 1.094-1.09 33.368 33.309z"/><path id="We_partner_with_the_best_mills_to_source_the_finest_fabrics_wit_copy" data-name="We partner with the best mills to source the finest fabrics wit copy" class="cls-1" d="M50.007 794.323h1.66l3.881-14.2h-1.94L50.627 791.2l-4.1-11.323-4.082 11.323-2.981-11.08h-1.94l3.881 14.2h1.66l3.481-9.643zm6.738-5a5.273 5.273 0 0 0 9.682 2.821l-1.36-.94a3.542 3.542 0 0 1-6.582-1.54h8.2a4.907 4.907 0 0 0 .02-.521c-.02-3.2-2.141-5.021-4.761-5.021a5.069 5.069 0 0 0-5.2 5.199zm5.141-3.68a2.992 2.992 0 0 1 3.061 2.62H58.6a3.27 3.27 0 0 1 3.286-2.622zM75.025 798.5h1.72v-5.721a4.387 4.387 0 0 0 3.521 1.741 5.211 5.211 0 0 0 0-10.4 4.387 4.387 0 0 0-3.521 1.741v-1.541h-1.72v14.18zm8.382-9.182a3.407 3.407 0 1 1-3.4-3.62 3.415 3.415 0 0 1 3.4 3.623zm3.958 0a5.006 5.006 0 0 0 4.9 5.2 4.387 4.387 0 0 0 3.521-1.741v1.541h1.72v-10h-1.72v1.541a4.387 4.387 0 0 0-3.521-1.741 5.005 5.005 0 0 0-4.9 5.203zm8.562 0a3.417 3.417 0 1 1-3.4-3.62 3.415 3.415 0 0 1 3.4 3.623zm5.318 5h1.72v-4.962c0-2.34 1.381-3.44 2.641-3.44a2.514 2.514 0 0 1 .94.16V784.3a3.564 3.564 0 0 0-.78-.08 2.977 2.977 0 0 0-2.8 2.041v-1.941h-1.72v10zm13.241-.141v-1.54a3.8 3.8 0 0 1-1.22.2 1.44 1.44 0 0 1-1.66-1.7V785.9h2.88v-1.58h-2.88v-2.78h-1.721v2.78h-2.12v1.58h2.12v5.461a2.816 2.816 0 0 0 3.061 3.061 4.756 4.756 0 0 0 1.54-.24zm2.7.141h1.721v-4.962c0-2.34 1.28-3.66 2.9-3.66 1.4 0 2.361 1.04 2.361 2.72v5.9h1.7v-6.162c0-2.48-1.54-4.041-3.781-4.041a3.535 3.535 0 0 0-3.18 1.741v-1.534h-1.721v10zm11.5-5a5.273 5.273 0 0 0 9.682 2.821l-1.36-.94a3.541 3.541 0 0 1-6.581-1.54h8.2a4.907 4.907 0 0 0 .02-.521c-.02-3.2-2.141-5.021-4.762-5.021a5.069 5.069 0 0 0-5.2 5.204zm5.141-3.68a2.992 2.992 0 0 1 3.061 2.62h-6.341a3.269 3.269 0 0 1 3.279-2.617zm7.76 8.682h1.72v-4.962c0-2.34 1.38-3.44 2.641-3.44a2.514 2.514 0 0 1 .94.16V784.3a3.564 3.564 0 0 0-.78-.08 2.976 2.976 0 0 0-2.8 2.041v-1.941h-1.72v10zm20.822 0h1.52l3.4-10h-1.82l-2.421 7.3-2.5-7.3h-1.32l-2.5 7.3-2.421-7.3h-1.8l3.4 10h1.521l2.48-7.2zm9.358-13.9a1.208 1.208 0 0 0-1.2-1.221 1.242 1.242 0 0 0-1.24 1.221 1.229 1.229 0 0 0 1.24 1.22 1.2 1.2 0 0 0 1.199-1.22zm-2.08 13.9h1.72v-10h-1.72v10zm10.9-.141v-1.54a3.8 3.8 0 0 1-1.22.2 1.44 1.44 0 0 1-1.66-1.7V785.9h2.88v-1.58h-2.88v-2.78h-1.721v2.78h-2.12v1.58h2.12v5.461a2.816 2.816 0 0 0 3.061 3.061 4.756 4.756 0 0 0 1.54-.24zm2.7.141h1.72v-4.962c0-2.34 1.281-3.66 2.9-3.66 1.4 0 2.361 1.04 2.361 2.72v5.9h1.7v-6.162c0-2.48-1.54-4.041-3.781-4.041a3.538 3.538 0 0 0-3.181 1.741v-6.542h-1.72v15zm22.741-.141v-1.54a3.8 3.8 0 0 1-1.22.2 1.44 1.44 0 0 1-1.66-1.7V785.9h2.88v-1.58h-2.88v-2.78h-1.721v2.78h-2.12v1.58h2.12v5.461a2.816 2.816 0 0 0 3.061 3.061 4.756 4.756 0 0 0 1.539-.24zm2.7.141h1.721v-4.962c0-2.34 1.28-3.66 2.9-3.66 1.4 0 2.361 1.04 2.361 2.72v5.9h1.7v-6.162c0-2.48-1.54-4.041-3.781-4.041a3.535 3.535 0 0 0-3.18 1.741v-6.542h-1.721v15zm11.5-5a5.273 5.273 0 0 0 9.682 2.821l-1.36-.94a3.541 3.541 0 0 1-6.581-1.54h8.2a4.907 4.907 0 0 0 .02-.521c-.02-3.2-2.141-5.021-4.762-5.021a5.069 5.069 0 0 0-5.201 5.202zm5.141-3.68a2.992 2.992 0 0 1 3.061 2.62h-6.341a3.269 3.269 0 0 1 3.278-2.619zm14.86 7.141a4.387 4.387 0 0 0 3.521 1.741 5.211 5.211 0 0 0 0-10.4 4.387 4.387 0 0 0-3.521 1.741v-6.542h-1.721v15h1.721v-1.541zm6.661-3.461a3.407 3.407 0 1 1-3.4-3.62 3.415 3.415 0 0 1 3.398 3.621zm3.938 0a5.274 5.274 0 0 0 9.683 2.821l-1.361-.94a3.541 3.541 0 0 1-6.581-1.54h8.2a4.907 4.907 0 0 0 .02-.521c-.02-3.2-2.141-5.021-4.761-5.021a5.069 5.069 0 0 0-5.202 5.202zm5.142-3.68a2.992 2.992 0 0 1 3.06 2.62h-6.341a3.269 3.269 0 0 1 3.279-2.619zm14.24 5.9c0-1.5-.94-2.461-2.64-3.021l-1.081-.36c-1.18-.38-1.54-.76-1.54-1.4 0-.74.74-1.16 1.68-1.16a2.7 2.7 0 0 1 2.121 1.04l1.12-1.08a3.877 3.877 0 0 0-3.2-1.441c-1.98 0-3.38 1.1-3.38 2.721 0 1.4.86 2.38 2.48 2.9l.98.32c1.3.42 1.781.9 1.781 1.6a1.523 1.523 0 0 1-1.761 1.36 2.684 2.684 0 0 1-2.56-1.58l-1.4.76a3.973 3.973 0 0 0 3.92 2.321c2.018.003 3.478-1.02 3.478-2.978zm8.26 2.64v-1.54a3.8 3.8 0 0 1-1.22.2 1.44 1.44 0 0 1-1.661-1.7v-5.24h2.881v-1.58h-2.881v-2.78h-1.72v2.78h-2.12v1.58h2.12v5.461a2.816 2.816 0 0 0 3.061 3.061 4.756 4.756 0 0 0 1.538-.24zm8.079.141h1.72v-4.962c0-2.26 1.141-3.66 2.761-3.66 1.3 0 1.96 1.12 1.96 2.74v5.882h1.721v-4.962c0-2.26 1.12-3.66 2.74-3.66 1.3 0 1.981 1.12 1.981 2.74v5.882h1.72v-6.142c0-2.44-1.32-4.061-3.5-4.061a3.462 3.462 0 0 0-3.281 2.141 3.146 3.146 0 0 0-3.081-2.141 3.362 3.362 0 0 0-3.021 1.741v-1.539h-1.72v10zm20.281-13.9a1.208 1.208 0 0 0-1.2-1.221 1.242 1.242 0 0 0-1.24 1.221 1.229 1.229 0 0 0 1.24 1.22 1.2 1.2 0 0 0 1.198-1.221zm-2.081 13.9h1.721v-10h-1.721v10zm5.48 0h1.721v-15h-1.721v15zm5.48 0h1.721v-15h-1.721v15zm11.962-2.781c0-1.5-.94-2.461-2.641-3.021l-1.08-.36c-1.18-.38-1.54-.76-1.54-1.4 0-.74.74-1.16 1.68-1.16a2.7 2.7 0 0 1 2.12 1.04l1.121-1.08a3.879 3.879 0 0 0-3.2-1.441c-1.981 0-3.381 1.1-3.381 2.721 0 1.4.86 2.38 2.481 2.9l.98.32c1.3.42 1.78.9 1.78 1.6a1.522 1.522 0 0 1-1.76 1.36 2.685 2.685 0 0 1-2.561-1.58l-1.4.76a3.974 3.974 0 0 0 3.921 2.321c2.017.003 3.478-1.02 3.478-2.978zm13.42 2.64v-1.54a3.813 3.813 0 0 1-1.221.2 1.44 1.44 0 0 1-1.66-1.7v-5.24h2.881v-1.58h-2.881v-2.78h-1.721v2.78h-2.12v1.58h2.12v5.461a2.816 2.816 0 0 0 3.061 3.061 4.767 4.767 0 0 0 1.539-.24zm12.221-4.861a5.232 5.232 0 1 0-5.221 5.2 5.133 5.133 0 0 0 5.219-5.198zm-8.7 0a3.473 3.473 0 1 1 3.481 3.6 3.437 3.437 0 0 1-3.485-3.598zm23.521 2.221c0-1.5-.94-2.461-2.64-3.021l-1.081-.36c-1.18-.38-1.54-.76-1.54-1.4 0-.74.74-1.16 1.68-1.16a2.7 2.7 0 0 1 2.121 1.04l1.12-1.08a3.877 3.877 0 0 0-3.2-1.441c-1.98 0-3.381 1.1-3.381 2.721 0 1.4.861 2.38 2.481 2.9l.98.32c1.3.42 1.781.9 1.781 1.6a1.523 1.523 0 0 1-1.761 1.36 2.684 2.684 0 0 1-2.56-1.58l-1.4.76a3.975 3.975 0 0 0 3.921 2.321c2.015.003 3.475-1.02 3.475-2.978zm12.621-2.221a5.232 5.232 0 1 0-5.221 5.2 5.133 5.133 0 0 0 5.217-5.198zm-8.7 0a3.473 3.473 0 1 1 3.481 3.6 3.437 3.437 0 0 1-3.487-3.598zm11.52 1.141c0 2.48 1.48 4.061 3.681 4.061a3.442 3.442 0 0 0 3.08-1.741v1.541h1.721v-10h-1.721v4.961c0 2.3-1.22 3.661-2.78 3.661-1.381 0-2.261-1.06-2.261-2.74v-5.883h-1.72v6.142zm12.22 3.861h1.72v-4.962c0-2.34 1.381-3.44 2.641-3.44a2.514 2.514 0 0 1 .94.16V784.3a3.564 3.564 0 0 0-.78-.08 2.977 2.977 0 0 0-2.8 2.041v-1.941h-1.72v10zm16.542-2.481l-1.5-.84a3.39 3.39 0 0 1-3.121 1.92 3.6 3.6 0 0 1 0-7.2 3.39 3.39 0 0 1 3.121 1.92l1.5-.84a5.18 5.18 0 0 0-4.621-2.681 5.2 5.2 0 1 0 0 10.4 5.18 5.18 0 0 0 4.615-2.677zm1.938-2.521a5.273 5.273 0 0 0 9.682 2.821l-1.36-.94a3.542 3.542 0 0 1-6.582-1.54h8.2a4.907 4.907 0 0 0 .02-.521c-.02-3.2-2.14-5.021-4.761-5.021a5.069 5.069 0 0 0-5.205 5.203zm5.141-3.68a2.992 2.992 0 0 1 3.061 2.62h-6.341a3.269 3.269 0 0 1 3.274-2.618zm18.221 8.541v-1.54a3.8 3.8 0 0 1-1.221.2 1.44 1.44 0 0 1-1.66-1.7v-5.24h2.881v-1.58h-2.881v-2.78h-1.72v2.78h-2.121v1.58h2.121v5.461a2.816 2.816 0 0 0 3.06 3.061 4.763 4.763 0 0 0 1.535-.24zm2.7.141h1.72v-4.962c0-2.34 1.28-3.66 2.9-3.66 1.4 0 2.36 1.04 2.36 2.72v5.9h1.7v-6.162c0-2.48-1.541-4.041-3.781-4.041a3.536 3.536 0 0 0-3.181 1.741v-6.542h-1.72v15zm11.5-5a5.274 5.274 0 0 0 9.683 2.821l-1.361-.94a3.541 3.541 0 0 1-6.581-1.54h8.2a4.907 4.907 0 0 0 .02-.521c-.02-3.2-2.141-5.021-4.761-5.021a5.069 5.069 0 0 0-5.208 5.201zm5.142-3.68a2.992 2.992 0 0 1 3.06 2.62h-6.341a3.269 3.269 0 0 1 3.273-2.62zm13.719 8.682h1.721V785.9h2.9v-1.58h-2.9v-1.84a1.44 1.44 0 0 1 1.66-1.7 4.027 4.027 0 0 1 1.24.2v-1.521a4.545 4.545 0 0 0-1.56-.26 2.857 2.857 0 0 0-3.061 3.1v2.02h-2.12v1.581h2.12v8.422zm8.582-13.9a1.208 1.208 0 0 0-1.2-1.221 1.242 1.242 0 0 0-1.24 1.221 1.229 1.229 0 0 0 1.24 1.22 1.2 1.2 0 0 0 1.192-1.223zm-2.08 13.9h1.72v-10h-1.72v10zm5.458 0h1.721v-4.962c0-2.34 1.28-3.66 2.9-3.66 1.4 0 2.361 1.04 2.361 2.72v5.9h1.7v-6.162c0-2.48-1.54-4.041-3.781-4.041a3.535 3.535 0 0 0-3.18 1.741v-1.539h-1.721v10zm11.5-5a5.273 5.273 0 0 0 9.682 2.821l-1.36-.94a3.542 3.542 0 0 1-6.582-1.54h8.2a4.907 4.907 0 0 0 .02-.521c-.02-3.2-2.14-5.021-4.761-5.021a5.069 5.069 0 0 0-5.207 5.199zm5.141-3.68a2.992 2.992 0 0 1 3.061 2.62h-6.342a3.271 3.271 0 0 1 3.273-2.622zm14.241 5.9c0-1.5-.94-2.461-2.641-3.021l-1.08-.36c-1.18-.38-1.54-.76-1.54-1.4 0-.74.74-1.16 1.68-1.16a2.705 2.705 0 0 1 2.121 1.04l1.12-1.08a3.878 3.878 0 0 0-3.2-1.441c-1.98 0-3.381 1.1-3.381 2.721 0 1.4.86 2.38 2.481 2.9l.98.32c1.3.42 1.781.9 1.781 1.6a1.523 1.523 0 0 1-1.761 1.36 2.686 2.686 0 0 1-2.561-1.58l-1.4.76a3.974 3.974 0 0 0 3.921 2.321c2.012 0 3.472-1.023 3.472-2.981zm8.26 2.64v-1.54a3.8 3.8 0 0 1-1.22.2 1.44 1.44 0 0 1-1.661-1.7V785.9h2.881v-1.58h-2.889v-2.78h-1.72v2.78h-2.121v1.58h2.121v5.461a2.816 2.816 0 0 0 3.06 3.061 4.758 4.758 0 0 0 1.541-.24zm8.659.141h1.72V785.9h2.9v-1.58h-2.9v-1.84a1.441 1.441 0 0 1 1.661-1.7 4.027 4.027 0 0 1 1.24.2v-1.521a4.545 4.545 0 0 0-1.56-.26 2.857 2.857 0 0 0-3.061 3.1v2.02h-2.12v1.581h2.12v8.422zm5.96-5a5.005 5.005 0 0 0 4.9 5.2 4.388 4.388 0 0 0 3.521-1.741v1.541h1.72v-10h-1.72v1.541a4.388 4.388 0 0 0-3.521-1.741 5.005 5.005 0 0 0-4.908 5.197zm8.562 0a3.417 3.417 0 1 1-3.4-3.62 3.415 3.415 0 0 1 3.392 3.617zm7.039 3.461a4.386 4.386 0 0 0 3.52 1.741 5.211 5.211 0 0 0 0-10.4 4.386 4.386 0 0 0-3.52 1.741v-6.542h-1.729v15h1.721v-1.541zm6.661-3.461a3.407 3.407 0 1 1-3.4-3.62 3.415 3.415 0 0 1 3.392 3.617zm4.718 5h1.721v-4.962c0-2.34 1.38-3.44 2.64-3.44a2.519 2.519 0 0 1 .941.16V784.3a3.572 3.572 0 0 0-.781-.08 2.976 2.976 0 0 0-2.8 2.041v-1.941h-1.729v10zm9.9-13.9a1.208 1.208 0 0 0-1.2-1.221 1.243 1.243 0 0 0-1.241 1.221 1.229 1.229 0 0 0 1.241 1.22 1.2 1.2 0 0 0 1.193-1.224zm-2.081 13.9h1.721v-10h-1.728v10zm14.563-2.481l-1.5-.84a3.39 3.39 0 0 1-3.12 1.92 3.6 3.6 0 0 1 0-7.2 3.39 3.39 0 0 1 3.12 1.92l1.5-.84a5.182 5.182 0 0 0-4.621-2.681 5.2 5.2 0 1 0 0 10.4 5.182 5.182 0 0 0 4.614-2.68zm9.2-.3c0-1.5-.94-2.461-2.641-3.021l-1.08-.36c-1.18-.38-1.54-.76-1.54-1.4 0-.74.74-1.16 1.68-1.16a2.7 2.7 0 0 1 2.121 1.04l1.12-1.08a3.878 3.878 0 0 0-3.2-1.441c-1.98 0-3.381 1.1-3.381 2.721 0 1.4.861 2.38 2.481 2.9l.98.32c1.3.42 1.781.9 1.781 1.6a1.523 1.523 0 0 1-1.761 1.36 2.684 2.684 0 0 1-2.56-1.58l-1.4.76a3.974 3.974 0 0 0 3.921 2.321c2.011 0 3.471-1.023 3.471-2.981zm-547.814 32.78h1.52l3.4-10h-1.82l-2.421 7.3-2.5-7.3h-1.32l-2.5 7.3-2.42-7.3H37.3l3.4 10h1.52l2.481-7.2zm9.359-13.9a1.208 1.208 0 0 0-1.2-1.221 1.243 1.243 0 0 0-1.24 1.221 1.229 1.229 0 0 0 1.24 1.22 1.2 1.2 0 0 0 1.2-1.223zm-2.081 13.9h1.72v-10h-1.72v10zm10.9-.141v-1.54a3.8 3.8 0 0 1-1.22.2 1.44 1.44 0 0 1-1.66-1.7V815.9h2.881v-1.58h-2.88v-2.78h-1.721v2.78h-2.12v1.58h2.121v5.461a2.816 2.816 0 0 0 3.061 3.061 4.758 4.758 0 0 0 1.54-.24zm2.7.141h1.72v-4.962c0-2.34 1.28-3.66 2.9-3.66 1.4 0 2.361 1.04 2.361 2.72v5.9h1.7v-6.162c0-2.48-1.54-4.041-3.781-4.041a3.536 3.536 0 0 0-3.181 1.741v-6.542h-1.72v15zm22.741-.141v-1.54a3.8 3.8 0 0 1-1.22.2 1.44 1.44 0 0 1-1.66-1.7V815.9h2.881v-1.58h-2.881v-2.78h-1.72v2.78h-2.121v1.58h2.121v5.461a2.816 2.816 0 0 0 3.061 3.061 4.758 4.758 0 0 0 1.54-.24zm2.7.141h1.721v-4.962c0-2.34 1.28-3.66 2.9-3.66 1.4 0 2.36 1.04 2.36 2.72v5.9h1.7v-6.162c0-2.48-1.541-4.041-3.781-4.041a3.536 3.536 0 0 0-3.181 1.741v-6.542h-1.719v15zm11.5-5a5.274 5.274 0 0 0 9.683 2.821l-1.361-.94a3.541 3.541 0 0 1-6.581-1.54h8.2a4.907 4.907 0 0 0 .02-.521c-.02-3.2-2.141-5.021-4.761-5.021a5.069 5.069 0 0 0-5.201 5.199zm5.142-3.68a2.992 2.992 0 0 1 3.06 2.62h-6.341a3.269 3.269 0 0 1 3.28-2.622zm13.139 8.682h1.72v-15h-1.72v15zm4.7-5a5.005 5.005 0 0 0 4.9 5.2 4.39 4.39 0 0 0 3.521-1.741v1.541h1.72v-10h-1.72v1.541a4.39 4.39 0 0 0-3.521-1.741 5.005 5.005 0 0 0-4.901 5.196zm8.562 0a3.417 3.417 0 1 1-3.4-3.62 3.415 3.415 0 0 1 3.399 3.616zm10.739 4.861v-1.54a3.8 3.8 0 0 1-1.22.2 1.44 1.44 0 0 1-1.661-1.7V815.9h2.881v-1.58h-2.881v-2.78h-1.72v2.78h-2.12v1.58h2.12v5.461a2.816 2.816 0 0 0 3.061 3.061 4.756 4.756 0 0 0 1.539-.24zm1.779-4.861a5.273 5.273 0 0 0 9.682 2.821l-1.36-.94a3.542 3.542 0 0 1-6.582-1.54h8.2a4.907 4.907 0 0 0 .02-.521c-.02-3.2-2.14-5.021-4.761-5.021a5.069 5.069 0 0 0-5.2 5.197zm5.141-3.68a2.992 2.992 0 0 1 3.061 2.62h-6.342a3.271 3.271 0 0 1 3.28-2.624zm14.241 5.9c0-1.5-.94-2.461-2.641-3.021l-1.08-.36c-1.18-.38-1.54-.76-1.54-1.4 0-.74.74-1.16 1.68-1.16a2.705 2.705 0 0 1 2.121 1.04l1.12-1.08a3.878 3.878 0 0 0-3.2-1.441c-1.98 0-3.381 1.1-3.381 2.721 0 1.4.86 2.38 2.481 2.9l.98.32c1.3.42 1.781.9 1.781 1.6a1.523 1.523 0 0 1-1.761 1.36 2.686 2.686 0 0 1-2.561-1.58l-1.4.76a3.974 3.974 0 0 0 3.921 2.321c2.019-.002 3.479-1.025 3.479-2.983zm8.26 2.64v-1.54a3.8 3.8 0 0 1-1.22.2 1.44 1.44 0 0 1-1.661-1.7V815.9h2.881v-1.58h-2.881v-2.78h-1.72v2.78h-2.121v1.58h2.121v5.461a2.816 2.816 0 0 0 3.06 3.061 4.758 4.758 0 0 0 1.54-.24zm10.159-13.762a1.208 1.208 0 0 0-1.2-1.221 1.243 1.243 0 0 0-1.241 1.221 1.23 1.23 0 0 0 1.241 1.22 1.2 1.2 0 0 0 1.199-1.223zm-2.08 13.9h1.72v-10h-1.72v10zm5.48 0h1.72v-4.962c0-2.34 1.28-3.66 2.9-3.66 1.4 0 2.36 1.04 2.36 2.72v5.9h1.7v-6.162c0-2.48-1.541-4.041-3.781-4.041a3.536 3.536 0 0 0-3.181 1.741v-1.539h-1.72v10zm12.28 0h1.72v-4.962c0-2.34 1.28-3.66 2.9-3.66 1.4 0 2.36 1.04 2.36 2.72v5.9h1.7v-6.162c0-2.48-1.541-4.041-3.781-4.041a3.536 3.536 0 0 0-3.181 1.741v-1.539h-1.72v10zm21.942-5a5.231 5.231 0 1 0-5.221 5.2 5.133 5.133 0 0 0 5.22-5.202zm-8.7 0a3.473 3.473 0 1 1 3.481 3.6 3.437 3.437 0 0 1-3.484-3.602zm14.561 5h1.44l4.621-10h-1.92l-3.421 7.562-3.421-7.562h-1.92zm7.319-5a5.006 5.006 0 0 0 4.9 5.2 4.387 4.387 0 0 0 3.521-1.741v1.541h1.721v-10h-1.721v1.541a4.387 4.387 0 0 0-3.521-1.741 5.006 5.006 0 0 0-4.903 5.198zm8.562 0a3.417 3.417 0 1 1-3.4-3.62 3.415 3.415 0 0 1 3.397 3.618zm10.74 4.861v-1.54a3.8 3.8 0 0 1-1.221.2 1.44 1.44 0 0 1-1.66-1.7V815.9h2.881v-1.58h-2.881v-2.78h-1.72v2.78h-2.121v1.58h2.121v5.461a2.816 2.816 0 0 0 3.06 3.061 4.763 4.763 0 0 0 1.538-.24zm4.779-13.762a1.208 1.208 0 0 0-1.2-1.221 1.243 1.243 0 0 0-1.241 1.221 1.23 1.23 0 0 0 1.241 1.22 1.2 1.2 0 0 0 1.197-1.222zm-2.08 13.9h1.72v-10h-1.72v10zm15.142-5a5.232 5.232 0 1 0-5.221 5.2 5.133 5.133 0 0 0 5.218-5.201zm-8.7 0a3.473 3.473 0 1 1 3.481 3.6 3.437 3.437 0 0 1-3.486-3.601zm11.66 5h1.72v-4.962c0-2.34 1.28-3.66 2.9-3.66 1.4 0 2.36 1.04 2.36 2.72v5.9h1.7v-6.162c0-2.48-1.541-4.041-3.781-4.041a3.536 3.536 0 0 0-3.181 1.741v-1.538h-1.72v10zm14.66-1.341a1.48 1.48 0 1 0-1.48 1.5 1.507 1.507 0 0 0 1.475-1.499zm11.021 1.341h1.82V811.88h4.421v-1.76h-10.667v1.76h4.421v12.443zm8.559 0h1.721v-4.962c0-2.34 1.28-3.66 2.9-3.66 1.4 0 2.361 1.04 2.361 2.72v5.9h1.7v-6.162c0-2.48-1.54-4.041-3.781-4.041a3.535 3.535 0 0 0-3.18 1.741v-6.542h-1.721v15zm14.361-13.9a1.208 1.208 0 0 0-1.2-1.221 1.242 1.242 0 0 0-1.24 1.221 1.229 1.229 0 0 0 1.24 1.22 1.2 1.2 0 0 0 1.195-1.222zm-2.081 13.9h1.721v-10h-1.721v10zm11.962-2.781c0-1.5-.94-2.461-2.641-3.021l-1.08-.36c-1.18-.38-1.54-.76-1.54-1.4 0-.74.74-1.16 1.68-1.16a2.7 2.7 0 0 1 2.12 1.04l1.121-1.08a3.878 3.878 0 0 0-3.2-1.441c-1.981 0-3.381 1.1-3.381 2.721 0 1.4.86 2.38 2.481 2.9l.98.32c1.3.42 1.78.9 1.78 1.6a1.522 1.522 0 0 1-1.76 1.36 2.685 2.685 0 0 1-2.561-1.58l-1.4.76a3.974 3.974 0 0 0 3.921 2.321c2.014.002 3.475-1.021 3.475-2.979zm8.6 2.781h1.861v-14.2h-1.861v14.2zm11.262-.141v-1.54a3.808 3.808 0 0 1-1.221.2 1.44 1.44 0 0 1-1.66-1.7V815.9h2.881v-1.58h-2.881v-2.78h-1.72v2.78h-2.121v1.58h2.121v5.461a2.816 2.816 0 0 0 3.06 3.061 4.763 4.763 0 0 0 1.534-.24zm1.779-4.861a5.005 5.005 0 0 0 4.9 5.2 4.39 4.39 0 0 0 3.521-1.741v1.541h1.72v-10h-1.72v1.541a4.39 4.39 0 0 0-3.521-1.741 5.005 5.005 0 0 0-4.907 5.201zm8.562 0a3.417 3.417 0 1 1-3.4-3.62 3.415 3.415 0 0 1 3.393 3.621zm5.318 5h1.72v-15h-1.72v15zm7.56-13.9a1.208 1.208 0 0 0-1.2-1.221 1.242 1.242 0 0 0-1.24 1.221 1.229 1.229 0 0 0 1.24 1.22 1.2 1.2 0 0 0 1.193-1.22zm-2.08 13.9h1.72v-10h-1.72v10zm4.7-5a5.005 5.005 0 0 0 4.9 5.2 4.39 4.39 0 0 0 3.521-1.741v1.541h1.72v-10h-1.72v1.541a4.39 4.39 0 0 0-3.521-1.741 5.005 5.005 0 0 0-4.907 5.201zm8.562 0a3.417 3.417 0 1 1-3.4-3.62 3.415 3.415 0 0 1 3.393 3.621zm5.318 5h1.72v-4.962c0-2.34 1.281-3.66 2.9-3.66 1.4 0 2.361 1.04 2.361 2.72v5.9h1.7v-6.162c0-2.48-1.54-4.041-3.781-4.041a3.537 3.537 0 0 0-3.181 1.741v-1.536h-1.72v10zm24.9-4.161l5.121-6.882v11.043h1.84v-14.2h-1.68l-5.286 7.08-5.282-7.081h-1.7v14.2h1.86V813.28zm20.461-.841a5.232 5.232 0 1 0-5.222 5.2 5.134 5.134 0 0 0 5.217-5.197zm-8.7 0a3.473 3.473 0 1 1 3.48 3.6 3.437 3.437 0 0 1-3.487-3.597zm16.9 4.861v-1.54a3.8 3.8 0 0 1-1.22.2 1.44 1.44 0 0 1-1.661-1.7V815.9h2.881v-1.58h-2.881v-2.78h-1.72v2.78h-2.121v1.58h2.121v5.461a2.816 2.816 0 0 0 3.061 3.061 4.756 4.756 0 0 0 1.534-.24zm4.779-13.762a1.208 1.208 0 0 0-1.2-1.221 1.242 1.242 0 0 0-1.24 1.221 1.229 1.229 0 0 0 1.24 1.22 1.2 1.2 0 0 0 1.194-1.217zm-2.08 13.9h1.72v-10h-1.72v10zm15.142-5a5.231 5.231 0 1 0-5.221 5.2 5.133 5.133 0 0 0 5.215-5.196zm-8.7 0a3.473 3.473 0 1 1 3.481 3.6 3.437 3.437 0 0 1-3.489-3.596zm11.66 5h1.72v-4.962c0-2.34 1.281-3.66 2.9-3.66 1.4 0 2.36 1.04 2.36 2.72v5.9h1.7v-6.162c0-2.48-1.54-4.041-3.781-4.041a3.537 3.537 0 0 0-3.181 1.741v-1.533h-1.72v10zm11.96-4.741h5.1v-1.721h-5.1v1.721zm7.24 2.42a5.485 5.485 0 0 0 4.981 2.561c2.641 0 4.521-1.521 4.521-3.941 0-2.1-1.2-3.3-3.3-4.1l-1.72-.66c-1.44-.54-2.141-1.081-2.141-2.281 0-1.18 1.161-1.96 2.561-1.96a3.516 3.516 0 0 1 2.821 1.4l1.36-1.2a5.182 5.182 0 0 0-4.141-1.941c-2.541 0-4.441 1.461-4.441 3.781 0 1.941 1 3.1 3.221 3.921l1.88.72c1.321.5 2.041 1.261 2.041 2.4 0 1.32-1.161 2.12-2.621 2.12a3.969 3.969 0 0 1-3.521-1.94zm17.582 2.18v-1.54a3.813 3.813 0 0 1-1.221.2 1.44 1.44 0 0 1-1.66-1.7V815.9h2.881v-1.58h-2.889v-2.78h-1.721v2.78h-2.12v1.58h2.12v5.461a2.816 2.816 0 0 0 3.061 3.061 4.767 4.767 0 0 0 1.541-.24zm2.7.141h1.721v-4.962c0-2.34 1.38-3.44 2.64-3.44a2.516 2.516 0 0 1 .941.16V814.3a3.566 3.566 0 0 0-.781-.08 2.976 2.976 0 0 0-2.8 2.041v-1.941h-1.721v10zm6.681-5a5.273 5.273 0 0 0 9.682 2.821l-1.36-.94a3.542 3.542 0 0 1-6.582-1.54h8.2a4.907 4.907 0 0 0 .02-.521c-.02-3.2-2.141-5.021-4.761-5.021a5.068 5.068 0 0 0-5.209 5.205zm5.141-3.68a2.992 2.992 0 0 1 3.06 2.62h-6.351a3.269 3.269 0 0 1 3.281-2.616zm13.04 8.541v-1.54a3.8 3.8 0 0 1-1.22.2 1.44 1.44 0 0 1-1.66-1.7V815.9h2.88v-1.58h-2.88v-2.78h-1.731v2.78h-2.12v1.58h2.12v5.461a2.816 2.816 0 0 0 3.061 3.061 4.756 4.756 0 0 0 1.54-.24zm11.642-2.34l-1.5-.84a3.39 3.39 0 0 1-3.12 1.92 3.6 3.6 0 0 1 0-7.2 3.39 3.39 0 0 1 3.12 1.92l1.5-.84a5.182 5.182 0 0 0-4.621-2.681 5.2 5.2 0 1 0 0 10.4 5.182 5.182 0 0 0 4.611-2.675zm2.718 2.481h1.72v-4.962c0-2.34 1.28-3.66 2.9-3.66 1.4 0 2.36 1.04 2.36 2.72v5.9h1.7v-6.162c0-2.48-1.541-4.041-3.781-4.041a3.536 3.536 0 0 0-3.181 1.741v-6.542h-1.72v15zm28.522 0h1.661l3.881-14.2h-1.941l-2.98 11.082-4.1-11.323-4.092 11.322-2.981-11.082h-1.941l3.881 14.2h1.661l3.481-9.643zm17.18-5a5.231 5.231 0 1 0-5.221 5.2 5.133 5.133 0 0 0 5.211-5.198zm-8.7 0a3.473 3.473 0 1 1 3.481 3.6 3.438 3.438 0 0 1-3.493-3.598zm21.322 0a5.231 5.231 0 1 0-5.221 5.2 5.133 5.133 0 0 0 5.209-5.198zm-8.7 0a3.473 3.473 0 1 1 3.481 3.6 3.438 3.438 0 0 1-3.495-3.598zm11.66 5h1.721v-15h-1.721v15zm-570.627 30h1.72V845.9h2.9v-1.58h-2.9v-1.84a1.44 1.44 0 0 1 1.66-1.7 4.029 4.029 0 0 1 1.24.2v-1.521a4.548 4.548 0 0 0-1.56-.26 2.857 2.857 0 0 0-3.061 3.1v2.02H37.4v1.581h2.121v8.422zm5.96-5a5.273 5.273 0 0 0 9.682 2.821l-1.36-.94a3.542 3.542 0 0 1-6.581-1.54h8.2a4.907 4.907 0 0 0 .02-.521c-.02-3.2-2.14-5.021-4.761-5.021a5.069 5.069 0 0 0-5.214 5.203zm5.141-3.68a2.992 2.992 0 0 1 3.061 2.62h-6.355a3.27 3.27 0 0 1 3.281-2.618zm6.979 3.68a5.006 5.006 0 0 0 4.9 5.2 4.387 4.387 0 0 0 3.521-1.741v1.541h1.72v-10h-1.72v1.541a4.387 4.387 0 0 0-3.521-1.741 5.005 5.005 0 0 0-4.918 5.202zm8.562 0a3.417 3.417 0 1 1-3.4-3.62 3.415 3.415 0 0 1 3.387 3.622zm10.74 4.861v-1.54a3.8 3.8 0 0 1-1.22.2 1.44 1.44 0 0 1-1.66-1.7v-5.24h2.881v-1.58h-2.896v-2.78H72.3v2.78h-2.116v1.58H72.3v5.461a2.816 2.816 0 0 0 3.061 3.061 4.758 4.758 0 0 0 1.545-.24zm2.559-3.72c0 2.48 1.48 4.061 3.681 4.061a3.442 3.442 0 0 0 3.081-1.741v1.541h1.721v-10h-1.736v4.961c0 2.3-1.22 3.661-2.781 3.661-1.38 0-2.261-1.06-2.261-2.74v-5.883h-1.72v6.142zm12.22 3.861h1.72v-4.962c0-2.34 1.38-3.44 2.641-3.44a2.515 2.515 0 0 1 .94.16V844.3a3.565 3.565 0 0 0-.78-.08 2.977 2.977 0 0 0-2.8 2.041v-1.941H91.7v10zm6.68-5a5.273 5.273 0 0 0 9.683 2.821l-1.361-.94a3.541 3.541 0 0 1-6.581-1.54h8.2a4.907 4.907 0 0 0 .02-.521c-.02-3.2-2.141-5.021-4.762-5.021a5.069 5.069 0 0 0-5.213 5.201zm5.141-3.68a2.992 2.992 0 0 1 3.061 2.62h-6.341a3.269 3.269 0 0 1 3.266-2.62zm14.241 5.9c0-1.5-.94-2.461-2.64-3.021l-1.081-.36c-1.18-.38-1.54-.76-1.54-1.4 0-.74.74-1.16 1.68-1.16a2.7 2.7 0 0 1 2.121 1.04l1.12-1.08a3.877 3.877 0 0 0-3.2-1.441c-1.98 0-3.381 1.1-3.381 2.721 0 1.4.861 2.38 2.481 2.9l.98.32c1.3.42 1.781.9 1.781 1.6a1.523 1.523 0 0 1-1.761 1.36 2.684 2.684 0 0 1-2.56-1.58l-1.4.76a3.975 3.975 0 0 0 3.921 2.321c2.005.002 3.465-1.021 3.465-2.979zm7.558-2.221a5.006 5.006 0 0 0 4.9 5.2 4.386 4.386 0 0 0 3.52-1.741v1.541h1.721v-10h-1.721v1.541a4.386 4.386 0 0 0-3.52-1.741 5.006 5.006 0 0 0-4.914 5.201zm8.562 0a3.417 3.417 0 1 1-3.4-3.62 3.415 3.415 0 0 1 3.386 3.621zm10.559 1.141c0 2.48 1.48 4.061 3.68 4.061a3.442 3.442 0 0 0 3.081-1.741v1.541h1.721v-10h-1.721v4.961c0 2.3-1.22 3.661-2.781 3.661-1.38 0-2.26-1.06-2.26-2.74v-5.884h-1.72v6.142zm12.22 3.861h1.72v-4.962c0-2.34 1.28-3.66 2.9-3.66 1.4 0 2.36 1.04 2.36 2.72v5.9h1.7v-6.162c0-2.48-1.541-4.041-3.781-4.041a3.537 3.537 0 0 0-3.181 1.741v-1.538h-1.72v10zm14.36-13.9a1.208 1.208 0 0 0-1.2-1.221 1.242 1.242 0 0 0-1.24 1.221 1.229 1.229 0 0 0 1.24 1.22 1.2 1.2 0 0 0 1.186-1.222zm-2.08 13.9h1.72v-10h-1.72v10zm13.122 4.18h1.72V844.32h-1.72v1.541a4.39 4.39 0 0 0-3.521-1.741 5.211 5.211 0 0 0 0 10.4 4.39 4.39 0 0 0 3.521-1.741v5.721zm.14-9.182a3.417 3.417 0 1 1-3.4-3.62 3.415 3.415 0 0 1 3.386 3.621zm5.178 1.141c0 2.48 1.48 4.061 3.681 4.061a3.444 3.444 0 0 0 3.081-1.741v1.541h1.72v-10h-1.72v4.961c0 2.3-1.221 3.661-2.781 3.661-1.38 0-2.261-1.06-2.261-2.74v-5.884h-1.72v6.142zm11.44-1.141a5.273 5.273 0 0 0 9.682 2.821l-1.36-.94a3.542 3.542 0 0 1-6.582-1.54h8.2a4.907 4.907 0 0 0 .02-.521c-.02-3.2-2.14-5.021-4.761-5.021a5.068 5.068 0 0 0-5.213 5.202zm5.141-3.68a2.992 2.992 0 0 1 3.061 2.62h-6.342a3.27 3.27 0 0 1 3.267-2.619zm13.139 8.682h1.721v-5l5.421 5h2.32l-6.021-5.582 4.921-4.421h-2.28l-4.361 3.9v-8.9H217.1v15zm11.28 0h1.721v-4.962c0-2.34 1.28-3.66 2.9-3.66 1.4 0 2.361 1.04 2.361 2.72v5.9h1.7v-6.162c0-2.48-1.54-4.041-3.781-4.041a3.535 3.535 0 0 0-3.18 1.741v-1.538h-1.721v10zm14.361-13.9a1.208 1.208 0 0 0-1.2-1.221 1.243 1.243 0 0 0-1.241 1.221 1.229 1.229 0 0 0 1.241 1.22 1.2 1.2 0 0 0 1.186-1.222zm-2.081 13.9h1.721v-10h-1.721v10zm10.9-.141v-1.54a3.808 3.808 0 0 1-1.221.2 1.44 1.44 0 0 1-1.66-1.7V845.9h2.881v-1.58h-2.881v-2.78h-1.72v2.78h-2.121v1.58h2.121v5.461a2.816 2.816 0 0 0 3.06 3.061 4.763 4.763 0 0 0 1.529-.24zm8.659.141h1.72V845.9h2.9v-1.58h-2.9v-1.84a1.44 1.44 0 0 1 1.661-1.7 4.027 4.027 0 0 1 1.24.2v-1.521a4.545 4.545 0 0 0-1.56-.26 2.857 2.857 0 0 0-3.061 3.1v2.02h-2.121v1.581h2.121v8.422zm5.96-5a5.005 5.005 0 0 0 4.9 5.2 4.388 4.388 0 0 0 3.521-1.741v1.541h1.72v-10h-1.72v1.541a4.388 4.388 0 0 0-3.521-1.741 5.005 5.005 0 0 0-4.912 5.199zm8.562 0a3.417 3.417 0 1 1-3.4-3.62 3.415 3.415 0 0 1 3.388 3.619zm7.038 3.461a4.39 4.39 0 0 0 3.521 1.741 5.211 5.211 0 0 0 0-10.4 4.39 4.39 0 0 0-3.521 1.741v-6.542h-1.72v15h1.72v-1.541zm6.662-3.461a3.408 3.408 0 1 1-3.4-3.62 3.415 3.415 0 0 1 3.388 3.619zm4.718 5h1.721v-4.962c0-2.34 1.38-3.44 2.64-3.44a2.514 2.514 0 0 1 .94.16v-1.78a3.564 3.564 0 0 0-.78-.08 2.976 2.976 0 0 0-2.8 2.041v-1.941h-1.721v10zm9.9-13.9a1.208 1.208 0 0 0-1.2-1.221 1.243 1.243 0 0 0-1.241 1.221 1.229 1.229 0 0 0 1.241 1.22 1.2 1.2 0 0 0 1.189-1.222zm-2.081 13.9h1.721v-10h-1.721v10zm14.562-2.481l-1.5-.84a3.39 3.39 0 0 1-3.121 1.92 3.6 3.6 0 0 1 0-7.2 3.39 3.39 0 0 1 3.121 1.92l1.5-.84a5.18 5.18 0 0 0-4.621-2.681 5.2 5.2 0 1 0 0 10.4 5.18 5.18 0 0 0 4.61-2.678zm8.679 2.481h1.72V845.9h2.9v-1.58h-2.9v-1.84a1.44 1.44 0 0 1 1.661-1.7 4.027 4.027 0 0 1 1.24.2v-1.521a4.547 4.547 0 0 0-1.561-.26 2.857 2.857 0 0 0-3.06 3.1v2.02h-2.121v1.581h2.121v8.422zm7 0h1.72v-4.962c0-2.34 1.38-3.44 2.641-3.44a2.514 2.514 0 0 1 .94.16v-1.78a3.564 3.564 0 0 0-.78-.08 2.976 2.976 0 0 0-2.8 2.041v-1.941h-1.72v10zm17.122-5a5.231 5.231 0 1 0-5.221 5.2 5.133 5.133 0 0 0 5.21-5.201zm-8.7 0a3.473 3.473 0 1 1 3.481 3.6 3.437 3.437 0 0 1-3.494-3.601zm11.66 5h1.72v-4.962c0-2.26 1.141-3.66 2.761-3.66 1.3 0 1.96 1.12 1.96 2.74v5.882h1.721v-4.962c0-2.26 1.12-3.66 2.74-3.66 1.3 0 1.981 1.12 1.981 2.74v5.882h1.72v-6.142c0-2.44-1.32-4.061-3.5-4.061a3.462 3.462 0 0 0-3.281 2.141 3.146 3.146 0 0 0-3.081-2.141 3.364 3.364 0 0 0-3.021 1.741v-1.54h-1.72v10zm28.662-.141v-1.54a3.813 3.813 0 0 1-1.221.2 1.44 1.44 0 0 1-1.66-1.7V845.9h2.881v-1.58h-2.881v-2.78h-1.721v2.78h-2.12v1.58h2.12v5.461a2.816 2.816 0 0 0 3.061 3.061 4.767 4.767 0 0 0 1.528-.24zm2.7.141h1.721v-4.962c0-2.34 1.28-3.66 2.9-3.66 1.4 0 2.361 1.04 2.361 2.72v5.9h1.7v-6.162c0-2.48-1.54-4.041-3.78-4.041a3.536 3.536 0 0 0-3.181 1.741v-6.542h-1.721v15zm11.5-5a5.274 5.274 0 0 0 9.683 2.821l-1.361-.94a3.541 3.541 0 0 1-6.581-1.54h8.2a4.907 4.907 0 0 0 .02-.521c-.02-3.2-2.141-5.021-4.761-5.021a5.069 5.069 0 0 0-5.215 5.2zm5.142-3.68a2.992 2.992 0 0 1 3.06 2.62h-6.341a3.269 3.269 0 0 1 3.266-2.621zm21.261 8.682h1.52l3.4-10h-1.821l-2.42 7.3-2.5-7.3h-1.32l-2.5 7.3-2.42-7.3h-1.8l3.4 10h1.521l2.48-7.2zm16.9-5a5.231 5.231 0 1 0-5.221 5.2 5.133 5.133 0 0 0 5.206-5.203zm-8.7 0a3.473 3.473 0 1 1 3.481 3.6 3.437 3.437 0 0 1-3.498-3.603zm11.66 5h1.72v-4.962c0-2.34 1.381-3.44 2.641-3.44a2.514 2.514 0 0 1 .94.16V844.3a3.564 3.564 0 0 0-.78-.08 2.977 2.977 0 0 0-2.8 2.041v-1.941h-1.72v10zm7.82 0h1.72v-15h-1.72v15zm4.7-5a5.005 5.005 0 0 0 4.9 5.2 4.388 4.388 0 0 0 3.521-1.741v1.541h1.72v-15h-1.72v6.542a4.388 4.388 0 0 0-3.521-1.741 5.005 5.005 0 0 0-4.917 5.196zm8.562 0a3.417 3.417 0 1 1-3.4-3.62 3.415 3.415 0 0 1 3.383 3.617zm5 .261h5.1v-1.721h-5.1v1.721zm8.54 4.741h1.72v-4.962c0-2.34 1.381-3.44 2.641-3.44a2.514 2.514 0 0 1 .94.16V844.3a3.564 3.564 0 0 0-.78-.08 2.978 2.978 0 0 0-2.8 2.041v-1.941h-1.72v10zm6.68-5a5.273 5.273 0 0 0 9.683 2.821l-1.361-.94a3.541 3.541 0 0 1-6.581-1.54h8.2a4.907 4.907 0 0 0 .02-.521c-.02-3.2-2.141-5.021-4.762-5.021a5.069 5.069 0 0 0-5.218 5.196zm5.141-3.68a2.992 2.992 0 0 1 3.061 2.62h-6.36a3.269 3.269 0 0 1 3.28-2.625zm7.76 8.682h1.72v-4.962c0-2.34 1.28-3.66 2.9-3.66 1.4 0 2.36 1.04 2.36 2.72v5.9h1.7v-6.162c0-2.48-1.541-4.041-3.781-4.041a3.536 3.536 0 0 0-3.181 1.741v-1.544h-1.72v10zm21.942-5a5.232 5.232 0 1 0-5.221 5.2 5.133 5.133 0 0 0 5.202-5.207zm-8.7 0a3.473 3.473 0 1 1 3.481 3.6 3.437 3.437 0 0 1-3.502-3.607zm20.1 5h1.52l3.4-10h-1.82l-2.421 7.3-2.5-7.3h-1.32l-2.5 7.3-2.42-7.3h-1.8l3.4 10h1.521l2.48-7.2zm7.278 0h1.72v-4.962c0-2.34 1.281-3.66 2.9-3.66 1.4 0 2.361 1.04 2.361 2.72v5.9h1.7v-6.162c0-2.48-1.54-4.041-3.781-4.041a3.537 3.537 0 0 0-3.181 1.741v-1.544h-1.72v10zm11.5-5a5.273 5.273 0 0 0 9.682 2.821l-1.36-.94a3.542 3.542 0 0 1-6.582-1.54h8.2a4.907 4.907 0 0 0 .02-.521c-.02-3.2-2.14-5.021-4.761-5.021a5.068 5.068 0 0 0-5.218 5.194zm5.141-3.68a2.993 2.993 0 0 1 3.061 2.62h-6.361a3.27 3.27 0 0 1 3.281-2.627zm6.979 3.68a5.006 5.006 0 0 0 4.9 5.2 4.387 4.387 0 0 0 3.521-1.741v1.541h1.72v-15h-1.72v6.542a4.387 4.387 0 0 0-3.521-1.741 5.006 5.006 0 0 0-4.919 5.192zm8.562 0a3.417 3.417 0 1 1-3.4-3.62 3.415 3.415 0 0 1 3.381 3.613zM45.926 880.162l5.121-6.882v11.043h1.84v-14.2h-1.68l-5.281 7.077-5.281-7.081h-1.7v14.2H40.8V873.28zm10.019-.841a5.006 5.006 0 0 0 4.9 5.2 4.387 4.387 0 0 0 3.521-1.741v1.541h1.72v-10h-1.72v1.541a4.387 4.387 0 0 0-3.521-1.741 5.005 5.005 0 0 0-4.901 5.2zm8.562 0a3.417 3.417 0 1 1-3.4-3.62 3.415 3.415 0 0 1 3.4 3.62zm5.318 5h1.72v-4.962c0-2.34 1.38-3.44 2.641-3.44a2.515 2.515 0 0 1 .94.16V874.3a3.565 3.565 0 0 0-.78-.08 2.977 2.977 0 0 0-2.8 2.041v-1.941h-1.72v10zm9.9-13.9a1.208 1.208 0 0 0-1.2-1.221 1.243 1.243 0 0 0-1.24 1.221 1.229 1.229 0 0 0 1.24 1.22 1.2 1.2 0 0 0 1.2-1.221zm-2.08 13.9h1.72v-10h-1.72v10zm15.142-5a5.231 5.231 0 1 0-5.221 5.2 5.133 5.133 0 0 0 5.221-5.2zm-8.7 0a3.473 3.473 0 1 1 3.481 3.6 3.437 3.437 0 0 1-3.483-3.6zm17.3 5h5.081c2.881 0 4.761-1.781 4.761-4.141a3.384 3.384 0 0 0-2.46-3.4 3.219 3.219 0 0 0 1.52-2.9c0-2-1.6-3.76-4.241-3.76h-4.661v14.2zm1.86-8.1V871.8h2.8a2.233 2.233 0 0 1 2.421 2.22 2.187 2.187 0 0 1-2.421 2.2h-2.8zm0 6.421v-4.821h3.321c1.881 0 2.841 1.04 2.841 2.421 0 1.4-.96 2.4-2.861 2.4h-3.3zm10.18-3.321a5.273 5.273 0 0 0 9.682 2.821l-1.36-.94a3.542 3.542 0 0 1-6.582-1.54h8.2a4.907 4.907 0 0 0 .02-.521c-.02-3.2-2.14-5.021-4.761-5.021a5.068 5.068 0 0 0-5.201 5.201zm5.141-3.68a2.992 2.992 0 0 1 3.061 2.62h-6.342a3.27 3.27 0 0 1 3.279-2.62zm7.759 8.682h1.721v-15h-1.721v15zm5.48 0h1.721v-15h-1.721v15zm5.34-3.861c0 2.48 1.481 4.061 3.681 4.061a3.443 3.443 0 0 0 3.081-1.741v1.541h1.72v-10h-1.72v4.961c0 2.3-1.22 3.661-2.781 3.661-1.38 0-2.26-1.06-2.26-2.74v-5.885h-1.721v6.142zm21.3 1.38l-1.5-.84a3.39 3.39 0 0 1-3.12 1.92 3.6 3.6 0 0 1 0-7.2 3.39 3.39 0 0 1 3.12 1.92l1.5-.84a5.182 5.182 0 0 0-4.621-2.681 5.2 5.2 0 1 0 0 10.4 5.182 5.182 0 0 0 4.622-2.679zm11.8 0l-1.5-.84a3.39 3.39 0 0 1-3.12 1.92 3.6 3.6 0 0 1 0-7.2 3.39 3.39 0 0 1 3.12 1.92l1.5-.84a5.182 5.182 0 0 0-4.621-2.681 5.2 5.2 0 1 0 0 10.4 5.182 5.182 0 0 0 4.622-2.679zm4.8-11.422a1.208 1.208 0 0 0-1.2-1.221 1.243 1.243 0 0 0-1.241 1.221 1.23 1.23 0 0 0 1.241 1.22 1.2 1.2 0 0 0 1.199-1.22zm-2.08 13.9h1.72v-10h-1.72v10zm10.859 0h1.721v-4.962c0-2.26 1.14-3.66 2.761-3.66 1.3 0 1.96 1.12 1.96 2.74v5.882h1.72v-4.962c0-2.26 1.121-3.66 2.741-3.66 1.3 0 1.981 1.12 1.981 2.74v5.882h1.72v-6.142c0-2.44-1.32-4.061-3.5-4.061a3.463 3.463 0 0 0-3.281 2.141 3.144 3.144 0 0 0-3.08-2.141 3.363 3.363 0 0 0-3.021 1.741v-1.538h-1.721v10zm20.281-13.9a1.208 1.208 0 0 0-1.2-1.221 1.242 1.242 0 0 0-1.24 1.221 1.229 1.229 0 0 0 1.24 1.22 1.2 1.2 0 0 0 1.199-1.22zm-2.08 13.9h1.72v-10h-1.72v10zm5.48 0h1.72v-15h-1.72v15zm5.48 0h1.72v-15h-1.72v15zm7.62-.441a1.71 1.71 0 0 0 .28-.9 1.48 1.48 0 1 0-2.96 0 1.491 1.491 0 0 0 .82 1.341l-1.34 2.86h1.14zm17.942-2.04l-1.5-.84a3.392 3.392 0 0 1-3.121 1.92 3.6 3.6 0 0 1 0-7.2 3.392 3.392 0 0 1 3.121 1.92l1.5-.84a5.181 5.181 0 0 0-4.621-2.681 5.2 5.2 0 1 0 0 10.4 5.181 5.181 0 0 0 4.62-2.676zm2.718 2.481h1.72v-4.962c0-2.34 1.381-3.44 2.641-3.44a2.514 2.514 0 0 1 .94.16V874.3a3.564 3.564 0 0 0-.78-.08 2.977 2.977 0 0 0-2.8 2.041v-1.941h-1.72v10zm6.68-5a5.273 5.273 0 0 0 9.682 2.821l-1.36-.94a3.542 3.542 0 0 1-6.582-1.54h8.2a4.907 4.907 0 0 0 .02-.521c-.02-3.2-2.14-5.021-4.761-5.021a5.068 5.068 0 0 0-5.2 5.202zm5.141-3.68a2.992 2.992 0 0 1 3.061 2.62h-6.342a3.27 3.27 0 0 1 3.28-2.619zm6.979 3.68a5.006 5.006 0 0 0 4.9 5.2 4.387 4.387 0 0 0 3.521-1.741v1.541h1.721v-10h-1.721v1.541a4.387 4.387 0 0 0-3.521-1.741 5.006 5.006 0 0 0-4.901 5.201zm8.562 0a3.417 3.417 0 1 1-3.4-3.62 3.415 3.415 0 0 1 3.399 3.621zm10.74 4.862v-1.541a3.8 3.8 0 0 1-1.221.2 1.44 1.44 0 0 1-1.66-1.7V875.9h2.881v-1.58h-2.881v-2.78h-1.72v2.78h-2.121v1.58h2.121v5.461a2.816 2.816 0 0 0 3.06 3.061 4.787 4.787 0 0 0 1.54-.239zm4.779-13.763a1.208 1.208 0 0 0-1.2-1.221 1.243 1.243 0 0 0-1.241 1.221 1.23 1.23 0 0 0 1.241 1.22 1.2 1.2 0 0 0 1.199-1.219zm-2.08 13.9h1.72v-10h-1.72v10zm5.48 0h1.72v-4.962c0-2.34 1.28-3.66 2.9-3.66 1.4 0 2.36 1.04 2.36 2.72v5.9h1.7v-6.162c0-2.48-1.541-4.041-3.781-4.041a3.536 3.536 0 0 0-3.181 1.741v-1.535h-1.72v10zm21.6-.581v-9.418h-1.721v1.541a4.256 4.256 0 0 0-3.48-1.741 5.1 5.1 0 0 0 0 10.183 4.271 4.271 0 0 0 3.48-1.761v1.14a3.2 3.2 0 0 1-3.34 3.461 4.279 4.279 0 0 1-3.5-1.68l-1.2 1.2a5.937 5.937 0 0 0 4.721 2.04c2.84-.003 5.041-1.62 5.041-4.961zm-8.342-4.541a3.383 3.383 0 1 1 3.381 3.5 3.332 3.332 0 0 1-3.38-3.497zm17.46 5.122h1.72v-4.962c0-2.34 1.28-3.66 2.9-3.66 1.4 0 2.36 1.04 2.36 2.72v5.9h1.7v-6.162c0-2.48-1.541-4.041-3.781-4.041a3.537 3.537 0 0 0-3.181 1.741v-1.535h-1.72v10zm11.5-5a5.005 5.005 0 0 0 4.9 5.2 4.39 4.39 0 0 0 3.521-1.741v1.541h1.72v-10h-1.72v1.541a4.39 4.39 0 0 0-3.521-1.741 5.005 5.005 0 0 0-4.899 5.202zm8.562 0a3.417 3.417 0 1 1-3.4-3.62 3.415 3.415 0 0 1 3.401 3.622zm10.739 4.862v-1.541a3.8 3.8 0 0 1-1.22.2 1.44 1.44 0 0 1-1.66-1.7v-5.24h2.88v-1.58h-2.88v-2.78h-1.721v2.78h-2.12v1.58h2.12v5.461a2.816 2.816 0 0 0 3.061 3.061 4.786 4.786 0 0 0 1.541-.239zm2.559-3.721c0 2.48 1.48 4.061 3.681 4.061a3.443 3.443 0 0 0 3.081-1.741v1.541h1.72v-10h-1.72v4.961c0 2.3-1.221 3.661-2.781 3.661-1.38 0-2.261-1.06-2.261-2.74v-5.883h-1.72v6.142zm12.22 3.861h1.721v-4.962c0-2.34 1.38-3.44 2.64-3.44a2.523 2.523 0 0 1 .941.16V874.3a3.579 3.579 0 0 0-.781-.08 2.976 2.976 0 0 0-2.8 2.041v-1.941h-1.721v10zm6.7-5a5.006 5.006 0 0 0 4.9 5.2 4.387 4.387 0 0 0 3.521-1.741v1.541h1.721v-10h-1.721v1.541a4.387 4.387 0 0 0-3.521-1.741 5.006 5.006 0 0 0-4.899 5.2zm8.562 0a3.417 3.417 0 1 1-3.4-3.62 3.415 3.415 0 0 1 3.401 3.62zm5.319 5h1.72v-15h-1.72v15zm5.159-4.741h5.1v-1.721h-5.1v1.721zm15.022 1.96c0-1.5-.94-2.461-2.641-3.021l-1.08-.36c-1.18-.38-1.54-.76-1.54-1.4 0-.74.74-1.16 1.68-1.16a2.7 2.7 0 0 1 2.121 1.04l1.12-1.08a3.877 3.877 0 0 0-3.2-1.441c-1.98 0-3.381 1.1-3.381 2.721 0 1.4.861 2.38 2.481 2.9l.98.32c1.3.42 1.781.9 1.781 1.6a1.523 1.523 0 0 1-1.761 1.36 2.684 2.684 0 0 1-2.56-1.58l-1.4.76a3.974 3.974 0 0 0 3.921 2.321c2.02.003 3.48-1.02 3.48-2.978zm8.26 2.641v-1.541a3.8 3.8 0 0 1-1.22.2 1.44 1.44 0 0 1-1.661-1.7v-5.24h2.881v-1.58h-2.881v-2.78h-1.72v2.78h-2.121v1.58h2.121v5.461a2.816 2.816 0 0 0 3.061 3.061 4.786 4.786 0 0 0 1.541-.239zm2.7.14h1.72v-4.962c0-2.34 1.381-3.44 2.641-3.44a2.514 2.514 0 0 1 .94.16V874.3a3.564 3.564 0 0 0-.78-.08 2.977 2.977 0 0 0-2.8 2.041v-1.941h-1.72v10zm6.68-5a5.273 5.273 0 0 0 9.682 2.821l-1.36-.94a3.542 3.542 0 0 1-6.582-1.54h8.2a4.907 4.907 0 0 0 .02-.521c-.02-3.2-2.14-5.021-4.761-5.021a5.068 5.068 0 0 0-5.199 5.201zm5.141-3.68a2.992 2.992 0 0 1 3.061 2.62h-6.342a3.27 3.27 0 0 1 3.281-2.62zm13.041 8.542v-1.541a3.8 3.8 0 0 1-1.22.2 1.44 1.44 0 0 1-1.661-1.7V875.9h2.881v-1.58h-2.881v-2.78h-1.72v2.78h-2.121v1.58h2.121v5.461a2.816 2.816 0 0 0 3.06 3.061 4.787 4.787 0 0 0 1.541-.239zm11.641-2.341l-1.5-.84a3.391 3.391 0 0 1-3.121 1.92 3.6 3.6 0 0 1 0-7.2 3.391 3.391 0 0 1 3.121 1.92l1.5-.84a5.181 5.181 0 0 0-4.621-2.681 5.2 5.2 0 1 0 0 10.4 5.181 5.181 0 0 0 4.621-2.679zm2.718 2.481h1.72v-4.962c0-2.34 1.281-3.66 2.9-3.66 1.4 0 2.361 1.04 2.361 2.72v5.9h1.7v-6.162c0-2.48-1.54-4.041-3.781-4.041a3.538 3.538 0 0 0-3.181 1.741v-6.542h-1.72v15zm17.66 4.18h1.72v-5.721a4.39 4.39 0 0 0 3.521 1.741 5.211 5.211 0 0 0 0-10.4 4.39 4.39 0 0 0-3.521 1.741v-1.544h-1.72v14.18zm8.382-9.182a3.408 3.408 0 1 1-3.4-3.62 3.415 3.415 0 0 1 3.4 3.62zm6.819-8.9a1.208 1.208 0 0 0-1.2-1.221 1.242 1.242 0 0 0-1.24 1.221 1.229 1.229 0 0 0 1.24 1.22 1.2 1.2 0 0 0 1.2-1.221zm-2.081 13.9h1.721v-10h-1.721v10zm4.7-5a5.273 5.273 0 0 0 9.682 2.821l-1.36-.94a3.542 3.542 0 0 1-6.582-1.54h8.2a4.907 4.907 0 0 0 .02-.521c-.02-3.2-2.14-5.021-4.761-5.021a5.069 5.069 0 0 0-5.199 5.201zm5.141-3.68a2.992 2.992 0 0 1 3.061 2.62h-6.342a3.271 3.271 0 0 1 3.281-2.62zm16.842 6.2l-1.5-.84a3.39 3.39 0 0 1-3.121 1.92 3.6 3.6 0 0 1 0-7.2 3.39 3.39 0 0 1 3.121 1.92l1.5-.84a5.183 5.183 0 0 0-4.622-2.681 5.2 5.2 0 1 0 0 10.4 5.183 5.183 0 0 0 4.622-2.678zm1.937-2.521a5.273 5.273 0 0 0 9.683 2.821l-1.361-.94a3.541 3.541 0 0 1-6.581-1.54h8.2a4.907 4.907 0 0 0 .02-.521c-.02-3.2-2.141-5.021-4.761-5.021a5.069 5.069 0 0 0-5.2 5.202zm5.141-3.68a2.992 2.992 0 0 1 3.061 2.62h-6.341a3.269 3.269 0 0 1 3.28-2.619zm14.241 5.9c0-1.5-.94-2.461-2.641-3.021l-1.08-.36c-1.18-.38-1.54-.76-1.54-1.4 0-.74.74-1.16 1.68-1.16a2.7 2.7 0 0 1 2.121 1.04l1.12-1.08a3.877 3.877 0 0 0-3.2-1.441c-1.98 0-3.381 1.1-3.381 2.721 0 1.4.861 2.38 2.481 2.9l.98.32c1.3.42 1.781.9 1.781 1.6a1.523 1.523 0 0 1-1.761 1.36 2.684 2.684 0 0 1-2.56-1.58l-1.4.76a3.975 3.975 0 0 0 3.921 2.321c2.019.003 3.479-1.02 3.479-2.978zm13.42 2.641v-1.541a3.8 3.8 0 0 1-1.22.2 1.44 1.44 0 0 1-1.661-1.7v-5.24h2.881v-1.58h-2.881v-2.78h-1.72v2.78h-2.121v1.58h2.121v5.461a2.816 2.816 0 0 0 3.061 3.061 4.786 4.786 0 0 0 1.54-.239zm2.7.14h1.72v-4.962c0-2.34 1.281-3.66 2.9-3.66 1.4 0 2.36 1.04 2.36 2.72v5.9h1.7v-6.162c0-2.48-1.541-4.041-3.781-4.041a3.537 3.537 0 0 0-3.181 1.741v-6.542h-1.72v15zm11.5-5a5.005 5.005 0 0 0 4.9 5.2 4.388 4.388 0 0 0 3.521-1.741v1.541h1.72v-10h-1.72v1.541a4.388 4.388 0 0 0-3.521-1.741 5.005 5.005 0 0 0-4.901 5.2zm8.562 0a3.417 3.417 0 1 1-3.4-3.62 3.415 3.415 0 0 1 3.399 3.62zm10.739 4.862v-1.541a3.8 3.8 0 0 1-1.22.2 1.44 1.44 0 0 1-1.66-1.7V875.9h2.88v-1.58h-2.88v-2.78h-1.722v2.78h-2.12v1.58h2.12v5.461a2.816 2.816 0 0 0 3.061 3.061 4.786 4.786 0 0 0 1.54-.239zM38.684 918.5H40.4v-5.721a4.387 4.387 0 0 0 3.521 1.741 5.211 5.211 0 0 0 0-10.4 4.387 4.387 0 0 0-3.521 1.741v-1.541h-1.72v14.18zm8.382-9.182a3.407 3.407 0 1 1-3.4-3.62 3.415 3.415 0 0 1 3.4 3.623zm4.6 1.141c0 2.48 1.48 4.061 3.681 4.061a3.442 3.442 0 0 0 3.081-1.741v1.541h1.72v-10h-1.72v4.961c0 2.3-1.22 3.661-2.781 3.661-1.38 0-2.261-1.06-2.261-2.74v-5.882h-1.72v6.142zm18.7 1.08c0-1.5-.94-2.461-2.641-3.021l-1.08-.36c-1.18-.38-1.54-.76-1.54-1.4 0-.74.74-1.16 1.68-1.16a2.7 2.7 0 0 1 2.12 1.04l1.12-1.08a3.878 3.878 0 0 0-3.2-1.441c-1.98 0-3.381 1.1-3.381 2.721 0 1.4.86 2.38 2.481 2.9l.98.32c1.3.42 1.781.9 1.781 1.6a1.523 1.523 0 0 1-1.761 1.36 2.685 2.685 0 0 1-2.561-1.58l-1.4.76a3.974 3.974 0 0 0 3.921 2.321c2.021.004 3.481-1.019 3.481-2.977zm2.959 2.781h1.72v-4.962c0-2.34 1.28-3.66 2.9-3.66 1.4 0 2.36 1.04 2.36 2.72v5.9h1.7v-6.162c0-2.48-1.54-4.041-3.781-4.041a3.536 3.536 0 0 0-3.181 1.741v-6.542h-1.72v15zm22.741-.14v-1.541a3.8 3.8 0 0 1-1.22.2 1.44 1.44 0 0 1-1.66-1.7V905.9h2.881v-1.58h-2.882v-2.78h-1.72v2.78h-2.121v1.58h2.121v5.461a2.816 2.816 0 0 0 3.061 3.061 4.788 4.788 0 0 0 1.54-.239zm2.7.14h1.72v-4.962c0-2.34 1.281-3.66 2.9-3.66 1.4 0 2.36 1.04 2.36 2.72v5.9h1.7v-6.162c0-2.48-1.54-4.041-3.781-4.041a3.537 3.537 0 0 0-3.181 1.741v-6.542h-1.72v15zm11.5-5a5.273 5.273 0 0 0 9.682 2.821l-1.36-.94a3.542 3.542 0 0 1-6.582-1.54h8.2a4.907 4.907 0 0 0 .02-.521c-.02-3.2-2.14-5.021-4.761-5.021a5.068 5.068 0 0 0-5.2 5.202zm5.141-3.68a2.993 2.993 0 0 1 3.061 2.62h-6.342a3.27 3.27 0 0 1 3.28-2.619zm14.859 7.141a4.39 4.39 0 0 0 3.521 1.741 5.211 5.211 0 0 0 0-10.4 4.39 4.39 0 0 0-3.521 1.741v-6.542h-1.72v15h1.72v-1.541zm6.662-3.461a3.408 3.408 0 1 1-3.4-3.62 3.415 3.415 0 0 1 3.399 3.621zm14.38 0a5.231 5.231 0 1 0-5.221 5.2 5.133 5.133 0 0 0 5.22-5.199zm-8.7 0a3.473 3.473 0 1 1 3.481 3.6 3.438 3.438 0 0 1-3.489-3.599zm11.52 1.141c0 2.48 1.481 4.061 3.681 4.061a3.443 3.443 0 0 0 3.081-1.741v1.541h1.72v-10h-1.72v4.961c0 2.3-1.221 3.661-2.781 3.661-1.38 0-2.26-1.06-2.26-2.74v-5.884h-1.721v6.142zm12.22 3.861h1.721v-4.962c0-2.34 1.28-3.66 2.9-3.66 1.4 0 2.361 1.04 2.361 2.72v5.9h1.7v-6.162c0-2.48-1.54-4.041-3.78-4.041a3.536 3.536 0 0 0-3.181 1.741v-1.538h-1.721v10zm11.5-5a5.006 5.006 0 0 0 4.9 5.2 4.387 4.387 0 0 0 3.521-1.741v1.541h1.721v-15h-1.721v6.542a4.387 4.387 0 0 0-3.521-1.741 5.006 5.006 0 0 0-4.903 5.198zm8.562 0a3.417 3.417 0 1 1-3.4-3.62 3.415 3.415 0 0 1 3.397 3.619zm4.538 0a5.006 5.006 0 0 0 4.9 5.2 4.386 4.386 0 0 0 3.52-1.741v1.541h1.721v-10h-1.721v1.541a4.386 4.386 0 0 0-3.52-1.741 5.006 5.006 0 0 0-4.903 5.199zm8.562 0a3.417 3.417 0 1 1-3.4-3.62 3.415 3.415 0 0 1 3.397 3.619zm5.319 5h1.72v-4.962c0-2.34 1.38-3.44 2.641-3.44a2.514 2.514 0 0 1 .94.16v-1.78a3.564 3.564 0 0 0-.78-.08 2.977 2.977 0 0 0-2.8 2.041v-1.941h-1.72v10zm9.9-13.9a1.208 1.208 0 0 0-1.2-1.221 1.242 1.242 0 0 0-1.24 1.221 1.229 1.229 0 0 0 1.24 1.22 1.2 1.2 0 0 0 1.197-1.222zm-2.08 13.9h1.72v-10h-1.72v10zm4.7-5a5.273 5.273 0 0 0 9.682 2.821l-1.36-.94a3.542 3.542 0 0 1-6.582-1.54h8.2a4.907 4.907 0 0 0 .02-.521c-.02-3.2-2.14-5.021-4.761-5.021a5.068 5.068 0 0 0-5.202 5.2zm5.141-3.68a2.993 2.993 0 0 1 3.061 2.62h-6.342a3.27 3.27 0 0 1 3.278-2.621zm14.241 5.9c0-1.5-.941-2.461-2.641-3.021l-1.08-.36c-1.181-.38-1.541-.76-1.541-1.4 0-.74.741-1.16 1.681-1.16a2.7 2.7 0 0 1 2.12 1.04l1.121-1.08a3.879 3.879 0 0 0-3.2-1.441c-1.981 0-3.381 1.1-3.381 2.721 0 1.4.86 2.38 2.481 2.9l.98.32c1.3.42 1.78.9 1.78 1.6a1.522 1.522 0 0 1-1.76 1.36 2.685 2.685 0 0 1-2.561-1.58l-1.4.76a3.973 3.973 0 0 0 3.921 2.321c2.016.001 3.477-1.022 3.477-2.98zm18-2.221a5.231 5.231 0 1 0-5.221 5.2 5.133 5.133 0 0 0 5.218-5.2zm-8.7 0a3.473 3.473 0 1 1 3.481 3.6 3.438 3.438 0 0 1-3.486-3.6zm12.34 5h1.721V905.9h2.9v-1.58h-2.9v-1.84a1.44 1.44 0 0 1 1.66-1.7 4.027 4.027 0 0 1 1.24.2v-1.521a4.545 4.545 0 0 0-1.56-.26 2.857 2.857 0 0 0-3.061 3.1v2.02h-2.12v1.581h2.12v8.422zm18.342-2.781c0-1.5-.94-2.461-2.641-3.021l-1.08-.36c-1.18-.38-1.54-.76-1.54-1.4 0-.74.74-1.16 1.68-1.16a2.705 2.705 0 0 1 2.121 1.04l1.12-1.08a3.878 3.878 0 0 0-3.2-1.441c-1.98 0-3.381 1.1-3.381 2.721 0 1.4.86 2.38 2.481 2.9l.98.32c1.3.42 1.78.9 1.78 1.6a1.522 1.522 0 0 1-1.76 1.36 2.686 2.686 0 0 1-2.561-1.58l-1.4.76a3.974 3.974 0 0 0 3.921 2.321c2.015.003 3.475-1.02 3.475-2.978zm8.26 2.641v-1.541a3.8 3.8 0 0 1-1.221.2 1.44 1.44 0 0 1-1.66-1.7v-5.24h2.881v-1.58h-2.881v-2.78h-1.72v2.78h-2.121v1.58h2.121v5.461a2.816 2.816 0 0 0 3.06 3.061 4.787 4.787 0 0 0 1.536-.239zm5.359 4.32l6.562-14.183h-1.921l-3.42 7.582-3.441-7.582h-1.9l4.381 9.482-2.18 4.7h1.92zm8.78-4.18h1.72v-15h-1.72v15zm4.7-5a5.273 5.273 0 0 0 9.682 2.821l-1.36-.94a3.542 3.542 0 0 1-6.582-1.54h8.2a4.907 4.907 0 0 0 .02-.521c-.02-3.2-2.141-5.021-4.761-5.021a5.068 5.068 0 0 0-5.204 5.201zm5.141-3.68a2.993 2.993 0 0 1 3.061 2.62h-6.342a3.269 3.269 0 0 1 3.276-2.62zm12.359 3.68a5.005 5.005 0 0 0 4.9 5.2 4.388 4.388 0 0 0 3.521-1.741v1.541h1.72v-10h-1.72v1.541a4.388 4.388 0 0 0-3.521-1.741 5.005 5.005 0 0 0-4.905 5.2zm8.562 0a3.417 3.417 0 1 1-3.4-3.62 3.415 3.415 0 0 1 3.395 3.62zm5.318 5h1.72v-4.962c0-2.34 1.281-3.66 2.9-3.66 1.4 0 2.361 1.04 2.361 2.72v5.9h1.7v-6.162c0-2.48-1.54-4.041-3.781-4.041a3.538 3.538 0 0 0-3.181 1.741v-1.537h-1.72v10zm11.5-5a5.005 5.005 0 0 0 4.9 5.2 4.388 4.388 0 0 0 3.521-1.741v1.541h1.72v-15h-1.72v6.542a4.388 4.388 0 0 0-3.521-1.741 5.005 5.005 0 0 0-4.905 5.199zm8.562 0a3.417 3.417 0 1 1-3.4-3.62 3.415 3.415 0 0 1 3.395 3.62zm19.78 2.521l-1.5-.84a3.39 3.39 0 0 1-3.121 1.92 3.6 3.6 0 0 1 0-7.2 3.39 3.39 0 0 1 3.121 1.92l1.5-.84a5.18 5.18 0 0 0-4.621-2.681 5.2 5.2 0 1 0 0 10.4 5.18 5.18 0 0 0 4.616-2.679zm12.38-2.521a5.231 5.231 0 1 0-5.221 5.2 5.133 5.133 0 0 0 5.216-5.2zm-8.7 0a3.473 3.473 0 1 1 3.481 3.6 3.438 3.438 0 0 1-3.488-3.6zm11.66 5h1.721v-4.962c0-2.26 1.14-3.66 2.76-3.66 1.3 0 1.961 1.12 1.961 2.74v5.882h1.72v-4.962c0-2.26 1.12-3.66 2.741-3.66 1.3 0 1.98 1.12 1.98 2.74v5.882h1.721v-6.142c0-2.44-1.321-4.061-3.5-4.061a3.462 3.462 0 0 0-3.281 2.141 3.145 3.145 0 0 0-3.081-2.141 3.362 3.362 0 0 0-3.02 1.741v-1.539h-1.721v10zm18.921 0h1.72V905.9h2.9v-1.58h-2.9v-1.84a1.44 1.44 0 0 1 1.661-1.7 4.027 4.027 0 0 1 1.24.2v-1.521a4.545 4.545 0 0 0-1.56-.26 2.857 2.857 0 0 0-3.061 3.1v2.02h-2.121v1.581h2.121v8.422zm16.4-5a5.231 5.231 0 1 0-5.221 5.2 5.133 5.133 0 0 0 5.216-5.2zm-8.7 0a3.473 3.473 0 1 1 3.481 3.6 3.438 3.438 0 0 1-3.488-3.6zm11.66 5h1.72v-4.962c0-2.34 1.381-3.44 2.641-3.44a2.514 2.514 0 0 1 .94.16V904.3a3.564 3.564 0 0 0-.78-.08 2.978 2.978 0 0 0-2.8 2.041v-1.941h-1.72v10zm13.241-.14v-1.541a3.8 3.8 0 0 1-1.22.2 1.44 1.44 0 0 1-1.66-1.7v-5.24h2.88v-1.58h-2.88v-2.78h-1.721v2.78h-2.12v1.58h2.12v5.461a2.816 2.816 0 0 0 3.061 3.061 4.786 4.786 0 0 0 1.533-.239zm5.08-1.2a1.481 1.481 0 1 0-1.48 1.5 1.507 1.507 0 0 0 1.473-1.499z"/><path id="Stretch_Your_Limits_copy" data-name="Stretch Your Limits copy" class="cls-1" d="M48.461 740.547c5.935 0 10.01-3.561 10.049-8.665.04-4.233-2.611-6.923-6.686-8.387l-1.978-.712c-2.967-1.068-4.352-1.741-4.352-3.244 0-1.464 1.7-2.137 3.4-2.137a6.248 6.248 0 0 1 4.866 2.335l4.115-4.352a11.722 11.722 0 0 0-9.06-3.878c-5.618 0-9.693 3.205-9.693 8.665 0 3.837 2.532 6.567 7.082 8.11l1.978.673c2.809.949 3.917 1.938 3.917 3.363 0 1.345-1.306 2.334-3.4 2.334a7.349 7.349 0 0 1-5.816-3.205l-4.827 4.075a12.318 12.318 0 0 0 10.405 5.025zm21.466-.475h6.33V718H83.5v-6.014H62.766V718h7.161v22.076zm19.8 0h6.291V728.48h1.029l9.337 11.592h7.557l-9.931-12.383c3.561-1.266 5.5-3.6 5.5-7.24a8.293 8.293 0 0 0-8.7-8.467H89.731v28.09zm6.291-16.933v-5.381h4.036c1.859 0 3.2.989 3.2 2.691 0 1.622-1.345 2.69-3.2 2.69h-4.032zm22.3 16.933h17.8v-6.014h-11.505v-5.024h9.139v-6.014h-9.139V718h11.513v-6.014h-17.8v28.09zm30.052 0h6.33V718h7.24v-6.014h-20.727V718h7.161v22.076zm31.673.475a14.521 14.521 0 0 0 13.135-7.676l-5.539-3.006a8.428 8.428 0 1 1 0-7.676l5.539-3.006a14.644 14.644 0 1 0-13.131 21.364zm19.217-.475h6.291v-11.117h11.319v11.117h6.291v-28.09h-6.291v11h-11.315v-11h-6.291v28.09zm49.968 0h6.331v-11.79l10.247-16.3h-7.32l-6.132 10.128-6.053-10.128h-7.32l10.247 16.261v11.829zm32.784.475a14.52 14.52 0 1 0-14.52-14.52 14.555 14.555 0 0 0 14.524 14.52zm0-6.093a8.432 8.432 0 1 1 8.15-8.427 8.335 8.335 0 0 1-8.146 8.427zm32.513 6.093c6.726 0 11.552-4.59 11.552-11.592v-16.973h-6.29v17.052c0 3.363-2.137 5.42-5.262 5.42s-5.262-2.057-5.262-5.42v-17.052h-6.291v16.973c.004 7.002 4.791 11.592 11.557 11.592zm19.572-.475h6.291V728.48h1.028l9.337 11.592h7.557l-9.931-12.383c3.561-1.266 5.5-3.6 5.5-7.24a8.294 8.294 0 0 0-8.7-8.467H334.1v28.09zm6.291-16.933v-5.381h4.035c1.86 0 3.2.989 3.2 2.691 0 1.622-1.345 2.69-3.2 2.69h-4.035zm32.6 16.933h17.922v-6.014h-11.632v-22.076h-6.291v28.09zm24.235 0h6.291v-28.09h-6.291v28.09zm29.132-5.974l8.19-11.355v17.329h6.33v-28.09h-5.737l-8.783 12.106-8.783-12.106h-5.737v28.09h6.291v-17.329zm22.862 5.974h6.29v-28.09h-6.29v28.09zm19.676 0h6.33V718h7.24v-6.014h-20.732V718h7.161v22.076zm27.8.475c5.935 0 10.01-3.561 10.049-8.665.04-4.233-2.611-6.923-6.686-8.387l-1.978-.712c-2.967-1.068-4.352-1.741-4.352-3.244 0-1.464 1.7-2.137 3.4-2.137a6.249 6.249 0 0 1 4.867 2.335l4.114-4.352a11.721 11.721 0 0 0-9.06-3.878c-5.618 0-9.693 3.205-9.693 8.665 0 3.837 2.532 6.567 7.082 8.11l1.978.673c2.809.949 3.917 1.938 3.917 3.363 0 1.345-1.306 2.334-3.4 2.334a7.348 7.348 0 0 1-5.816-3.205l-4.827 4.075a12.318 12.318 0 0 0 10.4 5.025z"/></svg>