<svg id="Copy_copy_12" data-name="Copy copy 12" xmlns="http://www.w3.org/2000/svg" width="768" height="802" viewBox="0 0 768 802">
  <metadata><?xpacket begin="﻿" id="W5M0MpCehiHzreSzNTczkc9d"?>
<x:xmpmeta xmlns:x="adobe:ns:meta/" x:xmptk="Adobe XMP Core 5.6-c138 79.159824, 2016/09/14-01:09:01        ">
   <rdf:RDF xmlns:rdf="http://www.w3.org/1999/02/22-rdf-syntax-ns#">
      <rdf:Description rdf:about=""/>
   </rdf:RDF>
</x:xmpmeta>
                                                                                                    
                                                                                                    
                                                                                                    
                                                                                                    
                                                                                                    
                                                                                                    
                                                                                                    
                                                                                                    
                                                                                                    
                                                                                                    
                                                                                                    
                                                                                                    
                                                                                                    
                                                                                                    
                                                                                                    
                                                                                                    
                                                                                                    
                                                                                                    
                                                                                                    
                                                                                                    
                           
<?xpacket end="w"?></metadata>
<defs>
    <style>
      .cls-1, .cls-2, .cls-3 {
        fill: #fff;
      }

      .cls-1, .cls-2, .cls-4 {
        fill-rule: evenodd;
      }

      .cls-1 {
        opacity: 0.75;
      }
    </style>
  </defs>
  <g id="CTA">
    <path id="DESIGNED_FOR_A_LIFE_WITH_NO_BOUNDARIES_copy" data-name="DESIGNED FOR  A LIFE WITH  NO BOUNDARIES copy" class="cls-1" d="M127.373,414.744h15.75a23.107,23.107,0,1,0,0-46.206h-15.75v46.206Zm10.348-9.5v-27.2h5.4c7.809,0,13.081,6.183,13.081,13.6s-5.272,13.6-13.081,13.6h-5.4Zm39.441,9.5h29.287v-9.892H187.51v-8.265h15.034V386.7H187.51V378.43h18.939v-9.892H177.162v46.206Zm54.214,0.781c9.763,0,16.466-5.857,16.531-14.252,0.065-6.964-4.3-11.389-11-13.8l-3.254-1.172c-4.881-1.757-7.159-2.863-7.159-5.336,0-2.408,2.8-3.514,5.6-3.514a10.277,10.277,0,0,1,8,3.839l6.769-7.159a19.284,19.284,0,0,0-14.9-6.377c-9.241,0-15.945,5.271-15.945,14.252,0,6.313,4.165,10.8,11.65,13.341l3.254,1.107c4.621,1.562,6.443,3.189,6.443,5.532,0,2.212-2.148,3.839-5.6,3.839a12.089,12.089,0,0,1-9.567-5.271l-7.94,6.7C217.839,412.466,224.087,415.525,231.376,415.525Zm26.945-.781h10.348V368.538H258.321v46.206Zm45.948,0.781c7.484,0,14.838-2.213,18.938-6.833V386.76H304.073v9.7h9.047v6.833c-1.953,1.562-5.337,2.213-8.981,2.213-9.047,0-14.579-5.988-14.579-13.862a13.564,13.564,0,0,1,13.928-13.862,15.346,15.346,0,0,1,11.649,4.946l7.289-7.094c-4.425-4.881-10.738-7.874-18.938-7.874-14.318,0-24.341,10.738-24.341,23.884C279.147,405.177,289.886,415.525,304.269,415.525Zm72.111-.781V368.538H365.967v28.5l-22.453-28.5H334.6v46.206h10.348v-28.57l22.518,28.57h8.916Zm13.018,0h29.287v-9.892H399.746v-8.265H414.78V386.7H399.746V378.43h18.939v-9.892H389.4v46.206Zm40.417,0h15.75a23.107,23.107,0,1,0,0-46.206h-15.75v46.206Zm10.348-9.5v-27.2h5.4c7.81,0,13.081,6.183,13.081,13.6s-5.271,13.6-13.081,13.6h-5.4Zm57.013,9.5h10.348V396.652h14.123V386.76H507.524v-8.33h18.093v-9.892H497.176v46.206Zm59.1,0.781a23.884,23.884,0,1,0-23.885-23.884A23.942,23.942,0,0,0,556.272,415.525Zm0-10.022a13.868,13.868,0,0,1,0-27.724c7.484,0,13.407,6.378,13.407,13.862S563.756,405.5,556.272,405.5Zm34.3,9.241h10.348V395.676h1.692l15.359,19.068H630.4l-16.335-20.37c5.857-2.082,9.046-5.922,9.046-11.909,0-7.68-5.6-13.927-14.318-13.927H590.571v46.206Zm10.348-27.854v-8.851h6.638c3.059,0,5.272,1.627,5.272,4.426,0,2.668-2.213,4.425-5.272,4.425h-6.638ZM172.671,485.569h10.8l4.1-9.762h19.134l4.1,9.762h10.8l-19.784-46.206h-9.372Zm18.679-18.743,5.792-13.927,5.792,13.927H191.35ZM245.3,485.569h29.482v-9.892H255.652V439.363H245.3v46.206Zm39.18,0h10.348V439.363H284.484v46.206Zm23.364,0H318.2V467.477h14.123v-9.892H318.2v-8.33h18.093v-9.892H307.848v46.206Zm38.725,0H375.86v-9.892H356.921v-8.265h15.034V457.52H356.921v-8.265H375.86v-9.892H346.573v46.206Zm93.2,0H449.6l10.738-46.206H449.274l-6.313,29.285-13.017-30.066-12.951,30.066-6.313-29.285H399.617l10.673,46.206h9.827l9.827-22.648Zm29.679,0H479.8V439.363H469.451v46.206Zm31.695,0h10.413V449.255h11.91v-9.892h-34.1v9.892h11.779v36.314Zm31.891,0h10.348V467.282H562v18.287h10.348V439.363H562v18.092H543.385V439.363H533.037v46.206ZM140.323,556.394V510.187H129.91v28.5l-22.453-28.5H98.541v46.207h10.348v-28.57l22.518,28.57h8.916Zm34.3,0.781a23.885,23.885,0,1,0-23.885-23.884A23.942,23.942,0,0,0,174.623,557.175Zm0-10.022a13.868,13.868,0,0,1,0-27.724c7.484,0,13.407,6.378,13.407,13.862S182.107,547.153,174.623,547.153Zm51.871,9.241H246.8c7.94,0,14.058-5.987,14.058-13.6a12.073,12.073,0,0,0-6.573-10.933,10.877,10.877,0,0,0,3.319-7.94,13.735,13.735,0,0,0-13.732-13.732H226.494v46.207Zm10.348-27.529v-9.241H242.7a4.7,4.7,0,0,1,4.816,4.686,4.631,4.631,0,0,1-4.816,4.555h-5.857Zm0,18.027v-9.241h9.046a4.7,4.7,0,0,1,4.881,4.621,4.643,4.643,0,0,1-4.816,4.62h-9.111Zm55.516,10.283a23.885,23.885,0,1,0-23.885-23.884A23.942,23.942,0,0,0,292.358,557.175Zm0-10.022a13.868,13.868,0,0,1,0-27.724c7.484,0,13.407,6.378,13.407,13.862S299.842,547.153,292.358,547.153Zm52.782,10.022c11.064,0,19-7.549,19-19.068v-27.92H353.8v28.05c0,5.531-3.514,8.916-8.656,8.916s-8.656-3.385-8.656-8.916v-28.05H326.136v27.92C326.136,549.626,334.011,557.175,345.14,557.175Zm73.283-.781V510.187H408.01v28.5l-22.453-28.5h-8.916v46.207h10.348v-28.57l22.518,28.57h8.916Zm13.018,0h15.75a23.108,23.108,0,1,0,0-46.207h-15.75v46.207Zm10.348-9.5v-27.2h5.4c7.809,0,13.081,6.183,13.081,13.6s-5.272,13.6-13.081,13.6h-5.4Zm32.348,9.5h10.8l4.1-9.762h19.134l4.1,9.762h10.8l-19.785-46.207h-9.372Zm18.678-18.743,5.792-13.927,5.793,13.927H492.815Zm38.335,18.743H541.5V537.326h1.692l15.359,19.068H570.98l-16.335-20.37c5.857-2.083,9.046-5.922,9.046-11.91,0-7.679-5.6-13.927-14.318-13.927H531.15v46.207ZM541.5,528.54v-8.851h6.638c3.059,0,5.272,1.627,5.272,4.425,0,2.669-2.213,4.426-5.272,4.426H541.5Zm35.991,27.854h10.348V510.187H577.489v46.207Zm23.365,0H630.14V546.5H611.2v-8.265h15.033v-9.892H611.2V520.08H630.14v-9.893H600.854v46.207Zm54.214,0.781c9.762,0,16.466-5.857,16.531-14.253,0.065-6.963-4.3-11.388-11-13.8l-3.254-1.172c-4.881-1.757-7.159-2.863-7.159-5.336,0-2.408,2.8-3.515,5.6-3.515a10.279,10.279,0,0,1,8,3.84l6.768-7.159a19.282,19.282,0,0,0-14.9-6.378c-9.242,0-15.945,5.272-15.945,14.253,0,6.313,4.165,10.8,11.649,13.341l3.255,1.107c4.62,1.561,6.443,3.188,6.443,5.531,0,2.213-2.148,3.84-5.6,3.84a12.086,12.086,0,0,1-9.567-5.271l-7.94,6.7C641.531,554.116,647.779,557.175,655.068,557.175Z"/>
    <path id="BANANA_REPUBLIC_CELEBRATES_40_YEARS_copy" data-name="BANANA REPUBLIC CELEBRATES 40 YEARS copy" class="cls-2" d="M116.607,612.939h7.49a5.039,5.039,0,0,0,5.185-5.017,4.452,4.452,0,0,0-2.425-4.033,4.011,4.011,0,0,0,1.225-2.928,5.066,5.066,0,0,0-5.066-5.065h-6.409v17.043Zm3.817-10.154v-3.409h2.16a1.732,1.732,0,0,1,1.777,1.729,1.708,1.708,0,0,1-1.777,1.68h-2.16Zm0,6.649v-3.409h3.337a1.734,1.734,0,0,1,1.8,1.705,1.712,1.712,0,0,1-1.776,1.7h-3.361Zm10.319,3.5h3.985l1.512-3.6H143.3l1.512,3.6h3.985L141.5,595.9H138.04Zm6.889-6.914,2.137-5.136,2.136,5.136h-4.273Zm29.547,6.914V595.9h-3.841V606.41L155.056,595.9h-3.289v17.043h3.817V602.4l8.306,10.538h3.289Zm2.972,0h3.985l1.512-3.6h7.057l1.513,3.6H188.2l-7.3-17.043h-3.457Zm6.889-6.914,2.137-5.136,2.136,5.136H177.04Zm29.546,6.914V595.9h-3.84V606.41L194.464,595.9h-3.289v17.043h3.817V602.4l8.306,10.538h3.288Zm2.972,0h3.985l1.513-3.6h7.057l1.512,3.6h3.985l-7.3-17.043h-3.457Zm6.89-6.914,2.136-5.136,2.137,5.136h-4.273Zm19.895,6.914h3.816v-7.034h0.625l5.665,7.034h4.585l-6.026-7.514c2.161-.768,3.337-2.184,3.337-4.392a5.031,5.031,0,0,0-5.281-5.137h-6.721v17.043Zm3.816-10.274V599.4h2.449a1.7,1.7,0,0,1,1.944,1.633,1.725,1.725,0,0,1-1.944,1.632h-2.449Zm13.271,10.274h10.8V609.29h-6.986v-3.048h5.545v-3.649h-5.545v-3.049h6.986V595.9h-10.8v17.043Zm26.691-11.21a5.8,5.8,0,0,0-6-5.833h-5.785v17.043h3.817v-5.4h1.968A5.786,5.786,0,0,0,280.121,601.729Zm-3.7,0a2.243,2.243,0,0,1-2.353,2.232h-1.92V599.5h1.92A2.229,2.229,0,0,1,276.424,601.729Zm14.159,11.5a6.685,6.685,0,0,0,7.01-7.033V595.9h-3.817v10.346a3.194,3.194,0,1,1-6.385,0V595.9h-3.817v10.3A6.672,6.672,0,0,0,290.583,613.227Zm11.615-.288h7.489a5.039,5.039,0,0,0,5.185-5.017,4.453,4.453,0,0,0-2.424-4.033,4.01,4.01,0,0,0,1.224-2.928,5.065,5.065,0,0,0-5.065-5.065H302.2v17.043Zm3.816-10.154v-3.409h2.161a1.732,1.732,0,0,1,1.776,1.729,1.708,1.708,0,0,1-1.776,1.68h-2.161Zm0,6.649v-3.409h3.337a1.735,1.735,0,0,1,1.8,1.705,1.713,1.713,0,0,1-1.777,1.7h-3.361Zm12.623,3.5h10.875V609.29h-7.058V595.9h-3.817v17.043Zm14.448,0H336.9V595.9h-3.817v17.043Zm16.466,0.288a8.81,8.81,0,0,0,7.969-4.657l-3.36-1.824a5.114,5.114,0,1,1,0-4.657l3.36-1.825A8.885,8.885,0,1,0,349.551,613.227Zm25.727,0a8.811,8.811,0,0,0,7.97-4.657l-3.361-1.824a5.114,5.114,0,1,1,0-4.657l3.361-1.825A8.886,8.886,0,1,0,375.278,613.227Zm11.4-.288h10.8V609.29h-6.986v-3.048h5.546v-3.649h-5.546v-3.049h6.986V595.9h-10.8v17.043Zm14.9,0h10.874V609.29H405.4V595.9h-3.816v17.043Zm14.447,0h10.8V609.29h-6.986v-3.048h5.545v-3.649h-5.545v-3.049h6.986V595.9h-10.8v17.043Zm14.9,0h7.49a5.039,5.039,0,0,0,5.185-5.017,4.452,4.452,0,0,0-2.425-4.033,4.007,4.007,0,0,0,1.225-2.928,5.066,5.066,0,0,0-5.065-5.065h-6.41v17.043Zm3.817-10.154v-3.409h2.16a1.732,1.732,0,0,1,1.777,1.729,1.708,1.708,0,0,1-1.777,1.68h-2.16Zm0,6.649v-3.409h3.337a1.734,1.734,0,0,1,1.8,1.705,1.712,1.712,0,0,1-1.776,1.7h-3.361Zm12.623,3.5h3.817v-7.034h0.624l5.665,7.034h4.585l-6.025-7.514c2.16-.768,3.337-2.184,3.337-4.392a5.032,5.032,0,0,0-5.282-5.137h-6.721v17.043Zm3.817-10.274V599.4h2.448a1.7,1.7,0,0,1,1.945,1.633,1.725,1.725,0,0,1-1.945,1.632h-2.448Zm11.446,10.274h3.985l1.513-3.6h7.057l1.512,3.6h3.985l-7.3-17.043h-3.457Zm6.89-6.914,2.136-5.136,2.137,5.136h-4.273Zm15.5,6.914h3.841V599.544h4.393V595.9H480.683v3.648h4.345v13.395Zm11.76,0h10.8V609.29H500.6v-3.048h5.546v-3.649H500.6v-3.049h6.986V595.9h-10.8v17.043Zm19.993,0.288c3.6,0,6.073-2.161,6.1-5.257,0.024-2.569-1.584-4.2-4.057-5.089l-1.2-.432c-1.8-.648-2.641-1.056-2.641-1.969,0-.888,1.032-1.3,2.065-1.3A3.79,3.79,0,0,1,520,600.6l2.5-2.64a7.112,7.112,0,0,0-5.5-2.352c-3.409,0-5.882,1.944-5.882,5.257,0,2.328,1.537,3.984,4.3,4.92l1.2,0.409c1.7,0.576,2.376,1.176,2.376,2.04,0,0.816-.792,1.416-2.064,1.416a4.458,4.458,0,0,1-3.529-1.944l-2.929,2.472A7.474,7.474,0,0,0,516.781,613.227Zm23.375-.288h3.625v-3.7h2.185v-3.313h-2.185V595.9h-3.264l-8.69,10.418v2.928h8.329v3.7Zm0-7.01h-3.912l3.912-4.7v4.7Zm15.48,7.274c3.793,0,6.433-2.881,6.433-6.817v-3.961c0-3.937-2.64-6.817-6.433-6.817-3.817,0-6.457,2.88-6.457,6.817v3.961C549.179,610.322,551.819,613.2,555.636,613.2Zm0-3.577c-1.68,0-2.833-1.2-2.833-3.24v-3.961c0-2.041,1.153-3.241,2.833-3.241,1.656,0,2.809,1.2,2.809,3.241v3.961C558.445,608.426,557.292,609.626,555.636,609.626Zm21.1,3.313h3.84v-7.154l6.218-9.889h-4.441l-3.721,6.145-3.673-6.145h-4.441l6.218,9.865v7.178Zm13.246,0h10.8V609.29h-6.986v-3.048h5.545v-3.649h-5.545v-3.049h6.986V595.9h-10.8v17.043Zm13.08,0h3.985l1.512-3.6h7.058l1.512,3.6h3.985l-7.3-17.043h-3.457Zm6.889-6.914,2.137-5.136,2.136,5.136h-4.273Zm14.135,6.914H627.9v-7.034h0.624l5.665,7.034h4.585l-6.025-7.514c2.161-.768,3.337-2.184,3.337-4.392A5.032,5.032,0,0,0,630.8,595.9h-6.722v17.043Zm3.817-10.274V599.4h2.449a1.7,1.7,0,0,1,1.944,1.633,1.725,1.725,0,0,1-1.944,1.632H627.9Zm18.36,10.562c3.6,0,6.073-2.161,6.1-5.257,0.024-2.569-1.584-4.2-4.057-5.089l-1.2-.432c-1.8-.648-2.64-1.056-2.64-1.969,0-.888,1.032-1.3,2.064-1.3a3.792,3.792,0,0,1,2.953,1.416l2.5-2.64a7.111,7.111,0,0,0-5.5-2.352c-3.409,0-5.881,1.944-5.881,5.257,0,2.328,1.536,3.984,4.3,4.92l1.2,0.409c1.7,0.576,2.376,1.176,2.376,2.04,0,0.816-.792,1.416-2.064,1.416a4.46,4.46,0,0,1-3.529-1.944l-2.928,2.472A7.471,7.471,0,0,0,646.259,613.227Z"/>
    <rect class="cls-3" x="159.594" y="662.812" width="450" height="58.782"/>
    <path id="OUR_JOURNEY" data-name="OUR JOURNEY" class="cls-4" d="M314.589,697.828a6.169,6.169,0,1,0-6.169-6.169A6.183,6.183,0,0,0,314.589,697.828Zm0-2.588a3.582,3.582,0,1,1,3.463-3.581A3.541,3.541,0,0,1,314.589,695.24Zm15.808,2.588a4.681,4.681,0,0,0,4.909-4.925v-7.211h-2.673v7.245a2.236,2.236,0,1,1-4.471,0v-7.245h-2.673V692.9A4.672,4.672,0,0,0,330.4,697.828Zm10.313-.2h2.672V692.7h0.437l3.967,4.924H351l-4.219-5.261a3.079,3.079,0,0,0,2.336-3.076,3.523,3.523,0,0,0-3.7-3.6H340.71v11.934Zm2.672-7.194v-2.286H345.1a1.189,1.189,0,0,1,1.361,1.143,1.207,1.207,0,0,1-1.361,1.143h-1.715Zm20.362,7.4c2.051,0,3.9-1.025,3.9-3.462v-8.674h-2.673v8.5a1.229,1.229,0,0,1-2.454-.067h-2.639A3.538,3.538,0,0,0,363.744,697.828Zm14.852,0a6.169,6.169,0,1,0-6.169-6.169A6.183,6.183,0,0,0,378.6,697.828Zm0-2.588a3.582,3.582,0,1,1,3.463-3.581A3.542,3.542,0,0,1,378.6,695.24Zm15.809,2.588a4.681,4.681,0,0,0,4.908-4.925v-7.211H396.64v7.245a2.236,2.236,0,1,1-4.471,0v-7.245H389.5V692.9A4.672,4.672,0,0,0,394.405,697.828Zm10.312-.2h2.673V692.7h0.437l3.967,4.924H415l-4.219-5.261a3.08,3.08,0,0,0,2.337-3.076,3.524,3.524,0,0,0-3.7-3.6h-4.707v11.934Zm2.673-7.194v-2.286H409.1a1.19,1.19,0,0,1,1.362,1.143,1.208,1.208,0,0,1-1.362,1.143H407.39Zm22.264,7.194V685.692h-2.69v7.363l-5.8-7.363h-2.3v11.934h2.673v-7.379l5.816,7.379h2.3Zm5.538,0h7.564v-2.554h-4.891v-2.135h3.882v-2.555h-3.882v-2.135h4.891v-2.555h-7.564v11.934Zm15.844,0h2.689v-5.009l4.354-6.925h-3.11l-2.605,4.3-2.572-4.3h-3.11l4.354,6.909v5.025Z"/>
  </g>
</svg>
