<svg id="Copy_copy_7" data-name="Copy copy 7" xmlns="http://www.w3.org/2000/svg" width="1440" height="676" viewBox="0 0 1440 676">
  <metadata><?xpacket begin="﻿" id="W5M0MpCehiHzreSzNTczkc9d"?>
<x:xmpmeta xmlns:x="adobe:ns:meta/" x:xmptk="Adobe XMP Core 5.6-c138 79.159824, 2016/09/14-01:09:01        ">
   <rdf:RDF xmlns:rdf="http://www.w3.org/1999/02/22-rdf-syntax-ns#">
      <rdf:Description rdf:about=""/>
   </rdf:RDF>
</x:xmpmeta>
                                                                                                    
                                                                                                    
                                                                                                    
                                                                                                    
                                                                                                    
                                                                                                    
                                                                                                    
                                                                                                    
                                                                                                    
                                                                                                    
                                                                                                    
                                                                                                    
                                                                                                    
                                                                                                    
                                                                                                    
                                                                                                    
                                                                                                    
                                                                                                    
                                                                                                    
                                                                                                    
                           
<?xpacket end="w"?></metadata>
<defs>
    <style>
      .cls-1, .cls-3, .cls-4 {
        fill: #fff;
      }

      .cls-2, .cls-3, .cls-4 {
        fill-rule: evenodd;
      }

      .cls-3 {
        opacity: 0.75;
      }
    </style>
  </defs>
  <g id="CTA">
    <rect class="cls-1" x="447" y="463" width="545" height="49"/>
    <path id="SEE_OUR_JOURNEY" data-name="SEE OUR JOURNEY" class="cls-2" d="M641.547,492.188c2.1,0,3.544-1.261,3.558-3.068a3.073,3.073,0,0,0-2.368-2.969l-0.7-.253c-1.051-.378-1.541-0.616-1.541-1.148a1.021,1.021,0,0,1,1.205-.757,2.214,2.214,0,0,1,1.723.827l1.457-1.541a4.154,4.154,0,0,0-3.208-1.373c-1.989,0-3.432,1.135-3.432,3.068,0,1.359.9,2.325,2.507,2.872l0.7,0.238c0.994,0.336,1.386.686,1.386,1.19a1.008,1.008,0,0,1-1.2.827,2.6,2.6,0,0,1-2.059-1.135l-1.709,1.443A4.359,4.359,0,0,0,641.547,492.188Zm7.614-.168h6.3v-2.129h-4.076v-1.779h3.236v-2.129h-3.236V484.2h4.076v-2.13h-6.3v9.946Zm10.514,0h6.3v-2.129H661.9v-1.779h3.236v-2.129H661.9V484.2h4.076v-2.13h-6.3v9.946Zm20.694,0.168a5.141,5.141,0,1,0-5.141-5.141A5.153,5.153,0,0,0,680.369,492.188Zm0-2.157a2.986,2.986,0,1,1,2.886-2.984A2.951,2.951,0,0,1,680.369,490.031Zm13.174,2.157a3.9,3.9,0,0,0,4.09-4.1v-6.01h-2.227v6.038a1.864,1.864,0,1,1-3.726,0v-6.038h-2.228v6.01A3.893,3.893,0,0,0,693.543,492.188Zm8.593-.168h2.228v-4.1h0.364l3.306,4.1h2.675l-3.516-4.385a2.565,2.565,0,0,0,1.947-2.563,2.936,2.936,0,0,0-3.082-3h-3.922v9.946Zm2.228-6v-1.9h1.428a0.991,0.991,0,0,1,1.135.952,1.007,1.007,0,0,1-1.135.953h-1.428Zm16.968,6.163c1.709,0,3.249-.855,3.249-2.886v-7.228h-2.227v7.088a1.024,1.024,0,0,1-2.045-.056h-2.2A2.949,2.949,0,0,0,721.332,492.188Zm12.377,0a5.141,5.141,0,1,0-5.141-5.141A5.153,5.153,0,0,0,733.709,492.188Zm0-2.157a2.986,2.986,0,1,1,2.885-2.984A2.951,2.951,0,0,1,733.709,490.031Zm13.173,2.157a3.9,3.9,0,0,0,4.09-4.1v-6.01h-2.227v6.038a1.864,1.864,0,1,1-3.726,0v-6.038h-2.227v6.01A3.893,3.893,0,0,0,746.882,492.188Zm8.594-.168H757.7v-4.1h0.364l3.306,4.1h2.675l-3.515-4.385a2.566,2.566,0,0,0,1.947-2.563,2.937,2.937,0,0,0-3.082-3h-3.922v9.946Zm2.227-6v-1.9h1.429a0.99,0.99,0,0,1,1.134.952,1.007,1.007,0,0,1-1.134.953H757.7Zm18.553,6v-9.946h-2.241v6.136l-4.832-6.136h-1.919v9.946h2.227v-6.15l4.846,6.15h1.919Zm4.616,0h6.3v-2.129H783.1v-1.779h3.235v-2.129H783.1V484.2h4.076v-2.13h-6.3v9.946Zm13.2,0h2.241v-4.174l3.628-5.772h-2.591l-2.171,3.586-2.144-3.586h-2.591l3.628,5.758v4.188Z"/>
    <path id="DESIGNED_FOR_A_LIFE_WITH_NO_BOUNDARIES" data-name="DESIGNED FOR  A LIFE WITH  NO BOUNDARIES" class="cls-3" d="M443.649,215.507h16.942a24.857,24.857,0,1,0,0-49.705H443.649v49.705Zm11.131-10.221V176.023h5.811c8.4,0,14.071,6.651,14.071,14.632s-5.67,14.631-14.071,14.631H454.78ZM497.2,215.507h31.5V204.866H508.33v-8.891H524.5V185.334H508.33v-8.891H528.7V165.8H497.2v49.705Zm58.312,0.84c10.5,0,17.712-6.3,17.782-15.331,0.07-7.491-4.62-12.252-11.831-14.842l-3.5-1.26c-5.25-1.89-7.7-3.08-7.7-5.741,0-2.59,3.011-3.78,6.021-3.78a11.057,11.057,0,0,1,8.611,4.13l7.281-7.7a20.742,20.742,0,0,0-16.032-6.86c-9.941,0-17.152,5.67-17.152,15.331,0,6.791,4.481,11.622,12.532,14.352l3.5,1.19c4.971,1.68,6.931,3.43,6.931,5.951,0,2.38-2.311,4.13-6.021,4.13a13,13,0,0,1-10.291-5.67l-8.541,7.21C540.948,213.057,547.669,216.347,555.51,216.347Zm28.978-.84h11.131V165.8H584.488v49.705Zm49.422,0.84c8.051,0,15.961-2.38,20.372-7.35V185.4H633.7v10.431h9.731v7.351c-2.1,1.68-5.741,2.38-9.661,2.38-9.731,0-15.682-6.441-15.682-14.911a14.592,14.592,0,0,1,14.982-14.912,16.507,16.507,0,0,1,12.531,5.32l7.841-7.63c-4.761-5.251-11.551-8.471-20.372-8.471-15.4,0-26.183,11.551-26.183,25.693C606.887,205.216,618.438,216.347,633.91,216.347Zm77.561-.84V165.8h-11.2v30.663L676.117,165.8h-9.591v49.705h11.131V184.774l24.223,30.733h9.591Zm13.994,0h31.5V204.866H736.6v-8.891h16.171V185.334H736.6v-8.891h20.372V165.8h-31.5v49.705Zm43.47,0h16.942a24.857,24.857,0,1,0,0-49.705H768.935v49.705Zm11.131-10.221V176.023h5.811c8.4,0,14.072,6.651,14.072,14.632s-5.671,14.631-14.072,14.631h-5.811Zm61.318,10.221h11.131V196.045h15.192V185.4H852.515v-8.961h19.462V165.8H841.384v49.705Zm63.563,0.84a25.693,25.693,0,1,0-25.693-25.692A25.754,25.754,0,0,0,904.947,216.347Zm0-10.781a14.918,14.918,0,0,1,0-29.823c8.051,0,14.422,6.861,14.422,14.912S913,205.566,904.947,205.566Zm36.886,9.941h11.132V195h1.82l16.522,20.512h13.371L967.106,193.6c6.3-2.24,9.731-6.371,9.731-12.812,0-8.261-6.02-14.981-15.4-14.981h-19.6v49.705Zm11.132-29.963v-9.521h7.14c3.291,0,5.671,1.75,5.671,4.76,0,2.871-2.38,4.761-5.671,4.761h-7.14Zm-460.6,105.963h11.621l4.41-10.5h20.583l4.41,10.5h11.622L523.731,241.8H513.65Zm20.092-20.162,6.231-14.982,6.23,14.982H512.46Zm58.027,20.162H602.2V280.866H581.619V241.8H570.487v49.705Zm42.139,0h11.132V241.8H612.626v49.705Zm25.13,0h11.131V272.045h15.192V261.4H648.887v-8.961h19.462V241.8H637.756v49.705Zm41.649,0h31.5V280.866H690.537v-8.891h16.172V261.334H690.537v-8.891h20.372V241.8h-31.5v49.705Zm100.245,0h10.571L801.772,241.8h-11.9l-6.791,31.5-14-32.343-13.931,32.343-6.791-31.5h-11.9l11.481,49.705h10.571l10.571-24.362Zm31.915,0H822.7V241.8H811.565v49.705Zm34.09,0h11.2V252.443h12.812V241.8H832.984v10.641h12.671v39.064Zm34.3,0h11.131V271.835h20.022v19.672h11.131V241.8H911.107v19.462H891.085V241.8H879.954v49.705Zm-422.37,76V317.8h-11.2v30.663L422.23,317.8h-9.591v49.7H423.77V336.774l24.223,30.733h9.591Zm36.887,0.84a25.693,25.693,0,1,0-25.693-25.692A25.754,25.754,0,0,0,494.471,368.347Zm0-10.781a14.918,14.918,0,0,1,0-29.823c8.051,0,14.422,6.861,14.422,14.912S502.522,357.566,494.471,357.566Zm55.786,9.941H572.1c8.541,0,15.122-6.44,15.122-14.631a12.992,12.992,0,0,0-7.071-11.762,11.7,11.7,0,0,0,3.57-8.541A14.773,14.773,0,0,0,568.949,317.8H550.257v49.7Zm11.131-29.613v-9.941h6.3a5.051,5.051,0,0,1,5.18,5.04,4.982,4.982,0,0,1-5.18,4.9h-6.3Zm0,19.392v-9.941h9.731a5.057,5.057,0,0,1,5.251,4.971,5,5,0,0,1-5.181,4.97h-9.8ZM621.1,368.347a25.693,25.693,0,1,0-25.693-25.692A25.755,25.755,0,0,0,621.1,368.347Zm0-10.781a14.918,14.918,0,0,1,0-29.823c8.051,0,14.421,6.861,14.421,14.912S629.15,357.566,621.1,357.566Zm56.768,10.781c11.9,0,20.443-8.12,20.443-20.512V317.8H687.178v30.173c0,5.951-3.78,9.591-9.311,9.591s-9.311-3.64-9.311-9.591V317.8H657.425v30.033C657.425,360.227,665.9,368.347,677.867,368.347Zm78.822-.84V317.8h-11.2v30.663L721.335,317.8h-9.591v49.7h11.132V336.774L747.1,367.507h9.591Zm14,0h16.942a24.857,24.857,0,1,0,0-49.7H770.684v49.7Zm11.131-10.221V328.023h5.811c8.4,0,14.071,6.651,14.071,14.632s-5.67,14.631-14.071,14.631h-5.811ZM816.6,367.507h11.621l4.41-10.5h20.583l4.41,10.5H869.25l-21.283-49.7H837.886ZM836.7,347.345l6.231-14.982,6.23,14.982H836.7Zm41.228,20.162h11.131V347h1.821L907.4,367.507h13.372L903.2,345.6c6.3-2.24,9.731-6.371,9.731-12.812,0-8.261-6.021-14.981-15.4-14.981h-19.6v49.7Zm11.131-29.963v-9.521H896.2c3.291,0,5.671,1.75,5.671,4.76,0,2.871-2.38,4.761-5.671,4.761h-7.141Zm38.708,29.963H938.9V317.8H927.763v49.7Zm25.13,0h31.5V356.866H964.024v-8.891H980.2V337.334H964.024v-8.891H984.4V317.8h-31.5v49.7Zm58.307,0.84c10.51,0,17.72-6.3,17.79-15.331,0.07-7.491-4.62-12.252-11.84-14.842l-3.5-1.26c-5.25-1.89-7.7-3.08-7.7-5.741,0-2.59,3.01-3.78,6.02-3.78a11.074,11.074,0,0,1,8.62,4.13l7.28-7.7a20.759,20.759,0,0,0-16.04-6.86c-9.94,0-17.148,5.67-17.148,15.331,0,6.791,4.481,11.622,12.528,14.352l3.5,1.19c4.97,1.68,6.93,3.431,6.93,5.951,0,2.38-2.31,4.13-6.02,4.13a13,13,0,0,1-10.29-5.67l-8.538,7.21C996.643,365.057,1003.36,368.347,1011.2,368.347Z"/>
    <path id="BANANA_REPUBLIC_CELEBRATES_40_YEARS_copy" data-name="BANANA REPUBLIC CELEBRATES 40 YEARS copy" class="cls-4" d="M496.173,422.969h6.241a4.2,4.2,0,0,0,4.321-4.181,3.711,3.711,0,0,0-2.021-3.361,3.339,3.339,0,0,0,1.021-2.44,4.222,4.222,0,0,0-4.221-4.221h-5.341v14.2Zm3.18-8.462v-2.841h1.8a1.443,1.443,0,0,1,1.48,1.441,1.423,1.423,0,0,1-1.48,1.4h-1.8Zm0,5.541v-2.84h2.781a1.445,1.445,0,0,1,1.5,1.42,1.427,1.427,0,0,1-1.48,1.42h-2.8Zm8.6,2.921h3.321l1.26-3h5.882l1.26,3H523l-6.082-14.2h-2.88Zm5.742-5.761,1.78-4.281,1.78,4.281h-3.56Zm24.621,5.761v-14.2h-3.2v8.762l-6.9-8.762h-2.74v14.2h3.18v-8.782l6.922,8.782h2.74Zm2.477,0h3.321l1.26-3h5.881l1.261,3h3.32l-6.081-14.2h-2.88Zm5.741-5.761,1.781-4.281,1.78,4.281h-3.561Zm24.622,5.761v-14.2h-3.2v8.762l-6.9-8.762h-2.74v14.2h3.18v-8.782l6.922,8.782h2.74Zm2.477,0h3.321l1.26-3h5.881l1.261,3h3.32l-6.081-14.2h-2.881Zm5.741-5.761,1.781-4.281,1.78,4.281h-3.561Zm16.579,5.761h3.181v-5.862h0.52l4.721,5.862H608.2l-5.021-6.262a3.665,3.665,0,0,0,2.78-3.66,4.193,4.193,0,0,0-4.4-4.281h-5.6v14.2Zm3.181-8.562v-2.721h2.04a1.416,1.416,0,0,1,1.621,1.361,1.438,1.438,0,0,1-1.621,1.36h-2.04Zm11.059,8.562h9v-3.041h-5.821v-2.54h4.621v-3.041h-4.621v-2.541h5.821v-3.04h-9v14.2Zm22.242-9.342a4.836,4.836,0,0,0-5-4.861h-4.821v14.2h3.181v-4.5h1.64A4.821,4.821,0,0,0,632.434,413.627Zm-3.081,0a1.869,1.869,0,0,1-1.96,1.86h-1.6v-3.721h1.6A1.858,1.858,0,0,1,629.353,413.627Zm11.8,9.582a5.57,5.57,0,0,0,5.841-5.861v-8.582h-3.181v8.622a2.662,2.662,0,1,1-5.321,0v-8.622h-3.18v8.582A5.56,5.56,0,0,0,641.153,423.209Zm9.678-.24h6.242a4.2,4.2,0,0,0,4.321-4.181,3.713,3.713,0,0,0-2.021-3.361,3.342,3.342,0,0,0,1.02-2.44,4.221,4.221,0,0,0-4.221-4.221h-5.341v14.2Zm3.181-8.462v-2.841h1.8a1.444,1.444,0,0,1,1.481,1.441,1.424,1.424,0,0,1-1.481,1.4h-1.8Zm0,5.541v-2.84h2.781a1.445,1.445,0,0,1,1.5,1.42,1.427,1.427,0,0,1-1.48,1.42h-2.8Zm10.519,2.921h9.062v-3.041h-5.881V408.766h-3.181v14.2Zm12.04,0h3.181v-14.2h-3.181v14.2Zm13.721,0.24a7.344,7.344,0,0,0,6.642-3.881l-2.8-1.52a4.262,4.262,0,1,1,0-3.881l2.8-1.521A7.4,7.4,0,1,0,690.292,423.209Zm21.44,0a7.341,7.341,0,0,0,6.641-3.881l-2.8-1.52a4.262,4.262,0,1,1,0-3.881l2.8-1.521A7.4,7.4,0,1,0,711.732,423.209Zm9.5-.24h9v-3.041h-5.821v-2.54h4.621v-3.041h-4.621v-2.541h5.821v-3.04h-9v14.2Zm12.42,0h9.062v-3.041h-5.881V408.766H733.65v14.2Zm12.04,0h9v-3.041h-5.821v-2.54h4.621v-3.041h-4.621v-2.541h5.821v-3.04h-9v14.2Zm12.42,0h6.241a4.2,4.2,0,0,0,4.321-4.181,3.712,3.712,0,0,0-2.02-3.361,3.342,3.342,0,0,0,1.02-2.44,4.221,4.221,0,0,0-4.221-4.221H758.11v14.2Zm3.181-8.462v-2.841h1.8a1.444,1.444,0,0,1,1.481,1.441,1.424,1.424,0,0,1-1.481,1.4h-1.8Zm0,5.541v-2.84h2.78a1.445,1.445,0,0,1,1.5,1.42,1.427,1.427,0,0,1-1.481,1.42h-2.8Zm10.519,2.921h3.181v-5.862h0.52l4.721,5.862h3.821l-5.021-6.262a3.665,3.665,0,0,0,2.78-3.66,4.193,4.193,0,0,0-4.4-4.281h-5.6v14.2Zm3.181-8.562v-2.721h2.04a1.416,1.416,0,0,1,1.621,1.361,1.438,1.438,0,0,1-1.621,1.36h-2.04Zm9.538,8.562h3.321l1.26-3h5.882l1.26,3h3.321l-6.082-14.2h-2.88Zm5.742-5.761,1.78-4.281,1.78,4.281h-3.56Zm12.919,5.761h3.2V411.806h3.661v-3.04H799.57v3.04h3.62v11.163Zm9.8,0h9v-3.041H816.17v-2.54h4.621v-3.041H816.17v-2.541h5.822v-3.04h-9v14.2Zm16.661,0.24c3,0,5.061-1.8,5.081-4.381,0.02-2.141-1.321-3.5-3.381-4.241l-1-.36c-1.5-.54-2.2-0.88-2.2-1.64,0-.741.86-1.081,1.721-1.081a3.157,3.157,0,0,1,2.46,1.181l2.081-2.2a5.929,5.929,0,0,0-4.581-1.96c-2.841,0-4.9,1.62-4.9,4.381,0,1.94,1.28,3.32,3.58,4.1l1,0.341c1.42,0.48,1.98.98,1.98,1.7,0,0.68-.66,1.18-1.72,1.18a3.715,3.715,0,0,1-2.941-1.62l-2.441,2.06A6.229,6.229,0,0,0,829.651,423.209Zm19.479-.24h3.021v-3.081h1.82v-2.76h-1.82v-8.362H849.43l-7.241,8.682v2.44h6.941v3.081Zm0-5.841h-3.26l3.26-3.921v3.921Zm12.9,6.061c3.161,0,5.361-2.4,5.361-5.681v-3.3c0-3.281-2.2-5.681-5.361-5.681-3.181,0-5.381,2.4-5.381,5.681v3.3A5.326,5.326,0,0,0,862.03,423.189Zm0-2.981c-1.4,0-2.361-1-2.361-2.7v-3.3c0-1.7.961-2.7,2.361-2.7,1.38,0,2.34,1,2.34,2.7v3.3C864.37,419.208,863.41,420.208,862.03,420.208Zm17.58,2.761h3.2v-5.962l5.181-8.241h-3.7l-3.1,5.121-3.061-5.121h-3.7l5.181,8.221v5.982Zm11.039,0h9v-3.041h-5.821v-2.54h4.621v-3.041h-4.621v-2.541h5.821v-3.04h-9v14.2Zm10.9,0h3.321l1.26-3h5.881l1.261,3h3.32l-6.081-14.2h-2.881Zm5.741-5.761,1.781-4.281,1.78,4.281h-3.561Zm11.78,5.761h3.18v-5.862h0.52l4.721,5.862h3.821l-5.021-6.262a3.666,3.666,0,0,0,2.781-3.66,4.193,4.193,0,0,0-4.4-4.281h-5.6v14.2Zm3.18-8.562v-2.721h2.041a1.415,1.415,0,0,1,1.62,1.361,1.437,1.437,0,0,1-1.62,1.36h-2.041Zm15.3,8.8c3,0,5.061-1.8,5.081-4.381,0.02-2.141-1.32-3.5-3.38-4.241l-1-.36c-1.5-.54-2.2-0.88-2.2-1.64,0-.741.86-1.081,1.72-1.081a3.158,3.158,0,0,1,2.461,1.181l2.08-2.2a5.926,5.926,0,0,0-4.581-1.96c-2.84,0-4.9,1.62-4.9,4.381,0,1.94,1.28,3.32,3.581,4.1l1,0.341c1.42,0.48,1.981.98,1.981,1.7,0,0.68-.661,1.18-1.721,1.18a3.715,3.715,0,0,1-2.94-1.62l-2.441,2.06A6.227,6.227,0,0,0,937.549,423.209Z"/>
  </g>
</svg>
