<svg id="Copy_copy" data-name="Copy copy" xmlns="http://www.w3.org/2000/svg" width="768" height="870" viewBox="0 0 768 870">
  <metadata><?xpacket begin="﻿" id="W5M0MpCehiHzreSzNTczkc9d"?>
<x:xmpmeta xmlns:x="adobe:ns:meta/" x:xmptk="Adobe XMP Core 5.6-c138 79.159824, 2016/09/14-01:09:01        ">
   <rdf:RDF xmlns:rdf="http://www.w3.org/1999/02/22-rdf-syntax-ns#">
      <rdf:Description rdf:about=""/>
   </rdf:RDF>
</x:xmpmeta>
                                                                                                    
                                                                                                    
                                                                                                    
                                                                                                    
                                                                                                    
                                                                                                    
                                                                                                    
                                                                                                    
                                                                                                    
                                                                                                    
                                                                                                    
                                                                                                    
                                                                                                    
                                                                                                    
                                                                                                    
                                                                                                    
                                                                                                    
                                                                                                    
                                                                                                    
                                                                                                    
                           
<?xpacket end="w"?></metadata>
<defs>
    <style>
      .cls-1, .cls-2 {
        fill: #fff;
        fill-rule: evenodd;
      }

      .cls-1 {
        opacity: 0.75;
      }
    </style>
  </defs>
  <path id="DESIGNED_FOR_A_LIFE_WITH_NO_BOUNDARIES" data-name="DESIGNED FOR  A LIFE WITH  NO BOUNDARIES" class="cls-1" d="M61.9,357.9H81.643c16.319,0,29.538-12.892,29.538-28.966S97.962,299.97,81.643,299.97H61.9V357.9ZM74.87,345.989V311.883h6.772c9.792,0,16.4,7.751,16.4,17.053s-6.609,17.053-16.4,17.053H74.87ZM124.32,357.9h36.718V345.5H137.294V335.137h18.848v-12.4H137.294V312.372h23.744v-12.4H124.32V357.9Zm67.972,0.979c12.239,0,20.644-7.343,20.725-17.869,0.082-8.731-5.385-14.279-13.789-17.3l-4.08-1.469c-6.12-2.2-8.976-3.59-8.976-6.691,0-3.019,3.509-4.406,7.017-4.406a12.89,12.89,0,0,1,10.037,4.814l8.486-8.975a24.177,24.177,0,0,0-18.686-8c-11.587,0-19.991,6.609-19.991,17.869,0,7.915,5.222,13.545,14.606,16.727l4.08,1.387c5.793,1.958,8.078,4,8.078,6.935,0,2.775-2.693,4.815-7.018,4.815a15.154,15.154,0,0,1-11.994-6.61l-9.955,8.405C175.32,355.046,183.153,358.881,192.292,358.881Zm33.782-.979h12.974V299.97H226.074V357.9Zm57.608,0.979c9.383,0,18.6-2.774,23.744-8.567v-27.5H283.437v12.158h11.342v8.567c-2.448,1.959-6.691,2.775-11.261,2.775-11.341,0-18.277-7.507-18.277-17.38a17.007,17.007,0,0,1,17.461-17.38,19.238,19.238,0,0,1,14.606,6.2l9.139-8.894c-5.549-6.12-13.463-9.873-23.745-9.873-17.951,0-30.517,13.463-30.517,29.945C252.185,345.908,265.649,358.881,283.682,358.881Zm90.41-.979V299.97H361.037v35.738L332.886,299.97H321.707V357.9h12.974v-35.82l28.232,35.82h11.179Zm16.322,0h36.718V345.5H403.388V335.137h18.848v-12.4H403.388V312.372h23.744v-12.4H390.414V357.9Zm50.673,0h19.747c16.319,0,29.538-12.892,29.538-28.966s-13.219-28.966-29.538-28.966H441.087V357.9Zm12.974-11.913V311.883h6.773c9.791,0,16.4,7.751,16.4,17.053s-6.61,17.053-16.4,17.053h-6.773ZM525.542,357.9h12.974V335.219h17.706v-12.4H538.516V312.372H561.2v-12.4H525.542V357.9Zm74.092,0.979a29.945,29.945,0,1,0-29.946-29.945A30.017,30.017,0,0,0,599.634,358.881Zm0-12.565c-9.465,0-16.89-8-16.89-17.38s7.425-17.38,16.89-17.38c9.384,0,16.809,8,16.809,17.38S609.018,346.316,599.634,346.316Zm43,11.586h12.974V334h2.122L676.989,357.9h15.585l-20.48-25.539c7.343-2.611,11.342-7.425,11.342-14.932,0-9.628-7.018-17.461-17.952-17.461H642.637V357.9Zm12.974-34.922v-11.1h8.323c3.835,0,6.609,2.04,6.609,5.548,0,3.346-2.774,5.549-6.609,5.549h-8.323ZM118.69,446.7h13.545l5.14-12.24h23.99l5.14,12.24H180.05l-24.805-57.932H143.5Zm23.418-23.5,7.262-17.461,7.262,17.461H142.108Zm67.646,23.5h36.963V434.3H222.728V388.768H209.754V446.7Zm49.122,0H271.85V388.768H258.876V446.7Zm29.294,0h12.973V424.016H318.85v-12.4H301.143V401.17h22.684v-12.4H288.17V446.7Zm48.551,0H373.44V434.3H349.7V423.935h18.849v-12.4H349.7V401.17H373.44v-12.4H336.721V446.7Zm116.849,0h12.321l13.464-57.932H465.483l-7.914,36.717-16.32-37.7-16.238,37.7L417.1,388.768H403.225L416.607,446.7h12.321l12.321-28.395Zm37.212,0h12.973V388.768H490.782V446.7Zm39.738,0h13.055V401.17h14.932v-12.4H515.751v12.4H530.52V446.7Zm39.983,0h12.974V423.772h23.337V446.7h12.974V388.768H606.814v22.683H583.477V388.768H570.5V446.7ZM78.133,535.5V477.565H65.077V513.3L36.927,477.565H25.748V535.5H38.722v-35.82L66.954,535.5H78.133Zm43,0.979a29.945,29.945,0,1,0-29.945-29.945A30.017,30.017,0,0,0,121.136,536.476Zm0-12.565c-9.465,0-16.89-8-16.89-17.38s7.425-17.379,16.89-17.379c9.384,0,16.809,8,16.809,17.379S130.52,523.911,121.136,523.911ZM186.17,535.5h25.459c9.954,0,17.624-7.506,17.624-17.053a15.139,15.139,0,0,0-8.241-13.708,13.633,13.633,0,0,0,4.162-9.954,17.22,17.22,0,0,0-17.217-17.217H186.17V535.5Zm12.974-34.514V489.4h7.344a5.888,5.888,0,0,1,6.038,5.875,5.807,5.807,0,0,1-6.038,5.712h-7.344Zm0,22.6V512h11.342a5.894,5.894,0,0,1,6.12,5.793,5.822,5.822,0,0,1-6.038,5.794H199.144Zm69.6,12.891A29.945,29.945,0,1,0,238.8,506.531,30.017,30.017,0,0,0,268.748,536.476Zm0-12.565c-9.465,0-16.89-8-16.89-17.38s7.425-17.379,16.89-17.379c9.384,0,16.809,8,16.809,17.379S278.132,523.911,268.748,523.911Zm66.177,12.565c13.871,0,23.826-9.464,23.826-23.907v-35H345.777v35.167c0,6.936-4.406,11.179-10.852,11.179s-10.853-4.243-10.853-11.179V477.565H311.1v35C311.1,527.012,320.972,536.476,334.925,536.476ZM426.8,535.5V477.565H413.749V513.3L385.6,477.565H374.419V535.5h12.974v-35.82l28.232,35.82H426.8Zm16.322,0h19.746c16.319,0,29.538-12.892,29.538-28.966s-13.219-28.966-29.538-28.966H443.126V535.5ZM456.1,523.585V489.478h6.773c9.791,0,16.4,7.752,16.4,17.053s-6.61,17.054-16.4,17.054H456.1ZM496.656,535.5H510.2l5.141-12.239h23.989l5.141,12.239h13.545l-24.806-57.932h-11.75ZM520.074,512l7.262-17.461L534.6,512H520.074Zm48.063,23.5h12.974V511.59h2.122L602.489,535.5h15.585l-20.48-25.539c7.343-2.611,11.342-7.425,11.342-14.931,0-9.629-7.018-17.462-17.952-17.462H568.137V535.5Zm12.974-34.922v-11.1h8.323c3.835,0,6.609,2.04,6.609,5.549,0,3.345-2.774,5.548-6.609,5.548h-8.323ZM626.236,535.5h12.973V477.565H626.236V535.5Zm29.293,0h36.719V523.1H668.5V512.732h18.849v-12.4H668.5V489.968h23.745v-12.4H655.529V535.5Zm67.972,0.979c12.24,0,20.644-7.343,20.726-17.869,0.081-8.73-5.386-14.279-13.79-17.3l-4.08-1.468c-6.12-2.2-8.976-3.591-8.976-6.691,0-3.019,3.509-4.406,7.018-4.406a12.885,12.885,0,0,1,10.036,4.814l8.486-8.976a24.173,24.173,0,0,0-18.685-8c-11.587,0-19.992,6.609-19.992,17.869,0,7.915,5.223,13.545,14.606,16.727l4.08,1.387c5.793,1.959,8.078,4,8.078,6.936,0,2.774-2.693,4.814-7.017,4.814a15.158,15.158,0,0,1-12-6.609l-9.955,8.4C706.529,532.642,714.362,536.476,723.5,536.476Z"/>
  <path id="Celebrating_40_years_of_iconic_style" data-name="Celebrating 40 years of iconic style" class="cls-2" d="M127.024,600.227a8.811,8.811,0,0,0,7.97-4.657l-3.361-1.824a5.114,5.114,0,1,1,0-4.657l3.361-1.825A8.886,8.886,0,1,0,127.024,600.227Zm11.4-.288h10.8V596.29h-6.986v-3.048h5.546v-3.649h-5.546v-3.049h6.986V582.9h-10.8v17.043Zm14.9,0H164.2V596.29h-7.058V582.9h-3.816v17.043Zm14.447,0h10.8V596.29h-6.986v-3.048h5.545v-3.649h-5.545v-3.049h6.986V582.9h-10.8v17.043Zm14.9,0h7.49a5.039,5.039,0,0,0,5.185-5.017,4.452,4.452,0,0,0-2.425-4.033,4.007,4.007,0,0,0,1.225-2.928,5.066,5.066,0,0,0-5.065-5.065h-6.41v17.043Zm3.817-10.154v-3.409h2.16a1.732,1.732,0,0,1,1.777,1.729,1.708,1.708,0,0,1-1.777,1.68H186.5Zm0,6.649v-3.409h3.337a1.734,1.734,0,0,1,1.8,1.705,1.712,1.712,0,0,1-1.776,1.7H186.5Zm12.623,3.5h3.817v-7.034h0.624l5.665,7.034h4.585l-6.025-7.514c2.16-.768,3.337-2.184,3.337-4.392a5.032,5.032,0,0,0-5.281-5.137h-6.722v17.043Zm3.817-10.274V586.4h2.448a1.7,1.7,0,0,1,1.945,1.633,1.725,1.725,0,0,1-1.945,1.632h-2.448Zm11.446,10.274h3.985l1.513-3.6h7.057l1.512,3.6h3.985l-7.3-17.043h-3.457Zm6.89-6.914,2.136-5.136,2.137,5.136h-4.273Zm15.5,6.914h3.841V586.544h4.393V582.9H232.43v3.648h4.344v13.395Zm11.76,0h3.816V582.9h-3.816v17.043Zm24.027,0V582.9H268.72V593.41L260.438,582.9h-3.289v17.043h3.817V589.4l8.306,10.538h3.289Zm13.126,0.288c2.761,0,5.473-.816,6.985-2.521v-8.089h-7.057v3.577h3.337v2.52a5.555,5.555,0,0,1-3.313.816c-3.337,0-5.377-2.208-5.377-5.113A5,5,0,0,1,285.4,586.3a5.658,5.658,0,0,1,4.3,1.825l2.688-2.617a9.067,9.067,0,0,0-6.985-2.9,8.705,8.705,0,0,0-8.978,8.809C276.421,596.41,280.382,600.227,285.687,600.227Zm24.623-.288h3.625v-3.7h2.184v-3.313h-2.184V582.9H310.67l-8.69,10.418v2.928h8.33v3.7Zm0-7.01H306.4l3.913-4.7v4.7Zm15.48,7.274c3.792,0,6.433-2.881,6.433-6.817v-3.961c0-3.937-2.641-6.817-6.433-6.817-3.817,0-6.458,2.88-6.458,6.817v3.961C319.332,597.322,321.973,600.2,325.79,600.2Zm0-3.577c-1.681,0-2.833-1.2-2.833-3.24v-3.961c0-2.041,1.152-3.241,2.833-3.241,1.656,0,2.808,1.2,2.808,3.241v3.961C328.6,595.426,327.446,596.626,325.79,596.626Zm21.095,3.313h3.841v-7.154l6.217-9.889H352.5l-3.72,6.145-3.673-6.145h-4.441l6.217,9.865v7.178Zm13.247,0h10.8V596.29h-6.985v-3.048h5.545v-3.649h-5.545v-3.049h6.985V582.9h-10.8v17.043Zm13.079,0H377.2l1.513-3.6h7.057l1.512,3.6h3.985l-7.3-17.043h-3.457Zm6.89-6.914,2.136-5.136,2.137,5.136H380.1Zm14.135,6.914h3.817v-7.034h0.624l5.665,7.034h4.585l-6.025-7.514c2.16-.768,3.336-2.184,3.336-4.392a5.031,5.031,0,0,0-5.281-5.137h-6.721v17.043Zm3.817-10.274V586.4H400.5a1.7,1.7,0,0,1,1.945,1.633,1.726,1.726,0,0,1-1.945,1.632h-2.448Zm18.36,10.562c3.6,0,6.073-2.161,6.1-5.257,0.024-2.569-1.584-4.2-4.057-5.089l-1.2-.432c-1.8-.648-2.641-1.056-2.641-1.969,0-.888,1.032-1.3,2.065-1.3a3.79,3.79,0,0,1,2.952,1.416l2.5-2.64a7.114,7.114,0,0,0-5.5-2.352c-3.409,0-5.882,1.944-5.882,5.257,0,2.328,1.537,3.984,4.3,4.92l1.2,0.409c1.7,0.576,2.376,1.176,2.376,2.04,0,0.816-.792,1.416-2.064,1.416a4.458,4.458,0,0,1-3.529-1.944l-2.929,2.472A7.473,7.473,0,0,0,416.413,600.227Zm24.264,0a8.81,8.81,0,1,0-8.81-8.81A8.831,8.831,0,0,0,440.677,600.227Zm0-3.7a5.116,5.116,0,1,1,4.945-5.113A5.057,5.057,0,0,1,440.677,596.53Zm12.646,3.409h3.816v-6.673h5.209v-3.649h-5.209v-3.073h6.674V582.9h-10.49v17.043Zm20.183,0h3.817V582.9h-3.817v17.043Zm16.466,0.288a8.812,8.812,0,0,0,7.97-4.657l-3.361-1.824a5.114,5.114,0,1,1,0-4.657l3.361-1.825A8.886,8.886,0,1,0,489.972,600.227Zm19.248,0a8.81,8.81,0,1,0-8.81-8.81A8.831,8.831,0,0,0,509.22,600.227Zm0-3.7a5.116,5.116,0,1,1,4.945-5.113A5.056,5.056,0,0,1,509.22,596.53Zm28.057,3.409V582.9h-3.841V593.41L525.155,582.9h-3.289v17.043h3.817V589.4l8.305,10.538h3.289Zm4.8,0h3.816V582.9h-3.816v17.043Zm16.465,0.288a8.811,8.811,0,0,0,7.97-4.657l-3.361-1.824a5.114,5.114,0,1,1,0-4.657l3.361-1.825A8.886,8.886,0,1,0,558.539,600.227Zm22.967,0c3.6,0,6.073-2.161,6.1-5.257,0.024-2.569-1.584-4.2-4.056-5.089l-1.2-.432c-1.8-.648-2.64-1.056-2.64-1.969,0-.888,1.032-1.3,2.064-1.3a3.792,3.792,0,0,1,2.953,1.416l2.5-2.64a7.111,7.111,0,0,0-5.5-2.352c-3.409,0-5.881,1.944-5.881,5.257,0,2.328,1.536,3.984,4.3,4.92l1.2,0.409c1.7,0.576,2.377,1.176,2.377,2.04,0,0.816-.793,1.416-2.065,1.416a4.461,4.461,0,0,1-3.529-1.944l-2.928,2.472A7.472,7.472,0,0,0,581.506,600.227Zm12.768-.288h3.84V586.544h4.393V582.9H589.929v3.648h4.345v13.395Zm16.368,0h3.841v-7.154L620.7,582.9h-4.441l-3.721,6.145-3.673-6.145h-4.441l6.218,9.865v7.178Zm13.246,0h10.875V596.29h-7.058V582.9h-3.817v17.043Zm14.448,0h10.8V596.29h-6.985v-3.048H647.7v-3.649h-5.545v-3.049h6.985V582.9h-10.8v17.043Z"/>
</svg>
