<svg id="Copy_copy_3" data-name="Copy copy 3" xmlns="http://www.w3.org/2000/svg" width="768" height="365" viewBox="0 0 768 365">
  <metadata><?xpacket begin="﻿" id="W5M0MpCehiHzreSzNTczkc9d"?>
<x:xmpmeta xmlns:x="adobe:ns:meta/" x:xmptk="Adobe XMP Core 5.6-c138 79.159824, 2016/09/14-01:09:01        ">
   <rdf:RDF xmlns:rdf="http://www.w3.org/1999/02/22-rdf-syntax-ns#">
      <rdf:Description rdf:about=""/>
   </rdf:RDF>
</x:xmpmeta>
                                                                                                    
                                                                                                    
                                                                                                    
                                                                                                    
                                                                                                    
                                                                                                    
                                                                                                    
                                                                                                    
                                                                                                    
                                                                                                    
                                                                                                    
                                                                                                    
                                                                                                    
                                                                                                    
                                                                                                    
                                                                                                    
                                                                                                    
                                                                                                    
                                                                                                    
                                                                                                    
                           
<?xpacket end="w"?></metadata>
<defs>
    <style>
      .cls-1 {
        fill: #fff;
      }

      .cls-2 {
        fill-rule: evenodd;
      }
    </style>
  </defs>
  <rect id="Rectangle_109_copy" data-name="Rectangle 109 copy" class="cls-1" width="768" height="365"/>
  <path id="TRENCH_DRESS_Woven_b._2018_March_to_your_own_beat._This_dress" data-name="TRENCH DRESS Woven, b. 2018  March to your own beat. This dress" class="cls-2" d="M48,66.564h6.144V45.138h7.027V39.3H41.049v5.836H48V66.564Zm18.816,0H72.92V55.313h1l9.062,11.25h7.334L80.676,54.546c3.456-1.229,5.337-3.494,5.337-7.026A8.049,8.049,0,0,0,77.566,39.3H66.815V66.564ZM72.92,50.13V44.908h3.916c1.8,0,3.11.96,3.11,2.611,0,1.574-1.305,2.611-3.11,2.611H72.92ZM94.155,66.564h17.279V60.727H100.26V55.851h8.87V50.015h-8.87V45.138h11.174V39.3H94.155V66.564Zm48.5,0V39.3h-6.143V56.12L123.262,39.3H118V66.564h6.1V49.708l13.286,16.856h5.26Zm20.238,0.461a14.091,14.091,0,0,0,12.747-7.449l-5.375-2.918a8.179,8.179,0,1,1,0-7.449l5.375-2.918A14.212,14.212,0,1,0,162.89,67.024Zm18.24-.461h6.106V55.774h10.981V66.564h6.1V39.3h-6.1V49.976H187.236V39.3H181.13V66.564Zm41.241,0h9.293a13.633,13.633,0,1,0,0-27.261h-9.293V66.564Zm6.106-5.606V44.908h3.187a7.693,7.693,0,0,1,7.717,8.025,7.693,7.693,0,0,1-7.717,8.025h-3.187Zm23.27,5.606h6.1V55.313h1l9.062,11.25h7.333l-9.637-12.018c3.455-1.229,5.337-3.494,5.337-7.026A8.049,8.049,0,0,0,262.5,39.3H251.747V66.564Zm6.1-16.434V44.908h3.917c1.805,0,3.11.96,3.11,2.611,0,1.574-1.305,2.611-3.11,2.611h-3.917Zm21.236,16.434h17.278V60.727H285.193V55.851h8.87V50.015h-8.87V45.138h11.173V39.3H279.088V66.564Zm31.986,0.461c5.76,0,9.715-3.456,9.753-8.409,0.039-4.108-2.534-6.719-6.489-8.14l-1.92-.691c-2.88-1.037-4.224-1.689-4.224-3.148,0-1.421,1.651-2.073,3.3-2.073a6.063,6.063,0,0,1,4.722,2.265l3.994-4.224a11.376,11.376,0,0,0-8.793-3.763c-5.453,0-9.408,3.11-9.408,8.409,0,3.724,2.458,6.374,6.874,7.871l1.919,0.653c2.727,0.922,3.8,1.881,3.8,3.264,0,1.306-1.267,2.265-3.3,2.265a7.134,7.134,0,0,1-5.645-3.11l-4.684,3.955A11.954,11.954,0,0,0,311.074,67.024Zm24.038,0c5.76,0,9.715-3.456,9.753-8.409,0.038-4.108-2.534-6.719-6.489-8.14l-1.92-.691c-2.88-1.037-4.224-1.689-4.224-3.148,0-1.421,1.651-2.073,3.3-2.073a6.063,6.063,0,0,1,4.722,2.265l3.994-4.224a11.376,11.376,0,0,0-8.793-3.763c-5.453,0-9.408,3.11-9.408,8.409,0,3.724,2.458,6.374,6.874,7.871l1.919,0.653c2.727,0.922,3.8,1.881,3.8,3.264,0,1.306-1.267,2.265-3.3,2.265a7.134,7.134,0,0,1-5.645-3.11l-4.684,3.955A11.954,11.954,0,0,0,335.112,67.024ZM57.287,100.163h2.191L64.6,81.416H62.04L58.106,96.044,52.693,81.1,47.306,96.044,43.372,81.416H40.811l5.122,18.747h2.192l4.594-12.727Zm23.337-6.6a6.9,6.9,0,1,0-6.891,6.865A6.775,6.775,0,0,0,80.624,93.562Zm-11.486,0a4.584,4.584,0,1,1,4.594,4.753A4.538,4.538,0,0,1,69.139,93.562Zm19.88,6.6h1.9l6.1-13.2H94.484l-4.515,9.98-4.515-9.98H82.919Zm10.3-6.6a6.96,6.96,0,0,0,12.779,3.723l-1.8-1.241a4.674,4.674,0,0,1-8.686-2.033h10.825a6.3,6.3,0,0,0,.027-0.686c-0.027-4.225-2.826-6.627-6.285-6.627A6.69,6.69,0,0,0,99.314,93.562ZM106.1,88.7a3.95,3.95,0,0,1,4.04,3.459h-8.37A4.316,4.316,0,0,1,106.1,88.7ZM117,100.163h2.271V93.615c0-3.089,1.69-4.832,3.829-4.832,1.848,0,3.115,1.373,3.115,3.591v7.789h2.245V92.031c0-3.274-2.033-5.334-4.991-5.334a4.669,4.669,0,0,0-4.2,2.3V86.961H117v13.2Zm19.695-.581a2.26,2.26,0,0,0,.37-1.188,1.954,1.954,0,1,0-3.908,0,1.967,1.967,0,0,0,1.082,1.769l-1.769,3.775h1.5Zm15.285-1.452a5.79,5.79,0,0,0,4.647,2.3,6.877,6.877,0,0,0,0-13.73,5.789,5.789,0,0,0-4.647,2.3V80.36H149.71v19.8h2.271V98.13Zm8.793-4.568a4.5,4.5,0,1,1-4.489-4.779A4.508,4.508,0,0,1,160.774,93.562Zm9.766,4.832a1.954,1.954,0,1,0-1.954,1.98A1.989,1.989,0,0,0,170.54,98.394Zm23.893-.422h-9.347c0.449-2.165,2.641-3.248,4.806-4.832,3.063-2.218,4.33-3.8,4.33-6.548,0-3.644-2.667-5.492-5.783-5.492-3.458,0-6.178,2.323-6.178,5.914h2.324a3.62,3.62,0,0,1,3.881-3.7,3.17,3.17,0,0,1,3.432,3.248c0,2.192-1.161,3.168-3.327,4.779-2.772,2.059-6.284,3.908-6.284,7.921v0.9h12.146V97.971Zm17.477-4.594V88.149c0-4.145-2.8-7.05-6.654-7.05s-6.627,2.9-6.627,7.05v5.228c0,4.172,2.772,7.05,6.627,7.05S211.91,97.549,211.91,93.377Zm-11.01,0V88.149c0-3.036,1.822-4.832,4.356-4.832,2.562,0,4.383,1.8,4.383,4.832v5.228c0,3.036-1.821,4.832-4.383,4.832C202.722,98.209,200.9,96.413,200.9,93.377Zm17.687,6.786h2.271V81.416h-4.04l-1.848,2.244h3.617v16.5Zm19.907-5.624a5.238,5.238,0,0,0-2.93-4.911,4.39,4.39,0,0,0,1.9-3.7c0-2.8-2.166-4.832-5.255-4.832-3.01,0-5.281,2.033-5.281,4.832a4.373,4.373,0,0,0,1.954,3.7,5.239,5.239,0,0,0-2.983,4.911c0,3.406,2.64,5.888,6.31,5.888C235.933,100.427,238.494,97.945,238.494,94.539Zm-9.32-8.555a2.79,2.79,0,0,1,3.036-2.746,2.739,2.739,0,0,1,3.01,2.746,2.8,2.8,0,0,1-3.01,2.772A2.857,2.857,0,0,1,229.174,85.984ZM228.2,94.539a3.722,3.722,0,0,1,4.013-3.749,3.744,3.744,0,1,1,0,7.472A3.731,3.731,0,0,1,228.2,94.539ZM50.838,147.968l6.145-8.257v13.25h2.208V135.918H57.175l-6.337,8.5-6.337-8.5H42.46v17.043h2.232v-13.25ZM63.46,146.96a6.006,6.006,0,0,0,5.881,6.241,5.264,5.264,0,0,0,4.225-2.088v1.848h2.064v-12H73.566v1.848a5.264,5.264,0,0,0-4.225-2.088A6.006,6.006,0,0,0,63.46,146.96Zm10.274,0a4.1,4.1,0,1,1-4.081-4.345A4.1,4.1,0,0,1,73.734,146.96Zm6.982,6H82.78v-5.953c0-2.808,1.656-4.129,3.169-4.129a3.018,3.018,0,0,1,1.128.192v-2.136a4.278,4.278,0,0,0-.936-0.1,3.571,3.571,0,0,0-3.361,2.448v-2.328H80.716v12Zm20.45-2.976-1.8-1.008a4.069,4.069,0,0,1-3.745,2.3,4.323,4.323,0,0,1,0-8.642,4.068,4.068,0,0,1,3.745,2.3l1.8-1.008a6.214,6.214,0,0,0-5.545-3.217,6.241,6.241,0,1,0,0,12.482A6.215,6.215,0,0,0,101.166,149.985Zm3.862,2.976h2.064v-5.953c0-2.808,1.537-4.393,3.481-4.393,1.68,0,2.833,1.249,2.833,3.265v7.081h2.04v-7.393c0-2.977-1.848-4.849-4.537-4.849a4.245,4.245,0,0,0-3.817,2.088v-7.849h-2.064v18Zm28.489-.168v-1.848a4.564,4.564,0,0,1-1.465.24c-1.3,0-1.992-.5-1.992-2.04v-6.29h3.457v-1.9H130.06v-3.337H128v3.337h-2.545v1.9H128v6.554a3.378,3.378,0,0,0,3.672,3.672A5.749,5.749,0,0,0,133.517,152.793Zm15.265-5.833a6.278,6.278,0,1,0-6.265,6.241A6.159,6.159,0,0,0,148.782,146.96Zm-10.442,0a4.168,4.168,0,1,1,4.177,4.321A4.126,4.126,0,0,1,138.34,146.96Zm24.288,11.018,7.873-17.019h-2.3l-4.1,9.1-4.129-9.1h-2.28l5.257,11.378-2.617,5.641h2.3Zm22.466-11.018a6.278,6.278,0,1,0-6.266,6.241A6.159,6.159,0,0,0,185.094,146.96Zm-10.442,0a4.167,4.167,0,1,1,4.176,4.321A4.125,4.125,0,0,1,174.652,146.96Zm14.423,1.368c0,2.977,1.776,4.873,4.417,4.873a4.13,4.13,0,0,0,3.7-2.088v1.848h2.064v-12h-2.064v5.953c0,2.761-1.465,4.393-3.337,4.393-1.656,0-2.713-1.272-2.713-3.289v-7.057h-2.064v7.369Zm15.264,4.633H206.4v-5.953c0-2.808,1.657-4.129,3.169-4.129a3.017,3.017,0,0,1,1.128.192v-2.136a4.276,4.276,0,0,0-.936-0.1,3.571,3.571,0,0,0-3.361,2.448v-2.328h-2.064v12Zm28.034-6a6.278,6.278,0,1,0-6.265,6.241A6.159,6.159,0,0,0,232.373,146.96Zm-10.442,0a4.168,4.168,0,1,1,4.177,4.321A4.126,4.126,0,0,1,221.931,146.96Zm24.722,6h1.824l4.081-12h-2.185l-2.9,8.762-3-8.762h-1.584l-3,8.762-2.905-8.762h-2.16l4.081,12h1.824l2.977-8.641Zm9.333,0h2.064v-5.953c0-2.808,1.537-4.393,3.481-4.393,1.681,0,2.833,1.249,2.833,3.265v7.081h2.04v-7.393c0-2.977-1.848-4.849-4.537-4.849a4.246,4.246,0,0,0-3.817,2.088v-1.848h-2.064v12Zm24.456-1.848a5.263,5.263,0,0,0,4.225,2.088,6.252,6.252,0,0,0,0-12.482,5.263,5.263,0,0,0-4.225,2.088v-7.849h-2.065v18h2.065v-1.848Zm7.994-4.153a4.089,4.089,0,1,1-4.081-4.345A4.1,4.1,0,0,1,288.436,146.96Zm5.325,0a6.328,6.328,0,0,0,11.619,3.385l-1.633-1.128a4.249,4.249,0,0,1-7.9-1.849h9.842a5.856,5.856,0,0,0,.024-0.624c-0.024-3.841-2.569-6.025-5.714-6.025A6.082,6.082,0,0,0,293.761,146.96Zm6.169-4.417a3.591,3.591,0,0,1,3.673,3.145h-7.609A3.924,3.924,0,0,1,299.93,142.543Zm8.975,4.417a6.005,6.005,0,0,0,5.881,6.241,5.263,5.263,0,0,0,4.225-2.088v1.848h2.064v-12h-2.064v1.848a5.263,5.263,0,0,0-4.225-2.088A6.005,6.005,0,0,0,308.9,146.96Zm10.274,0a4.1,4.1,0,1,1-4.081-4.345A4.1,4.1,0,0,1,319.179,146.96Zm13.487,5.833v-1.848a4.562,4.562,0,0,1-1.464.24c-1.3,0-1.993-.5-1.993-2.04v-6.29h3.457v-1.9h-3.457v-3.337h-2.064v3.337H324.6v1.9h2.545v6.554a3.378,3.378,0,0,0,3.673,3.672A5.743,5.743,0,0,0,332.666,152.793Zm6.695-1.44a1.776,1.776,0,1,0-1.776,1.8A1.808,1.808,0,0,0,339.361,151.353Zm14.424,1.608h2.185V138.03h5.3v-2.112H348.48v2.112h5.305v14.931Zm10.872,0h2.064v-5.953c0-2.808,1.536-4.393,3.481-4.393,1.68,0,2.832,1.249,2.832,3.265v7.081h2.041v-7.393c0-2.977-1.849-4.849-4.537-4.849a4.245,4.245,0,0,0-3.817,2.088v-7.849h-2.064v18Zm17.832-16.683a1.449,1.449,0,0,0-1.44-1.464,1.491,1.491,0,0,0-1.489,1.464,1.475,1.475,0,0,0,1.489,1.464A1.434,1.434,0,0,0,382.489,136.278Zm-2.5,16.683h2.065v-12h-2.065v12Zm14.954-3.336c0-1.8-1.128-2.953-3.169-3.625l-1.3-.432c-1.416-.456-1.848-0.912-1.848-1.68,0-.889.888-1.393,2.016-1.393a3.24,3.24,0,0,1,2.544,1.249l1.345-1.3a4.656,4.656,0,0,0-3.841-1.728c-2.377,0-4.057,1.32-4.057,3.265,0,1.68,1.032,2.856,2.977,3.48l1.176,0.384c1.56,0.5,2.136,1.081,2.136,1.921,0,1.032-.936,1.632-2.112,1.632a3.222,3.222,0,0,1-3.073-1.9l-1.68.912a4.768,4.768,0,0,0,4.7,2.784C393.193,153.2,394.946,151.977,394.946,149.625Zm10.27-2.665A6.005,6.005,0,0,0,411.1,153.2a5.266,5.266,0,0,0,4.225-2.088v1.848h2.064v-18h-2.064v7.849a5.266,5.266,0,0,0-4.225-2.088A6.005,6.005,0,0,0,405.216,146.96Zm10.274,0a4.1,4.1,0,1,1-4.081-4.345A4.1,4.1,0,0,1,415.49,146.96Zm6.981,6h2.065v-5.953c0-2.808,1.656-4.129,3.169-4.129a3.017,3.017,0,0,1,1.128.192v-2.136a4.276,4.276,0,0,0-.936-0.1,3.57,3.57,0,0,0-3.361,2.448v-2.328h-2.065v12Zm8.616-6a6.328,6.328,0,0,0,11.619,3.385l-1.632-1.128a4.25,4.25,0,0,1-7.9-1.849h9.842a5.856,5.856,0,0,0,.024-0.624c-0.024-3.841-2.569-6.025-5.713-6.025A6.082,6.082,0,0,0,431.087,146.96Zm6.17-4.417a3.593,3.593,0,0,1,3.673,3.145h-7.61A3.924,3.924,0,0,1,437.257,142.543Zm17.688,7.082c0-1.8-1.128-2.953-3.169-3.625l-1.3-.432c-1.416-.456-1.848-0.912-1.848-1.68,0-.889.888-1.393,2.016-1.393a3.242,3.242,0,0,1,2.545,1.249l1.344-1.3a4.654,4.654,0,0,0-3.841-1.728c-2.376,0-4.057,1.32-4.057,3.265,0,1.68,1.033,2.856,2.977,3.48l1.176,0.384c1.561,0.5,2.137,1.081,2.137,1.921,0,1.032-.936,1.632-2.113,1.632a3.221,3.221,0,0,1-3.072-1.9l-1.681.912a4.768,4.768,0,0,0,4.7,2.784C453.193,153.2,454.945,151.977,454.945,149.625Zm11.9,0c0-1.8-1.128-2.953-3.169-3.625l-1.3-.432c-1.416-.456-1.848-0.912-1.848-1.68,0-.889.888-1.393,2.016-1.393a3.242,3.242,0,0,1,2.545,1.249l1.344-1.3a4.654,4.654,0,0,0-3.841-1.728c-2.376,0-4.057,1.32-4.057,3.265,0,1.68,1.033,2.856,2.977,3.48l1.176,0.384c1.561,0.5,2.137,1.081,2.137,1.921,0,1.032-.936,1.632-2.113,1.632a3.221,3.221,0,0,1-3.072-1.9l-1.681.912a4.768,4.768,0,0,0,4.705,2.784C465.1,153.2,466.849,151.977,466.849,149.625Zm13.7-13.347a1.45,1.45,0,0,0-1.441-1.464,1.491,1.491,0,0,0-1.488,1.464,1.475,1.475,0,0,0,1.488,1.464A1.435,1.435,0,0,0,480.552,136.278Zm-2.5,16.683h2.064v-12h-2.064v12Zm14.953-3.336c0-1.8-1.128-2.953-3.168-3.625l-1.3-.432c-1.416-.456-1.848-0.912-1.848-1.68,0-.889.888-1.393,2.017-1.393a3.24,3.24,0,0,1,2.544,1.249l1.344-1.3a4.654,4.654,0,0,0-3.84-1.728c-2.377,0-4.057,1.32-4.057,3.265,0,1.68,1.032,2.856,2.976,3.48l1.177,0.384c1.56,0.5,2.136,1.081,2.136,1.921,0,1.032-.936,1.632-2.112,1.632a3.221,3.221,0,0,1-3.073-1.9l-1.68.912a4.767,4.767,0,0,0,4.7,2.784C491.256,153.2,493.008,151.977,493.008,149.625Zm10.27-2.665a6.006,6.006,0,0,0,5.881,6.241,5.263,5.263,0,0,0,4.225-2.088v1.848h2.065v-12h-2.065v1.848a5.263,5.263,0,0,0-4.225-2.088A6.006,6.006,0,0,0,503.278,146.96Zm10.274,0a4.1,4.1,0,1,1-4.081-4.345A4.1,4.1,0,0,1,513.552,146.96Zm6.982,6H522.6v-5.953c0-2.808,1.537-4.393,3.481-4.393,1.681,0,2.833,1.249,2.833,3.265v7.081h2.04v-7.393c0-2.977-1.848-4.849-4.537-4.849a4.246,4.246,0,0,0-3.817,2.088v-1.848h-2.064v12Zm21.455-6a6.328,6.328,0,0,0,11.619,3.385l-1.633-1.128a4.249,4.249,0,0,1-7.9-1.849h9.842a5.856,5.856,0,0,0,.024-0.624c-0.024-3.841-2.569-6.025-5.713-6.025A6.082,6.082,0,0,0,541.989,146.96Zm6.17-4.417a3.591,3.591,0,0,1,3.672,3.145h-7.609A3.924,3.924,0,0,1,548.159,142.543Zm9.91,10.418h2.065v-18h-2.065v18Zm6.24-6a6.328,6.328,0,0,0,11.618,3.385l-1.632-1.128a4.25,4.25,0,0,1-7.9-1.849h9.843a5.856,5.856,0,0,0,.024-0.624c-0.024-3.841-2.569-6.025-5.714-6.025A6.082,6.082,0,0,0,564.309,146.96Zm6.169-4.417a3.591,3.591,0,0,1,3.673,3.145h-7.61A3.926,3.926,0,0,1,570.478,142.543Zm13.464,10.418h1.728l5.545-12h-2.3l-4.1,9.074-4.105-9.074h-2.3Zm9.383-6a6.005,6.005,0,0,0,5.881,6.241,5.264,5.264,0,0,0,4.225-2.088v1.848H605.5v-12h-2.064v1.848a5.264,5.264,0,0,0-4.225-2.088A6.005,6.005,0,0,0,593.325,146.96Zm10.274,0a4.1,4.1,0,1,1-4.081-4.345A4.1,4.1,0,0,1,603.6,146.96Zm13.487,5.833v-1.848a4.562,4.562,0,0,1-1.464.24c-1.3,0-1.993-.5-1.993-2.04v-6.29h3.457v-1.9h-3.457v-3.337h-2.064v3.337H609.02v1.9h2.545v6.554a3.378,3.378,0,0,0,3.673,3.672A5.743,5.743,0,0,0,617.086,152.793Zm2.735-5.833a6.328,6.328,0,0,0,11.618,3.385l-1.632-1.128a4.25,4.25,0,0,1-7.9-1.849h9.842a5.856,5.856,0,0,0,.024-0.624c-0.024-3.841-2.568-6.025-5.713-6.025A6.081,6.081,0,0,0,619.821,146.96Zm6.169-4.417a3.592,3.592,0,0,1,3.673,3.145h-7.61A3.925,3.925,0,0,1,625.99,142.543Zm8.975,4.417a6.005,6.005,0,0,0,5.881,6.241,5.264,5.264,0,0,0,4.225-2.088v1.848h2.064v-18h-2.064v7.849a5.264,5.264,0,0,0-4.225-2.088A6.005,6.005,0,0,0,634.965,146.96Zm10.274,0a4.1,4.1,0,1,1-4.081-4.345A4.1,4.1,0,0,1,645.239,146.96ZM42.148,186.777h2.064v-6.865A5.265,5.265,0,0,0,48.438,182a6.253,6.253,0,0,0,0-12.483,5.262,5.262,0,0,0-4.225,2.089v-1.849H42.148v17.019Zm10.058-11.018a4.089,4.089,0,1,1-4.081-4.344A4.1,4.1,0,0,1,52.206,175.759Zm6.286,6h2.065v-18H58.492v18Zm6.24-6A6.006,6.006,0,0,0,70.613,182a5.265,5.265,0,0,0,4.225-2.089v1.849H76.9v-12H74.838v1.849a5.262,5.262,0,0,0-4.225-2.089A6.006,6.006,0,0,0,64.732,175.759Zm10.274,0a4.1,4.1,0,1,1-4.081-4.344A4.1,4.1,0,0,1,75.006,175.759ZM85.18,186.777l7.874-17.019h-2.3l-4.1,9.1-4.129-9.1h-2.28l5.257,11.378-2.617,5.641h2.3Zm29.258-11.018A6.278,6.278,0,1,0,108.173,182,6.159,6.159,0,0,0,114.438,175.759Zm-10.442,0a4.168,4.168,0,1,1,4.177,4.321A4.125,4.125,0,0,1,104,175.759Zm14.591,6h2.065v-5.954c0-2.808,1.536-4.392,3.481-4.392,1.68,0,2.832,1.248,2.832,3.264v7.082h2.041v-7.394c0-2.976-1.849-4.849-4.537-4.849a4.243,4.243,0,0,0-3.817,2.089v-1.849h-2.065v12Zm21.456-6A6.006,6.006,0,0,0,145.924,182a5.265,5.265,0,0,0,4.225-2.089v1.849h2.064v-12h-2.064v1.849a5.262,5.262,0,0,0-4.225-2.089A6.006,6.006,0,0,0,140.043,175.759Zm10.274,0a4.1,4.1,0,1,1-4.081-4.344A4.1,4.1,0,0,1,150.317,175.759Zm24.936,3.025-1.8-1.008a4.068,4.068,0,0,1-3.745,2.3,4.322,4.322,0,0,1,0-8.641,4.068,4.068,0,0,1,3.745,2.3l1.8-1.008a6.216,6.216,0,0,0-5.546-3.217,6.242,6.242,0,1,0,0,12.483A6.218,6.218,0,0,0,175.253,178.784Zm3.861,2.977h2.064v-18h-2.064v18Zm6.24-6A6.006,6.006,0,0,0,191.235,182a5.265,5.265,0,0,0,4.225-2.089v1.849h2.064v-12H195.46v1.849a5.262,5.262,0,0,0-4.225-2.089A6.006,6.006,0,0,0,185.354,175.759Zm10.274,0a4.1,4.1,0,1,1-4.081-4.344A4.1,4.1,0,0,1,195.628,175.759Zm14.759,2.665c0-1.8-1.128-2.953-3.168-3.625l-1.3-.432c-1.416-.456-1.848-0.912-1.848-1.68,0-.888.888-1.392,2.016-1.392a3.243,3.243,0,0,1,2.545,1.248l1.344-1.3a4.652,4.652,0,0,0-3.841-1.729c-2.376,0-4.057,1.32-4.057,3.265,0,1.68,1.033,2.856,2.977,3.48l1.176,0.385c1.561,0.5,2.137,1.08,2.137,1.92,0,1.032-.936,1.632-2.113,1.632a3.221,3.221,0,0,1-3.072-1.9l-1.681.912A4.768,4.768,0,0,0,206.21,182C208.635,182,210.387,180.776,210.387,178.424Zm11.9,0c0-1.8-1.128-2.953-3.169-3.625l-1.3-.432c-1.416-.456-1.848-0.912-1.848-1.68,0-.888.888-1.392,2.016-1.392a3.243,3.243,0,0,1,2.545,1.248l1.344-1.3a4.652,4.652,0,0,0-3.841-1.729c-2.376,0-4.057,1.32-4.057,3.265,0,1.68,1.033,2.856,2.977,3.48l1.176,0.385c1.561,0.5,2.137,1.08,2.137,1.92,0,1.032-.936,1.632-2.113,1.632a3.221,3.221,0,0,1-3.072-1.9l-1.681.912A4.768,4.768,0,0,0,218.114,182C220.539,182,222.291,180.776,222.291,178.424Zm6.647-13.347a1.449,1.449,0,0,0-1.44-1.464,1.491,1.491,0,0,0-1.489,1.464,1.475,1.475,0,0,0,1.489,1.465A1.435,1.435,0,0,0,228.938,165.077Zm-2.5,16.684h2.065v-12h-2.065v12Zm18.074-2.977-1.8-1.008a4.068,4.068,0,0,1-3.745,2.3,4.322,4.322,0,0,1,0-8.641,4.068,4.068,0,0,1,3.745,2.3l1.8-1.008a6.214,6.214,0,0,0-5.545-3.217,6.242,6.242,0,1,0,0,12.483A6.216,6.216,0,0,0,244.515,178.784Zm10.918,2.977H257.5v-5.954c0-2.712,1.368-4.392,3.313-4.392,1.56,0,2.352,1.344,2.352,3.288v7.058h2.065v-5.954c0-2.712,1.344-4.392,3.288-4.392,1.561,0,2.377,1.344,2.377,3.288v7.058h2.064v-7.37c0-2.928-1.584-4.873-4.2-4.873a4.152,4.152,0,0,0-3.936,2.569,3.774,3.774,0,0,0-3.7-2.569,4.033,4.033,0,0,0-3.625,2.089v-1.849h-2.064v12Zm24.936-16.684a1.449,1.449,0,0,0-1.44-1.464,1.491,1.491,0,0,0-1.489,1.464,1.475,1.475,0,0,0,1.489,1.465A1.435,1.435,0,0,0,280.369,165.077Zm-2.5,16.684h2.065v-12h-2.065v12Zm7.176,0h2.065v-18h-2.065v18Zm9.673-16.684a1.45,1.45,0,0,0-1.441-1.464,1.491,1.491,0,0,0-1.488,1.464,1.475,1.475,0,0,0,1.488,1.465A1.436,1.436,0,0,0,294.721,165.077Zm-2.5,16.684h2.065v-12h-2.065v12Zm13.681-.169v-1.848a4.562,4.562,0,0,1-1.464.24c-1.3,0-1.992-.5-1.992-2.04v-6.289H305.9v-1.9h-3.456v-3.336h-2.065v3.336H297.84v1.9h2.544v6.553a3.379,3.379,0,0,0,3.673,3.673A5.713,5.713,0,0,0,305.9,181.592Zm2.735-5.833A6.006,6.006,0,0,0,314.521,182a5.264,5.264,0,0,0,4.225-2.089v1.849h2.064v-12h-2.064v1.849a5.261,5.261,0,0,0-4.225-2.089A6.006,6.006,0,0,0,308.64,175.759Zm10.274,0a4.1,4.1,0,1,1-4.081-4.344A4.1,4.1,0,0,1,318.914,175.759Zm6.982,6h2.064v-5.954c0-2.808,1.657-4.128,3.169-4.128a3.017,3.017,0,0,1,1.128.192v-2.137a4.276,4.276,0,0,0-.936-0.1,3.571,3.571,0,0,0-3.361,2.449v-2.329H325.9v12Zm13.176,5.016,7.874-17.019h-2.3l-4.105,9.1-4.129-9.1h-2.281l5.258,11.378-2.617,5.641h2.3Zm23.761-5.185v-1.848a4.562,4.562,0,0,1-1.464.24c-1.3,0-1.993-.5-1.993-2.04v-6.289h3.457v-1.9h-3.457v-3.336h-2.064v3.336h-2.545v1.9h2.545v6.553a3.379,3.379,0,0,0,3.673,3.673A5.713,5.713,0,0,0,362.833,181.592Zm3.839,0.169h2.064v-5.954c0-2.808,1.656-4.128,3.169-4.128a3.017,3.017,0,0,1,1.128.192v-2.137a4.276,4.276,0,0,0-.936-0.1,3.571,3.571,0,0,0-3.361,2.449v-2.329h-2.064v12Zm8.616-6a6.327,6.327,0,0,0,11.618,3.385l-1.632-1.128a4.25,4.25,0,0,1-7.9-1.849h9.842a5.856,5.856,0,0,0,.024-0.624c-0.024-3.84-2.568-6.025-5.713-6.025A6.082,6.082,0,0,0,375.288,175.759Zm6.169-4.416a3.591,3.591,0,0,1,3.673,3.144h-7.61A3.924,3.924,0,0,1,381.457,171.343Zm9.911,10.418h2.064v-5.954c0-2.808,1.536-4.392,3.481-4.392,1.68,0,2.833,1.248,2.833,3.264v7.082h2.04v-7.394c0-2.976-1.848-4.849-4.537-4.849a4.244,4.244,0,0,0-3.817,2.089v-1.849h-2.064v12Zm26.234-2.977-1.8-1.008a4.068,4.068,0,0,1-3.744,2.3,4.322,4.322,0,0,1,0-8.641,4.068,4.068,0,0,1,3.744,2.3l1.8-1.008a6.215,6.215,0,0,0-5.545-3.217,6.242,6.242,0,1,0,0,12.483A6.217,6.217,0,0,0,417.6,178.784Zm3.861,2.977h2.065v-5.954c0-2.808,1.536-4.392,3.48-4.392,1.681,0,2.833,1.248,2.833,3.264v7.082h2.04v-7.394c0-2.976-1.848-4.849-4.537-4.849a4.242,4.242,0,0,0-3.816,2.089v-7.85h-2.065v18Zm14.952-5.69h12.122v-2.064H436.415v2.064Zm16.824,5.69H455.3v-5.954c0-2.712,1.368-4.392,3.313-4.392,1.56,0,2.352,1.344,2.352,3.288v7.058h2.065v-5.954c0-2.712,1.344-4.392,3.289-4.392,1.56,0,2.376,1.344,2.376,3.288v7.058h2.064v-7.37c0-2.928-1.584-4.873-4.2-4.873a4.153,4.153,0,0,0-3.937,2.569,3.773,3.773,0,0,0-3.7-2.569,4.034,4.034,0,0,0-3.625,2.089v-1.849h-2.064v12Zm21.5-6A6.007,6.007,0,0,0,480.624,182a5.267,5.267,0,0,0,4.225-2.089v1.849h2.064v-12h-2.064v1.849a5.264,5.264,0,0,0-4.225-2.089A6.007,6.007,0,0,0,474.742,175.759Zm10.275,0a4.1,4.1,0,1,1-4.081-4.344A4.1,4.1,0,0,1,485.017,175.759Zm6.045,0A6.007,6.007,0,0,0,496.943,182a5.264,5.264,0,0,0,4.225-2.089v1.849h2.065v-18h-2.065v7.85a5.261,5.261,0,0,0-4.225-2.089A6.006,6.006,0,0,0,491.062,175.759Zm10.274,0a4.1,4.1,0,1,1-4.081-4.344A4.1,4.1,0,0,1,501.336,175.759Zm6.046,0A6.327,6.327,0,0,0,519,179.144l-1.632-1.128a4.25,4.25,0,0,1-7.9-1.849h9.842a5.856,5.856,0,0,0,.024-0.624c-0.024-3.84-2.568-6.025-5.713-6.025A6.082,6.082,0,0,0,507.382,175.759Zm6.169-4.416a3.591,3.591,0,0,1,3.673,3.144h-7.61A3.924,3.924,0,0,1,513.551,171.343Zm16.967,10.418h2.064v-5.954c0-2.712,1.368-4.392,3.313-4.392,1.56,0,2.352,1.344,2.352,3.288v7.058h2.065v-5.954c0-2.712,1.344-4.392,3.288-4.392,1.561,0,2.377,1.344,2.377,3.288v7.058h2.064v-7.37c0-2.928-1.584-4.873-4.2-4.873a4.153,4.153,0,0,0-3.937,2.569,3.773,3.773,0,0,0-3.7-2.569,4.034,4.034,0,0,0-3.625,2.089v-1.849h-2.064v12Zm34.034-6A6.278,6.278,0,1,0,558.287,182,6.16,6.16,0,0,0,564.552,175.759Zm-10.442,0a4.168,4.168,0,1,1,4.177,4.321A4.125,4.125,0,0,1,554.11,175.759Zm14.591,6h2.065v-5.954c0-2.808,1.656-4.128,3.168-4.128a3.022,3.022,0,0,1,1.129.192v-2.137a4.285,4.285,0,0,0-.937-0.1,3.57,3.57,0,0,0-3.36,2.449v-2.329H568.7v12Zm8.616-6a6.328,6.328,0,0,0,11.619,3.385l-1.633-1.128a4.249,4.249,0,0,1-7.9-1.849h9.842a5.856,5.856,0,0,0,.024-0.624c-0.024-3.84-2.569-6.025-5.713-6.025A6.083,6.083,0,0,0,577.317,175.759Zm6.17-4.416a3.59,3.59,0,0,1,3.672,3.144H579.55A3.923,3.923,0,0,1,583.487,171.343Zm16.966,10.418h2.064v-5.954c0-2.712,1.369-4.392,3.313-4.392,1.56,0,2.353,1.344,2.353,3.288v7.058h2.064v-5.954c0-2.712,1.344-4.392,3.289-4.392,1.56,0,2.376,1.344,2.376,3.288v7.058h2.065v-7.37c0-2.928-1.585-4.873-4.2-4.873a4.153,4.153,0,0,0-3.937,2.569,3.772,3.772,0,0,0-3.7-2.569,4.035,4.035,0,0,0-3.625,2.089v-1.849h-2.064v12Zm34.034-6A6.277,6.277,0,1,0,628.222,182,6.159,6.159,0,0,0,634.487,175.759Zm-10.442,0a4.168,4.168,0,1,1,4.177,4.321A4.125,4.125,0,0,1,624.045,175.759Zm13.655,0A6.007,6.007,0,0,0,643.582,182a5.267,5.267,0,0,0,4.225-2.089v1.849h2.064v-18h-2.064v7.85a5.264,5.264,0,0,0-4.225-2.089A6.007,6.007,0,0,0,637.7,175.759Zm10.275,0a4.1,4.1,0,1,1-4.081-4.344A4.1,4.1,0,0,1,647.975,175.759Zm6.045,0a6.328,6.328,0,0,0,11.619,3.385l-1.633-1.128a4.249,4.249,0,0,1-7.9-1.849h9.842a5.856,5.856,0,0,0,.024-0.624c-0.024-3.84-2.569-6.025-5.714-6.025A6.083,6.083,0,0,0,654.02,175.759Zm6.169-4.416a3.591,3.591,0,0,1,3.673,3.144h-7.609A3.923,3.923,0,0,1,660.189,171.343Zm9.911,10.418h2.065v-5.954c0-2.808,1.656-4.128,3.168-4.128a3.017,3.017,0,0,1,1.128.192v-2.137a4.276,4.276,0,0,0-.936-0.1,3.57,3.57,0,0,0-3.36,2.449v-2.329H670.1v12Zm9.984,0h2.065v-5.954c0-2.808,1.536-4.392,3.48-4.392,1.681,0,2.833,1.248,2.833,3.264v7.082h2.04v-7.394c0-2.976-1.848-4.849-4.537-4.849a4.242,4.242,0,0,0-3.816,2.089v-1.849h-2.065v12Zm-638.872,22.8a6.006,6.006,0,0,0,5.881,6.241,5.262,5.262,0,0,0,4.225-2.089v1.849h2.064v-12H51.318v1.848a5.265,5.265,0,0,0-4.225-2.089A6.007,6.007,0,0,0,41.212,204.559Zm10.274,0a4.1,4.1,0,1,1-4.081-4.345A4.1,4.1,0,0,1,51.486,204.559Zm6.982,6h2.064v-5.953c0-2.809,1.536-4.393,3.481-4.393,1.68,0,2.833,1.248,2.833,3.264v7.082h2.04v-7.394c0-2.976-1.848-4.849-4.537-4.849a4.245,4.245,0,0,0-3.817,2.089v-1.848H58.468v12Zm14.4-6a6.006,6.006,0,0,0,5.881,6.241,5.262,5.262,0,0,0,4.225-2.089v1.849h2.064v-18H82.974v7.85a5.265,5.265,0,0,0-4.225-2.089A6.007,6.007,0,0,0,72.868,204.559Zm10.274,0a4.1,4.1,0,1,1-4.081-4.345A4.1,4.1,0,0,1,83.142,204.559Zm25.224,5.305V198.558H106.3v1.848a5.107,5.107,0,0,0-4.177-2.089,6.115,6.115,0,0,0,0,12.219,5.123,5.123,0,0,0,4.177-2.113v1.369a3.836,3.836,0,0,1-4.009,4.152,5.135,5.135,0,0,1-4.2-2.016l-1.44,1.44a7.123,7.123,0,0,0,5.665,2.449C105.725,215.817,108.366,213.872,108.366,209.864Zm-10.011-5.449a4.059,4.059,0,1,1,4.057,4.2A4,4,0,0,1,98.355,204.415Zm14.16,0.144A6.006,6.006,0,0,0,118.4,210.8a5.262,5.262,0,0,0,4.225-2.089v1.849h2.064v-12h-2.064v1.848a5.265,5.265,0,0,0-4.225-2.089A6.006,6.006,0,0,0,112.515,204.559Zm10.274,0a4.1,4.1,0,1,1-4.081-4.345A4.1,4.1,0,0,1,122.789,204.559Zm6.982,6h2.064v-5.953c0-2.713,1.368-4.393,3.313-4.393,1.56,0,2.352,1.344,2.352,3.288v7.058h2.065v-5.953c0-2.713,1.344-4.393,3.288-4.393,1.561,0,2.377,1.344,2.377,3.288v7.058h2.064v-7.37c0-2.928-1.584-4.873-4.2-4.873a4.154,4.154,0,0,0-3.937,2.569,3.774,3.774,0,0,0-3.7-2.569,4.036,4.036,0,0,0-3.625,2.089v-1.848h-2.064v12Zm24.936-16.683a1.45,1.45,0,0,0-1.44-1.465,1.491,1.491,0,0,0-1.488,1.465,1.475,1.475,0,0,0,1.488,1.464A1.434,1.434,0,0,0,154.707,193.877Zm-2.5,16.683h2.064v-12h-2.064v12Zm7.175,0h2.065v-5.953c0-2.809,1.536-4.393,3.481-4.393,1.68,0,2.832,1.248,2.832,3.264v7.082h2.041v-7.394c0-2.976-1.849-4.849-4.537-4.849a4.245,4.245,0,0,0-3.817,2.089v-1.848h-2.065v12Zm14.4-6a6.327,6.327,0,0,0,11.618,3.384l-1.632-1.128a4.25,4.25,0,0,1-7.9-1.848h9.843a6.109,6.109,0,0,0,.023-0.624c-0.023-3.841-2.568-6.026-5.713-6.026A6.082,6.082,0,0,0,173.786,204.559Zm6.169-4.417a3.591,3.591,0,0,1,3.673,3.144h-7.61A3.925,3.925,0,0,1,179.955,200.142Zm17.663,10.418h2.065V200.454h3.48v-1.9h-3.48v-2.209c0-1.512.672-2.04,1.992-2.04a4.833,4.833,0,0,1,1.488.24v-1.825a5.454,5.454,0,0,0-1.872-.312,3.429,3.429,0,0,0-3.673,3.721v2.425h-2.544v1.9h2.544V210.56Zm20.283-6a6.278,6.278,0,1,0-6.266,6.241A6.16,6.16,0,0,0,217.9,204.559Zm-10.443,0a4.168,4.168,0,1,1,4.177,4.32A4.126,4.126,0,0,1,207.458,204.559Zm14.592,6h2.064v-5.953c0-2.809,1.657-4.129,3.169-4.129a3.017,3.017,0,0,1,1.128.192v-2.136a4.219,4.219,0,0,0-.936-0.1,3.572,3.572,0,0,0-3.361,2.449v-2.328H222.05v12Zm22.537-.168v-1.849a4.562,4.562,0,0,1-1.464.24c-1.3,0-1.993-.5-1.993-2.04v-6.289h3.457v-1.9H241.13v-3.337h-2.064v3.337h-2.545v1.9h2.545v6.553a3.378,3.378,0,0,0,3.673,3.673A5.743,5.743,0,0,0,244.587,210.392Zm15.265-5.833a6.277,6.277,0,1,0-6.265,6.241A6.159,6.159,0,0,0,259.852,204.559Zm-10.442,0a4.168,4.168,0,1,1,4.177,4.32A4.126,4.126,0,0,1,249.41,204.559Zm13.655,0a6.007,6.007,0,0,0,5.882,6.241,5.264,5.264,0,0,0,4.225-2.089v1.849h2.064v-18h-2.064v7.85a5.267,5.267,0,0,0-4.225-2.089A6.007,6.007,0,0,0,263.065,204.559Zm10.275,0a4.1,4.1,0,1,1-4.081-4.345A4.1,4.1,0,0,1,273.34,204.559Zm6.045,0a6.006,6.006,0,0,0,5.881,6.241,5.261,5.261,0,0,0,4.225-2.089v1.849h2.065v-12h-2.065v1.848a5.264,5.264,0,0,0-4.225-2.089A6.007,6.007,0,0,0,279.385,204.559Zm10.274,0a4.1,4.1,0,1,1-4.081-4.345A4.1,4.1,0,0,1,289.659,204.559Zm10.175,11.018,7.873-17.019h-2.3l-4.105,9.1-4.129-9.1h-2.28l5.257,11.378-2.617,5.641h2.305Zm12.816-6.626a1.777,1.777,0,1,0-1.777,1.8A1.808,1.808,0,0,0,312.65,208.951Z"/>
  <rect id="Rectangle_4_copy_4" data-name="Rectangle 4 copy 4" x="40" y="271" width="121" height="4"/>
  <path id="Shop_now" data-name="Shop now" class="cls-2" d="M45.017,264.54c2.706,0,4.564-1.62,4.582-3.941,0.018-1.926-1.19-3.149-3.048-3.815l-0.9-.324c-1.353-.486-1.984-0.792-1.984-1.476,0-.666.776-0.972,1.551-0.972a2.851,2.851,0,0,1,2.219,1.062L49.31,253.1a5.349,5.349,0,0,0-4.131-1.764c-2.561,0-4.419,1.458-4.419,3.941,0,1.746,1.154,2.987,3.229,3.689l0.9,0.306c1.281,0.432,1.786.882,1.786,1.53,0,0.611-.6,1.061-1.551,1.061a3.354,3.354,0,0,1-2.652-1.457l-2.2,1.853A5.62,5.62,0,0,0,45.017,264.54Zm9.726-.216H57.61v-5.057h5.159v5.057h2.868V251.547H62.769v5H57.61v-5H54.742v12.777ZM77.4,264.54a6.6,6.6,0,1,0-6.62-6.605A6.629,6.629,0,0,0,77.4,264.54Zm0-2.772a3.835,3.835,0,1,1,3.716-3.833A3.795,3.795,0,0,1,77.4,261.768Zm20.622-5.848a4.357,4.357,0,0,0-4.51-4.373H89.167v12.777h2.868v-4.049h1.479A4.343,4.343,0,0,0,98.024,255.92Zm-2.778,0a1.684,1.684,0,0,1-1.768,1.674H92.035v-3.348h1.443A1.673,1.673,0,0,1,95.246,255.92Zm25.979,8.4V251.547h-2.886v7.882l-6.223-7.882h-2.472v12.777h2.869v-7.9l6.241,7.9h2.471Zm11.765,0.216a6.6,6.6,0,1,0-6.62-6.605A6.629,6.629,0,0,0,132.99,264.54Zm0-2.772a3.835,3.835,0,1,1,3.716-3.833A3.794,3.794,0,0,1,132.99,261.768Zm21.686,2.556H157.4l2.976-12.777h-3.067l-1.749,8.1-3.608-8.314-3.59,8.314-1.749-8.1h-3.067l2.959,12.777h2.723l2.724-6.263Z"/>
</svg>
