<svg id="Copy_copy_3" data-name="Copy copy 3" xmlns="http://www.w3.org/2000/svg" width="768" height="365"><defs><style>.cls-2{fill-rule:evenodd}</style></defs><path id="Rectangle_109_copy" data-name="Rectangle 109 copy" fill="#fff" d="M0 0h768v365H0z"/><path id="TRENCH_DRESS_Woven_b._2018_March_to_your_own_beat._This_dress" data-name="TRENCH DRESS Woven, b. 2018 March to your own beat. This dress" class="cls-2" d="M48 66.564h6.144V45.138h7.027V39.3H41.049v5.836H48v21.428zm18.816 0h6.104V55.313h1l9.062 11.25h7.334l-9.64-12.017c3.456-1.229 5.337-3.494 5.337-7.026a8.049 8.049 0 0 0-8.447-8.22H66.815v27.264zM72.92 50.13v-5.222h3.916c1.8 0 3.11.96 3.11 2.611 0 1.574-1.305 2.611-3.11 2.611H72.92zm21.235 16.434h17.279v-5.837H100.26v-4.876h8.87v-5.836h-8.87v-4.877h11.174V39.3H94.155v27.264zm48.5 0V39.3h-6.143v16.82l-13.25-16.82H118v27.264h6.1V49.708l13.286 16.856h5.26zm20.238.461a14.091 14.091 0 0 0 12.747-7.449l-5.375-2.918a8.179 8.179 0 1 1 0-7.449l5.375-2.918a14.212 14.212 0 1 0-12.75 20.733zm18.24-.461h6.106v-10.79h10.981v10.79h6.1V39.3h-6.1v10.676h-10.984V39.3h-6.106v27.264zm41.241 0h9.293a13.633 13.633 0 1 0 0-27.261h-9.293v27.261zm6.106-5.606v-16.05h3.187a7.693 7.693 0 0 1 7.717 8.025 7.693 7.693 0 0 1-7.717 8.025h-3.187zm23.27 5.606h6.1V55.313h1l9.062 11.25h7.333l-9.637-12.018c3.455-1.229 5.337-3.494 5.337-7.026A8.049 8.049 0 0 0 262.5 39.3h-10.753v27.264zm6.1-16.434v-5.222h3.917c1.805 0 3.11.96 3.11 2.611 0 1.574-1.305 2.611-3.11 2.611h-3.917zm21.236 16.434h17.278v-5.837h-11.171v-4.876h8.87v-5.836h-8.87v-4.877h11.173V39.3h-17.278v27.264zm31.986.461c5.76 0 9.715-3.456 9.753-8.409.039-4.108-2.534-6.719-6.489-8.14l-1.92-.691c-2.88-1.037-4.224-1.689-4.224-3.148 0-1.421 1.651-2.073 3.3-2.073a6.063 6.063 0 0 1 4.722 2.265l3.994-4.224a11.376 11.376 0 0 0-8.793-3.763c-5.453 0-9.408 3.11-9.408 8.409 0 3.724 2.458 6.374 6.874 7.871l1.919.653c2.727.922 3.8 1.881 3.8 3.264 0 1.306-1.267 2.265-3.3 2.265a7.134 7.134 0 0 1-5.645-3.11l-4.684 3.955a11.954 11.954 0 0 0 10.103 4.875zm24.038 0c5.76 0 9.715-3.456 9.753-8.409.038-4.108-2.534-6.719-6.489-8.14l-1.92-.691c-2.88-1.037-4.224-1.689-4.224-3.148 0-1.421 1.651-2.073 3.3-2.073a6.063 6.063 0 0 1 4.722 2.265l3.994-4.224a11.376 11.376 0 0 0-8.793-3.763c-5.453 0-9.408 3.11-9.408 8.409 0 3.724 2.458 6.374 6.874 7.871l1.919.653c2.727.922 3.8 1.881 3.8 3.264 0 1.306-1.267 2.265-3.3 2.265a7.134 7.134 0 0 1-5.645-3.11l-4.684 3.955a11.954 11.954 0 0 0 10.103 4.875zM57.287 100.163h2.191L64.6 81.416h-2.56l-3.934 14.628L52.693 81.1l-5.387 14.944-3.934-14.628h-2.561l5.122 18.747h2.192l4.594-12.727zm23.337-6.6a6.9 6.9 0 1 0-6.891 6.865 6.775 6.775 0 0 0 6.891-6.866zm-11.486 0a4.584 4.584 0 1 1 4.594 4.753 4.538 4.538 0 0 1-4.593-4.754zm19.88 6.6h1.9l6.1-13.2h-2.534l-4.515 9.98-4.515-9.98h-2.535zm10.3-6.6a6.96 6.96 0 0 0 12.779 3.723l-1.8-1.241a4.674 4.674 0 0 1-8.686-2.033h10.825a6.3 6.3 0 0 0 .027-.686c-.027-4.225-2.826-6.627-6.285-6.627a6.69 6.69 0 0 0-6.864 6.863zM106.1 88.7a3.95 3.95 0 0 1 4.04 3.459h-8.37a4.316 4.316 0 0 1 4.33-3.459zm10.9 11.463h2.271v-6.548c0-3.089 1.69-4.832 3.829-4.832 1.848 0 3.115 1.373 3.115 3.591v7.789h2.245v-8.132c0-3.274-2.033-5.334-4.991-5.334a4.669 4.669 0 0 0-4.2 2.3v-2.036H117v13.2zm19.695-.581a2.26 2.26 0 0 0 .37-1.188 1.954 1.954 0 1 0-3.908 0 1.967 1.967 0 0 0 1.082 1.769l-1.769 3.775h1.5zm15.285-1.452a5.79 5.79 0 0 0 4.647 2.3 6.877 6.877 0 0 0 0-13.73 5.789 5.789 0 0 0-4.647 2.3v-8.64h-2.27v19.8h2.271v-2.03zm8.793-4.568a4.5 4.5 0 1 1-4.489-4.779 4.508 4.508 0 0 1 4.49 4.779zm9.766 4.832a1.954 1.954 0 1 0-1.954 1.98 1.989 1.989 0 0 0 1.955-1.98zm23.893-.422h-9.347c.449-2.165 2.641-3.248 4.806-4.832 3.063-2.218 4.33-3.8 4.33-6.548 0-3.644-2.667-5.492-5.783-5.492-3.458 0-6.178 2.323-6.178 5.914h2.324a3.62 3.62 0 0 1 3.881-3.7 3.17 3.17 0 0 1 3.432 3.248c0 2.192-1.161 3.168-3.327 4.779-2.772 2.059-6.284 3.908-6.284 7.921v.9h12.146v-2.191zm17.477-4.594v-5.229c0-4.145-2.8-7.05-6.654-7.05s-6.627 2.9-6.627 7.05v5.228c0 4.172 2.772 7.05 6.627 7.05s6.655-2.878 6.655-7.05zm-11.01 0v-5.229c0-3.036 1.822-4.832 4.356-4.832 2.562 0 4.383 1.8 4.383 4.832v5.228c0 3.036-1.821 4.832-4.383 4.832-2.533 0-4.355-1.796-4.355-4.832zm17.687 6.786h2.271V81.416h-4.04l-1.848 2.244h3.617v16.5zm19.907-5.624a5.238 5.238 0 0 0-2.93-4.911 4.39 4.39 0 0 0 1.9-3.7c0-2.8-2.166-4.832-5.255-4.832-3.01 0-5.281 2.033-5.281 4.832a4.373 4.373 0 0 0 1.954 3.7 5.239 5.239 0 0 0-2.983 4.911c0 3.406 2.64 5.888 6.31 5.888 3.725-.001 6.286-2.483 6.286-5.889zm-9.32-8.555a2.79 2.79 0 0 1 3.036-2.746 2.739 2.739 0 0 1 3.01 2.746 2.8 2.8 0 0 1-3.01 2.772 2.857 2.857 0 0 1-3.035-2.773zm-.973 8.554a3.722 3.722 0 0 1 4.013-3.749 3.744 3.744 0 1 1 0 7.472 3.731 3.731 0 0 1-4.013-3.723zM50.838 147.968l6.145-8.257v13.25h2.208v-17.043h-2.016l-6.337 8.5-6.337-8.5H42.46v17.043h2.232v-13.25zm12.622-1.008a6.006 6.006 0 0 0 5.881 6.241 5.264 5.264 0 0 0 4.225-2.088v1.848h2.064v-12h-2.064v1.848a5.264 5.264 0 0 0-4.225-2.088 6.006 6.006 0 0 0-5.881 6.239zm10.274 0a4.1 4.1 0 1 1-4.081-4.345 4.1 4.1 0 0 1 4.081 4.345zm6.982 6h2.064v-5.953c0-2.808 1.656-4.129 3.169-4.129a3.018 3.018 0 0 1 1.128.192v-2.136a4.278 4.278 0 0 0-.936-.1 3.571 3.571 0 0 0-3.361 2.448v-2.328h-2.064v12zm20.45-2.976l-1.8-1.008a4.069 4.069 0 0 1-3.745 2.3 4.323 4.323 0 0 1 0-8.642 4.068 4.068 0 0 1 3.745 2.3l1.8-1.008a6.214 6.214 0 0 0-5.545-3.217 6.241 6.241 0 1 0 0 12.482 6.215 6.215 0 0 0 5.545-3.206zm3.862 2.976h2.064v-5.953c0-2.808 1.537-4.393 3.481-4.393 1.68 0 2.833 1.249 2.833 3.265v7.081h2.04v-7.393c0-2.977-1.848-4.849-4.537-4.849a4.245 4.245 0 0 0-3.817 2.088v-7.849h-2.064v18zm28.489-.168v-1.848a4.564 4.564 0 0 1-1.465.24c-1.3 0-1.992-.5-1.992-2.04v-6.29h3.457v-1.9h-3.457v-3.337H128v3.337h-2.545v1.9H128v6.554a3.378 3.378 0 0 0 3.672 3.672 5.749 5.749 0 0 0 1.845-.287zm15.265-5.833a6.278 6.278 0 1 0-6.265 6.241 6.159 6.159 0 0 0 6.265-6.24zm-10.442 0a4.168 4.168 0 1 1 4.177 4.321 4.126 4.126 0 0 1-4.177-4.32zm24.288 11.018l7.873-17.019h-2.3l-4.1 9.1-4.129-9.1h-2.28l5.257 11.378-2.617 5.641h2.3zm22.466-11.018a6.278 6.278 0 1 0-6.266 6.241 6.159 6.159 0 0 0 6.266-6.24zm-10.442 0a4.167 4.167 0 1 1 4.176 4.321 4.125 4.125 0 0 1-4.176-4.32zm14.423 1.368c0 2.977 1.776 4.873 4.417 4.873a4.13 4.13 0 0 0 3.7-2.088v1.848h2.064v-12h-2.064v5.953c0 2.761-1.465 4.393-3.337 4.393-1.656 0-2.713-1.272-2.713-3.289v-7.057h-2.064v7.369zm15.264 4.633h2.061v-5.953c0-2.808 1.657-4.129 3.169-4.129a3.017 3.017 0 0 1 1.128.192v-2.136a4.276 4.276 0 0 0-.936-.1 3.571 3.571 0 0 0-3.361 2.448v-2.328h-2.064v12zm28.034-6a6.278 6.278 0 1 0-6.265 6.241 6.159 6.159 0 0 0 6.265-6.241zm-10.442 0a4.168 4.168 0 1 1 4.177 4.321 4.126 4.126 0 0 1-4.177-4.321zm24.722 6h1.824l4.081-12h-2.185l-2.9 8.762-3-8.762h-1.584l-3 8.762-2.905-8.762h-2.16l4.081 12h1.824l2.977-8.641zm9.333 0h2.064v-5.953c0-2.808 1.537-4.393 3.481-4.393 1.681 0 2.833 1.249 2.833 3.265v7.081h2.04v-7.393c0-2.977-1.848-4.849-4.537-4.849a4.246 4.246 0 0 0-3.817 2.088v-1.848h-2.064v12zm24.456-1.848a5.263 5.263 0 0 0 4.225 2.088 6.252 6.252 0 0 0 0-12.482 5.263 5.263 0 0 0-4.225 2.088v-7.849h-2.065v18h2.065v-1.848zm7.994-4.153a4.089 4.089 0 1 1-4.081-4.345 4.1 4.1 0 0 1 4.081 4.346zm5.325 0a6.328 6.328 0 0 0 11.619 3.385l-1.633-1.128a4.249 4.249 0 0 1-7.9-1.849h9.842a5.856 5.856 0 0 0 .024-.624c-.024-3.841-2.569-6.025-5.714-6.025a6.082 6.082 0 0 0-6.238 6.242zm6.169-4.417a3.591 3.591 0 0 1 3.673 3.145h-7.609a3.924 3.924 0 0 1 3.936-3.144zm8.975 4.417a6.005 6.005 0 0 0 5.881 6.241 5.263 5.263 0 0 0 4.225-2.088v1.848h2.064v-12h-2.064v1.848a5.263 5.263 0 0 0-4.225-2.088 6.005 6.005 0 0 0-5.886 6.24zm10.274 0a4.1 4.1 0 1 1-4.081-4.345 4.1 4.1 0 0 1 4.081 4.346zm13.487 5.833v-1.848a4.562 4.562 0 0 1-1.464.24c-1.3 0-1.993-.5-1.993-2.04v-6.29h3.457v-1.9h-3.457v-3.337h-2.064v3.337H324.6v1.9h2.545v6.554a3.378 3.378 0 0 0 3.673 3.672 5.743 5.743 0 0 0 1.848-.287zm6.695-1.44a1.776 1.776 0 1 0-1.776 1.8 1.808 1.808 0 0 0 1.776-1.799zm14.424 1.608h2.185v-14.93h5.3v-2.112h-12.79v2.112h5.305v14.931zm10.872 0h2.064v-5.953c0-2.808 1.536-4.393 3.481-4.393 1.68 0 2.832 1.249 2.832 3.265v7.081h2.041v-7.393c0-2.977-1.849-4.849-4.537-4.849a4.245 4.245 0 0 0-3.817 2.088v-7.849h-2.064v18zm17.832-16.683a1.449 1.449 0 0 0-1.44-1.464 1.491 1.491 0 0 0-1.489 1.464 1.475 1.475 0 0 0 1.489 1.464 1.434 1.434 0 0 0 1.44-1.463zm-2.5 16.683h2.065v-12h-2.065v12zm14.954-3.336c0-1.8-1.128-2.953-3.169-3.625l-1.3-.432c-1.416-.456-1.848-.912-1.848-1.68 0-.889.888-1.393 2.016-1.393a3.24 3.24 0 0 1 2.544 1.249l1.345-1.3a4.656 4.656 0 0 0-3.841-1.728c-2.377 0-4.057 1.32-4.057 3.265 0 1.68 1.032 2.856 2.977 3.48l1.176.384c1.56.5 2.136 1.081 2.136 1.921 0 1.032-.936 1.632-2.112 1.632a3.222 3.222 0 0 1-3.073-1.9l-1.68.912a4.768 4.768 0 0 0 4.7 2.784c2.436.007 4.189-1.216 4.189-3.568zm10.27-2.665a6.005 6.005 0 0 0 5.887 6.241 5.266 5.266 0 0 0 4.225-2.088v1.848h2.064v-18h-2.064v7.849a5.266 5.266 0 0 0-4.225-2.088 6.005 6.005 0 0 0-5.884 6.239zm10.274 0a4.1 4.1 0 1 1-4.081-4.345 4.1 4.1 0 0 1 4.084 4.346zm6.981 6h2.065v-5.953c0-2.808 1.656-4.129 3.169-4.129a3.017 3.017 0 0 1 1.128.192v-2.136a4.276 4.276 0 0 0-.936-.1 3.57 3.57 0 0 0-3.361 2.448v-2.328h-2.065v12zm8.616-6a6.328 6.328 0 0 0 11.619 3.385l-1.632-1.128a4.25 4.25 0 0 1-7.9-1.849h9.842a5.856 5.856 0 0 0 .024-.624c-.024-3.841-2.569-6.025-5.713-6.025a6.082 6.082 0 0 0-6.237 6.242zm6.17-4.417a3.593 3.593 0 0 1 3.673 3.145h-7.61a3.924 3.924 0 0 1 3.94-3.144zm17.688 7.082c0-1.8-1.128-2.953-3.169-3.625l-1.3-.432c-1.416-.456-1.848-.912-1.848-1.68 0-.889.888-1.393 2.016-1.393a3.242 3.242 0 0 1 2.545 1.249l1.344-1.3a4.654 4.654 0 0 0-3.841-1.728c-2.376 0-4.057 1.32-4.057 3.265 0 1.68 1.033 2.856 2.977 3.48l1.176.384c1.561.5 2.137 1.081 2.137 1.921 0 1.032-.936 1.632-2.113 1.632a3.221 3.221 0 0 1-3.072-1.9l-1.681.912a4.768 4.768 0 0 0 4.7 2.784c2.437.007 4.189-1.216 4.189-3.568zm11.9 0c0-1.8-1.128-2.953-3.169-3.625l-1.3-.432c-1.416-.456-1.848-.912-1.848-1.68 0-.889.888-1.393 2.016-1.393a3.242 3.242 0 0 1 2.545 1.249l1.344-1.3a4.654 4.654 0 0 0-3.841-1.728c-2.376 0-4.057 1.32-4.057 3.265 0 1.68 1.033 2.856 2.977 3.48l1.176.384c1.561.5 2.137 1.081 2.137 1.921 0 1.032-.936 1.632-2.113 1.632a3.221 3.221 0 0 1-3.072-1.9l-1.681.912a4.768 4.768 0 0 0 4.705 2.784c2.439.007 4.188-1.216 4.188-3.568zm13.7-13.347a1.45 1.45 0 0 0-1.441-1.464 1.491 1.491 0 0 0-1.488 1.464 1.475 1.475 0 0 0 1.488 1.464 1.435 1.435 0 0 0 1.451-1.463zm-2.5 16.683h2.064v-12h-2.064v12zm14.953-3.336c0-1.8-1.128-2.953-3.168-3.625l-1.3-.432c-1.416-.456-1.848-.912-1.848-1.68 0-.889.888-1.393 2.017-1.393a3.24 3.24 0 0 1 2.544 1.249l1.344-1.3a4.654 4.654 0 0 0-3.84-1.728c-2.377 0-4.057 1.32-4.057 3.265 0 1.68 1.032 2.856 2.976 3.48l1.177.384c1.56.5 2.136 1.081 2.136 1.921 0 1.032-.936 1.632-2.112 1.632a3.221 3.221 0 0 1-3.073-1.9l-1.68.912a4.767 4.767 0 0 0 4.7 2.784c2.445.007 4.197-1.216 4.197-3.568zm10.27-2.665a6.006 6.006 0 0 0 5.881 6.241 5.263 5.263 0 0 0 4.225-2.088v1.848h2.065v-12h-2.065v1.848a5.263 5.263 0 0 0-4.225-2.088 6.006 6.006 0 0 0-5.868 6.24zm10.274 0a4.1 4.1 0 1 1-4.081-4.345 4.1 4.1 0 0 1 4.094 4.346zm6.982 6h2.079v-5.953c0-2.808 1.537-4.393 3.481-4.393 1.681 0 2.833 1.249 2.833 3.265v7.081h2.04v-7.393c0-2.977-1.848-4.849-4.537-4.849a4.246 4.246 0 0 0-3.817 2.088v-1.848h-2.064v12zm21.455-6a6.328 6.328 0 0 0 11.619 3.385l-1.633-1.128a4.249 4.249 0 0 1-7.9-1.849h9.842a5.856 5.856 0 0 0 .024-.624c-.024-3.841-2.569-6.025-5.713-6.025a6.082 6.082 0 0 0-6.226 6.242zm6.17-4.417a3.591 3.591 0 0 1 3.672 3.145h-7.609a3.924 3.924 0 0 1 3.95-3.144zm9.91 10.418h2.065v-18h-2.065v18zm6.24-6a6.328 6.328 0 0 0 11.618 3.385l-1.632-1.128a4.25 4.25 0 0 1-7.9-1.849h9.843a5.856 5.856 0 0 0 .024-.624c-.024-3.841-2.569-6.025-5.714-6.025a6.082 6.082 0 0 0-6.226 6.241zm6.169-4.417a3.591 3.591 0 0 1 3.673 3.145h-7.61a3.926 3.926 0 0 1 3.95-3.145zm13.464 10.418h1.728l5.545-12h-2.3l-4.1 9.074-4.105-9.074h-2.3zm9.383-6a6.005 6.005 0 0 0 5.881 6.241 5.264 5.264 0 0 0 4.225-2.088v1.848h2.082v-12h-2.064v1.848a5.264 5.264 0 0 0-4.225-2.088 6.005 6.005 0 0 0-5.886 6.238zm10.274 0a4.1 4.1 0 1 1-4.081-4.345 4.1 4.1 0 0 1 4.095 4.344zm13.487 5.833v-1.848a4.562 4.562 0 0 1-1.464.24c-1.3 0-1.993-.5-1.993-2.04v-6.29h3.457v-1.9h-3.457v-3.337h-2.064v3.337h-2.532v1.9h2.545v6.554a3.378 3.378 0 0 0 3.673 3.672 5.743 5.743 0 0 0 1.848-.289zm2.735-5.833a6.328 6.328 0 0 0 11.618 3.385l-1.632-1.128a4.25 4.25 0 0 1-7.9-1.849h9.842a5.856 5.856 0 0 0 .024-.624c-.024-3.841-2.568-6.025-5.713-6.025a6.081 6.081 0 0 0-6.226 6.24zm6.169-4.417a3.592 3.592 0 0 1 3.673 3.145h-7.61a3.925 3.925 0 0 1 3.95-3.146zm8.975 4.417a6.005 6.005 0 0 0 5.881 6.241 5.264 5.264 0 0 0 4.225-2.088v1.848h2.064v-18h-2.064v7.849a5.264 5.264 0 0 0-4.225-2.088 6.005 6.005 0 0 0-5.868 6.237zm10.274 0a4.1 4.1 0 1 1-4.081-4.345 4.1 4.1 0 0 1 4.094 4.344zM42.148 186.777h2.064v-6.865A5.265 5.265 0 0 0 48.438 182a6.253 6.253 0 0 0 0-12.483 5.262 5.262 0 0 0-4.225 2.089v-1.849h-2.065v17.019zm10.058-11.018a4.089 4.089 0 1 1-4.081-4.344 4.1 4.1 0 0 1 4.081 4.344zm6.286 6h2.065v-18h-2.065v18zm6.24-6A6.006 6.006 0 0 0 70.613 182a5.265 5.265 0 0 0 4.225-2.089v1.849H76.9v-12h-2.062v1.849a5.262 5.262 0 0 0-4.225-2.089 6.006 6.006 0 0 0-5.881 6.239zm10.274 0a4.1 4.1 0 1 1-4.081-4.344 4.1 4.1 0 0 1 4.081 4.344zm10.174 11.018l7.874-17.019h-2.3l-4.1 9.1-4.129-9.1h-2.28l5.257 11.378-2.617 5.641h2.3zm29.258-11.018a6.278 6.278 0 1 0-6.265 6.241 6.159 6.159 0 0 0 6.265-6.241zm-10.442 0a4.168 4.168 0 1 1 4.177 4.321 4.125 4.125 0 0 1-4.173-4.321zm14.591 6h2.065v-5.954c0-2.808 1.536-4.392 3.481-4.392 1.68 0 2.832 1.248 2.832 3.264v7.082h2.041v-7.394c0-2.976-1.849-4.849-4.537-4.849a4.243 4.243 0 0 0-3.817 2.089v-1.849h-2.065v12zm21.456-6a6.006 6.006 0 0 0 5.881 6.241 5.265 5.265 0 0 0 4.225-2.089v1.849h2.064v-12h-2.064v1.849a5.262 5.262 0 0 0-4.225-2.089 6.006 6.006 0 0 0-5.881 6.239zm10.274 0a4.1 4.1 0 1 1-4.081-4.344 4.1 4.1 0 0 1 4.081 4.344zm24.936 3.025l-1.8-1.008a4.068 4.068 0 0 1-3.745 2.3 4.322 4.322 0 0 1 0-8.641 4.068 4.068 0 0 1 3.745 2.3l1.8-1.008a6.216 6.216 0 0 0-5.546-3.217 6.242 6.242 0 1 0 0 12.483 6.218 6.218 0 0 0 5.546-3.209zm3.861 2.977h2.064v-18h-2.064v18zm6.24-6a6.006 6.006 0 0 0 5.881 6.239 5.265 5.265 0 0 0 4.225-2.089v1.849h2.064v-12h-2.064v1.849a5.262 5.262 0 0 0-4.225-2.089 6.006 6.006 0 0 0-5.881 6.239zm10.274 0a4.1 4.1 0 1 1-4.081-4.344 4.1 4.1 0 0 1 4.081 4.342zm14.759 2.665c0-1.8-1.128-2.953-3.168-3.625l-1.3-.432c-1.416-.456-1.848-.912-1.848-1.68 0-.888.888-1.392 2.016-1.392a3.243 3.243 0 0 1 2.545 1.248l1.344-1.3a4.652 4.652 0 0 0-3.841-1.729c-2.376 0-4.057 1.32-4.057 3.265 0 1.68 1.033 2.856 2.977 3.48l1.176.385c1.561.5 2.137 1.08 2.137 1.92 0 1.032-.936 1.632-2.113 1.632a3.221 3.221 0 0 1-3.072-1.9l-1.681.912a4.768 4.768 0 0 0 4.708 2.79c2.425 0 4.177-1.224 4.177-3.576zm11.9 0c0-1.8-1.128-2.953-3.169-3.625l-1.3-.432c-1.416-.456-1.848-.912-1.848-1.68 0-.888.888-1.392 2.016-1.392a3.243 3.243 0 0 1 2.545 1.248l1.344-1.3a4.652 4.652 0 0 0-3.841-1.729c-2.376 0-4.057 1.32-4.057 3.265 0 1.68 1.033 2.856 2.977 3.48l1.176.385c1.561.5 2.137 1.08 2.137 1.92 0 1.032-.936 1.632-2.113 1.632a3.221 3.221 0 0 1-3.072-1.9l-1.681.912a4.768 4.768 0 0 0 4.713 2.79c2.425 0 4.177-1.224 4.177-3.576zm6.647-13.347a1.449 1.449 0 0 0-1.44-1.464 1.491 1.491 0 0 0-1.489 1.464 1.475 1.475 0 0 0 1.489 1.465 1.435 1.435 0 0 0 1.444-1.467zm-2.5 16.684h2.065v-12h-2.065v12zm18.074-2.977l-1.8-1.008a4.068 4.068 0 0 1-3.745 2.3 4.322 4.322 0 0 1 0-8.641 4.068 4.068 0 0 1 3.745 2.3l1.8-1.008a6.214 6.214 0 0 0-5.545-3.217 6.242 6.242 0 1 0 0 12.483 6.216 6.216 0 0 0 5.552-3.211zm10.918 2.977h2.074v-5.954c0-2.712 1.368-4.392 3.313-4.392 1.56 0 2.352 1.344 2.352 3.288v7.058h2.065v-5.954c0-2.712 1.344-4.392 3.288-4.392 1.561 0 2.377 1.344 2.377 3.288v7.058h2.064v-7.37c0-2.928-1.584-4.873-4.2-4.873a4.152 4.152 0 0 0-3.936 2.569 3.774 3.774 0 0 0-3.7-2.569 4.033 4.033 0 0 0-3.625 2.089v-1.849h-2.064v12zm24.936-16.684a1.449 1.449 0 0 0-1.44-1.464 1.491 1.491 0 0 0-1.489 1.464 1.475 1.475 0 0 0 1.489 1.465 1.435 1.435 0 0 0 1.447-1.467zm-2.5 16.684h2.065v-12h-2.065v12zm7.176 0h2.065v-18h-2.065v18zm9.673-16.684a1.45 1.45 0 0 0-1.441-1.464 1.491 1.491 0 0 0-1.488 1.464 1.475 1.475 0 0 0 1.488 1.465 1.436 1.436 0 0 0 1.451-1.467zm-2.5 16.684h2.065v-12h-2.065v12zm13.681-.169v-1.848a4.562 4.562 0 0 1-1.464.24c-1.3 0-1.992-.5-1.992-2.04v-6.289h3.464v-1.9h-3.456v-3.336h-2.065v3.336h-2.539v1.9h2.544v6.553a3.379 3.379 0 0 0 3.673 3.673 5.713 5.713 0 0 0 1.843-.291zm2.735-5.833a6.006 6.006 0 0 0 5.894 6.239 5.264 5.264 0 0 0 4.225-2.089v1.849h2.064v-12h-2.064v1.849a5.261 5.261 0 0 0-4.225-2.089 6.006 6.006 0 0 0-5.881 6.239zm10.274 0a4.1 4.1 0 1 1-4.081-4.344 4.1 4.1 0 0 1 4.094 4.342zm6.982 6h2.064v-5.954c0-2.808 1.657-4.128 3.169-4.128a3.017 3.017 0 0 1 1.128.192v-2.137a4.276 4.276 0 0 0-.936-.1 3.571 3.571 0 0 0-3.361 2.449v-2.329H325.9v12zm13.176 5.016l7.874-17.019h-2.3l-4.105 9.1-4.129-9.1h-2.281l5.258 11.378-2.617 5.641h2.3zm23.761-5.185v-1.848a4.562 4.562 0 0 1-1.464.24c-1.3 0-1.993-.5-1.993-2.04v-6.289h3.457v-1.9h-3.457v-3.336h-2.064v3.336h-2.545v1.9h2.545v6.553a3.379 3.379 0 0 0 3.673 3.673 5.713 5.713 0 0 0 1.861-.289zm3.839.169h2.064v-5.954c0-2.808 1.656-4.128 3.169-4.128a3.017 3.017 0 0 1 1.128.192v-2.137a4.276 4.276 0 0 0-.936-.1 3.571 3.571 0 0 0-3.361 2.449v-2.329h-2.064v12zm8.616-6a6.327 6.327 0 0 0 11.618 3.385l-1.632-1.128a4.25 4.25 0 0 1-7.9-1.849h9.842a5.856 5.856 0 0 0 .024-.624c-.024-3.84-2.568-6.025-5.713-6.025a6.082 6.082 0 0 0-6.226 6.239zm6.169-4.416a3.591 3.591 0 0 1 3.673 3.144h-7.61a3.924 3.924 0 0 1 3.95-3.146zm9.911 10.418h2.064v-5.954c0-2.808 1.536-4.392 3.481-4.392 1.68 0 2.833 1.248 2.833 3.264v7.082h2.04v-7.394c0-2.976-1.848-4.849-4.537-4.849a4.244 4.244 0 0 0-3.817 2.089v-1.849h-2.064v12zm26.234-2.977l-1.8-1.008a4.068 4.068 0 0 1-3.744 2.3 4.322 4.322 0 0 1 0-8.641 4.068 4.068 0 0 1 3.744 2.3l1.8-1.008a6.215 6.215 0 0 0-5.545-3.217 6.242 6.242 0 1 0 0 12.483 6.217 6.217 0 0 0 5.556-3.211zm3.861 2.977h2.065v-5.954c0-2.808 1.536-4.392 3.48-4.392 1.681 0 2.833 1.248 2.833 3.264v7.082h2.04v-7.394c0-2.976-1.848-4.849-4.537-4.849a4.242 4.242 0 0 0-3.816 2.089v-7.85h-2.065v18zm14.952-5.69h12.122v-2.064h-12.109v2.064zm16.824 5.69h2.074v-5.954c0-2.712 1.368-4.392 3.313-4.392 1.56 0 2.352 1.344 2.352 3.288v7.058h2.065v-5.954c0-2.712 1.344-4.392 3.289-4.392 1.56 0 2.376 1.344 2.376 3.288v7.058h2.064v-7.37c0-2.928-1.584-4.873-4.2-4.873a4.153 4.153 0 0 0-3.937 2.569 3.773 3.773 0 0 0-3.7-2.569 4.034 4.034 0 0 0-3.625 2.089v-1.849h-2.064v12zm21.5-6a6.007 6.007 0 0 0 5.898 6.237 5.267 5.267 0 0 0 4.225-2.089v1.849h2.064v-12h-2.064v1.849a5.264 5.264 0 0 0-4.225-2.089 6.007 6.007 0 0 0-5.882 6.239zm10.275 0a4.1 4.1 0 1 1-4.081-4.344 4.1 4.1 0 0 1 4.097 4.34zm6.045 0a6.007 6.007 0 0 0 5.897 6.237 5.264 5.264 0 0 0 4.225-2.089v1.849h2.065v-18h-2.065v7.85a5.261 5.261 0 0 0-4.225-2.089 6.006 6.006 0 0 0-5.881 6.238zm10.274 0a4.1 4.1 0 1 1-4.081-4.344 4.1 4.1 0 0 1 4.097 4.34zm6.046 0A6.327 6.327 0 0 0 519 179.144l-1.632-1.128a4.25 4.25 0 0 1-7.9-1.849h9.842a5.856 5.856 0 0 0 .024-.624c-.024-3.84-2.568-6.025-5.713-6.025a6.082 6.082 0 0 0-6.239 6.241zm6.169-4.416a3.591 3.591 0 0 1 3.673 3.144h-7.61a3.924 3.924 0 0 1 3.953-3.148zm16.967 10.418h2.064v-5.954c0-2.712 1.368-4.392 3.313-4.392 1.56 0 2.352 1.344 2.352 3.288v7.058h2.065v-5.954c0-2.712 1.344-4.392 3.288-4.392 1.561 0 2.377 1.344 2.377 3.288v7.058h2.064v-7.37c0-2.928-1.584-4.873-4.2-4.873a4.153 4.153 0 0 0-3.937 2.569 3.773 3.773 0 0 0-3.7-2.569 4.034 4.034 0 0 0-3.625 2.089v-1.849h-2.064v12zm34.034-6a6.278 6.278 0 1 0-6.249 6.235 6.16 6.16 0 0 0 6.265-6.241zm-10.442 0a4.168 4.168 0 1 1 4.177 4.321 4.125 4.125 0 0 1-4.161-4.327zm14.591 6h2.065v-5.954c0-2.808 1.656-4.128 3.168-4.128a3.022 3.022 0 0 1 1.129.192v-2.137a4.285 4.285 0 0 0-.937-.1 3.57 3.57 0 0 0-3.36 2.449v-2.329h-2.05v12zm8.616-6a6.328 6.328 0 0 0 11.619 3.385l-1.633-1.128a4.249 4.249 0 0 1-7.9-1.849h9.842a5.856 5.856 0 0 0 .024-.624c-.024-3.84-2.569-6.025-5.713-6.025a6.083 6.083 0 0 0-6.223 6.235zm6.17-4.416a3.59 3.59 0 0 1 3.672 3.144h-7.593a3.923 3.923 0 0 1 3.937-3.15zm16.966 10.418h2.064v-5.954c0-2.712 1.369-4.392 3.313-4.392 1.56 0 2.353 1.344 2.353 3.288v7.058h2.064v-5.954c0-2.712 1.344-4.392 3.289-4.392 1.56 0 2.376 1.344 2.376 3.288v7.058h2.065v-7.37c0-2.928-1.585-4.873-4.2-4.873a4.153 4.153 0 0 0-3.937 2.569 3.772 3.772 0 0 0-3.7-2.569 4.035 4.035 0 0 0-3.625 2.089v-1.849h-2.064v12zm34.034-6a6.277 6.277 0 1 0-6.249 6.233 6.159 6.159 0 0 0 6.265-6.241zm-10.442 0a4.168 4.168 0 1 1 4.177 4.321 4.125 4.125 0 0 1-4.161-4.329zm13.655 0a6.007 6.007 0 0 0 5.898 6.233 5.267 5.267 0 0 0 4.225-2.089v1.849h2.064v-18h-2.064v7.85a5.264 5.264 0 0 0-4.225-2.089 6.007 6.007 0 0 0-5.882 6.238zm10.275 0a4.1 4.1 0 1 1-4.081-4.344 4.1 4.1 0 0 1 4.097 4.336zm6.045 0a6.328 6.328 0 0 0 11.619 3.385l-1.633-1.128a4.249 4.249 0 0 1-7.9-1.849h9.842a5.856 5.856 0 0 0 .024-.624c-.024-3.84-2.569-6.025-5.714-6.025a6.083 6.083 0 0 0-6.222 6.233zm6.169-4.416a3.591 3.591 0 0 1 3.673 3.144h-7.609a3.923 3.923 0 0 1 3.952-3.152zm9.911 10.418h2.065v-5.954c0-2.808 1.656-4.128 3.168-4.128a3.017 3.017 0 0 1 1.128.192v-2.137a4.276 4.276 0 0 0-.936-.1 3.57 3.57 0 0 0-3.36 2.449v-2.329H670.1v12zm9.984 0h2.065v-5.954c0-2.808 1.536-4.392 3.48-4.392 1.681 0 2.833 1.248 2.833 3.264v7.082h2.04v-7.394c0-2.976-1.848-4.849-4.537-4.849a4.242 4.242 0 0 0-3.816 2.089v-1.849h-2.065v12zm-638.872 22.8a6.006 6.006 0 0 0 5.881 6.241 5.262 5.262 0 0 0 4.225-2.089v1.849h2.064v-12h-2.048v1.848a5.265 5.265 0 0 0-4.225-2.089 6.007 6.007 0 0 0-5.881 6.23zm10.274 0a4.1 4.1 0 1 1-4.081-4.345 4.1 4.1 0 0 1 4.097 4.335zm6.982 6h2.064v-5.953c0-2.809 1.536-4.393 3.481-4.393 1.68 0 2.833 1.248 2.833 3.264v7.082h2.04v-7.394c0-2.976-1.848-4.849-4.537-4.849a4.245 4.245 0 0 0-3.817 2.089v-1.848h-2.048v12zm14.4-6a6.006 6.006 0 0 0 5.881 6.241 5.262 5.262 0 0 0 4.225-2.089v1.849h2.064v-18h-2.048v7.85a5.265 5.265 0 0 0-4.225-2.089 6.007 6.007 0 0 0-5.881 6.228zm10.274 0a4.1 4.1 0 1 1-4.081-4.345 4.1 4.1 0 0 1 4.097 4.335zm25.224 5.305v-11.316h-2.05v1.848a5.107 5.107 0 0 0-4.177-2.089 6.115 6.115 0 0 0 0 12.219 5.123 5.123 0 0 0 4.177-2.113v1.369a3.836 3.836 0 0 1-4.009 4.152 5.135 5.135 0 0 1-4.2-2.016l-1.44 1.44a7.123 7.123 0 0 0 5.665 2.449c3.409 0 6.05-1.945 6.05-5.953zm-10.011-5.449a4.059 4.059 0 1 1 4.057 4.2 4 4 0 0 1-4.041-4.21zm14.16.144a6.006 6.006 0 0 0 5.901 6.231 5.262 5.262 0 0 0 4.225-2.089v1.849h2.064v-12h-2.064v1.848a5.265 5.265 0 0 0-4.225-2.089 6.006 6.006 0 0 0-5.885 6.24zm10.274 0a4.1 4.1 0 1 1-4.081-4.345 4.1 4.1 0 0 1 4.097 4.335zm6.982 6h2.064v-5.953c0-2.713 1.368-4.393 3.313-4.393 1.56 0 2.352 1.344 2.352 3.288v7.058h2.065v-5.953c0-2.713 1.344-4.393 3.288-4.393 1.561 0 2.377 1.344 2.377 3.288v7.058h2.064v-7.37c0-2.928-1.584-4.873-4.2-4.873a4.154 4.154 0 0 0-3.937 2.569 3.774 3.774 0 0 0-3.7-2.569 4.036 4.036 0 0 0-3.625 2.089v-1.848h-2.064v12zm24.936-16.683a1.45 1.45 0 0 0-1.44-1.465 1.491 1.491 0 0 0-1.488 1.465 1.475 1.475 0 0 0 1.488 1.464 1.434 1.434 0 0 0 1.456-1.473zm-2.5 16.683h2.064v-12h-2.064v12zm7.175 0h2.065v-5.953c0-2.809 1.536-4.393 3.481-4.393 1.68 0 2.832 1.248 2.832 3.264v7.082h2.041v-7.394c0-2.976-1.849-4.849-4.537-4.849a4.245 4.245 0 0 0-3.817 2.089v-1.848h-2.065v12zm14.4-6a6.327 6.327 0 0 0 11.618 3.384l-1.632-1.128a4.25 4.25 0 0 1-7.9-1.848h9.843a6.109 6.109 0 0 0 .023-.624c-.023-3.841-2.568-6.026-5.713-6.026a6.082 6.082 0 0 0-6.219 6.232zm6.169-4.417a3.591 3.591 0 0 1 3.673 3.144h-7.61a3.925 3.925 0 0 1 3.957-3.154zm17.663 10.418h2.065v-10.116h3.48v-1.9h-3.48v-2.209c0-1.512.672-2.04 1.992-2.04a4.833 4.833 0 0 1 1.488.24v-1.825a5.454 5.454 0 0 0-1.872-.312 3.429 3.429 0 0 0-3.673 3.721v2.425h-2.544v1.9h2.544v10.106zm20.283-6a6.278 6.278 0 1 0-6.266 6.241 6.16 6.16 0 0 0 6.285-6.252zm-10.443 0a4.168 4.168 0 1 1 4.177 4.32 4.126 4.126 0 0 1-4.157-4.331zm14.592 6h2.064v-5.953c0-2.809 1.657-4.129 3.169-4.129a3.017 3.017 0 0 1 1.128.192v-2.136a4.219 4.219 0 0 0-.936-.1 3.572 3.572 0 0 0-3.361 2.449v-2.328h-2.044v12zm22.537-.168v-1.849a4.562 4.562 0 0 1-1.464.24c-1.3 0-1.993-.5-1.993-2.04v-6.289h3.457v-1.9h-3.437v-3.337h-2.064v3.337h-2.545v1.9h2.545v6.553a3.378 3.378 0 0 0 3.673 3.673 5.743 5.743 0 0 0 1.848-.298zm15.265-5.833a6.277 6.277 0 1 0-6.265 6.241 6.159 6.159 0 0 0 6.285-6.251zm-10.442 0a4.168 4.168 0 1 1 4.177 4.32 4.126 4.126 0 0 1-4.157-4.33zm13.655 0a6.007 6.007 0 0 0 5.882 6.241 5.264 5.264 0 0 0 4.225-2.089v1.849h2.064v-18h-2.064v7.85a5.267 5.267 0 0 0-4.225-2.089 6.007 6.007 0 0 0-5.862 6.228zm10.275 0a4.1 4.1 0 1 1-4.081-4.345 4.1 4.1 0 0 1 4.101 4.335zm6.045 0a6.006 6.006 0 0 0 5.881 6.241 5.261 5.261 0 0 0 4.225-2.089v1.849h2.065v-12h-2.065v1.848a5.264 5.264 0 0 0-4.225-2.089 6.007 6.007 0 0 0-5.861 6.23zm10.274 0a4.1 4.1 0 1 1-4.081-4.345 4.1 4.1 0 0 1 4.101 4.335zm10.175 11.018l7.873-17.019h-2.3l-4.105 9.1-4.129-9.1h-2.28l5.257 11.378-2.617 5.641h2.305zm12.816-6.626a1.777 1.777 0 1 0-1.777 1.8 1.808 1.808 0 0 0 1.797-1.81z"/><path id="Rectangle_4_copy_4" data-name="Rectangle 4 copy 4" d="M40 271h121v4H40z"/><path id="Shop_now" data-name="Shop now" class="cls-2" d="M45.017 264.54c2.706 0 4.564-1.62 4.582-3.941.018-1.926-1.19-3.149-3.048-3.815l-.9-.324c-1.353-.486-1.984-.792-1.984-1.476 0-.666.776-.972 1.551-.972a2.851 2.851 0 0 1 2.219 1.062l1.873-1.974a5.349 5.349 0 0 0-4.131-1.764c-2.561 0-4.419 1.458-4.419 3.941 0 1.746 1.154 2.987 3.229 3.689l.9.306c1.281.432 1.786.882 1.786 1.53 0 .611-.6 1.061-1.551 1.061a3.354 3.354 0 0 1-2.652-1.457l-2.2 1.853a5.62 5.62 0 0 0 4.745 2.281zm9.726-.216h2.867v-5.057h5.159v5.057h2.868v-12.777h-2.868v5H57.61v-5h-2.868v12.777zm22.657.216a6.6 6.6 0 1 0-6.62-6.605 6.629 6.629 0 0 0 6.62 6.605zm0-2.772a3.835 3.835 0 1 1 3.716-3.833 3.795 3.795 0 0 1-3.716 3.833zm20.622-5.848a4.357 4.357 0 0 0-4.51-4.373h-4.345v12.777h2.868v-4.049h1.479a4.343 4.343 0 0 0 4.51-4.355zm-2.778 0a1.684 1.684 0 0 1-1.768 1.674h-1.441v-3.348h1.443a1.673 1.673 0 0 1 1.768 1.674zm25.979 8.4v-12.773h-2.886v7.882l-6.223-7.882h-2.472v12.777h2.869v-7.9l6.241 7.9h2.471zm11.765.216a6.6 6.6 0 1 0-6.62-6.605 6.629 6.629 0 0 0 6.622 6.609zm0-2.772a3.835 3.835 0 1 1 3.716-3.833 3.794 3.794 0 0 1-3.714 3.837zm21.686 2.556h2.726l2.976-12.777h-3.067l-1.749 8.1-3.608-8.314-3.59 8.314-1.749-8.1h-3.067l2.959 12.777h2.723l2.724-6.263z"/></svg>