<svg id="Copy_copy_4" data-name="Copy copy 4" xmlns="http://www.w3.org/2000/svg" width="768" height="229" viewBox="0 0 768 229">
  <metadata><?xpacket begin="﻿" id="W5M0MpCehiHzreSzNTczkc9d"?>
<x:xmpmeta xmlns:x="adobe:ns:meta/" x:xmptk="Adobe XMP Core 5.6-c138 79.159824, 2016/09/14-01:09:01        ">
   <rdf:RDF xmlns:rdf="http://www.w3.org/1999/02/22-rdf-syntax-ns#">
      <rdf:Description rdf:about=""/>
   </rdf:RDF>
</x:xmpmeta>
                                                                                                    
                                                                                                    
                                                                                                    
                                                                                                    
                                                                                                    
                                                                                                    
                                                                                                    
                                                                                                    
                                                                                                    
                                                                                                    
                                                                                                    
                                                                                                    
                                                                                                    
                                                                                                    
                                                                                                    
                                                                                                    
                                                                                                    
                                                                                                    
                                                                                                    
                                                                                                    
                           
<?xpacket end="w"?></metadata>
<defs>
    <style>
      .cls-1 {
        fill: #fff;
      }

      .cls-2 {
        fill-rule: evenodd;
      }
    </style>
  </defs>
  <rect id="Rectangle_109_copy_2" data-name="Rectangle 109 copy 2" class="cls-1" width="768" height="229"/>
  <rect id="Rectangle_4_copy_5" data-name="Rectangle 4 copy 5" x="33.813" y="135.281" width="122.375" height="3.594"/>
  <path id="Shop_now_copy" data-name="Shop now copy" class="cls-2" d="M39.017,128.513c2.706,0,4.564-1.62,4.582-3.941,0.018-1.925-1.19-3.149-3.048-3.815l-0.9-.324c-1.353-.486-1.984-0.792-1.984-1.475,0-.666.776-0.972,1.551-0.972a2.853,2.853,0,0,1,2.219,1.061l1.876-1.979a5.348,5.348,0,0,0-4.131-1.763c-2.561,0-4.419,1.457-4.419,3.94,0,1.746,1.154,2.988,3.229,3.689l0.9,0.306c1.281,0.432,1.786.882,1.786,1.53,0,0.612-.6,1.062-1.551,1.062a3.352,3.352,0,0,1-2.652-1.458l-2.2,1.854A5.622,5.622,0,0,0,39.017,128.513Zm9.726-.216H51.61V123.24h5.159V128.3h2.868V115.52H56.769v5H51.61v-5H48.742V128.3Zm22.66,0.216a6.6,6.6,0,1,0-6.62-6.6A6.628,6.628,0,0,0,71.4,128.513Zm0-2.771a3.835,3.835,0,1,1,3.716-3.833A3.8,3.8,0,0,1,71.4,125.742Zm20.622-5.849a4.357,4.357,0,0,0-4.51-4.373H83.167V128.3h2.868v-4.049h1.479A4.342,4.342,0,0,0,92.024,119.893Zm-2.778,0a1.684,1.684,0,0,1-1.768,1.674H86.035V118.22h1.443A1.673,1.673,0,0,1,89.246,119.893Zm25.979,8.4V115.52h-2.886V123.4l-6.223-7.882h-2.472V128.3h2.869v-7.9l6.241,7.9h2.471Zm11.765,0.216a6.6,6.6,0,1,0-6.62-6.6A6.628,6.628,0,0,0,126.99,128.513Zm0-2.771a3.835,3.835,0,1,1,3.716-3.833A3.8,3.8,0,0,1,126.99,125.742Zm21.686,2.555H151.4l2.976-12.777h-3.067l-1.749,8.1-3.608-8.313-3.59,8.313-1.749-8.1h-3.067l2.959,12.777h2.723l2.724-6.262Z"/>
  <path id="SUEDE_SLOUCHY_BOOT_" data-name="SUEDE SLOUCHY BOOT  " class="cls-2" d="M45.424,67.794c5.76,0,9.715-3.456,9.753-8.409,0.038-4.108-2.534-6.719-6.489-8.14l-1.92-.691c-2.88-1.037-4.224-1.69-4.224-3.148,0-1.421,1.651-2.073,3.3-2.073A6.064,6.064,0,0,1,50.569,47.6l3.993-4.224a11.376,11.376,0,0,0-8.793-3.763c-5.452,0-9.407,3.11-9.407,8.409,0,3.724,2.457,6.374,6.873,7.871l1.92,0.653c2.726,0.922,3.8,1.881,3.8,3.264,0,1.306-1.267,2.265-3.3,2.265a7.132,7.132,0,0,1-5.644-3.11l-4.684,3.955A11.955,11.955,0,0,0,45.424,67.794Zm26.8,0c6.528,0,11.212-4.454,11.212-11.25V40.072H77.333V56.621c0,3.264-2.073,5.26-5.107,5.26s-5.107-2-5.107-5.26V40.072H61.014V56.544C61.014,63.34,65.661,67.794,72.226,67.794Zm18.586-.461h17.279V61.5H96.917V56.621h8.87V50.784h-8.87V45.908h11.174V40.072H90.812V67.333Zm23.847,0h9.292a13.633,13.633,0,1,0,0-27.261h-9.292V67.333Zm6.1-5.606V45.678h3.187a7.694,7.694,0,0,1,7.718,8.025,7.694,7.694,0,0,1-7.718,8.025h-3.187Zm23.271,5.606h17.278V61.5H150.14V56.621h8.869V50.784H150.14V45.908h11.173V40.072H144.035V67.333Zm42.354,0.461c5.759,0,9.714-3.456,9.752-8.409,0.039-4.108-2.534-6.719-6.489-8.14l-1.92-.691c-2.879-1.037-4.223-1.69-4.223-3.148,0-1.421,1.651-2.073,3.3-2.073a6.064,6.064,0,0,1,4.723,2.265l3.993-4.224a11.376,11.376,0,0,0-8.793-3.763c-5.452,0-9.407,3.11-9.407,8.409,0,3.724,2.457,6.374,6.873,7.871l1.92,0.653c2.726,0.922,3.8,1.881,3.8,3.264,0,1.306-1.267,2.265-3.3,2.265a7.13,7.13,0,0,1-5.644-3.11l-4.685,3.955A11.955,11.955,0,0,0,186.389,67.794Zm15.9-.461H219.68V61.5H208.391V40.072h-6.1V67.333Zm34.444,0.461A14.091,14.091,0,1,0,222.638,53.7,14.126,14.126,0,0,0,236.73,67.794Zm0-5.913a8.183,8.183,0,1,1,7.91-8.178A8.088,8.088,0,0,1,236.73,61.881Zm31.142,5.913c6.527,0,11.212-4.454,11.212-11.25V40.072h-6.105V56.621c0,3.264-2.074,5.26-5.107,5.26s-5.107-2-5.107-5.26V40.072h-6.1V56.544C256.66,63.34,261.306,67.794,267.872,67.794Zm31.142,0a14.091,14.091,0,0,0,12.747-7.449l-5.375-2.918a8.179,8.179,0,1,1,0-7.449l5.375-2.918A14.212,14.212,0,1,0,299.014,67.794Zm18.24-.461h6.106V56.544h10.981V67.333h6.105V40.072h-6.105V50.746H323.36V40.072h-6.106V67.333Zm38.246,0h6.144V55.891l9.945-15.819h-7.1L358.534,49.9l-5.875-9.829h-7.1L355.5,55.853V67.333Zm30.643,0h11.98a8.06,8.06,0,0,0,8.294-8.025,7.124,7.124,0,0,0-3.878-6.451,6.417,6.417,0,0,0,1.958-4.684,8.1,8.1,0,0,0-8.1-8.1H386.143V67.333Zm6.105-16.242V45.639H395.7a2.771,2.771,0,0,1,2.842,2.765,2.733,2.733,0,0,1-2.842,2.688h-3.456Zm0,10.636V56.275h5.338A2.773,2.773,0,0,1,400.465,59a2.739,2.739,0,0,1-2.841,2.726h-5.376ZM425,67.794A14.091,14.091,0,1,0,410.911,53.7,14.126,14.126,0,0,0,425,67.794Zm0-5.913a8.183,8.183,0,1,1,7.91-8.178A8.088,8.088,0,0,1,425,61.881ZM457.8,67.794A14.091,14.091,0,1,0,443.7,53.7,14.126,14.126,0,0,0,457.8,67.794Zm0-5.913a8.183,8.183,0,1,1,7.91-8.178A8.088,8.088,0,0,1,457.8,61.881Zm24.116,5.452h6.143V45.908h7.027V40.072h-20.12v5.836h6.95V67.333Z"/>
</svg>
