<svg id="Copy_copy_4" data-name="Copy copy 4" xmlns="http://www.w3.org/2000/svg" width="768" height="229"><defs><style>.cls-2{fill-rule:evenodd}</style></defs><path id="Rectangle_109_copy_2" data-name="Rectangle 109 copy 2" fill="#fff" d="M0 0h768v229H0z"/><path id="Rectangle_4_copy_5" data-name="Rectangle 4 copy 5" d="M33.813 135.281h122.375v3.594H33.813z"/><path id="Shop_now_copy" data-name="Shop now copy" class="cls-2" d="M39.017 128.513c2.706 0 4.564-1.62 4.582-3.941.018-1.925-1.19-3.149-3.048-3.815l-.9-.324c-1.353-.486-1.984-.792-1.984-1.475 0-.666.776-.972 1.551-.972a2.853 2.853 0 0 1 2.219 1.061l1.876-1.979a5.348 5.348 0 0 0-4.131-1.763c-2.561 0-4.419 1.457-4.419 3.94 0 1.746 1.154 2.988 3.229 3.689l.9.306c1.281.432 1.786.882 1.786 1.53 0 .612-.6 1.062-1.551 1.062a3.352 3.352 0 0 1-2.652-1.458l-2.2 1.854a5.622 5.622 0 0 0 4.742 2.285zm9.726-.216h2.867v-5.057h5.159v5.06h2.868v-12.78h-2.868v5H51.61v-5h-2.868v12.78zm22.66.216a6.6 6.6 0 1 0-6.62-6.6 6.628 6.628 0 0 0 6.617 6.6zm0-2.771a3.835 3.835 0 1 1 3.716-3.833 3.8 3.8 0 0 1-3.719 3.833zm20.622-5.849a4.357 4.357 0 0 0-4.51-4.373h-4.348v12.78h2.868v-4.049h1.479a4.342 4.342 0 0 0 4.51-4.358zm-2.778 0a1.684 1.684 0 0 1-1.768 1.674h-1.444v-3.347h1.443a1.673 1.673 0 0 1 1.768 1.673zm25.979 8.4V115.52h-2.886v7.88l-6.223-7.882h-2.472V128.3h2.869v-7.9l6.241 7.9h2.471zm11.765.216a6.6 6.6 0 1 0-6.62-6.6 6.628 6.628 0 0 0 6.619 6.604zm0-2.771a3.835 3.835 0 1 1 3.716-3.833 3.8 3.8 0 0 1-3.717 3.837zm21.686 2.555h2.723l2.976-12.777h-3.067l-1.749 8.1-3.608-8.313-3.59 8.313-1.749-8.1h-3.067l2.959 12.777h2.723l2.724-6.262z"/><path id="SUEDE_SLOUCHY_BOOT_" data-name="SUEDE SLOUCHY BOOT" class="cls-2" d="M45.424 67.794c5.76 0 9.715-3.456 9.753-8.409.038-4.108-2.534-6.719-6.489-8.14l-1.92-.691c-2.88-1.037-4.224-1.69-4.224-3.148 0-1.421 1.651-2.073 3.3-2.073a6.064 6.064 0 0 1 4.725 2.267l3.993-4.224a11.376 11.376 0 0 0-8.793-3.763c-5.452 0-9.407 3.11-9.407 8.409 0 3.724 2.457 6.374 6.873 7.871l1.92.653c2.726.922 3.8 1.881 3.8 3.264 0 1.306-1.267 2.265-3.3 2.265a7.132 7.132 0 0 1-5.644-3.11l-4.684 3.955a11.955 11.955 0 0 0 10.097 4.874zm26.8 0c6.528 0 11.212-4.454 11.212-11.25V40.072h-6.103v16.549c0 3.264-2.073 5.26-5.107 5.26s-5.107-2-5.107-5.26V40.072h-6.105v16.472c0 6.796 4.647 11.25 11.212 11.25zm18.586-.461h17.279V61.5H96.917v-4.879h8.87v-5.837h-8.87v-4.876h11.174v-5.836H90.812v27.261zm23.847 0h9.292a13.633 13.633 0 1 0 0-27.261h-9.292v27.261zm6.1-5.606V45.678h3.187a7.694 7.694 0 0 1 7.718 8.025 7.694 7.694 0 0 1-7.718 8.025h-3.187zm23.271 5.606h17.278V61.5H150.14v-4.879h8.869v-5.837h-8.869v-4.876h11.173v-5.836h-17.278v27.261zm42.354.461c5.759 0 9.714-3.456 9.752-8.409.039-4.108-2.534-6.719-6.489-8.14l-1.92-.691c-2.879-1.037-4.223-1.69-4.223-3.148 0-1.421 1.651-2.073 3.3-2.073a6.064 6.064 0 0 1 4.723 2.265l3.993-4.224a11.376 11.376 0 0 0-8.793-3.763c-5.452 0-9.407 3.11-9.407 8.409 0 3.724 2.457 6.374 6.873 7.871l1.92.653c2.726.922 3.8 1.881 3.8 3.264 0 1.306-1.267 2.265-3.3 2.265a7.13 7.13 0 0 1-5.644-3.11l-4.685 3.955a11.955 11.955 0 0 0 10.107 4.876zm15.9-.461h17.398V61.5h-11.289V40.072h-6.1v27.261zm34.444.461A14.091 14.091 0 1 0 222.638 53.7a14.126 14.126 0 0 0 14.092 14.094zm0-5.913a8.183 8.183 0 1 1 7.91-8.178 8.088 8.088 0 0 1-7.906 8.178zm31.142 5.913c6.527 0 11.212-4.454 11.212-11.25V40.072h-6.105v16.549c0 3.264-2.074 5.26-5.107 5.26s-5.107-2-5.107-5.26V40.072h-6.1v16.472c-.001 6.796 4.645 11.25 11.211 11.25zm31.142 0a14.091 14.091 0 0 0 12.747-7.449l-5.375-2.918a8.179 8.179 0 1 1 0-7.449l5.375-2.918a14.212 14.212 0 1 0-12.743 20.734zm18.24-.461h6.106V56.544h10.981v10.789h6.105V40.072h-6.105v10.674H323.36V40.072h-6.106v27.261zm38.246 0h6.144V55.891l9.945-15.819h-7.1l-5.951 9.828-5.875-9.829h-7.1l9.941 15.782v11.48zm30.643 0h11.98a8.06 8.06 0 0 0 8.294-8.025 7.124 7.124 0 0 0-3.878-6.451 6.417 6.417 0 0 0 1.958-4.684 8.1 8.1 0 0 0-8.1-8.1h-10.25v27.26zm6.105-16.242v-5.452h3.456a2.771 2.771 0 0 1 2.842 2.765 2.733 2.733 0 0 1-2.842 2.688h-3.456zm0 10.636v-5.452h5.338A2.773 2.773 0 0 1 400.465 59a2.739 2.739 0 0 1-2.841 2.726h-5.376zM425 67.794A14.091 14.091 0 1 0 410.911 53.7 14.126 14.126 0 0 0 425 67.794zm0-5.913a8.183 8.183 0 1 1 7.91-8.178 8.088 8.088 0 0 1-7.91 8.178zm32.8 5.913A14.091 14.091 0 1 0 443.7 53.7a14.126 14.126 0 0 0 14.1 14.094zm0-5.913a8.183 8.183 0 1 1 7.91-8.178 8.088 8.088 0 0 1-7.91 8.178zm24.116 5.452h6.143V45.908h7.027v-5.836h-20.12v5.836h6.95v21.425z"/></svg>