<svg id="COPY_copy" data-name="COPY copy" xmlns="http://www.w3.org/2000/svg" width="768" height="908" viewBox="0 0 768 908">
  <metadata><?xpacket begin="﻿" id="W5M0MpCehiHzreSzNTczkc9d"?>
<x:xmpmeta xmlns:x="adobe:ns:meta/" x:xmptk="Adobe XMP Core 5.6-c138 79.159824, 2016/09/14-01:09:01        ">
   <rdf:RDF xmlns:rdf="http://www.w3.org/1999/02/22-rdf-syntax-ns#">
      <rdf:Description rdf:about=""/>
   </rdf:RDF>
</x:xmpmeta>
                                                                                                    
                                                                                                    
                                                                                                    
                                                                                                    
                                                                                                    
                                                                                                    
                                                                                                    
                                                                                                    
                                                                                                    
                                                                                                    
                                                                                                    
                                                                                                    
                                                                                                    
                                                                                                    
                                                                                                    
                                                                                                    
                                                                                                    
                                                                                                    
                                                                                                    
                                                                                                    
                           
<?xpacket end="w"?></metadata>
<defs>
    <style>
      .cls-1 {
        fill: #fff;
        fill-opacity: 0;
      }

      .cls-2 {
        fill-rule: evenodd;
      }
    </style>
  </defs>
  <rect id="Rectangle_109_copy_4" data-name="Rectangle 109 copy 4" class="cls-1" width="768" height="908"/>
  <path id="WASHABLE_WOOL-_CASHMERE_SWEATER_Knit_b._1992_Originally_desig" data-name="WASHABLE WOOL- CASHMERE SWEATER Knit, b. 1992  Originally desig" class="cls-2" d="M64.348,66.092h5.8l6.336-27.261H69.954L66.229,56.109,58.55,38.37,50.909,56.109,47.184,38.831H40.657l6.3,27.261h5.8l5.8-13.362Zm12.981,0H83.7l2.419-5.759H97.411l2.419,5.759H106.2L94.531,38.831H89Zm11.02-11.058,3.417-8.217,3.417,8.217H88.349Zm30.029,11.519c5.759,0,9.714-3.456,9.753-8.409,0.038-4.108-2.535-6.719-6.49-8.14l-1.919-.691c-2.88-1.037-4.224-1.689-4.224-3.148,0-1.421,1.651-2.073,3.3-2.073a6.064,6.064,0,0,1,4.723,2.265l3.993-4.224a11.376,11.376,0,0,0-8.793-3.763c-5.452,0-9.407,3.11-9.407,8.409,0,3.724,2.457,6.374,6.873,7.871l1.92,0.653c2.726,0.922,3.8,1.881,3.8,3.264,0,1.306-1.267,2.265-3.3,2.265a7.13,7.13,0,0,1-5.644-3.11l-4.685,3.955A11.955,11.955,0,0,0,118.378,66.553Zm15.9-.461h6.106V55.3h10.981V66.092h6.105V38.831h-6.105V49.505H140.381V38.831h-6.106V66.092Zm27.956,0h6.374l2.419-5.759h11.289l2.419,5.759h6.373L179.433,38.831H173.9Zm11.02-11.058,3.417-8.217,3.417,8.217h-6.834Zm22.618,11.058h11.98a8.06,8.06,0,0,0,8.294-8.025,7.125,7.125,0,0,0-3.878-6.45,6.417,6.417,0,0,0,1.958-4.684,8.1,8.1,0,0,0-8.1-8.1H195.869V66.092Zm6.1-16.242V44.4h3.456a2.771,2.771,0,0,1,2.841,2.764,2.732,2.732,0,0,1-2.841,2.688h-3.456Zm0,10.636V55.034h5.337a2.774,2.774,0,0,1,2.88,2.726,2.74,2.74,0,0,1-2.841,2.726h-5.376Zm20.2,5.606h17.394V60.256H228.278V38.831h-6.1V66.092Zm23.116,0h17.279V60.256H251.394V55.38h8.87V49.544h-8.87V44.667h11.174V38.831H245.289V66.092Zm54.987,0h5.8l6.336-27.261h-6.528l-3.724,17.278-7.68-17.739-7.641,17.739-3.724-17.278h-6.528l6.3,27.261h5.8l5.8-13.362Zm29.761,0.461a14.091,14.091,0,1,0-14.092-14.091A14.126,14.126,0,0,0,330.037,66.553Zm0-5.913a8.183,8.183,0,1,1,7.91-8.178A8.088,8.088,0,0,1,330.037,60.64Zm32.793,5.913a14.091,14.091,0,1,0-14.092-14.091A14.126,14.126,0,0,0,362.83,66.553Zm0-5.913a8.183,8.183,0,1,1,7.91-8.178A8.088,8.088,0,0,1,362.83,60.64Zm20.237,5.452h17.394V60.256H389.172V38.831h-6.105V66.092Zm18.97-10.866h11.288V49.7H402.037v5.529ZM55.44,107.352A14.093,14.093,0,0,0,68.187,99.9l-5.376-2.918a8.179,8.179,0,1,1,0-7.449l5.376-2.918A14.213,14.213,0,1,0,55.44,107.352Zm14.67-.461h6.374l2.419-5.759H90.191l2.419,5.759h6.374L87.311,79.63H81.782Zm11.02-11.058,3.417-8.217,3.417,8.217H81.129Zm30.029,11.519c5.76,0,9.715-3.456,9.753-8.409,0.039-4.108-2.534-6.719-6.489-8.14l-1.92-.691c-2.88-1.037-4.223-1.689-4.223-3.148,0-1.421,1.651-2.073,3.3-2.073a6.065,6.065,0,0,1,4.723,2.265l3.993-4.224a11.376,11.376,0,0,0-8.793-3.763c-5.452,0-9.407,3.11-9.407,8.409,0,3.724,2.457,6.374,6.873,7.871l1.92,0.653c2.726,0.921,3.8,1.881,3.8,3.264,0,1.306-1.267,2.266-3.3,2.266a7.134,7.134,0,0,1-5.645-3.11l-4.684,3.955A11.956,11.956,0,0,0,111.158,107.352Zm15.9-.461h6.105V96.1h10.982v10.789h6.1V79.63h-6.1V90.3H133.161V79.63h-6.105v27.261Zm44.965-5.8,7.949-11.019v16.817h6.143V79.63h-5.567l-8.525,11.749L163.5,79.63H157.93v27.261h6.1V90.074Zm21.774,5.8h17.278v-5.836H199.9V96.179h8.87V90.342H199.9V85.466h11.173V79.63H193.8v27.261Zm23.846,0h6.105V95.641h1l9.061,11.25h7.334L231.5,94.873c3.455-1.229,5.337-3.494,5.337-7.026a8.049,8.049,0,0,0-8.448-8.217H217.641v27.261Zm6.105-16.433V85.236h3.917c1.8,0,3.11.96,3.11,2.611,0,1.574-1.306,2.611-3.11,2.611h-3.917Zm21.235,16.433H262.26v-5.836H251.087V96.179h8.869V90.342h-8.869V85.466H262.26V79.63H244.981v27.261Zm42.354,0.461c5.76,0,9.715-3.456,9.753-8.409,0.039-4.108-2.534-6.719-6.489-8.14l-1.92-.691c-2.879-1.037-4.223-1.689-4.223-3.148,0-1.421,1.651-2.073,3.3-2.073a6.064,6.064,0,0,1,4.723,2.265l3.993-4.224a11.376,11.376,0,0,0-8.793-3.763c-5.452,0-9.407,3.11-9.407,8.409,0,3.724,2.457,6.374,6.873,7.871l1.92,0.653c2.726,0.921,3.8,1.881,3.8,3.264,0,1.306-1.267,2.266-3.3,2.266a7.134,7.134,0,0,1-5.645-3.11l-4.684,3.955A11.956,11.956,0,0,0,287.335,107.352Zm36.94-.461h5.8l6.336-27.261h-6.528l-3.724,17.278-7.68-17.739-7.641,17.739L307.112,79.63h-6.528l6.3,27.261h5.8l5.8-13.362Zm17.512,0h17.279v-5.836H347.892V96.179h8.87V90.342h-8.87V85.466h11.174V79.63H341.787v27.261Zm20.928,0h6.374l2.419-5.759H382.8l2.419,5.759h6.374L379.917,79.63h-5.529Zm11.02-11.058,3.418-8.217,3.417,8.217h-6.835Zm24.807,11.058h6.144V85.466h7.026V79.63h-20.12v5.836h6.95v21.425Zm18.816,0h17.279v-5.836H423.463V96.179h8.87V90.342h-8.87V85.466h11.174V79.63H417.358v27.261Zm23.847,0h6.105V95.641h1l9.062,11.25H464.7l-9.638-12.018c3.456-1.229,5.337-3.494,5.337-7.026a8.049,8.049,0,0,0-8.447-8.217H441.205v27.261Zm6.105-16.433V85.236h3.916c1.805,0,3.11.96,3.11,2.611,0,1.574-1.305,2.611-3.11,2.611H447.31ZM42.486,140.49h2.429v-8.924l9.954,8.924h3.459L47.4,130.668l8.9-8.924H53.1l-8.185,8.132v-8.132H42.486V140.49Zm18.691,0h2.271v-6.548c0-3.089,1.69-4.831,3.828-4.831,1.848,0,3.116,1.373,3.116,3.59v7.789h2.244v-8.132c0-3.274-2.033-5.333-4.99-5.333a4.668,4.668,0,0,0-4.2,2.3v-2.033H61.177v13.2Zm19.615-18.35a1.594,1.594,0,0,0-1.584-1.61,1.64,1.64,0,0,0-1.637,1.61,1.623,1.623,0,0,0,1.637,1.611A1.578,1.578,0,0,0,80.792,122.14Zm-2.746,18.35h2.271v-13.2H78.046v13.2Zm15.049-.185v-2.033a5,5,0,0,1-1.611.264c-1.426,0-2.192-.554-2.192-2.244v-6.917h3.8v-2.086h-3.8v-3.67H87.022v3.67h-2.8v2.086h2.8v7.208a3.716,3.716,0,0,0,4.04,4.039A6.313,6.313,0,0,0,93.095,140.305Zm7.048-.4a2.258,2.258,0,0,0,.37-1.188,1.954,1.954,0,1,0-3.908,0,1.965,1.965,0,0,0,1.083,1.769l-1.769,3.776h1.5Zm15.285-1.452a5.787,5.787,0,0,0,4.647,2.3,6.877,6.877,0,0,0,0-13.729,5.787,5.787,0,0,0-4.647,2.3v-8.634h-2.271v19.8h2.271v-2.033Zm8.792-4.567a4.5,4.5,0,1,1-4.488-4.779A4.507,4.507,0,0,1,124.22,133.89Zm9.767,4.831a1.954,1.954,0,1,0-1.954,1.981A1.989,1.989,0,0,0,133.987,138.721Zm14.229,1.769h2.271V121.744h-4.04l-1.848,2.244h3.617v16.5Zm8.026,0h2.9l6.865-8.105a7.2,7.2,0,0,0,2.112-4.779,6.352,6.352,0,0,0-12.7.079,6.057,6.057,0,0,0,5.862,6.02,3.352,3.352,0,0,0,.739-0.053Zm1.505-12.832a4.027,4.027,0,1,1,4.013,4.04A3.984,3.984,0,0,1,157.747,127.658Zm14.546,12.832h2.9l6.865-8.105a7.2,7.2,0,0,0,2.112-4.779,6.352,6.352,0,0,0-12.7.079,6.057,6.057,0,0,0,5.862,6.02,3.348,3.348,0,0,0,.739-0.053Zm1.5-12.832a4.027,4.027,0,1,1,4.013,4.04A3.984,3.984,0,0,1,173.8,127.658ZM199.83,138.3h-9.347c0.448-2.165,2.64-3.248,4.805-4.832,3.063-2.218,4.33-3.8,4.33-6.548,0-3.644-2.666-5.492-5.782-5.492-3.459,0-6.179,2.324-6.179,5.915h2.324a3.62,3.62,0,0,1,3.881-3.7,3.171,3.171,0,0,1,3.433,3.248c0,2.191-1.162,3.168-3.327,4.779-2.773,2.059-6.284,3.907-6.284,7.921v0.9H199.83V138.3ZM58.7,184.767a8.81,8.81,0,1,0-8.81,8.81A8.724,8.724,0,0,0,58.7,184.767Zm-15.363,0a6.567,6.567,0,1,1,6.553,6.7A6.534,6.534,0,0,1,43.341,184.767Zm19.584,8.522h2.064v-5.953c0-2.809,1.656-4.129,3.169-4.129a3.018,3.018,0,0,1,1.128.192v-2.136a4.278,4.278,0,0,0-.936-0.1,3.571,3.571,0,0,0-3.361,2.448v-2.328H62.924v12ZM75.4,176.606a1.449,1.449,0,0,0-1.44-1.464,1.491,1.491,0,0,0-1.488,1.464,1.475,1.475,0,0,0,1.488,1.464A1.435,1.435,0,0,0,75.4,176.606Zm-2.5,16.683h2.064v-12H72.908v12Zm18.362-.7V181.287H89.206v1.848a5.107,5.107,0,0,0-4.177-2.088,6.114,6.114,0,0,0,0,12.218,5.126,5.126,0,0,0,4.177-2.112v1.368a3.837,3.837,0,0,1-4.009,4.153,5.136,5.136,0,0,1-4.2-2.017l-1.44,1.44a7.124,7.124,0,0,0,5.665,2.449C88.63,198.546,91.271,196.6,91.271,192.593Zm-10.01-5.449a4.059,4.059,0,1,1,4.057,4.2A4,4,0,0,1,81.26,187.144Zm17.592-10.538a1.449,1.449,0,0,0-1.44-1.464,1.491,1.491,0,0,0-1.488,1.464,1.475,1.475,0,0,0,1.488,1.464A1.435,1.435,0,0,0,98.852,176.606Zm-2.5,16.683H98.42v-12H96.356v12Zm7.176,0H105.6v-5.953c0-2.809,1.536-4.393,3.481-4.393,1.68,0,2.833,1.248,2.833,3.265v7.081h2.04V185.9c0-2.977-1.848-4.849-4.537-4.849a4.245,4.245,0,0,0-3.817,2.088v-1.848h-2.064v12Zm14.4-6a6.007,6.007,0,0,0,5.882,6.241,5.262,5.262,0,0,0,4.224-2.088v1.848H130.1v-12h-2.065v1.848a5.262,5.262,0,0,0-4.224-2.088A6.006,6.006,0,0,0,117.931,187.288Zm10.274,0a4.1,4.1,0,1,1-4.08-4.345A4.1,4.1,0,0,1,128.205,187.288Zm6.982,6h2.065v-18h-2.065v18Zm7.176,0h2.064v-18h-2.064v18Zm10.369,5.017,7.873-17.019h-2.3l-4.1,9.1-4.129-9.1h-2.28l5.257,11.378-2.617,5.641h2.305Zm16.727-11.018a6.006,6.006,0,0,0,5.881,6.241,5.264,5.264,0,0,0,4.225-2.088v1.848h2.064v-18h-2.064v7.849a5.264,5.264,0,0,0-4.225-2.088A6.005,6.005,0,0,0,169.459,187.288Zm10.274,0a4.1,4.1,0,1,1-4.081-4.345A4.1,4.1,0,0,1,179.733,187.288Zm6.045,0a6.328,6.328,0,0,0,11.619,3.384l-1.633-1.128a4.249,4.249,0,0,1-7.9-1.848h9.842a5.856,5.856,0,0,0,.024-0.624c-0.024-3.841-2.569-6.025-5.713-6.025A6.082,6.082,0,0,0,185.778,187.288Zm6.17-4.417a3.59,3.59,0,0,1,3.672,3.145h-7.609A3.923,3.923,0,0,1,191.948,182.871Zm17.688,7.081c0-1.8-1.128-2.952-3.169-3.624l-1.3-.432c-1.416-.457-1.848-0.913-1.848-1.681,0-.888.888-1.392,2.016-1.392a3.244,3.244,0,0,1,2.545,1.248l1.344-1.3a4.656,4.656,0,0,0-3.841-1.728c-2.376,0-4.057,1.32-4.057,3.264,0,1.681,1.033,2.857,2.977,3.481l1.176,0.384c1.561,0.5,2.137,1.08,2.137,1.92,0,1.033-.937,1.633-2.113,1.633a3.22,3.22,0,0,1-3.072-1.9l-1.681.912a4.767,4.767,0,0,0,4.705,2.785C207.884,193.529,209.636,192.305,209.636,189.952Zm6.647-13.346a1.45,1.45,0,0,0-1.441-1.464,1.491,1.491,0,0,0-1.488,1.464,1.475,1.475,0,0,0,1.488,1.464A1.435,1.435,0,0,0,216.283,176.606Zm-2.5,16.683h2.065v-12h-2.065v12Zm18.362-.7V181.287h-2.064v1.848a5.108,5.108,0,0,0-4.177-2.088,6.114,6.114,0,0,0,0,12.218,5.126,5.126,0,0,0,4.177-2.112v1.368a3.837,3.837,0,0,1-4.009,4.153,5.136,5.136,0,0,1-4.2-2.017l-1.44,1.44a7.124,7.124,0,0,0,5.665,2.449C229.508,198.546,232.148,196.6,232.148,192.593Zm-10.01-5.449a4.059,4.059,0,1,1,4.057,4.2A4,4,0,0,1,222.138,187.144Zm15.1,6.145H239.3v-5.953c0-2.809,1.537-4.393,3.481-4.393,1.68,0,2.833,1.248,2.833,3.265v7.081h2.04V185.9c0-2.977-1.848-4.849-4.537-4.849a4.245,4.245,0,0,0-3.817,2.088v-1.848h-2.064v12Zm14.4-6a6.328,6.328,0,0,0,11.619,3.384l-1.633-1.128a4.249,4.249,0,0,1-7.9-1.848h9.842a5.856,5.856,0,0,0,.024-0.624c-0.024-3.841-2.569-6.025-5.713-6.025A6.082,6.082,0,0,0,251.633,187.288Zm6.17-4.417a3.59,3.59,0,0,1,3.672,3.145h-7.609A3.923,3.923,0,0,1,257.8,182.871Zm8.974,4.417a6.006,6.006,0,0,0,5.881,6.241,5.263,5.263,0,0,0,4.225-2.088v1.848h2.065v-18h-2.065v7.849a5.263,5.263,0,0,0-4.225-2.088A6.006,6.006,0,0,0,266.777,187.288Zm10.274,0a4.1,4.1,0,1,1-4.08-4.345A4.1,4.1,0,0,1,277.051,187.288Zm16.534-10.682a1.449,1.449,0,0,0-1.44-1.464,1.491,1.491,0,0,0-1.488,1.464,1.475,1.475,0,0,0,1.488,1.464A1.434,1.434,0,0,0,293.585,176.606Zm-2.5,16.683h2.064v-12h-2.064v12Zm7.176,0h2.064v-5.953c0-2.809,1.536-4.393,3.481-4.393,1.68,0,2.832,1.248,2.832,3.265v7.081h2.041V185.9c0-2.977-1.848-4.849-4.537-4.849a4.245,4.245,0,0,0-3.817,2.088v-1.848h-2.064v12Zm23.879,0h2.065V176.246h-3.673l-1.68,2.04h3.288v15Zm7.3,0h2.641l6.241-7.369a6.55,6.55,0,0,0,1.92-4.345,5.774,5.774,0,0,0-11.546.072,5.506,5.506,0,0,0,5.329,5.473,3.059,3.059,0,0,0,.672-0.048Zm1.368-11.666a3.661,3.661,0,1,1,3.649,3.672A3.622,3.622,0,0,1,330.808,181.623Zm13.224,11.666h2.641l6.241-7.369a6.55,6.55,0,0,0,1.92-4.345,5.774,5.774,0,0,0-11.546.072,5.506,5.506,0,0,0,5.329,5.473,3.059,3.059,0,0,0,.672-0.048Zm1.368-11.666a3.661,3.661,0,1,1,3.649,3.672A3.622,3.622,0,0,1,345.4,181.623Zm23.666,9.674h-8.5c0.408-1.969,2.4-2.953,4.369-4.393,2.785-2.017,3.937-3.457,3.937-5.953,0-3.313-2.424-4.993-5.257-4.993A5.3,5.3,0,0,0,358,181.335h2.112a3.292,3.292,0,0,1,3.529-3.361,2.882,2.882,0,0,1,3.121,2.953c0,1.992-1.056,2.88-3.025,4.344-2.52,1.873-5.713,3.553-5.713,7.2v0.816h11.042V191.3Zm12.07,1.992H383.2V183.183h3.48v-1.9H383.2v-2.209c0-1.512.672-2.04,1.992-2.04a4.833,4.833,0,0,1,1.488.24v-1.824a5.454,5.454,0,0,0-1.872-.312,3.428,3.428,0,0,0-3.673,3.72v2.425h-2.544v1.9h2.544v10.106Zm20.283-6a6.278,6.278,0,1,0-6.266,6.241A6.159,6.159,0,0,0,401.419,187.288Zm-10.443,0a4.168,4.168,0,1,1,4.177,4.321A4.126,4.126,0,0,1,390.976,187.288Zm14.592,6h2.064v-5.953c0-2.809,1.657-4.129,3.169-4.129a3.017,3.017,0,0,1,1.128.192v-2.136a4.276,4.276,0,0,0-.936-0.1,3.571,3.571,0,0,0-3.361,2.448v-2.328h-2.064v12Zm22.537-.168v-1.848a4.562,4.562,0,0,1-1.464.24c-1.3,0-1.993-.5-1.993-2.041v-6.289h3.457v-1.9h-3.457V177.95h-2.064v3.337h-2.545v1.9h2.545v6.553a3.378,3.378,0,0,0,3.673,3.673A5.743,5.743,0,0,0,428.105,193.121Zm3.839,0.168h2.064v-5.953c0-2.809,1.536-4.393,3.481-4.393,1.68,0,2.832,1.248,2.832,3.265v7.081h2.041V185.9c0-2.977-1.849-4.849-4.537-4.849a4.245,4.245,0,0,0-3.817,2.088v-7.849h-2.064v18Zm14.4-6a6.328,6.328,0,0,0,11.619,3.384l-1.633-1.128a4.249,4.249,0,0,1-7.9-1.848h9.842a5.856,5.856,0,0,0,.024-0.624c-0.024-3.841-2.569-6.025-5.714-6.025A6.082,6.082,0,0,0,446.343,187.288Zm6.169-4.417a3.591,3.591,0,0,1,3.673,3.145h-7.609A3.923,3.923,0,0,1,452.512,182.871Zm16.967,10.418h2.064v-5.953c0-2.713,1.369-4.393,3.313-4.393,1.56,0,2.353,1.344,2.353,3.289v7.057h2.064v-5.953c0-2.713,1.344-4.393,3.289-4.393,1.56,0,2.376,1.344,2.376,3.289v7.057H487V185.92c0-2.929-1.585-4.873-4.2-4.873a4.153,4.153,0,0,0-3.937,2.568,3.773,3.773,0,0,0-3.7-2.568,4.036,4.036,0,0,0-3.625,2.088v-1.848h-2.064v12Zm21.5-6a6.327,6.327,0,0,0,11.618,3.384l-1.632-1.128a4.25,4.25,0,0,1-7.9-1.848h9.842a5.856,5.856,0,0,0,.024-0.624c-0.024-3.841-2.568-6.025-5.713-6.025A6.081,6.081,0,0,0,490.983,187.288Zm6.169-4.417a3.591,3.591,0,0,1,3.673,3.145h-7.61A3.924,3.924,0,0,1,497.152,182.871Zm9.911,10.418h2.064v-5.953c0-2.809,1.536-4.393,3.481-4.393,1.68,0,2.832,1.248,2.832,3.265v7.081h2.041V185.9c0-2.977-1.849-4.849-4.537-4.849a4.245,4.245,0,0,0-3.817,2.088v-1.848h-2.064v12Zm18.072-14.451a2.121,2.121,0,0,0,.336-1.08,1.788,1.788,0,1,0-3.576,0,1.86,1.86,0,0,0,.984,1.608L521.27,182.8h1.393Zm11.209,11.114c0-1.8-1.128-2.952-3.168-3.624l-1.3-.432c-1.416-.457-1.848-0.913-1.848-1.681,0-.888.888-1.392,2.016-1.392a3.243,3.243,0,0,1,2.545,1.248l1.344-1.3a4.654,4.654,0,0,0-3.84-1.728c-2.377,0-4.057,1.32-4.057,3.264,0,1.681,1.032,2.857,2.976,3.481l1.177,0.384c1.56,0.5,2.136,1.08,2.136,1.92,0,1.033-.936,1.633-2.112,1.633a3.22,3.22,0,0,1-3.073-1.9l-1.68.912a4.766,4.766,0,0,0,4.705,2.785C534.592,193.529,536.344,192.305,536.344,189.952Zm22.1,0.36-1.8-1.008a4.069,4.069,0,0,1-3.745,2.305,4.323,4.323,0,0,1,0-8.642,4.068,4.068,0,0,1,3.745,2.3l1.8-1.008a6.218,6.218,0,0,0-5.546-3.216,6.241,6.241,0,1,0,0,12.482A6.216,6.216,0,0,0,558.449,190.312Zm15.455-3.024a6.277,6.277,0,1,0-6.265,6.241A6.159,6.159,0,0,0,573.9,187.288Zm-10.442,0a4.168,4.168,0,1,1,4.177,4.321A4.126,4.126,0,0,1,563.462,187.288Zm14.592,6h2.064v-18h-2.064v18Zm7.175,0h2.065v-18h-2.065v18Zm6.24-6a6.328,6.328,0,0,0,11.619,3.384l-1.633-1.128a4.249,4.249,0,0,1-7.9-1.848H603.4a5.856,5.856,0,0,0,.024-0.624c-0.024-3.841-2.569-6.025-5.714-6.025A6.082,6.082,0,0,0,591.469,187.288Zm6.169-4.417a3.591,3.591,0,0,1,3.673,3.145H593.7A3.923,3.923,0,0,1,597.638,182.871Zm20.809,7.441-1.8-1.008a4.069,4.069,0,0,1-3.745,2.305,4.323,4.323,0,0,1,0-8.642,4.068,4.068,0,0,1,3.745,2.3l1.8-1.008a6.215,6.215,0,0,0-5.545-3.216,6.241,6.241,0,1,0,0,12.482A6.214,6.214,0,0,0,618.447,190.312Zm10.367,2.809v-1.848a4.562,4.562,0,0,1-1.464.24c-1.3,0-1.993-.5-1.993-2.041v-6.289h3.457v-1.9h-3.457V177.95h-2.064v3.337h-2.544v1.9h2.544v6.553a3.378,3.378,0,0,0,3.673,3.673A5.743,5.743,0,0,0,628.814,193.121Zm6.335-16.515a1.449,1.449,0,0,0-1.44-1.464,1.491,1.491,0,0,0-1.488,1.464,1.475,1.475,0,0,0,1.488,1.464A1.434,1.434,0,0,0,635.149,176.606Zm-2.5,16.683h2.064v-12h-2.064v12Zm18.77-6a6.278,6.278,0,1,0-6.265,6.241A6.159,6.159,0,0,0,651.423,187.288Zm-10.442,0a4.168,4.168,0,1,1,4.177,4.321A4.125,4.125,0,0,1,640.981,187.288Zm14.591,6h2.065v-5.953c0-2.809,1.536-4.393,3.48-4.393,1.681,0,2.833,1.248,2.833,3.265v7.081h2.041V185.9c0-2.977-1.849-4.849-4.537-4.849a4.244,4.244,0,0,0-3.817,2.088v-1.848h-2.065v12Zm18.193-1.608a1.777,1.777,0,1,0-1.777,1.8A1.809,1.809,0,0,0,673.765,191.681ZM45.717,222.088H47.9V207.157h5.305v-2.112H40.412v2.112h5.305v14.931Zm10.871,0h2.064v-5.953c0-2.808,1.536-4.393,3.481-4.393,1.68,0,2.833,1.248,2.833,3.265v7.081h2.04V214.7c0-2.977-1.848-4.849-4.537-4.849a4.245,4.245,0,0,0-3.817,2.088v-7.849H56.588v18ZM74.42,205.405a1.449,1.449,0,0,0-1.44-1.464,1.491,1.491,0,0,0-1.488,1.464,1.475,1.475,0,0,0,1.488,1.464A1.435,1.435,0,0,0,74.42,205.405Zm-2.5,16.683h2.064v-12H71.924v12Zm14.953-3.336c0-1.8-1.128-2.953-3.169-3.625l-1.3-.432c-1.416-.456-1.848-0.912-1.848-1.681,0-.888.888-1.392,2.016-1.392a3.243,3.243,0,0,1,2.544,1.248l1.344-1.3a4.655,4.655,0,0,0-3.841-1.728c-2.377,0-4.057,1.32-4.057,3.265,0,1.68,1.032,2.856,2.977,3.48l1.176,0.384c1.56,0.5,2.136,1.08,2.136,1.921,0,1.032-.936,1.632-2.112,1.632a3.221,3.221,0,0,1-3.073-1.9l-1.68.912a4.767,4.767,0,0,0,4.7,2.784C85.125,222.328,86.877,221.1,86.877,218.752Zm11.206,3.336h2.065v-5.953c0-2.808,1.536-4.393,3.48-4.393,1.681,0,2.833,1.248,2.833,3.265v7.081h2.04V214.7c0-2.977-1.848-4.849-4.537-4.849a4.243,4.243,0,0,0-3.816,2.088v-1.848H98.083v12Zm14.4-6a6.328,6.328,0,0,0,11.618,3.385l-1.632-1.129a4.25,4.25,0,0,1-7.9-1.848h9.842a5.856,5.856,0,0,0,.024-0.624c-0.024-3.841-2.568-6.025-5.713-6.025A6.081,6.081,0,0,0,112.483,216.087Zm6.169-4.417a3.591,3.591,0,0,1,3.673,3.145h-7.61A3.924,3.924,0,0,1,118.652,211.67Zm20.065,10.418h1.825l4.08-12h-2.184l-2.905,8.762-3-8.762h-1.585l-3,8.762-2.905-8.762h-2.16l4.081,12h1.824l2.977-8.641Zm18.454-16.683a1.449,1.449,0,0,0-1.44-1.464,1.491,1.491,0,0,0-1.488,1.464,1.475,1.475,0,0,0,1.488,1.464A1.434,1.434,0,0,0,157.171,205.405Zm-2.5,16.683h2.064v-12h-2.064v12Zm13.681-.168v-1.848a4.562,4.562,0,0,1-1.464.24c-1.3,0-1.993-.5-1.993-2.041v-6.289h3.457v-1.9H164.9v-3.337h-2.064v3.337H160.29v1.9h2.545v6.554a3.378,3.378,0,0,0,3.672,3.672A5.744,5.744,0,0,0,168.356,221.92Zm2.734-5.833a6.328,6.328,0,0,0,11.619,3.385l-1.632-1.129a4.25,4.25,0,0,1-7.9-1.848h9.842a5.856,5.856,0,0,0,.024-0.624c-0.024-3.841-2.569-6.025-5.713-6.025A6.082,6.082,0,0,0,171.09,216.087Zm6.17-4.417a3.592,3.592,0,0,1,3.673,3.145h-7.61A3.923,3.923,0,0,1,177.26,211.67Zm9.91,10.418h2.065v-5.953c0-2.808,1.656-4.129,3.169-4.129a3.017,3.017,0,0,1,1.128.192v-2.136a4.276,4.276,0,0,0-.936-0.1,3.57,3.57,0,0,0-3.361,2.448v-2.328H187.17v12Zm8.64-6a6.006,6.006,0,0,0,5.882,6.241,5.262,5.262,0,0,0,4.224-2.088v1.848h2.065v-12h-2.065v1.848a5.262,5.262,0,0,0-4.224-2.088A6.006,6.006,0,0,0,195.81,216.087Zm10.274,0a4.1,4.1,0,1,1-4.08-4.345A4.1,4.1,0,0,1,206.084,216.087Zm13.488,5.833v-1.848a4.568,4.568,0,0,1-1.465.24c-1.3,0-1.992-.5-1.992-2.041v-6.289h3.457v-1.9h-3.457v-3.337H214.05v3.337h-2.544v1.9h2.544v6.554a3.379,3.379,0,0,0,3.673,3.672A5.749,5.749,0,0,0,219.572,221.92Zm6.335-16.515a1.45,1.45,0,0,0-1.441-1.464,1.491,1.491,0,0,0-1.488,1.464,1.475,1.475,0,0,0,1.488,1.464A1.435,1.435,0,0,0,225.907,205.405Zm-2.5,16.683h2.065v-12H223.41v12Zm18.77-6a6.277,6.277,0,1,0-6.265,6.241A6.159,6.159,0,0,0,242.18,216.087Zm-10.442,0a4.168,4.168,0,1,1,4.177,4.321A4.126,4.126,0,0,1,231.738,216.087Zm14.592,6h2.064v-5.953c0-2.808,1.536-4.393,3.481-4.393,1.68,0,2.832,1.248,2.832,3.265v7.081h2.041V214.7c0-2.977-1.848-4.849-4.537-4.849a4.245,4.245,0,0,0-3.817,2.088v-1.848H246.33v12Zm24.888-16.683a1.45,1.45,0,0,0-1.441-1.464,1.491,1.491,0,0,0-1.488,1.464,1.475,1.475,0,0,0,1.488,1.464A1.435,1.435,0,0,0,271.218,205.405Zm-2.5,16.683h2.065v-12h-2.065v12Zm14.954-3.336c0-1.8-1.129-2.953-3.169-3.625l-1.3-.432c-1.417-.456-1.849-0.912-1.849-1.681,0-.888.888-1.392,2.017-1.392a3.242,3.242,0,0,1,2.544,1.248l1.345-1.3a4.657,4.657,0,0,0-3.841-1.728c-2.377,0-4.057,1.32-4.057,3.265,0,1.68,1.032,2.856,2.976,3.48l1.177,0.384c1.56,0.5,2.136,1.08,2.136,1.921,0,1.032-.936,1.632-2.112,1.632a3.221,3.221,0,0,1-3.073-1.9l-1.68.912a4.767,4.767,0,0,0,4.7,2.784C281.922,222.328,283.675,221.1,283.675,218.752Zm11.2,3.336h2.065v-5.953c0-2.712,1.368-4.393,3.313-4.393,1.56,0,2.352,1.345,2.352,3.289v7.057h2.065v-5.953c0-2.712,1.344-4.393,3.288-4.393,1.561,0,2.377,1.345,2.377,3.289v7.057H312.4v-7.369c0-2.929-1.584-4.873-4.2-4.873a4.155,4.155,0,0,0-3.937,2.568,3.772,3.772,0,0,0-3.7-2.568,4.034,4.034,0,0,0-3.625,2.088v-1.848H294.88v12Zm21.5-6a6.006,6.006,0,0,0,5.881,6.241,5.263,5.263,0,0,0,4.225-2.088v1.848h2.065v-12H326.49v1.848a5.263,5.263,0,0,0-4.225-2.088A6.006,6.006,0,0,0,316.384,216.087Zm10.274,0a4.1,4.1,0,1,1-4.081-4.345A4.1,4.1,0,0,1,326.658,216.087Zm6.046,0a6.005,6.005,0,0,0,5.881,6.241,5.263,5.263,0,0,0,4.225-2.088v1.848h2.064v-18H342.81v7.849a5.263,5.263,0,0,0-4.225-2.088A6.005,6.005,0,0,0,332.7,216.087Zm10.274,0a4.1,4.1,0,1,1-4.081-4.345A4.1,4.1,0,0,1,342.978,216.087Zm6.046,0a6.328,6.328,0,0,0,11.618,3.385l-1.632-1.129a4.25,4.25,0,0,1-7.9-1.848h9.842a5.856,5.856,0,0,0,.024-0.624c-0.024-3.841-2.568-6.025-5.713-6.025A6.081,6.081,0,0,0,349.024,216.087Zm6.169-4.417a3.591,3.591,0,0,1,3.673,3.145h-7.61A3.924,3.924,0,0,1,355.193,211.67Zm17.663,10.418h2.064V211.982H378.4v-1.9H374.92v-2.208c0-1.513.673-2.041,1.993-2.041a4.833,4.833,0,0,1,1.488.24v-1.824a5.454,5.454,0,0,0-1.872-.312,3.427,3.427,0,0,0-3.673,3.72v2.425h-2.545v1.9h2.545v10.106Zm20.282-6a6.277,6.277,0,1,0-6.265,6.241A6.159,6.159,0,0,0,393.138,216.087Zm-10.442,0a4.168,4.168,0,1,1,4.177,4.321A4.126,4.126,0,0,1,382.7,216.087Zm14.592,6h2.064v-5.953c0-2.808,1.656-4.129,3.169-4.129a3.017,3.017,0,0,1,1.128.192v-2.136a4.276,4.276,0,0,0-.936-0.1,3.57,3.57,0,0,0-3.361,2.448v-2.328h-2.064v12Zm26.186,0H425.3l4.081-12H427.2l-2.9,8.762-3-8.762h-1.584l-3,8.762-2.9-8.762h-2.161l4.081,12h1.824l2.977-8.641Zm20.88-6a6.278,6.278,0,1,0-6.266,6.241A6.159,6.159,0,0,0,444.354,216.087Zm-10.442,0a4.167,4.167,0,1,1,4.176,4.321A4.125,4.125,0,0,1,433.912,216.087Zm14.591,6h2.064v-5.953c0-2.712,1.369-4.393,3.313-4.393,1.56,0,2.353,1.345,2.353,3.289v7.057H458.3v-5.953c0-2.712,1.344-4.393,3.289-4.393,1.56,0,2.376,1.345,2.376,3.289v7.057h2.065v-7.369c0-2.929-1.585-4.873-4.2-4.873a4.153,4.153,0,0,0-3.937,2.568,3.773,3.773,0,0,0-3.7-2.568,4.036,4.036,0,0,0-3.625,2.088v-1.848H448.5v12Zm21.5-6a6.328,6.328,0,0,0,11.618,3.385l-1.632-1.129a4.25,4.25,0,0,1-7.9-1.848h9.842a5.856,5.856,0,0,0,.024-0.624c-0.024-3.841-2.568-6.025-5.713-6.025A6.081,6.081,0,0,0,470.007,216.087Zm6.169-4.417a3.591,3.591,0,0,1,3.673,3.145h-7.61A3.924,3.924,0,0,1,476.176,211.67Zm9.911,10.418h2.064v-5.953c0-2.808,1.536-4.393,3.481-4.393,1.68,0,2.832,1.248,2.832,3.265v7.081h2.041V214.7c0-2.977-1.849-4.849-4.537-4.849a4.245,4.245,0,0,0-3.817,2.088v-1.848h-2.064v12Zm21.455-6a6.005,6.005,0,0,0,5.881,6.241,5.263,5.263,0,0,0,4.225-2.088v1.848h2.065v-12h-2.065v1.848a5.263,5.263,0,0,0-4.225-2.088A6.005,6.005,0,0,0,507.542,216.087Zm10.274,0a4.1,4.1,0,1,1-4.081-4.345A4.1,4.1,0,0,1,517.816,216.087Zm6.982,6h2.064v-5.953c0-2.808,1.537-4.393,3.481-4.393,1.68,0,2.833,1.248,2.833,3.265v7.081h2.04V214.7c0-2.977-1.848-4.849-4.537-4.849a4.245,4.245,0,0,0-3.817,2.088v-1.848H524.8v12Zm14.4-6a6.006,6.006,0,0,0,5.882,6.241,5.266,5.266,0,0,0,4.225-2.088v1.848h2.064v-18H549.3v7.849a5.266,5.266,0,0,0-4.225-2.088A6.006,6.006,0,0,0,539.2,216.087Zm10.275,0a4.1,4.1,0,1,1-4.081-4.345A4.1,4.1,0,0,1,549.472,216.087Zm24.935,3.025-1.8-1.009a4.067,4.067,0,0,1-3.745,2.3,4.323,4.323,0,0,1,0-8.642,4.067,4.067,0,0,1,3.745,2.305l1.8-1.008a6.214,6.214,0,0,0-5.545-3.217,6.241,6.241,0,1,0,0,12.482A6.215,6.215,0,0,0,574.407,219.112Zm3.862,2.976h2.064v-5.953c0-2.808,1.657-4.129,3.169-4.129a3.017,3.017,0,0,1,1.128.192v-2.136a4.276,4.276,0,0,0-.936-0.1,3.571,3.571,0,0,0-3.361,2.448v-2.328h-2.064v12Zm8.64-6a6.005,6.005,0,0,0,5.881,6.241,5.264,5.264,0,0,0,4.225-2.088v1.848h2.064v-12h-2.064v1.848a5.264,5.264,0,0,0-4.225-2.088A6.005,6.005,0,0,0,586.909,216.087Zm10.274,0a4.1,4.1,0,1,1-4.081-4.345A4.1,4.1,0,0,1,597.183,216.087Zm7.99,6h2.064V211.982h3.169v-1.9h-3.169v-2.208c0-1.513.672-2.041,1.993-2.041a4.833,4.833,0,0,1,1.488.24v-1.824a5.456,5.456,0,0,0-1.873-.312,3.378,3.378,0,0,0-3.672,3.672v2.473h-2.545v1.9h2.545v10.106Zm14.379-.168v-1.848a4.717,4.717,0,0,1-1.489.24c-1.3,0-1.992-.5-1.992-2.041v-6.289h3.481v-1.9h-3.481v-3.337h-2.064v3.337H611.75v1.9h2.257v6.554a3.4,3.4,0,0,0,3.7,3.672A5.975,5.975,0,0,0,619.552,221.92Zm2.732-5.833a6.328,6.328,0,0,0,11.619,3.385l-1.633-1.129a4.249,4.249,0,0,1-7.9-1.848h9.842a5.856,5.856,0,0,0,.024-0.624c-0.024-3.841-2.569-6.025-5.713-6.025A6.082,6.082,0,0,0,622.284,216.087Zm6.17-4.417a3.59,3.59,0,0,1,3.672,3.145h-7.609A3.923,3.923,0,0,1,628.454,211.67Zm8.974,4.417a6.006,6.006,0,0,0,5.881,6.241,5.263,5.263,0,0,0,4.225-2.088v1.848H649.6v-18h-2.065v7.849a5.263,5.263,0,0,0-4.225-2.088A6.006,6.006,0,0,0,637.428,216.087Zm10.274,0a4.1,4.1,0,1,1-4.08-4.345A4.1,4.1,0,0,1,647.7,216.087Zm14.734,6H664.5V211.982h3.481v-1.9H664.5v-2.208c0-1.513.672-2.041,1.992-2.041a4.839,4.839,0,0,1,1.489.24v-1.824a5.46,5.46,0,0,0-1.873-.312,3.428,3.428,0,0,0-3.673,3.72v2.425h-2.544v1.9h2.544v10.106Zm9,0H673.5v-5.953c0-2.808,1.657-4.129,3.169-4.129a3.017,3.017,0,0,1,1.128.192v-2.136a4.276,4.276,0,0,0-.936-0.1,3.571,3.571,0,0,0-3.361,2.448v-2.328h-2.064v12Zm21.147-6a6.278,6.278,0,1,0-6.266,6.241A6.159,6.159,0,0,0,692.583,216.087Zm-10.443,0a4.168,4.168,0,1,1,4.177,4.321A4.126,4.126,0,0,1,682.14,216.087Zm14.592,6H698.8v-5.953c0-2.712,1.369-4.393,3.313-4.393,1.56,0,2.352,1.345,2.352,3.289v7.057h2.065v-5.953c0-2.712,1.344-4.393,3.289-4.393,1.56,0,2.376,1.345,2.376,3.289v7.057h2.065v-7.369c0-2.929-1.585-4.873-4.2-4.873a4.153,4.153,0,0,0-3.937,2.568,3.773,3.773,0,0,0-3.7-2.568,4.035,4.035,0,0,0-3.625,2.088v-1.848h-2.064v12Zm-644.606,28.8h1.824l4.081-12H55.847l-2.9,8.762-3-8.762H48.358l-3,8.762-2.9-8.762h-2.16l4.081,12H46.2l2.977-8.641Zm8.349-6a6.006,6.006,0,0,0,5.881,6.241,5.264,5.264,0,0,0,4.225-2.088v1.848h2.064v-12H70.582v1.849a5.262,5.262,0,0,0-4.225-2.089A6.006,6.006,0,0,0,60.476,244.886Zm10.274,0a4.1,4.1,0,1,1-4.081-4.344A4.1,4.1,0,0,1,70.75,244.886Zm14.759,2.665c0-1.8-1.128-2.953-3.169-3.625l-1.3-.432c-1.416-.456-1.848-0.912-1.848-1.68,0-.888.888-1.393,2.016-1.393a3.244,3.244,0,0,1,2.544,1.249l1.344-1.3a4.655,4.655,0,0,0-3.841-1.728c-2.377,0-4.057,1.32-4.057,3.265,0,1.68,1.032,2.856,2.977,3.48l1.176,0.384c1.56,0.5,2.137,1.081,2.137,1.921,0,1.032-.936,1.632-2.113,1.632a3.221,3.221,0,0,1-3.073-1.9l-1.68.912a4.767,4.767,0,0,0,4.705,2.784C83.757,251.127,85.509,249.9,85.509,247.551Zm4.15,3.336h2.064v-5.953c0-2.808,1.536-4.392,3.481-4.392,1.68,0,2.833,1.248,2.833,3.264v7.081h2.041v-7.393c0-2.976-1.849-4.849-4.537-4.849a4.243,4.243,0,0,0-3.817,2.089v-7.85H89.659v18Zm14.4-6a6.006,6.006,0,0,0,5.881,6.241,5.263,5.263,0,0,0,4.225-2.088v1.848h2.065v-12h-2.065v1.849a5.261,5.261,0,0,0-4.225-2.089A6.006,6.006,0,0,0,104.059,244.886Zm10.274,0a4.1,4.1,0,1,1-4.081-4.344A4.1,4.1,0,0,1,114.333,244.886Zm9.046,4.153a5.266,5.266,0,0,0,4.225,2.088,6.252,6.252,0,0,0,0-12.482,5.264,5.264,0,0,0-4.225,2.089v-7.85h-2.064v18h2.064v-1.848Zm7.994-4.153a4.089,4.089,0,1,1-4.081-4.344A4.1,4.1,0,0,1,131.373,244.886Zm6.262,6H139.7v-18h-2.064v18Zm6.239-6a6.328,6.328,0,0,0,11.619,3.385l-1.633-1.128a4.249,4.249,0,0,1-7.9-1.849h9.842a5.856,5.856,0,0,0,.024-0.624c-0.024-3.84-2.569-6.025-5.713-6.025A6.083,6.083,0,0,0,143.874,244.886Zm6.17-4.417a3.591,3.591,0,0,1,3.672,3.145h-7.609A3.924,3.924,0,0,1,150.044,240.469Zm26.712,10.418h1.825l4.081-12h-2.185l-2.9,8.762-3-8.762h-1.584l-3,8.762-2.905-8.762h-2.16l4.081,12h1.824l2.977-8.641Zm20.88-6a6.277,6.277,0,1,0-6.265,6.241A6.159,6.159,0,0,0,197.636,244.886Zm-10.442,0a4.168,4.168,0,1,1,4.177,4.321A4.125,4.125,0,0,1,187.194,244.886Zm26.186,0a6.278,6.278,0,1,0-6.265,6.241A6.159,6.159,0,0,0,213.38,244.886Zm-10.442,0a4.168,4.168,0,1,1,4.177,4.321A4.125,4.125,0,0,1,202.938,244.886Zm14.591,6h2.065v-18h-2.065v18Zm6.792-5.689h6.121v-2.064h-6.121V245.2Zm21.746,2.713-1.8-1.008a4.069,4.069,0,0,1-3.745,2.3,4.322,4.322,0,0,1,0-8.641,4.069,4.069,0,0,1,3.745,2.3l1.8-1.008a6.214,6.214,0,0,0-5.545-3.217,6.241,6.241,0,1,0,0,12.482A6.215,6.215,0,0,0,246.067,247.911Zm2.925-3.025a6.006,6.006,0,0,0,5.882,6.241,5.266,5.266,0,0,0,4.225-2.088v1.848h2.064v-12H259.1v1.849a5.264,5.264,0,0,0-4.225-2.089A6.007,6.007,0,0,0,248.992,244.886Zm10.275,0a4.1,4.1,0,1,1-4.081-4.344A4.1,4.1,0,0,1,259.267,244.886Zm14.759,2.665c0-1.8-1.128-2.953-3.169-3.625l-1.3-.432c-1.416-.456-1.848-0.912-1.848-1.68,0-.888.888-1.393,2.016-1.393a3.246,3.246,0,0,1,2.545,1.249l1.344-1.3a4.656,4.656,0,0,0-3.841-1.728c-2.376,0-4.057,1.32-4.057,3.265,0,1.68,1.032,2.856,2.977,3.48l1.176,0.384c1.56,0.5,2.137,1.081,2.137,1.921,0,1.032-.937,1.632-2.113,1.632a3.223,3.223,0,0,1-3.073-1.9l-1.68.912a4.768,4.768,0,0,0,4.7,2.784C272.274,251.127,274.026,249.9,274.026,247.551Zm4.15,3.336h2.065v-5.953c0-2.808,1.536-4.392,3.48-4.392,1.681,0,2.833,1.248,2.833,3.264v7.081h2.04v-7.393c0-2.976-1.848-4.849-4.537-4.849a4.242,4.242,0,0,0-3.816,2.089v-7.85h-2.065v18Zm15.336,0h2.064v-5.953c0-2.712,1.369-4.392,3.313-4.392,1.56,0,2.353,1.344,2.353,3.288v7.057h2.064v-5.953c0-2.712,1.344-4.392,3.289-4.392,1.56,0,2.376,1.344,2.376,3.288v7.057h2.065v-7.369c0-2.928-1.585-4.873-4.2-4.873a4.153,4.153,0,0,0-3.937,2.569,3.773,3.773,0,0,0-3.7-2.569,4.034,4.034,0,0,0-3.625,2.089v-1.849h-2.064v12Zm21.5-6a6.328,6.328,0,0,0,11.618,3.385L325,247.143a4.25,4.25,0,0,1-7.9-1.849h9.842a5.856,5.856,0,0,0,.024-0.624c-0.024-3.84-2.568-6.025-5.713-6.025A6.082,6.082,0,0,0,315.016,244.886Zm6.169-4.417a3.592,3.592,0,0,1,3.673,3.145h-7.61A3.924,3.924,0,0,1,321.185,240.469Zm9.911,10.418h2.064v-5.953c0-2.808,1.656-4.128,3.169-4.128a3.017,3.017,0,0,1,1.128.192v-2.137a4.276,4.276,0,0,0-.936-0.1,3.57,3.57,0,0,0-3.361,2.449v-2.329H331.1v12Zm8.616-6a6.328,6.328,0,0,0,11.618,3.385l-1.632-1.128a4.25,4.25,0,0,1-7.9-1.849h9.842a5.856,5.856,0,0,0,.024-0.624c-0.024-3.84-2.568-6.025-5.713-6.025A6.082,6.082,0,0,0,339.712,244.886Zm6.169-4.417a3.592,3.592,0,0,1,3.673,3.145h-7.61A3.924,3.924,0,0,1,345.881,240.469Zm12.767,8.81a1.777,1.777,0,1,0-1.776,1.8A1.808,1.808,0,0,0,358.648,249.279Z"/>
  <rect id="Rectangle_4_copy_4" data-name="Rectangle 4 copy 4" x="38.594" y="318.781" width="122.406" height="3.657"/>
  <path id="Shop_now" data-name="Shop now" class="cls-2" d="M43.817,311.853c2.706,0,4.564-1.653,4.582-4.023,0.018-1.965-1.19-3.214-3.048-3.894l-0.9-.33c-1.353-.5-1.984-0.808-1.984-1.506,0-.68.776-0.992,1.551-0.992a2.831,2.831,0,0,1,2.219,1.083l1.876-2.02a5.3,5.3,0,0,0-4.131-1.8c-2.561,0-4.419,1.488-4.419,4.022,0,1.782,1.154,3.049,3.229,3.766l0.9,0.312c1.281,0.441,1.786.9,1.786,1.561,0,0.625-.6,1.084-1.551,1.084a3.335,3.335,0,0,1-2.652-1.488l-2.2,1.892A5.583,5.583,0,0,0,43.817,311.853Zm9.726-.221H56.41v-5.161h5.159v5.161h2.868V298.591H61.569V303.7H56.41v-5.107H53.542v13.041Zm22.66,0.221a6.742,6.742,0,1,0-6.62-6.741A6.7,6.7,0,0,0,76.2,311.853Zm0-2.829a3.917,3.917,0,1,1,3.716-3.912A3.837,3.837,0,0,1,76.2,309.024Zm20.622-5.969a4.4,4.4,0,0,0-4.51-4.464H87.967v13.041h2.868V307.5h1.479A4.385,4.385,0,0,0,96.824,303.055Zm-2.778,0a1.7,1.7,0,0,1-1.768,1.708H90.835v-3.416h1.443A1.688,1.688,0,0,1,94.046,303.055Zm25.979,8.577V298.591h-2.886v8.045l-6.223-8.045h-2.472v13.041h2.869v-8.063l6.241,8.063h2.471Zm11.765,0.221a6.742,6.742,0,1,0-6.62-6.741A6.7,6.7,0,0,0,131.79,311.853Zm0-2.829a3.917,3.917,0,1,1,3.716-3.912A3.837,3.837,0,0,1,131.79,309.024Zm21.686,2.608H156.2l2.976-13.041h-3.067l-1.749,8.266-3.608-8.486-3.589,8.486-1.75-8.266h-3.067l2.959,13.041h2.723l2.724-6.392Z"/>
</svg>
