<svg id="Copy_copy_6" data-name="Copy copy 6" xmlns="http://www.w3.org/2000/svg" width="768" height="229"><defs><style>.cls-2{fill-rule:evenodd}</style></defs><path id="Rectangle_109_copy_5" data-name="Rectangle 109 copy 5" fill="#fff" d="M0 0h768v229H0z"/><path id="ITALIAN_LEATHER_BAG" data-name="ITALIAN LEATHER BAG" class="cls-2" d="M43.684 67.444h6.105V40.183h-6.105v27.261zm18.7 0h6.143V46.019h7.027v-5.836h-20.12v5.836h6.95v21.425zm13.133 0h6.374l2.419-5.76H95.6l2.419 5.76h6.374L92.719 40.183H87.19zm11.02-11.058l3.417-8.217 3.417 8.217h-6.834zm22.618 11.058h17.394v-5.836H115.26V40.183h-6.105v27.261zm23.117 0h6.105V40.183h-6.105v27.261zm10.867 0h6.374l2.419-5.76h11.288l2.419 5.76h6.374l-11.672-27.261h-5.53zm11.02-11.058l3.417-8.217 3.417 8.217h-6.834zm47.269 11.058V40.183h-6.144V57l-13.247-16.817h-5.26v27.261h6.105V50.588l13.285 16.856h5.261zm18.049 0h17.394v-5.836h-11.289V40.183h-6.1v27.261zm23.116 0h17.279v-5.836H248.7v-4.877h8.87V50.9h-8.87v-4.881h11.174v-5.836h-17.281v27.261zm20.928 0h6.379l2.419-5.76H283.6l2.419 5.76h6.381l-11.677-27.261h-5.529zm11.02-11.058l3.418-8.217 3.417 8.217h-6.835zm24.807 11.058h6.144V46.019h7.026v-5.836H292.4v5.836h6.95v21.425zm18.816 0h6.105V56.655h10.982v10.789h6.105V40.183h-6.105v10.674h-10.982V40.183h-6.105v27.261zm30.874 0h17.278v-5.836h-11.173v-4.877h8.869V50.9h-8.869v-4.881h11.173v-5.836h-17.278v27.261zm23.846 0h6.1v-11.25h1l9.062 11.25h7.334l-9.638-12.018c3.456-1.229 5.337-3.494 5.337-7.026a8.049 8.049 0 0 0-8.447-8.217h-10.748v27.261zm6.1-16.434v-5.221h3.917c1.8 0 3.11.96 3.11 2.611 0 1.574-1.306 2.611-3.11 2.611h-3.917zm30.835 16.434H421.8a8.06 8.06 0 0 0 8.294-8.025 7.124 7.124 0 0 0-3.878-6.451 6.417 6.417 0 0 0 1.958-4.684 8.1 8.1 0 0 0-8.1-8.1h-10.25v27.26zm6.1-16.242V45.75h3.456a2.771 2.771 0 0 1 2.841 2.764 2.732 2.732 0 0 1-2.841 2.688h-3.456zm0 10.636v-5.452h5.338a2.773 2.773 0 0 1 2.879 2.726 2.739 2.739 0 0 1-2.841 2.726h-5.376zm16.513 5.606h6.374l2.419-5.76h11.289l2.419 5.76h6.374l-11.663-27.261h-5.529zm11.02-11.058l3.418-8.217 3.417 8.217h-6.835zM478.175 67.9c4.416 0 8.755-1.305 11.174-4.032V50.934H478.06v5.721h5.34v4.032c-1.151.922-3.148 1.306-5.3 1.306-5.338 0-8.6-3.532-8.6-8.178a8 8 0 0 1 8.217-8.178 9.054 9.054 0 0 1 6.873 2.918l4.3-4.185a14.5 14.5 0 0 0-11.173-4.646 13.925 13.925 0 0 0-14.361 14.091C463.354 61.8 469.69 67.9 478.175 67.9z"/><path id="Rectangle_4_copy_4" data-name="Rectangle 4 copy 4" d="M39.406 135.312h122.406V139H39.406z"/><path id="Shop_now" data-name="Shop now" class="cls-2" d="M44.617 128.409c2.706 0 4.564-1.653 4.582-4.022.018-1.966-1.19-3.215-3.048-3.894l-.9-.331c-1.353-.5-1.984-.808-1.984-1.506 0-.679.776-.992 1.551-.992a2.829 2.829 0 0 1 2.219 1.084l1.876-2.02a5.3 5.3 0 0 0-4.131-1.8c-2.561 0-4.419 1.487-4.419 4.022 0 1.782 1.154 3.049 3.229 3.765l.9.313c1.281.44 1.786.9 1.786 1.561 0 .624-.6 1.083-1.551 1.083a3.337 3.337 0 0 1-2.652-1.487l-2.2 1.892a5.582 5.582 0 0 0 4.742 2.332zm9.726-.22h2.867v-5.161h5.159v5.161h2.868v-13.041h-2.868v5.106H57.21v-5.106h-2.868v13.041zm22.657.22a6.742 6.742 0 1 0-6.62-6.741 6.7 6.7 0 0 0 6.62 6.741zm0-2.828a3.918 3.918 0 1 1 3.716-3.913A3.837 3.837 0 0 1 77 125.581zm20.622-5.97a4.4 4.4 0 0 0-4.51-4.463h-4.345v13.041h2.868v-4.133h1.479a4.384 4.384 0 0 0 4.51-4.445zm-2.778 0a1.7 1.7 0 0 1-1.768 1.708h-1.441V117.9h1.443a1.689 1.689 0 0 1 1.768 1.711zm25.979 8.578v-13.041h-2.886v8.045l-6.223-8.045h-2.472v13.041h2.869v-8.063l6.241 8.063h2.471zm11.765.22a6.742 6.742 0 1 0-6.62-6.741 6.7 6.7 0 0 0 6.622 6.741zm0-2.828a3.918 3.918 0 1 1 3.716-3.913 3.837 3.837 0 0 1-3.714 3.913zm21.686 2.608H157l2.976-13.041h-3.067l-1.749 8.265-3.608-8.485-3.589 8.485-1.75-8.265h-3.067l2.959 13.041h2.723l2.724-6.392z"/></svg>