<svg id="Copy_copy_7" data-name="Copy copy 7" xmlns="http://www.w3.org/2000/svg" width="768" height="430" viewBox="0 0 768 430">
  <metadata><?xpacket begin="﻿" id="W5M0MpCehiHzreSzNTczkc9d"?>
<x:xmpmeta xmlns:x="adobe:ns:meta/" x:xmptk="Adobe XMP Core 5.6-c138 79.159824, 2016/09/14-01:09:01        ">
   <rdf:RDF xmlns:rdf="http://www.w3.org/1999/02/22-rdf-syntax-ns#">
      <rdf:Description rdf:about=""/>
   </rdf:RDF>
</x:xmpmeta>
                                                                                                    
                                                                                                    
                                                                                                    
                                                                                                    
                                                                                                    
                                                                                                    
                                                                                                    
                                                                                                    
                                                                                                    
                                                                                                    
                                                                                                    
                                                                                                    
                                                                                                    
                                                                                                    
                                                                                                    
                                                                                                    
                                                                                                    
                                                                                                    
                                                                                                    
                                                                                                    
                           
<?xpacket end="w"?></metadata>
<defs>
    <style>
      .cls-1 {
        fill: #fff;
      }

      .cls-2 {
        fill-rule: evenodd;
      }
    </style>
  </defs>
  <rect id="Rectangle_109_copy_6" data-name="Rectangle 109 copy 6" class="cls-1" width="768" height="430"/>
  <path id="UTILITY_JUMPSUIT_Woven_b._1980_Our_first_flightsuit_appeared_" data-name="UTILITY JUMPSUIT Woven, b. 1980  Our first flightsuit appeared " class="cls-2" d="M54.188,67.684c6.527,0,11.212-4.454,11.212-11.25V39.962H59.3V56.511c0,3.264-2.073,5.26-5.107,5.26s-5.107-2-5.107-5.26V39.962H42.976V56.434C42.976,63.23,47.623,67.684,54.188,67.684Zm23.5-.461h6.144V45.8h7.027V39.962H70.739V45.8h6.95V67.223Zm18.816,0h6.1V39.962h-6.1V67.223Zm13.785,0h17.394V61.387H116.4V39.962H110.29V67.223Zm23.117,0h6.1V39.962h-6.1V67.223Zm18.7,0h6.143V45.8h7.027V39.962h-20.12V45.8h6.95V67.223Zm26.188,0h6.144V55.781l9.945-15.819h-7.1l-5.951,9.829-5.875-9.829h-7.1L178.3,55.743V67.223Zm36.365,0.461c4.684,0,8.908-2.342,8.908-7.91V39.962h-6.105V59.39a2.807,2.807,0,0,1-5.606-.154h-6.028C205.829,65.15,210.091,67.684,214.66,67.684Zm27.3,0c6.527,0,11.212-4.454,11.212-11.25V39.962h-6.106V56.511c0,3.264-2.073,5.26-5.106,5.26s-5.107-2-5.107-5.26V39.962h-6.1V56.434C230.75,63.23,235.4,67.684,241.962,67.684Zm32.677-6.259,7.948-11.02V67.223h6.144V39.962h-5.568l-8.524,11.749-8.524-11.749h-5.568V67.223h6.106V50.406Zm40.627-12.133a9.285,9.285,0,0,0-9.6-9.33h-9.253V67.223h6.1V58.584h3.148A9.254,9.254,0,0,0,315.266,49.292Zm-5.914,0a3.587,3.587,0,0,1-3.762,3.571h-3.072V45.721h3.072A3.565,3.565,0,0,1,309.352,49.292Zm19.892,18.392c5.759,0,9.714-3.456,9.752-8.409,0.039-4.108-2.534-6.719-6.489-8.14l-1.92-.691c-2.879-1.037-4.223-1.689-4.223-3.148,0-1.421,1.651-2.073,3.3-2.073a6.064,6.064,0,0,1,4.723,2.265l3.993-4.224a11.376,11.376,0,0,0-8.793-3.763c-5.452,0-9.407,3.11-9.407,8.409,0,3.724,2.457,6.374,6.873,7.871l1.92,0.653c2.726,0.922,3.8,1.881,3.8,3.264,0,1.305-1.267,2.265-3.3,2.265a7.13,7.13,0,0,1-5.644-3.11l-4.685,3.955A11.955,11.955,0,0,0,329.244,67.684Zm26.8,0c6.528,0,11.212-4.454,11.212-11.25V39.962h-6.1V56.511c0,3.264-2.074,5.26-5.107,5.26s-5.107-2-5.107-5.26V39.962h-6.105V56.434C344.834,63.23,349.48,67.684,356.046,67.684Zm18.586-.461h6.105V39.962h-6.105V67.223Zm18.7,0h6.144V45.8H406.5V39.962h-20.12V45.8h6.95V67.223Zm-335.845,33.6h2.192L64.8,82.076H62.24L58.306,96.7,52.893,81.759,47.506,96.7,43.572,82.076H41.011l5.122,18.746h2.192L52.919,88.1Zm23.337-6.6a6.9,6.9,0,1,0-6.891,6.865A6.775,6.775,0,0,0,80.824,94.221Zm-11.486,0a4.584,4.584,0,1,1,4.594,4.753A4.538,4.538,0,0,1,69.339,94.221Zm19.88,6.6h1.9l6.1-13.2H94.684L90.169,97.6l-4.515-9.98H83.119Zm10.3-6.6a6.96,6.96,0,0,0,12.78,3.723L110.5,96.7a4.674,4.674,0,0,1-8.686-2.033h10.825a6.3,6.3,0,0,0,.027-0.686c-0.027-4.225-2.826-6.627-6.285-6.627A6.69,6.69,0,0,0,99.514,94.221Zm6.786-4.858a3.95,3.95,0,0,1,4.04,3.459h-8.37A4.316,4.316,0,0,1,106.3,89.363Zm10.9,11.459h2.271V94.274c0-3.089,1.69-4.832,3.829-4.832,1.848,0,3.115,1.373,3.115,3.591v7.789h2.245V92.69c0-3.274-2.033-5.334-4.991-5.334a4.669,4.669,0,0,0-4.2,2.3V87.621H117.2v13.2Zm19.695-.581a2.257,2.257,0,0,0,.37-1.188,1.954,1.954,0,1,0-3.908,0,1.966,1.966,0,0,0,1.082,1.769l-1.769,3.776h1.5Zm15.285-1.452a5.788,5.788,0,0,0,4.647,2.3,6.877,6.877,0,0,0,0-13.729,5.789,5.789,0,0,0-4.647,2.3V81.02H149.91v19.8h2.271V98.789Zm8.793-4.568a4.5,4.5,0,1,1-4.489-4.779A4.508,4.508,0,0,1,160.974,94.221Zm9.766,4.832a1.954,1.954,0,1,0-1.954,1.98A1.989,1.989,0,0,0,170.74,99.053Zm14.229,1.769h2.271V82.076H183.2l-1.848,2.244h3.617v16.5Zm8.026,0h2.9l6.865-8.106a7.2,7.2,0,0,0,2.112-4.779,6.352,6.352,0,0,0-12.7.079,6.057,6.057,0,0,0,5.862,6.02,3.365,3.365,0,0,0,.739-0.053Zm1.5-12.832a4.027,4.027,0,1,1,4.013,4.04A3.984,3.984,0,0,1,194.5,87.99ZM220.928,95.2A5.239,5.239,0,0,0,218,90.287a4.39,4.39,0,0,0,1.9-3.7c0-2.8-2.165-4.832-5.255-4.832-3.01,0-5.28,2.033-5.28,4.832a4.37,4.37,0,0,0,1.954,3.7,5.238,5.238,0,0,0-2.984,4.911c0,3.406,2.64,5.888,6.31,5.888C218.366,101.086,220.928,98.6,220.928,95.2Zm-9.321-8.555a2.791,2.791,0,0,1,3.036-2.746,2.739,2.739,0,0,1,3.01,2.746,2.8,2.8,0,0,1-3.01,2.772A2.857,2.857,0,0,1,211.607,86.644ZM210.63,95.2a3.722,3.722,0,0,1,4.013-3.749,3.744,3.744,0,1,1,0,7.472A3.731,3.731,0,0,1,210.63,95.2Zm27.722-1.162V88.809c0-4.145-2.8-7.05-6.654-7.05s-6.627,2.9-6.627,7.05v5.228c0,4.172,2.772,7.049,6.627,7.049S238.352,98.208,238.352,94.037Zm-11.011,0V88.809c0-3.036,1.822-4.832,4.357-4.832,2.561,0,4.383,1.8,4.383,4.832v5.228c0,3.036-1.822,4.832-4.383,4.832C229.163,98.868,227.341,97.073,227.341,94.037ZM59.1,145.1a8.81,8.81,0,1,0-8.81,8.81A8.724,8.724,0,0,0,59.1,145.1Zm-15.363,0a6.567,6.567,0,1,1,6.553,6.7A6.534,6.534,0,0,1,43.741,145.1Zm19.416,3.889c0,2.977,1.776,4.873,4.417,4.873a4.13,4.13,0,0,0,3.7-2.088v1.848h2.065v-12H71.27v5.953c0,2.76-1.464,4.393-3.337,4.393-1.656,0-2.713-1.273-2.713-3.289v-7.057H63.156v7.369Zm15.264,4.633h2.065v-5.953c0-2.809,1.656-4.129,3.169-4.129a3.018,3.018,0,0,1,1.128.192V141.6a4.279,4.279,0,0,0-.936-0.1,3.571,3.571,0,0,0-3.361,2.448v-2.328H78.42v12Zm17.136,0h2.064V143.515H101.1v-1.9H97.621V139.41c0-1.512.672-2.04,1.993-2.04a4.834,4.834,0,0,1,1.489.24v-1.824a5.433,5.433,0,0,0-1.873-.313,3.428,3.428,0,0,0-3.673,3.721v2.425H93.012v1.9h2.545v10.106Zm10.3-16.683a1.45,1.45,0,0,0-1.441-1.465,1.492,1.492,0,0,0-1.488,1.465,1.475,1.475,0,0,0,1.488,1.464A1.435,1.435,0,0,0,105.855,136.938Zm-2.5,16.683h2.065v-12h-2.065v12Zm7.15,0h2.065v-5.953c0-2.809,1.656-4.129,3.168-4.129a3.017,3.017,0,0,1,1.128.192V141.6a4.276,4.276,0,0,0-.936-0.1,3.57,3.57,0,0,0-3.36,2.448v-2.328h-2.065v12Zm17.546-3.337c0-1.8-1.128-2.952-3.169-3.624l-1.3-.433c-1.416-.456-1.848-0.912-1.848-1.68,0-.888.888-1.392,2.016-1.392A3.244,3.244,0,0,1,126.3,144.4l1.344-1.3a4.656,4.656,0,0,0-3.841-1.728c-2.376,0-4.057,1.32-4.057,3.264,0,1.68,1.032,2.857,2.977,3.481l1.176,0.384c1.56,0.5,2.137,1.08,2.137,1.92,0,1.032-.937,1.633-2.113,1.633a3.224,3.224,0,0,1-3.073-1.9l-1.68.912a4.767,4.767,0,0,0,4.7,2.785C126.3,153.861,128.054,152.637,128.054,150.284Zm10.512,3.169V151.6a4.568,4.568,0,0,1-1.465.241c-1.3,0-1.992-.5-1.992-2.041v-6.289h3.457v-1.9h-3.457v-3.337h-2.065v3.337H130.5v1.9h2.544v6.553a3.379,3.379,0,0,0,3.673,3.673A5.749,5.749,0,0,0,138.566,153.453Zm11.59,0.168h2.065V143.515H155.7v-1.9h-3.481V139.41c0-1.512.672-2.04,1.992-2.04a4.839,4.839,0,0,1,1.489.24v-1.824a5.435,5.435,0,0,0-1.873-.313,3.429,3.429,0,0,0-3.673,3.721v2.425h-2.544v1.9h2.544v10.106Zm7.8,0h2.065v-18h-2.065v18Zm9.647-16.683a1.451,1.451,0,0,0-1.441-1.465,1.492,1.492,0,0,0-1.488,1.465,1.475,1.475,0,0,0,1.488,1.464A1.435,1.435,0,0,0,167.605,136.938Zm-2.5,16.683h2.064v-12h-2.064v12Zm18.362-.7V141.619h-2.064v1.848a5.108,5.108,0,0,0-4.177-2.088,6.114,6.114,0,0,0,0,12.218,5.124,5.124,0,0,0,4.177-2.113v1.369a3.837,3.837,0,0,1-4.009,4.152,5.136,5.136,0,0,1-4.2-2.016l-1.44,1.44a7.122,7.122,0,0,0,5.665,2.449C180.83,158.878,183.47,156.933,183.47,152.925Zm-10.01-5.449a4.059,4.059,0,1,1,4.057,4.2A4,4,0,0,1,173.46,147.476Zm15.1,6.145h2.064v-5.953c0-2.809,1.536-4.393,3.481-4.393,1.68,0,2.832,1.248,2.832,3.265v7.081h2.041v-7.394c0-2.976-1.849-4.848-4.537-4.848a4.245,4.245,0,0,0-3.817,2.088v-7.85h-2.064v18Zm21.7-.168V151.6a4.563,4.563,0,0,1-1.465.241c-1.3,0-1.992-.5-1.992-2.041v-6.289h3.457v-1.9H206.8v-3.337h-2.064v3.337h-2.545v1.9h2.545v6.553a3.378,3.378,0,0,0,3.672,3.673A5.744,5.744,0,0,0,210.253,153.453Zm11.616-3.169c0-1.8-1.128-2.952-3.169-3.624l-1.3-.433c-1.416-.456-1.848-0.912-1.848-1.68,0-.888.888-1.392,2.016-1.392a3.246,3.246,0,0,1,2.545,1.248l1.344-1.3a4.656,4.656,0,0,0-3.841-1.728c-2.376,0-4.057,1.32-4.057,3.264,0,1.68,1.032,2.857,2.977,3.481l1.176,0.384c1.56,0.5,2.137,1.08,2.137,1.92,0,1.032-.937,1.633-2.113,1.633a3.224,3.224,0,0,1-3.073-1.9l-1.68.912a4.767,4.767,0,0,0,4.705,2.785C220.117,153.861,221.869,152.637,221.869,150.284Zm3.982-1.3c0,2.977,1.776,4.873,4.417,4.873a4.13,4.13,0,0,0,3.7-2.088v1.848h2.064v-12h-2.064v5.953c0,2.76-1.464,4.393-3.337,4.393-1.656,0-2.712-1.273-2.712-3.289v-7.057h-2.065v7.369Zm17.761-12.05a1.451,1.451,0,0,0-1.441-1.465,1.492,1.492,0,0,0-1.488,1.465,1.475,1.475,0,0,0,1.488,1.464A1.435,1.435,0,0,0,243.612,136.938Zm-2.5,16.683h2.064v-12h-2.064v12Zm13.681-.168V151.6a4.561,4.561,0,0,1-1.464.241c-1.3,0-1.993-.5-1.993-2.041v-6.289H254.8v-1.9h-3.457v-3.337h-2.064v3.337H246.73v1.9h2.545v6.553a3.378,3.378,0,0,0,3.673,3.673A5.743,5.743,0,0,0,254.8,153.453Zm9.958-5.833a6.007,6.007,0,0,0,5.882,6.241,5.262,5.262,0,0,0,4.224-2.088v1.848h2.065v-12H274.86v1.848a5.262,5.262,0,0,0-4.224-2.088A6.006,6.006,0,0,0,264.754,147.62Zm10.274,0a4.1,4.1,0,1,1-4.08-4.345A4.1,4.1,0,0,1,275.028,147.62Zm6.982,11.018h2.065v-6.865a5.263,5.263,0,0,0,4.225,2.088,6.252,6.252,0,0,0,0-12.482,5.263,5.263,0,0,0-4.225,2.088v-1.848H282.01v17.019Zm10.058-11.018a4.089,4.089,0,1,1-4.081-4.345A4.1,4.1,0,0,1,292.068,147.62Zm6.286,11.018h2.065v-6.865a5.262,5.262,0,0,0,4.224,2.088,6.252,6.252,0,0,0,0-12.482,5.262,5.262,0,0,0-4.224,2.088v-1.848h-2.065v17.019Zm10.058-11.018a4.089,4.089,0,1,1-4.081-4.345A4.1,4.1,0,0,1,308.412,147.62Zm5.35,0A6.327,6.327,0,0,0,325.38,151l-1.632-1.128a4.25,4.25,0,0,1-7.9-1.848h9.842a5.856,5.856,0,0,0,.024-0.624c-0.024-3.841-2.568-6.025-5.713-6.025A6.081,6.081,0,0,0,313.762,147.62Zm6.169-4.417a3.591,3.591,0,0,1,3.673,3.144h-7.61A3.924,3.924,0,0,1,319.931,143.2Zm8.975,4.417a6.006,6.006,0,0,0,5.881,6.241,5.264,5.264,0,0,0,4.225-2.088v1.848h2.064v-12h-2.064v1.848a5.264,5.264,0,0,0-4.225-2.088A6.005,6.005,0,0,0,328.906,147.62Zm10.274,0a4.1,4.1,0,1,1-4.081-4.345A4.1,4.1,0,0,1,339.18,147.62Zm6.982,6h2.064v-5.953c0-2.809,1.656-4.129,3.169-4.129a3.017,3.017,0,0,1,1.128.192V141.6a4.276,4.276,0,0,0-.936-0.1,3.571,3.571,0,0,0-3.361,2.448v-2.328h-2.064v12Zm8.616-6A6.327,6.327,0,0,0,366.4,151l-1.632-1.128a4.25,4.25,0,0,1-7.9-1.848h9.842a5.856,5.856,0,0,0,.024-0.624c-0.024-3.841-2.568-6.025-5.713-6.025A6.081,6.081,0,0,0,354.778,147.62Zm6.169-4.417a3.591,3.591,0,0,1,3.673,3.144h-7.61A3.924,3.924,0,0,1,360.947,143.2Zm8.974,4.417a6.007,6.007,0,0,0,5.882,6.241,5.266,5.266,0,0,0,4.225-2.088v1.848h2.064v-18h-2.064v7.85a5.266,5.266,0,0,0-4.225-2.088A6.006,6.006,0,0,0,369.921,147.62Zm10.275,0a4.1,4.1,0,1,1-4.081-4.345A4.1,4.1,0,0,1,380.2,147.62Zm16.534-10.682a1.45,1.45,0,0,0-1.441-1.465,1.492,1.492,0,0,0-1.488,1.465,1.475,1.475,0,0,0,1.488,1.464A1.435,1.435,0,0,0,396.73,136.938Zm-2.5,16.683H396.3v-12h-2.065v12Zm7.176,0h2.064v-5.953c0-2.809,1.537-4.393,3.481-4.393,1.681,0,2.833,1.248,2.833,3.265v7.081h2.04v-7.394c0-2.976-1.848-4.848-4.537-4.848a4.246,4.246,0,0,0-3.817,2.088v-1.848h-2.064v12Zm21.455-6a6.006,6.006,0,0,0,5.881,6.241,5.263,5.263,0,0,0,4.225-2.088v1.848h2.065v-12H432.97v1.848a5.263,5.263,0,0,0-4.225-2.088A6.006,6.006,0,0,0,422.864,147.62Zm10.274,0a4.1,4.1,0,1,1-4.08-4.345A4.1,4.1,0,0,1,433.138,147.62Zm15.526,6h2.065V136.578h-3.673l-1.68,2.04h3.288v15Zm7.3,0h2.64l6.242-7.37a6.546,6.546,0,0,0,1.92-4.344,5.774,5.774,0,0,0-11.546.072,5.506,5.506,0,0,0,5.329,5.473,3.059,3.059,0,0,0,.672-0.048Zm1.368-11.666a3.661,3.661,0,1,1,3.649,3.672A3.622,3.622,0,0,1,457.328,141.955Zm24.026,6.553a4.763,4.763,0,0,0-2.664-4.465,3.99,3.99,0,0,0,1.728-3.361c0-2.544-1.969-4.392-4.777-4.392a4.484,4.484,0,0,0-4.8,4.392,3.974,3.974,0,0,0,1.776,3.361,4.763,4.763,0,0,0-2.712,4.465c0,3.1,2.4,5.353,5.737,5.353C479.026,153.861,481.354,151.6,481.354,148.508Zm-8.474-7.778a2.537,2.537,0,0,1,2.761-2.5,2.489,2.489,0,0,1,2.736,2.5,2.547,2.547,0,0,1-2.736,2.521A2.6,2.6,0,0,1,472.88,140.73Zm-0.888,7.778a3.384,3.384,0,0,1,3.649-3.409,3.4,3.4,0,1,1,0,6.794A3.393,3.393,0,0,1,471.992,148.508Zm25.2-1.056V142.7c0-3.769-2.544-6.409-6.049-6.409s-6.025,2.64-6.025,6.409v4.753c0,3.792,2.52,6.409,6.025,6.409S497.194,151.244,497.194,147.452Zm-10.01,0V142.7c0-2.761,1.656-4.393,3.961-4.393,2.328,0,3.985,1.632,3.985,4.393v4.753c0,2.76-1.657,4.393-3.985,4.393C488.84,151.845,487.184,150.212,487.184,147.452Zm21.959,6.169h6.1c3.456,0,5.713-2.137,5.713-4.969A4.061,4.061,0,0,0,518,144.571a3.863,3.863,0,0,0,1.824-3.481c0-2.4-1.92-4.512-5.089-4.512h-5.593v17.043Zm2.233-9.722v-5.305h3.36a2.679,2.679,0,0,1,2.9,2.665,2.623,2.623,0,0,1-2.9,2.64h-3.36Zm0,7.705v-5.785h3.985c2.256,0,3.408,1.249,3.408,2.905,0,1.68-1.152,2.88-3.432,2.88h-3.961Zm12.815-3.984a6.006,6.006,0,0,0,5.881,6.241,5.263,5.263,0,0,0,4.225-2.088v1.848h2.065v-12H534.3v1.848a5.263,5.263,0,0,0-4.225-2.088A6.005,6.005,0,0,0,524.191,147.62Zm10.274,0a4.1,4.1,0,1,1-4.081-4.345A4.1,4.1,0,0,1,534.465,147.62Zm6.982,6h2.064v-5.953c0-2.809,1.537-4.393,3.481-4.393,1.68,0,2.833,1.248,2.833,3.265v7.081h2.04v-7.394c0-2.976-1.848-4.848-4.537-4.848a4.245,4.245,0,0,0-3.817,2.088v-1.848h-2.064v12Zm14.4-6a6.007,6.007,0,0,0,5.882,6.241,5.266,5.266,0,0,0,4.225-2.088v1.848h2.064v-12h-2.064v1.848a5.266,5.266,0,0,0-4.225-2.088A6.006,6.006,0,0,0,555.846,147.62Zm10.275,0a4.1,4.1,0,1,1-4.081-4.345A4.1,4.1,0,0,1,566.121,147.62Zm6.981,6h2.065v-5.953c0-2.809,1.536-4.393,3.481-4.393,1.68,0,2.832,1.248,2.832,3.265v7.081h2.041v-7.394c0-2.976-1.849-4.848-4.537-4.848a4.244,4.244,0,0,0-3.817,2.088v-1.848H573.1v12Zm14.4-6a6.006,6.006,0,0,0,5.881,6.241,5.263,5.263,0,0,0,4.225-2.088v1.848h2.065v-12h-2.065v1.848a5.263,5.263,0,0,0-4.225-2.088A6.005,6.005,0,0,0,587.5,147.62Zm10.274,0a4.1,4.1,0,1,1-4.081-4.345A4.1,4.1,0,0,1,597.776,147.62Zm14.35,6h2.232v-7.754h1.656l6.554,7.754h2.808l-6.553-7.778c2.617-.384,4.2-2.064,4.2-4.56,0-2.809-1.944-4.7-5.089-4.7h-5.809v17.043Zm2.232-9.746v-5.233h3.313c1.944,0,3.12.912,3.12,2.641,0,1.7-1.176,2.592-3.12,2.592h-3.313Zm12.6,3.745A6.328,6.328,0,0,0,638.576,151l-1.633-1.128a4.249,4.249,0,0,1-7.9-1.848h9.842a5.856,5.856,0,0,0,.024-0.624c-0.024-3.841-2.569-6.025-5.713-6.025A6.082,6.082,0,0,0,626.957,147.62Zm6.17-4.417a3.59,3.59,0,0,1,3.672,3.144H629.19A3.923,3.923,0,0,1,633.127,143.2Zm9.91,15.435H645.1v-6.865a5.263,5.263,0,0,0,4.225,2.088,6.252,6.252,0,0,0,0-12.482,5.263,5.263,0,0,0-4.225,2.088v-1.848h-2.065v17.019ZM653.1,147.62a4.089,4.089,0,1,1-4.08-4.345A4.1,4.1,0,0,1,653.1,147.62Zm6.118,1.368c0,2.977,1.777,4.873,4.417,4.873a4.13,4.13,0,0,0,3.7-2.088v1.848h2.064v-12h-2.064v5.953c0,2.76-1.464,4.393-3.337,4.393-1.656,0-2.712-1.273-2.712-3.289v-7.057h-2.065v7.369Zm17.329,2.785a5.262,5.262,0,0,0,4.224,2.088,6.252,6.252,0,0,0,0-12.482,5.262,5.262,0,0,0-4.224,2.088v-7.85h-2.065v18h2.065v-1.848Zm7.993-4.153a4.089,4.089,0,1,1-4.081-4.345A4.1,4.1,0,0,1,684.535,147.62Zm6.262,6h2.064v-18H690.8v18Zm9.672-16.683a1.45,1.45,0,0,0-1.44-1.465,1.492,1.492,0,0,0-1.488,1.465,1.475,1.475,0,0,0,1.488,1.464A1.434,1.434,0,0,0,700.469,136.938Zm-2.5,16.683h2.064v-12h-2.064v12Zm18.074-2.977-1.8-1.008a4.069,4.069,0,0,1-3.744,2.305,4.323,4.323,0,0,1,0-8.642,4.068,4.068,0,0,1,3.744,2.3l1.8-1.008a6.216,6.216,0,0,0-5.545-3.216,6.241,6.241,0,1,0,0,12.482A6.215,6.215,0,0,0,716.047,150.644Zm-662.8,28.8-1.8-1.009A4.068,4.068,0,0,1,47.7,180.74a4.323,4.323,0,0,1,0-8.642,4.068,4.068,0,0,1,3.745,2.3l1.8-1.009a6.216,6.216,0,0,0-5.545-3.216,6.241,6.241,0,1,0,0,12.482A6.216,6.216,0,0,0,53.247,179.444Zm2.925-3.025a6.006,6.006,0,0,0,5.881,6.241,5.264,5.264,0,0,0,4.225-2.088v1.848h2.064v-12H66.278v1.848a5.264,5.264,0,0,0-4.225-2.088A6.006,6.006,0,0,0,56.172,176.419Zm10.274,0a4.1,4.1,0,1,1-4.081-4.345A4.1,4.1,0,0,1,66.446,176.419Zm13.487,5.833V180.4a4.564,4.564,0,0,1-1.464.24c-1.3,0-1.992-.5-1.992-2.041v-6.289h3.457v-1.9H76.476v-3.337H74.412v3.337H71.867v1.9h2.545v6.553a3.379,3.379,0,0,0,3.673,3.673A5.745,5.745,0,0,0,79.933,182.252Zm2.735-5.833a6.006,6.006,0,0,0,5.881,6.241,5.264,5.264,0,0,0,4.225-2.088v1.848h2.065v-12H92.774v1.848a5.264,5.264,0,0,0-4.225-2.088A6.006,6.006,0,0,0,82.668,176.419Zm10.274,0a4.1,4.1,0,1,1-4.081-4.345A4.1,4.1,0,0,1,92.942,176.419Zm6.982,6h2.064v-18H99.924v18Zm18.77-6a6.278,6.278,0,1,0-6.265,6.241A6.159,6.159,0,0,0,118.694,176.419Zm-10.442,0a4.167,4.167,0,1,1,4.177,4.321A4.126,4.126,0,0,1,108.252,176.419Zm25.778,5.3V170.418h-2.065v1.848a5.106,5.106,0,0,0-4.177-2.088,6.114,6.114,0,0,0,0,12.218,5.125,5.125,0,0,0,4.177-2.112v1.368a3.837,3.837,0,0,1-4.009,4.153,5.135,5.135,0,0,1-4.2-2.017l-1.44,1.441a7.126,7.126,0,0,0,5.665,2.448C131.389,187.677,134.03,185.733,134.03,181.724Zm-10.011-5.449a4.059,4.059,0,1,1,4.057,4.2A4,4,0,0,1,124.019,176.275Zm17.953,4.537a1.777,1.777,0,1,0-1.777,1.8A1.81,1.81,0,0,0,141.972,180.812Zm11.759,1.608h4.9c5.233,0,9.074-3.649,9.074-8.521s-3.841-8.522-9.074-8.522h-4.9V182.42Zm2.232-2.088V167.465h2.665c4.105,0,6.817,2.737,6.817,6.434s-2.712,6.433-6.817,6.433h-2.665Zm15.768-2.545c0,2.977,1.776,4.873,4.417,4.873a4.129,4.129,0,0,0,3.7-2.088v1.848h2.065v-12h-2.065v5.953c0,2.76-1.464,4.393-3.336,4.393-1.657,0-2.713-1.272-2.713-3.289v-7.057h-2.064v7.369Zm17.328,2.785a5.263,5.263,0,0,0,4.225,2.088,6.252,6.252,0,0,0,0-12.482,5.263,5.263,0,0,0-4.225,2.088v-7.849H187v18h2.064v-1.848Zm7.994-4.153a4.089,4.089,0,1,1-4.081-4.345A4.1,4.1,0,0,1,197.053,176.419Zm8.326,4.153a5.263,5.263,0,0,0,4.225,2.088,6.252,6.252,0,0,0,0-12.482,5.263,5.263,0,0,0-4.225,2.088v-7.849h-2.065v18h2.065v-1.848Zm7.993-4.153a4.089,4.089,0,1,1-4.08-4.345A4.1,4.1,0,0,1,213.372,176.419Zm5.326,0a6.328,6.328,0,0,0,11.618,3.385l-1.632-1.129a4.25,4.25,0,0,1-7.9-1.848h9.842a5.856,5.856,0,0,0,.024-0.624c-0.024-3.841-2.568-6.025-5.713-6.025A6.081,6.081,0,0,0,218.7,176.419ZM224.867,172a3.591,3.591,0,0,1,3.673,3.145h-7.61A3.924,3.924,0,0,1,224.867,172Zm8.975,4.417a6.005,6.005,0,0,0,5.881,6.241,5.264,5.264,0,0,0,4.225-2.088v1.848h2.064v-18h-2.064v7.849a5.264,5.264,0,0,0-4.225-2.088A6.005,6.005,0,0,0,233.842,176.419Zm10.274,0a4.1,4.1,0,1,1-4.081-4.345A4.1,4.1,0,0,1,244.116,176.419Zm20.135,5.833V180.4a4.564,4.564,0,0,1-1.465.24c-1.3,0-1.992-.5-1.992-2.041v-6.289h3.457v-1.9h-3.457v-3.337H258.73v3.337h-2.545v1.9h2.545v6.553a3.378,3.378,0,0,0,3.672,3.673A5.744,5.744,0,0,0,264.251,182.252Zm3.838,0.168h2.065v-5.953c0-2.809,1.536-4.393,3.48-4.393,1.681,0,2.833,1.248,2.833,3.265v7.081h2.041v-7.393c0-2.977-1.849-4.849-4.537-4.849a4.244,4.244,0,0,0-3.817,2.088v-7.849h-2.065v18Zm14.4-6a6.328,6.328,0,0,0,11.618,3.385l-1.632-1.129a4.25,4.25,0,0,1-7.9-1.848h9.842a5.856,5.856,0,0,0,.024-0.624c-0.024-3.841-2.568-6.025-5.713-6.025A6.081,6.081,0,0,0,282.489,176.419ZM288.658,172a3.591,3.591,0,0,1,3.673,3.145h-7.61A3.924,3.924,0,0,1,288.658,172Zm17.279,10.418h2.232v-7.657h6.073V172.65h-6.073v-5.161h7.682v-2.112h-9.914V182.42Zm13.583,0h2.065v-18H319.52v18Zm9.673-16.683a1.45,1.45,0,0,0-1.441-1.464,1.491,1.491,0,0,0-1.488,1.464,1.475,1.475,0,0,0,1.488,1.464A1.435,1.435,0,0,0,329.193,165.737Zm-2.5,16.683h2.065v-12H326.7v12Zm18.362-.7V170.418h-2.064v1.848a5.108,5.108,0,0,0-4.177-2.088,6.114,6.114,0,0,0,0,12.218,5.126,5.126,0,0,0,4.177-2.112v1.368a3.837,3.837,0,0,1-4.009,4.153,5.134,5.134,0,0,1-4.2-2.017l-1.44,1.441a7.126,7.126,0,0,0,5.665,2.448C342.418,187.677,345.058,185.733,345.058,181.724Zm-10.01-5.449a4.059,4.059,0,1,1,4.057,4.2A4,4,0,0,1,335.048,176.275Zm15.1,6.145h2.064v-5.953c0-2.809,1.537-4.393,3.481-4.393,1.68,0,2.833,1.248,2.833,3.265v7.081h2.04v-7.393c0-2.977-1.848-4.849-4.537-4.849a4.245,4.245,0,0,0-3.817,2.088v-7.849h-2.064v18Zm21.7-.168V180.4a4.562,4.562,0,0,1-1.464.24c-1.3,0-1.993-.5-1.993-2.041v-6.289h3.457v-1.9h-3.457v-3.337H366.32v3.337h-2.545v1.9h2.545v6.553a3.378,3.378,0,0,0,3.673,3.673A5.743,5.743,0,0,0,371.841,182.252Zm18.792-4.537V165.377h-2.208v12.1c0,2.329-1.32,3.169-2.809,3.169a2.667,2.667,0,0,1-2.832-2.785h-2.209c0,3.145,2.281,4.849,5.065,4.849C388.257,182.708,390.633,181.292,390.633,177.715Zm4.871,0.072c0,2.977,1.776,4.873,4.417,4.873a4.129,4.129,0,0,0,3.7-2.088v1.848h2.065v-12h-2.065v5.953c0,2.76-1.464,4.393-3.336,4.393-1.657,0-2.713-1.272-2.713-3.289v-7.057H395.5v7.369Zm15.264,4.633h2.064v-5.953c0-2.713,1.368-4.393,3.313-4.393,1.56,0,2.352,1.344,2.352,3.289v7.057h2.065v-5.953c0-2.713,1.344-4.393,3.288-4.393,1.561,0,2.377,1.344,2.377,3.289v7.057h2.064v-7.369c0-2.929-1.584-4.873-4.2-4.873a4.155,4.155,0,0,0-3.937,2.568,3.772,3.772,0,0,0-3.7-2.568,4.034,4.034,0,0,0-3.625,2.088v-1.848h-2.064v12Zm22.439,5.017h2.065v-6.865a5.263,5.263,0,0,0,4.225,2.088,6.252,6.252,0,0,0,0-12.482,5.263,5.263,0,0,0-4.225,2.088v-1.848h-2.065v17.019Zm10.059-11.018a4.089,4.089,0,1,1-4.081-4.345A4.1,4.1,0,0,1,443.266,176.419Zm14.039,2.664c0-1.8-1.128-2.952-3.169-3.624l-1.3-.432c-1.416-.456-1.848-0.912-1.848-1.681,0-.888.888-1.392,2.016-1.392a3.244,3.244,0,0,1,2.545,1.248l1.344-1.3a4.654,4.654,0,0,0-3.841-1.728c-2.376,0-4.057,1.32-4.057,3.264,0,1.681,1.033,2.857,2.977,3.481l1.176,0.384c1.561,0.5,2.137,1.08,2.137,1.921,0,1.032-.936,1.632-2.113,1.632a3.22,3.22,0,0,1-3.072-1.9l-1.681.913a4.768,4.768,0,0,0,4.7,2.784C455.553,182.66,457.305,181.436,457.305,179.083Zm3.982-1.3c0,2.977,1.777,4.873,4.417,4.873a4.129,4.129,0,0,0,3.7-2.088v1.848h2.064v-12H469.4v5.953c0,2.76-1.464,4.393-3.337,4.393-1.656,0-2.712-1.272-2.712-3.289v-7.057h-2.065v7.369Zm17.761-12.05a1.45,1.45,0,0,0-1.441-1.464,1.491,1.491,0,0,0-1.488,1.464,1.475,1.475,0,0,0,1.488,1.464A1.435,1.435,0,0,0,479.048,165.737Zm-2.5,16.683h2.065v-12h-2.065v12Zm13.681-.168V180.4a4.562,4.562,0,0,1-1.464.24c-1.3,0-1.992-.5-1.992-2.041v-6.289h3.456v-1.9h-3.456v-3.337h-2.065v3.337h-2.544v1.9h2.544v6.553a3.379,3.379,0,0,0,3.673,3.673A5.743,5.743,0,0,0,490.232,182.252Zm6.407-.36a2.052,2.052,0,0,0,.337-1.08,1.777,1.777,0,1,0-3.553,0,1.786,1.786,0,0,0,.984,1.608l-1.608,3.433h1.368Zm14.328-16.155a1.449,1.449,0,0,0-1.44-1.464,1.492,1.492,0,0,0-1.489,1.464,1.476,1.476,0,0,0,1.489,1.464A1.434,1.434,0,0,0,510.967,165.737Zm-2.5,16.683h2.064v-12h-2.064v12Zm13.681-.168V180.4a4.564,4.564,0,0,1-1.465.24c-1.3,0-1.992-.5-1.992-2.041v-6.289h3.457v-1.9H518.7v-3.337h-2.064v3.337h-2.545v1.9h2.545v6.553a3.378,3.378,0,0,0,3.672,3.673A5.749,5.749,0,0,0,522.152,182.252Zm20.64,0.168h1.825l4.081-12h-2.185l-2.9,8.761-3-8.761h-1.584l-3,8.761-2.9-8.761h-2.16l4.081,12h1.824l2.977-8.642Zm8.35-6a6.005,6.005,0,0,0,5.881,6.241,5.264,5.264,0,0,0,4.225-2.088v1.848h2.064v-12h-2.064v1.848a5.264,5.264,0,0,0-4.225-2.088A6.005,6.005,0,0,0,551.142,176.419Zm10.274,0a4.1,4.1,0,1,1-4.081-4.345A4.1,4.1,0,0,1,561.416,176.419Zm14.759,2.664c0-1.8-1.128-2.952-3.168-3.624l-1.3-.432c-1.416-.456-1.848-0.912-1.848-1.681,0-.888.888-1.392,2.016-1.392a3.243,3.243,0,0,1,2.545,1.248l1.344-1.3a4.654,4.654,0,0,0-3.841-1.728c-2.376,0-4.056,1.32-4.056,3.264,0,1.681,1.032,2.857,2.976,3.481l1.176,0.384c1.561,0.5,2.137,1.08,2.137,1.921,0,1.032-.936,1.632-2.113,1.632a3.22,3.22,0,0,1-3.072-1.9l-1.681.913A4.769,4.769,0,0,0,572,182.66C574.423,182.66,576.175,181.436,576.175,179.083Zm13.7-13.346a1.45,1.45,0,0,0-1.441-1.464,1.491,1.491,0,0,0-1.488,1.464,1.475,1.475,0,0,0,1.488,1.464A1.435,1.435,0,0,0,589.878,165.737Zm-2.5,16.683h2.065v-12h-2.065v12Zm7.176,0h2.064v-5.953c0-2.809,1.537-4.393,3.481-4.393,1.681,0,2.833,1.248,2.833,3.265v7.081h2.04v-7.393c0-2.977-1.848-4.849-4.537-4.849a4.246,4.246,0,0,0-3.817,2.088v-1.848h-2.064v12Zm23.113-3.337c0-1.8-1.128-2.952-3.168-3.624l-1.3-.432c-1.416-.456-1.848-0.912-1.848-1.681,0-.888.888-1.392,2.016-1.392a3.243,3.243,0,0,1,2.545,1.248l1.344-1.3a4.654,4.654,0,0,0-3.841-1.728c-2.376,0-4.056,1.32-4.056,3.264,0,1.681,1.032,2.857,2.976,3.481l1.176,0.384c1.561,0.5,2.137,1.08,2.137,1.921,0,1.032-.936,1.632-2.112,1.632a3.22,3.22,0,0,1-3.073-1.9l-1.681.913a4.769,4.769,0,0,0,4.705,2.784C615.918,182.66,617.67,181.436,617.67,179.083Zm4.151,8.354h2.064v-6.865a5.263,5.263,0,0,0,4.225,2.088,6.252,6.252,0,0,0,0-12.482,5.263,5.263,0,0,0-4.225,2.088v-1.848h-2.064v17.019Zm10.058-11.018a4.089,4.089,0,1,1-4.081-4.345A4.1,4.1,0,0,1,631.879,176.419Zm8.782-10.682a1.449,1.449,0,0,0-1.44-1.464,1.491,1.491,0,0,0-1.489,1.464,1.475,1.475,0,0,0,1.489,1.464A1.434,1.434,0,0,0,640.661,165.737Zm-2.5,16.683h2.065v-12h-2.065v12Zm7.176,0h2.065v-5.953c0-2.809,1.656-4.129,3.168-4.129a3.022,3.022,0,0,1,1.129.192v-2.136a4.285,4.285,0,0,0-.937-0.1,3.57,3.57,0,0,0-3.36,2.448v-2.328H645.34v12Zm8.616-6a6.328,6.328,0,0,0,11.619,3.385l-1.633-1.129a4.249,4.249,0,0,1-7.9-1.848h9.842a5.856,5.856,0,0,0,.024-0.624c-0.024-3.841-2.569-6.025-5.713-6.025A6.082,6.082,0,0,0,653.956,176.419Zm6.17-4.417a3.59,3.59,0,0,1,3.672,3.145h-7.609A3.923,3.923,0,0,1,660.126,172Zm8.974,4.417a6.006,6.006,0,0,0,5.881,6.241,5.263,5.263,0,0,0,4.225-2.088v1.848h2.065v-18h-2.065v7.849a5.263,5.263,0,0,0-4.225-2.088A6.006,6.006,0,0,0,669.1,176.419Zm10.274,0a4.1,4.1,0,1,1-4.081-4.345A4.1,4.1,0,0,1,679.374,176.419Zm16.1,4.153a5.264,5.264,0,0,0,4.225,2.088,6.252,6.252,0,0,0,0-12.482,5.264,5.264,0,0,0-4.225,2.088v-7.849h-2.064v18h2.064v-1.848Zm7.994-4.153a4.089,4.089,0,1,1-4.081-4.345A4.1,4.1,0,0,1,703.47,176.419Zm9.214,11.018,7.874-17.019h-2.3l-4.105,9.1-4.129-9.1h-2.281L713,181.8l-2.616,5.641h2.3ZM48.854,211.051V209.2a4.564,4.564,0,0,1-1.464.24c-1.3,0-1.992-.5-1.992-2.04v-6.29h3.457v-1.9H45.4V195.88H43.332v3.337H40.788v1.9h2.544v6.554a3.378,3.378,0,0,0,3.673,3.672A5.745,5.745,0,0,0,48.854,211.051Zm3.839,0.168h2.064v-5.953c0-2.808,1.536-4.393,3.481-4.393,1.68,0,2.833,1.249,2.833,3.265v7.081H63.11v-7.393c0-2.977-1.848-4.849-4.537-4.849a4.245,4.245,0,0,0-3.817,2.088v-7.849H52.692v18Zm14.4-6A6.328,6.328,0,0,0,78.71,208.6l-1.632-1.128a4.25,4.25,0,0,1-7.9-1.849h9.842A5.856,5.856,0,0,0,79.046,205c-0.024-3.841-2.568-6.025-5.713-6.025A6.082,6.082,0,0,0,67.092,205.218Zm6.169-4.417a3.592,3.592,0,0,1,3.673,3.145h-7.61A3.924,3.924,0,0,1,73.261,200.8Zm30.409,3.793V194.176h-2.232v10.466c0,3.049-1.776,4.753-4.441,4.753s-4.441-1.7-4.441-4.753V194.176H90.324v10.418c0,4.249,2.737,6.913,6.673,6.913S103.67,208.843,103.67,204.594Zm7.414,5.017a1.776,1.776,0,1,0-1.776,1.8A1.808,1.808,0,0,0,111.084,209.611Zm3.311-1.176c0.889,1.752,3.169,3.072,5.978,3.072,3.168,0,5.425-1.824,5.425-4.728,0-2.521-1.44-3.961-3.961-4.921l-2.064-.793c-1.729-.648-2.569-1.3-2.569-2.736,0-1.416,1.392-2.353,3.073-2.353a4.218,4.218,0,0,1,3.384,1.681l1.633-1.44a6.215,6.215,0,0,0-4.969-2.329c-3.049,0-5.329,1.752-5.329,4.537,0,2.328,1.2,3.721,3.864,4.7l2.257,0.864c1.584,0.6,2.448,1.512,2.448,2.881,0,1.584-1.392,2.544-3.144,2.544a4.762,4.762,0,0,1-4.225-2.328Zm18.433,1.176a1.777,1.777,0,1,0-1.776,1.8A1.808,1.808,0,0,0,132.828,209.611Zm26.282,1.608V194.176H156.9v13.275l-10.37-13.275h-1.945v17.043h2.233V197.945l10.37,13.274h1.92Zm4.269-6a6.005,6.005,0,0,0,5.881,6.241,5.263,5.263,0,0,0,4.225-2.088v1.848h2.065v-12h-2.065v1.848a5.263,5.263,0,0,0-4.225-2.088A6.006,6.006,0,0,0,163.379,205.218Zm10.274,0a4.1,4.1,0,1,1-4.081-4.345A4.1,4.1,0,0,1,173.653,205.218Zm10.727,6h1.728l5.545-12h-2.3l-4.1,9.074-4.1-9.074h-2.3Zm13.751,5.017,7.874-17.019h-2.3l-4.1,9.1-4.129-9.1h-2.281l5.257,11.378-2.616,5.641h2.3Zm14.208-19.467a2.122,2.122,0,0,0,.336-1.081,1.788,1.788,0,1,0-3.576,0,1.86,1.86,0,0,0,.984,1.609l-1.609,3.432h1.393Zm11.209,11.114c0-1.8-1.128-2.953-3.168-3.625l-1.3-.432c-1.416-.456-1.848-0.912-1.848-1.68,0-.889.888-1.393,2.017-1.393A3.24,3.24,0,0,1,221.8,202l1.344-1.3a4.654,4.654,0,0,0-3.84-1.728c-2.377,0-4.057,1.32-4.057,3.265,0,1.68,1.032,2.856,2.976,3.48l1.177,0.384c1.56,0.5,2.136,1.081,2.136,1.921,0,1.032-.936,1.632-2.112,1.632a3.221,3.221,0,0,1-3.073-1.9l-1.68.912a4.767,4.767,0,0,0,4.705,2.784C221.8,211.459,223.548,210.235,223.548,207.883Zm24.241,3.336h1.993l4.657-17.043H252.11l-3.577,13.3-4.921-13.587-4.9,13.587-3.576-13.3H232.81l4.657,17.043h1.993l4.176-11.57Zm23.928,0h1.993l4.657-17.043h-2.329l-3.577,13.3-4.921-13.587-4.9,13.587-3.577-13.3h-2.328l4.657,17.043h1.992l4.177-11.57Zm10.653,0H284.6V194.176H282.37v17.043Zm7.944,0h2.232V194.176h-2.232v17.043Zm14.519-4.633c0,2.977,1.777,4.873,4.417,4.873a4.13,4.13,0,0,0,3.7-2.088v1.848h2.064v-12h-2.064v5.953c0,2.761-1.464,4.393-3.337,4.393-1.656,0-2.712-1.272-2.712-3.289v-7.057h-2.065v7.369Zm15.264,4.633h2.065v-5.953c0-2.808,1.536-4.393,3.48-4.393,1.681,0,2.833,1.249,2.833,3.265v7.081h2.04v-7.393c0-2.977-1.848-4.849-4.537-4.849a4.243,4.243,0,0,0-3.816,2.088v-1.848H320.1v12Zm17.832-16.683a1.449,1.449,0,0,0-1.44-1.464A1.491,1.491,0,0,0,335,194.536,1.475,1.475,0,0,0,336.489,196,1.434,1.434,0,0,0,337.929,194.536Zm-2.5,16.683H337.5v-12h-2.064v12Zm8.184,0h2.064V201.113h3.481v-1.9h-3.481v-2.208c0-1.513.672-2.041,1.993-2.041a4.833,4.833,0,0,1,1.488.24v-1.824a5.454,5.454,0,0,0-1.872-.312,3.428,3.428,0,0,0-3.673,3.721v2.424h-2.545v1.9h2.545v10.106Zm20.282-6a6.277,6.277,0,1,0-6.265,6.241A6.159,6.159,0,0,0,363.9,205.218Zm-10.442,0a4.168,4.168,0,1,1,4.177,4.321A4.126,4.126,0,0,1,353.457,205.218Zm14.591,6h2.065v-5.953c0-2.808,1.656-4.129,3.169-4.129a3.017,3.017,0,0,1,1.128.192v-2.136a4.276,4.276,0,0,0-.936-0.1,3.57,3.57,0,0,0-3.361,2.449v-2.329h-2.065v12Zm9.984,0H380.1v-5.953c0-2.712,1.368-4.393,3.313-4.393,1.56,0,2.352,1.345,2.352,3.289v7.057h2.065v-5.953c0-2.712,1.344-4.393,3.288-4.393,1.561,0,2.377,1.345,2.377,3.289v7.057h2.064V203.85c0-2.929-1.584-4.873-4.2-4.873a4.155,4.155,0,0,0-3.937,2.569,3.772,3.772,0,0,0-3.7-2.569,4.034,4.034,0,0,0-3.625,2.088v-1.848h-2.065v12Zm30.218-3.336c0-1.8-1.128-2.953-3.169-3.625l-1.3-.432c-1.416-.456-1.848-0.912-1.848-1.68,0-.889.888-1.393,2.016-1.393A3.243,3.243,0,0,1,406.5,202l1.344-1.3A4.656,4.656,0,0,0,404,198.977c-2.376,0-4.057,1.32-4.057,3.265,0,1.68,1.032,2.856,2.977,3.48l1.176,0.384c1.56,0.5,2.137,1.081,2.137,1.921,0,1.032-.937,1.632-2.113,1.632a3.222,3.222,0,0,1-3.073-1.9l-1.68.912a4.768,4.768,0,0,0,4.7,2.784C406.5,211.459,408.25,210.235,408.25,207.883Zm7.007,1.728a1.777,1.777,0,1,0-1.777,1.8A1.809,1.809,0,0,0,415.257,209.611Zm11.759,1.608h2.232v-7.753h1.657l6.553,7.753h2.809l-6.554-7.777c2.617-.384,4.2-2.064,4.2-4.561,0-2.808-1.944-4.705-5.089-4.705h-5.809v17.043Zm2.232-9.745v-5.233h3.313c1.944,0,3.121.912,3.121,2.64,0,1.7-1.177,2.593-3.121,2.593h-3.313Zm12.6,3.744a6.328,6.328,0,0,0,11.619,3.385l-1.632-1.128a4.25,4.25,0,0,1-7.9-1.849h9.842A5.856,5.856,0,0,0,453.8,205c-0.024-3.841-2.569-6.025-5.713-6.025A6.083,6.083,0,0,0,441.847,205.218Zm6.17-4.417a3.593,3.593,0,0,1,3.673,3.145h-7.61A3.924,3.924,0,0,1,448.017,200.8Zm9.526,4.729h6.122v-2.064h-6.122v2.064Zm13.345-10.994a1.45,1.45,0,0,0-1.441-1.464,1.491,1.491,0,0,0-1.488,1.464A1.475,1.475,0,0,0,469.447,196,1.435,1.435,0,0,0,470.888,194.536Zm-2.5,16.683h2.065v-12h-2.065v12Zm7.176,0h2.064v-5.953c0-2.808,1.537-4.393,3.481-4.393,1.681,0,2.833,1.249,2.833,3.265v7.081h2.04v-7.393c0-2.977-1.848-4.849-4.537-4.849a4.246,4.246,0,0,0-3.817,2.088v-1.848h-2.064v12Zm21.7-.168V209.2a4.562,4.562,0,0,1-1.464.24c-1.3,0-1.993-.5-1.993-2.04v-6.29h3.457v-1.9h-3.457V195.88h-2.064v3.337H489.2v1.9h2.545v6.554a3.378,3.378,0,0,0,3.673,3.672A5.743,5.743,0,0,0,497.264,211.051Zm3.839,0.168h2.064v-5.953c0-2.808,1.657-4.129,3.169-4.129a3.017,3.017,0,0,1,1.128.192v-2.136a4.276,4.276,0,0,0-.936-0.1,3.571,3.571,0,0,0-3.361,2.449v-2.329H501.1v12Zm21.146-6a6.277,6.277,0,1,0-6.265,6.241A6.159,6.159,0,0,0,522.249,205.218Zm-10.442,0a4.168,4.168,0,1,1,4.177,4.321A4.126,4.126,0,0,1,511.807,205.218Zm13.655,0a6.006,6.006,0,0,0,5.882,6.241,5.266,5.266,0,0,0,4.225-2.088v1.848h2.064v-18h-2.064v7.849a5.266,5.266,0,0,0-4.225-2.088A6.007,6.007,0,0,0,525.462,205.218Zm10.275,0a4.1,4.1,0,1,1-4.081-4.345A4.1,4.1,0,0,1,535.737,205.218Zm6.813,1.368c0,2.977,1.777,4.873,4.417,4.873a4.129,4.129,0,0,0,3.7-2.088v1.848h2.064v-12h-2.064v5.953c0,2.761-1.464,4.393-3.337,4.393-1.656,0-2.712-1.272-2.712-3.289v-7.057H542.55v7.369Zm26.163,1.657-1.8-1.008a4.068,4.068,0,0,1-3.745,2.3,4.323,4.323,0,0,1,0-8.642,4.069,4.069,0,0,1,3.745,2.305l1.8-1.008a6.216,6.216,0,0,0-5.546-3.217,6.241,6.241,0,1,0,0,12.482A6.218,6.218,0,0,0,568.713,208.243Zm2.925-3.025a6.328,6.328,0,0,0,11.618,3.385l-1.632-1.128a4.25,4.25,0,0,1-7.9-1.849h9.842a5.856,5.856,0,0,0,.024-0.624c-0.024-3.841-2.568-6.025-5.713-6.025A6.082,6.082,0,0,0,571.638,205.218Zm6.169-4.417a3.592,3.592,0,0,1,3.673,3.145h-7.61A3.925,3.925,0,0,1,577.807,200.8Zm8.975,4.417a6.005,6.005,0,0,0,5.881,6.241,5.264,5.264,0,0,0,4.225-2.088v1.848h2.064v-18h-2.064v7.849a5.264,5.264,0,0,0-4.225-2.088A6.006,6.006,0,0,0,586.782,205.218Zm10.274,0a4.1,4.1,0,1,1-4.081-4.345A4.1,4.1,0,0,1,597.056,205.218Zm14.037,6h2.065v-5.953c0-2.808,1.536-4.393,3.48-4.393,1.681,0,2.833,1.249,2.833,3.265v7.081h2.04v-7.393c0-2.977-1.848-4.849-4.537-4.849a4.243,4.243,0,0,0-3.816,2.088v-1.848h-2.065v12Zm14.4-6a6.328,6.328,0,0,0,11.618,3.385l-1.632-1.128a4.25,4.25,0,0,1-7.9-1.849h9.842a5.856,5.856,0,0,0,.024-0.624c-0.024-3.841-2.568-6.025-5.713-6.025A6.082,6.082,0,0,0,625.493,205.218Zm6.169-4.417a3.592,3.592,0,0,1,3.673,3.145h-7.61A3.925,3.925,0,0,1,631.662,200.8Zm8.975,4.417a6.005,6.005,0,0,0,5.881,6.241,5.264,5.264,0,0,0,4.225-2.088v1.848h2.064v-12h-2.064v1.848a5.264,5.264,0,0,0-4.225-2.088A6.006,6.006,0,0,0,640.637,205.218Zm10.274,0a4.1,4.1,0,1,1-4.081-4.345A4.1,4.1,0,0,1,650.911,205.218Zm6.982,6h2.064v-5.953c0-2.808,1.656-4.129,3.169-4.129a3.017,3.017,0,0,1,1.128.192v-2.136a4.276,4.276,0,0,0-.936-0.1,3.57,3.57,0,0,0-3.361,2.449v-2.329h-2.064v12Zm9.984,0h2.064v-18h-2.064v18Zm10.368,5.017,7.874-17.019h-2.305l-4.105,9.1-4.129-9.1H673.3l5.257,11.378-2.617,5.641h2.3ZM48.854,239.851V238a4.564,4.564,0,0,1-1.464.24c-1.3,0-1.992-.5-1.992-2.04v-6.289h3.457v-1.9H45.4V224.68H43.332v3.336H40.788v1.9h2.544v6.553a3.379,3.379,0,0,0,3.673,3.673A5.745,5.745,0,0,0,48.854,239.851Zm3.839,0.168h2.064v-5.954c0-2.808,1.536-4.392,3.481-4.392,1.68,0,2.833,1.248,2.833,3.264v7.082H63.11v-7.394c0-2.976-1.848-4.849-4.537-4.849a4.243,4.243,0,0,0-3.817,2.089v-7.85H52.692v18Zm15.336,0h2.064v-5.954c0-2.808,1.656-4.128,3.169-4.128a3.018,3.018,0,0,1,1.128.192v-2.137a4.278,4.278,0,0,0-.936-0.1,3.571,3.571,0,0,0-3.361,2.449v-2.329H68.028v12Zm8.616-6A6.328,6.328,0,0,0,88.262,237.4l-1.632-1.128a4.25,4.25,0,0,1-7.9-1.848h9.842A5.874,5.874,0,0,0,88.6,233.8c-0.024-3.84-2.568-6.025-5.713-6.025A6.082,6.082,0,0,0,76.644,234.017Zm6.169-4.416a3.591,3.591,0,0,1,3.673,3.144h-7.61A3.924,3.924,0,0,1,82.813,229.6Zm8.975,4.416a6.327,6.327,0,0,0,11.618,3.385l-1.632-1.128a4.25,4.25,0,0,1-7.9-1.848h9.842a5.874,5.874,0,0,0,.024-0.625c-0.024-3.84-2.568-6.025-5.713-6.025A6.082,6.082,0,0,0,91.788,234.017Zm6.169-4.416a3.591,3.591,0,0,1,3.673,3.144H94.02A3.924,3.924,0,0,1,97.957,229.6Zm16.03,4.416a6.007,6.007,0,0,0,5.882,6.242,5.263,5.263,0,0,0,4.224-2.089v1.849h2.065v-18h-2.065v7.85a5.26,5.26,0,0,0-4.224-2.089A6.007,6.007,0,0,0,113.987,234.017Zm10.274,0a4.1,4.1,0,1,1-4.08-4.344A4.1,4.1,0,0,1,124.261,234.017Zm6.046,0a6.328,6.328,0,0,0,11.619,3.385l-1.633-1.128a4.25,4.25,0,0,1-7.9-1.848h9.843a5.874,5.874,0,0,0,.024-0.625c-0.024-3.84-2.569-6.025-5.714-6.025A6.083,6.083,0,0,0,130.307,234.017Zm6.169-4.416a3.591,3.591,0,0,1,3.673,3.144h-7.61A3.925,3.925,0,0,1,136.476,229.6Zm20.809,7.441-1.8-1.008a4.068,4.068,0,0,1-3.745,2.3,4.322,4.322,0,0,1,0-8.641,4.068,4.068,0,0,1,3.745,2.3l1.8-1.008a6.216,6.216,0,0,0-5.545-3.217,6.242,6.242,0,1,0,0,12.483A6.216,6.216,0,0,0,157.285,237.042Zm2.926-3.025a6.006,6.006,0,0,0,5.881,6.242,5.265,5.265,0,0,0,4.225-2.089v1.849h2.064v-12h-2.064v1.849a5.262,5.262,0,0,0-4.225-2.089A6.006,6.006,0,0,0,160.211,234.017Zm10.274,0a4.1,4.1,0,1,1-4.081-4.344A4.1,4.1,0,0,1,170.485,234.017Zm6.045,0a6.007,6.007,0,0,0,5.882,6.242,5.263,5.263,0,0,0,4.224-2.089v1.849H188.7v-18h-2.065v7.85a5.26,5.26,0,0,0-4.224-2.089A6.007,6.007,0,0,0,176.53,234.017Zm10.275,0a4.1,4.1,0,1,1-4.081-4.344A4.1,4.1,0,0,1,186.805,234.017Zm6.045,0a6.328,6.328,0,0,0,11.619,3.385l-1.633-1.128a4.249,4.249,0,0,1-7.9-1.848h9.842a5.874,5.874,0,0,0,.024-0.625c-0.024-3.84-2.569-6.025-5.714-6.025A6.083,6.083,0,0,0,192.85,234.017Zm6.169-4.416a3.591,3.591,0,0,1,3.673,3.144h-7.609A3.923,3.923,0,0,1,199.019,229.6Zm17.689,7.081c0-1.8-1.128-2.953-3.169-3.625l-1.3-.432c-1.416-.456-1.849-0.912-1.849-1.68,0-.888.889-1.392,2.017-1.392a3.242,3.242,0,0,1,2.544,1.248l1.345-1.3a4.655,4.655,0,0,0-3.841-1.729c-2.377,0-4.057,1.321-4.057,3.265,0,1.68,1.032,2.856,2.977,3.481l1.176,0.384c1.56,0.5,2.136,1.08,2.136,1.92,0,1.032-.936,1.632-2.112,1.632a3.222,3.222,0,0,1-3.073-1.9l-1.68.912a4.768,4.768,0,0,0,4.705,2.785C214.955,240.259,216.708,239.034,216.708,236.682Zm11.206,3.337h2.064v-18h-2.064v18Zm6.239-6a6.007,6.007,0,0,0,5.881,6.242,5.264,5.264,0,0,0,4.225-2.089v1.849h2.065v-12h-2.065v1.849a5.261,5.261,0,0,0-4.225-2.089A6.006,6.006,0,0,0,234.153,234.017Zm10.274,0a4.1,4.1,0,1,1-4.08-4.344A4.1,4.1,0,0,1,244.427,234.017Zm13.488,5.834V238a4.573,4.573,0,0,1-1.465.24c-1.3,0-1.992-.5-1.992-2.04v-6.289h3.457v-1.9h-3.457V224.68h-2.065v3.336h-2.544v1.9h2.544v6.553a3.379,3.379,0,0,0,3.673,3.673A5.754,5.754,0,0,0,257.915,239.851Zm2.734-5.834a6.328,6.328,0,0,0,11.619,3.385l-1.633-1.128a4.249,4.249,0,0,1-7.9-1.848h9.842a5.874,5.874,0,0,0,.024-0.625c-0.024-3.84-2.569-6.025-5.713-6.025A6.083,6.083,0,0,0,260.649,234.017Zm6.17-4.416a3.59,3.59,0,0,1,3.672,3.144h-7.609A3.923,3.923,0,0,1,266.819,229.6Zm9.91,10.418h2.065v-5.954c0-2.808,1.656-4.128,3.168-4.128a3.022,3.022,0,0,1,1.129.192v-2.137a4.285,4.285,0,0,0-.937-0.1,3.57,3.57,0,0,0-3.36,2.449v-2.329h-2.065v12Zm11.233-.528a2.058,2.058,0,0,0,.336-1.081,1.777,1.777,0,1,0-3.553,0,1.788,1.788,0,0,0,.984,1.609l-1.608,3.432h1.368Zm17.928,0.36V238a4.562,4.562,0,0,1-1.464.24c-1.3,0-1.992-.5-1.992-2.04v-6.289h3.456v-1.9h-3.456V224.68h-2.065v3.336h-2.544v1.9h2.544v6.553a3.379,3.379,0,0,0,3.673,3.673A5.743,5.743,0,0,0,305.89,239.851Zm3.839,0.168h2.064v-5.954c0-2.808,1.537-4.392,3.481-4.392,1.68,0,2.833,1.248,2.833,3.264v7.082h2.04v-7.394c0-2.976-1.848-4.849-4.537-4.849a4.245,4.245,0,0,0-3.817,2.089v-7.85h-2.064v18Zm17.832-16.684a1.449,1.449,0,0,0-1.44-1.464,1.491,1.491,0,0,0-1.488,1.464,1.475,1.475,0,0,0,1.488,1.465A1.435,1.435,0,0,0,327.561,223.335Zm-2.5,16.684h2.064v-12h-2.064v12Zm14.953-3.337c0-1.8-1.128-2.953-3.169-3.625l-1.3-.432c-1.416-.456-1.848-0.912-1.848-1.68,0-.888.888-1.392,2.016-1.392a3.244,3.244,0,0,1,2.545,1.248l1.344-1.3a4.652,4.652,0,0,0-3.841-1.729c-2.376,0-4.057,1.321-4.057,3.265,0,1.68,1.033,2.856,2.977,3.481l1.176,0.384c1.561,0.5,2.137,1.08,2.137,1.92,0,1.032-.936,1.632-2.113,1.632a3.221,3.221,0,0,1-3.072-1.9l-1.681.912a4.768,4.768,0,0,0,4.7,2.785C338.266,240.259,340.018,239.034,340.018,236.682Zm11.206,3.337h2.064v-5.954c0-2.712,1.369-4.392,3.313-4.392,1.56,0,2.353,1.344,2.353,3.288v7.058h2.064v-5.954c0-2.712,1.344-4.392,3.289-4.392,1.56,0,2.376,1.344,2.376,3.288v7.058h2.065v-7.37c0-2.928-1.585-4.873-4.2-4.873a4.153,4.153,0,0,0-3.937,2.569,3.772,3.772,0,0,0-3.7-2.569,4.035,4.035,0,0,0-3.625,2.089v-1.849h-2.064v12Zm34.034-6a6.277,6.277,0,1,0-6.265,6.242A6.159,6.159,0,0,0,385.258,234.017Zm-10.442,0a4.168,4.168,0,1,1,4.177,4.321A4.125,4.125,0,0,1,374.816,234.017Zm13.655,0a6.007,6.007,0,0,0,5.882,6.242,5.267,5.267,0,0,0,4.225-2.089v1.849h2.064v-18h-2.064v7.85a5.264,5.264,0,0,0-4.225-2.089A6.007,6.007,0,0,0,388.471,234.017Zm10.275,0a4.1,4.1,0,1,1-4.081-4.344A4.1,4.1,0,0,1,398.746,234.017Zm6.045,0A6.328,6.328,0,0,0,416.41,237.4l-1.633-1.128a4.249,4.249,0,0,1-7.9-1.848h9.842a5.874,5.874,0,0,0,.024-0.625c-0.024-3.84-2.569-6.025-5.714-6.025A6.083,6.083,0,0,0,404.791,234.017Zm6.169-4.416a3.591,3.591,0,0,1,3.673,3.144h-7.609A3.923,3.923,0,0,1,410.96,229.6Zm9.911,10.418h2.065v-5.954c0-2.808,1.656-4.128,3.168-4.128a3.025,3.025,0,0,1,1.129.192v-2.137a4.291,4.291,0,0,0-.937-0.1,3.57,3.57,0,0,0-3.36,2.449v-2.329h-2.065v12Zm9.984,0h2.065v-5.954c0-2.808,1.536-4.392,3.48-4.392,1.681,0,2.833,1.248,2.833,3.264v7.082h2.04v-7.394c0-2.976-1.848-4.849-4.537-4.849a4.242,4.242,0,0,0-3.816,2.089v-1.849h-2.065v12Zm25.609,0h1.728l5.545-12h-2.3l-4.105,9.074-4.1-9.074h-2.305Zm9.359-6a6.327,6.327,0,0,0,11.618,3.385l-1.632-1.128a4.25,4.25,0,0,1-7.9-1.848h9.842a5.874,5.874,0,0,0,.024-0.625c-0.024-3.84-2.568-6.025-5.713-6.025A6.082,6.082,0,0,0,465.823,234.017Zm6.169-4.416a3.591,3.591,0,0,1,3.673,3.144h-7.61A3.924,3.924,0,0,1,471.992,229.6Zm9.911,10.418h2.064v-5.954c0-2.808,1.657-4.128,3.169-4.128a3.017,3.017,0,0,1,1.128.192v-2.137a4.276,4.276,0,0,0-.936-0.1,3.571,3.571,0,0,0-3.361,2.449v-2.329H481.9v12Zm17.546-3.337c0-1.8-1.129-2.953-3.169-3.625l-1.3-.432c-1.417-.456-1.849-0.912-1.849-1.68,0-.888.889-1.392,2.017-1.392A3.242,3.242,0,0,1,497.7,230.8l1.345-1.3a4.655,4.655,0,0,0-3.841-1.729c-2.377,0-4.057,1.321-4.057,3.265,0,1.68,1.032,2.856,2.977,3.481l1.176,0.384c1.56,0.5,2.136,1.08,2.136,1.92,0,1.032-.936,1.632-2.112,1.632a3.222,3.222,0,0,1-3.073-1.9l-1.68.912a4.768,4.768,0,0,0,4.7,2.785C497.7,240.259,499.449,239.034,499.449,236.682Zm6.646-13.347a1.449,1.449,0,0,0-1.44-1.464,1.491,1.491,0,0,0-1.488,1.464,1.475,1.475,0,0,0,1.488,1.465A1.435,1.435,0,0,0,506.1,223.335Zm-2.5,16.684h2.064v-12H503.6v12Zm18.77-6a6.278,6.278,0,1,0-6.265,6.242A6.159,6.159,0,0,0,522.369,234.017Zm-10.442,0a4.168,4.168,0,1,1,4.177,4.321A4.125,4.125,0,0,1,511.927,234.017Zm14.591,6h2.065v-5.954c0-2.808,1.536-4.392,3.481-4.392,1.68,0,2.832,1.248,2.832,3.264v7.082h2.041v-7.394c0-2.976-1.849-4.849-4.537-4.849a4.243,4.243,0,0,0-3.817,2.089v-1.849h-2.065v12Zm33.986-6a6.277,6.277,0,1,0-6.265,6.242A6.159,6.159,0,0,0,560.5,234.017Zm-10.442,0a4.168,4.168,0,1,1,4.177,4.321A4.125,4.125,0,0,1,550.062,234.017Zm15.408,6h2.064V229.913h3.481v-1.9h-3.481v-2.208c0-1.512.672-2.04,1.993-2.04a4.833,4.833,0,0,1,1.488.24v-1.825a5.454,5.454,0,0,0-1.872-.312,3.428,3.428,0,0,0-3.673,3.721v2.424h-2.545v1.9h2.545v10.106Zm27.026-6a6.278,6.278,0,1,0-6.265,6.242A6.16,6.16,0,0,0,592.5,234.017Zm-10.442,0a4.167,4.167,0,1,1,4.177,4.321A4.125,4.125,0,0,1,582.054,234.017Zm14.423,1.369c0,2.976,1.776,4.873,4.417,4.873a4.129,4.129,0,0,0,3.7-2.089v1.849h2.064v-12h-2.064v5.953c0,2.761-1.465,4.393-3.337,4.393-1.656,0-2.712-1.272-2.712-3.288v-7.058h-2.065v7.37Zm15.264,4.633H613.8v-5.954c0-2.808,1.657-4.128,3.169-4.128a3.017,3.017,0,0,1,1.128.192v-2.137a4.276,4.276,0,0,0-.936-0.1,3.572,3.572,0,0,0-3.361,2.449v-2.329h-2.064v12Zm16.272-4.633c0,2.976,1.776,4.873,4.417,4.873a4.128,4.128,0,0,0,3.7-2.089v1.849h2.065v-12h-2.065v5.953c0,2.761-1.464,4.393-3.336,4.393-1.657,0-2.713-1.272-2.713-3.288v-7.058h-2.064v7.37Zm21.769,4.465V238a4.562,4.562,0,0,1-1.464.24c-1.3,0-1.993-.5-1.993-2.04v-6.289h3.457v-1.9h-3.457V224.68h-2.064v3.336h-2.545v1.9h2.545v6.553a3.379,3.379,0,0,0,3.673,3.673A5.743,5.743,0,0,0,649.782,239.851Zm6.335-16.516a1.449,1.449,0,0,0-1.44-1.464,1.492,1.492,0,0,0-1.489,1.464,1.476,1.476,0,0,0,1.489,1.465A1.435,1.435,0,0,0,656.117,223.335Zm-2.5,16.684h2.064v-12h-2.064v12Zm7.175,0h2.065v-18H660.8v18Zm9.673-16.684a1.45,1.45,0,0,0-1.441-1.464,1.491,1.491,0,0,0-1.488,1.464,1.475,1.475,0,0,0,1.488,1.465A1.435,1.435,0,0,0,670.469,223.335Zm-2.5,16.684h2.065v-12h-2.065v12Zm13.681-.168V238a4.562,4.562,0,0,1-1.464.24c-1.3,0-1.992-.5-1.992-2.04v-6.289h3.456v-1.9H678.2V224.68h-2.065v3.336h-2.544v1.9h2.544v6.553a3.379,3.379,0,0,0,3.673,3.673A5.743,5.743,0,0,0,681.653,239.851Zm7.032,5.185,7.873-17.02h-2.3l-4.105,9.1-4.129-9.1h-2.28L689,239.394l-2.617,5.642h2.3ZM42.348,268.818h2.065v-5.953c0-2.809,1.536-4.393,3.481-4.393,1.68,0,2.833,1.248,2.833,3.265v7.081h2.041v-7.394c0-2.976-1.848-4.848-4.537-4.848a4.244,4.244,0,0,0-3.817,2.088v-7.85H42.348v18Zm14.4-6A6.328,6.328,0,0,0,68.366,266.2l-1.632-1.128a4.249,4.249,0,0,1-7.9-1.848h9.842A5.856,5.856,0,0,0,68.7,262.6c-0.024-3.841-2.568-6.025-5.713-6.025A6.082,6.082,0,0,0,56.748,262.817Zm6.169-4.417a3.591,3.591,0,0,1,3.673,3.144H58.98A3.924,3.924,0,0,1,62.917,258.4Zm9.911,10.418h2.065v-5.953c0-2.809,1.656-4.129,3.169-4.129a3.018,3.018,0,0,1,1.128.192v-2.136a4.279,4.279,0,0,0-.936-0.1,3.571,3.571,0,0,0-3.361,2.448v-2.328H72.828v12Zm12.481-16.683a1.45,1.45,0,0,0-1.44-1.465,1.492,1.492,0,0,0-1.488,1.465,1.475,1.475,0,0,0,1.488,1.464A1.435,1.435,0,0,0,85.308,252.135Zm-2.5,16.683h2.064v-12H82.812v12Zm13.681-.168V266.8a4.536,4.536,0,0,1-1.464.241c-1.3,0-1.993-.5-1.993-2.041v-6.289h3.457v-1.9H93.036v-3.337H90.972v3.337H88.427v1.9h2.545v6.553a3.379,3.379,0,0,0,3.673,3.673A5.745,5.745,0,0,0,96.493,268.65Zm2.735-5.833a6.006,6.006,0,0,0,5.881,6.241,5.264,5.264,0,0,0,4.225-2.088v1.848H111.4v-12h-2.064v1.848a5.264,5.264,0,0,0-4.225-2.088A6.006,6.006,0,0,0,99.228,262.817Zm10.274,0a4.1,4.1,0,1,1-4.081-4.345A4.1,4.1,0,0,1,109.5,262.817Zm18.168,5.305V256.816h-2.065v1.848a5.106,5.106,0,0,0-4.176-2.088,6.114,6.114,0,0,0,0,12.218,5.122,5.122,0,0,0,4.176-2.113v1.369A3.836,3.836,0,0,1,121.6,272.2a5.134,5.134,0,0,1-4.2-2.016l-1.441,1.44a7.126,7.126,0,0,0,5.666,2.449C125.029,274.075,127.67,272.13,127.67,268.122Zm-10.01-5.449a4.059,4.059,0,1,1,4.057,4.2A4,4,0,0,1,117.66,262.673Zm14.159,0.144a6.328,6.328,0,0,0,11.619,3.384l-1.633-1.128a4.249,4.249,0,0,1-7.9-1.848h9.842a5.856,5.856,0,0,0,.024-0.624c-0.024-3.841-2.569-6.025-5.714-6.025A6.082,6.082,0,0,0,131.819,262.817Zm6.169-4.417a3.591,3.591,0,0,1,3.673,3.144h-7.609A3.923,3.923,0,0,1,137.988,258.4ZM164.7,268.818h1.825l4.081-12h-2.185l-2.905,8.761-3-8.761h-1.585l-3,8.761-2.905-8.761h-2.16l4.081,12h1.824l2.977-8.642Zm11.83-16.683a1.45,1.45,0,0,0-1.44-1.465,1.492,1.492,0,0,0-1.488,1.465,1.475,1.475,0,0,0,1.488,1.464A1.434,1.434,0,0,0,176.531,252.135Zm-2.5,16.683H176.1v-12h-2.064v12Zm7.176,0h2.064v-18h-2.064v18Zm7.175,0h2.065v-18h-2.065v18Zm13.3-6a6.006,6.006,0,0,0,5.881,6.241,5.264,5.264,0,0,0,4.225-2.088v1.848h2.064v-12h-2.064v1.848a5.264,5.264,0,0,0-4.225-2.088A6.005,6.005,0,0,0,201.682,262.817Zm10.274,0a4.1,4.1,0,1,1-4.081-4.345A4.1,4.1,0,0,1,211.956,262.817Zm6.982,6H221v-18h-2.064v18Zm14.953-3.337c0-1.8-1.128-2.952-3.168-3.624l-1.3-.433c-1.416-.456-1.848-0.912-1.848-1.68,0-.888.888-1.392,2.016-1.392a3.243,3.243,0,0,1,2.545,1.248l1.344-1.3a4.654,4.654,0,0,0-3.841-1.728c-2.376,0-4.057,1.32-4.057,3.264,0,1.68,1.033,2.857,2.977,3.481l1.176,0.384c1.561,0.5,2.137,1.08,2.137,1.92,0,1.032-.936,1.633-2.113,1.633a3.221,3.221,0,0,1-3.072-1.9l-1.681.912a4.767,4.767,0,0,0,4.705,2.785C232.139,269.058,233.891,267.834,233.891,265.481Zm15.745-2.664a6.278,6.278,0,1,0-6.266,6.241A6.159,6.159,0,0,0,249.636,262.817Zm-10.442,0a4.167,4.167,0,1,1,4.176,4.321A4.125,4.125,0,0,1,239.194,262.817Zm21.647,6H262.9v-5.953c0-2.809,1.537-4.393,3.481-4.393,1.68,0,2.833,1.248,2.833,3.265v7.081h2.04v-7.394c0-2.976-1.848-4.848-4.537-4.848a4.245,4.245,0,0,0-3.817,2.088v-7.85h-2.064v18Zm14.4-6a6.328,6.328,0,0,0,11.619,3.384l-1.633-1.128a4.249,4.249,0,0,1-7.9-1.848h9.842a5.856,5.856,0,0,0,.024-0.624c-0.024-3.841-2.569-6.025-5.713-6.025A6.082,6.082,0,0,0,275.24,262.817Zm6.17-4.417a3.59,3.59,0,0,1,3.672,3.144h-7.609A3.923,3.923,0,0,1,281.41,258.4Zm9.91,10.418h2.065v-18H291.32v18Zm7.176,5.017h2.065V266.97a5.262,5.262,0,0,0,4.224,2.088,6.252,6.252,0,0,0,0-12.482,5.262,5.262,0,0,0-4.224,2.088v-1.848H298.5v17.019Zm10.058-11.018a4.089,4.089,0,1,1-4.081-4.345A4.1,4.1,0,0,1,308.554,262.817Zm15.983,11.018,7.873-17.019h-2.3l-4.105,9.1-4.129-9.1h-2.28l5.257,11.378-2.617,5.641h2.3ZM347,262.817a6.278,6.278,0,1,0-6.266,6.241A6.159,6.159,0,0,0,347,262.817Zm-10.443,0a4.168,4.168,0,1,1,4.177,4.321A4.126,4.126,0,0,1,336.56,262.817Zm14.424,1.368c0,2.977,1.776,4.873,4.417,4.873a4.131,4.131,0,0,0,3.7-2.088v1.848h2.064v-12H359.1v5.953c0,2.76-1.465,4.393-3.337,4.393-1.657,0-2.713-1.273-2.713-3.289v-7.057h-2.064v7.369Zm22.319,4.633h2.065v-5.953c0-2.809,1.656-4.129,3.169-4.129a3.017,3.017,0,0,1,1.128.192v-2.136a4.276,4.276,0,0,0-.936-0.1,3.57,3.57,0,0,0-3.361,2.448v-2.328H373.3v12Zm12.481-16.683a1.45,1.45,0,0,0-1.44-1.465,1.492,1.492,0,0,0-1.489,1.465,1.475,1.475,0,0,0,1.489,1.464A1.434,1.434,0,0,0,385.784,252.135Zm-2.5,16.683h2.065v-12h-2.065v12Zm14.954-3.337c0-1.8-1.128-2.952-3.169-3.624l-1.3-.433c-1.416-.456-1.848-0.912-1.848-1.68,0-.888.888-1.392,2.016-1.392a3.246,3.246,0,0,1,2.545,1.248l1.344-1.3a4.656,4.656,0,0,0-3.841-1.728c-2.377,0-4.057,1.32-4.057,3.264,0,1.68,1.032,2.857,2.977,3.481l1.176,0.384c1.56,0.5,2.136,1.08,2.136,1.92,0,1.032-.936,1.633-2.112,1.633a3.223,3.223,0,0,1-3.073-1.9l-1.68.912a4.767,4.767,0,0,0,4.705,2.785C396.489,269.058,398.241,267.834,398.241,265.481Zm3.214-2.664a6.327,6.327,0,0,0,11.618,3.384l-1.632-1.128a4.25,4.25,0,0,1-7.9-1.848h9.842a5.856,5.856,0,0,0,.024-0.624c-0.024-3.841-2.568-6.025-5.713-6.025A6.081,6.081,0,0,0,401.455,262.817Zm6.169-4.417a3.591,3.591,0,0,1,3.673,3.144h-7.61A3.924,3.924,0,0,1,407.624,258.4Zm23.064,10.25V266.8a4.534,4.534,0,0,1-1.464.241c-1.3,0-1.993-.5-1.993-2.041v-6.289h3.457v-1.9h-3.457v-3.337h-2.064v3.337h-2.545v1.9h2.545v6.553a3.378,3.378,0,0,0,3.673,3.673A5.743,5.743,0,0,0,430.688,268.65Zm15.265-5.833a6.277,6.277,0,1,0-6.265,6.241A6.159,6.159,0,0,0,445.953,262.817Zm-10.442,0a4.168,4.168,0,1,1,4.177,4.321A4.125,4.125,0,0,1,435.511,262.817Zm20.711,0a6.006,6.006,0,0,0,5.881,6.241,5.263,5.263,0,0,0,4.225-2.088v1.848h2.065v-12h-2.065v1.848a5.263,5.263,0,0,0-4.225-2.088A6.006,6.006,0,0,0,456.222,262.817Zm10.274,0a4.1,4.1,0,1,1-4.081-4.345A4.1,4.1,0,0,1,466.5,262.817Zm6.982,6h2.064v-5.953c0-2.809,1.537-4.393,3.481-4.393,1.681,0,2.833,1.248,2.833,3.265v7.081h2.04v-7.394c0-2.976-1.848-4.848-4.537-4.848a4.246,4.246,0,0,0-3.817,2.088v-1.848h-2.064v12Zm18.289,5.017,7.873-17.019h-2.3l-4.105,9.1-4.129-9.1h-2.281l5.258,11.378-2.617,5.641h2.305Zm29.257-11.018a6.277,6.277,0,1,0-6.265,6.241A6.159,6.159,0,0,0,521.024,262.817Zm-10.442,0a4.168,4.168,0,1,1,4.177,4.321A4.125,4.125,0,0,1,510.582,262.817Zm25.49,3.024-1.8-1.008a4.069,4.069,0,0,1-3.744,2.3,4.323,4.323,0,0,1,0-8.642,4.068,4.068,0,0,1,3.744,2.3l1.8-1.008a6.216,6.216,0,0,0-5.545-3.216,6.241,6.241,0,1,0,0,12.482A6.215,6.215,0,0,0,536.072,265.841Zm14.759,0-1.8-1.008a4.069,4.069,0,0,1-3.745,2.3,4.323,4.323,0,0,1,0-8.642,4.068,4.068,0,0,1,3.745,2.3l1.8-1.008a6.215,6.215,0,0,0-5.545-3.216,6.241,6.241,0,1,0,0,12.482A6.214,6.214,0,0,0,550.831,265.841Zm2.926-3.024a6.006,6.006,0,0,0,5.881,6.241,5.264,5.264,0,0,0,4.225-2.088v1.848h2.064v-12h-2.064v1.848a5.264,5.264,0,0,0-4.225-2.088A6.005,6.005,0,0,0,553.757,262.817Zm10.274,0a4.1,4.1,0,1,1-4.081-4.345A4.1,4.1,0,0,1,564.031,262.817Zm14.759,2.664c0-1.8-1.128-2.952-3.168-3.624l-1.3-.433c-1.416-.456-1.848-0.912-1.848-1.68,0-.888.888-1.392,2.016-1.392a3.243,3.243,0,0,1,2.545,1.248l1.344-1.3a4.654,4.654,0,0,0-3.841-1.728c-2.376,0-4.057,1.32-4.057,3.264,0,1.68,1.033,2.857,2.977,3.481l1.176,0.384c1.561,0.5,2.137,1.08,2.137,1.92,0,1.032-.936,1.633-2.113,1.633a3.221,3.221,0,0,1-3.072-1.9l-1.681.912a4.768,4.768,0,0,0,4.705,2.785C577.038,269.058,578.79,267.834,578.79,265.481Zm6.647-13.346A1.45,1.45,0,0,0,584,250.67a1.492,1.492,0,0,0-1.489,1.465A1.475,1.475,0,0,0,584,253.6,1.434,1.434,0,0,0,585.437,252.135Zm-2.5,16.683h2.065v-12H582.94v12Zm18.771-6a6.278,6.278,0,1,0-6.266,6.241A6.159,6.159,0,0,0,601.711,262.817Zm-10.443,0a4.168,4.168,0,1,1,4.177,4.321A4.126,4.126,0,0,1,591.268,262.817Zm14.592,6h2.064v-5.953c0-2.809,1.537-4.393,3.481-4.393,1.68,0,2.833,1.248,2.833,3.265v7.081h2.04v-7.394c0-2.976-1.848-4.848-4.537-4.848a4.246,4.246,0,0,0-3.817,2.088v-1.848H605.86v12Zm18.192-1.608a1.776,1.776,0,1,0-1.776,1.8A1.808,1.808,0,0,0,624.052,267.21Z"/>
  <rect id="Rectangle_4_copy_4" data-name="Rectangle 4 copy 4" x="39" y="335.5" width="122.406" height="3.656"/>
  <path id="Shop_now" data-name="Shop now" class="cls-2" d="M44.217,328.583c2.706,0,4.564-1.653,4.582-4.022,0.018-1.966-1.19-3.215-3.048-3.894l-0.9-.331c-1.353-.5-1.984-0.808-1.984-1.506,0-.68.776-0.992,1.551-0.992a2.829,2.829,0,0,1,2.219,1.084L48.51,316.9a5.3,5.3,0,0,0-4.131-1.8c-2.561,0-4.419,1.488-4.419,4.023,0,1.782,1.154,3.049,3.229,3.765l0.9,0.312c1.281,0.441,1.786.9,1.786,1.562,0,0.624-.6,1.083-1.551,1.083a3.337,3.337,0,0,1-2.652-1.487l-2.2,1.891A5.58,5.58,0,0,0,44.217,328.583Zm9.726-.22H56.81V323.2h5.159v5.162h2.868V315.322H61.969v5.106H56.81v-5.106H53.942v13.041Zm22.66,0.22a6.742,6.742,0,1,0-6.62-6.741A6.7,6.7,0,0,0,76.6,328.583Zm0-2.828a3.918,3.918,0,1,1,3.716-3.913A3.837,3.837,0,0,1,76.6,325.755Zm20.622-5.97a4.4,4.4,0,0,0-4.51-4.463H88.367v13.041h2.868V324.23h1.479A4.385,4.385,0,0,0,97.224,319.785Zm-2.778,0a1.7,1.7,0,0,1-1.768,1.708H91.235v-3.416h1.443A1.689,1.689,0,0,1,94.446,319.785Zm25.979,8.578V315.322h-2.886v8.045l-6.223-8.045h-2.472v13.041h2.869V320.3l6.241,8.064h2.471Zm11.765,0.22a6.742,6.742,0,1,0-6.62-6.741A6.7,6.7,0,0,0,132.19,328.583Zm0-2.828a3.918,3.918,0,1,1,3.716-3.913A3.837,3.837,0,0,1,132.19,325.755Zm21.686,2.608H156.6l2.976-13.041h-3.067l-1.749,8.265-3.608-8.486-3.589,8.486-1.75-8.265h-3.067l2.959,13.041h2.723l2.724-6.392Z"/>
</svg>
