<svg id="Copy_copy_7" data-name="Copy copy 7" xmlns="http://www.w3.org/2000/svg" width="768" height="430"><defs><style>.cls-2{fill-rule:evenodd}</style></defs><path id="Rectangle_109_copy_6" data-name="Rectangle 109 copy 6" fill="#fff" d="M0 0h768v430H0z"/><path id="UTILITY_JUMPSUIT_Woven_b._1980_Our_first_flightsuit_appeared_" data-name="UTILITY JUMPSUIT Woven, b. 1980 Our first flightsuit appeared" class="cls-2" d="M54.188 67.684c6.527 0 11.212-4.454 11.212-11.25V39.962h-6.1v16.549c0 3.264-2.073 5.26-5.107 5.26s-5.107-2-5.107-5.26V39.962h-6.11v16.472c0 6.796 4.647 11.25 11.212 11.25zm23.5-.461h6.144V45.8h7.027v-5.838h-20.12V45.8h6.95v21.423zm18.816 0h6.1V39.962h-6.1v27.261zm13.785 0h17.394v-5.836H116.4V39.962h-6.11v27.261zm23.117 0h6.1V39.962h-6.1v27.261zm18.7 0h6.143V45.8h7.027v-5.838h-20.12V45.8h6.95v21.423zm26.188 0h6.144V55.781l9.945-15.819h-7.1l-5.951 9.829-5.875-9.829h-7.1l9.943 15.781v11.48zm36.365.461c4.684 0 8.908-2.342 8.908-7.91V39.962h-6.105V59.39a2.807 2.807 0 0 1-5.606-.154h-6.028c.001 5.914 4.263 8.448 8.832 8.448zm27.3 0c6.527 0 11.212-4.454 11.212-11.25V39.962h-6.106v16.549c0 3.264-2.073 5.26-5.106 5.26s-5.107-2-5.107-5.26V39.962h-6.1v16.472c-.002 6.796 4.648 11.25 11.21 11.25zm32.677-6.259l7.948-11.02v16.818h6.144V39.962h-5.568l-8.524 11.749-8.524-11.749h-5.568v27.261h6.106V50.406zm40.627-12.133a9.285 9.285 0 0 0-9.6-9.33h-9.253v27.261h6.1v-8.639h3.148a9.254 9.254 0 0 0 9.608-9.292zm-5.914 0a3.587 3.587 0 0 1-3.762 3.571h-3.072v-7.142h3.072a3.565 3.565 0 0 1 3.765 3.571zm19.892 18.392c5.759 0 9.714-3.456 9.752-8.409.039-4.108-2.534-6.719-6.489-8.14l-1.92-.691c-2.879-1.037-4.223-1.689-4.223-3.148 0-1.421 1.651-2.073 3.3-2.073a6.064 6.064 0 0 1 4.723 2.265l3.993-4.224a11.376 11.376 0 0 0-8.793-3.763c-5.452 0-9.407 3.11-9.407 8.409 0 3.724 2.457 6.374 6.873 7.871l1.92.653c2.726.922 3.8 1.881 3.8 3.264 0 1.305-1.267 2.265-3.3 2.265a7.13 7.13 0 0 1-5.644-3.11l-4.685 3.955a11.955 11.955 0 0 0 10.103 4.876zm26.8 0c6.528 0 11.212-4.454 11.212-11.25V39.962h-6.1v16.549c0 3.264-2.074 5.26-5.107 5.26s-5.107-2-5.107-5.26V39.962h-6.105v16.472c0 6.796 4.646 11.25 11.212 11.25zm18.586-.461h6.105V39.962h-6.105v27.261zm18.7 0h6.144V45.8h7.029v-5.838h-20.12V45.8h6.95v21.423zm-335.845 33.6h2.192L64.8 82.076h-2.56L58.306 96.7l-5.413-14.941L47.506 96.7l-3.934-14.624h-2.561l5.122 18.746h2.192L52.919 88.1zm23.337-6.6a6.9 6.9 0 1 0-6.891 6.865 6.775 6.775 0 0 0 6.896-6.867zm-11.486 0a4.584 4.584 0 1 1 4.594 4.753 4.538 4.538 0 0 1-4.588-4.755zm19.88 6.6h1.9l6.1-13.2h-2.529L90.169 97.6l-4.515-9.98h-2.535zm10.3-6.6a6.96 6.96 0 0 0 12.78 3.723L110.5 96.7a4.674 4.674 0 0 1-8.686-2.033h10.825a6.3 6.3 0 0 0 .027-.686c-.027-4.225-2.826-6.627-6.285-6.627a6.69 6.69 0 0 0-6.867 6.867zm6.786-4.858a3.95 3.95 0 0 1 4.04 3.459h-8.37a4.316 4.316 0 0 1 4.331-3.461zm10.9 11.459h2.271v-6.55c0-3.089 1.69-4.832 3.829-4.832 1.848 0 3.115 1.373 3.115 3.591v7.789h2.245V92.69c0-3.274-2.033-5.334-4.991-5.334a4.669 4.669 0 0 0-4.2 2.3v-2.035H117.2v13.2zm19.695-.581a2.257 2.257 0 0 0 .37-1.188 1.954 1.954 0 1 0-3.908 0 1.966 1.966 0 0 0 1.082 1.769l-1.769 3.776h1.5zm15.285-1.452a5.788 5.788 0 0 0 4.647 2.3 6.877 6.877 0 0 0 0-13.729 5.789 5.789 0 0 0-4.647 2.3V81.02h-2.269v19.8h2.271v-2.031zm8.793-4.568a4.5 4.5 0 1 1-4.489-4.779 4.508 4.508 0 0 1 4.491 4.777zm9.766 4.832a1.954 1.954 0 1 0-1.954 1.98 1.989 1.989 0 0 0 1.956-1.982zm14.229 1.769h2.271V82.076H183.2l-1.848 2.244h3.617v16.5zm8.026 0h2.9l6.865-8.106a7.2 7.2 0 0 0 2.112-4.779 6.352 6.352 0 0 0-12.7.079 6.057 6.057 0 0 0 5.862 6.02 3.365 3.365 0 0 0 .739-.053zm1.5-12.832a4.027 4.027 0 1 1 4.013 4.04 3.984 3.984 0 0 1-4.006-4.042zm26.435 7.208A5.239 5.239 0 0 0 218 90.287a4.39 4.39 0 0 0 1.9-3.7c0-2.8-2.165-4.832-5.255-4.832-3.01 0-5.28 2.033-5.28 4.832a4.37 4.37 0 0 0 1.954 3.7 5.238 5.238 0 0 0-2.984 4.911c0 3.406 2.64 5.888 6.31 5.888 3.721 0 6.283-2.486 6.283-5.886zm-9.321-8.555a2.791 2.791 0 0 1 3.036-2.746 2.739 2.739 0 0 1 3.01 2.746 2.8 2.8 0 0 1-3.01 2.772 2.857 2.857 0 0 1-3.036-2.773zm-.977 8.555a3.722 3.722 0 0 1 4.013-3.749 3.744 3.744 0 1 1 0 7.472 3.731 3.731 0 0 1-4.013-3.723zm27.722-1.162v-5.229c0-4.145-2.8-7.05-6.654-7.05s-6.627 2.9-6.627 7.05v5.228c0 4.172 2.772 7.049 6.627 7.049s6.654-2.878 6.654-7.049zm-11.011 0v-5.229c0-3.036 1.822-4.832 4.357-4.832 2.561 0 4.383 1.8 4.383 4.832v5.228c0 3.036-1.822 4.832-4.383 4.832-2.535-.001-4.357-1.796-4.357-4.832zM59.1 145.1a8.81 8.81 0 1 0-8.81 8.81 8.724 8.724 0 0 0 8.81-8.81zm-15.363 0a6.567 6.567 0 1 1 6.553 6.7 6.534 6.534 0 0 1-6.549-6.7zm19.416 3.889c0 2.977 1.776 4.873 4.417 4.873a4.13 4.13 0 0 0 3.7-2.088v1.848h2.065v-12H71.27v5.953c0 2.76-1.464 4.393-3.337 4.393-1.656 0-2.713-1.273-2.713-3.289v-7.057h-2.064v7.369zm15.264 4.633h2.065v-5.953c0-2.809 1.656-4.129 3.169-4.129a3.018 3.018 0 0 1 1.128.192V141.6a4.279 4.279 0 0 0-.936-.1 3.571 3.571 0 0 0-3.361 2.448v-2.328H78.42v12zm17.136 0h2.064v-10.107h3.483v-1.9h-3.479v-2.205c0-1.512.672-2.04 1.993-2.04a4.834 4.834 0 0 1 1.489.24v-1.824a5.433 5.433 0 0 0-1.873-.313 3.428 3.428 0 0 0-3.673 3.721v2.425h-2.545v1.9h2.545v10.106zm10.3-16.683a1.45 1.45 0 0 0-1.441-1.465 1.492 1.492 0 0 0-1.488 1.465 1.475 1.475 0 0 0 1.488 1.464 1.435 1.435 0 0 0 1.443-1.465zm-2.5 16.683h2.065v-12h-2.065v12zm7.15 0h2.065v-5.953c0-2.809 1.656-4.129 3.168-4.129a3.017 3.017 0 0 1 1.128.192V141.6a4.276 4.276 0 0 0-.936-.1 3.57 3.57 0 0 0-3.36 2.448v-2.328h-2.065v12zm17.546-3.337c0-1.8-1.128-2.952-3.169-3.624l-1.3-.433c-1.416-.456-1.848-.912-1.848-1.68 0-.888.888-1.392 2.016-1.392a3.244 3.244 0 0 1 2.552 1.244l1.344-1.3a4.656 4.656 0 0 0-3.841-1.728c-2.376 0-4.057 1.32-4.057 3.264 0 1.68 1.032 2.857 2.977 3.481l1.176.384c1.56.5 2.137 1.08 2.137 1.92 0 1.032-.937 1.633-2.113 1.633a3.224 3.224 0 0 1-3.073-1.9l-1.68.912a4.767 4.767 0 0 0 4.7 2.785c2.43.01 4.184-1.214 4.184-3.567zm10.512 3.169V151.6a4.568 4.568 0 0 1-1.465.241c-1.3 0-1.992-.5-1.992-2.041v-6.289h3.457v-1.9h-3.457v-3.337h-2.065v3.337H130.5v1.9h2.544v6.553a3.379 3.379 0 0 0 3.673 3.673 5.749 5.749 0 0 0 1.849-.284zm11.59.168h2.065v-10.107h3.484v-1.9h-3.481v-2.205c0-1.512.672-2.04 1.992-2.04a4.839 4.839 0 0 1 1.489.24v-1.824a5.435 5.435 0 0 0-1.873-.313 3.429 3.429 0 0 0-3.673 3.721v2.425h-2.544v1.9h2.544v10.106zm7.8 0h2.065v-18h-2.065v18zm9.647-16.683a1.451 1.451 0 0 0-1.441-1.465 1.492 1.492 0 0 0-1.488 1.465 1.475 1.475 0 0 0 1.488 1.464 1.435 1.435 0 0 0 1.448-1.465zm-2.5 16.683h2.064v-12h-2.064v12zm18.362-.7v-11.303h-2.064v1.848a5.108 5.108 0 0 0-4.177-2.088 6.114 6.114 0 0 0 0 12.218 5.124 5.124 0 0 0 4.177-2.113v1.369a3.837 3.837 0 0 1-4.009 4.152 5.136 5.136 0 0 1-4.2-2.016l-1.44 1.44a7.122 7.122 0 0 0 5.665 2.449c3.418 0 6.058-1.945 6.058-5.953zm-10.01-5.449a4.059 4.059 0 1 1 4.057 4.2 4 4 0 0 1-4.047-4.197zm15.1 6.145h2.064v-5.953c0-2.809 1.536-4.393 3.481-4.393 1.68 0 2.832 1.248 2.832 3.265v7.081h2.041v-7.394c0-2.976-1.849-4.848-4.537-4.848a4.245 4.245 0 0 0-3.817 2.088v-7.85h-2.064v18zm21.7-.168v-1.85a4.563 4.563 0 0 1-1.465.241c-1.3 0-1.992-.5-1.992-2.041v-6.289h3.457v-1.9h-3.45v-3.337h-2.064v3.337h-2.545v1.9h2.545v6.553a3.378 3.378 0 0 0 3.672 3.673 5.744 5.744 0 0 0 1.845-.284zm11.616-3.169c0-1.8-1.128-2.952-3.169-3.624l-1.3-.433c-1.416-.456-1.848-.912-1.848-1.68 0-.888.888-1.392 2.016-1.392a3.246 3.246 0 0 1 2.545 1.248l1.344-1.3a4.656 4.656 0 0 0-3.841-1.728c-2.376 0-4.057 1.32-4.057 3.264 0 1.68 1.032 2.857 2.977 3.481l1.176.384c1.56.5 2.137 1.08 2.137 1.92 0 1.032-.937 1.633-2.113 1.633a3.224 3.224 0 0 1-3.073-1.9l-1.68.912a4.767 4.767 0 0 0 4.705 2.785c2.432.01 4.184-1.214 4.184-3.567zm3.982-1.3c0 2.977 1.776 4.873 4.417 4.873a4.13 4.13 0 0 0 3.7-2.088v1.848h2.064v-12h-2.064v5.953c0 2.76-1.464 4.393-3.337 4.393-1.656 0-2.712-1.273-2.712-3.289v-7.057h-2.065v7.369zm17.761-12.05a1.451 1.451 0 0 0-1.441-1.465 1.492 1.492 0 0 0-1.488 1.465 1.475 1.475 0 0 0 1.488 1.464 1.435 1.435 0 0 0 1.444-1.457zm-2.5 16.683h2.064v-12h-2.064v12zm13.681-.168V151.6a4.561 4.561 0 0 1-1.464.241c-1.3 0-1.993-.5-1.993-2.041v-6.289h3.467v-1.9h-3.457v-3.337h-2.064v3.337h-2.549v1.9h2.545v6.553a3.378 3.378 0 0 0 3.673 3.673 5.743 5.743 0 0 0 1.852-.284zm9.958-5.833a6.007 6.007 0 0 0 5.882 6.241 5.262 5.262 0 0 0 4.224-2.088v1.848h2.065v-12h-2.059v1.848a5.262 5.262 0 0 0-4.224-2.088 6.006 6.006 0 0 0-5.882 6.246zm10.274 0a4.1 4.1 0 1 1-4.08-4.345 4.1 4.1 0 0 1 4.086 4.352zm6.982 11.018h2.065v-6.865a5.263 5.263 0 0 0 4.225 2.088 6.252 6.252 0 0 0 0-12.482 5.263 5.263 0 0 0-4.225 2.088v-1.848h-2.059v17.019zm10.058-11.018a4.089 4.089 0 1 1-4.081-4.345 4.1 4.1 0 0 1 4.087 4.352zm6.286 11.018h2.065v-6.865a5.262 5.262 0 0 0 4.224 2.088 6.252 6.252 0 0 0 0-12.482 5.262 5.262 0 0 0-4.224 2.088v-1.848h-2.065v17.019zm10.058-11.018a4.089 4.089 0 1 1-4.081-4.345 4.1 4.1 0 0 1 4.087 4.352zm5.35 0A6.327 6.327 0 0 0 325.38 151l-1.632-1.128a4.25 4.25 0 0 1-7.9-1.848h9.842a5.856 5.856 0 0 0 .024-.624c-.024-3.841-2.568-6.025-5.713-6.025a6.081 6.081 0 0 0-6.239 6.245zm6.169-4.417a3.591 3.591 0 0 1 3.673 3.144h-7.61a3.924 3.924 0 0 1 3.943-3.14zm8.975 4.417a6.006 6.006 0 0 0 5.881 6.241 5.264 5.264 0 0 0 4.225-2.088v1.848h2.064v-12h-2.064v1.848a5.264 5.264 0 0 0-4.225-2.088 6.005 6.005 0 0 0-5.875 6.246zm10.274 0a4.1 4.1 0 1 1-4.081-4.345 4.1 4.1 0 0 1 4.087 4.352zm6.982 6h2.064v-5.953c0-2.809 1.656-4.129 3.169-4.129a3.017 3.017 0 0 1 1.128.192V141.6a4.276 4.276 0 0 0-.936-.1 3.571 3.571 0 0 0-3.361 2.448v-2.328h-2.064v12zm8.616-6A6.327 6.327 0 0 0 366.4 151l-1.632-1.128a4.25 4.25 0 0 1-7.9-1.848h9.842a5.856 5.856 0 0 0 .024-.624c-.024-3.841-2.568-6.025-5.713-6.025a6.081 6.081 0 0 0-6.243 6.245zm6.169-4.417a3.591 3.591 0 0 1 3.673 3.144h-7.61a3.924 3.924 0 0 1 3.943-3.14zm8.974 4.417a6.007 6.007 0 0 0 5.882 6.241 5.266 5.266 0 0 0 4.225-2.088v1.848h2.064v-18h-2.064v7.85a5.266 5.266 0 0 0-4.225-2.088 6.006 6.006 0 0 0-5.876 6.244zm10.275 0a4.1 4.1 0 1 1-4.081-4.345 4.1 4.1 0 0 1 4.091 4.352zm16.534-10.682a1.45 1.45 0 0 0-1.441-1.465 1.492 1.492 0 0 0-1.488 1.465 1.475 1.475 0 0 0 1.488 1.464 1.435 1.435 0 0 0 1.447-1.457zm-2.5 16.683h2.076v-12h-2.065v12zm7.176 0h2.064v-5.953c0-2.809 1.537-4.393 3.481-4.393 1.681 0 2.833 1.248 2.833 3.265v7.081h2.04v-7.394c0-2.976-1.848-4.848-4.537-4.848a4.246 4.246 0 0 0-3.817 2.088v-1.848H401.4v12zm21.455-6a6.006 6.006 0 0 0 5.881 6.241 5.263 5.263 0 0 0 4.225-2.088v1.848h2.065v-12h-2.056v1.848a5.263 5.263 0 0 0-4.225-2.088 6.006 6.006 0 0 0-5.881 6.245zm10.274 0a4.1 4.1 0 1 1-4.08-4.345 4.1 4.1 0 0 1 4.089 4.351zm15.526 6h2.065v-17.036h-3.673l-1.68 2.04h3.288v15zm7.3 0h2.64l6.242-7.37a6.546 6.546 0 0 0 1.92-4.344 5.774 5.774 0 0 0-11.546.072 5.506 5.506 0 0 0 5.329 5.473 3.059 3.059 0 0 0 .672-.048zm1.368-11.666a3.661 3.661 0 1 1 3.649 3.672 3.622 3.622 0 0 1-3.644-3.665zm24.026 6.553a4.763 4.763 0 0 0-2.664-4.465 3.99 3.99 0 0 0 1.728-3.361c0-2.544-1.969-4.392-4.777-4.392a4.484 4.484 0 0 0-4.8 4.392 3.974 3.974 0 0 0 1.776 3.361 4.763 4.763 0 0 0-2.712 4.465c0 3.1 2.4 5.353 5.737 5.353 3.389.007 5.717-2.254 5.717-5.346zm-8.474-7.778a2.537 2.537 0 0 1 2.761-2.5 2.489 2.489 0 0 1 2.736 2.5 2.547 2.547 0 0 1-2.736 2.521 2.6 2.6 0 0 1-2.756-2.514zm-.888 7.778a3.384 3.384 0 0 1 3.649-3.409 3.4 3.4 0 1 1 0 6.794 3.393 3.393 0 0 1-3.644-3.378zm25.2-1.056V142.7c0-3.769-2.544-6.409-6.049-6.409s-6.025 2.64-6.025 6.409v4.753c0 3.792 2.52 6.409 6.025 6.409s6.056-2.618 6.056-6.41zm-10.01 0V142.7c0-2.761 1.656-4.393 3.961-4.393 2.328 0 3.985 1.632 3.985 4.393v4.753c0 2.76-1.657 4.393-3.985 4.393-2.298-.001-3.954-1.634-3.954-4.394zm21.959 6.169h6.1c3.456 0 5.713-2.137 5.713-4.969a4.061 4.061 0 0 0-2.949-4.074 3.863 3.863 0 0 0 1.824-3.481c0-2.4-1.92-4.512-5.089-4.512h-5.593v17.043zm2.233-9.722v-5.305h3.36a2.679 2.679 0 0 1 2.9 2.665 2.623 2.623 0 0 1-2.9 2.64h-3.36zm0 7.705v-5.785h3.985c2.256 0 3.408 1.249 3.408 2.905 0 1.68-1.152 2.88-3.432 2.88h-3.961zm12.815-3.984a6.006 6.006 0 0 0 5.881 6.241 5.263 5.263 0 0 0 4.225-2.088v1.848h2.065v-12H534.3v1.848a5.263 5.263 0 0 0-4.225-2.088 6.005 6.005 0 0 0-5.884 6.246zm10.274 0a4.1 4.1 0 1 1-4.081-4.345 4.1 4.1 0 0 1 4.088 4.352zm6.982 6h2.064v-5.953c0-2.809 1.537-4.393 3.481-4.393 1.68 0 2.833 1.248 2.833 3.265v7.081h2.04v-7.394c0-2.976-1.848-4.848-4.537-4.848a4.245 4.245 0 0 0-3.817 2.088v-1.848h-2.064v12zm14.4-6a6.007 6.007 0 0 0 5.882 6.241 5.266 5.266 0 0 0 4.225-2.088v1.848h2.064v-12h-2.064v1.848a5.266 5.266 0 0 0-4.225-2.088 6.006 6.006 0 0 0-5.876 6.246zm10.275 0a4.1 4.1 0 1 1-4.081-4.345 4.1 4.1 0 0 1 4.087 4.352zm6.981 6h2.065v-5.953c0-2.809 1.536-4.393 3.481-4.393 1.68 0 2.832 1.248 2.832 3.265v7.081h2.041v-7.394c0-2.976-1.849-4.848-4.537-4.848a4.244 4.244 0 0 0-3.817 2.088v-1.848H573.1v12zm14.4-6a6.006 6.006 0 0 0 5.881 6.241 5.263 5.263 0 0 0 4.225-2.088v1.848h2.065v-12h-2.065v1.848a5.263 5.263 0 0 0-4.225-2.088 6.005 6.005 0 0 0-5.877 6.246zm10.274 0a4.1 4.1 0 1 1-4.081-4.345 4.1 4.1 0 0 1 4.087 4.352zm14.35 6h2.232v-7.754h1.656l6.554 7.754h2.808l-6.553-7.778c2.617-.384 4.2-2.064 4.2-4.56 0-2.809-1.944-4.7-5.089-4.7h-5.809v17.043zm2.232-9.746v-5.233h3.313c1.944 0 3.12.912 3.12 2.641 0 1.7-1.176 2.592-3.12 2.592h-3.313zm12.6 3.745A6.328 6.328 0 0 0 638.576 151l-1.633-1.128a4.249 4.249 0 0 1-7.9-1.848h9.842a5.856 5.856 0 0 0 .024-.624c-.024-3.841-2.569-6.025-5.713-6.025a6.082 6.082 0 0 0-6.239 6.245zm6.17-4.417a3.59 3.59 0 0 1 3.672 3.144h-7.604a3.923 3.923 0 0 1 3.937-3.139zm9.91 15.435h2.068v-6.865a5.263 5.263 0 0 0 4.225 2.088 6.252 6.252 0 0 0 0-12.482 5.263 5.263 0 0 0-4.225 2.088v-1.848h-2.065v17.019zm10.068-11.01a4.089 4.089 0 1 1-4.08-4.345 4.1 4.1 0 0 1 4.08 4.345zm6.118 1.368c0 2.977 1.777 4.873 4.417 4.873a4.13 4.13 0 0 0 3.7-2.088v1.848h2.064v-12h-2.064v5.953c0 2.76-1.464 4.393-3.337 4.393-1.656 0-2.712-1.273-2.712-3.289v-7.057h-2.065v7.369zm17.329 2.785a5.262 5.262 0 0 0 4.224 2.088 6.252 6.252 0 0 0 0-12.482 5.262 5.262 0 0 0-4.224 2.088v-7.85h-2.065v18h2.065v-1.848zm7.993-4.153a4.089 4.089 0 1 1-4.081-4.345 4.1 4.1 0 0 1 4.076 4.345zm6.262 6h2.064v-18H690.8v18zm9.672-16.683a1.45 1.45 0 0 0-1.44-1.465 1.492 1.492 0 0 0-1.488 1.465 1.475 1.475 0 0 0 1.488 1.464 1.434 1.434 0 0 0 1.435-1.463zm-2.5 16.683h2.064v-12h-2.064v12zm18.074-2.977l-1.8-1.008a4.069 4.069 0 0 1-3.744 2.305 4.323 4.323 0 0 1 0-8.642 4.068 4.068 0 0 1 3.744 2.3l1.8-1.008a6.216 6.216 0 0 0-5.545-3.216 6.241 6.241 0 1 0 0 12.482 6.215 6.215 0 0 0 5.544-3.212zm-662.8 28.8l-1.8-1.009a4.068 4.068 0 0 1-3.748 2.306 4.323 4.323 0 0 1 0-8.642 4.068 4.068 0 0 1 3.745 2.3l1.8-1.009a6.216 6.216 0 0 0-5.545-3.216 6.241 6.241 0 1 0 0 12.482 6.216 6.216 0 0 0 5.547-3.211zm2.925-3.025a6.006 6.006 0 0 0 5.881 6.241 5.264 5.264 0 0 0 4.225-2.088v1.848h2.064v-12h-2.065v1.848a5.264 5.264 0 0 0-4.225-2.088 6.006 6.006 0 0 0-5.881 6.24zm10.274 0a4.1 4.1 0 1 1-4.081-4.345 4.1 4.1 0 0 1 4.08 4.346zm13.487 5.833V180.4a4.564 4.564 0 0 1-1.464.24c-1.3 0-1.992-.5-1.992-2.041v-6.289h3.457v-1.9h-3.459v-3.337h-2.064v3.337h-2.545v1.9h2.545v6.553a3.379 3.379 0 0 0 3.673 3.673 5.745 5.745 0 0 0 1.848-.284zm2.735-5.833a6.006 6.006 0 0 0 5.881 6.241 5.264 5.264 0 0 0 4.225-2.088v1.848h2.065v-12h-2.066v1.848a5.264 5.264 0 0 0-4.225-2.088 6.006 6.006 0 0 0-5.881 6.24zm10.274 0a4.1 4.1 0 1 1-4.081-4.345 4.1 4.1 0 0 1 4.08 4.346zm6.982 6h2.064v-18h-2.065v18zm18.77-6a6.278 6.278 0 1 0-6.265 6.241 6.159 6.159 0 0 0 6.264-6.24zm-10.442 0a4.167 4.167 0 1 1 4.177 4.321 4.126 4.126 0 0 1-4.178-4.32zm25.778 5.3v-11.3h-2.065v1.848a5.106 5.106 0 0 0-4.177-2.088 6.114 6.114 0 0 0 0 12.218 5.125 5.125 0 0 0 4.177-2.112v1.368a3.837 3.837 0 0 1-4.009 4.153 5.135 5.135 0 0 1-4.2-2.017l-1.44 1.441a7.126 7.126 0 0 0 5.665 2.448c3.407 0 6.048-1.944 6.048-5.953zm-10.011-5.449a4.059 4.059 0 1 1 4.057 4.2 4 4 0 0 1-4.058-4.194zm17.953 4.537a1.777 1.777 0 1 0-1.777 1.8 1.81 1.81 0 0 0 1.776-1.794zm11.759 1.608h4.9c5.233 0 9.074-3.649 9.074-8.521s-3.841-8.522-9.074-8.522h-4.9v17.049zm2.232-2.088v-12.861h2.665c4.105 0 6.817 2.737 6.817 6.434s-2.712 6.433-6.817 6.433h-2.665zm15.768-2.545c0 2.977 1.776 4.873 4.417 4.873a4.129 4.129 0 0 0 3.7-2.088v1.848h2.065v-12h-2.065v5.953c0 2.76-1.464 4.393-3.336 4.393-1.657 0-2.713-1.272-2.713-3.289v-7.057h-2.064v7.369zm17.328 2.785a5.263 5.263 0 0 0 4.225 2.088 6.252 6.252 0 0 0 0-12.482 5.263 5.263 0 0 0-4.225 2.088v-7.849H187v18h2.064v-1.848zm7.994-4.153a4.089 4.089 0 1 1-4.081-4.345 4.1 4.1 0 0 1 4.08 4.351zm8.326 4.153a5.263 5.263 0 0 0 4.225 2.088 6.252 6.252 0 0 0 0-12.482 5.263 5.263 0 0 0-4.225 2.088v-7.849h-2.065v18h2.065v-1.848zm7.993-4.153a4.089 4.089 0 1 1-4.08-4.345 4.1 4.1 0 0 1 4.079 4.351zm5.326 0a6.328 6.328 0 0 0 11.618 3.385l-1.632-1.129a4.25 4.25 0 0 1-7.9-1.848h9.842a5.856 5.856 0 0 0 .024-.624c-.024-3.841-2.568-6.025-5.713-6.025a6.081 6.081 0 0 0-6.238 6.247zm6.168-4.413a3.591 3.591 0 0 1 3.673 3.145h-7.61a3.924 3.924 0 0 1 3.937-3.145zm8.975 4.417a6.005 6.005 0 0 0 5.881 6.241 5.264 5.264 0 0 0 4.225-2.088v1.848h2.064v-18h-2.064v7.849a5.264 5.264 0 0 0-4.225-2.088 6.005 6.005 0 0 0-5.881 6.24zm10.274 0a4.1 4.1 0 1 1-4.081-4.345 4.1 4.1 0 0 1 4.081 4.347zm20.135 5.833v-1.85a4.564 4.564 0 0 1-1.465.24c-1.3 0-1.992-.5-1.992-2.041v-6.289h3.457v-1.9h-3.457v-3.337h-2.064v3.337h-2.545v1.9h2.545v6.553a3.378 3.378 0 0 0 3.672 3.673 5.744 5.744 0 0 0 1.849-.284zm3.838.168h2.065v-5.953c0-2.809 1.536-4.393 3.48-4.393 1.681 0 2.833 1.248 2.833 3.265v7.081h2.041v-7.393c0-2.977-1.849-4.849-4.537-4.849a4.244 4.244 0 0 0-3.817 2.088v-7.849h-2.065v18zm14.4-6a6.328 6.328 0 0 0 11.618 3.385l-1.632-1.129a4.25 4.25 0 0 1-7.9-1.848h9.842a5.856 5.856 0 0 0 .024-.624c-.024-3.841-2.568-6.025-5.713-6.025a6.081 6.081 0 0 0-6.239 6.242zm6.169-4.418a3.591 3.591 0 0 1 3.673 3.145h-7.61a3.924 3.924 0 0 1 3.937-3.145zm17.279 10.418h2.232v-7.657h6.073v-2.111h-6.073v-5.161h7.682v-2.112h-9.914v17.043zm13.583 0h2.065v-18h-2.065v18zm9.673-16.683a1.45 1.45 0 0 0-1.441-1.464 1.491 1.491 0 0 0-1.488 1.464 1.475 1.475 0 0 0 1.488 1.464 1.435 1.435 0 0 0 1.441-1.462zm-2.5 16.683h2.065v-12H326.7v12zm18.362-.7v-11.3h-2.064v1.848a5.108 5.108 0 0 0-4.177-2.088 6.114 6.114 0 0 0 0 12.218 5.126 5.126 0 0 0 4.177-2.112v1.368a3.837 3.837 0 0 1-4.009 4.153 5.134 5.134 0 0 1-4.2-2.017l-1.44 1.441a7.126 7.126 0 0 0 5.665 2.448c3.411 0 6.051-1.944 6.051-5.953zm-10.01-5.449a4.059 4.059 0 1 1 4.057 4.2 4 4 0 0 1-4.054-4.194zm15.1 6.145h2.064v-5.953c0-2.809 1.537-4.393 3.481-4.393 1.68 0 2.833 1.248 2.833 3.265v7.081h2.04v-7.393c0-2.977-1.848-4.849-4.537-4.849a4.245 4.245 0 0 0-3.817 2.088v-7.849h-2.064v18zm21.7-.168V180.4a4.562 4.562 0 0 1-1.464.24c-1.3 0-1.993-.5-1.993-2.041v-6.289h3.457v-1.9h-3.457v-3.337h-2.068v3.337h-2.545v1.9h2.545v6.553a3.378 3.378 0 0 0 3.673 3.673 5.743 5.743 0 0 0 1.848-.284zm18.792-4.537v-12.332h-2.208v12.1c0 2.329-1.32 3.169-2.809 3.169a2.667 2.667 0 0 1-2.832-2.785h-2.209c0 3.145 2.281 4.849 5.065 4.849 2.613-.002 4.989-1.418 4.989-4.995zm4.871.072c0 2.977 1.776 4.873 4.417 4.873a4.129 4.129 0 0 0 3.7-2.088v1.848h2.065v-12h-2.065v5.953c0 2.76-1.464 4.393-3.336 4.393-1.657 0-2.713-1.272-2.713-3.289v-7.057H395.5v7.369zm15.264 4.633h2.064v-5.953c0-2.713 1.368-4.393 3.313-4.393 1.56 0 2.352 1.344 2.352 3.289v7.057h2.065v-5.953c0-2.713 1.344-4.393 3.288-4.393 1.561 0 2.377 1.344 2.377 3.289v7.057h2.064v-7.369c0-2.929-1.584-4.873-4.2-4.873a4.155 4.155 0 0 0-3.937 2.568 3.772 3.772 0 0 0-3.7-2.568 4.034 4.034 0 0 0-3.625 2.088v-1.848h-2.064v12zm22.439 5.017h2.065v-6.865a5.263 5.263 0 0 0 4.225 2.088 6.252 6.252 0 0 0 0-12.482 5.263 5.263 0 0 0-4.225 2.088v-1.848h-2.065v17.019zm10.059-11.018a4.089 4.089 0 1 1-4.081-4.345 4.1 4.1 0 0 1 4.077 4.351zm14.039 2.664c0-1.8-1.128-2.952-3.169-3.624l-1.3-.432c-1.416-.456-1.848-.912-1.848-1.681 0-.888.888-1.392 2.016-1.392a3.244 3.244 0 0 1 2.545 1.248l1.344-1.3a4.654 4.654 0 0 0-3.841-1.728c-2.376 0-4.057 1.32-4.057 3.264 0 1.681 1.033 2.857 2.977 3.481l1.176.384c1.561.5 2.137 1.08 2.137 1.921 0 1.032-.936 1.632-2.113 1.632a3.22 3.22 0 0 1-3.072-1.9l-1.681.913a4.768 4.768 0 0 0 4.7 2.784c2.43.013 4.182-1.211 4.182-3.564zm3.982-1.3c0 2.977 1.777 4.873 4.417 4.873a4.129 4.129 0 0 0 3.7-2.088v1.848h2.064v-12H469.4v5.953c0 2.76-1.464 4.393-3.337 4.393-1.656 0-2.712-1.272-2.712-3.289v-7.057h-2.065v7.369zm17.761-12.05a1.45 1.45 0 0 0-1.441-1.464 1.491 1.491 0 0 0-1.488 1.464 1.475 1.475 0 0 0 1.488 1.464 1.435 1.435 0 0 0 1.437-1.454zm-2.5 16.683h2.065v-12h-2.065v12zm13.681-.168V180.4a4.562 4.562 0 0 1-1.464.24c-1.3 0-1.992-.5-1.992-2.041v-6.289h3.456v-1.9h-3.456v-3.337h-2.065v3.337h-2.544v1.9h2.544v6.553a3.379 3.379 0 0 0 3.673 3.673 5.743 5.743 0 0 0 1.847-.284zm6.407-.36a2.052 2.052 0 0 0 .337-1.08 1.777 1.777 0 1 0-3.553 0 1.786 1.786 0 0 0 .984 1.608l-1.608 3.433h1.368zm14.328-16.155a1.449 1.449 0 0 0-1.44-1.464 1.492 1.492 0 0 0-1.489 1.464 1.476 1.476 0 0 0 1.489 1.464 1.434 1.434 0 0 0 1.439-1.454zm-2.5 16.683h2.064v-12h-2.064v12zm13.681-.168V180.4a4.564 4.564 0 0 1-1.465.24c-1.3 0-1.992-.5-1.992-2.041v-6.289h3.457v-1.9H518.7v-3.337h-2.064v3.337h-2.545v1.9h2.545v6.553a3.378 3.378 0 0 0 3.672 3.673 5.749 5.749 0 0 0 1.844-.284zm20.64.168h1.825l4.081-12h-2.185l-2.9 8.761-3-8.761h-1.584l-3 8.761-2.9-8.761h-2.16l4.081 12h1.824l2.977-8.642zm8.35-6a6.005 6.005 0 0 0 5.881 6.241 5.264 5.264 0 0 0 4.225-2.088v1.848h2.064v-12h-2.064v1.848a5.264 5.264 0 0 0-4.225-2.088 6.005 6.005 0 0 0-5.878 6.248zm10.274 0a4.1 4.1 0 1 1-4.081-4.345 4.1 4.1 0 0 1 4.084 4.354zm14.759 2.664c0-1.8-1.128-2.952-3.168-3.624l-1.3-.432c-1.416-.456-1.848-.912-1.848-1.681 0-.888.888-1.392 2.016-1.392a3.243 3.243 0 0 1 2.545 1.248l1.344-1.3a4.654 4.654 0 0 0-3.841-1.728c-2.376 0-4.056 1.32-4.056 3.264 0 1.681 1.032 2.857 2.976 3.481l1.176.384c1.561.5 2.137 1.08 2.137 1.921 0 1.032-.936 1.632-2.113 1.632a3.22 3.22 0 0 1-3.072-1.9l-1.681.913a4.769 4.769 0 0 0 4.713 2.8c2.423 0 4.175-1.224 4.175-3.577zm13.7-13.346a1.45 1.45 0 0 0-1.441-1.464 1.491 1.491 0 0 0-1.488 1.464 1.475 1.475 0 0 0 1.488 1.464 1.435 1.435 0 0 0 1.447-1.455zm-2.5 16.683h2.065v-12h-2.065v12zm7.176 0h2.064v-5.953c0-2.809 1.537-4.393 3.481-4.393 1.681 0 2.833 1.248 2.833 3.265v7.081h2.04v-7.393c0-2.977-1.848-4.849-4.537-4.849a4.246 4.246 0 0 0-3.817 2.088v-1.848h-2.064v12zm23.113-3.337c0-1.8-1.128-2.952-3.168-3.624l-1.3-.432c-1.416-.456-1.848-.912-1.848-1.681 0-.888.888-1.392 2.016-1.392a3.243 3.243 0 0 1 2.545 1.248l1.344-1.3a4.654 4.654 0 0 0-3.841-1.728c-2.376 0-4.056 1.32-4.056 3.264 0 1.681 1.032 2.857 2.976 3.481l1.176.384c1.561.5 2.137 1.08 2.137 1.921 0 1.032-.936 1.632-2.112 1.632a3.22 3.22 0 0 1-3.073-1.9l-1.681.913a4.769 4.769 0 0 0 4.705 2.784c2.437.016 4.189-1.208 4.189-3.561zm4.151 8.354h2.064v-6.865a5.263 5.263 0 0 0 4.225 2.088 6.252 6.252 0 0 0 0-12.482 5.263 5.263 0 0 0-4.225 2.088v-1.848h-2.064v17.019zm10.058-11.018a4.089 4.089 0 1 1-4.081-4.345 4.1 4.1 0 0 1 4.09 4.354zm8.782-10.682a1.449 1.449 0 0 0-1.44-1.464 1.491 1.491 0 0 0-1.489 1.464 1.475 1.475 0 0 0 1.489 1.464 1.434 1.434 0 0 0 1.449-1.455zm-2.5 16.683h2.065v-12h-2.065v12zm7.176 0h2.065v-5.953c0-2.809 1.656-4.129 3.168-4.129a3.022 3.022 0 0 1 1.129.192v-2.136a4.285 4.285 0 0 0-.937-.1 3.57 3.57 0 0 0-3.36 2.448v-2.328h-2.053v12zm8.616-6a6.328 6.328 0 0 0 11.619 3.385l-1.633-1.129a4.249 4.249 0 0 1-7.9-1.848h9.842a5.856 5.856 0 0 0 .024-.624c-.024-3.841-2.569-6.025-5.713-6.025a6.082 6.082 0 0 0-6.227 6.249zm6.17-4.417a3.59 3.59 0 0 1 3.672 3.145h-7.609a3.923 3.923 0 0 1 3.949-3.139zm8.974 4.417a6.006 6.006 0 0 0 5.881 6.241 5.263 5.263 0 0 0 4.225-2.088v1.848h2.065v-18h-2.065v7.849a5.263 5.263 0 0 0-4.225-2.088 6.006 6.006 0 0 0-5.869 6.246zm10.274 0a4.1 4.1 0 1 1-4.081-4.345 4.1 4.1 0 0 1 4.093 4.353zm16.1 4.153a5.264 5.264 0 0 0 4.225 2.088 6.252 6.252 0 0 0 0-12.482 5.264 5.264 0 0 0-4.225 2.088v-7.849h-2.064v18h2.064v-1.848zm7.994-4.153a4.089 4.089 0 1 1-4.081-4.345 4.1 4.1 0 0 1 4.095 4.353zm9.214 11.018l7.874-17.019h-2.3l-4.105 9.1-4.129-9.1h-2.281L713 181.8l-2.616 5.641h2.3zM48.854 211.051V209.2a4.564 4.564 0 0 1-1.464.24c-1.3 0-1.992-.5-1.992-2.04v-6.29h3.457v-1.9H45.4v-3.33h-2.068v3.337h-2.544v1.9h2.544v6.554a3.378 3.378 0 0 0 3.673 3.672 5.745 5.745 0 0 0 1.849-.292zm3.839.168h2.064v-5.953c0-2.808 1.536-4.393 3.481-4.393 1.68 0 2.833 1.249 2.833 3.265v7.081h2.039v-7.393c0-2.977-1.848-4.849-4.537-4.849a4.245 4.245 0 0 0-3.817 2.088v-7.849h-2.064v18zm14.4-6A6.328 6.328 0 0 0 78.71 208.6l-1.632-1.128a4.25 4.25 0 0 1-7.9-1.849h9.842a5.856 5.856 0 0 0 .026-.623c-.024-3.841-2.568-6.025-5.713-6.025a6.082 6.082 0 0 0-6.241 6.243zm6.169-4.417a3.592 3.592 0 0 1 3.673 3.145h-7.61a3.924 3.924 0 0 1 3.936-3.147zm30.409 3.793v-10.419h-2.232v10.466c0 3.049-1.776 4.753-4.441 4.753s-4.441-1.7-4.441-4.753v-10.466h-2.233v10.418c0 4.249 2.737 6.913 6.673 6.913s6.673-2.664 6.673-6.913zm7.414 5.017a1.776 1.776 0 1 0-1.776 1.8 1.808 1.808 0 0 0 1.775-1.801zm3.311-1.176c.889 1.752 3.169 3.072 5.978 3.072 3.168 0 5.425-1.824 5.425-4.728 0-2.521-1.44-3.961-3.961-4.921l-2.064-.793c-1.729-.648-2.569-1.3-2.569-2.736 0-1.416 1.392-2.353 3.073-2.353a4.218 4.218 0 0 1 3.384 1.681l1.633-1.44a6.215 6.215 0 0 0-4.969-2.329c-3.049 0-5.329 1.752-5.329 4.537 0 2.328 1.2 3.721 3.864 4.7l2.257.864c1.584.6 2.448 1.512 2.448 2.881 0 1.584-1.392 2.544-3.144 2.544a4.762 4.762 0 0 1-4.225-2.328zm18.433 1.176a1.777 1.777 0 1 0-1.776 1.8 1.808 1.808 0 0 0 1.775-1.801zm26.282 1.608v-17.044H156.9v13.275l-10.37-13.275h-1.945v17.043h2.233v-13.274l10.37 13.274h1.92zm4.269-6a6.005 6.005 0 0 0 5.881 6.241 5.263 5.263 0 0 0 4.225-2.088v1.848h2.065v-12h-2.065v1.848a5.263 5.263 0 0 0-4.225-2.088 6.006 6.006 0 0 0-5.882 6.237zm10.274 0a4.1 4.1 0 1 1-4.081-4.345 4.1 4.1 0 0 1 4.08 4.343zm10.727 6h1.728l5.545-12h-2.3l-4.1 9.074-4.1-9.074h-2.3zm13.751 5.017l7.874-17.019h-2.3l-4.1 9.1-4.129-9.1h-2.281l5.257 11.378-2.616 5.641h2.3zm14.208-19.467a2.122 2.122 0 0 0 .336-1.081 1.788 1.788 0 1 0-3.576 0 1.86 1.86 0 0 0 .984 1.609l-1.609 3.432h1.393zm11.209 11.114c0-1.8-1.128-2.953-3.168-3.625l-1.3-.432c-1.416-.456-1.848-.912-1.848-1.68 0-.889.888-1.393 2.017-1.393A3.24 3.24 0 0 1 221.8 202l1.344-1.3a4.654 4.654 0 0 0-3.84-1.728c-2.377 0-4.057 1.32-4.057 3.265 0 1.68 1.032 2.856 2.976 3.48l1.177.384c1.56.5 2.136 1.081 2.136 1.921 0 1.032-.936 1.632-2.112 1.632a3.221 3.221 0 0 1-3.073-1.9l-1.68.912a4.767 4.767 0 0 0 4.705 2.784c2.424.009 4.172-1.215 4.172-3.567zm24.241 3.336h1.993l4.657-17.043h-2.33l-3.577 13.3-4.921-13.587-4.9 13.587-3.576-13.3h-2.326l4.657 17.043h1.993l4.176-11.57zm23.928 0h1.993l4.657-17.043h-2.329l-3.577 13.3-4.921-13.587-4.9 13.587-3.577-13.3h-2.328l4.657 17.043h1.992l4.177-11.57zm10.653 0h2.229v-17.044h-2.23v17.043zm7.944 0h2.232v-17.044h-2.232v17.043zm14.519-4.633c0 2.977 1.777 4.873 4.417 4.873a4.13 4.13 0 0 0 3.7-2.088v1.848h2.064v-12h-2.064v5.953c0 2.761-1.464 4.393-3.337 4.393-1.656 0-2.712-1.272-2.712-3.289v-7.057h-2.065v7.369zm15.264 4.633h2.065v-5.953c0-2.808 1.536-4.393 3.48-4.393 1.681 0 2.833 1.249 2.833 3.265v7.081h2.04v-7.393c0-2.977-1.848-4.849-4.537-4.849a4.243 4.243 0 0 0-3.816 2.088v-1.848H320.1v12zm17.832-16.683a1.449 1.449 0 0 0-1.44-1.464 1.491 1.491 0 0 0-1.49 1.463 1.475 1.475 0 0 0 1.489 1.464 1.434 1.434 0 0 0 1.44-1.464zm-2.5 16.683h2.07v-12h-2.064v12zm8.184 0h2.064v-10.107h3.481v-1.9h-3.481v-2.208c0-1.513.672-2.041 1.993-2.041a4.833 4.833 0 0 1 1.488.24v-1.824a5.454 5.454 0 0 0-1.872-.312 3.428 3.428 0 0 0-3.673 3.721v2.424h-2.545v1.9h2.545v10.106zm20.282-6a6.277 6.277 0 1 0-6.265 6.241 6.159 6.159 0 0 0 6.269-6.243zm-10.442 0a4.168 4.168 0 1 1 4.177 4.321 4.126 4.126 0 0 1-4.174-4.323zm14.591 6h2.065v-5.953c0-2.808 1.656-4.129 3.169-4.129a3.017 3.017 0 0 1 1.128.192v-2.136a4.276 4.276 0 0 0-.936-.1 3.57 3.57 0 0 0-3.361 2.449v-2.329h-2.065v12zm9.984 0h2.071v-5.953c0-2.712 1.368-4.393 3.313-4.393 1.56 0 2.352 1.345 2.352 3.289v7.057h2.065v-5.953c0-2.712 1.344-4.393 3.288-4.393 1.561 0 2.377 1.345 2.377 3.289v7.057h2.064v-7.37c0-2.929-1.584-4.873-4.2-4.873a4.155 4.155 0 0 0-3.937 2.569 3.772 3.772 0 0 0-3.7-2.569 4.034 4.034 0 0 0-3.625 2.088v-1.848h-2.065v12zm30.218-3.336c0-1.8-1.128-2.953-3.169-3.625l-1.3-.432c-1.416-.456-1.848-.912-1.848-1.68 0-.889.888-1.393 2.016-1.393A3.243 3.243 0 0 1 406.5 202l1.344-1.3a4.656 4.656 0 0 0-3.844-1.723c-2.376 0-4.057 1.32-4.057 3.265 0 1.68 1.032 2.856 2.977 3.48l1.176.384c1.56.5 2.137 1.081 2.137 1.921 0 1.032-.937 1.632-2.113 1.632a3.222 3.222 0 0 1-3.073-1.9l-1.68.912a4.768 4.768 0 0 0 4.7 2.784c2.433.004 4.183-1.22 4.183-3.572zm7.007 1.728a1.777 1.777 0 1 0-1.777 1.8 1.809 1.809 0 0 0 1.78-1.801zm11.759 1.608h2.232v-7.753h1.657l6.553 7.753h2.809l-6.554-7.777c2.617-.384 4.2-2.064 4.2-4.561 0-2.808-1.944-4.705-5.089-4.705h-5.809v17.043zm2.232-9.745v-5.233h3.313c1.944 0 3.121.912 3.121 2.64 0 1.7-1.177 2.593-3.121 2.593h-3.313zm12.6 3.744a6.328 6.328 0 0 0 11.619 3.385l-1.632-1.128a4.25 4.25 0 0 1-7.9-1.849h9.842a5.856 5.856 0 0 0 .026-.627c-.024-3.841-2.569-6.025-5.713-6.025a6.083 6.083 0 0 0-6.24 6.243zm6.17-4.417a3.593 3.593 0 0 1 3.673 3.145h-7.61a3.924 3.924 0 0 1 3.939-3.147zm9.526 4.729h6.122v-2.064h-6.122v2.064zm13.345-10.994a1.45 1.45 0 0 0-1.441-1.464 1.491 1.491 0 0 0-1.488 1.464 1.475 1.475 0 0 0 1.49 1.463 1.435 1.435 0 0 0 1.441-1.464zm-2.5 16.683h2.065v-12h-2.065v12zm7.176 0h2.064v-5.953c0-2.808 1.537-4.393 3.481-4.393 1.681 0 2.833 1.249 2.833 3.265v7.081h2.04v-7.393c0-2.977-1.848-4.849-4.537-4.849a4.246 4.246 0 0 0-3.817 2.088v-1.848h-2.064v12zm21.7-.168V209.2a4.562 4.562 0 0 1-1.464.24c-1.3 0-1.993-.5-1.993-2.04v-6.29h3.457v-1.9h-3.457v-3.33h-2.064v3.337H489.2v1.9h2.545v6.554a3.378 3.378 0 0 0 3.673 3.672 5.743 5.743 0 0 0 1.846-.292zm3.839.168h2.064v-5.953c0-2.808 1.657-4.129 3.169-4.129a3.017 3.017 0 0 1 1.128.192v-2.136a4.276 4.276 0 0 0-.936-.1 3.571 3.571 0 0 0-3.361 2.449v-2.329H501.1v12zm21.146-6a6.277 6.277 0 1 0-6.265 6.241 6.159 6.159 0 0 0 6.267-6.243zm-10.442 0a4.168 4.168 0 1 1 4.177 4.321 4.126 4.126 0 0 1-4.175-4.323zm13.655 0a6.006 6.006 0 0 0 5.882 6.241 5.266 5.266 0 0 0 4.225-2.088v1.848h2.064v-18h-2.064v7.849a5.266 5.266 0 0 0-4.225-2.088 6.007 6.007 0 0 0-5.88 6.236zm10.275 0a4.1 4.1 0 1 1-4.081-4.345 4.1 4.1 0 0 1 4.083 4.343zm6.813 1.368c0 2.977 1.777 4.873 4.417 4.873a4.129 4.129 0 0 0 3.7-2.088v1.848h2.064v-12h-2.064v5.953c0 2.761-1.464 4.393-3.337 4.393-1.656 0-2.712-1.272-2.712-3.289v-7.057h-2.066v7.369zm26.163 1.657l-1.8-1.008a4.068 4.068 0 0 1-3.745 2.3 4.323 4.323 0 0 1 0-8.642 4.069 4.069 0 0 1 3.745 2.305l1.8-1.008a6.216 6.216 0 0 0-5.546-3.217 6.241 6.241 0 1 0 0 12.482 6.218 6.218 0 0 0 5.548-3.214zm2.925-3.025a6.328 6.328 0 0 0 11.618 3.385l-1.632-1.128a4.25 4.25 0 0 1-7.9-1.849h9.842a5.856 5.856 0 0 0 .024-.624c-.024-3.841-2.568-6.025-5.713-6.025a6.082 6.082 0 0 0-6.237 6.239zm6.169-4.417a3.592 3.592 0 0 1 3.673 3.145h-7.61a3.925 3.925 0 0 1 3.939-3.148zm8.975 4.417a6.005 6.005 0 0 0 5.881 6.241 5.264 5.264 0 0 0 4.225-2.088v1.848h2.064v-18h-2.064v7.849a5.264 5.264 0 0 0-4.225-2.088 6.006 6.006 0 0 0-5.879 6.236zm10.274 0a4.1 4.1 0 1 1-4.081-4.345 4.1 4.1 0 0 1 4.083 4.343zm14.037 6h2.065v-5.953c0-2.808 1.536-4.393 3.48-4.393 1.681 0 2.833 1.249 2.833 3.265v7.081h2.04v-7.393c0-2.977-1.848-4.849-4.537-4.849a4.243 4.243 0 0 0-3.816 2.088v-1.848h-2.065v12zm14.4-6a6.328 6.328 0 0 0 11.618 3.385l-1.632-1.128a4.25 4.25 0 0 1-7.9-1.849h9.842a5.856 5.856 0 0 0 .024-.624c-.024-3.841-2.568-6.025-5.713-6.025a6.082 6.082 0 0 0-6.237 6.239zm6.169-4.417a3.592 3.592 0 0 1 3.673 3.145h-7.61a3.925 3.925 0 0 1 3.939-3.148zm8.975 4.417a6.005 6.005 0 0 0 5.881 6.241 5.264 5.264 0 0 0 4.225-2.088v1.848h2.064v-12h-2.064v1.848a5.264 5.264 0 0 0-4.225-2.088 6.006 6.006 0 0 0-5.879 6.237zm10.274 0a4.1 4.1 0 1 1-4.081-4.345 4.1 4.1 0 0 1 4.083 4.343zm6.982 6h2.064v-5.953c0-2.808 1.656-4.129 3.169-4.129a3.017 3.017 0 0 1 1.128.192v-2.136a4.276 4.276 0 0 0-.936-.1 3.57 3.57 0 0 0-3.361 2.449v-2.329h-2.064v12zm9.984 0h2.064v-18h-2.064v18zm10.368 5.017l7.874-17.019h-2.305l-4.105 9.1-4.129-9.1H673.3l5.257 11.378-2.617 5.641h2.3zM48.854 239.851V238a4.564 4.564 0 0 1-1.464.24c-1.3 0-1.992-.5-1.992-2.04v-6.289h3.457v-1.9H45.4v-3.331h-2.068v3.336h-2.544v1.9h2.544v6.553a3.379 3.379 0 0 0 3.673 3.673 5.745 5.745 0 0 0 1.849-.291zm3.839.168h2.064v-5.954c0-2.808 1.536-4.392 3.481-4.392 1.68 0 2.833 1.248 2.833 3.264v7.082h2.039v-7.394c0-2.976-1.848-4.849-4.537-4.849a4.243 4.243 0 0 0-3.817 2.089v-7.85h-2.064v18zm15.336 0h2.064v-5.954c0-2.808 1.656-4.128 3.169-4.128a3.018 3.018 0 0 1 1.128.192v-2.137a4.278 4.278 0 0 0-.936-.1 3.571 3.571 0 0 0-3.361 2.449v-2.329h-2.065v12zm8.616-6a6.328 6.328 0 0 0 11.617 3.381l-1.632-1.128a4.25 4.25 0 0 1-7.9-1.848h9.842a5.874 5.874 0 0 0 .028-.624c-.024-3.84-2.568-6.025-5.713-6.025a6.082 6.082 0 0 0-6.243 6.242zm6.169-4.416a3.591 3.591 0 0 1 3.673 3.144h-7.61a3.924 3.924 0 0 1 3.936-3.147zm8.975 4.416a6.327 6.327 0 0 0 11.618 3.385l-1.632-1.128a4.25 4.25 0 0 1-7.9-1.848h9.842a5.874 5.874 0 0 0 .024-.625c-.024-3.84-2.568-6.025-5.713-6.025a6.082 6.082 0 0 0-6.24 6.239zm6.169-4.416a3.591 3.591 0 0 1 3.673 3.144H94.02a3.924 3.924 0 0 1 3.937-3.147zm16.03 4.416a6.007 6.007 0 0 0 5.882 6.242 5.263 5.263 0 0 0 4.224-2.089v1.849h2.065v-18h-2.065v7.85a5.26 5.26 0 0 0-4.224-2.089 6.007 6.007 0 0 0-5.883 6.235zm10.274 0a4.1 4.1 0 1 1-4.08-4.344 4.1 4.1 0 0 1 4.079 4.342zm6.046 0a6.328 6.328 0 0 0 11.619 3.385l-1.633-1.128a4.25 4.25 0 0 1-7.9-1.848h9.843a5.874 5.874 0 0 0 .024-.625c-.024-3.84-2.569-6.025-5.714-6.025a6.083 6.083 0 0 0-6.24 6.239zm6.169-4.416a3.591 3.591 0 0 1 3.673 3.144h-7.61a3.925 3.925 0 0 1 3.936-3.147zm20.809 7.441l-1.8-1.008a4.068 4.068 0 0 1-3.745 2.3 4.322 4.322 0 0 1 0-8.641 4.068 4.068 0 0 1 3.745 2.3l1.8-1.008a6.216 6.216 0 0 0-5.545-3.217 6.242 6.242 0 1 0 0 12.483 6.216 6.216 0 0 0 5.544-3.211zm2.926-3.025a6.006 6.006 0 0 0 5.881 6.242 5.265 5.265 0 0 0 4.225-2.089v1.849h2.064v-12h-2.064v1.849a5.262 5.262 0 0 0-4.225-2.089 6.006 6.006 0 0 0-5.882 6.236zm10.274 0a4.1 4.1 0 1 1-4.081-4.344 4.1 4.1 0 0 1 4.08 4.342zm6.045 0a6.007 6.007 0 0 0 5.882 6.242 5.263 5.263 0 0 0 4.224-2.089v1.849h2.063v-18h-2.065v7.85a5.26 5.26 0 0 0-4.224-2.089 6.007 6.007 0 0 0-5.881 6.235zm10.275 0a4.1 4.1 0 1 1-4.081-4.344 4.1 4.1 0 0 1 4.08 4.342zm6.045 0a6.328 6.328 0 0 0 11.619 3.385l-1.633-1.128a4.249 4.249 0 0 1-7.9-1.848h9.842a5.874 5.874 0 0 0 .024-.625c-.024-3.84-2.569-6.025-5.714-6.025a6.083 6.083 0 0 0-6.239 6.239zm6.169-4.416a3.591 3.591 0 0 1 3.673 3.144h-7.609a3.923 3.923 0 0 1 3.935-3.147zm17.689 7.081c0-1.8-1.128-2.953-3.169-3.625l-1.3-.432c-1.416-.456-1.849-.912-1.849-1.68 0-.888.889-1.392 2.017-1.392a3.242 3.242 0 0 1 2.544 1.248l1.345-1.3a4.655 4.655 0 0 0-3.841-1.729c-2.377 0-4.057 1.321-4.057 3.265 0 1.68 1.032 2.856 2.977 3.481l1.176.384c1.56.5 2.136 1.08 2.136 1.92 0 1.032-.936 1.632-2.112 1.632a3.222 3.222 0 0 1-3.073-1.9l-1.68.912a4.768 4.768 0 0 0 4.705 2.785c2.427.006 4.18-1.219 4.18-3.571zm11.206 3.337h2.064v-18h-2.064v18zm6.239-6a6.007 6.007 0 0 0 5.881 6.242 5.264 5.264 0 0 0 4.225-2.089v1.849h2.065v-12h-2.065v1.849a5.261 5.261 0 0 0-4.225-2.089 6.006 6.006 0 0 0-5.882 6.234zm10.274 0a4.1 4.1 0 1 1-4.08-4.344 4.1 4.1 0 0 1 4.079 4.34zm13.488 5.834V238a4.573 4.573 0 0 1-1.465.24c-1.3 0-1.992-.5-1.992-2.04v-6.289h3.457v-1.9h-3.457v-3.331h-2.065v3.336h-2.544v1.9h2.544v6.553a3.379 3.379 0 0 0 3.673 3.673 5.754 5.754 0 0 0 1.848-.291zm2.734-5.834a6.328 6.328 0 0 0 11.619 3.385l-1.633-1.128a4.249 4.249 0 0 1-7.9-1.848h9.842a5.874 5.874 0 0 0 .024-.625c-.024-3.84-2.569-6.025-5.713-6.025a6.083 6.083 0 0 0-6.24 6.237zm6.17-4.416a3.59 3.59 0 0 1 3.672 3.144h-7.609a3.923 3.923 0 0 1 3.936-3.149zm9.91 10.418h2.065v-5.954c0-2.808 1.656-4.128 3.168-4.128a3.022 3.022 0 0 1 1.129.192v-2.137a4.285 4.285 0 0 0-.937-.1 3.57 3.57 0 0 0-3.36 2.449v-2.329h-2.065v12zm11.233-.528a2.058 2.058 0 0 0 .336-1.081 1.777 1.777 0 1 0-3.553 0 1.788 1.788 0 0 0 .984 1.609l-1.608 3.432h1.368zm17.928.36V238a4.562 4.562 0 0 1-1.464.24c-1.3 0-1.992-.5-1.992-2.04v-6.289h3.456v-1.9h-3.456v-3.331h-2.065v3.336h-2.544v1.9h2.544v6.553a3.379 3.379 0 0 0 3.673 3.673 5.743 5.743 0 0 0 1.847-.291zm3.839.168h2.064v-5.954c0-2.808 1.537-4.392 3.481-4.392 1.68 0 2.833 1.248 2.833 3.264v7.082h2.04v-7.394c0-2.976-1.848-4.849-4.537-4.849a4.245 4.245 0 0 0-3.817 2.089v-7.85h-2.064v18zm17.832-16.684a1.449 1.449 0 0 0-1.44-1.464 1.491 1.491 0 0 0-1.488 1.464 1.475 1.475 0 0 0 1.488 1.465 1.435 1.435 0 0 0 1.439-1.469zm-2.5 16.684h2.064v-12h-2.064v12zm14.953-3.337c0-1.8-1.128-2.953-3.169-3.625l-1.3-.432c-1.416-.456-1.848-.912-1.848-1.68 0-.888.888-1.392 2.016-1.392a3.244 3.244 0 0 1 2.545 1.248l1.344-1.3a4.652 4.652 0 0 0-3.841-1.729c-2.376 0-4.057 1.321-4.057 3.265 0 1.68 1.033 2.856 2.977 3.481l1.176.384c1.561.5 2.137 1.08 2.137 1.92 0 1.032-.936 1.632-2.113 1.632a3.221 3.221 0 0 1-3.072-1.9l-1.681.912a4.768 4.768 0 0 0 4.7 2.785c2.437.004 4.189-1.221 4.189-3.573zm11.206 3.337h2.064v-5.954c0-2.712 1.369-4.392 3.313-4.392 1.56 0 2.353 1.344 2.353 3.288v7.058h2.064v-5.954c0-2.712 1.344-4.392 3.289-4.392 1.56 0 2.376 1.344 2.376 3.288v7.058h2.065v-7.37c0-2.928-1.585-4.873-4.2-4.873a4.153 4.153 0 0 0-3.937 2.569 3.772 3.772 0 0 0-3.7-2.569 4.035 4.035 0 0 0-3.625 2.089v-1.849h-2.064v12zm34.034-6a6.277 6.277 0 1 0-6.265 6.242 6.159 6.159 0 0 0 6.268-6.248zm-10.442 0a4.168 4.168 0 1 1 4.177 4.321 4.125 4.125 0 0 1-4.174-4.327zm13.655 0a6.007 6.007 0 0 0 5.882 6.242 5.267 5.267 0 0 0 4.225-2.089v1.849h2.064v-18h-2.064v7.85a5.264 5.264 0 0 0-4.225-2.089 6.007 6.007 0 0 0-5.879 6.231zm10.275 0a4.1 4.1 0 1 1-4.081-4.344 4.1 4.1 0 0 1 4.084 4.338zm6.045 0a6.328 6.328 0 0 0 11.622 3.377l-1.633-1.128a4.249 4.249 0 0 1-7.9-1.848h9.842a5.874 5.874 0 0 0 .024-.625c-.024-3.84-2.569-6.025-5.714-6.025a6.083 6.083 0 0 0-6.238 6.243zm6.169-4.416a3.591 3.591 0 0 1 3.673 3.144h-7.609a3.923 3.923 0 0 1 3.939-3.151zm9.911 10.418h2.065v-5.954c0-2.808 1.656-4.128 3.168-4.128a3.025 3.025 0 0 1 1.129.192v-2.137a4.291 4.291 0 0 0-.937-.1 3.57 3.57 0 0 0-3.36 2.449v-2.329h-2.065v12zm9.984 0h2.065v-5.954c0-2.808 1.536-4.392 3.48-4.392 1.681 0 2.833 1.248 2.833 3.264v7.082h2.04v-7.394c0-2.976-1.848-4.849-4.537-4.849a4.242 4.242 0 0 0-3.816 2.089v-1.849h-2.065v12zm25.609 0h1.728l5.545-12h-2.3l-4.105 9.074-4.1-9.074h-2.305zm9.359-6a6.327 6.327 0 0 0 11.618 3.385l-1.632-1.128a4.25 4.25 0 0 1-7.9-1.848h9.842a5.874 5.874 0 0 0 .024-.625c-.024-3.84-2.568-6.025-5.713-6.025a6.082 6.082 0 0 0-6.236 6.233zm6.169-4.416a3.591 3.591 0 0 1 3.673 3.144h-7.61a3.924 3.924 0 0 1 3.94-3.153zm9.911 10.418h2.064v-5.954c0-2.808 1.657-4.128 3.169-4.128a3.017 3.017 0 0 1 1.128.192V228a4.276 4.276 0 0 0-.936-.1 3.571 3.571 0 0 0-3.361 2.449v-2.329H481.9v12zm17.546-3.337c0-1.8-1.129-2.953-3.169-3.625l-1.3-.432c-1.417-.456-1.849-.912-1.849-1.68 0-.888.889-1.392 2.017-1.392a3.242 3.242 0 0 1 2.555 1.239l1.345-1.3a4.655 4.655 0 0 0-3.841-1.729c-2.377 0-4.057 1.321-4.057 3.265 0 1.68 1.032 2.856 2.977 3.481l1.176.384c1.56.5 2.136 1.08 2.136 1.92 0 1.032-.936 1.632-2.112 1.632a3.222 3.222 0 0 1-3.073-1.9l-1.68.912a4.768 4.768 0 0 0 4.7 2.785c2.429.009 4.178-1.216 4.178-3.568zm6.646-13.347a1.449 1.449 0 0 0-1.44-1.464 1.491 1.491 0 0 0-1.488 1.464 1.475 1.475 0 0 0 1.488 1.465 1.435 1.435 0 0 0 1.448-1.473zm-2.5 16.684h2.064v-12H503.6v12zm18.77-6a6.278 6.278 0 1 0-6.265 6.242 6.159 6.159 0 0 0 6.272-6.252zm-10.442 0a4.168 4.168 0 1 1 4.177 4.321 4.125 4.125 0 0 1-4.17-4.331zm14.591 6h2.065v-5.954c0-2.808 1.536-4.392 3.481-4.392 1.68 0 2.832 1.248 2.832 3.264v7.082h2.041v-7.394c0-2.976-1.849-4.849-4.537-4.849a4.243 4.243 0 0 0-3.817 2.089v-1.849h-2.065v12zm33.986-6a6.277 6.277 0 1 0-6.265 6.242 6.159 6.159 0 0 0 6.268-6.252zm-10.442 0a4.168 4.168 0 1 1 4.177 4.321 4.125 4.125 0 0 1-4.17-4.331zm15.408 6h2.064v-10.114h3.481v-1.9h-3.481v-2.208c0-1.512.672-2.04 1.993-2.04a4.833 4.833 0 0 1 1.488.24v-1.825a5.454 5.454 0 0 0-1.872-.312 3.428 3.428 0 0 0-3.673 3.721v2.424h-2.545v1.9h2.545v10.106zm27.026-6a6.278 6.278 0 1 0-6.265 6.242 6.16 6.16 0 0 0 6.276-6.252zm-10.442 0a4.167 4.167 0 1 1 4.177 4.321 4.125 4.125 0 0 1-4.17-4.331zm14.423 1.369c0 2.976 1.776 4.873 4.417 4.873a4.129 4.129 0 0 0 3.7-2.089v1.849h2.064v-12h-2.064v5.953c0 2.761-1.465 4.393-3.337 4.393-1.656 0-2.712-1.272-2.712-3.288v-7.058h-2.065v7.37zm15.264 4.633h2.066v-5.954c0-2.808 1.657-4.128 3.169-4.128a3.017 3.017 0 0 1 1.128.192v-2.137a4.276 4.276 0 0 0-.936-.1 3.572 3.572 0 0 0-3.361 2.449v-2.329h-2.064v12zm16.272-4.633c0 2.976 1.776 4.873 4.417 4.873a4.128 4.128 0 0 0 3.7-2.089v1.849h2.065v-12h-2.065v5.953c0 2.761-1.464 4.393-3.336 4.393-1.657 0-2.713-1.272-2.713-3.288v-7.058h-2.064v7.37zm21.769 4.465V238a4.562 4.562 0 0 1-1.464.24c-1.3 0-1.993-.5-1.993-2.04v-6.289h3.457v-1.9h-3.457v-3.331h-2.064v3.336h-2.545v1.9h2.545v6.553a3.379 3.379 0 0 0 3.673 3.673 5.743 5.743 0 0 0 1.855-.291zm6.335-16.516a1.449 1.449 0 0 0-1.44-1.464 1.492 1.492 0 0 0-1.489 1.464 1.476 1.476 0 0 0 1.489 1.465 1.435 1.435 0 0 0 1.447-1.475zm-2.5 16.684h2.064v-12h-2.064v12zm7.175 0h2.065v-18h-2.05v18zm9.673-16.684a1.45 1.45 0 0 0-1.441-1.464 1.491 1.491 0 0 0-1.488 1.464 1.475 1.475 0 0 0 1.488 1.465 1.435 1.435 0 0 0 1.452-1.475zm-2.5 16.684h2.065v-12h-2.065v12zm13.681-.168V238a4.562 4.562 0 0 1-1.464.24c-1.3 0-1.992-.5-1.992-2.04v-6.289h3.456v-1.9H678.2v-3.331h-2.065v3.336h-2.544v1.9h2.544v6.553a3.379 3.379 0 0 0 3.673 3.673 5.743 5.743 0 0 0 1.845-.291zm7.032 5.185l7.873-17.02h-2.3l-4.105 9.1-4.129-9.1h-2.28l5.27 11.368-2.617 5.642h2.3zM42.348 268.818h2.065v-5.953c0-2.809 1.536-4.393 3.481-4.393 1.68 0 2.833 1.248 2.833 3.265v7.081h2.041v-7.394c0-2.976-1.848-4.848-4.537-4.848a4.244 4.244 0 0 0-3.817 2.088v-7.85h-2.066v18zm14.4-6a6.328 6.328 0 0 0 11.618 3.382l-1.632-1.128a4.249 4.249 0 0 1-7.9-1.848h9.842a5.856 5.856 0 0 0 .024-.624c-.024-3.841-2.568-6.025-5.713-6.025a6.082 6.082 0 0 0-6.239 6.242zm6.169-4.417a3.591 3.591 0 0 1 3.673 3.144h-7.61a3.924 3.924 0 0 1 3.937-3.145zm9.911 10.418h2.065v-5.953c0-2.809 1.656-4.129 3.169-4.129a3.018 3.018 0 0 1 1.128.192v-2.136a4.279 4.279 0 0 0-.936-.1 3.571 3.571 0 0 0-3.361 2.448v-2.328h-2.065v12zm12.481-16.683a1.45 1.45 0 0 0-1.44-1.465 1.492 1.492 0 0 0-1.488 1.465 1.475 1.475 0 0 0 1.488 1.464 1.435 1.435 0 0 0 1.439-1.465zm-2.5 16.683h2.064v-12h-2.061v12zm13.681-.168V266.8a4.536 4.536 0 0 1-1.464.241c-1.3 0-1.993-.5-1.993-2.041v-6.289h3.457v-1.9h-3.454v-3.337h-2.064v3.337h-2.545v1.9h2.545v6.553a3.379 3.379 0 0 0 3.673 3.673 5.745 5.745 0 0 0 1.848-.287zm2.735-5.833a6.006 6.006 0 0 0 5.881 6.241 5.264 5.264 0 0 0 4.225-2.088v1.848h2.069v-12h-2.064v1.848a5.264 5.264 0 0 0-4.225-2.088 6.006 6.006 0 0 0-5.883 6.238zm10.274 0a4.1 4.1 0 1 1-4.081-4.345 4.1 4.1 0 0 1 4.082 4.344zm18.168 5.305v-11.307h-2.065v1.848a5.106 5.106 0 0 0-4.176-2.088 6.114 6.114 0 0 0 0 12.218 5.122 5.122 0 0 0 4.176-2.113v1.369a3.836 3.836 0 0 1-4.002 4.15 5.134 5.134 0 0 1-4.2-2.016l-1.441 1.44a7.126 7.126 0 0 0 5.666 2.449c3.404.002 6.045-1.943 6.045-5.951zm-10.01-5.449a4.059 4.059 0 1 1 4.057 4.2 4 4 0 0 1-4.054-4.201zm14.159.144a6.328 6.328 0 0 0 11.619 3.384l-1.633-1.128a4.249 4.249 0 0 1-7.9-1.848h9.842a5.856 5.856 0 0 0 .024-.624c-.024-3.841-2.569-6.025-5.714-6.025a6.082 6.082 0 0 0-6.235 6.24zm6.169-4.417a3.591 3.591 0 0 1 3.673 3.144h-7.609a3.923 3.923 0 0 1 3.939-3.145zm26.715 10.417h1.825l4.081-12h-2.185l-2.905 8.761-3-8.761h-1.585l-3 8.761-2.905-8.761h-2.16l4.081 12h1.824l2.977-8.642zm11.83-16.683a1.45 1.45 0 0 0-1.44-1.465 1.492 1.492 0 0 0-1.488 1.465 1.475 1.475 0 0 0 1.488 1.464 1.434 1.434 0 0 0 1.441-1.464zm-2.5 16.683h2.07v-12h-2.064v12zm7.176 0h2.064v-18h-2.064v18zm7.175 0h2.065v-18h-2.065v18zm13.3-6a6.006 6.006 0 0 0 5.881 6.241 5.264 5.264 0 0 0 4.225-2.088v1.848h2.064v-12h-2.064v1.848a5.264 5.264 0 0 0-4.225-2.088 6.005 6.005 0 0 0-5.88 6.238zm10.274 0a4.1 4.1 0 1 1-4.081-4.345 4.1 4.1 0 0 1 4.082 4.344zm6.982 6H221v-18h-2.064v18zm14.953-3.337c0-1.8-1.128-2.952-3.168-3.624l-1.3-.433c-1.416-.456-1.848-.912-1.848-1.68 0-.888.888-1.392 2.016-1.392a3.243 3.243 0 0 1 2.545 1.248l1.344-1.3a4.654 4.654 0 0 0-3.841-1.728c-2.376 0-4.057 1.32-4.057 3.264 0 1.68 1.033 2.857 2.977 3.481l1.176.384c1.561.5 2.137 1.08 2.137 1.92 0 1.032-.936 1.633-2.113 1.633a3.221 3.221 0 0 1-3.072-1.9l-1.681.912a4.767 4.767 0 0 0 4.705 2.785c2.429.007 4.181-1.217 4.181-3.57zm15.745-2.664a6.278 6.278 0 1 0-6.266 6.241 6.159 6.159 0 0 0 6.267-6.241zm-10.442 0a4.167 4.167 0 1 1 4.176 4.321 4.125 4.125 0 0 1-4.175-4.321zm21.647 6h2.06v-5.953c0-2.809 1.537-4.393 3.481-4.393 1.68 0 2.833 1.248 2.833 3.265v7.081h2.04v-7.394c0-2.976-1.848-4.848-4.537-4.848a4.245 4.245 0 0 0-3.817 2.088v-7.85h-2.064v18zm14.4-6a6.328 6.328 0 0 0 11.619 3.384l-1.633-1.128a4.249 4.249 0 0 1-7.9-1.848h9.842a5.856 5.856 0 0 0 .024-.624c-.024-3.841-2.569-6.025-5.713-6.025a6.082 6.082 0 0 0-6.239 6.241zm6.17-4.417a3.59 3.59 0 0 1 3.672 3.144h-7.609a3.923 3.923 0 0 1 3.937-3.144zm9.91 10.418h2.065v-18h-2.065v18zm7.176 5.017h2.065v-6.865a5.262 5.262 0 0 0 4.224 2.088 6.252 6.252 0 0 0 0-12.482 5.262 5.262 0 0 0-4.224 2.088v-1.848H298.5v17.019zm10.058-11.018a4.089 4.089 0 1 1-4.081-4.345 4.1 4.1 0 0 1 4.081 4.345zm15.983 11.018l7.873-17.019h-2.3l-4.105 9.1-4.129-9.1h-2.28l5.257 11.378-2.617 5.641h2.3zM347 262.817a6.278 6.278 0 1 0-6.266 6.241 6.159 6.159 0 0 0 6.266-6.241zm-10.443 0a4.168 4.168 0 1 1 4.177 4.321 4.126 4.126 0 0 1-4.174-4.321zm14.424 1.368c0 2.977 1.776 4.873 4.417 4.873a4.131 4.131 0 0 0 3.7-2.088v1.848h2.064v-12H359.1v5.953c0 2.76-1.465 4.393-3.337 4.393-1.657 0-2.713-1.273-2.713-3.289v-7.057h-2.064v7.369zm22.319 4.633h2.065v-5.953c0-2.809 1.656-4.129 3.169-4.129a3.017 3.017 0 0 1 1.128.192v-2.136a4.276 4.276 0 0 0-.936-.1 3.57 3.57 0 0 0-3.361 2.448v-2.328H373.3v12zm12.481-16.683a1.45 1.45 0 0 0-1.44-1.465 1.492 1.492 0 0 0-1.489 1.465 1.475 1.475 0 0 0 1.489 1.464 1.434 1.434 0 0 0 1.443-1.464zm-2.5 16.683h2.065v-12h-2.065v12zm14.954-3.337c0-1.8-1.128-2.952-3.169-3.624l-1.3-.433c-1.416-.456-1.848-.912-1.848-1.68 0-.888.888-1.392 2.016-1.392a3.246 3.246 0 0 1 2.545 1.248l1.344-1.3a4.656 4.656 0 0 0-3.841-1.728c-2.377 0-4.057 1.32-4.057 3.264 0 1.68 1.032 2.857 2.977 3.481l1.176.384c1.56.5 2.136 1.08 2.136 1.92 0 1.032-.936 1.633-2.112 1.633a3.223 3.223 0 0 1-3.073-1.9l-1.68.912a4.767 4.767 0 0 0 4.705 2.785c2.435.007 4.187-1.217 4.187-3.57zm3.214-2.664a6.327 6.327 0 0 0 11.618 3.384l-1.632-1.128a4.25 4.25 0 0 1-7.9-1.848h9.842a5.856 5.856 0 0 0 .024-.624c-.024-3.841-2.568-6.025-5.713-6.025a6.081 6.081 0 0 0-6.233 6.241zm6.169-4.417a3.591 3.591 0 0 1 3.673 3.144h-7.61a3.924 3.924 0 0 1 3.943-3.144zm23.064 10.25v-1.85a4.534 4.534 0 0 1-1.464.241c-1.3 0-1.993-.5-1.993-2.041v-6.289h3.457v-1.9h-3.457v-3.337h-2.064v3.337h-2.545v1.9h2.545v6.553a3.378 3.378 0 0 0 3.673 3.673 5.743 5.743 0 0 0 1.854-.287zm15.265-5.833a6.277 6.277 0 1 0-6.265 6.241 6.159 6.159 0 0 0 6.271-6.241zm-10.442 0a4.168 4.168 0 1 1 4.177 4.321 4.125 4.125 0 0 1-4.171-4.321zm20.711 0a6.006 6.006 0 0 0 5.881 6.241 5.263 5.263 0 0 0 4.225-2.088v1.848h2.065v-12h-2.065v1.848a5.263 5.263 0 0 0-4.225-2.088 6.006 6.006 0 0 0-5.875 6.239zm10.274 0a4.1 4.1 0 1 1-4.081-4.345 4.1 4.1 0 0 1 4.091 4.345zm6.982 6h2.064v-5.953c0-2.809 1.537-4.393 3.481-4.393 1.681 0 2.833 1.248 2.833 3.265v7.081h2.04v-7.394c0-2.976-1.848-4.848-4.537-4.848a4.246 4.246 0 0 0-3.817 2.088v-1.848h-2.064v12zm18.289 5.017l7.873-17.019h-2.3l-4.105 9.1-4.129-9.1h-2.281l5.258 11.378-2.617 5.641h2.305zm29.257-11.018a6.277 6.277 0 1 0-6.265 6.241 6.159 6.159 0 0 0 6.271-6.24zm-10.442 0a4.168 4.168 0 1 1 4.177 4.321 4.125 4.125 0 0 1-4.171-4.32zm25.49 3.024l-1.8-1.008a4.069 4.069 0 0 1-3.744 2.3 4.323 4.323 0 0 1 0-8.642 4.068 4.068 0 0 1 3.744 2.3l1.8-1.008a6.216 6.216 0 0 0-5.545-3.216 6.241 6.241 0 1 0 0 12.482 6.215 6.215 0 0 0 5.551-3.207zm14.759 0l-1.8-1.008a4.069 4.069 0 0 1-3.745 2.3 4.323 4.323 0 0 1 0-8.642 4.068 4.068 0 0 1 3.745 2.3l1.8-1.008a6.215 6.215 0 0 0-5.545-3.216 6.241 6.241 0 1 0 0 12.482 6.214 6.214 0 0 0 5.551-3.207zm2.926-3.024a6.006 6.006 0 0 0 5.881 6.241 5.264 5.264 0 0 0 4.225-2.088v1.848h2.064v-12h-2.064v1.848a5.264 5.264 0 0 0-4.225-2.088 6.005 6.005 0 0 0-5.875 6.24zm10.274 0a4.1 4.1 0 1 1-4.081-4.345 4.1 4.1 0 0 1 4.087 4.346zm14.759 2.664c0-1.8-1.128-2.952-3.168-3.624l-1.3-.433c-1.416-.456-1.848-.912-1.848-1.68 0-.888.888-1.392 2.016-1.392a3.243 3.243 0 0 1 2.545 1.248l1.344-1.3a4.654 4.654 0 0 0-3.841-1.728c-2.376 0-4.057 1.32-4.057 3.264 0 1.68 1.033 2.857 2.977 3.481l1.176.384c1.561.5 2.137 1.08 2.137 1.92 0 1.032-.936 1.633-2.113 1.633a3.221 3.221 0 0 1-3.072-1.9l-1.681.912a4.768 4.768 0 0 0 4.705 2.785c2.434.008 4.186-1.216 4.186-3.569zm6.647-13.346A1.45 1.45 0 0 0 584 250.67a1.492 1.492 0 0 0-1.489 1.465A1.475 1.475 0 0 0 584 253.6a1.434 1.434 0 0 0 1.437-1.465zm-2.5 16.683h2.065v-12h-2.056v12zm18.771-6a6.278 6.278 0 1 0-6.266 6.241 6.159 6.159 0 0 0 6.275-6.241zm-10.443 0a4.168 4.168 0 1 1 4.177 4.321 4.126 4.126 0 0 1-4.168-4.321zm14.592 6h2.064v-5.953c0-2.809 1.537-4.393 3.481-4.393 1.68 0 2.833 1.248 2.833 3.265v7.081h2.04v-7.394c0-2.976-1.848-4.848-4.537-4.848a4.246 4.246 0 0 0-3.817 2.088v-1.848h-2.055v12zm18.192-1.608a1.776 1.776 0 1 0-1.776 1.8 1.808 1.808 0 0 0 1.785-1.799z"/><path id="Rectangle_4_copy_4" data-name="Rectangle 4 copy 4" d="M39 335.5h122.406v3.656H39z"/><path id="Shop_now" data-name="Shop now" class="cls-2" d="M44.217 328.583c2.706 0 4.564-1.653 4.582-4.022.018-1.966-1.19-3.215-3.048-3.894l-.9-.331c-1.353-.5-1.984-.808-1.984-1.506 0-.68.776-.992 1.551-.992a2.829 2.829 0 0 1 2.219 1.084l1.873-2.022a5.3 5.3 0 0 0-4.131-1.8c-2.561 0-4.419 1.488-4.419 4.023 0 1.782 1.154 3.049 3.229 3.765l.9.312c1.281.441 1.786.9 1.786 1.562 0 .624-.6 1.083-1.551 1.083a3.337 3.337 0 0 1-2.652-1.487l-2.2 1.891a5.58 5.58 0 0 0 4.745 2.334zm9.726-.22h2.867V323.2h5.159v5.162h2.868v-13.04h-2.868v5.106H56.81v-5.106h-2.868v13.041zm22.66.22a6.742 6.742 0 1 0-6.62-6.741 6.7 6.7 0 0 0 6.617 6.741zm0-2.828a3.918 3.918 0 1 1 3.716-3.913 3.837 3.837 0 0 1-3.719 3.913zm20.622-5.97a4.4 4.4 0 0 0-4.51-4.463h-4.348v13.041h2.868v-4.133h1.479a4.385 4.385 0 0 0 4.51-4.445zm-2.778 0a1.7 1.7 0 0 1-1.768 1.708h-1.444v-3.416h1.443a1.689 1.689 0 0 1 1.768 1.708zm25.979 8.578v-13.041h-2.886v8.045l-6.223-8.045h-2.472v13.041h2.869V320.3l6.241 8.064h2.471zm11.765.22a6.742 6.742 0 1 0-6.62-6.741 6.7 6.7 0 0 0 6.619 6.741zm0-2.828a3.918 3.918 0 1 1 3.716-3.913 3.837 3.837 0 0 1-3.717 3.913zm21.686 2.608h2.723l2.976-13.041h-3.067l-1.749 8.265-3.608-8.486-3.589 8.486-1.75-8.265h-3.067l2.959 13.041h2.723l2.724-6.392z"/></svg>