<svg id="Copy_copy_8" data-name="Copy copy 8" xmlns="http://www.w3.org/2000/svg" width="768" height="836"><defs><style>.cls-2{fill-rule:evenodd}</style></defs><path id="Rectangle_109_copy_7" data-name="Rectangle 109 copy 7" fill="#fff" fill-opacity="0" d="M0 0h768v836H0z"/><path id="WATER-RESISTANT_CLASSIC_TRENCH_COAT_Cotton_twill_b._1980_Don_" data-name="WATER-RESISTANT CLASSIC TRENCH COAT Cotton twill, b. 1980 Don’" class="cls-2" d="M64.748 67.395h5.8l6.336-27.261h-6.53l-3.725 17.278-7.679-17.74-7.641 17.74-3.725-17.279h-6.527l6.3 27.261h5.8l5.8-13.362zm12.981 0H84.1l2.419-5.759h11.292l2.419 5.759h6.37L94.931 40.133H89.4zm11.02-11.058l3.417-8.217 3.417 8.217h-6.834zm24.806 11.058h6.145V45.969h7.027v-5.836h-20.12v5.836h6.949v21.426zm18.817 0h17.278v-5.837h-11.173v-4.876h8.869v-5.836h-8.869v-4.877h11.173v-5.836h-17.278v27.262zm23.846 0h6.105V56.144h1l9.062 11.25h7.334l-9.638-12.018c3.456-1.229 5.338-3.494 5.338-7.026a8.049 8.049 0 0 0-8.448-8.217h-10.753v27.262zm6.105-16.434v-5.222h3.917c1.8 0 3.11.96 3.11 2.611 0 1.574-1.306 2.611-3.11 2.611h-3.917zm19.354 5.567h11.289V51h-11.289v5.529zm18.316 10.866h6.107v-11.25h1l9.061 11.25h7.334l-9.638-12.018c3.456-1.229 5.338-3.494 5.338-7.026a8.049 8.049 0 0 0-8.448-8.217h-10.754v27.262zm6.107-16.433v-5.222h3.917c1.8 0 3.11.96 3.11 2.611 0 1.574-1.306 2.611-3.11 2.611H206.1zm21.235 16.434h17.279v-5.837h-11.175v-4.876h8.869v-5.836h-8.869v-4.877h11.173v-5.836h-17.279v27.262zm31.987.461c5.76 0 9.714-3.456 9.753-8.409.038-4.108-2.534-6.719-6.489-8.14l-1.92-.691c-2.88-1.037-4.224-1.69-4.224-3.148 0-1.421 1.651-2.073 3.3-2.073a6.064 6.064 0 0 1 4.723 2.265l3.993-4.224a11.373 11.373 0 0 0-8.792-3.763c-5.453 0-9.408 3.11-9.408 8.409 0 3.724 2.458 6.374 6.873 7.871l1.92.653c2.726.921 3.8 1.881 3.8 3.264 0 1.305-1.267 2.265-3.3 2.265a7.132 7.132 0 0 1-5.644-3.11l-4.685 3.955a11.955 11.955 0 0 0 10.098 4.875zm15.9-.461h6.1V40.133h-6.1v27.262zm21.925.461c5.76 0 9.715-3.456 9.753-8.409.038-4.108-2.534-6.719-6.489-8.14l-1.92-.691c-2.88-1.037-4.224-1.69-4.224-3.148 0-1.421 1.651-2.073 3.3-2.073a6.063 6.063 0 0 1 4.722 2.265l3.994-4.224a11.377 11.377 0 0 0-8.793-3.763c-5.453 0-9.408 3.11-9.408 8.409 0 3.724 2.458 6.374 6.874 7.871l1.919.653c2.727.921 3.8 1.881 3.8 3.264 0 1.305-1.267 2.265-3.3 2.265a7.134 7.134 0 0 1-5.645-3.11l-4.684 3.955a11.954 11.954 0 0 0 10.097 4.875zm20.429-.461h6.144V45.969h7.026v-5.836h-20.12v5.836h6.95v21.426zm13.133 0h6.374l2.419-5.759h11.289l2.419 5.759h6.374l-11.677-27.262h-5.529zm11.02-11.058l3.418-8.217 3.417 8.217h-6.835zM389 67.395V40.133h-6.144v16.818L369.6 40.133h-5.26v27.262h6.105V50.539l13.285 16.856H389zm12.6 0h6.143V45.969h7.027v-5.836h-20.12v5.836h6.95v21.426zM55.84 108.654a14.091 14.091 0 0 0 12.748-7.449l-5.376-2.918a8.179 8.179 0 1 1 0-7.449l5.376-2.918a14.212 14.212 0 1 0-12.748 20.734zm18.241-.461h17.393v-5.836H80.186V80.932H74.08v27.261zm20.2 0h6.374l2.419-5.759h11.286l2.419 5.759h6.374L111.48 80.932h-5.529zM105.3 97.135l3.418-8.217 3.417 8.217H105.3zm30.029 11.519c5.76 0 9.715-3.455 9.753-8.409.039-4.108-2.534-6.719-6.489-8.14l-1.92-.691c-2.88-1.037-4.223-1.689-4.223-3.148 0-1.421 1.651-2.073 3.3-2.073a6.065 6.065 0 0 1 4.723 2.265l3.993-4.224a11.376 11.376 0 0 0-8.793-3.763c-5.452 0-9.407 3.11-9.407 8.409 0 3.724 2.457 6.374 6.873 7.871l1.92.653c2.726.921 3.8 1.881 3.8 3.264 0 1.3-1.267 2.265-3.3 2.265a7.134 7.134 0 0 1-5.645-3.11l-4.684 3.955a11.953 11.953 0 0 0 10.097 4.876zm24.038 0c5.76 0 9.715-3.455 9.753-8.409.039-4.108-2.534-6.719-6.489-8.14l-1.92-.691c-2.88-1.037-4.223-1.689-4.223-3.148 0-1.421 1.651-2.073 3.3-2.073a6.065 6.065 0 0 1 4.723 2.265l3.993-4.224a11.376 11.376 0 0 0-8.793-3.763c-5.452 0-9.407 3.11-9.407 8.409 0 3.724 2.457 6.374 6.873 7.871l1.923.649c2.726.921 3.8 1.881 3.8 3.264 0 1.3-1.267 2.265-3.3 2.265a7.134 7.134 0 0 1-5.645-3.11l-4.684 3.955a11.953 11.953 0 0 0 10.094 4.88zm15.9-.461h6.1V80.932h-6.1v27.261zm26.341.461a14.091 14.091 0 0 0 12.748-7.449l-5.376-2.918a8.179 8.179 0 1 1 0-7.449l5.376-2.918a14.213 14.213 0 1 0-12.756 20.734zm32.41-.461h6.144V86.768h7.026v-5.836h-20.12v5.836h6.95v21.425zm18.816 0h6.1v-11.25h1l9.066 11.25h7.334l-9.637-12.018c3.455-1.229 5.337-3.494 5.337-7.026a8.049 8.049 0 0 0-8.448-8.217H252.83v27.261zm6.1-16.433v-5.222h3.917c1.805 0 3.11.96 3.11 2.611 0 1.574-1.305 2.611-3.11 2.611h-3.917zm21.236 16.433h17.278v-5.836h-11.172v-4.876h8.869v-5.836h-8.869v-4.877h11.173v-5.836h-17.278v27.261zm48.5 0V80.932h-6.144V97.75l-13.249-16.818h-5.26v27.261h6.105V91.338l13.285 16.855h5.261zm20.237.461a14.091 14.091 0 0 0 12.748-7.449l-5.375-2.918a8.179 8.179 0 1 1 0-7.449l5.375-2.918a14.212 14.212 0 1 0-12.75 20.734zm18.241-.461h6.1V97.4h10.982v10.789h6.105V80.932h-6.105v10.674h-10.979V80.932h-6.1v27.261zm53.8.461a14.091 14.091 0 0 0 12.748-7.449l-5.376-2.918a8.179 8.179 0 1 1 0-7.449l5.376-2.918a14.213 14.213 0 1 0-12.753 20.734zm30.8 0a14.091 14.091 0 1 0-14.092-14.091 14.126 14.126 0 0 0 14.084 14.091zm0-5.913a8.183 8.183 0 1 1 7.91-8.178 8.088 8.088 0 0 1-7.918 8.178zm16.09 5.452h6.362l2.419-5.759h11.289l2.419 5.759h6.374l-11.669-27.261H479.5zm11.02-11.058l3.417-8.217 3.418 8.217h-6.843zm24.807 11.058h6.135V86.768h7.027v-5.836h-20.12v5.836h6.95v21.425zM41.592 132.419a9.743 9.743 0 0 0 17.981 5.149l-2.059-1.241a7.367 7.367 0 1 1 0-7.815l2.06-1.241a9.743 9.743 0 0 0-17.982 5.148zm34.955 2.773a6.9 6.9 0 1 0-6.891 6.865 6.775 6.775 0 0 0 6.891-6.865zm-11.486 0a4.584 4.584 0 1 1 4.594 4.752 4.538 4.538 0 0 1-4.593-4.752zm32.21 6.416v-2.033a5.03 5.03 0 0 1-1.611.264c-1.426 0-2.191-.555-2.191-2.245v-6.917h3.8v-2.086h-3.8v-3.67H91.2v3.67h-2.272v2.086H91.2v7.208a3.716 3.716 0 0 0 4.04 4.04 6.313 6.313 0 0 0 2.032-.317zm-9.241 0v-2.033a5.031 5.031 0 0 1-1.611.264c-1.426 0-2.191-.555-2.191-2.245v-6.917h3.222v-2.086h-3.222v-3.67h-2.27v3.67h-2.8v2.086h2.8v7.208a3.716 3.716 0 0 0 4.04 4.04 6.313 6.313 0 0 0 2.033-.317zm26.031-6.416a6.905 6.905 0 1 0-6.892 6.865 6.775 6.775 0 0 0 6.893-6.865zm-11.486 0a4.584 4.584 0 1 1 4.594 4.752 4.537 4.537 0 0 1-4.593-4.752zm16.051 6.6h2.27v-6.548c0-3.09 1.69-4.832 3.829-4.832 1.848 0 3.116 1.373 3.116 3.591v7.789h2.244v-8.132c0-3.274-2.033-5.333-4.99-5.333a4.669 4.669 0 0 0-4.2 2.3v-2.033h-2.27v13.2zm31.337-.185v-2.033a5.028 5.028 0 0 1-1.611.264c-1.425 0-2.191-.555-2.191-2.245v-6.917h3.8v-2.086h-3.8v-3.67h-2.271v3.67h-2.8v2.086h2.8v7.208a3.717 3.717 0 0 0 4.04 4.04 6.317 6.317 0 0 0 2.034-.316zm15.418.185h2.007l4.488-13.2h-2.4l-3.195 9.637-3.3-9.637h-1.742l-3.3 9.637-3.195-9.637h-2.376l4.489 13.2h2.006l3.274-9.506zm13.019-18.35a1.6 1.6 0 0 0-1.585-1.61 1.64 1.64 0 0 0-1.637 1.61 1.623 1.623 0 0 0 1.637 1.611 1.579 1.579 0 0 0 1.585-1.611zm-2.746 18.351h2.27v-13.2h-2.27v13.2zm7.893 0h2.271v-19.8h-2.271v19.8zm7.893 0h2.271v-19.8h-2.271v19.8zm10.719-.581a2.263 2.263 0 0 0 .37-1.188 1.954 1.954 0 1 0-3.908 0 1.965 1.965 0 0 0 1.083 1.769l-1.769 3.775h1.5zm15.285-1.452a5.792 5.792 0 0 0 4.647 2.3 6.877 6.877 0 0 0 0-13.73 5.792 5.792 0 0 0-4.647 2.3v-8.64h-2.27v19.8h2.27v-2.03zm8.793-4.568a4.5 4.5 0 1 1-4.489-4.779 4.508 4.508 0 0 1 4.485 4.779zm9.763 4.832a1.954 1.954 0 1 0-1.953 1.98 1.989 1.989 0 0 0 1.953-1.98zm14.229 1.769h2.271v-18.747h-4.04l-1.848 2.245h3.617v16.5zm8.026 0h2.9l6.865-8.106a7.2 7.2 0 0 0 2.112-4.779 6.352 6.352 0 0 0-12.7.079 6.057 6.057 0 0 0 5.862 6.02 3.348 3.348 0 0 0 .739-.053zm1.5-12.832a4.027 4.027 0 1 1 4.017 4.039 3.984 3.984 0 0 1-4.013-4.039zm26.428 7.208a5.238 5.238 0 0 0-2.931-4.911 4.391 4.391 0 0 0 1.9-3.7c0-2.8-2.165-4.831-5.254-4.831-3.011 0-5.281 2.033-5.281 4.831a4.371 4.371 0 0 0 1.954 3.7 5.238 5.238 0 0 0-2.984 4.911c0 3.406 2.64 5.888 6.311 5.888 3.727 0 6.289-2.482 6.289-5.888zm-9.321-8.555a2.791 2.791 0 0 1 3.037-2.746 2.739 2.739 0 0 1 3.01 2.746 2.8 2.8 0 0 1-3.01 2.772 2.857 2.857 0 0 1-3.033-2.772zm-.977 8.555a3.722 3.722 0 0 1 4.014-3.75 3.744 3.744 0 1 1 0 7.473 3.732 3.732 0 0 1-4.01-3.723zm27.722-1.162v-5.228c0-4.145-2.8-7.049-6.654-7.049s-6.627 2.9-6.627 7.049v5.228c0 4.172 2.772 7.05 6.627 7.05s6.658-2.878 6.658-7.05zm-11.011 0v-5.228c0-3.036 1.822-4.832 4.357-4.832 2.561 0 4.383 1.8 4.383 4.832v5.228c0 3.036-1.822 4.832-4.383 4.832-2.531 0-4.353-1.796-4.353-4.832zM42.66 194.591h4.9c5.233 0 9.074-3.648 9.074-8.521s-3.841-8.522-9.074-8.522h-4.9v17.043zm2.233-2.088v-12.867h2.664c4.1 0 6.818 2.737 6.818 6.434s-2.713 6.433-6.818 6.433h-2.664zm27.554-3.913a6.277 6.277 0 1 0-6.265 6.241 6.159 6.159 0 0 0 6.265-6.241zm-10.447 0a4.168 4.168 0 1 1 4.177 4.321A4.126 4.126 0 0 1 62 188.59zm14.591 6h2.069v-5.953c0-2.808 1.536-4.393 3.481-4.393 1.68 0 2.833 1.248 2.833 3.265v7.081h2.04v-7.39c0-2.977-1.848-4.849-4.537-4.849a4.245 4.245 0 0 0-3.817 2.088v-1.848H76.6v12zm18.077-14.45a2.12 2.12 0 0 0 .332-1.08 1.788 1.788 0 1 0-3.577 0 1.861 1.861 0 0 0 .984 1.609L90.8 184.1h1.4zm10.732 14.283v-1.848a4.562 4.562 0 0 1-1.464.24c-1.3 0-1.993-.5-1.993-2.041v-6.289h3.457v-1.9h-3.46v-3.337h-2.064v3.337h-2.545v1.9h2.544v6.554a3.378 3.378 0 0 0 3.673 3.672 5.743 5.743 0 0 0 1.852-.288zm10.894.168h2.065v-18h-2.065v18zm6.24-6a6.328 6.328 0 0 0 11.618 3.385l-1.632-1.129a4.25 4.25 0 0 1-7.9-1.848h9.842a5.856 5.856 0 0 0 .024-.624c-.024-3.841-2.568-6.025-5.713-6.025a6.081 6.081 0 0 0-6.242 6.24zm6.169-4.417a3.591 3.591 0 0 1 3.673 3.145h-7.61a3.924 3.924 0 0 1 3.934-3.146zm16.249 10.25v-1.848a4.568 4.568 0 0 1-1.465.24c-1.3 0-1.992-.5-1.992-2.041v-6.289h3.457v-1.9h-3.457v-3.337h-2.065v3.337h-2.544v1.9h2.544v6.554a3.379 3.379 0 0 0 3.673 3.672 5.749 5.749 0 0 0 1.846-.289zm9.958-5.833a6.005 6.005 0 0 0 5.881 6.241 5.264 5.264 0 0 0 4.225-2.088v1.848h2.064v-12h-2.064v1.848a5.264 5.264 0 0 0-4.225-2.088 6.005 6.005 0 0 0-5.884 6.238zm10.274 0a4.1 4.1 0 1 1-4.081-4.345 4.1 4.1 0 0 1 4.078 4.344zm6.982 6h2.064v-5.953c0-2.808 1.536-4.393 3.481-4.393 1.68 0 2.832 1.248 2.832 3.265v7.081h2.041V187.2c0-2.977-1.849-4.849-4.537-4.849a4.245 4.245 0 0 0-3.817 2.088v-1.848h-2.064v12zm18.288 5.017l7.874-17.019h-2.3l-4.105 9.1-4.128-9.1h-2.281l5.257 11.378-2.616 5.641h2.3zm17.641-5.185v-1.848a4.564 4.564 0 0 1-1.465.24c-1.3 0-1.992-.5-1.992-2.041v-6.289h3.457v-1.9h-3.457v-3.337h-2.064v3.337h-2.545v1.9h2.545v6.554a3.378 3.378 0 0 0 3.672 3.672 5.744 5.744 0 0 0 1.846-.288zm3.838.168H214v-5.953c0-2.808 1.536-4.393 3.481-4.393 1.68 0 2.832 1.248 2.832 3.265v7.081h2.041V187.2c0-2.977-1.849-4.849-4.537-4.849a4.244 4.244 0 0 0-3.817 2.086v-7.849h-2.07v18zm17.833-16.683a1.45 1.45 0 0 0-1.441-1.464 1.491 1.491 0 0 0-1.488 1.464 1.475 1.475 0 0 0 1.488 1.464 1.435 1.435 0 0 0 1.438-1.464zm-2.5 16.683h2.065v-12h-2.065v12zm7.176 0h2.064v-5.953c0-2.808 1.537-4.393 3.481-4.393 1.68 0 2.833 1.248 2.833 3.265v7.081h2.04V187.2c0-2.977-1.848-4.849-4.537-4.849a4.246 4.246 0 0 0-3.817 2.088v-1.848h-2.064v12zm26.522-.7v-11.302H258.9v1.848a5.109 5.109 0 0 0-4.177-2.088 6.114 6.114 0 0 0 0 12.218 5.128 5.128 0 0 0 4.177-2.112v1.368a3.837 3.837 0 0 1-4.009 4.153 5.132 5.132 0 0 1-4.2-2.017l-1.44 1.441a7.125 7.125 0 0 0 5.665 2.448c3.407 0 6.048-1.948 6.048-5.948zm-10.01-5.449a4.059 4.059 0 1 1 4.057 4.2 4 4 0 0 1-4.057-4.196zm22.151 6.145h2.065v-5.953c0-2.808 1.656-4.129 3.168-4.129a3.017 3.017 0 0 1 1.128.192v-2.136a4.276 4.276 0 0 0-.936-.1 3.57 3.57 0 0 0-3.36 2.448v-2.328h-2.065v12zm8.64-6a6.005 6.005 0 0 0 5.881 6.241 5.263 5.263 0 0 0 4.225-2.088v1.848h2.065v-12h-2.065v1.848a5.263 5.263 0 0 0-4.225-2.088 6.005 6.005 0 0 0-5.881 6.242zm10.274 0a4.1 4.1 0 1 1-4.081-4.345 4.1 4.1 0 0 1 4.081 4.348zm9.478-10.682a1.449 1.449 0 0 0-1.44-1.464 1.491 1.491 0 0 0-1.488 1.464 1.475 1.475 0 0 0 1.488 1.464 1.434 1.434 0 0 0 1.443-1.461zM299 194.591h2.064v-12H299v12zm7.176 0h2.064v-5.953c0-2.808 1.536-4.393 3.481-4.393 1.68 0 2.832 1.248 2.832 3.265v7.081h2.047V187.2c0-2.977-1.848-4.849-4.537-4.849a4.245 4.245 0 0 0-3.817 2.088v-1.848h-2.064v12zm33.986-6a6.278 6.278 0 1 0-6.266 6.241 6.159 6.159 0 0 0 6.267-6.242zm-10.443 0a4.168 4.168 0 1 1 4.177 4.321 4.126 4.126 0 0 1-4.176-4.322zm14.592 6h2.064v-5.953c0-2.808 1.537-4.393 3.481-4.393 1.68 0 2.833 1.248 2.833 3.265v7.081h2.04V187.2c0-2.977-1.848-4.849-4.537-4.849a4.245 4.245 0 0 0-3.817 2.088v-1.848h-2.064v12zm25.032 5.017l7.874-17.019h-2.305l-4.105 9.1-4.128-9.1H364.4l5.257 11.378-2.616 5.641h2.3zm22.467-11.018a6.278 6.278 0 1 0-6.265 6.241 6.159 6.159 0 0 0 6.265-6.241zm-10.442 0a4.168 4.168 0 1 1 4.177 4.321 4.126 4.126 0 0 1-4.177-4.321zm14.423 1.368c0 2.977 1.777 4.873 4.417 4.873a4.129 4.129 0 0 0 3.7-2.088v1.848h2.065v-12h-2.065v5.953c0 2.761-1.464 4.393-3.337 4.393-1.656 0-2.712-1.272-2.712-3.289v-7.057h-2.065v7.369zm15.264 4.633h2.065v-5.953c0-2.808 1.656-4.129 3.168-4.129a3.022 3.022 0 0 1 1.129.192v-2.136a4.285 4.285 0 0 0-.937-.1 3.57 3.57 0 0 0-3.36 2.448v-2.328h-2.065v12zm16.44 5.017h2.064v-6.865a5.266 5.266 0 0 0 4.225 2.088 6.252 6.252 0 0 0 0-12.482 5.266 5.266 0 0 0-4.225 2.088v-1.848H427.5v17.019zm10.058-11.018a4.089 4.089 0 1 1-4.081-4.345 4.1 4.1 0 0 1 4.081 4.345zm5.35 0a6.005 6.005 0 0 0 5.881 6.241 5.264 5.264 0 0 0 4.225-2.088v1.848h2.064v-12h-2.064v1.848a5.264 5.264 0 0 0-4.225-2.088 6.005 6.005 0 0 0-5.884 6.239zm10.274 0a4.1 4.1 0 1 1-4.081-4.345 4.1 4.1 0 0 1 4.081 4.345zm6.982 6h2.064v-5.953c0-2.808 1.657-4.129 3.169-4.129a3.017 3.017 0 0 1 1.128.192v-2.136a4.276 4.276 0 0 0-.936-.1 3.571 3.571 0 0 0-3.361 2.448v-2.328h-2.064v12zm8.64-6a6.005 6.005 0 0 0 5.881 6.241 5.266 5.266 0 0 0 4.225-2.088v1.848h2.064v-12h-2.064v1.848a5.266 5.266 0 0 0-4.225-2.088 6.005 6.005 0 0 0-5.88 6.239zm10.274 0a4.1 4.1 0 1 1-4.081-4.345 4.1 4.1 0 0 1 4.081 4.345zm6.045 0a6.006 6.006 0 0 0 5.882 6.241 5.263 5.263 0 0 0 4.225-2.088v1.848h2.065v-18h-2.065v7.849a5.263 5.263 0 0 0-4.225-2.091 6.006 6.006 0 0 0-5.882 6.241zm10.274 0a4.1 4.1 0 1 1-4.08-4.345 4.1 4.1 0 0 1 4.08 4.345zm6.046 0a6.328 6.328 0 0 0 11.618 3.385l-1.632-1.129a4.25 4.25 0 0 1-7.9-1.848h9.843a5.856 5.856 0 0 0 .024-.624c-.024-3.841-2.569-6.025-5.714-6.025a6.082 6.082 0 0 0-6.239 6.241zm6.169-4.417a3.591 3.591 0 0 1 3.673 3.145h-7.61a3.925 3.925 0 0 1 3.937-3.145zm12.768 8.81a1.777 1.777 0 1 0-1.777 1.8 1.809 1.809 0 0 0 1.777-1.8zm14.424 1.608h2.184V179.66h5.305v-2.112h-12.794v2.112h5.3v14.931zm10.871 0h2.064v-5.953c0-2.808 1.537-4.393 3.481-4.393 1.68 0 2.833 1.248 2.833 3.265v7.081h2.04V187.2c0-2.977-1.848-4.849-4.537-4.849a4.246 4.246 0 0 0-3.817 2.088v-7.849h-2.064v18zm17.83-16.683a1.449 1.449 0 0 0-1.44-1.464 1.491 1.491 0 0 0-1.488 1.464 1.475 1.475 0 0 0 1.488 1.464 1.434 1.434 0 0 0 1.44-1.464zm-2.5 16.683h2.064v-12H561v12zm14.953-3.336c0-1.8-1.128-2.953-3.168-3.625l-1.3-.432c-1.416-.456-1.848-.912-1.848-1.681 0-.888.888-1.392 2.016-1.392a3.244 3.244 0 0 1 2.545 1.248l1.344-1.3a4.654 4.654 0 0 0-3.841-1.728c-2.376 0-4.057 1.32-4.057 3.265 0 1.68 1.033 2.856 2.977 3.48l1.176.384c1.561.5 2.137 1.08 2.137 1.921 0 1.032-.936 1.632-2.113 1.632a3.221 3.221 0 0 1-3.072-1.9l-1.681.912a4.768 4.768 0 0 0 4.705 2.784c2.434.008 4.186-1.216 4.186-3.568zm14.423 3.336h1.728l5.546-12h-2.3l-4.105 9.074-4.105-9.074h-2.3zm9.359-6a6.328 6.328 0 0 0 11.619 3.385l-1.633-1.129a4.249 4.249 0 0 1-7.9-1.848h9.842a5.856 5.856 0 0 0 .024-.624c-.024-3.841-2.569-6.025-5.713-6.025a6.082 6.082 0 0 0-6.233 6.24zm6.169-4.417a3.591 3.591 0 0 1 3.673 3.145h-7.609a3.923 3.923 0 0 1 3.942-3.146zm9.911 10.418h2.065v-5.953c0-2.808 1.656-4.129 3.168-4.129a3.022 3.022 0 0 1 1.129.192v-2.136a4.285 4.285 0 0 0-.937-.1 3.57 3.57 0 0 0-3.36 2.448v-2.328h-2.065v12zm17.546-3.336c0-1.8-1.128-2.953-3.169-3.625l-1.3-.432c-1.416-.456-1.848-.912-1.848-1.681 0-.888.888-1.392 2.016-1.392a3.244 3.244 0 0 1 2.545 1.248l1.344-1.3a4.654 4.654 0 0 0-3.841-1.728c-2.376 0-4.057 1.32-4.057 3.265 0 1.68 1.033 2.856 2.977 3.48l1.176.384c1.561.5 2.137 1.08 2.137 1.921 0 1.032-.937 1.632-2.113 1.632a3.221 3.221 0 0 1-3.072-1.9l-1.681.912a4.768 4.768 0 0 0 4.705 2.784c2.435.007 4.187-1.217 4.187-3.569zm6.647-13.347a1.45 1.45 0 0 0-1.441-1.464 1.491 1.491 0 0 0-1.488 1.464 1.475 1.475 0 0 0 1.488 1.464 1.435 1.435 0 0 0 1.447-1.465zm-2.5 16.683h2.065v-12h-2.065v12zm18.771-6a6.278 6.278 0 1 0-6.266 6.241 6.159 6.159 0 0 0 6.275-6.243zm-10.443 0a4.168 4.168 0 1 1 4.177 4.321 4.126 4.126 0 0 1-4.168-4.323zm14.592 6h2.072v-5.953c0-2.808 1.537-4.393 3.481-4.393 1.68 0 2.833 1.248 2.833 3.265v7.081h2.04V187.2c0-2.977-1.848-4.849-4.537-4.849a4.245 4.245 0 0 0-3.817 2.088v-1.848h-2.064v12zM44.845 206.707a1.45 1.45 0 0 0-1.44-1.464 1.465 1.465 0 1 0 0 2.929 1.435 1.435 0 0 0 1.44-1.465zm-2.5 16.683h2.065v-12h-2.062v12zm14.955-3.336c0-1.8-1.128-2.953-3.169-3.625l-1.3-.432c-1.416-.456-1.848-.912-1.848-1.68 0-.888.888-1.393 2.016-1.393a3.244 3.244 0 0 1 2.544 1.249l1.344-1.3a4.655 4.655 0 0 0-3.841-1.728c-2.376 0-4.057 1.32-4.057 3.265 0 1.68 1.032 2.856 2.977 3.48l1.176.384c1.56.505 2.136 1.081 2.136 1.921 0 1.032-.936 1.632-2.112 1.632a3.221 3.221 0 0 1-3.073-1.9l-1.68.912a4.767 4.767 0 0 0 4.7 2.784c2.436.007 4.187-1.217 4.187-3.569zm22.1.36l-1.8-1.008a4.069 4.069 0 0 1-3.745 2.3 4.322 4.322 0 0 1 0-8.641 4.069 4.069 0 0 1 3.745 2.3l1.8-1.008a6.215 6.215 0 0 0-5.545-3.217 6.241 6.241 0 1 0 0 12.482 6.216 6.216 0 0 0 5.551-3.208zm3.861 2.976h2.064v-5.953c0-2.808 1.656-4.128 3.169-4.128a3.018 3.018 0 0 1 1.128.192v-2.137a4.278 4.278 0 0 0-.936-.1 3.57 3.57 0 0 0-3.361 2.449v-2.329h-2.058v12zm8.64-6a6.006 6.006 0 0 0 5.881 6.241 5.263 5.263 0 0 0 4.225-2.088v1.848h2.065v-12h-2.065v1.849a5.261 5.261 0 0 0-4.225-2.089 6.006 6.006 0 0 0-5.875 6.238zm10.274 0a4.1 4.1 0 1 1-4.081-4.344 4.1 4.1 0 0 1 4.087 4.343zm7.99 6h2.065v-10.1h3.17v-1.9h-3.168v-2.21c0-1.512.672-2.041 1.992-2.041a4.833 4.833 0 0 1 1.488.24v-1.824a5.454 5.454 0 0 0-1.872-.312 3.379 3.379 0 0 0-3.673 3.673v2.472h-2.544v1.9h2.544v10.1zm14.379-.168v-1.848a4.715 4.715 0 0 1-1.488.24c-1.3 0-1.992-.5-1.992-2.04v-6.289h3.48v-1.9h-3.48v-3.336h-2.065v3.336h-2.256v1.9h2.256v6.553a3.4 3.4 0 0 0 3.7 3.672 5.974 5.974 0 0 0 1.851-.288zm2.733-5.833a6.328 6.328 0 0 0 11.618 3.385l-1.632-1.128a4.25 4.25 0 0 1-7.9-1.849h9.842a5.856 5.856 0 0 0 .024-.624c-.024-3.84-2.568-6.025-5.713-6.025a6.082 6.082 0 0 0-6.233 6.241zm6.169-4.417a3.591 3.591 0 0 1 3.673 3.145h-7.61a3.925 3.925 0 0 1 3.943-3.145zm8.975 4.417a6.005 6.005 0 0 0 5.881 6.241 5.264 5.264 0 0 0 4.225-2.088v1.848h2.073v-18h-2.064v7.85a5.262 5.262 0 0 0-4.225-2.089 6.006 6.006 0 0 0-5.884 6.238zm10.274 0a4.1 4.1 0 1 1-4.081-4.344 4.1 4.1 0 0 1 4.086 4.344zm23.784 6h1.824l4.081-12H180.2l-2.9 8.761-3-8.762h-1.584l-3 8.762-2.9-8.762h-2.166l4.081 12h1.825l2.976-8.641zm11.83-16.683a1.45 1.45 0 0 0-1.441-1.464 1.465 1.465 0 1 0 0 2.929 1.436 1.436 0 0 0 1.447-1.464zm-2.5 16.683h2.065v-12h-2.065v12zm13.681-.168v-1.848a4.562 4.562 0 0 1-1.464.24c-1.3 0-1.992-.5-1.992-2.04v-6.289h3.466v-1.9h-3.456v-3.336h-2.065v3.336h-2.544v1.9h2.544v6.553a3.379 3.379 0 0 0 3.673 3.672 5.743 5.743 0 0 0 1.848-.287zm3.839.168h2.071v-5.953c0-2.808 1.537-4.392 3.481-4.392 1.681 0 2.833 1.248 2.833 3.264v7.081h2.04V216c0-2.976-1.848-4.849-4.537-4.849a4.245 4.245 0 0 0-3.817 2.089v-7.85h-2.064v18zm32.138 0h1.833l4.081-12H239.2l-2.905 8.762-3-8.762h-1.584l-3 8.762-2.9-8.762h-2.161l4.081 12h1.825l2.976-8.641zm8.349-6a6.006 6.006 0 0 0 5.881 6.241 5.263 5.263 0 0 0 4.225-2.088v1.848H256v-12h-2.065v1.849a5.261 5.261 0 0 0-4.225-2.089 6.006 6.006 0 0 0-5.885 6.239zm10.274 0a4.1 4.1 0 1 1-4.081-4.344 4.1 4.1 0 0 1 4.091 4.344zm13.488 5.833v-1.848a4.573 4.573 0 0 1-1.465.24c-1.3 0-1.992-.5-1.992-2.04v-6.289h3.457v-1.9h-3.448v-3.336h-2.065v3.336h-2.544v1.9h2.544v6.553a3.379 3.379 0 0 0 3.673 3.672 5.754 5.754 0 0 0 1.849-.288zm2.734-5.833a6.328 6.328 0 0 0 11.619 3.385l-1.633-1.128a4.249 4.249 0 0 1-7.9-1.849h9.842a5.856 5.856 0 0 0 .024-.624c-.024-3.84-2.569-6.025-5.714-6.025a6.083 6.083 0 0 0-6.229 6.241zm6.169-4.417a3.591 3.591 0 0 1 3.673 3.145h-7.609a3.924 3.924 0 0 1 3.945-3.145zm9.919 10.418h2.065v-5.953c0-2.808 1.656-4.128 3.168-4.128a3.025 3.025 0 0 1 1.129.192v-2.137a4.291 4.291 0 0 0-.937-.1 3.57 3.57 0 0 0-3.36 2.449v-2.329H286.4v12zm8.592-5.689h6.122v-2.064h-6.122v2.063zm10.848 5.689h2.06v-5.953c0-2.808 1.657-4.128 3.169-4.128a3.017 3.017 0 0 1 1.128.192v-2.137a4.276 4.276 0 0 0-.936-.1 3.571 3.571 0 0 0-3.361 2.449v-2.329h-2.064v12zm8.616-6a6.328 6.328 0 0 0 11.618 3.385l-1.632-1.128a4.25 4.25 0 0 1-7.9-1.849h9.842a5.856 5.856 0 0 0 .024-.624c-.024-3.84-2.568-6.025-5.713-6.025a6.082 6.082 0 0 0-6.238 6.24zm6.169-4.417a3.591 3.591 0 0 1 3.673 3.145h-7.61a3.925 3.925 0 0 1 3.938-3.146zm9.911 15.435h2.064v-6.865a5.266 5.266 0 0 0 4.225 2.088 6.252 6.252 0 0 0 0-12.482 5.264 5.264 0 0 0-4.225 2.089v-1.849h-2.064v17.019zm10.064-11.019a4.089 4.089 0 1 1-4.081-4.344 4.1 4.1 0 0 1 4.081 4.344zm5.35 0a6.328 6.328 0 0 0 11.618 3.385l-1.632-1.128a4.25 4.25 0 0 1-7.9-1.849h9.842a5.856 5.856 0 0 0 .024-.624c-.024-3.84-2.568-6.025-5.713-6.025a6.082 6.082 0 0 0-6.244 6.241zm6.169-4.417a3.592 3.592 0 0 1 3.673 3.145h-7.61a3.925 3.925 0 0 1 3.932-3.145zm9.911 10.418h2.064v-18h-2.064v18zm7.176 0h2.064v-18h-2.07v18zm6.239-6a6.328 6.328 0 0 0 11.619 3.385l-1.633-1.128a4.249 4.249 0 0 1-7.9-1.849h9.842a5.856 5.856 0 0 0 .024-.624c-.024-3.84-2.569-6.025-5.713-6.025a6.083 6.083 0 0 0-6.244 6.24zm6.169-4.417a3.591 3.591 0 0 1 3.673 3.145h-7.609a3.924 3.924 0 0 1 3.931-3.146zm9.911 10.418h2.065v-5.953c0-2.808 1.536-4.392 3.48-4.392 1.681 0 2.833 1.248 2.833 3.264v7.081h2.04V216c0-2.976-1.848-4.849-4.536-4.849a4.243 4.243 0 0 0-3.817 2.089v-1.849h-2.07v12zm21.7-.168v-1.848a4.562 4.562 0 0 1-1.464.24c-1.3 0-1.992-.5-1.992-2.04v-6.289h3.456v-1.9h-3.456v-3.336H407.7v3.336h-2.544v1.9h2.544v6.553a3.379 3.379 0 0 0 3.673 3.672 5.743 5.743 0 0 0 1.844-.289zm16.992 0v-1.848a4.562 4.562 0 0 1-1.464.24c-1.3 0-1.993-.5-1.993-2.04v-6.289h3.457v-1.9h-3.457v-3.336h-2.064v3.336h-2.545v1.9h2.545v6.553a3.378 3.378 0 0 0 3.673 3.672 5.743 5.743 0 0 0 1.84-.289zm14.017.168h1.824l4.081-12h-2.184l-2.905 8.762-3-8.762h-1.584l-3 8.762-2.9-8.762h-2.161l4.081 12h1.814l2.976-8.641zm11.83-16.683a1.449 1.449 0 0 0-1.44-1.464 1.465 1.465 0 1 0 0 2.929 1.435 1.435 0 0 0 1.432-1.466zm-2.5 16.683h2.065v-12h-2.065v12zm7.176 0h2.06v-18h-2.065v18zm7.176 0h2.064v-18h-2.064v18zm14.928 0h2.056v-10.1h3.48v-1.9h-3.48v-2.211c0-1.512.672-2.041 1.992-2.041a4.833 4.833 0 0 1 1.488.24v-1.824a5.454 5.454 0 0 0-1.872-.312 3.428 3.428 0 0 0-3.673 3.721v2.424H480.3v1.9h2.544v10.1zm9 0h2.056v-5.953c0-2.808 1.656-4.128 3.169-4.128a3.017 3.017 0 0 1 1.128.192v-2.137a4.276 4.276 0 0 0-.936-.1 3.57 3.57 0 0 0-3.361 2.449v-2.329h-2.064v12zm21.146-6a6.277 6.277 0 1 0-6.265 6.241 6.159 6.159 0 0 0 6.26-6.243zm-10.442 0a4.168 4.168 0 1 1 4.177 4.321 4.125 4.125 0 0 1-4.182-4.323zm14.591 6h2.061v-5.953c0-2.712 1.368-4.392 3.313-4.392 1.56 0 2.352 1.344 2.352 3.288v7.057h2.065v-5.953c0-2.712 1.344-4.392 3.288-4.392 1.561 0 2.377 1.344 2.377 3.288v7.057h2.064v-7.369c0-2.928-1.584-4.873-4.2-4.873a4.155 4.155 0 0 0-3.937 2.569 3.772 3.772 0 0 0-3.7-2.569 4.033 4.033 0 0 0-3.625 2.089v-1.849h-2.065v12zm35.593-.168v-1.848a4.562 4.562 0 0 1-1.464.24c-1.3 0-1.992-.5-1.992-2.04v-6.289h3.456v-1.9h-3.456v-3.336h-2.065v3.336h-2.544v1.9h2.544v6.553a3.379 3.379 0 0 0 3.673 3.672 5.743 5.743 0 0 0 1.843-.289zm3.839.168h2.064v-5.953c0-2.808 1.537-4.392 3.481-4.392 1.681 0 2.833 1.248 2.833 3.264v7.081h2.04V216c0-2.976-1.848-4.849-4.537-4.849a4.245 4.245 0 0 0-3.817 2.089v-7.85h-2.064v18zm14.4-6a6.328 6.328 0 0 0 11.618 3.385l-1.632-1.128a4.25 4.25 0 0 1-7.9-1.849h9.843a5.856 5.856 0 0 0 .024-.624c-.024-3.84-2.568-6.025-5.713-6.025a6.082 6.082 0 0 0-6.245 6.239zm6.169-4.417a3.592 3.592 0 0 1 3.673 3.145H573.2a3.924 3.924 0 0 1 3.935-3.147zM52.526 252.19h1.824l4.081-12h-2.184l-2.9 8.762-3-8.762h-1.589l-3 8.762-2.9-8.762h-2.16l4.081 12H46.6l2.977-8.642zm20.88-6a6.277 6.277 0 1 0-6.265 6.241 6.16 6.16 0 0 0 6.265-6.242zm-10.442 0a4.168 4.168 0 1 1 4.177 4.32 4.125 4.125 0 0 1-4.177-4.321zm14.591 6h2.065v-5.953c0-2.809 1.656-4.129 3.169-4.129a3.018 3.018 0 0 1 1.128.192v-2.137a4.279 4.279 0 0 0-.936-.1 3.572 3.572 0 0 0-3.361 2.449v-2.329h-2.064v12zm9.984 0H89.6v-18h-2.06v18zm6.24-6a6.006 6.006 0 0 0 5.881 6.241 5.261 5.261 0 0 0 4.225-2.089v1.849h2.065v-18h-2.065v7.85a5.263 5.263 0 0 0-4.225-2.089 6.006 6.006 0 0 0-5.881 6.237zm10.274 0a4.1 4.1 0 1 1-4.081-4.345 4.1 4.1 0 0 1 4.081 4.344zm6.6.312h6.121v-2.065h-6.121v2.063zm10.847 5.688h2.064v-5.953c0-2.809 1.657-4.129 3.169-4.129a3.017 3.017 0 0 1 1.128.192v-2.137a4.276 4.276 0 0 0-.936-.1 3.572 3.572 0 0 0-3.361 2.449v-2.329H121.5v12zm8.616-6a6.327 6.327 0 0 0 11.618 3.384l-1.632-1.128a4.25 4.25 0 0 1-7.9-1.848h9.842a5.856 5.856 0 0 0 .024-.624c-.024-3.841-2.568-6.026-5.713-6.026a6.082 6.082 0 0 0-6.24 6.241zm6.169-4.417a3.591 3.591 0 0 1 3.673 3.144h-7.61a3.924 3.924 0 0 1 3.936-3.145zm9.915 10.417h2.064v-5.953c0-2.809 1.537-4.393 3.481-4.393 1.68 0 2.833 1.248 2.833 3.264v7.082h2.04v-7.39c0-2.976-1.848-4.849-4.537-4.849a4.246 4.246 0 0 0-3.817 2.089v-1.849H146.2v12zm26.93-6a6.278 6.278 0 1 0-6.265 6.241 6.16 6.16 0 0 0 6.26-6.242zm-10.442 0a4.168 4.168 0 1 1 4.177 4.32 4.125 4.125 0 0 1-4.182-4.321zm24.721 6h1.825l4.081-12h-2.185l-2.9 8.762-3-8.762h-1.584l-3 8.762-2.905-8.762h-2.16l4.081 12h1.824l2.977-8.642zm9.334 0h2.057v-5.953c0-2.809 1.537-4.393 3.481-4.393 1.68 0 2.833 1.248 2.833 3.264v7.082h2.04v-7.39c0-2.976-1.848-4.849-4.537-4.849a4.247 4.247 0 0 0-3.817 2.089v-1.849h-2.064v12zm14.4-6a6.328 6.328 0 0 0 11.619 3.384l-1.632-1.128a4.25 4.25 0 0 1-7.9-1.848h9.842a5.856 5.856 0 0 0 .024-.624c-.024-3.841-2.569-6.026-5.713-6.026a6.083 6.083 0 0 0-6.246 6.241zm6.17-4.417a3.591 3.591 0 0 1 3.673 3.144h-7.61a3.923 3.923 0 0 1 3.931-3.145zm8.974 4.417a6.007 6.007 0 0 0 5.882 6.241 5.26 5.26 0 0 0 4.224-2.089v1.849h2.065v-18h-2.065v7.85a5.263 5.263 0 0 0-4.224-2.089 6.007 6.007 0 0 0-5.888 6.237zm10.275 0a4.1 4.1 0 1 1-4.081-4.345 4.1 4.1 0 0 1 4.075 4.344zm14.349 6h10.466v-2.113h-8.233v-14.93h-2.233v17.043zm16.512-16.683a1.45 1.45 0 0 0-1.44-1.465 1.491 1.491 0 0 0-1.488 1.465 1.475 1.475 0 0 0 1.488 1.464 1.434 1.434 0 0 0 1.434-1.464zm-2.5 16.683h2.064v-12h-2.064v12zm7.176 0h2.064v-5.953c0-2.713 1.368-4.393 3.313-4.393 1.56 0 2.352 1.344 2.352 3.288v7.058h2.065v-5.953c0-2.713 1.344-4.393 3.289-4.393 1.56 0 2.376 1.344 2.376 3.288v7.058h2.064v-7.37c0-2.928-1.584-4.873-4.2-4.873a4.154 4.154 0 0 0-3.937 2.569 3.774 3.774 0 0 0-3.7-2.569 4.036 4.036 0 0 0-3.625 2.089v-1.849h-2.06v12zm34.034-6a6.278 6.278 0 1 0-6.265 6.241 6.159 6.159 0 0 0 6.263-6.242zm-10.442 0a4.168 4.168 0 1 1 4.177 4.32 4.125 4.125 0 0 1-4.179-4.321zm14.591 6h2.065v-5.953c0-2.809 1.536-4.393 3.48-4.393 1.681 0 2.833 1.248 2.833 3.264v7.082h2.04v-7.39c0-2.976-1.849-4.849-4.537-4.849a4.245 4.245 0 0 0-3.817 2.089v-1.849h-2.066v12zm21.7-.168v-1.849a4.573 4.573 0 0 1-1.465.24c-1.3 0-1.992-.5-1.992-2.04v-6.289h3.457v-1.9h-3.457v-3.336h-2.065v3.336h-2.544v1.9h2.544v6.553a3.379 3.379 0 0 0 3.673 3.673 5.754 5.754 0 0 0 1.845-.288zm2.734-5.833a6.006 6.006 0 0 0 5.881 6.241 5.261 5.261 0 0 0 4.225-2.089v1.849h2.065v-12h-2.065v1.849a5.264 5.264 0 0 0-4.225-2.089 6.007 6.007 0 0 0-5.885 6.239zm10.274 0a4.1 4.1 0 1 1-4.081-4.345 4.1 4.1 0 0 1 4.077 4.345zm14.038 6h2.064v-5.953c0-2.713 1.369-4.393 3.313-4.393 1.56 0 2.352 1.344 2.352 3.288v7.058h2.065v-5.953c0-2.713 1.344-4.393 3.289-4.393 1.56 0 2.376 1.344 2.376 3.288v7.058h2.065v-7.37c0-2.928-1.585-4.873-4.2-4.873a4.154 4.154 0 0 0-3.937 2.569 3.774 3.774 0 0 0-3.7-2.569 4.036 4.036 0 0 0-3.625 2.089v-1.849h-2.064v12zm24.936-16.683a1.45 1.45 0 0 0-1.44-1.465 1.491 1.491 0 0 0-1.488 1.465 1.475 1.475 0 0 0 1.488 1.464 1.434 1.434 0 0 0 1.436-1.463zm-2.5 16.683h2.064v-12h-2.064v12zm7.176 0h2.06v-18h-2.06v18zm7.175 0h2.065v-18h-2.065v18zm16.728-16.683a1.45 1.45 0 0 0-1.44-1.465 1.491 1.491 0 0 0-1.488 1.465 1.475 1.475 0 0 0 1.488 1.464 1.434 1.434 0 0 0 1.44-1.463zm-2.5 16.683h2.064v-12h-2.064v12zm7.176 0h2.064v-5.953c0-2.809 1.536-4.393 3.481-4.393 1.68 0 2.832 1.248 2.832 3.264v7.082h2.041V244.8c0-2.976-1.848-4.849-4.537-4.849a4.246 4.246 0 0 0-3.817 2.089v-1.849h-2.064v12zm22.7 0h2.233v-17.042h-2.233v17.043zm14.114-.168v-1.849a4.573 4.573 0 0 1-1.465.24c-1.3 0-1.992-.5-1.992-2.04v-6.289h3.457v-1.9h-3.457v-3.336h-2.065v3.336h-2.544v1.9h2.544v6.553a3.379 3.379 0 0 0 3.673 3.673 5.754 5.754 0 0 0 1.856-.287zm2.734-5.833a6.006 6.006 0 0 0 5.881 6.241 5.261 5.261 0 0 0 4.225-2.089v1.849h2.065v-12h-2.058v1.849a5.264 5.264 0 0 0-4.225-2.089 6.007 6.007 0 0 0-5.881 6.24zm10.274 0a4.1 4.1 0 1 1-4.081-4.345 4.1 4.1 0 0 1 4.088 4.346zm6.982 6h2.064v-18h-2.057v18zm10.369 5.017l7.873-17.02h-2.3l-4.105 9.1-4.129-9.1h-2.28l5.257 11.379-2.617 5.641h2.309zm12.527-5.545a2.047 2.047 0 0 0 .337-1.081 1.777 1.777 0 1 0-3.553 0 1.786 1.786 0 0 0 .984 1.609l-1.608 3.432h1.368zm11.832.528h2.064v-6l6.5 6h2.785l-7.226-6.7 5.906-5.3h-2.737l-5.233 4.681v-10.683h-2.064v18zm14.135 0h2.065v-5.953c0-2.809 1.536-4.393 3.48-4.393 1.681 0 2.833 1.248 2.833 3.264v7.082h2.04V244.8c0-2.976-1.848-4.849-4.537-4.849a4.244 4.244 0 0 0-3.816 2.089v-1.849h-2.065v12zm26.93-6a6.277 6.277 0 1 0-6.265 6.241 6.159 6.159 0 0 0 6.272-6.24zm-10.442 0a4.168 4.168 0 1 1 4.177 4.32 4.126 4.126 0 0 1-4.17-4.319zm24.722 6h1.824l4.081-12h-2.184l-2.9 8.762-3-8.762h-1.584l-3 8.762-2.9-8.762h-2.161l4.081 12h1.825l2.976-8.642zm9.333 0h2.071v-5.953c0-2.809 1.536-4.393 3.481-4.393 1.68 0 2.832 1.248 2.832 3.264v7.082h2.041V244.8c0-2.976-1.849-4.849-4.537-4.849a4.245 4.245 0 0 0-3.817 2.089v-1.849h-2.065v12zm23.088 0h2.065v-10.104h3.481v-1.9h-3.481v-2.208c0-1.512.672-2.04 1.992-2.04a4.844 4.844 0 0 1 1.489.24v-1.825a5.464 5.464 0 0 0-1.873-.312 3.429 3.429 0 0 0-3.673 3.721v2.424h-2.537v1.9h2.544v10.106zm20.283-6a6.278 6.278 0 1 0-6.266 6.241 6.16 6.16 0 0 0 6.273-6.24zm-10.442 0a4.167 4.167 0 1 1 4.176 4.32 4.125 4.125 0 0 1-4.169-4.319zm14.591 6h2.064v-5.953c0-2.809 1.657-4.129 3.169-4.129a3.017 3.017 0 0 1 1.128.192v-2.137a4.276 4.276 0 0 0-.936-.1 3.572 3.572 0 0 0-3.361 2.449v-2.329h-2.064v12zm18.936-16.683a1.45 1.45 0 0 0-1.44-1.465 1.491 1.491 0 0 0-1.488 1.465 1.475 1.475 0 0 0 1.488 1.464 1.434 1.434 0 0 0 1.447-1.462zm-2.5 16.683h2.064v-12H637.4v12zm13.681-.168v-1.849a4.562 4.562 0 0 1-1.464.24c-1.3 0-1.993-.5-1.993-2.04v-6.289h3.457v-1.9h-3.446v-3.336h-2.064v3.336h-2.545v1.9h2.545v6.553a3.378 3.378 0 0 0 3.673 3.673 5.743 5.743 0 0 0 1.848-.286zm11.616-3.169c0-1.8-1.128-2.952-3.169-3.625l-1.3-.432c-1.416-.456-1.848-.912-1.848-1.68 0-.888.888-1.392 2.016-1.392a3.244 3.244 0 0 1 2.545 1.248l1.344-1.3a4.655 4.655 0 0 0-3.841-1.729c-2.376 0-4.057 1.321-4.057 3.265 0 1.68 1.033 2.857 2.977 3.481l1.176.384c1.561.5 2.137 1.08 2.137 1.92 0 1.032-.937 1.632-2.113 1.632a3.221 3.221 0 0 1-3.072-1.9l-1.681.912a4.767 4.767 0 0 0 4.7 2.785c2.445.01 4.197-1.214 4.197-3.567zM42.348 280.989h2.065v-18h-2.065v18zm18.77-6a6.277 6.277 0 1 0-6.265 6.241 6.159 6.159 0 0 0 6.266-6.242zm-10.442 0a4.168 4.168 0 1 1 4.177 4.321 4.125 4.125 0 0 1-4.177-4.322zm14.591 6h2.064v-5.953c0-2.809 1.536-4.393 3.481-4.393 1.68 0 2.833 1.248 2.833 3.265v7.081h2.041V273.6c0-2.977-1.848-4.849-4.537-4.849a4.245 4.245 0 0 0-3.817 2.088v-1.848h-2.064v12zm26.522-.7v-11.302h-2.064v1.848a5.107 5.107 0 0 0-4.177-2.088 6.114 6.114 0 0 0 0 12.218 5.126 5.126 0 0 0 4.177-2.112v1.368a3.837 3.837 0 0 1-4.009 4.153 5.136 5.136 0 0 1-4.2-2.017l-1.44 1.44a7.123 7.123 0 0 0 5.665 2.449c3.408 0 6.049-1.946 6.049-5.953zm-10.01-5.449a4.059 4.059 0 1 1 4.057 4.2 4 4 0 0 1-4.056-4.196zm22.873 2.808c0-1.8-1.128-2.952-3.169-3.624l-1.3-.432c-1.416-.457-1.848-.913-1.848-1.681 0-.888.888-1.392 2.016-1.392a3.246 3.246 0 0 1 2.545 1.248l1.344-1.3a4.656 4.656 0 0 0-3.841-1.728c-2.376 0-4.057 1.32-4.057 3.264 0 1.681 1.032 2.857 2.977 3.481l1.176.384c1.56.5 2.137 1.08 2.137 1.92 0 1.033-.937 1.633-2.113 1.633a3.221 3.221 0 0 1-3.073-1.9l-1.68.912a4.767 4.767 0 0 0 4.7 2.785c2.434.011 4.187-1.213 4.187-3.566zm10.512 3.169v-1.848a4.573 4.573 0 0 1-1.465.24c-1.3 0-1.992-.5-1.992-2.041v-6.289h3.457v-1.9h-3.457v-3.329h-2.065v3.337H107.1v1.9h2.544v6.553a3.379 3.379 0 0 0 3.673 3.673 5.754 5.754 0 0 0 1.848-.292zm2.734-5.833a6.006 6.006 0 0 0 5.881 6.241 5.263 5.263 0 0 0 4.225-2.088v1.848h2.065v-12h-2.065v1.848a5.263 5.263 0 0 0-4.225-2.088 6.006 6.006 0 0 0-5.879 6.243zm10.274 0a4.1 4.1 0 1 1-4.081-4.345 4.1 4.1 0 0 1 4.082 4.349zm6.982 6h2.065v-5.953c0-2.809 1.536-4.393 3.48-4.393 1.681 0 2.833 1.248 2.833 3.265v7.081h2.04V273.6c0-2.977-1.848-4.849-4.537-4.849a4.243 4.243 0 0 0-3.816 2.088v-1.848h-2.065v12zm14.4-6a6.006 6.006 0 0 0 5.881 6.241 5.264 5.264 0 0 0 4.225-2.088v1.848h2.064v-18h-2.064v7.849a5.264 5.264 0 0 0-4.225-2.088 6.005 6.005 0 0 0-5.88 6.242zm10.274 0a4.1 4.1 0 1 1-4.081-4.345 4.1 4.1 0 0 1 4.082 4.349zm9.478-10.682a1.449 1.449 0 0 0-1.44-1.464 1.492 1.492 0 0 0-1.489 1.464 1.476 1.476 0 0 0 1.489 1.464 1.434 1.434 0 0 0 1.441-1.46zm-2.5 16.683h2.064v-12h-2.064v12zm7.175 0h2.065v-5.953c0-2.809 1.536-4.393 3.481-4.393 1.68 0 2.832 1.248 2.832 3.265v7.081h2.041V273.6c0-2.977-1.849-4.849-4.537-4.849a4.244 4.244 0 0 0-3.817 2.088v-1.848h-2.065v12zm26.523-.7v-11.298h-2.065v1.848a5.106 5.106 0 0 0-4.177-2.088 6.114 6.114 0 0 0 0 12.218 5.125 5.125 0 0 0 4.177-2.112v1.368a3.837 3.837 0 0 1-4.009 4.153 5.138 5.138 0 0 1-4.2-2.017l-1.44 1.44a7.124 7.124 0 0 0 5.665 2.449c3.413 0 6.054-1.946 6.054-5.953zm-10.004-5.441a4.059 4.059 0 1 1 4.057 4.2 4 4 0 0 1-4.057-4.2zm33.05 3.168l-1.8-1.008a4.071 4.071 0 0 1-3.75 2.305 4.323 4.323 0 0 1 0-8.642 4.07 4.07 0 0 1 3.745 2.3l1.8-1.008a6.216 6.216 0 0 0-5.545-3.212 6.241 6.241 0 1 0 0 12.482 6.215 6.215 0 0 0 5.548-3.217zm15.45-3.024a6.278 6.278 0 1 0-6.266 6.241 6.159 6.159 0 0 0 6.266-6.241zm-10.442 0a4.167 4.167 0 1 1 4.176 4.321 4.125 4.125 0 0 1-4.172-4.321zm14.591 6h2.064v-5.953c0-2.713 1.369-4.393 3.313-4.393 1.561 0 2.353 1.344 2.353 3.289v7.057h2.064v-5.953c0-2.713 1.344-4.393 3.289-4.393 1.56 0 2.376 1.344 2.376 3.289v7.057h2.065v-7.368c0-2.929-1.585-4.873-4.2-4.873a4.154 4.154 0 0 0-3.937 2.568 3.773 3.773 0 0 0-3.7-2.568 4.036 4.036 0 0 0-3.625 2.088v-1.848h-2.064v12zm22.44 0h2.064v-5.953c0-2.713 1.369-4.393 3.313-4.393 1.56 0 2.353 1.344 2.353 3.289v7.057h2.064v-5.953c0-2.713 1.344-4.393 3.289-4.393 1.56 0 2.376 1.344 2.376 3.289v7.057h2.065v-7.368c0-2.929-1.585-4.873-4.2-4.873a4.153 4.153 0 0 0-3.937 2.568 3.773 3.773 0 0 0-3.7-2.568 4.035 4.035 0 0 0-3.625 2.088v-1.848h-2.064v12zm24.936-16.683a1.449 1.449 0 0 0-1.44-1.464 1.491 1.491 0 0 0-1.488 1.464 1.475 1.475 0 0 0 1.488 1.464 1.434 1.434 0 0 0 1.444-1.463zm-2.5 16.683h2.075v-12h-2.064v12zm13.681-.168v-1.848a4.562 4.562 0 0 1-1.464.24c-1.3 0-1.993-.5-1.993-2.041v-6.289h3.457v-1.9h-3.457v-3.332h-2.064v3.337h-2.545v1.9h2.545v6.553a3.378 3.378 0 0 0 3.673 3.673 5.743 5.743 0 0 0 1.856-.292zm3.839.168h2.064v-5.953c0-2.713 1.368-4.393 3.313-4.393 1.56 0 2.352 1.344 2.352 3.289v7.057h2.065v-5.953c0-2.713 1.344-4.393 3.288-4.393 1.561 0 2.377 1.344 2.377 3.289v7.057h2.064v-7.368c0-2.929-1.584-4.873-4.2-4.873a4.153 4.153 0 0 0-3.936 2.568 3.774 3.774 0 0 0-3.7-2.568 4.034 4.034 0 0 0-3.625 2.088v-1.848h-2.064v12zm21.5-6a6.328 6.328 0 0 0 11.619 3.384l-1.633-1.128a4.249 4.249 0 0 1-7.9-1.848h9.842a5.856 5.856 0 0 0 .024-.624c-.024-3.841-2.569-6.025-5.713-6.025a6.082 6.082 0 0 0-6.228 6.241zm6.17-4.417a3.59 3.59 0 0 1 3.672 3.145h-7.609a3.923 3.923 0 0 1 3.948-3.145zm9.91 10.418h2.075v-5.953c0-2.809 1.536-4.393 3.48-4.393 1.681 0 2.833 1.248 2.833 3.265v7.081h2.04V273.6c0-2.977-1.848-4.849-4.537-4.849a4.243 4.243 0 0 0-3.816 2.088v-1.848h-2.065v12zm21.7-.168v-1.848a4.562 4.562 0 0 1-1.464.24c-1.3 0-1.992-.5-1.992-2.041v-6.289h3.456v-1.9h-3.456v-3.333h-2.065v3.337h-2.544v1.9h2.544v6.553a3.379 3.379 0 0 0 3.673 3.673 5.743 5.743 0 0 0 1.856-.292zm16.992 0v-1.848a4.562 4.562 0 0 1-1.464.24c-1.3 0-1.993-.5-1.993-2.041v-6.289h3.457v-1.9h-3.457v-3.333h-2.06v3.337h-2.545v1.9h2.545v6.553a3.378 3.378 0 0 0 3.673 3.673 5.743 5.743 0 0 0 1.852-.292zm15.265-5.833a6.277 6.277 0 1 0-6.265 6.241 6.159 6.159 0 0 0 6.273-6.241zm-10.442 0a4.168 4.168 0 1 1 4.177 4.321 4.126 4.126 0 0 1-4.169-4.321zm27.745 5.833v-1.848a4.564 4.564 0 0 1-1.465.24c-1.3 0-1.992-.5-1.992-2.041v-6.289h3.457v-1.9h-3.457v-3.333h-2.064v3.337h-2.545v1.9h2.545v6.553a3.378 3.378 0 0 0 3.672 3.673 5.744 5.744 0 0 0 1.857-.292zm2.734-5.833a6.328 6.328 0 0 0 11.619 3.384l-1.632-1.128a4.25 4.25 0 0 1-7.9-1.848h9.842a5.856 5.856 0 0 0 .024-.624c-.024-3.841-2.569-6.025-5.713-6.025a6.082 6.082 0 0 0-6.232 6.241zm6.17-4.417a3.59 3.59 0 0 1 3.672 3.145h-7.601a3.923 3.923 0 0 1 3.94-3.145zm7.678 10.418h2.569l3.649-4.537 3.648 4.537h2.545l-4.9-6.073 4.522-5.929h-2.521l-3.288 4.321-3.313-4.321h-2.5l4.513 5.929zm22.226-.168v-1.848a4.562 4.562 0 0 1-1.464.24c-1.3 0-1.993-.5-1.993-2.041v-6.289h3.464v-1.9h-3.457v-3.333h-2.063v3.337h-2.545v1.9h2.545v6.553a3.378 3.378 0 0 0 3.673 3.673 5.743 5.743 0 0 0 1.847-.292zm6.335-16.515a1.449 1.449 0 0 0-1.44-1.464 1.492 1.492 0 0 0-1.489 1.464 1.476 1.476 0 0 0 1.489 1.464 1.434 1.434 0 0 0 1.448-1.464zm-2.5 16.683h2.072v-12h-2.06v12zm7.175 0h2.065v-18h-2.065v18zm6.24-6a6.328 6.328 0 0 0 11.619 3.384l-1.633-1.128a4.25 4.25 0 0 1-7.9-1.848h9.843a5.856 5.856 0 0 0 .024-.624c-.024-3.841-2.569-6.025-5.714-6.025a6.082 6.082 0 0 0-6.227 6.24zm6.169-4.417a3.591 3.591 0 0 1 3.673 3.145h-7.61a3.925 3.925 0 0 1 3.949-3.146zm23.064 10.25v-1.848a4.562 4.562 0 0 1-1.464.24c-1.3 0-1.993-.5-1.993-2.041v-6.289h3.457v-1.9h-3.457v-3.334h-2.064v3.337h-2.545v1.9h2.545v6.553a3.378 3.378 0 0 0 3.673 3.673 5.743 5.743 0 0 0 1.86-.292zm3.839.168h2.064v-5.953c0-2.809 1.657-4.129 3.169-4.129a3.017 3.017 0 0 1 1.128.192v-2.136a4.276 4.276 0 0 0-.936-.1 3.571 3.571 0 0 0-3.361 2.448v-2.328h-2.064v12zm8.64-6a6.006 6.006 0 0 0 5.881 6.241 5.264 5.264 0 0 0 4.225-2.088v1.848h2.064v-12h-2.064v1.848a5.264 5.264 0 0 0-4.225-2.088 6.005 6.005 0 0 0-5.869 6.237zm10.274 0a4.1 4.1 0 1 1-4.081-4.345 4.1 4.1 0 0 1 4.093 4.343zm6.045 0a6.007 6.007 0 0 0 5.882 6.241 5.262 5.262 0 0 0 4.224-2.088v1.848h2.065v-18h-2.065v7.849a5.262 5.262 0 0 0-4.224-2.088 6.006 6.006 0 0 0-5.87 6.236zm10.274 0a4.1 4.1 0 1 1-4.08-4.345 4.1 4.1 0 0 1 4.092 4.343zm9.479-10.682a1.45 1.45 0 0 0-1.441-1.464 1.491 1.491 0 0 0-1.488 1.464 1.475 1.475 0 0 0 1.488 1.464 1.435 1.435 0 0 0 1.453-1.466zm-2.5 16.683h2.065v-12h-2.065v12zm13.681-.168v-1.848a4.562 4.562 0 0 1-1.464.24c-1.3 0-1.992-.5-1.992-2.041v-6.289h3.456v-1.9h-3.456v-3.335H553.9v3.337h-2.544v1.9h2.544v6.553a3.379 3.379 0 0 0 3.673 3.673 5.743 5.743 0 0 0 1.85-.292zm6.336-16.515a1.45 1.45 0 0 0-1.441-1.464 1.491 1.491 0 0 0-1.488 1.464 1.475 1.475 0 0 0 1.488 1.464 1.435 1.435 0 0 0 1.456-1.466zm-2.5 16.683h2.064v-12h-2.064v12zm18.77-6a6.277 6.277 0 1 0-6.265 6.241 6.159 6.159 0 0 0 6.283-6.244zm-10.442 0a4.168 4.168 0 1 1 4.177 4.321 4.125 4.125 0 0 1-4.159-4.324zm14.592 6h2.064v-5.953c0-2.809 1.536-4.393 3.481-4.393 1.68 0 2.832 1.248 2.832 3.265v7.081h2.059V273.6c0-2.977-1.849-4.849-4.537-4.849a4.244 4.244 0 0 0-3.817 2.088v-1.848h-2.064v12zm23.113-3.337c0-1.8-1.128-2.952-3.169-3.624l-1.3-.432c-1.416-.457-1.848-.913-1.848-1.681 0-.888.888-1.392 2.016-1.392a3.246 3.246 0 0 1 2.545 1.248l1.344-1.3a4.656 4.656 0 0 0-3.841-1.728c-2.376 0-4.057 1.32-4.057 3.264 0 1.681 1.032 2.857 2.977 3.481l1.176.384c1.56.5 2.136 1.08 2.136 1.92 0 1.033-.936 1.633-2.112 1.633a3.221 3.221 0 0 1-3.073-1.9l-1.68.912a4.767 4.767 0 0 0 4.705 2.785c2.447.005 4.199-1.219 4.199-3.572zm7.007 1.729a1.777 1.777 0 1 0-1.777 1.8 1.809 1.809 0 0 0 1.793-1.802z"/><path id="Rectangle_4_copy_4" data-name="Rectangle 4 copy 4" d="M39 348.875h122.406v3.656H39z"/><path id="Shop_now" data-name="Shop now" class="cls-2" d="M44.217 341.954c2.706 0 4.564-1.653 4.582-4.022.018-1.966-1.19-3.215-3.048-3.894l-.9-.331c-1.353-.5-1.984-.808-1.984-1.506 0-.68.776-.992 1.551-.992a2.829 2.829 0 0 1 2.219 1.084l1.876-2.02a5.3 5.3 0 0 0-4.131-1.8c-2.561 0-4.419 1.487-4.419 4.022 0 1.782 1.154 3.049 3.229 3.765l.9.313c1.281.44 1.786.9 1.786 1.561 0 .624-.6 1.083-1.551 1.083a3.337 3.337 0 0 1-2.652-1.487l-2.2 1.892a5.582 5.582 0 0 0 4.742 2.332zm9.726-.22h2.867v-5.161h5.159v5.161h2.868v-13.041h-2.868v5.107H56.81v-5.106h-2.868v13.041zm22.66.22a6.742 6.742 0 1 0-6.62-6.741 6.7 6.7 0 0 0 6.617 6.741zm0-2.828a3.918 3.918 0 1 1 3.716-3.913 3.837 3.837 0 0 1-3.719 3.913zm20.622-5.97a4.4 4.4 0 0 0-4.51-4.463h-4.348v13.041h2.868V337.6h1.479a4.384 4.384 0 0 0 4.51-4.444zm-2.778 0a1.7 1.7 0 0 1-1.768 1.708h-1.444v-3.416h1.443a1.689 1.689 0 0 1 1.768 1.708zm25.979 8.578v-13.041h-2.886v8.045l-6.223-8.045h-2.472v13.041h2.869v-8.064l6.241 8.064h2.471zm11.765.22a6.742 6.742 0 1 0-6.62-6.741 6.7 6.7 0 0 0 6.619 6.741zm0-2.828a3.918 3.918 0 1 1 3.716-3.913 3.837 3.837 0 0 1-3.717 3.913zm21.686 2.608h2.723l2.976-13.041h-3.067l-1.749 8.265-3.608-8.485-3.589 8.485-1.75-8.265h-3.067l2.959 13.041h2.723l2.724-6.392z"/></svg>