<svg id="Copy_copy_9" data-name="Copy copy 9" xmlns="http://www.w3.org/2000/svg" width="768" height="373"><defs><style>.cls-2{fill-rule:evenodd}</style></defs><path id="Rectangle_109_copy_8" data-name="Rectangle 109 copy 8" fill="#fff" d="M0 0h768v373H0z"/><path id="STRETCH-SUEDE_MINI_SKIRT_Suede_b._1998_What_s_new_about_this_" data-name="STRETCH-SUEDE MINI SKIRT Suede, b. 1998 What’s new about this" class="cls-2" d="M51.424 67.615c5.76 0 9.715-3.456 9.753-8.409.038-4.108-2.534-6.719-6.489-8.14l-1.92-.691c-2.88-1.037-4.224-1.69-4.224-3.148 0-1.421 1.651-2.073 3.3-2.073a6.064 6.064 0 0 1 4.723 2.265l3.993-4.224a11.376 11.376 0 0 0-8.793-3.763c-5.452 0-9.407 3.11-9.407 8.409 0 3.724 2.457 6.374 6.873 7.871l1.92.653c2.726.921 3.8 1.881 3.8 3.264 0 1.305-1.267 2.265-3.3 2.265a7.132 7.132 0 0 1-5.644-3.11l-4.684 3.955a11.954 11.954 0 0 0 10.099 4.876zm20.429-.461H78V45.729h7.027v-5.836H64.9v5.836h6.95v21.425zm18.816 0h6.105V55.9h1l9.062 11.25h7.334l-9.64-12.014c3.456-1.229 5.337-3.494 5.337-7.026a8.049 8.049 0 0 0-8.447-8.217H90.669v27.261zm6.105-16.434V45.5h3.916c1.805 0 3.111.96 3.111 2.611 0 1.574-1.306 2.611-3.111 2.611h-3.916zm21.235 16.434h17.279v-5.836h-11.174v-4.876h8.87v-5.837h-8.87v-4.876h11.174v-5.836h-17.279v27.261zm28.761 0h6.144V45.729h7.026v-5.836h-20.12v5.836h6.95v21.425zm30.336.461a14.094 14.094 0 0 0 12.748-7.449l-5.376-2.918a8.179 8.179 0 1 1 0-7.449l5.376-2.918a14.213 14.213 0 1 0-12.748 20.734zm18.241-.461h6.1V56.365h10.981v10.789h6.105V39.893h-6.105v10.674h-10.976V39.893h-6.1v27.261zm30.22-10.866h11.289v-5.529h-11.289v5.529zm26.457 11.327c5.759 0 9.714-3.456 9.753-8.409.038-4.108-2.534-6.719-6.489-8.14l-1.92-.691c-2.88-1.037-4.224-1.69-4.224-3.148 0-1.421 1.651-2.073 3.3-2.073a6.064 6.064 0 0 1 4.723 2.265l3.993-4.224a11.374 11.374 0 0 0-8.793-3.763c-5.452 0-9.407 3.11-9.407 8.409 0 3.724 2.458 6.374 6.873 7.871l1.92.653c2.726.921 3.8 1.881 3.8 3.264 0 1.305-1.267 2.265-3.3 2.265a7.132 7.132 0 0 1-5.644-3.11l-4.685 3.955a11.955 11.955 0 0 0 10.1 4.876zm26.8 0c6.528 0 11.212-4.454 11.212-11.25V39.893h-6.105v16.549c0 3.264-2.073 5.26-5.107 5.26s-5.106-2-5.106-5.26V39.893h-6.106v16.472c.002 6.796 4.649 11.25 11.214 11.25zm18.586-.461h17.279v-5.836h-11.172v-4.876h8.87v-5.837h-8.87v-4.876h11.174v-5.836h-17.279v27.261zm23.847 0h9.292a13.633 13.633 0 1 0 0-27.261h-9.292v27.261zm6.1-5.606V45.5h3.187a7.694 7.694 0 0 1 7.718 8.025 7.694 7.694 0 0 1-7.718 8.025h-3.187zm23.271 5.606h17.278v-5.836H356.74v-4.876h8.869v-5.837h-8.869v-4.876h11.173v-5.836h-17.278v27.261zm48.305-5.8l7.948-11.02v16.82h6.144V39.893h-5.568l-8.517 11.749-8.524-11.749h-5.568v27.261h6.106V50.337zm21.774 5.8h6.105V39.893h-6.105v27.261zm38.436 0V39.893h-6.144V56.71l-13.24-16.817H434.5v27.261h6.1V50.3l13.285 16.856h5.261zm7.681 0h6.1V39.893h-6.1v27.261zm32.293.461c5.76 0 9.715-3.456 9.753-8.409.038-4.108-2.534-6.719-6.489-8.14l-1.92-.691c-2.88-1.037-4.224-1.69-4.224-3.148 0-1.421 1.651-2.073 3.3-2.073a6.064 6.064 0 0 1 4.723 2.265l3.994-4.224a11.377 11.377 0 0 0-8.793-3.763c-5.453 0-9.408 3.11-9.408 8.409 0 3.724 2.458 6.374 6.873 7.871l1.92.653c2.727.921 3.8 1.881 3.8 3.264 0 1.305-1.267 2.265-3.3 2.265a7.133 7.133 0 0 1-5.645-3.11l-4.684 3.955a11.953 11.953 0 0 0 10.107 4.876zm15.9-.461h6.067v-12.21l11.1 12.21h7.833l-12.938-14.168 10.751-13.093h-7.488l-9.253 11.4v-11.4h-6.067v27.261zm28.8 0h6.105V39.893h-6.105v27.261zm13.785 0h6.105V55.9h1l9.061 11.25h7.334l-9.638-12.018c3.456-1.229 5.338-3.494 5.338-7.026a8.049 8.049 0 0 0-8.448-8.217h-10.747v27.265zm6.105-16.434V45.5h3.917c1.8 0 3.11.96 3.11 2.611 0 1.574-1.306 2.611-3.11 2.611h-3.917zm25.306 16.434h6.143V45.729h7.027v-5.836h-20.12v5.836h6.95v21.425zM41.354 97.691c.977 1.927 3.485 3.379 6.575 3.379 3.485 0 5.967-2.006 5.967-5.2 0-2.772-1.584-4.356-4.357-5.413l-2.271-.871c-1.9-.713-2.825-1.426-2.825-3.01 0-1.558 1.531-2.587 3.38-2.587a4.639 4.639 0 0 1 3.723 1.848l1.8-1.584a6.838 6.838 0 0 0-5.466-2.561c-3.353 0-5.862 1.927-5.862 4.99 0 2.561 1.32 4.093 4.251 5.175l2.482.95c1.743.66 2.693 1.663 2.693 3.168 0 1.743-1.531 2.8-3.459 2.8a5.238 5.238 0 0 1-4.647-2.561zm16.9-2.033c0 3.274 1.954 5.36 4.858 5.36a4.541 4.541 0 0 0 4.066-2.3v2.033h2.271v-13.2h-2.274V94.1c0 3.036-1.611 4.832-3.67 4.832-1.822 0-2.984-1.4-2.984-3.617v-7.763H58.25v8.106zm15.761-1.5a6.96 6.96 0 0 0 12.775 3.717l-1.8-1.241a4.674 4.674 0 0 1-8.682-2.034h10.825a6.442 6.442 0 0 0 .026-.686c-.026-4.225-2.825-6.627-6.284-6.627a6.69 6.69 0 0 0-6.864 6.866zm6.785-4.864a3.95 3.95 0 0 1 4.04 3.459h-8.37a4.316 4.316 0 0 1 4.33-3.459zm9.872 4.858a6.606 6.606 0 0 0 6.469 6.864 5.789 5.789 0 0 0 4.647-2.3v2.033h2.271v-19.8h-2.271v8.634a5.789 5.789 0 0 0-4.647-2.3 6.606 6.606 0 0 0-6.472 6.87zm11.3 0a4.51 4.51 0 1 1-4.489-4.779 4.508 4.508 0 0 1 4.487 4.78zm6.651 0a6.96 6.96 0 0 0 12.777 3.723l-1.8-1.241a4.674 4.674 0 0 1-8.687-2.033h10.825a6.3 6.3 0 0 0 .027-.686c-.027-4.225-2.825-6.627-6.284-6.627a6.689 6.689 0 0 0-6.86 6.865zm6.785-4.858a3.95 3.95 0 0 1 4.04 3.459h-8.37a4.316 4.316 0 0 1 4.328-3.459zm13.728 10.878a2.256 2.256 0 0 0 .369-1.188 1.954 1.954 0 1 0-3.907 0 1.966 1.966 0 0 0 1.082 1.769l-1.769 3.776h1.5zm15.285-1.452a5.789 5.789 0 0 0 4.647 2.3 6.877 6.877 0 0 0 0-13.729 5.789 5.789 0 0 0-4.647 2.3v-8.64h-2.271v19.8h2.271V98.72zm8.792-4.568a4.5 4.5 0 1 1-4.488-4.779 4.507 4.507 0 0 1 4.486 4.78zm9.767 4.832a1.954 1.954 0 1 0-1.954 1.98 1.989 1.989 0 0 0 1.952-1.98zm14.229 1.769h2.271V82.007h-4.04l-1.848 2.244h3.617v16.5zm8.025 0h2.905L195 92.648a7.2 7.2 0 0 0 2.112-4.779 6.352 6.352 0 0 0-12.7.079 6.057 6.057 0 0 0 5.862 6.02 3.365 3.365 0 0 0 .739-.053zm1.5-12.832a4.027 4.027 0 1 1 4.014 4.04 3.985 3.985 0 0 1-4.011-4.04zm14.547 12.832h2.9l6.865-8.106a7.2 7.2 0 0 0 2.112-4.779 6.352 6.352 0 0 0-12.7.079 6.057 6.057 0 0 0 5.862 6.02 3.365 3.365 0 0 0 .739-.053zm1.5-12.832a4.027 4.027 0 1 1 4.013 4.04 3.984 3.984 0 0 1-4.005-4.04zm26.428 7.208a5.239 5.239 0 0 0-2.931-4.911 4.39 4.39 0 0 0 1.9-3.7c0-2.8-2.165-4.832-5.255-4.832-3.01 0-5.28 2.033-5.28 4.832a4.37 4.37 0 0 0 1.954 3.7 5.238 5.238 0 0 0-2.984 4.911c0 3.406 2.64 5.888 6.31 5.888 3.732 0 6.294-2.482 6.294-5.888zm-9.309-8.554a2.791 2.791 0 0 1 3.036-2.746 2.739 2.739 0 0 1 3.01 2.746 2.8 2.8 0 0 1-3.01 2.772 2.857 2.857 0 0 1-3.036-2.772zm-.977 8.555a3.722 3.722 0 0 1 4.013-3.749 3.744 3.744 0 1 1 0 7.472 3.731 3.731 0 0 1-4.017-3.724zM55.935 153.552h1.992l4.657-17.043h-2.328l-3.577 13.3-4.921-13.586-4.9 13.586-3.577-13.3h-2.325l4.657 17.043h1.992l4.177-11.57zm10.341 0h2.065V147.6c0-2.809 1.536-4.393 3.481-4.393 1.68 0 2.833 1.248 2.833 3.265v7.081h2.04v-7.394c0-2.976-1.848-4.848-4.537-4.848a4.244 4.244 0 0 0-3.817 2.088v-7.849h-2.065v18zm14.4-6a6.006 6.006 0 0 0 5.881 6.241 5.264 5.264 0 0 0 4.225-2.088v1.848h2.064v-12h-2.064v1.847a5.264 5.264 0 0 0-4.225-2.088 6.006 6.006 0 0 0-5.881 6.239zm10.274 0a4.1 4.1 0 1 1-4.081-4.345 4.1 4.1 0 0 1 4.081 4.344zm13.487 5.833v-1.849a4.534 4.534 0 0 1-1.464.241c-1.3 0-1.993-.505-1.993-2.041v-6.289h3.457v-1.9h-3.457v-3.337h-2.064v3.337h-2.545v1.9h2.544V150a3.378 3.378 0 0 0 3.672 3.673 5.744 5.744 0 0 0 1.85-.289zm6.911-14.283a2.121 2.121 0 0 0 .336-1.08 1.789 1.789 0 1 0-3.577 0 1.859 1.859 0 0 0 .985 1.608l-1.609 3.433h1.393zm11.209 11.114c0-1.8-1.128-2.952-3.168-3.624l-1.3-.433c-1.416-.456-1.848-.912-1.848-1.68 0-.888.888-1.392 2.016-1.392a3.243 3.243 0 0 1 2.545 1.248l1.344-1.3a4.654 4.654 0 0 0-3.841-1.728c-2.376 0-4.056 1.32-4.056 3.264 0 1.681 1.032 2.857 2.976 3.481l1.176.384c1.561.5 2.137 1.08 2.137 1.92 0 1.032-.936 1.633-2.113 1.633a3.221 3.221 0 0 1-3.072-1.9l-1.681.912a4.768 4.768 0 0 0 4.7 2.785c2.433.006 4.185-1.218 4.185-3.571zm11.206 3.337h2.065V147.6c0-2.809 1.536-4.393 3.48-4.393 1.681 0 2.833 1.248 2.833 3.265v7.081h2.04v-7.394c0-2.976-1.848-4.848-4.537-4.848a4.243 4.243 0 0 0-3.816 2.088v-1.849h-2.065v12zm14.4-6a6.327 6.327 0 0 0 11.618 3.384l-1.632-1.128a4.25 4.25 0 0 1-7.9-1.848h9.842a5.856 5.856 0 0 0 .024-.624c-.024-3.841-2.568-6.025-5.713-6.025a6.081 6.081 0 0 0-6.239 6.239zm6.169-4.417a3.591 3.591 0 0 1 3.673 3.145H150.4a3.924 3.924 0 0 1 3.932-3.147zm20.068 10.416h1.824l4.081-12h-2.184l-2.905 8.761-3-8.761h-1.585l-3 8.761-2.9-8.761h-2.16l4.08 12h1.825l2.976-8.642zm15.021-6a6.007 6.007 0 0 0 5.882 6.241 5.262 5.262 0 0 0 4.224-2.088v1.848h2.065v-12h-2.065v1.847a5.262 5.262 0 0 0-4.224-2.088 6.006 6.006 0 0 0-5.885 6.239zm10.274 0a4.1 4.1 0 1 1-4.08-4.345 4.1 4.1 0 0 1 4.077 4.344zm9.047 4.153a5.263 5.263 0 0 0 4.225 2.088 6.252 6.252 0 0 0 0-12.482 5.263 5.263 0 0 0-4.225 2.088v-7.849h-2.065v18h2.065v-1.85zm7.993-4.153a4.089 4.089 0 1 1-4.08-4.345 4.1 4.1 0 0 1 4.077 4.344zm17.856 0a6.277 6.277 0 1 0-6.265 6.241 6.159 6.159 0 0 0 6.262-6.242zm-10.442 0a4.168 4.168 0 1 1 4.177 4.321 4.126 4.126 0 0 1-4.18-4.322zm14.424 1.368c0 2.977 1.776 4.873 4.417 4.873a4.129 4.129 0 0 0 3.7-2.088v1.848h2.065v-12h-2.065v5.947c0 2.76-1.464 4.393-3.336 4.393-1.657 0-2.713-1.273-2.713-3.289v-7.054h-2.071v7.369zm21.769 4.465v-1.849a4.534 4.534 0 0 1-1.464.241c-1.3 0-1.993-.505-1.993-2.041v-6.289h3.457v-1.9h-3.457v-3.337h-2.064v3.337h-2.545v1.9h2.545V150a3.378 3.378 0 0 0 3.673 3.673 5.743 5.743 0 0 0 1.845-.289zm16.992 0v-1.849a4.54 4.54 0 0 1-1.465.241c-1.3 0-1.992-.505-1.992-2.041v-6.289h3.457v-1.9h-3.457v-3.337h-2.065v3.337h-2.544v1.9h2.544V150a3.379 3.379 0 0 0 3.673 3.673 5.749 5.749 0 0 0 1.846-.289zm3.838.168h2.065V147.6c0-2.809 1.536-4.393 3.48-4.393 1.681 0 2.833 1.248 2.833 3.265v7.081h2.04v-7.394c0-2.976-1.848-4.848-4.537-4.848a4.243 4.243 0 0 0-3.816 2.088v-7.849h-2.065v18zM299 136.869a1.45 1.45 0 0 0-1.44-1.465 1.492 1.492 0 0 0-1.488 1.465 1.475 1.475 0 0 0 1.488 1.464 1.434 1.434 0 0 0 1.44-1.464zm-2.5 16.683h2.064v-12H296.5v12zm14.953-3.337c0-1.8-1.128-2.952-3.168-3.624l-1.3-.433c-1.416-.456-1.848-.912-1.848-1.68 0-.888.888-1.392 2.016-1.392a3.243 3.243 0 0 1 2.545 1.248l1.344-1.3a4.654 4.654 0 0 0-3.841-1.728c-2.376 0-4.056 1.32-4.056 3.264 0 1.681 1.032 2.857 2.976 3.481l1.177.384c1.56.5 2.136 1.08 2.136 1.92 0 1.032-.936 1.633-2.112 1.633a3.222 3.222 0 0 1-3.073-1.9l-1.68.912a4.766 4.766 0 0 0 4.7 2.785c2.437.007 4.189-1.217 4.189-3.57zm18.984 0c0-1.8-1.128-2.952-3.169-3.624l-1.3-.433c-1.416-.456-1.848-.912-1.848-1.68 0-.888.888-1.392 2.016-1.392a3.246 3.246 0 0 1 2.545 1.248l1.344-1.3a4.656 4.656 0 0 0-3.841-1.728c-2.377 0-4.057 1.32-4.057 3.264 0 1.681 1.032 2.857 2.977 3.481l1.176.384c1.56.5 2.136 1.08 2.136 1.92 0 1.032-.936 1.633-2.112 1.633a3.223 3.223 0 0 1-3.073-1.9l-1.68.912a4.767 4.767 0 0 0 4.7 2.785c2.439.007 4.191-1.217 4.191-3.57zm4.15 3.337h2.064v-6l6.506 6h2.784l-7.225-6.7 5.9-5.3h-2.726l-5.234 4.681v-10.684h-2.064v18zm16.632-16.683a1.45 1.45 0 0 0-1.44-1.465 1.492 1.492 0 0 0-1.488 1.465 1.475 1.475 0 0 0 1.488 1.464 1.434 1.434 0 0 0 1.445-1.464zm-2.5 16.683h2.064v-12h-2.064v12zm7.176 0h2.064V147.6c0-2.809 1.656-4.129 3.169-4.129a3.017 3.017 0 0 1 1.128.192v-2.136a4.276 4.276 0 0 0-.936-.1 3.57 3.57 0 0 0-3.361 2.448v-2.325H355.9v12zm16.489-.168v-1.849a4.534 4.534 0 0 1-1.464.241c-1.3 0-1.993-.505-1.993-2.041v-6.289h3.457v-1.9h-3.457v-3.337h-2.064v3.337h-2.545v1.9h2.545V150a3.378 3.378 0 0 0 3.672 3.673 5.744 5.744 0 0 0 1.858-.289zm6.455-5.5h2.064v-.184c0-.912 1.009-1.561 1.9-2.257a5.376 5.376 0 0 0 2.52-4.32 4.821 4.821 0 0 0-4.945-4.9 5.181 5.181 0 0 0-5.305 5.209h2.065a3.088 3.088 0 0 1 3.24-3.193 2.812 2.812 0 0 1 2.881 2.929c0 1.44-.912 2.136-2.233 3.12-.936.7-2.184 1.848-2.184 3.121v.48zm2.785 4.057a1.777 1.777 0 1 0-1.777 1.8 1.809 1.809 0 0 0 1.786-1.797zm12.406 1.608h2.3l2.185-4.969h7.946l2.184 4.969h2.329l-7.562-17.043h-1.849zm5.353-6.985l3.1-7.034 3.1 7.034h-6.193zm16.943 5.137a5.266 5.266 0 0 0 4.225 2.088 6.252 6.252 0 0 0 0-12.482 5.266 5.266 0 0 0-4.225 2.088v-7.849h-2.064v18h2.064V151.7zm7.994-4.153a4.089 4.089 0 1 1-4.081-4.345 4.1 4.1 0 0 1 4.09 4.348zm14.016 2.664c0-1.8-1.129-2.952-3.169-3.624l-1.3-.433c-1.417-.456-1.849-.912-1.849-1.68 0-.888.888-1.392 2.017-1.392a3.242 3.242 0 0 1 2.544 1.248l1.344-1.3a4.654 4.654 0 0 0-3.84-1.728c-2.377 0-4.057 1.32-4.057 3.264 0 1.681 1.032 2.857 2.976 3.481l1.177.384c1.56.5 2.136 1.08 2.136 1.92 0 1.032-.936 1.633-2.112 1.633a3.222 3.222 0 0 1-3.073-1.9l-1.68.912a4.766 4.766 0 0 0 4.7 2.785c2.442.01 4.195-1.214 4.195-3.567zm15.744-2.664a6.278 6.278 0 1 0-6.265 6.241 6.159 6.159 0 0 0 6.274-6.238zm-10.442 0a4.168 4.168 0 1 1 4.177 4.321 4.125 4.125 0 0 1-4.168-4.318zm14.591 6h2.071v-18h-2.065v18zm7.008-4.633c0 2.977 1.777 4.873 4.417 4.873a4.13 4.13 0 0 0 3.7-2.088v1.848h2.064v-12h-2.058v5.952c0 2.76-1.464 4.393-3.337 4.393-1.656 0-2.712-1.273-2.712-3.289v-7.054h-2.065v7.369zm21.769 4.465v-1.849a4.534 4.534 0 0 1-1.464.241c-1.3 0-1.992-.505-1.992-2.041v-6.289h3.456v-1.9h-3.456v-3.337h-2.065v3.337h-2.535v1.9h2.544V150a3.379 3.379 0 0 0 3.673 3.673 5.743 5.743 0 0 0 1.848-.289zm2.735-5.833a6.328 6.328 0 0 0 11.619 3.384l-1.633-1.128a4.249 4.249 0 0 1-7.9-1.848h9.842a5.856 5.856 0 0 0 .024-.624c-.024-3.841-2.569-6.025-5.714-6.025a6.082 6.082 0 0 0-6.229 6.245zm6.169-4.417a3.591 3.591 0 0 1 3.673 3.145h-7.609a3.923 3.923 0 0 1 3.945-3.141zm9.911 10.418h2.079v-18h-2.07v18zm10.369 5.017l7.873-17.019h-2.3l-4.105 9.1-4.129-9.1h-2.28l5.257 11.378-2.617 5.641h2.3zm17.663-5.017h2.064V147.6c0-2.809 1.537-4.393 3.481-4.393 1.68 0 2.833 1.248 2.833 3.265v7.081h2.04v-7.394c0-2.976-1.848-4.848-4.537-4.848a4.246 4.246 0 0 0-3.817 2.088v-1.849h-2.064v12zm26.93-6a6.278 6.278 0 1 0-6.265 6.241 6.159 6.159 0 0 0 6.274-6.238zm-10.442 0a4.168 4.168 0 1 1 4.177 4.321 4.125 4.125 0 0 1-4.168-4.318zm20.881 5.833v-1.849a4.534 4.534 0 0 1-1.464.241c-1.3 0-1.993-.505-1.993-2.041v-6.289h3.457v-1.9h-3.457v-3.337h-2.055v3.337h-2.545v1.9h2.545V150a3.378 3.378 0 0 0 3.673 3.673 5.743 5.743 0 0 0 1.848-.289zm3.839.168h2.064V147.6c0-2.809 1.536-4.393 3.481-4.393 1.68 0 2.832 1.248 2.832 3.265v7.081h2.041v-7.394c0-2.976-1.849-4.848-4.537-4.848a4.245 4.245 0 0 0-3.817 2.088v-7.849h-2.055v18zm17.839-16.68a1.45 1.45 0 0 0-1.44-1.465 1.492 1.492 0 0 0-1.489 1.465 1.475 1.475 0 0 0 1.489 1.464 1.434 1.434 0 0 0 1.44-1.464zm-2.5 16.683h2.065v-12H590.4v12zm7.176 0h2.065V147.6c0-2.809 1.536-4.393 3.48-4.393 1.681 0 2.833 1.248 2.833 3.265v7.081H608v-7.394c0-2.976-1.848-4.848-4.537-4.848a4.243 4.243 0 0 0-3.816 2.088v-1.849h-2.065v12zm26.522-.7V141.55h-2.064v1.85a5.108 5.108 0 0 0-4.177-2.088 6.114 6.114 0 0 0 0 12.218 5.124 5.124 0 0 0 4.177-2.113v1.369a3.838 3.838 0 0 1-4.009 4.153 5.136 5.136 0 0 1-4.2-2.017l-1.44 1.44a7.122 7.122 0 0 0 5.665 2.449c3.413-.002 6.05-1.947 6.05-5.955zm-10.01-5.449a4.059 4.059 0 1 1 4.057 4.2 4 4 0 0 1-4.052-4.196zm17.952 4.537a1.776 1.776 0 1 0-1.776 1.8 1.808 1.808 0 0 0 1.781-1.796zM42.66 182.351h2.233v-17.043H42.66v17.043zm14.113-.168v-1.848a4.564 4.564 0 0 1-1.464.24c-1.3 0-1.992-.5-1.992-2.041v-6.289h3.457v-1.9h-3.457v-3.337h-2.065v3.337h-2.544v1.9h2.544v6.555a3.379 3.379 0 0 0 3.673 3.673 5.745 5.745 0 0 0 1.849-.29zm20.641.168h1.824l4.081-12h-2.184l-2.9 8.762-3-8.762h-1.59l-3 8.762-2.9-8.762H65.58l4.081 12h1.824l2.977-8.641zm8.349-6a6.006 6.006 0 0 0 5.881 6.241 5.264 5.264 0 0 0 4.226-2.092v1.848h2.064v-12H95.87v1.852a5.264 5.264 0 0 0-4.225-2.088 6.006 6.006 0 0 0-5.881 6.238zm10.274 0a4.1 4.1 0 1 1-4.081-4.345 4.1 4.1 0 0 1 4.082 4.344zm14.759 2.665c0-1.8-1.128-2.953-3.169-3.625l-1.3-.432c-1.416-.456-1.848-.912-1.848-1.681 0-.888.888-1.392 2.016-1.392a3.244 3.244 0 0 1 2.545 1.248l1.344-1.3a4.654 4.654 0 0 0-3.841-1.728c-2.376 0-4.057 1.32-4.057 3.264 0 1.681 1.033 2.857 2.977 3.481l1.176.384c1.561.5 2.137 1.08 2.137 1.921 0 1.032-.936 1.632-2.113 1.632a3.22 3.22 0 0 1-3.072-1.9l-1.681.913a4.768 4.768 0 0 0 4.7 2.784c2.435.006 4.19-1.218 4.19-3.57zm10.27-2.665a6.005 6.005 0 0 0 5.881 6.241 5.264 5.264 0 0 0 4.225-2.088v1.848h2.064v-12h-2.064v1.848a5.264 5.264 0 0 0-4.225-2.088 6.005 6.005 0 0 0-5.88 6.238zm10.274 0a4.1 4.1 0 1 1-4.081-4.345 4.1 4.1 0 0 1 4.082 4.344zm6.982 6h2.064v-18h-2.064v18zm7.176 0h2.064V176.4c0-2.809 1.656-4.129 3.169-4.129a3.017 3.017 0 0 1 1.128.192v-2.136a4.276 4.276 0 0 0-.936-.1 3.57 3.57 0 0 0-3.361 2.448v-2.328H145.5v12zm8.616-6a6.328 6.328 0 0 0 11.618 3.385l-1.632-1.129a4.25 4.25 0 0 1-7.9-1.848h9.842a5.856 5.856 0 0 0 .024-.624c-.024-3.841-2.568-6.025-5.713-6.025a6.081 6.081 0 0 0-6.238 6.24zm6.169-4.417a3.591 3.591 0 0 1 3.673 3.145h-7.61a3.923 3.923 0 0 1 3.938-3.146zm8.974 4.417a6.006 6.006 0 0 0 5.882 6.241 5.266 5.266 0 0 0 4.225-2.088v1.848h2.064v-12h-2.064v1.848a5.266 5.266 0 0 0-4.225-2.088 6.006 6.006 0 0 0-5.881 6.238zm10.275 0a4.1 4.1 0 1 1-4.081-4.345 4.1 4.1 0 0 1 4.082 4.344zm6.045 0a6.006 6.006 0 0 0 5.881 6.241 5.263 5.263 0 0 0 4.225-2.088v1.848h2.065v-18h-2.065v7.848a5.263 5.263 0 0 0-4.225-2.088 6.006 6.006 0 0 0-5.88 6.238zm10.274 0a4.1 4.1 0 1 1-4.081-4.345 4.1 4.1 0 0 1 4.082 4.344zm10.175 11.018l7.873-17.019h-2.3l-4.1 9.1-4.129-9.1h-2.28l5.257 11.378-2.617 5.641h2.3zm17.663 0h2.064V180.5a5.266 5.266 0 0 0 4.225 2.088 6.252 6.252 0 0 0 0-12.482 5.266 5.266 0 0 0-4.225 2.088v-1.848h-2.063v17.019zm10.058-11.018a4.089 4.089 0 1 1-4.081-4.345 4.1 4.1 0 0 1 4.082 4.344zm5.35 0a6.328 6.328 0 0 0 11.618 3.385l-1.632-1.129a4.25 4.25 0 0 1-7.9-1.848h9.842a5.856 5.856 0 0 0 .024-.624c-.024-3.841-2.568-6.025-5.713-6.025a6.081 6.081 0 0 0-6.236 6.24zm6.169-4.417a3.591 3.591 0 0 1 3.673 3.145h-7.61a3.924 3.924 0 0 1 3.938-3.146zm9.911 10.418h2.064V176.4c0-2.809 1.657-4.129 3.169-4.129a3.017 3.017 0 0 1 1.128.192v-2.136a4.276 4.276 0 0 0-.936-.1 3.571 3.571 0 0 0-3.361 2.448v-2.328h-2.064v12zm10.992 0h2.064v-10.107h3.481v-1.9h-3.481v-2.205c0-1.512.673-2.04 1.993-2.04a4.833 4.833 0 0 1 1.488.24v-1.824a5.454 5.454 0 0 0-1.872-.312 3.427 3.427 0 0 0-3.673 3.72v2.425h-2.545v1.9h2.545v10.106zm7.752-6a6.328 6.328 0 0 0 11.618 3.385l-1.632-1.129a4.25 4.25 0 0 1-7.9-1.848h9.842a5.856 5.856 0 0 0 .024-.624c-.024-3.841-2.568-6.025-5.713-6.025a6.081 6.081 0 0 0-6.238 6.239zm6.169-4.417a3.591 3.591 0 0 1 3.673 3.145h-7.61a3.924 3.924 0 0 1 3.938-3.147zm20.809 7.442l-1.8-1.009a4.069 4.069 0 0 1-3.745 2.3 4.323 4.323 0 0 1 0-8.642 4.069 4.069 0 0 1 3.745 2.305l1.8-1.009a6.216 6.216 0 0 0-5.545-3.216 6.241 6.241 0 1 0 0 12.482 6.216 6.216 0 0 0 5.546-3.213zm10.367 2.808v-1.848a4.564 4.564 0 0 1-1.465.24c-1.3 0-1.992-.5-1.992-2.041v-6.289h3.457v-1.9h-3.456v-3.337h-2.064v3.337H303.2v1.9h2.545v6.553a3.378 3.378 0 0 0 3.672 3.673 5.744 5.744 0 0 0 1.85-.29zm13.583-16.515a1.45 1.45 0 0 0-1.441-1.464 1.491 1.491 0 0 0-1.488 1.464 1.475 1.475 0 0 0 1.488 1.464 1.435 1.435 0 0 0 1.442-1.466zm-.433 4.681h-2.064V183.7c0 1.537-.72 2.041-1.848 2.041a5.292 5.292 0 0 1-.7-.048v1.848a6.123 6.123 0 0 0 .985.072 3.365 3.365 0 0 0 3.624-3.673v-13.591zm4.944 7.369c0 2.977 1.776 4.873 4.417 4.873a4.129 4.129 0 0 0 3.7-2.088v1.848h2.065v-12h-2.065v5.947c0 2.761-1.464 4.393-3.336 4.393-1.657 0-2.713-1.272-2.713-3.289v-7.057h-2.064v7.369zm23.041 1.3c0-1.8-1.128-2.953-3.168-3.625l-1.3-.432c-1.416-.456-1.848-.912-1.848-1.681 0-.888.888-1.392 2.016-1.392a3.243 3.243 0 0 1 2.545 1.248l1.344-1.3a4.654 4.654 0 0 0-3.841-1.728c-2.376 0-4.057 1.32-4.057 3.264 0 1.681 1.033 2.857 2.977 3.481l1.176.384c1.561.5 2.137 1.08 2.137 1.921 0 1.032-.936 1.632-2.113 1.632a3.22 3.22 0 0 1-3.072-1.9l-1.681.913a4.769 4.769 0 0 0 4.705 2.784c2.429.002 4.179-1.222 4.179-3.574zm10.512 3.168v-1.848a4.562 4.562 0 0 1-1.464.24c-1.3 0-1.993-.5-1.993-2.041v-6.289h3.457v-1.9h-3.457v-3.337h-2.064v3.337h-2.545v1.9h2.545v6.55a3.378 3.378 0 0 0 3.672 3.673 5.744 5.744 0 0 0 1.85-.29zm16.992 0v-1.848a4.573 4.573 0 0 1-1.465.24c-1.3 0-1.992-.5-1.992-2.041v-6.289h3.457v-1.9h-3.457v-3.337h-2.065v3.337h-2.543v1.9h2.544v6.55a3.379 3.379 0 0 0 3.673 3.673 5.754 5.754 0 0 0 1.849-.29zm3.838.168h2.064V176.4c0-2.809 1.537-4.393 3.481-4.393 1.681 0 2.833 1.248 2.833 3.265v7.081h2.04v-7.393c0-2.977-1.848-4.849-4.537-4.849a4.246 4.246 0 0 0-3.817 2.088v-7.849h-2.064v18zm14.4-6a6.328 6.328 0 0 0 11.618 3.385l-1.632-1.129a4.25 4.25 0 0 1-7.9-1.848h9.842a5.856 5.856 0 0 0 .024-.624c-.024-3.841-2.568-6.025-5.713-6.025a6.081 6.081 0 0 0-6.238 6.235zm6.169-4.417a3.591 3.591 0 0 1 3.673 3.145h-7.61a3.924 3.924 0 0 1 3.938-3.151zm26.713 10.418h1.824l4.081-12h-2.184l-2.905 8.762-3-8.762h-1.584l-3 8.762-2.9-8.762h-2.161l4.081 12h1.823l2.977-8.641zm8.349-6a6.006 6.006 0 0 0 5.881 6.241 5.263 5.263 0 0 0 4.225-2.088v1.848h2.065v-12h-2.065v1.842a5.263 5.263 0 0 0-4.225-2.088 6.006 6.006 0 0 0-5.88 6.238zm10.274 0a4.1 4.1 0 1 1-4.081-4.345 4.1 4.1 0 0 1 4.082 4.338zm10.175 11.018l7.873-17.019h-2.3l-4.1 9.1-4.129-9.1h-2.28l5.257 11.378-2.617 5.641h2.305zm27.409-5.017h1.825l4.081-12h-2.185l-2.9 8.762-3-8.762h-1.584l-3 8.762-2.9-8.762H475.4l4.081 12h1.819l2.977-8.641zm8.35-6a6.328 6.328 0 0 0 11.618 3.385l-1.632-1.129a4.25 4.25 0 0 1-7.9-1.848h9.842a5.856 5.856 0 0 0 .024-.624c-.024-3.841-2.568-6.025-5.713-6.025a6.081 6.081 0 0 0-6.238 6.233zm6.169-4.417a3.591 3.591 0 0 1 3.673 3.145h-7.61a3.924 3.924 0 0 1 3.938-3.153zm16.966 10.418h2.065V176.4c0-2.712 1.368-4.393 3.313-4.393 1.56 0 2.352 1.344 2.352 3.289v7.057h2.065V176.4c0-2.712 1.344-4.393 3.288-4.393 1.561 0 2.377 1.344 2.377 3.289v7.057h2.064v-7.369c0-2.929-1.584-4.873-4.2-4.873a4.155 4.155 0 0 0-3.937 2.568 3.772 3.772 0 0 0-3.7-2.568 4.034 4.034 0 0 0-3.625 2.088v-1.848h-2.065v12zm21.5-6a6.006 6.006 0 0 0 5.881 6.241 5.263 5.263 0 0 0 4.225-2.088v1.848h2.065v-12h-2.065v1.84a5.263 5.263 0 0 0-4.225-2.088 6.006 6.006 0 0 0-5.876 6.238zm10.274 0a4.1 4.1 0 1 1-4.081-4.345 4.1 4.1 0 0 1 4.09 4.336zm6.046 0a6.005 6.005 0 0 0 5.881 6.241 5.264 5.264 0 0 0 4.225-2.088v1.848h2.064v-18h-2.064v7.84a5.264 5.264 0 0 0-4.225-2.088 6.005 6.005 0 0 0-5.876 6.238zm10.274 0a4.1 4.1 0 1 1-4.081-4.345 4.1 4.1 0 0 1 4.086 4.336zm6.046 0a6.328 6.328 0 0 0 11.618 3.385l-1.632-1.129a4.25 4.25 0 0 1-7.9-1.848h9.842a5.856 5.856 0 0 0 .024-.624c-.024-3.841-2.568-6.025-5.713-6.025a6.081 6.081 0 0 0-6.234 6.232zm6.169-4.417a3.591 3.591 0 0 1 3.673 3.145h-7.61a3.924 3.924 0 0 1 3.942-3.154zm19.463-6.265a1.449 1.449 0 0 0-1.44-1.464 1.491 1.491 0 0 0-1.489 1.464 1.475 1.475 0 0 0 1.489 1.464 1.434 1.434 0 0 0 1.445-1.473zM596 182.351h2.065v-12H596v12zm13.682-.168v-1.848a4.573 4.573 0 0 1-1.465.24c-1.3 0-1.992-.5-1.992-2.041v-6.289h3.457v-1.9h-3.457v-3.337h-2.065v3.337h-2.544v1.9h2.544v6.555a3.379 3.379 0 0 0 3.673 3.673 5.754 5.754 0 0 0 1.846-.29zM44.845 194.467A1.45 1.45 0 0 0 43.4 193a1.465 1.465 0 1 0 0 2.929 1.435 1.435 0 0 0 1.445-1.462zm-2.5 16.683h2.065v-12h-2.062v12zm7.176 0h2.064v-5.95c0-2.808 1.536-4.393 3.481-4.393 1.68 0 2.833 1.249 2.833 3.265v7.081h2.041v-7.393c0-2.977-1.848-4.849-4.537-4.849A4.245 4.245 0 0 0 51.589 201v-1.848h-2.065v12zm23.88 0h2.064v-17.043H71.8l-1.68 2.041h3.28v15zm7.3 0h2.639l6.241-7.369a6.545 6.545 0 0 0 1.92-4.345 5.775 5.775 0 0 0-11.546.072 5.506 5.506 0 0 0 5.329 5.473 3.061 3.061 0 0 0 .672-.048zm1.368-11.666a3.661 3.661 0 1 1 3.649 3.673 3.622 3.622 0 0 1-3.65-3.673zm13.222 11.666h2.641l6.241-7.369a6.542 6.542 0 0 0 1.921-4.345 5.775 5.775 0 0 0-11.547.072 5.506 5.506 0 0 0 5.329 5.473 3.071 3.071 0 0 0 .673-.048zm1.368-11.666a3.661 3.661 0 1 1 3.648 3.673 3.622 3.622 0 0 1-3.647-3.673zm24.026 6.553a4.762 4.762 0 0 0-2.665-4.464 3.993 3.993 0 0 0 1.728-3.361c0-2.545-1.968-4.393-4.777-4.393a4.485 4.485 0 0 0-4.8 4.393 3.977 3.977 0 0 0 1.777 3.361 4.761 4.761 0 0 0-2.713 4.464c0 3.1 2.4 5.353 5.737 5.353 3.385 0 5.714-2.256 5.714-5.353zm-8.474-7.777a2.537 2.537 0 0 1 2.76-2.5 2.491 2.491 0 0 1 2.737 2.5 2.547 2.547 0 0 1-2.737 2.52 2.6 2.6 0 0 1-2.759-2.52zm-.888 7.777a3.383 3.383 0 0 1 3.648-3.408 3.4 3.4 0 1 1 0 6.793 3.392 3.392 0 0 1-3.647-3.385zm13.247-.576h12.123V203.4h-12.122v2.064zm15.888-.312a6.328 6.328 0 0 0 11.619 3.385l-1.633-1.128a4.25 4.25 0 0 1-7.9-1.849h9.843a5.856 5.856 0 0 0 .024-.624c-.024-3.841-2.569-6.025-5.714-6.025a6.083 6.083 0 0 0-6.238 6.241zm6.169-4.417a3.591 3.591 0 0 1 3.673 3.145h-7.609a3.924 3.924 0 0 1 3.937-3.145zm7.679 10.418h2.568l3.649-4.536 3.649 4.536h2.545l-4.9-6.073 4.513-5.929h-2.521l-3.289 4.321-3.312-4.321h-2.5l4.513 5.929zm26.163-2.976l-1.8-1.008a4.068 4.068 0 0 1-3.744 2.3 4.323 4.323 0 0 1 0-8.642 4.069 4.069 0 0 1 3.744 2.305l1.8-1.008a6.216 6.216 0 0 0-5.545-3.217 6.241 6.241 0 1 0 0 12.482 6.217 6.217 0 0 0 5.546-3.212zm2.925-3.025a6.328 6.328 0 0 0 11.618 3.385l-1.632-1.128a4.25 4.25 0 0 1-7.9-1.849h9.842a5.856 5.856 0 0 0 .024-.624c-.024-3.841-2.568-6.025-5.713-6.025a6.082 6.082 0 0 0-6.233 6.241zm6.169-4.417a3.591 3.591 0 0 1 3.673 3.145h-7.61a3.925 3.925 0 0 1 3.938-3.145zm9.911 15.435h2.064V209.3a5.266 5.266 0 0 0 4.225 2.088 6.252 6.252 0 0 0 0-12.482 5.266 5.266 0 0 0-4.224 2.094v-1.848h-2.064v17.019zm10.058-11.018a4.089 4.089 0 1 1-4.081-4.345 4.1 4.1 0 0 1 4.082 4.345zm12.576 5.833v-1.848a4.573 4.573 0 0 1-1.465.24c-1.3 0-1.992-.5-1.992-2.04v-6.29h3.457v-1.9h-3.457v-3.336h-2.065v3.336h-2.544v1.9h2.544v6.556a3.379 3.379 0 0 0 3.673 3.672 5.754 5.754 0 0 0 1.85-.29zm16.991 0v-1.848a4.562 4.562 0 0 1-1.464.24c-1.3 0-1.993-.5-1.993-2.04v-6.29h3.458v-1.9h-3.457v-3.336h-2.064v3.336h-2.545v1.9h2.545v6.556a3.378 3.378 0 0 0 3.673 3.672 5.743 5.743 0 0 0 1.848-.29zm3.839.168H245v-5.95c0-2.808 1.536-4.393 3.481-4.393 1.68 0 2.833 1.249 2.833 3.265v7.081h2.04v-7.393c0-2.977-1.848-4.849-4.537-4.849A4.245 4.245 0 0 0 245 201v-7.849h-2.064v18zm17.832-16.683a1.449 1.449 0 0 0-1.44-1.464 1.465 1.465 0 1 0 0 2.929 1.435 1.435 0 0 0 1.441-1.465zm-2.5 16.683h2.065v-12h-2.065v12zm14.954-3.336c0-1.8-1.128-2.953-3.169-3.625l-1.3-.432c-1.416-.456-1.848-.912-1.848-1.68 0-.888.888-1.393 2.016-1.393a3.246 3.246 0 0 1 2.545 1.249l1.344-1.3a4.656 4.656 0 0 0-3.841-1.728c-2.376 0-4.057 1.32-4.057 3.265 0 1.68 1.032 2.856 2.977 3.48l1.176.384c1.56.5 2.137 1.081 2.137 1.921 0 1.032-.937 1.632-2.113 1.632a3.223 3.223 0 0 1-3.073-1.9l-1.68.912a4.768 4.768 0 0 0 4.7 2.784c2.438.007 4.19-1.217 4.19-3.569zm17.3 3.168v-1.848a4.562 4.562 0 0 1-1.464.24c-1.3 0-1.993-.5-1.993-2.04v-6.29h3.457v-1.9h-3.457v-3.336h-2.057v3.336h-2.544v1.9h2.544v6.556a3.378 3.378 0 0 0 3.673 3.672 5.743 5.743 0 0 0 1.848-.29zm6.335-16.515a1.449 1.449 0 0 0-1.44-1.464 1.465 1.465 0 1 0 0 2.929 1.435 1.435 0 0 0 1.447-1.465zm-2.5 16.683h2.064v-12h-2.053v12zm7.176 0h2.064v-5.95c0-2.712 1.368-4.393 3.313-4.393 1.56 0 2.352 1.345 2.352 3.289v7.057h2.065V205.2c0-2.712 1.344-4.393 3.288-4.393 1.561 0 2.377 1.345 2.377 3.289v7.057h2.064v-7.369c0-2.929-1.584-4.873-4.2-4.873a4.152 4.152 0 0 0-3.936 2.569 3.774 3.774 0 0 0-3.7-2.569A4.034 4.034 0 0 0 303.61 201v-1.848h-2.064v12zm21.5-6a6.328 6.328 0 0 0 11.619 3.385l-1.633-1.128a4.249 4.249 0 0 1-7.9-1.849h9.842a5.856 5.856 0 0 0 .024-.624c-.024-3.841-2.569-6.025-5.713-6.025a6.083 6.083 0 0 0-6.225 6.24zm6.17-4.417a3.591 3.591 0 0 1 3.672 3.145h-7.609a3.924 3.924 0 0 1 3.951-3.146zm12.479 9.89a2.052 2.052 0 0 0 .336-1.08 1.777 1.777 0 1 0-3.553 0 1.786 1.786 0 0 0 .984 1.608l-1.608 3.433h1.368zm14.327-16.155a1.449 1.449 0 0 0-1.44-1.464 1.465 1.465 0 1 0 0 2.929 1.435 1.435 0 0 0 1.454-1.466zm-2.5 16.683h2.064v-12h-2.064v12zm13.681-.168v-1.848a4.562 4.562 0 0 1-1.464.24c-1.3 0-1.993-.5-1.993-2.04v-6.29h3.457v-1.9h-3.457v-3.336h-2.064v3.336h-2.545v1.9h2.545v6.555a3.378 3.378 0 0 0 3.673 3.672 5.743 5.743 0 0 0 1.866-.29zm10.908.167h2.065v-5.95c0-2.808 1.536-4.393 3.481-4.393 1.68 0 2.832 1.249 2.832 3.265v7.081h2.041v-7.393c0-2.977-1.849-4.849-4.537-4.849a4.244 4.244 0 0 0-3.813 2.089v-7.849H378.1v18zm14.4-6a6.005 6.005 0 0 0 5.881 6.241 5.263 5.263 0 0 0 4.225-2.088v1.848h2.065v-12h-2.061V201a5.263 5.263 0 0 0-4.225-2.088 6.006 6.006 0 0 0-5.885 6.237zm10.274 0a4.1 4.1 0 1 1-4.074-4.35 4.1 4.1 0 0 1 4.078 4.349zm14.76 2.665c0-1.8-1.129-2.953-3.169-3.625l-1.3-.432c-1.417-.456-1.849-.912-1.849-1.68 0-.888.888-1.393 2.017-1.393a3.243 3.243 0 0 1 2.544 1.249l1.344-1.3a4.654 4.654 0 0 0-3.84-1.728c-2.377 0-4.057 1.32-4.057 3.265 0 1.68 1.032 2.856 2.976 3.48l1.177.384c1.56.5 2.136 1.081 2.136 1.921 0 1.032-.936 1.632-2.112 1.632a3.221 3.221 0 0 1-3.073-1.9l-1.68.912a4.767 4.767 0 0 0 4.7 2.784c2.437.006 4.19-1.218 4.19-3.57zm18.983 0c0-1.8-1.128-2.953-3.169-3.625l-1.3-.432c-1.416-.456-1.848-.912-1.848-1.68 0-.888.888-1.393 2.016-1.393a3.245 3.245 0 0 1 2.545 1.249l1.344-1.3a4.656 4.656 0 0 0-3.841-1.728c-2.376 0-4.057 1.32-4.057 3.265 0 1.68 1.032 2.856 2.977 3.48l1.176.384c1.561.5 2.137 1.081 2.137 1.921 0 1.032-.937 1.632-2.113 1.632a3.221 3.221 0 0 1-3.072-1.9l-1.681.912a4.768 4.768 0 0 0 4.7 2.784c2.438.006 4.19-1.218 4.19-3.57zm10.512 3.168v-1.848a4.568 4.568 0 0 1-1.465.24c-1.3 0-1.992-.5-1.992-2.04v-6.29h3.457v-1.9h-3.457v-3.336h-2.065v3.336h-2.544v1.9h2.544v6.555a3.379 3.379 0 0 0 3.673 3.672 5.749 5.749 0 0 0 1.853-.29zm3.838.168h2.065V205.2c0-2.808 1.656-4.129 3.168-4.129a3.006 3.006 0 0 1 1.129.193v-2.137a4.291 4.291 0 0 0-.937-.1 3.57 3.57 0 0 0-3.36 2.449v-2.329h-2.065v12zm8.616-6a6.328 6.328 0 0 0 11.619 3.385l-1.633-1.128a4.249 4.249 0 0 1-7.9-1.849h9.842a5.856 5.856 0 0 0 .024-.624c-.024-3.841-2.569-6.025-5.714-6.025a6.083 6.083 0 0 0-6.234 6.239zm6.169-4.417a3.591 3.591 0 0 1 3.673 3.145h-7.605a3.924 3.924 0 0 1 3.936-3.147zm16.249 10.25v-1.848a4.562 4.562 0 0 1-1.464.24c-1.3 0-1.993-.5-1.993-2.04v-6.29h3.457v-1.9h-3.457v-3.336h-2.064v3.336h-2.545v1.9h2.545v6.554a3.378 3.378 0 0 0 3.672 3.672 5.744 5.744 0 0 0 1.853-.29zm14.569-2.808l-1.8-1.008a4.07 4.07 0 0 1-3.745 2.3 4.323 4.323 0 0 1 0-8.642 4.071 4.071 0 0 1 3.745 2.305l1.8-1.008a6.215 6.215 0 0 0-5.545-3.217 6.241 6.241 0 1 0 0 12.482 6.216 6.216 0 0 0 5.549-3.214zm3.861 2.976h2.069V205.2c0-2.808 1.536-4.393 3.481-4.393 1.68 0 2.832 1.249 2.832 3.265v7.081h2.041v-7.393c0-2.977-1.849-4.849-4.537-4.849A4.244 4.244 0 0 0 502.4 201v-7.849h-2.065v18zm18.193-1.608a1.777 1.777 0 1 0-1.777 1.8 1.808 1.808 0 0 0 1.781-1.802z"/><path id="Rectangle_4_copy_6" data-name="Rectangle 4 copy 6" d="M39 279.031h122.406v3.688H39z"/><path id="Shop_now_copy_2" data-name="Shop now copy 2" class="cls-2" d="M44.217 272.116c2.706 0 4.564-1.653 4.582-4.023.018-1.965-1.19-3.214-3.048-3.894l-.9-.33c-1.353-.5-1.984-.809-1.984-1.506 0-.68.776-.992 1.551-.992a2.831 2.831 0 0 1 2.219 1.083l1.876-2.02a5.3 5.3 0 0 0-4.131-1.8c-2.561 0-4.419 1.488-4.419 4.022 0 1.782 1.154 3.049 3.229 3.766l.9.312c1.281.441 1.786.9 1.786 1.561 0 .625-.6 1.084-1.551 1.084a3.335 3.335 0 0 1-2.652-1.488l-2.2 1.892a5.583 5.583 0 0 0 4.742 2.333zm9.726-.221h2.867v-5.161h5.159v5.166h2.868v-13.046h-2.868v5.106H56.81v-5.106h-2.868V271.9zm22.66.221a6.742 6.742 0 1 0-6.62-6.741 6.7 6.7 0 0 0 6.617 6.741zm0-2.829a3.917 3.917 0 1 1 3.716-3.912 3.837 3.837 0 0 1-3.719 3.912zm20.622-5.969a4.4 4.4 0 0 0-4.51-4.464h-4.348V271.9h2.868v-4.132h1.479a4.385 4.385 0 0 0 4.51-4.45zm-2.778 0a1.7 1.7 0 0 1-1.768 1.708h-1.444v-3.417h1.443a1.689 1.689 0 0 1 1.768 1.709zm25.979 8.577v-13.041h-2.886v8.046l-6.223-8.045h-2.472V271.9h2.869v-8.063l6.241 8.063h2.471zm11.765.221a6.742 6.742 0 1 0-6.62-6.741 6.7 6.7 0 0 0 6.619 6.741zm0-2.829a3.917 3.917 0 1 1 3.716-3.912 3.837 3.837 0 0 1-3.717 3.912zm21.686 2.608h2.723l2.976-13.041h-3.067l-1.749 8.266-3.608-8.486-3.589 8.486-1.75-8.266h-3.067l2.959 13.041h2.723l2.724-6.392z"/></svg>