<svg id="Copy_copy_9" data-name="Copy copy 9" xmlns="http://www.w3.org/2000/svg" width="768" height="373" viewBox="0 0 768 373">
  <metadata><?xpacket begin="﻿" id="W5M0MpCehiHzreSzNTczkc9d"?>
<x:xmpmeta xmlns:x="adobe:ns:meta/" x:xmptk="Adobe XMP Core 5.6-c138 79.159824, 2016/09/14-01:09:01        ">
   <rdf:RDF xmlns:rdf="http://www.w3.org/1999/02/22-rdf-syntax-ns#">
      <rdf:Description rdf:about=""/>
   </rdf:RDF>
</x:xmpmeta>
                                                                                                    
                                                                                                    
                                                                                                    
                                                                                                    
                                                                                                    
                                                                                                    
                                                                                                    
                                                                                                    
                                                                                                    
                                                                                                    
                                                                                                    
                                                                                                    
                                                                                                    
                                                                                                    
                                                                                                    
                                                                                                    
                                                                                                    
                                                                                                    
                                                                                                    
                                                                                                    
                           
<?xpacket end="w"?></metadata>
<defs>
    <style>
      .cls-1 {
        fill: #fff;
      }

      .cls-2 {
        fill-rule: evenodd;
      }
    </style>
  </defs>
  <rect id="Rectangle_109_copy_8" data-name="Rectangle 109 copy 8" class="cls-1" width="768" height="373"/>
  <path id="STRETCH-SUEDE_MINI_SKIRT_Suede_b._1998_What_s_new_about_this_" data-name="STRETCH-SUEDE MINI SKIRT Suede, b. 1998  What’s new about this " class="cls-2" d="M51.424,67.615c5.76,0,9.715-3.456,9.753-8.409,0.038-4.108-2.534-6.719-6.489-8.14l-1.92-.691c-2.88-1.037-4.224-1.69-4.224-3.148,0-1.421,1.651-2.073,3.3-2.073a6.064,6.064,0,0,1,4.723,2.265l3.993-4.224a11.376,11.376,0,0,0-8.793-3.763c-5.452,0-9.407,3.11-9.407,8.409,0,3.724,2.457,6.374,6.873,7.871l1.92,0.653c2.726,0.921,3.8,1.881,3.8,3.264,0,1.305-1.267,2.265-3.3,2.265a7.132,7.132,0,0,1-5.644-3.11l-4.684,3.955A11.954,11.954,0,0,0,51.424,67.615Zm20.429-.461H78V45.729h7.027V39.893H64.9v5.836h6.95V67.154Zm18.816,0h6.105V55.9h1l9.062,11.25h7.334L104.53,55.136c3.456-1.229,5.337-3.494,5.337-7.026a8.049,8.049,0,0,0-8.447-8.217H90.669V67.154Zm6.105-16.434V45.5h3.916c1.805,0,3.111.96,3.111,2.611,0,1.574-1.306,2.611-3.111,2.611H96.774Zm21.235,16.434h17.279V61.318H124.114V56.442h8.87V50.605h-8.87V45.729h11.174V39.893H118.009V67.154Zm28.761,0h6.144V45.729h7.026V39.893H139.82v5.836h6.95V67.154Zm30.336,0.461a14.094,14.094,0,0,0,12.748-7.449l-5.376-2.918a8.179,8.179,0,1,1,0-7.449l5.376-2.918A14.213,14.213,0,1,0,177.106,67.615Zm18.241-.461h6.1V56.365h10.981V67.154h6.105V39.893h-6.105V50.567H201.452V39.893h-6.1V67.154Zm30.22-10.866h11.289V50.759H225.567v5.529Zm26.457,11.327c5.759,0,9.714-3.456,9.753-8.409,0.038-4.108-2.534-6.719-6.489-8.14l-1.92-.691c-2.88-1.037-4.224-1.69-4.224-3.148,0-1.421,1.651-2.073,3.3-2.073a6.064,6.064,0,0,1,4.723,2.265l3.993-4.224a11.374,11.374,0,0,0-8.793-3.763c-5.452,0-9.407,3.11-9.407,8.409,0,3.724,2.458,6.374,6.873,7.871l1.92,0.653c2.726,0.921,3.8,1.881,3.8,3.264,0,1.305-1.267,2.265-3.3,2.265a7.132,7.132,0,0,1-5.644-3.11l-4.685,3.955A11.955,11.955,0,0,0,252.024,67.615Zm26.8,0c6.528,0,11.212-4.454,11.212-11.25V39.893h-6.105V56.442c0,3.264-2.073,5.26-5.107,5.26s-5.106-2-5.106-5.26V39.893h-6.106V56.365C267.614,63.161,272.261,67.615,278.826,67.615Zm18.586-.461h17.279V61.318H303.517V56.442h8.87V50.605h-8.87V45.729h11.174V39.893H297.412V67.154Zm23.847,0h9.292a13.633,13.633,0,1,0,0-27.261h-9.292V67.154Zm6.1-5.606V45.5h3.187a7.694,7.694,0,0,1,7.718,8.025,7.694,7.694,0,0,1-7.718,8.025h-3.187Zm23.271,5.606h17.278V61.318H356.74V56.442h8.869V50.605H356.74V45.729h11.173V39.893H350.635V67.154Zm48.305-5.8,7.948-11.02V67.154h6.144V39.893h-5.568L398.94,51.642l-8.524-11.749h-5.568V67.154h6.106V50.337Zm21.774,5.8h6.105V39.893h-6.105V67.154Zm38.436,0V39.893h-6.144V56.71L439.759,39.893H434.5V67.154h6.1V50.3l13.285,16.856h5.261Zm7.681,0h6.1V39.893h-6.1V67.154Zm32.293,0.461c5.76,0,9.715-3.456,9.753-8.409,0.038-4.108-2.534-6.719-6.489-8.14l-1.92-.691c-2.88-1.037-4.224-1.69-4.224-3.148,0-1.421,1.651-2.073,3.3-2.073a6.064,6.064,0,0,1,4.723,2.265l3.994-4.224a11.377,11.377,0,0,0-8.793-3.763c-5.453,0-9.408,3.11-9.408,8.409,0,3.724,2.458,6.374,6.873,7.871l1.92,0.653c2.727,0.921,3.8,1.881,3.8,3.264,0,1.305-1.267,2.265-3.3,2.265a7.133,7.133,0,0,1-5.645-3.11l-4.684,3.955A11.953,11.953,0,0,0,499.124,67.615Zm15.9-.461h6.067V54.944l11.1,12.21h7.833L527.079,52.986,537.83,39.893h-7.488l-9.253,11.4v-11.4h-6.067V67.154Zm28.8,0h6.105V39.893h-6.105V67.154Zm13.785,0h6.105V55.9h1l9.061,11.25h7.334l-9.638-12.018c3.456-1.229,5.338-3.494,5.338-7.026a8.049,8.049,0,0,0-8.448-8.217H557.607V67.154Zm6.105-16.434V45.5h3.917c1.8,0,3.11.96,3.11,2.611,0,1.574-1.306,2.611-3.11,2.611h-3.917Zm25.306,16.434h6.143V45.729h7.027V39.893h-20.12v5.836h6.95V67.154ZM41.354,97.691c0.977,1.927,3.485,3.379,6.575,3.379,3.485,0,5.967-2.006,5.967-5.2,0-2.772-1.584-4.356-4.357-5.413l-2.271-.871c-1.9-.713-2.825-1.426-2.825-3.01,0-1.558,1.531-2.587,3.38-2.587a4.639,4.639,0,0,1,3.723,1.848l1.8-1.584a6.838,6.838,0,0,0-5.466-2.561c-3.353,0-5.862,1.927-5.862,4.99,0,2.561,1.32,4.093,4.251,5.175l2.482,0.95c1.743,0.66,2.693,1.663,2.693,3.168,0,1.743-1.531,2.8-3.459,2.8a5.238,5.238,0,0,1-4.647-2.561Zm16.9-2.033c0,3.274,1.954,5.36,4.858,5.36a4.541,4.541,0,0,0,4.066-2.3v2.033h2.271v-13.2H67.175V94.1c0,3.036-1.611,4.832-3.67,4.832-1.822,0-2.984-1.4-2.984-3.617V87.552H58.25v8.106Zm15.761-1.5A6.96,6.96,0,0,0,86.79,97.875l-1.8-1.241A4.674,4.674,0,0,1,76.308,94.6H87.133a6.442,6.442,0,0,0,.026-0.686c-0.026-4.225-2.825-6.627-6.284-6.627A6.69,6.69,0,0,0,74.011,94.153ZM80.8,89.294a3.95,3.95,0,0,1,4.04,3.459h-8.37A4.316,4.316,0,0,1,80.8,89.294Zm9.872,4.858a6.606,6.606,0,0,0,6.469,6.864,5.789,5.789,0,0,0,4.647-2.3v2.033h2.271v-19.8h-2.271v8.634a5.789,5.789,0,0,0-4.647-2.3A6.606,6.606,0,0,0,90.669,94.153Zm11.3,0a4.51,4.51,0,1,1-4.489-4.779A4.508,4.508,0,0,1,101.97,94.153Zm6.651,0A6.96,6.96,0,0,0,121.4,97.875l-1.8-1.241a4.674,4.674,0,0,1-8.687-2.033h10.825a6.3,6.3,0,0,0,.027-0.686c-0.027-4.225-2.825-6.627-6.284-6.627A6.689,6.689,0,0,0,108.621,94.153Zm6.785-4.858a3.95,3.95,0,0,1,4.04,3.459h-8.37A4.316,4.316,0,0,1,115.406,89.294Zm13.728,10.878a2.256,2.256,0,0,0,.369-1.188,1.954,1.954,0,1,0-3.907,0,1.966,1.966,0,0,0,1.082,1.769l-1.769,3.776h1.5Zm15.285-1.452a5.789,5.789,0,0,0,4.647,2.3,6.877,6.877,0,0,0,0-13.729,5.789,5.789,0,0,0-4.647,2.3V80.951h-2.271v19.8h2.271V98.72Zm8.792-4.568a4.5,4.5,0,1,1-4.488-4.779A4.507,4.507,0,0,1,153.211,94.153Zm9.767,4.832a1.954,1.954,0,1,0-1.954,1.98A1.989,1.989,0,0,0,162.978,98.984Zm14.229,1.769h2.271V82.007h-4.04l-1.848,2.244h3.617v16.5Zm8.025,0h2.905L195,92.648a7.2,7.2,0,0,0,2.112-4.779,6.352,6.352,0,0,0-12.7.079,6.057,6.057,0,0,0,5.862,6.02,3.365,3.365,0,0,0,.739-0.053Zm1.5-12.832a4.027,4.027,0,1,1,4.014,4.04A3.985,3.985,0,0,1,186.737,87.921Zm14.547,12.832h2.9l6.865-8.106a7.2,7.2,0,0,0,2.112-4.779,6.352,6.352,0,0,0-12.7.079,6.057,6.057,0,0,0,5.862,6.02,3.365,3.365,0,0,0,.739-0.053Zm1.5-12.832a4.027,4.027,0,1,1,4.013,4.04A3.984,3.984,0,0,1,202.789,87.921Zm26.428,7.208a5.239,5.239,0,0,0-2.931-4.911,4.39,4.39,0,0,0,1.9-3.7c0-2.8-2.165-4.832-5.255-4.832-3.01,0-5.28,2.033-5.28,4.832a4.37,4.37,0,0,0,1.954,3.7,5.238,5.238,0,0,0-2.984,4.911c0,3.406,2.64,5.888,6.31,5.888C226.655,101.017,229.217,98.535,229.217,95.129ZM219.9,86.575a2.791,2.791,0,0,1,3.036-2.746,2.739,2.739,0,0,1,3.01,2.746,2.8,2.8,0,0,1-3.01,2.772A2.857,2.857,0,0,1,219.9,86.575Zm-0.977,8.555a3.722,3.722,0,0,1,4.013-3.749,3.744,3.744,0,1,1,0,7.472A3.731,3.731,0,0,1,218.919,95.129ZM55.935,153.552h1.992l4.657-17.043H60.256l-3.577,13.3-4.921-13.586-4.9,13.586-3.577-13.3H40.956l4.657,17.043h1.992l4.177-11.57Zm10.341,0h2.065V147.6c0-2.809,1.536-4.393,3.481-4.393,1.68,0,2.833,1.248,2.833,3.265v7.081h2.04v-7.394c0-2.976-1.848-4.848-4.537-4.848a4.244,4.244,0,0,0-3.817,2.088v-7.849H66.276v18Zm14.4-6a6.006,6.006,0,0,0,5.881,6.241,5.264,5.264,0,0,0,4.225-2.088v1.848h2.064v-12H90.782V143.4a5.264,5.264,0,0,0-4.225-2.088A6.006,6.006,0,0,0,80.676,147.551Zm10.274,0a4.1,4.1,0,1,1-4.081-4.345A4.1,4.1,0,0,1,90.95,147.551Zm13.487,5.833v-1.849a4.534,4.534,0,0,1-1.464.241c-1.3,0-1.993-.505-1.993-2.041v-6.289h3.457v-1.9H100.98v-3.337H98.916v3.337H96.371v1.9h2.544V150a3.378,3.378,0,0,0,3.672,3.673A5.744,5.744,0,0,0,104.437,153.384Zm6.911-14.283a2.121,2.121,0,0,0,.336-1.08,1.789,1.789,0,1,0-3.577,0,1.859,1.859,0,0,0,.985,1.608l-1.609,3.433h1.393Zm11.209,11.114c0-1.8-1.128-2.952-3.168-3.624l-1.3-.433c-1.416-.456-1.848-0.912-1.848-1.68,0-.888.888-1.392,2.016-1.392a3.243,3.243,0,0,1,2.545,1.248l1.344-1.3a4.654,4.654,0,0,0-3.841-1.728c-2.376,0-4.056,1.32-4.056,3.264,0,1.681,1.032,2.857,2.976,3.481l1.176,0.384c1.561,0.5,2.137,1.08,2.137,1.92,0,1.032-.936,1.633-2.113,1.633a3.221,3.221,0,0,1-3.072-1.9l-1.681.912a4.768,4.768,0,0,0,4.7,2.785C120.805,153.792,122.557,152.568,122.557,150.215Zm11.206,3.337h2.065V147.6c0-2.809,1.536-4.393,3.48-4.393,1.681,0,2.833,1.248,2.833,3.265v7.081h2.04v-7.394c0-2.976-1.848-4.848-4.537-4.848a4.243,4.243,0,0,0-3.816,2.088V141.55h-2.065v12Zm14.4-6a6.327,6.327,0,0,0,11.618,3.384l-1.632-1.128a4.25,4.25,0,0,1-7.9-1.848h9.842a5.856,5.856,0,0,0,.024-0.624c-0.024-3.841-2.568-6.025-5.713-6.025A6.081,6.081,0,0,0,148.163,147.551Zm6.169-4.417a3.591,3.591,0,0,1,3.673,3.145H150.4A3.924,3.924,0,0,1,154.332,143.134ZM174.4,153.552h1.824l4.081-12h-2.184l-2.905,8.761-3-8.761h-1.585l-3,8.761-2.9-8.761h-2.16l4.08,12h1.825l2.976-8.642Zm15.021-6a6.007,6.007,0,0,0,5.882,6.241,5.262,5.262,0,0,0,4.224-2.088v1.848h2.065v-12h-2.065V143.4a5.262,5.262,0,0,0-4.224-2.088A6.006,6.006,0,0,0,189.418,147.551Zm10.274,0a4.1,4.1,0,1,1-4.08-4.345A4.1,4.1,0,0,1,199.692,147.551Zm9.047,4.153a5.263,5.263,0,0,0,4.225,2.088,6.252,6.252,0,0,0,0-12.482,5.263,5.263,0,0,0-4.225,2.088v-7.849h-2.065v18h2.065V151.7Zm7.993-4.153a4.089,4.089,0,1,1-4.08-4.345A4.1,4.1,0,0,1,216.732,147.551Zm17.856,0a6.277,6.277,0,1,0-6.265,6.241A6.159,6.159,0,0,0,234.588,147.551Zm-10.442,0a4.168,4.168,0,1,1,4.177,4.321A4.126,4.126,0,0,1,224.146,147.551Zm14.424,1.368c0,2.977,1.776,4.873,4.417,4.873a4.129,4.129,0,0,0,3.7-2.088v1.848h2.065v-12h-2.065V147.5c0,2.76-1.464,4.393-3.336,4.393-1.657,0-2.713-1.273-2.713-3.289V141.55H238.57v7.369Zm21.769,4.465v-1.849a4.534,4.534,0,0,1-1.464.241c-1.3,0-1.993-.505-1.993-2.041v-6.289h3.457v-1.9h-3.457v-3.337h-2.064v3.337h-2.545v1.9h2.545V150a3.378,3.378,0,0,0,3.673,3.673A5.743,5.743,0,0,0,260.339,153.384Zm16.992,0v-1.849a4.54,4.54,0,0,1-1.465.241c-1.3,0-1.992-.505-1.992-2.041v-6.289h3.457v-1.9h-3.457v-3.337h-2.065v3.337h-2.544v1.9h2.544V150a3.379,3.379,0,0,0,3.673,3.673A5.749,5.749,0,0,0,277.331,153.384Zm3.838,0.168h2.065V147.6c0-2.809,1.536-4.393,3.48-4.393,1.681,0,2.833,1.248,2.833,3.265v7.081h2.04v-7.394c0-2.976-1.848-4.848-4.537-4.848a4.243,4.243,0,0,0-3.816,2.088v-7.849h-2.065v18ZM299,136.869a1.45,1.45,0,0,0-1.44-1.465,1.492,1.492,0,0,0-1.488,1.465,1.475,1.475,0,0,0,1.488,1.464A1.434,1.434,0,0,0,299,136.869Zm-2.5,16.683h2.064v-12h-2.064v12Zm14.953-3.337c0-1.8-1.128-2.952-3.168-3.624l-1.3-.433c-1.416-.456-1.848-0.912-1.848-1.68,0-.888.888-1.392,2.016-1.392a3.243,3.243,0,0,1,2.545,1.248l1.344-1.3a4.654,4.654,0,0,0-3.841-1.728c-2.376,0-4.056,1.32-4.056,3.264,0,1.681,1.032,2.857,2.976,3.481l1.177,0.384c1.56,0.5,2.136,1.08,2.136,1.92,0,1.032-.936,1.633-2.112,1.633a3.222,3.222,0,0,1-3.073-1.9l-1.68.912a4.766,4.766,0,0,0,4.7,2.785C309.706,153.792,311.458,152.568,311.458,150.215Zm18.984,0c0-1.8-1.128-2.952-3.169-3.624l-1.3-.433c-1.416-.456-1.848-0.912-1.848-1.68,0-.888.888-1.392,2.016-1.392a3.246,3.246,0,0,1,2.545,1.248l1.344-1.3a4.656,4.656,0,0,0-3.841-1.728c-2.377,0-4.057,1.32-4.057,3.264,0,1.681,1.032,2.857,2.977,3.481l1.176,0.384c1.56,0.5,2.136,1.08,2.136,1.92,0,1.032-.936,1.633-2.112,1.633a3.223,3.223,0,0,1-3.073-1.9l-1.68.912a4.767,4.767,0,0,0,4.7,2.785C328.69,153.792,330.442,152.568,330.442,150.215Zm4.15,3.337h2.064v-6l6.506,6h2.784l-7.225-6.7,5.9-5.3H341.89l-5.234,4.681V135.549h-2.064v18Zm16.632-16.683a1.45,1.45,0,0,0-1.44-1.465,1.492,1.492,0,0,0-1.488,1.465,1.475,1.475,0,0,0,1.488,1.464A1.434,1.434,0,0,0,351.224,136.869Zm-2.5,16.683h2.064v-12h-2.064v12Zm7.176,0h2.064V147.6c0-2.809,1.656-4.129,3.169-4.129a3.017,3.017,0,0,1,1.128.192v-2.136a4.276,4.276,0,0,0-.936-0.1,3.57,3.57,0,0,0-3.361,2.448V141.55H355.9v12Zm16.489-.168v-1.849a4.534,4.534,0,0,1-1.464.241c-1.3,0-1.993-.505-1.993-2.041v-6.289h3.457v-1.9h-3.457v-3.337h-2.064v3.337h-2.545v1.9h2.545V150a3.378,3.378,0,0,0,3.672,3.673A5.744,5.744,0,0,0,372.393,153.384Zm6.455-5.5h2.064V147.7c0-.912,1.009-1.561,1.9-2.257a5.376,5.376,0,0,0,2.52-4.32,4.821,4.821,0,0,0-4.945-4.9,5.181,5.181,0,0,0-5.305,5.209h2.065a3.088,3.088,0,0,1,3.24-3.193,2.812,2.812,0,0,1,2.881,2.929c0,1.44-.912,2.136-2.233,3.12-0.936.7-2.184,1.848-2.184,3.121v0.48Zm2.785,4.057a1.777,1.777,0,1,0-1.777,1.8A1.809,1.809,0,0,0,381.633,151.944Zm12.406,1.608h2.3l2.185-4.969h7.946l2.184,4.969h2.329l-7.562-17.043h-1.849Zm5.353-6.985,3.1-7.034,3.1,7.034h-6.193Zm16.943,5.137a5.266,5.266,0,0,0,4.225,2.088,6.252,6.252,0,0,0,0-12.482,5.266,5.266,0,0,0-4.225,2.088v-7.849h-2.064v18h2.064V151.7Zm7.994-4.153a4.089,4.089,0,1,1-4.081-4.345A4.1,4.1,0,0,1,424.329,147.551Zm14.016,2.664c0-1.8-1.129-2.952-3.169-3.624l-1.3-.433c-1.417-.456-1.849-0.912-1.849-1.68,0-.888.888-1.392,2.017-1.392a3.242,3.242,0,0,1,2.544,1.248l1.344-1.3a4.654,4.654,0,0,0-3.84-1.728c-2.377,0-4.057,1.32-4.057,3.264,0,1.681,1.032,2.857,2.976,3.481l1.177,0.384c1.56,0.5,2.136,1.08,2.136,1.92,0,1.032-.936,1.633-2.112,1.633a3.222,3.222,0,0,1-3.073-1.9l-1.68.912a4.766,4.766,0,0,0,4.7,2.785C436.592,153.792,438.345,152.568,438.345,150.215Zm15.744-2.664a6.278,6.278,0,1,0-6.265,6.241A6.159,6.159,0,0,0,454.089,147.551Zm-10.442,0a4.168,4.168,0,1,1,4.177,4.321A4.125,4.125,0,0,1,443.647,147.551Zm14.591,6H460.3v-18h-2.065v18Zm7.008-4.633c0,2.977,1.777,4.873,4.417,4.873a4.13,4.13,0,0,0,3.7-2.088v1.848h2.064v-12H473.36V147.5c0,2.76-1.464,4.393-3.337,4.393-1.656,0-2.712-1.273-2.712-3.289V141.55h-2.065v7.369Zm21.769,4.465v-1.849a4.534,4.534,0,0,1-1.464.241c-1.3,0-1.992-.505-1.992-2.041v-6.289h3.456v-1.9h-3.456v-3.337h-2.065v3.337H478.95v1.9h2.544V150a3.379,3.379,0,0,0,3.673,3.673A5.743,5.743,0,0,0,487.015,153.384Zm2.735-5.833a6.328,6.328,0,0,0,11.619,3.384l-1.633-1.128a4.249,4.249,0,0,1-7.9-1.848h9.842a5.856,5.856,0,0,0,.024-0.624c-0.024-3.841-2.569-6.025-5.714-6.025A6.082,6.082,0,0,0,489.75,147.551Zm6.169-4.417a3.591,3.591,0,0,1,3.673,3.145h-7.609A3.923,3.923,0,0,1,495.919,143.134Zm9.911,10.418H507.9v-18H505.83v18Zm10.369,5.017,7.873-17.019h-2.3l-4.105,9.1-4.129-9.1h-2.28l5.257,11.378-2.617,5.641h2.3Zm17.663-5.017h2.064V147.6c0-2.809,1.537-4.393,3.481-4.393,1.68,0,2.833,1.248,2.833,3.265v7.081h2.04v-7.394c0-2.976-1.848-4.848-4.537-4.848a4.246,4.246,0,0,0-3.817,2.088V141.55h-2.064v12Zm26.93-6a6.278,6.278,0,1,0-6.265,6.241A6.159,6.159,0,0,0,560.792,147.551Zm-10.442,0a4.168,4.168,0,1,1,4.177,4.321A4.125,4.125,0,0,1,550.35,147.551Zm20.881,5.833v-1.849a4.534,4.534,0,0,1-1.464.241c-1.3,0-1.993-.505-1.993-2.041v-6.289h3.457v-1.9h-3.457v-3.337H565.71v3.337h-2.545v1.9h2.545V150a3.378,3.378,0,0,0,3.673,3.673A5.743,5.743,0,0,0,571.231,153.384Zm3.839,0.168h2.064V147.6c0-2.809,1.536-4.393,3.481-4.393,1.68,0,2.832,1.248,2.832,3.265v7.081h2.041v-7.394c0-2.976-1.849-4.848-4.537-4.848a4.245,4.245,0,0,0-3.817,2.088v-7.849H575.07v18ZM592.9,136.869a1.45,1.45,0,0,0-1.44-1.465,1.492,1.492,0,0,0-1.489,1.465,1.475,1.475,0,0,0,1.489,1.464A1.434,1.434,0,0,0,592.9,136.869Zm-2.5,16.683h2.065v-12h-2.065v12Zm7.176,0h2.065V147.6c0-2.809,1.536-4.393,3.48-4.393,1.681,0,2.833,1.248,2.833,3.265v7.081H608v-7.394c0-2.976-1.848-4.848-4.537-4.848a4.243,4.243,0,0,0-3.816,2.088V141.55h-2.065v12Zm26.522-.7V141.55h-2.064V143.4a5.108,5.108,0,0,0-4.177-2.088,6.114,6.114,0,0,0,0,12.218,5.124,5.124,0,0,0,4.177-2.113v1.369a3.838,3.838,0,0,1-4.009,4.153,5.136,5.136,0,0,1-4.2-2.017l-1.44,1.44a7.122,7.122,0,0,0,5.665,2.449C621.463,158.809,624.1,156.864,624.1,152.856Zm-10.01-5.449a4.059,4.059,0,1,1,4.057,4.2A4,4,0,0,1,614.093,147.407Zm17.952,4.537a1.776,1.776,0,1,0-1.776,1.8A1.808,1.808,0,0,0,632.045,151.944ZM42.66,182.351h2.233V165.308H42.66v17.043Zm14.113-.168v-1.848a4.564,4.564,0,0,1-1.464.24c-1.3,0-1.992-.5-1.992-2.041v-6.289h3.457v-1.9H53.317v-3.337H51.252v3.337H48.708v1.9h2.544V178.8a3.379,3.379,0,0,0,3.673,3.673A5.745,5.745,0,0,0,56.774,182.183Zm20.641,0.168h1.824l4.081-12H81.135l-2.9,8.762-3-8.762H73.645l-3,8.762-2.9-8.762H65.58l4.081,12h1.824l2.977-8.641Zm8.349-6a6.006,6.006,0,0,0,5.881,6.241A5.264,5.264,0,0,0,95.87,180.5v1.848h2.064v-12H95.87V172.2a5.264,5.264,0,0,0-4.225-2.088A6.006,6.006,0,0,0,85.764,176.35Zm10.274,0a4.1,4.1,0,1,1-4.081-4.345A4.1,4.1,0,0,1,96.038,176.35Zm14.759,2.665c0-1.8-1.128-2.953-3.169-3.625l-1.3-.432c-1.416-.456-1.848-0.912-1.848-1.681,0-.888.888-1.392,2.016-1.392a3.244,3.244,0,0,1,2.545,1.248l1.344-1.3a4.654,4.654,0,0,0-3.841-1.728c-2.376,0-4.057,1.32-4.057,3.264,0,1.681,1.033,2.857,2.977,3.481l1.176,0.384c1.561,0.5,2.137,1.08,2.137,1.921,0,1.032-.936,1.632-2.113,1.632a3.22,3.22,0,0,1-3.072-1.9l-1.681.913a4.768,4.768,0,0,0,4.7,2.784C109.045,182.591,110.8,181.367,110.8,179.015Zm10.27-2.665a6.005,6.005,0,0,0,5.881,6.241,5.264,5.264,0,0,0,4.225-2.088v1.848h2.064v-12h-2.064V172.2a5.264,5.264,0,0,0-4.225-2.088A6.005,6.005,0,0,0,121.067,176.35Zm10.274,0a4.1,4.1,0,1,1-4.081-4.345A4.1,4.1,0,0,1,131.341,176.35Zm6.982,6h2.064v-18h-2.064v18Zm7.176,0h2.064V176.4c0-2.809,1.656-4.129,3.169-4.129a3.017,3.017,0,0,1,1.128.192v-2.136a4.276,4.276,0,0,0-.936-0.1,3.57,3.57,0,0,0-3.361,2.448v-2.328H145.5v12Zm8.616-6a6.328,6.328,0,0,0,11.618,3.385l-1.632-1.129a4.25,4.25,0,0,1-7.9-1.848h9.842a5.856,5.856,0,0,0,.024-0.624c-0.024-3.841-2.568-6.025-5.713-6.025A6.081,6.081,0,0,0,154.115,176.35Zm6.169-4.417a3.591,3.591,0,0,1,3.673,3.145h-7.61A3.923,3.923,0,0,1,160.284,171.933Zm8.974,4.417a6.006,6.006,0,0,0,5.882,6.241,5.266,5.266,0,0,0,4.225-2.088v1.848h2.064v-12h-2.064V172.2a5.266,5.266,0,0,0-4.225-2.088A6.006,6.006,0,0,0,169.258,176.35Zm10.275,0a4.1,4.1,0,1,1-4.081-4.345A4.1,4.1,0,0,1,179.533,176.35Zm6.045,0a6.006,6.006,0,0,0,5.881,6.241,5.263,5.263,0,0,0,4.225-2.088v1.848h2.065v-18h-2.065V172.2a5.263,5.263,0,0,0-4.225-2.088A6.006,6.006,0,0,0,185.578,176.35Zm10.274,0a4.1,4.1,0,1,1-4.081-4.345A4.1,4.1,0,0,1,195.852,176.35Zm10.175,11.018,7.873-17.019h-2.3l-4.1,9.1-4.129-9.1h-2.28l5.257,11.378-2.617,5.641h2.3Zm17.663,0h2.064V180.5a5.266,5.266,0,0,0,4.225,2.088,6.252,6.252,0,0,0,0-12.482,5.266,5.266,0,0,0-4.225,2.088v-1.848H223.69v17.019Zm10.058-11.018a4.089,4.089,0,1,1-4.081-4.345A4.1,4.1,0,0,1,233.748,176.35Zm5.35,0a6.328,6.328,0,0,0,11.618,3.385l-1.632-1.129a4.25,4.25,0,0,1-7.9-1.848h9.842a5.856,5.856,0,0,0,.024-0.624c-0.024-3.841-2.568-6.025-5.713-6.025A6.081,6.081,0,0,0,239.1,176.35Zm6.169-4.417a3.591,3.591,0,0,1,3.673,3.145h-7.61A3.924,3.924,0,0,1,245.267,171.933Zm9.911,10.418h2.064V176.4c0-2.809,1.657-4.129,3.169-4.129a3.017,3.017,0,0,1,1.128.192v-2.136a4.276,4.276,0,0,0-.936-0.1,3.571,3.571,0,0,0-3.361,2.448v-2.328h-2.064v12Zm10.992,0h2.064V172.245h3.481v-1.9h-3.481V168.14c0-1.512.673-2.04,1.993-2.04a4.833,4.833,0,0,1,1.488.24v-1.824a5.454,5.454,0,0,0-1.872-.312,3.427,3.427,0,0,0-3.673,3.72v2.425h-2.545v1.9h2.545v10.106Zm7.752-6a6.328,6.328,0,0,0,11.618,3.385l-1.632-1.129a4.25,4.25,0,0,1-7.9-1.848h9.842a5.856,5.856,0,0,0,.024-0.624c-0.024-3.841-2.568-6.025-5.713-6.025A6.081,6.081,0,0,0,273.922,176.35Zm6.169-4.417a3.591,3.591,0,0,1,3.673,3.145h-7.61A3.924,3.924,0,0,1,280.091,171.933Zm20.809,7.442-1.8-1.009a4.069,4.069,0,0,1-3.745,2.3,4.323,4.323,0,0,1,0-8.642,4.069,4.069,0,0,1,3.745,2.305l1.8-1.009a6.216,6.216,0,0,0-5.545-3.216,6.241,6.241,0,1,0,0,12.482A6.216,6.216,0,0,0,300.9,179.375Zm10.367,2.808v-1.848a4.564,4.564,0,0,1-1.465.24c-1.3,0-1.992-.5-1.992-2.041v-6.289h3.457v-1.9H307.81v-3.337h-2.064v3.337H303.2v1.9h2.545V178.8a3.378,3.378,0,0,0,3.672,3.673A5.744,5.744,0,0,0,311.267,182.183Zm13.583-16.515a1.45,1.45,0,0,0-1.441-1.464,1.491,1.491,0,0,0-1.488,1.464,1.475,1.475,0,0,0,1.488,1.464A1.435,1.435,0,0,0,324.85,165.668Zm-0.433,4.681h-2.064V183.7c0,1.537-.72,2.041-1.848,2.041a5.292,5.292,0,0,1-.7-0.048v1.848a6.123,6.123,0,0,0,.985.072,3.365,3.365,0,0,0,3.624-3.673V170.349Zm4.944,7.369c0,2.977,1.776,4.873,4.417,4.873a4.129,4.129,0,0,0,3.7-2.088v1.848h2.065v-12h-2.065V176.3c0,2.761-1.464,4.393-3.336,4.393-1.657,0-2.713-1.272-2.713-3.289v-7.057h-2.064v7.369Zm23.041,1.3c0-1.8-1.128-2.953-3.168-3.625l-1.3-.432c-1.416-.456-1.848-0.912-1.848-1.681,0-.888.888-1.392,2.016-1.392a3.243,3.243,0,0,1,2.545,1.248l1.344-1.3a4.654,4.654,0,0,0-3.841-1.728c-2.376,0-4.057,1.32-4.057,3.264,0,1.681,1.033,2.857,2.977,3.481l1.176,0.384c1.561,0.5,2.137,1.08,2.137,1.921,0,1.032-.936,1.632-2.113,1.632a3.22,3.22,0,0,1-3.072-1.9l-1.681.913a4.769,4.769,0,0,0,4.705,2.784C350.65,182.591,352.4,181.367,352.4,179.015Zm10.512,3.168v-1.848a4.562,4.562,0,0,1-1.464.24c-1.3,0-1.993-.5-1.993-2.041v-6.289h3.457v-1.9h-3.457v-3.337h-2.064v3.337h-2.545v1.9h2.545V178.8a3.378,3.378,0,0,0,3.672,3.673A5.744,5.744,0,0,0,362.914,182.183Zm16.992,0v-1.848a4.573,4.573,0,0,1-1.465.24c-1.3,0-1.992-.5-1.992-2.041v-6.289h3.457v-1.9h-3.457v-3.337h-2.065v3.337H371.84v1.9h2.544V178.8a3.379,3.379,0,0,0,3.673,3.673A5.754,5.754,0,0,0,379.906,182.183Zm3.838,0.168h2.064V176.4c0-2.809,1.537-4.393,3.481-4.393,1.681,0,2.833,1.248,2.833,3.265v7.081h2.04v-7.393c0-2.977-1.848-4.849-4.537-4.849a4.246,4.246,0,0,0-3.817,2.088v-7.849h-2.064v18Zm14.4-6a6.328,6.328,0,0,0,11.618,3.385l-1.632-1.129a4.25,4.25,0,0,1-7.9-1.848h9.842a5.856,5.856,0,0,0,.024-0.624c-0.024-3.841-2.568-6.025-5.713-6.025A6.081,6.081,0,0,0,398.144,176.35Zm6.169-4.417a3.591,3.591,0,0,1,3.673,3.145h-7.61A3.924,3.924,0,0,1,404.313,171.933Zm26.713,10.418h1.824l4.081-12h-2.184l-2.905,8.762-3-8.762h-1.584l-3,8.762-2.9-8.762h-2.161l4.081,12H425.1l2.977-8.641Zm8.349-6a6.006,6.006,0,0,0,5.881,6.241,5.263,5.263,0,0,0,4.225-2.088v1.848h2.065v-12h-2.065V172.2a5.263,5.263,0,0,0-4.225-2.088A6.006,6.006,0,0,0,439.375,176.35Zm10.274,0a4.1,4.1,0,1,1-4.081-4.345A4.1,4.1,0,0,1,449.649,176.35Zm10.175,11.018,7.873-17.019h-2.3l-4.1,9.1-4.129-9.1h-2.28l5.257,11.378-2.617,5.641h2.305Zm27.409-5.017h1.825l4.081-12h-2.185l-2.9,8.762-3-8.762h-1.584l-3,8.762-2.9-8.762H475.4l4.081,12H481.3l2.977-8.641Zm8.35-6a6.328,6.328,0,0,0,11.618,3.385l-1.632-1.129a4.25,4.25,0,0,1-7.9-1.848h9.842a5.856,5.856,0,0,0,.024-0.624c-0.024-3.841-2.568-6.025-5.713-6.025A6.081,6.081,0,0,0,495.583,176.35Zm6.169-4.417a3.591,3.591,0,0,1,3.673,3.145h-7.61A3.924,3.924,0,0,1,501.752,171.933Zm16.966,10.418h2.065V176.4c0-2.712,1.368-4.393,3.313-4.393,1.56,0,2.352,1.344,2.352,3.289v7.057h2.065V176.4c0-2.712,1.344-4.393,3.288-4.393,1.561,0,2.377,1.344,2.377,3.289v7.057h2.064v-7.369c0-2.929-1.584-4.873-4.2-4.873a4.155,4.155,0,0,0-3.937,2.568,3.772,3.772,0,0,0-3.7-2.568,4.034,4.034,0,0,0-3.625,2.088v-1.848h-2.065v12Zm21.5-6a6.006,6.006,0,0,0,5.881,6.241,5.263,5.263,0,0,0,4.225-2.088v1.848h2.065v-12h-2.065V172.2a5.263,5.263,0,0,0-4.225-2.088A6.006,6.006,0,0,0,540.222,176.35Zm10.274,0a4.1,4.1,0,1,1-4.081-4.345A4.1,4.1,0,0,1,550.5,176.35Zm6.046,0a6.005,6.005,0,0,0,5.881,6.241,5.264,5.264,0,0,0,4.225-2.088v1.848h2.064v-18h-2.064V172.2a5.264,5.264,0,0,0-4.225-2.088A6.005,6.005,0,0,0,556.542,176.35Zm10.274,0a4.1,4.1,0,1,1-4.081-4.345A4.1,4.1,0,0,1,566.816,176.35Zm6.046,0a6.328,6.328,0,0,0,11.618,3.385l-1.632-1.129a4.25,4.25,0,0,1-7.9-1.848h9.842a5.856,5.856,0,0,0,.024-0.624c-0.024-3.841-2.568-6.025-5.713-6.025A6.081,6.081,0,0,0,572.862,176.35Zm6.169-4.417a3.591,3.591,0,0,1,3.673,3.145h-7.61A3.924,3.924,0,0,1,579.031,171.933Zm19.463-6.265a1.449,1.449,0,0,0-1.44-1.464,1.491,1.491,0,0,0-1.489,1.464,1.475,1.475,0,0,0,1.489,1.464A1.434,1.434,0,0,0,598.494,165.668ZM596,182.351h2.065v-12H596v12Zm13.682-.168v-1.848a4.573,4.573,0,0,1-1.465.24c-1.3,0-1.992-.5-1.992-2.041v-6.289h3.457v-1.9h-3.457v-3.337h-2.065v3.337h-2.544v1.9h2.544V178.8a3.379,3.379,0,0,0,3.673,3.673A5.754,5.754,0,0,0,609.679,182.183ZM44.845,194.467A1.45,1.45,0,0,0,43.4,193a1.465,1.465,0,1,0,0,2.929A1.435,1.435,0,0,0,44.845,194.467Zm-2.5,16.683h2.065v-12H42.348v12Zm7.176,0h2.064V205.2c0-2.808,1.536-4.393,3.481-4.393,1.68,0,2.833,1.249,2.833,3.265v7.081h2.041v-7.393c0-2.977-1.848-4.849-4.537-4.849A4.245,4.245,0,0,0,51.589,201v-1.848H49.524v12Zm23.88,0h2.064V194.107H71.8l-1.68,2.041H73.4v15Zm7.3,0H83.34l6.241-7.369a6.545,6.545,0,0,0,1.92-4.345,5.775,5.775,0,0,0-11.546.072,5.506,5.506,0,0,0,5.329,5.473,3.061,3.061,0,0,0,.672-0.048Zm1.368-11.666a3.661,3.661,0,1,1,3.649,3.673A3.622,3.622,0,0,1,82.068,199.484ZM95.291,211.15h2.641l6.241-7.369a6.542,6.542,0,0,0,1.921-4.345,5.775,5.775,0,0,0-11.547.072,5.506,5.506,0,0,0,5.329,5.473,3.071,3.071,0,0,0,.673-0.048Zm1.368-11.666a3.661,3.661,0,1,1,3.648,3.673A3.622,3.622,0,0,1,96.66,199.484Zm24.026,6.553a4.762,4.762,0,0,0-2.665-4.464,3.993,3.993,0,0,0,1.728-3.361c0-2.545-1.968-4.393-4.777-4.393a4.485,4.485,0,0,0-4.8,4.393,3.977,3.977,0,0,0,1.777,3.361,4.761,4.761,0,0,0-2.713,4.464c0,3.1,2.4,5.353,5.737,5.353C118.357,211.39,120.686,209.134,120.686,206.037Zm-8.474-7.777a2.537,2.537,0,0,1,2.76-2.5,2.491,2.491,0,0,1,2.737,2.5,2.547,2.547,0,0,1-2.737,2.52A2.6,2.6,0,0,1,112.212,198.26Zm-0.888,7.777a3.383,3.383,0,0,1,3.648-3.408,3.4,3.4,0,1,1,0,6.793A3.392,3.392,0,0,1,111.324,206.037Zm13.247-.576h12.123V203.4H124.571v2.064Zm15.888-.312a6.328,6.328,0,0,0,11.619,3.385l-1.633-1.128a4.25,4.25,0,0,1-7.9-1.849h9.843a5.856,5.856,0,0,0,.024-0.624c-0.024-3.841-2.569-6.025-5.714-6.025A6.083,6.083,0,0,0,140.459,205.149Zm6.169-4.417a3.591,3.591,0,0,1,3.673,3.145h-7.609A3.924,3.924,0,0,1,146.628,200.732Zm7.679,10.418h2.568l3.649-4.536,3.649,4.536h2.545l-4.9-6.073,4.513-5.929h-2.521l-3.289,4.321-3.312-4.321h-2.5l4.513,5.929Zm26.163-2.976-1.8-1.008a4.068,4.068,0,0,1-3.744,2.3,4.323,4.323,0,0,1,0-8.642,4.069,4.069,0,0,1,3.744,2.305l1.8-1.008a6.216,6.216,0,0,0-5.545-3.217,6.241,6.241,0,1,0,0,12.482A6.217,6.217,0,0,0,180.47,208.174Zm2.925-3.025a6.328,6.328,0,0,0,11.618,3.385l-1.632-1.128a4.25,4.25,0,0,1-7.9-1.849h9.842a5.856,5.856,0,0,0,.024-0.624c-0.024-3.841-2.568-6.025-5.713-6.025A6.082,6.082,0,0,0,183.4,205.149Zm6.169-4.417a3.591,3.591,0,0,1,3.673,3.145h-7.61A3.925,3.925,0,0,1,189.564,200.732Zm9.911,15.435h2.064V209.3a5.266,5.266,0,0,0,4.225,2.088,6.252,6.252,0,0,0,0-12.482A5.266,5.266,0,0,0,201.539,201v-1.848h-2.064v17.019Zm10.058-11.018a4.089,4.089,0,1,1-4.081-4.345A4.1,4.1,0,0,1,209.533,205.149Zm12.576,5.833v-1.848a4.573,4.573,0,0,1-1.465.24c-1.3,0-1.992-.5-1.992-2.04v-6.29h3.457v-1.9h-3.457v-3.336h-2.065v3.336h-2.544v1.9h2.544V207.6a3.379,3.379,0,0,0,3.673,3.672A5.754,5.754,0,0,0,222.109,210.982Zm16.991,0v-1.848a4.562,4.562,0,0,1-1.464.24c-1.3,0-1.993-.5-1.993-2.04v-6.29H239.1v-1.9h-3.457v-3.336h-2.064v3.336h-2.545v1.9h2.545V207.6a3.378,3.378,0,0,0,3.673,3.672A5.743,5.743,0,0,0,239.1,210.982Zm3.839,0.168H245V205.2c0-2.808,1.536-4.393,3.481-4.393,1.68,0,2.833,1.249,2.833,3.265v7.081h2.04v-7.393c0-2.977-1.848-4.849-4.537-4.849A4.245,4.245,0,0,0,245,201v-7.849h-2.064v18Zm17.832-16.683a1.449,1.449,0,0,0-1.44-1.464,1.465,1.465,0,1,0,0,2.929A1.435,1.435,0,0,0,260.771,194.467Zm-2.5,16.683h2.065v-12h-2.065v12Zm14.954-3.336c0-1.8-1.128-2.953-3.169-3.625l-1.3-.432c-1.416-.456-1.848-0.912-1.848-1.68,0-.888.888-1.393,2.016-1.393a3.246,3.246,0,0,1,2.545,1.249l1.344-1.3a4.656,4.656,0,0,0-3.841-1.728c-2.376,0-4.057,1.32-4.057,3.265,0,1.68,1.032,2.856,2.977,3.48l1.176,0.384c1.56,0.5,2.137,1.081,2.137,1.921,0,1.032-.937,1.632-2.113,1.632a3.223,3.223,0,0,1-3.073-1.9l-1.68.912a4.768,4.768,0,0,0,4.7,2.784C271.476,211.39,273.228,210.166,273.228,207.814Zm17.3,3.168v-1.848a4.562,4.562,0,0,1-1.464.24c-1.3,0-1.993-.5-1.993-2.04v-6.29h3.457v-1.9h-3.457v-3.336H285.01v3.336h-2.544v1.9h2.544V207.6a3.378,3.378,0,0,0,3.673,3.672A5.743,5.743,0,0,0,290.531,210.982Zm6.335-16.515a1.449,1.449,0,0,0-1.44-1.464,1.465,1.465,0,1,0,0,2.929A1.435,1.435,0,0,0,296.866,194.467Zm-2.5,16.683h2.064v-12H294.37v12Zm7.176,0h2.064V205.2c0-2.712,1.368-4.393,3.313-4.393,1.56,0,2.352,1.345,2.352,3.289v7.057h2.065V205.2c0-2.712,1.344-4.393,3.288-4.393,1.561,0,2.377,1.345,2.377,3.289v7.057h2.064v-7.369c0-2.929-1.584-4.873-4.2-4.873a4.152,4.152,0,0,0-3.936,2.569,3.774,3.774,0,0,0-3.7-2.569A4.034,4.034,0,0,0,303.61,201v-1.848h-2.064v12Zm21.5-6a6.328,6.328,0,0,0,11.619,3.385l-1.633-1.128a4.249,4.249,0,0,1-7.9-1.849h9.842a5.856,5.856,0,0,0,.024-0.624c-0.024-3.841-2.569-6.025-5.713-6.025A6.083,6.083,0,0,0,323.049,205.149Zm6.17-4.417a3.591,3.591,0,0,1,3.672,3.145h-7.609A3.924,3.924,0,0,1,329.219,200.732Zm12.479,9.89a2.052,2.052,0,0,0,.336-1.08,1.777,1.777,0,1,0-3.553,0,1.786,1.786,0,0,0,.984,1.608l-1.608,3.433h1.368Zm14.327-16.155a1.449,1.449,0,0,0-1.44-1.464,1.465,1.465,0,1,0,0,2.929A1.435,1.435,0,0,0,356.025,194.467Zm-2.5,16.683h2.064v-12h-2.064v12Zm13.681-.168v-1.848a4.562,4.562,0,0,1-1.464.24c-1.3,0-1.993-.5-1.993-2.04v-6.29h3.457v-1.9h-3.457v-3.336h-2.064v3.336h-2.545v1.9h2.545V207.6a3.378,3.378,0,0,0,3.673,3.672A5.743,5.743,0,0,0,367.21,210.982ZM378.1,211.15h2.065V205.2c0-2.808,1.536-4.393,3.481-4.393,1.68,0,2.832,1.249,2.832,3.265v7.081h2.041v-7.393c0-2.977-1.849-4.849-4.537-4.849A4.244,4.244,0,0,0,380.169,201v-7.849H378.1v18Zm14.4-6a6.005,6.005,0,0,0,5.881,6.241,5.263,5.263,0,0,0,4.225-2.088v1.848h2.065v-12H402.61V201a5.263,5.263,0,0,0-4.225-2.088A6.006,6.006,0,0,0,392.5,205.149Zm10.274,0A4.1,4.1,0,1,1,398.7,200.8,4.1,4.1,0,0,1,402.778,205.149Zm14.76,2.665c0-1.8-1.129-2.953-3.169-3.625l-1.3-.432c-1.417-.456-1.849-0.912-1.849-1.68,0-.888.888-1.393,2.017-1.393a3.243,3.243,0,0,1,2.544,1.249l1.344-1.3a4.654,4.654,0,0,0-3.84-1.728c-2.377,0-4.057,1.32-4.057,3.265,0,1.68,1.032,2.856,2.976,3.48l1.177,0.384c1.56,0.5,2.136,1.081,2.136,1.921,0,1.032-.936,1.632-2.112,1.632a3.221,3.221,0,0,1-3.073-1.9l-1.68.912a4.767,4.767,0,0,0,4.7,2.784C415.785,211.39,417.538,210.166,417.538,207.814Zm18.983,0c0-1.8-1.128-2.953-3.169-3.625l-1.3-.432c-1.416-.456-1.848-0.912-1.848-1.68,0-.888.888-1.393,2.016-1.393a3.245,3.245,0,0,1,2.545,1.249l1.344-1.3a4.656,4.656,0,0,0-3.841-1.728c-2.376,0-4.057,1.32-4.057,3.265,0,1.68,1.032,2.856,2.977,3.48l1.176,0.384c1.561,0.5,2.137,1.081,2.137,1.921,0,1.032-.937,1.632-2.113,1.632a3.221,3.221,0,0,1-3.072-1.9l-1.681.912a4.768,4.768,0,0,0,4.7,2.784C434.769,211.39,436.521,210.166,436.521,207.814Zm10.512,3.168v-1.848a4.568,4.568,0,0,1-1.465.24c-1.3,0-1.992-.5-1.992-2.04v-6.29h3.457v-1.9h-3.457v-3.336h-2.065v3.336h-2.544v1.9h2.544V207.6a3.379,3.379,0,0,0,3.673,3.672A5.749,5.749,0,0,0,447.033,210.982Zm3.838,0.168h2.065V205.2c0-2.808,1.656-4.129,3.168-4.129a3.006,3.006,0,0,1,1.129.193v-2.137a4.291,4.291,0,0,0-.937-0.1,3.57,3.57,0,0,0-3.36,2.449v-2.329h-2.065v12Zm8.616-6a6.328,6.328,0,0,0,11.619,3.385l-1.633-1.128a4.249,4.249,0,0,1-7.9-1.849h9.842a5.856,5.856,0,0,0,.024-0.624c-0.024-3.841-2.569-6.025-5.714-6.025A6.083,6.083,0,0,0,459.487,205.149Zm6.169-4.417a3.591,3.591,0,0,1,3.673,3.145H461.72A3.924,3.924,0,0,1,465.656,200.732Zm16.249,10.25v-1.848a4.562,4.562,0,0,1-1.464.24c-1.3,0-1.993-.5-1.993-2.04v-6.29h3.457v-1.9h-3.457v-3.336h-2.064v3.336h-2.545v1.9h2.545V207.6a3.378,3.378,0,0,0,3.672,3.672A5.744,5.744,0,0,0,481.905,210.982Zm14.569-2.808-1.8-1.008a4.07,4.07,0,0,1-3.745,2.3,4.323,4.323,0,0,1,0-8.642,4.071,4.071,0,0,1,3.745,2.305l1.8-1.008a6.215,6.215,0,0,0-5.545-3.217,6.241,6.241,0,1,0,0,12.482A6.216,6.216,0,0,0,496.474,208.174Zm3.861,2.976H502.4V205.2c0-2.808,1.536-4.393,3.481-4.393,1.68,0,2.832,1.249,2.832,3.265v7.081h2.041v-7.393c0-2.977-1.849-4.849-4.537-4.849A4.244,4.244,0,0,0,502.4,201v-7.849h-2.065v18Zm18.193-1.608a1.777,1.777,0,1,0-1.777,1.8A1.808,1.808,0,0,0,518.528,209.542Z"/>
  <rect id="Rectangle_4_copy_6" data-name="Rectangle 4 copy 6" x="39" y="279.031" width="122.406" height="3.688"/>
  <path id="Shop_now_copy_2" data-name="Shop now copy 2" class="cls-2" d="M44.217,272.116c2.706,0,4.564-1.653,4.582-4.023,0.018-1.965-1.19-3.214-3.048-3.894l-0.9-.33c-1.353-.5-1.984-0.809-1.984-1.506,0-.68.776-0.992,1.551-0.992a2.831,2.831,0,0,1,2.219,1.083l1.876-2.02a5.3,5.3,0,0,0-4.131-1.8c-2.561,0-4.419,1.488-4.419,4.022,0,1.782,1.154,3.049,3.229,3.766l0.9,0.312c1.281,0.441,1.786.9,1.786,1.561,0,0.625-.6,1.084-1.551,1.084a3.335,3.335,0,0,1-2.652-1.488l-2.2,1.892A5.583,5.583,0,0,0,44.217,272.116Zm9.726-.221H56.81v-5.161h5.159V271.9h2.868V258.854H61.969v5.106H56.81v-5.106H53.942V271.9Zm22.66,0.221a6.742,6.742,0,1,0-6.62-6.741A6.7,6.7,0,0,0,76.6,272.116Zm0-2.829a3.917,3.917,0,1,1,3.716-3.912A3.837,3.837,0,0,1,76.6,269.287Zm20.622-5.969a4.4,4.4,0,0,0-4.51-4.464H88.367V271.9h2.868v-4.132h1.479A4.385,4.385,0,0,0,97.224,263.318Zm-2.778,0a1.7,1.7,0,0,1-1.768,1.708H91.235v-3.417h1.443A1.689,1.689,0,0,1,94.446,263.318Zm25.979,8.577V258.854h-2.886V266.9l-6.223-8.045h-2.472V271.9h2.869v-8.063l6.241,8.063h2.471Zm11.765,0.221a6.742,6.742,0,1,0-6.62-6.741A6.7,6.7,0,0,0,132.19,272.116Zm0-2.829a3.917,3.917,0,1,1,3.716-3.912A3.837,3.837,0,0,1,132.19,269.287Zm21.686,2.608H156.6l2.976-13.041h-3.067l-1.749,8.266-3.608-8.486-3.589,8.486-1.75-8.266h-3.067l2.959,13.041h2.723l2.724-6.392Z"/>
</svg>
