<svg id="Copy_copy_10" data-name="Copy copy 10" xmlns="http://www.w3.org/2000/svg" width="768" height="229"><defs><style>.cls-2{fill-rule:evenodd}</style></defs><path id="Rectangle_109_copy_9" data-name="Rectangle 109 copy 9" fill="#fff" d="M0 0h768v229H0z"/><path id="REVERSIBLE_MELTON_WOOL_COAT_" data-name="REVERSIBLE MELTON WOOL COAT" class="cls-2" d="M43.284 66.929h6.105v-11.25h1l9.062 11.25h7.334l-9.64-12.018c3.456-1.229 5.337-3.494 5.337-7.026a8.049 8.049 0 0 0-8.447-8.217H43.284v27.261zM49.389 50.5v-5.227h3.916c1.8 0 3.11.96 3.11 2.611 0 1.574-1.306 2.611-3.11 2.611h-3.916zm21.235 16.429H87.9v-5.836H76.729v-4.877H85.6V50.38h-8.87V45.5H87.9v-5.832H70.624v27.261zm32.178 0h5.491l11.174-27.261h-6.72l-7.218 18.161-7.257-18.161h-6.643zm21.5 0h17.278v-5.836h-11.168v-4.877h8.87V50.38h-8.87V45.5h11.173v-5.832h-17.278v27.261zm23.846 0h6.105v-11.25h1l9.061 11.25h7.334l-9.638-12.018c3.456-1.229 5.338-3.494 5.338-7.026a8.049 8.049 0 0 0-8.448-8.217h-10.747v27.261zm6.11-16.429v-5.227h3.917c1.8 0 3.11.96 3.11 2.611 0 1.574-1.306 2.611-3.11 2.611h-3.917zm29.376 16.89c5.759 0 9.714-3.456 9.752-8.409.039-4.108-2.534-6.719-6.489-8.14l-1.92-.691c-2.879-1.037-4.223-1.689-4.223-3.149 0-1.421 1.651-2.073 3.3-2.073a6.064 6.064 0 0 1 4.723 2.265l3.993-4.224a11.376 11.376 0 0 0-8.793-3.763c-5.452 0-9.407 3.11-9.407 8.409 0 3.724 2.457 6.374 6.873 7.871l1.92.653c2.726.922 3.8 1.882 3.8 3.264 0 1.306-1.267 2.265-3.3 2.265a7.13 7.13 0 0 1-5.644-3.11l-4.685 3.955a11.955 11.955 0 0 0 10.1 4.877zm15.9-.461h6.106V39.668h-6.106v27.261zm13.786 0h11.98a8.06 8.06 0 0 0 8.29-8.029 7.124 7.124 0 0 0-3.878-6.451 6.417 6.417 0 0 0 1.958-4.684 8.1 8.1 0 0 0-8.1-8.1h-10.253v27.264zm6.1-16.242v-5.452h3.455A2.771 2.771 0 0 1 225.719 48a2.733 2.733 0 0 1-2.842 2.688h-3.455zm0 10.636v-5.452h5.337a2.774 2.774 0 0 1 2.88 2.726 2.74 2.74 0 0 1-2.842 2.726h-5.375zm20.2 5.606h17.394v-5.836h-11.288V39.668h-6.106v27.261zm23.117 0h17.278v-5.836h-11.173v-4.877h8.87V50.38h-8.87V45.5h11.173v-5.832h-17.278v27.261zm48.3-5.8l7.948-11.02v16.82h6.144V39.668h-5.568l-8.524 11.749-8.524-11.749h-5.563v27.261h6.106V50.111zm21.774 5.8h17.278v-5.836h-11.168v-4.877h8.87V50.38h-8.87V45.5h11.173v-5.832h-17.278v27.261zm23.846 0h17.394v-5.836h-11.284V39.668h-6.105v27.261zm24.345 0h6.143V45.5h7.027v-5.832h-20.12V45.5h6.95v21.429zm30.335.461a14.091 14.091 0 1 0-14.086-14.09 14.125 14.125 0 0 0 14.091 14.09zm0-5.913a8.183 8.183 0 1 1 7.91-8.178 8.088 8.088 0 0 1-7.905 8.178zm44.889 5.452V39.668h-6.144v16.817L436.84 39.668h-5.26v27.261h6.105V50.073l13.285 16.856h5.261zm38.822 0h5.8l6.335-27.261h-6.527l-3.725 17.278-7.679-17.739-7.641 17.739-3.725-17.278h-6.527l6.3 27.261h5.8l5.8-13.362zm29.76.461a14.091 14.091 0 1 0-14.086-14.09 14.125 14.125 0 0 0 14.091 14.09zm0-5.913a8.183 8.183 0 1 1 7.91-8.178 8.088 8.088 0 0 1-7.905 8.178zm32.793 5.913a14.091 14.091 0 1 0-14.086-14.09 14.125 14.125 0 0 0 14.091 14.09zm0-5.913a8.183 8.183 0 1 1 7.91-8.178 8.088 8.088 0 0 1-7.905 8.178zm20.238 5.452h17.394v-5.836h-11.284V39.668h-6.1v27.261zm45 .461a14.093 14.093 0 0 0 12.761-7.449l-5.376-2.918a8.179 8.179 0 1 1 0-7.449l5.376-2.918a14.213 14.213 0 1 0-12.753 20.734zm30.8 0a14.091 14.091 0 1 0-14.087-14.09 14.125 14.125 0 0 0 14.092 14.09zm0-5.913a8.183 8.183 0 1 1 7.909-8.178 8.089 8.089 0 0 1-7.904 8.178zm16.09 5.452h6.374l2.419-5.759h11.288l2.42 5.759h6.373l-11.667-27.261h-5.529zm11.02-11.058l3.417-8.217 3.417 8.217h-6.834zm24.811 11.058h6.14V45.5h7.027v-5.832h-20.12V45.5h6.949v21.429z"/><path id="Rectangle_4_copy_7" data-name="Rectangle 4 copy 7" d="M39 134.812h122.406v3.657H39z"/><path id="Shop_now_copy_3" data-name="Shop now copy 3" class="cls-2" d="M44.217 127.894c2.706 0 4.564-1.653 4.582-4.022.018-1.966-1.19-3.215-3.048-3.894l-.9-.331c-1.353-.5-1.984-.808-1.984-1.506 0-.68.776-.992 1.551-.992a2.829 2.829 0 0 1 2.219 1.084l1.876-2.021a5.3 5.3 0 0 0-4.131-1.8c-2.561 0-4.419 1.488-4.419 4.023 0 1.782 1.154 3.049 3.229 3.765l.9.312c1.281.441 1.786.9 1.786 1.562 0 .624-.6 1.083-1.551 1.083a3.337 3.337 0 0 1-2.652-1.487l-2.2 1.891a5.58 5.58 0 0 0 4.742 2.333zm9.726-.22h2.867v-5.162h5.159v5.162h2.868v-13.041h-2.868v5.106H56.81v-5.106h-2.868v13.041zm22.66.22a6.742 6.742 0 1 0-6.62-6.741 6.7 6.7 0 0 0 6.617 6.741zm0-2.828a3.918 3.918 0 1 1 3.716-3.913 3.837 3.837 0 0 1-3.719 3.913zm20.622-5.97a4.4 4.4 0 0 0-4.51-4.463h-4.348v13.041h2.868v-4.133h1.479a4.385 4.385 0 0 0 4.51-4.441zm-2.778 0a1.7 1.7 0 0 1-1.768 1.708h-1.444v-3.416h1.443a1.689 1.689 0 0 1 1.768 1.712zm25.979 8.578v-13.041h-2.886v8.045l-6.223-8.045h-2.472v13.041h2.869v-8.064l6.241 8.064h2.471zm11.765.22a6.742 6.742 0 1 0-6.62-6.741 6.7 6.7 0 0 0 6.619 6.741zm0-2.828a3.918 3.918 0 1 1 3.716-3.913 3.837 3.837 0 0 1-3.717 3.913zm21.686 2.608h2.723l2.976-13.041h-3.067l-1.749 8.267-3.608-8.486-3.589 8.486-1.75-8.265h-3.067l2.959 13.041h2.723l2.724-6.392z"/></svg>