<svg id="Copy_copy_11" data-name="Copy copy 11" xmlns="http://www.w3.org/2000/svg" width="768" height="401"><defs><style>.cls-2{fill-rule:evenodd}</style></defs><path id="Rectangle_109_copy_10" data-name="Rectangle 109 copy 10" fill="#fff" d="M0 0h768v401H0z"/><path id="SUEDE_CLASSIC_TRENCH_COAT_Suede_b._1980_Our_first_trench_app" data-name="SUEDE CLASSIC TRENCH COAT Suede, b. 1980 Our first trench app" class="cls-2" d="M51.424 67.165c5.76 0 9.715-3.456 9.753-8.409.038-4.108-2.534-6.719-6.489-8.14l-1.92-.691c-2.88-1.037-4.224-1.689-4.224-3.148 0-1.421 1.651-2.073 3.3-2.073a6.064 6.064 0 0 1 4.723 2.265l3.993-4.224a11.376 11.376 0 0 0-8.793-3.763c-5.452 0-9.407 3.11-9.407 8.409 0 3.724 2.457 6.374 6.873 7.871l1.92.653c2.726.921 3.8 1.881 3.8 3.264 0 1.305-1.267 2.265-3.3 2.265a7.132 7.132 0 0 1-5.644-3.11l-4.684 3.955a11.954 11.954 0 0 0 10.099 4.876zm26.8 0c6.528 0 11.212-4.454 11.212-11.25V39.443h-6.103v16.549c0 3.264-2.073 5.26-5.107 5.26s-5.107-2-5.107-5.26V39.443h-6.105v16.472c0 6.796 4.647 11.25 11.212 11.25zm18.588-.465h17.279v-5.832h-11.174v-4.876h8.87v-5.836h-8.87v-4.877h11.174v-5.836H96.812V66.7zm23.847 0h9.292a13.633 13.633 0 1 0 0-27.261h-9.292V66.7zm6.1-5.606V45.049h3.187a7.694 7.694 0 0 1 7.718 8.025 7.694 7.694 0 0 1-7.718 8.025h-3.187zm23.276 5.606h17.278v-5.832H156.14v-4.876h8.869v-5.836h-8.869v-4.877h11.173v-5.836h-17.278V66.7zm46.765.465a14.092 14.092 0 0 0 12.748-7.449l-5.372-2.916a8.179 8.179 0 1 1 0-7.449l5.376-2.918A14.213 14.213 0 1 0 196.8 67.165zm18.241-.461h17.394v-5.836H221.15V39.443h-6.105V66.7zm20.2 0h6.374l2.419-5.76h11.289l2.419 5.76h6.374l-11.671-27.261h-5.529zm11.02-11.058l3.418-8.217 3.417 8.217h-6.835zm30.029 11.519c5.76 0 9.715-3.456 9.753-8.409.038-4.108-2.534-6.719-6.489-8.14l-1.92-.691c-2.88-1.037-4.224-1.689-4.224-3.148 0-1.421 1.651-2.073 3.3-2.073a6.064 6.064 0 0 1 4.723 2.265l3.994-4.224a11.377 11.377 0 0 0-8.793-3.763c-5.453 0-9.408 3.11-9.408 8.409 0 3.724 2.458 6.374 6.873 7.871l1.92.653c2.727.921 3.8 1.881 3.8 3.264 0 1.305-1.267 2.265-3.3 2.265a7.133 7.133 0 0 1-5.644-3.11l-4.684 3.955a11.953 11.953 0 0 0 10.101 4.876zm24.038 0c5.76 0 9.715-3.456 9.753-8.409.038-4.108-2.534-6.719-6.489-8.14l-1.92-.691c-2.88-1.037-4.224-1.689-4.224-3.148 0-1.421 1.651-2.073 3.3-2.073a6.064 6.064 0 0 1 4.723 2.265l3.994-4.224a11.377 11.377 0 0 0-8.793-3.763c-5.453 0-9.408 3.11-9.408 8.409 0 3.724 2.458 6.374 6.873 7.871l1.92.653c2.726.921 3.8 1.881 3.8 3.264 0 1.305-1.268 2.265-3.3 2.265a7.133 7.133 0 0 1-5.644-3.11l-4.684 3.955a11.953 11.953 0 0 0 10.101 4.876zm15.9-.461h6.105V39.443h-6.105V66.7zm26.341.461a14.092 14.092 0 0 0 12.748-7.449l-5.376-2.916a8.179 8.179 0 1 1 0-7.449l5.376-2.918a14.213 14.213 0 1 0-12.748 20.732zm32.41-.461h6.143V45.279h7.027v-5.836h-20.12v5.836h6.95V66.7zm18.816 0h6.1v-11.25h1L409.96 66.7h7.334l-9.638-12.018c3.456-1.229 5.338-3.494 5.338-7.026a8.049 8.049 0 0 0-8.448-8.217H393.8V66.7zm6.1-16.434v-5.221h3.917c1.8 0 3.11.96 3.11 2.611 0 1.574-1.306 2.611-3.11 2.611H399.9zm21.24 16.43h17.279v-5.832H427.24v-4.876h8.87v-5.836h-8.87v-4.877h11.174v-5.836h-17.279V66.7zm48.5 0V39.443h-6.144v16.818l-13.249-16.818h-5.26V66.7h6.1V49.848l13.29 16.852h5.261zm20.237.461a14.092 14.092 0 0 0 12.748-7.449l-5.378-2.912a8.179 8.179 0 1 1 0-7.449l5.376-2.918a14.213 14.213 0 1 0-12.748 20.732zm18.241-.461h6.105V55.915H525.2V66.7h6.1V39.443h-6.1v10.674h-10.984V39.443h-6.105V66.7zm53.8.461a14.093 14.093 0 0 0 12.748-7.449L569.28 56.8a8.179 8.179 0 1 1 0-7.449l5.376-2.918a14.213 14.213 0 1 0-12.748 20.732zm30.8 0a14.091 14.091 0 1 0-14.092-14.091 14.125 14.125 0 0 0 14.084 14.095zm0-5.913a8.183 8.183 0 1 1 7.909-8.178 8.089 8.089 0 0 1-7.917 8.182zm16.09 5.452h6.374l2.419-5.76h11.288l2.419 5.76h6.374L626 39.443h-5.529zm11.02-11.058l3.417-8.217 3.417 8.217h-6.834zM644.621 66.7h6.144V45.279h7.027v-5.836h-20.12v5.836h6.949V66.7zM41.354 97.241c.977 1.927 3.485 3.379 6.575 3.379 3.485 0 5.967-2.006 5.967-5.2 0-2.772-1.584-4.357-4.357-5.413l-2.271-.871c-1.9-.713-2.825-1.426-2.825-3.01 0-1.558 1.531-2.587 3.38-2.587a4.639 4.639 0 0 1 3.723 1.848l1.8-1.584a6.838 6.838 0 0 0-5.466-2.561c-3.353 0-5.862 1.927-5.862 4.99 0 2.561 1.32 4.092 4.251 5.175l2.482.95c1.743.66 2.693 1.663 2.693 3.168 0 1.743-1.531 2.8-3.459 2.8a5.238 5.238 0 0 1-4.647-2.561zm16.9-2.033c0 3.274 1.954 5.359 4.858 5.359a4.542 4.542 0 0 0 4.066-2.3v2.033h2.271V87.1h-2.274v6.55c0 3.036-1.611 4.832-3.67 4.832-1.822 0-2.984-1.4-2.984-3.617V87.1H58.25v8.106zm15.761-1.5a6.96 6.96 0 0 0 12.775 3.717l-1.8-1.241a4.674 4.674 0 0 1-8.687-2.033h10.83a6.444 6.444 0 0 0 .026-.686c-.026-4.225-2.825-6.627-6.284-6.627a6.69 6.69 0 0 0-6.864 6.862zm6.785-4.864a3.95 3.95 0 0 1 4.04 3.459h-8.37a4.316 4.316 0 0 1 4.33-3.459zm9.869 4.856a6.606 6.606 0 0 0 6.469 6.864 5.789 5.789 0 0 0 4.647-2.3v2.036h2.271V80.5h-2.271v8.634a5.789 5.789 0 0 0-4.647-2.3 6.606 6.606 0 0 0-6.469 6.866zm11.3 0a4.51 4.51 0 1 1-4.489-4.779 4.508 4.508 0 0 1 4.49 4.779zm6.651 0a6.96 6.96 0 0 0 12.78 3.725l-1.8-1.241a4.674 4.674 0 0 1-8.687-2.033h10.825a6.3 6.3 0 0 0 .027-.686c-.027-4.225-2.825-6.627-6.284-6.627a6.689 6.689 0 0 0-6.86 6.862zm6.785-4.858a3.95 3.95 0 0 1 4.04 3.459h-8.37a4.316 4.316 0 0 1 4.331-3.457zm13.728 10.878a2.258 2.258 0 0 0 .369-1.188 1.954 1.954 0 1 0-3.907 0 1.965 1.965 0 0 0 1.082 1.769l-1.769 3.776h1.5zm15.285-1.452a5.789 5.789 0 0 0 4.647 2.3 6.877 6.877 0 0 0 0-13.729 5.789 5.789 0 0 0-4.647 2.3V80.5h-2.271v19.8h2.271v-2.03zm8.792-4.568a4.5 4.5 0 1 1-4.488-4.779 4.507 4.507 0 0 1 4.489 4.779zm9.767 4.832a1.954 1.954 0 1 0-1.954 1.981 1.989 1.989 0 0 0 1.955-1.979zm14.229 1.769h2.271V81.557h-4.04L173.59 83.8h3.617v16.5zm8.025 0h2.905L195 92.2a7.2 7.2 0 0 0 2.112-4.779 6.352 6.352 0 0 0-12.7.079 6.057 6.057 0 0 0 5.862 6.02 3.365 3.365 0 0 0 .739-.053zm1.5-12.831a4.027 4.027 0 1 1 4.014 4.04 3.985 3.985 0 0 1-4.008-4.038zm26.428 7.208a5.238 5.238 0 0 0-2.93-4.911 4.39 4.39 0 0 0 1.9-3.7c0-2.8-2.166-4.832-5.255-4.832-3.01 0-5.281 2.033-5.281 4.832a4.372 4.372 0 0 0 1.954 3.7 5.239 5.239 0 0 0-2.983 4.911c0 3.406 2.64 5.887 6.31 5.887 3.726.002 6.291-2.479 6.291-5.885zm-9.32-8.555a2.79 2.79 0 0 1 3.036-2.746 2.739 2.739 0 0 1 3.01 2.746 2.8 2.8 0 0 1-3.01 2.772 2.857 2.857 0 0 1-3.03-2.77zm-.977 8.555a3.722 3.722 0 0 1 4.013-3.749 3.744 3.744 0 1 1 0 7.472 3.731 3.731 0 0 1-4.007-3.721zm27.721-1.162V88.29c0-4.145-2.8-7.05-6.653-7.05s-6.628 2.9-6.628 7.05v5.228c0 4.172 2.773 7.049 6.628 7.049s6.659-2.877 6.659-7.049zm-11.01 0V88.29c0-3.036 1.822-4.832 4.357-4.832 2.561 0 4.383 1.8 4.383 4.832v5.228c0 3.036-1.822 4.832-4.383 4.832-2.53 0-4.351-1.796-4.351-4.832zM59.1 144.58a8.81 8.81 0 1 0-8.81 8.81 8.724 8.724 0 0 0 8.81-8.81zm-15.363 0a6.567 6.567 0 1 1 6.553 6.7 6.534 6.534 0 0 1-6.549-6.7zm19.416 3.889c0 2.977 1.776 4.873 4.417 4.873a4.13 4.13 0 0 0 3.7-2.088v1.846h2.065v-12H71.27v5.953c0 2.76-1.464 4.393-3.337 4.393-1.656 0-2.713-1.273-2.713-3.289V141.1h-2.064v7.369zM78.42 153.1h2.065v-5.953c0-2.809 1.656-4.129 3.169-4.129a3.018 3.018 0 0 1 1.128.192v-2.136a4.279 4.279 0 0 0-.936-.1 3.571 3.571 0 0 0-3.361 2.448V141.1H78.42v12zm17.136 0h2.064V143h3.48v-1.9h-3.479v-2.209c0-1.512.672-2.04 1.993-2.04a4.834 4.834 0 0 1 1.489.24v-1.824a5.457 5.457 0 0 0-1.873-.312 3.427 3.427 0 0 0-3.673 3.72v2.425h-2.545v1.9h2.545v10.1zm10.3-16.683a1.45 1.45 0 0 0-1.441-1.464 1.491 1.491 0 0 0-1.488 1.464 1.475 1.475 0 0 0 1.488 1.464 1.435 1.435 0 0 0 1.44-1.462zm-2.5 16.683h2.065v-12h-2.065v12zm7.15 0h2.065v-5.953c0-2.809 1.656-4.129 3.168-4.129a3.017 3.017 0 0 1 1.128.192v-2.136a4.276 4.276 0 0 0-.936-.1 3.57 3.57 0 0 0-3.36 2.448V141.1h-2.065v12zm17.546-3.337c0-1.8-1.128-2.952-3.169-3.624l-1.3-.432c-1.416-.456-1.848-.913-1.848-1.681 0-.888.888-1.392 2.016-1.392a3.244 3.244 0 0 1 2.545 1.248l1.344-1.3a4.656 4.656 0 0 0-3.841-1.728c-2.376 0-4.057 1.32-4.057 3.264 0 1.681 1.032 2.857 2.977 3.481l1.176.384c1.56.5 2.137 1.08 2.137 1.92 0 1.033-.937 1.633-2.113 1.633a3.222 3.222 0 0 1-3.073-1.9l-1.68.913a4.768 4.768 0 0 0 4.7 2.784c2.434.009 4.188-1.215 4.188-3.568zm10.512 3.169v-1.848a4.568 4.568 0 0 1-1.465.24c-1.3 0-1.992-.5-1.992-2.041V143h3.457v-1.9h-3.457v-3.337h-2.065v3.337H130.5v1.9h2.544v6.553a3.379 3.379 0 0 0 3.673 3.673 5.749 5.749 0 0 0 1.849-.292zm16.991 0v-1.848a4.562 4.562 0 0 1-1.464.24c-1.3 0-1.992-.5-1.992-2.041V143h3.456v-1.9H152.1v-3.337h-2.065v3.337h-2.544v1.9h2.544v6.553a3.378 3.378 0 0 0 3.673 3.673 5.743 5.743 0 0 0 1.849-.292zm3.845.168h2.064v-5.953c0-2.809 1.657-4.129 3.169-4.129a3.017 3.017 0 0 1 1.128.192v-2.136a4.276 4.276 0 0 0-.936-.1 3.571 3.571 0 0 0-3.361 2.448V141.1H159.4v12zm8.616-6a6.328 6.328 0 0 0 11.618 3.385L178 149.357a4.25 4.25 0 0 1-7.9-1.848h9.842a5.856 5.856 0 0 0 .024-.624c-.024-3.841-2.568-6.025-5.713-6.025a6.081 6.081 0 0 0-6.241 6.24zm6.169-4.417a3.591 3.591 0 0 1 3.673 3.145h-7.61a3.924 3.924 0 0 1 3.933-3.144zm9.911 10.418h2.064v-5.953c0-2.809 1.537-4.393 3.481-4.393 1.68 0 2.833 1.248 2.833 3.265v7.08h2.04v-7.393c0-2.977-1.848-4.849-4.537-4.849a4.245 4.245 0 0 0-3.817 2.088V141.1h-2.064v12zm26.234-2.977l-1.8-1.008a4.069 4.069 0 0 1-3.745 2.305 4.323 4.323 0 0 1 0-8.642 4.069 4.069 0 0 1 3.745 2.305l1.8-1.009a6.216 6.216 0 0 0-5.545-3.216 6.241 6.241 0 1 0 0 12.482 6.215 6.215 0 0 0 5.541-3.216zm3.861 2.977h2.065v-5.953c0-2.809 1.536-4.393 3.48-4.393 1.681 0 2.833 1.248 2.833 3.265v7.08h2.041v-7.393c0-2.977-1.849-4.849-4.537-4.849a4.244 4.244 0 0 0-3.817 2.088V135.1h-2.065v18zm21.456-6a6.005 6.005 0 0 0 5.881 6.241 5.264 5.264 0 0 0 4.225-2.088v1.846h2.064v-12h-2.064v1.848a5.264 5.264 0 0 0-4.225-2.088 6.005 6.005 0 0 0-5.885 6.24zm10.274 0a4.1 4.1 0 1 1-4.081-4.345 4.1 4.1 0 0 1 4.077 4.344zm6.981 11.018h2.065v-6.865a5.263 5.263 0 0 0 4.225 2.088 6.252 6.252 0 0 0 0-12.482 5.263 5.263 0 0 0-4.225 2.088V141.1H252.9v17.019zm10.055-11.019a4.089 4.089 0 1 1-4.081-4.345 4.1 4.1 0 0 1 4.081 4.345zm6.285 11.018h2.065v-6.865a5.263 5.263 0 0 0 4.225 2.088 6.252 6.252 0 0 0 0-12.482 5.263 5.263 0 0 0-4.225 2.088V141.1h-2.065v17.019zM279.3 147.1a4.089 4.089 0 1 1-4.081-4.345 4.1 4.1 0 0 1 4.081 4.345zm5.349 0a6.328 6.328 0 0 0 11.619 3.385l-1.633-1.129a4.249 4.249 0 0 1-7.9-1.848h9.842a5.856 5.856 0 0 0 .024-.624c-.024-3.841-2.569-6.025-5.714-6.025a6.082 6.082 0 0 0-6.237 6.241zm6.169-4.417a3.591 3.591 0 0 1 3.673 3.145h-7.609a3.923 3.923 0 0 1 3.937-3.144zm8.975 4.417a6.006 6.006 0 0 0 5.881 6.241 5.263 5.263 0 0 0 4.225-2.088v1.847h2.065v-12H309.9v1.848a5.263 5.263 0 0 0-4.225-2.088 6.006 6.006 0 0 0-5.881 6.24zm10.274 0a4.1 4.1 0 1 1-4.081-4.345 4.1 4.1 0 0 1 4.082 4.345zm6.982 6h2.064v-5.953c0-2.809 1.657-4.129 3.169-4.129a3.017 3.017 0 0 1 1.128.192v-2.136a4.276 4.276 0 0 0-.936-.1 3.571 3.571 0 0 0-3.361 2.448V141.1h-2.063v12zm8.616-6a6.328 6.328 0 0 0 11.618 3.385l-1.632-1.129a4.25 4.25 0 0 1-7.9-1.848h9.849a5.856 5.856 0 0 0 .024-.624c-.024-3.841-2.568-6.025-5.713-6.025a6.081 6.081 0 0 0-6.245 6.241zm6.169-4.417a3.591 3.591 0 0 1 3.673 3.145H327.9a3.924 3.924 0 0 1 3.935-3.144zm8.975 4.417a6.005 6.005 0 0 0 5.881 6.241 5.264 5.264 0 0 0 4.225-2.088v1.847h2.064v-18h-2.064v7.849a5.264 5.264 0 0 0-4.225-2.088 6.005 6.005 0 0 0-5.88 6.239zm10.274 0a4.1 4.1 0 1 1-4.083-4.344 4.1 4.1 0 0 1 4.084 4.344zm16.534-10.682a1.449 1.449 0 0 0-1.44-1.464 1.491 1.491 0 0 0-1.489 1.464 1.475 1.475 0 0 0 1.489 1.464 1.434 1.434 0 0 0 1.441-1.463zm-2.5 16.683h2.065v-12h-2.065v12zm7.176 0h2.065v-5.953c0-2.809 1.536-4.393 3.48-4.393 1.681 0 2.833 1.248 2.833 3.265v7.08h2.04v-7.393c0-2.977-1.848-4.849-4.536-4.849a4.244 4.244 0 0 0-3.817 2.088V141.1H372.3v12zm28.489-.168v-1.848a4.562 4.562 0 0 1-1.464.24c-1.3 0-1.993-.5-1.993-2.041V143h3.457v-1.9h-3.457v-3.337h-2.064v3.337h-2.541v1.9h2.545v6.553a3.378 3.378 0 0 0 3.673 3.673 5.743 5.743 0 0 0 1.848-.292zm3.839.168h2.064v-5.953c0-2.809 1.536-4.393 3.481-4.393 1.68 0 2.832 1.248 2.832 3.265v7.08h2.041v-7.393c0-2.977-1.849-4.849-4.537-4.849a4.245 4.245 0 0 0-3.817 2.088V135.1h-2.064v18zm14.4-6a6.328 6.328 0 0 0 11.619 3.385l-1.633-1.129a4.249 4.249 0 0 1-7.9-1.848h9.842a5.856 5.856 0 0 0 .024-.624c-.024-3.841-2.569-6.025-5.713-6.025a6.082 6.082 0 0 0-6.236 6.24zm6.17-4.417a3.59 3.59 0 0 1 3.672 3.145h-7.609a3.923 3.923 0 0 1 3.94-3.145zm17.281 10.416h6.1c3.457 0 5.714-2.136 5.714-4.969a4.062 4.062 0 0 0-2.953-4.081 3.862 3.862 0 0 0 1.824-3.48c0-2.4-1.92-4.513-5.089-4.513h-5.593V153.1zm2.232-9.722v-5.305h3.361a2.679 2.679 0 0 1 2.905 2.665 2.623 2.623 0 0 1-2.905 2.64H444.7zm0 7.706V145.3h3.985c2.257 0 3.409 1.248 3.409 2.9 0 1.68-1.152 2.881-3.433 2.881H444.7zm12.816-3.984a6.005 6.005 0 0 0 5.881 6.241 5.264 5.264 0 0 0 4.225-2.088v1.847h2.064v-12h-2.064v1.848a5.264 5.264 0 0 0-4.225-2.088 6.005 6.005 0 0 0-5.881 6.24zm10.274 0a4.1 4.1 0 1 1-4.081-4.345 4.1 4.1 0 0 1 4.081 4.345zm6.982 6h2.064v-5.953c0-2.809 1.536-4.393 3.481-4.393 1.68 0 2.832 1.248 2.832 3.265v7.081h2.041v-7.393c0-2.977-1.849-4.849-4.537-4.849a4.245 4.245 0 0 0-3.817 2.088V141.1h-2.064v12zm14.4-6a6.006 6.006 0 0 0 5.881 6.241 5.263 5.263 0 0 0 4.225-2.088v1.847h2.065v-12h-2.065v1.848a5.263 5.263 0 0 0-4.225-2.088 6.006 6.006 0 0 0-5.882 6.24zm10.274 0a4.1 4.1 0 1 1-4.08-4.345 4.1 4.1 0 0 1 4.079 4.345zm6.982 6h2.068v-5.953c0-2.809 1.536-4.393 3.48-4.393 1.681 0 2.833 1.248 2.833 3.265v7.081h2.04v-7.393c0-2.977-1.848-4.849-4.537-4.849a4.243 4.243 0 0 0-3.816 2.088V141.1h-2.065v12zm14.4-6a6.005 6.005 0 0 0 5.881 6.241 5.264 5.264 0 0 0 4.225-2.088v1.847H533v-12h-2.064v1.848a5.264 5.264 0 0 0-4.225-2.088 6.005 6.005 0 0 0-5.88 6.24zm10.274 0a4.1 4.1 0 1 1-4.081-4.345 4.1 4.1 0 0 1 4.08 4.345zm14.349 6h2.233v-7.753h1.656l6.556 7.753h2.808l-6.553-7.777c2.616-.385 4.2-2.065 4.2-4.561 0-2.809-1.945-4.705-5.089-4.705h-5.81V153.1zm2.233-9.746v-5.233H551c1.944 0 3.12.912 3.12 2.641 0 1.7-1.176 2.592-3.12 2.592h-3.313zm12.6 3.745a6.328 6.328 0 0 0 11.619 3.385l-1.633-1.129a4.249 4.249 0 0 1-7.9-1.848h9.842a5.856 5.856 0 0 0 .024-.624c-.024-3.841-2.569-6.025-5.714-6.025a6.082 6.082 0 0 0-6.24 6.242zm6.169-4.417a3.591 3.591 0 0 1 3.673 3.145h-7.609a3.923 3.923 0 0 1 3.934-3.143zm9.911 15.435h2.065v-6.865a5.262 5.262 0 0 0 4.224 2.088 6.252 6.252 0 0 0 0-12.482 5.262 5.262 0 0 0-4.224 2.088V141.1h-2.065v17.019zm10.056-11.017a4.089 4.089 0 1 1-4.081-4.345 4.1 4.1 0 0 1 4.081 4.345zm6.118 1.368c0 2.977 1.776 4.873 4.417 4.873a4.13 4.13 0 0 0 3.7-2.088v1.847h2.064v-12h-2.064v5.953c0 2.76-1.465 4.393-3.337 4.393-1.656 0-2.713-1.273-2.713-3.289V141.1h-2.064v7.369zm17.328 2.785a5.266 5.266 0 0 0 4.225 2.088 6.252 6.252 0 0 0 0-12.482 5.266 5.266 0 0 0-4.225 2.088V135.1h-2.064v18h2.064v-1.848zm7.994-4.153a4.089 4.089 0 1 1-4.081-4.345 4.1 4.1 0 0 1 4.081 4.345zm6.262 6h2.064v-18h-2.064v18zm9.672-16.683a1.449 1.449 0 0 0-1.44-1.464 1.492 1.492 0 0 0-1.489 1.464 1.476 1.476 0 0 0 1.489 1.464 1.434 1.434 0 0 0 1.442-1.462zM631.3 153.1h2.065v-12H631.3v12zm18.075-2.977l-1.8-1.008a4.067 4.067 0 0 1-3.745 2.305 4.323 4.323 0 0 1 0-8.642 4.067 4.067 0 0 1 3.745 2.305l1.8-1.009a6.218 6.218 0 0 0-5.546-3.216 6.241 6.241 0 1 0 0 12.482 6.216 6.216 0 0 0 5.547-3.215zm-596.129 28.8l-1.8-1.008a4.069 4.069 0 0 1-3.745 2.3 4.323 4.323 0 0 1 0-8.642 4.068 4.068 0 0 1 3.745 2.3l1.8-1.008a6.215 6.215 0 0 0-5.545-3.217 6.241 6.241 0 1 0 0 12.482 6.216 6.216 0 0 0 5.546-3.205zm2.925-3.025a6.006 6.006 0 0 0 5.881 6.241 5.264 5.264 0 0 0 4.225-2.088v1.849h2.064v-12h-2.063v1.848a5.264 5.264 0 0 0-4.225-2.088 6.006 6.006 0 0 0-5.881 6.24zm10.274 0a4.1 4.1 0 1 1-4.081-4.345 4.1 4.1 0 0 1 4.082 4.347zm13.487 5.833v-1.848a4.564 4.564 0 0 1-1.464.24c-1.3 0-1.992-.5-1.992-2.04V171.8h3.457v-1.9h-3.457v-3.337h-2.064v3.337h-2.545v1.9h2.545v6.554a3.378 3.378 0 0 0 3.673 3.672 5.745 5.745 0 0 0 1.848-.293zm2.735-5.833a6.006 6.006 0 0 0 5.881 6.241 5.264 5.264 0 0 0 4.225-2.088v1.849h2.065v-12h-2.064v1.848a5.264 5.264 0 0 0-4.225-2.088 6.006 6.006 0 0 0-5.881 6.24zm10.274 0a4.1 4.1 0 1 1-4.081-4.345 4.1 4.1 0 0 1 4.082 4.347zm6.982 6h2.064v-18h-2.063v18zm18.77-6a6.278 6.278 0 1 0-6.265 6.241 6.159 6.159 0 0 0 6.266-6.239zm-10.442 0a4.167 4.167 0 1 1 4.177 4.321 4.126 4.126 0 0 1-4.176-4.319zm25.778 5.305V169.9h-2.065v1.848a5.106 5.106 0 0 0-4.177-2.088 6.114 6.114 0 0 0 0 12.218 5.125 5.125 0 0 0 4.177-2.112v1.368a3.836 3.836 0 0 1-4.009 4.153 5.137 5.137 0 0 1-4.2-2.016l-1.44 1.44a7.126 7.126 0 0 0 5.665 2.448c3.409-.001 6.05-1.945 6.05-5.954zm-10.011-5.449a4.059 4.059 0 1 1 4.057 4.2 4 4 0 0 1-4.056-4.198zm24.648-10.538a1.449 1.449 0 0 0-1.44-1.464 1.491 1.491 0 0 0-1.488 1.464 1.475 1.475 0 0 0 1.488 1.464 1.434 1.434 0 0 0 1.441-1.462zm-2.5 16.683h2.064v-12h-2.064v12zm7.175 0h2.065v-5.953c0-2.808 1.536-4.393 3.481-4.393 1.68 0 2.832 1.249 2.832 3.265v7.082h2.041v-7.393c0-2.977-1.849-4.849-4.537-4.849a4.244 4.244 0 0 0-3.817 2.088V169.9h-2.065v12zm23.88 0h2.065v-17.041h-3.673l-1.68 2.04h3.288v15zm7.3 0h2.64l6.242-7.369a6.548 6.548 0 0 0 1.92-4.345 5.774 5.774 0 0 0-11.546.072 5.506 5.506 0 0 0 5.329 5.473 3.059 3.059 0 0 0 .672-.048zm1.368-11.666a3.661 3.661 0 1 1 3.649 3.673 3.622 3.622 0 0 1-3.648-3.671zm24.026 6.553a4.764 4.764 0 0 0-2.664-4.465 3.99 3.99 0 0 0 1.728-3.36c0-2.545-1.969-4.393-4.777-4.393a4.485 4.485 0 0 0-4.8 4.393 3.973 3.973 0 0 0 1.776 3.36 4.764 4.764 0 0 0-2.712 4.465c0 3.1 2.4 5.353 5.737 5.353 3.385.002 5.713-2.254 5.713-5.351zm-8.474-7.777a2.538 2.538 0 0 1 2.761-2.5 2.49 2.49 0 0 1 2.736 2.5 2.547 2.547 0 0 1-2.736 2.52 2.6 2.6 0 0 1-2.76-2.518zm-.888 7.777a3.383 3.383 0 0 1 3.649-3.408 3.4 3.4 0 1 1 0 6.793 3.392 3.392 0 0 1-3.648-3.383zm25.2-1.056v-4.753c0-3.768-2.544-6.409-6.049-6.409s-6.025 2.641-6.025 6.409v4.753c0 3.793 2.52 6.409 6.025 6.409s6.052-2.614 6.052-6.407zm-10.01 0v-4.753c0-2.76 1.657-4.393 3.961-4.393 2.329 0 3.985 1.633 3.985 4.393v4.753c0 2.761-1.656 4.393-3.985 4.393-2.304.002-3.958-1.63-3.958-4.391zm31.397 6.17h1.824l4.081-12h-2.185l-2.9 8.762-3-8.762h-1.584l-3 8.762-2.9-8.762h-2.161l4.081 12h1.824l2.977-8.641zm11.83-16.683a1.45 1.45 0 0 0-1.441-1.464 1.491 1.491 0 0 0-1.488 1.464 1.475 1.475 0 0 0 1.488 1.464 1.435 1.435 0 0 0 1.441-1.463zm-2.5 16.683h2.065v-12h-2.065v12zm13.681-.168v-1.848a4.562 4.562 0 0 1-1.464.24c-1.3 0-1.992-.5-1.992-2.04V171.8h3.456v-1.9H266.7v-3.337h-2.065v3.337h-2.544v1.9h2.544v6.554a3.378 3.378 0 0 0 3.673 3.672 5.743 5.743 0 0 0 1.846-.293zm3.839.168h2.064v-5.953c0-2.808 1.537-4.393 3.481-4.393 1.68 0 2.833 1.249 2.833 3.265v7.081h2.04v-7.393c0-2.977-1.848-4.849-4.537-4.849a4.245 4.245 0 0 0-3.817 2.088V163.9h-2.064v18zm28.489-.168v-1.848a4.564 4.564 0 0 1-1.465.24c-1.3 0-1.992-.5-1.992-2.04V171.8h3.457v-1.9h-3.457v-3.337h-2.064v3.337h-2.545v1.9h2.545v6.554a3.378 3.378 0 0 0 3.672 3.672 5.749 5.749 0 0 0 1.852-.293zm3.838.168h2.065v-5.953c0-2.808 1.536-4.393 3.48-4.393 1.681 0 2.833 1.249 2.833 3.265v7.081h2.04v-7.393c0-2.977-1.848-4.849-4.536-4.849a4.244 4.244 0 0 0-3.817 2.088V163.9h-2.062v18zm14.4-6a6.328 6.328 0 0 0 11.618 3.385l-1.632-1.128a4.25 4.25 0 0 1-7.9-1.849h9.842a5.856 5.856 0 0 0 .024-.624c-.024-3.841-2.568-6.025-5.713-6.025a6.081 6.081 0 0 0-6.236 6.241zm6.169-4.417a3.592 3.592 0 0 1 3.673 3.145h-7.61a3.925 3.925 0 0 1 3.94-3.145zm27.865 7.442l-1.8-1.008a4.068 4.068 0 0 1-3.744 2.3 4.323 4.323 0 0 1 0-8.642 4.067 4.067 0 0 1 3.744 2.3l1.8-1.008a6.215 6.215 0 0 0-5.545-3.217 6.241 6.241 0 1 0 0 12.482 6.216 6.216 0 0 0 5.548-3.207zm2.925-3.025a6.006 6.006 0 0 0 5.881 6.241 5.263 5.263 0 0 0 4.225-2.088v1.847h2.065v-12h-2.065v1.848a5.263 5.263 0 0 0-4.225-2.088 6.006 6.006 0 0 0-5.878 6.24zm10.274 0a4.1 4.1 0 1 1-4.081-4.345 4.1 4.1 0 0 1 4.084 4.345zm6.982 11.018H377v-6.865a5.266 5.266 0 0 0 4.225 2.088 6.252 6.252 0 0 0 0-12.482 5.266 5.266 0 0 0-4.225 2.088V169.9h-2.064v17.019zm10.061-11.018a4.089 4.089 0 1 1-4.081-4.345 4.1 4.1 0 0 1 4.081 4.345zm12.576 5.833v-1.848a4.568 4.568 0 0 1-1.465.24c-1.3 0-1.992-.5-1.992-2.04V171.8h3.457v-1.9h-3.457v-3.337h-2.065v3.337H389.5v1.9h2.544v6.554a3.379 3.379 0 0 0 3.673 3.672 5.754 5.754 0 0 0 1.852-.293zm6.335-16.515a1.45 1.45 0 0 0-1.441-1.464 1.491 1.491 0 0 0-1.488 1.464 1.475 1.475 0 0 0 1.488 1.464 1.435 1.435 0 0 0 1.437-1.464zm-2.5 16.683h2.065v-12h-2.065v12zm18.77-6a6.277 6.277 0 1 0-6.265 6.241 6.159 6.159 0 0 0 6.268-6.242zm-10.442 0a4.168 4.168 0 1 1 4.177 4.321 4.126 4.126 0 0 1-4.174-4.322zm14.592 6h2.064v-5.953c0-2.808 1.536-4.393 3.481-4.393 1.68 0 2.832 1.249 2.832 3.265v7.08h2.041v-7.393c0-2.977-1.849-4.849-4.537-4.849a4.245 4.245 0 0 0-3.817 2.088V169.9h-2.064v12zm21.743-13.082a2.034 2.034 0 0 0-.312 1.08 1.777 1.777 0 1 0 3.553 0 1.829 1.829 0 0 0-.985-1.608l1.609-3.433h-1.368zm4.465 0a2.034 2.034 0 0 0-.312 1.08 1.777 1.777 0 1 0 3.553 0 1.829 1.829 0 0 0-.985-1.608l1.609-3.433h-1.369zm8.159 13.082h4.9c5.233 0 9.074-3.648 9.074-8.521s-3.841-8.522-9.074-8.522h-4.9V181.9zm2.232-2.088v-12.867h2.665c4.105 0 6.817 2.737 6.817 6.434s-2.712 6.433-6.817 6.433h-2.665zm18.337-14.595a1.45 1.45 0 0 0-1.441-1.464 1.491 1.491 0 0 0-1.488 1.464 1.475 1.475 0 0 0 1.488 1.464 1.435 1.435 0 0 0 1.444-1.464zm-2.5 16.683h2.064v-12h-2.064v12zm14.953-3.336c0-1.8-1.128-2.953-3.168-3.625l-1.3-.432c-1.416-.456-1.848-.912-1.848-1.68 0-.889.888-1.393 2.017-1.393a3.24 3.24 0 0 1 2.544 1.249l1.344-1.3a4.654 4.654 0 0 0-3.84-1.728c-2.377 0-4.057 1.32-4.057 3.265 0 1.68 1.032 2.856 2.976 3.48l1.177.384c1.56.5 2.136 1.081 2.136 1.921 0 1.032-.936 1.632-2.112 1.632a3.221 3.221 0 0 1-3.073-1.9l-1.68.912a4.767 4.767 0 0 0 4.7 2.784c2.438.007 4.19-1.217 4.19-3.569zm10.512 3.168v-1.848a4.562 4.562 0 0 1-1.464.24c-1.3 0-1.993-.5-1.993-2.04V171.8h3.457v-1.9h-3.457v-3.337h-2.058v3.337h-2.545v1.9h2.545v6.554a3.378 3.378 0 0 0 3.673 3.672 5.743 5.743 0 0 0 1.848-.293zm6.335-16.515a1.449 1.449 0 0 0-1.44-1.464 1.492 1.492 0 0 0-1.489 1.464 1.476 1.476 0 0 0 1.489 1.464 1.434 1.434 0 0 0 1.446-1.464zm-2.5 16.683h2.064v-12h-2.054v12zm7.175 0h2.065v-5.953c0-2.808 1.536-4.393 3.481-4.393 1.68 0 2.832 1.249 2.832 3.265v7.08h2.041v-7.393c0-2.977-1.849-4.849-4.537-4.849a4.244 4.244 0 0 0-3.817 2.088V169.9h-2.065v12zm26.523-.7V169.9H537.7v1.848a5.106 5.106 0 0 0-4.177-2.088 6.114 6.114 0 0 0 0 12.218 5.125 5.125 0 0 0 4.177-2.112v1.368a3.836 3.836 0 0 1-4.009 4.153 5.137 5.137 0 0 1-4.2-2.016l-1.44 1.44a7.126 7.126 0 0 0 5.665 2.448c3.411-.001 6.052-1.945 6.052-5.954zm-10.011-5.449a4.059 4.059 0 1 1 4.057 4.2 4 4 0 0 1-4.047-4.196zm14.928 1.512c0 2.977 1.776 4.873 4.417 4.873a4.131 4.131 0 0 0 3.7-2.088v1.851h2.064v-12H552.8v5.953c0 2.761-1.465 4.393-3.337 4.393-1.656 0-2.713-1.272-2.713-3.289V169.9h-2.064v7.369zm17.76-12.05a1.449 1.449 0 0 0-1.44-1.464 1.491 1.491 0 0 0-1.488 1.464 1.475 1.475 0 0 0 1.488 1.464 1.434 1.434 0 0 0 1.45-1.46zm-2.5 16.683h2.064v-12h-2.064v12zm14.953-3.336c0-1.8-1.128-2.953-3.168-3.625l-1.3-.432c-1.416-.456-1.848-.912-1.848-1.68 0-.889.888-1.393 2.016-1.393a3.24 3.24 0 0 1 2.545 1.249l1.344-1.3a4.654 4.654 0 0 0-3.841-1.728c-2.376 0-4.057 1.32-4.057 3.265 0 1.68 1.033 2.856 2.977 3.48l1.176.384c1.561.5 2.137 1.081 2.137 1.921 0 1.032-.936 1.632-2.113 1.632a3.221 3.221 0 0 1-3.072-1.9l-1.681.912a4.769 4.769 0 0 0 4.705 2.784c2.442.011 4.192-1.213 4.192-3.565zm4.15 3.336h2.065v-5.953c0-2.808 1.536-4.393 3.481-4.393 1.68 0 2.832 1.249 2.832 3.265v7.084h2.041v-7.393c0-2.977-1.849-4.849-4.537-4.849a4.244 4.244 0 0 0-3.817 2.088V163.9h-2.065v18zm14.4-6a6.328 6.328 0 0 0 11.618 3.385l-1.632-1.128a4.25 4.25 0 0 1-7.9-1.849h9.842a5.856 5.856 0 0 0 .024-.624c-.024-3.841-2.568-6.025-5.713-6.025a6.081 6.081 0 0 0-6.225 6.244zm6.169-4.417a3.591 3.591 0 0 1 3.673 3.145h-7.61a3.925 3.925 0 0 1 3.951-3.142zm8.993 4.42a6.005 6.005 0 0 0 5.881 6.241 5.264 5.264 0 0 0 4.225-2.088v1.847h2.064v-18h-2.07v7.849a5.264 5.264 0 0 0-4.225-2.088 6.005 6.005 0 0 0-5.875 6.239zm10.274 0a4.1 4.1 0 1 1-4.081-4.345 4.1 4.1 0 0 1 4.077 4.345zm14.037 6h2.065v-5.953c0-2.808 1.656-4.129 3.169-4.129a3.017 3.017 0 0 1 1.128.192v-2.136a4.276 4.276 0 0 0-.936-.1 3.57 3.57 0 0 0-3.361 2.448V169.9h-2.065v12zm8.64-6a6.006 6.006 0 0 0 5.881 6.241 5.263 5.263 0 0 0 4.225-2.088v1.847h2.065v-12h-2.065v1.848a5.263 5.263 0 0 0-4.225-2.088 6.006 6.006 0 0 0-5.885 6.24zm10.274 0a4.1 4.1 0 1 1-4.08-4.345 4.1 4.1 0 0 1 4.076 4.345zm9.479-10.682a1.45 1.45 0 0 0-1.441-1.464 1.491 1.491 0 0 0-1.488 1.464 1.475 1.475 0 0 0 1.488 1.464 1.435 1.435 0 0 0 1.437-1.464zM658.8 181.9h2.065v-12H658.8v12zm7.176 0h2.064v-5.953c0-2.808 1.537-4.393 3.481-4.393 1.681 0 2.833 1.249 2.833 3.265v7.081h2.04v-7.393c0-2.977-1.848-4.849-4.537-4.849a4.246 4.246 0 0 0-3.817 2.088V169.9h-2.064v12zm33.578-.7v-11.3h-2.065v1.848a5.106 5.106 0 0 0-4.176-2.088 6.114 6.114 0 0 0 0 12.218 5.124 5.124 0 0 0 4.176-2.112v1.368a3.836 3.836 0 0 1-4.008 4.153 5.134 5.134 0 0 1-4.2-2.016l-1.441 1.44a7.128 7.128 0 0 0 5.666 2.448c3.41-.001 6.051-1.945 6.051-5.954zm-10.01-5.449a4.059 4.059 0 1 1 4.057 4.2 4 4 0 0 1-4.054-4.195zm14.159.144a6.328 6.328 0 0 0 11.619 3.385l-1.633-1.128a4.249 4.249 0 0 1-7.9-1.849h9.842a5.856 5.856 0 0 0 .024-.624c-.024-3.841-2.569-6.025-5.714-6.025a6.082 6.082 0 0 0-6.235 6.246zm6.169-4.417a3.591 3.591 0 0 1 3.673 3.145h-7.609a3.924 3.924 0 0 1 3.939-3.14zm8.975 4.417a6.005 6.005 0 0 0 5.881 6.241 5.264 5.264 0 0 0 4.225-2.088v1.852h2.065v-12h-2.065v1.848a5.264 5.264 0 0 0-4.225-2.088 6.005 6.005 0 0 0-5.878 6.24zm10.274 0a4.1 4.1 0 1 1-4.081-4.345 4.1 4.1 0 0 1 4.084 4.35zm6.982 6h2.064v-5.953c0-2.808 1.657-4.129 3.169-4.129a3.017 3.017 0 0 1 1.128.192v-2.136a4.276 4.276 0 0 0-.936-.1 3.571 3.571 0 0 0-3.361 2.448V169.9h-2.064v12zm11.233-.528a2.052 2.052 0 0 0 .336-1.08 1.777 1.777 0 1 0-3.553 0 1.786 1.786 0 0 0 .984 1.608l-1.608 3.433h1.368zm-702.491 12.65a1.45 1.45 0 0 0-1.44-1.464 1.491 1.491 0 0 0-1.488 1.464 1.475 1.475 0 0 0 1.488 1.465 1.435 1.435 0 0 0 1.44-1.465zm-2.5 16.684h2.065v-12h-2.062v12zm7.176 0h2.064v-5.954c0-2.808 1.536-4.392 3.481-4.392 1.68 0 2.833 1.248 2.833 3.264v7.081h2.041v-7.394c0-2.976-1.848-4.849-4.537-4.849a4.243 4.243 0 0 0-3.817 2.089V198.7h-2.062v12zm14.4-6a6.007 6.007 0 0 0 5.881 6.242 5.265 5.265 0 0 0 4.225-2.089v1.846h2.064v-18H74.03v7.85a5.262 5.262 0 0 0-4.225-2.089 6.006 6.006 0 0 0-5.881 6.239zm10.274 0a4.1 4.1 0 1 1-4.081-4.344A4.1 4.1 0 0 1 74.2 204.7zm6.046 0a6.328 6.328 0 0 0 11.618 3.385l-1.632-1.128a4.25 4.25 0 0 1-7.9-1.849h9.842a5.856 5.856 0 0 0 .024-.624c-.024-3.84-2.568-6.025-5.713-6.025a6.082 6.082 0 0 0-6.237 6.24zm6.169-4.416a3.591 3.591 0 0 1 3.673 3.144h-7.61a3.924 3.924 0 0 1 3.94-3.146zm8.975 4.416a6.328 6.328 0 0 0 11.619 3.385l-1.633-1.128a4.25 4.25 0 0 1-7.9-1.849h9.842a5.856 5.856 0 0 0 .024-.624c-.024-3.84-2.569-6.025-5.713-6.025a6.082 6.082 0 0 0-6.237 6.24zm6.17-4.416a3.59 3.59 0 0 1 3.672 3.144H97.62a3.924 3.924 0 0 1 3.937-3.146zm8.974 4.416a6.007 6.007 0 0 0 5.881 6.242 5.264 5.264 0 0 0 4.225-2.089v1.846h2.065v-18h-2.065v7.85a5.261 5.261 0 0 0-4.225-2.089 6.006 6.006 0 0 0-5.879 6.239zm10.274 0a4.1 4.1 0 1 1-4.081-4.344 4.1 4.1 0 0 1 4.083 4.343zm9.839 4.393a1.777 1.777 0 1 0-1.777 1.8 1.809 1.809 0 0 0 1.779-1.802zm4.56-12.842a2.121 2.121 0 0 0 .336-1.08 1.789 1.789 0 1 0-3.577 0 1.86 1.86 0 0 0 .984 1.608l-1.608 3.433h1.392zm4.465 0a2.121 2.121 0 0 0 .336-1.08 1.789 1.789 0 1 0-3.577 0 1.86 1.86 0 0 0 .984 1.608l-1.608 3.433h1.398zm10.2 11.666c.889 1.752 3.169 3.073 5.978 3.073 3.168 0 5.425-1.825 5.425-4.729 0-2.521-1.44-3.961-3.961-4.921l-2.064-.792c-1.729-.649-2.569-1.3-2.569-2.737 0-1.416 1.392-2.352 3.073-2.352a4.217 4.217 0 0 1 3.384 1.68l1.633-1.44a6.215 6.215 0 0 0-4.969-2.329c-3.049 0-5.329 1.753-5.329 4.537 0 2.329 1.2 3.721 3.864 4.7l2.257.864c1.584.6 2.448 1.512 2.448 2.881 0 1.584-1.392 2.544-3.144 2.544a4.762 4.762 0 0 1-4.225-2.328zm18.049-13.9a1.449 1.449 0 0 0-1.44-1.464 1.492 1.492 0 0 0-1.489 1.464 1.476 1.476 0 0 0 1.489 1.465 1.435 1.435 0 0 0 1.439-1.466zm-2.5 16.684h2.064v-12h-2.064v12zm7.175 0h2.065v-5.954c0-2.808 1.536-4.392 3.481-4.392 1.68 0 2.832 1.248 2.832 3.264v7.08h2.041v-7.394c0-2.976-1.849-4.849-4.537-4.849a4.243 4.243 0 0 0-3.817 2.089V198.7h-2.065v12zm26.234-2.977l-1.8-1.008a4.068 4.068 0 0 1-3.745 2.3 4.322 4.322 0 0 1 0-8.641 4.068 4.068 0 0 1 3.745 2.3l1.8-1.008a6.214 6.214 0 0 0-5.545-3.217 6.242 6.242 0 1 0 0 12.483 6.216 6.216 0 0 0 5.548-3.21zm2.926-3.025a6.327 6.327 0 0 0 11.618 3.385l-1.632-1.128a4.25 4.25 0 0 1-7.9-1.849h9.842a5.856 5.856 0 0 0 .024-.624c-.024-3.84-2.568-6.025-5.713-6.025a6.082 6.082 0 0 0-6.236 6.241zm6.169-4.416a3.591 3.591 0 0 1 3.673 3.144h-7.61a3.924 3.924 0 0 1 3.94-3.145zm23.064 10.249v-1.848a4.564 4.564 0 0 1-1.465.24c-1.3 0-1.992-.5-1.992-2.04V200.6h3.457v-1.9h-3.454v-3.336h-2.064v3.336h-2.545v1.9h2.545v6.553a3.379 3.379 0 0 0 3.672 3.673 5.715 5.715 0 0 0 1.849-.294zm3.838.169h2.065v-5.954c0-2.808 1.536-4.392 3.481-4.392 1.68 0 2.832 1.248 2.832 3.264v7.08h2.041v-7.394c0-2.976-1.849-4.849-4.537-4.849a4.243 4.243 0 0 0-3.817 2.089V192.7h-2.065v18zm14.4-6a6.327 6.327 0 0 0 11.618 3.385l-1.632-1.128a4.25 4.25 0 0 1-7.9-1.849h9.842a5.856 5.856 0 0 0 .024-.624c-.024-3.84-2.568-6.025-5.713-6.025a6.082 6.082 0 0 0-6.236 6.239zm6.169-4.416a3.591 3.591 0 0 1 3.673 3.144h-7.61a3.924 3.924 0 0 1 3.94-3.147zm9.911 10.418h2.064v-5.954c0-2.808 1.537-4.392 3.481-4.392 1.68 0 2.833 1.248 2.833 3.264v7.078h2.04v-7.394c0-2.976-1.848-4.849-4.537-4.849a4.245 4.245 0 0 0-3.817 2.089V198.7h-2.064v12zm17.9-.529a2.052 2.052 0 0 0 .336-1.08 1.776 1.776 0 1 0-3.552 0 1.789 1.789 0 0 0 .984 1.609l-1.609 3.432h1.369zm17.929.36v-1.848a4.564 4.564 0 0 1-1.465.24c-1.3 0-1.992-.5-1.992-2.04V200.6h3.457v-1.9h-3.457v-3.336h-2.064v3.336h-2.545v1.9h2.545v6.553a3.379 3.379 0 0 0 3.672 3.673 5.72 5.72 0 0 0 1.856-.294zm3.838.169h2.065v-5.954c0-2.808 1.536-4.392 3.48-4.392 1.681 0 2.833 1.248 2.833 3.264v7.078h2.04v-7.394c0-2.976-1.848-4.849-4.536-4.849a4.243 4.243 0 0 0-3.817 2.089V192.7h-2.065v18zm14.4-6a6.327 6.327 0 0 0 11.618 3.385l-1.632-1.128a4.25 4.25 0 0 1-7.9-1.849h9.842a5.856 5.856 0 0 0 .024-.624c-.024-3.84-2.568-6.025-5.713-6.025a6.082 6.082 0 0 0-6.232 6.237zm6.169-4.416a3.591 3.591 0 0 1 3.673 3.144h-7.61a3.924 3.924 0 0 1 3.944-3.149zm23.064 10.249v-1.848a4.562 4.562 0 0 1-1.464.24c-1.3 0-1.993-.5-1.993-2.04V200.6h3.457v-1.9h-3.457v-3.336h-2.064v3.336h-2.545v1.9h2.545v6.553a3.379 3.379 0 0 0 3.673 3.673 5.713 5.713 0 0 0 1.855-.294zm3.839.169h2.064v-5.954c0-2.808 1.656-4.128 3.169-4.128a3.017 3.017 0 0 1 1.128.192v-2.137a4.276 4.276 0 0 0-.936-.1 3.57 3.57 0 0 0-3.361 2.449V198.7h-2.064v12zm8.615-6a6.328 6.328 0 0 0 11.619 3.385l-1.632-1.128a4.25 4.25 0 0 1-7.9-1.849h9.842a5.856 5.856 0 0 0 .024-.624c-.024-3.84-2.568-6.025-5.713-6.025a6.083 6.083 0 0 0-6.233 6.235zm6.17-4.416a3.591 3.591 0 0 1 3.673 3.144H363.3a3.923 3.923 0 0 1 3.933-3.151zm9.911 10.418h2.064v-5.954c0-2.808 1.536-4.392 3.481-4.392 1.68 0 2.832 1.248 2.832 3.264v7.074h2.041v-7.394c0-2.976-1.849-4.849-4.537-4.849a4.243 4.243 0 0 0-3.817 2.089V198.7h-2.064v12zm26.234-2.977l-1.8-1.008a4.068 4.068 0 0 1-3.745 2.3 4.322 4.322 0 0 1 0-8.641 4.068 4.068 0 0 1 3.745 2.3l1.8-1.008a6.216 6.216 0 0 0-5.546-3.217 6.242 6.242 0 1 0 0 12.483 6.218 6.218 0 0 0 5.553-3.216zm3.861 2.977h2.068v-5.954c0-2.808 1.537-4.392 3.481-4.392 1.681 0 2.833 1.248 2.833 3.264v7.074h2.04v-7.394c0-2.976-1.848-4.849-4.537-4.849a4.245 4.245 0 0 0-3.817 2.089V192.7h-2.064v18zm22.391 0h2.077v-5.954c0-2.808 1.536-4.392 3.481-4.392 1.68 0 2.832 1.248 2.832 3.264v7.074h2.041v-7.394c0-2.976-1.849-4.849-4.537-4.849a4.243 4.243 0 0 0-3.817 2.089V192.7h-2.07v18zm14.4-6a6.006 6.006 0 0 0 5.881 6.242 5.264 5.264 0 0 0 4.225-2.089v1.839h2.071v-12h-2.065v1.849a5.261 5.261 0 0 0-4.225-2.089 6.006 6.006 0 0 0-5.88 6.24zm10.274 0a4.1 4.1 0 1 1-4.081-4.344 4.1 4.1 0 0 1 4.084 4.336zm14.76 2.665c0-1.8-1.129-2.953-3.169-3.625l-1.3-.432c-1.417-.456-1.849-.912-1.849-1.68 0-.888.888-1.392 2.017-1.392a3.242 3.242 0 0 1 2.544 1.248l1.344-1.3a4.652 4.652 0 0 0-3.84-1.729c-2.377 0-4.057 1.32-4.057 3.265 0 1.68 1.032 2.856 2.976 3.48l1.177.385c1.56.5 2.136 1.08 2.136 1.92 0 1.032-.936 1.632-2.112 1.632a3.221 3.221 0 0 1-3.073-1.9l-1.68.912a4.768 4.768 0 0 0 4.7 2.785c2.44-.001 4.193-1.226 4.193-3.578zm13.27 1.488a5.264 5.264 0 0 0 4.225 2.089 6.253 6.253 0 0 0 0-12.483 5.261 5.261 0 0 0-4.225 2.089V192.7h-2.065v18h2.065v-1.849zm7.994-4.153a4.089 4.089 0 1 1-4.081-4.344 4.1 4.1 0 0 1 4.088 4.336zm5.325 0a6.327 6.327 0 0 0 11.618 3.385l-1.632-1.128a4.25 4.25 0 0 1-7.9-1.849h9.842a5.623 5.623 0 0 0 .025-.624c-.025-3.84-2.569-6.025-5.714-6.025a6.083 6.083 0 0 0-6.232 6.233zm6.169-4.416a3.591 3.591 0 0 1 3.673 3.144h-7.61a3.925 3.925 0 0 1 3.944-3.153zm20.809 7.441l-1.8-1.008a4.068 4.068 0 0 1-3.745 2.3 4.322 4.322 0 0 1 0-8.641 4.068 4.068 0 0 1 3.745 2.3l1.8-1.008a6.214 6.214 0 0 0-5.545-3.217 6.242 6.242 0 1 0 0 12.483 6.216 6.216 0 0 0 5.552-3.218zm15.456-3.025a6.277 6.277 0 1 0-6.265 6.242 6.159 6.159 0 0 0 6.272-6.25zm-10.442 0a4.168 4.168 0 1 1 4.177 4.321 4.125 4.125 0 0 1-4.17-4.329zm14.591 6h2.071v-5.954c0-2.712 1.368-4.392 3.313-4.392 1.56 0 2.352 1.344 2.352 3.288v7.05h2.065v-5.954c0-2.712 1.344-4.392 3.288-4.392 1.561 0 2.377 1.344 2.377 3.288v7.058h2.064v-7.37c0-2.928-1.584-4.873-4.2-4.873a4.155 4.155 0 0 0-3.937 2.569 3.772 3.772 0 0 0-3.7-2.569 4.033 4.033 0 0 0-3.625 2.089V198.7h-2.065v12zm21.5-6a6.328 6.328 0 0 0 11.619 3.385l-1.633-1.128a4.249 4.249 0 0 1-7.9-1.849h9.842a5.856 5.856 0 0 0 .024-.624c-.024-3.84-2.569-6.025-5.714-6.025a6.083 6.083 0 0 0-6.227 6.233zm6.169-4.416a3.591 3.591 0 0 1 3.673 3.144h-7.609a3.923 3.923 0 0 1 3.947-3.153zm16.042 4.408a6.006 6.006 0 0 0 5.881 6.242 5.265 5.265 0 0 0 4.225-2.089v1.847h2.064v-12h-2.064v1.849a5.262 5.262 0 0 0-4.225-2.089 6.006 6.006 0 0 0-5.881 6.24zm10.274 0a4.1 4.1 0 1 1-4.081-4.344 4.1 4.1 0 0 1 4.081 4.344zm14.037 6h2.065v-5.954c0-2.808 1.536-4.392 3.48-4.392 1.681 0 2.833 1.248 2.833 3.264v7.082h2.041v-7.394c0-2.976-1.849-4.849-4.537-4.849a4.243 4.243 0 0 0-3.817 2.089V192.7h-2.065v18zm14.4-6a6.006 6.006 0 0 0 5.881 6.242 5.265 5.265 0 0 0 4.225-2.089v1.847h2.064v-12h-2.064v1.849a5.262 5.262 0 0 0-4.225-2.089 6.006 6.006 0 0 0-5.881 6.24zm10.274 0a4.1 4.1 0 1 1-4.081-4.344 4.1 4.1 0 0 1 4.081 4.344zm6.982 6h2.064v-18h-2.064v18zm7.176 0h2.064v-18h-2.064v18zm7.175 0h2.065v-5.954c0-2.712 1.368-4.392 3.313-4.392 1.56 0 2.352 1.344 2.352 3.288v7.058h2.065v-5.954c0-2.712 1.344-4.392 3.288-4.392 1.561 0 2.377 1.344 2.377 3.288v7.058h2.064v-7.37c0-2.928-1.584-4.873-4.2-4.873a4.155 4.155 0 0 0-3.937 2.569 3.772 3.772 0 0 0-3.7-2.569 4.033 4.033 0 0 0-3.625 2.089V198.7h-2.065v12zm21.5-6a6.007 6.007 0 0 0 5.881 6.242 5.264 5.264 0 0 0 4.225-2.089v1.847h2.065v-12h-2.065v1.849a5.261 5.261 0 0 0-4.225-2.089 6.006 6.006 0 0 0-5.877 6.24zm10.274 0a4.1 4.1 0 1 1-4.081-4.344 4.1 4.1 0 0 1 4.085 4.344zm6.982 6h2.064v-5.954c0-2.808 1.657-4.128 3.169-4.128a3.017 3.017 0 0 1 1.128.192v-2.137a4.276 4.276 0 0 0-.936-.1 3.572 3.572 0 0 0-3.361 2.449V198.7h-2.064v12zm9.984 0h2.064v-6l6.506 6h2.784l-7.225-6.7 5.9-5.3H712.3l-5.234 4.681V192.7H705v18zM53.943 233.5a6.277 6.277 0 1 0-6.265 6.241 6.16 6.16 0 0 0 6.265-6.241zm-10.442 0a4.168 4.168 0 1 1 4.177 4.32 4.125 4.125 0 0 1-4.178-4.32zm15.408 6h2.065v-10.106h3.481v-1.9h-3.482v-2.209c0-1.512.672-2.04 1.992-2.04a4.834 4.834 0 0 1 1.488.24v-1.825a5.456 5.456 0 0 0-1.872-.312 3.428 3.428 0 0 0-3.673 3.721v2.431h-2.544v1.9h2.544v10.1zm14.5-6a6.328 6.328 0 0 0 11.618 3.384l-1.632-1.128a4.25 4.25 0 0 1-7.9-1.848h9.842a5.856 5.856 0 0 0 .024-.624c-.024-3.841-2.569-6.026-5.713-6.026A6.083 6.083 0 0 0 73.4 233.5zm6.169-4.417a3.591 3.591 0 0 1 3.673 3.144h-7.61a3.924 3.924 0 0 1 3.932-3.145zm8.975 4.417a6.006 6.006 0 0 0 5.881 6.241 5.262 5.262 0 0 0 4.225-2.089v1.848h2.064v-12h-2.069v1.848a5.264 5.264 0 0 0-4.225-2.089 6.006 6.006 0 0 0-5.881 6.241zm10.274 0a4.1 4.1 0 1 1-4.081-4.345 4.1 4.1 0 0 1 4.076 4.345zm17.88 3.024l-1.8-1.008a4.068 4.068 0 0 1-3.744 2.3 4.322 4.322 0 0 1 0-8.641 4.068 4.068 0 0 1 3.744 2.3l1.8-1.008a6.217 6.217 0 0 0-5.545-3.217 6.242 6.242 0 1 0 0 12.483 6.215 6.215 0 0 0 5.538-3.21zm3.861 2.977h2.065v-5.953c0-2.809 1.536-4.393 3.48-4.393 1.681 0 2.833 1.248 2.833 3.264v7.081h2.04v-7.394c0-2.976-1.848-4.849-4.537-4.849a4.244 4.244 0 0 0-3.816 2.089V221.5h-2.065v18zm33.29-2.977l-1.8-1.008a4.07 4.07 0 0 1-3.745 2.3 4.322 4.322 0 0 1 0-8.641 4.07 4.07 0 0 1 3.745 2.3l1.8-1.008a6.217 6.217 0 0 0-5.545-3.217 6.242 6.242 0 1 0 0 12.483 6.215 6.215 0 0 0 5.54-3.21zm15.456-3.024a6.278 6.278 0 1 0-6.266 6.241 6.16 6.16 0 0 0 6.261-6.241zm-10.442 0a4.167 4.167 0 1 1 4.176 4.32 4.125 4.125 0 0 1-4.181-4.32zm14.591 6h2.064v-18h-2.064v18zm7.176 0h2.061v-18h-2.064v18zm6.239-6a6.328 6.328 0 0 0 11.619 3.384l-1.632-1.128a4.25 4.25 0 0 1-7.9-1.848h9.835a5.856 5.856 0 0 0 .024-.624c-.024-3.841-2.569-6.026-5.713-6.026a6.083 6.083 0 0 0-6.238 6.242zm6.17-4.417a3.592 3.592 0 0 1 3.673 3.144h-7.61a3.923 3.923 0 0 1 3.932-3.145zm20.809 7.441l-1.8-1.008a4.068 4.068 0 0 1-3.744 2.3 4.322 4.322 0 0 1 0-8.641 4.068 4.068 0 0 1 3.744 2.3l1.8-1.008a6.217 6.217 0 0 0-5.545-3.217 6.242 6.242 0 1 0 0 12.483 6.215 6.215 0 0 0 5.54-3.21zm10.367 2.809v-1.849a4.573 4.573 0 0 1-1.465.24c-1.3 0-1.992-.5-1.992-2.04v-6.289h3.457v-1.9h-3.457v-3.337H218.7v3.342h-2.544v1.9h2.544v6.553a3.379 3.379 0 0 0 3.673 3.673 5.754 5.754 0 0 0 1.846-.294zm6.335-16.515a1.45 1.45 0 0 0-1.441-1.465 1.491 1.491 0 0 0-1.488 1.465 1.475 1.475 0 0 0 1.488 1.464 1.435 1.435 0 0 0 1.436-1.465zm-2.5 16.683h2.065v-12h-2.065v12zm18.77-6a6.277 6.277 0 1 0-6.265 6.241 6.159 6.159 0 0 0 6.263-6.242zm-10.442 0a4.168 4.168 0 1 1 4.177 4.32 4.126 4.126 0 0 1-4.179-4.321zm14.592 6h2.064v-5.953c0-2.809 1.536-4.393 3.481-4.393 1.68 0 2.832 1.248 2.832 3.264v7.081h2.044v-7.394c0-2.976-1.849-4.849-4.537-4.849a4.246 4.246 0 0 0-3.817 2.089V227.5h-2.064v12zm14.951-5.689h12.123v-2.065h-12.125v2.065zm15.888-.312a6.006 6.006 0 0 0 5.881 6.241 5.261 5.261 0 0 0 4.225-2.089v1.848h2.065v-12h-2.065v1.848a5.264 5.264 0 0 0-4.225-2.089 6.007 6.007 0 0 0-5.883 6.241zm10.274 0a4.1 4.1 0 1 1-4.081-4.345 4.1 4.1 0 0 1 4.079 4.345zm6.982 6h2.064v-5.953c0-2.809 1.537-4.393 3.481-4.393 1.681 0 2.833 1.248 2.833 3.264v7.082h2.04v-7.394c0-2.976-1.848-4.849-4.537-4.849a4.247 4.247 0 0 0-3.817 2.089V227.5h-2.064v12zm14.4-6a6.006 6.006 0 0 0 5.881 6.241 5.262 5.262 0 0 0 4.225-2.089v1.848h2.064v-18h-2.064v7.85a5.265 5.265 0 0 0-4.225-2.089 6.006 6.006 0 0 0-5.883 6.239zm10.274 0a4.1 4.1 0 1 1-4.081-4.345 4.1 4.1 0 0 1 4.079 4.345zm16.726-10.682a1.45 1.45 0 0 0-1.441-1.465 1.491 1.491 0 0 0-1.488 1.465 1.475 1.475 0 0 0 1.488 1.464 1.435 1.435 0 0 0 1.439-1.465zm-.434 4.682h-2.065v13.346c0 1.536-.72 2.04-1.848 2.04a5.262 5.262 0 0 1-.7-.048v1.849a6.1 6.1 0 0 0 .984.072 3.366 3.366 0 0 0 3.625-3.673V227.5zm4.943 7.369c0 2.976 1.776 4.873 4.417 4.873a4.13 4.13 0 0 0 3.7-2.089v1.847h2.064v-12H353.1v5.953c0 2.76-1.465 4.392-3.337 4.392-1.656 0-2.713-1.272-2.713-3.288V227.5h-2.064v7.369zm23.041 1.3c0-1.8-1.128-2.952-3.168-3.625l-1.3-.432c-1.416-.456-1.848-.912-1.848-1.68 0-.888.888-1.392 2.017-1.392a3.242 3.242 0 0 1 2.544 1.248l1.344-1.3a4.655 4.655 0 0 0-3.84-1.729c-2.377 0-4.057 1.321-4.057 3.265 0 1.68 1.032 2.857 2.976 3.481l1.177.384c1.56.5 2.136 1.08 2.136 1.92 0 1.032-.936 1.632-2.112 1.632a3.221 3.221 0 0 1-3.073-1.9l-1.68.912a4.766 4.766 0 0 0 4.705 2.785c2.427.002 4.179-1.222 4.179-3.575zm10.512 3.169v-1.849a4.562 4.562 0 0 1-1.464.24c-1.3 0-1.993-.5-1.993-2.04V229.4h3.457v-1.9h-3.457v-3.337h-2.064v3.337h-2.545v1.9h2.545v6.553a3.378 3.378 0 0 0 3.673 3.673 5.743 5.743 0 0 0 1.848-.294zm22.081-.528V227.5h-2.065v1.848a5.107 5.107 0 0 0-4.177-2.089 6.115 6.115 0 0 0 0 12.219 5.123 5.123 0 0 0 4.177-2.113v1.369a3.836 3.836 0 0 1-4.009 4.152 5.137 5.137 0 0 1-4.2-2.016l-1.44 1.44a7.124 7.124 0 0 0 5.665 2.449c3.408-.002 6.049-1.947 6.049-5.959zm-10.01-5.449a4.059 4.059 0 1 1 4.056 4.2 4 4 0 0 1-4.056-4.206zm14.159.144a6.327 6.327 0 0 0 11.618 3.384l-1.632-1.128a4.25 4.25 0 0 1-7.9-1.848h9.848a5.856 5.856 0 0 0 .024-.624c-.024-3.841-2.568-6.026-5.713-6.026a6.082 6.082 0 0 0-6.245 6.237zm6.169-4.417a3.591 3.591 0 0 1 3.673 3.144H407a3.924 3.924 0 0 1 3.935-3.15zm16.249 10.25v-1.849a4.573 4.573 0 0 1-1.465.24c-1.3 0-1.992-.5-1.992-2.04V229.4h3.457v-1.9h-3.457v-3.337h-2.065v3.337h-2.544v1.9h2.544v6.553a3.379 3.379 0 0 0 3.673 3.673 5.754 5.754 0 0 0 1.849-.294zm11.616-3.169c0-1.8-1.128-2.952-3.169-3.625l-1.3-.432c-1.416-.456-1.849-.912-1.849-1.68 0-.888.889-1.392 2.017-1.392a3.242 3.242 0 0 1 2.544 1.248l1.345-1.3a4.658 4.658 0 0 0-3.841-1.729c-2.377 0-4.057 1.321-4.057 3.265 0 1.68 1.032 2.857 2.977 3.481l1.176.384c1.56.5 2.136 1.08 2.136 1.92 0 1.032-.936 1.632-2.112 1.632a3.222 3.222 0 0 1-3.073-1.9l-1.68.912a4.766 4.766 0 0 0 4.7 2.785c2.433.002 4.186-1.222 4.186-3.575zm13.27 1.488a5.262 5.262 0 0 0 4.225 2.089 6.253 6.253 0 0 0 0-12.483 5.265 5.265 0 0 0-4.225 2.089V221.5h-2.064v18h2.064v-1.849zm7.994-4.152a4.089 4.089 0 1 1-4.081-4.345 4.1 4.1 0 0 1 4.081 4.34zm5.325 0a6.328 6.328 0 0 0 11.619 3.384l-1.633-1.128a4.249 4.249 0 0 1-7.9-1.848h9.842a5.856 5.856 0 0 0 .024-.624c-.024-3.841-2.569-6.026-5.714-6.026a6.083 6.083 0 0 0-6.238 6.237zm6.169-4.417a3.591 3.591 0 0 1 3.673 3.144h-7.609a3.923 3.923 0 0 1 3.936-3.15zm24.651 10.25v-1.849a4.568 4.568 0 0 1-1.465.24c-1.3 0-1.992-.5-1.992-2.04V229.4h3.457v-1.9h-3.457v-3.337h-2.065v3.337h-2.064v1.9h2.064v6.553a3.379 3.379 0 0 0 3.673 3.673 5.749 5.749 0 0 0 1.849-.294zm-8.4 0v-1.849a4.562 4.562 0 0 1-1.464.24c-1.3 0-1.993-.5-1.993-2.04V229.4h2.929v-1.9h-2.931v-3.337h-2.064v3.337h-2.545v1.9h2.545v6.553a3.378 3.378 0 0 0 3.672 3.673 5.744 5.744 0 0 0 1.849-.294zm11.134-5.833a6.328 6.328 0 0 0 11.619 3.384l-1.633-1.128a4.249 4.249 0 0 1-7.9-1.848h9.842a5.856 5.856 0 0 0 .024-.624c-.024-3.841-2.569-6.026-5.713-6.026a6.083 6.083 0 0 0-6.241 6.237zm6.17-4.417a3.59 3.59 0 0 1 3.672 3.144h-7.609a3.923 3.923 0 0 1 3.935-3.15zm9.91 10.418h2.065v-5.953c0-2.809 1.656-4.129 3.168-4.129a3.019 3.019 0 0 1 1.129.192v-2.136a4.222 4.222 0 0 0-.937-.1 3.571 3.571 0 0 0-3.36 2.449V227.5h-2.065v12zm26.187 0h1.824l4.081-12h-2.185l-2.9 8.761-3-8.761h-1.584l-3 8.761-2.9-8.761h-2.16l4.081 12h1.824l2.977-8.642zm11.83-16.683a1.45 1.45 0 0 0-1.441-1.465 1.491 1.491 0 0 0-1.488 1.465 1.475 1.475 0 0 0 1.488 1.464 1.435 1.435 0 0 0 1.439-1.47zm-2.5 16.683h2.064v-12h-2.064v12zm13.681-.168v-1.849a4.562 4.562 0 0 1-1.464.24c-1.3 0-1.993-.5-1.993-2.04V229.4h3.457v-1.9h-3.457v-3.337H558.7v3.337h-2.545v1.9h2.545v6.553a3.378 3.378 0 0 0 3.673 3.673 5.743 5.743 0 0 0 1.849-.294zm3.839.168h2.064v-5.953c0-2.809 1.536-4.393 3.481-4.393 1.68 0 2.833 1.248 2.833 3.264v7.076h2.04v-7.394c0-2.976-1.848-4.849-4.537-4.849a4.246 4.246 0 0 0-3.817 2.089V221.5h-2.064v18zm21.455-6a6.006 6.006 0 0 0 5.881 6.241 5.261 5.261 0 0 0 4.225-2.089v1.842h2.065v-12h-2.065v1.848a5.264 5.264 0 0 0-4.225-2.089 6.007 6.007 0 0 0-5.88 6.241zm10.274 0a4.1 4.1 0 1 1-4.081-4.345 4.1 4.1 0 0 1 4.082 4.339zm18.168 5.305V227.5h-2.064v1.848a5.109 5.109 0 0 0-4.177-2.089 6.115 6.115 0 0 0 0 12.219 5.124 5.124 0 0 0 4.177-2.113v1.369a3.837 3.837 0 0 1-4.009 4.152 5.136 5.136 0 0 1-4.2-2.016l-1.44 1.44a7.122 7.122 0 0 0 5.665 2.449c3.409-.002 6.049-1.947 6.049-5.959zm-10.01-5.449a4.059 4.059 0 1 1 4.057 4.2 4 4 0 0 1-4.056-4.207zm14.16.144a6.327 6.327 0 0 0 11.618 3.384l-1.632-1.128a4.25 4.25 0 0 1-7.9-1.848h9.842a5.856 5.856 0 0 0 .024-.624c-.024-3.841-2.568-6.026-5.713-6.026a6.082 6.082 0 0 0-6.238 6.236zm6.169-4.417a3.591 3.591 0 0 1 3.673 3.144h-7.61a3.923 3.923 0 0 1 3.938-3.151zm12.767 8.809a1.777 1.777 0 1 0-1.776 1.8 1.808 1.808 0 0 0 1.777-1.807z"/><path id="Rectangle_4_copy_8" data-name="Rectangle 4 copy 8" d="M39 307.375h122.406v3.687H39z"/><path id="Shop_now_copy_4" data-name="Shop now copy 4" class="cls-2" d="M44.217 300.465c2.706 0 4.564-1.653 4.582-4.022.018-1.966-1.19-3.215-3.048-3.894l-.9-.331c-1.353-.5-1.984-.808-1.984-1.506 0-.68.776-.992 1.551-.992a2.829 2.829 0 0 1 2.219 1.084l1.876-2.021a5.3 5.3 0 0 0-4.131-1.8c-2.561 0-4.419 1.488-4.419 4.023 0 1.781 1.154 3.049 3.229 3.765l.9.312c1.281.441 1.786.9 1.786 1.562 0 .624-.6 1.083-1.551 1.083a3.335 3.335 0 0 1-2.652-1.488l-2.2 1.892a5.58 5.58 0 0 0 4.742 2.333zm9.726-.22h2.867v-5.162h5.159v5.162h2.868V287.2h-2.868v5.106H56.81V287.2h-2.868v13.041zm22.66.22a6.742 6.742 0 1 0-6.62-6.741 6.7 6.7 0 0 0 6.617 6.741zm0-2.829a3.917 3.917 0 1 1 3.716-3.912 3.837 3.837 0 0 1-3.719 3.912zm20.622-5.969a4.4 4.4 0 0 0-4.51-4.463h-4.348v13.041h2.868v-4.133h1.479a4.385 4.385 0 0 0 4.51-4.445zm-2.778 0a1.7 1.7 0 0 1-1.768 1.708h-1.444v-3.416h1.443a1.689 1.689 0 0 1 1.768 1.708zm25.979 8.578V287.2h-2.886v8.045l-6.223-8.045h-2.472v13.041h2.869v-8.064l6.241 8.064h2.471zm11.765.22a6.742 6.742 0 1 0-6.62-6.741 6.7 6.7 0 0 0 6.619 6.741zm0-2.829a3.917 3.917 0 1 1 3.716-3.912 3.837 3.837 0 0 1-3.717 3.912zm21.686 2.609h2.723l2.976-13.041h-3.067l-1.749 8.265-3.608-8.486-3.589 8.486-1.75-8.265h-3.067l2.959 13.041h2.723l2.724-6.392z"/></svg>