<svg id="Copy_copy_2" data-name="Copy copy 2" xmlns="http://www.w3.org/2000/svg" width="768" height="263"><defs><style>.cls-2{fill-rule:evenodd}</style></defs><path id="Rectangle_109_copy_11" data-name="Rectangle 109 copy 11" fill="#fff" d="M0 0h768v263H0z"/><path id="PLUSH_WOOL-BLEND_DUSTER_Limited_availability._" data-name="PLUSH WOOL-BLEND DUSTER Limited availability." class="cls-2" d="M62.137 49.347a9.284 9.284 0 0 0-9.6-9.33h-9.253v27.261h6.105v-8.639h3.149a9.253 9.253 0 0 0 9.599-9.292zm-5.913 0a3.588 3.588 0 0 1-3.763 3.571h-3.072v-7.142h3.072a3.565 3.565 0 0 1 3.762 3.571zm11.75 17.931h17.394v-5.836H74.08V40.017h-6.106v27.261zm33.1.461c6.528 0 11.212-4.454 11.212-11.25V40.017h-6.105v16.549c0 3.264-2.073 5.26-5.107 5.26s-5.106-2-5.106-5.26V40.017h-6.106v16.472c0 6.796 4.646 11.25 11.212 11.25zm26.726 0c5.76 0 9.715-3.456 9.753-8.409.039-4.108-2.534-6.719-6.489-8.14l-1.92-.691c-2.879-1.037-4.223-1.689-4.223-3.148 0-1.421 1.651-2.073 3.3-2.073a6.064 6.064 0 0 1 4.723 2.265l3.993-4.224a11.376 11.376 0 0 0-8.793-3.763c-5.452 0-9.407 3.11-9.407 8.409 0 3.724 2.457 6.374 6.873 7.871l1.92.653c2.726.922 3.8 1.881 3.8 3.264 0 1.306-1.267 2.265-3.3 2.265a7.134 7.134 0 0 1-5.645-3.11l-4.685 3.955a11.954 11.954 0 0 0 10.1 4.876zm15.9-.461h6.1V56.489h10.982v10.789h6.1V40.017h-6.1v10.674H149.8V40.017h-6.1v27.261zm62.014 0h5.8l6.336-27.261h-6.528L207.594 57.3l-7.68-17.739-7.641 17.739-3.724-17.278h-6.528l6.3 27.261h5.8l5.8-13.362zm29.761.461a14.091 14.091 0 1 0-14.092-14.091 14.126 14.126 0 0 0 14.09 14.091zm0-5.913a8.183 8.183 0 1 1 7.91-8.178 8.088 8.088 0 0 1-7.912 8.178zm32.793 5.913a14.091 14.091 0 1 0-14.092-14.091 14.126 14.126 0 0 0 14.09 14.091zm0-5.913a8.183 8.183 0 1 1 7.91-8.178 8.088 8.088 0 0 1-7.912 8.178zm20.232 5.452h17.4v-5.836h-11.292V40.017H288.5v27.261zm18.97-10.866h11.289v-5.529h-11.286v5.529zm18.316 10.866h11.98a8.06 8.06 0 0 0 8.294-8.025 7.123 7.123 0 0 0-3.878-6.45 6.417 6.417 0 0 0 1.958-4.684 8.1 8.1 0 0 0-8.1-8.1h-10.251v27.259zm6.105-16.242v-5.452h3.456a2.771 2.771 0 0 1 2.841 2.764 2.732 2.732 0 0 1-2.841 2.688h-3.456zm0 10.636V56.22h5.338a2.773 2.773 0 0 1 2.879 2.726 2.739 2.739 0 0 1-2.841 2.726h-5.376zm20.2 5.606h17.394v-5.836H358.2V40.017h-6.1v27.261zm23.116 0h17.279v-5.836h-11.172v-4.876h8.87V50.73h-8.87v-4.877h11.174v-5.836h-17.279v27.261zm48.5 0V40.017h-6.144v16.818l-13.247-16.818h-5.26v27.261h6.105V50.422l13.285 16.856h5.261zm7.681 0h9.292a13.633 13.633 0 1 0 0-27.261h-9.292v27.261zm6.105-5.606V45.623h3.187a7.693 7.693 0 0 1 7.718 8.025 7.693 7.693 0 0 1-7.718 8.025h-3.187zm33.638 5.606h9.293a13.633 13.633 0 1 0 0-27.261h-9.293v27.261zm6.106-5.606V45.623h3.187a7.693 7.693 0 0 1 7.717 8.025 7.693 7.693 0 0 1-7.717 8.025h-3.187zm34.175 6.067c6.528 0 11.212-4.454 11.212-11.25V40.017h-6.105v16.549c0 3.264-2.074 5.26-5.107 5.26s-5.107-2-5.107-5.26V40.017H500.2v16.472c0 6.796 4.646 11.25 11.212 11.25zm26.726 0c5.76 0 9.715-3.456 9.753-8.409.038-4.108-2.534-6.719-6.489-8.14l-1.92-.691c-2.88-1.037-4.224-1.689-4.224-3.148 0-1.421 1.651-2.073 3.3-2.073a6.064 6.064 0 0 1 4.722 2.265l3.994-4.224a11.377 11.377 0 0 0-8.793-3.763c-5.453 0-9.408 3.11-9.408 8.409 0 3.724 2.458 6.374 6.874 7.871l1.919.653c2.727.922 3.8 1.881 3.8 3.264 0 1.306-1.267 2.265-3.3 2.265a7.134 7.134 0 0 1-5.645-3.11l-4.684 3.955a11.954 11.954 0 0 0 10.101 4.876zm20.429-.461h6.144V45.853h7.026v-5.836h-20.12v5.836h6.95v21.425zm18.816 0h17.279v-5.836h-11.174v-4.876h8.87V50.73h-8.87v-4.877h11.174v-5.836h-17.279v27.261zm23.847 0h6.105v-11.25h1l9.062 11.25h7.334l-9.64-12.018c3.456-1.229 5.337-3.494 5.337-7.026a8.049 8.049 0 0 0-8.447-8.217H601.23v27.261zm6.105-16.434v-5.221h3.916c1.805 0 3.11.96 3.11 2.611 0 1.574-1.3 2.611-3.11 2.611h-3.916zM42.886 100.877H54.4v-2.323h-9.059V82.131h-2.455v18.746zm18.163-18.35a1.594 1.594 0 0 0-1.584-1.611 1.64 1.64 0 0 0-1.637 1.611 1.623 1.623 0 0 0 1.637 1.611 1.578 1.578 0 0 0 1.584-1.611zm-2.749 18.35h2.271v-13.2H58.3v13.2zm7.893 0h2.271v-6.548c0-2.984 1.5-4.832 3.644-4.832 1.716 0 2.588 1.479 2.588 3.617v7.762h2.271v-6.547c0-2.984 1.479-4.832 3.617-4.832 1.716 0 2.614 1.479 2.614 3.617v7.762h2.271v-8.104c0-3.221-1.743-5.36-4.621-5.36a4.569 4.569 0 0 0-4.33 2.825 4.15 4.15 0 0 0-4.066-2.825 4.437 4.437 0 0 0-3.987 2.3v-2.036H66.2v13.2zm27.43-18.35a1.594 1.594 0 0 0-1.584-1.611 1.64 1.64 0 0 0-1.637 1.611 1.623 1.623 0 0 0 1.637 1.611 1.578 1.578 0 0 0 1.588-1.611zm-2.746 18.35h2.271v-13.2h-2.267v13.2zm15.049-.184V98.66a5.016 5.016 0 0 1-1.61.264c-1.426 0-2.192-.554-2.192-2.244v-6.918h3.8v-2.086h-3.8v-3.67h-2.27v3.67h-2.8v2.086h2.8v7.208a3.716 3.716 0 0 0 4.04 4.039 6.337 6.337 0 0 0 2.035-.316zm3.009-6.416A6.96 6.96 0 0 0 121.717 98l-1.8-1.241a4.674 4.674 0 0 1-8.687-2.033h10.826a6.54 6.54 0 0 0 .026-.686c-.026-4.225-2.825-6.627-6.284-6.627a6.69 6.69 0 0 0-6.86 6.864zm6.786-4.858a3.951 3.951 0 0 1 4.04 3.459h-8.37a4.315 4.315 0 0 1 4.333-3.46zm9.872 4.858a6.606 6.606 0 0 0 6.469 6.864 5.788 5.788 0 0 0 4.647-2.3v2.033h2.271v-19.8h-2.271v8.634a5.789 5.789 0 0 0-4.647-2.3 6.607 6.607 0 0 0-6.462 6.869zm11.3 0a4.51 4.51 0 1 1-4.489-4.779 4.508 4.508 0 0 1 4.496 4.779zm14.412 0a6.606 6.606 0 0 0 6.469 6.864 5.788 5.788 0 0 0 4.647-2.3v2.033h2.279v-13.2h-2.271v2.033a5.789 5.789 0 0 0-4.647-2.3 6.607 6.607 0 0 0-6.473 6.87zm11.3 0a4.51 4.51 0 1 1-4.489-4.779 4.508 4.508 0 0 1 4.494 4.779zm11.8 6.6h1.9l6.1-13.2h-2.535l-4.515 9.98-4.515-9.98h-2.53zm10.321-6.6a6.606 6.606 0 0 0 6.469 6.864 5.788 5.788 0 0 0 4.647-2.3v2.033h2.271v-13.2h-2.271v2.033a5.789 5.789 0 0 0-4.647-2.3 6.607 6.607 0 0 0-6.464 6.87zm11.3 0a4.51 4.51 0 1 1-4.489-4.779 4.508 4.508 0 0 1 4.495 4.779zm10.427-11.749a1.6 1.6 0 0 0-1.584-1.611 1.641 1.641 0 0 0-1.638 1.611 1.623 1.623 0 0 0 1.638 1.611 1.578 1.578 0 0 0 1.59-1.612zm-2.746 18.35h2.27v-13.2h-2.27v13.2zm7.893 0h2.271v-19.8H211.6v19.8zm6.864-6.6a6.606 6.606 0 0 0 6.469 6.864 5.789 5.789 0 0 0 4.647-2.3v2.033h2.271v-13.2h-2.271v2.033a5.791 5.791 0 0 0-4.647-2.3 6.606 6.606 0 0 0-6.463 6.869zm11.3 0a4.51 4.51 0 1 1-4.489-4.779 4.508 4.508 0 0 1 4.496 4.778zm9.951 4.568a5.788 5.788 0 0 0 4.647 2.3 6.877 6.877 0 0 0 0-13.729 5.789 5.789 0 0 0-4.647 2.3v-8.642h-2.271v19.8h2.271v-2.031zm8.792-4.568a4.5 4.5 0 1 1-4.488-4.779 4.507 4.507 0 0 1 4.495 4.778zm9.635-11.749a1.6 1.6 0 0 0-1.584-1.611 1.64 1.64 0 0 0-1.637 1.611 1.623 1.623 0 0 0 1.637 1.611 1.578 1.578 0 0 0 1.591-1.613zm-2.746 18.35h2.271v-13.2H255.4v13.2zm7.893 0h2.271v-19.8h-2.26v19.8zm10.64-18.35a1.6 1.6 0 0 0-1.584-1.611 1.64 1.64 0 0 0-1.637 1.611 1.623 1.623 0 0 0 1.637 1.611 1.578 1.578 0 0 0 1.591-1.613zm-2.746 18.35h2.271v-13.2h-2.264v13.2zm15.049-.184V98.66a5.022 5.022 0 0 1-1.611.264c-1.426 0-2.191-.554-2.191-2.244v-6.918h3.8v-2.086h-3.8v-3.67h-2.271v3.67h-2.8v2.086h2.8v7.208a3.716 3.716 0 0 0 4.04 4.039 6.347 6.347 0 0 0 2.04-.316zm7.734 5.7l8.661-18.72H300.1l-4.515 10.007-4.542-10.007h-2.508l5.782 12.515-2.878 6.2h2.535zm14.1-7.288a1.954 1.954 0 1 0-1.954 1.981 1.989 1.989 0 0 0 1.959-1.98z"/><path id="Rectangle_4_copy_9" data-name="Rectangle 4 copy 9" d="M39 169.156h122.406v3.688H39z"/><path id="Shop_now_copy_5" data-name="Shop now copy 5" class="cls-2" d="M44.216 162.243c2.706 0 4.564-1.653 4.582-4.022.018-1.965-1.19-3.214-3.048-3.894l-.9-.33c-1.353-.5-1.984-.809-1.984-1.507 0-.679.776-.991 1.551-.991a2.831 2.831 0 0 1 2.219 1.083l1.876-2.02a5.3 5.3 0 0 0-4.131-1.8c-2.561 0-4.419 1.488-4.419 4.022 0 1.782 1.154 3.049 3.229 3.766l.9.312c1.281.441 1.786.9 1.786 1.561 0 .625-.6 1.084-1.551 1.084a3.335 3.335 0 0 1-2.652-1.488l-2.2 1.892a5.582 5.582 0 0 0 4.742 2.332zm9.726-.22h2.868v-5.161h5.159v5.161h2.868v-13.041h-2.868v5.106H56.81v-5.106h-2.868v13.041zm22.66.22a6.742 6.742 0 1 0-6.62-6.74 6.7 6.7 0 0 0 6.618 6.74zm0-2.828a3.918 3.918 0 1 1 3.716-3.912 3.837 3.837 0 0 1-3.718 3.912zm20.622-5.97a4.4 4.4 0 0 0-4.51-4.463h-4.347v13.041h2.868v-4.133h1.479a4.384 4.384 0 0 0 4.51-4.445zm-2.778 0a1.7 1.7 0 0 1-1.768 1.709h-1.443v-3.417h1.443a1.689 1.689 0 0 1 1.768 1.708zm25.979 8.578v-13.041h-2.886v8.045l-6.223-8.045h-2.472v13.041h2.869v-8.063l6.241 8.063h2.471zm11.765.22a6.742 6.742 0 1 0-6.62-6.74 6.7 6.7 0 0 0 6.62 6.74zm0-2.828a3.918 3.918 0 1 1 3.716-3.912 3.837 3.837 0 0 1-3.716 3.912zm21.686 2.608h2.724l2.976-13.041h-3.067l-1.749 8.266-3.608-8.486-3.59 8.486-1.749-8.266h-3.067l2.959 13.041h2.723l2.724-6.392z"/></svg>