<svg data-name="Quote copy" xmlns="http://www.w3.org/2000/svg" width="768" height="323"><path data-name="Rectangle 96 copy" fill="#9a927f" d="M0 .844h768v321.562H0z"/><path data-name="“Don’t overthink it.”" d="M234.836 110.585a2.548 2.548 0 0 0-.39 1.351 2.221 2.221 0 1 0 4.441 0 2.29 2.29 0 0 0-1.23-2.011l2.01-4.291h-1.71zm5.582 0a2.548 2.548 0 0 0-.39 1.351 2.221 2.221 0 1 0 4.441 0 2.29 2.29 0 0 0-1.23-2.011l2.011-4.291h-1.711zm10.2 16.356h6.122c6.542 0 11.344-4.561 11.344-10.654s-4.8-10.653-11.344-10.653h-6.122v21.307zm2.791-2.611v-16.085h3.331c5.132 0 8.523 3.421 8.523 8.042s-3.391 8.043-8.523 8.043h-3.331zm34.444-4.891a7.848 7.848 0 1 0-7.833 7.8 7.7 7.7 0 0 0 7.831-7.8zm-13.055 0a5.21 5.21 0 1 1 5.222 5.4 5.157 5.157 0 0 1-5.22-5.4zm18.239 7.5h2.581V119.5c0-3.512 1.921-5.492 4.352-5.492 2.1 0 3.541 1.56 3.541 4.081v8.853h2.551V117.7c0-3.721-2.311-6.062-5.672-6.062a5.305 5.305 0 0 0-4.772 2.611v-2.311h-2.581v15zm22.591-18.066a2.652 2.652 0 0 0 .42-1.351 2.236 2.236 0 1 0-4.471 0 2.325 2.325 0 0 0 1.23 2.011l-2.01 4.292h1.74zm13.412 17.856v-2.309a5.709 5.709 0 0 1-1.831.3c-1.62 0-2.491-.63-2.491-2.551v-7.862h4.322v-2.371h-4.322v-4.171h-2.581v4.171h-3.181v2.371h3.181v8.193a4.224 4.224 0 0 0 4.592 4.591 7.185 7.185 0 0 0 2.309-.36zm28.112-7.292a7.848 7.848 0 1 0-7.833 7.8 7.7 7.7 0 0 0 7.831-7.798zm-13.055 0a5.21 5.21 0 1 1 5.222 5.4 5.157 5.157 0 0 1-5.219-5.398zm22.591 7.5h2.161l6.932-15H372.9l-5.131 11.344-5.132-11.344h-2.881zm11.7-7.5a7.911 7.911 0 0 0 14.525 4.231l-2.04-1.411a5.313 5.313 0 0 1-9.874-2.31H393.3a7.328 7.328 0 0 0 .03-.781c-.03-4.8-3.212-7.532-7.143-7.532a7.6 7.6 0 0 0-7.803 7.805zm7.713-5.522a4.49 4.49 0 0 1 4.592 3.931h-9.514a4.9 4.9 0 0 1 4.921-3.929zm12.387 13.024h2.581V119.5c0-3.512 2.071-5.162 3.962-5.162a3.771 3.771 0 0 1 1.41.24v-2.671a5.345 5.345 0 0 0-1.17-.12 4.464 4.464 0 0 0-4.2 3.061v-2.911h-2.581v15zm20.613-.21v-2.309a5.7 5.7 0 0 1-1.83.3c-1.621 0-2.491-.63-2.491-2.551v-7.862h4.32v-2.371h-4.321v-4.171H412.2v4.171h-3.182v2.371h3.182v8.193a4.223 4.223 0 0 0 4.591 4.591 7.18 7.18 0 0 0 2.309-.36zm4.8.21h2.581V119.5c0-3.512 1.921-5.492 4.352-5.492 2.1 0 3.541 1.56 3.541 4.081v8.853h2.551V117.7c0-3.721-2.311-6.062-5.672-6.062a5.305 5.305 0 0 0-4.772 2.611v-9.814h-2.581v22.508zm22.291-20.857a1.813 1.813 0 0 0-1.8-1.831 1.864 1.864 0 0 0-1.86 1.831 1.845 1.845 0 0 0 1.86 1.831 1.794 1.794 0 0 0 1.793-1.829zm-3.121 20.857h2.581v-15h-2.581v15zm8.97 0h2.58V119.5c0-3.512 1.921-5.492 4.352-5.492 2.1 0 3.541 1.56 3.541 4.081v8.853h2.551V117.7c0-3.721-2.311-6.062-5.672-6.062a5.307 5.307 0 0 0-4.772 2.611v-2.311h-2.58v15zm19.169 0h2.581v-7.5l8.133 7.5h3.476l-9.033-8.373 7.383-6.632h-3.421l-6.543 5.852v-13.353H471.2v22.508zm29.011-20.857a1.813 1.813 0 0 0-1.8-1.831 1.864 1.864 0 0 0-1.86 1.831 1.845 1.845 0 0 0 1.86 1.831 1.794 1.794 0 0 0 1.793-1.829zm-3.121 20.857h2.581v-15H497.1v15zm17.1-.21v-2.309a5.714 5.714 0 0 1-1.831.3c-1.621 0-2.491-.63-2.491-2.551v-7.862h4.322v-2.371h-4.322v-4.171h-2.581v4.171h-3.181v2.371h3.181v8.193a4.224 4.224 0 0 0 4.592 4.591 7.19 7.19 0 0 0 2.311-.36zm8.368-1.8a2.221 2.221 0 1 0-2.221 2.251 2.261 2.261 0 0 0 2.217-2.25zm5.7-16.055a2.652 2.652 0 0 0 .42-1.351 2.236 2.236 0 1 0-4.471 0 2.325 2.325 0 0 0 1.23 2.011l-2.011 4.292h1.741zm5.582 0a2.652 2.652 0 0 0 .42-1.351 2.236 2.236 0 1 0-4.471 0 2.325 2.325 0 0 0 1.23 2.011l-2.011 4.292h1.741z" fill-rule="evenodd" fill="#fff"/><path data-name="Rectangle 4 copy 5" fill="#fff" d="M159.594 162.812h450v60h-450z"/><path data-name="Shop our icon collection" d="M221.616 200.236c2.706 0 4.564-1.653 4.582-4.022.018-1.966-1.19-3.215-3.048-3.894l-.9-.331c-1.353-.5-1.984-.808-1.984-1.506 0-.68.775-.992 1.551-.992a2.83 2.83 0 0 1 2.219 1.084l1.876-2.021a5.3 5.3 0 0 0-4.131-1.8c-2.562 0-4.42 1.488-4.42 4.023 0 1.782 1.155 3.049 3.229 3.765l.9.313c1.281.44 1.786.9 1.786 1.561 0 .624-.595 1.083-1.551 1.083a3.337 3.337 0 0 1-2.652-1.487l-2.2 1.891a5.582 5.582 0 0 0 4.743 2.333zm9.726-.22h2.868v-5.161h5.159v5.161h2.868v-13.041h-2.868v5.106h-5.159v-5.106h-2.868v13.041zm22.66.22a6.742 6.742 0 1 0-6.62-6.741 6.7 6.7 0 0 0 6.618 6.741zm0-2.828a3.918 3.918 0 1 1 3.716-3.913 3.838 3.838 0 0 1-3.718 3.913zm20.621-5.97a4.4 4.4 0 0 0-4.509-4.463h-4.347v13.041h2.868v-4.133h1.479a4.385 4.385 0 0 0 4.509-4.445zm-2.777 0a1.7 1.7 0 0 1-1.768 1.708h-1.443v-3.416h1.443a1.689 1.689 0 0 1 1.768 1.708zm20.3 8.8a6.742 6.742 0 1 0-6.62-6.741 6.7 6.7 0 0 0 6.617 6.739zm0-2.828a3.918 3.918 0 1 1 3.716-3.913 3.838 3.838 0 0 1-3.719 3.911zm16.888 2.828a5.069 5.069 0 0 0 5.267-5.381v-7.88h-2.871v7.916a2.4 2.4 0 1 1-4.8 0v-7.916h-2.869v7.88a5.059 5.059 0 0 0 5.27 5.379zm10.988-.22h2.869v-5.382h.468l4.257 5.382h3.446l-4.528-5.749a3.357 3.357 0 0 0 2.507-3.361 3.815 3.815 0 0 0-3.968-3.931h-5.051v13.041zm2.869-7.862v-2.5h1.839a1.284 1.284 0 0 1 1.461 1.249 1.3 1.3 0 0 1-1.461 1.248h-1.839zm19 7.862h2.868v-13.043h-2.868v13.041zm14.63.22a6.6 6.6 0 0 0 5.989-3.563l-2.525-1.4a3.8 3.8 0 0 1-3.464 2.131 3.917 3.917 0 0 1 0-7.825 3.8 3.8 0 0 1 3.464 2.131l2.525-1.4a6.6 6.6 0 0 0-5.989-3.564 6.742 6.742 0 0 0-.004 13.488zm16.726 0a6.742 6.742 0 1 0-6.62-6.741 6.7 6.7 0 0 0 6.616 6.739zm0-2.828a3.918 3.918 0 1 1 3.716-3.913 3.837 3.837 0 0 1-3.72 3.911zm23.345 2.608v-13.043H393.7v8.045l-6.223-8.045h-2.471v13.041h2.868v-8.064l6.241 8.064h2.471zm18.891.22a6.6 6.6 0 0 0 5.989-3.563l-2.525-1.4a3.8 3.8 0 0 1-3.464 2.131 3.917 3.917 0 0 1 0-7.825 3.8 3.8 0 0 1 3.464 2.131l2.525-1.4a6.6 6.6 0 0 0-5.989-3.564 6.742 6.742 0 0 0-.004 13.488zm16.726 0a6.742 6.742 0 1 0-6.62-6.741 6.7 6.7 0 0 0 6.616 6.739zm0-2.828a3.918 3.918 0 1 1 3.716-3.913 3.837 3.837 0 0 1-3.72 3.911zm11.765 2.608h8.171v-2.792h-5.3v-10.251h-2.875v13.041zm13.116 0h8.172v-2.792h-5.3v-10.251h-2.868v13.041zm13.117 0h8.117v-2.792h-5.249v-2.333h4.167V192.1h-4.167v-2.332h5.249v-2.792H470.2v13.041zm19.033.22a6.6 6.6 0 0 0 5.989-3.563l-2.525-1.4a3.8 3.8 0 0 1-3.464 2.131 3.917 3.917 0 0 1 0-7.825 3.8 3.8 0 0 1 3.464 2.131l2.525-1.4a6.6 6.6 0 0 0-5.989-3.564 6.742 6.742 0 0 0-.004 13.488zm13.136-.22h2.886v-10.251h3.3v-2.792h-9.452v2.792h3.265v10.249zm11.1 0h2.868v-13.043h-2.868v13.041zm14.631.22a6.742 6.742 0 1 0-6.62-6.741 6.7 6.7 0 0 0 6.613 6.739zm0-2.828a3.918 3.918 0 1 1 3.715-3.913 3.837 3.837 0 0 1-3.722 3.911zm23.345 2.608v-13.043h-2.886v8.045l-6.223-8.045h-2.472v13.041h2.868v-8.064l6.242 8.064h2.471z" fill-rule="evenodd"/></svg>