<svg data-name="Full Collection CTA copy" xmlns="http://www.w3.org/2000/svg" width="768" height="120"><path data-name="Rectangle 133 copy 3" fill="#9a927f" d="M0 0h768v120H0z"/><g fill="#fff"><path data-name="Shop the full collection here" d="M111.644 67.053c1.289 2.279 4.138 3.838 7.587 3.838 4.168 0 7.107-2.429 7.107-6.147.03-3.179-1.859-5.068-5.008-6.237l-2.159-.81c-2.189-.81-3.239-1.5-3.239-3.059 0-1.529 1.559-2.459 3.359-2.459a5.157 5.157 0 0 1 4.048 1.979l2.429-2.369a8.193 8.193 0 0 0-6.447-2.909c-3.959 0-6.928 2.279-6.928 6 0 2.909 1.65 4.768 5.038 6l2.34.84c2.039.75 3.028 1.739 3.028 3.239 0 1.589-1.469 2.639-3.448 2.639a5.8 5.8 0 0 1-4.948-2.729zm20.009 3.479h3.509v-9.147h10.525v9.146h3.513V49.24h-3.509v8.816h-10.529V49.24h-3.509v21.291zm44.962-10.646a11.006 11.006 0 1 0-11.006 11.005 10.956 10.956 0 0 0 11.006-11.005zm-18.473 0a7.454 7.454 0 1 1 7.467 7.617 7.464 7.464 0 0 1-7.467-7.617zm30.6-10.646h-6.778v21.291h3.509v-7.377h3.269c4.378 0 7.377-3.029 7.377-6.957s-3.001-6.957-7.379-6.957zm-.03 10.616h-3.239v-7.317h3.239a3.67 3.67 0 1 1-.002 7.317zM211.9 70.531h3.508V52.6h6.208v-3.36h-15.893v3.36h6.177v17.931zm14.371 0h3.508v-9.146h10.526v9.146h3.509V49.24h-3.509v8.816H229.78V49.24h-3.508v21.291zm24.3 0h12.805v-3.358h-9.3v-5.758h7.5v-3.358h-7.5V52.6h9.3v-3.36h-12.804v21.291zm26.909 0h3.509v-9.116h7.2v-3.328h-7.2V52.6h9.146v-3.36h-12.654v21.291zm34.283-8.337V49.24h-3.508v13.015c0 3.329-1.98 5.248-4.948 5.248-3 0-4.978-1.919-4.978-5.248V49.24h-3.509v12.955c0 5.308 3.479 8.7 8.487 8.7 4.949-.004 8.457-3.395 8.457-8.7zm6.487 8.337h13.254v-3.358h-9.746V49.24h-3.508v21.291zm17.969 0h13.255v-3.358h-9.746V49.24h-3.508v21.291zm24.241-10.646a11.086 11.086 0 0 0 20.6 5.608l-3.029-1.739a7.617 7.617 0 1 1 0-7.737l3.029-1.739a11.086 11.086 0 0 0-20.599 5.608zm46.131 0a11.006 11.006 0 1 0-11.006 11.005 10.956 10.956 0 0 0 11.007-11.004zm-18.473 0a7.454 7.454 0 1 1 7.467 7.617 7.464 7.464 0 0 1-7.466-7.616zm23.822 10.646h13.254v-3.358h-9.746V49.24h-3.508v21.291zm17.969 0h13.255v-3.358h-9.746V49.24h-3.509v21.291zm17.97 0h12.805v-3.358h-9.3v-5.758h7.5v-3.358h-7.5V52.6h9.3v-3.36h-12.805v21.291zm16.441-10.645a11.086 11.086 0 0 0 20.6 5.608l-3.029-1.739a7.617 7.617 0 1 1 0-7.737l3.029-1.739a11.086 11.086 0 0 0-20.6 5.607zm29.607 10.646h3.509V52.6h6.208v-3.36H487.75v3.36h6.177v17.931zm14.372 0h3.508V49.24H508.3v21.291zm30.891-10.646a11.006 11.006 0 1 0-11.006 11.005 10.956 10.956 0 0 0 11.006-11.005zm-18.473 0a7.454 7.454 0 1 1 7.467 7.617 7.464 7.464 0 0 1-7.467-7.617zM563.1 70.531V49.24h-3.539V64.5L547.6 49.24h-3.059v21.291h3.508V55.208l12 15.324h3.051zm15.276 0h3.509v-9.146h10.526v9.146h3.508V49.24h-3.508v8.816h-10.525V49.24h-3.509v21.291zm24.3 0h12.8v-3.358h-9.3v-5.758h7.5v-3.358h-7.5V52.6h9.3v-3.36h-12.8v21.291zm18.36 0h3.509v-9.356h1.589l7.8 9.356h4.318l-7.917-9.566c3.059-.72 4.828-2.669 4.828-5.668 0-3.509-2.489-6.057-6.447-6.057h-7.677v21.291zm3.509-12.415v-5.637h3.748c2.069 0 3.359.99 3.359 2.819s-1.29 2.819-3.359 2.819h-3.748zm17.341 12.415h12.805v-3.358h-9.3v-5.758h7.5v-3.358h-7.5V52.6h9.3v-3.36h-12.804v21.291z" fill-rule="evenodd"/><path d="M578 77h78v2h-78z"/></g></svg>