<svg data-name="Spotlight copy" xmlns="http://www.w3.org/2000/svg" width="768" height="870"><g fill="#fff" fill-rule="evenodd"><path data-name="DESIGNED FOR A LIFE WITH NO BOUNDARIES" d="M61.9 357.9h19.743c16.319 0 29.538-12.892 29.538-28.966S97.962 299.97 81.643 299.97H61.9v57.93zm12.97-11.911v-34.106h6.772c9.792 0 16.4 7.751 16.4 17.053s-6.609 17.053-16.4 17.053H74.87zm49.45 11.911h36.718v-12.4h-23.744v-10.363h18.848v-12.4h-18.848v-10.365h23.744v-12.4H124.32V357.9zm67.972.979c12.239 0 20.644-7.343 20.725-17.869.082-8.731-5.385-14.279-13.789-17.3l-4.08-1.469c-6.12-2.2-8.976-3.59-8.976-6.691 0-3.019 3.509-4.406 7.017-4.406a12.89 12.89 0 0 1 10.037 4.814l8.486-8.975a24.177 24.177 0 0 0-18.686-8c-11.587 0-19.991 6.609-19.991 17.869 0 7.915 5.222 13.545 14.606 16.727l4.08 1.387c5.793 1.958 8.078 4 8.078 6.935 0 2.775-2.693 4.815-7.018 4.815a15.154 15.154 0 0 1-11.994-6.61l-9.955 8.405c4.488 6.535 12.321 10.37 21.46 10.37zm33.782-.979h12.974v-57.93h-12.974v57.93zm57.608.979c9.383 0 18.6-2.774 23.744-8.567v-27.5h-23.989v12.158h11.342v8.567c-2.448 1.959-6.691 2.775-11.261 2.775-11.341 0-18.277-7.507-18.277-17.38a17.007 17.007 0 0 1 17.461-17.38 19.238 19.238 0 0 1 14.606 6.2l9.139-8.894c-5.549-6.12-13.463-9.873-23.745-9.873-17.951 0-30.517 13.463-30.517 29.945 0 16.978 13.464 29.951 31.497 29.951zm90.41-.979v-57.93h-13.055v35.738l-28.151-35.738h-11.179v57.93h12.974v-35.82l28.232 35.82h11.179zm16.322 0h36.718v-12.4h-23.744v-10.363h18.848v-12.4h-18.848v-10.365h23.744v-12.4h-36.718V357.9zm50.673 0h19.747c16.319 0 29.538-12.892 29.538-28.966s-13.219-28.966-29.538-28.966h-19.747V357.9zm12.974-11.913v-34.104h6.773c9.791 0 16.4 7.751 16.4 17.053s-6.61 17.053-16.4 17.053h-6.773zm71.481 11.913h12.974v-22.681h17.706v-12.4h-17.706v-10.447H561.2v-12.4h-35.658V357.9zm74.092.979a29.945 29.945 0 1 0-29.946-29.945 30.017 30.017 0 0 0 29.946 29.947zm0-12.565c-9.465 0-16.89-8-16.89-17.38s7.425-17.38 16.89-17.38c9.384 0 16.809 8 16.809 17.38s-7.425 17.382-16.809 17.382zm43 11.586h12.974V334h2.122l19.259 23.9h15.585l-20.48-25.539c7.343-2.611 11.342-7.425 11.342-14.932 0-9.628-7.018-17.461-17.952-17.461h-22.847V357.9zm12.974-34.922v-11.1h8.323c3.835 0 6.609 2.04 6.609 5.548 0 3.346-2.774 5.549-6.609 5.549h-8.323zM118.69 446.7h13.545l5.14-12.24h23.99l5.14 12.24h13.545l-24.805-57.932H143.5zm23.418-23.5l7.262-17.461 7.262 17.461h-14.524zm67.646 23.5h36.963v-12.4h-23.989v-45.532h-12.974V446.7zm49.122 0h12.974v-57.932h-12.974V446.7zm29.294 0h12.973v-22.684h17.707v-12.4h-17.707V401.17h22.684v-12.4H288.17v57.93zm48.551 0h36.719v-12.4H349.7v-10.365h18.849v-12.4H349.7V401.17h23.74v-12.4h-36.719v57.93zm116.849 0h12.321l13.464-57.932h-13.872l-7.914 36.717-16.32-37.7-16.238 37.7-7.911-36.717h-13.875l13.382 57.932h12.321l12.321-28.395zm37.212 0h12.973v-57.932h-12.973V446.7zm39.738 0h13.055v-45.53h14.932v-12.4h-42.756v12.4h14.769v45.53zm39.983 0h12.974v-22.928h23.337V446.7h12.974v-57.932h-12.974v22.683h-23.337v-22.683H570.5V446.7zm-492.37 88.8v-57.935H65.077V513.3l-28.15-35.735H25.748V535.5h12.974v-35.82l28.232 35.82h11.179zm43 .979a29.945 29.945 0 1 0-29.945-29.945 30.017 30.017 0 0 0 29.948 29.942zm0-12.565c-9.465 0-16.89-8-16.89-17.38s7.425-17.379 16.89-17.379c9.384 0 16.809 8 16.809 17.379s-7.422 17.377-16.806 17.377zM186.17 535.5h25.459c9.954 0 17.624-7.506 17.624-17.053a15.139 15.139 0 0 0-8.241-13.708 13.633 13.633 0 0 0 4.162-9.954 17.22 17.22 0 0 0-17.217-17.217H186.17V535.5zm12.974-34.514V489.4h7.344a5.888 5.888 0 0 1 6.038 5.875 5.807 5.807 0 0 1-6.038 5.712h-7.344zm0 22.6V512h11.342a5.894 5.894 0 0 1 6.12 5.793 5.822 5.822 0 0 1-6.038 5.794h-11.424zm69.6 12.891a29.945 29.945 0 1 0-29.944-29.946 30.017 30.017 0 0 0 29.948 29.945zm0-12.565c-9.465 0-16.89-8-16.89-17.38s7.425-17.379 16.89-17.379c9.384 0 16.809 8 16.809 17.379s-7.421 17.379-16.805 17.379zm66.177 12.565c13.871 0 23.826-9.464 23.826-23.907v-35h-12.97v35.167c0 6.936-4.406 11.179-10.852 11.179s-10.853-4.243-10.853-11.179v-35.172H311.1v35c0 14.447 9.872 23.911 23.825 23.911zm91.879-.977v-57.935h-13.051V513.3L385.6 477.565h-11.181V535.5h12.974v-35.82l28.232 35.82H426.8zm16.322 0h19.746c16.319 0 29.538-12.892 29.538-28.966s-13.219-28.966-29.538-28.966h-19.742V535.5zm12.978-11.915v-34.107h6.773c9.791 0 16.4 7.752 16.4 17.053s-6.61 17.054-16.4 17.054H456.1zm40.556 11.915H510.2l5.141-12.239h23.989l5.141 12.239h13.545l-24.806-57.932h-11.75zm23.418-23.5l7.262-17.461L534.6 512h-14.526zm48.063 23.5h12.974v-23.91h2.122l19.256 23.91h15.585l-20.48-25.539c7.343-2.611 11.342-7.425 11.342-14.931 0-9.629-7.018-17.462-17.952-17.462h-22.847V535.5zm12.974-34.922v-11.1h8.323c3.835 0 6.609 2.04 6.609 5.549 0 3.345-2.774 5.548-6.609 5.548h-8.323zm45.125 34.922h12.973v-57.935h-12.973V535.5zm29.293 0h36.719v-12.4H668.5v-10.368h18.849v-12.4H668.5v-10.364h23.745v-12.4h-36.716V535.5zm67.972.979c12.24 0 20.644-7.343 20.726-17.869.081-8.73-5.386-14.279-13.79-17.3l-4.08-1.468c-6.12-2.2-8.976-3.591-8.976-6.691 0-3.019 3.509-4.406 7.018-4.406a12.885 12.885 0 0 1 10.036 4.814l8.486-8.976a24.173 24.173 0 0 0-18.685-8c-11.587 0-19.992 6.609-19.992 17.869 0 7.915 5.223 13.545 14.606 16.727l4.08 1.387c5.793 1.959 8.078 4 8.078 6.936 0 2.774-2.693 4.814-7.017 4.814a15.158 15.158 0 0 1-12-6.609l-9.955 8.4c4.493 6.535 12.326 10.369 21.464 10.369z" opacity=".75"/><path data-name="CELEBRATING 40 YEARS OF ICONIC STYLE" d="M128.024 600.227a8.811 8.811 0 0 0 7.97-4.657l-3.361-1.824a5.114 5.114 0 1 1 0-4.657l3.361-1.825a8.886 8.886 0 1 0-7.97 12.963zm11.4-.288h10.8v-3.649h-6.986v-3.048h5.546v-3.649h-5.546v-3.049h6.986V582.9h-10.8v17.043zm14.9 0H165.2v-3.649h-7.058V582.9h-3.816v17.043zm14.447 0h10.8v-3.649h-6.986v-3.048h5.545v-3.649h-5.545v-3.049h6.986V582.9h-10.8v17.043zm14.9 0h7.49a5.039 5.039 0 0 0 5.185-5.017 4.452 4.452 0 0 0-2.425-4.033 4.007 4.007 0 0 0 1.225-2.928 5.066 5.066 0 0 0-5.065-5.065h-6.41v17.043zm3.817-10.154v-3.409h2.16a1.732 1.732 0 0 1 1.777 1.729 1.708 1.708 0 0 1-1.777 1.68H187.5zm0 6.649v-3.409h3.337a1.734 1.734 0 0 1 1.8 1.705 1.712 1.712 0 0 1-1.776 1.7H187.5zm12.623 3.5h3.817V592.9h.624l5.665 7.034h4.585l-6.025-7.514c2.16-.768 3.337-2.184 3.337-4.392a5.032 5.032 0 0 0-5.281-5.137h-6.722v17.043zm3.817-10.274v-3.26h2.448a1.7 1.7 0 0 1 1.945 1.633 1.725 1.725 0 0 1-1.945 1.632h-2.448zm11.446 10.274h3.985l1.513-3.6h7.057l1.512 3.6h3.985l-7.3-17.043h-3.457zm6.89-6.914l2.136-5.136 2.137 5.136h-4.273zm15.5 6.914h3.841v-13.39h4.393V582.9H233.43v3.648h4.344v13.395zm11.76 0h3.816V582.9h-3.816v17.043zm24.027 0V582.9h-3.831v10.51l-8.282-10.51h-3.289v17.043h3.817V589.4l8.306 10.538h3.289zm13.126.288c2.761 0 5.473-.816 6.985-2.521v-8.089h-7.057v3.577h3.337v2.52a5.555 5.555 0 0 1-3.313.816c-3.337 0-5.377-2.208-5.377-5.113a5 5 0 0 1 5.148-5.112 5.658 5.658 0 0 1 4.3 1.825l2.688-2.617a9.067 9.067 0 0 0-6.985-2.9 8.705 8.705 0 0 0-8.978 8.809c-.004 4.993 3.957 8.81 9.262 8.81zm24.623-.288h3.625v-3.7h2.184v-3.313h-2.184V582.9h-3.255l-8.69 10.418v2.928h8.33v3.7zm0-7.01h-3.9l3.913-4.7v4.7zm15.48 7.274c3.792 0 6.433-2.881 6.433-6.817v-3.961c0-3.937-2.641-6.817-6.433-6.817-3.817 0-6.458 2.88-6.458 6.817v3.961c.01 3.941 2.651 6.819 6.468 6.819zm0-3.577c-1.681 0-2.833-1.2-2.833-3.24v-3.961c0-2.041 1.152-3.241 2.833-3.241 1.656 0 2.808 1.2 2.808 3.241v3.961c.012 2.045-1.142 3.245-2.798 3.245zm21.095 3.313h3.841v-7.154l6.217-9.889H353.5l-3.72 6.145-3.673-6.145h-4.441l6.217 9.865v7.178zm13.247 0h10.8v-3.644h-6.985v-3.048h5.545v-3.649h-5.545v-3.049h6.985V582.9h-10.8v17.043zm13.079 0h3.999l1.513-3.6h7.057l1.512 3.6h3.985l-7.3-17.043h-3.457zm6.89-6.914l2.136-5.136 2.137 5.136H381.1zm14.135 6.914h3.817V592.9h.624l5.665 7.034h4.585l-6.025-7.514c2.16-.768 3.336-2.184 3.336-4.392a5.031 5.031 0 0 0-5.281-5.137h-6.721v17.043zm3.817-10.274v-3.26h2.457a1.7 1.7 0 0 1 1.945 1.633 1.726 1.726 0 0 1-1.945 1.632h-2.448zm18.36 10.562c3.6 0 6.073-2.161 6.1-5.257.024-2.569-1.584-4.2-4.057-5.089l-1.2-.432c-1.8-.648-2.641-1.056-2.641-1.969 0-.888 1.032-1.3 2.065-1.3a3.79 3.79 0 0 1 2.952 1.416l2.5-2.64a7.114 7.114 0 0 0-5.5-2.352c-3.409 0-5.882 1.944-5.882 5.257 0 2.328 1.537 3.984 4.3 4.92l1.2.409c1.7.576 2.376 1.176 2.376 2.04 0 .816-.792 1.416-2.064 1.416a4.458 4.458 0 0 1-3.529-1.944l-2.929 2.472a7.473 7.473 0 0 0 6.319 3.058zm24.264 0a8.81 8.81 0 1 0-8.81-8.81 8.831 8.831 0 0 0 8.82 8.815zm0-3.7a5.116 5.116 0 1 1 4.945-5.113 5.057 5.057 0 0 1-4.935 5.121zm12.646 3.409h3.816v-6.673h5.209v-3.649h-5.209v-3.073h6.674V582.9h-10.49v17.043zm20.183 0h3.817V582.9h-3.817v17.043zm16.466.288a8.812 8.812 0 0 0 7.97-4.657l-3.361-1.824a5.114 5.114 0 1 1 0-4.657l3.361-1.825a8.886 8.886 0 1 0-7.96 12.971zm19.248 0a8.81 8.81 0 1 0-8.81-8.81 8.831 8.831 0 0 0 8.82 8.818zm0-3.7a5.116 5.116 0 1 1 4.945-5.113 5.056 5.056 0 0 1-4.935 5.124zm28.057 3.409V582.9h-3.841v10.51l-8.271-10.51h-3.289v17.043h3.817V589.4l8.305 10.538h3.289zm4.8 0h3.816V582.9h-3.816v17.043zm16.465.288a8.811 8.811 0 0 0 7.97-4.657l-3.361-1.824a5.114 5.114 0 1 1 0-4.657l3.361-1.825a8.886 8.886 0 1 0-7.963 12.974zm22.967 0c3.6 0 6.073-2.161 6.1-5.257.024-2.569-1.584-4.2-4.056-5.089l-1.2-.432c-1.8-.648-2.64-1.056-2.64-1.969 0-.888 1.032-1.3 2.064-1.3a3.792 3.792 0 0 1 2.953 1.416l2.5-2.64a7.111 7.111 0 0 0-5.5-2.352c-3.409 0-5.881 1.944-5.881 5.257 0 2.328 1.536 3.984 4.3 4.92l1.2.409c1.7.576 2.377 1.176 2.377 2.04 0 .816-.793 1.416-2.065 1.416a4.461 4.461 0 0 1-3.529-1.944l-2.928 2.472a7.472 7.472 0 0 0 6.312 3.064zm12.768-.288h3.84v-13.384h4.393V582.9h-12.571v3.648h4.345v13.395zm16.368 0h3.841v-7.154l6.224-9.874h-4.441l-3.721 6.145-3.673-6.145h-4.441l6.218 9.865v7.178zm13.246 0h10.875v-3.638h-7.058V582.9h-3.817v17.043zm14.448 0h10.8v-3.638h-6.985v-3.048h5.556v-3.649h-5.545v-3.049h6.985V582.9h-10.8v17.043z"/></g></svg>