<svg id="Center_Creative_copy" data-name="Center Creative copy" xmlns="http://www.w3.org/2000/svg" width="1360" height="723"><defs><style>.cls-1,.cls-2{fill-rule:evenodd}.cls-2{fill:#fff}</style></defs><g id="copy"><path id="Banana_Republic_was_born_from_two_California_creatives_fueled_b" data-name="Banana Republic was born from two California creatives fueled b" class="cls-1" d="M30.891 593.146h4.065c2.3 0 3.809-1.424 3.809-3.312a2.709 2.709 0 0 0-1.968-2.721 2.575 2.575 0 0 0 1.216-2.32 3.111 3.111 0 0 0-3.392-3.008h-3.73v11.361zm1.488-6.481v-3.536h2.24a1.786 1.786 0 0 1 1.936 1.776 1.749 1.749 0 0 1-1.936 1.76h-2.24zm0 5.137v-3.856h2.656c1.5 0 2.272.832 2.272 1.936 0 1.12-.768 1.92-2.288 1.92h-2.64zm8.144-2.656a4 4 0 0 0 3.921 4.16 3.509 3.509 0 0 0 2.816-1.392v1.232h1.376v-8H47.26v1.232a3.509 3.509 0 0 0-2.816-1.392 4 4 0 0 0-3.921 4.16zm6.849 0a2.733 2.733 0 1 1-2.72-2.9 2.732 2.732 0 0 1 2.72 2.9zm4.255 4H53v-3.968c0-1.872 1.024-2.929 2.32-2.929a1.921 1.921 0 0 1 1.888 2.177v4.72h1.36v-4.928a2.949 2.949 0 0 0-3.024-3.233A2.83 2.83 0 0 0 53 586.377v-1.232h-1.374v8zm9.2-4a4 4 0 0 0 3.921 4.16 3.509 3.509 0 0 0 2.816-1.392v1.232h1.376v-8h-1.377v1.232a3.509 3.509 0 0 0-2.816-1.392 4 4 0 0 0-3.921 4.16zm6.849 0a2.733 2.733 0 1 1-2.72-2.9 2.732 2.732 0 0 1 2.719 2.9zm4.255 4h1.376v-3.968c0-1.872 1.024-2.929 2.32-2.929a1.921 1.921 0 0 1 1.888 2.177v4.72h1.36v-4.928a2.949 2.949 0 0 0-3.024-3.233 2.829 2.829 0 0 0-2.544 1.392v-1.232H71.93v8zm9.2-4a4 4 0 0 0 3.92 4.16 3.509 3.509 0 0 0 2.816-1.392v1.232h1.376v-8h-1.376v1.232a3.509 3.509 0 0 0-2.816-1.392 4 4 0 0 0-3.921 4.16zm6.849 0a2.733 2.733 0 1 1-2.72-2.9 2.732 2.732 0 0 1 2.719 2.9zm8.767 4h1.488v-5.168h1.1l4.369 5.168h1.872l-4.369-5.184a2.965 2.965 0 0 0 2.8-3.041 3.065 3.065 0 0 0-3.393-3.136h-3.868v11.361zm1.488-6.5v-3.488h2.208c1.3 0 2.08.608 2.08 1.76 0 1.136-.784 1.728-2.08 1.728h-2.209zm8 2.5a4.219 4.219 0 0 0 7.746 2.256l-1.089-.752a2.832 2.832 0 0 1-5.264-1.232h6.561a3.9 3.9 0 0 0 .011-.418 3.729 3.729 0 0 0-3.809-4.017 4.055 4.055 0 0 0-4.158 4.163zm4.113-2.945a2.394 2.394 0 0 1 2.448 2.1h-5.072a2.615 2.615 0 0 1 2.622-2.101zm6.207 10.29h1.377v-4.577a3.508 3.508 0 0 0 2.816 1.392 4.168 4.168 0 0 0 0-8.321 3.508 3.508 0 0 0-2.816 1.392v-1.232h-1.377v11.346zm6.7-7.345a2.725 2.725 0 1 1-2.72-2.9 2.731 2.731 0 0 1 2.723 2.9zm3.679.912a2.921 2.921 0 0 0 2.945 3.248 2.752 2.752 0 0 0 2.464-1.392v1.232h1.376v-8h-1.376v3.969c0 1.84-.976 2.928-2.224 2.928-1.1 0-1.808-.848-1.808-2.192v-4.705h-1.377v4.913zm11.152 1.856a3.512 3.512 0 0 0 2.817 1.392 4.168 4.168 0 0 0 0-8.321 3.512 3.512 0 0 0-2.817 1.392v-5.232h-1.376v12h1.376v-1.232zm5.329-2.768a2.726 2.726 0 1 1-2.72-2.9 2.731 2.731 0 0 1 2.723 2.9zm3.775 4h1.376v-12h-1.376v12zm6.048-11.121a.966.966 0 0 0-.96-.976.994.994 0 0 0-.992.976.983.983 0 0 0 .992.976.956.956 0 0 0 .963-.976zm-1.664 11.121h1.376v-8h-1.376v8zm11.649-1.984l-1.2-.672a2.712 2.712 0 0 1-2.5 1.536 2.882 2.882 0 0 1 0-5.761 2.711 2.711 0 0 1 2.5 1.537l1.2-.673a4.143 4.143 0 0 0-3.7-2.144 4.161 4.161 0 1 0 0 8.321 4.143 4.143 0 0 0 3.703-2.144zm12.976 1.984h1.216l2.72-8h-1.456l-1.936 5.841-2-5.841h-1.056l-2 5.841-1.936-5.841h-1.441l2.721 8h1.216l1.984-5.76zm5.166-4a4 4 0 0 0 3.921 4.16 3.508 3.508 0 0 0 2.816-1.392v1.232h1.376v-8h-1.376v1.232a3.508 3.508 0 0 0-2.816-1.392 4 4 0 0 0-3.918 4.16zm6.849 0a2.733 2.733 0 1 1-2.72-2.9 2.731 2.731 0 0 1 2.723 2.9zm9.44 1.776c0-1.2-.752-1.968-2.112-2.416l-.864-.288c-.945-.3-1.233-.608-1.233-1.121a1.133 1.133 0 0 1 1.345-.928 2.161 2.161 0 0 1 1.7.832l.9-.864a3.1 3.1 0 0 0-2.56-1.152c-1.585 0-2.7.88-2.7 2.176a2.415 2.415 0 0 0 1.984 2.321l.785.256c1.04.336 1.424.72 1.424 1.28a1.218 1.218 0 0 1-1.408 1.088 2.147 2.147 0 0 1-2.049-1.264l-1.12.608a3.178 3.178 0 0 0 3.137 1.856c1.606 0 2.774-.816 2.774-2.384zm8.047.992a3.508 3.508 0 0 0 2.816 1.392 4.168 4.168 0 0 0 0-8.321 3.508 3.508 0 0 0-2.816 1.392v-5.232h-1.376v12h1.375v-1.232zm5.329-2.768a2.726 2.726 0 1 1-2.721-2.9 2.732 2.732 0 0 1 2.724 2.9zm11.5 0a4.185 4.185 0 1 0-4.177 4.16 4.106 4.106 0 0 0 4.184-4.16zm-6.961 0a2.778 2.778 0 1 1 2.784 2.88 2.751 2.751 0 0 1-2.777-2.88zm9.328 4h1.376v-3.968c0-1.872 1.1-2.753 2.112-2.753a2.011 2.011 0 0 1 .752.128v-1.424a2.851 2.851 0 0 0-.624-.064 2.38 2.38 0 0 0-2.24 1.632v-1.552H224.9v8zm6.255 0h1.377v-3.968c0-1.872 1.024-2.929 2.32-2.929a1.921 1.921 0 0 1 1.888 2.177v4.72h1.36v-4.928a2.949 2.949 0 0 0-3.024-3.233 2.829 2.829 0 0 0-2.544 1.392v-1.232h-1.377v8zm14.592 0h1.377v-6.737h2.32v-1.264h-2.32v-1.472a1.152 1.152 0 0 1 1.328-1.36 3.222 3.222 0 0 1 .992.16v-1.216a3.636 3.636 0 0 0-1.248-.208 2.285 2.285 0 0 0-2.449 2.48v1.616h-1.7v1.264h1.7v6.737zm5.6 0h1.376v-3.968c0-1.872 1.1-2.753 2.113-2.753a2.011 2.011 0 0 1 .752.128v-1.424a2.851 2.851 0 0 0-.624-.064 2.381 2.381 0 0 0-2.241 1.632v-1.552h-1.376v8zm13.7-4a4.185 4.185 0 1 0-4.176 4.16 4.106 4.106 0 0 0 4.18-4.16zm-6.961 0a2.778 2.778 0 1 1 2.785 2.88 2.751 2.751 0 0 1-2.781-2.88zm9.328 4h1.376v-3.968c0-1.808.912-2.929 2.209-2.929 1.04 0 1.568.9 1.568 2.193v4.7h1.376v-3.968c0-1.808.9-2.929 2.192-2.929 1.04 0 1.585.9 1.585 2.193v4.7h1.383v-4.912c0-1.953-1.056-3.249-2.8-3.249a2.769 2.769 0 0 0-2.624 1.712 2.515 2.515 0 0 0-2.464-1.712 2.689 2.689 0 0 0-2.417 1.392v-1.232h-1.376v8zm22.928-.112V591.8a3.041 3.041 0 0 1-.976.16 1.152 1.152 0 0 1-1.328-1.36v-4.193h2.3v-1.264h-2.3v-2.224h-1.376v2.224h-1.7v1.264h1.7v4.369a2.252 2.252 0 0 0 2.448 2.448 3.828 3.828 0 0 0 1.236-.19zm8.945.112h1.216l2.72-8h-1.456l-1.936 5.841-2-5.841h-1.057l-2 5.841-1.936-5.841H291.4l2.72 8h1.216l1.984-5.76zm13.52-4a4.185 4.185 0 1 0-4.177 4.16 4.107 4.107 0 0 0 4.181-4.16zm-6.961 0a2.778 2.778 0 1 1 2.784 2.88 2.751 2.751 0 0 1-2.78-2.88zm13.055-1.68a5.905 5.905 0 0 0 10.9 3.12l-1.249-.752a4.465 4.465 0 1 1 0-4.737l1.249-.752a5.905 5.905 0 0 0-10.898 3.121zm12.432 1.68a4 4 0 0 0 3.92 4.16 3.509 3.509 0 0 0 2.817-1.392v1.232h1.376v-8h-1.376v1.232a3.509 3.509 0 0 0-2.817-1.392 4 4 0 0 0-3.916 4.16zm6.849 0a2.733 2.733 0 1 1-2.72-2.9 2.731 2.731 0 0 1 2.724 2.9zm4.255 4h1.376v-12h-1.376v12zm6.048-11.121a.966.966 0 0 0-.96-.976.994.994 0 0 0-.992.976.983.983 0 0 0 .992.976.956.956 0 0 0 .964-.976zm-1.664 11.121h1.382v-8h-1.376v8zm5.056 0h1.376v-6.737h2.32v-1.264h-2.32v-1.472a1.152 1.152 0 0 1 1.328-1.36 3.222 3.222 0 0 1 .992.16v-1.216a3.636 3.636 0 0 0-1.248-.208 2.285 2.285 0 0 0-2.448 2.48v1.616h-1.7v1.264h1.7v6.737zm13.121-4a4.185 4.185 0 1 0-4.177 4.16 4.106 4.106 0 0 0 4.182-4.16zm-6.961 0a2.778 2.778 0 1 1 2.784 2.88 2.751 2.751 0 0 1-2.78-2.88zm9.327 4h1.377v-3.968c0-1.872 1.1-2.753 2.112-2.753a2.011 2.011 0 0 1 .752.128v-1.424a2.851 2.851 0 0 0-.624-.064 2.38 2.38 0 0 0-2.24 1.632v-1.552h-1.377v8zm6.256 0H375v-3.968c0-1.872 1.024-2.929 2.32-2.929a1.921 1.921 0 0 1 1.888 2.177v4.72h1.36v-4.928a2.949 2.949 0 0 0-3.024-3.233 2.829 2.829 0 0 0-2.544 1.392v-1.232h-1.377v8zm11.488-11.121a.966.966 0 0 0-.96-.976.994.994 0 0 0-.992.976.983.983 0 0 0 .992.976.956.956 0 0 0 .964-.976zm-1.664 11.121h1.376v-8h-1.376v8zm3.76-4a4 4 0 0 0 3.921 4.16 3.508 3.508 0 0 0 2.816-1.392v1.232h1.376v-8h-1.376v1.232a3.508 3.508 0 0 0-2.816-1.392 4 4 0 0 0-3.917 4.16zm6.849 0a2.733 2.733 0 1 1-2.72-2.9 2.731 2.731 0 0 1 2.724 2.9zm15.824 2.016l-1.2-.672a2.713 2.713 0 0 1-2.5 1.536 2.882 2.882 0 0 1 0-5.761 2.712 2.712 0 0 1 2.5 1.537l1.2-.673a4.143 4.143 0 0 0-3.7-2.144 4.161 4.161 0 1 0 0 8.321 4.143 4.143 0 0 0 3.704-2.144zm2.175 1.984h1.376v-3.968c0-1.872 1.1-2.753 2.112-2.753a2.011 2.011 0 0 1 .752.128v-1.424a2.851 2.851 0 0 0-.624-.064 2.38 2.38 0 0 0-2.24 1.632v-1.552h-1.376v8zm5.344-4a4.218 4.218 0 0 0 7.745 2.256l-1.088-.752a2.833 2.833 0 0 1-5.265-1.232h6.561a3.9 3.9 0 0 0 .016-.416 3.729 3.729 0 0 0-3.809-4.017 4.054 4.054 0 0 0-4.153 4.161zm4.112-2.945a2.4 2.4 0 0 1 2.449 2.1h-5.073a2.615 2.615 0 0 1 2.628-2.101zm5.583 2.945a4 4 0 0 0 3.921 4.16 3.508 3.508 0 0 0 2.816-1.392v1.232h1.377v-8h-1.377v1.232a3.508 3.508 0 0 0-2.816-1.392 4 4 0 0 0-3.917 4.16zm6.849 0a2.733 2.733 0 1 1-2.72-2.9 2.731 2.731 0 0 1 2.724 2.9zm8.592 3.888V591.8a3.041 3.041 0 0 1-.976.16 1.152 1.152 0 0 1-1.328-1.36v-4.193h2.3v-1.264h-2.3v-2.224h-1.376v2.224h-1.7v1.264h1.7v4.369a2.252 2.252 0 0 0 2.448 2.448 3.828 3.828 0 0 0 1.236-.19zm3.824-11.009a.966.966 0 0 0-.961-.976.994.994 0 0 0-.992.976.983.983 0 0 0 .992.976.957.957 0 0 0 .965-.976zm-1.665 11.121h1.377v-8h-1.377v8zm6.881 0h1.152l3.7-8h-1.536l-2.736 6.049-2.737-6.049h-1.536zm5.839-4a4.218 4.218 0 0 0 7.745 2.256l-1.088-.752a2.833 2.833 0 0 1-5.265-1.232h6.561a3.9 3.9 0 0 0 .016-.416 3.728 3.728 0 0 0-3.808-4.017 4.054 4.054 0 0 0-4.157 4.161zm4.113-2.945a2.394 2.394 0 0 1 2.448 2.1H458.9a2.616 2.616 0 0 1 2.625-2.101zm11.392 4.721c0-1.2-.752-1.968-2.112-2.416l-.864-.288c-.945-.3-1.233-.608-1.233-1.121a1.133 1.133 0 0 1 1.345-.928 2.161 2.161 0 0 1 1.7.832l.9-.864a3.1 3.1 0 0 0-2.56-1.152c-1.585 0-2.7.88-2.7 2.176a2.415 2.415 0 0 0 1.984 2.321l.785.256c1.04.336 1.424.72 1.424 1.28a1.218 1.218 0 0 1-1.408 1.088 2.147 2.147 0 0 1-2.049-1.264l-1.12.608a3.178 3.178 0 0 0 3.137 1.856c1.607 0 2.775-.816 2.775-2.384zm7.135 2.224h1.376v-6.737h2.321v-1.264h-2.321v-1.472a1.152 1.152 0 0 1 1.329-1.36 3.222 3.222 0 0 1 .992.16v-1.216a3.636 3.636 0 0 0-1.248-.208 2.285 2.285 0 0 0-2.449 2.48v1.616h-1.7v1.264h1.7v6.737zm5.488-3.088c0 1.984 1.184 3.248 2.944 3.248a2.754 2.754 0 0 0 2.465-1.392v1.232h1.376v-8h-1.376v3.969c0 1.84-.977 2.928-2.225 2.928-1.1 0-1.808-.848-1.808-2.192v-4.705h-1.372v4.913zm9.152-.912a4.218 4.218 0 0 0 7.745 2.256l-1.088-.752a2.833 2.833 0 0 1-5.265-1.232h6.561a3.9 3.9 0 0 0 .016-.416 3.728 3.728 0 0 0-3.809-4.017 4.054 4.054 0 0 0-4.156 4.161zm4.112-2.946a2.394 2.394 0 0 1 2.449 2.1h-5.069a2.615 2.615 0 0 1 2.62-2.1zm6.208 6.945h1.376v-12h-1.376v12zm3.76-4a4.218 4.218 0 0 0 7.745 2.256l-1.088-.752a2.833 2.833 0 0 1-5.265-1.232h6.561a3.9 3.9 0 0 0 .016-.416 3.729 3.729 0 0 0-3.809-4.017 4.054 4.054 0 0 0-4.156 4.162zm4.112-2.945a2.394 2.394 0 0 1 2.448 2.1h-5.068a2.615 2.615 0 0 1 2.624-2.1zm5.583 2.945a4 4 0 0 0 3.921 4.16 3.508 3.508 0 0 0 2.816-1.392v1.232h1.377v-12H525.2v5.232a3.508 3.508 0 0 0-2.816-1.392 4 4 0 0 0-3.917 4.161zm6.849 0a2.733 2.733 0 1 1-2.72-2.9 2.731 2.731 0 0 1 2.724 2.901zm9.935 2.768a3.51 3.51 0 0 0 2.817 1.392 4.168 4.168 0 0 0 0-8.321 3.51 3.51 0 0 0-2.817 1.392v-5.232h-1.376v12h1.376v-1.232zm5.329-2.768a2.726 2.726 0 1 1-2.72-2.9 2.731 2.731 0 0 1 2.724 2.901zm5.743 7.345l5.249-11.346h-1.536l-2.732 6.066-2.753-6.065h-1.52l3.5 7.585-1.745 3.761h1.536zm15.041-3.457V591.8a3.041 3.041 0 0 1-.976.16 1.152 1.152 0 0 1-1.328-1.36v-4.193h2.3v-1.264h-2.3v-2.224h-1.377v2.224h-1.7v1.264h1.7v4.369a2.252 2.252 0 0 0 2.449 2.448 3.828 3.828 0 0 0 1.236-.19zm2.159.112h1.381v-3.968c0-1.872 1.025-2.929 2.321-2.929a1.921 1.921 0 0 1 1.888 2.177v4.72h1.36v-4.928a2.949 2.949 0 0 0-3.024-3.233 2.831 2.831 0 0 0-2.545 1.392v-5.232h-1.376v12zm9.2-4a4.218 4.218 0 0 0 7.745 2.256l-1.088-.752a2.833 2.833 0 0 1-5.265-1.232h6.561a3.9 3.9 0 0 0 .016-.416 3.728 3.728 0 0 0-3.808-4.017 4.054 4.054 0 0 0-4.157 4.162zm4.113-2.945a2.394 2.394 0 0 1 2.448 2.1h-5.073a2.616 2.616 0 0 1 2.629-2.1zm7.871-4.176a.966.966 0 0 0-.96-.976.994.994 0 0 0-.992.976.983.983 0 0 0 .992.976.956.956 0 0 0 .964-.975zm-1.664 11.121h1.376v-8h-1.376v8zm4.384 0h1.377v-3.968c0-1.872 1.1-2.753 2.112-2.753a2.011 2.011 0 0 1 .752.128v-1.424a2.851 2.851 0 0 0-.624-.064 2.38 2.38 0 0 0-2.24 1.632v-1.552h-1.376v8zm9.536-4a4.218 4.218 0 0 0 7.745 2.256l-1.089-.752a2.832 2.832 0 0 1-5.264-1.232h6.561a3.9 3.9 0 0 0 .016-.416 3.729 3.729 0 0 0-3.809-4.017 4.054 4.054 0 0 0-4.156 4.162zm4.112-2.945a2.4 2.4 0 0 1 2.449 2.1h-5.073a2.615 2.615 0 0 1 2.628-2.1zm4.72 6.945h1.712l2.432-3.024 2.433 3.024h1.7L610.8 589.1l3.009-3.953h-1.681l-2.192 2.881-2.208-2.881h-1.664l3.008 3.953zm10.08 3.345h1.376v-4.577a3.508 3.508 0 0 0 2.816 1.392 4.168 4.168 0 0 0 0-8.321 3.508 3.508 0 0 0-2.816 1.392v-1.232h-1.376v11.346zm6.705-7.345a2.726 2.726 0 1 1-2.721-2.9 2.732 2.732 0 0 1 2.725 2.901zm3.791 4h1.376v-12h-1.376v12zm12.113-4a4.185 4.185 0 1 0-4.177 4.16 4.107 4.107 0 0 0 4.181-4.159zm-6.961 0a2.778 2.778 0 1 1 2.784 2.88 2.751 2.751 0 0 1-2.78-2.879zm9.327 4h1.377v-3.968c0-1.872 1.1-2.753 2.112-2.753a2.011 2.011 0 0 1 .752.128v-1.424a2.851 2.851 0 0 0-.624-.064 2.38 2.38 0 0 0-2.24 1.632v-1.552h-1.373v8zm5.344-4a4.218 4.218 0 0 0 7.745 2.256l-1.088-.752a2.832 2.832 0 0 1-5.264-1.232h6.561a3.9 3.9 0 0 0 .016-.416 3.729 3.729 0 0 0-3.809-4.017 4.055 4.055 0 0 0-4.157 4.162zm4.113-2.945a2.394 2.394 0 0 1 2.448 2.1h-5.072a2.615 2.615 0 0 1 2.628-2.1zm6.207 6.945h1.377v-3.968c0-1.872 1.1-2.753 2.112-2.753a2.011 2.011 0 0 1 .752.128v-1.424a2.851 2.851 0 0 0-.624-.064 2.38 2.38 0 0 0-2.24 1.632v-1.552h-1.377v8zm15.345-2.224c0-1.2-.752-1.968-2.112-2.416l-.864-.288c-.945-.3-1.233-.608-1.233-1.121a1.133 1.133 0 0 1 1.345-.928 2.161 2.161 0 0 1 1.7.832l.9-.864a3.1 3.1 0 0 0-2.56-1.152c-1.585 0-2.705.88-2.705 2.176a2.415 2.415 0 0 0 1.984 2.321l.785.256c1.04.336 1.424.72 1.424 1.28a1.218 1.218 0 0 1-1.408 1.088 2.147 2.147 0 0 1-2.049-1.264l-1.12.608a3.178 3.178 0 0 0 3.137 1.856c1.612.001 2.78-.815 2.78-2.383zm2.367 5.569h1.378v-4.577a3.51 3.51 0 0 0 2.817 1.392 4.168 4.168 0 0 0 0-8.321 3.51 3.51 0 0 0-2.817 1.392v-1.232h-1.376v11.346zm6.705-7.345a2.726 2.726 0 1 1-2.72-2.9 2.731 2.731 0 0 1 2.724 2.901zm5.455-7.121a.966.966 0 0 0-.96-.976.994.994 0 0 0-.992.976.983.983 0 0 0 .992.976.956.956 0 0 0 .964-.975zm-1.664 11.121h1.382v-8h-1.376v8zm4.384 0h1.376v-3.968c0-1.872 1.1-2.753 2.112-2.753a2.016 2.016 0 0 1 .753.128v-1.424a2.86 2.86 0 0 0-.625-.064 2.38 2.38 0 0 0-2.24 1.632v-1.552h-1.376v8zm7.92-11.121a.966.966 0 0 0-.96-.976.994.994 0 0 0-.992.976.983.983 0 0 0 .992.976.956.956 0 0 0 .964-.975zm-1.664 11.121h1.376v-8h-1.376v8zm8.72-.112V591.8a3.041 3.041 0 0 1-.976.16 1.152 1.152 0 0 1-1.328-1.36v-4.193h2.3v-1.264h-2.3v-2.224H700.4v2.224h-1.7v1.264h1.7v4.369a2.252 2.252 0 0 0 2.448 2.448 3.828 3.828 0 0 0 1.234-.19zm7.344-2.112c0-1.2-.752-1.968-2.112-2.416l-.864-.288c-.944-.3-1.232-.608-1.232-1.121a1.132 1.132 0 0 1 1.344-.928 2.161 2.161 0 0 1 1.7.832l.9-.864a3.1 3.1 0 0 0-2.56-1.152c-1.584 0-2.7.88-2.7 2.176a2.415 2.415 0 0 0 1.984 2.321l.784.256c1.04.336 1.424.72 1.424 1.28a1.218 1.218 0 0 1-1.408 1.088 2.147 2.147 0 0 1-2.048-1.264l-1.12.608a3.178 3.178 0 0 0 3.136 1.856c1.608.001 2.776-.815 2.776-2.383zm4.272 1.152a1.184 1.184 0 1 0-1.184 1.2 1.205 1.205 0 0 0 1.19-1.199zm6.255-4.608a5.905 5.905 0 0 0 10.9 3.12l-1.248-.752a4.465 4.465 0 1 1 0-4.737l1.248-.752a5.905 5.905 0 0 0-10.896 3.122zm12.944 2.592c0 1.984 1.184 3.248 2.945 3.248a2.752 2.752 0 0 0 2.464-1.392v1.232h1.376v-8h-1.376v3.969c0 1.84-.976 2.928-2.224 2.928-1.105 0-1.809-.848-1.809-2.192v-4.705H734.9v4.913zm9.776 3.088h1.376v-3.968c0-1.872 1.1-2.753 2.113-2.753a2.011 2.011 0 0 1 .752.128v-1.424a2.851 2.851 0 0 0-.624-.064 2.381 2.381 0 0 0-2.241 1.632v-1.552h-1.376v8zm7.92-11.121a.966.966 0 0 0-.96-.976.994.994 0 0 0-.992.976.983.983 0 0 0 .992.976.956.956 0 0 0 .964-.975zm-1.664 11.121h1.376v-8h-1.376v8zm12.113-4a4.185 4.185 0 1 0-4.176 4.16 4.106 4.106 0 0 0 4.18-4.159zm-6.961 0a2.778 2.778 0 1 1 2.785 2.88 2.751 2.751 0 0 1-2.781-2.879zm9.216.912c0 1.984 1.184 3.248 2.944 3.248a2.755 2.755 0 0 0 2.465-1.392v1.232h1.376v-8h-1.376v3.969c0 1.84-.977 2.928-2.225 2.928-1.1 0-1.808-.848-1.808-2.192v-4.705H765.3v4.913zm14.96.864c0-1.2-.752-1.968-2.112-2.416l-.864-.288c-.944-.3-1.232-.608-1.232-1.121a1.132 1.132 0 0 1 1.344-.928 2.161 2.161 0 0 1 1.7.832l.9-.864a3.1 3.1 0 0 0-2.56-1.152c-1.584 0-2.7.88-2.7 2.176a2.415 2.415 0 0 0 1.984 2.321l.784.256c1.04.336 1.424.72 1.424 1.28a1.218 1.218 0 0 1-1.408 1.088 2.147 2.147 0 0 1-2.048-1.264l-1.12.608a3.178 3.178 0 0 0 3.136 1.856c1.608.001 2.776-.815 2.776-2.383zm4.08 1.872a1.368 1.368 0 0 0 .224-.72 1.184 1.184 0 1 0-2.368 0 1.191 1.191 0 0 0 .656 1.072l-1.073 2.289h.913zm14.352-1.632l-1.2-.672a2.712 2.712 0 0 1-2.5 1.536 2.882 2.882 0 0 1 0-5.761 2.711 2.711 0 0 1 2.5 1.537l1.2-.673a4.143 4.143 0 0 0-3.7-2.144 4.161 4.161 0 1 0 0 8.321 4.143 4.143 0 0 0 3.704-2.143zm9.9-2.016a4.185 4.185 0 1 0-4.176 4.16 4.106 4.106 0 0 0 4.184-4.159zm-6.961 0a2.778 2.778 0 1 1 2.785 2.88 2.751 2.751 0 0 1-2.777-2.879zm9.328 4h1.376v-3.968c0-1.872 1.024-2.929 2.32-2.929a1.921 1.921 0 0 1 1.889 2.177v4.72h1.36v-4.928a2.949 2.949 0 0 0-3.025-3.233 2.829 2.829 0 0 0-2.544 1.392v-1.232h-1.368v8zm9.824 0h1.376v-3.968c0-1.872 1.024-2.929 2.32-2.929a1.921 1.921 0 0 1 1.888 2.177v4.72h1.361v-4.928a2.949 2.949 0 0 0-3.025-3.233 2.829 2.829 0 0 0-2.544 1.392v-1.232h-1.376v8zm9.2-4a4.219 4.219 0 0 0 7.746 2.256l-1.089-.752a2.832 2.832 0 0 1-5.264-1.232h6.561a3.9 3.9 0 0 0 .016-.416 3.729 3.729 0 0 0-3.809-4.017 4.055 4.055 0 0 0-4.154 4.162zm4.124-2.945a2.394 2.394 0 0 1 2.448 2.1h-5.072a2.615 2.615 0 0 1 2.624-2.1zm13.472 4.961l-1.2-.672a2.712 2.712 0 0 1-2.5 1.536 2.882 2.882 0 0 1 0-5.761 2.711 2.711 0 0 1 2.5 1.537l1.2-.673a4.143 4.143 0 0 0-3.7-2.144 4.161 4.161 0 1 0 0 8.321 4.143 4.143 0 0 0 3.696-2.143zm6.512 1.872V591.8a3.041 3.041 0 0 1-.976.16 1.152 1.152 0 0 1-1.328-1.36v-4.193h2.3v-1.264h-2.3v-2.224h-1.38v2.224h-1.7v1.264h1.7v4.369a2.252 2.252 0 0 0 2.449 2.448 3.828 3.828 0 0 0 1.231-.19zm1.423-3.888a4.218 4.218 0 0 0 7.745 2.256l-1.088-.752a2.833 2.833 0 0 1-5.265-1.232h6.561a3.9 3.9 0 0 0 .016-.416 3.728 3.728 0 0 0-3.808-4.017 4.054 4.054 0 0 0-4.168 4.162zm4.113-2.945a2.394 2.394 0 0 1 2.448 2.1h-5.072a2.615 2.615 0 0 1 2.62-2.1zm5.583 2.945a4 4 0 0 0 3.921 4.16 3.508 3.508 0 0 0 2.816-1.392v1.232h1.376v-12h-1.376v5.232a3.508 3.508 0 0 0-2.816-1.392 4 4 0 0 0-3.924 4.161zm6.849 0a2.733 2.733 0 1 1-2.72-2.9 2.731 2.731 0 0 1 2.716 2.901zm7.935 0a4 4 0 0 0 3.92 4.16 3.509 3.509 0 0 0 2.817-1.392v1.232h1.376v-8h-1.38v1.232a3.509 3.509 0 0 0-2.817-1.392 4 4 0 0 0-3.92 4.161zm6.849 0a2.733 2.733 0 1 1-2.72-2.9 2.731 2.731 0 0 1 2.716 2.901zm4.255 4h1.376v-3.968c0-1.872 1.024-2.929 2.32-2.929a1.921 1.921 0 0 1 1.889 2.177v4.72h1.36v-4.928a2.949 2.949 0 0 0-3.025-3.233 2.829 2.829 0 0 0-2.544 1.392v-1.232h-1.376v8zm9.2-4a4 4 0 0 0 3.92 4.16 3.508 3.508 0 0 0 2.816-1.392v1.232h1.373v-12h-1.377v5.232a3.508 3.508 0 0 0-2.816-1.392 4 4 0 0 0-3.92 4.161zm6.849 0a2.733 2.733 0 1 1-2.721-2.9 2.732 2.732 0 0 1 2.717 2.901zm16.287 0a4.185 4.185 0 1 0-4.176 4.16 4.106 4.106 0 0 0 4.172-4.159zm-6.961 0a2.778 2.778 0 1 1 2.785 2.88 2.751 2.751 0 0 1-2.789-2.879zm9.216.912c0 1.984 1.184 3.248 2.944 3.248a2.753 2.753 0 0 0 2.465-1.392v1.232h1.376v-8h-1.376v3.969c0 1.84-.976 2.928-2.224 2.928-1.105 0-1.809-.848-1.809-2.192v-4.705h-1.376v4.913zm14.113 2.976V591.8a3.041 3.041 0 0 1-.976.16 1.152 1.152 0 0 1-1.329-1.36v-4.193h2.305v-1.264h-2.305v-2.224h-1.38v2.224h-1.7v1.264h1.7v4.369a2.252 2.252 0 0 0 2.448 2.448 3.83 3.83 0 0 0 1.233-.19zm8.127-11.009a.966.966 0 0 0-.96-.976.994.994 0 0 0-.992.976.983.983 0 0 0 .992.976.956.956 0 0 0 .956-.975zm-1.664 11.121h1.376v-8h-1.376v8zm4.384 0h1.376v-3.968c0-1.872 1.024-2.929 2.32-2.929a1.921 1.921 0 0 1 1.889 2.177v4.72h1.36v-4.928a2.949 2.949 0 0 0-3.025-3.233 2.829 2.829 0 0 0-2.544 1.392v-1.232h-1.376v8zm18.192-.112V591.8a3.041 3.041 0 0 1-.976.16 1.152 1.152 0 0 1-1.328-1.36v-4.193h2.3v-1.264h-2.3v-2.224h-1.377v2.224h-1.7v1.264h1.7v4.369a2.253 2.253 0 0 0 2.449 2.448 3.828 3.828 0 0 0 1.228-.19zm2.159.112h1.376v-3.968c0-1.872 1.025-2.929 2.321-2.929a1.921 1.921 0 0 1 1.888 2.177v4.72h1.36v-4.928a2.949 2.949 0 0 0-3.024-3.233 2.832 2.832 0 0 0-2.545 1.392v-5.232h-1.376v12zm9.2-4a4.218 4.218 0 0 0 7.745 2.256l-1.088-.752a2.833 2.833 0 0 1-5.265-1.232h6.561a3.9 3.9 0 0 0 .016-.416 3.728 3.728 0 0 0-3.808-4.017 4.054 4.054 0 0 0-4.165 4.162zm4.107-2.945a2.394 2.394 0 0 1 2.448 2.1h-5.073a2.616 2.616 0 0 1 2.625-2.1zm17.008 6.945h1.22l2.72-8h-1.46l-1.94 5.841-2-5.841H998.8l-2 5.841-1.936-5.841h-1.44l2.72 8h1.216l1.985-5.76zm13.52-4a4.185 4.185 0 1 0-4.18 4.16 4.109 4.109 0 0 0 4.182-4.159zm-6.96 0a2.777 2.777 0 1 1 2.78 2.88 2.75 2.75 0 0 1-2.778-2.879zm9.33 4h1.37v-3.968c0-1.872 1.11-2.753 2.12-2.753a2.021 2.021 0 0 1 .75.128v-1.424a2.929 2.929 0 0 0-.63-.064 2.388 2.388 0 0 0-2.24 1.632v-1.552h-1.37v8zm6.25 0h1.38v-12h-1.38v12zm3.76-4a4 4 0 0 0 3.92 4.16 3.519 3.519 0 0 0 2.82-1.392v1.232h1.38v-12h-1.38v5.232a3.519 3.519 0 0 0-2.82-1.392 4 4 0 0 0-3.918 4.161zm6.85 0a2.735 2.735 0 1 1-2.72-2.9 2.729 2.729 0 0 1 2.722 2.901zm5.97 3.648a1.347 1.347 0 0 0 .22-.72 1.185 1.185 0 1 0-1.71 1.072l-1.07 2.289h.91zM38.412 613.146a4.185 4.185 0 1 0-4.177 4.16 4.106 4.106 0 0 0 4.177-4.16zm-6.961 0a2.778 2.778 0 1 1 2.784 2.88 2.751 2.751 0 0 1-2.784-2.88zm9.216.912c0 1.984 1.184 3.248 2.944 3.248a2.753 2.753 0 0 0 2.464-1.392v1.232h1.376v-8h-1.376v3.969c0 1.84-.976 2.928-2.224 2.928-1.1 0-1.808-.848-1.808-2.192v-4.705h-1.377v4.913zm9.776 3.088h1.376v-3.968c0-1.873 1.1-2.753 2.112-2.753a2.012 2.012 0 0 1 .752.128v-1.424a2.852 2.852 0 0 0-.624-.064 2.38 2.38 0 0 0-2.24 1.632v-1.552h-1.377v8zm17.425-1.984l-1.2-.672a2.712 2.712 0 0 1-2.5 1.536 2.882 2.882 0 0 1 0-5.761 2.711 2.711 0 0 1 2.5 1.537l1.2-.673a4.144 4.144 0 0 0-3.7-2.144 4.161 4.161 0 1 0 0 8.321 4.144 4.144 0 0 0 3.699-2.144zm2.175 1.984h1.376v-12h-1.377v12zm12.113-4a4.185 4.185 0 1 0-4.177 4.16 4.106 4.106 0 0 0 4.176-4.16zm-6.961 0a2.778 2.778 0 1 1 2.784 2.88 2.751 2.751 0 0 1-2.785-2.88zm13.52 3.888V615.8a3.042 3.042 0 0 1-.976.16 1.152 1.152 0 0 1-1.328-1.36v-4.193h2.3v-1.264h-2.3v-2.224h-1.377v2.224h-1.7v1.264h1.7v4.369a2.252 2.252 0 0 0 2.448 2.448 3.83 3.83 0 0 0 1.233-.19zm2.159.112h1.376v-3.968c0-1.873 1.024-2.929 2.32-2.929a1.921 1.921 0 0 1 1.888 2.177v4.72h1.36v-4.928a2.949 2.949 0 0 0-3.024-3.233 2.829 2.829 0 0 0-2.544 1.392v-5.232h-1.376v12zm11.488-11.121a.966.966 0 0 0-.96-.976.994.994 0 0 0-.992.976.983.983 0 0 0 .992.976.956.956 0 0 0 .96-.976zm-1.662 11.121h1.376v-8H100.7v8zm4.384 0h1.376v-3.968c0-1.873 1.024-2.929 2.32-2.929a1.921 1.921 0 0 1 1.888 2.177v4.72h1.361v-4.928a2.949 2.949 0 0 0-3.029-3.233 2.829 2.829 0 0 0-2.544 1.392v-1.232h-1.376v8zm17.28-.464v-7.537h-1.376v1.232a3.4 3.4 0 0 0-2.784-1.392 4.076 4.076 0 0 0 0 8.145 3.416 3.416 0 0 0 2.784-1.408v.912a2.558 2.558 0 0 1-2.672 2.769 3.424 3.424 0 0 1-2.8-1.345l-.96.961a4.752 4.752 0 0 0 3.777 1.632 3.7 3.7 0 0 0 4.029-3.969zm-6.673-3.632a2.706 2.706 0 1 1 2.705 2.8 2.667 2.667 0 0 1-2.707-2.8zm15.632-7.025a.966.966 0 0 0-.96-.976.994.994 0 0 0-.992.976.983.983 0 0 0 .992.976.956.956 0 0 0 .958-.976zm-1.664 11.121h1.376v-8h-1.376v8zm9.569-2.224c0-1.2-.752-1.968-2.113-2.416l-.864-.288c-.944-.3-1.232-.608-1.232-1.121a1.132 1.132 0 0 1 1.344-.928 2.161 2.161 0 0 1 1.7.832l.9-.864a3.106 3.106 0 0 0-2.561-1.152c-1.584 0-2.7.88-2.7 2.176a2.415 2.415 0 0 0 1.984 2.321l.784.256c1.04.336 1.424.72 1.424 1.28a1.218 1.218 0 0 1-1.408 1.088 2.147 2.147 0 0 1-2.048-1.264l-1.12.608a3.178 3.178 0 0 0 3.136 1.856c1.603 0 2.772-.816 2.772-2.384zm6.046-1.776a4 4 0 0 0 3.921 4.16 3.508 3.508 0 0 0 2.816-1.392v1.232h1.377v-12h-1.377v5.232a3.508 3.508 0 0 0-2.816-1.392 4 4 0 0 0-3.923 4.16zm6.849 0a2.733 2.733 0 1 1-2.72-2.9 2.731 2.731 0 0 1 2.718 2.9zm3.631 0a4.218 4.218 0 0 0 7.746 2.254l-1.088-.752a2.833 2.833 0 0 1-5.265-1.232h6.561a3.9 3.9 0 0 0 .016-.416 3.728 3.728 0 0 0-3.808-4.017 4.055 4.055 0 0 0-4.164 4.163zm4.113-2.945a2.394 2.394 0 0 1 2.448 2.1h-5.075a2.617 2.617 0 0 1 2.625-2.101zm11.392 4.721c0-1.2-.752-1.968-2.112-2.416l-.864-.288c-.945-.3-1.233-.608-1.233-1.121a1.133 1.133 0 0 1 1.345-.928 2.161 2.161 0 0 1 1.7.832l.9-.864a3.1 3.1 0 0 0-2.56-1.152c-1.585 0-2.705.88-2.705 2.176a2.414 2.414 0 0 0 1.985 2.321l.784.256c1.04.336 1.424.72 1.424 1.28a1.218 1.218 0 0 1-1.408 1.088 2.147 2.147 0 0 1-2.049-1.264l-1.12.608a3.178 3.178 0 0 0 3.137 1.856c1.606 0 2.774-.816 2.774-2.384zm4.031-8.9a.966.966 0 0 0-.96-.976.994.994 0 0 0-.992.976.983.983 0 0 0 .992.976.956.956 0 0 0 .958-.973zm-1.664 11.121H175v-8h-1.376v8zm11.841-.464v-7.537h-1.376v1.232a3.4 3.4 0 0 0-2.785-1.392 4.076 4.076 0 0 0 0 8.145 3.417 3.417 0 0 0 2.785-1.408v.912a2.558 2.558 0 0 1-2.673 2.769 3.42 3.42 0 0 1-2.8-1.345l-.96.961a4.75 4.75 0 0 0 3.777 1.632 3.7 3.7 0 0 0 4.03-3.966zm-6.673-3.632a2.706 2.706 0 1 1 2.705 2.8 2.667 2.667 0 0 1-2.707-2.797zm9.664 4.1h1.376v-3.968c0-1.873 1.024-2.929 2.32-2.929a1.921 1.921 0 0 1 1.889 2.177v4.72h1.36v-4.928a2.949 2.949 0 0 0-3.025-3.233 2.829 2.829 0 0 0-2.544 1.392v-1.232h-1.376v8zm9.2-4a4.218 4.218 0 0 0 7.742 2.253l-1.088-.752a2.833 2.833 0 0 1-5.265-1.232h6.561a3.9 3.9 0 0 0 .016-.416 3.729 3.729 0 0 0-3.809-4.017 4.054 4.054 0 0 0-4.159 4.163zm4.112-2.945a2.4 2.4 0 0 1 2.449 2.1h-5.073a2.615 2.615 0 0 1 2.622-2.102zm5.583 2.945a4 4 0 0 0 3.921 4.16 3.508 3.508 0 0 0 2.816-1.392v1.232h1.377v-12h-1.377v5.232a3.508 3.508 0 0 0-2.816-1.392 4 4 0 0 0-3.923 4.159zm6.849 0a2.733 2.733 0 1 1-2.72-2.9 2.731 2.731 0 0 1 2.718 2.899zm9.024 4h1.374v-6.737h2.32v-1.264h-2.32v-1.472a1.152 1.152 0 0 1 1.328-1.36 3.222 3.222 0 0 1 .992.16v-1.216a3.636 3.636 0 0 0-1.248-.208 2.285 2.285 0 0 0-2.448 2.48v1.616h-1.7v1.264h1.7v6.737zm13.121-4a4.185 4.185 0 1 0-4.177 4.16 4.107 4.107 0 0 0 4.175-4.161zm-6.961 0a2.778 2.778 0 1 1 2.784 2.88 2.751 2.751 0 0 1-2.786-2.881zm9.327 4h1.377v-3.968c0-1.873 1.1-2.753 2.112-2.753a2.011 2.011 0 0 1 .752.128v-1.424a2.851 2.851 0 0 0-.624-.064 2.38 2.38 0 0 0-2.24 1.632v-1.552h-1.377v8zm9.536-4a4 4 0 0 0 3.921 4.16 3.508 3.508 0 0 0 2.816-1.392v1.232h1.376v-8h-1.376v1.232a3.508 3.508 0 0 0-2.816-1.392 4 4 0 0 0-3.923 4.159zm6.849 0a2.733 2.733 0 1 1-2.72-2.9 2.731 2.731 0 0 1 2.722 2.899zm8.559 4h1.376v-12h-1.376v12zm6.048-11.121a.966.966 0 0 0-.96-.976.994.994 0 0 0-.992.976.983.983 0 0 0 .992.976.956.956 0 0 0 .955-.977zm-1.664 11.121h1.376v-8h-1.376v8zm5.056 0h1.376v-6.737h2.32v-1.264h-2.32v-1.472a1.152 1.152 0 0 1 1.328-1.36 3.222 3.222 0 0 1 .992.16v-1.216a3.636 3.636 0 0 0-1.248-.208 2.285 2.285 0 0 0-2.448 2.48v1.616h-1.7v1.264h1.7v6.737zm4.768-4a4.218 4.218 0 0 0 7.745 2.256l-1.089-.752a2.832 2.832 0 0 1-5.264-1.232h6.561a3.9 3.9 0 0 0 .016-.416 3.729 3.729 0 0 0-3.809-4.017 4.054 4.054 0 0 0-4.162 4.16zm4.112-2.945a2.394 2.394 0 0 1 2.448 2.1h-5.072a2.615 2.615 0 0 1 2.622-2.102zm12.176-4.176a.966.966 0 0 0-.961-.976.994.994 0 0 0-.992.976.983.983 0 0 0 .992.976.957.957 0 0 0 .959-.977zm-1.665 11.121h1.377v-8h-1.377v8zm4.384 0h1.376v-3.968c0-1.873 1.025-2.929 2.321-2.929a1.921 1.921 0 0 1 1.888 2.177v4.72h1.36v-4.928a2.949 2.949 0 0 0-3.024-3.233 2.831 2.831 0 0 0-2.545 1.392v-1.232h-1.378v8zm14.128 0h1.376v-3.968c0-1.808.912-2.929 2.208-2.929 1.041 0 1.569.9 1.569 2.193v4.7h1.376v-3.968c0-1.808.9-2.929 2.192-2.929 1.04 0 1.584.9 1.584 2.193v4.7h1.377v-4.912c0-1.953-1.057-3.249-2.8-3.249a2.769 2.769 0 0 0-2.624 1.712 2.515 2.515 0 0 0-2.465-1.712 2.689 2.689 0 0 0-2.416 1.392v-1.232H311v8zm22.289-4a4.185 4.185 0 1 0-4.177 4.16 4.106 4.106 0 0 0 4.175-4.161zm-6.961 0a2.778 2.778 0 1 1 2.784 2.88 2.751 2.751 0 0 1-2.786-2.881zm13.52 3.888V615.8a3.041 3.041 0 0 1-.976.16 1.152 1.152 0 0 1-1.328-1.36v-4.193h2.3v-1.264h-2.3v-2.224h-1.376v2.224h-1.7v1.264h1.7v4.369a2.252 2.252 0 0 0 2.448 2.448 3.828 3.828 0 0 0 1.23-.19zm3.824-11.009a.966.966 0 0 0-.96-.976.994.994 0 0 0-.992.976.983.983 0 0 0 .992.976.956.956 0 0 0 .958-.977zm-1.664 11.121h1.376v-8h-1.376v8zm12.113-4a4.185 4.185 0 1 0-4.177 4.16 4.107 4.107 0 0 0 4.175-4.161zm-6.961 0a2.778 2.778 0 1 1 2.784 2.88 2.751 2.751 0 0 1-2.786-2.881zm9.327 4h1.377v-3.968c0-1.873 1.024-2.929 2.32-2.929a1.921 1.921 0 0 1 1.888 2.177v4.72h1.36v-4.928a2.949 2.949 0 0 0-3.024-3.233 2.829 2.829 0 0 0-2.544 1.392v-1.232h-1.377v8zm11.728-1.072a1.184 1.184 0 1 0-1.184 1.2 1.205 1.205 0 0 0 1.182-1.201zm15.521 1.072h1.329l3.1-11.361h-1.552l-2.385 8.865-3.28-9.057-3.264 9.057-2.385-8.865h-1.552l3.1 11.361h1.329l2.784-7.713zm5.391-4a4.218 4.218 0 0 0 7.745 2.256l-1.088-.752a2.833 2.833 0 0 1-5.265-1.232h6.561a3.9 3.9 0 0 0 .016-.416 3.728 3.728 0 0 0-3.808-4.017 4.054 4.054 0 0 0-4.163 4.16zm4.112-2.945a2.394 2.394 0 0 1 2.449 2.1h-5.073a2.615 2.615 0 0 1 2.622-2.102zm14.576 6.833V615.8a3.041 3.041 0 0 1-.976.16 1.152 1.152 0 0 1-1.328-1.36v-4.193h2.3v-1.264h-2.3v-2.224h-1.376v2.224h-1.7v1.264h1.7v4.369a2.252 2.252 0 0 0 2.448 2.448 3.828 3.828 0 0 0 1.23-.19zm2.16.112h1.376v-3.968c0-1.873 1.1-2.753 2.112-2.753a2.011 2.011 0 0 1 .752.128v-1.424a2.851 2.851 0 0 0-.624-.064 2.38 2.38 0 0 0-2.24 1.632v-1.552h-1.376v8zm5.36-4a4 4 0 0 0 3.92 4.16 3.512 3.512 0 0 0 2.817-1.392v1.232h1.376v-8h-1.378v1.232a3.512 3.512 0 0 0-2.817-1.392 4 4 0 0 0-3.92 4.159zm6.849 0a2.733 2.733 0 1 1-2.721-2.9 2.732 2.732 0 0 1 2.719 2.899zm6.751 4h1.152l3.7-8h-1.537l-2.736 6.049-2.736-6.049h-1.537zm5.84-4a4.218 4.218 0 0 0 7.745 2.256l-1.089-.752a2.832 2.832 0 0 1-5.264-1.232h6.561a3.9 3.9 0 0 0 .016-.416 3.729 3.729 0 0 0-3.809-4.017 4.054 4.054 0 0 0-4.162 4.16zm4.112-2.945a2.394 2.394 0 0 1 2.448 2.1h-5.072a2.615 2.615 0 0 1 2.622-2.102zm6.208 6.945h1.376v-12h-1.376v12zm8.687 0h1.376v-3.968c0-1.873 1.025-2.929 2.321-2.929a1.921 1.921 0 0 1 1.888 2.177v4.72h1.36v-4.928a2.949 2.949 0 0 0-3.024-3.233 2.831 2.831 0 0 0-2.545 1.392v-1.232h-1.378v8zm9.2-4a4.218 4.218 0 0 0 7.745 2.256l-1.088-.752a2.833 2.833 0 0 1-5.265-1.232h6.561a3.9 3.9 0 0 0 .016-.416 3.728 3.728 0 0 0-3.808-4.017 4.054 4.054 0 0 0-4.163 4.16zm4.113-2.945a2.394 2.394 0 0 1 2.448 2.1h-5.073a2.616 2.616 0 0 1 2.623-2.102zm5.583 2.945a4 4 0 0 0 3.92 4.16 3.509 3.509 0 0 0 2.817-1.392v1.232h1.376v-8h-1.376v1.232a3.509 3.509 0 0 0-2.817-1.392 4 4 0 0 0-3.922 4.159zm6.849 0a2.733 2.733 0 1 1-2.721-2.9 2.732 2.732 0 0 1 2.719 2.899zm4.255 4h1.376v-3.968c0-1.873 1.1-2.753 2.112-2.753a2.011 2.011 0 0 1 .752.128v-1.424a2.851 2.851 0 0 0-.624-.064 2.38 2.38 0 0 0-2.24 1.632v-1.552h-1.378v8zm9.536-4a4 4 0 0 0 3.92 4.16 3.512 3.512 0 0 0 2.817-1.392v1.232h1.376v-8h-1.376v1.232a3.512 3.512 0 0 0-2.817-1.392 4 4 0 0 0-3.922 4.159zm6.848 0a2.733 2.733 0 1 1-2.72-2.9 2.731 2.731 0 0 1 2.718 2.899zm4.255 4h1.379v-3.968c0-1.873 1.024-2.929 2.32-2.929a1.921 1.921 0 0 1 1.88 2.176v4.72h1.36v-4.928a2.949 2.949 0 0 0-3.024-3.233 2.829 2.829 0 0 0-2.544 1.392v-1.232h-1.377v8zm9.2-4a4 4 0 0 0 3.921 4.16 3.508 3.508 0 0 0 2.816-1.392v1.232h1.376v-12h-1.376v5.232a3.508 3.508 0 0 0-2.816-1.392 4 4 0 0 0-3.923 4.159zm6.849 0a2.733 2.733 0 1 1-2.72-2.9 2.731 2.731 0 0 1 2.718 2.899zm9.023 4h1.377v-6.737h2.32v-1.264h-2.32v-1.472a1.152 1.152 0 0 1 1.328-1.36 3.222 3.222 0 0 1 .992.16v-1.216a3.636 3.636 0 0 0-1.248-.208 2.285 2.285 0 0 0-2.449 2.48v1.616h-1.7v1.264h1.7v6.737zm4.768-4a4 4 0 0 0 3.921 4.16 3.508 3.508 0 0 0 2.818-1.393v1.232h1.376v-8H541v1.232a3.508 3.508 0 0 0-2.816-1.392 4 4 0 0 0-3.925 4.16zm6.849 0a2.733 2.733 0 1 1-2.72-2.9 2.731 2.731 0 0 1 2.718 2.899zm4.255 4h1.376v-3.968c0-1.873 1.105-2.753 2.113-2.753a2.011 2.011 0 0 1 .752.128v-1.424a2.851 2.851 0 0 0-.624-.064 2.381 2.381 0 0 0-2.241 1.632v-1.552h-1.376v8zm15.345-2.224c0-1.2-.752-1.968-2.113-2.416l-.864-.288c-.944-.3-1.232-.608-1.232-1.121a1.132 1.132 0 0 1 1.344-.928 2.163 2.163 0 0 1 1.7.832l.9-.864a3.1 3.1 0 0 0-2.561-1.152c-1.584 0-2.7.88-2.7 2.176a2.415 2.415 0 0 0 1.984 2.321l.784.256c1.041.336 1.425.72 1.425 1.28a1.218 1.218 0 0 1-1.409 1.088 2.147 2.147 0 0 1-2.048-1.264l-1.12.608a3.178 3.178 0 0 0 3.136 1.856c1.604-.001 2.772-.817 2.772-2.385zm1.743-1.776a4.218 4.218 0 0 0 7.747 2.253l-1.088-.752a2.833 2.833 0 0 1-5.265-1.232h6.553a3.9 3.9 0 0 0 .02-.416 3.728 3.728 0 0 0-3.809-4.017 4.054 4.054 0 0 0-4.16 4.163zm4.112-2.945a2.394 2.394 0 0 1 2.449 2.1h-5.073a2.615 2.615 0 0 1 2.622-2.102zm5.584 2.945a4 4 0 0 0 3.92 4.16 3.51 3.51 0 0 0 2.817-1.392v1.232h1.376v-8h-1.376v1.232a3.51 3.51 0 0 0-2.817-1.392 4 4 0 0 0-3.922 4.159zm6.849 0a2.733 2.733 0 1 1-2.721-2.9 2.732 2.732 0 0 1 2.723 2.899zm4.255 4h1.376v-3.968c0-1.873 1.1-2.753 2.112-2.753a2.011 2.011 0 0 1 .752.128v-1.424a2.851 2.851 0 0 0-.624-.064 2.38 2.38 0 0 0-2.24 1.632v-1.552h-1.376v8zm13.233-1.984l-1.2-.672a2.713 2.713 0 0 1-2.5 1.536 2.882 2.882 0 0 1 0-5.761 2.712 2.712 0 0 1 2.5 1.537l1.2-.673a4.143 4.143 0 0 0-3.7-2.144 4.161 4.161 0 1 0 0 8.321 4.143 4.143 0 0 0 3.698-2.145zm2.175 1.984h1.376v-3.968c0-1.873 1.024-2.929 2.32-2.929a1.921 1.921 0 0 1 1.888 2.177v4.72h1.355v-4.928a2.949 2.949 0 0 0-3.025-3.233 2.829 2.829 0 0 0-2.544 1.392v-5.232h-1.376v12zm11.488-11.121a.966.966 0 0 0-.961-.976.994.994 0 0 0-.992.976.983.983 0 0 0 .992.976.957.957 0 0 0 .959-.977zm-1.665 11.121h1.377v-8h-1.377v8zm4.384 0h1.376v-3.968c0-1.873 1.025-2.929 2.321-2.929a1.921 1.921 0 0 1 1.888 2.177v4.72h1.36v-4.928a2.949 2.949 0 0 0-3.024-3.233 2.832 2.832 0 0 0-2.545 1.392v-1.232h-1.376v8zm17.281-.464v-7.537h-1.376v1.232a3.4 3.4 0 0 0-2.784-1.392 4.076 4.076 0 0 0 0 8.145 3.416 3.416 0 0 0 2.784-1.408v.912a2.558 2.558 0 0 1-2.673 2.765 3.421 3.421 0 0 1-2.8-1.345l-.96.961a4.75 4.75 0 0 0 3.777 1.632 3.7 3.7 0 0 0 4.03-3.966zm-6.673-3.632a2.706 2.706 0 1 1 2.7 2.8 2.667 2.667 0 0 1-2.702-2.801zm14.432 4.1h1.376v-6.737h2.316v-1.264h-2.321v-1.472a1.152 1.152 0 0 1 1.329-1.36 3.222 3.222 0 0 1 .992.16v-1.216a3.638 3.638 0 0 0-1.249-.208 2.285 2.285 0 0 0-2.448 2.48v1.616h-1.7v1.264h1.7v6.737zm13.121-4a4.185 4.185 0 1 0-4.176 4.16 4.106 4.106 0 0 0 4.174-4.165zm-6.961 0a2.778 2.778 0 1 1 2.785 2.88 2.751 2.751 0 0 1-2.787-2.885zm9.328 4h1.376v-3.968c0-1.873 1.1-2.753 2.112-2.753a2.016 2.016 0 0 1 .753.128v-1.424a2.86 2.86 0 0 0-.625-.064 2.38 2.38 0 0 0-2.24 1.632v-1.552h-1.376v8zm14.224-.112V615.8a3.041 3.041 0 0 1-.976.16 1.152 1.152 0 0 1-1.328-1.36v-4.193h2.3v-1.264h-2.3v-2.224h-1.376v2.224h-1.7v1.264h1.7v4.369a2.252 2.252 0 0 0 2.448 2.448 3.828 3.828 0 0 0 1.23-.19zm2.16.112h1.376v-3.968c0-1.873 1.024-2.929 2.32-2.929a1.921 1.921 0 0 1 1.889 2.177v4.72h1.36v-4.928a2.949 2.949 0 0 0-3.025-3.233 2.829 2.829 0 0 0-2.544 1.392v-5.232h-1.376v12zm9.2-4a4.218 4.218 0 0 0 7.745 2.256l-1.089-.752a2.832 2.832 0 0 1-5.264-1.232h6.561a3.9 3.9 0 0 0 .016-.416 3.729 3.729 0 0 0-3.809-4.017 4.054 4.054 0 0 0-4.162 4.156zm4.112-2.945a2.394 2.394 0 0 1 2.448 2.1h-5.072a2.615 2.615 0 0 1 2.622-2.106zm10.976 6.945h1.376v-6.737h2.32v-1.264h-2.32v-1.472a1.152 1.152 0 0 1 1.328-1.36 3.222 3.222 0 0 1 .992.16v-1.216a3.636 3.636 0 0 0-1.248-.208 2.285 2.285 0 0 0-2.448 2.48v1.616h-1.7v1.264h1.7v6.737zm6.865-11.121a.966.966 0 0 0-.961-.976.994.994 0 0 0-.992.976.983.983 0 0 0 .992.976.957.957 0 0 0 .959-.981zm-1.665 11.121h1.377v-8h-1.377v8zm4.367 0h1.377v-3.968c0-1.873 1.024-2.929 2.32-2.929a1.921 1.921 0 0 1 1.888 2.177v4.72h1.36v-4.928a2.949 2.949 0 0 0-3.024-3.233 2.829 2.829 0 0 0-2.544 1.392v-1.232h-1.377v8zm9.2-4a4.218 4.218 0 0 0 7.745 2.256l-1.088-.752a2.833 2.833 0 0 1-5.265-1.232h6.561a3.9 3.9 0 0 0 .012-.423 3.728 3.728 0 0 0-3.808-4.017 4.054 4.054 0 0 0-4.159 4.163zm4.113-2.945a2.394 2.394 0 0 1 2.448 2.1h-5.073a2.616 2.616 0 0 1 2.623-2.106zm11.392 4.721c0-1.2-.752-1.968-2.112-2.416l-.864-.288c-.945-.3-1.233-.608-1.233-1.121a1.133 1.133 0 0 1 1.345-.928 2.161 2.161 0 0 1 1.7.832l.9-.864a3.1 3.1 0 0 0-2.56-1.152c-1.585 0-2.7.88-2.7 2.176a2.415 2.415 0 0 0 1.984 2.321l.785.256c1.04.336 1.424.72 1.424 1.28a1.218 1.218 0 0 1-1.408 1.088 2.147 2.147 0 0 1-2.049-1.264l-1.12.608a3.178 3.178 0 0 0 3.137 1.856c1.601-.005 2.769-.821 2.769-2.389zm6.608 2.112V615.8a3.041 3.041 0 0 1-.976.16 1.152 1.152 0 0 1-1.329-1.36v-4.193h2.305v-1.264h-2.305v-2.224h-1.376v2.224h-1.7v1.264h1.7v4.369a2.252 2.252 0 0 0 2.449 2.448 3.828 3.828 0 0 0 1.23-.19zm6.463.112h1.376v-3.968c0-1.808.912-2.929 2.208-2.929 1.041 0 1.569.9 1.569 2.193v4.7h1.376v-3.968c0-1.808.9-2.929 2.192-2.929 1.04 0 1.584.9 1.584 2.193v4.7h1.377v-4.912c0-1.953-1.057-3.249-2.8-3.249a2.769 2.769 0 0 0-2.624 1.712 2.515 2.515 0 0 0-2.465-1.712 2.689 2.689 0 0 0-2.416 1.392v-1.232h-1.376v8zm13.936-4a4 4 0 0 0 3.92 4.16 3.51 3.51 0 0 0 2.817-1.392v1.232h1.376v-8h-1.376v1.232a3.51 3.51 0 0 0-2.817-1.392 4 4 0 0 0-3.922 4.155zm6.849 0a2.733 2.733 0 1 1-2.721-2.9 2.732 2.732 0 0 1 2.719 2.895zm8.591 3.888V615.8a3.041 3.041 0 0 1-.976.16 1.152 1.152 0 0 1-1.328-1.36v-4.193h2.3v-1.264h-2.3v-2.224h-1.376v2.224h-1.7v1.264h1.7v4.369a2.252 2.252 0 0 0 2.448 2.448 3.828 3.828 0 0 0 1.23-.19zm1.424-3.888a4.218 4.218 0 0 0 7.745 2.256l-1.088-.752a2.833 2.833 0 0 1-5.265-1.232h6.561a3.9 3.9 0 0 0 .016-.416 3.728 3.728 0 0 0-3.809-4.017 4.054 4.054 0 0 0-4.162 4.156zm4.112-2.945a2.394 2.394 0 0 1 2.449 2.1H773.7a2.615 2.615 0 0 1 2.621-2.106zm6.208 6.945h1.376v-3.968c0-1.873 1.1-2.753 2.112-2.753a2.011 2.011 0 0 1 .752.128v-1.424a2.851 2.851 0 0 0-.624-.064 2.38 2.38 0 0 0-2.24 1.632v-1.552h-1.376v8zm7.92-11.121a.966.966 0 0 0-.96-.976.994.994 0 0 0-.992.976.983.983 0 0 0 .992.976.956.956 0 0 0 .958-.981zm-1.664 11.121h1.376v-8h-1.376v8zm3.759-4a4 4 0 0 0 3.921 4.16 3.508 3.508 0 0 0 2.816-1.392v1.232h1.377v-8h-1.377v1.232a3.508 3.508 0 0 0-2.816-1.392 4 4 0 0 0-3.923 4.155zm6.85 0a2.733 2.733 0 1 1-2.721-2.9 2.732 2.732 0 0 1 2.719 2.895zm4.254 4h1.377v-12h-1.377v12zm9.569-2.224c0-1.2-.752-1.968-2.112-2.416l-.864-.288c-.944-.3-1.232-.608-1.232-1.121a1.132 1.132 0 0 1 1.344-.928 2.161 2.161 0 0 1 1.7.832l.9-.864a3.1 3.1 0 0 0-2.56-1.152c-1.585 0-2.705.88-2.705 2.176a2.414 2.414 0 0 0 1.985 2.321l.784.256c1.04.336 1.424.72 1.424 1.28a1.218 1.218 0 0 1-1.408 1.088 2.148 2.148 0 0 1-2.049-1.264l-1.12.608a3.178 3.178 0 0 0 3.137 1.856c1.606-.005 2.774-.821 2.774-2.389zm6.047-1.776a4 4 0 0 0 3.921 4.16 3.508 3.508 0 0 0 2.813-1.397v1.232h1.376v-8H826v1.232a3.508 3.508 0 0 0-2.816-1.392 4 4 0 0 0-3.92 4.16zm6.849 0a2.733 2.733 0 1 1-2.72-2.9 2.731 2.731 0 0 1 2.718 2.895zm4.255 4h1.376v-3.968c0-1.873 1.024-2.929 2.32-2.929a1.921 1.921 0 0 1 1.889 2.177v4.72h1.36v-4.928a2.949 2.949 0 0 0-3.025-3.233 2.829 2.829 0 0 0-2.544 1.392v-1.232h-1.376v8zm9.2-4a4 4 0 0 0 3.92 4.16 3.51 3.51 0 0 0 2.817-1.392v1.232h1.376v-12h-1.376v5.232a3.51 3.51 0 0 0-2.817-1.392 4 4 0 0 0-3.922 4.155zm6.849 0a2.733 2.733 0 1 1-2.721-2.9 2.732 2.732 0 0 1 2.719 2.895zm9.023 4h1.376v-6.737h2.32v-1.264h-2.32v-1.472a1.152 1.152 0 0 1 1.328-1.36 3.222 3.222 0 0 1 .992.16v-1.216a3.636 3.636 0 0 0-1.248-.208 2.285 2.285 0 0 0-2.448 2.48v1.616h-1.7v1.264h1.7v6.737zm4.768-4a4 4 0 0 0 3.92 4.16 3.512 3.512 0 0 0 2.817-1.392v1.232h1.376v-8h-1.376v1.232a3.512 3.512 0 0 0-2.817-1.392 4 4 0 0 0-3.922 4.155zm6.849 0a2.733 2.733 0 1 1-2.721-2.9 2.732 2.732 0 0 1 2.719 2.895zm5.631 2.768a3.508 3.508 0 0 0 2.816 1.392 4.168 4.168 0 0 0 0-8.321 3.508 3.508 0 0 0-2.816 1.392v-5.232h-1.376v12h1.376v-1.232zm5.328-2.768a2.725 2.725 0 1 1-2.72-2.9 2.731 2.731 0 0 1 2.718 2.895zm3.775 4h1.377v-3.968c0-1.873 1.1-2.753 2.112-2.753a2.011 2.011 0 0 1 .752.128v-1.424a2.851 2.851 0 0 0-.624-.064 2.38 2.38 0 0 0-2.24 1.632v-1.552h-1.377v8zm7.921-11.121a.966.966 0 0 0-.961-.976.994.994 0 0 0-.992.976.983.983 0 0 0 .992.976.957.957 0 0 0 .959-.981zm-1.665 11.121h1.377v-8h-1.377v8zm11.649-1.984l-1.2-.672a2.712 2.712 0 0 1-2.5 1.536 2.882 2.882 0 0 1 0-5.761 2.711 2.711 0 0 1 2.5 1.537l1.2-.673a4.143 4.143 0 0 0-3.7-2.144 4.161 4.161 0 1 0 0 8.321 4.143 4.143 0 0 0 3.702-2.149zm8.143-9.137a.966.966 0 0 0-.96-.976.994.994 0 0 0-.992.976.983.983 0 0 0 .992.976.956.956 0 0 0 .958-.981zm-1.664 11.121h1.376v-8h-1.376v8zm4.384 0h1.376v-3.968c0-1.873 1.024-2.929 2.32-2.929a1.921 1.921 0 0 1 1.889 2.177v4.72h1.36v-4.928a2.949 2.949 0 0 0-3.025-3.233 2.829 2.829 0 0 0-2.544 1.392v-1.232h-1.376v8zm9.824 0h1.376v-3.968c0-1.873 1.024-2.929 2.32-2.929a1.921 1.921 0 0 1 1.888 2.177v4.72h1.361v-4.928a2.949 2.949 0 0 0-3.025-3.233 2.829 2.829 0 0 0-2.544 1.392v-1.232h-1.376v8zm17.553-4a4.185 4.185 0 1 0-4.177 4.16 4.107 4.107 0 0 0 4.175-4.165zm-6.961 0a2.778 2.778 0 1 1 2.784 2.88 2.751 2.751 0 0 1-2.786-2.885zm11.648 4h1.152l3.7-8h-1.536l-2.736 6.049-2.736-6.049h-1.537zm5.855-4a4 4 0 0 0 3.921 4.16 3.508 3.508 0 0 0 2.816-1.392v1.232h1.376v-8h-1.376v1.232a3.508 3.508 0 0 0-2.816-1.392 4 4 0 0 0-3.923 4.155zm6.849 0a2.733 2.733 0 1 1-2.72-2.9 2.731 2.731 0 0 1 2.718 2.895zm8.592 3.888V615.8a3.041 3.041 0 0 1-.976.16 1.152 1.152 0 0 1-1.329-1.36v-4.193h2.3v-1.264h-2.3v-2.224h-1.376v2.224h-1.7v1.264h1.7v4.369a2.252 2.252 0 0 0 2.449 2.448 3.828 3.828 0 0 0 1.23-.19zm3.823-11.009a.966.966 0 0 0-.96-.976.994.994 0 0 0-.992.976.983.983 0 0 0 .992.976.956.956 0 0 0 .958-.981zm-1.664 11.121h1.376v-8h-1.376v8zm12.113-4a4.185 4.185 0 1 0-4.177 4.16 4.106 4.106 0 0 0 4.175-4.165zm-6.961 0a2.778 2.778 0 1 1 2.784 2.88 2.751 2.751 0 0 1-2.786-2.885zm9.328 4h1.376v-3.968c0-1.873 1.024-2.929 2.32-2.929a1.921 1.921 0 0 1 1.889 2.177v4.72h1.36v-4.928a2.949 2.949 0 0 0-3.025-3.233 2.829 2.829 0 0 0-2.544 1.392v-1.232h-1.376v8zm15.008-2.224c0-1.2-.752-1.968-2.112-2.416l-.864-.288c-.944-.3-1.232-.608-1.232-1.121a1.132 1.132 0 0 1 1.344-.928 2.161 2.161 0 0 1 1.7.832l.9-.864a3.1 3.1 0 0 0-2.56-1.152c-1.584 0-2.7.88-2.7 2.176a2.415 2.415 0 0 0 1.984 2.321l.784.256c1.04.336 1.424.72 1.424 1.28a1.218 1.218 0 0 1-1.408 1.088 2.147 2.147 0 0 1-2.048-1.264l-1.12.608a3.178 3.178 0 0 0 3.136 1.856c1.604-.005 2.77-.821 2.77-2.389zm10.734 2.112V615.8a3 3 0 0 1-.97.16 1.151 1.151 0 0 1-1.33-1.36v-4.193h2.3v-1.264H1004v-2.224h-1.38v2.224h-1.69v1.264h1.69v4.369a2.254 2.254 0 0 0 2.45 2.448 3.769 3.769 0 0 0 1.23-.19zm9.78-3.888a4.185 4.185 0 1 0-4.18 4.16 4.109 4.109 0 0 0 4.178-4.165zm-6.96 0a2.777 2.777 0 1 1 2.78 2.88 2.75 2.75 0 0 1-2.782-2.885zm15.29-7.121a.962.962 0 0 0-.96-.976 1 1 0 0 0-.99.976.984.984 0 0 0 .99.976.953.953 0 0 0 .958-.981zm-1.66 11.121h1.38v-8h-1.38v8zm4.38 0h1.38v-3.968c0-1.873 1.02-2.929 2.32-2.929a1.922 1.922 0 0 1 1.89 2.177v4.72h1.36v-4.928a2.949 2.949 0 0 0-3.03-3.233 2.818 2.818 0 0 0-2.54 1.392v-1.232h-1.38v8zm10.4 0h1.38v-6.737h2.32v-1.264h-2.32v-1.472a1.153 1.153 0 0 1 1.33-1.36 3.229 3.229 0 0 1 .99.16v-1.216a3.64 3.64 0 0 0-1.25-.208 2.287 2.287 0 0 0-2.45 2.48v1.616h-1.69v1.264h1.69v6.737zm5.49-3.088c0 1.984 1.18 3.248 2.95 3.248a2.757 2.757 0 0 0 2.46-1.392v1.232h1.38v-8h-1.38v3.969c0 1.84-.98 2.928-2.22 2.928-1.11 0-1.81-.848-1.81-2.192v-4.705h-1.38v4.913zm14.96.864c0-1.2-.75-1.968-2.11-2.416l-.86-.288c-.95-.3-1.24-.608-1.24-1.121a1.134 1.134 0 0 1 1.35-.928 2.138 2.138 0 0 1 1.69.832l.9-.864a3.1 3.1 0 0 0-2.56-1.152c-1.59 0-2.71.88-2.71 2.176a2.416 2.416 0 0 0 1.99 2.321l.78.256c1.04.336 1.43.72 1.43 1.28a1.222 1.222 0 0 1-1.41 1.088 2.146 2.146 0 0 1-2.05-1.264l-1.12.608a3.18 3.18 0 0 0 3.14 1.856c1.608-.005 2.778-.821 2.778-2.389zm1.74-1.776a4.222 4.222 0 0 0 7.75 2.256l-1.09-.752a2.83 2.83 0 0 1-5.26-1.232h6.56c.01-.176.01-.272.01-.416a3.722 3.722 0 0 0-3.8-4.017 4.058 4.058 0 0 0-4.172 4.156zm4.12-2.945a2.4 2.4 0 0 1 2.45 2.1h-5.08a2.625 2.625 0 0 1 2.628-2.106zM35.867 638.922c0-1.2-.752-1.968-2.112-2.416l-.864-.288c-.944-.3-1.232-.608-1.232-1.121a1.133 1.133 0 0 1 1.341-.928 2.162 2.162 0 0 1 1.7.832l.9-.864a3.1 3.1 0 0 0-2.56-1.152c-1.584 0-2.7.88-2.7 2.176a2.415 2.415 0 0 0 1.984 2.321l.784.256c1.04.336 1.424.72 1.424 1.28a1.218 1.218 0 0 1-1.408 1.088 2.147 2.147 0 0 1-2.048-1.264l-1.12.608a3.178 3.178 0 0 0 3.136 1.856c1.608 0 2.775-.816 2.775-2.384zm6.608 2.112V639.8a3.042 3.042 0 0 1-.976.16 1.152 1.152 0 0 1-1.328-1.36v-4.193h2.3v-1.264h-2.3v-2.224h-1.376v2.224H37.1v1.264h1.7v4.369a2.252 2.252 0 0 0 2.448 2.448 3.83 3.83 0 0 0 1.227-.19zm4.288 3.457l5.249-11.346h-1.537l-2.736 6.065-2.752-6.065h-1.52l3.5 7.585-1.744 3.761h1.536zm7.024-3.345h1.376v-12h-1.376v12zm3.76-4a4.218 4.218 0 0 0 7.745 2.256l-1.092-.752a2.833 2.833 0 0 1-5.265-1.232H65.5a3.9 3.9 0 0 0 .015-.418 3.728 3.728 0 0 0-3.809-4.017 4.054 4.054 0 0 0-4.16 4.163zm4.112-2.945a2.394 2.394 0 0 1 2.448 2.1h-5.072a2.615 2.615 0 0 1 2.624-2.101zm17.008 6.945h1.216l2.72-8h-1.455l-1.936 5.841-2-5.841h-1.057l-2 5.841-1.936-5.841h-1.44l2.72 8h1.216l1.984-5.76zm7.487-11.121a.966.966 0 0 0-.96-.976.994.994 0 0 0-.992.976.983.983 0 0 0 .992.976.956.956 0 0 0 .96-.976zm-1.664 11.121h1.376v-8H84.49v8zm8.721-.112V639.8a3.043 3.043 0 0 1-.976.16 1.152 1.152 0 0 1-1.328-1.36v-4.193h2.3v-1.264h-2.3v-2.224H89.53v2.224h-1.7v1.264h1.7v4.369a2.252 2.252 0 0 0 2.448 2.448 3.83 3.83 0 0 0 1.233-.19zm2.159.112h1.376v-3.968c0-1.873 1.024-2.929 2.32-2.929a1.921 1.921 0 0 1 1.889 2.177v4.72h1.36v-4.928a2.949 2.949 0 0 0-3.025-3.233 2.829 2.829 0 0 0-2.544 1.392v-5.232H95.37v12zm19.312-2.224c0-1.2-.752-1.968-2.112-2.416l-.864-.288c-.944-.3-1.232-.608-1.232-1.121a1.132 1.132 0 0 1 1.344-.928 2.161 2.161 0 0 1 1.7.832l.9-.864a3.1 3.1 0 0 0-2.56-1.152c-1.584 0-2.7.88-2.7 2.176a2.414 2.414 0 0 0 1.985 2.321l.784.256c1.04.336 1.424.72 1.424 1.28a1.218 1.218 0 0 1-1.408 1.088 2.149 2.149 0 0 1-2.049-1.264l-1.12.608a3.179 3.179 0 0 0 3.137 1.856c1.603 0 2.771-.816 2.771-2.384zm2.255-.864c0 1.984 1.184 3.248 2.945 3.248a2.752 2.752 0 0 0 2.464-1.392v1.232h1.376v-8h-1.376v3.969c0 1.84-.976 2.928-2.224 2.928-1.1 0-1.809-.848-1.809-2.192v-4.705h-1.376v4.913zm11.152 1.856a3.51 3.51 0 0 0 2.817 1.392 4.168 4.168 0 0 0 0-8.321 3.51 3.51 0 0 0-2.817 1.392v-5.232h-1.376v12h1.376v-1.232zm5.329-2.768a2.726 2.726 0 1 1-2.72-2.9 2.731 2.731 0 0 1 2.72 2.9zm8.944 1.776c0-1.2-.752-1.968-2.112-2.416l-.865-.288c-.944-.3-1.232-.608-1.232-1.121a1.132 1.132 0 0 1 1.344-.928 2.162 2.162 0 0 1 1.7.832l.9-.864a3.1 3.1 0 0 0-2.561-1.152c-1.584 0-2.7.88-2.7 2.176a2.415 2.415 0 0 0 1.984 2.321l.784.256c1.041.336 1.425.72 1.425 1.28a1.218 1.218 0 0 1-1.408 1.088 2.147 2.147 0 0 1-2.049-1.264l-1.12.608a3.178 3.178 0 0 0 3.136 1.856c1.606 0 2.774-.816 2.774-2.384zm6.608 2.112V639.8a3.041 3.041 0 0 1-.976.16 1.152 1.152 0 0 1-1.329-1.36v-4.193h2.305v-1.264h-2.305v-2.224h-1.376v2.224h-1.7v1.264h1.7v4.369a2.252 2.252 0 0 0 2.449 2.448 3.828 3.828 0 0 0 1.232-.19zm1.423-3.888a4 4 0 0 0 3.921 4.16 3.508 3.508 0 0 0 2.816-1.392v1.232h1.376v-8h-1.376v1.232a3.508 3.508 0 0 0-2.816-1.392 4 4 0 0 0-3.921 4.16zm6.849 0a2.733 2.733 0 1 1-2.72-2.9 2.731 2.731 0 0 1 2.72 2.9zm4.255 4h1.376v-3.968c0-1.873 1.024-2.929 2.321-2.929a1.921 1.921 0 0 1 1.888 2.177v4.72h1.36v-4.928a2.949 2.949 0 0 0-3.024-3.233 2.829 2.829 0 0 0-2.545 1.392v-1.232H161.5v8zm17.089-1.984l-1.2-.672a2.712 2.712 0 0 1-2.5 1.536 2.882 2.882 0 0 1 0-5.761 2.711 2.711 0 0 1 2.5 1.537l1.2-.673a4.143 4.143 0 0 0-3.7-2.144 4.161 4.161 0 1 0 0 8.321 4.143 4.143 0 0 0 3.7-2.144zm1.551-2.016a4.218 4.218 0 0 0 7.745 2.256l-1.088-.752a2.833 2.833 0 0 1-5.265-1.232h6.561a3.9 3.9 0 0 0 .016-.416 3.729 3.729 0 0 0-3.809-4.017 4.054 4.054 0 0 0-4.16 4.161zm4.112-2.945a2.394 2.394 0 0 1 2.448 2.1h-5.072a2.615 2.615 0 0 1 2.624-2.101zm5.952 3.153h8.081v-1.376H190.2v1.376zm12.192 2.56a3.508 3.508 0 0 0 2.816 1.392 4.168 4.168 0 0 0 0-8.321 3.508 3.508 0 0 0-2.816 1.392v-5.232h-1.377v12h1.377v-1.232zm5.328-2.768a2.725 2.725 0 1 1-2.72-2.9 2.731 2.731 0 0 1 2.72 2.9zm3.151 0a4.218 4.218 0 0 0 7.745 2.256l-1.088-.752a2.833 2.833 0 0 1-5.265-1.232h6.561a3.9 3.9 0 0 0 .016-.416 3.728 3.728 0 0 0-3.808-4.017 4.054 4.054 0 0 0-4.161 4.161zm4.113-2.945a2.394 2.394 0 0 1 2.448 2.1h-5.073a2.616 2.616 0 0 1 2.625-2.101zm13.472 4.961l-1.2-.672a2.712 2.712 0 0 1-2.5 1.536 2.882 2.882 0 0 1 0-5.761 2.711 2.711 0 0 1 2.5 1.537l1.2-.673a4.143 4.143 0 0 0-3.7-2.144 4.161 4.161 0 1 0 0 8.321 4.143 4.143 0 0 0 3.7-2.144zm1.551-2.016a4 4 0 0 0 3.92 4.16 3.509 3.509 0 0 0 2.817-1.392v1.232h1.376v-8h-1.376v1.232a3.509 3.509 0 0 0-2.817-1.392 4 4 0 0 0-3.92 4.16zm6.849 0a2.733 2.733 0 1 1-2.721-2.9 2.732 2.732 0 0 1 2.721 2.9zm4.143.912c0 1.984 1.184 3.248 2.944 3.248a2.754 2.754 0 0 0 2.465-1.392v1.232h1.376v-8h-1.376v3.969c0 1.84-.977 2.928-2.225 2.928-1.1 0-1.808-.848-1.808-2.192v-4.705H241v4.913zm14.96.864c0-1.2-.752-1.968-2.112-2.416l-.864-.288c-.944-.3-1.232-.608-1.232-1.121a1.132 1.132 0 0 1 1.344-.928 2.161 2.161 0 0 1 1.7.832l.9-.864a3.1 3.1 0 0 0-2.56-1.152c-1.584 0-2.7.88-2.7 2.176a2.415 2.415 0 0 0 1.984 2.321l.784.256c1.04.336 1.424.72 1.424 1.28a1.218 1.218 0 0 1-1.408 1.088 2.147 2.147 0 0 1-2.048-1.264l-1.12.608a3.178 3.178 0 0 0 3.136 1.856c1.604 0 2.772-.816 2.772-2.384zm1.743-1.776a4.219 4.219 0 0 0 7.746 2.256l-1.089-.752a2.832 2.832 0 0 1-5.264-1.232h6.561a3.9 3.9 0 0 0 .016-.416 3.729 3.729 0 0 0-3.809-4.017 4.055 4.055 0 0 0-4.164 4.161zm4.113-2.945a2.394 2.394 0 0 1 2.448 2.1h-5.072a2.615 2.615 0 0 1 2.624-2.101zm17.008 6.945h1.217l2.72-8h-1.456l-1.936 5.841-2-5.841h-1.056l-2 5.841-1.937-5.841h-1.44l2.721 8h1.216l1.984-5.76zm5.167-4a4.218 4.218 0 0 0 7.745 2.256l-1.088-.752a2.833 2.833 0 0 1-5.265-1.232h6.561a3.9 3.9 0 0 0 .016-.418 3.728 3.728 0 0 0-3.808-4.017 4.054 4.054 0 0 0-4.161 4.163zm4.109-2.946a2.394 2.394 0 0 1 2.448 2.1h-5.073a2.616 2.616 0 0 1 2.625-2.1zm11.887 5.713a3.509 3.509 0 0 0 2.817 1.392 4.168 4.168 0 0 0 0-8.321 3.509 3.509 0 0 0-2.817 1.392v-5.232h-1.376v12h1.376v-1.232zm5.329-2.768a2.726 2.726 0 1 1-2.72-2.9 2.731 2.731 0 0 1 2.724 2.901zm3.151 0a4.218 4.218 0 0 0 7.745 2.256l-1.088-.752a2.833 2.833 0 0 1-5.265-1.232h6.561a3.9 3.9 0 0 0 .02-.417 3.728 3.728 0 0 0-3.809-4.017 4.054 4.054 0 0 0-4.16 4.163zm4.112-2.945a2.4 2.4 0 0 1 2.449 2.1h-5.073a2.615 2.615 0 0 1 2.628-2.1zm6.208 6.945h1.376v-12h-1.376v12zm6.048-11.121a.966.966 0 0 0-.96-.976 1 1 0 0 0-.993.976.984.984 0 0 0 .993.976.956.956 0 0 0 .964-.975zm-1.664 11.121h1.376v-8h-1.376v8zm3.759-4a4.218 4.218 0 0 0 7.745 2.256l-1.088-.752a2.832 2.832 0 0 1-5.264-1.232h6.56a3.9 3.9 0 0 0 .017-.417 3.728 3.728 0 0 0-3.808-4.017 4.055 4.055 0 0 0-4.158 4.163zm4.113-2.945a2.394 2.394 0 0 1 2.448 2.1h-5.072a2.615 2.615 0 0 1 2.628-2.1zm8.576 6.945h1.152l3.7-8h-1.536l-2.736 6.049-2.737-6.049h-1.536zm5.839-4a4.218 4.218 0 0 0 7.745 2.256l-1.088-.752a2.832 2.832 0 0 1-5.264-1.232h6.561a4.163 4.163 0 0 0 .015-.416 3.728 3.728 0 0 0-3.808-4.017 4.055 4.055 0 0 0-4.157 4.162zm4.113-2.945a2.394 2.394 0 0 1 2.448 2.1h-5.072a2.615 2.615 0 0 1 2.628-2.1zm14.576 6.833V639.8a3.041 3.041 0 0 1-.976.16 1.153 1.153 0 0 1-1.329-1.36v-4.193h2.305v-1.264h-2.305v-2.224h-1.372v2.224h-1.7v1.264h1.7v4.369a2.252 2.252 0 0 0 2.449 2.448 3.828 3.828 0 0 0 1.232-.19zm2.159.112h1.376v-3.968c0-1.873 1.024-2.929 2.321-2.929a1.921 1.921 0 0 1 1.888 2.177v4.72h1.36v-4.928a2.949 2.949 0 0 0-3.024-3.233 2.831 2.831 0 0 0-2.545 1.392v-5.232h-1.372v12zm9.2-4a4 4 0 0 0 3.92 4.16 3.509 3.509 0 0 0 2.817-1.392v1.232h1.376v-8h-1.376v1.232a3.509 3.509 0 0 0-2.817-1.392 4 4 0 0 0-3.916 4.161zm6.849 0a2.733 2.733 0 1 1-2.721-2.9 2.732 2.732 0 0 1 2.725 2.901zm8.591 3.888V639.8a3.041 3.041 0 0 1-.976.16 1.152 1.152 0 0 1-1.328-1.36v-4.193h2.3v-1.264h-2.3v-2.224h-1.372v2.224h-1.7v1.264h1.7v4.369a2.252 2.252 0 0 0 2.448 2.448 3.828 3.828 0 0 0 1.232-.19zm12.961.112h1.216l2.72-8h-1.456l-1.936 5.841-2-5.841H401.4l-2 5.841-1.936-5.841h-1.44l2.72 8h1.216l1.984-5.76zm5.822 0h1.377v-3.968c0-1.873 1.024-2.929 2.32-2.929a1.921 1.921 0 0 1 1.888 2.177v4.72h1.36v-4.928a2.949 2.949 0 0 0-3.024-3.233 2.829 2.829 0 0 0-2.544 1.392v-5.232h-1.377v12zm9.2-4a4 4 0 0 0 3.921 4.16 3.508 3.508 0 0 0 2.816-1.392v1.232h1.376v-8h-1.372v1.232a3.508 3.508 0 0 0-2.816-1.392 4 4 0 0 0-3.921 4.161zm6.849 0a2.733 2.733 0 1 1-2.72-2.9 2.731 2.731 0 0 1 2.724 2.901zm8.592 3.888V639.8a3.041 3.041 0 0 1-.976.16 1.152 1.152 0 0 1-1.329-1.36v-4.193h2.305v-1.264h-2.305v-2.224h-1.376v2.224H429v1.264h1.7v4.369a2.252 2.252 0 0 0 2.449 2.448 3.828 3.828 0 0 0 1.225-.19zm8.223 3.457l5.249-11.346h-1.532l-2.737 6.065-2.752-6.065H439.3l3.5 7.585-1.744 3.761h1.544zm14.577-7.345a4.185 4.185 0 1 0-4.176 4.16 4.106 4.106 0 0 0 4.18-4.159zm-6.961 0a2.778 2.778 0 1 1 2.785 2.88 2.751 2.751 0 0 1-2.781-2.879zm9.216.912c0 1.984 1.184 3.248 2.944 3.248a2.754 2.754 0 0 0 2.465-1.392v1.232h1.376v-8h-1.376v3.969c0 1.84-.976 2.928-2.225 2.928-1.1 0-1.808-.848-1.808-2.192v-4.705h-1.376v4.913zm20.577 3.088h1.216l2.72-8h-1.456l-1.936 5.841-2-5.841h-1.057l-2 5.841-1.936-5.841h-1.44l2.72 8h1.216l1.985-5.76zm5.167-4a4.218 4.218 0 0 0 7.745 2.256l-1.089-.752a2.832 2.832 0 0 1-5.264-1.232h6.561a3.9 3.9 0 0 0 .016-.416 3.729 3.729 0 0 0-3.809-4.017 4.054 4.054 0 0 0-4.156 4.162zm4.112-2.945a2.394 2.394 0 0 1 2.448 2.1h-5.072a2.615 2.615 0 0 1 2.628-2.1zm5.583 2.945a4 4 0 0 0 3.921 4.16 3.508 3.508 0 0 0 2.816-1.392v1.232h1.377v-8h-1.377v1.232a3.508 3.508 0 0 0-2.816-1.392 4 4 0 0 0-3.917 4.161zm6.849 0a2.733 2.733 0 1 1-2.72-2.9 2.731 2.731 0 0 1 2.724 2.901zm4.255 4h1.377v-3.968c0-1.873 1.1-2.753 2.112-2.753a2.011 2.011 0 0 1 .752.128v-1.424a2.851 2.851 0 0 0-.624-.064 2.38 2.38 0 0 0-2.24 1.632v-1.552h-1.377v8zm15.345-2.224c0-1.2-.752-1.968-2.112-2.416l-.864-.288c-.945-.3-1.233-.608-1.233-1.121a1.133 1.133 0 0 1 1.345-.928 2.161 2.161 0 0 1 1.7.832l.9-.864a3.1 3.1 0 0 0-2.56-1.152c-1.585 0-2.705.88-2.705 2.176a2.414 2.414 0 0 0 1.985 2.321l.784.256c1.04.336 1.424.72 1.424 1.28a1.218 1.218 0 0 1-1.408 1.088 2.148 2.148 0 0 1-2.049-1.264l-1.12.608a3.178 3.178 0 0 0 3.137 1.856c1.612.001 2.78-.815 2.78-2.383zm2.367 2.224h1.376v-3.968c0-1.873 1.025-2.929 2.321-2.929a1.921 1.921 0 0 1 1.888 2.177v4.72h1.36v-4.928a2.949 2.949 0 0 0-3.024-3.233 2.831 2.831 0 0 0-2.545 1.392v-5.232h-1.376v12zm17.553-4a4.185 4.185 0 1 0-4.176 4.16 4.106 4.106 0 0 0 4.18-4.159zm-6.961 0a2.778 2.778 0 1 1 2.785 2.88 2.751 2.751 0 0 1-2.781-2.879zm9.216.912c0 1.984 1.184 3.248 2.944 3.248a2.755 2.755 0 0 0 2.465-1.392v1.232h1.376v-8H548.9v3.969c0 1.84-.977 2.928-2.225 2.928-1.1 0-1.808-.848-1.808-2.192v-4.705h-1.376v4.913zm9.776 3.088h1.376v-12h-1.376v12zm3.76-4a4 4 0 0 0 3.92 4.16 3.512 3.512 0 0 0 2.817-1.392v1.232h1.376v-12h-1.376v5.232a3.512 3.512 0 0 0-2.817-1.392 4 4 0 0 0-3.916 4.161zm6.848 0a2.733 2.733 0 1 1-2.72-2.9 2.731 2.731 0 0 1 2.724 2.901zm16.288 0a4.185 4.185 0 1 0-4.176 4.16 4.106 4.106 0 0 0 4.18-4.159zm-6.961 0a2.778 2.778 0 1 1 2.785 2.88 2.751 2.751 0 0 1-2.784-2.879zm9.328 7.345h1.376v-4.577a3.51 3.51 0 0 0 2.817 1.392 4.168 4.168 0 0 0 0-8.321 3.51 3.51 0 0 0-2.817 1.392v-1.232h-1.376v11.346zm6.705-7.345a2.726 2.726 0 1 1-2.72-2.9 2.731 2.731 0 0 1 2.724 2.901zm3.167 0a4.218 4.218 0 0 0 7.745 2.256l-1.088-.752a2.833 2.833 0 0 1-5.265-1.232h6.561a3.9 3.9 0 0 0 .016-.416 3.728 3.728 0 0 0-3.808-4.017 4.054 4.054 0 0 0-4.16 4.162zm4.113-2.945a2.394 2.394 0 0 1 2.448 2.1h-5.073a2.616 2.616 0 0 1 2.629-2.1zm6.207 6.945h1.381v-3.968c0-1.873 1.024-2.929 2.321-2.929a1.921 1.921 0 0 1 1.888 2.177v4.72h1.36v-4.928a2.949 2.949 0 0 0-3.024-3.233 2.829 2.829 0 0 0-2.545 1.392v-1.232h-1.376v8zm13.5-4a4 4 0 0 0 3.92 4.16 3.508 3.508 0 0 0 2.816-1.392v1.232h1.377v-8h-1.377v1.232a3.508 3.508 0 0 0-2.816-1.392 4 4 0 0 0-3.912 4.161zm6.848 0a2.733 2.733 0 1 1-2.72-2.9 2.731 2.731 0 0 1 2.728 2.901zm15.056 4h1.217l2.72-8h-1.456l-1.937 5.841-2-5.841h-1.056l-2 5.841-1.937-5.841h-1.44l2.721 8h1.216l1.984-5.76zm13.52-4a4.185 4.185 0 1 0-4.176 4.16 4.106 4.106 0 0 0 4.184-4.159zm-6.961 0a2.778 2.778 0 1 1 2.785 2.88 2.751 2.751 0 0 1-2.777-2.879zm9.328 4h1.376v-3.968c0-1.873 1.1-2.753 2.112-2.753a2.02 2.02 0 0 1 .753.128v-1.424a2.86 2.86 0 0 0-.625-.064 2.38 2.38 0 0 0-2.24 1.632v-1.552h-1.376v8zm6.256 0h1.376v-12h-1.376v12zm3.76-4a4 4 0 0 0 3.92 4.16 3.51 3.51 0 0 0 2.817-1.392v1.232h1.376v-12h-1.376v5.232a3.51 3.51 0 0 0-2.817-1.392 4 4 0 0 0-3.912 4.161zm6.849 0a2.733 2.733 0 1 1-2.721-2.9 2.732 2.732 0 0 1 2.729 2.901zm16.288 0a4.185 4.185 0 1 0-4.177 4.16 4.107 4.107 0 0 0 4.185-4.159zm-6.961 0a2.778 2.778 0 1 1 2.784 2.88 2.751 2.751 0 0 1-2.776-2.879zm9.871 4h1.377v-6.737h2.32v-1.264h-2.32v-1.472a1.152 1.152 0 0 1 1.328-1.36 3.222 3.222 0 0 1 .992.16v-1.216a3.636 3.636 0 0 0-1.248-.208 2.285 2.285 0 0 0-2.449 2.48v1.616h-1.7v1.264h1.7v6.737zm9.488 3.345h1.376v-4.577a3.51 3.51 0 0 0 2.817 1.392 4.168 4.168 0 0 0 0-8.321 3.51 3.51 0 0 0-2.817 1.392v-1.232h-1.376v11.346zm6.705-7.345a2.726 2.726 0 1 1-2.72-2.9 2.731 2.731 0 0 1 2.728 2.901zm11.52 0a4.185 4.185 0 1 0-4.176 4.16 4.106 4.106 0 0 0 4.184-4.159zm-6.961 0a2.778 2.778 0 1 1 2.785 2.88 2.751 2.751 0 0 1-2.777-2.879zm14.5 1.776c0-1.2-.752-1.968-2.112-2.416l-.865-.288c-.944-.3-1.232-.608-1.232-1.121a1.132 1.132 0 0 1 1.344-.928 2.162 2.162 0 0 1 1.7.832l.9-.864a3.1 3.1 0 0 0-2.561-1.152c-1.584 0-2.7.88-2.7 2.176a2.415 2.415 0 0 0 1.984 2.321l.784.256c1.041.336 1.425.72 1.425 1.28a1.218 1.218 0 0 1-1.409 1.088 2.147 2.147 0 0 1-2.048-1.264l-1.12.608a3.178 3.178 0 0 0 3.136 1.856c1.611.001 2.779-.815 2.779-2.383zm7.536 0c0-1.2-.752-1.968-2.112-2.416l-.865-.288c-.944-.3-1.232-.608-1.232-1.121a1.132 1.132 0 0 1 1.344-.928 2.162 2.162 0 0 1 1.7.832l.9-.864a3.1 3.1 0 0 0-2.561-1.152c-1.584 0-2.7.88-2.7 2.176a2.415 2.415 0 0 0 1.984 2.321l.784.256c1.041.336 1.425.72 1.425 1.28a1.218 1.218 0 0 1-1.409 1.088 2.147 2.147 0 0 1-2.048-1.264l-1.12.608a3.178 3.178 0 0 0 3.136 1.856c1.613.001 2.779-.815 2.779-2.383zm4.031-8.9a.966.966 0 0 0-.96-.976.994.994 0 0 0-.992.976.983.983 0 0 0 .992.976.956.956 0 0 0 .968-.972zm-1.664 11.121h1.376v-8h-1.376v8zm5.76-1.232a3.508 3.508 0 0 0 2.816 1.392 4.168 4.168 0 0 0 0-8.321 3.508 3.508 0 0 0-2.816 1.392v-5.232h-1.376v12h1.376v-1.232zm5.329-2.768a2.726 2.726 0 1 1-2.721-2.9 2.732 2.732 0 0 1 2.726 2.904zm5.439-7.121a.966.966 0 0 0-.96-.976.994.994 0 0 0-.992.976.983.983 0 0 0 .992.976.956.956 0 0 0 .965-.972zm-1.656 11.125h1.376v-8H750.1v8zm4.384 0h1.376v-12h-1.376v12zm6.048-11.121a.966.966 0 0 0-.96-.976.994.994 0 0 0-.992.976.983.983 0 0 0 .992.976.956.956 0 0 0 .957-.976zm-1.664 11.121h1.376v-8h-1.376v8zm8.72-.112V639.8a3.041 3.041 0 0 1-.976.16 1.152 1.152 0 0 1-1.328-1.36v-4.193h2.3v-1.264h-2.3v-2.224h-1.376v2.224h-1.7v1.264h1.7v4.369a2.252 2.252 0 0 0 2.448 2.448 3.828 3.828 0 0 0 1.229-.19zm3.824-11.009a.966.966 0 0 0-.961-.976.994.994 0 0 0-.992.976.983.983 0 0 0 .992.976.957.957 0 0 0 .958-.976zm-1.665 11.121h1.377v-8h-1.377v8zm3.76-4a4.218 4.218 0 0 0 7.745 2.256l-1.088-.752a2.833 2.833 0 0 1-5.265-1.232h6.561a3.9 3.9 0 0 0 .016-.416 3.728 3.728 0 0 0-3.808-4.017 4.054 4.054 0 0 0-4.168 4.161zm4.113-2.945a2.394 2.394 0 0 1 2.448 2.1h-5.073a2.616 2.616 0 0 1 2.622-2.101zm11.392 4.721c0-1.2-.752-1.968-2.112-2.416l-.864-.288c-.945-.3-1.233-.608-1.233-1.121a1.133 1.133 0 0 1 1.345-.928 2.161 2.161 0 0 1 1.7.832l.9-.864a3.1 3.1 0 0 0-2.56-1.152c-1.585 0-2.705.88-2.705 2.176a2.415 2.415 0 0 0 1.984 2.321l.785.256c1.04.336 1.424.72 1.424 1.28a1.218 1.218 0 0 1-1.408 1.088 2.147 2.147 0 0 1-2.049-1.264l-1.12.608a3.178 3.178 0 0 0 3.137 1.856c1.605 0 2.773-.816 2.773-2.384zm7.135 2.224h1.376v-6.737h2.321v-1.264h-2.324v-1.472a1.152 1.152 0 0 1 1.329-1.36 3.222 3.222 0 0 1 .992.16v-1.216a3.636 3.636 0 0 0-1.248-.208 2.285 2.285 0 0 0-2.449 2.48v1.616h-1.7v1.264h1.7v6.737zm13.121-4a4.185 4.185 0 1 0-4.176 4.16 4.106 4.106 0 0 0 4.173-4.16zm-6.961 0a2.778 2.778 0 1 1 2.785 2.88 2.751 2.751 0 0 1-2.792-2.88zm9.328 4h1.376v-3.968c0-1.873 1.1-2.753 2.113-2.753a2.011 2.011 0 0 1 .752.128v-1.424a2.851 2.851 0 0 0-.624-.064 2.38 2.38 0 0 0-2.241 1.632v-1.552h-1.376v8zm9.536-4a4 4 0 0 0 3.92 4.16 3.51 3.51 0 0 0 2.817-1.392v1.232h1.376v-8h-1.376v1.232a3.51 3.51 0 0 0-2.817-1.392 4 4 0 0 0-3.923 4.16zm6.849 0a2.733 2.733 0 1 1-2.721-2.9 2.732 2.732 0 0 1 2.718 2.9zm8.558 4h1.377v-12h-1.377v12zm6.049-11.121a.966.966 0 0 0-.961-.976.994.994 0 0 0-.992.976.983.983 0 0 0 .992.976.957.957 0 0 0 .958-.976zm-1.665 11.121h1.377v-8h-1.377v8zm5.056 0h1.377v-6.737h2.32v-1.264h-2.32v-1.472a1.152 1.152 0 0 1 1.328-1.36 3.222 3.222 0 0 1 .992.16v-1.216a3.636 3.636 0 0 0-1.248-.208 2.285 2.285 0 0 0-2.449 2.48v1.616h-1.7v1.264h1.7v6.737zm4.768-4a4.218 4.218 0 0 0 7.745 2.256l-1.088-.752a2.833 2.833 0 0 1-5.265-1.232h6.561a3.9 3.9 0 0 0 .016-.416 3.728 3.728 0 0 0-3.808-4.017 4.055 4.055 0 0 0-4.164 4.161zm4.114-2.946a2.394 2.394 0 0 1 2.448 2.1h-5.072a2.615 2.615 0 0 1 2.624-2.1zm17.008 6.945h1.216l2.721-8h-1.456l-1.937 5.841-2-5.841h-1.056l-2 5.841-1.937-5.841h-1.44l2.721 8h1.216l1.984-5.76zm7.487-11.121a.966.966 0 0 0-.96-.976.994.994 0 0 0-.992.976.983.983 0 0 0 .992.976.956.956 0 0 0 .956-.975zm-1.664 11.121h1.369v-8h-1.376v8zm8.721-.112V639.8a3.052 3.052 0 0 1-.977.16 1.152 1.152 0 0 1-1.328-1.36v-4.193h2.3v-1.264h-2.3v-2.224h-1.376v2.224h-1.7v1.264h1.7v4.369a2.252 2.252 0 0 0 2.448 2.448 3.835 3.835 0 0 0 1.229-.19zm2.159.112h1.376v-3.968c0-1.873 1.024-2.929 2.32-2.929a1.921 1.921 0 0 1 1.889 2.177v4.72h1.36v-4.928a2.949 2.949 0 0 0-3.025-3.233 2.829 2.829 0 0 0-2.544 1.392v-5.232h-1.376v12zm14.128 0h1.376v-3.968c0-1.873 1.024-2.929 2.32-2.929a1.921 1.921 0 0 1 1.888 2.177v4.72h1.36v-4.928a2.949 2.949 0 0 0-3.024-3.233 2.829 2.829 0 0 0-2.544 1.392v-1.232h-1.376v8zm17.552-4a4.185 4.185 0 1 0-4.176 4.16 4.106 4.106 0 0 0 4.172-4.159zm-6.961 0a2.778 2.778 0 1 1 2.785 2.88 2.751 2.751 0 0 1-2.789-2.879zm15.008 2.768a3.508 3.508 0 0 0 2.816 1.392 4.168 4.168 0 0 0 0-8.321 3.508 3.508 0 0 0-2.816 1.392v-5.232h-1.376v12h1.376v-1.232zm5.329-2.768a2.726 2.726 0 1 1-2.721-2.9 2.732 2.732 0 0 1 2.717 2.901zm11.5 0a4.185 4.185 0 1 0-4.177 4.16 4.106 4.106 0 0 0 4.177-4.159zm-6.961 0a2.778 2.778 0 1 1 2.784 2.88 2.751 2.751 0 0 1-2.784-2.879zm9.216.912c0 1.984 1.184 3.248 2.944 3.248a2.752 2.752 0 0 0 2.464-1.392v1.232h1.376v-8h-1.376v3.969c0 1.84-.976 2.928-2.224 2.928-1.1 0-1.808-.848-1.808-2.192v-4.705h-1.376v4.913zm9.776 3.088h1.376v-3.968c0-1.873 1.024-2.929 2.32-2.929a1.921 1.921 0 0 1 1.888 2.177v4.72h1.36v-4.928a2.949 2.949 0 0 0-3.024-3.233 2.829 2.829 0 0 0-2.544 1.392v-1.232H957.2v8zm9.2-4a4 4 0 0 0 3.921 4.16 3.508 3.508 0 0 0 2.816-1.392v1.232h1.376v-12h-1.376v5.232a3.508 3.508 0 0 0-2.816-1.392 4 4 0 0 0-3.919 4.161zm6.849 0a2.733 2.733 0 1 1-2.72-2.9 2.731 2.731 0 0 1 2.719 2.901zm3.631 0a4 4 0 0 0 3.921 4.16 3.508 3.508 0 0 0 2.816-1.392v1.232h1.376v-8h-1.376v1.232a3.508 3.508 0 0 0-2.816-1.392 4 4 0 0 0-3.922 4.161zm6.849 0a2.733 2.733 0 1 1-2.72-2.9 2.731 2.731 0 0 1 2.719 2.901zm4.255 4h1.376v-3.968c0-1.873 1.1-2.753 2.113-2.753a2.011 2.011 0 0 1 .752.128v-1.424a2.851 2.851 0 0 0-.624-.064 2.38 2.38 0 0 0-2.241 1.632v-1.552h-1.376v8zm7.92-11.121a.966.966 0 0 0-.96-.976.994.994 0 0 0-.992.976.983.983 0 0 0 .992.976.956.956 0 0 0 .958-.975zm-1.664 11.121h1.376v-8h-1.376v8zm3.76-4a4.217 4.217 0 0 0 7.743 2.256l-1.09-.752a2.831 2.831 0 0 1-5.261-1.232h6.561a3.128 3.128 0 0 0 .02-.416 3.735 3.735 0 0 0-3.81-4.017 4.055 4.055 0 0 0-4.161 4.162zm4.113-2.945a2.391 2.391 0 0 1 2.45 2.1h-5.075a2.616 2.616 0 0 1 2.624-2.1zm11.39 4.721c0-1.2-.75-1.968-2.11-2.416l-.86-.288c-.95-.3-1.24-.608-1.24-1.121a1.14 1.14 0 0 1 1.35-.928 2.138 2.138 0 0 1 1.69.832l.9-.864a3.1 3.1 0 0 0-2.56-1.152c-1.59 0-2.71.88-2.71 2.176a2.416 2.416 0 0 0 1.99 2.321l.78.256c1.04.336 1.43.72 1.43 1.28a1.222 1.222 0 0 1-1.41 1.088 2.146 2.146 0 0 1-2.05-1.264l-1.12.608a3.18 3.18 0 0 0 3.14 1.856c1.609.001 2.779-.815 2.779-2.383zm4.27 1.152a1.185 1.185 0 1 0-1.18 1.2 1.206 1.206 0 0 0 1.179-1.199z"/><path id="designed_for_a_life_with_NO_BOUNDARIES" data-name="designed for a life with NO BOUNDARIES" class="cls-1" d="M30.061 551.436h7.979a11.707 11.707 0 1 0 0-23.409h-7.979v23.409zm5.242-4.814v-13.781h2.737a6.9 6.9 0 0 1 0 13.781H35.3zm20.333 4.814h14.837v-5.012h-9.595v-4.187h7.616v-5.011h-7.616v-4.187h9.594v-5.012H55.636v23.409zm27.813.395c4.945 0 8.341-2.967 8.374-7.22.033-3.528-2.176-5.77-5.572-6.99l-1.648-.593c-2.473-.89-3.627-1.451-3.627-2.7 0-1.219 1.418-1.78 2.835-1.78a5.206 5.206 0 0 1 4.055 1.945l3.429-3.626a9.767 9.767 0 0 0-7.55-3.231c-4.682 0-8.078 2.67-8.078 7.22 0 3.2 2.11 5.473 5.9 6.759l1.648.56c2.341.792 3.264 1.616 3.264 2.8 0 1.121-1.088 1.945-2.835 1.945a6.123 6.123 0 0 1-4.847-2.671l-4.022 3.4a10.263 10.263 0 0 0 8.674 4.182zm14-.395h5.242v-23.409h-5.244v23.409zm23.617.395c3.791 0 7.517-1.121 9.594-3.461v-11.111h-9.693v4.912h4.583v3.462a7.629 7.629 0 0 1-4.55 1.121c-4.583 0-7.385-3.033-7.385-7.023a6.871 6.871 0 0 1 7.055-7.022 7.773 7.773 0 0 1 5.9 2.506l3.693-3.594a12.454 12.454 0 0 0-9.595-3.989 11.956 11.956 0 0 0-12.33 12.1c0 6.857 5.44 12.099 12.726 12.099zm36.885-.395v-23.409h-5.276v14.441L141.3 528.027h-4.517v23.409h5.242v-14.474l11.408 14.474h4.517zm6.949 0h14.836v-5.012h-9.596v-4.187h7.616v-5.011h-7.616v-4.187h9.594v-5.012H164.9v23.409zm20.823 0h7.977a11.707 11.707 0 1 0 0-23.409h-7.978v23.409zm5.242-4.814v-13.781h2.735a6.9 6.9 0 0 1 0 13.781h-2.736zm29.572 4.814h5.242v-9.166h7.155v-5.011h-7.155v-4.22h9.166v-5.012h-14.41v23.409zm30.284.395a12.1 12.1 0 1 0-12.1-12.1 12.129 12.129 0 0 0 12.098 12.1zm0-5.077a7.026 7.026 0 1 1 6.792-7.023 6.946 6.946 0 0 1-6.794 7.023zm17.731 4.682h5.242v-9.66h.857l7.781 9.66h6.3l-8.275-10.32c2.967-1.055 4.583-3 4.583-6.033a6.912 6.912 0 0 0-7.254-7.056h-9.236v23.409zm5.242-14.111v-4.484h3.363c1.549 0 2.67.824 2.67 2.242 0 1.351-1.121 2.242-2.67 2.242h-3.363zm23.667 14.111h5.473l2.077-4.946h9.689l2.077 4.946h5.473l-10.02-23.409h-4.748zm9.463-9.5l2.934-7.055 2.934 7.055h-5.868zm28.022 9.5h14.934v-5.012h-9.693v-18.4h-5.243v23.409zm20.2 0h5.242v-23.409h-5.248v23.409zm12.177 0h5.242v-9.166h7.154v-5.011h-7.154v-4.22h9.166v-5.012h-14.414v23.409zm19.965 0h14.836v-5.012h-9.594v-4.187h7.616v-5.011h-7.616v-4.187h9.594v-5.012h-14.842v23.409zm47.9 0h4.978l5.44-23.409h-5.6l-3.2 14.837-6.606-15.232-6.561 15.232-3.2-14.837h-5.6l5.407 23.409h4.979l4.978-11.474zm15.394 0h5.242v-23.409h-5.242v23.409zm16.4 0h5.275v-18.4h6.034v-5.012H461v5.012h5.968v18.4zm16.5 0h5.242v-9.265h9.429v9.265h5.242v-23.409h-5.242v9.166h-9.429v-9.166h-5.242v23.409zm57.268 0v-23.409h-5.275v14.441L524.1 528.027h-4.517v23.409h5.242v-14.474l11.408 14.474h4.517zm17.73.395a12.1 12.1 0 1 0-12.1-12.1 12.129 12.129 0 0 0 12.094 12.1zm0-5.077a7.026 7.026 0 1 1 6.792-7.023 6.945 6.945 0 0 1-6.798 7.023zm26.97 4.682h10.28a6.921 6.921 0 0 0 7.122-6.891 6.117 6.117 0 0 0-3.33-5.539 5.509 5.509 0 0 0 1.681-4.022 6.958 6.958 0 0 0-6.956-6.957h-8.8v23.409zm5.242-13.946v-4.682h2.967a2.379 2.379 0 0 1 2.44 2.374 2.347 2.347 0 0 1-2.44 2.308h-2.967zm0 9.132v-4.682h4.583a2.382 2.382 0 0 1 2.472 2.341 2.352 2.352 0 0 1-2.439 2.341h-4.616zm28.474 5.209a12.1 12.1 0 1 0-12.1-12.1 12.129 12.129 0 0 0 12.094 12.1zm0-5.077a7.026 7.026 0 1 1 6.791-7.023 6.945 6.945 0 0 1-6.797 7.023zm27.093 5.077c5.6 0 9.628-3.824 9.628-9.66v-14.144h-5.243v14.21a4.387 4.387 0 1 1-8.77 0v-14.21h-5.242v14.144c-.006 5.836 3.984 9.66 9.621 9.66zm37.477-.395v-23.409h-5.275v14.441l-11.381-14.441h-4.516v23.409h5.242v-14.474l11.407 14.474h4.517zm6.949 0h7.979a11.707 11.707 0 1 0 0-23.409h-7.979v23.409zm5.242-4.814v-13.781h2.737a6.9 6.9 0 0 1 0 13.781h-2.737zm16.739 4.814h5.473l2.077-4.946h9.684l2.077 4.946h5.473l-10.02-23.409h-4.747zm9.462-9.5l2.934-7.055 2.935 7.055h-5.869zm19.773 9.5h5.243v-9.66H748l7.781 9.66h6.3l-8.275-10.32c2.967-1.055 4.582-3 4.582-6.033a6.911 6.911 0 0 0-7.253-7.056H741.9v23.409zm5.243-14.111v-4.484h3.356c1.549 0 2.67.824 2.67 2.242 0 1.351-1.121 2.242-2.67 2.242h-3.363zm18.583 14.111h5.242v-23.409h-5.242v23.409zm12.177 0h14.836v-5.012h-9.6v-4.187h7.616v-5.011h-7.616v-4.187h9.594v-5.012H777.9v23.409zm27.812.395c4.946 0 8.342-2.967 8.375-7.22.033-3.528-2.176-5.77-5.572-6.99l-1.649-.593c-2.473-.89-3.627-1.451-3.627-2.7 0-1.219 1.418-1.78 2.836-1.78a5.2 5.2 0 0 1 4.055 1.945l3.429-3.626a9.767 9.767 0 0 0-7.55-3.231c-4.682 0-8.078 2.67-8.078 7.22 0 3.2 2.11 5.473 5.9 6.759l1.648.56c2.341.792 3.264 1.616 3.264 2.8 0 1.121-1.088 1.945-2.835 1.945a6.125 6.125 0 0 1-4.847-2.671l-4.022 3.4a10.264 10.264 0 0 0 8.667 4.182z"/><path id="CELEBRATING_40_YEARS_OF_ICONIC_STYLE" data-name="CELEBRATING 40 YEARS OF ICONIC STYLE" class="cls-2" d="M932.738 250.409a6.069 6.069 0 0 0 5.49-3.209l-2.315-1.257a3.524 3.524 0 1 1 0-3.21l2.315-1.257a6.121 6.121 0 1 0-5.49 8.933zm8.354-.2h7.44V247.7h-4.811v-2.1h3.819v-2.514h-3.819v-2.1h4.811v-2.515h-7.44v11.746zm10.766 0h7.49V247.7h-4.861v-9.231h-2.629v11.746zm10.452 0h7.441V247.7h-4.812v-2.1h3.82v-2.514h-3.82v-2.1h4.812v-2.515h-7.441v11.746zm10.767 0h5.158a3.472 3.472 0 0 0 3.572-3.458 3.07 3.07 0 0 0-1.67-2.779 2.766 2.766 0 0 0 .843-2.018 3.491 3.491 0 0 0-3.489-3.491h-4.414v11.746zm2.629-7v-2.349h1.488a1.193 1.193 0 0 1 1.223 1.191 1.176 1.176 0 0 1-1.223 1.158h-1.488zm0 4.582v-2.349H978a1.2 1.2 0 0 1 1.24 1.175 1.179 1.179 0 0 1-1.224 1.174h-2.314zm9.195 2.416h2.629v-4.847h.43l3.9 4.847h3.158l-4.15-5.178a3.033 3.033 0 0 0 2.3-3.028 3.467 3.467 0 0 0-3.638-3.54h-4.63v11.746zm2.629-7.081v-2.249h1.687a1.169 1.169 0 0 1 1.339 1.124 1.188 1.188 0 0 1-1.339 1.125h-1.687zm8.386 7.081h2.745l1.041-2.482h4.858l1.05 2.482h2.74l-5.03-11.746h-2.38zm4.744-4.765l1.47-3.54 1.47 3.54h-2.94zm11.18 4.765h2.65v-9.227h3.02v-2.515h-8.66v2.515h2.99v9.231zm8.6 0h2.63v-11.742h-2.63v11.746zm17.05 0v-11.742h-2.65v7.246l-5.7-7.246h-2.26v11.746h2.62v-7.263l5.73 7.263h2.26zm9.54.2a6.5 6.5 0 0 0 4.82-1.737v-5.57h-4.87v2.465h2.3v1.735a3.8 3.8 0 0 1-2.28.563 3.526 3.526 0 1 1-.16-7.048 3.926 3.926 0 0 1 2.96 1.258l1.85-1.8a6.257 6.257 0 0 0-4.81-2 6 6 0 0 0-6.19 6.071 6.1 6.1 0 0 0 6.38 6.065zm17.96-.2h2.5v-2.548h1.51v-2.279h-1.51v-6.915h-2.25l-5.98 7.18v2.018h5.73v2.548zm0-4.831h-2.69l2.69-3.242v3.242zm11.17 5.013a4.4 4.4 0 0 0 4.43-4.7v-2.729a4.447 4.447 0 1 0-8.88 0v2.729a4.405 4.405 0 0 0 4.45 4.704zm0-2.465a1.96 1.96 0 0 1-1.95-2.234v-2.729a1.959 1.959 0 1 1 3.88 0v2.729a1.957 1.957 0 0 1-1.93 2.238zm15.53 2.283h2.64v-4.93l4.29-6.816h-3.06l-2.57 4.235-2.53-4.235h-3.05l4.28 6.8v4.947zm9.62 0h7.44V247.7h-4.81v-2.1h3.82v-2.514h-3.82v-2.1h4.81v-2.515h-7.44v11.746zm9.51 0h2.75l1.04-2.482h4.86l1.04 2.482h2.75l-5.03-11.746h-2.38zm4.75-4.765l1.47-3.54 1.47 3.54h-2.94zm10.24 4.765h2.63v-4.847h.43l3.9 4.847h3.16l-4.15-5.178a3.034 3.034 0 0 0 2.29-3.028 3.464 3.464 0 0 0-3.63-3.54h-4.63v11.746zm2.63-7.081v-2.249h1.68a1.169 1.169 0 0 1 1.34 1.124 1.187 1.187 0 0 1-1.34 1.125h-1.68zm13.14 7.279c2.48 0 4.19-1.489 4.2-3.623.02-1.77-1.09-2.9-2.79-3.507l-.83-.3c-1.24-.446-1.82-.727-1.82-1.356a1.209 1.209 0 0 1 1.43-.893 2.615 2.615 0 0 1 2.03.976l1.72-1.82a4.9 4.9 0 0 0-3.79-1.621c-2.35 0-4.05 1.34-4.05 3.623 0 1.6 1.06 2.746 2.96 3.391l.83.281c1.17.4 1.63.811 1.63 1.406a1.186 1.186 0 0 1-1.42.976 3.066 3.066 0 0 1-2.43-1.34l-2.02 1.7a5.151 5.151 0 0 0 4.35 2.111zm17.72 0a6.071 6.071 0 1 0-6.07-6.071 6.083 6.083 0 0 0 6.07 6.075zm0-2.547a3.526 3.526 0 1 1 3.4-3.524 3.49 3.49 0 0 1-3.4 3.528zm9.21 2.349h2.63v-4.6h3.58V243.1h-3.58v-2.12h4.59v-2.515h-7.22v11.746zm14.9 0h2.63v-11.742h-2.63v11.746zm11.84.2a6.068 6.068 0 0 0 5.49-3.209l-2.32-1.257a3.524 3.524 0 1 1 0-3.21l2.32-1.257a6.122 6.122 0 1 0-5.49 8.935zm13.76 0a6.071 6.071 0 1 0-6.07-6.071 6.085 6.085 0 0 0 6.07 6.073zm0-2.547a3.526 3.526 0 1 1 3.4-3.524 3.481 3.481 0 0 1-3.4 3.526zm19.83 2.349v-11.744h-2.65v7.246l-5.7-7.246h-2.27v11.746h2.63v-7.263l5.72 7.263h2.27zm3.8 0h2.63v-11.744h-2.63v11.746zm11.84.2a6.068 6.068 0 0 0 5.49-3.209l-2.31-1.257a3.524 3.524 0 1 1 0-3.21l2.31-1.257a6.118 6.118 0 1 0-5.49 8.933zm16.82 0c2.48 0 4.19-1.489 4.2-3.623.02-1.77-1.09-2.9-2.79-3.507l-.83-.3c-1.24-.446-1.82-.727-1.82-1.356a1.2 1.2 0 0 1 1.42-.893 2.62 2.62 0 0 1 2.04.976l1.72-1.82a4.9 4.9 0 0 0-3.79-1.621c-2.35 0-4.05 1.34-4.05 3.623 0 1.6 1.06 2.746 2.96 3.391l.83.281c1.17.4 1.63.811 1.63 1.406a1.186 1.186 0 0 1-1.42.976 3.066 3.066 0 0 1-2.43-1.34l-2.02 1.7a5.151 5.151 0 0 0 4.35 2.107zm9.3-.2h2.64v-9.229h3.03v-2.515h-8.67v2.515h3v9.231zm11.77 0h2.65v-4.93l4.28-6.816h-3.06l-2.56 4.235-2.53-4.235h-3.06l4.28 6.8v4.947zm9.63 0h7.49V247.7h-4.86v-9.231H1292v11.746zm10.45 0h7.44V247.7h-4.81v-2.1h3.82v-2.514h-3.82v-2.1h4.81v-2.515h-7.44v11.746z"/></g><g id="Graphics"><g id="Play"><path id="Polygon_598" data-name="Polygon 598" d="M466.01 248.494L427.992 285v-73.012z" opacity=".77" fill="#fff" fill-rule="evenodd"/><circle cx="439.5" cy="248.5" r="67.5" fill="none" stroke="#fff" stroke-width="5" opacity=".77"/></g><g id="closeBtn"><path id="Rectangle_116_copy_3" data-name="Rectangle 116 copy 3" class="cls-2" d="M1330.01 58.336l-.94.929-13.69-13.565-14.44 14.3-.95-.938 14.44-14.3-13.96-13.832.94-.929 13.96 13.832 13.5-13.383.95.938-13.51 13.383z"/></g></g></svg>