<svg id="copy_copy_2" data-name="copy copy 2" xmlns="http://www.w3.org/2000/svg" width="1360" height="723"><defs><style>.cls-1,.cls-2{fill-rule:evenodd}.cls-2{fill:#fff}</style></defs><path id="SHOP_now_copy_2" data-name="SHOP now copy 2" class="cls-1" d="M713.036 87.492a2.944 2.944 0 0 0 2.651 1.408 2.257 2.257 0 0 0 2.483-2.256 2.329 2.329 0 0 0-1.75-2.289l-.754-.3c-.765-.3-1.132-.55-1.132-1.122a1.034 1.034 0 0 1 1.174-.9 1.772 1.772 0 0 1 1.414.726l.849-.869a2.808 2.808 0 0 0-2.253-1.067 2.2 2.2 0 0 0-2.42 2.2 2.259 2.259 0 0 0 1.76 2.2l.817.308a1.3 1.3 0 0 1 1.059 1.188 1.06 1.06 0 0 1-1.2.968 2.006 2.006 0 0 1-1.729-1zm8.348 1.276h1.226v-3.355h3.677v3.356h1.226v-7.812h-1.226v3.235h-3.677v-3.235h-1.226v7.812zm17.063-3.906A3.85 3.85 0 1 0 734.6 88.9a3.927 3.927 0 0 0 3.847-4.037zm-6.454 0a2.61 2.61 0 1 1 2.609 2.795 2.679 2.679 0 0 1-2.609-2.794zm12.045-3.906h-2.367v7.812h1.229v-2.706h1.142a2.553 2.553 0 1 0-.004-5.105zm-.01 3.9H742.9v-2.689h1.132a1.343 1.343 0 1 1-.004 2.685zm16.193 3.917v-7.816h-1.236v5.6l-4.181-5.6h-1.068v7.812h1.226v-5.623l4.19 5.623h1.069zm10.924-3.906A3.85 3.85 0 1 0 767.3 88.9a3.927 3.927 0 0 0 3.845-4.037zm-6.454 0a2.61 2.61 0 1 1 2.609 2.795 2.679 2.679 0 0 1-2.609-2.799zm15.45 3.906h1.131l1.928-7.812h-1.3l-1.362 5.678-2.127-5.81-2.126 5.81-1.362-5.678h-1.289l1.917 7.812h1.132l1.728-4.775zM712.7 91.337v-.99h72.36v.99H712.7z"/><path id="Vegan_Suede_Bomber_Jacket_" data-name="Vegan Suede Bomber Jacket" class="cls-1" d="M665.866 42.146h2.288l4.657-11.362h-2.8L667 38.354l-3.024-7.569h-2.769zm9.439 0h7.2v-2.432h-4.655v-2.032h3.7v-2.433h-3.7v-2.032h4.656v-2.432h-7.2v11.361zm15.681.192a6.279 6.279 0 0 0 4.657-1.68v-5.393h-4.705v2.385h2.225v1.68a3.7 3.7 0 0 1-2.209.544 3.411 3.411 0 1 1-.16-6.817 3.773 3.773 0 0 1 2.865 1.216l1.792-1.744a6.044 6.044 0 0 0-4.657-1.936 5.8 5.8 0 0 0-5.985 5.873 5.9 5.9 0 0 0 6.177 5.872zm6.431-.192h2.657l1.008-2.4h4.7l1.009 2.4h2.656l-4.865-11.362h-2.3zm4.593-4.609l1.424-3.425 1.424 3.425h-2.848zm20.177 4.609V30.785h-2.56v7.009l-5.521-7.009h-2.193v11.361h2.545v-7.025L720 42.146h2.192zm11.871.192c2.4 0 4.048-1.44 4.064-3.5.016-1.712-1.056-2.8-2.7-3.392l-.8-.288c-1.2-.432-1.761-.7-1.761-1.312a1.167 1.167 0 0 1 1.377-.864 2.527 2.527 0 0 1 1.968.944l1.664-1.76a4.74 4.74 0 0 0-3.664-1.568c-2.273 0-3.921 1.3-3.921 3.5 0 1.552 1.024 2.656 2.864 3.28l.8.272c1.136.384 1.584.784 1.584 1.36a1.152 1.152 0 0 1-1.376.944 2.972 2.972 0 0 1-2.353-1.3l-1.952 1.648a4.982 4.982 0 0 0 4.206 2.036zm11.648 0a4.456 4.456 0 0 0 4.672-4.689v-6.864h-2.544v6.9a2.129 2.129 0 1 1-4.257 0v-6.9h-2.544v6.865a4.447 4.447 0 0 0 4.673 4.688zm8.223-.192h7.2v-2.432h-4.657v-2.032h3.7v-2.433h-3.7v-2.032h4.657v-2.432h-7.2v11.361zm10.416 0h3.872a5.682 5.682 0 1 0 0-11.362h-3.872v11.362zm2.544-2.336v-6.689h1.328a3.347 3.347 0 0 1 0 6.689h-1.328zm10.176 2.336h7.2v-2.432h-4.657v-2.032h3.7v-2.433h-3.7v-2.032h4.657v-2.432h-7.2v11.361zm-137.12 24h4.993a3.359 3.359 0 0 0 3.456-3.344 2.969 2.969 0 0 0-1.616-2.688 2.674 2.674 0 0 0 .816-1.952 3.377 3.377 0 0 0-3.376-3.376h-4.273v11.36zm2.544-6.769v-2.272h1.441a1.155 1.155 0 0 1 1.184 1.152 1.139 1.139 0 0 1-1.184 1.12h-1.441zm0 4.433v-2.272h2.225a1.156 1.156 0 0 1 1.2 1.136 1.142 1.142 0 0 1-1.184 1.136h-2.241zm14.129 2.528a5.873 5.873 0 1 0-5.873-5.873 5.887 5.887 0 0 0 5.873 5.873zm0-2.464a3.41 3.41 0 1 1 3.3-3.409 3.371 3.371 0 0 1-3.3 3.409zm14.782-.144l3.312-4.593v7.009h2.56V54.785h-2.32l-3.552 4.9-3.553-4.9h-2.32v11.361h2.544v-7.009zm9.551 2.416h4.992A3.359 3.359 0 0 0 689.4 62.8a2.969 2.969 0 0 0-1.616-2.688 2.674 2.674 0 0 0 .816-1.952 3.378 3.378 0 0 0-3.377-3.376h-4.272v11.362zm2.544-6.769v-2.272h1.44a1.155 1.155 0 0 1 1.184 1.152 1.139 1.139 0 0 1-1.184 1.12H683.5zm0 4.433v-2.272h2.224a1.156 1.156 0 0 1 1.2 1.136 1.142 1.142 0 0 1-1.184 1.136H683.5zm8.9 2.336h7.2v-2.432h-4.656v-2.032h3.7v-2.433h-3.7v-2.032h4.656v-2.432h-7.2v11.361zm10.416 0h2.545v-4.688h.416l3.776 4.689h3.052l-4.017-5.009a2.933 2.933 0 0 0 2.225-2.928 3.355 3.355 0 0 0-3.521-3.425h-4.481v11.361zm2.545-6.849v-2.176h1.632a1.132 1.132 0 0 1 1.3 1.088 1.15 1.15 0 0 1-1.3 1.088h-1.632zm16.192 7.041c1.952 0 3.712-.976 3.712-3.3v-8.253h-2.544v8.1a1.169 1.169 0 0 1-2.336-.064h-2.513a3.369 3.369 0 0 0 3.678 3.517zm5.839-.192h2.657l1.008-2.4h4.7l1.009 2.4h2.656l-4.865-11.362h-2.3zm4.593-4.609l1.424-3.425 1.424 3.425h-2.848zm14.624 4.8a5.873 5.873 0 0 0 5.313-3.1l-2.24-1.216a3.409 3.409 0 1 1 0-3.1l2.24-1.216a5.923 5.923 0 1 0-5.317 8.633zm8.079-.192h2.529v-5.087l4.624 5.089h3.264l-5.393-5.9 4.481-5.457h-3.121l-3.856 4.753v-4.758h-2.531v11.361zm12.48 0h7.2v-2.431h-4.656v-2.032h3.7v-2.433h-3.7v-2.032h4.656v-2.432h-7.2v11.361zm12.465 0h2.56v-8.928h2.928v-2.432h-8.385v2.432h2.9v8.929z"/><g id="Number_copy_2" data-name="Number copy 2"><path id="_04" data-name="4" class="cls-2" d="M1310.13 632.1v-3.724c0-3.2-2.13-5.466-5.13-5.466s-5.12 2.263-5.12 5.466v3.724c0 3.2 2.13 5.465 5.12 5.465s5.13-2.265 5.13-5.465zm-8.06 0v-3.724c0-2.062 1.21-3.3 2.93-3.3s2.94 1.242 2.94 3.3v3.724c0 2.082-1.21 3.3-2.94 3.3s-2.93-1.218-2.93-3.3zm17.29 5.265h2.19V633.8h1.89v-2.042h-1.89v-8.608h-1.95l-7.55 8.87v1.78h7.31v3.564zm0-5.606h-4.56l4.56-5.325v5.325z"/><path id="_04-2" data-name="4" class="cls-2" d="M1310.13 687.458v-3.724c0-3.2-2.13-5.465-5.13-5.465s-5.12 2.262-5.12 5.465v3.724c0 3.2 2.13 5.466 5.12 5.466s5.13-2.262 5.13-5.466zm-8.06 0v-3.724c0-2.062 1.21-3.3 2.93-3.3s2.94 1.241 2.94 3.3v3.724c0 2.083-1.21 3.3-2.94 3.3s-2.93-1.217-2.93-3.3zm17.29 5.266h2.19v-3.564h1.89v-2.042h-1.89v-8.609h-1.95l-7.55 8.869v1.782h7.31v3.564zm0-5.606h-4.56l4.56-5.326v5.326z"/><path class="cls-2" d="M1293 658v-1h37v1h-37z"/></g><g id="X_copy_3" data-name="X copy 3"><path id="Rectangle_116_copy_2" data-name="Rectangle 116 copy 2" class="cls-2" d="M1330.01 58.336l-.94.929-13.69-13.565-14.44 14.3-.95-.938 14.44-14.3-13.96-13.832.94-.929 13.96 13.832 13.5-13.383.95.938-13.51 13.383z"/></g><g id="L_copy_4" data-name="L copy 4"><path id="Rectangle_116_copy" data-name="Rectangle 116 copy" class="cls-1" d="M57.12 334.161l-27.338 27.578 26.874 27.11-.913.921-27.863-28.107.913-.921.066.066L56.2 333.23z"/></g></svg>