<svg id="copy_copy_2" data-name="copy copy 2" xmlns="http://www.w3.org/2000/svg" width="1360" height="723"><defs><style>.cls-1{fill:#fff}.cls-1,.cls-2{fill-rule:evenodd}</style></defs><path id="Textured_Cotton_Mock-Neck_Cardigan_Sweater" data-name="Textured Cotton Mock-Neck Cardigan Sweater" class="cls-1" d="M22.635 679.146H25.2v-8.929h2.928v-2.432h-8.389v2.432h2.9v8.929zm8.32 0h7.2v-2.432H33.5v-2.032h3.7v-2.433h-3.7v-2.032h4.657v-2.432h-7.2v11.361zm17.665 0h2.96l-4.241-5.746 3.985-5.617H48.38l-2.58 3.65-2.576-3.648h-2.942l4 5.617-4.257 5.744H43l2.817-3.76zm7.343 0h2.56v-8.929h2.928v-2.432h-8.385v2.432h2.9v8.929zm12.864.192a4.456 4.456 0 0 0 4.673-4.688v-6.865h-2.545v6.9a2.129 2.129 0 1 1-4.257 0v-6.9h-2.544v6.865a4.447 4.447 0 0 0 4.673 4.688zm8.223-.192h2.544v-4.688h.416l3.777 4.688h3.056l-4.017-5.008a2.933 2.933 0 0 0 2.224-2.929 3.354 3.354 0 0 0-3.52-3.424h-4.48v11.361zm2.544-6.849v-2.176h1.632a1.132 1.132 0 0 1 1.3 1.088 1.15 1.15 0 0 1-1.3 1.088h-1.631zm9.327 6.849h7.2v-2.432h-4.655v-2.032h3.7v-2.433h-3.7v-2.032h4.657v-2.432h-7.2v11.361zm10.416 0h3.872a5.682 5.682 0 1 0 0-11.361h-3.871v11.361zm2.544-2.336v-6.689h1.328a3.347 3.347 0 0 1 0 6.689h-1.328zm20.208 2.528a5.872 5.872 0 0 0 5.313-3.1l-2.24-1.216a3.409 3.409 0 1 1 0-3.105l2.24-1.216a5.923 5.923 0 1 0-5.312 8.637zm13.312 0a5.873 5.873 0 1 0-5.873-5.872 5.886 5.886 0 0 0 5.872 5.872zm0-2.464a3.41 3.41 0 1 1 3.3-3.408 3.371 3.371 0 0 1-3.301 3.408zm10.528 2.272h2.56v-8.929h2.929v-2.432h-8.386v2.432h2.9v8.929zm10.368 0h2.56v-8.929h2.928v-2.432H153.4v2.432h2.9v8.929zm13.12.192a5.873 5.873 0 1 0-5.873-5.872 5.886 5.886 0 0 0 5.874 5.872zm0-2.464a3.41 3.41 0 1 1 3.3-3.408 3.371 3.371 0 0 1-3.299 3.408zm19.185 2.272v-11.361h-2.561v7.009l-5.521-7.009h-2.192v11.361h2.544v-7.025l5.537 7.025h2.191zm14.351-2.416l3.312-4.593v7.009h2.56v-11.361h-2.32l-3.552 4.9-3.553-4.9h-2.32v11.361h2.544v-7.009zm14.783 2.608a5.873 5.873 0 1 0-5.873-5.872 5.886 5.886 0 0 0 5.874 5.872zm0-2.464a3.41 3.41 0 1 1 3.3-3.408 3.371 3.371 0 0 1-3.299 3.408zm14.144 2.464a5.874 5.874 0 0 0 5.313-3.1l-2.24-1.216a3.409 3.409 0 1 1 0-3.105l2.24-1.216a5.923 5.923 0 1 0-5.312 8.637zm8.079-.192h2.529v-5.088l4.624 5.088h3.265l-5.393-5.9 4.481-5.456h-3.121l-3.856 4.752v-4.752h-2.528v11.361zm11.184-4.528h4.7v-2.305h-4.7v2.305zm18.386 4.528v-11.361h-2.561v7.009l-5.521-7.009h-2.192v11.361h2.545v-7.025l5.536 7.025h2.193zm3.678 0h7.2v-2.432h-4.657v-2.032h3.7v-2.433h-3.7v-2.032h4.657v-2.432h-7.2v11.361zm15.361.192a5.874 5.874 0 0 0 5.313-3.1l-2.241-1.216a3.409 3.409 0 1 1 0-3.105l2.241-1.216a5.923 5.923 0 1 0-5.312 8.637zm8.079-.192h2.529v-5.088l4.624 5.088h3.265l-5.393-5.9 4.481-5.456h-3.121l-3.856 4.752v-4.752h-2.529v11.361zM25.819 703.338a5.873 5.873 0 0 0 5.313-3.1l-2.24-1.216a3.409 3.409 0 1 1 0-3.105l2.24-1.216a5.923 5.923 0 1 0-5.313 8.637zm6.591-.192h2.656l1.008-2.4h4.7l1.008 2.4h2.656l-4.858-11.361h-2.3zm4.59-4.608l1.424-3.425 1.424 3.425H37zm9.9 4.608h2.544v-4.688h.416l3.776 4.688H56.7l-4.017-5.008a2.933 2.933 0 0 0 2.224-2.929 3.354 3.354 0 0 0-3.52-3.424h-4.48v11.361zm2.544-6.849v-2.176h1.632a1.132 1.132 0 0 1 1.3 1.088 1.15 1.15 0 0 1-1.3 1.088h-1.625zm9.327 6.849h3.873a5.682 5.682 0 1 0 0-11.361h-3.866v11.361zm2.544-2.336v-6.689h1.328a3.347 3.347 0 0 1 0 6.689h-1.32zm10.185 2.336h2.544v-11.361H71.5v11.361zm11.777.192a6.28 6.28 0 0 0 4.657-1.68v-5.393h-4.7v2.385h2.224v1.68a3.7 3.7 0 0 1-2.208.544 3.411 3.411 0 1 1-.16-6.817 3.773 3.773 0 0 1 2.864 1.216l1.792-1.744a6.046 6.046 0 0 0-4.657-1.936 5.8 5.8 0 0 0-5.985 5.873 5.9 5.9 0 0 0 6.171 5.872zm6.431-.192h2.656l1.008-2.4h4.7l1.008 2.4h2.657l-4.865-11.361h-2.3zm4.593-4.608l1.424-3.425 1.424 3.425H94.3zm20.177 4.608v-11.361h-2.561v7.009l-5.521-7.009H104.2v11.361h2.545v-7.025l5.536 7.025h2.193zm11.87.192c2.4 0 4.049-1.44 4.065-3.5.016-1.712-1.056-2.8-2.7-3.393l-.8-.288c-1.2-.432-1.76-.7-1.76-1.312a1.166 1.166 0 0 1 1.376-.864 2.529 2.529 0 0 1 1.969.944l1.664-1.76a4.742 4.742 0 0 0-3.665-1.568c-2.272 0-3.92 1.3-3.92 3.5 0 1.552 1.024 2.657 2.864 3.281l.8.272c1.136.384 1.584.784 1.584 1.36a1.152 1.152 0 0 1-1.376.944 2.972 2.972 0 0 1-2.352-1.3l-1.952 1.648a4.981 4.981 0 0 0 4.201 2.036zm15.873-.192h2.416l2.641-11.361h-2.721l-1.552 7.2-3.2-7.393-3.185 7.393-1.552-7.2h-2.72l2.624 11.361h2.416l2.417-5.568zm7.775 0h7.2v-2.432h-4.657v-2.032h3.7v-2.433h-3.7v-2.032h4.661v-2.432H150v11.361zm9.2 0h2.656l1.008-2.4h4.7l1.008 2.4h2.656l-4.864-11.361h-2.305zm4.592-4.608l1.424-3.425 1.425 3.425h-2.849zm10.816 4.608h2.56v-8.929h2.929v-2.432h-8.385v2.432h2.9v8.929zm8.32 0h7.2v-2.432h-4.657v-2.032h3.7v-2.433h-3.7v-2.032h4.657v-2.432h-7.2v11.361zm10.416 0h2.544v-4.688h.416l3.777 4.688h3.056l-4.017-5.008a2.933 2.933 0 0 0 2.225-2.929 3.354 3.354 0 0 0-3.521-3.424h-4.48v11.361zm2.544-6.849v-2.176h1.632a1.132 1.132 0 0 1 1.3 1.088 1.15 1.15 0 0 1-1.3 1.088h-1.632z"/><path id="Suede_Trucker_Jacket_" data-name="Suede Trucker Jacket" class="cls-1" d="M931.979 703.338c2.4 0 4.049-1.44 4.065-3.5.016-1.712-1.056-2.8-2.7-3.393l-.8-.288c-1.2-.432-1.76-.7-1.76-1.312a1.166 1.166 0 0 1 1.376-.864 2.527 2.527 0 0 1 1.968.944l1.665-1.76a4.742 4.742 0 0 0-3.665-1.568c-2.272 0-3.92 1.3-3.92 3.5 0 1.552 1.024 2.657 2.864 3.281l.8.272c1.136.384 1.584.784 1.584 1.36a1.152 1.152 0 0 1-1.376.944 2.972 2.972 0 0 1-2.352-1.3l-1.952 1.648a4.981 4.981 0 0 0 4.203 2.036zm11.648 0a4.456 4.456 0 0 0 4.673-4.688v-6.865h-2.545v6.9a2.129 2.129 0 1 1-4.256 0v-6.9h-2.545v6.865a4.448 4.448 0 0 0 4.673 4.688zm8.223-.192h7.2v-2.432h-4.65v-2.032h3.7v-2.433h-3.7v-2.032h4.656v-2.432h-7.2v11.361zm10.416 0h3.873a5.682 5.682 0 1 0 0-11.361h-3.873v11.361zm2.545-2.336v-6.689h1.328a3.347 3.347 0 0 1 0 6.689h-1.328zm10.175 2.336h7.2v-2.432h-4.656v-2.032h3.7v-2.433h-3.7v-2.032h4.656v-2.432h-7.2v11.361zm16.8 0h2.561v-8.929h2.928v-2.432h-8.385v2.432h2.9v8.929zm8.324 0h2.54v-4.688h.42l3.77 4.688h3.06l-4.02-5.008a2.938 2.938 0 0 0 2.23-2.929 3.356 3.356 0 0 0-3.52-3.424h-4.48v11.361zm2.54-6.849v-2.176h1.63a1.136 1.136 0 0 1 1.3 1.088 1.155 1.155 0 0 1-1.3 1.088h-1.63zm13.66 7.041a4.456 4.456 0 0 0 4.68-4.688v-6.865h-2.55v6.9a2.126 2.126 0 1 1-4.25 0v-6.9h-2.55v6.865a4.448 4.448 0 0 0 4.67 4.688zm13.46 0a5.86 5.86 0 0 0 5.31-3.1l-2.24-1.216a3.409 3.409 0 1 1 0-3.105l2.24-1.216a5.921 5.921 0 1 0-5.31 8.637zm8.08-.192h2.53v-5.088l4.62 5.088h3.27l-5.4-5.9 4.49-5.456h-3.13l-3.85 4.752v-4.752h-2.53v11.361zm12.48 0h7.2v-2.432h-4.66v-2.032h3.7v-2.433h-3.7v-2.032h4.66v-2.432h-7.2v11.361zm10.42 0h2.54v-4.688h.42l3.77 4.688h3.06l-4.02-5.008a2.938 2.938 0 0 0 2.23-2.929 3.356 3.356 0 0 0-3.52-3.424h-4.48v11.361zm2.54-6.849v-2.176h1.63a1.136 1.136 0 0 1 1.3 1.088 1.155 1.155 0 0 1-1.3 1.088h-1.63zm16.19 7.041c1.95 0 3.71-.976 3.71-3.3v-8.257h-2.54v8.1a1.069 1.069 0 0 1-1.17 1.088 1.083 1.083 0 0 1-1.17-1.152h-2.51a3.37 3.37 0 0 0 3.68 3.521zm5.84-.192h2.66l1.01-2.4h4.7l1.01 2.4h2.66l-4.87-11.361h-2.3zm4.59-4.608l1.43-3.425 1.42 3.425h-2.85zm14.63 4.8a5.86 5.86 0 0 0 5.31-3.1l-2.24-1.216a3.409 3.409 0 1 1 0-3.105l2.24-1.216a5.921 5.921 0 1 0-5.31 8.637zm8.08-.192h2.53v-5.088l4.62 5.088h3.27l-5.4-5.9 4.48-5.456H1119l-3.85 4.752v-4.752h-2.53v11.361zm12.48 0h7.2v-2.432h-4.66v-2.032h3.7v-2.433h-3.7v-2.032h4.66v-2.432h-7.2v11.361zm12.46 0h2.56v-8.929h2.93v-2.432h-8.38v2.432h2.89v8.929z"/><path id="SHOP_now" data-name="SHOP now" class="cls-1" d="M224.036 698.492a2.943 2.943 0 0 0 2.651 1.409 2.257 2.257 0 0 0 2.483-2.256 2.331 2.331 0 0 0-1.75-2.289l-.754-.3c-.765-.3-1.132-.55-1.132-1.122a1.034 1.034 0 0 1 1.174-.9 1.772 1.772 0 0 1 1.414.726l.849-.869a2.81 2.81 0 0 0-2.253-1.068 2.2 2.2 0 0 0-2.42 2.2 2.26 2.26 0 0 0 1.76 2.2l.817.308a1.3 1.3 0 0 1 1.059 1.188 1.06 1.06 0 0 1-1.2.968 2.006 2.006 0 0 1-1.729-1zm8.348 1.277h1.226v-3.356h3.677v3.356h1.226v-7.813h-1.226v3.235h-3.677v-3.235h-1.226v7.813zm17.063-3.906a3.85 3.85 0 1 0-3.847 4.037 3.927 3.927 0 0 0 3.847-4.037zm-6.454 0a2.61 2.61 0 1 1 2.609 2.794 2.678 2.678 0 0 1-2.609-2.794zm12.045-3.907h-2.367v7.813h1.229v-2.707h1.142a2.553 2.553 0 1 0-.004-5.106zm-.01 3.9H253.9v-2.685h1.132a1.343 1.343 0 1 1-.004 2.681zm16.193 3.917v-7.813h-1.236v5.6l-4.181-5.6h-1.068v7.813h1.226v-5.623l4.19 5.623h1.069zm10.924-3.906a3.85 3.85 0 1 0-3.845 4.033 3.927 3.927 0 0 0 3.845-4.037zm-6.454 0a2.61 2.61 0 1 1 2.609 2.794 2.678 2.678 0 0 1-2.609-2.798zm15.45 3.906h1.131l1.928-7.813h-1.3l-1.362 5.678-2.127-5.81-2.126 5.81-1.362-5.678h-1.289l1.917 7.813h1.132l1.728-4.776zm-67.44 2.568v-.99h72.36v.99H223.7z"/><g id="Number_copy_4" data-name="Number copy 4"><path id="_02" data-name="2" class="cls-2" d="M1310.13 632.1v-3.724c0-3.2-2.13-5.466-5.13-5.466s-5.12 2.263-5.12 5.466v3.724c0 3.2 2.13 5.465 5.12 5.465s5.13-2.265 5.13-5.465zm-8.06 0v-3.724c0-2.062 1.21-3.3 2.93-3.3s2.94 1.242 2.94 3.3v3.724c0 2.082-1.21 3.3-2.94 3.3s-2.93-1.218-2.93-3.3zm19.91 3.1h-6.47c.36-1.281 1.94-2.082 3.21-3.043 2.07-1.5 3.12-2.723 3.12-4.985a4.12 4.12 0 0 0-4.43-4.265 4.527 4.527 0 0 0-4.78 4.585h2.21a2.394 2.394 0 0 1 2.55-2.423 2.076 2.076 0 0 1 2.24 2.163c0 1.441-.91 2.242-2.36 3.3-2.07 1.542-4.64 2.9-4.64 6.026v.8h9.35V635.2z"/><path id="_04" data-name="4" class="cls-2" d="M1310.13 687.458v-3.724c0-3.2-2.13-5.465-5.13-5.465s-5.12 2.262-5.12 5.465v3.724c0 3.2 2.13 5.466 5.12 5.466s5.13-2.262 5.13-5.466zm-8.06 0v-3.724c0-2.062 1.21-3.3 2.93-3.3s2.94 1.241 2.94 3.3v3.724c0 2.083-1.21 3.3-2.94 3.3s-2.93-1.217-2.93-3.3zm17.29 5.266h2.19v-3.564h1.89v-2.042h-1.89v-8.609h-1.95l-7.55 8.869v1.782h7.31v3.564zm0-5.606h-4.56l4.56-5.326v5.326z"/><path class="cls-2" d="M1293 658v-1h37v1h-37z"/></g><g id="X"><path id="Rectangle_116_copy_2" data-name="Rectangle 116 copy 2" class="cls-2" d="M1330.01 58.336l-.94.929-13.69-13.565-14.44 14.3-.95-.938 14.44-14.3-13.96-13.832.94-.929 13.96 13.832 13.5-13.383.95.938-13.51 13.383z"/></g><g id="R_copy_2" data-name="R copy 2"><path id="Rectangle_116_copy" data-name="Rectangle 116 copy" class="cls-2" d="M1328.51 362.768l-.07-.068-27.94 27.9-.95-.941 27.95-27.9-27.47-27.421.93-.932 28.49 28.431z"/></g><g id="L_copy_2" data-name="L copy 2"><path id="Rectangle_116_copy-2" data-name="Rectangle 116 copy" class="cls-2" d="M57.12 334.161l-27.338 27.578 26.874 27.11-.913.921-27.863-28.107.913-.921.066.066L56.2 333.23z"/></g></svg>