<svg id="copy_copy_2" data-name="copy copy 2" xmlns="http://www.w3.org/2000/svg" width="1360" height="723" viewBox="0 0 1360 723">
  <defs>
    <style>
      .cls-1 {
        fill: #fff;
      }

      .cls-1, .cls-2 {
        fill-rule: evenodd;
      }
    </style>
  </defs>
  <path id="Textured_Cotton_Mock-Neck_Cardigan_Sweater" data-name="Textured Cotton Mock-Neck Cardigan Sweater" class="cls-1" d="M22.635,679.146H25.2v-8.929h2.928v-2.432H19.739v2.432h2.9v8.929Zm8.32,0h7.2v-2.432H33.5v-2.032h3.7v-2.433H33.5v-2.032h4.657v-2.432h-7.2v11.361Zm17.665,0h2.96L47.339,673.4l3.985-5.617H48.38L45.8,671.433l-2.576-3.648H40.282l4,5.617-4.257,5.744H43l2.817-3.76Zm7.343,0h2.56v-8.929h2.928v-2.432H53.066v2.432h2.9v8.929Zm12.864,0.192A4.456,4.456,0,0,0,73.5,674.65v-6.865H70.955v6.9a2.129,2.129,0,1,1-4.257,0v-6.9H64.154v6.865A4.447,4.447,0,0,0,68.827,679.338Zm8.223-.192h2.544v-4.688h0.416l3.777,4.688h3.056l-4.017-5.008a2.933,2.933,0,0,0,2.224-2.929,3.354,3.354,0,0,0-3.52-3.424H77.05v11.361Zm2.544-6.849v-2.176h1.632a1.132,1.132,0,0,1,1.3,1.088,1.15,1.15,0,0,1-1.3,1.088H79.595Zm9.327,6.849h7.2v-2.432H91.466v-2.032h3.7v-2.433h-3.7v-2.032h4.657v-2.432h-7.2v11.361Zm10.416,0h3.872a5.682,5.682,0,1,0,0-11.361H99.338v11.361Zm2.544-2.336v-6.689h1.328a3.347,3.347,0,0,1,0,6.689h-1.328Zm20.208,2.528a5.872,5.872,0,0,0,5.313-3.1l-2.24-1.216a3.409,3.409,0,1,1,0-3.105l2.24-1.216A5.923,5.923,0,1,0,122.09,679.338Zm13.312,0a5.873,5.873,0,1,0-5.873-5.872A5.886,5.886,0,0,0,135.4,679.338Zm0-2.464a3.41,3.41,0,1,1,3.3-3.408A3.371,3.371,0,0,1,135.4,676.874Zm10.528,2.272h2.56v-8.929h2.929v-2.432h-8.386v2.432h2.9v8.929Zm10.368,0h2.56v-8.929h2.928v-2.432H153.4v2.432h2.9v8.929Zm13.12,0.192a5.873,5.873,0,1,0-5.873-5.872A5.886,5.886,0,0,0,169.418,679.338Zm0-2.464a3.41,3.41,0,1,1,3.3-3.408A3.371,3.371,0,0,1,169.418,676.874Zm19.185,2.272V667.785h-2.561v7.009l-5.521-7.009h-2.192v11.361h2.544v-7.025l5.537,7.025H188.6Zm14.351-2.416,3.312-4.593v7.009h2.56V667.785h-2.32l-3.552,4.9-3.553-4.9h-2.32v11.361h2.544v-7.009Zm14.783,2.608a5.873,5.873,0,1,0-5.873-5.872A5.886,5.886,0,0,0,217.737,679.338Zm0-2.464a3.41,3.41,0,1,1,3.3-3.408A3.371,3.371,0,0,1,217.737,676.874Zm14.144,2.464a5.874,5.874,0,0,0,5.313-3.1l-2.24-1.216a3.409,3.409,0,1,1,0-3.105l2.24-1.216A5.923,5.923,0,1,0,231.881,679.338Zm8.079-.192h2.529v-5.088l4.624,5.088h3.265l-5.393-5.9,4.481-5.456h-3.121l-3.856,4.752v-4.752H239.96v11.361Zm11.184-4.528h4.7v-2.305h-4.7v2.305Zm18.386,4.528V667.785h-2.561v7.009l-5.521-7.009h-2.192v11.361H261.8v-7.025l5.536,7.025h2.193Zm3.678,0h7.2v-2.432h-4.657v-2.032h3.7v-2.433h-3.7v-2.032h4.657v-2.432h-7.2v11.361Zm15.361,0.192a5.874,5.874,0,0,0,5.313-3.1l-2.241-1.216a3.409,3.409,0,1,1,0-3.105l2.241-1.216A5.923,5.923,0,1,0,288.569,679.338Zm8.079-.192h2.529v-5.088l4.624,5.088h3.265l-5.393-5.9,4.481-5.456h-3.121l-3.856,4.752v-4.752h-2.529v11.361ZM25.819,703.338a5.873,5.873,0,0,0,5.313-3.1l-2.24-1.216a3.409,3.409,0,1,1,0-3.105l2.24-1.216A5.923,5.923,0,1,0,25.819,703.338Zm6.591-.192h2.656l1.008-2.4h4.7l1.008,2.4h2.656L39.58,691.785h-2.3ZM37,698.538l1.424-3.425,1.424,3.425H37Zm9.9,4.608h2.544v-4.688h0.416l3.776,4.688H56.7l-4.017-5.008a2.933,2.933,0,0,0,2.224-2.929,3.354,3.354,0,0,0-3.52-3.424H46.907v11.361Zm2.544-6.849v-2.176h1.632a1.132,1.132,0,0,1,1.3,1.088,1.15,1.15,0,0,1-1.3,1.088H49.451Zm9.327,6.849h3.873a5.682,5.682,0,1,0,0-11.361H58.778v11.361Zm2.544-2.336v-6.689h1.328a3.347,3.347,0,0,1,0,6.689H61.323ZM71.5,703.146h2.544V691.785H71.5v11.361Zm11.777,0.192a6.28,6.28,0,0,0,4.657-1.68v-5.393h-4.7v2.385h2.224v1.68a3.7,3.7,0,0,1-2.208.544,3.411,3.411,0,1,1-.16-6.817,3.773,3.773,0,0,1,2.864,1.216l1.792-1.744a6.046,6.046,0,0,0-4.657-1.936,5.8,5.8,0,0,0-5.985,5.873A5.9,5.9,0,0,0,83.275,703.338Zm6.431-.192h2.656l1.008-2.4h4.7l1.008,2.4h2.657l-4.865-11.361h-2.3Zm4.593-4.608,1.424-3.425,1.424,3.425H94.3Zm20.177,4.608V691.785h-2.561v7.009l-5.521-7.009H104.2v11.361h2.545v-7.025l5.536,7.025h2.193Zm11.87,0.192c2.4,0,4.049-1.44,4.065-3.5,0.016-1.712-1.056-2.8-2.7-3.393l-0.8-.288c-1.2-.432-1.76-0.7-1.76-1.312a1.166,1.166,0,0,1,1.376-.864,2.529,2.529,0,0,1,1.969.944l1.664-1.76a4.742,4.742,0,0,0-3.665-1.568c-2.272,0-3.92,1.3-3.92,3.5,0,1.552,1.024,2.657,2.864,3.281l0.8,0.272c1.136,0.384,1.584.784,1.584,1.36a1.152,1.152,0,0,1-1.376.944,2.972,2.972,0,0,1-2.352-1.3l-1.952,1.648A4.981,4.981,0,0,0,126.346,703.338Zm15.873-.192h2.416l2.641-11.361h-2.721l-1.552,7.2-3.2-7.393-3.185,7.393-1.552-7.2h-2.72l2.624,11.361h2.416l2.417-5.568Zm7.775,0h7.2v-2.432h-4.657v-2.032h3.7v-2.433h-3.7v-2.032H157.2v-2.432h-7.2v11.361Zm9.2,0h2.656l1.008-2.4h4.7l1.008,2.4h2.656l-4.864-11.361h-2.305Zm4.592-4.608,1.424-3.425,1.425,3.425h-2.849Zm10.816,4.608h2.56v-8.929h2.929v-2.432h-8.385v2.432h2.9v8.929Zm8.32,0h7.2v-2.432h-4.657v-2.032h3.7v-2.433h-3.7v-2.032h4.657v-2.432h-7.2v11.361Zm10.416,0h2.544v-4.688H196.3l3.777,4.688h3.056l-4.017-5.008a2.933,2.933,0,0,0,2.225-2.929,3.354,3.354,0,0,0-3.521-3.424h-4.48v11.361Zm2.544-6.849v-2.176h1.632a1.132,1.132,0,0,1,1.3,1.088,1.15,1.15,0,0,1-1.3,1.088h-1.632Z"/>
  <path id="Suede_Trucker_Jacket_" data-name="Suede Trucker Jacket  " class="cls-1" d="M931.979,703.338c2.4,0,4.049-1.44,4.065-3.5,0.016-1.712-1.056-2.8-2.7-3.393l-0.8-.288c-1.2-.432-1.76-0.7-1.76-1.312a1.166,1.166,0,0,1,1.376-.864,2.527,2.527,0,0,1,1.968.944l1.665-1.76a4.742,4.742,0,0,0-3.665-1.568c-2.272,0-3.92,1.3-3.92,3.5,0,1.552,1.024,2.657,2.864,3.281l0.8,0.272c1.136,0.384,1.584.784,1.584,1.36a1.152,1.152,0,0,1-1.376.944,2.972,2.972,0,0,1-2.352-1.3l-1.952,1.648A4.981,4.981,0,0,0,931.979,703.338Zm11.648,0a4.456,4.456,0,0,0,4.673-4.688v-6.865h-2.545v6.9a2.129,2.129,0,1,1-4.256,0v-6.9h-2.545v6.865A4.448,4.448,0,0,0,943.627,703.338Zm8.223-.192h7.2v-2.432H954.4v-2.032h3.7v-2.433h-3.7v-2.032h4.656v-2.432h-7.2v11.361Zm10.416,0h3.873a5.682,5.682,0,1,0,0-11.361h-3.873v11.361Zm2.545-2.336v-6.689h1.328a3.347,3.347,0,0,1,0,6.689h-1.328Zm10.175,2.336h7.2v-2.432h-4.656v-2.032h3.7v-2.433h-3.7v-2.032h4.656v-2.432h-7.2v11.361Zm16.8,0h2.561v-8.929h2.928v-2.432H988.89v2.432h2.9v8.929Zm8.324,0h2.54v-4.688h0.42l3.77,4.688h3.06l-4.02-5.008a2.938,2.938,0,0,0,2.23-2.929,3.356,3.356,0,0,0-3.52-3.424h-4.48v11.361Zm2.54-6.849v-2.176h1.63a1.136,1.136,0,0,1,1.3,1.088,1.155,1.155,0,0,1-1.3,1.088h-1.63Zm13.66,7.041a4.456,4.456,0,0,0,4.68-4.688v-6.865h-2.55v6.9a2.126,2.126,0,1,1-4.25,0v-6.9h-2.55v6.865A4.448,4.448,0,0,0,1016.31,703.338Zm13.46,0a5.86,5.86,0,0,0,5.31-3.1l-2.24-1.216a3.409,3.409,0,1,1,0-3.105l2.24-1.216A5.921,5.921,0,1,0,1029.77,703.338Zm8.08-.192h2.53v-5.088l4.62,5.088h3.27l-5.4-5.9,4.49-5.456h-3.13l-3.85,4.752v-4.752h-2.53v11.361Zm12.48,0h7.2v-2.432h-4.66v-2.032h3.7v-2.433h-3.7v-2.032h4.66v-2.432h-7.2v11.361Zm10.42,0h2.54v-4.688h0.42l3.77,4.688h3.06l-4.02-5.008a2.938,2.938,0,0,0,2.23-2.929,3.356,3.356,0,0,0-3.52-3.424h-4.48v11.361Zm2.54-6.849v-2.176h1.63a1.136,1.136,0,0,1,1.3,1.088,1.155,1.155,0,0,1-1.3,1.088h-1.63Zm16.19,7.041c1.95,0,3.71-.976,3.71-3.3v-8.257h-2.54v8.1a1.069,1.069,0,0,1-1.17,1.088,1.083,1.083,0,0,1-1.17-1.152h-2.51A3.37,3.37,0,0,0,1079.48,703.338Zm5.84-.192h2.66l1.01-2.4h4.7l1.01,2.4h2.66l-4.87-11.361h-2.3Zm4.59-4.608,1.43-3.425,1.42,3.425h-2.85Zm14.63,4.8a5.86,5.86,0,0,0,5.31-3.1l-2.24-1.216a3.409,3.409,0,1,1,0-3.105l2.24-1.216A5.921,5.921,0,1,0,1104.54,703.338Zm8.08-.192h2.53v-5.088l4.62,5.088h3.27l-5.4-5.9,4.48-5.456H1119l-3.85,4.752v-4.752h-2.53v11.361Zm12.48,0h7.2v-2.432h-4.66v-2.032h3.7v-2.433h-3.7v-2.032h4.66v-2.432h-7.2v11.361Zm12.46,0h2.56v-8.929h2.93v-2.432h-8.38v2.432h2.89v8.929Z"/>
  <path id="SHOP_now" data-name="SHOP now" class="cls-1" d="M224.036,698.492a2.943,2.943,0,0,0,2.651,1.409,2.257,2.257,0,0,0,2.483-2.256,2.331,2.331,0,0,0-1.75-2.289l-0.754-.3c-0.765-.3-1.132-0.55-1.132-1.122a1.034,1.034,0,0,1,1.174-.9,1.772,1.772,0,0,1,1.414.726l0.849-.869a2.81,2.81,0,0,0-2.253-1.068,2.2,2.2,0,0,0-2.42,2.2,2.26,2.26,0,0,0,1.76,2.2l0.817,0.308a1.3,1.3,0,0,1,1.059,1.188,1.06,1.06,0,0,1-1.2.968,2.006,2.006,0,0,1-1.729-1Zm8.348,1.277h1.226v-3.356h3.677v3.356h1.226v-7.813h-1.226v3.235H233.61v-3.235h-1.226v7.813Zm17.063-3.906A3.85,3.85,0,1,0,245.6,699.9,3.927,3.927,0,0,0,249.447,695.863Zm-6.454,0a2.61,2.61,0,1,1,2.609,2.794A2.678,2.678,0,0,1,242.993,695.863Zm12.045-3.907h-2.367v7.813H253.9v-2.707h1.142A2.553,2.553,0,1,0,255.038,691.956Zm-0.01,3.9H253.9v-2.685h1.132A1.343,1.343,0,1,1,255.028,695.852Zm16.193,3.917v-7.813h-1.236v5.6l-4.181-5.6h-1.068v7.813h1.226v-5.623l4.19,5.623h1.069Zm10.924-3.906A3.85,3.85,0,1,0,278.3,699.9,3.927,3.927,0,0,0,282.145,695.863Zm-6.454,0a2.61,2.61,0,1,1,2.609,2.794A2.678,2.678,0,0,1,275.691,695.863Zm15.45,3.906h1.131l1.928-7.813h-1.3l-1.362,5.678-2.127-5.81-2.126,5.81-1.362-5.678h-1.289l1.917,7.813h1.132l1.728-4.776Zm-67.44,2.568v-0.99h72.36v0.99H223.7Z"/>
  <g id="Number_copy_4" data-name="Number copy 4">
    <path id="_02" data-name="02" class="cls-2" d="M1310.13,632.1v-3.724c0-3.2-2.13-5.466-5.13-5.466s-5.12,2.263-5.12,5.466V632.1c0,3.2,2.13,5.465,5.12,5.465S1310.13,635.3,1310.13,632.1Zm-8.06,0v-3.724c0-2.062,1.21-3.3,2.93-3.3s2.94,1.242,2.94,3.3V632.1c0,2.082-1.21,3.3-2.94,3.3S1302.07,634.182,1302.07,632.1Zm19.91,3.1h-6.47c0.36-1.281,1.94-2.082,3.21-3.043,2.07-1.5,3.12-2.723,3.12-4.985a4.12,4.12,0,0,0-4.43-4.265,4.527,4.527,0,0,0-4.78,4.585h2.21a2.394,2.394,0,0,1,2.55-2.423,2.076,2.076,0,0,1,2.24,2.163c0,1.441-.91,2.242-2.36,3.3-2.07,1.542-4.64,2.9-4.64,6.026v0.8h9.35V635.2Z"/>
    <path id="_04" data-name="04" class="cls-2" d="M1310.13,687.458v-3.724c0-3.2-2.13-5.465-5.13-5.465s-5.12,2.262-5.12,5.465v3.724c0,3.2,2.13,5.466,5.12,5.466S1310.13,690.662,1310.13,687.458Zm-8.06,0v-3.724c0-2.062,1.21-3.3,2.93-3.3s2.94,1.241,2.94,3.3v3.724c0,2.083-1.21,3.3-2.94,3.3S1302.07,689.541,1302.07,687.458Zm17.29,5.266h2.19V689.16h1.89v-2.042h-1.89v-8.609h-1.95l-7.55,8.869v1.782h7.31v3.564Zm0-5.606h-4.56l4.56-5.326v5.326Z"/>
    <path class="cls-2" d="M1293,658v-1h37v1h-37Z"/>
  </g>
  <g id="X">
    <path id="Rectangle_116_copy_2" data-name="Rectangle 116 copy 2" class="cls-2" d="M1330.01,58.336l-0.94.929L1315.38,45.7,1300.94,60l-0.95-.938,14.44-14.3-13.96-13.832,0.94-.929,13.96,13.832,13.5-13.383,0.95,0.938-13.51,13.383Z"/>
  </g>
  <g id="R_copy_2" data-name="R copy 2">
    <path id="Rectangle_116_copy" data-name="Rectangle 116 copy" class="cls-2" d="M1328.51,362.768l-0.07-.068-27.94,27.9-0.95-.941,27.95-27.9-27.47-27.421,0.93-.932,28.49,28.431Z"/>
  </g>
  <g id="L_copy_2" data-name="L copy 2">
    <path id="Rectangle_116_copy-2" data-name="Rectangle 116 copy" class="cls-2" d="M57.12,334.161L29.782,361.739l26.874,27.11-0.913.921L27.88,361.663l0.913-.921,0.066,0.066L56.2,333.23Z"/>
  </g>
</svg>
