<svg id="copy_copy_2" data-name="copy copy 2" xmlns="http://www.w3.org/2000/svg" width="1360" height="723"><defs><style>.cls-1{fill:#fff}.cls-1,.cls-2{fill-rule:evenodd}</style></defs><path id="MODERN_TRUCKER_JACKET_IN_LUXE_SUEDE_L_Italian_Moleskin_R_" data-name="MODERN TRUCKER JACKET IN LUXE SUEDE (L) &amp; Italian Moleskin (R)" class="cls-1" d="M110.459 592.73l3.313-4.593v7.009h2.56v-11.361h-2.32l-3.553 4.9-3.552-4.9h-2.32v11.361h2.544v-7.009zm14.784 2.608a5.873 5.873 0 1 0-5.873-5.872 5.886 5.886 0 0 0 5.873 5.872zm0-2.464a3.41 3.41 0 1 1 3.3-3.408 3.371 3.371 0 0 1-3.3 3.408zm8.911 2.272h3.873a5.682 5.682 0 1 0 0-11.361h-3.873v11.361zm2.545-2.336v-6.689h1.328a3.347 3.347 0 0 1 0 6.689H136.7zm10.175 2.336h7.2v-2.432h-4.656v-2.032h3.7v-2.433h-3.7v-2.032h4.656v-2.432h-7.2v11.361zm10.416 0h2.545v-4.688h.416l3.776 4.688h3.057l-4.017-5.008a2.933 2.933 0 0 0 2.224-2.929 3.354 3.354 0 0 0-3.52-3.424h-4.481v11.361zm2.545-6.849v-2.176h1.632a1.132 1.132 0 0 1 1.3 1.088 1.15 1.15 0 0 1-1.3 1.088h-1.632zm19.6 6.849v-11.361h-2.56v7.009l-5.521-7.009h-2.192v11.361h2.544v-7.025l5.537 7.025h2.192zm10.063 0h2.56v-8.929h2.929v-2.432H186.6v2.432h2.9v8.929zm8.32 0h2.544v-4.688h.416l3.777 4.688h3.056l-4.017-5.008a2.933 2.933 0 0 0 2.225-2.929 3.354 3.354 0 0 0-3.521-3.424h-4.48v11.361zm2.544-6.849v-2.176h1.632a1.132 1.132 0 0 1 1.3 1.088 1.15 1.15 0 0 1-1.3 1.088h-1.632zm13.664 7.041a4.456 4.456 0 0 0 4.673-4.688v-6.865h-2.544v6.9a2.129 2.129 0 1 1-4.257 0v-6.9h-2.544v6.865a4.447 4.447 0 0 0 4.672 4.688zm13.456 0a5.872 5.872 0 0 0 5.313-3.1l-2.24-1.216a3.409 3.409 0 1 1 0-3.105l2.24-1.216a5.923 5.923 0 1 0-5.313 8.637zm8.079-.192h2.529v-5.088l4.624 5.088h3.265l-5.393-5.9 4.481-5.456h-3.121l-3.856 4.752v-4.752h-2.529v11.361zm12.48 0h7.2v-2.432h-4.656v-2.032h3.7v-2.433h-3.7v-2.032h4.656v-2.432h-7.2v11.361zm10.416 0H261v-4.688h.416l3.776 4.688h3.057l-4.017-5.008a2.933 2.933 0 0 0 2.224-2.929 3.354 3.354 0 0 0-3.52-3.424h-4.481v11.361zM261 588.3v-2.176h1.632a1.132 1.132 0 0 1 1.3 1.088 1.15 1.15 0 0 1-1.3 1.088H261zm16.192 7.041c1.952 0 3.712-.976 3.712-3.3v-8.257h-2.544v8.1a1.169 1.169 0 0 1-2.336-.064h-2.513a3.368 3.368 0 0 0 3.683 3.518zm5.839-.192h2.656l1.009-2.4h4.7l1.008 2.4h2.657l-4.861-11.364h-2.3zm4.593-4.608l1.424-3.425 1.424 3.425h-2.848zm14.624 4.8a5.874 5.874 0 0 0 5.313-3.1l-2.241-1.216a3.409 3.409 0 1 1 0-3.105l2.241-1.216a5.923 5.923 0 1 0-5.311 8.634zm8.079-.192h2.529v-5.088l4.624 5.088h3.265l-5.393-5.9 4.481-5.456h-3.121l-3.856 4.752v-4.752h-2.529v11.361zm12.48 0h7.2v-2.432h-4.656v-2.032h3.7v-2.433h-3.7v-2.032h4.656v-2.432h-7.2v11.361zm12.464 0h2.561v-8.929h2.928v-2.432h-8.385v2.432h2.9v8.929zm-230.382 24h1.488v-11.364h-1.488v11.361zm15.457 0v-11.364h-1.472v8.849l-6.913-8.849h-1.3v11.361h1.488V610.3l6.913 8.849h1.28zm8.8 0h7.254v-2.432h-4.71v-8.929h-2.544v11.361zm14.273.192a4.455 4.455 0 0 0 4.672-4.688v-6.865h-2.544v6.9a2.129 2.129 0 1 1-4.257 0v-6.9h-2.544v6.865a4.447 4.447 0 0 0 4.673 4.685zm15.472-.192h2.96l-4.24-5.744 3.984-5.617h-2.944l-2.576 3.648-2.577-3.648h-2.944l4 5.617-4.256 5.744h2.976l2.817-3.76zm5.3 0h7.2v-2.432h-4.661v-2.032h3.7v-2.433h-3.7v-2.032h4.657v-2.432h-7.2v11.361zm18.608.192c2.4 0 4.049-1.44 4.065-3.5.016-1.712-1.056-2.8-2.705-3.393l-.8-.288c-1.2-.432-1.76-.7-1.76-1.312a1.166 1.166 0 0 1 1.376-.864 2.527 2.527 0 0 1 1.968.944l1.665-1.76a4.744 4.744 0 0 0-3.665-1.568c-2.272 0-3.92 1.3-3.92 3.5 0 1.552 1.024 2.657 2.864 3.281l.8.272c1.136.384 1.584.784 1.584 1.36a1.152 1.152 0 0 1-1.376.944 2.972 2.972 0 0 1-2.352-1.3l-1.953 1.648a4.984 4.984 0 0 0 4.204 2.033zm11.648 0a4.456 4.456 0 0 0 4.673-4.688v-6.865h-2.55v6.9a2.129 2.129 0 1 1-4.256 0v-6.9h-2.545v6.865a4.448 4.448 0 0 0 4.673 4.685zm8.223-.192h7.2v-2.432h-4.66v-2.032h3.7v-2.433h-3.7v-2.032h4.656v-2.432h-7.2v11.361zm10.416 0h3.873a5.682 5.682 0 1 0 0-11.361h-3.873v11.361zm2.545-2.336v-6.689h1.328a3.347 3.347 0 0 1 0 6.689h-1.328zm10.175 2.336H233v-2.432h-4.657v-2.032h3.7v-2.433h-3.7v-2.032H233v-2.432h-7.2v11.361zm17.984 2.017a16.207 16.207 0 0 1 0-15.363h-1.12a15.43 15.43 0 0 0 0 15.363h1.12zm3.264-2.017h6.977v-1.408h-5.489v-9.953h-1.488v11.361zm9.008 2.017h1.12a15.43 15.43 0 0 0 0-15.363h-1.12a16.207 16.207 0 0 1-.005 15.36zm-147.827 22.156a4.728 4.728 0 0 0 3.329-1.36l1.232 1.184h3.168l-2.9-2.784 2.32-2.7h-2.9l-.992 1.184-1.729-1.649a2.987 2.987 0 0 0 1.873-2.72 3.074 3.074 0 0 0-3.265-2.88 3.119 3.119 0 0 0-3.3 2.928 3.328 3.328 0 0 0 1.184 2.336 3.507 3.507 0 0 0-1.888 3.025c.012 1.868 1.26 3.436 3.868 3.436zm-.848-8.8a.945.945 0 0 1 1.888.048 1.266 1.266 0 0 1-.944 1.232h-.016a1.855 1.855 0 0 1-.928-1.281zm-.656 5.441a2.026 2.026 0 0 1 1.1-1.584l2.16 2.08a2.785 2.785 0 0 1-1.792.752 1.318 1.318 0 0 1-1.468-1.249zm16 3.184h2.545v-11.362h-2.546v11.361zm8.273 0h2.56v-8.929h2.928v-2.432h-8.385v2.432H131v8.929zm5.951 0h2.656l1.009-2.4h4.7l1.008 2.4h2.657l-4.865-11.361h-2.3zm4.593-4.608l1.424-3.425 1.424 3.425h-2.848zm9.9 4.608h7.252v-2.432H154v-8.929h-2.55v11.361zm10.112 0h2.544v-11.362h-2.544v11.361zm5.008 0h2.656l1.008-2.4h4.7l1.008 2.4h2.66l-4.864-11.361h-2.305zm4.592-4.608l1.425-3.425 1.424 3.425h-2.849zm20.177 4.608v-11.362h-2.56v7.009l-5.521-7.009h-2.192v11.361h2.544v-7.025l5.537 7.025h2.192zm14.351-2.416l3.312-4.594v7.009h2.56v-11.361h-2.32l-3.553 4.9-3.552-4.9h-2.32v11.361h2.544v-7.009zm14.784 2.608a5.873 5.873 0 1 0-5.873-5.872 5.886 5.886 0 0 0 5.875 5.871zm0-2.464a3.41 3.41 0 1 1 3.3-3.408 3.371 3.371 0 0 1-3.298 3.407zm8.911 2.272h7.249v-2.432h-4.7v-8.929h-2.544v11.361zm10.112 0h7.2v-2.432h-4.657v-2.032h3.7v-2.433h-3.7v-2.032h4.662v-2.432h-7.2v11.361zm13.808.192c2.4 0 4.049-1.44 4.065-3.5.016-1.712-1.056-2.8-2.7-3.393l-.8-.288c-1.2-.432-1.76-.7-1.76-1.312a1.166 1.166 0 0 1 1.376-.864 2.529 2.529 0 0 1 1.969.944l1.664-1.76a4.741 4.741 0 0 0-3.665-1.568c-2.272 0-3.92 1.3-3.92 3.5 0 1.552 1.024 2.657 2.864 3.281l.8.272c1.136.384 1.585.784 1.585 1.36a1.153 1.153 0 0 1-1.377.944 2.972 2.972 0 0 1-2.352-1.3l-1.952 1.648a4.981 4.981 0 0 0 4.205 2.035zm7.1-.192h2.528v-5.088l4.625 5.088h3.264l-5.393-5.9 4.481-5.456h-3.12l-3.857 4.752v-4.752h-2.528v11.361zm12.48 0h2.544v-11.362h-2.544v11.361zm16.5 0v-11.362h-2.56v7.009l-5.521-7.009h-2.193v11.361h2.545v-7.025l5.537 7.025h2.192zm11.246 2.017a16.207 16.207 0 0 1 0-15.363h-1.12a15.43 15.43 0 0 0 0 15.363h1.12zm3.264-2.017h1.488v-5.168h1.1l4.369 5.168h1.872l-4.368-5.184a2.965 2.965 0 0 0 2.8-3.041 3.064 3.064 0 0 0-3.392-3.136H303.9v11.361zm1.488-6.5v-3.488h2.209c1.3 0 2.08.608 2.08 1.76 0 1.136-.784 1.728-2.08 1.728h-2.209zm8.912 8.514h1.12a15.43 15.43 0 0 0 0-15.363H314.3a16.207 16.207 0 0 1 0 15.365z"/><path id="SHOP_now" data-name="SHOP now" class="cls-1" d="M280.036 614.492a2.943 2.943 0 0 0 2.651 1.409 2.257 2.257 0 0 0 2.483-2.256 2.331 2.331 0 0 0-1.75-2.289l-.754-.3c-.765-.3-1.132-.55-1.132-1.122a1.034 1.034 0 0 1 1.174-.9 1.772 1.772 0 0 1 1.414.726l.849-.869a2.81 2.81 0 0 0-2.253-1.068 2.2 2.2 0 0 0-2.42 2.2 2.26 2.26 0 0 0 1.76 2.2l.817.308a1.3 1.3 0 0 1 1.059 1.188 1.06 1.06 0 0 1-1.205.968 2.006 2.006 0 0 1-1.729-1zm8.348 1.277h1.226v-3.356h3.677v3.356h1.226v-7.813h-1.226v3.235h-3.677v-3.235h-1.226v7.813zm17.063-3.906a3.85 3.85 0 1 0-3.847 4.037 3.927 3.927 0 0 0 3.847-4.037zm-6.454 0a2.61 2.61 0 1 1 2.609 2.794 2.678 2.678 0 0 1-2.609-2.794zm12.045-3.907h-2.367v7.813h1.229v-2.707h1.142a2.553 2.553 0 1 0-.004-5.106zm-.01 3.9H309.9v-2.685h1.132a1.343 1.343 0 1 1-.004 2.681zm16.193 3.917v-7.813h-1.236v5.6l-4.181-5.6h-1.068v7.813h1.226v-5.623l4.19 5.623h1.069zm10.924-3.906a3.85 3.85 0 1 0-3.845 4.033 3.927 3.927 0 0 0 3.845-4.037zm-6.454 0a2.61 2.61 0 1 1 2.609 2.794 2.678 2.678 0 0 1-2.609-2.798zm15.45 3.906h1.131l1.928-7.813h-1.3l-1.362 5.678-2.127-5.81-2.126 5.81-1.362-5.678h-1.289l1.917 7.813h1.132l1.728-4.776zm-67.44 2.568v-.99h72.36v.99H279.7z"/><path id="SHOP_now-2" data-name="SHOP now" class="cls-1" d="M339.036 638.492a2.943 2.943 0 0 0 2.651 1.409 2.257 2.257 0 0 0 2.483-2.256 2.331 2.331 0 0 0-1.75-2.289l-.754-.3c-.765-.3-1.132-.55-1.132-1.122a1.034 1.034 0 0 1 1.174-.9 1.772 1.772 0 0 1 1.414.726l.849-.869a2.81 2.81 0 0 0-2.253-1.068 2.2 2.2 0 0 0-2.42 2.2 2.26 2.26 0 0 0 1.76 2.2l.817.308a1.3 1.3 0 0 1 1.059 1.188 1.06 1.06 0 0 1-1.205.968 2.006 2.006 0 0 1-1.729-1zm8.348 1.277h1.226v-3.356h3.677v3.356h1.226v-7.813h-1.226v3.235h-3.677v-3.235h-1.226v7.813zm17.063-3.906a3.85 3.85 0 1 0-3.847 4.037 3.927 3.927 0 0 0 3.847-4.037zm-6.454 0a2.61 2.61 0 1 1 2.609 2.794 2.678 2.678 0 0 1-2.609-2.794zm12.045-3.907h-2.367v7.813h1.229v-2.707h1.142a2.553 2.553 0 1 0-.004-5.106zm-.01 3.9H368.9v-2.685h1.132a1.343 1.343 0 1 1-.004 2.681zm16.193 3.917v-7.813h-1.236v5.6l-4.181-5.6h-1.068v7.813h1.226v-5.623l4.19 5.623h1.069zm10.924-3.906a3.85 3.85 0 1 0-3.845 4.033 3.927 3.927 0 0 0 3.845-4.037zm-6.454 0a2.61 2.61 0 1 1 2.609 2.794 2.678 2.678 0 0 1-2.609-2.798zm15.45 3.906h1.131l1.928-7.813h-1.3l-1.362 5.678-2.127-5.81-2.126 5.81-1.362-5.678h-1.289l1.917 7.813h1.132l1.728-4.776zm-67.44 2.568v-.99h72.36v.99H338.7z"/><g id="Number"><path id="_03" data-name="3" class="cls-2" d="M1310.13 632.1v-3.724c0-3.2-2.13-5.466-5.13-5.466s-5.12 2.263-5.12 5.466v3.724c0 3.2 2.13 5.465 5.12 5.465s5.13-2.265 5.13-5.465zm-8.06 0v-3.724c0-2.062 1.21-3.3 2.93-3.3s2.94 1.242 2.94 3.3v3.724c0 2.082-1.21 3.3-2.94 3.3s-2.93-1.218-2.93-3.3zm20.31 1.261a3.547 3.547 0 0 0-2.13-3.363 3.632 3.632 0 0 0 1.73-3.084c.02-2.322-1.79-4-4.42-4a4.548 4.548 0 0 0-4.79 4.585h2.21a2.381 2.381 0 0 1 2.58-2.423 2.028 2.028 0 0 1 2.21 1.982 2.094 2.094 0 0 1-2.32 2.023h-1.12v1.882h1.12c1.63 0 2.72.76 2.72 2.262a2.264 2.264 0 0 1-2.53 2.182 2.721 2.721 0 0 1-2.94-2.5h-2.19a4.81 4.81 0 0 0 5.13 4.664c2.81-.006 4.74-1.707 4.74-4.21z"/><path id="_04" data-name="4" class="cls-2" d="M1310.13 687.458v-3.724c0-3.2-2.13-5.465-5.13-5.465s-5.12 2.262-5.12 5.465v3.724c0 3.2 2.13 5.466 5.12 5.466s5.13-2.262 5.13-5.466zm-8.06 0v-3.724c0-2.062 1.21-3.3 2.93-3.3s2.94 1.241 2.94 3.3v3.724c0 2.083-1.21 3.3-2.94 3.3s-2.93-1.217-2.93-3.3zm17.29 5.266h2.19v-3.564h1.89v-2.042h-1.89v-8.609h-1.95l-7.55 8.869v1.782h7.31v3.564zm0-5.606h-4.56l4.56-5.326v5.326z"/><path class="cls-2" d="M1293 658v-1h37v1h-37z"/></g><g id="X_copy_2" data-name="X copy 2"><path id="Rectangle_116_copy_2" data-name="Rectangle 116 copy 2" class="cls-2" d="M1330.01 58.336l-.94.929-13.69-13.565-14.44 14.3-.95-.938 14.44-14.3-13.96-13.832.94-.929 13.96 13.832 13.5-13.383.95.938-13.51 13.383z"/></g><g id="R_copy_3" data-name="R copy 3"><path id="Rectangle_116_copy" data-name="Rectangle 116 copy" class="cls-2" d="M1328.51 362.768l-.07-.068-27.94 27.9-.95-.941 27.95-27.9-27.47-27.421.93-.932 28.49 28.431z"/></g><g id="L_copy_3" data-name="L copy 3"><path id="Rectangle_116_copy-2" data-name="Rectangle 116 copy" class="cls-2" d="M57.12 334.161l-27.338 27.578 26.874 27.11-.913.921-27.863-28.107.913-.921.066.066L56.2 333.23z"/></g></svg>