<svg id="copy_copy_2" data-name="copy copy 2" xmlns="http://www.w3.org/2000/svg" width="1360" height="723"><defs><style>.cls-1,.cls-2{fill-rule:evenodd}.cls-2{fill:#fff}</style></defs><path id="Available_in_leather_and_suede." data-name="Available in leather and suede." class="cls-1" d="M95.459 674.146h1.153l1.092-2.485h3.974l1.092 2.485h1.165l-3.782-8.523h-.925zm2.677-3.493l1.549-3.518 1.549 3.518h-3.1zm9.276 3.493h.864l2.773-6H109.9l-2.053 4.538-2.053-4.538h-1.153zm5.051-3a3 3 0 0 0 2.941 3.121 2.635 2.635 0 0 0 2.113-1.044v.924h1.032v-6h-1.032v.924a2.635 2.635 0 0 0-2.113-1.044 3 3 0 0 0-2.941 3.118zm5.138 0a2.051 2.051 0 1 1-2.041-2.173 2.05 2.05 0 0 1 2.04 2.172zm5.1-5.342a.725.725 0 0 0-.72-.732.745.745 0 0 0-.744.732.738.738 0 0 0 .744.732.717.717 0 0 0 .719-.736zm-1.248 8.343h1.032v-6h-1.032v6zm3.948 0h1.032v-9H125.4v9zm3.479-3a3 3 0 0 0 2.941 3.121 2.632 2.632 0 0 0 2.113-1.044v.924h1.033v-6h-1.033v.924a2.632 2.632 0 0 0-2.113-1.044 3 3 0 0 0-2.943 3.117zm5.138 0a2.05 2.05 0 1 1-2.04-2.173 2.049 2.049 0 0 1 2.038 2.171zm4.883 2.077a2.632 2.632 0 0 0 2.113 1.044 3.127 3.127 0 0 0 0-6.242 2.632 2.632 0 0 0-2.113 1.044v-3.925h-1.033v9h1.032v-.924zm4-2.077a2.045 2.045 0 1 1-2.04-2.173 2.049 2.049 0 0 1 2.039 2.171zm3.49 3h1.033v-9h-1.033v9zm3.48-3a3.164 3.164 0 0 0 5.81 1.693l-.816-.564a2.126 2.126 0 0 1-3.95-.925h4.922a2.928 2.928 0 0 0 .012-.312 2.8 2.8 0 0 0-2.857-3.013 3.041 3.041 0 0 0-3.126 3.119zm3.085-2.209a1.8 1.8 0 0 1 1.837 1.573h-3.806a1.962 1.962 0 0 1 1.964-1.575zM163.4 665.8a.725.725 0 0 0-.72-.732.745.745 0 0 0-.744.732.738.738 0 0 0 .744.732.717.717 0 0 0 .72-.732zm-1.248 8.343h1.032v-6h-1.032v6zm3.948 0h1.032v-2.977c0-1.4.769-2.2 1.741-2.2a1.441 1.441 0 0 1 1.417 1.633v3.541h1.02v-3.7a2.212 2.212 0 0 0-2.269-2.425 2.123 2.123 0 0 0-1.909 1.044v-.924H166.1v6zm11.916 0h1.032v-9h-1.032v9zm3.479-3a3.165 3.165 0 0 0 5.811 1.693l-.817-.564a2.125 2.125 0 0 1-3.949-.925h4.922a2.928 2.928 0 0 0 .012-.312 2.8 2.8 0 0 0-2.857-3.013 3.042 3.042 0 0 0-3.117 3.123zm3.086-2.209a1.8 1.8 0 0 1 1.836 1.573h-3.805a1.962 1.962 0 0 1 1.971-1.571zm4.846 2.209a3 3 0 0 0 2.941 3.121 2.632 2.632 0 0 0 2.113-1.044v.924h1.033v-6h-1.033v.924a2.632 2.632 0 0 0-2.113-1.044 3 3 0 0 0-2.939 3.121zm5.138 0a2.05 2.05 0 1 1-2.041-2.173 2.049 2.049 0 0 1 2.043 2.175zm7.1 2.917v-.924a2.287 2.287 0 0 1-.733.12.864.864 0 0 1-1-1.02v-3.146h1.729v-.948h-1.729v-1.669h-1.033v1.669h-1.272v.948h1.272v3.278a1.69 1.69 0 0 0 1.837 1.836 2.883 2.883 0 0 0 .935-.142zm2.278.084h1.033v-2.977c0-1.4.768-2.2 1.74-2.2a1.441 1.441 0 0 1 1.417 1.633v3.541h1.02v-3.7a2.212 2.212 0 0 0-2.269-2.425 2.122 2.122 0 0 0-1.908 1.044v-3.925h-1.033v9zm7.56-3a3.164 3.164 0 0 0 5.81 1.693l-.816-.564a2.126 2.126 0 0 1-3.95-.925h4.922a2.928 2.928 0 0 0 .012-.312 2.8 2.8 0 0 0-2.857-3.013 3.041 3.041 0 0 0-3.115 3.122zm3.085-2.209a1.8 1.8 0 0 1 1.837 1.573h-3.806a1.962 1.962 0 0 1 1.975-1.572zm5.315 5.21h1.032v-2.977c0-1.4.829-2.065 1.585-2.065a1.508 1.508 0 0 1 .564.1v-1.068a2.138 2.138 0 0 0-.468-.048 1.787 1.787 0 0 0-1.681 1.224v-1.164h-1.032v6zm8.472-3a3 3 0 0 0 2.941 3.121 2.633 2.633 0 0 0 2.113-1.044v.924h1.032v-6h-1.032v.924a2.633 2.633 0 0 0-2.113-1.044 3 3 0 0 0-2.935 3.119zm5.138 0a2.051 2.051 0 1 1-2.041-2.173 2.05 2.05 0 0 1 2.047 2.173zm3.85 3h1.037v-2.977c0-1.4.769-2.2 1.741-2.2a1.441 1.441 0 0 1 1.416 1.633v3.541h1.021v-3.7a2.212 2.212 0 0 0-2.269-2.425 2.123 2.123 0 0 0-1.909 1.044v-.924h-1.032v6zm7.559-3a3 3 0 0 0 2.942 3.121 2.635 2.635 0 0 0 2.113-1.044v.924h1.032v-9h-1.032v3.925a2.635 2.635 0 0 0-2.113-1.044 3 3 0 0 0-2.936 3.118zm5.139 0a2.051 2.051 0 1 1-2.041-2.173 2.05 2.05 0 0 1 2.047 2.173zm11.627 1.333a1.9 1.9 0 0 0-1.585-1.813l-.648-.216c-.708-.228-.924-.456-.924-.84a.849.849 0 0 1 1.008-.7 1.624 1.624 0 0 1 1.273.624l.672-.648a2.329 2.329 0 0 0-1.921-.864 1.778 1.778 0 0 0-2.029 1.633 1.811 1.811 0 0 0 1.489 1.74l.588.192c.78.252 1.069.541 1.069.961a.914.914 0 0 1-1.057.816 1.613 1.613 0 0 1-1.537-.948l-.84.456a2.385 2.385 0 0 0 2.353 1.392 1.812 1.812 0 0 0 2.095-1.785zm2.35-.649a2.191 2.191 0 0 0 2.209 2.437 2.066 2.066 0 0 0 1.849-1.044v.924h1.032v-6H268.1v2.977c0 1.381-.732 2.2-1.669 2.2a1.417 1.417 0 0 1-1.356-1.645v-3.529h-1.033v3.685zm7.524-.684a3.164 3.164 0 0 0 5.81 1.693l-.816-.564a2.126 2.126 0 0 1-3.95-.925h4.922a2.928 2.928 0 0 0 .012-.312 2.8 2.8 0 0 0-2.857-3.013 3.042 3.042 0 0 0-3.115 3.121zm3.085-2.209a1.8 1.8 0 0 1 1.837 1.573h-3.806a1.963 1.963 0 0 1 1.975-1.573zm4.847 2.209a3 3 0 0 0 2.941 3.121 2.633 2.633 0 0 0 2.113-1.044v.924h1.032v-9h-1.032v3.925a2.633 2.633 0 0 0-2.113-1.044 3 3 0 0 0-2.935 3.118zm5.138 0a2.051 2.051 0 1 1-2.041-2.173 2.049 2.049 0 0 1 2.047 2.173zm3.382 0a3.164 3.164 0 0 0 5.81 1.693l-.816-.564a2.126 2.126 0 0 1-3.95-.925h4.922a2.928 2.928 0 0 0 .012-.312 2.8 2.8 0 0 0-2.857-3.013 3.041 3.041 0 0 0-3.115 3.121zm3.085-2.209a1.8 1.8 0 0 1 1.837 1.573h-3.806a1.962 1.962 0 0 1 1.975-1.573zm6.743 4.406a.888.888 0 1 0-.888.9.9.9 0 0 0 .894-.9z"/><path id="chukka_boot" data-name="chukka boot" class="cls-1" d="M100.819 656.338a5.872 5.872 0 0 0 5.313-3.1l-2.24-1.216a3.409 3.409 0 1 1 0-3.105l2.24-1.216a5.923 5.923 0 1 0-5.313 8.637zm8.08-.192h2.544v-4.5h4.577v4.5h2.544v-11.361h-2.544v4.448h-4.577v-4.448H108.9v11.361zm17.888.192a4.456 4.456 0 0 0 4.673-4.688v-6.865h-2.544v6.9a2.129 2.129 0 1 1-4.257 0v-6.9h-2.544v6.865a4.447 4.447 0 0 0 4.672 4.688zm8.223-.192h2.529v-5.088l4.624 5.088h3.265l-5.393-5.9 4.481-5.456H141.4l-3.856 4.752v-4.752h-2.534v11.361zm12.48 0h2.529v-5.088l4.624 5.088h3.265l-5.393-5.9 4.485-5.461h-3.121l-3.856 4.752v-4.752h-2.533v11.361zm11.264 0h2.656l1.009-2.4h4.7l1.008 2.4h2.657l-4.865-11.361h-2.3zm4.593-4.608l1.424-3.425 1.424 3.425h-2.848zm14.223 4.608h4.993a3.359 3.359 0 0 0 3.456-3.344 2.971 2.971 0 0 0-1.616-2.689 2.674 2.674 0 0 0 .816-1.952 3.377 3.377 0 0 0-3.376-3.376h-4.273v11.361zm2.544-6.769v-2.272h1.441a1.155 1.155 0 0 1 1.184 1.152 1.139 1.139 0 0 1-1.184 1.12h-1.441zm0 4.433v-2.272h2.225a1.156 1.156 0 0 1 1.2 1.136 1.142 1.142 0 0 1-1.184 1.136h-2.241zm14.129 2.528a5.873 5.873 0 1 0-5.873-5.872 5.887 5.887 0 0 0 5.873 5.872zm0-2.464a3.41 3.41 0 1 1 3.3-3.408 3.371 3.371 0 0 1-3.3 3.408zm14.143 2.464a5.873 5.873 0 1 0-5.872-5.872 5.886 5.886 0 0 0 5.872 5.872zm0-2.464a3.41 3.41 0 1 1 3.3-3.408 3.371 3.371 0 0 1-3.3 3.408zm10.528 2.272h2.56v-8.929h2.926v-2.432h-8.385v2.432h2.9v8.929z"/><path id="Rapid_Movement_Cargo_Chino" data-name="Rapid Movement Cargo Chino" class="cls-2" d="M531.587 653.146h2.544v-4.688h.416l3.777 4.688h3.056l-4.017-5.008a2.933 2.933 0 0 0 2.225-2.929 3.354 3.354 0 0 0-3.521-3.424h-4.48v11.361zm2.544-6.849v-2.176h1.632a1.132 1.132 0 0 1 1.3 1.088 1.15 1.15 0 0 1-1.3 1.088h-1.632zm8.111 6.849h2.658l1.008-2.4h4.7l1.009 2.4h2.656l-4.865-11.361h-2.3zm4.593-4.608l1.424-3.425 1.424 3.425h-2.848zm17.761-2.865a3.87 3.87 0 0 0-4-3.888h-3.857v11.361h2.545v-3.6h1.316a3.857 3.857 0 0 0 4-3.873zm-2.465 0a1.5 1.5 0 0 1-1.568 1.488h-1.28v-2.976h1.28a1.486 1.486 0 0 1 1.568 1.488zm5.375 7.473h2.545v-11.361h-2.545v11.361zm6.224 0h3.87a5.682 5.682 0 1 0 0-11.361h-3.87v11.361zm2.544-2.336v-6.689h1.326a3.347 3.347 0 0 1 0 6.689h-1.329zm20.849-.08l3.312-4.593v7.009H603v-11.361h-2.32l-3.552 4.9-3.553-4.9h-2.32v11.361h2.544v-7.009zm14.783 2.608a5.873 5.873 0 1 0-5.873-5.872 5.886 5.886 0 0 0 5.873 5.872zm0-2.464a3.41 3.41 0 1 1 3.3-3.408 3.371 3.371 0 0 1-3.3 3.408zm11.888 2.272h2.288l4.657-11.361h-2.8l-3.009 7.569-3.024-7.569h-2.769zm9.439 0h7.2v-2.432h-4.656v-2.032h3.7v-2.433h-3.7v-2.032h4.656v-2.432h-7.2v11.361zm16.289-2.416l3.313-4.593v7.009h2.56v-11.361h-2.32l-3.553 4.9-3.552-4.9h-2.321v11.361h2.545v-7.009zm9.551 2.416h7.2v-2.432h-4.657v-2.032h3.7v-2.433h-3.7v-2.032h4.657v-2.432h-7.2v11.361zm20.69 0v-11.361H677.2v7.009l-5.521-7.009h-2.192v11.361h2.544v-7.025l5.537 7.025h2.193zm5.726 0h2.561v-8.929h2.928v-2.432h-8.385v2.432h2.9v8.929zm-148.67 24.192a5.872 5.872 0 0 0 5.313-3.1l-2.24-1.216a3.409 3.409 0 1 1 0-3.105l2.24-1.216a5.923 5.923 0 1 0-5.313 8.637zm6.591-.192h2.657l1.008-2.4h4.7l1.008 2.4h2.656l-4.864-11.361h-2.305zm4.59-4.608l1.424-3.425 1.425 3.425H548zm9.9 4.608h2.544v-4.688h.416l3.777 4.688h3.063l-4.017-5.008a2.933 2.933 0 0 0 2.225-2.929 3.354 3.354 0 0 0-3.521-3.424h-4.48v11.361zm2.544-6.849v-2.176h1.632a1.132 1.132 0 0 1 1.3 1.088 1.15 1.15 0 0 1-1.3 1.088h-1.632zm14.464 7.041a6.279 6.279 0 0 0 4.657-1.68v-5.393h-4.705v2.385h2.225v1.68a3.7 3.7 0 0 1-2.209.544 3.411 3.411 0 1 1-.16-6.817 3.773 3.773 0 0 1 2.865 1.216l1.792-1.744a6.045 6.045 0 0 0-4.657-1.936 5.8 5.8 0 0 0-5.984 5.873 5.9 5.9 0 0 0 6.183 5.872zm13.168 0a5.873 5.873 0 1 0-5.873-5.872 5.886 5.886 0 0 0 5.88 5.872zm0-2.464a3.41 3.41 0 1 1 3.3-3.408 3.371 3.371 0 0 1-3.293 3.408zm18.944 2.464a5.872 5.872 0 0 0 5.312-3.1l-2.24-1.216a3.409 3.409 0 1 1 0-3.105l2.24-1.216a5.923 5.923 0 1 0-5.305 8.637zm8.079-.192h2.544v-4.5h4.577v4.5h2.544v-11.361h-2.544v4.448h-4.57v-4.448h-2.544v11.361zm13.344 0h2.544v-11.361h-2.537v11.361zm16.5 0v-11.361h-2.56v7.009l-5.521-7.009h-2.192v11.361h2.544v-7.025l5.537 7.025h2.192zm8.911.192a5.873 5.873 0 1 0-5.872-5.872 5.886 5.886 0 0 0 5.876 5.872zm0-2.464a3.41 3.41 0 1 1 3.3-3.408 3.371 3.371 0 0 1-3.296 3.408z"/><path id="SHOP_now" data-name="SHOP now" class="cls-1" d="M96.036 695.492a2.942 2.942 0 0 0 2.651 1.409 2.257 2.257 0 0 0 2.483-2.256 2.331 2.331 0 0 0-1.75-2.289l-.754-.3c-.765-.3-1.131-.55-1.131-1.122a1.033 1.033 0 0 1 1.173-.9 1.772 1.772 0 0 1 1.414.726l.849-.869a2.809 2.809 0 0 0-2.253-1.068 2.2 2.2 0 0 0-2.42 2.2 2.26 2.26 0 0 0 1.76 2.2l.817.308a1.3 1.3 0 0 1 1.058 1.188 1.059 1.059 0 0 1-1.2.968 2 2 0 0 1-1.729-1zm8.348 1.277h1.226v-3.356h3.677v3.356h1.226v-7.813h-1.226v3.235h-3.677v-3.235h-1.226v7.813zm17.063-3.906a3.85 3.85 0 1 0-3.847 4.037 3.927 3.927 0 0 0 3.847-4.037zm-6.454 0a2.61 2.61 0 1 1 2.609 2.794 2.678 2.678 0 0 1-2.609-2.794zm12.045-3.907h-2.367v7.813h1.229v-2.707h1.142a2.553 2.553 0 1 0-.004-5.106zm-.01 3.9H125.9v-2.685h1.132a1.343 1.343 0 1 1-.004 2.681zm16.193 3.917v-7.813h-1.236v5.6l-4.181-5.6h-1.068v7.813h1.226v-5.623l4.19 5.623h1.069zm10.924-3.906a3.85 3.85 0 1 0-3.845 4.033 3.927 3.927 0 0 0 3.845-4.037zm-6.454 0a2.61 2.61 0 1 1 2.609 2.794 2.678 2.678 0 0 1-2.609-2.798zm15.45 3.906h1.131l1.928-7.813h-1.3l-1.362 5.678-2.127-5.81-2.126 5.81-1.362-5.678h-1.289l1.917 7.813h1.132l1.728-4.776zM95.7 699.337v-.99h72.36v.99H95.7z"/><path id="SHOP_now-2" data-name="SHOP now" class="cls-2" d="M532.036 698.492a2.943 2.943 0 0 0 2.651 1.409 2.257 2.257 0 0 0 2.483-2.256 2.331 2.331 0 0 0-1.75-2.289l-.754-.3c-.765-.3-1.132-.55-1.132-1.122a1.034 1.034 0 0 1 1.174-.9 1.772 1.772 0 0 1 1.414.726l.849-.869a2.81 2.81 0 0 0-2.253-1.068 2.2 2.2 0 0 0-2.42 2.2 2.26 2.26 0 0 0 1.76 2.2l.817.308a1.3 1.3 0 0 1 1.059 1.188 1.06 1.06 0 0 1-1.2.968 2.006 2.006 0 0 1-1.729-1zm8.348 1.277h1.226v-3.356h3.677v3.356h1.226v-7.813h-1.226v3.235h-3.677v-3.235h-1.226v7.813zm17.063-3.906a3.85 3.85 0 1 0-3.847 4.037 3.927 3.927 0 0 0 3.847-4.037zm-6.454 0a2.61 2.61 0 1 1 2.609 2.794 2.678 2.678 0 0 1-2.609-2.794zm12.045-3.907h-2.367v7.813h1.229v-2.707h1.142a2.553 2.553 0 1 0-.004-5.106zm-.01 3.9H561.9v-2.685h1.132a1.343 1.343 0 1 1-.004 2.681zm16.193 3.917v-7.813h-1.236v5.6l-4.181-5.6h-1.068v7.813h1.226v-5.623l4.19 5.623h1.069zm10.924-3.906a3.85 3.85 0 1 0-3.845 4.033 3.927 3.927 0 0 0 3.845-4.037zm-6.454 0a2.61 2.61 0 1 1 2.609 2.794 2.678 2.678 0 0 1-2.609-2.798zm15.45 3.906h1.131l1.928-7.813h-1.3l-1.362 5.678-2.127-5.81-2.126 5.81-1.362-5.678h-1.289l1.917 7.813h1.132l1.728-4.776zm-67.44 2.568v-.99h72.36v.99H531.7z"/><g id="Number_copy_6" data-name="Number copy 6"><path id="_02" data-name="2" class="cls-2" d="M1310.13 632.1v-3.724c0-3.2-2.13-5.466-5.13-5.466s-5.12 2.263-5.12 5.466v3.724c0 3.2 2.13 5.465 5.12 5.465s5.13-2.265 5.13-5.465zm-8.06 0v-3.724c0-2.062 1.21-3.3 2.93-3.3s2.94 1.242 2.94 3.3v3.724c0 2.082-1.21 3.3-2.94 3.3s-2.93-1.218-2.93-3.3zm19.91 3.1h-6.47c.36-1.281 1.94-2.082 3.21-3.043 2.07-1.5 3.12-2.723 3.12-4.985a4.12 4.12 0 0 0-4.43-4.265 4.527 4.527 0 0 0-4.78 4.585h2.21a2.394 2.394 0 0 1 2.55-2.423 2.076 2.076 0 0 1 2.24 2.163c0 1.441-.91 2.242-2.36 3.3-2.07 1.542-4.64 2.9-4.64 6.026v.8h9.35V635.2z"/><path id="_03" data-name="3" class="cls-2" d="M1310.13 687.458v-3.724c0-3.2-2.13-5.465-5.13-5.465s-5.12 2.262-5.12 5.465v3.724c0 3.2 2.13 5.466 5.12 5.466s5.13-2.262 5.13-5.466zm-8.06 0v-3.724c0-2.062 1.21-3.3 2.93-3.3s2.94 1.241 2.94 3.3v3.724c0 2.083-1.21 3.3-2.94 3.3s-2.93-1.217-2.93-3.3zm20.31 1.262a3.549 3.549 0 0 0-2.13-3.364 3.631 3.631 0 0 0 1.73-3.083c.02-2.322-1.79-4-4.42-4a4.548 4.548 0 0 0-4.79 4.585h2.21a2.381 2.381 0 0 1 2.58-2.423 2.028 2.028 0 0 1 2.21 1.982 2.094 2.094 0 0 1-2.32 2.022h-1.12v1.882h1.12c1.63 0 2.72.761 2.72 2.263a2.264 2.264 0 0 1-2.53 2.182 2.721 2.721 0 0 1-2.94-2.5h-2.19a4.811 4.811 0 0 0 5.13 4.665c2.81-.007 4.74-1.709 4.74-4.211z"/><path class="cls-2" d="M1293 658v-1.01h37V658h-37z"/></g><g id="X_copy_5" data-name="X copy 5"><path id="Rectangle_116_copy_2" data-name="Rectangle 116 copy 2" class="cls-1" d="M1330.01 58.336l-.94.929-13.69-13.565-14.44 14.3-.95-.939 14.44-14.3-13.96-13.832.94-.929 13.96 13.832 13.5-13.383.95.938-13.51 13.383z"/></g><g id="R_copy_6" data-name="R copy 6"><path id="Rectangle_116_copy" data-name="Rectangle 116 copy" class="cls-1" d="M1328.51 362.768l-.07-.068-27.94 27.9-.95-.941 27.95-27.9-27.47-27.421.93-.932 28.49 28.431z"/></g><g id="L_copy_6" data-name="L copy 6"><path id="Rectangle_116_copy-2" data-name="Rectangle 116 copy" class="cls-1" d="M57.12 334.161l-27.338 27.578 26.874 27.11-.913.921-27.863-28.107.913-.921.066.066L56.2 333.23z"/></g></svg>