<svg id="copy_copy_2" data-name="copy copy 2" xmlns="http://www.w3.org/2000/svg" width="1360" height="723" viewBox="0 0 1360 723">
  <defs>
    <style>
      .cls-1, .cls-2 {
        fill-rule: evenodd;
      }

      .cls-2 {
        fill: #fff;
      }
    </style>
  </defs>
  <path id="Available_in_leather_and_suede." data-name="Available in leather and suede." class="cls-1" d="M95.459,674.146h1.153l1.092-2.485h3.974l1.092,2.485h1.165l-3.782-8.523H99.228Zm2.677-3.493,1.549-3.518,1.549,3.518h-3.1Zm9.276,3.493h0.864l2.773-6H109.9l-2.053,4.538-2.053-4.538h-1.153Zm5.051-3a3,3,0,0,0,2.941,3.121,2.635,2.635,0,0,0,2.113-1.044v0.924h1.032v-6h-1.032v0.924a2.635,2.635,0,0,0-2.113-1.044A3,3,0,0,0,112.463,671.145Zm5.138,0a2.051,2.051,0,1,1-2.041-2.173A2.05,2.05,0,0,1,117.6,671.145Zm5.1-5.342a0.725,0.725,0,0,0-.72-0.732,0.745,0.745,0,0,0-.744.732,0.738,0.738,0,0,0,.744.732A0.717,0.717,0,0,0,122.7,665.8Zm-1.248,8.343h1.032v-6h-1.032v6Zm3.948,0h1.032v-9H125.4v9Zm3.479-3a3,3,0,0,0,2.941,3.121,2.632,2.632,0,0,0,2.113-1.044v0.924h1.033v-6h-1.033v0.924a2.632,2.632,0,0,0-2.113-1.044A3,3,0,0,0,128.878,671.145Zm5.138,0a2.05,2.05,0,1,1-2.04-2.173A2.049,2.049,0,0,1,134.016,671.145Zm4.883,2.077a2.632,2.632,0,0,0,2.113,1.044,3.127,3.127,0,0,0,0-6.242,2.632,2.632,0,0,0-2.113,1.044v-3.925h-1.033v9H138.9v-0.924Zm4-2.077a2.045,2.045,0,1,1-2.04-2.173A2.049,2.049,0,0,1,142.9,671.145Zm3.49,3h1.033v-9h-1.033v9Zm3.48-3a3.164,3.164,0,0,0,5.81,1.693l-0.816-.564a2.126,2.126,0,0,1-3.95-.925h4.922a2.928,2.928,0,0,0,.012-0.312,2.8,2.8,0,0,0-2.857-3.013A3.041,3.041,0,0,0,149.866,671.145Zm3.085-2.209a1.8,1.8,0,0,1,1.837,1.573h-3.806A1.962,1.962,0,0,1,152.951,668.936ZM163.4,665.8a0.725,0.725,0,0,0-.72-0.732,0.745,0.745,0,0,0-.744.732,0.738,0.738,0,0,0,.744.732A0.717,0.717,0,0,0,163.4,665.8Zm-1.248,8.343h1.032v-6h-1.032v6Zm3.948,0h1.032v-2.977c0-1.4.769-2.2,1.741-2.2a1.441,1.441,0,0,1,1.417,1.633v3.541h1.02v-3.7a2.212,2.212,0,0,0-2.269-2.425,2.123,2.123,0,0,0-1.909,1.044v-0.924H166.1v6Zm11.916,0h1.032v-9h-1.032v9Zm3.479-3a3.165,3.165,0,0,0,5.811,1.693l-0.817-.564a2.125,2.125,0,0,1-3.949-.925h4.922a2.928,2.928,0,0,0,.012-0.312,2.8,2.8,0,0,0-2.857-3.013A3.042,3.042,0,0,0,181.5,671.145Zm3.086-2.209a1.8,1.8,0,0,1,1.836,1.573h-3.805A1.962,1.962,0,0,1,184.583,668.936Zm4.846,2.209a3,3,0,0,0,2.941,3.121,2.632,2.632,0,0,0,2.113-1.044v0.924h1.033v-6h-1.033v0.924a2.632,2.632,0,0,0-2.113-1.044A3,3,0,0,0,189.429,671.145Zm5.138,0a2.05,2.05,0,1,1-2.041-2.173A2.049,2.049,0,0,1,194.567,671.145Zm7.1,2.917v-0.924a2.287,2.287,0,0,1-.733.12,0.864,0.864,0,0,1-1-1.02v-3.146h1.729v-0.948h-1.729v-1.669h-1.033v1.669h-1.272v0.948h1.272v3.278a1.69,1.69,0,0,0,1.837,1.836A2.883,2.883,0,0,0,201.671,674.062Zm2.278,0.084h1.033v-2.977c0-1.4.768-2.2,1.74-2.2a1.441,1.441,0,0,1,1.417,1.633v3.541h1.02v-3.7a2.212,2.212,0,0,0-2.269-2.425,2.122,2.122,0,0,0-1.908,1.044v-3.925h-1.033v9Zm7.56-3a3.164,3.164,0,0,0,5.81,1.693l-0.816-.564a2.126,2.126,0,0,1-3.95-.925h4.922a2.928,2.928,0,0,0,.012-0.312,2.8,2.8,0,0,0-2.857-3.013A3.041,3.041,0,0,0,211.509,671.145Zm3.085-2.209a1.8,1.8,0,0,1,1.837,1.573h-3.806A1.962,1.962,0,0,1,214.594,668.936Zm5.315,5.21h1.032v-2.977c0-1.4.829-2.065,1.585-2.065a1.508,1.508,0,0,1,.564.1v-1.068a2.138,2.138,0,0,0-.468-0.048,1.787,1.787,0,0,0-1.681,1.224v-1.164h-1.032v6Zm8.472-3a3,3,0,0,0,2.941,3.121,2.633,2.633,0,0,0,2.113-1.044v0.924h1.032v-6h-1.032v0.924a2.633,2.633,0,0,0-2.113-1.044A3,3,0,0,0,228.381,671.145Zm5.138,0a2.051,2.051,0,1,1-2.041-2.173A2.05,2.05,0,0,1,233.519,671.145Zm3.85,3H238.4v-2.977c0-1.4.769-2.2,1.741-2.2a1.441,1.441,0,0,1,1.416,1.633v3.541h1.021v-3.7a2.212,2.212,0,0,0-2.269-2.425,2.123,2.123,0,0,0-1.909,1.044v-0.924h-1.032v6Zm7.559-3a3,3,0,0,0,2.942,3.121,2.635,2.635,0,0,0,2.113-1.044v0.924h1.032v-9h-1.032v3.925a2.635,2.635,0,0,0-2.113-1.044A3,3,0,0,0,244.928,671.145Zm5.139,0a2.051,2.051,0,1,1-2.041-2.173A2.05,2.05,0,0,1,250.067,671.145Zm11.627,1.333a1.9,1.9,0,0,0-1.585-1.813l-0.648-.216c-0.708-.228-0.924-0.456-0.924-0.84a0.849,0.849,0,0,1,1.008-.7,1.624,1.624,0,0,1,1.273.624l0.672-.648a2.329,2.329,0,0,0-1.921-.864,1.778,1.778,0,0,0-2.029,1.633,1.811,1.811,0,0,0,1.489,1.74l0.588,0.192c0.78,0.252,1.069.541,1.069,0.961a0.914,0.914,0,0,1-1.057.816,1.613,1.613,0,0,1-1.537-.948l-0.84.456a2.385,2.385,0,0,0,2.353,1.392A1.812,1.812,0,0,0,261.694,672.478Zm2.35-.649a2.191,2.191,0,0,0,2.209,2.437,2.066,2.066,0,0,0,1.849-1.044v0.924h1.032v-6H268.1v2.977c0,1.381-.732,2.2-1.669,2.2a1.417,1.417,0,0,1-1.356-1.645v-3.529h-1.033v3.685Zm7.524-.684a3.164,3.164,0,0,0,5.81,1.693l-0.816-.564a2.126,2.126,0,0,1-3.95-.925h4.922a2.928,2.928,0,0,0,.012-0.312,2.8,2.8,0,0,0-2.857-3.013A3.042,3.042,0,0,0,271.568,671.145Zm3.085-2.209a1.8,1.8,0,0,1,1.837,1.573h-3.806A1.963,1.963,0,0,1,274.653,668.936Zm4.847,2.209a3,3,0,0,0,2.941,3.121,2.633,2.633,0,0,0,2.113-1.044v0.924h1.032v-9h-1.032v3.925a2.633,2.633,0,0,0-2.113-1.044A3,3,0,0,0,279.5,671.145Zm5.138,0a2.051,2.051,0,1,1-2.041-2.173A2.049,2.049,0,0,1,284.638,671.145Zm3.382,0a3.164,3.164,0,0,0,5.81,1.693l-0.816-.564a2.126,2.126,0,0,1-3.95-.925h4.922a2.928,2.928,0,0,0,.012-0.312,2.8,2.8,0,0,0-2.857-3.013A3.041,3.041,0,0,0,288.02,671.145Zm3.085-2.209a1.8,1.8,0,0,1,1.837,1.573h-3.806A1.962,1.962,0,0,1,291.105,668.936Zm6.743,4.406a0.888,0.888,0,1,0-.888.9A0.9,0.9,0,0,0,297.848,673.342Z"/>
  <path id="chukka_boot" data-name="chukka boot" class="cls-1" d="M100.819,656.338a5.872,5.872,0,0,0,5.313-3.1l-2.24-1.216a3.409,3.409,0,1,1,0-3.105l2.24-1.216A5.923,5.923,0,1,0,100.819,656.338Zm8.08-.192h2.544v-4.5h4.577v4.5h2.544V644.785H116.02v4.448h-4.577v-4.448H108.9v11.361Zm17.888,0.192a4.456,4.456,0,0,0,4.673-4.688v-6.865h-2.544v6.9a2.129,2.129,0,1,1-4.257,0v-6.9h-2.544v6.865A4.447,4.447,0,0,0,126.787,656.338Zm8.223-.192h2.529v-5.088l4.624,5.088h3.265l-5.393-5.9,4.481-5.456H141.4l-3.856,4.752v-4.752H135.01v11.361Zm12.48,0h2.529v-5.088l4.624,5.088h3.265l-5.393-5.9L157,644.785h-3.121l-3.856,4.752v-4.752H147.49v11.361Zm11.264,0h2.656l1.009-2.4h4.7l1.008,2.4h2.657l-4.865-11.361h-2.3Zm4.593-4.608,1.424-3.425,1.424,3.425h-2.848Zm14.223,4.608h4.993a3.359,3.359,0,0,0,3.456-3.344,2.971,2.971,0,0,0-1.616-2.689,2.674,2.674,0,0,0,.816-1.952,3.377,3.377,0,0,0-3.376-3.376H177.57v11.361Zm2.544-6.769v-2.272h1.441a1.155,1.155,0,0,1,1.184,1.152,1.139,1.139,0,0,1-1.184,1.12h-1.441Zm0,4.433v-2.272h2.225a1.156,1.156,0,0,1,1.2,1.136,1.142,1.142,0,0,1-1.184,1.136h-2.241Zm14.129,2.528a5.873,5.873,0,1,0-5.873-5.872A5.887,5.887,0,0,0,194.243,656.338Zm0-2.464a3.41,3.41,0,1,1,3.3-3.408A3.371,3.371,0,0,1,194.243,653.874Zm14.143,2.464a5.873,5.873,0,1,0-5.872-5.872A5.886,5.886,0,0,0,208.386,656.338Zm0-2.464a3.41,3.41,0,1,1,3.3-3.408A3.371,3.371,0,0,1,208.386,653.874Zm10.528,2.272h2.56v-8.929H224.4v-2.432h-8.385v2.432h2.9v8.929Z"/>
  <path id="Rapid_Movement_Cargo_Chino" data-name="Rapid Movement  Cargo Chino" class="cls-2" d="M531.587,653.146h2.544v-4.688h0.416l3.777,4.688h3.056l-4.017-5.008a2.933,2.933,0,0,0,2.225-2.929,3.354,3.354,0,0,0-3.521-3.424h-4.48v11.361Zm2.544-6.849v-2.176h1.632a1.132,1.132,0,0,1,1.3,1.088,1.15,1.15,0,0,1-1.3,1.088h-1.632Zm8.111,6.849H544.9l1.008-2.4h4.7l1.009,2.4h2.656l-4.865-11.361h-2.3Zm4.593-4.608,1.424-3.425,1.424,3.425h-2.848Zm17.761-2.865a3.87,3.87,0,0,0-4-3.888h-3.857v11.361h2.545v-3.6H560.6A3.857,3.857,0,0,0,564.6,645.673Zm-2.465,0a1.5,1.5,0,0,1-1.568,1.488h-1.28v-2.976h1.28A1.486,1.486,0,0,1,562.131,645.673Zm5.375,7.473h2.545V641.785h-2.545v11.361Zm6.224,0H577.6a5.682,5.682,0,1,0,0-11.361H573.73v11.361Zm2.544-2.336v-6.689H577.6a3.347,3.347,0,0,1,0,6.689h-1.329Zm20.849-.08,3.312-4.593v7.009H603V641.785h-2.32l-3.552,4.9-3.553-4.9h-2.32v11.361h2.544v-7.009Zm14.783,2.608a5.873,5.873,0,1,0-5.873-5.872A5.886,5.886,0,0,0,611.906,653.338Zm0-2.464a3.41,3.41,0,1,1,3.3-3.408A3.371,3.371,0,0,1,611.906,650.874Zm11.888,2.272h2.288l4.657-11.361h-2.8l-3.009,7.569-3.024-7.569h-2.769Zm9.439,0h7.2v-2.432h-4.656v-2.032h3.7v-2.433h-3.7v-2.032h4.656v-2.432h-7.2v11.361Zm16.289-2.416,3.313-4.593v7.009h2.56V641.785h-2.32l-3.553,4.9-3.552-4.9h-2.321v11.361h2.545v-7.009Zm9.551,2.416h7.2v-2.432h-4.657v-2.032h3.7v-2.433h-3.7v-2.032h4.657v-2.432h-7.2v11.361Zm20.69,0V641.785H677.2v7.009l-5.521-7.009h-2.192v11.361h2.544v-7.025l5.537,7.025h2.193Zm5.726,0h2.561v-8.929h2.928v-2.432h-8.385v2.432h2.9v8.929Zm-148.67,24.192a5.872,5.872,0,0,0,5.313-3.1l-2.24-1.216a3.409,3.409,0,1,1,0-3.105l2.24-1.216A5.923,5.923,0,1,0,536.819,677.338Zm6.591-.192h2.657l1.008-2.4h4.7l1.008,2.4h2.656l-4.864-11.361h-2.305ZM548,672.538l1.424-3.425,1.425,3.425H548Zm9.9,4.608h2.544v-4.688h0.416l3.777,4.688H567.7l-4.017-5.008a2.933,2.933,0,0,0,2.225-2.929,3.354,3.354,0,0,0-3.521-3.424h-4.48v11.361Zm2.544-6.849v-2.176h1.632a1.132,1.132,0,0,1,1.3,1.088,1.15,1.15,0,0,1-1.3,1.088h-1.632Zm14.464,7.041a6.279,6.279,0,0,0,4.657-1.68v-5.393h-4.705v2.385h2.225v1.68a3.7,3.7,0,0,1-2.209.544,3.411,3.411,0,1,1-.16-6.817,3.773,3.773,0,0,1,2.865,1.216l1.792-1.744a6.045,6.045,0,0,0-4.657-1.936,5.8,5.8,0,0,0-5.984,5.873A5.9,5.9,0,0,0,574.915,677.338Zm13.168,0a5.873,5.873,0,1,0-5.873-5.872A5.886,5.886,0,0,0,588.083,677.338Zm0-2.464a3.41,3.41,0,1,1,3.3-3.408A3.371,3.371,0,0,1,588.083,674.874Zm18.944,2.464a5.872,5.872,0,0,0,5.312-3.1l-2.24-1.216a3.409,3.409,0,1,1,0-3.105l2.24-1.216A5.923,5.923,0,1,0,607.027,677.338Zm8.079-.192h2.544v-4.5h4.577v4.5h2.544V665.785h-2.544v4.448H617.65v-4.448h-2.544v11.361Zm13.344,0h2.544V665.785H628.45v11.361Zm16.5,0V665.785h-2.56v7.009l-5.521-7.009h-2.192v11.361h2.544v-7.025l5.537,7.025h2.192Zm8.911,0.192a5.873,5.873,0,1,0-5.872-5.872A5.886,5.886,0,0,0,653.858,677.338Zm0-2.464a3.41,3.41,0,1,1,3.3-3.408A3.371,3.371,0,0,1,653.858,674.874Z"/>
  <path id="SHOP_now" data-name="SHOP now" class="cls-1" d="M96.036,695.492a2.942,2.942,0,0,0,2.651,1.409,2.257,2.257,0,0,0,2.483-2.256,2.331,2.331,0,0,0-1.75-2.289l-0.754-.3c-0.765-.3-1.131-0.55-1.131-1.122a1.033,1.033,0,0,1,1.173-.9,1.772,1.772,0,0,1,1.414.726l0.849-.869a2.809,2.809,0,0,0-2.253-1.068,2.2,2.2,0,0,0-2.42,2.2,2.26,2.26,0,0,0,1.76,2.2l0.817,0.308a1.3,1.3,0,0,1,1.058,1.188,1.059,1.059,0,0,1-1.2.968,2,2,0,0,1-1.729-1Zm8.348,1.277h1.226v-3.356h3.677v3.356h1.226v-7.813h-1.226v3.235H105.61v-3.235h-1.226v7.813Zm17.063-3.906A3.85,3.85,0,1,0,117.6,696.9,3.927,3.927,0,0,0,121.447,692.863Zm-6.454,0a2.61,2.61,0,1,1,2.609,2.794A2.678,2.678,0,0,1,114.993,692.863Zm12.045-3.907h-2.367v7.813H125.9v-2.707h1.142A2.553,2.553,0,1,0,127.038,688.956Zm-0.01,3.9H125.9v-2.685h1.132A1.343,1.343,0,1,1,127.028,692.852Zm16.193,3.917v-7.813h-1.236v5.6l-4.181-5.6h-1.068v7.813h1.226v-5.623l4.19,5.623h1.069Zm10.924-3.906A3.85,3.85,0,1,0,150.3,696.9,3.927,3.927,0,0,0,154.145,692.863Zm-6.454,0a2.61,2.61,0,1,1,2.609,2.794A2.678,2.678,0,0,1,147.691,692.863Zm15.45,3.906h1.131l1.928-7.813h-1.3l-1.362,5.678-2.127-5.81-2.126,5.81-1.362-5.678h-1.289l1.917,7.813h1.132l1.728-4.776ZM95.7,699.337v-0.99h72.36v0.99H95.7Z"/>
  <path id="SHOP_now-2" data-name="SHOP now" class="cls-2" d="M532.036,698.492a2.943,2.943,0,0,0,2.651,1.409,2.257,2.257,0,0,0,2.483-2.256,2.331,2.331,0,0,0-1.75-2.289l-0.754-.3c-0.765-.3-1.132-0.55-1.132-1.122a1.034,1.034,0,0,1,1.174-.9,1.772,1.772,0,0,1,1.414.726l0.849-.869a2.81,2.81,0,0,0-2.253-1.068,2.2,2.2,0,0,0-2.42,2.2,2.26,2.26,0,0,0,1.76,2.2l0.817,0.308a1.3,1.3,0,0,1,1.059,1.188,1.06,1.06,0,0,1-1.2.968,2.006,2.006,0,0,1-1.729-1Zm8.348,1.277h1.226v-3.356h3.677v3.356h1.226v-7.813h-1.226v3.235H541.61v-3.235h-1.226v7.813Zm17.063-3.906A3.85,3.85,0,1,0,553.6,699.9,3.927,3.927,0,0,0,557.447,695.863Zm-6.454,0a2.61,2.61,0,1,1,2.609,2.794A2.678,2.678,0,0,1,550.993,695.863Zm12.045-3.907h-2.367v7.813H561.9v-2.707h1.142A2.553,2.553,0,1,0,563.038,691.956Zm-0.01,3.9H561.9v-2.685h1.132A1.343,1.343,0,1,1,563.028,695.852Zm16.193,3.917v-7.813h-1.236v5.6l-4.181-5.6h-1.068v7.813h1.226v-5.623l4.19,5.623h1.069Zm10.924-3.906A3.85,3.85,0,1,0,586.3,699.9,3.927,3.927,0,0,0,590.145,695.863Zm-6.454,0a2.61,2.61,0,1,1,2.609,2.794A2.678,2.678,0,0,1,583.691,695.863Zm15.45,3.906h1.131l1.928-7.813h-1.3l-1.362,5.678-2.127-5.81-2.126,5.81-1.362-5.678h-1.289l1.917,7.813h1.132l1.728-4.776Zm-67.44,2.568v-0.99h72.36v0.99H531.7Z"/>
  <g id="Number_copy_6" data-name="Number copy 6">
    <path id="_02" data-name="02" class="cls-2" d="M1310.13,632.1v-3.724c0-3.2-2.13-5.466-5.13-5.466s-5.12,2.263-5.12,5.466V632.1c0,3.2,2.13,5.465,5.12,5.465S1310.13,635.3,1310.13,632.1Zm-8.06,0v-3.724c0-2.062,1.21-3.3,2.93-3.3s2.94,1.242,2.94,3.3V632.1c0,2.082-1.21,3.3-2.94,3.3S1302.07,634.182,1302.07,632.1Zm19.91,3.1h-6.47c0.36-1.281,1.94-2.082,3.21-3.043,2.07-1.5,3.12-2.723,3.12-4.985a4.12,4.12,0,0,0-4.43-4.265,4.527,4.527,0,0,0-4.78,4.585h2.21a2.394,2.394,0,0,1,2.55-2.423,2.076,2.076,0,0,1,2.24,2.163c0,1.441-.91,2.242-2.36,3.3-2.07,1.542-4.64,2.9-4.64,6.026v0.8h9.35V635.2Z"/>
    <path id="_03" data-name="03" class="cls-2" d="M1310.13,687.458v-3.724c0-3.2-2.13-5.465-5.13-5.465s-5.12,2.262-5.12,5.465v3.724c0,3.2,2.13,5.466,5.12,5.466S1310.13,690.662,1310.13,687.458Zm-8.06,0v-3.724c0-2.062,1.21-3.3,2.93-3.3s2.94,1.241,2.94,3.3v3.724c0,2.083-1.21,3.3-2.94,3.3S1302.07,689.541,1302.07,687.458Zm20.31,1.262a3.549,3.549,0,0,0-2.13-3.364,3.631,3.631,0,0,0,1.73-3.083c0.02-2.322-1.79-4-4.42-4a4.548,4.548,0,0,0-4.79,4.585h2.21a2.381,2.381,0,0,1,2.58-2.423,2.028,2.028,0,0,1,2.21,1.982,2.094,2.094,0,0,1-2.32,2.022h-1.12v1.882h1.12c1.63,0,2.72.761,2.72,2.263a2.264,2.264,0,0,1-2.53,2.182,2.721,2.721,0,0,1-2.94-2.5h-2.19a4.811,4.811,0,0,0,5.13,4.665C1320.45,692.924,1322.38,691.222,1322.38,688.72Z"/>
    <path class="cls-2" d="M1293,658V656.99h37V658h-37Z"/>
  </g>
  <g id="X_copy_5" data-name="X copy 5">
    <path id="Rectangle_116_copy_2" data-name="Rectangle 116 copy 2" class="cls-1" d="M1330.01,58.336l-0.94.929L1315.38,45.7,1300.94,60l-0.95-.939,14.44-14.3-13.96-13.832,0.94-.929,13.96,13.832,13.5-13.383,0.95,0.938-13.51,13.383Z"/>
  </g>
  <g id="R_copy_6" data-name="R copy 6">
    <path id="Rectangle_116_copy" data-name="Rectangle 116 copy" class="cls-1" d="M1328.51,362.768l-0.07-.068-27.94,27.9-0.95-.941,27.95-27.9-27.47-27.421,0.93-.932,28.49,28.431Z"/>
  </g>
  <g id="L_copy_6" data-name="L copy 6">
    <path id="Rectangle_116_copy-2" data-name="Rectangle 116 copy" class="cls-1" d="M57.12,334.161L29.782,361.739l26.874,27.11-0.913.921L27.88,361.663l0.913-.921,0.066,0.066L56.2,333.23Z"/>
  </g>
</svg>
