<svg id="copy_copy_2" data-name="copy copy 2" xmlns="http://www.w3.org/2000/svg" width="1360" height="723"><defs><style>.cls-1{fill-rule:evenodd}</style></defs><path id="We_partner_with_the_best_mills_to_source_the_finest_fabrics_wit" data-name="We partner with the best mills to source the finest fabrics wit" class="cls-1" d="M40.74 595.146h1.328l3.1-11.361H43.62l-2.384 8.865-3.28-9.057-3.264 9.057-2.384-8.865h-1.553l3.1 11.361h1.328l2.784-7.713zm5.39-4a4.218 4.218 0 0 0 7.745 2.256l-1.088-.752a2.833 2.833 0 0 1-5.265-1.232h6.561A3.9 3.9 0 0 0 54.1 591a3.728 3.728 0 0 0-3.809-4.017 4.054 4.054 0 0 0-4.16 4.163zm4.113-2.945a2.394 2.394 0 0 1 2.448 2.1h-5.072a2.615 2.615 0 0 1 2.624-2.101zm10.511 10.29h1.376v-4.577a3.509 3.509 0 0 0 2.816 1.392 4.168 4.168 0 0 0 0-8.321 3.509 3.509 0 0 0-2.816 1.392v-1.232h-1.376v11.346zm6.7-7.345a2.726 2.726 0 1 1-2.72-2.9 2.732 2.732 0 0 1 2.725 2.9zm3.167 0a4 4 0 0 0 3.921 4.16 3.509 3.509 0 0 0 2.816-1.392v1.232h1.376v-8h-1.371v1.232a3.509 3.509 0 0 0-2.816-1.392 4 4 0 0 0-3.921 4.16zm6.849 0a2.733 2.733 0 1 1-2.72-2.9 2.732 2.732 0 0 1 2.725 2.9zm4.255 4h1.376v-3.968c0-1.872 1.1-2.753 2.112-2.753a2.011 2.011 0 0 1 .752.128v-1.424a2.851 2.851 0 0 0-.624-.064 2.381 2.381 0 0 0-2.24 1.632v-1.552H81.73v8zm10.593-.112V593.8a3.042 3.042 0 0 1-.976.16 1.152 1.152 0 0 1-1.328-1.36v-4.193h2.3v-1.264h-2.3v-2.224h-1.372v2.224h-1.7v1.264h1.7v4.369a2.252 2.252 0 0 0 2.448 2.448 3.829 3.829 0 0 0 1.233-.19zm2.159.112h1.376v-3.968c0-1.872 1.024-2.929 2.32-2.929a1.921 1.921 0 0 1 1.888 2.177v4.72h1.36v-4.928a2.949 2.949 0 0 0-3.025-3.233 2.829 2.829 0 0 0-2.544 1.392v-1.232h-1.37v8zm9.2-4a4.218 4.218 0 0 0 7.745 2.256l-1.088-.752a2.833 2.833 0 0 1-5.265-1.232h6.561a3.9 3.9 0 0 0 .016-.416 3.728 3.728 0 0 0-3.809-4.017 4.054 4.054 0 0 0-4.155 4.161zm4.112-2.945a2.4 2.4 0 0 1 2.449 2.1h-5.068a2.615 2.615 0 0 1 2.624-2.101zm6.211 6.945h1.376v-3.968c0-1.872 1.1-2.753 2.112-2.753a2.011 2.011 0 0 1 .752.128v-1.424a2.851 2.851 0 0 0-.624-.064 2.38 2.38 0 0 0-2.24 1.632v-1.552H114v8zm16.657 0h1.216l2.72-8h-1.456l-1.936 5.841-2-5.841h-1.056l-2 5.841-1.936-5.841h-1.44l2.72 8h1.216l1.984-5.76zm7.487-11.121a.966.966 0 0 0-.96-.976.994.994 0 0 0-.993.976.984.984 0 0 0 .993.976.956.956 0 0 0 .962-.976zm-1.665 11.121h1.377v-8h-1.377v8zm8.721-.112V593.8a3.041 3.041 0 0 1-.976.16 1.152 1.152 0 0 1-1.328-1.36v-4.193h2.3v-1.264h-2.3v-2.224h-1.377v2.224h-1.7v1.264h1.7v4.369a2.253 2.253 0 0 0 2.449 2.448 3.828 3.828 0 0 0 1.232-.19zm2.159.112h1.376v-3.968c0-1.872 1.025-2.929 2.321-2.929a1.921 1.921 0 0 1 1.888 2.177v4.72h1.36v-4.928a2.949 2.949 0 0 0-3.024-3.233 2.832 2.832 0 0 0-2.545 1.392v-5.232h-1.376v12zm18.193-.112V593.8a3.048 3.048 0 0 1-.977.16 1.152 1.152 0 0 1-1.328-1.36v-4.193h2.305v-1.264h-2.305v-2.224h-1.376v2.224h-1.7v1.264h1.7v4.369a2.252 2.252 0 0 0 2.448 2.448 3.84 3.84 0 0 0 1.235-.19zm2.159.112h1.376v-3.968c0-1.872 1.024-2.929 2.32-2.929a1.921 1.921 0 0 1 1.889 2.177v4.72h1.36v-4.928a2.949 2.949 0 0 0-3.025-3.233 2.829 2.829 0 0 0-2.544 1.392v-5.232h-1.376v12zm9.2-4a4.218 4.218 0 0 0 7.745 2.256l-1.088-.752a2.833 2.833 0 0 1-5.265-1.232h6.561a3.9 3.9 0 0 0 .016-.416 3.728 3.728 0 0 0-3.809-4.017 4.054 4.054 0 0 0-4.158 4.161zm4.112-2.945a2.4 2.4 0 0 1 2.449 2.1H178.4a2.615 2.615 0 0 1 2.625-2.101zm11.888 5.713a3.508 3.508 0 0 0 2.816 1.392 4.168 4.168 0 0 0 0-8.321 3.508 3.508 0 0 0-2.816 1.392v-5.232h-1.377v12h1.377v-1.232zm5.328-2.768a2.725 2.725 0 1 1-2.72-2.9 2.731 2.731 0 0 1 2.722 2.9zm3.151 0a4.218 4.218 0 0 0 7.745 2.256l-1.088-.752a2.833 2.833 0 0 1-5.265-1.232h6.561a3.9 3.9 0 0 0 .016-.416 3.728 3.728 0 0 0-3.808-4.017 4.054 4.054 0 0 0-4.159 4.161zm4.113-2.945a2.394 2.394 0 0 1 2.448 2.1h-5.071a2.616 2.616 0 0 1 2.625-2.101zm11.392 4.721c0-1.2-.752-1.968-2.112-2.416l-.865-.288c-.944-.3-1.232-.608-1.232-1.121a1.132 1.132 0 0 1 1.344-.928 2.162 2.162 0 0 1 1.7.832l.9-.864a3.1 3.1 0 0 0-2.561-1.152c-1.584 0-2.7.88-2.7 2.176a2.415 2.415 0 0 0 1.984 2.321l.784.256c1.041.336 1.425.72 1.425 1.28a1.218 1.218 0 0 1-1.409 1.088 2.147 2.147 0 0 1-2.048-1.264l-1.12.608a3.178 3.178 0 0 0 3.136 1.856c1.608 0 2.779-.816 2.779-2.384zm6.608 2.112V593.8a3.041 3.041 0 0 1-.976.16 1.152 1.152 0 0 1-1.329-1.36v-4.193h2.305v-1.264H221.2v-2.224h-1.376v2.224h-1.7v1.264h1.7v4.369a2.252 2.252 0 0 0 2.448 2.448 3.83 3.83 0 0 0 1.233-.19zm6.463.112h1.376v-3.968c0-1.808.912-2.929 2.208-2.929 1.04 0 1.569.9 1.569 2.193v4.7h1.381v-3.968c0-1.808.9-2.929 2.192-2.929 1.04 0 1.584.9 1.584 2.193v4.7h1.376v-4.912c0-1.953-1.056-3.249-2.8-3.249a2.769 2.769 0 0 0-2.624 1.712 2.515 2.515 0 0 0-2.465-1.712 2.689 2.689 0 0 0-2.416 1.392v-1.232h-1.376v8zm16.224-11.121a.966.966 0 0 0-.96-.976.994.994 0 0 0-.992.976.983.983 0 0 0 .992.976.956.956 0 0 0 .962-.976zm-1.664 11.121h1.374v-8h-1.376v8zm4.384 0h1.376v-12h-1.376v12zm4.384 0h1.376v-12h-1.37v12zm9.568-2.224c0-1.2-.752-1.968-2.112-2.416l-.864-.288c-.944-.3-1.232-.608-1.232-1.121a1.132 1.132 0 0 1 1.344-.928 2.161 2.161 0 0 1 1.7.832l.9-.864a3.1 3.1 0 0 0-2.56-1.152c-1.585 0-2.7.88-2.7 2.176a2.414 2.414 0 0 0 1.985 2.321l.784.256c1.04.336 1.424.72 1.424 1.28a1.218 1.218 0 0 1-1.408 1.088 2.148 2.148 0 0 1-2.049-1.264l-1.12.608a3.179 3.179 0 0 0 3.137 1.856c1.609 0 2.773-.816 2.773-2.384zm10.736 2.112V593.8a3.041 3.041 0 0 1-.976.16 1.152 1.152 0 0 1-1.329-1.36v-4.193h2.307v-1.264h-2.3v-2.224h-1.376v2.224h-1.7v1.264h1.7v4.369a2.252 2.252 0 0 0 2.449 2.448 3.828 3.828 0 0 0 1.227-.19zm9.776-3.888a4.185 4.185 0 1 0-4.176 4.16 4.106 4.106 0 0 0 4.178-4.16zm-6.961 0a2.778 2.778 0 1 1 2.785 2.88 2.751 2.751 0 0 1-2.783-2.88zm18.817 1.776c0-1.2-.753-1.968-2.113-2.416l-.864-.288c-.944-.3-1.232-.608-1.232-1.121a1.132 1.132 0 0 1 1.344-.928 2.161 2.161 0 0 1 1.7.832l.9-.864a3.106 3.106 0 0 0-2.561-1.152c-1.584 0-2.7.88-2.7 2.176a2.415 2.415 0 0 0 1.984 2.321l.784.256c1.04.336 1.424.72 1.424 1.28a1.218 1.218 0 0 1-1.408 1.088 2.147 2.147 0 0 1-2.048-1.264l-1.12.608a3.178 3.178 0 0 0 3.136 1.856c1.607 0 2.776-.816 2.776-2.384zm10.1-1.776a4.185 4.185 0 1 0-4.177 4.16 4.107 4.107 0 0 0 4.175-4.16zm-6.961 0a2.778 2.778 0 1 1 2.784 2.88 2.751 2.751 0 0 1-2.786-2.88zm9.215.912a2.921 2.921 0 0 0 2.945 3.248 2.752 2.752 0 0 0 2.464-1.392v1.232h1.376v-8h-1.376v3.969c0 1.84-.976 2.928-2.224 2.928-1.1 0-1.808-.848-1.808-2.192v-4.705h-1.377v4.913zm9.776 3.088h1.377v-3.968c0-1.872 1.1-2.753 2.112-2.753a2.011 2.011 0 0 1 .752.128v-1.424a2.851 2.851 0 0 0-.624-.064 2.38 2.38 0 0 0-2.24 1.632v-1.552h-1.377v8zm13.233-1.984l-1.2-.672a2.712 2.712 0 0 1-2.5 1.536 2.882 2.882 0 0 1 0-5.761 2.711 2.711 0 0 1 2.5 1.537l1.2-.673a4.143 4.143 0 0 0-3.7-2.144 4.161 4.161 0 1 0 0 8.321 4.143 4.143 0 0 0 3.698-2.144zm1.551-2.016a4.218 4.218 0 0 0 7.745 2.256l-1.088-.752a2.833 2.833 0 0 1-5.265-1.232h6.564a3.9 3.9 0 0 0 .016-.416 3.728 3.728 0 0 0-3.808-4.017 4.054 4.054 0 0 0-4.166 4.161zm4.113-2.945a2.394 2.394 0 0 1 2.448 2.1h-5.075a2.616 2.616 0 0 1 2.625-2.101zm14.576 6.833V593.8a3.048 3.048 0 0 1-.977.16 1.152 1.152 0 0 1-1.328-1.36v-4.193h2.305v-1.264h-2.305v-2.224h-1.378v2.224h-1.7v1.264h1.7v4.369a2.252 2.252 0 0 0 2.448 2.448 3.835 3.835 0 0 0 1.233-.19zm2.159.112h1.376v-3.968c0-1.872 1.024-2.929 2.32-2.929a1.921 1.921 0 0 1 1.889 2.177v4.72h1.36v-4.928a2.949 2.949 0 0 0-3.025-3.233 2.829 2.829 0 0 0-2.544 1.392v-5.232h-1.378v12zm9.2-4a4.218 4.218 0 0 0 7.745 2.256l-1.088-.752a2.833 2.833 0 0 1-5.265-1.232h6.561a3.9 3.9 0 0 0 .016-.416 3.728 3.728 0 0 0-3.809-4.017 4.054 4.054 0 0 0-4.162 4.161zm4.108-2.946a2.4 2.4 0 0 1 2.449 2.1h-5.073a2.615 2.615 0 0 1 2.624-2.1zm10.976 6.945h1.376v-6.737h2.32v-1.264h-2.32v-1.472a1.152 1.152 0 0 1 1.328-1.36 3.222 3.222 0 0 1 .992.16v-1.216a3.636 3.636 0 0 0-1.248-.208 2.285 2.285 0 0 0-2.448 2.48v1.616h-1.7v1.264h1.7v6.737zm6.865-11.121a.966.966 0 0 0-.96-.976.994.994 0 0 0-.992.976.983.983 0 0 0 .992.976.956.956 0 0 0 .962-.975zm-1.664 11.121h1.376v-8h-1.376v8zm4.367 0h1.376v-3.968c0-1.872 1.024-2.929 2.32-2.929a1.921 1.921 0 0 1 1.888 2.177v4.72h1.361v-4.928a2.949 2.949 0 0 0-3.025-3.233 2.829 2.829 0 0 0-2.544 1.392v-1.232h-1.376v8zm9.2-4a4.218 4.218 0 0 0 7.745 2.256l-1.088-.752a2.832 2.832 0 0 1-5.264-1.232H404a3.9 3.9 0 0 0 .016-.416 3.728 3.728 0 0 0-3.808-4.017 4.055 4.055 0 0 0-4.163 4.162zm4.113-2.945a2.394 2.394 0 0 1 2.448 2.1h-5.073a2.617 2.617 0 0 1 2.626-2.1zm11.392 4.721c0-1.2-.752-1.968-2.112-2.416l-.864-.288c-.945-.3-1.233-.608-1.233-1.121a1.133 1.133 0 0 1 1.345-.928 2.161 2.161 0 0 1 1.7.832l.9-.864a3.1 3.1 0 0 0-2.56-1.152c-1.585 0-2.705.88-2.705 2.176a2.414 2.414 0 0 0 1.98 2.322l.784.256c1.04.336 1.424.72 1.424 1.28a1.218 1.218 0 0 1-1.408 1.088 2.148 2.148 0 0 1-2.049-1.264l-1.12.608a3.178 3.178 0 0 0 3.137 1.856c1.614 0 2.782-.816 2.782-2.384zm6.608 2.112V593.8a3.041 3.041 0 0 1-.976.16 1.153 1.153 0 0 1-1.329-1.36v-4.193h2.305v-1.264h-2.305v-2.224h-1.376v2.224h-1.7v1.264h1.7v4.369a2.252 2.252 0 0 0 2.449 2.448 3.828 3.828 0 0 0 1.233-.19zm6.927.112h1.376v-6.737h2.321v-1.264h-2.321v-1.472a1.153 1.153 0 0 1 1.329-1.36 3.222 3.222 0 0 1 .992.16v-1.216a3.636 3.636 0 0 0-1.248-.208 2.285 2.285 0 0 0-2.449 2.48v1.616h-1.7v1.264h1.7v6.737zm4.768-4a4 4 0 0 0 3.921 4.16 3.508 3.508 0 0 0 2.816-1.392v1.232h1.376v-8h-1.375v1.232a3.508 3.508 0 0 0-2.816-1.392 4 4 0 0 0-3.921 4.161zm6.849 0a2.733 2.733 0 1 1-2.72-2.9 2.731 2.731 0 0 1 2.719 2.901zm5.631 2.768a3.51 3.51 0 0 0 2.817 1.392 4.168 4.168 0 0 0 0-8.321 3.51 3.51 0 0 0-2.817 1.392v-5.232h-1.376v12h1.376v-1.232zm5.329-2.768a2.726 2.726 0 1 1-2.72-2.9 2.731 2.731 0 0 1 2.721 2.901zm3.775 4h1.376v-3.968c0-1.872 1.1-2.753 2.112-2.753a2.02 2.02 0 0 1 .753.128v-1.424a2.866 2.866 0 0 0-.625-.064 2.38 2.38 0 0 0-2.24 1.632v-1.552h-1.376v8zm7.92-11.121a.966.966 0 0 0-.96-.976.994.994 0 0 0-.992.976.983.983 0 0 0 .992.976.956.956 0 0 0 .961-.975zm-1.664 11.121h1.376v-8h-1.376v8zm11.649-1.984l-1.2-.672a2.713 2.713 0 0 1-2.5 1.536 2.882 2.882 0 0 1 0-5.761 2.712 2.712 0 0 1 2.5 1.537l1.2-.673a4.145 4.145 0 0 0-3.7-2.144 4.161 4.161 0 1 0 0 8.321 4.145 4.145 0 0 0 3.701-2.143zm7.359-.24c0-1.2-.752-1.968-2.112-2.416l-.864-.288c-.944-.3-1.232-.608-1.232-1.121a1.132 1.132 0 0 1 1.344-.928 2.161 2.161 0 0 1 1.7.832l.9-.864a3.1 3.1 0 0 0-2.56-1.152c-1.584 0-2.705.88-2.705 2.176a2.416 2.416 0 0 0 1.985 2.321l.784.256c1.04.336 1.424.72 1.424 1.28a1.218 1.218 0 0 1-1.408 1.088 2.147 2.147 0 0 1-2.048-1.264l-1.121.608a3.179 3.179 0 0 0 3.137 1.856c1.609.001 2.776-.815 2.776-2.383zm13.168 2.224h1.217l2.72-8h-1.455l-1.937 5.841-2-5.841h-1.056l-2 5.841-1.937-5.841h-1.44l2.721 8h1.216l1.984-5.76zm7.487-11.121a.966.966 0 0 0-.96-.976.994.994 0 0 0-.992.976.983.983 0 0 0 .992.976.956.956 0 0 0 .961-.975zm-1.664 11.121h1.376v-8h-1.376v8zm8.721-.112V593.8a3.041 3.041 0 0 1-.976.16 1.152 1.152 0 0 1-1.329-1.36v-4.193h2.305v-1.264h-2.305v-2.224h-1.376v2.224h-1.7v1.264h1.7v4.369a2.252 2.252 0 0 0 2.448 2.448 3.83 3.83 0 0 0 1.234-.19zm2.159.112h1.376v-3.968c0-1.872 1.024-2.929 2.321-2.929a1.921 1.921 0 0 1 1.888 2.177v4.72h1.36v-4.928a2.949 2.949 0 0 0-3.024-3.233 2.829 2.829 0 0 0-2.545 1.392v-5.232h-1.376v12zm18.192-.112V593.8a3.041 3.041 0 0 1-.976.16 1.152 1.152 0 0 1-1.328-1.36v-4.193h2.3v-1.264h-2.3v-2.224h-1.376v2.224h-1.7v1.264h1.7v4.369a2.252 2.252 0 0 0 2.448 2.448 3.828 3.828 0 0 0 1.233-.19zm2.16.112h1.377v-3.968c0-1.872 1.024-2.929 2.32-2.929a1.921 1.921 0 0 1 1.888 2.177v4.72h1.361v-4.928a2.949 2.949 0 0 0-3.025-3.233 2.829 2.829 0 0 0-2.544 1.392v-5.232h-1.376v12zm9.2-4a4.218 4.218 0 0 0 7.745 2.256l-1.088-.752a2.832 2.832 0 0 1-5.264-1.232h6.561a3.9 3.9 0 0 0 .016-.416 3.729 3.729 0 0 0-3.809-4.017 4.055 4.055 0 0 0-4.161 4.162zm4.113-2.945a2.394 2.394 0 0 1 2.448 2.1h-5.072a2.615 2.615 0 0 1 2.624-2.1zm10.511 6.945h1.376v-12h-1.376v12zm3.76-4a4 4 0 0 0 3.921 4.16 3.508 3.508 0 0 0 2.816-1.392v1.232h1.376v-8h-1.376v1.232a3.508 3.508 0 0 0-2.816-1.392 4 4 0 0 0-3.921 4.161zm6.849 0a2.733 2.733 0 1 1-2.72-2.9 2.731 2.731 0 0 1 2.72 2.901zm8.592 3.888V593.8a3.048 3.048 0 0 1-.977.16 1.152 1.152 0 0 1-1.328-1.36v-4.193h2.3v-1.264h-2.3v-2.224h-1.376v2.224h-1.7v1.264h1.7v4.369a2.252 2.252 0 0 0 2.448 2.448 3.835 3.835 0 0 0 1.233-.19zm1.423-3.888a4.218 4.218 0 0 0 7.745 2.256l-1.088-.752a2.833 2.833 0 0 1-5.265-1.232h6.561a3.9 3.9 0 0 0 .016-.417 3.728 3.728 0 0 0-3.808-4.017 4.054 4.054 0 0 0-4.161 4.163zm4.113-2.945a2.394 2.394 0 0 1 2.448 2.1h-5.073a2.616 2.616 0 0 1 2.625-2.1zm11.392 4.721c0-1.2-.752-1.968-2.113-2.416l-.864-.288c-.944-.3-1.232-.608-1.232-1.121a1.132 1.132 0 0 1 1.344-.928 2.165 2.165 0 0 1 1.7.832l.9-.864a3.1 3.1 0 0 0-2.561-1.152c-1.584 0-2.7.88-2.7 2.176a2.415 2.415 0 0 0 1.984 2.321l.784.256c1.04.336 1.424.72 1.424 1.28a1.218 1.218 0 0 1-1.408 1.088 2.147 2.147 0 0 1-2.048-1.264l-1.12.608a3.178 3.178 0 0 0 3.136 1.856c1.606.001 2.774-.815 2.774-2.383zm6.608 2.112V593.8a3.048 3.048 0 0 1-.977.16 1.152 1.152 0 0 1-1.328-1.36v-4.193h2.305v-1.264h-2.305v-2.224H589.8v2.224h-1.7v1.264h1.7v4.369a2.252 2.252 0 0 0 2.448 2.448 3.835 3.835 0 0 0 1.236-.19zm8.127-11.009a.966.966 0 0 0-.96-.976.994.994 0 0 0-.992.976.983.983 0 0 0 .992.976.956.956 0 0 0 .96-.975zm-1.664 11.121h1.376v-8h-1.376v8zm4.384 0h1.376v-3.968c0-1.872 1.024-2.929 2.32-2.929a1.921 1.921 0 0 1 1.888 2.177v4.72h1.361v-4.928a2.949 2.949 0 0 0-3.025-3.233 2.829 2.829 0 0 0-2.544 1.392v-1.232h-1.376v8zm9.823 0h1.377v-3.968c0-1.872 1.024-2.929 2.32-2.929a1.921 1.921 0 0 1 1.888 2.177v4.72h1.36v-4.928a2.949 2.949 0 0 0-3.024-3.233 2.829 2.829 0 0 0-2.544 1.392v-1.232h-1.377v8zm17.553-4a4.185 4.185 0 1 0-4.176 4.16 4.106 4.106 0 0 0 4.176-4.159zm-6.961 0a2.778 2.778 0 1 1 2.785 2.88 2.751 2.751 0 0 1-2.785-2.879zm11.649 4h1.152l3.7-8h-1.536l-2.736 6.049-2.737-6.049H632.7zm5.855-4a4 4 0 0 0 3.921 4.16 3.508 3.508 0 0 0 2.816-1.392v1.232h1.376v-8h-1.376v1.232a3.508 3.508 0 0 0-2.816-1.392 4 4 0 0 0-3.921 4.161zm6.849 0a2.733 2.733 0 1 1-2.72-2.9 2.731 2.731 0 0 1 2.721 2.901zm8.592 3.888V593.8a3.041 3.041 0 0 1-.976.16 1.152 1.152 0 0 1-1.329-1.36v-4.193h2.305v-1.264h-2.305v-2.224h-1.376v2.224h-1.7v1.264h1.7v4.369a2.252 2.252 0 0 0 2.449 2.448 3.828 3.828 0 0 0 1.232-.19zm3.823-11.009a.966.966 0 0 0-.96-.976.994.994 0 0 0-.992.976.983.983 0 0 0 .992.976.956.956 0 0 0 .96-.975zm-1.664 11.121h1.376v-8h-1.376v8zm12.113-4a4.185 4.185 0 1 0-4.177 4.16 4.106 4.106 0 0 0 4.177-4.159zm-6.961 0a2.778 2.778 0 1 1 2.784 2.88 2.751 2.751 0 0 1-2.786-2.879zm9.328 4h1.376v-3.968c0-1.872 1.024-2.929 2.32-2.929a1.921 1.921 0 0 1 1.889 2.177v4.72h1.36v-4.928a2.949 2.949 0 0 0-3.025-3.233 2.829 2.829 0 0 0-2.544 1.392v-1.232h-1.376v8zm11.728-1.072a1.184 1.184 0 1 0-1.184 1.2 1.205 1.205 0 0 0 1.184-1.199zm8.816 1.072h1.456v-9.953h3.537v-1.408h-8.53v1.408h3.537v9.953zm6.847 0h1.379v-3.968c0-1.872 1.024-2.929 2.32-2.929a1.921 1.921 0 0 1 1.888 2.177v4.72h1.36v-4.928a2.949 2.949 0 0 0-3.024-3.233 2.829 2.829 0 0 0-2.544 1.392v-5.232h-1.377v12zm11.489-11.121a.966.966 0 0 0-.961-.976.994.994 0 0 0-.992.976.983.983 0 0 0 .992.976.957.957 0 0 0 .961-.975zm-1.665 11.121h1.377v-8h-1.377v8zm9.569-2.224c0-1.2-.752-1.968-2.112-2.416l-.864-.288c-.945-.3-1.233-.608-1.233-1.121a1.133 1.133 0 0 1 1.345-.928 2.161 2.161 0 0 1 1.7.832l.9-.864a3.1 3.1 0 0 0-2.56-1.152c-1.585 0-2.705.88-2.705 2.176a2.415 2.415 0 0 0 1.984 2.321l.785.256c1.04.336 1.424.72 1.424 1.28a1.218 1.218 0 0 1-1.408 1.088 2.147 2.147 0 0 1-2.049-1.264l-1.12.608a3.178 3.178 0 0 0 3.137 1.856c1.608.001 2.776-.815 2.776-2.383zm6.879 2.224h1.488v-11.36h-1.488v11.361zm9.009-.112V593.8a3.052 3.052 0 0 1-.977.16 1.152 1.152 0 0 1-1.328-1.36v-4.193H737v-1.264h-2.3v-2.224h-1.376v2.224h-1.7v1.264h1.7v4.369a2.252 2.252 0 0 0 2.448 2.448 3.84 3.84 0 0 0 1.228-.19zm1.423-3.888a4 4 0 0 0 3.92 4.16 3.509 3.509 0 0 0 2.817-1.392v1.232h1.376v-8h-1.376v1.232a3.509 3.509 0 0 0-2.817-1.392 4 4 0 0 0-3.92 4.161zm6.849 0a2.733 2.733 0 1 1-2.72-2.9 2.731 2.731 0 0 1 2.72 2.901zm4.255 4h1.376v-12h-1.376v12zm6.048-11.121a.966.966 0 0 0-.96-.976.994.994 0 0 0-.992.976.983.983 0 0 0 .992.976.956.956 0 0 0 .96-.975zm-1.664 11.121h1.376v-8h-1.376v8zm3.76-4a4 4 0 0 0 3.92 4.16 3.512 3.512 0 0 0 2.817-1.392v1.232h1.376v-8h-1.376v1.232a3.512 3.512 0 0 0-2.817-1.392 4 4 0 0 0-3.92 4.161zm6.849 0a2.733 2.733 0 1 1-2.721-2.9 2.732 2.732 0 0 1 2.721 2.901zm4.255 4h1.376v-3.968c0-1.872 1.024-2.929 2.32-2.929a1.921 1.921 0 0 1 1.888 2.177v4.72h1.361v-4.928a2.949 2.949 0 0 0-3.025-3.233 2.829 2.829 0 0 0-2.544 1.392v-1.232h-1.376v8zm19.92-3.328l4.1-5.5v8.833h1.472v-11.365h-1.344l-4.225 5.665-4.225-5.665h-1.36v11.361h1.485v-8.833zm16.368-.672a4.185 4.185 0 1 0-4.176 4.16 4.106 4.106 0 0 0 4.176-4.159zm-6.961 0a2.778 2.778 0 1 1 2.785 2.88 2.751 2.751 0 0 1-2.789-2.879zm13.521 3.888V593.8a3.041 3.041 0 0 1-.976.16 1.153 1.153 0 0 1-1.329-1.36v-4.193h2.3v-1.264h-2.3v-2.224h-1.376v2.224h-1.7v1.264h1.7v4.369a2.252 2.252 0 0 0 2.449 2.448 3.828 3.828 0 0 0 1.232-.19zm3.823-11.009a.966.966 0 0 0-.96-.976.994.994 0 0 0-.992.976.983.983 0 0 0 .992.976.956.956 0 0 0 .96-.975zm-1.664 11.121h1.376v-8h-1.376v8zm12.113-4a4.185 4.185 0 1 0-4.177 4.16 4.106 4.106 0 0 0 4.18-4.159zm-6.961 0a2.778 2.778 0 1 1 2.784 2.88 2.751 2.751 0 0 1-2.784-2.879zm9.328 4h1.376v-3.968c0-1.872 1.024-2.929 2.32-2.929a1.921 1.921 0 0 1 1.889 2.177v4.72h1.36v-4.928a2.949 2.949 0 0 0-3.025-3.233 2.829 2.829 0 0 0-2.544 1.392v-1.232h-1.376v8zm9.568-3.792h4.08v-1.376h-4.08v1.376zm5.791 1.936a4.39 4.39 0 0 0 3.985 2.048c2.112 0 3.617-1.216 3.617-3.152 0-1.68-.961-2.64-2.641-3.281l-1.376-.528c-1.152-.432-1.712-.864-1.712-1.824a1.809 1.809 0 0 1 2.048-1.568 2.811 2.811 0 0 1 2.256 1.12l1.088-.96a4.143 4.143 0 0 0-3.312-1.552c-2.032 0-3.553 1.168-3.553 3.024 0 1.552.8 2.48 2.577 3.137l1.5.576a2.065 2.065 0 0 1 1.632 1.92 1.844 1.844 0 0 1-2.1 1.7 3.174 3.174 0 0 1-2.816-1.552zm14.065 1.744V593.8a3.041 3.041 0 0 1-.976.16 1.152 1.152 0 0 1-1.328-1.36v-4.193h2.3v-1.264h-2.3v-2.224h-1.377v2.224h-1.7v1.264h1.7v4.369a2.253 2.253 0 0 0 2.449 2.448 3.828 3.828 0 0 0 1.232-.19zm2.159.112h1.377v-3.968c0-1.872 1.1-2.753 2.112-2.753a2.011 2.011 0 0 1 .752.128v-1.424a2.851 2.851 0 0 0-.624-.064 2.38 2.38 0 0 0-2.24 1.632v-1.552h-1.377v8zm5.344-4a4.218 4.218 0 0 0 7.745 2.256l-1.088-.752a2.832 2.832 0 0 1-5.264-1.232h6.561a3.9 3.9 0 0 0 .016-.416 3.729 3.729 0 0 0-3.809-4.017 4.055 4.055 0 0 0-4.161 4.162zm4.109-2.945a2.394 2.394 0 0 1 2.448 2.1h-5.068a2.615 2.615 0 0 1 2.62-2.1zm10.432 6.833V593.8a3.041 3.041 0 0 1-.976.16 1.152 1.152 0 0 1-1.328-1.36v-4.193h2.3v-1.264h-2.3v-2.224h-1.376v2.224h-1.7v1.264h1.7v4.369a2.252 2.252 0 0 0 2.448 2.448 3.828 3.828 0 0 0 1.236-.19zm9.313-1.872l-1.2-.672a2.713 2.713 0 0 1-2.5 1.536 2.882 2.882 0 0 1 0-5.761 2.712 2.712 0 0 1 2.5 1.537l1.2-.673a4.145 4.145 0 0 0-3.7-2.144 4.161 4.161 0 1 0 0 8.321 4.145 4.145 0 0 0 3.704-2.143zm2.175 1.984h1.38v-3.968c0-1.872 1.024-2.929 2.32-2.929a1.921 1.921 0 0 1 1.888 2.177v4.72h1.36v-4.928a2.949 2.949 0 0 0-3.024-3.233 2.829 2.829 0 0 0-2.544 1.392v-5.232h-1.376v12zm22.816 0h1.329l3.1-11.361h-1.552l-2.384 8.865-3.281-9.057-3.264 9.057-2.385-8.865h-1.552l3.105 11.361h1.328l2.784-7.713zm13.744-4a4.185 4.185 0 1 0-4.176 4.16 4.106 4.106 0 0 0 4.18-4.159zm-6.961 0a2.778 2.778 0 1 1 2.785 2.88 2.751 2.751 0 0 1-2.781-2.879zm17.057 0a4.185 4.185 0 1 0-4.177 4.16 4.106 4.106 0 0 0 4.181-4.159zm-6.961 0a2.778 2.778 0 1 1 2.784 2.88 2.751 2.751 0 0 1-2.78-2.879zm9.328 4h1.376v-12h-1.376v12zm-907.892 24h1.376v-6.737h2.32v-1.264h-2.32v-1.472a1.152 1.152 0 0 1 1.328-1.36 3.223 3.223 0 0 1 .992.16v-1.216a3.637 3.637 0 0 0-1.248-.208 2.285 2.285 0 0 0-2.448 2.48v1.616h-1.7v1.264h1.7v6.737zm4.768-4a4.218 4.218 0 0 0 7.745 2.256l-1.088-.752a2.833 2.833 0 0 1-5.265-1.232h6.561a3.9 3.9 0 0 0 .02-.417 3.728 3.728 0 0 0-3.809-4.017 4.054 4.054 0 0 0-4.16 4.163zm4.113-2.945a2.394 2.394 0 0 1 2.448 2.1h-5.069a2.615 2.615 0 0 1 2.624-2.1zm5.583 2.945a4 4 0 0 0 3.921 4.16 3.509 3.509 0 0 0 2.816-1.392v1.232h1.376v-8h-1.372v1.232a3.509 3.509 0 0 0-2.816-1.392 4 4 0 0 0-3.921 4.161zm6.849 0a2.733 2.733 0 1 1-2.72-2.9 2.732 2.732 0 0 1 2.724 2.901zm8.592 3.888V617.8a3.043 3.043 0 0 1-.976.16 1.152 1.152 0 0 1-1.328-1.36v-4.193h2.3v-1.264h-2.3v-2.224h-1.373v2.224h-1.7v1.264h1.7v4.369a2.252 2.252 0 0 0 2.448 2.448 3.83 3.83 0 0 0 1.232-.19zm2.047-2.976c0 1.984 1.184 3.248 2.944 3.248a2.753 2.753 0 0 0 2.464-1.392v1.232h1.376v-8h-1.372v3.969c0 1.84-.976 2.928-2.224 2.928-1.1 0-1.808-.848-1.808-2.192v-4.705h-1.377v4.913zm9.776 3.088h1.376v-3.968c0-1.873 1.1-2.753 2.112-2.753a2.012 2.012 0 0 1 .752.128v-1.424a2.851 2.851 0 0 0-.624-.064 2.381 2.381 0 0 0-2.24 1.632v-1.552h-1.373v8zm5.344-4a4.218 4.218 0 0 0 7.745 2.256l-1.088-.752a2.833 2.833 0 0 1-5.265-1.232h6.565a3.9 3.9 0 0 0 .02-.417 3.728 3.728 0 0 0-3.809-4.017 4.054 4.054 0 0 0-4.165 4.163zm4.113-2.945a2.394 2.394 0 0 1 2.448 2.1h-5.069a2.616 2.616 0 0 1 2.624-2.1zm11.392 4.721c0-1.2-.752-1.968-2.112-2.416l-.864-.288c-.944-.3-1.232-.608-1.232-1.121a1.132 1.132 0 0 1 1.344-.928 2.162 2.162 0 0 1 1.7.832l.9-.864a3.1 3.1 0 0 0-2.56-1.152c-1.584 0-2.7.88-2.7 2.176a2.415 2.415 0 0 0 1.984 2.321l.784.256c1.04.336 1.424.72 1.424 1.28a1.218 1.218 0 0 1-1.408 1.088 2.147 2.147 0 0 1-2.048-1.264l-1.12.608a3.178 3.178 0 0 0 3.136 1.856c1.607.001 2.775-.815 2.775-2.383zm6.047-1.776a4 4 0 0 0 3.92 4.16 3.509 3.509 0 0 0 2.817-1.392v1.232h1.376v-8h-1.376v1.232a3.509 3.509 0 0 0-2.817-1.392 4 4 0 0 0-3.917 4.161zm6.849 0a2.733 2.733 0 1 1-2.721-2.9 2.732 2.732 0 0 1 2.724 2.901zm8.447.912c0 1.984 1.184 3.248 2.944 3.248a2.752 2.752 0 0 0 2.464-1.392v1.232h1.377v-8h-1.377v3.969c0 1.84-.976 2.928-2.224 2.928-1.1 0-1.808-.848-1.808-2.192v-4.705h-1.376v4.913zm9.776 3.088h1.376v-3.968c0-1.873 1.024-2.929 2.32-2.929a1.921 1.921 0 0 1 1.888 2.177v4.72H133v-4.928a2.949 2.949 0 0 0-3.025-3.233 2.829 2.829 0 0 0-2.544 1.392v-1.232h-1.381v8zm11.488-11.121a.966.966 0 0 0-.961-.976.994.994 0 0 0-.992.976.983.983 0 0 0 .992.976.957.957 0 0 0 .964-.975zm-1.665 11.121h1.377v-8h-1.377v8zm10.5 3.345h1.376v-11.345h-1.376v1.232a3.508 3.508 0 0 0-2.816-1.392 4.168 4.168 0 0 0 0 8.321 3.508 3.508 0 0 0 2.816-1.392v4.577zm.112-7.345a2.733 2.733 0 1 1-2.72-2.9 2.731 2.731 0 0 1 2.72 2.901zm4.143.912c0 1.984 1.184 3.248 2.944 3.248a2.753 2.753 0 0 0 2.465-1.392v1.232h1.376v-8h-1.376v3.969c0 1.84-.976 2.928-2.224 2.928-1.1 0-1.809-.848-1.809-2.192v-4.705h-1.376v4.913zm9.152-.912a4.218 4.218 0 0 0 7.745 2.256l-1.088-.752a2.833 2.833 0 0 1-5.265-1.232h6.561a3.9 3.9 0 0 0 .016-.416 3.728 3.728 0 0 0-3.809-4.017 4.054 4.054 0 0 0-4.16 4.162zm4.112-2.945a2.394 2.394 0 0 1 2.449 2.1h-5.073a2.615 2.615 0 0 1 2.624-2.1zm10.512 6.945h1.376v-4l4.336 4h1.857l-4.817-4.464 3.937-3.537h-1.825l-3.488 3.121v-7.121H174.4v12zm9.023 0h1.376v-3.968c0-1.873 1.024-2.929 2.32-2.929a1.921 1.921 0 0 1 1.888 2.177v4.72h1.36v-4.928a2.949 2.949 0 0 0-3.024-3.233 2.829 2.829 0 0 0-2.544 1.392v-1.232h-1.377v8zm11.489-11.121a.967.967 0 0 0-.961-.976.994.994 0 0 0-.992.976.983.983 0 0 0 .992.976.957.957 0 0 0 .961-.975zm-1.665 11.121h1.376v-8h-1.376v8zm8.721-.112V617.8a3.041 3.041 0 0 1-.976.16 1.153 1.153 0 0 1-1.329-1.36v-4.193h2.305v-1.264h-2.305v-2.224h-1.376v2.224h-1.7v1.264h1.7v4.369a2.252 2.252 0 0 0 2.449 2.448 3.828 3.828 0 0 0 1.232-.19zm6.927.112h1.376v-6.737h2.321v-1.264h-2.321v-1.472a1.153 1.153 0 0 1 1.329-1.36 3.222 3.222 0 0 1 .992.16v-1.216a3.636 3.636 0 0 0-1.248-.208 2.285 2.285 0 0 0-2.449 2.48v1.616h-1.7v1.264h1.7v6.737zm4.768-4a4 4 0 0 0 3.921 4.16 3.508 3.508 0 0 0 2.816-1.392v1.232h1.376v-8H220.4v1.232a3.508 3.508 0 0 0-2.816-1.392 4 4 0 0 0-3.92 4.161zm6.849 0a2.733 2.733 0 1 1-2.72-2.9 2.731 2.731 0 0 1 2.72 2.901zm5.631 2.768a3.509 3.509 0 0 0 2.817 1.392 4.168 4.168 0 0 0 0-8.321 3.509 3.509 0 0 0-2.817 1.392v-5.232h-1.376v12h1.376v-1.232zm5.329-2.768a2.726 2.726 0 1 1-2.72-2.9 2.731 2.731 0 0 1 2.72 2.901zm3.775 4h1.376v-3.968c0-1.873 1.1-2.753 2.112-2.753a2.011 2.011 0 0 1 .752.128v-1.424a2.851 2.851 0 0 0-.624-.064 2.38 2.38 0 0 0-2.24 1.632v-1.552h-1.376v8zm7.92-11.121a.966.966 0 0 0-.96-.976.994.994 0 0 0-.992.976.983.983 0 0 0 .992.976.956.956 0 0 0 .96-.975zm-1.668 11.122h1.376v-8H241.5v8zm11.649-1.984l-1.2-.672a2.713 2.713 0 0 1-2.5 1.536 2.882 2.882 0 0 1 0-5.761 2.712 2.712 0 0 1 2.5 1.537l1.2-.673a4.145 4.145 0 0 0-3.7-2.144 4.161 4.161 0 1 0 0 8.321 4.145 4.145 0 0 0 3.704-2.144zm6.943 1.984h1.376v-6.737h2.32v-1.264h-2.32v-1.472a1.152 1.152 0 0 1 1.328-1.36 3.222 3.222 0 0 1 .992.16v-1.216a3.636 3.636 0 0 0-1.248-.208 2.285 2.285 0 0 0-2.448 2.48v1.616h-1.7v1.264h1.7v6.737zm5.6 0h1.377v-3.968c0-1.873 1.1-2.753 2.112-2.753a2.011 2.011 0 0 1 .752.128v-1.424a2.851 2.851 0 0 0-.624-.064 2.38 2.38 0 0 0-2.24 1.632v-1.552H265.7v8zm13.7-4a4.185 4.185 0 1 0-4.177 4.16 4.107 4.107 0 0 0 4.178-4.16zm-6.961 0a2.778 2.778 0 1 1 2.784 2.88 2.751 2.751 0 0 1-2.783-2.88zm9.327 4h1.376v-3.968c0-1.808.913-2.929 2.209-2.929 1.04 0 1.568.9 1.568 2.193v4.7h1.376v-3.968c0-1.808.9-2.929 2.193-2.929 1.04 0 1.584.9 1.584 2.193v4.7h1.376v-4.912c0-1.953-1.056-3.249-2.8-3.249a2.769 2.769 0 0 0-2.625 1.712 2.515 2.515 0 0 0-2.464-1.712 2.692 2.692 0 0 0-2.417 1.392v-1.232h-1.376v8zm22.929-.112V617.8a3.043 3.043 0 0 1-.977.16 1.152 1.152 0 0 1-1.328-1.36v-4.193h2.305v-1.264h-2.305v-2.224h-1.376v2.224h-1.7v1.264h1.7v4.369a2.252 2.252 0 0 0 2.448 2.448 3.83 3.83 0 0 0 1.234-.19zm2.159.112h1.376v-3.968c0-1.873 1.024-2.929 2.32-2.929a1.921 1.921 0 0 1 1.889 2.177v4.72h1.36v-4.928a2.949 2.949 0 0 0-3.024-3.233 2.829 2.829 0 0 0-2.545 1.392v-5.232h-1.376v12zm9.2-4a4.218 4.218 0 0 0 7.745 2.256l-1.088-.752a2.833 2.833 0 0 1-5.265-1.232H324a3.9 3.9 0 0 0 .016-.416 3.728 3.728 0 0 0-3.809-4.017 4.054 4.054 0 0 0-4.16 4.161zm4.112-2.945a2.4 2.4 0 0 1 2.449 2.1h-5.073a2.615 2.615 0 0 1 2.625-2.101zm17.009 6.945h1.216l2.72-8h-1.456l-1.936 5.841-2-5.841h-1.056l-2 5.841-1.936-5.841h-1.44l2.72 8h1.216l1.984-5.76zm13.52-4a4.185 4.185 0 1 0-4.177 4.16 4.107 4.107 0 0 0 4.178-4.16zm-6.961 0a2.778 2.778 0 1 1 2.784 2.88 2.751 2.751 0 0 1-2.783-2.88zm9.327 4h1.376v-3.968c0-1.873 1.105-2.753 2.113-2.753a2.011 2.011 0 0 1 .752.128v-1.424a2.851 2.851 0 0 0-.624-.064 2.381 2.381 0 0 0-2.241 1.632v-1.552h-1.376v8zm6.256 0h1.376v-12h-1.375v12zm3.76-4a4 4 0 0 0 3.921 4.16 3.508 3.508 0 0 0 2.816-1.392v1.232h1.376v-12h-1.376v5.232a3.508 3.508 0 0 0-2.816-1.392 4 4 0 0 0-3.92 4.16zm6.849 0a2.733 2.733 0 1 1-2.72-2.9 2.731 2.731 0 0 1 2.721 2.9zm4 .208H378v-1.376h-4.08v1.376zm6.832 3.792h1.376v-3.968c0-1.873 1.1-2.753 2.112-2.753a2.011 2.011 0 0 1 .752.128v-1.424a2.851 2.851 0 0 0-.624-.064 2.38 2.38 0 0 0-2.24 1.632v-1.552h-1.376v8zm5.344-4a4.218 4.218 0 0 0 7.745 2.256l-1.088-.752a2.833 2.833 0 0 1-5.265-1.232h6.561a3.9 3.9 0 0 0 .016-.416 3.728 3.728 0 0 0-3.809-4.017 4.054 4.054 0 0 0-4.16 4.161zm4.112-2.945a2.4 2.4 0 0 1 2.449 2.1h-5.073a2.615 2.615 0 0 1 2.624-2.101zm6.208 6.945h1.376v-3.968c0-1.873 1.024-2.929 2.32-2.929a1.921 1.921 0 0 1 1.89 2.177v4.72h1.36v-4.928a2.949 2.949 0 0 0-3.025-3.233 2.829 2.829 0 0 0-2.544 1.392v-1.232h-1.376v8zm17.553-4a4.185 4.185 0 1 0-4.177 4.16 4.107 4.107 0 0 0 4.177-4.16zm-6.961 0a2.778 2.778 0 1 1 2.784 2.88 2.751 2.751 0 0 1-2.784-2.88zm16.08 4h1.214l2.72-8h-1.456l-1.937 5.841-2-5.841h-1.056l-2 5.841-1.937-5.841H415.2l2.721 8h1.216l1.984-5.76zm5.823 0h1.376v-3.968c0-1.873 1.024-2.929 2.321-2.929a1.921 1.921 0 0 1 1.888 2.177v4.72h1.36v-4.928a2.949 2.949 0 0 0-3.024-3.233 2.831 2.831 0 0 0-2.545 1.392v-1.232h-1.376v8zm9.2-4a4.218 4.218 0 0 0 7.745 2.256l-1.088-.752a2.833 2.833 0 0 1-5.265-1.232h6.561a3.9 3.9 0 0 0 .016-.416 3.728 3.728 0 0 0-3.809-4.017 4.054 4.054 0 0 0-4.16 4.161zm4.112-2.945a2.394 2.394 0 0 1 2.449 2.1h-5.07a2.615 2.615 0 0 1 2.621-2.101zm5.584 2.945a4 4 0 0 0 3.92 4.16 3.51 3.51 0 0 0 2.817-1.392v1.232h1.376v-12h-1.376v5.232a3.51 3.51 0 0 0-2.817-1.392 4 4 0 0 0-3.92 4.16zm6.849 0a2.733 2.733 0 1 1-2.721-2.9 2.732 2.732 0 0 1 2.721 2.9zm14.351.672l4.1-5.5v8.833h1.472v-11.366h-1.347l-4.225 5.665-4.224-5.665h-1.36v11.361h1.488v-8.833zm8.015-.672a4 4 0 0 0 3.921 4.16 3.508 3.508 0 0 0 2.816-1.392v1.232h1.376v-8h-1.376v1.232a3.508 3.508 0 0 0-2.816-1.392 4 4 0 0 0-3.921 4.16zm6.849 0a2.733 2.733 0 1 1-2.72-2.9 2.731 2.731 0 0 1 2.72 2.9zm4.255 4h1.376v-3.968c0-1.873 1.105-2.753 2.113-2.753a2.011 2.011 0 0 1 .752.128v-1.424a2.851 2.851 0 0 0-.624-.064 2.381 2.381 0 0 0-2.241 1.635v-1.552h-1.376v8zm7.92-11.121a.966.966 0 0 0-.96-.976.994.994 0 0 0-.992.976.983.983 0 0 0 .992.976.956.956 0 0 0 .96-.976zm-1.664 11.121h1.376v-8h-1.376v8zm12.113-4a4.185 4.185 0 1 0-4.176 4.16 4.106 4.106 0 0 0 4.176-4.16zm-6.961 0a2.778 2.778 0 1 1 2.785 2.88 2.751 2.751 0 0 1-2.785-2.88zm13.84 4h4.064c2.3 0 3.809-1.424 3.809-3.312a2.709 2.709 0 0 0-1.968-2.721 2.575 2.575 0 0 0 1.216-2.32 3.111 3.111 0 0 0-3.393-3.008h-3.728v11.361zm1.488-6.481v-3.536h2.24a1.787 1.787 0 0 1 1.937 1.776 1.749 1.749 0 0 1-1.937 1.76h-2.24zm0 5.137v-3.856h2.656c1.5 0 2.273.832 2.273 1.936 0 1.12-.768 1.92-2.289 1.92h-2.64zm8.14-2.656a4.218 4.218 0 0 0 7.745 2.256l-1.088-.752a2.833 2.833 0 0 1-5.265-1.232h6.561a3.9 3.9 0 0 0 .016-.416 3.729 3.729 0 0 0-3.809-4.017 4.054 4.054 0 0 0-4.16 4.161zm4.112-2.945a2.4 2.4 0 0 1 2.449 2.1h-5.073a2.615 2.615 0 0 1 2.628-2.101zm6.208 6.945h1.38v-12h-1.376v12zm4.383 0h1.377v-12h-1.377v12zm4.272-3.088a2.921 2.921 0 0 0 2.945 3.248 2.752 2.752 0 0 0 2.464-1.392v1.232h1.376v-8h-1.376v3.969c0 1.84-.976 2.928-2.224 2.928-1.1 0-1.808-.848-1.808-2.192v-4.705h-1.377v4.913zm17.041 1.1l-1.2-.672a2.712 2.712 0 0 1-2.5 1.536 2.882 2.882 0 0 1 0-5.761 2.711 2.711 0 0 1 2.5 1.537l1.2-.673a4.143 4.143 0 0 0-3.7-2.144 4.161 4.161 0 1 0 0 8.321 4.143 4.143 0 0 0 3.704-2.14zm9.44 0l-1.2-.672a2.712 2.712 0 0 1-2.5 1.536 2.882 2.882 0 0 1 0-5.761 2.711 2.711 0 0 1 2.5 1.537l1.2-.673a4.143 4.143 0 0 0-3.7-2.144 4.161 4.161 0 1 0 0 8.321 4.143 4.143 0 0 0 3.704-2.14zm3.839-9.137a.966.966 0 0 0-.96-.976.994.994 0 0 0-.992.976.983.983 0 0 0 .992.976.956.956 0 0 0 .965-.972zm-1.664 11.121h1.376v-8h-1.376v8zm8.688 0h1.381v-3.968c0-1.808.912-2.929 2.208-2.929 1.04 0 1.568.9 1.568 2.193v4.7h1.376v-3.968c0-1.808.9-2.929 2.193-2.929 1.04 0 1.584.9 1.584 2.193v4.7H591v-4.912c0-1.953-1.056-3.249-2.8-3.249a2.771 2.771 0 0 0-2.625 1.712 2.515 2.515 0 0 0-2.464-1.712 2.689 2.689 0 0 0-2.416 1.392v-1.232h-1.376v8zm16.224-11.121a.966.966 0 0 0-.96-.976.994.994 0 0 0-.993.976.984.984 0 0 0 .993.976.956.956 0 0 0 .964-.972zm-1.665 11.121h1.377v-8h-1.377v8zm4.384 0h1.377v-12h-1.377v12zm4.384 0h1.376v-12h-1.372v12zm6.1-.352a1.369 1.369 0 0 0 .225-.72 1.185 1.185 0 1 0-2.369 0 1.191 1.191 0 0 0 .656 1.072l-1.072 2.289h.914zm14.353-1.632l-1.2-.672a2.712 2.712 0 0 1-2.5 1.536 2.882 2.882 0 0 1 0-5.761 2.711 2.711 0 0 1 2.5 1.537l1.2-.673a4.143 4.143 0 0 0-3.7-2.144 4.161 4.161 0 1 0 0 8.321 4.143 4.143 0 0 0 3.701-2.14zm2.175 1.984h1.376v-3.968c0-1.873 1.1-2.753 2.112-2.753a2.011 2.011 0 0 1 .752.128v-1.424a2.851 2.851 0 0 0-.624-.064 2.38 2.38 0 0 0-2.24 1.632v-1.552h-1.376v8zm5.344-4a4.218 4.218 0 0 0 7.745 2.256l-1.088-.752a2.833 2.833 0 0 1-5.265-1.232h6.561a3.9 3.9 0 0 0 .016-.416 3.728 3.728 0 0 0-3.809-4.017 4.054 4.054 0 0 0-4.16 4.165zm4.112-2.945a2.394 2.394 0 0 1 2.449 2.1h-5.073a2.615 2.615 0 0 1 2.624-2.097zm5.584 2.945a4 4 0 0 0 3.92 4.16 3.51 3.51 0 0 0 2.817-1.392v1.232h1.376v-8h-1.376v1.232a3.51 3.51 0 0 0-2.817-1.392 4 4 0 0 0-3.92 4.164zm6.849 0a2.733 2.733 0 1 1-2.721-2.9 2.732 2.732 0 0 1 2.721 2.904zm8.591 3.888v-1.23a3.041 3.041 0 0 1-.976.16 1.152 1.152 0 0 1-1.328-1.36v-4.193h2.3v-1.264h-2.3v-2.224h-1.376v2.224h-1.7v1.264h1.7v4.369a2.252 2.252 0 0 0 2.448 2.448 3.828 3.828 0 0 0 1.232-.19zm3.824-11.009a.966.966 0 0 0-.96-.976.994.994 0 0 0-.992.976.983.983 0 0 0 .992.976.956.956 0 0 0 .96-.972zm-1.664 11.121h1.376v-8h-1.376v8zm4.383 0h1.377v-3.968c0-1.873 1.024-2.929 2.32-2.929a1.921 1.921 0 0 1 1.888 2.177v4.72h1.36v-4.928a2.949 2.949 0 0 0-3.024-3.233 2.829 2.829 0 0 0-2.544 1.392v-1.232H662.3v8zm17.281-.464v-7.537H678.2v1.232a3.4 3.4 0 0 0-2.784-1.392 4.076 4.076 0 0 0 0 8.145 3.416 3.416 0 0 0 2.784-1.408v.912a2.558 2.558 0 0 1-2.672 2.769 3.422 3.422 0 0 1-2.8-1.345l-.96.961a4.752 4.752 0 0 0 3.777 1.632 3.7 3.7 0 0 0 4.033-3.965zm-6.673-3.632a2.706 2.706 0 1 1 2.705 2.8 2.667 2.667 0 0 1-2.705-2.796zm13.968 4.1h1.376v-3.968c0-1.873 1.024-2.929 2.32-2.929a1.921 1.921 0 0 1 1.889 2.177v4.72h1.36v-4.928a2.949 2.949 0 0 0-3.025-3.233 2.829 2.829 0 0 0-2.544 1.392v-1.232h-1.376v8zm9.2-4a4 4 0 0 0 3.92 4.16 3.512 3.512 0 0 0 2.817-1.392v1.232h1.376v-8h-1.376v1.232a3.512 3.512 0 0 0-2.817-1.392 4 4 0 0 0-3.92 4.16zm6.849 0a2.733 2.733 0 1 1-2.721-2.9 2.732 2.732 0 0 1 2.721 2.9zm8.591 3.888V617.8a3.041 3.041 0 0 1-.976.16 1.152 1.152 0 0 1-1.328-1.36v-4.193h2.3v-1.264h-2.3v-2.224h-1.376v2.224h-1.7v1.264h1.7v4.369a2.252 2.252 0 0 0 2.448 2.448 3.828 3.828 0 0 0 1.232-.19zm2.047-2.976a2.921 2.921 0 0 0 2.945 3.248 2.752 2.752 0 0 0 2.464-1.392v1.232h1.376v-8h-1.376v3.969c0 1.84-.976 2.928-2.224 2.928-1.1 0-1.808-.848-1.808-2.192v-4.705h-1.377v4.913zm9.776 3.088h1.377v-3.968c0-1.873 1.1-2.753 2.112-2.753a2.011 2.011 0 0 1 .752.128v-1.424a2.851 2.851 0 0 0-.624-.064 2.38 2.38 0 0 0-2.24 1.632v-1.552h-1.377v8zm5.36-4a4 4 0 0 0 3.921 4.16 3.508 3.508 0 0 0 2.816-1.392v1.232h1.376v-8h-1.376v1.232a3.508 3.508 0 0 0-2.816-1.392 4 4 0 0 0-3.917 4.16zm6.849 0a2.733 2.733 0 1 1-2.72-2.9 2.731 2.731 0 0 1 2.72 2.9zm4.255 4h1.376v-12H739.8v12zm4.128-3.792h4.081v-1.376h-4.081v1.376zm12.017 1.568c0-1.2-.752-1.968-2.113-2.416l-.864-.288c-.944-.3-1.232-.608-1.232-1.121a1.132 1.132 0 0 1 1.344-.928 2.161 2.161 0 0 1 1.7.832l.9-.864a3.1 3.1 0 0 0-2.561-1.152c-1.584 0-2.7.88-2.7 2.176a2.415 2.415 0 0 0 1.984 2.321l.784.256c1.04.336 1.424.72 1.424 1.28a1.218 1.218 0 0 1-1.408 1.088 2.147 2.147 0 0 1-2.048-1.264l-1.12.608a3.178 3.178 0 0 0 3.136 1.856c1.605 0 2.774-.816 2.774-2.384zm6.607 2.112V617.8a3.041 3.041 0 0 1-.976.16 1.152 1.152 0 0 1-1.328-1.36v-4.193h2.3v-1.264h-2.3v-2.224h-1.376v2.224h-1.7v1.264h1.7v4.369a2.252 2.252 0 0 0 2.448 2.448 3.828 3.828 0 0 0 1.232-.19zm2.16.112h1.376v-3.968c0-1.873 1.1-2.753 2.112-2.753a2.011 2.011 0 0 1 .752.128v-1.424a2.851 2.851 0 0 0-.624-.064 2.38 2.38 0 0 0-2.24 1.632v-1.552h-1.376v8zm5.344-4a4.218 4.218 0 0 0 7.744 2.254l-1.088-.752a2.833 2.833 0 0 1-5.265-1.232h6.561a3.9 3.9 0 0 0 .016-.416 3.728 3.728 0 0 0-3.809-4.017 4.054 4.054 0 0 0-4.159 4.163zm4.112-2.945a2.394 2.394 0 0 1 2.449 2.1h-5.073a2.615 2.615 0 0 1 2.624-2.101zm10.433 6.833V617.8a3.041 3.041 0 0 1-.976.16 1.152 1.152 0 0 1-1.329-1.36v-4.193h2.3v-1.264h-2.3v-2.224h-1.376v2.224h-1.7v1.264h1.7v4.369a2.252 2.252 0 0 0 2.448 2.448 3.83 3.83 0 0 0 1.232-.19zm9.312-1.872l-1.2-.672a2.712 2.712 0 0 1-2.5 1.536 2.882 2.882 0 0 1 0-5.761 2.711 2.711 0 0 1 2.5 1.537l1.2-.673a4.143 4.143 0 0 0-3.7-2.144 4.161 4.161 0 1 0 0 8.321 4.143 4.143 0 0 0 3.7-2.144zm2.175 1.984h1.376v-3.968c0-1.873 1.024-2.929 2.32-2.929a1.921 1.921 0 0 1 1.889 2.177v4.72h1.36v-4.928a2.949 2.949 0 0 0-3.024-3.233 2.829 2.829 0 0 0-2.545 1.392v-5.232h-1.376v12zm14.128 3.345h1.376v-4.577a3.508 3.508 0 0 0 2.816 1.392 4.168 4.168 0 0 0 0-8.321 3.508 3.508 0 0 0-2.816 1.392v-1.232h-1.376v11.346zm6.705-7.345a2.726 2.726 0 1 1-2.721-2.9 2.732 2.732 0 0 1 2.721 2.9zm5.455-7.121a.966.966 0 0 0-.96-.976 1 1 0 0 0-.993.976.984.984 0 0 0 .993.976.956.956 0 0 0 .96-.976zm-1.664 11.121h1.376v-8h-1.376v8zm3.759-4a4.218 4.218 0 0 0 7.745 2.256l-1.088-.752a2.833 2.833 0 0 1-5.265-1.232h6.561a3.9 3.9 0 0 0 .016-.418 3.728 3.728 0 0 0-3.808-4.017 4.055 4.055 0 0 0-4.161 4.163zm4.113-2.945a2.394 2.394 0 0 1 2.448 2.1h-5.072a2.615 2.615 0 0 1 2.624-2.101zm13.472 4.961l-1.2-.672a2.712 2.712 0 0 1-2.5 1.536 2.882 2.882 0 0 1 0-5.761 2.711 2.711 0 0 1 2.5 1.537l1.2-.673a4.143 4.143 0 0 0-3.7-2.144 4.161 4.161 0 1 0 0 8.321 4.143 4.143 0 0 0 3.7-2.144zm1.551-2.016a4.218 4.218 0 0 0 7.745 2.256l-1.088-.752a2.833 2.833 0 0 1-5.264-1.232h6.561a3.9 3.9 0 0 0 .016-.416 3.728 3.728 0 0 0-3.808-4.017 4.054 4.054 0 0 0-4.162 4.161zm4.113-2.945a2.394 2.394 0 0 1 2.448 2.1H845.1a2.616 2.616 0 0 1 2.62-2.101zm11.392 4.721c0-1.2-.752-1.968-2.113-2.416l-.864-.288c-.944-.3-1.232-.608-1.232-1.121a1.132 1.132 0 0 1 1.344-.928 2.163 2.163 0 0 1 1.7.832l.9-.864a3.1 3.1 0 0 0-2.561-1.152c-1.584 0-2.7.88-2.7 2.176a2.415 2.415 0 0 0 1.984 2.321l.784.256c1.04.336 1.425.72 1.425 1.28a1.219 1.219 0 0 1-1.409 1.088 2.147 2.147 0 0 1-2.048-1.264l-1.12.608a3.178 3.178 0 0 0 3.136 1.856c1.606 0 2.774-.816 2.774-2.384zm10.735 2.112V617.8a3.041 3.041 0 0 1-.976.16 1.152 1.152 0 0 1-1.328-1.36v-4.193h2.3v-1.264h-2.3v-2.224h-1.376v2.224h-1.7v1.264h1.7v4.369a2.252 2.252 0 0 0 2.448 2.448 3.828 3.828 0 0 0 1.232-.19zm2.16.112h1.376v-3.968c0-1.873 1.024-2.929 2.32-2.929a1.921 1.921 0 0 1 1.888 2.177v4.72h1.361v-4.928a2.949 2.949 0 0 0-3.025-3.233 2.829 2.829 0 0 0-2.544 1.392v-5.232h-1.376v12zm9.2-4a4 4 0 0 0 3.921 4.16 3.508 3.508 0 0 0 2.816-1.392v1.232h1.377v-8h-1.377v1.232a3.508 3.508 0 0 0-2.816-1.392 4 4 0 0 0-3.922 4.16zm6.849 0a2.733 2.733 0 1 1-2.72-2.9 2.731 2.731 0 0 1 2.719 2.9zm8.592 3.888V617.8a3.041 3.041 0 0 1-.976.16 1.152 1.152 0 0 1-1.328-1.36v-4.193h2.3v-1.264h-2.3v-2.224h-1.377v2.224h-1.7v1.264h1.7v4.369a2.253 2.253 0 0 0 2.449 2.448 3.828 3.828 0 0 0 1.231-.19zm6.463 3.457h1.376v-4.577a3.51 3.51 0 0 0 2.817 1.392 4.168 4.168 0 0 0 0-8.321 3.51 3.51 0 0 0-2.817 1.392v-1.232h-1.377v11.346zm6.705-7.345a2.726 2.726 0 1 1-2.72-2.9 2.731 2.731 0 0 1 2.719 2.9zm3.679.912c0 1.984 1.184 3.248 2.944 3.248a2.753 2.753 0 0 0 2.465-1.392v1.232h1.376v-8h-1.38v3.969c0 1.84-.976 2.928-2.224 2.928-1.105 0-1.809-.848-1.809-2.192v-4.705h-1.376v4.913zm14.961.864c0-1.2-.752-1.968-2.113-2.416l-.864-.288c-.944-.3-1.232-.608-1.232-1.121a1.132 1.132 0 0 1 1.344-.928 2.165 2.165 0 0 1 1.7.832l.9-.864a3.1 3.1 0 0 0-2.561-1.152c-1.584 0-2.7.88-2.7 2.176a2.415 2.415 0 0 0 1.984 2.321l.784.256c1.04.336 1.425.72 1.425 1.28a1.219 1.219 0 0 1-1.409 1.088 2.147 2.147 0 0 1-2.048-1.264l-1.12.608a3.178 3.178 0 0 0 3.136 1.856c1.605 0 2.773-.816 2.773-2.384zm2.367 2.224h1.377v-3.968c0-1.873 1.024-2.929 2.32-2.929a1.921 1.921 0 0 1 1.889 2.177v4.72h1.36v-4.928a2.949 2.949 0 0 0-3.024-3.233 2.829 2.829 0 0 0-2.545 1.392v-5.232h-1.376v12zm-894.8 23.888V641.8a3.043 3.043 0 0 1-.976.16 1.152 1.152 0 0 1-1.328-1.36v-4.193h2.3v-1.264h-2.3v-2.224h-1.38v2.224h-1.7v1.264h1.7v4.369a2.252 2.252 0 0 0 2.448 2.448 3.83 3.83 0 0 0 1.232-.19zm2.159.112h1.376v-3.968c0-1.873 1.024-2.929 2.32-2.929a1.921 1.921 0 0 1 1.888 2.177v4.72h1.36v-4.928a2.949 2.949 0 0 0-3.024-3.233 2.829 2.829 0 0 0-2.544 1.392v-5.232h-1.379v12zm9.2-4a4.218 4.218 0 0 0 7.745 2.256l-1.088-.752a2.833 2.833 0 0 1-5.265-1.232h6.561a3.9 3.9 0 0 0 .013-.418 3.728 3.728 0 0 0-3.809-4.017 4.054 4.054 0 0 0-4.161 4.163zm4.113-2.945a2.394 2.394 0 0 1 2.448 2.1h-5.076a2.615 2.615 0 0 1 2.624-2.101zm11.887 5.713a3.509 3.509 0 0 0 2.816 1.392 4.168 4.168 0 0 0 0-8.321 3.509 3.509 0 0 0-2.816 1.392v-5.232H62v12h1.376v-1.232zm5.329-2.768a2.726 2.726 0 1 1-2.72-2.9 2.732 2.732 0 0 1 2.716 2.9zm11.5 0a4.185 4.185 0 1 0-4.177 4.16 4.106 4.106 0 0 0 4.177-4.16zm-6.961 0a2.778 2.778 0 1 1 2.784 2.88 2.751 2.751 0 0 1-2.784-2.88zm9.216.912c0 1.984 1.184 3.248 2.945 3.248a2.753 2.753 0 0 0 2.464-1.392v1.232h1.376v-8h-1.376v3.969c0 1.84-.976 2.928-2.224 2.928-1.1 0-1.808-.848-1.808-2.192v-4.705h-1.377v4.913zm9.776 3.088h1.376v-3.968c0-1.873 1.024-2.929 2.32-2.929a1.921 1.921 0 0 1 1.888 2.177v4.72h1.36v-4.928a2.949 2.949 0 0 0-3.025-3.233 2.829 2.829 0 0 0-2.544 1.392v-1.232h-1.375v8zm9.2-4a4 4 0 0 0 3.921 4.16 3.508 3.508 0 0 0 2.816-1.392v1.232h1.377v-12h-1.377v5.232a3.508 3.508 0 0 0-2.816-1.392 4 4 0 0 0-3.922 4.16zm6.849 0a2.733 2.733 0 1 1-2.72-2.9 2.731 2.731 0 0 1 2.719 2.9zm3.631 0a4 4 0 0 0 3.921 4.16 3.508 3.508 0 0 0 2.816-1.392v1.232h1.376v-8h-1.376v1.232a3.508 3.508 0 0 0-2.816-1.392 4 4 0 0 0-3.922 4.16zm6.849 0a2.733 2.733 0 1 1-2.72-2.9 2.731 2.731 0 0 1 2.719 2.9zm4.255 4h1.374v-3.968c0-1.873 1.105-2.753 2.113-2.753a2.011 2.011 0 0 1 .752.128v-1.424a2.851 2.851 0 0 0-.624-.064 2.381 2.381 0 0 0-2.241 1.635v-1.552h-1.376v8zm7.92-11.121a.966.966 0 0 0-.96-.976.994.994 0 0 0-.992.976.983.983 0 0 0 .992.976.956.956 0 0 0 .959-.976zm-1.664 11.121h1.376v-8h-1.376v8zm3.76-4a4.218 4.218 0 0 0 7.745 2.256l-1.088-.752a2.833 2.833 0 0 1-5.265-1.232h6.561a3.9 3.9 0 0 0 .015-.418 3.728 3.728 0 0 0-3.809-4.017 4.054 4.054 0 0 0-4.16 4.163zm4.112-2.945a2.394 2.394 0 0 1 2.449 2.1h-5.073a2.615 2.615 0 0 1 2.623-2.101zm11.393 4.721c0-1.2-.752-1.968-2.113-2.416l-.864-.288c-.944-.3-1.232-.608-1.232-1.121a1.132 1.132 0 0 1 1.344-.928 2.161 2.161 0 0 1 1.7.832l.9-.864a3.1 3.1 0 0 0-2.561-1.152c-1.584 0-2.7.88-2.7 2.176a2.415 2.415 0 0 0 1.984 2.321l.784.256c1.04.336 1.424.72 1.424 1.28a1.218 1.218 0 0 1-1.408 1.088 2.147 2.147 0 0 1-2.048-1.264l-1.12.608a3.178 3.178 0 0 0 3.136 1.856c1.604 0 2.773-.816 2.773-2.384zm14.4-1.776a4.185 4.185 0 1 0-4.177 4.16 4.107 4.107 0 0 0 4.176-4.16zm-6.961 0a2.778 2.778 0 1 1 2.784 2.88 2.751 2.751 0 0 1-2.785-2.88zm9.872 4h1.376v-6.737h2.32v-1.264h-2.32v-1.472a1.152 1.152 0 0 1 1.328-1.36 3.222 3.222 0 0 1 .992.16v-1.216a3.636 3.636 0 0 0-1.248-.208 2.285 2.285 0 0 0-2.448 2.48v1.616h-1.7v1.264h1.7v6.737zm14.672-2.224c0-1.2-.752-1.968-2.112-2.416l-.864-.288c-.945-.3-1.233-.608-1.233-1.121a1.133 1.133 0 0 1 1.345-.928 2.161 2.161 0 0 1 1.7.832l.9-.864a3.1 3.1 0 0 0-2.56-1.152c-1.585 0-2.705.88-2.705 2.176a2.414 2.414 0 0 0 1.985 2.321l.784.256c1.04.336 1.424.72 1.424 1.28a1.218 1.218 0 0 1-1.408 1.088 2.148 2.148 0 0 1-2.049-1.264l-1.12.608a3.178 3.178 0 0 0 3.137 1.856c1.607 0 2.775-.816 2.775-2.384zm6.608 2.112V641.8a3.041 3.041 0 0 1-.976.16 1.153 1.153 0 0 1-1.329-1.36v-4.193h2.305v-1.264h-2.305v-2.224h-1.376v2.224h-1.7v1.264h1.7v4.369a2.252 2.252 0 0 0 2.449 2.448 3.828 3.828 0 0 0 1.231-.19zm4.287 3.457l5.249-11.346h-1.536l-2.738 6.065-2.753-6.065h-1.52l3.5 7.585-1.744 3.761h1.536zm7.024-3.345h1.376v-12h-1.376v12zm3.76-4a4.218 4.218 0 0 0 7.745 2.256l-1.088-.752a2.833 2.833 0 0 1-5.265-1.232h6.561a3.9 3.9 0 0 0 .016-.416 3.728 3.728 0 0 0-3.809-4.017 4.054 4.054 0 0 0-4.161 4.161zm4.112-2.945a2.394 2.394 0 0 1 2.449 2.1h-5.07a2.615 2.615 0 0 1 2.62-2.101zm9.888 2.945a4 4 0 0 0 3.92 4.16 3.512 3.512 0 0 0 2.817-1.392v1.232h1.376v-8h-1.376v1.232a3.512 3.512 0 0 0-2.817-1.392 4 4 0 0 0-3.921 4.16zm6.849 0a2.733 2.733 0 1 1-2.721-2.9 2.732 2.732 0 0 1 2.72 2.9zm4.254 4h1.377v-3.968c0-1.873 1.024-2.929 2.32-2.929a1.921 1.921 0 0 1 1.888 2.177v4.72h1.36v-4.928a2.949 2.949 0 0 0-3.024-3.233 2.829 2.829 0 0 0-2.544 1.392v-1.232h-1.377v8zm9.2-4a4 4 0 0 0 3.921 4.16 3.508 3.508 0 0 0 2.816-1.392v1.232h1.376v-12h-1.376v5.232a3.508 3.508 0 0 0-2.816-1.392 4 4 0 0 0-3.922 4.16zm6.849 0a2.733 2.733 0 1 1-2.72-2.9 2.731 2.731 0 0 1 2.719 2.9zm15.824 2.016l-1.2-.672a2.712 2.712 0 0 1-2.5 1.536 2.882 2.882 0 0 1 0-5.761 2.711 2.711 0 0 1 2.5 1.537l1.2-.673a4.143 4.143 0 0 0-3.7-2.144 4.161 4.161 0 1 0 0 8.321 4.143 4.143 0 0 0 3.699-2.144zm9.9-2.016a4.185 4.185 0 1 0-4.177 4.16 4.106 4.106 0 0 0 4.18-4.16zm-6.961 0a2.778 2.778 0 1 1 2.784 2.88 2.751 2.751 0 0 1-2.781-2.88zm9.328 4h1.376v-3.968c0-1.808.912-2.929 2.208-2.929 1.04 0 1.568.9 1.568 2.193v4.7h1.376v-3.968c0-1.808.9-2.929 2.193-2.929 1.04 0 1.584.9 1.584 2.193v4.7h1.376v-4.912c0-1.953-1.056-3.249-2.8-3.249a2.77 2.77 0 0 0-2.625 1.712 2.515 2.515 0 0 0-2.464-1.712 2.689 2.689 0 0 0-2.416 1.392v-1.232h-1.376v8zm15.136 0h1.376v-6.737h2.32v-1.264h-2.32v-1.472a1.152 1.152 0 0 1 1.328-1.36 3.222 3.222 0 0 1 .992.16v-1.216a3.636 3.636 0 0 0-1.248-.208 2.285 2.285 0 0 0-2.448 2.48v1.616h-1.7v1.264h1.7v6.737zm13.121-4a4.185 4.185 0 1 0-4.177 4.16 4.107 4.107 0 0 0 4.18-4.16zm-6.961 0a2.778 2.778 0 1 1 2.784 2.88 2.751 2.751 0 0 1-2.781-2.88zm9.327 4h1.377v-3.968c0-1.873 1.1-2.753 2.112-2.753a2.011 2.011 0 0 1 .752.128v-1.424a2.851 2.851 0 0 0-.624-.064 2.38 2.38 0 0 0-2.24 1.632v-1.552h-1.377v8zm10.593-.112V641.8a3.041 3.041 0 0 1-.976.16 1.152 1.152 0 0 1-1.328-1.36v-4.193h2.3v-1.264h-2.3v-2.224h-1.374v2.224h-1.7v1.264h1.7v4.369a2.253 2.253 0 0 0 2.449 2.448 3.828 3.828 0 0 0 1.232-.19zm4.064-.96a1.185 1.185 0 1 0-1.185 1.2 1.206 1.206 0 0 0 1.188-1.2z"/><path id="stretch_your_limits" data-name="stretch your limits" class="cls-1" d="M38.051 551.831c4.945 0 8.341-2.967 8.374-7.22.033-3.528-2.176-5.77-5.572-6.99l-1.648-.593c-2.473-.89-3.627-1.451-3.627-2.7 0-1.219 1.418-1.78 2.835-1.78a5.206 5.206 0 0 1 4.055 1.945l3.429-3.626a9.767 9.767 0 0 0-7.55-3.231c-4.682 0-8.078 2.67-8.078 7.22 0 3.2 2.11 5.473 5.9 6.759l1.648.56c2.341.792 3.264 1.616 3.264 2.8 0 1.121-1.088 1.945-2.835 1.945a6.123 6.123 0 0 1-4.847-2.671l-4.022 3.4a10.263 10.263 0 0 0 8.674 4.182zm17.888-.395h5.275v-18.4h6.034v-5.012H49.972v5.012h5.968v18.4zm16.5 0h5.242v-9.66h.857l7.781 9.66h6.3l-8.276-10.32c2.967-1.055 4.583-3 4.583-6.033a6.911 6.911 0 0 0-7.253-7.056h-9.23v23.409zm5.242-14.111v-4.484h3.363c1.55 0 2.671.824 2.671 2.242 0 1.351-1.121 2.242-2.671 2.242h-3.359zm18.583 14.111h14.837v-5.012h-9.594v-4.187h7.616v-5.011h-7.616v-4.187h9.594v-5.012H96.268v23.409zm25.043 0h5.276v-18.4h6.033v-5.012h-17.272v5.012h5.967v18.4zm26.395.395a12.1 12.1 0 0 0 10.946-6.4l-4.616-2.5a7.023 7.023 0 1 1 0-6.4l4.616-2.5a12.2 12.2 0 1 0-10.942 17.8zm16.014-.395h5.242v-9.265h9.43v9.265h5.242v-23.409h-5.242v9.166h-9.43v-9.166h-5.238v23.409zm41.64 0h5.276v-9.825l8.539-13.584h-6.1l-5.11 8.44-5.044-8.44h-6.1l8.539 13.551v9.858zm27.32.395a12.1 12.1 0 1 0-12.1-12.1 12.129 12.129 0 0 0 12.104 12.1zm0-5.077a7.026 7.026 0 1 1 6.792-7.023 6.946 6.946 0 0 1-6.788 7.023zm27.094 5.077c5.605 0 9.627-3.824 9.627-9.66v-14.144h-5.242v14.21a4.387 4.387 0 1 1-8.77 0v-14.21h-5.242v14.144c.004 5.836 3.993 9.66 9.631 9.66zm16.31-.395h5.242v-9.66h.858l7.78 9.66h6.3l-8.276-10.32c2.968-1.055 4.583-3 4.583-6.033a6.911 6.911 0 0 0-7.253-7.056h-9.232v23.409zm5.242-14.111v-4.484h3.363c1.55 0 2.671.824 2.671 2.242 0 1.351-1.121 2.242-2.671 2.242h-3.363zm27.163 14.111h14.936v-5.012h-9.693v-18.4h-5.243v23.409zm20.2 0h5.242v-23.409h-5.242v23.409zm24.277-4.979l6.824-9.457v14.441h5.276v-23.414h-4.781l-7.319 10.089-7.32-10.089h-4.78v23.409h5.238V537zm19.051 4.979h5.242v-23.409h-5.242v23.409zm16.4 0h5.275v-18.4h6.034v-5.012h-17.28v5.012h5.968v18.4zm23.163.395c4.946 0 8.342-2.967 8.375-7.22.033-3.528-2.176-5.77-5.572-6.99l-1.649-.593c-2.472-.89-3.626-1.451-3.626-2.7 0-1.219 1.417-1.78 2.835-1.78a5.2 5.2 0 0 1 4.055 1.945l3.429-3.626a9.766 9.766 0 0 0-7.55-3.231c-4.682 0-8.077 2.67-8.077 7.22 0 3.2 2.11 5.473 5.9 6.759l1.649.56c2.341.792 3.264 1.616 3.264 2.8 0 1.121-1.088 1.945-2.836 1.945a6.123 6.123 0 0 1-4.846-2.671l-4.023 3.4a10.265 10.265 0 0 0 8.669 4.182z"/><g id="Number_copy_8" data-name="Number copy 8"><path id="_01" data-name="1" class="cls-1" d="M1310.13 632.1v-3.724c0-3.2-2.13-5.466-5.13-5.466s-5.12 2.263-5.12 5.466v3.724c0 3.2 2.13 5.465 5.12 5.465s5.13-2.265 5.13-5.465zm-8.06 0v-3.724c0-2.062 1.21-3.3 2.93-3.3s2.94 1.242 2.94 3.3v3.724c0 2.082-1.21 3.3-2.94 3.3s-2.93-1.218-2.93-3.3zm14.93 5.265h2.19V623.15h-3.36l-1.67 2.183h2.84v12.032z"/><path id="_03" data-name="3" class="cls-1" d="M1310.13 687.458v-3.724c0-3.2-2.13-5.465-5.13-5.465s-5.12 2.262-5.12 5.465v3.724c0 3.2 2.13 5.466 5.12 5.466s5.13-2.262 5.13-5.466zm-8.06 0v-3.724c0-2.062 1.21-3.3 2.93-3.3s2.94 1.241 2.94 3.3v3.724c0 2.083-1.21 3.3-2.94 3.3s-2.93-1.217-2.93-3.3zm20.31 1.262a3.549 3.549 0 0 0-2.13-3.364 3.631 3.631 0 0 0 1.73-3.083c.02-2.322-1.79-4-4.42-4a4.548 4.548 0 0 0-4.79 4.585h2.21a2.381 2.381 0 0 1 2.58-2.423 2.028 2.028 0 0 1 2.21 1.982 2.094 2.094 0 0 1-2.32 2.022h-1.12v1.882h1.12c1.63 0 2.72.761 2.72 2.263a2.264 2.264 0 0 1-2.53 2.182 2.721 2.721 0 0 1-2.94-2.5h-2.19a4.811 4.811 0 0 0 5.13 4.665c2.81-.007 4.74-1.709 4.74-4.211z"/><path d="M1293 658v-1h37v1h-37z" fill="#010000" fill-rule="evenodd"/></g><g id="X_copy_7" data-name="X copy 7"><path id="Rectangle_116_copy_2" data-name="Rectangle 116 copy 2" class="cls-1" d="M1330.01 58.336l-.94.929-13.69-13.565-14.44 14.3-.95-.938 14.44-14.3-13.96-13.832.94-.929 13.96 13.832 13.5-13.383.95.938-13.51 13.383z"/></g><g id="R_copy_8" data-name="R copy 8"><path id="Rectangle_116_copy" data-name="Rectangle 116 copy" class="cls-1" d="M1328.51 362.768l-.07-.067-27.94 27.899-.95-.941 27.95-27.9-27.47-27.421.93-.932 28.49 28.431z"/></g></svg>