<svg id="copy_copy_2" data-name="copy copy 2" xmlns="http://www.w3.org/2000/svg" width="1360" height="723"><defs><style>.cls-1{fill-rule:evenodd}</style></defs><path id="SHOP_now_copy_4" data-name="SHOP now copy 4" class="cls-1" d="M602.036 613.492a2.943 2.943 0 0 0 2.651 1.409 2.257 2.257 0 0 0 2.483-2.256 2.331 2.331 0 0 0-1.75-2.289l-.754-.3c-.765-.3-1.132-.55-1.132-1.122a1.034 1.034 0 0 1 1.174-.9 1.772 1.772 0 0 1 1.414.726l.849-.869a2.81 2.81 0 0 0-2.253-1.068 2.2 2.2 0 0 0-2.42 2.2 2.26 2.26 0 0 0 1.76 2.2l.817.308a1.3 1.3 0 0 1 1.059 1.188 1.06 1.06 0 0 1-1.2.968 2.006 2.006 0 0 1-1.729-1zm8.348 1.277h1.226v-3.356h3.677v3.356h1.226v-7.813h-1.226v3.235h-3.677v-3.235h-1.226v7.813zm17.063-3.906a3.85 3.85 0 1 0-3.847 4.037 3.927 3.927 0 0 0 3.847-4.037zm-6.454 0a2.61 2.61 0 1 1 2.609 2.794 2.678 2.678 0 0 1-2.609-2.794zm12.045-3.907h-2.367v7.813h1.229v-2.707h1.142a2.553 2.553 0 1 0-.004-5.106zm-.01 3.9H631.9v-2.685h1.132a1.343 1.343 0 1 1-.004 2.681zm16.193 3.917v-7.813h-1.236v5.6l-4.181-5.6h-1.068v7.813h1.226v-5.623l4.19 5.623h1.069zm10.924-3.906a3.85 3.85 0 1 0-3.845 4.033 3.927 3.927 0 0 0 3.845-4.037zm-6.454 0a2.61 2.61 0 1 1 2.609 2.794 2.678 2.678 0 0 1-2.609-2.798zm15.45 3.906h1.131l1.928-7.813h-1.3l-1.362 5.678-2.127-5.81-2.126 5.81-1.362-5.678h-1.289l1.917 7.813h1.132l1.728-4.776zm-67.44 2.568v-.99h72.36v.99H601.7z"/><path id="BR_X_Kevin_Love_Slim_Pinstripe_Italian_Motion-Stretch_Suit_" data-name="BR X Kevin Love | Slim Pinstripe Italian Motion-Stretch Suit" class="cls-1" d="M601.587 548.146h4.992a3.359 3.359 0 0 0 3.457-3.344 2.971 2.971 0 0 0-1.616-2.689 2.674 2.674 0 0 0 .816-1.952 3.377 3.377 0 0 0-3.377-3.376h-4.272v11.361zm2.544-6.769v-2.272h1.44a1.155 1.155 0 0 1 1.184 1.152 1.139 1.139 0 0 1-1.184 1.12h-1.44zm0 4.433v-2.272h2.224a1.157 1.157 0 0 1 1.2 1.136 1.143 1.143 0 0 1-1.185 1.136h-2.24zm8.9 2.336h2.544v-4.688h.416l3.777 4.688h3.056l-4.017-5.008a2.933 2.933 0 0 0 2.225-2.929 3.354 3.354 0 0 0-3.521-3.424h-4.48v11.361zm2.544-6.849v-2.176h1.625a1.132 1.132 0 0 1 1.3 1.088 1.15 1.15 0 0 1-1.3 1.088h-1.632zm20.737 6.849h2.96l-4.241-5.744 3.985-5.617h-2.945l-2.576 3.648-2.576-3.648h-2.949l4 5.617-4.257 5.744h2.977l2.816-3.76zm9.774 0h2.529v-5.088l4.624 5.088h3.261l-5.393-5.9 4.481-5.456h-3.121l-3.856 4.752v-4.752h-2.529v11.361zm12.48 0h7.2v-2.432h-4.656v-2.032h3.7v-2.433h-3.7v-2.032h4.656v-2.432h-7.2v11.361zm13.889 0h2.288l4.657-11.361h-2.8l-3.008 7.569-3.024-7.569h-2.769zm9.439 0h2.544v-11.361h-2.548v11.361zm16.5 0v-11.361h-2.56v7.009l-5.521-7.009h-2.192v11.361h2.544v-7.025l5.537 7.025h2.192zm8.479 0h7.249v-2.432h-4.712v-8.929h-2.544v11.361zm14.832.192a5.873 5.873 0 1 0-5.873-5.872 5.886 5.886 0 0 0 5.868 5.872zm0-2.464a3.41 3.41 0 1 1 3.3-3.408 3.371 3.371 0 0 1-3.305 3.408zm11.888 2.272h2.288l4.657-11.361h-2.8l-3.008 7.569-3.024-7.569h-2.769zm9.439 0h7.2v-2.432h-4.662v-2.032h3.7v-2.433h-3.7v-2.032h4.656v-2.432h-7.2v11.361zm15.216.88h2.016v-13.121h-2.016v13.121zm13.888-.688c2.4 0 4.049-1.44 4.065-3.5.016-1.712-1.057-2.8-2.7-3.393l-.8-.288c-1.2-.432-1.76-.7-1.76-1.312a1.166 1.166 0 0 1 1.376-.864 2.527 2.527 0 0 1 1.968.944l1.665-1.76a4.744 4.744 0 0 0-3.665-1.568c-2.272 0-3.921 1.3-3.921 3.5 0 1.552 1.025 2.657 2.865 3.281l.8.272c1.136.384 1.584.784 1.584 1.36a1.152 1.152 0 0 1-1.376.944 2.972 2.972 0 0 1-2.352-1.3l-1.953 1.648a4.983 4.983 0 0 0 4.197 2.036zm7.1-.192h7.249v-2.432h-4.7v-8.929h-2.545v11.361zm10.112 0h2.544v-11.361h-2.544v11.361zm12.1-2.416l3.312-4.593v7.009h2.561v-11.361H805l-3.552 4.9-3.553-4.9h-2.32v11.361h2.544v-7.009zm22.208-5.057a3.87 3.87 0 0 0-4-3.888h-3.857v11.361h2.545v-3.6h1.312a3.857 3.857 0 0 0 3.993-3.873zm-2.465 0a1.5 1.5 0 0 1-1.568 1.488h-1.28v-2.976h1.28a1.486 1.486 0 0 1 1.561 1.488zm5.375 7.473h2.534v-11.361h-2.545v11.361zm16.5 0v-11.361H840.5v7.009l-5.521-7.009h-2.192v11.361h2.544v-7.025l5.537 7.025h2.193zm7.07.192c2.4 0 4.049-1.44 4.065-3.5.016-1.712-1.056-2.8-2.7-3.393l-.8-.288c-1.2-.432-1.761-.7-1.761-1.312a1.166 1.166 0 0 1 1.376-.864 2.527 2.527 0 0 1 1.969.944l1.664-1.76a4.741 4.741 0 0 0-3.665-1.568c-2.272 0-3.92 1.3-3.92 3.5 0 1.552 1.024 2.657 2.864 3.281l.8.272c1.137.384 1.585.784 1.585 1.36a1.153 1.153 0 0 1-1.377.944 2.972 2.972 0 0 1-2.352-1.3l-1.952 1.648a4.981 4.981 0 0 0 4.195 2.036zm8.992-.192h2.561v-8.929h2.928v-2.432h-8.385v2.432h2.9v8.929zm8.32 0h2.544v-4.688h.408l3.777 4.688h3.056l-4.016-5.008a2.933 2.933 0 0 0 2.224-2.929 3.354 3.354 0 0 0-3.521-3.424h-4.48v11.361zm2.544-6.849v-2.176h1.632a1.132 1.132 0 0 1 1.3 1.088 1.15 1.15 0 0 1-1.3 1.088h-1.632zm9.328 6.849h2.544v-11.361h-2.544v11.361zm14.081-7.473a3.87 3.87 0 0 0-4-3.888h-3.857v11.361h2.545v-3.6h1.312a3.857 3.857 0 0 0 3.991-3.873zm-2.465 0a1.5 1.5 0 0 1-1.568 1.488h-1.28v-2.976h1.28a1.486 1.486 0 0 1 1.559 1.488zm5.375 7.473h7.2v-2.432h-4.656v-2.032h3.7v-2.433h-3.7v-2.032h4.645v-2.432h-7.2v11.361zm-294.715 24h2.544v-11.361h-2.544v11.361zm8.272 0h2.56v-8.929h2.929v-2.432h-8.386v2.432h2.9v8.929zm5.951 0h2.657l1.008-2.4h4.7l1.008 2.4h2.656l-4.865-11.361h-2.3zm4.593-4.608l1.424-3.425 1.424 3.425h-2.86zm9.9 4.608h7.249v-2.432h-4.705v-8.929h-2.544v11.361zm10.111 0h2.545v-11.361h-2.545v11.361zm5.008 0h2.656l1.008-2.4h4.7l1.008 2.4h2.657l-4.86-11.361h-2.3zm4.593-4.608l1.424-3.425 1.424 3.425h-2.848zm20.177 4.608v-11.361h-2.561v7.009l-5.521-7.009h-2.192v11.361h2.544v-7.025l5.529 7.025h2.2zm14.351-2.416l3.312-4.593v7.009h2.56v-11.361H688.1l-3.552 4.9-3.553-4.9h-2.32v11.361h2.544v-7.009zm14.783 2.608a5.873 5.873 0 1 0-5.873-5.872 5.886 5.886 0 0 0 5.868 5.872zm0-2.464a3.41 3.41 0 1 1 3.3-3.408 3.371 3.371 0 0 1-3.305 3.408zm10.528 2.272h2.56v-8.929h2.929v-2.432h-8.386v2.432h2.9v8.929zm8.319 0h2.545v-11.361h-2.545v11.361zm11.457.192a5.873 5.873 0 1 0-5.873-5.872 5.887 5.887 0 0 0 5.868 5.872zm0-2.464a3.41 3.41 0 1 1 3.3-3.408 3.371 3.371 0 0 1-3.305 3.408zm19.184 2.272v-11.361h-2.56v7.009l-5.521-7.009h-2.192v11.361h2.544v-7.025l5.537 7.025h2.192zm3.407-4.528h4.7v-2.305h-4.7v2.305zm11.5 4.72c2.4 0 4.049-1.44 4.065-3.5.016-1.712-1.056-2.8-2.7-3.393l-.8-.288c-1.2-.432-1.76-.7-1.76-1.312a1.166 1.166 0 0 1 1.376-.864 2.527 2.527 0 0 1 1.968.944l1.665-1.76a4.742 4.742 0 0 0-3.665-1.568c-2.272 0-3.92 1.3-3.92 3.5 0 1.552 1.024 2.657 2.864 3.281l.8.272c1.136.384 1.584.784 1.584 1.36a1.152 1.152 0 0 1-1.376.944 2.972 2.972 0 0 1-2.352-1.3l-1.952 1.648a4.981 4.981 0 0 0 4.202 2.036zm8.992-.192h2.56v-8.929h2.929v-2.432h-8.386v2.432h2.9v8.929zm8.319 0h2.545v-4.688H784l3.776 4.688h3.057l-4.017-5.008a2.934 2.934 0 0 0 2.225-2.929 3.355 3.355 0 0 0-3.521-3.424h-4.48v11.361zm2.545-6.849v-2.176h1.632a1.132 1.132 0 0 1 1.3 1.088 1.15 1.15 0 0 1-1.3 1.088h-1.632zm9.327 6.849h7.2v-2.432h-4.656v-2.032h3.7v-2.433h-3.7v-2.032h4.656v-2.432h-7.2v11.361zm12.464 0h2.561v-8.929h2.928v-2.432h-8.386v2.432h2.9v8.929zm13.121.192a5.874 5.874 0 0 0 5.313-3.1l-2.241-1.216a3.409 3.409 0 1 1 0-3.105l2.241-1.216a5.923 5.923 0 1 0-5.311 8.637zm8.079-.192h2.545v-4.5h4.578v4.5h2.545v-11.361H833.7v4.448h-4.576v-4.448h-2.545v11.361zm21.536.192c2.4 0 4.049-1.44 4.065-3.5.016-1.712-1.056-2.8-2.7-3.393l-.8-.288c-1.2-.432-1.76-.7-1.76-1.312a1.166 1.166 0 0 1 1.376-.864 2.527 2.527 0 0 1 1.969.944l1.664-1.76a4.741 4.741 0 0 0-3.665-1.568c-2.272 0-3.92 1.3-3.92 3.5 0 1.552 1.024 2.657 2.864 3.281l.8.272c1.137.384 1.585.784 1.585 1.36a1.153 1.153 0 0 1-1.377.944 2.972 2.972 0 0 1-2.352-1.3l-1.952 1.648a4.981 4.981 0 0 0 4.202 2.036zm11.648 0a4.456 4.456 0 0 0 4.673-4.688v-6.865h-2.544v6.9a2.129 2.129 0 1 1-4.257 0v-6.9h-2.544v6.865a4.447 4.447 0 0 0 4.671 4.688zm8.224-.192h2.544v-11.361h-2.544v11.361zm8.272 0h2.56v-8.929h2.928v-2.432h-8.385v2.432h2.9v8.929z"/><path id="Limited_availablility." data-name="Limited availablility." class="cls-1" d="M601.515 592.146h5.234v-1.056h-4.118v-7.467h-1.116v8.523zm8.616-8.343a.725.725 0 0 0-.72-.732.745.745 0 0 0-.744.732.738.738 0 0 0 .744.732.717.717 0 0 0 .72-.735zm-1.248 8.343h1.032v-6h-1.032v6zm3.948 0h1.032v-2.977c0-1.356.684-2.2 1.657-2.2.78 0 1.176.673 1.176 1.645v3.529h1.033v-2.977c0-1.356.672-2.2 1.644-2.2.781 0 1.189.673 1.189 1.645v3.529h1.032v-3.685c0-1.465-.792-2.437-2.1-2.437a2.076 2.076 0 0 0-1.968 1.284 1.887 1.887 0 0 0-1.849-1.284 2.018 2.018 0 0 0-1.813 1.044v-.924h-1.032v6zm12.828-8.343a.725.725 0 0 0-.72-.732.745.745 0 0 0-.744.732.738.738 0 0 0 .744.732.717.717 0 0 0 .72-.735zm-1.248 8.343h1.032v-6h-1.032v6zm7.2-.084v-.924a2.281 2.281 0 0 1-.732.12.864.864 0 0 1-1-1.02v-3.146h1.729v-.948h-1.729v-1.669h-1.032v1.669h-1.273v.948h1.273v3.278a1.689 1.689 0 0 0 1.837 1.836 2.871 2.871 0 0 0 .928-.144zm1.727-2.917a3.164 3.164 0 0 0 5.81 1.693l-.816-.564a2.126 2.126 0 0 1-3.95-.925h4.918a2.928 2.928 0 0 0 .012-.312 2.8 2.8 0 0 0-2.857-3.013 3.041 3.041 0 0 0-3.116 3.121zm3.085-2.209a1.8 1.8 0 0 1 1.837 1.573h-3.806a1.962 1.962 0 0 1 1.97-1.573zm4.846 2.209a3 3 0 0 0 2.942 3.121 2.631 2.631 0 0 0 2.112-1.044v.924h1.033v-9h-1.033v3.925a2.631 2.631 0 0 0-2.112-1.044 3 3 0 0 0-2.941 3.118zm5.139 0a2.051 2.051 0 1 1-2.041-2.173 2.05 2.05 0 0 1 2.042 2.173zm7.269 0a3 3 0 0 0 2.941 3.121 2.632 2.632 0 0 0 2.113-1.044v.924h1.033v-6h-1.033v.924a2.632 2.632 0 0 0-2.113-1.044 3 3 0 0 0-2.94 3.119zm5.138 0a2.05 2.05 0 1 1-2.041-2.173 2.049 2.049 0 0 1 2.042 2.173zm5.723 3h.862l2.773-6h-1.152l-2.053 4.538-2.053-4.538h-1.152zm5.051-3a3 3 0 0 0 2.941 3.121 2.632 2.632 0 0 0 2.113-1.044v.924h1.032v-6h-1.032v.924a2.632 2.632 0 0 0-2.113-1.044 3 3 0 0 0-2.94 3.119zm5.138 0a2.051 2.051 0 1 1-2.041-2.173 2.049 2.049 0 0 1 2.042 2.173zm5.1-5.342a.726.726 0 0 0-.721-.732.745.745 0 0 0-.744.732.738.738 0 0 0 .744.732.718.718 0 0 0 .721-.735zm-1.249 8.343h1.032v-6h-1.032v6zm3.948 0h1.032v-9h-1.032v9zm3.48-3a3 3 0 0 0 2.941 3.121 2.633 2.633 0 0 0 2.113-1.044v.924h1.032v-6h-1.032v.924a2.633 2.633 0 0 0-2.113-1.044 3 3 0 0 0-2.941 3.118zm5.138 0a2.051 2.051 0 1 1-2.041-2.173 2.05 2.05 0 0 1 2.041 2.172zm4.882 2.077a2.633 2.633 0 0 0 2.113 1.044 3.127 3.127 0 0 0 0-6.242 2.633 2.633 0 0 0-2.113 1.044v-3.925h-1.032v9h1.032v-.924zm4-2.077a2.045 2.045 0 1 1-2.041-2.173 2.05 2.05 0 0 1 2.039 2.172zm3.49 3h1.032v-9h-1.032v9zm5.2-8.343a.725.725 0 0 0-.72-.732.746.746 0 0 0-.745.732.738.738 0 0 0 .745.732.717.717 0 0 0 .714-.735zm-1.248 8.343h1.032v-6h-1.032v6zm3.947 0h1.033v-9h-1.033v9zm5.2-8.343a.725.725 0 0 0-.72-.732.746.746 0 0 0-.745.732.738.738 0 0 0 .745.732.717.717 0 0 0 .711-.735zm-1.249 8.343h1.033v-6h-1.033v6zm7.2-.084v-.924a2.287 2.287 0 0 1-.733.12.864.864 0 0 1-1-1.02v-3.146h1.729v-.948h-1.732v-1.669h-1.03v1.669h-1.272v.948h1.272v3.278a1.69 1.69 0 0 0 1.837 1.836 2.883 2.883 0 0 0 .922-.144zm3.875 2.593l3.937-8.511h-1.152l-2.053 4.55-2.065-4.55h-1.14l2.629 5.69-1.309 2.821h1.153zm6.768-3.313a.889.889 0 1 0-.889.9.9.9 0 0 0 .88-.9z"/><g id="Number_copy_10" data-name="Number copy 10"><path id="_03" data-name="3" class="cls-1" d="M1310.13 632.1v-3.724c0-3.2-2.13-5.466-5.13-5.466s-5.12 2.263-5.12 5.466v3.724c0 3.2 2.13 5.465 5.12 5.465s5.13-2.265 5.13-5.465zm-8.06 0v-3.724c0-2.062 1.21-3.3 2.93-3.3s2.94 1.242 2.94 3.3v3.724c0 2.082-1.21 3.3-2.94 3.3s-2.93-1.218-2.93-3.3zm20.31 1.261a3.547 3.547 0 0 0-2.13-3.363 3.632 3.632 0 0 0 1.73-3.084c.02-2.322-1.79-4-4.42-4a4.548 4.548 0 0 0-4.79 4.585h2.21a2.381 2.381 0 0 1 2.58-2.423 2.028 2.028 0 0 1 2.21 1.982 2.094 2.094 0 0 1-2.32 2.023h-1.12v1.882h1.12c1.63 0 2.72.76 2.72 2.262a2.264 2.264 0 0 1-2.53 2.182 2.721 2.721 0 0 1-2.94-2.5h-2.19a4.81 4.81 0 0 0 5.13 4.664c2.81-.006 4.74-1.707 4.74-4.21z"/><path id="_03-2" data-name="3" class="cls-1" d="M1310.13 687.458v-3.724c0-3.2-2.13-5.465-5.13-5.465s-5.12 2.262-5.12 5.465v3.724c0 3.2 2.13 5.466 5.12 5.466s5.13-2.262 5.13-5.466zm-8.06 0v-3.724c0-2.062 1.21-3.3 2.93-3.3s2.94 1.241 2.94 3.3v3.724c0 2.083-1.21 3.3-2.94 3.3s-2.93-1.217-2.93-3.3zm20.31 1.262a3.549 3.549 0 0 0-2.13-3.364 3.631 3.631 0 0 0 1.73-3.083c.02-2.322-1.79-4-4.42-4a4.548 4.548 0 0 0-4.79 4.585h2.21a2.381 2.381 0 0 1 2.58-2.423 2.028 2.028 0 0 1 2.21 1.982 2.094 2.094 0 0 1-2.32 2.022h-1.12v1.882h1.12c1.63 0 2.72.761 2.72 2.263a2.264 2.264 0 0 1-2.53 2.182 2.721 2.721 0 0 1-2.94-2.5h-2.19a4.811 4.811 0 0 0 5.13 4.665c2.81-.007 4.74-1.709 4.74-4.211z"/><path class="cls-1" d="M1293 658v-1h37v1h-37z"/></g><g id="X_copy_9" data-name="X copy 9"><path id="Rectangle_116_copy_2" data-name="Rectangle 116 copy 2" d="M1330.01 58.336l-.94.929-13.69-13.565-14.44 14.3-.95-.938 14.44-14.3-13.96-13.832.94-.929 13.96 13.832 13.5-13.383.95.938-13.51 13.383z" fill="#fff" fill-rule="evenodd"/></g><g id="L_copy_10" data-name="L copy 10"><path id="Rectangle_116_copy" data-name="Rectangle 116 copy" class="cls-1" d="M57.12 334.161l-27.338 27.578 26.874 27.11-.913.921-27.863-28.107.913-.921.066.066L56.2 333.23z"/></g></svg>