<svg id="copy_copy_2" data-name="copy copy 2" xmlns="http://www.w3.org/2000/svg" width="1360" height="723"><defs><style>.cls-1,.cls-2{fill-rule:evenodd}.cls-2{fill:#fff}</style></defs><path id="SHOP_now" data-name="SHOP now" class="cls-1" d="M564.036 635.492a2.943 2.943 0 0 0 2.651 1.409 2.257 2.257 0 0 0 2.483-2.256 2.331 2.331 0 0 0-1.75-2.289l-.754-.3c-.765-.3-1.132-.55-1.132-1.122a1.034 1.034 0 0 1 1.174-.9 1.772 1.772 0 0 1 1.414.726l.849-.869a2.81 2.81 0 0 0-2.253-1.068 2.2 2.2 0 0 0-2.42 2.2 2.26 2.26 0 0 0 1.76 2.2l.817.308a1.3 1.3 0 0 1 1.059 1.188 1.06 1.06 0 0 1-1.2.968 2.006 2.006 0 0 1-1.729-1zm8.348 1.277h1.226v-3.356h3.677v3.356h1.226v-7.813h-1.226v3.235h-3.677v-3.235h-1.226v7.813zm17.063-3.906a3.85 3.85 0 1 0-3.847 4.037 3.927 3.927 0 0 0 3.847-4.037zm-6.454 0a2.61 2.61 0 1 1 2.609 2.794 2.678 2.678 0 0 1-2.609-2.794zm12.045-3.907h-2.367v7.813h1.229v-2.707h1.142a2.553 2.553 0 1 0-.004-5.106zm-.01 3.9H593.9v-2.685h1.132a1.343 1.343 0 1 1-.004 2.681zm16.193 3.917v-7.813h-1.236v5.6l-4.181-5.6h-1.068v7.813h1.226v-5.623l4.19 5.623h1.069zm10.924-3.906a3.85 3.85 0 1 0-3.845 4.033 3.927 3.927 0 0 0 3.845-4.037zm-6.454 0a2.61 2.61 0 1 1 2.609 2.794 2.678 2.678 0 0 1-2.609-2.798zm15.45 3.906h1.131l1.928-7.813h-1.3l-1.362 5.678-2.127-5.81-2.126 5.81-1.362-5.678h-1.289l1.917 7.813h1.132l1.728-4.776zm-67.44 2.568v-.99h72.36v.99H563.7z"/><path id="Slim_Brushed_Motion-Stretch_Blazer_" data-name="Slim Brushed Motion-Stretch Blazer" class="cls-1" d="M511.97 590.61c2.4 0 4.049-1.44 4.065-3.5.016-1.712-1.056-2.8-2.7-3.392l-.8-.288c-1.2-.432-1.76-.7-1.76-1.312a1.166 1.166 0 0 1 1.376-.864 2.527 2.527 0 0 1 1.969.944l1.664-1.761a4.741 4.741 0 0 0-3.665-1.568c-2.272 0-3.92 1.3-3.92 3.5 0 1.552 1.024 2.656 2.864 3.28l.8.272c1.137.384 1.585.784 1.585 1.36a1.153 1.153 0 0 1-1.377.945 2.973 2.973 0 0 1-2.352-1.3l-1.952 1.649a4.981 4.981 0 0 0 4.203 2.035zm7.1-.192h7.249v-2.432h-4.7v-8.93h-2.544v11.362zm10.112 0h2.544v-11.362h-2.544v11.362zm12.1-2.416l3.313-4.593v7.009h2.56v-11.362h-2.32l-3.553 4.9-3.552-4.9h-2.321v11.362h2.545v-7.009zm14.351 2.416h4.993a3.359 3.359 0 0 0 3.456-3.345 2.969 2.969 0 0 0-1.616-2.688 2.674 2.674 0 0 0 .816-1.952 3.377 3.377 0 0 0-3.376-3.377h-4.273v11.362zm2.544-6.769v-2.272h1.44a1.155 1.155 0 0 1 1.185 1.152 1.139 1.139 0 0 1-1.185 1.12h-1.44zm0 4.433v-2.273h2.223a1.156 1.156 0 0 1 1.2 1.136 1.142 1.142 0 0 1-1.184 1.137h-2.241zm8.9 2.336h2.544v-4.689h.416l3.777 4.689h3.056l-4.016-5.009a2.932 2.932 0 0 0 2.224-2.928 3.354 3.354 0 0 0-3.521-3.425h-4.48v11.362zm2.544-6.849v-2.176h1.632a1.132 1.132 0 0 1 1.3 1.088 1.15 1.15 0 0 1-1.3 1.088h-1.632zm13.665 7.041a4.456 4.456 0 0 0 4.672-4.689v-6.865h-2.548v6.9a2.129 2.129 0 1 1-4.257 0v-6.9h-2.544v6.865a4.447 4.447 0 0 0 4.673 4.689zm11.615 0c2.4 0 4.049-1.44 4.065-3.5.016-1.712-1.056-2.8-2.705-3.392l-.8-.288c-1.2-.432-1.76-.7-1.76-1.312a1.166 1.166 0 0 1 1.376-.864 2.527 2.527 0 0 1 1.968.944l1.665-1.761a4.742 4.742 0 0 0-3.665-1.568c-2.272 0-3.92 1.3-3.92 3.5 0 1.552 1.024 2.656 2.864 3.28l.8.272c1.136.384 1.584.784 1.584 1.36a1.153 1.153 0 0 1-1.376.945 2.973 2.973 0 0 1-2.352-1.3l-1.952 1.649a4.981 4.981 0 0 0 4.207 2.035zm7.1-.192h2.545v-4.5h4.576v4.5h2.545v-11.362h-2.545v4.449h-4.576v-4.449H602v11.362zm13.344 0h7.2v-2.432h-4.656v-2.033h3.7v-2.432h-3.7v-2.032h4.656v-2.433h-7.2v11.362zm10.417 0h3.872a5.682 5.682 0 1 0 0-11.362h-3.872v11.362zm2.544-2.336v-6.689h1.328a3.347 3.347 0 0 1 0 6.689H628.3zM410.212 612l3.312-4.593v7.009h2.561v-11.36h-2.321l-3.552 4.9-3.553-4.9h-2.32v11.362h2.544v-7.009zM425 614.61a5.873 5.873 0 1 0-5.872-5.873A5.887 5.887 0 0 0 425 614.61zm0-2.464a3.41 3.41 0 1 1 3.3-3.409 3.371 3.371 0 0 1-3.3 3.409zm10.528 2.272h2.56v-8.929h2.929v-2.433h-8.386v2.433h2.9v8.929zm8.319 0h2.545v-11.362h-2.545v11.362zm11.453.192a5.873 5.873 0 1 0-5.873-5.873 5.887 5.887 0 0 0 5.873 5.873zm0-2.464a3.41 3.41 0 1 1 3.3-3.409 3.371 3.371 0 0 1-3.3 3.409zm19.185 2.272v-11.362h-2.561v7.009l-5.521-7.009h-2.193v11.362h2.544v-7.025l5.537 7.025h2.193zm3.406-4.529h4.709v-2.3h-4.71v2.3zm11.5 4.721c2.4 0 4.049-1.44 4.065-3.5.016-1.712-1.056-2.8-2.7-3.392l-.8-.288c-1.2-.432-1.76-.7-1.76-1.312a1.166 1.166 0 0 1 1.376-.864 2.53 2.53 0 0 1 1.969.944l1.664-1.761a4.742 4.742 0 0 0-3.665-1.568c-2.272 0-3.92 1.3-3.92 3.5 0 1.552 1.024 2.656 2.864 3.28l.8.272c1.136.384 1.584.784 1.584 1.36a1.153 1.153 0 0 1-1.376.945 2.973 2.973 0 0 1-2.352-1.3l-1.952 1.649a4.981 4.981 0 0 0 4.206 2.035zm8.992-.192h2.56v-8.929h2.929v-2.433h-8.382v2.433h2.9v8.929zm8.32 0h2.544v-4.689h.416l3.777 4.689h3.06l-4.017-5.009a2.932 2.932 0 0 0 2.225-2.928 3.355 3.355 0 0 0-3.521-3.425h-4.48v11.362zm2.544-6.849v-2.176h1.632a1.132 1.132 0 0 1 1.3 1.088 1.15 1.15 0 0 1-1.3 1.088h-1.629zm9.327 6.849h7.2v-2.432h-4.656v-2.033h3.7v-2.432h-3.7v-2.032h4.656v-2.433h-7.2v11.362zm12.465 0h2.56v-8.929h2.928v-2.433h-8.385v2.433h2.9v8.929zm13.12.192a5.873 5.873 0 0 0 5.313-3.105l-2.24-1.216a3.408 3.408 0 1 1 0-3.1l2.24-1.216a5.923 5.923 0 1 0-5.31 8.637zm8.079-.192h2.545v-4.5h4.576v4.5h2.545v-11.362h-2.545v4.449h-4.576v-4.449h-2.545v11.362zm18.144 0h4.993a3.359 3.359 0 0 0 3.456-3.345 2.969 2.969 0 0 0-1.616-2.688 2.674 2.674 0 0 0 .816-1.952 3.377 3.377 0 0 0-3.376-3.377h-4.273v11.362zm2.544-6.769v-2.272h1.441a1.155 1.155 0 0 1 1.184 1.152 1.139 1.139 0 0 1-1.184 1.12h-1.441zm0 4.433v-2.273h2.225a1.156 1.156 0 0 1 1.2 1.136 1.142 1.142 0 0 1-1.184 1.137h-2.241zm8.9 2.336h7.249v-2.432h-4.7v-8.93h-2.544v11.362zm8.9 0h2.656l1.008-2.4h4.705l1.008 2.4h2.656l-4.864-11.362h-2.3zm4.592-4.609l1.424-3.424 1.425 3.424h-2.849zm9.328 4.609h8.769v-2.432h-5.329l5.233-7.186v-1.744h-8.593v2.433h5.136l-5.216 7.185v1.744zm11.872 0h7.2v-2.432h-4.657v-2.033h3.7v-2.432h-3.7v-2.032h4.657v-2.433h-7.2v11.362zm10.416 0h2.544v-4.689h.416l3.777 4.689h3.056l-4.017-5.009a2.932 2.932 0 0 0 2.225-2.928 3.354 3.354 0 0 0-3.521-3.425h-4.48v11.362zm2.544-6.849v-2.176h1.632a1.132 1.132 0 0 1 1.3 1.088 1.15 1.15 0 0 1-1.3 1.088h-1.632z"/><g id="Number_copy_9" data-name="Number copy 9"><path id="_02" data-name="2" class="cls-2" d="M1310.13 632.1v-3.724c0-3.2-2.13-5.466-5.13-5.466s-5.12 2.263-5.12 5.466v3.724c0 3.2 2.13 5.465 5.12 5.465s5.13-2.265 5.13-5.465zm-8.06 0v-3.724c0-2.062 1.21-3.3 2.93-3.3s2.94 1.242 2.94 3.3v3.724c0 2.082-1.21 3.3-2.94 3.3s-2.93-1.218-2.93-3.3zm19.91 3.1h-6.47c.36-1.281 1.94-2.082 3.21-3.043 2.07-1.5 3.12-2.723 3.12-4.985a4.12 4.12 0 0 0-4.43-4.265 4.527 4.527 0 0 0-4.78 4.585h2.21a2.394 2.394 0 0 1 2.55-2.423 2.076 2.076 0 0 1 2.24 2.163c0 1.441-.91 2.242-2.36 3.3-2.07 1.542-4.64 2.9-4.64 6.026v.8h9.35V635.2z"/><path id="_03" data-name="3" class="cls-2" d="M1310.13 687.458v-3.724c0-3.2-2.13-5.465-5.13-5.465s-5.12 2.262-5.12 5.465v3.724c0 3.2 2.13 5.466 5.12 5.466s5.13-2.262 5.13-5.466zm-8.06 0v-3.724c0-2.062 1.21-3.3 2.93-3.3s2.94 1.241 2.94 3.3v3.724c0 2.083-1.21 3.3-2.94 3.3s-2.93-1.217-2.93-3.3zm20.31 1.262a3.549 3.549 0 0 0-2.13-3.364 3.631 3.631 0 0 0 1.73-3.083c.02-2.322-1.79-4-4.42-4a4.548 4.548 0 0 0-4.79 4.585h2.21a2.381 2.381 0 0 1 2.58-2.423 2.028 2.028 0 0 1 2.21 1.982 2.094 2.094 0 0 1-2.32 2.022h-1.12v1.882h1.12c1.63 0 2.72.761 2.72 2.263a2.264 2.264 0 0 1-2.53 2.182 2.721 2.721 0 0 1-2.94-2.5h-2.19a4.811 4.811 0 0 0 5.13 4.665c2.81-.007 4.74-1.709 4.74-4.211z"/><path class="cls-2" d="M1293 658v-1h37v1h-37z"/></g><g id="X_copy_8" data-name="X copy 8"><path id="Rectangle_116_copy_2" data-name="Rectangle 116 copy 2" class="cls-1" d="M1330.01 58.336l-.94.929-13.69-13.565-14.44 14.3-.95-.938 14.44-14.3-13.96-13.832.94-.929 13.96 13.832 13.5-13.383.95.938-13.51 13.383z"/></g><g id="R_copy_9" data-name="R copy 9"><path id="Rectangle_116_copy" data-name="Rectangle 116 copy" class="cls-1" d="M1328.51 362.768l-.07-.068-27.94 27.9-.95-.941 27.95-27.9-27.47-27.421.93-.932 28.49 28.431z"/></g><g id="L_copy_9" data-name="L copy 9"><path id="Rectangle_116_copy-2" data-name="Rectangle 116 copy" class="cls-1" d="M57.12 334.161l-27.338 27.578 26.874 27.11-.913.921-27.863-28.107.913-.921.066.066L56.2 333.23z"/></g></svg>