<svg id="copy_copy" data-name="copy copy" xmlns="http://www.w3.org/2000/svg" width="1360" height="723" viewBox="0 0 1360 723">
  <metadata><?xpacket begin="﻿" id="W5M0MpCehiHzreSzNTczkc9d"?>
<x:xmpmeta xmlns:x="adobe:ns:meta/" x:xmptk="Adobe XMP Core 5.6-c138 79.159824, 2016/09/14-01:09:01        ">
   <rdf:RDF xmlns:rdf="http://www.w3.org/1999/02/22-rdf-syntax-ns#">
      <rdf:Description rdf:about=""/>
   </rdf:RDF>
</x:xmpmeta>
                                                                                                    
                                                                                                    
                                                                                                    
                                                                                                    
                                                                                                    
                                                                                                    
                                                                                                    
                                                                                                    
                                                                                                    
                                                                                                    
                                                                                                    
                                                                                                    
                                                                                                    
                                                                                                    
                                                                                                    
                                                                                                    
                                                                                                    
                                                                                                    
                                                                                                    
                                                                                                    
                           
<?xpacket end="w"?></metadata>
<defs>
    <style>
      .cls-1, .cls-2, .cls-3 {
        fill-rule: evenodd;
      }

      .cls-2, .cls-3 {
        fill: #fff;
      }

      .cls-3, .cls-4 {
        opacity: 0.77;
      }

      .cls-4 {
        fill: none;
        stroke: #fff;
        stroke-width: 5px;
      }
    </style>
  </defs>
  <path id="Banana_Republic_was_born_from_two_California_creatives_fueled_b" data-name="Banana Republic was born from two California creatives fueled b" class="cls-1" d="M39.891,602.146h4.065c2.3,0,3.809-1.424,3.809-3.312a2.709,2.709,0,0,0-1.968-2.721,2.575,2.575,0,0,0,1.216-2.32,3.111,3.111,0,0,0-3.392-3.008H39.891v11.361Zm1.488-6.481v-3.536h2.24a1.786,1.786,0,0,1,1.936,1.776,1.749,1.749,0,0,1-1.936,1.76h-2.24Zm0,5.137v-3.856h2.656c1.5,0,2.272.832,2.272,1.936,0,1.12-.768,1.92-2.288,1.92h-2.64Zm8.144-2.656a4,4,0,0,0,3.921,4.16,3.509,3.509,0,0,0,2.816-1.392v1.232h1.376v-8H56.26v1.232a3.509,3.509,0,0,0-2.816-1.392A4,4,0,0,0,49.523,598.146Zm6.849,0a2.733,2.733,0,1,1-2.72-2.9A2.732,2.732,0,0,1,56.372,598.146Zm4.255,4H62v-3.968c0-1.872,1.024-2.929,2.32-2.929a1.921,1.921,0,0,1,1.888,2.177v4.72h1.36v-4.928a2.949,2.949,0,0,0-3.024-3.233A2.83,2.83,0,0,0,62,595.377v-1.232H60.626v8Zm9.2-4a4,4,0,0,0,3.921,4.16,3.509,3.509,0,0,0,2.816-1.392v1.232h1.376v-8H76.563v1.232a3.509,3.509,0,0,0-2.816-1.392A4,4,0,0,0,69.826,598.146Zm6.849,0a2.733,2.733,0,1,1-2.72-2.9A2.732,2.732,0,0,1,76.675,598.146Zm4.255,4h1.376v-3.968c0-1.872,1.024-2.929,2.32-2.929a1.921,1.921,0,0,1,1.888,2.177v4.72h1.36v-4.928a2.949,2.949,0,0,0-3.024-3.233,2.829,2.829,0,0,0-2.544,1.392v-1.232H80.93v8Zm9.2-4a4,4,0,0,0,3.92,4.16,3.509,3.509,0,0,0,2.816-1.392v1.232h1.376v-8H96.867v1.232a3.509,3.509,0,0,0-2.816-1.392A4,4,0,0,0,90.13,598.146Zm6.849,0a2.733,2.733,0,1,1-2.72-2.9A2.732,2.732,0,0,1,96.979,598.146Zm8.767,4h1.488v-5.168h1.1l4.369,5.168h1.872l-4.369-5.184a2.965,2.965,0,0,0,2.8-3.041,3.065,3.065,0,0,0-3.393-3.136h-3.872v11.361Zm1.488-6.5v-3.488h2.208c1.3,0,2.08.608,2.08,1.76,0,1.136-.784,1.728-2.08,1.728h-2.208Zm8,2.5a4.219,4.219,0,0,0,7.746,2.256l-1.089-.752a2.832,2.832,0,0,1-5.264-1.232h6.561A3.9,3.9,0,0,0,123.2,598a3.729,3.729,0,0,0-3.809-4.017A4.055,4.055,0,0,0,115.233,598.146Zm4.113-2.945a2.394,2.394,0,0,1,2.448,2.1h-5.072A2.615,2.615,0,0,1,119.346,595.2Zm6.207,10.29h1.377v-4.577a3.508,3.508,0,0,0,2.816,1.392,4.168,4.168,0,0,0,0-8.321,3.508,3.508,0,0,0-2.816,1.392v-1.232h-1.377v11.346Zm6.705-7.345a2.725,2.725,0,1,1-2.72-2.9A2.731,2.731,0,0,1,132.258,598.146Zm3.679,0.912a2.921,2.921,0,0,0,2.945,3.248,2.752,2.752,0,0,0,2.464-1.392v1.232h1.376v-8h-1.376v3.969c0,1.84-.976,2.928-2.224,2.928-1.1,0-1.808-.848-1.808-2.192v-4.705h-1.377v4.913Zm11.152,1.856a3.512,3.512,0,0,0,2.817,1.392,4.168,4.168,0,0,0,0-8.321,3.512,3.512,0,0,0-2.817,1.392v-5.232h-1.376v12h1.376v-1.232Zm5.329-2.768a2.726,2.726,0,1,1-2.72-2.9A2.731,2.731,0,0,1,152.418,598.146Zm3.775,4h1.376v-12h-1.376v12Zm6.048-11.121a0.966,0.966,0,0,0-.96-0.976,0.994,0.994,0,0,0-.992.976,0.983,0.983,0,0,0,.992.976A0.956,0.956,0,0,0,162.241,591.025Zm-1.664,11.121h1.376v-8h-1.376v8Zm11.649-1.984-1.2-.672a2.712,2.712,0,0,1-2.5,1.536,2.882,2.882,0,0,1,0-5.761,2.711,2.711,0,0,1,2.5,1.537l1.2-.673a4.143,4.143,0,0,0-3.7-2.144,4.161,4.161,0,1,0,0,8.321A4.143,4.143,0,0,0,172.226,600.162Zm12.976,1.984h1.216l2.72-8h-1.456l-1.936,5.841-2-5.841h-1.056l-2,5.841-1.936-5.841h-1.441l2.721,8h1.216l1.984-5.76Zm5.166-4a4,4,0,0,0,3.921,4.16,3.508,3.508,0,0,0,2.816-1.392v1.232h1.376v-8h-1.376v1.232a3.508,3.508,0,0,0-2.816-1.392A4,4,0,0,0,190.368,598.146Zm6.849,0a2.733,2.733,0,1,1-2.72-2.9A2.731,2.731,0,0,1,197.217,598.146Zm9.44,1.776c0-1.2-.752-1.968-2.112-2.416l-0.864-.288c-0.945-.3-1.233-0.608-1.233-1.121a1.133,1.133,0,0,1,1.345-.928,2.161,2.161,0,0,1,1.7.832l0.9-.864a3.1,3.1,0,0,0-2.56-1.152c-1.585,0-2.7.88-2.7,2.176a2.415,2.415,0,0,0,1.984,2.321l0.785,0.256c1.04,0.336,1.424.72,1.424,1.28a1.218,1.218,0,0,1-1.408,1.088,2.147,2.147,0,0,1-2.049-1.264l-1.12.608a3.178,3.178,0,0,0,3.137,1.856C205.489,602.306,206.657,601.49,206.657,599.922Zm8.047,0.992a3.508,3.508,0,0,0,2.816,1.392,4.168,4.168,0,0,0,0-8.321,3.508,3.508,0,0,0-2.816,1.392v-5.232h-1.376v12H214.7v-1.232Zm5.329-2.768a2.726,2.726,0,1,1-2.721-2.9A2.732,2.732,0,0,1,220.033,598.146Zm11.5,0a4.185,4.185,0,1,0-4.177,4.16A4.106,4.106,0,0,0,231.537,598.146Zm-6.961,0a2.778,2.778,0,1,1,2.784,2.88A2.751,2.751,0,0,1,224.576,598.146Zm9.328,4h1.376v-3.968c0-1.872,1.1-2.753,2.112-2.753a2.011,2.011,0,0,1,.752.128v-1.424a2.851,2.851,0,0,0-.624-0.064,2.38,2.38,0,0,0-2.24,1.632v-1.552H233.9v8Zm6.255,0h1.377v-3.968c0-1.872,1.024-2.929,2.32-2.929a1.921,1.921,0,0,1,1.888,2.177v4.72h1.36v-4.928a2.949,2.949,0,0,0-3.024-3.233,2.829,2.829,0,0,0-2.544,1.392v-1.232h-1.377v8Zm14.592,0h1.377v-6.737h2.32v-1.264h-2.32v-1.472a1.152,1.152,0,0,1,1.328-1.36,3.222,3.222,0,0,1,.992.16v-1.216a3.636,3.636,0,0,0-1.248-.208,2.285,2.285,0,0,0-2.449,2.48v1.616h-1.7v1.264h1.7v6.737Zm5.6,0h1.376v-3.968c0-1.872,1.105-2.753,2.113-2.753a2.011,2.011,0,0,1,.752.128v-1.424a2.851,2.851,0,0,0-.624-0.064,2.381,2.381,0,0,0-2.241,1.632v-1.552h-1.376v8Zm13.7-4a4.185,4.185,0,1,0-4.176,4.16A4.106,4.106,0,0,0,274.048,598.146Zm-6.961,0a2.778,2.778,0,1,1,2.785,2.88A2.751,2.751,0,0,1,267.087,598.146Zm9.328,4h1.376v-3.968c0-1.808.912-2.929,2.209-2.929,1.04,0,1.568.9,1.568,2.193v4.7h1.376v-3.968c0-1.808.9-2.929,2.192-2.929,1.04,0,1.585.9,1.585,2.193v4.7H288.1v-4.912c0-1.953-1.056-3.249-2.8-3.249a2.769,2.769,0,0,0-2.624,1.712,2.515,2.515,0,0,0-2.464-1.712,2.689,2.689,0,0,0-2.417,1.392v-1.232h-1.376v8Zm22.928-.112V600.8a3.041,3.041,0,0,1-.976.16,1.152,1.152,0,0,1-1.328-1.36v-4.193h2.3v-1.264h-2.3v-2.224h-1.376v2.224h-1.7v1.264h1.7v4.369a2.252,2.252,0,0,0,2.448,2.448A3.828,3.828,0,0,0,299.343,602.034Zm8.945,0.112H309.5l2.72-8h-1.456l-1.936,5.841-2-5.841h-1.057l-2,5.841-1.936-5.841H300.4l2.72,8h1.216l1.984-5.76Zm13.52-4a4.185,4.185,0,1,0-4.177,4.16A4.107,4.107,0,0,0,321.808,598.146Zm-6.961,0a2.778,2.778,0,1,1,2.784,2.88A2.751,2.751,0,0,1,314.847,598.146Zm13.055-1.68a5.905,5.905,0,0,0,10.9,3.12l-1.249-.752a4.465,4.465,0,1,1,0-4.737l1.249-.752A5.905,5.905,0,0,0,327.9,596.466Zm12.432,1.68a4,4,0,0,0,3.92,4.16,3.509,3.509,0,0,0,2.817-1.392v1.232h1.376v-8h-1.376v1.232a3.509,3.509,0,0,0-2.817-1.392A4,4,0,0,0,340.334,598.146Zm6.849,0a2.733,2.733,0,1,1-2.72-2.9A2.731,2.731,0,0,1,347.183,598.146Zm4.255,4h1.376v-12h-1.376v12Zm6.048-11.121a0.966,0.966,0,0,0-.96-0.976,0.994,0.994,0,0,0-.992.976,0.983,0.983,0,0,0,.992.976A0.956,0.956,0,0,0,357.486,591.025Zm-1.664,11.121H357.2v-8h-1.376v8Zm5.056,0h1.376v-6.737h2.32v-1.264h-2.32v-1.472a1.152,1.152,0,0,1,1.328-1.36,3.222,3.222,0,0,1,.992.16v-1.216a3.636,3.636,0,0,0-1.248-.208,2.285,2.285,0,0,0-2.448,2.48v1.616h-1.7v1.264h1.7v6.737Zm13.121-4a4.185,4.185,0,1,0-4.177,4.16A4.106,4.106,0,0,0,374,598.146Zm-6.961,0a2.778,2.778,0,1,1,2.784,2.88A2.751,2.751,0,0,1,367.038,598.146Zm9.327,4h1.377v-3.968c0-1.872,1.1-2.753,2.112-2.753a2.011,2.011,0,0,1,.752.128v-1.424a2.851,2.851,0,0,0-.624-0.064,2.38,2.38,0,0,0-2.24,1.632v-1.552h-1.377v8Zm6.256,0H384v-3.968c0-1.872,1.024-2.929,2.32-2.929a1.921,1.921,0,0,1,1.888,2.177v4.72h1.36v-4.928a2.949,2.949,0,0,0-3.024-3.233A2.829,2.829,0,0,0,384,595.377v-1.232h-1.377v8Zm11.488-11.121a0.966,0.966,0,0,0-.96-0.976,0.994,0.994,0,0,0-.992.976,0.983,0.983,0,0,0,.992.976A0.956,0.956,0,0,0,394.109,591.025Zm-1.664,11.121h1.376v-8h-1.376v8Zm3.76-4a4,4,0,0,0,3.921,4.16,3.508,3.508,0,0,0,2.816-1.392v1.232h1.376v-8h-1.376v1.232a3.508,3.508,0,0,0-2.816-1.392A4,4,0,0,0,396.205,598.146Zm6.849,0a2.733,2.733,0,1,1-2.72-2.9A2.731,2.731,0,0,1,403.054,598.146Zm15.824,2.016-1.2-.672a2.713,2.713,0,0,1-2.5,1.536,2.882,2.882,0,0,1,0-5.761,2.712,2.712,0,0,1,2.5,1.537l1.2-.673a4.143,4.143,0,0,0-3.7-2.144,4.161,4.161,0,1,0,0,8.321A4.143,4.143,0,0,0,418.878,600.162Zm2.175,1.984h1.376v-3.968c0-1.872,1.1-2.753,2.112-2.753a2.011,2.011,0,0,1,.752.128v-1.424a2.851,2.851,0,0,0-.624-0.064,2.38,2.38,0,0,0-2.24,1.632v-1.552h-1.376v8Zm5.344-4a4.218,4.218,0,0,0,7.745,2.256l-1.088-.752a2.833,2.833,0,0,1-5.265-1.232h6.561a3.9,3.9,0,0,0,.016-0.416,3.729,3.729,0,0,0-3.809-4.017A4.054,4.054,0,0,0,426.4,598.146Zm4.112-2.945a2.4,2.4,0,0,1,2.449,2.1h-5.073A2.615,2.615,0,0,1,430.509,595.2Zm5.583,2.945a4,4,0,0,0,3.921,4.16,3.508,3.508,0,0,0,2.816-1.392v1.232h1.377v-8h-1.377v1.232a3.508,3.508,0,0,0-2.816-1.392A4,4,0,0,0,436.092,598.146Zm6.849,0a2.733,2.733,0,1,1-2.72-2.9A2.731,2.731,0,0,1,442.941,598.146Zm8.592,3.888V600.8a3.041,3.041,0,0,1-.976.16,1.152,1.152,0,0,1-1.328-1.36v-4.193h2.3v-1.264h-2.3v-2.224h-1.376v2.224h-1.7v1.264h1.7v4.369a2.252,2.252,0,0,0,2.448,2.448A3.828,3.828,0,0,0,451.533,602.034Zm3.824-11.009a0.966,0.966,0,0,0-.961-0.976,0.994,0.994,0,0,0-.992.976,0.983,0.983,0,0,0,.992.976A0.957,0.957,0,0,0,455.357,591.025Zm-1.665,11.121h1.377v-8h-1.377v8Zm6.881,0h1.152l3.7-8h-1.536l-2.736,6.049-2.737-6.049h-1.536Zm5.839-4a4.218,4.218,0,0,0,7.745,2.256l-1.088-.752a2.833,2.833,0,0,1-5.265-1.232h6.561a3.9,3.9,0,0,0,.016-0.416,3.728,3.728,0,0,0-3.808-4.017A4.054,4.054,0,0,0,466.412,598.146Zm4.113-2.945a2.394,2.394,0,0,1,2.448,2.1H467.9A2.616,2.616,0,0,1,470.525,595.2Zm11.392,4.721c0-1.2-.752-1.968-2.112-2.416l-0.864-.288c-0.945-.3-1.233-0.608-1.233-1.121a1.133,1.133,0,0,1,1.345-.928,2.161,2.161,0,0,1,1.7.832l0.9-.864a3.1,3.1,0,0,0-2.56-1.152c-1.585,0-2.7.88-2.7,2.176a2.415,2.415,0,0,0,1.984,2.321l0.785,0.256c1.04,0.336,1.424.72,1.424,1.28a1.218,1.218,0,0,1-1.408,1.088,2.147,2.147,0,0,1-2.049-1.264l-1.12.608a3.178,3.178,0,0,0,3.137,1.856C480.749,602.306,481.917,601.49,481.917,599.922Zm7.135,2.224h1.376v-6.737h2.321v-1.264h-2.321v-1.472a1.152,1.152,0,0,1,1.329-1.36,3.222,3.222,0,0,1,.992.16v-1.216a3.636,3.636,0,0,0-1.248-.208,2.285,2.285,0,0,0-2.449,2.48v1.616h-1.7v1.264h1.7v6.737Zm5.488-3.088c0,1.984,1.184,3.248,2.944,3.248a2.754,2.754,0,0,0,2.465-1.392v1.232h1.376v-8h-1.376v3.969c0,1.84-.977,2.928-2.225,2.928-1.1,0-1.808-.848-1.808-2.192v-4.705H494.54v4.913Zm9.152-.912a4.218,4.218,0,0,0,7.745,2.256l-1.088-.752a2.833,2.833,0,0,1-5.265-1.232h6.561a3.9,3.9,0,0,0,.016-0.416,3.728,3.728,0,0,0-3.809-4.017A4.054,4.054,0,0,0,503.692,598.146ZM507.8,595.2a2.394,2.394,0,0,1,2.449,2.1H505.18A2.615,2.615,0,0,1,507.8,595.2Zm6.208,6.945h1.376v-12h-1.376v12Zm3.76-4a4.218,4.218,0,0,0,7.745,2.256l-1.088-.752a2.833,2.833,0,0,1-5.265-1.232h6.561a3.9,3.9,0,0,0,.016-0.416,3.729,3.729,0,0,0-3.809-4.017A4.054,4.054,0,0,0,517.772,598.146Zm4.112-2.945a2.394,2.394,0,0,1,2.448,2.1H519.26A2.615,2.615,0,0,1,521.884,595.2Zm5.583,2.945a4,4,0,0,0,3.921,4.16,3.508,3.508,0,0,0,2.816-1.392v1.232h1.377v-12H534.2v5.232a3.508,3.508,0,0,0-2.816-1.392A4,4,0,0,0,527.467,598.146Zm6.849,0a2.733,2.733,0,1,1-2.72-2.9A2.731,2.731,0,0,1,534.316,598.146Zm9.935,2.768a3.51,3.51,0,0,0,2.817,1.392,4.168,4.168,0,0,0,0-8.321,3.51,3.51,0,0,0-2.817,1.392v-5.232h-1.376v12h1.376v-1.232Zm5.329-2.768a2.726,2.726,0,1,1-2.72-2.9A2.731,2.731,0,0,1,549.58,598.146Zm5.743,7.345,5.249-11.346h-1.536L556.3,600.21l-2.753-6.065h-1.52l3.5,7.585-1.745,3.761h1.536Zm15.041-3.457V600.8a3.041,3.041,0,0,1-.976.16,1.152,1.152,0,0,1-1.328-1.36v-4.193h2.3v-1.264h-2.3v-2.224h-1.377v2.224h-1.7v1.264h1.7v4.369a2.252,2.252,0,0,0,2.449,2.448A3.828,3.828,0,0,0,570.364,602.034Zm2.159,0.112H573.9v-3.968c0-1.872,1.025-2.929,2.321-2.929a1.921,1.921,0,0,1,1.888,2.177v4.72h1.36v-4.928a2.949,2.949,0,0,0-3.024-3.233,2.831,2.831,0,0,0-2.545,1.392v-5.232h-1.376v12Zm9.2-4a4.218,4.218,0,0,0,7.745,2.256l-1.088-.752a2.833,2.833,0,0,1-5.265-1.232h6.561a3.9,3.9,0,0,0,.016-0.416,3.728,3.728,0,0,0-3.808-4.017A4.054,4.054,0,0,0,581.723,598.146Zm4.113-2.945a2.394,2.394,0,0,1,2.448,2.1h-5.073A2.616,2.616,0,0,1,585.836,595.2Zm7.871-4.176a0.966,0.966,0,0,0-.96-0.976,0.994,0.994,0,0,0-.992.976,0.983,0.983,0,0,0,.992.976A0.956,0.956,0,0,0,593.707,591.025Zm-1.664,11.121h1.376v-8h-1.376v8Zm4.384,0H597.8v-3.968c0-1.872,1.1-2.753,2.112-2.753a2.011,2.011,0,0,1,.752.128v-1.424a2.851,2.851,0,0,0-.624-0.064,2.38,2.38,0,0,0-2.24,1.632v-1.552h-1.376v8Zm9.536-4a4.218,4.218,0,0,0,7.745,2.256l-1.089-.752a2.832,2.832,0,0,1-5.264-1.232h6.561a3.9,3.9,0,0,0,.016-0.416,3.729,3.729,0,0,0-3.809-4.017A4.054,4.054,0,0,0,605.963,598.146Zm4.112-2.945a2.4,2.4,0,0,1,2.449,2.1h-5.073A2.615,2.615,0,0,1,610.075,595.2Zm4.72,6.945h1.712l2.432-3.024,2.433,3.024h1.7L619.8,598.1l3.009-3.953h-1.681l-2.192,2.881-2.208-2.881h-1.664l3.008,3.953Zm10.08,3.345h1.376v-4.577a3.508,3.508,0,0,0,2.816,1.392,4.168,4.168,0,0,0,0-8.321,3.508,3.508,0,0,0-2.816,1.392v-1.232h-1.376v11.346Zm6.705-7.345a2.726,2.726,0,1,1-2.721-2.9A2.732,2.732,0,0,1,631.58,598.146Zm3.791,4h1.376v-12h-1.376v12Zm12.113-4a4.185,4.185,0,1,0-4.177,4.16A4.107,4.107,0,0,0,647.484,598.146Zm-6.961,0a2.778,2.778,0,1,1,2.784,2.88A2.751,2.751,0,0,1,640.523,598.146Zm9.327,4h1.377v-3.968c0-1.872,1.1-2.753,2.112-2.753a2.011,2.011,0,0,1,.752.128v-1.424a2.851,2.851,0,0,0-.624-0.064,2.38,2.38,0,0,0-2.24,1.632v-1.552H649.85v8Zm5.344-4a4.218,4.218,0,0,0,7.745,2.256l-1.088-.752a2.832,2.832,0,0,1-5.264-1.232h6.561a3.9,3.9,0,0,0,.016-0.416,3.729,3.729,0,0,0-3.809-4.017A4.055,4.055,0,0,0,655.194,598.146Zm4.113-2.945a2.394,2.394,0,0,1,2.448,2.1h-5.072A2.615,2.615,0,0,1,659.307,595.2Zm6.207,6.945h1.377v-3.968c0-1.872,1.1-2.753,2.112-2.753a2.011,2.011,0,0,1,.752.128v-1.424a2.851,2.851,0,0,0-.624-0.064,2.38,2.38,0,0,0-2.24,1.632v-1.552h-1.377v8Zm15.345-2.224c0-1.2-.752-1.968-2.112-2.416l-0.864-.288c-0.945-.3-1.233-0.608-1.233-1.121a1.133,1.133,0,0,1,1.345-.928,2.161,2.161,0,0,1,1.7.832l0.9-.864a3.1,3.1,0,0,0-2.56-1.152c-1.585,0-2.705.88-2.705,2.176a2.415,2.415,0,0,0,1.984,2.321l0.785,0.256c1.04,0.336,1.424.72,1.424,1.28a1.218,1.218,0,0,1-1.408,1.088,2.147,2.147,0,0,1-2.049-1.264l-1.12.608a3.178,3.178,0,0,0,3.137,1.856C679.691,602.306,680.859,601.49,680.859,599.922Zm2.367,5.569H684.6v-4.577a3.51,3.51,0,0,0,2.817,1.392,4.168,4.168,0,0,0,0-8.321,3.51,3.51,0,0,0-2.817,1.392v-1.232h-1.376v11.346Zm6.705-7.345a2.726,2.726,0,1,1-2.72-2.9A2.731,2.731,0,0,1,689.931,598.146Zm5.455-7.121a0.966,0.966,0,0,0-.96-0.976,0.994,0.994,0,0,0-.992.976,0.983,0.983,0,0,0,.992.976A0.956,0.956,0,0,0,695.386,591.025Zm-1.664,11.121H695.1v-8h-1.376v8Zm4.384,0h1.376v-3.968c0-1.872,1.1-2.753,2.112-2.753a2.016,2.016,0,0,1,.753.128v-1.424a2.86,2.86,0,0,0-.625-0.064,2.38,2.38,0,0,0-2.24,1.632v-1.552h-1.376v8Zm7.92-11.121a0.966,0.966,0,0,0-.96-0.976,0.994,0.994,0,0,0-.992.976,0.983,0.983,0,0,0,.992.976A0.956,0.956,0,0,0,706.026,591.025Zm-1.664,11.121h1.376v-8h-1.376v8Zm8.72-.112V600.8a3.041,3.041,0,0,1-.976.16,1.152,1.152,0,0,1-1.328-1.36v-4.193h2.3v-1.264h-2.3v-2.224H709.4v2.224h-1.7v1.264h1.7v4.369a2.252,2.252,0,0,0,2.448,2.448A3.828,3.828,0,0,0,713.082,602.034Zm7.344-2.112c0-1.2-.752-1.968-2.112-2.416l-0.864-.288c-0.944-.3-1.232-0.608-1.232-1.121a1.132,1.132,0,0,1,1.344-.928,2.161,2.161,0,0,1,1.7.832l0.9-.864a3.1,3.1,0,0,0-2.56-1.152c-1.584,0-2.7.88-2.7,2.176a2.415,2.415,0,0,0,1.984,2.321l0.784,0.256c1.04,0.336,1.424.72,1.424,1.28a1.218,1.218,0,0,1-1.408,1.088,2.147,2.147,0,0,1-2.048-1.264l-1.12.608a3.178,3.178,0,0,0,3.136,1.856C719.258,602.306,720.426,601.49,720.426,599.922Zm4.272,1.152a1.184,1.184,0,1,0-1.184,1.2A1.205,1.205,0,0,0,724.7,601.074Zm6.255-4.608a5.905,5.905,0,0,0,10.9,3.12l-1.248-.752a4.465,4.465,0,1,1,0-4.737l1.248-.752A5.905,5.905,0,0,0,730.953,596.466Zm12.944,2.592c0,1.984,1.184,3.248,2.945,3.248a2.752,2.752,0,0,0,2.464-1.392v1.232h1.376v-8h-1.376v3.969c0,1.84-.976,2.928-2.224,2.928-1.105,0-1.809-.848-1.809-2.192v-4.705H743.9v4.913Zm9.776,3.088h1.376v-3.968c0-1.872,1.1-2.753,2.113-2.753a2.011,2.011,0,0,1,.752.128v-1.424a2.851,2.851,0,0,0-.624-0.064,2.381,2.381,0,0,0-2.241,1.632v-1.552h-1.376v8Zm7.92-11.121a0.966,0.966,0,0,0-.96-0.976,0.994,0.994,0,0,0-.992.976,0.983,0.983,0,0,0,.992.976A0.956,0.956,0,0,0,761.593,591.025Zm-1.664,11.121h1.376v-8h-1.376v8Zm12.113-4a4.185,4.185,0,1,0-4.176,4.16A4.106,4.106,0,0,0,772.042,598.146Zm-6.961,0a2.778,2.778,0,1,1,2.785,2.88A2.751,2.751,0,0,1,765.081,598.146Zm9.216,0.912c0,1.984,1.184,3.248,2.944,3.248a2.755,2.755,0,0,0,2.465-1.392v1.232h1.376v-8h-1.376v3.969c0,1.84-.977,2.928-2.225,2.928-1.1,0-1.808-.848-1.808-2.192v-4.705H774.3v4.913Zm14.96,0.864c0-1.2-.752-1.968-2.112-2.416l-0.864-.288c-0.944-.3-1.232-0.608-1.232-1.121a1.132,1.132,0,0,1,1.344-.928,2.161,2.161,0,0,1,1.7.832l0.9-.864a3.1,3.1,0,0,0-2.56-1.152c-1.584,0-2.7.88-2.7,2.176a2.415,2.415,0,0,0,1.984,2.321l0.784,0.256c1.04,0.336,1.424.72,1.424,1.28a1.218,1.218,0,0,1-1.408,1.088,2.147,2.147,0,0,1-2.048-1.264l-1.12.608a3.178,3.178,0,0,0,3.136,1.856C788.089,602.306,789.257,601.49,789.257,599.922Zm4.08,1.872a1.368,1.368,0,0,0,.224-0.72,1.184,1.184,0,1,0-2.368,0,1.191,1.191,0,0,0,.656,1.072l-1.073,2.289h0.913Zm14.352-1.632-1.2-.672a2.712,2.712,0,0,1-2.5,1.536,2.882,2.882,0,0,1,0-5.761,2.711,2.711,0,0,1,2.5,1.537l1.2-.673a4.143,4.143,0,0,0-3.7-2.144,4.161,4.161,0,1,0,0,8.321A4.143,4.143,0,0,0,807.689,600.162Zm9.9-2.016a4.185,4.185,0,1,0-4.176,4.16A4.106,4.106,0,0,0,817.593,598.146Zm-6.961,0a2.778,2.778,0,1,1,2.785,2.88A2.751,2.751,0,0,1,810.632,598.146Zm9.328,4h1.376v-3.968c0-1.872,1.024-2.929,2.32-2.929a1.921,1.921,0,0,1,1.889,2.177v4.72h1.36v-4.928a2.949,2.949,0,0,0-3.025-3.233,2.829,2.829,0,0,0-2.544,1.392v-1.232H819.96v8Zm9.824,0h1.376v-3.968c0-1.872,1.024-2.929,2.32-2.929a1.921,1.921,0,0,1,1.888,2.177v4.72h1.361v-4.928a2.949,2.949,0,0,0-3.025-3.233,2.829,2.829,0,0,0-2.544,1.392v-1.232h-1.376v8Zm9.2-4a4.219,4.219,0,0,0,7.746,2.256l-1.089-.752a2.832,2.832,0,0,1-5.264-1.232h6.561a3.9,3.9,0,0,0,.016-0.416,3.729,3.729,0,0,0-3.809-4.017A4.055,4.055,0,0,0,838.983,598.146ZM843.1,595.2a2.394,2.394,0,0,1,2.448,2.1h-5.072A2.615,2.615,0,0,1,843.1,595.2Zm13.472,4.961-1.2-.672a2.712,2.712,0,0,1-2.5,1.536,2.882,2.882,0,0,1,0-5.761,2.711,2.711,0,0,1,2.5,1.537l1.2-.673a4.143,4.143,0,0,0-3.7-2.144,4.161,4.161,0,1,0,0,8.321A4.143,4.143,0,0,0,856.568,600.162Zm6.512,1.872V600.8a3.041,3.041,0,0,1-.976.16,1.152,1.152,0,0,1-1.328-1.36v-4.193h2.3v-1.264h-2.3v-2.224H859.4v2.224h-1.7v1.264h1.7v4.369a2.252,2.252,0,0,0,2.449,2.448A3.828,3.828,0,0,0,863.08,602.034Zm1.423-3.888a4.218,4.218,0,0,0,7.745,2.256l-1.088-.752a2.833,2.833,0,0,1-5.265-1.232h6.561a3.9,3.9,0,0,0,.016-0.416,3.728,3.728,0,0,0-3.808-4.017A4.054,4.054,0,0,0,864.5,598.146Zm4.113-2.945a2.394,2.394,0,0,1,2.448,2.1h-5.072A2.615,2.615,0,0,1,868.616,595.2Zm5.583,2.945a4,4,0,0,0,3.921,4.16,3.508,3.508,0,0,0,2.816-1.392v1.232h1.376v-12h-1.376v5.232a3.508,3.508,0,0,0-2.816-1.392A4,4,0,0,0,874.2,598.146Zm6.849,0a2.733,2.733,0,1,1-2.72-2.9A2.731,2.731,0,0,1,881.048,598.146Zm7.935,0a4,4,0,0,0,3.92,4.16,3.509,3.509,0,0,0,2.817-1.392v1.232H897.1v-8H895.72v1.232a3.509,3.509,0,0,0-2.817-1.392A4,4,0,0,0,888.983,598.146Zm6.849,0a2.733,2.733,0,1,1-2.72-2.9A2.731,2.731,0,0,1,895.832,598.146Zm4.255,4h1.376v-3.968c0-1.872,1.024-2.929,2.32-2.929a1.921,1.921,0,0,1,1.889,2.177v4.72h1.36v-4.928a2.949,2.949,0,0,0-3.025-3.233,2.829,2.829,0,0,0-2.544,1.392v-1.232h-1.376v8Zm9.2-4a4,4,0,0,0,3.92,4.16,3.508,3.508,0,0,0,2.816-1.392v1.232H917.4v-12h-1.377v5.232a3.508,3.508,0,0,0-2.816-1.392A4,4,0,0,0,909.287,598.146Zm6.849,0a2.733,2.733,0,1,1-2.721-2.9A2.732,2.732,0,0,1,916.136,598.146Zm16.287,0a4.185,4.185,0,1,0-4.176,4.16A4.106,4.106,0,0,0,932.423,598.146Zm-6.961,0a2.778,2.778,0,1,1,2.785,2.88A2.751,2.751,0,0,1,925.462,598.146Zm9.216,0.912c0,1.984,1.184,3.248,2.944,3.248a2.753,2.753,0,0,0,2.465-1.392v1.232h1.376v-8h-1.376v3.969c0,1.84-.976,2.928-2.224,2.928-1.105,0-1.809-.848-1.809-2.192v-4.705h-1.376v4.913Zm14.113,2.976V600.8a3.041,3.041,0,0,1-.976.16,1.152,1.152,0,0,1-1.329-1.36v-4.193h2.305v-1.264h-2.305v-2.224H945.11v2.224h-1.7v1.264h1.7v4.369a2.252,2.252,0,0,0,2.448,2.448A3.83,3.83,0,0,0,948.791,602.034Zm8.127-11.009a0.966,0.966,0,0,0-.96-0.976,0.994,0.994,0,0,0-.992.976,0.983,0.983,0,0,0,.992.976A0.956,0.956,0,0,0,956.918,591.025Zm-1.664,11.121h1.376v-8h-1.376v8Zm4.384,0h1.376v-3.968c0-1.872,1.024-2.929,2.32-2.929a1.921,1.921,0,0,1,1.889,2.177v4.72h1.36v-4.928a2.949,2.949,0,0,0-3.025-3.233,2.829,2.829,0,0,0-2.544,1.392v-1.232h-1.376v8Zm18.192-.112V600.8a3.041,3.041,0,0,1-.976.16,1.152,1.152,0,0,1-1.328-1.36v-4.193h2.3v-1.264h-2.3v-2.224h-1.377v2.224h-1.7v1.264h1.7v4.369a2.253,2.253,0,0,0,2.449,2.448A3.828,3.828,0,0,0,977.83,602.034Zm2.159,0.112h1.376v-3.968c0-1.872,1.025-2.929,2.321-2.929a1.921,1.921,0,0,1,1.888,2.177v4.72h1.36v-4.928a2.949,2.949,0,0,0-3.024-3.233,2.832,2.832,0,0,0-2.545,1.392v-5.232h-1.376v12Zm9.2-4a4.218,4.218,0,0,0,7.745,2.256l-1.088-.752a2.833,2.833,0,0,1-5.265-1.232h6.561a3.9,3.9,0,0,0,.016-0.416,3.728,3.728,0,0,0-3.808-4.017A4.054,4.054,0,0,0,989.189,598.146ZM993.3,595.2a2.394,2.394,0,0,1,2.448,2.1h-5.073A2.616,2.616,0,0,1,993.3,595.2Zm17.008,6.945h1.22l2.72-8h-1.46l-1.94,5.841-2-5.841h-1.05l-2,5.841-1.94-5.841h-1.44l2.72,8h1.22l1.98-5.76Zm13.52-4a4.185,4.185,0,1,0-4.18,4.16A4.109,4.109,0,0,0,1023.83,598.146Zm-6.96,0a2.777,2.777,0,1,1,2.78,2.88A2.75,2.75,0,0,1,1016.87,598.146Zm9.33,4h1.37v-3.968c0-1.872,1.11-2.753,2.12-2.753a2.021,2.021,0,0,1,.75.128v-1.424a2.929,2.929,0,0,0-.63-0.064,2.388,2.388,0,0,0-2.24,1.632v-1.552h-1.37v8Zm6.25,0h1.38v-12h-1.38v12Zm3.76-4a4,4,0,0,0,3.92,4.16,3.519,3.519,0,0,0,2.82-1.392v1.232h1.38v-12h-1.38v5.232a3.519,3.519,0,0,0-2.82-1.392A4,4,0,0,0,1036.21,598.146Zm6.85,0a2.735,2.735,0,1,1-2.72-2.9A2.729,2.729,0,0,1,1043.06,598.146Zm5.97,3.648a1.347,1.347,0,0,0,.22-0.72,1.185,1.185,0,1,0-1.71,1.072l-1.07,2.289h0.91Zm14.82-3.648a4.185,4.185,0,1,0-4.18,4.16A4.109,4.109,0,0,0,1063.85,598.146Zm-6.97,0a2.782,2.782,0,1,1,2.79,2.88A2.752,2.752,0,0,1,1056.88,598.146Zm9.22,0.912c0,1.984,1.18,3.248,2.94,3.248a2.762,2.762,0,0,0,2.47-1.392v1.232h1.37v-8h-1.37v3.969c0,1.84-.98,2.928-2.23,2.928-1.1,0-1.8-.848-1.8-2.192v-4.705h-1.38v4.913Zm9.78,3.088h1.37v-3.968c0-1.872,1.11-2.753,2.11-2.753a2.039,2.039,0,0,1,.76.128v-1.424a2.929,2.929,0,0,0-.63-0.064,2.378,2.378,0,0,0-2.24,1.632v-1.552h-1.37v8ZM46.948,624.162l-1.2-.672a2.712,2.712,0,0,1-2.5,1.536,2.882,2.882,0,0,1,0-5.761,2.711,2.711,0,0,1,2.5,1.537l1.2-.673a4.144,4.144,0,0,0-3.7-2.144,4.161,4.161,0,1,0,0,8.321A4.144,4.144,0,0,0,46.948,624.162Zm2.175,1.984H50.5v-12H49.122v12Zm12.113-4a4.185,4.185,0,1,0-4.177,4.16A4.106,4.106,0,0,0,61.235,622.146Zm-6.961,0a2.778,2.778,0,1,1,2.784,2.88A2.751,2.751,0,0,1,54.274,622.146Zm13.52,3.888V624.8a3.042,3.042,0,0,1-.976.16,1.152,1.152,0,0,1-1.328-1.36v-4.193h2.3v-1.264h-2.3v-2.224H64.114v2.224h-1.7v1.264h1.7v4.369a2.252,2.252,0,0,0,2.448,2.448A3.829,3.829,0,0,0,67.795,626.034Zm2.159,0.112h1.376v-3.968c0-1.873,1.024-2.929,2.32-2.929a1.921,1.921,0,0,1,1.888,2.177v4.72H76.9v-4.928a2.949,2.949,0,0,0-3.025-3.233,2.829,2.829,0,0,0-2.544,1.392v-5.232H69.954v12Zm11.488-11.121a0.966,0.966,0,0,0-.96-0.976,0.994,0.994,0,0,0-.992.976,0.983,0.983,0,0,0,.992.976A0.956,0.956,0,0,0,81.442,615.025Zm-1.664,11.121h1.376v-8H79.778v8Zm4.384,0h1.376v-3.968c0-1.873,1.024-2.929,2.32-2.929a1.921,1.921,0,0,1,1.888,2.177v4.72h1.36v-4.928a2.949,2.949,0,0,0-3.025-3.233,2.829,2.829,0,0,0-2.544,1.392v-1.232H84.162v8Zm17.281-.464v-7.537h-1.376v1.232a3.406,3.406,0,0,0-2.785-1.392,4.076,4.076,0,0,0,0,8.145,3.418,3.418,0,0,0,2.785-1.408v0.912a2.558,2.558,0,0,1-2.673,2.769,3.421,3.421,0,0,1-2.8-1.345l-0.96.961a4.75,4.75,0,0,0,3.777,1.632A3.7,3.7,0,0,0,101.443,625.682ZM94.77,622.05a2.706,2.706,0,1,1,2.7,2.8A2.667,2.667,0,0,1,94.77,622.05Zm15.632-7.025a0.966,0.966,0,0,0-.96-0.976,0.994,0.994,0,0,0-.993.976,0.984,0.984,0,0,0,.993.976A0.956,0.956,0,0,0,110.4,615.025Zm-1.665,11.121h1.377v-8h-1.377v8Zm9.569-2.224c0-1.2-.752-1.968-2.112-2.416l-0.864-.288c-0.944-.3-1.233-0.608-1.233-1.121a1.133,1.133,0,0,1,1.345-.928,2.161,2.161,0,0,1,1.7.832l0.9-.864a3.1,3.1,0,0,0-2.56-1.152c-1.585,0-2.7.88-2.7,2.176a2.414,2.414,0,0,0,1.985,2.321l0.784,0.256c1.04,0.336,1.424.72,1.424,1.28a1.218,1.218,0,0,1-1.408,1.088,2.148,2.148,0,0,1-2.049-1.264l-1.12.608a3.178,3.178,0,0,0,3.137,1.856C117.138,626.306,118.306,625.49,118.306,623.922Zm6.047-1.776a4,4,0,0,0,3.92,4.16,3.509,3.509,0,0,0,2.817-1.392v1.232h1.376v-12H131.09v5.232a3.509,3.509,0,0,0-2.817-1.392A4,4,0,0,0,124.353,622.146Zm6.849,0a2.733,2.733,0,1,1-2.721-2.9A2.732,2.732,0,0,1,131.2,622.146Zm3.631,0a4.218,4.218,0,0,0,7.745,2.256l-1.088-.752a2.833,2.833,0,0,1-5.265-1.232h6.561A3.9,3.9,0,0,0,142.8,622a3.728,3.728,0,0,0-3.809-4.017A4.054,4.054,0,0,0,134.833,622.146Zm4.112-2.945a2.4,2.4,0,0,1,2.449,2.1h-5.073A2.615,2.615,0,0,1,138.945,619.2Zm11.392,4.721c0-1.2-.752-1.968-2.112-2.416l-0.864-.288c-0.944-.3-1.232-0.608-1.232-1.121a1.132,1.132,0,0,1,1.344-.928,2.161,2.161,0,0,1,1.7.832l0.9-.864a3.1,3.1,0,0,0-2.56-1.152c-1.584,0-2.7.88-2.7,2.176a2.415,2.415,0,0,0,1.984,2.321l0.784,0.256c1.04,0.336,1.424.72,1.424,1.28a1.218,1.218,0,0,1-1.408,1.088,2.147,2.147,0,0,1-2.048-1.264l-1.12.608a3.178,3.178,0,0,0,3.136,1.856C149.169,626.306,150.337,625.49,150.337,623.922Zm4.032-8.9a0.966,0.966,0,0,0-.96-0.976,0.994,0.994,0,0,0-.992.976,0.983,0.983,0,0,0,.992.976A0.956,0.956,0,0,0,154.369,615.025Zm-1.664,11.121h1.376v-8h-1.376v8Zm11.841-.464v-7.537h-1.377v1.232a3.4,3.4,0,0,0-2.784-1.392,4.076,4.076,0,0,0,0,8.145,3.416,3.416,0,0,0,2.784-1.408v0.912A2.558,2.558,0,0,1,160.5,628.4a3.42,3.42,0,0,1-2.8-1.345l-0.961.961a4.752,4.752,0,0,0,3.777,1.632A3.7,3.7,0,0,0,164.546,625.682Zm-6.673-3.632a2.706,2.706,0,1,1,2.7,2.8A2.667,2.667,0,0,1,157.873,622.05Zm9.663,4.1h1.376v-3.968c0-1.873,1.025-2.929,2.321-2.929a1.921,1.921,0,0,1,1.888,2.177v4.72h1.36v-4.928a2.949,2.949,0,0,0-3.024-3.233,2.832,2.832,0,0,0-2.545,1.392v-1.232h-1.376v8Zm9.2-4a4.218,4.218,0,0,0,7.745,2.256l-1.088-.752a2.833,2.833,0,0,1-5.265-1.232h6.561a3.9,3.9,0,0,0,.016-0.416,3.728,3.728,0,0,0-3.808-4.017A4.054,4.054,0,0,0,176.736,622.146Zm4.113-2.945a2.394,2.394,0,0,1,2.448,2.1h-5.073A2.616,2.616,0,0,1,180.849,619.2Zm5.583,2.945a4,4,0,0,0,3.92,4.16,3.509,3.509,0,0,0,2.817-1.392v1.232h1.376v-12h-1.376v5.232a3.509,3.509,0,0,0-2.817-1.392A4,4,0,0,0,186.432,622.146Zm6.849,0a2.733,2.733,0,1,1-2.72-2.9A2.731,2.731,0,0,1,193.281,622.146Zm9.023,4h1.376v-6.737H206v-1.264H203.68v-1.472a1.152,1.152,0,0,1,1.328-1.36,3.233,3.233,0,0,1,.993.16v-1.216a3.646,3.646,0,0,0-1.249-.208,2.285,2.285,0,0,0-2.448,2.48v1.616h-1.7v1.264h1.7v6.737Zm13.121-4a4.185,4.185,0,1,0-4.177,4.16A4.106,4.106,0,0,0,215.425,622.146Zm-6.961,0a2.778,2.778,0,1,1,2.784,2.88A2.751,2.751,0,0,1,208.464,622.146Zm9.328,4h1.376v-3.968c0-1.873,1.1-2.753,2.112-2.753a2.011,2.011,0,0,1,.752.128v-1.424a2.851,2.851,0,0,0-.624-0.064,2.38,2.38,0,0,0-2.24,1.632v-1.552h-1.376v8Zm9.536-4a4,4,0,0,0,3.92,4.16,3.512,3.512,0,0,0,2.817-1.392v1.232h1.376v-8h-1.376v1.232a3.512,3.512,0,0,0-2.817-1.392A4,4,0,0,0,227.328,622.146Zm6.849,0a2.733,2.733,0,1,1-2.721-2.9A2.732,2.732,0,0,1,234.177,622.146Zm8.558,4h1.376v-12h-1.376v12Zm6.048-11.121a0.966,0.966,0,0,0-.96-0.976,0.994,0.994,0,0,0-.992.976,0.983,0.983,0,0,0,.992.976A0.956,0.956,0,0,0,248.783,615.025Zm-1.664,11.121H248.5v-8h-1.376v8Zm5.056,0h1.376v-6.737h2.321v-1.264h-2.321v-1.472a1.152,1.152,0,0,1,1.328-1.36,3.223,3.223,0,0,1,.993.16v-1.216a3.638,3.638,0,0,0-1.249-.208,2.285,2.285,0,0,0-2.448,2.48v1.616h-1.7v1.264h1.7v6.737Zm4.768-4a4.218,4.218,0,0,0,7.745,2.256l-1.088-.752a2.833,2.833,0,0,1-5.265-1.232H264.9a3.9,3.9,0,0,0,.016-0.416,3.728,3.728,0,0,0-3.808-4.017A4.054,4.054,0,0,0,256.943,622.146Zm4.113-2.945a2.394,2.394,0,0,1,2.448,2.1h-5.073A2.616,2.616,0,0,1,261.056,619.2Zm12.175-4.176a0.966,0.966,0,0,0-.96-0.976,0.994,0.994,0,0,0-.992.976,0.983,0.983,0,0,0,.992.976A0.956,0.956,0,0,0,273.231,615.025Zm-1.664,11.121h1.376v-8h-1.376v8Zm4.384,0h1.376v-3.968c0-1.873,1.024-2.929,2.32-2.929a1.921,1.921,0,0,1,1.888,2.177v4.72H282.9v-4.928a2.949,2.949,0,0,0-3.025-3.233,2.829,2.829,0,0,0-2.544,1.392v-1.232h-1.376v8Zm14.127,0h1.377v-3.968c0-1.808.912-2.929,2.208-2.929,1.04,0,1.568.9,1.568,2.193v4.7h1.376v-3.968c0-1.808.9-2.929,2.193-2.929,1.04,0,1.584.9,1.584,2.193v4.7h1.376v-4.912c0-1.953-1.056-3.249-2.8-3.249a2.769,2.769,0,0,0-2.625,1.712,2.515,2.515,0,0,0-2.464-1.712,2.689,2.689,0,0,0-2.416,1.392v-1.232h-1.377v8Zm22.289-4a4.185,4.185,0,1,0-4.176,4.16A4.106,4.106,0,0,0,312.367,622.146Zm-6.961,0a2.778,2.778,0,1,1,2.785,2.88A2.751,2.751,0,0,1,305.406,622.146Zm13.521,3.888V624.8a3.041,3.041,0,0,1-.976.16,1.153,1.153,0,0,1-1.329-1.36v-4.193h2.305v-1.264h-2.305v-2.224h-1.376v2.224h-1.7v1.264h1.7v4.369a2.252,2.252,0,0,0,2.449,2.448A3.828,3.828,0,0,0,318.927,626.034Zm3.823-11.009a0.966,0.966,0,0,0-.96-0.976,0.994,0.994,0,0,0-.992.976,0.983,0.983,0,0,0,.992.976A0.956,0.956,0,0,0,322.75,615.025Zm-1.664,11.121h1.376v-8h-1.376v8Zm12.113-4a4.185,4.185,0,1,0-4.176,4.16A4.106,4.106,0,0,0,333.2,622.146Zm-6.961,0a2.778,2.778,0,1,1,2.785,2.88A2.751,2.751,0,0,1,326.238,622.146Zm9.328,4h1.376v-3.968c0-1.873,1.024-2.929,2.32-2.929a1.921,1.921,0,0,1,1.889,2.177v4.72h1.36v-4.928a2.949,2.949,0,0,0-3.025-3.233,2.829,2.829,0,0,0-2.544,1.392v-1.232h-1.376v8Zm11.728-1.072a1.184,1.184,0,1,0-1.184,1.2A1.205,1.205,0,0,0,347.294,625.074Zm15.521,1.072h1.328l3.1-11.361H365.7l-2.384,8.865-3.281-9.057-3.264,9.057-2.384-8.865h-1.553l3.105,11.361h1.328l2.784-7.713Zm5.39-4a4.218,4.218,0,0,0,7.745,2.256l-1.088-.752a2.832,2.832,0,0,1-5.264-1.232h6.561a3.9,3.9,0,0,0,.016-0.416,3.729,3.729,0,0,0-3.809-4.017A4.055,4.055,0,0,0,368.205,622.146Zm4.113-2.945a2.394,2.394,0,0,1,2.448,2.1h-5.072A2.615,2.615,0,0,1,372.318,619.2Zm14.576,6.833V624.8a3.041,3.041,0,0,1-.976.16,1.153,1.153,0,0,1-1.329-1.36v-4.193h2.305v-1.264h-2.305v-2.224h-1.376v2.224h-1.7v1.264h1.7v4.369a2.252,2.252,0,0,0,2.449,2.448A3.828,3.828,0,0,0,386.894,626.034Zm2.159,0.112h1.376v-3.968c0-1.873,1.105-2.753,2.113-2.753a2.011,2.011,0,0,1,.752.128v-1.424a2.851,2.851,0,0,0-.624-0.064,2.381,2.381,0,0,0-2.241,1.632v-1.552h-1.376v8Zm5.36-4a4,4,0,0,0,3.921,4.16,3.508,3.508,0,0,0,2.816-1.392v1.232h1.376v-8H401.15v1.232a3.508,3.508,0,0,0-2.816-1.392A4,4,0,0,0,394.413,622.146Zm6.849,0a2.733,2.733,0,1,1-2.72-2.9A2.731,2.731,0,0,1,401.262,622.146Zm6.751,4h1.153l3.7-8h-1.536l-2.737,6.049-2.736-6.049h-1.536Zm5.84-4A4.218,4.218,0,0,0,421.6,624.4l-1.088-.752a2.833,2.833,0,0,1-5.265-1.232h6.561a3.9,3.9,0,0,0,.016-0.416,3.728,3.728,0,0,0-3.808-4.017A4.054,4.054,0,0,0,413.853,622.146Zm4.113-2.945a2.394,2.394,0,0,1,2.448,2.1h-5.073A2.616,2.616,0,0,1,417.966,619.2Zm6.207,6.945h1.376v-12h-1.376v12Zm8.688,0h1.376v-3.968c0-1.873,1.024-2.929,2.32-2.929a1.921,1.921,0,0,1,1.888,2.177v4.72h1.361v-4.928a2.949,2.949,0,0,0-3.025-3.233,2.829,2.829,0,0,0-2.544,1.392v-1.232h-1.376v8Zm9.2-4a4.218,4.218,0,0,0,7.745,2.256l-1.088-.752a2.832,2.832,0,0,1-5.264-1.232h6.561A3.9,3.9,0,0,0,450.03,622a3.729,3.729,0,0,0-3.809-4.017A4.055,4.055,0,0,0,442.06,622.146Zm4.113-2.945a2.394,2.394,0,0,1,2.448,2.1h-5.072A2.615,2.615,0,0,1,446.173,619.2Zm5.583,2.945a4,4,0,0,0,3.921,4.16,3.508,3.508,0,0,0,2.816-1.392v1.232h1.376v-8h-1.376v1.232a3.508,3.508,0,0,0-2.816-1.392A4,4,0,0,0,451.756,622.146Zm6.849,0a2.733,2.733,0,1,1-2.72-2.9A2.731,2.731,0,0,1,458.605,622.146Zm4.255,4h1.376v-3.968c0-1.873,1.105-2.753,2.113-2.753a2.011,2.011,0,0,1,.752.128v-1.424a2.851,2.851,0,0,0-.624-0.064,2.381,2.381,0,0,0-2.241,1.632v-1.552H462.86v8Zm9.536-4a4,4,0,0,0,3.921,4.16,3.508,3.508,0,0,0,2.816-1.392v1.232h1.376v-8h-1.376v1.232a3.508,3.508,0,0,0-2.816-1.392A4,4,0,0,0,472.4,622.146Zm6.849,0a2.733,2.733,0,1,1-2.72-2.9A2.731,2.731,0,0,1,479.245,622.146Zm4.255,4h1.376v-3.968c0-1.873,1.024-2.929,2.32-2.929a1.921,1.921,0,0,1,1.889,2.177v4.72h1.36v-4.928a2.949,2.949,0,0,0-3.025-3.233,2.829,2.829,0,0,0-2.544,1.392v-1.232H483.5v8Zm9.2-4a4,4,0,0,0,3.92,4.16,3.512,3.512,0,0,0,2.817-1.392v1.232h1.376v-12h-1.376v5.232a3.512,3.512,0,0,0-2.817-1.392A4,4,0,0,0,492.7,622.146Zm6.849,0a2.733,2.733,0,1,1-2.721-2.9A2.732,2.732,0,0,1,499.549,622.146Zm9.023,4h1.376v-6.737h2.32v-1.264h-2.32v-1.472a1.152,1.152,0,0,1,1.328-1.36,3.222,3.222,0,0,1,.992.16v-1.216a3.636,3.636,0,0,0-1.248-.208,2.285,2.285,0,0,0-2.448,2.48v1.616h-1.7v1.264h1.7v6.737Zm4.768-4a4,4,0,0,0,3.92,4.16,3.512,3.512,0,0,0,2.817-1.392v1.232h1.376v-8h-1.376v1.232a3.512,3.512,0,0,0-2.817-1.392A4,4,0,0,0,513.34,622.146Zm6.848,0a2.733,2.733,0,1,1-2.72-2.9A2.731,2.731,0,0,1,520.188,622.146Zm4.255,4h1.377v-3.968c0-1.873,1.1-2.753,2.112-2.753a2.011,2.011,0,0,1,.752.128v-1.424a2.851,2.851,0,0,0-.624-0.064,2.38,2.38,0,0,0-2.24,1.632v-1.552h-1.377v8Zm15.345-2.224c0-1.2-.752-1.968-2.112-2.416l-0.864-.288c-0.944-.3-1.232-0.608-1.232-1.121a1.132,1.132,0,0,1,1.344-.928,2.161,2.161,0,0,1,1.7.832l0.9-.864a3.1,3.1,0,0,0-2.56-1.152c-1.585,0-2.705.88-2.705,2.176a2.414,2.414,0,0,0,1.985,2.321l0.784,0.256c1.04,0.336,1.424.72,1.424,1.28a1.218,1.218,0,0,1-1.408,1.088,2.148,2.148,0,0,1-2.049-1.264l-1.12.608A3.179,3.179,0,0,0,537,626.306C538.62,626.306,539.788,625.49,539.788,623.922Zm1.743-1.776a4.218,4.218,0,0,0,7.745,2.256l-1.088-.752a2.833,2.833,0,0,1-5.265-1.232h6.561A3.9,3.9,0,0,0,549.5,622a3.728,3.728,0,0,0-3.808-4.017A4.054,4.054,0,0,0,541.531,622.146Zm4.113-2.945a2.394,2.394,0,0,1,2.448,2.1h-5.073A2.616,2.616,0,0,1,545.644,619.2Zm5.583,2.945a4,4,0,0,0,3.921,4.16,3.508,3.508,0,0,0,2.816-1.392v1.232h1.376v-8h-1.376v1.232a3.508,3.508,0,0,0-2.816-1.392A4,4,0,0,0,551.227,622.146Zm6.849,0a2.733,2.733,0,1,1-2.72-2.9A2.731,2.731,0,0,1,558.076,622.146Zm4.255,4h1.376v-3.968c0-1.873,1.1-2.753,2.113-2.753a2.011,2.011,0,0,1,.752.128v-1.424a2.851,2.851,0,0,0-.624-0.064,2.38,2.38,0,0,0-2.241,1.632v-1.552h-1.376v8Zm13.233-1.984-1.2-.672a2.712,2.712,0,0,1-2.5,1.536,2.882,2.882,0,0,1,0-5.761,2.711,2.711,0,0,1,2.5,1.537l1.2-.673a4.143,4.143,0,0,0-3.7-2.144,4.161,4.161,0,1,0,0,8.321A4.143,4.143,0,0,0,575.564,624.162Zm2.175,1.984h1.376v-3.968c0-1.873,1.024-2.929,2.32-2.929a1.921,1.921,0,0,1,1.889,2.177v4.72h1.36v-4.928a2.949,2.949,0,0,0-3.024-3.233,2.829,2.829,0,0,0-2.545,1.392v-5.232h-1.376v12Zm11.488-11.121a0.966,0.966,0,0,0-.96-0.976,0.994,0.994,0,0,0-.992.976,0.983,0.983,0,0,0,.992.976A0.956,0.956,0,0,0,589.227,615.025Zm-1.664,11.121h1.376v-8h-1.376v8Zm4.384,0h1.376v-3.968c0-1.873,1.024-2.929,2.32-2.929a1.921,1.921,0,0,1,1.888,2.177v4.72h1.361v-4.928a2.949,2.949,0,0,0-3.025-3.233,2.829,2.829,0,0,0-2.544,1.392v-1.232h-1.376v8Zm17.281-.464v-7.537h-1.377v1.232a3.4,3.4,0,0,0-2.784-1.392,4.076,4.076,0,0,0,0,8.145,3.416,3.416,0,0,0,2.784-1.408v0.912a2.558,2.558,0,0,1-2.672,2.769,3.42,3.42,0,0,1-2.8-1.345l-0.961.961a4.753,4.753,0,0,0,3.777,1.632A3.7,3.7,0,0,0,609.228,625.682Zm-6.673-3.632a2.706,2.706,0,1,1,2.7,2.8A2.667,2.667,0,0,1,602.555,622.05Zm14.432,4.1h1.376v-6.737h2.32v-1.264h-2.32v-1.472a1.152,1.152,0,0,1,1.328-1.36,3.222,3.222,0,0,1,.992.16v-1.216a3.636,3.636,0,0,0-1.248-.208,2.285,2.285,0,0,0-2.448,2.48v1.616h-1.7v1.264h1.7v6.737Zm13.121-4a4.185,4.185,0,1,0-4.177,4.16A4.107,4.107,0,0,0,630.108,622.146Zm-6.961,0a2.778,2.778,0,1,1,2.784,2.88A2.751,2.751,0,0,1,623.147,622.146Zm9.327,4h1.376v-3.968c0-1.873,1.105-2.753,2.113-2.753a2.011,2.011,0,0,1,.752.128v-1.424a2.851,2.851,0,0,0-.624-0.064,2.382,2.382,0,0,0-2.241,1.632v-1.552h-1.376v8Zm14.225-.112V624.8a3.041,3.041,0,0,1-.976.16,1.153,1.153,0,0,1-1.329-1.36v-4.193h2.3v-1.264h-2.3v-2.224h-1.376v2.224h-1.7v1.264h1.7v4.369a2.252,2.252,0,0,0,2.449,2.448A3.828,3.828,0,0,0,646.7,626.034Zm2.159,0.112h1.376v-3.968c0-1.873,1.025-2.929,2.321-2.929a1.921,1.921,0,0,1,1.888,2.177v4.72h1.36v-4.928a2.949,2.949,0,0,0-3.024-3.233,2.831,2.831,0,0,0-2.545,1.392v-5.232h-1.376v12Zm9.2-4A4.218,4.218,0,0,0,665.8,624.4l-1.088-.752a2.833,2.833,0,0,1-5.265-1.232h6.561a3.9,3.9,0,0,0,.016-0.416,3.728,3.728,0,0,0-3.809-4.017A4.054,4.054,0,0,0,658.058,622.146Zm4.113-2.945a2.394,2.394,0,0,1,2.448,2.1h-5.073A2.616,2.616,0,0,1,662.171,619.2Zm10.975,6.945h1.376v-6.737h2.321v-1.264h-2.321v-1.472a1.152,1.152,0,0,1,1.328-1.36,3.228,3.228,0,0,1,.993.16v-1.216a3.642,3.642,0,0,0-1.249-.208,2.285,2.285,0,0,0-2.448,2.48v1.616h-1.7v1.264h1.7v6.737Zm6.865-11.121a0.966,0.966,0,0,0-.96-0.976,0.994,0.994,0,0,0-.992.976,0.983,0.983,0,0,0,.992.976A0.956,0.956,0,0,0,680.011,615.025Zm-1.664,11.121h1.376v-8h-1.376v8Zm4.367,0h1.376v-3.968c0-1.873,1.024-2.929,2.32-2.929a1.921,1.921,0,0,1,1.889,2.177v4.72h1.36v-4.928a2.949,2.949,0,0,0-3.025-3.233,2.829,2.829,0,0,0-2.544,1.392v-1.232h-1.376v8Zm9.2-4a4.218,4.218,0,0,0,7.745,2.256l-1.089-.752a2.832,2.832,0,0,1-5.264-1.232h6.561a3.9,3.9,0,0,0,.016-0.416,3.729,3.729,0,0,0-3.809-4.017A4.054,4.054,0,0,0,691.914,622.146Zm4.112-2.945a2.394,2.394,0,0,1,2.448,2.1H693.4A2.615,2.615,0,0,1,696.026,619.2Zm11.392,4.721c0-1.2-.752-1.968-2.112-2.416l-0.864-.288c-0.944-.3-1.232-0.608-1.232-1.121a1.132,1.132,0,0,1,1.344-.928,2.161,2.161,0,0,1,1.7.832l0.9-.864a3.1,3.1,0,0,0-2.56-1.152c-1.584,0-2.7.88-2.7,2.176a2.415,2.415,0,0,0,1.984,2.321l0.784,0.256c1.04,0.336,1.424.72,1.424,1.28a1.218,1.218,0,0,1-1.408,1.088,2.147,2.147,0,0,1-2.048-1.264l-1.121.608a3.179,3.179,0,0,0,3.137,1.856C706.25,626.306,707.418,625.49,707.418,623.922Zm6.608,2.112V624.8a3.041,3.041,0,0,1-.976.16,1.152,1.152,0,0,1-1.328-1.36v-4.193h2.3v-1.264h-2.3v-2.224h-1.376v2.224h-1.7v1.264h1.7v4.369a2.252,2.252,0,0,0,2.448,2.448A3.828,3.828,0,0,0,714.026,626.034Zm6.463,0.112h1.376v-3.968c0-1.808.913-2.929,2.209-2.929,1.04,0,1.568.9,1.568,2.193v4.7h1.376v-3.968c0-1.808.9-2.929,2.193-2.929,1.04,0,1.584.9,1.584,2.193v4.7h1.376v-4.912c0-1.953-1.056-3.249-2.8-3.249a2.769,2.769,0,0,0-2.625,1.712,2.515,2.515,0,0,0-2.464-1.712,2.692,2.692,0,0,0-2.417,1.392v-1.232h-1.376v8Zm13.936-4a4,4,0,0,0,3.921,4.16,3.508,3.508,0,0,0,2.816-1.392v1.232h1.376v-8h-1.376v1.232a3.508,3.508,0,0,0-2.816-1.392A4,4,0,0,0,734.425,622.146Zm6.849,0a2.733,2.733,0,1,1-2.72-2.9A2.731,2.731,0,0,1,741.274,622.146Zm8.592,3.888V624.8a3.041,3.041,0,0,1-.976.16,1.152,1.152,0,0,1-1.329-1.36v-4.193h2.3v-1.264h-2.3v-2.224h-1.376v2.224h-1.7v1.264h1.7v4.369a2.252,2.252,0,0,0,2.448,2.448A3.83,3.83,0,0,0,749.866,626.034Zm1.423-3.888a4.218,4.218,0,0,0,7.745,2.256l-1.088-.752a2.833,2.833,0,0,1-5.265-1.232h6.561a3.9,3.9,0,0,0,.016-0.416,3.728,3.728,0,0,0-3.808-4.017A4.054,4.054,0,0,0,751.289,622.146ZM755.4,619.2a2.394,2.394,0,0,1,2.448,2.1h-5.073A2.616,2.616,0,0,1,755.4,619.2Zm6.207,6.945h1.376v-3.968c0-1.873,1.1-2.753,2.113-2.753a2.011,2.011,0,0,1,.752.128v-1.424a2.851,2.851,0,0,0-.624-0.064,2.38,2.38,0,0,0-2.241,1.632v-1.552h-1.376v8Zm7.92-11.121a0.966,0.966,0,0,0-.96-0.976,0.994,0.994,0,0,0-.992.976,0.983,0.983,0,0,0,.992.976A0.956,0.956,0,0,0,769.529,615.025Zm-1.664,11.121h1.376v-8h-1.376v8Zm3.76-4a4,4,0,0,0,3.92,4.16,3.509,3.509,0,0,0,2.817-1.392v1.232h1.376v-8h-1.376v1.232a3.509,3.509,0,0,0-2.817-1.392A4,4,0,0,0,771.625,622.146Zm6.849,0a2.733,2.733,0,1,1-2.721-2.9A2.732,2.732,0,0,1,778.474,622.146Zm4.255,4h1.376v-12h-1.376v12Zm9.568-2.224c0-1.2-.752-1.968-2.112-2.416l-0.864-.288c-0.944-.3-1.232-0.608-1.232-1.121a1.132,1.132,0,0,1,1.344-.928,2.161,2.161,0,0,1,1.7.832l0.9-.864a3.1,3.1,0,0,0-2.56-1.152c-1.584,0-2.7.88-2.7,2.176a2.415,2.415,0,0,0,1.984,2.321l0.784,0.256c1.04,0.336,1.424.72,1.424,1.28a1.218,1.218,0,0,1-1.408,1.088,2.147,2.147,0,0,1-2.048-1.264l-1.12.608a3.178,3.178,0,0,0,3.136,1.856C791.129,626.306,792.3,625.49,792.3,623.922Zm6.047-1.776a4,4,0,0,0,3.921,4.16,3.508,3.508,0,0,0,2.816-1.392v1.232h1.376v-8h-1.376v1.232a3.508,3.508,0,0,0-2.816-1.392A4,4,0,0,0,798.344,622.146Zm6.849,0a2.733,2.733,0,1,1-2.72-2.9A2.731,2.731,0,0,1,805.193,622.146Zm4.255,4h1.376v-3.968c0-1.873,1.025-2.929,2.321-2.929a1.921,1.921,0,0,1,1.888,2.177v4.72h1.36v-4.928a2.949,2.949,0,0,0-3.024-3.233,2.832,2.832,0,0,0-2.545,1.392v-1.232h-1.376v8Zm9.2-4a4,4,0,0,0,3.921,4.16,3.508,3.508,0,0,0,2.816-1.392v1.232h1.376v-12h-1.376v5.232a3.508,3.508,0,0,0-2.816-1.392A4,4,0,0,0,818.648,622.146Zm6.849,0a2.733,2.733,0,1,1-2.72-2.9A2.731,2.731,0,0,1,825.5,622.146Zm9.023,4H835.9v-6.737h2.321v-1.264H835.9v-1.472a1.152,1.152,0,0,1,1.328-1.36,3.228,3.228,0,0,1,.993.16v-1.216a3.642,3.642,0,0,0-1.249-.208,2.285,2.285,0,0,0-2.448,2.48v1.616h-1.7v1.264h1.7v6.737Zm4.768-4a4,4,0,0,0,3.921,4.16,3.508,3.508,0,0,0,2.816-1.392v1.232H847.4v-8h-1.376v1.232a3.508,3.508,0,0,0-2.816-1.392A4,4,0,0,0,839.288,622.146Zm6.849,0a2.733,2.733,0,1,1-2.72-2.9A2.731,2.731,0,0,1,846.137,622.146Zm5.631,2.768a3.509,3.509,0,0,0,2.817,1.392,4.168,4.168,0,0,0,0-8.321,3.509,3.509,0,0,0-2.817,1.392v-5.232h-1.376v12h1.376v-1.232Zm5.329-2.768a2.726,2.726,0,1,1-2.72-2.9A2.731,2.731,0,0,1,857.1,622.146Zm3.775,4h1.376v-3.968c0-1.873,1.1-2.753,2.112-2.753a2.011,2.011,0,0,1,.752.128v-1.424a2.851,2.851,0,0,0-.624-0.064,2.38,2.38,0,0,0-2.24,1.632v-1.552h-1.376v8Zm7.92-11.121a0.966,0.966,0,0,0-.96-0.976,0.994,0.994,0,0,0-.992.976,0.983,0.983,0,0,0,.992.976A0.956,0.956,0,0,0,868.792,615.025Zm-1.664,11.121H868.5v-8h-1.376v8Zm11.649-1.984-1.2-.672a2.714,2.714,0,0,1-2.5,1.536,2.882,2.882,0,0,1,0-5.761,2.714,2.714,0,0,1,2.5,1.537l1.2-.673a4.145,4.145,0,0,0-3.7-2.144,4.161,4.161,0,1,0,0,8.321A4.145,4.145,0,0,0,878.777,624.162Zm8.142-9.137a0.966,0.966,0,0,0-.96-0.976,0.994,0.994,0,0,0-.992.976,0.983,0.983,0,0,0,.992.976A0.956,0.956,0,0,0,886.919,615.025Zm-1.664,11.121h1.376v-8h-1.376v8Zm4.384,0h1.376v-3.968c0-1.873,1.024-2.929,2.321-2.929a1.921,1.921,0,0,1,1.888,2.177v4.72h1.36v-4.928a2.949,2.949,0,0,0-3.024-3.233,2.831,2.831,0,0,0-2.545,1.392v-1.232h-1.376v8Zm9.824,0h1.376v-3.968c0-1.873,1.024-2.929,2.321-2.929a1.921,1.921,0,0,1,1.888,2.177v4.72h1.36v-4.928a2.949,2.949,0,0,0-3.024-3.233,2.829,2.829,0,0,0-2.545,1.392v-1.232h-1.376v8Zm17.553-4a4.185,4.185,0,1,0-4.177,4.16A4.106,4.106,0,0,0,917.016,622.146Zm-6.961,0a2.778,2.778,0,1,1,2.784,2.88A2.751,2.751,0,0,1,910.055,622.146Zm11.648,4h1.152l3.7-8h-1.536l-2.737,6.049-2.736-6.049h-1.536Zm5.856-4a4,4,0,0,0,3.92,4.16,3.51,3.51,0,0,0,2.817-1.392v1.232h1.376v-8H934.3v1.232a3.51,3.51,0,0,0-2.817-1.392A4,4,0,0,0,927.559,622.146Zm6.849,0a2.733,2.733,0,1,1-2.721-2.9A2.732,2.732,0,0,1,934.408,622.146ZM943,626.034V624.8a3.041,3.041,0,0,1-.976.16,1.152,1.152,0,0,1-1.328-1.36v-4.193H943v-1.264h-2.3v-2.224h-1.376v2.224h-1.7v1.264h1.7v4.369a2.252,2.252,0,0,0,2.448,2.448A3.828,3.828,0,0,0,943,626.034Zm3.824-11.009a0.966,0.966,0,0,0-.96-0.976,1,1,0,0,0-.993.976,0.984,0.984,0,0,0,.993.976A0.956,0.956,0,0,0,946.823,615.025Zm-1.664,11.121h1.376v-8h-1.376v8Zm12.112-4a4.185,4.185,0,1,0-4.176,4.16A4.106,4.106,0,0,0,957.271,622.146Zm-6.96,0a2.778,2.778,0,1,1,2.784,2.88A2.751,2.751,0,0,1,950.311,622.146Zm9.327,4h1.376v-3.968c0-1.873,1.024-2.929,2.321-2.929a1.921,1.921,0,0,1,1.888,2.177v4.72h1.36v-4.928a2.949,2.949,0,0,0-3.024-3.233,2.831,2.831,0,0,0-2.545,1.392v-1.232h-1.376v8Zm15.009-2.224c0-1.2-.752-1.968-2.113-2.416l-0.864-.288c-0.944-.3-1.232-0.608-1.232-1.121a1.132,1.132,0,0,1,1.344-.928,2.163,2.163,0,0,1,1.7.832l0.9-.864a3.1,3.1,0,0,0-2.561-1.152c-1.584,0-2.7.88-2.7,2.176a2.415,2.415,0,0,0,1.984,2.321l0.784,0.256c1.041,0.336,1.425.72,1.425,1.28a1.219,1.219,0,0,1-1.409,1.088,2.147,2.147,0,0,1-2.048-1.264l-1.12.608a3.178,3.178,0,0,0,3.136,1.856C973.479,626.306,974.647,625.49,974.647,623.922Zm10.735,2.112V624.8a3.041,3.041,0,0,1-.976.16,1.152,1.152,0,0,1-1.328-1.36v-4.193h2.3v-1.264h-2.3v-2.224H981.7v2.224h-1.7v1.264h1.7v4.369a2.252,2.252,0,0,0,2.448,2.448A3.828,3.828,0,0,0,985.382,626.034Zm9.777-3.888a4.185,4.185,0,1,0-4.177,4.16A4.106,4.106,0,0,0,995.159,622.146Zm-6.961,0a2.778,2.778,0,1,1,2.784,2.88A2.751,2.751,0,0,1,988.2,622.146Zm15.292-7.121a0.962,0.962,0,0,0-.96-0.976,1,1,0,0,0-.99.976,0.984,0.984,0,0,0,.99.976A0.953,0.953,0,0,0,1003.49,615.025Zm-1.66,11.121h1.38v-8h-1.38v8Zm4.38,0h1.38v-3.968c0-1.873,1.02-2.929,2.32-2.929a1.922,1.922,0,0,1,1.89,2.177v4.72h1.36v-4.928a2.949,2.949,0,0,0-3.03-3.233,2.818,2.818,0,0,0-2.54,1.392v-1.232h-1.38v8Zm10.4,0h1.38v-6.737h2.32v-1.264h-2.32v-1.472a1.153,1.153,0,0,1,1.33-1.36,3.229,3.229,0,0,1,.99.16v-1.216a3.64,3.64,0,0,0-1.25-.208,2.287,2.287,0,0,0-2.45,2.48v1.616h-1.69v1.264h1.69v6.737Zm5.49-3.088a2.924,2.924,0,0,0,2.95,3.248,2.757,2.757,0,0,0,2.46-1.392v1.232h1.38v-8h-1.38v3.969c0,1.84-.98,2.928-2.22,2.928-1.11,0-1.81-.848-1.81-2.192v-4.705h-1.38v4.913Zm14.96,0.864c0-1.2-.75-1.968-2.11-2.416l-0.86-.288c-0.95-.3-1.24-0.608-1.24-1.121a1.14,1.14,0,0,1,1.35-.928,2.138,2.138,0,0,1,1.69.832l0.9-.864a3.1,3.1,0,0,0-2.56-1.152c-1.58,0-2.7.88-2.7,2.176a2.406,2.406,0,0,0,1.98,2.321l0.78,0.256c1.04,0.336,1.43.72,1.43,1.28a1.222,1.222,0,0,1-1.41,1.088,2.156,2.156,0,0,1-2.05-1.264l-1.12.608a3.188,3.188,0,0,0,3.14,1.856C1035.89,626.306,1037.06,625.49,1037.06,623.922Zm1.74-1.776a4.222,4.222,0,0,0,7.75,2.256l-1.09-.752a2.83,2.83,0,0,1-5.26-1.232h6.56c0.01-.176.01-0.272,0.01-0.416a3.722,3.722,0,0,0-3.8-4.017A4.058,4.058,0,0,0,1038.8,622.146Zm4.12-2.945a2.4,2.4,0,0,1,2.45,2.1h-5.08A2.625,2.625,0,0,1,1042.92,619.2Zm15.69,4.721c0-1.2-.75-1.968-2.11-2.416l-0.86-.288c-0.95-.3-1.24-0.608-1.24-1.121a1.14,1.14,0,0,1,1.35-.928,2.172,2.172,0,0,1,1.7.832l0.89-.864a3.1,3.1,0,0,0-2.56-1.152c-1.58,0-2.7.88-2.7,2.176a2.406,2.406,0,0,0,1.98,2.321l0.79,0.256c1.04,0.336,1.42.72,1.42,1.28a1.217,1.217,0,0,1-1.41,1.088,2.156,2.156,0,0,1-2.05-1.264l-1.12.608a3.188,3.188,0,0,0,3.14,1.856C1057.45,626.306,1058.61,625.49,1058.61,623.922Zm6.61,2.112V624.8a3,3,0,0,1-.97.16,1.151,1.151,0,0,1-1.33-1.36v-4.193h2.3v-1.264h-2.3v-2.224h-1.38v2.224h-1.7v1.264h1.7v4.369a2.254,2.254,0,0,0,2.45,2.448A3.769,3.769,0,0,0,1065.22,626.034Zm4.29,3.457,5.25-11.346h-1.54l-2.73,6.065-2.76-6.065h-1.52l3.51,7.585-1.75,3.761h1.54Zm7.02-3.345h1.38v-12h-1.38v12Zm3.76-4a4.222,4.222,0,0,0,7.75,2.256l-1.09-.752a2.836,2.836,0,0,1-5.27-1.232h6.57c0.01-.176.01-0.272,0.01-0.416a3.724,3.724,0,0,0-3.81-4.017A4.055,4.055,0,0,0,1080.29,622.146Zm4.11-2.945a2.391,2.391,0,0,1,2.45,2.1h-5.07A2.614,2.614,0,0,1,1084.4,619.2Zm17.01,6.945h1.22l2.72-8h-1.46l-1.93,5.841-2-5.841h-1.06l-2,5.841-1.94-5.841h-1.44l2.72,8h1.22l1.99-5.76Zm7.49-11.121a0.969,0.969,0,0,0-.96-0.976,1,1,0,0,0-.99.976,0.984,0.984,0,0,0,.99.976A0.959,0.959,0,0,0,1108.9,615.025Zm-1.66,11.121h1.37v-8h-1.37v8Zm8.72-.112V624.8a3.067,3.067,0,0,1-.98.16,1.154,1.154,0,0,1-1.33-1.36v-4.193h2.31v-1.264h-2.31v-2.224h-1.37v2.224h-1.7v1.264h1.7v4.369a2.247,2.247,0,0,0,2.44,2.448A3.881,3.881,0,0,0,1115.96,626.034Zm2.16,0.112h1.37v-3.968c0-1.873,1.03-2.929,2.32-2.929a1.922,1.922,0,0,1,1.89,2.177v4.72h1.36v-4.928a2.947,2.947,0,0,0-3.02-3.233,2.845,2.845,0,0,0-2.55,1.392v-5.232h-1.37v12ZM44.867,647.922c0-1.2-.752-1.968-2.112-2.416l-0.864-.288c-0.944-.3-1.232-0.608-1.232-1.121A1.133,1.133,0,0,1,42,643.169a2.162,2.162,0,0,1,1.7.832l0.9-.864a3.1,3.1,0,0,0-2.56-1.152c-1.584,0-2.7.88-2.7,2.176a2.415,2.415,0,0,0,1.984,2.321l0.784,0.256c1.04,0.336,1.424.72,1.424,1.28a1.218,1.218,0,0,1-1.408,1.088,2.147,2.147,0,0,1-2.048-1.264l-1.12.608a3.178,3.178,0,0,0,3.136,1.856C43.7,650.306,44.867,649.49,44.867,647.922Zm2.255-.864c0,1.984,1.184,3.248,2.944,3.248a2.753,2.753,0,0,0,2.464-1.392v1.232h1.376v-8H52.531v3.969c0,1.84-.976,2.928-2.224,2.928-1.1,0-1.808-.848-1.808-2.192v-4.705H47.123v4.913Zm11.152,1.856a3.509,3.509,0,0,0,2.816,1.392,4.168,4.168,0,0,0,0-8.321,3.509,3.509,0,0,0-2.816,1.392v-5.232H56.9v12h1.376v-1.232Zm5.329-2.768a2.726,2.726,0,1,1-2.72-2.9A2.732,2.732,0,0,1,63.6,646.146Zm8.944,1.776c0-1.2-.752-1.968-2.112-2.416l-0.864-.288c-0.944-.3-1.232-0.608-1.232-1.121a1.133,1.133,0,0,1,1.344-.928,2.162,2.162,0,0,1,1.7.832l0.9-.864a3.1,3.1,0,0,0-2.56-1.152c-1.584,0-2.7.88-2.7,2.176a2.415,2.415,0,0,0,1.984,2.321l0.784,0.256c1.04,0.336,1.424.72,1.424,1.28a1.218,1.218,0,0,1-1.408,1.088,2.147,2.147,0,0,1-2.048-1.264l-1.12.608a3.178,3.178,0,0,0,3.136,1.856C71.379,650.306,72.547,649.49,72.547,647.922Zm6.608,2.112V648.8a3.042,3.042,0,0,1-.976.16,1.152,1.152,0,0,1-1.328-1.36v-4.193h2.3v-1.264h-2.3v-2.224H75.474v2.224h-1.7v1.264h1.7v4.369a2.252,2.252,0,0,0,2.448,2.448A3.829,3.829,0,0,0,79.155,650.034Zm1.423-3.888a4,4,0,0,0,3.921,4.16,3.509,3.509,0,0,0,2.816-1.392v1.232h1.376v-8H87.315v1.232a3.509,3.509,0,0,0-2.816-1.392A4,4,0,0,0,80.578,646.146Zm6.849,0a2.733,2.733,0,1,1-2.72-2.9A2.732,2.732,0,0,1,87.427,646.146Zm4.255,4h1.376v-3.968c0-1.873,1.024-2.929,2.32-2.929a1.921,1.921,0,0,1,1.888,2.177v4.72h1.36v-4.928a2.949,2.949,0,0,0-3.025-3.233,2.829,2.829,0,0,0-2.544,1.392v-1.232H91.682v8Zm17.089-1.984-1.2-.672a2.712,2.712,0,0,1-2.5,1.536,2.882,2.882,0,0,1,0-5.761,2.711,2.711,0,0,1,2.5,1.537l1.2-.673a4.143,4.143,0,0,0-3.7-2.144,4.161,4.161,0,1,0,0,8.321A4.143,4.143,0,0,0,108.771,648.162Zm1.551-2.016a4.218,4.218,0,0,0,7.745,2.256l-1.088-.752a2.833,2.833,0,0,1-5.265-1.232h6.561a3.9,3.9,0,0,0,.016-0.416,3.728,3.728,0,0,0-3.809-4.017A4.054,4.054,0,0,0,110.322,646.146Zm4.112-2.945a2.394,2.394,0,0,1,2.449,2.1H111.81A2.615,2.615,0,0,1,114.434,643.2Zm5.952,3.153h8.081v-1.376h-8.081v1.376Zm12.192,2.56a3.508,3.508,0,0,0,2.816,1.392,4.168,4.168,0,0,0,0-8.321,3.508,3.508,0,0,0-2.816,1.392v-5.232H131.2v12h1.376v-1.232Zm5.329-2.768a2.726,2.726,0,1,1-2.721-2.9A2.732,2.732,0,0,1,137.907,646.146Zm3.15,0A4.219,4.219,0,0,0,148.8,648.4l-1.089-.752a2.832,2.832,0,0,1-5.264-1.232h6.561a3.9,3.9,0,0,0,.016-0.416,3.729,3.729,0,0,0-3.809-4.017A4.055,4.055,0,0,0,141.057,646.146Zm4.113-2.945a2.394,2.394,0,0,1,2.448,2.1h-5.072A2.615,2.615,0,0,1,145.17,643.2Zm13.472,4.961-1.2-.672a2.712,2.712,0,0,1-2.5,1.536,2.882,2.882,0,0,1,0-5.761,2.711,2.711,0,0,1,2.5,1.537l1.2-.673a4.143,4.143,0,0,0-3.7-2.144,4.161,4.161,0,1,0,0,8.321A4.143,4.143,0,0,0,158.642,648.162Zm1.551-2.016a4,4,0,0,0,3.921,4.16,3.508,3.508,0,0,0,2.816-1.392v1.232h1.376v-8H166.93v1.232a3.508,3.508,0,0,0-2.816-1.392A4,4,0,0,0,160.193,646.146Zm6.849,0a2.733,2.733,0,1,1-2.72-2.9A2.731,2.731,0,0,1,167.042,646.146Zm4.143,0.912c0,1.984,1.184,3.248,2.944,3.248a2.753,2.753,0,0,0,2.465-1.392v1.232h1.376v-8h-1.376v3.969c0,1.84-.976,2.928-2.225,2.928-1.1,0-1.808-.848-1.808-2.192v-4.705h-1.376v4.913Zm14.961,0.864c0-1.2-.752-1.968-2.113-2.416l-0.864-.288c-0.944-.3-1.232-0.608-1.232-1.121a1.132,1.132,0,0,1,1.344-.928,2.165,2.165,0,0,1,1.7.832l0.9-.864a3.1,3.1,0,0,0-2.561-1.152c-1.584,0-2.7.88-2.7,2.176a2.415,2.415,0,0,0,1.984,2.321l0.784,0.256c1.04,0.336,1.425.72,1.425,1.28a1.219,1.219,0,0,1-1.409,1.088,2.147,2.147,0,0,1-2.048-1.264l-1.12.608a3.178,3.178,0,0,0,3.136,1.856C184.978,650.306,186.146,649.49,186.146,647.922Zm1.743-1.776a4.218,4.218,0,0,0,7.745,2.256l-1.088-.752a2.833,2.833,0,0,1-5.265-1.232h6.561a3.9,3.9,0,0,0,.016-0.416,3.728,3.728,0,0,0-3.809-4.017A4.054,4.054,0,0,0,187.889,646.146ZM192,643.2a2.4,2.4,0,0,1,2.449,2.1h-5.073A2.615,2.615,0,0,1,192,643.2Zm17.009,6.945h1.216l2.72-8H211.49l-1.936,5.841-2-5.841H206.5l-2,5.841-1.936-5.841h-1.44l2.72,8h1.216l1.984-5.76Zm5.166-4a4.218,4.218,0,0,0,7.745,2.256l-1.088-.752a2.832,2.832,0,0,1-5.264-1.232h6.561a3.9,3.9,0,0,0,.016-0.416,3.729,3.729,0,0,0-3.809-4.017A4.055,4.055,0,0,0,214.176,646.146Zm4.113-2.945a2.394,2.394,0,0,1,2.448,2.1h-5.072A2.615,2.615,0,0,1,218.289,643.2Zm11.887,5.713a3.51,3.51,0,0,0,2.817,1.392,4.168,4.168,0,0,0,0-8.321,3.51,3.51,0,0,0-2.817,1.392v-5.232H228.8v12h1.376v-1.232Zm5.329-2.768a2.726,2.726,0,1,1-2.72-2.9A2.731,2.731,0,0,1,235.505,646.146Zm3.151,0A4.218,4.218,0,0,0,246.4,648.4l-1.088-.752a2.833,2.833,0,0,1-5.265-1.232h6.561a3.9,3.9,0,0,0,.016-0.416,3.728,3.728,0,0,0-3.808-4.017A4.054,4.054,0,0,0,238.656,646.146Zm4.112-2.945a2.394,2.394,0,0,1,2.449,2.1h-5.073A2.615,2.615,0,0,1,242.768,643.2Zm6.208,6.945h1.376v-12h-1.376v12Zm6.048-11.121a0.966,0.966,0,0,0-.96-0.976,0.994,0.994,0,0,0-.992.976,0.983,0.983,0,0,0,.992.976A0.956,0.956,0,0,0,255.024,639.025Zm-1.664,11.121h1.376v-8H253.36v8Zm3.76-4a4.218,4.218,0,0,0,7.745,2.256l-1.088-.752a2.833,2.833,0,0,1-5.265-1.232h6.561a3.9,3.9,0,0,0,.016-0.416,3.729,3.729,0,0,0-3.809-4.017A4.054,4.054,0,0,0,257.12,646.146Zm4.112-2.945a2.394,2.394,0,0,1,2.448,2.1h-5.072A2.615,2.615,0,0,1,261.232,643.2Zm8.576,6.945h1.152l3.7-8H273.12l-2.736,6.049-2.736-6.049h-1.537Zm5.84-4a4.218,4.218,0,0,0,7.745,2.256l-1.088-.752a2.833,2.833,0,0,1-5.265-1.232H283.6a3.9,3.9,0,0,0,.016-0.416,3.729,3.729,0,0,0-3.809-4.017A4.054,4.054,0,0,0,275.648,646.146Zm4.112-2.945a2.4,2.4,0,0,1,2.449,2.1h-5.073A2.615,2.615,0,0,1,279.76,643.2Zm14.576,6.833V648.8a3.041,3.041,0,0,1-.976.16,1.152,1.152,0,0,1-1.328-1.36v-4.193h2.3v-1.264h-2.3v-2.224h-1.376v2.224h-1.7v1.264h1.7v4.369a2.252,2.252,0,0,0,2.448,2.448A3.828,3.828,0,0,0,294.336,650.034Zm2.159,0.112h1.377v-3.968c0-1.873,1.024-2.929,2.32-2.929a1.921,1.921,0,0,1,1.888,2.177v4.72h1.36v-4.928a2.949,2.949,0,0,0-3.024-3.233,2.829,2.829,0,0,0-2.544,1.392v-5.232H296.5v12Zm9.2-4a4,4,0,0,0,3.921,4.16,3.508,3.508,0,0,0,2.816-1.392v1.232h1.376v-8h-1.376v1.232a3.508,3.508,0,0,0-2.816-1.392A4,4,0,0,0,305.7,646.146Zm6.849,0a2.733,2.733,0,1,1-2.72-2.9A2.731,2.731,0,0,1,312.544,646.146Zm8.592,3.888V648.8a3.043,3.043,0,0,1-.977.16,1.152,1.152,0,0,1-1.328-1.36v-4.193h2.305v-1.264h-2.305v-2.224h-1.376v2.224h-1.7v1.264h1.7v4.369a2.252,2.252,0,0,0,2.448,2.448A3.83,3.83,0,0,0,321.136,650.034Zm12.96,0.112h1.216l2.72-8h-1.456l-1.936,5.841-2-5.841h-1.056l-2,5.841-1.936-5.841h-1.44l2.72,8h1.216l1.985-5.76Zm5.823,0H341.3v-3.968c0-1.873,1.024-2.929,2.32-2.929a1.921,1.921,0,0,1,1.888,2.177v4.72h1.361v-4.928a2.949,2.949,0,0,0-3.025-3.233,2.829,2.829,0,0,0-2.544,1.392v-5.232h-1.376v12Zm9.2-4a4,4,0,0,0,3.921,4.16,3.508,3.508,0,0,0,2.816-1.392v1.232h1.377v-8h-1.377v1.232a3.508,3.508,0,0,0-2.816-1.392A4,4,0,0,0,349.118,646.146Zm6.849,0a2.733,2.733,0,1,1-2.72-2.9A2.731,2.731,0,0,1,355.967,646.146Zm8.592,3.888V648.8a3.041,3.041,0,0,1-.976.16,1.152,1.152,0,0,1-1.328-1.36v-4.193h2.3v-1.264h-2.3v-2.224h-1.377v2.224h-1.7v1.264h1.7v4.369a2.253,2.253,0,0,0,2.449,2.448A3.828,3.828,0,0,0,364.559,650.034Zm8.223,3.457,5.249-11.346H376.5l-2.736,6.065-2.753-6.065h-1.52l3.5,7.585-1.744,3.761h1.536Zm14.577-7.345a4.185,4.185,0,1,0-4.176,4.16A4.106,4.106,0,0,0,387.359,646.146Zm-6.961,0a2.778,2.778,0,1,1,2.785,2.88A2.751,2.751,0,0,1,380.4,646.146Zm9.216,0.912c0,1.984,1.184,3.248,2.945,3.248a2.752,2.752,0,0,0,2.464-1.392v1.232H396.4v-8h-1.376v3.969c0,1.84-.976,2.928-2.224,2.928-1.1,0-1.809-.848-1.809-2.192v-4.705h-1.376v4.913Zm20.577,3.088h1.216l2.721-8h-1.457l-1.936,5.841-2-5.841h-1.056l-2,5.841-1.936-5.841H402.3l2.72,8h1.216l1.985-5.76Zm5.167-4A4.218,4.218,0,0,0,423.1,648.4l-1.088-.752a2.833,2.833,0,0,1-5.265-1.232h6.561a3.9,3.9,0,0,0,.016-0.416,3.728,3.728,0,0,0-3.809-4.017A4.054,4.054,0,0,0,415.358,646.146Zm4.112-2.945a2.394,2.394,0,0,1,2.449,2.1h-5.073A2.615,2.615,0,0,1,419.47,643.2Zm5.584,2.945a4,4,0,0,0,3.92,4.16,3.51,3.51,0,0,0,2.817-1.392v1.232h1.376v-8h-1.376v1.232a3.51,3.51,0,0,0-2.817-1.392A4,4,0,0,0,425.054,646.146Zm6.849,0a2.733,2.733,0,1,1-2.721-2.9A2.732,2.732,0,0,1,431.9,646.146Zm4.255,4h1.376v-3.968c0-1.873,1.1-2.753,2.112-2.753a2.011,2.011,0,0,1,.752.128v-1.424a2.851,2.851,0,0,0-.624-0.064,2.38,2.38,0,0,0-2.24,1.632v-1.552h-1.376v8Zm15.344-2.224c0-1.2-.752-1.968-2.112-2.416l-0.864-.288c-0.944-.3-1.232-0.608-1.232-1.121a1.132,1.132,0,0,1,1.344-.928,2.161,2.161,0,0,1,1.7.832l0.9-.864a3.1,3.1,0,0,0-2.56-1.152c-1.584,0-2.705.88-2.705,2.176a2.414,2.414,0,0,0,1.985,2.321l0.784,0.256c1.04,0.336,1.424.72,1.424,1.28a1.218,1.218,0,0,1-1.408,1.088,2.149,2.149,0,0,1-2.049-1.264l-1.12.608a3.179,3.179,0,0,0,3.137,1.856C450.334,650.306,451.5,649.49,451.5,647.922Zm2.367,2.224h1.376v-3.968c0-1.873,1.025-2.929,2.321-2.929a1.921,1.921,0,0,1,1.888,2.177v4.72h1.36v-4.928a2.949,2.949,0,0,0-3.024-3.233,2.832,2.832,0,0,0-2.545,1.392v-5.232h-1.376v12Zm17.553-4a4.185,4.185,0,1,0-4.176,4.16A4.106,4.106,0,0,0,471.422,646.146Zm-6.961,0a2.778,2.778,0,1,1,2.785,2.88A2.751,2.751,0,0,1,464.461,646.146Zm9.216,0.912c0,1.984,1.184,3.248,2.944,3.248a2.754,2.754,0,0,0,2.465-1.392v1.232h1.376v-8h-1.376v3.969c0,1.84-.976,2.928-2.225,2.928-1.1,0-1.808-.848-1.808-2.192v-4.705h-1.376v4.913Zm9.776,3.088h1.376v-12h-1.376v12Zm3.76-4a4,4,0,0,0,3.92,4.16,3.51,3.51,0,0,0,2.817-1.392v1.232h1.376v-12H493.95v5.232a3.51,3.51,0,0,0-2.817-1.392A4,4,0,0,0,487.213,646.146Zm6.849,0a2.733,2.733,0,1,1-2.721-2.9A2.732,2.732,0,0,1,494.062,646.146Zm16.287,0a4.185,4.185,0,1,0-4.176,4.16A4.106,4.106,0,0,0,510.349,646.146Zm-6.961,0a2.778,2.778,0,1,1,2.785,2.88A2.751,2.751,0,0,1,503.388,646.146Zm9.328,7.345h1.376v-4.577a3.51,3.51,0,0,0,2.817,1.392,4.168,4.168,0,0,0,0-8.321,3.51,3.51,0,0,0-2.817,1.392v-1.232h-1.376v11.346Zm6.705-7.345a2.726,2.726,0,1,1-2.72-2.9A2.731,2.731,0,0,1,519.421,646.146Zm3.167,0a4.218,4.218,0,0,0,7.745,2.256l-1.088-.752a2.833,2.833,0,0,1-5.265-1.232h6.561a3.9,3.9,0,0,0,.016-0.416,3.728,3.728,0,0,0-3.808-4.017A4.054,4.054,0,0,0,522.588,646.146ZM526.7,643.2a2.394,2.394,0,0,1,2.448,2.1h-5.073A2.616,2.616,0,0,1,526.7,643.2Zm6.207,6.945h1.376v-3.968c0-1.873,1.024-2.929,2.321-2.929a1.921,1.921,0,0,1,1.888,2.177v4.72h1.36v-4.928a2.949,2.949,0,0,0-3.024-3.233,2.829,2.829,0,0,0-2.545,1.392v-1.232h-1.376v8Zm13.5-4a4,4,0,0,0,3.92,4.16,3.51,3.51,0,0,0,2.817-1.392v1.232h1.376v-8h-1.376v1.232a3.51,3.51,0,0,0-2.817-1.392A4,4,0,0,0,546.412,646.146Zm6.849,0a2.733,2.733,0,1,1-2.721-2.9A2.732,2.732,0,0,1,553.261,646.146Zm15.055,4h1.217l2.72-8H570.8l-1.936,5.841-2-5.841H565.8l-2,5.841-1.936-5.841h-1.441l2.721,8h1.216l1.984-5.76Zm13.52-4a4.185,4.185,0,1,0-4.176,4.16A4.106,4.106,0,0,0,581.836,646.146Zm-6.961,0a2.778,2.778,0,1,1,2.785,2.88A2.751,2.751,0,0,1,574.875,646.146Zm9.328,4h1.376v-3.968c0-1.873,1.1-2.753,2.113-2.753a2.011,2.011,0,0,1,.752.128v-1.424a2.851,2.851,0,0,0-.624-0.064,2.38,2.38,0,0,0-2.241,1.632v-1.552H584.2v8Zm6.256,0h1.376v-12h-1.376v12Zm3.76-4a4,4,0,0,0,3.92,4.16,3.509,3.509,0,0,0,2.817-1.392v1.232h1.376v-12h-1.376v5.232a3.509,3.509,0,0,0-2.817-1.392A4,4,0,0,0,594.219,646.146Zm6.849,0a2.733,2.733,0,1,1-2.721-2.9A2.732,2.732,0,0,1,601.068,646.146Zm16.288,0a4.185,4.185,0,1,0-4.177,4.16A4.107,4.107,0,0,0,617.356,646.146Zm-6.961,0a2.778,2.778,0,1,1,2.784,2.88A2.751,2.751,0,0,1,610.4,646.146Zm9.872,4h1.376v-6.737h2.32v-1.264h-2.32v-1.472a1.152,1.152,0,0,1,1.328-1.36,3.222,3.222,0,0,1,.992.16v-1.216a3.636,3.636,0,0,0-1.248-.208,2.285,2.285,0,0,0-2.448,2.48v1.616h-1.7v1.264h1.7v6.737Zm9.487,3.345h1.377v-4.577a3.508,3.508,0,0,0,2.816,1.392,4.168,4.168,0,0,0,0-8.321,3.508,3.508,0,0,0-2.816,1.392v-1.232h-1.377v11.346Zm6.7-7.345a2.726,2.726,0,1,1-2.72-2.9A2.731,2.731,0,0,1,636.459,646.146Zm11.52,0a4.185,4.185,0,1,0-4.176,4.16A4.106,4.106,0,0,0,647.979,646.146Zm-6.961,0a2.778,2.778,0,1,1,2.785,2.88A2.751,2.751,0,0,1,641.018,646.146Zm14.5,1.776c0-1.2-.752-1.968-2.112-2.416l-0.864-.288c-0.945-.3-1.233-0.608-1.233-1.121a1.133,1.133,0,0,1,1.345-.928,2.161,2.161,0,0,1,1.7.832l0.9-.864a3.1,3.1,0,0,0-2.56-1.152c-1.585,0-2.705.88-2.705,2.176a2.415,2.415,0,0,0,1.984,2.321l0.785,0.256c1.04,0.336,1.424.72,1.424,1.28a1.218,1.218,0,0,1-1.408,1.088,2.147,2.147,0,0,1-2.049-1.264l-1.12.608a3.178,3.178,0,0,0,3.137,1.856C654.347,650.306,655.515,649.49,655.515,647.922Zm7.536,0c0-1.2-.752-1.968-2.112-2.416l-0.864-.288c-0.945-.3-1.233-0.608-1.233-1.121a1.133,1.133,0,0,1,1.345-.928,2.161,2.161,0,0,1,1.7.832l0.9-.864a3.1,3.1,0,0,0-2.56-1.152c-1.585,0-2.705.88-2.705,2.176a2.415,2.415,0,0,0,1.984,2.321l0.785,0.256c1.04,0.336,1.424.72,1.424,1.28a1.218,1.218,0,0,1-1.408,1.088,2.147,2.147,0,0,1-2.049-1.264l-1.12.608a3.178,3.178,0,0,0,3.137,1.856C661.883,650.306,663.051,649.49,663.051,647.922Zm4.031-8.9a0.966,0.966,0,0,0-.96-0.976,0.994,0.994,0,0,0-.992.976,0.983,0.983,0,0,0,.992.976A0.956,0.956,0,0,0,667.082,639.025Zm-1.664,11.121h1.376v-8h-1.376v8Zm5.76-1.232A3.509,3.509,0,0,0,674,650.306a4.168,4.168,0,0,0,0-8.321,3.509,3.509,0,0,0-2.817,1.392v-5.232H669.8v12h1.376v-1.232Zm5.329-2.768a2.726,2.726,0,1,1-2.72-2.9A2.731,2.731,0,0,1,676.507,646.146Zm5.439-7.121a0.966,0.966,0,0,0-.96-0.976,0.994,0.994,0,0,0-.992.976,0.983,0.983,0,0,0,.992.976A0.956,0.956,0,0,0,681.946,639.025Zm-1.664,11.121h1.376v-8h-1.376v8Zm4.384,0h1.376v-12h-1.376v12Zm6.048-11.121a0.966,0.966,0,0,0-.96-0.976,0.994,0.994,0,0,0-.992.976,0.983,0.983,0,0,0,.992.976A0.956,0.956,0,0,0,690.714,639.025Zm-1.664,11.121h1.376v-8H689.05v8Zm8.72-.112V648.8a3.041,3.041,0,0,1-.976.16,1.152,1.152,0,0,1-1.328-1.36v-4.193h2.3v-1.264h-2.3v-2.224H694.09v2.224h-1.7v1.264h1.7v4.369a2.252,2.252,0,0,0,2.448,2.448A3.828,3.828,0,0,0,697.77,650.034Zm3.824-11.009a0.966,0.966,0,0,0-.96-0.976,1,1,0,0,0-.993.976,0.984,0.984,0,0,0,.993.976A0.956,0.956,0,0,0,701.594,639.025Zm-1.665,11.121h1.377v-8h-1.377v8Zm3.76-4a4.218,4.218,0,0,0,7.745,2.256l-1.088-.752a2.832,2.832,0,0,1-5.264-1.232h6.56a3.9,3.9,0,0,0,.016-0.416,3.728,3.728,0,0,0-3.808-4.017A4.055,4.055,0,0,0,703.689,646.146ZM707.8,643.2a2.394,2.394,0,0,1,2.448,2.1h-5.072A2.615,2.615,0,0,1,707.8,643.2Zm11.392,4.721c0-1.2-.752-1.968-2.112-2.416l-0.864-.288c-0.945-.3-1.233-0.608-1.233-1.121a1.133,1.133,0,0,1,1.345-.928,2.161,2.161,0,0,1,1.7.832l0.9-.864a3.1,3.1,0,0,0-2.56-1.152c-1.585,0-2.7.88-2.7,2.176a2.414,2.414,0,0,0,1.985,2.321l0.784,0.256c1.04,0.336,1.424.72,1.424,1.28a1.218,1.218,0,0,1-1.408,1.088,2.148,2.148,0,0,1-2.049-1.264l-1.12.608a3.178,3.178,0,0,0,3.137,1.856C718.026,650.306,719.194,649.49,719.194,647.922Zm7.135,2.224h1.377v-6.737h2.32v-1.264h-2.32v-1.472a1.152,1.152,0,0,1,1.328-1.36,3.222,3.222,0,0,1,.992.16v-1.216a3.636,3.636,0,0,0-1.248-.208,2.285,2.285,0,0,0-2.449,2.48v1.616h-1.7v1.264h1.7v6.737Zm13.121-4a4.185,4.185,0,1,0-4.176,4.16A4.106,4.106,0,0,0,739.45,646.146Zm-6.961,0a2.778,2.778,0,1,1,2.785,2.88A2.751,2.751,0,0,1,732.489,646.146Zm9.328,4h1.376v-3.968c0-1.873,1.1-2.753,2.113-2.753a2.011,2.011,0,0,1,.752.128v-1.424a2.851,2.851,0,0,0-.624-0.064,2.38,2.38,0,0,0-2.241,1.632v-1.552h-1.376v8Zm9.536-4a4,4,0,0,0,3.92,4.16,3.509,3.509,0,0,0,2.817-1.392v1.232h1.376v-8H758.09v1.232a3.509,3.509,0,0,0-2.817-1.392A4,4,0,0,0,751.353,646.146Zm6.849,0a2.733,2.733,0,1,1-2.721-2.9A2.732,2.732,0,0,1,758.2,646.146Zm8.559,4h1.376v-12h-1.376v12Zm6.048-11.121a0.966,0.966,0,0,0-.96-0.976,1,1,0,0,0-.993.976,0.984,0.984,0,0,0,.993.976A0.956,0.956,0,0,0,772.809,639.025Zm-1.665,11.121h1.377v-8h-1.377v8Zm5.057,0h1.376v-6.737h2.32v-1.264h-2.32v-1.472a1.152,1.152,0,0,1,1.328-1.36,3.222,3.222,0,0,1,.992.16v-1.216a3.636,3.636,0,0,0-1.248-.208,2.285,2.285,0,0,0-2.448,2.48v1.616h-1.7v1.264h1.7v6.737Zm4.767-4a4.218,4.218,0,0,0,7.745,2.256l-1.088-.752a2.832,2.832,0,0,1-5.264-1.232h6.561a3.9,3.9,0,0,0,.016-0.416,3.729,3.729,0,0,0-3.809-4.017A4.055,4.055,0,0,0,780.968,646.146Zm4.113-2.945a2.394,2.394,0,0,1,2.448,2.1h-5.072A2.615,2.615,0,0,1,785.081,643.2Zm17.008,6.945h1.216l2.721-8H804.57l-1.937,5.841-2-5.841h-1.056l-2,5.841-1.937-5.841H794.2l2.721,8h1.216l1.984-5.76Zm7.487-11.121a0.966,0.966,0,0,0-.96-0.976,0.994,0.994,0,0,0-.992.976,0.983,0.983,0,0,0,.992.976A0.956,0.956,0,0,0,809.576,639.025Zm-1.664,11.121h1.376v-8h-1.376v8Zm8.721-.112V648.8a3.041,3.041,0,0,1-.976.16,1.152,1.152,0,0,1-1.329-1.36v-4.193h2.305v-1.264h-2.305v-2.224h-1.376v2.224h-1.7v1.264h1.7v4.369a2.252,2.252,0,0,0,2.448,2.448A3.83,3.83,0,0,0,816.633,650.034Zm2.159,0.112h1.376v-3.968c0-1.873,1.024-2.929,2.321-2.929a1.921,1.921,0,0,1,1.888,2.177v4.72h1.36v-4.928a2.949,2.949,0,0,0-3.024-3.233,2.829,2.829,0,0,0-2.545,1.392v-5.232h-1.376v12Zm14.128,0H834.3v-3.968c0-1.873,1.024-2.929,2.32-2.929a1.921,1.921,0,0,1,1.888,2.177v4.72h1.361v-4.928a2.949,2.949,0,0,0-3.025-3.233,2.829,2.829,0,0,0-2.544,1.392v-1.232H832.92v8Zm17.553-4a4.185,4.185,0,1,0-4.177,4.16A4.107,4.107,0,0,0,850.473,646.146Zm-6.961,0a2.778,2.778,0,1,1,2.784,2.88A2.751,2.751,0,0,1,843.512,646.146Zm15.007,2.768a3.509,3.509,0,0,0,2.817,1.392,4.168,4.168,0,0,0,0-8.321,3.509,3.509,0,0,0-2.817,1.392v-5.232h-1.376v12h1.376v-1.232Zm5.329-2.768a2.726,2.726,0,1,1-2.72-2.9A2.731,2.731,0,0,1,863.848,646.146Zm11.5,0a4.185,4.185,0,1,0-4.177,4.16A4.106,4.106,0,0,0,875.352,646.146Zm-6.961,0a2.778,2.778,0,1,1,2.784,2.88A2.751,2.751,0,0,1,868.391,646.146Zm9.216,0.912c0,1.984,1.184,3.248,2.944,3.248a2.752,2.752,0,0,0,2.464-1.392v1.232h1.377v-8h-1.377v3.969c0,1.84-.976,2.928-2.224,2.928-1.1,0-1.808-.848-1.808-2.192v-4.705h-1.376v4.913Zm9.776,3.088h1.376v-3.968c0-1.873,1.024-2.929,2.32-2.929a1.921,1.921,0,0,1,1.888,2.177v4.72h1.361v-4.928a2.949,2.949,0,0,0-3.025-3.233,2.829,2.829,0,0,0-2.544,1.392v-1.232h-1.376v8Zm9.2-4a4,4,0,0,0,3.921,4.16,3.508,3.508,0,0,0,2.816-1.392v1.232H904.7v-12h-1.377v5.232a3.508,3.508,0,0,0-2.816-1.392A4,4,0,0,0,896.582,646.146Zm6.849,0a2.733,2.733,0,1,1-2.72-2.9A2.731,2.731,0,0,1,903.431,646.146Zm3.631,0a4,4,0,0,0,3.921,4.16,3.508,3.508,0,0,0,2.816-1.392v1.232h1.376v-8H913.8v1.232a3.508,3.508,0,0,0-2.816-1.392A4,4,0,0,0,907.062,646.146Zm6.849,0a2.733,2.733,0,1,1-2.72-2.9A2.731,2.731,0,0,1,913.911,646.146Zm4.255,4h1.376v-3.968c0-1.873,1.1-2.753,2.113-2.753a2.011,2.011,0,0,1,.752.128v-1.424a2.851,2.851,0,0,0-.624-0.064,2.381,2.381,0,0,0-2.241,1.632v-1.552h-1.376v8Zm7.92-11.121a0.966,0.966,0,0,0-.96-0.976,0.994,0.994,0,0,0-.992.976,0.983,0.983,0,0,0,.992.976A0.956,0.956,0,0,0,926.086,639.025Zm-1.664,11.121H925.8v-8h-1.376v8Zm3.76-4a4.218,4.218,0,0,0,7.745,2.256l-1.088-.752a2.833,2.833,0,0,1-5.265-1.232h6.561a3.9,3.9,0,0,0,.016-0.416,3.728,3.728,0,0,0-3.808-4.017A4.054,4.054,0,0,0,928.182,646.146ZM932.3,643.2a2.394,2.394,0,0,1,2.448,2.1H929.67A2.616,2.616,0,0,1,932.3,643.2Zm11.392,4.721c0-1.2-.752-1.968-2.113-2.416l-0.864-.288c-0.944-.3-1.232-0.608-1.232-1.121a1.132,1.132,0,0,1,1.344-.928,2.165,2.165,0,0,1,1.7.832l0.9-.864a3.1,3.1,0,0,0-2.561-1.152c-1.584,0-2.7.88-2.7,2.176a2.415,2.415,0,0,0,1.984,2.321l0.784,0.256c1.04,0.336,1.425.72,1.425,1.28a1.219,1.219,0,0,1-1.409,1.088,2.147,2.147,0,0,1-2.048-1.264l-1.12.608a3.178,3.178,0,0,0,3.136,1.856C942.519,650.306,943.687,649.49,943.687,647.922Zm4.271,1.152a1.184,1.184,0,1,0-1.184,1.2A1.205,1.205,0,0,0,947.958,649.074Z"/>
  <path id="Designed_for_a_life_with_NO_BOUNDARIES" data-name="Designed for a life with NO BOUNDARIES" class="cls-1" d="M39.061,561.436H47.04a11.707,11.707,0,1,0,0-23.409H39.061v23.409Zm5.242-4.814V542.841H47.04a6.9,6.9,0,0,1,0,13.781H44.3Zm20.333,4.814H79.473v-5.012H69.878v-4.187h7.616v-5.011H69.878v-4.187h9.594v-5.012H64.636v23.409Zm27.813,0.395c4.945,0,8.341-2.967,8.374-7.22,0.033-3.528-2.176-5.77-5.572-6.99l-1.648-.593c-2.473-.89-3.627-1.451-3.627-2.7,0-1.219,1.418-1.78,2.835-1.78a5.206,5.206,0,0,1,4.055,1.945l3.429-3.626a9.769,9.769,0,0,0-7.55-3.231c-4.682,0-8.078,2.67-8.078,7.22,0,3.2,2.11,5.473,5.9,6.759l1.648,0.56c2.341,0.792,3.264,1.616,3.264,2.8,0,1.121-1.088,1.945-2.835,1.945a6.123,6.123,0,0,1-4.847-2.671l-4.022,3.4A10.263,10.263,0,0,0,92.449,561.831Zm14-.395h5.242V538.027h-5.242v23.409Zm23.617,0.395c3.791,0,7.517-1.121,9.594-3.461V547.259h-9.693v4.912h4.583v3.462a7.629,7.629,0,0,1-4.55,1.121c-4.583,0-7.385-3.033-7.385-7.023a6.871,6.871,0,0,1,7.055-7.022,7.773,7.773,0,0,1,5.9,2.506l3.693-3.594a12.454,12.454,0,0,0-9.595-3.989,11.956,11.956,0,0,0-12.33,12.1C117.338,556.589,122.778,561.831,130.064,561.831Zm36.885-.395V538.027h-5.276v14.441L150.3,538.027h-4.517v23.409h5.242V546.962l11.408,14.474h4.517Zm6.949,0h14.836v-5.012H179.14v-4.187h7.616v-5.011H179.14v-4.187h9.594v-5.012H173.9v23.409Zm20.823,0H202.7a11.707,11.707,0,1,0,0-23.409h-7.978v23.409Zm5.242-4.814V542.841H202.7a6.9,6.9,0,0,1,0,13.781h-2.736Zm29.572,4.814h5.242V552.27h7.155v-5.011h-7.155v-4.22h9.166v-5.012H229.535v23.409Zm30.284,0.395a12.1,12.1,0,1,0-12.1-12.1A12.129,12.129,0,0,0,259.819,561.831Zm0-5.077a7.026,7.026,0,1,1,6.792-7.023A6.946,6.946,0,0,1,259.819,556.754Zm17.731,4.682h5.242v-9.66h0.857l7.781,9.66h6.3l-8.275-10.32c2.967-1.055,4.583-3,4.583-6.033a6.912,6.912,0,0,0-7.254-7.056H277.55v23.409Zm5.242-14.111v-4.484h3.363c1.549,0,2.67.824,2.67,2.242,0,1.351-1.121,2.242-2.67,2.242h-3.363Zm23.667,14.111h5.473l2.077-4.946H323.7l2.077,4.946h5.473L321.23,538.027h-4.748Zm9.463-9.5,2.934-7.055,2.934,7.055h-5.868Zm28.022,9.5H358.88v-5.012h-9.693v-18.4h-5.243v23.409Zm20.2,0h5.242V538.027H364.14v23.409Zm12.177,0h5.242V552.27h7.154v-5.011h-7.154v-4.22h9.166v-5.012H376.317v23.409Zm19.965,0h14.836v-5.012h-9.594v-4.187h7.616v-5.011h-7.616v-4.187h9.594v-5.012H396.282v23.409Zm47.9,0h4.978l5.44-23.409h-5.6l-3.2,14.837L439.2,537.632l-6.561,15.232-3.2-14.837h-5.6l5.407,23.409h4.979l4.978-11.474Zm15.394,0h5.242V538.027h-5.242v23.409Zm16.4,0h5.275v-18.4h6.034v-5.012H470v5.012h5.968v18.4Zm16.5,0h5.242v-9.265h9.429v9.265h5.242V538.027h-5.242v9.166h-9.429v-9.166h-5.242v23.409Zm57.268,0V538.027h-5.275v14.441l-11.375-14.441h-4.517v23.409h5.242V546.962l11.408,14.474h4.517Zm17.73,0.395a12.1,12.1,0,1,0-12.1-12.1A12.129,12.129,0,0,0,567.474,561.831Zm0-5.077a7.026,7.026,0,1,1,6.792-7.023A6.945,6.945,0,0,1,567.474,556.754Zm26.97,4.682H604.73a6.921,6.921,0,0,0,7.122-6.891,6.117,6.117,0,0,0-3.33-5.539,5.509,5.509,0,0,0,1.681-4.022,6.958,6.958,0,0,0-6.956-6.957h-8.8v23.409Zm5.242-13.946v-4.682h2.967a2.379,2.379,0,0,1,2.44,2.374,2.347,2.347,0,0,1-2.44,2.308h-2.967Zm0,9.132V551.94h4.583a2.382,2.382,0,0,1,2.472,2.341,2.352,2.352,0,0,1-2.439,2.341h-4.616Zm28.474,5.209a12.1,12.1,0,1,0-12.1-12.1A12.129,12.129,0,0,0,628.16,561.831Zm0-5.077a7.026,7.026,0,1,1,6.791-7.023A6.945,6.945,0,0,1,628.16,556.754Zm27.093,5.077c5.6,0,9.628-3.824,9.628-9.66V538.027h-5.243v14.21a4.387,4.387,0,1,1-8.77,0v-14.21h-5.242v14.144C645.626,558.007,649.616,561.831,655.253,561.831Zm37.477-.395V538.027h-5.275v14.441L676.08,538.027h-4.516v23.409h5.242V546.962l11.407,14.474h4.517Zm6.949,0h7.979a11.707,11.707,0,1,0,0-23.409h-7.979v23.409Zm5.242-4.814V542.841h2.737a6.9,6.9,0,0,1,0,13.781h-2.737Zm16.739,4.814h5.473l2.077-4.946H738.9l2.077,4.946h5.473L736.43,538.027h-4.747Zm9.462-9.5,2.934-7.055,2.935,7.055h-5.869Zm19.773,9.5h5.243v-9.66H757l7.781,9.66h6.3l-8.275-10.32c2.967-1.055,4.582-3,4.582-6.033a6.911,6.911,0,0,0-7.253-7.056H750.9v23.409Zm5.243-14.111v-4.484H759.5c1.549,0,2.67.824,2.67,2.242,0,1.351-1.121,2.242-2.67,2.242h-3.363Zm18.583,14.111h5.242V538.027h-5.242v23.409Zm12.177,0h14.836v-5.012H792.14v-4.187h7.616v-5.011H792.14v-4.187h9.594v-5.012H786.9v23.409Zm27.812,0.395c4.946,0,8.342-2.967,8.375-7.22,0.033-3.528-2.176-5.77-5.572-6.99l-1.649-.593c-2.473-.89-3.627-1.451-3.627-2.7,0-1.219,1.418-1.78,2.836-1.78a5.2,5.2,0,0,1,4.055,1.945l3.429-3.626a9.767,9.767,0,0,0-7.55-3.231c-4.682,0-8.078,2.67-8.078,7.22,0,3.2,2.11,5.473,5.9,6.759l1.648,0.56c2.341,0.792,3.264,1.616,3.264,2.8,0,1.121-1.088,1.945-2.835,1.945a6.125,6.125,0,0,1-4.847-2.671l-4.022,3.4A10.264,10.264,0,0,0,814.71,561.831Z"/>
  <path id="celebrating_40_years_of_iconic_style" data-name="celebrating 40 years of iconic style" class="cls-2" d="M916.614,260.441a6.6,6.6,0,0,0,5.967-3.489l-2.516-1.366a3.83,3.83,0,1,1,0-3.488l2.516-1.366A6.653,6.653,0,1,0,916.614,260.441Zm9.079-.216h8.087v-2.733h-5.23v-2.284H932.7v-2.732H928.55v-2.284h5.23v-2.733h-8.087v12.766Zm11.7,0h8.14v-2.733h-5.283V247.459H937.4v12.766Zm11.36,0h8.086v-2.733h-5.229v-2.284h4.151v-2.732h-4.151v-2.284h5.229v-2.733h-8.086v12.766Zm11.7,0h5.607a3.774,3.774,0,0,0,3.882-3.758,3.338,3.338,0,0,0-1.815-3.021,3,3,0,0,0,.916-2.193,3.793,3.793,0,0,0-3.792-3.794h-4.8v12.766Zm2.858-7.606v-2.553h1.617a1.3,1.3,0,0,1,1.33,1.295,1.279,1.279,0,0,1-1.33,1.258h-1.617Zm0,4.981v-2.553h2.5a1.3,1.3,0,0,1,1.348,1.276,1.283,1.283,0,0,1-1.33,1.277h-2.515Zm9.994,2.625h2.858v-5.268h0.467l4.241,5.268h3.432L979.8,254.6a3.293,3.293,0,0,0,2.5-3.29,3.768,3.768,0,0,0-3.953-3.848h-5.032v12.766Zm2.858-7.7v-2.446H978a1.272,1.272,0,0,1,1.455,1.223A1.292,1.292,0,0,1,978,252.53h-1.833Zm9.114,7.7h2.983l1.132-2.7h5.283l1.132,2.7h2.983l-5.463-12.766h-2.587Zm5.157-5.178,1.6-3.848,1.6,3.848h-3.2Zm12.153,5.178h2.87V250.192h3.29v-2.733h-9.414v2.733h3.254v10.033Zm9.35,0h2.85V247.459h-2.85v12.766Zm18.53,0V247.459h-2.88v7.875l-6.2-7.875h-2.46v12.766h2.86v-7.893l6.21,7.893h2.47Zm10.37,0.216a7.076,7.076,0,0,0,5.23-1.888v-6.059h-5.29v2.679h2.5v1.887a4.146,4.146,0,0,1-2.48.612,3.832,3.832,0,1,1-.18-7.66,4.239,4.239,0,0,1,3.22,1.367l2.01-1.96a6.778,6.778,0,0,0-5.23-2.175,6.52,6.52,0,0,0-6.72,6.6A6.632,6.632,0,0,0,1040.84,260.441Zm19.52-.216h2.71v-2.769h1.64v-2.481h-1.64v-7.516h-2.44l-6.51,7.8v2.194h6.24v2.769Zm0-5.25h-2.93l2.93-3.524v3.524Zm12.13,5.448a4.785,4.785,0,0,0,4.82-5.107V252.35a4.833,4.833,0,1,0-9.65,0v2.966A4.782,4.782,0,0,0,1072.49,260.423Zm0-2.679a2.132,2.132,0,0,1-2.12-2.428V252.35a2.131,2.131,0,1,1,4.22,0v2.966A2.128,2.128,0,0,1,1072.49,257.744Zm16.88,2.481h2.88v-5.358l4.65-7.408h-3.33l-2.78,4.6-2.75-4.6h-3.32l4.65,7.39v5.376Zm10.46,0h8.09v-2.733h-5.23v-2.284h4.15v-2.732h-4.15v-2.284h5.23v-2.733h-8.09v12.766Zm10.34,0h2.98l1.13-2.7h5.29l1.13,2.7h2.98l-5.46-12.766h-2.59Zm5.16-5.178,1.59-3.848,1.6,3.848h-3.19Zm11.12,5.178h2.86v-5.268h0.47l4.24,5.268h3.43l-4.51-5.628a3.293,3.293,0,0,0,2.5-3.29,3.772,3.772,0,0,0-3.96-3.848h-5.03v12.766Zm2.86-7.7v-2.446h1.83a1.273,1.273,0,0,1,1.46,1.223,1.293,1.293,0,0,1-1.46,1.223h-1.83Zm14.29,7.911c2.69,0,4.55-1.619,4.56-3.938,0.02-1.924-1.18-3.146-3.03-3.812l-0.9-.323c-1.35-.486-1.98-0.791-1.98-1.475,0-.665.77-0.971,1.55-0.971a2.846,2.846,0,0,1,2.21,1.061l1.87-1.977a5.33,5.33,0,0,0-4.12-1.762c-2.55,0-4.4,1.456-4.4,3.937,0,1.744,1.15,2.985,3.22,3.686l0.89,0.306c1.28,0.431,1.78.881,1.78,1.528,0,0.611-.59,1.061-1.54,1.061a3.326,3.326,0,0,1-2.64-1.457l-2.2,1.852A5.608,5.608,0,0,0,1143.6,260.441Zm19.25,0a6.6,6.6,0,1,0-6.6-6.6A6.609,6.609,0,0,0,1162.85,260.441Zm0-2.769a3.832,3.832,0,1,1,3.7-3.83A3.783,3.783,0,0,1,1162.85,257.672Zm10.01,2.553h2.86v-5h3.9v-2.732h-3.9v-2.3h5v-2.733h-7.86v12.766Zm16.2,0h2.86V247.459h-2.86v12.766Zm12.87,0.216a6.578,6.578,0,0,0,5.96-3.489l-2.51-1.366a3.83,3.83,0,1,1,0-3.488l2.51-1.366A6.652,6.652,0,1,0,1201.93,260.441Zm14.95,0a6.6,6.6,0,1,0-6.59-6.6A6.617,6.617,0,0,0,1216.88,260.441Zm0-2.769a3.832,3.832,0,1,1,3.7-3.83A3.79,3.79,0,0,1,1216.88,257.672Zm21.55,2.553V247.459h-2.87v7.875l-6.2-7.875h-2.47v12.766h2.86v-7.893l6.22,7.893h2.46Zm4.14,0h2.86V247.459h-2.86v12.766Zm12.87,0.216a6.578,6.578,0,0,0,5.96-3.489l-2.51-1.366a3.83,3.83,0,1,1,0-3.488l2.51-1.366A6.652,6.652,0,1,0,1255.44,260.441Zm18.28,0c2.69,0,4.54-1.619,4.56-3.938,0.02-1.924-1.18-3.146-3.03-3.812l-0.9-.323c-1.35-.486-1.98-0.791-1.98-1.475,0-.665.77-0.971,1.55-0.971a2.86,2.86,0,0,1,2.21,1.061l1.86-1.977a5.3,5.3,0,0,0-4.11-1.762c-2.55,0-4.4,1.456-4.4,3.937,0,1.744,1.15,2.985,3.21,3.686l0.9,0.306c1.28,0.431,1.78.881,1.78,1.528,0,0.611-.59,1.061-1.54,1.061a3.344,3.344,0,0,1-2.65-1.457l-2.19,1.852A5.608,5.608,0,0,0,1273.72,260.441Zm10.1-.216h2.88V250.192h3.28v-2.733h-9.41v2.733h3.25v10.033Zm12.8,0h2.87v-5.358l4.66-7.408h-3.33l-2.78,4.6-2.75-4.6h-3.33l4.66,7.39v5.376Zm10.46,0h8.14v-2.733h-5.28V247.459h-2.86v12.766Zm11.36,0h8.09v-2.733h-5.23v-2.284h4.15v-2.732h-4.15v-2.284h5.23v-2.733h-8.09v12.766Z"/>
  <path id="Polygon_598" data-name="Polygon 598" class="cls-3" d="M465.01,247.494L426.992,284V210.989Z"/>
  <circle class="cls-4" cx="438.5" cy="247.5" r="67.5"/>
  <path class="cls-2" d="M1339.65,19.646l0.7,0.707-26,26-0.7-.707Z"/>
  <path id="Shape_593_copy" data-name="Shape 593 copy" class="cls-2" d="M1314.35,19.646l-0.7.707,26,26,0.7-.707Z"/>
</svg>
