<svg id="copy_copy" data-name="copy copy" xmlns="http://www.w3.org/2000/svg" width="1360" height="723"><defs><style>.cls-1,.cls-2{fill-rule:evenodd}.cls-2{fill:#fff}</style></defs><path id="Banana_Republic_was_born_from_two_California_creatives_fueled_b" data-name="Banana Republic was born from two California creatives fueled b" class="cls-1" d="M39.891 602.146h4.065c2.3 0 3.809-1.424 3.809-3.312a2.709 2.709 0 0 0-1.968-2.721 2.575 2.575 0 0 0 1.216-2.32 3.111 3.111 0 0 0-3.392-3.008h-3.73v11.361zm1.488-6.481v-3.536h2.24a1.786 1.786 0 0 1 1.936 1.776 1.749 1.749 0 0 1-1.936 1.76h-2.24zm0 5.137v-3.856h2.656c1.5 0 2.272.832 2.272 1.936 0 1.12-.768 1.92-2.288 1.92h-2.64zm8.144-2.656a4 4 0 0 0 3.921 4.16 3.509 3.509 0 0 0 2.816-1.392v1.232h1.376v-8H56.26v1.232a3.509 3.509 0 0 0-2.816-1.392 4 4 0 0 0-3.921 4.16zm6.849 0a2.733 2.733 0 1 1-2.72-2.9 2.732 2.732 0 0 1 2.72 2.9zm4.255 4H62v-3.968c0-1.872 1.024-2.929 2.32-2.929a1.921 1.921 0 0 1 1.888 2.177v4.72h1.36v-4.928a2.949 2.949 0 0 0-3.024-3.233A2.83 2.83 0 0 0 62 595.377v-1.232h-1.374v8zm9.2-4a4 4 0 0 0 3.921 4.16 3.509 3.509 0 0 0 2.816-1.392v1.232h1.376v-8h-1.377v1.232a3.509 3.509 0 0 0-2.816-1.392 4 4 0 0 0-3.921 4.16zm6.849 0a2.733 2.733 0 1 1-2.72-2.9 2.732 2.732 0 0 1 2.719 2.9zm4.255 4h1.376v-3.968c0-1.872 1.024-2.929 2.32-2.929a1.921 1.921 0 0 1 1.888 2.177v4.72h1.36v-4.928a2.949 2.949 0 0 0-3.024-3.233 2.829 2.829 0 0 0-2.544 1.392v-1.232H80.93v8zm9.2-4a4 4 0 0 0 3.92 4.16 3.509 3.509 0 0 0 2.816-1.392v1.232h1.376v-8h-1.376v1.232a3.509 3.509 0 0 0-2.816-1.392 4 4 0 0 0-3.921 4.16zm6.849 0a2.733 2.733 0 1 1-2.72-2.9 2.732 2.732 0 0 1 2.719 2.9zm8.767 4h1.488v-5.168h1.1l4.369 5.168h1.872l-4.369-5.184a2.965 2.965 0 0 0 2.8-3.041 3.065 3.065 0 0 0-3.393-3.136h-3.872v11.361zm1.488-6.5v-3.488h2.208c1.3 0 2.08.608 2.08 1.76 0 1.136-.784 1.728-2.08 1.728h-2.208zm8 2.5a4.219 4.219 0 0 0 7.746 2.256l-1.089-.752a2.832 2.832 0 0 1-5.264-1.232h6.561a3.9 3.9 0 0 0 .011-.418 3.729 3.729 0 0 0-3.809-4.017 4.055 4.055 0 0 0-4.158 4.163zm4.113-2.945a2.394 2.394 0 0 1 2.448 2.1h-5.072a2.615 2.615 0 0 1 2.622-2.101zm6.207 10.29h1.377v-4.577a3.508 3.508 0 0 0 2.816 1.392 4.168 4.168 0 0 0 0-8.321 3.508 3.508 0 0 0-2.816 1.392v-1.232h-1.377v11.346zm6.705-7.345a2.725 2.725 0 1 1-2.72-2.9 2.731 2.731 0 0 1 2.718 2.9zm3.679.912a2.921 2.921 0 0 0 2.945 3.248 2.752 2.752 0 0 0 2.464-1.392v1.232h1.376v-8h-1.376v3.969c0 1.84-.976 2.928-2.224 2.928-1.1 0-1.808-.848-1.808-2.192v-4.705h-1.377v4.913zm11.152 1.856a3.512 3.512 0 0 0 2.817 1.392 4.168 4.168 0 0 0 0-8.321 3.512 3.512 0 0 0-2.817 1.392v-5.232h-1.376v12h1.376v-1.232zm5.329-2.768a2.726 2.726 0 1 1-2.72-2.9 2.731 2.731 0 0 1 2.718 2.9zm3.775 4h1.376v-12h-1.376v12zm6.048-11.121a.966.966 0 0 0-.96-.976.994.994 0 0 0-.992.976.983.983 0 0 0 .992.976.956.956 0 0 0 .958-.976zm-1.664 11.121h1.376v-8h-1.376v8zm11.649-1.984l-1.2-.672a2.712 2.712 0 0 1-2.5 1.536 2.882 2.882 0 0 1 0-5.761 2.711 2.711 0 0 1 2.5 1.537l1.2-.673a4.143 4.143 0 0 0-3.7-2.144 4.161 4.161 0 1 0 0 8.321 4.143 4.143 0 0 0 3.698-2.144zm12.976 1.984h1.216l2.72-8h-1.456l-1.936 5.841-2-5.841h-1.056l-2 5.841-1.936-5.841h-1.441l2.721 8h1.216l1.984-5.76zm5.166-4a4 4 0 0 0 3.921 4.16 3.508 3.508 0 0 0 2.816-1.392v1.232h1.376v-8h-1.376v1.232a3.508 3.508 0 0 0-2.816-1.392 4 4 0 0 0-3.923 4.16zm6.849 0a2.733 2.733 0 1 1-2.72-2.9 2.731 2.731 0 0 1 2.718 2.9zm9.44 1.776c0-1.2-.752-1.968-2.112-2.416l-.864-.288c-.945-.3-1.233-.608-1.233-1.121a1.133 1.133 0 0 1 1.345-.928 2.161 2.161 0 0 1 1.7.832l.9-.864a3.1 3.1 0 0 0-2.56-1.152c-1.585 0-2.7.88-2.7 2.176a2.415 2.415 0 0 0 1.984 2.321l.785.256c1.04.336 1.424.72 1.424 1.28a1.218 1.218 0 0 1-1.408 1.088 2.147 2.147 0 0 1-2.049-1.264l-1.12.608a3.178 3.178 0 0 0 3.137 1.856c1.601 0 2.769-.816 2.769-2.384zm8.047.992a3.508 3.508 0 0 0 2.816 1.392 4.168 4.168 0 0 0 0-8.321 3.508 3.508 0 0 0-2.816 1.392v-5.232h-1.376v12h1.37v-1.232zm5.329-2.768a2.726 2.726 0 1 1-2.721-2.9 2.732 2.732 0 0 1 2.719 2.9zm11.5 0a4.185 4.185 0 1 0-4.177 4.16 4.106 4.106 0 0 0 4.179-4.16zm-6.961 0a2.778 2.778 0 1 1 2.784 2.88 2.751 2.751 0 0 1-2.782-2.88zm9.328 4h1.376v-3.968c0-1.872 1.1-2.753 2.112-2.753a2.011 2.011 0 0 1 .752.128v-1.424a2.851 2.851 0 0 0-.624-.064 2.38 2.38 0 0 0-2.24 1.632v-1.552H233.9v8zm6.255 0h1.377v-3.968c0-1.872 1.024-2.929 2.32-2.929a1.921 1.921 0 0 1 1.888 2.177v4.72h1.36v-4.928a2.949 2.949 0 0 0-3.024-3.233 2.829 2.829 0 0 0-2.544 1.392v-1.232h-1.377v8zm14.592 0h1.377v-6.737h2.32v-1.264h-2.32v-1.472a1.152 1.152 0 0 1 1.328-1.36 3.222 3.222 0 0 1 .992.16v-1.216a3.636 3.636 0 0 0-1.248-.208 2.285 2.285 0 0 0-2.449 2.48v1.616h-1.7v1.264h1.7v6.737zm5.6 0h1.376v-3.968c0-1.872 1.105-2.753 2.113-2.753a2.011 2.011 0 0 1 .752.128v-1.424a2.851 2.851 0 0 0-.624-.064 2.381 2.381 0 0 0-2.241 1.632v-1.552h-1.376v8zm13.7-4a4.185 4.185 0 1 0-4.176 4.16 4.106 4.106 0 0 0 4.175-4.16zm-6.961 0a2.778 2.778 0 1 1 2.785 2.88 2.751 2.751 0 0 1-2.786-2.88zm9.328 4h1.376v-3.968c0-1.808.912-2.929 2.209-2.929 1.04 0 1.568.9 1.568 2.193v4.7h1.376v-3.968c0-1.808.9-2.929 2.192-2.929 1.04 0 1.585.9 1.585 2.193v4.7h1.378v-4.912c0-1.953-1.056-3.249-2.8-3.249a2.769 2.769 0 0 0-2.624 1.712 2.515 2.515 0 0 0-2.464-1.712 2.689 2.689 0 0 0-2.417 1.392v-1.232h-1.376v8zm22.928-.112V600.8a3.041 3.041 0 0 1-.976.16 1.152 1.152 0 0 1-1.328-1.36v-4.193h2.3v-1.264h-2.3v-2.224h-1.376v2.224h-1.7v1.264h1.7v4.369a2.252 2.252 0 0 0 2.448 2.448 3.828 3.828 0 0 0 1.231-.19zm8.945.112h1.211l2.72-8h-1.456l-1.936 5.841-2-5.841h-1.057l-2 5.841-1.936-5.841H300.4l2.72 8h1.216l1.984-5.76zm13.52-4a4.185 4.185 0 1 0-4.177 4.16 4.107 4.107 0 0 0 4.176-4.16zm-6.961 0a2.778 2.778 0 1 1 2.784 2.88 2.751 2.751 0 0 1-2.785-2.88zm13.055-1.68a5.905 5.905 0 0 0 10.9 3.12l-1.249-.752a4.465 4.465 0 1 1 0-4.737l1.249-.752a5.905 5.905 0 0 0-10.903 3.121zm12.432 1.68a4 4 0 0 0 3.92 4.16 3.509 3.509 0 0 0 2.817-1.392v1.232h1.376v-8h-1.376v1.232a3.509 3.509 0 0 0-2.817-1.392 4 4 0 0 0-3.921 4.16zm6.849 0a2.733 2.733 0 1 1-2.72-2.9 2.731 2.731 0 0 1 2.719 2.9zm4.255 4h1.376v-12h-1.376v12zm6.048-11.121a.966.966 0 0 0-.96-.976.994.994 0 0 0-.992.976.983.983 0 0 0 .992.976.956.956 0 0 0 .959-.976zm-1.664 11.121h1.377v-8h-1.376v8zm5.056 0h1.376v-6.737h2.32v-1.264h-2.32v-1.472a1.152 1.152 0 0 1 1.328-1.36 3.222 3.222 0 0 1 .992.16v-1.216a3.636 3.636 0 0 0-1.248-.208 2.285 2.285 0 0 0-2.448 2.48v1.616h-1.7v1.264h1.7v6.737zm13.121-4a4.185 4.185 0 1 0-4.177 4.16 4.106 4.106 0 0 0 4.177-4.16zm-6.961 0a2.778 2.778 0 1 1 2.784 2.88 2.751 2.751 0 0 1-2.785-2.88zm9.327 4h1.377v-3.968c0-1.872 1.1-2.753 2.112-2.753a2.011 2.011 0 0 1 .752.128v-1.424a2.851 2.851 0 0 0-.624-.064 2.38 2.38 0 0 0-2.24 1.632v-1.552h-1.377v8zm6.256 0H384v-3.968c0-1.872 1.024-2.929 2.32-2.929a1.921 1.921 0 0 1 1.888 2.177v4.72h1.36v-4.928a2.949 2.949 0 0 0-3.024-3.233 2.829 2.829 0 0 0-2.544 1.392v-1.232h-1.377v8zm11.488-11.121a.966.966 0 0 0-.96-.976.994.994 0 0 0-.992.976.983.983 0 0 0 .992.976.956.956 0 0 0 .959-.976zm-1.664 11.121h1.376v-8h-1.376v8zm3.76-4a4 4 0 0 0 3.921 4.16 3.508 3.508 0 0 0 2.816-1.392v1.232h1.376v-8h-1.376v1.232a3.508 3.508 0 0 0-2.816-1.392 4 4 0 0 0-3.922 4.16zm6.849 0a2.733 2.733 0 1 1-2.72-2.9 2.731 2.731 0 0 1 2.719 2.9zm15.824 2.016l-1.2-.672a2.713 2.713 0 0 1-2.5 1.536 2.882 2.882 0 0 1 0-5.761 2.712 2.712 0 0 1 2.5 1.537l1.2-.673a4.143 4.143 0 0 0-3.7-2.144 4.161 4.161 0 1 0 0 8.321 4.143 4.143 0 0 0 3.699-2.144zm2.175 1.984h1.376v-3.968c0-1.872 1.1-2.753 2.112-2.753a2.011 2.011 0 0 1 .752.128v-1.424a2.851 2.851 0 0 0-.624-.064 2.38 2.38 0 0 0-2.24 1.632v-1.552h-1.376v8zm5.344-4a4.218 4.218 0 0 0 7.745 2.256l-1.088-.752a2.833 2.833 0 0 1-5.265-1.232h6.561a3.9 3.9 0 0 0 .016-.416 3.729 3.729 0 0 0-3.809-4.017 4.054 4.054 0 0 0-4.158 4.161zm4.112-2.945a2.4 2.4 0 0 1 2.449 2.1h-5.073a2.615 2.615 0 0 1 2.623-2.101zm5.583 2.945a4 4 0 0 0 3.921 4.16 3.508 3.508 0 0 0 2.816-1.392v1.232h1.377v-8h-1.377v1.232a3.508 3.508 0 0 0-2.816-1.392 4 4 0 0 0-3.922 4.16zm6.849 0a2.733 2.733 0 1 1-2.72-2.9 2.731 2.731 0 0 1 2.719 2.9zm8.592 3.888V600.8a3.041 3.041 0 0 1-.976.16 1.152 1.152 0 0 1-1.328-1.36v-4.193h2.3v-1.264h-2.3v-2.224h-1.376v2.224h-1.7v1.264h1.7v4.369a2.252 2.252 0 0 0 2.448 2.448 3.828 3.828 0 0 0 1.231-.19zm3.824-11.009a.966.966 0 0 0-.961-.976.994.994 0 0 0-.992.976.983.983 0 0 0 .992.976.957.957 0 0 0 .96-.976zm-1.665 11.121h1.377v-8h-1.377v8zm6.881 0h1.152l3.7-8h-1.536l-2.736 6.049-2.737-6.049h-1.536zm5.839-4a4.218 4.218 0 0 0 7.745 2.256l-1.088-.752a2.833 2.833 0 0 1-5.265-1.232h6.561a3.9 3.9 0 0 0 .016-.416 3.728 3.728 0 0 0-3.808-4.017 4.054 4.054 0 0 0-4.162 4.161zm4.113-2.945a2.394 2.394 0 0 1 2.448 2.1H467.9a2.616 2.616 0 0 1 2.625-2.101zm11.392 4.721c0-1.2-.752-1.968-2.112-2.416l-.864-.288c-.945-.3-1.233-.608-1.233-1.121a1.133 1.133 0 0 1 1.345-.928 2.161 2.161 0 0 1 1.7.832l.9-.864a3.1 3.1 0 0 0-2.56-1.152c-1.585 0-2.7.88-2.7 2.176a2.415 2.415 0 0 0 1.984 2.321l.785.256c1.04.336 1.424.72 1.424 1.28a1.218 1.218 0 0 1-1.408 1.088 2.147 2.147 0 0 1-2.049-1.264l-1.12.608a3.178 3.178 0 0 0 3.137 1.856c1.602 0 2.77-.816 2.77-2.384zm7.135 2.224h1.376v-6.737h2.321v-1.264h-2.321v-1.472a1.152 1.152 0 0 1 1.329-1.36 3.222 3.222 0 0 1 .992.16v-1.216a3.636 3.636 0 0 0-1.248-.208 2.285 2.285 0 0 0-2.449 2.48v1.616h-1.7v1.264h1.7v6.737zm5.488-3.088c0 1.984 1.184 3.248 2.944 3.248a2.754 2.754 0 0 0 2.465-1.392v1.232h1.376v-8h-1.376v3.969c0 1.84-.977 2.928-2.225 2.928-1.1 0-1.808-.848-1.808-2.192v-4.705h-1.377v4.913zm9.152-.912a4.218 4.218 0 0 0 7.745 2.256l-1.088-.752a2.833 2.833 0 0 1-5.265-1.232h6.561a3.9 3.9 0 0 0 .016-.416 3.728 3.728 0 0 0-3.809-4.017 4.054 4.054 0 0 0-4.161 4.161zm4.107-2.946a2.394 2.394 0 0 1 2.449 2.1h-5.069a2.615 2.615 0 0 1 2.62-2.1zm6.208 6.945h1.376v-12h-1.376v12zm3.76-4a4.218 4.218 0 0 0 7.745 2.256l-1.088-.752a2.833 2.833 0 0 1-5.265-1.232h6.561a3.9 3.9 0 0 0 .016-.416 3.729 3.729 0 0 0-3.809-4.017 4.054 4.054 0 0 0-4.156 4.162zm4.112-2.945a2.394 2.394 0 0 1 2.448 2.1h-5.068a2.615 2.615 0 0 1 2.624-2.1zm5.583 2.945a4 4 0 0 0 3.921 4.16 3.508 3.508 0 0 0 2.816-1.392v1.232h1.377v-12H534.2v5.232a3.508 3.508 0 0 0-2.816-1.392 4 4 0 0 0-3.917 4.161zm6.849 0a2.733 2.733 0 1 1-2.72-2.9 2.731 2.731 0 0 1 2.724 2.901zm9.935 2.768a3.51 3.51 0 0 0 2.817 1.392 4.168 4.168 0 0 0 0-8.321 3.51 3.51 0 0 0-2.817 1.392v-5.232h-1.376v12h1.376v-1.232zm5.329-2.768a2.726 2.726 0 1 1-2.72-2.9 2.731 2.731 0 0 1 2.724 2.901zm5.743 7.345l5.249-11.346h-1.536l-2.732 6.066-2.753-6.065h-1.52l3.5 7.585-1.745 3.761h1.536zm15.041-3.457V600.8a3.041 3.041 0 0 1-.976.16 1.152 1.152 0 0 1-1.328-1.36v-4.193h2.3v-1.264h-2.3v-2.224h-1.377v2.224h-1.7v1.264h1.7v4.369a2.252 2.252 0 0 0 2.449 2.448 3.828 3.828 0 0 0 1.236-.19zm2.159.112h1.381v-3.968c0-1.872 1.025-2.929 2.321-2.929a1.921 1.921 0 0 1 1.888 2.177v4.72h1.36v-4.928a2.949 2.949 0 0 0-3.024-3.233 2.831 2.831 0 0 0-2.545 1.392v-5.232h-1.376v12zm9.2-4a4.218 4.218 0 0 0 7.745 2.256l-1.088-.752a2.833 2.833 0 0 1-5.265-1.232h6.561a3.9 3.9 0 0 0 .016-.416 3.728 3.728 0 0 0-3.808-4.017 4.054 4.054 0 0 0-4.157 4.162zm4.113-2.945a2.394 2.394 0 0 1 2.448 2.1h-5.073a2.616 2.616 0 0 1 2.629-2.1zm7.871-4.176a.966.966 0 0 0-.96-.976.994.994 0 0 0-.992.976.983.983 0 0 0 .992.976.956.956 0 0 0 .964-.975zm-1.664 11.121h1.376v-8h-1.376v8zm4.384 0h1.377v-3.968c0-1.872 1.1-2.753 2.112-2.753a2.011 2.011 0 0 1 .752.128v-1.424a2.851 2.851 0 0 0-.624-.064 2.38 2.38 0 0 0-2.24 1.632v-1.552h-1.376v8zm9.536-4a4.218 4.218 0 0 0 7.745 2.256l-1.089-.752a2.832 2.832 0 0 1-5.264-1.232h6.561a3.9 3.9 0 0 0 .016-.416 3.729 3.729 0 0 0-3.809-4.017 4.054 4.054 0 0 0-4.156 4.162zm4.112-2.945a2.4 2.4 0 0 1 2.449 2.1h-5.073a2.615 2.615 0 0 1 2.628-2.1zm4.72 6.945h1.712l2.432-3.024 2.433 3.024h1.7L619.8 598.1l3.009-3.953h-1.681l-2.192 2.881-2.208-2.881h-1.664l3.008 3.953zm10.08 3.345h1.376v-4.577a3.508 3.508 0 0 0 2.816 1.392 4.168 4.168 0 0 0 0-8.321 3.508 3.508 0 0 0-2.816 1.392v-1.232h-1.376v11.346zm6.705-7.345a2.726 2.726 0 1 1-2.721-2.9 2.732 2.732 0 0 1 2.725 2.901zm3.791 4h1.376v-12h-1.376v12zm12.113-4a4.185 4.185 0 1 0-4.177 4.16 4.107 4.107 0 0 0 4.181-4.159zm-6.961 0a2.778 2.778 0 1 1 2.784 2.88 2.751 2.751 0 0 1-2.78-2.879zm9.327 4h1.377v-3.968c0-1.872 1.1-2.753 2.112-2.753a2.011 2.011 0 0 1 .752.128v-1.424a2.851 2.851 0 0 0-.624-.064 2.38 2.38 0 0 0-2.24 1.632v-1.552h-1.373v8zm5.344-4a4.218 4.218 0 0 0 7.745 2.256l-1.088-.752a2.832 2.832 0 0 1-5.264-1.232h6.561a3.9 3.9 0 0 0 .016-.416 3.729 3.729 0 0 0-3.809-4.017 4.055 4.055 0 0 0-4.157 4.162zm4.113-2.945a2.394 2.394 0 0 1 2.448 2.1h-5.072a2.615 2.615 0 0 1 2.628-2.1zm6.207 6.945h1.377v-3.968c0-1.872 1.1-2.753 2.112-2.753a2.011 2.011 0 0 1 .752.128v-1.424a2.851 2.851 0 0 0-.624-.064 2.38 2.38 0 0 0-2.24 1.632v-1.552h-1.377v8zm15.345-2.224c0-1.2-.752-1.968-2.112-2.416l-.864-.288c-.945-.3-1.233-.608-1.233-1.121a1.133 1.133 0 0 1 1.345-.928 2.161 2.161 0 0 1 1.7.832l.9-.864a3.1 3.1 0 0 0-2.56-1.152c-1.585 0-2.705.88-2.705 2.176a2.415 2.415 0 0 0 1.984 2.321l.785.256c1.04.336 1.424.72 1.424 1.28a1.218 1.218 0 0 1-1.408 1.088 2.147 2.147 0 0 1-2.049-1.264l-1.12.608a3.178 3.178 0 0 0 3.137 1.856c1.612.001 2.78-.815 2.78-2.383zm2.367 5.569h1.378v-4.577a3.51 3.51 0 0 0 2.817 1.392 4.168 4.168 0 0 0 0-8.321 3.51 3.51 0 0 0-2.817 1.392v-1.232h-1.376v11.346zm6.705-7.345a2.726 2.726 0 1 1-2.72-2.9 2.731 2.731 0 0 1 2.724 2.901zm5.455-7.121a.966.966 0 0 0-.96-.976.994.994 0 0 0-.992.976.983.983 0 0 0 .992.976.956.956 0 0 0 .964-.975zm-1.664 11.121h1.382v-8h-1.376v8zm4.384 0h1.376v-3.968c0-1.872 1.1-2.753 2.112-2.753a2.016 2.016 0 0 1 .753.128v-1.424a2.86 2.86 0 0 0-.625-.064 2.38 2.38 0 0 0-2.24 1.632v-1.552h-1.376v8zm7.92-11.121a.966.966 0 0 0-.96-.976.994.994 0 0 0-.992.976.983.983 0 0 0 .992.976.956.956 0 0 0 .964-.975zm-1.664 11.121h1.376v-8h-1.376v8zm8.72-.112V600.8a3.041 3.041 0 0 1-.976.16 1.152 1.152 0 0 1-1.328-1.36v-4.193h2.3v-1.264h-2.3v-2.224H709.4v2.224h-1.7v1.264h1.7v4.369a2.252 2.252 0 0 0 2.448 2.448 3.828 3.828 0 0 0 1.234-.19zm7.344-2.112c0-1.2-.752-1.968-2.112-2.416l-.864-.288c-.944-.3-1.232-.608-1.232-1.121a1.132 1.132 0 0 1 1.344-.928 2.161 2.161 0 0 1 1.7.832l.9-.864a3.1 3.1 0 0 0-2.56-1.152c-1.584 0-2.7.88-2.7 2.176a2.415 2.415 0 0 0 1.984 2.321l.784.256c1.04.336 1.424.72 1.424 1.28a1.218 1.218 0 0 1-1.408 1.088 2.147 2.147 0 0 1-2.048-1.264l-1.12.608a3.178 3.178 0 0 0 3.136 1.856c1.608.001 2.776-.815 2.776-2.383zm4.272 1.152a1.184 1.184 0 1 0-1.184 1.2 1.205 1.205 0 0 0 1.19-1.199zm6.255-4.608a5.905 5.905 0 0 0 10.9 3.12l-1.248-.752a4.465 4.465 0 1 1 0-4.737l1.248-.752a5.905 5.905 0 0 0-10.896 3.122zm12.944 2.592c0 1.984 1.184 3.248 2.945 3.248a2.752 2.752 0 0 0 2.464-1.392v1.232h1.376v-8h-1.376v3.969c0 1.84-.976 2.928-2.224 2.928-1.105 0-1.809-.848-1.809-2.192v-4.705H743.9v4.913zm9.776 3.088h1.376v-3.968c0-1.872 1.1-2.753 2.113-2.753a2.011 2.011 0 0 1 .752.128v-1.424a2.851 2.851 0 0 0-.624-.064 2.381 2.381 0 0 0-2.241 1.632v-1.552h-1.376v8zm7.92-11.121a.966.966 0 0 0-.96-.976.994.994 0 0 0-.992.976.983.983 0 0 0 .992.976.956.956 0 0 0 .964-.975zm-1.664 11.121h1.376v-8h-1.376v8zm12.113-4a4.185 4.185 0 1 0-4.176 4.16 4.106 4.106 0 0 0 4.18-4.159zm-6.961 0a2.778 2.778 0 1 1 2.785 2.88 2.751 2.751 0 0 1-2.781-2.879zm9.216.912c0 1.984 1.184 3.248 2.944 3.248a2.755 2.755 0 0 0 2.465-1.392v1.232h1.376v-8h-1.376v3.969c0 1.84-.977 2.928-2.225 2.928-1.1 0-1.808-.848-1.808-2.192v-4.705H774.3v4.913zm14.96.864c0-1.2-.752-1.968-2.112-2.416l-.864-.288c-.944-.3-1.232-.608-1.232-1.121a1.132 1.132 0 0 1 1.344-.928 2.161 2.161 0 0 1 1.7.832l.9-.864a3.1 3.1 0 0 0-2.56-1.152c-1.584 0-2.7.88-2.7 2.176a2.415 2.415 0 0 0 1.984 2.321l.784.256c1.04.336 1.424.72 1.424 1.28a1.218 1.218 0 0 1-1.408 1.088 2.147 2.147 0 0 1-2.048-1.264l-1.12.608a3.178 3.178 0 0 0 3.136 1.856c1.608.001 2.776-.815 2.776-2.383zm4.08 1.872a1.368 1.368 0 0 0 .224-.72 1.184 1.184 0 1 0-2.368 0 1.191 1.191 0 0 0 .656 1.072l-1.073 2.289h.913zm14.352-1.632l-1.2-.672a2.712 2.712 0 0 1-2.5 1.536 2.882 2.882 0 0 1 0-5.761 2.711 2.711 0 0 1 2.5 1.537l1.2-.673a4.143 4.143 0 0 0-3.7-2.144 4.161 4.161 0 1 0 0 8.321 4.143 4.143 0 0 0 3.704-2.143zm9.9-2.016a4.185 4.185 0 1 0-4.176 4.16 4.106 4.106 0 0 0 4.184-4.159zm-6.961 0a2.778 2.778 0 1 1 2.785 2.88 2.751 2.751 0 0 1-2.777-2.879zm9.328 4h1.376v-3.968c0-1.872 1.024-2.929 2.32-2.929a1.921 1.921 0 0 1 1.889 2.177v4.72h1.36v-4.928a2.949 2.949 0 0 0-3.025-3.233 2.829 2.829 0 0 0-2.544 1.392v-1.232h-1.368v8zm9.824 0h1.376v-3.968c0-1.872 1.024-2.929 2.32-2.929a1.921 1.921 0 0 1 1.888 2.177v4.72h1.361v-4.928a2.949 2.949 0 0 0-3.025-3.233 2.829 2.829 0 0 0-2.544 1.392v-1.232h-1.376v8zm9.2-4a4.219 4.219 0 0 0 7.746 2.256l-1.089-.752a2.832 2.832 0 0 1-5.264-1.232h6.561a3.9 3.9 0 0 0 .016-.416 3.729 3.729 0 0 0-3.809-4.017 4.055 4.055 0 0 0-4.154 4.162zm4.124-2.945a2.394 2.394 0 0 1 2.448 2.1h-5.072a2.615 2.615 0 0 1 2.624-2.1zm13.472 4.961l-1.2-.672a2.712 2.712 0 0 1-2.5 1.536 2.882 2.882 0 0 1 0-5.761 2.711 2.711 0 0 1 2.5 1.537l1.2-.673a4.143 4.143 0 0 0-3.7-2.144 4.161 4.161 0 1 0 0 8.321 4.143 4.143 0 0 0 3.696-2.143zm6.512 1.872V600.8a3.041 3.041 0 0 1-.976.16 1.152 1.152 0 0 1-1.328-1.36v-4.193h2.3v-1.264h-2.3v-2.224h-1.38v2.224h-1.7v1.264h1.7v4.369a2.252 2.252 0 0 0 2.449 2.448 3.828 3.828 0 0 0 1.231-.19zm1.423-3.888a4.218 4.218 0 0 0 7.745 2.256l-1.088-.752a2.833 2.833 0 0 1-5.265-1.232h6.561a3.9 3.9 0 0 0 .016-.416 3.728 3.728 0 0 0-3.808-4.017 4.054 4.054 0 0 0-4.168 4.162zm4.113-2.945a2.394 2.394 0 0 1 2.448 2.1h-5.072a2.615 2.615 0 0 1 2.62-2.1zm5.583 2.945a4 4 0 0 0 3.921 4.16 3.508 3.508 0 0 0 2.816-1.392v1.232h1.376v-12h-1.376v5.232a3.508 3.508 0 0 0-2.816-1.392 4 4 0 0 0-3.924 4.161zm6.849 0a2.733 2.733 0 1 1-2.72-2.9 2.731 2.731 0 0 1 2.716 2.901zm7.935 0a4 4 0 0 0 3.92 4.16 3.509 3.509 0 0 0 2.817-1.392v1.232h1.376v-8h-1.38v1.232a3.509 3.509 0 0 0-2.817-1.392 4 4 0 0 0-3.92 4.161zm6.849 0a2.733 2.733 0 1 1-2.72-2.9 2.731 2.731 0 0 1 2.716 2.901zm4.255 4h1.376v-3.968c0-1.872 1.024-2.929 2.32-2.929a1.921 1.921 0 0 1 1.889 2.177v4.72h1.36v-4.928a2.949 2.949 0 0 0-3.025-3.233 2.829 2.829 0 0 0-2.544 1.392v-1.232h-1.376v8zm9.2-4a4 4 0 0 0 3.92 4.16 3.508 3.508 0 0 0 2.816-1.392v1.232h1.373v-12h-1.377v5.232a3.508 3.508 0 0 0-2.816-1.392 4 4 0 0 0-3.92 4.161zm6.849 0a2.733 2.733 0 1 1-2.721-2.9 2.732 2.732 0 0 1 2.717 2.901zm16.287 0a4.185 4.185 0 1 0-4.176 4.16 4.106 4.106 0 0 0 4.172-4.159zm-6.961 0a2.778 2.778 0 1 1 2.785 2.88 2.751 2.751 0 0 1-2.789-2.879zm9.216.912c0 1.984 1.184 3.248 2.944 3.248a2.753 2.753 0 0 0 2.465-1.392v1.232h1.376v-8h-1.376v3.969c0 1.84-.976 2.928-2.224 2.928-1.105 0-1.809-.848-1.809-2.192v-4.705h-1.376v4.913zm14.113 2.976V600.8a3.041 3.041 0 0 1-.976.16 1.152 1.152 0 0 1-1.329-1.36v-4.193h2.305v-1.264h-2.305v-2.224h-1.38v2.224h-1.7v1.264h1.7v4.369a2.252 2.252 0 0 0 2.448 2.448 3.83 3.83 0 0 0 1.233-.19zm8.127-11.009a.966.966 0 0 0-.96-.976.994.994 0 0 0-.992.976.983.983 0 0 0 .992.976.956.956 0 0 0 .956-.975zm-1.664 11.121h1.376v-8h-1.376v8zm4.384 0h1.376v-3.968c0-1.872 1.024-2.929 2.32-2.929a1.921 1.921 0 0 1 1.889 2.177v4.72h1.36v-4.928a2.949 2.949 0 0 0-3.025-3.233 2.829 2.829 0 0 0-2.544 1.392v-1.232h-1.376v8zm18.192-.112V600.8a3.041 3.041 0 0 1-.976.16 1.152 1.152 0 0 1-1.328-1.36v-4.193h2.3v-1.264h-2.3v-2.224h-1.377v2.224h-1.7v1.264h1.7v4.369a2.253 2.253 0 0 0 2.449 2.448 3.828 3.828 0 0 0 1.228-.19zm2.159.112h1.376v-3.968c0-1.872 1.025-2.929 2.321-2.929a1.921 1.921 0 0 1 1.888 2.177v4.72h1.36v-4.928a2.949 2.949 0 0 0-3.024-3.233 2.832 2.832 0 0 0-2.545 1.392v-5.232h-1.376v12zm9.2-4a4.218 4.218 0 0 0 7.745 2.256l-1.088-.752a2.833 2.833 0 0 1-5.265-1.232h6.561a3.9 3.9 0 0 0 .016-.416 3.728 3.728 0 0 0-3.808-4.017 4.054 4.054 0 0 0-4.165 4.162zm4.107-2.945a2.394 2.394 0 0 1 2.448 2.1h-5.073a2.616 2.616 0 0 1 2.625-2.1zm17.008 6.945h1.22l2.72-8h-1.46l-1.94 5.841-2-5.841h-1.05l-2 5.841-1.94-5.841h-1.44l2.72 8h1.22l1.98-5.76zm13.52-4a4.185 4.185 0 1 0-4.18 4.16 4.109 4.109 0 0 0 4.182-4.159zm-6.96 0a2.777 2.777 0 1 1 2.78 2.88 2.75 2.75 0 0 1-2.778-2.879zm9.33 4h1.37v-3.968c0-1.872 1.11-2.753 2.12-2.753a2.021 2.021 0 0 1 .75.128v-1.424a2.929 2.929 0 0 0-.63-.064 2.388 2.388 0 0 0-2.24 1.632v-1.552h-1.37v8zm6.25 0h1.38v-12h-1.38v12zm3.76-4a4 4 0 0 0 3.92 4.16 3.519 3.519 0 0 0 2.82-1.392v1.232h1.38v-12h-1.38v5.232a3.519 3.519 0 0 0-2.82-1.392 4 4 0 0 0-3.918 4.161zm6.85 0a2.735 2.735 0 1 1-2.72-2.9 2.729 2.729 0 0 1 2.722 2.901zm5.97 3.648a1.347 1.347 0 0 0 .22-.72 1.185 1.185 0 1 0-1.71 1.072l-1.07 2.289h.91zm14.82-3.648a4.185 4.185 0 1 0-4.18 4.16 4.109 4.109 0 0 0 4.182-4.159zm-6.97 0a2.782 2.782 0 1 1 2.79 2.88 2.752 2.752 0 0 1-2.788-2.879zm9.22.912c0 1.984 1.18 3.248 2.94 3.248a2.762 2.762 0 0 0 2.47-1.392v1.232h1.37v-8h-1.37v3.969c0 1.84-.98 2.928-2.23 2.928-1.1 0-1.8-.848-1.8-2.192v-4.705h-1.38v4.913zm9.78 3.088h1.37v-3.968c0-1.872 1.11-2.753 2.11-2.753a2.039 2.039 0 0 1 .76.128v-1.424a2.929 2.929 0 0 0-.63-.064 2.378 2.378 0 0 0-2.24 1.632v-1.552h-1.37v8zM46.948 624.162l-1.2-.672a2.712 2.712 0 0 1-2.5 1.536 2.882 2.882 0 0 1 0-5.761 2.711 2.711 0 0 1 2.5 1.537l1.2-.673a4.144 4.144 0 0 0-3.7-2.144 4.161 4.161 0 1 0 0 8.321 4.144 4.144 0 0 0 3.7-2.144zm2.175 1.984H50.5v-12h-1.378v12zm12.113-4a4.185 4.185 0 1 0-4.177 4.16 4.106 4.106 0 0 0 4.176-4.16zm-6.961 0a2.778 2.778 0 1 1 2.784 2.88 2.751 2.751 0 0 1-2.785-2.88zm13.52 3.888V624.8a3.042 3.042 0 0 1-.976.16 1.152 1.152 0 0 1-1.328-1.36v-4.193h2.3v-1.264h-2.3v-2.224h-1.377v2.224h-1.7v1.264h1.7v4.369a2.252 2.252 0 0 0 2.448 2.448 3.829 3.829 0 0 0 1.233-.19zm2.159.112h1.376v-3.968c0-1.873 1.024-2.929 2.32-2.929a1.921 1.921 0 0 1 1.888 2.177v4.72H76.9v-4.928a2.949 2.949 0 0 0-3.025-3.233 2.829 2.829 0 0 0-2.544 1.392v-5.232h-1.377v12zm11.488-11.121a.966.966 0 0 0-.96-.976.994.994 0 0 0-.992.976.983.983 0 0 0 .992.976.956.956 0 0 0 .96-.976zm-1.664 11.121h1.376v-8h-1.376v8zm4.384 0h1.376v-3.968c0-1.873 1.024-2.929 2.32-2.929a1.921 1.921 0 0 1 1.888 2.177v4.72h1.36v-4.928a2.949 2.949 0 0 0-3.025-3.233 2.829 2.829 0 0 0-2.544 1.392v-1.232h-1.375v8zm17.281-.464v-7.537h-1.376v1.232a3.406 3.406 0 0 0-2.785-1.392 4.076 4.076 0 0 0 0 8.145 3.418 3.418 0 0 0 2.785-1.408v.912a2.558 2.558 0 0 1-2.673 2.769 3.421 3.421 0 0 1-2.8-1.345l-.96.961a4.75 4.75 0 0 0 3.777 1.632 3.7 3.7 0 0 0 4.032-3.969zm-6.673-3.632a2.706 2.706 0 1 1 2.7 2.8 2.667 2.667 0 0 1-2.7-2.8zm15.632-7.025a.966.966 0 0 0-.96-.976.994.994 0 0 0-.993.976.984.984 0 0 0 .993.976.956.956 0 0 0 .958-.976zm-1.665 11.121h1.377v-8h-1.377v8zm9.569-2.224c0-1.2-.752-1.968-2.112-2.416l-.864-.288c-.944-.3-1.233-.608-1.233-1.121a1.133 1.133 0 0 1 1.345-.928 2.161 2.161 0 0 1 1.7.832l.9-.864a3.1 3.1 0 0 0-2.56-1.152c-1.585 0-2.7.88-2.7 2.176a2.414 2.414 0 0 0 1.985 2.321l.784.256c1.04.336 1.424.72 1.424 1.28a1.218 1.218 0 0 1-1.408 1.088 2.148 2.148 0 0 1-2.049-1.264l-1.12.608a3.178 3.178 0 0 0 3.137 1.856c1.603 0 2.771-.816 2.771-2.384zm6.047-1.776a4 4 0 0 0 3.92 4.16 3.509 3.509 0 0 0 2.817-1.392v1.232h1.376v-12h-1.376v5.232a3.509 3.509 0 0 0-2.817-1.392 4 4 0 0 0-3.92 4.16zm6.849 0a2.733 2.733 0 1 1-2.721-2.9 2.732 2.732 0 0 1 2.719 2.9zm3.631 0a4.218 4.218 0 0 0 7.745 2.256l-1.088-.752a2.833 2.833 0 0 1-5.265-1.232h6.561a3.9 3.9 0 0 0 .014-.418 3.728 3.728 0 0 0-3.809-4.017 4.054 4.054 0 0 0-4.158 4.163zm4.112-2.945a2.4 2.4 0 0 1 2.449 2.1h-5.073a2.615 2.615 0 0 1 2.624-2.101zm11.392 4.721c0-1.2-.752-1.968-2.112-2.416l-.864-.288c-.944-.3-1.232-.608-1.232-1.121a1.132 1.132 0 0 1 1.344-.928 2.161 2.161 0 0 1 1.7.832l.9-.864a3.1 3.1 0 0 0-2.56-1.152c-1.584 0-2.7.88-2.7 2.176a2.415 2.415 0 0 0 1.984 2.321l.784.256c1.04.336 1.424.72 1.424 1.28a1.218 1.218 0 0 1-1.408 1.088 2.147 2.147 0 0 1-2.048-1.264l-1.12.608a3.178 3.178 0 0 0 3.136 1.856c1.604 0 2.772-.816 2.772-2.384zm4.032-8.9a.966.966 0 0 0-.96-.976.994.994 0 0 0-.992.976.983.983 0 0 0 .992.976.956.956 0 0 0 .96-.973zm-1.664 11.121h1.376v-8h-1.376v8zm11.841-.464v-7.537h-1.377v1.232a3.4 3.4 0 0 0-2.784-1.392 4.076 4.076 0 0 0 0 8.145 3.416 3.416 0 0 0 2.784-1.408v.912a2.558 2.558 0 0 1-2.669 2.769 3.42 3.42 0 0 1-2.8-1.345l-.961.961a4.752 4.752 0 0 0 3.777 1.632 3.7 3.7 0 0 0 4.03-3.966zm-6.673-3.632a2.706 2.706 0 1 1 2.7 2.8 2.667 2.667 0 0 1-2.7-2.797zm9.663 4.1h1.376v-3.968c0-1.873 1.025-2.929 2.321-2.929a1.921 1.921 0 0 1 1.888 2.177v4.72h1.36v-4.928a2.949 2.949 0 0 0-3.024-3.233 2.832 2.832 0 0 0-2.545 1.392v-1.232h-1.376v8zm9.2-4a4.218 4.218 0 0 0 7.745 2.256l-1.088-.752a2.833 2.833 0 0 1-5.265-1.232h6.561a3.9 3.9 0 0 0 .016-.416 3.728 3.728 0 0 0-3.808-4.017 4.054 4.054 0 0 0-4.161 4.16zm4.113-2.945a2.394 2.394 0 0 1 2.448 2.1h-5.073a2.616 2.616 0 0 1 2.625-2.102zm5.583 2.945a4 4 0 0 0 3.92 4.16 3.509 3.509 0 0 0 2.817-1.392v1.232h1.376v-12h-1.376v5.232a3.509 3.509 0 0 0-2.817-1.392 4 4 0 0 0-3.92 4.159zm6.849 0a2.733 2.733 0 1 1-2.72-2.9 2.731 2.731 0 0 1 2.72 2.899zm9.023 4h1.376v-6.737H206v-1.264h-2.32v-1.472a1.152 1.152 0 0 1 1.328-1.36 3.233 3.233 0 0 1 .993.16v-1.216a3.646 3.646 0 0 0-1.249-.208 2.285 2.285 0 0 0-2.448 2.48v1.616h-1.7v1.264h1.7v6.737zm13.121-4a4.185 4.185 0 1 0-4.177 4.16 4.106 4.106 0 0 0 4.177-4.161zm-6.961 0a2.778 2.778 0 1 1 2.784 2.88 2.751 2.751 0 0 1-2.784-2.881zm9.328 4h1.376v-3.968c0-1.873 1.1-2.753 2.112-2.753a2.011 2.011 0 0 1 .752.128v-1.424a2.851 2.851 0 0 0-.624-.064 2.38 2.38 0 0 0-2.24 1.632v-1.552h-1.376v8zm9.536-4a4 4 0 0 0 3.92 4.16 3.512 3.512 0 0 0 2.817-1.392v1.232h1.376v-8h-1.376v1.232a3.512 3.512 0 0 0-2.817-1.392 4 4 0 0 0-3.92 4.159zm6.849 0a2.733 2.733 0 1 1-2.721-2.9 2.732 2.732 0 0 1 2.721 2.899zm8.558 4h1.376v-12h-1.376v12zm6.048-11.121a.966.966 0 0 0-.96-.976.994.994 0 0 0-.992.976.983.983 0 0 0 .992.976.956.956 0 0 0 .96-.977zm-1.664 11.121h1.381v-8h-1.376v8zm5.056 0h1.376v-6.737h2.321v-1.264h-2.321v-1.472a1.152 1.152 0 0 1 1.328-1.36 3.223 3.223 0 0 1 .993.16v-1.216a3.638 3.638 0 0 0-1.249-.208 2.285 2.285 0 0 0-2.448 2.48v1.616h-1.7v1.264h1.7v6.737zm4.768-4a4.218 4.218 0 0 0 7.745 2.256l-1.088-.752a2.833 2.833 0 0 1-5.265-1.232h6.565a3.9 3.9 0 0 0 .016-.416 3.728 3.728 0 0 0-3.808-4.017 4.054 4.054 0 0 0-4.165 4.16zm4.113-2.945a2.394 2.394 0 0 1 2.448 2.1h-5.073a2.616 2.616 0 0 1 2.625-2.102zm12.175-4.176a.966.966 0 0 0-.96-.976.994.994 0 0 0-.992.976.983.983 0 0 0 .992.976.956.956 0 0 0 .96-.977zm-1.664 11.121h1.376v-8h-1.376v8zm4.384 0h1.376v-3.968c0-1.873 1.024-2.929 2.32-2.929a1.921 1.921 0 0 1 1.888 2.177v4.72h1.365v-4.928a2.949 2.949 0 0 0-3.025-3.233 2.829 2.829 0 0 0-2.544 1.392v-1.232h-1.376v8zm14.127 0h1.377v-3.968c0-1.808.912-2.929 2.208-2.929 1.04 0 1.568.9 1.568 2.193v4.7h1.376v-3.968c0-1.808.9-2.929 2.193-2.929 1.04 0 1.584.9 1.584 2.193v4.7h1.376v-4.912c0-1.953-1.056-3.249-2.8-3.249a2.769 2.769 0 0 0-2.625 1.712 2.515 2.515 0 0 0-2.464-1.712 2.689 2.689 0 0 0-2.416 1.392v-1.232h-1.377v8zm22.289-4a4.185 4.185 0 1 0-4.176 4.16 4.106 4.106 0 0 0 4.176-4.161zm-6.961 0a2.778 2.778 0 1 1 2.785 2.88 2.751 2.751 0 0 1-2.785-2.881zm13.521 3.888V624.8a3.041 3.041 0 0 1-.976.16 1.153 1.153 0 0 1-1.329-1.36v-4.193h2.305v-1.264h-2.305v-2.224h-1.376v2.224h-1.7v1.264h1.7v4.369a2.252 2.252 0 0 0 2.449 2.448 3.828 3.828 0 0 0 1.232-.19zm3.823-11.009a.966.966 0 0 0-.96-.976.994.994 0 0 0-.992.976.983.983 0 0 0 .992.976.956.956 0 0 0 .96-.977zm-1.664 11.121h1.376v-8h-1.376v8zm12.113-4a4.185 4.185 0 1 0-4.176 4.16 4.106 4.106 0 0 0 4.177-4.161zm-6.961 0a2.778 2.778 0 1 1 2.785 2.88 2.751 2.751 0 0 1-2.785-2.881zm9.328 4h1.376v-3.968c0-1.873 1.024-2.929 2.32-2.929a1.921 1.921 0 0 1 1.889 2.177v4.72h1.36v-4.928a2.949 2.949 0 0 0-3.025-3.233 2.829 2.829 0 0 0-2.544 1.392v-1.232h-1.376v8zm11.728-1.072a1.184 1.184 0 1 0-1.184 1.2 1.205 1.205 0 0 0 1.184-1.201zm15.521 1.072h1.328l3.1-11.361H365.7l-2.384 8.865-3.281-9.057-3.264 9.057-2.384-8.865h-1.553l3.105 11.361h1.328l2.784-7.713zm5.39-4a4.218 4.218 0 0 0 7.745 2.256l-1.088-.752a2.832 2.832 0 0 1-5.264-1.232h6.561a3.9 3.9 0 0 0 .016-.416 3.729 3.729 0 0 0-3.809-4.017 4.055 4.055 0 0 0-4.161 4.16zm4.113-2.945a2.394 2.394 0 0 1 2.448 2.1h-5.072a2.615 2.615 0 0 1 2.624-2.102zm14.576 6.833V624.8a3.041 3.041 0 0 1-.976.16 1.153 1.153 0 0 1-1.329-1.36v-4.193h2.305v-1.264h-2.305v-2.224h-1.376v2.224h-1.7v1.264h1.7v4.369a2.252 2.252 0 0 0 2.449 2.448 3.828 3.828 0 0 0 1.232-.19zm2.159.112h1.376v-3.968c0-1.873 1.105-2.753 2.113-2.753a2.011 2.011 0 0 1 .752.128v-1.424a2.851 2.851 0 0 0-.624-.064 2.381 2.381 0 0 0-2.241 1.632v-1.552h-1.376v8zm5.36-4a4 4 0 0 0 3.921 4.16 3.508 3.508 0 0 0 2.816-1.392v1.232h1.376v-8h-1.376v1.232a3.508 3.508 0 0 0-2.816-1.392 4 4 0 0 0-3.921 4.159zm6.849 0a2.733 2.733 0 1 1-2.72-2.9 2.731 2.731 0 0 1 2.72 2.899zm6.751 4h1.153l3.7-8h-1.536l-2.737 6.049-2.736-6.049h-1.536zm5.84-4a4.218 4.218 0 0 0 7.747 2.253l-1.088-.752a2.833 2.833 0 0 1-5.265-1.232h6.561a3.9 3.9 0 0 0 .016-.416 3.728 3.728 0 0 0-3.808-4.017 4.054 4.054 0 0 0-4.163 4.163zm4.113-2.945a2.394 2.394 0 0 1 2.448 2.1h-5.073a2.616 2.616 0 0 1 2.625-2.102zm6.207 6.945h1.376v-12h-1.376v12zm8.688 0h1.376v-3.968c0-1.873 1.024-2.929 2.32-2.929a1.921 1.921 0 0 1 1.888 2.177v4.72h1.361v-4.928a2.949 2.949 0 0 0-3.025-3.233 2.829 2.829 0 0 0-2.544 1.392v-1.232h-1.376v8zm9.2-4a4.218 4.218 0 0 0 7.745 2.256l-1.088-.752a2.832 2.832 0 0 1-5.264-1.232h6.561a3.9 3.9 0 0 0 .015-.419 3.729 3.729 0 0 0-3.809-4.017 4.055 4.055 0 0 0-4.161 4.163zm4.113-2.945a2.394 2.394 0 0 1 2.448 2.1h-5.072a2.615 2.615 0 0 1 2.623-2.102zm5.583 2.945a4 4 0 0 0 3.921 4.16 3.508 3.508 0 0 0 2.816-1.392v1.232h1.376v-8h-1.376v1.232a3.508 3.508 0 0 0-2.816-1.392 4 4 0 0 0-3.922 4.159zm6.849 0a2.733 2.733 0 1 1-2.72-2.9 2.731 2.731 0 0 1 2.719 2.899zm4.255 4h1.376v-3.968c0-1.873 1.105-2.753 2.113-2.753a2.011 2.011 0 0 1 .752.128v-1.424a2.851 2.851 0 0 0-.624-.064 2.381 2.381 0 0 0-2.241 1.632v-1.552h-1.377v8zm9.536-4a4 4 0 0 0 3.921 4.16 3.508 3.508 0 0 0 2.816-1.392v1.232h1.376v-8h-1.376v1.232a3.508 3.508 0 0 0-2.816-1.392 4 4 0 0 0-3.918 4.159zm6.849 0a2.733 2.733 0 1 1-2.72-2.9 2.731 2.731 0 0 1 2.719 2.899zm4.255 4h1.376v-3.968c0-1.873 1.024-2.929 2.32-2.929a1.921 1.921 0 0 1 1.889 2.177v4.72h1.36v-4.928a2.949 2.949 0 0 0-3.025-3.233 2.829 2.829 0 0 0-2.544 1.392v-1.232H483.5v8zm9.2-4a4 4 0 0 0 3.92 4.16 3.512 3.512 0 0 0 2.817-1.392v1.232h1.376v-12h-1.376v5.232a3.512 3.512 0 0 0-2.817-1.392 4 4 0 0 0-3.921 4.159zm6.849 0a2.733 2.733 0 1 1-2.721-2.9 2.732 2.732 0 0 1 2.72 2.899zm9.023 4h1.376v-6.737h2.32v-1.264h-2.32v-1.472a1.152 1.152 0 0 1 1.328-1.36 3.222 3.222 0 0 1 .992.16v-1.216a3.636 3.636 0 0 0-1.248-.208 2.285 2.285 0 0 0-2.448 2.48v1.616h-1.7v1.264h1.7v6.737zm4.768-4a4 4 0 0 0 3.92 4.16 3.512 3.512 0 0 0 2.817-1.392v1.232h1.376v-8h-1.376v1.232a3.512 3.512 0 0 0-2.817-1.392 4 4 0 0 0-3.921 4.159zm6.848 0a2.733 2.733 0 1 1-2.72-2.9 2.731 2.731 0 0 1 2.719 2.899zm4.255 4h1.377v-3.968c0-1.873 1.1-2.753 2.112-2.753a2.011 2.011 0 0 1 .752.128v-1.424a2.851 2.851 0 0 0-.624-.064 2.38 2.38 0 0 0-2.24 1.632v-1.552h-1.377v8zm15.345-2.224c0-1.2-.752-1.968-2.112-2.416l-.864-.288c-.944-.3-1.232-.608-1.232-1.121a1.132 1.132 0 0 1 1.344-.928 2.161 2.161 0 0 1 1.7.832l.9-.864a3.1 3.1 0 0 0-2.56-1.152c-1.585 0-2.705.88-2.705 2.176a2.414 2.414 0 0 0 1.985 2.321l.784.256c1.04.336 1.424.72 1.424 1.28a1.218 1.218 0 0 1-1.408 1.088 2.148 2.148 0 0 1-2.049-1.264l-1.12.608a3.179 3.179 0 0 0 3.124 1.855c1.62 0 2.788-.816 2.788-2.384zm1.743-1.776a4.218 4.218 0 0 0 7.745 2.256l-1.088-.752a2.833 2.833 0 0 1-5.265-1.232h6.561a3.9 3.9 0 0 0 .015-.419 3.728 3.728 0 0 0-3.808-4.017 4.054 4.054 0 0 0-4.161 4.163zm4.113-2.945a2.394 2.394 0 0 1 2.448 2.1h-5.073a2.616 2.616 0 0 1 2.624-2.102zm5.583 2.945a4 4 0 0 0 3.921 4.16 3.508 3.508 0 0 0 2.816-1.392v1.232h1.376v-8h-1.376v1.232a3.508 3.508 0 0 0-2.816-1.392 4 4 0 0 0-3.922 4.159zm6.849 0a2.733 2.733 0 1 1-2.72-2.9 2.731 2.731 0 0 1 2.719 2.899zm4.255 4h1.376v-3.968c0-1.873 1.1-2.753 2.113-2.753a2.011 2.011 0 0 1 .752.128v-1.424a2.851 2.851 0 0 0-.624-.064 2.38 2.38 0 0 0-2.241 1.632v-1.552h-1.376v8zm13.233-1.984l-1.2-.672a2.712 2.712 0 0 1-2.5 1.536 2.882 2.882 0 0 1 0-5.761 2.711 2.711 0 0 1 2.5 1.537l1.2-.673a4.143 4.143 0 0 0-3.7-2.144 4.161 4.161 0 1 0 0 8.321 4.143 4.143 0 0 0 3.699-2.145zm2.175 1.984h1.376v-3.968c0-1.873 1.024-2.929 2.32-2.929a1.921 1.921 0 0 1 1.889 2.177v4.72h1.36v-4.928a2.949 2.949 0 0 0-3.024-3.233 2.829 2.829 0 0 0-2.545 1.392v-5.232h-1.376v12zm11.488-11.121a.966.966 0 0 0-.96-.976.994.994 0 0 0-.992.976.983.983 0 0 0 .992.976.956.956 0 0 0 .959-.977zm-1.664 11.121h1.376v-8h-1.376v8zm4.384 0h1.376v-3.968c0-1.873 1.024-2.929 2.32-2.929a1.921 1.921 0 0 1 1.888 2.177v4.72h1.361v-4.928a2.949 2.949 0 0 0-3.025-3.233 2.829 2.829 0 0 0-2.544 1.392v-1.232h-1.376v8zm17.281-.464v-7.537h-1.377v1.232a3.4 3.4 0 0 0-2.784-1.392 4.076 4.076 0 0 0 0 8.145 3.416 3.416 0 0 0 2.784-1.408v.912a2.558 2.558 0 0 1-2.672 2.769 3.42 3.42 0 0 1-2.8-1.345l-.961.961a4.753 4.753 0 0 0 3.777 1.632 3.7 3.7 0 0 0 4.032-3.97zm-6.673-3.632a2.706 2.706 0 1 1 2.7 2.8 2.667 2.667 0 0 1-2.701-2.801zm14.432 4.1h1.376v-6.737h2.32v-1.264h-2.32v-1.472a1.152 1.152 0 0 1 1.328-1.36 3.222 3.222 0 0 1 .992.16v-1.216a3.636 3.636 0 0 0-1.248-.208 2.285 2.285 0 0 0-2.448 2.48v1.616h-1.7v1.264h1.7v6.737zm13.121-4a4.185 4.185 0 1 0-4.177 4.16 4.107 4.107 0 0 0 4.176-4.165zm-6.961 0a2.778 2.778 0 1 1 2.784 2.88 2.751 2.751 0 0 1-2.785-2.885zm9.327 4h1.376v-3.968c0-1.873 1.105-2.753 2.113-2.753a2.011 2.011 0 0 1 .752.128v-1.424a2.851 2.851 0 0 0-.624-.064 2.382 2.382 0 0 0-2.241 1.632v-1.552h-1.376v8zm14.225-.112V624.8a3.041 3.041 0 0 1-.976.16 1.153 1.153 0 0 1-1.329-1.36v-4.193h2.3v-1.264h-2.3v-2.224h-1.376v2.224h-1.7v1.264h1.7v4.369a2.252 2.252 0 0 0 2.449 2.448 3.828 3.828 0 0 0 1.232-.19zm2.159.112h1.376v-3.968c0-1.873 1.025-2.929 2.321-2.929a1.921 1.921 0 0 1 1.888 2.177v4.72h1.36v-4.928a2.949 2.949 0 0 0-3.024-3.233 2.831 2.831 0 0 0-2.545 1.392v-5.232h-1.376v12zm9.2-4a4.218 4.218 0 0 0 7.741 2.249l-1.088-.752a2.833 2.833 0 0 1-5.265-1.232h6.561a3.9 3.9 0 0 0 .016-.416 3.728 3.728 0 0 0-3.809-4.017 4.054 4.054 0 0 0-4.157 4.163zm4.113-2.945a2.394 2.394 0 0 1 2.448 2.1h-5.073a2.616 2.616 0 0 1 2.624-2.106zm10.975 6.945h1.376v-6.737h2.321v-1.264h-2.321v-1.472a1.152 1.152 0 0 1 1.328-1.36 3.228 3.228 0 0 1 .993.16v-1.216a3.642 3.642 0 0 0-1.249-.208 2.285 2.285 0 0 0-2.448 2.48v1.616h-1.7v1.264h1.7v6.737zm6.865-11.121a.966.966 0 0 0-.96-.976.994.994 0 0 0-.992.976.983.983 0 0 0 .992.976.956.956 0 0 0 .959-.981zm-1.664 11.121h1.376v-8h-1.376v8zm4.367 0h1.376v-3.968c0-1.873 1.024-2.929 2.32-2.929a1.921 1.921 0 0 1 1.889 2.177v4.72h1.36v-4.928a2.949 2.949 0 0 0-3.025-3.233 2.829 2.829 0 0 0-2.544 1.392v-1.232h-1.376v8zm9.2-4a4.218 4.218 0 0 0 7.745 2.256l-1.089-.752a2.832 2.832 0 0 1-5.264-1.232h6.561a3.9 3.9 0 0 0 .016-.416 3.729 3.729 0 0 0-3.809-4.017 4.054 4.054 0 0 0-4.161 4.156zm4.112-2.945a2.394 2.394 0 0 1 2.448 2.1H693.4a2.615 2.615 0 0 1 2.626-2.106zm11.392 4.721c0-1.2-.752-1.968-2.112-2.416l-.864-.288c-.944-.3-1.232-.608-1.232-1.121a1.132 1.132 0 0 1 1.344-.928 2.161 2.161 0 0 1 1.7.832l.9-.864a3.1 3.1 0 0 0-2.56-1.152c-1.584 0-2.7.88-2.7 2.176a2.415 2.415 0 0 0 1.984 2.321l.784.256c1.04.336 1.424.72 1.424 1.28a1.218 1.218 0 0 1-1.408 1.088 2.147 2.147 0 0 1-2.048-1.264l-1.121.608a3.179 3.179 0 0 0 3.137 1.856c1.603-.005 2.771-.821 2.771-2.389zm6.608 2.112V624.8a3.041 3.041 0 0 1-.976.16 1.152 1.152 0 0 1-1.328-1.36v-4.193h2.3v-1.264h-2.3v-2.224h-1.376v2.224h-1.7v1.264h1.7v4.369a2.252 2.252 0 0 0 2.448 2.448 3.828 3.828 0 0 0 1.231-.19zm6.463.112h1.376v-3.968c0-1.808.913-2.929 2.209-2.929 1.04 0 1.568.9 1.568 2.193v4.7h1.376v-3.968c0-1.808.9-2.929 2.193-2.929 1.04 0 1.584.9 1.584 2.193v4.7h1.376v-4.912c0-1.953-1.056-3.249-2.8-3.249a2.769 2.769 0 0 0-2.625 1.712 2.515 2.515 0 0 0-2.464-1.712 2.692 2.692 0 0 0-2.417 1.392v-1.232h-1.376v8zm13.936-4a4 4 0 0 0 3.921 4.16 3.508 3.508 0 0 0 2.816-1.392v1.232h1.376v-8h-1.376v1.232a3.508 3.508 0 0 0-2.816-1.392 4 4 0 0 0-3.922 4.155zm6.849 0a2.733 2.733 0 1 1-2.72-2.9 2.731 2.731 0 0 1 2.719 2.895zm8.592 3.888V624.8a3.041 3.041 0 0 1-.976.16 1.152 1.152 0 0 1-1.329-1.36v-4.193h2.3v-1.264h-2.3v-2.224h-1.376v2.224h-1.7v1.264h1.7v4.369a2.252 2.252 0 0 0 2.448 2.448 3.83 3.83 0 0 0 1.232-.19zm1.423-3.888a4.218 4.218 0 0 0 7.745 2.256l-1.088-.752a2.833 2.833 0 0 1-5.265-1.232h6.561a3.9 3.9 0 0 0 .016-.416 3.728 3.728 0 0 0-3.808-4.017 4.054 4.054 0 0 0-4.162 4.156zm4.11-2.951a2.394 2.394 0 0 1 2.448 2.1h-5.073a2.616 2.616 0 0 1 2.625-2.1zm6.207 6.945h1.376v-3.968c0-1.873 1.1-2.753 2.113-2.753a2.011 2.011 0 0 1 .752.128v-1.424a2.851 2.851 0 0 0-.624-.064 2.38 2.38 0 0 0-2.241 1.632v-1.552h-1.376v8zm7.92-11.121a.966.966 0 0 0-.96-.976.994.994 0 0 0-.992.976.983.983 0 0 0 .992.976.956.956 0 0 0 .962-.975zm-1.664 11.121h1.376v-8h-1.376v8zm3.76-4a4 4 0 0 0 3.92 4.16 3.509 3.509 0 0 0 2.817-1.392v1.232h1.376v-8h-1.376v1.232a3.509 3.509 0 0 0-2.817-1.392 4 4 0 0 0-3.918 4.161zm6.849 0a2.733 2.733 0 1 1-2.721-2.9 2.732 2.732 0 0 1 2.723 2.901zm4.255 4h1.376v-12h-1.376v12zm9.568-2.224c0-1.2-.752-1.968-2.112-2.416l-.864-.288c-.944-.3-1.232-.608-1.232-1.121a1.132 1.132 0 0 1 1.344-.928 2.161 2.161 0 0 1 1.7.832l.9-.864a3.1 3.1 0 0 0-2.56-1.152c-1.584 0-2.7.88-2.7 2.176a2.415 2.415 0 0 0 1.984 2.321l.784.256c1.04.336 1.424.72 1.424 1.28a1.218 1.218 0 0 1-1.408 1.088 2.147 2.147 0 0 1-2.048-1.264l-1.12.608a3.178 3.178 0 0 0 3.136 1.856c1.606.001 2.777-.815 2.777-2.383zm6.047-1.776a4 4 0 0 0 3.921 4.16 3.508 3.508 0 0 0 2.816-1.392v1.232h1.376v-8h-1.376v1.232a3.508 3.508 0 0 0-2.816-1.392 4 4 0 0 0-3.919 4.161zm6.849 0a2.733 2.733 0 1 1-2.72-2.9 2.731 2.731 0 0 1 2.722 2.901zm4.255 4h1.376v-3.968c0-1.873 1.025-2.929 2.321-2.929a1.921 1.921 0 0 1 1.888 2.177v4.72h1.36v-4.928a2.949 2.949 0 0 0-3.024-3.233 2.832 2.832 0 0 0-2.545 1.392v-1.232h-1.376v8zm9.2-4a4 4 0 0 0 3.921 4.16 3.508 3.508 0 0 0 2.816-1.392v1.232h1.376v-12h-1.376v5.232a3.508 3.508 0 0 0-2.816-1.392 4 4 0 0 0-3.919 4.161zm6.849 0a2.733 2.733 0 1 1-2.72-2.9 2.731 2.731 0 0 1 2.725 2.901zm9.023 4h1.382v-6.737h2.321v-1.264H835.9v-1.472a1.152 1.152 0 0 1 1.328-1.36 3.228 3.228 0 0 1 .993.16v-1.216a3.642 3.642 0 0 0-1.249-.208 2.285 2.285 0 0 0-2.448 2.48v1.616h-1.7v1.264h1.7v6.737zm4.768-4a4 4 0 0 0 3.921 4.16 3.508 3.508 0 0 0 2.816-1.392v1.232h1.377v-8h-1.376v1.232a3.508 3.508 0 0 0-2.816-1.392 4 4 0 0 0-3.92 4.161zm6.849 0a2.733 2.733 0 1 1-2.72-2.9 2.731 2.731 0 0 1 2.722 2.901zm5.631 2.768a3.509 3.509 0 0 0 2.817 1.392 4.168 4.168 0 0 0 0-8.321 3.509 3.509 0 0 0-2.817 1.392v-5.232h-1.376v12h1.376v-1.232zm5.329-2.768a2.726 2.726 0 1 1-2.72-2.9 2.731 2.731 0 0 1 2.725 2.901zm3.775 4h1.376v-3.968c0-1.873 1.1-2.753 2.112-2.753a2.011 2.011 0 0 1 .752.128v-1.424a2.851 2.851 0 0 0-.624-.064 2.38 2.38 0 0 0-2.24 1.632v-1.552h-1.376v8zm7.92-11.121a.966.966 0 0 0-.96-.976.994.994 0 0 0-.992.976.983.983 0 0 0 .992.976.956.956 0 0 0 .962-.975zm-1.664 11.121h1.374v-8h-1.376v8zm11.649-1.984l-1.2-.672a2.714 2.714 0 0 1-2.5 1.536 2.882 2.882 0 0 1 0-5.761 2.714 2.714 0 0 1 2.5 1.537l1.2-.673a4.145 4.145 0 0 0-3.7-2.144 4.161 4.161 0 1 0 0 8.321 4.145 4.145 0 0 0 3.702-2.143zm8.142-9.137a.966.966 0 0 0-.96-.976.994.994 0 0 0-.992.976.983.983 0 0 0 .992.976.956.956 0 0 0 .962-.975zm-1.664 11.121h1.376v-8h-1.376v8zm4.384 0h1.376v-3.968c0-1.873 1.024-2.929 2.321-2.929a1.921 1.921 0 0 1 1.888 2.177v4.72h1.36v-4.928a2.949 2.949 0 0 0-3.024-3.233 2.831 2.831 0 0 0-2.545 1.392v-1.232h-1.376v8zm9.824 0h1.376v-3.968c0-1.873 1.024-2.929 2.321-2.929a1.921 1.921 0 0 1 1.888 2.177v4.72h1.36v-4.928a2.949 2.949 0 0 0-3.024-3.233 2.829 2.829 0 0 0-2.545 1.392v-1.232h-1.376v8zm17.553-4a4.185 4.185 0 1 0-4.177 4.16 4.106 4.106 0 0 0 4.179-4.159zm-6.961 0a2.778 2.778 0 1 1 2.784 2.88 2.751 2.751 0 0 1-2.782-2.879zm11.648 4h1.152l3.7-8h-1.536l-2.737 6.049-2.736-6.049h-1.536zm5.856-4a4 4 0 0 0 3.92 4.16 3.51 3.51 0 0 0 2.817-1.392v1.232h1.376v-8h-1.37v1.232a3.51 3.51 0 0 0-2.817-1.392 4 4 0 0 0-3.924 4.161zm6.849 0a2.733 2.733 0 1 1-2.721-2.9 2.732 2.732 0 0 1 2.723 2.901zm8.594 3.889V624.8a3.041 3.041 0 0 1-.976.16 1.152 1.152 0 0 1-1.328-1.36v-4.193H943v-1.264h-2.3v-2.224h-1.376v2.224h-1.7v1.264h1.7v4.369a2.252 2.252 0 0 0 2.448 2.448 3.828 3.828 0 0 0 1.228-.19zm3.824-11.009a.966.966 0 0 0-.96-.976 1 1 0 0 0-.993.976.984.984 0 0 0 .993.976.956.956 0 0 0 .959-.976zm-1.664 11.121h1.376v-8h-1.376v8zm12.112-4a4.185 4.185 0 1 0-4.176 4.16 4.106 4.106 0 0 0 4.175-4.16zm-6.96 0a2.778 2.778 0 1 1 2.784 2.88 2.751 2.751 0 0 1-2.785-2.88zm9.327 4h1.376v-3.968c0-1.873 1.024-2.929 2.321-2.929a1.921 1.921 0 0 1 1.888 2.177v4.72h1.36v-4.928a2.949 2.949 0 0 0-3.024-3.233 2.831 2.831 0 0 0-2.545 1.392v-1.232h-1.376v8zm15.009-2.224c0-1.2-.752-1.968-2.113-2.416l-.864-.288c-.944-.3-1.232-.608-1.232-1.121a1.132 1.132 0 0 1 1.344-.928 2.163 2.163 0 0 1 1.7.832l.9-.864a3.1 3.1 0 0 0-2.561-1.152c-1.584 0-2.7.88-2.7 2.176a2.415 2.415 0 0 0 1.984 2.321l.784.256c1.041.336 1.425.72 1.425 1.28a1.219 1.219 0 0 1-1.409 1.088 2.147 2.147 0 0 1-2.048-1.264l-1.12.608a3.178 3.178 0 0 0 3.136 1.856c1.605 0 2.773-.816 2.773-2.384zm10.735 2.112V624.8a3.041 3.041 0 0 1-.976.16 1.152 1.152 0 0 1-1.328-1.36v-4.193h2.3v-1.264h-2.3v-2.224H981.7v2.224H980v1.264h1.7v4.369a2.252 2.252 0 0 0 2.448 2.448 3.828 3.828 0 0 0 1.234-.19zm9.777-3.888a4.185 4.185 0 1 0-4.177 4.16 4.106 4.106 0 0 0 4.176-4.16zm-6.961 0a2.778 2.778 0 1 1 2.784 2.88 2.751 2.751 0 0 1-2.783-2.88zm15.292-7.121a.962.962 0 0 0-.96-.976 1 1 0 0 0-.99.976.984.984 0 0 0 .99.976.953.953 0 0 0 .959-.976zm-1.66 11.121h1.38v-8h-1.38v8zm4.38 0h1.38v-3.968c0-1.873 1.02-2.929 2.32-2.929a1.922 1.922 0 0 1 1.89 2.177v4.72h1.36v-4.928a2.949 2.949 0 0 0-3.03-3.233 2.818 2.818 0 0 0-2.54 1.392v-1.232h-1.38v8zm10.4 0h1.38v-6.737h2.32v-1.264h-2.32v-1.472a1.153 1.153 0 0 1 1.33-1.36 3.229 3.229 0 0 1 .99.16v-1.216a3.64 3.64 0 0 0-1.25-.208 2.287 2.287 0 0 0-2.45 2.48v1.616h-1.69v1.264h1.69v6.737zm5.49-3.088a2.924 2.924 0 0 0 2.95 3.248 2.757 2.757 0 0 0 2.46-1.392v1.232h1.38v-8h-1.38v3.969c0 1.84-.98 2.928-2.22 2.928-1.11 0-1.81-.848-1.81-2.192v-4.705h-1.38v4.913zm14.96.864c0-1.2-.75-1.968-2.11-2.416l-.86-.288c-.95-.3-1.24-.608-1.24-1.121a1.14 1.14 0 0 1 1.35-.928 2.138 2.138 0 0 1 1.69.832l.9-.864a3.1 3.1 0 0 0-2.56-1.152c-1.58 0-2.7.88-2.7 2.176a2.406 2.406 0 0 0 1.98 2.321l.78.256c1.04.336 1.43.72 1.43 1.28a1.222 1.222 0 0 1-1.41 1.088 2.156 2.156 0 0 1-2.05-1.264l-1.12.608a3.188 3.188 0 0 0 3.14 1.856c1.609 0 2.779-.816 2.779-2.384zm1.74-1.776a4.222 4.222 0 0 0 7.75 2.256l-1.09-.752a2.83 2.83 0 0 1-5.26-1.232h6.56c.01-.176.01-.272.01-.416a3.722 3.722 0 0 0-3.8-4.017 4.058 4.058 0 0 0-4.171 4.161zm4.12-2.945a2.4 2.4 0 0 1 2.45 2.1h-5.08a2.625 2.625 0 0 1 2.629-2.101zm15.69 4.721c0-1.2-.75-1.968-2.11-2.416l-.86-.288c-.95-.3-1.24-.608-1.24-1.121a1.14 1.14 0 0 1 1.35-.928 2.172 2.172 0 0 1 1.7.832l.89-.864a3.1 3.1 0 0 0-2.56-1.152c-1.58 0-2.7.88-2.7 2.176a2.406 2.406 0 0 0 1.98 2.321l.79.256c1.04.336 1.42.72 1.42 1.28a1.217 1.217 0 0 1-1.41 1.088 2.156 2.156 0 0 1-2.05-1.264l-1.12.608a3.188 3.188 0 0 0 3.14 1.856c1.619 0 2.779-.816 2.779-2.384zm6.61 2.112V624.8a3 3 0 0 1-.97.16 1.151 1.151 0 0 1-1.33-1.36v-4.193h2.3v-1.264h-2.3v-2.224h-1.38v2.224h-1.7v1.264h1.7v4.369a2.254 2.254 0 0 0 2.45 2.448 3.769 3.769 0 0 0 1.229-.19zm4.29 3.457l5.25-11.346h-1.54l-2.73 6.065-2.76-6.065h-1.52l3.51 7.585-1.75 3.761h1.54zm7.02-3.345h1.38v-12h-1.38v12zm3.76-4a4.222 4.222 0 0 0 7.75 2.256l-1.09-.752a2.836 2.836 0 0 1-5.27-1.232h6.57c.01-.176.01-.272.01-.416a3.724 3.724 0 0 0-3.81-4.017 4.055 4.055 0 0 0-4.161 4.161zm4.11-2.945a2.391 2.391 0 0 1 2.45 2.1h-5.07a2.614 2.614 0 0 1 2.619-2.101zm17.01 6.945h1.22l2.72-8h-1.46l-1.93 5.841-2-5.841h-1.06l-2 5.841-1.94-5.841h-1.44l2.72 8h1.22l1.99-5.76zm7.49-11.121a.969.969 0 0 0-.96-.976 1 1 0 0 0-.99.976.984.984 0 0 0 .99.976.959.959 0 0 0 .959-.976zm-1.66 11.121h1.37v-8h-1.37v8zm8.72-.112V624.8a3.067 3.067 0 0 1-.98.16 1.154 1.154 0 0 1-1.33-1.36v-4.193h2.31v-1.264h-2.31v-2.224h-1.37v2.224h-1.7v1.264h1.7v4.369a2.247 2.247 0 0 0 2.44 2.448 3.881 3.881 0 0 0 1.239-.19zm2.16.112h1.37v-3.968c0-1.873 1.03-2.929 2.32-2.929a1.922 1.922 0 0 1 1.89 2.177v4.72h1.36v-4.928a2.947 2.947 0 0 0-3.02-3.233 2.845 2.845 0 0 0-2.55 1.392v-5.232h-1.37v12zM44.867 647.922c0-1.2-.752-1.968-2.112-2.416l-.864-.288c-.944-.3-1.232-.608-1.232-1.121a1.133 1.133 0 0 1 1.341-.928 2.162 2.162 0 0 1 1.7.832l.9-.864a3.1 3.1 0 0 0-2.56-1.152c-1.584 0-2.7.88-2.7 2.176a2.415 2.415 0 0 0 1.984 2.321l.784.256c1.04.336 1.424.72 1.424 1.28a1.218 1.218 0 0 1-1.408 1.088 2.147 2.147 0 0 1-2.048-1.264l-1.12.608a3.178 3.178 0 0 0 3.136 1.856c1.608 0 2.775-.816 2.775-2.384zm2.255-.864c0 1.984 1.184 3.248 2.944 3.248a2.753 2.753 0 0 0 2.464-1.392v1.232h1.376v-8h-1.375v3.969c0 1.84-.976 2.928-2.224 2.928-1.1 0-1.808-.848-1.808-2.192v-4.705h-1.376v4.913zm11.152 1.856a3.509 3.509 0 0 0 2.816 1.392 4.168 4.168 0 0 0 0-8.321 3.509 3.509 0 0 0-2.816 1.392v-5.232H56.9v12h1.376v-1.232zm5.329-2.768a2.726 2.726 0 1 1-2.72-2.9 2.732 2.732 0 0 1 2.717 2.9zm8.944 1.776c0-1.2-.752-1.968-2.112-2.416l-.864-.288c-.944-.3-1.232-.608-1.232-1.121a1.133 1.133 0 0 1 1.344-.928 2.162 2.162 0 0 1 1.7.832l.9-.864a3.1 3.1 0 0 0-2.56-1.152c-1.584 0-2.7.88-2.7 2.176a2.415 2.415 0 0 0 1.984 2.321l.784.256c1.04.336 1.424.72 1.424 1.28a1.218 1.218 0 0 1-1.408 1.088 2.147 2.147 0 0 1-2.048-1.264l-1.12.608a3.178 3.178 0 0 0 3.136 1.856c1.604 0 2.772-.816 2.772-2.384zm6.608 2.112V648.8a3.042 3.042 0 0 1-.976.16 1.152 1.152 0 0 1-1.328-1.36v-4.193h2.3v-1.264h-2.3v-2.224h-1.377v2.224h-1.7v1.264h1.7v4.369a2.252 2.252 0 0 0 2.448 2.448 3.829 3.829 0 0 0 1.233-.19zm1.423-3.888a4 4 0 0 0 3.921 4.16 3.509 3.509 0 0 0 2.816-1.392v1.232h1.376v-8h-1.376v1.232a3.509 3.509 0 0 0-2.816-1.392 4 4 0 0 0-3.921 4.16zm6.849 0a2.733 2.733 0 1 1-2.72-2.9 2.732 2.732 0 0 1 2.72 2.9zm4.255 4h1.376v-3.968c0-1.873 1.024-2.929 2.32-2.929a1.921 1.921 0 0 1 1.888 2.177v4.72h1.36v-4.928a2.949 2.949 0 0 0-3.025-3.233 2.829 2.829 0 0 0-2.544 1.392v-1.232h-1.375v8zm17.089-1.984l-1.2-.672a2.712 2.712 0 0 1-2.5 1.536 2.882 2.882 0 0 1 0-5.761 2.711 2.711 0 0 1 2.5 1.537l1.2-.673a4.143 4.143 0 0 0-3.7-2.144 4.161 4.161 0 1 0 0 8.321 4.143 4.143 0 0 0 3.7-2.144zm1.551-2.016a4.218 4.218 0 0 0 7.745 2.256l-1.088-.752a2.833 2.833 0 0 1-5.265-1.232h6.561a3.9 3.9 0 0 0 .016-.416 3.728 3.728 0 0 0-3.809-4.017 4.054 4.054 0 0 0-4.16 4.161zm4.112-2.945a2.394 2.394 0 0 1 2.449 2.1h-5.073a2.615 2.615 0 0 1 2.624-2.101zm5.952 3.153h8.081v-1.376h-8.081v1.376zm12.192 2.56a3.508 3.508 0 0 0 2.816 1.392 4.168 4.168 0 0 0 0-8.321 3.508 3.508 0 0 0-2.816 1.392v-5.232H131.2v12h1.376v-1.232zm5.329-2.768a2.726 2.726 0 1 1-2.721-2.9 2.732 2.732 0 0 1 2.721 2.9zm3.15 0a4.219 4.219 0 0 0 7.743 2.254l-1.089-.752a2.832 2.832 0 0 1-5.264-1.232h6.561a3.9 3.9 0 0 0 .016-.416 3.729 3.729 0 0 0-3.809-4.017 4.055 4.055 0 0 0-4.158 4.163zm4.113-2.945a2.394 2.394 0 0 1 2.448 2.1h-5.072a2.615 2.615 0 0 1 2.624-2.101zm13.472 4.961l-1.2-.672a2.712 2.712 0 0 1-2.5 1.536 2.882 2.882 0 0 1 0-5.761 2.711 2.711 0 0 1 2.5 1.537l1.2-.673a4.143 4.143 0 0 0-3.7-2.144 4.161 4.161 0 1 0 0 8.321 4.143 4.143 0 0 0 3.7-2.144zm1.551-2.016a4 4 0 0 0 3.921 4.16 3.508 3.508 0 0 0 2.816-1.392v1.232h1.376v-8h-1.376v1.232a3.508 3.508 0 0 0-2.816-1.392 4 4 0 0 0-3.921 4.16zm6.849 0a2.733 2.733 0 1 1-2.72-2.9 2.731 2.731 0 0 1 2.72 2.9zm4.143.912c0 1.984 1.184 3.248 2.944 3.248a2.753 2.753 0 0 0 2.465-1.392v1.232h1.376v-8h-1.376v3.969c0 1.84-.976 2.928-2.225 2.928-1.1 0-1.808-.848-1.808-2.192v-4.705h-1.376v4.913zm14.961.864c0-1.2-.752-1.968-2.113-2.416l-.864-.288c-.944-.3-1.232-.608-1.232-1.121a1.132 1.132 0 0 1 1.344-.928 2.165 2.165 0 0 1 1.7.832l.9-.864a3.1 3.1 0 0 0-2.561-1.152c-1.584 0-2.7.88-2.7 2.176a2.415 2.415 0 0 0 1.984 2.321l.784.256c1.04.336 1.425.72 1.425 1.28a1.219 1.219 0 0 1-1.409 1.088 2.147 2.147 0 0 1-2.048-1.264l-1.12.608a3.178 3.178 0 0 0 3.136 1.856c1.606 0 2.774-.816 2.774-2.384zm1.743-1.776a4.218 4.218 0 0 0 7.745 2.256l-1.088-.752a2.833 2.833 0 0 1-5.265-1.232h6.561a3.9 3.9 0 0 0 .016-.416 3.728 3.728 0 0 0-3.809-4.017 4.054 4.054 0 0 0-4.16 4.161zM192 643.2a2.4 2.4 0 0 1 2.449 2.1h-5.073a2.615 2.615 0 0 1 2.624-2.1zm17.009 6.945h1.216l2.72-8h-1.455l-1.936 5.841-2-5.841H206.5l-2 5.841-1.936-5.841h-1.44l2.72 8h1.216l1.984-5.76zm5.166-4a4.218 4.218 0 0 0 7.745 2.256l-1.088-.752a2.832 2.832 0 0 1-5.264-1.232h6.561a3.9 3.9 0 0 0 .016-.416 3.729 3.729 0 0 0-3.809-4.017 4.055 4.055 0 0 0-4.16 4.162zm4.113-2.945a2.394 2.394 0 0 1 2.448 2.1h-5.072a2.615 2.615 0 0 1 2.625-2.1zm11.887 5.713a3.51 3.51 0 0 0 2.817 1.392 4.168 4.168 0 0 0 0-8.321 3.51 3.51 0 0 0-2.817 1.392v-5.232H228.8v12h1.376v-1.232zm5.329-2.768a2.726 2.726 0 1 1-2.72-2.9 2.731 2.731 0 0 1 2.721 2.901zm3.151 0a4.218 4.218 0 0 0 7.745 2.255l-1.088-.752a2.833 2.833 0 0 1-5.265-1.232h6.561a3.9 3.9 0 0 0 .016-.416 3.728 3.728 0 0 0-3.808-4.017 4.054 4.054 0 0 0-4.16 4.163zm4.112-2.945a2.394 2.394 0 0 1 2.449 2.1h-5.073a2.615 2.615 0 0 1 2.625-2.1zm6.208 6.945h1.376v-12h-1.376v12zm6.048-11.121a.966.966 0 0 0-.96-.976.994.994 0 0 0-.992.976.983.983 0 0 0 .992.976.956.956 0 0 0 .961-.975zm-1.664 11.121h1.376v-8h-1.375v8zm3.76-4a4.218 4.218 0 0 0 7.745 2.256l-1.088-.752a2.833 2.833 0 0 1-5.265-1.232h6.561a3.9 3.9 0 0 0 .016-.416 3.729 3.729 0 0 0-3.809-4.017 4.054 4.054 0 0 0-4.159 4.162zm4.112-2.945a2.394 2.394 0 0 1 2.448 2.1h-5.072a2.615 2.615 0 0 1 2.625-2.1zm8.576 6.945h1.152l3.7-8h-1.539l-2.736 6.049-2.736-6.049h-1.537zm5.84-4a4.218 4.218 0 0 0 7.745 2.256l-1.088-.752a2.833 2.833 0 0 1-5.265-1.232h6.561a3.9 3.9 0 0 0 .016-.416 3.729 3.729 0 0 0-3.809-4.017 4.054 4.054 0 0 0-4.159 4.162zm4.112-2.945a2.4 2.4 0 0 1 2.449 2.1h-5.073a2.615 2.615 0 0 1 2.625-2.1zm14.576 6.833V648.8a3.041 3.041 0 0 1-.976.16 1.152 1.152 0 0 1-1.328-1.36v-4.193h2.3v-1.264h-2.3v-2.224h-1.376v2.224h-1.7v1.264h1.7v4.369a2.252 2.252 0 0 0 2.448 2.448 3.828 3.828 0 0 0 1.233-.19zm2.159.112h1.377v-3.968c0-1.873 1.024-2.929 2.32-2.929a1.921 1.921 0 0 1 1.888 2.177v4.72h1.36v-4.928a2.949 2.949 0 0 0-3.024-3.233 2.829 2.829 0 0 0-2.544 1.392v-5.232H296.5v12zm9.2-4a4 4 0 0 0 3.921 4.16 3.508 3.508 0 0 0 2.816-1.392v1.232h1.376v-8h-1.376v1.232a3.508 3.508 0 0 0-2.816-1.392 4 4 0 0 0-3.915 4.161zm6.849 0a2.733 2.733 0 1 1-2.72-2.9 2.731 2.731 0 0 1 2.721 2.901zm8.592 3.888V648.8a3.043 3.043 0 0 1-.977.16 1.152 1.152 0 0 1-1.328-1.36v-4.193h2.305v-1.264h-2.305v-2.224h-1.376v2.224h-1.7v1.264h1.7v4.369a2.252 2.252 0 0 0 2.448 2.448 3.83 3.83 0 0 0 1.234-.19zm12.96.112h1.216l2.72-8h-1.456l-1.936 5.841-2-5.841h-1.056l-2 5.841-1.936-5.841h-1.44l2.72 8h1.216l1.985-5.76zm5.823 0h1.382v-3.968c0-1.873 1.024-2.929 2.32-2.929a1.921 1.921 0 0 1 1.888 2.177v4.72h1.361v-4.928a2.949 2.949 0 0 0-3.025-3.233 2.829 2.829 0 0 0-2.544 1.392v-5.232h-1.376v12zm9.2-4a4 4 0 0 0 3.921 4.16 3.508 3.508 0 0 0 2.816-1.392v1.232h1.377v-8h-1.377v1.232a3.508 3.508 0 0 0-2.816-1.392 4 4 0 0 0-3.921 4.161zm6.849 0a2.733 2.733 0 1 1-2.72-2.9 2.731 2.731 0 0 1 2.72 2.901zm8.592 3.888V648.8a3.041 3.041 0 0 1-.976.16 1.152 1.152 0 0 1-1.328-1.36v-4.193h2.3v-1.264h-2.3v-2.224h-1.377v2.224h-1.7v1.264h1.7v4.369a2.253 2.253 0 0 0 2.449 2.448 3.828 3.828 0 0 0 1.232-.19zm8.223 3.457l5.249-11.346H376.5l-2.736 6.065-2.753-6.065h-1.52l3.5 7.585-1.744 3.761h1.536zm14.577-7.345a4.185 4.185 0 1 0-4.176 4.16 4.106 4.106 0 0 0 4.176-4.159zm-6.961 0a2.778 2.778 0 1 1 2.785 2.88 2.751 2.751 0 0 1-2.783-2.879zm9.216.912c0 1.984 1.184 3.248 2.945 3.248a2.752 2.752 0 0 0 2.464-1.392v1.232h1.377v-8h-1.376v3.969c0 1.84-.976 2.928-2.224 2.928-1.1 0-1.809-.848-1.809-2.192v-4.705h-1.376v4.913zm20.577 3.088h1.216l2.721-8h-1.457l-1.936 5.841-2-5.841h-1.056l-2 5.841-1.936-5.841H402.3l2.72 8h1.216l1.985-5.76zm5.167-4a4.218 4.218 0 0 0 7.742 2.255l-1.088-.752a2.833 2.833 0 0 1-5.265-1.232h6.561a3.9 3.9 0 0 0 .016-.416 3.728 3.728 0 0 0-3.809-4.017 4.054 4.054 0 0 0-4.157 4.163zm4.112-2.945a2.394 2.394 0 0 1 2.449 2.1h-5.073a2.615 2.615 0 0 1 2.624-2.1zm5.584 2.945a4 4 0 0 0 3.92 4.16 3.51 3.51 0 0 0 2.817-1.392v1.232h1.376v-8h-1.376v1.232a3.51 3.51 0 0 0-2.817-1.392 4 4 0 0 0-3.92 4.161zm6.849 0a2.733 2.733 0 1 1-2.721-2.9 2.732 2.732 0 0 1 2.718 2.901zm4.255 4h1.376v-3.968c0-1.873 1.1-2.753 2.112-2.753a2.011 2.011 0 0 1 .752.128v-1.424a2.851 2.851 0 0 0-.624-.064 2.38 2.38 0 0 0-2.24 1.632v-1.552h-1.376v8zm15.344-2.224c0-1.2-.752-1.968-2.112-2.416l-.864-.288c-.944-.3-1.232-.608-1.232-1.121a1.132 1.132 0 0 1 1.344-.928 2.161 2.161 0 0 1 1.7.832l.9-.864a3.1 3.1 0 0 0-2.56-1.152c-1.584 0-2.705.88-2.705 2.176a2.414 2.414 0 0 0 1.985 2.321l.784.256c1.04.336 1.424.72 1.424 1.28a1.218 1.218 0 0 1-1.408 1.088 2.149 2.149 0 0 1-2.049-1.264l-1.12.608a3.179 3.179 0 0 0 3.137 1.856c1.608.001 2.774-.815 2.774-2.383zm2.367 2.224h1.376v-3.968c0-1.873 1.025-2.929 2.321-2.929a1.921 1.921 0 0 1 1.888 2.177v4.72h1.36v-4.928a2.949 2.949 0 0 0-3.024-3.233 2.832 2.832 0 0 0-2.545 1.392v-5.232h-1.376v12zm17.553-4a4.185 4.185 0 1 0-4.176 4.16 4.106 4.106 0 0 0 4.176-4.159zm-6.961 0a2.778 2.778 0 1 1 2.785 2.88 2.751 2.751 0 0 1-2.785-2.879zm9.216.912c0 1.984 1.184 3.248 2.944 3.248a2.754 2.754 0 0 0 2.465-1.392v1.232h1.376v-8h-1.376v3.969c0 1.84-.976 2.928-2.225 2.928-1.1 0-1.808-.848-1.808-2.192v-4.705h-1.376v4.913zm9.776 3.088h1.376v-12h-1.376v12zm3.76-4a4 4 0 0 0 3.92 4.16 3.51 3.51 0 0 0 2.817-1.392v1.232h1.376v-12h-1.376v5.232a3.51 3.51 0 0 0-2.817-1.392 4 4 0 0 0-3.92 4.161zm6.849 0a2.733 2.733 0 1 1-2.721-2.9 2.732 2.732 0 0 1 2.721 2.901zm16.287 0a4.185 4.185 0 1 0-4.176 4.16 4.106 4.106 0 0 0 4.176-4.159zm-6.961 0a2.778 2.778 0 1 1 2.785 2.88 2.751 2.751 0 0 1-2.785-2.879zm9.328 7.345h1.376v-4.577a3.51 3.51 0 0 0 2.817 1.392 4.168 4.168 0 0 0 0-8.321 3.51 3.51 0 0 0-2.817 1.392v-1.232h-1.376v11.346zm6.705-7.345a2.726 2.726 0 1 1-2.72-2.9 2.731 2.731 0 0 1 2.72 2.901zm3.167 0a4.218 4.218 0 0 0 7.745 2.256l-1.088-.752a2.833 2.833 0 0 1-5.265-1.232h6.561a3.9 3.9 0 0 0 .016-.416 3.728 3.728 0 0 0-3.808-4.017 4.054 4.054 0 0 0-4.161 4.162zm4.112-2.945a2.394 2.394 0 0 1 2.448 2.1h-5.073a2.616 2.616 0 0 1 2.625-2.1zm6.207 6.945h1.376v-3.968c0-1.873 1.024-2.929 2.321-2.929a1.921 1.921 0 0 1 1.888 2.177v4.72h1.36v-4.928a2.949 2.949 0 0 0-3.024-3.233 2.829 2.829 0 0 0-2.545 1.392v-1.232h-1.376v8zm13.5-4a4 4 0 0 0 3.92 4.16 3.51 3.51 0 0 0 2.817-1.392v1.232h1.376v-8h-1.376v1.232a3.51 3.51 0 0 0-2.817-1.392 4 4 0 0 0-3.915 4.161zm6.849 0a2.733 2.733 0 1 1-2.721-2.9 2.732 2.732 0 0 1 2.726 2.901zm15.055 4h1.217l2.72-8H570.8l-1.936 5.841-2-5.841H565.8l-2 5.841-1.936-5.841h-1.441l2.721 8h1.216l1.984-5.76zm13.52-4a4.185 4.185 0 1 0-4.176 4.16 4.106 4.106 0 0 0 4.181-4.159zm-6.961 0a2.778 2.778 0 1 1 2.785 2.88 2.751 2.751 0 0 1-2.78-2.879zm9.328 4h1.376v-3.968c0-1.873 1.1-2.753 2.113-2.753a2.011 2.011 0 0 1 .752.128v-1.424a2.851 2.851 0 0 0-.624-.064 2.38 2.38 0 0 0-2.241 1.632v-1.552H584.2v8zm6.256 0h1.376v-12h-1.376v12zm3.76-4a4 4 0 0 0 3.92 4.16 3.509 3.509 0 0 0 2.817-1.392v1.232h1.376v-12h-1.376v5.232a3.509 3.509 0 0 0-2.817-1.392 4 4 0 0 0-3.915 4.161zm6.849 0a2.733 2.733 0 1 1-2.721-2.9 2.732 2.732 0 0 1 2.726 2.901zm16.288 0a4.185 4.185 0 1 0-4.177 4.16 4.107 4.107 0 0 0 4.182-4.159zm-6.961 0a2.778 2.778 0 1 1 2.784 2.88 2.751 2.751 0 0 1-2.774-2.879zm9.872 4h1.376v-6.737h2.32v-1.264h-2.32v-1.472a1.152 1.152 0 0 1 1.328-1.36 3.222 3.222 0 0 1 .992.16v-1.216a3.636 3.636 0 0 0-1.248-.208 2.285 2.285 0 0 0-2.448 2.48v1.616h-1.7v1.264h1.7v6.737zm9.487 3.345h1.377v-4.577a3.508 3.508 0 0 0 2.816 1.392 4.168 4.168 0 0 0 0-8.321 3.508 3.508 0 0 0-2.816 1.392v-1.232h-1.377v11.346zm6.7-7.345a2.726 2.726 0 1 1-2.72-2.9 2.731 2.731 0 0 1 2.73 2.901zm11.52 0a4.185 4.185 0 1 0-4.176 4.16 4.106 4.106 0 0 0 4.186-4.159zm-6.961 0a2.778 2.778 0 1 1 2.785 2.88 2.751 2.751 0 0 1-2.775-2.879zm14.5 1.776c0-1.2-.752-1.968-2.112-2.416l-.864-.288c-.945-.3-1.233-.608-1.233-1.121a1.133 1.133 0 0 1 1.345-.928 2.161 2.161 0 0 1 1.7.832l.9-.864a3.1 3.1 0 0 0-2.56-1.152c-1.585 0-2.705.88-2.705 2.176a2.415 2.415 0 0 0 1.984 2.321l.785.256c1.04.336 1.424.72 1.424 1.28a1.218 1.218 0 0 1-1.408 1.088 2.147 2.147 0 0 1-2.049-1.264l-1.12.608a3.178 3.178 0 0 0 3.137 1.856c1.615.001 2.783-.815 2.783-2.383zm7.536 0c0-1.2-.752-1.968-2.112-2.416l-.864-.288c-.945-.3-1.233-.608-1.233-1.121a1.133 1.133 0 0 1 1.345-.928 2.161 2.161 0 0 1 1.7.832l.9-.864a3.1 3.1 0 0 0-2.56-1.152c-1.585 0-2.705.88-2.705 2.176a2.415 2.415 0 0 0 1.984 2.321l.785.256c1.04.336 1.424.72 1.424 1.28a1.218 1.218 0 0 1-1.408 1.088 2.147 2.147 0 0 1-2.049-1.264l-1.12.608a3.178 3.178 0 0 0 3.137 1.856c1.615.001 2.783-.815 2.783-2.383zm4.031-8.9a.966.966 0 0 0-.96-.976.994.994 0 0 0-.992.976.983.983 0 0 0 .992.976.956.956 0 0 0 .967-.972zm-1.664 11.121h1.376v-8h-1.376v8zm5.76-1.232a3.509 3.509 0 0 0 2.829 1.396 4.168 4.168 0 0 0 0-8.321 3.509 3.509 0 0 0-2.817 1.392v-5.232H669.8v12h1.376v-1.232zm5.329-2.768a2.726 2.726 0 1 1-2.72-2.9 2.731 2.731 0 0 1 2.727 2.904zm5.439-7.121a.966.966 0 0 0-.96-.976.994.994 0 0 0-.992.976.983.983 0 0 0 .992.976.956.956 0 0 0 .967-.972zm-1.664 11.121h1.376v-8h-1.376v8zm4.384 0h1.376v-12h-1.376v12zm6.048-11.121a.966.966 0 0 0-.96-.976.994.994 0 0 0-.992.976.983.983 0 0 0 .992.976.956.956 0 0 0 .967-.972zm-1.664 11.121h1.376v-8h-1.369v8zm8.72-.112v-1.23a3.041 3.041 0 0 1-.976.16 1.152 1.152 0 0 1-1.328-1.36v-4.193h2.3v-1.264h-2.3v-2.224h-1.369v2.224h-1.7v1.264h1.7v4.369a2.252 2.252 0 0 0 2.448 2.448 3.828 3.828 0 0 0 1.232-.19zm3.824-11.009a.966.966 0 0 0-.96-.976 1 1 0 0 0-.993.976.984.984 0 0 0 .993.976.956.956 0 0 0 .967-.972zm-1.665 11.121h1.377v-8h-1.377v8zm3.76-4a4.218 4.218 0 0 0 7.745 2.256l-1.088-.752a2.832 2.832 0 0 1-5.264-1.232h6.56a3.9 3.9 0 0 0 .016-.416 3.728 3.728 0 0 0-3.808-4.017 4.055 4.055 0 0 0-4.154 4.165zm4.118-2.942a2.394 2.394 0 0 1 2.448 2.1h-5.072a2.615 2.615 0 0 1 2.624-2.1zm11.392 4.721c0-1.2-.752-1.968-2.112-2.416l-.864-.288c-.945-.3-1.233-.608-1.233-1.121a1.133 1.133 0 0 1 1.345-.928 2.161 2.161 0 0 1 1.7.832l.9-.864a3.1 3.1 0 0 0-2.56-1.152c-1.585 0-2.7.88-2.7 2.176a2.414 2.414 0 0 0 1.985 2.321l.784.256c1.04.336 1.424.72 1.424 1.28a1.218 1.218 0 0 1-1.408 1.088 2.148 2.148 0 0 1-2.049-1.264l-1.12.608a3.178 3.178 0 0 0 3.137 1.856c1.605.001 2.773-.815 2.773-2.383zm7.135 2.224h1.377v-6.737h2.32v-1.264h-2.32v-1.472a1.152 1.152 0 0 1 1.328-1.36 3.222 3.222 0 0 1 .992.16v-1.216a3.636 3.636 0 0 0-1.248-.208 2.285 2.285 0 0 0-2.449 2.48v1.616h-1.7v1.264h1.7v6.737zm13.121-4a4.185 4.185 0 1 0-4.176 4.16 4.106 4.106 0 0 0 4.178-4.159zm-6.961 0a2.778 2.778 0 1 1 2.785 2.88 2.751 2.751 0 0 1-2.783-2.879zm9.328 4h1.376v-3.968c0-1.873 1.1-2.753 2.113-2.753a2.011 2.011 0 0 1 .752.128v-1.424a2.851 2.851 0 0 0-.624-.064 2.38 2.38 0 0 0-2.241 1.632v-1.552h-1.376v8zm9.536-4a4 4 0 0 0 3.92 4.16 3.509 3.509 0 0 0 2.817-1.392v1.232h1.376v-8h-1.374v1.232a3.509 3.509 0 0 0-2.817-1.392 4 4 0 0 0-3.92 4.161zm6.849 0a2.733 2.733 0 1 1-2.721-2.9 2.732 2.732 0 0 1 2.721 2.901zm8.559 4h1.376v-12h-1.376v12zm6.048-11.121a.966.966 0 0 0-.96-.976 1 1 0 0 0-.993.976.984.984 0 0 0 .993.976.956.956 0 0 0 .962-.975zm-1.665 11.121h1.377v-8h-1.377v8zm5.057 0h1.376v-6.737h2.32v-1.264h-2.32v-1.472a1.152 1.152 0 0 1 1.328-1.36 3.222 3.222 0 0 1 .992.16v-1.216a3.636 3.636 0 0 0-1.248-.208 2.285 2.285 0 0 0-2.448 2.48v1.616h-1.7v1.264h1.7v6.737zm4.767-4a4.218 4.218 0 0 0 7.745 2.256l-1.088-.752a2.832 2.832 0 0 1-5.264-1.232h6.561a3.9 3.9 0 0 0 .016-.416 3.729 3.729 0 0 0-3.809-4.017 4.055 4.055 0 0 0-4.159 4.162zm4.113-2.945a2.394 2.394 0 0 1 2.448 2.1h-5.072a2.615 2.615 0 0 1 2.626-2.1zm17.008 6.945h1.216l2.721-8h-1.454l-1.937 5.841-2-5.841h-1.056l-2 5.841-1.937-5.841h-1.44l2.721 8h1.216l1.984-5.76zm7.487-11.121a.966.966 0 0 0-.96-.976.994.994 0 0 0-.992.976.983.983 0 0 0 .992.976.956.956 0 0 0 .962-.975zm-1.664 11.121h1.376v-8h-1.376v8zm8.721-.112V648.8a3.041 3.041 0 0 1-.976.16 1.152 1.152 0 0 1-1.329-1.36v-4.193h2.305v-1.264h-2.305v-2.224h-1.376v2.224h-1.7v1.264h1.7v4.369a2.252 2.252 0 0 0 2.448 2.448 3.83 3.83 0 0 0 1.235-.19zm2.159.112h1.376v-3.968c0-1.873 1.024-2.929 2.321-2.929a1.921 1.921 0 0 1 1.888 2.177v4.72h1.36v-4.928a2.949 2.949 0 0 0-3.024-3.233 2.829 2.829 0 0 0-2.545 1.392v-5.232h-1.376v12zm14.128 0h1.382v-3.968c0-1.873 1.024-2.929 2.32-2.929a1.921 1.921 0 0 1 1.888 2.177v4.72h1.361v-4.928a2.949 2.949 0 0 0-3.025-3.233 2.829 2.829 0 0 0-2.544 1.392v-1.232h-1.38v8zm17.553-4a4.185 4.185 0 1 0-4.177 4.16 4.107 4.107 0 0 0 4.179-4.159zm-6.961 0a2.778 2.778 0 1 1 2.784 2.88 2.751 2.751 0 0 1-2.782-2.879zm15.007 2.768a3.509 3.509 0 0 0 2.817 1.392 4.168 4.168 0 0 0 0-8.321 3.509 3.509 0 0 0-2.817 1.392v-5.232h-1.376v12h1.376v-1.232zm5.329-2.768a2.726 2.726 0 1 1-2.72-2.9 2.731 2.731 0 0 1 2.722 2.901zm11.5 0a4.185 4.185 0 1 0-4.177 4.16 4.106 4.106 0 0 0 4.183-4.159zm-6.961 0a2.778 2.778 0 1 1 2.784 2.88 2.751 2.751 0 0 1-2.778-2.879zm9.216.912c0 1.984 1.184 3.248 2.944 3.248a2.752 2.752 0 0 0 2.464-1.392v1.232h1.377v-8h-1.377v3.969c0 1.84-.976 2.928-2.224 2.928-1.1 0-1.808-.848-1.808-2.192v-4.705h-1.376v4.913zm9.776 3.088h1.376v-3.968c0-1.873 1.024-2.929 2.32-2.929a1.921 1.921 0 0 1 1.888 2.177v4.72h1.361v-4.928a2.949 2.949 0 0 0-3.025-3.233 2.829 2.829 0 0 0-2.544 1.392v-1.232h-1.376v8zm9.2-4a4 4 0 0 0 3.921 4.16 3.508 3.508 0 0 0 2.816-1.392v1.232h1.386v-12h-1.377v5.232a3.508 3.508 0 0 0-2.816-1.392 4 4 0 0 0-3.925 4.161zm6.849 0a2.733 2.733 0 1 1-2.72-2.9 2.731 2.731 0 0 1 2.725 2.901zm3.631 0a4 4 0 0 0 3.921 4.16 3.508 3.508 0 0 0 2.816-1.392v1.232h1.376v-8h-1.37v1.232a3.508 3.508 0 0 0-2.816-1.392 4 4 0 0 0-3.922 4.161zm6.849 0a2.733 2.733 0 1 1-2.72-2.9 2.731 2.731 0 0 1 2.725 2.901zm4.255 4h1.376v-3.968c0-1.873 1.1-2.753 2.113-2.753a2.011 2.011 0 0 1 .752.128v-1.424a2.851 2.851 0 0 0-.624-.064 2.381 2.381 0 0 0-2.241 1.632v-1.552h-1.376v8zm7.92-11.121a.966.966 0 0 0-.96-.976.994.994 0 0 0-.992.976.983.983 0 0 0 .992.976.956.956 0 0 0 .965-.975zm-1.664 11.121h1.383v-8h-1.376v8zm3.76-4a4.218 4.218 0 0 0 7.745 2.256l-1.088-.752a2.833 2.833 0 0 1-5.265-1.232h6.561a3.9 3.9 0 0 0 .016-.416 3.728 3.728 0 0 0-3.808-4.017 4.054 4.054 0 0 0-4.156 4.162zm4.123-2.945a2.394 2.394 0 0 1 2.448 2.1h-5.078a2.616 2.616 0 0 1 2.63-2.1zm11.392 4.721c0-1.2-.752-1.968-2.113-2.416l-.864-.288c-.944-.3-1.232-.608-1.232-1.121a1.132 1.132 0 0 1 1.344-.928 2.165 2.165 0 0 1 1.7.832l.9-.864a3.1 3.1 0 0 0-2.561-1.152c-1.584 0-2.7.88-2.7 2.176a2.415 2.415 0 0 0 1.984 2.321l.784.256c1.04.336 1.425.72 1.425 1.28a1.219 1.219 0 0 1-1.409 1.088 2.147 2.147 0 0 1-2.048-1.264l-1.12.608a3.178 3.178 0 0 0 3.136 1.856c1.601.001 2.769-.815 2.769-2.383zm4.271 1.152a1.184 1.184 0 1 0-1.184 1.2 1.205 1.205 0 0 0 1.179-1.199z"/><path id="Designed_for_a_life_with_NO_BOUNDARIES" data-name="Designed for a life with NO BOUNDARIES" class="cls-1" d="M39.061 561.436h7.979a11.707 11.707 0 1 0 0-23.409h-7.979v23.409zm5.242-4.814v-13.781h2.737a6.9 6.9 0 0 1 0 13.781H44.3zm20.333 4.814h14.837v-5.012h-9.595v-4.187h7.616v-5.011h-7.616v-4.187h9.594v-5.012H64.636v23.409zm27.813.395c4.945 0 8.341-2.967 8.374-7.22.033-3.528-2.176-5.77-5.572-6.99l-1.648-.593c-2.473-.89-3.627-1.451-3.627-2.7 0-1.219 1.418-1.78 2.835-1.78a5.206 5.206 0 0 1 4.055 1.945l3.429-3.626a9.769 9.769 0 0 0-7.55-3.231c-4.682 0-8.078 2.67-8.078 7.22 0 3.2 2.11 5.473 5.9 6.759l1.648.56c2.341.792 3.264 1.616 3.264 2.8 0 1.121-1.088 1.945-2.835 1.945a6.123 6.123 0 0 1-4.847-2.671l-4.022 3.4a10.263 10.263 0 0 0 8.674 4.182zm14-.395h5.242v-23.409h-5.242v23.409zm23.617.395c3.791 0 7.517-1.121 9.594-3.461v-11.111h-9.693v4.912h4.583v3.462a7.629 7.629 0 0 1-4.55 1.121c-4.583 0-7.385-3.033-7.385-7.023a6.871 6.871 0 0 1 7.055-7.022 7.773 7.773 0 0 1 5.9 2.506l3.693-3.594a12.454 12.454 0 0 0-9.595-3.989 11.956 11.956 0 0 0-12.33 12.1c0 6.857 5.44 12.099 12.726 12.099zm36.885-.395v-23.409h-5.276v14.441L150.3 538.027h-4.517v23.409h5.242v-14.474l11.408 14.474h4.517zm6.949 0h14.836v-5.012h-9.596v-4.187h7.616v-5.011h-7.616v-4.187h9.594v-5.012H173.9v23.409zm20.823 0h7.977a11.707 11.707 0 1 0 0-23.409h-7.978v23.409zm5.242-4.814v-13.781h2.735a6.9 6.9 0 0 1 0 13.781h-2.736zm29.572 4.814h5.242v-9.166h7.155v-5.011h-7.155v-4.22h9.166v-5.012h-14.41v23.409zm30.284.395a12.1 12.1 0 1 0-12.1-12.1 12.129 12.129 0 0 0 12.098 12.1zm0-5.077a7.026 7.026 0 1 1 6.792-7.023 6.946 6.946 0 0 1-6.794 7.023zm17.731 4.682h5.242v-9.66h.857l7.781 9.66h6.3l-8.275-10.32c2.967-1.055 4.583-3 4.583-6.033a6.912 6.912 0 0 0-7.254-7.056h-9.236v23.409zm5.242-14.111v-4.484h3.363c1.549 0 2.67.824 2.67 2.242 0 1.351-1.121 2.242-2.67 2.242h-3.363zm23.667 14.111h5.473l2.077-4.946h9.689l2.077 4.946h5.473l-10.02-23.409h-4.748zm9.463-9.5l2.934-7.055 2.934 7.055h-5.868zm28.022 9.5h14.934v-5.012h-9.693v-18.4h-5.243v23.409zm20.2 0h5.242v-23.409h-5.248v23.409zm12.177 0h5.242v-9.166h7.154v-5.011h-7.154v-4.22h9.166v-5.012h-14.414v23.409zm19.965 0h14.836v-5.012h-9.594v-4.187h7.616v-5.011h-7.616v-4.187h9.594v-5.012h-14.842v23.409zm47.9 0h4.978l5.44-23.409h-5.6l-3.2 14.837-6.606-15.232-6.561 15.232-3.2-14.837h-5.6l5.407 23.409h4.979l4.978-11.474zm15.394 0h5.242v-23.409h-5.242v23.409zm16.4 0h5.275v-18.4h6.034v-5.012H470v5.012h5.968v18.4zm16.5 0h5.242v-9.265h9.429v9.265h5.242v-23.409h-5.242v9.166h-9.429v-9.166h-5.242v23.409zm57.268 0v-23.409h-5.275v14.441L533.1 538.027h-4.517v23.409h5.242v-14.474l11.408 14.474h4.517zm17.73.395a12.1 12.1 0 1 0-12.1-12.1 12.129 12.129 0 0 0 12.094 12.1zm0-5.077a7.026 7.026 0 1 1 6.792-7.023 6.945 6.945 0 0 1-6.798 7.023zm26.97 4.682h10.28a6.921 6.921 0 0 0 7.122-6.891 6.117 6.117 0 0 0-3.33-5.539 5.509 5.509 0 0 0 1.681-4.022 6.958 6.958 0 0 0-6.956-6.957h-8.8v23.409zm5.242-13.946v-4.682h2.967a2.379 2.379 0 0 1 2.44 2.374 2.347 2.347 0 0 1-2.44 2.308h-2.967zm0 9.132v-4.682h4.583a2.382 2.382 0 0 1 2.472 2.341 2.352 2.352 0 0 1-2.439 2.341h-4.616zm28.474 5.209a12.1 12.1 0 1 0-12.1-12.1 12.129 12.129 0 0 0 12.094 12.1zm0-5.077a7.026 7.026 0 1 1 6.791-7.023 6.945 6.945 0 0 1-6.797 7.023zm27.093 5.077c5.6 0 9.628-3.824 9.628-9.66v-14.144h-5.243v14.21a4.387 4.387 0 1 1-8.77 0v-14.21h-5.242v14.144c-.006 5.836 3.984 9.66 9.621 9.66zm37.477-.395v-23.409h-5.275v14.441l-11.381-14.441h-4.516v23.409h5.242v-14.474l11.407 14.474h4.517zm6.949 0h7.979a11.707 11.707 0 1 0 0-23.409h-7.979v23.409zm5.242-4.814v-13.781h2.737a6.9 6.9 0 0 1 0 13.781h-2.737zm16.739 4.814h5.473l2.077-4.946h9.684l2.077 4.946h5.473l-10.02-23.409h-4.747zm9.462-9.5l2.934-7.055 2.935 7.055h-5.869zm19.773 9.5h5.243v-9.66H757l7.781 9.66h6.3l-8.275-10.32c2.967-1.055 4.582-3 4.582-6.033a6.911 6.911 0 0 0-7.253-7.056H750.9v23.409zm5.243-14.111v-4.484h3.356c1.549 0 2.67.824 2.67 2.242 0 1.351-1.121 2.242-2.67 2.242h-3.363zm18.583 14.111h5.242v-23.409h-5.242v23.409zm12.177 0h14.836v-5.012h-9.6v-4.187h7.616v-5.011h-7.616v-4.187h9.594v-5.012H786.9v23.409zm27.812.395c4.946 0 8.342-2.967 8.375-7.22.033-3.528-2.176-5.77-5.572-6.99l-1.649-.593c-2.473-.89-3.627-1.451-3.627-2.7 0-1.219 1.418-1.78 2.836-1.78a5.2 5.2 0 0 1 4.055 1.945l3.429-3.626a9.767 9.767 0 0 0-7.55-3.231c-4.682 0-8.078 2.67-8.078 7.22 0 3.2 2.11 5.473 5.9 6.759l1.648.56c2.341.792 3.264 1.616 3.264 2.8 0 1.121-1.088 1.945-2.835 1.945a6.125 6.125 0 0 1-4.847-2.671l-4.022 3.4a10.264 10.264 0 0 0 8.667 4.182z"/><path id="celebrating_40_years_of_iconic_style" data-name="celebrating 40 years of iconic style" class="cls-2" d="M916.614 260.441a6.6 6.6 0 0 0 5.967-3.489l-2.516-1.366a3.83 3.83 0 1 1 0-3.488l2.516-1.366a6.653 6.653 0 1 0-5.967 9.709zm9.079-.216h8.087v-2.733h-5.23v-2.284h4.15v-2.732h-4.15v-2.284h5.23v-2.733h-8.087v12.766zm11.7 0h8.14v-2.733h-5.283v-10.033h-2.85v12.766zm11.36 0h8.086v-2.733h-5.229v-2.284h4.151v-2.732h-4.151v-2.284h5.229v-2.733h-8.086v12.766zm11.7 0h5.607a3.774 3.774 0 0 0 3.882-3.758 3.338 3.338 0 0 0-1.815-3.021 3 3 0 0 0 .916-2.193 3.793 3.793 0 0 0-3.792-3.794h-4.8v12.766zm2.858-7.606v-2.553h1.617a1.3 1.3 0 0 1 1.33 1.295 1.279 1.279 0 0 1-1.33 1.258h-1.617zm0 4.981v-2.553h2.5a1.3 1.3 0 0 1 1.348 1.276 1.283 1.283 0 0 1-1.33 1.277h-2.515zm9.994 2.625h2.858v-5.268h.467l4.241 5.268h3.432L979.8 254.6a3.293 3.293 0 0 0 2.5-3.29 3.768 3.768 0 0 0-3.953-3.848h-5.032v12.766zm2.858-7.7v-2.446H978a1.272 1.272 0 0 1 1.455 1.223A1.292 1.292 0 0 1 978 252.53h-1.833zm9.114 7.7h2.983l1.132-2.7h5.283l1.132 2.7h2.983l-5.463-12.766h-2.587zm5.157-5.178l1.6-3.848 1.6 3.848h-3.2zm12.153 5.178h2.87v-10.033h3.29v-2.733h-9.414v2.733h3.254v10.033zm9.35 0h2.85v-12.766h-2.85v12.766zm18.53 0v-12.766h-2.88v7.875l-6.2-7.875h-2.46v12.766h2.86v-7.893l6.21 7.893h2.47zm10.37.216a7.076 7.076 0 0 0 5.23-1.888v-6.059h-5.29v2.679h2.5v1.887a4.146 4.146 0 0 1-2.48.612 3.832 3.832 0 1 1-.18-7.66 4.239 4.239 0 0 1 3.22 1.367l2.01-1.96a6.778 6.778 0 0 0-5.23-2.175 6.52 6.52 0 0 0-6.72 6.6 6.632 6.632 0 0 0 6.943 6.597zm19.52-.216h2.71v-2.769h1.64v-2.481h-1.64v-7.516h-2.44l-6.51 7.8v2.194h6.24v2.769zm0-5.25h-2.93l2.93-3.524v3.524zm12.13 5.448a4.785 4.785 0 0 0 4.82-5.107v-2.966a4.833 4.833 0 1 0-9.65 0v2.966a4.782 4.782 0 0 0 4.833 5.107zm0-2.679a2.132 2.132 0 0 1-2.12-2.428v-2.966a2.131 2.131 0 1 1 4.22 0v2.966a2.128 2.128 0 0 1-2.097 2.428zm16.88 2.481h2.88v-5.358l4.65-7.408h-3.33l-2.78 4.6-2.75-4.6h-3.32l4.65 7.39v5.376zm10.46 0h8.09v-2.733h-5.23v-2.284h4.15v-2.732h-4.15v-2.284h5.23v-2.733h-8.09v12.766zm10.34 0h2.98l1.13-2.7h5.29l1.13 2.7h2.98l-5.46-12.766h-2.59zm5.16-5.178l1.59-3.848 1.6 3.848h-3.19zm11.12 5.178h2.86v-5.268h.47l4.24 5.268h3.43l-4.51-5.628a3.293 3.293 0 0 0 2.5-3.29 3.772 3.772 0 0 0-3.96-3.848h-5.03v12.766zm2.86-7.7v-2.446h1.83a1.273 1.273 0 0 1 1.46 1.223 1.293 1.293 0 0 1-1.46 1.223h-1.83zm14.29 7.911c2.69 0 4.55-1.619 4.56-3.938.02-1.924-1.18-3.146-3.03-3.812l-.9-.323c-1.35-.486-1.98-.791-1.98-1.475 0-.665.77-.971 1.55-.971a2.846 2.846 0 0 1 2.21 1.061l1.87-1.977a5.33 5.33 0 0 0-4.12-1.762c-2.55 0-4.4 1.456-4.4 3.937 0 1.744 1.15 2.985 3.22 3.686l.89.306c1.28.431 1.78.881 1.78 1.528 0 .611-.59 1.061-1.54 1.061a3.326 3.326 0 0 1-2.64-1.457l-2.2 1.852a5.608 5.608 0 0 0 4.733 2.289zm19.25 0a6.6 6.6 0 1 0-6.6-6.6 6.609 6.609 0 0 0 6.603 6.605zm0-2.769a3.832 3.832 0 1 1 3.7-3.83 3.783 3.783 0 0 1-3.697 3.835zm10.01 2.553h2.86v-5h3.9v-2.732h-3.9v-2.3h5v-2.733h-7.86v12.766zm16.2 0h2.86v-12.761h-2.86v12.766zm12.87.216a6.578 6.578 0 0 0 5.96-3.489l-2.51-1.366a3.83 3.83 0 1 1 0-3.488l2.51-1.366a6.652 6.652 0 1 0-5.957 9.714zm14.95 0a6.6 6.6 0 1 0-6.59-6.6 6.617 6.617 0 0 0 6.593 6.605zm0-2.769a3.832 3.832 0 1 1 3.7-3.83 3.79 3.79 0 0 1-3.697 3.835zm21.55 2.553v-12.761h-2.87v7.875l-6.2-7.875h-2.47v12.766h2.86v-7.893l6.22 7.893h2.46zm4.14 0h2.86v-12.761h-2.86v12.766zm12.87.216a6.578 6.578 0 0 0 5.96-3.489l-2.51-1.366a3.83 3.83 0 1 1 0-3.488l2.51-1.366a6.652 6.652 0 1 0-5.957 9.714zm18.28 0c2.69 0 4.54-1.619 4.56-3.938.02-1.924-1.18-3.146-3.03-3.812l-.9-.323c-1.35-.486-1.98-.791-1.98-1.475 0-.665.77-.971 1.55-.971a2.86 2.86 0 0 1 2.21 1.061l1.86-1.977a5.3 5.3 0 0 0-4.11-1.762c-2.55 0-4.4 1.456-4.4 3.937 0 1.744 1.15 2.985 3.21 3.686l.9.306c1.28.431 1.78.881 1.78 1.528 0 .611-.59 1.061-1.54 1.061a3.344 3.344 0 0 1-2.65-1.457l-2.19 1.852a5.608 5.608 0 0 0 4.733 2.289zm10.1-.216h2.88v-10.028h3.28v-2.733h-9.41v2.733h3.25v10.033zm12.8 0h2.87v-5.358l4.66-7.408h-3.33l-2.78 4.6-2.75-4.6h-3.33l4.66 7.39v5.376zm10.46 0h8.14v-2.733h-5.28v-10.028h-2.86v12.766zm11.36 0h8.09v-2.733h-5.23v-2.284h4.15v-2.732h-4.15v-2.284h5.23v-2.733h-8.09v12.766z"/><path id="Polygon_598" data-name="Polygon 598" d="M465.01 247.494L426.992 284v-73.011z" opacity=".77" fill="#fff" fill-rule="evenodd"/><circle cx="438.5" cy="247.5" r="67.5" fill="none" stroke="#fff" stroke-width="5" opacity=".77"/><path class="cls-2" d="M1339.65 19.646l.7.707-26 26-.7-.707z"/><path id="Shape_593_copy" data-name="Shape 593 copy" class="cls-2" d="M1314.35 19.646l-.7.707 26 26 .7-.707z"/></svg>