<svg id="Copy_copy_3" data-name="Copy copy 3" xmlns="http://www.w3.org/2000/svg" width="1360" height="723" viewBox="0 0 1360 723">
  <metadata><?xpacket begin="﻿" id="W5M0MpCehiHzreSzNTczkc9d"?>
<x:xmpmeta xmlns:x="adobe:ns:meta/" x:xmptk="Adobe XMP Core 5.6-c138 79.159824, 2016/09/14-01:09:01        ">
   <rdf:RDF xmlns:rdf="http://www.w3.org/1999/02/22-rdf-syntax-ns#">
      <rdf:Description rdf:about=""/>
   </rdf:RDF>
</x:xmpmeta>
                                                                                                    
                                                                                                    
                                                                                                    
                                                                                                    
                                                                                                    
                                                                                                    
                                                                                                    
                                                                                                    
                                                                                                    
                                                                                                    
                                                                                                    
                                                                                                    
                                                                                                    
                                                                                                    
                                                                                                    
                                                                                                    
                                                                                                    
                                                                                                    
                                                                                                    
                                                                                                    
                           
<?xpacket end="w"?></metadata>
<defs>
    <style>
      .cls-1, .cls-2, .cls-3 {
        fill-rule: evenodd;
      }

      .cls-2 {
        fill: #010000;
      }

      .cls-3 {
        fill: #fff;
      }
    </style>
  </defs>
  <path id="RE-ISSUED_WOOL-CASHMERE_SWEATER_ORIGINALLY_SOLD_IN_1992_" data-name="RE-ISSUED WOOL-CASHMERE SWEATER, ORIGINALLY SOLD IN 1992     " class="cls-1" d="M572.587,670.146h2.544v-4.688h0.416l3.777,4.688h3.056l-4.017-5.008a2.933,2.933,0,0,0,2.225-2.929,3.354,3.354,0,0,0-3.521-3.424h-4.48v11.361Zm2.544-6.849v-2.176h1.632a1.132,1.132,0,0,1,1.3,1.088,1.15,1.15,0,0,1-1.3,1.088h-1.632Zm9.327,6.849h7.2v-2.432H587v-2.032h3.7v-2.433H587v-2.032h4.656v-2.432h-7.2v11.361Zm9.793-4.528h4.7v-2.305h-4.7v2.305Zm8.111,4.528h2.545V658.785h-2.545v11.361Zm9.617,0.192c2.4,0,4.048-1.44,4.064-3.5,0.016-1.712-1.056-2.8-2.7-3.393l-0.8-.288c-1.2-.432-1.76-0.7-1.76-1.312a1.166,1.166,0,0,1,1.376-.864,2.527,2.527,0,0,1,1.968.944l1.664-1.76a4.74,4.74,0,0,0-3.664-1.568c-2.273,0-3.921,1.3-3.921,3.5,0,1.552,1.024,2.657,2.865,3.281l0.8,0.272c1.136,0.384,1.584.784,1.584,1.36a1.152,1.152,0,0,1-1.376.944,2.975,2.975,0,0,1-2.353-1.3l-1.952,1.648A4.983,4.983,0,0,0,611.979,670.338Zm10.5,0c2.4,0,4.048-1.44,4.064-3.5,0.016-1.712-1.056-2.8-2.7-3.393l-0.8-.288c-1.2-.432-1.761-0.7-1.761-1.312a1.167,1.167,0,0,1,1.377-.864,2.527,2.527,0,0,1,1.968.944l1.664-1.76a4.74,4.74,0,0,0-3.664-1.568c-2.273,0-3.921,1.3-3.921,3.5,0,1.552,1.024,2.657,2.864,3.281l0.8,0.272c1.136,0.384,1.584.784,1.584,1.36a1.152,1.152,0,0,1-1.376.944,2.972,2.972,0,0,1-2.353-1.3l-1.952,1.648A4.982,4.982,0,0,0,622.475,670.338Zm11.648,0a4.455,4.455,0,0,0,4.672-4.688v-6.865h-2.544v6.9a2.129,2.129,0,1,1-4.257,0v-6.9H629.45v6.865A4.447,4.447,0,0,0,634.123,670.338Zm8.223-.192h7.2v-2.432H644.89v-2.032h3.7v-2.433h-3.7v-2.032h4.657v-2.432h-7.2v11.361Zm10.416,0h3.872a5.682,5.682,0,1,0,0-11.361h-3.872v11.361Zm2.544-2.336v-6.689h1.328a3.347,3.347,0,0,1,0,6.689h-1.328Zm23.633,2.336h2.416L684,658.785h-2.721l-1.552,7.2-3.2-7.393-3.184,7.393-1.552-7.2h-2.721l2.625,11.361h2.416l2.416-5.568Zm12.879,0.192a5.873,5.873,0,1,0-5.873-5.872A5.886,5.886,0,0,0,691.818,670.338Zm0-2.464a3.41,3.41,0,1,1,3.3-3.408A3.371,3.371,0,0,1,691.818,667.874Zm14.144,2.464a5.873,5.873,0,1,0-5.873-5.872A5.886,5.886,0,0,0,705.962,670.338Zm0-2.464a3.41,3.41,0,1,1,3.3-3.408A3.371,3.371,0,0,1,705.962,667.874Zm8.911,2.272h7.249v-2.432h-4.7v-8.929h-2.544v11.361Zm8.384-4.528h4.705v-2.305h-4.705v2.305Zm13.345,4.72a5.872,5.872,0,0,0,5.312-3.1l-2.24-1.216a3.409,3.409,0,1,1,0-3.105l2.24-1.216A5.923,5.923,0,1,0,736.6,670.338Zm6.591-.192h2.656l1.008-2.4h4.705l1.008,2.4h2.656l-4.864-11.361h-2.3Zm4.592-4.608,1.425-3.425,1.424,3.425h-2.849Zm12.992,4.8c2.4,0,4.049-1.44,4.065-3.5,0.016-1.712-1.056-2.8-2.7-3.393l-0.8-.288c-1.2-.432-1.761-0.7-1.761-1.312a1.166,1.166,0,0,1,1.376-.864,2.527,2.527,0,0,1,1.969.944l1.664-1.76a4.741,4.741,0,0,0-3.665-1.568c-2.272,0-3.92,1.3-3.92,3.5,0,1.552,1.024,2.657,2.864,3.281l0.8,0.272c1.137,0.384,1.585.784,1.585,1.36a1.153,1.153,0,0,1-1.377.944,2.972,2.972,0,0,1-2.352-1.3l-1.952,1.648A4.981,4.981,0,0,0,760.777,670.338Zm7.1-.192h2.544v-4.5H775v4.5h2.544V658.785H775v4.448h-4.577v-4.448h-2.544v11.361ZM787.1,667.73l3.312-4.593v7.009h2.56V658.785h-2.32l-3.552,4.9-3.553-4.9h-2.32v11.361h2.544v-7.009Zm9.551,2.416h7.2v-2.432h-4.657v-2.032h3.7v-2.433h-3.7v-2.032h4.657v-2.432h-7.2v11.361Zm10.416,0h2.544v-4.688h0.416l3.776,4.688h3.057l-4.017-5.008a2.933,2.933,0,0,0,2.225-2.929,3.355,3.355,0,0,0-3.521-3.424h-4.48v11.361Zm2.544-6.849v-2.176h1.632a1.132,1.132,0,0,1,1.3,1.088,1.15,1.15,0,0,1-1.3,1.088h-1.632Zm9.327,6.849h7.2v-2.432h-4.656v-2.032h3.7v-2.433h-3.7v-2.032h4.656v-2.432h-7.2v11.361Zm18.609,0.192c2.4,0,4.048-1.44,4.064-3.5,0.016-1.712-1.056-2.8-2.7-3.393l-0.8-.288c-1.2-.432-1.761-0.7-1.761-1.312a1.167,1.167,0,0,1,1.377-.864,2.527,2.527,0,0,1,1.968.944l1.664-1.76a4.74,4.74,0,0,0-3.664-1.568c-2.273,0-3.921,1.3-3.921,3.5,0,1.552,1.024,2.657,2.864,3.281l0.8,0.272c1.136,0.384,1.584.784,1.584,1.36a1.152,1.152,0,0,1-1.376.944,2.974,2.974,0,0,1-2.353-1.3l-1.952,1.648A4.982,4.982,0,0,0,837.545,670.338Zm15.872-.192h2.417l2.64-11.361h-2.72l-1.552,7.2-3.2-7.393-3.184,7.393-1.553-7.2h-2.72l2.624,11.361h2.417L851,664.578Zm7.775,0h7.2v-2.432h-4.657v-2.032h3.7v-2.433h-3.7v-2.032h4.657v-2.432h-7.2v11.361Zm9.2,0h2.656l1.008-2.4h4.7l1.008,2.4h2.657l-4.865-11.361h-2.3Zm4.593-4.608,1.424-3.425,1.424,3.425h-2.848Zm10.815,4.608h2.561v-8.929h2.928v-2.432H882.9v2.432h2.9v8.929Zm8.32,0h7.2v-2.432h-4.657v-2.032h3.7v-2.433h-3.7v-2.032h4.657v-2.432h-7.2v11.361Zm10.416,0h2.544v-4.688H907.5l3.777,4.688h3.056l-4.016-5.008a2.933,2.933,0,0,0,2.224-2.929,3.354,3.354,0,0,0-3.52-3.424h-4.481v11.361Zm2.544-6.849v-2.176h1.633a1.132,1.132,0,0,1,1.3,1.088,1.15,1.15,0,0,1-1.3,1.088H907.08Zm11.792,6.369a2.191,2.191,0,0,0,.352-1.1,1.712,1.712,0,0,0-3.424,0,1.732,1.732,0,0,0,1.04,1.584l-1.2,2.481h1.392ZM577.819,694.338a5.873,5.873,0,1,0-5.872-5.872A5.886,5.886,0,0,0,577.819,694.338Zm0-2.464a3.41,3.41,0,1,1,3.3-3.408A3.371,3.371,0,0,1,577.819,691.874Zm8.911,2.272h2.545v-4.688h0.416l3.776,4.688h3.057l-4.017-5.008a2.934,2.934,0,0,0,2.225-2.929,3.355,3.355,0,0,0-3.521-3.424H586.73v11.361Zm2.545-6.849v-2.176h1.632a1.132,1.132,0,0,1,1.3,1.088,1.15,1.15,0,0,1-1.3,1.088h-1.632Zm9.327,6.849h2.545V682.785H598.6v11.361Zm11.777,0.192a6.282,6.282,0,0,0,4.657-1.68v-5.393h-4.7v2.385h2.224v1.68a3.7,3.7,0,0,1-2.208.544,3.411,3.411,0,1,1-.16-6.817,3.773,3.773,0,0,1,2.864,1.216l1.792-1.744a6.044,6.044,0,0,0-4.656-1.936,5.8,5.8,0,0,0-5.985,5.873A5.9,5.9,0,0,0,610.379,694.338Zm7.935-.192h2.544V682.785h-2.544v11.361Zm16.5,0V682.785h-2.56v7.009l-5.521-7.009h-2.192v11.361h2.544v-7.025l5.537,7.025h2.192Zm2.462,0h2.657l1.008-2.4h4.705l1.008,2.4h2.656l-4.865-11.361h-2.3Zm4.593-4.608,1.424-3.425,1.424,3.425h-2.848Zm9.9,4.608h7.249v-2.432h-4.705v-8.929H651.77v11.361Zm10.111,0h7.249v-2.432h-4.7v-8.929h-2.545v11.361Zm11.585,0h2.56v-4.768l4.145-6.593H677.21l-2.48,4.1-2.449-4.1h-2.96l4.145,6.577v4.784Zm17.119,0.192c2.4,0,4.049-1.44,4.065-3.5,0.016-1.712-1.056-2.8-2.7-3.393l-0.8-.288c-1.2-.432-1.761-0.7-1.761-1.312a1.166,1.166,0,0,1,1.376-.864,2.527,2.527,0,0,1,1.969.944l1.664-1.76a4.741,4.741,0,0,0-3.665-1.568c-2.272,0-3.92,1.3-3.92,3.5,0,1.552,1.024,2.657,2.864,3.281l0.8,0.272c1.137,0.384,1.585.784,1.585,1.36a1.153,1.153,0,0,1-1.377.944,2.972,2.972,0,0,1-2.352-1.3l-1.952,1.648A4.981,4.981,0,0,0,690.585,694.338Zm12.337,0a5.873,5.873,0,1,0-5.873-5.872A5.886,5.886,0,0,0,702.922,694.338Zm0-2.464a3.41,3.41,0,1,1,3.3-3.408A3.371,3.371,0,0,1,702.922,691.874Zm8.911,2.272h7.249v-2.432h-4.705v-8.929h-2.544v11.361Zm10.111,0h3.873a5.682,5.682,0,1,0,0-11.361h-3.873v11.361Zm2.545-2.336v-6.689h1.328a3.347,3.347,0,0,1,0,6.689h-1.328Zm14.975,2.336h2.544V682.785h-2.544v11.361Zm16.5,0V682.785H753.4v7.009l-5.521-7.009h-2.192v11.361h2.544v-7.025l5.537,7.025h2.192Zm9.695,0h2.416V682.785H764.92l-1.729,2.384h2.465v8.977Zm6,0h2.976l3.184-4.528c0.9-1.28,1.345-1.921,1.345-3.057a4,4,0,0,0-8-.016,3.527,3.527,0,0,0,3.281,3.617Zm3.5-6.033a1.6,1.6,0,0,1,0-3.2A1.6,1.6,0,0,1,775.16,688.113Zm6.927,6.033h2.977l3.184-4.528c0.9-1.28,1.344-1.921,1.344-3.057a4,4,0,0,0-8-.016,3.527,3.527,0,0,0,3.281,3.617Zm3.5-6.033a1.6,1.6,0,0,1,0-3.2A1.6,1.6,0,0,1,785.592,688.113Zm14.288,3.649h-4.432a7.742,7.742,0,0,1,2.016-1.6,4.6,4.6,0,0,0,2.336-4.017,3.447,3.447,0,0,0-3.68-3.552,3.8,3.8,0,0,0-4.033,3.808H794.5a1.437,1.437,0,0,1,1.537-1.424,1.25,1.25,0,0,1,1.344,1.344c0,0.816-.816,1.536-1.712,2.177-1.665,1.184-3.633,2.256-3.633,4.832v0.816h7.841v-2.384Z"/>
  <g id="Number_copy_8" data-name="Number copy 8">
    <path id="_02" data-name="02" class="cls-1" d="M1310.13,632.1v-3.724c0-3.2-2.13-5.466-5.13-5.466s-5.12,2.263-5.12,5.466V632.1c0,3.2,2.13,5.465,5.12,5.465S1310.13,635.3,1310.13,632.1Zm-8.06,0v-3.724c0-2.062,1.21-3.3,2.93-3.3s2.94,1.242,2.94,3.3V632.1c0,2.082-1.21,3.3-2.94,3.3S1302.07,634.182,1302.07,632.1Zm19.91,3.1h-6.47c0.36-1.281,1.94-2.082,3.21-3.043,2.07-1.5,3.12-2.723,3.12-4.985a4.12,4.12,0,0,0-4.43-4.265,4.527,4.527,0,0,0-4.78,4.585h2.21a2.394,2.394,0,0,1,2.55-2.423,2.076,2.076,0,0,1,2.24,2.163c0,1.441-.91,2.242-2.36,3.3-2.07,1.542-4.64,2.9-4.64,6.026v0.8h9.35V635.2Z"/>
    <path id="_03" data-name="03" class="cls-1" d="M1310.13,687.458v-3.724c0-3.2-2.13-5.465-5.13-5.465s-5.12,2.262-5.12,5.465v3.724c0,3.2,2.13,5.466,5.12,5.466S1310.13,690.662,1310.13,687.458Zm-8.06,0v-3.724c0-2.062,1.21-3.3,2.93-3.3s2.94,1.241,2.94,3.3v3.724c0,2.083-1.21,3.3-2.94,3.3S1302.07,689.541,1302.07,687.458Zm20.31,1.262a3.549,3.549,0,0,0-2.13-3.364,3.631,3.631,0,0,0,1.73-3.083c0.02-2.322-1.79-4-4.42-4a4.548,4.548,0,0,0-4.79,4.585h2.21a2.381,2.381,0,0,1,2.58-2.423,2.028,2.028,0,0,1,2.21,1.982,2.094,2.094,0,0,1-2.32,2.022h-1.12v1.882h1.12c1.63,0,2.72.761,2.72,2.263a2.264,2.264,0,0,1-2.53,2.182,2.721,2.721,0,0,1-2.94-2.5h-2.19a4.811,4.811,0,0,0,5.13,4.665C1320.45,692.924,1322.38,691.222,1322.38,688.72Z"/>
    <path class="cls-2" d="M1293,658V656.99h37V658h-37Z"/>
  </g>
  <g id="X_copy_7" data-name="X copy 7">
    <path id="Rectangle_116_copy_2" data-name="Rectangle 116 copy 2" class="cls-3" d="M1330.01,58.336l-0.94.929L1315.38,45.7,1300.94,60l-0.95-.938,14.44-14.3-13.96-13.832,0.94-.929,13.96,13.832,13.5-13.383,0.95,0.938-13.51,13.383Z"/>
  </g>
  <g id="R_copy_7" data-name="R copy 7">
    <path id="Rectangle_116_copy" data-name="Rectangle 116 copy" class="cls-3" d="M1328.51,362.768l-0.07-.068-27.94,27.9-0.95-.941,27.95-27.9-27.47-27.421,0.93-.932,28.49,28.431Z"/>
  </g>
  <g id="L_copy_7" data-name="L copy 7">
    <path id="Rectangle_116_copy-2" data-name="Rectangle 116 copy" class="cls-3" d="M57.12,334.161L29.782,361.739l26.874,27.11-0.913.921L27.88,361.663l0.913-.922,0.066,0.067L56.2,333.23Z"/>
  </g>
  <path id="Shop_Now_copy_6" data-name="Shop Now copy 6" class="cls-1" d="M820.533,689.557a3.129,3.129,0,0,0,2.783,1.408,2.306,2.306,0,0,0,.77-4.544l-0.792-.3c-0.8-.3-1.188-0.55-1.188-1.122a1.074,1.074,0,0,1,1.232-.9,1.894,1.894,0,0,1,1.486.726l0.891-.869a3.007,3.007,0,0,0-2.366-1.067,2.227,2.227,0,0,0-.693,4.4l0.858,0.309a1.321,1.321,0,0,1,1.112,1.188,1.1,1.1,0,0,1-1.266.968,2.126,2.126,0,0,1-1.815-1Zm8.767,1.276h1.287v-3.355h3.862v3.355h1.287v-7.811h-1.287v3.234h-3.862v-3.234H829.3v7.811Zm17.92-3.906a4.038,4.038,0,1,0-4.038,4.038A4.019,4.019,0,0,0,847.22,686.927Zm-6.777,0a2.735,2.735,0,1,1,2.739,2.795A2.738,2.738,0,0,1,840.443,686.927Zm12.65-3.9h-2.486v7.811h1.287v-2.706h1.2A2.557,2.557,0,1,0,853.093,683.022Zm-0.011,3.894h-1.188v-2.684h1.188A1.346,1.346,0,1,1,853.082,686.916Zm17.007,3.917v-7.811h-1.3v5.6l-4.39-5.6h-1.122v7.811h1.287v-5.622l4.4,5.622h1.122Zm11.473-3.906a4.038,4.038,0,1,0-4.038,4.038A4.019,4.019,0,0,0,881.562,686.927Zm-6.777,0a2.735,2.735,0,1,1,2.739,2.795A2.738,2.738,0,0,1,874.785,686.927Zm16.225,3.906H892.2l2.024-7.811h-1.364l-1.43,5.677L889.2,682.89l-2.233,5.809-1.43-5.677h-1.354l2.014,7.811h1.188l1.815-4.775ZM820.181,693.4v-0.989h76V693.4h-76Z"/>
</svg>
