<svg id="Copy_copy_4" data-name="Copy copy 4" xmlns="http://www.w3.org/2000/svg" width="1360" height="723"><defs><style>.cls-1{fill-rule:evenodd}</style></defs><path id="Stretch-Suede_Mini_Skirt_" data-name="Stretch-Suede Mini Skirt" class="cls-1" d="M715.979 115.338c2.4 0 4.049-1.44 4.065-3.5.016-1.712-1.056-2.8-2.7-3.393l-.8-.288c-1.2-.432-1.76-.7-1.76-1.312a1.166 1.166 0 0 1 1.376-.864 2.527 2.527 0 0 1 1.968.944l1.665-1.76a4.742 4.742 0 0 0-3.665-1.568c-2.272 0-3.92 1.3-3.92 3.5 0 1.552 1.024 2.657 2.864 3.281l.8.272c1.136.384 1.584.784 1.584 1.36a1.152 1.152 0 0 1-1.376.944 2.972 2.972 0 0 1-2.352-1.3l-1.952 1.648a4.981 4.981 0 0 0 4.203 2.036zm8.992-.192h2.56v-8.929h2.929v-2.432h-8.386v2.432h2.9v8.929zm8.319 0h2.545v-4.688h.416l3.776 4.688h3.057l-4.017-5.008a2.934 2.934 0 0 0 2.225-2.929 3.355 3.355 0 0 0-3.521-3.424h-4.481v11.361zm2.545-6.849v-2.176h1.632a1.132 1.132 0 0 1 1.3 1.088 1.15 1.15 0 0 1-1.3 1.088h-1.632zm9.327 6.849h7.2v-2.432h-4.656v-2.032h3.7v-2.433h-3.7v-2.032h4.656v-2.432h-7.2v11.361zm12.465 0h2.56v-8.929h2.928v-2.432h-8.385v2.432h2.9v8.929zm13.12.192a5.874 5.874 0 0 0 5.313-3.1l-2.241-1.216a3.409 3.409 0 1 1 0-3.105l2.241-1.216a5.923 5.923 0 1 0-5.313 8.637zm8.079-.192h2.545v-4.5h4.576v4.5h2.545v-11.361h-2.545v4.448h-4.576v-4.448h-2.545v11.361zm13.072-4.528h4.7v-2.3h-4.7v2.3zm11.5 4.72c2.4 0 4.049-1.44 4.065-3.5.016-1.712-1.056-2.8-2.7-3.393l-.8-.288c-1.2-.432-1.761-.7-1.761-1.312a1.166 1.166 0 0 1 1.376-.864 2.527 2.527 0 0 1 1.969.944l1.664-1.76a4.741 4.741 0 0 0-3.665-1.568c-2.272 0-3.92 1.3-3.92 3.5 0 1.552 1.024 2.657 2.864 3.281l.8.272c1.137.384 1.585.784 1.585 1.36a1.153 1.153 0 0 1-1.377.944 2.972 2.972 0 0 1-2.352-1.3l-1.952 1.648a4.981 4.981 0 0 0 4.206 2.036zm11.648 0a4.456 4.456 0 0 0 4.673-4.688v-6.865h-2.544v6.9a2.129 2.129 0 1 1-4.257 0v-6.9h-2.544v6.865a4.447 4.447 0 0 0 4.676 4.688zm8.224-.192h7.2v-2.432h-4.657v-2.032h3.7v-2.433h-3.7v-2.032h4.657v-2.432h-7.2v11.361zm10.416 0h3.872a5.682 5.682 0 1 0 0-11.361h-3.868v11.361zm2.544-2.336v-6.689h1.328a3.347 3.347 0 0 1 0 6.689h-1.328zm10.175 2.336h7.2v-2.432h-4.657v-2.032h3.7v-2.433h-3.7v-2.032h4.657v-2.432h-7.2v11.361zm21.095-2.416l3.313-4.593v7.009h2.56v-11.361h-2.32l-3.553 4.9-3.552-4.9h-2.321v11.361h2.545v-7.009zm9.551 2.416h2.544v-11.361h-2.544v11.361zm16.5 0v-11.361h-2.56v7.009l-5.521-7.009h-2.192v11.361h2.544v-7.025l5.537 7.025h2.192zm3.679 0h2.544v-11.361h-2.544v11.361zm14.416.192c2.4 0 4.048-1.44 4.064-3.5.016-1.712-1.056-2.8-2.7-3.393l-.8-.288c-1.2-.432-1.76-.7-1.76-1.312a1.166 1.166 0 0 1 1.376-.864 2.527 2.527 0 0 1 1.968.944l1.664-1.76a4.74 4.74 0 0 0-3.664-1.568c-2.272 0-3.921 1.3-3.921 3.5 0 1.552 1.024 2.657 2.865 3.281l.8.272c1.136.384 1.584.784 1.584 1.36a1.152 1.152 0 0 1-1.376.944 2.972 2.972 0 0 1-2.352-1.3l-1.953 1.648a4.983 4.983 0 0 0 4.2 2.036zm7.1-.192h2.529v-5.088l4.624 5.088h3.265l-5.393-5.905 4.481-5.456h-3.121l-3.856 4.752v-4.752h-2.529v11.361zm12.48 0h2.544v-11.361h-2.544v11.361zm6.224 0h2.544v-4.688h.416l3.777 4.688h3.056l-4.016-5.008a2.933 2.933 0 0 0 2.224-2.929 3.354 3.354 0 0 0-3.52-3.424h-4.481v11.361zm2.544-6.849v-2.176h1.633a1.132 1.132 0 0 1 1.3 1.088 1.15 1.15 0 0 1-1.3 1.088h-1.633zm11.024 6.849h2.561v-8.929h2.928v-2.432h-8.387v2.432h2.9v8.929z"/><g id="Number_copy_6" data-name="Number copy 6"><path id="_03" data-name="3" class="cls-1" d="M1310.13 632.1v-3.724c0-3.2-2.13-5.466-5.13-5.466s-5.12 2.263-5.12 5.466v3.724c0 3.2 2.13 5.465 5.12 5.465s5.13-2.265 5.13-5.465zm-8.06 0v-3.724c0-2.062 1.21-3.3 2.93-3.3s2.94 1.242 2.94 3.3v3.724c0 2.082-1.21 3.3-2.94 3.3s-2.93-1.218-2.93-3.3zm20.31 1.261a3.547 3.547 0 0 0-2.13-3.363 3.632 3.632 0 0 0 1.73-3.084c.02-2.322-1.79-4-4.42-4a4.548 4.548 0 0 0-4.79 4.585h2.21a2.381 2.381 0 0 1 2.58-2.423 2.028 2.028 0 0 1 2.21 1.982 2.094 2.094 0 0 1-2.32 2.023h-1.12v1.882h1.12c1.63 0 2.72.76 2.72 2.262a2.264 2.264 0 0 1-2.53 2.182 2.721 2.721 0 0 1-2.94-2.5h-2.19a4.81 4.81 0 0 0 5.13 4.664c2.81-.006 4.74-1.707 4.74-4.21z"/><path id="_03-2" data-name="3" class="cls-1" d="M1310.13 687.458v-3.724c0-3.2-2.13-5.465-5.13-5.465s-5.12 2.262-5.12 5.465v3.724c0 3.2 2.13 5.466 5.12 5.466s5.13-2.262 5.13-5.466zm-8.06 0v-3.724c0-2.062 1.21-3.3 2.93-3.3s2.94 1.241 2.94 3.3v3.724c0 2.083-1.21 3.3-2.94 3.3s-2.93-1.217-2.93-3.3zm20.31 1.262a3.549 3.549 0 0 0-2.13-3.364 3.631 3.631 0 0 0 1.73-3.083c.02-2.322-1.79-4-4.42-4a4.548 4.548 0 0 0-4.79 4.585h2.21a2.381 2.381 0 0 1 2.58-2.423 2.028 2.028 0 0 1 2.21 1.982 2.094 2.094 0 0 1-2.32 2.022h-1.12v1.882h1.12c1.63 0 2.72.761 2.72 2.263a2.264 2.264 0 0 1-2.53 2.182 2.721 2.721 0 0 1-2.94-2.5h-2.19a4.811 4.811 0 0 0 5.13 4.665c2.81-.007 4.74-1.709 4.74-4.211z"/><path d="M1293 658v-1.01h37V658h-37z" fill="#010000" fill-rule="evenodd"/></g><g id="X_copy_5" data-name="X copy 5"><path id="Rectangle_116_copy_2" data-name="Rectangle 116 copy 2" class="cls-1" d="M1330.01 58.336l-.94.929-13.69-13.565-14.44 14.3-.95-.938 14.44-14.3-13.96-13.832.94-.929 13.96 13.832 13.5-13.383.95.938-13.51 13.383z"/></g><g id="L_copy_5" data-name="L copy 5"><path id="Rectangle_116_copy" data-name="Rectangle 116 copy" d="M57.12 334.161l-27.338 27.578 26.874 27.11-.913.921-27.863-28.107.913-.922.066.067L56.2 333.23z" fill="#fff" fill-rule="evenodd"/></g><path id="Shop_Now" data-name="Shop Now" class="cls-1" d="M976.533 110.557a3.129 3.129 0 0 0 2.783 1.408 2.306 2.306 0 0 0 .77-4.544l-.792-.3c-.8-.3-1.188-.55-1.188-1.122a1.074 1.074 0 0 1 1.232-.9 1.894 1.894 0 0 1 1.486.726l.891-.869a3.007 3.007 0 0 0-2.366-1.067 2.227 2.227 0 0 0-.693 4.4l.858.309a1.321 1.321 0 0 1 1.112 1.188 1.1 1.1 0 0 1-1.266.968 2.126 2.126 0 0 1-1.815-1zm8.767 1.276h1.287v-3.355h3.862v3.355h1.287v-7.811h-1.287v3.234h-3.862v-3.234H985.3v7.811zm17.92-3.906a4.038 4.038 0 1 0-4.038 4.038 4.016 4.016 0 0 0 4.038-4.038zm-6.777 0a2.734 2.734 0 1 1 2.739 2.795 2.738 2.738 0 0 1-2.739-2.795zm12.647-3.905h-2.48v7.811h1.28v-2.706h1.2a2.557 2.557 0 1 0 0-5.105zm-.01 3.894h-1.19v-2.684h1.19a1.346 1.346 0 1 1 0 2.684zm17.01 3.917v-7.811h-1.3v5.6l-4.39-5.6h-1.12v7.811h1.29v-5.622l4.4 5.622h1.12zm11.47-3.906a4.035 4.035 0 1 0-4.04 4.038 4.017 4.017 0 0 0 4.04-4.038zm-6.78 0a2.736 2.736 0 1 1 2.74 2.795 2.739 2.739 0 0 1-2.74-2.795zm16.23 3.906h1.19l2.02-7.811h-1.36l-1.43 5.677-2.23-5.809-2.24 5.809-1.43-5.677h-1.35l2.01 7.811h1.19l1.82-4.775zm-70.829 2.567v-.989h76v.989h-76z"/></svg>