<svg id="copy_copy" data-name="copy copy" xmlns="http://www.w3.org/2000/svg" width="1360" height="723"><defs><style>.cls-1{fill-rule:evenodd}</style></defs><path id="We_partner_with_the_best_mills_on_earth_to_source_the_finest_ma" data-name="We partner with the best mills on earth to source the finest ma" class="cls-1" d="M50.74 601.146h1.328l3.1-11.361H53.62l-2.384 8.865-3.28-9.057-3.264 9.057-2.384-8.865h-1.553l3.1 11.361h1.328l2.784-7.713zm5.39-4a4.218 4.218 0 0 0 7.745 2.256l-1.088-.752a2.833 2.833 0 0 1-5.265-1.232h6.561A3.9 3.9 0 0 0 64.1 597a3.728 3.728 0 0 0-3.808-4.017 4.054 4.054 0 0 0-4.161 4.163zm4.113-2.945a2.394 2.394 0 0 1 2.448 2.1h-5.072a2.615 2.615 0 0 1 2.624-2.101zm10.511 10.29h1.376v-4.577a3.509 3.509 0 0 0 2.817 1.392 4.168 4.168 0 0 0 0-8.321 3.509 3.509 0 0 0-2.817 1.392v-1.232h-1.376v11.346zm6.7-7.345a2.726 2.726 0 1 1-2.72-2.9 2.732 2.732 0 0 1 2.725 2.9zm3.167 0a4 4 0 0 0 3.921 4.16 3.509 3.509 0 0 0 2.816-1.392v1.232h1.376v-8h-1.371v1.232a3.509 3.509 0 0 0-2.816-1.392 4 4 0 0 0-3.921 4.16zm6.849 0a2.733 2.733 0 1 1-2.72-2.9 2.732 2.732 0 0 1 2.725 2.9zm4.255 4h1.376v-3.968c0-1.872 1.1-2.753 2.112-2.753a2.011 2.011 0 0 1 .752.128v-1.424a2.851 2.851 0 0 0-.624-.064 2.381 2.381 0 0 0-2.24 1.632v-1.552H91.73v8zm10.593-.112V599.8a3.043 3.043 0 0 1-.977.16 1.152 1.152 0 0 1-1.328-1.36v-4.193h2.3v-1.264h-2.3v-2.224h-1.371v2.224h-1.7v1.264h1.7v4.369a2.252 2.252 0 0 0 2.448 2.448 3.835 3.835 0 0 0 1.233-.19zm2.159.112h1.376v-3.968c0-1.872 1.024-2.929 2.32-2.929a1.921 1.921 0 0 1 1.889 2.177v4.72h1.36v-4.928a2.949 2.949 0 0 0-3.025-3.233 2.829 2.829 0 0 0-2.544 1.392v-1.232h-1.376v8zm9.2-4a4.218 4.218 0 0 0 7.745 2.256l-1.088-.752a2.833 2.833 0 0 1-5.265-1.232h6.561a3.9 3.9 0 0 0 .016-.416 3.728 3.728 0 0 0-3.809-4.017 4.054 4.054 0 0 0-4.155 4.161zm4.112-2.945a2.4 2.4 0 0 1 2.449 2.1h-5.068a2.615 2.615 0 0 1 2.624-2.101zm6.211 6.945h1.376v-3.968c0-1.872 1.1-2.753 2.112-2.753a2.011 2.011 0 0 1 .752.128v-1.424a2.851 2.851 0 0 0-.624-.064 2.38 2.38 0 0 0-2.24 1.632v-1.552H124v8zm16.657 0h1.216l2.72-8h-1.456l-1.936 5.841-2-5.841h-1.056l-2 5.841-1.936-5.841h-1.44l2.72 8h1.216l1.984-5.76zm7.487-11.121a.966.966 0 0 0-.96-.976.994.994 0 0 0-.993.976.984.984 0 0 0 .993.976.956.956 0 0 0 .962-.976zm-1.665 11.121h1.377v-8h-1.377v8zm8.721-.112V599.8a3.041 3.041 0 0 1-.976.16 1.152 1.152 0 0 1-1.328-1.36v-4.193h2.3v-1.264h-2.3v-2.224h-1.377v2.224h-1.7v1.264h1.7v4.369a2.253 2.253 0 0 0 2.449 2.448 3.828 3.828 0 0 0 1.232-.19zm2.159.112h1.376v-3.968c0-1.872 1.025-2.929 2.321-2.929a1.921 1.921 0 0 1 1.888 2.177v4.72h1.36v-4.928a2.949 2.949 0 0 0-3.024-3.233 2.832 2.832 0 0 0-2.545 1.392v-5.232h-1.376v12zm18.193-.112V599.8a3.048 3.048 0 0 1-.977.16 1.152 1.152 0 0 1-1.328-1.36v-4.193h2.305v-1.264h-2.305v-2.224h-1.376v2.224h-1.7v1.264h1.7v4.369a2.252 2.252 0 0 0 2.448 2.448 3.84 3.84 0 0 0 1.235-.19zm2.159.112h1.376v-3.968c0-1.872 1.024-2.929 2.32-2.929a1.921 1.921 0 0 1 1.889 2.177v4.72h1.36v-4.928a2.949 2.949 0 0 0-3.025-3.233 2.829 2.829 0 0 0-2.544 1.392v-5.232h-1.376v12zm9.2-4a4.218 4.218 0 0 0 7.745 2.256l-1.088-.752a2.833 2.833 0 0 1-5.265-1.232h6.561a3.9 3.9 0 0 0 .016-.416 3.728 3.728 0 0 0-3.809-4.017 4.054 4.054 0 0 0-4.158 4.161zm4.112-2.945a2.4 2.4 0 0 1 2.449 2.1H188.4a2.615 2.615 0 0 1 2.625-2.101zm11.888 5.713a3.508 3.508 0 0 0 2.816 1.392 4.168 4.168 0 0 0 0-8.321 3.508 3.508 0 0 0-2.816 1.392v-5.232h-1.377v12h1.377v-1.232zm5.328-2.768a2.725 2.725 0 1 1-2.72-2.9 2.731 2.731 0 0 1 2.722 2.9zm3.151 0a4.218 4.218 0 0 0 7.745 2.256l-1.088-.752a2.833 2.833 0 0 1-5.265-1.232h6.561a3.9 3.9 0 0 0 .016-.416 3.728 3.728 0 0 0-3.808-4.017 4.054 4.054 0 0 0-4.159 4.161zm4.113-2.945a2.394 2.394 0 0 1 2.448 2.1h-5.071a2.616 2.616 0 0 1 2.625-2.101zm11.392 4.721c0-1.2-.752-1.968-2.112-2.416l-.865-.288c-.944-.3-1.232-.608-1.232-1.121a1.132 1.132 0 0 1 1.344-.928 2.162 2.162 0 0 1 1.7.832l.9-.864a3.1 3.1 0 0 0-2.561-1.152c-1.584 0-2.7.88-2.7 2.176a2.415 2.415 0 0 0 1.984 2.321l.784.256c1.041.336 1.425.72 1.425 1.28a1.218 1.218 0 0 1-1.409 1.088 2.147 2.147 0 0 1-2.048-1.264l-1.12.608a3.178 3.178 0 0 0 3.136 1.856c1.608 0 2.779-.816 2.779-2.384zm6.608 2.112V599.8a3.041 3.041 0 0 1-.976.16 1.152 1.152 0 0 1-1.329-1.36v-4.193h2.305v-1.264H231.2v-2.224h-1.376v2.224h-1.7v1.264h1.7v4.369a2.252 2.252 0 0 0 2.448 2.448 3.83 3.83 0 0 0 1.233-.19zm6.463.112h1.376v-3.968c0-1.808.912-2.929 2.208-2.929 1.04 0 1.569.9 1.569 2.193v4.7h1.381v-3.968c0-1.808.9-2.929 2.192-2.929 1.04 0 1.584.9 1.584 2.193v4.7h1.376v-4.912c0-1.953-1.056-3.249-2.8-3.249a2.769 2.769 0 0 0-2.624 1.712 2.515 2.515 0 0 0-2.465-1.712 2.689 2.689 0 0 0-2.416 1.392v-1.232h-1.376v8zm16.224-11.121a.966.966 0 0 0-.96-.976.994.994 0 0 0-.992.976.983.983 0 0 0 .992.976.956.956 0 0 0 .962-.976zm-1.664 11.121h1.374v-8h-1.376v8zm4.384 0h1.376v-12h-1.376v12zm4.384 0h1.376v-12h-1.37v12zm9.568-2.224c0-1.2-.752-1.968-2.112-2.416l-.864-.288c-.944-.3-1.232-.608-1.232-1.121a1.132 1.132 0 0 1 1.344-.928 2.161 2.161 0 0 1 1.7.832l.9-.864a3.1 3.1 0 0 0-2.56-1.152c-1.585 0-2.7.88-2.7 2.176a2.414 2.414 0 0 0 1.985 2.321l.784.256c1.04.336 1.424.72 1.424 1.28a1.218 1.218 0 0 1-1.408 1.088 2.148 2.148 0 0 1-2.049-1.264l-1.12.608a3.179 3.179 0 0 0 3.137 1.856c1.609 0 2.773-.816 2.773-2.384zm14.4-1.776a4.185 4.185 0 1 0-4.176 4.16 4.106 4.106 0 0 0 4.178-4.16zm-6.961 0a2.778 2.778 0 1 1 2.785 2.88 2.751 2.751 0 0 1-2.786-2.88zm9.328 4h1.376v-3.968c0-1.872 1.024-2.929 2.32-2.929a1.921 1.921 0 0 1 1.889 2.177v4.72h1.36v-4.928a2.949 2.949 0 0 0-3.025-3.233 2.829 2.829 0 0 0-2.544 1.392v-1.232h-1.376v8zm13.5-4a4.218 4.218 0 0 0 7.745 2.256l-1.088-.752a2.832 2.832 0 0 1-5.264-1.232h6.561a3.9 3.9 0 0 0 .017-.418 3.729 3.729 0 0 0-3.809-4.017 4.055 4.055 0 0 0-4.157 4.163zm4.113-2.945a2.394 2.394 0 0 1 2.448 2.1h-5.072a2.615 2.615 0 0 1 2.629-2.101zm5.583 2.945a4 4 0 0 0 3.921 4.16 3.508 3.508 0 0 0 2.816-1.392v1.232h1.376v-8h-1.376v1.232a3.508 3.508 0 0 0-2.816-1.392 4 4 0 0 0-3.916 4.16zm6.849 0a2.733 2.733 0 1 1-2.72-2.9 2.731 2.731 0 0 1 2.725 2.9zm4.255 4h1.376v-3.968c0-1.872 1.105-2.753 2.113-2.753a2.011 2.011 0 0 1 .752.128v-1.424a2.851 2.851 0 0 0-.624-.064 2.381 2.381 0 0 0-2.241 1.632v-1.552h-1.376v8zm10.593-.112V599.8a3.041 3.041 0 0 1-.976.16 1.152 1.152 0 0 1-1.329-1.36v-4.193h2.305v-1.264h-2.305v-2.224h-1.376v2.224h-1.7v1.264h1.7v4.369a2.252 2.252 0 0 0 2.449 2.448 3.828 3.828 0 0 0 1.237-.19zm2.159.112h1.376v-3.968c0-1.872 1.024-2.929 2.321-2.929a1.921 1.921 0 0 1 1.888 2.177v4.72h1.36v-4.928a2.949 2.949 0 0 0-3.024-3.233 2.829 2.829 0 0 0-2.545 1.392v-5.232h-1.376v12zm18.192-.112V599.8a3.041 3.041 0 0 1-.976.16 1.152 1.152 0 0 1-1.328-1.36v-4.193h2.3v-1.264h-2.3v-2.224H351.2v2.224h-1.7v1.264h1.7v4.369a2.252 2.252 0 0 0 2.448 2.448 3.828 3.828 0 0 0 1.23-.19zm9.777-3.888a4.185 4.185 0 1 0-4.177 4.16 4.106 4.106 0 0 0 4.182-4.16zm-6.961 0a2.778 2.778 0 1 1 2.784 2.88 2.751 2.751 0 0 1-2.779-2.88zm18.816 1.776c0-1.2-.752-1.968-2.112-2.416l-.864-.288c-.944-.3-1.232-.608-1.232-1.121a1.132 1.132 0 0 1 1.344-.928 2.161 2.161 0 0 1 1.7.832l.9-.864a3.1 3.1 0 0 0-2.56-1.152c-1.584 0-2.7.88-2.7 2.176a2.416 2.416 0 0 0 1.985 2.321l.784.256c1.04.336 1.424.72 1.424 1.28a1.218 1.218 0 0 1-1.408 1.088 2.147 2.147 0 0 1-2.048-1.264l-1.121.608a3.18 3.18 0 0 0 3.137 1.856c1.608 0 2.776-.816 2.776-2.384zm10.1-1.776a4.185 4.185 0 1 0-4.176 4.16 4.106 4.106 0 0 0 4.177-4.16zm-6.961 0a2.778 2.778 0 1 1 2.785 2.88 2.751 2.751 0 0 1-2.784-2.88zm9.216.912c0 1.984 1.184 3.248 2.945 3.248a2.752 2.752 0 0 0 2.464-1.392v1.232h1.376v-8h-1.375v3.969c0 1.84-.976 2.928-2.224 2.928-1.105 0-1.809-.848-1.809-2.192v-4.705h-1.376v4.913zm9.776 3.088h1.376v-3.968c0-1.872 1.1-2.753 2.113-2.753a2.011 2.011 0 0 1 .752.128v-1.424a2.851 2.851 0 0 0-.624-.064 2.38 2.38 0 0 0-2.241 1.632v-1.552h-1.376v8zm13.233-1.984l-1.2-.672a2.712 2.712 0 0 1-2.5 1.536 2.882 2.882 0 0 1 0-5.761 2.711 2.711 0 0 1 2.5 1.537l1.2-.673a4.143 4.143 0 0 0-3.7-2.144 4.161 4.161 0 1 0 0 8.321 4.143 4.143 0 0 0 3.701-2.144zm1.551-2.016a4.218 4.218 0 0 0 7.745 2.256l-1.088-.752a2.833 2.833 0 0 1-5.265-1.232h6.561a3.9 3.9 0 0 0 .017-.418 3.728 3.728 0 0 0-3.809-4.017 4.054 4.054 0 0 0-4.16 4.163zm4.112-2.945a2.394 2.394 0 0 1 2.449 2.1h-5.073a2.615 2.615 0 0 1 2.625-2.101zm14.576 6.833V599.8a3.041 3.041 0 0 1-.976.16 1.152 1.152 0 0 1-1.328-1.36v-4.193h2.3v-1.264h-2.3v-2.224h-1.376v2.224h-1.7v1.264h1.7v4.369a2.252 2.252 0 0 0 2.448 2.448 3.828 3.828 0 0 0 1.233-.19zm2.16.112h1.376v-3.968c0-1.872 1.024-2.929 2.32-2.929a1.921 1.921 0 0 1 1.888 2.177v4.72h1.361v-4.928a2.949 2.949 0 0 0-3.025-3.233 2.829 2.829 0 0 0-2.544 1.392v-5.232h-1.376v12zm9.2-4a4.218 4.218 0 0 0 7.745 2.256l-1.088-.752a2.832 2.832 0 0 1-5.264-1.232h6.561a3.9 3.9 0 0 0 .016-.416 3.729 3.729 0 0 0-3.809-4.017 4.055 4.055 0 0 0-4.161 4.161zm4.113-2.945a2.394 2.394 0 0 1 2.448 2.1h-5.072a2.615 2.615 0 0 1 2.624-2.101zm10.976 6.945h1.376v-6.737h2.32v-1.264h-2.32v-1.472a1.152 1.152 0 0 1 1.328-1.36 3.222 3.222 0 0 1 .992.16v-1.216a3.636 3.636 0 0 0-1.248-.208 2.285 2.285 0 0 0-2.448 2.48v1.616h-1.7v1.264h1.7v6.737zm6.865-11.121a.967.967 0 0 0-.961-.976.994.994 0 0 0-.992.976.983.983 0 0 0 .992.976.957.957 0 0 0 .961-.976zm-1.665 11.121h1.376v-8h-1.376v8zm4.367 0h1.376v-3.968c0-1.872 1.025-2.929 2.321-2.929a1.921 1.921 0 0 1 1.888 2.177v4.72h1.36v-4.928a2.949 2.949 0 0 0-3.024-3.233 2.832 2.832 0 0 0-2.545 1.392v-1.232h-1.376v8zm9.2-4a4.218 4.218 0 0 0 7.745 2.256l-1.088-.752a2.833 2.833 0 0 1-5.265-1.232h6.561a3.9 3.9 0 0 0 .016-.416 3.728 3.728 0 0 0-3.808-4.017 4.054 4.054 0 0 0-4.161 4.161zm4.113-2.945a2.394 2.394 0 0 1 2.448 2.1h-5.073a2.616 2.616 0 0 1 2.625-2.101zm11.392 4.721c0-1.2-.752-1.968-2.113-2.416l-.864-.288c-.944-.3-1.232-.608-1.232-1.121a1.132 1.132 0 0 1 1.344-.928 2.165 2.165 0 0 1 1.7.832l.9-.864a3.1 3.1 0 0 0-2.564-1.152c-1.584 0-2.7.88-2.7 2.176a2.415 2.415 0 0 0 1.984 2.321l.784.256c1.04.336 1.425.72 1.425 1.28a1.219 1.219 0 0 1-1.409 1.088 2.147 2.147 0 0 1-2.048-1.264l-1.12.608a3.178 3.178 0 0 0 3.136 1.856c1.609 0 2.777-.816 2.777-2.384zm6.608 2.112V599.8a3.052 3.052 0 0 1-.977.16 1.152 1.152 0 0 1-1.328-1.36v-4.193h2.305v-1.264h-2.305v-2.224h-1.376v2.224h-1.7v1.264h1.7v4.369a2.252 2.252 0 0 0 2.448 2.448 3.84 3.84 0 0 0 1.233-.19zm6.463.112h1.376v-3.968c0-1.808.912-2.929 2.208-2.929 1.04 0 1.568.9 1.568 2.193v4.7h1.377v-3.968c0-1.808.9-2.929 2.192-2.929 1.04 0 1.584.9 1.584 2.193v4.7h1.376v-4.912c0-1.953-1.056-3.249-2.8-3.249a2.769 2.769 0 0 0-2.624 1.712 2.516 2.516 0 0 0-2.465-1.712 2.689 2.689 0 0 0-2.416 1.392v-1.232H505.9v8zm13.935-4a4 4 0 0 0 3.921 4.16 3.508 3.508 0 0 0 2.816-1.392v1.232h1.377v-8h-1.377v1.232a3.508 3.508 0 0 0-2.816-1.392 4 4 0 0 0-3.921 4.16zm6.849 0a2.733 2.733 0 1 1-2.72-2.9 2.731 2.731 0 0 1 2.72 2.9zm8.592 3.888V599.8a3.041 3.041 0 0 1-.976.16 1.152 1.152 0 0 1-1.328-1.36v-4.193h2.3v-1.264h-2.3v-2.224H531.6v2.224h-1.7v1.264h1.7v4.369a2.253 2.253 0 0 0 2.449 2.448 3.828 3.828 0 0 0 1.227-.19zm1.423-3.888a4.219 4.219 0 0 0 7.746 2.256l-1.089-.752a2.832 2.832 0 0 1-5.264-1.232h6.561a3.9 3.9 0 0 0 .016-.416 3.729 3.729 0 0 0-3.809-4.017 4.055 4.055 0 0 0-4.16 4.161zm4.113-2.945a2.394 2.394 0 0 1 2.448 2.1h-5.072a2.615 2.615 0 0 1 2.624-2.101zm6.207 6.945h1.381v-3.968c0-1.872 1.1-2.753 2.112-2.753a2.011 2.011 0 0 1 .752.128v-1.424a2.851 2.851 0 0 0-.624-.064 2.38 2.38 0 0 0-2.24 1.632v-1.552h-1.377v8zm7.921-11.121a.966.966 0 0 0-.96-.976.994.994 0 0 0-.993.976.984.984 0 0 0 .993.976.956.956 0 0 0 .96-.976zm-1.665 11.121h1.377v-8h-1.377v8zm3.76-4a4 4 0 0 0 3.921 4.16 3.508 3.508 0 0 0 2.816-1.392v1.232h1.376v-8h-1.376v1.232a3.508 3.508 0 0 0-2.816-1.392 4 4 0 0 0-3.921 4.16zm6.849 0a2.733 2.733 0 1 1-2.72-2.9 2.731 2.731 0 0 1 2.72 2.9zm4.255 4h1.376v-12h-1.376v12zm9.569-2.224c0-1.2-.752-1.968-2.112-2.416l-.865-.288c-.944-.3-1.232-.608-1.232-1.121a1.132 1.132 0 0 1 1.344-.928 2.162 2.162 0 0 1 1.7.832l.9-.864a3.1 3.1 0 0 0-2.561-1.152c-1.584 0-2.7.88-2.7 2.176a2.415 2.415 0 0 0 1.984 2.321l.784.256c1.041.336 1.425.72 1.425 1.28a1.218 1.218 0 0 1-1.409 1.088 2.147 2.147 0 0 1-2.048-1.264l-1.12.608a3.178 3.178 0 0 0 3.136 1.856c1.606 0 2.774-.816 2.774-2.384zm2.111-1.568h8.081v-1.376h-8.081v1.376zm12.192 2.56a3.508 3.508 0 0 0 2.816 1.392 4.168 4.168 0 0 0 0-8.321 3.508 3.508 0 0 0-2.816 1.392v-5.232h-1.376v12h1.376v-1.232zm5.329-2.768a2.726 2.726 0 1 1-2.721-2.9 2.732 2.732 0 0 1 2.721 2.9zm3.775 4h1.376v-12h-1.376v12zm3.759-4a4.219 4.219 0 0 0 7.746 2.256l-1.089-.752a2.832 2.832 0 0 1-5.264-1.232h6.561a3.9 3.9 0 0 0 .016-.416 3.729 3.729 0 0 0-3.809-4.017 4.055 4.055 0 0 0-4.161 4.161zm4.113-2.945a2.394 2.394 0 0 1 2.448 2.1h-5.072a2.615 2.615 0 0 1 2.624-2.101zm6.208 6.945h1.376v-3.968c0-1.872 1.024-2.929 2.32-2.929a1.921 1.921 0 0 1 1.888 2.177v4.72h1.361v-4.928a2.949 2.949 0 0 0-3.025-3.233 2.829 2.829 0 0 0-2.544 1.392v-1.232H615.2v8zm9.2-4a4 4 0 0 0 3.921 4.16 3.508 3.508 0 0 0 2.816-1.392v1.232h1.376v-12h-1.376v5.232a3.508 3.508 0 0 0-2.816-1.392 4 4 0 0 0-3.922 4.16zm6.849 0a2.733 2.733 0 1 1-2.72-2.9 2.731 2.731 0 0 1 2.719 2.9zm5.919-7.121a.966.966 0 0 0-.96-.976.994.994 0 0 0-.992.976.983.983 0 0 0 .992.976.956.956 0 0 0 .959-.976zm-1.663 11.121h1.376v-8H635.5v8zm4.384 0h1.376v-3.968c0-1.872 1.024-2.929 2.321-2.929a1.921 1.921 0 0 1 1.888 2.177v4.72h1.36v-4.928a2.949 2.949 0 0 0-3.024-3.233 2.831 2.831 0 0 0-2.545 1.392v-1.232h-1.376v8zm17.281-.464v-7.537h-1.376v1.232a3.4 3.4 0 0 0-2.789-1.392 4.076 4.076 0 0 0 0 8.145 3.417 3.417 0 0 0 2.785-1.408v.912a2.558 2.558 0 0 1-2.673 2.769 3.42 3.42 0 0 1-2.8-1.345l-.96.961a4.749 4.749 0 0 0 3.776 1.632 3.7 3.7 0 0 0 4.035-3.969zm-6.673-3.632a2.706 2.706 0 1 1 2.7 2.8 2.667 2.667 0 0 1-2.702-2.8zm13.967 4.1h1.377v-3.968c0-1.872 1.024-2.929 2.32-2.929a1.921 1.921 0 0 1 1.888 2.177v4.72h1.356v-4.928a2.949 2.949 0 0 0-3.025-3.233 2.829 2.829 0 0 0-2.544 1.392v-1.232h-1.377v8zm9.2-4a4 4 0 0 0 3.921 4.16 3.508 3.508 0 0 0 2.816-1.392v1.232h1.376v-8h-1.376v1.232a3.508 3.508 0 0 0-2.816-1.392 4 4 0 0 0-3.923 4.156zm6.849 0a2.733 2.733 0 1 1-2.72-2.9 2.731 2.731 0 0 1 2.718 2.896zm8.592 3.888V599.8a3.041 3.041 0 0 1-.976.16 1.152 1.152 0 0 1-1.328-1.36v-4.193h2.3v-1.264h-2.3v-2.224h-1.377v2.224h-1.7v1.264h1.7v4.369a2.252 2.252 0 0 0 2.449 2.448 3.828 3.828 0 0 0 1.232-.19zm2.047-2.976c0 1.984 1.184 3.248 2.945 3.248a2.752 2.752 0 0 0 2.464-1.392v1.232h1.376v-8h-1.376v3.969c0 1.84-.976 2.928-2.224 2.928-1.105 0-1.809-.848-1.809-2.192v-4.705h-1.376v4.913zm9.776 3.088h1.377v-3.968c0-1.872 1.1-2.753 2.113-2.753a2.011 2.011 0 0 1 .752.128v-1.424a2.851 2.851 0 0 0-.624-.064 2.38 2.38 0 0 0-2.241 1.631v-1.552h-1.376v8zm5.36-4a4 4 0 0 0 3.921 4.16 3.508 3.508 0 0 0 2.816-1.392v1.232h1.376v-8h-1.376v1.232a3.508 3.508 0 0 0-2.816-1.392 4 4 0 0 0-3.923 4.156zm6.849 0a2.733 2.733 0 1 1-2.72-2.9 2.731 2.731 0 0 1 2.718 2.896zm4.255 4h1.376v-12h-1.376v12zm9.152 0h1.376v-6.737h2.321v-1.264h-2.321v-1.472a1.152 1.152 0 0 1 1.328-1.36 3.233 3.233 0 0 1 .993.16v-1.216a3.646 3.646 0 0 0-1.249-.208 2.285 2.285 0 0 0-2.448 2.48v1.616h-1.7v1.264h1.7v6.737zm6.865-11.121a.966.966 0 0 0-.96-.976.994.994 0 0 0-.992.976.983.983 0 0 0 .992.976.956.956 0 0 0 .956-.98zm-1.664 11.121h1.376v-8h-1.376v8zm5.743-1.232a3.508 3.508 0 0 0 2.816 1.392 4.168 4.168 0 0 0 0-8.321 3.508 3.508 0 0 0-2.816 1.392v-5.232h-1.376v12h1.376v-1.232zm5.329-2.768a2.726 2.726 0 1 1-2.721-2.9 2.732 2.732 0 0 1 2.719 2.896zm3.151 0a4.218 4.218 0 0 0 7.745 2.256l-1.088-.752a2.833 2.833 0 0 1-5.265-1.232h6.561a3.9 3.9 0 0 0 .014-.422 3.729 3.729 0 0 0-3.809-4.017 4.054 4.054 0 0 0-4.16 4.163zm4.112-2.945a2.4 2.4 0 0 1 2.449 2.1h-5.073a2.615 2.615 0 0 1 2.622-2.105zm6.208 6.945h1.376v-3.968c0-1.872 1.1-2.753 2.112-2.753a2.011 2.011 0 0 1 .752.128v-1.424a2.851 2.851 0 0 0-.624-.064 2.38 2.38 0 0 0-2.24 1.632v-1.552h-1.376v8zm11.3-2.224c0-1.2-.752-1.968-2.112-2.416l-.864-.288c-.944-.3-1.232-.608-1.232-1.121a1.132 1.132 0 0 1 1.344-.928 2.161 2.161 0 0 1 1.7.832l.9-.864a3.1 3.1 0 0 0-2.56-1.152c-1.584 0-2.7.88-2.7 2.176a2.415 2.415 0 0 0 1.984 2.321l.784.256c1.04.336 1.424.72 1.424 1.28a1.218 1.218 0 0 1-1.408 1.088 2.147 2.147 0 0 1-2.048-1.264l-1.12.608a3.178 3.178 0 0 0 3.136 1.856c1.598-.004 2.766-.82 2.766-2.388zm13.169 2.224h1.216l2.72-8h-1.456l-1.936 5.841-2-5.841h-1.056l-2 5.841-1.936-5.841h-1.441l2.721 8h1.216l1.984-5.76zm7.487-11.121a.966.966 0 0 0-.961-.976.994.994 0 0 0-.992.976.983.983 0 0 0 .992.976.957.957 0 0 0 .955-.98zm-1.665 11.121h1.377v-8h-1.377v8zm8.721-.112V599.8a3.041 3.041 0 0 1-.976.16 1.152 1.152 0 0 1-1.328-1.36v-4.193h2.3v-1.264h-2.3v-2.224h-1.377v2.224h-1.7v1.264h1.7v4.369a2.252 2.252 0 0 0 2.449 2.448 3.828 3.828 0 0 0 1.226-.19zm2.159.112h1.376v-3.968c0-1.872 1.025-2.929 2.321-2.929a1.921 1.921 0 0 1 1.888 2.177v4.72h1.36v-4.928a2.949 2.949 0 0 0-3.024-3.233 2.831 2.831 0 0 0-2.545 1.392v-5.232h-1.376v12zm18.193-.112V599.8a3.052 3.052 0 0 1-.977.16 1.152 1.152 0 0 1-1.328-1.36v-4.193h2.3v-1.264h-2.3v-2.224h-1.382v2.224h-1.7v1.264h1.7v4.369a2.252 2.252 0 0 0 2.448 2.448 3.84 3.84 0 0 0 1.233-.19zm2.159.112h1.376v-3.968c0-1.872 1.024-2.929 2.32-2.929a1.921 1.921 0 0 1 1.889 2.177v4.72h1.36v-4.928a2.949 2.949 0 0 0-3.025-3.233 2.829 2.829 0 0 0-2.544 1.392v-5.232H817.8v12zm9.2-4a4.218 4.218 0 0 0 7.745 2.256l-1.088-.752a2.833 2.833 0 0 1-5.265-1.232h6.561a3.9 3.9 0 0 0 .016-.416 3.729 3.729 0 0 0-3.809-4.017 4.054 4.054 0 0 0-4.166 4.157zm4.112-2.945a2.4 2.4 0 0 1 2.449 2.1h-5.073a2.615 2.615 0 0 1 2.618-2.105zm10.511 6.945H843v-12h-1.377v12zm3.76-4a4 4 0 0 0 3.921 4.16 3.508 3.508 0 0 0 2.816-1.392v1.232h1.374v-8h-1.38v1.232a3.508 3.508 0 0 0-2.816-1.392 4 4 0 0 0-3.921 4.156zm6.849 0a2.733 2.733 0 1 1-2.72-2.9 2.731 2.731 0 0 1 2.714 2.896zm8.592 3.888V599.8a3.041 3.041 0 0 1-.976.16 1.153 1.153 0 0 1-1.329-1.36v-4.193h2.3v-1.264h-2.3v-2.224h-1.376v2.224h-1.7v1.264h1.7v4.369a2.252 2.252 0 0 0 2.449 2.448 3.828 3.828 0 0 0 1.226-.19zm1.423-3.888a4.218 4.218 0 0 0 7.745 2.256l-1.088-.752a2.833 2.833 0 0 1-5.265-1.232h6.555a3.9 3.9 0 0 0 .016-.416 3.728 3.728 0 0 0-3.808-4.017 4.054 4.054 0 0 0-4.161 4.157zm4.113-2.945a2.394 2.394 0 0 1 2.448 2.1h-5.073a2.616 2.616 0 0 1 2.619-2.105zm11.392 4.721c0-1.2-.752-1.968-2.112-2.416l-.864-.288c-.945-.3-1.233-.608-1.233-1.121a1.133 1.133 0 0 1 1.345-.928 2.161 2.161 0 0 1 1.7.832l.9-.864a3.1 3.1 0 0 0-2.56-1.152c-1.585 0-2.7.88-2.7 2.176a2.415 2.415 0 0 0 1.984 2.321l.785.256c1.04.336 1.424.72 1.424 1.28a1.218 1.218 0 0 1-1.427 1.084 2.147 2.147 0 0 1-2.049-1.264l-1.12.608a3.178 3.178 0 0 0 3.137 1.856c1.616 0 2.784-.816 2.784-2.384zm6.608 2.112V599.8a3.041 3.041 0 0 1-.976.16 1.152 1.152 0 0 1-1.329-1.36v-4.193h2.305v-1.264h-2.305v-2.224h-1.376v2.224h-1.7v1.264h1.7v4.369a2.252 2.252 0 0 0 2.449 2.448 3.828 3.828 0 0 0 1.226-.19zm8.127-11.009a.966.966 0 0 0-.96-.976.994.994 0 0 0-.992.976.983.983 0 0 0 .992.976.956.956 0 0 0 .954-.98zm-1.664 11.121h1.371v-8h-1.376v8zm4.384 0h1.376v-3.968c0-1.872 1.024-2.929 2.32-2.929a1.921 1.921 0 0 1 1.889 2.177v4.72h1.36v-4.928a2.949 2.949 0 0 0-3.025-3.233 2.829 2.829 0 0 0-2.544 1.392v-1.232h-1.376v8zm9.824 0h1.376v-3.968c0-1.872 1.024-2.929 2.32-2.929a1.921 1.921 0 0 1 1.888 2.177v4.72h1.361v-4.928a2.949 2.949 0 0 0-3.025-3.233 2.829 2.829 0 0 0-2.544 1.392v-1.232h-1.376v8zm17.553-4a4.185 4.185 0 1 0-4.177 4.16 4.107 4.107 0 0 0 4.171-4.164zm-6.961 0a2.778 2.778 0 1 1 2.784 2.88 2.751 2.751 0 0 1-2.79-2.884zm11.648 4h1.152l3.7-8h-1.537l-2.736 6.049-2.736-6.049h-1.537zm5.855-4a4 4 0 0 0 3.921 4.16 3.508 3.508 0 0 0 2.816-1.392v1.232h1.377v-8h-1.377v1.232a3.508 3.508 0 0 0-2.816-1.392 4 4 0 0 0-3.927 4.156zm6.849 0a2.733 2.733 0 1 1-2.72-2.9 2.731 2.731 0 0 1 2.714 2.896zm8.592 3.888V599.8a3.041 3.041 0 0 1-.976.16 1.152 1.152 0 0 1-1.328-1.36v-4.193h2.3v-1.264h-2.3v-2.224h-1.377v2.224h-1.7v1.264h1.7v4.369a2.253 2.253 0 0 0 2.449 2.448 3.828 3.828 0 0 0 1.226-.19zm3.824-11.009a.967.967 0 0 0-.961-.976.994.994 0 0 0-.992.976.983.983 0 0 0 .992.976.957.957 0 0 0 .955-.98zm-1.665 11.121h1.368v-8h-1.376v8zm12.113-4a4.185 4.185 0 1 0-4.176 4.16 4.106 4.106 0 0 0 4.17-4.164zm-6.961 0a2.778 2.778 0 1 1 2.785 2.88 2.751 2.751 0 0 1-2.791-2.884zm9.328 4h1.376v-3.968c0-1.872 1.024-2.929 2.32-2.929a1.921 1.921 0 0 1 1.889 2.177v4.72h1.36v-4.928a2.949 2.949 0 0 0-3.024-3.233 2.829 2.829 0 0 0-2.545 1.392v-1.232h-1.376v8zm11.728-1.072a1.184 1.184 0 1 0-1.184 1.2 1.205 1.205 0 0 0 1.178-1.204zM41.891 625.146h4.065c2.3 0 3.809-1.424 3.809-3.312a2.709 2.709 0 0 0-1.968-2.721 2.575 2.575 0 0 0 1.216-2.32 3.111 3.111 0 0 0-3.392-3.008h-3.73v11.361zm1.488-6.481v-3.536h2.24a1.786 1.786 0 0 1 1.936 1.776 1.749 1.749 0 0 1-1.936 1.76h-2.24zm0 5.137v-3.856h2.656c1.5 0 2.272.832 2.272 1.936 0 1.12-.768 1.92-2.288 1.92h-2.64zm8.144-2.656a4 4 0 0 0 3.921 4.16 3.509 3.509 0 0 0 2.816-1.392v1.232h1.376v-8H58.26v1.232a3.509 3.509 0 0 0-2.816-1.392 4 4 0 0 0-3.921 4.16zm6.849 0a2.733 2.733 0 1 1-2.72-2.9 2.732 2.732 0 0 1 2.72 2.9zm4.255 4H64v-3.968c0-1.873 1.024-2.929 2.32-2.929a1.921 1.921 0 0 1 1.888 2.177v4.72h1.36v-4.928a2.949 2.949 0 0 0-3.024-3.233A2.83 2.83 0 0 0 64 618.377v-1.232h-1.374v8zm9.2-4a4 4 0 0 0 3.921 4.16 3.509 3.509 0 0 0 2.816-1.392v1.232h1.376v-8h-1.377v1.232a3.509 3.509 0 0 0-2.816-1.392 4 4 0 0 0-3.921 4.16zm6.849 0a2.733 2.733 0 1 1-2.72-2.9 2.732 2.732 0 0 1 2.719 2.9zm4.255 4h1.376v-3.968c0-1.873 1.024-2.929 2.32-2.929a1.921 1.921 0 0 1 1.888 2.177v4.72h1.36v-4.928a2.949 2.949 0 0 0-3.024-3.233 2.829 2.829 0 0 0-2.544 1.392v-1.232H82.93v8zm9.2-4a4 4 0 0 0 3.92 4.16 3.509 3.509 0 0 0 2.816-1.392v1.232h1.376v-8h-1.376v1.232a3.509 3.509 0 0 0-2.816-1.392 4 4 0 0 0-3.921 4.16zm6.849 0a2.733 2.733 0 1 1-2.72-2.9 2.732 2.732 0 0 1 2.719 2.9zm8.767 4h1.488v-5.168h1.1l4.369 5.168h1.872l-4.369-5.184a2.965 2.965 0 0 0 2.8-3.041 3.065 3.065 0 0 0-3.393-3.136h-3.872v11.361zm1.488-6.5v-3.488h2.208c1.3 0 2.08.608 2.08 1.76 0 1.136-.784 1.728-2.08 1.728h-2.208zm8 2.5a4.219 4.219 0 0 0 7.746 2.256l-1.089-.752a2.832 2.832 0 0 1-5.264-1.232h6.561a3.9 3.9 0 0 0 .011-.418 3.729 3.729 0 0 0-3.809-4.017 4.055 4.055 0 0 0-4.158 4.163zm4.113-2.945a2.394 2.394 0 0 1 2.448 2.1h-5.072a2.615 2.615 0 0 1 2.622-2.101zm6.207 10.29h1.377v-4.577a3.508 3.508 0 0 0 2.816 1.392 4.168 4.168 0 0 0 0-8.321 3.508 3.508 0 0 0-2.816 1.392v-1.232h-1.377v11.346zm6.705-7.345a2.725 2.725 0 1 1-2.72-2.9 2.731 2.731 0 0 1 2.718 2.9zm3.679.912a2.921 2.921 0 0 0 2.945 3.248 2.752 2.752 0 0 0 2.464-1.392v1.232h1.376v-8h-1.376v3.969c0 1.84-.976 2.928-2.224 2.928-1.1 0-1.808-.848-1.808-2.192v-4.705h-1.377v4.913zm11.152 1.856a3.512 3.512 0 0 0 2.817 1.392 4.168 4.168 0 0 0 0-8.321 3.512 3.512 0 0 0-2.817 1.392v-5.232h-1.376v12h1.376v-1.232zm5.329-2.768a2.726 2.726 0 1 1-2.72-2.9 2.731 2.731 0 0 1 2.718 2.9zm3.775 4h1.376v-12h-1.376v12zm6.048-11.121a.966.966 0 0 0-.96-.976.994.994 0 0 0-.992.976.983.983 0 0 0 .992.976.956.956 0 0 0 .958-.976zm-1.664 11.121h1.376v-8h-1.376v8zm11.649-1.984l-1.2-.672a2.712 2.712 0 0 1-2.5 1.536 2.882 2.882 0 0 1 0-5.761 2.711 2.711 0 0 1 2.5 1.537l1.2-.673a4.143 4.143 0 0 0-3.7-2.144 4.161 4.161 0 1 0 0 8.321 4.143 4.143 0 0 0 3.698-2.144zm8.143-9.137a.966.966 0 0 0-.96-.976.994.994 0 0 0-.993.976.984.984 0 0 0 .993.976.956.956 0 0 0 .958-.976zm-1.671 11.121h1.377v-8H180.7v8zm9.569-2.224c0-1.2-.752-1.968-2.112-2.416l-.864-.288c-.945-.3-1.233-.608-1.233-1.121a1.133 1.133 0 0 1 1.345-.928 2.161 2.161 0 0 1 1.7.832l.9-.864a3.1 3.1 0 0 0-2.56-1.152c-1.585 0-2.705.88-2.705 2.176a2.414 2.414 0 0 0 1.985 2.321l.784.256c1.04.336 1.424.72 1.424 1.28a1.218 1.218 0 0 1-1.408 1.088 2.148 2.148 0 0 1-2.049-1.264l-1.12.608a3.178 3.178 0 0 0 3.137 1.856c1.612 0 2.78-.816 2.78-2.384zm6.047-1.776a4 4 0 0 0 3.92 4.16 3.509 3.509 0 0 0 2.817-1.392v1.232h1.376v-12h-1.376v5.232a3.509 3.509 0 0 0-2.817-1.392 4 4 0 0 0-3.916 4.16zm6.849 0a2.733 2.733 0 1 1-2.721-2.9 2.732 2.732 0 0 1 2.725 2.9zm3.631 0a4.218 4.218 0 0 0 7.745 2.256l-1.088-.752a2.833 2.833 0 0 1-5.265-1.232h6.561a3.9 3.9 0 0 0 .016-.416 3.728 3.728 0 0 0-3.809-4.017 4.054 4.054 0 0 0-4.156 4.161zm4.112-2.945a2.4 2.4 0 0 1 2.449 2.1h-5.073a2.615 2.615 0 0 1 2.628-2.101zm11.392 4.721c0-1.2-.752-1.968-2.112-2.416l-.864-.288c-.944-.3-1.232-.608-1.232-1.121a1.132 1.132 0 0 1 1.344-.928 2.161 2.161 0 0 1 1.7.832l.9-.864a3.1 3.1 0 0 0-2.56-1.152c-1.584 0-2.7.88-2.7 2.176a2.415 2.415 0 0 0 1.984 2.321l.784.256c1.04.336 1.424.72 1.424 1.28a1.218 1.218 0 0 1-1.408 1.088 2.147 2.147 0 0 1-2.048-1.264l-1.12.608a3.178 3.178 0 0 0 3.136 1.856c1.608 0 2.772-.816 2.772-2.384zm4.032-8.9a.966.966 0 0 0-.96-.976.994.994 0 0 0-.992.976.983.983 0 0 0 .992.976.956.956 0 0 0 .964-.973zm-1.664 11.121h1.376v-8h-1.376v8zm11.841-.464v-7.537h-1.377v1.232a3.4 3.4 0 0 0-2.784-1.392 4.076 4.076 0 0 0 0 8.145 3.416 3.416 0 0 0 2.784-1.408v.912a2.558 2.558 0 0 1-2.672 2.769 3.42 3.42 0 0 1-2.8-1.345l-.961.961a4.752 4.752 0 0 0 3.777 1.632 3.7 3.7 0 0 0 4.037-3.966zm-6.673-3.632a2.706 2.706 0 1 1 2.7 2.8 2.667 2.667 0 0 1-2.696-2.797zm9.663 4.1h1.376v-3.968c0-1.873 1.025-2.929 2.321-2.929a1.921 1.921 0 0 1 1.888 2.177v4.72h1.36v-4.928a2.949 2.949 0 0 0-3.024-3.233 2.832 2.832 0 0 0-2.545 1.392v-1.232H239.5v8zm9.2-4a4.218 4.218 0 0 0 7.745 2.256l-1.088-.752a2.833 2.833 0 0 1-5.265-1.232h6.561a3.9 3.9 0 0 0 .016-.416 3.728 3.728 0 0 0-3.808-4.017 4.054 4.054 0 0 0-4.16 4.16zm4.113-2.945a2.394 2.394 0 0 1 2.448 2.1h-5.073a2.616 2.616 0 0 1 2.629-2.102zm5.583 2.945a4 4 0 0 0 3.92 4.16 3.509 3.509 0 0 0 2.817-1.392v1.232h1.376v-12h-1.376v5.232a3.509 3.509 0 0 0-2.817-1.392 4 4 0 0 0-3.915 4.159zm6.849 0a2.733 2.733 0 1 1-2.72-2.9 2.731 2.731 0 0 1 2.724 2.899zm10.223-7.121a.966.966 0 0 0-.96-.976.994.994 0 0 0-.992.976.983.983 0 0 0 .992.976.956.956 0 0 0 .964-.977zm-1.664 11.121h1.376v-8h-1.376v8zm4.384 0h1.376v-3.968c0-1.873 1.024-2.929 2.32-2.929a1.921 1.921 0 0 1 1.888 2.177v4.72h1.361v-4.928a2.949 2.949 0 0 0-3.025-3.233 2.829 2.829 0 0 0-2.544 1.392v-1.232h-1.376v8zm13.551-5.68a5.905 5.905 0 0 0 10.9 3.12l-1.249-.752a4.465 4.465 0 1 1 0-4.737l1.249-.752a5.905 5.905 0 0 0-10.896 3.12zm12.432 1.68a4 4 0 0 0 3.92 4.16 3.509 3.509 0 0 0 2.817-1.392v1.232h1.376v-8h-1.376v1.232a3.509 3.509 0 0 0-2.817-1.392 4 4 0 0 0-3.916 4.159zm6.849 0a2.733 2.733 0 1 1-2.72-2.9 2.731 2.731 0 0 1 2.724 2.899zm4.255 4h1.376v-12h-1.376v12zm6.048-11.121a.966.966 0 0 0-.96-.976.994.994 0 0 0-.992.976.983.983 0 0 0 .992.976.956.956 0 0 0 .964-.977zm-1.664 11.121h1.376v-8h-1.376v8zm5.056 0h1.376v-6.737h2.32v-1.264h-2.32v-1.472a1.152 1.152 0 0 1 1.328-1.36 3.222 3.222 0 0 1 .992.16v-1.216a3.636 3.636 0 0 0-1.248-.208 2.285 2.285 0 0 0-2.448 2.48v1.616h-1.7v1.264h1.7v6.737zm13.121-4a4.185 4.185 0 1 0-4.177 4.16 4.106 4.106 0 0 0 4.181-4.161zm-6.961 0a2.778 2.778 0 1 1 2.784 2.88 2.751 2.751 0 0 1-2.78-2.881zm9.327 4h1.377v-3.968c0-1.873 1.1-2.753 2.112-2.753a2.011 2.011 0 0 1 .752.128v-1.424a2.851 2.851 0 0 0-.624-.064 2.38 2.38 0 0 0-2.24 1.632v-1.552h-1.377v8zm6.256 0h1.377v-3.968c0-1.873 1.024-2.929 2.32-2.929a1.921 1.921 0 0 1 1.888 2.177v4.72h1.36v-4.928a2.949 2.949 0 0 0-3.024-3.233 2.829 2.829 0 0 0-2.544 1.392v-1.232h-1.377v8zm11.488-11.121a.966.966 0 0 0-.96-.976.994.994 0 0 0-.992.976.983.983 0 0 0 .992.976.956.956 0 0 0 .964-.977zm-1.664 11.121h1.376v-8h-1.376v8zm3.76-4a4 4 0 0 0 3.921 4.16 3.508 3.508 0 0 0 2.816-1.392v1.232h1.376v-8h-1.376v1.232a3.508 3.508 0 0 0-2.816-1.392 4 4 0 0 0-3.917 4.159zm6.849 0a2.733 2.733 0 1 1-2.72-2.9 2.731 2.731 0 0 1 2.724 2.899zm8.447.912c0 1.984 1.184 3.248 2.944 3.248a2.755 2.755 0 0 0 2.465-1.392v1.232h1.376v-8h-1.372v3.969c0 1.84-.977 2.928-2.225 2.928-1.1 0-1.808-.848-1.808-2.192v-4.705h-1.376v4.913zm14.96.864c0-1.2-.752-1.968-2.112-2.416l-.864-.288c-.944-.3-1.232-.608-1.232-1.121a1.132 1.132 0 0 1 1.344-.928 2.161 2.161 0 0 1 1.7.832l.9-.864a3.1 3.1 0 0 0-2.56-1.152c-1.584 0-2.7.88-2.7 2.176a2.415 2.415 0 0 0 1.984 2.321l.784.256c1.04.336 1.424.72 1.424 1.28a1.218 1.218 0 0 1-1.408 1.088 2.147 2.147 0 0 1-2.048-1.264l-1.12.608a3.178 3.178 0 0 0 3.136 1.856c1.608-.001 2.775-.817 2.775-2.385zm4.032-8.9a.966.966 0 0 0-.96-.976 1 1 0 0 0-.993.976.984.984 0 0 0 .993.976.956.956 0 0 0 .964-.974zm-1.664 11.121h1.376v-8h-1.376v8zm4.383 0h1.377v-3.968c0-1.873 1.024-2.929 2.32-2.929a1.921 1.921 0 0 1 1.888 2.177v4.72H404v-4.928a2.949 2.949 0 0 0-3.024-3.233 2.829 2.829 0 0 0-2.544 1.392v-1.232h-1.377v8zm17.281-.464v-7.537h-1.376v1.232a3.4 3.4 0 0 0-2.784-1.392 4.076 4.076 0 0 0 0 8.145 3.416 3.416 0 0 0 2.784-1.408v.912a2.558 2.558 0 0 1-2.672 2.769 3.422 3.422 0 0 1-2.8-1.345l-.96.961a4.75 4.75 0 0 0 3.777 1.632 3.7 3.7 0 0 0 4.035-3.967zm-6.673-3.632a2.706 2.706 0 1 1 2.7 2.8 2.667 2.667 0 0 1-2.696-2.798zm13.968 7.441H423v-4.577a3.509 3.509 0 0 0 2.817 1.392 4.168 4.168 0 0 0 0-8.321 3.509 3.509 0 0 0-2.817 1.394v-1.232h-1.376v11.346zm6.705-7.345a2.726 2.726 0 1 1-2.721-2.9 2.732 2.732 0 0 1 2.725 2.902zm3.791 4h1.38v-3.968c0-1.873 1.1-2.753 2.112-2.753a2.011 2.011 0 0 1 .752.128v-1.424a2.851 2.851 0 0 0-.624-.064 2.38 2.38 0 0 0-2.24 1.632v-1.552h-1.376v8zm5.344-4a4.218 4.218 0 0 0 7.745 2.256l-1.088-.752a2.833 2.833 0 0 1-5.265-1.232h6.561a3.9 3.9 0 0 0 .016-.416 3.728 3.728 0 0 0-3.809-4.017 4.054 4.054 0 0 0-4.156 4.163zm4.112-2.945a2.394 2.394 0 0 1 2.449 2.1h-5.073a2.615 2.615 0 0 1 2.628-2.099zm6.208 6.945h1.376v-3.968c0-1.808.912-2.929 2.208-2.929 1.041 0 1.569.9 1.569 2.193v4.7h1.376v-3.968c0-1.808.9-2.929 2.192-2.929 1.04 0 1.584.9 1.584 2.193v4.7h1.377v-4.912c0-1.953-1.057-3.249-2.8-3.249a2.769 2.769 0 0 0-2.624 1.712 2.515 2.515 0 0 0-2.465-1.712 2.689 2.689 0 0 0-2.416 1.392v-1.232h-1.376v8zm16.224-11.121a.966.966 0 0 0-.96-.976.994.994 0 0 0-.992.976.983.983 0 0 0 .992.976.956.956 0 0 0 .964-.974zm-1.664 11.121h1.376v-8h-1.376v8zm4.272-3.088c0 1.984 1.184 3.248 2.944 3.248a2.752 2.752 0 0 0 2.464-1.392v1.232h1.377v-8h-1.377v3.969c0 1.84-.976 2.928-2.224 2.928-1.1 0-1.808-.848-1.808-2.192v-4.705h-1.372v4.913zm9.776 3.088h1.376v-3.968c0-1.808.912-2.929 2.208-2.929 1.04 0 1.568.9 1.568 2.193v4.7h1.376v-3.968c0-1.808.9-2.929 2.193-2.929 1.04 0 1.584.9 1.584 2.193v4.7h1.376v-4.912c0-1.953-1.056-3.249-2.8-3.249a2.771 2.771 0 0 0-2.625 1.712 2.515 2.515 0 0 0-2.464-1.712 2.689 2.689 0 0 0-2.416 1.392v-1.232H476.4v8zm18.863 0h1.376v-3.968c0-1.808.913-2.929 2.209-2.929 1.04 0 1.568.9 1.568 2.193v4.7h1.376v-3.968c0-1.808.9-2.929 2.193-2.929 1.04 0 1.584.9 1.584 2.193v4.7h1.376v-4.912c0-1.953-1.056-3.249-2.8-3.249a2.769 2.769 0 0 0-2.625 1.712 2.515 2.515 0 0 0-2.464-1.712 2.692 2.692 0 0 0-2.417 1.392v-1.232h-1.376v8zm13.936-4a4 4 0 0 0 3.921 4.16 3.508 3.508 0 0 0 2.816-1.392v1.232h1.376v-8h-1.376v1.232a3.508 3.508 0 0 0-2.816-1.392 4 4 0 0 0-3.912 4.162zm6.849 0a2.733 2.733 0 1 1-2.72-2.9 2.731 2.731 0 0 1 2.724 2.902zm8.592 3.888V623.8a3.041 3.041 0 0 1-.976.16 1.152 1.152 0 0 1-1.329-1.36v-4.193h2.3v-1.264h-2.3v-2.224h-1.376v2.224h-1.7v1.264h1.7v4.369a2.252 2.252 0 0 0 2.449 2.448 3.828 3.828 0 0 0 1.236-.19zm1.423-3.888a4.218 4.218 0 0 0 7.745 2.256l-1.088-.752a2.833 2.833 0 0 1-5.265-1.232h6.561a3.9 3.9 0 0 0 .016-.416 3.728 3.728 0 0 0-3.808-4.017 4.054 4.054 0 0 0-4.157 4.163zm4.113-2.945a2.394 2.394 0 0 1 2.448 2.1h-5.073a2.616 2.616 0 0 1 2.629-2.099zm6.207 6.945h1.376v-3.968c0-1.873 1.1-2.753 2.113-2.753a2.011 2.011 0 0 1 .752.128v-1.424a2.851 2.851 0 0 0-.624-.064 2.38 2.38 0 0 0-2.241 1.632v-1.552h-1.376v8zm7.92-11.121a.966.966 0 0 0-.96-.976.994.994 0 0 0-.992.976.983.983 0 0 0 .992.976.956.956 0 0 0 .965-.974zm-1.664 11.121h1.376v-8h-1.376v8zm3.76-4a4 4 0 0 0 3.92 4.16 3.509 3.509 0 0 0 2.817-1.392v1.232h1.376v-8h-1.376v1.232a3.509 3.509 0 0 0-2.817-1.392 4 4 0 0 0-3.911 4.162zm6.849 0a2.733 2.733 0 1 1-2.721-2.9 2.732 2.732 0 0 1 2.725 2.902zm4.255 4h1.376v-12H557.5v12zm9.568-2.224c0-1.2-.752-1.968-2.112-2.416l-.864-.288c-.944-.3-1.232-.608-1.232-1.121a1.132 1.132 0 0 1 1.344-.928 2.161 2.161 0 0 1 1.7.832l.9-.864a3.1 3.1 0 0 0-2.56-1.152c-1.584 0-2.7.88-2.7 2.176a2.415 2.415 0 0 0 1.984 2.321l.784.256c1.04.336 1.424.72 1.424 1.28a1.218 1.218 0 0 1-1.408 1.088 2.147 2.147 0 0 1-2.048-1.264l-1.12.608a3.178 3.178 0 0 0 3.136 1.856c1.609.002 2.776-.814 2.776-2.382zm11.856 0c0-1.2-.752-1.968-2.112-2.416l-.864-.288c-.944-.3-1.232-.608-1.232-1.121a1.132 1.132 0 0 1 1.344-.928 2.161 2.161 0 0 1 1.7.832l.9-.864a3.1 3.1 0 0 0-2.56-1.152c-1.584 0-2.705.88-2.705 2.176a2.414 2.414 0 0 0 1.985 2.321l.784.256c1.04.336 1.424.72 1.424 1.28a1.218 1.218 0 0 1-1.408 1.088 2.149 2.149 0 0 1-2.049-1.264l-1.12.608a3.179 3.179 0 0 0 3.137 1.856c1.612.002 2.78-.814 2.78-2.382zm10.1-1.776a4.185 4.185 0 1 0-4.176 4.16 4.106 4.106 0 0 0 4.176-4.158zm-6.961 0a2.778 2.778 0 1 1 2.785 2.88 2.751 2.751 0 0 1-2.785-2.878zm9.216.912c0 1.984 1.184 3.248 2.944 3.248a2.753 2.753 0 0 0 2.465-1.392v1.232h1.376v-8h-1.376v3.969c0 1.84-.976 2.928-2.224 2.928-1.1 0-1.809-.848-1.809-2.192v-4.705h-1.376v4.913zm9.776 3.088h1.376v-3.968c0-1.873 1.1-2.753 2.113-2.753a2.011 2.011 0 0 1 .752.128v-1.424a2.851 2.851 0 0 0-.624-.064 2.38 2.38 0 0 0-2.241 1.632v-1.552h-1.376v8zm13.233-1.984l-1.2-.672a2.712 2.712 0 0 1-2.5 1.536 2.882 2.882 0 0 1 0-5.761 2.711 2.711 0 0 1 2.5 1.537l1.2-.673a4.143 4.143 0 0 0-3.7-2.144 4.161 4.161 0 1 0 0 8.321 4.143 4.143 0 0 0 3.7-2.142zm1.551-2.016a4.218 4.218 0 0 0 7.745 2.256l-1.088-.752a2.833 2.833 0 0 1-5.265-1.232h6.561a3.9 3.9 0 0 0 .013-.416 3.728 3.728 0 0 0-3.809-4.017 4.054 4.054 0 0 0-4.157 4.163zm4.112-2.945a2.394 2.394 0 0 1 2.449 2.1h-5.073a2.615 2.615 0 0 1 2.624-2.099zm5.584 2.945a4 4 0 0 0 3.92 4.16 3.51 3.51 0 0 0 2.817-1.392v1.232h1.376v-12h-1.376v5.232a3.51 3.51 0 0 0-2.817-1.392 4 4 0 0 0-3.92 4.162zm6.849 0a2.733 2.733 0 1 1-2.721-2.9 2.732 2.732 0 0 1 2.721 2.902zm9.023 4h1.376v-6.737h2.32v-1.264h-2.32v-1.472a1.152 1.152 0 0 1 1.328-1.36 3.222 3.222 0 0 1 .992.16v-1.216a3.636 3.636 0 0 0-1.248-.208 2.285 2.285 0 0 0-2.448 2.48v1.616h-1.7v1.264h1.7v6.737zm5.6 0h1.376v-3.968c0-1.873 1.1-2.753 2.112-2.753a2.011 2.011 0 0 1 .752.128v-1.424a2.851 2.851 0 0 0-.624-.064 2.38 2.38 0 0 0-2.24 1.632v-1.552H647v8zm13.7-4a4.185 4.185 0 1 0-4.177 4.16 4.107 4.107 0 0 0 4.175-4.158zm-6.961 0a2.778 2.778 0 1 1 2.784 2.88 2.751 2.751 0 0 1-2.787-2.878zm9.327 4h1.377v-3.968c0-1.808.912-2.929 2.208-2.929 1.04 0 1.568.9 1.568 2.193v4.7h1.376v-3.968c0-1.808.9-2.929 2.193-2.929 1.04 0 1.584.9 1.584 2.193v4.7h1.376v-4.912c0-1.953-1.056-3.249-2.8-3.249a2.77 2.77 0 0 0-2.625 1.712 2.515 2.515 0 0 0-2.464-1.712 2.689 2.689 0 0 0-2.416 1.392v-1.232h-1.377v8zm18.24-4a4 4 0 0 0 3.921 4.16 3.508 3.508 0 0 0 2.816-1.392v1.232h1.376v-8h-1.376v1.232a3.508 3.508 0 0 0-2.816-1.392 4 4 0 0 0-3.924 4.162zm6.849 0a2.733 2.733 0 1 1-2.72-2.9 2.731 2.731 0 0 1 2.717 2.902zm4.255 4h1.376v-3.968c0-1.873 1.1-2.753 2.113-2.753a2.011 2.011 0 0 1 .752.128v-1.424a2.851 2.851 0 0 0-.624-.064 2.38 2.38 0 0 0-2.241 1.632v-1.552h-1.376v8zm13.7-4a4.185 4.185 0 1 0-4.176 4.16 4.106 4.106 0 0 0 4.17-4.158zm-6.961 0a2.778 2.778 0 1 1 2.785 2.88 2.751 2.751 0 0 1-2.791-2.878zm9.216.912c0 1.984 1.184 3.248 2.944 3.248a2.753 2.753 0 0 0 2.465-1.392v1.232h1.376v-8h-1.382v3.969c0 1.84-.976 2.928-2.225 2.928-1.1 0-1.808-.848-1.808-2.192v-4.705h-1.376v4.913zm9.776 3.088h1.376v-3.968c0-1.873 1.024-2.929 2.32-2.929a1.921 1.921 0 0 1 1.889 2.177v4.72h1.36v-4.928a2.949 2.949 0 0 0-3.025-3.233 2.829 2.829 0 0 0-2.544 1.392v-1.232h-1.376v8zm9.2-4a4 4 0 0 0 3.92 4.16 3.51 3.51 0 0 0 2.817-1.392v1.232h1.376v-12h-1.376v5.232a3.51 3.51 0 0 0-2.817-1.392 4 4 0 0 0-3.926 4.162zm6.849 0a2.733 2.733 0 1 1-2.721-2.9 2.732 2.732 0 0 1 2.715 2.902zm12.623 3.888V623.8a3.041 3.041 0 0 1-.976.16 1.152 1.152 0 0 1-1.328-1.36v-4.193h2.3v-1.264h-2.3v-2.224h-1.377v2.224h-1.7v1.264h1.7v4.369a2.253 2.253 0 0 0 2.449 2.448 3.828 3.828 0 0 0 1.226-.19zm2.159.112h1.377v-3.968c0-1.873 1.024-2.929 2.32-2.929a1.921 1.921 0 0 1 1.888 2.177v4.72h1.36v-4.928a2.949 2.949 0 0 0-3.024-3.233 2.829 2.829 0 0 0-2.544 1.392v-5.232h-1.377v12zm9.2-4a4.218 4.218 0 0 0 7.745 2.256l-1.088-.752a2.833 2.833 0 0 1-5.265-1.232h6.561a3.9 3.9 0 0 0 .016-.416 3.728 3.728 0 0 0-3.808-4.017 4.054 4.054 0 0 0-4.167 4.163zm4.113-2.945a2.394 2.394 0 0 1 2.448 2.1h-5.073a2.616 2.616 0 0 1 2.619-2.099zm17.008 6.945h1.216l2.721-8h-1.457l-1.936 5.841-2-5.841h-1.056l-2 5.841-1.936-5.841H771.4l2.72 8h1.217l1.984-5.76zm13.52-4a4.185 4.185 0 1 0-4.177 4.16 4.106 4.106 0 0 0 4.171-4.158zm-6.961 0a2.778 2.778 0 1 1 2.784 2.88 2.751 2.751 0 0 1-2.79-2.878zm9.328 4h1.376v-3.968c0-1.873 1.1-2.753 2.112-2.753a2.011 2.011 0 0 1 .752.128v-1.424a2.851 2.851 0 0 0-.624-.064 2.38 2.38 0 0 0-2.24 1.632v-1.552h-1.376v8zm6.256 0h1.376v-12h-1.376v12zm3.759-4a4 4 0 0 0 3.921 4.16 3.508 3.508 0 0 0 2.816-1.392v1.232h1.377v-12h-1.377v5.232a3.508 3.508 0 0 0-2.816-1.392 4 4 0 0 0-3.927 4.162zm6.849 0a2.733 2.733 0 1 1-2.72-2.9 2.731 2.731 0 0 1 2.714 2.902zm6.16 2.928a1.185 1.185 0 1 0-1.185 1.2 1.206 1.206 0 0 0 1.179-1.198z"/><path id="Our_fabrics_are_the_treasures" data-name="Our fabrics are the treasures" class="cls-1" d="M51.843 560.831a12.1 12.1 0 1 0-12.1-12.1 12.129 12.129 0 0 0 12.1 12.1zm0-5.077a7.026 7.026 0 1 1 6.792-7.023 6.945 6.945 0 0 1-6.792 7.023zm27.094 5.077c5.6 0 9.627-3.824 9.627-9.66v-14.144h-5.243v14.21a4.387 4.387 0 1 1-8.77 0v-14.21h-5.242v14.144c0 5.836 3.991 9.66 9.627 9.66zm16.31-.395h5.243v-9.66h.857l7.781 9.66h6.3l-8.275-10.32c2.967-1.055 4.582-3 4.582-6.033a6.911 6.911 0 0 0-7.253-7.056h-9.236v23.409zm5.243-14.111v-4.484h3.363c1.549 0 2.67.824 2.67 2.242 0 1.351-1.121 2.242-2.67 2.242h-3.363zm27.163 14.111h5.242v-9.166h7.154v-5.011h-7.154v-4.22h9.166v-5.012h-14.409v23.409zm15.479 0h5.468l2.077-4.946h9.693l2.077 4.946h5.473l-10.02-23.409h-4.748zm9.462-9.5l2.935-7.055 2.934 7.055h-5.869zm19.774 9.5h10.286a6.921 6.921 0 0 0 7.122-6.891 6.117 6.117 0 0 0-3.33-5.539 5.509 5.509 0 0 0 1.681-4.022 6.958 6.958 0 0 0-6.956-6.957h-8.8v23.409zm5.242-13.946v-4.682h2.967a2.379 2.379 0 0 1 2.44 2.374 2.347 2.347 0 0 1-2.44 2.308h-2.967zm0 9.132v-4.682h4.583a2.383 2.383 0 0 1 2.473 2.341 2.353 2.353 0 0 1-2.44 2.341h-4.616zm17.693 4.814h5.242v-9.66h.855l7.781 9.66h6.3l-8.275-10.32c2.967-1.055 4.582-3 4.582-6.033a6.911 6.911 0 0 0-7.253-7.056H195.3v23.409zm5.242-14.111v-4.484h3.363c1.549 0 2.67.824 2.67 2.242 0 1.351-1.121 2.242-2.67 2.242h-3.363zm18.583 14.111h5.242v-23.409h-5.242v23.409zm22.958.395a12.1 12.1 0 0 0 10.946-6.4l-4.616-2.5a7.023 7.023 0 1 1 0-6.4l4.616-2.5a12.2 12.2 0 1 0-10.947 17.8zm23 0c4.946 0 8.342-2.967 8.375-7.22.033-3.528-2.176-5.77-5.572-6.99l-1.649-.593c-2.473-.89-3.627-1.451-3.627-2.7 0-1.219 1.418-1.78 2.836-1.78a5.2 5.2 0 0 1 4.055 1.945l3.429-3.626a9.767 9.767 0 0 0-7.55-3.231c-4.682 0-8.078 2.67-8.078 7.22 0 3.2 2.11 5.473 5.9 6.759l1.648.56c2.341.792 3.264 1.616 3.264 2.8 0 1.121-1.088 1.945-2.835 1.945a6.125 6.125 0 0 1-4.847-2.671l-4.022 3.4a10.264 10.264 0 0 0 8.676 4.182zm19.742-.395h5.472l2.077-4.946h9.693l2.077 4.946h5.473l-10.02-23.409h-4.748zm9.462-9.5l2.935-7.055 2.934 7.055h-5.869zm19.774 9.5h5.242v-9.66h.857l7.781 9.66h6.3l-8.275-10.32c2.967-1.055 4.583-3 4.583-6.033a6.912 6.912 0 0 0-7.254-7.056h-9.231v23.409zm5.242-14.111v-4.484h3.363c1.549 0 2.67.824 2.67 2.242 0 1.351-1.121 2.242-2.67 2.242h-3.363zm18.583 14.111h14.837v-5.012h-9.595v-4.187h7.617v-5.011h-7.617v-4.187h9.595v-5.012h-14.834v23.409zm33.326 0h5.275v-18.4h6.034v-5.012h-17.273v5.012h5.967v18.4zm16.5 0h5.242v-9.265h9.429v9.265h5.243v-23.409h-5.243v9.166h-9.429v-9.166h-5.242v23.409zm26.862 0h14.843v-5.012h-9.594v-4.187h7.616v-5.011h-7.616v-4.187h9.594v-5.012h-14.836v23.409zm33.326 0h5.275v-18.4h6.033v-5.012h-17.269v5.012h5.968v18.4zm16.5 0h5.242v-9.66h.858l7.781 9.66h6.3l-8.276-10.32c2.968-1.055 4.583-3 4.583-6.033a6.911 6.911 0 0 0-7.253-7.056h-9.232v23.409zm5.242-14.111v-4.484h3.363c1.55 0 2.671.824 2.671 2.242 0 1.351-1.121 2.242-2.671 2.242h-3.363zm18.584 14.111h14.836v-5.012h-9.594v-4.187h7.629v-5.011h-7.616v-4.187h9.594v-5.012h-14.839v23.409zm18.317 0h5.473l2.077-4.946h9.704l2.077 4.946h5.473l-10.023-23.409h-4.747zm9.462-9.5l2.935-7.055 2.934 7.055h-5.869zm26.136 9.891c4.946 0 8.342-2.967 8.375-7.22.033-3.528-2.176-5.77-5.572-6.99l-1.649-.593c-2.472-.89-3.626-1.451-3.626-2.7 0-1.219 1.417-1.78 2.835-1.78a5.2 5.2 0 0 1 4.055 1.945l3.438-3.626a9.767 9.767 0 0 0-7.55-3.231c-4.682 0-8.078 2.67-8.078 7.22 0 3.2 2.11 5.473 5.9 6.759l1.649.56c2.34.792 3.264 1.616 3.264 2.8 0 1.121-1.088 1.945-2.836 1.945a6.123 6.123 0 0 1-4.846-2.671l-4.023 3.4a10.265 10.265 0 0 0 8.674 4.186zm23.362 0c5.605 0 9.627-3.824 9.627-9.66v-14.14H569.9v14.21a4.387 4.387 0 1 1-8.77 0v-14.21h-5.242v14.144c.001 5.836 3.99 9.66 9.628 9.66zm16.31-.395h5.242v-9.66h.857l7.781 9.66H602l-8.275-10.32c2.967-1.055 4.583-3 4.583-6.033a6.912 6.912 0 0 0-7.254-7.056h-9.231v23.409zm5.242-14.111v-4.484h3.363c1.55 0 2.671.824 2.671 2.242 0 1.351-1.121 2.242-2.671 2.242h-3.363zm18.583 14.111h14.837v-5.012h-9.594v-4.187h7.616v-5.011h-7.616v-4.187h9.594v-5.012h-14.827v23.409zm27.813.395c4.945 0 8.341-2.967 8.374-7.22.033-3.528-2.176-5.77-5.572-6.99l-1.648-.593c-2.473-.89-3.627-1.451-3.627-2.7 0-1.219 1.418-1.78 2.836-1.78a5.206 5.206 0 0 1 4.055 1.945l3.429-3.626a9.767 9.767 0 0 0-7.55-3.231c-4.682 0-8.078 2.67-8.078 7.22 0 3.2 2.11 5.473 5.9 6.759l1.648.56c2.341.792 3.264 1.616 3.264 2.8 0 1.121-1.088 1.945-2.835 1.945a6.123 6.123 0 0 1-4.847-2.671l-4.022 3.4a10.262 10.262 0 0 0 8.683 4.186z"/><g id="Number_copy_7" data-name="Number copy 7"><path id="_01" data-name="1" class="cls-1" d="M1310.13 632.1v-3.724c0-3.2-2.13-5.466-5.13-5.466s-5.12 2.263-5.12 5.466v3.724c0 3.2 2.13 5.465 5.12 5.465s5.13-2.265 5.13-5.465zm-8.06 0v-3.724c0-2.062 1.21-3.3 2.93-3.3s2.94 1.242 2.94 3.3v3.724c0 2.082-1.21 3.3-2.94 3.3s-2.93-1.218-2.93-3.3zm14.93 5.265h2.19V623.15h-3.36l-1.67 2.183h2.84v12.032z"/><path id="_03" data-name="3" class="cls-1" d="M1310.13 687.458v-3.724c0-3.2-2.13-5.465-5.13-5.465s-5.12 2.262-5.12 5.465v3.724c0 3.2 2.13 5.466 5.12 5.466s5.13-2.262 5.13-5.466zm-8.06 0v-3.724c0-2.062 1.21-3.3 2.93-3.3s2.94 1.241 2.94 3.3v3.724c0 2.083-1.21 3.3-2.94 3.3s-2.93-1.217-2.93-3.3zm20.31 1.262a3.549 3.549 0 0 0-2.13-3.364 3.631 3.631 0 0 0 1.73-3.083c.02-2.322-1.79-4-4.42-4a4.548 4.548 0 0 0-4.79 4.585h2.21a2.381 2.381 0 0 1 2.58-2.423 2.028 2.028 0 0 1 2.21 1.982 2.094 2.094 0 0 1-2.32 2.022h-1.12v1.882h1.12c1.63 0 2.72.761 2.72 2.263a2.264 2.264 0 0 1-2.53 2.182 2.721 2.721 0 0 1-2.94-2.5h-2.19a4.811 4.811 0 0 0 5.13 4.665c2.81-.007 4.74-1.709 4.74-4.211z"/><path d="M1293 658v-1.01h37V658h-37z" fill="#010000" fill-rule="evenodd"/></g><g id="X_copy_6" data-name="X copy 6"><path id="Rectangle_116_copy_2" data-name="Rectangle 116 copy 2" class="cls-1" d="M1330.01 58.336l-.94.929-13.69-13.565-14.44 14.3-.95-.938 14.44-14.3-13.96-13.832.94-.929 13.96 13.832 13.5-13.383.95.938-13.51 13.383z"/></g><g id="R_copy_6" data-name="R copy 6"><path id="Rectangle_116_copy" data-name="Rectangle 116 copy" class="cls-1" d="M1328.51 362.768l-.07-.068-27.94 27.9-.95-.941 27.95-27.9-27.47-27.421.93-.932 28.49 28.431z"/></g></svg>