<svg id="Copy_copy_3" data-name="Copy copy 3" xmlns="http://www.w3.org/2000/svg" width="1360" height="723"><defs><style>.cls-1,.cls-3{fill-rule:evenodd}.cls-3{fill:#fff}</style></defs><path id="RE-ISSUED_WOOL-CASHMERE_SWEATER_ORIGINALLY_SOLD_IN_1992_" data-name="RE-ISSUED WOOL-CASHMERE SWEATER, ORIGINALLY SOLD IN 1992" class="cls-1" d="M572.587 670.146h2.544v-4.688h.416l3.777 4.688h3.056l-4.017-5.008a2.933 2.933 0 0 0 2.225-2.929 3.354 3.354 0 0 0-3.521-3.424h-4.48v11.361zm2.544-6.849v-2.176h1.632a1.132 1.132 0 0 1 1.3 1.088 1.15 1.15 0 0 1-1.3 1.088h-1.632zm9.327 6.849h7.2v-2.432H587v-2.032h3.7v-2.433H587v-2.032h4.656v-2.432h-7.2v11.361zm9.793-4.528h4.7v-2.305h-4.7v2.305zm8.111 4.528h2.545v-11.361h-2.545v11.361zm9.617.192c2.4 0 4.048-1.44 4.064-3.5.016-1.712-1.056-2.8-2.7-3.393l-.8-.288c-1.2-.432-1.76-.7-1.76-1.312a1.166 1.166 0 0 1 1.376-.864 2.527 2.527 0 0 1 1.968.944l1.664-1.76a4.74 4.74 0 0 0-3.664-1.568c-2.273 0-3.921 1.3-3.921 3.5 0 1.552 1.024 2.657 2.865 3.281l.8.272c1.136.384 1.584.784 1.584 1.36a1.152 1.152 0 0 1-1.376.944 2.975 2.975 0 0 1-2.353-1.3l-1.952 1.648a4.983 4.983 0 0 0 4.205 2.036zm10.5 0c2.4 0 4.048-1.44 4.064-3.5.016-1.712-1.056-2.8-2.7-3.393l-.8-.288c-1.2-.432-1.761-.7-1.761-1.312a1.167 1.167 0 0 1 1.377-.864 2.527 2.527 0 0 1 1.968.944l1.664-1.76a4.74 4.74 0 0 0-3.664-1.568c-2.273 0-3.921 1.3-3.921 3.5 0 1.552 1.024 2.657 2.864 3.281l.8.272c1.136.384 1.584.784 1.584 1.36a1.152 1.152 0 0 1-1.376.944 2.972 2.972 0 0 1-2.353-1.3l-1.952 1.648a4.982 4.982 0 0 0 4.202 2.036zm11.648 0a4.455 4.455 0 0 0 4.672-4.688v-6.865h-2.544v6.9a2.129 2.129 0 1 1-4.257 0v-6.9h-2.548v6.865a4.447 4.447 0 0 0 4.673 4.688zm8.223-.192h7.2v-2.432h-4.66v-2.032h3.7v-2.433h-3.7v-2.032h4.657v-2.432h-7.2v11.361zm10.416 0h3.872a5.682 5.682 0 1 0 0-11.361h-3.872v11.361zm2.544-2.336v-6.689h1.328a3.347 3.347 0 0 1 0 6.689h-1.328zm23.633 2.336h2.416L684 658.785h-2.721l-1.552 7.2-3.2-7.393-3.184 7.393-1.552-7.2h-2.721l2.625 11.361h2.416l2.416-5.568zm12.879.192a5.873 5.873 0 1 0-5.873-5.872 5.886 5.886 0 0 0 5.869 5.872zm0-2.464a3.41 3.41 0 1 1 3.3-3.408 3.371 3.371 0 0 1-3.304 3.408zm14.144 2.464a5.873 5.873 0 1 0-5.873-5.872 5.886 5.886 0 0 0 5.869 5.872zm0-2.464a3.41 3.41 0 1 1 3.3-3.408 3.371 3.371 0 0 1-3.304 3.408zm8.911 2.272h7.249v-2.432h-4.7v-8.929h-2.544v11.361zm8.384-4.528h4.705v-2.305h-4.705v2.305zm13.345 4.72a5.872 5.872 0 0 0 5.312-3.1l-2.24-1.216a3.409 3.409 0 1 1 0-3.105l2.24-1.216a5.923 5.923 0 1 0-5.318 8.637zm6.591-.192h2.656l1.008-2.4h4.705l1.008 2.4h2.656l-4.864-11.361h-2.3zm4.592-4.608l1.425-3.425 1.424 3.425h-2.849zm12.992 4.8c2.4 0 4.049-1.44 4.065-3.5.016-1.712-1.056-2.8-2.7-3.393l-.8-.288c-1.2-.432-1.761-.7-1.761-1.312a1.166 1.166 0 0 1 1.376-.864 2.527 2.527 0 0 1 1.969.944l1.664-1.76a4.741 4.741 0 0 0-3.665-1.568c-2.272 0-3.92 1.3-3.92 3.5 0 1.552 1.024 2.657 2.864 3.281l.8.272c1.137.384 1.585.784 1.585 1.36a1.153 1.153 0 0 1-1.377.944 2.972 2.972 0 0 1-2.352-1.3l-1.952 1.648a4.981 4.981 0 0 0 4.2 2.036zm7.1-.192h2.544v-4.5H775v4.5h2.544v-11.361H775v4.448h-4.577v-4.448h-2.544v11.361zm19.219-2.416l3.312-4.593v7.009h2.56v-11.361h-2.32l-3.552 4.9-3.553-4.9h-2.32v11.361h2.544v-7.009zm9.551 2.416h7.2v-2.432h-4.657v-2.032h3.7v-2.433h-3.7v-2.032h4.657v-2.432h-7.2v11.361zm10.416 0h2.544v-4.688h.416l3.776 4.688h3.057l-4.017-5.008a2.933 2.933 0 0 0 2.225-2.929 3.355 3.355 0 0 0-3.521-3.424h-4.48v11.361zm2.544-6.849v-2.176h1.632a1.132 1.132 0 0 1 1.3 1.088 1.15 1.15 0 0 1-1.3 1.088h-1.632zm9.327 6.849h7.2v-2.432h-4.656v-2.032h3.7v-2.433h-3.7v-2.032h4.656v-2.432h-7.2v11.361zm18.609.192c2.4 0 4.048-1.44 4.064-3.5.016-1.712-1.056-2.8-2.7-3.393l-.8-.288c-1.2-.432-1.761-.7-1.761-1.312a1.167 1.167 0 0 1 1.377-.864 2.527 2.527 0 0 1 1.968.944l1.664-1.76a4.74 4.74 0 0 0-3.664-1.568c-2.273 0-3.921 1.3-3.921 3.5 0 1.552 1.024 2.657 2.864 3.281l.8.272c1.136.384 1.584.784 1.584 1.36a1.152 1.152 0 0 1-1.376.944 2.974 2.974 0 0 1-2.353-1.3l-1.952 1.648a4.982 4.982 0 0 0 4.204 2.036zm15.872-.192h2.417l2.64-11.361h-2.72l-1.552 7.2-3.2-7.393-3.184 7.393-1.553-7.2h-2.72l2.624 11.361h2.417l2.412-5.568zm7.775 0h7.2v-2.432h-4.657v-2.032h3.7v-2.433h-3.7v-2.032h4.657v-2.432h-7.2v11.361zm9.2 0h2.656l1.008-2.4h4.7l1.008 2.4h2.657l-4.865-11.361h-2.3zm4.593-4.608l1.424-3.425 1.424 3.425h-2.848zm10.815 4.608h2.561v-8.929h2.928v-2.432H882.9v2.432h2.9v8.929zm8.32 0h7.2v-2.432h-4.657v-2.032h3.7v-2.433h-3.7v-2.032h4.657v-2.432h-7.2v11.361zm10.416 0h2.544v-4.688h.418l3.777 4.688h3.056l-4.016-5.008a2.933 2.933 0 0 0 2.224-2.929 3.354 3.354 0 0 0-3.52-3.424h-4.481v11.361zm2.544-6.849v-2.176h1.633a1.132 1.132 0 0 1 1.3 1.088 1.15 1.15 0 0 1-1.3 1.088h-1.635zm11.792 6.369a2.191 2.191 0 0 0 .352-1.1 1.712 1.712 0 0 0-3.424 0 1.732 1.732 0 0 0 1.04 1.584l-1.2 2.481h1.392zm-341.055 24.672a5.873 5.873 0 1 0-5.872-5.872 5.886 5.886 0 0 0 5.872 5.872zm0-2.464a3.41 3.41 0 1 1 3.3-3.408 3.371 3.371 0 0 1-3.3 3.408zm8.911 2.272h2.545v-4.688h.416l3.776 4.688h3.057l-4.017-5.008a2.934 2.934 0 0 0 2.225-2.929 3.355 3.355 0 0 0-3.521-3.424h-4.481v11.361zm2.545-6.849v-2.176h1.632a1.132 1.132 0 0 1 1.3 1.088 1.15 1.15 0 0 1-1.3 1.088h-1.632zm9.327 6.849h2.545v-11.361H598.6v11.361zm11.777.192a6.282 6.282 0 0 0 4.657-1.68v-5.393h-4.7v2.385h2.224v1.68a3.7 3.7 0 0 1-2.208.544 3.411 3.411 0 1 1-.16-6.817 3.773 3.773 0 0 1 2.864 1.216l1.792-1.744a6.044 6.044 0 0 0-4.656-1.936 5.8 5.8 0 0 0-5.985 5.873 5.9 5.9 0 0 0 6.172 5.872zm7.935-.192h2.544v-11.361h-2.544v11.361zm16.5 0v-11.361h-2.56v7.009l-5.521-7.009h-2.192v11.361h2.544v-7.025l5.537 7.025h2.192zm2.462 0h2.657l1.008-2.4h4.705l1.008 2.4h2.656l-4.865-11.361h-2.3zm4.593-4.608l1.424-3.425 1.424 3.425h-2.848zm9.9 4.608h7.249v-2.432h-4.705v-8.929h-2.543v11.361zm10.111 0h7.249v-2.432h-4.7v-8.929h-2.545v11.361zm11.585 0h2.56v-4.768l4.145-6.593h-2.96l-2.48 4.1-2.449-4.1h-2.96l4.145 6.577v4.784zm17.119.192c2.4 0 4.049-1.44 4.065-3.5.016-1.712-1.056-2.8-2.7-3.393l-.8-.288c-1.2-.432-1.761-.7-1.761-1.312a1.166 1.166 0 0 1 1.376-.864 2.527 2.527 0 0 1 1.969.944l1.664-1.76a4.741 4.741 0 0 0-3.665-1.568c-2.272 0-3.92 1.3-3.92 3.5 0 1.552 1.024 2.657 2.864 3.281l.8.272c1.137.384 1.585.784 1.585 1.36a1.153 1.153 0 0 1-1.377.944 2.972 2.972 0 0 1-2.352-1.3l-1.952 1.648a4.981 4.981 0 0 0 4.205 2.036zm12.337 0a5.873 5.873 0 1 0-5.873-5.872 5.886 5.886 0 0 0 5.874 5.872zm0-2.464a3.41 3.41 0 1 1 3.3-3.408 3.371 3.371 0 0 1-3.299 3.408zm8.911 2.272h7.249v-2.432h-4.705v-8.929h-2.544v11.361zm10.111 0h3.873a5.682 5.682 0 1 0 0-11.361h-3.873v11.361zm2.545-2.336v-6.689h1.328a3.347 3.347 0 0 1 0 6.689h-1.328zm14.975 2.336h2.544v-11.361h-2.544v11.361zm16.5 0v-11.361H753.4v7.009l-5.521-7.009h-2.192v11.361h2.544v-7.025l5.537 7.025h2.192zm9.695 0h2.416v-11.361h-3.154l-1.729 2.384h2.465v8.977zm6 0h2.976l3.184-4.528c.9-1.28 1.345-1.921 1.345-3.057a4 4 0 0 0-8-.016 3.527 3.527 0 0 0 3.281 3.617zm3.5-6.033a1.6 1.6 0 0 1 0-3.2 1.6 1.6 0 0 1 .002 3.2zm6.927 6.033h2.977l3.184-4.528c.9-1.28 1.344-1.921 1.344-3.057a4 4 0 0 0-8-.016 3.527 3.527 0 0 0 3.281 3.617zm3.5-6.033a1.6 1.6 0 0 1 0-3.2 1.6 1.6 0 0 1 .007 3.2zm14.288 3.649h-4.432a7.742 7.742 0 0 1 2.016-1.6 4.6 4.6 0 0 0 2.336-4.017 3.447 3.447 0 0 0-3.68-3.552 3.8 3.8 0 0 0-4.033 3.808h2.42a1.437 1.437 0 0 1 1.537-1.424 1.25 1.25 0 0 1 1.344 1.344c0 .816-.816 1.536-1.712 2.177-1.665 1.184-3.633 2.256-3.633 4.832v.816h7.841v-2.384z"/><g id="Number_copy_8" data-name="Number copy 8"><path id="_02" data-name="2" class="cls-1" d="M1310.13 632.1v-3.724c0-3.2-2.13-5.466-5.13-5.466s-5.12 2.263-5.12 5.466v3.724c0 3.2 2.13 5.465 5.12 5.465s5.13-2.265 5.13-5.465zm-8.06 0v-3.724c0-2.062 1.21-3.3 2.93-3.3s2.94 1.242 2.94 3.3v3.724c0 2.082-1.21 3.3-2.94 3.3s-2.93-1.218-2.93-3.3zm19.91 3.1h-6.47c.36-1.281 1.94-2.082 3.21-3.043 2.07-1.5 3.12-2.723 3.12-4.985a4.12 4.12 0 0 0-4.43-4.265 4.527 4.527 0 0 0-4.78 4.585h2.21a2.394 2.394 0 0 1 2.55-2.423 2.076 2.076 0 0 1 2.24 2.163c0 1.441-.91 2.242-2.36 3.3-2.07 1.542-4.64 2.9-4.64 6.026v.8h9.35V635.2z"/><path id="_03" data-name="3" class="cls-1" d="M1310.13 687.458v-3.724c0-3.2-2.13-5.465-5.13-5.465s-5.12 2.262-5.12 5.465v3.724c0 3.2 2.13 5.466 5.12 5.466s5.13-2.262 5.13-5.466zm-8.06 0v-3.724c0-2.062 1.21-3.3 2.93-3.3s2.94 1.241 2.94 3.3v3.724c0 2.083-1.21 3.3-2.94 3.3s-2.93-1.217-2.93-3.3zm20.31 1.262a3.549 3.549 0 0 0-2.13-3.364 3.631 3.631 0 0 0 1.73-3.083c.02-2.322-1.79-4-4.42-4a4.548 4.548 0 0 0-4.79 4.585h2.21a2.381 2.381 0 0 1 2.58-2.423 2.028 2.028 0 0 1 2.21 1.982 2.094 2.094 0 0 1-2.32 2.022h-1.12v1.882h1.12c1.63 0 2.72.761 2.72 2.263a2.264 2.264 0 0 1-2.53 2.182 2.721 2.721 0 0 1-2.94-2.5h-2.19a4.811 4.811 0 0 0 5.13 4.665c2.81-.007 4.74-1.709 4.74-4.211z"/><path d="M1293 658v-1.01h37V658h-37z" fill="#010000" fill-rule="evenodd"/></g><g id="X_copy_7" data-name="X copy 7"><path id="Rectangle_116_copy_2" data-name="Rectangle 116 copy 2" class="cls-3" d="M1330.01 58.336l-.94.929-13.69-13.565-14.44 14.3-.95-.938 14.44-14.3-13.96-13.832.94-.929 13.96 13.832 13.5-13.383.95.938-13.51 13.383z"/></g><g id="R_copy_7" data-name="R copy 7"><path id="Rectangle_116_copy" data-name="Rectangle 116 copy" class="cls-3" d="M1328.51 362.768l-.07-.068-27.94 27.9-.95-.941 27.95-27.9-27.47-27.421.93-.932 28.49 28.431z"/></g><g id="L_copy_7" data-name="L copy 7"><path id="Rectangle_116_copy-2" data-name="Rectangle 116 copy" class="cls-3" d="M57.12 334.161l-27.338 27.578 26.874 27.11-.913.921-27.863-28.107.913-.922.066.067L56.2 333.23z"/></g><path id="Shop_Now_copy_6" data-name="Shop Now copy 6" class="cls-1" d="M820.533 689.557a3.129 3.129 0 0 0 2.783 1.408 2.306 2.306 0 0 0 .77-4.544l-.792-.3c-.8-.3-1.188-.55-1.188-1.122a1.074 1.074 0 0 1 1.232-.9 1.894 1.894 0 0 1 1.486.726l.891-.869a3.007 3.007 0 0 0-2.366-1.067 2.227 2.227 0 0 0-.693 4.4l.858.309a1.321 1.321 0 0 1 1.112 1.188 1.1 1.1 0 0 1-1.266.968 2.126 2.126 0 0 1-1.815-1zm8.767 1.276h1.287v-3.355h3.862v3.355h1.287v-7.811h-1.287v3.234h-3.862v-3.234H829.3v7.811zm17.92-3.906a4.038 4.038 0 1 0-4.038 4.038 4.019 4.019 0 0 0 4.038-4.038zm-6.777 0a2.735 2.735 0 1 1 2.739 2.795 2.738 2.738 0 0 1-2.739-2.795zm12.65-3.9h-2.486v7.811h1.287v-2.706h1.2a2.557 2.557 0 1 0-.001-5.11zm-.011 3.894h-1.188v-2.684h1.188a1.346 1.346 0 1 1 0 2.679zm17.007 3.917v-7.811h-1.3v5.6l-4.39-5.6h-1.122v7.811h1.287v-5.622l4.4 5.622h1.122zm11.473-3.906a4.038 4.038 0 1 0-4.038 4.038 4.019 4.019 0 0 0 4.038-4.043zm-6.777 0a2.735 2.735 0 1 1 2.739 2.795 2.738 2.738 0 0 1-2.739-2.8zm16.225 3.906h1.19l2.024-7.811h-1.364l-1.43 5.677-2.23-5.814-2.233 5.809-1.43-5.677h-1.354l2.014 7.811h1.188l1.815-4.775zm-70.829 2.562v-.989h76v.989h-76z"/></svg>