<svg id="copy_copy" data-name="copy copy" xmlns="http://www.w3.org/2000/svg" width="1360" height="723"><defs><style>.cls-1{fill-rule:evenodd}</style></defs><path id="Archival_Banana_Republic_Flightsuit_1980_Not_available_for_sal" data-name="Archival Banana Republic Flightsuit, 1980 Not available for sal" class="cls-1" d="M816.517 41.146h2.657l1.008-2.4h4.7l1.009 2.4h2.656l-4.865-11.362h-2.3zm4.593-4.609l1.424-3.425 1.424 3.425h-2.848zm9.9 4.609h2.545v-4.688h.416l3.776 4.689h3.057l-4.017-5.009a2.933 2.933 0 0 0 2.225-2.928 3.355 3.355 0 0 0-3.521-3.425h-4.481v11.361zm2.545-6.849v-2.176h1.632a1.132 1.132 0 0 1 1.3 1.088 1.15 1.15 0 0 1-1.3 1.088h-1.632zm14.145 7.041a5.872 5.872 0 0 0 5.313-3.1l-2.24-1.216a3.409 3.409 0 1 1 0-3.1l2.24-1.216a5.923 5.923 0 1 0-5.313 8.632zm8.079-.192h2.545v-4.5h4.576v4.5h2.545V29.785H862.9v4.449h-4.576v-4.449h-2.545v11.361zm13.344 0h2.545V29.785h-2.545v11.361zm9.7 0h2.288l4.657-11.362h-2.8l-3.008 7.569-3.025-7.569h-2.768zm6.879 0h2.656l1.008-2.4h4.705l1.008 2.4h2.657l-4.866-11.361h-2.3zm4.593-4.609l1.424-3.425 1.424 3.425h-2.848zm9.9 4.609h7.249v-2.432h-4.705v-8.929H900.2v11.361zm-160.414 24h4.993a3.359 3.359 0 0 0 3.456-3.344 2.969 2.969 0 0 0-1.616-2.688 2.674 2.674 0 0 0 .816-1.952 3.377 3.377 0 0 0-3.376-3.376h-4.273v11.36zm2.545-6.769v-2.272h1.44a1.155 1.155 0 0 1 1.184 1.152 1.139 1.139 0 0 1-1.184 1.12h-1.44zm0 4.433v-2.272h2.224a1.156 1.156 0 0 1 1.2 1.136 1.142 1.142 0 0 1-1.184 1.136h-2.24zm7.359 2.336h2.657l1.008-2.4h4.7l1.008 2.4h2.657l-4.865-11.362h-2.3zm4.593-4.609l1.424-3.425 1.424 3.425h-2.846zm20.177 4.609V53.785H771.9v7.009l-5.52-7.009h-2.193v11.361h2.545v-7.025l5.536 7.025h2.193zm2.462 0h2.656l1.009-2.4h4.7l1.008 2.4h2.657l-4.865-11.362h-2.3zm4.593-4.609l1.424-3.425 1.424 3.425h-2.848zm20.177 4.609V53.785h-2.561v7.009l-5.521-7.009h-2.192v11.361h2.545v-7.025l5.536 7.025h2.193zm2.462 0h2.656l1.008-2.4h4.7l1.008 2.4h2.657l-4.858-11.361h-2.3zm4.593-4.609l1.424-3.425 1.424 3.425h-2.848zm14.223 4.609h2.544v-4.688h.416l3.777 4.689h3.056l-4.016-5.009a2.932 2.932 0 0 0 2.224-2.928 3.354 3.354 0 0 0-3.52-3.425h-4.481v11.361zm2.544-6.849v-2.176h1.632a1.132 1.132 0 0 1 1.3 1.088 1.15 1.15 0 0 1-1.3 1.088h-1.632zm9.328 6.849h7.2v-2.432h-4.657v-2.032h3.7v-2.433h-3.7v-2.032h4.657v-2.432h-7.2v11.361zm18.273-7.473a3.869 3.869 0 0 0-4-3.889h-3.856v11.362h2.546v-3.6h1.312a3.856 3.856 0 0 0 4-3.873zm-2.465 0a1.5 1.5 0 0 1-1.568 1.488H847.8v-2.976h1.28a1.486 1.486 0 0 1 1.567 1.488zm9.92 7.665a4.456 4.456 0 0 0 4.673-4.689v-6.864H862.7v6.9a2.129 2.129 0 1 1-4.256 0v-6.9h-2.545v6.865a4.448 4.448 0 0 0 4.668 4.688zm8.223-.192h4.993a3.359 3.359 0 0 0 3.456-3.344 2.969 2.969 0 0 0-1.616-2.688 2.674 2.674 0 0 0 .816-1.952 3.377 3.377 0 0 0-3.376-3.376h-4.271v11.36zm2.545-6.769v-2.272h1.44a1.155 1.155 0 0 1 1.184 1.152 1.139 1.139 0 0 1-1.184 1.12h-1.44zm0 4.433v-2.272h2.224a1.156 1.156 0 0 1 1.2 1.136 1.142 1.142 0 0 1-1.184 1.136h-2.24zm8.895 2.336h7.249v-2.432h-4.705v-8.929h-2.542v11.361zm10.112 0h2.544V53.785h-2.544v11.361zm11.46.192a5.872 5.872 0 0 0 5.312-3.1l-2.24-1.216a3.409 3.409 0 1 1 0-3.1l2.24-1.216a5.923 5.923 0 1 0-5.312 8.632zM757.208 89.146h2.544V84.7h3.473v-2.435h-3.473v-2.048h4.448v-2.432h-6.993v11.361zm10 0h7.249v-2.432h-4.705v-8.929h-2.544v11.361zm10.112 0h2.544V77.785h-2.544v11.361zm11.78.192a6.279 6.279 0 0 0 4.657-1.68v-5.393h-4.705v2.385h2.225v1.68a3.706 3.706 0 0 1-2.209.544 3.411 3.411 0 1 1-.16-6.817 3.775 3.775 0 0 1 2.865 1.216l1.792-1.744a6.044 6.044 0 0 0-4.657-1.936 5.8 5.8 0 0 0-5.985 5.873 5.9 5.9 0 0 0 6.177 5.872zm7.935-.192h2.545v-4.5h4.576v4.5h2.544V77.785h-2.545v4.449h-4.576v-4.449h-2.545v11.361zm15.392 0h2.561v-8.929h2.928v-2.432h-8.385v2.432h2.9v8.929zm11.553.192c2.4 0 4.048-1.44 4.064-3.5.016-1.712-1.056-2.8-2.7-3.392l-.8-.288c-1.2-.432-1.761-.7-1.761-1.312a1.167 1.167 0 0 1 1.377-.864 2.527 2.527 0 0 1 1.968.944l1.664-1.76a4.74 4.74 0 0 0-3.664-1.568c-2.273 0-3.921 1.3-3.921 3.5 0 1.552 1.024 2.656 2.865 3.281l.8.272c1.136.384 1.584.784 1.584 1.36a1.152 1.152 0 0 1-1.376.944 2.973 2.973 0 0 1-2.353-1.3l-1.952 1.648a4.982 4.982 0 0 0 4.201 2.035zm11.648 0a4.456 4.456 0 0 0 4.672-4.688v-6.865h-2.544v6.9a2.129 2.129 0 1 1-4.257 0v-6.9h-2.544v6.865a4.447 4.447 0 0 0 4.669 4.688zm8.223-.192h2.544V77.785h-2.544v11.361zm8.272 0h2.56v-8.929h2.929v-2.432h-8.386v2.432h2.9v8.929zm9.616-.48a2.192 2.192 0 0 0 .352-1.1 1.713 1.713 0 0 0-3.425 0 1.732 1.732 0 0 0 1.041 1.584l-1.2 2.48h1.393zm9.455.48h2.417V77.785h-3.153l-1.728 2.384h2.464v8.977zm6 0h2.976l3.185-4.529c.9-1.28 1.344-1.92 1.344-3.056a4 4 0 0 0-8-.016 3.527 3.527 0 0 0 3.28 3.617zm3.5-6.033a1.6 1.6 0 0 1 0-3.2 1.6 1.6 0 0 1 .006 3.201zm10.559 6.209a3.8 3.8 0 0 0 4.1-3.681 2.944 2.944 0 0 0-1.376-2.672 3 3 0 0 0 .928-2.256c0-1.792-1.44-3.12-3.649-3.12s-3.648 1.328-3.648 3.12a3.025 3.025 0 0 0 .912 2.256 2.965 2.965 0 0 0-1.36 2.672 3.8 3.8 0 0 0 4.094 3.681zm0-7.169a1.22 1.22 0 1 1 1.313-1.216 1.239 1.239 0 0 1-1.312 1.216zm0 4.945a1.522 1.522 0 1 1 1.6-1.52 1.518 1.518 0 0 1-1.599 1.522zm11.088 2.224a4.257 4.257 0 0 0 4.289-4.545v-2.64a4.3 4.3 0 1 0-8.593 0v2.64a4.26 4.26 0 0 0 4.305 4.545zm0-2.384a1.9 1.9 0 0 1-1.888-2.16v-2.64a1.9 1.9 0 1 1 3.761 0v2.64a1.9 1.9 0 0 1-1.872 2.16zm-127.6 26.208v-8.523h-1.1v6.639l-5.186-6.639h-.975v8.523h1.12v-6.638l5.186 6.638h.96zm8.759-3a3.139 3.139 0 1 0-3.133 3.121 3.08 3.08 0 0 0 3.133-3.122zm-5.222 0a2.084 2.084 0 1 1 2.089 2.161 2.064 2.064 0 0 1-2.087-2.162zm10.8 2.917v-.924a2.281 2.281 0 0 1-.732.12.864.864 0 0 1-1-1.02v-3.146h1.728v-.948h-1.728v-1.669h-1.026v1.669h-1.272v.948h1.272v3.278a1.69 1.69 0 0 0 1.837 1.836 2.871 2.871 0 0 0 .924-.145zm5.7-2.917a3 3 0 0 0 2.941 3.121 2.633 2.633 0 0 0 2.113-1.044v.924h1.032v-6h-1.032v.924a2.633 2.633 0 0 0-2.113-1.044 3 3 0 0 0-2.939 3.118zm5.138 0a2.051 2.051 0 1 1-2.041-2.173 2.05 2.05 0 0 1 2.043 2.172zm5.723 3h.864l2.773-6h-1.152l-2.053 4.538-2.053-4.538h-1.153zm5.051-3a3 3 0 0 0 2.941 3.121 2.635 2.635 0 0 0 2.113-1.044v.924h1.032v-6h-1.032v.924a2.635 2.635 0 0 0-2.113-1.044 3 3 0 0 0-2.939 3.118zm5.138 0a2.051 2.051 0 1 1-2.041-2.173 2.05 2.05 0 0 1 2.043 2.172zm5.1-5.342a.725.725 0 0 0-.72-.732.745.745 0 0 0-.744.732.738.738 0 0 0 .744.732.717.717 0 0 0 .72-.736zm-1.248 8.343h1.032v-6h-1.032v6zm3.948 0h1.032v-9h-1.032v9zm3.479-3a3 3 0 0 0 2.941 3.121 2.632 2.632 0 0 0 2.113-1.044v.924h1.033v-6h-1.033v.924a2.632 2.632 0 0 0-2.113-1.044 3 3 0 0 0-2.941 3.117zm5.138 0a2.05 2.05 0 1 1-2.04-2.173 2.049 2.049 0 0 1 2.04 2.171zm4.883 2.077a2.632 2.632 0 0 0 2.113 1.044 3.127 3.127 0 0 0 0-6.242 2.632 2.632 0 0 0-2.113 1.044v-3.925H836.1v9h1.033v-.924zm4-2.077a2.045 2.045 0 1 1-2.04-2.173 2.049 2.049 0 0 1 2.037 2.171zm3.49 3h1.033v-9h-1.033v9zm3.48-3a3.164 3.164 0 0 0 5.81 1.693l-.816-.564a2.126 2.126 0 0 1-3.95-.925h4.922a2.928 2.928 0 0 0 .012-.312 2.8 2.8 0 0 0-2.857-3.013 3.041 3.041 0 0 0-3.119 3.119zm3.085-2.209a1.8 1.8 0 0 1 1.837 1.573h-3.806a1.962 1.962 0 0 1 1.966-1.575zm9.551 5.21h1.033v-5.054h1.74v-.948h-1.74v-1.105a.864.864 0 0 1 1-1.02 2.416 2.416 0 0 1 .744.12v-.912a2.727 2.727 0 0 0-.936-.156 1.714 1.714 0 0 0-1.837 1.86v1.213h-1.272v.948h1.272v5.054zm10.5-3a3.139 3.139 0 1 0-3.133 3.121 3.08 3.08 0 0 0 3.132-3.124zm-5.222 0a2.084 2.084 0 1 1 2.089 2.161 2.064 2.064 0 0 1-2.09-2.164zm7.656 3h1.032v-2.977c0-1.4.829-2.065 1.585-2.065a1.508 1.508 0 0 1 .564.1v-1.068a2.138 2.138 0 0 0-.468-.048 1.787 1.787 0 0 0-1.681 1.224v-1.164h-1.032v6zm12.829-1.668a1.9 1.9 0 0 0-1.584-1.813l-.648-.216c-.709-.228-.925-.456-.925-.841a.85.85 0 0 1 1.009-.7 1.621 1.621 0 0 1 1.272.624l.672-.648a2.327 2.327 0 0 0-1.92-.864 1.777 1.777 0 0 0-2.029 1.633 1.811 1.811 0 0 0 1.488 1.74l.589.192c.78.252 1.068.541 1.068.961a.913.913 0 0 1-1.056.816 1.611 1.611 0 0 1-1.537-.948l-.84.456a2.384 2.384 0 0 0 2.353 1.392 1.811 1.811 0 0 0 2.091-1.786zm1.967-1.333a3 3 0 0 0 2.941 3.121 2.635 2.635 0 0 0 2.113-1.044v.924h1.032v-6h-1.032v.924a2.635 2.635 0 0 0-2.113-1.044 3 3 0 0 0-2.942 3.117zm5.138 0a2.051 2.051 0 1 1-2.041-2.173 2.05 2.05 0 0 1 2.039 2.171zm3.85 3h1.032v-9h-1.032v9zm3.479-3a3.165 3.165 0 0 0 5.811 1.693l-.817-.564a2.125 2.125 0 0 1-3.949-.925h4.924a2.928 2.928 0 0 0 .012-.312 2.8 2.8 0 0 0-2.857-3.013 3.042 3.042 0 0 0-3.125 3.119zm3.086-2.209a1.8 1.8 0 0 1 1.836 1.573h-3.8a1.962 1.962 0 0 1 1.963-1.575z"/><path id="Re-imagined_Utility_Jumpsuit_2018_" data-name="Re-imagined Utility Jumpsuit, 2018" class="cls-1" d="M562.587 253.146h2.544v-4.688h.416l3.777 4.688h3.056l-4.017-5.008a2.933 2.933 0 0 0 2.225-2.929 3.354 3.354 0 0 0-3.521-3.424h-4.48v11.361zm2.544-6.849v-2.176h1.632a1.132 1.132 0 0 1 1.3 1.088 1.15 1.15 0 0 1-1.3 1.088h-1.632zm9.327 6.849h7.2v-2.432H577v-2.032h3.7v-2.433H577v-2.032h4.656v-2.432h-7.2v11.361zm9.793-4.528h4.7v-2.305h-4.7v2.305zm8.111 4.528h2.545v-11.361h-2.545v11.361zm12.1-2.416l3.313-4.593v7.009h2.56v-11.361h-2.32l-3.553 4.9-3.552-4.9h-2.321v11.361h2.545v-7.009zm8.335 2.416h2.656l1.008-2.4h4.705l1.008 2.4h2.657l-4.865-11.361h-2.3zm4.593-4.608l1.424-3.425 1.424 3.425h-2.848zm14.944 4.8a6.282 6.282 0 0 0 4.657-1.68v-5.393h-4.705v2.385h2.224v1.68a3.7 3.7 0 0 1-2.208.544 3.411 3.411 0 1 1-.16-6.817 3.773 3.773 0 0 1 2.858 1.216l1.793-1.744a6.048 6.048 0 0 0-4.657-1.936 5.8 5.8 0 0 0-5.985 5.873 5.9 5.9 0 0 0 6.18 5.872zm7.935-.192h2.544v-11.361h-2.544v11.361zm16.5 0v-11.361H654.2v7.009l-5.521-7.009h-2.189v11.361h2.544v-7.025l5.537 7.025h2.192zm3.679 0h7.2v-2.432h-4.657v-2.032h3.7v-2.433h-3.7v-2.032h4.657v-2.432h-7.2v11.361zm10.416 0h3.872a5.682 5.682 0 1 0 0-11.361h-3.872v11.361zm2.544-2.336v-6.689h1.328a3.347 3.347 0 0 1 0 6.689H673.4zm-106.277 26.528a4.456 4.456 0 0 0 4.673-4.688v-6.865h-2.544v6.9a2.129 2.129 0 1 1-4.257 0v-6.9h-2.544v6.865a4.447 4.447 0 0 0 4.672 4.688zm10.272-.192h2.56v-8.929h2.929v-2.432h-8.386v2.432h2.9v8.929zm8.319 0h2.545v-11.361h-2.545v11.361zm6.224 0h7.254v-2.432h-4.7v-8.929h-2.545v11.361zm10.112 0h2.542v-11.361h-2.544v11.361zm8.272 0h2.56v-8.929h2.929v-2.432h-8.385v2.432h2.9v8.929zm11.392 0h2.56v-4.768l4.145-6.593h-2.96l-2.481 4.1-2.448-4.1h-2.961l4.145 6.577v4.784zm16.112.192c1.952 0 3.713-.976 3.713-3.3v-8.257H639v8.1a1.169 1.169 0 0 1-2.336-.064h-2.512a3.368 3.368 0 0 0 3.682 3.521zm11.856 0a4.456 4.456 0 0 0 4.673-4.688v-6.865h-2.545v6.9a2.129 2.129 0 1 1-4.256 0v-6.9h-2.545v6.865a4.448 4.448 0 0 0 4.673 4.688zm14.1-2.608l3.313-4.593v7.009h2.56v-11.361h-2.32l-3.553 4.9-3.552-4.9h-2.321v11.361h2.545v-7.009zm17.408-5.057a3.869 3.869 0 0 0-4-3.888h-3.857v11.361h2.544v-3.6h1.313a3.856 3.856 0 0 0 3.996-3.873zm-2.464 0a1.5 1.5 0 0 1-1.568 1.488h-1.281v-2.976h1.281a1.486 1.486 0 0 1 1.564 1.488zm8.767 7.665c2.4 0 4.049-1.44 4.065-3.5.016-1.712-1.056-2.8-2.705-3.393l-.8-.288c-1.2-.432-1.76-.7-1.76-1.312a1.166 1.166 0 0 1 1.376-.864 2.529 2.529 0 0 1 1.969.944l1.664-1.76a4.742 4.742 0 0 0-3.665-1.568c-2.272 0-3.92 1.3-3.92 3.5 0 1.552 1.024 2.657 2.864 3.281l.8.272c1.136.384 1.584.784 1.584 1.36a1.152 1.152 0 0 1-1.376.944 2.972 2.972 0 0 1-2.352-1.3l-1.952 1.648a4.981 4.981 0 0 0 4.207 2.036zm11.648 0a4.456 4.456 0 0 0 4.673-4.688v-6.865h-2.544v6.9a2.129 2.129 0 1 1-4.257 0v-6.9h-2.544v6.865a4.447 4.447 0 0 0 4.668 4.688zm8.223-.192h2.545v-11.361h-2.545v11.361zm8.273 0h2.56v-8.929h2.928v-2.432h-8.385v2.432h2.9v8.929zm9.615-.48a2.183 2.183 0 0 0 .353-1.1 1.713 1.713 0 0 0-3.425 0 1.732 1.732 0 0 0 1.04 1.584l-1.2 2.481h1.392zm15.5-1.9h-4.433a7.742 7.742 0 0 1 2.016-1.6 4.6 4.6 0 0 0 2.337-4.017 3.447 3.447 0 0 0-3.68-3.556 3.8 3.8 0 0 0-4.032 3.808h2.416a1.436 1.436 0 0 1 1.536-1.424 1.25 1.25 0 0 1 1.344 1.344c0 .816-.816 1.536-1.712 2.177-1.664 1.184-3.632 2.256-3.632 4.832v.816h7.841v-2.384zm7.119 2.56a4.257 4.257 0 0 0 4.289-4.544v-2.641a4.3 4.3 0 1 0-8.593 0v2.641a4.26 4.26 0 0 0 4.305 4.54zm0-2.384a1.9 1.9 0 0 1-1.888-2.16v-2.641a1.9 1.9 0 1 1 3.76 0v2.641a1.9 1.9 0 0 1-1.871 2.156zm8.752 2.208h2.416v-11.365H755.9l-1.729 2.384h2.465v8.977zm9.632.176a3.8 3.8 0 0 0 4.1-3.68 2.945 2.945 0 0 0-1.377-2.673 3 3 0 0 0 .929-2.256c0-1.792-1.441-3.12-3.649-3.12s-3.649 1.328-3.649 3.12a3.025 3.025 0 0 0 .913 2.256 2.968 2.968 0 0 0-1.361 2.673 3.8 3.8 0 0 0 4.095 3.676zm0-7.169a1.22 1.22 0 1 1 1.312-1.216 1.239 1.239 0 0 1-1.311 1.212zm0 4.945a1.522 1.522 0 1 1 1.6-1.52 1.518 1.518 0 0 1-1.599 1.518z"/><path id="Shop_Now" data-name="Shop Now" class="cls-1" d="M562.533 298.557a3.129 3.129 0 0 0 2.783 1.408 2.306 2.306 0 0 0 .77-4.544l-.792-.3c-.8-.3-1.188-.55-1.188-1.122a1.074 1.074 0 0 1 1.232-.9 1.894 1.894 0 0 1 1.486.726l.891-.869a3.007 3.007 0 0 0-2.366-1.067 2.227 2.227 0 0 0-.693 4.4l.858.309a1.321 1.321 0 0 1 1.112 1.188 1.1 1.1 0 0 1-1.266.968 2.126 2.126 0 0 1-1.815-1zm8.767 1.276h1.287v-3.355h3.862v3.355h1.287v-7.811h-1.287v3.234h-3.862v-3.234H571.3v7.811zm17.92-3.906a4.038 4.038 0 1 0-4.038 4.038 4.019 4.019 0 0 0 4.038-4.038zm-6.777 0a2.735 2.735 0 1 1 2.739 2.795 2.738 2.738 0 0 1-2.739-2.795zm12.65-3.905h-2.486v7.811h1.287v-2.706h1.2a2.557 2.557 0 1 0-.001-5.105zm-.011 3.894h-1.188v-2.684h1.188a1.346 1.346 0 1 1 0 2.684zm17.007 3.917v-7.811h-1.3v5.6l-4.39-5.6h-1.122v7.811h1.287v-5.622l4.4 5.622h1.122zm11.473-3.906a4.038 4.038 0 1 0-4.038 4.038 4.019 4.019 0 0 0 4.038-4.038zm-6.777 0a2.735 2.735 0 1 1 2.739 2.795 2.738 2.738 0 0 1-2.739-2.795zm16.225 3.906h1.19l2.024-7.811h-1.364l-1.43 5.677-2.23-5.809-2.233 5.809-1.43-5.677h-1.354l2.014 7.811h1.188l1.815-4.775zm-70.829 2.567v-.989h76v.989h-76z"/><g id="Number_copy_5" data-name="Number copy 5"><path id="_02" data-name="2" class="cls-1" d="M1310.13 632.1v-3.724c0-3.2-2.13-5.466-5.13-5.466s-5.12 2.263-5.12 5.466v3.724c0 3.2 2.13 5.465 5.12 5.465s5.13-2.265 5.13-5.465zm-8.06 0v-3.724c0-2.062 1.21-3.3 2.93-3.3s2.94 1.242 2.94 3.3v3.724c0 2.082-1.21 3.3-2.94 3.3s-2.93-1.218-2.93-3.3zm19.91 3.1h-6.47c.36-1.281 1.94-2.082 3.21-3.043 2.07-1.5 3.12-2.723 3.12-4.985a4.12 4.12 0 0 0-4.43-4.265 4.527 4.527 0 0 0-4.78 4.585h2.21a2.394 2.394 0 0 1 2.55-2.423 2.076 2.076 0 0 1 2.24 2.163c0 1.441-.91 2.242-2.36 3.3-2.07 1.542-4.64 2.9-4.64 6.026v.8h9.35V635.2z"/><path id="_02-2" data-name="2" class="cls-1" d="M1310.13 687.458v-3.724c0-3.2-2.13-5.465-5.13-5.465s-5.12 2.262-5.12 5.465v3.724c0 3.2 2.13 5.466 5.12 5.466s5.13-2.262 5.13-5.466zm-8.06 0v-3.724c0-2.062 1.21-3.3 2.93-3.3s2.94 1.241 2.94 3.3v3.724c0 2.083-1.21 3.3-2.94 3.3s-2.93-1.217-2.93-3.3zm19.91 3.1h-6.47c.36-1.282 1.94-2.083 3.21-3.044 2.07-1.5 3.12-2.722 3.12-4.985a4.119 4.119 0 0 0-4.43-4.264 4.527 4.527 0 0 0-4.78 4.585h2.21a2.394 2.394 0 0 1 2.55-2.423 2.075 2.075 0 0 1 2.24 2.162c0 1.442-.91 2.243-2.36 3.3-2.07 1.541-4.64 2.9-4.64 6.026v.8h9.35v-2.162z"/><path d="M1293 658v-1.01h37V658h-37z" fill="#010000" fill-rule="evenodd"/></g><g id="X_copy_4" data-name="X copy 4"><path id="Rectangle_116_copy_2" data-name="Rectangle 116 copy 2" class="cls-1" d="M1330.01 58.336l-.94.929-13.69-13.565-14.44 14.3-.95-.938 14.44-14.3-13.96-13.832.94-.929 13.96 13.832 13.5-13.383.95.938-13.51 13.383z"/></g><g id="L_copy_4" data-name="L copy 4"><path id="Rectangle_116_copy" data-name="Rectangle 116 copy" class="cls-1" d="M57.12 334.161l-27.338 27.578 26.874 27.11-.913.921-27.863-28.107.913-.922.066.067L56.2 333.23z"/></g></svg>