<svg id="Copy_copy_6" data-name="Copy copy 6" xmlns="http://www.w3.org/2000/svg" width="1360" height="723"><defs><style>.cls-1{fill-rule:evenodd}</style></defs><path id="SUEDE_CLASSIC_TRENCH_COAT_" data-name="SUEDE CLASSIC TRENCH COAT" class="cls-1" d="M136.979 650.338c2.4 0 4.049-1.44 4.065-3.5.016-1.712-1.056-2.8-2.705-3.393l-.8-.288c-1.2-.432-1.76-.7-1.76-1.312a1.166 1.166 0 0 1 1.376-.864 2.527 2.527 0 0 1 1.968.944l1.665-1.76a4.742 4.742 0 0 0-3.665-1.568c-2.272 0-3.92 1.3-3.92 3.5 0 1.552 1.024 2.657 2.864 3.281l.8.272c1.136.384 1.584.784 1.584 1.36a1.152 1.152 0 0 1-1.376.944 2.972 2.972 0 0 1-2.352-1.3l-1.952 1.648a4.981 4.981 0 0 0 4.208 2.036zm11.648 0a4.456 4.456 0 0 0 4.673-4.688v-6.865h-2.545v6.9a2.129 2.129 0 1 1-4.256 0v-6.9h-2.545v6.865a4.448 4.448 0 0 0 4.673 4.688zm8.223-.192h7.2v-2.432h-4.65v-2.032h3.7v-2.433h-3.7v-2.032h4.656v-2.432h-7.2v11.361zm10.416 0h3.873a5.682 5.682 0 1 0 0-11.361h-3.873v11.361zm2.545-2.336v-6.689h1.328a3.347 3.347 0 0 1 0 6.689h-1.328zm10.175 2.336h7.2v-2.432h-4.656v-2.032h3.7v-2.433h-3.7v-2.032h4.656v-2.432h-7.2v11.361zm20.449.192a5.872 5.872 0 0 0 5.312-3.1l-2.24-1.216a3.409 3.409 0 1 1 0-3.105l2.24-1.216a5.923 5.923 0 1 0-5.312 8.637zm8.079-.192h7.249v-2.432h-4.705v-8.929h-2.544v11.361zm8.9 0h2.656l1.008-2.4h4.7l1.008 2.4h2.656l-4.864-11.361h-2.305zm4.586-4.608l1.424-3.425 1.425 3.425H222zm12.992 4.8c2.4 0 4.049-1.44 4.065-3.5.016-1.712-1.056-2.8-2.7-3.393l-.8-.288c-1.2-.432-1.76-.7-1.76-1.312a1.166 1.166 0 0 1 1.376-.864 2.53 2.53 0 0 1 1.969.944l1.664-1.76a4.742 4.742 0 0 0-3.665-1.568c-2.272 0-3.92 1.3-3.92 3.5 0 1.552 1.024 2.657 2.864 3.281l.8.272c1.136.384 1.584.784 1.584 1.36a1.152 1.152 0 0 1-1.376.944 2.972 2.972 0 0 1-2.352-1.3l-1.952 1.648a4.981 4.981 0 0 0 4.205 2.036zm10.5 0c2.4 0 4.049-1.44 4.065-3.5.016-1.712-1.057-2.8-2.705-3.393l-.8-.288c-1.2-.432-1.76-.7-1.76-1.312a1.166 1.166 0 0 1 1.376-.864 2.527 2.527 0 0 1 1.968.944l1.665-1.76a4.744 4.744 0 0 0-3.665-1.568c-2.272 0-3.921 1.3-3.921 3.5 0 1.552 1.025 2.657 2.865 3.281l.8.272c1.136.384 1.584.784 1.584 1.36a1.152 1.152 0 0 1-1.376.944 2.972 2.972 0 0 1-2.352-1.3l-1.953 1.648a4.984 4.984 0 0 0 4.207 2.036zm7.1-.192h2.545v-11.361h-2.545v11.361zm11.457.192a5.874 5.874 0 0 0 5.313-3.1l-2.241-1.216a3.409 3.409 0 1 1 0-3.105l2.241-1.216a5.923 5.923 0 1 0-5.312 8.637zm14.463-.192h2.561v-8.929H284v-2.432h-8.385v2.432h2.9v8.929zm8.32 0h2.544v-4.688h.416l3.777 4.688h3.056l-4.016-5.008a2.933 2.933 0 0 0 2.224-2.929 3.354 3.354 0 0 0-3.52-3.424h-4.481v11.361zm2.544-6.849v-2.176h1.633a1.132 1.132 0 0 1 1.3 1.088 1.15 1.15 0 0 1-1.3 1.088h-1.633zm9.328 6.849h7.2v-2.432h-4.657v-2.032h3.7v-2.433h-3.7v-2.032h4.657v-2.432h-7.2v11.361zm20.689 0v-11.361h-2.56v7.009l-5.521-7.009h-2.192v11.361h2.544v-7.025l5.537 7.025h2.192zm8.911.192a5.872 5.872 0 0 0 5.313-3.1l-2.24-1.216a3.409 3.409 0 1 1 0-3.105l2.24-1.216a5.923 5.923 0 1 0-5.312 8.637zm8.08-.192h2.544v-4.5h4.577v4.5h2.544v-11.361h-2.544v4.448h-4.577v-4.448h-2.544v11.361zm23.376.192a5.874 5.874 0 0 0 5.313-3.1l-2.24-1.216a3.409 3.409 0 1 1 0-3.105l2.24-1.216a5.923 5.923 0 1 0-5.312 8.637zm13.312 0a5.873 5.873 0 1 0-5.873-5.872 5.886 5.886 0 0 0 5.874 5.872zm0-2.464a3.41 3.41 0 1 1 3.3-3.408 3.371 3.371 0 0 1-3.299 3.408zm7.183 2.272h2.656l1.008-2.4h4.7l1.008 2.4h2.657l-4.865-11.361h-2.3zm4.593-4.608l1.424-3.425 1.424 3.425h-2.848zm10.815 4.608h2.561v-8.929h2.928v-2.432h-8.385v2.432h2.9v8.929z"/><g id="Number_copy_3" data-name="Number copy 3"><path id="_03" data-name="3" class="cls-1" d="M1310.13 632.1v-3.724c0-3.2-2.13-5.466-5.13-5.466s-5.12 2.263-5.12 5.466v3.724c0 3.2 2.13 5.465 5.12 5.465s5.13-2.265 5.13-5.465zm-8.06 0v-3.724c0-2.062 1.21-3.3 2.93-3.3s2.94 1.242 2.94 3.3v3.724c0 2.082-1.21 3.3-2.94 3.3s-2.93-1.218-2.93-3.3zm20.31 1.261a3.547 3.547 0 0 0-2.13-3.363 3.632 3.632 0 0 0 1.73-3.084c.02-2.322-1.79-4-4.42-4a4.548 4.548 0 0 0-4.79 4.585h2.21a2.381 2.381 0 0 1 2.58-2.423 2.028 2.028 0 0 1 2.21 1.982 2.094 2.094 0 0 1-2.32 2.023h-1.12v1.882h1.12c1.63 0 2.72.76 2.72 2.262a2.264 2.264 0 0 1-2.53 2.182 2.721 2.721 0 0 1-2.94-2.5h-2.19a4.81 4.81 0 0 0 5.13 4.664c2.81-.006 4.74-1.707 4.74-4.21z"/><path id="_04" data-name="4" class="cls-1" d="M1310.13 687.458v-3.724c0-3.2-2.13-5.465-5.13-5.465s-5.12 2.262-5.12 5.465v3.724c0 3.2 2.13 5.466 5.12 5.466s5.13-2.262 5.13-5.466zm-8.06 0v-3.724c0-2.062 1.21-3.3 2.93-3.3s2.94 1.241 2.94 3.3v3.724c0 2.083-1.21 3.3-2.94 3.3s-2.93-1.217-2.93-3.3zm17.29 5.266h2.19v-3.564h1.89v-2.042h-1.89v-8.609h-1.95l-7.55 8.869v1.782h7.31v3.564zm0-5.606h-4.56l4.56-5.326v5.326z"/><path d="M1293 658v-1.01h37V658h-37z" fill="#010000" fill-rule="evenodd"/></g><g id="X_copy_2" data-name="X copy 2"><path id="Rectangle_116_copy_2" data-name="Rectangle 116 copy 2" class="cls-1" d="M1330.01 58.336l-.94.929-13.69-13.565-14.44 14.3-.95-.938 14.44-14.3-13.96-13.832.94-.929 13.96 13.832 13.5-13.383.95.938-13.51 13.383z"/></g><g id="R_copy_2" data-name="R copy 2"><path id="Rectangle_116_copy" data-name="Rectangle 116 copy" class="cls-1" d="M1328.51 362.768l-.07-.068-27.94 27.9-.95-.941 27.95-27.9-27.47-27.421.93-.932 28.49 28.431z"/></g><g id="L_copy_2" data-name="L copy 2"><path id="Rectangle_116_copy-2" data-name="Rectangle 116 copy" class="cls-1" d="M57.12 334.161l-27.338 27.578 26.874 27.11-.913.921-27.863-28.107.913-.922.066.067L56.2 333.23z"/></g><path id="Shop_Now_copy" data-name="Shop Now copy" class="cls-1" d="M132.533 671.557a3.129 3.129 0 0 0 2.783 1.408 2.306 2.306 0 0 0 .77-4.544l-.792-.3c-.8-.3-1.188-.55-1.188-1.122a1.074 1.074 0 0 1 1.232-.9 1.894 1.894 0 0 1 1.486.726l.891-.869a3.007 3.007 0 0 0-2.366-1.067 2.227 2.227 0 0 0-.693 4.4l.858.309a1.321 1.321 0 0 1 1.112 1.188 1.1 1.1 0 0 1-1.266.968 2.126 2.126 0 0 1-1.815-1zm8.767 1.276h1.287v-3.355h3.862v3.355h1.287v-7.811h-1.287v3.234h-3.862v-3.234H141.3v7.811zm17.92-3.906a4.038 4.038 0 1 0-4.038 4.038 4.019 4.019 0 0 0 4.038-4.038zm-6.777 0a2.735 2.735 0 1 1 2.739 2.795 2.738 2.738 0 0 1-2.739-2.795zm12.65-3.9h-2.486v7.811h1.287v-2.706h1.2a2.557 2.557 0 1 0-.001-5.11zm-.011 3.894h-1.188v-2.684h1.188a1.346 1.346 0 1 1 0 2.679zm17.007 3.917v-7.811h-1.3v5.6l-4.39-5.6h-1.122v7.811h1.287v-5.622l4.4 5.622h1.122zm11.473-3.906a4.038 4.038 0 1 0-4.038 4.038 4.019 4.019 0 0 0 4.038-4.043zm-6.777 0a2.735 2.735 0 1 1 2.739 2.795 2.738 2.738 0 0 1-2.739-2.8zm16.225 3.906h1.19l2.024-7.811h-1.364l-1.43 5.677-2.23-5.814-2.233 5.809-1.43-5.677h-1.354l2.014 7.811h1.188l1.815-4.775zm-70.829 2.562v-.989h76v.989h-76z"/></svg>