<svg id="copy_copy" data-name="copy copy" xmlns="http://www.w3.org/2000/svg" width="1360" height="723"><defs><style>.cls-1{fill-rule:evenodd}</style></defs><path id="Utility_Trench_Coat_" data-name="Utility Trench Coat" class="cls-1" d="M34.131 41.338A4.456 4.456 0 0 0 38.8 36.65v-6.865h-2.54v6.9a2.129 2.129 0 1 1-4.257 0v-6.9h-2.544v6.865a4.447 4.447 0 0 0 4.672 4.688zm10.269-.192h2.56v-8.929h2.928v-2.432h-8.382v2.432h2.9v8.929zm8.32 0h2.544V29.785h-2.542v11.361zm6.224 0H66.2v-2.432h-4.7v-8.929h-2.554v11.361zm10.112 0H71.6V29.785h-2.542v11.361zm8.272 0h2.56v-8.929h2.928v-2.432h-8.382v2.432h2.9v8.929zm11.392 0h2.56v-4.768l4.145-6.593h-2.96l-2.48 4.1-2.448-4.1h-2.96l4.145 6.577v4.785zm15.312 0h2.56v-8.929h2.929v-2.432h-8.386v2.432h2.9v8.929zm8.319 0h2.549v-4.688h.416l3.776 4.689h3.057l-4.017-5.009a2.933 2.933 0 0 0 2.225-2.928 3.355 3.355 0 0 0-3.521-3.425h-4.481v11.361zM114.9 34.3v-2.179h1.632a1.132 1.132 0 0 1 1.3 1.088 1.15 1.15 0 0 1-1.3 1.088H114.9zm9.327 6.849h7.2v-2.435h-4.657v-2.032h3.7v-2.433h-3.7v-2.032h4.656v-2.432h-7.2v11.361zm20.69 0V29.785h-2.561v7.009l-5.52-7.009h-2.193v11.361h2.545v-7.025l5.536 7.025h2.193zm8.911.192a5.875 5.875 0 0 0 5.313-3.1l-2.241-1.223a3.409 3.409 0 1 1 0-3.1l2.241-1.216a5.923 5.923 0 1 0-5.315 8.636zm8.079-.192h2.544v-4.5h4.577v4.5h2.544V29.785h-2.544v4.449h-4.577v-4.449h-2.544v11.361zm23.377.192a5.872 5.872 0 0 0 5.312-3.1l-2.24-1.216a3.409 3.409 0 1 1 0-3.1l2.24-1.216a5.923 5.923 0 1 0-5.314 8.629zm13.312 0a5.873 5.873 0 1 0-5.873-5.873 5.887 5.887 0 0 0 5.871 5.87zm0-2.464a3.41 3.41 0 1 1 3.3-3.409 3.371 3.371 0 0 1-3.302 3.406zm7.182 2.272h2.657l1.008-2.4h4.7l1.008 2.4h2.656l-4.865-11.362h-2.3zm4.593-4.609l1.424-3.425 1.424 3.425h-2.848zm10.816 4.609h2.56v-8.932h2.929v-2.432h-8.386v2.432h2.9v8.929z"/><g id="Group_28_copy" data-name="Group 28 copy"><g id="Number_copy_3" data-name="Number copy 3"><path id="_04" data-name="4" class="cls-1" d="M1310.13 632.1v-3.724c0-3.2-2.13-5.466-5.13-5.466s-5.12 2.263-5.12 5.466v3.724c0 3.2 2.13 5.465 5.12 5.465s5.13-2.265 5.13-5.465zm-8.06 0v-3.724c0-2.062 1.21-3.3 2.93-3.3s2.94 1.242 2.94 3.3v3.724c0 2.082-1.21 3.3-2.94 3.3s-2.93-1.218-2.93-3.3zm17.29 5.265h2.19V633.8h1.89v-2.042h-1.89v-8.608h-1.95l-7.55 8.87v1.78h7.31v3.564zm0-5.606h-4.56l4.56-5.325v5.325z"/><path id="_04-2" data-name="4" class="cls-1" d="M1310.13 687.458v-3.724c0-3.2-2.13-5.465-5.13-5.465s-5.12 2.262-5.12 5.465v3.724c0 3.2 2.13 5.466 5.12 5.466s5.13-2.262 5.13-5.466zm-8.06 0v-3.724c0-2.062 1.21-3.3 2.93-3.3s2.94 1.241 2.94 3.3v3.724c0 2.083-1.21 3.3-2.94 3.3s-2.93-1.217-2.93-3.3zm17.29 5.266h2.19v-3.564h1.89v-2.042h-1.89v-8.609h-1.95l-7.55 8.869v1.782h7.31v3.564zm0-5.606h-4.56l4.56-5.326v5.326z"/><path d="M1293 658v-1.01h37V658h-37z" fill="#010000" fill-rule="evenodd"/></g><g id="X_copy_2" data-name="X copy 2"><path id="Rectangle_116_copy_2" data-name="Rectangle 116 copy 2" class="cls-1" d="M1330.01 58.336l-.94.929-13.69-13.565-14.44 14.3-.95-.938 14.44-14.3-13.96-13.832.94-.929 13.96 13.832 13.5-13.383.95.938-13.51 13.383z"/></g><g id="L_copy_2" data-name="L copy 2"><path id="Rectangle_116_copy" data-name="Rectangle 116 copy" d="M57.12 334.161l-27.338 27.578 26.874 27.11-.913.921-27.863-28.107.913-.922.066.067L56.2 333.23z" fill="#fff" fill-rule="evenodd"/></g></g><path id="Shop_Now_copy_2" data-name="Shop Now copy 2" class="cls-1" d="M246.533 36.557a3.129 3.129 0 0 0 2.783 1.408 2.306 2.306 0 0 0 .77-4.544l-.792-.3c-.8-.3-1.188-.55-1.188-1.122a1.074 1.074 0 0 1 1.232-.9 1.894 1.894 0 0 1 1.486.726l.891-.869a3.006 3.006 0 0 0-2.366-1.067 2.228 2.228 0 0 0-.693 4.4l.858.308a1.321 1.321 0 0 1 1.112 1.188 1.1 1.1 0 0 1-1.266.968 2.126 2.126 0 0 1-1.815-1zm8.767 1.276h1.287v-3.355h3.862v3.355h1.287v-7.811h-1.287v3.234h-3.862v-3.234H255.3v7.811zm17.92-3.906a4.038 4.038 0 1 0-4.038 4.038 4.019 4.019 0 0 0 4.038-4.038zm-6.777 0a2.735 2.735 0 1 1 2.739 2.794 2.738 2.738 0 0 1-2.739-2.794zm12.65-3.905h-2.486v7.811h1.287v-2.706h1.2a2.557 2.557 0 1 0-.001-5.105zm-.011 3.895h-1.188v-2.685h1.188a1.346 1.346 0 1 1 0 2.684zm17.007 3.917v-7.812h-1.3v5.6l-4.39-5.6h-1.122v7.811h1.287v-5.622l4.4 5.622h1.122zm11.473-3.906a4.038 4.038 0 1 0-4.038 4.038 4.019 4.019 0 0 0 4.038-4.039zm-6.777 0a2.735 2.735 0 1 1 2.739 2.794 2.738 2.738 0 0 1-2.739-2.795zm16.225 3.906h1.19l2.024-7.811h-1.364l-1.43 5.677-2.23-5.81-2.238 5.81-1.43-5.677h-1.354l2.014 7.811h1.188l1.815-4.775zM246.181 40.4v-.99h76v.99h-76z"/></svg>