<svg id="copy_copy" data-name="copy copy" xmlns="http://www.w3.org/2000/svg" width="1360" height="723" viewBox="0 0 1360 723">
  <metadata><?xpacket begin="﻿" id="W5M0MpCehiHzreSzNTczkc9d"?>
<x:xmpmeta xmlns:x="adobe:ns:meta/" x:xmptk="Adobe XMP Core 5.6-c138 79.159824, 2016/09/14-01:09:01        ">
   <rdf:RDF xmlns:rdf="http://www.w3.org/1999/02/22-rdf-syntax-ns#">
      <rdf:Description rdf:about=""/>
   </rdf:RDF>
</x:xmpmeta>
                                                                                                    
                                                                                                    
                                                                                                    
                                                                                                    
                                                                                                    
                                                                                                    
                                                                                                    
                                                                                                    
                                                                                                    
                                                                                                    
                                                                                                    
                                                                                                    
                                                                                                    
                                                                                                    
                                                                                                    
                                                                                                    
                                                                                                    
                                                                                                    
                                                                                                    
                                                                                                    
                           
<?xpacket end="w"?></metadata>
<defs>
    <style>
      .cls-1, .cls-2, .cls-3 {
        fill-rule: evenodd;
      }

      .cls-2 {
        fill: #fff;
      }

      .cls-3 {
        fill: #010000;
      }
    </style>
  </defs>
  <path id="Don_t_let_anything_rain_on_your_parade._Our_first_trench_appear" data-name="Don’t let anything rain on your parade. Our first trench appear" class="cls-1" d="M41.891,601.146h3.264a5.692,5.692,0,1,0,0-11.361H41.891v11.361Zm1.488-1.392v-8.577h1.776a4.3,4.3,0,1,1,0,8.577H43.379Zm17.969-2.608a4.185,4.185,0,1,0-4.177,4.16A4.106,4.106,0,0,0,61.348,597.146Zm-6.961,0a2.778,2.778,0,1,1,2.784,2.88A2.751,2.751,0,0,1,54.387,597.146Zm9.328,4h1.376v-3.968c0-1.872,1.024-2.929,2.32-2.929a1.921,1.921,0,0,1,1.888,2.177v4.72h1.36v-4.928a2.949,2.949,0,0,0-3.024-3.233,2.829,2.829,0,0,0-2.544,1.392v-1.232H63.714v8Zm11.648-9.633a1.414,1.414,0,0,0,.224-0.72,1.192,1.192,0,1,0-2.384,0,1.24,1.24,0,0,0,.656,1.072l-1.072,2.288h0.928Zm6.752,9.521V599.8a3.043,3.043,0,0,1-.976.16,1.152,1.152,0,0,1-1.328-1.36v-4.193h2.3v-1.264h-2.3v-2.224H78.434v2.224h-1.7v1.264h1.7v4.369a2.252,2.252,0,0,0,2.448,2.448A3.83,3.83,0,0,0,82.115,601.034Zm6.463,0.112h1.376v-12H88.578v12Zm3.76-4a4.218,4.218,0,0,0,7.745,2.256l-1.088-.752a2.833,2.833,0,0,1-5.265-1.232h6.561a3.9,3.9,0,0,0,.016-0.416,3.728,3.728,0,0,0-3.809-4.017A4.054,4.054,0,0,0,92.338,597.146ZM96.45,594.2a2.394,2.394,0,0,1,2.448,2.1H93.826A2.615,2.615,0,0,1,96.45,594.2Zm10.433,6.833V599.8a3.048,3.048,0,0,1-.977.16,1.152,1.152,0,0,1-1.328-1.36v-4.193h2.3v-1.264h-2.3v-2.224H103.2v2.224h-1.7v1.264h1.7v4.369a2.252,2.252,0,0,0,2.448,2.448A3.835,3.835,0,0,0,106.883,601.034Zm5.839-3.888a4,4,0,0,0,3.92,4.16,3.51,3.51,0,0,0,2.817-1.392v1.232h1.376v-8h-1.376v1.232a3.51,3.51,0,0,0-2.817-1.392A4,4,0,0,0,112.722,597.146Zm6.849,0a2.733,2.733,0,1,1-2.721-2.9A2.732,2.732,0,0,1,119.571,597.146Zm4.255,4H125.2v-3.968c0-1.872,1.024-2.929,2.32-2.929a1.921,1.921,0,0,1,1.888,2.177v4.72h1.361v-4.928a2.949,2.949,0,0,0-3.025-3.233,2.829,2.829,0,0,0-2.544,1.392v-1.232h-1.376v8Zm11.792,3.345,5.249-11.346H139.33l-2.736,6.065-2.752-6.065h-1.521l3.5,7.585-1.744,3.761h1.536Zm11.36-3.457V599.8a3.041,3.041,0,0,1-.976.16,1.152,1.152,0,0,1-1.328-1.36v-4.193h2.3v-1.264h-2.3v-2.224H143.3v2.224h-1.7v1.264h1.7v4.369a2.253,2.253,0,0,0,2.449,2.448A3.828,3.828,0,0,0,146.978,601.034Zm2.159,0.112h1.377v-3.968c0-1.872,1.024-2.929,2.32-2.929a1.921,1.921,0,0,1,1.888,2.177v4.72h1.36v-4.928a2.949,2.949,0,0,0-3.024-3.233,2.829,2.829,0,0,0-2.544,1.392v-5.232h-1.377v12Zm11.488-11.121a0.966,0.966,0,0,0-.96-0.976,0.994,0.994,0,0,0-.992.976,0.983,0.983,0,0,0,.992.976A0.956,0.956,0,0,0,160.625,590.025Zm-1.664,11.121h1.376v-8h-1.376v8Zm4.384,0h1.376v-3.968c0-1.872,1.024-2.929,2.321-2.929a1.921,1.921,0,0,1,1.888,2.177v4.72h1.36v-4.928a2.949,2.949,0,0,0-3.024-3.233,2.829,2.829,0,0,0-2.545,1.392v-1.232h-1.376v8Zm17.281-.464v-7.537H179.25v1.232a3.4,3.4,0,0,0-2.785-1.392,4.076,4.076,0,0,0,0,8.145,3.417,3.417,0,0,0,2.785-1.408v0.912a2.558,2.558,0,0,1-2.673,2.769,3.42,3.42,0,0,1-2.8-1.345l-0.96.961a4.749,4.749,0,0,0,3.776,1.632A3.7,3.7,0,0,0,180.626,600.682Zm-6.673-3.632a2.706,2.706,0,1,1,2.7,2.8A2.667,2.667,0,0,1,173.953,597.05Zm13.968,4.1H189.3v-3.968c0-1.872,1.1-2.753,2.112-2.753a2.011,2.011,0,0,1,.752.128v-1.424a2.851,2.851,0,0,0-.624-0.064,2.38,2.38,0,0,0-2.24,1.632v-1.552h-1.376v8Zm5.359-4a4,4,0,0,0,3.921,4.16,3.508,3.508,0,0,0,2.816-1.392v1.232h1.377v-8h-1.377v1.232a3.508,3.508,0,0,0-2.816-1.392A4,4,0,0,0,193.28,597.146Zm6.849,0a2.733,2.733,0,1,1-2.72-2.9A2.731,2.731,0,0,1,200.129,597.146Zm5.92-7.121a0.966,0.966,0,0,0-.961-0.976,0.994,0.994,0,0,0-.992.976,0.983,0.983,0,0,0,.992.976A0.957,0.957,0,0,0,206.049,590.025Zm-1.665,11.121h1.377v-8h-1.377v8Zm4.384,0h1.376v-3.968c0-1.872,1.025-2.929,2.321-2.929a1.921,1.921,0,0,1,1.888,2.177v4.72h1.36v-4.928a2.949,2.949,0,0,0-3.024-3.233,2.832,2.832,0,0,0-2.545,1.392v-1.232h-1.376v8Zm21.857-4a4.185,4.185,0,1,0-4.177,4.16A4.106,4.106,0,0,0,230.625,597.146Zm-6.961,0a2.778,2.778,0,1,1,2.784,2.88A2.751,2.751,0,0,1,223.664,597.146Zm9.328,4h1.376v-3.968c0-1.872,1.024-2.929,2.32-2.929a1.921,1.921,0,0,1,1.888,2.177v4.72h1.361v-4.928a2.949,2.949,0,0,0-3.025-3.233,2.829,2.829,0,0,0-2.544,1.392v-1.232h-1.376v8Zm15.888,3.345,5.248-11.346h-1.536l-2.736,6.065-2.753-6.065h-1.52l3.5,7.585-1.745,3.761h1.537Zm14.577-7.345a4.185,4.185,0,1,0-4.177,4.16A4.107,4.107,0,0,0,263.457,597.146Zm-6.961,0a2.778,2.778,0,1,1,2.784,2.88A2.751,2.751,0,0,1,256.5,597.146Zm9.215,0.912c0,1.984,1.184,3.248,2.945,3.248a2.752,2.752,0,0,0,2.464-1.392v1.232H272.5v-8H271.12v3.969c0,1.84-.976,2.928-2.224,2.928-1.1,0-1.809-.848-1.809-2.192v-4.705h-1.376v4.913Zm9.776,3.088h1.376v-3.968c0-1.872,1.105-2.753,2.113-2.753a2.011,2.011,0,0,1,.752.128v-1.424a2.851,2.851,0,0,0-.624-0.064,2.381,2.381,0,0,0-2.241,1.632v-1.552h-1.376v8Zm10.16,3.345h1.376v-4.577a3.509,3.509,0,0,0,2.817,1.392,4.168,4.168,0,0,0,0-8.321,3.509,3.509,0,0,0-2.817,1.392v-1.232h-1.376v11.346Zm6.7-7.345a2.726,2.726,0,1,1-2.72-2.9A2.731,2.731,0,0,1,292.352,597.146Zm3.167,0a4,4,0,0,0,3.92,4.16,3.509,3.509,0,0,0,2.817-1.392v1.232h1.376v-8h-1.376v1.232a3.509,3.509,0,0,0-2.817-1.392A4,4,0,0,0,295.519,597.146Zm6.849,0a2.733,2.733,0,1,1-2.72-2.9A2.731,2.731,0,0,1,302.368,597.146Zm4.255,4H308v-3.968c0-1.872,1.1-2.753,2.112-2.753a2.011,2.011,0,0,1,.752.128v-1.424a2.851,2.851,0,0,0-.624-0.064A2.38,2.38,0,0,0,308,594.7v-1.552h-1.376v8Zm5.36-4a4,4,0,0,0,3.92,4.16,3.51,3.51,0,0,0,2.817-1.392v1.232H320.1v-8H318.72v1.232a3.51,3.51,0,0,0-2.817-1.392A4,4,0,0,0,311.983,597.146Zm6.849,0a2.733,2.733,0,1,1-2.721-2.9A2.732,2.732,0,0,1,318.832,597.146Zm3.631,0a4,4,0,0,0,3.92,4.16,3.512,3.512,0,0,0,2.817-1.392v1.232h1.376v-12H329.2v5.232a3.512,3.512,0,0,0-2.817-1.392A4,4,0,0,0,322.463,597.146Zm6.849,0a2.733,2.733,0,1,1-2.721-2.9A2.732,2.732,0,0,1,329.312,597.146Zm3.63,0a4.219,4.219,0,0,0,7.746,2.256l-1.089-.752a2.832,2.832,0,0,1-5.264-1.232H340.9a3.9,3.9,0,0,0,.016-0.416,3.729,3.729,0,0,0-3.809-4.017A4.055,4.055,0,0,0,332.942,597.146Zm4.113-2.945a2.394,2.394,0,0,1,2.448,2.1h-5.072A2.615,2.615,0,0,1,337.055,594.2Zm8.112,5.873a1.185,1.185,0,1,0-1.185,1.2A1.206,1.206,0,0,0,345.167,600.074Zm18-4.608a5.873,5.873,0,1,0-5.873,5.872A5.816,5.816,0,0,0,363.168,595.466Zm-10.242,0a4.378,4.378,0,1,1,4.369,4.464A4.356,4.356,0,0,1,352.926,595.466Zm12.544,2.592c0,1.984,1.184,3.248,2.945,3.248a2.752,2.752,0,0,0,2.464-1.392v1.232h1.376v-8h-1.376v3.969c0,1.84-.976,2.928-2.224,2.928-1.1,0-1.809-.848-1.809-2.192v-4.705H365.47v4.913Zm9.776,3.088h1.376v-3.968c0-1.872,1.1-2.753,2.113-2.753a2.011,2.011,0,0,1,.752.128v-1.424a2.851,2.851,0,0,0-.624-0.064,2.381,2.381,0,0,0-2.241,1.632v-1.552h-1.376v8Zm10.624,0h1.377v-6.737h2.32v-1.264h-2.32v-1.472a1.152,1.152,0,0,1,1.328-1.36,3.222,3.222,0,0,1,.992.16v-1.216a3.636,3.636,0,0,0-1.248-.208,2.285,2.285,0,0,0-2.449,2.48v1.616h-1.7v1.264h1.7v6.737Zm6.865-11.121a0.966,0.966,0,0,0-.96-0.976,0.994,0.994,0,0,0-.992.976,0.983,0.983,0,0,0,.992.976A0.956,0.956,0,0,0,392.735,590.025Zm-1.664,11.121h1.376v-8h-1.376v8Zm4.367,0h1.376v-3.968c0-1.872,1.1-2.753,2.113-2.753a2.011,2.011,0,0,1,.752.128v-1.424a2.851,2.851,0,0,0-.624-0.064,2.381,2.381,0,0,0-2.241,1.632v-1.552h-1.376v8Zm11.3-2.224c0-1.2-.752-1.968-2.112-2.416l-0.864-.288c-0.945-.3-1.233-0.608-1.233-1.121a1.133,1.133,0,0,1,1.345-.928,2.161,2.161,0,0,1,1.7.832l0.9-.864a3.1,3.1,0,0,0-2.56-1.152c-1.585,0-2.705.88-2.705,2.176a2.415,2.415,0,0,0,1.984,2.321l0.785,0.256c1.04,0.336,1.424.72,1.424,1.28a1.218,1.218,0,0,1-1.408,1.088,2.147,2.147,0,0,1-2.049-1.264l-1.12.608a3.178,3.178,0,0,0,3.137,1.856C405.567,601.306,406.735,600.49,406.735,598.922Zm6.608,2.112V599.8a3.041,3.041,0,0,1-.976.16,1.153,1.153,0,0,1-1.329-1.36v-4.193h2.305v-1.264h-2.305v-2.224h-1.376v2.224h-1.7v1.264h1.7v4.369a2.252,2.252,0,0,0,2.449,2.448A3.828,3.828,0,0,0,413.343,601.034Zm10.528,0V599.8a3.043,3.043,0,0,1-.977.16,1.152,1.152,0,0,1-1.328-1.36v-4.193h2.305v-1.264h-2.305v-2.224H420.19v2.224h-1.7v1.264h1.7v4.369a2.252,2.252,0,0,0,2.448,2.448A3.835,3.835,0,0,0,423.871,601.034Zm2.159,0.112h1.376v-3.968c0-1.872,1.1-2.753,2.112-2.753a2.02,2.02,0,0,1,.753.128v-1.424a2.866,2.866,0,0,0-.625-0.064,2.38,2.38,0,0,0-2.24,1.632v-1.552H426.03v8Zm5.344-4a4.218,4.218,0,0,0,7.745,2.256l-1.088-.752a2.833,2.833,0,0,1-5.265-1.232h6.561a3.9,3.9,0,0,0,.016-0.416,3.728,3.728,0,0,0-3.808-4.017A4.054,4.054,0,0,0,431.374,597.146Zm4.113-2.945a2.394,2.394,0,0,1,2.448,2.1h-5.073A2.616,2.616,0,0,1,435.487,594.2Zm6.207,6.945h1.376v-3.968c0-1.872,1.024-2.929,2.32-2.929a1.921,1.921,0,0,1,1.889,2.177v4.72h1.36v-4.928a2.949,2.949,0,0,0-3.024-3.233,2.829,2.829,0,0,0-2.545,1.392v-1.232h-1.376v8Zm17.089-1.984-1.2-.672a2.713,2.713,0,0,1-2.5,1.536,2.882,2.882,0,0,1,0-5.761,2.712,2.712,0,0,1,2.5,1.537l1.2-.673a4.143,4.143,0,0,0-3.7-2.144,4.161,4.161,0,1,0,0,8.321A4.143,4.143,0,0,0,458.783,599.162Zm2.175,1.984h1.376v-3.968c0-1.872,1.024-2.929,2.32-2.929a1.921,1.921,0,0,1,1.888,2.177v4.72H467.9v-4.928a2.949,2.949,0,0,0-3.025-3.233,2.829,2.829,0,0,0-2.544,1.392v-5.232h-1.376v12Zm13.5-4a4,4,0,0,0,3.921,4.16,3.508,3.508,0,0,0,2.816-1.392v1.232h1.376v-8H481.2v1.232a3.508,3.508,0,0,0-2.816-1.392A4,4,0,0,0,474.461,597.146Zm6.849,0a2.733,2.733,0,1,1-2.72-2.9A2.731,2.731,0,0,1,481.31,597.146Zm4.255,7.345h1.376v-4.577a3.509,3.509,0,0,0,2.817,1.392,4.168,4.168,0,0,0,0-8.321,3.509,3.509,0,0,0-2.817,1.392v-1.232h-1.376v11.346Zm6.7-7.345a2.726,2.726,0,1,1-2.72-2.9A2.731,2.731,0,0,1,492.27,597.146Zm3.791,7.345h1.376v-4.577a3.509,3.509,0,0,0,2.817,1.392,4.168,4.168,0,0,0,0-8.321,3.509,3.509,0,0,0-2.817,1.392v-1.232h-1.376v11.346Zm6.705-7.345a2.726,2.726,0,1,1-2.72-2.9A2.731,2.731,0,0,1,502.766,597.146Zm3.167,0a4.218,4.218,0,0,0,7.745,2.256l-1.088-.752a2.833,2.833,0,0,1-5.265-1.232h6.561A3.9,3.9,0,0,0,513.9,597a3.728,3.728,0,0,0-3.809-4.017A4.054,4.054,0,0,0,505.933,597.146Zm4.112-2.945a2.394,2.394,0,0,1,2.449,2.1h-5.073A2.615,2.615,0,0,1,510.045,594.2Zm5.584,2.945a4,4,0,0,0,3.92,4.16,3.509,3.509,0,0,0,2.817-1.392v1.232h1.376v-8h-1.376v1.232a3.509,3.509,0,0,0-2.817-1.392A4,4,0,0,0,515.629,597.146Zm6.849,0a2.733,2.733,0,1,1-2.721-2.9A2.732,2.732,0,0,1,522.478,597.146Zm4.255,4h1.376v-3.968c0-1.872,1.1-2.753,2.112-2.753a2.011,2.011,0,0,1,.752.128v-1.424a2.851,2.851,0,0,0-.624-0.064,2.38,2.38,0,0,0-2.24,1.632v-1.552h-1.376v8Zm5.344-4a4.218,4.218,0,0,0,7.745,2.256l-1.088-.752a2.833,2.833,0,0,1-5.265-1.232h6.561a3.9,3.9,0,0,0,.016-0.416,3.728,3.728,0,0,0-3.809-4.017A4.054,4.054,0,0,0,532.077,597.146Zm4.112-2.945a2.394,2.394,0,0,1,2.449,2.1h-5.073A2.615,2.615,0,0,1,536.189,594.2Zm5.584,2.945a4,4,0,0,0,3.92,4.16,3.51,3.51,0,0,0,2.817-1.392v1.232h1.376v-12H548.51v5.232a3.51,3.51,0,0,0-2.817-1.392A4,4,0,0,0,541.773,597.146Zm6.849,0a2.733,2.733,0,1,1-2.721-2.9A2.732,2.732,0,0,1,548.622,597.146Zm10.223-7.121a0.966,0.966,0,0,0-.96-0.976,0.994,0.994,0,0,0-.993.976,0.984,0.984,0,0,0,.993.976A0.956,0.956,0,0,0,558.845,590.025Zm-1.665,11.121h1.377v-8H557.18v8Zm4.384,0h1.377v-3.968c0-1.872,1.024-2.929,2.32-2.929a1.921,1.921,0,0,1,1.888,2.177v4.72h1.36v-4.928a2.949,2.949,0,0,0-3.024-3.233,2.829,2.829,0,0,0-2.544,1.392v-1.232h-1.377v8Zm18.193-.112V599.8a3.043,3.043,0,0,1-.977.16,1.152,1.152,0,0,1-1.328-1.36v-4.193h2.3v-1.264h-2.3v-2.224h-1.376v2.224h-1.7v1.264h1.7v4.369a2.252,2.252,0,0,0,2.448,2.448A3.835,3.835,0,0,0,579.757,601.034Zm2.159,0.112h1.376v-3.968c0-1.872,1.024-2.929,2.32-2.929a1.921,1.921,0,0,1,1.889,2.177v4.72h1.36v-4.928a2.949,2.949,0,0,0-3.024-3.233,2.829,2.829,0,0,0-2.545,1.392v-5.232h-1.376v12Zm9.2-4a4.218,4.218,0,0,0,7.745,2.256l-1.088-.752a2.833,2.833,0,0,1-5.265-1.232h6.561a3.9,3.9,0,0,0,.016-0.416,3.728,3.728,0,0,0-3.809-4.017A4.054,4.054,0,0,0,591.116,597.146Zm4.112-2.945a2.4,2.4,0,0,1,2.449,2.1H592.6A2.615,2.615,0,0,1,595.228,594.2Zm10.72,6.945h4.064c2.3,0,3.809-1.424,3.809-3.312a2.709,2.709,0,0,0-1.969-2.721,2.575,2.575,0,0,0,1.217-2.32,3.112,3.112,0,0,0-3.393-3.008h-3.728v11.361Zm1.488-6.481v-3.536h2.24a1.786,1.786,0,0,1,1.936,1.776,1.748,1.748,0,0,1-1.936,1.76h-2.24Zm0,5.137v-3.856h2.656c1.5,0,2.272.832,2.272,1.936,0,1.12-.768,1.92-2.288,1.92h-2.64Zm8.143-2.656a4,4,0,0,0,3.921,4.16,3.508,3.508,0,0,0,2.816-1.392v1.232h1.377v-8h-1.377v1.232a3.508,3.508,0,0,0-2.816-1.392A4,4,0,0,0,615.579,597.146Zm6.849,0a2.733,2.733,0,1,1-2.72-2.9A2.731,2.731,0,0,1,622.428,597.146Zm4.255,4h1.377v-3.968c0-1.872,1.024-2.929,2.32-2.929a1.921,1.921,0,0,1,1.888,2.177v4.72h1.36v-4.928a2.949,2.949,0,0,0-3.024-3.233,2.829,2.829,0,0,0-2.544,1.392v-1.232h-1.377v8Zm9.2-4a4,4,0,0,0,3.921,4.16,3.508,3.508,0,0,0,2.816-1.392v1.232H644v-8H642.62v1.232a3.508,3.508,0,0,0-2.816-1.392A4,4,0,0,0,635.883,597.146Zm6.849,0a2.733,2.733,0,1,1-2.72-2.9A2.731,2.731,0,0,1,642.732,597.146Zm4.255,4h1.376v-3.968c0-1.872,1.024-2.929,2.321-2.929a1.921,1.921,0,0,1,1.888,2.177v4.72h1.36v-4.928a2.949,2.949,0,0,0-3.024-3.233,2.829,2.829,0,0,0-2.545,1.392v-1.232h-1.376v8Zm9.2-4a4,4,0,0,0,3.92,4.16,3.51,3.51,0,0,0,2.817-1.392v1.232H664.3v-8h-1.376v1.232a3.51,3.51,0,0,0-2.817-1.392A4,4,0,0,0,656.187,597.146Zm6.849,0a2.733,2.733,0,1,1-2.721-2.9A2.732,2.732,0,0,1,663.036,597.146Zm8.766,4h1.489v-5.168h1.1l4.368,5.168h1.873l-4.369-5.184a2.966,2.966,0,0,0,2.8-3.041,3.065,3.065,0,0,0-3.393-3.136H671.8v11.361Zm1.489-6.5v-3.488H675.5c1.3,0,2.08.608,2.08,1.76,0,1.136-.784,1.728-2.08,1.728h-2.208Zm8,2.5a4.218,4.218,0,0,0,7.745,2.256l-1.088-.752a2.832,2.832,0,0,1-5.264-1.232h6.56a3.9,3.9,0,0,0,.016-0.416,3.728,3.728,0,0,0-3.808-4.017A4.055,4.055,0,0,0,681.29,597.146ZM685.4,594.2a2.394,2.394,0,0,1,2.448,2.1h-5.072A2.615,2.615,0,0,1,685.4,594.2Zm6.207,10.29h1.377v-4.577a3.508,3.508,0,0,0,2.816,1.392,4.168,4.168,0,0,0,0-8.321,3.508,3.508,0,0,0-2.816,1.392v-1.232H691.61v11.346Zm6.705-7.345a2.725,2.725,0,1,1-2.72-2.9A2.731,2.731,0,0,1,698.315,597.146Zm3.679,0.912c0,1.984,1.184,3.248,2.945,3.248a2.752,2.752,0,0,0,2.464-1.392v1.232h1.376v-8H707.4v3.969c0,1.84-.976,2.928-2.224,2.928-1.1,0-1.809-.848-1.809-2.192v-4.705h-1.376v4.913Zm11.152,1.856a3.51,3.51,0,0,0,2.817,1.392,4.168,4.168,0,0,0,0-8.321,3.51,3.51,0,0,0-2.817,1.392v-5.232H711.77v12h1.376v-1.232Zm5.329-2.768a2.726,2.726,0,1,1-2.72-2.9A2.731,2.731,0,0,1,718.475,597.146Zm3.775,4h1.376v-12H722.25v12Zm6.048-11.121a0.966,0.966,0,0,0-.96-0.976,0.994,0.994,0,0,0-.992.976,0.983,0.983,0,0,0,.992.976A0.956,0.956,0,0,0,728.3,590.025Zm-1.664,11.121h1.376v-8h-1.376v8Zm11.649-1.984-1.2-.672a2.712,2.712,0,0,1-2.5,1.536,2.882,2.882,0,0,1,0-5.761,2.711,2.711,0,0,1,2.5,1.537l1.2-.673a4.143,4.143,0,0,0-3.7-2.144,4.161,4.161,0,1,0,0,8.321A4.143,4.143,0,0,0,738.283,599.162Zm13.743,0-1.2-.672a2.712,2.712,0,0,1-2.5,1.536,2.882,2.882,0,0,1,0-5.761,2.711,2.711,0,0,1,2.5,1.537l1.2-.673a4.143,4.143,0,0,0-3.7-2.144,4.161,4.161,0,1,0,0,8.321A4.143,4.143,0,0,0,752.026,599.162Zm1.551-2.016a4,4,0,0,0,3.921,4.16,3.508,3.508,0,0,0,2.816-1.392v1.232h1.376v-8h-1.376v1.232a3.508,3.508,0,0,0-2.816-1.392A4,4,0,0,0,753.577,597.146Zm6.849,0a2.733,2.733,0,1,1-2.72-2.9A2.731,2.731,0,0,1,760.426,597.146Zm8.592,3.888V599.8a3.041,3.041,0,0,1-.976.16,1.152,1.152,0,0,1-1.329-1.36v-4.193h2.305v-1.264h-2.305v-2.224h-1.376v2.224h-1.7v1.264h1.7v4.369a2.252,2.252,0,0,0,2.449,2.448A3.828,3.828,0,0,0,769.018,601.034Zm1.423-3.888a4,4,0,0,0,3.921,4.16,3.508,3.508,0,0,0,2.816-1.392v1.232h1.376v-8h-1.376v1.232a3.508,3.508,0,0,0-2.816-1.392A4,4,0,0,0,770.441,597.146Zm6.849,0a2.733,2.733,0,1,1-2.72-2.9A2.731,2.731,0,0,1,777.29,597.146Zm4.255,4h1.376v-12h-1.376v12Zm12.113-4a4.185,4.185,0,1,0-4.176,4.16A4.106,4.106,0,0,0,793.658,597.146Zm-6.961,0a2.778,2.778,0,1,1,2.785,2.88A2.751,2.751,0,0,1,786.7,597.146Zm16.785,3.536v-7.537h-1.376v1.232a3.406,3.406,0,0,0-2.785-1.392,4.076,4.076,0,0,0,0,8.145,3.418,3.418,0,0,0,2.785-1.408v0.912a2.558,2.558,0,0,1-2.673,2.769,3.42,3.42,0,0,1-2.8-1.345l-0.96.961a4.749,4.749,0,0,0,3.776,1.632A3.7,3.7,0,0,0,803.482,600.682Zm-6.673-3.632a2.706,2.706,0,1,1,2.7,2.8A2.667,2.667,0,0,1,796.809,597.05Zm15.632-7.025a0.966,0.966,0,0,0-.96-0.976,0.994,0.994,0,0,0-.993.976,0.984,0.984,0,0,0,.993.976A0.956,0.956,0,0,0,812.441,590.025Zm-1.665,11.121h1.377v-8h-1.377v8Zm4.384,0h1.377v-3.968c0-1.872,1.024-2.929,2.32-2.929a1.921,1.921,0,0,1,1.888,2.177v4.72h1.36v-4.928a2.949,2.949,0,0,0-3.024-3.233,2.829,2.829,0,0,0-2.544,1.392v-1.232H815.16v8Zm15.12,0h1.376V589.785h-2.448l-1.12,1.36h2.192v10Zm4.464,0h1.76l4.161-4.912a4.366,4.366,0,0,0,1.28-2.9,3.849,3.849,0,0,0-7.7.048,3.67,3.67,0,0,0,3.552,3.649,2.039,2.039,0,0,0,.448-0.032Zm0.912-7.777a2.441,2.441,0,1,1,2.432,2.449A2.414,2.414,0,0,1,835.656,593.369Zm15.617,4.369a3.177,3.177,0,0,0-1.776-2.977,2.66,2.66,0,0,0,1.152-2.24,2.949,2.949,0,0,0-3.185-2.928,2.989,2.989,0,0,0-3.2,2.928,2.649,2.649,0,0,0,1.184,2.24,3.177,3.177,0,0,0-1.808,2.977A3.825,3.825,0,0,0,851.273,597.738Zm-5.649-5.185a1.691,1.691,0,0,1,1.84-1.664,1.661,1.661,0,0,1,1.825,1.664,1.7,1.7,0,0,1-1.825,1.68A1.731,1.731,0,0,1,845.624,592.553Zm-0.592,5.185a2.255,2.255,0,0,1,2.432-2.272,2.269,2.269,0,1,1,0,4.528A2.261,2.261,0,0,1,845.032,597.738Zm16.4-.7v-3.169a4.032,4.032,0,1,0-8.049,0v3.169A4.032,4.032,0,1,0,861.433,597.034Zm-6.673,0v-3.169a2.662,2.662,0,1,1,5.3,0v3.169A2.662,2.662,0,1,1,854.76,597.034Zm13.007,0.112a4,4,0,0,0,3.921,4.16,3.508,3.508,0,0,0,2.816-1.392v1.232h1.377v-8H874.5v1.232a3.508,3.508,0,0,0-2.816-1.392A4,4,0,0,0,867.767,597.146Zm6.849,0a2.733,2.733,0,1,1-2.72-2.9A2.731,2.731,0,0,1,874.616,597.146Zm9.44,1.776c0-1.2-.752-1.968-2.112-2.416l-0.864-.288c-0.944-.3-1.233-0.608-1.233-1.121a1.133,1.133,0,0,1,1.345-.928,2.161,2.161,0,0,1,1.7.832l0.9-.864a3.1,3.1,0,0,0-2.56-1.152c-1.585,0-2.705.88-2.705,2.176a2.414,2.414,0,0,0,1.985,2.321l0.784,0.256c1.04,0.336,1.424.72,1.424,1.28a1.218,1.218,0,0,1-1.408,1.088,2.148,2.148,0,0,1-2.049-1.264l-1.12.608a3.179,3.179,0,0,0,3.137,1.856C882.888,601.306,884.056,600.49,884.056,598.922Zm6.047-1.776a4,4,0,0,0,3.92,4.16,3.509,3.509,0,0,0,2.817-1.392v1.232h1.376v-8H896.84v1.232a3.509,3.509,0,0,0-2.817-1.392A4,4,0,0,0,890.1,597.146Zm6.849,0a2.733,2.733,0,1,1-2.721-2.9A2.732,2.732,0,0,1,896.952,597.146Zm-852.757,28h1.456v-9.953h3.536v-1.408H40.659v1.408H44.2v9.953Zm5.52,0h1.376v-3.968c0-1.873,1.1-2.753,2.112-2.753a2.012,2.012,0,0,1,.752.128v-1.424a2.851,2.851,0,0,0-.624-0.064,2.38,2.38,0,0,0-2.24,1.632v-1.552H49.715v8Zm13.7-4a4.185,4.185,0,1,0-4.177,4.16A4.106,4.106,0,0,0,63.412,621.146Zm-6.961,0a2.778,2.778,0,1,1,2.784,2.88A2.751,2.751,0,0,1,56.451,621.146Zm9.328,7.345h1.376v-4.577a3.509,3.509,0,0,0,2.816,1.392,4.168,4.168,0,0,0,0-8.321,3.509,3.509,0,0,0-2.816,1.392v-1.232H65.778v11.346Zm6.7-7.345a2.726,2.726,0,1,1-2.72-2.9A2.732,2.732,0,0,1,72.483,621.146Zm5.455-7.121a0.966,0.966,0,0,0-.96-0.976,0.994,0.994,0,0,0-.992.976,0.983,0.983,0,0,0,.992.976A0.956,0.956,0,0,0,77.939,614.025Zm-1.664,11.121h1.376v-8H76.274v8Zm11.649-1.984-1.2-.672a2.712,2.712,0,0,1-2.5,1.536,2.882,2.882,0,0,1,0-5.761,2.711,2.711,0,0,1,2.5,1.537l1.2-.673a4.144,4.144,0,0,0-3.7-2.144,4.161,4.161,0,1,0,0,8.321A4.144,4.144,0,0,0,87.923,623.162Zm1.551-2.016a4,4,0,0,0,3.921,4.16,3.509,3.509,0,0,0,2.816-1.392v1.232h1.376v-8H96.211v1.232a3.509,3.509,0,0,0-2.816-1.392A4,4,0,0,0,89.474,621.146Zm6.849,0a2.733,2.733,0,1,1-2.72-2.9A2.732,2.732,0,0,1,96.323,621.146Zm4.255,4h1.376v-12h-1.376v12Zm8.9,0h1.488v-5.168h1.1l4.369,5.168h1.872l-4.369-5.184a2.966,2.966,0,0,0,2.8-3.041,3.065,3.065,0,0,0-3.393-3.136h-3.872v11.361Zm1.488-6.5v-3.488h2.208c1.3,0,2.08.608,2.08,1.76,0,1.136-.784,1.728-2.08,1.728h-2.208Zm8.032,2.5a4,4,0,0,0,3.92,4.16,3.512,3.512,0,0,0,2.817-1.392v1.232h1.376v-8h-1.376v1.232a3.512,3.512,0,0,0-2.817-1.392A4,4,0,0,0,118.994,621.146Zm6.849,0a2.733,2.733,0,1,1-2.721-2.9A2.732,2.732,0,0,1,125.843,621.146Zm5.919-7.121a0.966,0.966,0,0,0-.96-0.976,1,1,0,0,0-.993.976,0.984,0.984,0,0,0,.993.976A0.956,0.956,0,0,0,131.762,614.025ZM130.1,625.146h1.376v-8H130.1v8Zm4.383,0h1.377v-3.968c0-1.873,1.024-2.929,2.32-2.929a1.921,1.921,0,0,1,1.888,2.177v4.72h1.36v-4.928a2.949,2.949,0,0,0-3.024-3.233,2.829,2.829,0,0,0-2.544,1.392v-1.232h-1.377v8Zm17.089-1.984-1.2-.672a2.712,2.712,0,0,1-2.5,1.536,2.882,2.882,0,0,1,0-5.761,2.711,2.711,0,0,1,2.5,1.537l1.2-.673a4.143,4.143,0,0,0-3.7-2.144,4.161,4.161,0,1,0,0,8.321A4.143,4.143,0,0,0,151.57,623.162Zm9.9-2.016a4.185,4.185,0,1,0-4.176,4.16A4.106,4.106,0,0,0,161.474,621.146Zm-6.961,0a2.778,2.778,0,1,1,2.785,2.88A2.751,2.751,0,0,1,154.513,621.146Zm8.7,0a4,4,0,0,0,3.92,4.16,3.51,3.51,0,0,0,2.817-1.392v1.232h1.376v-8h-1.376v1.232a3.51,3.51,0,0,0-2.817-1.392A4,4,0,0,0,163.217,621.146Zm6.849,0a2.733,2.733,0,1,1-2.721-2.9A2.732,2.732,0,0,1,170.066,621.146Zm8.591,3.888V623.8a3.041,3.041,0,0,1-.976.16,1.152,1.152,0,0,1-1.328-1.36v-4.193h2.3v-1.264h-2.3v-2.224h-1.376v2.224h-1.7v1.264h1.7v4.369a2.252,2.252,0,0,0,2.448,2.448A3.828,3.828,0,0,0,178.657,625.034Zm12.961,0.112h1.216l2.72-8H194.1l-1.936,5.841-2-5.841h-1.056l-2,5.841-1.936-5.841h-1.441l2.721,8h1.216l1.984-5.76Zm7.487-11.121a0.967,0.967,0,0,0-.961-0.976,0.994,0.994,0,0,0-.992.976,0.983,0.983,0,0,0,.992.976A0.957,0.957,0,0,0,199.105,614.025Zm-1.665,11.121h1.377v-8H197.44v8Zm8.721-.112V623.8a3.041,3.041,0,0,1-.976.16,1.153,1.153,0,0,1-1.329-1.36v-4.193h2.305v-1.264h-2.305v-2.224H202.48v2.224h-1.7v1.264h1.7v4.369a2.252,2.252,0,0,0,2.449,2.448A3.828,3.828,0,0,0,206.161,625.034Zm2.159,0.112H209.7v-3.968c0-1.873,1.024-2.929,2.321-2.929a1.921,1.921,0,0,1,1.888,2.177v4.72h1.36v-4.928a2.949,2.949,0,0,0-3.024-3.233,2.831,2.831,0,0,0-2.545,1.392v-5.232H208.32v12Zm18.192-.112V623.8a3.041,3.041,0,0,1-.976.16,1.152,1.152,0,0,1-1.328-1.36v-4.193h2.3v-1.264h-2.3v-2.224h-1.376v2.224h-1.7v1.264h1.7v4.369a2.252,2.252,0,0,0,2.448,2.448A3.828,3.828,0,0,0,226.512,625.034Zm2.16,0.112h1.376v-3.968c0-1.873,1.024-2.929,2.32-2.929a1.921,1.921,0,0,1,1.889,2.177v4.72h1.36v-4.928a2.949,2.949,0,0,0-3.025-3.233,2.829,2.829,0,0,0-2.544,1.392v-5.232h-1.376v12Zm9.2-4a4.219,4.219,0,0,0,7.746,2.256l-1.089-.752a2.832,2.832,0,0,1-5.264-1.232h6.561a3.9,3.9,0,0,0,.016-0.416,3.729,3.729,0,0,0-3.809-4.017A4.055,4.055,0,0,0,237.871,621.146Zm4.113-2.945a2.394,2.394,0,0,1,2.448,2.1H239.36A2.615,2.615,0,0,1,241.984,618.2Zm17.776,4.961-1.2-.672a2.712,2.712,0,0,1-2.5,1.536,2.882,2.882,0,0,1,0-5.761,2.711,2.711,0,0,1,2.5,1.537l1.2-.673a4.143,4.143,0,0,0-3.7-2.144,4.161,4.161,0,1,0,0,8.321A4.143,4.143,0,0,0,259.76,623.162Zm1.551-2.016a4,4,0,0,0,3.921,4.16,3.508,3.508,0,0,0,2.816-1.392v1.232h1.376v-8h-1.376v1.232a3.508,3.508,0,0,0-2.816-1.392A4,4,0,0,0,261.311,621.146Zm6.849,0a2.733,2.733,0,1,1-2.72-2.9A2.731,2.731,0,0,1,268.16,621.146Zm4.255,7.345h1.376v-4.577a3.508,3.508,0,0,0,2.816,1.392,4.168,4.168,0,0,0,0-8.321,3.508,3.508,0,0,0-2.816,1.392v-1.232h-1.376v11.346Zm6.7-7.345a2.726,2.726,0,1,1-2.721-2.9A2.732,2.732,0,0,1,279.12,621.146Zm7.984,3.888V623.8a3.041,3.041,0,0,1-.976.16,1.152,1.152,0,0,1-1.329-1.36v-4.193H287.1v-1.264H284.8v-2.224h-1.376v2.224h-1.7v1.264h1.7v4.369a2.252,2.252,0,0,0,2.449,2.448A3.828,3.828,0,0,0,287.1,625.034Zm3.823-11.009a0.966,0.966,0,0,0-.96-0.976,0.994,0.994,0,0,0-.992.976,0.983,0.983,0,0,0,.992.976A0.956,0.956,0,0,0,290.927,614.025Zm-1.664,11.121h1.376v-8h-1.376v8Zm12.113-4a4.185,4.185,0,1,0-4.177,4.16A4.106,4.106,0,0,0,301.376,621.146Zm-6.961,0a2.778,2.778,0,1,1,2.784,2.88A2.751,2.751,0,0,1,294.415,621.146Zm9.328,4h1.376v-3.968c0-1.873,1.024-2.929,2.32-2.929a1.921,1.921,0,0,1,1.888,2.177v4.72h1.361v-4.928a2.949,2.949,0,0,0-3.025-3.233,2.829,2.829,0,0,0-2.544,1.392v-1.232h-1.376v8Zm13.695-8.721a1.356,1.356,0,0,0-.208.72,1.185,1.185,0,1,0,2.369,0,1.219,1.219,0,0,0-.657-1.072l1.073-2.288H319.1Zm2.977,0a1.356,1.356,0,0,0-.208.72,1.184,1.184,0,1,0,2.368,0,1.22,1.22,0,0,0-.656-1.072l1.072-2.288h-0.912Zm5.039,8.721h3.265a5.692,5.692,0,1,0,0-11.361h-3.265v11.361Zm1.488-1.392v-8.577h1.777a4.3,4.3,0,1,1,0,8.577h-1.777Zm11.824-9.729a0.966,0.966,0,0,0-.96-0.976,0.994,0.994,0,0,0-.992.976,0.983,0.983,0,0,0,.992.976A0.956,0.956,0,0,0,338.766,614.025ZM337.1,625.146h1.376v-8H337.1v8Zm9.569-2.224c0-1.2-.752-1.968-2.112-2.416l-0.865-.288c-0.944-.3-1.232-0.608-1.232-1.121a1.132,1.132,0,0,1,1.344-.928,2.162,2.162,0,0,1,1.7.832l0.9-.864a3.1,3.1,0,0,0-2.561-1.152c-1.584,0-2.7.88-2.7,2.176a2.415,2.415,0,0,0,1.984,2.321l0.784,0.256c1.041,0.336,1.425.72,1.425,1.28a1.218,1.218,0,0,1-1.409,1.088,2.147,2.147,0,0,1-2.048-1.264l-1.12.608a3.178,3.178,0,0,0,3.136,1.856C345.5,625.306,346.671,624.49,346.671,622.922Zm6.608,2.112V623.8a3.043,3.043,0,0,1-.977.16,1.152,1.152,0,0,1-1.328-1.36v-4.193h2.305v-1.264h-2.305v-2.224H349.6v2.224h-1.7v1.264h1.7v4.369a2.252,2.252,0,0,0,2.448,2.448A3.83,3.83,0,0,0,353.279,625.034Zm3.823-11.009a0.966,0.966,0,0,0-.96-0.976,0.994,0.994,0,0,0-.992.976,0.983,0.983,0,0,0,.992.976A0.956,0.956,0,0,0,357.1,614.025Zm-1.664,11.121h1.376v-8h-1.376v8Zm4.384,0H361.2v-3.968c0-1.873,1.024-2.929,2.32-2.929a1.921,1.921,0,0,1,1.889,2.177v4.72h1.36v-4.928a2.949,2.949,0,0,0-3.025-3.233,2.829,2.829,0,0,0-2.544,1.392v-1.232h-1.376v8Zm17.281-.464v-7.537h-1.376v1.232a3.407,3.407,0,0,0-2.785-1.392,4.076,4.076,0,0,0,0,8.145,3.42,3.42,0,0,0,2.785-1.408v0.912a2.558,2.558,0,0,1-2.673,2.769,3.42,3.42,0,0,1-2.8-1.345l-0.96.961a4.749,4.749,0,0,0,3.776,1.632A3.7,3.7,0,0,0,377.1,624.682Zm-6.673-3.632a2.706,2.706,0,1,1,2.7,2.8A2.667,2.667,0,0,1,370.43,621.05Zm9.552,1.008c0,1.984,1.184,3.248,2.944,3.248a2.752,2.752,0,0,0,2.464-1.392v1.232h1.376v-8H385.39v3.969c0,1.84-.976,2.928-2.224,2.928-1.1,0-1.808-.848-1.808-2.192v-4.705h-1.376v4.913Zm11.44-8.033a0.966,0.966,0,0,0-.96-0.976,0.994,0.994,0,0,0-.993.976,0.984,0.984,0,0,0,.993.976A0.956,0.956,0,0,0,391.422,614.025Zm-1.665,11.121h1.377v-8h-1.377v8Zm9.569-2.224c0-1.2-.752-1.968-2.112-2.416l-0.864-.288c-0.945-.3-1.233-0.608-1.233-1.121a1.133,1.133,0,0,1,1.345-.928,2.161,2.161,0,0,1,1.7.832l0.9-.864a3.1,3.1,0,0,0-2.56-1.152c-1.585,0-2.705.88-2.705,2.176a2.414,2.414,0,0,0,1.985,2.321l0.784,0.256c1.04,0.336,1.424.72,1.424,1.28a1.218,1.218,0,0,1-1.408,1.088,2.148,2.148,0,0,1-2.049-1.264l-1.12.608a3.178,3.178,0,0,0,3.137,1.856C398.158,625.306,399.326,624.49,399.326,622.922Zm2.367,2.224h1.376v-3.968c0-1.873,1.025-2.929,2.321-2.929a1.921,1.921,0,0,1,1.888,2.177v4.72h1.36v-4.928a2.949,2.949,0,0,0-3.024-3.233,2.831,2.831,0,0,0-2.545,1.392v-5.232h-1.376v12Zm9.2-4a4.218,4.218,0,0,0,7.745,2.256l-1.088-.752a2.833,2.833,0,0,1-5.265-1.232h6.561a3.9,3.9,0,0,0,.016-0.416,3.728,3.728,0,0,0-3.808-4.017A4.054,4.054,0,0,0,410.893,621.146Zm4.113-2.945a2.394,2.394,0,0,1,2.448,2.1h-5.073A2.616,2.616,0,0,1,415.006,618.2Zm5.583,2.945a4,4,0,0,0,3.92,4.16,3.509,3.509,0,0,0,2.817-1.392v1.232H428.7v-12h-1.376v5.232a3.509,3.509,0,0,0-2.817-1.392A4,4,0,0,0,420.589,621.146Zm6.849,0a2.733,2.733,0,1,1-2.721-2.9A2.732,2.732,0,0,1,427.438,621.146Zm8.559,4h1.376v-3.968c0-1.873,1.1-2.753,2.112-2.753a2.011,2.011,0,0,1,.752.128v-1.424a2.851,2.851,0,0,0-.624-0.064,2.38,2.38,0,0,0-2.24,1.632v-1.552H436v8Zm5.359-4a4,4,0,0,0,3.921,4.16,3.508,3.508,0,0,0,2.816-1.392v1.232h1.377v-8h-1.377v1.232a3.508,3.508,0,0,0-2.816-1.392A4,4,0,0,0,441.356,621.146Zm6.849,0a2.733,2.733,0,1,1-2.72-2.9A2.731,2.731,0,0,1,448.205,621.146Zm5.92-7.121a0.966,0.966,0,0,0-.961-0.976,0.994,0.994,0,0,0-.992.976,0.983,0.983,0,0,0,.992.976A0.957,0.957,0,0,0,454.125,614.025Zm-1.665,11.121h1.377v-8H452.46v8Zm4.384,0h1.376v-3.968c0-1.873,1.025-2.929,2.321-2.929a1.921,1.921,0,0,1,1.888,2.177v4.72h1.36v-4.928a2.949,2.949,0,0,0-3.024-3.233,2.831,2.831,0,0,0-2.545,1.392v-1.232h-1.376v8Zm21.585-.464v-7.537h-1.376v1.232a3.406,3.406,0,0,0-2.785-1.392,4.076,4.076,0,0,0,0,8.145,3.418,3.418,0,0,0,2.785-1.408v0.912a2.558,2.558,0,0,1-2.673,2.769,3.42,3.42,0,0,1-2.8-1.345l-0.96.961a4.749,4.749,0,0,0,3.776,1.632A3.7,3.7,0,0,0,478.429,624.682Zm-6.673-3.632a2.706,2.706,0,1,1,2.7,2.8A2.667,2.667,0,0,1,471.756,621.05Zm9.04,0.1a4.218,4.218,0,0,0,7.745,2.256l-1.088-.752a2.833,2.833,0,0,1-5.265-1.232h6.561a3.9,3.9,0,0,0,.016-0.416,3.729,3.729,0,0,0-3.809-4.017A4.054,4.054,0,0,0,480.8,621.146Zm4.112-2.945a2.394,2.394,0,0,1,2.448,2.1h-5.072A2.615,2.615,0,0,1,484.908,618.2Zm5.583,2.945a4,4,0,0,0,3.921,4.16,3.508,3.508,0,0,0,2.816-1.392v1.232h1.377v-8h-1.377v1.232a3.508,3.508,0,0,0-2.816-1.392A4,4,0,0,0,490.491,621.146Zm6.85,0a2.733,2.733,0,1,1-2.721-2.9A2.732,2.732,0,0,1,497.341,621.146Zm4.254,4h1.377v-3.968c0-1.873,1.1-2.753,2.112-2.753a2.011,2.011,0,0,1,.752.128v-1.424a2.851,2.851,0,0,0-.624-0.064,2.38,2.38,0,0,0-2.24,1.632v-1.552H501.6v8Zm7.089-.352a1.368,1.368,0,0,0,.224-0.72,1.185,1.185,0,1,0-2.369,0,1.19,1.19,0,0,0,.657,1.072l-1.073,2.289h0.912Zm8.751-10.769a0.966,0.966,0,0,0-.96-0.976,0.994,0.994,0,0,0-.992.976,0.983,0.983,0,0,0,.992.976A0.956,0.956,0,0,0,517.435,614.025Zm-1.664,11.121h1.376v-8h-1.376v8Zm4.384,0h1.376v-3.968c0-1.873,1.024-2.929,2.321-2.929a1.921,1.921,0,0,1,1.888,2.177v4.72h1.36v-4.928a2.949,2.949,0,0,0-3.024-3.233,2.829,2.829,0,0,0-2.545,1.392v-1.232h-1.376v8Zm9.2-4a4,4,0,0,0,3.92,4.16,3.509,3.509,0,0,0,2.817-1.392v1.232h1.376v-12h-1.376v5.232a3.509,3.509,0,0,0-2.817-1.392A4,4,0,0,0,529.355,621.146Zm6.849,0a2.733,2.733,0,1,1-2.721-2.9A2.732,2.732,0,0,1,536.2,621.146Zm3.631,0a4.218,4.218,0,0,0,7.745,2.256l-1.088-.752a2.833,2.833,0,0,1-5.265-1.232h6.561A3.9,3.9,0,0,0,547.8,621,3.728,3.728,0,0,0,544,616.985,4.054,4.054,0,0,0,539.835,621.146Zm4.112-2.945a2.4,2.4,0,0,1,2.449,2.1h-5.073A2.615,2.615,0,0,1,543.947,618.2Zm5.584,2.945a4.218,4.218,0,0,0,7.745,2.256l-1.088-.752a2.833,2.833,0,0,1-5.265-1.232h6.561A3.9,3.9,0,0,0,557.5,621a3.729,3.729,0,0,0-3.809-4.017A4.054,4.054,0,0,0,549.531,621.146Zm4.112-2.945a2.4,2.4,0,0,1,2.449,2.1h-5.073A2.615,2.615,0,0,1,553.643,618.2Zm5.583,2.945a4,4,0,0,0,3.921,4.16,3.508,3.508,0,0,0,2.816-1.392v1.232h1.377v-12h-1.377v5.232a3.508,3.508,0,0,0-2.816-1.392A4,4,0,0,0,559.226,621.146Zm6.85,0a2.733,2.733,0,1,1-2.721-2.9A2.732,2.732,0,0,1,566.076,621.146Zm6.159,2.928a1.185,1.185,0,1,0-1.184,1.2A1.205,1.205,0,0,0,572.235,624.074Zm2.64-8.561a1.414,1.414,0,0,0,.224-0.72,1.192,1.192,0,1,0-2.384,0,1.24,1.24,0,0,0,.656,1.072l-1.072,2.288h0.928Zm2.976,0a1.414,1.414,0,0,0,.224-0.72,1.192,1.192,0,1,0-2.384,0,1.24,1.24,0,0,0,.656,1.072l-1.072,2.288H576.2Zm6,7.777a4.388,4.388,0,0,0,3.985,2.048c2.112,0,3.616-1.216,3.616-3.152,0-1.68-.96-2.64-2.64-3.281l-1.376-.528c-1.153-.432-1.713-0.864-1.713-1.824a1.81,1.81,0,0,1,2.049-1.568,2.811,2.811,0,0,1,2.256,1.12l1.088-.96a4.143,4.143,0,0,0-3.312-1.552c-2.033,0-3.553,1.168-3.553,3.024,0,1.552.8,2.48,2.577,3.137l1.5,0.576a2.065,2.065,0,0,1,1.632,1.92,1.844,1.844,0,0,1-2.1,1.7,3.176,3.176,0,0,1-2.817-1.552Zm11.632-9.265a0.966,0.966,0,0,0-.96-0.976,0.994,0.994,0,0,0-.992.976,0.983,0.983,0,0,0,.992.976A0.956,0.956,0,0,0,595.482,614.025Zm-1.664,11.121h1.376v-8h-1.376v8Zm4.384,0h1.376v-3.968c0-1.873,1.024-2.929,2.321-2.929a1.921,1.921,0,0,1,1.888,2.177v4.72h1.36v-4.928a2.949,2.949,0,0,0-3.024-3.233,2.829,2.829,0,0,0-2.545,1.392v-1.232H598.2v8Zm17.089-1.984-1.2-.672a2.712,2.712,0,0,1-2.5,1.536,2.882,2.882,0,0,1,0-5.761,2.711,2.711,0,0,1,2.5,1.537l1.2-.673a4.143,4.143,0,0,0-3.7-2.144,4.161,4.161,0,1,0,0,8.321A4.143,4.143,0,0,0,615.291,623.162Zm1.551-2.016a4.218,4.218,0,0,0,7.745,2.256l-1.088-.752a2.833,2.833,0,0,1-5.265-1.232h6.561a3.9,3.9,0,0,0,.016-0.416A3.729,3.729,0,0,0,621,616.985,4.054,4.054,0,0,0,616.842,621.146Zm4.112-2.945a2.4,2.4,0,0,1,2.449,2.1H618.33A2.615,2.615,0,0,1,620.954,618.2Zm14.576,6.833V623.8a3.041,3.041,0,0,1-.976.16,1.152,1.152,0,0,1-1.328-1.36v-4.193h2.3v-1.264h-2.3v-2.224H631.85v2.224h-1.7v1.264h1.7v4.369a2.252,2.252,0,0,0,2.448,2.448A3.828,3.828,0,0,0,635.53,625.034Zm2.159,0.112h1.377v-3.968c0-1.873,1.024-2.929,2.32-2.929a1.921,1.921,0,0,1,1.888,2.177v4.72h1.36v-4.928a2.949,2.949,0,0,0-3.024-3.233,2.829,2.829,0,0,0-2.544,1.392v-5.232h-1.377v12Zm9.2-4a4.218,4.218,0,0,0,7.745,2.256l-1.088-.752a2.833,2.833,0,0,1-5.265-1.232h6.561a3.9,3.9,0,0,0,.016-0.416,3.728,3.728,0,0,0-3.808-4.017A4.054,4.054,0,0,0,646.889,621.146ZM651,618.2a2.394,2.394,0,0,1,2.448,2.1h-5.073A2.616,2.616,0,0,1,651,618.2Zm6.207,6.945h1.376v-3.968c0-1.873,1.024-2.929,2.321-2.929a1.921,1.921,0,0,1,1.888,2.177v4.72h1.36v-4.928a2.949,2.949,0,0,0-3.024-3.233,2.831,2.831,0,0,0-2.545,1.392v-1.232h-1.376v8Zm11.536-.352a1.368,1.368,0,0,0,.224-0.72,1.184,1.184,0,1,0-2.368,0,1.191,1.191,0,0,0,.656,1.072l-1.072,2.289H667.1Zm11.152,0.24V623.8a3.041,3.041,0,0,1-.976.16,1.152,1.152,0,0,1-1.328-1.36v-4.193h2.3v-1.264h-2.3v-2.224h-1.376v2.224h-1.7v1.264h1.7v4.369a2.252,2.252,0,0,0,2.448,2.448A3.828,3.828,0,0,0,679.9,625.034Zm2.16,0.112h1.376v-3.968c0-1.873,1.024-2.929,2.32-2.929a1.921,1.921,0,0,1,1.889,2.177v4.72H689v-4.928a2.949,2.949,0,0,0-3.025-3.233,2.829,2.829,0,0,0-2.544,1.392v-5.232h-1.376v12Zm9.2-4A4.219,4.219,0,0,0,699,623.4l-1.089-.752a2.832,2.832,0,0,1-5.264-1.232h6.561a3.9,3.9,0,0,0,.016-0.416,3.729,3.729,0,0,0-3.809-4.017A4.055,4.055,0,0,0,691.256,621.146Zm4.113-2.945a2.394,2.394,0,0,1,2.448,2.1h-5.072A2.615,2.615,0,0,1,695.369,618.2Zm14.576,6.833V623.8a3.041,3.041,0,0,1-.976.16,1.152,1.152,0,0,1-1.328-1.36v-4.193h2.3v-1.264h-2.3v-2.224h-1.377v2.224h-1.7v1.264h1.7v4.369a2.252,2.252,0,0,0,2.449,2.448A3.828,3.828,0,0,0,709.945,625.034Zm2.159,0.112h1.376v-3.968c0-1.873,1.105-2.753,2.113-2.753a2.011,2.011,0,0,1,.752.128v-1.424a2.851,2.851,0,0,0-.624-0.064,2.381,2.381,0,0,0-2.241,1.632v-1.552H712.1v8Zm5.344-4a4.218,4.218,0,0,0,7.745,2.256l-1.088-.752a2.833,2.833,0,0,1-5.265-1.232H725.4a3.9,3.9,0,0,0,.016-0.416,3.728,3.728,0,0,0-3.808-4.017A4.055,4.055,0,0,0,717.448,621.146Zm4.113-2.945a2.394,2.394,0,0,1,2.448,2.1h-5.073A2.617,2.617,0,0,1,721.561,618.2Zm6.207,6.945h1.377v-3.968c0-1.873,1.024-2.929,2.32-2.929a1.921,1.921,0,0,1,1.888,2.177v4.72h1.36v-4.928a2.949,2.949,0,0,0-3.024-3.233,2.829,2.829,0,0,0-2.544,1.392v-1.232h-1.377v8Zm17.089-1.984-1.2-.672a2.712,2.712,0,0,1-2.5,1.536,2.882,2.882,0,0,1,0-5.761,2.711,2.711,0,0,1,2.5,1.537l1.2-.673a4.143,4.143,0,0,0-3.7-2.144,4.161,4.161,0,1,0,0,8.321A4.143,4.143,0,0,0,744.857,623.162Zm2.175,1.984h1.376v-3.968c0-1.873,1.024-2.929,2.32-2.929a1.921,1.921,0,0,1,1.889,2.177v4.72h1.36v-4.928a2.949,2.949,0,0,0-3.025-3.233,2.829,2.829,0,0,0-2.544,1.392v-5.232h-1.376v12Zm14.127,0h1.377v-3.968c0-1.873,1.024-2.929,2.32-2.929a1.921,1.921,0,0,1,1.888,2.177v4.72h1.361v-4.928a2.949,2.949,0,0,0-3.025-3.233,2.829,2.829,0,0,0-2.544,1.392v-5.232h-1.377v12Zm9.2-4a4,4,0,0,0,3.921,4.16,3.508,3.508,0,0,0,2.816-1.392v1.232h1.376v-8H777.1v1.232a3.508,3.508,0,0,0-2.816-1.392A4,4,0,0,0,770.359,621.146Zm6.849,0a2.733,2.733,0,1,1-2.72-2.9A2.731,2.731,0,0,1,777.208,621.146Zm9.44,1.776c0-1.2-.752-1.968-2.112-2.416l-0.865-.288c-0.944-.3-1.232-0.608-1.232-1.121a1.132,1.132,0,0,1,1.344-.928,2.162,2.162,0,0,1,1.7.832l0.9-.864a3.1,3.1,0,0,0-2.561-1.152c-1.584,0-2.7.88-2.7,2.176a2.415,2.415,0,0,0,1.984,2.321l0.784,0.256c1.041,0.336,1.425.72,1.425,1.28a1.218,1.218,0,0,1-1.409,1.088,2.147,2.147,0,0,1-2.048-1.264l-1.12.608a3.178,3.178,0,0,0,3.136,1.856C785.48,625.306,786.648,624.49,786.648,622.922Zm8.047,0.992a3.508,3.508,0,0,0,2.816,1.392,4.168,4.168,0,0,0,0-8.321,3.508,3.508,0,0,0-2.816,1.392v-5.232h-1.376v12H794.7v-1.232Zm5.329-2.768a2.726,2.726,0,1,1-2.721-2.9A2.732,2.732,0,0,1,800.024,621.146Zm3.151,0a4.218,4.218,0,0,0,7.745,2.256l-1.088-.752a2.833,2.833,0,0,1-5.265-1.232h6.561a3.9,3.9,0,0,0,.016-0.416,3.728,3.728,0,0,0-3.809-4.017A4.054,4.054,0,0,0,803.175,621.146Zm4.112-2.945a2.4,2.4,0,0,1,2.449,2.1h-5.073A2.615,2.615,0,0,1,807.287,618.2Zm13.473,4.961-1.2-.672a2.712,2.712,0,0,1-2.5,1.536,2.882,2.882,0,0,1,0-5.761,2.711,2.711,0,0,1,2.5,1.537l1.2-.673a4.145,4.145,0,0,0-3.7-2.144,4.161,4.161,0,1,0,0,8.321A4.145,4.145,0,0,0,820.76,623.162Zm9.9-2.016a4.185,4.185,0,1,0-4.176,4.16A4.106,4.106,0,0,0,830.663,621.146Zm-6.961,0a2.778,2.778,0,1,1,2.785,2.88A2.751,2.751,0,0,1,823.7,621.146Zm9.328,4h1.376v-3.968c0-1.808.913-2.929,2.209-2.929,1.04,0,1.568.9,1.568,2.193v4.7h1.376v-3.968c0-1.808.9-2.929,2.192-2.929,1.041,0,1.585.9,1.585,2.193v4.7h1.376v-4.912c0-1.953-1.056-3.249-2.8-3.249a2.769,2.769,0,0,0-2.624,1.712,2.515,2.515,0,0,0-2.464-1.712,2.691,2.691,0,0,0-2.417,1.392v-1.232H833.03v8Zm13.936-4a4.218,4.218,0,0,0,7.745,2.256l-1.088-.752a2.833,2.833,0,0,1-5.265-1.232h6.561a3.9,3.9,0,0,0,.016-0.416,3.728,3.728,0,0,0-3.808-4.017A4.054,4.054,0,0,0,846.966,621.146Zm4.113-2.945a2.394,2.394,0,0,1,2.448,2.1h-5.073A2.616,2.616,0,0,1,851.079,618.2Zm9.887,2.945a4,4,0,0,0,3.92,4.16,3.51,3.51,0,0,0,2.817-1.392v1.232h1.376v-8H867.7v1.232a3.51,3.51,0,0,0-2.817-1.392A4,4,0,0,0,860.966,621.146Zm6.849,0a2.733,2.733,0,1,1-2.721-2.9A2.732,2.732,0,0,1,867.815,621.146Zm8.558,4h1.377v-3.968c0-1.873,1.024-2.929,2.32-2.929a1.921,1.921,0,0,1,1.888,2.177v4.72h1.361v-4.928a2.949,2.949,0,0,0-3.025-3.233,2.829,2.829,0,0,0-2.544,1.392v-5.232h-1.377v12Zm9.2-4a4,4,0,0,0,3.921,4.16,3.508,3.508,0,0,0,2.816-1.392v1.232h1.376v-8H892.31v1.232a3.508,3.508,0,0,0-2.816-1.392A4,4,0,0,0,885.573,621.146Zm6.849,0a2.733,2.733,0,1,1-2.72-2.9A2.731,2.731,0,0,1,892.422,621.146Zm4.255,4h1.376v-12h-1.376v12Zm4.384,0h1.376v-12h-1.376v12Zm4.384,0h1.376v-3.968c0-1.808.912-2.929,2.209-2.929,1.04,0,1.568.9,1.568,2.193v4.7h1.376v-3.968c0-1.808.9-2.929,2.192-2.929,1.04,0,1.584.9,1.584,2.193v4.7h1.377v-4.912c0-1.953-1.056-3.249-2.8-3.249A2.769,2.769,0,0,0,911.7,618.7a2.515,2.515,0,0,0-2.464-1.712,2.689,2.689,0,0,0-2.417,1.392v-1.232h-1.376v8Zm13.936-4a4,4,0,0,0,3.92,4.16,3.51,3.51,0,0,0,2.817-1.392v1.232h1.376v-8h-1.376v1.232a3.51,3.51,0,0,0-2.817-1.392A4,4,0,0,0,919.381,621.146Zm6.849,0a2.733,2.733,0,1,1-2.721-2.9A2.732,2.732,0,0,1,926.23,621.146Zm4.255,4h1.376v-3.968c0-1.873,1.1-2.753,2.112-2.753a2.011,2.011,0,0,1,.752.128v-1.424a2.851,2.851,0,0,0-.624-0.064,2.38,2.38,0,0,0-2.24,1.632v-1.552h-1.376v8Zm6.256,0h1.376v-4l4.337,4h1.856l-4.817-4.464,3.937-3.537h-1.825l-3.488,3.121v-7.121h-1.376v12Zm-887.329,20a4.185,4.185,0,1,0-4.177,4.16A4.106,4.106,0,0,0,49.412,645.146Zm-6.961,0a2.778,2.778,0,1,1,2.784,2.88A2.751,2.751,0,0,1,42.451,645.146Zm9.872,4H53.7v-6.737h2.32v-1.264H53.7v-1.472a1.152,1.152,0,0,1,1.328-1.36,3.223,3.223,0,0,1,.992.16v-1.216a3.638,3.638,0,0,0-1.248-.208,2.285,2.285,0,0,0-2.448,2.48v1.616h-1.7v1.264h1.7v6.737Zm8.864-4a4.218,4.218,0,0,0,7.745,2.256l-1.088-.752a2.833,2.833,0,0,1-5.265-1.232h6.561A3.9,3.9,0,0,0,69.155,645a3.728,3.728,0,0,0-3.808-4.017A4.054,4.054,0,0,0,61.186,645.146ZM65.3,642.2a2.394,2.394,0,0,1,2.448,2.1H62.675A2.615,2.615,0,0,1,65.3,642.2Zm5.583,2.945a4,4,0,0,0,3.921,4.16,3.509,3.509,0,0,0,2.816-1.392v1.232H79v-8H77.619v1.232a3.509,3.509,0,0,0-2.816-1.392A4,4,0,0,0,70.882,645.146Zm6.849,0a2.733,2.733,0,1,1-2.72-2.9A2.732,2.732,0,0,1,77.731,645.146Zm11.52,2.016-1.2-.672a2.712,2.712,0,0,1-2.5,1.536,2.882,2.882,0,0,1,0-5.761,2.711,2.711,0,0,1,2.5,1.537l1.2-.673a4.144,4.144,0,0,0-3.7-2.144,4.161,4.161,0,1,0,0,8.321A4.144,4.144,0,0,0,89.251,647.162Zm2.175,1.984H92.8v-3.968c0-1.873,1.024-2.929,2.32-2.929a1.921,1.921,0,0,1,1.888,2.177v4.72h1.36v-4.928a2.949,2.949,0,0,0-3.024-3.233,2.829,2.829,0,0,0-2.544,1.392v-5.232H91.426v12Zm21.393-1.984-1.2-.672a2.712,2.712,0,0,1-2.5,1.536,2.882,2.882,0,0,1,0-5.761,2.711,2.711,0,0,1,2.5,1.537l1.2-.673a4.146,4.146,0,0,0-3.7-2.144,4.161,4.161,0,1,0,0,8.321A4.146,4.146,0,0,0,112.819,647.162Zm9.9-2.016a4.185,4.185,0,1,0-4.176,4.16A4.106,4.106,0,0,0,122.722,645.146Zm-6.961,0a2.778,2.778,0,1,1,2.785,2.88A2.751,2.751,0,0,1,115.761,645.146Zm9.328,4h1.376v-12h-1.376v12Zm4.384,0h1.376v-12h-1.376v12Zm3.76-4a4.218,4.218,0,0,0,7.745,2.256l-1.088-.752a2.833,2.833,0,0,1-5.265-1.232h6.561A3.9,3.9,0,0,0,141.2,645a3.728,3.728,0,0,0-3.809-4.017A4.054,4.054,0,0,0,133.233,645.146Zm4.112-2.945a2.394,2.394,0,0,1,2.449,2.1h-5.073A2.615,2.615,0,0,1,137.345,642.2Zm13.473,4.961-1.2-.672a2.713,2.713,0,0,1-2.5,1.536,2.882,2.882,0,0,1,0-5.761,2.712,2.712,0,0,1,2.5,1.537l1.2-.673a4.143,4.143,0,0,0-3.7-2.144,4.161,4.161,0,1,0,0,8.321A4.143,4.143,0,0,0,150.818,647.162Zm6.511,1.872V647.8a3.041,3.041,0,0,1-.976.16,1.152,1.152,0,0,1-1.328-1.36v-4.193h2.3v-1.264h-2.3v-2.224h-1.376v2.224h-1.7v1.264h1.7v4.369a2.252,2.252,0,0,0,2.448,2.448A3.828,3.828,0,0,0,157.329,649.034Zm3.824-11.009a0.966,0.966,0,0,0-.96-0.976,1,1,0,0,0-.993.976,0.984,0.984,0,0,0,.993.976A0.956,0.956,0,0,0,161.153,638.025Zm-1.664,11.121h1.376v-8h-1.376v8Zm12.112-4a4.185,4.185,0,1,0-4.176,4.16A4.106,4.106,0,0,0,171.6,645.146Zm-6.961,0a2.778,2.778,0,1,1,2.785,2.88A2.751,2.751,0,0,1,164.64,645.146Zm9.328,4h1.376v-3.968c0-1.873,1.025-2.929,2.321-2.929a1.921,1.921,0,0,1,1.888,2.177v4.72h1.36v-4.928a2.949,2.949,0,0,0-3.024-3.233,2.831,2.831,0,0,0-2.545,1.392v-1.232h-1.376v8Zm9.568-3.792h8.081v-1.376h-8.081v1.376Zm10.816,3.792h1.376v-3.968c0-1.873,1.1-2.753,2.112-2.753a2.02,2.02,0,0,1,.753.128v-1.424a2.866,2.866,0,0,0-.625-0.064,2.38,2.38,0,0,0-2.24,1.632v-1.552h-1.376v8Zm5.36-4a4,4,0,0,0,3.92,4.16,3.509,3.509,0,0,0,2.817-1.392v1.232h1.376v-8h-1.376v1.232a3.509,3.509,0,0,0-2.817-1.392A4,4,0,0,0,199.712,645.146Zm6.849,0a2.733,2.733,0,1,1-2.721-2.9A2.732,2.732,0,0,1,206.561,645.146Zm5.919-7.121a0.966,0.966,0,0,0-.96-0.976,0.994,0.994,0,0,0-.992.976,0.983,0.983,0,0,0,.992.976A0.956,0.956,0,0,0,212.48,638.025Zm-1.664,11.121h1.376v-8h-1.376v8Zm4.384,0h1.376v-3.968c0-1.873,1.024-2.929,2.32-2.929a1.921,1.921,0,0,1,1.888,2.177v4.72h1.361v-4.928a2.949,2.949,0,0,0-3.025-3.233,2.829,2.829,0,0,0-2.544,1.392v-1.232H215.2v8Zm21.856-4a4.185,4.185,0,1,0-4.176,4.16A4.106,4.106,0,0,0,237.056,645.146Zm-6.961,0a2.778,2.778,0,1,1,2.785,2.88A2.751,2.751,0,0,1,230.1,645.146Zm9.328,4H240.8v-3.968c0-1.873,1.1-2.753,2.113-2.753a2.011,2.011,0,0,1,.752.128v-1.424a2.851,2.851,0,0,0-.624-0.064A2.38,2.38,0,0,0,240.8,642.7v-1.552h-1.376v8Zm15.345-2.224c0-1.2-.752-1.968-2.113-2.416l-0.864-.288c-0.944-.3-1.232-0.608-1.232-1.121a1.132,1.132,0,0,1,1.344-.928,2.161,2.161,0,0,1,1.7.832l0.9-.864a3.1,3.1,0,0,0-2.561-1.152c-1.584,0-2.7.88-2.7,2.176a2.415,2.415,0,0,0,1.984,2.321L252,645.738c1.04,0.336,1.424.72,1.424,1.28a1.218,1.218,0,0,1-1.408,1.088,2.147,2.147,0,0,1-2.048-1.264l-1.12.608a3.178,3.178,0,0,0,3.136,1.856C253.6,649.306,254.768,648.49,254.768,646.922Zm2.367,2.224h1.376v-3.968c0-1.873,1.024-2.929,2.32-2.929a1.921,1.921,0,0,1,1.889,2.177v4.72h1.36v-4.928a2.949,2.949,0,0,0-3.025-3.233,2.829,2.829,0,0,0-2.544,1.392v-5.232h-1.376v12Zm11.488-11.121a0.966,0.966,0,0,0-.96-0.976,0.994,0.994,0,0,0-.992.976,0.983,0.983,0,0,0,.992.976A0.956,0.956,0,0,0,268.623,638.025Zm-1.664,11.121h1.376v-8h-1.376v8Zm4.383,0h1.377v-3.968c0-1.873,1.024-2.929,2.32-2.929a1.921,1.921,0,0,1,1.888,2.177v4.72h1.36v-4.928a2.949,2.949,0,0,0-3.024-3.233,2.829,2.829,0,0,0-2.544,1.392v-1.232h-1.377v8Zm9.2-4a4.218,4.218,0,0,0,7.745,2.256l-1.088-.752a2.833,2.833,0,0,1-5.265-1.232H288.5a3.9,3.9,0,0,0,.016-0.416,3.728,3.728,0,0,0-3.808-4.017A4.054,4.054,0,0,0,280.542,645.146Zm4.113-2.945a2.394,2.394,0,0,1,2.448,2.1H282.03A2.616,2.616,0,0,1,284.655,642.2Zm8.111,5.873a1.184,1.184,0,1,0-1.184,1.2A1.205,1.205,0,0,0,292.766,648.074Z"/>
  <path id="IN_THE_TRENCHES" data-name="IN THE TRENCHES" class="cls-1" d="M41.061,560.436H46.3V537.027H41.061v23.409Zm33.343,0V537.027H69.13v14.441L57.755,537.027H53.238v23.409H58.48V545.962l11.408,14.474H74.4Zm19.452,0h5.275v-18.4h6.033v-5.012H87.889v5.012h5.968v18.4Zm16.5,0H115.6v-9.265h9.43v9.265h5.242V537.027h-5.242v9.166H115.6v-9.166H110.36v23.409Zm26.862,0h14.837v-5.012h-9.595v-4.187h7.616v-5.011h-7.616v-4.187h9.595v-5.012H137.222v23.409Zm33.326,0h5.275v-18.4h6.034v-5.012H164.581v5.012h5.967v18.4Zm16.5,0h5.242v-9.66h0.857l7.781,9.66h6.3l-8.275-10.32c2.967-1.055,4.583-3,4.583-6.033a6.912,6.912,0,0,0-7.254-7.056h-9.231v23.409Zm5.242-14.111v-4.484h3.363c1.549,0,2.67.824,2.67,2.242,0,1.351-1.121,2.242-2.67,2.242h-3.363Zm18.583,14.111h14.837v-5.012h-9.595v-4.187h7.616v-5.011h-7.616v-4.187h9.595v-5.012H210.877v23.409Zm41.99,0V537.027h-5.275v14.441l-11.375-14.441H231.7v23.409h5.242V545.962l11.408,14.474h4.517Zm17.73,0.395a12.1,12.1,0,0,0,10.946-6.4l-4.616-2.5a7.023,7.023,0,1,1,0-6.4l4.616-2.5A12.2,12.2,0,1,0,270.6,560.831Zm16.015-.395h5.242v-9.265h9.429v9.265h5.243V537.027h-5.243v9.166h-9.429v-9.166h-5.242v23.409Zm26.862,0H328.31v-5.012h-9.594v-4.187h7.616v-5.011h-7.616v-4.187h9.594v-5.012H313.474v23.409Zm27.812,0.395c4.946,0,8.342-2.967,8.375-7.22,0.033-3.528-2.176-5.77-5.572-6.99l-1.649-.593c-2.473-.89-3.626-1.451-3.626-2.7,0-1.219,1.417-1.78,2.835-1.78a5.2,5.2,0,0,1,4.055,1.945l3.429-3.626a9.767,9.767,0,0,0-7.55-3.231c-4.682,0-8.078,2.67-8.078,7.22,0,3.2,2.11,5.473,5.9,6.759l1.648,0.56c2.341,0.792,3.265,1.616,3.265,2.8,0,1.121-1.088,1.945-2.836,1.945a6.121,6.121,0,0,1-4.846-2.671l-4.023,3.4A10.265,10.265,0,0,0,341.286,560.831Z"/>
  <path id="Water-Resistant_Limonta_Trench_" data-name="Water-Resistant Limonta Trench     " class="cls-2" d="M694.532,464.146h2.416l2.641-11.361h-2.721l-1.552,7.2-3.2-7.393-3.185,7.393-1.552-7.2h-2.72l2.624,11.361H689.7l2.417-5.568Zm5.887,0h2.656l1.008-2.4h4.705l1.008,2.4h2.656l-4.864-11.361h-2.3Zm4.592-4.608,1.424-3.425,1.425,3.425h-2.849Zm10.816,4.608h2.56v-8.929h2.929v-2.432h-8.385v2.432h2.9v8.929Zm8.32,0h7.2v-2.432h-4.657v-2.032h3.7v-2.433h-3.7v-2.032h4.657v-2.432h-7.2v11.361Zm10.416,0h2.544v-4.688h0.416l3.777,4.688h3.056l-4.017-5.008a2.933,2.933,0,0,0,2.225-2.929,3.354,3.354,0,0,0-3.521-3.424h-4.48v11.361Zm2.544-6.849v-2.176h1.632a1.132,1.132,0,0,1,1.3,1.088,1.15,1.15,0,0,1-1.3,1.088h-1.632Zm8.543,2.321h4.705v-2.305H745.65v2.305Zm8.112,4.528h2.545v-4.688h0.416l3.776,4.688h3.057l-4.017-5.008a2.933,2.933,0,0,0,2.224-2.929,3.354,3.354,0,0,0-3.52-3.424h-4.481v11.361Zm2.545-6.849v-2.176h1.632a1.132,1.132,0,0,1,1.3,1.088,1.15,1.15,0,0,1-1.3,1.088h-1.632Zm9.327,6.849h7.2v-2.432h-4.657v-2.032h3.7v-2.433h-3.7v-2.032h4.657v-2.432h-7.2v11.361Zm13.809,0.192c2.4,0,4.048-1.44,4.064-3.5,0.016-1.712-1.056-2.8-2.7-3.393l-0.8-.288c-1.2-.432-1.761-0.7-1.761-1.312a1.167,1.167,0,0,1,1.377-.864,2.527,2.527,0,0,1,1.968.944l1.664-1.76a4.74,4.74,0,0,0-3.664-1.568c-2.273,0-3.921,1.3-3.921,3.5,0,1.552,1.024,2.657,2.864,3.281l0.8,0.272c1.137,0.384,1.585.784,1.585,1.36a1.152,1.152,0,0,1-1.376.944,2.972,2.972,0,0,1-2.353-1.3l-1.952,1.648A4.982,4.982,0,0,0,779.443,464.338Zm7.1-.192h2.544V452.785h-2.544v11.361Zm9.616,0.192c2.4,0,4.049-1.44,4.065-3.5,0.016-1.712-1.056-2.8-2.7-3.393l-0.8-.288c-1.2-.432-1.76-0.7-1.76-1.312a1.166,1.166,0,0,1,1.376-.864,2.527,2.527,0,0,1,1.968.944l1.665-1.76a4.742,4.742,0,0,0-3.665-1.568c-2.272,0-3.92,1.3-3.92,3.5,0,1.552,1.024,2.657,2.864,3.281l0.8,0.272c1.136,0.384,1.584.784,1.584,1.36a1.152,1.152,0,0,1-1.376.944,2.972,2.972,0,0,1-2.352-1.3l-1.952,1.648A4.981,4.981,0,0,0,796.162,464.338Zm8.992-.192h2.56v-8.929h2.929v-2.432h-8.386v2.432h2.9v8.929Zm5.951,0h2.657l1.008-2.4h4.705l1.008,2.4h2.656l-4.865-11.361h-2.3Zm4.593-4.608,1.424-3.425,1.424,3.425H815.7Zm20.177,4.608V452.785h-2.56v7.009l-5.521-7.009H825.6v11.361h2.544v-7.025l5.537,7.025h2.192Zm5.727,0h2.56v-8.929h2.929v-2.432h-8.386v2.432h2.9v8.929Zm12.655,0h7.249v-2.432h-4.7v-8.929h-2.545v11.361Zm10.112,0h2.544V452.785h-2.544v11.361Zm12.1-2.416,3.312-4.593v7.009h2.561V452.785h-2.321l-3.552,4.9-3.553-4.9h-2.32v11.361h2.544v-7.009Zm14.783,2.608a5.873,5.873,0,1,0-5.872-5.872A5.886,5.886,0,0,0,891.249,464.338Zm0-2.464a3.41,3.41,0,1,1,3.3-3.408A3.371,3.371,0,0,1,891.249,461.874Zm19.185,2.272V452.785h-2.56v7.009l-5.521-7.009H900.16v11.361h2.545v-7.025l5.537,7.025h2.192Zm5.727,0h2.56v-8.929h2.928v-2.432h-8.385v2.432h2.9v8.929Zm5.951,0h2.657l1.008-2.4h4.7l1.009,2.4h2.656l-4.865-11.361h-2.3Zm4.593-4.608,1.424-3.425,1.424,3.425h-2.848Zm15.808,4.608h2.56v-8.929H948v-2.432h-8.385v2.432h2.9v8.929Zm8.319,0h2.544v-4.688h0.417l3.776,4.688h3.057l-4.017-5.008a2.933,2.933,0,0,0,2.224-2.929,3.354,3.354,0,0,0-3.52-3.424h-4.481v11.361Zm2.544-6.849v-2.176h1.633a1.132,1.132,0,0,1,1.3,1.088,1.15,1.15,0,0,1-1.3,1.088h-1.633Zm9.328,6.849h7.2v-2.432h-4.657v-2.032h3.7v-2.433h-3.7v-2.032h4.657v-2.432h-7.2v11.361Zm20.689,0V452.785h-2.56v7.009l-5.521-7.009H973.12v11.361h2.544v-7.025l5.537,7.025h2.192Zm8.912,0.192a5.872,5.872,0,0,0,5.312-3.1l-2.24-1.216a3.409,3.409,0,1,1,0-3.1l2.24-1.216A5.923,5.923,0,1,0,992.305,464.338Zm8.075-.192h2.55v-4.5h4.57v4.5h2.55V452.785h-2.55v4.448h-4.57v-4.448h-2.55v11.361Z"/>
  <g id="Number_copy_2" data-name="Number copy 2">
    <path id="_01" data-name="01" class="cls-1" d="M1310.13,632.1v-3.724c0-3.2-2.13-5.466-5.13-5.466s-5.12,2.263-5.12,5.466V632.1c0,3.2,2.13,5.465,5.12,5.465S1310.13,635.3,1310.13,632.1Zm-8.06,0v-3.724c0-2.062,1.21-3.3,2.93-3.3s2.94,1.242,2.94,3.3V632.1c0,2.082-1.21,3.3-2.94,3.3S1302.07,634.182,1302.07,632.1Zm14.93,5.265h2.19V623.15h-3.36l-1.67,2.183H1317v12.032Z"/>
    <path id="_04" data-name="04" class="cls-1" d="M1310.13,687.458v-3.724c0-3.2-2.13-5.465-5.13-5.465s-5.12,2.262-5.12,5.465v3.724c0,3.2,2.13,5.466,5.12,5.466S1310.13,690.662,1310.13,687.458Zm-8.06,0v-3.724c0-2.062,1.21-3.3,2.93-3.3s2.94,1.241,2.94,3.3v3.724c0,2.083-1.21,3.3-2.94,3.3S1302.07,689.541,1302.07,687.458Zm17.29,5.266h2.19V689.16h1.89v-2.042h-1.89v-8.609h-1.95l-7.55,8.869v1.782h7.31v3.564Zm0-5.606h-4.56l4.56-5.326v5.326Z"/>
    <path class="cls-3" d="M1293,658V656.99h37V658h-37Z"/>
  </g>
  <g id="X">
    <path id="Rectangle_116_copy_2" data-name="Rectangle 116 copy 2" class="cls-2" d="M1330.01,58.336l-0.94.929L1315.38,45.7,1300.94,60l-0.95-.938,14.44-14.3-13.96-13.832,0.94-.929,13.96,13.832,13.5-13.383,0.95,0.938-13.51,13.383Z"/>
  </g>
  <g id="R">
    <path id="Rectangle_116_copy" data-name="Rectangle 116 copy" class="cls-2" d="M1328.51,362.768l-0.07-.068-27.94,27.9-0.95-.941,27.95-27.9-27.47-27.421,0.93-.932,28.49,28.431Z"/>
  </g>
  <path id="Shop_Now" data-name="Shop Now" class="cls-2" d="M1030.53,459.557a3.144,3.144,0,0,0,2.79,1.408,2.319,2.319,0,0,0,2.6-2.255,2.349,2.349,0,0,0-1.83-2.289l-0.8-.3c-0.8-.3-1.18-0.55-1.18-1.122a1.072,1.072,0,0,1,1.23-.9,1.881,1.881,0,0,1,1.48.726l0.89-.869a2.99,2.99,0,0,0-2.36-1.067,2.227,2.227,0,0,0-.69,4.4l0.85,0.309a1.328,1.328,0,0,1,1.12,1.188,1.1,1.1,0,0,1-1.27.968,2.108,2.108,0,0,1-1.81-1Zm8.77,1.276h1.29v-3.355h3.86v3.355h1.29v-7.811h-1.29v3.234h-3.86v-3.234h-1.29v7.811Zm17.92-3.906a4.04,4.04,0,1,0-4.04,4.038A4.017,4.017,0,0,0,1057.22,456.927Zm-6.78,0a2.736,2.736,0,1,1,2.74,2.795A2.739,2.739,0,0,1,1050.44,456.927Zm12.65-3.905h-2.48v7.811h1.28v-2.706h1.2A2.557,2.557,0,1,0,1063.09,453.022Zm-0.01,3.894h-1.19v-2.684h1.19A1.346,1.346,0,1,1,1063.08,456.916Zm17.01,3.917v-7.811h-1.3v5.6l-4.39-5.6h-1.12v7.811h1.29v-5.622l4.4,5.622h1.12Zm11.47-3.906a4.035,4.035,0,1,0-4.04,4.038A4.017,4.017,0,0,0,1091.56,456.927Zm-6.78,0a2.736,2.736,0,1,1,2.74,2.795A2.739,2.739,0,0,1,1084.78,456.927Zm16.23,3.906h1.19l2.02-7.811h-1.36l-1.43,5.677-2.23-5.809-2.24,5.809-1.43-5.677h-1.35l2.01,7.811h1.19l1.82-4.775Zm-70.83,2.568v-0.989h76V463.4h-76Z"/>
</svg>
