<svg id="copy_copy" data-name="copy copy" xmlns="http://www.w3.org/2000/svg" width="1360" height="723"><defs><style>.cls-1,.cls-2{fill-rule:evenodd}.cls-2{fill:#fff}</style></defs><path id="Don_t_let_anything_rain_on_your_parade._Our_first_trench_appear" data-name="Don’t let anything rain on your parade. Our first trench appear" class="cls-1" d="M41.891 601.146h3.264a5.692 5.692 0 1 0 0-11.361h-3.264v11.361zm1.488-1.392v-8.577h1.776a4.3 4.3 0 1 1 0 8.577h-1.776zm17.969-2.608a4.185 4.185 0 1 0-4.177 4.16 4.106 4.106 0 0 0 4.177-4.16zm-6.961 0a2.778 2.778 0 1 1 2.784 2.88 2.751 2.751 0 0 1-2.784-2.88zm9.328 4h1.376v-3.968c0-1.872 1.024-2.929 2.32-2.929a1.921 1.921 0 0 1 1.888 2.177v4.72h1.36v-4.928a2.949 2.949 0 0 0-3.024-3.233 2.829 2.829 0 0 0-2.544 1.392v-1.232h-1.377v8zm11.648-9.633a1.414 1.414 0 0 0 .224-.72 1.192 1.192 0 1 0-2.384 0 1.24 1.24 0 0 0 .656 1.072l-1.072 2.288h.928zm6.752 9.521V599.8a3.043 3.043 0 0 1-.976.16 1.152 1.152 0 0 1-1.328-1.36v-4.193h2.3v-1.264h-2.3v-2.224h-1.377v2.224h-1.7v1.264h1.7v4.369a2.252 2.252 0 0 0 2.448 2.448 3.83 3.83 0 0 0 1.233-.19zm6.463.112h1.376v-12h-1.376v12zm3.76-4a4.218 4.218 0 0 0 7.745 2.256l-1.088-.752a2.833 2.833 0 0 1-5.265-1.232h6.561a3.9 3.9 0 0 0 .016-.416 3.728 3.728 0 0 0-3.809-4.017 4.054 4.054 0 0 0-4.16 4.161zm4.112-2.946a2.394 2.394 0 0 1 2.448 2.1h-5.072a2.615 2.615 0 0 1 2.624-2.1zm10.433 6.833V599.8a3.048 3.048 0 0 1-.977.16 1.152 1.152 0 0 1-1.328-1.36v-4.193h2.3v-1.264h-2.3v-2.224H103.2v2.224h-1.7v1.264h1.7v4.369a2.252 2.252 0 0 0 2.448 2.448 3.835 3.835 0 0 0 1.235-.19zm5.839-3.888a4 4 0 0 0 3.92 4.16 3.51 3.51 0 0 0 2.817-1.392v1.232h1.376v-8h-1.376v1.232a3.51 3.51 0 0 0-2.817-1.392 4 4 0 0 0-3.92 4.161zm6.849 0a2.733 2.733 0 1 1-2.721-2.9 2.732 2.732 0 0 1 2.721 2.901zm4.255 4h1.374v-3.968c0-1.872 1.024-2.929 2.32-2.929a1.921 1.921 0 0 1 1.888 2.177v4.72h1.361v-4.928a2.949 2.949 0 0 0-3.025-3.233 2.829 2.829 0 0 0-2.544 1.392v-1.232h-1.376v8zm11.792 3.345l5.249-11.346h-1.537l-2.736 6.065-2.752-6.065h-1.521l3.5 7.585-1.744 3.761h1.536zm11.36-3.457V599.8a3.041 3.041 0 0 1-.976.16 1.152 1.152 0 0 1-1.328-1.36v-4.193h2.3v-1.264h-2.3v-2.224H143.3v2.224h-1.7v1.264h1.7v4.369a2.253 2.253 0 0 0 2.449 2.448 3.828 3.828 0 0 0 1.229-.19zm2.159.112h1.377v-3.968c0-1.872 1.024-2.929 2.32-2.929a1.921 1.921 0 0 1 1.888 2.177v4.72h1.36v-4.928a2.949 2.949 0 0 0-3.024-3.233 2.829 2.829 0 0 0-2.544 1.392v-5.232h-1.377v12zm11.488-11.121a.966.966 0 0 0-.96-.976.994.994 0 0 0-.992.976.983.983 0 0 0 .992.976.956.956 0 0 0 .96-.975zm-1.664 11.121h1.376v-8h-1.376v8zm4.384 0h1.376v-3.968c0-1.872 1.024-2.929 2.321-2.929a1.921 1.921 0 0 1 1.888 2.177v4.72h1.36v-4.928a2.949 2.949 0 0 0-3.024-3.233 2.829 2.829 0 0 0-2.545 1.392v-1.232h-1.376v8zm17.281-.464v-7.537h-1.376v1.232a3.4 3.4 0 0 0-2.785-1.392 4.076 4.076 0 0 0 0 8.145 3.417 3.417 0 0 0 2.785-1.408v.912a2.558 2.558 0 0 1-2.673 2.769 3.42 3.42 0 0 1-2.8-1.345l-.96.961a4.749 4.749 0 0 0 3.776 1.632 3.7 3.7 0 0 0 4.033-3.968zm-6.673-3.632a2.706 2.706 0 1 1 2.7 2.8 2.667 2.667 0 0 1-2.7-2.799zm13.968 4.1h1.379v-3.968c0-1.872 1.1-2.753 2.112-2.753a2.011 2.011 0 0 1 .752.128v-1.424a2.851 2.851 0 0 0-.624-.064 2.38 2.38 0 0 0-2.24 1.632v-1.552h-1.376v8zm5.359-4a4 4 0 0 0 3.921 4.16 3.508 3.508 0 0 0 2.816-1.392v1.232h1.377v-8h-1.377v1.232a3.508 3.508 0 0 0-2.816-1.392 4 4 0 0 0-3.921 4.157zm6.849 0a2.733 2.733 0 1 1-2.72-2.9 2.731 2.731 0 0 1 2.72 2.897zm5.92-7.121a.966.966 0 0 0-.961-.976.994.994 0 0 0-.992.976.983.983 0 0 0 .992.976.957.957 0 0 0 .961-.979zm-1.665 11.121h1.377v-8h-1.377v8zm4.384 0h1.376v-3.968c0-1.872 1.025-2.929 2.321-2.929a1.921 1.921 0 0 1 1.888 2.177v4.72h1.36v-4.928a2.949 2.949 0 0 0-3.024-3.233 2.832 2.832 0 0 0-2.545 1.392v-1.232h-1.376v8zm21.857-4a4.185 4.185 0 1 0-4.177 4.16 4.106 4.106 0 0 0 4.177-4.163zm-6.961 0a2.778 2.778 0 1 1 2.784 2.88 2.751 2.751 0 0 1-2.784-2.883zm9.328 4h1.376v-3.968c0-1.872 1.024-2.929 2.32-2.929a1.921 1.921 0 0 1 1.888 2.177v4.72h1.361v-4.928a2.949 2.949 0 0 0-3.025-3.233 2.829 2.829 0 0 0-2.544 1.392v-1.232h-1.376v8zm15.888 3.345l5.248-11.346h-1.536l-2.736 6.065-2.753-6.065h-1.52l3.5 7.585-1.745 3.761h1.537zm14.577-7.345a4.185 4.185 0 1 0-4.177 4.16 4.107 4.107 0 0 0 4.177-4.163zm-6.961 0a2.778 2.778 0 1 1 2.784 2.88 2.751 2.751 0 0 1-2.78-2.883zm9.215.912c0 1.984 1.184 3.248 2.945 3.248a2.752 2.752 0 0 0 2.464-1.392v1.232h1.38v-8h-1.38v3.969c0 1.84-.976 2.928-2.224 2.928-1.1 0-1.809-.848-1.809-2.192v-4.705h-1.376v4.913zm9.776 3.088h1.376v-3.968c0-1.872 1.105-2.753 2.113-2.753a2.011 2.011 0 0 1 .752.128v-1.424a2.851 2.851 0 0 0-.624-.064 2.381 2.381 0 0 0-2.241 1.632v-1.552h-1.376v8zm10.16 3.345h1.376v-4.577a3.509 3.509 0 0 0 2.817 1.392 4.168 4.168 0 0 0 0-8.321 3.509 3.509 0 0 0-2.817 1.392v-1.232h-1.376v11.346zm6.7-7.345a2.726 2.726 0 1 1-2.72-2.9 2.731 2.731 0 0 1 2.725 2.897zm3.167 0a4 4 0 0 0 3.92 4.16 3.509 3.509 0 0 0 2.817-1.392v1.232h1.376v-8h-1.376v1.232a3.509 3.509 0 0 0-2.817-1.392 4 4 0 0 0-3.915 4.157zm6.849 0a2.733 2.733 0 1 1-2.72-2.9 2.731 2.731 0 0 1 2.725 2.897zm4.255 4H308v-3.968c0-1.872 1.1-2.753 2.112-2.753a2.011 2.011 0 0 1 .752.128v-1.424a2.851 2.851 0 0 0-.624-.064A2.38 2.38 0 0 0 308 594.7v-1.552h-1.376v8zm5.36-4a4 4 0 0 0 3.92 4.16 3.51 3.51 0 0 0 2.817-1.392v1.232h1.385v-8h-1.38v1.232a3.51 3.51 0 0 0-2.817-1.392 4 4 0 0 0-3.92 4.157zm6.849 0a2.733 2.733 0 1 1-2.721-2.9 2.732 2.732 0 0 1 2.726 2.897zm3.631 0a4 4 0 0 0 3.92 4.16 3.512 3.512 0 0 0 2.817-1.392v1.232h1.376v-12H329.2v5.232a3.512 3.512 0 0 0-2.817-1.392 4 4 0 0 0-3.92 4.157zm6.849 0a2.733 2.733 0 1 1-2.721-2.9 2.732 2.732 0 0 1 2.726 2.897zm3.63 0a4.219 4.219 0 0 0 7.746 2.256l-1.089-.752a2.832 2.832 0 0 1-5.264-1.232h6.57a3.9 3.9 0 0 0 .016-.416 3.729 3.729 0 0 0-3.809-4.017 4.055 4.055 0 0 0-4.165 4.158zm4.113-2.945a2.394 2.394 0 0 1 2.448 2.1h-5.072a2.615 2.615 0 0 1 2.629-2.104zm8.112 5.873a1.185 1.185 0 1 0-1.185 1.2 1.206 1.206 0 0 0 1.19-1.203zm18-4.608a5.873 5.873 0 1 0-5.873 5.872 5.816 5.816 0 0 0 5.879-5.875zm-10.242 0a4.378 4.378 0 1 1 4.369 4.464 4.356 4.356 0 0 1-4.363-4.467zm12.544 2.592c0 1.984 1.184 3.248 2.945 3.248a2.752 2.752 0 0 0 2.464-1.392v1.232h1.376v-8h-1.376v3.969c0 1.84-.976 2.928-2.224 2.928-1.1 0-1.809-.848-1.809-2.192v-4.705h-1.37v4.913zm9.776 3.088h1.376v-3.968c0-1.872 1.1-2.753 2.113-2.753a2.011 2.011 0 0 1 .752.128v-1.424a2.851 2.851 0 0 0-.624-.064 2.381 2.381 0 0 0-2.241 1.632v-1.552h-1.376v8zm10.624 0h1.377v-6.737h2.32v-1.264h-2.32v-1.472a1.152 1.152 0 0 1 1.328-1.36 3.222 3.222 0 0 1 .992.16v-1.216a3.636 3.636 0 0 0-1.248-.208 2.285 2.285 0 0 0-2.449 2.48v1.616h-1.7v1.264h1.7v6.737zm6.865-11.121a.966.966 0 0 0-.96-.976.994.994 0 0 0-.992.976.983.983 0 0 0 .992.976.956.956 0 0 0 .966-.979zm-1.664 11.121h1.376v-8h-1.376v8zm4.367 0h1.376v-3.968c0-1.872 1.1-2.753 2.113-2.753a2.011 2.011 0 0 1 .752.128v-1.424a2.851 2.851 0 0 0-.624-.064 2.381 2.381 0 0 0-2.241 1.632v-1.552h-1.376v8zm11.3-2.224c0-1.2-.752-1.968-2.112-2.416l-.864-.288c-.945-.3-1.233-.608-1.233-1.121a1.133 1.133 0 0 1 1.345-.928 2.161 2.161 0 0 1 1.7.832l.9-.864a3.1 3.1 0 0 0-2.56-1.152c-1.585 0-2.705.88-2.705 2.176a2.415 2.415 0 0 0 1.984 2.321l.785.256c1.04.336 1.424.72 1.424 1.28a1.218 1.218 0 0 1-1.408 1.088 2.147 2.147 0 0 1-2.049-1.264l-1.12.608a3.178 3.178 0 0 0 3.137 1.856c1.611-.003 2.779-.819 2.779-2.387zm6.608 2.112V599.8a3.041 3.041 0 0 1-.976.16 1.153 1.153 0 0 1-1.329-1.36v-4.193h2.305v-1.264h-2.305v-2.224h-1.376v2.224h-1.7v1.264h1.7v4.369a2.252 2.252 0 0 0 2.449 2.448 3.828 3.828 0 0 0 1.235-.19zm10.528 0V599.8a3.043 3.043 0 0 1-.977.16 1.152 1.152 0 0 1-1.328-1.36v-4.193h2.305v-1.264h-2.305v-2.224h-1.373v2.224h-1.7v1.264h1.7v4.369a2.252 2.252 0 0 0 2.448 2.448 3.835 3.835 0 0 0 1.233-.19zm2.159.112h1.376v-3.968c0-1.872 1.1-2.753 2.112-2.753a2.02 2.02 0 0 1 .753.128v-1.424a2.866 2.866 0 0 0-.625-.064 2.38 2.38 0 0 0-2.24 1.632v-1.552h-1.373v8zm5.344-4a4.218 4.218 0 0 0 7.745 2.256l-1.088-.752a2.833 2.833 0 0 1-5.265-1.232h6.561a3.9 3.9 0 0 0 .016-.416 3.728 3.728 0 0 0-3.808-4.017 4.054 4.054 0 0 0-4.158 4.158zm4.113-2.945a2.394 2.394 0 0 1 2.448 2.1h-5.073a2.616 2.616 0 0 1 2.628-2.104zm6.207 6.945h1.376v-3.968c0-1.872 1.024-2.929 2.32-2.929a1.921 1.921 0 0 1 1.889 2.177v4.72h1.36v-4.928a2.949 2.949 0 0 0-3.024-3.233 2.829 2.829 0 0 0-2.545 1.392v-1.232h-1.376v8zm17.089-1.984l-1.2-.672a2.713 2.713 0 0 1-2.5 1.536 2.882 2.882 0 0 1 0-5.761 2.712 2.712 0 0 1 2.5 1.537l1.2-.673a4.143 4.143 0 0 0-3.7-2.144 4.161 4.161 0 1 0 0 8.321 4.143 4.143 0 0 0 3.703-2.147zm2.175 1.984h1.376v-3.968c0-1.872 1.024-2.929 2.32-2.929a1.921 1.921 0 0 1 1.888 2.177v4.72h1.361v-4.928a2.949 2.949 0 0 0-3.025-3.233 2.829 2.829 0 0 0-2.544 1.392v-5.232h-1.376v12zm13.5-4a4 4 0 0 0 3.921 4.16 3.508 3.508 0 0 0 2.816-1.392v1.232h1.376v-8H481.2v1.232a3.508 3.508 0 0 0-2.816-1.392 4 4 0 0 0-3.923 4.157zm6.849 0a2.733 2.733 0 1 1-2.72-2.9 2.731 2.731 0 0 1 2.726 2.897zm4.255 7.345h1.376v-4.577a3.509 3.509 0 0 0 2.817 1.392 4.168 4.168 0 0 0 0-8.321 3.509 3.509 0 0 0-2.817 1.392v-1.232h-1.376v11.346zm6.7-7.345a2.726 2.726 0 1 1-2.72-2.9 2.731 2.731 0 0 1 2.731 2.897zm3.791 7.345h1.376v-4.577a3.509 3.509 0 0 0 2.817 1.392 4.168 4.168 0 0 0 0-8.321 3.509 3.509 0 0 0-2.817 1.392v-1.232h-1.376v11.346zm6.705-7.345a2.726 2.726 0 1 1-2.72-2.9 2.731 2.731 0 0 1 2.731 2.897zm3.167 0a4.218 4.218 0 0 0 7.745 2.256l-1.088-.752a2.833 2.833 0 0 1-5.265-1.232h6.561a3.9 3.9 0 0 0 .025-.421 3.728 3.728 0 0 0-3.809-4.017 4.054 4.054 0 0 0-4.158 4.163zm4.112-2.945a2.394 2.394 0 0 1 2.449 2.1h-5.073a2.615 2.615 0 0 1 2.635-2.104zm5.584 2.945a4 4 0 0 0 3.92 4.16 3.509 3.509 0 0 0 2.817-1.392v1.232h1.376v-8h-1.376v1.232a3.509 3.509 0 0 0-2.817-1.392 4 4 0 0 0-3.909 4.157zm6.849 0a2.733 2.733 0 1 1-2.721-2.9 2.732 2.732 0 0 1 2.732 2.897zm4.255 4h1.376v-3.968c0-1.872 1.1-2.753 2.112-2.753a2.011 2.011 0 0 1 .752.128v-1.424a2.851 2.851 0 0 0-.624-.064 2.38 2.38 0 0 0-2.24 1.632v-1.552h-1.376v8zm5.344-4a4.218 4.218 0 0 0 7.745 2.256l-1.088-.752a2.833 2.833 0 0 1-5.265-1.232h6.561a3.9 3.9 0 0 0 .016-.416 3.728 3.728 0 0 0-3.809-4.017 4.054 4.054 0 0 0-4.149 4.158zm4.112-2.945a2.394 2.394 0 0 1 2.449 2.1h-5.073a2.615 2.615 0 0 1 2.635-2.104zm5.584 2.945a4 4 0 0 0 3.92 4.16 3.51 3.51 0 0 0 2.817-1.392v1.232h1.376v-12h-1.365v5.232a3.51 3.51 0 0 0-2.817-1.392 4 4 0 0 0-3.92 4.157zm6.849 0a2.733 2.733 0 1 1-2.721-2.9 2.732 2.732 0 0 1 2.732 2.897zm10.223-7.121a.966.966 0 0 0-.96-.976.994.994 0 0 0-.993.976.984.984 0 0 0 .993.976.956.956 0 0 0 .971-.979zm-1.665 11.121h1.377v-8h-1.366v8zm4.384 0h1.377v-3.968c0-1.872 1.024-2.929 2.32-2.929a1.921 1.921 0 0 1 1.888 2.177v4.72h1.36v-4.928a2.949 2.949 0 0 0-3.024-3.233 2.829 2.829 0 0 0-2.544 1.392v-1.232h-1.377v8zm18.193-.112V599.8a3.043 3.043 0 0 1-.977.16 1.152 1.152 0 0 1-1.328-1.36v-4.193h2.3v-1.264h-2.3v-2.224h-1.376v2.224h-1.7v1.264h1.7v4.369a2.252 2.252 0 0 0 2.448 2.448 3.835 3.835 0 0 0 1.244-.19zm2.159.112h1.376v-3.968c0-1.872 1.024-2.929 2.32-2.929a1.921 1.921 0 0 1 1.889 2.177v4.72h1.36v-4.928a2.949 2.949 0 0 0-3.024-3.233 2.829 2.829 0 0 0-2.545 1.392v-5.232h-1.376v12zm9.2-4a4.218 4.218 0 0 0 7.745 2.256l-1.088-.752a2.833 2.833 0 0 1-5.265-1.232h6.561a3.9 3.9 0 0 0 .016-.416 3.728 3.728 0 0 0-3.809-4.017 4.054 4.054 0 0 0-4.149 4.158zm4.112-2.945a2.4 2.4 0 0 1 2.449 2.1H592.6a2.615 2.615 0 0 1 2.628-2.104zm10.72 6.945h4.064c2.3 0 3.809-1.424 3.809-3.312a2.709 2.709 0 0 0-1.969-2.721 2.575 2.575 0 0 0 1.217-2.32 3.112 3.112 0 0 0-3.393-3.008h-3.728v11.361zm1.488-6.481v-3.536h2.24a1.786 1.786 0 0 1 1.936 1.776 1.748 1.748 0 0 1-1.936 1.76h-2.24zm0 5.137v-3.856h2.656c1.5 0 2.272.832 2.272 1.936 0 1.12-.768 1.92-2.288 1.92h-2.64zm8.143-2.656a4 4 0 0 0 3.921 4.16 3.508 3.508 0 0 0 2.816-1.392v1.232h1.377v-8h-1.377v1.232a3.508 3.508 0 0 0-2.816-1.392 4 4 0 0 0-3.91 4.157zm6.849 0a2.733 2.733 0 1 1-2.72-2.9 2.731 2.731 0 0 1 2.731 2.897zm4.255 4h1.377v-3.968c0-1.872 1.024-2.929 2.32-2.929a1.921 1.921 0 0 1 1.888 2.177v4.72h1.36v-4.928a2.949 2.949 0 0 0-3.024-3.233 2.829 2.829 0 0 0-2.544 1.392v-1.232h-1.377v8zm9.2-4a4 4 0 0 0 3.921 4.16 3.508 3.508 0 0 0 2.816-1.392v1.232H644v-8h-1.38v1.232a3.508 3.508 0 0 0-2.816-1.392 4 4 0 0 0-3.921 4.157zm6.849 0a2.733 2.733 0 1 1-2.72-2.9 2.731 2.731 0 0 1 2.731 2.897zm4.255 4h1.376v-3.968c0-1.872 1.024-2.929 2.321-2.929a1.921 1.921 0 0 1 1.888 2.177v4.72h1.36v-4.928a2.949 2.949 0 0 0-3.024-3.233 2.829 2.829 0 0 0-2.545 1.392v-1.232h-1.376v8zm9.2-4a4 4 0 0 0 3.92 4.16 3.51 3.51 0 0 0 2.817-1.392v1.232h1.387v-8h-1.376v1.232a3.51 3.51 0 0 0-2.817-1.392 4 4 0 0 0-3.92 4.157zm6.849 0a2.733 2.733 0 1 1-2.721-2.9 2.732 2.732 0 0 1 2.732 2.897zm8.766 4h1.489v-5.168h1.1l4.368 5.168h1.873l-4.369-5.184a2.966 2.966 0 0 0 2.8-3.041 3.065 3.065 0 0 0-3.393-3.136H671.8v11.361zm1.489-6.5v-3.488h2.22c1.3 0 2.08.608 2.08 1.76 0 1.136-.784 1.728-2.08 1.728h-2.208zm8 2.5a4.218 4.218 0 0 0 7.745 2.256l-1.088-.752a2.832 2.832 0 0 1-5.264-1.232h6.56a3.9 3.9 0 0 0 .016-.416 3.728 3.728 0 0 0-3.808-4.017 4.055 4.055 0 0 0-4.151 4.158zm4.12-2.949a2.394 2.394 0 0 1 2.448 2.1h-5.072a2.615 2.615 0 0 1 2.624-2.1zm6.207 10.29h1.377v-4.577a3.508 3.508 0 0 0 2.816 1.392 4.168 4.168 0 0 0 0-8.321 3.508 3.508 0 0 0-2.816 1.392v-1.232h-1.374v11.346zm6.705-7.345a2.725 2.725 0 1 1-2.72-2.9 2.731 2.731 0 0 1 2.723 2.901zm3.679.912c0 1.984 1.184 3.248 2.945 3.248a2.752 2.752 0 0 0 2.464-1.392v1.232h1.376v-8H707.4v3.969c0 1.84-.976 2.928-2.224 2.928-1.1 0-1.809-.848-1.809-2.192v-4.705h-1.376v4.913zm11.152 1.856a3.51 3.51 0 0 0 2.817 1.392 4.168 4.168 0 0 0 0-8.321 3.51 3.51 0 0 0-2.817 1.392v-5.232h-1.373v12h1.376v-1.232zm5.329-2.768a2.726 2.726 0 1 1-2.72-2.9 2.731 2.731 0 0 1 2.723 2.901zm3.775 4h1.376v-12h-1.373v12zm6.048-11.121a.966.966 0 0 0-.96-.976.994.994 0 0 0-.992.976.983.983 0 0 0 .992.976.956.956 0 0 0 .965-.975zm-1.664 11.121h1.376v-8h-1.376v8zm11.649-1.984l-1.2-.672a2.712 2.712 0 0 1-2.5 1.536 2.882 2.882 0 0 1 0-5.761 2.711 2.711 0 0 1 2.5 1.537l1.2-.673a4.143 4.143 0 0 0-3.7-2.144 4.161 4.161 0 1 0 0 8.321 4.143 4.143 0 0 0 3.703-2.143zm13.743 0l-1.2-.672a2.712 2.712 0 0 1-2.5 1.536 2.882 2.882 0 0 1 0-5.761 2.711 2.711 0 0 1 2.5 1.537l1.2-.673a4.143 4.143 0 0 0-3.7-2.144 4.161 4.161 0 1 0 0 8.321 4.143 4.143 0 0 0 3.703-2.143zm1.551-2.016a4 4 0 0 0 3.921 4.16 3.508 3.508 0 0 0 2.816-1.392v1.232h1.376v-8h-1.376v1.232a3.508 3.508 0 0 0-2.816-1.392 4 4 0 0 0-3.918 4.161zm6.849 0a2.733 2.733 0 1 1-2.72-2.9 2.731 2.731 0 0 1 2.723 2.901zm8.592 3.888V599.8a3.041 3.041 0 0 1-.976.16 1.152 1.152 0 0 1-1.329-1.36v-4.193h2.305v-1.264h-2.305v-2.224h-1.376v2.224h-1.7v1.264h1.7v4.369a2.252 2.252 0 0 0 2.449 2.448 3.828 3.828 0 0 0 1.235-.19zm1.423-3.888a4 4 0 0 0 3.921 4.16 3.508 3.508 0 0 0 2.816-1.392v1.232h1.376v-8h-1.376v1.232a3.508 3.508 0 0 0-2.816-1.392 4 4 0 0 0-3.918 4.161zm6.849 0a2.733 2.733 0 1 1-2.72-2.9 2.731 2.731 0 0 1 2.723 2.901zm4.255 4h1.376v-12h-1.376v12zm12.113-4a4.185 4.185 0 1 0-4.176 4.16 4.106 4.106 0 0 0 4.179-4.159zm-6.961 0a2.778 2.778 0 1 1 2.785 2.88 2.751 2.751 0 0 1-2.779-2.879zm16.785 3.536v-7.537h-1.376v1.232a3.406 3.406 0 0 0-2.785-1.392 4.076 4.076 0 0 0 0 8.145 3.418 3.418 0 0 0 2.785-1.408v.912a2.558 2.558 0 0 1-2.673 2.769 3.42 3.42 0 0 1-2.8-1.345l-.96.961a4.749 4.749 0 0 0 3.776 1.632 3.7 3.7 0 0 0 4.036-3.968zm-6.673-3.632a2.706 2.706 0 1 1 2.7 2.8 2.667 2.667 0 0 1-2.697-2.799zm15.632-7.025a.966.966 0 0 0-.96-.976.994.994 0 0 0-.993.976.984.984 0 0 0 .993.976.956.956 0 0 0 .963-.975zm-1.665 11.121h1.377v-8h-1.377v8zm4.384 0h1.377v-3.968c0-1.872 1.024-2.929 2.32-2.929a1.921 1.921 0 0 1 1.888 2.177v4.72h1.36v-4.928a2.949 2.949 0 0 0-3.024-3.233 2.829 2.829 0 0 0-2.544 1.392v-1.232h-1.374v8zm15.12 0h1.376v-11.36h-2.448l-1.12 1.36h2.192v10zm4.464 0h1.76l4.161-4.912a4.366 4.366 0 0 0 1.28-2.9 3.849 3.849 0 0 0-7.7.048 3.67 3.67 0 0 0 3.552 3.649 2.039 2.039 0 0 0 .448-.032zm.912-7.777a2.441 2.441 0 1 1 2.432 2.449 2.414 2.414 0 0 1-2.429-2.448zm15.617 4.369a3.177 3.177 0 0 0-1.776-2.977 2.66 2.66 0 0 0 1.152-2.24 2.949 2.949 0 0 0-3.185-2.928 2.989 2.989 0 0 0-3.2 2.928 2.649 2.649 0 0 0 1.184 2.24 3.177 3.177 0 0 0-1.808 2.977 3.825 3.825 0 0 0 7.636.001zm-5.649-5.185a1.691 1.691 0 0 1 1.84-1.664 1.661 1.661 0 0 1 1.825 1.664 1.7 1.7 0 0 1-1.825 1.68 1.731 1.731 0 0 1-1.837-1.679zm-.592 5.185a2.255 2.255 0 0 1 2.432-2.272 2.269 2.269 0 1 1 0 4.528 2.261 2.261 0 0 1-2.429-2.255zm16.4-.7v-3.169a4.032 4.032 0 1 0-8.049 0v3.169a4.032 4.032 0 1 0 8.053-.003zm-6.673 0v-3.169a2.662 2.662 0 1 1 5.3 0v3.169a2.662 2.662 0 1 1-5.296-.003zm13.007.112a4 4 0 0 0 3.921 4.16 3.508 3.508 0 0 0 2.816-1.392v1.232h1.377v-8H874.5v1.232a3.508 3.508 0 0 0-2.816-1.392 4 4 0 0 0-3.917 4.157zm6.849 0a2.733 2.733 0 1 1-2.72-2.9 2.731 2.731 0 0 1 2.724 2.897zm9.44 1.776c0-1.2-.752-1.968-2.112-2.416l-.864-.288c-.944-.3-1.233-.608-1.233-1.121a1.133 1.133 0 0 1 1.345-.928 2.161 2.161 0 0 1 1.7.832l.9-.864a3.1 3.1 0 0 0-2.56-1.152c-1.585 0-2.705.88-2.705 2.176a2.414 2.414 0 0 0 1.985 2.321l.784.256c1.04.336 1.424.72 1.424 1.28a1.218 1.218 0 0 1-1.408 1.088 2.148 2.148 0 0 1-2.049-1.264l-1.12.608a3.179 3.179 0 0 0 3.137 1.856c1.612-.003 2.78-.819 2.78-2.387zm6.047-1.776a4 4 0 0 0 3.92 4.16 3.509 3.509 0 0 0 2.817-1.392v1.232h1.376v-8h-1.372v1.232a3.509 3.509 0 0 0-2.817-1.392 4 4 0 0 0-3.923 4.157zm6.849 0a2.733 2.733 0 1 1-2.721-2.9 2.732 2.732 0 0 1 2.725 2.897zm-852.757 28h1.456v-9.953h3.536v-1.408h-8.524v1.408H44.2v9.953zm5.52 0h1.376v-3.968c0-1.873 1.1-2.753 2.112-2.753a2.012 2.012 0 0 1 .752.128v-1.424a2.851 2.851 0 0 0-.624-.064 2.38 2.38 0 0 0-2.24 1.632v-1.552h-1.372v8zm13.7-4a4.185 4.185 0 1 0-4.177 4.16 4.106 4.106 0 0 0 4.178-4.163zm-6.961 0a2.778 2.778 0 1 1 2.784 2.88 2.751 2.751 0 0 1-2.783-2.883zm9.328 7.345h1.376v-4.577a3.509 3.509 0 0 0 2.816 1.392 4.168 4.168 0 0 0 0-8.321 3.509 3.509 0 0 0-2.816 1.392v-1.232h-1.376v11.346zm6.7-7.345a2.726 2.726 0 1 1-2.72-2.9 2.732 2.732 0 0 1 2.725 2.897zm5.455-7.121a.966.966 0 0 0-.96-.976.994.994 0 0 0-.992.976.983.983 0 0 0 .992.976.956.956 0 0 0 .966-.979zm-1.664 11.121h1.376v-8h-1.371v8zm11.649-1.984l-1.2-.672a2.712 2.712 0 0 1-2.5 1.536 2.882 2.882 0 0 1 0-5.761 2.711 2.711 0 0 1 2.5 1.537l1.2-.673a4.144 4.144 0 0 0-3.7-2.144 4.161 4.161 0 1 0 0 8.321 4.144 4.144 0 0 0 3.705-2.147zm1.551-2.016a4 4 0 0 0 3.921 4.16 3.509 3.509 0 0 0 2.816-1.392v1.232h1.376v-8h-1.371v1.232a3.509 3.509 0 0 0-2.816-1.392 4 4 0 0 0-3.921 4.157zm6.849 0a2.733 2.733 0 1 1-2.72-2.9 2.732 2.732 0 0 1 2.725 2.897zm4.255 4h1.376v-12h-1.376v12zm8.9 0h1.488v-5.168h1.1l4.369 5.168h1.872l-4.369-5.184a2.966 2.966 0 0 0 2.8-3.041 3.065 3.065 0 0 0-3.393-3.136h-3.872v11.361zm1.488-6.5v-3.488h2.208c1.3 0 2.08.608 2.08 1.76 0 1.136-.784 1.728-2.08 1.728h-2.208zm8.032 2.5a4 4 0 0 0 3.92 4.16 3.512 3.512 0 0 0 2.817-1.392v1.232h1.376v-8h-1.376v1.232a3.512 3.512 0 0 0-2.817-1.392 4 4 0 0 0-3.919 4.157zm6.849 0a2.733 2.733 0 1 1-2.721-2.9 2.732 2.732 0 0 1 2.722 2.897zm5.919-7.121a.966.966 0 0 0-.96-.976 1 1 0 0 0-.993.976.984.984 0 0 0 .993.976.956.956 0 0 0 .961-.979zm-1.661 11.118h1.376v-8H130.1v8zm4.383 0h1.377v-3.968c0-1.873 1.024-2.929 2.32-2.929a1.921 1.921 0 0 1 1.888 2.177v4.72h1.36v-4.928a2.949 2.949 0 0 0-3.024-3.233 2.829 2.829 0 0 0-2.544 1.392v-1.232h-1.377v8zm17.089-1.984l-1.2-.672a2.712 2.712 0 0 1-2.5 1.536 2.882 2.882 0 0 1 0-5.761 2.711 2.711 0 0 1 2.5 1.537l1.2-.673a4.143 4.143 0 0 0-3.7-2.144 4.161 4.161 0 1 0 0 8.321 4.143 4.143 0 0 0 3.698-2.144zm9.9-2.016a4.185 4.185 0 1 0-4.176 4.16 4.106 4.106 0 0 0 4.178-4.16zm-6.961 0a2.778 2.778 0 1 1 2.785 2.88 2.751 2.751 0 0 1-2.783-2.88zm8.7 0a4 4 0 0 0 3.92 4.16 3.51 3.51 0 0 0 2.817-1.392v1.232h1.376v-8h-1.376v1.232a3.51 3.51 0 0 0-2.817-1.392 4 4 0 0 0-3.914 4.16zm6.849 0a2.733 2.733 0 1 1-2.721-2.9 2.732 2.732 0 0 1 2.727 2.9zm8.591 3.888V623.8a3.041 3.041 0 0 1-.976.16 1.152 1.152 0 0 1-1.328-1.36v-4.193h2.3v-1.264h-2.3v-2.224h-1.376v2.224h-1.7v1.264h1.7v4.369a2.252 2.252 0 0 0 2.448 2.448 3.828 3.828 0 0 0 1.238-.19zm12.961.112h1.216l2.72-8H194.1l-1.936 5.841-2-5.841h-1.056l-2 5.841-1.936-5.841h-1.441l2.721 8h1.216l1.984-5.76zm7.487-11.121a.967.967 0 0 0-.961-.976.994.994 0 0 0-.992.976.983.983 0 0 0 .992.976.957.957 0 0 0 .967-.976zm-1.665 11.121h1.377v-8h-1.371v8zm8.721-.112V623.8a3.041 3.041 0 0 1-.976.16 1.153 1.153 0 0 1-1.329-1.36v-4.193h2.305v-1.264h-2.305v-2.224h-1.37v2.224h-1.7v1.264h1.7v4.369a2.252 2.252 0 0 0 2.449 2.448 3.828 3.828 0 0 0 1.232-.19zm2.159.112h1.386v-3.968c0-1.873 1.024-2.929 2.321-2.929a1.921 1.921 0 0 1 1.888 2.177v4.72h1.36v-4.928a2.949 2.949 0 0 0-3.024-3.233 2.831 2.831 0 0 0-2.545 1.392v-5.232h-1.38v12zm18.192-.112V623.8a3.041 3.041 0 0 1-.976.16 1.152 1.152 0 0 1-1.328-1.36v-4.193h2.3v-1.264h-2.3v-2.224h-1.376v2.224h-1.7v1.264h1.7v4.369a2.252 2.252 0 0 0 2.448 2.448 3.828 3.828 0 0 0 1.238-.19zm2.16.112h1.376v-3.968c0-1.873 1.024-2.929 2.32-2.929a1.921 1.921 0 0 1 1.889 2.177v4.72h1.36v-4.928a2.949 2.949 0 0 0-3.025-3.233 2.829 2.829 0 0 0-2.544 1.392v-5.232h-1.376v12zm9.2-4a4.219 4.219 0 0 0 7.746 2.256l-1.089-.752a2.832 2.832 0 0 1-5.264-1.232h6.561a3.9 3.9 0 0 0 .016-.416 3.729 3.729 0 0 0-3.809-4.017 4.055 4.055 0 0 0-4.156 4.161zm4.113-2.945a2.394 2.394 0 0 1 2.448 2.1h-5.067a2.615 2.615 0 0 1 2.624-2.101zm17.776 4.961l-1.2-.672a2.712 2.712 0 0 1-2.5 1.536 2.882 2.882 0 0 1 0-5.761 2.711 2.711 0 0 1 2.5 1.537l1.2-.673a4.143 4.143 0 0 0-3.7-2.144 4.161 4.161 0 1 0 0 8.321 4.143 4.143 0 0 0 3.705-2.144zm1.551-2.016a4 4 0 0 0 3.921 4.16 3.508 3.508 0 0 0 2.816-1.392v1.232h1.376v-8h-1.376v1.232a3.508 3.508 0 0 0-2.816-1.392 4 4 0 0 0-3.916 4.16zm6.849 0a2.733 2.733 0 1 1-2.72-2.9 2.731 2.731 0 0 1 2.725 2.9zm4.255 7.345h1.376v-4.577a3.508 3.508 0 0 0 2.816 1.392 4.168 4.168 0 0 0 0-8.321 3.508 3.508 0 0 0-2.816 1.392v-1.232h-1.376v11.346zm6.7-7.345a2.726 2.726 0 1 1-2.721-2.9 2.732 2.732 0 0 1 2.731 2.9zm7.984 3.888V623.8a3.041 3.041 0 0 1-.976.16 1.152 1.152 0 0 1-1.329-1.36v-4.193h2.311v-1.264h-2.3v-2.224h-1.376v2.224h-1.7v1.264h1.7v4.369a2.252 2.252 0 0 0 2.449 2.448 3.828 3.828 0 0 0 1.227-.19zm3.823-11.009a.966.966 0 0 0-.96-.976.994.994 0 0 0-.992.976.983.983 0 0 0 .992.976.956.956 0 0 0 .97-.976zm-1.664 11.121h1.376v-8h-1.376v8zm12.113-4a4.185 4.185 0 1 0-4.177 4.16 4.106 4.106 0 0 0 4.187-4.16zm-6.961 0a2.778 2.778 0 1 1 2.784 2.88 2.751 2.751 0 0 1-2.774-2.88zm9.328 4h1.376v-3.968c0-1.873 1.024-2.929 2.32-2.929a1.921 1.921 0 0 1 1.888 2.177v4.72h1.361v-4.928a2.949 2.949 0 0 0-3.025-3.233 2.829 2.829 0 0 0-2.544 1.392v-1.232h-1.376v8zm13.695-8.721a1.356 1.356 0 0 0-.208.72 1.185 1.185 0 1 0 2.369 0 1.219 1.219 0 0 0-.657-1.072l1.073-2.288h-.905zm2.977 0a1.356 1.356 0 0 0-.208.72 1.184 1.184 0 1 0 2.368 0 1.22 1.22 0 0 0-.656-1.072l1.072-2.288h-.912zm5.039 8.721h3.265a5.692 5.692 0 1 0 0-11.361h-3.265v11.361zm1.488-1.392v-8.577h1.777a4.3 4.3 0 1 1 0 8.577h-1.777zm11.824-9.729a.966.966 0 0 0-.96-.976.994.994 0 0 0-.992.976.983.983 0 0 0 .992.976.956.956 0 0 0 .97-.976zm-1.656 11.121h1.376v-8H337.1v8zm9.569-2.224c0-1.2-.752-1.968-2.112-2.416l-.865-.288c-.944-.3-1.232-.608-1.232-1.121a1.132 1.132 0 0 1 1.344-.928 2.162 2.162 0 0 1 1.7.832l.9-.864a3.1 3.1 0 0 0-2.561-1.152c-1.584 0-2.7.88-2.7 2.176a2.415 2.415 0 0 0 1.984 2.321l.784.256c1.041.336 1.425.72 1.425 1.28a1.218 1.218 0 0 1-1.409 1.088 2.147 2.147 0 0 1-2.048-1.264l-1.12.608a3.178 3.178 0 0 0 3.136 1.856c1.605 0 2.776-.816 2.776-2.384zm6.608 2.112V623.8a3.043 3.043 0 0 1-.977.16 1.152 1.152 0 0 1-1.328-1.36v-4.193h2.305v-1.264h-2.305v-2.224H349.6v2.224h-1.7v1.264h1.7v4.369a2.252 2.252 0 0 0 2.448 2.448 3.83 3.83 0 0 0 1.231-.19zm3.823-11.009a.966.966 0 0 0-.96-.976.994.994 0 0 0-.992.976.983.983 0 0 0 .992.976.956.956 0 0 0 .96-.976zm-1.664 11.121h1.376v-8h-1.376v8zm4.384 0h1.38v-3.968c0-1.873 1.024-2.929 2.32-2.929a1.921 1.921 0 0 1 1.889 2.177v4.72h1.36v-4.928a2.949 2.949 0 0 0-3.025-3.233 2.829 2.829 0 0 0-2.544 1.392v-1.232h-1.376v8zm17.281-.464v-7.537h-1.376v1.232a3.407 3.407 0 0 0-2.785-1.392 4.076 4.076 0 0 0 0 8.145 3.42 3.42 0 0 0 2.785-1.408v.912a2.558 2.558 0 0 1-2.673 2.769 3.42 3.42 0 0 1-2.8-1.345l-.96.961a4.749 4.749 0 0 0 3.776 1.632 3.7 3.7 0 0 0 4.032-3.969zm-6.673-3.632a2.706 2.706 0 1 1 2.7 2.8 2.667 2.667 0 0 1-2.698-2.8zm9.552 1.008c0 1.984 1.184 3.248 2.944 3.248a2.752 2.752 0 0 0 2.464-1.392v1.232h1.376v-8h-1.374v3.969c0 1.84-.976 2.928-2.224 2.928-1.1 0-1.808-.848-1.808-2.192v-4.705h-1.376v4.913zm11.44-8.033a.966.966 0 0 0-.96-.976.994.994 0 0 0-.993.976.984.984 0 0 0 .993.976.956.956 0 0 0 .962-.976zm-1.665 11.121h1.377v-8h-1.377v8zm9.569-2.224c0-1.2-.752-1.968-2.112-2.416l-.864-.288c-.945-.3-1.233-.608-1.233-1.121a1.133 1.133 0 0 1 1.345-.928 2.161 2.161 0 0 1 1.7.832l.9-.864a3.1 3.1 0 0 0-2.56-1.152c-1.585 0-2.705.88-2.705 2.176a2.414 2.414 0 0 0 1.985 2.321l.784.256c1.04.336 1.424.72 1.424 1.28a1.218 1.218 0 0 1-1.408 1.088 2.148 2.148 0 0 1-2.049-1.264l-1.12.608a3.178 3.178 0 0 0 3.137 1.856c1.61 0 2.778-.816 2.778-2.384zm2.367 2.224h1.376v-3.968c0-1.873 1.025-2.929 2.321-2.929a1.921 1.921 0 0 1 1.888 2.177v4.72h1.36v-4.928a2.949 2.949 0 0 0-3.024-3.233 2.831 2.831 0 0 0-2.545 1.392v-5.232h-1.376v12zm9.2-4a4.218 4.218 0 0 0 7.745 2.256l-1.088-.752a2.833 2.833 0 0 1-5.265-1.232h6.561a3.9 3.9 0 0 0 .016-.416 3.728 3.728 0 0 0-3.808-4.017 4.054 4.054 0 0 0-4.159 4.161zm4.113-2.945a2.394 2.394 0 0 1 2.448 2.1h-5.073a2.616 2.616 0 0 1 2.627-2.101zm5.583 2.945a4 4 0 0 0 3.92 4.16 3.509 3.509 0 0 0 2.817-1.392v1.232h1.376v-12h-1.376v5.232a3.509 3.509 0 0 0-2.817-1.392 4 4 0 0 0-3.918 4.16zm6.849 0a2.733 2.733 0 1 1-2.721-2.9 2.732 2.732 0 0 1 2.723 2.9zm8.559 4h1.376v-3.968c0-1.873 1.1-2.753 2.112-2.753a2.011 2.011 0 0 1 .752.128v-1.424a2.851 2.851 0 0 0-.624-.064 2.38 2.38 0 0 0-2.24 1.632v-1.552H436v8zm5.359-4a4 4 0 0 0 3.921 4.16 3.508 3.508 0 0 0 2.816-1.392v1.232h1.377v-8h-1.377v1.232a3.508 3.508 0 0 0-2.816-1.392 4 4 0 0 0-3.919 4.16zm6.849 0a2.733 2.733 0 1 1-2.72-2.9 2.731 2.731 0 0 1 2.722 2.9zm5.92-7.121a.966.966 0 0 0-.961-.976.994.994 0 0 0-.992.976.983.983 0 0 0 .992.976.957.957 0 0 0 .963-.976zm-1.665 11.121h1.377v-8h-1.375v8zm4.384 0h1.376v-3.968c0-1.873 1.025-2.929 2.321-2.929a1.921 1.921 0 0 1 1.888 2.177v4.72h1.36v-4.928a2.949 2.949 0 0 0-3.024-3.233 2.831 2.831 0 0 0-2.545 1.392v-1.232h-1.376v8zm21.585-.464v-7.537h-1.376v1.232a3.406 3.406 0 0 0-2.785-1.392 4.076 4.076 0 0 0 0 8.145 3.418 3.418 0 0 0 2.785-1.408v.912a2.558 2.558 0 0 1-2.673 2.769 3.42 3.42 0 0 1-2.8-1.345l-.96.961a4.749 4.749 0 0 0 3.776 1.632 3.7 3.7 0 0 0 4.035-3.969zm-6.673-3.632a2.706 2.706 0 1 1 2.7 2.8 2.667 2.667 0 0 1-2.698-2.8zm9.04.1a4.218 4.218 0 0 0 7.745 2.256l-1.088-.752a2.833 2.833 0 0 1-5.265-1.232h6.561a3.9 3.9 0 0 0 .016-.416 3.729 3.729 0 0 0-3.809-4.017 4.054 4.054 0 0 0-4.154 4.157zm4.112-2.945a2.394 2.394 0 0 1 2.448 2.1h-5.072a2.615 2.615 0 0 1 2.626-2.105zm5.583 2.945a4 4 0 0 0 3.921 4.16 3.508 3.508 0 0 0 2.816-1.392v1.232h1.377v-8h-1.377v1.232a3.508 3.508 0 0 0-2.816-1.392 4 4 0 0 0-3.919 4.156zm6.85 0a2.733 2.733 0 1 1-2.721-2.9 2.732 2.732 0 0 1 2.723 2.896zm4.254 4h1.377v-3.968c0-1.873 1.1-2.753 2.112-2.753a2.011 2.011 0 0 1 .752.128v-1.424a2.851 2.851 0 0 0-.624-.064 2.38 2.38 0 0 0-2.24 1.632v-1.552h-1.37v8zm7.089-.352a1.368 1.368 0 0 0 .224-.72 1.185 1.185 0 1 0-2.369 0 1.19 1.19 0 0 0 .657 1.072l-1.073 2.289h.912zm8.751-10.769a.966.966 0 0 0-.96-.976.994.994 0 0 0-.992.976.983.983 0 0 0 .992.976.956.956 0 0 0 .962-.98zm-1.664 11.121h1.376v-8h-1.376v8zm4.384 0h1.376v-3.968c0-1.873 1.024-2.929 2.321-2.929a1.921 1.921 0 0 1 1.888 2.177v4.72h1.36v-4.928a2.949 2.949 0 0 0-3.024-3.233 2.829 2.829 0 0 0-2.545 1.392v-1.232h-1.376v8zm9.2-4a4 4 0 0 0 3.92 4.16 3.509 3.509 0 0 0 2.817-1.392v1.232h1.376v-12h-1.376v5.232a3.509 3.509 0 0 0-2.817-1.392 4 4 0 0 0-3.918 4.156zm6.849 0a2.733 2.733 0 1 1-2.721-2.9 2.732 2.732 0 0 1 2.719 2.896zm3.631 0a4.218 4.218 0 0 0 7.745 2.256l-1.088-.752a2.833 2.833 0 0 1-5.265-1.232h6.561a3.9 3.9 0 0 0 .014-.422 3.728 3.728 0 0 0-3.8-4.015 4.054 4.054 0 0 0-4.165 4.161zm4.112-2.945a2.4 2.4 0 0 1 2.449 2.1h-5.073a2.615 2.615 0 0 1 2.626-2.105zm5.584 2.945a4.218 4.218 0 0 0 7.745 2.256l-1.088-.752a2.833 2.833 0 0 1-5.265-1.232h6.561a3.9 3.9 0 0 0 .018-.422 3.729 3.729 0 0 0-3.809-4.017 4.054 4.054 0 0 0-4.16 4.163zm4.112-2.945a2.4 2.4 0 0 1 2.449 2.1h-5.073a2.615 2.615 0 0 1 2.626-2.105zm5.583 2.945a4 4 0 0 0 3.921 4.16 3.508 3.508 0 0 0 2.816-1.392v1.232h1.377v-12h-1.377v5.232a3.508 3.508 0 0 0-2.816-1.392 4 4 0 0 0-3.919 4.156zm6.85 0a2.733 2.733 0 1 1-2.721-2.9 2.732 2.732 0 0 1 2.723 2.896zm6.159 2.928a1.185 1.185 0 1 0-1.184 1.2 1.205 1.205 0 0 0 1.186-1.204zm2.64-8.561a1.414 1.414 0 0 0 .224-.72 1.192 1.192 0 1 0-2.384 0 1.24 1.24 0 0 0 .656 1.072l-1.072 2.288h.928zm2.976 0a1.414 1.414 0 0 0 .224-.72 1.192 1.192 0 1 0-2.384 0 1.24 1.24 0 0 0 .656 1.072l-1.072 2.288h.927zm6 7.777a4.388 4.388 0 0 0 3.985 2.048c2.112 0 3.616-1.216 3.616-3.152 0-1.68-.96-2.64-2.64-3.281l-1.376-.528c-1.153-.432-1.713-.864-1.713-1.824a1.81 1.81 0 0 1 2.049-1.568 2.811 2.811 0 0 1 2.256 1.12l1.088-.96a4.143 4.143 0 0 0-3.312-1.552c-2.033 0-3.553 1.168-3.553 3.024 0 1.552.8 2.48 2.577 3.137l1.5.576a2.065 2.065 0 0 1 1.632 1.92 1.844 1.844 0 0 1-2.1 1.7 3.176 3.176 0 0 1-2.817-1.552zm11.632-9.265a.966.966 0 0 0-.96-.976.994.994 0 0 0-.992.976.983.983 0 0 0 .992.976.956.956 0 0 0 .961-.98zm-1.664 11.121h1.376v-8h-1.376v8zm4.384 0h1.376v-3.968c0-1.873 1.024-2.929 2.321-2.929a1.921 1.921 0 0 1 1.888 2.177v4.72h1.36v-4.928a2.949 2.949 0 0 0-3.024-3.233 2.829 2.829 0 0 0-2.545 1.392v-1.232H598.2v8zm17.089-1.984l-1.2-.672a2.712 2.712 0 0 1-2.5 1.536 2.882 2.882 0 0 1 0-5.761 2.711 2.711 0 0 1 2.5 1.537l1.2-.673a4.143 4.143 0 0 0-3.7-2.144 4.161 4.161 0 1 0 0 8.321 4.143 4.143 0 0 0 3.701-2.148zm1.551-2.016a4.218 4.218 0 0 0 7.745 2.256l-1.088-.752a2.833 2.833 0 0 1-5.265-1.232h6.561a3.9 3.9 0 0 0 .016-.416 3.729 3.729 0 0 0-3.81-4.021 4.054 4.054 0 0 0-4.158 4.161zm4.112-2.945a2.4 2.4 0 0 1 2.449 2.1h-5.072a2.615 2.615 0 0 1 2.624-2.105zm14.576 6.833V623.8a3.041 3.041 0 0 1-.976.16 1.152 1.152 0 0 1-1.328-1.36v-4.193h2.3v-1.264h-2.3v-2.224h-1.375v2.224h-1.7v1.264h1.7v4.369a2.252 2.252 0 0 0 2.448 2.448 3.828 3.828 0 0 0 1.232-.19zm2.159.112h1.377v-3.968c0-1.873 1.024-2.929 2.32-2.929a1.921 1.921 0 0 1 1.888 2.177v4.72h1.36v-4.928a2.949 2.949 0 0 0-3.024-3.233 2.829 2.829 0 0 0-2.544 1.392v-5.232h-1.377v12zm9.2-4a4.218 4.218 0 0 0 7.745 2.256l-1.088-.752a2.833 2.833 0 0 1-5.265-1.232h6.561a3.9 3.9 0 0 0 .016-.416 3.728 3.728 0 0 0-3.808-4.017 4.054 4.054 0 0 0-4.16 4.157zM651 618.2a2.394 2.394 0 0 1 2.448 2.1h-5.073a2.616 2.616 0 0 1 2.625-2.1zm6.207 6.945h1.376v-3.968c0-1.873 1.024-2.929 2.321-2.929a1.921 1.921 0 0 1 1.888 2.177v4.72h1.36v-4.928a2.949 2.949 0 0 0-3.024-3.233 2.831 2.831 0 0 0-2.545 1.392v-1.232h-1.376v8zm11.536-.352a1.368 1.368 0 0 0 .224-.72 1.184 1.184 0 1 0-2.368 0 1.191 1.191 0 0 0 .656 1.072l-1.072 2.289h.917zm11.152.24V623.8a3.041 3.041 0 0 1-.976.16 1.152 1.152 0 0 1-1.328-1.36v-4.193h2.3v-1.264h-2.3v-2.224h-1.376v2.224h-1.7v1.264h1.7v4.369a2.252 2.252 0 0 0 2.448 2.448 3.828 3.828 0 0 0 1.237-.19zm2.16.112h1.376v-3.968c0-1.873 1.024-2.929 2.32-2.929a1.921 1.921 0 0 1 1.889 2.177v4.72H689v-4.928a2.949 2.949 0 0 0-3.025-3.233 2.829 2.829 0 0 0-2.544 1.392v-5.232h-1.376v12zm9.2-4A4.219 4.219 0 0 0 699 623.4l-1.089-.752a2.832 2.832 0 0 1-5.264-1.232h6.561a3.9 3.9 0 0 0 .016-.416 3.729 3.729 0 0 0-3.809-4.017 4.055 4.055 0 0 0-4.159 4.163zm4.113-2.945a2.394 2.394 0 0 1 2.448 2.1h-5.072a2.615 2.615 0 0 1 2.625-2.1zm14.576 6.833V623.8a3.041 3.041 0 0 1-.976.16 1.152 1.152 0 0 1-1.328-1.36v-4.193h2.3v-1.264h-2.3v-2.224h-1.377v2.224h-1.7v1.264h1.7v4.369a2.252 2.252 0 0 0 2.449 2.448 3.828 3.828 0 0 0 1.233-.19zm2.159.112h1.376v-3.968c0-1.873 1.105-2.753 2.113-2.753a2.011 2.011 0 0 1 .752.128v-1.424a2.851 2.851 0 0 0-.624-.064 2.381 2.381 0 0 0-2.241 1.632v-1.552H712.1v8zm5.344-4a4.218 4.218 0 0 0 7.745 2.256l-1.088-.752a2.833 2.833 0 0 1-5.265-1.232h6.561a3.9 3.9 0 0 0 .016-.416 3.728 3.728 0 0 0-3.808-4.017 4.055 4.055 0 0 0-4.16 4.162zm4.113-2.945a2.394 2.394 0 0 1 2.448 2.1h-5.073a2.617 2.617 0 0 1 2.626-2.1zm6.207 6.945h1.377v-3.968c0-1.873 1.024-2.929 2.32-2.929a1.921 1.921 0 0 1 1.888 2.177v4.72h1.36v-4.928a2.949 2.949 0 0 0-3.024-3.233 2.829 2.829 0 0 0-2.544 1.392v-1.232h-1.377v8zm17.089-1.984l-1.2-.672a2.712 2.712 0 0 1-2.5 1.536 2.882 2.882 0 0 1 0-5.761 2.711 2.711 0 0 1 2.5 1.537l1.2-.673a4.143 4.143 0 0 0-3.7-2.144 4.161 4.161 0 1 0 0 8.321 4.143 4.143 0 0 0 3.701-2.143zm2.175 1.984h1.376v-3.968c0-1.873 1.024-2.929 2.32-2.929a1.921 1.921 0 0 1 1.889 2.177v4.72h1.36v-4.928a2.949 2.949 0 0 0-3.025-3.233 2.829 2.829 0 0 0-2.544 1.392v-5.232h-1.376v12zm14.127 0h1.377v-3.968c0-1.873 1.024-2.929 2.32-2.929a1.921 1.921 0 0 1 1.888 2.177v4.72h1.361v-4.928a2.949 2.949 0 0 0-3.025-3.233 2.829 2.829 0 0 0-2.544 1.392v-5.232h-1.377v12zm9.2-4a4 4 0 0 0 3.921 4.16 3.508 3.508 0 0 0 2.816-1.392v1.232h1.376v-8H777.1v1.232a3.508 3.508 0 0 0-2.816-1.392 4 4 0 0 0-3.925 4.161zm6.849 0a2.733 2.733 0 1 1-2.72-2.9 2.731 2.731 0 0 1 2.721 2.901zm9.44 1.776c0-1.2-.752-1.968-2.112-2.416l-.865-.288c-.944-.3-1.232-.608-1.232-1.121a1.132 1.132 0 0 1 1.344-.928 2.162 2.162 0 0 1 1.7.832l.9-.864a3.1 3.1 0 0 0-2.561-1.152c-1.584 0-2.7.88-2.7 2.176a2.415 2.415 0 0 0 1.984 2.321l.784.256c1.041.336 1.425.72 1.425 1.28a1.218 1.218 0 0 1-1.409 1.088 2.147 2.147 0 0 1-2.048-1.264l-1.12.608a3.178 3.178 0 0 0 3.136 1.856c1.607.001 2.775-.815 2.775-2.383zm8.047.992a3.508 3.508 0 0 0 2.816 1.392 4.168 4.168 0 0 0 0-8.321 3.508 3.508 0 0 0-2.816 1.392v-5.232h-1.376v12h1.382v-1.232zm5.329-2.768a2.726 2.726 0 1 1-2.721-2.9 2.732 2.732 0 0 1 2.722 2.901zm3.151 0a4.218 4.218 0 0 0 7.745 2.256l-1.088-.752a2.833 2.833 0 0 1-5.265-1.232h6.561a3.9 3.9 0 0 0 .016-.416 3.728 3.728 0 0 0-3.809-4.017 4.054 4.054 0 0 0-4.159 4.162zm4.112-2.945a2.4 2.4 0 0 1 2.449 2.1h-5.073a2.615 2.615 0 0 1 2.625-2.1zm13.473 4.961l-1.2-.672a2.712 2.712 0 0 1-2.5 1.536 2.882 2.882 0 0 1 0-5.761 2.711 2.711 0 0 1 2.5 1.537l1.2-.673a4.145 4.145 0 0 0-3.7-2.144 4.161 4.161 0 1 0 0 8.321 4.145 4.145 0 0 0 3.701-2.143zm9.9-2.016a4.185 4.185 0 1 0-4.176 4.16 4.106 4.106 0 0 0 4.18-4.159zm-6.961 0a2.778 2.778 0 1 1 2.785 2.88 2.751 2.751 0 0 1-2.783-2.879zm9.328 4h1.376v-3.968c0-1.808.913-2.929 2.209-2.929 1.04 0 1.568.9 1.568 2.193v4.7h1.376v-3.968c0-1.808.9-2.929 2.192-2.929 1.041 0 1.585.9 1.585 2.193v4.7h1.376v-4.912c0-1.953-1.056-3.249-2.8-3.249a2.769 2.769 0 0 0-2.624 1.712 2.515 2.515 0 0 0-2.464-1.712 2.691 2.691 0 0 0-2.417 1.392v-1.232h-1.373v8zm13.936-4a4.218 4.218 0 0 0 7.745 2.256l-1.088-.752a2.833 2.833 0 0 1-5.265-1.232h6.561a3.9 3.9 0 0 0 .016-.416 3.728 3.728 0 0 0-3.808-4.017 4.054 4.054 0 0 0-4.157 4.162zm4.113-2.945a2.394 2.394 0 0 1 2.448 2.1h-5.073a2.616 2.616 0 0 1 2.629-2.1zm9.887 2.945a4 4 0 0 0 3.92 4.16 3.51 3.51 0 0 0 2.817-1.392v1.232h1.376v-8H867.7v1.232a3.51 3.51 0 0 0-2.817-1.392 4 4 0 0 0-3.917 4.161zm6.849 0a2.733 2.733 0 1 1-2.721-2.9 2.732 2.732 0 0 1 2.725 2.901zm8.558 4h1.377v-3.968c0-1.873 1.024-2.929 2.32-2.929a1.921 1.921 0 0 1 1.888 2.177v4.72h1.361v-4.928a2.949 2.949 0 0 0-3.025-3.233 2.829 2.829 0 0 0-2.544 1.392v-5.232h-1.377v12zm9.2-4a4 4 0 0 0 3.921 4.16 3.508 3.508 0 0 0 2.816-1.392v1.232h1.376v-8h-1.372v1.232a3.508 3.508 0 0 0-2.816-1.392 4 4 0 0 0-3.921 4.161zm6.849 0a2.733 2.733 0 1 1-2.72-2.9 2.731 2.731 0 0 1 2.724 2.901zm4.255 4h1.376v-12h-1.376v12zm4.384 0h1.376v-12h-1.376v12zm4.384 0h1.376v-3.968c0-1.808.912-2.929 2.209-2.929 1.04 0 1.568.9 1.568 2.193v4.7h1.376v-3.968c0-1.808.9-2.929 2.192-2.929 1.04 0 1.584.9 1.584 2.193v4.7h1.377v-4.912c0-1.953-1.056-3.249-2.8-3.249a2.769 2.769 0 0 0-2.623 1.724 2.515 2.515 0 0 0-2.464-1.712 2.689 2.689 0 0 0-2.417 1.392v-1.232h-1.376v8zm13.936-4a4 4 0 0 0 3.92 4.16 3.51 3.51 0 0 0 2.817-1.392v1.232h1.376v-8h-1.376v1.232a3.51 3.51 0 0 0-2.817-1.392 4 4 0 0 0-3.916 4.161zm6.849 0a2.733 2.733 0 1 1-2.721-2.9 2.732 2.732 0 0 1 2.725 2.901zm4.255 4h1.376v-3.968c0-1.873 1.1-2.753 2.112-2.753a2.011 2.011 0 0 1 .752.128v-1.424a2.851 2.851 0 0 0-.624-.064 2.38 2.38 0 0 0-2.24 1.632v-1.552h-1.376v8zm6.256 0h1.376v-4l4.337 4h1.856l-4.817-4.464 3.937-3.537h-1.825l-3.488 3.121v-7.121h-1.376v12zm-887.329 20a4.185 4.185 0 1 0-4.177 4.16 4.106 4.106 0 0 0 4.181-4.159zm-6.961 0a2.778 2.778 0 1 1 2.784 2.88 2.751 2.751 0 0 1-2.78-2.879zm9.872 4H53.7v-6.737h2.32v-1.264H53.7v-1.472a1.152 1.152 0 0 1 1.328-1.36 3.223 3.223 0 0 1 .992.16v-1.216a3.638 3.638 0 0 0-1.248-.208 2.285 2.285 0 0 0-2.448 2.48v1.616h-1.7v1.264h1.7v6.737zm8.864-4a4.218 4.218 0 0 0 7.745 2.256l-1.088-.752a2.833 2.833 0 0 1-5.265-1.232h6.561a3.9 3.9 0 0 0 .019-.417 3.728 3.728 0 0 0-3.808-4.017 4.054 4.054 0 0 0-4.161 4.163zM65.3 642.2a2.394 2.394 0 0 1 2.448 2.1h-5.073a2.615 2.615 0 0 1 2.625-2.1zm5.583 2.945a4 4 0 0 0 3.921 4.16 3.509 3.509 0 0 0 2.816-1.392v1.232H79v-8h-1.381v1.232a3.509 3.509 0 0 0-2.816-1.392 4 4 0 0 0-3.921 4.161zm6.849 0a2.733 2.733 0 1 1-2.72-2.9 2.732 2.732 0 0 1 2.719 2.901zm11.52 2.016l-1.2-.672a2.712 2.712 0 0 1-2.5 1.536 2.882 2.882 0 0 1 0-5.761 2.711 2.711 0 0 1 2.5 1.537l1.2-.673a4.144 4.144 0 0 0-3.7-2.144 4.161 4.161 0 1 0 0 8.321 4.144 4.144 0 0 0 3.699-2.143zm2.175 1.984H92.8v-3.968c0-1.873 1.024-2.929 2.32-2.929a1.921 1.921 0 0 1 1.888 2.177v4.72h1.36v-4.928a2.949 2.949 0 0 0-3.024-3.233 2.829 2.829 0 0 0-2.544 1.392v-5.232h-1.374v12zm21.393-1.984l-1.2-.672a2.712 2.712 0 0 1-2.5 1.536 2.882 2.882 0 0 1 0-5.761 2.711 2.711 0 0 1 2.5 1.537l1.2-.673a4.146 4.146 0 0 0-3.7-2.144 4.161 4.161 0 1 0 0 8.321 4.146 4.146 0 0 0 3.699-2.143zm9.9-2.016a4.185 4.185 0 1 0-4.176 4.16 4.106 4.106 0 0 0 4.178-4.159zm-6.961 0a2.778 2.778 0 1 1 2.785 2.88 2.751 2.751 0 0 1-2.783-2.879zm9.328 4h1.376v-12h-1.376v12zm4.384 0h1.376v-12h-1.376v12zm3.76-4a4.218 4.218 0 0 0 7.745 2.256l-1.088-.752a2.833 2.833 0 0 1-5.265-1.232h6.561a3.9 3.9 0 0 0 .016-.417 3.728 3.728 0 0 0-3.809-4.017 4.054 4.054 0 0 0-4.158 4.163zm4.112-2.945a2.394 2.394 0 0 1 2.449 2.1h-5.073a2.615 2.615 0 0 1 2.626-2.1zm13.473 4.961l-1.2-.672a2.713 2.713 0 0 1-2.5 1.536 2.882 2.882 0 0 1 0-5.761 2.712 2.712 0 0 1 2.5 1.537l1.2-.673a4.143 4.143 0 0 0-3.7-2.144 4.161 4.161 0 1 0 0 8.321 4.143 4.143 0 0 0 3.702-2.143zm6.511 1.872V647.8a3.041 3.041 0 0 1-.976.16 1.152 1.152 0 0 1-1.328-1.36v-4.193h2.3v-1.264h-2.3v-2.224h-1.376v2.224h-1.7v1.264h1.7v4.369a2.252 2.252 0 0 0 2.448 2.448 3.828 3.828 0 0 0 1.234-.19zm3.824-11.009a.966.966 0 0 0-.96-.976 1 1 0 0 0-.993.976.984.984 0 0 0 .993.976.956.956 0 0 0 .962-.975zm-1.664 11.121h1.376v-8h-1.376v8zm12.112-4a4.185 4.185 0 1 0-4.176 4.16 4.106 4.106 0 0 0 4.177-4.159zm-6.961 0a2.778 2.778 0 1 1 2.785 2.88 2.751 2.751 0 0 1-2.783-2.879zm9.328 4h1.376v-3.968c0-1.873 1.025-2.929 2.321-2.929a1.921 1.921 0 0 1 1.888 2.177v4.72h1.36v-4.928a2.949 2.949 0 0 0-3.024-3.233 2.831 2.831 0 0 0-2.545 1.392v-1.232h-1.376v8zm9.568-3.792h8.081v-1.376h-8.081v1.376zm10.816 3.792h1.376v-3.968c0-1.873 1.1-2.753 2.112-2.753a2.02 2.02 0 0 1 .753.128v-1.424a2.866 2.866 0 0 0-.625-.064 2.38 2.38 0 0 0-2.24 1.632v-1.552h-1.376v8zm5.36-4a4 4 0 0 0 3.92 4.16 3.509 3.509 0 0 0 2.817-1.392v1.232h1.376v-8h-1.376v1.232a3.509 3.509 0 0 0-2.817-1.392 4 4 0 0 0-3.918 4.161zm6.849 0a2.733 2.733 0 1 1-2.721-2.9 2.732 2.732 0 0 1 2.723 2.901zm5.919-7.121a.966.966 0 0 0-.96-.976.994.994 0 0 0-.992.976.983.983 0 0 0 .992.976.956.956 0 0 0 .962-.975zm-1.664 11.121h1.376v-8h-1.376v8zm4.384 0h1.376v-3.968c0-1.873 1.024-2.929 2.32-2.929a1.921 1.921 0 0 1 1.888 2.177v4.72h1.361v-4.928a2.949 2.949 0 0 0-3.025-3.233 2.829 2.829 0 0 0-2.544 1.392v-1.232H215.2v8zm21.856-4a4.185 4.185 0 1 0-4.176 4.16 4.106 4.106 0 0 0 4.178-4.159zm-6.961 0a2.778 2.778 0 1 1 2.785 2.88 2.751 2.751 0 0 1-2.778-2.879zm9.328 4h1.379v-3.968c0-1.873 1.1-2.753 2.113-2.753a2.011 2.011 0 0 1 .752.128v-1.424a2.851 2.851 0 0 0-.624-.064 2.38 2.38 0 0 0-2.241 1.636v-1.552h-1.376v8zm15.345-2.224c0-1.2-.752-1.968-2.113-2.416l-.864-.288c-.944-.3-1.232-.608-1.232-1.121a1.132 1.132 0 0 1 1.344-.928 2.161 2.161 0 0 1 1.7.832l.9-.864a3.1 3.1 0 0 0-2.561-1.152c-1.584 0-2.7.88-2.7 2.176a2.415 2.415 0 0 0 1.984 2.321l.776.257c1.04.336 1.424.72 1.424 1.28a1.218 1.218 0 0 1-1.408 1.088 2.147 2.147 0 0 1-2.048-1.264l-1.12.608a3.178 3.178 0 0 0 3.136 1.856c1.616 0 2.784-.816 2.784-2.384zm2.367 2.224h1.376v-3.968c0-1.873 1.024-2.929 2.32-2.929a1.921 1.921 0 0 1 1.889 2.177v4.72h1.36v-4.928a2.949 2.949 0 0 0-3.025-3.233 2.829 2.829 0 0 0-2.544 1.392v-5.232h-1.376v12zm11.488-11.121a.966.966 0 0 0-.96-.976.994.994 0 0 0-.992.976.983.983 0 0 0 .992.976.956.956 0 0 0 .962-.975zm-1.664 11.121h1.376v-8h-1.376v8zm4.383 0h1.377v-3.968c0-1.873 1.024-2.929 2.32-2.929a1.921 1.921 0 0 1 1.888 2.177v4.72h1.36v-4.928a2.949 2.949 0 0 0-3.024-3.233 2.829 2.829 0 0 0-2.544 1.392v-1.232h-1.377v8zm9.2-4a4.218 4.218 0 0 0 7.745 2.256l-1.088-.752a2.833 2.833 0 0 1-5.265-1.232h6.568a3.9 3.9 0 0 0 .016-.416 3.728 3.728 0 0 0-3.808-4.017 4.054 4.054 0 0 0-4.166 4.162zm4.113-2.945a2.394 2.394 0 0 1 2.448 2.1h-5.071a2.616 2.616 0 0 1 2.625-2.1zm8.111 5.873a1.184 1.184 0 1 0-1.184 1.2 1.205 1.205 0 0 0 1.186-1.199z"/><path id="IN_THE_TRENCHES" data-name="IN THE TRENCHES" class="cls-1" d="M41.061 560.436H46.3v-23.409h-5.239v23.409zm33.343 0v-23.409H69.13v14.441l-11.375-14.441h-4.517v23.409h5.242v-14.474l11.408 14.474H74.4zm19.452 0h5.275v-18.4h6.033v-5.012H87.889v5.012h5.968v18.4zm16.5 0h5.244v-9.265h9.43v9.265h5.242v-23.409h-5.242v9.166h-9.43v-9.166h-5.24v23.409zm26.862 0h14.837v-5.012h-9.595v-4.187h7.616v-5.011h-7.616v-4.187h9.595v-5.012h-14.833v23.409zm33.326 0h5.275v-18.4h6.034v-5.012h-17.272v5.012h5.967v18.4zm16.5 0h5.242v-9.66h.857l7.781 9.66h6.3l-8.275-10.32c2.967-1.055 4.583-3 4.583-6.033a6.912 6.912 0 0 0-7.254-7.056h-9.231v23.409zm5.242-14.111v-4.484h3.363c1.549 0 2.67.824 2.67 2.242 0 1.351-1.121 2.242-2.67 2.242h-3.363zm18.583 14.111h14.837v-5.012h-9.595v-4.187h7.616v-5.011h-7.616v-4.187h9.595v-5.012h-14.829v23.409zm41.99 0v-23.409h-5.275v14.441l-11.375-14.441H231.7v23.409h5.242v-14.474l11.408 14.474h4.517zm17.73.395a12.1 12.1 0 0 0 10.946-6.4l-4.616-2.5a7.023 7.023 0 1 1 0-6.4l4.616-2.5a12.2 12.2 0 1 0-10.935 17.8zm16.015-.395h5.242v-9.265h9.429v9.265h5.243v-23.409h-5.243v9.166h-9.429v-9.166h-5.242v23.409zm26.862 0h14.844v-5.012h-9.594v-4.187h7.616v-5.011h-7.616v-4.187h9.594v-5.012h-14.836v23.409zm27.812.395c4.946 0 8.342-2.967 8.375-7.22.033-3.528-2.176-5.77-5.572-6.99l-1.649-.593c-2.473-.89-3.626-1.451-3.626-2.7 0-1.219 1.417-1.78 2.835-1.78a5.2 5.2 0 0 1 4.055 1.945l3.429-3.626a9.767 9.767 0 0 0-7.55-3.231c-4.682 0-8.078 2.67-8.078 7.22 0 3.2 2.11 5.473 5.9 6.759l1.648.56c2.341.792 3.265 1.616 3.265 2.8 0 1.121-1.088 1.945-2.836 1.945a6.121 6.121 0 0 1-4.846-2.671l-4.023 3.4a10.265 10.265 0 0 0 8.681 4.182z"/><path id="Water-Resistant_Limonta_Trench_" data-name="Water-Resistant Limonta Trench" class="cls-2" d="M694.532 464.146h2.416l2.641-11.361h-2.721l-1.552 7.2-3.2-7.393-3.185 7.393-1.552-7.2h-2.72l2.624 11.361h2.417l2.417-5.568zm5.887 0h2.656l1.008-2.4h4.705l1.008 2.4h2.656l-4.864-11.361h-2.3zm4.592-4.608l1.424-3.425 1.425 3.425h-2.849zm10.816 4.608h2.56v-8.929h2.929v-2.432h-8.385v2.432h2.9v8.929zm8.32 0h7.2v-2.432h-4.657v-2.032h3.7v-2.433h-3.7v-2.032h4.657v-2.432h-7.2v11.361zm10.416 0h2.544v-4.688h.416l3.777 4.688h3.056l-4.017-5.008a2.933 2.933 0 0 0 2.225-2.929 3.354 3.354 0 0 0-3.521-3.424h-4.48v11.361zm2.544-6.849v-2.176h1.632a1.132 1.132 0 0 1 1.3 1.088 1.15 1.15 0 0 1-1.3 1.088h-1.632zm8.543 2.321h4.705v-2.305h-4.705v2.305zm8.112 4.528h2.545v-4.688h.416l3.776 4.688h3.057l-4.017-5.008a2.933 2.933 0 0 0 2.224-2.929 3.354 3.354 0 0 0-3.52-3.424h-4.481v11.361zm2.545-6.849v-2.176h1.632a1.132 1.132 0 0 1 1.3 1.088 1.15 1.15 0 0 1-1.3 1.088h-1.632zm9.327 6.849h7.2v-2.432h-4.657v-2.032h3.7v-2.433h-3.7v-2.032h4.657v-2.432h-7.2v11.361zm13.809.192c2.4 0 4.048-1.44 4.064-3.5.016-1.712-1.056-2.8-2.7-3.393l-.8-.288c-1.2-.432-1.761-.7-1.761-1.312a1.167 1.167 0 0 1 1.377-.864 2.527 2.527 0 0 1 1.968.944l1.664-1.76a4.74 4.74 0 0 0-3.664-1.568c-2.273 0-3.921 1.3-3.921 3.5 0 1.552 1.024 2.657 2.864 3.281l.8.272c1.137.384 1.585.784 1.585 1.36a1.152 1.152 0 0 1-1.376.944 2.972 2.972 0 0 1-2.353-1.3l-1.952 1.648a4.982 4.982 0 0 0 4.205 2.036zm7.1-.192h2.544v-11.361h-2.544v11.361zm9.616.192c2.4 0 4.049-1.44 4.065-3.5.016-1.712-1.056-2.8-2.7-3.393l-.8-.288c-1.2-.432-1.76-.7-1.76-1.312a1.166 1.166 0 0 1 1.376-.864 2.527 2.527 0 0 1 1.968.944l1.665-1.76a4.742 4.742 0 0 0-3.665-1.568c-2.272 0-3.92 1.3-3.92 3.5 0 1.552 1.024 2.657 2.864 3.281l.8.272c1.136.384 1.584.784 1.584 1.36a1.152 1.152 0 0 1-1.376.944 2.972 2.972 0 0 1-2.352-1.3l-1.952 1.648a4.981 4.981 0 0 0 4.206 2.036zm8.992-.192h2.56v-8.929h2.929v-2.432h-8.386v2.432h2.9v8.929zm5.951 0h2.657l1.008-2.4h4.705l1.008 2.4h2.656l-4.865-11.361h-2.3zm4.593-4.608l1.424-3.425 1.424 3.425H815.7zm20.177 4.608v-11.361h-2.56v7.009l-5.521-7.009H825.6v11.361h2.544v-7.025l5.537 7.025h2.192zm5.727 0h2.56v-8.929h2.929v-2.432h-8.386v2.432h2.9v8.929zm12.655 0h7.249v-2.432h-4.7v-8.929h-2.545v11.361zm10.112 0h2.544v-11.361h-2.544v11.361zm12.1-2.416l3.312-4.593v7.009h2.561v-11.361h-2.321l-3.552 4.9-3.553-4.9h-2.32v11.361h2.544v-7.009zm14.783 2.608a5.873 5.873 0 1 0-5.872-5.872 5.886 5.886 0 0 0 5.872 5.872zm0-2.464a3.41 3.41 0 1 1 3.3-3.408 3.371 3.371 0 0 1-3.3 3.408zm19.185 2.272v-11.361h-2.56v7.009l-5.521-7.009h-2.193v11.361h2.545v-7.025l5.537 7.025h2.192zm5.727 0h2.56v-8.929h2.928v-2.432h-8.385v2.432h2.9v8.929zm5.951 0h2.657l1.008-2.4h4.7l1.009 2.4h2.656l-4.865-11.361h-2.3zm4.593-4.608l1.424-3.425 1.424 3.425h-2.848zm15.808 4.608h2.56v-8.929H948v-2.432h-8.385v2.432h2.9v8.929zm8.319 0h2.544v-4.688h.417l3.776 4.688h3.057l-4.017-5.008a2.933 2.933 0 0 0 2.224-2.929 3.354 3.354 0 0 0-3.52-3.424h-4.481v11.361zm2.544-6.849v-2.176h1.633a1.132 1.132 0 0 1 1.3 1.088 1.15 1.15 0 0 1-1.3 1.088h-1.633zm9.328 6.849h7.2v-2.432h-4.657v-2.032h3.7v-2.433h-3.7v-2.032h4.657v-2.432h-7.2v11.361zm20.689 0v-11.361h-2.56v7.009l-5.521-7.009h-2.192v11.361h2.544v-7.025l5.537 7.025h2.192zm8.912.192a5.872 5.872 0 0 0 5.312-3.1l-2.24-1.216a3.409 3.409 0 1 1 0-3.1l2.24-1.216a5.923 5.923 0 1 0-5.312 8.632zm8.075-.192h2.55v-4.5h4.57v4.5h2.55v-11.361h-2.55v4.448h-4.57v-4.448h-2.55v11.361z"/><g id="Number_copy_2" data-name="Number copy 2"><path id="_01" data-name="1" class="cls-1" d="M1310.13 632.1v-3.724c0-3.2-2.13-5.466-5.13-5.466s-5.12 2.263-5.12 5.466v3.724c0 3.2 2.13 5.465 5.12 5.465s5.13-2.265 5.13-5.465zm-8.06 0v-3.724c0-2.062 1.21-3.3 2.93-3.3s2.94 1.242 2.94 3.3v3.724c0 2.082-1.21 3.3-2.94 3.3s-2.93-1.218-2.93-3.3zm14.93 5.265h2.19V623.15h-3.36l-1.67 2.183h2.84v12.032z"/><path id="_04" data-name="4" class="cls-1" d="M1310.13 687.458v-3.724c0-3.2-2.13-5.465-5.13-5.465s-5.12 2.262-5.12 5.465v3.724c0 3.2 2.13 5.466 5.12 5.466s5.13-2.262 5.13-5.466zm-8.06 0v-3.724c0-2.062 1.21-3.3 2.93-3.3s2.94 1.241 2.94 3.3v3.724c0 2.083-1.21 3.3-2.94 3.3s-2.93-1.217-2.93-3.3zm17.29 5.266h2.19v-3.564h1.89v-2.042h-1.89v-8.609h-1.95l-7.55 8.869v1.782h7.31v3.564zm0-5.606h-4.56l4.56-5.326v5.326z"/><path d="M1293 658v-1.01h37V658h-37z" fill="#010000" fill-rule="evenodd"/></g><g id="X"><path id="Rectangle_116_copy_2" data-name="Rectangle 116 copy 2" class="cls-2" d="M1330.01 58.336l-.94.929-13.69-13.565-14.44 14.3-.95-.938 14.44-14.3-13.96-13.832.94-.929 13.96 13.832 13.5-13.383.95.938-13.51 13.383z"/></g><g id="R"><path id="Rectangle_116_copy" data-name="Rectangle 116 copy" class="cls-2" d="M1328.51 362.768l-.07-.068-27.94 27.9-.95-.941 27.95-27.9-27.47-27.421.93-.932 28.49 28.431z"/></g><path id="Shop_Now" data-name="Shop Now" class="cls-2" d="M1030.53 459.557a3.144 3.144 0 0 0 2.79 1.408 2.319 2.319 0 0 0 2.6-2.255 2.349 2.349 0 0 0-1.83-2.289l-.8-.3c-.8-.3-1.18-.55-1.18-1.122a1.072 1.072 0 0 1 1.23-.9 1.881 1.881 0 0 1 1.48.726l.89-.869a2.99 2.99 0 0 0-2.36-1.067 2.227 2.227 0 0 0-.69 4.4l.85.309a1.328 1.328 0 0 1 1.12 1.188 1.1 1.1 0 0 1-1.27.968 2.108 2.108 0 0 1-1.81-1zm8.77 1.276h1.29v-3.355h3.86v3.355h1.29v-7.811h-1.29v3.234h-3.86v-3.234h-1.29v7.811zm17.92-3.906a4.04 4.04 0 1 0-4.04 4.038 4.017 4.017 0 0 0 4.04-4.038zm-6.78 0a2.736 2.736 0 1 1 2.74 2.795 2.739 2.739 0 0 1-2.74-2.795zm12.65-3.905h-2.48v7.811h1.28v-2.706h1.2a2.557 2.557 0 1 0 0-5.105zm-.01 3.894h-1.19v-2.684h1.19a1.346 1.346 0 1 1 0 2.684zm17.01 3.917v-7.811h-1.3v5.6l-4.39-5.6h-1.12v7.811h1.29v-5.622l4.4 5.622h1.12zm11.47-3.906a4.035 4.035 0 1 0-4.04 4.038 4.017 4.017 0 0 0 4.04-4.038zm-6.78 0a2.736 2.736 0 1 1 2.74 2.795 2.739 2.739 0 0 1-2.74-2.795zm16.23 3.906h1.19l2.02-7.811h-1.36l-1.43 5.677-2.23-5.809-2.24 5.809-1.43-5.677h-1.35l2.01 7.811h1.19l1.82-4.775zm-70.83 2.568v-.989h76v.988h-76z"/></svg>