<svg id="Copy_copy_5" data-name="Copy copy 5" xmlns="http://www.w3.org/2000/svg" width="1360" height="723"><defs><style>.cls-1{fill-rule:evenodd}</style></defs><path id="Trench_Dress_" data-name="Trench Dress" class="cls-1" d="M614.635 649.146h2.56v-8.929h2.929v-2.432h-8.385v2.432h2.9v8.929zm8.32 0h2.545v-4.688h.416l3.776 4.688h3.057l-4.017-5.008a2.933 2.933 0 0 0 2.225-2.929 3.355 3.355 0 0 0-3.521-3.424h-4.48v11.361zm2.545-6.846v-2.176h1.632a1.132 1.132 0 0 1 1.3 1.088 1.15 1.15 0 0 1-1.3 1.088H625.5zm9.327 6.849h7.2v-2.432h-4.656v-2.032h3.7v-2.433h-3.7v-2.032h4.656v-2.432h-7.2v11.361zm20.69 0v-11.364h-2.561v7.009l-5.52-7.009h-2.193v11.361h2.545v-7.025l5.536 7.025h2.193zm8.911.192a5.874 5.874 0 0 0 5.313-3.1l-2.241-1.216a3.409 3.409 0 1 1 0-3.105l2.241-1.216a5.923 5.923 0 1 0-5.314 8.634zm8.079-.192h2.545v-4.5h4.576v4.5h2.545v-11.364h-2.545v4.448h-4.576v-4.448h-2.545v11.361zm18.144 0h3.872a5.682 5.682 0 1 0 0-11.361h-3.873v11.361zm2.544-2.336v-6.689h1.328a3.347 3.347 0 0 1 0 6.689h-1.328zm10.176 2.336h2.544v-4.688h.416l3.777 4.688h3.056l-4.016-5.008a2.933 2.933 0 0 0 2.224-2.929 3.354 3.354 0 0 0-3.521-3.424h-4.48v11.361zm2.544-6.849v-2.176h1.632a1.132 1.132 0 0 1 1.3 1.088 1.15 1.15 0 0 1-1.3 1.088h-1.632zm9.328 6.849h7.2v-2.432h-4.657v-2.032h3.7v-2.433h-3.7v-2.032h4.657v-2.432h-7.2v11.361zm13.808.192c2.4 0 4.049-1.44 4.065-3.5.016-1.712-1.056-2.8-2.705-3.393l-.8-.288c-1.2-.432-1.76-.7-1.76-1.312a1.166 1.166 0 0 1 1.376-.864 2.527 2.527 0 0 1 1.968.944l1.665-1.76a4.742 4.742 0 0 0-3.665-1.568c-2.272 0-3.92 1.3-3.92 3.5 0 1.552 1.024 2.657 2.864 3.281l.8.272c1.136.384 1.584.784 1.584 1.36a1.152 1.152 0 0 1-1.376.944 2.972 2.972 0 0 1-2.352-1.3l-1.953 1.648a4.984 4.984 0 0 0 4.208 2.033zm10.5 0c2.4 0 4.048-1.44 4.064-3.5.016-1.712-1.056-2.8-2.7-3.393l-.8-.288c-1.2-.432-1.76-.7-1.76-1.312a1.166 1.166 0 0 1 1.376-.864 2.527 2.527 0 0 1 1.968.944l1.664-1.76a4.74 4.74 0 0 0-3.664-1.568c-2.272 0-3.921 1.3-3.921 3.5 0 1.552 1.025 2.657 2.865 3.281l.8.272c1.136.384 1.584.784 1.584 1.36a1.152 1.152 0 0 1-1.376.944 2.972 2.972 0 0 1-2.352-1.3l-1.953 1.648a4.983 4.983 0 0 0 4.2 2.033z"/><path id="Shop_Now" data-name="Shop Now" class="cls-1" d="M763.533 644.557a3.129 3.129 0 0 0 2.783 1.408 2.306 2.306 0 0 0 .77-4.544l-.792-.3c-.8-.3-1.188-.55-1.188-1.122a1.074 1.074 0 0 1 1.232-.9 1.894 1.894 0 0 1 1.486.726l.891-.869a3.007 3.007 0 0 0-2.366-1.067 2.227 2.227 0 0 0-.693 4.4l.858.309a1.321 1.321 0 0 1 1.112 1.188 1.1 1.1 0 0 1-1.266.968 2.126 2.126 0 0 1-1.815-1zm8.767 1.276h1.287v-3.355h3.862v3.355h1.287v-7.811h-1.287v3.234h-3.862v-3.234H772.3v7.811zm17.92-3.906a4.038 4.038 0 1 0-4.038 4.038 4.019 4.019 0 0 0 4.038-4.038zm-6.777 0a2.735 2.735 0 1 1 2.739 2.795 2.738 2.738 0 0 1-2.739-2.795zm12.65-3.9h-2.486v7.811h1.287v-2.706h1.2a2.557 2.557 0 1 0-.001-5.11zm-.011 3.894h-1.188v-2.684h1.188a1.346 1.346 0 1 1 0 2.679zm17.007 3.917v-7.811h-1.3v5.6l-4.39-5.6h-1.122v7.811h1.287v-5.622l4.4 5.622h1.122zm11.473-3.906a4.038 4.038 0 1 0-4.038 4.038 4.019 4.019 0 0 0 4.038-4.043zm-6.777 0a2.735 2.735 0 1 1 2.739 2.795 2.738 2.738 0 0 1-2.739-2.8zm16.225 3.906h1.19l2.024-7.811h-1.364l-1.43 5.677-2.23-5.814-2.233 5.809-1.43-5.677h-1.354l2.014 7.811h1.188l1.815-4.775zm-70.829 2.562v-.989h76v.989h-76z"/><g id="Number"><path id="_02" data-name="2" class="cls-1" d="M1310.13 632.1v-3.724c0-3.2-2.13-5.466-5.13-5.466s-5.12 2.263-5.12 5.466v3.724c0 3.2 2.13 5.465 5.12 5.465s5.13-2.265 5.13-5.465zm-8.06 0v-3.724c0-2.062 1.21-3.3 2.93-3.3s2.94 1.242 2.94 3.3v3.724c0 2.082-1.21 3.3-2.94 3.3s-2.93-1.218-2.93-3.3zm19.91 3.1h-6.47c.36-1.281 1.94-2.082 3.21-3.043 2.07-1.5 3.12-2.723 3.12-4.985a4.12 4.12 0 0 0-4.43-4.265 4.527 4.527 0 0 0-4.78 4.585h2.21a2.394 2.394 0 0 1 2.55-2.423 2.076 2.076 0 0 1 2.24 2.163c0 1.441-.91 2.242-2.36 3.3-2.07 1.542-4.64 2.9-4.64 6.026v.8h9.35V635.2z"/><path id="_04" data-name="4" class="cls-1" d="M1310.13 687.458v-3.724c0-3.2-2.13-5.465-5.13-5.465s-5.12 2.262-5.12 5.465v3.724c0 3.2 2.13 5.466 5.12 5.466s5.13-2.262 5.13-5.466zm-8.06 0v-3.724c0-2.062 1.21-3.3 2.93-3.3s2.94 1.241 2.94 3.3v3.724c0 2.083-1.21 3.3-2.94 3.3s-2.93-1.217-2.93-3.3zm17.29 5.266h2.19v-3.564h1.89v-2.042h-1.89v-8.609h-1.95l-7.55 8.869v1.782h7.31v3.564zm0-5.606h-4.56l4.56-5.326v5.326z"/><path d="M1293 658v-1.01h37V658h-37z" fill="#010000" fill-rule="evenodd"/></g><g id="X_copy" data-name="X copy"><path id="Rectangle_116_copy_2" data-name="Rectangle 116 copy 2" class="cls-1" d="M1330.01 58.336l-.94.929-13.69-13.565-14.44 14.3-.95-.938 14.44-14.3-13.96-13.832.94-.929 13.96 13.832 13.5-13.383.95.938-13.51 13.383z"/></g><g id="R_copy" data-name="R copy"><path id="Rectangle_116_copy" data-name="Rectangle 116 copy" class="cls-1" d="M1328.51 362.768l-.07-.068-27.94 27.9-.95-.941 27.95-27.9-27.47-27.421.93-.932 28.49 28.431z"/></g><g id="L_copy" data-name="L copy"><path id="Rectangle_116_copy-2" data-name="Rectangle 116 copy" d="M57.12 334.161l-27.338 27.578 26.874 27.11-.913.921-27.863-28.107.913-.922.066.067L56.2 333.23z" fill="#fff" fill-rule="evenodd"/></g></svg>