<svg id="copy_copy" data-name="copy copy" xmlns="http://www.w3.org/2000/svg" width="1360" height="723" viewBox="0 0 1360 723">
  <metadata><?xpacket begin="﻿" id="W5M0MpCehiHzreSzNTczkc9d"?>
<x:xmpmeta xmlns:x="adobe:ns:meta/" x:xmptk="Adobe XMP Core 5.6-c138 79.159824, 2016/09/14-01:09:01        ">
   <rdf:RDF xmlns:rdf="http://www.w3.org/1999/02/22-rdf-syntax-ns#">
      <rdf:Description rdf:about=""/>
   </rdf:RDF>
</x:xmpmeta>
                                                                                                    
                                                                                                    
                                                                                                    
                                                                                                    
                                                                                                    
                                                                                                    
                                                                                                    
                                                                                                    
                                                                                                    
                                                                                                    
                                                                                                    
                                                                                                    
                                                                                                    
                                                                                                    
                                                                                                    
                                                                                                    
                                                                                                    
                                                                                                    
                                                                                                    
                                                                                                    
                           
<?xpacket end="w"?></metadata>
<defs>
    <style>
      .cls-1, .cls-2, .cls-3 {
        fill-rule: evenodd;
      }

      .cls-2 {
        fill: #010000;
      }

      .cls-3 {
        fill: #fff;
      }
    </style>
  </defs>
  <path id="Utility_Trench_Coat_" data-name="Utility Trench Coat     " class="cls-1" d="M34.131,41.338A4.456,4.456,0,0,0,38.8,36.65V29.785H36.26v6.9a2.129,2.129,0,1,1-4.257,0v-6.9H29.459V36.65A4.447,4.447,0,0,0,34.131,41.338ZM44.4,41.146h2.56V32.217h2.928V29.785H41.506v2.432h2.9v8.929Zm8.32,0h2.544V29.785H52.722V41.146Zm6.224,0H66.2V38.714h-4.7V29.785H58.946V41.146Zm10.112,0H71.6V29.785H69.058V41.146Zm8.272,0h2.56V32.217h2.928V29.785H74.434v2.432h2.9v8.929Zm11.392,0h2.56V36.378l4.145-6.593h-2.96l-2.48,4.1-2.448-4.1h-2.96l4.145,6.577v4.785Zm15.312,0h2.56V32.217h2.929V29.785h-8.386v2.432h2.9v8.929Zm8.319,0H114.9V36.458h0.416l3.776,4.689h3.057l-4.017-5.009a2.933,2.933,0,0,0,2.225-2.928,3.355,3.355,0,0,0-3.521-3.425h-4.481V41.146ZM114.9,34.3V32.121h1.632a1.132,1.132,0,0,1,1.3,1.088,1.15,1.15,0,0,1-1.3,1.088H114.9Zm9.327,6.849h7.2V38.714H126.77V36.682h3.7V34.249h-3.7V32.217h4.656V29.785h-7.2V41.146Zm20.69,0V29.785h-2.561v7.009l-5.52-7.009h-2.193V41.146h2.545V34.121l5.536,7.025h2.193Zm8.911,0.192a5.875,5.875,0,0,0,5.313-3.1L156.9,37.018a3.409,3.409,0,1,1,0-3.1l2.241-1.216A5.923,5.923,0,1,0,153.826,41.338Zm8.079-.192h2.544v-4.5h4.577v4.5h2.544V29.785h-2.544v4.449h-4.577V29.785h-2.544V41.146Zm23.377,0.192a5.872,5.872,0,0,0,5.312-3.1l-2.24-1.216a3.409,3.409,0,1,1,0-3.1l2.24-1.216A5.923,5.923,0,1,0,185.282,41.338Zm13.312,0a5.873,5.873,0,1,0-5.873-5.873A5.887,5.887,0,0,0,198.594,41.338Zm0-2.464a3.41,3.41,0,1,1,3.3-3.409A3.371,3.371,0,0,1,198.594,38.874Zm7.182,2.272h2.657l1.008-2.4h4.7l1.008,2.4h2.656l-4.865-11.362h-2.3Zm4.593-4.609,1.424-3.425,1.424,3.425h-2.848Zm10.816,4.609h2.56V32.217h2.929V29.785h-8.386v2.432h2.9v8.929Z"/>
  <g id="Group_28_copy" data-name="Group 28 copy">
    <g id="Number_copy_3" data-name="Number copy 3">
      <path id="_04" data-name="04" class="cls-1" d="M1310.13,632.1v-3.724c0-3.2-2.13-5.466-5.13-5.466s-5.12,2.263-5.12,5.466V632.1c0,3.2,2.13,5.465,5.12,5.465S1310.13,635.3,1310.13,632.1Zm-8.06,0v-3.724c0-2.062,1.21-3.3,2.93-3.3s2.94,1.242,2.94,3.3V632.1c0,2.082-1.21,3.3-2.94,3.3S1302.07,634.182,1302.07,632.1Zm17.29,5.265h2.19V633.8h1.89v-2.042h-1.89V623.15h-1.95l-7.55,8.87V633.8h7.31v3.564Zm0-5.606h-4.56l4.56-5.325v5.325Z"/>
      <path id="_04-2" data-name="04" class="cls-1" d="M1310.13,687.458v-3.724c0-3.2-2.13-5.465-5.13-5.465s-5.12,2.262-5.12,5.465v3.724c0,3.2,2.13,5.466,5.12,5.466S1310.13,690.662,1310.13,687.458Zm-8.06,0v-3.724c0-2.062,1.21-3.3,2.93-3.3s2.94,1.241,2.94,3.3v3.724c0,2.083-1.21,3.3-2.94,3.3S1302.07,689.541,1302.07,687.458Zm17.29,5.266h2.19V689.16h1.89v-2.042h-1.89v-8.609h-1.95l-7.55,8.869v1.782h7.31v3.564Zm0-5.606h-4.56l4.56-5.326v5.326Z"/>
      <path class="cls-2" d="M1293,658V656.99h37V658h-37Z"/>
    </g>
    <g id="X_copy_2" data-name="X copy 2">
      <path id="Rectangle_116_copy_2" data-name="Rectangle 116 copy 2" class="cls-1" d="M1330.01,58.336l-0.94.929L1315.38,45.7,1300.94,60l-0.95-.938,14.44-14.3-13.96-13.832,0.94-.929,13.96,13.832,13.5-13.383,0.95,0.938-13.51,13.383Z"/>
    </g>
    <g id="L_copy_2" data-name="L copy 2">
      <path id="Rectangle_116_copy" data-name="Rectangle 116 copy" class="cls-3" d="M57.12,334.161L29.782,361.739l26.874,27.11-0.913.921L27.88,361.663l0.913-.922,0.066,0.067L56.2,333.23Z"/>
    </g>
  </g>
  <path id="Shop_Now_copy_2" data-name="Shop Now copy 2" class="cls-1" d="M246.533,36.557a3.129,3.129,0,0,0,2.783,1.408,2.306,2.306,0,0,0,.77-4.544l-0.792-.3c-0.8-.3-1.188-0.55-1.188-1.122a1.074,1.074,0,0,1,1.232-.9,1.894,1.894,0,0,1,1.486.726l0.891-.869a3.006,3.006,0,0,0-2.366-1.067,2.228,2.228,0,0,0-.693,4.4l0.858,0.308a1.321,1.321,0,0,1,1.112,1.188,1.1,1.1,0,0,1-1.266.968,2.126,2.126,0,0,1-1.815-1Zm8.767,1.276h1.287V34.478h3.862v3.355h1.287V30.022h-1.287v3.234h-3.862V30.022H255.3v7.811Zm17.92-3.906a4.038,4.038,0,1,0-4.038,4.038A4.019,4.019,0,0,0,273.22,33.927Zm-6.777,0a2.735,2.735,0,1,1,2.739,2.794A2.738,2.738,0,0,1,266.443,33.927Zm12.65-3.905h-2.486v7.811h1.287V35.127h1.2A2.557,2.557,0,1,0,279.093,30.022Zm-0.011,3.895h-1.188V31.232h1.188A1.346,1.346,0,1,1,279.082,33.916Zm17.007,3.917V30.022h-1.3v5.6l-4.39-5.6h-1.122v7.811h1.287V32.211l4.4,5.622h1.122Zm11.473-3.906a4.038,4.038,0,1,0-4.038,4.038A4.019,4.019,0,0,0,307.562,33.927Zm-6.777,0a2.735,2.735,0,1,1,2.739,2.794A2.738,2.738,0,0,1,300.785,33.927Zm16.225,3.906H318.2l2.024-7.811h-1.364l-1.43,5.677L315.2,29.89,312.962,35.7l-1.43-5.677h-1.354l2.014,7.811h1.188l1.815-4.775ZM246.181,40.4v-0.99h76V40.4h-76Z"/>
</svg>
